{
    "header": {
      "keySignatures": [],
      "meta": [],
      "name": "",
      "ppq": 384,
      "tempos": [
        {
          "bpm": 89.00004005001803,
          "ticks": 0
        }
      ],
      "timeSignatures": [
        {
          "ticks": 0,
          "timeSignature": [
            1,
            4
          ],
          "measures": 0
        }
      ]
    },
    "tracks": [
      {
        "channel": 0,
        "controlChanges": {},
        "pitchBends": [],
        "instrument": {
          "family": "piano",
          "number": 0,
          "name": "acoustic grand piano"
        },
        "name": "Elec. Piano (Classic)",
        "notes": [
          {
            "duration": 0.33707849999999995,
            "durationTicks": 192,
            "midi": 60,
            "name": "C4",
            "ticks": 0,
            "time": 0,
            "velocity": 0.3937007874015748
          },
          {
            "duration": 0.33707849999999995,
            "durationTicks": 192,
            "midi": 36,
            "name": "C2",
            "ticks": 0,
            "time": 0,
            "velocity": 0.3937007874015748
          },
          {
            "duration": 0.33707849999999995,
            "durationTicks": 192,
            "midi": 48,
            "name": "C3",
            "ticks": 0,
            "time": 0,
            "velocity": 0.3937007874015748
          },
          {
            "duration": 0.16853924999999992,
            "durationTicks": 96,
            "midi": 72,
            "name": "C5",
            "ticks": 192,
            "time": 0.33707849999999995,
            "velocity": 0.3937007874015748
          },
          {
            "duration": 0.16853924999999992,
            "durationTicks": 96,
            "midi": 48,
            "name": "C3",
            "ticks": 192,
            "time": 0.33707849999999995,
            "velocity": 0.3937007874015748
          },
          {
            "duration": 0.16853924999999992,
            "durationTicks": 96,
            "midi": 36,
            "name": "C2",
            "ticks": 192,
            "time": 0.33707849999999995,
            "velocity": 0.3937007874015748
          },
          {
            "duration": 0.16853925000000003,
            "durationTicks": 96,
            "midi": 48,
            "name": "C3",
            "ticks": 288,
            "time": 0.5056177499999999,
            "velocity": 0.3937007874015748
          },
          {
            "duration": 0.16853925000000003,
            "durationTicks": 96,
            "midi": 67,
            "name": "G4",
            "ticks": 288,
            "time": 0.5056177499999999,
            "velocity": 0.3937007874015748
          },
          {
            "duration": 0.16853925000000003,
            "durationTicks": 96,
            "midi": 36,
            "name": "C2",
            "ticks": 288,
            "time": 0.5056177499999999,
            "velocity": 0.3937007874015748
          },
          {
            "duration": 0.33707849999999984,
            "durationTicks": 192,
            "midi": 36,
            "name": "C2",
            "ticks": 384,
            "time": 0.6741569999999999,
            "velocity": 0.3937007874015748
          },
          {
            "duration": 0.33707849999999984,
            "durationTicks": 192,
            "midi": 48,
            "name": "C3",
            "ticks": 384,
            "time": 0.6741569999999999,
            "velocity": 0.3937007874015748
          },
          {
            "duration": 0.33707849999999984,
            "durationTicks": 192,
            "midi": 60,
            "name": "C4",
            "ticks": 384,
            "time": 0.6741569999999999,
            "velocity": 0.3937007874015748
          },
          {
            "duration": 0.33707850000000006,
            "durationTicks": 192,
            "midi": 55,
            "name": "G3",
            "ticks": 576,
            "time": 1.0112354999999997,
            "velocity": 0.3937007874015748
          },
          {
            "duration": 0.33707850000000006,
            "durationTicks": 192,
            "midi": 43,
            "name": "G2",
            "ticks": 576,
            "time": 1.0112354999999997,
            "velocity": 0.3937007874015748
          },
          {
            "duration": 0.33707850000000006,
            "durationTicks": 192,
            "midi": 72,
            "name": "C5",
            "ticks": 576,
            "time": 1.0112354999999997,
            "velocity": 0.3937007874015748
          },
          {
            "duration": 0.33707850000000006,
            "durationTicks": 192,
            "midi": 48,
            "name": "C3",
            "ticks": 768,
            "time": 1.3483139999999998,
            "velocity": 0.3937007874015748
          },
          {
            "duration": 0.33707850000000006,
            "durationTicks": 192,
            "midi": 36,
            "name": "C2",
            "ticks": 768,
            "time": 1.3483139999999998,
            "velocity": 0.3937007874015748
          },
          {
            "duration": 0.33707850000000006,
            "durationTicks": 192,
            "midi": 60,
            "name": "C4",
            "ticks": 768,
            "time": 1.3483139999999998,
            "velocity": 0.3937007874015748
          },
          {
            "duration": 0.1685392499999998,
            "durationTicks": 96,
            "midi": 72,
            "name": "C5",
            "ticks": 960,
            "time": 1.6853924999999998,
            "velocity": 0.3937007874015748
          },
          {
            "duration": 0.1685392499999998,
            "durationTicks": 96,
            "midi": 48,
            "name": "C3",
            "ticks": 960,
            "time": 1.6853924999999998,
            "velocity": 0.3937007874015748
          },
          {
            "duration": 0.1685392499999998,
            "durationTicks": 96,
            "midi": 36,
            "name": "C2",
            "ticks": 960,
            "time": 1.6853924999999998,
            "velocity": 0.3937007874015748
          },
          {
            "duration": 0.1685392499999998,
            "durationTicks": 96,
            "midi": 67,
            "name": "G4",
            "ticks": 1056,
            "time": 1.8539317499999997,
            "velocity": 0.3937007874015748
          },
          {
            "duration": 0.1685392499999998,
            "durationTicks": 96,
            "midi": 48,
            "name": "C3",
            "ticks": 1056,
            "time": 1.8539317499999997,
            "velocity": 0.3937007874015748
          },
          {
            "duration": 0.1685392499999998,
            "durationTicks": 96,
            "midi": 36,
            "name": "C2",
            "ticks": 1056,
            "time": 1.8539317499999997,
            "velocity": 0.3937007874015748
          },
          {
            "duration": 0.33707850000000006,
            "durationTicks": 192,
            "midi": 36,
            "name": "C2",
            "ticks": 1152,
            "time": 2.0224709999999995,
            "velocity": 0.3937007874015748
          },
          {
            "duration": 0.33707850000000006,
            "durationTicks": 192,
            "midi": 48,
            "name": "C3",
            "ticks": 1152,
            "time": 2.0224709999999995,
            "velocity": 0.3937007874015748
          },
          {
            "duration": 0.33707850000000006,
            "durationTicks": 192,
            "midi": 60,
            "name": "C4",
            "ticks": 1152,
            "time": 2.0224709999999995,
            "velocity": 0.3937007874015748
          },
          {
            "duration": 0.33707850000000006,
            "durationTicks": 192,
            "midi": 55,
            "name": "G3",
            "ticks": 1344,
            "time": 2.3595494999999995,
            "velocity": 0.3937007874015748
          },
          {
            "duration": 0.33707850000000006,
            "durationTicks": 192,
            "midi": 72,
            "name": "C5",
            "ticks": 1344,
            "time": 2.3595494999999995,
            "velocity": 0.3937007874015748
          },
          {
            "duration": 0.33707850000000006,
            "durationTicks": 192,
            "midi": 43,
            "name": "G2",
            "ticks": 1344,
            "time": 2.3595494999999995,
            "velocity": 0.3937007874015748
          },
          {
            "duration": 0.33707850000000006,
            "durationTicks": 192,
            "midi": 60,
            "name": "C4",
            "ticks": 1536,
            "time": 2.6966279999999996,
            "velocity": 0.3937007874015748
          },
          {
            "duration": 0.33707850000000006,
            "durationTicks": 192,
            "midi": 36,
            "name": "C2",
            "ticks": 1536,
            "time": 2.6966279999999996,
            "velocity": 0.3937007874015748
          },
          {
            "duration": 0.33707850000000006,
            "durationTicks": 192,
            "midi": 48,
            "name": "C3",
            "ticks": 1536,
            "time": 2.6966279999999996,
            "velocity": 0.3937007874015748
          },
          {
            "duration": 0.1685392499999998,
            "durationTicks": 96,
            "midi": 36,
            "name": "C2",
            "ticks": 1728,
            "time": 3.0337064999999996,
            "velocity": 0.3937007874015748
          },
          {
            "duration": 0.1685392499999998,
            "durationTicks": 96,
            "midi": 72,
            "name": "C5",
            "ticks": 1728,
            "time": 3.0337064999999996,
            "velocity": 0.3937007874015748
          },
          {
            "duration": 0.1685392499999998,
            "durationTicks": 96,
            "midi": 48,
            "name": "C3",
            "ticks": 1728,
            "time": 3.0337064999999996,
            "velocity": 0.3937007874015748
          },
          {
            "duration": 0.16853925000000025,
            "durationTicks": 96,
            "midi": 48,
            "name": "C3",
            "ticks": 1824,
            "time": 3.2022457499999994,
            "velocity": 0.3937007874015748
          },
          {
            "duration": 0.16853925000000025,
            "durationTicks": 96,
            "midi": 36,
            "name": "C2",
            "ticks": 1824,
            "time": 3.2022457499999994,
            "velocity": 0.3937007874015748
          },
          {
            "duration": 0.16853925000000025,
            "durationTicks": 96,
            "midi": 67,
            "name": "G4",
            "ticks": 1824,
            "time": 3.2022457499999994,
            "velocity": 0.3937007874015748
          },
          {
            "duration": 0.3370784999999996,
            "durationTicks": 192,
            "midi": 60,
            "name": "C4",
            "ticks": 1920,
            "time": 3.3707849999999997,
            "velocity": 0.3937007874015748
          },
          {
            "duration": 0.3370784999999996,
            "durationTicks": 192,
            "midi": 48,
            "name": "C3",
            "ticks": 1920,
            "time": 3.3707849999999997,
            "velocity": 0.3937007874015748
          },
          {
            "duration": 0.3370784999999996,
            "durationTicks": 192,
            "midi": 36,
            "name": "C2",
            "ticks": 1920,
            "time": 3.3707849999999997,
            "velocity": 0.3937007874015748
          },
          {
            "duration": 0.3370784999999996,
            "durationTicks": 192,
            "midi": 72,
            "name": "C5",
            "ticks": 2112,
            "time": 3.7078634999999993,
            "velocity": 0.3937007874015748
          },
          {
            "duration": 0.3370784999999996,
            "durationTicks": 192,
            "midi": 55,
            "name": "G3",
            "ticks": 2112,
            "time": 3.7078634999999993,
            "velocity": 0.3937007874015748
          },
          {
            "duration": 0.3370784999999996,
            "durationTicks": 192,
            "midi": 43,
            "name": "G2",
            "ticks": 2112,
            "time": 3.7078634999999993,
            "velocity": 0.3937007874015748
          },
          {
            "duration": 0.16853925000000025,
            "durationTicks": 96,
            "midi": 60,
            "name": "C4",
            "ticks": 2304,
            "time": 4.044941999999999,
            "velocity": 0.3937007874015748
          },
          {
            "duration": 0.16853925000000025,
            "durationTicks": 96,
            "midi": 48,
            "name": "C3",
            "ticks": 2304,
            "time": 4.044941999999999,
            "velocity": 0.3937007874015748
          },
          {
            "duration": 1.0112355000000006,
            "durationTicks": 576,
            "midi": 72,
            "name": "C5",
            "ticks": 2304,
            "time": 4.044941999999999,
            "velocity": 0.3937007874015748
          },
          {
            "duration": 0.16853925000000025,
            "durationTicks": 96,
            "midi": 36,
            "name": "C2",
            "ticks": 2304,
            "time": 4.044941999999999,
            "velocity": 0.3937007874015748
          },
          {
            "duration": 0.16853925000000025,
            "durationTicks": 96,
            "midi": 48,
            "name": "C3",
            "ticks": 2400,
            "time": 4.213481249999999,
            "velocity": 0.3937007874015748
          },
          {
            "duration": 0.16853925000000025,
            "durationTicks": 96,
            "midi": 60,
            "name": "C4",
            "ticks": 2400,
            "time": 4.213481249999999,
            "velocity": 0.3937007874015748
          },
          {
            "duration": 0.16853925000000025,
            "durationTicks": 96,
            "midi": 36,
            "name": "C2",
            "ticks": 2400,
            "time": 4.213481249999999,
            "velocity": 0.3937007874015748
          },
          {
            "duration": 0.16853925000000025,
            "durationTicks": 96,
            "midi": 60,
            "name": "C4",
            "ticks": 2496,
            "time": 4.382020499999999,
            "velocity": 0.3937007874015748
          },
          {
            "duration": 0.16853925000000025,
            "durationTicks": 96,
            "midi": 48,
            "name": "C3",
            "ticks": 2496,
            "time": 4.382020499999999,
            "velocity": 0.3937007874015748
          },
          {
            "duration": 0.16853925000000025,
            "durationTicks": 96,
            "midi": 36,
            "name": "C2",
            "ticks": 2496,
            "time": 4.382020499999999,
            "velocity": 0.3937007874015748
          },
          {
            "duration": 0.16853924999999936,
            "durationTicks": 96,
            "midi": 36,
            "name": "C2",
            "ticks": 2592,
            "time": 4.55055975,
            "velocity": 0.3937007874015748
          },
          {
            "duration": 0.16853924999999936,
            "durationTicks": 96,
            "midi": 60,
            "name": "C4",
            "ticks": 2592,
            "time": 4.55055975,
            "velocity": 0.3937007874015748
          },
          {
            "duration": 0.16853924999999936,
            "durationTicks": 96,
            "midi": 48,
            "name": "C3",
            "ticks": 2592,
            "time": 4.55055975,
            "velocity": 0.3937007874015748
          },
          {
            "duration": 0.3370785000000005,
            "durationTicks": 192,
            "midi": 43,
            "name": "G2",
            "ticks": 2688,
            "time": 4.719098999999999,
            "velocity": 0.3937007874015748
          },
          {
            "duration": 0.3370785000000005,
            "durationTicks": 192,
            "midi": 55,
            "name": "G3",
            "ticks": 2688,
            "time": 4.719098999999999,
            "velocity": 0.3937007874015748
          },
          {
            "duration": 0.6741570000000001,
            "durationTicks": 384,
            "midi": 72,
            "name": "C5",
            "ticks": 2688,
            "time": 4.719098999999999,
            "velocity": 0.3937007874015748
          },
          {
            "duration": 0.3370784999999996,
            "durationTicks": 192,
            "midi": 72,
            "name": "C5",
            "ticks": 2880,
            "time": 5.0561774999999995,
            "velocity": 0.3937007874015748
          },
          {
            "duration": 0.3370784999999996,
            "durationTicks": 192,
            "midi": 55,
            "name": "G3",
            "ticks": 2880,
            "time": 5.0561774999999995,
            "velocity": 0.3937007874015748
          },
          {
            "duration": 0.3370784999999996,
            "durationTicks": 192,
            "midi": 43,
            "name": "G2",
            "ticks": 2880,
            "time": 5.0561774999999995,
            "velocity": 0.3937007874015748
          },
          {
            "duration": 0.16853925000000025,
            "durationTicks": 96,
            "midi": 63,
            "name": "D#4",
            "ticks": 3072,
            "time": 5.393255999999999,
            "velocity": 0.3937007874015748
          },
          {
            "duration": 0.16853925000000025,
            "durationTicks": 96,
            "midi": 63,
            "name": "D#4",
            "ticks": 3072,
            "time": 5.393255999999999,
            "velocity": 0.3937007874015748
          },
          {
            "duration": 0.3370784999999996,
            "durationTicks": 192,
            "midi": 36,
            "name": "C2",
            "ticks": 3072,
            "time": 5.393255999999999,
            "velocity": 0.3937007874015748
          },
          {
            "duration": 0.3370784999999996,
            "durationTicks": 192,
            "midi": 48,
            "name": "C3",
            "ticks": 3072,
            "time": 5.393255999999999,
            "velocity": 0.3937007874015748
          },
          {
            "duration": 0.16853924999999936,
            "durationTicks": 96,
            "midi": 62,
            "name": "D4",
            "ticks": 3168,
            "time": 5.561795249999999,
            "velocity": 0.3937007874015748
          },
          {
            "duration": 0.16853924999999936,
            "durationTicks": 96,
            "midi": 62,
            "name": "D4",
            "ticks": 3168,
            "time": 5.561795249999999,
            "velocity": 0.3937007874015748
          },
          {
            "duration": 0.3370785000000005,
            "durationTicks": 192,
            "midi": 60,
            "name": "C4",
            "ticks": 3264,
            "time": 5.730334499999999,
            "velocity": 0.3937007874015748
          },
          {
            "duration": 0.3370785000000005,
            "durationTicks": 192,
            "midi": 60,
            "name": "C4",
            "ticks": 3264,
            "time": 5.730334499999999,
            "velocity": 0.3937007874015748
          },
          {
            "duration": 0.3370785000000005,
            "durationTicks": 192,
            "midi": 43,
            "name": "G2",
            "ticks": 3264,
            "time": 5.730334499999999,
            "velocity": 0.3937007874015748
          },
          {
            "duration": 0.16853924999999936,
            "durationTicks": 96,
            "midi": 60,
            "name": "C4",
            "ticks": 3456,
            "time": 6.067412999999999,
            "velocity": 0.3937007874015748
          },
          {
            "duration": 0.16853924999999936,
            "durationTicks": 96,
            "midi": 60,
            "name": "C4",
            "ticks": 3456,
            "time": 6.067412999999999,
            "velocity": 0.3937007874015748
          },
          {
            "duration": 0.16853924999999936,
            "durationTicks": 96,
            "midi": 36,
            "name": "C2",
            "ticks": 3456,
            "time": 6.067412999999999,
            "velocity": 0.3937007874015748
          },
          {
            "duration": 0.16853925000000025,
            "durationTicks": 96,
            "midi": 62,
            "name": "D4",
            "ticks": 3552,
            "time": 6.235952249999999,
            "velocity": 0.3937007874015748
          },
          {
            "duration": 0.16853925000000025,
            "durationTicks": 96,
            "midi": 36,
            "name": "C2",
            "ticks": 3552,
            "time": 6.235952249999999,
            "velocity": 0.3937007874015748
          },
          {
            "duration": 0.16853925000000025,
            "durationTicks": 96,
            "midi": 62,
            "name": "D4",
            "ticks": 3552,
            "time": 6.235952249999999,
            "velocity": 0.3937007874015748
          },
          {
            "duration": 0.16853925000000025,
            "durationTicks": 96,
            "midi": 63,
            "name": "D#4",
            "ticks": 3648,
            "time": 6.404491499999999,
            "velocity": 0.3937007874015748
          },
          {
            "duration": 0.3370785000000005,
            "durationTicks": 192,
            "midi": 36,
            "name": "C2",
            "ticks": 3648,
            "time": 6.404491499999999,
            "velocity": 0.3937007874015748
          },
          {
            "duration": 0.16853925000000025,
            "durationTicks": 96,
            "midi": 63,
            "name": "D#4",
            "ticks": 3648,
            "time": 6.404491499999999,
            "velocity": 0.3937007874015748
          },
          {
            "duration": 0.16853925000000025,
            "durationTicks": 96,
            "midi": 62,
            "name": "D4",
            "ticks": 3744,
            "time": 6.573030749999999,
            "velocity": 0.3937007874015748
          },
          {
            "duration": 0.16853925000000025,
            "durationTicks": 96,
            "midi": 62,
            "name": "D4",
            "ticks": 3744,
            "time": 6.573030749999999,
            "velocity": 0.3937007874015748
          },
          {
            "duration": 0.3370784999999996,
            "durationTicks": 192,
            "midi": 36,
            "name": "C2",
            "ticks": 3840,
            "time": 6.741569999999999,
            "velocity": 0.3937007874015748
          },
          {
            "duration": 0.16853924999999936,
            "durationTicks": 96,
            "midi": 60,
            "name": "C4",
            "ticks": 3840,
            "time": 6.741569999999999,
            "velocity": 0.3937007874015748
          },
          {
            "duration": 0.16853924999999936,
            "durationTicks": 96,
            "midi": 60,
            "name": "C4",
            "ticks": 3840,
            "time": 6.741569999999999,
            "velocity": 0.3937007874015748
          },
          {
            "duration": 0.3370784999999996,
            "durationTicks": 192,
            "midi": 48,
            "name": "C3",
            "ticks": 3840,
            "time": 6.741569999999999,
            "velocity": 0.3937007874015748
          },
          {
            "duration": 0.16853925000000025,
            "durationTicks": 96,
            "midi": 63,
            "name": "D#4",
            "ticks": 3936,
            "time": 6.910109249999999,
            "velocity": 0.3937007874015748
          },
          {
            "duration": 0.16853925000000025,
            "durationTicks": 96,
            "midi": 63,
            "name": "D#4",
            "ticks": 3936,
            "time": 6.910109249999999,
            "velocity": 0.3937007874015748
          },
          {
            "duration": 0.3370784999999996,
            "durationTicks": 192,
            "midi": 67,
            "name": "G4",
            "ticks": 4032,
            "time": 7.078648499999999,
            "velocity": 0.3937007874015748
          },
          {
            "duration": 0.5056177499999999,
            "durationTicks": 288,
            "midi": 67,
            "name": "G4",
            "ticks": 4032,
            "time": 7.078648499999999,
            "velocity": 0.3937007874015748
          },
          {
            "duration": 0.3370784999999996,
            "durationTicks": 192,
            "midi": 48,
            "name": "C3",
            "ticks": 4032,
            "time": 7.078648499999999,
            "velocity": 0.3937007874015748
          },
          {
            "duration": 0.3370784999999996,
            "durationTicks": 192,
            "midi": 43,
            "name": "G2",
            "ticks": 4032,
            "time": 7.078648499999999,
            "velocity": 0.3937007874015748
          },
          {
            "duration": 0.3370785000000005,
            "durationTicks": 192,
            "midi": 39,
            "name": "D#2",
            "ticks": 4224,
            "time": 7.415726999999999,
            "velocity": 0.3937007874015748
          },
          {
            "duration": 0.16853925000000025,
            "durationTicks": 96,
            "midi": 60,
            "name": "C4",
            "ticks": 4320,
            "time": 7.584266249999999,
            "velocity": 0.3937007874015748
          },
          {
            "duration": 0.16853925000000025,
            "durationTicks": 96,
            "midi": 60,
            "name": "C4",
            "ticks": 4320,
            "time": 7.584266249999999,
            "velocity": 0.3937007874015748
          },
          {
            "duration": 0.3370784999999987,
            "durationTicks": 192,
            "midi": 43,
            "name": "G2",
            "ticks": 4416,
            "time": 7.752805499999999,
            "velocity": 0.3937007874015748
          },
          {
            "duration": 0.16853924999999936,
            "durationTicks": 96,
            "midi": 63,
            "name": "D#4",
            "ticks": 4416,
            "time": 7.752805499999999,
            "velocity": 0.3937007874015748
          },
          {
            "duration": 0.16853924999999936,
            "durationTicks": 96,
            "midi": 63,
            "name": "D#4",
            "ticks": 4416,
            "time": 7.752805499999999,
            "velocity": 0.3937007874015748
          },
          {
            "duration": 0.16853924999999936,
            "durationTicks": 96,
            "midi": 67,
            "name": "G4",
            "ticks": 4512,
            "time": 7.9213447499999985,
            "velocity": 0.3937007874015748
          },
          {
            "duration": 0.16853924999999936,
            "durationTicks": 96,
            "midi": 67,
            "name": "G4",
            "ticks": 4512,
            "time": 7.9213447499999985,
            "velocity": 0.3937007874015748
          },
          {
            "duration": 0.3370785000000005,
            "durationTicks": 192,
            "midi": 53,
            "name": "F3",
            "ticks": 4608,
            "time": 8.089883999999998,
            "velocity": 0.3937007874015748
          },
          {
            "duration": 0.16853925000000025,
            "durationTicks": 96,
            "midi": 68,
            "name": "G#4",
            "ticks": 4608,
            "time": 8.089883999999998,
            "velocity": 0.3937007874015748
          },
          {
            "duration": 0.16853925000000025,
            "durationTicks": 96,
            "midi": 68,
            "name": "G#4",
            "ticks": 4608,
            "time": 8.089883999999998,
            "velocity": 0.3937007874015748
          },
          {
            "duration": 0.3370785000000005,
            "durationTicks": 192,
            "midi": 41,
            "name": "F2",
            "ticks": 4608,
            "time": 8.089883999999998,
            "velocity": 0.3937007874015748
          },
          {
            "duration": 0.16853925000000025,
            "durationTicks": 96,
            "midi": 67,
            "name": "G4",
            "ticks": 4704,
            "time": 8.258423249999998,
            "velocity": 0.3937007874015748
          },
          {
            "duration": 0.16853925000000025,
            "durationTicks": 96,
            "midi": 67,
            "name": "G4",
            "ticks": 4704,
            "time": 8.258423249999998,
            "velocity": 0.3937007874015748
          },
          {
            "duration": 0.16853925000000025,
            "durationTicks": 96,
            "midi": 65,
            "name": "F4",
            "ticks": 4800,
            "time": 8.426962499999998,
            "velocity": 0.3937007874015748
          },
          {
            "duration": 0.3370785000000005,
            "durationTicks": 192,
            "midi": 48,
            "name": "C3",
            "ticks": 4800,
            "time": 8.426962499999998,
            "velocity": 0.3937007874015748
          },
          {
            "duration": 0.16853925000000025,
            "durationTicks": 96,
            "midi": 65,
            "name": "F4",
            "ticks": 4800,
            "time": 8.426962499999998,
            "velocity": 0.3937007874015748
          },
          {
            "duration": 0.16853925000000025,
            "durationTicks": 96,
            "midi": 63,
            "name": "D#4",
            "ticks": 4896,
            "time": 8.595501749999999,
            "velocity": 0.3937007874015748
          },
          {
            "duration": 0.16853925000000025,
            "durationTicks": 96,
            "midi": 63,
            "name": "D#4",
            "ticks": 4896,
            "time": 8.595501749999999,
            "velocity": 0.3937007874015748
          },
          {
            "duration": 0.16853925000000025,
            "durationTicks": 96,
            "midi": 62,
            "name": "D4",
            "ticks": 4992,
            "time": 8.764040999999999,
            "velocity": 0.3937007874015748
          },
          {
            "duration": 0.16853925000000025,
            "durationTicks": 96,
            "midi": 62,
            "name": "D4",
            "ticks": 4992,
            "time": 8.764040999999999,
            "velocity": 0.3937007874015748
          },
          {
            "duration": 0.16853925000000025,
            "durationTicks": 96,
            "midi": 44,
            "name": "G#2",
            "ticks": 4992,
            "time": 8.764040999999999,
            "velocity": 0.3937007874015748
          },
          {
            "duration": 0.16853925000000025,
            "durationTicks": 96,
            "midi": 63,
            "name": "D#4",
            "ticks": 5088,
            "time": 8.932580249999999,
            "velocity": 0.3937007874015748
          },
          {
            "duration": 0.16853925000000025,
            "durationTicks": 96,
            "midi": 63,
            "name": "D#4",
            "ticks": 5088,
            "time": 8.932580249999999,
            "velocity": 0.3937007874015748
          },
          {
            "duration": 0.16853925000000025,
            "durationTicks": 96,
            "midi": 44,
            "name": "G#2",
            "ticks": 5088,
            "time": 8.932580249999999,
            "velocity": 0.3937007874015748
          },
          {
            "duration": 0.16853924999999848,
            "durationTicks": 96,
            "midi": 65,
            "name": "F4",
            "ticks": 5184,
            "time": 9.1011195,
            "velocity": 0.3937007874015748
          },
          {
            "duration": 0.3370784999999987,
            "durationTicks": 192,
            "midi": 46,
            "name": "A#2",
            "ticks": 5184,
            "time": 9.1011195,
            "velocity": 0.3937007874015748
          },
          {
            "duration": 0.16853924999999848,
            "durationTicks": 96,
            "midi": 65,
            "name": "F4",
            "ticks": 5184,
            "time": 9.1011195,
            "velocity": 0.3937007874015748
          },
          {
            "duration": 0.16853925000000025,
            "durationTicks": 96,
            "midi": 67,
            "name": "G4",
            "ticks": 5280,
            "time": 9.269658749999998,
            "velocity": 0.3937007874015748
          },
          {
            "duration": 0.16853925000000025,
            "durationTicks": 96,
            "midi": 67,
            "name": "G4",
            "ticks": 5280,
            "time": 9.269658749999998,
            "velocity": 0.3937007874015748
          },
          {
            "duration": 0.674157000000001,
            "durationTicks": 384,
            "midi": 63,
            "name": "D#4",
            "ticks": 5376,
            "time": 9.438197999999998,
            "velocity": 0.3937007874015748
          },
          {
            "duration": 0.3370785000000005,
            "durationTicks": 192,
            "midi": 39,
            "name": "D#2",
            "ticks": 5376,
            "time": 9.438197999999998,
            "velocity": 0.3937007874015748
          },
          {
            "duration": 0.3370785000000005,
            "durationTicks": 192,
            "midi": 51,
            "name": "D#3",
            "ticks": 5376,
            "time": 9.438197999999998,
            "velocity": 0.3937007874015748
          },
          {
            "duration": 0.8426962499999995,
            "durationTicks": 480,
            "midi": 63,
            "name": "D#4",
            "ticks": 5376,
            "time": 9.438197999999998,
            "velocity": 0.3937007874015748
          },
          {
            "duration": 0.3370785000000005,
            "durationTicks": 192,
            "midi": 46,
            "name": "A#2",
            "ticks": 5568,
            "time": 9.775276499999999,
            "velocity": 0.3937007874015748
          },
          {
            "duration": 0.16853924999999848,
            "durationTicks": 96,
            "midi": 51,
            "name": "D#3",
            "ticks": 5760,
            "time": 10.112354999999999,
            "velocity": 0.3937007874015748
          },
          {
            "duration": 0.16853925000000025,
            "durationTicks": 96,
            "midi": 60,
            "name": "C4",
            "ticks": 5856,
            "time": 10.280894249999998,
            "velocity": 0.3937007874015748
          },
          {
            "duration": 0.16853925000000025,
            "durationTicks": 96,
            "midi": 46,
            "name": "A#2",
            "ticks": 5856,
            "time": 10.280894249999998,
            "velocity": 0.3937007874015748
          },
          {
            "duration": 0.16853925000000025,
            "durationTicks": 96,
            "midi": 60,
            "name": "C4",
            "ticks": 5856,
            "time": 10.280894249999998,
            "velocity": 0.3937007874015748
          },
          {
            "duration": 0.16853925000000025,
            "durationTicks": 96,
            "midi": 48,
            "name": "C3",
            "ticks": 5952,
            "time": 10.449433499999998,
            "velocity": 0.3937007874015748
          },
          {
            "duration": 0.16853925000000025,
            "durationTicks": 96,
            "midi": 63,
            "name": "D#4",
            "ticks": 5952,
            "time": 10.449433499999998,
            "velocity": 0.3937007874015748
          },
          {
            "duration": 0.16853925000000025,
            "durationTicks": 96,
            "midi": 63,
            "name": "D#4",
            "ticks": 5952,
            "time": 10.449433499999998,
            "velocity": 0.3937007874015748
          },
          {
            "duration": 0.16853925000000025,
            "durationTicks": 96,
            "midi": 67,
            "name": "G4",
            "ticks": 6048,
            "time": 10.617972749999998,
            "velocity": 0.3937007874015748
          },
          {
            "duration": 0.16853925000000025,
            "durationTicks": 96,
            "midi": 67,
            "name": "G4",
            "ticks": 6048,
            "time": 10.617972749999998,
            "velocity": 0.3937007874015748
          },
          {
            "duration": 0.16853925000000025,
            "durationTicks": 96,
            "midi": 43,
            "name": "G2",
            "ticks": 6048,
            "time": 10.617972749999998,
            "velocity": 0.3937007874015748
          },
          {
            "duration": 0.16853925000000025,
            "durationTicks": 96,
            "midi": 68,
            "name": "G#4",
            "ticks": 6144,
            "time": 10.786511999999998,
            "velocity": 0.3937007874015748
          },
          {
            "duration": 0.3370785000000005,
            "durationTicks": 192,
            "midi": 53,
            "name": "F3",
            "ticks": 6144,
            "time": 10.786511999999998,
            "velocity": 0.3937007874015748
          },
          {
            "duration": 0.3370785000000005,
            "durationTicks": 192,
            "midi": 41,
            "name": "F2",
            "ticks": 6144,
            "time": 10.786511999999998,
            "velocity": 0.3937007874015748
          },
          {
            "duration": 0.16853925000000025,
            "durationTicks": 96,
            "midi": 68,
            "name": "G#4",
            "ticks": 6144,
            "time": 10.786511999999998,
            "velocity": 0.3937007874015748
          },
          {
            "duration": 0.16853925000000025,
            "durationTicks": 96,
            "midi": 67,
            "name": "G4",
            "ticks": 6240,
            "time": 10.955051249999999,
            "velocity": 0.3937007874015748
          },
          {
            "duration": 0.16853925000000025,
            "durationTicks": 96,
            "midi": 67,
            "name": "G4",
            "ticks": 6240,
            "time": 10.955051249999999,
            "velocity": 0.3937007874015748
          },
          {
            "duration": 0.16853925000000025,
            "durationTicks": 96,
            "midi": 65,
            "name": "F4",
            "ticks": 6336,
            "time": 11.123590499999999,
            "velocity": 0.3937007874015748
          },
          {
            "duration": 0.16853925000000025,
            "durationTicks": 96,
            "midi": 65,
            "name": "F4",
            "ticks": 6336,
            "time": 11.123590499999999,
            "velocity": 0.3937007874015748
          },
          {
            "duration": 0.3370784999999987,
            "durationTicks": 192,
            "midi": 48,
            "name": "C3",
            "ticks": 6336,
            "time": 11.123590499999999,
            "velocity": 0.3937007874015748
          },
          {
            "duration": 0.16853924999999848,
            "durationTicks": 96,
            "midi": 63,
            "name": "D#4",
            "ticks": 6432,
            "time": 11.292129749999999,
            "velocity": 0.3937007874015748
          },
          {
            "duration": 0.16853924999999848,
            "durationTicks": 96,
            "midi": 63,
            "name": "D#4",
            "ticks": 6432,
            "time": 11.292129749999999,
            "velocity": 0.3937007874015748
          },
          {
            "duration": 0.16853925000000025,
            "durationTicks": 96,
            "midi": 62,
            "name": "D4",
            "ticks": 6528,
            "time": 11.460668999999998,
            "velocity": 0.3937007874015748
          },
          {
            "duration": 0.16853925000000025,
            "durationTicks": 96,
            "midi": 44,
            "name": "G#2",
            "ticks": 6528,
            "time": 11.460668999999998,
            "velocity": 0.3937007874015748
          },
          {
            "duration": 0.16853925000000025,
            "durationTicks": 96,
            "midi": 62,
            "name": "D4",
            "ticks": 6528,
            "time": 11.460668999999998,
            "velocity": 0.3937007874015748
          },
          {
            "duration": 0.16853925000000025,
            "durationTicks": 96,
            "midi": 63,
            "name": "D#4",
            "ticks": 6624,
            "time": 11.629208249999998,
            "velocity": 0.3937007874015748
          },
          {
            "duration": 0.16853925000000025,
            "durationTicks": 96,
            "midi": 44,
            "name": "G#2",
            "ticks": 6624,
            "time": 11.629208249999998,
            "velocity": 0.3937007874015748
          },
          {
            "duration": 0.16853925000000025,
            "durationTicks": 96,
            "midi": 63,
            "name": "D#4",
            "ticks": 6624,
            "time": 11.629208249999998,
            "velocity": 0.3937007874015748
          },
          {
            "duration": 0.16853925000000025,
            "durationTicks": 96,
            "midi": 65,
            "name": "F4",
            "ticks": 6720,
            "time": 11.797747499999998,
            "velocity": 0.3937007874015748
          },
          {
            "duration": 0.3370785000000005,
            "durationTicks": 192,
            "midi": 65,
            "name": "F4",
            "ticks": 6720,
            "time": 11.797747499999998,
            "velocity": 0.3937007874015748
          },
          {
            "duration": 0.3370785000000005,
            "durationTicks": 192,
            "midi": 46,
            "name": "A#2",
            "ticks": 6720,
            "time": 11.797747499999998,
            "velocity": 0.3937007874015748
          },
          {
            "duration": 0.16853925000000025,
            "durationTicks": 96,
            "midi": 58,
            "name": "A#3",
            "ticks": 6816,
            "time": 11.966286749999998,
            "velocity": 0.3937007874015748
          },
          {
            "duration": 0.16853925000000025,
            "durationTicks": 96,
            "midi": 67,
            "name": "G4",
            "ticks": 6912,
            "time": 12.134825999999999,
            "velocity": 0.3937007874015748
          },
          {
            "duration": 0.3370784999999987,
            "durationTicks": 192,
            "midi": 39,
            "name": "D#2",
            "ticks": 6912,
            "time": 12.134825999999999,
            "velocity": 0.3937007874015748
          },
          {
            "duration": 0.16853925000000025,
            "durationTicks": 96,
            "midi": 67,
            "name": "G4",
            "ticks": 6912,
            "time": 12.134825999999999,
            "velocity": 0.3937007874015748
          },
          {
            "duration": 0.3370784999999987,
            "durationTicks": 192,
            "midi": 51,
            "name": "D#3",
            "ticks": 6912,
            "time": 12.134825999999999,
            "velocity": 0.3937007874015748
          },
          {
            "duration": 0.16853924999999848,
            "durationTicks": 96,
            "midi": 65,
            "name": "F4",
            "ticks": 7008,
            "time": 12.303365249999999,
            "velocity": 0.3937007874015748
          },
          {
            "duration": 0.16853924999999848,
            "durationTicks": 96,
            "midi": 65,
            "name": "F4",
            "ticks": 7008,
            "time": 12.303365249999999,
            "velocity": 0.3937007874015748
          },
          {
            "duration": 0.3370785000000005,
            "durationTicks": 192,
            "midi": 46,
            "name": "A#2",
            "ticks": 7104,
            "time": 12.471904499999997,
            "velocity": 0.3937007874015748
          },
          {
            "duration": 0.16853925000000025,
            "durationTicks": 96,
            "midi": 63,
            "name": "D#4",
            "ticks": 7104,
            "time": 12.471904499999997,
            "velocity": 0.3937007874015748
          },
          {
            "duration": 0.16853925000000025,
            "durationTicks": 96,
            "midi": 63,
            "name": "D#4",
            "ticks": 7104,
            "time": 12.471904499999997,
            "velocity": 0.3937007874015748
          },
          {
            "duration": 0.16853925000000025,
            "durationTicks": 96,
            "midi": 62,
            "name": "D4",
            "ticks": 7200,
            "time": 12.640443749999998,
            "velocity": 0.3937007874015748
          },
          {
            "duration": 0.16853925000000025,
            "durationTicks": 96,
            "midi": 62,
            "name": "D4",
            "ticks": 7200,
            "time": 12.640443749999998,
            "velocity": 0.3937007874015748
          },
          {
            "duration": 0.3370785000000005,
            "durationTicks": 192,
            "midi": 39,
            "name": "D#2",
            "ticks": 7296,
            "time": 12.808982999999998,
            "velocity": 0.3937007874015748
          },
          {
            "duration": 0.16853925000000025,
            "durationTicks": 96,
            "midi": 60,
            "name": "C4",
            "ticks": 7296,
            "time": 12.808982999999998,
            "velocity": 0.3937007874015748
          },
          {
            "duration": 0.16853925000000025,
            "durationTicks": 96,
            "midi": 60,
            "name": "C4",
            "ticks": 7296,
            "time": 12.808982999999998,
            "velocity": 0.3937007874015748
          },
          {
            "duration": 0.16853925000000025,
            "durationTicks": 96,
            "midi": 62,
            "name": "D4",
            "ticks": 7392,
            "time": 12.977522249999998,
            "velocity": 0.3937007874015748
          },
          {
            "duration": 0.16853925000000025,
            "durationTicks": 96,
            "midi": 62,
            "name": "D4",
            "ticks": 7392,
            "time": 12.977522249999998,
            "velocity": 0.3937007874015748
          },
          {
            "duration": 0.16853925000000025,
            "durationTicks": 96,
            "midi": 63,
            "name": "D#4",
            "ticks": 7488,
            "time": 13.146061499999998,
            "velocity": 0.3937007874015748
          },
          {
            "duration": 0.3370785000000005,
            "durationTicks": 192,
            "midi": 43,
            "name": "G2",
            "ticks": 7488,
            "time": 13.146061499999998,
            "velocity": 0.3937007874015748
          },
          {
            "duration": 0.3370785000000005,
            "durationTicks": 192,
            "midi": 63,
            "name": "D#4",
            "ticks": 7488,
            "time": 13.146061499999998,
            "velocity": 0.3937007874015748
          },
          {
            "duration": 0.16853925000000025,
            "durationTicks": 96,
            "midi": 56,
            "name": "G#3",
            "ticks": 7584,
            "time": 13.314600749999999,
            "velocity": 0.3937007874015748
          },
          {
            "duration": 0.3370784999999987,
            "durationTicks": 192,
            "midi": 38,
            "name": "D2",
            "ticks": 7680,
            "time": 13.483139999999999,
            "velocity": 0.3937007874015748
          },
          {
            "duration": 0.3370784999999987,
            "durationTicks": 192,
            "midi": 50,
            "name": "D3",
            "ticks": 7680,
            "time": 13.483139999999999,
            "velocity": 0.3937007874015748
          },
          {
            "duration": 0.16853924999999848,
            "durationTicks": 96,
            "midi": 65,
            "name": "F4",
            "ticks": 7680,
            "time": 13.483139999999999,
            "velocity": 0.3937007874015748
          },
          {
            "duration": 0.16853924999999848,
            "durationTicks": 96,
            "midi": 65,
            "name": "F4",
            "ticks": 7680,
            "time": 13.483139999999999,
            "velocity": 0.3937007874015748
          },
          {
            "duration": 0.16853925000000025,
            "durationTicks": 96,
            "midi": 63,
            "name": "D#4",
            "ticks": 7776,
            "time": 13.651679249999997,
            "velocity": 0.3937007874015748
          },
          {
            "duration": 0.16853925000000025,
            "durationTicks": 96,
            "midi": 63,
            "name": "D#4",
            "ticks": 7776,
            "time": 13.651679249999997,
            "velocity": 0.3937007874015748
          },
          {
            "duration": 0.16853925000000025,
            "durationTicks": 96,
            "midi": 62,
            "name": "D4",
            "ticks": 7872,
            "time": 13.820218499999998,
            "velocity": 0.3937007874015748
          },
          {
            "duration": 0.3370785000000005,
            "durationTicks": 192,
            "midi": 41,
            "name": "F2",
            "ticks": 7872,
            "time": 13.820218499999998,
            "velocity": 0.3937007874015748
          },
          {
            "duration": 0.16853925000000025,
            "durationTicks": 96,
            "midi": 62,
            "name": "D4",
            "ticks": 7872,
            "time": 13.820218499999998,
            "velocity": 0.3937007874015748
          },
          {
            "duration": 0.16853925000000025,
            "durationTicks": 96,
            "midi": 60,
            "name": "C4",
            "ticks": 7968,
            "time": 13.988757749999998,
            "velocity": 0.3937007874015748
          },
          {
            "duration": 0.16853925000000025,
            "durationTicks": 96,
            "midi": 60,
            "name": "C4",
            "ticks": 7968,
            "time": 13.988757749999998,
            "velocity": 0.3937007874015748
          },
          {
            "duration": 0.3370785000000005,
            "durationTicks": 192,
            "midi": 38,
            "name": "D2",
            "ticks": 8064,
            "time": 14.157296999999998,
            "velocity": 0.3937007874015748
          },
          {
            "duration": 0.16853925000000025,
            "durationTicks": 96,
            "midi": 59,
            "name": "B3",
            "ticks": 8064,
            "time": 14.157296999999998,
            "velocity": 0.3937007874015748
          },
          {
            "duration": 0.16853925000000025,
            "durationTicks": 96,
            "midi": 59,
            "name": "B3",
            "ticks": 8064,
            "time": 14.157296999999998,
            "velocity": 0.3937007874015748
          },
          {
            "duration": 0.16853925000000025,
            "durationTicks": 96,
            "midi": 60,
            "name": "C4",
            "ticks": 8160,
            "time": 14.325836249999998,
            "velocity": 0.3937007874015748
          },
          {
            "duration": 0.16853925000000025,
            "durationTicks": 96,
            "midi": 60,
            "name": "C4",
            "ticks": 8160,
            "time": 14.325836249999998,
            "velocity": 0.3937007874015748
          },
          {
            "duration": 0.16853924999999848,
            "durationTicks": 96,
            "midi": 62,
            "name": "D4",
            "ticks": 8256,
            "time": 14.494375499999999,
            "velocity": 0.3937007874015748
          },
          {
            "duration": 0.16853924999999848,
            "durationTicks": 96,
            "midi": 62,
            "name": "D4",
            "ticks": 8256,
            "time": 14.494375499999999,
            "velocity": 0.3937007874015748
          },
          {
            "duration": 0.3370784999999987,
            "durationTicks": 192,
            "midi": 41,
            "name": "F2",
            "ticks": 8256,
            "time": 14.494375499999999,
            "velocity": 0.3937007874015748
          },
          {
            "duration": 0.16853925000000025,
            "durationTicks": 96,
            "midi": 67,
            "name": "G4",
            "ticks": 8352,
            "time": 14.662914749999997,
            "velocity": 0.3937007874015748
          },
          {
            "duration": 0.16853925000000025,
            "durationTicks": 96,
            "midi": 67,
            "name": "G4",
            "ticks": 8352,
            "time": 14.662914749999997,
            "velocity": 0.3937007874015748
          },
          {
            "duration": 0.674157000000001,
            "durationTicks": 384,
            "midi": 62,
            "name": "D4",
            "ticks": 8448,
            "time": 14.831453999999997,
            "velocity": 0.3937007874015748
          },
          {
            "duration": 0.3370785000000005,
            "durationTicks": 192,
            "midi": 55,
            "name": "G3",
            "ticks": 8448,
            "time": 14.831453999999997,
            "velocity": 0.3937007874015748
          },
          {
            "duration": 1.0112354999999997,
            "durationTicks": 576,
            "midi": 62,
            "name": "D4",
            "ticks": 8448,
            "time": 14.831453999999997,
            "velocity": 0.3937007874015748
          },
          {
            "duration": 0.3370785000000005,
            "durationTicks": 192,
            "midi": 43,
            "name": "G2",
            "ticks": 8448,
            "time": 14.831453999999997,
            "velocity": 0.3937007874015748
          },
          {
            "duration": 1.3483139999999985,
            "durationTicks": 768,
            "midi": 72,
            "name": "C5",
            "ticks": 8448,
            "time": 14.831453999999997,
            "velocity": 0.3937007874015748
          },
          {
            "duration": 0.3370785000000005,
            "durationTicks": 192,
            "midi": 43,
            "name": "G2",
            "ticks": 8640,
            "time": 15.168532499999998,
            "velocity": 0.3937007874015748
          },
          {
            "duration": 0.16853924999999848,
            "durationTicks": 96,
            "midi": 53,
            "name": "F3",
            "ticks": 8832,
            "time": 15.505610999999998,
            "velocity": 0.3937007874015748
          },
          {
            "duration": 0.16853925000000025,
            "durationTicks": 96,
            "midi": 51,
            "name": "D#3",
            "ticks": 8928,
            "time": 15.674150249999997,
            "velocity": 0.3937007874015748
          },
          {
            "duration": 0.16853925000000025,
            "durationTicks": 96,
            "midi": 60,
            "name": "C4",
            "ticks": 9024,
            "time": 15.842689499999997,
            "velocity": 0.3937007874015748
          },
          {
            "duration": 0.16853925000000025,
            "durationTicks": 96,
            "midi": 60,
            "name": "C4",
            "ticks": 9024,
            "time": 15.842689499999997,
            "velocity": 0.3937007874015748
          },
          {
            "duration": 0.3370784999999987,
            "durationTicks": 192,
            "midi": 50,
            "name": "D3",
            "ticks": 9024,
            "time": 15.842689499999997,
            "velocity": 0.3937007874015748
          },
          {
            "duration": 0.16853924999999848,
            "durationTicks": 96,
            "midi": 62,
            "name": "D4",
            "ticks": 9120,
            "time": 16.011228749999997,
            "velocity": 0.3937007874015748
          },
          {
            "duration": 0.16853924999999848,
            "durationTicks": 96,
            "midi": 62,
            "name": "D4",
            "ticks": 9120,
            "time": 16.011228749999997,
            "velocity": 0.3937007874015748
          },
          {
            "duration": 0.16853925000000203,
            "durationTicks": 96,
            "midi": 63,
            "name": "D#4",
            "ticks": 9216,
            "time": 16.179767999999996,
            "velocity": 0.3937007874015748
          },
          {
            "duration": 0.3370785000000005,
            "durationTicks": 192,
            "midi": 36,
            "name": "C2",
            "ticks": 9216,
            "time": 16.179767999999996,
            "velocity": 0.3937007874015748
          },
          {
            "duration": 0.3370785000000005,
            "durationTicks": 192,
            "midi": 48,
            "name": "C3",
            "ticks": 9216,
            "time": 16.179767999999996,
            "velocity": 0.3937007874015748
          },
          {
            "duration": 0.16853925000000203,
            "durationTicks": 96,
            "midi": 63,
            "name": "D#4",
            "ticks": 9216,
            "time": 16.179767999999996,
            "velocity": 0.3937007874015748
          },
          {
            "duration": 0.16853924999999848,
            "durationTicks": 96,
            "midi": 62,
            "name": "D4",
            "ticks": 9312,
            "time": 16.348307249999998,
            "velocity": 0.3937007874015748
          },
          {
            "duration": 0.16853924999999848,
            "durationTicks": 96,
            "midi": 62,
            "name": "D4",
            "ticks": 9312,
            "time": 16.348307249999998,
            "velocity": 0.3937007874015748
          },
          {
            "duration": 0.3370785000000005,
            "durationTicks": 192,
            "midi": 43,
            "name": "G2",
            "ticks": 9408,
            "time": 16.516846499999996,
            "velocity": 0.3937007874015748
          },
          {
            "duration": 0.3370785000000005,
            "durationTicks": 192,
            "midi": 60,
            "name": "C4",
            "ticks": 9408,
            "time": 16.516846499999996,
            "velocity": 0.3937007874015748
          },
          {
            "duration": 0.3370785000000005,
            "durationTicks": 192,
            "midi": 60,
            "name": "C4",
            "ticks": 9408,
            "time": 16.516846499999996,
            "velocity": 0.3937007874015748
          },
          {
            "duration": 0.16853925000000203,
            "durationTicks": 96,
            "midi": 60,
            "name": "C4",
            "ticks": 9600,
            "time": 16.853924999999997,
            "velocity": 0.3937007874015748
          },
          {
            "duration": 0.16853925000000203,
            "durationTicks": 96,
            "midi": 36,
            "name": "C2",
            "ticks": 9600,
            "time": 16.853924999999997,
            "velocity": 0.3937007874015748
          },
          {
            "duration": 0.16853924999999848,
            "durationTicks": 96,
            "midi": 62,
            "name": "D4",
            "ticks": 9696,
            "time": 17.02246425,
            "velocity": 0.3937007874015748
          },
          {
            "duration": 0.16853924999999848,
            "durationTicks": 96,
            "midi": 36,
            "name": "C2",
            "ticks": 9696,
            "time": 17.02246425,
            "velocity": 0.3937007874015748
          },
          {
            "duration": 0.16853924999999848,
            "durationTicks": 96,
            "midi": 62,
            "name": "D4",
            "ticks": 9696,
            "time": 17.02246425,
            "velocity": 0.3937007874015748
          },
          {
            "duration": 0.16853924999999848,
            "durationTicks": 96,
            "midi": 63,
            "name": "D#4",
            "ticks": 9792,
            "time": 17.191003499999997,
            "velocity": 0.3937007874015748
          },
          {
            "duration": 0.3370785000000005,
            "durationTicks": 192,
            "midi": 36,
            "name": "C2",
            "ticks": 9792,
            "time": 17.191003499999997,
            "velocity": 0.3937007874015748
          },
          {
            "duration": 0.16853924999999848,
            "durationTicks": 96,
            "midi": 63,
            "name": "D#4",
            "ticks": 9792,
            "time": 17.191003499999997,
            "velocity": 0.3937007874015748
          },
          {
            "duration": 0.16853925000000203,
            "durationTicks": 96,
            "midi": 62,
            "name": "D4",
            "ticks": 9888,
            "time": 17.359542749999996,
            "velocity": 0.3937007874015748
          },
          {
            "duration": 0.16853925000000203,
            "durationTicks": 96,
            "midi": 62,
            "name": "D4",
            "ticks": 9888,
            "time": 17.359542749999996,
            "velocity": 0.3937007874015748
          },
          {
            "duration": 0.3370785000000005,
            "durationTicks": 192,
            "midi": 36,
            "name": "C2",
            "ticks": 9984,
            "time": 17.528081999999998,
            "velocity": 0.3937007874015748
          },
          {
            "duration": 0.16853924999999848,
            "durationTicks": 96,
            "midi": 60,
            "name": "C4",
            "ticks": 9984,
            "time": 17.528081999999998,
            "velocity": 0.3937007874015748
          },
          {
            "duration": 0.3370785000000005,
            "durationTicks": 192,
            "midi": 48,
            "name": "C3",
            "ticks": 9984,
            "time": 17.528081999999998,
            "velocity": 0.3937007874015748
          },
          {
            "duration": 0.16853924999999848,
            "durationTicks": 96,
            "midi": 60,
            "name": "C4",
            "ticks": 9984,
            "time": 17.528081999999998,
            "velocity": 0.3937007874015748
          },
          {
            "duration": 0.16853925000000203,
            "durationTicks": 96,
            "midi": 63,
            "name": "D#4",
            "ticks": 10080,
            "time": 17.696621249999996,
            "velocity": 0.3937007874015748
          },
          {
            "duration": 0.16853925000000203,
            "durationTicks": 96,
            "midi": 63,
            "name": "D#4",
            "ticks": 10080,
            "time": 17.696621249999996,
            "velocity": 0.3937007874015748
          },
          {
            "duration": 0.3370785000000005,
            "durationTicks": 192,
            "midi": 43,
            "name": "G2",
            "ticks": 10176,
            "time": 17.865160499999998,
            "velocity": 0.3937007874015748
          },
          {
            "duration": 0.3370785000000005,
            "durationTicks": 192,
            "midi": 67,
            "name": "G4",
            "ticks": 10176,
            "time": 17.865160499999998,
            "velocity": 0.3937007874015748
          },
          {
            "duration": 0.505617749999999,
            "durationTicks": 288,
            "midi": 67,
            "name": "G4",
            "ticks": 10176,
            "time": 17.865160499999998,
            "velocity": 0.3937007874015748
          },
          {
            "duration": 0.3370785000000005,
            "durationTicks": 192,
            "midi": 48,
            "name": "C3",
            "ticks": 10176,
            "time": 17.865160499999998,
            "velocity": 0.3937007874015748
          },
          {
            "duration": 0.33707849999999695,
            "durationTicks": 192,
            "midi": 39,
            "name": "D#2",
            "ticks": 10368,
            "time": 18.202239,
            "velocity": 0.3937007874015748
          },
          {
            "duration": 0.16853924999999848,
            "durationTicks": 96,
            "midi": 60,
            "name": "C4",
            "ticks": 10464,
            "time": 18.370778249999997,
            "velocity": 0.3937007874015748
          },
          {
            "duration": 0.16853924999999848,
            "durationTicks": 96,
            "midi": 60,
            "name": "C4",
            "ticks": 10464,
            "time": 18.370778249999997,
            "velocity": 0.3937007874015748
          },
          {
            "duration": 0.16853925000000203,
            "durationTicks": 96,
            "midi": 63,
            "name": "D#4",
            "ticks": 10560,
            "time": 18.539317499999996,
            "velocity": 0.3937007874015748
          },
          {
            "duration": 0.16853925000000203,
            "durationTicks": 96,
            "midi": 63,
            "name": "D#4",
            "ticks": 10560,
            "time": 18.539317499999996,
            "velocity": 0.3937007874015748
          },
          {
            "duration": 0.3370785000000005,
            "durationTicks": 192,
            "midi": 43,
            "name": "G2",
            "ticks": 10560,
            "time": 18.539317499999996,
            "velocity": 0.3937007874015748
          },
          {
            "duration": 0.16853924999999848,
            "durationTicks": 96,
            "midi": 67,
            "name": "G4",
            "ticks": 10656,
            "time": 18.707856749999998,
            "velocity": 0.3937007874015748
          },
          {
            "duration": 0.16853924999999848,
            "durationTicks": 96,
            "midi": 67,
            "name": "G4",
            "ticks": 10656,
            "time": 18.707856749999998,
            "velocity": 0.3937007874015748
          },
          {
            "duration": 0.3370785000000005,
            "durationTicks": 192,
            "midi": 41,
            "name": "F2",
            "ticks": 10752,
            "time": 18.876395999999996,
            "velocity": 0.3937007874015748
          },
          {
            "duration": 0.16853925000000203,
            "durationTicks": 96,
            "midi": 68,
            "name": "G#4",
            "ticks": 10752,
            "time": 18.876395999999996,
            "velocity": 0.3937007874015748
          },
          {
            "duration": 0.3370785000000005,
            "durationTicks": 192,
            "midi": 53,
            "name": "F3",
            "ticks": 10752,
            "time": 18.876395999999996,
            "velocity": 0.3937007874015748
          },
          {
            "duration": 0.16853925000000203,
            "durationTicks": 96,
            "midi": 68,
            "name": "G#4",
            "ticks": 10752,
            "time": 18.876395999999996,
            "velocity": 0.3937007874015748
          },
          {
            "duration": 0.16853924999999848,
            "durationTicks": 96,
            "midi": 67,
            "name": "G4",
            "ticks": 10848,
            "time": 19.044935249999998,
            "velocity": 0.3937007874015748
          },
          {
            "duration": 0.16853924999999848,
            "durationTicks": 96,
            "midi": 67,
            "name": "G4",
            "ticks": 10848,
            "time": 19.044935249999998,
            "velocity": 0.3937007874015748
          },
          {
            "duration": 0.16853925000000203,
            "durationTicks": 96,
            "midi": 65,
            "name": "F4",
            "ticks": 10944,
            "time": 19.213474499999997,
            "velocity": 0.3937007874015748
          },
          {
            "duration": 0.3370785000000005,
            "durationTicks": 192,
            "midi": 48,
            "name": "C3",
            "ticks": 10944,
            "time": 19.213474499999997,
            "velocity": 0.3937007874015748
          },
          {
            "duration": 0.16853925000000203,
            "durationTicks": 96,
            "midi": 65,
            "name": "F4",
            "ticks": 10944,
            "time": 19.213474499999997,
            "velocity": 0.3937007874015748
          },
          {
            "duration": 0.16853924999999848,
            "durationTicks": 96,
            "midi": 63,
            "name": "D#4",
            "ticks": 11040,
            "time": 19.38201375,
            "velocity": 0.3937007874015748
          },
          {
            "duration": 0.16853924999999848,
            "durationTicks": 96,
            "midi": 63,
            "name": "D#4",
            "ticks": 11040,
            "time": 19.38201375,
            "velocity": 0.3937007874015748
          },
          {
            "duration": 0.16853924999999848,
            "durationTicks": 96,
            "midi": 62,
            "name": "D4",
            "ticks": 11136,
            "time": 19.550552999999997,
            "velocity": 0.3937007874015748
          },
          {
            "duration": 0.16853924999999848,
            "durationTicks": 96,
            "midi": 62,
            "name": "D4",
            "ticks": 11136,
            "time": 19.550552999999997,
            "velocity": 0.3937007874015748
          },
          {
            "duration": 0.16853924999999848,
            "durationTicks": 96,
            "midi": 44,
            "name": "G#2",
            "ticks": 11136,
            "time": 19.550552999999997,
            "velocity": 0.3937007874015748
          },
          {
            "duration": 0.16853925000000203,
            "durationTicks": 96,
            "midi": 44,
            "name": "G#2",
            "ticks": 11232,
            "time": 19.719092249999996,
            "velocity": 0.3937007874015748
          },
          {
            "duration": 0.16853925000000203,
            "durationTicks": 96,
            "midi": 63,
            "name": "D#4",
            "ticks": 11232,
            "time": 19.719092249999996,
            "velocity": 0.3937007874015748
          },
          {
            "duration": 0.16853925000000203,
            "durationTicks": 96,
            "midi": 63,
            "name": "D#4",
            "ticks": 11232,
            "time": 19.719092249999996,
            "velocity": 0.3937007874015748
          },
          {
            "duration": 0.3370785000000005,
            "durationTicks": 192,
            "midi": 46,
            "name": "A#2",
            "ticks": 11328,
            "time": 19.887631499999998,
            "velocity": 0.3937007874015748
          },
          {
            "duration": 0.16853924999999848,
            "durationTicks": 96,
            "midi": 65,
            "name": "F4",
            "ticks": 11328,
            "time": 19.887631499999998,
            "velocity": 0.3937007874015748
          },
          {
            "duration": 0.16853924999999848,
            "durationTicks": 96,
            "midi": 65,
            "name": "F4",
            "ticks": 11328,
            "time": 19.887631499999998,
            "velocity": 0.3937007874015748
          },
          {
            "duration": 0.16853925000000203,
            "durationTicks": 96,
            "midi": 67,
            "name": "G4",
            "ticks": 11424,
            "time": 20.056170749999996,
            "velocity": 0.3937007874015748
          },
          {
            "duration": 0.16853925000000203,
            "durationTicks": 96,
            "midi": 67,
            "name": "G4",
            "ticks": 11424,
            "time": 20.056170749999996,
            "velocity": 0.3937007874015748
          },
          {
            "duration": 0.33707849999999695,
            "durationTicks": 192,
            "midi": 39,
            "name": "D#2",
            "ticks": 11520,
            "time": 20.224709999999998,
            "velocity": 0.3937007874015748
          },
          {
            "duration": 0.6741569999999975,
            "durationTicks": 384,
            "midi": 63,
            "name": "D#4",
            "ticks": 11520,
            "time": 20.224709999999998,
            "velocity": 0.3937007874015748
          },
          {
            "duration": 0.33707849999999695,
            "durationTicks": 192,
            "midi": 51,
            "name": "D#3",
            "ticks": 11520,
            "time": 20.224709999999998,
            "velocity": 0.3937007874015748
          },
          {
            "duration": 0.8426962499999995,
            "durationTicks": 480,
            "midi": 63,
            "name": "D#4",
            "ticks": 11520,
            "time": 20.224709999999998,
            "velocity": 0.3937007874015748
          },
          {
            "duration": 0.3370785000000005,
            "durationTicks": 192,
            "midi": 46,
            "name": "A#2",
            "ticks": 11712,
            "time": 20.561788499999995,
            "velocity": 0.3937007874015748
          },
          {
            "duration": 0.16853925000000203,
            "durationTicks": 96,
            "midi": 51,
            "name": "D#3",
            "ticks": 11904,
            "time": 20.898866999999996,
            "velocity": 0.3937007874015748
          },
          {
            "duration": 0.16853924999999848,
            "durationTicks": 96,
            "midi": 60,
            "name": "C4",
            "ticks": 12000,
            "time": 21.067406249999998,
            "velocity": 0.3937007874015748
          },
          {
            "duration": 0.16853924999999848,
            "durationTicks": 96,
            "midi": 50,
            "name": "D3",
            "ticks": 12000,
            "time": 21.067406249999998,
            "velocity": 0.3937007874015748
          },
          {
            "duration": 0.16853924999999848,
            "durationTicks": 96,
            "midi": 60,
            "name": "C4",
            "ticks": 12000,
            "time": 21.067406249999998,
            "velocity": 0.3937007874015748
          },
          {
            "duration": 0.16853925000000203,
            "durationTicks": 96,
            "midi": 63,
            "name": "D#4",
            "ticks": 12096,
            "time": 21.235945499999996,
            "velocity": 0.3937007874015748
          },
          {
            "duration": 0.16853925000000203,
            "durationTicks": 96,
            "midi": 48,
            "name": "C3",
            "ticks": 12096,
            "time": 21.235945499999996,
            "velocity": 0.3937007874015748
          },
          {
            "duration": 0.16853925000000203,
            "durationTicks": 96,
            "midi": 63,
            "name": "D#4",
            "ticks": 12096,
            "time": 21.235945499999996,
            "velocity": 0.3937007874015748
          },
          {
            "duration": 0.16853924999999848,
            "durationTicks": 96,
            "midi": 67,
            "name": "G4",
            "ticks": 12192,
            "time": 21.404484749999998,
            "velocity": 0.3937007874015748
          },
          {
            "duration": 0.16853924999999848,
            "durationTicks": 96,
            "midi": 67,
            "name": "G4",
            "ticks": 12192,
            "time": 21.404484749999998,
            "velocity": 0.3937007874015748
          },
          {
            "duration": 0.16853924999999848,
            "durationTicks": 96,
            "midi": 46,
            "name": "A#2",
            "ticks": 12192,
            "time": 21.404484749999998,
            "velocity": 0.3937007874015748
          },
          {
            "duration": 0.16853924999999848,
            "durationTicks": 96,
            "midi": 68,
            "name": "G#4",
            "ticks": 12288,
            "time": 21.573023999999997,
            "velocity": 0.3937007874015748
          },
          {
            "duration": 0.3370785000000005,
            "durationTicks": 192,
            "midi": 41,
            "name": "F2",
            "ticks": 12288,
            "time": 21.573023999999997,
            "velocity": 0.3937007874015748
          },
          {
            "duration": 0.3370785000000005,
            "durationTicks": 192,
            "midi": 53,
            "name": "F3",
            "ticks": 12288,
            "time": 21.573023999999997,
            "velocity": 0.3937007874015748
          },
          {
            "duration": 0.16853924999999848,
            "durationTicks": 96,
            "midi": 68,
            "name": "G#4",
            "ticks": 12288,
            "time": 21.573023999999997,
            "velocity": 0.3937007874015748
          },
          {
            "duration": 0.16853925000000203,
            "durationTicks": 96,
            "midi": 67,
            "name": "G4",
            "ticks": 12384,
            "time": 21.741563249999995,
            "velocity": 0.3937007874015748
          },
          {
            "duration": 0.16853925000000203,
            "durationTicks": 96,
            "midi": 67,
            "name": "G4",
            "ticks": 12384,
            "time": 21.741563249999995,
            "velocity": 0.3937007874015748
          },
          {
            "duration": 0.3370785000000005,
            "durationTicks": 192,
            "midi": 48,
            "name": "C3",
            "ticks": 12480,
            "time": 21.910102499999997,
            "velocity": 0.3937007874015748
          },
          {
            "duration": 0.16853924999999848,
            "durationTicks": 96,
            "midi": 65,
            "name": "F4",
            "ticks": 12480,
            "time": 21.910102499999997,
            "velocity": 0.3937007874015748
          },
          {
            "duration": 0.16853924999999848,
            "durationTicks": 96,
            "midi": 65,
            "name": "F4",
            "ticks": 12480,
            "time": 21.910102499999997,
            "velocity": 0.3937007874015748
          },
          {
            "duration": 0.16853925000000203,
            "durationTicks": 96,
            "midi": 63,
            "name": "D#4",
            "ticks": 12576,
            "time": 22.078641749999996,
            "velocity": 0.3937007874015748
          },
          {
            "duration": 0.16853925000000203,
            "durationTicks": 96,
            "midi": 63,
            "name": "D#4",
            "ticks": 12576,
            "time": 22.078641749999996,
            "velocity": 0.3937007874015748
          },
          {
            "duration": 0.16853924999999848,
            "durationTicks": 96,
            "midi": 62,
            "name": "D4",
            "ticks": 12672,
            "time": 22.247180999999998,
            "velocity": 0.3937007874015748
          },
          {
            "duration": 0.16853924999999848,
            "durationTicks": 96,
            "midi": 62,
            "name": "D4",
            "ticks": 12672,
            "time": 22.247180999999998,
            "velocity": 0.3937007874015748
          },
          {
            "duration": 0.16853924999999848,
            "durationTicks": 96,
            "midi": 44,
            "name": "G#2",
            "ticks": 12672,
            "time": 22.247180999999998,
            "velocity": 0.3937007874015748
          },
          {
            "duration": 0.16853925000000203,
            "durationTicks": 96,
            "midi": 44,
            "name": "G#2",
            "ticks": 12768,
            "time": 22.415720249999996,
            "velocity": 0.3937007874015748
          },
          {
            "duration": 0.16853925000000203,
            "durationTicks": 96,
            "midi": 63,
            "name": "D#4",
            "ticks": 12768,
            "time": 22.415720249999996,
            "velocity": 0.3937007874015748
          },
          {
            "duration": 0.16853925000000203,
            "durationTicks": 96,
            "midi": 63,
            "name": "D#4",
            "ticks": 12768,
            "time": 22.415720249999996,
            "velocity": 0.3937007874015748
          },
          {
            "duration": 0.16853924999999848,
            "durationTicks": 96,
            "midi": 65,
            "name": "F4",
            "ticks": 12864,
            "time": 22.584259499999998,
            "velocity": 0.3937007874015748
          },
          {
            "duration": 0.33707849999999695,
            "durationTicks": 192,
            "midi": 65,
            "name": "F4",
            "ticks": 12864,
            "time": 22.584259499999998,
            "velocity": 0.3937007874015748
          },
          {
            "duration": 0.33707849999999695,
            "durationTicks": 192,
            "midi": 46,
            "name": "A#2",
            "ticks": 12864,
            "time": 22.584259499999998,
            "velocity": 0.3937007874015748
          },
          {
            "duration": 0.16853924999999848,
            "durationTicks": 96,
            "midi": 58,
            "name": "A#3",
            "ticks": 12960,
            "time": 22.752798749999997,
            "velocity": 0.3937007874015748
          },
          {
            "duration": 0.3370785000000005,
            "durationTicks": 192,
            "midi": 39,
            "name": "D#2",
            "ticks": 13056,
            "time": 22.921337999999995,
            "velocity": 0.3937007874015748
          },
          {
            "duration": 0.16853925000000203,
            "durationTicks": 96,
            "midi": 67,
            "name": "G4",
            "ticks": 13056,
            "time": 22.921337999999995,
            "velocity": 0.3937007874015748
          },
          {
            "duration": 0.3370785000000005,
            "durationTicks": 192,
            "midi": 51,
            "name": "D#3",
            "ticks": 13056,
            "time": 22.921337999999995,
            "velocity": 0.3937007874015748
          },
          {
            "duration": 0.16853925000000203,
            "durationTicks": 96,
            "midi": 67,
            "name": "G4",
            "ticks": 13056,
            "time": 22.921337999999995,
            "velocity": 0.3937007874015748
          },
          {
            "duration": 0.16853924999999848,
            "durationTicks": 96,
            "midi": 65,
            "name": "F4",
            "ticks": 13152,
            "time": 23.089877249999997,
            "velocity": 0.3937007874015748
          },
          {
            "duration": 0.16853924999999848,
            "durationTicks": 96,
            "midi": 65,
            "name": "F4",
            "ticks": 13152,
            "time": 23.089877249999997,
            "velocity": 0.3937007874015748
          },
          {
            "duration": 0.16853925000000203,
            "durationTicks": 96,
            "midi": 63,
            "name": "D#4",
            "ticks": 13248,
            "time": 23.258416499999996,
            "velocity": 0.3937007874015748
          },
          {
            "duration": 0.16853925000000203,
            "durationTicks": 96,
            "midi": 63,
            "name": "D#4",
            "ticks": 13248,
            "time": 23.258416499999996,
            "velocity": 0.3937007874015748
          },
          {
            "duration": 0.3370785000000005,
            "durationTicks": 192,
            "midi": 48,
            "name": "C3",
            "ticks": 13248,
            "time": 23.258416499999996,
            "velocity": 0.3937007874015748
          },
          {
            "duration": 0.16853924999999848,
            "durationTicks": 96,
            "midi": 62,
            "name": "D4",
            "ticks": 13344,
            "time": 23.426955749999998,
            "velocity": 0.3937007874015748
          },
          {
            "duration": 0.16853924999999848,
            "durationTicks": 96,
            "midi": 62,
            "name": "D4",
            "ticks": 13344,
            "time": 23.426955749999998,
            "velocity": 0.3937007874015748
          },
          {
            "duration": 0.16853924999999848,
            "durationTicks": 96,
            "midi": 60,
            "name": "C4",
            "ticks": 13440,
            "time": 23.595494999999996,
            "velocity": 0.3937007874015748
          },
          {
            "duration": 0.16853924999999848,
            "durationTicks": 96,
            "midi": 60,
            "name": "C4",
            "ticks": 13440,
            "time": 23.595494999999996,
            "velocity": 0.3937007874015748
          },
          {
            "duration": 0.3370785000000005,
            "durationTicks": 192,
            "midi": 39,
            "name": "D#2",
            "ticks": 13440,
            "time": 23.595494999999996,
            "velocity": 0.3937007874015748
          },
          {
            "duration": 0.16853925000000203,
            "durationTicks": 96,
            "midi": 62,
            "name": "D4",
            "ticks": 13536,
            "time": 23.764034249999995,
            "velocity": 0.3937007874015748
          },
          {
            "duration": 0.16853925000000203,
            "durationTicks": 96,
            "midi": 62,
            "name": "D4",
            "ticks": 13536,
            "time": 23.764034249999995,
            "velocity": 0.3937007874015748
          },
          {
            "duration": 0.3370785000000005,
            "durationTicks": 192,
            "midi": 48,
            "name": "C3",
            "ticks": 13632,
            "time": 23.932573499999997,
            "velocity": 0.3937007874015748
          },
          {
            "duration": 0.16853924999999848,
            "durationTicks": 96,
            "midi": 63,
            "name": "D#4",
            "ticks": 13632,
            "time": 23.932573499999997,
            "velocity": 0.3937007874015748
          },
          {
            "duration": 0.3370785000000005,
            "durationTicks": 192,
            "midi": 63,
            "name": "D#4",
            "ticks": 13632,
            "time": 23.932573499999997,
            "velocity": 0.3937007874015748
          },
          {
            "duration": 0.16853925000000203,
            "durationTicks": 96,
            "midi": 56,
            "name": "G#3",
            "ticks": 13728,
            "time": 24.101112749999995,
            "velocity": 0.3937007874015748
          },
          {
            "duration": 0.16853924999999848,
            "durationTicks": 96,
            "midi": 65,
            "name": "F4",
            "ticks": 13824,
            "time": 24.269651999999997,
            "velocity": 0.3937007874015748
          },
          {
            "duration": 0.3370785000000005,
            "durationTicks": 192,
            "midi": 50,
            "name": "D3",
            "ticks": 13824,
            "time": 24.269651999999997,
            "velocity": 0.3937007874015748
          },
          {
            "duration": 0.3370785000000005,
            "durationTicks": 192,
            "midi": 38,
            "name": "D2",
            "ticks": 13824,
            "time": 24.269651999999997,
            "velocity": 0.3937007874015748
          },
          {
            "duration": 0.16853924999999848,
            "durationTicks": 96,
            "midi": 65,
            "name": "F4",
            "ticks": 13824,
            "time": 24.269651999999997,
            "velocity": 0.3937007874015748
          },
          {
            "duration": 0.16853925000000203,
            "durationTicks": 96,
            "midi": 63,
            "name": "D#4",
            "ticks": 13920,
            "time": 24.438191249999996,
            "velocity": 0.3937007874015748
          },
          {
            "duration": 0.16853925000000203,
            "durationTicks": 96,
            "midi": 63,
            "name": "D#4",
            "ticks": 13920,
            "time": 24.438191249999996,
            "velocity": 0.3937007874015748
          },
          {
            "duration": 0.16853924999999848,
            "durationTicks": 96,
            "midi": 62,
            "name": "D4",
            "ticks": 14016,
            "time": 24.606730499999998,
            "velocity": 0.3937007874015748
          },
          {
            "duration": 0.33707849999999695,
            "durationTicks": 192,
            "midi": 41,
            "name": "F2",
            "ticks": 14016,
            "time": 24.606730499999998,
            "velocity": 0.3937007874015748
          },
          {
            "duration": 0.16853924999999848,
            "durationTicks": 96,
            "midi": 62,
            "name": "D4",
            "ticks": 14016,
            "time": 24.606730499999998,
            "velocity": 0.3937007874015748
          },
          {
            "duration": 0.16853924999999848,
            "durationTicks": 96,
            "midi": 60,
            "name": "C4",
            "ticks": 14112,
            "time": 24.775269749999996,
            "velocity": 0.3937007874015748
          },
          {
            "duration": 0.16853924999999848,
            "durationTicks": 96,
            "midi": 60,
            "name": "C4",
            "ticks": 14112,
            "time": 24.775269749999996,
            "velocity": 0.3937007874015748
          },
          {
            "duration": 0.16853925000000203,
            "durationTicks": 96,
            "midi": 59,
            "name": "B3",
            "ticks": 14208,
            "time": 24.943808999999995,
            "velocity": 0.3937007874015748
          },
          {
            "duration": 0.3370785000000005,
            "durationTicks": 192,
            "midi": 38,
            "name": "D2",
            "ticks": 14208,
            "time": 24.943808999999995,
            "velocity": 0.3937007874015748
          },
          {
            "duration": 0.16853925000000203,
            "durationTicks": 96,
            "midi": 59,
            "name": "B3",
            "ticks": 14208,
            "time": 24.943808999999995,
            "velocity": 0.3937007874015748
          },
          {
            "duration": 0.16853924999999848,
            "durationTicks": 96,
            "midi": 60,
            "name": "C4",
            "ticks": 14304,
            "time": 25.112348249999997,
            "velocity": 0.3937007874015748
          },
          {
            "duration": 0.16853924999999848,
            "durationTicks": 96,
            "midi": 60,
            "name": "C4",
            "ticks": 14304,
            "time": 25.112348249999997,
            "velocity": 0.3937007874015748
          },
          {
            "duration": 0.16853925000000203,
            "durationTicks": 96,
            "midi": 62,
            "name": "D4",
            "ticks": 14400,
            "time": 25.280887499999995,
            "velocity": 0.3937007874015748
          },
          {
            "duration": 0.16853925000000203,
            "durationTicks": 96,
            "midi": 62,
            "name": "D4",
            "ticks": 14400,
            "time": 25.280887499999995,
            "velocity": 0.3937007874015748
          },
          {
            "duration": 0.3370785000000005,
            "durationTicks": 192,
            "midi": 41,
            "name": "F2",
            "ticks": 14400,
            "time": 25.280887499999995,
            "velocity": 0.3937007874015748
          },
          {
            "duration": 0.16853924999999848,
            "durationTicks": 96,
            "midi": 67,
            "name": "G4",
            "ticks": 14496,
            "time": 25.449426749999997,
            "velocity": 0.3937007874015748
          },
          {
            "duration": 0.16853924999999848,
            "durationTicks": 96,
            "midi": 67,
            "name": "G4",
            "ticks": 14496,
            "time": 25.449426749999997,
            "velocity": 0.3937007874015748
          },
          {
            "duration": 0.3370785000000005,
            "durationTicks": 192,
            "midi": 55,
            "name": "G3",
            "ticks": 14592,
            "time": 25.617965999999996,
            "velocity": 0.3937007874015748
          },
          {
            "duration": 0.674157000000001,
            "durationTicks": 384,
            "midi": 67,
            "name": "G4",
            "ticks": 14592,
            "time": 25.617965999999996,
            "velocity": 0.3937007874015748
          },
          {
            "duration": 0.674157000000001,
            "durationTicks": 384,
            "midi": 67,
            "name": "G4",
            "ticks": 14592,
            "time": 25.617965999999996,
            "velocity": 0.3937007874015748
          },
          {
            "duration": 0.3370785000000005,
            "durationTicks": 192,
            "midi": 43,
            "name": "G2",
            "ticks": 14592,
            "time": 25.617965999999996,
            "velocity": 0.3937007874015748
          },
          {
            "duration": 0.3370785000000005,
            "durationTicks": 192,
            "midi": 43,
            "name": "G2",
            "ticks": 14784,
            "time": 25.955044499999996,
            "velocity": 0.3937007874015748
          },
          {
            "duration": 0.3370785000000005,
            "durationTicks": 192,
            "midi": 55,
            "name": "G3",
            "ticks": 14784,
            "time": 25.955044499999996,
            "velocity": 0.3937007874015748
          },
          {
            "duration": 0.674157000000001,
            "durationTicks": 384,
            "midi": 55,
            "name": "G3",
            "ticks": 14976,
            "time": 26.292122999999997,
            "velocity": 0.3937007874015748
          },
          {
            "duration": 0.674157000000001,
            "durationTicks": 384,
            "midi": 43,
            "name": "G2",
            "ticks": 14976,
            "time": 26.292122999999997,
            "velocity": 0.3937007874015748
          },
          {
            "duration": 0.16853925000000203,
            "durationTicks": 96,
            "midi": 60,
            "name": "C4",
            "ticks": 15072,
            "time": 26.460662249999995,
            "velocity": 0.3937007874015748
          },
          {
            "duration": 0.16853925000000203,
            "durationTicks": 96,
            "midi": 60,
            "name": "C4",
            "ticks": 15072,
            "time": 26.460662249999995,
            "velocity": 0.3937007874015748
          },
          {
            "duration": 0.16853924999999848,
            "durationTicks": 96,
            "midi": 63,
            "name": "D#4",
            "ticks": 15168,
            "time": 26.629201499999997,
            "velocity": 0.3937007874015748
          },
          {
            "duration": 0.16853924999999848,
            "durationTicks": 96,
            "midi": 63,
            "name": "D#4",
            "ticks": 15168,
            "time": 26.629201499999997,
            "velocity": 0.3937007874015748
          },
          {
            "duration": 0.16853925000000203,
            "durationTicks": 96,
            "midi": 70,
            "name": "A#4",
            "ticks": 15264,
            "time": 26.797740749999996,
            "velocity": 0.3937007874015748
          },
          {
            "duration": 0.16853925000000203,
            "durationTicks": 96,
            "midi": 70,
            "name": "A#4",
            "ticks": 15264,
            "time": 26.797740749999996,
            "velocity": 0.3937007874015748
          },
          {
            "duration": 0.6741569999999975,
            "durationTicks": 384,
            "midi": 32,
            "name": "G#1",
            "ticks": 15360,
            "time": 26.966279999999998,
            "velocity": 0.3937007874015748
          },
          {
            "duration": 0.33707849999999695,
            "durationTicks": 192,
            "midi": 44,
            "name": "G#2",
            "ticks": 15360,
            "time": 26.966279999999998,
            "velocity": 0.3937007874015748
          },
          {
            "duration": 0.16853924999999848,
            "durationTicks": 96,
            "midi": 70,
            "name": "A#4",
            "ticks": 15360,
            "time": 26.966279999999998,
            "velocity": 0.3937007874015748
          },
          {
            "duration": 0.16853924999999848,
            "durationTicks": 96,
            "midi": 70,
            "name": "A#4",
            "ticks": 15360,
            "time": 26.966279999999998,
            "velocity": 0.3937007874015748
          },
          {
            "duration": 0.16853924999999848,
            "durationTicks": 96,
            "midi": 72,
            "name": "C5",
            "ticks": 15456,
            "time": 27.134819249999996,
            "velocity": 0.3937007874015748
          },
          {
            "duration": 0.16853924999999848,
            "durationTicks": 96,
            "midi": 72,
            "name": "C5",
            "ticks": 15456,
            "time": 27.134819249999996,
            "velocity": 0.3937007874015748
          },
          {
            "duration": 0.3370785000000005,
            "durationTicks": 192,
            "midi": 44,
            "name": "G#2",
            "ticks": 15552,
            "time": 27.303358499999995,
            "velocity": 0.3937007874015748
          },
          {
            "duration": 0.3370785000000005,
            "durationTicks": 192,
            "midi": 63,
            "name": "D#4",
            "ticks": 15552,
            "time": 27.303358499999995,
            "velocity": 0.3937007874015748
          },
          {
            "duration": 0.3370785000000005,
            "durationTicks": 192,
            "midi": 63,
            "name": "D#4",
            "ticks": 15552,
            "time": 27.303358499999995,
            "velocity": 0.3937007874015748
          },
          {
            "duration": 0.3370785000000005,
            "durationTicks": 192,
            "midi": 44,
            "name": "G#2",
            "ticks": 15744,
            "time": 27.640436999999995,
            "velocity": 0.3937007874015748
          },
          {
            "duration": 0.674157000000001,
            "durationTicks": 384,
            "midi": 32,
            "name": "G#1",
            "ticks": 15744,
            "time": 27.640436999999995,
            "velocity": 0.3937007874015748
          },
          {
            "duration": 0.16853924999999848,
            "durationTicks": 96,
            "midi": 60,
            "name": "C4",
            "ticks": 15840,
            "time": 27.808976249999997,
            "velocity": 0.3937007874015748
          },
          {
            "duration": 0.16853924999999848,
            "durationTicks": 96,
            "midi": 60,
            "name": "C4",
            "ticks": 15840,
            "time": 27.808976249999997,
            "velocity": 0.3937007874015748
          },
          {
            "duration": 0.16853924999999848,
            "durationTicks": 96,
            "midi": 63,
            "name": "D#4",
            "ticks": 15936,
            "time": 27.977515499999996,
            "velocity": 0.3937007874015748
          },
          {
            "duration": 0.16853924999999848,
            "durationTicks": 96,
            "midi": 63,
            "name": "D#4",
            "ticks": 15936,
            "time": 27.977515499999996,
            "velocity": 0.3937007874015748
          },
          {
            "duration": 0.3370785000000005,
            "durationTicks": 192,
            "midi": 44,
            "name": "G#2",
            "ticks": 15936,
            "time": 27.977515499999996,
            "velocity": 0.3937007874015748
          },
          {
            "duration": 0.16853925000000203,
            "durationTicks": 96,
            "midi": 70,
            "name": "A#4",
            "ticks": 16032,
            "time": 28.146054749999994,
            "velocity": 0.3937007874015748
          },
          {
            "duration": 0.16853925000000203,
            "durationTicks": 96,
            "midi": 70,
            "name": "A#4",
            "ticks": 16032,
            "time": 28.146054749999994,
            "velocity": 0.3937007874015748
          },
          {
            "duration": 0.16853924999999848,
            "durationTicks": 96,
            "midi": 70,
            "name": "A#4",
            "ticks": 16128,
            "time": 28.314593999999996,
            "velocity": 0.3937007874015748
          },
          {
            "duration": 0.674157000000001,
            "durationTicks": 384,
            "midi": 27,
            "name": "D#1",
            "ticks": 16128,
            "time": 28.314593999999996,
            "velocity": 0.3937007874015748
          },
          {
            "duration": 0.16853924999999848,
            "durationTicks": 96,
            "midi": 70,
            "name": "A#4",
            "ticks": 16128,
            "time": 28.314593999999996,
            "velocity": 0.3937007874015748
          },
          {
            "duration": 0.3370785000000005,
            "durationTicks": 192,
            "midi": 39,
            "name": "D#2",
            "ticks": 16128,
            "time": 28.314593999999996,
            "velocity": 0.3937007874015748
          },
          {
            "duration": 0.16853925000000203,
            "durationTicks": 96,
            "midi": 72,
            "name": "C5",
            "ticks": 16224,
            "time": 28.483133249999995,
            "velocity": 0.3937007874015748
          },
          {
            "duration": 0.16853925000000203,
            "durationTicks": 96,
            "midi": 72,
            "name": "C5",
            "ticks": 16224,
            "time": 28.483133249999995,
            "velocity": 0.3937007874015748
          },
          {
            "duration": 0.3370785000000005,
            "durationTicks": 192,
            "midi": 63,
            "name": "D#4",
            "ticks": 16320,
            "time": 28.651672499999997,
            "velocity": 0.3937007874015748
          },
          {
            "duration": 0.3370785000000005,
            "durationTicks": 192,
            "midi": 39,
            "name": "D#2",
            "ticks": 16320,
            "time": 28.651672499999997,
            "velocity": 0.3937007874015748
          },
          {
            "duration": 0.3370785000000005,
            "durationTicks": 192,
            "midi": 63,
            "name": "D#4",
            "ticks": 16320,
            "time": 28.651672499999997,
            "velocity": 0.3937007874015748
          },
          {
            "duration": 0.6741569999999975,
            "durationTicks": 384,
            "midi": 27,
            "name": "D#1",
            "ticks": 16512,
            "time": 28.988750999999997,
            "velocity": 0.3937007874015748
          },
          {
            "duration": 0.33707849999999695,
            "durationTicks": 192,
            "midi": 39,
            "name": "D#2",
            "ticks": 16512,
            "time": 28.988750999999997,
            "velocity": 0.3937007874015748
          },
          {
            "duration": 0.16853924999999848,
            "durationTicks": 96,
            "midi": 60,
            "name": "C4",
            "ticks": 16608,
            "time": 29.157290249999996,
            "velocity": 0.3937007874015748
          },
          {
            "duration": 0.16853924999999848,
            "durationTicks": 96,
            "midi": 60,
            "name": "C4",
            "ticks": 16608,
            "time": 29.157290249999996,
            "velocity": 0.3937007874015748
          },
          {
            "duration": 0.16853925000000203,
            "durationTicks": 96,
            "midi": 63,
            "name": "D#4",
            "ticks": 16704,
            "time": 29.325829499999994,
            "velocity": 0.3937007874015748
          },
          {
            "duration": 0.3370785000000005,
            "durationTicks": 192,
            "midi": 39,
            "name": "D#2",
            "ticks": 16704,
            "time": 29.325829499999994,
            "velocity": 0.3937007874015748
          },
          {
            "duration": 0.16853925000000203,
            "durationTicks": 96,
            "midi": 63,
            "name": "D#4",
            "ticks": 16704,
            "time": 29.325829499999994,
            "velocity": 0.3937007874015748
          },
          {
            "duration": 0.16853924999999848,
            "durationTicks": 96,
            "midi": 62,
            "name": "D4",
            "ticks": 16800,
            "time": 29.494368749999996,
            "velocity": 0.3937007874015748
          },
          {
            "duration": 0.16853924999999848,
            "durationTicks": 96,
            "midi": 62,
            "name": "D4",
            "ticks": 16800,
            "time": 29.494368749999996,
            "velocity": 0.3937007874015748
          },
          {
            "duration": 0.16853925000000203,
            "durationTicks": 96,
            "midi": 67,
            "name": "G4",
            "ticks": 16896,
            "time": 29.662907999999995,
            "velocity": 0.3937007874015748
          },
          {
            "duration": 0.674157000000001,
            "durationTicks": 384,
            "midi": 31,
            "name": "G1",
            "ticks": 16896,
            "time": 29.662907999999995,
            "velocity": 0.3937007874015748
          },
          {
            "duration": 0.3370785000000005,
            "durationTicks": 192,
            "midi": 43,
            "name": "G2",
            "ticks": 16896,
            "time": 29.662907999999995,
            "velocity": 0.3937007874015748
          },
          {
            "duration": 0.16853925000000203,
            "durationTicks": 96,
            "midi": 67,
            "name": "G4",
            "ticks": 16896,
            "time": 29.662907999999995,
            "velocity": 0.3937007874015748
          },
          {
            "duration": 0.16853924999999848,
            "durationTicks": 96,
            "midi": 67,
            "name": "G4",
            "ticks": 16992,
            "time": 29.831447249999997,
            "velocity": 0.3937007874015748
          },
          {
            "duration": 0.16853924999999848,
            "durationTicks": 96,
            "midi": 67,
            "name": "G4",
            "ticks": 16992,
            "time": 29.831447249999997,
            "velocity": 0.3937007874015748
          },
          {
            "duration": 0.16853925000000203,
            "durationTicks": 96,
            "midi": 67,
            "name": "G4",
            "ticks": 17088,
            "time": 29.999986499999995,
            "velocity": 0.3937007874015748
          },
          {
            "duration": 0.3370785000000005,
            "durationTicks": 192,
            "midi": 43,
            "name": "G2",
            "ticks": 17088,
            "time": 29.999986499999995,
            "velocity": 0.3937007874015748
          },
          {
            "duration": 0.16853925000000203,
            "durationTicks": 96,
            "midi": 67,
            "name": "G4",
            "ticks": 17088,
            "time": 29.999986499999995,
            "velocity": 0.3937007874015748
          },
          {
            "duration": 0.16853924999999848,
            "durationTicks": 96,
            "midi": 68,
            "name": "G#4",
            "ticks": 17184,
            "time": 30.168525749999997,
            "velocity": 0.3937007874015748
          },
          {
            "duration": 0.16853924999999848,
            "durationTicks": 96,
            "midi": 68,
            "name": "G#4",
            "ticks": 17184,
            "time": 30.168525749999997,
            "velocity": 0.3937007874015748
          },
          {
            "duration": 0.16853924999999848,
            "durationTicks": 96,
            "midi": 67,
            "name": "G4",
            "ticks": 17280,
            "time": 30.337064999999996,
            "velocity": 0.3937007874015748
          },
          {
            "duration": 0.674157000000001,
            "durationTicks": 384,
            "midi": 31,
            "name": "G1",
            "ticks": 17280,
            "time": 30.337064999999996,
            "velocity": 0.3937007874015748
          },
          {
            "duration": 0.3370785000000005,
            "durationTicks": 192,
            "midi": 43,
            "name": "G2",
            "ticks": 17280,
            "time": 30.337064999999996,
            "velocity": 0.3937007874015748
          },
          {
            "duration": 0.16853924999999848,
            "durationTicks": 96,
            "midi": 67,
            "name": "G4",
            "ticks": 17280,
            "time": 30.337064999999996,
            "velocity": 0.3937007874015748
          },
          {
            "duration": 0.16853925000000203,
            "durationTicks": 96,
            "midi": 67,
            "name": "G4",
            "ticks": 17376,
            "time": 30.505604249999994,
            "velocity": 0.3937007874015748
          },
          {
            "duration": 0.16853925000000203,
            "durationTicks": 96,
            "midi": 67,
            "name": "G4",
            "ticks": 17376,
            "time": 30.505604249999994,
            "velocity": 0.3937007874015748
          },
          {
            "duration": 0.16853924999999848,
            "durationTicks": 96,
            "midi": 65,
            "name": "F4",
            "ticks": 17472,
            "time": 30.674143499999996,
            "velocity": 0.3937007874015748
          },
          {
            "duration": 0.16853924999999848,
            "durationTicks": 96,
            "midi": 65,
            "name": "F4",
            "ticks": 17472,
            "time": 30.674143499999996,
            "velocity": 0.3937007874015748
          },
          {
            "duration": 0.3370785000000005,
            "durationTicks": 192,
            "midi": 43,
            "name": "G2",
            "ticks": 17472,
            "time": 30.674143499999996,
            "velocity": 0.3937007874015748
          },
          {
            "duration": 0.3370785000000005,
            "durationTicks": 192,
            "midi": 65,
            "name": "F4",
            "ticks": 17568,
            "time": 30.842682749999994,
            "velocity": 0.3937007874015748
          },
          {
            "duration": 0.3370785000000005,
            "durationTicks": 192,
            "midi": 65,
            "name": "F4",
            "ticks": 17568,
            "time": 30.842682749999994,
            "velocity": 0.3937007874015748
          },
          {
            "duration": 0.33707849999999695,
            "durationTicks": 192,
            "midi": 36,
            "name": "C2",
            "ticks": 17664,
            "time": 31.011221999999997,
            "velocity": 0.3937007874015748
          },
          {
            "duration": 0.6741569999999975,
            "durationTicks": 384,
            "midi": 24,
            "name": "C1",
            "ticks": 17664,
            "time": 31.011221999999997,
            "velocity": 0.3937007874015748
          },
          {
            "duration": 0.505617749999999,
            "durationTicks": 288,
            "midi": 63,
            "name": "D#4",
            "ticks": 17760,
            "time": 31.179761249999995,
            "velocity": 0.3937007874015748
          },
          {
            "duration": 0.505617749999999,
            "durationTicks": 288,
            "midi": 63,
            "name": "D#4",
            "ticks": 17760,
            "time": 31.179761249999995,
            "velocity": 0.3937007874015748
          },
          {
            "duration": 0.3370785000000005,
            "durationTicks": 192,
            "midi": 36,
            "name": "C2",
            "ticks": 17856,
            "time": 31.348300499999993,
            "velocity": 0.3937007874015748
          },
          {
            "duration": 0.3370785000000005,
            "durationTicks": 192,
            "midi": 39,
            "name": "D#2",
            "ticks": 18048,
            "time": 31.685378999999994,
            "velocity": 0.3937007874015748
          },
          {
            "duration": 0.6741569999999975,
            "durationTicks": 384,
            "midi": 27,
            "name": "D#1",
            "ticks": 18048,
            "time": 31.685378999999994,
            "velocity": 0.3937007874015748
          },
          {
            "duration": 0.16853924999999848,
            "durationTicks": 96,
            "midi": 60,
            "name": "C4",
            "ticks": 18144,
            "time": 31.853918249999996,
            "velocity": 0.3937007874015748
          },
          {
            "duration": 0.16853924999999848,
            "durationTicks": 96,
            "midi": 60,
            "name": "C4",
            "ticks": 18144,
            "time": 31.853918249999996,
            "velocity": 0.3937007874015748
          },
          {
            "duration": 0.16853925000000203,
            "durationTicks": 96,
            "midi": 63,
            "name": "D#4",
            "ticks": 18240,
            "time": 32.022457499999994,
            "velocity": 0.3937007874015748
          },
          {
            "duration": 0.33707849999999695,
            "durationTicks": 192,
            "midi": 39,
            "name": "D#2",
            "ticks": 18240,
            "time": 32.022457499999994,
            "velocity": 0.3937007874015748
          },
          {
            "duration": 0.16853925000000203,
            "durationTicks": 96,
            "midi": 63,
            "name": "D#4",
            "ticks": 18240,
            "time": 32.022457499999994,
            "velocity": 0.3937007874015748
          },
          {
            "duration": 0.16853924999999492,
            "durationTicks": 96,
            "midi": 70,
            "name": "A#4",
            "ticks": 18336,
            "time": 32.19099675,
            "velocity": 0.3937007874015748
          },
          {
            "duration": 0.16853924999999492,
            "durationTicks": 96,
            "midi": 70,
            "name": "A#4",
            "ticks": 18336,
            "time": 32.19099675,
            "velocity": 0.3937007874015748
          },
          {
            "duration": 0.33707850000000406,
            "durationTicks": 192,
            "midi": 44,
            "name": "G#2",
            "ticks": 18432,
            "time": 32.35953599999999,
            "velocity": 0.3937007874015748
          },
          {
            "duration": 0.16853925000000203,
            "durationTicks": 96,
            "midi": 70,
            "name": "A#4",
            "ticks": 18432,
            "time": 32.35953599999999,
            "velocity": 0.3937007874015748
          },
          {
            "duration": 0.16853925000000203,
            "durationTicks": 96,
            "midi": 70,
            "name": "A#4",
            "ticks": 18432,
            "time": 32.35953599999999,
            "velocity": 0.3937007874015748
          },
          {
            "duration": 0.674157000000001,
            "durationTicks": 384,
            "midi": 32,
            "name": "G#1",
            "ticks": 18432,
            "time": 32.35953599999999,
            "velocity": 0.3937007874015748
          },
          {
            "duration": 0.16853925000000203,
            "durationTicks": 96,
            "midi": 72,
            "name": "C5",
            "ticks": 18528,
            "time": 32.52807524999999,
            "velocity": 0.3937007874015748
          },
          {
            "duration": 0.16853925000000203,
            "durationTicks": 96,
            "midi": 72,
            "name": "C5",
            "ticks": 18528,
            "time": 32.52807524999999,
            "velocity": 0.3937007874015748
          },
          {
            "duration": 0.33707849999999695,
            "durationTicks": 192,
            "midi": 63,
            "name": "D#4",
            "ticks": 18624,
            "time": 32.696614499999995,
            "velocity": 0.3937007874015748
          },
          {
            "duration": 0.33707849999999695,
            "durationTicks": 192,
            "midi": 44,
            "name": "G#2",
            "ticks": 18624,
            "time": 32.696614499999995,
            "velocity": 0.3937007874015748
          },
          {
            "duration": 0.33707849999999695,
            "durationTicks": 192,
            "midi": 63,
            "name": "D#4",
            "ticks": 18624,
            "time": 32.696614499999995,
            "velocity": 0.3937007874015748
          },
          {
            "duration": 0.33707850000000406,
            "durationTicks": 192,
            "midi": 44,
            "name": "G#2",
            "ticks": 18816,
            "time": 33.03369299999999,
            "velocity": 0.3937007874015748
          },
          {
            "duration": 0.674157000000001,
            "durationTicks": 384,
            "midi": 32,
            "name": "G#1",
            "ticks": 18816,
            "time": 33.03369299999999,
            "velocity": 0.3937007874015748
          },
          {
            "duration": 0.16853925000000203,
            "durationTicks": 96,
            "midi": 60,
            "name": "C4",
            "ticks": 18912,
            "time": 33.202232249999994,
            "velocity": 0.3937007874015748
          },
          {
            "duration": 0.16853925000000203,
            "durationTicks": 96,
            "midi": 60,
            "name": "C4",
            "ticks": 18912,
            "time": 33.202232249999994,
            "velocity": 0.3937007874015748
          },
          {
            "duration": 0.33707849999999695,
            "durationTicks": 192,
            "midi": 44,
            "name": "G#2",
            "ticks": 19008,
            "time": 33.3707715,
            "velocity": 0.3937007874015748
          },
          {
            "duration": 0.16853924999999492,
            "durationTicks": 96,
            "midi": 63,
            "name": "D#4",
            "ticks": 19008,
            "time": 33.3707715,
            "velocity": 0.3937007874015748
          },
          {
            "duration": 0.16853924999999492,
            "durationTicks": 96,
            "midi": 63,
            "name": "D#4",
            "ticks": 19008,
            "time": 33.3707715,
            "velocity": 0.3937007874015748
          },
          {
            "duration": 0.16853925000000203,
            "durationTicks": 96,
            "midi": 70,
            "name": "A#4",
            "ticks": 19104,
            "time": 33.53931074999999,
            "velocity": 0.3937007874015748
          },
          {
            "duration": 0.16853925000000203,
            "durationTicks": 96,
            "midi": 70,
            "name": "A#4",
            "ticks": 19104,
            "time": 33.53931074999999,
            "velocity": 0.3937007874015748
          },
          {
            "duration": 0.33707850000000406,
            "durationTicks": 192,
            "midi": 39,
            "name": "D#2",
            "ticks": 19200,
            "time": 33.70784999999999,
            "velocity": 0.3937007874015748
          },
          {
            "duration": 0.674157000000001,
            "durationTicks": 384,
            "midi": 27,
            "name": "D#1",
            "ticks": 19200,
            "time": 33.70784999999999,
            "velocity": 0.3937007874015748
          },
          {
            "duration": 0.16853925000000203,
            "durationTicks": 96,
            "midi": 70,
            "name": "A#4",
            "ticks": 19200,
            "time": 33.70784999999999,
            "velocity": 0.3937007874015748
          },
          {
            "duration": 0.16853925000000203,
            "durationTicks": 96,
            "midi": 70,
            "name": "A#4",
            "ticks": 19200,
            "time": 33.70784999999999,
            "velocity": 0.3937007874015748
          },
          {
            "duration": 0.16853925000000203,
            "durationTicks": 96,
            "midi": 72,
            "name": "C5",
            "ticks": 19296,
            "time": 33.876389249999995,
            "velocity": 0.3937007874015748
          },
          {
            "duration": 0.16853925000000203,
            "durationTicks": 96,
            "midi": 72,
            "name": "C5",
            "ticks": 19296,
            "time": 33.876389249999995,
            "velocity": 0.3937007874015748
          },
          {
            "duration": 0.33707849999999695,
            "durationTicks": 192,
            "midi": 39,
            "name": "D#2",
            "ticks": 19392,
            "time": 34.0449285,
            "velocity": 0.3937007874015748
          },
          {
            "duration": 0.33707849999999695,
            "durationTicks": 192,
            "midi": 67,
            "name": "G4",
            "ticks": 19392,
            "time": 34.0449285,
            "velocity": 0.3937007874015748
          },
          {
            "duration": 0.33707849999999695,
            "durationTicks": 192,
            "midi": 67,
            "name": "G4",
            "ticks": 19392,
            "time": 34.0449285,
            "velocity": 0.3937007874015748
          },
          {
            "duration": 0.33707849999999695,
            "durationTicks": 192,
            "midi": 39,
            "name": "D#2",
            "ticks": 19584,
            "time": 34.382006999999994,
            "velocity": 0.3937007874015748
          },
          {
            "duration": 0.674157000000001,
            "durationTicks": 384,
            "midi": 27,
            "name": "D#1",
            "ticks": 19584,
            "time": 34.382006999999994,
            "velocity": 0.3937007874015748
          },
          {
            "duration": 0.16853924999999492,
            "durationTicks": 96,
            "midi": 62,
            "name": "D4",
            "ticks": 19680,
            "time": 34.55054625,
            "velocity": 0.3937007874015748
          },
          {
            "duration": 0.16853924999999492,
            "durationTicks": 96,
            "midi": 62,
            "name": "D4",
            "ticks": 19680,
            "time": 34.55054625,
            "velocity": 0.3937007874015748
          },
          {
            "duration": 0.33707850000000406,
            "durationTicks": 192,
            "midi": 39,
            "name": "D#2",
            "ticks": 19776,
            "time": 34.71908549999999,
            "velocity": 0.3937007874015748
          },
          {
            "duration": 0.16853925000000203,
            "durationTicks": 96,
            "midi": 67,
            "name": "G4",
            "ticks": 19776,
            "time": 34.71908549999999,
            "velocity": 0.3937007874015748
          },
          {
            "duration": 0.16853925000000203,
            "durationTicks": 96,
            "midi": 67,
            "name": "G4",
            "ticks": 19776,
            "time": 34.71908549999999,
            "velocity": 0.3937007874015748
          },
          {
            "duration": 0.16853925000000203,
            "durationTicks": 96,
            "midi": 75,
            "name": "D#5",
            "ticks": 19872,
            "time": 34.88762474999999,
            "velocity": 0.3937007874015748
          },
          {
            "duration": 0.16853925000000203,
            "durationTicks": 96,
            "midi": 75,
            "name": "D#5",
            "ticks": 19872,
            "time": 34.88762474999999,
            "velocity": 0.3937007874015748
          },
          {
            "duration": 0.16853925000000203,
            "durationTicks": 96,
            "midi": 74,
            "name": "D5",
            "ticks": 19968,
            "time": 35.056163999999995,
            "velocity": 0.3937007874015748
          },
          {
            "duration": 0.674157000000001,
            "durationTicks": 384,
            "midi": 31,
            "name": "G1",
            "ticks": 19968,
            "time": 35.056163999999995,
            "velocity": 0.3937007874015748
          },
          {
            "duration": 0.16853925000000203,
            "durationTicks": 96,
            "midi": 74,
            "name": "D5",
            "ticks": 19968,
            "time": 35.056163999999995,
            "velocity": 0.3937007874015748
          },
          {
            "duration": 0.33707849999999695,
            "durationTicks": 192,
            "midi": 43,
            "name": "G2",
            "ticks": 19968,
            "time": 35.056163999999995,
            "velocity": 0.3937007874015748
          },
          {
            "duration": 0.33707849999999695,
            "durationTicks": 192,
            "midi": 74,
            "name": "D5",
            "ticks": 20064,
            "time": 35.22470325,
            "velocity": 0.3937007874015748
          },
          {
            "duration": 0.33707849999999695,
            "durationTicks": 192,
            "midi": 74,
            "name": "D5",
            "ticks": 20064,
            "time": 35.22470325,
            "velocity": 0.3937007874015748
          },
          {
            "duration": 0.33707850000000406,
            "durationTicks": 192,
            "midi": 43,
            "name": "G2",
            "ticks": 20160,
            "time": 35.39324249999999,
            "velocity": 0.3937007874015748
          },
          {
            "duration": 0.16853925000000203,
            "durationTicks": 96,
            "midi": 72,
            "name": "C5",
            "ticks": 20256,
            "time": 35.561781749999994,
            "velocity": 0.3937007874015748
          },
          {
            "duration": 0.16853925000000203,
            "durationTicks": 96,
            "midi": 72,
            "name": "C5",
            "ticks": 20256,
            "time": 35.561781749999994,
            "velocity": 0.3937007874015748
          },
          {
            "duration": 0.16853924999999492,
            "durationTicks": 96,
            "midi": 74,
            "name": "D5",
            "ticks": 20352,
            "time": 35.730320999999996,
            "velocity": 0.3937007874015748
          },
          {
            "duration": 0.16853924999999492,
            "durationTicks": 96,
            "midi": 74,
            "name": "D5",
            "ticks": 20352,
            "time": 35.730320999999996,
            "velocity": 0.3937007874015748
          },
          {
            "duration": 0.674157000000001,
            "durationTicks": 384,
            "midi": 31,
            "name": "G1",
            "ticks": 20352,
            "time": 35.730320999999996,
            "velocity": 0.3937007874015748
          },
          {
            "duration": 0.33707849999999695,
            "durationTicks": 192,
            "midi": 43,
            "name": "G2",
            "ticks": 20352,
            "time": 35.730320999999996,
            "velocity": 0.3937007874015748
          },
          {
            "duration": 0.16853925000000203,
            "durationTicks": 96,
            "midi": 75,
            "name": "D#5",
            "ticks": 20448,
            "time": 35.89886024999999,
            "velocity": 0.3937007874015748
          },
          {
            "duration": 0.16853925000000203,
            "durationTicks": 96,
            "midi": 75,
            "name": "D#5",
            "ticks": 20448,
            "time": 35.89886024999999,
            "velocity": 0.3937007874015748
          },
          {
            "duration": 0.33707850000000406,
            "durationTicks": 192,
            "midi": 43,
            "name": "G2",
            "ticks": 20544,
            "time": 36.06739949999999,
            "velocity": 0.3937007874015748
          },
          {
            "duration": 0.16853925000000203,
            "durationTicks": 96,
            "midi": 74,
            "name": "D5",
            "ticks": 20544,
            "time": 36.06739949999999,
            "velocity": 0.3937007874015748
          },
          {
            "duration": 0.16853925000000203,
            "durationTicks": 96,
            "midi": 74,
            "name": "D5",
            "ticks": 20544,
            "time": 36.06739949999999,
            "velocity": 0.3937007874015748
          },
          {
            "duration": 0.33707849999999695,
            "durationTicks": 192,
            "midi": 74,
            "name": "D5",
            "ticks": 20640,
            "time": 36.235938749999995,
            "velocity": 0.3937007874015748
          },
          {
            "duration": 0.33707849999999695,
            "durationTicks": 192,
            "midi": 74,
            "name": "D5",
            "ticks": 20640,
            "time": 36.235938749999995,
            "velocity": 0.3937007874015748
          },
          {
            "duration": 0.6741569999999939,
            "durationTicks": 384,
            "midi": 24,
            "name": "C1",
            "ticks": 20736,
            "time": 36.404478,
            "velocity": 0.3937007874015748
          },
          {
            "duration": 0.33707849999999695,
            "durationTicks": 192,
            "midi": 36,
            "name": "C2",
            "ticks": 20736,
            "time": 36.404478,
            "velocity": 0.3937007874015748
          },
          {
            "duration": 0.16853925000000203,
            "durationTicks": 96,
            "midi": 72,
            "name": "C5",
            "ticks": 20832,
            "time": 36.57301724999999,
            "velocity": 0.3937007874015748
          },
          {
            "duration": 0.505617749999999,
            "durationTicks": 288,
            "midi": 72,
            "name": "C5",
            "ticks": 20832,
            "time": 36.57301724999999,
            "velocity": 0.3937007874015748
          },
          {
            "duration": 0.33707849999999695,
            "durationTicks": 192,
            "midi": 36,
            "name": "C2",
            "ticks": 20928,
            "time": 36.741556499999994,
            "velocity": 0.3937007874015748
          },
          {
            "duration": 0.33707849999999695,
            "durationTicks": 192,
            "midi": 67,
            "name": "G4",
            "ticks": 20928,
            "time": 36.741556499999994,
            "velocity": 0.3937007874015748
          },
          {
            "duration": 0.674157000000001,
            "durationTicks": 384,
            "midi": 27,
            "name": "D#1",
            "ticks": 21120,
            "time": 37.07863499999999,
            "velocity": 0.3937007874015748
          },
          {
            "duration": 0.33707850000000406,
            "durationTicks": 192,
            "midi": 39,
            "name": "D#2",
            "ticks": 21120,
            "time": 37.07863499999999,
            "velocity": 0.3937007874015748
          },
          {
            "duration": 0.16853925000000203,
            "durationTicks": 96,
            "midi": 60,
            "name": "C4",
            "ticks": 21216,
            "time": 37.24717424999999,
            "velocity": 0.3937007874015748
          },
          {
            "duration": 0.16853925000000203,
            "durationTicks": 96,
            "midi": 60,
            "name": "C4",
            "ticks": 21216,
            "time": 37.24717424999999,
            "velocity": 0.3937007874015748
          },
          {
            "duration": 0.33707849999999695,
            "durationTicks": 192,
            "midi": 39,
            "name": "D#2",
            "ticks": 21312,
            "time": 37.415713499999995,
            "velocity": 0.3937007874015748
          },
          {
            "duration": 0.16853925000000203,
            "durationTicks": 96,
            "midi": 63,
            "name": "D#4",
            "ticks": 21312,
            "time": 37.415713499999995,
            "velocity": 0.3937007874015748
          },
          {
            "duration": 0.16853925000000203,
            "durationTicks": 96,
            "midi": 63,
            "name": "D#4",
            "ticks": 21312,
            "time": 37.415713499999995,
            "velocity": 0.3937007874015748
          },
          {
            "duration": 0.16853924999999492,
            "durationTicks": 96,
            "midi": 70,
            "name": "A#4",
            "ticks": 21408,
            "time": 37.58425275,
            "velocity": 0.3937007874015748
          },
          {
            "duration": 0.16853924999999492,
            "durationTicks": 96,
            "midi": 70,
            "name": "A#4",
            "ticks": 21408,
            "time": 37.58425275,
            "velocity": 0.3937007874015748
          },
          {
            "duration": 0.33707850000000406,
            "durationTicks": 192,
            "midi": 44,
            "name": "G#2",
            "ticks": 21504,
            "time": 37.75279199999999,
            "velocity": 0.3937007874015748
          },
          {
            "duration": 0.674157000000001,
            "durationTicks": 384,
            "midi": 32,
            "name": "G#1",
            "ticks": 21504,
            "time": 37.75279199999999,
            "velocity": 0.3937007874015748
          },
          {
            "duration": 0.16853925000000203,
            "durationTicks": 96,
            "midi": 70,
            "name": "A#4",
            "ticks": 21504,
            "time": 37.75279199999999,
            "velocity": 0.3937007874015748
          },
          {
            "duration": 0.16853925000000203,
            "durationTicks": 96,
            "midi": 70,
            "name": "A#4",
            "ticks": 21504,
            "time": 37.75279199999999,
            "velocity": 0.3937007874015748
          },
          {
            "duration": 0.16853925000000203,
            "durationTicks": 96,
            "midi": 72,
            "name": "C5",
            "ticks": 21600,
            "time": 37.921331249999994,
            "velocity": 0.3937007874015748
          },
          {
            "duration": 0.16853925000000203,
            "durationTicks": 96,
            "midi": 72,
            "name": "C5",
            "ticks": 21600,
            "time": 37.921331249999994,
            "velocity": 0.3937007874015748
          },
          {
            "duration": 0.33707849999999695,
            "durationTicks": 192,
            "midi": 63,
            "name": "D#4",
            "ticks": 21696,
            "time": 38.089870499999996,
            "velocity": 0.3937007874015748
          },
          {
            "duration": 0.33707849999999695,
            "durationTicks": 192,
            "midi": 44,
            "name": "G#2",
            "ticks": 21696,
            "time": 38.089870499999996,
            "velocity": 0.3937007874015748
          },
          {
            "duration": 0.33707849999999695,
            "durationTicks": 192,
            "midi": 63,
            "name": "D#4",
            "ticks": 21696,
            "time": 38.089870499999996,
            "velocity": 0.3937007874015748
          },
          {
            "duration": 0.674157000000001,
            "durationTicks": 384,
            "midi": 32,
            "name": "G#1",
            "ticks": 21888,
            "time": 38.42694899999999,
            "velocity": 0.3937007874015748
          },
          {
            "duration": 0.33707850000000406,
            "durationTicks": 192,
            "midi": 44,
            "name": "G#2",
            "ticks": 21888,
            "time": 38.42694899999999,
            "velocity": 0.3937007874015748
          },
          {
            "duration": 0.16853925000000203,
            "durationTicks": 96,
            "midi": 60,
            "name": "C4",
            "ticks": 21984,
            "time": 38.595488249999995,
            "velocity": 0.3937007874015748
          },
          {
            "duration": 0.16853925000000203,
            "durationTicks": 96,
            "midi": 60,
            "name": "C4",
            "ticks": 21984,
            "time": 38.595488249999995,
            "velocity": 0.3937007874015748
          },
          {
            "duration": 0.16853924999999492,
            "durationTicks": 96,
            "midi": 63,
            "name": "D#4",
            "ticks": 22080,
            "time": 38.7640275,
            "velocity": 0.3937007874015748
          },
          {
            "duration": 0.33707849999999695,
            "durationTicks": 192,
            "midi": 44,
            "name": "G#2",
            "ticks": 22080,
            "time": 38.7640275,
            "velocity": 0.3937007874015748
          },
          {
            "duration": 0.16853924999999492,
            "durationTicks": 96,
            "midi": 63,
            "name": "D#4",
            "ticks": 22080,
            "time": 38.7640275,
            "velocity": 0.3937007874015748
          },
          {
            "duration": 0.16853925000000203,
            "durationTicks": 96,
            "midi": 70,
            "name": "A#4",
            "ticks": 22176,
            "time": 38.93256674999999,
            "velocity": 0.3937007874015748
          },
          {
            "duration": 0.16853925000000203,
            "durationTicks": 96,
            "midi": 70,
            "name": "A#4",
            "ticks": 22176,
            "time": 38.93256674999999,
            "velocity": 0.3937007874015748
          },
          {
            "duration": 0.16853925000000203,
            "durationTicks": 96,
            "midi": 70,
            "name": "A#4",
            "ticks": 22272,
            "time": 39.101105999999994,
            "velocity": 0.3937007874015748
          },
          {
            "duration": 0.16853925000000203,
            "durationTicks": 96,
            "midi": 70,
            "name": "A#4",
            "ticks": 22272,
            "time": 39.101105999999994,
            "velocity": 0.3937007874015748
          },
          {
            "duration": 0.33707849999999695,
            "durationTicks": 192,
            "midi": 39,
            "name": "D#2",
            "ticks": 22272,
            "time": 39.101105999999994,
            "velocity": 0.3937007874015748
          },
          {
            "duration": 0.674157000000001,
            "durationTicks": 384,
            "midi": 27,
            "name": "D#1",
            "ticks": 22272,
            "time": 39.101105999999994,
            "velocity": 0.3937007874015748
          },
          {
            "duration": 0.16853924999999492,
            "durationTicks": 96,
            "midi": 72,
            "name": "C5",
            "ticks": 22368,
            "time": 39.269645249999996,
            "velocity": 0.3937007874015748
          },
          {
            "duration": 0.16853924999999492,
            "durationTicks": 96,
            "midi": 72,
            "name": "C5",
            "ticks": 22368,
            "time": 39.269645249999996,
            "velocity": 0.3937007874015748
          },
          {
            "duration": 0.33707850000000406,
            "durationTicks": 192,
            "midi": 39,
            "name": "D#2",
            "ticks": 22464,
            "time": 39.43818449999999,
            "velocity": 0.3937007874015748
          },
          {
            "duration": 0.33707850000000406,
            "durationTicks": 192,
            "midi": 63,
            "name": "D#4",
            "ticks": 22464,
            "time": 39.43818449999999,
            "velocity": 0.3937007874015748
          },
          {
            "duration": 0.33707850000000406,
            "durationTicks": 192,
            "midi": 63,
            "name": "D#4",
            "ticks": 22464,
            "time": 39.43818449999999,
            "velocity": 0.3937007874015748
          },
          {
            "duration": 0.33707849999999695,
            "durationTicks": 192,
            "midi": 39,
            "name": "D#2",
            "ticks": 22656,
            "time": 39.775262999999995,
            "velocity": 0.3937007874015748
          },
          {
            "duration": 0.674157000000001,
            "durationTicks": 384,
            "midi": 27,
            "name": "D#1",
            "ticks": 22656,
            "time": 39.775262999999995,
            "velocity": 0.3937007874015748
          },
          {
            "duration": 0.16853925000000203,
            "durationTicks": 96,
            "midi": 60,
            "name": "C4",
            "ticks": 22752,
            "time": 39.94380224999999,
            "velocity": 0.3937007874015748
          },
          {
            "duration": 0.16853925000000203,
            "durationTicks": 96,
            "midi": 60,
            "name": "C4",
            "ticks": 22752,
            "time": 39.94380224999999,
            "velocity": 0.3937007874015748
          },
          {
            "duration": 0.16853925000000203,
            "durationTicks": 96,
            "midi": 63,
            "name": "D#4",
            "ticks": 22848,
            "time": 40.11234149999999,
            "velocity": 0.3937007874015748
          },
          {
            "duration": 0.16853925000000203,
            "durationTicks": 96,
            "midi": 63,
            "name": "D#4",
            "ticks": 22848,
            "time": 40.11234149999999,
            "velocity": 0.3937007874015748
          },
          {
            "duration": 0.33707850000000406,
            "durationTicks": 192,
            "midi": 39,
            "name": "D#2",
            "ticks": 22848,
            "time": 40.11234149999999,
            "velocity": 0.3937007874015748
          },
          {
            "duration": 0.16853925000000203,
            "durationTicks": 96,
            "midi": 67,
            "name": "G4",
            "ticks": 22944,
            "time": 40.280880749999994,
            "velocity": 0.3937007874015748
          },
          {
            "duration": 0.16853925000000203,
            "durationTicks": 96,
            "midi": 67,
            "name": "G4",
            "ticks": 22944,
            "time": 40.280880749999994,
            "velocity": 0.3937007874015748
          },
          {
            "duration": 0.6741569999999939,
            "durationTicks": 384,
            "midi": 31,
            "name": "G1",
            "ticks": 23040,
            "time": 40.449419999999996,
            "velocity": 0.3937007874015748
          },
          {
            "duration": 0.33707849999999695,
            "durationTicks": 192,
            "midi": 43,
            "name": "G2",
            "ticks": 23040,
            "time": 40.449419999999996,
            "velocity": 0.3937007874015748
          },
          {
            "duration": 0.16853924999999492,
            "durationTicks": 96,
            "midi": 67,
            "name": "G4",
            "ticks": 23040,
            "time": 40.449419999999996,
            "velocity": 0.3937007874015748
          },
          {
            "duration": 0.16853924999999492,
            "durationTicks": 96,
            "midi": 67,
            "name": "G4",
            "ticks": 23040,
            "time": 40.449419999999996,
            "velocity": 0.3937007874015748
          },
          {
            "duration": 0.16853925000000203,
            "durationTicks": 96,
            "midi": 67,
            "name": "G4",
            "ticks": 23136,
            "time": 40.61795924999999,
            "velocity": 0.3937007874015748
          },
          {
            "duration": 0.16853925000000203,
            "durationTicks": 96,
            "midi": 67,
            "name": "G4",
            "ticks": 23136,
            "time": 40.61795924999999,
            "velocity": 0.3937007874015748
          },
          {
            "duration": 0.33707849999999695,
            "durationTicks": 192,
            "midi": 43,
            "name": "G2",
            "ticks": 23232,
            "time": 40.78649849999999,
            "velocity": 0.3937007874015748
          },
          {
            "duration": 0.16853925000000203,
            "durationTicks": 96,
            "midi": 67,
            "name": "G4",
            "ticks": 23232,
            "time": 40.78649849999999,
            "velocity": 0.3937007874015748
          },
          {
            "duration": 0.16853925000000203,
            "durationTicks": 96,
            "midi": 67,
            "name": "G4",
            "ticks": 23232,
            "time": 40.78649849999999,
            "velocity": 0.3937007874015748
          },
          {
            "duration": 0.16853924999999492,
            "durationTicks": 96,
            "midi": 68,
            "name": "G#4",
            "ticks": 23328,
            "time": 40.955037749999995,
            "velocity": 0.3937007874015748
          },
          {
            "duration": 0.16853924999999492,
            "durationTicks": 96,
            "midi": 68,
            "name": "G#4",
            "ticks": 23328,
            "time": 40.955037749999995,
            "velocity": 0.3937007874015748
          },
          {
            "duration": 0.33707850000000406,
            "durationTicks": 192,
            "midi": 43,
            "name": "G2",
            "ticks": 23424,
            "time": 41.12357699999999,
            "velocity": 0.3937007874015748
          },
          {
            "duration": 0.33707850000000406,
            "durationTicks": 192,
            "midi": 67,
            "name": "G4",
            "ticks": 23424,
            "time": 41.12357699999999,
            "velocity": 0.3937007874015748
          },
          {
            "duration": 0.33707850000000406,
            "durationTicks": 192,
            "midi": 67,
            "name": "G4",
            "ticks": 23424,
            "time": 41.12357699999999,
            "velocity": 0.3937007874015748
          },
          {
            "duration": 0.674157000000001,
            "durationTicks": 384,
            "midi": 31,
            "name": "G1",
            "ticks": 23424,
            "time": 41.12357699999999,
            "velocity": 0.3937007874015748
          },
          {
            "duration": 0.33707849999999695,
            "durationTicks": 192,
            "midi": 43,
            "name": "G2",
            "ticks": 23616,
            "time": 41.460655499999994,
            "velocity": 0.3937007874015748
          },
          {
            "duration": 0.16853925000000203,
            "durationTicks": 96,
            "midi": 65,
            "name": "F4",
            "ticks": 23616,
            "time": 41.460655499999994,
            "velocity": 0.3937007874015748
          },
          {
            "duration": 0.16853925000000203,
            "durationTicks": 96,
            "midi": 65,
            "name": "F4",
            "ticks": 23616,
            "time": 41.460655499999994,
            "velocity": 0.3937007874015748
          },
          {
            "duration": 0.33707849999999695,
            "durationTicks": 192,
            "midi": 65,
            "name": "F4",
            "ticks": 23712,
            "time": 41.629194749999996,
            "velocity": 0.3937007874015748
          },
          {
            "duration": 0.33707849999999695,
            "durationTicks": 192,
            "midi": 65,
            "name": "F4",
            "ticks": 23712,
            "time": 41.629194749999996,
            "velocity": 0.3937007874015748
          },
          {
            "duration": 0.33707850000000406,
            "durationTicks": 192,
            "midi": 36,
            "name": "C2",
            "ticks": 23808,
            "time": 41.79773399999999,
            "velocity": 0.3937007874015748
          },
          {
            "duration": 0.674157000000001,
            "durationTicks": 384,
            "midi": 24,
            "name": "C1",
            "ticks": 23808,
            "time": 41.79773399999999,
            "velocity": 0.3937007874015748
          },
          {
            "duration": 0.505617749999999,
            "durationTicks": 288,
            "midi": 63,
            "name": "D#4",
            "ticks": 23904,
            "time": 41.96627324999999,
            "velocity": 0.3937007874015748
          },
          {
            "duration": 0.505617749999999,
            "durationTicks": 288,
            "midi": 63,
            "name": "D#4",
            "ticks": 23904,
            "time": 41.96627324999999,
            "velocity": 0.3937007874015748
          },
          {
            "duration": 0.33707849999999695,
            "durationTicks": 192,
            "midi": 36,
            "name": "C2",
            "ticks": 24000,
            "time": 42.134812499999995,
            "velocity": 0.3937007874015748
          },
          {
            "duration": 0.33707850000000406,
            "durationTicks": 192,
            "midi": 39,
            "name": "D#2",
            "ticks": 24192,
            "time": 42.47189099999999,
            "velocity": 0.3937007874015748
          },
          {
            "duration": 0.674157000000001,
            "durationTicks": 384,
            "midi": 27,
            "name": "D#1",
            "ticks": 24192,
            "time": 42.47189099999999,
            "velocity": 0.3937007874015748
          },
          {
            "duration": 0.16853925000000203,
            "durationTicks": 96,
            "midi": 60,
            "name": "C4",
            "ticks": 24288,
            "time": 42.640430249999994,
            "velocity": 0.3937007874015748
          },
          {
            "duration": 0.16853925000000203,
            "durationTicks": 96,
            "midi": 60,
            "name": "C4",
            "ticks": 24288,
            "time": 42.640430249999994,
            "velocity": 0.3937007874015748
          },
          {
            "duration": 0.16853924999999492,
            "durationTicks": 96,
            "midi": 63,
            "name": "D#4",
            "ticks": 24384,
            "time": 42.808969499999996,
            "velocity": 0.3937007874015748
          },
          {
            "duration": 0.33707849999999695,
            "durationTicks": 192,
            "midi": 39,
            "name": "D#2",
            "ticks": 24384,
            "time": 42.808969499999996,
            "velocity": 0.3937007874015748
          },
          {
            "duration": 0.16853924999999492,
            "durationTicks": 96,
            "midi": 63,
            "name": "D#4",
            "ticks": 24384,
            "time": 42.808969499999996,
            "velocity": 0.3937007874015748
          },
          {
            "duration": 0.16853925000000203,
            "durationTicks": 96,
            "midi": 70,
            "name": "A#4",
            "ticks": 24480,
            "time": 42.97750874999999,
            "velocity": 0.3937007874015748
          },
          {
            "duration": 0.16853925000000203,
            "durationTicks": 96,
            "midi": 70,
            "name": "A#4",
            "ticks": 24480,
            "time": 42.97750874999999,
            "velocity": 0.3937007874015748
          },
          {
            "duration": 0.16853925000000203,
            "durationTicks": 96,
            "midi": 70,
            "name": "A#4",
            "ticks": 24576,
            "time": 43.14604799999999,
            "velocity": 0.3937007874015748
          },
          {
            "duration": 0.674157000000001,
            "durationTicks": 384,
            "midi": 32,
            "name": "G#1",
            "ticks": 24576,
            "time": 43.14604799999999,
            "velocity": 0.3937007874015748
          },
          {
            "duration": 0.16853925000000203,
            "durationTicks": 96,
            "midi": 70,
            "name": "A#4",
            "ticks": 24576,
            "time": 43.14604799999999,
            "velocity": 0.3937007874015748
          },
          {
            "duration": 0.33707849999999695,
            "durationTicks": 192,
            "midi": 44,
            "name": "G#2",
            "ticks": 24576,
            "time": 43.14604799999999,
            "velocity": 0.3937007874015748
          },
          {
            "duration": 0.16853924999999492,
            "durationTicks": 96,
            "midi": 72,
            "name": "C5",
            "ticks": 24672,
            "time": 43.314587249999995,
            "velocity": 0.3937007874015748
          },
          {
            "duration": 0.16853924999999492,
            "durationTicks": 96,
            "midi": 72,
            "name": "C5",
            "ticks": 24672,
            "time": 43.314587249999995,
            "velocity": 0.3937007874015748
          },
          {
            "duration": 0.33707850000000406,
            "durationTicks": 192,
            "midi": 63,
            "name": "D#4",
            "ticks": 24768,
            "time": 43.48312649999999,
            "velocity": 0.3937007874015748
          },
          {
            "duration": 0.33707850000000406,
            "durationTicks": 192,
            "midi": 44,
            "name": "G#2",
            "ticks": 24768,
            "time": 43.48312649999999,
            "velocity": 0.3937007874015748
          },
          {
            "duration": 0.33707850000000406,
            "durationTicks": 192,
            "midi": 63,
            "name": "D#4",
            "ticks": 24768,
            "time": 43.48312649999999,
            "velocity": 0.3937007874015748
          },
          {
            "duration": 0.33707849999999695,
            "durationTicks": 192,
            "midi": 44,
            "name": "G#2",
            "ticks": 24960,
            "time": 43.820204999999994,
            "velocity": 0.3937007874015748
          },
          {
            "duration": 0.674157000000001,
            "durationTicks": 384,
            "midi": 32,
            "name": "G#1",
            "ticks": 24960,
            "time": 43.820204999999994,
            "velocity": 0.3937007874015748
          },
          {
            "duration": 0.16853924999999492,
            "durationTicks": 96,
            "midi": 60,
            "name": "C4",
            "ticks": 25056,
            "time": 43.988744249999996,
            "velocity": 0.3937007874015748
          },
          {
            "duration": 0.16853924999999492,
            "durationTicks": 96,
            "midi": 60,
            "name": "C4",
            "ticks": 25056,
            "time": 43.988744249999996,
            "velocity": 0.3937007874015748
          },
          {
            "duration": 0.16853925000000203,
            "durationTicks": 96,
            "midi": 63,
            "name": "D#4",
            "ticks": 25152,
            "time": 44.15728349999999,
            "velocity": 0.3937007874015748
          },
          {
            "duration": 0.33707850000000406,
            "durationTicks": 192,
            "midi": 44,
            "name": "G#2",
            "ticks": 25152,
            "time": 44.15728349999999,
            "velocity": 0.3937007874015748
          },
          {
            "duration": 0.16853925000000203,
            "durationTicks": 96,
            "midi": 63,
            "name": "D#4",
            "ticks": 25152,
            "time": 44.15728349999999,
            "velocity": 0.3937007874015748
          },
          {
            "duration": 0.16853925000000203,
            "durationTicks": 96,
            "midi": 70,
            "name": "A#4",
            "ticks": 25248,
            "time": 44.32582274999999,
            "velocity": 0.3937007874015748
          },
          {
            "duration": 0.16853925000000203,
            "durationTicks": 96,
            "midi": 70,
            "name": "A#4",
            "ticks": 25248,
            "time": 44.32582274999999,
            "velocity": 0.3937007874015748
          },
          {
            "duration": 0.16853924999999492,
            "durationTicks": 96,
            "midi": 70,
            "name": "A#4",
            "ticks": 25344,
            "time": 44.494361999999995,
            "velocity": 0.3937007874015748
          },
          {
            "duration": 0.674157000000001,
            "durationTicks": 384,
            "midi": 27,
            "name": "D#1",
            "ticks": 25344,
            "time": 44.494361999999995,
            "velocity": 0.3937007874015748
          },
          {
            "duration": 0.16853924999999492,
            "durationTicks": 96,
            "midi": 70,
            "name": "A#4",
            "ticks": 25344,
            "time": 44.494361999999995,
            "velocity": 0.3937007874015748
          },
          {
            "duration": 0.33707849999999695,
            "durationTicks": 192,
            "midi": 39,
            "name": "D#2",
            "ticks": 25344,
            "time": 44.494361999999995,
            "velocity": 0.3937007874015748
          },
          {
            "duration": 0.16853925000000203,
            "durationTicks": 96,
            "midi": 72,
            "name": "C5",
            "ticks": 25440,
            "time": 44.66290124999999,
            "velocity": 0.3937007874015748
          },
          {
            "duration": 0.16853925000000203,
            "durationTicks": 96,
            "midi": 72,
            "name": "C5",
            "ticks": 25440,
            "time": 44.66290124999999,
            "velocity": 0.3937007874015748
          },
          {
            "duration": 0.33707850000000406,
            "durationTicks": 192,
            "midi": 39,
            "name": "D#2",
            "ticks": 25536,
            "time": 44.83144049999999,
            "velocity": 0.3937007874015748
          },
          {
            "duration": 0.33707850000000406,
            "durationTicks": 192,
            "midi": 63,
            "name": "D#4",
            "ticks": 25536,
            "time": 44.83144049999999,
            "velocity": 0.3937007874015748
          },
          {
            "duration": 0.33707850000000406,
            "durationTicks": 192,
            "midi": 63,
            "name": "D#4",
            "ticks": 25536,
            "time": 44.83144049999999,
            "velocity": 0.3937007874015748
          },
          {
            "duration": 0.6741569999999939,
            "durationTicks": 384,
            "midi": 27,
            "name": "D#1",
            "ticks": 25728,
            "time": 45.168518999999996,
            "velocity": 0.3937007874015748
          },
          {
            "duration": 0.33707849999999695,
            "durationTicks": 192,
            "midi": 39,
            "name": "D#2",
            "ticks": 25728,
            "time": 45.168518999999996,
            "velocity": 0.3937007874015748
          },
          {
            "duration": 0.16853925000000203,
            "durationTicks": 96,
            "midi": 60,
            "name": "C4",
            "ticks": 25824,
            "time": 45.33705824999999,
            "velocity": 0.3937007874015748
          },
          {
            "duration": 0.16853925000000203,
            "durationTicks": 96,
            "midi": 60,
            "name": "C4",
            "ticks": 25824,
            "time": 45.33705824999999,
            "velocity": 0.3937007874015748
          },
          {
            "duration": 0.33707849999999695,
            "durationTicks": 192,
            "midi": 39,
            "name": "D#2",
            "ticks": 25920,
            "time": 45.50559749999999,
            "velocity": 0.3937007874015748
          },
          {
            "duration": 0.16853925000000203,
            "durationTicks": 96,
            "midi": 62,
            "name": "D4",
            "ticks": 25920,
            "time": 45.50559749999999,
            "velocity": 0.3937007874015748
          },
          {
            "duration": 0.16853925000000203,
            "durationTicks": 96,
            "midi": 62,
            "name": "D4",
            "ticks": 25920,
            "time": 45.50559749999999,
            "velocity": 0.3937007874015748
          },
          {
            "duration": 0.16853924999999492,
            "durationTicks": 96,
            "midi": 63,
            "name": "D#4",
            "ticks": 26016,
            "time": 45.674136749999995,
            "velocity": 0.3937007874015748
          },
          {
            "duration": 0.16853924999999492,
            "durationTicks": 96,
            "midi": 63,
            "name": "D#4",
            "ticks": 26016,
            "time": 45.674136749999995,
            "velocity": 0.3937007874015748
          },
          {
            "duration": 0.674157000000001,
            "durationTicks": 384,
            "midi": 26,
            "name": "D1",
            "ticks": 26112,
            "time": 45.84267599999999,
            "velocity": 0.3937007874015748
          },
          {
            "duration": 0.33707850000000406,
            "durationTicks": 192,
            "midi": 38,
            "name": "D2",
            "ticks": 26112,
            "time": 45.84267599999999,
            "velocity": 0.3937007874015748
          },
          {
            "duration": 0.16853925000000203,
            "durationTicks": 96,
            "midi": 62,
            "name": "D4",
            "ticks": 26112,
            "time": 45.84267599999999,
            "velocity": 0.3937007874015748
          },
          {
            "duration": 0.16853925000000203,
            "durationTicks": 96,
            "midi": 62,
            "name": "D4",
            "ticks": 26112,
            "time": 45.84267599999999,
            "velocity": 0.3937007874015748
          },
          {
            "duration": 0.16853925000000203,
            "durationTicks": 96,
            "midi": 62,
            "name": "D4",
            "ticks": 26208,
            "time": 46.01121524999999,
            "velocity": 0.3937007874015748
          },
          {
            "duration": 0.16853925000000203,
            "durationTicks": 96,
            "midi": 62,
            "name": "D4",
            "ticks": 26208,
            "time": 46.01121524999999,
            "velocity": 0.3937007874015748
          },
          {
            "duration": 0.33707849999999695,
            "durationTicks": 192,
            "midi": 38,
            "name": "D2",
            "ticks": 26304,
            "time": 46.179754499999994,
            "velocity": 0.3937007874015748
          },
          {
            "duration": 0.33707849999999695,
            "durationTicks": 192,
            "midi": 62,
            "name": "D4",
            "ticks": 26304,
            "time": 46.179754499999994,
            "velocity": 0.3937007874015748
          },
          {
            "duration": 0.33707849999999695,
            "durationTicks": 192,
            "midi": 62,
            "name": "D4",
            "ticks": 26304,
            "time": 46.179754499999994,
            "velocity": 0.3937007874015748
          },
          {
            "duration": 0.674157000000001,
            "durationTicks": 384,
            "midi": 31,
            "name": "G1",
            "ticks": 26496,
            "time": 46.51683299999999,
            "velocity": 0.3937007874015748
          },
          {
            "duration": 0.16853925000000203,
            "durationTicks": 96,
            "midi": 62,
            "name": "D4",
            "ticks": 26496,
            "time": 46.51683299999999,
            "velocity": 0.3937007874015748
          },
          {
            "duration": 0.33707850000000406,
            "durationTicks": 192,
            "midi": 43,
            "name": "G2",
            "ticks": 26496,
            "time": 46.51683299999999,
            "velocity": 0.3937007874015748
          },
          {
            "duration": 0.16853925000000203,
            "durationTicks": 96,
            "midi": 62,
            "name": "D4",
            "ticks": 26496,
            "time": 46.51683299999999,
            "velocity": 0.3937007874015748
          },
          {
            "duration": 0.16853925000000203,
            "durationTicks": 96,
            "midi": 63,
            "name": "D#4",
            "ticks": 26592,
            "time": 46.68537224999999,
            "velocity": 0.3937007874015748
          },
          {
            "duration": 0.16853925000000203,
            "durationTicks": 96,
            "midi": 63,
            "name": "D#4",
            "ticks": 26592,
            "time": 46.68537224999999,
            "velocity": 0.3937007874015748
          },
          {
            "duration": 0.33707849999999695,
            "durationTicks": 192,
            "midi": 43,
            "name": "G2",
            "ticks": 26688,
            "time": 46.853911499999995,
            "velocity": 0.3937007874015748
          },
          {
            "duration": 0.16853924999999492,
            "durationTicks": 96,
            "midi": 62,
            "name": "D4",
            "ticks": 26688,
            "time": 46.853911499999995,
            "velocity": 0.3937007874015748
          },
          {
            "duration": 0.16853924999999492,
            "durationTicks": 96,
            "midi": 62,
            "name": "D4",
            "ticks": 26688,
            "time": 46.853911499999995,
            "velocity": 0.3937007874015748
          },
          {
            "duration": 0.33707850000000406,
            "durationTicks": 192,
            "midi": 62,
            "name": "D4",
            "ticks": 26784,
            "time": 47.02245074999999,
            "velocity": 0.3937007874015748
          },
          {
            "duration": 0.505617749999999,
            "durationTicks": 288,
            "midi": 62,
            "name": "D4",
            "ticks": 26784,
            "time": 47.02245074999999,
            "velocity": 0.3937007874015748
          },
          {
            "duration": 0.674157000000001,
            "durationTicks": 384,
            "midi": 36,
            "name": "C2",
            "ticks": 26880,
            "time": 47.19098999999999,
            "velocity": 0.3937007874015748
          },
          {
            "duration": 1.348314000000002,
            "durationTicks": 768,
            "midi": 72,
            "name": "C5",
            "ticks": 26880,
            "time": 47.19098999999999,
            "velocity": 0.3937007874015748
          },
          {
            "duration": 0.674157000000001,
            "durationTicks": 384,
            "midi": 48,
            "name": "C3",
            "ticks": 26880,
            "time": 47.19098999999999,
            "velocity": 0.3937007874015748
          },
          {
            "duration": 0.16853924999999492,
            "durationTicks": 96,
            "midi": 63,
            "name": "D#4",
            "ticks": 26976,
            "time": 47.359529249999994,
            "velocity": 0.3937007874015748
          },
          {
            "duration": 0.33707850000000406,
            "durationTicks": 192,
            "midi": 60,
            "name": "C4",
            "ticks": 27072,
            "time": 47.52806849999999,
            "velocity": 0.3937007874015748
          },
          {
            "duration": 0.674157000000001,
            "durationTicks": 384,
            "midi": 60,
            "name": "C4",
            "ticks": 27072,
            "time": 47.52806849999999,
            "velocity": 0.3937007874015748
          },
          {
            "duration": 0.674157000000001,
            "durationTicks": 384,
            "midi": 67,
            "name": "G4",
            "ticks": 27264,
            "time": 47.86514699999999,
            "velocity": 0.3937007874015748
          },
          {
            "duration": 3.370784999999998,
            "durationTicks": 1920,
            "midi": 67,
            "name": "G4",
            "ticks": 27648,
            "time": 48.539303999999994,
            "velocity": 0.3937007874015748
          },
          {
            "duration": 0.33707849999999695,
            "durationTicks": 192,
            "midi": 36,
            "name": "C2",
            "ticks": 27648,
            "time": 48.539303999999994,
            "velocity": 0.3937007874015748
          },
          {
            "duration": 3.370784999999998,
            "durationTicks": 1920,
            "midi": 79,
            "name": "G5",
            "ticks": 27648,
            "time": 48.539303999999994,
            "velocity": 0.3937007874015748
          },
          {
            "duration": 3.53932425,
            "durationTicks": 2016,
            "midi": 79,
            "name": "G5",
            "ticks": 27648,
            "time": 48.539303999999994,
            "velocity": 0.3937007874015748
          },
          {
            "duration": 0.33707849999999695,
            "durationTicks": 192,
            "midi": 24,
            "name": "C1",
            "ticks": 27648,
            "time": 48.539303999999994,
            "velocity": 0.3937007874015748
          },
          {
            "duration": 3.53932425,
            "durationTicks": 2016,
            "midi": 67,
            "name": "G4",
            "ticks": 27648,
            "time": 48.539303999999994,
            "velocity": 0.3937007874015748
          },
          {
            "duration": 0.33707850000000406,
            "durationTicks": 192,
            "midi": 48,
            "name": "C3",
            "ticks": 27840,
            "time": 48.87638249999999,
            "velocity": 0.3937007874015748
          },
          {
            "duration": 0.33707850000000406,
            "durationTicks": 192,
            "midi": 36,
            "name": "C2",
            "ticks": 27840,
            "time": 48.87638249999999,
            "velocity": 0.3937007874015748
          },
          {
            "duration": 0.33707849999999695,
            "durationTicks": 192,
            "midi": 51,
            "name": "D#3",
            "ticks": 28032,
            "time": 49.213460999999995,
            "velocity": 0.3937007874015748
          },
          {
            "duration": 0.33707849999999695,
            "durationTicks": 192,
            "midi": 39,
            "name": "D#2",
            "ticks": 28032,
            "time": 49.213460999999995,
            "velocity": 0.3937007874015748
          },
          {
            "duration": 0.33707849999999695,
            "durationTicks": 192,
            "midi": 38,
            "name": "D2",
            "ticks": 28224,
            "time": 49.55053949999999,
            "velocity": 0.3937007874015748
          },
          {
            "duration": 0.33707849999999695,
            "durationTicks": 192,
            "midi": 50,
            "name": "D3",
            "ticks": 28224,
            "time": 49.55053949999999,
            "velocity": 0.3937007874015748
          },
          {
            "duration": 0.33707850000000406,
            "durationTicks": 192,
            "midi": 43,
            "name": "G2",
            "ticks": 28416,
            "time": 49.88761799999999,
            "velocity": 0.3937007874015748
          },
          {
            "duration": 0.33707850000000406,
            "durationTicks": 192,
            "midi": 31,
            "name": "G1",
            "ticks": 28416,
            "time": 49.88761799999999,
            "velocity": 0.3937007874015748
          },
          {
            "duration": 0.33707849999999695,
            "durationTicks": 192,
            "midi": 34,
            "name": "A#1",
            "ticks": 28608,
            "time": 50.22469649999999,
            "velocity": 0.3937007874015748
          },
          {
            "duration": 0.33707849999999695,
            "durationTicks": 192,
            "midi": 46,
            "name": "A#2",
            "ticks": 28608,
            "time": 50.22469649999999,
            "velocity": 0.3937007874015748
          },
          {
            "duration": 0.33707850000000406,
            "durationTicks": 192,
            "midi": 39,
            "name": "D#2",
            "ticks": 28800,
            "time": 50.56177499999999,
            "velocity": 0.3937007874015748
          },
          {
            "duration": 0.33707850000000406,
            "durationTicks": 192,
            "midi": 51,
            "name": "D#3",
            "ticks": 28800,
            "time": 50.56177499999999,
            "velocity": 0.3937007874015748
          },
          {
            "duration": 0.33707849999999695,
            "durationTicks": 192,
            "midi": 50,
            "name": "D3",
            "ticks": 28992,
            "time": 50.898853499999994,
            "velocity": 0.3937007874015748
          },
          {
            "duration": 0.33707849999999695,
            "durationTicks": 192,
            "midi": 38,
            "name": "D2",
            "ticks": 28992,
            "time": 50.898853499999994,
            "velocity": 0.3937007874015748
          },
          {
            "duration": 0.33707850000000406,
            "durationTicks": 192,
            "midi": 32,
            "name": "G#1",
            "ticks": 29184,
            "time": 51.23593199999999,
            "velocity": 0.3937007874015748
          },
          {
            "duration": 0.33707850000000406,
            "durationTicks": 192,
            "midi": 44,
            "name": "G#2",
            "ticks": 29184,
            "time": 51.23593199999999,
            "velocity": 0.3937007874015748
          },
          {
            "duration": 0.33707849999999695,
            "durationTicks": 192,
            "midi": 48,
            "name": "C3",
            "ticks": 29376,
            "time": 51.573010499999995,
            "velocity": 0.3937007874015748
          },
          {
            "duration": 0.33707849999999695,
            "durationTicks": 192,
            "midi": 36,
            "name": "C2",
            "ticks": 29376,
            "time": 51.573010499999995,
            "velocity": 0.3937007874015748
          },
          {
            "duration": 0.33707849999999695,
            "durationTicks": 192,
            "midi": 51,
            "name": "D#3",
            "ticks": 29568,
            "time": 51.91008899999999,
            "velocity": 0.3937007874015748
          },
          {
            "duration": 0.33707849999999695,
            "durationTicks": 192,
            "midi": 39,
            "name": "D#2",
            "ticks": 29568,
            "time": 51.91008899999999,
            "velocity": 0.3937007874015748
          },
          {
            "duration": 0.16853924999999492,
            "durationTicks": 96,
            "midi": 75,
            "name": "D#5",
            "ticks": 29664,
            "time": 52.078628249999994,
            "velocity": 0.3937007874015748
          },
          {
            "duration": 0.16853924999999492,
            "durationTicks": 96,
            "midi": 75,
            "name": "D#5",
            "ticks": 29664,
            "time": 52.078628249999994,
            "velocity": 0.3937007874015748
          },
          {
            "duration": 0.16853924999999492,
            "durationTicks": 96,
            "midi": 63,
            "name": "D#4",
            "ticks": 29664,
            "time": 52.078628249999994,
            "velocity": 0.3937007874015748
          },
          {
            "duration": 0.16853924999999492,
            "durationTicks": 96,
            "midi": 63,
            "name": "D#4",
            "ticks": 29664,
            "time": 52.078628249999994,
            "velocity": 0.3937007874015748
          },
          {
            "duration": 0.33707850000000406,
            "durationTicks": 192,
            "midi": 38,
            "name": "D2",
            "ticks": 29760,
            "time": 52.24716749999999,
            "velocity": 0.3937007874015748
          },
          {
            "duration": 0.16853925000000203,
            "durationTicks": 96,
            "midi": 65,
            "name": "F4",
            "ticks": 29760,
            "time": 52.24716749999999,
            "velocity": 0.3937007874015748
          },
          {
            "duration": 0.16853925000000203,
            "durationTicks": 96,
            "midi": 77,
            "name": "F5",
            "ticks": 29760,
            "time": 52.24716749999999,
            "velocity": 0.3937007874015748
          },
          {
            "duration": 0.16853925000000203,
            "durationTicks": 96,
            "midi": 77,
            "name": "F5",
            "ticks": 29760,
            "time": 52.24716749999999,
            "velocity": 0.3937007874015748
          },
          {
            "duration": 0.16853925000000203,
            "durationTicks": 96,
            "midi": 65,
            "name": "F4",
            "ticks": 29760,
            "time": 52.24716749999999,
            "velocity": 0.3937007874015748
          },
          {
            "duration": 0.33707850000000406,
            "durationTicks": 192,
            "midi": 50,
            "name": "D3",
            "ticks": 29760,
            "time": 52.24716749999999,
            "velocity": 0.3937007874015748
          },
          {
            "duration": 1.348314000000002,
            "durationTicks": 768,
            "midi": 79,
            "name": "G5",
            "ticks": 29856,
            "time": 52.41570674999999,
            "velocity": 0.3937007874015748
          },
          {
            "duration": 1.348314000000002,
            "durationTicks": 768,
            "midi": 79,
            "name": "G5",
            "ticks": 29856,
            "time": 52.41570674999999,
            "velocity": 0.3937007874015748
          },
          {
            "duration": 1.348314000000002,
            "durationTicks": 768,
            "midi": 67,
            "name": "G4",
            "ticks": 29856,
            "time": 52.41570674999999,
            "velocity": 0.3937007874015748
          },
          {
            "duration": 1.348314000000002,
            "durationTicks": 768,
            "midi": 67,
            "name": "G4",
            "ticks": 29856,
            "time": 52.41570674999999,
            "velocity": 0.3937007874015748
          },
          {
            "duration": 0.33707849999999695,
            "durationTicks": 192,
            "midi": 51,
            "name": "D#3",
            "ticks": 29952,
            "time": 52.58424599999999,
            "velocity": 0.3937007874015748
          },
          {
            "duration": 0.33707849999999695,
            "durationTicks": 192,
            "midi": 39,
            "name": "D#2",
            "ticks": 29952,
            "time": 52.58424599999999,
            "velocity": 0.3937007874015748
          },
          {
            "duration": 0.33707850000000406,
            "durationTicks": 192,
            "midi": 40,
            "name": "E2",
            "ticks": 30144,
            "time": 52.92132449999999,
            "velocity": 0.3937007874015748
          },
          {
            "duration": 0.33707850000000406,
            "durationTicks": 192,
            "midi": 52,
            "name": "E3",
            "ticks": 30144,
            "time": 52.92132449999999,
            "velocity": 0.3937007874015748
          },
          {
            "duration": 0.33707849999999695,
            "durationTicks": 192,
            "midi": 58,
            "name": "A#3",
            "ticks": 30336,
            "time": 53.258402999999994,
            "velocity": 0.3937007874015748
          },
          {
            "duration": 0.33707849999999695,
            "durationTicks": 192,
            "midi": 46,
            "name": "A#2",
            "ticks": 30336,
            "time": 53.258402999999994,
            "velocity": 0.3937007874015748
          },
          {
            "duration": 0.33707850000000406,
            "durationTicks": 192,
            "midi": 36,
            "name": "C2",
            "ticks": 30528,
            "time": 53.59548149999999,
            "velocity": 0.3937007874015748
          },
          {
            "duration": 0.33707850000000406,
            "durationTicks": 192,
            "midi": 48,
            "name": "C3",
            "ticks": 30528,
            "time": 53.59548149999999,
            "velocity": 0.3937007874015748
          },
          {
            "duration": 0.33707849999999695,
            "durationTicks": 192,
            "midi": 68,
            "name": "G#4",
            "ticks": 30624,
            "time": 53.76402074999999,
            "velocity": 0.3937007874015748
          },
          {
            "duration": 0.33707849999999695,
            "durationTicks": 192,
            "midi": 80,
            "name": "G#5",
            "ticks": 30624,
            "time": 53.76402074999999,
            "velocity": 0.3937007874015748
          },
          {
            "duration": 0.33707849999999695,
            "durationTicks": 192,
            "midi": 80,
            "name": "G#5",
            "ticks": 30624,
            "time": 53.76402074999999,
            "velocity": 0.3937007874015748
          },
          {
            "duration": 0.33707849999999695,
            "durationTicks": 192,
            "midi": 68,
            "name": "G#4",
            "ticks": 30624,
            "time": 53.76402074999999,
            "velocity": 0.3937007874015748
          },
          {
            "duration": 0.33707849999999695,
            "durationTicks": 192,
            "midi": 41,
            "name": "F2",
            "ticks": 30720,
            "time": 53.932559999999995,
            "velocity": 0.3937007874015748
          },
          {
            "duration": 0.33707849999999695,
            "durationTicks": 192,
            "midi": 29,
            "name": "F1",
            "ticks": 30720,
            "time": 53.932559999999995,
            "velocity": 0.3937007874015748
          },
          {
            "duration": 0.16853925000000203,
            "durationTicks": 96,
            "midi": 79,
            "name": "G5",
            "ticks": 30816,
            "time": 54.10109924999999,
            "velocity": 0.3937007874015748
          },
          {
            "duration": 0.16853925000000203,
            "durationTicks": 96,
            "midi": 67,
            "name": "G4",
            "ticks": 30816,
            "time": 54.10109924999999,
            "velocity": 0.3937007874015748
          },
          {
            "duration": 0.16853925000000203,
            "durationTicks": 96,
            "midi": 67,
            "name": "G4",
            "ticks": 30816,
            "time": 54.10109924999999,
            "velocity": 0.3937007874015748
          },
          {
            "duration": 0.16853925000000203,
            "durationTicks": 96,
            "midi": 79,
            "name": "G5",
            "ticks": 30816,
            "time": 54.10109924999999,
            "velocity": 0.3937007874015748
          },
          {
            "duration": 0.33707849999999695,
            "durationTicks": 192,
            "midi": 32,
            "name": "G#1",
            "ticks": 30912,
            "time": 54.26963849999999,
            "velocity": 0.3937007874015748
          },
          {
            "duration": 0.674157000000001,
            "durationTicks": 384,
            "midi": 63,
            "name": "D#4",
            "ticks": 30912,
            "time": 54.26963849999999,
            "velocity": 0.3937007874015748
          },
          {
            "duration": 0.674157000000001,
            "durationTicks": 384,
            "midi": 75,
            "name": "D#5",
            "ticks": 30912,
            "time": 54.26963849999999,
            "velocity": 0.3937007874015748
          },
          {
            "duration": 0.674157000000001,
            "durationTicks": 384,
            "midi": 63,
            "name": "D#4",
            "ticks": 30912,
            "time": 54.26963849999999,
            "velocity": 0.3937007874015748
          },
          {
            "duration": 0.674157000000001,
            "durationTicks": 384,
            "midi": 75,
            "name": "D#5",
            "ticks": 30912,
            "time": 54.26963849999999,
            "velocity": 0.3937007874015748
          },
          {
            "duration": 0.33707849999999695,
            "durationTicks": 192,
            "midi": 44,
            "name": "G#2",
            "ticks": 30912,
            "time": 54.26963849999999,
            "velocity": 0.3937007874015748
          },
          {
            "duration": 0.33707850000000406,
            "durationTicks": 192,
            "midi": 51,
            "name": "D#3",
            "ticks": 31104,
            "time": 54.60671699999999,
            "velocity": 0.3937007874015748
          },
          {
            "duration": 0.33707850000000406,
            "durationTicks": 192,
            "midi": 39,
            "name": "D#2",
            "ticks": 31104,
            "time": 54.60671699999999,
            "velocity": 0.3937007874015748
          },
          {
            "duration": 0.33707849999999695,
            "durationTicks": 192,
            "midi": 36,
            "name": "C2",
            "ticks": 31296,
            "time": 54.94379549999999,
            "velocity": 0.3937007874015748
          },
          {
            "duration": 0.16853924999999492,
            "durationTicks": 96,
            "midi": 60,
            "name": "C4",
            "ticks": 31296,
            "time": 54.94379549999999,
            "velocity": 0.3937007874015748
          },
          {
            "duration": 0.16853924999999492,
            "durationTicks": 96,
            "midi": 72,
            "name": "C5",
            "ticks": 31296,
            "time": 54.94379549999999,
            "velocity": 0.3937007874015748
          },
          {
            "duration": 0.16853924999999492,
            "durationTicks": 96,
            "midi": 60,
            "name": "C4",
            "ticks": 31296,
            "time": 54.94379549999999,
            "velocity": 0.3937007874015748
          },
          {
            "duration": 0.16853924999999492,
            "durationTicks": 96,
            "midi": 72,
            "name": "C5",
            "ticks": 31296,
            "time": 54.94379549999999,
            "velocity": 0.3937007874015748
          },
          {
            "duration": 0.33707849999999695,
            "durationTicks": 192,
            "midi": 48,
            "name": "C3",
            "ticks": 31296,
            "time": 54.94379549999999,
            "velocity": 0.3937007874015748
          },
          {
            "duration": 0.33707850000000406,
            "durationTicks": 192,
            "midi": 58,
            "name": "A#3",
            "ticks": 31392,
            "time": 55.11233474999999,
            "velocity": 0.3937007874015748
          },
          {
            "duration": 0.33707850000000406,
            "durationTicks": 192,
            "midi": 70,
            "name": "A#4",
            "ticks": 31392,
            "time": 55.11233474999999,
            "velocity": 0.3937007874015748
          },
          {
            "duration": 0.33707850000000406,
            "durationTicks": 192,
            "midi": 58,
            "name": "A#3",
            "ticks": 31392,
            "time": 55.11233474999999,
            "velocity": 0.3937007874015748
          },
          {
            "duration": 0.33707850000000406,
            "durationTicks": 192,
            "midi": 70,
            "name": "A#4",
            "ticks": 31392,
            "time": 55.11233474999999,
            "velocity": 0.3937007874015748
          },
          {
            "duration": 0.33707850000000406,
            "durationTicks": 192,
            "midi": 27,
            "name": "D#1",
            "ticks": 31488,
            "time": 55.28087399999999,
            "velocity": 0.3937007874015748
          },
          {
            "duration": 0.33707850000000406,
            "durationTicks": 192,
            "midi": 39,
            "name": "D#2",
            "ticks": 31488,
            "time": 55.28087399999999,
            "velocity": 0.3937007874015748
          },
          {
            "duration": 0.16853925000000203,
            "durationTicks": 96,
            "midi": 63,
            "name": "D#4",
            "ticks": 31584,
            "time": 55.44941324999999,
            "velocity": 0.3937007874015748
          },
          {
            "duration": 0.16853925000000203,
            "durationTicks": 96,
            "midi": 75,
            "name": "D#5",
            "ticks": 31584,
            "time": 55.44941324999999,
            "velocity": 0.3937007874015748
          },
          {
            "duration": 0.16853925000000203,
            "durationTicks": 96,
            "midi": 75,
            "name": "D#5",
            "ticks": 31584,
            "time": 55.44941324999999,
            "velocity": 0.3937007874015748
          },
          {
            "duration": 0.16853925000000203,
            "durationTicks": 96,
            "midi": 63,
            "name": "D#4",
            "ticks": 31584,
            "time": 55.44941324999999,
            "velocity": 0.3937007874015748
          },
          {
            "duration": 0.33707849999999695,
            "durationTicks": 192,
            "midi": 72,
            "name": "C5",
            "ticks": 31680,
            "time": 55.617952499999994,
            "velocity": 0.3937007874015748
          },
          {
            "duration": 0.33707849999999695,
            "durationTicks": 192,
            "midi": 46,
            "name": "A#2",
            "ticks": 31680,
            "time": 55.617952499999994,
            "velocity": 0.3937007874015748
          },
          {
            "duration": 0.33707849999999695,
            "durationTicks": 192,
            "midi": 60,
            "name": "C4",
            "ticks": 31680,
            "time": 55.617952499999994,
            "velocity": 0.3937007874015748
          },
          {
            "duration": 0.33707849999999695,
            "durationTicks": 192,
            "midi": 60,
            "name": "C4",
            "ticks": 31680,
            "time": 55.617952499999994,
            "velocity": 0.3937007874015748
          },
          {
            "duration": 0.33707849999999695,
            "durationTicks": 192,
            "midi": 72,
            "name": "C5",
            "ticks": 31680,
            "time": 55.617952499999994,
            "velocity": 0.3937007874015748
          },
          {
            "duration": 0.33707849999999695,
            "durationTicks": 192,
            "midi": 34,
            "name": "A#1",
            "ticks": 31680,
            "time": 55.617952499999994,
            "velocity": 0.3937007874015748
          },
          {
            "duration": 0.16853925000000203,
            "durationTicks": 96,
            "midi": 70,
            "name": "A#4",
            "ticks": 31872,
            "time": 55.95503099999999,
            "velocity": 0.3937007874015748
          },
          {
            "duration": 0.16853925000000203,
            "durationTicks": 96,
            "midi": 58,
            "name": "A#3",
            "ticks": 31872,
            "time": 55.95503099999999,
            "velocity": 0.3937007874015748
          },
          {
            "duration": 0.33707849999999695,
            "durationTicks": 192,
            "midi": 39,
            "name": "D#2",
            "ticks": 31872,
            "time": 55.95503099999999,
            "velocity": 0.3937007874015748
          },
          {
            "duration": 0.16853925000000203,
            "durationTicks": 96,
            "midi": 70,
            "name": "A#4",
            "ticks": 31872,
            "time": 55.95503099999999,
            "velocity": 0.3937007874015748
          },
          {
            "duration": 0.16853925000000203,
            "durationTicks": 96,
            "midi": 58,
            "name": "A#3",
            "ticks": 31872,
            "time": 55.95503099999999,
            "velocity": 0.3937007874015748
          },
          {
            "duration": 0.33707849999999695,
            "durationTicks": 192,
            "midi": 51,
            "name": "D#3",
            "ticks": 31872,
            "time": 55.95503099999999,
            "velocity": 0.3937007874015748
          },
          {
            "duration": 0.505617749999999,
            "durationTicks": 288,
            "midi": 55,
            "name": "G3",
            "ticks": 31968,
            "time": 56.12357024999999,
            "velocity": 0.3937007874015748
          },
          {
            "duration": 0.505617749999999,
            "durationTicks": 288,
            "midi": 55,
            "name": "G3",
            "ticks": 31968,
            "time": 56.12357024999999,
            "velocity": 0.3937007874015748
          },
          {
            "duration": 0.505617749999999,
            "durationTicks": 288,
            "midi": 67,
            "name": "G4",
            "ticks": 31968,
            "time": 56.12357024999999,
            "velocity": 0.3937007874015748
          },
          {
            "duration": 0.505617749999999,
            "durationTicks": 288,
            "midi": 67,
            "name": "G4",
            "ticks": 31968,
            "time": 56.12357024999999,
            "velocity": 0.3937007874015748
          },
          {
            "duration": 0.33707850000000406,
            "durationTicks": 192,
            "midi": 34,
            "name": "A#1",
            "ticks": 32064,
            "time": 56.29210949999999,
            "velocity": 0.3937007874015748
          },
          {
            "duration": 0.33707850000000406,
            "durationTicks": 192,
            "midi": 46,
            "name": "A#2",
            "ticks": 32064,
            "time": 56.29210949999999,
            "velocity": 0.3937007874015748
          },
          {
            "duration": 0.33707849999999695,
            "durationTicks": 192,
            "midi": 53,
            "name": "F3",
            "ticks": 32256,
            "time": 56.62918799999999,
            "velocity": 0.3937007874015748
          },
          {
            "duration": 0.33707849999999695,
            "durationTicks": 192,
            "midi": 26,
            "name": "D1",
            "ticks": 32256,
            "time": 56.62918799999999,
            "velocity": 0.3937007874015748
          },
          {
            "duration": 0.33707849999999695,
            "durationTicks": 192,
            "midi": 65,
            "name": "F4",
            "ticks": 32256,
            "time": 56.62918799999999,
            "velocity": 0.3937007874015748
          },
          {
            "duration": 0.33707849999999695,
            "durationTicks": 192,
            "midi": 38,
            "name": "D2",
            "ticks": 32256,
            "time": 56.62918799999999,
            "velocity": 0.3937007874015748
          },
          {
            "duration": 0.33707849999999695,
            "durationTicks": 192,
            "midi": 65,
            "name": "F4",
            "ticks": 32256,
            "time": 56.62918799999999,
            "velocity": 0.3937007874015748
          },
          {
            "duration": 0.33707850000000406,
            "durationTicks": 192,
            "midi": 31,
            "name": "G1",
            "ticks": 32448,
            "time": 56.96626649999999,
            "velocity": 0.3937007874015748
          },
          {
            "duration": 0.16853925000000203,
            "durationTicks": 96,
            "midi": 75,
            "name": "D#5",
            "ticks": 32448,
            "time": 56.96626649999999,
            "velocity": 0.3937007874015748
          },
          {
            "duration": 0.16853925000000203,
            "durationTicks": 96,
            "midi": 63,
            "name": "D#4",
            "ticks": 32448,
            "time": 56.96626649999999,
            "velocity": 0.3937007874015748
          },
          {
            "duration": 0.33707850000000406,
            "durationTicks": 192,
            "midi": 43,
            "name": "G2",
            "ticks": 32448,
            "time": 56.96626649999999,
            "velocity": 0.3937007874015748
          },
          {
            "duration": 0.16853925000000203,
            "durationTicks": 96,
            "midi": 63,
            "name": "D#4",
            "ticks": 32448,
            "time": 56.96626649999999,
            "velocity": 0.3937007874015748
          },
          {
            "duration": 0.16853925000000203,
            "durationTicks": 96,
            "midi": 75,
            "name": "D#5",
            "ticks": 32448,
            "time": 56.96626649999999,
            "velocity": 0.3937007874015748
          },
          {
            "duration": 0.33707849999999695,
            "durationTicks": 192,
            "midi": 72,
            "name": "C5",
            "ticks": 32544,
            "time": 57.13480574999999,
            "velocity": 0.3937007874015748
          },
          {
            "duration": 0.33707849999999695,
            "durationTicks": 192,
            "midi": 60,
            "name": "C4",
            "ticks": 32544,
            "time": 57.13480574999999,
            "velocity": 0.3937007874015748
          },
          {
            "duration": 0.33707849999999695,
            "durationTicks": 192,
            "midi": 60,
            "name": "C4",
            "ticks": 32544,
            "time": 57.13480574999999,
            "velocity": 0.3937007874015748
          },
          {
            "duration": 0.33707849999999695,
            "durationTicks": 192,
            "midi": 72,
            "name": "C5",
            "ticks": 32544,
            "time": 57.13480574999999,
            "velocity": 0.3937007874015748
          },
          {
            "duration": 0.33707849999999695,
            "durationTicks": 192,
            "midi": 51,
            "name": "D#3",
            "ticks": 32640,
            "time": 57.30334499999999,
            "velocity": 0.3937007874015748
          },
          {
            "duration": 0.33707849999999695,
            "durationTicks": 192,
            "midi": 39,
            "name": "D#2",
            "ticks": 32640,
            "time": 57.30334499999999,
            "velocity": 0.3937007874015748
          },
          {
            "duration": 0.16853925000000203,
            "durationTicks": 96,
            "midi": 70,
            "name": "A#4",
            "ticks": 32736,
            "time": 57.47188424999999,
            "velocity": 0.3937007874015748
          },
          {
            "duration": 0.16853925000000203,
            "durationTicks": 96,
            "midi": 70,
            "name": "A#4",
            "ticks": 32736,
            "time": 57.47188424999999,
            "velocity": 0.3937007874015748
          },
          {
            "duration": 0.16853925000000203,
            "durationTicks": 96,
            "midi": 58,
            "name": "A#3",
            "ticks": 32736,
            "time": 57.47188424999999,
            "velocity": 0.3937007874015748
          },
          {
            "duration": 0.16853925000000203,
            "durationTicks": 96,
            "midi": 58,
            "name": "A#3",
            "ticks": 32736,
            "time": 57.47188424999999,
            "velocity": 0.3937007874015748
          },
          {
            "duration": 0.33707850000000406,
            "durationTicks": 192,
            "midi": 55,
            "name": "G3",
            "ticks": 32832,
            "time": 57.64042349999999,
            "velocity": 0.3937007874015748
          },
          {
            "duration": 0.33707850000000406,
            "durationTicks": 192,
            "midi": 67,
            "name": "G4",
            "ticks": 32832,
            "time": 57.64042349999999,
            "velocity": 0.3937007874015748
          },
          {
            "duration": 0.33707850000000406,
            "durationTicks": 192,
            "midi": 46,
            "name": "A#2",
            "ticks": 32832,
            "time": 57.64042349999999,
            "velocity": 0.3937007874015748
          },
          {
            "duration": 0.33707850000000406,
            "durationTicks": 192,
            "midi": 67,
            "name": "G4",
            "ticks": 32832,
            "time": 57.64042349999999,
            "velocity": 0.3937007874015748
          },
          {
            "duration": 0.33707850000000406,
            "durationTicks": 192,
            "midi": 55,
            "name": "G3",
            "ticks": 32832,
            "time": 57.64042349999999,
            "velocity": 0.3937007874015748
          },
          {
            "duration": 0.33707850000000406,
            "durationTicks": 192,
            "midi": 34,
            "name": "A#1",
            "ticks": 32832,
            "time": 57.64042349999999,
            "velocity": 0.3937007874015748
          },
          {
            "duration": 0.16853924999999492,
            "durationTicks": 96,
            "midi": 63,
            "name": "D#4",
            "ticks": 33024,
            "time": 57.977501999999994,
            "velocity": 0.3937007874015748
          },
          {
            "duration": 0.16853924999999492,
            "durationTicks": 96,
            "midi": 75,
            "name": "D#5",
            "ticks": 33024,
            "time": 57.977501999999994,
            "velocity": 0.3937007874015748
          },
          {
            "duration": 0.16853924999999492,
            "durationTicks": 96,
            "midi": 63,
            "name": "D#4",
            "ticks": 33024,
            "time": 57.977501999999994,
            "velocity": 0.3937007874015748
          },
          {
            "duration": 0.16853924999999492,
            "durationTicks": 96,
            "midi": 75,
            "name": "D#5",
            "ticks": 33024,
            "time": 57.977501999999994,
            "velocity": 0.3937007874015748
          },
          {
            "duration": 0.33707849999999695,
            "durationTicks": 192,
            "midi": 26,
            "name": "D1",
            "ticks": 33024,
            "time": 57.977501999999994,
            "velocity": 0.3937007874015748
          },
          {
            "duration": 0.33707849999999695,
            "durationTicks": 192,
            "midi": 38,
            "name": "D2",
            "ticks": 33024,
            "time": 57.977501999999994,
            "velocity": 0.3937007874015748
          },
          {
            "duration": 0.33707850000000406,
            "durationTicks": 192,
            "midi": 60,
            "name": "C4",
            "ticks": 33120,
            "time": 58.14604124999999,
            "velocity": 0.3937007874015748
          },
          {
            "duration": 0.33707850000000406,
            "durationTicks": 192,
            "midi": 72,
            "name": "C5",
            "ticks": 33120,
            "time": 58.14604124999999,
            "velocity": 0.3937007874015748
          },
          {
            "duration": 0.33707850000000406,
            "durationTicks": 192,
            "midi": 72,
            "name": "C5",
            "ticks": 33120,
            "time": 58.14604124999999,
            "velocity": 0.3937007874015748
          },
          {
            "duration": 0.33707850000000406,
            "durationTicks": 192,
            "midi": 60,
            "name": "C4",
            "ticks": 33120,
            "time": 58.14604124999999,
            "velocity": 0.3937007874015748
          },
          {
            "duration": 0.33707849999999695,
            "durationTicks": 192,
            "midi": 43,
            "name": "G2",
            "ticks": 33216,
            "time": 58.31458049999999,
            "velocity": 0.3937007874015748
          },
          {
            "duration": 0.33707849999999695,
            "durationTicks": 192,
            "midi": 31,
            "name": "G1",
            "ticks": 33216,
            "time": 58.31458049999999,
            "velocity": 0.3937007874015748
          },
          {
            "duration": 0.16853924999999492,
            "durationTicks": 96,
            "midi": 62,
            "name": "D4",
            "ticks": 33312,
            "time": 58.48311974999999,
            "velocity": 0.3937007874015748
          },
          {
            "duration": 0.16853924999999492,
            "durationTicks": 96,
            "midi": 74,
            "name": "D5",
            "ticks": 33312,
            "time": 58.48311974999999,
            "velocity": 0.3937007874015748
          },
          {
            "duration": 0.16853924999999492,
            "durationTicks": 96,
            "midi": 74,
            "name": "D5",
            "ticks": 33312,
            "time": 58.48311974999999,
            "velocity": 0.3937007874015748
          },
          {
            "duration": 0.16853924999999492,
            "durationTicks": 96,
            "midi": 62,
            "name": "D4",
            "ticks": 33312,
            "time": 58.48311974999999,
            "velocity": 0.3937007874015748
          },
          {
            "duration": 0.33707850000000406,
            "durationTicks": 192,
            "midi": 67,
            "name": "G4",
            "ticks": 33408,
            "time": 58.65165899999999,
            "velocity": 0.3937007874015748
          },
          {
            "duration": 0.33707850000000406,
            "durationTicks": 192,
            "midi": 79,
            "name": "G5",
            "ticks": 33408,
            "time": 58.65165899999999,
            "velocity": 0.3937007874015748
          },
          {
            "duration": 0.33707850000000406,
            "durationTicks": 192,
            "midi": 67,
            "name": "G4",
            "ticks": 33408,
            "time": 58.65165899999999,
            "velocity": 0.3937007874015748
          },
          {
            "duration": 0.33707850000000406,
            "durationTicks": 192,
            "midi": 50,
            "name": "D3",
            "ticks": 33408,
            "time": 58.65165899999999,
            "velocity": 0.3937007874015748
          },
          {
            "duration": 0.33707850000000406,
            "durationTicks": 192,
            "midi": 79,
            "name": "G5",
            "ticks": 33408,
            "time": 58.65165899999999,
            "velocity": 0.3937007874015748
          },
          {
            "duration": 0.33707850000000406,
            "durationTicks": 192,
            "midi": 38,
            "name": "D2",
            "ticks": 33408,
            "time": 58.65165899999999,
            "velocity": 0.3937007874015748
          },
          {
            "duration": 0.33707849999999695,
            "durationTicks": 192,
            "midi": 65,
            "name": "F4",
            "ticks": 33600,
            "time": 58.98873749999999,
            "velocity": 0.3937007874015748
          },
          {
            "duration": 0.33707849999999695,
            "durationTicks": 192,
            "midi": 77,
            "name": "F5",
            "ticks": 33600,
            "time": 58.98873749999999,
            "velocity": 0.3937007874015748
          },
          {
            "duration": 0.33707849999999695,
            "durationTicks": 192,
            "midi": 77,
            "name": "F5",
            "ticks": 33600,
            "time": 58.98873749999999,
            "velocity": 0.3937007874015748
          },
          {
            "duration": 0.33707849999999695,
            "durationTicks": 192,
            "midi": 47,
            "name": "B2",
            "ticks": 33600,
            "time": 58.98873749999999,
            "velocity": 0.3937007874015748
          },
          {
            "duration": 0.33707849999999695,
            "durationTicks": 192,
            "midi": 35,
            "name": "B1",
            "ticks": 33600,
            "time": 58.98873749999999,
            "velocity": 0.3937007874015748
          },
          {
            "duration": 0.33707849999999695,
            "durationTicks": 192,
            "midi": 65,
            "name": "F4",
            "ticks": 33600,
            "time": 58.98873749999999,
            "velocity": 0.3937007874015748
          },
          {
            "duration": 1.348314000000002,
            "durationTicks": 768,
            "midi": 67,
            "name": "G4",
            "ticks": 33792,
            "time": 59.32581599999999,
            "velocity": 0.3937007874015748
          },
          {
            "duration": 0.33707850000000406,
            "durationTicks": 192,
            "midi": 36,
            "name": "C2",
            "ticks": 33792,
            "time": 59.32581599999999,
            "velocity": 0.3937007874015748
          },
          {
            "duration": 1.348314000000002,
            "durationTicks": 768,
            "midi": 67,
            "name": "G4",
            "ticks": 33792,
            "time": 59.32581599999999,
            "velocity": 0.3937007874015748
          },
          {
            "duration": 1.348314000000002,
            "durationTicks": 768,
            "midi": 79,
            "name": "G5",
            "ticks": 33792,
            "time": 59.32581599999999,
            "velocity": 0.3937007874015748
          },
          {
            "duration": 1.348314000000002,
            "durationTicks": 768,
            "midi": 79,
            "name": "G5",
            "ticks": 33792,
            "time": 59.32581599999999,
            "velocity": 0.3937007874015748
          },
          {
            "duration": 0.33707850000000406,
            "durationTicks": 192,
            "midi": 24,
            "name": "C1",
            "ticks": 33792,
            "time": 59.32581599999999,
            "velocity": 0.3937007874015748
          },
          {
            "duration": 0.33707849999999695,
            "durationTicks": 192,
            "midi": 36,
            "name": "C2",
            "ticks": 33984,
            "time": 59.66289449999999,
            "velocity": 0.3937007874015748
          },
          {
            "duration": 0.33707849999999695,
            "durationTicks": 192,
            "midi": 48,
            "name": "C3",
            "ticks": 33984,
            "time": 59.66289449999999,
            "velocity": 0.3937007874015748
          },
          {
            "duration": 0.33707850000000406,
            "durationTicks": 192,
            "midi": 51,
            "name": "D#3",
            "ticks": 34176,
            "time": 59.99997299999999,
            "velocity": 0.3937007874015748
          },
          {
            "duration": 0.33707850000000406,
            "durationTicks": 192,
            "midi": 39,
            "name": "D#2",
            "ticks": 34176,
            "time": 59.99997299999999,
            "velocity": 0.3937007874015748
          },
          {
            "duration": 0.33707849999999695,
            "durationTicks": 192,
            "midi": 38,
            "name": "D2",
            "ticks": 34368,
            "time": 60.337051499999994,
            "velocity": 0.3937007874015748
          },
          {
            "duration": 0.33707849999999695,
            "durationTicks": 192,
            "midi": 50,
            "name": "D3",
            "ticks": 34368,
            "time": 60.337051499999994,
            "velocity": 0.3937007874015748
          },
          {
            "duration": 1.348314000000002,
            "durationTicks": 768,
            "midi": 70,
            "name": "A#4",
            "ticks": 34560,
            "time": 60.67412999999999,
            "velocity": 0.3937007874015748
          },
          {
            "duration": 1.348314000000002,
            "durationTicks": 768,
            "midi": 82,
            "name": "A#5",
            "ticks": 34560,
            "time": 60.67412999999999,
            "velocity": 0.3937007874015748
          },
          {
            "duration": 0.33707849999999695,
            "durationTicks": 192,
            "midi": 43,
            "name": "G2",
            "ticks": 34560,
            "time": 60.67412999999999,
            "velocity": 0.3937007874015748
          },
          {
            "duration": 0.33707849999999695,
            "durationTicks": 192,
            "midi": 31,
            "name": "G1",
            "ticks": 34560,
            "time": 60.67412999999999,
            "velocity": 0.3937007874015748
          },
          {
            "duration": 1.348314000000002,
            "durationTicks": 768,
            "midi": 82,
            "name": "A#5",
            "ticks": 34560,
            "time": 60.67412999999999,
            "velocity": 0.3937007874015748
          },
          {
            "duration": 1.348314000000002,
            "durationTicks": 768,
            "midi": 70,
            "name": "A#4",
            "ticks": 34560,
            "time": 60.67412999999999,
            "velocity": 0.3937007874015748
          },
          {
            "duration": 0.33707850000000406,
            "durationTicks": 192,
            "midi": 46,
            "name": "A#2",
            "ticks": 34752,
            "time": 61.01120849999999,
            "velocity": 0.3937007874015748
          },
          {
            "duration": 0.33707850000000406,
            "durationTicks": 192,
            "midi": 34,
            "name": "A#1",
            "ticks": 34752,
            "time": 61.01120849999999,
            "velocity": 0.3937007874015748
          },
          {
            "duration": 0.33707849999999695,
            "durationTicks": 192,
            "midi": 39,
            "name": "D#2",
            "ticks": 34944,
            "time": 61.34828699999999,
            "velocity": 0.3937007874015748
          },
          {
            "duration": 0.33707849999999695,
            "durationTicks": 192,
            "midi": 51,
            "name": "D#3",
            "ticks": 34944,
            "time": 61.34828699999999,
            "velocity": 0.3937007874015748
          },
          {
            "duration": 0.33707850000000406,
            "durationTicks": 192,
            "midi": 38,
            "name": "D2",
            "ticks": 35136,
            "time": 61.68536549999999,
            "velocity": 0.3937007874015748
          },
          {
            "duration": 0.33707850000000406,
            "durationTicks": 192,
            "midi": 50,
            "name": "D3",
            "ticks": 35136,
            "time": 61.68536549999999,
            "velocity": 0.3937007874015748
          },
          {
            "duration": 0.6741569999999939,
            "durationTicks": 384,
            "midi": 75,
            "name": "D#5",
            "ticks": 35328,
            "time": 62.02244399999999,
            "velocity": 0.3937007874015748
          },
          {
            "duration": 0.6741569999999939,
            "durationTicks": 384,
            "midi": 63,
            "name": "D#4",
            "ticks": 35328,
            "time": 62.02244399999999,
            "velocity": 0.3937007874015748
          },
          {
            "duration": 0.33707849999999695,
            "durationTicks": 192,
            "midi": 44,
            "name": "G#2",
            "ticks": 35328,
            "time": 62.02244399999999,
            "velocity": 0.3937007874015748
          },
          {
            "duration": 0.8426962499999959,
            "durationTicks": 480,
            "midi": 63,
            "name": "D#4",
            "ticks": 35328,
            "time": 62.02244399999999,
            "velocity": 0.3937007874015748
          },
          {
            "duration": 0.33707849999999695,
            "durationTicks": 192,
            "midi": 32,
            "name": "G#1",
            "ticks": 35328,
            "time": 62.02244399999999,
            "velocity": 0.3937007874015748
          },
          {
            "duration": 0.8426962499999959,
            "durationTicks": 480,
            "midi": 75,
            "name": "D#5",
            "ticks": 35328,
            "time": 62.02244399999999,
            "velocity": 0.3937007874015748
          },
          {
            "duration": 0.33707849999999695,
            "durationTicks": 192,
            "midi": 36,
            "name": "C2",
            "ticks": 35520,
            "time": 62.35952249999999,
            "velocity": 0.3937007874015748
          },
          {
            "duration": 0.33707849999999695,
            "durationTicks": 192,
            "midi": 48,
            "name": "C3",
            "ticks": 35520,
            "time": 62.35952249999999,
            "velocity": 0.3937007874015748
          },
          {
            "duration": 0.33707850000000406,
            "durationTicks": 192,
            "midi": 51,
            "name": "D#3",
            "ticks": 35712,
            "time": 62.69660099999999,
            "velocity": 0.3937007874015748
          },
          {
            "duration": 0.33707850000000406,
            "durationTicks": 192,
            "midi": 39,
            "name": "D#2",
            "ticks": 35712,
            "time": 62.69660099999999,
            "velocity": 0.3937007874015748
          },
          {
            "duration": 0.16853925000000203,
            "durationTicks": 96,
            "midi": 70,
            "name": "A#4",
            "ticks": 35808,
            "time": 62.86514024999999,
            "velocity": 0.3937007874015748
          },
          {
            "duration": 0.16853925000000203,
            "durationTicks": 96,
            "midi": 70,
            "name": "A#4",
            "ticks": 35808,
            "time": 62.86514024999999,
            "velocity": 0.3937007874015748
          },
          {
            "duration": 0.16853925000000203,
            "durationTicks": 96,
            "midi": 84,
            "name": "C6",
            "ticks": 35904,
            "time": 63.03367949999999,
            "velocity": 0.3937007874015748
          },
          {
            "duration": 0.33707849999999695,
            "durationTicks": 192,
            "midi": 38,
            "name": "D2",
            "ticks": 35904,
            "time": 63.03367949999999,
            "velocity": 0.3937007874015748
          },
          {
            "duration": 0.16853925000000203,
            "durationTicks": 96,
            "midi": 72,
            "name": "C5",
            "ticks": 35904,
            "time": 63.03367949999999,
            "velocity": 0.3937007874015748
          },
          {
            "duration": 0.33707849999999695,
            "durationTicks": 192,
            "midi": 50,
            "name": "D3",
            "ticks": 35904,
            "time": 63.03367949999999,
            "velocity": 0.3937007874015748
          },
          {
            "duration": 0.16853925000000203,
            "durationTicks": 96,
            "midi": 84,
            "name": "C6",
            "ticks": 35904,
            "time": 63.03367949999999,
            "velocity": 0.3937007874015748
          },
          {
            "duration": 0.16853925000000203,
            "durationTicks": 96,
            "midi": 72,
            "name": "C5",
            "ticks": 35904,
            "time": 63.03367949999999,
            "velocity": 0.3937007874015748
          },
          {
            "duration": 0.505617749999999,
            "durationTicks": 288,
            "midi": 70,
            "name": "A#4",
            "ticks": 36000,
            "time": 63.20221874999999,
            "velocity": 0.3937007874015748
          },
          {
            "duration": 0.505617749999999,
            "durationTicks": 288,
            "midi": 82,
            "name": "A#5",
            "ticks": 36000,
            "time": 63.20221874999999,
            "velocity": 0.3937007874015748
          },
          {
            "duration": 0.505617749999999,
            "durationTicks": 288,
            "midi": 82,
            "name": "A#5",
            "ticks": 36000,
            "time": 63.20221874999999,
            "velocity": 0.3937007874015748
          },
          {
            "duration": 0.505617749999999,
            "durationTicks": 288,
            "midi": 70,
            "name": "A#4",
            "ticks": 36000,
            "time": 63.20221874999999,
            "velocity": 0.3937007874015748
          },
          {
            "duration": 0.33707850000000406,
            "durationTicks": 192,
            "midi": 51,
            "name": "D#3",
            "ticks": 36096,
            "time": 63.37075799999999,
            "velocity": 0.3937007874015748
          },
          {
            "duration": 0.33707850000000406,
            "durationTicks": 192,
            "midi": 39,
            "name": "D#2",
            "ticks": 36096,
            "time": 63.37075799999999,
            "velocity": 0.3937007874015748
          },
          {
            "duration": 0.33707849999999695,
            "durationTicks": 192,
            "midi": 52,
            "name": "E3",
            "ticks": 36288,
            "time": 63.70783649999999,
            "velocity": 0.3937007874015748
          },
          {
            "duration": 0.33707849999999695,
            "durationTicks": 192,
            "midi": 67,
            "name": "G4",
            "ticks": 36288,
            "time": 63.70783649999999,
            "velocity": 0.3937007874015748
          },
          {
            "duration": 0.33707849999999695,
            "durationTicks": 192,
            "midi": 40,
            "name": "E2",
            "ticks": 36288,
            "time": 63.70783649999999,
            "velocity": 0.3937007874015748
          },
          {
            "duration": 0.674157000000001,
            "durationTicks": 384,
            "midi": 67,
            "name": "G4",
            "ticks": 36288,
            "time": 63.70783649999999,
            "velocity": 0.3937007874015748
          },
          {
            "duration": 0.33707849999999695,
            "durationTicks": 192,
            "midi": 79,
            "name": "G5",
            "ticks": 36288,
            "time": 63.70783649999999,
            "velocity": 0.3937007874015748
          },
          {
            "duration": 0.674157000000001,
            "durationTicks": 384,
            "midi": 79,
            "name": "G5",
            "ticks": 36288,
            "time": 63.70783649999999,
            "velocity": 0.3937007874015748
          },
          {
            "duration": 0.33707850000000406,
            "durationTicks": 192,
            "midi": 79,
            "name": "G5",
            "ticks": 36480,
            "time": 64.04491499999999,
            "velocity": 0.3937007874015748
          },
          {
            "duration": 0.33707850000000406,
            "durationTicks": 192,
            "midi": 46,
            "name": "A#2",
            "ticks": 36480,
            "time": 64.04491499999999,
            "velocity": 0.3937007874015748
          },
          {
            "duration": 0.33707850000000406,
            "durationTicks": 192,
            "midi": 58,
            "name": "A#3",
            "ticks": 36480,
            "time": 64.04491499999999,
            "velocity": 0.3937007874015748
          },
          {
            "duration": 0.33707850000000406,
            "durationTicks": 192,
            "midi": 67,
            "name": "G4",
            "ticks": 36480,
            "time": 64.04491499999999,
            "velocity": 0.3937007874015748
          },
          {
            "duration": 0.33707849999998984,
            "durationTicks": 192,
            "midi": 80,
            "name": "G#5",
            "ticks": 36672,
            "time": 64.3819935,
            "velocity": 0.3937007874015748
          },
          {
            "duration": 0.33707849999998984,
            "durationTicks": 192,
            "midi": 68,
            "name": "G#4",
            "ticks": 36672,
            "time": 64.3819935,
            "velocity": 0.3937007874015748
          },
          {
            "duration": 0.33707849999998984,
            "durationTicks": 192,
            "midi": 36,
            "name": "C2",
            "ticks": 36672,
            "time": 64.3819935,
            "velocity": 0.3937007874015748
          },
          {
            "duration": 0.33707849999998984,
            "durationTicks": 192,
            "midi": 80,
            "name": "G#5",
            "ticks": 36672,
            "time": 64.3819935,
            "velocity": 0.3937007874015748
          },
          {
            "duration": 0.33707849999998984,
            "durationTicks": 192,
            "midi": 48,
            "name": "C3",
            "ticks": 36672,
            "time": 64.3819935,
            "velocity": 0.3937007874015748
          },
          {
            "duration": 0.33707849999998984,
            "durationTicks": 192,
            "midi": 68,
            "name": "G#4",
            "ticks": 36672,
            "time": 64.3819935,
            "velocity": 0.3937007874015748
          },
          {
            "duration": 0.33707850000000406,
            "durationTicks": 192,
            "midi": 41,
            "name": "F2",
            "ticks": 36864,
            "time": 64.71907199999998,
            "velocity": 0.3937007874015748
          },
          {
            "duration": 0.6741570000000081,
            "durationTicks": 384,
            "midi": 65,
            "name": "F4",
            "ticks": 36864,
            "time": 64.71907199999998,
            "velocity": 0.3937007874015748
          },
          {
            "duration": 0.6741570000000081,
            "durationTicks": 384,
            "midi": 77,
            "name": "F5",
            "ticks": 36864,
            "time": 64.71907199999998,
            "velocity": 0.3937007874015748
          },
          {
            "duration": 0.33707850000000406,
            "durationTicks": 192,
            "midi": 29,
            "name": "F1",
            "ticks": 36864,
            "time": 64.71907199999998,
            "velocity": 0.3937007874015748
          },
          {
            "duration": 0.6741570000000081,
            "durationTicks": 384,
            "midi": 77,
            "name": "F5",
            "ticks": 36864,
            "time": 64.71907199999998,
            "velocity": 0.3937007874015748
          },
          {
            "duration": 0.6741570000000081,
            "durationTicks": 384,
            "midi": 65,
            "name": "F4",
            "ticks": 36864,
            "time": 64.71907199999998,
            "velocity": 0.3937007874015748
          },
          {
            "duration": 0.33707850000000406,
            "durationTicks": 192,
            "midi": 44,
            "name": "G#2",
            "ticks": 37056,
            "time": 65.05615049999999,
            "velocity": 0.3937007874015748
          },
          {
            "duration": 0.33707850000000406,
            "durationTicks": 192,
            "midi": 32,
            "name": "G#1",
            "ticks": 37056,
            "time": 65.05615049999999,
            "velocity": 0.3937007874015748
          },
          {
            "duration": 0.33707850000000406,
            "durationTicks": 192,
            "midi": 51,
            "name": "D#3",
            "ticks": 37248,
            "time": 65.39322899999999,
            "velocity": 0.3937007874015748
          },
          {
            "duration": 1.853931750000001,
            "durationTicks": 1056,
            "midi": 63,
            "name": "D#4",
            "ticks": 37248,
            "time": 65.39322899999999,
            "velocity": 0.3937007874015748
          },
          {
            "duration": 1.853931750000001,
            "durationTicks": 1056,
            "midi": 63,
            "name": "D#4",
            "ticks": 37248,
            "time": 65.39322899999999,
            "velocity": 0.3937007874015748
          },
          {
            "duration": 0.33707850000000406,
            "durationTicks": 192,
            "midi": 39,
            "name": "D#2",
            "ticks": 37248,
            "time": 65.39322899999999,
            "velocity": 0.3937007874015748
          },
          {
            "duration": 1.853931750000001,
            "durationTicks": 1056,
            "midi": 75,
            "name": "D#5",
            "ticks": 37248,
            "time": 65.39322899999999,
            "velocity": 0.3937007874015748
          },
          {
            "duration": 1.853931750000001,
            "durationTicks": 1056,
            "midi": 75,
            "name": "D#5",
            "ticks": 37248,
            "time": 65.39322899999999,
            "velocity": 0.3937007874015748
          },
          {
            "duration": 0.33707849999998984,
            "durationTicks": 192,
            "midi": 36,
            "name": "C2",
            "ticks": 37440,
            "time": 65.7303075,
            "velocity": 0.3937007874015748
          },
          {
            "duration": 0.33707849999998984,
            "durationTicks": 192,
            "midi": 48,
            "name": "C3",
            "ticks": 37440,
            "time": 65.7303075,
            "velocity": 0.3937007874015748
          },
          {
            "duration": 0.33707850000000406,
            "durationTicks": 192,
            "midi": 39,
            "name": "D#2",
            "ticks": 37632,
            "time": 66.06738599999998,
            "velocity": 0.3937007874015748
          },
          {
            "duration": 0.33707850000000406,
            "durationTicks": 192,
            "midi": 27,
            "name": "D#1",
            "ticks": 37632,
            "time": 66.06738599999998,
            "velocity": 0.3937007874015748
          },
          {
            "duration": 0.33707850000000406,
            "durationTicks": 192,
            "midi": 34,
            "name": "A#1",
            "ticks": 37824,
            "time": 66.40446449999999,
            "velocity": 0.3937007874015748
          },
          {
            "duration": 0.33707850000000406,
            "durationTicks": 192,
            "midi": 46,
            "name": "A#2",
            "ticks": 37824,
            "time": 66.40446449999999,
            "velocity": 0.3937007874015748
          },
          {
            "duration": 0.33707849999998984,
            "durationTicks": 192,
            "midi": 51,
            "name": "D#3",
            "ticks": 38016,
            "time": 66.741543,
            "velocity": 0.3937007874015748
          },
          {
            "duration": 0.33707849999998984,
            "durationTicks": 192,
            "midi": 39,
            "name": "D#2",
            "ticks": 38016,
            "time": 66.741543,
            "velocity": 0.3937007874015748
          },
          {
            "duration": 0.33707850000000406,
            "durationTicks": 192,
            "midi": 34,
            "name": "A#1",
            "ticks": 38208,
            "time": 67.07862149999998,
            "velocity": 0.3937007874015748
          },
          {
            "duration": 0.33707850000000406,
            "durationTicks": 192,
            "midi": 46,
            "name": "A#2",
            "ticks": 38208,
            "time": 67.07862149999998,
            "velocity": 0.3937007874015748
          },
          {
            "duration": 0.16853924999999492,
            "durationTicks": 96,
            "midi": 72,
            "name": "C5",
            "ticks": 38304,
            "time": 67.24716074999999,
            "velocity": 0.3937007874015748
          },
          {
            "duration": 0.16853924999999492,
            "durationTicks": 96,
            "midi": 60,
            "name": "C4",
            "ticks": 38304,
            "time": 67.24716074999999,
            "velocity": 0.3937007874015748
          },
          {
            "duration": 0.16853924999999492,
            "durationTicks": 96,
            "midi": 72,
            "name": "C5",
            "ticks": 38304,
            "time": 67.24716074999999,
            "velocity": 0.3937007874015748
          },
          {
            "duration": 0.16853924999999492,
            "durationTicks": 96,
            "midi": 60,
            "name": "C4",
            "ticks": 38304,
            "time": 67.24716074999999,
            "velocity": 0.3937007874015748
          },
          {
            "duration": 0.33707850000000406,
            "durationTicks": 192,
            "midi": 26,
            "name": "D1",
            "ticks": 38400,
            "time": 67.41569999999999,
            "velocity": 0.3937007874015748
          },
          {
            "duration": 0.33707850000000406,
            "durationTicks": 192,
            "midi": 63,
            "name": "D#4",
            "ticks": 38400,
            "time": 67.41569999999999,
            "velocity": 0.3937007874015748
          },
          {
            "duration": 0.33707850000000406,
            "durationTicks": 192,
            "midi": 75,
            "name": "D#5",
            "ticks": 38400,
            "time": 67.41569999999999,
            "velocity": 0.3937007874015748
          },
          {
            "duration": 0.33707850000000406,
            "durationTicks": 192,
            "midi": 38,
            "name": "D2",
            "ticks": 38400,
            "time": 67.41569999999999,
            "velocity": 0.3937007874015748
          },
          {
            "duration": 0.6741570000000081,
            "durationTicks": 384,
            "midi": 75,
            "name": "D#5",
            "ticks": 38400,
            "time": 67.41569999999999,
            "velocity": 0.3937007874015748
          },
          {
            "duration": 0.6741570000000081,
            "durationTicks": 384,
            "midi": 63,
            "name": "D#4",
            "ticks": 38400,
            "time": 67.41569999999999,
            "velocity": 0.3937007874015748
          },
          {
            "duration": 0.33707850000000406,
            "durationTicks": 192,
            "midi": 43,
            "name": "G2",
            "ticks": 38592,
            "time": 67.75277849999999,
            "velocity": 0.3937007874015748
          },
          {
            "duration": 0.505617749999999,
            "durationTicks": 288,
            "midi": 75,
            "name": "D#5",
            "ticks": 38592,
            "time": 67.75277849999999,
            "velocity": 0.3937007874015748
          },
          {
            "duration": 0.33707850000000406,
            "durationTicks": 192,
            "midi": 31,
            "name": "G1",
            "ticks": 38592,
            "time": 67.75277849999999,
            "velocity": 0.3937007874015748
          },
          {
            "duration": 0.505617749999999,
            "durationTicks": 288,
            "midi": 63,
            "name": "D#4",
            "ticks": 38592,
            "time": 67.75277849999999,
            "velocity": 0.3937007874015748
          },
          {
            "duration": 0.33707849999998984,
            "durationTicks": 192,
            "midi": 51,
            "name": "D#3",
            "ticks": 38784,
            "time": 68.089857,
            "velocity": 0.3937007874015748
          },
          {
            "duration": 0.16853924999999492,
            "durationTicks": 96,
            "midi": 75,
            "name": "D#5",
            "ticks": 38784,
            "time": 68.089857,
            "velocity": 0.3937007874015748
          },
          {
            "duration": 0.16853924999999492,
            "durationTicks": 96,
            "midi": 63,
            "name": "D#4",
            "ticks": 38784,
            "time": 68.089857,
            "velocity": 0.3937007874015748
          },
          {
            "duration": 0.33707849999998984,
            "durationTicks": 192,
            "midi": 39,
            "name": "D#2",
            "ticks": 38784,
            "time": 68.089857,
            "velocity": 0.3937007874015748
          },
          {
            "duration": 0.33707850000000406,
            "durationTicks": 192,
            "midi": 65,
            "name": "F4",
            "ticks": 38880,
            "time": 68.25839624999999,
            "velocity": 0.3937007874015748
          },
          {
            "duration": 0.33707850000000406,
            "durationTicks": 192,
            "midi": 65,
            "name": "F4",
            "ticks": 38880,
            "time": 68.25839624999999,
            "velocity": 0.3937007874015748
          },
          {
            "duration": 0.33707850000000406,
            "durationTicks": 192,
            "midi": 77,
            "name": "F5",
            "ticks": 38880,
            "time": 68.25839624999999,
            "velocity": 0.3937007874015748
          },
          {
            "duration": 0.33707850000000406,
            "durationTicks": 192,
            "midi": 77,
            "name": "F5",
            "ticks": 38880,
            "time": 68.25839624999999,
            "velocity": 0.3937007874015748
          },
          {
            "duration": 0.33707850000000406,
            "durationTicks": 192,
            "midi": 46,
            "name": "A#2",
            "ticks": 38976,
            "time": 68.42693549999998,
            "velocity": 0.3937007874015748
          },
          {
            "duration": 0.33707850000000406,
            "durationTicks": 192,
            "midi": 34,
            "name": "A#1",
            "ticks": 38976,
            "time": 68.42693549999998,
            "velocity": 0.3937007874015748
          },
          {
            "duration": 0.505617749999999,
            "durationTicks": 288,
            "midi": 62,
            "name": "D4",
            "ticks": 39072,
            "time": 68.59547475,
            "velocity": 0.3937007874015748
          },
          {
            "duration": 0.505617749999999,
            "durationTicks": 288,
            "midi": 74,
            "name": "D5",
            "ticks": 39072,
            "time": 68.59547475,
            "velocity": 0.3937007874015748
          },
          {
            "duration": 0.505617749999999,
            "durationTicks": 288,
            "midi": 62,
            "name": "D4",
            "ticks": 39072,
            "time": 68.59547475,
            "velocity": 0.3937007874015748
          },
          {
            "duration": 0.505617749999999,
            "durationTicks": 288,
            "midi": 74,
            "name": "D5",
            "ticks": 39072,
            "time": 68.59547475,
            "velocity": 0.3937007874015748
          },
          {
            "duration": 0.6741569999999939,
            "durationTicks": 384,
            "midi": 26,
            "name": "D1",
            "ticks": 39168,
            "time": 68.76401399999999,
            "velocity": 0.3937007874015748
          },
          {
            "duration": 0.6741569999999939,
            "durationTicks": 384,
            "midi": 38,
            "name": "D2",
            "ticks": 39168,
            "time": 68.76401399999999,
            "velocity": 0.3937007874015748
          },
          {
            "duration": 0.33707849999998984,
            "durationTicks": 192,
            "midi": 67,
            "name": "G4",
            "ticks": 39360,
            "time": 69.1010925,
            "velocity": 0.3937007874015748
          },
          {
            "duration": 0.33707849999998984,
            "durationTicks": 192,
            "midi": 79,
            "name": "G5",
            "ticks": 39360,
            "time": 69.1010925,
            "velocity": 0.3937007874015748
          },
          {
            "duration": 0.6741569999999939,
            "durationTicks": 384,
            "midi": 79,
            "name": "G5",
            "ticks": 39360,
            "time": 69.1010925,
            "velocity": 0.3937007874015748
          },
          {
            "duration": 0.6741569999999939,
            "durationTicks": 384,
            "midi": 67,
            "name": "G4",
            "ticks": 39360,
            "time": 69.1010925,
            "velocity": 0.3937007874015748
          },
          {
            "duration": 0.33707850000000406,
            "durationTicks": 192,
            "midi": 67,
            "name": "G4",
            "ticks": 39552,
            "time": 69.43817099999998,
            "velocity": 0.3937007874015748
          },
          {
            "duration": 0.6741570000000081,
            "durationTicks": 384,
            "midi": 43,
            "name": "G2",
            "ticks": 39552,
            "time": 69.43817099999998,
            "velocity": 0.3937007874015748
          },
          {
            "duration": 0.6741570000000081,
            "durationTicks": 384,
            "midi": 31,
            "name": "G1",
            "ticks": 39552,
            "time": 69.43817099999998,
            "velocity": 0.3937007874015748
          },
          {
            "duration": 0.33707850000000406,
            "durationTicks": 192,
            "midi": 79,
            "name": "G5",
            "ticks": 39552,
            "time": 69.43817099999998,
            "velocity": 0.3937007874015748
          },
          {
            "duration": 0.33707850000000406,
            "durationTicks": 192,
            "midi": 68,
            "name": "G#4",
            "ticks": 39744,
            "time": 69.77524949999999,
            "velocity": 0.3937007874015748
          },
          {
            "duration": 0.33707850000000406,
            "durationTicks": 192,
            "midi": 68,
            "name": "G#4",
            "ticks": 39744,
            "time": 69.77524949999999,
            "velocity": 0.3937007874015748
          },
          {
            "duration": 0.33707850000000406,
            "durationTicks": 192,
            "midi": 80,
            "name": "G#5",
            "ticks": 39744,
            "time": 69.77524949999999,
            "velocity": 0.3937007874015748
          },
          {
            "duration": 0.33707850000000406,
            "durationTicks": 192,
            "midi": 80,
            "name": "G#5",
            "ticks": 39744,
            "time": 69.77524949999999,
            "velocity": 0.3937007874015748
          },
          {
            "duration": 0.33707850000000406,
            "durationTicks": 192,
            "midi": 36,
            "name": "C2",
            "ticks": 39936,
            "time": 70.11232799999999,
            "velocity": 0.3937007874015748
          },
          {
            "duration": 0.33707850000000406,
            "durationTicks": 192,
            "midi": 48,
            "name": "C3",
            "ticks": 39936,
            "time": 70.11232799999999,
            "velocity": 0.3937007874015748
          },
          {
            "duration": 0.16853924999999492,
            "durationTicks": 96,
            "midi": 63,
            "name": "D#4",
            "ticks": 39936,
            "time": 70.11232799999999,
            "velocity": 0.3937007874015748
          },
          {
            "duration": 0.16853924999999492,
            "durationTicks": 96,
            "midi": 63,
            "name": "D#4",
            "ticks": 39936,
            "time": 70.11232799999999,
            "velocity": 0.3937007874015748
          },
          {
            "duration": 0.16853925000000913,
            "durationTicks": 96,
            "midi": 62,
            "name": "D4",
            "ticks": 40032,
            "time": 70.28086724999999,
            "velocity": 0.3937007874015748
          },
          {
            "duration": 0.16853925000000913,
            "durationTicks": 96,
            "midi": 62,
            "name": "D4",
            "ticks": 40032,
            "time": 70.28086724999999,
            "velocity": 0.3937007874015748
          },
          {
            "duration": 0.33707849999998984,
            "durationTicks": 192,
            "midi": 43,
            "name": "G2",
            "ticks": 40128,
            "time": 70.4494065,
            "velocity": 0.3937007874015748
          },
          {
            "duration": 0.33707849999998984,
            "durationTicks": 192,
            "midi": 60,
            "name": "C4",
            "ticks": 40128,
            "time": 70.4494065,
            "velocity": 0.3937007874015748
          },
          {
            "duration": 0.505617749999999,
            "durationTicks": 288,
            "midi": 60,
            "name": "C4",
            "ticks": 40128,
            "time": 70.4494065,
            "velocity": 0.3937007874015748
          },
          {
            "duration": 0.16853925000000913,
            "durationTicks": 96,
            "midi": 60,
            "name": "C4",
            "ticks": 40320,
            "time": 70.78648499999998,
            "velocity": 0.3937007874015748
          },
          {
            "duration": 0.16853925000000913,
            "durationTicks": 96,
            "midi": 36,
            "name": "C2",
            "ticks": 40320,
            "time": 70.78648499999998,
            "velocity": 0.3937007874015748
          },
          {
            "duration": 0.16853924999999492,
            "durationTicks": 96,
            "midi": 36,
            "name": "C2",
            "ticks": 40416,
            "time": 70.95502425,
            "velocity": 0.3937007874015748
          },
          {
            "duration": 0.16853924999999492,
            "durationTicks": 96,
            "midi": 62,
            "name": "D4",
            "ticks": 40416,
            "time": 70.95502425,
            "velocity": 0.3937007874015748
          },
          {
            "duration": 0.16853924999999492,
            "durationTicks": 96,
            "midi": 62,
            "name": "D4",
            "ticks": 40416,
            "time": 70.95502425,
            "velocity": 0.3937007874015748
          },
          {
            "duration": 0.16853924999999492,
            "durationTicks": 96,
            "midi": 63,
            "name": "D#4",
            "ticks": 40512,
            "time": 71.12356349999999,
            "velocity": 0.3937007874015748
          },
          {
            "duration": 0.33707850000000406,
            "durationTicks": 192,
            "midi": 36,
            "name": "C2",
            "ticks": 40512,
            "time": 71.12356349999999,
            "velocity": 0.3937007874015748
          },
          {
            "duration": 0.16853924999999492,
            "durationTicks": 96,
            "midi": 63,
            "name": "D#4",
            "ticks": 40512,
            "time": 71.12356349999999,
            "velocity": 0.3937007874015748
          },
          {
            "duration": 0.16853925000000913,
            "durationTicks": 96,
            "midi": 62,
            "name": "D4",
            "ticks": 40608,
            "time": 71.29210274999998,
            "velocity": 0.3937007874015748
          },
          {
            "duration": 0.16853925000000913,
            "durationTicks": 96,
            "midi": 62,
            "name": "D4",
            "ticks": 40608,
            "time": 71.29210274999998,
            "velocity": 0.3937007874015748
          },
          {
            "duration": 0.16853924999999492,
            "durationTicks": 96,
            "midi": 60,
            "name": "C4",
            "ticks": 40704,
            "time": 71.46064199999999,
            "velocity": 0.3937007874015748
          },
          {
            "duration": 0.33707849999998984,
            "durationTicks": 192,
            "midi": 36,
            "name": "C2",
            "ticks": 40704,
            "time": 71.46064199999999,
            "velocity": 0.3937007874015748
          },
          {
            "duration": 0.33707849999998984,
            "durationTicks": 192,
            "midi": 48,
            "name": "C3",
            "ticks": 40704,
            "time": 71.46064199999999,
            "velocity": 0.3937007874015748
          },
          {
            "duration": 0.16853924999999492,
            "durationTicks": 96,
            "midi": 60,
            "name": "C4",
            "ticks": 40704,
            "time": 71.46064199999999,
            "velocity": 0.3937007874015748
          },
          {
            "duration": 0.16853924999999492,
            "durationTicks": 96,
            "midi": 63,
            "name": "D#4",
            "ticks": 40800,
            "time": 71.62918124999999,
            "velocity": 0.3937007874015748
          },
          {
            "duration": 0.16853924999999492,
            "durationTicks": 96,
            "midi": 63,
            "name": "D#4",
            "ticks": 40800,
            "time": 71.62918124999999,
            "velocity": 0.3937007874015748
          },
          {
            "duration": 0.33707850000000406,
            "durationTicks": 192,
            "midi": 67,
            "name": "G4",
            "ticks": 40896,
            "time": 71.79772049999998,
            "velocity": 0.3937007874015748
          },
          {
            "duration": 0.33707850000000406,
            "durationTicks": 192,
            "midi": 43,
            "name": "G2",
            "ticks": 40896,
            "time": 71.79772049999998,
            "velocity": 0.3937007874015748
          },
          {
            "duration": 0.505617749999999,
            "durationTicks": 288,
            "midi": 67,
            "name": "G4",
            "ticks": 40896,
            "time": 71.79772049999998,
            "velocity": 0.3937007874015748
          },
          {
            "duration": 0.33707850000000406,
            "durationTicks": 192,
            "midi": 39,
            "name": "D#2",
            "ticks": 41088,
            "time": 72.13479899999999,
            "velocity": 0.3937007874015748
          },
          {
            "duration": 0.16853925000000913,
            "durationTicks": 96,
            "midi": 60,
            "name": "C4",
            "ticks": 41184,
            "time": 72.30333824999998,
            "velocity": 0.3937007874015748
          },
          {
            "duration": 0.16853925000000913,
            "durationTicks": 96,
            "midi": 60,
            "name": "C4",
            "ticks": 41184,
            "time": 72.30333824999998,
            "velocity": 0.3937007874015748
          },
          {
            "duration": 0.16853924999999492,
            "durationTicks": 96,
            "midi": 63,
            "name": "D#4",
            "ticks": 41280,
            "time": 72.47187749999999,
            "velocity": 0.3937007874015748
          },
          {
            "duration": 0.16853924999999492,
            "durationTicks": 96,
            "midi": 63,
            "name": "D#4",
            "ticks": 41280,
            "time": 72.47187749999999,
            "velocity": 0.3937007874015748
          },
          {
            "duration": 0.33707850000000406,
            "durationTicks": 192,
            "midi": 43,
            "name": "G2",
            "ticks": 41280,
            "time": 72.47187749999999,
            "velocity": 0.3937007874015748
          },
          {
            "duration": 0.16853925000000913,
            "durationTicks": 96,
            "midi": 67,
            "name": "G4",
            "ticks": 41376,
            "time": 72.64041674999999,
            "velocity": 0.3937007874015748
          },
          {
            "duration": 0.16853925000000913,
            "durationTicks": 96,
            "midi": 67,
            "name": "G4",
            "ticks": 41376,
            "time": 72.64041674999999,
            "velocity": 0.3937007874015748
          },
          {
            "duration": 0.33707849999998984,
            "durationTicks": 192,
            "midi": 53,
            "name": "F3",
            "ticks": 41472,
            "time": 72.808956,
            "velocity": 0.3937007874015748
          },
          {
            "duration": 0.33707849999998984,
            "durationTicks": 192,
            "midi": 41,
            "name": "F2",
            "ticks": 41472,
            "time": 72.808956,
            "velocity": 0.3937007874015748
          },
          {
            "duration": 0.16853924999999492,
            "durationTicks": 96,
            "midi": 68,
            "name": "G#4",
            "ticks": 41472,
            "time": 72.808956,
            "velocity": 0.3937007874015748
          },
          {
            "duration": 0.16853924999999492,
            "durationTicks": 96,
            "midi": 68,
            "name": "G#4",
            "ticks": 41472,
            "time": 72.808956,
            "velocity": 0.3937007874015748
          },
          {
            "duration": 0.16853924999999492,
            "durationTicks": 96,
            "midi": 67,
            "name": "G4",
            "ticks": 41568,
            "time": 72.97749524999999,
            "velocity": 0.3937007874015748
          },
          {
            "duration": 0.16853924999999492,
            "durationTicks": 96,
            "midi": 67,
            "name": "G4",
            "ticks": 41568,
            "time": 72.97749524999999,
            "velocity": 0.3937007874015748
          },
          {
            "duration": 0.16853925000000913,
            "durationTicks": 96,
            "midi": 65,
            "name": "F4",
            "ticks": 41664,
            "time": 73.14603449999998,
            "velocity": 0.3937007874015748
          },
          {
            "duration": 0.16853925000000913,
            "durationTicks": 96,
            "midi": 65,
            "name": "F4",
            "ticks": 41664,
            "time": 73.14603449999998,
            "velocity": 0.3937007874015748
          },
          {
            "duration": 0.33707850000000406,
            "durationTicks": 192,
            "midi": 48,
            "name": "C3",
            "ticks": 41664,
            "time": 73.14603449999998,
            "velocity": 0.3937007874015748
          },
          {
            "duration": 0.16853924999999492,
            "durationTicks": 96,
            "midi": 63,
            "name": "D#4",
            "ticks": 41760,
            "time": 73.31457375,
            "velocity": 0.3937007874015748
          },
          {
            "duration": 0.16853924999999492,
            "durationTicks": 96,
            "midi": 63,
            "name": "D#4",
            "ticks": 41760,
            "time": 73.31457375,
            "velocity": 0.3937007874015748
          },
          {
            "duration": 0.16853924999999492,
            "durationTicks": 96,
            "midi": 44,
            "name": "G#2",
            "ticks": 41856,
            "time": 73.48311299999999,
            "velocity": 0.3937007874015748
          },
          {
            "duration": 0.16853924999999492,
            "durationTicks": 96,
            "midi": 62,
            "name": "D4",
            "ticks": 41856,
            "time": 73.48311299999999,
            "velocity": 0.3937007874015748
          },
          {
            "duration": 0.16853924999999492,
            "durationTicks": 96,
            "midi": 62,
            "name": "D4",
            "ticks": 41856,
            "time": 73.48311299999999,
            "velocity": 0.3937007874015748
          },
          {
            "duration": 0.16853925000000913,
            "durationTicks": 96,
            "midi": 63,
            "name": "D#4",
            "ticks": 41952,
            "time": 73.65165224999998,
            "velocity": 0.3937007874015748
          },
          {
            "duration": 0.16853925000000913,
            "durationTicks": 96,
            "midi": 63,
            "name": "D#4",
            "ticks": 41952,
            "time": 73.65165224999998,
            "velocity": 0.3937007874015748
          },
          {
            "duration": 0.16853925000000913,
            "durationTicks": 96,
            "midi": 44,
            "name": "G#2",
            "ticks": 41952,
            "time": 73.65165224999998,
            "velocity": 0.3937007874015748
          },
          {
            "duration": 0.33707849999998984,
            "durationTicks": 192,
            "midi": 46,
            "name": "A#2",
            "ticks": 42048,
            "time": 73.82019149999999,
            "velocity": 0.3937007874015748
          },
          {
            "duration": 0.16853924999999492,
            "durationTicks": 96,
            "midi": 65,
            "name": "F4",
            "ticks": 42048,
            "time": 73.82019149999999,
            "velocity": 0.3937007874015748
          },
          {
            "duration": 0.16853924999999492,
            "durationTicks": 96,
            "midi": 65,
            "name": "F4",
            "ticks": 42048,
            "time": 73.82019149999999,
            "velocity": 0.3937007874015748
          },
          {
            "duration": 0.16853924999999492,
            "durationTicks": 96,
            "midi": 67,
            "name": "G4",
            "ticks": 42144,
            "time": 73.98873074999999,
            "velocity": 0.3937007874015748
          },
          {
            "duration": 0.16853924999999492,
            "durationTicks": 96,
            "midi": 67,
            "name": "G4",
            "ticks": 42144,
            "time": 73.98873074999999,
            "velocity": 0.3937007874015748
          },
          {
            "duration": 0.6741570000000081,
            "durationTicks": 384,
            "midi": 63,
            "name": "D#4",
            "ticks": 42240,
            "time": 74.15726999999998,
            "velocity": 0.3937007874015748
          },
          {
            "duration": 0.33707850000000406,
            "durationTicks": 192,
            "midi": 51,
            "name": "D#3",
            "ticks": 42240,
            "time": 74.15726999999998,
            "velocity": 0.3937007874015748
          },
          {
            "duration": 0.33707850000000406,
            "durationTicks": 192,
            "midi": 39,
            "name": "D#2",
            "ticks": 42240,
            "time": 74.15726999999998,
            "velocity": 0.3937007874015748
          },
          {
            "duration": 0.842696250000003,
            "durationTicks": 480,
            "midi": 63,
            "name": "D#4",
            "ticks": 42240,
            "time": 74.15726999999998,
            "velocity": 0.3937007874015748
          },
          {
            "duration": 0.33707850000000406,
            "durationTicks": 192,
            "midi": 46,
            "name": "A#2",
            "ticks": 42432,
            "time": 74.49434849999999,
            "velocity": 0.3937007874015748
          },
          {
            "duration": 0.16853924999999492,
            "durationTicks": 96,
            "midi": 51,
            "name": "D#3",
            "ticks": 42624,
            "time": 74.83142699999999,
            "velocity": 0.3937007874015748
          },
          {
            "duration": 0.16853925000000913,
            "durationTicks": 96,
            "midi": 60,
            "name": "C4",
            "ticks": 42720,
            "time": 74.99996624999999,
            "velocity": 0.3937007874015748
          },
          {
            "duration": 0.16853925000000913,
            "durationTicks": 96,
            "midi": 46,
            "name": "A#2",
            "ticks": 42720,
            "time": 74.99996624999999,
            "velocity": 0.3937007874015748
          },
          {
            "duration": 0.16853925000000913,
            "durationTicks": 96,
            "midi": 60,
            "name": "C4",
            "ticks": 42720,
            "time": 74.99996624999999,
            "velocity": 0.3937007874015748
          },
          {
            "duration": 0.16853924999999492,
            "durationTicks": 96,
            "midi": 48,
            "name": "C3",
            "ticks": 42816,
            "time": 75.1685055,
            "velocity": 0.3937007874015748
          },
          {
            "duration": 0.16853924999999492,
            "durationTicks": 96,
            "midi": 63,
            "name": "D#4",
            "ticks": 42816,
            "time": 75.1685055,
            "velocity": 0.3937007874015748
          },
          {
            "duration": 0.16853924999999492,
            "durationTicks": 96,
            "midi": 63,
            "name": "D#4",
            "ticks": 42816,
            "time": 75.1685055,
            "velocity": 0.3937007874015748
          },
          {
            "duration": 0.16853924999999492,
            "durationTicks": 96,
            "midi": 43,
            "name": "G2",
            "ticks": 42912,
            "time": 75.33704474999999,
            "velocity": 0.3937007874015748
          },
          {
            "duration": 0.16853924999999492,
            "durationTicks": 96,
            "midi": 67,
            "name": "G4",
            "ticks": 42912,
            "time": 75.33704474999999,
            "velocity": 0.3937007874015748
          },
          {
            "duration": 0.16853924999999492,
            "durationTicks": 96,
            "midi": 67,
            "name": "G4",
            "ticks": 42912,
            "time": 75.33704474999999,
            "velocity": 0.3937007874015748
          },
          {
            "duration": 0.33707850000000406,
            "durationTicks": 192,
            "midi": 53,
            "name": "F3",
            "ticks": 43008,
            "time": 75.50558399999998,
            "velocity": 0.3937007874015748
          },
          {
            "duration": 0.16853925000000913,
            "durationTicks": 96,
            "midi": 68,
            "name": "G#4",
            "ticks": 43008,
            "time": 75.50558399999998,
            "velocity": 0.3937007874015748
          },
          {
            "duration": 0.16853925000000913,
            "durationTicks": 96,
            "midi": 68,
            "name": "G#4",
            "ticks": 43008,
            "time": 75.50558399999998,
            "velocity": 0.3937007874015748
          },
          {
            "duration": 0.33707850000000406,
            "durationTicks": 192,
            "midi": 41,
            "name": "F2",
            "ticks": 43008,
            "time": 75.50558399999998,
            "velocity": 0.3937007874015748
          },
          {
            "duration": 0.16853924999999492,
            "durationTicks": 96,
            "midi": 67,
            "name": "G4",
            "ticks": 43104,
            "time": 75.67412325,
            "velocity": 0.3937007874015748
          },
          {
            "duration": 0.16853924999999492,
            "durationTicks": 96,
            "midi": 67,
            "name": "G4",
            "ticks": 43104,
            "time": 75.67412325,
            "velocity": 0.3937007874015748
          },
          {
            "duration": 0.33707850000000406,
            "durationTicks": 192,
            "midi": 48,
            "name": "C3",
            "ticks": 43200,
            "time": 75.84266249999999,
            "velocity": 0.3937007874015748
          },
          {
            "duration": 0.16853924999999492,
            "durationTicks": 96,
            "midi": 65,
            "name": "F4",
            "ticks": 43200,
            "time": 75.84266249999999,
            "velocity": 0.3937007874015748
          },
          {
            "duration": 0.16853924999999492,
            "durationTicks": 96,
            "midi": 65,
            "name": "F4",
            "ticks": 43200,
            "time": 75.84266249999999,
            "velocity": 0.3937007874015748
          },
          {
            "duration": 0.16853925000000913,
            "durationTicks": 96,
            "midi": 63,
            "name": "D#4",
            "ticks": 43296,
            "time": 76.01120174999998,
            "velocity": 0.3937007874015748
          },
          {
            "duration": 0.16853925000000913,
            "durationTicks": 96,
            "midi": 63,
            "name": "D#4",
            "ticks": 43296,
            "time": 76.01120174999998,
            "velocity": 0.3937007874015748
          },
          {
            "duration": 0.16853924999999492,
            "durationTicks": 96,
            "midi": 62,
            "name": "D4",
            "ticks": 43392,
            "time": 76.17974099999999,
            "velocity": 0.3937007874015748
          },
          {
            "duration": 0.16853924999999492,
            "durationTicks": 96,
            "midi": 44,
            "name": "G#2",
            "ticks": 43392,
            "time": 76.17974099999999,
            "velocity": 0.3937007874015748
          },
          {
            "duration": 0.16853924999999492,
            "durationTicks": 96,
            "midi": 62,
            "name": "D4",
            "ticks": 43392,
            "time": 76.17974099999999,
            "velocity": 0.3937007874015748
          },
          {
            "duration": 0.16853924999999492,
            "durationTicks": 96,
            "midi": 63,
            "name": "D#4",
            "ticks": 43488,
            "time": 76.34828024999999,
            "velocity": 0.3937007874015748
          },
          {
            "duration": 0.16853924999999492,
            "durationTicks": 96,
            "midi": 44,
            "name": "G#2",
            "ticks": 43488,
            "time": 76.34828024999999,
            "velocity": 0.3937007874015748
          },
          {
            "duration": 0.16853924999999492,
            "durationTicks": 96,
            "midi": 63,
            "name": "D#4",
            "ticks": 43488,
            "time": 76.34828024999999,
            "velocity": 0.3937007874015748
          },
          {
            "duration": 0.16853925000000913,
            "durationTicks": 96,
            "midi": 65,
            "name": "F4",
            "ticks": 43584,
            "time": 76.51681949999998,
            "velocity": 0.3937007874015748
          },
          {
            "duration": 0.33707850000000406,
            "durationTicks": 192,
            "midi": 65,
            "name": "F4",
            "ticks": 43584,
            "time": 76.51681949999998,
            "velocity": 0.3937007874015748
          },
          {
            "duration": 0.33707850000000406,
            "durationTicks": 192,
            "midi": 46,
            "name": "A#2",
            "ticks": 43584,
            "time": 76.51681949999998,
            "velocity": 0.3937007874015748
          },
          {
            "duration": 0.16853924999999492,
            "durationTicks": 96,
            "midi": 58,
            "name": "A#3",
            "ticks": 43680,
            "time": 76.68535874999999,
            "velocity": 0.3937007874015748
          },
          {
            "duration": 0.16853924999999492,
            "durationTicks": 96,
            "midi": 67,
            "name": "G4",
            "ticks": 43776,
            "time": 76.85389799999999,
            "velocity": 0.3937007874015748
          },
          {
            "duration": 0.16853924999999492,
            "durationTicks": 96,
            "midi": 67,
            "name": "G4",
            "ticks": 43776,
            "time": 76.85389799999999,
            "velocity": 0.3937007874015748
          },
          {
            "duration": 0.33707850000000406,
            "durationTicks": 192,
            "midi": 39,
            "name": "D#2",
            "ticks": 43776,
            "time": 76.85389799999999,
            "velocity": 0.3937007874015748
          },
          {
            "duration": 0.33707850000000406,
            "durationTicks": 192,
            "midi": 51,
            "name": "D#3",
            "ticks": 43776,
            "time": 76.85389799999999,
            "velocity": 0.3937007874015748
          },
          {
            "duration": 0.16853925000000913,
            "durationTicks": 96,
            "midi": 65,
            "name": "F4",
            "ticks": 43872,
            "time": 77.02243724999998,
            "velocity": 0.3937007874015748
          },
          {
            "duration": 0.16853925000000913,
            "durationTicks": 96,
            "midi": 65,
            "name": "F4",
            "ticks": 43872,
            "time": 77.02243724999998,
            "velocity": 0.3937007874015748
          },
          {
            "duration": 0.16853924999999492,
            "durationTicks": 96,
            "midi": 63,
            "name": "D#4",
            "ticks": 43968,
            "time": 77.19097649999999,
            "velocity": 0.3937007874015748
          },
          {
            "duration": 0.16853924999999492,
            "durationTicks": 96,
            "midi": 63,
            "name": "D#4",
            "ticks": 43968,
            "time": 77.19097649999999,
            "velocity": 0.3937007874015748
          },
          {
            "duration": 0.33707850000000406,
            "durationTicks": 192,
            "midi": 46,
            "name": "A#2",
            "ticks": 43968,
            "time": 77.19097649999999,
            "velocity": 0.3937007874015748
          },
          {
            "duration": 0.16853925000000913,
            "durationTicks": 96,
            "midi": 62,
            "name": "D4",
            "ticks": 44064,
            "time": 77.35951574999999,
            "velocity": 0.3937007874015748
          },
          {
            "duration": 0.16853925000000913,
            "durationTicks": 96,
            "midi": 62,
            "name": "D4",
            "ticks": 44064,
            "time": 77.35951574999999,
            "velocity": 0.3937007874015748
          },
          {
            "duration": 0.16853924999999492,
            "durationTicks": 96,
            "midi": 60,
            "name": "C4",
            "ticks": 44160,
            "time": 77.528055,
            "velocity": 0.3937007874015748
          },
          {
            "duration": 0.16853924999999492,
            "durationTicks": 96,
            "midi": 60,
            "name": "C4",
            "ticks": 44160,
            "time": 77.528055,
            "velocity": 0.3937007874015748
          },
          {
            "duration": 0.33707849999998984,
            "durationTicks": 192,
            "midi": 39,
            "name": "D#2",
            "ticks": 44160,
            "time": 77.528055,
            "velocity": 0.3937007874015748
          },
          {
            "duration": 0.16853924999999492,
            "durationTicks": 96,
            "midi": 62,
            "name": "D4",
            "ticks": 44256,
            "time": 77.69659424999999,
            "velocity": 0.3937007874015748
          },
          {
            "duration": 0.16853924999999492,
            "durationTicks": 96,
            "midi": 62,
            "name": "D4",
            "ticks": 44256,
            "time": 77.69659424999999,
            "velocity": 0.3937007874015748
          },
          {
            "duration": 0.16853925000000913,
            "durationTicks": 96,
            "midi": 63,
            "name": "D#4",
            "ticks": 44352,
            "time": 77.86513349999998,
            "velocity": 0.3937007874015748
          },
          {
            "duration": 0.33707850000000406,
            "durationTicks": 192,
            "midi": 63,
            "name": "D#4",
            "ticks": 44352,
            "time": 77.86513349999998,
            "velocity": 0.3937007874015748
          },
          {
            "duration": 0.33707850000000406,
            "durationTicks": 192,
            "midi": 43,
            "name": "G2",
            "ticks": 44352,
            "time": 77.86513349999998,
            "velocity": 0.3937007874015748
          },
          {
            "duration": 0.16853924999999492,
            "durationTicks": 96,
            "midi": 56,
            "name": "G#3",
            "ticks": 44448,
            "time": 78.03367275,
            "velocity": 0.3937007874015748
          },
          {
            "duration": 0.33707850000000406,
            "durationTicks": 192,
            "midi": 38,
            "name": "D2",
            "ticks": 44544,
            "time": 78.20221199999999,
            "velocity": 0.3937007874015748
          },
          {
            "duration": 0.33707850000000406,
            "durationTicks": 192,
            "midi": 50,
            "name": "D3",
            "ticks": 44544,
            "time": 78.20221199999999,
            "velocity": 0.3937007874015748
          },
          {
            "duration": 0.16853924999999492,
            "durationTicks": 96,
            "midi": 65,
            "name": "F4",
            "ticks": 44544,
            "time": 78.20221199999999,
            "velocity": 0.3937007874015748
          },
          {
            "duration": 0.16853924999999492,
            "durationTicks": 96,
            "midi": 65,
            "name": "F4",
            "ticks": 44544,
            "time": 78.20221199999999,
            "velocity": 0.3937007874015748
          },
          {
            "duration": 0.16853925000000913,
            "durationTicks": 96,
            "midi": 63,
            "name": "D#4",
            "ticks": 44640,
            "time": 78.37075124999998,
            "velocity": 0.3937007874015748
          },
          {
            "duration": 0.16853925000000913,
            "durationTicks": 96,
            "midi": 63,
            "name": "D#4",
            "ticks": 44640,
            "time": 78.37075124999998,
            "velocity": 0.3937007874015748
          },
          {
            "duration": 0.16853924999999492,
            "durationTicks": 96,
            "midi": 62,
            "name": "D4",
            "ticks": 44736,
            "time": 78.53929049999999,
            "velocity": 0.3937007874015748
          },
          {
            "duration": 0.33707849999998984,
            "durationTicks": 192,
            "midi": 41,
            "name": "F2",
            "ticks": 44736,
            "time": 78.53929049999999,
            "velocity": 0.3937007874015748
          },
          {
            "duration": 0.16853924999999492,
            "durationTicks": 96,
            "midi": 62,
            "name": "D4",
            "ticks": 44736,
            "time": 78.53929049999999,
            "velocity": 0.3937007874015748
          },
          {
            "duration": 0.16853924999999492,
            "durationTicks": 96,
            "midi": 60,
            "name": "C4",
            "ticks": 44832,
            "time": 78.70782974999999,
            "velocity": 0.3937007874015748
          },
          {
            "duration": 0.16853924999999492,
            "durationTicks": 96,
            "midi": 60,
            "name": "C4",
            "ticks": 44832,
            "time": 78.70782974999999,
            "velocity": 0.3937007874015748
          },
          {
            "duration": 0.33707850000000406,
            "durationTicks": 192,
            "midi": 38,
            "name": "D2",
            "ticks": 44928,
            "time": 78.87636899999998,
            "velocity": 0.3937007874015748
          },
          {
            "duration": 0.16853925000000913,
            "durationTicks": 96,
            "midi": 59,
            "name": "B3",
            "ticks": 44928,
            "time": 78.87636899999998,
            "velocity": 0.3937007874015748
          },
          {
            "duration": 0.16853925000000913,
            "durationTicks": 96,
            "midi": 59,
            "name": "B3",
            "ticks": 44928,
            "time": 78.87636899999998,
            "velocity": 0.3937007874015748
          },
          {
            "duration": 0.16853924999999492,
            "durationTicks": 96,
            "midi": 60,
            "name": "C4",
            "ticks": 45024,
            "time": 79.04490824999999,
            "velocity": 0.3937007874015748
          },
          {
            "duration": 0.16853924999999492,
            "durationTicks": 96,
            "midi": 60,
            "name": "C4",
            "ticks": 45024,
            "time": 79.04490824999999,
            "velocity": 0.3937007874015748
          },
          {
            "duration": 0.33707850000000406,
            "durationTicks": 192,
            "midi": 41,
            "name": "F2",
            "ticks": 45120,
            "time": 79.21344749999999,
            "velocity": 0.3937007874015748
          },
          {
            "duration": 0.16853924999999492,
            "durationTicks": 96,
            "midi": 62,
            "name": "D4",
            "ticks": 45120,
            "time": 79.21344749999999,
            "velocity": 0.3937007874015748
          },
          {
            "duration": 0.16853924999999492,
            "durationTicks": 96,
            "midi": 62,
            "name": "D4",
            "ticks": 45120,
            "time": 79.21344749999999,
            "velocity": 0.3937007874015748
          },
          {
            "duration": 0.16853925000000913,
            "durationTicks": 96,
            "midi": 67,
            "name": "G4",
            "ticks": 45216,
            "time": 79.38198674999998,
            "velocity": 0.3937007874015748
          },
          {
            "duration": 0.16853925000000913,
            "durationTicks": 96,
            "midi": 67,
            "name": "G4",
            "ticks": 45216,
            "time": 79.38198674999998,
            "velocity": 0.3937007874015748
          },
          {
            "duration": 0.6741569999999939,
            "durationTicks": 384,
            "midi": 62,
            "name": "D4",
            "ticks": 45312,
            "time": 79.55052599999999,
            "velocity": 0.3937007874015748
          },
          {
            "duration": 1.348314000000002,
            "durationTicks": 768,
            "midi": 72,
            "name": "C5",
            "ticks": 45312,
            "time": 79.55052599999999,
            "velocity": 0.3937007874015748
          },
          {
            "duration": 0.33707849999998984,
            "durationTicks": 192,
            "midi": 55,
            "name": "G3",
            "ticks": 45312,
            "time": 79.55052599999999,
            "velocity": 0.3937007874015748
          },
          {
            "duration": 0.33707849999998984,
            "durationTicks": 192,
            "midi": 43,
            "name": "G2",
            "ticks": 45312,
            "time": 79.55052599999999,
            "velocity": 0.3937007874015748
          },
          {
            "duration": 1.011235499999998,
            "durationTicks": 576,
            "midi": 62,
            "name": "D4",
            "ticks": 45312,
            "time": 79.55052599999999,
            "velocity": 0.3937007874015748
          },
          {
            "duration": 0.33707850000000406,
            "durationTicks": 192,
            "midi": 43,
            "name": "G2",
            "ticks": 45504,
            "time": 79.88760449999998,
            "velocity": 0.3937007874015748
          },
          {
            "duration": 0.16853925000000913,
            "durationTicks": 96,
            "midi": 53,
            "name": "F3",
            "ticks": 45696,
            "time": 80.22468299999998,
            "velocity": 0.3937007874015748
          },
          {
            "duration": 0.16853924999999492,
            "durationTicks": 96,
            "midi": 51,
            "name": "D#3",
            "ticks": 45792,
            "time": 80.39322225,
            "velocity": 0.3937007874015748
          },
          {
            "duration": 0.16853924999999492,
            "durationTicks": 96,
            "midi": 60,
            "name": "C4",
            "ticks": 45888,
            "time": 80.56176149999999,
            "velocity": 0.3937007874015748
          },
          {
            "duration": 0.16853924999999492,
            "durationTicks": 96,
            "midi": 60,
            "name": "C4",
            "ticks": 45888,
            "time": 80.56176149999999,
            "velocity": 0.3937007874015748
          },
          {
            "duration": 0.33707850000000406,
            "durationTicks": 192,
            "midi": 50,
            "name": "D3",
            "ticks": 45888,
            "time": 80.56176149999999,
            "velocity": 0.3937007874015748
          },
          {
            "duration": 0.16853925000000913,
            "durationTicks": 96,
            "midi": 62,
            "name": "D4",
            "ticks": 45984,
            "time": 80.73030074999998,
            "velocity": 0.3937007874015748
          },
          {
            "duration": 0.16853925000000913,
            "durationTicks": 96,
            "midi": 62,
            "name": "D4",
            "ticks": 45984,
            "time": 80.73030074999998,
            "velocity": 0.3937007874015748
          },
          {
            "duration": 0.33707849999998984,
            "durationTicks": 192,
            "midi": 36,
            "name": "C2",
            "ticks": 46080,
            "time": 80.89883999999999,
            "velocity": 0.3937007874015748
          },
          {
            "duration": 0.33707849999998984,
            "durationTicks": 192,
            "midi": 48,
            "name": "C3",
            "ticks": 46080,
            "time": 80.89883999999999,
            "velocity": 0.3937007874015748
          },
          {
            "duration": 0.16853924999999492,
            "durationTicks": 96,
            "midi": 63,
            "name": "D#4",
            "ticks": 46080,
            "time": 80.89883999999999,
            "velocity": 0.3937007874015748
          },
          {
            "duration": 0.16853924999999492,
            "durationTicks": 96,
            "midi": 63,
            "name": "D#4",
            "ticks": 46080,
            "time": 80.89883999999999,
            "velocity": 0.3937007874015748
          },
          {
            "duration": 0.16853924999999492,
            "durationTicks": 96,
            "midi": 62,
            "name": "D4",
            "ticks": 46176,
            "time": 81.06737924999999,
            "velocity": 0.3937007874015748
          },
          {
            "duration": 0.16853924999999492,
            "durationTicks": 96,
            "midi": 62,
            "name": "D4",
            "ticks": 46176,
            "time": 81.06737924999999,
            "velocity": 0.3937007874015748
          },
          {
            "duration": 0.33707850000000406,
            "durationTicks": 192,
            "midi": 60,
            "name": "C4",
            "ticks": 46272,
            "time": 81.23591849999998,
            "velocity": 0.3937007874015748
          },
          {
            "duration": 0.33707850000000406,
            "durationTicks": 192,
            "midi": 60,
            "name": "C4",
            "ticks": 46272,
            "time": 81.23591849999998,
            "velocity": 0.3937007874015748
          },
          {
            "duration": 0.33707850000000406,
            "durationTicks": 192,
            "midi": 43,
            "name": "G2",
            "ticks": 46272,
            "time": 81.23591849999998,
            "velocity": 0.3937007874015748
          },
          {
            "duration": 0.16853924999999492,
            "durationTicks": 96,
            "midi": 36,
            "name": "C2",
            "ticks": 46464,
            "time": 81.57299699999999,
            "velocity": 0.3937007874015748
          },
          {
            "duration": 0.16853924999999492,
            "durationTicks": 96,
            "midi": 60,
            "name": "C4",
            "ticks": 46464,
            "time": 81.57299699999999,
            "velocity": 0.3937007874015748
          },
          {
            "duration": 0.16853925000000913,
            "durationTicks": 96,
            "midi": 36,
            "name": "C2",
            "ticks": 46560,
            "time": 81.74153624999998,
            "velocity": 0.3937007874015748
          },
          {
            "duration": 0.16853925000000913,
            "durationTicks": 96,
            "midi": 62,
            "name": "D4",
            "ticks": 46560,
            "time": 81.74153624999998,
            "velocity": 0.3937007874015748
          },
          {
            "duration": 0.16853925000000913,
            "durationTicks": 96,
            "midi": 62,
            "name": "D4",
            "ticks": 46560,
            "time": 81.74153624999998,
            "velocity": 0.3937007874015748
          },
          {
            "duration": 0.33707849999998984,
            "durationTicks": 192,
            "midi": 36,
            "name": "C2",
            "ticks": 46656,
            "time": 81.91007549999999,
            "velocity": 0.3937007874015748
          },
          {
            "duration": 0.16853924999999492,
            "durationTicks": 96,
            "midi": 63,
            "name": "D#4",
            "ticks": 46656,
            "time": 81.91007549999999,
            "velocity": 0.3937007874015748
          },
          {
            "duration": 0.16853924999999492,
            "durationTicks": 96,
            "midi": 63,
            "name": "D#4",
            "ticks": 46656,
            "time": 81.91007549999999,
            "velocity": 0.3937007874015748
          },
          {
            "duration": 0.16853924999999492,
            "durationTicks": 96,
            "midi": 62,
            "name": "D4",
            "ticks": 46752,
            "time": 82.07861474999999,
            "velocity": 0.3937007874015748
          },
          {
            "duration": 0.16853924999999492,
            "durationTicks": 96,
            "midi": 62,
            "name": "D4",
            "ticks": 46752,
            "time": 82.07861474999999,
            "velocity": 0.3937007874015748
          },
          {
            "duration": 0.16853925000000913,
            "durationTicks": 96,
            "midi": 60,
            "name": "C4",
            "ticks": 46848,
            "time": 82.24715399999998,
            "velocity": 0.3937007874015748
          },
          {
            "duration": 0.33707850000000406,
            "durationTicks": 192,
            "midi": 48,
            "name": "C3",
            "ticks": 46848,
            "time": 82.24715399999998,
            "velocity": 0.3937007874015748
          },
          {
            "duration": 0.33707850000000406,
            "durationTicks": 192,
            "midi": 36,
            "name": "C2",
            "ticks": 46848,
            "time": 82.24715399999998,
            "velocity": 0.3937007874015748
          },
          {
            "duration": 0.16853925000000913,
            "durationTicks": 96,
            "midi": 60,
            "name": "C4",
            "ticks": 46848,
            "time": 82.24715399999998,
            "velocity": 0.3937007874015748
          },
          {
            "duration": 0.16853924999999492,
            "durationTicks": 96,
            "midi": 63,
            "name": "D#4",
            "ticks": 46944,
            "time": 82.41569324999999,
            "velocity": 0.3937007874015748
          },
          {
            "duration": 0.16853924999999492,
            "durationTicks": 96,
            "midi": 63,
            "name": "D#4",
            "ticks": 46944,
            "time": 82.41569324999999,
            "velocity": 0.3937007874015748
          },
          {
            "duration": 0.33707850000000406,
            "durationTicks": 192,
            "midi": 67,
            "name": "G4",
            "ticks": 47040,
            "time": 82.58423249999998,
            "velocity": 0.3937007874015748
          },
          {
            "duration": 0.505617749999999,
            "durationTicks": 288,
            "midi": 67,
            "name": "G4",
            "ticks": 47040,
            "time": 82.58423249999998,
            "velocity": 0.3937007874015748
          },
          {
            "duration": 0.33707850000000406,
            "durationTicks": 192,
            "midi": 43,
            "name": "G2",
            "ticks": 47040,
            "time": 82.58423249999998,
            "velocity": 0.3937007874015748
          },
          {
            "duration": 0.33707850000000406,
            "durationTicks": 192,
            "midi": 39,
            "name": "D#2",
            "ticks": 47232,
            "time": 82.92131099999999,
            "velocity": 0.3937007874015748
          },
          {
            "duration": 0.16853925000000913,
            "durationTicks": 96,
            "midi": 60,
            "name": "C4",
            "ticks": 47328,
            "time": 83.08985024999998,
            "velocity": 0.3937007874015748
          },
          {
            "duration": 0.16853925000000913,
            "durationTicks": 96,
            "midi": 60,
            "name": "C4",
            "ticks": 47328,
            "time": 83.08985024999998,
            "velocity": 0.3937007874015748
          },
          {
            "duration": 0.16853924999999492,
            "durationTicks": 96,
            "midi": 63,
            "name": "D#4",
            "ticks": 47424,
            "time": 83.25838949999999,
            "velocity": 0.3937007874015748
          },
          {
            "duration": 0.16853924999999492,
            "durationTicks": 96,
            "midi": 63,
            "name": "D#4",
            "ticks": 47424,
            "time": 83.25838949999999,
            "velocity": 0.3937007874015748
          },
          {
            "duration": 0.33707849999998984,
            "durationTicks": 192,
            "midi": 43,
            "name": "G2",
            "ticks": 47424,
            "time": 83.25838949999999,
            "velocity": 0.3937007874015748
          },
          {
            "duration": 0.16853924999999492,
            "durationTicks": 96,
            "midi": 67,
            "name": "G4",
            "ticks": 47520,
            "time": 83.42692874999999,
            "velocity": 0.3937007874015748
          },
          {
            "duration": 0.16853924999999492,
            "durationTicks": 96,
            "midi": 67,
            "name": "G4",
            "ticks": 47520,
            "time": 83.42692874999999,
            "velocity": 0.3937007874015748
          },
          {
            "duration": 0.33707850000000406,
            "durationTicks": 192,
            "midi": 41,
            "name": "F2",
            "ticks": 47616,
            "time": 83.59546799999998,
            "velocity": 0.3937007874015748
          },
          {
            "duration": 0.33707850000000406,
            "durationTicks": 192,
            "midi": 53,
            "name": "F3",
            "ticks": 47616,
            "time": 83.59546799999998,
            "velocity": 0.3937007874015748
          },
          {
            "duration": 0.16853925000000913,
            "durationTicks": 96,
            "midi": 68,
            "name": "G#4",
            "ticks": 47616,
            "time": 83.59546799999998,
            "velocity": 0.3937007874015748
          },
          {
            "duration": 0.16853925000000913,
            "durationTicks": 96,
            "midi": 68,
            "name": "G#4",
            "ticks": 47616,
            "time": 83.59546799999998,
            "velocity": 0.3937007874015748
          },
          {
            "duration": 0.16853924999999492,
            "durationTicks": 96,
            "midi": 67,
            "name": "G4",
            "ticks": 47712,
            "time": 83.76400724999999,
            "velocity": 0.3937007874015748
          },
          {
            "duration": 0.16853924999999492,
            "durationTicks": 96,
            "midi": 67,
            "name": "G4",
            "ticks": 47712,
            "time": 83.76400724999999,
            "velocity": 0.3937007874015748
          },
          {
            "duration": 0.33707850000000406,
            "durationTicks": 192,
            "midi": 48,
            "name": "C3",
            "ticks": 47808,
            "time": 83.93254649999999,
            "velocity": 0.3937007874015748
          },
          {
            "duration": 0.16853924999999492,
            "durationTicks": 96,
            "midi": 65,
            "name": "F4",
            "ticks": 47808,
            "time": 83.93254649999999,
            "velocity": 0.3937007874015748
          },
          {
            "duration": 0.16853924999999492,
            "durationTicks": 96,
            "midi": 65,
            "name": "F4",
            "ticks": 47808,
            "time": 83.93254649999999,
            "velocity": 0.3937007874015748
          },
          {
            "duration": 0.16853925000000913,
            "durationTicks": 96,
            "midi": 63,
            "name": "D#4",
            "ticks": 47904,
            "time": 84.10108574999998,
            "velocity": 0.3937007874015748
          },
          {
            "duration": 0.16853925000000913,
            "durationTicks": 96,
            "midi": 63,
            "name": "D#4",
            "ticks": 47904,
            "time": 84.10108574999998,
            "velocity": 0.3937007874015748
          },
          {
            "duration": 0.16853924999999492,
            "durationTicks": 96,
            "midi": 62,
            "name": "D4",
            "ticks": 48000,
            "time": 84.26962499999999,
            "velocity": 0.3937007874015748
          },
          {
            "duration": 0.16853924999999492,
            "durationTicks": 96,
            "midi": 62,
            "name": "D4",
            "ticks": 48000,
            "time": 84.26962499999999,
            "velocity": 0.3937007874015748
          },
          {
            "duration": 0.16853924999999492,
            "durationTicks": 96,
            "midi": 44,
            "name": "G#2",
            "ticks": 48000,
            "time": 84.26962499999999,
            "velocity": 0.3937007874015748
          },
          {
            "duration": 0.16853924999999492,
            "durationTicks": 96,
            "midi": 63,
            "name": "D#4",
            "ticks": 48096,
            "time": 84.43816424999999,
            "velocity": 0.3937007874015748
          },
          {
            "duration": 0.16853924999999492,
            "durationTicks": 96,
            "midi": 44,
            "name": "G#2",
            "ticks": 48096,
            "time": 84.43816424999999,
            "velocity": 0.3937007874015748
          },
          {
            "duration": 0.16853924999999492,
            "durationTicks": 96,
            "midi": 63,
            "name": "D#4",
            "ticks": 48096,
            "time": 84.43816424999999,
            "velocity": 0.3937007874015748
          },
          {
            "duration": 0.33707850000000406,
            "durationTicks": 192,
            "midi": 46,
            "name": "A#2",
            "ticks": 48192,
            "time": 84.60670349999998,
            "velocity": 0.3937007874015748
          },
          {
            "duration": 0.16853925000000913,
            "durationTicks": 96,
            "midi": 65,
            "name": "F4",
            "ticks": 48192,
            "time": 84.60670349999998,
            "velocity": 0.3937007874015748
          },
          {
            "duration": 0.16853925000000913,
            "durationTicks": 96,
            "midi": 65,
            "name": "F4",
            "ticks": 48192,
            "time": 84.60670349999998,
            "velocity": 0.3937007874015748
          },
          {
            "duration": 0.16853924999999492,
            "durationTicks": 96,
            "midi": 67,
            "name": "G4",
            "ticks": 48288,
            "time": 84.77524274999999,
            "velocity": 0.3937007874015748
          },
          {
            "duration": 0.16853924999999492,
            "durationTicks": 96,
            "midi": 67,
            "name": "G4",
            "ticks": 48288,
            "time": 84.77524274999999,
            "velocity": 0.3937007874015748
          },
          {
            "duration": 0.6741570000000081,
            "durationTicks": 384,
            "midi": 63,
            "name": "D#4",
            "ticks": 48384,
            "time": 84.94378199999998,
            "velocity": 0.3937007874015748
          },
          {
            "duration": 0.33707850000000406,
            "durationTicks": 192,
            "midi": 51,
            "name": "D#3",
            "ticks": 48384,
            "time": 84.94378199999998,
            "velocity": 0.3937007874015748
          },
          {
            "duration": 0.842696250000003,
            "durationTicks": 480,
            "midi": 63,
            "name": "D#4",
            "ticks": 48384,
            "time": 84.94378199999998,
            "velocity": 0.3937007874015748
          },
          {
            "duration": 0.33707850000000406,
            "durationTicks": 192,
            "midi": 39,
            "name": "D#2",
            "ticks": 48384,
            "time": 84.94378199999998,
            "velocity": 0.3937007874015748
          },
          {
            "duration": 0.33707850000000406,
            "durationTicks": 192,
            "midi": 46,
            "name": "A#2",
            "ticks": 48576,
            "time": 85.28086049999999,
            "velocity": 0.3937007874015748
          },
          {
            "duration": 0.16853924999999492,
            "durationTicks": 96,
            "midi": 51,
            "name": "D#3",
            "ticks": 48768,
            "time": 85.61793899999999,
            "velocity": 0.3937007874015748
          },
          {
            "duration": 0.16853924999999492,
            "durationTicks": 96,
            "midi": 60,
            "name": "C4",
            "ticks": 48864,
            "time": 85.78647824999999,
            "velocity": 0.3937007874015748
          },
          {
            "duration": 0.16853924999999492,
            "durationTicks": 96,
            "midi": 50,
            "name": "D3",
            "ticks": 48864,
            "time": 85.78647824999999,
            "velocity": 0.3937007874015748
          },
          {
            "duration": 0.16853924999999492,
            "durationTicks": 96,
            "midi": 60,
            "name": "C4",
            "ticks": 48864,
            "time": 85.78647824999999,
            "velocity": 0.3937007874015748
          },
          {
            "duration": 0.16853925000000913,
            "durationTicks": 96,
            "midi": 63,
            "name": "D#4",
            "ticks": 48960,
            "time": 85.95501749999998,
            "velocity": 0.3937007874015748
          },
          {
            "duration": 0.16853925000000913,
            "durationTicks": 96,
            "midi": 63,
            "name": "D#4",
            "ticks": 48960,
            "time": 85.95501749999998,
            "velocity": 0.3937007874015748
          },
          {
            "duration": 0.16853925000000913,
            "durationTicks": 96,
            "midi": 48,
            "name": "C3",
            "ticks": 48960,
            "time": 85.95501749999998,
            "velocity": 0.3937007874015748
          },
          {
            "duration": 0.16853924999999492,
            "durationTicks": 96,
            "midi": 46,
            "name": "A#2",
            "ticks": 49056,
            "time": 86.12355674999999,
            "velocity": 0.3937007874015748
          },
          {
            "duration": 0.16853924999999492,
            "durationTicks": 96,
            "midi": 67,
            "name": "G4",
            "ticks": 49056,
            "time": 86.12355674999999,
            "velocity": 0.3937007874015748
          },
          {
            "duration": 0.16853924999999492,
            "durationTicks": 96,
            "midi": 67,
            "name": "G4",
            "ticks": 49056,
            "time": 86.12355674999999,
            "velocity": 0.3937007874015748
          },
          {
            "duration": 0.16853924999999492,
            "durationTicks": 96,
            "midi": 68,
            "name": "G#4",
            "ticks": 49152,
            "time": 86.29209599999999,
            "velocity": 0.3937007874015748
          },
          {
            "duration": 0.16853924999999492,
            "durationTicks": 96,
            "midi": 68,
            "name": "G#4",
            "ticks": 49152,
            "time": 86.29209599999999,
            "velocity": 0.3937007874015748
          },
          {
            "duration": 0.33707850000000406,
            "durationTicks": 192,
            "midi": 41,
            "name": "F2",
            "ticks": 49152,
            "time": 86.29209599999999,
            "velocity": 0.3937007874015748
          },
          {
            "duration": 0.33707850000000406,
            "durationTicks": 192,
            "midi": 53,
            "name": "F3",
            "ticks": 49152,
            "time": 86.29209599999999,
            "velocity": 0.3937007874015748
          },
          {
            "duration": 0.16853925000000913,
            "durationTicks": 96,
            "midi": 67,
            "name": "G4",
            "ticks": 49248,
            "time": 86.46063524999998,
            "velocity": 0.3937007874015748
          },
          {
            "duration": 0.16853925000000913,
            "durationTicks": 96,
            "midi": 67,
            "name": "G4",
            "ticks": 49248,
            "time": 86.46063524999998,
            "velocity": 0.3937007874015748
          },
          {
            "duration": 0.16853924999999492,
            "durationTicks": 96,
            "midi": 65,
            "name": "F4",
            "ticks": 49344,
            "time": 86.62917449999999,
            "velocity": 0.3937007874015748
          },
          {
            "duration": 0.33707849999998984,
            "durationTicks": 192,
            "midi": 48,
            "name": "C3",
            "ticks": 49344,
            "time": 86.62917449999999,
            "velocity": 0.3937007874015748
          },
          {
            "duration": 0.16853924999999492,
            "durationTicks": 96,
            "midi": 65,
            "name": "F4",
            "ticks": 49344,
            "time": 86.62917449999999,
            "velocity": 0.3937007874015748
          },
          {
            "duration": 0.16853924999999492,
            "durationTicks": 96,
            "midi": 63,
            "name": "D#4",
            "ticks": 49440,
            "time": 86.79771374999999,
            "velocity": 0.3937007874015748
          },
          {
            "duration": 0.16853924999999492,
            "durationTicks": 96,
            "midi": 63,
            "name": "D#4",
            "ticks": 49440,
            "time": 86.79771374999999,
            "velocity": 0.3937007874015748
          },
          {
            "duration": 0.16853925000000913,
            "durationTicks": 96,
            "midi": 62,
            "name": "D4",
            "ticks": 49536,
            "time": 86.96625299999998,
            "velocity": 0.3937007874015748
          },
          {
            "duration": 0.16853925000000913,
            "durationTicks": 96,
            "midi": 44,
            "name": "G#2",
            "ticks": 49536,
            "time": 86.96625299999998,
            "velocity": 0.3937007874015748
          },
          {
            "duration": 0.16853925000000913,
            "durationTicks": 96,
            "midi": 62,
            "name": "D4",
            "ticks": 49536,
            "time": 86.96625299999998,
            "velocity": 0.3937007874015748
          },
          {
            "duration": 0.16853924999999492,
            "durationTicks": 96,
            "midi": 44,
            "name": "G#2",
            "ticks": 49632,
            "time": 87.13479224999999,
            "velocity": 0.3937007874015748
          },
          {
            "duration": 0.16853924999999492,
            "durationTicks": 96,
            "midi": 63,
            "name": "D#4",
            "ticks": 49632,
            "time": 87.13479224999999,
            "velocity": 0.3937007874015748
          },
          {
            "duration": 0.16853924999999492,
            "durationTicks": 96,
            "midi": 63,
            "name": "D#4",
            "ticks": 49632,
            "time": 87.13479224999999,
            "velocity": 0.3937007874015748
          },
          {
            "duration": 0.16853924999999492,
            "durationTicks": 96,
            "midi": 65,
            "name": "F4",
            "ticks": 49728,
            "time": 87.30333149999998,
            "velocity": 0.3937007874015748
          },
          {
            "duration": 0.33707850000000406,
            "durationTicks": 192,
            "midi": 46,
            "name": "A#2",
            "ticks": 49728,
            "time": 87.30333149999998,
            "velocity": 0.3937007874015748
          },
          {
            "duration": 0.33707850000000406,
            "durationTicks": 192,
            "midi": 65,
            "name": "F4",
            "ticks": 49728,
            "time": 87.30333149999998,
            "velocity": 0.3937007874015748
          },
          {
            "duration": 0.16853925000000913,
            "durationTicks": 96,
            "midi": 58,
            "name": "A#3",
            "ticks": 49824,
            "time": 87.47187074999998,
            "velocity": 0.3937007874015748
          },
          {
            "duration": 0.33707850000000406,
            "durationTicks": 192,
            "midi": 39,
            "name": "D#2",
            "ticks": 49920,
            "time": 87.64040999999999,
            "velocity": 0.3937007874015748
          },
          {
            "duration": 0.16853924999999492,
            "durationTicks": 96,
            "midi": 67,
            "name": "G4",
            "ticks": 49920,
            "time": 87.64040999999999,
            "velocity": 0.3937007874015748
          },
          {
            "duration": 0.16853924999999492,
            "durationTicks": 96,
            "midi": 67,
            "name": "G4",
            "ticks": 49920,
            "time": 87.64040999999999,
            "velocity": 0.3937007874015748
          },
          {
            "duration": 0.33707850000000406,
            "durationTicks": 192,
            "midi": 51,
            "name": "D#3",
            "ticks": 49920,
            "time": 87.64040999999999,
            "velocity": 0.3937007874015748
          },
          {
            "duration": 0.16853925000000913,
            "durationTicks": 96,
            "midi": 65,
            "name": "F4",
            "ticks": 50016,
            "time": 87.80894924999998,
            "velocity": 0.3937007874015748
          },
          {
            "duration": 0.16853925000000913,
            "durationTicks": 96,
            "midi": 65,
            "name": "F4",
            "ticks": 50016,
            "time": 87.80894924999998,
            "velocity": 0.3937007874015748
          },
          {
            "duration": 0.33707849999998984,
            "durationTicks": 192,
            "midi": 48,
            "name": "C3",
            "ticks": 50112,
            "time": 87.97748849999999,
            "velocity": 0.3937007874015748
          },
          {
            "duration": 0.16853924999999492,
            "durationTicks": 96,
            "midi": 63,
            "name": "D#4",
            "ticks": 50112,
            "time": 87.97748849999999,
            "velocity": 0.3937007874015748
          },
          {
            "duration": 0.16853924999999492,
            "durationTicks": 96,
            "midi": 63,
            "name": "D#4",
            "ticks": 50112,
            "time": 87.97748849999999,
            "velocity": 0.3937007874015748
          },
          {
            "duration": 0.16853924999999492,
            "durationTicks": 96,
            "midi": 62,
            "name": "D4",
            "ticks": 50208,
            "time": 88.14602774999999,
            "velocity": 0.3937007874015748
          },
          {
            "duration": 0.16853924999999492,
            "durationTicks": 96,
            "midi": 62,
            "name": "D4",
            "ticks": 50208,
            "time": 88.14602774999999,
            "velocity": 0.3937007874015748
          },
          {
            "duration": 0.16853925000000913,
            "durationTicks": 96,
            "midi": 60,
            "name": "C4",
            "ticks": 50304,
            "time": 88.31456699999998,
            "velocity": 0.3937007874015748
          },
          {
            "duration": 0.16853925000000913,
            "durationTicks": 96,
            "midi": 60,
            "name": "C4",
            "ticks": 50304,
            "time": 88.31456699999998,
            "velocity": 0.3937007874015748
          },
          {
            "duration": 0.33707850000000406,
            "durationTicks": 192,
            "midi": 39,
            "name": "D#2",
            "ticks": 50304,
            "time": 88.31456699999998,
            "velocity": 0.3937007874015748
          },
          {
            "duration": 0.16853924999999492,
            "durationTicks": 96,
            "midi": 62,
            "name": "D4",
            "ticks": 50400,
            "time": 88.48310624999999,
            "velocity": 0.3937007874015748
          },
          {
            "duration": 0.16853924999999492,
            "durationTicks": 96,
            "midi": 62,
            "name": "D4",
            "ticks": 50400,
            "time": 88.48310624999999,
            "velocity": 0.3937007874015748
          },
          {
            "duration": 0.33707850000000406,
            "durationTicks": 192,
            "midi": 48,
            "name": "C3",
            "ticks": 50496,
            "time": 88.65164549999999,
            "velocity": 0.3937007874015748
          },
          {
            "duration": 0.16853924999999492,
            "durationTicks": 96,
            "midi": 63,
            "name": "D#4",
            "ticks": 50496,
            "time": 88.65164549999999,
            "velocity": 0.3937007874015748
          },
          {
            "duration": 0.33707850000000406,
            "durationTicks": 192,
            "midi": 63,
            "name": "D#4",
            "ticks": 50496,
            "time": 88.65164549999999,
            "velocity": 0.3937007874015748
          },
          {
            "duration": 0.16853925000000913,
            "durationTicks": 96,
            "midi": 56,
            "name": "G#3",
            "ticks": 50592,
            "time": 88.82018474999998,
            "velocity": 0.3937007874015748
          },
          {
            "duration": 0.33707849999998984,
            "durationTicks": 192,
            "midi": 38,
            "name": "D2",
            "ticks": 50688,
            "time": 88.98872399999999,
            "velocity": 0.3937007874015748
          },
          {
            "duration": 0.33707849999998984,
            "durationTicks": 192,
            "midi": 50,
            "name": "D3",
            "ticks": 50688,
            "time": 88.98872399999999,
            "velocity": 0.3937007874015748
          },
          {
            "duration": 0.16853924999999492,
            "durationTicks": 96,
            "midi": 65,
            "name": "F4",
            "ticks": 50688,
            "time": 88.98872399999999,
            "velocity": 0.3937007874015748
          },
          {
            "duration": 0.16853924999999492,
            "durationTicks": 96,
            "midi": 65,
            "name": "F4",
            "ticks": 50688,
            "time": 88.98872399999999,
            "velocity": 0.3937007874015748
          },
          {
            "duration": 0.16853924999999492,
            "durationTicks": 96,
            "midi": 63,
            "name": "D#4",
            "ticks": 50784,
            "time": 89.15726324999999,
            "velocity": 0.3937007874015748
          },
          {
            "duration": 0.16853924999999492,
            "durationTicks": 96,
            "midi": 63,
            "name": "D#4",
            "ticks": 50784,
            "time": 89.15726324999999,
            "velocity": 0.3937007874015748
          },
          {
            "duration": 0.16853925000000913,
            "durationTicks": 96,
            "midi": 62,
            "name": "D4",
            "ticks": 50880,
            "time": 89.32580249999998,
            "velocity": 0.3937007874015748
          },
          {
            "duration": 0.33707850000000406,
            "durationTicks": 192,
            "midi": 41,
            "name": "F2",
            "ticks": 50880,
            "time": 89.32580249999998,
            "velocity": 0.3937007874015748
          },
          {
            "duration": 0.16853925000000913,
            "durationTicks": 96,
            "midi": 62,
            "name": "D4",
            "ticks": 50880,
            "time": 89.32580249999998,
            "velocity": 0.3937007874015748
          },
          {
            "duration": 0.16853924999999492,
            "durationTicks": 96,
            "midi": 60,
            "name": "C4",
            "ticks": 50976,
            "time": 89.49434174999999,
            "velocity": 0.3937007874015748
          },
          {
            "duration": 0.16853924999999492,
            "durationTicks": 96,
            "midi": 60,
            "name": "C4",
            "ticks": 50976,
            "time": 89.49434174999999,
            "velocity": 0.3937007874015748
          },
          {
            "duration": 0.16853924999999492,
            "durationTicks": 96,
            "midi": 59,
            "name": "B3",
            "ticks": 51072,
            "time": 89.66288099999998,
            "velocity": 0.3937007874015748
          },
          {
            "duration": 0.33707850000000406,
            "durationTicks": 192,
            "midi": 38,
            "name": "D2",
            "ticks": 51072,
            "time": 89.66288099999998,
            "velocity": 0.3937007874015748
          },
          {
            "duration": 0.16853924999999492,
            "durationTicks": 96,
            "midi": 59,
            "name": "B3",
            "ticks": 51072,
            "time": 89.66288099999998,
            "velocity": 0.3937007874015748
          },
          {
            "duration": 0.16853925000000913,
            "durationTicks": 96,
            "midi": 60,
            "name": "C4",
            "ticks": 51168,
            "time": 89.83142024999998,
            "velocity": 0.3937007874015748
          },
          {
            "duration": 0.16853925000000913,
            "durationTicks": 96,
            "midi": 60,
            "name": "C4",
            "ticks": 51168,
            "time": 89.83142024999998,
            "velocity": 0.3937007874015748
          },
          {
            "duration": 0.16853924999999492,
            "durationTicks": 96,
            "midi": 62,
            "name": "D4",
            "ticks": 51264,
            "time": 89.99995949999999,
            "velocity": 0.3937007874015748
          },
          {
            "duration": 0.16853924999999492,
            "durationTicks": 96,
            "midi": 62,
            "name": "D4",
            "ticks": 51264,
            "time": 89.99995949999999,
            "velocity": 0.3937007874015748
          },
          {
            "duration": 0.33707850000000406,
            "durationTicks": 192,
            "midi": 41,
            "name": "F2",
            "ticks": 51264,
            "time": 89.99995949999999,
            "velocity": 0.3937007874015748
          },
          {
            "duration": 0.16853925000000913,
            "durationTicks": 96,
            "midi": 67,
            "name": "G4",
            "ticks": 51360,
            "time": 90.16849874999998,
            "velocity": 0.3937007874015748
          },
          {
            "duration": 0.16853925000000913,
            "durationTicks": 96,
            "midi": 67,
            "name": "G4",
            "ticks": 51360,
            "time": 90.16849874999998,
            "velocity": 0.3937007874015748
          },
          {
            "duration": 0.33707849999998984,
            "durationTicks": 192,
            "midi": 55,
            "name": "G3",
            "ticks": 51456,
            "time": 90.33703799999999,
            "velocity": 0.3937007874015748
          },
          {
            "duration": 0.6741569999999939,
            "durationTicks": 384,
            "midi": 67,
            "name": "G4",
            "ticks": 51456,
            "time": 90.33703799999999,
            "velocity": 0.3937007874015748
          },
          {
            "duration": 0.6741569999999939,
            "durationTicks": 384,
            "midi": 67,
            "name": "G4",
            "ticks": 51456,
            "time": 90.33703799999999,
            "velocity": 0.3937007874015748
          },
          {
            "duration": 0.33707849999998984,
            "durationTicks": 192,
            "midi": 43,
            "name": "G2",
            "ticks": 51456,
            "time": 90.33703799999999,
            "velocity": 0.3937007874015748
          },
          {
            "duration": 0.33707850000000406,
            "durationTicks": 192,
            "midi": 55,
            "name": "G3",
            "ticks": 51648,
            "time": 90.67411649999998,
            "velocity": 0.3937007874015748
          },
          {
            "duration": 0.33707850000000406,
            "durationTicks": 192,
            "midi": 43,
            "name": "G2",
            "ticks": 51648,
            "time": 90.67411649999998,
            "velocity": 0.3937007874015748
          },
          {
            "duration": 0.6741569999999939,
            "durationTicks": 384,
            "midi": 55,
            "name": "G3",
            "ticks": 51840,
            "time": 91.01119499999999,
            "velocity": 0.3937007874015748
          },
          {
            "duration": 0.6741569999999939,
            "durationTicks": 384,
            "midi": 43,
            "name": "G2",
            "ticks": 51840,
            "time": 91.01119499999999,
            "velocity": 0.3937007874015748
          },
          {
            "duration": 0.16853925000000913,
            "durationTicks": 96,
            "midi": 60,
            "name": "C4",
            "ticks": 51936,
            "time": 91.17973424999998,
            "velocity": 0.3937007874015748
          },
          {
            "duration": 0.16853925000000913,
            "durationTicks": 96,
            "midi": 60,
            "name": "C4",
            "ticks": 51936,
            "time": 91.17973424999998,
            "velocity": 0.3937007874015748
          },
          {
            "duration": 0.16853924999999492,
            "durationTicks": 96,
            "midi": 63,
            "name": "D#4",
            "ticks": 52032,
            "time": 91.34827349999999,
            "velocity": 0.3937007874015748
          },
          {
            "duration": 0.16853924999999492,
            "durationTicks": 96,
            "midi": 63,
            "name": "D#4",
            "ticks": 52032,
            "time": 91.34827349999999,
            "velocity": 0.3937007874015748
          },
          {
            "duration": 0.16853924999999492,
            "durationTicks": 96,
            "midi": 70,
            "name": "A#4",
            "ticks": 52128,
            "time": 91.51681274999999,
            "velocity": 0.3937007874015748
          },
          {
            "duration": 0.16853924999999492,
            "durationTicks": 96,
            "midi": 70,
            "name": "A#4",
            "ticks": 52128,
            "time": 91.51681274999999,
            "velocity": 0.3937007874015748
          },
          {
            "duration": 0.16853925000000913,
            "durationTicks": 96,
            "midi": 70,
            "name": "A#4",
            "ticks": 52224,
            "time": 91.68535199999998,
            "velocity": 0.3937007874015748
          },
          {
            "duration": 1.348314000000002,
            "durationTicks": 768,
            "midi": 32,
            "name": "G#1",
            "ticks": 52224,
            "time": 91.68535199999998,
            "velocity": 0.3937007874015748
          },
          {
            "duration": 0.16853925000000913,
            "durationTicks": 96,
            "midi": 70,
            "name": "A#4",
            "ticks": 52224,
            "time": 91.68535199999998,
            "velocity": 0.3937007874015748
          },
          {
            "duration": 0.33707850000000406,
            "durationTicks": 192,
            "midi": 44,
            "name": "G#2",
            "ticks": 52224,
            "time": 91.68535199999998,
            "velocity": 0.3937007874015748
          },
          {
            "duration": 0.16853924999999492,
            "durationTicks": 96,
            "midi": 72,
            "name": "C5",
            "ticks": 52320,
            "time": 91.85389124999999,
            "velocity": 0.3937007874015748
          },
          {
            "duration": 0.16853924999999492,
            "durationTicks": 96,
            "midi": 72,
            "name": "C5",
            "ticks": 52320,
            "time": 91.85389124999999,
            "velocity": 0.3937007874015748
          },
          {
            "duration": 0.33707850000000406,
            "durationTicks": 192,
            "midi": 63,
            "name": "D#4",
            "ticks": 52416,
            "time": 92.02243049999998,
            "velocity": 0.3937007874015748
          },
          {
            "duration": 0.33707850000000406,
            "durationTicks": 192,
            "midi": 63,
            "name": "D#4",
            "ticks": 52416,
            "time": 92.02243049999998,
            "velocity": 0.3937007874015748
          },
          {
            "duration": 0.33707850000000406,
            "durationTicks": 192,
            "midi": 44,
            "name": "G#2",
            "ticks": 52416,
            "time": 92.02243049999998,
            "velocity": 0.3937007874015748
          },
          {
            "duration": 0.33707850000000406,
            "durationTicks": 192,
            "midi": 44,
            "name": "G#2",
            "ticks": 52608,
            "time": 92.35950899999999,
            "velocity": 0.3937007874015748
          },
          {
            "duration": 0.16853925000000913,
            "durationTicks": 96,
            "midi": 60,
            "name": "C4",
            "ticks": 52704,
            "time": 92.52804824999998,
            "velocity": 0.3937007874015748
          },
          {
            "duration": 0.16853925000000913,
            "durationTicks": 96,
            "midi": 60,
            "name": "C4",
            "ticks": 52704,
            "time": 92.52804824999998,
            "velocity": 0.3937007874015748
          },
          {
            "duration": 0.16853924999999492,
            "durationTicks": 96,
            "midi": 63,
            "name": "D#4",
            "ticks": 52800,
            "time": 92.69658749999999,
            "velocity": 0.3937007874015748
          },
          {
            "duration": 0.33707849999998984,
            "durationTicks": 192,
            "midi": 44,
            "name": "G#2",
            "ticks": 52800,
            "time": 92.69658749999999,
            "velocity": 0.3937007874015748
          },
          {
            "duration": 0.16853924999999492,
            "durationTicks": 96,
            "midi": 63,
            "name": "D#4",
            "ticks": 52800,
            "time": 92.69658749999999,
            "velocity": 0.3937007874015748
          },
          {
            "duration": 0.16853924999999492,
            "durationTicks": 96,
            "midi": 70,
            "name": "A#4",
            "ticks": 52896,
            "time": 92.86512674999999,
            "velocity": 0.3937007874015748
          },
          {
            "duration": 0.16853924999999492,
            "durationTicks": 96,
            "midi": 70,
            "name": "A#4",
            "ticks": 52896,
            "time": 92.86512674999999,
            "velocity": 0.3937007874015748
          },
          {
            "duration": 0.16853925000000913,
            "durationTicks": 96,
            "midi": 70,
            "name": "A#4",
            "ticks": 52992,
            "time": 93.03366599999998,
            "velocity": 0.3937007874015748
          },
          {
            "duration": 0.16853925000000913,
            "durationTicks": 96,
            "midi": 70,
            "name": "A#4",
            "ticks": 52992,
            "time": 93.03366599999998,
            "velocity": 0.3937007874015748
          },
          {
            "duration": 1.348314000000002,
            "durationTicks": 768,
            "midi": 27,
            "name": "D#1",
            "ticks": 52992,
            "time": 93.03366599999998,
            "velocity": 0.3937007874015748
          },
          {
            "duration": 0.33707850000000406,
            "durationTicks": 192,
            "midi": 39,
            "name": "D#2",
            "ticks": 52992,
            "time": 93.03366599999998,
            "velocity": 0.3937007874015748
          },
          {
            "duration": 0.16853924999999492,
            "durationTicks": 96,
            "midi": 72,
            "name": "C5",
            "ticks": 53088,
            "time": 93.20220524999999,
            "velocity": 0.3937007874015748
          },
          {
            "duration": 0.16853924999999492,
            "durationTicks": 96,
            "midi": 72,
            "name": "C5",
            "ticks": 53088,
            "time": 93.20220524999999,
            "velocity": 0.3937007874015748
          },
          {
            "duration": 0.33707850000000406,
            "durationTicks": 192,
            "midi": 63,
            "name": "D#4",
            "ticks": 53184,
            "time": 93.37074449999999,
            "velocity": 0.3937007874015748
          },
          {
            "duration": 0.33707850000000406,
            "durationTicks": 192,
            "midi": 39,
            "name": "D#2",
            "ticks": 53184,
            "time": 93.37074449999999,
            "velocity": 0.3937007874015748
          },
          {
            "duration": 0.33707850000000406,
            "durationTicks": 192,
            "midi": 63,
            "name": "D#4",
            "ticks": 53184,
            "time": 93.37074449999999,
            "velocity": 0.3937007874015748
          },
          {
            "duration": 0.33707849999998984,
            "durationTicks": 192,
            "midi": 39,
            "name": "D#2",
            "ticks": 53376,
            "time": 93.70782299999999,
            "velocity": 0.3937007874015748
          },
          {
            "duration": 0.16853924999999492,
            "durationTicks": 96,
            "midi": 60,
            "name": "C4",
            "ticks": 53472,
            "time": 93.87636224999999,
            "velocity": 0.3937007874015748
          },
          {
            "duration": 0.16853924999999492,
            "durationTicks": 96,
            "midi": 60,
            "name": "C4",
            "ticks": 53472,
            "time": 93.87636224999999,
            "velocity": 0.3937007874015748
          },
          {
            "duration": 0.16853925000000913,
            "durationTicks": 96,
            "midi": 63,
            "name": "D#4",
            "ticks": 53568,
            "time": 94.04490149999998,
            "velocity": 0.3937007874015748
          },
          {
            "duration": 0.33707850000000406,
            "durationTicks": 192,
            "midi": 39,
            "name": "D#2",
            "ticks": 53568,
            "time": 94.04490149999998,
            "velocity": 0.3937007874015748
          },
          {
            "duration": 0.16853925000000913,
            "durationTicks": 96,
            "midi": 63,
            "name": "D#4",
            "ticks": 53568,
            "time": 94.04490149999998,
            "velocity": 0.3937007874015748
          },
          {
            "duration": 0.16853924999999492,
            "durationTicks": 96,
            "midi": 62,
            "name": "D4",
            "ticks": 53664,
            "time": 94.21344074999999,
            "velocity": 0.3937007874015748
          },
          {
            "duration": 0.16853924999999492,
            "durationTicks": 96,
            "midi": 62,
            "name": "D4",
            "ticks": 53664,
            "time": 94.21344074999999,
            "velocity": 0.3937007874015748
          },
          {
            "duration": 1.348314000000002,
            "durationTicks": 768,
            "midi": 31,
            "name": "G1",
            "ticks": 53760,
            "time": 94.38197999999998,
            "velocity": 0.3937007874015748
          },
          {
            "duration": 0.33707850000000406,
            "durationTicks": 192,
            "midi": 43,
            "name": "G2",
            "ticks": 53760,
            "time": 94.38197999999998,
            "velocity": 0.3937007874015748
          },
          {
            "duration": 0.16853924999999492,
            "durationTicks": 96,
            "midi": 67,
            "name": "G4",
            "ticks": 53760,
            "time": 94.38197999999998,
            "velocity": 0.3937007874015748
          },
          {
            "duration": 0.16853924999999492,
            "durationTicks": 96,
            "midi": 67,
            "name": "G4",
            "ticks": 53760,
            "time": 94.38197999999998,
            "velocity": 0.3937007874015748
          },
          {
            "duration": 0.16853925000000913,
            "durationTicks": 96,
            "midi": 67,
            "name": "G4",
            "ticks": 53856,
            "time": 94.55051924999998,
            "velocity": 0.3937007874015748
          },
          {
            "duration": 0.16853925000000913,
            "durationTicks": 96,
            "midi": 67,
            "name": "G4",
            "ticks": 53856,
            "time": 94.55051924999998,
            "velocity": 0.3937007874015748
          },
          {
            "duration": 0.16853924999999492,
            "durationTicks": 96,
            "midi": 67,
            "name": "G4",
            "ticks": 53952,
            "time": 94.71905849999999,
            "velocity": 0.3937007874015748
          },
          {
            "duration": 0.33707849999998984,
            "durationTicks": 192,
            "midi": 43,
            "name": "G2",
            "ticks": 53952,
            "time": 94.71905849999999,
            "velocity": 0.3937007874015748
          },
          {
            "duration": 0.16853924999999492,
            "durationTicks": 96,
            "midi": 67,
            "name": "G4",
            "ticks": 53952,
            "time": 94.71905849999999,
            "velocity": 0.3937007874015748
          },
          {
            "duration": 0.16853924999999492,
            "durationTicks": 96,
            "midi": 68,
            "name": "G#4",
            "ticks": 54048,
            "time": 94.88759774999998,
            "velocity": 0.3937007874015748
          },
          {
            "duration": 0.16853924999999492,
            "durationTicks": 96,
            "midi": 68,
            "name": "G#4",
            "ticks": 54048,
            "time": 94.88759774999998,
            "velocity": 0.3937007874015748
          },
          {
            "duration": 0.16853925000000913,
            "durationTicks": 96,
            "midi": 67,
            "name": "G4",
            "ticks": 54144,
            "time": 95.05613699999998,
            "velocity": 0.3937007874015748
          },
          {
            "duration": 0.33707850000000406,
            "durationTicks": 192,
            "midi": 43,
            "name": "G2",
            "ticks": 54144,
            "time": 95.05613699999998,
            "velocity": 0.3937007874015748
          },
          {
            "duration": 0.16853925000000913,
            "durationTicks": 96,
            "midi": 67,
            "name": "G4",
            "ticks": 54144,
            "time": 95.05613699999998,
            "velocity": 0.3937007874015748
          },
          {
            "duration": 0.16853924999999492,
            "durationTicks": 96,
            "midi": 67,
            "name": "G4",
            "ticks": 54240,
            "time": 95.22467624999999,
            "velocity": 0.3937007874015748
          },
          {
            "duration": 0.16853924999999492,
            "durationTicks": 96,
            "midi": 67,
            "name": "G4",
            "ticks": 54240,
            "time": 95.22467624999999,
            "velocity": 0.3937007874015748
          },
          {
            "duration": 0.16853925000000913,
            "durationTicks": 96,
            "midi": 65,
            "name": "F4",
            "ticks": 54336,
            "time": 95.39321549999998,
            "velocity": 0.3937007874015748
          },
          {
            "duration": 0.16853925000000913,
            "durationTicks": 96,
            "midi": 65,
            "name": "F4",
            "ticks": 54336,
            "time": 95.39321549999998,
            "velocity": 0.3937007874015748
          },
          {
            "duration": 0.33707850000000406,
            "durationTicks": 192,
            "midi": 43,
            "name": "G2",
            "ticks": 54336,
            "time": 95.39321549999998,
            "velocity": 0.3937007874015748
          },
          {
            "duration": 0.33707849999998984,
            "durationTicks": 192,
            "midi": 65,
            "name": "F4",
            "ticks": 54432,
            "time": 95.56175474999999,
            "velocity": 0.3937007874015748
          },
          {
            "duration": 0.33707849999998984,
            "durationTicks": 192,
            "midi": 65,
            "name": "F4",
            "ticks": 54432,
            "time": 95.56175474999999,
            "velocity": 0.3937007874015748
          },
          {
            "duration": 0.6741569999999939,
            "durationTicks": 384,
            "midi": 24,
            "name": "C1",
            "ticks": 54528,
            "time": 95.73029399999999,
            "velocity": 0.3937007874015748
          },
          {
            "duration": 0.33707850000000406,
            "durationTicks": 192,
            "midi": 36,
            "name": "C2",
            "ticks": 54528,
            "time": 95.73029399999999,
            "velocity": 0.3937007874015748
          },
          {
            "duration": 0.505617749999999,
            "durationTicks": 288,
            "midi": 63,
            "name": "D#4",
            "ticks": 54624,
            "time": 95.89883324999998,
            "velocity": 0.3937007874015748
          },
          {
            "duration": 0.505617749999999,
            "durationTicks": 288,
            "midi": 63,
            "name": "D#4",
            "ticks": 54624,
            "time": 95.89883324999998,
            "velocity": 0.3937007874015748
          },
          {
            "duration": 0.33707849999998984,
            "durationTicks": 192,
            "midi": 36,
            "name": "C2",
            "ticks": 54720,
            "time": 96.06737249999999,
            "velocity": 0.3937007874015748
          },
          {
            "duration": 0.6741570000000081,
            "durationTicks": 384,
            "midi": 27,
            "name": "D#1",
            "ticks": 54912,
            "time": 96.40445099999998,
            "velocity": 0.3937007874015748
          },
          {
            "duration": 0.33707850000000406,
            "durationTicks": 192,
            "midi": 39,
            "name": "D#2",
            "ticks": 54912,
            "time": 96.40445099999998,
            "velocity": 0.3937007874015748
          },
          {
            "duration": 0.16853924999999492,
            "durationTicks": 96,
            "midi": 60,
            "name": "C4",
            "ticks": 55008,
            "time": 96.57299024999999,
            "velocity": 0.3937007874015748
          },
          {
            "duration": 0.16853924999999492,
            "durationTicks": 96,
            "midi": 60,
            "name": "C4",
            "ticks": 55008,
            "time": 96.57299024999999,
            "velocity": 0.3937007874015748
          },
          {
            "duration": 0.16853924999999492,
            "durationTicks": 96,
            "midi": 63,
            "name": "D#4",
            "ticks": 55104,
            "time": 96.74152949999998,
            "velocity": 0.3937007874015748
          },
          {
            "duration": 0.16853924999999492,
            "durationTicks": 96,
            "midi": 63,
            "name": "D#4",
            "ticks": 55104,
            "time": 96.74152949999998,
            "velocity": 0.3937007874015748
          },
          {
            "duration": 0.33707850000000406,
            "durationTicks": 192,
            "midi": 39,
            "name": "D#2",
            "ticks": 55104,
            "time": 96.74152949999998,
            "velocity": 0.3937007874015748
          },
          {
            "duration": 0.16853925000000913,
            "durationTicks": 96,
            "midi": 70,
            "name": "A#4",
            "ticks": 55200,
            "time": 96.91006874999998,
            "velocity": 0.3937007874015748
          },
          {
            "duration": 0.16853925000000913,
            "durationTicks": 96,
            "midi": 70,
            "name": "A#4",
            "ticks": 55200,
            "time": 96.91006874999998,
            "velocity": 0.3937007874015748
          },
          {
            "duration": 0.16853924999999492,
            "durationTicks": 96,
            "midi": 70,
            "name": "A#4",
            "ticks": 55296,
            "time": 97.07860799999999,
            "velocity": 0.3937007874015748
          },
          {
            "duration": 1.348314000000002,
            "durationTicks": 768,
            "midi": 32,
            "name": "G#1",
            "ticks": 55296,
            "time": 97.07860799999999,
            "velocity": 0.3937007874015748
          },
          {
            "duration": 0.33707849999998984,
            "durationTicks": 192,
            "midi": 44,
            "name": "G#2",
            "ticks": 55296,
            "time": 97.07860799999999,
            "velocity": 0.3937007874015748
          },
          {
            "duration": 0.16853924999999492,
            "durationTicks": 96,
            "midi": 70,
            "name": "A#4",
            "ticks": 55296,
            "time": 97.07860799999999,
            "velocity": 0.3937007874015748
          },
          {
            "duration": 0.16853924999999492,
            "durationTicks": 96,
            "midi": 72,
            "name": "C5",
            "ticks": 55392,
            "time": 97.24714724999998,
            "velocity": 0.3937007874015748
          },
          {
            "duration": 0.16853924999999492,
            "durationTicks": 96,
            "midi": 72,
            "name": "C5",
            "ticks": 55392,
            "time": 97.24714724999998,
            "velocity": 0.3937007874015748
          },
          {
            "duration": 0.33707850000000406,
            "durationTicks": 192,
            "midi": 63,
            "name": "D#4",
            "ticks": 55488,
            "time": 97.41568649999998,
            "velocity": 0.3937007874015748
          },
          {
            "duration": 0.33707850000000406,
            "durationTicks": 192,
            "midi": 63,
            "name": "D#4",
            "ticks": 55488,
            "time": 97.41568649999998,
            "velocity": 0.3937007874015748
          },
          {
            "duration": 0.33707850000000406,
            "durationTicks": 192,
            "midi": 44,
            "name": "G#2",
            "ticks": 55488,
            "time": 97.41568649999998,
            "velocity": 0.3937007874015748
          },
          {
            "duration": 0.33707850000000406,
            "durationTicks": 192,
            "midi": 44,
            "name": "G#2",
            "ticks": 55680,
            "time": 97.75276499999998,
            "velocity": 0.3937007874015748
          },
          {
            "duration": 0.16853924999999492,
            "durationTicks": 96,
            "midi": 60,
            "name": "C4",
            "ticks": 55776,
            "time": 97.92130424999999,
            "velocity": 0.3937007874015748
          },
          {
            "duration": 0.16853924999999492,
            "durationTicks": 96,
            "midi": 60,
            "name": "C4",
            "ticks": 55776,
            "time": 97.92130424999999,
            "velocity": 0.3937007874015748
          },
          {
            "duration": 0.16853924999999492,
            "durationTicks": 96,
            "midi": 63,
            "name": "D#4",
            "ticks": 55872,
            "time": 98.08984349999999,
            "velocity": 0.3937007874015748
          },
          {
            "duration": 0.16853924999999492,
            "durationTicks": 96,
            "midi": 63,
            "name": "D#4",
            "ticks": 55872,
            "time": 98.08984349999999,
            "velocity": 0.3937007874015748
          },
          {
            "duration": 0.33707850000000406,
            "durationTicks": 192,
            "midi": 44,
            "name": "G#2",
            "ticks": 55872,
            "time": 98.08984349999999,
            "velocity": 0.3937007874015748
          },
          {
            "duration": 0.16853925000000913,
            "durationTicks": 96,
            "midi": 70,
            "name": "A#4",
            "ticks": 55968,
            "time": 98.25838274999998,
            "velocity": 0.3937007874015748
          },
          {
            "duration": 0.16853925000000913,
            "durationTicks": 96,
            "midi": 70,
            "name": "A#4",
            "ticks": 55968,
            "time": 98.25838274999998,
            "velocity": 0.3937007874015748
          },
          {
            "duration": 0.16853924999999492,
            "durationTicks": 96,
            "midi": 70,
            "name": "A#4",
            "ticks": 56064,
            "time": 98.42692199999999,
            "velocity": 0.3937007874015748
          },
          {
            "duration": 0.33707849999998984,
            "durationTicks": 192,
            "midi": 39,
            "name": "D#2",
            "ticks": 56064,
            "time": 98.42692199999999,
            "velocity": 0.3937007874015748
          },
          {
            "duration": 1.3483139999999878,
            "durationTicks": 768,
            "midi": 27,
            "name": "D#1",
            "ticks": 56064,
            "time": 98.42692199999999,
            "velocity": 0.3937007874015748
          },
          {
            "duration": 0.16853924999999492,
            "durationTicks": 96,
            "midi": 70,
            "name": "A#4",
            "ticks": 56064,
            "time": 98.42692199999999,
            "velocity": 0.3937007874015748
          },
          {
            "duration": 0.16853924999999492,
            "durationTicks": 96,
            "midi": 72,
            "name": "C5",
            "ticks": 56160,
            "time": 98.59546124999999,
            "velocity": 0.3937007874015748
          },
          {
            "duration": 0.16853924999999492,
            "durationTicks": 96,
            "midi": 72,
            "name": "C5",
            "ticks": 56160,
            "time": 98.59546124999999,
            "velocity": 0.3937007874015748
          },
          {
            "duration": 0.33707850000000406,
            "durationTicks": 192,
            "midi": 67,
            "name": "G4",
            "ticks": 56256,
            "time": 98.76400049999998,
            "velocity": 0.3937007874015748
          },
          {
            "duration": 0.33707850000000406,
            "durationTicks": 192,
            "midi": 39,
            "name": "D#2",
            "ticks": 56256,
            "time": 98.76400049999998,
            "velocity": 0.3937007874015748
          },
          {
            "duration": 0.33707850000000406,
            "durationTicks": 192,
            "midi": 67,
            "name": "G4",
            "ticks": 56256,
            "time": 98.76400049999998,
            "velocity": 0.3937007874015748
          },
          {
            "duration": 0.33707850000000406,
            "durationTicks": 192,
            "midi": 39,
            "name": "D#2",
            "ticks": 56448,
            "time": 99.10107899999998,
            "velocity": 0.3937007874015748
          },
          {
            "duration": 0.16853925000000913,
            "durationTicks": 96,
            "midi": 62,
            "name": "D4",
            "ticks": 56544,
            "time": 99.26961824999998,
            "velocity": 0.3937007874015748
          },
          {
            "duration": 0.16853925000000913,
            "durationTicks": 96,
            "midi": 62,
            "name": "D4",
            "ticks": 56544,
            "time": 99.26961824999998,
            "velocity": 0.3937007874015748
          },
          {
            "duration": 0.16853924999999492,
            "durationTicks": 96,
            "midi": 67,
            "name": "G4",
            "ticks": 56640,
            "time": 99.43815749999999,
            "velocity": 0.3937007874015748
          },
          {
            "duration": 0.33707849999998984,
            "durationTicks": 192,
            "midi": 39,
            "name": "D#2",
            "ticks": 56640,
            "time": 99.43815749999999,
            "velocity": 0.3937007874015748
          },
          {
            "duration": 0.16853924999999492,
            "durationTicks": 96,
            "midi": 67,
            "name": "G4",
            "ticks": 56640,
            "time": 99.43815749999999,
            "velocity": 0.3937007874015748
          },
          {
            "duration": 0.16853924999999492,
            "durationTicks": 96,
            "midi": 75,
            "name": "D#5",
            "ticks": 56736,
            "time": 99.60669674999998,
            "velocity": 0.3937007874015748
          },
          {
            "duration": 0.16853924999999492,
            "durationTicks": 96,
            "midi": 75,
            "name": "D#5",
            "ticks": 56736,
            "time": 99.60669674999998,
            "velocity": 0.3937007874015748
          },
          {
            "duration": 0.16853925000000913,
            "durationTicks": 96,
            "midi": 74,
            "name": "D5",
            "ticks": 56832,
            "time": 99.77523599999998,
            "velocity": 0.3937007874015748
          },
          {
            "duration": 0.33707850000000406,
            "durationTicks": 192,
            "midi": 43,
            "name": "G2",
            "ticks": 56832,
            "time": 99.77523599999998,
            "velocity": 0.3937007874015748
          },
          {
            "duration": 1.348314000000002,
            "durationTicks": 768,
            "midi": 31,
            "name": "G1",
            "ticks": 56832,
            "time": 99.77523599999998,
            "velocity": 0.3937007874015748
          },
          {
            "duration": 0.16853925000000913,
            "durationTicks": 96,
            "midi": 74,
            "name": "D5",
            "ticks": 56832,
            "time": 99.77523599999998,
            "velocity": 0.3937007874015748
          },
          {
            "duration": 0.33707850000000406,
            "durationTicks": 192,
            "midi": 74,
            "name": "D5",
            "ticks": 56928,
            "time": 99.94377524999999,
            "velocity": 0.3937007874015748
          },
          {
            "duration": 0.33707850000000406,
            "durationTicks": 192,
            "midi": 74,
            "name": "D5",
            "ticks": 56928,
            "time": 99.94377524999999,
            "velocity": 0.3937007874015748
          },
          {
            "duration": 0.33707850000000406,
            "durationTicks": 192,
            "midi": 43,
            "name": "G2",
            "ticks": 57024,
            "time": 100.11231449999998,
            "velocity": 0.3937007874015748
          },
          {
            "duration": 0.16853924999999492,
            "durationTicks": 96,
            "midi": 72,
            "name": "C5",
            "ticks": 57120,
            "time": 100.28085374999999,
            "velocity": 0.3937007874015748
          },
          {
            "duration": 0.16853924999999492,
            "durationTicks": 96,
            "midi": 72,
            "name": "C5",
            "ticks": 57120,
            "time": 100.28085374999999,
            "velocity": 0.3937007874015748
          },
          {
            "duration": 0.16853924999999492,
            "durationTicks": 96,
            "midi": 74,
            "name": "D5",
            "ticks": 57216,
            "time": 100.44939299999999,
            "velocity": 0.3937007874015748
          },
          {
            "duration": 0.16853924999999492,
            "durationTicks": 96,
            "midi": 74,
            "name": "D5",
            "ticks": 57216,
            "time": 100.44939299999999,
            "velocity": 0.3937007874015748
          },
          {
            "duration": 0.33707850000000406,
            "durationTicks": 192,
            "midi": 43,
            "name": "G2",
            "ticks": 57216,
            "time": 100.44939299999999,
            "velocity": 0.3937007874015748
          },
          {
            "duration": 0.16853925000000913,
            "durationTicks": 96,
            "midi": 75,
            "name": "D#5",
            "ticks": 57312,
            "time": 100.61793224999998,
            "velocity": 0.3937007874015748
          },
          {
            "duration": 0.16853925000000913,
            "durationTicks": 96,
            "midi": 75,
            "name": "D#5",
            "ticks": 57312,
            "time": 100.61793224999998,
            "velocity": 0.3937007874015748
          },
          {
            "duration": 0.33707849999998984,
            "durationTicks": 192,
            "midi": 43,
            "name": "G2",
            "ticks": 57408,
            "time": 100.78647149999999,
            "velocity": 0.3937007874015748
          },
          {
            "duration": 0.16853924999999492,
            "durationTicks": 96,
            "midi": 74,
            "name": "D5",
            "ticks": 57408,
            "time": 100.78647149999999,
            "velocity": 0.3937007874015748
          },
          {
            "duration": 0.16853924999999492,
            "durationTicks": 96,
            "midi": 74,
            "name": "D5",
            "ticks": 57408,
            "time": 100.78647149999999,
            "velocity": 0.3937007874015748
          },
          {
            "duration": 0.33707850000000406,
            "durationTicks": 192,
            "midi": 74,
            "name": "D5",
            "ticks": 57504,
            "time": 100.95501074999999,
            "velocity": 0.3937007874015748
          },
          {
            "duration": 0.33707850000000406,
            "durationTicks": 192,
            "midi": 74,
            "name": "D5",
            "ticks": 57504,
            "time": 100.95501074999999,
            "velocity": 0.3937007874015748
          },
          {
            "duration": 0.6741570000000081,
            "durationTicks": 384,
            "midi": 24,
            "name": "C1",
            "ticks": 57600,
            "time": 101.12354999999998,
            "velocity": 0.3937007874015748
          },
          {
            "duration": 0.33707850000000406,
            "durationTicks": 192,
            "midi": 36,
            "name": "C2",
            "ticks": 57600,
            "time": 101.12354999999998,
            "velocity": 0.3937007874015748
          },
          {
            "duration": 0.16853924999999492,
            "durationTicks": 96,
            "midi": 72,
            "name": "C5",
            "ticks": 57696,
            "time": 101.29208924999999,
            "velocity": 0.3937007874015748
          },
          {
            "duration": 0.505617749999999,
            "durationTicks": 288,
            "midi": 72,
            "name": "C5",
            "ticks": 57696,
            "time": 101.29208924999999,
            "velocity": 0.3937007874015748
          },
          {
            "duration": 0.33707850000000406,
            "durationTicks": 192,
            "midi": 67,
            "name": "G4",
            "ticks": 57792,
            "time": 101.46062849999998,
            "velocity": 0.3937007874015748
          },
          {
            "duration": 0.33707850000000406,
            "durationTicks": 192,
            "midi": 36,
            "name": "C2",
            "ticks": 57792,
            "time": 101.46062849999998,
            "velocity": 0.3937007874015748
          },
          {
            "duration": 0.33707849999998984,
            "durationTicks": 192,
            "midi": 39,
            "name": "D#2",
            "ticks": 57984,
            "time": 101.79770699999999,
            "velocity": 0.3937007874015748
          },
          {
            "duration": 0.6741569999999939,
            "durationTicks": 384,
            "midi": 27,
            "name": "D#1",
            "ticks": 57984,
            "time": 101.79770699999999,
            "velocity": 0.3937007874015748
          },
          {
            "duration": 0.16853924999999492,
            "durationTicks": 96,
            "midi": 60,
            "name": "C4",
            "ticks": 58080,
            "time": 101.96624624999998,
            "velocity": 0.3937007874015748
          },
          {
            "duration": 0.16853924999999492,
            "durationTicks": 96,
            "midi": 60,
            "name": "C4",
            "ticks": 58080,
            "time": 101.96624624999998,
            "velocity": 0.3937007874015748
          },
          {
            "duration": 0.16853925000000913,
            "durationTicks": 96,
            "midi": 63,
            "name": "D#4",
            "ticks": 58176,
            "time": 102.13478549999998,
            "velocity": 0.3937007874015748
          },
          {
            "duration": 0.16853925000000913,
            "durationTicks": 96,
            "midi": 63,
            "name": "D#4",
            "ticks": 58176,
            "time": 102.13478549999998,
            "velocity": 0.3937007874015748
          },
          {
            "duration": 0.33707850000000406,
            "durationTicks": 192,
            "midi": 39,
            "name": "D#2",
            "ticks": 58176,
            "time": 102.13478549999998,
            "velocity": 0.3937007874015748
          },
          {
            "duration": 0.16853924999999492,
            "durationTicks": 96,
            "midi": 70,
            "name": "A#4",
            "ticks": 58272,
            "time": 102.30332474999999,
            "velocity": 0.3937007874015748
          },
          {
            "duration": 0.16853924999999492,
            "durationTicks": 96,
            "midi": 70,
            "name": "A#4",
            "ticks": 58272,
            "time": 102.30332474999999,
            "velocity": 0.3937007874015748
          },
          {
            "duration": 0.33707850000000406,
            "durationTicks": 192,
            "midi": 44,
            "name": "G#2",
            "ticks": 58368,
            "time": 102.47186399999998,
            "velocity": 0.3937007874015748
          },
          {
            "duration": 1.348314000000002,
            "durationTicks": 768,
            "midi": 32,
            "name": "G#1",
            "ticks": 58368,
            "time": 102.47186399999998,
            "velocity": 0.3937007874015748
          },
          {
            "duration": 0.16853924999999492,
            "durationTicks": 96,
            "midi": 70,
            "name": "A#4",
            "ticks": 58368,
            "time": 102.47186399999998,
            "velocity": 0.3937007874015748
          },
          {
            "duration": 0.16853924999999492,
            "durationTicks": 96,
            "midi": 70,
            "name": "A#4",
            "ticks": 58368,
            "time": 102.47186399999998,
            "velocity": 0.3937007874015748
          },
          {
            "duration": 0.16853925000000913,
            "durationTicks": 96,
            "midi": 72,
            "name": "C5",
            "ticks": 58464,
            "time": 102.64040324999998,
            "velocity": 0.3937007874015748
          },
          {
            "duration": 0.16853925000000913,
            "durationTicks": 96,
            "midi": 72,
            "name": "C5",
            "ticks": 58464,
            "time": 102.64040324999998,
            "velocity": 0.3937007874015748
          },
          {
            "duration": 0.33707850000000406,
            "durationTicks": 192,
            "midi": 63,
            "name": "D#4",
            "ticks": 58560,
            "time": 102.80894249999999,
            "velocity": 0.3937007874015748
          },
          {
            "duration": 0.33707850000000406,
            "durationTicks": 192,
            "midi": 44,
            "name": "G#2",
            "ticks": 58560,
            "time": 102.80894249999999,
            "velocity": 0.3937007874015748
          },
          {
            "duration": 0.33707850000000406,
            "durationTicks": 192,
            "midi": 63,
            "name": "D#4",
            "ticks": 58560,
            "time": 102.80894249999999,
            "velocity": 0.3937007874015748
          },
          {
            "duration": 0.33707849999998984,
            "durationTicks": 192,
            "midi": 44,
            "name": "G#2",
            "ticks": 58752,
            "time": 103.14602099999999,
            "velocity": 0.3937007874015748
          },
          {
            "duration": 0.16853924999999492,
            "durationTicks": 96,
            "midi": 60,
            "name": "C4",
            "ticks": 58848,
            "time": 103.31456024999999,
            "velocity": 0.3937007874015748
          },
          {
            "duration": 0.16853924999999492,
            "durationTicks": 96,
            "midi": 60,
            "name": "C4",
            "ticks": 58848,
            "time": 103.31456024999999,
            "velocity": 0.3937007874015748
          },
          {
            "duration": 0.16853925000000913,
            "durationTicks": 96,
            "midi": 63,
            "name": "D#4",
            "ticks": 58944,
            "time": 103.48309949999998,
            "velocity": 0.3937007874015748
          },
          {
            "duration": 0.16853925000000913,
            "durationTicks": 96,
            "midi": 63,
            "name": "D#4",
            "ticks": 58944,
            "time": 103.48309949999998,
            "velocity": 0.3937007874015748
          },
          {
            "duration": 0.33707850000000406,
            "durationTicks": 192,
            "midi": 44,
            "name": "G#2",
            "ticks": 58944,
            "time": 103.48309949999998,
            "velocity": 0.3937007874015748
          },
          {
            "duration": 0.16853924999999492,
            "durationTicks": 96,
            "midi": 70,
            "name": "A#4",
            "ticks": 59040,
            "time": 103.65163874999999,
            "velocity": 0.3937007874015748
          },
          {
            "duration": 0.16853924999999492,
            "durationTicks": 96,
            "midi": 70,
            "name": "A#4",
            "ticks": 59040,
            "time": 103.65163874999999,
            "velocity": 0.3937007874015748
          },
          {
            "duration": 1.348314000000002,
            "durationTicks": 768,
            "midi": 27,
            "name": "D#1",
            "ticks": 59136,
            "time": 103.82017799999998,
            "velocity": 0.3937007874015748
          },
          {
            "duration": 0.16853924999999492,
            "durationTicks": 96,
            "midi": 70,
            "name": "A#4",
            "ticks": 59136,
            "time": 103.82017799999998,
            "velocity": 0.3937007874015748
          },
          {
            "duration": 0.33707850000000406,
            "durationTicks": 192,
            "midi": 39,
            "name": "D#2",
            "ticks": 59136,
            "time": 103.82017799999998,
            "velocity": 0.3937007874015748
          },
          {
            "duration": 0.16853924999999492,
            "durationTicks": 96,
            "midi": 70,
            "name": "A#4",
            "ticks": 59136,
            "time": 103.82017799999998,
            "velocity": 0.3937007874015748
          },
          {
            "duration": 0.16853925000000913,
            "durationTicks": 96,
            "midi": 72,
            "name": "C5",
            "ticks": 59232,
            "time": 103.98871724999998,
            "velocity": 0.3937007874015748
          },
          {
            "duration": 0.16853925000000913,
            "durationTicks": 96,
            "midi": 72,
            "name": "C5",
            "ticks": 59232,
            "time": 103.98871724999998,
            "velocity": 0.3937007874015748
          },
          {
            "duration": 0.33707849999998984,
            "durationTicks": 192,
            "midi": 39,
            "name": "D#2",
            "ticks": 59328,
            "time": 104.15725649999999,
            "velocity": 0.3937007874015748
          },
          {
            "duration": 0.33707849999998984,
            "durationTicks": 192,
            "midi": 63,
            "name": "D#4",
            "ticks": 59328,
            "time": 104.15725649999999,
            "velocity": 0.3937007874015748
          },
          {
            "duration": 0.33707849999998984,
            "durationTicks": 192,
            "midi": 63,
            "name": "D#4",
            "ticks": 59328,
            "time": 104.15725649999999,
            "velocity": 0.3937007874015748
          },
          {
            "duration": 0.33707850000000406,
            "durationTicks": 192,
            "midi": 39,
            "name": "D#2",
            "ticks": 59520,
            "time": 104.49433499999998,
            "velocity": 0.3937007874015748
          },
          {
            "duration": 0.16853924999999492,
            "durationTicks": 96,
            "midi": 60,
            "name": "C4",
            "ticks": 59616,
            "time": 104.66287424999999,
            "velocity": 0.3937007874015748
          },
          {
            "duration": 0.16853924999999492,
            "durationTicks": 96,
            "midi": 60,
            "name": "C4",
            "ticks": 59616,
            "time": 104.66287424999999,
            "velocity": 0.3937007874015748
          },
          {
            "duration": 0.16853924999999492,
            "durationTicks": 96,
            "midi": 63,
            "name": "D#4",
            "ticks": 59712,
            "time": 104.83141349999998,
            "velocity": 0.3937007874015748
          },
          {
            "duration": 0.33707850000000406,
            "durationTicks": 192,
            "midi": 39,
            "name": "D#2",
            "ticks": 59712,
            "time": 104.83141349999998,
            "velocity": 0.3937007874015748
          },
          {
            "duration": 0.16853924999999492,
            "durationTicks": 96,
            "midi": 63,
            "name": "D#4",
            "ticks": 59712,
            "time": 104.83141349999998,
            "velocity": 0.3937007874015748
          },
          {
            "duration": 0.16853925000000913,
            "durationTicks": 96,
            "midi": 67,
            "name": "G4",
            "ticks": 59808,
            "time": 104.99995274999998,
            "velocity": 0.3937007874015748
          },
          {
            "duration": 0.16853925000000913,
            "durationTicks": 96,
            "midi": 67,
            "name": "G4",
            "ticks": 59808,
            "time": 104.99995274999998,
            "velocity": 0.3937007874015748
          },
          {
            "duration": 1.348314000000002,
            "durationTicks": 768,
            "midi": 31,
            "name": "G1",
            "ticks": 59904,
            "time": 105.16849199999999,
            "velocity": 0.3937007874015748
          },
          {
            "duration": 0.16853924999999492,
            "durationTicks": 96,
            "midi": 67,
            "name": "G4",
            "ticks": 59904,
            "time": 105.16849199999999,
            "velocity": 0.3937007874015748
          },
          {
            "duration": 0.16853924999999492,
            "durationTicks": 96,
            "midi": 67,
            "name": "G4",
            "ticks": 59904,
            "time": 105.16849199999999,
            "velocity": 0.3937007874015748
          },
          {
            "duration": 0.33707850000000406,
            "durationTicks": 192,
            "midi": 43,
            "name": "G2",
            "ticks": 59904,
            "time": 105.16849199999999,
            "velocity": 0.3937007874015748
          },
          {
            "duration": 0.16853925000000913,
            "durationTicks": 96,
            "midi": 67,
            "name": "G4",
            "ticks": 60000,
            "time": 105.33703124999998,
            "velocity": 0.3937007874015748
          },
          {
            "duration": 0.16853925000000913,
            "durationTicks": 96,
            "midi": 67,
            "name": "G4",
            "ticks": 60000,
            "time": 105.33703124999998,
            "velocity": 0.3937007874015748
          },
          {
            "duration": 0.16853924999999492,
            "durationTicks": 96,
            "midi": 67,
            "name": "G4",
            "ticks": 60096,
            "time": 105.50557049999999,
            "velocity": 0.3937007874015748
          },
          {
            "duration": 0.33707849999998984,
            "durationTicks": 192,
            "midi": 43,
            "name": "G2",
            "ticks": 60096,
            "time": 105.50557049999999,
            "velocity": 0.3937007874015748
          },
          {
            "duration": 0.16853924999999492,
            "durationTicks": 96,
            "midi": 67,
            "name": "G4",
            "ticks": 60096,
            "time": 105.50557049999999,
            "velocity": 0.3937007874015748
          },
          {
            "duration": 0.16853924999999492,
            "durationTicks": 96,
            "midi": 68,
            "name": "G#4",
            "ticks": 60192,
            "time": 105.67410974999999,
            "velocity": 0.3937007874015748
          },
          {
            "duration": 0.16853924999999492,
            "durationTicks": 96,
            "midi": 68,
            "name": "G#4",
            "ticks": 60192,
            "time": 105.67410974999999,
            "velocity": 0.3937007874015748
          },
          {
            "duration": 0.33707850000000406,
            "durationTicks": 192,
            "midi": 67,
            "name": "G4",
            "ticks": 60288,
            "time": 105.84264899999998,
            "velocity": 0.3937007874015748
          },
          {
            "duration": 0.33707850000000406,
            "durationTicks": 192,
            "midi": 43,
            "name": "G2",
            "ticks": 60288,
            "time": 105.84264899999998,
            "velocity": 0.3937007874015748
          },
          {
            "duration": 0.33707850000000406,
            "durationTicks": 192,
            "midi": 67,
            "name": "G4",
            "ticks": 60288,
            "time": 105.84264899999998,
            "velocity": 0.3937007874015748
          },
          {
            "duration": 0.16853924999999492,
            "durationTicks": 96,
            "midi": 65,
            "name": "F4",
            "ticks": 60480,
            "time": 106.17972749999998,
            "velocity": 0.3937007874015748
          },
          {
            "duration": 0.16853924999999492,
            "durationTicks": 96,
            "midi": 65,
            "name": "F4",
            "ticks": 60480,
            "time": 106.17972749999998,
            "velocity": 0.3937007874015748
          },
          {
            "duration": 0.33707850000000406,
            "durationTicks": 192,
            "midi": 43,
            "name": "G2",
            "ticks": 60480,
            "time": 106.17972749999998,
            "velocity": 0.3937007874015748
          },
          {
            "duration": 0.33707850000000406,
            "durationTicks": 192,
            "midi": 65,
            "name": "F4",
            "ticks": 60576,
            "time": 106.34826674999998,
            "velocity": 0.3937007874015748
          },
          {
            "duration": 0.33707850000000406,
            "durationTicks": 192,
            "midi": 65,
            "name": "F4",
            "ticks": 60576,
            "time": 106.34826674999998,
            "velocity": 0.3937007874015748
          },
          {
            "duration": 0.33707849999998984,
            "durationTicks": 192,
            "midi": 36,
            "name": "C2",
            "ticks": 60672,
            "time": 106.51680599999999,
            "velocity": 0.3937007874015748
          },
          {
            "duration": 0.6741569999999939,
            "durationTicks": 384,
            "midi": 24,
            "name": "C1",
            "ticks": 60672,
            "time": 106.51680599999999,
            "velocity": 0.3937007874015748
          },
          {
            "duration": 0.505617749999999,
            "durationTicks": 288,
            "midi": 63,
            "name": "D#4",
            "ticks": 60768,
            "time": 106.68534524999998,
            "velocity": 0.3937007874015748
          },
          {
            "duration": 0.505617749999999,
            "durationTicks": 288,
            "midi": 63,
            "name": "D#4",
            "ticks": 60768,
            "time": 106.68534524999998,
            "velocity": 0.3937007874015748
          },
          {
            "duration": 0.33707850000000406,
            "durationTicks": 192,
            "midi": 36,
            "name": "C2",
            "ticks": 60864,
            "time": 106.85388449999998,
            "velocity": 0.3937007874015748
          },
          {
            "duration": 0.33707850000000406,
            "durationTicks": 192,
            "midi": 39,
            "name": "D#2",
            "ticks": 61056,
            "time": 107.19096299999998,
            "velocity": 0.3937007874015748
          },
          {
            "duration": 0.6741570000000081,
            "durationTicks": 384,
            "midi": 27,
            "name": "D#1",
            "ticks": 61056,
            "time": 107.19096299999998,
            "velocity": 0.3937007874015748
          },
          {
            "duration": 0.16853925000000913,
            "durationTicks": 96,
            "midi": 60,
            "name": "C4",
            "ticks": 61152,
            "time": 107.35950224999998,
            "velocity": 0.3937007874015748
          },
          {
            "duration": 0.16853925000000913,
            "durationTicks": 96,
            "midi": 60,
            "name": "C4",
            "ticks": 61152,
            "time": 107.35950224999998,
            "velocity": 0.3937007874015748
          },
          {
            "duration": 0.16853924999999492,
            "durationTicks": 96,
            "midi": 63,
            "name": "D#4",
            "ticks": 61248,
            "time": 107.52804149999999,
            "velocity": 0.3937007874015748
          },
          {
            "duration": 0.33707850000000406,
            "durationTicks": 192,
            "midi": 39,
            "name": "D#2",
            "ticks": 61248,
            "time": 107.52804149999999,
            "velocity": 0.3937007874015748
          },
          {
            "duration": 0.16853924999999492,
            "durationTicks": 96,
            "midi": 63,
            "name": "D#4",
            "ticks": 61248,
            "time": 107.52804149999999,
            "velocity": 0.3937007874015748
          },
          {
            "duration": 0.16853925000000913,
            "durationTicks": 96,
            "midi": 70,
            "name": "A#4",
            "ticks": 61344,
            "time": 107.69658074999998,
            "velocity": 0.3937007874015748
          },
          {
            "duration": 0.16853925000000913,
            "durationTicks": 96,
            "midi": 70,
            "name": "A#4",
            "ticks": 61344,
            "time": 107.69658074999998,
            "velocity": 0.3937007874015748
          },
          {
            "duration": 0.16853924999999492,
            "durationTicks": 96,
            "midi": 70,
            "name": "A#4",
            "ticks": 61440,
            "time": 107.86511999999999,
            "velocity": 0.3937007874015748
          },
          {
            "duration": 0.16853924999999492,
            "durationTicks": 96,
            "midi": 70,
            "name": "A#4",
            "ticks": 61440,
            "time": 107.86511999999999,
            "velocity": 0.3937007874015748
          },
          {
            "duration": 1.3483139999999878,
            "durationTicks": 768,
            "midi": 32,
            "name": "G#1",
            "ticks": 61440,
            "time": 107.86511999999999,
            "velocity": 0.3937007874015748
          },
          {
            "duration": 0.33707849999998984,
            "durationTicks": 192,
            "midi": 44,
            "name": "G#2",
            "ticks": 61440,
            "time": 107.86511999999999,
            "velocity": 0.3937007874015748
          },
          {
            "duration": 0.16853924999999492,
            "durationTicks": 96,
            "midi": 72,
            "name": "C5",
            "ticks": 61536,
            "time": 108.03365924999999,
            "velocity": 0.3937007874015748
          },
          {
            "duration": 0.16853924999999492,
            "durationTicks": 96,
            "midi": 72,
            "name": "C5",
            "ticks": 61536,
            "time": 108.03365924999999,
            "velocity": 0.3937007874015748
          },
          {
            "duration": 0.33707850000000406,
            "durationTicks": 192,
            "midi": 63,
            "name": "D#4",
            "ticks": 61632,
            "time": 108.20219849999998,
            "velocity": 0.3937007874015748
          },
          {
            "duration": 0.33707850000000406,
            "durationTicks": 192,
            "midi": 44,
            "name": "G#2",
            "ticks": 61632,
            "time": 108.20219849999998,
            "velocity": 0.3937007874015748
          },
          {
            "duration": 0.33707850000000406,
            "durationTicks": 192,
            "midi": 63,
            "name": "D#4",
            "ticks": 61632,
            "time": 108.20219849999998,
            "velocity": 0.3937007874015748
          },
          {
            "duration": 0.33707850000000406,
            "durationTicks": 192,
            "midi": 44,
            "name": "G#2",
            "ticks": 61824,
            "time": 108.53927699999998,
            "velocity": 0.3937007874015748
          },
          {
            "duration": 0.16853925000000913,
            "durationTicks": 96,
            "midi": 60,
            "name": "C4",
            "ticks": 61920,
            "time": 108.70781624999998,
            "velocity": 0.3937007874015748
          },
          {
            "duration": 0.16853925000000913,
            "durationTicks": 96,
            "midi": 60,
            "name": "C4",
            "ticks": 61920,
            "time": 108.70781624999998,
            "velocity": 0.3937007874015748
          },
          {
            "duration": 0.16853924999999492,
            "durationTicks": 96,
            "midi": 63,
            "name": "D#4",
            "ticks": 62016,
            "time": 108.87635549999999,
            "velocity": 0.3937007874015748
          },
          {
            "duration": 0.33707849999998984,
            "durationTicks": 192,
            "midi": 44,
            "name": "G#2",
            "ticks": 62016,
            "time": 108.87635549999999,
            "velocity": 0.3937007874015748
          },
          {
            "duration": 0.16853924999999492,
            "durationTicks": 96,
            "midi": 63,
            "name": "D#4",
            "ticks": 62016,
            "time": 108.87635549999999,
            "velocity": 0.3937007874015748
          },
          {
            "duration": 0.16853924999999492,
            "durationTicks": 96,
            "midi": 70,
            "name": "A#4",
            "ticks": 62112,
            "time": 109.04489474999998,
            "velocity": 0.3937007874015748
          },
          {
            "duration": 0.16853924999999492,
            "durationTicks": 96,
            "midi": 70,
            "name": "A#4",
            "ticks": 62112,
            "time": 109.04489474999998,
            "velocity": 0.3937007874015748
          },
          {
            "duration": 0.33707850000000406,
            "durationTicks": 192,
            "midi": 39,
            "name": "D#2",
            "ticks": 62208,
            "time": 109.21343399999998,
            "velocity": 0.3937007874015748
          },
          {
            "duration": 1.348314000000002,
            "durationTicks": 768,
            "midi": 27,
            "name": "D#1",
            "ticks": 62208,
            "time": 109.21343399999998,
            "velocity": 0.3937007874015748
          },
          {
            "duration": 0.16853925000000913,
            "durationTicks": 96,
            "midi": 70,
            "name": "A#4",
            "ticks": 62208,
            "time": 109.21343399999998,
            "velocity": 0.3937007874015748
          },
          {
            "duration": 0.16853925000000913,
            "durationTicks": 96,
            "midi": 70,
            "name": "A#4",
            "ticks": 62208,
            "time": 109.21343399999998,
            "velocity": 0.3937007874015748
          },
          {
            "duration": 0.16853924999999492,
            "durationTicks": 96,
            "midi": 72,
            "name": "C5",
            "ticks": 62304,
            "time": 109.38197324999999,
            "velocity": 0.3937007874015748
          },
          {
            "duration": 0.16853924999999492,
            "durationTicks": 96,
            "midi": 72,
            "name": "C5",
            "ticks": 62304,
            "time": 109.38197324999999,
            "velocity": 0.3937007874015748
          },
          {
            "duration": 0.33707850000000406,
            "durationTicks": 192,
            "midi": 63,
            "name": "D#4",
            "ticks": 62400,
            "time": 109.55051249999998,
            "velocity": 0.3937007874015748
          },
          {
            "duration": 0.33707850000000406,
            "durationTicks": 192,
            "midi": 63,
            "name": "D#4",
            "ticks": 62400,
            "time": 109.55051249999998,
            "velocity": 0.3937007874015748
          },
          {
            "duration": 0.33707850000000406,
            "durationTicks": 192,
            "midi": 39,
            "name": "D#2",
            "ticks": 62400,
            "time": 109.55051249999998,
            "velocity": 0.3937007874015748
          },
          {
            "duration": 0.33707849999998984,
            "durationTicks": 192,
            "midi": 39,
            "name": "D#2",
            "ticks": 62592,
            "time": 109.88759099999999,
            "velocity": 0.3937007874015748
          },
          {
            "duration": 0.16853924999999492,
            "durationTicks": 96,
            "midi": 60,
            "name": "C4",
            "ticks": 62688,
            "time": 110.05613024999998,
            "velocity": 0.3937007874015748
          },
          {
            "duration": 0.16853924999999492,
            "durationTicks": 96,
            "midi": 60,
            "name": "C4",
            "ticks": 62688,
            "time": 110.05613024999998,
            "velocity": 0.3937007874015748
          },
          {
            "duration": 0.33707850000000406,
            "durationTicks": 192,
            "midi": 39,
            "name": "D#2",
            "ticks": 62784,
            "time": 110.22466949999998,
            "velocity": 0.3937007874015748
          },
          {
            "duration": 0.16853925000000913,
            "durationTicks": 96,
            "midi": 62,
            "name": "D4",
            "ticks": 62784,
            "time": 110.22466949999998,
            "velocity": 0.3937007874015748
          },
          {
            "duration": 0.16853925000000913,
            "durationTicks": 96,
            "midi": 62,
            "name": "D4",
            "ticks": 62784,
            "time": 110.22466949999998,
            "velocity": 0.3937007874015748
          },
          {
            "duration": 0.16853924999999492,
            "durationTicks": 96,
            "midi": 63,
            "name": "D#4",
            "ticks": 62880,
            "time": 110.39320874999999,
            "velocity": 0.3937007874015748
          },
          {
            "duration": 0.16853924999999492,
            "durationTicks": 96,
            "midi": 63,
            "name": "D#4",
            "ticks": 62880,
            "time": 110.39320874999999,
            "velocity": 0.3937007874015748
          },
          {
            "duration": 0.6741570000000081,
            "durationTicks": 384,
            "midi": 26,
            "name": "D1",
            "ticks": 62976,
            "time": 110.56174799999998,
            "velocity": 0.3937007874015748
          },
          {
            "duration": 0.16853925000000913,
            "durationTicks": 96,
            "midi": 62,
            "name": "D4",
            "ticks": 62976,
            "time": 110.56174799999998,
            "velocity": 0.3937007874015748
          },
          {
            "duration": 0.16853925000000913,
            "durationTicks": 96,
            "midi": 62,
            "name": "D4",
            "ticks": 62976,
            "time": 110.56174799999998,
            "velocity": 0.3937007874015748
          },
          {
            "duration": 0.33707850000000406,
            "durationTicks": 192,
            "midi": 38,
            "name": "D2",
            "ticks": 62976,
            "time": 110.56174799999998,
            "velocity": 0.3937007874015748
          },
          {
            "duration": 0.16853924999999492,
            "durationTicks": 96,
            "midi": 62,
            "name": "D4",
            "ticks": 63072,
            "time": 110.73028724999999,
            "velocity": 0.3937007874015748
          },
          {
            "duration": 0.16853924999999492,
            "durationTicks": 96,
            "midi": 62,
            "name": "D4",
            "ticks": 63072,
            "time": 110.73028724999999,
            "velocity": 0.3937007874015748
          },
          {
            "duration": 0.33707850000000406,
            "durationTicks": 192,
            "midi": 62,
            "name": "D4",
            "ticks": 63168,
            "time": 110.89882649999998,
            "velocity": 0.3937007874015748
          },
          {
            "duration": 0.33707850000000406,
            "durationTicks": 192,
            "midi": 62,
            "name": "D4",
            "ticks": 63168,
            "time": 110.89882649999998,
            "velocity": 0.3937007874015748
          },
          {
            "duration": 0.33707850000000406,
            "durationTicks": 192,
            "midi": 38,
            "name": "D2",
            "ticks": 63168,
            "time": 110.89882649999998,
            "velocity": 0.3937007874015748
          },
          {
            "duration": 0.33707849999998984,
            "durationTicks": 192,
            "midi": 43,
            "name": "G2",
            "ticks": 63360,
            "time": 111.23590499999999,
            "velocity": 0.3937007874015748
          },
          {
            "duration": 0.16853924999999492,
            "durationTicks": 96,
            "midi": 62,
            "name": "D4",
            "ticks": 63360,
            "time": 111.23590499999999,
            "velocity": 0.3937007874015748
          },
          {
            "duration": 0.16853924999999492,
            "durationTicks": 96,
            "midi": 62,
            "name": "D4",
            "ticks": 63360,
            "time": 111.23590499999999,
            "velocity": 0.3937007874015748
          },
          {
            "duration": 0.6741569999999939,
            "durationTicks": 384,
            "midi": 31,
            "name": "G1",
            "ticks": 63360,
            "time": 111.23590499999999,
            "velocity": 0.3937007874015748
          },
          {
            "duration": 0.16853924999999492,
            "durationTicks": 96,
            "midi": 63,
            "name": "D#4",
            "ticks": 63456,
            "time": 111.40444424999998,
            "velocity": 0.3937007874015748
          },
          {
            "duration": 0.16853924999999492,
            "durationTicks": 96,
            "midi": 63,
            "name": "D#4",
            "ticks": 63456,
            "time": 111.40444424999998,
            "velocity": 0.3937007874015748
          },
          {
            "duration": 0.16853925000000913,
            "durationTicks": 96,
            "midi": 62,
            "name": "D4",
            "ticks": 63552,
            "time": 111.57298349999998,
            "velocity": 0.3937007874015748
          },
          {
            "duration": 0.33707850000000406,
            "durationTicks": 192,
            "midi": 43,
            "name": "G2",
            "ticks": 63552,
            "time": 111.57298349999998,
            "velocity": 0.3937007874015748
          },
          {
            "duration": 0.16853925000000913,
            "durationTicks": 96,
            "midi": 62,
            "name": "D4",
            "ticks": 63552,
            "time": 111.57298349999998,
            "velocity": 0.3937007874015748
          },
          {
            "duration": 0.33707849999998984,
            "durationTicks": 192,
            "midi": 62,
            "name": "D4",
            "ticks": 63648,
            "time": 111.74152274999999,
            "velocity": 0.3937007874015748
          },
          {
            "duration": 0.505617749999999,
            "durationTicks": 288,
            "midi": 62,
            "name": "D4",
            "ticks": 63648,
            "time": 111.74152274999999,
            "velocity": 0.3937007874015748
          },
          {
            "duration": 1.348314000000002,
            "durationTicks": 768,
            "midi": 72,
            "name": "C5",
            "ticks": 63744,
            "time": 111.91006199999998,
            "velocity": 0.3937007874015748
          },
          {
            "duration": 0.6741569999999939,
            "durationTicks": 384,
            "midi": 36,
            "name": "C2",
            "ticks": 63744,
            "time": 111.91006199999998,
            "velocity": 0.3937007874015748
          },
          {
            "duration": 0.6741569999999939,
            "durationTicks": 384,
            "midi": 48,
            "name": "C3",
            "ticks": 63744,
            "time": 111.91006199999998,
            "velocity": 0.3937007874015748
          },
          {
            "duration": 0.16853925000000913,
            "durationTicks": 96,
            "midi": 63,
            "name": "D#4",
            "ticks": 63840,
            "time": 112.07860124999998,
            "velocity": 0.3937007874015748
          },
          {
            "duration": 0.33707849999998984,
            "durationTicks": 192,
            "midi": 60,
            "name": "C4",
            "ticks": 63936,
            "time": 112.24714049999999,
            "velocity": 0.3937007874015748
          },
          {
            "duration": 0.6741569999999939,
            "durationTicks": 384,
            "midi": 60,
            "name": "C4",
            "ticks": 63936,
            "time": 112.24714049999999,
            "velocity": 0.3937007874015748
          },
          {
            "duration": 0.6741570000000081,
            "durationTicks": 384,
            "midi": 67,
            "name": "G4",
            "ticks": 64128,
            "time": 112.58421899999998,
            "velocity": 0.3937007874015748
          },
          {
            "duration": 0.33707850000000406,
            "durationTicks": 192,
            "midi": 24,
            "name": "C1",
            "ticks": 64512,
            "time": 113.25837599999998,
            "velocity": 0.3937007874015748
          },
          {
            "duration": 0.33707850000000406,
            "durationTicks": 192,
            "midi": 36,
            "name": "C2",
            "ticks": 64512,
            "time": 113.25837599999998,
            "velocity": 0.3937007874015748
          },
          {
            "duration": 3.370784999999998,
            "durationTicks": 1920,
            "midi": 79,
            "name": "G5",
            "ticks": 64512,
            "time": 113.25837599999998,
            "velocity": 0.3937007874015748
          },
          {
            "duration": 3.539324249999993,
            "durationTicks": 2016,
            "midi": 79,
            "name": "G5",
            "ticks": 64512,
            "time": 113.25837599999998,
            "velocity": 0.3937007874015748
          },
          {
            "duration": 3.370784999999998,
            "durationTicks": 1920,
            "midi": 67,
            "name": "G4",
            "ticks": 64512,
            "time": 113.25837599999998,
            "velocity": 0.3937007874015748
          },
          {
            "duration": 3.539324249999993,
            "durationTicks": 2016,
            "midi": 67,
            "name": "G4",
            "ticks": 64512,
            "time": 113.25837599999998,
            "velocity": 0.3937007874015748
          },
          {
            "duration": 0.33707849999998984,
            "durationTicks": 192,
            "midi": 36,
            "name": "C2",
            "ticks": 64704,
            "time": 113.59545449999999,
            "velocity": 0.3937007874015748
          },
          {
            "duration": 0.33707849999998984,
            "durationTicks": 192,
            "midi": 48,
            "name": "C3",
            "ticks": 64704,
            "time": 113.59545449999999,
            "velocity": 0.3937007874015748
          },
          {
            "duration": 0.33707850000000406,
            "durationTicks": 192,
            "midi": 39,
            "name": "D#2",
            "ticks": 64896,
            "time": 113.93253299999998,
            "velocity": 0.3937007874015748
          },
          {
            "duration": 0.33707850000000406,
            "durationTicks": 192,
            "midi": 51,
            "name": "D#3",
            "ticks": 64896,
            "time": 113.93253299999998,
            "velocity": 0.3937007874015748
          },
          {
            "duration": 0.33707850000000406,
            "durationTicks": 192,
            "midi": 38,
            "name": "D2",
            "ticks": 65088,
            "time": 114.26961149999998,
            "velocity": 0.3937007874015748
          },
          {
            "duration": 0.33707850000000406,
            "durationTicks": 192,
            "midi": 50,
            "name": "D3",
            "ticks": 65088,
            "time": 114.26961149999998,
            "velocity": 0.3937007874015748
          },
          {
            "duration": 0.33707849999998984,
            "durationTicks": 192,
            "midi": 43,
            "name": "G2",
            "ticks": 65280,
            "time": 114.60668999999999,
            "velocity": 0.3937007874015748
          },
          {
            "duration": 0.33707849999998984,
            "durationTicks": 192,
            "midi": 31,
            "name": "G1",
            "ticks": 65280,
            "time": 114.60668999999999,
            "velocity": 0.3937007874015748
          },
          {
            "duration": 0.33707850000000406,
            "durationTicks": 192,
            "midi": 34,
            "name": "A#1",
            "ticks": 65472,
            "time": 114.94376849999998,
            "velocity": 0.3937007874015748
          },
          {
            "duration": 0.33707850000000406,
            "durationTicks": 192,
            "midi": 46,
            "name": "A#2",
            "ticks": 65472,
            "time": 114.94376849999998,
            "velocity": 0.3937007874015748
          },
          {
            "duration": 0.33707850000000406,
            "durationTicks": 192,
            "midi": 39,
            "name": "D#2",
            "ticks": 65664,
            "time": 115.28084699999998,
            "velocity": 0.3937007874015748
          },
          {
            "duration": 0.33707850000000406,
            "durationTicks": 192,
            "midi": 51,
            "name": "D#3",
            "ticks": 65664,
            "time": 115.28084699999998,
            "velocity": 0.3937007874015748
          },
          {
            "duration": 0.33707850000000406,
            "durationTicks": 192,
            "midi": 38,
            "name": "D2",
            "ticks": 65856,
            "time": 115.61792549999998,
            "velocity": 0.3937007874015748
          },
          {
            "duration": 0.33707850000000406,
            "durationTicks": 192,
            "midi": 50,
            "name": "D3",
            "ticks": 65856,
            "time": 115.61792549999998,
            "velocity": 0.3937007874015748
          },
          {
            "duration": 0.33707849999998984,
            "durationTicks": 192,
            "midi": 32,
            "name": "G#1",
            "ticks": 66048,
            "time": 115.95500399999999,
            "velocity": 0.3937007874015748
          },
          {
            "duration": 0.33707849999998984,
            "durationTicks": 192,
            "midi": 44,
            "name": "G#2",
            "ticks": 66048,
            "time": 115.95500399999999,
            "velocity": 0.3937007874015748
          },
          {
            "duration": 0.33707850000000406,
            "durationTicks": 192,
            "midi": 48,
            "name": "C3",
            "ticks": 66240,
            "time": 116.29208249999998,
            "velocity": 0.3937007874015748
          },
          {
            "duration": 0.33707850000000406,
            "durationTicks": 192,
            "midi": 36,
            "name": "C2",
            "ticks": 66240,
            "time": 116.29208249999998,
            "velocity": 0.3937007874015748
          },
          {
            "duration": 0.33707850000000406,
            "durationTicks": 192,
            "midi": 51,
            "name": "D#3",
            "ticks": 66432,
            "time": 116.62916099999998,
            "velocity": 0.3937007874015748
          },
          {
            "duration": 0.33707850000000406,
            "durationTicks": 192,
            "midi": 39,
            "name": "D#2",
            "ticks": 66432,
            "time": 116.62916099999998,
            "velocity": 0.3937007874015748
          },
          {
            "duration": 0.16853925000000913,
            "durationTicks": 96,
            "midi": 63,
            "name": "D#4",
            "ticks": 66528,
            "time": 116.79770024999998,
            "velocity": 0.3937007874015748
          },
          {
            "duration": 0.16853925000000913,
            "durationTicks": 96,
            "midi": 75,
            "name": "D#5",
            "ticks": 66528,
            "time": 116.79770024999998,
            "velocity": 0.3937007874015748
          },
          {
            "duration": 0.16853925000000913,
            "durationTicks": 96,
            "midi": 75,
            "name": "D#5",
            "ticks": 66528,
            "time": 116.79770024999998,
            "velocity": 0.3937007874015748
          },
          {
            "duration": 0.16853925000000913,
            "durationTicks": 96,
            "midi": 63,
            "name": "D#4",
            "ticks": 66528,
            "time": 116.79770024999998,
            "velocity": 0.3937007874015748
          },
          {
            "duration": 0.33707849999998984,
            "durationTicks": 192,
            "midi": 38,
            "name": "D2",
            "ticks": 66624,
            "time": 116.96623949999999,
            "velocity": 0.3937007874015748
          },
          {
            "duration": 0.33707849999998984,
            "durationTicks": 192,
            "midi": 50,
            "name": "D3",
            "ticks": 66624,
            "time": 116.96623949999999,
            "velocity": 0.3937007874015748
          },
          {
            "duration": 0.16853924999999492,
            "durationTicks": 96,
            "midi": 65,
            "name": "F4",
            "ticks": 66624,
            "time": 116.96623949999999,
            "velocity": 0.3937007874015748
          },
          {
            "duration": 0.16853924999999492,
            "durationTicks": 96,
            "midi": 77,
            "name": "F5",
            "ticks": 66624,
            "time": 116.96623949999999,
            "velocity": 0.3937007874015748
          },
          {
            "duration": 0.16853924999999492,
            "durationTicks": 96,
            "midi": 65,
            "name": "F4",
            "ticks": 66624,
            "time": 116.96623949999999,
            "velocity": 0.3937007874015748
          },
          {
            "duration": 0.16853924999999492,
            "durationTicks": 96,
            "midi": 77,
            "name": "F5",
            "ticks": 66624,
            "time": 116.96623949999999,
            "velocity": 0.3937007874015748
          },
          {
            "duration": 1.348314000000002,
            "durationTicks": 768,
            "midi": 79,
            "name": "G5",
            "ticks": 66720,
            "time": 117.13477874999998,
            "velocity": 0.3937007874015748
          },
          {
            "duration": 1.348314000000002,
            "durationTicks": 768,
            "midi": 67,
            "name": "G4",
            "ticks": 66720,
            "time": 117.13477874999998,
            "velocity": 0.3937007874015748
          },
          {
            "duration": 1.348314000000002,
            "durationTicks": 768,
            "midi": 79,
            "name": "G5",
            "ticks": 66720,
            "time": 117.13477874999998,
            "velocity": 0.3937007874015748
          },
          {
            "duration": 1.348314000000002,
            "durationTicks": 768,
            "midi": 67,
            "name": "G4",
            "ticks": 66720,
            "time": 117.13477874999998,
            "velocity": 0.3937007874015748
          },
          {
            "duration": 0.33707850000000406,
            "durationTicks": 192,
            "midi": 39,
            "name": "D#2",
            "ticks": 66816,
            "time": 117.30331799999998,
            "velocity": 0.3937007874015748
          },
          {
            "duration": 0.33707850000000406,
            "durationTicks": 192,
            "midi": 51,
            "name": "D#3",
            "ticks": 66816,
            "time": 117.30331799999998,
            "velocity": 0.3937007874015748
          },
          {
            "duration": 0.33707850000000406,
            "durationTicks": 192,
            "midi": 52,
            "name": "E3",
            "ticks": 67008,
            "time": 117.64039649999998,
            "velocity": 0.3937007874015748
          },
          {
            "duration": 0.33707850000000406,
            "durationTicks": 192,
            "midi": 40,
            "name": "E2",
            "ticks": 67008,
            "time": 117.64039649999998,
            "velocity": 0.3937007874015748
          },
          {
            "duration": 0.33707850000000406,
            "durationTicks": 192,
            "midi": 46,
            "name": "A#2",
            "ticks": 67200,
            "time": 117.97747499999998,
            "velocity": 0.3937007874015748
          },
          {
            "duration": 0.33707850000000406,
            "durationTicks": 192,
            "midi": 58,
            "name": "A#3",
            "ticks": 67200,
            "time": 117.97747499999998,
            "velocity": 0.3937007874015748
          },
          {
            "duration": 0.33707849999998984,
            "durationTicks": 192,
            "midi": 36,
            "name": "C2",
            "ticks": 67392,
            "time": 118.31455349999999,
            "velocity": 0.3937007874015748
          },
          {
            "duration": 0.33707849999998984,
            "durationTicks": 192,
            "midi": 48,
            "name": "C3",
            "ticks": 67392,
            "time": 118.31455349999999,
            "velocity": 0.3937007874015748
          },
          {
            "duration": 0.33707850000000406,
            "durationTicks": 192,
            "midi": 68,
            "name": "G#4",
            "ticks": 67488,
            "time": 118.48309274999998,
            "velocity": 0.3937007874015748
          },
          {
            "duration": 0.33707850000000406,
            "durationTicks": 192,
            "midi": 68,
            "name": "G#4",
            "ticks": 67488,
            "time": 118.48309274999998,
            "velocity": 0.3937007874015748
          },
          {
            "duration": 0.33707850000000406,
            "durationTicks": 192,
            "midi": 80,
            "name": "G#5",
            "ticks": 67488,
            "time": 118.48309274999998,
            "velocity": 0.3937007874015748
          },
          {
            "duration": 0.33707850000000406,
            "durationTicks": 192,
            "midi": 80,
            "name": "G#5",
            "ticks": 67488,
            "time": 118.48309274999998,
            "velocity": 0.3937007874015748
          },
          {
            "duration": 0.33707850000000406,
            "durationTicks": 192,
            "midi": 29,
            "name": "F1",
            "ticks": 67584,
            "time": 118.65163199999998,
            "velocity": 0.3937007874015748
          },
          {
            "duration": 0.33707850000000406,
            "durationTicks": 192,
            "midi": 41,
            "name": "F2",
            "ticks": 67584,
            "time": 118.65163199999998,
            "velocity": 0.3937007874015748
          },
          {
            "duration": 0.16853924999999492,
            "durationTicks": 96,
            "midi": 79,
            "name": "G5",
            "ticks": 67680,
            "time": 118.82017124999999,
            "velocity": 0.3937007874015748
          },
          {
            "duration": 0.16853924999999492,
            "durationTicks": 96,
            "midi": 79,
            "name": "G5",
            "ticks": 67680,
            "time": 118.82017124999999,
            "velocity": 0.3937007874015748
          },
          {
            "duration": 0.16853924999999492,
            "durationTicks": 96,
            "midi": 67,
            "name": "G4",
            "ticks": 67680,
            "time": 118.82017124999999,
            "velocity": 0.3937007874015748
          },
          {
            "duration": 0.16853924999999492,
            "durationTicks": 96,
            "midi": 67,
            "name": "G4",
            "ticks": 67680,
            "time": 118.82017124999999,
            "velocity": 0.3937007874015748
          },
          {
            "duration": 0.6741569999999939,
            "durationTicks": 384,
            "midi": 75,
            "name": "D#5",
            "ticks": 67776,
            "time": 118.98871049999998,
            "velocity": 0.3937007874015748
          },
          {
            "duration": 0.6741569999999939,
            "durationTicks": 384,
            "midi": 63,
            "name": "D#4",
            "ticks": 67776,
            "time": 118.98871049999998,
            "velocity": 0.3937007874015748
          },
          {
            "duration": 0.33707850000000406,
            "durationTicks": 192,
            "midi": 32,
            "name": "G#1",
            "ticks": 67776,
            "time": 118.98871049999998,
            "velocity": 0.3937007874015748
          },
          {
            "duration": 0.6741569999999939,
            "durationTicks": 384,
            "midi": 63,
            "name": "D#4",
            "ticks": 67776,
            "time": 118.98871049999998,
            "velocity": 0.3937007874015748
          },
          {
            "duration": 0.6741569999999939,
            "durationTicks": 384,
            "midi": 75,
            "name": "D#5",
            "ticks": 67776,
            "time": 118.98871049999998,
            "velocity": 0.3937007874015748
          },
          {
            "duration": 0.33707850000000406,
            "durationTicks": 192,
            "midi": 44,
            "name": "G#2",
            "ticks": 67776,
            "time": 118.98871049999998,
            "velocity": 0.3937007874015748
          },
          {
            "duration": 0.33707849999998984,
            "durationTicks": 192,
            "midi": 39,
            "name": "D#2",
            "ticks": 67968,
            "time": 119.32578899999999,
            "velocity": 0.3937007874015748
          },
          {
            "duration": 0.33707849999998984,
            "durationTicks": 192,
            "midi": 51,
            "name": "D#3",
            "ticks": 67968,
            "time": 119.32578899999999,
            "velocity": 0.3937007874015748
          },
          {
            "duration": 0.16853925000000913,
            "durationTicks": 96,
            "midi": 60,
            "name": "C4",
            "ticks": 68160,
            "time": 119.66286749999998,
            "velocity": 0.3937007874015748
          },
          {
            "duration": 0.33707850000000406,
            "durationTicks": 192,
            "midi": 48,
            "name": "C3",
            "ticks": 68160,
            "time": 119.66286749999998,
            "velocity": 0.3937007874015748
          },
          {
            "duration": 0.16853925000000913,
            "durationTicks": 96,
            "midi": 72,
            "name": "C5",
            "ticks": 68160,
            "time": 119.66286749999998,
            "velocity": 0.3937007874015748
          },
          {
            "duration": 0.16853925000000913,
            "durationTicks": 96,
            "midi": 60,
            "name": "C4",
            "ticks": 68160,
            "time": 119.66286749999998,
            "velocity": 0.3937007874015748
          },
          {
            "duration": 0.16853925000000913,
            "durationTicks": 96,
            "midi": 72,
            "name": "C5",
            "ticks": 68160,
            "time": 119.66286749999998,
            "velocity": 0.3937007874015748
          },
          {
            "duration": 0.33707850000000406,
            "durationTicks": 192,
            "midi": 36,
            "name": "C2",
            "ticks": 68160,
            "time": 119.66286749999998,
            "velocity": 0.3937007874015748
          },
          {
            "duration": 0.33707849999998984,
            "durationTicks": 192,
            "midi": 58,
            "name": "A#3",
            "ticks": 68256,
            "time": 119.83140674999999,
            "velocity": 0.3937007874015748
          },
          {
            "duration": 0.33707849999998984,
            "durationTicks": 192,
            "midi": 70,
            "name": "A#4",
            "ticks": 68256,
            "time": 119.83140674999999,
            "velocity": 0.3937007874015748
          },
          {
            "duration": 0.33707849999998984,
            "durationTicks": 192,
            "midi": 70,
            "name": "A#4",
            "ticks": 68256,
            "time": 119.83140674999999,
            "velocity": 0.3937007874015748
          },
          {
            "duration": 0.33707849999998984,
            "durationTicks": 192,
            "midi": 58,
            "name": "A#3",
            "ticks": 68256,
            "time": 119.83140674999999,
            "velocity": 0.3937007874015748
          },
          {
            "duration": 0.33707850000000406,
            "durationTicks": 192,
            "midi": 27,
            "name": "D#1",
            "ticks": 68352,
            "time": 119.99994599999998,
            "velocity": 0.3937007874015748
          },
          {
            "duration": 0.33707850000000406,
            "durationTicks": 192,
            "midi": 39,
            "name": "D#2",
            "ticks": 68352,
            "time": 119.99994599999998,
            "velocity": 0.3937007874015748
          },
          {
            "duration": 0.16853925000000913,
            "durationTicks": 96,
            "midi": 75,
            "name": "D#5",
            "ticks": 68448,
            "time": 120.16848524999997,
            "velocity": 0.3937007874015748
          },
          {
            "duration": 0.16853925000000913,
            "durationTicks": 96,
            "midi": 63,
            "name": "D#4",
            "ticks": 68448,
            "time": 120.16848524999997,
            "velocity": 0.3937007874015748
          },
          {
            "duration": 0.16853925000000913,
            "durationTicks": 96,
            "midi": 63,
            "name": "D#4",
            "ticks": 68448,
            "time": 120.16848524999997,
            "velocity": 0.3937007874015748
          },
          {
            "duration": 0.16853925000000913,
            "durationTicks": 96,
            "midi": 75,
            "name": "D#5",
            "ticks": 68448,
            "time": 120.16848524999997,
            "velocity": 0.3937007874015748
          },
          {
            "duration": 0.33707850000000406,
            "durationTicks": 192,
            "midi": 60,
            "name": "C4",
            "ticks": 68544,
            "time": 120.33702449999998,
            "velocity": 0.3937007874015748
          },
          {
            "duration": 0.33707850000000406,
            "durationTicks": 192,
            "midi": 72,
            "name": "C5",
            "ticks": 68544,
            "time": 120.33702449999998,
            "velocity": 0.3937007874015748
          },
          {
            "duration": 0.33707850000000406,
            "durationTicks": 192,
            "midi": 72,
            "name": "C5",
            "ticks": 68544,
            "time": 120.33702449999998,
            "velocity": 0.3937007874015748
          },
          {
            "duration": 0.33707850000000406,
            "durationTicks": 192,
            "midi": 34,
            "name": "A#1",
            "ticks": 68544,
            "time": 120.33702449999998,
            "velocity": 0.3937007874015748
          },
          {
            "duration": 0.33707850000000406,
            "durationTicks": 192,
            "midi": 60,
            "name": "C4",
            "ticks": 68544,
            "time": 120.33702449999998,
            "velocity": 0.3937007874015748
          },
          {
            "duration": 0.33707850000000406,
            "durationTicks": 192,
            "midi": 46,
            "name": "A#2",
            "ticks": 68544,
            "time": 120.33702449999998,
            "velocity": 0.3937007874015748
          },
          {
            "duration": 0.16853924999999492,
            "durationTicks": 96,
            "midi": 70,
            "name": "A#4",
            "ticks": 68736,
            "time": 120.67410299999999,
            "velocity": 0.3937007874015748
          },
          {
            "duration": 0.16853924999999492,
            "durationTicks": 96,
            "midi": 58,
            "name": "A#3",
            "ticks": 68736,
            "time": 120.67410299999999,
            "velocity": 0.3937007874015748
          },
          {
            "duration": 0.16853924999999492,
            "durationTicks": 96,
            "midi": 70,
            "name": "A#4",
            "ticks": 68736,
            "time": 120.67410299999999,
            "velocity": 0.3937007874015748
          },
          {
            "duration": 0.33707849999998984,
            "durationTicks": 192,
            "midi": 51,
            "name": "D#3",
            "ticks": 68736,
            "time": 120.67410299999999,
            "velocity": 0.3937007874015748
          },
          {
            "duration": 0.16853924999999492,
            "durationTicks": 96,
            "midi": 58,
            "name": "A#3",
            "ticks": 68736,
            "time": 120.67410299999999,
            "velocity": 0.3937007874015748
          },
          {
            "duration": 0.33707849999998984,
            "durationTicks": 192,
            "midi": 39,
            "name": "D#2",
            "ticks": 68736,
            "time": 120.67410299999999,
            "velocity": 0.3937007874015748
          },
          {
            "duration": 0.505617749999999,
            "durationTicks": 288,
            "midi": 67,
            "name": "G4",
            "ticks": 68832,
            "time": 120.84264224999998,
            "velocity": 0.3937007874015748
          },
          {
            "duration": 0.505617749999999,
            "durationTicks": 288,
            "midi": 55,
            "name": "G3",
            "ticks": 68832,
            "time": 120.84264224999998,
            "velocity": 0.3937007874015748
          },
          {
            "duration": 0.505617749999999,
            "durationTicks": 288,
            "midi": 67,
            "name": "G4",
            "ticks": 68832,
            "time": 120.84264224999998,
            "velocity": 0.3937007874015748
          },
          {
            "duration": 0.505617749999999,
            "durationTicks": 288,
            "midi": 55,
            "name": "G3",
            "ticks": 68832,
            "time": 120.84264224999998,
            "velocity": 0.3937007874015748
          },
          {
            "duration": 0.33707850000000406,
            "durationTicks": 192,
            "midi": 34,
            "name": "A#1",
            "ticks": 68928,
            "time": 121.01118149999998,
            "velocity": 0.3937007874015748
          },
          {
            "duration": 0.33707850000000406,
            "durationTicks": 192,
            "midi": 46,
            "name": "A#2",
            "ticks": 68928,
            "time": 121.01118149999998,
            "velocity": 0.3937007874015748
          },
          {
            "duration": 0.33707850000000406,
            "durationTicks": 192,
            "midi": 26,
            "name": "D1",
            "ticks": 69120,
            "time": 121.34825999999998,
            "velocity": 0.3937007874015748
          },
          {
            "duration": 0.33707850000000406,
            "durationTicks": 192,
            "midi": 65,
            "name": "F4",
            "ticks": 69120,
            "time": 121.34825999999998,
            "velocity": 0.3937007874015748
          },
          {
            "duration": 0.33707850000000406,
            "durationTicks": 192,
            "midi": 38,
            "name": "D2",
            "ticks": 69120,
            "time": 121.34825999999998,
            "velocity": 0.3937007874015748
          },
          {
            "duration": 0.33707850000000406,
            "durationTicks": 192,
            "midi": 53,
            "name": "F3",
            "ticks": 69120,
            "time": 121.34825999999998,
            "velocity": 0.3937007874015748
          },
          {
            "duration": 0.33707850000000406,
            "durationTicks": 192,
            "midi": 65,
            "name": "F4",
            "ticks": 69120,
            "time": 121.34825999999998,
            "velocity": 0.3937007874015748
          },
          {
            "duration": 0.16853924999999492,
            "durationTicks": 96,
            "midi": 63,
            "name": "D#4",
            "ticks": 69312,
            "time": 121.68533849999999,
            "velocity": 0.3937007874015748
          },
          {
            "duration": 0.16853924999999492,
            "durationTicks": 96,
            "midi": 75,
            "name": "D#5",
            "ticks": 69312,
            "time": 121.68533849999999,
            "velocity": 0.3937007874015748
          },
          {
            "duration": 0.16853924999999492,
            "durationTicks": 96,
            "midi": 63,
            "name": "D#4",
            "ticks": 69312,
            "time": 121.68533849999999,
            "velocity": 0.3937007874015748
          },
          {
            "duration": 0.33707849999998984,
            "durationTicks": 192,
            "midi": 43,
            "name": "G2",
            "ticks": 69312,
            "time": 121.68533849999999,
            "velocity": 0.3937007874015748
          },
          {
            "duration": 0.16853924999999492,
            "durationTicks": 96,
            "midi": 75,
            "name": "D#5",
            "ticks": 69312,
            "time": 121.68533849999999,
            "velocity": 0.3937007874015748
          },
          {
            "duration": 0.33707849999998984,
            "durationTicks": 192,
            "midi": 31,
            "name": "G1",
            "ticks": 69312,
            "time": 121.68533849999999,
            "velocity": 0.3937007874015748
          },
          {
            "duration": 0.33707850000000406,
            "durationTicks": 192,
            "midi": 72,
            "name": "C5",
            "ticks": 69408,
            "time": 121.85387774999998,
            "velocity": 0.3937007874015748
          },
          {
            "duration": 0.33707850000000406,
            "durationTicks": 192,
            "midi": 72,
            "name": "C5",
            "ticks": 69408,
            "time": 121.85387774999998,
            "velocity": 0.3937007874015748
          },
          {
            "duration": 0.33707850000000406,
            "durationTicks": 192,
            "midi": 60,
            "name": "C4",
            "ticks": 69408,
            "time": 121.85387774999998,
            "velocity": 0.3937007874015748
          },
          {
            "duration": 0.33707850000000406,
            "durationTicks": 192,
            "midi": 60,
            "name": "C4",
            "ticks": 69408,
            "time": 121.85387774999998,
            "velocity": 0.3937007874015748
          },
          {
            "duration": 0.33707850000000406,
            "durationTicks": 192,
            "midi": 39,
            "name": "D#2",
            "ticks": 69504,
            "time": 122.02241699999998,
            "velocity": 0.3937007874015748
          },
          {
            "duration": 0.33707850000000406,
            "durationTicks": 192,
            "midi": 51,
            "name": "D#3",
            "ticks": 69504,
            "time": 122.02241699999998,
            "velocity": 0.3937007874015748
          },
          {
            "duration": 0.16853924999999492,
            "durationTicks": 96,
            "midi": 58,
            "name": "A#3",
            "ticks": 69600,
            "time": 122.19095624999999,
            "velocity": 0.3937007874015748
          },
          {
            "duration": 0.16853924999999492,
            "durationTicks": 96,
            "midi": 70,
            "name": "A#4",
            "ticks": 69600,
            "time": 122.19095624999999,
            "velocity": 0.3937007874015748
          },
          {
            "duration": 0.16853924999999492,
            "durationTicks": 96,
            "midi": 70,
            "name": "A#4",
            "ticks": 69600,
            "time": 122.19095624999999,
            "velocity": 0.3937007874015748
          },
          {
            "duration": 0.16853924999999492,
            "durationTicks": 96,
            "midi": 58,
            "name": "A#3",
            "ticks": 69600,
            "time": 122.19095624999999,
            "velocity": 0.3937007874015748
          },
          {
            "duration": 0.33707850000000406,
            "durationTicks": 192,
            "midi": 67,
            "name": "G4",
            "ticks": 69696,
            "time": 122.35949549999998,
            "velocity": 0.3937007874015748
          },
          {
            "duration": 0.33707850000000406,
            "durationTicks": 192,
            "midi": 46,
            "name": "A#2",
            "ticks": 69696,
            "time": 122.35949549999998,
            "velocity": 0.3937007874015748
          },
          {
            "duration": 0.33707850000000406,
            "durationTicks": 192,
            "midi": 55,
            "name": "G3",
            "ticks": 69696,
            "time": 122.35949549999998,
            "velocity": 0.3937007874015748
          },
          {
            "duration": 0.33707850000000406,
            "durationTicks": 192,
            "midi": 34,
            "name": "A#1",
            "ticks": 69696,
            "time": 122.35949549999998,
            "velocity": 0.3937007874015748
          },
          {
            "duration": 0.33707850000000406,
            "durationTicks": 192,
            "midi": 55,
            "name": "G3",
            "ticks": 69696,
            "time": 122.35949549999998,
            "velocity": 0.3937007874015748
          },
          {
            "duration": 0.33707850000000406,
            "durationTicks": 192,
            "midi": 67,
            "name": "G4",
            "ticks": 69696,
            "time": 122.35949549999998,
            "velocity": 0.3937007874015748
          },
          {
            "duration": 0.33707849999998984,
            "durationTicks": 192,
            "midi": 26,
            "name": "D1",
            "ticks": 69888,
            "time": 122.69657399999998,
            "velocity": 0.3937007874015748
          },
          {
            "duration": 0.16853924999999492,
            "durationTicks": 96,
            "midi": 75,
            "name": "D#5",
            "ticks": 69888,
            "time": 122.69657399999998,
            "velocity": 0.3937007874015748
          },
          {
            "duration": 0.16853924999999492,
            "durationTicks": 96,
            "midi": 63,
            "name": "D#4",
            "ticks": 69888,
            "time": 122.69657399999998,
            "velocity": 0.3937007874015748
          },
          {
            "duration": 0.16853924999999492,
            "durationTicks": 96,
            "midi": 63,
            "name": "D#4",
            "ticks": 69888,
            "time": 122.69657399999998,
            "velocity": 0.3937007874015748
          },
          {
            "duration": 0.16853924999999492,
            "durationTicks": 96,
            "midi": 75,
            "name": "D#5",
            "ticks": 69888,
            "time": 122.69657399999998,
            "velocity": 0.3937007874015748
          },
          {
            "duration": 0.33707849999998984,
            "durationTicks": 192,
            "midi": 38,
            "name": "D2",
            "ticks": 69888,
            "time": 122.69657399999998,
            "velocity": 0.3937007874015748
          },
          {
            "duration": 0.33707850000000406,
            "durationTicks": 192,
            "midi": 72,
            "name": "C5",
            "ticks": 69984,
            "time": 122.86511324999998,
            "velocity": 0.3937007874015748
          },
          {
            "duration": 0.33707850000000406,
            "durationTicks": 192,
            "midi": 60,
            "name": "C4",
            "ticks": 69984,
            "time": 122.86511324999998,
            "velocity": 0.3937007874015748
          },
          {
            "duration": 0.33707850000000406,
            "durationTicks": 192,
            "midi": 60,
            "name": "C4",
            "ticks": 69984,
            "time": 122.86511324999998,
            "velocity": 0.3937007874015748
          },
          {
            "duration": 0.33707850000000406,
            "durationTicks": 192,
            "midi": 72,
            "name": "C5",
            "ticks": 69984,
            "time": 122.86511324999998,
            "velocity": 0.3937007874015748
          },
          {
            "duration": 0.33707850000000406,
            "durationTicks": 192,
            "midi": 31,
            "name": "G1",
            "ticks": 70080,
            "time": 123.03365249999997,
            "velocity": 0.3937007874015748
          },
          {
            "duration": 0.33707850000000406,
            "durationTicks": 192,
            "midi": 43,
            "name": "G2",
            "ticks": 70080,
            "time": 123.03365249999997,
            "velocity": 0.3937007874015748
          },
          {
            "duration": 0.16853924999999492,
            "durationTicks": 96,
            "midi": 74,
            "name": "D5",
            "ticks": 70176,
            "time": 123.20219174999998,
            "velocity": 0.3937007874015748
          },
          {
            "duration": 0.16853924999999492,
            "durationTicks": 96,
            "midi": 74,
            "name": "D5",
            "ticks": 70176,
            "time": 123.20219174999998,
            "velocity": 0.3937007874015748
          },
          {
            "duration": 0.16853924999999492,
            "durationTicks": 96,
            "midi": 62,
            "name": "D4",
            "ticks": 70176,
            "time": 123.20219174999998,
            "velocity": 0.3937007874015748
          },
          {
            "duration": 0.16853924999999492,
            "durationTicks": 96,
            "midi": 62,
            "name": "D4",
            "ticks": 70176,
            "time": 123.20219174999998,
            "velocity": 0.3937007874015748
          },
          {
            "duration": 0.33707850000000406,
            "durationTicks": 192,
            "midi": 67,
            "name": "G4",
            "ticks": 70272,
            "time": 123.37073099999998,
            "velocity": 0.3937007874015748
          },
          {
            "duration": 0.33707850000000406,
            "durationTicks": 192,
            "midi": 79,
            "name": "G5",
            "ticks": 70272,
            "time": 123.37073099999998,
            "velocity": 0.3937007874015748
          },
          {
            "duration": 0.33707850000000406,
            "durationTicks": 192,
            "midi": 50,
            "name": "D3",
            "ticks": 70272,
            "time": 123.37073099999998,
            "velocity": 0.3937007874015748
          },
          {
            "duration": 0.33707850000000406,
            "durationTicks": 192,
            "midi": 38,
            "name": "D2",
            "ticks": 70272,
            "time": 123.37073099999998,
            "velocity": 0.3937007874015748
          },
          {
            "duration": 0.33707850000000406,
            "durationTicks": 192,
            "midi": 79,
            "name": "G5",
            "ticks": 70272,
            "time": 123.37073099999998,
            "velocity": 0.3937007874015748
          },
          {
            "duration": 0.33707850000000406,
            "durationTicks": 192,
            "midi": 67,
            "name": "G4",
            "ticks": 70272,
            "time": 123.37073099999998,
            "velocity": 0.3937007874015748
          },
          {
            "duration": 0.33707850000000406,
            "durationTicks": 192,
            "midi": 77,
            "name": "F5",
            "ticks": 70464,
            "time": 123.70780949999998,
            "velocity": 0.3937007874015748
          },
          {
            "duration": 0.33707850000000406,
            "durationTicks": 192,
            "midi": 65,
            "name": "F4",
            "ticks": 70464,
            "time": 123.70780949999998,
            "velocity": 0.3937007874015748
          },
          {
            "duration": 0.33707850000000406,
            "durationTicks": 192,
            "midi": 35,
            "name": "B1",
            "ticks": 70464,
            "time": 123.70780949999998,
            "velocity": 0.3937007874015748
          },
          {
            "duration": 0.33707850000000406,
            "durationTicks": 192,
            "midi": 65,
            "name": "F4",
            "ticks": 70464,
            "time": 123.70780949999998,
            "velocity": 0.3937007874015748
          },
          {
            "duration": 0.33707850000000406,
            "durationTicks": 192,
            "midi": 77,
            "name": "F5",
            "ticks": 70464,
            "time": 123.70780949999998,
            "velocity": 0.3937007874015748
          },
          {
            "duration": 0.33707850000000406,
            "durationTicks": 192,
            "midi": 47,
            "name": "B2",
            "ticks": 70464,
            "time": 123.70780949999998,
            "velocity": 0.3937007874015748
          },
          {
            "duration": 0.33707849999998984,
            "durationTicks": 192,
            "midi": 36,
            "name": "C2",
            "ticks": 70656,
            "time": 124.04488799999999,
            "velocity": 0.3937007874015748
          },
          {
            "duration": 1.3483139999999878,
            "durationTicks": 768,
            "midi": 79,
            "name": "G5",
            "ticks": 70656,
            "time": 124.04488799999999,
            "velocity": 0.3937007874015748
          },
          {
            "duration": 0.33707849999998984,
            "durationTicks": 192,
            "midi": 24,
            "name": "C1",
            "ticks": 70656,
            "time": 124.04488799999999,
            "velocity": 0.3937007874015748
          },
          {
            "duration": 1.3483139999999878,
            "durationTicks": 768,
            "midi": 79,
            "name": "G5",
            "ticks": 70656,
            "time": 124.04488799999999,
            "velocity": 0.3937007874015748
          },
          {
            "duration": 1.3483139999999878,
            "durationTicks": 768,
            "midi": 67,
            "name": "G4",
            "ticks": 70656,
            "time": 124.04488799999999,
            "velocity": 0.3937007874015748
          },
          {
            "duration": 1.3483139999999878,
            "durationTicks": 768,
            "midi": 67,
            "name": "G4",
            "ticks": 70656,
            "time": 124.04488799999999,
            "velocity": 0.3937007874015748
          },
          {
            "duration": 0.33707850000000406,
            "durationTicks": 192,
            "midi": 48,
            "name": "C3",
            "ticks": 70848,
            "time": 124.38196649999998,
            "velocity": 0.3937007874015748
          },
          {
            "duration": 0.33707850000000406,
            "durationTicks": 192,
            "midi": 36,
            "name": "C2",
            "ticks": 70848,
            "time": 124.38196649999998,
            "velocity": 0.3937007874015748
          },
          {
            "duration": 0.33707850000000406,
            "durationTicks": 192,
            "midi": 51,
            "name": "D#3",
            "ticks": 71040,
            "time": 124.71904499999998,
            "velocity": 0.3937007874015748
          },
          {
            "duration": 0.33707850000000406,
            "durationTicks": 192,
            "midi": 39,
            "name": "D#2",
            "ticks": 71040,
            "time": 124.71904499999998,
            "velocity": 0.3937007874015748
          },
          {
            "duration": 0.33707849999998984,
            "durationTicks": 192,
            "midi": 50,
            "name": "D3",
            "ticks": 71232,
            "time": 125.05612349999998,
            "velocity": 0.3937007874015748
          },
          {
            "duration": 0.33707849999998984,
            "durationTicks": 192,
            "midi": 38,
            "name": "D2",
            "ticks": 71232,
            "time": 125.05612349999998,
            "velocity": 0.3937007874015748
          },
          {
            "duration": 0.33707850000000406,
            "durationTicks": 192,
            "midi": 31,
            "name": "G1",
            "ticks": 71424,
            "time": 125.39320199999997,
            "velocity": 0.3937007874015748
          },
          {
            "duration": 1.348314000000002,
            "durationTicks": 768,
            "midi": 82,
            "name": "A#5",
            "ticks": 71424,
            "time": 125.39320199999997,
            "velocity": 0.3937007874015748
          },
          {
            "duration": 1.348314000000002,
            "durationTicks": 768,
            "midi": 70,
            "name": "A#4",
            "ticks": 71424,
            "time": 125.39320199999997,
            "velocity": 0.3937007874015748
          },
          {
            "duration": 1.348314000000002,
            "durationTicks": 768,
            "midi": 82,
            "name": "A#5",
            "ticks": 71424,
            "time": 125.39320199999997,
            "velocity": 0.3937007874015748
          },
          {
            "duration": 1.348314000000002,
            "durationTicks": 768,
            "midi": 70,
            "name": "A#4",
            "ticks": 71424,
            "time": 125.39320199999997,
            "velocity": 0.3937007874015748
          },
          {
            "duration": 0.33707850000000406,
            "durationTicks": 192,
            "midi": 43,
            "name": "G2",
            "ticks": 71424,
            "time": 125.39320199999997,
            "velocity": 0.3937007874015748
          },
          {
            "duration": 0.33707850000000406,
            "durationTicks": 192,
            "midi": 34,
            "name": "A#1",
            "ticks": 71616,
            "time": 125.73028049999998,
            "velocity": 0.3937007874015748
          },
          {
            "duration": 0.33707850000000406,
            "durationTicks": 192,
            "midi": 46,
            "name": "A#2",
            "ticks": 71616,
            "time": 125.73028049999998,
            "velocity": 0.3937007874015748
          },
          {
            "duration": 0.33707850000000406,
            "durationTicks": 192,
            "midi": 51,
            "name": "D#3",
            "ticks": 71808,
            "time": 126.06735899999998,
            "velocity": 0.3937007874015748
          },
          {
            "duration": 0.33707850000000406,
            "durationTicks": 192,
            "midi": 39,
            "name": "D#2",
            "ticks": 71808,
            "time": 126.06735899999998,
            "velocity": 0.3937007874015748
          },
          {
            "duration": 0.33707849999998984,
            "durationTicks": 192,
            "midi": 38,
            "name": "D2",
            "ticks": 72000,
            "time": 126.40443749999999,
            "velocity": 0.3937007874015748
          },
          {
            "duration": 0.33707849999998984,
            "durationTicks": 192,
            "midi": 50,
            "name": "D3",
            "ticks": 72000,
            "time": 126.40443749999999,
            "velocity": 0.3937007874015748
          },
          {
            "duration": 0.33707850000000406,
            "durationTicks": 192,
            "midi": 44,
            "name": "G#2",
            "ticks": 72192,
            "time": 126.74151599999998,
            "velocity": 0.3937007874015748
          },
          {
            "duration": 0.6741570000000081,
            "durationTicks": 384,
            "midi": 75,
            "name": "D#5",
            "ticks": 72192,
            "time": 126.74151599999998,
            "velocity": 0.3937007874015748
          },
          {
            "duration": 0.6741570000000081,
            "durationTicks": 384,
            "midi": 63,
            "name": "D#4",
            "ticks": 72192,
            "time": 126.74151599999998,
            "velocity": 0.3937007874015748
          },
          {
            "duration": 0.33707850000000406,
            "durationTicks": 192,
            "midi": 32,
            "name": "G#1",
            "ticks": 72192,
            "time": 126.74151599999998,
            "velocity": 0.3937007874015748
          },
          {
            "duration": 0.842696250000003,
            "durationTicks": 480,
            "midi": 75,
            "name": "D#5",
            "ticks": 72192,
            "time": 126.74151599999998,
            "velocity": 0.3937007874015748
          },
          {
            "duration": 0.842696250000003,
            "durationTicks": 480,
            "midi": 63,
            "name": "D#4",
            "ticks": 72192,
            "time": 126.74151599999998,
            "velocity": 0.3937007874015748
          },
          {
            "duration": 0.33707850000000406,
            "durationTicks": 192,
            "midi": 36,
            "name": "C2",
            "ticks": 72384,
            "time": 127.07859449999998,
            "velocity": 0.3937007874015748
          },
          {
            "duration": 0.33707850000000406,
            "durationTicks": 192,
            "midi": 48,
            "name": "C3",
            "ticks": 72384,
            "time": 127.07859449999998,
            "velocity": 0.3937007874015748
          },
          {
            "duration": 0.33707849999998984,
            "durationTicks": 192,
            "midi": 51,
            "name": "D#3",
            "ticks": 72576,
            "time": 127.41567299999998,
            "velocity": 0.3937007874015748
          },
          {
            "duration": 0.33707849999998984,
            "durationTicks": 192,
            "midi": 39,
            "name": "D#2",
            "ticks": 72576,
            "time": 127.41567299999998,
            "velocity": 0.3937007874015748
          },
          {
            "duration": 0.16853924999999492,
            "durationTicks": 96,
            "midi": 70,
            "name": "A#4",
            "ticks": 72672,
            "time": 127.58421224999998,
            "velocity": 0.3937007874015748
          },
          {
            "duration": 0.16853924999999492,
            "durationTicks": 96,
            "midi": 70,
            "name": "A#4",
            "ticks": 72672,
            "time": 127.58421224999998,
            "velocity": 0.3937007874015748
          },
          {
            "duration": 0.33707850000000406,
            "durationTicks": 192,
            "midi": 50,
            "name": "D3",
            "ticks": 72768,
            "time": 127.75275149999997,
            "velocity": 0.3937007874015748
          },
          {
            "duration": 0.16853925000000913,
            "durationTicks": 96,
            "midi": 72,
            "name": "C5",
            "ticks": 72768,
            "time": 127.75275149999997,
            "velocity": 0.3937007874015748
          },
          {
            "duration": 0.33707850000000406,
            "durationTicks": 192,
            "midi": 38,
            "name": "D2",
            "ticks": 72768,
            "time": 127.75275149999997,
            "velocity": 0.3937007874015748
          },
          {
            "duration": 0.16853925000000913,
            "durationTicks": 96,
            "midi": 84,
            "name": "C6",
            "ticks": 72768,
            "time": 127.75275149999997,
            "velocity": 0.3937007874015748
          },
          {
            "duration": 0.16853925000000913,
            "durationTicks": 96,
            "midi": 72,
            "name": "C5",
            "ticks": 72768,
            "time": 127.75275149999997,
            "velocity": 0.3937007874015748
          },
          {
            "duration": 0.16853925000000913,
            "durationTicks": 96,
            "midi": 84,
            "name": "C6",
            "ticks": 72768,
            "time": 127.75275149999997,
            "velocity": 0.3937007874015748
          },
          {
            "duration": 0.5056177499999848,
            "durationTicks": 288,
            "midi": 82,
            "name": "A#5",
            "ticks": 72864,
            "time": 127.92129074999998,
            "velocity": 0.3937007874015748
          },
          {
            "duration": 0.5056177499999848,
            "durationTicks": 288,
            "midi": 70,
            "name": "A#4",
            "ticks": 72864,
            "time": 127.92129074999998,
            "velocity": 0.3937007874015748
          },
          {
            "duration": 0.5056177499999848,
            "durationTicks": 288,
            "midi": 70,
            "name": "A#4",
            "ticks": 72864,
            "time": 127.92129074999998,
            "velocity": 0.3937007874015748
          },
          {
            "duration": 0.5056177499999848,
            "durationTicks": 288,
            "midi": 82,
            "name": "A#5",
            "ticks": 72864,
            "time": 127.92129074999998,
            "velocity": 0.3937007874015748
          },
          {
            "duration": 0.33707849999998984,
            "durationTicks": 192,
            "midi": 51,
            "name": "D#3",
            "ticks": 72960,
            "time": 128.08982999999998,
            "velocity": 0.3937007874015748
          },
          {
            "duration": 0.33707849999998984,
            "durationTicks": 192,
            "midi": 39,
            "name": "D#2",
            "ticks": 72960,
            "time": 128.08982999999998,
            "velocity": 0.3937007874015748
          },
          {
            "duration": 0.33707850000001827,
            "durationTicks": 192,
            "midi": 67,
            "name": "G4",
            "ticks": 73152,
            "time": 128.42690849999997,
            "velocity": 0.3937007874015748
          },
          {
            "duration": 0.33707850000001827,
            "durationTicks": 192,
            "midi": 79,
            "name": "G5",
            "ticks": 73152,
            "time": 128.42690849999997,
            "velocity": 0.3937007874015748
          },
          {
            "duration": 0.33707850000001827,
            "durationTicks": 192,
            "midi": 52,
            "name": "E3",
            "ticks": 73152,
            "time": 128.42690849999997,
            "velocity": 0.3937007874015748
          },
          {
            "duration": 0.33707850000001827,
            "durationTicks": 192,
            "midi": 40,
            "name": "E2",
            "ticks": 73152,
            "time": 128.42690849999997,
            "velocity": 0.3937007874015748
          },
          {
            "duration": 0.6741570000000081,
            "durationTicks": 384,
            "midi": 67,
            "name": "G4",
            "ticks": 73152,
            "time": 128.42690849999997,
            "velocity": 0.3937007874015748
          },
          {
            "duration": 0.6741570000000081,
            "durationTicks": 384,
            "midi": 79,
            "name": "G5",
            "ticks": 73152,
            "time": 128.42690849999997,
            "velocity": 0.3937007874015748
          },
          {
            "duration": 0.33707849999998984,
            "durationTicks": 192,
            "midi": 58,
            "name": "A#3",
            "ticks": 73344,
            "time": 128.763987,
            "velocity": 0.3937007874015748
          },
          {
            "duration": 0.33707849999998984,
            "durationTicks": 192,
            "midi": 46,
            "name": "A#2",
            "ticks": 73344,
            "time": 128.763987,
            "velocity": 0.3937007874015748
          },
          {
            "duration": 0.33707849999998984,
            "durationTicks": 192,
            "midi": 79,
            "name": "G5",
            "ticks": 73344,
            "time": 128.763987,
            "velocity": 0.3937007874015748
          },
          {
            "duration": 0.33707849999998984,
            "durationTicks": 192,
            "midi": 67,
            "name": "G4",
            "ticks": 73344,
            "time": 128.763987,
            "velocity": 0.3937007874015748
          },
          {
            "duration": 0.33707849999998984,
            "durationTicks": 192,
            "midi": 36,
            "name": "C2",
            "ticks": 73536,
            "time": 129.10106549999998,
            "velocity": 0.3937007874015748
          },
          {
            "duration": 0.33707849999998984,
            "durationTicks": 192,
            "midi": 80,
            "name": "G#5",
            "ticks": 73536,
            "time": 129.10106549999998,
            "velocity": 0.3937007874015748
          },
          {
            "duration": 0.33707849999998984,
            "durationTicks": 192,
            "midi": 68,
            "name": "G#4",
            "ticks": 73536,
            "time": 129.10106549999998,
            "velocity": 0.3937007874015748
          },
          {
            "duration": 0.33707849999998984,
            "durationTicks": 192,
            "midi": 80,
            "name": "G#5",
            "ticks": 73536,
            "time": 129.10106549999998,
            "velocity": 0.3937007874015748
          },
          {
            "duration": 0.33707849999998984,
            "durationTicks": 192,
            "midi": 68,
            "name": "G#4",
            "ticks": 73536,
            "time": 129.10106549999998,
            "velocity": 0.3937007874015748
          },
          {
            "duration": 0.33707849999998984,
            "durationTicks": 192,
            "midi": 48,
            "name": "C3",
            "ticks": 73536,
            "time": 129.10106549999998,
            "velocity": 0.3937007874015748
          },
          {
            "duration": 0.6741570000000081,
            "durationTicks": 384,
            "midi": 65,
            "name": "F4",
            "ticks": 73728,
            "time": 129.43814399999997,
            "velocity": 0.3937007874015748
          },
          {
            "duration": 0.33707850000001827,
            "durationTicks": 192,
            "midi": 41,
            "name": "F2",
            "ticks": 73728,
            "time": 129.43814399999997,
            "velocity": 0.3937007874015748
          },
          {
            "duration": 0.6741570000000081,
            "durationTicks": 384,
            "midi": 65,
            "name": "F4",
            "ticks": 73728,
            "time": 129.43814399999997,
            "velocity": 0.3937007874015748
          },
          {
            "duration": 0.6741570000000081,
            "durationTicks": 384,
            "midi": 77,
            "name": "F5",
            "ticks": 73728,
            "time": 129.43814399999997,
            "velocity": 0.3937007874015748
          },
          {
            "duration": 0.6741570000000081,
            "durationTicks": 384,
            "midi": 77,
            "name": "F5",
            "ticks": 73728,
            "time": 129.43814399999997,
            "velocity": 0.3937007874015748
          },
          {
            "duration": 0.33707850000001827,
            "durationTicks": 192,
            "midi": 29,
            "name": "F1",
            "ticks": 73728,
            "time": 129.43814399999997,
            "velocity": 0.3937007874015748
          },
          {
            "duration": 0.33707849999998984,
            "durationTicks": 192,
            "midi": 44,
            "name": "G#2",
            "ticks": 73920,
            "time": 129.77522249999998,
            "velocity": 0.3937007874015748
          },
          {
            "duration": 0.33707849999998984,
            "durationTicks": 192,
            "midi": 32,
            "name": "G#1",
            "ticks": 73920,
            "time": 129.77522249999998,
            "velocity": 0.3937007874015748
          },
          {
            "duration": 0.33707850000001827,
            "durationTicks": 192,
            "midi": 39,
            "name": "D#2",
            "ticks": 74112,
            "time": 130.11230099999997,
            "velocity": 0.3937007874015748
          },
          {
            "duration": 1.8539317500000152,
            "durationTicks": 1056,
            "midi": 63,
            "name": "D#4",
            "ticks": 74112,
            "time": 130.11230099999997,
            "velocity": 0.3937007874015748
          },
          {
            "duration": 1.8539317500000152,
            "durationTicks": 1056,
            "midi": 75,
            "name": "D#5",
            "ticks": 74112,
            "time": 130.11230099999997,
            "velocity": 0.3937007874015748
          },
          {
            "duration": 0.33707850000001827,
            "durationTicks": 192,
            "midi": 51,
            "name": "D#3",
            "ticks": 74112,
            "time": 130.11230099999997,
            "velocity": 0.3937007874015748
          },
          {
            "duration": 1.8539317500000152,
            "durationTicks": 1056,
            "midi": 75,
            "name": "D#5",
            "ticks": 74112,
            "time": 130.11230099999997,
            "velocity": 0.3937007874015748
          },
          {
            "duration": 1.8539317500000152,
            "durationTicks": 1056,
            "midi": 63,
            "name": "D#4",
            "ticks": 74112,
            "time": 130.11230099999997,
            "velocity": 0.3937007874015748
          },
          {
            "duration": 0.33707849999998984,
            "durationTicks": 192,
            "midi": 48,
            "name": "C3",
            "ticks": 74304,
            "time": 130.4493795,
            "velocity": 0.3937007874015748
          },
          {
            "duration": 0.33707849999998984,
            "durationTicks": 192,
            "midi": 36,
            "name": "C2",
            "ticks": 74304,
            "time": 130.4493795,
            "velocity": 0.3937007874015748
          },
          {
            "duration": 0.33707849999998984,
            "durationTicks": 192,
            "midi": 27,
            "name": "D#1",
            "ticks": 74496,
            "time": 130.78645799999998,
            "velocity": 0.3937007874015748
          },
          {
            "duration": 0.33707849999998984,
            "durationTicks": 192,
            "midi": 39,
            "name": "D#2",
            "ticks": 74496,
            "time": 130.78645799999998,
            "velocity": 0.3937007874015748
          },
          {
            "duration": 0.33707850000001827,
            "durationTicks": 192,
            "midi": 46,
            "name": "A#2",
            "ticks": 74688,
            "time": 131.12353649999997,
            "velocity": 0.3937007874015748
          },
          {
            "duration": 0.33707850000001827,
            "durationTicks": 192,
            "midi": 34,
            "name": "A#1",
            "ticks": 74688,
            "time": 131.12353649999997,
            "velocity": 0.3937007874015748
          },
          {
            "duration": 0.33707849999998984,
            "durationTicks": 192,
            "midi": 51,
            "name": "D#3",
            "ticks": 74880,
            "time": 131.460615,
            "velocity": 0.3937007874015748
          },
          {
            "duration": 0.33707849999998984,
            "durationTicks": 192,
            "midi": 39,
            "name": "D#2",
            "ticks": 74880,
            "time": 131.460615,
            "velocity": 0.3937007874015748
          },
          {
            "duration": 0.33707849999998984,
            "durationTicks": 192,
            "midi": 34,
            "name": "A#1",
            "ticks": 75072,
            "time": 131.79769349999998,
            "velocity": 0.3937007874015748
          },
          {
            "duration": 0.33707849999998984,
            "durationTicks": 192,
            "midi": 46,
            "name": "A#2",
            "ticks": 75072,
            "time": 131.79769349999998,
            "velocity": 0.3937007874015748
          },
          {
            "duration": 0.1685392499999807,
            "durationTicks": 96,
            "midi": 72,
            "name": "C5",
            "ticks": 75168,
            "time": 131.96623275,
            "velocity": 0.3937007874015748
          },
          {
            "duration": 0.1685392499999807,
            "durationTicks": 96,
            "midi": 60,
            "name": "C4",
            "ticks": 75168,
            "time": 131.96623275,
            "velocity": 0.3937007874015748
          },
          {
            "duration": 0.1685392499999807,
            "durationTicks": 96,
            "midi": 60,
            "name": "C4",
            "ticks": 75168,
            "time": 131.96623275,
            "velocity": 0.3937007874015748
          },
          {
            "duration": 0.1685392499999807,
            "durationTicks": 96,
            "midi": 72,
            "name": "C5",
            "ticks": 75168,
            "time": 131.96623275,
            "velocity": 0.3937007874015748
          },
          {
            "duration": 0.33707850000001827,
            "durationTicks": 192,
            "midi": 75,
            "name": "D#5",
            "ticks": 75264,
            "time": 132.13477199999997,
            "velocity": 0.3937007874015748
          },
          {
            "duration": 0.33707850000001827,
            "durationTicks": 192,
            "midi": 63,
            "name": "D#4",
            "ticks": 75264,
            "time": 132.13477199999997,
            "velocity": 0.3937007874015748
          },
          {
            "duration": 0.33707850000001827,
            "durationTicks": 192,
            "midi": 38,
            "name": "D2",
            "ticks": 75264,
            "time": 132.13477199999997,
            "velocity": 0.3937007874015748
          },
          {
            "duration": 0.6741570000000081,
            "durationTicks": 384,
            "midi": 75,
            "name": "D#5",
            "ticks": 75264,
            "time": 132.13477199999997,
            "velocity": 0.3937007874015748
          },
          {
            "duration": 0.33707850000001827,
            "durationTicks": 192,
            "midi": 26,
            "name": "D1",
            "ticks": 75264,
            "time": 132.13477199999997,
            "velocity": 0.3937007874015748
          },
          {
            "duration": 0.6741570000000081,
            "durationTicks": 384,
            "midi": 63,
            "name": "D#4",
            "ticks": 75264,
            "time": 132.13477199999997,
            "velocity": 0.3937007874015748
          },
          {
            "duration": 0.33707849999998984,
            "durationTicks": 192,
            "midi": 31,
            "name": "G1",
            "ticks": 75456,
            "time": 132.4718505,
            "velocity": 0.3937007874015748
          },
          {
            "duration": 0.33707849999998984,
            "durationTicks": 192,
            "midi": 43,
            "name": "G2",
            "ticks": 75456,
            "time": 132.4718505,
            "velocity": 0.3937007874015748
          },
          {
            "duration": 0.505617749999999,
            "durationTicks": 288,
            "midi": 75,
            "name": "D#5",
            "ticks": 75456,
            "time": 132.4718505,
            "velocity": 0.3937007874015748
          },
          {
            "duration": 0.505617749999999,
            "durationTicks": 288,
            "midi": 63,
            "name": "D#4",
            "ticks": 75456,
            "time": 132.4718505,
            "velocity": 0.3937007874015748
          },
          {
            "duration": 0.33707849999998984,
            "durationTicks": 192,
            "midi": 39,
            "name": "D#2",
            "ticks": 75648,
            "time": 132.80892899999998,
            "velocity": 0.3937007874015748
          },
          {
            "duration": 0.33707849999998984,
            "durationTicks": 192,
            "midi": 51,
            "name": "D#3",
            "ticks": 75648,
            "time": 132.80892899999998,
            "velocity": 0.3937007874015748
          },
          {
            "duration": 0.16853925000000913,
            "durationTicks": 96,
            "midi": 63,
            "name": "D#4",
            "ticks": 75648,
            "time": 132.80892899999998,
            "velocity": 0.3937007874015748
          },
          {
            "duration": 0.16853925000000913,
            "durationTicks": 96,
            "midi": 75,
            "name": "D#5",
            "ticks": 75648,
            "time": 132.80892899999998,
            "velocity": 0.3937007874015748
          },
          {
            "duration": 0.33707849999998984,
            "durationTicks": 192,
            "midi": 65,
            "name": "F4",
            "ticks": 75744,
            "time": 132.97746825,
            "velocity": 0.3937007874015748
          },
          {
            "duration": 0.33707849999998984,
            "durationTicks": 192,
            "midi": 65,
            "name": "F4",
            "ticks": 75744,
            "time": 132.97746825,
            "velocity": 0.3937007874015748
          },
          {
            "duration": 0.33707849999998984,
            "durationTicks": 192,
            "midi": 77,
            "name": "F5",
            "ticks": 75744,
            "time": 132.97746825,
            "velocity": 0.3937007874015748
          },
          {
            "duration": 0.33707849999998984,
            "durationTicks": 192,
            "midi": 77,
            "name": "F5",
            "ticks": 75744,
            "time": 132.97746825,
            "velocity": 0.3937007874015748
          },
          {
            "duration": 0.33707850000001827,
            "durationTicks": 192,
            "midi": 34,
            "name": "A#1",
            "ticks": 75840,
            "time": 133.14600749999997,
            "velocity": 0.3937007874015748
          },
          {
            "duration": 0.33707850000001827,
            "durationTicks": 192,
            "midi": 46,
            "name": "A#2",
            "ticks": 75840,
            "time": 133.14600749999997,
            "velocity": 0.3937007874015748
          },
          {
            "duration": 0.505617749999999,
            "durationTicks": 288,
            "midi": 62,
            "name": "D4",
            "ticks": 75936,
            "time": 133.31454674999998,
            "velocity": 0.3937007874015748
          },
          {
            "duration": 0.505617749999999,
            "durationTicks": 288,
            "midi": 62,
            "name": "D4",
            "ticks": 75936,
            "time": 133.31454674999998,
            "velocity": 0.3937007874015748
          },
          {
            "duration": 0.505617749999999,
            "durationTicks": 288,
            "midi": 74,
            "name": "D5",
            "ticks": 75936,
            "time": 133.31454674999998,
            "velocity": 0.3937007874015748
          },
          {
            "duration": 0.505617749999999,
            "durationTicks": 288,
            "midi": 74,
            "name": "D5",
            "ticks": 75936,
            "time": 133.31454674999998,
            "velocity": 0.3937007874015748
          },
          {
            "duration": 0.6741569999999797,
            "durationTicks": 384,
            "midi": 26,
            "name": "D1",
            "ticks": 76032,
            "time": 133.483086,
            "velocity": 0.3937007874015748
          },
          {
            "duration": 0.6741569999999797,
            "durationTicks": 384,
            "midi": 38,
            "name": "D2",
            "ticks": 76032,
            "time": 133.483086,
            "velocity": 0.3937007874015748
          },
          {
            "duration": 0.33707849999998984,
            "durationTicks": 192,
            "midi": 67,
            "name": "G4",
            "ticks": 76224,
            "time": 133.82016449999998,
            "velocity": 0.3937007874015748
          },
          {
            "duration": 0.6741570000000081,
            "durationTicks": 384,
            "midi": 67,
            "name": "G4",
            "ticks": 76224,
            "time": 133.82016449999998,
            "velocity": 0.3937007874015748
          },
          {
            "duration": 0.33707849999998984,
            "durationTicks": 192,
            "midi": 79,
            "name": "G5",
            "ticks": 76224,
            "time": 133.82016449999998,
            "velocity": 0.3937007874015748
          },
          {
            "duration": 0.6741570000000081,
            "durationTicks": 384,
            "midi": 79,
            "name": "G5",
            "ticks": 76224,
            "time": 133.82016449999998,
            "velocity": 0.3937007874015748
          },
          {
            "duration": 0.33707850000001827,
            "durationTicks": 192,
            "midi": 79,
            "name": "G5",
            "ticks": 76416,
            "time": 134.15724299999997,
            "velocity": 0.3937007874015748
          },
          {
            "duration": 0.6741570000000081,
            "durationTicks": 384,
            "midi": 43,
            "name": "G2",
            "ticks": 76416,
            "time": 134.15724299999997,
            "velocity": 0.3937007874015748
          },
          {
            "duration": 0.6741570000000081,
            "durationTicks": 384,
            "midi": 31,
            "name": "G1",
            "ticks": 76416,
            "time": 134.15724299999997,
            "velocity": 0.3937007874015748
          },
          {
            "duration": 0.33707850000001827,
            "durationTicks": 192,
            "midi": 67,
            "name": "G4",
            "ticks": 76416,
            "time": 134.15724299999997,
            "velocity": 0.3937007874015748
          },
          {
            "duration": 0.33707849999998984,
            "durationTicks": 192,
            "midi": 80,
            "name": "G#5",
            "ticks": 76608,
            "time": 134.49432149999998,
            "velocity": 0.3937007874015748
          },
          {
            "duration": 0.33707849999998984,
            "durationTicks": 192,
            "midi": 80,
            "name": "G#5",
            "ticks": 76608,
            "time": 134.49432149999998,
            "velocity": 0.3937007874015748
          },
          {
            "duration": 0.33707849999998984,
            "durationTicks": 192,
            "midi": 68,
            "name": "G#4",
            "ticks": 76608,
            "time": 134.49432149999998,
            "velocity": 0.3937007874015748
          },
          {
            "duration": 0.33707849999998984,
            "durationTicks": 192,
            "midi": 68,
            "name": "G#4",
            "ticks": 76608,
            "time": 134.49432149999998,
            "velocity": 0.3937007874015748
          },
          {
            "duration": 3.370785000000012,
            "durationTicks": 1920,
            "midi": 67,
            "name": "G4",
            "ticks": 76800,
            "time": 134.83139999999997,
            "velocity": 0.3937007874015748
          },
          {
            "duration": 3.539324249999993,
            "durationTicks": 2016,
            "midi": 67,
            "name": "G4",
            "ticks": 76800,
            "time": 134.83139999999997,
            "velocity": 0.3937007874015748
          },
          {
            "duration": 3.370785000000012,
            "durationTicks": 1920,
            "midi": 79,
            "name": "G5",
            "ticks": 76800,
            "time": 134.83139999999997,
            "velocity": 0.3937007874015748
          },
          {
            "duration": 3.539324249999993,
            "durationTicks": 2016,
            "midi": 79,
            "name": "G5",
            "ticks": 76800,
            "time": 134.83139999999997,
            "velocity": 0.3937007874015748
          },
          {
            "duration": 0.33707850000001827,
            "durationTicks": 192,
            "midi": 36,
            "name": "C2",
            "ticks": 76800,
            "time": 134.83139999999997,
            "velocity": 0.3937007874015748
          },
          {
            "duration": 0.33707850000001827,
            "durationTicks": 192,
            "midi": 24,
            "name": "C1",
            "ticks": 76800,
            "time": 134.83139999999997,
            "velocity": 0.3937007874015748
          },
          {
            "duration": 0.33707849999998984,
            "durationTicks": 192,
            "midi": 36,
            "name": "C2",
            "ticks": 76992,
            "time": 135.1684785,
            "velocity": 0.3937007874015748
          },
          {
            "duration": 0.33707849999998984,
            "durationTicks": 192,
            "midi": 48,
            "name": "C3",
            "ticks": 76992,
            "time": 135.1684785,
            "velocity": 0.3937007874015748
          },
          {
            "duration": 0.33707849999998984,
            "durationTicks": 192,
            "midi": 51,
            "name": "D#3",
            "ticks": 77184,
            "time": 135.50555699999998,
            "velocity": 0.3937007874015748
          },
          {
            "duration": 0.33707849999998984,
            "durationTicks": 192,
            "midi": 39,
            "name": "D#2",
            "ticks": 77184,
            "time": 135.50555699999998,
            "velocity": 0.3937007874015748
          },
          {
            "duration": 0.33707850000001827,
            "durationTicks": 192,
            "midi": 50,
            "name": "D3",
            "ticks": 77376,
            "time": 135.84263549999997,
            "velocity": 0.3937007874015748
          },
          {
            "duration": 0.33707850000001827,
            "durationTicks": 192,
            "midi": 38,
            "name": "D2",
            "ticks": 77376,
            "time": 135.84263549999997,
            "velocity": 0.3937007874015748
          },
          {
            "duration": 0.33707849999998984,
            "durationTicks": 192,
            "midi": 43,
            "name": "G2",
            "ticks": 77568,
            "time": 136.179714,
            "velocity": 0.3937007874015748
          },
          {
            "duration": 0.33707849999998984,
            "durationTicks": 192,
            "midi": 31,
            "name": "G1",
            "ticks": 77568,
            "time": 136.179714,
            "velocity": 0.3937007874015748
          },
          {
            "duration": 0.33707849999998984,
            "durationTicks": 192,
            "midi": 34,
            "name": "A#1",
            "ticks": 77760,
            "time": 136.51679249999998,
            "velocity": 0.3937007874015748
          },
          {
            "duration": 0.33707849999998984,
            "durationTicks": 192,
            "midi": 46,
            "name": "A#2",
            "ticks": 77760,
            "time": 136.51679249999998,
            "velocity": 0.3937007874015748
          },
          {
            "duration": 0.33707850000001827,
            "durationTicks": 192,
            "midi": 39,
            "name": "D#2",
            "ticks": 77952,
            "time": 136.85387099999997,
            "velocity": 0.3937007874015748
          },
          {
            "duration": 0.33707850000001827,
            "durationTicks": 192,
            "midi": 51,
            "name": "D#3",
            "ticks": 77952,
            "time": 136.85387099999997,
            "velocity": 0.3937007874015748
          },
          {
            "duration": 0.33707849999998984,
            "durationTicks": 192,
            "midi": 50,
            "name": "D3",
            "ticks": 78144,
            "time": 137.1909495,
            "velocity": 0.3937007874015748
          },
          {
            "duration": 0.33707849999998984,
            "durationTicks": 192,
            "midi": 38,
            "name": "D2",
            "ticks": 78144,
            "time": 137.1909495,
            "velocity": 0.3937007874015748
          },
          {
            "duration": 0.33707849999998984,
            "durationTicks": 192,
            "midi": 44,
            "name": "G#2",
            "ticks": 78336,
            "time": 137.52802799999998,
            "velocity": 0.3937007874015748
          },
          {
            "duration": 0.33707849999998984,
            "durationTicks": 192,
            "midi": 32,
            "name": "G#1",
            "ticks": 78336,
            "time": 137.52802799999998,
            "velocity": 0.3937007874015748
          },
          {
            "duration": 0.33707850000001827,
            "durationTicks": 192,
            "midi": 48,
            "name": "C3",
            "ticks": 78528,
            "time": 137.86510649999997,
            "velocity": 0.3937007874015748
          },
          {
            "duration": 0.33707850000001827,
            "durationTicks": 192,
            "midi": 36,
            "name": "C2",
            "ticks": 78528,
            "time": 137.86510649999997,
            "velocity": 0.3937007874015748
          },
          {
            "duration": 0.33707849999998984,
            "durationTicks": 192,
            "midi": 39,
            "name": "D#2",
            "ticks": 78720,
            "time": 138.202185,
            "velocity": 0.3937007874015748
          },
          {
            "duration": 0.33707849999998984,
            "durationTicks": 192,
            "midi": 51,
            "name": "D#3",
            "ticks": 78720,
            "time": 138.202185,
            "velocity": 0.3937007874015748
          },
          {
            "duration": 0.16853925000000913,
            "durationTicks": 96,
            "midi": 75,
            "name": "D#5",
            "ticks": 78816,
            "time": 138.37072424999997,
            "velocity": 0.3937007874015748
          },
          {
            "duration": 0.16853925000000913,
            "durationTicks": 96,
            "midi": 75,
            "name": "D#5",
            "ticks": 78816,
            "time": 138.37072424999997,
            "velocity": 0.3937007874015748
          },
          {
            "duration": 0.16853925000000913,
            "durationTicks": 96,
            "midi": 63,
            "name": "D#4",
            "ticks": 78816,
            "time": 138.37072424999997,
            "velocity": 0.3937007874015748
          },
          {
            "duration": 0.16853925000000913,
            "durationTicks": 96,
            "midi": 63,
            "name": "D#4",
            "ticks": 78816,
            "time": 138.37072424999997,
            "velocity": 0.3937007874015748
          },
          {
            "duration": 0.33707849999998984,
            "durationTicks": 192,
            "midi": 50,
            "name": "D3",
            "ticks": 78912,
            "time": 138.53926349999998,
            "velocity": 0.3937007874015748
          },
          {
            "duration": 0.16853925000000913,
            "durationTicks": 96,
            "midi": 77,
            "name": "F5",
            "ticks": 78912,
            "time": 138.53926349999998,
            "velocity": 0.3937007874015748
          },
          {
            "duration": 0.16853925000000913,
            "durationTicks": 96,
            "midi": 77,
            "name": "F5",
            "ticks": 78912,
            "time": 138.53926349999998,
            "velocity": 0.3937007874015748
          },
          {
            "duration": 0.33707849999998984,
            "durationTicks": 192,
            "midi": 38,
            "name": "D2",
            "ticks": 78912,
            "time": 138.53926349999998,
            "velocity": 0.3937007874015748
          },
          {
            "duration": 0.16853925000000913,
            "durationTicks": 96,
            "midi": 65,
            "name": "F4",
            "ticks": 78912,
            "time": 138.53926349999998,
            "velocity": 0.3937007874015748
          },
          {
            "duration": 0.16853925000000913,
            "durationTicks": 96,
            "midi": 65,
            "name": "F4",
            "ticks": 78912,
            "time": 138.53926349999998,
            "velocity": 0.3937007874015748
          },
          {
            "duration": 1.3483139999999878,
            "durationTicks": 768,
            "midi": 67,
            "name": "G4",
            "ticks": 79008,
            "time": 138.70780274999998,
            "velocity": 0.3937007874015748
          },
          {
            "duration": 1.3483139999999878,
            "durationTicks": 768,
            "midi": 79,
            "name": "G5",
            "ticks": 79008,
            "time": 138.70780274999998,
            "velocity": 0.3937007874015748
          },
          {
            "duration": 1.3483139999999878,
            "durationTicks": 768,
            "midi": 79,
            "name": "G5",
            "ticks": 79008,
            "time": 138.70780274999998,
            "velocity": 0.3937007874015748
          },
          {
            "duration": 1.3483139999999878,
            "durationTicks": 768,
            "midi": 67,
            "name": "G4",
            "ticks": 79008,
            "time": 138.70780274999998,
            "velocity": 0.3937007874015748
          },
          {
            "duration": 0.33707850000001827,
            "durationTicks": 192,
            "midi": 51,
            "name": "D#3",
            "ticks": 79104,
            "time": 138.87634199999997,
            "velocity": 0.3937007874015748
          },
          {
            "duration": 0.33707850000001827,
            "durationTicks": 192,
            "midi": 39,
            "name": "D#2",
            "ticks": 79104,
            "time": 138.87634199999997,
            "velocity": 0.3937007874015748
          },
          {
            "duration": 0.33707849999998984,
            "durationTicks": 192,
            "midi": 40,
            "name": "E2",
            "ticks": 79296,
            "time": 139.21342049999998,
            "velocity": 0.3937007874015748
          },
          {
            "duration": 0.33707849999998984,
            "durationTicks": 192,
            "midi": 52,
            "name": "E3",
            "ticks": 79296,
            "time": 139.21342049999998,
            "velocity": 0.3937007874015748
          },
          {
            "duration": 0.33707850000001827,
            "durationTicks": 192,
            "midi": 46,
            "name": "A#2",
            "ticks": 79488,
            "time": 139.55049899999997,
            "velocity": 0.3937007874015748
          },
          {
            "duration": 0.33707850000001827,
            "durationTicks": 192,
            "midi": 58,
            "name": "A#3",
            "ticks": 79488,
            "time": 139.55049899999997,
            "velocity": 0.3937007874015748
          },
          {
            "duration": 0.33707849999998984,
            "durationTicks": 192,
            "midi": 36,
            "name": "C2",
            "ticks": 79680,
            "time": 139.8875775,
            "velocity": 0.3937007874015748
          },
          {
            "duration": 0.33707849999998984,
            "durationTicks": 192,
            "midi": 48,
            "name": "C3",
            "ticks": 79680,
            "time": 139.8875775,
            "velocity": 0.3937007874015748
          },
          {
            "duration": 0.33707850000001827,
            "durationTicks": 192,
            "midi": 68,
            "name": "G#4",
            "ticks": 79776,
            "time": 140.05611674999997,
            "velocity": 0.3937007874015748
          },
          {
            "duration": 0.33707850000001827,
            "durationTicks": 192,
            "midi": 80,
            "name": "G#5",
            "ticks": 79776,
            "time": 140.05611674999997,
            "velocity": 0.3937007874015748
          },
          {
            "duration": 0.33707850000001827,
            "durationTicks": 192,
            "midi": 80,
            "name": "G#5",
            "ticks": 79776,
            "time": 140.05611674999997,
            "velocity": 0.3937007874015748
          },
          {
            "duration": 0.33707850000001827,
            "durationTicks": 192,
            "midi": 68,
            "name": "G#4",
            "ticks": 79776,
            "time": 140.05611674999997,
            "velocity": 0.3937007874015748
          },
          {
            "duration": 0.33707849999998984,
            "durationTicks": 192,
            "midi": 29,
            "name": "F1",
            "ticks": 79872,
            "time": 140.22465599999998,
            "velocity": 0.3937007874015748
          },
          {
            "duration": 0.33707849999998984,
            "durationTicks": 192,
            "midi": 41,
            "name": "F2",
            "ticks": 79872,
            "time": 140.22465599999998,
            "velocity": 0.3937007874015748
          },
          {
            "duration": 0.1685392499999807,
            "durationTicks": 96,
            "midi": 79,
            "name": "G5",
            "ticks": 79968,
            "time": 140.39319525,
            "velocity": 0.3937007874015748
          },
          {
            "duration": 0.1685392499999807,
            "durationTicks": 96,
            "midi": 79,
            "name": "G5",
            "ticks": 79968,
            "time": 140.39319525,
            "velocity": 0.3937007874015748
          },
          {
            "duration": 0.1685392499999807,
            "durationTicks": 96,
            "midi": 67,
            "name": "G4",
            "ticks": 79968,
            "time": 140.39319525,
            "velocity": 0.3937007874015748
          },
          {
            "duration": 0.1685392499999807,
            "durationTicks": 96,
            "midi": 67,
            "name": "G4",
            "ticks": 79968,
            "time": 140.39319525,
            "velocity": 0.3937007874015748
          },
          {
            "duration": 0.33707850000001827,
            "durationTicks": 192,
            "midi": 32,
            "name": "G#1",
            "ticks": 80064,
            "time": 140.56173449999997,
            "velocity": 0.3937007874015748
          },
          {
            "duration": 0.6741570000000081,
            "durationTicks": 384,
            "midi": 75,
            "name": "D#5",
            "ticks": 80064,
            "time": 140.56173449999997,
            "velocity": 0.3937007874015748
          },
          {
            "duration": 0.6741570000000081,
            "durationTicks": 384,
            "midi": 63,
            "name": "D#4",
            "ticks": 80064,
            "time": 140.56173449999997,
            "velocity": 0.3937007874015748
          },
          {
            "duration": 0.33707850000001827,
            "durationTicks": 192,
            "midi": 44,
            "name": "G#2",
            "ticks": 80064,
            "time": 140.56173449999997,
            "velocity": 0.3937007874015748
          },
          {
            "duration": 0.6741570000000081,
            "durationTicks": 384,
            "midi": 63,
            "name": "D#4",
            "ticks": 80064,
            "time": 140.56173449999997,
            "velocity": 0.3937007874015748
          },
          {
            "duration": 0.6741570000000081,
            "durationTicks": 384,
            "midi": 75,
            "name": "D#5",
            "ticks": 80064,
            "time": 140.56173449999997,
            "velocity": 0.3937007874015748
          },
          {
            "duration": 0.33707849999998984,
            "durationTicks": 192,
            "midi": 51,
            "name": "D#3",
            "ticks": 80256,
            "time": 140.898813,
            "velocity": 0.3937007874015748
          },
          {
            "duration": 0.33707849999998984,
            "durationTicks": 192,
            "midi": 39,
            "name": "D#2",
            "ticks": 80256,
            "time": 140.898813,
            "velocity": 0.3937007874015748
          },
          {
            "duration": 0.16853925000000913,
            "durationTicks": 96,
            "midi": 60,
            "name": "C4",
            "ticks": 80448,
            "time": 141.23589149999998,
            "velocity": 0.3937007874015748
          },
          {
            "duration": 0.33707849999998984,
            "durationTicks": 192,
            "midi": 36,
            "name": "C2",
            "ticks": 80448,
            "time": 141.23589149999998,
            "velocity": 0.3937007874015748
          },
          {
            "duration": 0.16853925000000913,
            "durationTicks": 96,
            "midi": 72,
            "name": "C5",
            "ticks": 80448,
            "time": 141.23589149999998,
            "velocity": 0.3937007874015748
          },
          {
            "duration": 0.33707849999998984,
            "durationTicks": 192,
            "midi": 48,
            "name": "C3",
            "ticks": 80448,
            "time": 141.23589149999998,
            "velocity": 0.3937007874015748
          },
          {
            "duration": 0.16853925000000913,
            "durationTicks": 96,
            "midi": 60,
            "name": "C4",
            "ticks": 80448,
            "time": 141.23589149999998,
            "velocity": 0.3937007874015748
          },
          {
            "duration": 0.16853925000000913,
            "durationTicks": 96,
            "midi": 72,
            "name": "C5",
            "ticks": 80448,
            "time": 141.23589149999998,
            "velocity": 0.3937007874015748
          },
          {
            "duration": 0.33707849999998984,
            "durationTicks": 192,
            "midi": 70,
            "name": "A#4",
            "ticks": 80544,
            "time": 141.40443075,
            "velocity": 0.3937007874015748
          },
          {
            "duration": 0.33707849999998984,
            "durationTicks": 192,
            "midi": 58,
            "name": "A#3",
            "ticks": 80544,
            "time": 141.40443075,
            "velocity": 0.3937007874015748
          },
          {
            "duration": 0.33707849999998984,
            "durationTicks": 192,
            "midi": 58,
            "name": "A#3",
            "ticks": 80544,
            "time": 141.40443075,
            "velocity": 0.3937007874015748
          },
          {
            "duration": 0.33707849999998984,
            "durationTicks": 192,
            "midi": 70,
            "name": "A#4",
            "ticks": 80544,
            "time": 141.40443075,
            "velocity": 0.3937007874015748
          },
          {
            "duration": 0.33707850000001827,
            "durationTicks": 192,
            "midi": 39,
            "name": "D#2",
            "ticks": 80640,
            "time": 141.57296999999997,
            "velocity": 0.3937007874015748
          },
          {
            "duration": 0.33707850000001827,
            "durationTicks": 192,
            "midi": 27,
            "name": "D#1",
            "ticks": 80640,
            "time": 141.57296999999997,
            "velocity": 0.3937007874015748
          },
          {
            "duration": 0.16853925000000913,
            "durationTicks": 96,
            "midi": 75,
            "name": "D#5",
            "ticks": 80736,
            "time": 141.74150924999998,
            "velocity": 0.3937007874015748
          },
          {
            "duration": 0.16853925000000913,
            "durationTicks": 96,
            "midi": 63,
            "name": "D#4",
            "ticks": 80736,
            "time": 141.74150924999998,
            "velocity": 0.3937007874015748
          },
          {
            "duration": 0.16853925000000913,
            "durationTicks": 96,
            "midi": 75,
            "name": "D#5",
            "ticks": 80736,
            "time": 141.74150924999998,
            "velocity": 0.3937007874015748
          },
          {
            "duration": 0.16853925000000913,
            "durationTicks": 96,
            "midi": 63,
            "name": "D#4",
            "ticks": 80736,
            "time": 141.74150924999998,
            "velocity": 0.3937007874015748
          },
          {
            "duration": 0.33707849999998984,
            "durationTicks": 192,
            "midi": 46,
            "name": "A#2",
            "ticks": 80832,
            "time": 141.9100485,
            "velocity": 0.3937007874015748
          },
          {
            "duration": 0.33707849999998984,
            "durationTicks": 192,
            "midi": 34,
            "name": "A#1",
            "ticks": 80832,
            "time": 141.9100485,
            "velocity": 0.3937007874015748
          },
          {
            "duration": 0.33707849999998984,
            "durationTicks": 192,
            "midi": 60,
            "name": "C4",
            "ticks": 80832,
            "time": 141.9100485,
            "velocity": 0.3937007874015748
          },
          {
            "duration": 0.33707849999998984,
            "durationTicks": 192,
            "midi": 72,
            "name": "C5",
            "ticks": 80832,
            "time": 141.9100485,
            "velocity": 0.3937007874015748
          },
          {
            "duration": 0.33707849999998984,
            "durationTicks": 192,
            "midi": 60,
            "name": "C4",
            "ticks": 80832,
            "time": 141.9100485,
            "velocity": 0.3937007874015748
          },
          {
            "duration": 0.33707849999998984,
            "durationTicks": 192,
            "midi": 72,
            "name": "C5",
            "ticks": 80832,
            "time": 141.9100485,
            "velocity": 0.3937007874015748
          },
          {
            "duration": 0.16853925000000913,
            "durationTicks": 96,
            "midi": 70,
            "name": "A#4",
            "ticks": 81024,
            "time": 142.24712699999998,
            "velocity": 0.3937007874015748
          },
          {
            "duration": 0.16853925000000913,
            "durationTicks": 96,
            "midi": 58,
            "name": "A#3",
            "ticks": 81024,
            "time": 142.24712699999998,
            "velocity": 0.3937007874015748
          },
          {
            "duration": 0.16853925000000913,
            "durationTicks": 96,
            "midi": 58,
            "name": "A#3",
            "ticks": 81024,
            "time": 142.24712699999998,
            "velocity": 0.3937007874015748
          },
          {
            "duration": 0.33707849999998984,
            "durationTicks": 192,
            "midi": 51,
            "name": "D#3",
            "ticks": 81024,
            "time": 142.24712699999998,
            "velocity": 0.3937007874015748
          },
          {
            "duration": 0.16853925000000913,
            "durationTicks": 96,
            "midi": 70,
            "name": "A#4",
            "ticks": 81024,
            "time": 142.24712699999998,
            "velocity": 0.3937007874015748
          },
          {
            "duration": 0.33707849999998984,
            "durationTicks": 192,
            "midi": 39,
            "name": "D#2",
            "ticks": 81024,
            "time": 142.24712699999998,
            "velocity": 0.3937007874015748
          },
          {
            "duration": 0.505617749999999,
            "durationTicks": 288,
            "midi": 55,
            "name": "G3",
            "ticks": 81120,
            "time": 142.41566625,
            "velocity": 0.3937007874015748
          },
          {
            "duration": 0.505617749999999,
            "durationTicks": 288,
            "midi": 55,
            "name": "G3",
            "ticks": 81120,
            "time": 142.41566625,
            "velocity": 0.3937007874015748
          },
          {
            "duration": 0.505617749999999,
            "durationTicks": 288,
            "midi": 67,
            "name": "G4",
            "ticks": 81120,
            "time": 142.41566625,
            "velocity": 0.3937007874015748
          },
          {
            "duration": 0.505617749999999,
            "durationTicks": 288,
            "midi": 67,
            "name": "G4",
            "ticks": 81120,
            "time": 142.41566625,
            "velocity": 0.3937007874015748
          },
          {
            "duration": 0.33707850000001827,
            "durationTicks": 192,
            "midi": 46,
            "name": "A#2",
            "ticks": 81216,
            "time": 142.58420549999997,
            "velocity": 0.3937007874015748
          },
          {
            "duration": 0.33707850000001827,
            "durationTicks": 192,
            "midi": 34,
            "name": "A#1",
            "ticks": 81216,
            "time": 142.58420549999997,
            "velocity": 0.3937007874015748
          },
          {
            "duration": 0.33707849999998984,
            "durationTicks": 192,
            "midi": 65,
            "name": "F4",
            "ticks": 81408,
            "time": 142.92128399999999,
            "velocity": 0.3937007874015748
          },
          {
            "duration": 0.33707849999998984,
            "durationTicks": 192,
            "midi": 65,
            "name": "F4",
            "ticks": 81408,
            "time": 142.92128399999999,
            "velocity": 0.3937007874015748
          },
          {
            "duration": 0.33707849999998984,
            "durationTicks": 192,
            "midi": 26,
            "name": "D1",
            "ticks": 81408,
            "time": 142.92128399999999,
            "velocity": 0.3937007874015748
          },
          {
            "duration": 0.33707849999998984,
            "durationTicks": 192,
            "midi": 38,
            "name": "D2",
            "ticks": 81408,
            "time": 142.92128399999999,
            "velocity": 0.3937007874015748
          },
          {
            "duration": 0.33707849999998984,
            "durationTicks": 192,
            "midi": 53,
            "name": "F3",
            "ticks": 81408,
            "time": 142.92128399999999,
            "velocity": 0.3937007874015748
          },
          {
            "duration": 0.33707849999998984,
            "durationTicks": 192,
            "midi": 43,
            "name": "G2",
            "ticks": 81600,
            "time": 143.25836249999998,
            "velocity": 0.3937007874015748
          },
          {
            "duration": 0.16853925000000913,
            "durationTicks": 96,
            "midi": 75,
            "name": "D#5",
            "ticks": 81600,
            "time": 143.25836249999998,
            "velocity": 0.3937007874015748
          },
          {
            "duration": 0.16853925000000913,
            "durationTicks": 96,
            "midi": 63,
            "name": "D#4",
            "ticks": 81600,
            "time": 143.25836249999998,
            "velocity": 0.3937007874015748
          },
          {
            "duration": 0.16853925000000913,
            "durationTicks": 96,
            "midi": 75,
            "name": "D#5",
            "ticks": 81600,
            "time": 143.25836249999998,
            "velocity": 0.3937007874015748
          },
          {
            "duration": 0.33707849999998984,
            "durationTicks": 192,
            "midi": 31,
            "name": "G1",
            "ticks": 81600,
            "time": 143.25836249999998,
            "velocity": 0.3937007874015748
          },
          {
            "duration": 0.16853925000000913,
            "durationTicks": 96,
            "midi": 63,
            "name": "D#4",
            "ticks": 81600,
            "time": 143.25836249999998,
            "velocity": 0.3937007874015748
          },
          {
            "duration": 0.33707849999998984,
            "durationTicks": 192,
            "midi": 72,
            "name": "C5",
            "ticks": 81696,
            "time": 143.42690174999998,
            "velocity": 0.3937007874015748
          },
          {
            "duration": 0.33707849999998984,
            "durationTicks": 192,
            "midi": 60,
            "name": "C4",
            "ticks": 81696,
            "time": 143.42690174999998,
            "velocity": 0.3937007874015748
          },
          {
            "duration": 0.33707849999998984,
            "durationTicks": 192,
            "midi": 60,
            "name": "C4",
            "ticks": 81696,
            "time": 143.42690174999998,
            "velocity": 0.3937007874015748
          },
          {
            "duration": 0.33707849999998984,
            "durationTicks": 192,
            "midi": 72,
            "name": "C5",
            "ticks": 81696,
            "time": 143.42690174999998,
            "velocity": 0.3937007874015748
          },
          {
            "duration": 0.33707850000001827,
            "durationTicks": 192,
            "midi": 51,
            "name": "D#3",
            "ticks": 81792,
            "time": 143.59544099999997,
            "velocity": 0.3937007874015748
          },
          {
            "duration": 0.33707850000001827,
            "durationTicks": 192,
            "midi": 39,
            "name": "D#2",
            "ticks": 81792,
            "time": 143.59544099999997,
            "velocity": 0.3937007874015748
          },
          {
            "duration": 0.16853925000000913,
            "durationTicks": 96,
            "midi": 70,
            "name": "A#4",
            "ticks": 81888,
            "time": 143.76398024999997,
            "velocity": 0.3937007874015748
          },
          {
            "duration": 0.16853925000000913,
            "durationTicks": 96,
            "midi": 70,
            "name": "A#4",
            "ticks": 81888,
            "time": 143.76398024999997,
            "velocity": 0.3937007874015748
          },
          {
            "duration": 0.16853925000000913,
            "durationTicks": 96,
            "midi": 58,
            "name": "A#3",
            "ticks": 81888,
            "time": 143.76398024999997,
            "velocity": 0.3937007874015748
          },
          {
            "duration": 0.16853925000000913,
            "durationTicks": 96,
            "midi": 58,
            "name": "A#3",
            "ticks": 81888,
            "time": 143.76398024999997,
            "velocity": 0.3937007874015748
          },
          {
            "duration": 0.33707849999998984,
            "durationTicks": 192,
            "midi": 67,
            "name": "G4",
            "ticks": 81984,
            "time": 143.93251949999998,
            "velocity": 0.3937007874015748
          },
          {
            "duration": 0.33707849999998984,
            "durationTicks": 192,
            "midi": 34,
            "name": "A#1",
            "ticks": 81984,
            "time": 143.93251949999998,
            "velocity": 0.3937007874015748
          },
          {
            "duration": 0.33707849999998984,
            "durationTicks": 192,
            "midi": 67,
            "name": "G4",
            "ticks": 81984,
            "time": 143.93251949999998,
            "velocity": 0.3937007874015748
          },
          {
            "duration": 0.33707849999998984,
            "durationTicks": 192,
            "midi": 46,
            "name": "A#2",
            "ticks": 81984,
            "time": 143.93251949999998,
            "velocity": 0.3937007874015748
          },
          {
            "duration": 0.33707849999998984,
            "durationTicks": 192,
            "midi": 55,
            "name": "G3",
            "ticks": 81984,
            "time": 143.93251949999998,
            "velocity": 0.3937007874015748
          },
          {
            "duration": 0.33707849999998984,
            "durationTicks": 192,
            "midi": 55,
            "name": "G3",
            "ticks": 81984,
            "time": 143.93251949999998,
            "velocity": 0.3937007874015748
          },
          {
            "duration": 0.33707849999998984,
            "durationTicks": 192,
            "midi": 26,
            "name": "D1",
            "ticks": 82176,
            "time": 144.26959799999997,
            "velocity": 0.3937007874015748
          },
          {
            "duration": 0.16853925000000913,
            "durationTicks": 96,
            "midi": 75,
            "name": "D#5",
            "ticks": 82176,
            "time": 144.26959799999997,
            "velocity": 0.3937007874015748
          },
          {
            "duration": 0.16853925000000913,
            "durationTicks": 96,
            "midi": 63,
            "name": "D#4",
            "ticks": 82176,
            "time": 144.26959799999997,
            "velocity": 0.3937007874015748
          },
          {
            "duration": 0.16853925000000913,
            "durationTicks": 96,
            "midi": 63,
            "name": "D#4",
            "ticks": 82176,
            "time": 144.26959799999997,
            "velocity": 0.3937007874015748
          },
          {
            "duration": 0.33707849999998984,
            "durationTicks": 192,
            "midi": 38,
            "name": "D2",
            "ticks": 82176,
            "time": 144.26959799999997,
            "velocity": 0.3937007874015748
          },
          {
            "duration": 0.16853925000000913,
            "durationTicks": 96,
            "midi": 75,
            "name": "D#5",
            "ticks": 82176,
            "time": 144.26959799999997,
            "velocity": 0.3937007874015748
          },
          {
            "duration": 0.33707849999998984,
            "durationTicks": 192,
            "midi": 72,
            "name": "C5",
            "ticks": 82272,
            "time": 144.43813724999998,
            "velocity": 0.3937007874015748
          },
          {
            "duration": 0.33707849999998984,
            "durationTicks": 192,
            "midi": 72,
            "name": "C5",
            "ticks": 82272,
            "time": 144.43813724999998,
            "velocity": 0.3937007874015748
          },
          {
            "duration": 0.33707849999998984,
            "durationTicks": 192,
            "midi": 60,
            "name": "C4",
            "ticks": 82272,
            "time": 144.43813724999998,
            "velocity": 0.3937007874015748
          },
          {
            "duration": 0.33707849999998984,
            "durationTicks": 192,
            "midi": 60,
            "name": "C4",
            "ticks": 82272,
            "time": 144.43813724999998,
            "velocity": 0.3937007874015748
          },
          {
            "duration": 0.33707850000001827,
            "durationTicks": 192,
            "midi": 31,
            "name": "G1",
            "ticks": 82368,
            "time": 144.60667649999996,
            "velocity": 0.3937007874015748
          },
          {
            "duration": 0.33707850000001827,
            "durationTicks": 192,
            "midi": 43,
            "name": "G2",
            "ticks": 82368,
            "time": 144.60667649999996,
            "velocity": 0.3937007874015748
          },
          {
            "duration": 0.16853925000000913,
            "durationTicks": 96,
            "midi": 74,
            "name": "D5",
            "ticks": 82464,
            "time": 144.77521574999997,
            "velocity": 0.3937007874015748
          },
          {
            "duration": 0.16853925000000913,
            "durationTicks": 96,
            "midi": 62,
            "name": "D4",
            "ticks": 82464,
            "time": 144.77521574999997,
            "velocity": 0.3937007874015748
          },
          {
            "duration": 0.16853925000000913,
            "durationTicks": 96,
            "midi": 62,
            "name": "D4",
            "ticks": 82464,
            "time": 144.77521574999997,
            "velocity": 0.3937007874015748
          },
          {
            "duration": 0.16853925000000913,
            "durationTicks": 96,
            "midi": 74,
            "name": "D5",
            "ticks": 82464,
            "time": 144.77521574999997,
            "velocity": 0.3937007874015748
          },
          {
            "duration": 0.33707849999998984,
            "durationTicks": 192,
            "midi": 79,
            "name": "G5",
            "ticks": 82560,
            "time": 144.94375499999998,
            "velocity": 0.3937007874015748
          },
          {
            "duration": 0.33707849999998984,
            "durationTicks": 192,
            "midi": 67,
            "name": "G4",
            "ticks": 82560,
            "time": 144.94375499999998,
            "velocity": 0.3937007874015748
          },
          {
            "duration": 0.33707849999998984,
            "durationTicks": 192,
            "midi": 38,
            "name": "D2",
            "ticks": 82560,
            "time": 144.94375499999998,
            "velocity": 0.3937007874015748
          },
          {
            "duration": 0.33707849999998984,
            "durationTicks": 192,
            "midi": 50,
            "name": "D3",
            "ticks": 82560,
            "time": 144.94375499999998,
            "velocity": 0.3937007874015748
          },
          {
            "duration": 0.33707849999998984,
            "durationTicks": 192,
            "midi": 79,
            "name": "G5",
            "ticks": 82560,
            "time": 144.94375499999998,
            "velocity": 0.3937007874015748
          },
          {
            "duration": 0.33707849999998984,
            "durationTicks": 192,
            "midi": 67,
            "name": "G4",
            "ticks": 82560,
            "time": 144.94375499999998,
            "velocity": 0.3937007874015748
          },
          {
            "duration": 0.33707850000001827,
            "durationTicks": 192,
            "midi": 35,
            "name": "B1",
            "ticks": 82752,
            "time": 145.28083349999997,
            "velocity": 0.3937007874015748
          },
          {
            "duration": 0.33707850000001827,
            "durationTicks": 192,
            "midi": 77,
            "name": "F5",
            "ticks": 82752,
            "time": 145.28083349999997,
            "velocity": 0.3937007874015748
          },
          {
            "duration": 0.33707850000001827,
            "durationTicks": 192,
            "midi": 77,
            "name": "F5",
            "ticks": 82752,
            "time": 145.28083349999997,
            "velocity": 0.3937007874015748
          },
          {
            "duration": 0.33707850000001827,
            "durationTicks": 192,
            "midi": 65,
            "name": "F4",
            "ticks": 82752,
            "time": 145.28083349999997,
            "velocity": 0.3937007874015748
          },
          {
            "duration": 0.33707850000001827,
            "durationTicks": 192,
            "midi": 65,
            "name": "F4",
            "ticks": 82752,
            "time": 145.28083349999997,
            "velocity": 0.3937007874015748
          },
          {
            "duration": 0.33707850000001827,
            "durationTicks": 192,
            "midi": 47,
            "name": "B2",
            "ticks": 82752,
            "time": 145.28083349999997,
            "velocity": 0.3937007874015748
          },
          {
            "duration": 0.33707849999998984,
            "durationTicks": 192,
            "midi": 24,
            "name": "C1",
            "ticks": 82944,
            "time": 145.617912,
            "velocity": 0.3937007874015748
          },
          {
            "duration": 0.33707849999998984,
            "durationTicks": 192,
            "midi": 36,
            "name": "C2",
            "ticks": 82944,
            "time": 145.617912,
            "velocity": 0.3937007874015748
          },
          {
            "duration": 1.3483139999999878,
            "durationTicks": 768,
            "midi": 67,
            "name": "G4",
            "ticks": 82944,
            "time": 145.617912,
            "velocity": 0.3937007874015748
          },
          {
            "duration": 1.3483139999999878,
            "durationTicks": 768,
            "midi": 79,
            "name": "G5",
            "ticks": 82944,
            "time": 145.617912,
            "velocity": 0.3937007874015748
          },
          {
            "duration": 1.3483139999999878,
            "durationTicks": 768,
            "midi": 67,
            "name": "G4",
            "ticks": 82944,
            "time": 145.617912,
            "velocity": 0.3937007874015748
          },
          {
            "duration": 1.3483139999999878,
            "durationTicks": 768,
            "midi": 79,
            "name": "G5",
            "ticks": 82944,
            "time": 145.617912,
            "velocity": 0.3937007874015748
          },
          {
            "duration": 0.33707849999998984,
            "durationTicks": 192,
            "midi": 36,
            "name": "C2",
            "ticks": 83136,
            "time": 145.95499049999998,
            "velocity": 0.3937007874015748
          },
          {
            "duration": 0.33707849999998984,
            "durationTicks": 192,
            "midi": 48,
            "name": "C3",
            "ticks": 83136,
            "time": 145.95499049999998,
            "velocity": 0.3937007874015748
          },
          {
            "duration": 0.33707850000001827,
            "durationTicks": 192,
            "midi": 51,
            "name": "D#3",
            "ticks": 83328,
            "time": 146.29206899999997,
            "velocity": 0.3937007874015748
          },
          {
            "duration": 0.33707850000001827,
            "durationTicks": 192,
            "midi": 39,
            "name": "D#2",
            "ticks": 83328,
            "time": 146.29206899999997,
            "velocity": 0.3937007874015748
          },
          {
            "duration": 0.33707849999998984,
            "durationTicks": 192,
            "midi": 38,
            "name": "D2",
            "ticks": 83520,
            "time": 146.6291475,
            "velocity": 0.3937007874015748
          },
          {
            "duration": 0.33707849999998984,
            "durationTicks": 192,
            "midi": 50,
            "name": "D3",
            "ticks": 83520,
            "time": 146.6291475,
            "velocity": 0.3937007874015748
          },
          {
            "duration": 0.33707849999998984,
            "durationTicks": 192,
            "midi": 43,
            "name": "G2",
            "ticks": 83712,
            "time": 146.96622599999998,
            "velocity": 0.3937007874015748
          },
          {
            "duration": 1.3483139999999878,
            "durationTicks": 768,
            "midi": 70,
            "name": "A#4",
            "ticks": 83712,
            "time": 146.96622599999998,
            "velocity": 0.3937007874015748
          },
          {
            "duration": 1.3483139999999878,
            "durationTicks": 768,
            "midi": 70,
            "name": "A#4",
            "ticks": 83712,
            "time": 146.96622599999998,
            "velocity": 0.3937007874015748
          },
          {
            "duration": 0.33707849999998984,
            "durationTicks": 192,
            "midi": 31,
            "name": "G1",
            "ticks": 83712,
            "time": 146.96622599999998,
            "velocity": 0.3937007874015748
          },
          {
            "duration": 1.3483139999999878,
            "durationTicks": 768,
            "midi": 82,
            "name": "A#5",
            "ticks": 83712,
            "time": 146.96622599999998,
            "velocity": 0.3937007874015748
          },
          {
            "duration": 1.3483139999999878,
            "durationTicks": 768,
            "midi": 82,
            "name": "A#5",
            "ticks": 83712,
            "time": 146.96622599999998,
            "velocity": 0.3937007874015748
          },
          {
            "duration": 0.33707850000001827,
            "durationTicks": 192,
            "midi": 46,
            "name": "A#2",
            "ticks": 83904,
            "time": 147.30330449999997,
            "velocity": 0.3937007874015748
          },
          {
            "duration": 0.33707850000001827,
            "durationTicks": 192,
            "midi": 34,
            "name": "A#1",
            "ticks": 83904,
            "time": 147.30330449999997,
            "velocity": 0.3937007874015748
          },
          {
            "duration": 0.33707849999998984,
            "durationTicks": 192,
            "midi": 51,
            "name": "D#3",
            "ticks": 84096,
            "time": 147.64038299999999,
            "velocity": 0.3937007874015748
          },
          {
            "duration": 0.33707849999998984,
            "durationTicks": 192,
            "midi": 39,
            "name": "D#2",
            "ticks": 84096,
            "time": 147.64038299999999,
            "velocity": 0.3937007874015748
          },
          {
            "duration": 0.33707849999998984,
            "durationTicks": 192,
            "midi": 50,
            "name": "D3",
            "ticks": 84288,
            "time": 147.97746149999998,
            "velocity": 0.3937007874015748
          },
          {
            "duration": 0.33707849999998984,
            "durationTicks": 192,
            "midi": 38,
            "name": "D2",
            "ticks": 84288,
            "time": 147.97746149999998,
            "velocity": 0.3937007874015748
          },
          {
            "duration": 0.33707850000001827,
            "durationTicks": 192,
            "midi": 44,
            "name": "G#2",
            "ticks": 84480,
            "time": 148.31453999999997,
            "velocity": 0.3937007874015748
          },
          {
            "duration": 0.6741570000000081,
            "durationTicks": 384,
            "midi": 63,
            "name": "D#4",
            "ticks": 84480,
            "time": 148.31453999999997,
            "velocity": 0.3937007874015748
          },
          {
            "duration": 0.8426962500000172,
            "durationTicks": 480,
            "midi": 63,
            "name": "D#4",
            "ticks": 84480,
            "time": 148.31453999999997,
            "velocity": 0.3937007874015748
          },
          {
            "duration": 0.33707850000001827,
            "durationTicks": 192,
            "midi": 32,
            "name": "G#1",
            "ticks": 84480,
            "time": 148.31453999999997,
            "velocity": 0.3937007874015748
          },
          {
            "duration": 0.6741570000000081,
            "durationTicks": 384,
            "midi": 75,
            "name": "D#5",
            "ticks": 84480,
            "time": 148.31453999999997,
            "velocity": 0.3937007874015748
          },
          {
            "duration": 0.8426962500000172,
            "durationTicks": 480,
            "midi": 75,
            "name": "D#5",
            "ticks": 84480,
            "time": 148.31453999999997,
            "velocity": 0.3937007874015748
          },
          {
            "duration": 0.33707849999998984,
            "durationTicks": 192,
            "midi": 48,
            "name": "C3",
            "ticks": 84672,
            "time": 148.65161849999998,
            "velocity": 0.3937007874015748
          },
          {
            "duration": 0.33707849999998984,
            "durationTicks": 192,
            "midi": 36,
            "name": "C2",
            "ticks": 84672,
            "time": 148.65161849999998,
            "velocity": 0.3937007874015748
          },
          {
            "duration": 0.33707849999998984,
            "durationTicks": 192,
            "midi": 51,
            "name": "D#3",
            "ticks": 84864,
            "time": 148.98869699999997,
            "velocity": 0.3937007874015748
          },
          {
            "duration": 0.33707849999998984,
            "durationTicks": 192,
            "midi": 39,
            "name": "D#2",
            "ticks": 84864,
            "time": 148.98869699999997,
            "velocity": 0.3937007874015748
          },
          {
            "duration": 0.1685392499999807,
            "durationTicks": 96,
            "midi": 70,
            "name": "A#4",
            "ticks": 84960,
            "time": 149.15723624999998,
            "velocity": 0.3937007874015748
          },
          {
            "duration": 0.1685392499999807,
            "durationTicks": 96,
            "midi": 70,
            "name": "A#4",
            "ticks": 84960,
            "time": 149.15723624999998,
            "velocity": 0.3937007874015748
          },
          {
            "duration": 0.16853925000000913,
            "durationTicks": 96,
            "midi": 84,
            "name": "C6",
            "ticks": 85056,
            "time": 149.32577549999996,
            "velocity": 0.3937007874015748
          },
          {
            "duration": 0.16853925000000913,
            "durationTicks": 96,
            "midi": 72,
            "name": "C5",
            "ticks": 85056,
            "time": 149.32577549999996,
            "velocity": 0.3937007874015748
          },
          {
            "duration": 0.33707850000001827,
            "durationTicks": 192,
            "midi": 50,
            "name": "D3",
            "ticks": 85056,
            "time": 149.32577549999996,
            "velocity": 0.3937007874015748
          },
          {
            "duration": 0.16853925000000913,
            "durationTicks": 96,
            "midi": 84,
            "name": "C6",
            "ticks": 85056,
            "time": 149.32577549999996,
            "velocity": 0.3937007874015748
          },
          {
            "duration": 0.33707850000001827,
            "durationTicks": 192,
            "midi": 38,
            "name": "D2",
            "ticks": 85056,
            "time": 149.32577549999996,
            "velocity": 0.3937007874015748
          },
          {
            "duration": 0.16853925000000913,
            "durationTicks": 96,
            "midi": 72,
            "name": "C5",
            "ticks": 85056,
            "time": 149.32577549999996,
            "velocity": 0.3937007874015748
          },
          {
            "duration": 0.505617749999999,
            "durationTicks": 288,
            "midi": 70,
            "name": "A#4",
            "ticks": 85152,
            "time": 149.49431474999997,
            "velocity": 0.3937007874015748
          },
          {
            "duration": 0.505617749999999,
            "durationTicks": 288,
            "midi": 70,
            "name": "A#4",
            "ticks": 85152,
            "time": 149.49431474999997,
            "velocity": 0.3937007874015748
          },
          {
            "duration": 0.505617749999999,
            "durationTicks": 288,
            "midi": 82,
            "name": "A#5",
            "ticks": 85152,
            "time": 149.49431474999997,
            "velocity": 0.3937007874015748
          },
          {
            "duration": 0.505617749999999,
            "durationTicks": 288,
            "midi": 82,
            "name": "A#5",
            "ticks": 85152,
            "time": 149.49431474999997,
            "velocity": 0.3937007874015748
          },
          {
            "duration": 0.33707849999998984,
            "durationTicks": 192,
            "midi": 51,
            "name": "D#3",
            "ticks": 85248,
            "time": 149.66285399999998,
            "velocity": 0.3937007874015748
          },
          {
            "duration": 0.33707849999998984,
            "durationTicks": 192,
            "midi": 39,
            "name": "D#2",
            "ticks": 85248,
            "time": 149.66285399999998,
            "velocity": 0.3937007874015748
          },
          {
            "duration": 0.33707850000001827,
            "durationTicks": 192,
            "midi": 67,
            "name": "G4",
            "ticks": 85440,
            "time": 149.99993249999997,
            "velocity": 0.3937007874015748
          },
          {
            "duration": 0.33707850000001827,
            "durationTicks": 192,
            "midi": 40,
            "name": "E2",
            "ticks": 85440,
            "time": 149.99993249999997,
            "velocity": 0.3937007874015748
          },
          {
            "duration": 0.6741570000000081,
            "durationTicks": 384,
            "midi": 67,
            "name": "G4",
            "ticks": 85440,
            "time": 149.99993249999997,
            "velocity": 0.3937007874015748
          },
          {
            "duration": 0.33707850000001827,
            "durationTicks": 192,
            "midi": 52,
            "name": "E3",
            "ticks": 85440,
            "time": 149.99993249999997,
            "velocity": 0.3937007874015748
          },
          {
            "duration": 0.33707850000001827,
            "durationTicks": 192,
            "midi": 79,
            "name": "G5",
            "ticks": 85440,
            "time": 149.99993249999997,
            "velocity": 0.3937007874015748
          },
          {
            "duration": 0.6741570000000081,
            "durationTicks": 384,
            "midi": 79,
            "name": "G5",
            "ticks": 85440,
            "time": 149.99993249999997,
            "velocity": 0.3937007874015748
          },
          {
            "duration": 0.33707849999998984,
            "durationTicks": 192,
            "midi": 79,
            "name": "G5",
            "ticks": 85632,
            "time": 150.337011,
            "velocity": 0.3937007874015748
          },
          {
            "duration": 0.33707849999998984,
            "durationTicks": 192,
            "midi": 58,
            "name": "A#3",
            "ticks": 85632,
            "time": 150.337011,
            "velocity": 0.3937007874015748
          },
          {
            "duration": 0.33707849999998984,
            "durationTicks": 192,
            "midi": 46,
            "name": "A#2",
            "ticks": 85632,
            "time": 150.337011,
            "velocity": 0.3937007874015748
          },
          {
            "duration": 0.33707849999998984,
            "durationTicks": 192,
            "midi": 67,
            "name": "G4",
            "ticks": 85632,
            "time": 150.337011,
            "velocity": 0.3937007874015748
          },
          {
            "duration": 0.33707849999998984,
            "durationTicks": 192,
            "midi": 68,
            "name": "G#4",
            "ticks": 85824,
            "time": 150.67408949999998,
            "velocity": 0.3937007874015748
          },
          {
            "duration": 0.33707849999998984,
            "durationTicks": 192,
            "midi": 80,
            "name": "G#5",
            "ticks": 85824,
            "time": 150.67408949999998,
            "velocity": 0.3937007874015748
          },
          {
            "duration": 0.33707849999998984,
            "durationTicks": 192,
            "midi": 36,
            "name": "C2",
            "ticks": 85824,
            "time": 150.67408949999998,
            "velocity": 0.3937007874015748
          },
          {
            "duration": 0.33707849999998984,
            "durationTicks": 192,
            "midi": 48,
            "name": "C3",
            "ticks": 85824,
            "time": 150.67408949999998,
            "velocity": 0.3937007874015748
          },
          {
            "duration": 0.33707849999998984,
            "durationTicks": 192,
            "midi": 68,
            "name": "G#4",
            "ticks": 85824,
            "time": 150.67408949999998,
            "velocity": 0.3937007874015748
          },
          {
            "duration": 0.33707849999998984,
            "durationTicks": 192,
            "midi": 80,
            "name": "G#5",
            "ticks": 85824,
            "time": 150.67408949999998,
            "velocity": 0.3937007874015748
          },
          {
            "duration": 0.6741570000000081,
            "durationTicks": 384,
            "midi": 77,
            "name": "F5",
            "ticks": 86016,
            "time": 151.01116799999997,
            "velocity": 0.3937007874015748
          },
          {
            "duration": 0.33707850000001827,
            "durationTicks": 192,
            "midi": 29,
            "name": "F1",
            "ticks": 86016,
            "time": 151.01116799999997,
            "velocity": 0.3937007874015748
          },
          {
            "duration": 0.6741570000000081,
            "durationTicks": 384,
            "midi": 77,
            "name": "F5",
            "ticks": 86016,
            "time": 151.01116799999997,
            "velocity": 0.3937007874015748
          },
          {
            "duration": 0.6741570000000081,
            "durationTicks": 384,
            "midi": 65,
            "name": "F4",
            "ticks": 86016,
            "time": 151.01116799999997,
            "velocity": 0.3937007874015748
          },
          {
            "duration": 0.33707850000001827,
            "durationTicks": 192,
            "midi": 41,
            "name": "F2",
            "ticks": 86016,
            "time": 151.01116799999997,
            "velocity": 0.3937007874015748
          },
          {
            "duration": 0.6741570000000081,
            "durationTicks": 384,
            "midi": 65,
            "name": "F4",
            "ticks": 86016,
            "time": 151.01116799999997,
            "velocity": 0.3937007874015748
          },
          {
            "duration": 0.33707849999998984,
            "durationTicks": 192,
            "midi": 32,
            "name": "G#1",
            "ticks": 86208,
            "time": 151.3482465,
            "velocity": 0.3937007874015748
          },
          {
            "duration": 0.33707849999998984,
            "durationTicks": 192,
            "midi": 44,
            "name": "G#2",
            "ticks": 86208,
            "time": 151.3482465,
            "velocity": 0.3937007874015748
          },
          {
            "duration": 1.8539317499999868,
            "durationTicks": 1056,
            "midi": 63,
            "name": "D#4",
            "ticks": 86400,
            "time": 151.68532499999998,
            "velocity": 0.3937007874015748
          },
          {
            "duration": 1.8539317499999868,
            "durationTicks": 1056,
            "midi": 75,
            "name": "D#5",
            "ticks": 86400,
            "time": 151.68532499999998,
            "velocity": 0.3937007874015748
          },
          {
            "duration": 0.33707849999998984,
            "durationTicks": 192,
            "midi": 39,
            "name": "D#2",
            "ticks": 86400,
            "time": 151.68532499999998,
            "velocity": 0.3937007874015748
          },
          {
            "duration": 0.33707849999998984,
            "durationTicks": 192,
            "midi": 51,
            "name": "D#3",
            "ticks": 86400,
            "time": 151.68532499999998,
            "velocity": 0.3937007874015748
          },
          {
            "duration": 1.8539317499999868,
            "durationTicks": 1056,
            "midi": 63,
            "name": "D#4",
            "ticks": 86400,
            "time": 151.68532499999998,
            "velocity": 0.3937007874015748
          },
          {
            "duration": 1.8539317499999868,
            "durationTicks": 1056,
            "midi": 75,
            "name": "D#5",
            "ticks": 86400,
            "time": 151.68532499999998,
            "velocity": 0.3937007874015748
          },
          {
            "duration": 0.33707850000001827,
            "durationTicks": 192,
            "midi": 36,
            "name": "C2",
            "ticks": 86592,
            "time": 152.02240349999997,
            "velocity": 0.3937007874015748
          },
          {
            "duration": 0.33707850000001827,
            "durationTicks": 192,
            "midi": 48,
            "name": "C3",
            "ticks": 86592,
            "time": 152.02240349999997,
            "velocity": 0.3937007874015748
          },
          {
            "duration": 0.33707849999998984,
            "durationTicks": 192,
            "midi": 39,
            "name": "D#2",
            "ticks": 86784,
            "time": 152.35948199999999,
            "velocity": 0.3937007874015748
          },
          {
            "duration": 0.33707849999998984,
            "durationTicks": 192,
            "midi": 27,
            "name": "D#1",
            "ticks": 86784,
            "time": 152.35948199999999,
            "velocity": 0.3937007874015748
          },
          {
            "duration": 0.33707849999998984,
            "durationTicks": 192,
            "midi": 34,
            "name": "A#1",
            "ticks": 86976,
            "time": 152.69656049999998,
            "velocity": 0.3937007874015748
          },
          {
            "duration": 0.33707849999998984,
            "durationTicks": 192,
            "midi": 46,
            "name": "A#2",
            "ticks": 86976,
            "time": 152.69656049999998,
            "velocity": 0.3937007874015748
          },
          {
            "duration": 0.33707850000001827,
            "durationTicks": 192,
            "midi": 39,
            "name": "D#2",
            "ticks": 87168,
            "time": 153.03363899999997,
            "velocity": 0.3937007874015748
          },
          {
            "duration": 0.33707850000001827,
            "durationTicks": 192,
            "midi": 51,
            "name": "D#3",
            "ticks": 87168,
            "time": 153.03363899999997,
            "velocity": 0.3937007874015748
          },
          {
            "duration": 0.33707849999998984,
            "durationTicks": 192,
            "midi": 46,
            "name": "A#2",
            "ticks": 87360,
            "time": 153.37071749999998,
            "velocity": 0.3937007874015748
          },
          {
            "duration": 0.33707849999998984,
            "durationTicks": 192,
            "midi": 34,
            "name": "A#1",
            "ticks": 87360,
            "time": 153.37071749999998,
            "velocity": 0.3937007874015748
          },
          {
            "duration": 0.16853925000000913,
            "durationTicks": 96,
            "midi": 72,
            "name": "C5",
            "ticks": 87456,
            "time": 153.53925674999996,
            "velocity": 0.3937007874015748
          },
          {
            "duration": 0.16853925000000913,
            "durationTicks": 96,
            "midi": 72,
            "name": "C5",
            "ticks": 87456,
            "time": 153.53925674999996,
            "velocity": 0.3937007874015748
          },
          {
            "duration": 0.16853925000000913,
            "durationTicks": 96,
            "midi": 60,
            "name": "C4",
            "ticks": 87456,
            "time": 153.53925674999996,
            "velocity": 0.3937007874015748
          },
          {
            "duration": 0.16853925000000913,
            "durationTicks": 96,
            "midi": 60,
            "name": "C4",
            "ticks": 87456,
            "time": 153.53925674999996,
            "velocity": 0.3937007874015748
          },
          {
            "duration": 0.33707849999998984,
            "durationTicks": 192,
            "midi": 38,
            "name": "D2",
            "ticks": 87552,
            "time": 153.70779599999997,
            "velocity": 0.3937007874015748
          },
          {
            "duration": 0.33707849999998984,
            "durationTicks": 192,
            "midi": 63,
            "name": "D#4",
            "ticks": 87552,
            "time": 153.70779599999997,
            "velocity": 0.3937007874015748
          },
          {
            "duration": 0.33707849999998984,
            "durationTicks": 192,
            "midi": 26,
            "name": "D1",
            "ticks": 87552,
            "time": 153.70779599999997,
            "velocity": 0.3937007874015748
          },
          {
            "duration": 0.6741570000000081,
            "durationTicks": 384,
            "midi": 63,
            "name": "D#4",
            "ticks": 87552,
            "time": 153.70779599999997,
            "velocity": 0.3937007874015748
          },
          {
            "duration": 0.33707849999998984,
            "durationTicks": 192,
            "midi": 75,
            "name": "D#5",
            "ticks": 87552,
            "time": 153.70779599999997,
            "velocity": 0.3937007874015748
          },
          {
            "duration": 0.6741570000000081,
            "durationTicks": 384,
            "midi": 75,
            "name": "D#5",
            "ticks": 87552,
            "time": 153.70779599999997,
            "velocity": 0.3937007874015748
          },
          {
            "duration": 0.33707850000001827,
            "durationTicks": 192,
            "midi": 43,
            "name": "G2",
            "ticks": 87744,
            "time": 154.04487449999996,
            "velocity": 0.3937007874015748
          },
          {
            "duration": 0.33707850000001827,
            "durationTicks": 192,
            "midi": 31,
            "name": "G1",
            "ticks": 87744,
            "time": 154.04487449999996,
            "velocity": 0.3937007874015748
          },
          {
            "duration": 0.505617749999999,
            "durationTicks": 288,
            "midi": 63,
            "name": "D#4",
            "ticks": 87744,
            "time": 154.04487449999996,
            "velocity": 0.3937007874015748
          },
          {
            "duration": 0.505617749999999,
            "durationTicks": 288,
            "midi": 75,
            "name": "D#5",
            "ticks": 87744,
            "time": 154.04487449999996,
            "velocity": 0.3937007874015748
          },
          {
            "duration": 0.33707849999998984,
            "durationTicks": 192,
            "midi": 51,
            "name": "D#3",
            "ticks": 87936,
            "time": 154.38195299999998,
            "velocity": 0.3937007874015748
          },
          {
            "duration": 0.33707849999998984,
            "durationTicks": 192,
            "midi": 39,
            "name": "D#2",
            "ticks": 87936,
            "time": 154.38195299999998,
            "velocity": 0.3937007874015748
          },
          {
            "duration": 0.1685392499999807,
            "durationTicks": 96,
            "midi": 63,
            "name": "D#4",
            "ticks": 87936,
            "time": 154.38195299999998,
            "velocity": 0.3937007874015748
          },
          {
            "duration": 0.1685392499999807,
            "durationTicks": 96,
            "midi": 75,
            "name": "D#5",
            "ticks": 87936,
            "time": 154.38195299999998,
            "velocity": 0.3937007874015748
          },
          {
            "duration": 0.33707850000001827,
            "durationTicks": 192,
            "midi": 77,
            "name": "F5",
            "ticks": 88032,
            "time": 154.55049224999996,
            "velocity": 0.3937007874015748
          },
          {
            "duration": 0.33707850000001827,
            "durationTicks": 192,
            "midi": 77,
            "name": "F5",
            "ticks": 88032,
            "time": 154.55049224999996,
            "velocity": 0.3937007874015748
          },
          {
            "duration": 0.33707850000001827,
            "durationTicks": 192,
            "midi": 65,
            "name": "F4",
            "ticks": 88032,
            "time": 154.55049224999996,
            "velocity": 0.3937007874015748
          },
          {
            "duration": 0.33707850000001827,
            "durationTicks": 192,
            "midi": 65,
            "name": "F4",
            "ticks": 88032,
            "time": 154.55049224999996,
            "velocity": 0.3937007874015748
          },
          {
            "duration": 0.33707850000001827,
            "durationTicks": 192,
            "midi": 34,
            "name": "A#1",
            "ticks": 88128,
            "time": 154.71903149999997,
            "velocity": 0.3937007874015748
          },
          {
            "duration": 0.33707850000001827,
            "durationTicks": 192,
            "midi": 46,
            "name": "A#2",
            "ticks": 88128,
            "time": 154.71903149999997,
            "velocity": 0.3937007874015748
          },
          {
            "duration": 0.505617749999999,
            "durationTicks": 288,
            "midi": 62,
            "name": "D4",
            "ticks": 88224,
            "time": 154.88757074999998,
            "velocity": 0.3937007874015748
          },
          {
            "duration": 0.505617749999999,
            "durationTicks": 288,
            "midi": 74,
            "name": "D5",
            "ticks": 88224,
            "time": 154.88757074999998,
            "velocity": 0.3937007874015748
          },
          {
            "duration": 0.505617749999999,
            "durationTicks": 288,
            "midi": 62,
            "name": "D4",
            "ticks": 88224,
            "time": 154.88757074999998,
            "velocity": 0.3937007874015748
          },
          {
            "duration": 0.505617749999999,
            "durationTicks": 288,
            "midi": 74,
            "name": "D5",
            "ticks": 88224,
            "time": 154.88757074999998,
            "velocity": 0.3937007874015748
          },
          {
            "duration": 0.6741569999999797,
            "durationTicks": 384,
            "midi": 26,
            "name": "D1",
            "ticks": 88320,
            "time": 155.05611,
            "velocity": 0.3937007874015748
          },
          {
            "duration": 0.6741569999999797,
            "durationTicks": 384,
            "midi": 38,
            "name": "D2",
            "ticks": 88320,
            "time": 155.05611,
            "velocity": 0.3937007874015748
          },
          {
            "duration": 0.33707849999998984,
            "durationTicks": 192,
            "midi": 79,
            "name": "G5",
            "ticks": 88512,
            "time": 155.39318849999998,
            "velocity": 0.3937007874015748
          },
          {
            "duration": 0.33707849999998984,
            "durationTicks": 192,
            "midi": 67,
            "name": "G4",
            "ticks": 88512,
            "time": 155.39318849999998,
            "velocity": 0.3937007874015748
          },
          {
            "duration": 0.6741570000000081,
            "durationTicks": 384,
            "midi": 67,
            "name": "G4",
            "ticks": 88512,
            "time": 155.39318849999998,
            "velocity": 0.3937007874015748
          },
          {
            "duration": 0.6741570000000081,
            "durationTicks": 384,
            "midi": 79,
            "name": "G5",
            "ticks": 88512,
            "time": 155.39318849999998,
            "velocity": 0.3937007874015748
          },
          {
            "duration": 0.6741570000000081,
            "durationTicks": 384,
            "midi": 43,
            "name": "G2",
            "ticks": 88704,
            "time": 155.73026699999997,
            "velocity": 0.3937007874015748
          },
          {
            "duration": 0.33707850000001827,
            "durationTicks": 192,
            "midi": 67,
            "name": "G4",
            "ticks": 88704,
            "time": 155.73026699999997,
            "velocity": 0.3937007874015748
          },
          {
            "duration": 0.33707850000001827,
            "durationTicks": 192,
            "midi": 79,
            "name": "G5",
            "ticks": 88704,
            "time": 155.73026699999997,
            "velocity": 0.3937007874015748
          },
          {
            "duration": 0.6741570000000081,
            "durationTicks": 384,
            "midi": 31,
            "name": "G1",
            "ticks": 88704,
            "time": 155.73026699999997,
            "velocity": 0.3937007874015748
          },
          {
            "duration": 0.33707849999998984,
            "durationTicks": 192,
            "midi": 80,
            "name": "G#5",
            "ticks": 88896,
            "time": 156.0673455,
            "velocity": 0.3937007874015748
          },
          {
            "duration": 0.33707849999998984,
            "durationTicks": 192,
            "midi": 68,
            "name": "G#4",
            "ticks": 88896,
            "time": 156.0673455,
            "velocity": 0.3937007874015748
          },
          {
            "duration": 0.33707849999998984,
            "durationTicks": 192,
            "midi": 80,
            "name": "G#5",
            "ticks": 88896,
            "time": 156.0673455,
            "velocity": 0.3937007874015748
          },
          {
            "duration": 0.33707849999998984,
            "durationTicks": 192,
            "midi": 68,
            "name": "G#4",
            "ticks": 88896,
            "time": 156.0673455,
            "velocity": 0.3937007874015748
          },
          {
            "duration": 0.6741570000000081,
            "durationTicks": 384,
            "midi": 77,
            "name": "F5",
            "ticks": 89088,
            "time": 156.40442399999998,
            "velocity": 0.3937007874015748
          },
          {
            "duration": 0.6741570000000081,
            "durationTicks": 384,
            "midi": 67,
            "name": "G4",
            "ticks": 89088,
            "time": 156.40442399999998,
            "velocity": 0.3937007874015748
          },
          {
            "duration": 0.16853925000000913,
            "durationTicks": 96,
            "midi": 63,
            "name": "D#4",
            "ticks": 89088,
            "time": 156.40442399999998,
            "velocity": 0.3937007874015748
          },
          {
            "duration": 0.1685392499999807,
            "durationTicks": 96,
            "midi": 63,
            "name": "D#4",
            "ticks": 89184,
            "time": 156.57296325,
            "velocity": 0.3937007874015748
          },
          {
            "duration": 0.16853925000000913,
            "durationTicks": 96,
            "midi": 63,
            "name": "D#4",
            "ticks": 89280,
            "time": 156.74150249999997,
            "velocity": 0.3937007874015748
          },
          {
            "duration": 0.16853925000000913,
            "durationTicks": 96,
            "midi": 63,
            "name": "D#4",
            "ticks": 89376,
            "time": 156.91004174999998,
            "velocity": 0.3937007874015748
          },
          {
            "duration": 0.1685392499999807,
            "durationTicks": 96,
            "midi": 63,
            "name": "D#4",
            "ticks": 89472,
            "time": 157.07858099999999,
            "velocity": 0.3937007874015748
          },
          {
            "duration": 0.505617749999999,
            "durationTicks": 288,
            "midi": 72,
            "name": "C5",
            "ticks": 89472,
            "time": 157.07858099999999,
            "velocity": 0.3937007874015748
          },
          {
            "duration": 4.382020499999982,
            "durationTicks": 2496,
            "midi": 75,
            "name": "D#5",
            "ticks": 89472,
            "time": 157.07858099999999,
            "velocity": 0.3937007874015748
          },
          {
            "duration": 0.16853925000000913,
            "durationTicks": 96,
            "midi": 63,
            "name": "D#4",
            "ticks": 89568,
            "time": 157.24712024999997,
            "velocity": 0.3937007874015748
          },
          {
            "duration": 0.16853925000000913,
            "durationTicks": 96,
            "midi": 63,
            "name": "D#4",
            "ticks": 89664,
            "time": 157.41565949999998,
            "velocity": 0.3937007874015748
          },
          {
            "duration": 0.1685392499999807,
            "durationTicks": 96,
            "midi": 63,
            "name": "D#4",
            "ticks": 89760,
            "time": 157.58419874999998,
            "velocity": 0.3937007874015748
          },
          {
            "duration": 0.1685392499999807,
            "durationTicks": 96,
            "midi": 70,
            "name": "A#4",
            "ticks": 89760,
            "time": 157.58419874999998,
            "velocity": 0.3937007874015748
          },
          {
            "duration": 0.16853925000000913,
            "durationTicks": 96,
            "midi": 62,
            "name": "D4",
            "ticks": 89856,
            "time": 157.75273799999997,
            "velocity": 0.3937007874015748
          },
          {
            "duration": 0.16853925000000913,
            "durationTicks": 96,
            "midi": 67,
            "name": "G4",
            "ticks": 89856,
            "time": 157.75273799999997,
            "velocity": 0.3937007874015748
          },
          {
            "duration": 0.16853925000000913,
            "durationTicks": 96,
            "midi": 62,
            "name": "D4",
            "ticks": 89952,
            "time": 157.92127724999997,
            "velocity": 0.3937007874015748
          },
          {
            "duration": 0.1685392499999807,
            "durationTicks": 96,
            "midi": 62,
            "name": "D4",
            "ticks": 90048,
            "time": 158.08981649999998,
            "velocity": 0.3937007874015748
          },
          {
            "duration": 0.16853925000000913,
            "durationTicks": 96,
            "midi": 62,
            "name": "D4",
            "ticks": 90144,
            "time": 158.25835574999996,
            "velocity": 0.3937007874015748
          },
          {
            "duration": 0.16853925000000913,
            "durationTicks": 96,
            "midi": 60,
            "name": "C4",
            "ticks": 90240,
            "time": 158.42689499999997,
            "velocity": 0.3937007874015748
          },
          {
            "duration": 0.16853925000000913,
            "durationTicks": 96,
            "midi": 67,
            "name": "G4",
            "ticks": 90240,
            "time": 158.42689499999997,
            "velocity": 0.3937007874015748
          },
          {
            "duration": 0.1685392499999807,
            "durationTicks": 96,
            "midi": 60,
            "name": "C4",
            "ticks": 90336,
            "time": 158.59543424999998,
            "velocity": 0.3937007874015748
          },
          {
            "duration": 0.16853925000000913,
            "durationTicks": 96,
            "midi": 60,
            "name": "C4",
            "ticks": 90432,
            "time": 158.76397349999996,
            "velocity": 0.3937007874015748
          },
          {
            "duration": 0.16853925000000913,
            "durationTicks": 96,
            "midi": 60,
            "name": "C4",
            "ticks": 90528,
            "time": 158.93251274999997,
            "velocity": 0.3937007874015748
          },
          {
            "duration": 0.1685392499999807,
            "durationTicks": 96,
            "midi": 67,
            "name": "G4",
            "ticks": 90624,
            "time": 159.10105199999998,
            "velocity": 0.3937007874015748
          },
          {
            "duration": 0.1685392499999807,
            "durationTicks": 96,
            "midi": 63,
            "name": "D#4",
            "ticks": 90624,
            "time": 159.10105199999998,
            "velocity": 0.3937007874015748
          },
          {
            "duration": 0.16853925000000913,
            "durationTicks": 96,
            "midi": 63,
            "name": "D#4",
            "ticks": 90720,
            "time": 159.26959124999996,
            "velocity": 0.3937007874015748
          },
          {
            "duration": 0.16853925000000913,
            "durationTicks": 96,
            "midi": 63,
            "name": "D#4",
            "ticks": 90816,
            "time": 159.43813049999997,
            "velocity": 0.3937007874015748
          },
          {
            "duration": 0.1685392499999807,
            "durationTicks": 96,
            "midi": 63,
            "name": "D#4",
            "ticks": 90912,
            "time": 159.60666974999998,
            "velocity": 0.3937007874015748
          },
          {
            "duration": 0.1685392499999807,
            "durationTicks": 96,
            "midi": 65,
            "name": "F4",
            "ticks": 90912,
            "time": 159.60666974999998,
            "velocity": 0.3937007874015748
          },
          {
            "duration": 0.16853925000000913,
            "durationTicks": 96,
            "midi": 63,
            "name": "D#4",
            "ticks": 91008,
            "time": 159.77520899999996,
            "velocity": 0.3937007874015748
          },
          {
            "duration": 0.16853925000000913,
            "durationTicks": 96,
            "midi": 67,
            "name": "G4",
            "ticks": 91008,
            "time": 159.77520899999996,
            "velocity": 0.3937007874015748
          },
          {
            "duration": 0.16853925000000913,
            "durationTicks": 96,
            "midi": 63,
            "name": "D#4",
            "ticks": 91104,
            "time": 159.94374824999997,
            "velocity": 0.3937007874015748
          },
          {
            "duration": 0.16853925000000913,
            "durationTicks": 96,
            "midi": 63,
            "name": "D#4",
            "ticks": 91200,
            "time": 160.11228749999998,
            "velocity": 0.3937007874015748
          },
          {
            "duration": 0.1685392499999807,
            "durationTicks": 96,
            "midi": 68,
            "name": "G#4",
            "ticks": 91296,
            "time": 160.28082675,
            "velocity": 0.3937007874015748
          },
          {
            "duration": 0.1685392499999807,
            "durationTicks": 96,
            "midi": 63,
            "name": "D#4",
            "ticks": 91296,
            "time": 160.28082675,
            "velocity": 0.3937007874015748
          },
          {
            "duration": 0.16853925000000913,
            "durationTicks": 96,
            "midi": 62,
            "name": "D4",
            "ticks": 91392,
            "time": 160.44936599999997,
            "velocity": 0.3937007874015748
          },
          {
            "duration": 0.16853925000000913,
            "durationTicks": 96,
            "midi": 67,
            "name": "G4",
            "ticks": 91392,
            "time": 160.44936599999997,
            "velocity": 0.3937007874015748
          },
          {
            "duration": 0.16853925000000913,
            "durationTicks": 96,
            "midi": 62,
            "name": "D4",
            "ticks": 91488,
            "time": 160.61790524999998,
            "velocity": 0.3937007874015748
          },
          {
            "duration": 0.1685392499999807,
            "durationTicks": 96,
            "midi": 62,
            "name": "D4",
            "ticks": 91584,
            "time": 160.7864445,
            "velocity": 0.3937007874015748
          },
          {
            "duration": 0.16853925000000913,
            "durationTicks": 96,
            "midi": 62,
            "name": "D4",
            "ticks": 91680,
            "time": 160.95498374999997,
            "velocity": 0.3937007874015748
          },
          {
            "duration": 0.16853925000000913,
            "durationTicks": 96,
            "midi": 60,
            "name": "C4",
            "ticks": 91776,
            "time": 161.12352299999998,
            "velocity": 0.3937007874015748
          },
          {
            "duration": 0.1685392499999807,
            "durationTicks": 96,
            "midi": 60,
            "name": "C4",
            "ticks": 91872,
            "time": 161.29206225,
            "velocity": 0.3937007874015748
          },
          {
            "duration": 0.33707850000001827,
            "durationTicks": 192,
            "midi": 72,
            "name": "C5",
            "ticks": 91968,
            "time": 161.46060149999997,
            "velocity": 0.3937007874015748
          },
          {
            "duration": 0.16853925000000913,
            "durationTicks": 96,
            "midi": 60,
            "name": "C4",
            "ticks": 91968,
            "time": 161.46060149999997,
            "velocity": 0.3937007874015748
          },
          {
            "duration": 0.16853925000000913,
            "durationTicks": 96,
            "midi": 60,
            "name": "C4",
            "ticks": 92064,
            "time": 161.62914074999998,
            "velocity": 0.3937007874015748
          },
          {
            "duration": 0.1685392499999807,
            "durationTicks": 96,
            "midi": 63,
            "name": "D#4",
            "ticks": 92160,
            "time": 161.79767999999999,
            "velocity": 0.3937007874015748
          },
          {
            "duration": 0.1685392499999807,
            "durationTicks": 96,
            "midi": 68,
            "name": "G#4",
            "ticks": 92160,
            "time": 161.79767999999999,
            "velocity": 0.3937007874015748
          },
          {
            "duration": 0.16853925000000913,
            "durationTicks": 96,
            "midi": 63,
            "name": "D#4",
            "ticks": 92256,
            "time": 161.96621924999997,
            "velocity": 0.3937007874015748
          },
          {
            "duration": 0.16853925000000913,
            "durationTicks": 96,
            "midi": 63,
            "name": "D#4",
            "ticks": 92352,
            "time": 162.13475849999998,
            "velocity": 0.3937007874015748
          },
          {
            "duration": 0.1685392499999807,
            "durationTicks": 96,
            "midi": 63,
            "name": "D#4",
            "ticks": 92448,
            "time": 162.30329774999998,
            "velocity": 0.3937007874015748
          },
          {
            "duration": 0.16853925000000913,
            "durationTicks": 96,
            "midi": 65,
            "name": "F4",
            "ticks": 92544,
            "time": 162.47183699999997,
            "velocity": 0.3937007874015748
          },
          {
            "duration": 0.16853925000000913,
            "durationTicks": 96,
            "midi": 63,
            "name": "D#4",
            "ticks": 92544,
            "time": 162.47183699999997,
            "velocity": 0.3937007874015748
          },
          {
            "duration": 0.16853925000000913,
            "durationTicks": 96,
            "midi": 63,
            "name": "D#4",
            "ticks": 92640,
            "time": 162.64037624999997,
            "velocity": 0.3937007874015748
          },
          {
            "duration": 0.1685392499999807,
            "durationTicks": 96,
            "midi": 63,
            "name": "D#4",
            "ticks": 92736,
            "time": 162.80891549999998,
            "velocity": 0.3937007874015748
          },
          {
            "duration": 0.16853925000000913,
            "durationTicks": 96,
            "midi": 70,
            "name": "A#4",
            "ticks": 92832,
            "time": 162.97745474999996,
            "velocity": 0.3937007874015748
          },
          {
            "duration": 0.16853925000000913,
            "durationTicks": 96,
            "midi": 63,
            "name": "D#4",
            "ticks": 92832,
            "time": 162.97745474999996,
            "velocity": 0.3937007874015748
          },
          {
            "duration": 0.16853925000000913,
            "durationTicks": 96,
            "midi": 62,
            "name": "D4",
            "ticks": 92928,
            "time": 163.14599399999997,
            "velocity": 0.3937007874015748
          },
          {
            "duration": 0.16853925000000913,
            "durationTicks": 96,
            "midi": 67,
            "name": "G4",
            "ticks": 92928,
            "time": 163.14599399999997,
            "velocity": 0.3937007874015748
          },
          {
            "duration": 0.1685392499999807,
            "durationTicks": 96,
            "midi": 62,
            "name": "D4",
            "ticks": 93024,
            "time": 163.31453324999998,
            "velocity": 0.3937007874015748
          },
          {
            "duration": 0.16853925000000913,
            "durationTicks": 96,
            "midi": 62,
            "name": "D4",
            "ticks": 93120,
            "time": 163.48307249999996,
            "velocity": 0.3937007874015748
          },
          {
            "duration": 0.16853925000000913,
            "durationTicks": 96,
            "midi": 62,
            "name": "D4",
            "ticks": 93216,
            "time": 163.65161174999997,
            "velocity": 0.3937007874015748
          },
          {
            "duration": 0.1685392499999807,
            "durationTicks": 96,
            "midi": 60,
            "name": "C4",
            "ticks": 93312,
            "time": 163.82015099999998,
            "velocity": 0.3937007874015748
          },
          {
            "duration": 0.16853925000000913,
            "durationTicks": 96,
            "midi": 60,
            "name": "C4",
            "ticks": 93408,
            "time": 163.98869024999996,
            "velocity": 0.3937007874015748
          },
          {
            "duration": 0.16853925000000913,
            "durationTicks": 96,
            "midi": 60,
            "name": "C4",
            "ticks": 93504,
            "time": 164.15722949999997,
            "velocity": 0.3937007874015748
          },
          {
            "duration": 0.1685392499999807,
            "durationTicks": 96,
            "midi": 60,
            "name": "C4",
            "ticks": 93600,
            "time": 164.32576874999998,
            "velocity": 0.3937007874015748
          },
          {
            "duration": 0.16853925000000913,
            "durationTicks": 96,
            "midi": 63,
            "name": "D#4",
            "ticks": 93696,
            "time": 164.49430799999996,
            "velocity": 0.3937007874015748
          },
          {
            "duration": 0.16853925000000913,
            "durationTicks": 96,
            "midi": 65,
            "name": "F4",
            "ticks": 93696,
            "time": 164.49430799999996,
            "velocity": 0.3937007874015748
          },
          {
            "duration": 0.16853925000000913,
            "durationTicks": 96,
            "midi": 63,
            "name": "D#4",
            "ticks": 93792,
            "time": 164.66284724999997,
            "velocity": 0.3937007874015748
          },
          {
            "duration": 0.16853925000000913,
            "durationTicks": 96,
            "midi": 63,
            "name": "D#4",
            "ticks": 93888,
            "time": 164.83138649999998,
            "velocity": 0.3937007874015748
          },
          {
            "duration": 0.1685392499999807,
            "durationTicks": 96,
            "midi": 63,
            "name": "D#4",
            "ticks": 93984,
            "time": 164.99992575,
            "velocity": 0.3937007874015748
          },
          {
            "duration": 0.16853925000000913,
            "durationTicks": 96,
            "midi": 62,
            "name": "D4",
            "ticks": 94080,
            "time": 165.16846499999997,
            "velocity": 0.3937007874015748
          },
          {
            "duration": 0.16853925000000913,
            "durationTicks": 96,
            "midi": 63,
            "name": "D#4",
            "ticks": 94080,
            "time": 165.16846499999997,
            "velocity": 0.3937007874015748
          },
          {
            "duration": 0.16853925000000913,
            "durationTicks": 96,
            "midi": 62,
            "name": "D4",
            "ticks": 94176,
            "time": 165.33700424999998,
            "velocity": 0.3937007874015748
          },
          {
            "duration": 0.1685392499999807,
            "durationTicks": 96,
            "midi": 62,
            "name": "D4",
            "ticks": 94272,
            "time": 165.5055435,
            "velocity": 0.3937007874015748
          },
          {
            "duration": 0.16853925000000913,
            "durationTicks": 96,
            "midi": 62,
            "name": "D4",
            "ticks": 94368,
            "time": 165.67408274999997,
            "velocity": 0.3937007874015748
          },
          {
            "duration": 0.16853925000000913,
            "durationTicks": 96,
            "midi": 65,
            "name": "F4",
            "ticks": 94368,
            "time": 165.67408274999997,
            "velocity": 0.3937007874015748
          },
          {
            "duration": 0.16853925000000913,
            "durationTicks": 96,
            "midi": 59,
            "name": "B3",
            "ticks": 94464,
            "time": 165.84262199999998,
            "velocity": 0.3937007874015748
          }
        ],
        "endOfTrackTicks": 94560
      },
      {
        "channel": 1,
        "controlChanges": {},
        "pitchBends": [],
        "instrument": {
          "family": "guitar",
          "number": 24,
          "name": "acoustic guitar (nylon)"
        },
        "name": "Acoustic Guitar",
        "notes": [
          {
            "duration": 0.16853925000000913,
            "durationTicks": 96,
            "midi": 71,
            "name": "B4",
            "ticks": 89088,
            "time": 156.40442399999998,
            "velocity": 0.3937007874015748
          },
          {
            "duration": 0.1685392499999807,
            "durationTicks": 96,
            "midi": 73,
            "name": "C#5",
            "ticks": 89472,
            "time": 157.07858099999999,
            "velocity": 0.3937007874015748
          },
          {
            "duration": 0.1685392499999807,
            "durationTicks": 96,
            "midi": 71,
            "name": "B4",
            "ticks": 89760,
            "time": 157.58419874999998,
            "velocity": 0.3937007874015748
          },
          {
            "duration": 0.16853925000000913,
            "durationTicks": 96,
            "midi": 68,
            "name": "G#4",
            "ticks": 89856,
            "time": 157.75273799999997,
            "velocity": 0.3937007874015748
          },
          {
            "duration": 0.16853925000000913,
            "durationTicks": 96,
            "midi": 68,
            "name": "G#4",
            "ticks": 90240,
            "time": 158.42689499999997,
            "velocity": 0.3937007874015748
          },
          {
            "duration": 0.1685392499999807,
            "durationTicks": 96,
            "midi": 68,
            "name": "G#4",
            "ticks": 90624,
            "time": 159.10105199999998,
            "velocity": 0.3937007874015748
          },
          {
            "duration": 0.1685392499999807,
            "durationTicks": 96,
            "midi": 66,
            "name": "F#4",
            "ticks": 90912,
            "time": 159.60666974999998,
            "velocity": 0.3937007874015748
          },
          {
            "duration": 0.16853925000000913,
            "durationTicks": 96,
            "midi": 68,
            "name": "G#4",
            "ticks": 91008,
            "time": 159.77520899999996,
            "velocity": 0.3937007874015748
          },
          {
            "duration": 0.1685392499999807,
            "durationTicks": 96,
            "midi": 69,
            "name": "A4",
            "ticks": 91296,
            "time": 160.28082675,
            "velocity": 0.3937007874015748
          },
          {
            "duration": 0.16853925000000913,
            "durationTicks": 96,
            "midi": 68,
            "name": "G#4",
            "ticks": 91392,
            "time": 160.44936599999997,
            "velocity": 0.3937007874015748
          },
          {
            "duration": 0.1685392499999807,
            "durationTicks": 96,
            "midi": 69,
            "name": "A4",
            "ticks": 92160,
            "time": 161.79767999999999,
            "velocity": 0.3937007874015748
          },
          {
            "duration": 0.16853925000000913,
            "durationTicks": 96,
            "midi": 66,
            "name": "F#4",
            "ticks": 92544,
            "time": 162.47183699999997,
            "velocity": 0.3937007874015748
          },
          {
            "duration": 0.16853925000000913,
            "durationTicks": 96,
            "midi": 71,
            "name": "B4",
            "ticks": 92832,
            "time": 162.97745474999996,
            "velocity": 0.3937007874015748
          },
          {
            "duration": 0.16853925000000913,
            "durationTicks": 96,
            "midi": 68,
            "name": "G#4",
            "ticks": 92928,
            "time": 163.14599399999997,
            "velocity": 0.3937007874015748
          },
          {
            "duration": 0.16853925000000913,
            "durationTicks": 96,
            "midi": 66,
            "name": "F#4",
            "ticks": 93696,
            "time": 164.49430799999996,
            "velocity": 0.3937007874015748
          },
          {
            "duration": 0.16853925000000913,
            "durationTicks": 96,
            "midi": 64,
            "name": "E4",
            "ticks": 94080,
            "time": 165.16846499999997,
            "velocity": 0.3937007874015748
          },
          {
            "duration": 0.16853925000000913,
            "durationTicks": 96,
            "midi": 66,
            "name": "F#4",
            "ticks": 94368,
            "time": 165.67408274999997,
            "velocity": 0.3937007874015748
          },
          {
            "duration": 0.16853925000000913,
            "durationTicks": 96,
            "midi": 62,
            "name": "D4",
            "ticks": 94464,
            "time": 165.84262199999998,
            "velocity": 0.3937007874015748
          }
        ],
        "endOfTrackTicks": 94560
      },
      {
        "channel": 2,
        "controlChanges": {},
        "pitchBends": [],
        "instrument": {
          "family": "synth lead",
          "number": 87,
          "name": "lead 8 (bass + lead)"
        },
        "name": "Synth Pluck",
        "notes": [
          {
            "duration": 0.16853925000000025,
            "durationTicks": 96,
            "midi": 72,
            "name": "C5",
            "ticks": 9024,
            "time": 15.842689499999997,
            "velocity": 0.3937007874015748
          },
          {
            "duration": 0.16853924999999848,
            "durationTicks": 96,
            "midi": 74,
            "name": "D5",
            "ticks": 9120,
            "time": 16.011228749999997,
            "velocity": 0.3937007874015748
          },
          {
            "duration": 0.16853925000000203,
            "durationTicks": 96,
            "midi": 75,
            "name": "D#5",
            "ticks": 9216,
            "time": 16.179767999999996,
            "velocity": 0.3937007874015748
          },
          {
            "duration": 0.16853924999999848,
            "durationTicks": 96,
            "midi": 74,
            "name": "D5",
            "ticks": 9312,
            "time": 16.348307249999998,
            "velocity": 0.3937007874015748
          },
          {
            "duration": 0.3370785000000005,
            "durationTicks": 192,
            "midi": 72,
            "name": "C5",
            "ticks": 9408,
            "time": 16.516846499999996,
            "velocity": 0.3937007874015748
          },
          {
            "duration": 0.16853925000000203,
            "durationTicks": 96,
            "midi": 72,
            "name": "C5",
            "ticks": 9600,
            "time": 16.853924999999997,
            "velocity": 0.3937007874015748
          },
          {
            "duration": 0.16853924999999848,
            "durationTicks": 96,
            "midi": 74,
            "name": "D5",
            "ticks": 9696,
            "time": 17.02246425,
            "velocity": 0.3937007874015748
          },
          {
            "duration": 0.16853924999999848,
            "durationTicks": 96,
            "midi": 75,
            "name": "D#5",
            "ticks": 9792,
            "time": 17.191003499999997,
            "velocity": 0.3937007874015748
          },
          {
            "duration": 0.16853925000000203,
            "durationTicks": 96,
            "midi": 74,
            "name": "D5",
            "ticks": 9888,
            "time": 17.359542749999996,
            "velocity": 0.3937007874015748
          },
          {
            "duration": 0.16853924999999848,
            "durationTicks": 96,
            "midi": 72,
            "name": "C5",
            "ticks": 9984,
            "time": 17.528081999999998,
            "velocity": 0.3937007874015748
          },
          {
            "duration": 0.16853925000000203,
            "durationTicks": 96,
            "midi": 75,
            "name": "D#5",
            "ticks": 10080,
            "time": 17.696621249999996,
            "velocity": 0.3937007874015748
          },
          {
            "duration": 0.505617749999999,
            "durationTicks": 288,
            "midi": 79,
            "name": "G5",
            "ticks": 10176,
            "time": 17.865160499999998,
            "velocity": 0.3937007874015748
          },
          {
            "duration": 0.16853924999999848,
            "durationTicks": 96,
            "midi": 72,
            "name": "C5",
            "ticks": 10464,
            "time": 18.370778249999997,
            "velocity": 0.3937007874015748
          },
          {
            "duration": 0.16853925000000203,
            "durationTicks": 96,
            "midi": 75,
            "name": "D#5",
            "ticks": 10560,
            "time": 18.539317499999996,
            "velocity": 0.3937007874015748
          },
          {
            "duration": 0.16853924999999848,
            "durationTicks": 96,
            "midi": 79,
            "name": "G5",
            "ticks": 10656,
            "time": 18.707856749999998,
            "velocity": 0.3937007874015748
          },
          {
            "duration": 0.16853925000000203,
            "durationTicks": 96,
            "midi": 80,
            "name": "G#5",
            "ticks": 10752,
            "time": 18.876395999999996,
            "velocity": 0.3937007874015748
          },
          {
            "duration": 0.16853924999999848,
            "durationTicks": 96,
            "midi": 79,
            "name": "G5",
            "ticks": 10848,
            "time": 19.044935249999998,
            "velocity": 0.3937007874015748
          },
          {
            "duration": 0.16853925000000203,
            "durationTicks": 96,
            "midi": 77,
            "name": "F5",
            "ticks": 10944,
            "time": 19.213474499999997,
            "velocity": 0.3937007874015748
          },
          {
            "duration": 0.16853924999999848,
            "durationTicks": 96,
            "midi": 75,
            "name": "D#5",
            "ticks": 11040,
            "time": 19.38201375,
            "velocity": 0.3937007874015748
          },
          {
            "duration": 0.16853924999999848,
            "durationTicks": 96,
            "midi": 74,
            "name": "D5",
            "ticks": 11136,
            "time": 19.550552999999997,
            "velocity": 0.3937007874015748
          },
          {
            "duration": 0.16853925000000203,
            "durationTicks": 96,
            "midi": 75,
            "name": "D#5",
            "ticks": 11232,
            "time": 19.719092249999996,
            "velocity": 0.3937007874015748
          },
          {
            "duration": 0.16853924999999848,
            "durationTicks": 96,
            "midi": 77,
            "name": "F5",
            "ticks": 11328,
            "time": 19.887631499999998,
            "velocity": 0.3937007874015748
          },
          {
            "duration": 0.16853925000000203,
            "durationTicks": 96,
            "midi": 79,
            "name": "G5",
            "ticks": 11424,
            "time": 20.056170749999996,
            "velocity": 0.3937007874015748
          },
          {
            "duration": 0.8426962499999995,
            "durationTicks": 480,
            "midi": 75,
            "name": "D#5",
            "ticks": 11520,
            "time": 20.224709999999998,
            "velocity": 0.3937007874015748
          },
          {
            "duration": 0.16853924999999848,
            "durationTicks": 96,
            "midi": 72,
            "name": "C5",
            "ticks": 12000,
            "time": 21.067406249999998,
            "velocity": 0.3937007874015748
          },
          {
            "duration": 0.16853925000000203,
            "durationTicks": 96,
            "midi": 75,
            "name": "D#5",
            "ticks": 12096,
            "time": 21.235945499999996,
            "velocity": 0.3937007874015748
          },
          {
            "duration": 0.16853924999999848,
            "durationTicks": 96,
            "midi": 79,
            "name": "G5",
            "ticks": 12192,
            "time": 21.404484749999998,
            "velocity": 0.3937007874015748
          },
          {
            "duration": 0.16853924999999848,
            "durationTicks": 96,
            "midi": 80,
            "name": "G#5",
            "ticks": 12288,
            "time": 21.573023999999997,
            "velocity": 0.3937007874015748
          },
          {
            "duration": 0.16853925000000203,
            "durationTicks": 96,
            "midi": 79,
            "name": "G5",
            "ticks": 12384,
            "time": 21.741563249999995,
            "velocity": 0.3937007874015748
          },
          {
            "duration": 0.16853924999999848,
            "durationTicks": 96,
            "midi": 77,
            "name": "F5",
            "ticks": 12480,
            "time": 21.910102499999997,
            "velocity": 0.3937007874015748
          },
          {
            "duration": 0.16853925000000203,
            "durationTicks": 96,
            "midi": 75,
            "name": "D#5",
            "ticks": 12576,
            "time": 22.078641749999996,
            "velocity": 0.3937007874015748
          },
          {
            "duration": 0.16853924999999848,
            "durationTicks": 96,
            "midi": 74,
            "name": "D5",
            "ticks": 12672,
            "time": 22.247180999999998,
            "velocity": 0.3937007874015748
          },
          {
            "duration": 0.16853925000000203,
            "durationTicks": 96,
            "midi": 75,
            "name": "D#5",
            "ticks": 12768,
            "time": 22.415720249999996,
            "velocity": 0.3937007874015748
          },
          {
            "duration": 0.33707849999999695,
            "durationTicks": 192,
            "midi": 77,
            "name": "F5",
            "ticks": 12864,
            "time": 22.584259499999998,
            "velocity": 0.3937007874015748
          },
          {
            "duration": 0.16853925000000203,
            "durationTicks": 96,
            "midi": 79,
            "name": "G5",
            "ticks": 13056,
            "time": 22.921337999999995,
            "velocity": 0.3937007874015748
          },
          {
            "duration": 0.16853924999999848,
            "durationTicks": 96,
            "midi": 77,
            "name": "F5",
            "ticks": 13152,
            "time": 23.089877249999997,
            "velocity": 0.3937007874015748
          },
          {
            "duration": 0.16853925000000203,
            "durationTicks": 96,
            "midi": 75,
            "name": "D#5",
            "ticks": 13248,
            "time": 23.258416499999996,
            "velocity": 0.3937007874015748
          },
          {
            "duration": 0.16853924999999848,
            "durationTicks": 96,
            "midi": 74,
            "name": "D5",
            "ticks": 13344,
            "time": 23.426955749999998,
            "velocity": 0.3937007874015748
          },
          {
            "duration": 0.16853924999999848,
            "durationTicks": 96,
            "midi": 72,
            "name": "C5",
            "ticks": 13440,
            "time": 23.595494999999996,
            "velocity": 0.3937007874015748
          },
          {
            "duration": 0.16853925000000203,
            "durationTicks": 96,
            "midi": 74,
            "name": "D5",
            "ticks": 13536,
            "time": 23.764034249999995,
            "velocity": 0.3937007874015748
          },
          {
            "duration": 0.3370785000000005,
            "durationTicks": 192,
            "midi": 75,
            "name": "D#5",
            "ticks": 13632,
            "time": 23.932573499999997,
            "velocity": 0.3937007874015748
          },
          {
            "duration": 0.16853924999999848,
            "durationTicks": 96,
            "midi": 77,
            "name": "F5",
            "ticks": 13824,
            "time": 24.269651999999997,
            "velocity": 0.3937007874015748
          },
          {
            "duration": 0.16853925000000203,
            "durationTicks": 96,
            "midi": 75,
            "name": "D#5",
            "ticks": 13920,
            "time": 24.438191249999996,
            "velocity": 0.3937007874015748
          },
          {
            "duration": 0.16853924999999848,
            "durationTicks": 96,
            "midi": 74,
            "name": "D5",
            "ticks": 14016,
            "time": 24.606730499999998,
            "velocity": 0.3937007874015748
          },
          {
            "duration": 0.16853924999999848,
            "durationTicks": 96,
            "midi": 72,
            "name": "C5",
            "ticks": 14112,
            "time": 24.775269749999996,
            "velocity": 0.3937007874015748
          },
          {
            "duration": 0.16853925000000203,
            "durationTicks": 96,
            "midi": 71,
            "name": "B4",
            "ticks": 14208,
            "time": 24.943808999999995,
            "velocity": 0.3937007874015748
          },
          {
            "duration": 0.16853924999999848,
            "durationTicks": 96,
            "midi": 72,
            "name": "C5",
            "ticks": 14304,
            "time": 25.112348249999997,
            "velocity": 0.3937007874015748
          },
          {
            "duration": 0.16853925000000203,
            "durationTicks": 96,
            "midi": 74,
            "name": "D5",
            "ticks": 14400,
            "time": 25.280887499999995,
            "velocity": 0.3937007874015748
          },
          {
            "duration": 0.16853924999999848,
            "durationTicks": 96,
            "midi": 79,
            "name": "G5",
            "ticks": 14496,
            "time": 25.449426749999997,
            "velocity": 0.3937007874015748
          },
          {
            "duration": 0.674157000000001,
            "durationTicks": 384,
            "midi": 79,
            "name": "G5",
            "ticks": 14592,
            "time": 25.617965999999996,
            "velocity": 0.3937007874015748
          },
          {
            "duration": 3.53932425,
            "durationTicks": 2016,
            "midi": 91,
            "name": "G6",
            "ticks": 27648,
            "time": 48.539303999999994,
            "velocity": 0.3937007874015748
          },
          {
            "duration": 3.53932425,
            "durationTicks": 2016,
            "midi": 79,
            "name": "G5",
            "ticks": 27648,
            "time": 48.539303999999994,
            "velocity": 0.3937007874015748
          },
          {
            "duration": 0.16853924999999492,
            "durationTicks": 96,
            "midi": 87,
            "name": "D#6",
            "ticks": 29664,
            "time": 52.078628249999994,
            "velocity": 0.3937007874015748
          },
          {
            "duration": 0.16853924999999492,
            "durationTicks": 96,
            "midi": 75,
            "name": "D#5",
            "ticks": 29664,
            "time": 52.078628249999994,
            "velocity": 0.3937007874015748
          },
          {
            "duration": 0.16853925000000203,
            "durationTicks": 96,
            "midi": 89,
            "name": "F6",
            "ticks": 29760,
            "time": 52.24716749999999,
            "velocity": 0.3937007874015748
          },
          {
            "duration": 0.16853925000000203,
            "durationTicks": 96,
            "midi": 77,
            "name": "F5",
            "ticks": 29760,
            "time": 52.24716749999999,
            "velocity": 0.3937007874015748
          },
          {
            "duration": 1.348314000000002,
            "durationTicks": 768,
            "midi": 91,
            "name": "G6",
            "ticks": 29856,
            "time": 52.41570674999999,
            "velocity": 0.3937007874015748
          },
          {
            "duration": 1.348314000000002,
            "durationTicks": 768,
            "midi": 79,
            "name": "G5",
            "ticks": 29856,
            "time": 52.41570674999999,
            "velocity": 0.3937007874015748
          },
          {
            "duration": 0.33707849999999695,
            "durationTicks": 192,
            "midi": 92,
            "name": "G#6",
            "ticks": 30624,
            "time": 53.76402074999999,
            "velocity": 0.3937007874015748
          },
          {
            "duration": 0.33707849999999695,
            "durationTicks": 192,
            "midi": 80,
            "name": "G#5",
            "ticks": 30624,
            "time": 53.76402074999999,
            "velocity": 0.3937007874015748
          },
          {
            "duration": 0.16853925000000203,
            "durationTicks": 96,
            "midi": 79,
            "name": "G5",
            "ticks": 30816,
            "time": 54.10109924999999,
            "velocity": 0.3937007874015748
          },
          {
            "duration": 0.16853925000000203,
            "durationTicks": 96,
            "midi": 91,
            "name": "G6",
            "ticks": 30816,
            "time": 54.10109924999999,
            "velocity": 0.3937007874015748
          },
          {
            "duration": 0.674157000000001,
            "durationTicks": 384,
            "midi": 75,
            "name": "D#5",
            "ticks": 30912,
            "time": 54.26963849999999,
            "velocity": 0.3937007874015748
          },
          {
            "duration": 0.674157000000001,
            "durationTicks": 384,
            "midi": 87,
            "name": "D#6",
            "ticks": 30912,
            "time": 54.26963849999999,
            "velocity": 0.3937007874015748
          },
          {
            "duration": 0.16853924999999492,
            "durationTicks": 96,
            "midi": 72,
            "name": "C5",
            "ticks": 31296,
            "time": 54.94379549999999,
            "velocity": 0.3937007874015748
          },
          {
            "duration": 0.16853924999999492,
            "durationTicks": 96,
            "midi": 84,
            "name": "C6",
            "ticks": 31296,
            "time": 54.94379549999999,
            "velocity": 0.3937007874015748
          },
          {
            "duration": 0.33707850000000406,
            "durationTicks": 192,
            "midi": 82,
            "name": "A#5",
            "ticks": 31392,
            "time": 55.11233474999999,
            "velocity": 0.3937007874015748
          },
          {
            "duration": 0.33707850000000406,
            "durationTicks": 192,
            "midi": 70,
            "name": "A#4",
            "ticks": 31392,
            "time": 55.11233474999999,
            "velocity": 0.3937007874015748
          },
          {
            "duration": 0.16853925000000203,
            "durationTicks": 96,
            "midi": 87,
            "name": "D#6",
            "ticks": 31584,
            "time": 55.44941324999999,
            "velocity": 0.3937007874015748
          },
          {
            "duration": 0.16853925000000203,
            "durationTicks": 96,
            "midi": 75,
            "name": "D#5",
            "ticks": 31584,
            "time": 55.44941324999999,
            "velocity": 0.3937007874015748
          },
          {
            "duration": 0.33707849999999695,
            "durationTicks": 192,
            "midi": 84,
            "name": "C6",
            "ticks": 31680,
            "time": 55.617952499999994,
            "velocity": 0.3937007874015748
          },
          {
            "duration": 0.33707849999999695,
            "durationTicks": 192,
            "midi": 72,
            "name": "C5",
            "ticks": 31680,
            "time": 55.617952499999994,
            "velocity": 0.3937007874015748
          },
          {
            "duration": 0.16853925000000203,
            "durationTicks": 96,
            "midi": 70,
            "name": "A#4",
            "ticks": 31872,
            "time": 55.95503099999999,
            "velocity": 0.3937007874015748
          },
          {
            "duration": 0.16853925000000203,
            "durationTicks": 96,
            "midi": 82,
            "name": "A#5",
            "ticks": 31872,
            "time": 55.95503099999999,
            "velocity": 0.3937007874015748
          },
          {
            "duration": 0.505617749999999,
            "durationTicks": 288,
            "midi": 79,
            "name": "G5",
            "ticks": 31968,
            "time": 56.12357024999999,
            "velocity": 0.3937007874015748
          },
          {
            "duration": 0.505617749999999,
            "durationTicks": 288,
            "midi": 67,
            "name": "G4",
            "ticks": 31968,
            "time": 56.12357024999999,
            "velocity": 0.3937007874015748
          },
          {
            "duration": 0.33707849999999695,
            "durationTicks": 192,
            "midi": 77,
            "name": "F5",
            "ticks": 32256,
            "time": 56.62918799999999,
            "velocity": 0.3937007874015748
          },
          {
            "duration": 0.16853925000000203,
            "durationTicks": 96,
            "midi": 87,
            "name": "D#6",
            "ticks": 32448,
            "time": 56.96626649999999,
            "velocity": 0.3937007874015748
          },
          {
            "duration": 0.16853925000000203,
            "durationTicks": 96,
            "midi": 75,
            "name": "D#5",
            "ticks": 32448,
            "time": 56.96626649999999,
            "velocity": 0.3937007874015748
          },
          {
            "duration": 0.33707849999999695,
            "durationTicks": 192,
            "midi": 84,
            "name": "C6",
            "ticks": 32544,
            "time": 57.13480574999999,
            "velocity": 0.3937007874015748
          },
          {
            "duration": 0.33707849999999695,
            "durationTicks": 192,
            "midi": 72,
            "name": "C5",
            "ticks": 32544,
            "time": 57.13480574999999,
            "velocity": 0.3937007874015748
          },
          {
            "duration": 0.16853925000000203,
            "durationTicks": 96,
            "midi": 70,
            "name": "A#4",
            "ticks": 32736,
            "time": 57.47188424999999,
            "velocity": 0.3937007874015748
          },
          {
            "duration": 0.16853925000000203,
            "durationTicks": 96,
            "midi": 82,
            "name": "A#5",
            "ticks": 32736,
            "time": 57.47188424999999,
            "velocity": 0.3937007874015748
          },
          {
            "duration": 0.33707850000000406,
            "durationTicks": 192,
            "midi": 79,
            "name": "G5",
            "ticks": 32832,
            "time": 57.64042349999999,
            "velocity": 0.3937007874015748
          },
          {
            "duration": 0.33707850000000406,
            "durationTicks": 192,
            "midi": 67,
            "name": "G4",
            "ticks": 32832,
            "time": 57.64042349999999,
            "velocity": 0.3937007874015748
          },
          {
            "duration": 0.16853924999999492,
            "durationTicks": 96,
            "midi": 87,
            "name": "D#6",
            "ticks": 33024,
            "time": 57.977501999999994,
            "velocity": 0.3937007874015748
          },
          {
            "duration": 0.16853924999999492,
            "durationTicks": 96,
            "midi": 75,
            "name": "D#5",
            "ticks": 33024,
            "time": 57.977501999999994,
            "velocity": 0.3937007874015748
          },
          {
            "duration": 0.33707850000000406,
            "durationTicks": 192,
            "midi": 72,
            "name": "C5",
            "ticks": 33120,
            "time": 58.14604124999999,
            "velocity": 0.3937007874015748
          },
          {
            "duration": 0.33707850000000406,
            "durationTicks": 192,
            "midi": 84,
            "name": "C6",
            "ticks": 33120,
            "time": 58.14604124999999,
            "velocity": 0.3937007874015748
          },
          {
            "duration": 0.16853924999999492,
            "durationTicks": 96,
            "midi": 86,
            "name": "D6",
            "ticks": 33312,
            "time": 58.48311974999999,
            "velocity": 0.3937007874015748
          },
          {
            "duration": 0.16853924999999492,
            "durationTicks": 96,
            "midi": 74,
            "name": "D5",
            "ticks": 33312,
            "time": 58.48311974999999,
            "velocity": 0.3937007874015748
          },
          {
            "duration": 0.33707850000000406,
            "durationTicks": 192,
            "midi": 91,
            "name": "G6",
            "ticks": 33408,
            "time": 58.65165899999999,
            "velocity": 0.3937007874015748
          },
          {
            "duration": 0.33707850000000406,
            "durationTicks": 192,
            "midi": 79,
            "name": "G5",
            "ticks": 33408,
            "time": 58.65165899999999,
            "velocity": 0.3937007874015748
          },
          {
            "duration": 0.33707849999999695,
            "durationTicks": 192,
            "midi": 77,
            "name": "F5",
            "ticks": 33600,
            "time": 58.98873749999999,
            "velocity": 0.3937007874015748
          },
          {
            "duration": 0.33707849999999695,
            "durationTicks": 192,
            "midi": 89,
            "name": "F6",
            "ticks": 33600,
            "time": 58.98873749999999,
            "velocity": 0.3937007874015748
          },
          {
            "duration": 1.348314000000002,
            "durationTicks": 768,
            "midi": 91,
            "name": "G6",
            "ticks": 33792,
            "time": 59.32581599999999,
            "velocity": 0.3937007874015748
          },
          {
            "duration": 1.348314000000002,
            "durationTicks": 768,
            "midi": 79,
            "name": "G5",
            "ticks": 33792,
            "time": 59.32581599999999,
            "velocity": 0.3937007874015748
          },
          {
            "duration": 1.348314000000002,
            "durationTicks": 768,
            "midi": 94,
            "name": "A#6",
            "ticks": 34560,
            "time": 60.67412999999999,
            "velocity": 0.3937007874015748
          },
          {
            "duration": 1.348314000000002,
            "durationTicks": 768,
            "midi": 82,
            "name": "A#5",
            "ticks": 34560,
            "time": 60.67412999999999,
            "velocity": 0.3937007874015748
          },
          {
            "duration": 0.8426962499999959,
            "durationTicks": 480,
            "midi": 75,
            "name": "D#5",
            "ticks": 35328,
            "time": 62.02244399999999,
            "velocity": 0.3937007874015748
          },
          {
            "duration": 0.8426962499999959,
            "durationTicks": 480,
            "midi": 87,
            "name": "D#6",
            "ticks": 35328,
            "time": 62.02244399999999,
            "velocity": 0.3937007874015748
          },
          {
            "duration": 0.16853925000000203,
            "durationTicks": 96,
            "midi": 82,
            "name": "A#5",
            "ticks": 35808,
            "time": 62.86514024999999,
            "velocity": 0.3937007874015748
          },
          {
            "duration": 0.16853925000000203,
            "durationTicks": 96,
            "midi": 84,
            "name": "C6",
            "ticks": 35904,
            "time": 63.03367949999999,
            "velocity": 0.3937007874015748
          },
          {
            "duration": 0.16853925000000203,
            "durationTicks": 96,
            "midi": 84,
            "name": "C6",
            "ticks": 35904,
            "time": 63.03367949999999,
            "velocity": 0.3937007874015748
          },
          {
            "duration": 0.505617749999999,
            "durationTicks": 288,
            "midi": 82,
            "name": "A#5",
            "ticks": 36000,
            "time": 63.20221874999999,
            "velocity": 0.3937007874015748
          },
          {
            "duration": 0.505617749999999,
            "durationTicks": 288,
            "midi": 94,
            "name": "A#6",
            "ticks": 36000,
            "time": 63.20221874999999,
            "velocity": 0.3937007874015748
          },
          {
            "duration": 0.33707849999999695,
            "durationTicks": 192,
            "midi": 91,
            "name": "G6",
            "ticks": 36288,
            "time": 63.70783649999999,
            "velocity": 0.3937007874015748
          },
          {
            "duration": 0.33707849999999695,
            "durationTicks": 192,
            "midi": 79,
            "name": "G5",
            "ticks": 36288,
            "time": 63.70783649999999,
            "velocity": 0.3937007874015748
          },
          {
            "duration": 0.33707850000000406,
            "durationTicks": 192,
            "midi": 91,
            "name": "G6",
            "ticks": 36480,
            "time": 64.04491499999999,
            "velocity": 0.3937007874015748
          },
          {
            "duration": 0.33707850000000406,
            "durationTicks": 192,
            "midi": 79,
            "name": "G5",
            "ticks": 36480,
            "time": 64.04491499999999,
            "velocity": 0.3937007874015748
          },
          {
            "duration": 0.33707849999998984,
            "durationTicks": 192,
            "midi": 80,
            "name": "G#5",
            "ticks": 36672,
            "time": 64.3819935,
            "velocity": 0.3937007874015748
          },
          {
            "duration": 0.33707849999998984,
            "durationTicks": 192,
            "midi": 92,
            "name": "G#6",
            "ticks": 36672,
            "time": 64.3819935,
            "velocity": 0.3937007874015748
          },
          {
            "duration": 0.6741570000000081,
            "durationTicks": 384,
            "midi": 77,
            "name": "F5",
            "ticks": 36864,
            "time": 64.71907199999998,
            "velocity": 0.3937007874015748
          },
          {
            "duration": 0.6741570000000081,
            "durationTicks": 384,
            "midi": 89,
            "name": "F6",
            "ticks": 36864,
            "time": 64.71907199999998,
            "velocity": 0.3937007874015748
          },
          {
            "duration": 1.853931750000001,
            "durationTicks": 1056,
            "midi": 75,
            "name": "D#5",
            "ticks": 37248,
            "time": 65.39322899999999,
            "velocity": 0.3937007874015748
          },
          {
            "duration": 1.853931750000001,
            "durationTicks": 1056,
            "midi": 87,
            "name": "D#6",
            "ticks": 37248,
            "time": 65.39322899999999,
            "velocity": 0.3937007874015748
          },
          {
            "duration": 0.16853924999999492,
            "durationTicks": 96,
            "midi": 84,
            "name": "C6",
            "ticks": 38304,
            "time": 67.24716074999999,
            "velocity": 0.3937007874015748
          },
          {
            "duration": 0.16853924999999492,
            "durationTicks": 96,
            "midi": 72,
            "name": "C5",
            "ticks": 38304,
            "time": 67.24716074999999,
            "velocity": 0.3937007874015748
          },
          {
            "duration": 0.33707850000000406,
            "durationTicks": 192,
            "midi": 75,
            "name": "D#5",
            "ticks": 38400,
            "time": 67.41569999999999,
            "velocity": 0.3937007874015748
          },
          {
            "duration": 0.33707850000000406,
            "durationTicks": 192,
            "midi": 87,
            "name": "D#6",
            "ticks": 38400,
            "time": 67.41569999999999,
            "velocity": 0.3937007874015748
          },
          {
            "duration": 0.33707850000000406,
            "durationTicks": 192,
            "midi": 75,
            "name": "D#5",
            "ticks": 38592,
            "time": 67.75277849999999,
            "velocity": 0.3937007874015748
          },
          {
            "duration": 0.33707850000000406,
            "durationTicks": 192,
            "midi": 87,
            "name": "D#6",
            "ticks": 38592,
            "time": 67.75277849999999,
            "velocity": 0.3937007874015748
          },
          {
            "duration": 0.16853924999999492,
            "durationTicks": 96,
            "midi": 75,
            "name": "D#5",
            "ticks": 38784,
            "time": 68.089857,
            "velocity": 0.3937007874015748
          },
          {
            "duration": 0.16853924999999492,
            "durationTicks": 96,
            "midi": 87,
            "name": "D#6",
            "ticks": 38784,
            "time": 68.089857,
            "velocity": 0.3937007874015748
          },
          {
            "duration": 0.33707850000000406,
            "durationTicks": 192,
            "midi": 89,
            "name": "F6",
            "ticks": 38880,
            "time": 68.25839624999999,
            "velocity": 0.3937007874015748
          },
          {
            "duration": 0.33707850000000406,
            "durationTicks": 192,
            "midi": 77,
            "name": "F5",
            "ticks": 38880,
            "time": 68.25839624999999,
            "velocity": 0.3937007874015748
          },
          {
            "duration": 0.505617749999999,
            "durationTicks": 288,
            "midi": 86,
            "name": "D6",
            "ticks": 39072,
            "time": 68.59547475,
            "velocity": 0.3937007874015748
          },
          {
            "duration": 0.505617749999999,
            "durationTicks": 288,
            "midi": 74,
            "name": "D5",
            "ticks": 39072,
            "time": 68.59547475,
            "velocity": 0.3937007874015748
          },
          {
            "duration": 0.33707849999998984,
            "durationTicks": 192,
            "midi": 91,
            "name": "G6",
            "ticks": 39360,
            "time": 69.1010925,
            "velocity": 0.3937007874015748
          },
          {
            "duration": 0.33707849999998984,
            "durationTicks": 192,
            "midi": 79,
            "name": "G5",
            "ticks": 39360,
            "time": 69.1010925,
            "velocity": 0.3937007874015748
          },
          {
            "duration": 0.33707850000000406,
            "durationTicks": 192,
            "midi": 79,
            "name": "G5",
            "ticks": 39552,
            "time": 69.43817099999998,
            "velocity": 0.3937007874015748
          },
          {
            "duration": 0.33707850000000406,
            "durationTicks": 192,
            "midi": 91,
            "name": "G6",
            "ticks": 39552,
            "time": 69.43817099999998,
            "velocity": 0.3937007874015748
          },
          {
            "duration": 0.33707850000000406,
            "durationTicks": 192,
            "midi": 92,
            "name": "G#6",
            "ticks": 39744,
            "time": 69.77524949999999,
            "velocity": 0.3937007874015748
          },
          {
            "duration": 0.33707850000000406,
            "durationTicks": 192,
            "midi": 80,
            "name": "G#5",
            "ticks": 39744,
            "time": 69.77524949999999,
            "velocity": 0.3937007874015748
          },
          {
            "duration": 0.16853924999999492,
            "durationTicks": 96,
            "midi": 72,
            "name": "C5",
            "ticks": 45888,
            "time": 80.56176149999999,
            "velocity": 0.3937007874015748
          },
          {
            "duration": 0.16853925000000913,
            "durationTicks": 96,
            "midi": 74,
            "name": "D5",
            "ticks": 45984,
            "time": 80.73030074999998,
            "velocity": 0.3937007874015748
          },
          {
            "duration": 0.16853924999999492,
            "durationTicks": 96,
            "midi": 75,
            "name": "D#5",
            "ticks": 46080,
            "time": 80.89883999999999,
            "velocity": 0.3937007874015748
          },
          {
            "duration": 0.16853924999999492,
            "durationTicks": 96,
            "midi": 74,
            "name": "D5",
            "ticks": 46176,
            "time": 81.06737924999999,
            "velocity": 0.3937007874015748
          },
          {
            "duration": 0.33707850000000406,
            "durationTicks": 192,
            "midi": 72,
            "name": "C5",
            "ticks": 46272,
            "time": 81.23591849999998,
            "velocity": 0.3937007874015748
          },
          {
            "duration": 0.16853924999999492,
            "durationTicks": 96,
            "midi": 72,
            "name": "C5",
            "ticks": 46464,
            "time": 81.57299699999999,
            "velocity": 0.3937007874015748
          },
          {
            "duration": 0.16853925000000913,
            "durationTicks": 96,
            "midi": 74,
            "name": "D5",
            "ticks": 46560,
            "time": 81.74153624999998,
            "velocity": 0.3937007874015748
          },
          {
            "duration": 0.16853924999999492,
            "durationTicks": 96,
            "midi": 75,
            "name": "D#5",
            "ticks": 46656,
            "time": 81.91007549999999,
            "velocity": 0.3937007874015748
          },
          {
            "duration": 0.16853924999999492,
            "durationTicks": 96,
            "midi": 74,
            "name": "D5",
            "ticks": 46752,
            "time": 82.07861474999999,
            "velocity": 0.3937007874015748
          },
          {
            "duration": 0.16853925000000913,
            "durationTicks": 96,
            "midi": 72,
            "name": "C5",
            "ticks": 46848,
            "time": 82.24715399999998,
            "velocity": 0.3937007874015748
          },
          {
            "duration": 0.16853924999999492,
            "durationTicks": 96,
            "midi": 75,
            "name": "D#5",
            "ticks": 46944,
            "time": 82.41569324999999,
            "velocity": 0.3937007874015748
          },
          {
            "duration": 0.505617749999999,
            "durationTicks": 288,
            "midi": 79,
            "name": "G5",
            "ticks": 47040,
            "time": 82.58423249999998,
            "velocity": 0.3937007874015748
          },
          {
            "duration": 0.16853925000000913,
            "durationTicks": 96,
            "midi": 72,
            "name": "C5",
            "ticks": 47328,
            "time": 83.08985024999998,
            "velocity": 0.3937007874015748
          },
          {
            "duration": 0.16853924999999492,
            "durationTicks": 96,
            "midi": 75,
            "name": "D#5",
            "ticks": 47424,
            "time": 83.25838949999999,
            "velocity": 0.3937007874015748
          },
          {
            "duration": 0.16853924999999492,
            "durationTicks": 96,
            "midi": 79,
            "name": "G5",
            "ticks": 47520,
            "time": 83.42692874999999,
            "velocity": 0.3937007874015748
          },
          {
            "duration": 0.16853925000000913,
            "durationTicks": 96,
            "midi": 80,
            "name": "G#5",
            "ticks": 47616,
            "time": 83.59546799999998,
            "velocity": 0.3937007874015748
          },
          {
            "duration": 0.16853924999999492,
            "durationTicks": 96,
            "midi": 79,
            "name": "G5",
            "ticks": 47712,
            "time": 83.76400724999999,
            "velocity": 0.3937007874015748
          },
          {
            "duration": 0.16853924999999492,
            "durationTicks": 96,
            "midi": 77,
            "name": "F5",
            "ticks": 47808,
            "time": 83.93254649999999,
            "velocity": 0.3937007874015748
          },
          {
            "duration": 0.16853925000000913,
            "durationTicks": 96,
            "midi": 75,
            "name": "D#5",
            "ticks": 47904,
            "time": 84.10108574999998,
            "velocity": 0.3937007874015748
          },
          {
            "duration": 0.16853924999999492,
            "durationTicks": 96,
            "midi": 74,
            "name": "D5",
            "ticks": 48000,
            "time": 84.26962499999999,
            "velocity": 0.3937007874015748
          },
          {
            "duration": 0.16853924999999492,
            "durationTicks": 96,
            "midi": 75,
            "name": "D#5",
            "ticks": 48096,
            "time": 84.43816424999999,
            "velocity": 0.3937007874015748
          },
          {
            "duration": 0.16853925000000913,
            "durationTicks": 96,
            "midi": 77,
            "name": "F5",
            "ticks": 48192,
            "time": 84.60670349999998,
            "velocity": 0.3937007874015748
          },
          {
            "duration": 0.16853924999999492,
            "durationTicks": 96,
            "midi": 79,
            "name": "G5",
            "ticks": 48288,
            "time": 84.77524274999999,
            "velocity": 0.3937007874015748
          },
          {
            "duration": 0.842696250000003,
            "durationTicks": 480,
            "midi": 75,
            "name": "D#5",
            "ticks": 48384,
            "time": 84.94378199999998,
            "velocity": 0.3937007874015748
          },
          {
            "duration": 0.16853924999999492,
            "durationTicks": 96,
            "midi": 72,
            "name": "C5",
            "ticks": 48864,
            "time": 85.78647824999999,
            "velocity": 0.3937007874015748
          },
          {
            "duration": 0.16853925000000913,
            "durationTicks": 96,
            "midi": 75,
            "name": "D#5",
            "ticks": 48960,
            "time": 85.95501749999998,
            "velocity": 0.3937007874015748
          },
          {
            "duration": 0.16853924999999492,
            "durationTicks": 96,
            "midi": 79,
            "name": "G5",
            "ticks": 49056,
            "time": 86.12355674999999,
            "velocity": 0.3937007874015748
          },
          {
            "duration": 0.16853924999999492,
            "durationTicks": 96,
            "midi": 80,
            "name": "G#5",
            "ticks": 49152,
            "time": 86.29209599999999,
            "velocity": 0.3937007874015748
          },
          {
            "duration": 0.16853925000000913,
            "durationTicks": 96,
            "midi": 79,
            "name": "G5",
            "ticks": 49248,
            "time": 86.46063524999998,
            "velocity": 0.3937007874015748
          },
          {
            "duration": 0.16853924999999492,
            "durationTicks": 96,
            "midi": 77,
            "name": "F5",
            "ticks": 49344,
            "time": 86.62917449999999,
            "velocity": 0.3937007874015748
          },
          {
            "duration": 0.16853924999999492,
            "durationTicks": 96,
            "midi": 75,
            "name": "D#5",
            "ticks": 49440,
            "time": 86.79771374999999,
            "velocity": 0.3937007874015748
          },
          {
            "duration": 0.16853925000000913,
            "durationTicks": 96,
            "midi": 74,
            "name": "D5",
            "ticks": 49536,
            "time": 86.96625299999998,
            "velocity": 0.3937007874015748
          },
          {
            "duration": 0.16853924999999492,
            "durationTicks": 96,
            "midi": 75,
            "name": "D#5",
            "ticks": 49632,
            "time": 87.13479224999999,
            "velocity": 0.3937007874015748
          },
          {
            "duration": 0.33707850000000406,
            "durationTicks": 192,
            "midi": 77,
            "name": "F5",
            "ticks": 49728,
            "time": 87.30333149999998,
            "velocity": 0.3937007874015748
          },
          {
            "duration": 0.16853924999999492,
            "durationTicks": 96,
            "midi": 79,
            "name": "G5",
            "ticks": 49920,
            "time": 87.64040999999999,
            "velocity": 0.3937007874015748
          },
          {
            "duration": 0.16853925000000913,
            "durationTicks": 96,
            "midi": 77,
            "name": "F5",
            "ticks": 50016,
            "time": 87.80894924999998,
            "velocity": 0.3937007874015748
          },
          {
            "duration": 0.16853924999999492,
            "durationTicks": 96,
            "midi": 75,
            "name": "D#5",
            "ticks": 50112,
            "time": 87.97748849999999,
            "velocity": 0.3937007874015748
          },
          {
            "duration": 0.16853924999999492,
            "durationTicks": 96,
            "midi": 74,
            "name": "D5",
            "ticks": 50208,
            "time": 88.14602774999999,
            "velocity": 0.3937007874015748
          },
          {
            "duration": 0.16853925000000913,
            "durationTicks": 96,
            "midi": 72,
            "name": "C5",
            "ticks": 50304,
            "time": 88.31456699999998,
            "velocity": 0.3937007874015748
          },
          {
            "duration": 0.16853924999999492,
            "durationTicks": 96,
            "midi": 74,
            "name": "D5",
            "ticks": 50400,
            "time": 88.48310624999999,
            "velocity": 0.3937007874015748
          },
          {
            "duration": 0.33707850000000406,
            "durationTicks": 192,
            "midi": 75,
            "name": "D#5",
            "ticks": 50496,
            "time": 88.65164549999999,
            "velocity": 0.3937007874015748
          },
          {
            "duration": 0.16853924999999492,
            "durationTicks": 96,
            "midi": 77,
            "name": "F5",
            "ticks": 50688,
            "time": 88.98872399999999,
            "velocity": 0.3937007874015748
          },
          {
            "duration": 0.16853924999999492,
            "durationTicks": 96,
            "midi": 75,
            "name": "D#5",
            "ticks": 50784,
            "time": 89.15726324999999,
            "velocity": 0.3937007874015748
          },
          {
            "duration": 0.16853925000000913,
            "durationTicks": 96,
            "midi": 74,
            "name": "D5",
            "ticks": 50880,
            "time": 89.32580249999998,
            "velocity": 0.3937007874015748
          },
          {
            "duration": 0.16853924999999492,
            "durationTicks": 96,
            "midi": 72,
            "name": "C5",
            "ticks": 50976,
            "time": 89.49434174999999,
            "velocity": 0.3937007874015748
          },
          {
            "duration": 0.16853924999999492,
            "durationTicks": 96,
            "midi": 71,
            "name": "B4",
            "ticks": 51072,
            "time": 89.66288099999998,
            "velocity": 0.3937007874015748
          },
          {
            "duration": 0.16853925000000913,
            "durationTicks": 96,
            "midi": 72,
            "name": "C5",
            "ticks": 51168,
            "time": 89.83142024999998,
            "velocity": 0.3937007874015748
          },
          {
            "duration": 0.16853924999999492,
            "durationTicks": 96,
            "midi": 74,
            "name": "D5",
            "ticks": 51264,
            "time": 89.99995949999999,
            "velocity": 0.3937007874015748
          },
          {
            "duration": 0.16853925000000913,
            "durationTicks": 96,
            "midi": 79,
            "name": "G5",
            "ticks": 51360,
            "time": 90.16849874999998,
            "velocity": 0.3937007874015748
          },
          {
            "duration": 0.6741569999999939,
            "durationTicks": 384,
            "midi": 79,
            "name": "G5",
            "ticks": 51456,
            "time": 90.33703799999999,
            "velocity": 0.3937007874015748
          },
          {
            "duration": 3.539324249999993,
            "durationTicks": 2016,
            "midi": 79,
            "name": "G5",
            "ticks": 64512,
            "time": 113.25837599999998,
            "velocity": 0.3937007874015748
          },
          {
            "duration": 3.539324249999993,
            "durationTicks": 2016,
            "midi": 91,
            "name": "G6",
            "ticks": 64512,
            "time": 113.25837599999998,
            "velocity": 0.3937007874015748
          },
          {
            "duration": 0.16853925000000913,
            "durationTicks": 96,
            "midi": 75,
            "name": "D#5",
            "ticks": 66528,
            "time": 116.79770024999998,
            "velocity": 0.3937007874015748
          },
          {
            "duration": 0.16853925000000913,
            "durationTicks": 96,
            "midi": 87,
            "name": "D#6",
            "ticks": 66528,
            "time": 116.79770024999998,
            "velocity": 0.3937007874015748
          },
          {
            "duration": 0.16853924999999492,
            "durationTicks": 96,
            "midi": 89,
            "name": "F6",
            "ticks": 66624,
            "time": 116.96623949999999,
            "velocity": 0.3937007874015748
          },
          {
            "duration": 0.16853924999999492,
            "durationTicks": 96,
            "midi": 77,
            "name": "F5",
            "ticks": 66624,
            "time": 116.96623949999999,
            "velocity": 0.3937007874015748
          },
          {
            "duration": 1.348314000000002,
            "durationTicks": 768,
            "midi": 91,
            "name": "G6",
            "ticks": 66720,
            "time": 117.13477874999998,
            "velocity": 0.3937007874015748
          },
          {
            "duration": 1.348314000000002,
            "durationTicks": 768,
            "midi": 79,
            "name": "G5",
            "ticks": 66720,
            "time": 117.13477874999998,
            "velocity": 0.3937007874015748
          },
          {
            "duration": 0.33707850000000406,
            "durationTicks": 192,
            "midi": 80,
            "name": "G#5",
            "ticks": 67488,
            "time": 118.48309274999998,
            "velocity": 0.3937007874015748
          },
          {
            "duration": 0.33707850000000406,
            "durationTicks": 192,
            "midi": 92,
            "name": "G#6",
            "ticks": 67488,
            "time": 118.48309274999998,
            "velocity": 0.3937007874015748
          },
          {
            "duration": 0.16853924999999492,
            "durationTicks": 96,
            "midi": 91,
            "name": "G6",
            "ticks": 67680,
            "time": 118.82017124999999,
            "velocity": 0.3937007874015748
          },
          {
            "duration": 0.16853924999999492,
            "durationTicks": 96,
            "midi": 79,
            "name": "G5",
            "ticks": 67680,
            "time": 118.82017124999999,
            "velocity": 0.3937007874015748
          },
          {
            "duration": 0.6741569999999939,
            "durationTicks": 384,
            "midi": 87,
            "name": "D#6",
            "ticks": 67776,
            "time": 118.98871049999998,
            "velocity": 0.3937007874015748
          },
          {
            "duration": 0.6741569999999939,
            "durationTicks": 384,
            "midi": 75,
            "name": "D#5",
            "ticks": 67776,
            "time": 118.98871049999998,
            "velocity": 0.3937007874015748
          },
          {
            "duration": 0.16853925000000913,
            "durationTicks": 96,
            "midi": 84,
            "name": "C6",
            "ticks": 68160,
            "time": 119.66286749999998,
            "velocity": 0.3937007874015748
          },
          {
            "duration": 0.16853925000000913,
            "durationTicks": 96,
            "midi": 72,
            "name": "C5",
            "ticks": 68160,
            "time": 119.66286749999998,
            "velocity": 0.3937007874015748
          },
          {
            "duration": 0.33707849999998984,
            "durationTicks": 192,
            "midi": 82,
            "name": "A#5",
            "ticks": 68256,
            "time": 119.83140674999999,
            "velocity": 0.3937007874015748
          },
          {
            "duration": 0.33707849999998984,
            "durationTicks": 192,
            "midi": 70,
            "name": "A#4",
            "ticks": 68256,
            "time": 119.83140674999999,
            "velocity": 0.3937007874015748
          },
          {
            "duration": 0.16853925000000913,
            "durationTicks": 96,
            "midi": 75,
            "name": "D#5",
            "ticks": 68448,
            "time": 120.16848524999997,
            "velocity": 0.3937007874015748
          },
          {
            "duration": 0.16853925000000913,
            "durationTicks": 96,
            "midi": 87,
            "name": "D#6",
            "ticks": 68448,
            "time": 120.16848524999997,
            "velocity": 0.3937007874015748
          },
          {
            "duration": 0.33707850000000406,
            "durationTicks": 192,
            "midi": 84,
            "name": "C6",
            "ticks": 68544,
            "time": 120.33702449999998,
            "velocity": 0.3937007874015748
          },
          {
            "duration": 0.33707850000000406,
            "durationTicks": 192,
            "midi": 72,
            "name": "C5",
            "ticks": 68544,
            "time": 120.33702449999998,
            "velocity": 0.3937007874015748
          },
          {
            "duration": 0.16853924999999492,
            "durationTicks": 96,
            "midi": 82,
            "name": "A#5",
            "ticks": 68736,
            "time": 120.67410299999999,
            "velocity": 0.3937007874015748
          },
          {
            "duration": 0.16853924999999492,
            "durationTicks": 96,
            "midi": 70,
            "name": "A#4",
            "ticks": 68736,
            "time": 120.67410299999999,
            "velocity": 0.3937007874015748
          },
          {
            "duration": 0.505617749999999,
            "durationTicks": 288,
            "midi": 67,
            "name": "G4",
            "ticks": 68832,
            "time": 120.84264224999998,
            "velocity": 0.3937007874015748
          },
          {
            "duration": 0.505617749999999,
            "durationTicks": 288,
            "midi": 79,
            "name": "G5",
            "ticks": 68832,
            "time": 120.84264224999998,
            "velocity": 0.3937007874015748
          },
          {
            "duration": 0.33707850000000406,
            "durationTicks": 192,
            "midi": 77,
            "name": "F5",
            "ticks": 69120,
            "time": 121.34825999999998,
            "velocity": 0.3937007874015748
          },
          {
            "duration": 0.16853924999999492,
            "durationTicks": 96,
            "midi": 87,
            "name": "D#6",
            "ticks": 69312,
            "time": 121.68533849999999,
            "velocity": 0.3937007874015748
          },
          {
            "duration": 0.16853924999999492,
            "durationTicks": 96,
            "midi": 75,
            "name": "D#5",
            "ticks": 69312,
            "time": 121.68533849999999,
            "velocity": 0.3937007874015748
          },
          {
            "duration": 0.33707850000000406,
            "durationTicks": 192,
            "midi": 72,
            "name": "C5",
            "ticks": 69408,
            "time": 121.85387774999998,
            "velocity": 0.3937007874015748
          },
          {
            "duration": 0.33707850000000406,
            "durationTicks": 192,
            "midi": 84,
            "name": "C6",
            "ticks": 69408,
            "time": 121.85387774999998,
            "velocity": 0.3937007874015748
          },
          {
            "duration": 0.16853924999999492,
            "durationTicks": 96,
            "midi": 82,
            "name": "A#5",
            "ticks": 69600,
            "time": 122.19095624999999,
            "velocity": 0.3937007874015748
          },
          {
            "duration": 0.16853924999999492,
            "durationTicks": 96,
            "midi": 70,
            "name": "A#4",
            "ticks": 69600,
            "time": 122.19095624999999,
            "velocity": 0.3937007874015748
          },
          {
            "duration": 0.33707850000000406,
            "durationTicks": 192,
            "midi": 79,
            "name": "G5",
            "ticks": 69696,
            "time": 122.35949549999998,
            "velocity": 0.3937007874015748
          },
          {
            "duration": 0.33707850000000406,
            "durationTicks": 192,
            "midi": 67,
            "name": "G4",
            "ticks": 69696,
            "time": 122.35949549999998,
            "velocity": 0.3937007874015748
          },
          {
            "duration": 0.16853924999999492,
            "durationTicks": 96,
            "midi": 75,
            "name": "D#5",
            "ticks": 69888,
            "time": 122.69657399999998,
            "velocity": 0.3937007874015748
          },
          {
            "duration": 0.16853924999999492,
            "durationTicks": 96,
            "midi": 87,
            "name": "D#6",
            "ticks": 69888,
            "time": 122.69657399999998,
            "velocity": 0.3937007874015748
          },
          {
            "duration": 0.33707850000000406,
            "durationTicks": 192,
            "midi": 84,
            "name": "C6",
            "ticks": 69984,
            "time": 122.86511324999998,
            "velocity": 0.3937007874015748
          },
          {
            "duration": 0.33707850000000406,
            "durationTicks": 192,
            "midi": 72,
            "name": "C5",
            "ticks": 69984,
            "time": 122.86511324999998,
            "velocity": 0.3937007874015748
          },
          {
            "duration": 0.16853924999999492,
            "durationTicks": 96,
            "midi": 86,
            "name": "D6",
            "ticks": 70176,
            "time": 123.20219174999998,
            "velocity": 0.3937007874015748
          },
          {
            "duration": 0.16853924999999492,
            "durationTicks": 96,
            "midi": 74,
            "name": "D5",
            "ticks": 70176,
            "time": 123.20219174999998,
            "velocity": 0.3937007874015748
          },
          {
            "duration": 0.33707850000000406,
            "durationTicks": 192,
            "midi": 91,
            "name": "G6",
            "ticks": 70272,
            "time": 123.37073099999998,
            "velocity": 0.3937007874015748
          },
          {
            "duration": 0.33707850000000406,
            "durationTicks": 192,
            "midi": 79,
            "name": "G5",
            "ticks": 70272,
            "time": 123.37073099999998,
            "velocity": 0.3937007874015748
          },
          {
            "duration": 0.33707850000000406,
            "durationTicks": 192,
            "midi": 89,
            "name": "F6",
            "ticks": 70464,
            "time": 123.70780949999998,
            "velocity": 0.3937007874015748
          },
          {
            "duration": 0.33707850000000406,
            "durationTicks": 192,
            "midi": 77,
            "name": "F5",
            "ticks": 70464,
            "time": 123.70780949999998,
            "velocity": 0.3937007874015748
          },
          {
            "duration": 1.3483139999999878,
            "durationTicks": 768,
            "midi": 91,
            "name": "G6",
            "ticks": 70656,
            "time": 124.04488799999999,
            "velocity": 0.3937007874015748
          },
          {
            "duration": 1.3483139999999878,
            "durationTicks": 768,
            "midi": 79,
            "name": "G5",
            "ticks": 70656,
            "time": 124.04488799999999,
            "velocity": 0.3937007874015748
          },
          {
            "duration": 1.348314000000002,
            "durationTicks": 768,
            "midi": 82,
            "name": "A#5",
            "ticks": 71424,
            "time": 125.39320199999997,
            "velocity": 0.3937007874015748
          },
          {
            "duration": 1.348314000000002,
            "durationTicks": 768,
            "midi": 94,
            "name": "A#6",
            "ticks": 71424,
            "time": 125.39320199999997,
            "velocity": 0.3937007874015748
          },
          {
            "duration": 0.842696250000003,
            "durationTicks": 480,
            "midi": 87,
            "name": "D#6",
            "ticks": 72192,
            "time": 126.74151599999998,
            "velocity": 0.3937007874015748
          },
          {
            "duration": 0.842696250000003,
            "durationTicks": 480,
            "midi": 75,
            "name": "D#5",
            "ticks": 72192,
            "time": 126.74151599999998,
            "velocity": 0.3937007874015748
          },
          {
            "duration": 0.16853924999999492,
            "durationTicks": 96,
            "midi": 82,
            "name": "A#5",
            "ticks": 72672,
            "time": 127.58421224999998,
            "velocity": 0.3937007874015748
          },
          {
            "duration": 0.16853925000000913,
            "durationTicks": 96,
            "midi": 84,
            "name": "C6",
            "ticks": 72768,
            "time": 127.75275149999997,
            "velocity": 0.3937007874015748
          },
          {
            "duration": 0.16853925000000913,
            "durationTicks": 96,
            "midi": 84,
            "name": "C6",
            "ticks": 72768,
            "time": 127.75275149999997,
            "velocity": 0.3937007874015748
          },
          {
            "duration": 0.5056177499999848,
            "durationTicks": 288,
            "midi": 82,
            "name": "A#5",
            "ticks": 72864,
            "time": 127.92129074999998,
            "velocity": 0.3937007874015748
          },
          {
            "duration": 0.5056177499999848,
            "durationTicks": 288,
            "midi": 94,
            "name": "A#6",
            "ticks": 72864,
            "time": 127.92129074999998,
            "velocity": 0.3937007874015748
          },
          {
            "duration": 0.33707850000001827,
            "durationTicks": 192,
            "midi": 91,
            "name": "G6",
            "ticks": 73152,
            "time": 128.42690849999997,
            "velocity": 0.3937007874015748
          },
          {
            "duration": 0.33707850000001827,
            "durationTicks": 192,
            "midi": 79,
            "name": "G5",
            "ticks": 73152,
            "time": 128.42690849999997,
            "velocity": 0.3937007874015748
          },
          {
            "duration": 0.33707849999998984,
            "durationTicks": 192,
            "midi": 79,
            "name": "G5",
            "ticks": 73344,
            "time": 128.763987,
            "velocity": 0.3937007874015748
          },
          {
            "duration": 0.33707849999998984,
            "durationTicks": 192,
            "midi": 91,
            "name": "G6",
            "ticks": 73344,
            "time": 128.763987,
            "velocity": 0.3937007874015748
          },
          {
            "duration": 0.33707849999998984,
            "durationTicks": 192,
            "midi": 92,
            "name": "G#6",
            "ticks": 73536,
            "time": 129.10106549999998,
            "velocity": 0.3937007874015748
          },
          {
            "duration": 0.33707849999998984,
            "durationTicks": 192,
            "midi": 80,
            "name": "G#5",
            "ticks": 73536,
            "time": 129.10106549999998,
            "velocity": 0.3937007874015748
          },
          {
            "duration": 0.6741570000000081,
            "durationTicks": 384,
            "midi": 77,
            "name": "F5",
            "ticks": 73728,
            "time": 129.43814399999997,
            "velocity": 0.3937007874015748
          },
          {
            "duration": 0.6741570000000081,
            "durationTicks": 384,
            "midi": 89,
            "name": "F6",
            "ticks": 73728,
            "time": 129.43814399999997,
            "velocity": 0.3937007874015748
          },
          {
            "duration": 1.8539317500000152,
            "durationTicks": 1056,
            "midi": 87,
            "name": "D#6",
            "ticks": 74112,
            "time": 130.11230099999997,
            "velocity": 0.3937007874015748
          },
          {
            "duration": 1.8539317500000152,
            "durationTicks": 1056,
            "midi": 75,
            "name": "D#5",
            "ticks": 74112,
            "time": 130.11230099999997,
            "velocity": 0.3937007874015748
          },
          {
            "duration": 0.1685392499999807,
            "durationTicks": 96,
            "midi": 84,
            "name": "C6",
            "ticks": 75168,
            "time": 131.96623275,
            "velocity": 0.3937007874015748
          },
          {
            "duration": 0.1685392499999807,
            "durationTicks": 96,
            "midi": 72,
            "name": "C5",
            "ticks": 75168,
            "time": 131.96623275,
            "velocity": 0.3937007874015748
          },
          {
            "duration": 0.33707850000001827,
            "durationTicks": 192,
            "midi": 87,
            "name": "D#6",
            "ticks": 75264,
            "time": 132.13477199999997,
            "velocity": 0.3937007874015748
          },
          {
            "duration": 0.33707850000001827,
            "durationTicks": 192,
            "midi": 75,
            "name": "D#5",
            "ticks": 75264,
            "time": 132.13477199999997,
            "velocity": 0.3937007874015748
          },
          {
            "duration": 0.33707849999998984,
            "durationTicks": 192,
            "midi": 75,
            "name": "D#5",
            "ticks": 75456,
            "time": 132.4718505,
            "velocity": 0.3937007874015748
          },
          {
            "duration": 0.33707849999998984,
            "durationTicks": 192,
            "midi": 87,
            "name": "D#6",
            "ticks": 75456,
            "time": 132.4718505,
            "velocity": 0.3937007874015748
          },
          {
            "duration": 0.16853925000000913,
            "durationTicks": 96,
            "midi": 75,
            "name": "D#5",
            "ticks": 75648,
            "time": 132.80892899999998,
            "velocity": 0.3937007874015748
          },
          {
            "duration": 0.16853925000000913,
            "durationTicks": 96,
            "midi": 87,
            "name": "D#6",
            "ticks": 75648,
            "time": 132.80892899999998,
            "velocity": 0.3937007874015748
          },
          {
            "duration": 0.33707849999998984,
            "durationTicks": 192,
            "midi": 77,
            "name": "F5",
            "ticks": 75744,
            "time": 132.97746825,
            "velocity": 0.3937007874015748
          },
          {
            "duration": 0.33707849999998984,
            "durationTicks": 192,
            "midi": 89,
            "name": "F6",
            "ticks": 75744,
            "time": 132.97746825,
            "velocity": 0.3937007874015748
          },
          {
            "duration": 0.505617749999999,
            "durationTicks": 288,
            "midi": 86,
            "name": "D6",
            "ticks": 75936,
            "time": 133.31454674999998,
            "velocity": 0.3937007874015748
          },
          {
            "duration": 0.505617749999999,
            "durationTicks": 288,
            "midi": 74,
            "name": "D5",
            "ticks": 75936,
            "time": 133.31454674999998,
            "velocity": 0.3937007874015748
          },
          {
            "duration": 0.33707849999998984,
            "durationTicks": 192,
            "midi": 79,
            "name": "G5",
            "ticks": 76224,
            "time": 133.82016449999998,
            "velocity": 0.3937007874015748
          },
          {
            "duration": 0.33707849999998984,
            "durationTicks": 192,
            "midi": 91,
            "name": "G6",
            "ticks": 76224,
            "time": 133.82016449999998,
            "velocity": 0.3937007874015748
          },
          {
            "duration": 0.33707850000001827,
            "durationTicks": 192,
            "midi": 79,
            "name": "G5",
            "ticks": 76416,
            "time": 134.15724299999997,
            "velocity": 0.3937007874015748
          },
          {
            "duration": 0.33707850000001827,
            "durationTicks": 192,
            "midi": 91,
            "name": "G6",
            "ticks": 76416,
            "time": 134.15724299999997,
            "velocity": 0.3937007874015748
          },
          {
            "duration": 0.33707849999998984,
            "durationTicks": 192,
            "midi": 92,
            "name": "G#6",
            "ticks": 76608,
            "time": 134.49432149999998,
            "velocity": 0.3937007874015748
          },
          {
            "duration": 0.33707849999998984,
            "durationTicks": 192,
            "midi": 80,
            "name": "G#5",
            "ticks": 76608,
            "time": 134.49432149999998,
            "velocity": 0.3937007874015748
          },
          {
            "duration": 3.539324249999993,
            "durationTicks": 2016,
            "midi": 91,
            "name": "G6",
            "ticks": 76800,
            "time": 134.83139999999997,
            "velocity": 0.3937007874015748
          },
          {
            "duration": 3.539324249999993,
            "durationTicks": 2016,
            "midi": 79,
            "name": "G5",
            "ticks": 76800,
            "time": 134.83139999999997,
            "velocity": 0.3937007874015748
          },
          {
            "duration": 0.16853925000000913,
            "durationTicks": 96,
            "midi": 75,
            "name": "D#5",
            "ticks": 78816,
            "time": 138.37072424999997,
            "velocity": 0.3937007874015748
          },
          {
            "duration": 0.16853925000000913,
            "durationTicks": 96,
            "midi": 87,
            "name": "D#6",
            "ticks": 78816,
            "time": 138.37072424999997,
            "velocity": 0.3937007874015748
          },
          {
            "duration": 0.16853925000000913,
            "durationTicks": 96,
            "midi": 77,
            "name": "F5",
            "ticks": 78912,
            "time": 138.53926349999998,
            "velocity": 0.3937007874015748
          },
          {
            "duration": 0.16853925000000913,
            "durationTicks": 96,
            "midi": 89,
            "name": "F6",
            "ticks": 78912,
            "time": 138.53926349999998,
            "velocity": 0.3937007874015748
          },
          {
            "duration": 1.3483139999999878,
            "durationTicks": 768,
            "midi": 91,
            "name": "G6",
            "ticks": 79008,
            "time": 138.70780274999998,
            "velocity": 0.3937007874015748
          },
          {
            "duration": 1.3483139999999878,
            "durationTicks": 768,
            "midi": 79,
            "name": "G5",
            "ticks": 79008,
            "time": 138.70780274999998,
            "velocity": 0.3937007874015748
          },
          {
            "duration": 0.33707850000001827,
            "durationTicks": 192,
            "midi": 80,
            "name": "G#5",
            "ticks": 79776,
            "time": 140.05611674999997,
            "velocity": 0.3937007874015748
          },
          {
            "duration": 0.33707850000001827,
            "durationTicks": 192,
            "midi": 92,
            "name": "G#6",
            "ticks": 79776,
            "time": 140.05611674999997,
            "velocity": 0.3937007874015748
          },
          {
            "duration": 0.1685392499999807,
            "durationTicks": 96,
            "midi": 79,
            "name": "G5",
            "ticks": 79968,
            "time": 140.39319525,
            "velocity": 0.3937007874015748
          },
          {
            "duration": 0.1685392499999807,
            "durationTicks": 96,
            "midi": 91,
            "name": "G6",
            "ticks": 79968,
            "time": 140.39319525,
            "velocity": 0.3937007874015748
          },
          {
            "duration": 0.6741570000000081,
            "durationTicks": 384,
            "midi": 87,
            "name": "D#6",
            "ticks": 80064,
            "time": 140.56173449999997,
            "velocity": 0.3937007874015748
          },
          {
            "duration": 0.6741570000000081,
            "durationTicks": 384,
            "midi": 75,
            "name": "D#5",
            "ticks": 80064,
            "time": 140.56173449999997,
            "velocity": 0.3937007874015748
          },
          {
            "duration": 0.16853925000000913,
            "durationTicks": 96,
            "midi": 84,
            "name": "C6",
            "ticks": 80448,
            "time": 141.23589149999998,
            "velocity": 0.3937007874015748
          },
          {
            "duration": 0.16853925000000913,
            "durationTicks": 96,
            "midi": 72,
            "name": "C5",
            "ticks": 80448,
            "time": 141.23589149999998,
            "velocity": 0.3937007874015748
          },
          {
            "duration": 0.33707849999998984,
            "durationTicks": 192,
            "midi": 70,
            "name": "A#4",
            "ticks": 80544,
            "time": 141.40443075,
            "velocity": 0.3937007874015748
          },
          {
            "duration": 0.33707849999998984,
            "durationTicks": 192,
            "midi": 82,
            "name": "A#5",
            "ticks": 80544,
            "time": 141.40443075,
            "velocity": 0.3937007874015748
          },
          {
            "duration": 0.16853925000000913,
            "durationTicks": 96,
            "midi": 87,
            "name": "D#6",
            "ticks": 80736,
            "time": 141.74150924999998,
            "velocity": 0.3937007874015748
          },
          {
            "duration": 0.16853925000000913,
            "durationTicks": 96,
            "midi": 75,
            "name": "D#5",
            "ticks": 80736,
            "time": 141.74150924999998,
            "velocity": 0.3937007874015748
          },
          {
            "duration": 0.33707849999998984,
            "durationTicks": 192,
            "midi": 72,
            "name": "C5",
            "ticks": 80832,
            "time": 141.9100485,
            "velocity": 0.3937007874015748
          },
          {
            "duration": 0.33707849999998984,
            "durationTicks": 192,
            "midi": 84,
            "name": "C6",
            "ticks": 80832,
            "time": 141.9100485,
            "velocity": 0.3937007874015748
          },
          {
            "duration": 0.16853925000000913,
            "durationTicks": 96,
            "midi": 82,
            "name": "A#5",
            "ticks": 81024,
            "time": 142.24712699999998,
            "velocity": 0.3937007874015748
          },
          {
            "duration": 0.16853925000000913,
            "durationTicks": 96,
            "midi": 70,
            "name": "A#4",
            "ticks": 81024,
            "time": 142.24712699999998,
            "velocity": 0.3937007874015748
          },
          {
            "duration": 0.505617749999999,
            "durationTicks": 288,
            "midi": 67,
            "name": "G4",
            "ticks": 81120,
            "time": 142.41566625,
            "velocity": 0.3937007874015748
          },
          {
            "duration": 0.505617749999999,
            "durationTicks": 288,
            "midi": 79,
            "name": "G5",
            "ticks": 81120,
            "time": 142.41566625,
            "velocity": 0.3937007874015748
          },
          {
            "duration": 0.33707849999998984,
            "durationTicks": 192,
            "midi": 77,
            "name": "F5",
            "ticks": 81408,
            "time": 142.92128399999999,
            "velocity": 0.3937007874015748
          },
          {
            "duration": 0.16853925000000913,
            "durationTicks": 96,
            "midi": 87,
            "name": "D#6",
            "ticks": 81600,
            "time": 143.25836249999998,
            "velocity": 0.3937007874015748
          },
          {
            "duration": 0.16853925000000913,
            "durationTicks": 96,
            "midi": 75,
            "name": "D#5",
            "ticks": 81600,
            "time": 143.25836249999998,
            "velocity": 0.3937007874015748
          },
          {
            "duration": 0.33707849999998984,
            "durationTicks": 192,
            "midi": 84,
            "name": "C6",
            "ticks": 81696,
            "time": 143.42690174999998,
            "velocity": 0.3937007874015748
          },
          {
            "duration": 0.33707849999998984,
            "durationTicks": 192,
            "midi": 72,
            "name": "C5",
            "ticks": 81696,
            "time": 143.42690174999998,
            "velocity": 0.3937007874015748
          },
          {
            "duration": 0.16853925000000913,
            "durationTicks": 96,
            "midi": 70,
            "name": "A#4",
            "ticks": 81888,
            "time": 143.76398024999997,
            "velocity": 0.3937007874015748
          },
          {
            "duration": 0.16853925000000913,
            "durationTicks": 96,
            "midi": 82,
            "name": "A#5",
            "ticks": 81888,
            "time": 143.76398024999997,
            "velocity": 0.3937007874015748
          },
          {
            "duration": 0.33707849999998984,
            "durationTicks": 192,
            "midi": 79,
            "name": "G5",
            "ticks": 81984,
            "time": 143.93251949999998,
            "velocity": 0.3937007874015748
          },
          {
            "duration": 0.33707849999998984,
            "durationTicks": 192,
            "midi": 67,
            "name": "G4",
            "ticks": 81984,
            "time": 143.93251949999998,
            "velocity": 0.3937007874015748
          },
          {
            "duration": 0.16853925000000913,
            "durationTicks": 96,
            "midi": 75,
            "name": "D#5",
            "ticks": 82176,
            "time": 144.26959799999997,
            "velocity": 0.3937007874015748
          },
          {
            "duration": 0.16853925000000913,
            "durationTicks": 96,
            "midi": 87,
            "name": "D#6",
            "ticks": 82176,
            "time": 144.26959799999997,
            "velocity": 0.3937007874015748
          },
          {
            "duration": 0.33707849999998984,
            "durationTicks": 192,
            "midi": 72,
            "name": "C5",
            "ticks": 82272,
            "time": 144.43813724999998,
            "velocity": 0.3937007874015748
          },
          {
            "duration": 0.33707849999998984,
            "durationTicks": 192,
            "midi": 84,
            "name": "C6",
            "ticks": 82272,
            "time": 144.43813724999998,
            "velocity": 0.3937007874015748
          },
          {
            "duration": 0.16853925000000913,
            "durationTicks": 96,
            "midi": 86,
            "name": "D6",
            "ticks": 82464,
            "time": 144.77521574999997,
            "velocity": 0.3937007874015748
          },
          {
            "duration": 0.16853925000000913,
            "durationTicks": 96,
            "midi": 74,
            "name": "D5",
            "ticks": 82464,
            "time": 144.77521574999997,
            "velocity": 0.3937007874015748
          },
          {
            "duration": 0.33707849999998984,
            "durationTicks": 192,
            "midi": 79,
            "name": "G5",
            "ticks": 82560,
            "time": 144.94375499999998,
            "velocity": 0.3937007874015748
          },
          {
            "duration": 0.33707849999998984,
            "durationTicks": 192,
            "midi": 91,
            "name": "G6",
            "ticks": 82560,
            "time": 144.94375499999998,
            "velocity": 0.3937007874015748
          },
          {
            "duration": 0.33707850000001827,
            "durationTicks": 192,
            "midi": 89,
            "name": "F6",
            "ticks": 82752,
            "time": 145.28083349999997,
            "velocity": 0.3937007874015748
          },
          {
            "duration": 0.33707850000001827,
            "durationTicks": 192,
            "midi": 77,
            "name": "F5",
            "ticks": 82752,
            "time": 145.28083349999997,
            "velocity": 0.3937007874015748
          },
          {
            "duration": 1.3483139999999878,
            "durationTicks": 768,
            "midi": 91,
            "name": "G6",
            "ticks": 82944,
            "time": 145.617912,
            "velocity": 0.3937007874015748
          },
          {
            "duration": 1.3483139999999878,
            "durationTicks": 768,
            "midi": 79,
            "name": "G5",
            "ticks": 82944,
            "time": 145.617912,
            "velocity": 0.3937007874015748
          },
          {
            "duration": 1.3483139999999878,
            "durationTicks": 768,
            "midi": 82,
            "name": "A#5",
            "ticks": 83712,
            "time": 146.96622599999998,
            "velocity": 0.3937007874015748
          },
          {
            "duration": 1.3483139999999878,
            "durationTicks": 768,
            "midi": 94,
            "name": "A#6",
            "ticks": 83712,
            "time": 146.96622599999998,
            "velocity": 0.3937007874015748
          },
          {
            "duration": 0.8426962500000172,
            "durationTicks": 480,
            "midi": 75,
            "name": "D#5",
            "ticks": 84480,
            "time": 148.31453999999997,
            "velocity": 0.3937007874015748
          },
          {
            "duration": 0.8426962500000172,
            "durationTicks": 480,
            "midi": 87,
            "name": "D#6",
            "ticks": 84480,
            "time": 148.31453999999997,
            "velocity": 0.3937007874015748
          },
          {
            "duration": 0.1685392499999807,
            "durationTicks": 96,
            "midi": 82,
            "name": "A#5",
            "ticks": 84960,
            "time": 149.15723624999998,
            "velocity": 0.3937007874015748
          },
          {
            "duration": 0.16853925000000913,
            "durationTicks": 96,
            "midi": 84,
            "name": "C6",
            "ticks": 85056,
            "time": 149.32577549999996,
            "velocity": 0.3937007874015748
          },
          {
            "duration": 0.16853925000000913,
            "durationTicks": 96,
            "midi": 84,
            "name": "C6",
            "ticks": 85056,
            "time": 149.32577549999996,
            "velocity": 0.3937007874015748
          },
          {
            "duration": 0.505617749999999,
            "durationTicks": 288,
            "midi": 82,
            "name": "A#5",
            "ticks": 85152,
            "time": 149.49431474999997,
            "velocity": 0.3937007874015748
          },
          {
            "duration": 0.505617749999999,
            "durationTicks": 288,
            "midi": 94,
            "name": "A#6",
            "ticks": 85152,
            "time": 149.49431474999997,
            "velocity": 0.3937007874015748
          },
          {
            "duration": 0.33707850000001827,
            "durationTicks": 192,
            "midi": 91,
            "name": "G6",
            "ticks": 85440,
            "time": 149.99993249999997,
            "velocity": 0.3937007874015748
          },
          {
            "duration": 0.33707850000001827,
            "durationTicks": 192,
            "midi": 79,
            "name": "G5",
            "ticks": 85440,
            "time": 149.99993249999997,
            "velocity": 0.3937007874015748
          },
          {
            "duration": 0.33707849999998984,
            "durationTicks": 192,
            "midi": 79,
            "name": "G5",
            "ticks": 85632,
            "time": 150.337011,
            "velocity": 0.3937007874015748
          },
          {
            "duration": 0.33707849999998984,
            "durationTicks": 192,
            "midi": 91,
            "name": "G6",
            "ticks": 85632,
            "time": 150.337011,
            "velocity": 0.3937007874015748
          },
          {
            "duration": 0.33707849999998984,
            "durationTicks": 192,
            "midi": 80,
            "name": "G#5",
            "ticks": 85824,
            "time": 150.67408949999998,
            "velocity": 0.3937007874015748
          },
          {
            "duration": 0.33707849999998984,
            "durationTicks": 192,
            "midi": 92,
            "name": "G#6",
            "ticks": 85824,
            "time": 150.67408949999998,
            "velocity": 0.3937007874015748
          },
          {
            "duration": 0.6741570000000081,
            "durationTicks": 384,
            "midi": 89,
            "name": "F6",
            "ticks": 86016,
            "time": 151.01116799999997,
            "velocity": 0.3937007874015748
          },
          {
            "duration": 0.6741570000000081,
            "durationTicks": 384,
            "midi": 77,
            "name": "F5",
            "ticks": 86016,
            "time": 151.01116799999997,
            "velocity": 0.3937007874015748
          },
          {
            "duration": 1.8539317499999868,
            "durationTicks": 1056,
            "midi": 75,
            "name": "D#5",
            "ticks": 86400,
            "time": 151.68532499999998,
            "velocity": 0.3937007874015748
          },
          {
            "duration": 1.8539317499999868,
            "durationTicks": 1056,
            "midi": 87,
            "name": "D#6",
            "ticks": 86400,
            "time": 151.68532499999998,
            "velocity": 0.3937007874015748
          },
          {
            "duration": 0.16853925000000913,
            "durationTicks": 96,
            "midi": 84,
            "name": "C6",
            "ticks": 87456,
            "time": 153.53925674999996,
            "velocity": 0.3937007874015748
          },
          {
            "duration": 0.16853925000000913,
            "durationTicks": 96,
            "midi": 72,
            "name": "C5",
            "ticks": 87456,
            "time": 153.53925674999996,
            "velocity": 0.3937007874015748
          },
          {
            "duration": 0.33707849999998984,
            "durationTicks": 192,
            "midi": 87,
            "name": "D#6",
            "ticks": 87552,
            "time": 153.70779599999997,
            "velocity": 0.3937007874015748
          },
          {
            "duration": 0.33707849999998984,
            "durationTicks": 192,
            "midi": 75,
            "name": "D#5",
            "ticks": 87552,
            "time": 153.70779599999997,
            "velocity": 0.3937007874015748
          },
          {
            "duration": 0.33707850000001827,
            "durationTicks": 192,
            "midi": 87,
            "name": "D#6",
            "ticks": 87744,
            "time": 154.04487449999996,
            "velocity": 0.3937007874015748
          },
          {
            "duration": 0.33707850000001827,
            "durationTicks": 192,
            "midi": 75,
            "name": "D#5",
            "ticks": 87744,
            "time": 154.04487449999996,
            "velocity": 0.3937007874015748
          },
          {
            "duration": 0.1685392499999807,
            "durationTicks": 96,
            "midi": 75,
            "name": "D#5",
            "ticks": 87936,
            "time": 154.38195299999998,
            "velocity": 0.3937007874015748
          },
          {
            "duration": 0.1685392499999807,
            "durationTicks": 96,
            "midi": 87,
            "name": "D#6",
            "ticks": 87936,
            "time": 154.38195299999998,
            "velocity": 0.3937007874015748
          },
          {
            "duration": 0.33707850000001827,
            "durationTicks": 192,
            "midi": 77,
            "name": "F5",
            "ticks": 88032,
            "time": 154.55049224999996,
            "velocity": 0.3937007874015748
          },
          {
            "duration": 0.33707850000001827,
            "durationTicks": 192,
            "midi": 89,
            "name": "F6",
            "ticks": 88032,
            "time": 154.55049224999996,
            "velocity": 0.3937007874015748
          },
          {
            "duration": 0.505617749999999,
            "durationTicks": 288,
            "midi": 74,
            "name": "D5",
            "ticks": 88224,
            "time": 154.88757074999998,
            "velocity": 0.3937007874015748
          },
          {
            "duration": 0.505617749999999,
            "durationTicks": 288,
            "midi": 86,
            "name": "D6",
            "ticks": 88224,
            "time": 154.88757074999998,
            "velocity": 0.3937007874015748
          },
          {
            "duration": 0.33707849999998984,
            "durationTicks": 192,
            "midi": 79,
            "name": "G5",
            "ticks": 88512,
            "time": 155.39318849999998,
            "velocity": 0.3937007874015748
          },
          {
            "duration": 0.33707849999998984,
            "durationTicks": 192,
            "midi": 91,
            "name": "G6",
            "ticks": 88512,
            "time": 155.39318849999998,
            "velocity": 0.3937007874015748
          },
          {
            "duration": 0.33707850000001827,
            "durationTicks": 192,
            "midi": 79,
            "name": "G5",
            "ticks": 88704,
            "time": 155.73026699999997,
            "velocity": 0.3937007874015748
          },
          {
            "duration": 0.33707850000001827,
            "durationTicks": 192,
            "midi": 91,
            "name": "G6",
            "ticks": 88704,
            "time": 155.73026699999997,
            "velocity": 0.3937007874015748
          },
          {
            "duration": 0.33707849999998984,
            "durationTicks": 192,
            "midi": 80,
            "name": "G#5",
            "ticks": 88896,
            "time": 156.0673455,
            "velocity": 0.3937007874015748
          },
          {
            "duration": 0.33707849999998984,
            "durationTicks": 192,
            "midi": 92,
            "name": "G#6",
            "ticks": 88896,
            "time": 156.0673455,
            "velocity": 0.3937007874015748
          }
        ],
        "endOfTrackTicks": 89088
      },
      {
        "channel": 3,
        "controlChanges": {},
        "pitchBends": [],
        "instrument": {
          "family": "brass",
          "number": 57,
          "name": "trombone"
        },
        "name": "Trombone",
        "notes": [
          {
            "duration": 0.33707849999999995,
            "durationTicks": 192,
            "midi": 36,
            "name": "C2",
            "ticks": 0,
            "time": 0,
            "velocity": 0.3937007874015748
          },
          {
            "duration": 0.16853924999999992,
            "durationTicks": 96,
            "midi": 48,
            "name": "C3",
            "ticks": 192,
            "time": 0.33707849999999995,
            "velocity": 0.3937007874015748
          },
          {
            "duration": 0.33707849999999995,
            "durationTicks": 192,
            "midi": 36,
            "name": "C2",
            "ticks": 192,
            "time": 0.33707849999999995,
            "velocity": 0.3937007874015748
          },
          {
            "duration": 0.16853925000000003,
            "durationTicks": 96,
            "midi": 48,
            "name": "C3",
            "ticks": 288,
            "time": 0.5056177499999999,
            "velocity": 0.3937007874015748
          },
          {
            "duration": 0.33707849999999984,
            "durationTicks": 192,
            "midi": 36,
            "name": "C2",
            "ticks": 384,
            "time": 0.6741569999999999,
            "velocity": 0.3937007874015748
          },
          {
            "duration": 0.33707850000000006,
            "durationTicks": 192,
            "midi": 48,
            "name": "C3",
            "ticks": 576,
            "time": 1.0112354999999997,
            "velocity": 0.3937007874015748
          },
          {
            "duration": 0.33707850000000006,
            "durationTicks": 192,
            "midi": 36,
            "name": "C2",
            "ticks": 576,
            "time": 1.0112354999999997,
            "velocity": 0.3937007874015748
          },
          {
            "duration": 0.33707850000000006,
            "durationTicks": 192,
            "midi": 36,
            "name": "C2",
            "ticks": 768,
            "time": 1.3483139999999998,
            "velocity": 0.3937007874015748
          },
          {
            "duration": 0.1685392499999998,
            "durationTicks": 96,
            "midi": 48,
            "name": "C3",
            "ticks": 960,
            "time": 1.6853924999999998,
            "velocity": 0.3937007874015748
          },
          {
            "duration": 0.3370784999999996,
            "durationTicks": 192,
            "midi": 36,
            "name": "C2",
            "ticks": 960,
            "time": 1.6853924999999998,
            "velocity": 0.3937007874015748
          },
          {
            "duration": 0.1685392499999998,
            "durationTicks": 96,
            "midi": 48,
            "name": "C3",
            "ticks": 1056,
            "time": 1.8539317499999997,
            "velocity": 0.3937007874015748
          },
          {
            "duration": 0.33707850000000006,
            "durationTicks": 192,
            "midi": 36,
            "name": "C2",
            "ticks": 1152,
            "time": 2.0224709999999995,
            "velocity": 0.3937007874015748
          },
          {
            "duration": 0.33707850000000006,
            "durationTicks": 192,
            "midi": 48,
            "name": "C3",
            "ticks": 1344,
            "time": 2.3595494999999995,
            "velocity": 0.3937007874015748
          },
          {
            "duration": 0.33707850000000006,
            "durationTicks": 192,
            "midi": 36,
            "name": "C2",
            "ticks": 1344,
            "time": 2.3595494999999995,
            "velocity": 0.3937007874015748
          },
          {
            "duration": 0.33707850000000006,
            "durationTicks": 192,
            "midi": 36,
            "name": "C2",
            "ticks": 1536,
            "time": 2.6966279999999996,
            "velocity": 0.3937007874015748
          },
          {
            "duration": 0.1685392499999998,
            "durationTicks": 96,
            "midi": 48,
            "name": "C3",
            "ticks": 1728,
            "time": 3.0337064999999996,
            "velocity": 0.3937007874015748
          },
          {
            "duration": 0.33707850000000006,
            "durationTicks": 192,
            "midi": 36,
            "name": "C2",
            "ticks": 1728,
            "time": 3.0337064999999996,
            "velocity": 0.3937007874015748
          },
          {
            "duration": 0.16853925000000025,
            "durationTicks": 96,
            "midi": 48,
            "name": "C3",
            "ticks": 1824,
            "time": 3.2022457499999994,
            "velocity": 0.3937007874015748
          },
          {
            "duration": 0.3370784999999996,
            "durationTicks": 192,
            "midi": 36,
            "name": "C2",
            "ticks": 1920,
            "time": 3.3707849999999997,
            "velocity": 0.3937007874015748
          },
          {
            "duration": 0.3370784999999996,
            "durationTicks": 192,
            "midi": 36,
            "name": "C2",
            "ticks": 2112,
            "time": 3.7078634999999993,
            "velocity": 0.3937007874015748
          },
          {
            "duration": 0.3370784999999996,
            "durationTicks": 192,
            "midi": 48,
            "name": "C3",
            "ticks": 2112,
            "time": 3.7078634999999993,
            "velocity": 0.3937007874015748
          },
          {
            "duration": 0.16853925000000025,
            "durationTicks": 96,
            "midi": 36,
            "name": "C2",
            "ticks": 2304,
            "time": 4.044941999999999,
            "velocity": 0.3937007874015748
          },
          {
            "duration": 0.16853925000000025,
            "durationTicks": 96,
            "midi": 36,
            "name": "C2",
            "ticks": 2400,
            "time": 4.213481249999999,
            "velocity": 0.3937007874015748
          },
          {
            "duration": 0.16853925000000025,
            "durationTicks": 96,
            "midi": 36,
            "name": "C2",
            "ticks": 2496,
            "time": 4.382020499999999,
            "velocity": 0.3937007874015748
          },
          {
            "duration": 0.16853924999999936,
            "durationTicks": 96,
            "midi": 36,
            "name": "C2",
            "ticks": 2592,
            "time": 4.55055975,
            "velocity": 0.3937007874015748
          },
          {
            "duration": 0.3370785000000005,
            "durationTicks": 192,
            "midi": 36,
            "name": "C2",
            "ticks": 2688,
            "time": 4.719098999999999,
            "velocity": 0.3937007874015748
          },
          {
            "duration": 0.3370784999999996,
            "durationTicks": 192,
            "midi": 36,
            "name": "C2",
            "ticks": 2880,
            "time": 5.0561774999999995,
            "velocity": 0.3937007874015748
          },
          {
            "duration": 0.3370784999999996,
            "durationTicks": 192,
            "midi": 36,
            "name": "C2",
            "ticks": 3072,
            "time": 5.393255999999999,
            "velocity": 0.3937007874015748
          },
          {
            "duration": 0.3370785000000005,
            "durationTicks": 192,
            "midi": 43,
            "name": "G2",
            "ticks": 3264,
            "time": 5.730334499999999,
            "velocity": 0.3937007874015748
          },
          {
            "duration": 0.16853924999999936,
            "durationTicks": 96,
            "midi": 36,
            "name": "C2",
            "ticks": 3456,
            "time": 6.067412999999999,
            "velocity": 0.3937007874015748
          },
          {
            "duration": 0.16853925000000025,
            "durationTicks": 96,
            "midi": 36,
            "name": "C2",
            "ticks": 3552,
            "time": 6.235952249999999,
            "velocity": 0.3937007874015748
          },
          {
            "duration": 0.3370785000000005,
            "durationTicks": 192,
            "midi": 36,
            "name": "C2",
            "ticks": 3648,
            "time": 6.404491499999999,
            "velocity": 0.3937007874015748
          },
          {
            "duration": 0.3370784999999996,
            "durationTicks": 192,
            "midi": 36,
            "name": "C2",
            "ticks": 3840,
            "time": 6.741569999999999,
            "velocity": 0.3937007874015748
          },
          {
            "duration": 0.3370784999999996,
            "durationTicks": 192,
            "midi": 43,
            "name": "G2",
            "ticks": 4032,
            "time": 7.078648499999999,
            "velocity": 0.3937007874015748
          },
          {
            "duration": 0.3370785000000005,
            "durationTicks": 192,
            "midi": 39,
            "name": "D#2",
            "ticks": 4224,
            "time": 7.415726999999999,
            "velocity": 0.3937007874015748
          },
          {
            "duration": 0.3370784999999987,
            "durationTicks": 192,
            "midi": 43,
            "name": "G2",
            "ticks": 4416,
            "time": 7.752805499999999,
            "velocity": 0.3937007874015748
          },
          {
            "duration": 0.3370785000000005,
            "durationTicks": 192,
            "midi": 41,
            "name": "F2",
            "ticks": 4608,
            "time": 8.089883999999998,
            "velocity": 0.3937007874015748
          },
          {
            "duration": 0.3370785000000005,
            "durationTicks": 192,
            "midi": 48,
            "name": "C3",
            "ticks": 4800,
            "time": 8.426962499999998,
            "velocity": 0.3937007874015748
          },
          {
            "duration": 0.16853925000000025,
            "durationTicks": 96,
            "midi": 44,
            "name": "G#2",
            "ticks": 4992,
            "time": 8.764040999999999,
            "velocity": 0.3937007874015748
          },
          {
            "duration": 0.16853925000000025,
            "durationTicks": 96,
            "midi": 44,
            "name": "G#2",
            "ticks": 5088,
            "time": 8.932580249999999,
            "velocity": 0.3937007874015748
          },
          {
            "duration": 0.3370784999999987,
            "durationTicks": 192,
            "midi": 46,
            "name": "A#2",
            "ticks": 5184,
            "time": 9.1011195,
            "velocity": 0.3937007874015748
          },
          {
            "duration": 0.3370785000000005,
            "durationTicks": 192,
            "midi": 39,
            "name": "D#2",
            "ticks": 5376,
            "time": 9.438197999999998,
            "velocity": 0.3937007874015748
          },
          {
            "duration": 0.3370785000000005,
            "durationTicks": 192,
            "midi": 46,
            "name": "A#2",
            "ticks": 5568,
            "time": 9.775276499999999,
            "velocity": 0.3937007874015748
          },
          {
            "duration": 0.16853924999999848,
            "durationTicks": 96,
            "midi": 51,
            "name": "D#3",
            "ticks": 5760,
            "time": 10.112354999999999,
            "velocity": 0.3937007874015748
          },
          {
            "duration": 0.16853925000000025,
            "durationTicks": 96,
            "midi": 46,
            "name": "A#2",
            "ticks": 5856,
            "time": 10.280894249999998,
            "velocity": 0.3937007874015748
          },
          {
            "duration": 0.16853925000000025,
            "durationTicks": 96,
            "midi": 48,
            "name": "C3",
            "ticks": 5952,
            "time": 10.449433499999998,
            "velocity": 0.3937007874015748
          },
          {
            "duration": 0.16853925000000025,
            "durationTicks": 96,
            "midi": 43,
            "name": "G2",
            "ticks": 6048,
            "time": 10.617972749999998,
            "velocity": 0.3937007874015748
          },
          {
            "duration": 0.3370785000000005,
            "durationTicks": 192,
            "midi": 41,
            "name": "F2",
            "ticks": 6144,
            "time": 10.786511999999998,
            "velocity": 0.3937007874015748
          },
          {
            "duration": 0.3370784999999987,
            "durationTicks": 192,
            "midi": 48,
            "name": "C3",
            "ticks": 6336,
            "time": 11.123590499999999,
            "velocity": 0.3937007874015748
          },
          {
            "duration": 0.16853925000000025,
            "durationTicks": 96,
            "midi": 44,
            "name": "G#2",
            "ticks": 6528,
            "time": 11.460668999999998,
            "velocity": 0.3937007874015748
          },
          {
            "duration": 0.16853925000000025,
            "durationTicks": 96,
            "midi": 44,
            "name": "G#2",
            "ticks": 6624,
            "time": 11.629208249999998,
            "velocity": 0.3937007874015748
          },
          {
            "duration": 0.3370785000000005,
            "durationTicks": 192,
            "midi": 46,
            "name": "A#2",
            "ticks": 6720,
            "time": 11.797747499999998,
            "velocity": 0.3937007874015748
          },
          {
            "duration": 0.3370784999999987,
            "durationTicks": 192,
            "midi": 39,
            "name": "D#2",
            "ticks": 6912,
            "time": 12.134825999999999,
            "velocity": 0.3937007874015748
          },
          {
            "duration": 0.3370785000000005,
            "durationTicks": 192,
            "midi": 46,
            "name": "A#2",
            "ticks": 7104,
            "time": 12.471904499999997,
            "velocity": 0.3937007874015748
          },
          {
            "duration": 0.3370785000000005,
            "durationTicks": 192,
            "midi": 39,
            "name": "D#2",
            "ticks": 7296,
            "time": 12.808982999999998,
            "velocity": 0.3937007874015748
          },
          {
            "duration": 0.3370785000000005,
            "durationTicks": 192,
            "midi": 43,
            "name": "G2",
            "ticks": 7488,
            "time": 13.146061499999998,
            "velocity": 0.3937007874015748
          },
          {
            "duration": 0.3370784999999987,
            "durationTicks": 192,
            "midi": 38,
            "name": "D2",
            "ticks": 7680,
            "time": 13.483139999999999,
            "velocity": 0.3937007874015748
          },
          {
            "duration": 0.3370785000000005,
            "durationTicks": 192,
            "midi": 41,
            "name": "F2",
            "ticks": 7872,
            "time": 13.820218499999998,
            "velocity": 0.3937007874015748
          },
          {
            "duration": 0.3370785000000005,
            "durationTicks": 192,
            "midi": 38,
            "name": "D2",
            "ticks": 8064,
            "time": 14.157296999999998,
            "velocity": 0.3937007874015748
          },
          {
            "duration": 0.3370784999999987,
            "durationTicks": 192,
            "midi": 41,
            "name": "F2",
            "ticks": 8256,
            "time": 14.494375499999999,
            "velocity": 0.3937007874015748
          },
          {
            "duration": 0.3370785000000005,
            "durationTicks": 192,
            "midi": 43,
            "name": "G2",
            "ticks": 8448,
            "time": 14.831453999999997,
            "velocity": 0.3937007874015748
          },
          {
            "duration": 0.16853924999999848,
            "durationTicks": 96,
            "midi": 41,
            "name": "F2",
            "ticks": 8832,
            "time": 15.505610999999998,
            "velocity": 0.3937007874015748
          },
          {
            "duration": 0.16853925000000025,
            "durationTicks": 96,
            "midi": 39,
            "name": "D#2",
            "ticks": 8928,
            "time": 15.674150249999997,
            "velocity": 0.3937007874015748
          },
          {
            "duration": 0.3370784999999987,
            "durationTicks": 192,
            "midi": 38,
            "name": "D2",
            "ticks": 9024,
            "time": 15.842689499999997,
            "velocity": 0.3937007874015748
          },
          {
            "duration": 0.3370785000000005,
            "durationTicks": 192,
            "midi": 36,
            "name": "C2",
            "ticks": 9216,
            "time": 16.179767999999996,
            "velocity": 0.3937007874015748
          },
          {
            "duration": 0.3370785000000005,
            "durationTicks": 192,
            "midi": 43,
            "name": "G2",
            "ticks": 9408,
            "time": 16.516846499999996,
            "velocity": 0.3937007874015748
          },
          {
            "duration": 0.16853925000000203,
            "durationTicks": 96,
            "midi": 36,
            "name": "C2",
            "ticks": 9600,
            "time": 16.853924999999997,
            "velocity": 0.3937007874015748
          },
          {
            "duration": 0.16853924999999848,
            "durationTicks": 96,
            "midi": 36,
            "name": "C2",
            "ticks": 9696,
            "time": 17.02246425,
            "velocity": 0.3937007874015748
          },
          {
            "duration": 0.3370785000000005,
            "durationTicks": 192,
            "midi": 36,
            "name": "C2",
            "ticks": 9792,
            "time": 17.191003499999997,
            "velocity": 0.3937007874015748
          },
          {
            "duration": 0.3370785000000005,
            "durationTicks": 192,
            "midi": 36,
            "name": "C2",
            "ticks": 9984,
            "time": 17.528081999999998,
            "velocity": 0.3937007874015748
          },
          {
            "duration": 0.3370785000000005,
            "durationTicks": 192,
            "midi": 43,
            "name": "G2",
            "ticks": 10176,
            "time": 17.865160499999998,
            "velocity": 0.3937007874015748
          },
          {
            "duration": 0.33707849999999695,
            "durationTicks": 192,
            "midi": 39,
            "name": "D#2",
            "ticks": 10368,
            "time": 18.202239,
            "velocity": 0.3937007874015748
          },
          {
            "duration": 0.3370785000000005,
            "durationTicks": 192,
            "midi": 43,
            "name": "G2",
            "ticks": 10560,
            "time": 18.539317499999996,
            "velocity": 0.3937007874015748
          },
          {
            "duration": 0.3370785000000005,
            "durationTicks": 192,
            "midi": 41,
            "name": "F2",
            "ticks": 10752,
            "time": 18.876395999999996,
            "velocity": 0.3937007874015748
          },
          {
            "duration": 0.3370785000000005,
            "durationTicks": 192,
            "midi": 48,
            "name": "C3",
            "ticks": 10944,
            "time": 19.213474499999997,
            "velocity": 0.3937007874015748
          },
          {
            "duration": 0.16853924999999848,
            "durationTicks": 96,
            "midi": 44,
            "name": "G#2",
            "ticks": 11136,
            "time": 19.550552999999997,
            "velocity": 0.3937007874015748
          },
          {
            "duration": 0.16853925000000203,
            "durationTicks": 96,
            "midi": 44,
            "name": "G#2",
            "ticks": 11232,
            "time": 19.719092249999996,
            "velocity": 0.3937007874015748
          },
          {
            "duration": 0.3370785000000005,
            "durationTicks": 192,
            "midi": 46,
            "name": "A#2",
            "ticks": 11328,
            "time": 19.887631499999998,
            "velocity": 0.3937007874015748
          },
          {
            "duration": 0.33707849999999695,
            "durationTicks": 192,
            "midi": 39,
            "name": "D#2",
            "ticks": 11520,
            "time": 20.224709999999998,
            "velocity": 0.3937007874015748
          },
          {
            "duration": 0.3370785000000005,
            "durationTicks": 192,
            "midi": 46,
            "name": "A#2",
            "ticks": 11712,
            "time": 20.561788499999995,
            "velocity": 0.3937007874015748
          },
          {
            "duration": 0.16853925000000203,
            "durationTicks": 96,
            "midi": 51,
            "name": "D#3",
            "ticks": 11904,
            "time": 20.898866999999996,
            "velocity": 0.3937007874015748
          },
          {
            "duration": 0.16853924999999848,
            "durationTicks": 96,
            "midi": 46,
            "name": "A#2",
            "ticks": 12000,
            "time": 21.067406249999998,
            "velocity": 0.3937007874015748
          },
          {
            "duration": 0.16853925000000203,
            "durationTicks": 96,
            "midi": 48,
            "name": "C3",
            "ticks": 12096,
            "time": 21.235945499999996,
            "velocity": 0.3937007874015748
          },
          {
            "duration": 0.16853924999999848,
            "durationTicks": 96,
            "midi": 43,
            "name": "G2",
            "ticks": 12192,
            "time": 21.404484749999998,
            "velocity": 0.3937007874015748
          },
          {
            "duration": 0.3370785000000005,
            "durationTicks": 192,
            "midi": 41,
            "name": "F2",
            "ticks": 12288,
            "time": 21.573023999999997,
            "velocity": 0.3937007874015748
          },
          {
            "duration": 0.3370785000000005,
            "durationTicks": 192,
            "midi": 48,
            "name": "C3",
            "ticks": 12480,
            "time": 21.910102499999997,
            "velocity": 0.3937007874015748
          },
          {
            "duration": 0.16853924999999848,
            "durationTicks": 96,
            "midi": 44,
            "name": "G#2",
            "ticks": 12672,
            "time": 22.247180999999998,
            "velocity": 0.3937007874015748
          },
          {
            "duration": 0.16853925000000203,
            "durationTicks": 96,
            "midi": 44,
            "name": "G#2",
            "ticks": 12768,
            "time": 22.415720249999996,
            "velocity": 0.3937007874015748
          },
          {
            "duration": 0.33707849999999695,
            "durationTicks": 192,
            "midi": 46,
            "name": "A#2",
            "ticks": 12864,
            "time": 22.584259499999998,
            "velocity": 0.3937007874015748
          },
          {
            "duration": 0.3370785000000005,
            "durationTicks": 192,
            "midi": 39,
            "name": "D#2",
            "ticks": 13056,
            "time": 22.921337999999995,
            "velocity": 0.3937007874015748
          },
          {
            "duration": 0.3370785000000005,
            "durationTicks": 192,
            "midi": 46,
            "name": "A#2",
            "ticks": 13248,
            "time": 23.258416499999996,
            "velocity": 0.3937007874015748
          },
          {
            "duration": 0.3370785000000005,
            "durationTicks": 192,
            "midi": 39,
            "name": "D#2",
            "ticks": 13440,
            "time": 23.595494999999996,
            "velocity": 0.3937007874015748
          },
          {
            "duration": 0.3370785000000005,
            "durationTicks": 192,
            "midi": 43,
            "name": "G2",
            "ticks": 13632,
            "time": 23.932573499999997,
            "velocity": 0.3937007874015748
          },
          {
            "duration": 0.3370785000000005,
            "durationTicks": 192,
            "midi": 38,
            "name": "D2",
            "ticks": 13824,
            "time": 24.269651999999997,
            "velocity": 0.3937007874015748
          },
          {
            "duration": 0.33707849999999695,
            "durationTicks": 192,
            "midi": 41,
            "name": "F2",
            "ticks": 14016,
            "time": 24.606730499999998,
            "velocity": 0.3937007874015748
          },
          {
            "duration": 0.3370785000000005,
            "durationTicks": 192,
            "midi": 38,
            "name": "D2",
            "ticks": 14208,
            "time": 24.943808999999995,
            "velocity": 0.3937007874015748
          },
          {
            "duration": 0.3370785000000005,
            "durationTicks": 192,
            "midi": 41,
            "name": "F2",
            "ticks": 14400,
            "time": 25.280887499999995,
            "velocity": 0.3937007874015748
          },
          {
            "duration": 0.3370785000000005,
            "durationTicks": 192,
            "midi": 31,
            "name": "G1",
            "ticks": 14592,
            "time": 25.617965999999996,
            "velocity": 0.3937007874015748
          },
          {
            "duration": 0.3370785000000005,
            "durationTicks": 192,
            "midi": 43,
            "name": "G2",
            "ticks": 14592,
            "time": 25.617965999999996,
            "velocity": 0.3937007874015748
          },
          {
            "duration": 0.3370785000000005,
            "durationTicks": 192,
            "midi": 43,
            "name": "G2",
            "ticks": 14784,
            "time": 25.955044499999996,
            "velocity": 0.3937007874015748
          },
          {
            "duration": 0.3370785000000005,
            "durationTicks": 192,
            "midi": 31,
            "name": "G1",
            "ticks": 14784,
            "time": 25.955044499999996,
            "velocity": 0.3937007874015748
          },
          {
            "duration": 0.674157000000001,
            "durationTicks": 384,
            "midi": 31,
            "name": "G1",
            "ticks": 14976,
            "time": 26.292122999999997,
            "velocity": 0.3937007874015748
          },
          {
            "duration": 0.674157000000001,
            "durationTicks": 384,
            "midi": 43,
            "name": "G2",
            "ticks": 14976,
            "time": 26.292122999999997,
            "velocity": 0.3937007874015748
          },
          {
            "duration": 0.33707849999999695,
            "durationTicks": 192,
            "midi": 44,
            "name": "G#2",
            "ticks": 15360,
            "time": 26.966279999999998,
            "velocity": 0.3937007874015748
          },
          {
            "duration": 0.6741569999999975,
            "durationTicks": 384,
            "midi": 32,
            "name": "G#1",
            "ticks": 15360,
            "time": 26.966279999999998,
            "velocity": 0.3937007874015748
          },
          {
            "duration": 0.3370785000000005,
            "durationTicks": 192,
            "midi": 44,
            "name": "G#2",
            "ticks": 15552,
            "time": 27.303358499999995,
            "velocity": 0.3937007874015748
          },
          {
            "duration": 0.3370785000000005,
            "durationTicks": 192,
            "midi": 44,
            "name": "G#2",
            "ticks": 15744,
            "time": 27.640436999999995,
            "velocity": 0.3937007874015748
          },
          {
            "duration": 0.674157000000001,
            "durationTicks": 384,
            "midi": 32,
            "name": "G#1",
            "ticks": 15744,
            "time": 27.640436999999995,
            "velocity": 0.3937007874015748
          },
          {
            "duration": 0.3370785000000005,
            "durationTicks": 192,
            "midi": 44,
            "name": "G#2",
            "ticks": 15936,
            "time": 27.977515499999996,
            "velocity": 0.3937007874015748
          },
          {
            "duration": 0.3370785000000005,
            "durationTicks": 192,
            "midi": 39,
            "name": "D#2",
            "ticks": 16128,
            "time": 28.314593999999996,
            "velocity": 0.3937007874015748
          },
          {
            "duration": 0.674157000000001,
            "durationTicks": 384,
            "midi": 27,
            "name": "D#1",
            "ticks": 16128,
            "time": 28.314593999999996,
            "velocity": 0.3937007874015748
          },
          {
            "duration": 0.3370785000000005,
            "durationTicks": 192,
            "midi": 39,
            "name": "D#2",
            "ticks": 16320,
            "time": 28.651672499999997,
            "velocity": 0.3937007874015748
          },
          {
            "duration": 0.33707849999999695,
            "durationTicks": 192,
            "midi": 39,
            "name": "D#2",
            "ticks": 16512,
            "time": 28.988750999999997,
            "velocity": 0.3937007874015748
          },
          {
            "duration": 0.6741569999999975,
            "durationTicks": 384,
            "midi": 27,
            "name": "D#1",
            "ticks": 16512,
            "time": 28.988750999999997,
            "velocity": 0.3937007874015748
          },
          {
            "duration": 0.3370785000000005,
            "durationTicks": 192,
            "midi": 39,
            "name": "D#2",
            "ticks": 16704,
            "time": 29.325829499999994,
            "velocity": 0.3937007874015748
          },
          {
            "duration": 0.674157000000001,
            "durationTicks": 384,
            "midi": 31,
            "name": "G1",
            "ticks": 16896,
            "time": 29.662907999999995,
            "velocity": 0.3937007874015748
          },
          {
            "duration": 0.3370785000000005,
            "durationTicks": 192,
            "midi": 43,
            "name": "G2",
            "ticks": 16896,
            "time": 29.662907999999995,
            "velocity": 0.3937007874015748
          },
          {
            "duration": 0.3370785000000005,
            "durationTicks": 192,
            "midi": 43,
            "name": "G2",
            "ticks": 17088,
            "time": 29.999986499999995,
            "velocity": 0.3937007874015748
          },
          {
            "duration": 0.674157000000001,
            "durationTicks": 384,
            "midi": 31,
            "name": "G1",
            "ticks": 17280,
            "time": 30.337064999999996,
            "velocity": 0.3937007874015748
          },
          {
            "duration": 0.3370785000000005,
            "durationTicks": 192,
            "midi": 43,
            "name": "G2",
            "ticks": 17280,
            "time": 30.337064999999996,
            "velocity": 0.3937007874015748
          },
          {
            "duration": 0.3370785000000005,
            "durationTicks": 192,
            "midi": 43,
            "name": "G2",
            "ticks": 17472,
            "time": 30.674143499999996,
            "velocity": 0.3937007874015748
          },
          {
            "duration": 0.33707849999999695,
            "durationTicks": 192,
            "midi": 36,
            "name": "C2",
            "ticks": 17664,
            "time": 31.011221999999997,
            "velocity": 0.3937007874015748
          },
          {
            "duration": 0.6741569999999975,
            "durationTicks": 384,
            "midi": 24,
            "name": "C1",
            "ticks": 17664,
            "time": 31.011221999999997,
            "velocity": 0.3937007874015748
          },
          {
            "duration": 0.3370785000000005,
            "durationTicks": 192,
            "midi": 36,
            "name": "C2",
            "ticks": 17856,
            "time": 31.348300499999993,
            "velocity": 0.3937007874015748
          },
          {
            "duration": 0.6741569999999975,
            "durationTicks": 384,
            "midi": 27,
            "name": "D#1",
            "ticks": 18048,
            "time": 31.685378999999994,
            "velocity": 0.3937007874015748
          },
          {
            "duration": 0.3370785000000005,
            "durationTicks": 192,
            "midi": 39,
            "name": "D#2",
            "ticks": 18048,
            "time": 31.685378999999994,
            "velocity": 0.3937007874015748
          },
          {
            "duration": 0.33707849999999695,
            "durationTicks": 192,
            "midi": 39,
            "name": "D#2",
            "ticks": 18240,
            "time": 32.022457499999994,
            "velocity": 0.3937007874015748
          },
          {
            "duration": 0.33707850000000406,
            "durationTicks": 192,
            "midi": 44,
            "name": "G#2",
            "ticks": 18432,
            "time": 32.35953599999999,
            "velocity": 0.3937007874015748
          },
          {
            "duration": 0.674157000000001,
            "durationTicks": 384,
            "midi": 32,
            "name": "G#1",
            "ticks": 18432,
            "time": 32.35953599999999,
            "velocity": 0.3937007874015748
          },
          {
            "duration": 0.33707849999999695,
            "durationTicks": 192,
            "midi": 44,
            "name": "G#2",
            "ticks": 18624,
            "time": 32.696614499999995,
            "velocity": 0.3937007874015748
          },
          {
            "duration": 0.674157000000001,
            "durationTicks": 384,
            "midi": 32,
            "name": "G#1",
            "ticks": 18816,
            "time": 33.03369299999999,
            "velocity": 0.3937007874015748
          },
          {
            "duration": 0.33707850000000406,
            "durationTicks": 192,
            "midi": 44,
            "name": "G#2",
            "ticks": 18816,
            "time": 33.03369299999999,
            "velocity": 0.3937007874015748
          },
          {
            "duration": 0.33707849999999695,
            "durationTicks": 192,
            "midi": 44,
            "name": "G#2",
            "ticks": 19008,
            "time": 33.3707715,
            "velocity": 0.3937007874015748
          },
          {
            "duration": 0.33707850000000406,
            "durationTicks": 192,
            "midi": 39,
            "name": "D#2",
            "ticks": 19200,
            "time": 33.70784999999999,
            "velocity": 0.3937007874015748
          },
          {
            "duration": 0.674157000000001,
            "durationTicks": 384,
            "midi": 27,
            "name": "D#1",
            "ticks": 19200,
            "time": 33.70784999999999,
            "velocity": 0.3937007874015748
          },
          {
            "duration": 0.33707849999999695,
            "durationTicks": 192,
            "midi": 39,
            "name": "D#2",
            "ticks": 19392,
            "time": 34.0449285,
            "velocity": 0.3937007874015748
          },
          {
            "duration": 0.674157000000001,
            "durationTicks": 384,
            "midi": 27,
            "name": "D#1",
            "ticks": 19584,
            "time": 34.382006999999994,
            "velocity": 0.3937007874015748
          },
          {
            "duration": 0.33707849999999695,
            "durationTicks": 192,
            "midi": 39,
            "name": "D#2",
            "ticks": 19584,
            "time": 34.382006999999994,
            "velocity": 0.3937007874015748
          },
          {
            "duration": 0.33707850000000406,
            "durationTicks": 192,
            "midi": 39,
            "name": "D#2",
            "ticks": 19776,
            "time": 34.71908549999999,
            "velocity": 0.3937007874015748
          },
          {
            "duration": 0.33707849999999695,
            "durationTicks": 192,
            "midi": 43,
            "name": "G2",
            "ticks": 19968,
            "time": 35.056163999999995,
            "velocity": 0.3937007874015748
          },
          {
            "duration": 0.674157000000001,
            "durationTicks": 384,
            "midi": 31,
            "name": "G1",
            "ticks": 19968,
            "time": 35.056163999999995,
            "velocity": 0.3937007874015748
          },
          {
            "duration": 0.33707850000000406,
            "durationTicks": 192,
            "midi": 43,
            "name": "G2",
            "ticks": 20160,
            "time": 35.39324249999999,
            "velocity": 0.3937007874015748
          },
          {
            "duration": 0.33707849999999695,
            "durationTicks": 192,
            "midi": 43,
            "name": "G2",
            "ticks": 20352,
            "time": 35.730320999999996,
            "velocity": 0.3937007874015748
          },
          {
            "duration": 0.674157000000001,
            "durationTicks": 384,
            "midi": 31,
            "name": "G1",
            "ticks": 20352,
            "time": 35.730320999999996,
            "velocity": 0.3937007874015748
          },
          {
            "duration": 0.33707850000000406,
            "durationTicks": 192,
            "midi": 43,
            "name": "G2",
            "ticks": 20544,
            "time": 36.06739949999999,
            "velocity": 0.3937007874015748
          },
          {
            "duration": 0.33707849999999695,
            "durationTicks": 192,
            "midi": 36,
            "name": "C2",
            "ticks": 20736,
            "time": 36.404478,
            "velocity": 0.3937007874015748
          },
          {
            "duration": 0.6741569999999939,
            "durationTicks": 384,
            "midi": 24,
            "name": "C1",
            "ticks": 20736,
            "time": 36.404478,
            "velocity": 0.3937007874015748
          },
          {
            "duration": 0.33707849999999695,
            "durationTicks": 192,
            "midi": 36,
            "name": "C2",
            "ticks": 20928,
            "time": 36.741556499999994,
            "velocity": 0.3937007874015748
          },
          {
            "duration": 0.33707850000000406,
            "durationTicks": 192,
            "midi": 39,
            "name": "D#2",
            "ticks": 21120,
            "time": 37.07863499999999,
            "velocity": 0.3937007874015748
          },
          {
            "duration": 0.674157000000001,
            "durationTicks": 384,
            "midi": 27,
            "name": "D#1",
            "ticks": 21120,
            "time": 37.07863499999999,
            "velocity": 0.3937007874015748
          },
          {
            "duration": 0.33707849999999695,
            "durationTicks": 192,
            "midi": 39,
            "name": "D#2",
            "ticks": 21312,
            "time": 37.415713499999995,
            "velocity": 0.3937007874015748
          },
          {
            "duration": 0.33707850000000406,
            "durationTicks": 192,
            "midi": 44,
            "name": "G#2",
            "ticks": 21504,
            "time": 37.75279199999999,
            "velocity": 0.3937007874015748
          },
          {
            "duration": 0.674157000000001,
            "durationTicks": 384,
            "midi": 32,
            "name": "G#1",
            "ticks": 21504,
            "time": 37.75279199999999,
            "velocity": 0.3937007874015748
          },
          {
            "duration": 0.33707849999999695,
            "durationTicks": 192,
            "midi": 44,
            "name": "G#2",
            "ticks": 21696,
            "time": 38.089870499999996,
            "velocity": 0.3937007874015748
          },
          {
            "duration": 0.33707850000000406,
            "durationTicks": 192,
            "midi": 44,
            "name": "G#2",
            "ticks": 21888,
            "time": 38.42694899999999,
            "velocity": 0.3937007874015748
          },
          {
            "duration": 0.674157000000001,
            "durationTicks": 384,
            "midi": 32,
            "name": "G#1",
            "ticks": 21888,
            "time": 38.42694899999999,
            "velocity": 0.3937007874015748
          },
          {
            "duration": 0.33707849999999695,
            "durationTicks": 192,
            "midi": 44,
            "name": "G#2",
            "ticks": 22080,
            "time": 38.7640275,
            "velocity": 0.3937007874015748
          },
          {
            "duration": 0.33707849999999695,
            "durationTicks": 192,
            "midi": 39,
            "name": "D#2",
            "ticks": 22272,
            "time": 39.101105999999994,
            "velocity": 0.3937007874015748
          },
          {
            "duration": 0.674157000000001,
            "durationTicks": 384,
            "midi": 27,
            "name": "D#1",
            "ticks": 22272,
            "time": 39.101105999999994,
            "velocity": 0.3937007874015748
          },
          {
            "duration": 0.33707850000000406,
            "durationTicks": 192,
            "midi": 39,
            "name": "D#2",
            "ticks": 22464,
            "time": 39.43818449999999,
            "velocity": 0.3937007874015748
          },
          {
            "duration": 0.33707849999999695,
            "durationTicks": 192,
            "midi": 39,
            "name": "D#2",
            "ticks": 22656,
            "time": 39.775262999999995,
            "velocity": 0.3937007874015748
          },
          {
            "duration": 0.674157000000001,
            "durationTicks": 384,
            "midi": 27,
            "name": "D#1",
            "ticks": 22656,
            "time": 39.775262999999995,
            "velocity": 0.3937007874015748
          },
          {
            "duration": 0.33707850000000406,
            "durationTicks": 192,
            "midi": 39,
            "name": "D#2",
            "ticks": 22848,
            "time": 40.11234149999999,
            "velocity": 0.3937007874015748
          },
          {
            "duration": 0.6741569999999939,
            "durationTicks": 384,
            "midi": 31,
            "name": "G1",
            "ticks": 23040,
            "time": 40.449419999999996,
            "velocity": 0.3937007874015748
          },
          {
            "duration": 0.33707849999999695,
            "durationTicks": 192,
            "midi": 43,
            "name": "G2",
            "ticks": 23040,
            "time": 40.449419999999996,
            "velocity": 0.3937007874015748
          },
          {
            "duration": 0.33707849999999695,
            "durationTicks": 192,
            "midi": 43,
            "name": "G2",
            "ticks": 23232,
            "time": 40.78649849999999,
            "velocity": 0.3937007874015748
          },
          {
            "duration": 0.33707850000000406,
            "durationTicks": 192,
            "midi": 43,
            "name": "G2",
            "ticks": 23424,
            "time": 41.12357699999999,
            "velocity": 0.3937007874015748
          },
          {
            "duration": 0.674157000000001,
            "durationTicks": 384,
            "midi": 31,
            "name": "G1",
            "ticks": 23424,
            "time": 41.12357699999999,
            "velocity": 0.3937007874015748
          },
          {
            "duration": 0.33707849999999695,
            "durationTicks": 192,
            "midi": 43,
            "name": "G2",
            "ticks": 23616,
            "time": 41.460655499999994,
            "velocity": 0.3937007874015748
          },
          {
            "duration": 0.674157000000001,
            "durationTicks": 384,
            "midi": 24,
            "name": "C1",
            "ticks": 23808,
            "time": 41.79773399999999,
            "velocity": 0.3937007874015748
          },
          {
            "duration": 0.33707850000000406,
            "durationTicks": 192,
            "midi": 36,
            "name": "C2",
            "ticks": 23808,
            "time": 41.79773399999999,
            "velocity": 0.3937007874015748
          },
          {
            "duration": 0.33707849999999695,
            "durationTicks": 192,
            "midi": 36,
            "name": "C2",
            "ticks": 24000,
            "time": 42.134812499999995,
            "velocity": 0.3937007874015748
          },
          {
            "duration": 0.674157000000001,
            "durationTicks": 384,
            "midi": 27,
            "name": "D#1",
            "ticks": 24192,
            "time": 42.47189099999999,
            "velocity": 0.3937007874015748
          },
          {
            "duration": 0.33707850000000406,
            "durationTicks": 192,
            "midi": 39,
            "name": "D#2",
            "ticks": 24192,
            "time": 42.47189099999999,
            "velocity": 0.3937007874015748
          },
          {
            "duration": 0.33707849999999695,
            "durationTicks": 192,
            "midi": 39,
            "name": "D#2",
            "ticks": 24384,
            "time": 42.808969499999996,
            "velocity": 0.3937007874015748
          },
          {
            "duration": 0.674157000000001,
            "durationTicks": 384,
            "midi": 32,
            "name": "G#1",
            "ticks": 24576,
            "time": 43.14604799999999,
            "velocity": 0.3937007874015748
          },
          {
            "duration": 0.33707849999999695,
            "durationTicks": 192,
            "midi": 44,
            "name": "G#2",
            "ticks": 24576,
            "time": 43.14604799999999,
            "velocity": 0.3937007874015748
          },
          {
            "duration": 0.33707850000000406,
            "durationTicks": 192,
            "midi": 44,
            "name": "G#2",
            "ticks": 24768,
            "time": 43.48312649999999,
            "velocity": 0.3937007874015748
          },
          {
            "duration": 0.33707849999999695,
            "durationTicks": 192,
            "midi": 44,
            "name": "G#2",
            "ticks": 24960,
            "time": 43.820204999999994,
            "velocity": 0.3937007874015748
          },
          {
            "duration": 0.674157000000001,
            "durationTicks": 384,
            "midi": 32,
            "name": "G#1",
            "ticks": 24960,
            "time": 43.820204999999994,
            "velocity": 0.3937007874015748
          },
          {
            "duration": 0.33707850000000406,
            "durationTicks": 192,
            "midi": 44,
            "name": "G#2",
            "ticks": 25152,
            "time": 44.15728349999999,
            "velocity": 0.3937007874015748
          },
          {
            "duration": 0.33707849999999695,
            "durationTicks": 192,
            "midi": 39,
            "name": "D#2",
            "ticks": 25344,
            "time": 44.494361999999995,
            "velocity": 0.3937007874015748
          },
          {
            "duration": 0.674157000000001,
            "durationTicks": 384,
            "midi": 27,
            "name": "D#1",
            "ticks": 25344,
            "time": 44.494361999999995,
            "velocity": 0.3937007874015748
          },
          {
            "duration": 0.33707850000000406,
            "durationTicks": 192,
            "midi": 39,
            "name": "D#2",
            "ticks": 25536,
            "time": 44.83144049999999,
            "velocity": 0.3937007874015748
          },
          {
            "duration": 0.33707849999999695,
            "durationTicks": 192,
            "midi": 39,
            "name": "D#2",
            "ticks": 25728,
            "time": 45.168518999999996,
            "velocity": 0.3937007874015748
          },
          {
            "duration": 0.6741569999999939,
            "durationTicks": 384,
            "midi": 27,
            "name": "D#1",
            "ticks": 25728,
            "time": 45.168518999999996,
            "velocity": 0.3937007874015748
          },
          {
            "duration": 0.33707849999999695,
            "durationTicks": 192,
            "midi": 39,
            "name": "D#2",
            "ticks": 25920,
            "time": 45.50559749999999,
            "velocity": 0.3937007874015748
          },
          {
            "duration": 0.674157000000001,
            "durationTicks": 384,
            "midi": 26,
            "name": "D1",
            "ticks": 26112,
            "time": 45.84267599999999,
            "velocity": 0.3937007874015748
          },
          {
            "duration": 0.33707850000000406,
            "durationTicks": 192,
            "midi": 38,
            "name": "D2",
            "ticks": 26112,
            "time": 45.84267599999999,
            "velocity": 0.3937007874015748
          },
          {
            "duration": 0.33707849999999695,
            "durationTicks": 192,
            "midi": 38,
            "name": "D2",
            "ticks": 26304,
            "time": 46.179754499999994,
            "velocity": 0.3937007874015748
          },
          {
            "duration": 0.33707850000000406,
            "durationTicks": 192,
            "midi": 43,
            "name": "G2",
            "ticks": 26496,
            "time": 46.51683299999999,
            "velocity": 0.3937007874015748
          },
          {
            "duration": 0.674157000000001,
            "durationTicks": 384,
            "midi": 31,
            "name": "G1",
            "ticks": 26496,
            "time": 46.51683299999999,
            "velocity": 0.3937007874015748
          },
          {
            "duration": 0.33707849999999695,
            "durationTicks": 192,
            "midi": 43,
            "name": "G2",
            "ticks": 26688,
            "time": 46.853911499999995,
            "velocity": 0.3937007874015748
          },
          {
            "duration": 0.33707849999999695,
            "durationTicks": 192,
            "midi": 36,
            "name": "C2",
            "ticks": 27648,
            "time": 48.539303999999994,
            "velocity": 0.3937007874015748
          },
          {
            "duration": 0.33707849999999695,
            "durationTicks": 192,
            "midi": 24,
            "name": "C1",
            "ticks": 27648,
            "time": 48.539303999999994,
            "velocity": 0.3937007874015748
          },
          {
            "duration": 0.33707850000000406,
            "durationTicks": 192,
            "midi": 48,
            "name": "C3",
            "ticks": 27840,
            "time": 48.87638249999999,
            "velocity": 0.3937007874015748
          },
          {
            "duration": 0.33707850000000406,
            "durationTicks": 192,
            "midi": 36,
            "name": "C2",
            "ticks": 27840,
            "time": 48.87638249999999,
            "velocity": 0.3937007874015748
          },
          {
            "duration": 0.33707849999999695,
            "durationTicks": 192,
            "midi": 51,
            "name": "D#3",
            "ticks": 28032,
            "time": 49.213460999999995,
            "velocity": 0.3937007874015748
          },
          {
            "duration": 0.33707849999999695,
            "durationTicks": 192,
            "midi": 39,
            "name": "D#2",
            "ticks": 28032,
            "time": 49.213460999999995,
            "velocity": 0.3937007874015748
          },
          {
            "duration": 0.33707849999999695,
            "durationTicks": 192,
            "midi": 38,
            "name": "D2",
            "ticks": 28224,
            "time": 49.55053949999999,
            "velocity": 0.3937007874015748
          },
          {
            "duration": 0.33707849999999695,
            "durationTicks": 192,
            "midi": 50,
            "name": "D3",
            "ticks": 28224,
            "time": 49.55053949999999,
            "velocity": 0.3937007874015748
          },
          {
            "duration": 0.33707850000000406,
            "durationTicks": 192,
            "midi": 43,
            "name": "G2",
            "ticks": 28416,
            "time": 49.88761799999999,
            "velocity": 0.3937007874015748
          },
          {
            "duration": 0.33707850000000406,
            "durationTicks": 192,
            "midi": 31,
            "name": "G1",
            "ticks": 28416,
            "time": 49.88761799999999,
            "velocity": 0.3937007874015748
          },
          {
            "duration": 0.33707849999999695,
            "durationTicks": 192,
            "midi": 46,
            "name": "A#2",
            "ticks": 28608,
            "time": 50.22469649999999,
            "velocity": 0.3937007874015748
          },
          {
            "duration": 0.33707849999999695,
            "durationTicks": 192,
            "midi": 34,
            "name": "A#1",
            "ticks": 28608,
            "time": 50.22469649999999,
            "velocity": 0.3937007874015748
          },
          {
            "duration": 0.33707850000000406,
            "durationTicks": 192,
            "midi": 39,
            "name": "D#2",
            "ticks": 28800,
            "time": 50.56177499999999,
            "velocity": 0.3937007874015748
          },
          {
            "duration": 0.33707850000000406,
            "durationTicks": 192,
            "midi": 51,
            "name": "D#3",
            "ticks": 28800,
            "time": 50.56177499999999,
            "velocity": 0.3937007874015748
          },
          {
            "duration": 0.33707849999999695,
            "durationTicks": 192,
            "midi": 50,
            "name": "D3",
            "ticks": 28992,
            "time": 50.898853499999994,
            "velocity": 0.3937007874015748
          },
          {
            "duration": 0.33707849999999695,
            "durationTicks": 192,
            "midi": 38,
            "name": "D2",
            "ticks": 28992,
            "time": 50.898853499999994,
            "velocity": 0.3937007874015748
          },
          {
            "duration": 0.33707850000000406,
            "durationTicks": 192,
            "midi": 44,
            "name": "G#2",
            "ticks": 29184,
            "time": 51.23593199999999,
            "velocity": 0.3937007874015748
          },
          {
            "duration": 0.33707850000000406,
            "durationTicks": 192,
            "midi": 32,
            "name": "G#1",
            "ticks": 29184,
            "time": 51.23593199999999,
            "velocity": 0.3937007874015748
          },
          {
            "duration": 0.33707849999999695,
            "durationTicks": 192,
            "midi": 36,
            "name": "C2",
            "ticks": 29376,
            "time": 51.573010499999995,
            "velocity": 0.3937007874015748
          },
          {
            "duration": 0.33707849999999695,
            "durationTicks": 192,
            "midi": 48,
            "name": "C3",
            "ticks": 29376,
            "time": 51.573010499999995,
            "velocity": 0.3937007874015748
          },
          {
            "duration": 0.33707849999999695,
            "durationTicks": 192,
            "midi": 51,
            "name": "D#3",
            "ticks": 29568,
            "time": 51.91008899999999,
            "velocity": 0.3937007874015748
          },
          {
            "duration": 0.33707849999999695,
            "durationTicks": 192,
            "midi": 39,
            "name": "D#2",
            "ticks": 29568,
            "time": 51.91008899999999,
            "velocity": 0.3937007874015748
          },
          {
            "duration": 0.33707850000000406,
            "durationTicks": 192,
            "midi": 38,
            "name": "D2",
            "ticks": 29760,
            "time": 52.24716749999999,
            "velocity": 0.3937007874015748
          },
          {
            "duration": 0.33707850000000406,
            "durationTicks": 192,
            "midi": 50,
            "name": "D3",
            "ticks": 29760,
            "time": 52.24716749999999,
            "velocity": 0.3937007874015748
          },
          {
            "duration": 0.33707849999999695,
            "durationTicks": 192,
            "midi": 51,
            "name": "D#3",
            "ticks": 29952,
            "time": 52.58424599999999,
            "velocity": 0.3937007874015748
          },
          {
            "duration": 0.33707849999999695,
            "durationTicks": 192,
            "midi": 39,
            "name": "D#2",
            "ticks": 29952,
            "time": 52.58424599999999,
            "velocity": 0.3937007874015748
          },
          {
            "duration": 0.33707850000000406,
            "durationTicks": 192,
            "midi": 52,
            "name": "E3",
            "ticks": 30144,
            "time": 52.92132449999999,
            "velocity": 0.3937007874015748
          },
          {
            "duration": 0.33707850000000406,
            "durationTicks": 192,
            "midi": 40,
            "name": "E2",
            "ticks": 30144,
            "time": 52.92132449999999,
            "velocity": 0.3937007874015748
          },
          {
            "duration": 0.33707849999999695,
            "durationTicks": 192,
            "midi": 46,
            "name": "A#2",
            "ticks": 30336,
            "time": 53.258402999999994,
            "velocity": 0.3937007874015748
          },
          {
            "duration": 0.33707849999999695,
            "durationTicks": 192,
            "midi": 58,
            "name": "A#3",
            "ticks": 30336,
            "time": 53.258402999999994,
            "velocity": 0.3937007874015748
          },
          {
            "duration": 0.33707850000000406,
            "durationTicks": 192,
            "midi": 48,
            "name": "C3",
            "ticks": 30528,
            "time": 53.59548149999999,
            "velocity": 0.3937007874015748
          },
          {
            "duration": 0.33707850000000406,
            "durationTicks": 192,
            "midi": 36,
            "name": "C2",
            "ticks": 30528,
            "time": 53.59548149999999,
            "velocity": 0.3937007874015748
          },
          {
            "duration": 0.33707849999999695,
            "durationTicks": 192,
            "midi": 41,
            "name": "F2",
            "ticks": 30720,
            "time": 53.932559999999995,
            "velocity": 0.3937007874015748
          },
          {
            "duration": 0.33707849999999695,
            "durationTicks": 192,
            "midi": 29,
            "name": "F1",
            "ticks": 30720,
            "time": 53.932559999999995,
            "velocity": 0.3937007874015748
          },
          {
            "duration": 0.33707849999999695,
            "durationTicks": 192,
            "midi": 32,
            "name": "G#1",
            "ticks": 30912,
            "time": 54.26963849999999,
            "velocity": 0.3937007874015748
          },
          {
            "duration": 0.33707849999999695,
            "durationTicks": 192,
            "midi": 44,
            "name": "G#2",
            "ticks": 30912,
            "time": 54.26963849999999,
            "velocity": 0.3937007874015748
          },
          {
            "duration": 0.33707850000000406,
            "durationTicks": 192,
            "midi": 51,
            "name": "D#3",
            "ticks": 31104,
            "time": 54.60671699999999,
            "velocity": 0.3937007874015748
          },
          {
            "duration": 0.33707850000000406,
            "durationTicks": 192,
            "midi": 39,
            "name": "D#2",
            "ticks": 31104,
            "time": 54.60671699999999,
            "velocity": 0.3937007874015748
          },
          {
            "duration": 0.33707849999999695,
            "durationTicks": 192,
            "midi": 36,
            "name": "C2",
            "ticks": 31296,
            "time": 54.94379549999999,
            "velocity": 0.3937007874015748
          },
          {
            "duration": 0.33707849999999695,
            "durationTicks": 192,
            "midi": 48,
            "name": "C3",
            "ticks": 31296,
            "time": 54.94379549999999,
            "velocity": 0.3937007874015748
          },
          {
            "duration": 0.33707850000000406,
            "durationTicks": 192,
            "midi": 27,
            "name": "D#1",
            "ticks": 31488,
            "time": 55.28087399999999,
            "velocity": 0.3937007874015748
          },
          {
            "duration": 0.33707850000000406,
            "durationTicks": 192,
            "midi": 39,
            "name": "D#2",
            "ticks": 31488,
            "time": 55.28087399999999,
            "velocity": 0.3937007874015748
          },
          {
            "duration": 0.33707849999999695,
            "durationTicks": 192,
            "midi": 46,
            "name": "A#2",
            "ticks": 31680,
            "time": 55.617952499999994,
            "velocity": 0.3937007874015748
          },
          {
            "duration": 0.33707849999999695,
            "durationTicks": 192,
            "midi": 34,
            "name": "A#1",
            "ticks": 31680,
            "time": 55.617952499999994,
            "velocity": 0.3937007874015748
          },
          {
            "duration": 0.33707849999999695,
            "durationTicks": 192,
            "midi": 51,
            "name": "D#3",
            "ticks": 31872,
            "time": 55.95503099999999,
            "velocity": 0.3937007874015748
          },
          {
            "duration": 0.33707849999999695,
            "durationTicks": 192,
            "midi": 39,
            "name": "D#2",
            "ticks": 31872,
            "time": 55.95503099999999,
            "velocity": 0.3937007874015748
          },
          {
            "duration": 0.33707850000000406,
            "durationTicks": 192,
            "midi": 34,
            "name": "A#1",
            "ticks": 32064,
            "time": 56.29210949999999,
            "velocity": 0.3937007874015748
          },
          {
            "duration": 0.33707850000000406,
            "durationTicks": 192,
            "midi": 46,
            "name": "A#2",
            "ticks": 32064,
            "time": 56.29210949999999,
            "velocity": 0.3937007874015748
          },
          {
            "duration": 0.33707849999999695,
            "durationTicks": 192,
            "midi": 26,
            "name": "D1",
            "ticks": 32256,
            "time": 56.62918799999999,
            "velocity": 0.3937007874015748
          },
          {
            "duration": 0.33707849999999695,
            "durationTicks": 192,
            "midi": 38,
            "name": "D2",
            "ticks": 32256,
            "time": 56.62918799999999,
            "velocity": 0.3937007874015748
          },
          {
            "duration": 0.33707850000000406,
            "durationTicks": 192,
            "midi": 31,
            "name": "G1",
            "ticks": 32448,
            "time": 56.96626649999999,
            "velocity": 0.3937007874015748
          },
          {
            "duration": 0.33707850000000406,
            "durationTicks": 192,
            "midi": 43,
            "name": "G2",
            "ticks": 32448,
            "time": 56.96626649999999,
            "velocity": 0.3937007874015748
          },
          {
            "duration": 0.33707849999999695,
            "durationTicks": 192,
            "midi": 51,
            "name": "D#3",
            "ticks": 32640,
            "time": 57.30334499999999,
            "velocity": 0.3937007874015748
          },
          {
            "duration": 0.33707849999999695,
            "durationTicks": 192,
            "midi": 39,
            "name": "D#2",
            "ticks": 32640,
            "time": 57.30334499999999,
            "velocity": 0.3937007874015748
          },
          {
            "duration": 0.33707850000000406,
            "durationTicks": 192,
            "midi": 46,
            "name": "A#2",
            "ticks": 32832,
            "time": 57.64042349999999,
            "velocity": 0.3937007874015748
          },
          {
            "duration": 0.33707850000000406,
            "durationTicks": 192,
            "midi": 34,
            "name": "A#1",
            "ticks": 32832,
            "time": 57.64042349999999,
            "velocity": 0.3937007874015748
          },
          {
            "duration": 0.33707849999999695,
            "durationTicks": 192,
            "midi": 38,
            "name": "D2",
            "ticks": 33024,
            "time": 57.977501999999994,
            "velocity": 0.3937007874015748
          },
          {
            "duration": 0.33707849999999695,
            "durationTicks": 192,
            "midi": 26,
            "name": "D1",
            "ticks": 33024,
            "time": 57.977501999999994,
            "velocity": 0.3937007874015748
          },
          {
            "duration": 0.33707849999999695,
            "durationTicks": 192,
            "midi": 31,
            "name": "G1",
            "ticks": 33216,
            "time": 58.31458049999999,
            "velocity": 0.3937007874015748
          },
          {
            "duration": 0.33707849999999695,
            "durationTicks": 192,
            "midi": 43,
            "name": "G2",
            "ticks": 33216,
            "time": 58.31458049999999,
            "velocity": 0.3937007874015748
          },
          {
            "duration": 0.33707850000000406,
            "durationTicks": 192,
            "midi": 38,
            "name": "D2",
            "ticks": 33408,
            "time": 58.65165899999999,
            "velocity": 0.3937007874015748
          },
          {
            "duration": 0.33707850000000406,
            "durationTicks": 192,
            "midi": 50,
            "name": "D3",
            "ticks": 33408,
            "time": 58.65165899999999,
            "velocity": 0.3937007874015748
          },
          {
            "duration": 0.33707849999999695,
            "durationTicks": 192,
            "midi": 35,
            "name": "B1",
            "ticks": 33600,
            "time": 58.98873749999999,
            "velocity": 0.3937007874015748
          },
          {
            "duration": 0.33707849999999695,
            "durationTicks": 192,
            "midi": 47,
            "name": "B2",
            "ticks": 33600,
            "time": 58.98873749999999,
            "velocity": 0.3937007874015748
          },
          {
            "duration": 0.33707850000000406,
            "durationTicks": 192,
            "midi": 36,
            "name": "C2",
            "ticks": 33792,
            "time": 59.32581599999999,
            "velocity": 0.3937007874015748
          },
          {
            "duration": 0.33707850000000406,
            "durationTicks": 192,
            "midi": 24,
            "name": "C1",
            "ticks": 33792,
            "time": 59.32581599999999,
            "velocity": 0.3937007874015748
          },
          {
            "duration": 0.33707849999999695,
            "durationTicks": 192,
            "midi": 48,
            "name": "C3",
            "ticks": 33984,
            "time": 59.66289449999999,
            "velocity": 0.3937007874015748
          },
          {
            "duration": 0.33707849999999695,
            "durationTicks": 192,
            "midi": 36,
            "name": "C2",
            "ticks": 33984,
            "time": 59.66289449999999,
            "velocity": 0.3937007874015748
          },
          {
            "duration": 0.33707850000000406,
            "durationTicks": 192,
            "midi": 39,
            "name": "D#2",
            "ticks": 34176,
            "time": 59.99997299999999,
            "velocity": 0.3937007874015748
          },
          {
            "duration": 0.33707850000000406,
            "durationTicks": 192,
            "midi": 51,
            "name": "D#3",
            "ticks": 34176,
            "time": 59.99997299999999,
            "velocity": 0.3937007874015748
          },
          {
            "duration": 0.33707849999999695,
            "durationTicks": 192,
            "midi": 50,
            "name": "D3",
            "ticks": 34368,
            "time": 60.337051499999994,
            "velocity": 0.3937007874015748
          },
          {
            "duration": 0.33707849999999695,
            "durationTicks": 192,
            "midi": 38,
            "name": "D2",
            "ticks": 34368,
            "time": 60.337051499999994,
            "velocity": 0.3937007874015748
          },
          {
            "duration": 0.33707849999999695,
            "durationTicks": 192,
            "midi": 43,
            "name": "G2",
            "ticks": 34560,
            "time": 60.67412999999999,
            "velocity": 0.3937007874015748
          },
          {
            "duration": 0.33707849999999695,
            "durationTicks": 192,
            "midi": 31,
            "name": "G1",
            "ticks": 34560,
            "time": 60.67412999999999,
            "velocity": 0.3937007874015748
          },
          {
            "duration": 0.33707850000000406,
            "durationTicks": 192,
            "midi": 34,
            "name": "A#1",
            "ticks": 34752,
            "time": 61.01120849999999,
            "velocity": 0.3937007874015748
          },
          {
            "duration": 0.33707850000000406,
            "durationTicks": 192,
            "midi": 46,
            "name": "A#2",
            "ticks": 34752,
            "time": 61.01120849999999,
            "velocity": 0.3937007874015748
          },
          {
            "duration": 0.33707849999999695,
            "durationTicks": 192,
            "midi": 51,
            "name": "D#3",
            "ticks": 34944,
            "time": 61.34828699999999,
            "velocity": 0.3937007874015748
          },
          {
            "duration": 0.33707849999999695,
            "durationTicks": 192,
            "midi": 39,
            "name": "D#2",
            "ticks": 34944,
            "time": 61.34828699999999,
            "velocity": 0.3937007874015748
          },
          {
            "duration": 0.33707850000000406,
            "durationTicks": 192,
            "midi": 50,
            "name": "D3",
            "ticks": 35136,
            "time": 61.68536549999999,
            "velocity": 0.3937007874015748
          },
          {
            "duration": 0.33707850000000406,
            "durationTicks": 192,
            "midi": 38,
            "name": "D2",
            "ticks": 35136,
            "time": 61.68536549999999,
            "velocity": 0.3937007874015748
          },
          {
            "duration": 0.33707849999999695,
            "durationTicks": 192,
            "midi": 44,
            "name": "G#2",
            "ticks": 35328,
            "time": 62.02244399999999,
            "velocity": 0.3937007874015748
          },
          {
            "duration": 0.33707849999999695,
            "durationTicks": 192,
            "midi": 32,
            "name": "G#1",
            "ticks": 35328,
            "time": 62.02244399999999,
            "velocity": 0.3937007874015748
          },
          {
            "duration": 0.33707849999999695,
            "durationTicks": 192,
            "midi": 48,
            "name": "C3",
            "ticks": 35520,
            "time": 62.35952249999999,
            "velocity": 0.3937007874015748
          },
          {
            "duration": 0.33707849999999695,
            "durationTicks": 192,
            "midi": 36,
            "name": "C2",
            "ticks": 35520,
            "time": 62.35952249999999,
            "velocity": 0.3937007874015748
          },
          {
            "duration": 0.33707850000000406,
            "durationTicks": 192,
            "midi": 51,
            "name": "D#3",
            "ticks": 35712,
            "time": 62.69660099999999,
            "velocity": 0.3937007874015748
          },
          {
            "duration": 0.33707850000000406,
            "durationTicks": 192,
            "midi": 39,
            "name": "D#2",
            "ticks": 35712,
            "time": 62.69660099999999,
            "velocity": 0.3937007874015748
          },
          {
            "duration": 0.33707849999999695,
            "durationTicks": 192,
            "midi": 50,
            "name": "D3",
            "ticks": 35904,
            "time": 63.03367949999999,
            "velocity": 0.3937007874015748
          },
          {
            "duration": 0.33707849999999695,
            "durationTicks": 192,
            "midi": 38,
            "name": "D2",
            "ticks": 35904,
            "time": 63.03367949999999,
            "velocity": 0.3937007874015748
          },
          {
            "duration": 0.33707850000000406,
            "durationTicks": 192,
            "midi": 51,
            "name": "D#3",
            "ticks": 36096,
            "time": 63.37075799999999,
            "velocity": 0.3937007874015748
          },
          {
            "duration": 0.33707850000000406,
            "durationTicks": 192,
            "midi": 39,
            "name": "D#2",
            "ticks": 36096,
            "time": 63.37075799999999,
            "velocity": 0.3937007874015748
          },
          {
            "duration": 0.33707849999999695,
            "durationTicks": 192,
            "midi": 52,
            "name": "E3",
            "ticks": 36288,
            "time": 63.70783649999999,
            "velocity": 0.3937007874015748
          },
          {
            "duration": 0.33707849999999695,
            "durationTicks": 192,
            "midi": 40,
            "name": "E2",
            "ticks": 36288,
            "time": 63.70783649999999,
            "velocity": 0.3937007874015748
          },
          {
            "duration": 0.33707850000000406,
            "durationTicks": 192,
            "midi": 58,
            "name": "A#3",
            "ticks": 36480,
            "time": 64.04491499999999,
            "velocity": 0.3937007874015748
          },
          {
            "duration": 0.33707850000000406,
            "durationTicks": 192,
            "midi": 46,
            "name": "A#2",
            "ticks": 36480,
            "time": 64.04491499999999,
            "velocity": 0.3937007874015748
          },
          {
            "duration": 0.33707849999998984,
            "durationTicks": 192,
            "midi": 48,
            "name": "C3",
            "ticks": 36672,
            "time": 64.3819935,
            "velocity": 0.3937007874015748
          },
          {
            "duration": 0.33707849999998984,
            "durationTicks": 192,
            "midi": 36,
            "name": "C2",
            "ticks": 36672,
            "time": 64.3819935,
            "velocity": 0.3937007874015748
          },
          {
            "duration": 0.33707850000000406,
            "durationTicks": 192,
            "midi": 29,
            "name": "F1",
            "ticks": 36864,
            "time": 64.71907199999998,
            "velocity": 0.3937007874015748
          },
          {
            "duration": 0.33707850000000406,
            "durationTicks": 192,
            "midi": 41,
            "name": "F2",
            "ticks": 36864,
            "time": 64.71907199999998,
            "velocity": 0.3937007874015748
          },
          {
            "duration": 0.33707850000000406,
            "durationTicks": 192,
            "midi": 44,
            "name": "G#2",
            "ticks": 37056,
            "time": 65.05615049999999,
            "velocity": 0.3937007874015748
          },
          {
            "duration": 0.33707850000000406,
            "durationTicks": 192,
            "midi": 32,
            "name": "G#1",
            "ticks": 37056,
            "time": 65.05615049999999,
            "velocity": 0.3937007874015748
          },
          {
            "duration": 0.33707850000000406,
            "durationTicks": 192,
            "midi": 51,
            "name": "D#3",
            "ticks": 37248,
            "time": 65.39322899999999,
            "velocity": 0.3937007874015748
          },
          {
            "duration": 0.33707850000000406,
            "durationTicks": 192,
            "midi": 39,
            "name": "D#2",
            "ticks": 37248,
            "time": 65.39322899999999,
            "velocity": 0.3937007874015748
          },
          {
            "duration": 0.33707849999998984,
            "durationTicks": 192,
            "midi": 48,
            "name": "C3",
            "ticks": 37440,
            "time": 65.7303075,
            "velocity": 0.3937007874015748
          },
          {
            "duration": 0.33707849999998984,
            "durationTicks": 192,
            "midi": 36,
            "name": "C2",
            "ticks": 37440,
            "time": 65.7303075,
            "velocity": 0.3937007874015748
          },
          {
            "duration": 0.33707850000000406,
            "durationTicks": 192,
            "midi": 39,
            "name": "D#2",
            "ticks": 37632,
            "time": 66.06738599999998,
            "velocity": 0.3937007874015748
          },
          {
            "duration": 0.33707850000000406,
            "durationTicks": 192,
            "midi": 27,
            "name": "D#1",
            "ticks": 37632,
            "time": 66.06738599999998,
            "velocity": 0.3937007874015748
          },
          {
            "duration": 0.33707850000000406,
            "durationTicks": 192,
            "midi": 34,
            "name": "A#1",
            "ticks": 37824,
            "time": 66.40446449999999,
            "velocity": 0.3937007874015748
          },
          {
            "duration": 0.33707850000000406,
            "durationTicks": 192,
            "midi": 46,
            "name": "A#2",
            "ticks": 37824,
            "time": 66.40446449999999,
            "velocity": 0.3937007874015748
          },
          {
            "duration": 0.33707849999998984,
            "durationTicks": 192,
            "midi": 39,
            "name": "D#2",
            "ticks": 38016,
            "time": 66.741543,
            "velocity": 0.3937007874015748
          },
          {
            "duration": 0.33707849999998984,
            "durationTicks": 192,
            "midi": 51,
            "name": "D#3",
            "ticks": 38016,
            "time": 66.741543,
            "velocity": 0.3937007874015748
          },
          {
            "duration": 0.33707850000000406,
            "durationTicks": 192,
            "midi": 46,
            "name": "A#2",
            "ticks": 38208,
            "time": 67.07862149999998,
            "velocity": 0.3937007874015748
          },
          {
            "duration": 0.33707850000000406,
            "durationTicks": 192,
            "midi": 34,
            "name": "A#1",
            "ticks": 38208,
            "time": 67.07862149999998,
            "velocity": 0.3937007874015748
          },
          {
            "duration": 0.33707850000000406,
            "durationTicks": 192,
            "midi": 38,
            "name": "D2",
            "ticks": 38400,
            "time": 67.41569999999999,
            "velocity": 0.3937007874015748
          },
          {
            "duration": 0.33707850000000406,
            "durationTicks": 192,
            "midi": 26,
            "name": "D1",
            "ticks": 38400,
            "time": 67.41569999999999,
            "velocity": 0.3937007874015748
          },
          {
            "duration": 0.33707850000000406,
            "durationTicks": 192,
            "midi": 31,
            "name": "G1",
            "ticks": 38592,
            "time": 67.75277849999999,
            "velocity": 0.3937007874015748
          },
          {
            "duration": 0.33707850000000406,
            "durationTicks": 192,
            "midi": 43,
            "name": "G2",
            "ticks": 38592,
            "time": 67.75277849999999,
            "velocity": 0.3937007874015748
          },
          {
            "duration": 0.33707849999998984,
            "durationTicks": 192,
            "midi": 51,
            "name": "D#3",
            "ticks": 38784,
            "time": 68.089857,
            "velocity": 0.3937007874015748
          },
          {
            "duration": 0.33707849999998984,
            "durationTicks": 192,
            "midi": 39,
            "name": "D#2",
            "ticks": 38784,
            "time": 68.089857,
            "velocity": 0.3937007874015748
          },
          {
            "duration": 0.33707850000000406,
            "durationTicks": 192,
            "midi": 46,
            "name": "A#2",
            "ticks": 38976,
            "time": 68.42693549999998,
            "velocity": 0.3937007874015748
          },
          {
            "duration": 0.33707850000000406,
            "durationTicks": 192,
            "midi": 34,
            "name": "A#1",
            "ticks": 38976,
            "time": 68.42693549999998,
            "velocity": 0.3937007874015748
          },
          {
            "duration": 0.6741569999999939,
            "durationTicks": 384,
            "midi": 26,
            "name": "D1",
            "ticks": 39168,
            "time": 68.76401399999999,
            "velocity": 0.3937007874015748
          },
          {
            "duration": 0.6741569999999939,
            "durationTicks": 384,
            "midi": 38,
            "name": "D2",
            "ticks": 39168,
            "time": 68.76401399999999,
            "velocity": 0.3937007874015748
          },
          {
            "duration": 0.6741570000000081,
            "durationTicks": 384,
            "midi": 43,
            "name": "G2",
            "ticks": 39552,
            "time": 69.43817099999998,
            "velocity": 0.3937007874015748
          },
          {
            "duration": 0.6741570000000081,
            "durationTicks": 384,
            "midi": 31,
            "name": "G1",
            "ticks": 39552,
            "time": 69.43817099999998,
            "velocity": 0.3937007874015748
          },
          {
            "duration": 0.33707850000000406,
            "durationTicks": 192,
            "midi": 36,
            "name": "C2",
            "ticks": 39936,
            "time": 70.11232799999999,
            "velocity": 0.3937007874015748
          },
          {
            "duration": 0.33707849999998984,
            "durationTicks": 192,
            "midi": 43,
            "name": "G2",
            "ticks": 40128,
            "time": 70.4494065,
            "velocity": 0.3937007874015748
          },
          {
            "duration": 0.16853925000000913,
            "durationTicks": 96,
            "midi": 36,
            "name": "C2",
            "ticks": 40320,
            "time": 70.78648499999998,
            "velocity": 0.3937007874015748
          },
          {
            "duration": 0.16853924999999492,
            "durationTicks": 96,
            "midi": 36,
            "name": "C2",
            "ticks": 40416,
            "time": 70.95502425,
            "velocity": 0.3937007874015748
          },
          {
            "duration": 0.33707850000000406,
            "durationTicks": 192,
            "midi": 36,
            "name": "C2",
            "ticks": 40512,
            "time": 71.12356349999999,
            "velocity": 0.3937007874015748
          },
          {
            "duration": 0.33707849999998984,
            "durationTicks": 192,
            "midi": 36,
            "name": "C2",
            "ticks": 40704,
            "time": 71.46064199999999,
            "velocity": 0.3937007874015748
          },
          {
            "duration": 0.33707850000000406,
            "durationTicks": 192,
            "midi": 43,
            "name": "G2",
            "ticks": 40896,
            "time": 71.79772049999998,
            "velocity": 0.3937007874015748
          },
          {
            "duration": 0.33707850000000406,
            "durationTicks": 192,
            "midi": 39,
            "name": "D#2",
            "ticks": 41088,
            "time": 72.13479899999999,
            "velocity": 0.3937007874015748
          },
          {
            "duration": 0.33707850000000406,
            "durationTicks": 192,
            "midi": 43,
            "name": "G2",
            "ticks": 41280,
            "time": 72.47187749999999,
            "velocity": 0.3937007874015748
          },
          {
            "duration": 0.33707849999998984,
            "durationTicks": 192,
            "midi": 41,
            "name": "F2",
            "ticks": 41472,
            "time": 72.808956,
            "velocity": 0.3937007874015748
          },
          {
            "duration": 0.33707850000000406,
            "durationTicks": 192,
            "midi": 48,
            "name": "C3",
            "ticks": 41664,
            "time": 73.14603449999998,
            "velocity": 0.3937007874015748
          },
          {
            "duration": 0.16853924999999492,
            "durationTicks": 96,
            "midi": 44,
            "name": "G#2",
            "ticks": 41856,
            "time": 73.48311299999999,
            "velocity": 0.3937007874015748
          },
          {
            "duration": 0.16853925000000913,
            "durationTicks": 96,
            "midi": 44,
            "name": "G#2",
            "ticks": 41952,
            "time": 73.65165224999998,
            "velocity": 0.3937007874015748
          },
          {
            "duration": 0.33707849999998984,
            "durationTicks": 192,
            "midi": 46,
            "name": "A#2",
            "ticks": 42048,
            "time": 73.82019149999999,
            "velocity": 0.3937007874015748
          },
          {
            "duration": 0.33707850000000406,
            "durationTicks": 192,
            "midi": 39,
            "name": "D#2",
            "ticks": 42240,
            "time": 74.15726999999998,
            "velocity": 0.3937007874015748
          },
          {
            "duration": 0.33707850000000406,
            "durationTicks": 192,
            "midi": 46,
            "name": "A#2",
            "ticks": 42432,
            "time": 74.49434849999999,
            "velocity": 0.3937007874015748
          },
          {
            "duration": 0.16853924999999492,
            "durationTicks": 96,
            "midi": 51,
            "name": "D#3",
            "ticks": 42624,
            "time": 74.83142699999999,
            "velocity": 0.3937007874015748
          },
          {
            "duration": 0.16853925000000913,
            "durationTicks": 96,
            "midi": 46,
            "name": "A#2",
            "ticks": 42720,
            "time": 74.99996624999999,
            "velocity": 0.3937007874015748
          },
          {
            "duration": 0.16853924999999492,
            "durationTicks": 96,
            "midi": 48,
            "name": "C3",
            "ticks": 42816,
            "time": 75.1685055,
            "velocity": 0.3937007874015748
          },
          {
            "duration": 0.16853924999999492,
            "durationTicks": 96,
            "midi": 43,
            "name": "G2",
            "ticks": 42912,
            "time": 75.33704474999999,
            "velocity": 0.3937007874015748
          },
          {
            "duration": 0.33707850000000406,
            "durationTicks": 192,
            "midi": 41,
            "name": "F2",
            "ticks": 43008,
            "time": 75.50558399999998,
            "velocity": 0.3937007874015748
          },
          {
            "duration": 0.33707850000000406,
            "durationTicks": 192,
            "midi": 48,
            "name": "C3",
            "ticks": 43200,
            "time": 75.84266249999999,
            "velocity": 0.3937007874015748
          },
          {
            "duration": 0.16853924999999492,
            "durationTicks": 96,
            "midi": 44,
            "name": "G#2",
            "ticks": 43392,
            "time": 76.17974099999999,
            "velocity": 0.3937007874015748
          },
          {
            "duration": 0.16853924999999492,
            "durationTicks": 96,
            "midi": 44,
            "name": "G#2",
            "ticks": 43488,
            "time": 76.34828024999999,
            "velocity": 0.3937007874015748
          },
          {
            "duration": 0.33707850000000406,
            "durationTicks": 192,
            "midi": 46,
            "name": "A#2",
            "ticks": 43584,
            "time": 76.51681949999998,
            "velocity": 0.3937007874015748
          },
          {
            "duration": 0.33707850000000406,
            "durationTicks": 192,
            "midi": 39,
            "name": "D#2",
            "ticks": 43776,
            "time": 76.85389799999999,
            "velocity": 0.3937007874015748
          },
          {
            "duration": 0.33707850000000406,
            "durationTicks": 192,
            "midi": 46,
            "name": "A#2",
            "ticks": 43968,
            "time": 77.19097649999999,
            "velocity": 0.3937007874015748
          },
          {
            "duration": 0.33707849999998984,
            "durationTicks": 192,
            "midi": 39,
            "name": "D#2",
            "ticks": 44160,
            "time": 77.528055,
            "velocity": 0.3937007874015748
          },
          {
            "duration": 0.33707850000000406,
            "durationTicks": 192,
            "midi": 43,
            "name": "G2",
            "ticks": 44352,
            "time": 77.86513349999998,
            "velocity": 0.3937007874015748
          },
          {
            "duration": 0.33707850000000406,
            "durationTicks": 192,
            "midi": 38,
            "name": "D2",
            "ticks": 44544,
            "time": 78.20221199999999,
            "velocity": 0.3937007874015748
          },
          {
            "duration": 0.33707849999998984,
            "durationTicks": 192,
            "midi": 41,
            "name": "F2",
            "ticks": 44736,
            "time": 78.53929049999999,
            "velocity": 0.3937007874015748
          },
          {
            "duration": 0.33707850000000406,
            "durationTicks": 192,
            "midi": 38,
            "name": "D2",
            "ticks": 44928,
            "time": 78.87636899999998,
            "velocity": 0.3937007874015748
          },
          {
            "duration": 0.33707850000000406,
            "durationTicks": 192,
            "midi": 41,
            "name": "F2",
            "ticks": 45120,
            "time": 79.21344749999999,
            "velocity": 0.3937007874015748
          },
          {
            "duration": 0.33707849999998984,
            "durationTicks": 192,
            "midi": 43,
            "name": "G2",
            "ticks": 45312,
            "time": 79.55052599999999,
            "velocity": 0.3937007874015748
          },
          {
            "duration": 0.16853925000000913,
            "durationTicks": 96,
            "midi": 41,
            "name": "F2",
            "ticks": 45696,
            "time": 80.22468299999998,
            "velocity": 0.3937007874015748
          },
          {
            "duration": 0.16853924999999492,
            "durationTicks": 96,
            "midi": 39,
            "name": "D#2",
            "ticks": 45792,
            "time": 80.39322225,
            "velocity": 0.3937007874015748
          },
          {
            "duration": 0.33707850000000406,
            "durationTicks": 192,
            "midi": 38,
            "name": "D2",
            "ticks": 45888,
            "time": 80.56176149999999,
            "velocity": 0.3937007874015748
          },
          {
            "duration": 0.33707849999998984,
            "durationTicks": 192,
            "midi": 36,
            "name": "C2",
            "ticks": 46080,
            "time": 80.89883999999999,
            "velocity": 0.3937007874015748
          },
          {
            "duration": 0.33707850000000406,
            "durationTicks": 192,
            "midi": 43,
            "name": "G2",
            "ticks": 46272,
            "time": 81.23591849999998,
            "velocity": 0.3937007874015748
          },
          {
            "duration": 0.16853924999999492,
            "durationTicks": 96,
            "midi": 36,
            "name": "C2",
            "ticks": 46464,
            "time": 81.57299699999999,
            "velocity": 0.3937007874015748
          },
          {
            "duration": 0.16853925000000913,
            "durationTicks": 96,
            "midi": 36,
            "name": "C2",
            "ticks": 46560,
            "time": 81.74153624999998,
            "velocity": 0.3937007874015748
          },
          {
            "duration": 0.33707849999998984,
            "durationTicks": 192,
            "midi": 36,
            "name": "C2",
            "ticks": 46656,
            "time": 81.91007549999999,
            "velocity": 0.3937007874015748
          },
          {
            "duration": 0.33707850000000406,
            "durationTicks": 192,
            "midi": 36,
            "name": "C2",
            "ticks": 46848,
            "time": 82.24715399999998,
            "velocity": 0.3937007874015748
          },
          {
            "duration": 0.33707850000000406,
            "durationTicks": 192,
            "midi": 43,
            "name": "G2",
            "ticks": 47040,
            "time": 82.58423249999998,
            "velocity": 0.3937007874015748
          },
          {
            "duration": 0.33707850000000406,
            "durationTicks": 192,
            "midi": 39,
            "name": "D#2",
            "ticks": 47232,
            "time": 82.92131099999999,
            "velocity": 0.3937007874015748
          },
          {
            "duration": 0.33707849999998984,
            "durationTicks": 192,
            "midi": 43,
            "name": "G2",
            "ticks": 47424,
            "time": 83.25838949999999,
            "velocity": 0.3937007874015748
          },
          {
            "duration": 0.33707850000000406,
            "durationTicks": 192,
            "midi": 41,
            "name": "F2",
            "ticks": 47616,
            "time": 83.59546799999998,
            "velocity": 0.3937007874015748
          },
          {
            "duration": 0.33707850000000406,
            "durationTicks": 192,
            "midi": 48,
            "name": "C3",
            "ticks": 47808,
            "time": 83.93254649999999,
            "velocity": 0.3937007874015748
          },
          {
            "duration": 0.16853924999999492,
            "durationTicks": 96,
            "midi": 44,
            "name": "G#2",
            "ticks": 48000,
            "time": 84.26962499999999,
            "velocity": 0.3937007874015748
          },
          {
            "duration": 0.16853924999999492,
            "durationTicks": 96,
            "midi": 44,
            "name": "G#2",
            "ticks": 48096,
            "time": 84.43816424999999,
            "velocity": 0.3937007874015748
          },
          {
            "duration": 0.33707850000000406,
            "durationTicks": 192,
            "midi": 46,
            "name": "A#2",
            "ticks": 48192,
            "time": 84.60670349999998,
            "velocity": 0.3937007874015748
          },
          {
            "duration": 0.33707850000000406,
            "durationTicks": 192,
            "midi": 39,
            "name": "D#2",
            "ticks": 48384,
            "time": 84.94378199999998,
            "velocity": 0.3937007874015748
          },
          {
            "duration": 0.33707850000000406,
            "durationTicks": 192,
            "midi": 46,
            "name": "A#2",
            "ticks": 48576,
            "time": 85.28086049999999,
            "velocity": 0.3937007874015748
          },
          {
            "duration": 0.16853924999999492,
            "durationTicks": 96,
            "midi": 51,
            "name": "D#3",
            "ticks": 48768,
            "time": 85.61793899999999,
            "velocity": 0.3937007874015748
          },
          {
            "duration": 0.16853924999999492,
            "durationTicks": 96,
            "midi": 46,
            "name": "A#2",
            "ticks": 48864,
            "time": 85.78647824999999,
            "velocity": 0.3937007874015748
          },
          {
            "duration": 0.16853925000000913,
            "durationTicks": 96,
            "midi": 48,
            "name": "C3",
            "ticks": 48960,
            "time": 85.95501749999998,
            "velocity": 0.3937007874015748
          },
          {
            "duration": 0.16853924999999492,
            "durationTicks": 96,
            "midi": 43,
            "name": "G2",
            "ticks": 49056,
            "time": 86.12355674999999,
            "velocity": 0.3937007874015748
          },
          {
            "duration": 0.33707850000000406,
            "durationTicks": 192,
            "midi": 41,
            "name": "F2",
            "ticks": 49152,
            "time": 86.29209599999999,
            "velocity": 0.3937007874015748
          },
          {
            "duration": 0.33707849999998984,
            "durationTicks": 192,
            "midi": 48,
            "name": "C3",
            "ticks": 49344,
            "time": 86.62917449999999,
            "velocity": 0.3937007874015748
          },
          {
            "duration": 0.16853925000000913,
            "durationTicks": 96,
            "midi": 44,
            "name": "G#2",
            "ticks": 49536,
            "time": 86.96625299999998,
            "velocity": 0.3937007874015748
          },
          {
            "duration": 0.16853924999999492,
            "durationTicks": 96,
            "midi": 44,
            "name": "G#2",
            "ticks": 49632,
            "time": 87.13479224999999,
            "velocity": 0.3937007874015748
          },
          {
            "duration": 0.33707850000000406,
            "durationTicks": 192,
            "midi": 46,
            "name": "A#2",
            "ticks": 49728,
            "time": 87.30333149999998,
            "velocity": 0.3937007874015748
          },
          {
            "duration": 0.33707850000000406,
            "durationTicks": 192,
            "midi": 39,
            "name": "D#2",
            "ticks": 49920,
            "time": 87.64040999999999,
            "velocity": 0.3937007874015748
          },
          {
            "duration": 0.33707849999998984,
            "durationTicks": 192,
            "midi": 46,
            "name": "A#2",
            "ticks": 50112,
            "time": 87.97748849999999,
            "velocity": 0.3937007874015748
          },
          {
            "duration": 0.33707850000000406,
            "durationTicks": 192,
            "midi": 39,
            "name": "D#2",
            "ticks": 50304,
            "time": 88.31456699999998,
            "velocity": 0.3937007874015748
          },
          {
            "duration": 0.33707850000000406,
            "durationTicks": 192,
            "midi": 43,
            "name": "G2",
            "ticks": 50496,
            "time": 88.65164549999999,
            "velocity": 0.3937007874015748
          },
          {
            "duration": 0.33707849999998984,
            "durationTicks": 192,
            "midi": 38,
            "name": "D2",
            "ticks": 50688,
            "time": 88.98872399999999,
            "velocity": 0.3937007874015748
          },
          {
            "duration": 0.33707850000000406,
            "durationTicks": 192,
            "midi": 41,
            "name": "F2",
            "ticks": 50880,
            "time": 89.32580249999998,
            "velocity": 0.3937007874015748
          },
          {
            "duration": 0.33707850000000406,
            "durationTicks": 192,
            "midi": 38,
            "name": "D2",
            "ticks": 51072,
            "time": 89.66288099999998,
            "velocity": 0.3937007874015748
          },
          {
            "duration": 0.33707850000000406,
            "durationTicks": 192,
            "midi": 41,
            "name": "F2",
            "ticks": 51264,
            "time": 89.99995949999999,
            "velocity": 0.3937007874015748
          },
          {
            "duration": 0.33707849999998984,
            "durationTicks": 192,
            "midi": 31,
            "name": "G1",
            "ticks": 51456,
            "time": 90.33703799999999,
            "velocity": 0.3937007874015748
          },
          {
            "duration": 0.33707849999998984,
            "durationTicks": 192,
            "midi": 43,
            "name": "G2",
            "ticks": 51456,
            "time": 90.33703799999999,
            "velocity": 0.3937007874015748
          },
          {
            "duration": 0.33707850000000406,
            "durationTicks": 192,
            "midi": 31,
            "name": "G1",
            "ticks": 51648,
            "time": 90.67411649999998,
            "velocity": 0.3937007874015748
          },
          {
            "duration": 0.33707850000000406,
            "durationTicks": 192,
            "midi": 43,
            "name": "G2",
            "ticks": 51648,
            "time": 90.67411649999998,
            "velocity": 0.3937007874015748
          },
          {
            "duration": 0.6741569999999939,
            "durationTicks": 384,
            "midi": 43,
            "name": "G2",
            "ticks": 51840,
            "time": 91.01119499999999,
            "velocity": 0.3937007874015748
          },
          {
            "duration": 0.6741569999999939,
            "durationTicks": 384,
            "midi": 31,
            "name": "G1",
            "ticks": 51840,
            "time": 91.01119499999999,
            "velocity": 0.3937007874015748
          },
          {
            "duration": 0.33707850000000406,
            "durationTicks": 192,
            "midi": 44,
            "name": "G#2",
            "ticks": 52224,
            "time": 91.68535199999998,
            "velocity": 0.3937007874015748
          },
          {
            "duration": 0.6741570000000081,
            "durationTicks": 384,
            "midi": 32,
            "name": "G#1",
            "ticks": 52224,
            "time": 91.68535199999998,
            "velocity": 0.3937007874015748
          },
          {
            "duration": 0.33707850000000406,
            "durationTicks": 192,
            "midi": 44,
            "name": "G#2",
            "ticks": 52416,
            "time": 92.02243049999998,
            "velocity": 0.3937007874015748
          },
          {
            "duration": 0.33707850000000406,
            "durationTicks": 192,
            "midi": 44,
            "name": "G#2",
            "ticks": 52608,
            "time": 92.35950899999999,
            "velocity": 0.3937007874015748
          },
          {
            "duration": 0.6741569999999939,
            "durationTicks": 384,
            "midi": 32,
            "name": "G#1",
            "ticks": 52608,
            "time": 92.35950899999999,
            "velocity": 0.3937007874015748
          },
          {
            "duration": 0.33707849999998984,
            "durationTicks": 192,
            "midi": 44,
            "name": "G#2",
            "ticks": 52800,
            "time": 92.69658749999999,
            "velocity": 0.3937007874015748
          },
          {
            "duration": 0.6741570000000081,
            "durationTicks": 384,
            "midi": 27,
            "name": "D#1",
            "ticks": 52992,
            "time": 93.03366599999998,
            "velocity": 0.3937007874015748
          },
          {
            "duration": 0.33707850000000406,
            "durationTicks": 192,
            "midi": 39,
            "name": "D#2",
            "ticks": 52992,
            "time": 93.03366599999998,
            "velocity": 0.3937007874015748
          },
          {
            "duration": 0.33707850000000406,
            "durationTicks": 192,
            "midi": 39,
            "name": "D#2",
            "ticks": 53184,
            "time": 93.37074449999999,
            "velocity": 0.3937007874015748
          },
          {
            "duration": 0.33707849999998984,
            "durationTicks": 192,
            "midi": 39,
            "name": "D#2",
            "ticks": 53376,
            "time": 93.70782299999999,
            "velocity": 0.3937007874015748
          },
          {
            "duration": 0.6741569999999939,
            "durationTicks": 384,
            "midi": 27,
            "name": "D#1",
            "ticks": 53376,
            "time": 93.70782299999999,
            "velocity": 0.3937007874015748
          },
          {
            "duration": 0.33707850000000406,
            "durationTicks": 192,
            "midi": 39,
            "name": "D#2",
            "ticks": 53568,
            "time": 94.04490149999998,
            "velocity": 0.3937007874015748
          },
          {
            "duration": 0.6741569999999939,
            "durationTicks": 384,
            "midi": 31,
            "name": "G1",
            "ticks": 53760,
            "time": 94.38197999999998,
            "velocity": 0.3937007874015748
          },
          {
            "duration": 0.33707850000000406,
            "durationTicks": 192,
            "midi": 43,
            "name": "G2",
            "ticks": 53760,
            "time": 94.38197999999998,
            "velocity": 0.3937007874015748
          },
          {
            "duration": 0.33707849999998984,
            "durationTicks": 192,
            "midi": 43,
            "name": "G2",
            "ticks": 53952,
            "time": 94.71905849999999,
            "velocity": 0.3937007874015748
          },
          {
            "duration": 0.33707850000000406,
            "durationTicks": 192,
            "midi": 43,
            "name": "G2",
            "ticks": 54144,
            "time": 95.05613699999998,
            "velocity": 0.3937007874015748
          },
          {
            "duration": 0.6741570000000081,
            "durationTicks": 384,
            "midi": 31,
            "name": "G1",
            "ticks": 54144,
            "time": 95.05613699999998,
            "velocity": 0.3937007874015748
          },
          {
            "duration": 0.33707850000000406,
            "durationTicks": 192,
            "midi": 43,
            "name": "G2",
            "ticks": 54336,
            "time": 95.39321549999998,
            "velocity": 0.3937007874015748
          },
          {
            "duration": 0.6741569999999939,
            "durationTicks": 384,
            "midi": 24,
            "name": "C1",
            "ticks": 54528,
            "time": 95.73029399999999,
            "velocity": 0.3937007874015748
          },
          {
            "duration": 0.33707850000000406,
            "durationTicks": 192,
            "midi": 36,
            "name": "C2",
            "ticks": 54528,
            "time": 95.73029399999999,
            "velocity": 0.3937007874015748
          },
          {
            "duration": 0.33707849999998984,
            "durationTicks": 192,
            "midi": 36,
            "name": "C2",
            "ticks": 54720,
            "time": 96.06737249999999,
            "velocity": 0.3937007874015748
          },
          {
            "duration": 0.6741570000000081,
            "durationTicks": 384,
            "midi": 27,
            "name": "D#1",
            "ticks": 54912,
            "time": 96.40445099999998,
            "velocity": 0.3937007874015748
          },
          {
            "duration": 0.33707850000000406,
            "durationTicks": 192,
            "midi": 39,
            "name": "D#2",
            "ticks": 54912,
            "time": 96.40445099999998,
            "velocity": 0.3937007874015748
          },
          {
            "duration": 0.33707850000000406,
            "durationTicks": 192,
            "midi": 39,
            "name": "D#2",
            "ticks": 55104,
            "time": 96.74152949999998,
            "velocity": 0.3937007874015748
          },
          {
            "duration": 0.33707849999998984,
            "durationTicks": 192,
            "midi": 44,
            "name": "G#2",
            "ticks": 55296,
            "time": 97.07860799999999,
            "velocity": 0.3937007874015748
          },
          {
            "duration": 0.6741569999999939,
            "durationTicks": 384,
            "midi": 32,
            "name": "G#1",
            "ticks": 55296,
            "time": 97.07860799999999,
            "velocity": 0.3937007874015748
          },
          {
            "duration": 0.33707850000000406,
            "durationTicks": 192,
            "midi": 44,
            "name": "G#2",
            "ticks": 55488,
            "time": 97.41568649999998,
            "velocity": 0.3937007874015748
          },
          {
            "duration": 0.33707850000000406,
            "durationTicks": 192,
            "midi": 44,
            "name": "G#2",
            "ticks": 55680,
            "time": 97.75276499999998,
            "velocity": 0.3937007874015748
          },
          {
            "duration": 0.6741570000000081,
            "durationTicks": 384,
            "midi": 32,
            "name": "G#1",
            "ticks": 55680,
            "time": 97.75276499999998,
            "velocity": 0.3937007874015748
          },
          {
            "duration": 0.33707850000000406,
            "durationTicks": 192,
            "midi": 44,
            "name": "G#2",
            "ticks": 55872,
            "time": 98.08984349999999,
            "velocity": 0.3937007874015748
          },
          {
            "duration": 0.33707849999998984,
            "durationTicks": 192,
            "midi": 39,
            "name": "D#2",
            "ticks": 56064,
            "time": 98.42692199999999,
            "velocity": 0.3937007874015748
          },
          {
            "duration": 0.6741569999999939,
            "durationTicks": 384,
            "midi": 27,
            "name": "D#1",
            "ticks": 56064,
            "time": 98.42692199999999,
            "velocity": 0.3937007874015748
          },
          {
            "duration": 0.33707850000000406,
            "durationTicks": 192,
            "midi": 39,
            "name": "D#2",
            "ticks": 56256,
            "time": 98.76400049999998,
            "velocity": 0.3937007874015748
          },
          {
            "duration": 0.33707850000000406,
            "durationTicks": 192,
            "midi": 39,
            "name": "D#2",
            "ticks": 56448,
            "time": 99.10107899999998,
            "velocity": 0.3937007874015748
          },
          {
            "duration": 0.6741569999999939,
            "durationTicks": 384,
            "midi": 27,
            "name": "D#1",
            "ticks": 56448,
            "time": 99.10107899999998,
            "velocity": 0.3937007874015748
          },
          {
            "duration": 0.33707849999998984,
            "durationTicks": 192,
            "midi": 39,
            "name": "D#2",
            "ticks": 56640,
            "time": 99.43815749999999,
            "velocity": 0.3937007874015748
          },
          {
            "duration": 0.33707850000000406,
            "durationTicks": 192,
            "midi": 43,
            "name": "G2",
            "ticks": 56832,
            "time": 99.77523599999998,
            "velocity": 0.3937007874015748
          },
          {
            "duration": 0.6741570000000081,
            "durationTicks": 384,
            "midi": 31,
            "name": "G1",
            "ticks": 56832,
            "time": 99.77523599999998,
            "velocity": 0.3937007874015748
          },
          {
            "duration": 0.33707850000000406,
            "durationTicks": 192,
            "midi": 43,
            "name": "G2",
            "ticks": 57024,
            "time": 100.11231449999998,
            "velocity": 0.3937007874015748
          },
          {
            "duration": 0.33707850000000406,
            "durationTicks": 192,
            "midi": 43,
            "name": "G2",
            "ticks": 57216,
            "time": 100.44939299999999,
            "velocity": 0.3937007874015748
          },
          {
            "duration": 0.6741569999999939,
            "durationTicks": 384,
            "midi": 31,
            "name": "G1",
            "ticks": 57216,
            "time": 100.44939299999999,
            "velocity": 0.3937007874015748
          },
          {
            "duration": 0.33707849999998984,
            "durationTicks": 192,
            "midi": 43,
            "name": "G2",
            "ticks": 57408,
            "time": 100.78647149999999,
            "velocity": 0.3937007874015748
          },
          {
            "duration": 0.33707850000000406,
            "durationTicks": 192,
            "midi": 36,
            "name": "C2",
            "ticks": 57600,
            "time": 101.12354999999998,
            "velocity": 0.3937007874015748
          },
          {
            "duration": 0.6741570000000081,
            "durationTicks": 384,
            "midi": 24,
            "name": "C1",
            "ticks": 57600,
            "time": 101.12354999999998,
            "velocity": 0.3937007874015748
          },
          {
            "duration": 0.33707850000000406,
            "durationTicks": 192,
            "midi": 36,
            "name": "C2",
            "ticks": 57792,
            "time": 101.46062849999998,
            "velocity": 0.3937007874015748
          },
          {
            "duration": 0.6741569999999939,
            "durationTicks": 384,
            "midi": 27,
            "name": "D#1",
            "ticks": 57984,
            "time": 101.79770699999999,
            "velocity": 0.3937007874015748
          },
          {
            "duration": 0.33707849999998984,
            "durationTicks": 192,
            "midi": 39,
            "name": "D#2",
            "ticks": 57984,
            "time": 101.79770699999999,
            "velocity": 0.3937007874015748
          },
          {
            "duration": 0.33707850000000406,
            "durationTicks": 192,
            "midi": 39,
            "name": "D#2",
            "ticks": 58176,
            "time": 102.13478549999998,
            "velocity": 0.3937007874015748
          },
          {
            "duration": 0.33707850000000406,
            "durationTicks": 192,
            "midi": 44,
            "name": "G#2",
            "ticks": 58368,
            "time": 102.47186399999998,
            "velocity": 0.3937007874015748
          },
          {
            "duration": 0.6741570000000081,
            "durationTicks": 384,
            "midi": 32,
            "name": "G#1",
            "ticks": 58368,
            "time": 102.47186399999998,
            "velocity": 0.3937007874015748
          },
          {
            "duration": 0.33707850000000406,
            "durationTicks": 192,
            "midi": 44,
            "name": "G#2",
            "ticks": 58560,
            "time": 102.80894249999999,
            "velocity": 0.3937007874015748
          },
          {
            "duration": 0.6741569999999939,
            "durationTicks": 384,
            "midi": 32,
            "name": "G#1",
            "ticks": 58752,
            "time": 103.14602099999999,
            "velocity": 0.3937007874015748
          },
          {
            "duration": 0.33707849999998984,
            "durationTicks": 192,
            "midi": 44,
            "name": "G#2",
            "ticks": 58752,
            "time": 103.14602099999999,
            "velocity": 0.3937007874015748
          },
          {
            "duration": 0.33707850000000406,
            "durationTicks": 192,
            "midi": 44,
            "name": "G#2",
            "ticks": 58944,
            "time": 103.48309949999998,
            "velocity": 0.3937007874015748
          },
          {
            "duration": 0.33707850000000406,
            "durationTicks": 192,
            "midi": 39,
            "name": "D#2",
            "ticks": 59136,
            "time": 103.82017799999998,
            "velocity": 0.3937007874015748
          },
          {
            "duration": 0.6741569999999939,
            "durationTicks": 384,
            "midi": 27,
            "name": "D#1",
            "ticks": 59136,
            "time": 103.82017799999998,
            "velocity": 0.3937007874015748
          },
          {
            "duration": 0.33707849999998984,
            "durationTicks": 192,
            "midi": 39,
            "name": "D#2",
            "ticks": 59328,
            "time": 104.15725649999999,
            "velocity": 0.3937007874015748
          },
          {
            "duration": 0.6741570000000081,
            "durationTicks": 384,
            "midi": 27,
            "name": "D#1",
            "ticks": 59520,
            "time": 104.49433499999998,
            "velocity": 0.3937007874015748
          },
          {
            "duration": 0.33707850000000406,
            "durationTicks": 192,
            "midi": 39,
            "name": "D#2",
            "ticks": 59520,
            "time": 104.49433499999998,
            "velocity": 0.3937007874015748
          },
          {
            "duration": 0.33707850000000406,
            "durationTicks": 192,
            "midi": 39,
            "name": "D#2",
            "ticks": 59712,
            "time": 104.83141349999998,
            "velocity": 0.3937007874015748
          },
          {
            "duration": 0.33707850000000406,
            "durationTicks": 192,
            "midi": 43,
            "name": "G2",
            "ticks": 59904,
            "time": 105.16849199999999,
            "velocity": 0.3937007874015748
          },
          {
            "duration": 0.6741569999999939,
            "durationTicks": 384,
            "midi": 31,
            "name": "G1",
            "ticks": 59904,
            "time": 105.16849199999999,
            "velocity": 0.3937007874015748
          },
          {
            "duration": 0.33707849999998984,
            "durationTicks": 192,
            "midi": 43,
            "name": "G2",
            "ticks": 60096,
            "time": 105.50557049999999,
            "velocity": 0.3937007874015748
          },
          {
            "duration": 0.6741570000000081,
            "durationTicks": 384,
            "midi": 31,
            "name": "G1",
            "ticks": 60288,
            "time": 105.84264899999998,
            "velocity": 0.3937007874015748
          },
          {
            "duration": 0.33707850000000406,
            "durationTicks": 192,
            "midi": 43,
            "name": "G2",
            "ticks": 60288,
            "time": 105.84264899999998,
            "velocity": 0.3937007874015748
          },
          {
            "duration": 0.33707850000000406,
            "durationTicks": 192,
            "midi": 43,
            "name": "G2",
            "ticks": 60480,
            "time": 106.17972749999998,
            "velocity": 0.3937007874015748
          },
          {
            "duration": 0.6741569999999939,
            "durationTicks": 384,
            "midi": 24,
            "name": "C1",
            "ticks": 60672,
            "time": 106.51680599999999,
            "velocity": 0.3937007874015748
          },
          {
            "duration": 0.33707849999998984,
            "durationTicks": 192,
            "midi": 36,
            "name": "C2",
            "ticks": 60672,
            "time": 106.51680599999999,
            "velocity": 0.3937007874015748
          },
          {
            "duration": 0.33707850000000406,
            "durationTicks": 192,
            "midi": 36,
            "name": "C2",
            "ticks": 60864,
            "time": 106.85388449999998,
            "velocity": 0.3937007874015748
          },
          {
            "duration": 0.33707850000000406,
            "durationTicks": 192,
            "midi": 39,
            "name": "D#2",
            "ticks": 61056,
            "time": 107.19096299999998,
            "velocity": 0.3937007874015748
          },
          {
            "duration": 0.6741570000000081,
            "durationTicks": 384,
            "midi": 27,
            "name": "D#1",
            "ticks": 61056,
            "time": 107.19096299999998,
            "velocity": 0.3937007874015748
          },
          {
            "duration": 0.33707850000000406,
            "durationTicks": 192,
            "midi": 39,
            "name": "D#2",
            "ticks": 61248,
            "time": 107.52804149999999,
            "velocity": 0.3937007874015748
          },
          {
            "duration": 0.33707849999998984,
            "durationTicks": 192,
            "midi": 44,
            "name": "G#2",
            "ticks": 61440,
            "time": 107.86511999999999,
            "velocity": 0.3937007874015748
          },
          {
            "duration": 0.6741569999999939,
            "durationTicks": 384,
            "midi": 32,
            "name": "G#1",
            "ticks": 61440,
            "time": 107.86511999999999,
            "velocity": 0.3937007874015748
          },
          {
            "duration": 0.33707850000000406,
            "durationTicks": 192,
            "midi": 44,
            "name": "G#2",
            "ticks": 61632,
            "time": 108.20219849999998,
            "velocity": 0.3937007874015748
          },
          {
            "duration": 0.33707850000000406,
            "durationTicks": 192,
            "midi": 44,
            "name": "G#2",
            "ticks": 61824,
            "time": 108.53927699999998,
            "velocity": 0.3937007874015748
          },
          {
            "duration": 0.6741569999999939,
            "durationTicks": 384,
            "midi": 32,
            "name": "G#1",
            "ticks": 61824,
            "time": 108.53927699999998,
            "velocity": 0.3937007874015748
          },
          {
            "duration": 0.33707849999998984,
            "durationTicks": 192,
            "midi": 44,
            "name": "G#2",
            "ticks": 62016,
            "time": 108.87635549999999,
            "velocity": 0.3937007874015748
          },
          {
            "duration": 0.6741570000000081,
            "durationTicks": 384,
            "midi": 27,
            "name": "D#1",
            "ticks": 62208,
            "time": 109.21343399999998,
            "velocity": 0.3937007874015748
          },
          {
            "duration": 0.33707850000000406,
            "durationTicks": 192,
            "midi": 39,
            "name": "D#2",
            "ticks": 62208,
            "time": 109.21343399999998,
            "velocity": 0.3937007874015748
          },
          {
            "duration": 0.33707850000000406,
            "durationTicks": 192,
            "midi": 39,
            "name": "D#2",
            "ticks": 62400,
            "time": 109.55051249999998,
            "velocity": 0.3937007874015748
          },
          {
            "duration": 0.33707849999998984,
            "durationTicks": 192,
            "midi": 39,
            "name": "D#2",
            "ticks": 62592,
            "time": 109.88759099999999,
            "velocity": 0.3937007874015748
          },
          {
            "duration": 0.6741569999999939,
            "durationTicks": 384,
            "midi": 27,
            "name": "D#1",
            "ticks": 62592,
            "time": 109.88759099999999,
            "velocity": 0.3937007874015748
          },
          {
            "duration": 0.33707850000000406,
            "durationTicks": 192,
            "midi": 39,
            "name": "D#2",
            "ticks": 62784,
            "time": 110.22466949999998,
            "velocity": 0.3937007874015748
          },
          {
            "duration": 0.33707850000000406,
            "durationTicks": 192,
            "midi": 38,
            "name": "D2",
            "ticks": 62976,
            "time": 110.56174799999998,
            "velocity": 0.3937007874015748
          },
          {
            "duration": 0.6741570000000081,
            "durationTicks": 384,
            "midi": 26,
            "name": "D1",
            "ticks": 62976,
            "time": 110.56174799999998,
            "velocity": 0.3937007874015748
          },
          {
            "duration": 0.33707850000000406,
            "durationTicks": 192,
            "midi": 38,
            "name": "D2",
            "ticks": 63168,
            "time": 110.89882649999998,
            "velocity": 0.3937007874015748
          },
          {
            "duration": 0.33707849999998984,
            "durationTicks": 192,
            "midi": 43,
            "name": "G2",
            "ticks": 63360,
            "time": 111.23590499999999,
            "velocity": 0.3937007874015748
          },
          {
            "duration": 0.6741569999999939,
            "durationTicks": 384,
            "midi": 31,
            "name": "G1",
            "ticks": 63360,
            "time": 111.23590499999999,
            "velocity": 0.3937007874015748
          },
          {
            "duration": 0.33707850000000406,
            "durationTicks": 192,
            "midi": 43,
            "name": "G2",
            "ticks": 63552,
            "time": 111.57298349999998,
            "velocity": 0.3937007874015748
          },
          {
            "duration": 0.33707850000000406,
            "durationTicks": 192,
            "midi": 36,
            "name": "C2",
            "ticks": 64512,
            "time": 113.25837599999998,
            "velocity": 0.3937007874015748
          },
          {
            "duration": 0.33707850000000406,
            "durationTicks": 192,
            "midi": 24,
            "name": "C1",
            "ticks": 64512,
            "time": 113.25837599999998,
            "velocity": 0.3937007874015748
          },
          {
            "duration": 0.33707849999998984,
            "durationTicks": 192,
            "midi": 36,
            "name": "C2",
            "ticks": 64704,
            "time": 113.59545449999999,
            "velocity": 0.3937007874015748
          },
          {
            "duration": 0.33707849999998984,
            "durationTicks": 192,
            "midi": 48,
            "name": "C3",
            "ticks": 64704,
            "time": 113.59545449999999,
            "velocity": 0.3937007874015748
          },
          {
            "duration": 0.33707850000000406,
            "durationTicks": 192,
            "midi": 51,
            "name": "D#3",
            "ticks": 64896,
            "time": 113.93253299999998,
            "velocity": 0.3937007874015748
          },
          {
            "duration": 0.33707850000000406,
            "durationTicks": 192,
            "midi": 39,
            "name": "D#2",
            "ticks": 64896,
            "time": 113.93253299999998,
            "velocity": 0.3937007874015748
          },
          {
            "duration": 0.33707850000000406,
            "durationTicks": 192,
            "midi": 38,
            "name": "D2",
            "ticks": 65088,
            "time": 114.26961149999998,
            "velocity": 0.3937007874015748
          },
          {
            "duration": 0.33707850000000406,
            "durationTicks": 192,
            "midi": 50,
            "name": "D3",
            "ticks": 65088,
            "time": 114.26961149999998,
            "velocity": 0.3937007874015748
          },
          {
            "duration": 0.33707849999998984,
            "durationTicks": 192,
            "midi": 43,
            "name": "G2",
            "ticks": 65280,
            "time": 114.60668999999999,
            "velocity": 0.3937007874015748
          },
          {
            "duration": 0.33707849999998984,
            "durationTicks": 192,
            "midi": 31,
            "name": "G1",
            "ticks": 65280,
            "time": 114.60668999999999,
            "velocity": 0.3937007874015748
          },
          {
            "duration": 0.33707850000000406,
            "durationTicks": 192,
            "midi": 34,
            "name": "A#1",
            "ticks": 65472,
            "time": 114.94376849999998,
            "velocity": 0.3937007874015748
          },
          {
            "duration": 0.33707850000000406,
            "durationTicks": 192,
            "midi": 46,
            "name": "A#2",
            "ticks": 65472,
            "time": 114.94376849999998,
            "velocity": 0.3937007874015748
          },
          {
            "duration": 0.33707850000000406,
            "durationTicks": 192,
            "midi": 39,
            "name": "D#2",
            "ticks": 65664,
            "time": 115.28084699999998,
            "velocity": 0.3937007874015748
          },
          {
            "duration": 0.33707850000000406,
            "durationTicks": 192,
            "midi": 51,
            "name": "D#3",
            "ticks": 65664,
            "time": 115.28084699999998,
            "velocity": 0.3937007874015748
          },
          {
            "duration": 0.33707850000000406,
            "durationTicks": 192,
            "midi": 50,
            "name": "D3",
            "ticks": 65856,
            "time": 115.61792549999998,
            "velocity": 0.3937007874015748
          },
          {
            "duration": 0.33707850000000406,
            "durationTicks": 192,
            "midi": 38,
            "name": "D2",
            "ticks": 65856,
            "time": 115.61792549999998,
            "velocity": 0.3937007874015748
          },
          {
            "duration": 0.33707849999998984,
            "durationTicks": 192,
            "midi": 44,
            "name": "G#2",
            "ticks": 66048,
            "time": 115.95500399999999,
            "velocity": 0.3937007874015748
          },
          {
            "duration": 0.33707849999998984,
            "durationTicks": 192,
            "midi": 32,
            "name": "G#1",
            "ticks": 66048,
            "time": 115.95500399999999,
            "velocity": 0.3937007874015748
          },
          {
            "duration": 0.33707850000000406,
            "durationTicks": 192,
            "midi": 48,
            "name": "C3",
            "ticks": 66240,
            "time": 116.29208249999998,
            "velocity": 0.3937007874015748
          },
          {
            "duration": 0.33707850000000406,
            "durationTicks": 192,
            "midi": 36,
            "name": "C2",
            "ticks": 66240,
            "time": 116.29208249999998,
            "velocity": 0.3937007874015748
          },
          {
            "duration": 0.33707850000000406,
            "durationTicks": 192,
            "midi": 39,
            "name": "D#2",
            "ticks": 66432,
            "time": 116.62916099999998,
            "velocity": 0.3937007874015748
          },
          {
            "duration": 0.33707850000000406,
            "durationTicks": 192,
            "midi": 51,
            "name": "D#3",
            "ticks": 66432,
            "time": 116.62916099999998,
            "velocity": 0.3937007874015748
          },
          {
            "duration": 0.33707849999998984,
            "durationTicks": 192,
            "midi": 38,
            "name": "D2",
            "ticks": 66624,
            "time": 116.96623949999999,
            "velocity": 0.3937007874015748
          },
          {
            "duration": 0.33707849999998984,
            "durationTicks": 192,
            "midi": 50,
            "name": "D3",
            "ticks": 66624,
            "time": 116.96623949999999,
            "velocity": 0.3937007874015748
          },
          {
            "duration": 0.33707850000000406,
            "durationTicks": 192,
            "midi": 39,
            "name": "D#2",
            "ticks": 66816,
            "time": 117.30331799999998,
            "velocity": 0.3937007874015748
          },
          {
            "duration": 0.33707850000000406,
            "durationTicks": 192,
            "midi": 51,
            "name": "D#3",
            "ticks": 66816,
            "time": 117.30331799999998,
            "velocity": 0.3937007874015748
          },
          {
            "duration": 0.33707850000000406,
            "durationTicks": 192,
            "midi": 52,
            "name": "E3",
            "ticks": 67008,
            "time": 117.64039649999998,
            "velocity": 0.3937007874015748
          },
          {
            "duration": 0.33707850000000406,
            "durationTicks": 192,
            "midi": 40,
            "name": "E2",
            "ticks": 67008,
            "time": 117.64039649999998,
            "velocity": 0.3937007874015748
          },
          {
            "duration": 0.33707850000000406,
            "durationTicks": 192,
            "midi": 58,
            "name": "A#3",
            "ticks": 67200,
            "time": 117.97747499999998,
            "velocity": 0.3937007874015748
          },
          {
            "duration": 0.33707850000000406,
            "durationTicks": 192,
            "midi": 46,
            "name": "A#2",
            "ticks": 67200,
            "time": 117.97747499999998,
            "velocity": 0.3937007874015748
          },
          {
            "duration": 0.33707849999998984,
            "durationTicks": 192,
            "midi": 36,
            "name": "C2",
            "ticks": 67392,
            "time": 118.31455349999999,
            "velocity": 0.3937007874015748
          },
          {
            "duration": 0.33707849999998984,
            "durationTicks": 192,
            "midi": 48,
            "name": "C3",
            "ticks": 67392,
            "time": 118.31455349999999,
            "velocity": 0.3937007874015748
          },
          {
            "duration": 0.33707850000000406,
            "durationTicks": 192,
            "midi": 29,
            "name": "F1",
            "ticks": 67584,
            "time": 118.65163199999998,
            "velocity": 0.3937007874015748
          },
          {
            "duration": 0.33707850000000406,
            "durationTicks": 192,
            "midi": 41,
            "name": "F2",
            "ticks": 67584,
            "time": 118.65163199999998,
            "velocity": 0.3937007874015748
          },
          {
            "duration": 0.33707850000000406,
            "durationTicks": 192,
            "midi": 44,
            "name": "G#2",
            "ticks": 67776,
            "time": 118.98871049999998,
            "velocity": 0.3937007874015748
          },
          {
            "duration": 0.33707850000000406,
            "durationTicks": 192,
            "midi": 32,
            "name": "G#1",
            "ticks": 67776,
            "time": 118.98871049999998,
            "velocity": 0.3937007874015748
          },
          {
            "duration": 0.33707849999998984,
            "durationTicks": 192,
            "midi": 39,
            "name": "D#2",
            "ticks": 67968,
            "time": 119.32578899999999,
            "velocity": 0.3937007874015748
          },
          {
            "duration": 0.33707849999998984,
            "durationTicks": 192,
            "midi": 51,
            "name": "D#3",
            "ticks": 67968,
            "time": 119.32578899999999,
            "velocity": 0.3937007874015748
          },
          {
            "duration": 0.33707850000000406,
            "durationTicks": 192,
            "midi": 48,
            "name": "C3",
            "ticks": 68160,
            "time": 119.66286749999998,
            "velocity": 0.3937007874015748
          },
          {
            "duration": 0.33707850000000406,
            "durationTicks": 192,
            "midi": 36,
            "name": "C2",
            "ticks": 68160,
            "time": 119.66286749999998,
            "velocity": 0.3937007874015748
          },
          {
            "duration": 0.33707850000000406,
            "durationTicks": 192,
            "midi": 39,
            "name": "D#2",
            "ticks": 68352,
            "time": 119.99994599999998,
            "velocity": 0.3937007874015748
          },
          {
            "duration": 0.33707850000000406,
            "durationTicks": 192,
            "midi": 27,
            "name": "D#1",
            "ticks": 68352,
            "time": 119.99994599999998,
            "velocity": 0.3937007874015748
          },
          {
            "duration": 0.33707850000000406,
            "durationTicks": 192,
            "midi": 46,
            "name": "A#2",
            "ticks": 68544,
            "time": 120.33702449999998,
            "velocity": 0.3937007874015748
          },
          {
            "duration": 0.33707850000000406,
            "durationTicks": 192,
            "midi": 34,
            "name": "A#1",
            "ticks": 68544,
            "time": 120.33702449999998,
            "velocity": 0.3937007874015748
          },
          {
            "duration": 0.33707849999998984,
            "durationTicks": 192,
            "midi": 51,
            "name": "D#3",
            "ticks": 68736,
            "time": 120.67410299999999,
            "velocity": 0.3937007874015748
          },
          {
            "duration": 0.33707849999998984,
            "durationTicks": 192,
            "midi": 39,
            "name": "D#2",
            "ticks": 68736,
            "time": 120.67410299999999,
            "velocity": 0.3937007874015748
          },
          {
            "duration": 0.33707850000000406,
            "durationTicks": 192,
            "midi": 34,
            "name": "A#1",
            "ticks": 68928,
            "time": 121.01118149999998,
            "velocity": 0.3937007874015748
          },
          {
            "duration": 0.33707850000000406,
            "durationTicks": 192,
            "midi": 46,
            "name": "A#2",
            "ticks": 68928,
            "time": 121.01118149999998,
            "velocity": 0.3937007874015748
          },
          {
            "duration": 0.33707850000000406,
            "durationTicks": 192,
            "midi": 38,
            "name": "D2",
            "ticks": 69120,
            "time": 121.34825999999998,
            "velocity": 0.3937007874015748
          },
          {
            "duration": 0.33707850000000406,
            "durationTicks": 192,
            "midi": 26,
            "name": "D1",
            "ticks": 69120,
            "time": 121.34825999999998,
            "velocity": 0.3937007874015748
          },
          {
            "duration": 0.33707849999998984,
            "durationTicks": 192,
            "midi": 43,
            "name": "G2",
            "ticks": 69312,
            "time": 121.68533849999999,
            "velocity": 0.3937007874015748
          },
          {
            "duration": 0.33707849999998984,
            "durationTicks": 192,
            "midi": 31,
            "name": "G1",
            "ticks": 69312,
            "time": 121.68533849999999,
            "velocity": 0.3937007874015748
          },
          {
            "duration": 0.33707850000000406,
            "durationTicks": 192,
            "midi": 39,
            "name": "D#2",
            "ticks": 69504,
            "time": 122.02241699999998,
            "velocity": 0.3937007874015748
          },
          {
            "duration": 0.33707850000000406,
            "durationTicks": 192,
            "midi": 51,
            "name": "D#3",
            "ticks": 69504,
            "time": 122.02241699999998,
            "velocity": 0.3937007874015748
          },
          {
            "duration": 0.33707850000000406,
            "durationTicks": 192,
            "midi": 46,
            "name": "A#2",
            "ticks": 69696,
            "time": 122.35949549999998,
            "velocity": 0.3937007874015748
          },
          {
            "duration": 0.33707850000000406,
            "durationTicks": 192,
            "midi": 34,
            "name": "A#1",
            "ticks": 69696,
            "time": 122.35949549999998,
            "velocity": 0.3937007874015748
          },
          {
            "duration": 0.33707849999998984,
            "durationTicks": 192,
            "midi": 38,
            "name": "D2",
            "ticks": 69888,
            "time": 122.69657399999998,
            "velocity": 0.3937007874015748
          },
          {
            "duration": 0.33707849999998984,
            "durationTicks": 192,
            "midi": 26,
            "name": "D1",
            "ticks": 69888,
            "time": 122.69657399999998,
            "velocity": 0.3937007874015748
          },
          {
            "duration": 0.33707850000000406,
            "durationTicks": 192,
            "midi": 31,
            "name": "G1",
            "ticks": 70080,
            "time": 123.03365249999997,
            "velocity": 0.3937007874015748
          },
          {
            "duration": 0.33707850000000406,
            "durationTicks": 192,
            "midi": 43,
            "name": "G2",
            "ticks": 70080,
            "time": 123.03365249999997,
            "velocity": 0.3937007874015748
          },
          {
            "duration": 0.33707850000000406,
            "durationTicks": 192,
            "midi": 50,
            "name": "D3",
            "ticks": 70272,
            "time": 123.37073099999998,
            "velocity": 0.3937007874015748
          },
          {
            "duration": 0.33707850000000406,
            "durationTicks": 192,
            "midi": 38,
            "name": "D2",
            "ticks": 70272,
            "time": 123.37073099999998,
            "velocity": 0.3937007874015748
          },
          {
            "duration": 0.33707850000000406,
            "durationTicks": 192,
            "midi": 47,
            "name": "B2",
            "ticks": 70464,
            "time": 123.70780949999998,
            "velocity": 0.3937007874015748
          },
          {
            "duration": 0.33707850000000406,
            "durationTicks": 192,
            "midi": 35,
            "name": "B1",
            "ticks": 70464,
            "time": 123.70780949999998,
            "velocity": 0.3937007874015748
          },
          {
            "duration": 0.33707849999998984,
            "durationTicks": 192,
            "midi": 24,
            "name": "C1",
            "ticks": 70656,
            "time": 124.04488799999999,
            "velocity": 0.3937007874015748
          },
          {
            "duration": 0.33707849999998984,
            "durationTicks": 192,
            "midi": 36,
            "name": "C2",
            "ticks": 70656,
            "time": 124.04488799999999,
            "velocity": 0.3937007874015748
          },
          {
            "duration": 0.33707850000000406,
            "durationTicks": 192,
            "midi": 36,
            "name": "C2",
            "ticks": 70848,
            "time": 124.38196649999998,
            "velocity": 0.3937007874015748
          },
          {
            "duration": 0.33707850000000406,
            "durationTicks": 192,
            "midi": 48,
            "name": "C3",
            "ticks": 70848,
            "time": 124.38196649999998,
            "velocity": 0.3937007874015748
          },
          {
            "duration": 0.33707850000000406,
            "durationTicks": 192,
            "midi": 39,
            "name": "D#2",
            "ticks": 71040,
            "time": 124.71904499999998,
            "velocity": 0.3937007874015748
          },
          {
            "duration": 0.33707850000000406,
            "durationTicks": 192,
            "midi": 51,
            "name": "D#3",
            "ticks": 71040,
            "time": 124.71904499999998,
            "velocity": 0.3937007874015748
          },
          {
            "duration": 0.33707849999998984,
            "durationTicks": 192,
            "midi": 50,
            "name": "D3",
            "ticks": 71232,
            "time": 125.05612349999998,
            "velocity": 0.3937007874015748
          },
          {
            "duration": 0.33707849999998984,
            "durationTicks": 192,
            "midi": 38,
            "name": "D2",
            "ticks": 71232,
            "time": 125.05612349999998,
            "velocity": 0.3937007874015748
          },
          {
            "duration": 0.33707850000000406,
            "durationTicks": 192,
            "midi": 31,
            "name": "G1",
            "ticks": 71424,
            "time": 125.39320199999997,
            "velocity": 0.3937007874015748
          },
          {
            "duration": 0.33707850000000406,
            "durationTicks": 192,
            "midi": 43,
            "name": "G2",
            "ticks": 71424,
            "time": 125.39320199999997,
            "velocity": 0.3937007874015748
          },
          {
            "duration": 0.33707850000000406,
            "durationTicks": 192,
            "midi": 46,
            "name": "A#2",
            "ticks": 71616,
            "time": 125.73028049999998,
            "velocity": 0.3937007874015748
          },
          {
            "duration": 0.33707850000000406,
            "durationTicks": 192,
            "midi": 34,
            "name": "A#1",
            "ticks": 71616,
            "time": 125.73028049999998,
            "velocity": 0.3937007874015748
          },
          {
            "duration": 0.33707850000000406,
            "durationTicks": 192,
            "midi": 51,
            "name": "D#3",
            "ticks": 71808,
            "time": 126.06735899999998,
            "velocity": 0.3937007874015748
          },
          {
            "duration": 0.33707850000000406,
            "durationTicks": 192,
            "midi": 39,
            "name": "D#2",
            "ticks": 71808,
            "time": 126.06735899999998,
            "velocity": 0.3937007874015748
          },
          {
            "duration": 0.33707849999998984,
            "durationTicks": 192,
            "midi": 50,
            "name": "D3",
            "ticks": 72000,
            "time": 126.40443749999999,
            "velocity": 0.3937007874015748
          },
          {
            "duration": 0.33707849999998984,
            "durationTicks": 192,
            "midi": 38,
            "name": "D2",
            "ticks": 72000,
            "time": 126.40443749999999,
            "velocity": 0.3937007874015748
          },
          {
            "duration": 0.33707850000000406,
            "durationTicks": 192,
            "midi": 44,
            "name": "G#2",
            "ticks": 72192,
            "time": 126.74151599999998,
            "velocity": 0.3937007874015748
          },
          {
            "duration": 0.33707850000000406,
            "durationTicks": 192,
            "midi": 32,
            "name": "G#1",
            "ticks": 72192,
            "time": 126.74151599999998,
            "velocity": 0.3937007874015748
          },
          {
            "duration": 0.33707850000000406,
            "durationTicks": 192,
            "midi": 36,
            "name": "C2",
            "ticks": 72384,
            "time": 127.07859449999998,
            "velocity": 0.3937007874015748
          },
          {
            "duration": 0.33707850000000406,
            "durationTicks": 192,
            "midi": 48,
            "name": "C3",
            "ticks": 72384,
            "time": 127.07859449999998,
            "velocity": 0.3937007874015748
          },
          {
            "duration": 0.33707849999998984,
            "durationTicks": 192,
            "midi": 51,
            "name": "D#3",
            "ticks": 72576,
            "time": 127.41567299999998,
            "velocity": 0.3937007874015748
          },
          {
            "duration": 0.33707849999998984,
            "durationTicks": 192,
            "midi": 39,
            "name": "D#2",
            "ticks": 72576,
            "time": 127.41567299999998,
            "velocity": 0.3937007874015748
          },
          {
            "duration": 0.33707850000000406,
            "durationTicks": 192,
            "midi": 38,
            "name": "D2",
            "ticks": 72768,
            "time": 127.75275149999997,
            "velocity": 0.3937007874015748
          },
          {
            "duration": 0.33707850000000406,
            "durationTicks": 192,
            "midi": 50,
            "name": "D3",
            "ticks": 72768,
            "time": 127.75275149999997,
            "velocity": 0.3937007874015748
          },
          {
            "duration": 0.33707849999998984,
            "durationTicks": 192,
            "midi": 51,
            "name": "D#3",
            "ticks": 72960,
            "time": 128.08982999999998,
            "velocity": 0.3937007874015748
          },
          {
            "duration": 0.33707849999998984,
            "durationTicks": 192,
            "midi": 39,
            "name": "D#2",
            "ticks": 72960,
            "time": 128.08982999999998,
            "velocity": 0.3937007874015748
          },
          {
            "duration": 0.33707850000001827,
            "durationTicks": 192,
            "midi": 52,
            "name": "E3",
            "ticks": 73152,
            "time": 128.42690849999997,
            "velocity": 0.3937007874015748
          },
          {
            "duration": 0.33707850000001827,
            "durationTicks": 192,
            "midi": 40,
            "name": "E2",
            "ticks": 73152,
            "time": 128.42690849999997,
            "velocity": 0.3937007874015748
          },
          {
            "duration": 0.33707849999998984,
            "durationTicks": 192,
            "midi": 58,
            "name": "A#3",
            "ticks": 73344,
            "time": 128.763987,
            "velocity": 0.3937007874015748
          },
          {
            "duration": 0.33707849999998984,
            "durationTicks": 192,
            "midi": 46,
            "name": "A#2",
            "ticks": 73344,
            "time": 128.763987,
            "velocity": 0.3937007874015748
          },
          {
            "duration": 0.33707849999998984,
            "durationTicks": 192,
            "midi": 36,
            "name": "C2",
            "ticks": 73536,
            "time": 129.10106549999998,
            "velocity": 0.3937007874015748
          },
          {
            "duration": 0.33707849999998984,
            "durationTicks": 192,
            "midi": 48,
            "name": "C3",
            "ticks": 73536,
            "time": 129.10106549999998,
            "velocity": 0.3937007874015748
          },
          {
            "duration": 0.33707850000001827,
            "durationTicks": 192,
            "midi": 41,
            "name": "F2",
            "ticks": 73728,
            "time": 129.43814399999997,
            "velocity": 0.3937007874015748
          },
          {
            "duration": 0.33707850000001827,
            "durationTicks": 192,
            "midi": 29,
            "name": "F1",
            "ticks": 73728,
            "time": 129.43814399999997,
            "velocity": 0.3937007874015748
          },
          {
            "duration": 0.33707849999998984,
            "durationTicks": 192,
            "midi": 44,
            "name": "G#2",
            "ticks": 73920,
            "time": 129.77522249999998,
            "velocity": 0.3937007874015748
          },
          {
            "duration": 0.33707849999998984,
            "durationTicks": 192,
            "midi": 32,
            "name": "G#1",
            "ticks": 73920,
            "time": 129.77522249999998,
            "velocity": 0.3937007874015748
          },
          {
            "duration": 0.33707850000001827,
            "durationTicks": 192,
            "midi": 39,
            "name": "D#2",
            "ticks": 74112,
            "time": 130.11230099999997,
            "velocity": 0.3937007874015748
          },
          {
            "duration": 0.33707850000001827,
            "durationTicks": 192,
            "midi": 51,
            "name": "D#3",
            "ticks": 74112,
            "time": 130.11230099999997,
            "velocity": 0.3937007874015748
          },
          {
            "duration": 0.33707849999998984,
            "durationTicks": 192,
            "midi": 48,
            "name": "C3",
            "ticks": 74304,
            "time": 130.4493795,
            "velocity": 0.3937007874015748
          },
          {
            "duration": 0.33707849999998984,
            "durationTicks": 192,
            "midi": 36,
            "name": "C2",
            "ticks": 74304,
            "time": 130.4493795,
            "velocity": 0.3937007874015748
          },
          {
            "duration": 0.33707849999998984,
            "durationTicks": 192,
            "midi": 27,
            "name": "D#1",
            "ticks": 74496,
            "time": 130.78645799999998,
            "velocity": 0.3937007874015748
          },
          {
            "duration": 0.33707849999998984,
            "durationTicks": 192,
            "midi": 39,
            "name": "D#2",
            "ticks": 74496,
            "time": 130.78645799999998,
            "velocity": 0.3937007874015748
          },
          {
            "duration": 0.33707850000001827,
            "durationTicks": 192,
            "midi": 46,
            "name": "A#2",
            "ticks": 74688,
            "time": 131.12353649999997,
            "velocity": 0.3937007874015748
          },
          {
            "duration": 0.33707850000001827,
            "durationTicks": 192,
            "midi": 34,
            "name": "A#1",
            "ticks": 74688,
            "time": 131.12353649999997,
            "velocity": 0.3937007874015748
          },
          {
            "duration": 0.33707849999998984,
            "durationTicks": 192,
            "midi": 51,
            "name": "D#3",
            "ticks": 74880,
            "time": 131.460615,
            "velocity": 0.3937007874015748
          },
          {
            "duration": 0.33707849999998984,
            "durationTicks": 192,
            "midi": 39,
            "name": "D#2",
            "ticks": 74880,
            "time": 131.460615,
            "velocity": 0.3937007874015748
          },
          {
            "duration": 0.33707849999998984,
            "durationTicks": 192,
            "midi": 46,
            "name": "A#2",
            "ticks": 75072,
            "time": 131.79769349999998,
            "velocity": 0.3937007874015748
          },
          {
            "duration": 0.33707849999998984,
            "durationTicks": 192,
            "midi": 34,
            "name": "A#1",
            "ticks": 75072,
            "time": 131.79769349999998,
            "velocity": 0.3937007874015748
          },
          {
            "duration": 0.33707850000001827,
            "durationTicks": 192,
            "midi": 38,
            "name": "D2",
            "ticks": 75264,
            "time": 132.13477199999997,
            "velocity": 0.3937007874015748
          },
          {
            "duration": 0.33707850000001827,
            "durationTicks": 192,
            "midi": 26,
            "name": "D1",
            "ticks": 75264,
            "time": 132.13477199999997,
            "velocity": 0.3937007874015748
          },
          {
            "duration": 0.33707849999998984,
            "durationTicks": 192,
            "midi": 43,
            "name": "G2",
            "ticks": 75456,
            "time": 132.4718505,
            "velocity": 0.3937007874015748
          },
          {
            "duration": 0.33707849999998984,
            "durationTicks": 192,
            "midi": 31,
            "name": "G1",
            "ticks": 75456,
            "time": 132.4718505,
            "velocity": 0.3937007874015748
          },
          {
            "duration": 0.33707849999998984,
            "durationTicks": 192,
            "midi": 39,
            "name": "D#2",
            "ticks": 75648,
            "time": 132.80892899999998,
            "velocity": 0.3937007874015748
          },
          {
            "duration": 0.33707849999998984,
            "durationTicks": 192,
            "midi": 51,
            "name": "D#3",
            "ticks": 75648,
            "time": 132.80892899999998,
            "velocity": 0.3937007874015748
          },
          {
            "duration": 0.33707850000001827,
            "durationTicks": 192,
            "midi": 46,
            "name": "A#2",
            "ticks": 75840,
            "time": 133.14600749999997,
            "velocity": 0.3937007874015748
          },
          {
            "duration": 0.33707850000001827,
            "durationTicks": 192,
            "midi": 34,
            "name": "A#1",
            "ticks": 75840,
            "time": 133.14600749999997,
            "velocity": 0.3937007874015748
          },
          {
            "duration": 0.6741569999999797,
            "durationTicks": 384,
            "midi": 38,
            "name": "D2",
            "ticks": 76032,
            "time": 133.483086,
            "velocity": 0.3937007874015748
          },
          {
            "duration": 0.6741569999999797,
            "durationTicks": 384,
            "midi": 26,
            "name": "D1",
            "ticks": 76032,
            "time": 133.483086,
            "velocity": 0.3937007874015748
          },
          {
            "duration": 0.6741570000000081,
            "durationTicks": 384,
            "midi": 43,
            "name": "G2",
            "ticks": 76416,
            "time": 134.15724299999997,
            "velocity": 0.3937007874015748
          },
          {
            "duration": 0.6741570000000081,
            "durationTicks": 384,
            "midi": 31,
            "name": "G1",
            "ticks": 76416,
            "time": 134.15724299999997,
            "velocity": 0.3937007874015748
          },
          {
            "duration": 0.33707850000001827,
            "durationTicks": 192,
            "midi": 36,
            "name": "C2",
            "ticks": 76800,
            "time": 134.83139999999997,
            "velocity": 0.3937007874015748
          },
          {
            "duration": 0.33707850000001827,
            "durationTicks": 192,
            "midi": 24,
            "name": "C1",
            "ticks": 76800,
            "time": 134.83139999999997,
            "velocity": 0.3937007874015748
          },
          {
            "duration": 0.33707849999998984,
            "durationTicks": 192,
            "midi": 36,
            "name": "C2",
            "ticks": 76992,
            "time": 135.1684785,
            "velocity": 0.3937007874015748
          },
          {
            "duration": 0.33707849999998984,
            "durationTicks": 192,
            "midi": 48,
            "name": "C3",
            "ticks": 76992,
            "time": 135.1684785,
            "velocity": 0.3937007874015748
          },
          {
            "duration": 0.33707849999998984,
            "durationTicks": 192,
            "midi": 51,
            "name": "D#3",
            "ticks": 77184,
            "time": 135.50555699999998,
            "velocity": 0.3937007874015748
          },
          {
            "duration": 0.33707849999998984,
            "durationTicks": 192,
            "midi": 39,
            "name": "D#2",
            "ticks": 77184,
            "time": 135.50555699999998,
            "velocity": 0.3937007874015748
          },
          {
            "duration": 0.33707850000001827,
            "durationTicks": 192,
            "midi": 38,
            "name": "D2",
            "ticks": 77376,
            "time": 135.84263549999997,
            "velocity": 0.3937007874015748
          },
          {
            "duration": 0.33707850000001827,
            "durationTicks": 192,
            "midi": 50,
            "name": "D3",
            "ticks": 77376,
            "time": 135.84263549999997,
            "velocity": 0.3937007874015748
          },
          {
            "duration": 0.33707849999998984,
            "durationTicks": 192,
            "midi": 31,
            "name": "G1",
            "ticks": 77568,
            "time": 136.179714,
            "velocity": 0.3937007874015748
          },
          {
            "duration": 0.33707849999998984,
            "durationTicks": 192,
            "midi": 43,
            "name": "G2",
            "ticks": 77568,
            "time": 136.179714,
            "velocity": 0.3937007874015748
          },
          {
            "duration": 0.33707849999998984,
            "durationTicks": 192,
            "midi": 46,
            "name": "A#2",
            "ticks": 77760,
            "time": 136.51679249999998,
            "velocity": 0.3937007874015748
          },
          {
            "duration": 0.33707849999998984,
            "durationTicks": 192,
            "midi": 34,
            "name": "A#1",
            "ticks": 77760,
            "time": 136.51679249999998,
            "velocity": 0.3937007874015748
          },
          {
            "duration": 0.33707850000001827,
            "durationTicks": 192,
            "midi": 39,
            "name": "D#2",
            "ticks": 77952,
            "time": 136.85387099999997,
            "velocity": 0.3937007874015748
          },
          {
            "duration": 0.33707850000001827,
            "durationTicks": 192,
            "midi": 51,
            "name": "D#3",
            "ticks": 77952,
            "time": 136.85387099999997,
            "velocity": 0.3937007874015748
          },
          {
            "duration": 0.33707849999998984,
            "durationTicks": 192,
            "midi": 50,
            "name": "D3",
            "ticks": 78144,
            "time": 137.1909495,
            "velocity": 0.3937007874015748
          },
          {
            "duration": 0.33707849999998984,
            "durationTicks": 192,
            "midi": 38,
            "name": "D2",
            "ticks": 78144,
            "time": 137.1909495,
            "velocity": 0.3937007874015748
          },
          {
            "duration": 0.33707849999998984,
            "durationTicks": 192,
            "midi": 44,
            "name": "G#2",
            "ticks": 78336,
            "time": 137.52802799999998,
            "velocity": 0.3937007874015748
          },
          {
            "duration": 0.33707849999998984,
            "durationTicks": 192,
            "midi": 32,
            "name": "G#1",
            "ticks": 78336,
            "time": 137.52802799999998,
            "velocity": 0.3937007874015748
          },
          {
            "duration": 0.33707850000001827,
            "durationTicks": 192,
            "midi": 36,
            "name": "C2",
            "ticks": 78528,
            "time": 137.86510649999997,
            "velocity": 0.3937007874015748
          },
          {
            "duration": 0.33707850000001827,
            "durationTicks": 192,
            "midi": 48,
            "name": "C3",
            "ticks": 78528,
            "time": 137.86510649999997,
            "velocity": 0.3937007874015748
          },
          {
            "duration": 0.33707849999998984,
            "durationTicks": 192,
            "midi": 39,
            "name": "D#2",
            "ticks": 78720,
            "time": 138.202185,
            "velocity": 0.3937007874015748
          },
          {
            "duration": 0.33707849999998984,
            "durationTicks": 192,
            "midi": 51,
            "name": "D#3",
            "ticks": 78720,
            "time": 138.202185,
            "velocity": 0.3937007874015748
          },
          {
            "duration": 0.33707849999998984,
            "durationTicks": 192,
            "midi": 38,
            "name": "D2",
            "ticks": 78912,
            "time": 138.53926349999998,
            "velocity": 0.3937007874015748
          },
          {
            "duration": 0.33707849999998984,
            "durationTicks": 192,
            "midi": 50,
            "name": "D3",
            "ticks": 78912,
            "time": 138.53926349999998,
            "velocity": 0.3937007874015748
          },
          {
            "duration": 0.33707850000001827,
            "durationTicks": 192,
            "midi": 39,
            "name": "D#2",
            "ticks": 79104,
            "time": 138.87634199999997,
            "velocity": 0.3937007874015748
          },
          {
            "duration": 0.33707850000001827,
            "durationTicks": 192,
            "midi": 51,
            "name": "D#3",
            "ticks": 79104,
            "time": 138.87634199999997,
            "velocity": 0.3937007874015748
          },
          {
            "duration": 0.33707849999998984,
            "durationTicks": 192,
            "midi": 52,
            "name": "E3",
            "ticks": 79296,
            "time": 139.21342049999998,
            "velocity": 0.3937007874015748
          },
          {
            "duration": 0.33707849999998984,
            "durationTicks": 192,
            "midi": 40,
            "name": "E2",
            "ticks": 79296,
            "time": 139.21342049999998,
            "velocity": 0.3937007874015748
          },
          {
            "duration": 0.33707850000001827,
            "durationTicks": 192,
            "midi": 46,
            "name": "A#2",
            "ticks": 79488,
            "time": 139.55049899999997,
            "velocity": 0.3937007874015748
          },
          {
            "duration": 0.33707850000001827,
            "durationTicks": 192,
            "midi": 58,
            "name": "A#3",
            "ticks": 79488,
            "time": 139.55049899999997,
            "velocity": 0.3937007874015748
          },
          {
            "duration": 0.33707849999998984,
            "durationTicks": 192,
            "midi": 36,
            "name": "C2",
            "ticks": 79680,
            "time": 139.8875775,
            "velocity": 0.3937007874015748
          },
          {
            "duration": 0.33707849999998984,
            "durationTicks": 192,
            "midi": 48,
            "name": "C3",
            "ticks": 79680,
            "time": 139.8875775,
            "velocity": 0.3937007874015748
          },
          {
            "duration": 0.33707849999998984,
            "durationTicks": 192,
            "midi": 41,
            "name": "F2",
            "ticks": 79872,
            "time": 140.22465599999998,
            "velocity": 0.3937007874015748
          },
          {
            "duration": 0.33707849999998984,
            "durationTicks": 192,
            "midi": 29,
            "name": "F1",
            "ticks": 79872,
            "time": 140.22465599999998,
            "velocity": 0.3937007874015748
          },
          {
            "duration": 0.33707850000001827,
            "durationTicks": 192,
            "midi": 44,
            "name": "G#2",
            "ticks": 80064,
            "time": 140.56173449999997,
            "velocity": 0.3937007874015748
          },
          {
            "duration": 0.33707850000001827,
            "durationTicks": 192,
            "midi": 32,
            "name": "G#1",
            "ticks": 80064,
            "time": 140.56173449999997,
            "velocity": 0.3937007874015748
          },
          {
            "duration": 0.33707849999998984,
            "durationTicks": 192,
            "midi": 39,
            "name": "D#2",
            "ticks": 80256,
            "time": 140.898813,
            "velocity": 0.3937007874015748
          },
          {
            "duration": 0.33707849999998984,
            "durationTicks": 192,
            "midi": 51,
            "name": "D#3",
            "ticks": 80256,
            "time": 140.898813,
            "velocity": 0.3937007874015748
          },
          {
            "duration": 0.33707849999998984,
            "durationTicks": 192,
            "midi": 48,
            "name": "C3",
            "ticks": 80448,
            "time": 141.23589149999998,
            "velocity": 0.3937007874015748
          },
          {
            "duration": 0.33707849999998984,
            "durationTicks": 192,
            "midi": 36,
            "name": "C2",
            "ticks": 80448,
            "time": 141.23589149999998,
            "velocity": 0.3937007874015748
          },
          {
            "duration": 0.33707850000001827,
            "durationTicks": 192,
            "midi": 27,
            "name": "D#1",
            "ticks": 80640,
            "time": 141.57296999999997,
            "velocity": 0.3937007874015748
          },
          {
            "duration": 0.33707850000001827,
            "durationTicks": 192,
            "midi": 39,
            "name": "D#2",
            "ticks": 80640,
            "time": 141.57296999999997,
            "velocity": 0.3937007874015748
          },
          {
            "duration": 0.33707849999998984,
            "durationTicks": 192,
            "midi": 34,
            "name": "A#1",
            "ticks": 80832,
            "time": 141.9100485,
            "velocity": 0.3937007874015748
          },
          {
            "duration": 0.33707849999998984,
            "durationTicks": 192,
            "midi": 46,
            "name": "A#2",
            "ticks": 80832,
            "time": 141.9100485,
            "velocity": 0.3937007874015748
          },
          {
            "duration": 0.33707849999998984,
            "durationTicks": 192,
            "midi": 39,
            "name": "D#2",
            "ticks": 81024,
            "time": 142.24712699999998,
            "velocity": 0.3937007874015748
          },
          {
            "duration": 0.33707849999998984,
            "durationTicks": 192,
            "midi": 51,
            "name": "D#3",
            "ticks": 81024,
            "time": 142.24712699999998,
            "velocity": 0.3937007874015748
          },
          {
            "duration": 0.33707850000001827,
            "durationTicks": 192,
            "midi": 34,
            "name": "A#1",
            "ticks": 81216,
            "time": 142.58420549999997,
            "velocity": 0.3937007874015748
          },
          {
            "duration": 0.33707850000001827,
            "durationTicks": 192,
            "midi": 46,
            "name": "A#2",
            "ticks": 81216,
            "time": 142.58420549999997,
            "velocity": 0.3937007874015748
          },
          {
            "duration": 0.33707849999998984,
            "durationTicks": 192,
            "midi": 38,
            "name": "D2",
            "ticks": 81408,
            "time": 142.92128399999999,
            "velocity": 0.3937007874015748
          },
          {
            "duration": 0.33707849999998984,
            "durationTicks": 192,
            "midi": 26,
            "name": "D1",
            "ticks": 81408,
            "time": 142.92128399999999,
            "velocity": 0.3937007874015748
          },
          {
            "duration": 0.33707849999998984,
            "durationTicks": 192,
            "midi": 43,
            "name": "G2",
            "ticks": 81600,
            "time": 143.25836249999998,
            "velocity": 0.3937007874015748
          },
          {
            "duration": 0.33707849999998984,
            "durationTicks": 192,
            "midi": 31,
            "name": "G1",
            "ticks": 81600,
            "time": 143.25836249999998,
            "velocity": 0.3937007874015748
          },
          {
            "duration": 0.33707850000001827,
            "durationTicks": 192,
            "midi": 39,
            "name": "D#2",
            "ticks": 81792,
            "time": 143.59544099999997,
            "velocity": 0.3937007874015748
          },
          {
            "duration": 0.33707850000001827,
            "durationTicks": 192,
            "midi": 51,
            "name": "D#3",
            "ticks": 81792,
            "time": 143.59544099999997,
            "velocity": 0.3937007874015748
          },
          {
            "duration": 0.33707849999998984,
            "durationTicks": 192,
            "midi": 34,
            "name": "A#1",
            "ticks": 81984,
            "time": 143.93251949999998,
            "velocity": 0.3937007874015748
          },
          {
            "duration": 0.33707849999998984,
            "durationTicks": 192,
            "midi": 46,
            "name": "A#2",
            "ticks": 81984,
            "time": 143.93251949999998,
            "velocity": 0.3937007874015748
          },
          {
            "duration": 0.33707849999998984,
            "durationTicks": 192,
            "midi": 38,
            "name": "D2",
            "ticks": 82176,
            "time": 144.26959799999997,
            "velocity": 0.3937007874015748
          },
          {
            "duration": 0.33707849999998984,
            "durationTicks": 192,
            "midi": 26,
            "name": "D1",
            "ticks": 82176,
            "time": 144.26959799999997,
            "velocity": 0.3937007874015748
          },
          {
            "duration": 0.33707850000001827,
            "durationTicks": 192,
            "midi": 31,
            "name": "G1",
            "ticks": 82368,
            "time": 144.60667649999996,
            "velocity": 0.3937007874015748
          },
          {
            "duration": 0.33707850000001827,
            "durationTicks": 192,
            "midi": 43,
            "name": "G2",
            "ticks": 82368,
            "time": 144.60667649999996,
            "velocity": 0.3937007874015748
          },
          {
            "duration": 0.33707849999998984,
            "durationTicks": 192,
            "midi": 50,
            "name": "D3",
            "ticks": 82560,
            "time": 144.94375499999998,
            "velocity": 0.3937007874015748
          },
          {
            "duration": 0.33707849999998984,
            "durationTicks": 192,
            "midi": 38,
            "name": "D2",
            "ticks": 82560,
            "time": 144.94375499999998,
            "velocity": 0.3937007874015748
          },
          {
            "duration": 0.33707850000001827,
            "durationTicks": 192,
            "midi": 47,
            "name": "B2",
            "ticks": 82752,
            "time": 145.28083349999997,
            "velocity": 0.3937007874015748
          },
          {
            "duration": 0.33707850000001827,
            "durationTicks": 192,
            "midi": 35,
            "name": "B1",
            "ticks": 82752,
            "time": 145.28083349999997,
            "velocity": 0.3937007874015748
          },
          {
            "duration": 0.33707849999998984,
            "durationTicks": 192,
            "midi": 24,
            "name": "C1",
            "ticks": 82944,
            "time": 145.617912,
            "velocity": 0.3937007874015748
          },
          {
            "duration": 0.33707849999998984,
            "durationTicks": 192,
            "midi": 36,
            "name": "C2",
            "ticks": 82944,
            "time": 145.617912,
            "velocity": 0.3937007874015748
          },
          {
            "duration": 0.33707849999998984,
            "durationTicks": 192,
            "midi": 48,
            "name": "C3",
            "ticks": 83136,
            "time": 145.95499049999998,
            "velocity": 0.3937007874015748
          },
          {
            "duration": 0.33707849999998984,
            "durationTicks": 192,
            "midi": 36,
            "name": "C2",
            "ticks": 83136,
            "time": 145.95499049999998,
            "velocity": 0.3937007874015748
          },
          {
            "duration": 0.33707850000001827,
            "durationTicks": 192,
            "midi": 39,
            "name": "D#2",
            "ticks": 83328,
            "time": 146.29206899999997,
            "velocity": 0.3937007874015748
          },
          {
            "duration": 0.33707850000001827,
            "durationTicks": 192,
            "midi": 51,
            "name": "D#3",
            "ticks": 83328,
            "time": 146.29206899999997,
            "velocity": 0.3937007874015748
          },
          {
            "duration": 0.33707849999998984,
            "durationTicks": 192,
            "midi": 38,
            "name": "D2",
            "ticks": 83520,
            "time": 146.6291475,
            "velocity": 0.3937007874015748
          },
          {
            "duration": 0.33707849999998984,
            "durationTicks": 192,
            "midi": 50,
            "name": "D3",
            "ticks": 83520,
            "time": 146.6291475,
            "velocity": 0.3937007874015748
          },
          {
            "duration": 0.33707849999998984,
            "durationTicks": 192,
            "midi": 43,
            "name": "G2",
            "ticks": 83712,
            "time": 146.96622599999998,
            "velocity": 0.3937007874015748
          },
          {
            "duration": 0.33707849999998984,
            "durationTicks": 192,
            "midi": 31,
            "name": "G1",
            "ticks": 83712,
            "time": 146.96622599999998,
            "velocity": 0.3937007874015748
          },
          {
            "duration": 0.33707850000001827,
            "durationTicks": 192,
            "midi": 34,
            "name": "A#1",
            "ticks": 83904,
            "time": 147.30330449999997,
            "velocity": 0.3937007874015748
          },
          {
            "duration": 0.33707850000001827,
            "durationTicks": 192,
            "midi": 46,
            "name": "A#2",
            "ticks": 83904,
            "time": 147.30330449999997,
            "velocity": 0.3937007874015748
          },
          {
            "duration": 0.33707849999998984,
            "durationTicks": 192,
            "midi": 39,
            "name": "D#2",
            "ticks": 84096,
            "time": 147.64038299999999,
            "velocity": 0.3937007874015748
          },
          {
            "duration": 0.33707849999998984,
            "durationTicks": 192,
            "midi": 51,
            "name": "D#3",
            "ticks": 84096,
            "time": 147.64038299999999,
            "velocity": 0.3937007874015748
          },
          {
            "duration": 0.33707849999998984,
            "durationTicks": 192,
            "midi": 50,
            "name": "D3",
            "ticks": 84288,
            "time": 147.97746149999998,
            "velocity": 0.3937007874015748
          },
          {
            "duration": 0.33707849999998984,
            "durationTicks": 192,
            "midi": 38,
            "name": "D2",
            "ticks": 84288,
            "time": 147.97746149999998,
            "velocity": 0.3937007874015748
          },
          {
            "duration": 0.33707850000001827,
            "durationTicks": 192,
            "midi": 44,
            "name": "G#2",
            "ticks": 84480,
            "time": 148.31453999999997,
            "velocity": 0.3937007874015748
          },
          {
            "duration": 0.33707850000001827,
            "durationTicks": 192,
            "midi": 32,
            "name": "G#1",
            "ticks": 84480,
            "time": 148.31453999999997,
            "velocity": 0.3937007874015748
          },
          {
            "duration": 0.33707849999998984,
            "durationTicks": 192,
            "midi": 36,
            "name": "C2",
            "ticks": 84672,
            "time": 148.65161849999998,
            "velocity": 0.3937007874015748
          },
          {
            "duration": 0.33707849999998984,
            "durationTicks": 192,
            "midi": 48,
            "name": "C3",
            "ticks": 84672,
            "time": 148.65161849999998,
            "velocity": 0.3937007874015748
          },
          {
            "duration": 0.33707849999998984,
            "durationTicks": 192,
            "midi": 51,
            "name": "D#3",
            "ticks": 84864,
            "time": 148.98869699999997,
            "velocity": 0.3937007874015748
          },
          {
            "duration": 0.33707849999998984,
            "durationTicks": 192,
            "midi": 39,
            "name": "D#2",
            "ticks": 84864,
            "time": 148.98869699999997,
            "velocity": 0.3937007874015748
          },
          {
            "duration": 0.33707850000001827,
            "durationTicks": 192,
            "midi": 50,
            "name": "D3",
            "ticks": 85056,
            "time": 149.32577549999996,
            "velocity": 0.3937007874015748
          },
          {
            "duration": 0.33707850000001827,
            "durationTicks": 192,
            "midi": 38,
            "name": "D2",
            "ticks": 85056,
            "time": 149.32577549999996,
            "velocity": 0.3937007874015748
          },
          {
            "duration": 0.33707849999998984,
            "durationTicks": 192,
            "midi": 39,
            "name": "D#2",
            "ticks": 85248,
            "time": 149.66285399999998,
            "velocity": 0.3937007874015748
          },
          {
            "duration": 0.33707849999998984,
            "durationTicks": 192,
            "midi": 51,
            "name": "D#3",
            "ticks": 85248,
            "time": 149.66285399999998,
            "velocity": 0.3937007874015748
          },
          {
            "duration": 0.33707850000001827,
            "durationTicks": 192,
            "midi": 40,
            "name": "E2",
            "ticks": 85440,
            "time": 149.99993249999997,
            "velocity": 0.3937007874015748
          },
          {
            "duration": 0.33707850000001827,
            "durationTicks": 192,
            "midi": 52,
            "name": "E3",
            "ticks": 85440,
            "time": 149.99993249999997,
            "velocity": 0.3937007874015748
          },
          {
            "duration": 0.33707849999998984,
            "durationTicks": 192,
            "midi": 46,
            "name": "A#2",
            "ticks": 85632,
            "time": 150.337011,
            "velocity": 0.3937007874015748
          },
          {
            "duration": 0.33707849999998984,
            "durationTicks": 192,
            "midi": 58,
            "name": "A#3",
            "ticks": 85632,
            "time": 150.337011,
            "velocity": 0.3937007874015748
          },
          {
            "duration": 0.33707849999998984,
            "durationTicks": 192,
            "midi": 48,
            "name": "C3",
            "ticks": 85824,
            "time": 150.67408949999998,
            "velocity": 0.3937007874015748
          },
          {
            "duration": 0.33707849999998984,
            "durationTicks": 192,
            "midi": 36,
            "name": "C2",
            "ticks": 85824,
            "time": 150.67408949999998,
            "velocity": 0.3937007874015748
          },
          {
            "duration": 0.33707850000001827,
            "durationTicks": 192,
            "midi": 29,
            "name": "F1",
            "ticks": 86016,
            "time": 151.01116799999997,
            "velocity": 0.3937007874015748
          },
          {
            "duration": 0.33707850000001827,
            "durationTicks": 192,
            "midi": 41,
            "name": "F2",
            "ticks": 86016,
            "time": 151.01116799999997,
            "velocity": 0.3937007874015748
          },
          {
            "duration": 0.33707849999998984,
            "durationTicks": 192,
            "midi": 32,
            "name": "G#1",
            "ticks": 86208,
            "time": 151.3482465,
            "velocity": 0.3937007874015748
          },
          {
            "duration": 0.33707849999998984,
            "durationTicks": 192,
            "midi": 44,
            "name": "G#2",
            "ticks": 86208,
            "time": 151.3482465,
            "velocity": 0.3937007874015748
          },
          {
            "duration": 0.33707849999998984,
            "durationTicks": 192,
            "midi": 39,
            "name": "D#2",
            "ticks": 86400,
            "time": 151.68532499999998,
            "velocity": 0.3937007874015748
          },
          {
            "duration": 0.33707849999998984,
            "durationTicks": 192,
            "midi": 51,
            "name": "D#3",
            "ticks": 86400,
            "time": 151.68532499999998,
            "velocity": 0.3937007874015748
          },
          {
            "duration": 0.33707850000001827,
            "durationTicks": 192,
            "midi": 48,
            "name": "C3",
            "ticks": 86592,
            "time": 152.02240349999997,
            "velocity": 0.3937007874015748
          },
          {
            "duration": 0.33707850000001827,
            "durationTicks": 192,
            "midi": 36,
            "name": "C2",
            "ticks": 86592,
            "time": 152.02240349999997,
            "velocity": 0.3937007874015748
          },
          {
            "duration": 0.33707849999998984,
            "durationTicks": 192,
            "midi": 39,
            "name": "D#2",
            "ticks": 86784,
            "time": 152.35948199999999,
            "velocity": 0.3937007874015748
          },
          {
            "duration": 0.33707849999998984,
            "durationTicks": 192,
            "midi": 27,
            "name": "D#1",
            "ticks": 86784,
            "time": 152.35948199999999,
            "velocity": 0.3937007874015748
          },
          {
            "duration": 0.33707849999998984,
            "durationTicks": 192,
            "midi": 46,
            "name": "A#2",
            "ticks": 86976,
            "time": 152.69656049999998,
            "velocity": 0.3937007874015748
          },
          {
            "duration": 0.33707849999998984,
            "durationTicks": 192,
            "midi": 34,
            "name": "A#1",
            "ticks": 86976,
            "time": 152.69656049999998,
            "velocity": 0.3937007874015748
          },
          {
            "duration": 0.33707850000001827,
            "durationTicks": 192,
            "midi": 39,
            "name": "D#2",
            "ticks": 87168,
            "time": 153.03363899999997,
            "velocity": 0.3937007874015748
          },
          {
            "duration": 0.33707850000001827,
            "durationTicks": 192,
            "midi": 51,
            "name": "D#3",
            "ticks": 87168,
            "time": 153.03363899999997,
            "velocity": 0.3937007874015748
          },
          {
            "duration": 0.33707849999998984,
            "durationTicks": 192,
            "midi": 34,
            "name": "A#1",
            "ticks": 87360,
            "time": 153.37071749999998,
            "velocity": 0.3937007874015748
          },
          {
            "duration": 0.33707849999998984,
            "durationTicks": 192,
            "midi": 46,
            "name": "A#2",
            "ticks": 87360,
            "time": 153.37071749999998,
            "velocity": 0.3937007874015748
          },
          {
            "duration": 0.33707849999998984,
            "durationTicks": 192,
            "midi": 38,
            "name": "D2",
            "ticks": 87552,
            "time": 153.70779599999997,
            "velocity": 0.3937007874015748
          },
          {
            "duration": 0.33707849999998984,
            "durationTicks": 192,
            "midi": 26,
            "name": "D1",
            "ticks": 87552,
            "time": 153.70779599999997,
            "velocity": 0.3937007874015748
          },
          {
            "duration": 0.33707850000001827,
            "durationTicks": 192,
            "midi": 43,
            "name": "G2",
            "ticks": 87744,
            "time": 154.04487449999996,
            "velocity": 0.3937007874015748
          },
          {
            "duration": 0.33707850000001827,
            "durationTicks": 192,
            "midi": 31,
            "name": "G1",
            "ticks": 87744,
            "time": 154.04487449999996,
            "velocity": 0.3937007874015748
          },
          {
            "duration": 0.33707849999998984,
            "durationTicks": 192,
            "midi": 39,
            "name": "D#2",
            "ticks": 87936,
            "time": 154.38195299999998,
            "velocity": 0.3937007874015748
          },
          {
            "duration": 0.33707849999998984,
            "durationTicks": 192,
            "midi": 51,
            "name": "D#3",
            "ticks": 87936,
            "time": 154.38195299999998,
            "velocity": 0.3937007874015748
          },
          {
            "duration": 0.33707850000001827,
            "durationTicks": 192,
            "midi": 46,
            "name": "A#2",
            "ticks": 88128,
            "time": 154.71903149999997,
            "velocity": 0.3937007874015748
          },
          {
            "duration": 0.33707850000001827,
            "durationTicks": 192,
            "midi": 34,
            "name": "A#1",
            "ticks": 88128,
            "time": 154.71903149999997,
            "velocity": 0.3937007874015748
          },
          {
            "duration": 0.6741569999999797,
            "durationTicks": 384,
            "midi": 26,
            "name": "D1",
            "ticks": 88320,
            "time": 155.05611,
            "velocity": 0.3937007874015748
          },
          {
            "duration": 0.6741569999999797,
            "durationTicks": 384,
            "midi": 38,
            "name": "D2",
            "ticks": 88320,
            "time": 155.05611,
            "velocity": 0.3937007874015748
          },
          {
            "duration": 0.6741570000000081,
            "durationTicks": 384,
            "midi": 31,
            "name": "G1",
            "ticks": 88704,
            "time": 155.73026699999997,
            "velocity": 0.3937007874015748
          },
          {
            "duration": 0.6741570000000081,
            "durationTicks": 384,
            "midi": 43,
            "name": "G2",
            "ticks": 88704,
            "time": 155.73026699999997,
            "velocity": 0.3937007874015748
          }
        ],
        "endOfTrackTicks": 89088
      },
      {
        "channel": 4,
        "controlChanges": {},
        "pitchBends": [],
        "instrument": {
          "family": "piano",
          "number": 0,
          "name": "acoustic grand piano"
        },
        "name": "Electric Piano",
        "notes": [
          {
            "duration": 0.16853925000000003,
            "durationTicks": 96,
            "midi": 59,
            "name": "B3",
            "ticks": 672,
            "time": 1.1797747499999998,
            "velocity": 0.3937007874015748
          }
        ],
        "endOfTrackTicks": 768
      }
    ]
  }