{
    "header": {
      "keySignatures": [],
      "meta": [],
      "name": "",
      "ppq": 384,
      "tempos": [
        {
          "bpm": 110.00011000011,
          "ticks": 0
        }
      ],
      "timeSignatures": [
        {
          "ticks": 0,
          "timeSignature": [
            1,
            4
          ],
          "measures": 0
        }
      ]
    },
    "tracks": [
      {
        "channel": 0,
        "controlChanges": {},
        "pitchBends": [],
        "instrument": {
          "family": "synth lead",
          "number": 80,
          "name": "lead 1 (square)"
        },
        "name": "Smooth Synth",
        "notes": [
          {
            "duration": 0.2727270000000033,
            "durationTicks": 192,
            "midi": 27,
            "name": "D#1",
            "ticks": 67584,
            "time": 95.999904,
            "velocity": 0.3937007874015748
          },
          {
            "duration": 0.2727270000000033,
            "durationTicks": 192,
            "midi": 39,
            "name": "D#2",
            "ticks": 67584,
            "time": 95.999904,
            "velocity": 0.3937007874015748
          },
          {
            "duration": 0.27272699999998906,
            "durationTicks": 192,
            "midi": 27,
            "name": "D#1",
            "ticks": 67776,
            "time": 96.272631,
            "velocity": 0.3937007874015748
          },
          {
            "duration": 0.27272699999998906,
            "durationTicks": 192,
            "midi": 39,
            "name": "D#2",
            "ticks": 67776,
            "time": 96.272631,
            "velocity": 0.3937007874015748
          },
          {
            "duration": 0.2727270000000033,
            "durationTicks": 192,
            "midi": 27,
            "name": "D#1",
            "ticks": 67968,
            "time": 96.545358,
            "velocity": 0.3937007874015748
          },
          {
            "duration": 0.2727270000000033,
            "durationTicks": 192,
            "midi": 39,
            "name": "D#2",
            "ticks": 67968,
            "time": 96.545358,
            "velocity": 0.3937007874015748
          },
          {
            "duration": 0.2727270000000033,
            "durationTicks": 192,
            "midi": 39,
            "name": "D#2",
            "ticks": 68160,
            "time": 96.818085,
            "velocity": 0.3937007874015748
          },
          {
            "duration": 0.2727270000000033,
            "durationTicks": 192,
            "midi": 27,
            "name": "D#1",
            "ticks": 68160,
            "time": 96.818085,
            "velocity": 0.3937007874015748
          },
          {
            "duration": 0.2727270000000033,
            "durationTicks": 192,
            "midi": 27,
            "name": "D#1",
            "ticks": 68352,
            "time": 97.090812,
            "velocity": 0.3937007874015748
          },
          {
            "duration": 0.2727270000000033,
            "durationTicks": 192,
            "midi": 39,
            "name": "D#2",
            "ticks": 68352,
            "time": 97.090812,
            "velocity": 0.3937007874015748
          },
          {
            "duration": 0.27272699999998906,
            "durationTicks": 192,
            "midi": 39,
            "name": "D#2",
            "ticks": 68544,
            "time": 97.363539,
            "velocity": 0.3937007874015748
          },
          {
            "duration": 0.27272699999998906,
            "durationTicks": 192,
            "midi": 27,
            "name": "D#1",
            "ticks": 68544,
            "time": 97.363539,
            "velocity": 0.3937007874015748
          },
          {
            "duration": 0.2727270000000033,
            "durationTicks": 192,
            "midi": 27,
            "name": "D#1",
            "ticks": 68736,
            "time": 97.63626599999999,
            "velocity": 0.3937007874015748
          },
          {
            "duration": 0.2727270000000033,
            "durationTicks": 192,
            "midi": 39,
            "name": "D#2",
            "ticks": 68736,
            "time": 97.63626599999999,
            "velocity": 0.3937007874015748
          },
          {
            "duration": 0.2727270000000033,
            "durationTicks": 192,
            "midi": 27,
            "name": "D#1",
            "ticks": 68928,
            "time": 97.908993,
            "velocity": 0.3937007874015748
          },
          {
            "duration": 0.2727270000000033,
            "durationTicks": 192,
            "midi": 39,
            "name": "D#2",
            "ticks": 68928,
            "time": 97.908993,
            "velocity": 0.3937007874015748
          },
          {
            "duration": 0.2727270000000033,
            "durationTicks": 192,
            "midi": 39,
            "name": "D#2",
            "ticks": 69120,
            "time": 98.18172,
            "velocity": 0.3937007874015748
          },
          {
            "duration": 0.2727270000000033,
            "durationTicks": 192,
            "midi": 27,
            "name": "D#1",
            "ticks": 69120,
            "time": 98.18172,
            "velocity": 0.3937007874015748
          },
          {
            "duration": 0.2727270000000033,
            "durationTicks": 192,
            "midi": 27,
            "name": "D#1",
            "ticks": 69312,
            "time": 98.454447,
            "velocity": 0.3937007874015748
          },
          {
            "duration": 0.2727270000000033,
            "durationTicks": 192,
            "midi": 39,
            "name": "D#2",
            "ticks": 69312,
            "time": 98.454447,
            "velocity": 0.3937007874015748
          },
          {
            "duration": 0.27272699999998906,
            "durationTicks": 192,
            "midi": 27,
            "name": "D#1",
            "ticks": 69504,
            "time": 98.727174,
            "velocity": 0.3937007874015748
          },
          {
            "duration": 0.27272699999998906,
            "durationTicks": 192,
            "midi": 39,
            "name": "D#2",
            "ticks": 69504,
            "time": 98.727174,
            "velocity": 0.3937007874015748
          },
          {
            "duration": 0.2727270000000033,
            "durationTicks": 192,
            "midi": 39,
            "name": "D#2",
            "ticks": 69696,
            "time": 98.999901,
            "velocity": 0.3937007874015748
          },
          {
            "duration": 0.2727270000000033,
            "durationTicks": 192,
            "midi": 27,
            "name": "D#1",
            "ticks": 69696,
            "time": 98.999901,
            "velocity": 0.3937007874015748
          },
          {
            "duration": 0.2727270000000033,
            "durationTicks": 192,
            "midi": 39,
            "name": "D#2",
            "ticks": 69888,
            "time": 99.272628,
            "velocity": 0.3937007874015748
          },
          {
            "duration": 0.2727270000000033,
            "durationTicks": 192,
            "midi": 27,
            "name": "D#1",
            "ticks": 69888,
            "time": 99.272628,
            "velocity": 0.3937007874015748
          },
          {
            "duration": 0.2727270000000033,
            "durationTicks": 192,
            "midi": 27,
            "name": "D#1",
            "ticks": 70080,
            "time": 99.545355,
            "velocity": 0.3937007874015748
          },
          {
            "duration": 0.2727270000000033,
            "durationTicks": 192,
            "midi": 39,
            "name": "D#2",
            "ticks": 70080,
            "time": 99.545355,
            "velocity": 0.3937007874015748
          },
          {
            "duration": 0.27272699999998906,
            "durationTicks": 192,
            "midi": 27,
            "name": "D#1",
            "ticks": 70272,
            "time": 99.818082,
            "velocity": 0.3937007874015748
          },
          {
            "duration": 0.27272699999998906,
            "durationTicks": 192,
            "midi": 39,
            "name": "D#2",
            "ticks": 70272,
            "time": 99.818082,
            "velocity": 0.3937007874015748
          },
          {
            "duration": 0.2727270000000033,
            "durationTicks": 192,
            "midi": 27,
            "name": "D#1",
            "ticks": 70464,
            "time": 100.090809,
            "velocity": 0.3937007874015748
          },
          {
            "duration": 0.2727270000000033,
            "durationTicks": 192,
            "midi": 39,
            "name": "D#2",
            "ticks": 70464,
            "time": 100.090809,
            "velocity": 0.3937007874015748
          },
          {
            "duration": 0.2727270000000033,
            "durationTicks": 192,
            "midi": 39,
            "name": "D#2",
            "ticks": 70656,
            "time": 100.363536,
            "velocity": 0.3937007874015748
          },
          {
            "duration": 0.2727270000000033,
            "durationTicks": 192,
            "midi": 27,
            "name": "D#1",
            "ticks": 70656,
            "time": 100.363536,
            "velocity": 0.3937007874015748
          },
          {
            "duration": 0.2727270000000033,
            "durationTicks": 192,
            "midi": 27,
            "name": "D#1",
            "ticks": 70848,
            "time": 100.636263,
            "velocity": 0.3937007874015748
          },
          {
            "duration": 0.2727270000000033,
            "durationTicks": 192,
            "midi": 39,
            "name": "D#2",
            "ticks": 70848,
            "time": 100.636263,
            "velocity": 0.3937007874015748
          },
          {
            "duration": 0.27272699999998906,
            "durationTicks": 192,
            "midi": 27,
            "name": "D#1",
            "ticks": 71040,
            "time": 100.90899,
            "velocity": 0.3937007874015748
          },
          {
            "duration": 0.27272699999998906,
            "durationTicks": 192,
            "midi": 39,
            "name": "D#2",
            "ticks": 71040,
            "time": 100.90899,
            "velocity": 0.3937007874015748
          },
          {
            "duration": 0.2727270000000033,
            "durationTicks": 192,
            "midi": 39,
            "name": "D#2",
            "ticks": 71232,
            "time": 101.18171699999999,
            "velocity": 0.3937007874015748
          },
          {
            "duration": 0.2727270000000033,
            "durationTicks": 192,
            "midi": 27,
            "name": "D#1",
            "ticks": 71232,
            "time": 101.18171699999999,
            "velocity": 0.3937007874015748
          },
          {
            "duration": 0.2727270000000033,
            "durationTicks": 192,
            "midi": 39,
            "name": "D#2",
            "ticks": 71424,
            "time": 101.454444,
            "velocity": 0.3937007874015748
          },
          {
            "duration": 0.2727270000000033,
            "durationTicks": 192,
            "midi": 27,
            "name": "D#1",
            "ticks": 71424,
            "time": 101.454444,
            "velocity": 0.3937007874015748
          },
          {
            "duration": 0.2727270000000033,
            "durationTicks": 192,
            "midi": 39,
            "name": "D#2",
            "ticks": 71616,
            "time": 101.727171,
            "velocity": 0.3937007874015748
          },
          {
            "duration": 0.2727270000000033,
            "durationTicks": 192,
            "midi": 27,
            "name": "D#1",
            "ticks": 71616,
            "time": 101.727171,
            "velocity": 0.3937007874015748
          },
          {
            "duration": 0.2727270000000033,
            "durationTicks": 192,
            "midi": 39,
            "name": "D#2",
            "ticks": 71808,
            "time": 101.999898,
            "velocity": 0.3937007874015748
          },
          {
            "duration": 0.2727270000000033,
            "durationTicks": 192,
            "midi": 27,
            "name": "D#1",
            "ticks": 71808,
            "time": 101.999898,
            "velocity": 0.3937007874015748
          },
          {
            "duration": 0.27272699999998906,
            "durationTicks": 192,
            "midi": 27,
            "name": "D#1",
            "ticks": 72000,
            "time": 102.272625,
            "velocity": 0.3937007874015748
          },
          {
            "duration": 0.27272699999998906,
            "durationTicks": 192,
            "midi": 39,
            "name": "D#2",
            "ticks": 72000,
            "time": 102.272625,
            "velocity": 0.3937007874015748
          },
          {
            "duration": 0.2727270000000033,
            "durationTicks": 192,
            "midi": 39,
            "name": "D#2",
            "ticks": 72192,
            "time": 102.545352,
            "velocity": 0.3937007874015748
          },
          {
            "duration": 0.2727270000000033,
            "durationTicks": 192,
            "midi": 27,
            "name": "D#1",
            "ticks": 72192,
            "time": 102.545352,
            "velocity": 0.3937007874015748
          },
          {
            "duration": 0.2727270000000033,
            "durationTicks": 192,
            "midi": 27,
            "name": "D#1",
            "ticks": 72384,
            "time": 102.818079,
            "velocity": 0.3937007874015748
          },
          {
            "duration": 0.2727270000000033,
            "durationTicks": 192,
            "midi": 39,
            "name": "D#2",
            "ticks": 72384,
            "time": 102.818079,
            "velocity": 0.3937007874015748
          },
          {
            "duration": 0.2727270000000033,
            "durationTicks": 192,
            "midi": 27,
            "name": "D#1",
            "ticks": 72576,
            "time": 103.090806,
            "velocity": 0.3937007874015748
          },
          {
            "duration": 0.2727270000000033,
            "durationTicks": 192,
            "midi": 39,
            "name": "D#2",
            "ticks": 72576,
            "time": 103.090806,
            "velocity": 0.3937007874015748
          },
          {
            "duration": 0.27272699999998906,
            "durationTicks": 192,
            "midi": 39,
            "name": "D#2",
            "ticks": 72768,
            "time": 103.363533,
            "velocity": 0.3937007874015748
          },
          {
            "duration": 0.27272699999998906,
            "durationTicks": 192,
            "midi": 27,
            "name": "D#1",
            "ticks": 72768,
            "time": 103.363533,
            "velocity": 0.3937007874015748
          },
          {
            "duration": 0.2727270000000033,
            "durationTicks": 192,
            "midi": 27,
            "name": "D#1",
            "ticks": 72960,
            "time": 103.63626,
            "velocity": 0.3937007874015748
          },
          {
            "duration": 0.2727270000000033,
            "durationTicks": 192,
            "midi": 39,
            "name": "D#2",
            "ticks": 72960,
            "time": 103.63626,
            "velocity": 0.3937007874015748
          },
          {
            "duration": 0.2727270000000033,
            "durationTicks": 192,
            "midi": 39,
            "name": "D#2",
            "ticks": 73152,
            "time": 103.908987,
            "velocity": 0.3937007874015748
          },
          {
            "duration": 0.2727270000000033,
            "durationTicks": 192,
            "midi": 27,
            "name": "D#1",
            "ticks": 73152,
            "time": 103.908987,
            "velocity": 0.3937007874015748
          },
          {
            "duration": 0.2727270000000033,
            "durationTicks": 192,
            "midi": 39,
            "name": "D#2",
            "ticks": 73344,
            "time": 104.181714,
            "velocity": 0.3937007874015748
          },
          {
            "duration": 0.2727270000000033,
            "durationTicks": 192,
            "midi": 27,
            "name": "D#1",
            "ticks": 73344,
            "time": 104.181714,
            "velocity": 0.3937007874015748
          },
          {
            "duration": 0.2727270000000033,
            "durationTicks": 192,
            "midi": 39,
            "name": "D#2",
            "ticks": 73536,
            "time": 104.454441,
            "velocity": 0.3937007874015748
          },
          {
            "duration": 0.2727270000000033,
            "durationTicks": 192,
            "midi": 27,
            "name": "D#1",
            "ticks": 73536,
            "time": 104.454441,
            "velocity": 0.3937007874015748
          }
        ],
        "endOfTrackTicks": 73728
      },
      {
        "channel": 1,
        "controlChanges": {},
        "pitchBends": [],
        "instrument": {
          "family": "guitar",
          "number": 29,
          "name": "overdriven guitar"
        },
        "name": "Electric Guitar",
        "notes": [
          {
            "duration": 0.27272699999999617,
            "durationTicks": 192,
            "midi": 39,
            "name": "D#2",
            "ticks": 36864,
            "time": 52.363584,
            "velocity": 0.3937007874015748
          },
          {
            "duration": 0.2727270000000033,
            "durationTicks": 192,
            "midi": 36,
            "name": "C2",
            "ticks": 37440,
            "time": 53.181765,
            "velocity": 0.3937007874015748
          },
          {
            "duration": 0.2727270000000033,
            "durationTicks": 192,
            "midi": 34,
            "name": "A#1",
            "ticks": 37824,
            "time": 53.727219,
            "velocity": 0.3937007874015748
          },
          {
            "duration": 0.27272699999999617,
            "durationTicks": 192,
            "midi": 36,
            "name": "C2",
            "ticks": 38016,
            "time": 53.999946,
            "velocity": 0.3937007874015748
          },
          {
            "duration": 0.2727270000000033,
            "durationTicks": 192,
            "midi": 39,
            "name": "D#2",
            "ticks": 38208,
            "time": 54.272673,
            "velocity": 0.3937007874015748
          },
          {
            "duration": 0.27272699999999617,
            "durationTicks": 192,
            "midi": 36,
            "name": "C2",
            "ticks": 38400,
            "time": 54.5454,
            "velocity": 0.3937007874015748
          },
          {
            "duration": 0.2727270000000033,
            "durationTicks": 192,
            "midi": 34,
            "name": "A#1",
            "ticks": 38592,
            "time": 54.818127,
            "velocity": 0.3937007874015748
          },
          {
            "duration": 0.27272699999999617,
            "durationTicks": 192,
            "midi": 36,
            "name": "C2",
            "ticks": 38784,
            "time": 55.090854,
            "velocity": 0.3937007874015748
          },
          {
            "duration": 0.2727270000000033,
            "durationTicks": 192,
            "midi": 34,
            "name": "A#1",
            "ticks": 38976,
            "time": 55.363580999999996,
            "velocity": 0.3937007874015748
          },
          {
            "duration": 0.2727270000000033,
            "durationTicks": 192,
            "midi": 36,
            "name": "C2",
            "ticks": 39168,
            "time": 55.636308,
            "velocity": 0.3937007874015748
          },
          {
            "duration": 0.27272699999999617,
            "durationTicks": 192,
            "midi": 39,
            "name": "D#2",
            "ticks": 39360,
            "time": 55.909035,
            "velocity": 0.3937007874015748
          },
          {
            "duration": 0.2727270000000033,
            "durationTicks": 192,
            "midi": 36,
            "name": "C2",
            "ticks": 39552,
            "time": 56.181762,
            "velocity": 0.3937007874015748
          },
          {
            "duration": 0.27272699999999617,
            "durationTicks": 192,
            "midi": 34,
            "name": "A#1",
            "ticks": 39744,
            "time": 56.454489,
            "velocity": 0.3937007874015748
          },
          {
            "duration": 0.2727270000000033,
            "durationTicks": 192,
            "midi": 39,
            "name": "D#2",
            "ticks": 39936,
            "time": 56.727216,
            "velocity": 0.3937007874015748
          },
          {
            "duration": 0.27272699999999617,
            "durationTicks": 192,
            "midi": 36,
            "name": "C2",
            "ticks": 40512,
            "time": 57.545397,
            "velocity": 0.3937007874015748
          },
          {
            "duration": 0.27272699999999617,
            "durationTicks": 192,
            "midi": 34,
            "name": "A#1",
            "ticks": 40896,
            "time": 58.090851,
            "velocity": 0.3937007874015748
          },
          {
            "duration": 0.2727270000000033,
            "durationTicks": 192,
            "midi": 36,
            "name": "C2",
            "ticks": 41088,
            "time": 58.363578,
            "velocity": 0.3937007874015748
          },
          {
            "duration": 0.27272699999999617,
            "durationTicks": 192,
            "midi": 39,
            "name": "D#2",
            "ticks": 41280,
            "time": 58.636305,
            "velocity": 0.3937007874015748
          },
          {
            "duration": 0.2727270000000033,
            "durationTicks": 192,
            "midi": 36,
            "name": "C2",
            "ticks": 41472,
            "time": 58.909031999999996,
            "velocity": 0.3937007874015748
          },
          {
            "duration": 0.2727270000000033,
            "durationTicks": 192,
            "midi": 34,
            "name": "A#1",
            "ticks": 41664,
            "time": 59.181759,
            "velocity": 0.3937007874015748
          },
          {
            "duration": 0.27272699999999617,
            "durationTicks": 192,
            "midi": 36,
            "name": "C2",
            "ticks": 41856,
            "time": 59.454486,
            "velocity": 0.3937007874015748
          },
          {
            "duration": 0.2727270000000033,
            "durationTicks": 192,
            "midi": 34,
            "name": "A#1",
            "ticks": 42048,
            "time": 59.727213,
            "velocity": 0.3937007874015748
          },
          {
            "duration": 0.27272699999999617,
            "durationTicks": 192,
            "midi": 41,
            "name": "F2",
            "ticks": 42240,
            "time": 59.99994,
            "velocity": 0.3937007874015748
          },
          {
            "duration": 0.2727270000000033,
            "durationTicks": 192,
            "midi": 39,
            "name": "D#2",
            "ticks": 42432,
            "time": 60.272667,
            "velocity": 0.3937007874015748
          },
          {
            "duration": 0.27272699999999617,
            "durationTicks": 192,
            "midi": 36,
            "name": "C2",
            "ticks": 42624,
            "time": 60.545394,
            "velocity": 0.3937007874015748
          },
          {
            "duration": 0.2727270000000033,
            "durationTicks": 192,
            "midi": 34,
            "name": "A#1",
            "ticks": 42816,
            "time": 60.818121,
            "velocity": 0.3937007874015748
          },
          {
            "duration": 0.27272699999999617,
            "durationTicks": 192,
            "midi": 39,
            "name": "D#2",
            "ticks": 43008,
            "time": 61.090848,
            "velocity": 0.3937007874015748
          },
          {
            "duration": 0.2727270000000033,
            "durationTicks": 192,
            "midi": 36,
            "name": "C2",
            "ticks": 43584,
            "time": 61.909029,
            "velocity": 0.3937007874015748
          },
          {
            "duration": 0.2727270000000033,
            "durationTicks": 192,
            "midi": 34,
            "name": "A#1",
            "ticks": 43968,
            "time": 62.454482999999996,
            "velocity": 0.3937007874015748
          },
          {
            "duration": 0.2727270000000033,
            "durationTicks": 192,
            "midi": 36,
            "name": "C2",
            "ticks": 44160,
            "time": 62.72721,
            "velocity": 0.3937007874015748
          },
          {
            "duration": 0.27272699999999617,
            "durationTicks": 192,
            "midi": 39,
            "name": "D#2",
            "ticks": 44352,
            "time": 62.999937,
            "velocity": 0.3937007874015748
          },
          {
            "duration": 0.2727270000000033,
            "durationTicks": 192,
            "midi": 36,
            "name": "C2",
            "ticks": 44544,
            "time": 63.272664,
            "velocity": 0.3937007874015748
          },
          {
            "duration": 0.27272699999999617,
            "durationTicks": 192,
            "midi": 34,
            "name": "A#1",
            "ticks": 44736,
            "time": 63.545391,
            "velocity": 0.3937007874015748
          },
          {
            "duration": 0.2727270000000033,
            "durationTicks": 192,
            "midi": 36,
            "name": "C2",
            "ticks": 44928,
            "time": 63.818118,
            "velocity": 0.3937007874015748
          },
          {
            "duration": 0.2727270000000033,
            "durationTicks": 192,
            "midi": 34,
            "name": "A#1",
            "ticks": 45120,
            "time": 64.090845,
            "velocity": 0.3937007874015748
          },
          {
            "duration": 0.27272699999998906,
            "durationTicks": 192,
            "midi": 36,
            "name": "C2",
            "ticks": 45312,
            "time": 64.363572,
            "velocity": 0.3937007874015748
          },
          {
            "duration": 0.2727270000000033,
            "durationTicks": 192,
            "midi": 39,
            "name": "D#2",
            "ticks": 45504,
            "time": 64.636299,
            "velocity": 0.3937007874015748
          },
          {
            "duration": 0.2727270000000033,
            "durationTicks": 192,
            "midi": 36,
            "name": "C2",
            "ticks": 45696,
            "time": 64.909026,
            "velocity": 0.3937007874015748
          },
          {
            "duration": 0.2727270000000033,
            "durationTicks": 192,
            "midi": 34,
            "name": "A#1",
            "ticks": 45888,
            "time": 65.181753,
            "velocity": 0.3937007874015748
          },
          {
            "duration": 0.27272699999998906,
            "durationTicks": 192,
            "midi": 39,
            "name": "D#2",
            "ticks": 46080,
            "time": 65.45448,
            "velocity": 0.3937007874015748
          },
          {
            "duration": 0.2727270000000033,
            "durationTicks": 192,
            "midi": 36,
            "name": "C2",
            "ticks": 46656,
            "time": 66.272661,
            "velocity": 0.3937007874015748
          },
          {
            "duration": 0.27272699999998906,
            "durationTicks": 192,
            "midi": 34,
            "name": "A#1",
            "ticks": 47040,
            "time": 66.818115,
            "velocity": 0.3937007874015748
          },
          {
            "duration": 0.2727270000000033,
            "durationTicks": 192,
            "midi": 36,
            "name": "C2",
            "ticks": 47232,
            "time": 67.090842,
            "velocity": 0.3937007874015748
          },
          {
            "duration": 0.2727270000000033,
            "durationTicks": 192,
            "midi": 39,
            "name": "D#2",
            "ticks": 47424,
            "time": 67.363569,
            "velocity": 0.3937007874015748
          },
          {
            "duration": 0.2727270000000033,
            "durationTicks": 192,
            "midi": 36,
            "name": "C2",
            "ticks": 47616,
            "time": 67.636296,
            "velocity": 0.3937007874015748
          },
          {
            "duration": 0.27272699999998906,
            "durationTicks": 192,
            "midi": 34,
            "name": "A#1",
            "ticks": 47808,
            "time": 67.909023,
            "velocity": 0.3937007874015748
          },
          {
            "duration": 0.2727270000000033,
            "durationTicks": 192,
            "midi": 36,
            "name": "C2",
            "ticks": 48000,
            "time": 68.18175,
            "velocity": 0.3937007874015748
          },
          {
            "duration": 0.2727270000000033,
            "durationTicks": 192,
            "midi": 34,
            "name": "A#1",
            "ticks": 48192,
            "time": 68.454477,
            "velocity": 0.3937007874015748
          },
          {
            "duration": 0.2727270000000033,
            "durationTicks": 192,
            "midi": 41,
            "name": "F2",
            "ticks": 48384,
            "time": 68.727204,
            "velocity": 0.3937007874015748
          },
          {
            "duration": 0.27272699999998906,
            "durationTicks": 192,
            "midi": 39,
            "name": "D#2",
            "ticks": 48576,
            "time": 68.999931,
            "velocity": 0.3937007874015748
          },
          {
            "duration": 0.2727270000000033,
            "durationTicks": 192,
            "midi": 36,
            "name": "C2",
            "ticks": 48768,
            "time": 69.27265799999999,
            "velocity": 0.3937007874015748
          },
          {
            "duration": 0.2727270000000033,
            "durationTicks": 192,
            "midi": 34,
            "name": "A#1",
            "ticks": 48960,
            "time": 69.545385,
            "velocity": 0.3937007874015748
          }
        ],
        "endOfTrackTicks": 49152
      },
      {
        "channel": 2,
        "controlChanges": {},
        "pitchBends": [],
        "instrument": {
          "family": "synth lead",
          "number": 87,
          "name": "lead 8 (bass + lead)"
        },
        "name": "Synth Pluck",
        "notes": [
          {
            "duration": 0.1363635,
            "durationTicks": 96,
            "midi": 26,
            "name": "D1",
            "ticks": 0,
            "time": 0,
            "velocity": 0.3937007874015748
          },
          {
            "duration": 0.13636350000000003,
            "durationTicks": 96,
            "midi": 26,
            "name": "D1",
            "ticks": 192,
            "time": 0.272727,
            "velocity": 0.3937007874015748
          },
          {
            "duration": 0.13636349999999997,
            "durationTicks": 96,
            "midi": 24,
            "name": "C1",
            "ticks": 576,
            "time": 0.818181,
            "velocity": 0.3937007874015748
          },
          {
            "duration": 0.13636350000000008,
            "durationTicks": 96,
            "midi": 24,
            "name": "C1",
            "ticks": 768,
            "time": 1.090908,
            "velocity": 0.3937007874015748
          },
          {
            "duration": 0.13636350000000008,
            "durationTicks": 96,
            "midi": 24,
            "name": "C1",
            "ticks": 960,
            "time": 1.363635,
            "velocity": 0.3937007874015748
          },
          {
            "duration": 0.13636350000000008,
            "durationTicks": 96,
            "midi": 24,
            "name": "C1",
            "ticks": 1344,
            "time": 1.909089,
            "velocity": 0.3937007874015748
          },
          {
            "duration": 0.13636349999999986,
            "durationTicks": 96,
            "midi": 26,
            "name": "D1",
            "ticks": 1536,
            "time": 2.181816,
            "velocity": 0.3937007874015748
          },
          {
            "duration": 0.13636349999999986,
            "durationTicks": 96,
            "midi": 26,
            "name": "D1",
            "ticks": 1728,
            "time": 2.454543,
            "velocity": 0.3937007874015748
          },
          {
            "duration": 0.13636349999999986,
            "durationTicks": 96,
            "midi": 24,
            "name": "C1",
            "ticks": 2112,
            "time": 2.999997,
            "velocity": 0.3937007874015748
          },
          {
            "duration": 0.13636349999999986,
            "durationTicks": 96,
            "midi": 24,
            "name": "C1",
            "ticks": 2304,
            "time": 3.272724,
            "velocity": 0.3937007874015748
          },
          {
            "duration": 0.13636349999999986,
            "durationTicks": 96,
            "midi": 24,
            "name": "C1",
            "ticks": 2496,
            "time": 3.545451,
            "velocity": 0.3937007874015748
          },
          {
            "duration": 0.13636349999999986,
            "durationTicks": 96,
            "midi": 24,
            "name": "C1",
            "ticks": 2880,
            "time": 4.090905,
            "velocity": 0.3937007874015748
          },
          {
            "duration": 0.13636349999999986,
            "durationTicks": 96,
            "midi": 26,
            "name": "D1",
            "ticks": 3072,
            "time": 4.363632,
            "velocity": 0.3937007874015748
          },
          {
            "duration": 0.13636349999999986,
            "durationTicks": 96,
            "midi": 26,
            "name": "D1",
            "ticks": 3264,
            "time": 4.636359,
            "velocity": 0.3937007874015748
          },
          {
            "duration": 0.13636349999999986,
            "durationTicks": 96,
            "midi": 24,
            "name": "C1",
            "ticks": 3648,
            "time": 5.181813,
            "velocity": 0.3937007874015748
          },
          {
            "duration": 0.13636349999999986,
            "durationTicks": 96,
            "midi": 24,
            "name": "C1",
            "ticks": 3840,
            "time": 5.45454,
            "velocity": 0.3937007874015748
          },
          {
            "duration": 0.13636349999999986,
            "durationTicks": 96,
            "midi": 24,
            "name": "C1",
            "ticks": 4032,
            "time": 5.727267,
            "velocity": 0.3937007874015748
          },
          {
            "duration": 0.13636349999999986,
            "durationTicks": 96,
            "midi": 24,
            "name": "C1",
            "ticks": 4416,
            "time": 6.272721,
            "velocity": 0.3937007874015748
          },
          {
            "duration": 0.13636349999999986,
            "durationTicks": 96,
            "midi": 26,
            "name": "D1",
            "ticks": 4608,
            "time": 6.545448,
            "velocity": 0.3937007874015748
          },
          {
            "duration": 0.13636349999999986,
            "durationTicks": 96,
            "midi": 26,
            "name": "D1",
            "ticks": 4800,
            "time": 6.818175,
            "velocity": 0.3937007874015748
          },
          {
            "duration": 0.13636350000000075,
            "durationTicks": 96,
            "midi": 24,
            "name": "C1",
            "ticks": 5184,
            "time": 7.3636289999999995,
            "velocity": 0.3937007874015748
          },
          {
            "duration": 0.13636349999999986,
            "durationTicks": 96,
            "midi": 24,
            "name": "C1",
            "ticks": 5376,
            "time": 7.636356,
            "velocity": 0.3937007874015748
          },
          {
            "duration": 0.13636350000000075,
            "durationTicks": 96,
            "midi": 30,
            "name": "F#1",
            "ticks": 5568,
            "time": 7.909083,
            "velocity": 0.3937007874015748
          },
          {
            "duration": 0.13636349999999986,
            "durationTicks": 96,
            "midi": 34,
            "name": "A#1",
            "ticks": 5952,
            "time": 8.454537,
            "velocity": 0.3937007874015748
          },
          {
            "duration": 0.13636349999999986,
            "durationTicks": 96,
            "midi": 26,
            "name": "D1",
            "ticks": 6144,
            "time": 8.727264,
            "velocity": 0.3937007874015748
          },
          {
            "duration": 0.13636349999999986,
            "durationTicks": 96,
            "midi": 26,
            "name": "D1",
            "ticks": 6336,
            "time": 8.999991,
            "velocity": 0.3937007874015748
          },
          {
            "duration": 0.13636350000000164,
            "durationTicks": 96,
            "midi": 24,
            "name": "C1",
            "ticks": 6720,
            "time": 9.545444999999999,
            "velocity": 0.3937007874015748
          },
          {
            "duration": 0.13636349999999986,
            "durationTicks": 96,
            "midi": 24,
            "name": "C1",
            "ticks": 6912,
            "time": 9.818172,
            "velocity": 0.3937007874015748
          },
          {
            "duration": 0.13636349999999986,
            "durationTicks": 96,
            "midi": 24,
            "name": "C1",
            "ticks": 7104,
            "time": 10.090899,
            "velocity": 0.3937007874015748
          },
          {
            "duration": 0.13636349999999986,
            "durationTicks": 96,
            "midi": 24,
            "name": "C1",
            "ticks": 7488,
            "time": 10.636353,
            "velocity": 0.3937007874015748
          },
          {
            "duration": 0.13636349999999986,
            "durationTicks": 96,
            "midi": 26,
            "name": "D1",
            "ticks": 7680,
            "time": 10.90908,
            "velocity": 0.3937007874015748
          },
          {
            "duration": 0.13636349999999986,
            "durationTicks": 96,
            "midi": 26,
            "name": "D1",
            "ticks": 7872,
            "time": 11.181807,
            "velocity": 0.3937007874015748
          },
          {
            "duration": 0.13636349999999986,
            "durationTicks": 96,
            "midi": 24,
            "name": "C1",
            "ticks": 8256,
            "time": 11.727261,
            "velocity": 0.3937007874015748
          },
          {
            "duration": 0.13636349999999986,
            "durationTicks": 96,
            "midi": 24,
            "name": "C1",
            "ticks": 8448,
            "time": 11.999988,
            "velocity": 0.3937007874015748
          },
          {
            "duration": 0.13636349999999986,
            "durationTicks": 96,
            "midi": 24,
            "name": "C1",
            "ticks": 8640,
            "time": 12.272715,
            "velocity": 0.3937007874015748
          },
          {
            "duration": 0.13636349999999986,
            "durationTicks": 96,
            "midi": 24,
            "name": "C1",
            "ticks": 9024,
            "time": 12.818169,
            "velocity": 0.3937007874015748
          },
          {
            "duration": 0.13636349999999986,
            "durationTicks": 96,
            "midi": 26,
            "name": "D1",
            "ticks": 9216,
            "time": 13.090896,
            "velocity": 0.3937007874015748
          },
          {
            "duration": 0.13636349999999986,
            "durationTicks": 96,
            "midi": 26,
            "name": "D1",
            "ticks": 9408,
            "time": 13.363623,
            "velocity": 0.3937007874015748
          },
          {
            "duration": 0.13636349999999986,
            "durationTicks": 96,
            "midi": 24,
            "name": "C1",
            "ticks": 9792,
            "time": 13.909077,
            "velocity": 0.3937007874015748
          },
          {
            "duration": 0.13636349999999986,
            "durationTicks": 96,
            "midi": 24,
            "name": "C1",
            "ticks": 9984,
            "time": 14.181804,
            "velocity": 0.3937007874015748
          },
          {
            "duration": 0.13636349999999986,
            "durationTicks": 96,
            "midi": 24,
            "name": "C1",
            "ticks": 10176,
            "time": 14.454531,
            "velocity": 0.3937007874015748
          },
          {
            "duration": 0.13636349999999986,
            "durationTicks": 96,
            "midi": 24,
            "name": "C1",
            "ticks": 10560,
            "time": 14.999985,
            "velocity": 0.3937007874015748
          },
          {
            "duration": 0.13636349999999986,
            "durationTicks": 96,
            "midi": 26,
            "name": "D1",
            "ticks": 10752,
            "time": 15.272712,
            "velocity": 0.3937007874015748
          },
          {
            "duration": 0.13636349999999986,
            "durationTicks": 96,
            "midi": 26,
            "name": "D1",
            "ticks": 10944,
            "time": 15.545439,
            "velocity": 0.3937007874015748
          },
          {
            "duration": 0.13636349999999808,
            "durationTicks": 96,
            "midi": 24,
            "name": "C1",
            "ticks": 11328,
            "time": 16.090893,
            "velocity": 0.3937007874015748
          },
          {
            "duration": 0.13636349999999808,
            "durationTicks": 96,
            "midi": 24,
            "name": "C1",
            "ticks": 11520,
            "time": 16.36362,
            "velocity": 0.3937007874015748
          },
          {
            "duration": 0.13636349999999808,
            "durationTicks": 96,
            "midi": 30,
            "name": "F#1",
            "ticks": 11712,
            "time": 16.636347,
            "velocity": 0.3937007874015748
          },
          {
            "duration": 0.13636349999999808,
            "durationTicks": 96,
            "midi": 34,
            "name": "A#1",
            "ticks": 12096,
            "time": 17.181801,
            "velocity": 0.3937007874015748
          },
          {
            "duration": 0.13636350000000164,
            "durationTicks": 96,
            "midi": 26,
            "name": "D1",
            "ticks": 12288,
            "time": 17.454528,
            "velocity": 0.3937007874015748
          },
          {
            "duration": 0.13636350000000164,
            "durationTicks": 96,
            "midi": 26,
            "name": "D1",
            "ticks": 12480,
            "time": 17.727255,
            "velocity": 0.3937007874015748
          },
          {
            "duration": 0.13636350000000164,
            "durationTicks": 96,
            "midi": 24,
            "name": "C1",
            "ticks": 12864,
            "time": 18.272709,
            "velocity": 0.3937007874015748
          },
          {
            "duration": 0.13636350000000164,
            "durationTicks": 96,
            "midi": 24,
            "name": "C1",
            "ticks": 13056,
            "time": 18.545436,
            "velocity": 0.3937007874015748
          },
          {
            "duration": 0.13636350000000164,
            "durationTicks": 96,
            "midi": 24,
            "name": "C1",
            "ticks": 13248,
            "time": 18.818163,
            "velocity": 0.3937007874015748
          },
          {
            "duration": 0.13636349999999808,
            "durationTicks": 96,
            "midi": 24,
            "name": "C1",
            "ticks": 13632,
            "time": 19.363617,
            "velocity": 0.3937007874015748
          },
          {
            "duration": 0.13636349999999808,
            "durationTicks": 96,
            "midi": 26,
            "name": "D1",
            "ticks": 13824,
            "time": 19.636344,
            "velocity": 0.3937007874015748
          },
          {
            "duration": 0.13636349999999808,
            "durationTicks": 96,
            "midi": 26,
            "name": "D1",
            "ticks": 14016,
            "time": 19.909071,
            "velocity": 0.3937007874015748
          },
          {
            "duration": 0.13636349999999808,
            "durationTicks": 96,
            "midi": 24,
            "name": "C1",
            "ticks": 14400,
            "time": 20.454525,
            "velocity": 0.3937007874015748
          },
          {
            "duration": 0.13636349999999808,
            "durationTicks": 96,
            "midi": 24,
            "name": "C1",
            "ticks": 14592,
            "time": 20.727252,
            "velocity": 0.3937007874015748
          },
          {
            "duration": 0.13636350000000164,
            "durationTicks": 96,
            "midi": 24,
            "name": "C1",
            "ticks": 14784,
            "time": 20.999979,
            "velocity": 0.3937007874015748
          },
          {
            "duration": 0.13636350000000164,
            "durationTicks": 96,
            "midi": 24,
            "name": "C1",
            "ticks": 15168,
            "time": 21.545433,
            "velocity": 0.3937007874015748
          },
          {
            "duration": 0.13636350000000164,
            "durationTicks": 96,
            "midi": 26,
            "name": "D1",
            "ticks": 15360,
            "time": 21.81816,
            "velocity": 0.3937007874015748
          },
          {
            "duration": 0.13636350000000164,
            "durationTicks": 96,
            "midi": 26,
            "name": "D1",
            "ticks": 15552,
            "time": 22.090887,
            "velocity": 0.3937007874015748
          },
          {
            "duration": 0.13636350000000164,
            "durationTicks": 96,
            "midi": 24,
            "name": "C1",
            "ticks": 15936,
            "time": 22.636340999999998,
            "velocity": 0.3937007874015748
          },
          {
            "duration": 0.13636349999999808,
            "durationTicks": 96,
            "midi": 24,
            "name": "C1",
            "ticks": 16128,
            "time": 22.909068,
            "velocity": 0.3937007874015748
          },
          {
            "duration": 0.13636349999999808,
            "durationTicks": 96,
            "midi": 24,
            "name": "C1",
            "ticks": 16320,
            "time": 23.181795,
            "velocity": 0.3937007874015748
          },
          {
            "duration": 0.13636349999999808,
            "durationTicks": 96,
            "midi": 24,
            "name": "C1",
            "ticks": 16704,
            "time": 23.727249,
            "velocity": 0.3937007874015748
          },
          {
            "duration": 0.13636349999999808,
            "durationTicks": 96,
            "midi": 26,
            "name": "D1",
            "ticks": 16896,
            "time": 23.999976,
            "velocity": 0.3937007874015748
          },
          {
            "duration": 0.13636349999999808,
            "durationTicks": 96,
            "midi": 26,
            "name": "D1",
            "ticks": 17088,
            "time": 24.272703,
            "velocity": 0.3937007874015748
          },
          {
            "duration": 0.13636350000000164,
            "durationTicks": 96,
            "midi": 24,
            "name": "C1",
            "ticks": 17472,
            "time": 24.818157,
            "velocity": 0.3937007874015748
          },
          {
            "duration": 0.13636350000000164,
            "durationTicks": 96,
            "midi": 24,
            "name": "C1",
            "ticks": 17664,
            "time": 25.090884,
            "velocity": 0.3937007874015748
          },
          {
            "duration": 0.13636350000000164,
            "durationTicks": 96,
            "midi": 30,
            "name": "F#1",
            "ticks": 17856,
            "time": 25.363611,
            "velocity": 0.3937007874015748
          },
          {
            "duration": 0.13636350000000164,
            "durationTicks": 96,
            "midi": 34,
            "name": "A#1",
            "ticks": 18240,
            "time": 25.909065,
            "velocity": 0.3937007874015748
          },
          {
            "duration": 0.13636349999999808,
            "durationTicks": 96,
            "midi": 26,
            "name": "D1",
            "ticks": 18432,
            "time": 26.181792,
            "velocity": 0.3937007874015748
          },
          {
            "duration": 0.13636349999999808,
            "durationTicks": 96,
            "midi": 26,
            "name": "D1",
            "ticks": 18624,
            "time": 26.454519,
            "velocity": 0.3937007874015748
          },
          {
            "duration": 0.13636349999999808,
            "durationTicks": 96,
            "midi": 24,
            "name": "C1",
            "ticks": 19008,
            "time": 26.999973,
            "velocity": 0.3937007874015748
          },
          {
            "duration": 0.13636349999999808,
            "durationTicks": 96,
            "midi": 24,
            "name": "C1",
            "ticks": 19200,
            "time": 27.2727,
            "velocity": 0.3937007874015748
          },
          {
            "duration": 0.13636349999999808,
            "durationTicks": 96,
            "midi": 24,
            "name": "C1",
            "ticks": 19392,
            "time": 27.545427,
            "velocity": 0.3937007874015748
          },
          {
            "duration": 0.13636350000000164,
            "durationTicks": 96,
            "midi": 24,
            "name": "C1",
            "ticks": 19776,
            "time": 28.090881,
            "velocity": 0.3937007874015748
          },
          {
            "duration": 0.13636350000000164,
            "durationTicks": 96,
            "midi": 26,
            "name": "D1",
            "ticks": 19968,
            "time": 28.363608,
            "velocity": 0.3937007874015748
          },
          {
            "duration": 0.13636350000000164,
            "durationTicks": 96,
            "midi": 26,
            "name": "D1",
            "ticks": 20160,
            "time": 28.636335,
            "velocity": 0.3937007874015748
          },
          {
            "duration": 0.13636350000000164,
            "durationTicks": 96,
            "midi": 24,
            "name": "C1",
            "ticks": 20544,
            "time": 29.181789,
            "velocity": 0.3937007874015748
          },
          {
            "duration": 0.13636350000000164,
            "durationTicks": 96,
            "midi": 24,
            "name": "C1",
            "ticks": 20736,
            "time": 29.454515999999998,
            "velocity": 0.3937007874015748
          },
          {
            "duration": 0.13636349999999808,
            "durationTicks": 96,
            "midi": 24,
            "name": "C1",
            "ticks": 20928,
            "time": 29.727243,
            "velocity": 0.3937007874015748
          },
          {
            "duration": 0.13636349999999808,
            "durationTicks": 96,
            "midi": 24,
            "name": "C1",
            "ticks": 21312,
            "time": 30.272697,
            "velocity": 0.3937007874015748
          },
          {
            "duration": 0.13636349999999808,
            "durationTicks": 96,
            "midi": 26,
            "name": "D1",
            "ticks": 21504,
            "time": 30.545424,
            "velocity": 0.3937007874015748
          },
          {
            "duration": 0.13636349999999808,
            "durationTicks": 96,
            "midi": 26,
            "name": "D1",
            "ticks": 21696,
            "time": 30.818151,
            "velocity": 0.3937007874015748
          },
          {
            "duration": 0.13636350000000164,
            "durationTicks": 96,
            "midi": 24,
            "name": "C1",
            "ticks": 22080,
            "time": 31.363605,
            "velocity": 0.3937007874015748
          },
          {
            "duration": 0.13636350000000164,
            "durationTicks": 96,
            "midi": 24,
            "name": "C1",
            "ticks": 22272,
            "time": 31.636332,
            "velocity": 0.3937007874015748
          },
          {
            "duration": 0.13636350000000164,
            "durationTicks": 96,
            "midi": 24,
            "name": "C1",
            "ticks": 22464,
            "time": 31.909059,
            "velocity": 0.3937007874015748
          },
          {
            "duration": 0.13636350000000164,
            "durationTicks": 96,
            "midi": 24,
            "name": "C1",
            "ticks": 22848,
            "time": 32.454513,
            "velocity": 0.3937007874015748
          },
          {
            "duration": 0.13636349999999453,
            "durationTicks": 96,
            "midi": 26,
            "name": "D1",
            "ticks": 23040,
            "time": 32.72724,
            "velocity": 0.3937007874015748
          },
          {
            "duration": 0.13636350000000164,
            "durationTicks": 96,
            "midi": 26,
            "name": "D1",
            "ticks": 23232,
            "time": 32.999967,
            "velocity": 0.3937007874015748
          },
          {
            "duration": 0.13636350000000164,
            "durationTicks": 96,
            "midi": 24,
            "name": "C1",
            "ticks": 23616,
            "time": 33.545421,
            "velocity": 0.3937007874015748
          },
          {
            "duration": 0.13636350000000164,
            "durationTicks": 96,
            "midi": 24,
            "name": "C1",
            "ticks": 23808,
            "time": 33.818148,
            "velocity": 0.3937007874015748
          },
          {
            "duration": 0.13636350000000164,
            "durationTicks": 96,
            "midi": 30,
            "name": "F#1",
            "ticks": 24000,
            "time": 34.090875,
            "velocity": 0.3937007874015748
          },
          {
            "duration": 0.13636350000000164,
            "durationTicks": 96,
            "midi": 34,
            "name": "A#1",
            "ticks": 24384,
            "time": 34.636328999999996,
            "velocity": 0.3937007874015748
          },
          {
            "duration": 0.13636350000000164,
            "durationTicks": 96,
            "midi": 27,
            "name": "D#1",
            "ticks": 49152,
            "time": 69.818112,
            "velocity": 0.3937007874015748
          },
          {
            "duration": 0.13636350000000164,
            "durationTicks": 96,
            "midi": 24,
            "name": "C1",
            "ticks": 49728,
            "time": 70.636293,
            "velocity": 0.3937007874015748
          },
          {
            "duration": 0.13636350000000164,
            "durationTicks": 96,
            "midi": 27,
            "name": "D#1",
            "ticks": 52224,
            "time": 74.181744,
            "velocity": 0.3937007874015748
          },
          {
            "duration": 0.13636350000000164,
            "durationTicks": 96,
            "midi": 24,
            "name": "C1",
            "ticks": 52800,
            "time": 74.999925,
            "velocity": 0.3937007874015748
          },
          {
            "duration": 0.13636350000000164,
            "durationTicks": 96,
            "midi": 27,
            "name": "D#1",
            "ticks": 55296,
            "time": 78.545376,
            "velocity": 0.3937007874015748
          },
          {
            "duration": 0.13636350000000164,
            "durationTicks": 96,
            "midi": 24,
            "name": "C1",
            "ticks": 55872,
            "time": 79.363557,
            "velocity": 0.3937007874015748
          },
          {
            "duration": 0.13636350000000164,
            "durationTicks": 96,
            "midi": 27,
            "name": "D#1",
            "ticks": 58368,
            "time": 82.909008,
            "velocity": 0.3937007874015748
          },
          {
            "duration": 0.13636350000000164,
            "durationTicks": 96,
            "midi": 24,
            "name": "C1",
            "ticks": 58944,
            "time": 83.727189,
            "velocity": 0.3937007874015748
          },
          {
            "duration": 0.13636350000000164,
            "durationTicks": 96,
            "midi": 27,
            "name": "D#1",
            "ticks": 61440,
            "time": 87.27264,
            "velocity": 0.3937007874015748
          },
          {
            "duration": 0.13636349999998743,
            "durationTicks": 96,
            "midi": 24,
            "name": "C1",
            "ticks": 62016,
            "time": 88.090821,
            "velocity": 0.3937007874015748
          },
          {
            "duration": 0.13636349999998743,
            "durationTicks": 96,
            "midi": 27,
            "name": "D#1",
            "ticks": 64512,
            "time": 91.636272,
            "velocity": 0.3937007874015748
          },
          {
            "duration": 0.13636350000000164,
            "durationTicks": 96,
            "midi": 24,
            "name": "C1",
            "ticks": 65088,
            "time": 92.454453,
            "velocity": 0.3937007874015748
          },
          {
            "duration": 0.13636349999998743,
            "durationTicks": 96,
            "midi": 26,
            "name": "D1",
            "ticks": 73728,
            "time": 104.727168,
            "velocity": 0.3937007874015748
          },
          {
            "duration": 0.13636350000000164,
            "durationTicks": 96,
            "midi": 26,
            "name": "D1",
            "ticks": 73920,
            "time": 104.999895,
            "velocity": 0.3937007874015748
          },
          {
            "duration": 0.13636350000000164,
            "durationTicks": 96,
            "midi": 24,
            "name": "C1",
            "ticks": 74304,
            "time": 105.545349,
            "velocity": 0.3937007874015748
          },
          {
            "duration": 0.13636349999998743,
            "durationTicks": 96,
            "midi": 24,
            "name": "C1",
            "ticks": 74496,
            "time": 105.818076,
            "velocity": 0.3937007874015748
          },
          {
            "duration": 0.13636350000000164,
            "durationTicks": 96,
            "midi": 24,
            "name": "C1",
            "ticks": 74688,
            "time": 106.090803,
            "velocity": 0.3937007874015748
          },
          {
            "duration": 0.13636350000000164,
            "durationTicks": 96,
            "midi": 24,
            "name": "C1",
            "ticks": 75072,
            "time": 106.636257,
            "velocity": 0.3937007874015748
          },
          {
            "duration": 0.13636350000000164,
            "durationTicks": 96,
            "midi": 26,
            "name": "D1",
            "ticks": 75264,
            "time": 106.908984,
            "velocity": 0.3937007874015748
          },
          {
            "duration": 0.13636350000000164,
            "durationTicks": 96,
            "midi": 26,
            "name": "D1",
            "ticks": 75456,
            "time": 107.18171099999999,
            "velocity": 0.3937007874015748
          },
          {
            "duration": 0.13636350000000164,
            "durationTicks": 96,
            "midi": 24,
            "name": "C1",
            "ticks": 75840,
            "time": 107.727165,
            "velocity": 0.3937007874015748
          },
          {
            "duration": 0.13636350000000164,
            "durationTicks": 96,
            "midi": 24,
            "name": "C1",
            "ticks": 76032,
            "time": 107.999892,
            "velocity": 0.3937007874015748
          },
          {
            "duration": 0.13636349999998743,
            "durationTicks": 96,
            "midi": 24,
            "name": "C1",
            "ticks": 76224,
            "time": 108.272619,
            "velocity": 0.3937007874015748
          },
          {
            "duration": 0.13636350000000164,
            "durationTicks": 96,
            "midi": 24,
            "name": "C1",
            "ticks": 76608,
            "time": 108.818073,
            "velocity": 0.3937007874015748
          },
          {
            "duration": 0.13636350000000164,
            "durationTicks": 96,
            "midi": 26,
            "name": "D1",
            "ticks": 76800,
            "time": 109.0908,
            "velocity": 0.3937007874015748
          },
          {
            "duration": 0.13636349999998743,
            "durationTicks": 96,
            "midi": 26,
            "name": "D1",
            "ticks": 76992,
            "time": 109.363527,
            "velocity": 0.3937007874015748
          },
          {
            "duration": 0.13636350000000164,
            "durationTicks": 96,
            "midi": 24,
            "name": "C1",
            "ticks": 77376,
            "time": 109.908981,
            "velocity": 0.3937007874015748
          },
          {
            "duration": 0.13636350000000164,
            "durationTicks": 96,
            "midi": 24,
            "name": "C1",
            "ticks": 77568,
            "time": 110.181708,
            "velocity": 0.3937007874015748
          },
          {
            "duration": 0.13636350000000164,
            "durationTicks": 96,
            "midi": 24,
            "name": "C1",
            "ticks": 77760,
            "time": 110.454435,
            "velocity": 0.3937007874015748
          },
          {
            "duration": 0.13636350000000164,
            "durationTicks": 96,
            "midi": 24,
            "name": "C1",
            "ticks": 78144,
            "time": 110.999889,
            "velocity": 0.3937007874015748
          },
          {
            "duration": 0.13636350000000164,
            "durationTicks": 96,
            "midi": 26,
            "name": "D1",
            "ticks": 78336,
            "time": 111.272616,
            "velocity": 0.3937007874015748
          },
          {
            "duration": 0.13636350000000164,
            "durationTicks": 96,
            "midi": 26,
            "name": "D1",
            "ticks": 78528,
            "time": 111.545343,
            "velocity": 0.3937007874015748
          },
          {
            "duration": 0.13636350000000164,
            "durationTicks": 96,
            "midi": 24,
            "name": "C1",
            "ticks": 78912,
            "time": 112.090797,
            "velocity": 0.3937007874015748
          },
          {
            "duration": 0.13636350000000164,
            "durationTicks": 96,
            "midi": 24,
            "name": "C1",
            "ticks": 79104,
            "time": 112.363524,
            "velocity": 0.3937007874015748
          },
          {
            "duration": 0.13636350000000164,
            "durationTicks": 96,
            "midi": 30,
            "name": "F#1",
            "ticks": 79296,
            "time": 112.636251,
            "velocity": 0.3937007874015748
          },
          {
            "duration": 0.13636350000000164,
            "durationTicks": 96,
            "midi": 34,
            "name": "A#1",
            "ticks": 79680,
            "time": 113.181705,
            "velocity": 0.3937007874015748
          },
          {
            "duration": 0.13636350000000164,
            "durationTicks": 96,
            "midi": 26,
            "name": "D1",
            "ticks": 79872,
            "time": 113.454432,
            "velocity": 0.3937007874015748
          },
          {
            "duration": 0.13636350000000164,
            "durationTicks": 96,
            "midi": 26,
            "name": "D1",
            "ticks": 80064,
            "time": 113.727159,
            "velocity": 0.3937007874015748
          },
          {
            "duration": 0.13636350000000164,
            "durationTicks": 96,
            "midi": 24,
            "name": "C1",
            "ticks": 80448,
            "time": 114.27261299999999,
            "velocity": 0.3937007874015748
          },
          {
            "duration": 0.13636350000000164,
            "durationTicks": 96,
            "midi": 24,
            "name": "C1",
            "ticks": 80640,
            "time": 114.54534,
            "velocity": 0.3937007874015748
          },
          {
            "duration": 0.13636350000000164,
            "durationTicks": 96,
            "midi": 24,
            "name": "C1",
            "ticks": 80832,
            "time": 114.818067,
            "velocity": 0.3937007874015748
          },
          {
            "duration": 0.13636349999998743,
            "durationTicks": 96,
            "midi": 24,
            "name": "C1",
            "ticks": 81216,
            "time": 115.363521,
            "velocity": 0.3937007874015748
          },
          {
            "duration": 0.13636350000000164,
            "durationTicks": 96,
            "midi": 26,
            "name": "D1",
            "ticks": 81408,
            "time": 115.636248,
            "velocity": 0.3937007874015748
          },
          {
            "duration": 0.13636350000000164,
            "durationTicks": 96,
            "midi": 26,
            "name": "D1",
            "ticks": 81600,
            "time": 115.908975,
            "velocity": 0.3937007874015748
          },
          {
            "duration": 0.13636349999998743,
            "durationTicks": 96,
            "midi": 24,
            "name": "C1",
            "ticks": 81984,
            "time": 116.454429,
            "velocity": 0.3937007874015748
          },
          {
            "duration": 0.13636350000000164,
            "durationTicks": 96,
            "midi": 24,
            "name": "C1",
            "ticks": 82176,
            "time": 116.727156,
            "velocity": 0.3937007874015748
          },
          {
            "duration": 0.13636350000000164,
            "durationTicks": 96,
            "midi": 24,
            "name": "C1",
            "ticks": 82368,
            "time": 116.999883,
            "velocity": 0.3937007874015748
          },
          {
            "duration": 0.13636350000000164,
            "durationTicks": 96,
            "midi": 24,
            "name": "C1",
            "ticks": 82752,
            "time": 117.545337,
            "velocity": 0.3937007874015748
          },
          {
            "duration": 0.13636350000000164,
            "durationTicks": 96,
            "midi": 26,
            "name": "D1",
            "ticks": 82944,
            "time": 117.81806399999999,
            "velocity": 0.3937007874015748
          },
          {
            "duration": 0.13636350000000164,
            "durationTicks": 96,
            "midi": 26,
            "name": "D1",
            "ticks": 83136,
            "time": 118.090791,
            "velocity": 0.3937007874015748
          },
          {
            "duration": 0.13636350000000164,
            "durationTicks": 96,
            "midi": 24,
            "name": "C1",
            "ticks": 83520,
            "time": 118.636245,
            "velocity": 0.3937007874015748
          },
          {
            "duration": 0.13636349999998743,
            "durationTicks": 96,
            "midi": 24,
            "name": "C1",
            "ticks": 83712,
            "time": 118.908972,
            "velocity": 0.3937007874015748
          },
          {
            "duration": 0.13636350000000164,
            "durationTicks": 96,
            "midi": 24,
            "name": "C1",
            "ticks": 83904,
            "time": 119.181699,
            "velocity": 0.3937007874015748
          },
          {
            "duration": 0.13636350000000164,
            "durationTicks": 96,
            "midi": 24,
            "name": "C1",
            "ticks": 84288,
            "time": 119.727153,
            "velocity": 0.3937007874015748
          },
          {
            "duration": 0.13636349999998743,
            "durationTicks": 96,
            "midi": 26,
            "name": "D1",
            "ticks": 84480,
            "time": 119.99988,
            "velocity": 0.3937007874015748
          },
          {
            "duration": 0.13636350000000164,
            "durationTicks": 96,
            "midi": 26,
            "name": "D1",
            "ticks": 84672,
            "time": 120.272607,
            "velocity": 0.3937007874015748
          },
          {
            "duration": 0.13636350000000164,
            "durationTicks": 96,
            "midi": 24,
            "name": "C1",
            "ticks": 85056,
            "time": 120.818061,
            "velocity": 0.3937007874015748
          },
          {
            "duration": 0.13636350000000164,
            "durationTicks": 96,
            "midi": 24,
            "name": "C1",
            "ticks": 85248,
            "time": 121.090788,
            "velocity": 0.3937007874015748
          },
          {
            "duration": 0.13636350000000164,
            "durationTicks": 96,
            "midi": 30,
            "name": "F#1",
            "ticks": 85440,
            "time": 121.36351499999999,
            "velocity": 0.3937007874015748
          },
          {
            "duration": 0.13636350000000164,
            "durationTicks": 96,
            "midi": 34,
            "name": "A#1",
            "ticks": 85824,
            "time": 121.908969,
            "velocity": 0.3937007874015748
          }
        ],
        "endOfTrackTicks": 85920
      },
      {
        "channel": 3,
        "controlChanges": {},
        "pitchBends": [],
        "instrument": {
          "family": "synth effects",
          "number": 99,
          "name": "fx 4 (atmosphere)"
        },
        "name": "Scifi",
        "notes": [
          {
            "duration": 0.13636350000000164,
            "durationTicks": 96,
            "midi": 48,
            "name": "C3",
            "ticks": 13248,
            "time": 18.818163,
            "velocity": 0.3937007874015748
          },
          {
            "duration": 0.13636350000000164,
            "durationTicks": 96,
            "midi": 46,
            "name": "A#2",
            "ticks": 13440,
            "time": 19.090889999999998,
            "velocity": 0.3937007874015748
          },
          {
            "duration": 0.13636349999999808,
            "durationTicks": 96,
            "midi": 48,
            "name": "C3",
            "ticks": 13632,
            "time": 19.363617,
            "velocity": 0.3937007874015748
          },
          {
            "duration": 0.13636350000000164,
            "durationTicks": 96,
            "midi": 48,
            "name": "C3",
            "ticks": 14784,
            "time": 20.999979,
            "velocity": 0.3937007874015748
          },
          {
            "duration": 0.13636350000000164,
            "durationTicks": 96,
            "midi": 51,
            "name": "D#3",
            "ticks": 14976,
            "time": 21.272706,
            "velocity": 0.3937007874015748
          },
          {
            "duration": 0.13636350000000164,
            "durationTicks": 96,
            "midi": 48,
            "name": "C3",
            "ticks": 15168,
            "time": 21.545433,
            "velocity": 0.3937007874015748
          },
          {
            "duration": 0.13636349999999808,
            "durationTicks": 96,
            "midi": 48,
            "name": "C3",
            "ticks": 16320,
            "time": 23.181795,
            "velocity": 0.3937007874015748
          },
          {
            "duration": 0.13636349999999808,
            "durationTicks": 96,
            "midi": 46,
            "name": "A#2",
            "ticks": 16512,
            "time": 23.454522,
            "velocity": 0.3937007874015748
          },
          {
            "duration": 0.13636349999999808,
            "durationTicks": 96,
            "midi": 48,
            "name": "C3",
            "ticks": 16704,
            "time": 23.727249,
            "velocity": 0.3937007874015748
          },
          {
            "duration": 0.13636350000000164,
            "durationTicks": 96,
            "midi": 48,
            "name": "C3",
            "ticks": 17856,
            "time": 25.363611,
            "velocity": 0.3937007874015748
          },
          {
            "duration": 0.13636350000000164,
            "durationTicks": 96,
            "midi": 51,
            "name": "D#3",
            "ticks": 18048,
            "time": 25.636338,
            "velocity": 0.3937007874015748
          },
          {
            "duration": 0.13636350000000164,
            "durationTicks": 96,
            "midi": 53,
            "name": "F3",
            "ticks": 18240,
            "time": 25.909065,
            "velocity": 0.3937007874015748
          },
          {
            "duration": 0.13636349999999808,
            "durationTicks": 96,
            "midi": 48,
            "name": "C3",
            "ticks": 19392,
            "time": 27.545427,
            "velocity": 0.3937007874015748
          },
          {
            "duration": 0.13636350000000164,
            "durationTicks": 96,
            "midi": 46,
            "name": "A#2",
            "ticks": 19584,
            "time": 27.818154,
            "velocity": 0.3937007874015748
          },
          {
            "duration": 0.13636350000000164,
            "durationTicks": 96,
            "midi": 48,
            "name": "C3",
            "ticks": 19776,
            "time": 28.090881,
            "velocity": 0.3937007874015748
          },
          {
            "duration": 0.13636349999999808,
            "durationTicks": 96,
            "midi": 48,
            "name": "C3",
            "ticks": 20928,
            "time": 29.727243,
            "velocity": 0.3937007874015748
          },
          {
            "duration": 0.13636349999999808,
            "durationTicks": 96,
            "midi": 51,
            "name": "D#3",
            "ticks": 21120,
            "time": 29.99997,
            "velocity": 0.3937007874015748
          },
          {
            "duration": 0.13636349999999808,
            "durationTicks": 96,
            "midi": 48,
            "name": "C3",
            "ticks": 21312,
            "time": 30.272697,
            "velocity": 0.3937007874015748
          },
          {
            "duration": 0.13636350000000164,
            "durationTicks": 96,
            "midi": 48,
            "name": "C3",
            "ticks": 22464,
            "time": 31.909059,
            "velocity": 0.3937007874015748
          },
          {
            "duration": 0.13636349999999453,
            "durationTicks": 96,
            "midi": 46,
            "name": "A#2",
            "ticks": 22656,
            "time": 32.181786,
            "velocity": 0.3937007874015748
          },
          {
            "duration": 0.13636350000000164,
            "durationTicks": 96,
            "midi": 48,
            "name": "C3",
            "ticks": 22848,
            "time": 32.454513,
            "velocity": 0.3937007874015748
          },
          {
            "duration": 0.13636350000000164,
            "durationTicks": 96,
            "midi": 48,
            "name": "C3",
            "ticks": 24000,
            "time": 34.090875,
            "velocity": 0.3937007874015748
          },
          {
            "duration": 0.13636350000000164,
            "durationTicks": 96,
            "midi": 51,
            "name": "D#3",
            "ticks": 24192,
            "time": 34.363602,
            "velocity": 0.3937007874015748
          },
          {
            "duration": 0.13636350000000164,
            "durationTicks": 96,
            "midi": 53,
            "name": "F3",
            "ticks": 24384,
            "time": 34.636328999999996,
            "velocity": 0.3937007874015748
          },
          {
            "duration": 0.13636350000000164,
            "durationTicks": 96,
            "midi": 48,
            "name": "C3",
            "ticks": 74688,
            "time": 106.090803,
            "velocity": 0.3937007874015748
          },
          {
            "duration": 0.13636350000000164,
            "durationTicks": 96,
            "midi": 46,
            "name": "A#2",
            "ticks": 74880,
            "time": 106.36353,
            "velocity": 0.3937007874015748
          },
          {
            "duration": 0.13636350000000164,
            "durationTicks": 96,
            "midi": 48,
            "name": "C3",
            "ticks": 75072,
            "time": 106.636257,
            "velocity": 0.3937007874015748
          },
          {
            "duration": 0.13636349999998743,
            "durationTicks": 96,
            "midi": 48,
            "name": "C3",
            "ticks": 76224,
            "time": 108.272619,
            "velocity": 0.3937007874015748
          },
          {
            "duration": 0.13636350000000164,
            "durationTicks": 96,
            "midi": 51,
            "name": "D#3",
            "ticks": 76416,
            "time": 108.545346,
            "velocity": 0.3937007874015748
          },
          {
            "duration": 0.13636350000000164,
            "durationTicks": 96,
            "midi": 48,
            "name": "C3",
            "ticks": 76608,
            "time": 108.818073,
            "velocity": 0.3937007874015748
          },
          {
            "duration": 0.13636350000000164,
            "durationTicks": 96,
            "midi": 48,
            "name": "C3",
            "ticks": 77760,
            "time": 110.454435,
            "velocity": 0.3937007874015748
          },
          {
            "duration": 0.13636350000000164,
            "durationTicks": 96,
            "midi": 46,
            "name": "A#2",
            "ticks": 77952,
            "time": 110.72716199999999,
            "velocity": 0.3937007874015748
          },
          {
            "duration": 0.13636350000000164,
            "durationTicks": 96,
            "midi": 48,
            "name": "C3",
            "ticks": 78144,
            "time": 110.999889,
            "velocity": 0.3937007874015748
          },
          {
            "duration": 0.13636350000000164,
            "durationTicks": 96,
            "midi": 48,
            "name": "C3",
            "ticks": 79296,
            "time": 112.636251,
            "velocity": 0.3937007874015748
          },
          {
            "duration": 0.13636349999998743,
            "durationTicks": 96,
            "midi": 51,
            "name": "D#3",
            "ticks": 79488,
            "time": 112.908978,
            "velocity": 0.3937007874015748
          },
          {
            "duration": 0.13636350000000164,
            "durationTicks": 96,
            "midi": 53,
            "name": "F3",
            "ticks": 79680,
            "time": 113.181705,
            "velocity": 0.3937007874015748
          },
          {
            "duration": 0.13636350000000164,
            "durationTicks": 96,
            "midi": 48,
            "name": "C3",
            "ticks": 80832,
            "time": 114.818067,
            "velocity": 0.3937007874015748
          },
          {
            "duration": 0.13636350000000164,
            "durationTicks": 96,
            "midi": 46,
            "name": "A#2",
            "ticks": 81024,
            "time": 115.090794,
            "velocity": 0.3937007874015748
          },
          {
            "duration": 0.13636349999998743,
            "durationTicks": 96,
            "midi": 48,
            "name": "C3",
            "ticks": 81216,
            "time": 115.363521,
            "velocity": 0.3937007874015748
          },
          {
            "duration": 0.13636350000000164,
            "durationTicks": 96,
            "midi": 48,
            "name": "C3",
            "ticks": 82368,
            "time": 116.999883,
            "velocity": 0.3937007874015748
          },
          {
            "duration": 0.13636350000000164,
            "durationTicks": 96,
            "midi": 51,
            "name": "D#3",
            "ticks": 82560,
            "time": 117.27261,
            "velocity": 0.3937007874015748
          },
          {
            "duration": 0.13636350000000164,
            "durationTicks": 96,
            "midi": 48,
            "name": "C3",
            "ticks": 82752,
            "time": 117.545337,
            "velocity": 0.3937007874015748
          },
          {
            "duration": 0.13636350000000164,
            "durationTicks": 96,
            "midi": 48,
            "name": "C3",
            "ticks": 83904,
            "time": 119.181699,
            "velocity": 0.3937007874015748
          },
          {
            "duration": 0.13636350000000164,
            "durationTicks": 96,
            "midi": 46,
            "name": "A#2",
            "ticks": 84096,
            "time": 119.454426,
            "velocity": 0.3937007874015748
          },
          {
            "duration": 0.13636350000000164,
            "durationTicks": 96,
            "midi": 48,
            "name": "C3",
            "ticks": 84288,
            "time": 119.727153,
            "velocity": 0.3937007874015748
          },
          {
            "duration": 0.13636350000000164,
            "durationTicks": 96,
            "midi": 48,
            "name": "C3",
            "ticks": 85440,
            "time": 121.36351499999999,
            "velocity": 0.3937007874015748
          },
          {
            "duration": 0.13636350000000164,
            "durationTicks": 96,
            "midi": 51,
            "name": "D#3",
            "ticks": 85632,
            "time": 121.636242,
            "velocity": 0.3937007874015748
          },
          {
            "duration": 0.13636350000000164,
            "durationTicks": 96,
            "midi": 53,
            "name": "F3",
            "ticks": 85824,
            "time": 121.908969,
            "velocity": 0.3937007874015748
          }
        ],
        "endOfTrackTicks": 85920
      },
      {
        "channel": 4,
        "controlChanges": {},
        "pitchBends": [],
        "instrument": {
          "family": "synth lead",
          "number": 80,
          "name": "lead 1 (square)"
        },
        "name": "8-Bit Square",
        "notes": [
          {
            "duration": 0.8181809999999992,
            "durationTicks": 576,
            "midi": 38,
            "name": "D2",
            "ticks": 12288,
            "time": 17.454528,
            "velocity": 0.3937007874015748
          },
          {
            "duration": 0.8181809999999992,
            "durationTicks": 576,
            "midi": 36,
            "name": "C2",
            "ticks": 12864,
            "time": 18.272709,
            "velocity": 0.3937007874015748
          },
          {
            "duration": 0.8181809999999992,
            "durationTicks": 576,
            "midi": 38,
            "name": "D2",
            "ticks": 13824,
            "time": 19.636344,
            "velocity": 0.3937007874015748
          },
          {
            "duration": 0.8181809999999992,
            "durationTicks": 576,
            "midi": 36,
            "name": "C2",
            "ticks": 14400,
            "time": 20.454525,
            "velocity": 0.3937007874015748
          },
          {
            "duration": 0.8181809999999992,
            "durationTicks": 576,
            "midi": 38,
            "name": "D2",
            "ticks": 15360,
            "time": 21.81816,
            "velocity": 0.3937007874015748
          },
          {
            "duration": 0.8181810000000027,
            "durationTicks": 576,
            "midi": 36,
            "name": "C2",
            "ticks": 15936,
            "time": 22.636340999999998,
            "velocity": 0.3937007874015748
          },
          {
            "duration": 0.8181809999999992,
            "durationTicks": 576,
            "midi": 38,
            "name": "D2",
            "ticks": 16896,
            "time": 23.999976,
            "velocity": 0.3937007874015748
          },
          {
            "duration": 0.8181809999999992,
            "durationTicks": 576,
            "midi": 36,
            "name": "C2",
            "ticks": 17472,
            "time": 24.818157,
            "velocity": 0.3937007874015748
          },
          {
            "duration": 0.8181809999999992,
            "durationTicks": 576,
            "midi": 38,
            "name": "D2",
            "ticks": 18432,
            "time": 26.181792,
            "velocity": 0.3937007874015748
          },
          {
            "duration": 0.8181809999999992,
            "durationTicks": 576,
            "midi": 36,
            "name": "C2",
            "ticks": 19008,
            "time": 26.999973,
            "velocity": 0.3937007874015748
          },
          {
            "duration": 0.8181809999999992,
            "durationTicks": 576,
            "midi": 38,
            "name": "D2",
            "ticks": 19968,
            "time": 28.363608,
            "velocity": 0.3937007874015748
          },
          {
            "duration": 0.8181810000000027,
            "durationTicks": 576,
            "midi": 36,
            "name": "C2",
            "ticks": 20544,
            "time": 29.181789,
            "velocity": 0.3937007874015748
          },
          {
            "duration": 0.8181809999999992,
            "durationTicks": 576,
            "midi": 38,
            "name": "D2",
            "ticks": 21504,
            "time": 30.545424,
            "velocity": 0.3937007874015748
          },
          {
            "duration": 0.8181810000000027,
            "durationTicks": 576,
            "midi": 36,
            "name": "C2",
            "ticks": 22080,
            "time": 31.363605,
            "velocity": 0.3937007874015748
          },
          {
            "duration": 0.8181809999999956,
            "durationTicks": 576,
            "midi": 38,
            "name": "D2",
            "ticks": 23040,
            "time": 32.72724,
            "velocity": 0.3937007874015748
          },
          {
            "duration": 0.8181810000000027,
            "durationTicks": 576,
            "midi": 36,
            "name": "C2",
            "ticks": 23616,
            "time": 33.545421,
            "velocity": 0.3937007874015748
          },
          {
            "duration": 0.8181810000000027,
            "durationTicks": 576,
            "midi": 27,
            "name": "D#1",
            "ticks": 24576,
            "time": 34.909056,
            "velocity": 0.3937007874015748
          },
          {
            "duration": 0.8181810000000027,
            "durationTicks": 576,
            "midi": 39,
            "name": "D#2",
            "ticks": 24576,
            "time": 34.909056,
            "velocity": 0.3937007874015748
          },
          {
            "duration": 0.8181809999999956,
            "durationTicks": 576,
            "midi": 36,
            "name": "C2",
            "ticks": 25152,
            "time": 35.727237,
            "velocity": 0.3937007874015748
          },
          {
            "duration": 0.8181809999999956,
            "durationTicks": 576,
            "midi": 24,
            "name": "C1",
            "ticks": 25152,
            "time": 35.727237,
            "velocity": 0.3937007874015748
          },
          {
            "duration": 0.5454539999999994,
            "durationTicks": 384,
            "midi": 36,
            "name": "C2",
            "ticks": 25728,
            "time": 36.545418,
            "velocity": 0.3937007874015748
          },
          {
            "duration": 0.5454539999999994,
            "durationTicks": 384,
            "midi": 24,
            "name": "C1",
            "ticks": 25728,
            "time": 36.545418,
            "velocity": 0.3937007874015748
          },
          {
            "duration": 0.8181809999999956,
            "durationTicks": 576,
            "midi": 39,
            "name": "D#2",
            "ticks": 27648,
            "time": 39.272688,
            "velocity": 0.3937007874015748
          },
          {
            "duration": 0.8181809999999956,
            "durationTicks": 576,
            "midi": 27,
            "name": "D#1",
            "ticks": 27648,
            "time": 39.272688,
            "velocity": 0.3937007874015748
          },
          {
            "duration": 0.8181810000000027,
            "durationTicks": 576,
            "midi": 36,
            "name": "C2",
            "ticks": 28224,
            "time": 40.090869,
            "velocity": 0.3937007874015748
          },
          {
            "duration": 0.8181810000000027,
            "durationTicks": 576,
            "midi": 24,
            "name": "C1",
            "ticks": 28224,
            "time": 40.090869,
            "velocity": 0.3937007874015748
          },
          {
            "duration": 0.5454539999999994,
            "durationTicks": 384,
            "midi": 36,
            "name": "C2",
            "ticks": 28800,
            "time": 40.90905,
            "velocity": 0.3937007874015748
          },
          {
            "duration": 0.5454539999999994,
            "durationTicks": 384,
            "midi": 24,
            "name": "C1",
            "ticks": 28800,
            "time": 40.90905,
            "velocity": 0.3937007874015748
          },
          {
            "duration": 0.8181810000000027,
            "durationTicks": 576,
            "midi": 27,
            "name": "D#1",
            "ticks": 30720,
            "time": 43.63632,
            "velocity": 0.3937007874015748
          },
          {
            "duration": 0.8181810000000027,
            "durationTicks": 576,
            "midi": 39,
            "name": "D#2",
            "ticks": 30720,
            "time": 43.63632,
            "velocity": 0.3937007874015748
          },
          {
            "duration": 0.8181809999999956,
            "durationTicks": 576,
            "midi": 36,
            "name": "C2",
            "ticks": 31296,
            "time": 44.454501,
            "velocity": 0.3937007874015748
          },
          {
            "duration": 0.8181809999999956,
            "durationTicks": 576,
            "midi": 24,
            "name": "C1",
            "ticks": 31296,
            "time": 44.454501,
            "velocity": 0.3937007874015748
          },
          {
            "duration": 0.5454540000000065,
            "durationTicks": 384,
            "midi": 36,
            "name": "C2",
            "ticks": 31872,
            "time": 45.272681999999996,
            "velocity": 0.3937007874015748
          },
          {
            "duration": 0.5454540000000065,
            "durationTicks": 384,
            "midi": 24,
            "name": "C1",
            "ticks": 31872,
            "time": 45.272681999999996,
            "velocity": 0.3937007874015748
          },
          {
            "duration": 0.8181809999999956,
            "durationTicks": 576,
            "midi": 27,
            "name": "D#1",
            "ticks": 33792,
            "time": 47.999952,
            "velocity": 0.3937007874015748
          },
          {
            "duration": 0.8181809999999956,
            "durationTicks": 576,
            "midi": 39,
            "name": "D#2",
            "ticks": 33792,
            "time": 47.999952,
            "velocity": 0.3937007874015748
          },
          {
            "duration": 0.8181810000000027,
            "durationTicks": 576,
            "midi": 24,
            "name": "C1",
            "ticks": 34368,
            "time": 48.818132999999996,
            "velocity": 0.3937007874015748
          },
          {
            "duration": 0.8181810000000027,
            "durationTicks": 576,
            "midi": 36,
            "name": "C2",
            "ticks": 34368,
            "time": 48.818132999999996,
            "velocity": 0.3937007874015748
          },
          {
            "duration": 0.5454539999999994,
            "durationTicks": 384,
            "midi": 24,
            "name": "C1",
            "ticks": 34944,
            "time": 49.636314,
            "velocity": 0.3937007874015748
          },
          {
            "duration": 0.5454539999999994,
            "durationTicks": 384,
            "midi": 36,
            "name": "C2",
            "ticks": 34944,
            "time": 49.636314,
            "velocity": 0.3937007874015748
          },
          {
            "duration": 0.8181809999999956,
            "durationTicks": 576,
            "midi": 39,
            "name": "D#2",
            "ticks": 36864,
            "time": 52.363584,
            "velocity": 0.3937007874015748
          },
          {
            "duration": 0.8181809999999956,
            "durationTicks": 576,
            "midi": 27,
            "name": "D#1",
            "ticks": 36864,
            "time": 52.363584,
            "velocity": 0.3937007874015748
          },
          {
            "duration": 0.8181810000000027,
            "durationTicks": 576,
            "midi": 24,
            "name": "C1",
            "ticks": 37440,
            "time": 53.181765,
            "velocity": 0.3937007874015748
          },
          {
            "duration": 0.8181810000000027,
            "durationTicks": 576,
            "midi": 36,
            "name": "C2",
            "ticks": 37440,
            "time": 53.181765,
            "velocity": 0.3937007874015748
          },
          {
            "duration": 0.5454539999999994,
            "durationTicks": 384,
            "midi": 36,
            "name": "C2",
            "ticks": 38016,
            "time": 53.999946,
            "velocity": 0.3937007874015748
          },
          {
            "duration": 0.5454539999999994,
            "durationTicks": 384,
            "midi": 24,
            "name": "C1",
            "ticks": 38016,
            "time": 53.999946,
            "velocity": 0.3937007874015748
          },
          {
            "duration": 0.06818175000000082,
            "durationTicks": 48,
            "midi": 36,
            "name": "C2",
            "ticks": 39552,
            "time": 56.181762,
            "velocity": 0.3937007874015748
          },
          {
            "duration": 0.06818175000000082,
            "durationTicks": 48,
            "midi": 48,
            "name": "C3",
            "ticks": 39552,
            "time": 56.181762,
            "velocity": 0.3937007874015748
          },
          {
            "duration": 0.06818175000000082,
            "durationTicks": 48,
            "midi": 58,
            "name": "A#3",
            "ticks": 39600,
            "time": 56.24994375,
            "velocity": 0.3937007874015748
          },
          {
            "duration": 0.06818175000000082,
            "durationTicks": 48,
            "midi": 46,
            "name": "A#2",
            "ticks": 39600,
            "time": 56.24994375,
            "velocity": 0.3937007874015748
          },
          {
            "duration": 0.06818175000000082,
            "durationTicks": 48,
            "midi": 48,
            "name": "C3",
            "ticks": 39648,
            "time": 56.3181255,
            "velocity": 0.3937007874015748
          },
          {
            "duration": 0.06818175000000082,
            "durationTicks": 48,
            "midi": 60,
            "name": "C4",
            "ticks": 39648,
            "time": 56.3181255,
            "velocity": 0.3937007874015748
          },
          {
            "duration": 0.06818175000000082,
            "durationTicks": 48,
            "midi": 51,
            "name": "D#3",
            "ticks": 39696,
            "time": 56.38630725,
            "velocity": 0.3937007874015748
          },
          {
            "duration": 0.06818175000000082,
            "durationTicks": 48,
            "midi": 63,
            "name": "D#4",
            "ticks": 39696,
            "time": 56.38630725,
            "velocity": 0.3937007874015748
          },
          {
            "duration": 0.06818175000000082,
            "durationTicks": 48,
            "midi": 36,
            "name": "C2",
            "ticks": 39696,
            "time": 56.38630725,
            "velocity": 0.3937007874015748
          },
          {
            "duration": 0.06818175000000082,
            "durationTicks": 48,
            "midi": 48,
            "name": "C3",
            "ticks": 39696,
            "time": 56.38630725,
            "velocity": 0.3937007874015748
          },
          {
            "duration": 0.06818174999999371,
            "durationTicks": 48,
            "midi": 46,
            "name": "A#2",
            "ticks": 39744,
            "time": 56.454489,
            "velocity": 0.3937007874015748
          },
          {
            "duration": 0.06818174999999371,
            "durationTicks": 48,
            "midi": 58,
            "name": "A#3",
            "ticks": 39744,
            "time": 56.454489,
            "velocity": 0.3937007874015748
          },
          {
            "duration": 0.06818175000000082,
            "durationTicks": 48,
            "midi": 60,
            "name": "C4",
            "ticks": 39792,
            "time": 56.522670749999996,
            "velocity": 0.3937007874015748
          },
          {
            "duration": 0.06818175000000082,
            "durationTicks": 48,
            "midi": 48,
            "name": "C3",
            "ticks": 39792,
            "time": 56.522670749999996,
            "velocity": 0.3937007874015748
          },
          {
            "duration": 0.06818175000000082,
            "durationTicks": 48,
            "midi": 51,
            "name": "D#3",
            "ticks": 39840,
            "time": 56.5908525,
            "velocity": 0.3937007874015748
          },
          {
            "duration": 0.06818175000000082,
            "durationTicks": 48,
            "midi": 63,
            "name": "D#4",
            "ticks": 39840,
            "time": 56.5908525,
            "velocity": 0.3937007874015748
          },
          {
            "duration": 0.8181810000000027,
            "durationTicks": 576,
            "midi": 27,
            "name": "D#1",
            "ticks": 39936,
            "time": 56.727216,
            "velocity": 0.3937007874015748
          },
          {
            "duration": 0.8181810000000027,
            "durationTicks": 576,
            "midi": 39,
            "name": "D#2",
            "ticks": 39936,
            "time": 56.727216,
            "velocity": 0.3937007874015748
          },
          {
            "duration": 0.8181809999999956,
            "durationTicks": 576,
            "midi": 24,
            "name": "C1",
            "ticks": 40512,
            "time": 57.545397,
            "velocity": 0.3937007874015748
          },
          {
            "duration": 0.8181809999999956,
            "durationTicks": 576,
            "midi": 36,
            "name": "C2",
            "ticks": 40512,
            "time": 57.545397,
            "velocity": 0.3937007874015748
          },
          {
            "duration": 0.5454539999999994,
            "durationTicks": 384,
            "midi": 36,
            "name": "C2",
            "ticks": 41088,
            "time": 58.363578,
            "velocity": 0.3937007874015748
          },
          {
            "duration": 0.5454539999999994,
            "durationTicks": 384,
            "midi": 24,
            "name": "C1",
            "ticks": 41088,
            "time": 58.363578,
            "velocity": 0.3937007874015748
          },
          {
            "duration": 0.8181809999999956,
            "durationTicks": 576,
            "midi": 39,
            "name": "D#2",
            "ticks": 43008,
            "time": 61.090848,
            "velocity": 0.3937007874015748
          },
          {
            "duration": 0.8181809999999956,
            "durationTicks": 576,
            "midi": 27,
            "name": "D#1",
            "ticks": 43008,
            "time": 61.090848,
            "velocity": 0.3937007874015748
          },
          {
            "duration": 0.8181810000000027,
            "durationTicks": 576,
            "midi": 24,
            "name": "C1",
            "ticks": 43584,
            "time": 61.909029,
            "velocity": 0.3937007874015748
          },
          {
            "duration": 0.8181810000000027,
            "durationTicks": 576,
            "midi": 36,
            "name": "C2",
            "ticks": 43584,
            "time": 61.909029,
            "velocity": 0.3937007874015748
          },
          {
            "duration": 0.5454539999999994,
            "durationTicks": 384,
            "midi": 36,
            "name": "C2",
            "ticks": 44160,
            "time": 62.72721,
            "velocity": 0.3937007874015748
          },
          {
            "duration": 0.5454539999999994,
            "durationTicks": 384,
            "midi": 24,
            "name": "C1",
            "ticks": 44160,
            "time": 62.72721,
            "velocity": 0.3937007874015748
          },
          {
            "duration": 0.06818175000000792,
            "durationTicks": 48,
            "midi": 48,
            "name": "C3",
            "ticks": 45696,
            "time": 64.909026,
            "velocity": 0.3937007874015748
          },
          {
            "duration": 0.06818175000000792,
            "durationTicks": 48,
            "midi": 36,
            "name": "C2",
            "ticks": 45696,
            "time": 64.909026,
            "velocity": 0.3937007874015748
          },
          {
            "duration": 0.06818174999999371,
            "durationTicks": 48,
            "midi": 58,
            "name": "A#3",
            "ticks": 45744,
            "time": 64.97720775,
            "velocity": 0.3937007874015748
          },
          {
            "duration": 0.06818174999999371,
            "durationTicks": 48,
            "midi": 46,
            "name": "A#2",
            "ticks": 45744,
            "time": 64.97720775,
            "velocity": 0.3937007874015748
          },
          {
            "duration": 0.06818174999999371,
            "durationTicks": 48,
            "midi": 48,
            "name": "C3",
            "ticks": 45792,
            "time": 65.0453895,
            "velocity": 0.3937007874015748
          },
          {
            "duration": 0.06818174999999371,
            "durationTicks": 48,
            "midi": 60,
            "name": "C4",
            "ticks": 45792,
            "time": 65.0453895,
            "velocity": 0.3937007874015748
          },
          {
            "duration": 0.06818175000000792,
            "durationTicks": 48,
            "midi": 48,
            "name": "C3",
            "ticks": 45840,
            "time": 65.11357124999999,
            "velocity": 0.3937007874015748
          },
          {
            "duration": 0.06818175000000792,
            "durationTicks": 48,
            "midi": 63,
            "name": "D#4",
            "ticks": 45840,
            "time": 65.11357124999999,
            "velocity": 0.3937007874015748
          },
          {
            "duration": 0.06818175000000792,
            "durationTicks": 48,
            "midi": 51,
            "name": "D#3",
            "ticks": 45840,
            "time": 65.11357124999999,
            "velocity": 0.3937007874015748
          },
          {
            "duration": 0.06818175000000792,
            "durationTicks": 48,
            "midi": 36,
            "name": "C2",
            "ticks": 45840,
            "time": 65.11357124999999,
            "velocity": 0.3937007874015748
          },
          {
            "duration": 0.06818174999999371,
            "durationTicks": 48,
            "midi": 46,
            "name": "A#2",
            "ticks": 45888,
            "time": 65.181753,
            "velocity": 0.3937007874015748
          },
          {
            "duration": 0.06818174999999371,
            "durationTicks": 48,
            "midi": 58,
            "name": "A#3",
            "ticks": 45888,
            "time": 65.181753,
            "velocity": 0.3937007874015748
          },
          {
            "duration": 0.06818175000000792,
            "durationTicks": 48,
            "midi": 48,
            "name": "C3",
            "ticks": 45936,
            "time": 65.24993475,
            "velocity": 0.3937007874015748
          },
          {
            "duration": 0.06818175000000792,
            "durationTicks": 48,
            "midi": 60,
            "name": "C4",
            "ticks": 45936,
            "time": 65.24993475,
            "velocity": 0.3937007874015748
          },
          {
            "duration": 0.06818174999999371,
            "durationTicks": 48,
            "midi": 51,
            "name": "D#3",
            "ticks": 45984,
            "time": 65.3181165,
            "velocity": 0.3937007874015748
          },
          {
            "duration": 0.06818174999999371,
            "durationTicks": 48,
            "midi": 63,
            "name": "D#4",
            "ticks": 45984,
            "time": 65.3181165,
            "velocity": 0.3937007874015748
          },
          {
            "duration": 0.8181809999999956,
            "durationTicks": 576,
            "midi": 39,
            "name": "D#2",
            "ticks": 46080,
            "time": 65.45448,
            "velocity": 0.3937007874015748
          },
          {
            "duration": 0.8181809999999956,
            "durationTicks": 576,
            "midi": 27,
            "name": "D#1",
            "ticks": 46080,
            "time": 65.45448,
            "velocity": 0.3937007874015748
          },
          {
            "duration": 0.8181809999999956,
            "durationTicks": 576,
            "midi": 24,
            "name": "C1",
            "ticks": 46656,
            "time": 66.272661,
            "velocity": 0.3937007874015748
          },
          {
            "duration": 0.8181809999999956,
            "durationTicks": 576,
            "midi": 36,
            "name": "C2",
            "ticks": 46656,
            "time": 66.272661,
            "velocity": 0.3937007874015748
          },
          {
            "duration": 0.5454540000000065,
            "durationTicks": 384,
            "midi": 36,
            "name": "C2",
            "ticks": 47232,
            "time": 67.090842,
            "velocity": 0.3937007874015748
          },
          {
            "duration": 0.5454540000000065,
            "durationTicks": 384,
            "midi": 24,
            "name": "C1",
            "ticks": 47232,
            "time": 67.090842,
            "velocity": 0.3937007874015748
          },
          {
            "duration": 0.8181809999999956,
            "durationTicks": 576,
            "midi": 38,
            "name": "D2",
            "ticks": 73728,
            "time": 104.727168,
            "velocity": 0.3937007874015748
          },
          {
            "duration": 0.8181809999999956,
            "durationTicks": 576,
            "midi": 36,
            "name": "C2",
            "ticks": 74304,
            "time": 105.545349,
            "velocity": 0.3937007874015748
          },
          {
            "duration": 0.8181809999999956,
            "durationTicks": 576,
            "midi": 38,
            "name": "D2",
            "ticks": 75264,
            "time": 106.908984,
            "velocity": 0.3937007874015748
          },
          {
            "duration": 0.8181809999999956,
            "durationTicks": 576,
            "midi": 36,
            "name": "C2",
            "ticks": 75840,
            "time": 107.727165,
            "velocity": 0.3937007874015748
          },
          {
            "duration": 0.8181809999999956,
            "durationTicks": 576,
            "midi": 38,
            "name": "D2",
            "ticks": 76800,
            "time": 109.0908,
            "velocity": 0.3937007874015748
          },
          {
            "duration": 0.8181809999999956,
            "durationTicks": 576,
            "midi": 36,
            "name": "C2",
            "ticks": 77376,
            "time": 109.908981,
            "velocity": 0.3937007874015748
          },
          {
            "duration": 0.8181809999999956,
            "durationTicks": 576,
            "midi": 38,
            "name": "D2",
            "ticks": 78336,
            "time": 111.272616,
            "velocity": 0.3937007874015748
          },
          {
            "duration": 0.8181810000000098,
            "durationTicks": 576,
            "midi": 36,
            "name": "C2",
            "ticks": 78912,
            "time": 112.090797,
            "velocity": 0.3937007874015748
          },
          {
            "duration": 0.8181809999999956,
            "durationTicks": 576,
            "midi": 38,
            "name": "D2",
            "ticks": 79872,
            "time": 113.454432,
            "velocity": 0.3937007874015748
          },
          {
            "duration": 0.8181810000000098,
            "durationTicks": 576,
            "midi": 36,
            "name": "C2",
            "ticks": 80448,
            "time": 114.27261299999999,
            "velocity": 0.3937007874015748
          },
          {
            "duration": 0.8181810000000098,
            "durationTicks": 576,
            "midi": 38,
            "name": "D2",
            "ticks": 81408,
            "time": 115.636248,
            "velocity": 0.3937007874015748
          },
          {
            "duration": 0.8181809999999956,
            "durationTicks": 576,
            "midi": 36,
            "name": "C2",
            "ticks": 81984,
            "time": 116.454429,
            "velocity": 0.3937007874015748
          },
          {
            "duration": 0.8181810000000098,
            "durationTicks": 576,
            "midi": 38,
            "name": "D2",
            "ticks": 82944,
            "time": 117.81806399999999,
            "velocity": 0.3937007874015748
          },
          {
            "duration": 0.8181809999999956,
            "durationTicks": 576,
            "midi": 36,
            "name": "C2",
            "ticks": 83520,
            "time": 118.636245,
            "velocity": 0.3937007874015748
          },
          {
            "duration": 0.8181809999999956,
            "durationTicks": 576,
            "midi": 38,
            "name": "D2",
            "ticks": 84480,
            "time": 119.99988,
            "velocity": 0.3937007874015748
          },
          {
            "duration": 0.8181809999999956,
            "durationTicks": 576,
            "midi": 36,
            "name": "C2",
            "ticks": 85056,
            "time": 120.818061,
            "velocity": 0.3937007874015748
          }
        ],
        "endOfTrackTicks": 85632
      },
      {
        "channel": 5,
        "controlChanges": {},
        "pitchBends": [],
        "instrument": {
          "family": "synth lead",
          "number": 81,
          "name": "lead 2 (sawtooth)"
        },
        "name": "8-Bit Sawtooth",
        "notes": [
          {
            "duration": 0.272727,
            "durationTicks": 192,
            "midi": 26,
            "name": "D1",
            "ticks": 0,
            "time": 0,
            "velocity": 0.3937007874015748
          },
          {
            "duration": 0.272727,
            "durationTicks": 192,
            "midi": 38,
            "name": "D2",
            "ticks": 0,
            "time": 0,
            "velocity": 0.3937007874015748
          },
          {
            "duration": 0.272727,
            "durationTicks": 192,
            "midi": 26,
            "name": "D1",
            "ticks": 192,
            "time": 0.272727,
            "velocity": 0.3937007874015748
          },
          {
            "duration": 0.272727,
            "durationTicks": 192,
            "midi": 38,
            "name": "D2",
            "ticks": 192,
            "time": 0.272727,
            "velocity": 0.3937007874015748
          },
          {
            "duration": 0.306817875,
            "durationTicks": 216,
            "midi": 26,
            "name": "D1",
            "ticks": 384,
            "time": 0.545454,
            "velocity": 0.3937007874015748
          },
          {
            "duration": 0.306817875,
            "durationTicks": 216,
            "midi": 38,
            "name": "D2",
            "ticks": 384,
            "time": 0.545454,
            "velocity": 0.3937007874015748
          },
          {
            "duration": 0.5454539999999999,
            "durationTicks": 384,
            "midi": 24,
            "name": "C1",
            "ticks": 576,
            "time": 0.818181,
            "velocity": 0.3937007874015748
          },
          {
            "duration": 0.5454539999999999,
            "durationTicks": 384,
            "midi": 36,
            "name": "C2",
            "ticks": 576,
            "time": 0.818181,
            "velocity": 0.3937007874015748
          },
          {
            "duration": 0.5795448750000001,
            "durationTicks": 408,
            "midi": 24,
            "name": "C1",
            "ticks": 960,
            "time": 1.363635,
            "velocity": 0.3937007874015748
          },
          {
            "duration": 0.5795448750000001,
            "durationTicks": 408,
            "midi": 36,
            "name": "C2",
            "ticks": 960,
            "time": 1.363635,
            "velocity": 0.3937007874015748
          },
          {
            "duration": 0.27272700000000016,
            "durationTicks": 192,
            "midi": 26,
            "name": "D1",
            "ticks": 1536,
            "time": 2.181816,
            "velocity": 0.3937007874015748
          },
          {
            "duration": 0.27272700000000016,
            "durationTicks": 192,
            "midi": 38,
            "name": "D2",
            "ticks": 1536,
            "time": 2.181816,
            "velocity": 0.3937007874015748
          },
          {
            "duration": 0.2727269999999997,
            "durationTicks": 192,
            "midi": 26,
            "name": "D1",
            "ticks": 1728,
            "time": 2.454543,
            "velocity": 0.3937007874015748
          },
          {
            "duration": 0.2727269999999997,
            "durationTicks": 192,
            "midi": 38,
            "name": "D2",
            "ticks": 1728,
            "time": 2.454543,
            "velocity": 0.3937007874015748
          },
          {
            "duration": 0.30681787500000013,
            "durationTicks": 216,
            "midi": 26,
            "name": "D1",
            "ticks": 1920,
            "time": 2.72727,
            "velocity": 0.3937007874015748
          },
          {
            "duration": 0.30681787500000013,
            "durationTicks": 216,
            "midi": 38,
            "name": "D2",
            "ticks": 1920,
            "time": 2.72727,
            "velocity": 0.3937007874015748
          },
          {
            "duration": 0.5454539999999999,
            "durationTicks": 384,
            "midi": 24,
            "name": "C1",
            "ticks": 2112,
            "time": 2.999997,
            "velocity": 0.3937007874015748
          },
          {
            "duration": 0.5454539999999999,
            "durationTicks": 384,
            "midi": 36,
            "name": "C2",
            "ticks": 2112,
            "time": 2.999997,
            "velocity": 0.3937007874015748
          },
          {
            "duration": 0.5795448749999998,
            "durationTicks": 408,
            "midi": 24,
            "name": "C1",
            "ticks": 2496,
            "time": 3.545451,
            "velocity": 0.3937007874015748
          },
          {
            "duration": 0.5795448749999998,
            "durationTicks": 408,
            "midi": 36,
            "name": "C2",
            "ticks": 2496,
            "time": 3.545451,
            "velocity": 0.3937007874015748
          },
          {
            "duration": 0.2727269999999997,
            "durationTicks": 192,
            "midi": 38,
            "name": "D2",
            "ticks": 3072,
            "time": 4.363632,
            "velocity": 0.3937007874015748
          },
          {
            "duration": 0.2727269999999997,
            "durationTicks": 192,
            "midi": 26,
            "name": "D1",
            "ticks": 3072,
            "time": 4.363632,
            "velocity": 0.3937007874015748
          },
          {
            "duration": 0.2727270000000006,
            "durationTicks": 192,
            "midi": 26,
            "name": "D1",
            "ticks": 3264,
            "time": 4.636359,
            "velocity": 0.3937007874015748
          },
          {
            "duration": 0.2727270000000006,
            "durationTicks": 192,
            "midi": 38,
            "name": "D2",
            "ticks": 3264,
            "time": 4.636359,
            "velocity": 0.3937007874015748
          },
          {
            "duration": 0.30681787499999924,
            "durationTicks": 216,
            "midi": 38,
            "name": "D2",
            "ticks": 3456,
            "time": 4.909086,
            "velocity": 0.3937007874015748
          },
          {
            "duration": 0.30681787499999924,
            "durationTicks": 216,
            "midi": 26,
            "name": "D1",
            "ticks": 3456,
            "time": 4.909086,
            "velocity": 0.3937007874015748
          },
          {
            "duration": 0.5454540000000003,
            "durationTicks": 384,
            "midi": 24,
            "name": "C1",
            "ticks": 3648,
            "time": 5.181813,
            "velocity": 0.3937007874015748
          },
          {
            "duration": 0.5454540000000003,
            "durationTicks": 384,
            "midi": 36,
            "name": "C2",
            "ticks": 3648,
            "time": 5.181813,
            "velocity": 0.3937007874015748
          },
          {
            "duration": 0.5795448749999998,
            "durationTicks": 408,
            "midi": 36,
            "name": "C2",
            "ticks": 4032,
            "time": 5.727267,
            "velocity": 0.3937007874015748
          },
          {
            "duration": 0.5795448749999998,
            "durationTicks": 408,
            "midi": 24,
            "name": "C1",
            "ticks": 4032,
            "time": 5.727267,
            "velocity": 0.3937007874015748
          },
          {
            "duration": 0.2727269999999997,
            "durationTicks": 192,
            "midi": 38,
            "name": "D2",
            "ticks": 4608,
            "time": 6.545448,
            "velocity": 0.3937007874015748
          },
          {
            "duration": 0.2727269999999997,
            "durationTicks": 192,
            "midi": 26,
            "name": "D1",
            "ticks": 4608,
            "time": 6.545448,
            "velocity": 0.3937007874015748
          },
          {
            "duration": 0.2727269999999997,
            "durationTicks": 192,
            "midi": 38,
            "name": "D2",
            "ticks": 4800,
            "time": 6.818175,
            "velocity": 0.3937007874015748
          },
          {
            "duration": 0.2727269999999997,
            "durationTicks": 192,
            "midi": 26,
            "name": "D1",
            "ticks": 4800,
            "time": 6.818175,
            "velocity": 0.3937007874015748
          },
          {
            "duration": 0.30681787500000013,
            "durationTicks": 216,
            "midi": 26,
            "name": "D1",
            "ticks": 4992,
            "time": 7.090902,
            "velocity": 0.3937007874015748
          },
          {
            "duration": 0.30681787500000013,
            "durationTicks": 216,
            "midi": 38,
            "name": "D2",
            "ticks": 4992,
            "time": 7.090902,
            "velocity": 0.3937007874015748
          },
          {
            "duration": 0.5454540000000003,
            "durationTicks": 384,
            "midi": 36,
            "name": "C2",
            "ticks": 5184,
            "time": 7.3636289999999995,
            "velocity": 0.3937007874015748
          },
          {
            "duration": 0.5454540000000003,
            "durationTicks": 384,
            "midi": 24,
            "name": "C1",
            "ticks": 5184,
            "time": 7.3636289999999995,
            "velocity": 0.3937007874015748
          },
          {
            "duration": 0.13636350000000075,
            "durationTicks": 96,
            "midi": 30,
            "name": "F#1",
            "ticks": 5568,
            "time": 7.909083,
            "velocity": 0.3937007874015748
          },
          {
            "duration": 0.13636350000000075,
            "durationTicks": 96,
            "midi": 42,
            "name": "F#2",
            "ticks": 5568,
            "time": 7.909083,
            "velocity": 0.3937007874015748
          },
          {
            "duration": 0.13636349999999986,
            "durationTicks": 96,
            "midi": 42,
            "name": "F#2",
            "ticks": 5760,
            "time": 8.18181,
            "velocity": 0.3937007874015748
          },
          {
            "duration": 0.13636349999999986,
            "durationTicks": 96,
            "midi": 30,
            "name": "F#1",
            "ticks": 5760,
            "time": 8.18181,
            "velocity": 0.3937007874015748
          },
          {
            "duration": 0.13636349999999986,
            "durationTicks": 96,
            "midi": 46,
            "name": "A#2",
            "ticks": 5952,
            "time": 8.454537,
            "velocity": 0.3937007874015748
          },
          {
            "duration": 0.13636349999999986,
            "durationTicks": 96,
            "midi": 34,
            "name": "A#1",
            "ticks": 5952,
            "time": 8.454537,
            "velocity": 0.3937007874015748
          },
          {
            "duration": 0.2727269999999997,
            "durationTicks": 192,
            "midi": 26,
            "name": "D1",
            "ticks": 6144,
            "time": 8.727264,
            "velocity": 0.3937007874015748
          },
          {
            "duration": 0.2727269999999997,
            "durationTicks": 192,
            "midi": 38,
            "name": "D2",
            "ticks": 6144,
            "time": 8.727264,
            "velocity": 0.3937007874015748
          },
          {
            "duration": 0.2727269999999997,
            "durationTicks": 192,
            "midi": 38,
            "name": "D2",
            "ticks": 6336,
            "time": 8.999991,
            "velocity": 0.3937007874015748
          },
          {
            "duration": 0.2727269999999997,
            "durationTicks": 192,
            "midi": 26,
            "name": "D1",
            "ticks": 6336,
            "time": 8.999991,
            "velocity": 0.3937007874015748
          },
          {
            "duration": 0.30681787500000013,
            "durationTicks": 216,
            "midi": 26,
            "name": "D1",
            "ticks": 6528,
            "time": 9.272718,
            "velocity": 0.3937007874015748
          },
          {
            "duration": 0.30681787500000013,
            "durationTicks": 216,
            "midi": 38,
            "name": "D2",
            "ticks": 6528,
            "time": 9.272718,
            "velocity": 0.3937007874015748
          },
          {
            "duration": 0.5454540000000012,
            "durationTicks": 384,
            "midi": 24,
            "name": "C1",
            "ticks": 6720,
            "time": 9.545444999999999,
            "velocity": 0.3937007874015748
          },
          {
            "duration": 0.5454540000000012,
            "durationTicks": 384,
            "midi": 36,
            "name": "C2",
            "ticks": 6720,
            "time": 9.545444999999999,
            "velocity": 0.3937007874015748
          },
          {
            "duration": 0.5795448749999998,
            "durationTicks": 408,
            "midi": 36,
            "name": "C2",
            "ticks": 7104,
            "time": 10.090899,
            "velocity": 0.3937007874015748
          },
          {
            "duration": 0.5795448749999998,
            "durationTicks": 408,
            "midi": 24,
            "name": "C1",
            "ticks": 7104,
            "time": 10.090899,
            "velocity": 0.3937007874015748
          },
          {
            "duration": 0.2727269999999997,
            "durationTicks": 192,
            "midi": 38,
            "name": "D2",
            "ticks": 7680,
            "time": 10.90908,
            "velocity": 0.3937007874015748
          },
          {
            "duration": 0.2727269999999997,
            "durationTicks": 192,
            "midi": 26,
            "name": "D1",
            "ticks": 7680,
            "time": 10.90908,
            "velocity": 0.3937007874015748
          },
          {
            "duration": 0.2727270000000015,
            "durationTicks": 192,
            "midi": 26,
            "name": "D1",
            "ticks": 7872,
            "time": 11.181807,
            "velocity": 0.3937007874015748
          },
          {
            "duration": 0.2727270000000015,
            "durationTicks": 192,
            "midi": 38,
            "name": "D2",
            "ticks": 7872,
            "time": 11.181807,
            "velocity": 0.3937007874015748
          },
          {
            "duration": 0.30681787499999835,
            "durationTicks": 216,
            "midi": 38,
            "name": "D2",
            "ticks": 8064,
            "time": 11.454534,
            "velocity": 0.3937007874015748
          },
          {
            "duration": 0.30681787499999835,
            "durationTicks": 216,
            "midi": 26,
            "name": "D1",
            "ticks": 8064,
            "time": 11.454534,
            "velocity": 0.3937007874015748
          },
          {
            "duration": 0.5454539999999994,
            "durationTicks": 384,
            "midi": 24,
            "name": "C1",
            "ticks": 8256,
            "time": 11.727261,
            "velocity": 0.3937007874015748
          },
          {
            "duration": 0.5454539999999994,
            "durationTicks": 384,
            "midi": 36,
            "name": "C2",
            "ticks": 8256,
            "time": 11.727261,
            "velocity": 0.3937007874015748
          },
          {
            "duration": 0.5795448749999998,
            "durationTicks": 408,
            "midi": 24,
            "name": "C1",
            "ticks": 8640,
            "time": 12.272715,
            "velocity": 0.3937007874015748
          },
          {
            "duration": 0.5795448749999998,
            "durationTicks": 408,
            "midi": 36,
            "name": "C2",
            "ticks": 8640,
            "time": 12.272715,
            "velocity": 0.3937007874015748
          },
          {
            "duration": 0.2727269999999997,
            "durationTicks": 192,
            "midi": 38,
            "name": "D2",
            "ticks": 9216,
            "time": 13.090896,
            "velocity": 0.3937007874015748
          },
          {
            "duration": 0.2727269999999997,
            "durationTicks": 192,
            "midi": 26,
            "name": "D1",
            "ticks": 9216,
            "time": 13.090896,
            "velocity": 0.3937007874015748
          },
          {
            "duration": 0.2727269999999997,
            "durationTicks": 192,
            "midi": 38,
            "name": "D2",
            "ticks": 9408,
            "time": 13.363623,
            "velocity": 0.3937007874015748
          },
          {
            "duration": 0.2727269999999997,
            "durationTicks": 192,
            "midi": 26,
            "name": "D1",
            "ticks": 9408,
            "time": 13.363623,
            "velocity": 0.3937007874015748
          },
          {
            "duration": 0.30681787500000013,
            "durationTicks": 216,
            "midi": 26,
            "name": "D1",
            "ticks": 9600,
            "time": 13.63635,
            "velocity": 0.3937007874015748
          },
          {
            "duration": 0.30681787500000013,
            "durationTicks": 216,
            "midi": 38,
            "name": "D2",
            "ticks": 9600,
            "time": 13.63635,
            "velocity": 0.3937007874015748
          },
          {
            "duration": 0.5454539999999994,
            "durationTicks": 384,
            "midi": 24,
            "name": "C1",
            "ticks": 9792,
            "time": 13.909077,
            "velocity": 0.3937007874015748
          },
          {
            "duration": 0.5454539999999994,
            "durationTicks": 384,
            "midi": 36,
            "name": "C2",
            "ticks": 9792,
            "time": 13.909077,
            "velocity": 0.3937007874015748
          },
          {
            "duration": 0.5795448749999998,
            "durationTicks": 408,
            "midi": 24,
            "name": "C1",
            "ticks": 10176,
            "time": 14.454531,
            "velocity": 0.3937007874015748
          },
          {
            "duration": 0.5795448749999998,
            "durationTicks": 408,
            "midi": 36,
            "name": "C2",
            "ticks": 10176,
            "time": 14.454531,
            "velocity": 0.3937007874015748
          },
          {
            "duration": 0.2727269999999997,
            "durationTicks": 192,
            "midi": 26,
            "name": "D1",
            "ticks": 10752,
            "time": 15.272712,
            "velocity": 0.3937007874015748
          },
          {
            "duration": 0.2727269999999997,
            "durationTicks": 192,
            "midi": 38,
            "name": "D2",
            "ticks": 10752,
            "time": 15.272712,
            "velocity": 0.3937007874015748
          },
          {
            "duration": 0.2727269999999997,
            "durationTicks": 192,
            "midi": 38,
            "name": "D2",
            "ticks": 10944,
            "time": 15.545439,
            "velocity": 0.3937007874015748
          },
          {
            "duration": 0.2727269999999997,
            "durationTicks": 192,
            "midi": 26,
            "name": "D1",
            "ticks": 10944,
            "time": 15.545439,
            "velocity": 0.3937007874015748
          },
          {
            "duration": 0.30681787499999835,
            "durationTicks": 216,
            "midi": 38,
            "name": "D2",
            "ticks": 11136,
            "time": 15.818166,
            "velocity": 0.3937007874015748
          },
          {
            "duration": 0.30681787499999835,
            "durationTicks": 216,
            "midi": 26,
            "name": "D1",
            "ticks": 11136,
            "time": 15.818166,
            "velocity": 0.3937007874015748
          },
          {
            "duration": 0.5454539999999994,
            "durationTicks": 384,
            "midi": 36,
            "name": "C2",
            "ticks": 11328,
            "time": 16.090893,
            "velocity": 0.3937007874015748
          },
          {
            "duration": 0.5454539999999994,
            "durationTicks": 384,
            "midi": 24,
            "name": "C1",
            "ticks": 11328,
            "time": 16.090893,
            "velocity": 0.3937007874015748
          },
          {
            "duration": 0.13636349999999808,
            "durationTicks": 96,
            "midi": 30,
            "name": "F#1",
            "ticks": 11712,
            "time": 16.636347,
            "velocity": 0.3937007874015748
          },
          {
            "duration": 0.13636349999999808,
            "durationTicks": 96,
            "midi": 42,
            "name": "F#2",
            "ticks": 11712,
            "time": 16.636347,
            "velocity": 0.3937007874015748
          },
          {
            "duration": 0.13636349999999808,
            "durationTicks": 96,
            "midi": 42,
            "name": "F#2",
            "ticks": 11904,
            "time": 16.909074,
            "velocity": 0.3937007874015748
          },
          {
            "duration": 0.13636349999999808,
            "durationTicks": 96,
            "midi": 30,
            "name": "F#1",
            "ticks": 11904,
            "time": 16.909074,
            "velocity": 0.3937007874015748
          },
          {
            "duration": 0.13636349999999808,
            "durationTicks": 96,
            "midi": 46,
            "name": "A#2",
            "ticks": 12096,
            "time": 17.181801,
            "velocity": 0.3937007874015748
          },
          {
            "duration": 0.13636349999999808,
            "durationTicks": 96,
            "midi": 34,
            "name": "A#1",
            "ticks": 12096,
            "time": 17.181801,
            "velocity": 0.3937007874015748
          },
          {
            "duration": 0.2727269999999997,
            "durationTicks": 192,
            "midi": 26,
            "name": "D1",
            "ticks": 12288,
            "time": 17.454528,
            "velocity": 0.3937007874015748
          },
          {
            "duration": 0.2727269999999997,
            "durationTicks": 192,
            "midi": 38,
            "name": "D2",
            "ticks": 12288,
            "time": 17.454528,
            "velocity": 0.3937007874015748
          },
          {
            "duration": 0.2727269999999997,
            "durationTicks": 192,
            "midi": 26,
            "name": "D1",
            "ticks": 12480,
            "time": 17.727255,
            "velocity": 0.3937007874015748
          },
          {
            "duration": 0.2727269999999997,
            "durationTicks": 192,
            "midi": 38,
            "name": "D2",
            "ticks": 12480,
            "time": 17.727255,
            "velocity": 0.3937007874015748
          },
          {
            "duration": 0.30681787500000013,
            "durationTicks": 216,
            "midi": 26,
            "name": "D1",
            "ticks": 12672,
            "time": 17.999982,
            "velocity": 0.3937007874015748
          },
          {
            "duration": 0.30681787500000013,
            "durationTicks": 216,
            "midi": 38,
            "name": "D2",
            "ticks": 12672,
            "time": 17.999982,
            "velocity": 0.3937007874015748
          },
          {
            "duration": 0.5454539999999994,
            "durationTicks": 384,
            "midi": 36,
            "name": "C2",
            "ticks": 12864,
            "time": 18.272709,
            "velocity": 0.3937007874015748
          },
          {
            "duration": 0.5454539999999994,
            "durationTicks": 384,
            "midi": 24,
            "name": "C1",
            "ticks": 12864,
            "time": 18.272709,
            "velocity": 0.3937007874015748
          },
          {
            "duration": 0.5795448749999998,
            "durationTicks": 408,
            "midi": 24,
            "name": "C1",
            "ticks": 13248,
            "time": 18.818163,
            "velocity": 0.3937007874015748
          },
          {
            "duration": 0.5795448749999998,
            "durationTicks": 408,
            "midi": 36,
            "name": "C2",
            "ticks": 13248,
            "time": 18.818163,
            "velocity": 0.3937007874015748
          },
          {
            "duration": 0.2727269999999997,
            "durationTicks": 192,
            "midi": 26,
            "name": "D1",
            "ticks": 13824,
            "time": 19.636344,
            "velocity": 0.3937007874015748
          },
          {
            "duration": 0.2727269999999997,
            "durationTicks": 192,
            "midi": 38,
            "name": "D2",
            "ticks": 13824,
            "time": 19.636344,
            "velocity": 0.3937007874015748
          },
          {
            "duration": 0.2727269999999997,
            "durationTicks": 192,
            "midi": 38,
            "name": "D2",
            "ticks": 14016,
            "time": 19.909071,
            "velocity": 0.3937007874015748
          },
          {
            "duration": 0.2727269999999997,
            "durationTicks": 192,
            "midi": 26,
            "name": "D1",
            "ticks": 14016,
            "time": 19.909071,
            "velocity": 0.3937007874015748
          },
          {
            "duration": 0.30681787500000013,
            "durationTicks": 216,
            "midi": 38,
            "name": "D2",
            "ticks": 14208,
            "time": 20.181798,
            "velocity": 0.3937007874015748
          },
          {
            "duration": 0.30681787500000013,
            "durationTicks": 216,
            "midi": 26,
            "name": "D1",
            "ticks": 14208,
            "time": 20.181798,
            "velocity": 0.3937007874015748
          },
          {
            "duration": 0.5454539999999994,
            "durationTicks": 384,
            "midi": 36,
            "name": "C2",
            "ticks": 14400,
            "time": 20.454525,
            "velocity": 0.3937007874015748
          },
          {
            "duration": 0.5454539999999994,
            "durationTicks": 384,
            "midi": 24,
            "name": "C1",
            "ticks": 14400,
            "time": 20.454525,
            "velocity": 0.3937007874015748
          },
          {
            "duration": 0.5795448749999998,
            "durationTicks": 408,
            "midi": 36,
            "name": "C2",
            "ticks": 14784,
            "time": 20.999979,
            "velocity": 0.3937007874015748
          },
          {
            "duration": 0.5795448749999998,
            "durationTicks": 408,
            "midi": 24,
            "name": "C1",
            "ticks": 14784,
            "time": 20.999979,
            "velocity": 0.3937007874015748
          },
          {
            "duration": 0.2727269999999997,
            "durationTicks": 192,
            "midi": 26,
            "name": "D1",
            "ticks": 15360,
            "time": 21.81816,
            "velocity": 0.3937007874015748
          },
          {
            "duration": 0.2727269999999997,
            "durationTicks": 192,
            "midi": 38,
            "name": "D2",
            "ticks": 15360,
            "time": 21.81816,
            "velocity": 0.3937007874015748
          },
          {
            "duration": 0.2727269999999997,
            "durationTicks": 192,
            "midi": 38,
            "name": "D2",
            "ticks": 15552,
            "time": 22.090887,
            "velocity": 0.3937007874015748
          },
          {
            "duration": 0.2727269999999997,
            "durationTicks": 192,
            "midi": 26,
            "name": "D1",
            "ticks": 15552,
            "time": 22.090887,
            "velocity": 0.3937007874015748
          },
          {
            "duration": 0.30681787500000013,
            "durationTicks": 216,
            "midi": 38,
            "name": "D2",
            "ticks": 15744,
            "time": 22.363614,
            "velocity": 0.3937007874015748
          },
          {
            "duration": 0.30681787500000013,
            "durationTicks": 216,
            "midi": 26,
            "name": "D1",
            "ticks": 15744,
            "time": 22.363614,
            "velocity": 0.3937007874015748
          },
          {
            "duration": 0.545454000000003,
            "durationTicks": 384,
            "midi": 36,
            "name": "C2",
            "ticks": 15936,
            "time": 22.636340999999998,
            "velocity": 0.3937007874015748
          },
          {
            "duration": 0.545454000000003,
            "durationTicks": 384,
            "midi": 24,
            "name": "C1",
            "ticks": 15936,
            "time": 22.636340999999998,
            "velocity": 0.3937007874015748
          },
          {
            "duration": 0.5795448749999998,
            "durationTicks": 408,
            "midi": 36,
            "name": "C2",
            "ticks": 16320,
            "time": 23.181795,
            "velocity": 0.3937007874015748
          },
          {
            "duration": 0.5795448749999998,
            "durationTicks": 408,
            "midi": 24,
            "name": "C1",
            "ticks": 16320,
            "time": 23.181795,
            "velocity": 0.3937007874015748
          },
          {
            "duration": 0.2727269999999997,
            "durationTicks": 192,
            "midi": 26,
            "name": "D1",
            "ticks": 16896,
            "time": 23.999976,
            "velocity": 0.3937007874015748
          },
          {
            "duration": 0.2727269999999997,
            "durationTicks": 192,
            "midi": 38,
            "name": "D2",
            "ticks": 16896,
            "time": 23.999976,
            "velocity": 0.3937007874015748
          },
          {
            "duration": 0.2727269999999997,
            "durationTicks": 192,
            "midi": 38,
            "name": "D2",
            "ticks": 17088,
            "time": 24.272703,
            "velocity": 0.3937007874015748
          },
          {
            "duration": 0.2727269999999997,
            "durationTicks": 192,
            "midi": 26,
            "name": "D1",
            "ticks": 17088,
            "time": 24.272703,
            "velocity": 0.3937007874015748
          },
          {
            "duration": 0.30681787500000013,
            "durationTicks": 216,
            "midi": 38,
            "name": "D2",
            "ticks": 17280,
            "time": 24.54543,
            "velocity": 0.3937007874015748
          },
          {
            "duration": 0.30681787500000013,
            "durationTicks": 216,
            "midi": 26,
            "name": "D1",
            "ticks": 17280,
            "time": 24.54543,
            "velocity": 0.3937007874015748
          },
          {
            "duration": 0.5454539999999994,
            "durationTicks": 384,
            "midi": 24,
            "name": "C1",
            "ticks": 17472,
            "time": 24.818157,
            "velocity": 0.3937007874015748
          },
          {
            "duration": 0.5454539999999994,
            "durationTicks": 384,
            "midi": 36,
            "name": "C2",
            "ticks": 17472,
            "time": 24.818157,
            "velocity": 0.3937007874015748
          },
          {
            "duration": 0.13636350000000164,
            "durationTicks": 96,
            "midi": 42,
            "name": "F#2",
            "ticks": 17856,
            "time": 25.363611,
            "velocity": 0.3937007874015748
          },
          {
            "duration": 0.13636350000000164,
            "durationTicks": 96,
            "midi": 30,
            "name": "F#1",
            "ticks": 17856,
            "time": 25.363611,
            "velocity": 0.3937007874015748
          },
          {
            "duration": 0.13636350000000164,
            "durationTicks": 96,
            "midi": 30,
            "name": "F#1",
            "ticks": 18048,
            "time": 25.636338,
            "velocity": 0.3937007874015748
          },
          {
            "duration": 0.13636350000000164,
            "durationTicks": 96,
            "midi": 42,
            "name": "F#2",
            "ticks": 18048,
            "time": 25.636338,
            "velocity": 0.3937007874015748
          },
          {
            "duration": 0.13636350000000164,
            "durationTicks": 96,
            "midi": 34,
            "name": "A#1",
            "ticks": 18240,
            "time": 25.909065,
            "velocity": 0.3937007874015748
          },
          {
            "duration": 0.13636350000000164,
            "durationTicks": 96,
            "midi": 46,
            "name": "A#2",
            "ticks": 18240,
            "time": 25.909065,
            "velocity": 0.3937007874015748
          },
          {
            "duration": 0.2727269999999997,
            "durationTicks": 192,
            "midi": 38,
            "name": "D2",
            "ticks": 18432,
            "time": 26.181792,
            "velocity": 0.3937007874015748
          },
          {
            "duration": 0.2727269999999997,
            "durationTicks": 192,
            "midi": 26,
            "name": "D1",
            "ticks": 18432,
            "time": 26.181792,
            "velocity": 0.3937007874015748
          },
          {
            "duration": 0.2727269999999997,
            "durationTicks": 192,
            "midi": 26,
            "name": "D1",
            "ticks": 18624,
            "time": 26.454519,
            "velocity": 0.3937007874015748
          },
          {
            "duration": 0.2727269999999997,
            "durationTicks": 192,
            "midi": 38,
            "name": "D2",
            "ticks": 18624,
            "time": 26.454519,
            "velocity": 0.3937007874015748
          },
          {
            "duration": 0.30681787500000013,
            "durationTicks": 216,
            "midi": 38,
            "name": "D2",
            "ticks": 18816,
            "time": 26.727246,
            "velocity": 0.3937007874015748
          },
          {
            "duration": 0.30681787500000013,
            "durationTicks": 216,
            "midi": 26,
            "name": "D1",
            "ticks": 18816,
            "time": 26.727246,
            "velocity": 0.3937007874015748
          },
          {
            "duration": 0.5454539999999994,
            "durationTicks": 384,
            "midi": 24,
            "name": "C1",
            "ticks": 19008,
            "time": 26.999973,
            "velocity": 0.3937007874015748
          },
          {
            "duration": 0.5454539999999994,
            "durationTicks": 384,
            "midi": 36,
            "name": "C2",
            "ticks": 19008,
            "time": 26.999973,
            "velocity": 0.3937007874015748
          },
          {
            "duration": 0.5795448749999998,
            "durationTicks": 408,
            "midi": 24,
            "name": "C1",
            "ticks": 19392,
            "time": 27.545427,
            "velocity": 0.3937007874015748
          },
          {
            "duration": 0.5795448749999998,
            "durationTicks": 408,
            "midi": 36,
            "name": "C2",
            "ticks": 19392,
            "time": 27.545427,
            "velocity": 0.3937007874015748
          },
          {
            "duration": 0.2727269999999997,
            "durationTicks": 192,
            "midi": 26,
            "name": "D1",
            "ticks": 19968,
            "time": 28.363608,
            "velocity": 0.3937007874015748
          },
          {
            "duration": 0.2727269999999997,
            "durationTicks": 192,
            "midi": 38,
            "name": "D2",
            "ticks": 19968,
            "time": 28.363608,
            "velocity": 0.3937007874015748
          },
          {
            "duration": 0.2727269999999997,
            "durationTicks": 192,
            "midi": 26,
            "name": "D1",
            "ticks": 20160,
            "time": 28.636335,
            "velocity": 0.3937007874015748
          },
          {
            "duration": 0.2727269999999997,
            "durationTicks": 192,
            "midi": 38,
            "name": "D2",
            "ticks": 20160,
            "time": 28.636335,
            "velocity": 0.3937007874015748
          },
          {
            "duration": 0.30681787500000013,
            "durationTicks": 216,
            "midi": 38,
            "name": "D2",
            "ticks": 20352,
            "time": 28.909062,
            "velocity": 0.3937007874015748
          },
          {
            "duration": 0.30681787500000013,
            "durationTicks": 216,
            "midi": 26,
            "name": "D1",
            "ticks": 20352,
            "time": 28.909062,
            "velocity": 0.3937007874015748
          },
          {
            "duration": 0.545454000000003,
            "durationTicks": 384,
            "midi": 24,
            "name": "C1",
            "ticks": 20544,
            "time": 29.181789,
            "velocity": 0.3937007874015748
          },
          {
            "duration": 0.545454000000003,
            "durationTicks": 384,
            "midi": 36,
            "name": "C2",
            "ticks": 20544,
            "time": 29.181789,
            "velocity": 0.3937007874015748
          },
          {
            "duration": 0.5795448749999998,
            "durationTicks": 408,
            "midi": 24,
            "name": "C1",
            "ticks": 20928,
            "time": 29.727243,
            "velocity": 0.3937007874015748
          },
          {
            "duration": 0.5795448749999998,
            "durationTicks": 408,
            "midi": 36,
            "name": "C2",
            "ticks": 20928,
            "time": 29.727243,
            "velocity": 0.3937007874015748
          },
          {
            "duration": 0.2727269999999997,
            "durationTicks": 192,
            "midi": 26,
            "name": "D1",
            "ticks": 21504,
            "time": 30.545424,
            "velocity": 0.3937007874015748
          },
          {
            "duration": 0.2727269999999997,
            "durationTicks": 192,
            "midi": 38,
            "name": "D2",
            "ticks": 21504,
            "time": 30.545424,
            "velocity": 0.3937007874015748
          },
          {
            "duration": 0.2727269999999997,
            "durationTicks": 192,
            "midi": 38,
            "name": "D2",
            "ticks": 21696,
            "time": 30.818151,
            "velocity": 0.3937007874015748
          },
          {
            "duration": 0.2727269999999997,
            "durationTicks": 192,
            "midi": 26,
            "name": "D1",
            "ticks": 21696,
            "time": 30.818151,
            "velocity": 0.3937007874015748
          },
          {
            "duration": 0.30681787500000013,
            "durationTicks": 216,
            "midi": 38,
            "name": "D2",
            "ticks": 21888,
            "time": 31.090878,
            "velocity": 0.3937007874015748
          },
          {
            "duration": 0.30681787500000013,
            "durationTicks": 216,
            "midi": 26,
            "name": "D1",
            "ticks": 21888,
            "time": 31.090878,
            "velocity": 0.3937007874015748
          },
          {
            "duration": 0.5454539999999994,
            "durationTicks": 384,
            "midi": 24,
            "name": "C1",
            "ticks": 22080,
            "time": 31.363605,
            "velocity": 0.3937007874015748
          },
          {
            "duration": 0.5454539999999994,
            "durationTicks": 384,
            "midi": 36,
            "name": "C2",
            "ticks": 22080,
            "time": 31.363605,
            "velocity": 0.3937007874015748
          },
          {
            "duration": 0.5795448750000034,
            "durationTicks": 408,
            "midi": 36,
            "name": "C2",
            "ticks": 22464,
            "time": 31.909059,
            "velocity": 0.3937007874015748
          },
          {
            "duration": 0.5795448750000034,
            "durationTicks": 408,
            "midi": 24,
            "name": "C1",
            "ticks": 22464,
            "time": 31.909059,
            "velocity": 0.3937007874015748
          },
          {
            "duration": 0.27272699999999617,
            "durationTicks": 192,
            "midi": 38,
            "name": "D2",
            "ticks": 23040,
            "time": 32.72724,
            "velocity": 0.3937007874015748
          },
          {
            "duration": 0.27272699999999617,
            "durationTicks": 192,
            "midi": 26,
            "name": "D1",
            "ticks": 23040,
            "time": 32.72724,
            "velocity": 0.3937007874015748
          },
          {
            "duration": 0.2727270000000033,
            "durationTicks": 192,
            "midi": 26,
            "name": "D1",
            "ticks": 23232,
            "time": 32.999967,
            "velocity": 0.3937007874015748
          },
          {
            "duration": 0.2727270000000033,
            "durationTicks": 192,
            "midi": 38,
            "name": "D2",
            "ticks": 23232,
            "time": 32.999967,
            "velocity": 0.3937007874015748
          },
          {
            "duration": 0.30681787500000013,
            "durationTicks": 216,
            "midi": 26,
            "name": "D1",
            "ticks": 23424,
            "time": 33.272694,
            "velocity": 0.3937007874015748
          },
          {
            "duration": 0.30681787500000013,
            "durationTicks": 216,
            "midi": 38,
            "name": "D2",
            "ticks": 23424,
            "time": 33.272694,
            "velocity": 0.3937007874015748
          },
          {
            "duration": 0.5454539999999994,
            "durationTicks": 384,
            "midi": 36,
            "name": "C2",
            "ticks": 23616,
            "time": 33.545421,
            "velocity": 0.3937007874015748
          },
          {
            "duration": 0.5454539999999994,
            "durationTicks": 384,
            "midi": 24,
            "name": "C1",
            "ticks": 23616,
            "time": 33.545421,
            "velocity": 0.3937007874015748
          },
          {
            "duration": 0.13636350000000164,
            "durationTicks": 96,
            "midi": 42,
            "name": "F#2",
            "ticks": 24000,
            "time": 34.090875,
            "velocity": 0.3937007874015748
          },
          {
            "duration": 0.13636350000000164,
            "durationTicks": 96,
            "midi": 30,
            "name": "F#1",
            "ticks": 24000,
            "time": 34.090875,
            "velocity": 0.3937007874015748
          },
          {
            "duration": 0.13636350000000164,
            "durationTicks": 96,
            "midi": 42,
            "name": "F#2",
            "ticks": 24192,
            "time": 34.363602,
            "velocity": 0.3937007874015748
          },
          {
            "duration": 0.13636350000000164,
            "durationTicks": 96,
            "midi": 30,
            "name": "F#1",
            "ticks": 24192,
            "time": 34.363602,
            "velocity": 0.3937007874015748
          },
          {
            "duration": 0.13636350000000164,
            "durationTicks": 96,
            "midi": 46,
            "name": "A#2",
            "ticks": 24384,
            "time": 34.636328999999996,
            "velocity": 0.3937007874015748
          },
          {
            "duration": 0.13636350000000164,
            "durationTicks": 96,
            "midi": 34,
            "name": "A#1",
            "ticks": 24384,
            "time": 34.636328999999996,
            "velocity": 0.3937007874015748
          },
          {
            "duration": 0.034090874999996856,
            "durationTicks": 24,
            "midi": 27,
            "name": "D#1",
            "ticks": 24576,
            "time": 34.909056,
            "velocity": 0.3937007874015748
          },
          {
            "duration": 0.034090874999996856,
            "durationTicks": 24,
            "midi": 39,
            "name": "D#2",
            "ticks": 24576,
            "time": 34.909056,
            "velocity": 0.3937007874015748
          },
          {
            "duration": 0.034090874999996856,
            "durationTicks": 24,
            "midi": 27,
            "name": "D#1",
            "ticks": 24624,
            "time": 34.97723775,
            "velocity": 0.3937007874015748
          },
          {
            "duration": 0.034090874999996856,
            "durationTicks": 24,
            "midi": 39,
            "name": "D#2",
            "ticks": 24624,
            "time": 34.97723775,
            "velocity": 0.3937007874015748
          },
          {
            "duration": 0.034090874999996856,
            "durationTicks": 24,
            "midi": 27,
            "name": "D#1",
            "ticks": 24672,
            "time": 35.0454195,
            "velocity": 0.3937007874015748
          },
          {
            "duration": 0.034090874999996856,
            "durationTicks": 24,
            "midi": 39,
            "name": "D#2",
            "ticks": 24672,
            "time": 35.0454195,
            "velocity": 0.3937007874015748
          },
          {
            "duration": 0.034090874999996856,
            "durationTicks": 24,
            "midi": 27,
            "name": "D#1",
            "ticks": 24720,
            "time": 35.11360125,
            "velocity": 0.3937007874015748
          },
          {
            "duration": 0.034090874999996856,
            "durationTicks": 24,
            "midi": 39,
            "name": "D#2",
            "ticks": 24720,
            "time": 35.11360125,
            "velocity": 0.3937007874015748
          },
          {
            "duration": 0.034090874999996856,
            "durationTicks": 24,
            "midi": 27,
            "name": "D#1",
            "ticks": 24768,
            "time": 35.181783,
            "velocity": 0.3937007874015748
          },
          {
            "duration": 0.034090874999996856,
            "durationTicks": 24,
            "midi": 39,
            "name": "D#2",
            "ticks": 24768,
            "time": 35.181783,
            "velocity": 0.3937007874015748
          },
          {
            "duration": 0.03409087500000396,
            "durationTicks": 24,
            "midi": 39,
            "name": "D#2",
            "ticks": 24816,
            "time": 35.24996475,
            "velocity": 0.3937007874015748
          },
          {
            "duration": 0.03409087500000396,
            "durationTicks": 24,
            "midi": 27,
            "name": "D#1",
            "ticks": 24816,
            "time": 35.24996475,
            "velocity": 0.3937007874015748
          },
          {
            "duration": 0.03409087500000396,
            "durationTicks": 24,
            "midi": 39,
            "name": "D#2",
            "ticks": 24864,
            "time": 35.3181465,
            "velocity": 0.3937007874015748
          },
          {
            "duration": 0.03409087500000396,
            "durationTicks": 24,
            "midi": 27,
            "name": "D#1",
            "ticks": 24864,
            "time": 35.3181465,
            "velocity": 0.3937007874015748
          },
          {
            "duration": 0.03409087500000396,
            "durationTicks": 24,
            "midi": 27,
            "name": "D#1",
            "ticks": 24912,
            "time": 35.38632825,
            "velocity": 0.3937007874015748
          },
          {
            "duration": 0.03409087500000396,
            "durationTicks": 24,
            "midi": 39,
            "name": "D#2",
            "ticks": 24912,
            "time": 35.38632825,
            "velocity": 0.3937007874015748
          },
          {
            "duration": 0.03409087500000396,
            "durationTicks": 24,
            "midi": 39,
            "name": "D#2",
            "ticks": 24960,
            "time": 35.45451,
            "velocity": 0.3937007874015748
          },
          {
            "duration": 0.03409087500000396,
            "durationTicks": 24,
            "midi": 27,
            "name": "D#1",
            "ticks": 24960,
            "time": 35.45451,
            "velocity": 0.3937007874015748
          },
          {
            "duration": 0.034090874999996856,
            "durationTicks": 24,
            "midi": 27,
            "name": "D#1",
            "ticks": 25008,
            "time": 35.52269175,
            "velocity": 0.3937007874015748
          },
          {
            "duration": 0.034090874999996856,
            "durationTicks": 24,
            "midi": 39,
            "name": "D#2",
            "ticks": 25008,
            "time": 35.52269175,
            "velocity": 0.3937007874015748
          },
          {
            "duration": 0.034090874999996856,
            "durationTicks": 24,
            "midi": 27,
            "name": "D#1",
            "ticks": 25056,
            "time": 35.5908735,
            "velocity": 0.3937007874015748
          },
          {
            "duration": 0.034090874999996856,
            "durationTicks": 24,
            "midi": 39,
            "name": "D#2",
            "ticks": 25056,
            "time": 35.5908735,
            "velocity": 0.3937007874015748
          },
          {
            "duration": 0.034090874999996856,
            "durationTicks": 24,
            "midi": 39,
            "name": "D#2",
            "ticks": 25104,
            "time": 35.65905525,
            "velocity": 0.3937007874015748
          },
          {
            "duration": 0.034090874999996856,
            "durationTicks": 24,
            "midi": 27,
            "name": "D#1",
            "ticks": 25104,
            "time": 35.65905525,
            "velocity": 0.3937007874015748
          },
          {
            "duration": 0.034090874999996856,
            "durationTicks": 24,
            "midi": 36,
            "name": "C2",
            "ticks": 25152,
            "time": 35.727237,
            "velocity": 0.3937007874015748
          },
          {
            "duration": 0.034090874999996856,
            "durationTicks": 24,
            "midi": 24,
            "name": "C1",
            "ticks": 25152,
            "time": 35.727237,
            "velocity": 0.3937007874015748
          },
          {
            "duration": 0.034090874999996856,
            "durationTicks": 24,
            "midi": 24,
            "name": "C1",
            "ticks": 25200,
            "time": 35.79541875,
            "velocity": 0.3937007874015748
          },
          {
            "duration": 0.034090874999996856,
            "durationTicks": 24,
            "midi": 36,
            "name": "C2",
            "ticks": 25200,
            "time": 35.79541875,
            "velocity": 0.3937007874015748
          },
          {
            "duration": 0.03409087500000396,
            "durationTicks": 24,
            "midi": 24,
            "name": "C1",
            "ticks": 25248,
            "time": 35.8636005,
            "velocity": 0.3937007874015748
          },
          {
            "duration": 0.03409087500000396,
            "durationTicks": 24,
            "midi": 36,
            "name": "C2",
            "ticks": 25248,
            "time": 35.8636005,
            "velocity": 0.3937007874015748
          },
          {
            "duration": 0.03409087500000396,
            "durationTicks": 24,
            "midi": 36,
            "name": "C2",
            "ticks": 25296,
            "time": 35.93178225,
            "velocity": 0.3937007874015748
          },
          {
            "duration": 0.03409087500000396,
            "durationTicks": 24,
            "midi": 24,
            "name": "C1",
            "ticks": 25296,
            "time": 35.93178225,
            "velocity": 0.3937007874015748
          },
          {
            "duration": 0.03409087500000396,
            "durationTicks": 24,
            "midi": 24,
            "name": "C1",
            "ticks": 25344,
            "time": 35.999964,
            "velocity": 0.3937007874015748
          },
          {
            "duration": 0.03409087500000396,
            "durationTicks": 24,
            "midi": 36,
            "name": "C2",
            "ticks": 25344,
            "time": 35.999964,
            "velocity": 0.3937007874015748
          },
          {
            "duration": 0.034090874999996856,
            "durationTicks": 24,
            "midi": 24,
            "name": "C1",
            "ticks": 25392,
            "time": 36.06814575,
            "velocity": 0.3937007874015748
          },
          {
            "duration": 0.034090874999996856,
            "durationTicks": 24,
            "midi": 36,
            "name": "C2",
            "ticks": 25392,
            "time": 36.06814575,
            "velocity": 0.3937007874015748
          },
          {
            "duration": 0.034090874999996856,
            "durationTicks": 24,
            "midi": 36,
            "name": "C2",
            "ticks": 25440,
            "time": 36.1363275,
            "velocity": 0.3937007874015748
          },
          {
            "duration": 0.034090874999996856,
            "durationTicks": 24,
            "midi": 24,
            "name": "C1",
            "ticks": 25440,
            "time": 36.1363275,
            "velocity": 0.3937007874015748
          },
          {
            "duration": 0.034090874999996856,
            "durationTicks": 24,
            "midi": 24,
            "name": "C1",
            "ticks": 25488,
            "time": 36.20450925,
            "velocity": 0.3937007874015748
          },
          {
            "duration": 0.034090874999996856,
            "durationTicks": 24,
            "midi": 36,
            "name": "C2",
            "ticks": 25488,
            "time": 36.20450925,
            "velocity": 0.3937007874015748
          },
          {
            "duration": 0.034090874999996856,
            "durationTicks": 24,
            "midi": 24,
            "name": "C1",
            "ticks": 25536,
            "time": 36.272691,
            "velocity": 0.3937007874015748
          },
          {
            "duration": 0.034090874999996856,
            "durationTicks": 24,
            "midi": 36,
            "name": "C2",
            "ticks": 25536,
            "time": 36.272691,
            "velocity": 0.3937007874015748
          },
          {
            "duration": 0.034090874999996856,
            "durationTicks": 24,
            "midi": 36,
            "name": "C2",
            "ticks": 25584,
            "time": 36.34087275,
            "velocity": 0.3937007874015748
          },
          {
            "duration": 0.034090874999996856,
            "durationTicks": 24,
            "midi": 24,
            "name": "C1",
            "ticks": 25584,
            "time": 36.34087275,
            "velocity": 0.3937007874015748
          },
          {
            "duration": 0.03409087500000396,
            "durationTicks": 24,
            "midi": 24,
            "name": "C1",
            "ticks": 25632,
            "time": 36.409054499999996,
            "velocity": 0.3937007874015748
          },
          {
            "duration": 0.03409087500000396,
            "durationTicks": 24,
            "midi": 36,
            "name": "C2",
            "ticks": 25632,
            "time": 36.409054499999996,
            "velocity": 0.3937007874015748
          },
          {
            "duration": 0.03409087500000396,
            "durationTicks": 24,
            "midi": 36,
            "name": "C2",
            "ticks": 25680,
            "time": 36.47723625,
            "velocity": 0.3937007874015748
          },
          {
            "duration": 0.03409087500000396,
            "durationTicks": 24,
            "midi": 24,
            "name": "C1",
            "ticks": 25680,
            "time": 36.47723625,
            "velocity": 0.3937007874015748
          },
          {
            "duration": 0.03409087500000396,
            "durationTicks": 24,
            "midi": 24,
            "name": "C1",
            "ticks": 25728,
            "time": 36.545418,
            "velocity": 0.3937007874015748
          },
          {
            "duration": 0.03409087500000396,
            "durationTicks": 24,
            "midi": 36,
            "name": "C2",
            "ticks": 25728,
            "time": 36.545418,
            "velocity": 0.3937007874015748
          },
          {
            "duration": 0.03409087500000396,
            "durationTicks": 24,
            "midi": 24,
            "name": "C1",
            "ticks": 25776,
            "time": 36.61359975,
            "velocity": 0.3937007874015748
          },
          {
            "duration": 0.03409087500000396,
            "durationTicks": 24,
            "midi": 36,
            "name": "C2",
            "ticks": 25776,
            "time": 36.61359975,
            "velocity": 0.3937007874015748
          },
          {
            "duration": 0.034090874999996856,
            "durationTicks": 24,
            "midi": 36,
            "name": "C2",
            "ticks": 25824,
            "time": 36.6817815,
            "velocity": 0.3937007874015748
          },
          {
            "duration": 0.034090874999996856,
            "durationTicks": 24,
            "midi": 24,
            "name": "C1",
            "ticks": 25824,
            "time": 36.6817815,
            "velocity": 0.3937007874015748
          },
          {
            "duration": 0.034090874999996856,
            "durationTicks": 24,
            "midi": 24,
            "name": "C1",
            "ticks": 25872,
            "time": 36.74996325,
            "velocity": 0.3937007874015748
          },
          {
            "duration": 0.034090874999996856,
            "durationTicks": 24,
            "midi": 36,
            "name": "C2",
            "ticks": 25872,
            "time": 36.74996325,
            "velocity": 0.3937007874015748
          },
          {
            "duration": 0.034090874999996856,
            "durationTicks": 24,
            "midi": 36,
            "name": "C2",
            "ticks": 25920,
            "time": 36.818145,
            "velocity": 0.3937007874015748
          },
          {
            "duration": 0.034090874999996856,
            "durationTicks": 24,
            "midi": 24,
            "name": "C1",
            "ticks": 25920,
            "time": 36.818145,
            "velocity": 0.3937007874015748
          },
          {
            "duration": 0.034090874999996856,
            "durationTicks": 24,
            "midi": 36,
            "name": "C2",
            "ticks": 25968,
            "time": 36.88632675,
            "velocity": 0.3937007874015748
          },
          {
            "duration": 0.034090874999996856,
            "durationTicks": 24,
            "midi": 24,
            "name": "C1",
            "ticks": 25968,
            "time": 36.88632675,
            "velocity": 0.3937007874015748
          },
          {
            "duration": 0.034090874999996856,
            "durationTicks": 24,
            "midi": 24,
            "name": "C1",
            "ticks": 26016,
            "time": 36.9545085,
            "velocity": 0.3937007874015748
          },
          {
            "duration": 0.034090874999996856,
            "durationTicks": 24,
            "midi": 36,
            "name": "C2",
            "ticks": 26016,
            "time": 36.9545085,
            "velocity": 0.3937007874015748
          },
          {
            "duration": 0.03409087500000396,
            "durationTicks": 24,
            "midi": 36,
            "name": "C2",
            "ticks": 26064,
            "time": 37.02269025,
            "velocity": 0.3937007874015748
          },
          {
            "duration": 0.03409087500000396,
            "durationTicks": 24,
            "midi": 24,
            "name": "C1",
            "ticks": 26064,
            "time": 37.02269025,
            "velocity": 0.3937007874015748
          },
          {
            "duration": 0.03409087500000396,
            "durationTicks": 24,
            "midi": 24,
            "name": "C1",
            "ticks": 26112,
            "time": 37.090872,
            "velocity": 0.3937007874015748
          },
          {
            "duration": 0.034090874999996856,
            "durationTicks": 24,
            "midi": 36,
            "name": "C2",
            "ticks": 26136,
            "time": 37.124962875,
            "velocity": 0.3937007874015748
          },
          {
            "duration": 0.03409087500000396,
            "durationTicks": 24,
            "midi": 24,
            "name": "C1",
            "ticks": 26160,
            "time": 37.15905375,
            "velocity": 0.3937007874015748
          },
          {
            "duration": 0.034090874999996856,
            "durationTicks": 24,
            "midi": 36,
            "name": "C2",
            "ticks": 26184,
            "time": 37.193144625,
            "velocity": 0.3937007874015748
          },
          {
            "duration": 0.03409087500000396,
            "durationTicks": 24,
            "midi": 24,
            "name": "C1",
            "ticks": 26208,
            "time": 37.2272355,
            "velocity": 0.3937007874015748
          },
          {
            "duration": 0.034090874999996856,
            "durationTicks": 24,
            "midi": 36,
            "name": "C2",
            "ticks": 26232,
            "time": 37.261326375,
            "velocity": 0.3937007874015748
          },
          {
            "duration": 0.034090874999996856,
            "durationTicks": 24,
            "midi": 24,
            "name": "C1",
            "ticks": 26256,
            "time": 37.29541725,
            "velocity": 0.3937007874015748
          },
          {
            "duration": 0.03409087500000396,
            "durationTicks": 24,
            "midi": 36,
            "name": "C2",
            "ticks": 26280,
            "time": 37.329508125,
            "velocity": 0.3937007874015748
          },
          {
            "duration": 0.034090874999996856,
            "durationTicks": 24,
            "midi": 24,
            "name": "C1",
            "ticks": 26304,
            "time": 37.363599,
            "velocity": 0.3937007874015748
          },
          {
            "duration": 0.03409087500000396,
            "durationTicks": 24,
            "midi": 36,
            "name": "C2",
            "ticks": 26328,
            "time": 37.397689875,
            "velocity": 0.3937007874015748
          },
          {
            "duration": 0.034090874999996856,
            "durationTicks": 24,
            "midi": 24,
            "name": "C1",
            "ticks": 26352,
            "time": 37.43178075,
            "velocity": 0.3937007874015748
          },
          {
            "duration": 0.03409087500000396,
            "durationTicks": 24,
            "midi": 36,
            "name": "C2",
            "ticks": 26376,
            "time": 37.465871625,
            "velocity": 0.3937007874015748
          },
          {
            "duration": 0.034090874999996856,
            "durationTicks": 24,
            "midi": 24,
            "name": "C1",
            "ticks": 26400,
            "time": 37.4999625,
            "velocity": 0.3937007874015748
          },
          {
            "duration": 0.03409087500000396,
            "durationTicks": 24,
            "midi": 36,
            "name": "C2",
            "ticks": 26424,
            "time": 37.534053375,
            "velocity": 0.3937007874015748
          },
          {
            "duration": 0.034090874999996856,
            "durationTicks": 24,
            "midi": 24,
            "name": "C1",
            "ticks": 26448,
            "time": 37.56814425,
            "velocity": 0.3937007874015748
          },
          {
            "duration": 0.034090874999996856,
            "durationTicks": 24,
            "midi": 36,
            "name": "C2",
            "ticks": 26472,
            "time": 37.602235125,
            "velocity": 0.3937007874015748
          },
          {
            "duration": 0.03409087500000396,
            "durationTicks": 24,
            "midi": 24,
            "name": "C1",
            "ticks": 26496,
            "time": 37.636326,
            "velocity": 0.3937007874015748
          },
          {
            "duration": 0.034090874999996856,
            "durationTicks": 24,
            "midi": 36,
            "name": "C2",
            "ticks": 26520,
            "time": 37.670416875,
            "velocity": 0.3937007874015748
          },
          {
            "duration": 0.03409087500000396,
            "durationTicks": 24,
            "midi": 24,
            "name": "C1",
            "ticks": 26544,
            "time": 37.70450775,
            "velocity": 0.3937007874015748
          },
          {
            "duration": 0.034090874999996856,
            "durationTicks": 24,
            "midi": 36,
            "name": "C2",
            "ticks": 26568,
            "time": 37.738598625,
            "velocity": 0.3937007874015748
          },
          {
            "duration": 0.03409087500000396,
            "durationTicks": 24,
            "midi": 24,
            "name": "C1",
            "ticks": 26592,
            "time": 37.7726895,
            "velocity": 0.3937007874015748
          },
          {
            "duration": 0.034090874999996856,
            "durationTicks": 24,
            "midi": 36,
            "name": "C2",
            "ticks": 26616,
            "time": 37.806780375,
            "velocity": 0.3937007874015748
          },
          {
            "duration": 0.034090874999996856,
            "durationTicks": 24,
            "midi": 24,
            "name": "C1",
            "ticks": 26640,
            "time": 37.84087125,
            "velocity": 0.3937007874015748
          },
          {
            "duration": 0.03409087500000396,
            "durationTicks": 24,
            "midi": 36,
            "name": "C2",
            "ticks": 26664,
            "time": 37.874962124999996,
            "velocity": 0.3937007874015748
          },
          {
            "duration": 0.034090874999996856,
            "durationTicks": 24,
            "midi": 24,
            "name": "C1",
            "ticks": 26688,
            "time": 37.909053,
            "velocity": 0.3937007874015748
          },
          {
            "duration": 0.03409087500000396,
            "durationTicks": 24,
            "midi": 36,
            "name": "C2",
            "ticks": 26712,
            "time": 37.943143875,
            "velocity": 0.3937007874015748
          },
          {
            "duration": 0.034090874999996856,
            "durationTicks": 24,
            "midi": 24,
            "name": "C1",
            "ticks": 26736,
            "time": 37.97723475,
            "velocity": 0.3937007874015748
          },
          {
            "duration": 0.03409087500000396,
            "durationTicks": 24,
            "midi": 36,
            "name": "C2",
            "ticks": 26760,
            "time": 38.011325625,
            "velocity": 0.3937007874015748
          },
          {
            "duration": 0.034090874999996856,
            "durationTicks": 24,
            "midi": 24,
            "name": "C1",
            "ticks": 26784,
            "time": 38.0454165,
            "velocity": 0.3937007874015748
          },
          {
            "duration": 0.03409087500000396,
            "durationTicks": 24,
            "midi": 36,
            "name": "C2",
            "ticks": 26808,
            "time": 38.079507375,
            "velocity": 0.3937007874015748
          },
          {
            "duration": 0.034090874999996856,
            "durationTicks": 24,
            "midi": 24,
            "name": "C1",
            "ticks": 26832,
            "time": 38.11359825,
            "velocity": 0.3937007874015748
          },
          {
            "duration": 0.034090874999996856,
            "durationTicks": 24,
            "midi": 36,
            "name": "C2",
            "ticks": 26856,
            "time": 38.147689125,
            "velocity": 0.3937007874015748
          },
          {
            "duration": 0.03409087500000396,
            "durationTicks": 24,
            "midi": 24,
            "name": "C1",
            "ticks": 26880,
            "time": 38.181779999999996,
            "velocity": 0.3937007874015748
          },
          {
            "duration": 0.034090874999996856,
            "durationTicks": 24,
            "midi": 36,
            "name": "C2",
            "ticks": 26904,
            "time": 38.215870875,
            "velocity": 0.3937007874015748
          },
          {
            "duration": 0.03409087500000396,
            "durationTicks": 24,
            "midi": 24,
            "name": "C1",
            "ticks": 26928,
            "time": 38.24996175,
            "velocity": 0.3937007874015748
          },
          {
            "duration": 0.034090874999996856,
            "durationTicks": 24,
            "midi": 36,
            "name": "C2",
            "ticks": 26952,
            "time": 38.284052625,
            "velocity": 0.3937007874015748
          },
          {
            "duration": 0.03409087500000396,
            "durationTicks": 24,
            "midi": 24,
            "name": "C1",
            "ticks": 26976,
            "time": 38.3181435,
            "velocity": 0.3937007874015748
          },
          {
            "duration": 0.034090874999996856,
            "durationTicks": 24,
            "midi": 36,
            "name": "C2",
            "ticks": 27000,
            "time": 38.352234375,
            "velocity": 0.3937007874015748
          },
          {
            "duration": 0.03409087500000396,
            "durationTicks": 24,
            "midi": 24,
            "name": "C1",
            "ticks": 27024,
            "time": 38.38632525,
            "velocity": 0.3937007874015748
          },
          {
            "duration": 0.034090874999996856,
            "durationTicks": 24,
            "midi": 36,
            "name": "C2",
            "ticks": 27048,
            "time": 38.420416125,
            "velocity": 0.3937007874015748
          },
          {
            "duration": 0.034090874999996856,
            "durationTicks": 24,
            "midi": 24,
            "name": "C1",
            "ticks": 27072,
            "time": 38.454507,
            "velocity": 0.3937007874015748
          },
          {
            "duration": 0.03409087500000396,
            "durationTicks": 24,
            "midi": 36,
            "name": "C2",
            "ticks": 27096,
            "time": 38.488597874999996,
            "velocity": 0.3937007874015748
          },
          {
            "duration": 0.034090874999996856,
            "durationTicks": 24,
            "midi": 24,
            "name": "C1",
            "ticks": 27120,
            "time": 38.52268875,
            "velocity": 0.3937007874015748
          },
          {
            "duration": 0.03409087500000396,
            "durationTicks": 24,
            "midi": 36,
            "name": "C2",
            "ticks": 27144,
            "time": 38.556779625,
            "velocity": 0.3937007874015748
          },
          {
            "duration": 0.034090874999996856,
            "durationTicks": 24,
            "midi": 24,
            "name": "C1",
            "ticks": 27168,
            "time": 38.5908705,
            "velocity": 0.3937007874015748
          },
          {
            "duration": 0.03409087500000396,
            "durationTicks": 24,
            "midi": 36,
            "name": "C2",
            "ticks": 27192,
            "time": 38.624961375,
            "velocity": 0.3937007874015748
          },
          {
            "duration": 0.034090874999996856,
            "durationTicks": 24,
            "midi": 24,
            "name": "C1",
            "ticks": 27216,
            "time": 38.65905225,
            "velocity": 0.3937007874015748
          },
          {
            "duration": 0.03409087500000396,
            "durationTicks": 24,
            "midi": 36,
            "name": "C2",
            "ticks": 27240,
            "time": 38.693143125,
            "velocity": 0.3937007874015748
          },
          {
            "duration": 0.034090874999996856,
            "durationTicks": 24,
            "midi": 24,
            "name": "C1",
            "ticks": 27264,
            "time": 38.727234,
            "velocity": 0.3937007874015748
          },
          {
            "duration": 0.034090874999996856,
            "durationTicks": 24,
            "midi": 36,
            "name": "C2",
            "ticks": 27288,
            "time": 38.761324875,
            "velocity": 0.3937007874015748
          },
          {
            "duration": 0.03409087500000396,
            "durationTicks": 24,
            "midi": 24,
            "name": "C1",
            "ticks": 27312,
            "time": 38.79541575,
            "velocity": 0.3937007874015748
          },
          {
            "duration": 0.034090874999996856,
            "durationTicks": 24,
            "midi": 36,
            "name": "C2",
            "ticks": 27336,
            "time": 38.829506625,
            "velocity": 0.3937007874015748
          },
          {
            "duration": 0.03409087500000396,
            "durationTicks": 24,
            "midi": 24,
            "name": "C1",
            "ticks": 27360,
            "time": 38.8635975,
            "velocity": 0.3937007874015748
          },
          {
            "duration": 0.034090874999996856,
            "durationTicks": 24,
            "midi": 36,
            "name": "C2",
            "ticks": 27384,
            "time": 38.897688375,
            "velocity": 0.3937007874015748
          },
          {
            "duration": 0.03409087500000396,
            "durationTicks": 24,
            "midi": 24,
            "name": "C1",
            "ticks": 27408,
            "time": 38.93177925,
            "velocity": 0.3937007874015748
          },
          {
            "duration": 0.034090874999996856,
            "durationTicks": 24,
            "midi": 36,
            "name": "C2",
            "ticks": 27432,
            "time": 38.965870125,
            "velocity": 0.3937007874015748
          },
          {
            "duration": 0.03409087500000396,
            "durationTicks": 24,
            "midi": 24,
            "name": "C1",
            "ticks": 27456,
            "time": 38.999961,
            "velocity": 0.3937007874015748
          },
          {
            "duration": 0.034090874999996856,
            "durationTicks": 24,
            "midi": 36,
            "name": "C2",
            "ticks": 27480,
            "time": 39.034051875,
            "velocity": 0.3937007874015748
          },
          {
            "duration": 0.034090874999996856,
            "durationTicks": 24,
            "midi": 24,
            "name": "C1",
            "ticks": 27504,
            "time": 39.06814275,
            "velocity": 0.3937007874015748
          },
          {
            "duration": 0.03409087500000396,
            "durationTicks": 24,
            "midi": 36,
            "name": "C2",
            "ticks": 27528,
            "time": 39.102233625,
            "velocity": 0.3937007874015748
          },
          {
            "duration": 0.034090874999996856,
            "durationTicks": 24,
            "midi": 24,
            "name": "C1",
            "ticks": 27552,
            "time": 39.1363245,
            "velocity": 0.3937007874015748
          },
          {
            "duration": 0.03409087500000396,
            "durationTicks": 24,
            "midi": 36,
            "name": "C2",
            "ticks": 27576,
            "time": 39.170415375,
            "velocity": 0.3937007874015748
          },
          {
            "duration": 0.034090874999996856,
            "durationTicks": 24,
            "midi": 24,
            "name": "C1",
            "ticks": 27600,
            "time": 39.20450625,
            "velocity": 0.3937007874015748
          },
          {
            "duration": 0.03409087500000396,
            "durationTicks": 24,
            "midi": 36,
            "name": "C2",
            "ticks": 27624,
            "time": 39.238597125,
            "velocity": 0.3937007874015748
          },
          {
            "duration": 0.034090874999996856,
            "durationTicks": 24,
            "midi": 39,
            "name": "D#2",
            "ticks": 27648,
            "time": 39.272688,
            "velocity": 0.3937007874015748
          },
          {
            "duration": 0.034090874999996856,
            "durationTicks": 24,
            "midi": 27,
            "name": "D#1",
            "ticks": 27648,
            "time": 39.272688,
            "velocity": 0.3937007874015748
          },
          {
            "duration": 0.034090874999996856,
            "durationTicks": 24,
            "midi": 27,
            "name": "D#1",
            "ticks": 27696,
            "time": 39.34086975,
            "velocity": 0.3937007874015748
          },
          {
            "duration": 0.034090874999996856,
            "durationTicks": 24,
            "midi": 39,
            "name": "D#2",
            "ticks": 27696,
            "time": 39.34086975,
            "velocity": 0.3937007874015748
          },
          {
            "duration": 0.03409087500000396,
            "durationTicks": 24,
            "midi": 39,
            "name": "D#2",
            "ticks": 27744,
            "time": 39.4090515,
            "velocity": 0.3937007874015748
          },
          {
            "duration": 0.03409087500000396,
            "durationTicks": 24,
            "midi": 27,
            "name": "D#1",
            "ticks": 27744,
            "time": 39.4090515,
            "velocity": 0.3937007874015748
          },
          {
            "duration": 0.03409087500000396,
            "durationTicks": 24,
            "midi": 27,
            "name": "D#1",
            "ticks": 27792,
            "time": 39.47723325,
            "velocity": 0.3937007874015748
          },
          {
            "duration": 0.03409087500000396,
            "durationTicks": 24,
            "midi": 39,
            "name": "D#2",
            "ticks": 27792,
            "time": 39.47723325,
            "velocity": 0.3937007874015748
          },
          {
            "duration": 0.03409087500000396,
            "durationTicks": 24,
            "midi": 39,
            "name": "D#2",
            "ticks": 27840,
            "time": 39.545415,
            "velocity": 0.3937007874015748
          },
          {
            "duration": 0.03409087500000396,
            "durationTicks": 24,
            "midi": 27,
            "name": "D#1",
            "ticks": 27840,
            "time": 39.545415,
            "velocity": 0.3937007874015748
          },
          {
            "duration": 0.034090874999996856,
            "durationTicks": 24,
            "midi": 27,
            "name": "D#1",
            "ticks": 27888,
            "time": 39.61359675,
            "velocity": 0.3937007874015748
          },
          {
            "duration": 0.034090874999996856,
            "durationTicks": 24,
            "midi": 39,
            "name": "D#2",
            "ticks": 27888,
            "time": 39.61359675,
            "velocity": 0.3937007874015748
          },
          {
            "duration": 0.034090874999996856,
            "durationTicks": 24,
            "midi": 39,
            "name": "D#2",
            "ticks": 27936,
            "time": 39.6817785,
            "velocity": 0.3937007874015748
          },
          {
            "duration": 0.034090874999996856,
            "durationTicks": 24,
            "midi": 27,
            "name": "D#1",
            "ticks": 27936,
            "time": 39.6817785,
            "velocity": 0.3937007874015748
          },
          {
            "duration": 0.034090874999996856,
            "durationTicks": 24,
            "midi": 27,
            "name": "D#1",
            "ticks": 27984,
            "time": 39.74996025,
            "velocity": 0.3937007874015748
          },
          {
            "duration": 0.034090874999996856,
            "durationTicks": 24,
            "midi": 39,
            "name": "D#2",
            "ticks": 27984,
            "time": 39.74996025,
            "velocity": 0.3937007874015748
          },
          {
            "duration": 0.034090874999996856,
            "durationTicks": 24,
            "midi": 27,
            "name": "D#1",
            "ticks": 28032,
            "time": 39.818142,
            "velocity": 0.3937007874015748
          },
          {
            "duration": 0.034090874999996856,
            "durationTicks": 24,
            "midi": 39,
            "name": "D#2",
            "ticks": 28032,
            "time": 39.818142,
            "velocity": 0.3937007874015748
          },
          {
            "duration": 0.034090874999996856,
            "durationTicks": 24,
            "midi": 39,
            "name": "D#2",
            "ticks": 28080,
            "time": 39.88632375,
            "velocity": 0.3937007874015748
          },
          {
            "duration": 0.034090874999996856,
            "durationTicks": 24,
            "midi": 27,
            "name": "D#1",
            "ticks": 28080,
            "time": 39.88632375,
            "velocity": 0.3937007874015748
          },
          {
            "duration": 0.03409087500000396,
            "durationTicks": 24,
            "midi": 27,
            "name": "D#1",
            "ticks": 28128,
            "time": 39.954505499999996,
            "velocity": 0.3937007874015748
          },
          {
            "duration": 0.03409087500000396,
            "durationTicks": 24,
            "midi": 39,
            "name": "D#2",
            "ticks": 28128,
            "time": 39.954505499999996,
            "velocity": 0.3937007874015748
          },
          {
            "duration": 0.03409087500000396,
            "durationTicks": 24,
            "midi": 39,
            "name": "D#2",
            "ticks": 28176,
            "time": 40.02268725,
            "velocity": 0.3937007874015748
          },
          {
            "duration": 0.03409087500000396,
            "durationTicks": 24,
            "midi": 27,
            "name": "D#1",
            "ticks": 28176,
            "time": 40.02268725,
            "velocity": 0.3937007874015748
          },
          {
            "duration": 0.03409087500000396,
            "durationTicks": 24,
            "midi": 24,
            "name": "C1",
            "ticks": 28224,
            "time": 40.090869,
            "velocity": 0.3937007874015748
          },
          {
            "duration": 0.03409087500000396,
            "durationTicks": 24,
            "midi": 36,
            "name": "C2",
            "ticks": 28224,
            "time": 40.090869,
            "velocity": 0.3937007874015748
          },
          {
            "duration": 0.03409087500000396,
            "durationTicks": 24,
            "midi": 36,
            "name": "C2",
            "ticks": 28272,
            "time": 40.15905075,
            "velocity": 0.3937007874015748
          },
          {
            "duration": 0.03409087500000396,
            "durationTicks": 24,
            "midi": 24,
            "name": "C1",
            "ticks": 28272,
            "time": 40.15905075,
            "velocity": 0.3937007874015748
          },
          {
            "duration": 0.034090874999996856,
            "durationTicks": 24,
            "midi": 24,
            "name": "C1",
            "ticks": 28320,
            "time": 40.2272325,
            "velocity": 0.3937007874015748
          },
          {
            "duration": 0.034090874999996856,
            "durationTicks": 24,
            "midi": 36,
            "name": "C2",
            "ticks": 28320,
            "time": 40.2272325,
            "velocity": 0.3937007874015748
          },
          {
            "duration": 0.034090874999996856,
            "durationTicks": 24,
            "midi": 36,
            "name": "C2",
            "ticks": 28368,
            "time": 40.29541425,
            "velocity": 0.3937007874015748
          },
          {
            "duration": 0.034090874999996856,
            "durationTicks": 24,
            "midi": 24,
            "name": "C1",
            "ticks": 28368,
            "time": 40.29541425,
            "velocity": 0.3937007874015748
          },
          {
            "duration": 0.034090874999996856,
            "durationTicks": 24,
            "midi": 36,
            "name": "C2",
            "ticks": 28416,
            "time": 40.363596,
            "velocity": 0.3937007874015748
          },
          {
            "duration": 0.034090874999996856,
            "durationTicks": 24,
            "midi": 24,
            "name": "C1",
            "ticks": 28416,
            "time": 40.363596,
            "velocity": 0.3937007874015748
          },
          {
            "duration": 0.034090874999996856,
            "durationTicks": 24,
            "midi": 24,
            "name": "C1",
            "ticks": 28464,
            "time": 40.43177775,
            "velocity": 0.3937007874015748
          },
          {
            "duration": 0.034090874999996856,
            "durationTicks": 24,
            "midi": 36,
            "name": "C2",
            "ticks": 28464,
            "time": 40.43177775,
            "velocity": 0.3937007874015748
          },
          {
            "duration": 0.034090874999996856,
            "durationTicks": 24,
            "midi": 36,
            "name": "C2",
            "ticks": 28512,
            "time": 40.4999595,
            "velocity": 0.3937007874015748
          },
          {
            "duration": 0.034090874999996856,
            "durationTicks": 24,
            "midi": 24,
            "name": "C1",
            "ticks": 28512,
            "time": 40.4999595,
            "velocity": 0.3937007874015748
          },
          {
            "duration": 0.03409087500000396,
            "durationTicks": 24,
            "midi": 36,
            "name": "C2",
            "ticks": 28560,
            "time": 40.56814125,
            "velocity": 0.3937007874015748
          },
          {
            "duration": 0.03409087500000396,
            "durationTicks": 24,
            "midi": 24,
            "name": "C1",
            "ticks": 28560,
            "time": 40.56814125,
            "velocity": 0.3937007874015748
          },
          {
            "duration": 0.03409087500000396,
            "durationTicks": 24,
            "midi": 36,
            "name": "C2",
            "ticks": 28608,
            "time": 40.636323,
            "velocity": 0.3937007874015748
          },
          {
            "duration": 0.03409087500000396,
            "durationTicks": 24,
            "midi": 24,
            "name": "C1",
            "ticks": 28608,
            "time": 40.636323,
            "velocity": 0.3937007874015748
          },
          {
            "duration": 0.03409087500000396,
            "durationTicks": 24,
            "midi": 24,
            "name": "C1",
            "ticks": 28656,
            "time": 40.70450475,
            "velocity": 0.3937007874015748
          },
          {
            "duration": 0.03409087500000396,
            "durationTicks": 24,
            "midi": 36,
            "name": "C2",
            "ticks": 28656,
            "time": 40.70450475,
            "velocity": 0.3937007874015748
          },
          {
            "duration": 0.03409087500000396,
            "durationTicks": 24,
            "midi": 24,
            "name": "C1",
            "ticks": 28704,
            "time": 40.7726865,
            "velocity": 0.3937007874015748
          },
          {
            "duration": 0.03409087500000396,
            "durationTicks": 24,
            "midi": 36,
            "name": "C2",
            "ticks": 28704,
            "time": 40.7726865,
            "velocity": 0.3937007874015748
          },
          {
            "duration": 0.034090874999996856,
            "durationTicks": 24,
            "midi": 24,
            "name": "C1",
            "ticks": 28752,
            "time": 40.84086825,
            "velocity": 0.3937007874015748
          },
          {
            "duration": 0.034090874999996856,
            "durationTicks": 24,
            "midi": 36,
            "name": "C2",
            "ticks": 28752,
            "time": 40.84086825,
            "velocity": 0.3937007874015748
          },
          {
            "duration": 0.034090874999996856,
            "durationTicks": 24,
            "midi": 24,
            "name": "C1",
            "ticks": 28800,
            "time": 40.90905,
            "velocity": 0.3937007874015748
          },
          {
            "duration": 0.034090874999996856,
            "durationTicks": 24,
            "midi": 36,
            "name": "C2",
            "ticks": 28800,
            "time": 40.90905,
            "velocity": 0.3937007874015748
          },
          {
            "duration": 0.034090874999996856,
            "durationTicks": 24,
            "midi": 36,
            "name": "C2",
            "ticks": 28848,
            "time": 40.97723175,
            "velocity": 0.3937007874015748
          },
          {
            "duration": 0.034090874999996856,
            "durationTicks": 24,
            "midi": 24,
            "name": "C1",
            "ticks": 28848,
            "time": 40.97723175,
            "velocity": 0.3937007874015748
          },
          {
            "duration": 0.034090874999996856,
            "durationTicks": 24,
            "midi": 36,
            "name": "C2",
            "ticks": 28896,
            "time": 41.0454135,
            "velocity": 0.3937007874015748
          },
          {
            "duration": 0.034090874999996856,
            "durationTicks": 24,
            "midi": 24,
            "name": "C1",
            "ticks": 28896,
            "time": 41.0454135,
            "velocity": 0.3937007874015748
          },
          {
            "duration": 0.034090874999996856,
            "durationTicks": 24,
            "midi": 24,
            "name": "C1",
            "ticks": 28944,
            "time": 41.11359525,
            "velocity": 0.3937007874015748
          },
          {
            "duration": 0.034090874999996856,
            "durationTicks": 24,
            "midi": 36,
            "name": "C2",
            "ticks": 28944,
            "time": 41.11359525,
            "velocity": 0.3937007874015748
          },
          {
            "duration": 0.03409087500000396,
            "durationTicks": 24,
            "midi": 36,
            "name": "C2",
            "ticks": 28992,
            "time": 41.181777,
            "velocity": 0.3937007874015748
          },
          {
            "duration": 0.03409087500000396,
            "durationTicks": 24,
            "midi": 24,
            "name": "C1",
            "ticks": 28992,
            "time": 41.181777,
            "velocity": 0.3937007874015748
          },
          {
            "duration": 0.03409087500000396,
            "durationTicks": 24,
            "midi": 36,
            "name": "C2",
            "ticks": 29040,
            "time": 41.24995875,
            "velocity": 0.3937007874015748
          },
          {
            "duration": 0.03409087500000396,
            "durationTicks": 24,
            "midi": 24,
            "name": "C1",
            "ticks": 29040,
            "time": 41.24995875,
            "velocity": 0.3937007874015748
          },
          {
            "duration": 0.03409087500000396,
            "durationTicks": 24,
            "midi": 36,
            "name": "C2",
            "ticks": 29088,
            "time": 41.3181405,
            "velocity": 0.3937007874015748
          },
          {
            "duration": 0.03409087500000396,
            "durationTicks": 24,
            "midi": 24,
            "name": "C1",
            "ticks": 29088,
            "time": 41.3181405,
            "velocity": 0.3937007874015748
          },
          {
            "duration": 0.034090874999996856,
            "durationTicks": 24,
            "midi": 36,
            "name": "C2",
            "ticks": 29136,
            "time": 41.38632225,
            "velocity": 0.3937007874015748
          },
          {
            "duration": 0.034090874999996856,
            "durationTicks": 24,
            "midi": 24,
            "name": "C1",
            "ticks": 29136,
            "time": 41.38632225,
            "velocity": 0.3937007874015748
          },
          {
            "duration": 0.034090874999996856,
            "durationTicks": 24,
            "midi": 24,
            "name": "C1",
            "ticks": 29184,
            "time": 41.454504,
            "velocity": 0.3937007874015748
          },
          {
            "duration": 0.03409087500000396,
            "durationTicks": 24,
            "midi": 36,
            "name": "C2",
            "ticks": 29208,
            "time": 41.488594875,
            "velocity": 0.3937007874015748
          },
          {
            "duration": 0.034090874999996856,
            "durationTicks": 24,
            "midi": 24,
            "name": "C1",
            "ticks": 29232,
            "time": 41.52268575,
            "velocity": 0.3937007874015748
          },
          {
            "duration": 0.03409087500000396,
            "durationTicks": 24,
            "midi": 36,
            "name": "C2",
            "ticks": 29256,
            "time": 41.556776625,
            "velocity": 0.3937007874015748
          },
          {
            "duration": 0.034090874999996856,
            "durationTicks": 24,
            "midi": 24,
            "name": "C1",
            "ticks": 29280,
            "time": 41.5908675,
            "velocity": 0.3937007874015748
          },
          {
            "duration": 0.03409087500000396,
            "durationTicks": 24,
            "midi": 36,
            "name": "C2",
            "ticks": 29304,
            "time": 41.624958375,
            "velocity": 0.3937007874015748
          },
          {
            "duration": 0.034090874999996856,
            "durationTicks": 24,
            "midi": 24,
            "name": "C1",
            "ticks": 29328,
            "time": 41.65904925,
            "velocity": 0.3937007874015748
          },
          {
            "duration": 0.034090874999996856,
            "durationTicks": 24,
            "midi": 36,
            "name": "C2",
            "ticks": 29352,
            "time": 41.693140125,
            "velocity": 0.3937007874015748
          },
          {
            "duration": 0.03409087500000396,
            "durationTicks": 24,
            "midi": 24,
            "name": "C1",
            "ticks": 29376,
            "time": 41.727230999999996,
            "velocity": 0.3937007874015748
          },
          {
            "duration": 0.034090874999996856,
            "durationTicks": 24,
            "midi": 36,
            "name": "C2",
            "ticks": 29400,
            "time": 41.761321875,
            "velocity": 0.3937007874015748
          },
          {
            "duration": 0.03409087500000396,
            "durationTicks": 24,
            "midi": 24,
            "name": "C1",
            "ticks": 29424,
            "time": 41.79541275,
            "velocity": 0.3937007874015748
          },
          {
            "duration": 0.034090874999996856,
            "durationTicks": 24,
            "midi": 36,
            "name": "C2",
            "ticks": 29448,
            "time": 41.829503625,
            "velocity": 0.3937007874015748
          },
          {
            "duration": 0.03409087500000396,
            "durationTicks": 24,
            "midi": 24,
            "name": "C1",
            "ticks": 29472,
            "time": 41.8635945,
            "velocity": 0.3937007874015748
          },
          {
            "duration": 0.034090874999996856,
            "durationTicks": 24,
            "midi": 36,
            "name": "C2",
            "ticks": 29496,
            "time": 41.897685375,
            "velocity": 0.3937007874015748
          },
          {
            "duration": 0.03409087500000396,
            "durationTicks": 24,
            "midi": 24,
            "name": "C1",
            "ticks": 29520,
            "time": 41.93177625,
            "velocity": 0.3937007874015748
          },
          {
            "duration": 0.034090874999996856,
            "durationTicks": 24,
            "midi": 36,
            "name": "C2",
            "ticks": 29544,
            "time": 41.965867125,
            "velocity": 0.3937007874015748
          },
          {
            "duration": 0.034090874999996856,
            "durationTicks": 24,
            "midi": 24,
            "name": "C1",
            "ticks": 29568,
            "time": 41.999958,
            "velocity": 0.3937007874015748
          },
          {
            "duration": 0.03409087500000396,
            "durationTicks": 24,
            "midi": 36,
            "name": "C2",
            "ticks": 29592,
            "time": 42.034048874999996,
            "velocity": 0.3937007874015748
          },
          {
            "duration": 0.034090874999996856,
            "durationTicks": 24,
            "midi": 24,
            "name": "C1",
            "ticks": 29616,
            "time": 42.06813975,
            "velocity": 0.3937007874015748
          },
          {
            "duration": 0.03409087500000396,
            "durationTicks": 24,
            "midi": 36,
            "name": "C2",
            "ticks": 29640,
            "time": 42.102230625,
            "velocity": 0.3937007874015748
          },
          {
            "duration": 0.034090874999996856,
            "durationTicks": 24,
            "midi": 24,
            "name": "C1",
            "ticks": 29664,
            "time": 42.1363215,
            "velocity": 0.3937007874015748
          },
          {
            "duration": 0.03409087500000396,
            "durationTicks": 24,
            "midi": 36,
            "name": "C2",
            "ticks": 29688,
            "time": 42.170412375,
            "velocity": 0.3937007874015748
          },
          {
            "duration": 0.034090874999996856,
            "durationTicks": 24,
            "midi": 24,
            "name": "C1",
            "ticks": 29712,
            "time": 42.20450325,
            "velocity": 0.3937007874015748
          },
          {
            "duration": 0.03409087500000396,
            "durationTicks": 24,
            "midi": 36,
            "name": "C2",
            "ticks": 29736,
            "time": 42.238594125,
            "velocity": 0.3937007874015748
          },
          {
            "duration": 0.034090874999996856,
            "durationTicks": 24,
            "midi": 24,
            "name": "C1",
            "ticks": 29760,
            "time": 42.272685,
            "velocity": 0.3937007874015748
          },
          {
            "duration": 0.034090874999996856,
            "durationTicks": 24,
            "midi": 36,
            "name": "C2",
            "ticks": 29784,
            "time": 42.306775875,
            "velocity": 0.3937007874015748
          },
          {
            "duration": 0.03409087500000396,
            "durationTicks": 24,
            "midi": 24,
            "name": "C1",
            "ticks": 29808,
            "time": 42.340866749999996,
            "velocity": 0.3937007874015748
          },
          {
            "duration": 0.034090874999996856,
            "durationTicks": 24,
            "midi": 36,
            "name": "C2",
            "ticks": 29832,
            "time": 42.374957625,
            "velocity": 0.3937007874015748
          },
          {
            "duration": 0.03409087500000396,
            "durationTicks": 24,
            "midi": 24,
            "name": "C1",
            "ticks": 29856,
            "time": 42.4090485,
            "velocity": 0.3937007874015748
          },
          {
            "duration": 0.034090874999996856,
            "durationTicks": 24,
            "midi": 36,
            "name": "C2",
            "ticks": 29880,
            "time": 42.443139375,
            "velocity": 0.3937007874015748
          },
          {
            "duration": 0.03409087500000396,
            "durationTicks": 24,
            "midi": 24,
            "name": "C1",
            "ticks": 29904,
            "time": 42.47723025,
            "velocity": 0.3937007874015748
          },
          {
            "duration": 0.034090874999996856,
            "durationTicks": 24,
            "midi": 36,
            "name": "C2",
            "ticks": 29928,
            "time": 42.511321125,
            "velocity": 0.3937007874015748
          },
          {
            "duration": 0.03409087500000396,
            "durationTicks": 24,
            "midi": 24,
            "name": "C1",
            "ticks": 29952,
            "time": 42.545412,
            "velocity": 0.3937007874015748
          },
          {
            "duration": 0.034090874999996856,
            "durationTicks": 24,
            "midi": 36,
            "name": "C2",
            "ticks": 29976,
            "time": 42.579502875,
            "velocity": 0.3937007874015748
          },
          {
            "duration": 0.034090874999996856,
            "durationTicks": 24,
            "midi": 24,
            "name": "C1",
            "ticks": 30000,
            "time": 42.61359375,
            "velocity": 0.3937007874015748
          },
          {
            "duration": 0.03409087500000396,
            "durationTicks": 24,
            "midi": 36,
            "name": "C2",
            "ticks": 30024,
            "time": 42.647684625,
            "velocity": 0.3937007874015748
          },
          {
            "duration": 0.034090874999996856,
            "durationTicks": 24,
            "midi": 24,
            "name": "C1",
            "ticks": 30048,
            "time": 42.6817755,
            "velocity": 0.3937007874015748
          },
          {
            "duration": 0.03409087500000396,
            "durationTicks": 24,
            "midi": 36,
            "name": "C2",
            "ticks": 30072,
            "time": 42.715866375,
            "velocity": 0.3937007874015748
          },
          {
            "duration": 0.034090874999996856,
            "durationTicks": 24,
            "midi": 24,
            "name": "C1",
            "ticks": 30096,
            "time": 42.74995725,
            "velocity": 0.3937007874015748
          },
          {
            "duration": 0.03409087500000396,
            "durationTicks": 24,
            "midi": 36,
            "name": "C2",
            "ticks": 30120,
            "time": 42.784048125,
            "velocity": 0.3937007874015748
          },
          {
            "duration": 0.034090874999996856,
            "durationTicks": 24,
            "midi": 24,
            "name": "C1",
            "ticks": 30144,
            "time": 42.818139,
            "velocity": 0.3937007874015748
          },
          {
            "duration": 0.03409087500000396,
            "durationTicks": 24,
            "midi": 36,
            "name": "C2",
            "ticks": 30168,
            "time": 42.852229875,
            "velocity": 0.3937007874015748
          },
          {
            "duration": 0.034090874999996856,
            "durationTicks": 24,
            "midi": 24,
            "name": "C1",
            "ticks": 30192,
            "time": 42.88632075,
            "velocity": 0.3937007874015748
          },
          {
            "duration": 0.034090874999996856,
            "durationTicks": 24,
            "midi": 36,
            "name": "C2",
            "ticks": 30216,
            "time": 42.920411625,
            "velocity": 0.3937007874015748
          },
          {
            "duration": 0.03409087500000396,
            "durationTicks": 24,
            "midi": 24,
            "name": "C1",
            "ticks": 30240,
            "time": 42.9545025,
            "velocity": 0.3937007874015748
          },
          {
            "duration": 0.034090874999996856,
            "durationTicks": 24,
            "midi": 36,
            "name": "C2",
            "ticks": 30264,
            "time": 42.988593375,
            "velocity": 0.3937007874015748
          },
          {
            "duration": 0.03409087500000396,
            "durationTicks": 24,
            "midi": 24,
            "name": "C1",
            "ticks": 30288,
            "time": 43.02268425,
            "velocity": 0.3937007874015748
          },
          {
            "duration": 0.034090874999996856,
            "durationTicks": 24,
            "midi": 36,
            "name": "C2",
            "ticks": 30312,
            "time": 43.056775125,
            "velocity": 0.3937007874015748
          },
          {
            "duration": 0.03409087500000396,
            "durationTicks": 24,
            "midi": 24,
            "name": "C1",
            "ticks": 30336,
            "time": 43.090866,
            "velocity": 0.3937007874015748
          },
          {
            "duration": 0.034090874999996856,
            "durationTicks": 24,
            "midi": 36,
            "name": "C2",
            "ticks": 30360,
            "time": 43.124956875,
            "velocity": 0.3937007874015748
          },
          {
            "duration": 0.034090874999996856,
            "durationTicks": 24,
            "midi": 24,
            "name": "C1",
            "ticks": 30384,
            "time": 43.15904775,
            "velocity": 0.3937007874015748
          },
          {
            "duration": 0.03409087500000396,
            "durationTicks": 24,
            "midi": 36,
            "name": "C2",
            "ticks": 30408,
            "time": 43.193138624999996,
            "velocity": 0.3937007874015748
          },
          {
            "duration": 0.034090874999996856,
            "durationTicks": 24,
            "midi": 24,
            "name": "C1",
            "ticks": 30432,
            "time": 43.2272295,
            "velocity": 0.3937007874015748
          },
          {
            "duration": 0.03409087500000396,
            "durationTicks": 24,
            "midi": 36,
            "name": "C2",
            "ticks": 30456,
            "time": 43.261320375,
            "velocity": 0.3937007874015748
          },
          {
            "duration": 0.034090874999996856,
            "durationTicks": 24,
            "midi": 24,
            "name": "C1",
            "ticks": 30480,
            "time": 43.29541125,
            "velocity": 0.3937007874015748
          },
          {
            "duration": 0.03409087500000396,
            "durationTicks": 24,
            "midi": 36,
            "name": "C2",
            "ticks": 30504,
            "time": 43.329502125,
            "velocity": 0.3937007874015748
          },
          {
            "duration": 0.034090874999996856,
            "durationTicks": 24,
            "midi": 24,
            "name": "C1",
            "ticks": 30528,
            "time": 43.363593,
            "velocity": 0.3937007874015748
          },
          {
            "duration": 0.03409087500000396,
            "durationTicks": 24,
            "midi": 36,
            "name": "C2",
            "ticks": 30552,
            "time": 43.397683875,
            "velocity": 0.3937007874015748
          },
          {
            "duration": 0.034090874999996856,
            "durationTicks": 24,
            "midi": 24,
            "name": "C1",
            "ticks": 30576,
            "time": 43.43177475,
            "velocity": 0.3937007874015748
          },
          {
            "duration": 0.034090874999996856,
            "durationTicks": 24,
            "midi": 36,
            "name": "C2",
            "ticks": 30600,
            "time": 43.465865625,
            "velocity": 0.3937007874015748
          },
          {
            "duration": 0.03409087500000396,
            "durationTicks": 24,
            "midi": 24,
            "name": "C1",
            "ticks": 30624,
            "time": 43.499956499999996,
            "velocity": 0.3937007874015748
          },
          {
            "duration": 0.034090874999996856,
            "durationTicks": 24,
            "midi": 36,
            "name": "C2",
            "ticks": 30648,
            "time": 43.534047375,
            "velocity": 0.3937007874015748
          },
          {
            "duration": 0.03409087500000396,
            "durationTicks": 24,
            "midi": 24,
            "name": "C1",
            "ticks": 30672,
            "time": 43.56813825,
            "velocity": 0.3937007874015748
          },
          {
            "duration": 0.034090874999996856,
            "durationTicks": 24,
            "midi": 36,
            "name": "C2",
            "ticks": 30696,
            "time": 43.602229125,
            "velocity": 0.3937007874015748
          },
          {
            "duration": 0.03409087500000396,
            "durationTicks": 24,
            "midi": 39,
            "name": "D#2",
            "ticks": 30720,
            "time": 43.63632,
            "velocity": 0.3937007874015748
          },
          {
            "duration": 0.03409087500000396,
            "durationTicks": 24,
            "midi": 27,
            "name": "D#1",
            "ticks": 30720,
            "time": 43.63632,
            "velocity": 0.3937007874015748
          },
          {
            "duration": 0.03409087500000396,
            "durationTicks": 24,
            "midi": 39,
            "name": "D#2",
            "ticks": 30768,
            "time": 43.70450175,
            "velocity": 0.3937007874015748
          },
          {
            "duration": 0.03409087500000396,
            "durationTicks": 24,
            "midi": 27,
            "name": "D#1",
            "ticks": 30768,
            "time": 43.70450175,
            "velocity": 0.3937007874015748
          },
          {
            "duration": 0.034090874999996856,
            "durationTicks": 24,
            "midi": 27,
            "name": "D#1",
            "ticks": 30816,
            "time": 43.7726835,
            "velocity": 0.3937007874015748
          },
          {
            "duration": 0.034090874999996856,
            "durationTicks": 24,
            "midi": 39,
            "name": "D#2",
            "ticks": 30816,
            "time": 43.7726835,
            "velocity": 0.3937007874015748
          },
          {
            "duration": 0.034090874999996856,
            "durationTicks": 24,
            "midi": 27,
            "name": "D#1",
            "ticks": 30864,
            "time": 43.84086525,
            "velocity": 0.3937007874015748
          },
          {
            "duration": 0.034090874999996856,
            "durationTicks": 24,
            "midi": 39,
            "name": "D#2",
            "ticks": 30864,
            "time": 43.84086525,
            "velocity": 0.3937007874015748
          },
          {
            "duration": 0.034090874999996856,
            "durationTicks": 24,
            "midi": 27,
            "name": "D#1",
            "ticks": 30912,
            "time": 43.909047,
            "velocity": 0.3937007874015748
          },
          {
            "duration": 0.034090874999996856,
            "durationTicks": 24,
            "midi": 39,
            "name": "D#2",
            "ticks": 30912,
            "time": 43.909047,
            "velocity": 0.3937007874015748
          },
          {
            "duration": 0.034090874999996856,
            "durationTicks": 24,
            "midi": 27,
            "name": "D#1",
            "ticks": 30960,
            "time": 43.97722875,
            "velocity": 0.3937007874015748
          },
          {
            "duration": 0.034090874999996856,
            "durationTicks": 24,
            "midi": 39,
            "name": "D#2",
            "ticks": 30960,
            "time": 43.97722875,
            "velocity": 0.3937007874015748
          },
          {
            "duration": 0.034090874999996856,
            "durationTicks": 24,
            "midi": 27,
            "name": "D#1",
            "ticks": 31008,
            "time": 44.0454105,
            "velocity": 0.3937007874015748
          },
          {
            "duration": 0.034090874999996856,
            "durationTicks": 24,
            "midi": 39,
            "name": "D#2",
            "ticks": 31008,
            "time": 44.0454105,
            "velocity": 0.3937007874015748
          },
          {
            "duration": 0.03409087500000396,
            "durationTicks": 24,
            "midi": 27,
            "name": "D#1",
            "ticks": 31056,
            "time": 44.113592249999996,
            "velocity": 0.3937007874015748
          },
          {
            "duration": 0.03409087500000396,
            "durationTicks": 24,
            "midi": 39,
            "name": "D#2",
            "ticks": 31056,
            "time": 44.113592249999996,
            "velocity": 0.3937007874015748
          },
          {
            "duration": 0.03409087500000396,
            "durationTicks": 24,
            "midi": 39,
            "name": "D#2",
            "ticks": 31104,
            "time": 44.181774,
            "velocity": 0.3937007874015748
          },
          {
            "duration": 0.03409087500000396,
            "durationTicks": 24,
            "midi": 27,
            "name": "D#1",
            "ticks": 31104,
            "time": 44.181774,
            "velocity": 0.3937007874015748
          },
          {
            "duration": 0.03409087500000396,
            "durationTicks": 24,
            "midi": 39,
            "name": "D#2",
            "ticks": 31152,
            "time": 44.24995575,
            "velocity": 0.3937007874015748
          },
          {
            "duration": 0.03409087500000396,
            "durationTicks": 24,
            "midi": 27,
            "name": "D#1",
            "ticks": 31152,
            "time": 44.24995575,
            "velocity": 0.3937007874015748
          },
          {
            "duration": 0.03409087500000396,
            "durationTicks": 24,
            "midi": 27,
            "name": "D#1",
            "ticks": 31200,
            "time": 44.3181375,
            "velocity": 0.3937007874015748
          },
          {
            "duration": 0.03409087500000396,
            "durationTicks": 24,
            "midi": 39,
            "name": "D#2",
            "ticks": 31200,
            "time": 44.3181375,
            "velocity": 0.3937007874015748
          },
          {
            "duration": 0.034090874999996856,
            "durationTicks": 24,
            "midi": 39,
            "name": "D#2",
            "ticks": 31248,
            "time": 44.38631925,
            "velocity": 0.3937007874015748
          },
          {
            "duration": 0.034090874999996856,
            "durationTicks": 24,
            "midi": 27,
            "name": "D#1",
            "ticks": 31248,
            "time": 44.38631925,
            "velocity": 0.3937007874015748
          },
          {
            "duration": 0.034090874999996856,
            "durationTicks": 24,
            "midi": 36,
            "name": "C2",
            "ticks": 31296,
            "time": 44.454501,
            "velocity": 0.3937007874015748
          },
          {
            "duration": 0.034090874999996856,
            "durationTicks": 24,
            "midi": 24,
            "name": "C1",
            "ticks": 31296,
            "time": 44.454501,
            "velocity": 0.3937007874015748
          },
          {
            "duration": 0.034090874999996856,
            "durationTicks": 24,
            "midi": 24,
            "name": "C1",
            "ticks": 31344,
            "time": 44.52268275,
            "velocity": 0.3937007874015748
          },
          {
            "duration": 0.034090874999996856,
            "durationTicks": 24,
            "midi": 36,
            "name": "C2",
            "ticks": 31344,
            "time": 44.52268275,
            "velocity": 0.3937007874015748
          },
          {
            "duration": 0.034090874999996856,
            "durationTicks": 24,
            "midi": 24,
            "name": "C1",
            "ticks": 31392,
            "time": 44.5908645,
            "velocity": 0.3937007874015748
          },
          {
            "duration": 0.034090874999996856,
            "durationTicks": 24,
            "midi": 36,
            "name": "C2",
            "ticks": 31392,
            "time": 44.5908645,
            "velocity": 0.3937007874015748
          },
          {
            "duration": 0.034090874999996856,
            "durationTicks": 24,
            "midi": 36,
            "name": "C2",
            "ticks": 31440,
            "time": 44.65904625,
            "velocity": 0.3937007874015748
          },
          {
            "duration": 0.034090874999996856,
            "durationTicks": 24,
            "midi": 24,
            "name": "C1",
            "ticks": 31440,
            "time": 44.65904625,
            "velocity": 0.3937007874015748
          },
          {
            "duration": 0.03409087500000396,
            "durationTicks": 24,
            "midi": 24,
            "name": "C1",
            "ticks": 31488,
            "time": 44.727228,
            "velocity": 0.3937007874015748
          },
          {
            "duration": 0.03409087500000396,
            "durationTicks": 24,
            "midi": 36,
            "name": "C2",
            "ticks": 31488,
            "time": 44.727228,
            "velocity": 0.3937007874015748
          },
          {
            "duration": 0.03409087500000396,
            "durationTicks": 24,
            "midi": 24,
            "name": "C1",
            "ticks": 31536,
            "time": 44.79540975,
            "velocity": 0.3937007874015748
          },
          {
            "duration": 0.03409087500000396,
            "durationTicks": 24,
            "midi": 36,
            "name": "C2",
            "ticks": 31536,
            "time": 44.79540975,
            "velocity": 0.3937007874015748
          },
          {
            "duration": 0.03409087500000396,
            "durationTicks": 24,
            "midi": 24,
            "name": "C1",
            "ticks": 31584,
            "time": 44.8635915,
            "velocity": 0.3937007874015748
          },
          {
            "duration": 0.03409087500000396,
            "durationTicks": 24,
            "midi": 36,
            "name": "C2",
            "ticks": 31584,
            "time": 44.8635915,
            "velocity": 0.3937007874015748
          },
          {
            "duration": 0.03409087500000396,
            "durationTicks": 24,
            "midi": 24,
            "name": "C1",
            "ticks": 31632,
            "time": 44.93177325,
            "velocity": 0.3937007874015748
          },
          {
            "duration": 0.03409087500000396,
            "durationTicks": 24,
            "midi": 36,
            "name": "C2",
            "ticks": 31632,
            "time": 44.93177325,
            "velocity": 0.3937007874015748
          },
          {
            "duration": 0.034090874999996856,
            "durationTicks": 24,
            "midi": 24,
            "name": "C1",
            "ticks": 31680,
            "time": 44.999955,
            "velocity": 0.3937007874015748
          },
          {
            "duration": 0.034090874999996856,
            "durationTicks": 24,
            "midi": 36,
            "name": "C2",
            "ticks": 31680,
            "time": 44.999955,
            "velocity": 0.3937007874015748
          },
          {
            "duration": 0.034090874999996856,
            "durationTicks": 24,
            "midi": 36,
            "name": "C2",
            "ticks": 31728,
            "time": 45.06813675,
            "velocity": 0.3937007874015748
          },
          {
            "duration": 0.034090874999996856,
            "durationTicks": 24,
            "midi": 24,
            "name": "C1",
            "ticks": 31728,
            "time": 45.06813675,
            "velocity": 0.3937007874015748
          },
          {
            "duration": 0.034090874999996856,
            "durationTicks": 24,
            "midi": 36,
            "name": "C2",
            "ticks": 31776,
            "time": 45.1363185,
            "velocity": 0.3937007874015748
          },
          {
            "duration": 0.034090874999996856,
            "durationTicks": 24,
            "midi": 24,
            "name": "C1",
            "ticks": 31776,
            "time": 45.1363185,
            "velocity": 0.3937007874015748
          },
          {
            "duration": 0.034090874999996856,
            "durationTicks": 24,
            "midi": 24,
            "name": "C1",
            "ticks": 31824,
            "time": 45.20450025,
            "velocity": 0.3937007874015748
          },
          {
            "duration": 0.034090874999996856,
            "durationTicks": 24,
            "midi": 36,
            "name": "C2",
            "ticks": 31824,
            "time": 45.20450025,
            "velocity": 0.3937007874015748
          },
          {
            "duration": 0.03409087500000396,
            "durationTicks": 24,
            "midi": 24,
            "name": "C1",
            "ticks": 31872,
            "time": 45.272681999999996,
            "velocity": 0.3937007874015748
          },
          {
            "duration": 0.03409087500000396,
            "durationTicks": 24,
            "midi": 36,
            "name": "C2",
            "ticks": 31872,
            "time": 45.272681999999996,
            "velocity": 0.3937007874015748
          },
          {
            "duration": 0.03409087500000396,
            "durationTicks": 24,
            "midi": 24,
            "name": "C1",
            "ticks": 31920,
            "time": 45.34086375,
            "velocity": 0.3937007874015748
          },
          {
            "duration": 0.03409087500000396,
            "durationTicks": 24,
            "midi": 36,
            "name": "C2",
            "ticks": 31920,
            "time": 45.34086375,
            "velocity": 0.3937007874015748
          },
          {
            "duration": 0.03409087500000396,
            "durationTicks": 24,
            "midi": 36,
            "name": "C2",
            "ticks": 31968,
            "time": 45.4090455,
            "velocity": 0.3937007874015748
          },
          {
            "duration": 0.03409087500000396,
            "durationTicks": 24,
            "midi": 24,
            "name": "C1",
            "ticks": 31968,
            "time": 45.4090455,
            "velocity": 0.3937007874015748
          },
          {
            "duration": 0.03409087500000396,
            "durationTicks": 24,
            "midi": 36,
            "name": "C2",
            "ticks": 32016,
            "time": 45.47722725,
            "velocity": 0.3937007874015748
          },
          {
            "duration": 0.03409087500000396,
            "durationTicks": 24,
            "midi": 24,
            "name": "C1",
            "ticks": 32016,
            "time": 45.47722725,
            "velocity": 0.3937007874015748
          },
          {
            "duration": 0.034090874999996856,
            "durationTicks": 24,
            "midi": 36,
            "name": "C2",
            "ticks": 32064,
            "time": 45.545409,
            "velocity": 0.3937007874015748
          },
          {
            "duration": 0.034090874999996856,
            "durationTicks": 24,
            "midi": 24,
            "name": "C1",
            "ticks": 32064,
            "time": 45.545409,
            "velocity": 0.3937007874015748
          },
          {
            "duration": 0.034090874999996856,
            "durationTicks": 24,
            "midi": 24,
            "name": "C1",
            "ticks": 32112,
            "time": 45.61359075,
            "velocity": 0.3937007874015748
          },
          {
            "duration": 0.034090874999996856,
            "durationTicks": 24,
            "midi": 36,
            "name": "C2",
            "ticks": 32112,
            "time": 45.61359075,
            "velocity": 0.3937007874015748
          },
          {
            "duration": 0.034090874999996856,
            "durationTicks": 24,
            "midi": 36,
            "name": "C2",
            "ticks": 32160,
            "time": 45.6817725,
            "velocity": 0.3937007874015748
          },
          {
            "duration": 0.034090874999996856,
            "durationTicks": 24,
            "midi": 24,
            "name": "C1",
            "ticks": 32160,
            "time": 45.6817725,
            "velocity": 0.3937007874015748
          },
          {
            "duration": 0.034090874999996856,
            "durationTicks": 24,
            "midi": 36,
            "name": "C2",
            "ticks": 32208,
            "time": 45.74995425,
            "velocity": 0.3937007874015748
          },
          {
            "duration": 0.034090874999996856,
            "durationTicks": 24,
            "midi": 24,
            "name": "C1",
            "ticks": 32208,
            "time": 45.74995425,
            "velocity": 0.3937007874015748
          },
          {
            "duration": 0.034090874999996856,
            "durationTicks": 24,
            "midi": 24,
            "name": "C1",
            "ticks": 32256,
            "time": 45.818136,
            "velocity": 0.3937007874015748
          },
          {
            "duration": 0.034090874999996856,
            "durationTicks": 24,
            "midi": 36,
            "name": "C2",
            "ticks": 32280,
            "time": 45.852226875,
            "velocity": 0.3937007874015748
          },
          {
            "duration": 0.03409087500000396,
            "durationTicks": 24,
            "midi": 24,
            "name": "C1",
            "ticks": 32304,
            "time": 45.886317749999996,
            "velocity": 0.3937007874015748
          },
          {
            "duration": 0.034090874999996856,
            "durationTicks": 24,
            "midi": 36,
            "name": "C2",
            "ticks": 32328,
            "time": 45.920408625,
            "velocity": 0.3937007874015748
          },
          {
            "duration": 0.03409087500000396,
            "durationTicks": 24,
            "midi": 24,
            "name": "C1",
            "ticks": 32352,
            "time": 45.9544995,
            "velocity": 0.3937007874015748
          },
          {
            "duration": 0.034090874999996856,
            "durationTicks": 24,
            "midi": 36,
            "name": "C2",
            "ticks": 32376,
            "time": 45.988590375,
            "velocity": 0.3937007874015748
          },
          {
            "duration": 0.03409087500000396,
            "durationTicks": 24,
            "midi": 24,
            "name": "C1",
            "ticks": 32400,
            "time": 46.02268125,
            "velocity": 0.3937007874015748
          },
          {
            "duration": 0.034090874999996856,
            "durationTicks": 24,
            "midi": 36,
            "name": "C2",
            "ticks": 32424,
            "time": 46.056772125,
            "velocity": 0.3937007874015748
          },
          {
            "duration": 0.03409087500000396,
            "durationTicks": 24,
            "midi": 24,
            "name": "C1",
            "ticks": 32448,
            "time": 46.090863,
            "velocity": 0.3937007874015748
          },
          {
            "duration": 0.034090874999996856,
            "durationTicks": 24,
            "midi": 36,
            "name": "C2",
            "ticks": 32472,
            "time": 46.124953875,
            "velocity": 0.3937007874015748
          },
          {
            "duration": 0.034090874999996856,
            "durationTicks": 24,
            "midi": 24,
            "name": "C1",
            "ticks": 32496,
            "time": 46.15904475,
            "velocity": 0.3937007874015748
          },
          {
            "duration": 0.03409087500000396,
            "durationTicks": 24,
            "midi": 36,
            "name": "C2",
            "ticks": 32520,
            "time": 46.193135625,
            "velocity": 0.3937007874015748
          },
          {
            "duration": 0.034090874999996856,
            "durationTicks": 24,
            "midi": 24,
            "name": "C1",
            "ticks": 32544,
            "time": 46.2272265,
            "velocity": 0.3937007874015748
          },
          {
            "duration": 0.03409087500000396,
            "durationTicks": 24,
            "midi": 36,
            "name": "C2",
            "ticks": 32568,
            "time": 46.261317375,
            "velocity": 0.3937007874015748
          },
          {
            "duration": 0.034090874999996856,
            "durationTicks": 24,
            "midi": 24,
            "name": "C1",
            "ticks": 32592,
            "time": 46.29540825,
            "velocity": 0.3937007874015748
          },
          {
            "duration": 0.03409087500000396,
            "durationTicks": 24,
            "midi": 36,
            "name": "C2",
            "ticks": 32616,
            "time": 46.329499125,
            "velocity": 0.3937007874015748
          },
          {
            "duration": 0.034090874999996856,
            "durationTicks": 24,
            "midi": 24,
            "name": "C1",
            "ticks": 32640,
            "time": 46.36359,
            "velocity": 0.3937007874015748
          },
          {
            "duration": 0.03409087500000396,
            "durationTicks": 24,
            "midi": 36,
            "name": "C2",
            "ticks": 32664,
            "time": 46.397680875,
            "velocity": 0.3937007874015748
          },
          {
            "duration": 0.034090874999996856,
            "durationTicks": 24,
            "midi": 24,
            "name": "C1",
            "ticks": 32688,
            "time": 46.43177175,
            "velocity": 0.3937007874015748
          },
          {
            "duration": 0.034090874999996856,
            "durationTicks": 24,
            "midi": 36,
            "name": "C2",
            "ticks": 32712,
            "time": 46.465862625,
            "velocity": 0.3937007874015748
          },
          {
            "duration": 0.03409087500000396,
            "durationTicks": 24,
            "midi": 24,
            "name": "C1",
            "ticks": 32736,
            "time": 46.4999535,
            "velocity": 0.3937007874015748
          },
          {
            "duration": 0.034090874999996856,
            "durationTicks": 24,
            "midi": 36,
            "name": "C2",
            "ticks": 32760,
            "time": 46.534044375,
            "velocity": 0.3937007874015748
          },
          {
            "duration": 0.03409087500000396,
            "durationTicks": 24,
            "midi": 24,
            "name": "C1",
            "ticks": 32784,
            "time": 46.56813525,
            "velocity": 0.3937007874015748
          },
          {
            "duration": 0.034090874999996856,
            "durationTicks": 24,
            "midi": 36,
            "name": "C2",
            "ticks": 32808,
            "time": 46.602226125,
            "velocity": 0.3937007874015748
          },
          {
            "duration": 0.03409087500000396,
            "durationTicks": 24,
            "midi": 24,
            "name": "C1",
            "ticks": 32832,
            "time": 46.636317,
            "velocity": 0.3937007874015748
          },
          {
            "duration": 0.034090874999996856,
            "durationTicks": 24,
            "midi": 36,
            "name": "C2",
            "ticks": 32856,
            "time": 46.670407875,
            "velocity": 0.3937007874015748
          },
          {
            "duration": 0.03409087500000396,
            "durationTicks": 24,
            "midi": 24,
            "name": "C1",
            "ticks": 32880,
            "time": 46.70449875,
            "velocity": 0.3937007874015748
          },
          {
            "duration": 0.034090874999996856,
            "durationTicks": 24,
            "midi": 36,
            "name": "C2",
            "ticks": 32904,
            "time": 46.738589625,
            "velocity": 0.3937007874015748
          },
          {
            "duration": 0.034090874999996856,
            "durationTicks": 24,
            "midi": 24,
            "name": "C1",
            "ticks": 32928,
            "time": 46.7726805,
            "velocity": 0.3937007874015748
          },
          {
            "duration": 0.03409087500000396,
            "durationTicks": 24,
            "midi": 36,
            "name": "C2",
            "ticks": 32952,
            "time": 46.806771375,
            "velocity": 0.3937007874015748
          },
          {
            "duration": 0.034090874999996856,
            "durationTicks": 24,
            "midi": 24,
            "name": "C1",
            "ticks": 32976,
            "time": 46.84086225,
            "velocity": 0.3937007874015748
          },
          {
            "duration": 0.03409087500000396,
            "durationTicks": 24,
            "midi": 36,
            "name": "C2",
            "ticks": 33000,
            "time": 46.874953125,
            "velocity": 0.3937007874015748
          },
          {
            "duration": 0.034090874999996856,
            "durationTicks": 24,
            "midi": 24,
            "name": "C1",
            "ticks": 33024,
            "time": 46.909044,
            "velocity": 0.3937007874015748
          },
          {
            "duration": 0.03409087500000396,
            "durationTicks": 24,
            "midi": 36,
            "name": "C2",
            "ticks": 33048,
            "time": 46.943134875,
            "velocity": 0.3937007874015748
          },
          {
            "duration": 0.034090874999996856,
            "durationTicks": 24,
            "midi": 24,
            "name": "C1",
            "ticks": 33072,
            "time": 46.97722575,
            "velocity": 0.3937007874015748
          },
          {
            "duration": 0.034090874999996856,
            "durationTicks": 24,
            "midi": 36,
            "name": "C2",
            "ticks": 33096,
            "time": 47.011316625,
            "velocity": 0.3937007874015748
          },
          {
            "duration": 0.03409087500000396,
            "durationTicks": 24,
            "midi": 24,
            "name": "C1",
            "ticks": 33120,
            "time": 47.045407499999996,
            "velocity": 0.3937007874015748
          },
          {
            "duration": 0.034090874999996856,
            "durationTicks": 24,
            "midi": 36,
            "name": "C2",
            "ticks": 33144,
            "time": 47.079498375,
            "velocity": 0.3937007874015748
          },
          {
            "duration": 0.03409087500000396,
            "durationTicks": 24,
            "midi": 24,
            "name": "C1",
            "ticks": 33168,
            "time": 47.11358925,
            "velocity": 0.3937007874015748
          },
          {
            "duration": 0.034090874999996856,
            "durationTicks": 24,
            "midi": 36,
            "name": "C2",
            "ticks": 33192,
            "time": 47.147680125,
            "velocity": 0.3937007874015748
          },
          {
            "duration": 0.03409087500000396,
            "durationTicks": 24,
            "midi": 24,
            "name": "C1",
            "ticks": 33216,
            "time": 47.181771,
            "velocity": 0.3937007874015748
          },
          {
            "duration": 0.034090874999996856,
            "durationTicks": 24,
            "midi": 36,
            "name": "C2",
            "ticks": 33240,
            "time": 47.215861875,
            "velocity": 0.3937007874015748
          },
          {
            "duration": 0.03409087500000396,
            "durationTicks": 24,
            "midi": 24,
            "name": "C1",
            "ticks": 33264,
            "time": 47.24995275,
            "velocity": 0.3937007874015748
          },
          {
            "duration": 0.034090874999996856,
            "durationTicks": 24,
            "midi": 36,
            "name": "C2",
            "ticks": 33288,
            "time": 47.284043625,
            "velocity": 0.3937007874015748
          },
          {
            "duration": 0.034090874999996856,
            "durationTicks": 24,
            "midi": 24,
            "name": "C1",
            "ticks": 33312,
            "time": 47.3181345,
            "velocity": 0.3937007874015748
          },
          {
            "duration": 0.03409087500000396,
            "durationTicks": 24,
            "midi": 36,
            "name": "C2",
            "ticks": 33336,
            "time": 47.352225374999996,
            "velocity": 0.3937007874015748
          },
          {
            "duration": 0.034090874999996856,
            "durationTicks": 24,
            "midi": 24,
            "name": "C1",
            "ticks": 33360,
            "time": 47.38631625,
            "velocity": 0.3937007874015748
          },
          {
            "duration": 0.03409087500000396,
            "durationTicks": 24,
            "midi": 36,
            "name": "C2",
            "ticks": 33384,
            "time": 47.420407125,
            "velocity": 0.3937007874015748
          },
          {
            "duration": 0.034090874999996856,
            "durationTicks": 24,
            "midi": 24,
            "name": "C1",
            "ticks": 33408,
            "time": 47.454498,
            "velocity": 0.3937007874015748
          },
          {
            "duration": 0.03409087500000396,
            "durationTicks": 24,
            "midi": 36,
            "name": "C2",
            "ticks": 33432,
            "time": 47.488588875,
            "velocity": 0.3937007874015748
          },
          {
            "duration": 0.034090874999996856,
            "durationTicks": 24,
            "midi": 24,
            "name": "C1",
            "ticks": 33456,
            "time": 47.52267975,
            "velocity": 0.3937007874015748
          },
          {
            "duration": 0.03409087500000396,
            "durationTicks": 24,
            "midi": 36,
            "name": "C2",
            "ticks": 33480,
            "time": 47.556770625,
            "velocity": 0.3937007874015748
          },
          {
            "duration": 0.034090874999996856,
            "durationTicks": 24,
            "midi": 24,
            "name": "C1",
            "ticks": 33504,
            "time": 47.5908615,
            "velocity": 0.3937007874015748
          },
          {
            "duration": 0.034090874999996856,
            "durationTicks": 24,
            "midi": 36,
            "name": "C2",
            "ticks": 33528,
            "time": 47.624952375,
            "velocity": 0.3937007874015748
          },
          {
            "duration": 0.03409087500000396,
            "durationTicks": 24,
            "midi": 24,
            "name": "C1",
            "ticks": 33552,
            "time": 47.659043249999996,
            "velocity": 0.3937007874015748
          },
          {
            "duration": 0.034090874999996856,
            "durationTicks": 24,
            "midi": 36,
            "name": "C2",
            "ticks": 33576,
            "time": 47.693134125,
            "velocity": 0.3937007874015748
          },
          {
            "duration": 0.03409087500000396,
            "durationTicks": 24,
            "midi": 24,
            "name": "C1",
            "ticks": 33600,
            "time": 47.727225,
            "velocity": 0.3937007874015748
          },
          {
            "duration": 0.034090874999996856,
            "durationTicks": 24,
            "midi": 36,
            "name": "C2",
            "ticks": 33624,
            "time": 47.761315875,
            "velocity": 0.3937007874015748
          },
          {
            "duration": 0.03409087500000396,
            "durationTicks": 24,
            "midi": 24,
            "name": "C1",
            "ticks": 33648,
            "time": 47.79540675,
            "velocity": 0.3937007874015748
          },
          {
            "duration": 0.034090874999996856,
            "durationTicks": 24,
            "midi": 36,
            "name": "C2",
            "ticks": 33672,
            "time": 47.829497625,
            "velocity": 0.3937007874015748
          },
          {
            "duration": 0.03409087500000396,
            "durationTicks": 24,
            "midi": 24,
            "name": "C1",
            "ticks": 33696,
            "time": 47.8635885,
            "velocity": 0.3937007874015748
          },
          {
            "duration": 0.034090874999996856,
            "durationTicks": 24,
            "midi": 36,
            "name": "C2",
            "ticks": 33720,
            "time": 47.897679375,
            "velocity": 0.3937007874015748
          },
          {
            "duration": 0.034090874999996856,
            "durationTicks": 24,
            "midi": 24,
            "name": "C1",
            "ticks": 33744,
            "time": 47.93177025,
            "velocity": 0.3937007874015748
          },
          {
            "duration": 0.03409087500000396,
            "durationTicks": 24,
            "midi": 36,
            "name": "C2",
            "ticks": 33768,
            "time": 47.965861124999996,
            "velocity": 0.3937007874015748
          },
          {
            "duration": 0.034090874999996856,
            "durationTicks": 24,
            "midi": 39,
            "name": "D#2",
            "ticks": 33792,
            "time": 47.999952,
            "velocity": 0.3937007874015748
          },
          {
            "duration": 0.034090874999996856,
            "durationTicks": 24,
            "midi": 27,
            "name": "D#1",
            "ticks": 33792,
            "time": 47.999952,
            "velocity": 0.3937007874015748
          },
          {
            "duration": 0.034090874999996856,
            "durationTicks": 24,
            "midi": 39,
            "name": "D#2",
            "ticks": 33840,
            "time": 48.06813375,
            "velocity": 0.3937007874015748
          },
          {
            "duration": 0.034090874999996856,
            "durationTicks": 24,
            "midi": 27,
            "name": "D#1",
            "ticks": 33840,
            "time": 48.06813375,
            "velocity": 0.3937007874015748
          },
          {
            "duration": 0.034090874999996856,
            "durationTicks": 24,
            "midi": 27,
            "name": "D#1",
            "ticks": 33888,
            "time": 48.1363155,
            "velocity": 0.3937007874015748
          },
          {
            "duration": 0.034090874999996856,
            "durationTicks": 24,
            "midi": 39,
            "name": "D#2",
            "ticks": 33888,
            "time": 48.1363155,
            "velocity": 0.3937007874015748
          },
          {
            "duration": 0.034090874999996856,
            "durationTicks": 24,
            "midi": 27,
            "name": "D#1",
            "ticks": 33936,
            "time": 48.20449725,
            "velocity": 0.3937007874015748
          },
          {
            "duration": 0.034090874999996856,
            "durationTicks": 24,
            "midi": 39,
            "name": "D#2",
            "ticks": 33936,
            "time": 48.20449725,
            "velocity": 0.3937007874015748
          },
          {
            "duration": 0.03409087500000396,
            "durationTicks": 24,
            "midi": 27,
            "name": "D#1",
            "ticks": 33984,
            "time": 48.272679,
            "velocity": 0.3937007874015748
          },
          {
            "duration": 0.03409087500000396,
            "durationTicks": 24,
            "midi": 39,
            "name": "D#2",
            "ticks": 33984,
            "time": 48.272679,
            "velocity": 0.3937007874015748
          },
          {
            "duration": 0.03409087500000396,
            "durationTicks": 24,
            "midi": 27,
            "name": "D#1",
            "ticks": 34032,
            "time": 48.34086075,
            "velocity": 0.3937007874015748
          },
          {
            "duration": 0.03409087500000396,
            "durationTicks": 24,
            "midi": 39,
            "name": "D#2",
            "ticks": 34032,
            "time": 48.34086075,
            "velocity": 0.3937007874015748
          },
          {
            "duration": 0.03409087500000396,
            "durationTicks": 24,
            "midi": 39,
            "name": "D#2",
            "ticks": 34080,
            "time": 48.4090425,
            "velocity": 0.3937007874015748
          },
          {
            "duration": 0.03409087500000396,
            "durationTicks": 24,
            "midi": 27,
            "name": "D#1",
            "ticks": 34080,
            "time": 48.4090425,
            "velocity": 0.3937007874015748
          },
          {
            "duration": 0.03409087500000396,
            "durationTicks": 24,
            "midi": 27,
            "name": "D#1",
            "ticks": 34128,
            "time": 48.47722425,
            "velocity": 0.3937007874015748
          },
          {
            "duration": 0.03409087500000396,
            "durationTicks": 24,
            "midi": 39,
            "name": "D#2",
            "ticks": 34128,
            "time": 48.47722425,
            "velocity": 0.3937007874015748
          },
          {
            "duration": 0.034090874999996856,
            "durationTicks": 24,
            "midi": 39,
            "name": "D#2",
            "ticks": 34176,
            "time": 48.545406,
            "velocity": 0.3937007874015748
          },
          {
            "duration": 0.034090874999996856,
            "durationTicks": 24,
            "midi": 27,
            "name": "D#1",
            "ticks": 34176,
            "time": 48.545406,
            "velocity": 0.3937007874015748
          },
          {
            "duration": 0.034090874999996856,
            "durationTicks": 24,
            "midi": 27,
            "name": "D#1",
            "ticks": 34224,
            "time": 48.61358775,
            "velocity": 0.3937007874015748
          },
          {
            "duration": 0.034090874999996856,
            "durationTicks": 24,
            "midi": 39,
            "name": "D#2",
            "ticks": 34224,
            "time": 48.61358775,
            "velocity": 0.3937007874015748
          },
          {
            "duration": 0.034090874999996856,
            "durationTicks": 24,
            "midi": 39,
            "name": "D#2",
            "ticks": 34272,
            "time": 48.6817695,
            "velocity": 0.3937007874015748
          },
          {
            "duration": 0.034090874999996856,
            "durationTicks": 24,
            "midi": 27,
            "name": "D#1",
            "ticks": 34272,
            "time": 48.6817695,
            "velocity": 0.3937007874015748
          },
          {
            "duration": 0.034090874999996856,
            "durationTicks": 24,
            "midi": 39,
            "name": "D#2",
            "ticks": 34320,
            "time": 48.74995125,
            "velocity": 0.3937007874015748
          },
          {
            "duration": 0.034090874999996856,
            "durationTicks": 24,
            "midi": 27,
            "name": "D#1",
            "ticks": 34320,
            "time": 48.74995125,
            "velocity": 0.3937007874015748
          },
          {
            "duration": 0.03409087500000396,
            "durationTicks": 24,
            "midi": 36,
            "name": "C2",
            "ticks": 34368,
            "time": 48.818132999999996,
            "velocity": 0.3937007874015748
          },
          {
            "duration": 0.03409087500000396,
            "durationTicks": 24,
            "midi": 24,
            "name": "C1",
            "ticks": 34368,
            "time": 48.818132999999996,
            "velocity": 0.3937007874015748
          },
          {
            "duration": 0.03409087500000396,
            "durationTicks": 24,
            "midi": 24,
            "name": "C1",
            "ticks": 34416,
            "time": 48.88631475,
            "velocity": 0.3937007874015748
          },
          {
            "duration": 0.03409087500000396,
            "durationTicks": 24,
            "midi": 36,
            "name": "C2",
            "ticks": 34416,
            "time": 48.88631475,
            "velocity": 0.3937007874015748
          },
          {
            "duration": 0.03409087500000396,
            "durationTicks": 24,
            "midi": 24,
            "name": "C1",
            "ticks": 34464,
            "time": 48.9544965,
            "velocity": 0.3937007874015748
          },
          {
            "duration": 0.03409087500000396,
            "durationTicks": 24,
            "midi": 36,
            "name": "C2",
            "ticks": 34464,
            "time": 48.9544965,
            "velocity": 0.3937007874015748
          },
          {
            "duration": 0.03409087500000396,
            "durationTicks": 24,
            "midi": 24,
            "name": "C1",
            "ticks": 34512,
            "time": 49.02267825,
            "velocity": 0.3937007874015748
          },
          {
            "duration": 0.03409087500000396,
            "durationTicks": 24,
            "midi": 36,
            "name": "C2",
            "ticks": 34512,
            "time": 49.02267825,
            "velocity": 0.3937007874015748
          },
          {
            "duration": 0.034090874999996856,
            "durationTicks": 24,
            "midi": 36,
            "name": "C2",
            "ticks": 34560,
            "time": 49.09086,
            "velocity": 0.3937007874015748
          },
          {
            "duration": 0.034090874999996856,
            "durationTicks": 24,
            "midi": 24,
            "name": "C1",
            "ticks": 34560,
            "time": 49.09086,
            "velocity": 0.3937007874015748
          },
          {
            "duration": 0.034090874999996856,
            "durationTicks": 24,
            "midi": 36,
            "name": "C2",
            "ticks": 34608,
            "time": 49.15904175,
            "velocity": 0.3937007874015748
          },
          {
            "duration": 0.034090874999996856,
            "durationTicks": 24,
            "midi": 24,
            "name": "C1",
            "ticks": 34608,
            "time": 49.15904175,
            "velocity": 0.3937007874015748
          },
          {
            "duration": 0.034090874999996856,
            "durationTicks": 24,
            "midi": 24,
            "name": "C1",
            "ticks": 34656,
            "time": 49.2272235,
            "velocity": 0.3937007874015748
          },
          {
            "duration": 0.034090874999996856,
            "durationTicks": 24,
            "midi": 36,
            "name": "C2",
            "ticks": 34656,
            "time": 49.2272235,
            "velocity": 0.3937007874015748
          },
          {
            "duration": 0.034090874999996856,
            "durationTicks": 24,
            "midi": 36,
            "name": "C2",
            "ticks": 34704,
            "time": 49.29540525,
            "velocity": 0.3937007874015748
          },
          {
            "duration": 0.034090874999996856,
            "durationTicks": 24,
            "midi": 24,
            "name": "C1",
            "ticks": 34704,
            "time": 49.29540525,
            "velocity": 0.3937007874015748
          },
          {
            "duration": 0.034090874999996856,
            "durationTicks": 24,
            "midi": 36,
            "name": "C2",
            "ticks": 34752,
            "time": 49.363587,
            "velocity": 0.3937007874015748
          },
          {
            "duration": 0.034090874999996856,
            "durationTicks": 24,
            "midi": 24,
            "name": "C1",
            "ticks": 34752,
            "time": 49.363587,
            "velocity": 0.3937007874015748
          },
          {
            "duration": 0.03409087500000396,
            "durationTicks": 24,
            "midi": 36,
            "name": "C2",
            "ticks": 34800,
            "time": 49.431768749999996,
            "velocity": 0.3937007874015748
          },
          {
            "duration": 0.03409087500000396,
            "durationTicks": 24,
            "midi": 24,
            "name": "C1",
            "ticks": 34800,
            "time": 49.431768749999996,
            "velocity": 0.3937007874015748
          },
          {
            "duration": 0.03409087500000396,
            "durationTicks": 24,
            "midi": 36,
            "name": "C2",
            "ticks": 34848,
            "time": 49.4999505,
            "velocity": 0.3937007874015748
          },
          {
            "duration": 0.03409087500000396,
            "durationTicks": 24,
            "midi": 24,
            "name": "C1",
            "ticks": 34848,
            "time": 49.4999505,
            "velocity": 0.3937007874015748
          },
          {
            "duration": 0.03409087500000396,
            "durationTicks": 24,
            "midi": 36,
            "name": "C2",
            "ticks": 34896,
            "time": 49.56813225,
            "velocity": 0.3937007874015748
          },
          {
            "duration": 0.03409087500000396,
            "durationTicks": 24,
            "midi": 24,
            "name": "C1",
            "ticks": 34896,
            "time": 49.56813225,
            "velocity": 0.3937007874015748
          },
          {
            "duration": 0.03409087500000396,
            "durationTicks": 24,
            "midi": 36,
            "name": "C2",
            "ticks": 34944,
            "time": 49.636314,
            "velocity": 0.3937007874015748
          },
          {
            "duration": 0.03409087500000396,
            "durationTicks": 24,
            "midi": 24,
            "name": "C1",
            "ticks": 34944,
            "time": 49.636314,
            "velocity": 0.3937007874015748
          },
          {
            "duration": 0.034090874999996856,
            "durationTicks": 24,
            "midi": 36,
            "name": "C2",
            "ticks": 34992,
            "time": 49.70449575,
            "velocity": 0.3937007874015748
          },
          {
            "duration": 0.034090874999996856,
            "durationTicks": 24,
            "midi": 24,
            "name": "C1",
            "ticks": 34992,
            "time": 49.70449575,
            "velocity": 0.3937007874015748
          },
          {
            "duration": 0.034090874999996856,
            "durationTicks": 24,
            "midi": 24,
            "name": "C1",
            "ticks": 35040,
            "time": 49.7726775,
            "velocity": 0.3937007874015748
          },
          {
            "duration": 0.034090874999996856,
            "durationTicks": 24,
            "midi": 36,
            "name": "C2",
            "ticks": 35040,
            "time": 49.7726775,
            "velocity": 0.3937007874015748
          },
          {
            "duration": 0.034090874999996856,
            "durationTicks": 24,
            "midi": 36,
            "name": "C2",
            "ticks": 35088,
            "time": 49.84085925,
            "velocity": 0.3937007874015748
          },
          {
            "duration": 0.034090874999996856,
            "durationTicks": 24,
            "midi": 24,
            "name": "C1",
            "ticks": 35088,
            "time": 49.84085925,
            "velocity": 0.3937007874015748
          },
          {
            "duration": 0.034090874999996856,
            "durationTicks": 24,
            "midi": 36,
            "name": "C2",
            "ticks": 35136,
            "time": 49.909041,
            "velocity": 0.3937007874015748
          },
          {
            "duration": 0.034090874999996856,
            "durationTicks": 24,
            "midi": 24,
            "name": "C1",
            "ticks": 35136,
            "time": 49.909041,
            "velocity": 0.3937007874015748
          },
          {
            "duration": 0.034090874999996856,
            "durationTicks": 24,
            "midi": 24,
            "name": "C1",
            "ticks": 35184,
            "time": 49.97722275,
            "velocity": 0.3937007874015748
          },
          {
            "duration": 0.034090874999996856,
            "durationTicks": 24,
            "midi": 36,
            "name": "C2",
            "ticks": 35184,
            "time": 49.97722275,
            "velocity": 0.3937007874015748
          },
          {
            "duration": 0.03409087500000396,
            "durationTicks": 24,
            "midi": 36,
            "name": "C2",
            "ticks": 35232,
            "time": 50.0454045,
            "velocity": 0.3937007874015748
          },
          {
            "duration": 0.03409087500000396,
            "durationTicks": 24,
            "midi": 24,
            "name": "C1",
            "ticks": 35232,
            "time": 50.0454045,
            "velocity": 0.3937007874015748
          },
          {
            "duration": 0.03409087500000396,
            "durationTicks": 24,
            "midi": 36,
            "name": "C2",
            "ticks": 35280,
            "time": 50.11358625,
            "velocity": 0.3937007874015748
          },
          {
            "duration": 0.03409087500000396,
            "durationTicks": 24,
            "midi": 24,
            "name": "C1",
            "ticks": 35280,
            "time": 50.11358625,
            "velocity": 0.3937007874015748
          },
          {
            "duration": 0.03409087500000396,
            "durationTicks": 24,
            "midi": 24,
            "name": "C1",
            "ticks": 35328,
            "time": 50.181768,
            "velocity": 0.3937007874015748
          },
          {
            "duration": 0.034090874999996856,
            "durationTicks": 24,
            "midi": 36,
            "name": "C2",
            "ticks": 35352,
            "time": 50.215858875,
            "velocity": 0.3937007874015748
          },
          {
            "duration": 0.03409087500000396,
            "durationTicks": 24,
            "midi": 24,
            "name": "C1",
            "ticks": 35376,
            "time": 50.24994975,
            "velocity": 0.3937007874015748
          },
          {
            "duration": 0.034090874999996856,
            "durationTicks": 24,
            "midi": 36,
            "name": "C2",
            "ticks": 35400,
            "time": 50.284040625,
            "velocity": 0.3937007874015748
          },
          {
            "duration": 0.034090874999996856,
            "durationTicks": 24,
            "midi": 24,
            "name": "C1",
            "ticks": 35424,
            "time": 50.3181315,
            "velocity": 0.3937007874015748
          },
          {
            "duration": 0.03409087500000396,
            "durationTicks": 24,
            "midi": 36,
            "name": "C2",
            "ticks": 35448,
            "time": 50.352222375,
            "velocity": 0.3937007874015748
          },
          {
            "duration": 0.034090874999996856,
            "durationTicks": 24,
            "midi": 24,
            "name": "C1",
            "ticks": 35472,
            "time": 50.38631325,
            "velocity": 0.3937007874015748
          },
          {
            "duration": 0.03409087500000396,
            "durationTicks": 24,
            "midi": 36,
            "name": "C2",
            "ticks": 35496,
            "time": 50.420404125,
            "velocity": 0.3937007874015748
          },
          {
            "duration": 0.034090874999996856,
            "durationTicks": 24,
            "midi": 24,
            "name": "C1",
            "ticks": 35520,
            "time": 50.454495,
            "velocity": 0.3937007874015748
          },
          {
            "duration": 0.03409087500000396,
            "durationTicks": 24,
            "midi": 36,
            "name": "C2",
            "ticks": 35544,
            "time": 50.488585875,
            "velocity": 0.3937007874015748
          },
          {
            "duration": 0.034090874999996856,
            "durationTicks": 24,
            "midi": 24,
            "name": "C1",
            "ticks": 35568,
            "time": 50.52267675,
            "velocity": 0.3937007874015748
          },
          {
            "duration": 0.034090874999996856,
            "durationTicks": 24,
            "midi": 36,
            "name": "C2",
            "ticks": 35592,
            "time": 50.556767625,
            "velocity": 0.3937007874015748
          },
          {
            "duration": 0.03409087500000396,
            "durationTicks": 24,
            "midi": 24,
            "name": "C1",
            "ticks": 35616,
            "time": 50.590858499999996,
            "velocity": 0.3937007874015748
          },
          {
            "duration": 0.034090874999996856,
            "durationTicks": 24,
            "midi": 36,
            "name": "C2",
            "ticks": 35640,
            "time": 50.624949375,
            "velocity": 0.3937007874015748
          },
          {
            "duration": 0.03409087500000396,
            "durationTicks": 24,
            "midi": 24,
            "name": "C1",
            "ticks": 35664,
            "time": 50.65904025,
            "velocity": 0.3937007874015748
          },
          {
            "duration": 0.034090874999996856,
            "durationTicks": 24,
            "midi": 36,
            "name": "C2",
            "ticks": 35688,
            "time": 50.693131125,
            "velocity": 0.3937007874015748
          },
          {
            "duration": 0.03409087500000396,
            "durationTicks": 24,
            "midi": 24,
            "name": "C1",
            "ticks": 35712,
            "time": 50.727222,
            "velocity": 0.3937007874015748
          },
          {
            "duration": 0.034090874999996856,
            "durationTicks": 24,
            "midi": 36,
            "name": "C2",
            "ticks": 35736,
            "time": 50.761312875,
            "velocity": 0.3937007874015748
          },
          {
            "duration": 0.03409087500000396,
            "durationTicks": 24,
            "midi": 24,
            "name": "C1",
            "ticks": 35760,
            "time": 50.79540375,
            "velocity": 0.3937007874015748
          },
          {
            "duration": 0.034090874999996856,
            "durationTicks": 24,
            "midi": 36,
            "name": "C2",
            "ticks": 35784,
            "time": 50.829494625,
            "velocity": 0.3937007874015748
          },
          {
            "duration": 0.034090874999996856,
            "durationTicks": 24,
            "midi": 24,
            "name": "C1",
            "ticks": 35808,
            "time": 50.8635855,
            "velocity": 0.3937007874015748
          },
          {
            "duration": 0.03409087500000396,
            "durationTicks": 24,
            "midi": 36,
            "name": "C2",
            "ticks": 35832,
            "time": 50.897676374999996,
            "velocity": 0.3937007874015748
          },
          {
            "duration": 0.034090874999996856,
            "durationTicks": 24,
            "midi": 24,
            "name": "C1",
            "ticks": 35856,
            "time": 50.93176725,
            "velocity": 0.3937007874015748
          },
          {
            "duration": 0.03409087500000396,
            "durationTicks": 24,
            "midi": 36,
            "name": "C2",
            "ticks": 35880,
            "time": 50.965858125,
            "velocity": 0.3937007874015748
          },
          {
            "duration": 0.034090874999996856,
            "durationTicks": 24,
            "midi": 24,
            "name": "C1",
            "ticks": 35904,
            "time": 50.999949,
            "velocity": 0.3937007874015748
          },
          {
            "duration": 0.03409087500000396,
            "durationTicks": 24,
            "midi": 36,
            "name": "C2",
            "ticks": 35928,
            "time": 51.034039875,
            "velocity": 0.3937007874015748
          },
          {
            "duration": 0.034090874999996856,
            "durationTicks": 24,
            "midi": 24,
            "name": "C1",
            "ticks": 35952,
            "time": 51.06813075,
            "velocity": 0.3937007874015748
          },
          {
            "duration": 0.03409087500000396,
            "durationTicks": 24,
            "midi": 36,
            "name": "C2",
            "ticks": 35976,
            "time": 51.102221625,
            "velocity": 0.3937007874015748
          },
          {
            "duration": 0.034090874999996856,
            "durationTicks": 24,
            "midi": 24,
            "name": "C1",
            "ticks": 36000,
            "time": 51.1363125,
            "velocity": 0.3937007874015748
          },
          {
            "duration": 0.034090874999996856,
            "durationTicks": 24,
            "midi": 36,
            "name": "C2",
            "ticks": 36024,
            "time": 51.170403375,
            "velocity": 0.3937007874015748
          },
          {
            "duration": 0.03409087500000396,
            "durationTicks": 24,
            "midi": 24,
            "name": "C1",
            "ticks": 36048,
            "time": 51.204494249999996,
            "velocity": 0.3937007874015748
          },
          {
            "duration": 0.034090874999996856,
            "durationTicks": 24,
            "midi": 36,
            "name": "C2",
            "ticks": 36072,
            "time": 51.238585125,
            "velocity": 0.3937007874015748
          },
          {
            "duration": 0.03409087500000396,
            "durationTicks": 24,
            "midi": 24,
            "name": "C1",
            "ticks": 36096,
            "time": 51.272676,
            "velocity": 0.3937007874015748
          },
          {
            "duration": 0.034090874999996856,
            "durationTicks": 24,
            "midi": 36,
            "name": "C2",
            "ticks": 36120,
            "time": 51.306766875,
            "velocity": 0.3937007874015748
          },
          {
            "duration": 0.03409087500000396,
            "durationTicks": 24,
            "midi": 24,
            "name": "C1",
            "ticks": 36144,
            "time": 51.34085775,
            "velocity": 0.3937007874015748
          },
          {
            "duration": 0.034090874999996856,
            "durationTicks": 24,
            "midi": 36,
            "name": "C2",
            "ticks": 36168,
            "time": 51.374948625,
            "velocity": 0.3937007874015748
          },
          {
            "duration": 0.03409087500000396,
            "durationTicks": 24,
            "midi": 24,
            "name": "C1",
            "ticks": 36192,
            "time": 51.4090395,
            "velocity": 0.3937007874015748
          },
          {
            "duration": 0.034090874999996856,
            "durationTicks": 24,
            "midi": 36,
            "name": "C2",
            "ticks": 36216,
            "time": 51.443130375,
            "velocity": 0.3937007874015748
          },
          {
            "duration": 0.034090874999996856,
            "durationTicks": 24,
            "midi": 24,
            "name": "C1",
            "ticks": 36240,
            "time": 51.47722125,
            "velocity": 0.3937007874015748
          },
          {
            "duration": 0.03409087500000396,
            "durationTicks": 24,
            "midi": 36,
            "name": "C2",
            "ticks": 36264,
            "time": 51.511312124999996,
            "velocity": 0.3937007874015748
          },
          {
            "duration": 0.034090874999996856,
            "durationTicks": 24,
            "midi": 24,
            "name": "C1",
            "ticks": 36288,
            "time": 51.545403,
            "velocity": 0.3937007874015748
          },
          {
            "duration": 0.03409087500000396,
            "durationTicks": 24,
            "midi": 36,
            "name": "C2",
            "ticks": 36312,
            "time": 51.579493875,
            "velocity": 0.3937007874015748
          },
          {
            "duration": 0.034090874999996856,
            "durationTicks": 24,
            "midi": 24,
            "name": "C1",
            "ticks": 36336,
            "time": 51.61358475,
            "velocity": 0.3937007874015748
          },
          {
            "duration": 0.03409087500000396,
            "durationTicks": 24,
            "midi": 36,
            "name": "C2",
            "ticks": 36360,
            "time": 51.647675625,
            "velocity": 0.3937007874015748
          },
          {
            "duration": 0.034090874999996856,
            "durationTicks": 24,
            "midi": 24,
            "name": "C1",
            "ticks": 36384,
            "time": 51.6817665,
            "velocity": 0.3937007874015748
          },
          {
            "duration": 0.03409087500000396,
            "durationTicks": 24,
            "midi": 36,
            "name": "C2",
            "ticks": 36408,
            "time": 51.715857375,
            "velocity": 0.3937007874015748
          },
          {
            "duration": 0.034090874999996856,
            "durationTicks": 24,
            "midi": 24,
            "name": "C1",
            "ticks": 36432,
            "time": 51.74994825,
            "velocity": 0.3937007874015748
          },
          {
            "duration": 0.034090874999996856,
            "durationTicks": 24,
            "midi": 36,
            "name": "C2",
            "ticks": 36456,
            "time": 51.784039125,
            "velocity": 0.3937007874015748
          },
          {
            "duration": 0.03409087500000396,
            "durationTicks": 24,
            "midi": 24,
            "name": "C1",
            "ticks": 36480,
            "time": 51.81813,
            "velocity": 0.3937007874015748
          },
          {
            "duration": 0.034090874999996856,
            "durationTicks": 24,
            "midi": 36,
            "name": "C2",
            "ticks": 36504,
            "time": 51.852220875,
            "velocity": 0.3937007874015748
          },
          {
            "duration": 0.03409087500000396,
            "durationTicks": 24,
            "midi": 24,
            "name": "C1",
            "ticks": 36528,
            "time": 51.88631175,
            "velocity": 0.3937007874015748
          },
          {
            "duration": 0.034090874999996856,
            "durationTicks": 24,
            "midi": 36,
            "name": "C2",
            "ticks": 36552,
            "time": 51.920402625,
            "velocity": 0.3937007874015748
          },
          {
            "duration": 0.03409087500000396,
            "durationTicks": 24,
            "midi": 24,
            "name": "C1",
            "ticks": 36576,
            "time": 51.9544935,
            "velocity": 0.3937007874015748
          },
          {
            "duration": 0.034090874999996856,
            "durationTicks": 24,
            "midi": 36,
            "name": "C2",
            "ticks": 36600,
            "time": 51.988584375,
            "velocity": 0.3937007874015748
          },
          {
            "duration": 0.03409087500000396,
            "durationTicks": 24,
            "midi": 24,
            "name": "C1",
            "ticks": 36624,
            "time": 52.02267525,
            "velocity": 0.3937007874015748
          },
          {
            "duration": 0.034090874999996856,
            "durationTicks": 24,
            "midi": 36,
            "name": "C2",
            "ticks": 36648,
            "time": 52.056766125,
            "velocity": 0.3937007874015748
          },
          {
            "duration": 0.034090874999996856,
            "durationTicks": 24,
            "midi": 24,
            "name": "C1",
            "ticks": 36672,
            "time": 52.090857,
            "velocity": 0.3937007874015748
          },
          {
            "duration": 0.03409087500000396,
            "durationTicks": 24,
            "midi": 36,
            "name": "C2",
            "ticks": 36696,
            "time": 52.124947875,
            "velocity": 0.3937007874015748
          },
          {
            "duration": 0.034090874999996856,
            "durationTicks": 24,
            "midi": 24,
            "name": "C1",
            "ticks": 36720,
            "time": 52.15903875,
            "velocity": 0.3937007874015748
          },
          {
            "duration": 0.03409087500000396,
            "durationTicks": 24,
            "midi": 36,
            "name": "C2",
            "ticks": 36744,
            "time": 52.193129625,
            "velocity": 0.3937007874015748
          },
          {
            "duration": 0.034090874999996856,
            "durationTicks": 24,
            "midi": 24,
            "name": "C1",
            "ticks": 36768,
            "time": 52.2272205,
            "velocity": 0.3937007874015748
          },
          {
            "duration": 0.03409087500000396,
            "durationTicks": 24,
            "midi": 36,
            "name": "C2",
            "ticks": 36792,
            "time": 52.261311375,
            "velocity": 0.3937007874015748
          },
          {
            "duration": 0.034090874999996856,
            "durationTicks": 24,
            "midi": 24,
            "name": "C1",
            "ticks": 36816,
            "time": 52.29540225,
            "velocity": 0.3937007874015748
          },
          {
            "duration": 0.03409087500000396,
            "durationTicks": 24,
            "midi": 36,
            "name": "C2",
            "ticks": 36840,
            "time": 52.329493125,
            "velocity": 0.3937007874015748
          },
          {
            "duration": 0.034090874999996856,
            "durationTicks": 24,
            "midi": 27,
            "name": "D#1",
            "ticks": 36864,
            "time": 52.363584,
            "velocity": 0.3937007874015748
          },
          {
            "duration": 0.034090874999996856,
            "durationTicks": 24,
            "midi": 39,
            "name": "D#2",
            "ticks": 36864,
            "time": 52.363584,
            "velocity": 0.3937007874015748
          },
          {
            "duration": 0.03409087500000396,
            "durationTicks": 24,
            "midi": 39,
            "name": "D#2",
            "ticks": 36912,
            "time": 52.43176575,
            "velocity": 0.3937007874015748
          },
          {
            "duration": 0.03409087500000396,
            "durationTicks": 24,
            "midi": 27,
            "name": "D#1",
            "ticks": 36912,
            "time": 52.43176575,
            "velocity": 0.3937007874015748
          },
          {
            "duration": 0.03409087500000396,
            "durationTicks": 24,
            "midi": 39,
            "name": "D#2",
            "ticks": 36960,
            "time": 52.4999475,
            "velocity": 0.3937007874015748
          },
          {
            "duration": 0.03409087500000396,
            "durationTicks": 24,
            "midi": 27,
            "name": "D#1",
            "ticks": 36960,
            "time": 52.4999475,
            "velocity": 0.3937007874015748
          },
          {
            "duration": 0.03409087500000396,
            "durationTicks": 24,
            "midi": 27,
            "name": "D#1",
            "ticks": 37008,
            "time": 52.56812925,
            "velocity": 0.3937007874015748
          },
          {
            "duration": 0.03409087500000396,
            "durationTicks": 24,
            "midi": 39,
            "name": "D#2",
            "ticks": 37008,
            "time": 52.56812925,
            "velocity": 0.3937007874015748
          },
          {
            "duration": 0.034090874999996856,
            "durationTicks": 24,
            "midi": 27,
            "name": "D#1",
            "ticks": 37056,
            "time": 52.636311,
            "velocity": 0.3937007874015748
          },
          {
            "duration": 0.034090874999996856,
            "durationTicks": 24,
            "midi": 39,
            "name": "D#2",
            "ticks": 37056,
            "time": 52.636311,
            "velocity": 0.3937007874015748
          },
          {
            "duration": 0.034090874999996856,
            "durationTicks": 24,
            "midi": 27,
            "name": "D#1",
            "ticks": 37104,
            "time": 52.70449275,
            "velocity": 0.3937007874015748
          },
          {
            "duration": 0.034090874999996856,
            "durationTicks": 24,
            "midi": 39,
            "name": "D#2",
            "ticks": 37104,
            "time": 52.70449275,
            "velocity": 0.3937007874015748
          },
          {
            "duration": 0.034090874999996856,
            "durationTicks": 24,
            "midi": 39,
            "name": "D#2",
            "ticks": 37152,
            "time": 52.7726745,
            "velocity": 0.3937007874015748
          },
          {
            "duration": 0.034090874999996856,
            "durationTicks": 24,
            "midi": 27,
            "name": "D#1",
            "ticks": 37152,
            "time": 52.7726745,
            "velocity": 0.3937007874015748
          },
          {
            "duration": 0.034090874999996856,
            "durationTicks": 24,
            "midi": 39,
            "name": "D#2",
            "ticks": 37200,
            "time": 52.84085625,
            "velocity": 0.3937007874015748
          },
          {
            "duration": 0.034090874999996856,
            "durationTicks": 24,
            "midi": 27,
            "name": "D#1",
            "ticks": 37200,
            "time": 52.84085625,
            "velocity": 0.3937007874015748
          },
          {
            "duration": 0.034090874999996856,
            "durationTicks": 24,
            "midi": 27,
            "name": "D#1",
            "ticks": 37248,
            "time": 52.909038,
            "velocity": 0.3937007874015748
          },
          {
            "duration": 0.034090874999996856,
            "durationTicks": 24,
            "midi": 39,
            "name": "D#2",
            "ticks": 37248,
            "time": 52.909038,
            "velocity": 0.3937007874015748
          },
          {
            "duration": 0.03409087500000396,
            "durationTicks": 24,
            "midi": 27,
            "name": "D#1",
            "ticks": 37296,
            "time": 52.977219749999996,
            "velocity": 0.3937007874015748
          },
          {
            "duration": 0.03409087500000396,
            "durationTicks": 24,
            "midi": 39,
            "name": "D#2",
            "ticks": 37296,
            "time": 52.977219749999996,
            "velocity": 0.3937007874015748
          },
          {
            "duration": 0.03409087500000396,
            "durationTicks": 24,
            "midi": 27,
            "name": "D#1",
            "ticks": 37344,
            "time": 53.0454015,
            "velocity": 0.3937007874015748
          },
          {
            "duration": 0.03409087500000396,
            "durationTicks": 24,
            "midi": 39,
            "name": "D#2",
            "ticks": 37344,
            "time": 53.0454015,
            "velocity": 0.3937007874015748
          },
          {
            "duration": 0.03409087500000396,
            "durationTicks": 24,
            "midi": 27,
            "name": "D#1",
            "ticks": 37392,
            "time": 53.11358325,
            "velocity": 0.3937007874015748
          },
          {
            "duration": 0.03409087500000396,
            "durationTicks": 24,
            "midi": 39,
            "name": "D#2",
            "ticks": 37392,
            "time": 53.11358325,
            "velocity": 0.3937007874015748
          },
          {
            "duration": 0.03409087500000396,
            "durationTicks": 24,
            "midi": 24,
            "name": "C1",
            "ticks": 37440,
            "time": 53.181765,
            "velocity": 0.3937007874015748
          },
          {
            "duration": 0.03409087500000396,
            "durationTicks": 24,
            "midi": 36,
            "name": "C2",
            "ticks": 37440,
            "time": 53.181765,
            "velocity": 0.3937007874015748
          },
          {
            "duration": 0.034090874999996856,
            "durationTicks": 24,
            "midi": 36,
            "name": "C2",
            "ticks": 37488,
            "time": 53.24994675,
            "velocity": 0.3937007874015748
          },
          {
            "duration": 0.034090874999996856,
            "durationTicks": 24,
            "midi": 24,
            "name": "C1",
            "ticks": 37488,
            "time": 53.24994675,
            "velocity": 0.3937007874015748
          },
          {
            "duration": 0.034090874999996856,
            "durationTicks": 24,
            "midi": 24,
            "name": "C1",
            "ticks": 37536,
            "time": 53.3181285,
            "velocity": 0.3937007874015748
          },
          {
            "duration": 0.034090874999996856,
            "durationTicks": 24,
            "midi": 36,
            "name": "C2",
            "ticks": 37536,
            "time": 53.3181285,
            "velocity": 0.3937007874015748
          },
          {
            "duration": 0.034090874999996856,
            "durationTicks": 24,
            "midi": 36,
            "name": "C2",
            "ticks": 37584,
            "time": 53.38631025,
            "velocity": 0.3937007874015748
          },
          {
            "duration": 0.034090874999996856,
            "durationTicks": 24,
            "midi": 24,
            "name": "C1",
            "ticks": 37584,
            "time": 53.38631025,
            "velocity": 0.3937007874015748
          },
          {
            "duration": 0.034090874999996856,
            "durationTicks": 24,
            "midi": 36,
            "name": "C2",
            "ticks": 37632,
            "time": 53.454492,
            "velocity": 0.3937007874015748
          },
          {
            "duration": 0.034090874999996856,
            "durationTicks": 24,
            "midi": 24,
            "name": "C1",
            "ticks": 37632,
            "time": 53.454492,
            "velocity": 0.3937007874015748
          },
          {
            "duration": 0.034090874999996856,
            "durationTicks": 24,
            "midi": 24,
            "name": "C1",
            "ticks": 37680,
            "time": 53.52267375,
            "velocity": 0.3937007874015748
          },
          {
            "duration": 0.034090874999996856,
            "durationTicks": 24,
            "midi": 36,
            "name": "C2",
            "ticks": 37680,
            "time": 53.52267375,
            "velocity": 0.3937007874015748
          },
          {
            "duration": 0.03409087500000396,
            "durationTicks": 24,
            "midi": 24,
            "name": "C1",
            "ticks": 37728,
            "time": 53.590855499999996,
            "velocity": 0.3937007874015748
          },
          {
            "duration": 0.03409087500000396,
            "durationTicks": 24,
            "midi": 36,
            "name": "C2",
            "ticks": 37728,
            "time": 53.590855499999996,
            "velocity": 0.3937007874015748
          },
          {
            "duration": 0.03409087500000396,
            "durationTicks": 24,
            "midi": 24,
            "name": "C1",
            "ticks": 37776,
            "time": 53.65903725,
            "velocity": 0.3937007874015748
          },
          {
            "duration": 0.03409087500000396,
            "durationTicks": 24,
            "midi": 36,
            "name": "C2",
            "ticks": 37776,
            "time": 53.65903725,
            "velocity": 0.3937007874015748
          },
          {
            "duration": 0.03409087500000396,
            "durationTicks": 24,
            "midi": 36,
            "name": "C2",
            "ticks": 37824,
            "time": 53.727219,
            "velocity": 0.3937007874015748
          },
          {
            "duration": 0.03409087500000396,
            "durationTicks": 24,
            "midi": 24,
            "name": "C1",
            "ticks": 37824,
            "time": 53.727219,
            "velocity": 0.3937007874015748
          },
          {
            "duration": 0.03409087500000396,
            "durationTicks": 24,
            "midi": 24,
            "name": "C1",
            "ticks": 37872,
            "time": 53.79540075,
            "velocity": 0.3937007874015748
          },
          {
            "duration": 0.03409087500000396,
            "durationTicks": 24,
            "midi": 36,
            "name": "C2",
            "ticks": 37872,
            "time": 53.79540075,
            "velocity": 0.3937007874015748
          },
          {
            "duration": 0.034090874999996856,
            "durationTicks": 24,
            "midi": 36,
            "name": "C2",
            "ticks": 37920,
            "time": 53.8635825,
            "velocity": 0.3937007874015748
          },
          {
            "duration": 0.034090874999996856,
            "durationTicks": 24,
            "midi": 24,
            "name": "C1",
            "ticks": 37920,
            "time": 53.8635825,
            "velocity": 0.3937007874015748
          },
          {
            "duration": 0.034090874999996856,
            "durationTicks": 24,
            "midi": 24,
            "name": "C1",
            "ticks": 37968,
            "time": 53.93176425,
            "velocity": 0.3937007874015748
          },
          {
            "duration": 0.034090874999996856,
            "durationTicks": 24,
            "midi": 36,
            "name": "C2",
            "ticks": 37968,
            "time": 53.93176425,
            "velocity": 0.3937007874015748
          },
          {
            "duration": 0.034090874999996856,
            "durationTicks": 24,
            "midi": 24,
            "name": "C1",
            "ticks": 38016,
            "time": 53.999946,
            "velocity": 0.3937007874015748
          },
          {
            "duration": 0.034090874999996856,
            "durationTicks": 24,
            "midi": 36,
            "name": "C2",
            "ticks": 38016,
            "time": 53.999946,
            "velocity": 0.3937007874015748
          },
          {
            "duration": 0.034090874999996856,
            "durationTicks": 24,
            "midi": 24,
            "name": "C1",
            "ticks": 38064,
            "time": 54.06812775,
            "velocity": 0.3937007874015748
          },
          {
            "duration": 0.034090874999996856,
            "durationTicks": 24,
            "midi": 36,
            "name": "C2",
            "ticks": 38064,
            "time": 54.06812775,
            "velocity": 0.3937007874015748
          },
          {
            "duration": 0.034090874999996856,
            "durationTicks": 24,
            "midi": 36,
            "name": "C2",
            "ticks": 38112,
            "time": 54.1363095,
            "velocity": 0.3937007874015748
          },
          {
            "duration": 0.034090874999996856,
            "durationTicks": 24,
            "midi": 24,
            "name": "C1",
            "ticks": 38112,
            "time": 54.1363095,
            "velocity": 0.3937007874015748
          },
          {
            "duration": 0.03409087500000396,
            "durationTicks": 24,
            "midi": 36,
            "name": "C2",
            "ticks": 38160,
            "time": 54.20449125,
            "velocity": 0.3937007874015748
          },
          {
            "duration": 0.03409087500000396,
            "durationTicks": 24,
            "midi": 24,
            "name": "C1",
            "ticks": 38160,
            "time": 54.20449125,
            "velocity": 0.3937007874015748
          },
          {
            "duration": 0.03409087500000396,
            "durationTicks": 24,
            "midi": 24,
            "name": "C1",
            "ticks": 38208,
            "time": 54.272673,
            "velocity": 0.3937007874015748
          },
          {
            "duration": 0.03409087500000396,
            "durationTicks": 24,
            "midi": 36,
            "name": "C2",
            "ticks": 38208,
            "time": 54.272673,
            "velocity": 0.3937007874015748
          },
          {
            "duration": 0.03409087500000396,
            "durationTicks": 24,
            "midi": 36,
            "name": "C2",
            "ticks": 38256,
            "time": 54.34085475,
            "velocity": 0.3937007874015748
          },
          {
            "duration": 0.03409087500000396,
            "durationTicks": 24,
            "midi": 24,
            "name": "C1",
            "ticks": 38256,
            "time": 54.34085475,
            "velocity": 0.3937007874015748
          },
          {
            "duration": 0.034090874999996856,
            "durationTicks": 24,
            "midi": 36,
            "name": "C2",
            "ticks": 38304,
            "time": 54.4090365,
            "velocity": 0.3937007874015748
          },
          {
            "duration": 0.034090874999996856,
            "durationTicks": 24,
            "midi": 24,
            "name": "C1",
            "ticks": 38304,
            "time": 54.4090365,
            "velocity": 0.3937007874015748
          },
          {
            "duration": 0.034090874999996856,
            "durationTicks": 24,
            "midi": 24,
            "name": "C1",
            "ticks": 38352,
            "time": 54.47721825,
            "velocity": 0.3937007874015748
          },
          {
            "duration": 0.034090874999996856,
            "durationTicks": 24,
            "midi": 36,
            "name": "C2",
            "ticks": 38352,
            "time": 54.47721825,
            "velocity": 0.3937007874015748
          },
          {
            "duration": 0.034090874999996856,
            "durationTicks": 24,
            "midi": 24,
            "name": "C1",
            "ticks": 38400,
            "time": 54.5454,
            "velocity": 0.3937007874015748
          },
          {
            "duration": 0.03409087500000396,
            "durationTicks": 24,
            "midi": 36,
            "name": "C2",
            "ticks": 38424,
            "time": 54.579490875,
            "velocity": 0.3937007874015748
          },
          {
            "duration": 0.034090874999996856,
            "durationTicks": 24,
            "midi": 24,
            "name": "C1",
            "ticks": 38448,
            "time": 54.61358175,
            "velocity": 0.3937007874015748
          },
          {
            "duration": 0.03409087500000396,
            "durationTicks": 24,
            "midi": 36,
            "name": "C2",
            "ticks": 38472,
            "time": 54.647672625,
            "velocity": 0.3937007874015748
          },
          {
            "duration": 0.034090874999996856,
            "durationTicks": 24,
            "midi": 24,
            "name": "C1",
            "ticks": 38496,
            "time": 54.6817635,
            "velocity": 0.3937007874015748
          },
          {
            "duration": 0.034090874999996856,
            "durationTicks": 24,
            "midi": 36,
            "name": "C2",
            "ticks": 38520,
            "time": 54.715854375,
            "velocity": 0.3937007874015748
          },
          {
            "duration": 0.03409087500000396,
            "durationTicks": 24,
            "midi": 24,
            "name": "C1",
            "ticks": 38544,
            "time": 54.749945249999996,
            "velocity": 0.3937007874015748
          },
          {
            "duration": 0.034090874999996856,
            "durationTicks": 24,
            "midi": 36,
            "name": "C2",
            "ticks": 38568,
            "time": 54.784036125,
            "velocity": 0.3937007874015748
          },
          {
            "duration": 0.03409087500000396,
            "durationTicks": 24,
            "midi": 24,
            "name": "C1",
            "ticks": 38592,
            "time": 54.818127,
            "velocity": 0.3937007874015748
          },
          {
            "duration": 0.034090874999996856,
            "durationTicks": 24,
            "midi": 36,
            "name": "C2",
            "ticks": 38616,
            "time": 54.852217875,
            "velocity": 0.3937007874015748
          },
          {
            "duration": 0.03409087500000396,
            "durationTicks": 24,
            "midi": 24,
            "name": "C1",
            "ticks": 38640,
            "time": 54.88630875,
            "velocity": 0.3937007874015748
          },
          {
            "duration": 0.034090874999996856,
            "durationTicks": 24,
            "midi": 36,
            "name": "C2",
            "ticks": 38664,
            "time": 54.920399625,
            "velocity": 0.3937007874015748
          },
          {
            "duration": 0.03409087500000396,
            "durationTicks": 24,
            "midi": 24,
            "name": "C1",
            "ticks": 38688,
            "time": 54.9544905,
            "velocity": 0.3937007874015748
          },
          {
            "duration": 0.034090874999996856,
            "durationTicks": 24,
            "midi": 36,
            "name": "C2",
            "ticks": 38712,
            "time": 54.988581375,
            "velocity": 0.3937007874015748
          },
          {
            "duration": 0.034090874999996856,
            "durationTicks": 24,
            "midi": 24,
            "name": "C1",
            "ticks": 38736,
            "time": 55.02267225,
            "velocity": 0.3937007874015748
          },
          {
            "duration": 0.03409087500000396,
            "durationTicks": 24,
            "midi": 36,
            "name": "C2",
            "ticks": 38760,
            "time": 55.056763124999996,
            "velocity": 0.3937007874015748
          },
          {
            "duration": 0.034090874999996856,
            "durationTicks": 24,
            "midi": 24,
            "name": "C1",
            "ticks": 38784,
            "time": 55.090854,
            "velocity": 0.3937007874015748
          },
          {
            "duration": 0.03409087500000396,
            "durationTicks": 24,
            "midi": 36,
            "name": "C2",
            "ticks": 38808,
            "time": 55.124944875,
            "velocity": 0.3937007874015748
          },
          {
            "duration": 0.034090874999996856,
            "durationTicks": 24,
            "midi": 24,
            "name": "C1",
            "ticks": 38832,
            "time": 55.15903575,
            "velocity": 0.3937007874015748
          },
          {
            "duration": 0.03409087500000396,
            "durationTicks": 24,
            "midi": 36,
            "name": "C2",
            "ticks": 38856,
            "time": 55.193126625,
            "velocity": 0.3937007874015748
          },
          {
            "duration": 0.034090874999996856,
            "durationTicks": 24,
            "midi": 24,
            "name": "C1",
            "ticks": 38880,
            "time": 55.2272175,
            "velocity": 0.3937007874015748
          },
          {
            "duration": 0.03409087500000396,
            "durationTicks": 24,
            "midi": 36,
            "name": "C2",
            "ticks": 38904,
            "time": 55.261308375,
            "velocity": 0.3937007874015748
          },
          {
            "duration": 0.034090874999996856,
            "durationTicks": 24,
            "midi": 24,
            "name": "C1",
            "ticks": 38928,
            "time": 55.29539925,
            "velocity": 0.3937007874015748
          },
          {
            "duration": 0.034090874999996856,
            "durationTicks": 24,
            "midi": 36,
            "name": "C2",
            "ticks": 38952,
            "time": 55.329490125,
            "velocity": 0.3937007874015748
          },
          {
            "duration": 0.03409087500000396,
            "durationTicks": 24,
            "midi": 24,
            "name": "C1",
            "ticks": 38976,
            "time": 55.363580999999996,
            "velocity": 0.3937007874015748
          },
          {
            "duration": 0.034090874999996856,
            "durationTicks": 24,
            "midi": 36,
            "name": "C2",
            "ticks": 39000,
            "time": 55.397671875,
            "velocity": 0.3937007874015748
          },
          {
            "duration": 0.03409087500000396,
            "durationTicks": 24,
            "midi": 24,
            "name": "C1",
            "ticks": 39024,
            "time": 55.43176275,
            "velocity": 0.3937007874015748
          },
          {
            "duration": 0.034090874999996856,
            "durationTicks": 24,
            "midi": 36,
            "name": "C2",
            "ticks": 39048,
            "time": 55.465853625,
            "velocity": 0.3937007874015748
          },
          {
            "duration": 0.03409087500000396,
            "durationTicks": 24,
            "midi": 24,
            "name": "C1",
            "ticks": 39072,
            "time": 55.4999445,
            "velocity": 0.3937007874015748
          },
          {
            "duration": 0.034090874999996856,
            "durationTicks": 24,
            "midi": 36,
            "name": "C2",
            "ticks": 39096,
            "time": 55.534035375,
            "velocity": 0.3937007874015748
          },
          {
            "duration": 0.03409087500000396,
            "durationTicks": 24,
            "midi": 24,
            "name": "C1",
            "ticks": 39120,
            "time": 55.56812625,
            "velocity": 0.3937007874015748
          },
          {
            "duration": 0.034090874999996856,
            "durationTicks": 24,
            "midi": 36,
            "name": "C2",
            "ticks": 39144,
            "time": 55.602217125,
            "velocity": 0.3937007874015748
          },
          {
            "duration": 0.034090874999996856,
            "durationTicks": 24,
            "midi": 24,
            "name": "C1",
            "ticks": 39168,
            "time": 55.636308,
            "velocity": 0.3937007874015748
          },
          {
            "duration": 0.03409087500000396,
            "durationTicks": 24,
            "midi": 36,
            "name": "C2",
            "ticks": 39192,
            "time": 55.670398875,
            "velocity": 0.3937007874015748
          },
          {
            "duration": 0.034090874999996856,
            "durationTicks": 24,
            "midi": 24,
            "name": "C1",
            "ticks": 39216,
            "time": 55.70448975,
            "velocity": 0.3937007874015748
          },
          {
            "duration": 0.03409087500000396,
            "durationTicks": 24,
            "midi": 36,
            "name": "C2",
            "ticks": 39240,
            "time": 55.738580625,
            "velocity": 0.3937007874015748
          },
          {
            "duration": 0.034090874999996856,
            "durationTicks": 24,
            "midi": 24,
            "name": "C1",
            "ticks": 39264,
            "time": 55.7726715,
            "velocity": 0.3937007874015748
          },
          {
            "duration": 0.03409087500000396,
            "durationTicks": 24,
            "midi": 36,
            "name": "C2",
            "ticks": 39288,
            "time": 55.806762375,
            "velocity": 0.3937007874015748
          },
          {
            "duration": 0.034090874999996856,
            "durationTicks": 24,
            "midi": 24,
            "name": "C1",
            "ticks": 39312,
            "time": 55.84085325,
            "velocity": 0.3937007874015748
          },
          {
            "duration": 0.03409087500000396,
            "durationTicks": 24,
            "midi": 36,
            "name": "C2",
            "ticks": 39336,
            "time": 55.874944125,
            "velocity": 0.3937007874015748
          },
          {
            "duration": 0.034090874999996856,
            "durationTicks": 24,
            "midi": 24,
            "name": "C1",
            "ticks": 39360,
            "time": 55.909035,
            "velocity": 0.3937007874015748
          },
          {
            "duration": 0.034090874999996856,
            "durationTicks": 24,
            "midi": 36,
            "name": "C2",
            "ticks": 39384,
            "time": 55.943125875,
            "velocity": 0.3937007874015748
          },
          {
            "duration": 0.03409087500000396,
            "durationTicks": 24,
            "midi": 24,
            "name": "C1",
            "ticks": 39408,
            "time": 55.97721675,
            "velocity": 0.3937007874015748
          },
          {
            "duration": 0.034090874999996856,
            "durationTicks": 24,
            "midi": 36,
            "name": "C2",
            "ticks": 39432,
            "time": 56.011307625,
            "velocity": 0.3937007874015748
          },
          {
            "duration": 0.03409087500000396,
            "durationTicks": 24,
            "midi": 24,
            "name": "C1",
            "ticks": 39456,
            "time": 56.0453985,
            "velocity": 0.3937007874015748
          },
          {
            "duration": 0.034090874999996856,
            "durationTicks": 24,
            "midi": 36,
            "name": "C2",
            "ticks": 39480,
            "time": 56.079489375,
            "velocity": 0.3937007874015748
          },
          {
            "duration": 0.03409087500000396,
            "durationTicks": 24,
            "midi": 24,
            "name": "C1",
            "ticks": 39504,
            "time": 56.11358025,
            "velocity": 0.3937007874015748
          },
          {
            "duration": 0.034090874999996856,
            "durationTicks": 24,
            "midi": 36,
            "name": "C2",
            "ticks": 39528,
            "time": 56.147671125,
            "velocity": 0.3937007874015748
          },
          {
            "duration": 0.034090874999996856,
            "durationTicks": 24,
            "midi": 24,
            "name": "C1",
            "ticks": 39552,
            "time": 56.181762,
            "velocity": 0.3937007874015748
          },
          {
            "duration": 0.03409087500000396,
            "durationTicks": 24,
            "midi": 36,
            "name": "C2",
            "ticks": 39576,
            "time": 56.215852874999996,
            "velocity": 0.3937007874015748
          },
          {
            "duration": 0.034090874999996856,
            "durationTicks": 24,
            "midi": 24,
            "name": "C1",
            "ticks": 39600,
            "time": 56.24994375,
            "velocity": 0.3937007874015748
          },
          {
            "duration": 0.03409087500000396,
            "durationTicks": 24,
            "midi": 36,
            "name": "C2",
            "ticks": 39624,
            "time": 56.284034625,
            "velocity": 0.3937007874015748
          },
          {
            "duration": 0.034090874999996856,
            "durationTicks": 24,
            "midi": 24,
            "name": "C1",
            "ticks": 39648,
            "time": 56.3181255,
            "velocity": 0.3937007874015748
          },
          {
            "duration": 0.03409087500000396,
            "durationTicks": 24,
            "midi": 36,
            "name": "C2",
            "ticks": 39672,
            "time": 56.352216375,
            "velocity": 0.3937007874015748
          },
          {
            "duration": 0.034090874999996856,
            "durationTicks": 24,
            "midi": 24,
            "name": "C1",
            "ticks": 39696,
            "time": 56.38630725,
            "velocity": 0.3937007874015748
          },
          {
            "duration": 0.03409087500000396,
            "durationTicks": 24,
            "midi": 36,
            "name": "C2",
            "ticks": 39720,
            "time": 56.420398125,
            "velocity": 0.3937007874015748
          },
          {
            "duration": 0.034090874999996856,
            "durationTicks": 24,
            "midi": 24,
            "name": "C1",
            "ticks": 39744,
            "time": 56.454489,
            "velocity": 0.3937007874015748
          },
          {
            "duration": 0.034090874999996856,
            "durationTicks": 24,
            "midi": 36,
            "name": "C2",
            "ticks": 39768,
            "time": 56.488579875,
            "velocity": 0.3937007874015748
          },
          {
            "duration": 0.03409087500000396,
            "durationTicks": 24,
            "midi": 24,
            "name": "C1",
            "ticks": 39792,
            "time": 56.522670749999996,
            "velocity": 0.3937007874015748
          },
          {
            "duration": 0.034090874999996856,
            "durationTicks": 24,
            "midi": 36,
            "name": "C2",
            "ticks": 39816,
            "time": 56.556761625,
            "velocity": 0.3937007874015748
          },
          {
            "duration": 0.03409087500000396,
            "durationTicks": 24,
            "midi": 24,
            "name": "C1",
            "ticks": 39840,
            "time": 56.5908525,
            "velocity": 0.3937007874015748
          },
          {
            "duration": 0.034090874999996856,
            "durationTicks": 24,
            "midi": 36,
            "name": "C2",
            "ticks": 39864,
            "time": 56.624943375,
            "velocity": 0.3937007874015748
          },
          {
            "duration": 0.03409087500000396,
            "durationTicks": 24,
            "midi": 24,
            "name": "C1",
            "ticks": 39888,
            "time": 56.65903425,
            "velocity": 0.3937007874015748
          },
          {
            "duration": 0.034090874999996856,
            "durationTicks": 24,
            "midi": 36,
            "name": "C2",
            "ticks": 39912,
            "time": 56.693125125,
            "velocity": 0.3937007874015748
          },
          {
            "duration": 0.03409087500000396,
            "durationTicks": 24,
            "midi": 39,
            "name": "D#2",
            "ticks": 39936,
            "time": 56.727216,
            "velocity": 0.3937007874015748
          },
          {
            "duration": 0.03409087500000396,
            "durationTicks": 24,
            "midi": 27,
            "name": "D#1",
            "ticks": 39936,
            "time": 56.727216,
            "velocity": 0.3937007874015748
          },
          {
            "duration": 0.034090874999996856,
            "durationTicks": 24,
            "midi": 39,
            "name": "D#2",
            "ticks": 39984,
            "time": 56.79539775,
            "velocity": 0.3937007874015748
          },
          {
            "duration": 0.034090874999996856,
            "durationTicks": 24,
            "midi": 27,
            "name": "D#1",
            "ticks": 39984,
            "time": 56.79539775,
            "velocity": 0.3937007874015748
          },
          {
            "duration": 0.034090874999996856,
            "durationTicks": 24,
            "midi": 39,
            "name": "D#2",
            "ticks": 40032,
            "time": 56.8635795,
            "velocity": 0.3937007874015748
          },
          {
            "duration": 0.034090874999996856,
            "durationTicks": 24,
            "midi": 27,
            "name": "D#1",
            "ticks": 40032,
            "time": 56.8635795,
            "velocity": 0.3937007874015748
          },
          {
            "duration": 0.034090874999996856,
            "durationTicks": 24,
            "midi": 27,
            "name": "D#1",
            "ticks": 40080,
            "time": 56.93176125,
            "velocity": 0.3937007874015748
          },
          {
            "duration": 0.034090874999996856,
            "durationTicks": 24,
            "midi": 39,
            "name": "D#2",
            "ticks": 40080,
            "time": 56.93176125,
            "velocity": 0.3937007874015748
          },
          {
            "duration": 0.034090874999996856,
            "durationTicks": 24,
            "midi": 27,
            "name": "D#1",
            "ticks": 40128,
            "time": 56.999943,
            "velocity": 0.3937007874015748
          },
          {
            "duration": 0.034090874999996856,
            "durationTicks": 24,
            "midi": 39,
            "name": "D#2",
            "ticks": 40128,
            "time": 56.999943,
            "velocity": 0.3937007874015748
          },
          {
            "duration": 0.034090874999996856,
            "durationTicks": 24,
            "midi": 27,
            "name": "D#1",
            "ticks": 40176,
            "time": 57.06812475,
            "velocity": 0.3937007874015748
          },
          {
            "duration": 0.034090874999996856,
            "durationTicks": 24,
            "midi": 39,
            "name": "D#2",
            "ticks": 40176,
            "time": 57.06812475,
            "velocity": 0.3937007874015748
          },
          {
            "duration": 0.03409087500000396,
            "durationTicks": 24,
            "midi": 39,
            "name": "D#2",
            "ticks": 40224,
            "time": 57.136306499999996,
            "velocity": 0.3937007874015748
          },
          {
            "duration": 0.03409087500000396,
            "durationTicks": 24,
            "midi": 27,
            "name": "D#1",
            "ticks": 40224,
            "time": 57.136306499999996,
            "velocity": 0.3937007874015748
          },
          {
            "duration": 0.03409087500000396,
            "durationTicks": 24,
            "midi": 39,
            "name": "D#2",
            "ticks": 40272,
            "time": 57.20448825,
            "velocity": 0.3937007874015748
          },
          {
            "duration": 0.03409087500000396,
            "durationTicks": 24,
            "midi": 27,
            "name": "D#1",
            "ticks": 40272,
            "time": 57.20448825,
            "velocity": 0.3937007874015748
          },
          {
            "duration": 0.03409087500000396,
            "durationTicks": 24,
            "midi": 39,
            "name": "D#2",
            "ticks": 40320,
            "time": 57.27267,
            "velocity": 0.3937007874015748
          },
          {
            "duration": 0.03409087500000396,
            "durationTicks": 24,
            "midi": 27,
            "name": "D#1",
            "ticks": 40320,
            "time": 57.27267,
            "velocity": 0.3937007874015748
          },
          {
            "duration": 0.03409087500000396,
            "durationTicks": 24,
            "midi": 39,
            "name": "D#2",
            "ticks": 40368,
            "time": 57.34085175,
            "velocity": 0.3937007874015748
          },
          {
            "duration": 0.03409087500000396,
            "durationTicks": 24,
            "midi": 27,
            "name": "D#1",
            "ticks": 40368,
            "time": 57.34085175,
            "velocity": 0.3937007874015748
          },
          {
            "duration": 0.034090874999996856,
            "durationTicks": 24,
            "midi": 27,
            "name": "D#1",
            "ticks": 40416,
            "time": 57.4090335,
            "velocity": 0.3937007874015748
          },
          {
            "duration": 0.034090874999996856,
            "durationTicks": 24,
            "midi": 39,
            "name": "D#2",
            "ticks": 40416,
            "time": 57.4090335,
            "velocity": 0.3937007874015748
          },
          {
            "duration": 0.034090874999996856,
            "durationTicks": 24,
            "midi": 27,
            "name": "D#1",
            "ticks": 40464,
            "time": 57.47721525,
            "velocity": 0.3937007874015748
          },
          {
            "duration": 0.034090874999996856,
            "durationTicks": 24,
            "midi": 39,
            "name": "D#2",
            "ticks": 40464,
            "time": 57.47721525,
            "velocity": 0.3937007874015748
          },
          {
            "duration": 0.034090874999996856,
            "durationTicks": 24,
            "midi": 36,
            "name": "C2",
            "ticks": 40512,
            "time": 57.545397,
            "velocity": 0.3937007874015748
          },
          {
            "duration": 0.034090874999996856,
            "durationTicks": 24,
            "midi": 24,
            "name": "C1",
            "ticks": 40512,
            "time": 57.545397,
            "velocity": 0.3937007874015748
          },
          {
            "duration": 0.034090874999996856,
            "durationTicks": 24,
            "midi": 36,
            "name": "C2",
            "ticks": 40560,
            "time": 57.61357875,
            "velocity": 0.3937007874015748
          },
          {
            "duration": 0.034090874999996856,
            "durationTicks": 24,
            "midi": 24,
            "name": "C1",
            "ticks": 40560,
            "time": 57.61357875,
            "velocity": 0.3937007874015748
          },
          {
            "duration": 0.034090874999996856,
            "durationTicks": 24,
            "midi": 24,
            "name": "C1",
            "ticks": 40608,
            "time": 57.6817605,
            "velocity": 0.3937007874015748
          },
          {
            "duration": 0.034090874999996856,
            "durationTicks": 24,
            "midi": 36,
            "name": "C2",
            "ticks": 40608,
            "time": 57.6817605,
            "velocity": 0.3937007874015748
          },
          {
            "duration": 0.03409087500000396,
            "durationTicks": 24,
            "midi": 36,
            "name": "C2",
            "ticks": 40656,
            "time": 57.74994225,
            "velocity": 0.3937007874015748
          },
          {
            "duration": 0.03409087500000396,
            "durationTicks": 24,
            "midi": 24,
            "name": "C1",
            "ticks": 40656,
            "time": 57.74994225,
            "velocity": 0.3937007874015748
          },
          {
            "duration": 0.03409087500000396,
            "durationTicks": 24,
            "midi": 24,
            "name": "C1",
            "ticks": 40704,
            "time": 57.818124,
            "velocity": 0.3937007874015748
          },
          {
            "duration": 0.03409087500000396,
            "durationTicks": 24,
            "midi": 36,
            "name": "C2",
            "ticks": 40704,
            "time": 57.818124,
            "velocity": 0.3937007874015748
          },
          {
            "duration": 0.03409087500000396,
            "durationTicks": 24,
            "midi": 36,
            "name": "C2",
            "ticks": 40752,
            "time": 57.88630575,
            "velocity": 0.3937007874015748
          },
          {
            "duration": 0.03409087500000396,
            "durationTicks": 24,
            "midi": 24,
            "name": "C1",
            "ticks": 40752,
            "time": 57.88630575,
            "velocity": 0.3937007874015748
          },
          {
            "duration": 0.034090874999996856,
            "durationTicks": 24,
            "midi": 24,
            "name": "C1",
            "ticks": 40800,
            "time": 57.9544875,
            "velocity": 0.3937007874015748
          },
          {
            "duration": 0.034090874999996856,
            "durationTicks": 24,
            "midi": 36,
            "name": "C2",
            "ticks": 40800,
            "time": 57.9544875,
            "velocity": 0.3937007874015748
          },
          {
            "duration": 0.034090874999996856,
            "durationTicks": 24,
            "midi": 36,
            "name": "C2",
            "ticks": 40848,
            "time": 58.02266925,
            "velocity": 0.3937007874015748
          },
          {
            "duration": 0.034090874999996856,
            "durationTicks": 24,
            "midi": 24,
            "name": "C1",
            "ticks": 40848,
            "time": 58.02266925,
            "velocity": 0.3937007874015748
          },
          {
            "duration": 0.034090874999996856,
            "durationTicks": 24,
            "midi": 36,
            "name": "C2",
            "ticks": 40896,
            "time": 58.090851,
            "velocity": 0.3937007874015748
          },
          {
            "duration": 0.034090874999996856,
            "durationTicks": 24,
            "midi": 24,
            "name": "C1",
            "ticks": 40896,
            "time": 58.090851,
            "velocity": 0.3937007874015748
          },
          {
            "duration": 0.034090874999996856,
            "durationTicks": 24,
            "midi": 36,
            "name": "C2",
            "ticks": 40944,
            "time": 58.15903275,
            "velocity": 0.3937007874015748
          },
          {
            "duration": 0.034090874999996856,
            "durationTicks": 24,
            "midi": 24,
            "name": "C1",
            "ticks": 40944,
            "time": 58.15903275,
            "velocity": 0.3937007874015748
          },
          {
            "duration": 0.034090874999996856,
            "durationTicks": 24,
            "midi": 24,
            "name": "C1",
            "ticks": 40992,
            "time": 58.2272145,
            "velocity": 0.3937007874015748
          },
          {
            "duration": 0.034090874999996856,
            "durationTicks": 24,
            "midi": 36,
            "name": "C2",
            "ticks": 40992,
            "time": 58.2272145,
            "velocity": 0.3937007874015748
          },
          {
            "duration": 0.03409087500000396,
            "durationTicks": 24,
            "midi": 36,
            "name": "C2",
            "ticks": 41040,
            "time": 58.295396249999996,
            "velocity": 0.3937007874015748
          },
          {
            "duration": 0.03409087500000396,
            "durationTicks": 24,
            "midi": 24,
            "name": "C1",
            "ticks": 41040,
            "time": 58.295396249999996,
            "velocity": 0.3937007874015748
          },
          {
            "duration": 0.03409087500000396,
            "durationTicks": 24,
            "midi": 36,
            "name": "C2",
            "ticks": 41088,
            "time": 58.363578,
            "velocity": 0.3937007874015748
          },
          {
            "duration": 0.03409087500000396,
            "durationTicks": 24,
            "midi": 24,
            "name": "C1",
            "ticks": 41088,
            "time": 58.363578,
            "velocity": 0.3937007874015748
          },
          {
            "duration": 0.03409087500000396,
            "durationTicks": 24,
            "midi": 24,
            "name": "C1",
            "ticks": 41136,
            "time": 58.43175975,
            "velocity": 0.3937007874015748
          },
          {
            "duration": 0.03409087500000396,
            "durationTicks": 24,
            "midi": 36,
            "name": "C2",
            "ticks": 41136,
            "time": 58.43175975,
            "velocity": 0.3937007874015748
          },
          {
            "duration": 0.03409087500000396,
            "durationTicks": 24,
            "midi": 36,
            "name": "C2",
            "ticks": 41184,
            "time": 58.4999415,
            "velocity": 0.3937007874015748
          },
          {
            "duration": 0.03409087500000396,
            "durationTicks": 24,
            "midi": 24,
            "name": "C1",
            "ticks": 41184,
            "time": 58.4999415,
            "velocity": 0.3937007874015748
          },
          {
            "duration": 0.034090874999996856,
            "durationTicks": 24,
            "midi": 24,
            "name": "C1",
            "ticks": 41232,
            "time": 58.56812325,
            "velocity": 0.3937007874015748
          },
          {
            "duration": 0.034090874999996856,
            "durationTicks": 24,
            "midi": 36,
            "name": "C2",
            "ticks": 41232,
            "time": 58.56812325,
            "velocity": 0.3937007874015748
          },
          {
            "duration": 0.034090874999996856,
            "durationTicks": 24,
            "midi": 36,
            "name": "C2",
            "ticks": 41280,
            "time": 58.636305,
            "velocity": 0.3937007874015748
          },
          {
            "duration": 0.034090874999996856,
            "durationTicks": 24,
            "midi": 24,
            "name": "C1",
            "ticks": 41280,
            "time": 58.636305,
            "velocity": 0.3937007874015748
          },
          {
            "duration": 0.034090874999996856,
            "durationTicks": 24,
            "midi": 24,
            "name": "C1",
            "ticks": 41328,
            "time": 58.70448675,
            "velocity": 0.3937007874015748
          },
          {
            "duration": 0.034090874999996856,
            "durationTicks": 24,
            "midi": 36,
            "name": "C2",
            "ticks": 41328,
            "time": 58.70448675,
            "velocity": 0.3937007874015748
          },
          {
            "duration": 0.034090874999996856,
            "durationTicks": 24,
            "midi": 24,
            "name": "C1",
            "ticks": 41376,
            "time": 58.7726685,
            "velocity": 0.3937007874015748
          },
          {
            "duration": 0.034090874999996856,
            "durationTicks": 24,
            "midi": 36,
            "name": "C2",
            "ticks": 41376,
            "time": 58.7726685,
            "velocity": 0.3937007874015748
          },
          {
            "duration": 0.034090874999996856,
            "durationTicks": 24,
            "midi": 36,
            "name": "C2",
            "ticks": 41424,
            "time": 58.84085025,
            "velocity": 0.3937007874015748
          },
          {
            "duration": 0.034090874999996856,
            "durationTicks": 24,
            "midi": 24,
            "name": "C1",
            "ticks": 41424,
            "time": 58.84085025,
            "velocity": 0.3937007874015748
          },
          {
            "duration": 0.03409087500000396,
            "durationTicks": 24,
            "midi": 24,
            "name": "C1",
            "ticks": 41472,
            "time": 58.909031999999996,
            "velocity": 0.3937007874015748
          },
          {
            "duration": 0.034090874999996856,
            "durationTicks": 24,
            "midi": 36,
            "name": "C2",
            "ticks": 41496,
            "time": 58.943122875,
            "velocity": 0.3937007874015748
          },
          {
            "duration": 0.03409087500000396,
            "durationTicks": 24,
            "midi": 24,
            "name": "C1",
            "ticks": 41520,
            "time": 58.97721375,
            "velocity": 0.3937007874015748
          },
          {
            "duration": 0.034090874999996856,
            "durationTicks": 24,
            "midi": 36,
            "name": "C2",
            "ticks": 41544,
            "time": 59.011304625,
            "velocity": 0.3937007874015748
          },
          {
            "duration": 0.03409087500000396,
            "durationTicks": 24,
            "midi": 24,
            "name": "C1",
            "ticks": 41568,
            "time": 59.0453955,
            "velocity": 0.3937007874015748
          },
          {
            "duration": 0.034090874999996856,
            "durationTicks": 24,
            "midi": 36,
            "name": "C2",
            "ticks": 41592,
            "time": 59.079486375,
            "velocity": 0.3937007874015748
          },
          {
            "duration": 0.03409087500000396,
            "durationTicks": 24,
            "midi": 24,
            "name": "C1",
            "ticks": 41616,
            "time": 59.11357725,
            "velocity": 0.3937007874015748
          },
          {
            "duration": 0.034090874999996856,
            "durationTicks": 24,
            "midi": 36,
            "name": "C2",
            "ticks": 41640,
            "time": 59.147668125,
            "velocity": 0.3937007874015748
          },
          {
            "duration": 0.034090874999996856,
            "durationTicks": 24,
            "midi": 24,
            "name": "C1",
            "ticks": 41664,
            "time": 59.181759,
            "velocity": 0.3937007874015748
          },
          {
            "duration": 0.03409087500000396,
            "durationTicks": 24,
            "midi": 36,
            "name": "C2",
            "ticks": 41688,
            "time": 59.215849874999996,
            "velocity": 0.3937007874015748
          },
          {
            "duration": 0.034090874999996856,
            "durationTicks": 24,
            "midi": 24,
            "name": "C1",
            "ticks": 41712,
            "time": 59.24994075,
            "velocity": 0.3937007874015748
          },
          {
            "duration": 0.03409087500000396,
            "durationTicks": 24,
            "midi": 36,
            "name": "C2",
            "ticks": 41736,
            "time": 59.284031625,
            "velocity": 0.3937007874015748
          },
          {
            "duration": 0.034090874999996856,
            "durationTicks": 24,
            "midi": 24,
            "name": "C1",
            "ticks": 41760,
            "time": 59.3181225,
            "velocity": 0.3937007874015748
          },
          {
            "duration": 0.03409087500000396,
            "durationTicks": 24,
            "midi": 36,
            "name": "C2",
            "ticks": 41784,
            "time": 59.352213375,
            "velocity": 0.3937007874015748
          },
          {
            "duration": 0.034090874999996856,
            "durationTicks": 24,
            "midi": 24,
            "name": "C1",
            "ticks": 41808,
            "time": 59.38630425,
            "velocity": 0.3937007874015748
          },
          {
            "duration": 0.03409087500000396,
            "durationTicks": 24,
            "midi": 36,
            "name": "C2",
            "ticks": 41832,
            "time": 59.420395125,
            "velocity": 0.3937007874015748
          },
          {
            "duration": 0.034090874999996856,
            "durationTicks": 24,
            "midi": 24,
            "name": "C1",
            "ticks": 41856,
            "time": 59.454486,
            "velocity": 0.3937007874015748
          },
          {
            "duration": 0.034090874999996856,
            "durationTicks": 24,
            "midi": 36,
            "name": "C2",
            "ticks": 41880,
            "time": 59.488576875,
            "velocity": 0.3937007874015748
          },
          {
            "duration": 0.03409087500000396,
            "durationTicks": 24,
            "midi": 24,
            "name": "C1",
            "ticks": 41904,
            "time": 59.52266775,
            "velocity": 0.3937007874015748
          },
          {
            "duration": 0.034090874999996856,
            "durationTicks": 24,
            "midi": 36,
            "name": "C2",
            "ticks": 41928,
            "time": 59.556758625,
            "velocity": 0.3937007874015748
          },
          {
            "duration": 0.03409087500000396,
            "durationTicks": 24,
            "midi": 24,
            "name": "C1",
            "ticks": 41952,
            "time": 59.5908495,
            "velocity": 0.3937007874015748
          },
          {
            "duration": 0.034090874999996856,
            "durationTicks": 24,
            "midi": 36,
            "name": "C2",
            "ticks": 41976,
            "time": 59.624940375,
            "velocity": 0.3937007874015748
          },
          {
            "duration": 0.03409087500000396,
            "durationTicks": 24,
            "midi": 24,
            "name": "C1",
            "ticks": 42000,
            "time": 59.65903125,
            "velocity": 0.3937007874015748
          },
          {
            "duration": 0.034090874999996856,
            "durationTicks": 24,
            "midi": 36,
            "name": "C2",
            "ticks": 42024,
            "time": 59.693122125,
            "velocity": 0.3937007874015748
          },
          {
            "duration": 0.034090874999996856,
            "durationTicks": 24,
            "midi": 24,
            "name": "C1",
            "ticks": 42048,
            "time": 59.727213,
            "velocity": 0.3937007874015748
          },
          {
            "duration": 0.03409087500000396,
            "durationTicks": 24,
            "midi": 36,
            "name": "C2",
            "ticks": 42072,
            "time": 59.761303874999996,
            "velocity": 0.3937007874015748
          },
          {
            "duration": 0.034090874999996856,
            "durationTicks": 24,
            "midi": 24,
            "name": "C1",
            "ticks": 42096,
            "time": 59.79539475,
            "velocity": 0.3937007874015748
          },
          {
            "duration": 0.03409087500000396,
            "durationTicks": 24,
            "midi": 36,
            "name": "C2",
            "ticks": 42120,
            "time": 59.829485625,
            "velocity": 0.3937007874015748
          },
          {
            "duration": 0.034090874999996856,
            "durationTicks": 24,
            "midi": 24,
            "name": "C1",
            "ticks": 42144,
            "time": 59.8635765,
            "velocity": 0.3937007874015748
          },
          {
            "duration": 0.03409087500000396,
            "durationTicks": 24,
            "midi": 36,
            "name": "C2",
            "ticks": 42168,
            "time": 59.897667375,
            "velocity": 0.3937007874015748
          },
          {
            "duration": 0.034090874999996856,
            "durationTicks": 24,
            "midi": 24,
            "name": "C1",
            "ticks": 42192,
            "time": 59.93175825,
            "velocity": 0.3937007874015748
          },
          {
            "duration": 0.03409087500000396,
            "durationTicks": 24,
            "midi": 36,
            "name": "C2",
            "ticks": 42216,
            "time": 59.965849125,
            "velocity": 0.3937007874015748
          },
          {
            "duration": 0.034090874999996856,
            "durationTicks": 24,
            "midi": 24,
            "name": "C1",
            "ticks": 42240,
            "time": 59.99994,
            "velocity": 0.3937007874015748
          },
          {
            "duration": 0.034090874999996856,
            "durationTicks": 24,
            "midi": 36,
            "name": "C2",
            "ticks": 42264,
            "time": 60.034030875,
            "velocity": 0.3937007874015748
          },
          {
            "duration": 0.03409087500000396,
            "durationTicks": 24,
            "midi": 24,
            "name": "C1",
            "ticks": 42288,
            "time": 60.068121749999996,
            "velocity": 0.3937007874015748
          },
          {
            "duration": 0.034090874999996856,
            "durationTicks": 24,
            "midi": 36,
            "name": "C2",
            "ticks": 42312,
            "time": 60.102212625,
            "velocity": 0.3937007874015748
          },
          {
            "duration": 0.03409087500000396,
            "durationTicks": 24,
            "midi": 24,
            "name": "C1",
            "ticks": 42336,
            "time": 60.1363035,
            "velocity": 0.3937007874015748
          },
          {
            "duration": 0.034090874999996856,
            "durationTicks": 24,
            "midi": 36,
            "name": "C2",
            "ticks": 42360,
            "time": 60.170394375,
            "velocity": 0.3937007874015748
          },
          {
            "duration": 0.03409087500000396,
            "durationTicks": 24,
            "midi": 24,
            "name": "C1",
            "ticks": 42384,
            "time": 60.20448525,
            "velocity": 0.3937007874015748
          },
          {
            "duration": 0.034090874999996856,
            "durationTicks": 24,
            "midi": 36,
            "name": "C2",
            "ticks": 42408,
            "time": 60.238576125,
            "velocity": 0.3937007874015748
          },
          {
            "duration": 0.03409087500000396,
            "durationTicks": 24,
            "midi": 24,
            "name": "C1",
            "ticks": 42432,
            "time": 60.272667,
            "velocity": 0.3937007874015748
          },
          {
            "duration": 0.034090874999996856,
            "durationTicks": 24,
            "midi": 36,
            "name": "C2",
            "ticks": 42456,
            "time": 60.306757875,
            "velocity": 0.3937007874015748
          },
          {
            "duration": 0.034090874999996856,
            "durationTicks": 24,
            "midi": 24,
            "name": "C1",
            "ticks": 42480,
            "time": 60.34084875,
            "velocity": 0.3937007874015748
          },
          {
            "duration": 0.03409087500000396,
            "durationTicks": 24,
            "midi": 36,
            "name": "C2",
            "ticks": 42504,
            "time": 60.374939624999996,
            "velocity": 0.3937007874015748
          },
          {
            "duration": 0.034090874999996856,
            "durationTicks": 24,
            "midi": 24,
            "name": "C1",
            "ticks": 42528,
            "time": 60.4090305,
            "velocity": 0.3937007874015748
          },
          {
            "duration": 0.03409087500000396,
            "durationTicks": 24,
            "midi": 36,
            "name": "C2",
            "ticks": 42552,
            "time": 60.443121375,
            "velocity": 0.3937007874015748
          },
          {
            "duration": 0.034090874999996856,
            "durationTicks": 24,
            "midi": 24,
            "name": "C1",
            "ticks": 42576,
            "time": 60.47721225,
            "velocity": 0.3937007874015748
          },
          {
            "duration": 0.03409087500000396,
            "durationTicks": 24,
            "midi": 36,
            "name": "C2",
            "ticks": 42600,
            "time": 60.511303125,
            "velocity": 0.3937007874015748
          },
          {
            "duration": 0.034090874999996856,
            "durationTicks": 24,
            "midi": 24,
            "name": "C1",
            "ticks": 42624,
            "time": 60.545394,
            "velocity": 0.3937007874015748
          },
          {
            "duration": 0.03409087500000396,
            "durationTicks": 24,
            "midi": 36,
            "name": "C2",
            "ticks": 42648,
            "time": 60.579484875,
            "velocity": 0.3937007874015748
          },
          {
            "duration": 0.034090874999996856,
            "durationTicks": 24,
            "midi": 24,
            "name": "C1",
            "ticks": 42672,
            "time": 60.61357575,
            "velocity": 0.3937007874015748
          },
          {
            "duration": 0.034090874999996856,
            "durationTicks": 24,
            "midi": 36,
            "name": "C2",
            "ticks": 42696,
            "time": 60.647666625,
            "velocity": 0.3937007874015748
          },
          {
            "duration": 0.03409087500000396,
            "durationTicks": 24,
            "midi": 24,
            "name": "C1",
            "ticks": 42720,
            "time": 60.681757499999996,
            "velocity": 0.3937007874015748
          },
          {
            "duration": 0.034090874999996856,
            "durationTicks": 24,
            "midi": 36,
            "name": "C2",
            "ticks": 42744,
            "time": 60.715848375,
            "velocity": 0.3937007874015748
          },
          {
            "duration": 0.03409087500000396,
            "durationTicks": 24,
            "midi": 24,
            "name": "C1",
            "ticks": 42768,
            "time": 60.74993925,
            "velocity": 0.3937007874015748
          },
          {
            "duration": 0.034090874999996856,
            "durationTicks": 24,
            "midi": 36,
            "name": "C2",
            "ticks": 42792,
            "time": 60.784030125,
            "velocity": 0.3937007874015748
          },
          {
            "duration": 0.03409087500000396,
            "durationTicks": 24,
            "midi": 24,
            "name": "C1",
            "ticks": 42816,
            "time": 60.818121,
            "velocity": 0.3937007874015748
          },
          {
            "duration": 0.034090874999996856,
            "durationTicks": 24,
            "midi": 36,
            "name": "C2",
            "ticks": 42840,
            "time": 60.852211875,
            "velocity": 0.3937007874015748
          },
          {
            "duration": 0.03409087500000396,
            "durationTicks": 24,
            "midi": 24,
            "name": "C1",
            "ticks": 42864,
            "time": 60.88630275,
            "velocity": 0.3937007874015748
          },
          {
            "duration": 0.034090874999996856,
            "durationTicks": 24,
            "midi": 36,
            "name": "C2",
            "ticks": 42888,
            "time": 60.920393625,
            "velocity": 0.3937007874015748
          },
          {
            "duration": 0.034090874999996856,
            "durationTicks": 24,
            "midi": 24,
            "name": "C1",
            "ticks": 42912,
            "time": 60.9544845,
            "velocity": 0.3937007874015748
          },
          {
            "duration": 0.03409087500000396,
            "durationTicks": 24,
            "midi": 36,
            "name": "C2",
            "ticks": 42936,
            "time": 60.988575374999996,
            "velocity": 0.3937007874015748
          },
          {
            "duration": 0.034090874999996856,
            "durationTicks": 24,
            "midi": 24,
            "name": "C1",
            "ticks": 42960,
            "time": 61.02266625,
            "velocity": 0.3937007874015748
          },
          {
            "duration": 0.03409087500000396,
            "durationTicks": 24,
            "midi": 36,
            "name": "C2",
            "ticks": 42984,
            "time": 61.056757125,
            "velocity": 0.3937007874015748
          },
          {
            "duration": 0.034090874999996856,
            "durationTicks": 24,
            "midi": 27,
            "name": "D#1",
            "ticks": 43008,
            "time": 61.090848,
            "velocity": 0.3937007874015748
          },
          {
            "duration": 0.034090874999996856,
            "durationTicks": 24,
            "midi": 39,
            "name": "D#2",
            "ticks": 43008,
            "time": 61.090848,
            "velocity": 0.3937007874015748
          },
          {
            "duration": 0.034090874999996856,
            "durationTicks": 24,
            "midi": 39,
            "name": "D#2",
            "ticks": 43056,
            "time": 61.15902975,
            "velocity": 0.3937007874015748
          },
          {
            "duration": 0.034090874999996856,
            "durationTicks": 24,
            "midi": 27,
            "name": "D#1",
            "ticks": 43056,
            "time": 61.15902975,
            "velocity": 0.3937007874015748
          },
          {
            "duration": 0.034090874999996856,
            "durationTicks": 24,
            "midi": 39,
            "name": "D#2",
            "ticks": 43104,
            "time": 61.2272115,
            "velocity": 0.3937007874015748
          },
          {
            "duration": 0.034090874999996856,
            "durationTicks": 24,
            "midi": 27,
            "name": "D#1",
            "ticks": 43104,
            "time": 61.2272115,
            "velocity": 0.3937007874015748
          },
          {
            "duration": 0.03409087500000396,
            "durationTicks": 24,
            "midi": 27,
            "name": "D#1",
            "ticks": 43152,
            "time": 61.29539325,
            "velocity": 0.3937007874015748
          },
          {
            "duration": 0.03409087500000396,
            "durationTicks": 24,
            "midi": 39,
            "name": "D#2",
            "ticks": 43152,
            "time": 61.29539325,
            "velocity": 0.3937007874015748
          },
          {
            "duration": 0.03409087500000396,
            "durationTicks": 24,
            "midi": 39,
            "name": "D#2",
            "ticks": 43200,
            "time": 61.363575,
            "velocity": 0.3937007874015748
          },
          {
            "duration": 0.03409087500000396,
            "durationTicks": 24,
            "midi": 27,
            "name": "D#1",
            "ticks": 43200,
            "time": 61.363575,
            "velocity": 0.3937007874015748
          },
          {
            "duration": 0.03409087500000396,
            "durationTicks": 24,
            "midi": 27,
            "name": "D#1",
            "ticks": 43248,
            "time": 61.43175675,
            "velocity": 0.3937007874015748
          },
          {
            "duration": 0.03409087500000396,
            "durationTicks": 24,
            "midi": 39,
            "name": "D#2",
            "ticks": 43248,
            "time": 61.43175675,
            "velocity": 0.3937007874015748
          },
          {
            "duration": 0.03409087500000396,
            "durationTicks": 24,
            "midi": 39,
            "name": "D#2",
            "ticks": 43296,
            "time": 61.4999385,
            "velocity": 0.3937007874015748
          },
          {
            "duration": 0.03409087500000396,
            "durationTicks": 24,
            "midi": 27,
            "name": "D#1",
            "ticks": 43296,
            "time": 61.4999385,
            "velocity": 0.3937007874015748
          },
          {
            "duration": 0.034090874999996856,
            "durationTicks": 24,
            "midi": 27,
            "name": "D#1",
            "ticks": 43344,
            "time": 61.56812025,
            "velocity": 0.3937007874015748
          },
          {
            "duration": 0.034090874999996856,
            "durationTicks": 24,
            "midi": 39,
            "name": "D#2",
            "ticks": 43344,
            "time": 61.56812025,
            "velocity": 0.3937007874015748
          },
          {
            "duration": 0.034090874999996856,
            "durationTicks": 24,
            "midi": 39,
            "name": "D#2",
            "ticks": 43392,
            "time": 61.636302,
            "velocity": 0.3937007874015748
          },
          {
            "duration": 0.034090874999996856,
            "durationTicks": 24,
            "midi": 27,
            "name": "D#1",
            "ticks": 43392,
            "time": 61.636302,
            "velocity": 0.3937007874015748
          },
          {
            "duration": 0.034090874999996856,
            "durationTicks": 24,
            "midi": 27,
            "name": "D#1",
            "ticks": 43440,
            "time": 61.70448375,
            "velocity": 0.3937007874015748
          },
          {
            "duration": 0.034090874999996856,
            "durationTicks": 24,
            "midi": 39,
            "name": "D#2",
            "ticks": 43440,
            "time": 61.70448375,
            "velocity": 0.3937007874015748
          },
          {
            "duration": 0.034090874999996856,
            "durationTicks": 24,
            "midi": 27,
            "name": "D#1",
            "ticks": 43488,
            "time": 61.7726655,
            "velocity": 0.3937007874015748
          },
          {
            "duration": 0.034090874999996856,
            "durationTicks": 24,
            "midi": 39,
            "name": "D#2",
            "ticks": 43488,
            "time": 61.7726655,
            "velocity": 0.3937007874015748
          },
          {
            "duration": 0.03409087500000396,
            "durationTicks": 24,
            "midi": 39,
            "name": "D#2",
            "ticks": 43536,
            "time": 61.840847249999996,
            "velocity": 0.3937007874015748
          },
          {
            "duration": 0.03409087500000396,
            "durationTicks": 24,
            "midi": 27,
            "name": "D#1",
            "ticks": 43536,
            "time": 61.840847249999996,
            "velocity": 0.3937007874015748
          },
          {
            "duration": 0.03409087500000396,
            "durationTicks": 24,
            "midi": 24,
            "name": "C1",
            "ticks": 43584,
            "time": 61.909029,
            "velocity": 0.3937007874015748
          },
          {
            "duration": 0.03409087500000396,
            "durationTicks": 24,
            "midi": 36,
            "name": "C2",
            "ticks": 43584,
            "time": 61.909029,
            "velocity": 0.3937007874015748
          },
          {
            "duration": 0.03409087500000396,
            "durationTicks": 24,
            "midi": 24,
            "name": "C1",
            "ticks": 43632,
            "time": 61.97721075,
            "velocity": 0.3937007874015748
          },
          {
            "duration": 0.03409087500000396,
            "durationTicks": 24,
            "midi": 36,
            "name": "C2",
            "ticks": 43632,
            "time": 61.97721075,
            "velocity": 0.3937007874015748
          },
          {
            "duration": 0.03409087500000396,
            "durationTicks": 24,
            "midi": 36,
            "name": "C2",
            "ticks": 43680,
            "time": 62.0453925,
            "velocity": 0.3937007874015748
          },
          {
            "duration": 0.03409087500000396,
            "durationTicks": 24,
            "midi": 24,
            "name": "C1",
            "ticks": 43680,
            "time": 62.0453925,
            "velocity": 0.3937007874015748
          },
          {
            "duration": 0.034090874999996856,
            "durationTicks": 24,
            "midi": 24,
            "name": "C1",
            "ticks": 43728,
            "time": 62.11357425,
            "velocity": 0.3937007874015748
          },
          {
            "duration": 0.034090874999996856,
            "durationTicks": 24,
            "midi": 36,
            "name": "C2",
            "ticks": 43728,
            "time": 62.11357425,
            "velocity": 0.3937007874015748
          },
          {
            "duration": 0.034090874999996856,
            "durationTicks": 24,
            "midi": 24,
            "name": "C1",
            "ticks": 43776,
            "time": 62.181756,
            "velocity": 0.3937007874015748
          },
          {
            "duration": 0.034090874999996856,
            "durationTicks": 24,
            "midi": 36,
            "name": "C2",
            "ticks": 43776,
            "time": 62.181756,
            "velocity": 0.3937007874015748
          },
          {
            "duration": 0.034090874999996856,
            "durationTicks": 24,
            "midi": 36,
            "name": "C2",
            "ticks": 43824,
            "time": 62.24993775,
            "velocity": 0.3937007874015748
          },
          {
            "duration": 0.034090874999996856,
            "durationTicks": 24,
            "midi": 24,
            "name": "C1",
            "ticks": 43824,
            "time": 62.24993775,
            "velocity": 0.3937007874015748
          },
          {
            "duration": 0.034090874999996856,
            "durationTicks": 24,
            "midi": 36,
            "name": "C2",
            "ticks": 43872,
            "time": 62.3181195,
            "velocity": 0.3937007874015748
          },
          {
            "duration": 0.034090874999996856,
            "durationTicks": 24,
            "midi": 24,
            "name": "C1",
            "ticks": 43872,
            "time": 62.3181195,
            "velocity": 0.3937007874015748
          },
          {
            "duration": 0.034090874999996856,
            "durationTicks": 24,
            "midi": 24,
            "name": "C1",
            "ticks": 43920,
            "time": 62.38630125,
            "velocity": 0.3937007874015748
          },
          {
            "duration": 0.034090874999996856,
            "durationTicks": 24,
            "midi": 36,
            "name": "C2",
            "ticks": 43920,
            "time": 62.38630125,
            "velocity": 0.3937007874015748
          },
          {
            "duration": 0.03409087500000396,
            "durationTicks": 24,
            "midi": 36,
            "name": "C2",
            "ticks": 43968,
            "time": 62.454482999999996,
            "velocity": 0.3937007874015748
          },
          {
            "duration": 0.03409087500000396,
            "durationTicks": 24,
            "midi": 24,
            "name": "C1",
            "ticks": 43968,
            "time": 62.454482999999996,
            "velocity": 0.3937007874015748
          },
          {
            "duration": 0.03409087500000396,
            "durationTicks": 24,
            "midi": 24,
            "name": "C1",
            "ticks": 44016,
            "time": 62.52266475,
            "velocity": 0.3937007874015748
          },
          {
            "duration": 0.03409087500000396,
            "durationTicks": 24,
            "midi": 36,
            "name": "C2",
            "ticks": 44016,
            "time": 62.52266475,
            "velocity": 0.3937007874015748
          },
          {
            "duration": 0.03409087500000396,
            "durationTicks": 24,
            "midi": 36,
            "name": "C2",
            "ticks": 44064,
            "time": 62.5908465,
            "velocity": 0.3937007874015748
          },
          {
            "duration": 0.03409087500000396,
            "durationTicks": 24,
            "midi": 24,
            "name": "C1",
            "ticks": 44064,
            "time": 62.5908465,
            "velocity": 0.3937007874015748
          },
          {
            "duration": 0.03409087500000396,
            "durationTicks": 24,
            "midi": 24,
            "name": "C1",
            "ticks": 44112,
            "time": 62.65902825,
            "velocity": 0.3937007874015748
          },
          {
            "duration": 0.03409087500000396,
            "durationTicks": 24,
            "midi": 36,
            "name": "C2",
            "ticks": 44112,
            "time": 62.65902825,
            "velocity": 0.3937007874015748
          },
          {
            "duration": 0.034090874999996856,
            "durationTicks": 24,
            "midi": 36,
            "name": "C2",
            "ticks": 44160,
            "time": 62.72721,
            "velocity": 0.3937007874015748
          },
          {
            "duration": 0.034090874999996856,
            "durationTicks": 24,
            "midi": 24,
            "name": "C1",
            "ticks": 44160,
            "time": 62.72721,
            "velocity": 0.3937007874015748
          },
          {
            "duration": 0.034090874999996856,
            "durationTicks": 24,
            "midi": 36,
            "name": "C2",
            "ticks": 44208,
            "time": 62.79539175,
            "velocity": 0.3937007874015748
          },
          {
            "duration": 0.034090874999996856,
            "durationTicks": 24,
            "midi": 24,
            "name": "C1",
            "ticks": 44208,
            "time": 62.79539175,
            "velocity": 0.3937007874015748
          },
          {
            "duration": 0.034090874999996856,
            "durationTicks": 24,
            "midi": 24,
            "name": "C1",
            "ticks": 44256,
            "time": 62.8635735,
            "velocity": 0.3937007874015748
          },
          {
            "duration": 0.034090874999996856,
            "durationTicks": 24,
            "midi": 36,
            "name": "C2",
            "ticks": 44256,
            "time": 62.8635735,
            "velocity": 0.3937007874015748
          },
          {
            "duration": 0.034090874999996856,
            "durationTicks": 24,
            "midi": 24,
            "name": "C1",
            "ticks": 44304,
            "time": 62.93175525,
            "velocity": 0.3937007874015748
          },
          {
            "duration": 0.034090874999996856,
            "durationTicks": 24,
            "midi": 36,
            "name": "C2",
            "ticks": 44304,
            "time": 62.93175525,
            "velocity": 0.3937007874015748
          },
          {
            "duration": 0.034090874999996856,
            "durationTicks": 24,
            "midi": 36,
            "name": "C2",
            "ticks": 44352,
            "time": 62.999937,
            "velocity": 0.3937007874015748
          },
          {
            "duration": 0.034090874999996856,
            "durationTicks": 24,
            "midi": 24,
            "name": "C1",
            "ticks": 44352,
            "time": 62.999937,
            "velocity": 0.3937007874015748
          },
          {
            "duration": 0.03409087500000396,
            "durationTicks": 24,
            "midi": 24,
            "name": "C1",
            "ticks": 44400,
            "time": 63.06811875,
            "velocity": 0.3937007874015748
          },
          {
            "duration": 0.03409087500000396,
            "durationTicks": 24,
            "midi": 36,
            "name": "C2",
            "ticks": 44400,
            "time": 63.06811875,
            "velocity": 0.3937007874015748
          },
          {
            "duration": 0.03409087500000396,
            "durationTicks": 24,
            "midi": 36,
            "name": "C2",
            "ticks": 44448,
            "time": 63.1363005,
            "velocity": 0.3937007874015748
          },
          {
            "duration": 0.03409087500000396,
            "durationTicks": 24,
            "midi": 24,
            "name": "C1",
            "ticks": 44448,
            "time": 63.1363005,
            "velocity": 0.3937007874015748
          },
          {
            "duration": 0.03409087500000396,
            "durationTicks": 24,
            "midi": 36,
            "name": "C2",
            "ticks": 44496,
            "time": 63.20448225,
            "velocity": 0.3937007874015748
          },
          {
            "duration": 0.03409087500000396,
            "durationTicks": 24,
            "midi": 24,
            "name": "C1",
            "ticks": 44496,
            "time": 63.20448225,
            "velocity": 0.3937007874015748
          },
          {
            "duration": 0.03409087500000396,
            "durationTicks": 24,
            "midi": 24,
            "name": "C1",
            "ticks": 44544,
            "time": 63.272664,
            "velocity": 0.3937007874015748
          },
          {
            "duration": 0.034090874999996856,
            "durationTicks": 24,
            "midi": 36,
            "name": "C2",
            "ticks": 44568,
            "time": 63.306754875,
            "velocity": 0.3937007874015748
          },
          {
            "duration": 0.034090874999996856,
            "durationTicks": 24,
            "midi": 24,
            "name": "C1",
            "ticks": 44592,
            "time": 63.34084575,
            "velocity": 0.3937007874015748
          },
          {
            "duration": 0.03409087500000396,
            "durationTicks": 24,
            "midi": 36,
            "name": "C2",
            "ticks": 44616,
            "time": 63.374936625,
            "velocity": 0.3937007874015748
          },
          {
            "duration": 0.034090874999996856,
            "durationTicks": 24,
            "midi": 24,
            "name": "C1",
            "ticks": 44640,
            "time": 63.4090275,
            "velocity": 0.3937007874015748
          },
          {
            "duration": 0.03409087500000396,
            "durationTicks": 24,
            "midi": 36,
            "name": "C2",
            "ticks": 44664,
            "time": 63.443118375,
            "velocity": 0.3937007874015748
          },
          {
            "duration": 0.034090874999996856,
            "durationTicks": 24,
            "midi": 24,
            "name": "C1",
            "ticks": 44688,
            "time": 63.47720925,
            "velocity": 0.3937007874015748
          },
          {
            "duration": 0.03409087500000396,
            "durationTicks": 24,
            "midi": 36,
            "name": "C2",
            "ticks": 44712,
            "time": 63.511300125,
            "velocity": 0.3937007874015748
          },
          {
            "duration": 0.034090874999996856,
            "durationTicks": 24,
            "midi": 24,
            "name": "C1",
            "ticks": 44736,
            "time": 63.545391,
            "velocity": 0.3937007874015748
          },
          {
            "duration": 0.034090874999996856,
            "durationTicks": 24,
            "midi": 36,
            "name": "C2",
            "ticks": 44760,
            "time": 63.579481875,
            "velocity": 0.3937007874015748
          },
          {
            "duration": 0.03409087500000396,
            "durationTicks": 24,
            "midi": 24,
            "name": "C1",
            "ticks": 44784,
            "time": 63.613572749999996,
            "velocity": 0.3937007874015748
          },
          {
            "duration": 0.034090874999996856,
            "durationTicks": 24,
            "midi": 36,
            "name": "C2",
            "ticks": 44808,
            "time": 63.647663625,
            "velocity": 0.3937007874015748
          },
          {
            "duration": 0.03409087500000396,
            "durationTicks": 24,
            "midi": 24,
            "name": "C1",
            "ticks": 44832,
            "time": 63.6817545,
            "velocity": 0.3937007874015748
          },
          {
            "duration": 0.034090874999996856,
            "durationTicks": 24,
            "midi": 36,
            "name": "C2",
            "ticks": 44856,
            "time": 63.715845375,
            "velocity": 0.3937007874015748
          },
          {
            "duration": 0.03409087500000396,
            "durationTicks": 24,
            "midi": 24,
            "name": "C1",
            "ticks": 44880,
            "time": 63.74993625,
            "velocity": 0.3937007874015748
          },
          {
            "duration": 0.034090874999996856,
            "durationTicks": 24,
            "midi": 36,
            "name": "C2",
            "ticks": 44904,
            "time": 63.784027125,
            "velocity": 0.3937007874015748
          },
          {
            "duration": 0.03409087500000396,
            "durationTicks": 24,
            "midi": 24,
            "name": "C1",
            "ticks": 44928,
            "time": 63.818118,
            "velocity": 0.3937007874015748
          },
          {
            "duration": 0.034090874999996856,
            "durationTicks": 24,
            "midi": 36,
            "name": "C2",
            "ticks": 44952,
            "time": 63.852208875,
            "velocity": 0.3937007874015748
          },
          {
            "duration": 0.034090874999996856,
            "durationTicks": 24,
            "midi": 24,
            "name": "C1",
            "ticks": 44976,
            "time": 63.88629975,
            "velocity": 0.3937007874015748
          },
          {
            "duration": 0.03409087500000396,
            "durationTicks": 24,
            "midi": 36,
            "name": "C2",
            "ticks": 45000,
            "time": 63.920390624999996,
            "velocity": 0.3937007874015748
          },
          {
            "duration": 0.034090874999996856,
            "durationTicks": 24,
            "midi": 24,
            "name": "C1",
            "ticks": 45024,
            "time": 63.9544815,
            "velocity": 0.3937007874015748
          },
          {
            "duration": 0.034090874999996856,
            "durationTicks": 24,
            "midi": 36,
            "name": "C2",
            "ticks": 45048,
            "time": 63.988572375,
            "velocity": 0.3937007874015748
          },
          {
            "duration": 0.03409087500000396,
            "durationTicks": 24,
            "midi": 24,
            "name": "C1",
            "ticks": 45072,
            "time": 64.02266325,
            "velocity": 0.3937007874015748
          },
          {
            "duration": 0.03409087500000396,
            "durationTicks": 24,
            "midi": 36,
            "name": "C2",
            "ticks": 45096,
            "time": 64.056754125,
            "velocity": 0.3937007874015748
          },
          {
            "duration": 0.03409087500000396,
            "durationTicks": 24,
            "midi": 24,
            "name": "C1",
            "ticks": 45120,
            "time": 64.090845,
            "velocity": 0.3937007874015748
          },
          {
            "duration": 0.03409087499998975,
            "durationTicks": 24,
            "midi": 36,
            "name": "C2",
            "ticks": 45144,
            "time": 64.124935875,
            "velocity": 0.3937007874015748
          },
          {
            "duration": 0.03409087500000396,
            "durationTicks": 24,
            "midi": 24,
            "name": "C1",
            "ticks": 45168,
            "time": 64.15902675,
            "velocity": 0.3937007874015748
          },
          {
            "duration": 0.03409087500000396,
            "durationTicks": 24,
            "midi": 36,
            "name": "C2",
            "ticks": 45192,
            "time": 64.193117625,
            "velocity": 0.3937007874015748
          },
          {
            "duration": 0.03409087499998975,
            "durationTicks": 24,
            "midi": 24,
            "name": "C1",
            "ticks": 45216,
            "time": 64.2272085,
            "velocity": 0.3937007874015748
          },
          {
            "duration": 0.03409087500000396,
            "durationTicks": 24,
            "midi": 36,
            "name": "C2",
            "ticks": 45240,
            "time": 64.261299375,
            "velocity": 0.3937007874015748
          },
          {
            "duration": 0.03409087500000396,
            "durationTicks": 24,
            "midi": 24,
            "name": "C1",
            "ticks": 45264,
            "time": 64.29539025,
            "velocity": 0.3937007874015748
          },
          {
            "duration": 0.03409087500000396,
            "durationTicks": 24,
            "midi": 36,
            "name": "C2",
            "ticks": 45288,
            "time": 64.329481125,
            "velocity": 0.3937007874015748
          },
          {
            "duration": 0.03409087499998975,
            "durationTicks": 24,
            "midi": 24,
            "name": "C1",
            "ticks": 45312,
            "time": 64.363572,
            "velocity": 0.3937007874015748
          },
          {
            "duration": 0.03409087500000396,
            "durationTicks": 24,
            "midi": 36,
            "name": "C2",
            "ticks": 45336,
            "time": 64.397662875,
            "velocity": 0.3937007874015748
          },
          {
            "duration": 0.03409087500000396,
            "durationTicks": 24,
            "midi": 24,
            "name": "C1",
            "ticks": 45360,
            "time": 64.43175375,
            "velocity": 0.3937007874015748
          },
          {
            "duration": 0.03409087499998975,
            "durationTicks": 24,
            "midi": 36,
            "name": "C2",
            "ticks": 45384,
            "time": 64.465844625,
            "velocity": 0.3937007874015748
          },
          {
            "duration": 0.03409087500000396,
            "durationTicks": 24,
            "midi": 24,
            "name": "C1",
            "ticks": 45408,
            "time": 64.49993549999999,
            "velocity": 0.3937007874015748
          },
          {
            "duration": 0.03409087500000396,
            "durationTicks": 24,
            "midi": 36,
            "name": "C2",
            "ticks": 45432,
            "time": 64.534026375,
            "velocity": 0.3937007874015748
          },
          {
            "duration": 0.03409087500000396,
            "durationTicks": 24,
            "midi": 24,
            "name": "C1",
            "ticks": 45456,
            "time": 64.56811725,
            "velocity": 0.3937007874015748
          },
          {
            "duration": 0.03409087499998975,
            "durationTicks": 24,
            "midi": 36,
            "name": "C2",
            "ticks": 45480,
            "time": 64.602208125,
            "velocity": 0.3937007874015748
          },
          {
            "duration": 0.03409087500000396,
            "durationTicks": 24,
            "midi": 24,
            "name": "C1",
            "ticks": 45504,
            "time": 64.636299,
            "velocity": 0.3937007874015748
          },
          {
            "duration": 0.03409087500000396,
            "durationTicks": 24,
            "midi": 36,
            "name": "C2",
            "ticks": 45528,
            "time": 64.670389875,
            "velocity": 0.3937007874015748
          },
          {
            "duration": 0.03409087500000396,
            "durationTicks": 24,
            "midi": 24,
            "name": "C1",
            "ticks": 45552,
            "time": 64.70448075,
            "velocity": 0.3937007874015748
          },
          {
            "duration": 0.03409087499998975,
            "durationTicks": 24,
            "midi": 36,
            "name": "C2",
            "ticks": 45576,
            "time": 64.738571625,
            "velocity": 0.3937007874015748
          },
          {
            "duration": 0.03409087500000396,
            "durationTicks": 24,
            "midi": 24,
            "name": "C1",
            "ticks": 45600,
            "time": 64.7726625,
            "velocity": 0.3937007874015748
          },
          {
            "duration": 0.03409087500000396,
            "durationTicks": 24,
            "midi": 36,
            "name": "C2",
            "ticks": 45624,
            "time": 64.806753375,
            "velocity": 0.3937007874015748
          },
          {
            "duration": 0.03409087499998975,
            "durationTicks": 24,
            "midi": 24,
            "name": "C1",
            "ticks": 45648,
            "time": 64.84084425,
            "velocity": 0.3937007874015748
          },
          {
            "duration": 0.03409087500000396,
            "durationTicks": 24,
            "midi": 36,
            "name": "C2",
            "ticks": 45672,
            "time": 64.874935125,
            "velocity": 0.3937007874015748
          },
          {
            "duration": 0.03409087500000396,
            "durationTicks": 24,
            "midi": 24,
            "name": "C1",
            "ticks": 45696,
            "time": 64.909026,
            "velocity": 0.3937007874015748
          },
          {
            "duration": 0.03409087500000396,
            "durationTicks": 24,
            "midi": 36,
            "name": "C2",
            "ticks": 45720,
            "time": 64.943116875,
            "velocity": 0.3937007874015748
          },
          {
            "duration": 0.03409087499998975,
            "durationTicks": 24,
            "midi": 24,
            "name": "C1",
            "ticks": 45744,
            "time": 64.97720775,
            "velocity": 0.3937007874015748
          },
          {
            "duration": 0.03409087500000396,
            "durationTicks": 24,
            "midi": 36,
            "name": "C2",
            "ticks": 45768,
            "time": 65.011298625,
            "velocity": 0.3937007874015748
          },
          {
            "duration": 0.03409087500000396,
            "durationTicks": 24,
            "midi": 24,
            "name": "C1",
            "ticks": 45792,
            "time": 65.0453895,
            "velocity": 0.3937007874015748
          },
          {
            "duration": 0.03409087499998975,
            "durationTicks": 24,
            "midi": 36,
            "name": "C2",
            "ticks": 45816,
            "time": 65.079480375,
            "velocity": 0.3937007874015748
          },
          {
            "duration": 0.03409087500000396,
            "durationTicks": 24,
            "midi": 24,
            "name": "C1",
            "ticks": 45840,
            "time": 65.11357124999999,
            "velocity": 0.3937007874015748
          },
          {
            "duration": 0.03409087500000396,
            "durationTicks": 24,
            "midi": 36,
            "name": "C2",
            "ticks": 45864,
            "time": 65.147662125,
            "velocity": 0.3937007874015748
          },
          {
            "duration": 0.03409087500000396,
            "durationTicks": 24,
            "midi": 24,
            "name": "C1",
            "ticks": 45888,
            "time": 65.181753,
            "velocity": 0.3937007874015748
          },
          {
            "duration": 0.03409087499998975,
            "durationTicks": 24,
            "midi": 36,
            "name": "C2",
            "ticks": 45912,
            "time": 65.215843875,
            "velocity": 0.3937007874015748
          },
          {
            "duration": 0.03409087500000396,
            "durationTicks": 24,
            "midi": 24,
            "name": "C1",
            "ticks": 45936,
            "time": 65.24993475,
            "velocity": 0.3937007874015748
          },
          {
            "duration": 0.03409087500000396,
            "durationTicks": 24,
            "midi": 36,
            "name": "C2",
            "ticks": 45960,
            "time": 65.284025625,
            "velocity": 0.3937007874015748
          },
          {
            "duration": 0.03409087500000396,
            "durationTicks": 24,
            "midi": 24,
            "name": "C1",
            "ticks": 45984,
            "time": 65.3181165,
            "velocity": 0.3937007874015748
          },
          {
            "duration": 0.03409087499998975,
            "durationTicks": 24,
            "midi": 36,
            "name": "C2",
            "ticks": 46008,
            "time": 65.352207375,
            "velocity": 0.3937007874015748
          },
          {
            "duration": 0.03409087500000396,
            "durationTicks": 24,
            "midi": 24,
            "name": "C1",
            "ticks": 46032,
            "time": 65.38629825,
            "velocity": 0.3937007874015748
          },
          {
            "duration": 0.03409087500000396,
            "durationTicks": 24,
            "midi": 36,
            "name": "C2",
            "ticks": 46056,
            "time": 65.420389125,
            "velocity": 0.3937007874015748
          },
          {
            "duration": 0.03409087499998975,
            "durationTicks": 24,
            "midi": 27,
            "name": "D#1",
            "ticks": 46080,
            "time": 65.45448,
            "velocity": 0.3937007874015748
          },
          {
            "duration": 0.03409087499998975,
            "durationTicks": 24,
            "midi": 39,
            "name": "D#2",
            "ticks": 46080,
            "time": 65.45448,
            "velocity": 0.3937007874015748
          },
          {
            "duration": 0.03409087500000396,
            "durationTicks": 24,
            "midi": 39,
            "name": "D#2",
            "ticks": 46128,
            "time": 65.52266175,
            "velocity": 0.3937007874015748
          },
          {
            "duration": 0.03409087500000396,
            "durationTicks": 24,
            "midi": 27,
            "name": "D#1",
            "ticks": 46128,
            "time": 65.52266175,
            "velocity": 0.3937007874015748
          },
          {
            "duration": 0.03409087499998975,
            "durationTicks": 24,
            "midi": 27,
            "name": "D#1",
            "ticks": 46176,
            "time": 65.5908435,
            "velocity": 0.3937007874015748
          },
          {
            "duration": 0.03409087499998975,
            "durationTicks": 24,
            "midi": 39,
            "name": "D#2",
            "ticks": 46176,
            "time": 65.5908435,
            "velocity": 0.3937007874015748
          },
          {
            "duration": 0.03409087500000396,
            "durationTicks": 24,
            "midi": 39,
            "name": "D#2",
            "ticks": 46224,
            "time": 65.65902525,
            "velocity": 0.3937007874015748
          },
          {
            "duration": 0.03409087500000396,
            "durationTicks": 24,
            "midi": 27,
            "name": "D#1",
            "ticks": 46224,
            "time": 65.65902525,
            "velocity": 0.3937007874015748
          },
          {
            "duration": 0.03409087500000396,
            "durationTicks": 24,
            "midi": 27,
            "name": "D#1",
            "ticks": 46272,
            "time": 65.72720699999999,
            "velocity": 0.3937007874015748
          },
          {
            "duration": 0.03409087500000396,
            "durationTicks": 24,
            "midi": 39,
            "name": "D#2",
            "ticks": 46272,
            "time": 65.72720699999999,
            "velocity": 0.3937007874015748
          },
          {
            "duration": 0.03409087500000396,
            "durationTicks": 24,
            "midi": 39,
            "name": "D#2",
            "ticks": 46320,
            "time": 65.79538875,
            "velocity": 0.3937007874015748
          },
          {
            "duration": 0.03409087500000396,
            "durationTicks": 24,
            "midi": 27,
            "name": "D#1",
            "ticks": 46320,
            "time": 65.79538875,
            "velocity": 0.3937007874015748
          },
          {
            "duration": 0.03409087500000396,
            "durationTicks": 24,
            "midi": 39,
            "name": "D#2",
            "ticks": 46368,
            "time": 65.8635705,
            "velocity": 0.3937007874015748
          },
          {
            "duration": 0.03409087500000396,
            "durationTicks": 24,
            "midi": 27,
            "name": "D#1",
            "ticks": 46368,
            "time": 65.8635705,
            "velocity": 0.3937007874015748
          },
          {
            "duration": 0.03409087500000396,
            "durationTicks": 24,
            "midi": 27,
            "name": "D#1",
            "ticks": 46416,
            "time": 65.93175225,
            "velocity": 0.3937007874015748
          },
          {
            "duration": 0.03409087500000396,
            "durationTicks": 24,
            "midi": 39,
            "name": "D#2",
            "ticks": 46416,
            "time": 65.93175225,
            "velocity": 0.3937007874015748
          },
          {
            "duration": 0.03409087500000396,
            "durationTicks": 24,
            "midi": 39,
            "name": "D#2",
            "ticks": 46464,
            "time": 65.999934,
            "velocity": 0.3937007874015748
          },
          {
            "duration": 0.03409087500000396,
            "durationTicks": 24,
            "midi": 27,
            "name": "D#1",
            "ticks": 46464,
            "time": 65.999934,
            "velocity": 0.3937007874015748
          },
          {
            "duration": 0.03409087499998975,
            "durationTicks": 24,
            "midi": 39,
            "name": "D#2",
            "ticks": 46512,
            "time": 66.06811575,
            "velocity": 0.3937007874015748
          },
          {
            "duration": 0.03409087499998975,
            "durationTicks": 24,
            "midi": 27,
            "name": "D#1",
            "ticks": 46512,
            "time": 66.06811575,
            "velocity": 0.3937007874015748
          },
          {
            "duration": 0.03409087500000396,
            "durationTicks": 24,
            "midi": 39,
            "name": "D#2",
            "ticks": 46560,
            "time": 66.1362975,
            "velocity": 0.3937007874015748
          },
          {
            "duration": 0.03409087500000396,
            "durationTicks": 24,
            "midi": 27,
            "name": "D#1",
            "ticks": 46560,
            "time": 66.1362975,
            "velocity": 0.3937007874015748
          },
          {
            "duration": 0.03409087499998975,
            "durationTicks": 24,
            "midi": 39,
            "name": "D#2",
            "ticks": 46608,
            "time": 66.20447925,
            "velocity": 0.3937007874015748
          },
          {
            "duration": 0.03409087499998975,
            "durationTicks": 24,
            "midi": 27,
            "name": "D#1",
            "ticks": 46608,
            "time": 66.20447925,
            "velocity": 0.3937007874015748
          },
          {
            "duration": 0.03409087500000396,
            "durationTicks": 24,
            "midi": 36,
            "name": "C2",
            "ticks": 46656,
            "time": 66.272661,
            "velocity": 0.3937007874015748
          },
          {
            "duration": 0.03409087500000396,
            "durationTicks": 24,
            "midi": 24,
            "name": "C1",
            "ticks": 46656,
            "time": 66.272661,
            "velocity": 0.3937007874015748
          },
          {
            "duration": 0.03409087500000396,
            "durationTicks": 24,
            "midi": 24,
            "name": "C1",
            "ticks": 46704,
            "time": 66.34084275,
            "velocity": 0.3937007874015748
          },
          {
            "duration": 0.03409087500000396,
            "durationTicks": 24,
            "midi": 36,
            "name": "C2",
            "ticks": 46704,
            "time": 66.34084275,
            "velocity": 0.3937007874015748
          },
          {
            "duration": 0.03409087500000396,
            "durationTicks": 24,
            "midi": 36,
            "name": "C2",
            "ticks": 46752,
            "time": 66.4090245,
            "velocity": 0.3937007874015748
          },
          {
            "duration": 0.03409087500000396,
            "durationTicks": 24,
            "midi": 24,
            "name": "C1",
            "ticks": 46752,
            "time": 66.4090245,
            "velocity": 0.3937007874015748
          },
          {
            "duration": 0.03409087500000396,
            "durationTicks": 24,
            "midi": 24,
            "name": "C1",
            "ticks": 46800,
            "time": 66.47720625,
            "velocity": 0.3937007874015748
          },
          {
            "duration": 0.03409087500000396,
            "durationTicks": 24,
            "midi": 36,
            "name": "C2",
            "ticks": 46800,
            "time": 66.47720625,
            "velocity": 0.3937007874015748
          },
          {
            "duration": 0.03409087499998975,
            "durationTicks": 24,
            "midi": 24,
            "name": "C1",
            "ticks": 46848,
            "time": 66.545388,
            "velocity": 0.3937007874015748
          },
          {
            "duration": 0.03409087499998975,
            "durationTicks": 24,
            "midi": 36,
            "name": "C2",
            "ticks": 46848,
            "time": 66.545388,
            "velocity": 0.3937007874015748
          },
          {
            "duration": 0.03409087500000396,
            "durationTicks": 24,
            "midi": 36,
            "name": "C2",
            "ticks": 46896,
            "time": 66.61356975,
            "velocity": 0.3937007874015748
          },
          {
            "duration": 0.03409087500000396,
            "durationTicks": 24,
            "midi": 24,
            "name": "C1",
            "ticks": 46896,
            "time": 66.61356975,
            "velocity": 0.3937007874015748
          },
          {
            "duration": 0.03409087499998975,
            "durationTicks": 24,
            "midi": 36,
            "name": "C2",
            "ticks": 46944,
            "time": 66.6817515,
            "velocity": 0.3937007874015748
          },
          {
            "duration": 0.03409087499998975,
            "durationTicks": 24,
            "midi": 24,
            "name": "C1",
            "ticks": 46944,
            "time": 66.6817515,
            "velocity": 0.3937007874015748
          },
          {
            "duration": 0.03409087500000396,
            "durationTicks": 24,
            "midi": 24,
            "name": "C1",
            "ticks": 46992,
            "time": 66.74993325,
            "velocity": 0.3937007874015748
          },
          {
            "duration": 0.03409087500000396,
            "durationTicks": 24,
            "midi": 36,
            "name": "C2",
            "ticks": 46992,
            "time": 66.74993325,
            "velocity": 0.3937007874015748
          },
          {
            "duration": 0.03409087499998975,
            "durationTicks": 24,
            "midi": 24,
            "name": "C1",
            "ticks": 47040,
            "time": 66.818115,
            "velocity": 0.3937007874015748
          },
          {
            "duration": 0.03409087499998975,
            "durationTicks": 24,
            "midi": 36,
            "name": "C2",
            "ticks": 47040,
            "time": 66.818115,
            "velocity": 0.3937007874015748
          },
          {
            "duration": 0.03409087500000396,
            "durationTicks": 24,
            "midi": 36,
            "name": "C2",
            "ticks": 47088,
            "time": 66.88629675,
            "velocity": 0.3937007874015748
          },
          {
            "duration": 0.03409087500000396,
            "durationTicks": 24,
            "midi": 24,
            "name": "C1",
            "ticks": 47088,
            "time": 66.88629675,
            "velocity": 0.3937007874015748
          },
          {
            "duration": 0.03409087500000396,
            "durationTicks": 24,
            "midi": 24,
            "name": "C1",
            "ticks": 47136,
            "time": 66.9544785,
            "velocity": 0.3937007874015748
          },
          {
            "duration": 0.03409087500000396,
            "durationTicks": 24,
            "midi": 36,
            "name": "C2",
            "ticks": 47136,
            "time": 66.9544785,
            "velocity": 0.3937007874015748
          },
          {
            "duration": 0.03409087500000396,
            "durationTicks": 24,
            "midi": 36,
            "name": "C2",
            "ticks": 47184,
            "time": 67.02266025,
            "velocity": 0.3937007874015748
          },
          {
            "duration": 0.03409087500000396,
            "durationTicks": 24,
            "midi": 24,
            "name": "C1",
            "ticks": 47184,
            "time": 67.02266025,
            "velocity": 0.3937007874015748
          },
          {
            "duration": 0.03409087500000396,
            "durationTicks": 24,
            "midi": 36,
            "name": "C2",
            "ticks": 47232,
            "time": 67.090842,
            "velocity": 0.3937007874015748
          },
          {
            "duration": 0.03409087500000396,
            "durationTicks": 24,
            "midi": 24,
            "name": "C1",
            "ticks": 47232,
            "time": 67.090842,
            "velocity": 0.3937007874015748
          },
          {
            "duration": 0.03409087499998975,
            "durationTicks": 24,
            "midi": 24,
            "name": "C1",
            "ticks": 47280,
            "time": 67.15902375,
            "velocity": 0.3937007874015748
          },
          {
            "duration": 0.03409087499998975,
            "durationTicks": 24,
            "midi": 36,
            "name": "C2",
            "ticks": 47280,
            "time": 67.15902375,
            "velocity": 0.3937007874015748
          },
          {
            "duration": 0.03409087500000396,
            "durationTicks": 24,
            "midi": 36,
            "name": "C2",
            "ticks": 47328,
            "time": 67.2272055,
            "velocity": 0.3937007874015748
          },
          {
            "duration": 0.03409087500000396,
            "durationTicks": 24,
            "midi": 24,
            "name": "C1",
            "ticks": 47328,
            "time": 67.2272055,
            "velocity": 0.3937007874015748
          },
          {
            "duration": 0.03409087499998975,
            "durationTicks": 24,
            "midi": 24,
            "name": "C1",
            "ticks": 47376,
            "time": 67.29538725,
            "velocity": 0.3937007874015748
          },
          {
            "duration": 0.03409087499998975,
            "durationTicks": 24,
            "midi": 36,
            "name": "C2",
            "ticks": 47376,
            "time": 67.29538725,
            "velocity": 0.3937007874015748
          },
          {
            "duration": 0.03409087500000396,
            "durationTicks": 24,
            "midi": 36,
            "name": "C2",
            "ticks": 47424,
            "time": 67.363569,
            "velocity": 0.3937007874015748
          },
          {
            "duration": 0.03409087500000396,
            "durationTicks": 24,
            "midi": 24,
            "name": "C1",
            "ticks": 47424,
            "time": 67.363569,
            "velocity": 0.3937007874015748
          },
          {
            "duration": 0.03409087499998975,
            "durationTicks": 24,
            "midi": 36,
            "name": "C2",
            "ticks": 47472,
            "time": 67.43175075,
            "velocity": 0.3937007874015748
          },
          {
            "duration": 0.03409087499998975,
            "durationTicks": 24,
            "midi": 24,
            "name": "C1",
            "ticks": 47472,
            "time": 67.43175075,
            "velocity": 0.3937007874015748
          },
          {
            "duration": 0.03409087500000396,
            "durationTicks": 24,
            "midi": 24,
            "name": "C1",
            "ticks": 47520,
            "time": 67.4999325,
            "velocity": 0.3937007874015748
          },
          {
            "duration": 0.03409087500000396,
            "durationTicks": 24,
            "midi": 36,
            "name": "C2",
            "ticks": 47520,
            "time": 67.4999325,
            "velocity": 0.3937007874015748
          },
          {
            "duration": 0.03409087500000396,
            "durationTicks": 24,
            "midi": 36,
            "name": "C2",
            "ticks": 47568,
            "time": 67.56811425,
            "velocity": 0.3937007874015748
          },
          {
            "duration": 0.03409087500000396,
            "durationTicks": 24,
            "midi": 24,
            "name": "C1",
            "ticks": 47568,
            "time": 67.56811425,
            "velocity": 0.3937007874015748
          },
          {
            "duration": 0.03409087500000396,
            "durationTicks": 24,
            "midi": 24,
            "name": "C1",
            "ticks": 47616,
            "time": 67.636296,
            "velocity": 0.3937007874015748
          },
          {
            "duration": 0.03409087499998975,
            "durationTicks": 24,
            "midi": 36,
            "name": "C2",
            "ticks": 47640,
            "time": 67.670386875,
            "velocity": 0.3937007874015748
          },
          {
            "duration": 0.03409087500000396,
            "durationTicks": 24,
            "midi": 24,
            "name": "C1",
            "ticks": 47664,
            "time": 67.70447775,
            "velocity": 0.3937007874015748
          },
          {
            "duration": 0.03409087500000396,
            "durationTicks": 24,
            "midi": 36,
            "name": "C2",
            "ticks": 47688,
            "time": 67.738568625,
            "velocity": 0.3937007874015748
          },
          {
            "duration": 0.03409087499998975,
            "durationTicks": 24,
            "midi": 24,
            "name": "C1",
            "ticks": 47712,
            "time": 67.7726595,
            "velocity": 0.3937007874015748
          },
          {
            "duration": 0.03409087500000396,
            "durationTicks": 24,
            "midi": 36,
            "name": "C2",
            "ticks": 47736,
            "time": 67.806750375,
            "velocity": 0.3937007874015748
          },
          {
            "duration": 0.03409087500000396,
            "durationTicks": 24,
            "midi": 24,
            "name": "C1",
            "ticks": 47760,
            "time": 67.84084125,
            "velocity": 0.3937007874015748
          },
          {
            "duration": 0.03409087500000396,
            "durationTicks": 24,
            "midi": 36,
            "name": "C2",
            "ticks": 47784,
            "time": 67.874932125,
            "velocity": 0.3937007874015748
          },
          {
            "duration": 0.03409087499998975,
            "durationTicks": 24,
            "midi": 24,
            "name": "C1",
            "ticks": 47808,
            "time": 67.909023,
            "velocity": 0.3937007874015748
          },
          {
            "duration": 0.03409087500000396,
            "durationTicks": 24,
            "midi": 36,
            "name": "C2",
            "ticks": 47832,
            "time": 67.943113875,
            "velocity": 0.3937007874015748
          },
          {
            "duration": 0.03409087500000396,
            "durationTicks": 24,
            "midi": 24,
            "name": "C1",
            "ticks": 47856,
            "time": 67.97720475,
            "velocity": 0.3937007874015748
          },
          {
            "duration": 0.03409087499998975,
            "durationTicks": 24,
            "midi": 36,
            "name": "C2",
            "ticks": 47880,
            "time": 68.011295625,
            "velocity": 0.3937007874015748
          },
          {
            "duration": 0.03409087500000396,
            "durationTicks": 24,
            "midi": 24,
            "name": "C1",
            "ticks": 47904,
            "time": 68.04538649999999,
            "velocity": 0.3937007874015748
          },
          {
            "duration": 0.03409087500000396,
            "durationTicks": 24,
            "midi": 36,
            "name": "C2",
            "ticks": 47928,
            "time": 68.079477375,
            "velocity": 0.3937007874015748
          },
          {
            "duration": 0.03409087500000396,
            "durationTicks": 24,
            "midi": 24,
            "name": "C1",
            "ticks": 47952,
            "time": 68.11356825,
            "velocity": 0.3937007874015748
          },
          {
            "duration": 0.03409087499998975,
            "durationTicks": 24,
            "midi": 36,
            "name": "C2",
            "ticks": 47976,
            "time": 68.147659125,
            "velocity": 0.3937007874015748
          },
          {
            "duration": 0.03409087500000396,
            "durationTicks": 24,
            "midi": 24,
            "name": "C1",
            "ticks": 48000,
            "time": 68.18175,
            "velocity": 0.3937007874015748
          },
          {
            "duration": 0.03409087500000396,
            "durationTicks": 24,
            "midi": 36,
            "name": "C2",
            "ticks": 48024,
            "time": 68.215840875,
            "velocity": 0.3937007874015748
          },
          {
            "duration": 0.03409087500000396,
            "durationTicks": 24,
            "midi": 24,
            "name": "C1",
            "ticks": 48048,
            "time": 68.24993175,
            "velocity": 0.3937007874015748
          },
          {
            "duration": 0.03409087499998975,
            "durationTicks": 24,
            "midi": 36,
            "name": "C2",
            "ticks": 48072,
            "time": 68.284022625,
            "velocity": 0.3937007874015748
          },
          {
            "duration": 0.03409087500000396,
            "durationTicks": 24,
            "midi": 24,
            "name": "C1",
            "ticks": 48096,
            "time": 68.3181135,
            "velocity": 0.3937007874015748
          },
          {
            "duration": 0.03409087500000396,
            "durationTicks": 24,
            "midi": 36,
            "name": "C2",
            "ticks": 48120,
            "time": 68.352204375,
            "velocity": 0.3937007874015748
          },
          {
            "duration": 0.03409087499998975,
            "durationTicks": 24,
            "midi": 24,
            "name": "C1",
            "ticks": 48144,
            "time": 68.38629525,
            "velocity": 0.3937007874015748
          },
          {
            "duration": 0.03409087500000396,
            "durationTicks": 24,
            "midi": 36,
            "name": "C2",
            "ticks": 48168,
            "time": 68.420386125,
            "velocity": 0.3937007874015748
          },
          {
            "duration": 0.03409087500000396,
            "durationTicks": 24,
            "midi": 24,
            "name": "C1",
            "ticks": 48192,
            "time": 68.454477,
            "velocity": 0.3937007874015748
          },
          {
            "duration": 0.03409087500000396,
            "durationTicks": 24,
            "midi": 36,
            "name": "C2",
            "ticks": 48216,
            "time": 68.488567875,
            "velocity": 0.3937007874015748
          },
          {
            "duration": 0.03409087499998975,
            "durationTicks": 24,
            "midi": 24,
            "name": "C1",
            "ticks": 48240,
            "time": 68.52265875,
            "velocity": 0.3937007874015748
          },
          {
            "duration": 0.03409087500000396,
            "durationTicks": 24,
            "midi": 36,
            "name": "C2",
            "ticks": 48264,
            "time": 68.556749625,
            "velocity": 0.3937007874015748
          },
          {
            "duration": 0.03409087500000396,
            "durationTicks": 24,
            "midi": 24,
            "name": "C1",
            "ticks": 48288,
            "time": 68.5908405,
            "velocity": 0.3937007874015748
          },
          {
            "duration": 0.03409087499998975,
            "durationTicks": 24,
            "midi": 36,
            "name": "C2",
            "ticks": 48312,
            "time": 68.624931375,
            "velocity": 0.3937007874015748
          },
          {
            "duration": 0.03409087500000396,
            "durationTicks": 24,
            "midi": 24,
            "name": "C1",
            "ticks": 48336,
            "time": 68.65902224999999,
            "velocity": 0.3937007874015748
          },
          {
            "duration": 0.03409087500000396,
            "durationTicks": 24,
            "midi": 36,
            "name": "C2",
            "ticks": 48360,
            "time": 68.693113125,
            "velocity": 0.3937007874015748
          },
          {
            "duration": 0.03409087500000396,
            "durationTicks": 24,
            "midi": 24,
            "name": "C1",
            "ticks": 48384,
            "time": 68.727204,
            "velocity": 0.3937007874015748
          },
          {
            "duration": 0.03409087499998975,
            "durationTicks": 24,
            "midi": 36,
            "name": "C2",
            "ticks": 48408,
            "time": 68.761294875,
            "velocity": 0.3937007874015748
          },
          {
            "duration": 0.03409087500000396,
            "durationTicks": 24,
            "midi": 24,
            "name": "C1",
            "ticks": 48432,
            "time": 68.79538575,
            "velocity": 0.3937007874015748
          },
          {
            "duration": 0.03409087500000396,
            "durationTicks": 24,
            "midi": 36,
            "name": "C2",
            "ticks": 48456,
            "time": 68.829476625,
            "velocity": 0.3937007874015748
          },
          {
            "duration": 0.03409087500000396,
            "durationTicks": 24,
            "midi": 24,
            "name": "C1",
            "ticks": 48480,
            "time": 68.8635675,
            "velocity": 0.3937007874015748
          },
          {
            "duration": 0.03409087499998975,
            "durationTicks": 24,
            "midi": 36,
            "name": "C2",
            "ticks": 48504,
            "time": 68.897658375,
            "velocity": 0.3937007874015748
          },
          {
            "duration": 0.03409087500000396,
            "durationTicks": 24,
            "midi": 24,
            "name": "C1",
            "ticks": 48528,
            "time": 68.93174925,
            "velocity": 0.3937007874015748
          },
          {
            "duration": 0.03409087500000396,
            "durationTicks": 24,
            "midi": 36,
            "name": "C2",
            "ticks": 48552,
            "time": 68.965840125,
            "velocity": 0.3937007874015748
          },
          {
            "duration": 0.03409087499998975,
            "durationTicks": 24,
            "midi": 24,
            "name": "C1",
            "ticks": 48576,
            "time": 68.999931,
            "velocity": 0.3937007874015748
          },
          {
            "duration": 0.03409087500000396,
            "durationTicks": 24,
            "midi": 36,
            "name": "C2",
            "ticks": 48600,
            "time": 69.034021875,
            "velocity": 0.3937007874015748
          },
          {
            "duration": 0.03409087500000396,
            "durationTicks": 24,
            "midi": 24,
            "name": "C1",
            "ticks": 48624,
            "time": 69.06811275,
            "velocity": 0.3937007874015748
          },
          {
            "duration": 0.03409087500000396,
            "durationTicks": 24,
            "midi": 36,
            "name": "C2",
            "ticks": 48648,
            "time": 69.102203625,
            "velocity": 0.3937007874015748
          },
          {
            "duration": 0.03409087499998975,
            "durationTicks": 24,
            "midi": 24,
            "name": "C1",
            "ticks": 48672,
            "time": 69.1362945,
            "velocity": 0.3937007874015748
          },
          {
            "duration": 0.03409087500000396,
            "durationTicks": 24,
            "midi": 36,
            "name": "C2",
            "ticks": 48696,
            "time": 69.170385375,
            "velocity": 0.3937007874015748
          },
          {
            "duration": 0.03409087500000396,
            "durationTicks": 24,
            "midi": 24,
            "name": "C1",
            "ticks": 48720,
            "time": 69.20447625,
            "velocity": 0.3937007874015748
          },
          {
            "duration": 0.03409087499998975,
            "durationTicks": 24,
            "midi": 36,
            "name": "C2",
            "ticks": 48744,
            "time": 69.238567125,
            "velocity": 0.3937007874015748
          },
          {
            "duration": 0.03409087500000396,
            "durationTicks": 24,
            "midi": 24,
            "name": "C1",
            "ticks": 48768,
            "time": 69.27265799999999,
            "velocity": 0.3937007874015748
          },
          {
            "duration": 0.03409087500000396,
            "durationTicks": 24,
            "midi": 36,
            "name": "C2",
            "ticks": 48792,
            "time": 69.306748875,
            "velocity": 0.3937007874015748
          },
          {
            "duration": 0.03409087500000396,
            "durationTicks": 24,
            "midi": 24,
            "name": "C1",
            "ticks": 48816,
            "time": 69.34083975,
            "velocity": 0.3937007874015748
          },
          {
            "duration": 0.03409087499998975,
            "durationTicks": 24,
            "midi": 36,
            "name": "C2",
            "ticks": 48840,
            "time": 69.374930625,
            "velocity": 0.3937007874015748
          },
          {
            "duration": 0.03409087500000396,
            "durationTicks": 24,
            "midi": 24,
            "name": "C1",
            "ticks": 48864,
            "time": 69.4090215,
            "velocity": 0.3937007874015748
          },
          {
            "duration": 0.03409087500000396,
            "durationTicks": 24,
            "midi": 36,
            "name": "C2",
            "ticks": 48888,
            "time": 69.443112375,
            "velocity": 0.3937007874015748
          },
          {
            "duration": 0.03409087500000396,
            "durationTicks": 24,
            "midi": 24,
            "name": "C1",
            "ticks": 48912,
            "time": 69.47720325,
            "velocity": 0.3937007874015748
          },
          {
            "duration": 0.03409087499998975,
            "durationTicks": 24,
            "midi": 36,
            "name": "C2",
            "ticks": 48936,
            "time": 69.511294125,
            "velocity": 0.3937007874015748
          },
          {
            "duration": 0.03409087500000396,
            "durationTicks": 24,
            "midi": 24,
            "name": "C1",
            "ticks": 48960,
            "time": 69.545385,
            "velocity": 0.3937007874015748
          },
          {
            "duration": 0.03409087500000396,
            "durationTicks": 24,
            "midi": 36,
            "name": "C2",
            "ticks": 48984,
            "time": 69.579475875,
            "velocity": 0.3937007874015748
          },
          {
            "duration": 0.03409087499998975,
            "durationTicks": 24,
            "midi": 24,
            "name": "C1",
            "ticks": 49008,
            "time": 69.61356675,
            "velocity": 0.3937007874015748
          },
          {
            "duration": 0.03409087500000396,
            "durationTicks": 24,
            "midi": 36,
            "name": "C2",
            "ticks": 49032,
            "time": 69.647657625,
            "velocity": 0.3937007874015748
          },
          {
            "duration": 0.03409087500000396,
            "durationTicks": 24,
            "midi": 24,
            "name": "C1",
            "ticks": 49056,
            "time": 69.6817485,
            "velocity": 0.3937007874015748
          },
          {
            "duration": 0.03409087500000396,
            "durationTicks": 24,
            "midi": 36,
            "name": "C2",
            "ticks": 49080,
            "time": 69.715839375,
            "velocity": 0.3937007874015748
          },
          {
            "duration": 0.03409087499998975,
            "durationTicks": 24,
            "midi": 24,
            "name": "C1",
            "ticks": 49104,
            "time": 69.74993025,
            "velocity": 0.3937007874015748
          },
          {
            "duration": 0.03409087500000396,
            "durationTicks": 24,
            "midi": 36,
            "name": "C2",
            "ticks": 49128,
            "time": 69.784021125,
            "velocity": 0.3937007874015748
          },
          {
            "duration": 0.27272699999998906,
            "durationTicks": 192,
            "midi": 26,
            "name": "D1",
            "ticks": 73728,
            "time": 104.727168,
            "velocity": 0.3937007874015748
          },
          {
            "duration": 0.27272699999998906,
            "durationTicks": 192,
            "midi": 38,
            "name": "D2",
            "ticks": 73728,
            "time": 104.727168,
            "velocity": 0.3937007874015748
          },
          {
            "duration": 0.2727270000000033,
            "durationTicks": 192,
            "midi": 38,
            "name": "D2",
            "ticks": 73920,
            "time": 104.999895,
            "velocity": 0.3937007874015748
          },
          {
            "duration": 0.2727270000000033,
            "durationTicks": 192,
            "midi": 26,
            "name": "D1",
            "ticks": 73920,
            "time": 104.999895,
            "velocity": 0.3937007874015748
          },
          {
            "duration": 0.30681787500000723,
            "durationTicks": 216,
            "midi": 26,
            "name": "D1",
            "ticks": 74112,
            "time": 105.272622,
            "velocity": 0.3937007874015748
          },
          {
            "duration": 0.30681787500000723,
            "durationTicks": 216,
            "midi": 38,
            "name": "D2",
            "ticks": 74112,
            "time": 105.272622,
            "velocity": 0.3937007874015748
          },
          {
            "duration": 0.5454539999999923,
            "durationTicks": 384,
            "midi": 36,
            "name": "C2",
            "ticks": 74304,
            "time": 105.545349,
            "velocity": 0.3937007874015748
          },
          {
            "duration": 0.5454539999999923,
            "durationTicks": 384,
            "midi": 24,
            "name": "C1",
            "ticks": 74304,
            "time": 105.545349,
            "velocity": 0.3937007874015748
          },
          {
            "duration": 0.5795448750000105,
            "durationTicks": 408,
            "midi": 24,
            "name": "C1",
            "ticks": 74688,
            "time": 106.090803,
            "velocity": 0.3937007874015748
          },
          {
            "duration": 0.5795448750000105,
            "durationTicks": 408,
            "midi": 36,
            "name": "C2",
            "ticks": 74688,
            "time": 106.090803,
            "velocity": 0.3937007874015748
          },
          {
            "duration": 0.27272699999998906,
            "durationTicks": 192,
            "midi": 38,
            "name": "D2",
            "ticks": 75264,
            "time": 106.908984,
            "velocity": 0.3937007874015748
          },
          {
            "duration": 0.27272699999998906,
            "durationTicks": 192,
            "midi": 26,
            "name": "D1",
            "ticks": 75264,
            "time": 106.908984,
            "velocity": 0.3937007874015748
          },
          {
            "duration": 0.2727270000000033,
            "durationTicks": 192,
            "midi": 26,
            "name": "D1",
            "ticks": 75456,
            "time": 107.18171099999999,
            "velocity": 0.3937007874015748
          },
          {
            "duration": 0.2727270000000033,
            "durationTicks": 192,
            "midi": 38,
            "name": "D2",
            "ticks": 75456,
            "time": 107.18171099999999,
            "velocity": 0.3937007874015748
          },
          {
            "duration": 0.30681787500000723,
            "durationTicks": 216,
            "midi": 38,
            "name": "D2",
            "ticks": 75648,
            "time": 107.454438,
            "velocity": 0.3937007874015748
          },
          {
            "duration": 0.30681787500000723,
            "durationTicks": 216,
            "midi": 26,
            "name": "D1",
            "ticks": 75648,
            "time": 107.454438,
            "velocity": 0.3937007874015748
          },
          {
            "duration": 0.5454540000000065,
            "durationTicks": 384,
            "midi": 24,
            "name": "C1",
            "ticks": 75840,
            "time": 107.727165,
            "velocity": 0.3937007874015748
          },
          {
            "duration": 0.5454540000000065,
            "durationTicks": 384,
            "midi": 36,
            "name": "C2",
            "ticks": 75840,
            "time": 107.727165,
            "velocity": 0.3937007874015748
          },
          {
            "duration": 0.5795448749999963,
            "durationTicks": 408,
            "midi": 24,
            "name": "C1",
            "ticks": 76224,
            "time": 108.272619,
            "velocity": 0.3937007874015748
          },
          {
            "duration": 0.5795448749999963,
            "durationTicks": 408,
            "midi": 36,
            "name": "C2",
            "ticks": 76224,
            "time": 108.272619,
            "velocity": 0.3937007874015748
          },
          {
            "duration": 0.2727270000000033,
            "durationTicks": 192,
            "midi": 38,
            "name": "D2",
            "ticks": 76800,
            "time": 109.0908,
            "velocity": 0.3937007874015748
          },
          {
            "duration": 0.2727270000000033,
            "durationTicks": 192,
            "midi": 26,
            "name": "D1",
            "ticks": 76800,
            "time": 109.0908,
            "velocity": 0.3937007874015748
          },
          {
            "duration": 0.27272699999998906,
            "durationTicks": 192,
            "midi": 26,
            "name": "D1",
            "ticks": 76992,
            "time": 109.363527,
            "velocity": 0.3937007874015748
          },
          {
            "duration": 0.27272699999998906,
            "durationTicks": 192,
            "midi": 38,
            "name": "D2",
            "ticks": 76992,
            "time": 109.363527,
            "velocity": 0.3937007874015748
          },
          {
            "duration": 0.30681787500000723,
            "durationTicks": 216,
            "midi": 38,
            "name": "D2",
            "ticks": 77184,
            "time": 109.636254,
            "velocity": 0.3937007874015748
          },
          {
            "duration": 0.30681787500000723,
            "durationTicks": 216,
            "midi": 26,
            "name": "D1",
            "ticks": 77184,
            "time": 109.636254,
            "velocity": 0.3937007874015748
          },
          {
            "duration": 0.5454540000000065,
            "durationTicks": 384,
            "midi": 36,
            "name": "C2",
            "ticks": 77376,
            "time": 109.908981,
            "velocity": 0.3937007874015748
          },
          {
            "duration": 0.5454540000000065,
            "durationTicks": 384,
            "midi": 24,
            "name": "C1",
            "ticks": 77376,
            "time": 109.908981,
            "velocity": 0.3937007874015748
          },
          {
            "duration": 0.5795448749999963,
            "durationTicks": 408,
            "midi": 24,
            "name": "C1",
            "ticks": 77760,
            "time": 110.454435,
            "velocity": 0.3937007874015748
          },
          {
            "duration": 0.5795448749999963,
            "durationTicks": 408,
            "midi": 36,
            "name": "C2",
            "ticks": 77760,
            "time": 110.454435,
            "velocity": 0.3937007874015748
          },
          {
            "duration": 0.2727270000000033,
            "durationTicks": 192,
            "midi": 26,
            "name": "D1",
            "ticks": 78336,
            "time": 111.272616,
            "velocity": 0.3937007874015748
          },
          {
            "duration": 0.2727270000000033,
            "durationTicks": 192,
            "midi": 38,
            "name": "D2",
            "ticks": 78336,
            "time": 111.272616,
            "velocity": 0.3937007874015748
          },
          {
            "duration": 0.2727270000000033,
            "durationTicks": 192,
            "midi": 26,
            "name": "D1",
            "ticks": 78528,
            "time": 111.545343,
            "velocity": 0.3937007874015748
          },
          {
            "duration": 0.2727270000000033,
            "durationTicks": 192,
            "midi": 38,
            "name": "D2",
            "ticks": 78528,
            "time": 111.545343,
            "velocity": 0.3937007874015748
          },
          {
            "duration": 0.306817874999993,
            "durationTicks": 216,
            "midi": 38,
            "name": "D2",
            "ticks": 78720,
            "time": 111.81807,
            "velocity": 0.3937007874015748
          },
          {
            "duration": 0.306817874999993,
            "durationTicks": 216,
            "midi": 26,
            "name": "D1",
            "ticks": 78720,
            "time": 111.81807,
            "velocity": 0.3937007874015748
          },
          {
            "duration": 0.5454540000000065,
            "durationTicks": 384,
            "midi": 36,
            "name": "C2",
            "ticks": 78912,
            "time": 112.090797,
            "velocity": 0.3937007874015748
          },
          {
            "duration": 0.5454540000000065,
            "durationTicks": 384,
            "midi": 24,
            "name": "C1",
            "ticks": 78912,
            "time": 112.090797,
            "velocity": 0.3937007874015748
          },
          {
            "duration": 0.13636350000000164,
            "durationTicks": 96,
            "midi": 30,
            "name": "F#1",
            "ticks": 79296,
            "time": 112.636251,
            "velocity": 0.3937007874015748
          },
          {
            "duration": 0.13636350000000164,
            "durationTicks": 96,
            "midi": 42,
            "name": "F#2",
            "ticks": 79296,
            "time": 112.636251,
            "velocity": 0.3937007874015748
          },
          {
            "duration": 0.13636349999998743,
            "durationTicks": 96,
            "midi": 30,
            "name": "F#1",
            "ticks": 79488,
            "time": 112.908978,
            "velocity": 0.3937007874015748
          },
          {
            "duration": 0.13636349999998743,
            "durationTicks": 96,
            "midi": 42,
            "name": "F#2",
            "ticks": 79488,
            "time": 112.908978,
            "velocity": 0.3937007874015748
          },
          {
            "duration": 0.13636350000000164,
            "durationTicks": 96,
            "midi": 46,
            "name": "A#2",
            "ticks": 79680,
            "time": 113.181705,
            "velocity": 0.3937007874015748
          },
          {
            "duration": 0.13636350000000164,
            "durationTicks": 96,
            "midi": 34,
            "name": "A#1",
            "ticks": 79680,
            "time": 113.181705,
            "velocity": 0.3937007874015748
          },
          {
            "duration": 0.2727270000000033,
            "durationTicks": 192,
            "midi": 26,
            "name": "D1",
            "ticks": 79872,
            "time": 113.454432,
            "velocity": 0.3937007874015748
          },
          {
            "duration": 0.2727270000000033,
            "durationTicks": 192,
            "midi": 38,
            "name": "D2",
            "ticks": 79872,
            "time": 113.454432,
            "velocity": 0.3937007874015748
          },
          {
            "duration": 0.2727270000000033,
            "durationTicks": 192,
            "midi": 26,
            "name": "D1",
            "ticks": 80064,
            "time": 113.727159,
            "velocity": 0.3937007874015748
          },
          {
            "duration": 0.2727270000000033,
            "durationTicks": 192,
            "midi": 38,
            "name": "D2",
            "ticks": 80064,
            "time": 113.727159,
            "velocity": 0.3937007874015748
          },
          {
            "duration": 0.306817874999993,
            "durationTicks": 216,
            "midi": 26,
            "name": "D1",
            "ticks": 80256,
            "time": 113.999886,
            "velocity": 0.3937007874015748
          },
          {
            "duration": 0.306817874999993,
            "durationTicks": 216,
            "midi": 38,
            "name": "D2",
            "ticks": 80256,
            "time": 113.999886,
            "velocity": 0.3937007874015748
          },
          {
            "duration": 0.5454540000000065,
            "durationTicks": 384,
            "midi": 36,
            "name": "C2",
            "ticks": 80448,
            "time": 114.27261299999999,
            "velocity": 0.3937007874015748
          },
          {
            "duration": 0.5454540000000065,
            "durationTicks": 384,
            "midi": 24,
            "name": "C1",
            "ticks": 80448,
            "time": 114.27261299999999,
            "velocity": 0.3937007874015748
          },
          {
            "duration": 0.5795448749999963,
            "durationTicks": 408,
            "midi": 36,
            "name": "C2",
            "ticks": 80832,
            "time": 114.818067,
            "velocity": 0.3937007874015748
          },
          {
            "duration": 0.5795448749999963,
            "durationTicks": 408,
            "midi": 24,
            "name": "C1",
            "ticks": 80832,
            "time": 114.818067,
            "velocity": 0.3937007874015748
          },
          {
            "duration": 0.2727270000000033,
            "durationTicks": 192,
            "midi": 26,
            "name": "D1",
            "ticks": 81408,
            "time": 115.636248,
            "velocity": 0.3937007874015748
          },
          {
            "duration": 0.2727270000000033,
            "durationTicks": 192,
            "midi": 38,
            "name": "D2",
            "ticks": 81408,
            "time": 115.636248,
            "velocity": 0.3937007874015748
          },
          {
            "duration": 0.2727270000000033,
            "durationTicks": 192,
            "midi": 38,
            "name": "D2",
            "ticks": 81600,
            "time": 115.908975,
            "velocity": 0.3937007874015748
          },
          {
            "duration": 0.2727270000000033,
            "durationTicks": 192,
            "midi": 26,
            "name": "D1",
            "ticks": 81600,
            "time": 115.908975,
            "velocity": 0.3937007874015748
          },
          {
            "duration": 0.306817874999993,
            "durationTicks": 216,
            "midi": 26,
            "name": "D1",
            "ticks": 81792,
            "time": 116.181702,
            "velocity": 0.3937007874015748
          },
          {
            "duration": 0.306817874999993,
            "durationTicks": 216,
            "midi": 38,
            "name": "D2",
            "ticks": 81792,
            "time": 116.181702,
            "velocity": 0.3937007874015748
          },
          {
            "duration": 0.5454539999999923,
            "durationTicks": 384,
            "midi": 24,
            "name": "C1",
            "ticks": 81984,
            "time": 116.454429,
            "velocity": 0.3937007874015748
          },
          {
            "duration": 0.5454539999999923,
            "durationTicks": 384,
            "midi": 36,
            "name": "C2",
            "ticks": 81984,
            "time": 116.454429,
            "velocity": 0.3937007874015748
          },
          {
            "duration": 0.5795448749999963,
            "durationTicks": 408,
            "midi": 24,
            "name": "C1",
            "ticks": 82368,
            "time": 116.999883,
            "velocity": 0.3937007874015748
          },
          {
            "duration": 0.5795448749999963,
            "durationTicks": 408,
            "midi": 36,
            "name": "C2",
            "ticks": 82368,
            "time": 116.999883,
            "velocity": 0.3937007874015748
          },
          {
            "duration": 0.2727270000000033,
            "durationTicks": 192,
            "midi": 26,
            "name": "D1",
            "ticks": 82944,
            "time": 117.81806399999999,
            "velocity": 0.3937007874015748
          },
          {
            "duration": 0.2727270000000033,
            "durationTicks": 192,
            "midi": 38,
            "name": "D2",
            "ticks": 82944,
            "time": 117.81806399999999,
            "velocity": 0.3937007874015748
          },
          {
            "duration": 0.2727270000000033,
            "durationTicks": 192,
            "midi": 26,
            "name": "D1",
            "ticks": 83136,
            "time": 118.090791,
            "velocity": 0.3937007874015748
          },
          {
            "duration": 0.2727270000000033,
            "durationTicks": 192,
            "midi": 38,
            "name": "D2",
            "ticks": 83136,
            "time": 118.090791,
            "velocity": 0.3937007874015748
          },
          {
            "duration": 0.306817874999993,
            "durationTicks": 216,
            "midi": 38,
            "name": "D2",
            "ticks": 83328,
            "time": 118.363518,
            "velocity": 0.3937007874015748
          },
          {
            "duration": 0.306817874999993,
            "durationTicks": 216,
            "midi": 26,
            "name": "D1",
            "ticks": 83328,
            "time": 118.363518,
            "velocity": 0.3937007874015748
          },
          {
            "duration": 0.5454539999999923,
            "durationTicks": 384,
            "midi": 36,
            "name": "C2",
            "ticks": 83520,
            "time": 118.636245,
            "velocity": 0.3937007874015748
          },
          {
            "duration": 0.5454539999999923,
            "durationTicks": 384,
            "midi": 24,
            "name": "C1",
            "ticks": 83520,
            "time": 118.636245,
            "velocity": 0.3937007874015748
          },
          {
            "duration": 0.5795448750000105,
            "durationTicks": 408,
            "midi": 36,
            "name": "C2",
            "ticks": 83904,
            "time": 119.181699,
            "velocity": 0.3937007874015748
          },
          {
            "duration": 0.5795448750000105,
            "durationTicks": 408,
            "midi": 24,
            "name": "C1",
            "ticks": 83904,
            "time": 119.181699,
            "velocity": 0.3937007874015748
          },
          {
            "duration": 0.27272699999998906,
            "durationTicks": 192,
            "midi": 26,
            "name": "D1",
            "ticks": 84480,
            "time": 119.99988,
            "velocity": 0.3937007874015748
          },
          {
            "duration": 0.27272699999998906,
            "durationTicks": 192,
            "midi": 38,
            "name": "D2",
            "ticks": 84480,
            "time": 119.99988,
            "velocity": 0.3937007874015748
          },
          {
            "duration": 0.2727270000000033,
            "durationTicks": 192,
            "midi": 38,
            "name": "D2",
            "ticks": 84672,
            "time": 120.272607,
            "velocity": 0.3937007874015748
          },
          {
            "duration": 0.2727270000000033,
            "durationTicks": 192,
            "midi": 26,
            "name": "D1",
            "ticks": 84672,
            "time": 120.272607,
            "velocity": 0.3937007874015748
          },
          {
            "duration": 0.30681787500000723,
            "durationTicks": 216,
            "midi": 38,
            "name": "D2",
            "ticks": 84864,
            "time": 120.545334,
            "velocity": 0.3937007874015748
          },
          {
            "duration": 0.30681787500000723,
            "durationTicks": 216,
            "midi": 26,
            "name": "D1",
            "ticks": 84864,
            "time": 120.545334,
            "velocity": 0.3937007874015748
          },
          {
            "duration": 0.5454539999999923,
            "durationTicks": 384,
            "midi": 36,
            "name": "C2",
            "ticks": 85056,
            "time": 120.818061,
            "velocity": 0.3937007874015748
          },
          {
            "duration": 0.5454539999999923,
            "durationTicks": 384,
            "midi": 24,
            "name": "C1",
            "ticks": 85056,
            "time": 120.818061,
            "velocity": 0.3937007874015748
          },
          {
            "duration": 0.13636350000000164,
            "durationTicks": 96,
            "midi": 42,
            "name": "F#2",
            "ticks": 85440,
            "time": 121.36351499999999,
            "velocity": 0.3937007874015748
          },
          {
            "duration": 0.13636350000000164,
            "durationTicks": 96,
            "midi": 30,
            "name": "F#1",
            "ticks": 85440,
            "time": 121.36351499999999,
            "velocity": 0.3937007874015748
          },
          {
            "duration": 0.13636350000000164,
            "durationTicks": 96,
            "midi": 42,
            "name": "F#2",
            "ticks": 85632,
            "time": 121.636242,
            "velocity": 0.3937007874015748
          },
          {
            "duration": 0.13636350000000164,
            "durationTicks": 96,
            "midi": 30,
            "name": "F#1",
            "ticks": 85632,
            "time": 121.636242,
            "velocity": 0.3937007874015748
          },
          {
            "duration": 0.13636350000000164,
            "durationTicks": 96,
            "midi": 46,
            "name": "A#2",
            "ticks": 85824,
            "time": 121.908969,
            "velocity": 0.3937007874015748
          },
          {
            "duration": 0.13636350000000164,
            "durationTicks": 96,
            "midi": 34,
            "name": "A#1",
            "ticks": 85824,
            "time": 121.908969,
            "velocity": 0.3937007874015748
          }
        ],
        "endOfTrackTicks": 85920
      },
      {
        "channel": 6,
        "controlChanges": {},
        "pitchBends": [],
        "instrument": {
          "family": "piano",
          "number": 6,
          "name": "harpsichord"
        },
        "name": "Harpsichord",
        "notes": [
          {
            "duration": 0.13636350000000164,
            "durationTicks": 96,
            "midi": 51,
            "name": "D#3",
            "ticks": 49152,
            "time": 69.818112,
            "velocity": 0.3937007874015748
          },
          {
            "duration": 0.13636350000000164,
            "durationTicks": 96,
            "midi": 48,
            "name": "C3",
            "ticks": 49728,
            "time": 70.636293,
            "velocity": 0.3937007874015748
          },
          {
            "duration": 0.13636350000000164,
            "durationTicks": 96,
            "midi": 51,
            "name": "D#3",
            "ticks": 52224,
            "time": 74.181744,
            "velocity": 0.3937007874015748
          },
          {
            "duration": 0.13636350000000164,
            "durationTicks": 96,
            "midi": 48,
            "name": "C3",
            "ticks": 52800,
            "time": 74.999925,
            "velocity": 0.3937007874015748
          },
          {
            "duration": 0.13636350000000164,
            "durationTicks": 96,
            "midi": 51,
            "name": "D#3",
            "ticks": 55296,
            "time": 78.545376,
            "velocity": 0.3937007874015748
          },
          {
            "duration": 0.13636350000000164,
            "durationTicks": 96,
            "midi": 48,
            "name": "C3",
            "ticks": 55872,
            "time": 79.363557,
            "velocity": 0.3937007874015748
          },
          {
            "duration": 0.13636350000000164,
            "durationTicks": 96,
            "midi": 51,
            "name": "D#3",
            "ticks": 58368,
            "time": 82.909008,
            "velocity": 0.3937007874015748
          },
          {
            "duration": 0.13636350000000164,
            "durationTicks": 96,
            "midi": 48,
            "name": "C3",
            "ticks": 58944,
            "time": 83.727189,
            "velocity": 0.3937007874015748
          },
          {
            "duration": 0.13636350000000164,
            "durationTicks": 96,
            "midi": 51,
            "name": "D#3",
            "ticks": 61440,
            "time": 87.27264,
            "velocity": 0.3937007874015748
          },
          {
            "duration": 0.13636349999998743,
            "durationTicks": 96,
            "midi": 48,
            "name": "C3",
            "ticks": 62016,
            "time": 88.090821,
            "velocity": 0.3937007874015748
          },
          {
            "duration": 0.13636349999998743,
            "durationTicks": 96,
            "midi": 51,
            "name": "D#3",
            "ticks": 64512,
            "time": 91.636272,
            "velocity": 0.3937007874015748
          },
          {
            "duration": 0.13636350000000164,
            "durationTicks": 96,
            "midi": 48,
            "name": "C3",
            "ticks": 65088,
            "time": 92.454453,
            "velocity": 0.3937007874015748
          }
        ],
        "endOfTrackTicks": 65184
      },
      {
        "channel": 7,
        "controlChanges": {},
        "pitchBends": [],
        "instrument": {
          "family": "bass",
          "number": 38,
          "name": "synth bass 1"
        },
        "name": "Synth Bass",
        "notes": [
          {
            "duration": 0.13636350000000164,
            "durationTicks": 96,
            "midi": 48,
            "name": "C3",
            "ticks": 13248,
            "time": 18.818163,
            "velocity": 0.3937007874015748
          },
          {
            "duration": 0.13636350000000164,
            "durationTicks": 96,
            "midi": 46,
            "name": "A#2",
            "ticks": 13440,
            "time": 19.090889999999998,
            "velocity": 0.3937007874015748
          },
          {
            "duration": 0.13636349999999808,
            "durationTicks": 96,
            "midi": 48,
            "name": "C3",
            "ticks": 13632,
            "time": 19.363617,
            "velocity": 0.3937007874015748
          },
          {
            "duration": 0.13636350000000164,
            "durationTicks": 96,
            "midi": 48,
            "name": "C3",
            "ticks": 14784,
            "time": 20.999979,
            "velocity": 0.3937007874015748
          },
          {
            "duration": 0.13636350000000164,
            "durationTicks": 96,
            "midi": 51,
            "name": "D#3",
            "ticks": 14976,
            "time": 21.272706,
            "velocity": 0.3937007874015748
          },
          {
            "duration": 0.13636350000000164,
            "durationTicks": 96,
            "midi": 48,
            "name": "C3",
            "ticks": 15168,
            "time": 21.545433,
            "velocity": 0.3937007874015748
          },
          {
            "duration": 0.13636349999999808,
            "durationTicks": 96,
            "midi": 48,
            "name": "C3",
            "ticks": 16320,
            "time": 23.181795,
            "velocity": 0.3937007874015748
          },
          {
            "duration": 0.13636349999999808,
            "durationTicks": 96,
            "midi": 46,
            "name": "A#2",
            "ticks": 16512,
            "time": 23.454522,
            "velocity": 0.3937007874015748
          },
          {
            "duration": 0.13636349999999808,
            "durationTicks": 96,
            "midi": 48,
            "name": "C3",
            "ticks": 16704,
            "time": 23.727249,
            "velocity": 0.3937007874015748
          },
          {
            "duration": 0.13636350000000164,
            "durationTicks": 96,
            "midi": 48,
            "name": "C3",
            "ticks": 17856,
            "time": 25.363611,
            "velocity": 0.3937007874015748
          },
          {
            "duration": 0.13636350000000164,
            "durationTicks": 96,
            "midi": 51,
            "name": "D#3",
            "ticks": 18048,
            "time": 25.636338,
            "velocity": 0.3937007874015748
          },
          {
            "duration": 0.13636350000000164,
            "durationTicks": 96,
            "midi": 53,
            "name": "F3",
            "ticks": 18240,
            "time": 25.909065,
            "velocity": 0.3937007874015748
          },
          {
            "duration": 0.13636349999999808,
            "durationTicks": 96,
            "midi": 48,
            "name": "C3",
            "ticks": 19392,
            "time": 27.545427,
            "velocity": 0.3937007874015748
          },
          {
            "duration": 0.13636350000000164,
            "durationTicks": 96,
            "midi": 46,
            "name": "A#2",
            "ticks": 19584,
            "time": 27.818154,
            "velocity": 0.3937007874015748
          },
          {
            "duration": 0.13636350000000164,
            "durationTicks": 96,
            "midi": 48,
            "name": "C3",
            "ticks": 19776,
            "time": 28.090881,
            "velocity": 0.3937007874015748
          },
          {
            "duration": 0.13636349999999808,
            "durationTicks": 96,
            "midi": 48,
            "name": "C3",
            "ticks": 20928,
            "time": 29.727243,
            "velocity": 0.3937007874015748
          },
          {
            "duration": 0.13636349999999808,
            "durationTicks": 96,
            "midi": 51,
            "name": "D#3",
            "ticks": 21120,
            "time": 29.99997,
            "velocity": 0.3937007874015748
          },
          {
            "duration": 0.13636349999999808,
            "durationTicks": 96,
            "midi": 48,
            "name": "C3",
            "ticks": 21312,
            "time": 30.272697,
            "velocity": 0.3937007874015748
          },
          {
            "duration": 0.13636350000000164,
            "durationTicks": 96,
            "midi": 48,
            "name": "C3",
            "ticks": 22464,
            "time": 31.909059,
            "velocity": 0.3937007874015748
          },
          {
            "duration": 0.13636349999999453,
            "durationTicks": 96,
            "midi": 46,
            "name": "A#2",
            "ticks": 22656,
            "time": 32.181786,
            "velocity": 0.3937007874015748
          },
          {
            "duration": 0.13636350000000164,
            "durationTicks": 96,
            "midi": 48,
            "name": "C3",
            "ticks": 22848,
            "time": 32.454513,
            "velocity": 0.3937007874015748
          },
          {
            "duration": 0.13636350000000164,
            "durationTicks": 96,
            "midi": 48,
            "name": "C3",
            "ticks": 24000,
            "time": 34.090875,
            "velocity": 0.3937007874015748
          },
          {
            "duration": 0.13636350000000164,
            "durationTicks": 96,
            "midi": 51,
            "name": "D#3",
            "ticks": 24192,
            "time": 34.363602,
            "velocity": 0.3937007874015748
          },
          {
            "duration": 0.13636350000000164,
            "durationTicks": 96,
            "midi": 53,
            "name": "F3",
            "ticks": 24384,
            "time": 34.636328999999996,
            "velocity": 0.3937007874015748
          },
          {
            "duration": 0.13636350000000164,
            "durationTicks": 96,
            "midi": 39,
            "name": "D#2",
            "ticks": 49152,
            "time": 69.818112,
            "velocity": 0.3937007874015748
          },
          {
            "duration": 0.13636350000000164,
            "durationTicks": 96,
            "midi": 36,
            "name": "C2",
            "ticks": 49728,
            "time": 70.636293,
            "velocity": 0.3937007874015748
          },
          {
            "duration": 0.13636350000000164,
            "durationTicks": 96,
            "midi": 39,
            "name": "D#2",
            "ticks": 52224,
            "time": 74.181744,
            "velocity": 0.3937007874015748
          },
          {
            "duration": 0.13636350000000164,
            "durationTicks": 96,
            "midi": 36,
            "name": "C2",
            "ticks": 52800,
            "time": 74.999925,
            "velocity": 0.3937007874015748
          },
          {
            "duration": 0.13636350000000164,
            "durationTicks": 96,
            "midi": 39,
            "name": "D#2",
            "ticks": 55296,
            "time": 78.545376,
            "velocity": 0.3937007874015748
          },
          {
            "duration": 0.13636350000000164,
            "durationTicks": 96,
            "midi": 36,
            "name": "C2",
            "ticks": 55872,
            "time": 79.363557,
            "velocity": 0.3937007874015748
          },
          {
            "duration": 0.13636350000000164,
            "durationTicks": 96,
            "midi": 39,
            "name": "D#2",
            "ticks": 58368,
            "time": 82.909008,
            "velocity": 0.3937007874015748
          },
          {
            "duration": 0.13636350000000164,
            "durationTicks": 96,
            "midi": 36,
            "name": "C2",
            "ticks": 58944,
            "time": 83.727189,
            "velocity": 0.3937007874015748
          },
          {
            "duration": 0.13636350000000164,
            "durationTicks": 96,
            "midi": 39,
            "name": "D#2",
            "ticks": 61440,
            "time": 87.27264,
            "velocity": 0.3937007874015748
          },
          {
            "duration": 0.13636349999998743,
            "durationTicks": 96,
            "midi": 36,
            "name": "C2",
            "ticks": 62016,
            "time": 88.090821,
            "velocity": 0.3937007874015748
          },
          {
            "duration": 0.13636349999998743,
            "durationTicks": 96,
            "midi": 39,
            "name": "D#2",
            "ticks": 64512,
            "time": 91.636272,
            "velocity": 0.3937007874015748
          },
          {
            "duration": 0.13636350000000164,
            "durationTicks": 96,
            "midi": 36,
            "name": "C2",
            "ticks": 65088,
            "time": 92.454453,
            "velocity": 0.3937007874015748
          },
          {
            "duration": 0.13636350000000164,
            "durationTicks": 96,
            "midi": 48,
            "name": "C3",
            "ticks": 74688,
            "time": 106.090803,
            "velocity": 0.3937007874015748
          },
          {
            "duration": 0.13636350000000164,
            "durationTicks": 96,
            "midi": 46,
            "name": "A#2",
            "ticks": 74880,
            "time": 106.36353,
            "velocity": 0.3937007874015748
          },
          {
            "duration": 0.13636350000000164,
            "durationTicks": 96,
            "midi": 48,
            "name": "C3",
            "ticks": 75072,
            "time": 106.636257,
            "velocity": 0.3937007874015748
          },
          {
            "duration": 0.13636349999998743,
            "durationTicks": 96,
            "midi": 48,
            "name": "C3",
            "ticks": 76224,
            "time": 108.272619,
            "velocity": 0.3937007874015748
          },
          {
            "duration": 0.13636350000000164,
            "durationTicks": 96,
            "midi": 51,
            "name": "D#3",
            "ticks": 76416,
            "time": 108.545346,
            "velocity": 0.3937007874015748
          },
          {
            "duration": 0.13636350000000164,
            "durationTicks": 96,
            "midi": 48,
            "name": "C3",
            "ticks": 76608,
            "time": 108.818073,
            "velocity": 0.3937007874015748
          },
          {
            "duration": 0.13636350000000164,
            "durationTicks": 96,
            "midi": 48,
            "name": "C3",
            "ticks": 77760,
            "time": 110.454435,
            "velocity": 0.3937007874015748
          },
          {
            "duration": 0.13636350000000164,
            "durationTicks": 96,
            "midi": 46,
            "name": "A#2",
            "ticks": 77952,
            "time": 110.72716199999999,
            "velocity": 0.3937007874015748
          },
          {
            "duration": 0.13636350000000164,
            "durationTicks": 96,
            "midi": 48,
            "name": "C3",
            "ticks": 78144,
            "time": 110.999889,
            "velocity": 0.3937007874015748
          },
          {
            "duration": 0.13636350000000164,
            "durationTicks": 96,
            "midi": 48,
            "name": "C3",
            "ticks": 79296,
            "time": 112.636251,
            "velocity": 0.3937007874015748
          },
          {
            "duration": 0.13636349999998743,
            "durationTicks": 96,
            "midi": 51,
            "name": "D#3",
            "ticks": 79488,
            "time": 112.908978,
            "velocity": 0.3937007874015748
          },
          {
            "duration": 0.13636350000000164,
            "durationTicks": 96,
            "midi": 53,
            "name": "F3",
            "ticks": 79680,
            "time": 113.181705,
            "velocity": 0.3937007874015748
          },
          {
            "duration": 0.13636350000000164,
            "durationTicks": 96,
            "midi": 48,
            "name": "C3",
            "ticks": 80832,
            "time": 114.818067,
            "velocity": 0.3937007874015748
          },
          {
            "duration": 0.13636350000000164,
            "durationTicks": 96,
            "midi": 46,
            "name": "A#2",
            "ticks": 81024,
            "time": 115.090794,
            "velocity": 0.3937007874015748
          },
          {
            "duration": 0.13636349999998743,
            "durationTicks": 96,
            "midi": 48,
            "name": "C3",
            "ticks": 81216,
            "time": 115.363521,
            "velocity": 0.3937007874015748
          },
          {
            "duration": 0.13636350000000164,
            "durationTicks": 96,
            "midi": 48,
            "name": "C3",
            "ticks": 82368,
            "time": 116.999883,
            "velocity": 0.3937007874015748
          },
          {
            "duration": 0.13636350000000164,
            "durationTicks": 96,
            "midi": 51,
            "name": "D#3",
            "ticks": 82560,
            "time": 117.27261,
            "velocity": 0.3937007874015748
          },
          {
            "duration": 0.13636350000000164,
            "durationTicks": 96,
            "midi": 48,
            "name": "C3",
            "ticks": 82752,
            "time": 117.545337,
            "velocity": 0.3937007874015748
          },
          {
            "duration": 0.13636350000000164,
            "durationTicks": 96,
            "midi": 48,
            "name": "C3",
            "ticks": 83904,
            "time": 119.181699,
            "velocity": 0.3937007874015748
          },
          {
            "duration": 0.13636350000000164,
            "durationTicks": 96,
            "midi": 46,
            "name": "A#2",
            "ticks": 84096,
            "time": 119.454426,
            "velocity": 0.3937007874015748
          },
          {
            "duration": 0.13636350000000164,
            "durationTicks": 96,
            "midi": 48,
            "name": "C3",
            "ticks": 84288,
            "time": 119.727153,
            "velocity": 0.3937007874015748
          },
          {
            "duration": 0.13636350000000164,
            "durationTicks": 96,
            "midi": 48,
            "name": "C3",
            "ticks": 85440,
            "time": 121.36351499999999,
            "velocity": 0.3937007874015748
          },
          {
            "duration": 0.13636350000000164,
            "durationTicks": 96,
            "midi": 51,
            "name": "D#3",
            "ticks": 85632,
            "time": 121.636242,
            "velocity": 0.3937007874015748
          },
          {
            "duration": 0.13636350000000164,
            "durationTicks": 96,
            "midi": 53,
            "name": "F3",
            "ticks": 85824,
            "time": 121.908969,
            "velocity": 0.3937007874015748
          }
        ],
        "endOfTrackTicks": 85920
      },
      {
        "channel": 8,
        "controlChanges": {},
        "pitchBends": [],
        "instrument": {
          "family": "bass",
          "number": 36,
          "name": "slap bass 1"
        },
        "name": "Slap Bass",
        "notes": [
          {
            "duration": 0.13636350000000164,
            "durationTicks": 96,
            "midi": 34,
            "name": "A#1",
            "ticks": 50112,
            "time": 71.181747,
            "velocity": 0.3937007874015748
          },
          {
            "duration": 0.13636350000000164,
            "durationTicks": 96,
            "midi": 34,
            "name": "A#1",
            "ticks": 50304,
            "time": 71.454474,
            "velocity": 0.3937007874015748
          },
          {
            "duration": 0.13636350000000164,
            "durationTicks": 96,
            "midi": 34,
            "name": "A#1",
            "ticks": 50496,
            "time": 71.727201,
            "velocity": 0.3937007874015748
          },
          {
            "duration": 0.13636350000000164,
            "durationTicks": 96,
            "midi": 46,
            "name": "A#2",
            "ticks": 50496,
            "time": 71.727201,
            "velocity": 0.3937007874015748
          },
          {
            "duration": 0.13636350000000164,
            "durationTicks": 96,
            "midi": 46,
            "name": "A#2",
            "ticks": 50688,
            "time": 71.999928,
            "velocity": 0.3937007874015748
          },
          {
            "duration": 0.13636350000000164,
            "durationTicks": 96,
            "midi": 34,
            "name": "A#1",
            "ticks": 50688,
            "time": 71.999928,
            "velocity": 0.3937007874015748
          },
          {
            "duration": 0.13636350000000164,
            "durationTicks": 96,
            "midi": 48,
            "name": "C3",
            "ticks": 50880,
            "time": 72.272655,
            "velocity": 0.3937007874015748
          },
          {
            "duration": 0.13636350000000164,
            "durationTicks": 96,
            "midi": 36,
            "name": "C2",
            "ticks": 50880,
            "time": 72.272655,
            "velocity": 0.3937007874015748
          },
          {
            "duration": 0.13636350000000164,
            "durationTicks": 96,
            "midi": 48,
            "name": "C3",
            "ticks": 51072,
            "time": 72.545382,
            "velocity": 0.3937007874015748
          },
          {
            "duration": 0.13636350000000164,
            "durationTicks": 96,
            "midi": 36,
            "name": "C2",
            "ticks": 51072,
            "time": 72.545382,
            "velocity": 0.3937007874015748
          },
          {
            "duration": 0.13636350000000164,
            "durationTicks": 96,
            "midi": 34,
            "name": "A#1",
            "ticks": 51264,
            "time": 72.81810899999999,
            "velocity": 0.3937007874015748
          },
          {
            "duration": 0.13636350000000164,
            "durationTicks": 96,
            "midi": 46,
            "name": "A#2",
            "ticks": 51264,
            "time": 72.81810899999999,
            "velocity": 0.3937007874015748
          },
          {
            "duration": 0.13636350000000164,
            "durationTicks": 96,
            "midi": 48,
            "name": "C3",
            "ticks": 51360,
            "time": 72.9544725,
            "velocity": 0.3937007874015748
          },
          {
            "duration": 0.13636350000000164,
            "durationTicks": 96,
            "midi": 36,
            "name": "C2",
            "ticks": 51360,
            "time": 72.9544725,
            "velocity": 0.3937007874015748
          },
          {
            "duration": 0.13636350000000164,
            "durationTicks": 96,
            "midi": 34,
            "name": "A#1",
            "ticks": 53184,
            "time": 75.545379,
            "velocity": 0.3937007874015748
          },
          {
            "duration": 0.13636350000000164,
            "durationTicks": 96,
            "midi": 34,
            "name": "A#1",
            "ticks": 53376,
            "time": 75.818106,
            "velocity": 0.3937007874015748
          },
          {
            "duration": 0.13636350000000164,
            "durationTicks": 96,
            "midi": 34,
            "name": "A#1",
            "ticks": 53568,
            "time": 76.090833,
            "velocity": 0.3937007874015748
          },
          {
            "duration": 0.13636350000000164,
            "durationTicks": 96,
            "midi": 46,
            "name": "A#2",
            "ticks": 53568,
            "time": 76.090833,
            "velocity": 0.3937007874015748
          },
          {
            "duration": 0.13636350000000164,
            "durationTicks": 96,
            "midi": 46,
            "name": "A#2",
            "ticks": 53760,
            "time": 76.36355999999999,
            "velocity": 0.3937007874015748
          },
          {
            "duration": 0.13636350000000164,
            "durationTicks": 96,
            "midi": 34,
            "name": "A#1",
            "ticks": 53760,
            "time": 76.36355999999999,
            "velocity": 0.3937007874015748
          },
          {
            "duration": 0.13636350000000164,
            "durationTicks": 96,
            "midi": 48,
            "name": "C3",
            "ticks": 53952,
            "time": 76.636287,
            "velocity": 0.3937007874015748
          },
          {
            "duration": 0.13636350000000164,
            "durationTicks": 96,
            "midi": 36,
            "name": "C2",
            "ticks": 53952,
            "time": 76.636287,
            "velocity": 0.3937007874015748
          },
          {
            "duration": 0.13636350000000164,
            "durationTicks": 96,
            "midi": 48,
            "name": "C3",
            "ticks": 54144,
            "time": 76.909014,
            "velocity": 0.3937007874015748
          },
          {
            "duration": 0.13636350000000164,
            "durationTicks": 96,
            "midi": 36,
            "name": "C2",
            "ticks": 54144,
            "time": 76.909014,
            "velocity": 0.3937007874015748
          },
          {
            "duration": 0.13636350000000164,
            "durationTicks": 96,
            "midi": 46,
            "name": "A#2",
            "ticks": 54336,
            "time": 77.181741,
            "velocity": 0.3937007874015748
          },
          {
            "duration": 0.13636350000000164,
            "durationTicks": 96,
            "midi": 34,
            "name": "A#1",
            "ticks": 54336,
            "time": 77.181741,
            "velocity": 0.3937007874015748
          },
          {
            "duration": 0.13636350000000164,
            "durationTicks": 96,
            "midi": 39,
            "name": "D#2",
            "ticks": 54432,
            "time": 77.3181045,
            "velocity": 0.3937007874015748
          },
          {
            "duration": 0.13636350000000164,
            "durationTicks": 96,
            "midi": 51,
            "name": "D#3",
            "ticks": 54432,
            "time": 77.3181045,
            "velocity": 0.3937007874015748
          },
          {
            "duration": 0.13636350000000164,
            "durationTicks": 96,
            "midi": 48,
            "name": "C3",
            "ticks": 54720,
            "time": 77.727195,
            "velocity": 0.3937007874015748
          },
          {
            "duration": 0.13636350000000164,
            "durationTicks": 96,
            "midi": 36,
            "name": "C2",
            "ticks": 54720,
            "time": 77.727195,
            "velocity": 0.3937007874015748
          },
          {
            "duration": 0.13636350000000164,
            "durationTicks": 96,
            "midi": 34,
            "name": "A#1",
            "ticks": 56256,
            "time": 79.90901099999999,
            "velocity": 0.3937007874015748
          },
          {
            "duration": 0.13636350000000164,
            "durationTicks": 96,
            "midi": 34,
            "name": "A#1",
            "ticks": 56448,
            "time": 80.181738,
            "velocity": 0.3937007874015748
          },
          {
            "duration": 0.13636350000000164,
            "durationTicks": 96,
            "midi": 46,
            "name": "A#2",
            "ticks": 56640,
            "time": 80.454465,
            "velocity": 0.3937007874015748
          },
          {
            "duration": 0.13636350000000164,
            "durationTicks": 96,
            "midi": 34,
            "name": "A#1",
            "ticks": 56640,
            "time": 80.454465,
            "velocity": 0.3937007874015748
          },
          {
            "duration": 0.13636350000000164,
            "durationTicks": 96,
            "midi": 34,
            "name": "A#1",
            "ticks": 56832,
            "time": 80.727192,
            "velocity": 0.3937007874015748
          },
          {
            "duration": 0.13636350000000164,
            "durationTicks": 96,
            "midi": 46,
            "name": "A#2",
            "ticks": 56832,
            "time": 80.727192,
            "velocity": 0.3937007874015748
          },
          {
            "duration": 0.13636349999998743,
            "durationTicks": 96,
            "midi": 36,
            "name": "C2",
            "ticks": 57024,
            "time": 80.999919,
            "velocity": 0.3937007874015748
          },
          {
            "duration": 0.13636349999998743,
            "durationTicks": 96,
            "midi": 48,
            "name": "C3",
            "ticks": 57024,
            "time": 80.999919,
            "velocity": 0.3937007874015748
          },
          {
            "duration": 0.13636350000000164,
            "durationTicks": 96,
            "midi": 36,
            "name": "C2",
            "ticks": 57216,
            "time": 81.272646,
            "velocity": 0.3937007874015748
          },
          {
            "duration": 0.13636350000000164,
            "durationTicks": 96,
            "midi": 48,
            "name": "C3",
            "ticks": 57216,
            "time": 81.272646,
            "velocity": 0.3937007874015748
          },
          {
            "duration": 0.13636350000000164,
            "durationTicks": 96,
            "midi": 34,
            "name": "A#1",
            "ticks": 57408,
            "time": 81.545373,
            "velocity": 0.3937007874015748
          },
          {
            "duration": 0.13636350000000164,
            "durationTicks": 96,
            "midi": 46,
            "name": "A#2",
            "ticks": 57408,
            "time": 81.545373,
            "velocity": 0.3937007874015748
          },
          {
            "duration": 0.13636350000000164,
            "durationTicks": 96,
            "midi": 36,
            "name": "C2",
            "ticks": 57504,
            "time": 81.6817365,
            "velocity": 0.3937007874015748
          },
          {
            "duration": 0.13636350000000164,
            "durationTicks": 96,
            "midi": 48,
            "name": "C3",
            "ticks": 57504,
            "time": 81.6817365,
            "velocity": 0.3937007874015748
          },
          {
            "duration": 0.13636350000000164,
            "durationTicks": 96,
            "midi": 34,
            "name": "A#1",
            "ticks": 59328,
            "time": 84.272643,
            "velocity": 0.3937007874015748
          },
          {
            "duration": 0.13636349999998743,
            "durationTicks": 96,
            "midi": 34,
            "name": "A#1",
            "ticks": 59520,
            "time": 84.54537,
            "velocity": 0.3937007874015748
          },
          {
            "duration": 0.13636350000000164,
            "durationTicks": 96,
            "midi": 46,
            "name": "A#2",
            "ticks": 59712,
            "time": 84.818097,
            "velocity": 0.3937007874015748
          },
          {
            "duration": 0.13636350000000164,
            "durationTicks": 96,
            "midi": 34,
            "name": "A#1",
            "ticks": 59712,
            "time": 84.818097,
            "velocity": 0.3937007874015748
          },
          {
            "duration": 0.13636350000000164,
            "durationTicks": 96,
            "midi": 34,
            "name": "A#1",
            "ticks": 59904,
            "time": 85.090824,
            "velocity": 0.3937007874015748
          },
          {
            "duration": 0.13636350000000164,
            "durationTicks": 96,
            "midi": 46,
            "name": "A#2",
            "ticks": 59904,
            "time": 85.090824,
            "velocity": 0.3937007874015748
          },
          {
            "duration": 0.13636350000000164,
            "durationTicks": 96,
            "midi": 48,
            "name": "C3",
            "ticks": 60096,
            "time": 85.363551,
            "velocity": 0.3937007874015748
          },
          {
            "duration": 0.13636350000000164,
            "durationTicks": 96,
            "midi": 36,
            "name": "C2",
            "ticks": 60096,
            "time": 85.363551,
            "velocity": 0.3937007874015748
          },
          {
            "duration": 0.13636350000000164,
            "durationTicks": 96,
            "midi": 48,
            "name": "C3",
            "ticks": 60288,
            "time": 85.636278,
            "velocity": 0.3937007874015748
          },
          {
            "duration": 0.13636350000000164,
            "durationTicks": 96,
            "midi": 36,
            "name": "C2",
            "ticks": 60288,
            "time": 85.636278,
            "velocity": 0.3937007874015748
          },
          {
            "duration": 0.13636350000000164,
            "durationTicks": 96,
            "midi": 34,
            "name": "A#1",
            "ticks": 60480,
            "time": 85.909005,
            "velocity": 0.3937007874015748
          },
          {
            "duration": 0.13636350000000164,
            "durationTicks": 96,
            "midi": 46,
            "name": "A#2",
            "ticks": 60480,
            "time": 85.909005,
            "velocity": 0.3937007874015748
          },
          {
            "duration": 0.13636350000000164,
            "durationTicks": 96,
            "midi": 51,
            "name": "D#3",
            "ticks": 60576,
            "time": 86.0453685,
            "velocity": 0.3937007874015748
          },
          {
            "duration": 0.13636350000000164,
            "durationTicks": 96,
            "midi": 39,
            "name": "D#2",
            "ticks": 60576,
            "time": 86.0453685,
            "velocity": 0.3937007874015748
          },
          {
            "duration": 0.13636350000000164,
            "durationTicks": 96,
            "midi": 36,
            "name": "C2",
            "ticks": 60864,
            "time": 86.454459,
            "velocity": 0.3937007874015748
          },
          {
            "duration": 0.13636350000000164,
            "durationTicks": 96,
            "midi": 48,
            "name": "C3",
            "ticks": 60864,
            "time": 86.454459,
            "velocity": 0.3937007874015748
          },
          {
            "duration": 0.13636350000000164,
            "durationTicks": 96,
            "midi": 34,
            "name": "A#1",
            "ticks": 62400,
            "time": 88.636275,
            "velocity": 0.3937007874015748
          },
          {
            "duration": 0.13636350000000164,
            "durationTicks": 96,
            "midi": 34,
            "name": "A#1",
            "ticks": 62592,
            "time": 88.909002,
            "velocity": 0.3937007874015748
          },
          {
            "duration": 0.13636350000000164,
            "durationTicks": 96,
            "midi": 46,
            "name": "A#2",
            "ticks": 62784,
            "time": 89.181729,
            "velocity": 0.3937007874015748
          },
          {
            "duration": 0.13636350000000164,
            "durationTicks": 96,
            "midi": 34,
            "name": "A#1",
            "ticks": 62784,
            "time": 89.181729,
            "velocity": 0.3937007874015748
          },
          {
            "duration": 0.13636350000000164,
            "durationTicks": 96,
            "midi": 34,
            "name": "A#1",
            "ticks": 62976,
            "time": 89.454456,
            "velocity": 0.3937007874015748
          },
          {
            "duration": 0.13636350000000164,
            "durationTicks": 96,
            "midi": 46,
            "name": "A#2",
            "ticks": 62976,
            "time": 89.454456,
            "velocity": 0.3937007874015748
          },
          {
            "duration": 0.13636350000000164,
            "durationTicks": 96,
            "midi": 36,
            "name": "C2",
            "ticks": 63168,
            "time": 89.727183,
            "velocity": 0.3937007874015748
          },
          {
            "duration": 0.13636350000000164,
            "durationTicks": 96,
            "midi": 48,
            "name": "C3",
            "ticks": 63168,
            "time": 89.727183,
            "velocity": 0.3937007874015748
          },
          {
            "duration": 0.13636350000000164,
            "durationTicks": 96,
            "midi": 36,
            "name": "C2",
            "ticks": 63360,
            "time": 89.99991,
            "velocity": 0.3937007874015748
          },
          {
            "duration": 0.13636350000000164,
            "durationTicks": 96,
            "midi": 48,
            "name": "C3",
            "ticks": 63360,
            "time": 89.99991,
            "velocity": 0.3937007874015748
          },
          {
            "duration": 0.13636350000000164,
            "durationTicks": 96,
            "midi": 46,
            "name": "A#2",
            "ticks": 63552,
            "time": 90.272637,
            "velocity": 0.3937007874015748
          },
          {
            "duration": 0.13636350000000164,
            "durationTicks": 96,
            "midi": 34,
            "name": "A#1",
            "ticks": 63552,
            "time": 90.272637,
            "velocity": 0.3937007874015748
          },
          {
            "duration": 0.13636349999998743,
            "durationTicks": 96,
            "midi": 48,
            "name": "C3",
            "ticks": 63648,
            "time": 90.4090005,
            "velocity": 0.3937007874015748
          },
          {
            "duration": 0.13636349999998743,
            "durationTicks": 96,
            "midi": 36,
            "name": "C2",
            "ticks": 63648,
            "time": 90.4090005,
            "velocity": 0.3937007874015748
          },
          {
            "duration": 0.13636350000000164,
            "durationTicks": 96,
            "midi": 34,
            "name": "A#1",
            "ticks": 65472,
            "time": 92.999907,
            "velocity": 0.3937007874015748
          },
          {
            "duration": 0.13636350000000164,
            "durationTicks": 96,
            "midi": 34,
            "name": "A#1",
            "ticks": 65664,
            "time": 93.272634,
            "velocity": 0.3937007874015748
          },
          {
            "duration": 0.13636350000000164,
            "durationTicks": 96,
            "midi": 34,
            "name": "A#1",
            "ticks": 65856,
            "time": 93.545361,
            "velocity": 0.3937007874015748
          },
          {
            "duration": 0.13636350000000164,
            "durationTicks": 96,
            "midi": 46,
            "name": "A#2",
            "ticks": 65856,
            "time": 93.545361,
            "velocity": 0.3937007874015748
          },
          {
            "duration": 0.13636350000000164,
            "durationTicks": 96,
            "midi": 46,
            "name": "A#2",
            "ticks": 66048,
            "time": 93.818088,
            "velocity": 0.3937007874015748
          },
          {
            "duration": 0.13636350000000164,
            "durationTicks": 96,
            "midi": 34,
            "name": "A#1",
            "ticks": 66048,
            "time": 93.818088,
            "velocity": 0.3937007874015748
          },
          {
            "duration": 0.13636350000000164,
            "durationTicks": 96,
            "midi": 48,
            "name": "C3",
            "ticks": 66240,
            "time": 94.09081499999999,
            "velocity": 0.3937007874015748
          },
          {
            "duration": 0.13636350000000164,
            "durationTicks": 96,
            "midi": 36,
            "name": "C2",
            "ticks": 66240,
            "time": 94.09081499999999,
            "velocity": 0.3937007874015748
          },
          {
            "duration": 0.13636350000000164,
            "durationTicks": 96,
            "midi": 36,
            "name": "C2",
            "ticks": 66432,
            "time": 94.363542,
            "velocity": 0.3937007874015748
          },
          {
            "duration": 0.13636350000000164,
            "durationTicks": 96,
            "midi": 48,
            "name": "C3",
            "ticks": 66432,
            "time": 94.363542,
            "velocity": 0.3937007874015748
          },
          {
            "duration": 0.13636350000000164,
            "durationTicks": 96,
            "midi": 34,
            "name": "A#1",
            "ticks": 66624,
            "time": 94.636269,
            "velocity": 0.3937007874015748
          },
          {
            "duration": 0.13636350000000164,
            "durationTicks": 96,
            "midi": 46,
            "name": "A#2",
            "ticks": 66624,
            "time": 94.636269,
            "velocity": 0.3937007874015748
          },
          {
            "duration": 0.13636350000000164,
            "durationTicks": 96,
            "midi": 51,
            "name": "D#3",
            "ticks": 66720,
            "time": 94.7726325,
            "velocity": 0.3937007874015748
          },
          {
            "duration": 0.13636350000000164,
            "durationTicks": 96,
            "midi": 39,
            "name": "D#2",
            "ticks": 66720,
            "time": 94.7726325,
            "velocity": 0.3937007874015748
          },
          {
            "duration": 0.13636349999998743,
            "durationTicks": 96,
            "midi": 36,
            "name": "C2",
            "ticks": 67008,
            "time": 95.181723,
            "velocity": 0.3937007874015748
          },
          {
            "duration": 0.13636349999998743,
            "durationTicks": 96,
            "midi": 48,
            "name": "C3",
            "ticks": 67008,
            "time": 95.181723,
            "velocity": 0.3937007874015748
          },
          {
            "duration": 0.13636349999998743,
            "durationTicks": 96,
            "midi": 63,
            "name": "D#4",
            "ticks": 73728,
            "time": 104.727168,
            "velocity": 0.3937007874015748
          },
          {
            "duration": 0.13636350000000164,
            "durationTicks": 96,
            "midi": 63,
            "name": "D#4",
            "ticks": 73920,
            "time": 104.999895,
            "velocity": 0.3937007874015748
          },
          {
            "duration": 0.13636350000000164,
            "durationTicks": 96,
            "midi": 63,
            "name": "D#4",
            "ticks": 74016,
            "time": 105.1362585,
            "velocity": 0.3937007874015748
          },
          {
            "duration": 0.13636350000000164,
            "durationTicks": 96,
            "midi": 60,
            "name": "C4",
            "ticks": 74304,
            "time": 105.545349,
            "velocity": 0.3937007874015748
          },
          {
            "duration": 0.13636349999998743,
            "durationTicks": 96,
            "midi": 63,
            "name": "D#4",
            "ticks": 74496,
            "time": 105.818076,
            "velocity": 0.3937007874015748
          },
          {
            "duration": 0.13636350000000164,
            "durationTicks": 96,
            "midi": 60,
            "name": "C4",
            "ticks": 74688,
            "time": 106.090803,
            "velocity": 0.3937007874015748
          },
          {
            "duration": 0.13636350000000164,
            "durationTicks": 96,
            "midi": 63,
            "name": "D#4",
            "ticks": 74880,
            "time": 106.36353,
            "velocity": 0.3937007874015748
          },
          {
            "duration": 0.13636350000000164,
            "durationTicks": 96,
            "midi": 60,
            "name": "C4",
            "ticks": 75072,
            "time": 106.636257,
            "velocity": 0.3937007874015748
          },
          {
            "duration": 0.13636350000000164,
            "durationTicks": 96,
            "midi": 63,
            "name": "D#4",
            "ticks": 75264,
            "time": 106.908984,
            "velocity": 0.3937007874015748
          },
          {
            "duration": 0.13636350000000164,
            "durationTicks": 96,
            "midi": 63,
            "name": "D#4",
            "ticks": 75456,
            "time": 107.18171099999999,
            "velocity": 0.3937007874015748
          },
          {
            "duration": 0.13636350000000164,
            "durationTicks": 96,
            "midi": 63,
            "name": "D#4",
            "ticks": 75552,
            "time": 107.3180745,
            "velocity": 0.3937007874015748
          },
          {
            "duration": 0.13636350000000164,
            "durationTicks": 96,
            "midi": 60,
            "name": "C4",
            "ticks": 75840,
            "time": 107.727165,
            "velocity": 0.3937007874015748
          },
          {
            "duration": 0.13636350000000164,
            "durationTicks": 96,
            "midi": 63,
            "name": "D#4",
            "ticks": 76032,
            "time": 107.999892,
            "velocity": 0.3937007874015748
          },
          {
            "duration": 0.13636349999998743,
            "durationTicks": 96,
            "midi": 65,
            "name": "F4",
            "ticks": 76224,
            "time": 108.272619,
            "velocity": 0.3937007874015748
          },
          {
            "duration": 0.13636350000000164,
            "durationTicks": 96,
            "midi": 63,
            "name": "D#4",
            "ticks": 76416,
            "time": 108.545346,
            "velocity": 0.3937007874015748
          },
          {
            "duration": 0.13636350000000164,
            "durationTicks": 96,
            "midi": 60,
            "name": "C4",
            "ticks": 76608,
            "time": 108.818073,
            "velocity": 0.3937007874015748
          },
          {
            "duration": 0.13636350000000164,
            "durationTicks": 96,
            "midi": 63,
            "name": "D#4",
            "ticks": 76800,
            "time": 109.0908,
            "velocity": 0.3937007874015748
          },
          {
            "duration": 0.13636349999998743,
            "durationTicks": 96,
            "midi": 63,
            "name": "D#4",
            "ticks": 76992,
            "time": 109.363527,
            "velocity": 0.3937007874015748
          },
          {
            "duration": 0.13636350000000164,
            "durationTicks": 96,
            "midi": 63,
            "name": "D#4",
            "ticks": 77088,
            "time": 109.49989049999999,
            "velocity": 0.3937007874015748
          },
          {
            "duration": 0.13636350000000164,
            "durationTicks": 96,
            "midi": 60,
            "name": "C4",
            "ticks": 77376,
            "time": 109.908981,
            "velocity": 0.3937007874015748
          },
          {
            "duration": 0.13636350000000164,
            "durationTicks": 96,
            "midi": 63,
            "name": "D#4",
            "ticks": 77568,
            "time": 110.181708,
            "velocity": 0.3937007874015748
          },
          {
            "duration": 0.13636350000000164,
            "durationTicks": 96,
            "midi": 60,
            "name": "C4",
            "ticks": 77760,
            "time": 110.454435,
            "velocity": 0.3937007874015748
          },
          {
            "duration": 0.13636350000000164,
            "durationTicks": 96,
            "midi": 58,
            "name": "A#3",
            "ticks": 77952,
            "time": 110.72716199999999,
            "velocity": 0.3937007874015748
          },
          {
            "duration": 0.13636350000000164,
            "durationTicks": 96,
            "midi": 60,
            "name": "C4",
            "ticks": 78144,
            "time": 110.999889,
            "velocity": 0.3937007874015748
          },
          {
            "duration": 0.13636350000000164,
            "durationTicks": 96,
            "midi": 63,
            "name": "D#4",
            "ticks": 78336,
            "time": 111.272616,
            "velocity": 0.3937007874015748
          },
          {
            "duration": 0.13636350000000164,
            "durationTicks": 96,
            "midi": 63,
            "name": "D#4",
            "ticks": 78528,
            "time": 111.545343,
            "velocity": 0.3937007874015748
          },
          {
            "duration": 0.13636350000000164,
            "durationTicks": 96,
            "midi": 63,
            "name": "D#4",
            "ticks": 78624,
            "time": 111.6817065,
            "velocity": 0.3937007874015748
          },
          {
            "duration": 0.13636350000000164,
            "durationTicks": 96,
            "midi": 60,
            "name": "C4",
            "ticks": 78912,
            "time": 112.090797,
            "velocity": 0.3937007874015748
          },
          {
            "duration": 0.13636350000000164,
            "durationTicks": 96,
            "midi": 63,
            "name": "D#4",
            "ticks": 79104,
            "time": 112.363524,
            "velocity": 0.3937007874015748
          },
          {
            "duration": 0.13636350000000164,
            "durationTicks": 96,
            "midi": 60,
            "name": "C4",
            "ticks": 79296,
            "time": 112.636251,
            "velocity": 0.3937007874015748
          },
          {
            "duration": 0.13636349999998743,
            "durationTicks": 96,
            "midi": 63,
            "name": "D#4",
            "ticks": 79488,
            "time": 112.908978,
            "velocity": 0.3937007874015748
          },
          {
            "duration": 0.13636350000000164,
            "durationTicks": 96,
            "midi": 65,
            "name": "F4",
            "ticks": 79680,
            "time": 113.181705,
            "velocity": 0.3937007874015748
          },
          {
            "duration": 0.13636350000000164,
            "durationTicks": 96,
            "midi": 63,
            "name": "D#4",
            "ticks": 79872,
            "time": 113.454432,
            "velocity": 0.3937007874015748
          },
          {
            "duration": 0.13636350000000164,
            "durationTicks": 96,
            "midi": 63,
            "name": "D#4",
            "ticks": 80064,
            "time": 113.727159,
            "velocity": 0.3937007874015748
          },
          {
            "duration": 0.13636350000000164,
            "durationTicks": 96,
            "midi": 63,
            "name": "D#4",
            "ticks": 80160,
            "time": 113.8635225,
            "velocity": 0.3937007874015748
          },
          {
            "duration": 0.13636350000000164,
            "durationTicks": 96,
            "midi": 60,
            "name": "C4",
            "ticks": 80448,
            "time": 114.27261299999999,
            "velocity": 0.3937007874015748
          },
          {
            "duration": 0.13636350000000164,
            "durationTicks": 96,
            "midi": 63,
            "name": "D#4",
            "ticks": 80640,
            "time": 114.54534,
            "velocity": 0.3937007874015748
          },
          {
            "duration": 0.13636350000000164,
            "durationTicks": 96,
            "midi": 60,
            "name": "C4",
            "ticks": 80832,
            "time": 114.818067,
            "velocity": 0.3937007874015748
          },
          {
            "duration": 0.13636350000000164,
            "durationTicks": 96,
            "midi": 63,
            "name": "D#4",
            "ticks": 81024,
            "time": 115.090794,
            "velocity": 0.3937007874015748
          },
          {
            "duration": 0.13636349999998743,
            "durationTicks": 96,
            "midi": 60,
            "name": "C4",
            "ticks": 81216,
            "time": 115.363521,
            "velocity": 0.3937007874015748
          },
          {
            "duration": 0.13636350000000164,
            "durationTicks": 96,
            "midi": 63,
            "name": "D#4",
            "ticks": 81408,
            "time": 115.636248,
            "velocity": 0.3937007874015748
          },
          {
            "duration": 0.13636350000000164,
            "durationTicks": 96,
            "midi": 63,
            "name": "D#4",
            "ticks": 81600,
            "time": 115.908975,
            "velocity": 0.3937007874015748
          },
          {
            "duration": 0.13636350000000164,
            "durationTicks": 96,
            "midi": 63,
            "name": "D#4",
            "ticks": 81696,
            "time": 116.0453385,
            "velocity": 0.3937007874015748
          },
          {
            "duration": 0.13636349999998743,
            "durationTicks": 96,
            "midi": 60,
            "name": "C4",
            "ticks": 81984,
            "time": 116.454429,
            "velocity": 0.3937007874015748
          },
          {
            "duration": 0.13636350000000164,
            "durationTicks": 96,
            "midi": 63,
            "name": "D#4",
            "ticks": 82176,
            "time": 116.727156,
            "velocity": 0.3937007874015748
          },
          {
            "duration": 0.13636350000000164,
            "durationTicks": 96,
            "midi": 65,
            "name": "F4",
            "ticks": 82368,
            "time": 116.999883,
            "velocity": 0.3937007874015748
          },
          {
            "duration": 0.13636350000000164,
            "durationTicks": 96,
            "midi": 63,
            "name": "D#4",
            "ticks": 82560,
            "time": 117.27261,
            "velocity": 0.3937007874015748
          },
          {
            "duration": 0.13636350000000164,
            "durationTicks": 96,
            "midi": 60,
            "name": "C4",
            "ticks": 82752,
            "time": 117.545337,
            "velocity": 0.3937007874015748
          },
          {
            "duration": 0.13636350000000164,
            "durationTicks": 96,
            "midi": 63,
            "name": "D#4",
            "ticks": 82944,
            "time": 117.81806399999999,
            "velocity": 0.3937007874015748
          },
          {
            "duration": 0.13636350000000164,
            "durationTicks": 96,
            "midi": 63,
            "name": "D#4",
            "ticks": 83136,
            "time": 118.090791,
            "velocity": 0.3937007874015748
          },
          {
            "duration": 0.13636350000000164,
            "durationTicks": 96,
            "midi": 63,
            "name": "D#4",
            "ticks": 83232,
            "time": 118.2271545,
            "velocity": 0.3937007874015748
          },
          {
            "duration": 0.13636350000000164,
            "durationTicks": 96,
            "midi": 60,
            "name": "C4",
            "ticks": 83520,
            "time": 118.636245,
            "velocity": 0.3937007874015748
          },
          {
            "duration": 0.13636349999998743,
            "durationTicks": 96,
            "midi": 63,
            "name": "D#4",
            "ticks": 83712,
            "time": 118.908972,
            "velocity": 0.3937007874015748
          },
          {
            "duration": 0.13636350000000164,
            "durationTicks": 96,
            "midi": 60,
            "name": "C4",
            "ticks": 83904,
            "time": 119.181699,
            "velocity": 0.3937007874015748
          },
          {
            "duration": 0.13636350000000164,
            "durationTicks": 96,
            "midi": 58,
            "name": "A#3",
            "ticks": 84096,
            "time": 119.454426,
            "velocity": 0.3937007874015748
          },
          {
            "duration": 0.13636350000000164,
            "durationTicks": 96,
            "midi": 60,
            "name": "C4",
            "ticks": 84288,
            "time": 119.727153,
            "velocity": 0.3937007874015748
          },
          {
            "duration": 0.13636349999998743,
            "durationTicks": 96,
            "midi": 63,
            "name": "D#4",
            "ticks": 84480,
            "time": 119.99988,
            "velocity": 0.3937007874015748
          },
          {
            "duration": 0.13636350000000164,
            "durationTicks": 96,
            "midi": 63,
            "name": "D#4",
            "ticks": 84672,
            "time": 120.272607,
            "velocity": 0.3937007874015748
          },
          {
            "duration": 0.13636350000000164,
            "durationTicks": 96,
            "midi": 63,
            "name": "D#4",
            "ticks": 84768,
            "time": 120.4089705,
            "velocity": 0.3937007874015748
          },
          {
            "duration": 0.13636350000000164,
            "durationTicks": 96,
            "midi": 60,
            "name": "C4",
            "ticks": 85056,
            "time": 120.818061,
            "velocity": 0.3937007874015748
          },
          {
            "duration": 0.13636350000000164,
            "durationTicks": 96,
            "midi": 63,
            "name": "D#4",
            "ticks": 85248,
            "time": 121.090788,
            "velocity": 0.3937007874015748
          },
          {
            "duration": 0.13636350000000164,
            "durationTicks": 96,
            "midi": 60,
            "name": "C4",
            "ticks": 85440,
            "time": 121.36351499999999,
            "velocity": 0.3937007874015748
          },
          {
            "duration": 0.13636350000000164,
            "durationTicks": 96,
            "midi": 63,
            "name": "D#4",
            "ticks": 85632,
            "time": 121.636242,
            "velocity": 0.3937007874015748
          },
          {
            "duration": 0.13636350000000164,
            "durationTicks": 96,
            "midi": 65,
            "name": "F4",
            "ticks": 85824,
            "time": 121.908969,
            "velocity": 0.3937007874015748
          }
        ],
        "endOfTrackTicks": 85920
      },
      {
        "channel": 10,
        "controlChanges": {},
        "pitchBends": [],
        "instrument": {
          "family": "ensemble",
          "number": 50,
          "name": "synthstrings 1"
        },
        "name": "Pop Synth",
        "notes": [
          {
            "duration": 0.170454375,
            "durationTicks": 120,
            "midi": 38,
            "name": "D2",
            "ticks": 0,
            "time": 0,
            "velocity": 0.3937007874015748
          },
          {
            "duration": 0.170454375,
            "durationTicks": 120,
            "midi": 26,
            "name": "D1",
            "ticks": 0,
            "time": 0,
            "velocity": 0.3937007874015748
          },
          {
            "duration": 0.170454375,
            "durationTicks": 120,
            "midi": 38,
            "name": "D2",
            "ticks": 192,
            "time": 0.272727,
            "velocity": 0.3937007874015748
          },
          {
            "duration": 0.170454375,
            "durationTicks": 120,
            "midi": 26,
            "name": "D1",
            "ticks": 192,
            "time": 0.272727,
            "velocity": 0.3937007874015748
          },
          {
            "duration": 0.17045437500000005,
            "durationTicks": 120,
            "midi": 38,
            "name": "D2",
            "ticks": 384,
            "time": 0.545454,
            "velocity": 0.3937007874015748
          },
          {
            "duration": 0.17045437500000005,
            "durationTicks": 120,
            "midi": 26,
            "name": "D1",
            "ticks": 384,
            "time": 0.545454,
            "velocity": 0.3937007874015748
          },
          {
            "duration": 0.17045437499999994,
            "durationTicks": 120,
            "midi": 24,
            "name": "C1",
            "ticks": 576,
            "time": 0.818181,
            "velocity": 0.3937007874015748
          },
          {
            "duration": 0.17045437499999994,
            "durationTicks": 120,
            "midi": 36,
            "name": "C2",
            "ticks": 576,
            "time": 0.818181,
            "velocity": 0.3937007874015748
          },
          {
            "duration": 0.17045437499999982,
            "durationTicks": 120,
            "midi": 26,
            "name": "D1",
            "ticks": 1536,
            "time": 2.181816,
            "velocity": 0.3937007874015748
          },
          {
            "duration": 0.17045437499999982,
            "durationTicks": 120,
            "midi": 38,
            "name": "D2",
            "ticks": 1536,
            "time": 2.181816,
            "velocity": 0.3937007874015748
          },
          {
            "duration": 0.17045437499999982,
            "durationTicks": 120,
            "midi": 38,
            "name": "D2",
            "ticks": 1728,
            "time": 2.454543,
            "velocity": 0.3937007874015748
          },
          {
            "duration": 0.17045437499999982,
            "durationTicks": 120,
            "midi": 26,
            "name": "D1",
            "ticks": 1728,
            "time": 2.454543,
            "velocity": 0.3937007874015748
          },
          {
            "duration": 0.17045437500000027,
            "durationTicks": 120,
            "midi": 26,
            "name": "D1",
            "ticks": 1920,
            "time": 2.72727,
            "velocity": 0.3937007874015748
          },
          {
            "duration": 0.17045437500000027,
            "durationTicks": 120,
            "midi": 38,
            "name": "D2",
            "ticks": 1920,
            "time": 2.72727,
            "velocity": 0.3937007874015748
          },
          {
            "duration": 0.17045437499999982,
            "durationTicks": 120,
            "midi": 36,
            "name": "C2",
            "ticks": 2112,
            "time": 2.999997,
            "velocity": 0.3937007874015748
          },
          {
            "duration": 0.17045437499999982,
            "durationTicks": 120,
            "midi": 24,
            "name": "C1",
            "ticks": 2112,
            "time": 2.999997,
            "velocity": 0.3937007874015748
          },
          {
            "duration": 0.17045437500000027,
            "durationTicks": 120,
            "midi": 38,
            "name": "D2",
            "ticks": 3072,
            "time": 4.363632,
            "velocity": 0.3937007874015748
          },
          {
            "duration": 0.17045437500000027,
            "durationTicks": 120,
            "midi": 26,
            "name": "D1",
            "ticks": 3072,
            "time": 4.363632,
            "velocity": 0.3937007874015748
          },
          {
            "duration": 0.17045437500000027,
            "durationTicks": 120,
            "midi": 26,
            "name": "D1",
            "ticks": 3264,
            "time": 4.636359,
            "velocity": 0.3937007874015748
          },
          {
            "duration": 0.17045437500000027,
            "durationTicks": 120,
            "midi": 38,
            "name": "D2",
            "ticks": 3264,
            "time": 4.636359,
            "velocity": 0.3937007874015748
          },
          {
            "duration": 0.17045437499999938,
            "durationTicks": 120,
            "midi": 38,
            "name": "D2",
            "ticks": 3456,
            "time": 4.909086,
            "velocity": 0.3937007874015748
          },
          {
            "duration": 0.17045437499999938,
            "durationTicks": 120,
            "midi": 26,
            "name": "D1",
            "ticks": 3456,
            "time": 4.909086,
            "velocity": 0.3937007874015748
          },
          {
            "duration": 0.17045437500000027,
            "durationTicks": 120,
            "midi": 36,
            "name": "C2",
            "ticks": 3648,
            "time": 5.181813,
            "velocity": 0.3937007874015748
          },
          {
            "duration": 0.17045437500000027,
            "durationTicks": 120,
            "midi": 24,
            "name": "C1",
            "ticks": 3648,
            "time": 5.181813,
            "velocity": 0.3937007874015748
          },
          {
            "duration": 0.17045437499999938,
            "durationTicks": 120,
            "midi": 38,
            "name": "D2",
            "ticks": 4608,
            "time": 6.545448,
            "velocity": 0.3937007874015748
          },
          {
            "duration": 0.17045437499999938,
            "durationTicks": 120,
            "midi": 26,
            "name": "D1",
            "ticks": 4608,
            "time": 6.545448,
            "velocity": 0.3937007874015748
          },
          {
            "duration": 0.17045437500000027,
            "durationTicks": 120,
            "midi": 38,
            "name": "D2",
            "ticks": 4800,
            "time": 6.818175,
            "velocity": 0.3937007874015748
          },
          {
            "duration": 0.17045437500000027,
            "durationTicks": 120,
            "midi": 26,
            "name": "D1",
            "ticks": 4800,
            "time": 6.818175,
            "velocity": 0.3937007874015748
          },
          {
            "duration": 0.17045437500000027,
            "durationTicks": 120,
            "midi": 38,
            "name": "D2",
            "ticks": 4992,
            "time": 7.090902,
            "velocity": 0.3937007874015748
          },
          {
            "duration": 0.17045437500000027,
            "durationTicks": 120,
            "midi": 26,
            "name": "D1",
            "ticks": 4992,
            "time": 7.090902,
            "velocity": 0.3937007874015748
          },
          {
            "duration": 0.17045437500000027,
            "durationTicks": 120,
            "midi": 24,
            "name": "C1",
            "ticks": 5184,
            "time": 7.3636289999999995,
            "velocity": 0.3937007874015748
          },
          {
            "duration": 0.17045437500000027,
            "durationTicks": 120,
            "midi": 36,
            "name": "C2",
            "ticks": 5184,
            "time": 7.3636289999999995,
            "velocity": 0.3937007874015748
          },
          {
            "duration": 0.17045437500000027,
            "durationTicks": 120,
            "midi": 26,
            "name": "D1",
            "ticks": 6144,
            "time": 8.727264,
            "velocity": 0.3937007874015748
          },
          {
            "duration": 0.17045437500000027,
            "durationTicks": 120,
            "midi": 38,
            "name": "D2",
            "ticks": 6144,
            "time": 8.727264,
            "velocity": 0.3937007874015748
          },
          {
            "duration": 0.17045437500000027,
            "durationTicks": 120,
            "midi": 38,
            "name": "D2",
            "ticks": 6336,
            "time": 8.999991,
            "velocity": 0.3937007874015748
          },
          {
            "duration": 0.17045437500000027,
            "durationTicks": 120,
            "midi": 26,
            "name": "D1",
            "ticks": 6336,
            "time": 8.999991,
            "velocity": 0.3937007874015748
          },
          {
            "duration": 0.17045437500000027,
            "durationTicks": 120,
            "midi": 26,
            "name": "D1",
            "ticks": 6528,
            "time": 9.272718,
            "velocity": 0.3937007874015748
          },
          {
            "duration": 0.17045437500000027,
            "durationTicks": 120,
            "midi": 38,
            "name": "D2",
            "ticks": 6528,
            "time": 9.272718,
            "velocity": 0.3937007874015748
          },
          {
            "duration": 0.17045437500000027,
            "durationTicks": 120,
            "midi": 36,
            "name": "C2",
            "ticks": 6720,
            "time": 9.545444999999999,
            "velocity": 0.3937007874015748
          },
          {
            "duration": 0.17045437500000027,
            "durationTicks": 120,
            "midi": 24,
            "name": "C1",
            "ticks": 6720,
            "time": 9.545444999999999,
            "velocity": 0.3937007874015748
          },
          {
            "duration": 0.17045437500000027,
            "durationTicks": 120,
            "midi": 38,
            "name": "D2",
            "ticks": 7680,
            "time": 10.90908,
            "velocity": 0.3937007874015748
          },
          {
            "duration": 0.17045437500000027,
            "durationTicks": 120,
            "midi": 26,
            "name": "D1",
            "ticks": 7680,
            "time": 10.90908,
            "velocity": 0.3937007874015748
          },
          {
            "duration": 0.17045437500000027,
            "durationTicks": 120,
            "midi": 26,
            "name": "D1",
            "ticks": 7872,
            "time": 11.181807,
            "velocity": 0.3937007874015748
          },
          {
            "duration": 0.17045437500000027,
            "durationTicks": 120,
            "midi": 38,
            "name": "D2",
            "ticks": 7872,
            "time": 11.181807,
            "velocity": 0.3937007874015748
          },
          {
            "duration": 0.1704543749999985,
            "durationTicks": 120,
            "midi": 38,
            "name": "D2",
            "ticks": 8064,
            "time": 11.454534,
            "velocity": 0.3937007874015748
          },
          {
            "duration": 0.1704543749999985,
            "durationTicks": 120,
            "midi": 26,
            "name": "D1",
            "ticks": 8064,
            "time": 11.454534,
            "velocity": 0.3937007874015748
          },
          {
            "duration": 0.17045437500000027,
            "durationTicks": 120,
            "midi": 36,
            "name": "C2",
            "ticks": 8256,
            "time": 11.727261,
            "velocity": 0.3937007874015748
          },
          {
            "duration": 0.17045437500000027,
            "durationTicks": 120,
            "midi": 24,
            "name": "C1",
            "ticks": 8256,
            "time": 11.727261,
            "velocity": 0.3937007874015748
          },
          {
            "duration": 0.1704543749999985,
            "durationTicks": 120,
            "midi": 38,
            "name": "D2",
            "ticks": 9216,
            "time": 13.090896,
            "velocity": 0.3937007874015748
          },
          {
            "duration": 0.1704543749999985,
            "durationTicks": 120,
            "midi": 26,
            "name": "D1",
            "ticks": 9216,
            "time": 13.090896,
            "velocity": 0.3937007874015748
          },
          {
            "duration": 0.17045437500000027,
            "durationTicks": 120,
            "midi": 38,
            "name": "D2",
            "ticks": 9408,
            "time": 13.363623,
            "velocity": 0.3937007874015748
          },
          {
            "duration": 0.17045437500000027,
            "durationTicks": 120,
            "midi": 26,
            "name": "D1",
            "ticks": 9408,
            "time": 13.363623,
            "velocity": 0.3937007874015748
          },
          {
            "duration": 0.17045437500000027,
            "durationTicks": 120,
            "midi": 38,
            "name": "D2",
            "ticks": 9600,
            "time": 13.63635,
            "velocity": 0.3937007874015748
          },
          {
            "duration": 0.17045437500000027,
            "durationTicks": 120,
            "midi": 26,
            "name": "D1",
            "ticks": 9600,
            "time": 13.63635,
            "velocity": 0.3937007874015748
          },
          {
            "duration": 0.17045437500000027,
            "durationTicks": 120,
            "midi": 24,
            "name": "C1",
            "ticks": 9792,
            "time": 13.909077,
            "velocity": 0.3937007874015748
          },
          {
            "duration": 0.17045437500000027,
            "durationTicks": 120,
            "midi": 36,
            "name": "C2",
            "ticks": 9792,
            "time": 13.909077,
            "velocity": 0.3937007874015748
          },
          {
            "duration": 0.17045437500000027,
            "durationTicks": 120,
            "midi": 26,
            "name": "D1",
            "ticks": 10752,
            "time": 15.272712,
            "velocity": 0.3937007874015748
          },
          {
            "duration": 0.17045437500000027,
            "durationTicks": 120,
            "midi": 38,
            "name": "D2",
            "ticks": 10752,
            "time": 15.272712,
            "velocity": 0.3937007874015748
          },
          {
            "duration": 0.17045437500000027,
            "durationTicks": 120,
            "midi": 38,
            "name": "D2",
            "ticks": 10944,
            "time": 15.545439,
            "velocity": 0.3937007874015748
          },
          {
            "duration": 0.17045437500000027,
            "durationTicks": 120,
            "midi": 26,
            "name": "D1",
            "ticks": 10944,
            "time": 15.545439,
            "velocity": 0.3937007874015748
          },
          {
            "duration": 0.17045437500000027,
            "durationTicks": 120,
            "midi": 26,
            "name": "D1",
            "ticks": 11136,
            "time": 15.818166,
            "velocity": 0.3937007874015748
          },
          {
            "duration": 0.17045437500000027,
            "durationTicks": 120,
            "midi": 38,
            "name": "D2",
            "ticks": 11136,
            "time": 15.818166,
            "velocity": 0.3937007874015748
          },
          {
            "duration": 0.1704543749999985,
            "durationTicks": 120,
            "midi": 36,
            "name": "C2",
            "ticks": 11328,
            "time": 16.090893,
            "velocity": 0.3937007874015748
          },
          {
            "duration": 0.1704543749999985,
            "durationTicks": 120,
            "midi": 24,
            "name": "C1",
            "ticks": 11328,
            "time": 16.090893,
            "velocity": 0.3937007874015748
          },
          {
            "duration": 0.1704543749999985,
            "durationTicks": 120,
            "midi": 38,
            "name": "D2",
            "ticks": 12288,
            "time": 17.454528,
            "velocity": 0.3937007874015748
          },
          {
            "duration": 0.1704543749999985,
            "durationTicks": 120,
            "midi": 26,
            "name": "D1",
            "ticks": 12288,
            "time": 17.454528,
            "velocity": 0.3937007874015748
          },
          {
            "duration": 0.17045437500000205,
            "durationTicks": 120,
            "midi": 26,
            "name": "D1",
            "ticks": 12480,
            "time": 17.727255,
            "velocity": 0.3937007874015748
          },
          {
            "duration": 0.17045437500000205,
            "durationTicks": 120,
            "midi": 38,
            "name": "D2",
            "ticks": 12480,
            "time": 17.727255,
            "velocity": 0.3937007874015748
          },
          {
            "duration": 0.17045437500000205,
            "durationTicks": 120,
            "midi": 38,
            "name": "D2",
            "ticks": 12672,
            "time": 17.999982,
            "velocity": 0.3937007874015748
          },
          {
            "duration": 0.17045437500000205,
            "durationTicks": 120,
            "midi": 26,
            "name": "D1",
            "ticks": 12672,
            "time": 17.999982,
            "velocity": 0.3937007874015748
          },
          {
            "duration": 0.17045437500000205,
            "durationTicks": 120,
            "midi": 36,
            "name": "C2",
            "ticks": 12864,
            "time": 18.272709,
            "velocity": 0.3937007874015748
          },
          {
            "duration": 0.17045437500000205,
            "durationTicks": 120,
            "midi": 24,
            "name": "C1",
            "ticks": 12864,
            "time": 18.272709,
            "velocity": 0.3937007874015748
          },
          {
            "duration": 0.1704543749999985,
            "durationTicks": 120,
            "midi": 38,
            "name": "D2",
            "ticks": 13824,
            "time": 19.636344,
            "velocity": 0.3937007874015748
          },
          {
            "duration": 0.1704543749999985,
            "durationTicks": 120,
            "midi": 26,
            "name": "D1",
            "ticks": 13824,
            "time": 19.636344,
            "velocity": 0.3937007874015748
          },
          {
            "duration": 0.1704543749999985,
            "durationTicks": 120,
            "midi": 38,
            "name": "D2",
            "ticks": 14016,
            "time": 19.909071,
            "velocity": 0.3937007874015748
          },
          {
            "duration": 0.1704543749999985,
            "durationTicks": 120,
            "midi": 26,
            "name": "D1",
            "ticks": 14016,
            "time": 19.909071,
            "velocity": 0.3937007874015748
          },
          {
            "duration": 0.1704543749999985,
            "durationTicks": 120,
            "midi": 38,
            "name": "D2",
            "ticks": 14208,
            "time": 20.181798,
            "velocity": 0.3937007874015748
          },
          {
            "duration": 0.1704543749999985,
            "durationTicks": 120,
            "midi": 26,
            "name": "D1",
            "ticks": 14208,
            "time": 20.181798,
            "velocity": 0.3937007874015748
          },
          {
            "duration": 0.1704543749999985,
            "durationTicks": 120,
            "midi": 24,
            "name": "C1",
            "ticks": 14400,
            "time": 20.454525,
            "velocity": 0.3937007874015748
          },
          {
            "duration": 0.1704543749999985,
            "durationTicks": 120,
            "midi": 36,
            "name": "C2",
            "ticks": 14400,
            "time": 20.454525,
            "velocity": 0.3937007874015748
          },
          {
            "duration": 0.17045437500000205,
            "durationTicks": 120,
            "midi": 26,
            "name": "D1",
            "ticks": 15360,
            "time": 21.81816,
            "velocity": 0.3937007874015748
          },
          {
            "duration": 0.17045437500000205,
            "durationTicks": 120,
            "midi": 38,
            "name": "D2",
            "ticks": 15360,
            "time": 21.81816,
            "velocity": 0.3937007874015748
          },
          {
            "duration": 0.17045437500000205,
            "durationTicks": 120,
            "midi": 38,
            "name": "D2",
            "ticks": 15552,
            "time": 22.090887,
            "velocity": 0.3937007874015748
          },
          {
            "duration": 0.17045437500000205,
            "durationTicks": 120,
            "midi": 26,
            "name": "D1",
            "ticks": 15552,
            "time": 22.090887,
            "velocity": 0.3937007874015748
          },
          {
            "duration": 0.17045437500000205,
            "durationTicks": 120,
            "midi": 26,
            "name": "D1",
            "ticks": 15744,
            "time": 22.363614,
            "velocity": 0.3937007874015748
          },
          {
            "duration": 0.17045437500000205,
            "durationTicks": 120,
            "midi": 38,
            "name": "D2",
            "ticks": 15744,
            "time": 22.363614,
            "velocity": 0.3937007874015748
          },
          {
            "duration": 0.17045437500000205,
            "durationTicks": 120,
            "midi": 36,
            "name": "C2",
            "ticks": 15936,
            "time": 22.636340999999998,
            "velocity": 0.3937007874015748
          },
          {
            "duration": 0.17045437500000205,
            "durationTicks": 120,
            "midi": 24,
            "name": "C1",
            "ticks": 15936,
            "time": 22.636340999999998,
            "velocity": 0.3937007874015748
          },
          {
            "duration": 0.1704543749999985,
            "durationTicks": 120,
            "midi": 38,
            "name": "D2",
            "ticks": 16896,
            "time": 23.999976,
            "velocity": 0.3937007874015748
          },
          {
            "duration": 0.1704543749999985,
            "durationTicks": 120,
            "midi": 26,
            "name": "D1",
            "ticks": 16896,
            "time": 23.999976,
            "velocity": 0.3937007874015748
          },
          {
            "duration": 0.1704543749999985,
            "durationTicks": 120,
            "midi": 26,
            "name": "D1",
            "ticks": 17088,
            "time": 24.272703,
            "velocity": 0.3937007874015748
          },
          {
            "duration": 0.1704543749999985,
            "durationTicks": 120,
            "midi": 38,
            "name": "D2",
            "ticks": 17088,
            "time": 24.272703,
            "velocity": 0.3937007874015748
          },
          {
            "duration": 0.1704543749999985,
            "durationTicks": 120,
            "midi": 38,
            "name": "D2",
            "ticks": 17280,
            "time": 24.54543,
            "velocity": 0.3937007874015748
          },
          {
            "duration": 0.1704543749999985,
            "durationTicks": 120,
            "midi": 26,
            "name": "D1",
            "ticks": 17280,
            "time": 24.54543,
            "velocity": 0.3937007874015748
          },
          {
            "duration": 0.17045437500000205,
            "durationTicks": 120,
            "midi": 36,
            "name": "C2",
            "ticks": 17472,
            "time": 24.818157,
            "velocity": 0.3937007874015748
          },
          {
            "duration": 0.17045437500000205,
            "durationTicks": 120,
            "midi": 24,
            "name": "C1",
            "ticks": 17472,
            "time": 24.818157,
            "velocity": 0.3937007874015748
          },
          {
            "duration": 0.1704543749999985,
            "durationTicks": 120,
            "midi": 38,
            "name": "D2",
            "ticks": 18432,
            "time": 26.181792,
            "velocity": 0.3937007874015748
          },
          {
            "duration": 0.1704543749999985,
            "durationTicks": 120,
            "midi": 26,
            "name": "D1",
            "ticks": 18432,
            "time": 26.181792,
            "velocity": 0.3937007874015748
          },
          {
            "duration": 0.1704543749999985,
            "durationTicks": 120,
            "midi": 38,
            "name": "D2",
            "ticks": 18624,
            "time": 26.454519,
            "velocity": 0.3937007874015748
          },
          {
            "duration": 0.1704543749999985,
            "durationTicks": 120,
            "midi": 26,
            "name": "D1",
            "ticks": 18624,
            "time": 26.454519,
            "velocity": 0.3937007874015748
          },
          {
            "duration": 0.1704543749999985,
            "durationTicks": 120,
            "midi": 38,
            "name": "D2",
            "ticks": 18816,
            "time": 26.727246,
            "velocity": 0.3937007874015748
          },
          {
            "duration": 0.1704543749999985,
            "durationTicks": 120,
            "midi": 26,
            "name": "D1",
            "ticks": 18816,
            "time": 26.727246,
            "velocity": 0.3937007874015748
          },
          {
            "duration": 0.1704543749999985,
            "durationTicks": 120,
            "midi": 24,
            "name": "C1",
            "ticks": 19008,
            "time": 26.999973,
            "velocity": 0.3937007874015748
          },
          {
            "duration": 0.1704543749999985,
            "durationTicks": 120,
            "midi": 36,
            "name": "C2",
            "ticks": 19008,
            "time": 26.999973,
            "velocity": 0.3937007874015748
          },
          {
            "duration": 0.17045437500000205,
            "durationTicks": 120,
            "midi": 26,
            "name": "D1",
            "ticks": 19968,
            "time": 28.363608,
            "velocity": 0.3937007874015748
          },
          {
            "duration": 0.17045437500000205,
            "durationTicks": 120,
            "midi": 38,
            "name": "D2",
            "ticks": 19968,
            "time": 28.363608,
            "velocity": 0.3937007874015748
          },
          {
            "duration": 0.17045437500000205,
            "durationTicks": 120,
            "midi": 38,
            "name": "D2",
            "ticks": 20160,
            "time": 28.636335,
            "velocity": 0.3937007874015748
          },
          {
            "duration": 0.17045437500000205,
            "durationTicks": 120,
            "midi": 26,
            "name": "D1",
            "ticks": 20160,
            "time": 28.636335,
            "velocity": 0.3937007874015748
          },
          {
            "duration": 0.17045437500000205,
            "durationTicks": 120,
            "midi": 26,
            "name": "D1",
            "ticks": 20352,
            "time": 28.909062,
            "velocity": 0.3937007874015748
          },
          {
            "duration": 0.17045437500000205,
            "durationTicks": 120,
            "midi": 38,
            "name": "D2",
            "ticks": 20352,
            "time": 28.909062,
            "velocity": 0.3937007874015748
          },
          {
            "duration": 0.17045437500000205,
            "durationTicks": 120,
            "midi": 36,
            "name": "C2",
            "ticks": 20544,
            "time": 29.181789,
            "velocity": 0.3937007874015748
          },
          {
            "duration": 0.17045437500000205,
            "durationTicks": 120,
            "midi": 24,
            "name": "C1",
            "ticks": 20544,
            "time": 29.181789,
            "velocity": 0.3937007874015748
          },
          {
            "duration": 0.1704543749999985,
            "durationTicks": 120,
            "midi": 38,
            "name": "D2",
            "ticks": 21504,
            "time": 30.545424,
            "velocity": 0.3937007874015748
          },
          {
            "duration": 0.1704543749999985,
            "durationTicks": 120,
            "midi": 26,
            "name": "D1",
            "ticks": 21504,
            "time": 30.545424,
            "velocity": 0.3937007874015748
          },
          {
            "duration": 0.1704543749999985,
            "durationTicks": 120,
            "midi": 26,
            "name": "D1",
            "ticks": 21696,
            "time": 30.818151,
            "velocity": 0.3937007874015748
          },
          {
            "duration": 0.1704543749999985,
            "durationTicks": 120,
            "midi": 38,
            "name": "D2",
            "ticks": 21696,
            "time": 30.818151,
            "velocity": 0.3937007874015748
          },
          {
            "duration": 0.1704543749999985,
            "durationTicks": 120,
            "midi": 38,
            "name": "D2",
            "ticks": 21888,
            "time": 31.090878,
            "velocity": 0.3937007874015748
          },
          {
            "duration": 0.1704543749999985,
            "durationTicks": 120,
            "midi": 26,
            "name": "D1",
            "ticks": 21888,
            "time": 31.090878,
            "velocity": 0.3937007874015748
          },
          {
            "duration": 0.1704543749999985,
            "durationTicks": 120,
            "midi": 36,
            "name": "C2",
            "ticks": 22080,
            "time": 31.363605,
            "velocity": 0.3937007874015748
          },
          {
            "duration": 0.1704543749999985,
            "durationTicks": 120,
            "midi": 24,
            "name": "C1",
            "ticks": 22080,
            "time": 31.363605,
            "velocity": 0.3937007874015748
          },
          {
            "duration": 0.1704543749999985,
            "durationTicks": 120,
            "midi": 38,
            "name": "D2",
            "ticks": 23040,
            "time": 32.72724,
            "velocity": 0.3937007874015748
          },
          {
            "duration": 0.1704543749999985,
            "durationTicks": 120,
            "midi": 26,
            "name": "D1",
            "ticks": 23040,
            "time": 32.72724,
            "velocity": 0.3937007874015748
          },
          {
            "duration": 0.1704543749999985,
            "durationTicks": 120,
            "midi": 38,
            "name": "D2",
            "ticks": 23232,
            "time": 32.999967,
            "velocity": 0.3937007874015748
          },
          {
            "duration": 0.1704543749999985,
            "durationTicks": 120,
            "midi": 26,
            "name": "D1",
            "ticks": 23232,
            "time": 32.999967,
            "velocity": 0.3937007874015748
          },
          {
            "duration": 0.1704543749999985,
            "durationTicks": 120,
            "midi": 38,
            "name": "D2",
            "ticks": 23424,
            "time": 33.272694,
            "velocity": 0.3937007874015748
          },
          {
            "duration": 0.1704543749999985,
            "durationTicks": 120,
            "midi": 26,
            "name": "D1",
            "ticks": 23424,
            "time": 33.272694,
            "velocity": 0.3937007874015748
          },
          {
            "duration": 0.1704543750000056,
            "durationTicks": 120,
            "midi": 24,
            "name": "C1",
            "ticks": 23616,
            "time": 33.545421,
            "velocity": 0.3937007874015748
          },
          {
            "duration": 0.1704543750000056,
            "durationTicks": 120,
            "midi": 36,
            "name": "C2",
            "ticks": 23616,
            "time": 33.545421,
            "velocity": 0.3937007874015748
          },
          {
            "duration": 0.1704543749999914,
            "durationTicks": 120,
            "midi": 26,
            "name": "D1",
            "ticks": 73728,
            "time": 104.727168,
            "velocity": 0.3937007874015748
          },
          {
            "duration": 0.1704543749999914,
            "durationTicks": 120,
            "midi": 38,
            "name": "D2",
            "ticks": 73728,
            "time": 104.727168,
            "velocity": 0.3937007874015748
          },
          {
            "duration": 0.1704543750000056,
            "durationTicks": 120,
            "midi": 38,
            "name": "D2",
            "ticks": 73920,
            "time": 104.999895,
            "velocity": 0.3937007874015748
          },
          {
            "duration": 0.1704543750000056,
            "durationTicks": 120,
            "midi": 26,
            "name": "D1",
            "ticks": 73920,
            "time": 104.999895,
            "velocity": 0.3937007874015748
          },
          {
            "duration": 0.1704543750000056,
            "durationTicks": 120,
            "midi": 26,
            "name": "D1",
            "ticks": 74112,
            "time": 105.272622,
            "velocity": 0.3937007874015748
          },
          {
            "duration": 0.1704543750000056,
            "durationTicks": 120,
            "midi": 38,
            "name": "D2",
            "ticks": 74112,
            "time": 105.272622,
            "velocity": 0.3937007874015748
          },
          {
            "duration": 0.1704543749999914,
            "durationTicks": 120,
            "midi": 36,
            "name": "C2",
            "ticks": 74304,
            "time": 105.545349,
            "velocity": 0.3937007874015748
          },
          {
            "duration": 0.1704543749999914,
            "durationTicks": 120,
            "midi": 24,
            "name": "C1",
            "ticks": 74304,
            "time": 105.545349,
            "velocity": 0.3937007874015748
          },
          {
            "duration": 0.1704543749999914,
            "durationTicks": 120,
            "midi": 38,
            "name": "D2",
            "ticks": 75264,
            "time": 106.908984,
            "velocity": 0.3937007874015748
          },
          {
            "duration": 0.1704543749999914,
            "durationTicks": 120,
            "midi": 26,
            "name": "D1",
            "ticks": 75264,
            "time": 106.908984,
            "velocity": 0.3937007874015748
          },
          {
            "duration": 0.1704543750000056,
            "durationTicks": 120,
            "midi": 26,
            "name": "D1",
            "ticks": 75456,
            "time": 107.18171099999999,
            "velocity": 0.3937007874015748
          },
          {
            "duration": 0.1704543750000056,
            "durationTicks": 120,
            "midi": 38,
            "name": "D2",
            "ticks": 75456,
            "time": 107.18171099999999,
            "velocity": 0.3937007874015748
          },
          {
            "duration": 0.1704543750000056,
            "durationTicks": 120,
            "midi": 38,
            "name": "D2",
            "ticks": 75648,
            "time": 107.454438,
            "velocity": 0.3937007874015748
          },
          {
            "duration": 0.1704543750000056,
            "durationTicks": 120,
            "midi": 26,
            "name": "D1",
            "ticks": 75648,
            "time": 107.454438,
            "velocity": 0.3937007874015748
          },
          {
            "duration": 0.1704543750000056,
            "durationTicks": 120,
            "midi": 36,
            "name": "C2",
            "ticks": 75840,
            "time": 107.727165,
            "velocity": 0.3937007874015748
          },
          {
            "duration": 0.1704543750000056,
            "durationTicks": 120,
            "midi": 24,
            "name": "C1",
            "ticks": 75840,
            "time": 107.727165,
            "velocity": 0.3937007874015748
          },
          {
            "duration": 0.1704543749999914,
            "durationTicks": 120,
            "midi": 38,
            "name": "D2",
            "ticks": 76800,
            "time": 109.0908,
            "velocity": 0.3937007874015748
          },
          {
            "duration": 0.1704543749999914,
            "durationTicks": 120,
            "midi": 26,
            "name": "D1",
            "ticks": 76800,
            "time": 109.0908,
            "velocity": 0.3937007874015748
          },
          {
            "duration": 0.1704543749999914,
            "durationTicks": 120,
            "midi": 38,
            "name": "D2",
            "ticks": 76992,
            "time": 109.363527,
            "velocity": 0.3937007874015748
          },
          {
            "duration": 0.1704543749999914,
            "durationTicks": 120,
            "midi": 26,
            "name": "D1",
            "ticks": 76992,
            "time": 109.363527,
            "velocity": 0.3937007874015748
          },
          {
            "duration": 0.1704543750000056,
            "durationTicks": 120,
            "midi": 38,
            "name": "D2",
            "ticks": 77184,
            "time": 109.636254,
            "velocity": 0.3937007874015748
          },
          {
            "duration": 0.1704543750000056,
            "durationTicks": 120,
            "midi": 26,
            "name": "D1",
            "ticks": 77184,
            "time": 109.636254,
            "velocity": 0.3937007874015748
          },
          {
            "duration": 0.1704543750000056,
            "durationTicks": 120,
            "midi": 24,
            "name": "C1",
            "ticks": 77376,
            "time": 109.908981,
            "velocity": 0.3937007874015748
          },
          {
            "duration": 0.1704543750000056,
            "durationTicks": 120,
            "midi": 36,
            "name": "C2",
            "ticks": 77376,
            "time": 109.908981,
            "velocity": 0.3937007874015748
          },
          {
            "duration": 0.1704543750000056,
            "durationTicks": 120,
            "midi": 26,
            "name": "D1",
            "ticks": 78336,
            "time": 111.272616,
            "velocity": 0.3937007874015748
          },
          {
            "duration": 0.1704543750000056,
            "durationTicks": 120,
            "midi": 38,
            "name": "D2",
            "ticks": 78336,
            "time": 111.272616,
            "velocity": 0.3937007874015748
          },
          {
            "duration": 0.1704543749999914,
            "durationTicks": 120,
            "midi": 38,
            "name": "D2",
            "ticks": 78528,
            "time": 111.545343,
            "velocity": 0.3937007874015748
          },
          {
            "duration": 0.1704543749999914,
            "durationTicks": 120,
            "midi": 26,
            "name": "D1",
            "ticks": 78528,
            "time": 111.545343,
            "velocity": 0.3937007874015748
          },
          {
            "duration": 0.1704543749999914,
            "durationTicks": 120,
            "midi": 26,
            "name": "D1",
            "ticks": 78720,
            "time": 111.81807,
            "velocity": 0.3937007874015748
          },
          {
            "duration": 0.1704543749999914,
            "durationTicks": 120,
            "midi": 38,
            "name": "D2",
            "ticks": 78720,
            "time": 111.81807,
            "velocity": 0.3937007874015748
          },
          {
            "duration": 0.1704543750000056,
            "durationTicks": 120,
            "midi": 36,
            "name": "C2",
            "ticks": 78912,
            "time": 112.090797,
            "velocity": 0.3937007874015748
          },
          {
            "duration": 0.1704543750000056,
            "durationTicks": 120,
            "midi": 24,
            "name": "C1",
            "ticks": 78912,
            "time": 112.090797,
            "velocity": 0.3937007874015748
          },
          {
            "duration": 0.1704543750000056,
            "durationTicks": 120,
            "midi": 38,
            "name": "D2",
            "ticks": 79872,
            "time": 113.454432,
            "velocity": 0.3937007874015748
          },
          {
            "duration": 0.1704543750000056,
            "durationTicks": 120,
            "midi": 26,
            "name": "D1",
            "ticks": 79872,
            "time": 113.454432,
            "velocity": 0.3937007874015748
          },
          {
            "duration": 0.1704543750000056,
            "durationTicks": 120,
            "midi": 26,
            "name": "D1",
            "ticks": 80064,
            "time": 113.727159,
            "velocity": 0.3937007874015748
          },
          {
            "duration": 0.1704543750000056,
            "durationTicks": 120,
            "midi": 38,
            "name": "D2",
            "ticks": 80064,
            "time": 113.727159,
            "velocity": 0.3937007874015748
          },
          {
            "duration": 0.1704543749999914,
            "durationTicks": 120,
            "midi": 38,
            "name": "D2",
            "ticks": 80256,
            "time": 113.999886,
            "velocity": 0.3937007874015748
          },
          {
            "duration": 0.1704543749999914,
            "durationTicks": 120,
            "midi": 26,
            "name": "D1",
            "ticks": 80256,
            "time": 113.999886,
            "velocity": 0.3937007874015748
          },
          {
            "duration": 0.1704543750000056,
            "durationTicks": 120,
            "midi": 36,
            "name": "C2",
            "ticks": 80448,
            "time": 114.27261299999999,
            "velocity": 0.3937007874015748
          },
          {
            "duration": 0.1704543750000056,
            "durationTicks": 120,
            "midi": 24,
            "name": "C1",
            "ticks": 80448,
            "time": 114.27261299999999,
            "velocity": 0.3937007874015748
          },
          {
            "duration": 0.1704543750000056,
            "durationTicks": 120,
            "midi": 38,
            "name": "D2",
            "ticks": 81408,
            "time": 115.636248,
            "velocity": 0.3937007874015748
          },
          {
            "duration": 0.1704543750000056,
            "durationTicks": 120,
            "midi": 26,
            "name": "D1",
            "ticks": 81408,
            "time": 115.636248,
            "velocity": 0.3937007874015748
          },
          {
            "duration": 0.1704543750000056,
            "durationTicks": 120,
            "midi": 38,
            "name": "D2",
            "ticks": 81600,
            "time": 115.908975,
            "velocity": 0.3937007874015748
          },
          {
            "duration": 0.1704543750000056,
            "durationTicks": 120,
            "midi": 26,
            "name": "D1",
            "ticks": 81600,
            "time": 115.908975,
            "velocity": 0.3937007874015748
          },
          {
            "duration": 0.1704543749999914,
            "durationTicks": 120,
            "midi": 38,
            "name": "D2",
            "ticks": 81792,
            "time": 116.181702,
            "velocity": 0.3937007874015748
          },
          {
            "duration": 0.1704543749999914,
            "durationTicks": 120,
            "midi": 26,
            "name": "D1",
            "ticks": 81792,
            "time": 116.181702,
            "velocity": 0.3937007874015748
          },
          {
            "duration": 0.1704543749999914,
            "durationTicks": 120,
            "midi": 24,
            "name": "C1",
            "ticks": 81984,
            "time": 116.454429,
            "velocity": 0.3937007874015748
          },
          {
            "duration": 0.1704543749999914,
            "durationTicks": 120,
            "midi": 36,
            "name": "C2",
            "ticks": 81984,
            "time": 116.454429,
            "velocity": 0.3937007874015748
          },
          {
            "duration": 0.1704543750000056,
            "durationTicks": 120,
            "midi": 26,
            "name": "D1",
            "ticks": 82944,
            "time": 117.81806399999999,
            "velocity": 0.3937007874015748
          },
          {
            "duration": 0.1704543750000056,
            "durationTicks": 120,
            "midi": 38,
            "name": "D2",
            "ticks": 82944,
            "time": 117.81806399999999,
            "velocity": 0.3937007874015748
          },
          {
            "duration": 0.1704543750000056,
            "durationTicks": 120,
            "midi": 38,
            "name": "D2",
            "ticks": 83136,
            "time": 118.090791,
            "velocity": 0.3937007874015748
          },
          {
            "duration": 0.1704543750000056,
            "durationTicks": 120,
            "midi": 26,
            "name": "D1",
            "ticks": 83136,
            "time": 118.090791,
            "velocity": 0.3937007874015748
          },
          {
            "duration": 0.1704543750000056,
            "durationTicks": 120,
            "midi": 26,
            "name": "D1",
            "ticks": 83328,
            "time": 118.363518,
            "velocity": 0.3937007874015748
          },
          {
            "duration": 0.1704543750000056,
            "durationTicks": 120,
            "midi": 38,
            "name": "D2",
            "ticks": 83328,
            "time": 118.363518,
            "velocity": 0.3937007874015748
          },
          {
            "duration": 0.1704543749999914,
            "durationTicks": 120,
            "midi": 36,
            "name": "C2",
            "ticks": 83520,
            "time": 118.636245,
            "velocity": 0.3937007874015748
          },
          {
            "duration": 0.1704543749999914,
            "durationTicks": 120,
            "midi": 24,
            "name": "C1",
            "ticks": 83520,
            "time": 118.636245,
            "velocity": 0.3937007874015748
          },
          {
            "duration": 0.1704543749999914,
            "durationTicks": 120,
            "midi": 38,
            "name": "D2",
            "ticks": 84480,
            "time": 119.99988,
            "velocity": 0.3937007874015748
          },
          {
            "duration": 0.1704543749999914,
            "durationTicks": 120,
            "midi": 26,
            "name": "D1",
            "ticks": 84480,
            "time": 119.99988,
            "velocity": 0.3937007874015748
          },
          {
            "duration": 0.1704543750000056,
            "durationTicks": 120,
            "midi": 26,
            "name": "D1",
            "ticks": 84672,
            "time": 120.272607,
            "velocity": 0.3937007874015748
          },
          {
            "duration": 0.1704543750000056,
            "durationTicks": 120,
            "midi": 38,
            "name": "D2",
            "ticks": 84672,
            "time": 120.272607,
            "velocity": 0.3937007874015748
          },
          {
            "duration": 0.1704543750000056,
            "durationTicks": 120,
            "midi": 38,
            "name": "D2",
            "ticks": 84864,
            "time": 120.545334,
            "velocity": 0.3937007874015748
          },
          {
            "duration": 0.1704543750000056,
            "durationTicks": 120,
            "midi": 26,
            "name": "D1",
            "ticks": 84864,
            "time": 120.545334,
            "velocity": 0.3937007874015748
          },
          {
            "duration": 0.1704543750000056,
            "durationTicks": 120,
            "midi": 36,
            "name": "C2",
            "ticks": 85056,
            "time": 120.818061,
            "velocity": 0.3937007874015748
          },
          {
            "duration": 0.1704543750000056,
            "durationTicks": 120,
            "midi": 24,
            "name": "C1",
            "ticks": 85056,
            "time": 120.818061,
            "velocity": 0.3937007874015748
          }
        ],
        "endOfTrackTicks": 85176
      },
      {
        "channel": 9,
        "controlChanges": {},
        "pitchBends": [],
        "instrument": {
          "family": "drums",
          "number": 0,
          "name": "standard kit"
        },
        "name": "Electric Drum Kit",
        "notes": [
          {
            "duration": 0.1363635,
            "durationTicks": 96,
            "midi": 35,
            "name": "B1",
            "ticks": 0,
            "time": 0,
            "velocity": 0.29133858267716534
          },
          {
            "duration": 0.13636349999999997,
            "durationTicks": 96,
            "midi": 38,
            "name": "D2",
            "ticks": 384,
            "time": 0.545454,
            "velocity": 0.29133858267716534
          },
          {
            "duration": 0.13636349999999997,
            "durationTicks": 96,
            "midi": 40,
            "name": "E2",
            "ticks": 384,
            "time": 0.545454,
            "velocity": 0.29133858267716534
          },
          {
            "duration": 0.13636350000000008,
            "durationTicks": 96,
            "midi": 35,
            "name": "B1",
            "ticks": 768,
            "time": 1.090908,
            "velocity": 0.29133858267716534
          },
          {
            "duration": 0.13636349999999986,
            "durationTicks": 96,
            "midi": 40,
            "name": "E2",
            "ticks": 1152,
            "time": 1.636362,
            "velocity": 0.29133858267716534
          },
          {
            "duration": 0.13636349999999986,
            "durationTicks": 96,
            "midi": 38,
            "name": "D2",
            "ticks": 1152,
            "time": 1.636362,
            "velocity": 0.29133858267716534
          },
          {
            "duration": 0.13636349999999986,
            "durationTicks": 96,
            "midi": 35,
            "name": "B1",
            "ticks": 1536,
            "time": 2.181816,
            "velocity": 0.29133858267716534
          },
          {
            "duration": 0.1363635000000003,
            "durationTicks": 96,
            "midi": 38,
            "name": "D2",
            "ticks": 1920,
            "time": 2.72727,
            "velocity": 0.29133858267716534
          },
          {
            "duration": 0.1363635000000003,
            "durationTicks": 96,
            "midi": 40,
            "name": "E2",
            "ticks": 1920,
            "time": 2.72727,
            "velocity": 0.29133858267716534
          },
          {
            "duration": 0.13636349999999986,
            "durationTicks": 96,
            "midi": 35,
            "name": "B1",
            "ticks": 2304,
            "time": 3.272724,
            "velocity": 0.29133858267716534
          },
          {
            "duration": 0.13636349999999986,
            "durationTicks": 96,
            "midi": 38,
            "name": "D2",
            "ticks": 2688,
            "time": 3.818178,
            "velocity": 0.29133858267716534
          },
          {
            "duration": 0.13636349999999986,
            "durationTicks": 96,
            "midi": 40,
            "name": "E2",
            "ticks": 2688,
            "time": 3.818178,
            "velocity": 0.29133858267716534
          },
          {
            "duration": 0.13636349999999986,
            "durationTicks": 96,
            "midi": 35,
            "name": "B1",
            "ticks": 3072,
            "time": 4.363632,
            "velocity": 0.29133858267716534
          },
          {
            "duration": 0.13636349999999986,
            "durationTicks": 96,
            "midi": 38,
            "name": "D2",
            "ticks": 3456,
            "time": 4.909086,
            "velocity": 0.29133858267716534
          },
          {
            "duration": 0.13636349999999986,
            "durationTicks": 96,
            "midi": 40,
            "name": "E2",
            "ticks": 3456,
            "time": 4.909086,
            "velocity": 0.29133858267716534
          },
          {
            "duration": 0.13636349999999986,
            "durationTicks": 96,
            "midi": 35,
            "name": "B1",
            "ticks": 3840,
            "time": 5.45454,
            "velocity": 0.29133858267716534
          },
          {
            "duration": 0.13636349999999986,
            "durationTicks": 96,
            "midi": 40,
            "name": "E2",
            "ticks": 4224,
            "time": 5.999994,
            "velocity": 0.29133858267716534
          },
          {
            "duration": 0.13636349999999986,
            "durationTicks": 96,
            "midi": 38,
            "name": "D2",
            "ticks": 4224,
            "time": 5.999994,
            "velocity": 0.29133858267716534
          },
          {
            "duration": 0.13636349999999986,
            "durationTicks": 96,
            "midi": 35,
            "name": "B1",
            "ticks": 4608,
            "time": 6.545448,
            "velocity": 0.29133858267716534
          },
          {
            "duration": 0.13636349999999986,
            "durationTicks": 96,
            "midi": 40,
            "name": "E2",
            "ticks": 4992,
            "time": 7.090902,
            "velocity": 0.29133858267716534
          },
          {
            "duration": 0.13636349999999986,
            "durationTicks": 96,
            "midi": 38,
            "name": "D2",
            "ticks": 4992,
            "time": 7.090902,
            "velocity": 0.29133858267716534
          },
          {
            "duration": 0.13636349999999986,
            "durationTicks": 96,
            "midi": 35,
            "name": "B1",
            "ticks": 5376,
            "time": 7.636356,
            "velocity": 0.29133858267716534
          },
          {
            "duration": 0.13636349999999986,
            "durationTicks": 96,
            "midi": 38,
            "name": "D2",
            "ticks": 5760,
            "time": 8.18181,
            "velocity": 0.29133858267716534
          },
          {
            "duration": 0.13636349999999986,
            "durationTicks": 96,
            "midi": 40,
            "name": "E2",
            "ticks": 5760,
            "time": 8.18181,
            "velocity": 0.29133858267716534
          },
          {
            "duration": 0.13636349999999986,
            "durationTicks": 96,
            "midi": 35,
            "name": "B1",
            "ticks": 6144,
            "time": 8.727264,
            "velocity": 0.29133858267716534
          },
          {
            "duration": 0.13636349999999986,
            "durationTicks": 96,
            "midi": 40,
            "name": "E2",
            "ticks": 6528,
            "time": 9.272718,
            "velocity": 0.29133858267716534
          },
          {
            "duration": 0.13636349999999986,
            "durationTicks": 96,
            "midi": 38,
            "name": "D2",
            "ticks": 6528,
            "time": 9.272718,
            "velocity": 0.29133858267716534
          },
          {
            "duration": 0.13636349999999986,
            "durationTicks": 96,
            "midi": 35,
            "name": "B1",
            "ticks": 6912,
            "time": 9.818172,
            "velocity": 0.29133858267716534
          },
          {
            "duration": 0.13636349999999986,
            "durationTicks": 96,
            "midi": 40,
            "name": "E2",
            "ticks": 7296,
            "time": 10.363626,
            "velocity": 0.29133858267716534
          },
          {
            "duration": 0.13636349999999986,
            "durationTicks": 96,
            "midi": 38,
            "name": "D2",
            "ticks": 7296,
            "time": 10.363626,
            "velocity": 0.29133858267716534
          },
          {
            "duration": 0.13636349999999986,
            "durationTicks": 96,
            "midi": 35,
            "name": "B1",
            "ticks": 7680,
            "time": 10.90908,
            "velocity": 0.29133858267716534
          },
          {
            "duration": 0.13636349999999986,
            "durationTicks": 96,
            "midi": 38,
            "name": "D2",
            "ticks": 8064,
            "time": 11.454534,
            "velocity": 0.29133858267716534
          },
          {
            "duration": 0.13636349999999986,
            "durationTicks": 96,
            "midi": 40,
            "name": "E2",
            "ticks": 8064,
            "time": 11.454534,
            "velocity": 0.29133858267716534
          },
          {
            "duration": 0.13636349999999986,
            "durationTicks": 96,
            "midi": 35,
            "name": "B1",
            "ticks": 8448,
            "time": 11.999988,
            "velocity": 0.29133858267716534
          },
          {
            "duration": 0.13636349999999986,
            "durationTicks": 96,
            "midi": 40,
            "name": "E2",
            "ticks": 8832,
            "time": 12.545442,
            "velocity": 0.29133858267716534
          },
          {
            "duration": 0.13636349999999986,
            "durationTicks": 96,
            "midi": 38,
            "name": "D2",
            "ticks": 8832,
            "time": 12.545442,
            "velocity": 0.29133858267716534
          },
          {
            "duration": 0.13636349999999986,
            "durationTicks": 96,
            "midi": 35,
            "name": "B1",
            "ticks": 9216,
            "time": 13.090896,
            "velocity": 0.29133858267716534
          },
          {
            "duration": 0.13636349999999986,
            "durationTicks": 96,
            "midi": 38,
            "name": "D2",
            "ticks": 9600,
            "time": 13.63635,
            "velocity": 0.29133858267716534
          },
          {
            "duration": 0.13636349999999986,
            "durationTicks": 96,
            "midi": 40,
            "name": "E2",
            "ticks": 9600,
            "time": 13.63635,
            "velocity": 0.29133858267716534
          },
          {
            "duration": 0.13636349999999986,
            "durationTicks": 96,
            "midi": 35,
            "name": "B1",
            "ticks": 9984,
            "time": 14.181804,
            "velocity": 0.29133858267716534
          },
          {
            "duration": 0.13636350000000164,
            "durationTicks": 96,
            "midi": 38,
            "name": "D2",
            "ticks": 10368,
            "time": 14.727257999999999,
            "velocity": 0.29133858267716534
          },
          {
            "duration": 0.13636350000000164,
            "durationTicks": 96,
            "midi": 40,
            "name": "E2",
            "ticks": 10368,
            "time": 14.727257999999999,
            "velocity": 0.29133858267716534
          },
          {
            "duration": 0.13636349999999986,
            "durationTicks": 96,
            "midi": 35,
            "name": "B1",
            "ticks": 10752,
            "time": 15.272712,
            "velocity": 0.29133858267716534
          },
          {
            "duration": 0.13636349999999986,
            "durationTicks": 96,
            "midi": 40,
            "name": "E2",
            "ticks": 11136,
            "time": 15.818166,
            "velocity": 0.29133858267716534
          },
          {
            "duration": 0.13636349999999986,
            "durationTicks": 96,
            "midi": 38,
            "name": "D2",
            "ticks": 11136,
            "time": 15.818166,
            "velocity": 0.29133858267716534
          },
          {
            "duration": 0.13636349999999808,
            "durationTicks": 96,
            "midi": 35,
            "name": "B1",
            "ticks": 11520,
            "time": 16.36362,
            "velocity": 0.29133858267716534
          },
          {
            "duration": 0.13636349999999808,
            "durationTicks": 96,
            "midi": 38,
            "name": "D2",
            "ticks": 11904,
            "time": 16.909074,
            "velocity": 0.29133858267716534
          },
          {
            "duration": 0.13636349999999808,
            "durationTicks": 96,
            "midi": 40,
            "name": "E2",
            "ticks": 11904,
            "time": 16.909074,
            "velocity": 0.29133858267716534
          },
          {
            "duration": 0.13636350000000164,
            "durationTicks": 96,
            "midi": 35,
            "name": "B1",
            "ticks": 12288,
            "time": 17.454528,
            "velocity": 0.29133858267716534
          },
          {
            "duration": 0.13636350000000164,
            "durationTicks": 96,
            "midi": 38,
            "name": "D2",
            "ticks": 12672,
            "time": 17.999982,
            "velocity": 0.29133858267716534
          },
          {
            "duration": 0.13636350000000164,
            "durationTicks": 96,
            "midi": 40,
            "name": "E2",
            "ticks": 12672,
            "time": 17.999982,
            "velocity": 0.29133858267716534
          },
          {
            "duration": 0.13636350000000164,
            "durationTicks": 96,
            "midi": 35,
            "name": "B1",
            "ticks": 13056,
            "time": 18.545436,
            "velocity": 0.29133858267716534
          },
          {
            "duration": 0.13636350000000164,
            "durationTicks": 96,
            "midi": 38,
            "name": "D2",
            "ticks": 13440,
            "time": 19.090889999999998,
            "velocity": 0.29133858267716534
          },
          {
            "duration": 0.13636350000000164,
            "durationTicks": 96,
            "midi": 40,
            "name": "E2",
            "ticks": 13440,
            "time": 19.090889999999998,
            "velocity": 0.29133858267716534
          },
          {
            "duration": 0.13636349999999808,
            "durationTicks": 96,
            "midi": 35,
            "name": "B1",
            "ticks": 13824,
            "time": 19.636344,
            "velocity": 0.29133858267716534
          },
          {
            "duration": 0.13636349999999808,
            "durationTicks": 96,
            "midi": 40,
            "name": "E2",
            "ticks": 14208,
            "time": 20.181798,
            "velocity": 0.29133858267716534
          },
          {
            "duration": 0.13636349999999808,
            "durationTicks": 96,
            "midi": 38,
            "name": "D2",
            "ticks": 14208,
            "time": 20.181798,
            "velocity": 0.29133858267716534
          },
          {
            "duration": 0.13636349999999808,
            "durationTicks": 96,
            "midi": 35,
            "name": "B1",
            "ticks": 14592,
            "time": 20.727252,
            "velocity": 0.29133858267716534
          },
          {
            "duration": 0.13636350000000164,
            "durationTicks": 96,
            "midi": 38,
            "name": "D2",
            "ticks": 14976,
            "time": 21.272706,
            "velocity": 0.29133858267716534
          },
          {
            "duration": 0.13636350000000164,
            "durationTicks": 96,
            "midi": 40,
            "name": "E2",
            "ticks": 14976,
            "time": 21.272706,
            "velocity": 0.29133858267716534
          },
          {
            "duration": 0.13636350000000164,
            "durationTicks": 96,
            "midi": 35,
            "name": "B1",
            "ticks": 15360,
            "time": 21.81816,
            "velocity": 0.29133858267716534
          },
          {
            "duration": 0.13636350000000164,
            "durationTicks": 96,
            "midi": 40,
            "name": "E2",
            "ticks": 15744,
            "time": 22.363614,
            "velocity": 0.29133858267716534
          },
          {
            "duration": 0.13636350000000164,
            "durationTicks": 96,
            "midi": 38,
            "name": "D2",
            "ticks": 15744,
            "time": 22.363614,
            "velocity": 0.29133858267716534
          },
          {
            "duration": 0.13636349999999808,
            "durationTicks": 96,
            "midi": 35,
            "name": "B1",
            "ticks": 16128,
            "time": 22.909068,
            "velocity": 0.29133858267716534
          },
          {
            "duration": 0.13636349999999808,
            "durationTicks": 96,
            "midi": 40,
            "name": "E2",
            "ticks": 16512,
            "time": 23.454522,
            "velocity": 0.29133858267716534
          },
          {
            "duration": 0.13636349999999808,
            "durationTicks": 96,
            "midi": 38,
            "name": "D2",
            "ticks": 16512,
            "time": 23.454522,
            "velocity": 0.29133858267716534
          },
          {
            "duration": 0.13636349999999808,
            "durationTicks": 96,
            "midi": 35,
            "name": "B1",
            "ticks": 16896,
            "time": 23.999976,
            "velocity": 0.29133858267716534
          },
          {
            "duration": 0.13636350000000164,
            "durationTicks": 96,
            "midi": 38,
            "name": "D2",
            "ticks": 17280,
            "time": 24.54543,
            "velocity": 0.29133858267716534
          },
          {
            "duration": 0.13636350000000164,
            "durationTicks": 96,
            "midi": 40,
            "name": "E2",
            "ticks": 17280,
            "time": 24.54543,
            "velocity": 0.29133858267716534
          },
          {
            "duration": 0.13636350000000164,
            "durationTicks": 96,
            "midi": 35,
            "name": "B1",
            "ticks": 17664,
            "time": 25.090884,
            "velocity": 0.29133858267716534
          },
          {
            "duration": 0.13636350000000164,
            "durationTicks": 96,
            "midi": 40,
            "name": "E2",
            "ticks": 18048,
            "time": 25.636338,
            "velocity": 0.29133858267716534
          },
          {
            "duration": 0.13636350000000164,
            "durationTicks": 96,
            "midi": 38,
            "name": "D2",
            "ticks": 18048,
            "time": 25.636338,
            "velocity": 0.29133858267716534
          },
          {
            "duration": 0.13636349999999808,
            "durationTicks": 96,
            "midi": 35,
            "name": "B1",
            "ticks": 18432,
            "time": 26.181792,
            "velocity": 0.29133858267716534
          },
          {
            "duration": 0.13636349999999808,
            "durationTicks": 96,
            "midi": 40,
            "name": "E2",
            "ticks": 18816,
            "time": 26.727246,
            "velocity": 0.29133858267716534
          },
          {
            "duration": 0.13636349999999808,
            "durationTicks": 96,
            "midi": 38,
            "name": "D2",
            "ticks": 18816,
            "time": 26.727246,
            "velocity": 0.29133858267716534
          },
          {
            "duration": 0.13636349999999808,
            "durationTicks": 96,
            "midi": 35,
            "name": "B1",
            "ticks": 19200,
            "time": 27.2727,
            "velocity": 0.29133858267716534
          },
          {
            "duration": 0.13636350000000164,
            "durationTicks": 96,
            "midi": 40,
            "name": "E2",
            "ticks": 19584,
            "time": 27.818154,
            "velocity": 0.29133858267716534
          },
          {
            "duration": 0.13636350000000164,
            "durationTicks": 96,
            "midi": 38,
            "name": "D2",
            "ticks": 19584,
            "time": 27.818154,
            "velocity": 0.29133858267716534
          },
          {
            "duration": 0.13636350000000164,
            "durationTicks": 96,
            "midi": 35,
            "name": "B1",
            "ticks": 19968,
            "time": 28.363608,
            "velocity": 0.29133858267716534
          },
          {
            "duration": 0.13636350000000164,
            "durationTicks": 96,
            "midi": 38,
            "name": "D2",
            "ticks": 20352,
            "time": 28.909062,
            "velocity": 0.29133858267716534
          },
          {
            "duration": 0.13636350000000164,
            "durationTicks": 96,
            "midi": 40,
            "name": "E2",
            "ticks": 20352,
            "time": 28.909062,
            "velocity": 0.29133858267716534
          },
          {
            "duration": 0.13636350000000164,
            "durationTicks": 96,
            "midi": 35,
            "name": "B1",
            "ticks": 20736,
            "time": 29.454515999999998,
            "velocity": 0.29133858267716534
          },
          {
            "duration": 0.13636349999999808,
            "durationTicks": 96,
            "midi": 38,
            "name": "D2",
            "ticks": 21120,
            "time": 29.99997,
            "velocity": 0.29133858267716534
          },
          {
            "duration": 0.13636349999999808,
            "durationTicks": 96,
            "midi": 40,
            "name": "E2",
            "ticks": 21120,
            "time": 29.99997,
            "velocity": 0.29133858267716534
          },
          {
            "duration": 0.13636349999999808,
            "durationTicks": 96,
            "midi": 35,
            "name": "B1",
            "ticks": 21504,
            "time": 30.545424,
            "velocity": 0.29133858267716534
          },
          {
            "duration": 0.13636349999999808,
            "durationTicks": 96,
            "midi": 38,
            "name": "D2",
            "ticks": 21888,
            "time": 31.090878,
            "velocity": 0.29133858267716534
          },
          {
            "duration": 0.13636349999999808,
            "durationTicks": 96,
            "midi": 40,
            "name": "E2",
            "ticks": 21888,
            "time": 31.090878,
            "velocity": 0.29133858267716534
          },
          {
            "duration": 0.13636350000000164,
            "durationTicks": 96,
            "midi": 35,
            "name": "B1",
            "ticks": 22272,
            "time": 31.636332,
            "velocity": 0.29133858267716534
          },
          {
            "duration": 0.13636349999999453,
            "durationTicks": 96,
            "midi": 38,
            "name": "D2",
            "ticks": 22656,
            "time": 32.181786,
            "velocity": 0.29133858267716534
          },
          {
            "duration": 0.13636349999999453,
            "durationTicks": 96,
            "midi": 40,
            "name": "E2",
            "ticks": 22656,
            "time": 32.181786,
            "velocity": 0.29133858267716534
          },
          {
            "duration": 0.13636349999999453,
            "durationTicks": 96,
            "midi": 35,
            "name": "B1",
            "ticks": 23040,
            "time": 32.72724,
            "velocity": 0.29133858267716534
          },
          {
            "duration": 0.13636350000000164,
            "durationTicks": 96,
            "midi": 40,
            "name": "E2",
            "ticks": 23424,
            "time": 33.272694,
            "velocity": 0.29133858267716534
          },
          {
            "duration": 0.13636350000000164,
            "durationTicks": 96,
            "midi": 38,
            "name": "D2",
            "ticks": 23424,
            "time": 33.272694,
            "velocity": 0.29133858267716534
          },
          {
            "duration": 0.13636350000000164,
            "durationTicks": 96,
            "midi": 35,
            "name": "B1",
            "ticks": 23808,
            "time": 33.818148,
            "velocity": 0.29133858267716534
          },
          {
            "duration": 0.13636350000000164,
            "durationTicks": 96,
            "midi": 38,
            "name": "D2",
            "ticks": 24192,
            "time": 34.363602,
            "velocity": 0.29133858267716534
          },
          {
            "duration": 0.13636350000000164,
            "durationTicks": 96,
            "midi": 40,
            "name": "E2",
            "ticks": 24192,
            "time": 34.363602,
            "velocity": 0.29133858267716534
          },
          {
            "duration": 0.13636350000000164,
            "durationTicks": 96,
            "midi": 38,
            "name": "D2",
            "ticks": 24960,
            "time": 35.45451,
            "velocity": 0.29133858267716534
          },
          {
            "duration": 0.13636350000000164,
            "durationTicks": 96,
            "midi": 38,
            "name": "D2",
            "ticks": 25728,
            "time": 36.545418,
            "velocity": 0.29133858267716534
          },
          {
            "duration": 0.13636349999999453,
            "durationTicks": 96,
            "midi": 38,
            "name": "D2",
            "ticks": 26016,
            "time": 36.9545085,
            "velocity": 0.29133858267716534
          },
          {
            "duration": 0.13636350000000164,
            "durationTicks": 96,
            "midi": 38,
            "name": "D2",
            "ticks": 26496,
            "time": 37.636326,
            "velocity": 0.29133858267716534
          },
          {
            "duration": 0.13636349999999453,
            "durationTicks": 96,
            "midi": 38,
            "name": "D2",
            "ticks": 27264,
            "time": 38.727234,
            "velocity": 0.29133858267716534
          },
          {
            "duration": 0.13636350000000164,
            "durationTicks": 96,
            "midi": 38,
            "name": "D2",
            "ticks": 27360,
            "time": 38.8635975,
            "velocity": 0.29133858267716534
          },
          {
            "duration": 0.13636350000000164,
            "durationTicks": 96,
            "midi": 38,
            "name": "D2",
            "ticks": 27552,
            "time": 39.1363245,
            "velocity": 0.29133858267716534
          },
          {
            "duration": 0.13636349999999453,
            "durationTicks": 96,
            "midi": 38,
            "name": "D2",
            "ticks": 28032,
            "time": 39.818142,
            "velocity": 0.29133858267716534
          },
          {
            "duration": 0.13636350000000164,
            "durationTicks": 96,
            "midi": 38,
            "name": "D2",
            "ticks": 28800,
            "time": 40.90905,
            "velocity": 0.29133858267716534
          },
          {
            "duration": 0.13636350000000164,
            "durationTicks": 96,
            "midi": 38,
            "name": "D2",
            "ticks": 29088,
            "time": 41.3181405,
            "velocity": 0.29133858267716534
          },
          {
            "duration": 0.13636350000000164,
            "durationTicks": 96,
            "midi": 38,
            "name": "D2",
            "ticks": 29568,
            "time": 41.999958,
            "velocity": 0.29133858267716534
          },
          {
            "duration": 0.13636350000000164,
            "durationTicks": 96,
            "midi": 38,
            "name": "D2",
            "ticks": 30048,
            "time": 42.6817755,
            "velocity": 0.29133858267716534
          },
          {
            "duration": 0.13636350000000164,
            "durationTicks": 96,
            "midi": 38,
            "name": "D2",
            "ticks": 30336,
            "time": 43.090866,
            "velocity": 0.29133858267716534
          },
          {
            "duration": 0.13636350000000164,
            "durationTicks": 96,
            "midi": 38,
            "name": "D2",
            "ticks": 30624,
            "time": 43.499956499999996,
            "velocity": 0.29133858267716534
          },
          {
            "duration": 0.13636350000000164,
            "durationTicks": 96,
            "midi": 38,
            "name": "D2",
            "ticks": 31104,
            "time": 44.181774,
            "velocity": 0.29133858267716534
          },
          {
            "duration": 0.13636350000000164,
            "durationTicks": 96,
            "midi": 38,
            "name": "D2",
            "ticks": 31872,
            "time": 45.272681999999996,
            "velocity": 0.29133858267716534
          },
          {
            "duration": 0.13636350000000164,
            "durationTicks": 96,
            "midi": 38,
            "name": "D2",
            "ticks": 32160,
            "time": 45.6817725,
            "velocity": 0.29133858267716534
          },
          {
            "duration": 0.13636349999999453,
            "durationTicks": 96,
            "midi": 38,
            "name": "D2",
            "ticks": 32640,
            "time": 46.36359,
            "velocity": 0.29133858267716534
          },
          {
            "duration": 0.13636350000000164,
            "durationTicks": 96,
            "midi": 38,
            "name": "D2",
            "ticks": 33408,
            "time": 47.454498,
            "velocity": 0.29133858267716534
          },
          {
            "duration": 0.13636349999999453,
            "durationTicks": 96,
            "midi": 38,
            "name": "D2",
            "ticks": 33504,
            "time": 47.5908615,
            "velocity": 0.29133858267716534
          },
          {
            "duration": 0.13636350000000164,
            "durationTicks": 96,
            "midi": 38,
            "name": "D2",
            "ticks": 33696,
            "time": 47.8635885,
            "velocity": 0.29133858267716534
          },
          {
            "duration": 0.13636350000000164,
            "durationTicks": 96,
            "midi": 38,
            "name": "D2",
            "ticks": 34176,
            "time": 48.545406,
            "velocity": 0.29133858267716534
          },
          {
            "duration": 0.13636350000000164,
            "durationTicks": 96,
            "midi": 38,
            "name": "D2",
            "ticks": 34944,
            "time": 49.636314,
            "velocity": 0.29133858267716534
          },
          {
            "duration": 0.13636350000000164,
            "durationTicks": 96,
            "midi": 38,
            "name": "D2",
            "ticks": 35232,
            "time": 50.0454045,
            "velocity": 0.29133858267716534
          },
          {
            "duration": 0.13636350000000164,
            "durationTicks": 96,
            "midi": 38,
            "name": "D2",
            "ticks": 35712,
            "time": 50.727222,
            "velocity": 0.29133858267716534
          },
          {
            "duration": 0.13636350000000164,
            "durationTicks": 96,
            "midi": 38,
            "name": "D2",
            "ticks": 36192,
            "time": 51.4090395,
            "velocity": 0.29133858267716534
          },
          {
            "duration": 0.13636350000000164,
            "durationTicks": 96,
            "midi": 38,
            "name": "D2",
            "ticks": 36480,
            "time": 51.81813,
            "velocity": 0.29133858267716534
          },
          {
            "duration": 0.13636350000000164,
            "durationTicks": 96,
            "midi": 38,
            "name": "D2",
            "ticks": 36768,
            "time": 52.2272205,
            "velocity": 0.29133858267716534
          },
          {
            "duration": 0.13636349999999453,
            "durationTicks": 96,
            "midi": 38,
            "name": "D2",
            "ticks": 37248,
            "time": 52.909038,
            "velocity": 0.29133858267716534
          },
          {
            "duration": 0.13636350000000164,
            "durationTicks": 96,
            "midi": 38,
            "name": "D2",
            "ticks": 38016,
            "time": 53.999946,
            "velocity": 0.29133858267716534
          },
          {
            "duration": 0.13636350000000164,
            "durationTicks": 96,
            "midi": 38,
            "name": "D2",
            "ticks": 38304,
            "time": 54.4090365,
            "velocity": 0.29133858267716534
          },
          {
            "duration": 0.13636350000000164,
            "durationTicks": 96,
            "midi": 38,
            "name": "D2",
            "ticks": 38784,
            "time": 55.090854,
            "velocity": 0.29133858267716534
          },
          {
            "duration": 0.13636350000000164,
            "durationTicks": 96,
            "midi": 38,
            "name": "D2",
            "ticks": 39552,
            "time": 56.181762,
            "velocity": 0.29133858267716534
          },
          {
            "duration": 0.13636350000000164,
            "durationTicks": 96,
            "midi": 38,
            "name": "D2",
            "ticks": 39648,
            "time": 56.3181255,
            "velocity": 0.29133858267716534
          },
          {
            "duration": 0.13636350000000164,
            "durationTicks": 96,
            "midi": 38,
            "name": "D2",
            "ticks": 39840,
            "time": 56.5908525,
            "velocity": 0.29133858267716534
          },
          {
            "duration": 0.13636350000000164,
            "durationTicks": 96,
            "midi": 38,
            "name": "D2",
            "ticks": 40320,
            "time": 57.27267,
            "velocity": 0.29133858267716534
          },
          {
            "duration": 0.13636350000000164,
            "durationTicks": 96,
            "midi": 38,
            "name": "D2",
            "ticks": 41088,
            "time": 58.363578,
            "velocity": 0.29133858267716534
          },
          {
            "duration": 0.13636349999999453,
            "durationTicks": 96,
            "midi": 38,
            "name": "D2",
            "ticks": 41376,
            "time": 58.7726685,
            "velocity": 0.29133858267716534
          },
          {
            "duration": 0.13636349999999453,
            "durationTicks": 96,
            "midi": 38,
            "name": "D2",
            "ticks": 41856,
            "time": 59.454486,
            "velocity": 0.29133858267716534
          },
          {
            "duration": 0.13636350000000164,
            "durationTicks": 96,
            "midi": 38,
            "name": "D2",
            "ticks": 42336,
            "time": 60.1363035,
            "velocity": 0.29133858267716534
          },
          {
            "duration": 0.13636349999999453,
            "durationTicks": 96,
            "midi": 38,
            "name": "D2",
            "ticks": 42624,
            "time": 60.545394,
            "velocity": 0.29133858267716534
          },
          {
            "duration": 0.13636350000000164,
            "durationTicks": 96,
            "midi": 38,
            "name": "D2",
            "ticks": 42912,
            "time": 60.9544845,
            "velocity": 0.29133858267716534
          },
          {
            "duration": 0.13636350000000164,
            "durationTicks": 96,
            "midi": 38,
            "name": "D2",
            "ticks": 43392,
            "time": 61.636302,
            "velocity": 0.29133858267716534
          },
          {
            "duration": 0.13636350000000164,
            "durationTicks": 96,
            "midi": 38,
            "name": "D2",
            "ticks": 44160,
            "time": 62.72721,
            "velocity": 0.29133858267716534
          },
          {
            "duration": 0.13636350000000164,
            "durationTicks": 96,
            "midi": 38,
            "name": "D2",
            "ticks": 44448,
            "time": 63.1363005,
            "velocity": 0.29133858267716534
          },
          {
            "duration": 0.13636350000000164,
            "durationTicks": 96,
            "midi": 38,
            "name": "D2",
            "ticks": 44928,
            "time": 63.818118,
            "velocity": 0.29133858267716534
          },
          {
            "duration": 0.13636350000000164,
            "durationTicks": 96,
            "midi": 38,
            "name": "D2",
            "ticks": 45696,
            "time": 64.909026,
            "velocity": 0.29133858267716534
          },
          {
            "duration": 0.13636350000000164,
            "durationTicks": 96,
            "midi": 38,
            "name": "D2",
            "ticks": 45792,
            "time": 65.0453895,
            "velocity": 0.29133858267716534
          },
          {
            "duration": 0.13636350000000164,
            "durationTicks": 96,
            "midi": 38,
            "name": "D2",
            "ticks": 45984,
            "time": 65.3181165,
            "velocity": 0.29133858267716534
          },
          {
            "duration": 0.13636350000000164,
            "durationTicks": 96,
            "midi": 38,
            "name": "D2",
            "ticks": 46464,
            "time": 65.999934,
            "velocity": 0.29133858267716534
          },
          {
            "duration": 0.13636350000000164,
            "durationTicks": 96,
            "midi": 38,
            "name": "D2",
            "ticks": 47232,
            "time": 67.090842,
            "velocity": 0.29133858267716534
          },
          {
            "duration": 0.13636350000000164,
            "durationTicks": 96,
            "midi": 38,
            "name": "D2",
            "ticks": 47520,
            "time": 67.4999325,
            "velocity": 0.29133858267716534
          },
          {
            "duration": 0.13636350000000164,
            "durationTicks": 96,
            "midi": 38,
            "name": "D2",
            "ticks": 48000,
            "time": 68.18175,
            "velocity": 0.29133858267716534
          },
          {
            "duration": 0.13636350000000164,
            "durationTicks": 96,
            "midi": 38,
            "name": "D2",
            "ticks": 48480,
            "time": 68.8635675,
            "velocity": 0.29133858267716534
          },
          {
            "duration": 0.13636350000000164,
            "durationTicks": 96,
            "midi": 38,
            "name": "D2",
            "ticks": 48768,
            "time": 69.27265799999999,
            "velocity": 0.29133858267716534
          },
          {
            "duration": 0.13636350000000164,
            "durationTicks": 96,
            "midi": 38,
            "name": "D2",
            "ticks": 49056,
            "time": 69.6817485,
            "velocity": 0.29133858267716534
          },
          {
            "duration": 0.13636350000000164,
            "durationTicks": 96,
            "midi": 28,
            "name": "E1",
            "ticks": 49152,
            "time": 69.818112,
            "velocity": 0.29133858267716534
          },
          {
            "duration": 0.13636350000000164,
            "durationTicks": 96,
            "midi": 28,
            "name": "E1",
            "ticks": 49248,
            "time": 69.9544755,
            "velocity": 0.29133858267716534
          },
          {
            "duration": 0.13636350000000164,
            "durationTicks": 96,
            "midi": 28,
            "name": "E1",
            "ticks": 49344,
            "time": 70.090839,
            "velocity": 0.29133858267716534
          },
          {
            "duration": 0.13636350000000164,
            "durationTicks": 96,
            "midi": 28,
            "name": "E1",
            "ticks": 49440,
            "time": 70.2272025,
            "velocity": 0.29133858267716534
          },
          {
            "duration": 0.13636349999998743,
            "durationTicks": 96,
            "midi": 28,
            "name": "E1",
            "ticks": 49536,
            "time": 70.363566,
            "velocity": 0.29133858267716534
          },
          {
            "duration": 0.13636350000000164,
            "durationTicks": 96,
            "midi": 28,
            "name": "E1",
            "ticks": 49632,
            "time": 70.4999295,
            "velocity": 0.29133858267716534
          },
          {
            "duration": 0.13636350000000164,
            "durationTicks": 96,
            "midi": 28,
            "name": "E1",
            "ticks": 49728,
            "time": 70.636293,
            "velocity": 0.29133858267716534
          },
          {
            "duration": 0.13636350000000164,
            "durationTicks": 96,
            "midi": 28,
            "name": "E1",
            "ticks": 49824,
            "time": 70.7726565,
            "velocity": 0.29133858267716534
          },
          {
            "duration": 0.13636350000000164,
            "durationTicks": 96,
            "midi": 28,
            "name": "E1",
            "ticks": 49920,
            "time": 70.90902,
            "velocity": 0.29133858267716534
          },
          {
            "duration": 0.13636350000000164,
            "durationTicks": 96,
            "midi": 28,
            "name": "E1",
            "ticks": 50016,
            "time": 71.0453835,
            "velocity": 0.29133858267716534
          },
          {
            "duration": 0.13636350000000164,
            "durationTicks": 96,
            "midi": 28,
            "name": "E1",
            "ticks": 50112,
            "time": 71.181747,
            "velocity": 0.29133858267716534
          },
          {
            "duration": 0.13636350000000164,
            "durationTicks": 96,
            "midi": 28,
            "name": "E1",
            "ticks": 50208,
            "time": 71.3181105,
            "velocity": 0.29133858267716534
          },
          {
            "duration": 0.13636350000000164,
            "durationTicks": 96,
            "midi": 28,
            "name": "E1",
            "ticks": 50304,
            "time": 71.454474,
            "velocity": 0.29133858267716534
          },
          {
            "duration": 0.13636349999998743,
            "durationTicks": 96,
            "midi": 28,
            "name": "E1",
            "ticks": 50400,
            "time": 71.5908375,
            "velocity": 0.29133858267716534
          },
          {
            "duration": 0.13636350000000164,
            "durationTicks": 96,
            "midi": 28,
            "name": "E1",
            "ticks": 50496,
            "time": 71.727201,
            "velocity": 0.29133858267716534
          },
          {
            "duration": 0.13636350000000164,
            "durationTicks": 96,
            "midi": 28,
            "name": "E1",
            "ticks": 50592,
            "time": 71.8635645,
            "velocity": 0.29133858267716534
          },
          {
            "duration": 0.13636350000000164,
            "durationTicks": 96,
            "midi": 28,
            "name": "E1",
            "ticks": 50688,
            "time": 71.999928,
            "velocity": 0.29133858267716534
          },
          {
            "duration": 0.13636350000000164,
            "durationTicks": 96,
            "midi": 28,
            "name": "E1",
            "ticks": 50784,
            "time": 72.1362915,
            "velocity": 0.29133858267716534
          },
          {
            "duration": 0.13636350000000164,
            "durationTicks": 96,
            "midi": 28,
            "name": "E1",
            "ticks": 50880,
            "time": 72.272655,
            "velocity": 0.29133858267716534
          },
          {
            "duration": 0.13636350000000164,
            "durationTicks": 96,
            "midi": 28,
            "name": "E1",
            "ticks": 50976,
            "time": 72.4090185,
            "velocity": 0.29133858267716534
          },
          {
            "duration": 0.13636350000000164,
            "durationTicks": 96,
            "midi": 28,
            "name": "E1",
            "ticks": 51072,
            "time": 72.545382,
            "velocity": 0.29133858267716534
          },
          {
            "duration": 0.13636349999998743,
            "durationTicks": 96,
            "midi": 28,
            "name": "E1",
            "ticks": 51168,
            "time": 72.6817455,
            "velocity": 0.29133858267716534
          },
          {
            "duration": 0.13636350000000164,
            "durationTicks": 96,
            "midi": 28,
            "name": "E1",
            "ticks": 51264,
            "time": 72.81810899999999,
            "velocity": 0.29133858267716534
          },
          {
            "duration": 0.13636350000000164,
            "durationTicks": 96,
            "midi": 28,
            "name": "E1",
            "ticks": 51360,
            "time": 72.9544725,
            "velocity": 0.29133858267716534
          },
          {
            "duration": 0.13636350000000164,
            "durationTicks": 96,
            "midi": 28,
            "name": "E1",
            "ticks": 51456,
            "time": 73.090836,
            "velocity": 0.29133858267716534
          },
          {
            "duration": 0.13636350000000164,
            "durationTicks": 96,
            "midi": 28,
            "name": "E1",
            "ticks": 51552,
            "time": 73.2271995,
            "velocity": 0.29133858267716534
          },
          {
            "duration": 0.13636350000000164,
            "durationTicks": 96,
            "midi": 28,
            "name": "E1",
            "ticks": 51648,
            "time": 73.363563,
            "velocity": 0.29133858267716534
          },
          {
            "duration": 0.13636350000000164,
            "durationTicks": 96,
            "midi": 28,
            "name": "E1",
            "ticks": 51744,
            "time": 73.4999265,
            "velocity": 0.29133858267716534
          },
          {
            "duration": 0.13636350000000164,
            "durationTicks": 96,
            "midi": 28,
            "name": "E1",
            "ticks": 51840,
            "time": 73.63629,
            "velocity": 0.29133858267716534
          },
          {
            "duration": 0.13636350000000164,
            "durationTicks": 96,
            "midi": 28,
            "name": "E1",
            "ticks": 51936,
            "time": 73.7726535,
            "velocity": 0.29133858267716534
          },
          {
            "duration": 0.13636349999998743,
            "durationTicks": 96,
            "midi": 28,
            "name": "E1",
            "ticks": 52032,
            "time": 73.909017,
            "velocity": 0.29133858267716534
          },
          {
            "duration": 0.13636350000000164,
            "durationTicks": 96,
            "midi": 28,
            "name": "E1",
            "ticks": 52128,
            "time": 74.0453805,
            "velocity": 0.29133858267716534
          },
          {
            "duration": 0.13636350000000164,
            "durationTicks": 96,
            "midi": 28,
            "name": "E1",
            "ticks": 52224,
            "time": 74.181744,
            "velocity": 0.29133858267716534
          },
          {
            "duration": 0.13636350000000164,
            "durationTicks": 96,
            "midi": 28,
            "name": "E1",
            "ticks": 52320,
            "time": 74.3181075,
            "velocity": 0.29133858267716534
          },
          {
            "duration": 0.13636350000000164,
            "durationTicks": 96,
            "midi": 28,
            "name": "E1",
            "ticks": 52416,
            "time": 74.454471,
            "velocity": 0.29133858267716534
          },
          {
            "duration": 0.13636350000000164,
            "durationTicks": 96,
            "midi": 28,
            "name": "E1",
            "ticks": 52512,
            "time": 74.5908345,
            "velocity": 0.29133858267716534
          },
          {
            "duration": 0.13636350000000164,
            "durationTicks": 96,
            "midi": 28,
            "name": "E1",
            "ticks": 52608,
            "time": 74.727198,
            "velocity": 0.29133858267716534
          },
          {
            "duration": 0.13636350000000164,
            "durationTicks": 96,
            "midi": 28,
            "name": "E1",
            "ticks": 52704,
            "time": 74.8635615,
            "velocity": 0.29133858267716534
          },
          {
            "duration": 0.13636350000000164,
            "durationTicks": 96,
            "midi": 28,
            "name": "E1",
            "ticks": 52800,
            "time": 74.999925,
            "velocity": 0.29133858267716534
          },
          {
            "duration": 0.13636349999998743,
            "durationTicks": 96,
            "midi": 28,
            "name": "E1",
            "ticks": 52896,
            "time": 75.1362885,
            "velocity": 0.29133858267716534
          },
          {
            "duration": 0.13636350000000164,
            "durationTicks": 96,
            "midi": 28,
            "name": "E1",
            "ticks": 52992,
            "time": 75.272652,
            "velocity": 0.29133858267716534
          },
          {
            "duration": 0.13636350000000164,
            "durationTicks": 96,
            "midi": 28,
            "name": "E1",
            "ticks": 53088,
            "time": 75.4090155,
            "velocity": 0.29133858267716534
          },
          {
            "duration": 0.13636350000000164,
            "durationTicks": 96,
            "midi": 28,
            "name": "E1",
            "ticks": 53184,
            "time": 75.545379,
            "velocity": 0.29133858267716534
          },
          {
            "duration": 0.13636350000000164,
            "durationTicks": 96,
            "midi": 28,
            "name": "E1",
            "ticks": 53280,
            "time": 75.6817425,
            "velocity": 0.29133858267716534
          },
          {
            "duration": 0.13636350000000164,
            "durationTicks": 96,
            "midi": 28,
            "name": "E1",
            "ticks": 53376,
            "time": 75.818106,
            "velocity": 0.29133858267716534
          },
          {
            "duration": 0.13636350000000164,
            "durationTicks": 96,
            "midi": 28,
            "name": "E1",
            "ticks": 53472,
            "time": 75.9544695,
            "velocity": 0.29133858267716534
          },
          {
            "duration": 0.13636350000000164,
            "durationTicks": 96,
            "midi": 28,
            "name": "E1",
            "ticks": 53568,
            "time": 76.090833,
            "velocity": 0.29133858267716534
          },
          {
            "duration": 0.13636349999998743,
            "durationTicks": 96,
            "midi": 28,
            "name": "E1",
            "ticks": 53664,
            "time": 76.2271965,
            "velocity": 0.29133858267716534
          },
          {
            "duration": 0.13636350000000164,
            "durationTicks": 96,
            "midi": 28,
            "name": "E1",
            "ticks": 53760,
            "time": 76.36355999999999,
            "velocity": 0.29133858267716534
          },
          {
            "duration": 0.13636350000000164,
            "durationTicks": 96,
            "midi": 28,
            "name": "E1",
            "ticks": 53856,
            "time": 76.4999235,
            "velocity": 0.29133858267716534
          },
          {
            "duration": 0.13636350000000164,
            "durationTicks": 96,
            "midi": 28,
            "name": "E1",
            "ticks": 53952,
            "time": 76.636287,
            "velocity": 0.29133858267716534
          },
          {
            "duration": 0.13636350000000164,
            "durationTicks": 96,
            "midi": 28,
            "name": "E1",
            "ticks": 54048,
            "time": 76.7726505,
            "velocity": 0.29133858267716534
          },
          {
            "duration": 0.13636350000000164,
            "durationTicks": 96,
            "midi": 28,
            "name": "E1",
            "ticks": 54144,
            "time": 76.909014,
            "velocity": 0.29133858267716534
          },
          {
            "duration": 0.13636350000000164,
            "durationTicks": 96,
            "midi": 28,
            "name": "E1",
            "ticks": 54240,
            "time": 77.0453775,
            "velocity": 0.29133858267716534
          },
          {
            "duration": 0.13636350000000164,
            "durationTicks": 96,
            "midi": 28,
            "name": "E1",
            "ticks": 54336,
            "time": 77.181741,
            "velocity": 0.29133858267716534
          },
          {
            "duration": 0.13636350000000164,
            "durationTicks": 96,
            "midi": 28,
            "name": "E1",
            "ticks": 54432,
            "time": 77.3181045,
            "velocity": 0.29133858267716534
          },
          {
            "duration": 0.13636349999998743,
            "durationTicks": 96,
            "midi": 28,
            "name": "E1",
            "ticks": 54528,
            "time": 77.454468,
            "velocity": 0.29133858267716534
          },
          {
            "duration": 0.13636350000000164,
            "durationTicks": 96,
            "midi": 28,
            "name": "E1",
            "ticks": 54624,
            "time": 77.5908315,
            "velocity": 0.29133858267716534
          },
          {
            "duration": 0.13636350000000164,
            "durationTicks": 96,
            "midi": 28,
            "name": "E1",
            "ticks": 54720,
            "time": 77.727195,
            "velocity": 0.29133858267716534
          },
          {
            "duration": 0.13636350000000164,
            "durationTicks": 96,
            "midi": 28,
            "name": "E1",
            "ticks": 54816,
            "time": 77.8635585,
            "velocity": 0.29133858267716534
          },
          {
            "duration": 0.13636350000000164,
            "durationTicks": 96,
            "midi": 28,
            "name": "E1",
            "ticks": 54912,
            "time": 77.999922,
            "velocity": 0.29133858267716534
          },
          {
            "duration": 0.13636350000000164,
            "durationTicks": 96,
            "midi": 28,
            "name": "E1",
            "ticks": 55008,
            "time": 78.1362855,
            "velocity": 0.29133858267716534
          },
          {
            "duration": 0.13636350000000164,
            "durationTicks": 96,
            "midi": 28,
            "name": "E1",
            "ticks": 55104,
            "time": 78.272649,
            "velocity": 0.29133858267716534
          },
          {
            "duration": 0.13636350000000164,
            "durationTicks": 96,
            "midi": 28,
            "name": "E1",
            "ticks": 55200,
            "time": 78.4090125,
            "velocity": 0.29133858267716534
          },
          {
            "duration": 0.13636350000000164,
            "durationTicks": 96,
            "midi": 28,
            "name": "E1",
            "ticks": 55296,
            "time": 78.545376,
            "velocity": 0.29133858267716534
          },
          {
            "duration": 0.13636349999998743,
            "durationTicks": 96,
            "midi": 28,
            "name": "E1",
            "ticks": 55392,
            "time": 78.6817395,
            "velocity": 0.29133858267716534
          },
          {
            "duration": 0.13636350000000164,
            "durationTicks": 96,
            "midi": 28,
            "name": "E1",
            "ticks": 55488,
            "time": 78.818103,
            "velocity": 0.29133858267716534
          },
          {
            "duration": 0.13636350000000164,
            "durationTicks": 96,
            "midi": 28,
            "name": "E1",
            "ticks": 55584,
            "time": 78.9544665,
            "velocity": 0.29133858267716534
          },
          {
            "duration": 0.13636350000000164,
            "durationTicks": 96,
            "midi": 28,
            "name": "E1",
            "ticks": 55680,
            "time": 79.09083,
            "velocity": 0.29133858267716534
          },
          {
            "duration": 0.13636350000000164,
            "durationTicks": 96,
            "midi": 28,
            "name": "E1",
            "ticks": 55776,
            "time": 79.2271935,
            "velocity": 0.29133858267716534
          },
          {
            "duration": 0.13636350000000164,
            "durationTicks": 96,
            "midi": 28,
            "name": "E1",
            "ticks": 55872,
            "time": 79.363557,
            "velocity": 0.29133858267716534
          },
          {
            "duration": 0.13636350000000164,
            "durationTicks": 96,
            "midi": 28,
            "name": "E1",
            "ticks": 55968,
            "time": 79.4999205,
            "velocity": 0.29133858267716534
          },
          {
            "duration": 0.13636350000000164,
            "durationTicks": 96,
            "midi": 28,
            "name": "E1",
            "ticks": 56064,
            "time": 79.636284,
            "velocity": 0.29133858267716534
          },
          {
            "duration": 0.13636349999998743,
            "durationTicks": 96,
            "midi": 28,
            "name": "E1",
            "ticks": 56160,
            "time": 79.7726475,
            "velocity": 0.29133858267716534
          },
          {
            "duration": 0.13636350000000164,
            "durationTicks": 96,
            "midi": 28,
            "name": "E1",
            "ticks": 56256,
            "time": 79.90901099999999,
            "velocity": 0.29133858267716534
          },
          {
            "duration": 0.13636350000000164,
            "durationTicks": 96,
            "midi": 28,
            "name": "E1",
            "ticks": 56352,
            "time": 80.0453745,
            "velocity": 0.29133858267716534
          },
          {
            "duration": 0.13636350000000164,
            "durationTicks": 96,
            "midi": 28,
            "name": "E1",
            "ticks": 56448,
            "time": 80.181738,
            "velocity": 0.29133858267716534
          },
          {
            "duration": 0.13636350000000164,
            "durationTicks": 96,
            "midi": 28,
            "name": "E1",
            "ticks": 56544,
            "time": 80.3181015,
            "velocity": 0.29133858267716534
          },
          {
            "duration": 0.13636350000000164,
            "durationTicks": 96,
            "midi": 28,
            "name": "E1",
            "ticks": 56640,
            "time": 80.454465,
            "velocity": 0.29133858267716534
          },
          {
            "duration": 0.13636350000000164,
            "durationTicks": 96,
            "midi": 28,
            "name": "E1",
            "ticks": 56736,
            "time": 80.5908285,
            "velocity": 0.29133858267716534
          },
          {
            "duration": 0.13636350000000164,
            "durationTicks": 96,
            "midi": 28,
            "name": "E1",
            "ticks": 56832,
            "time": 80.727192,
            "velocity": 0.29133858267716534
          },
          {
            "duration": 0.13636350000000164,
            "durationTicks": 96,
            "midi": 28,
            "name": "E1",
            "ticks": 56928,
            "time": 80.8635555,
            "velocity": 0.29133858267716534
          },
          {
            "duration": 0.13636349999998743,
            "durationTicks": 96,
            "midi": 28,
            "name": "E1",
            "ticks": 57024,
            "time": 80.999919,
            "velocity": 0.29133858267716534
          },
          {
            "duration": 0.13636350000000164,
            "durationTicks": 96,
            "midi": 28,
            "name": "E1",
            "ticks": 57120,
            "time": 81.1362825,
            "velocity": 0.29133858267716534
          },
          {
            "duration": 0.13636350000000164,
            "durationTicks": 96,
            "midi": 28,
            "name": "E1",
            "ticks": 57216,
            "time": 81.272646,
            "velocity": 0.29133858267716534
          },
          {
            "duration": 0.13636350000000164,
            "durationTicks": 96,
            "midi": 28,
            "name": "E1",
            "ticks": 57312,
            "time": 81.4090095,
            "velocity": 0.29133858267716534
          },
          {
            "duration": 0.13636350000000164,
            "durationTicks": 96,
            "midi": 28,
            "name": "E1",
            "ticks": 57408,
            "time": 81.545373,
            "velocity": 0.29133858267716534
          },
          {
            "duration": 0.13636350000000164,
            "durationTicks": 96,
            "midi": 28,
            "name": "E1",
            "ticks": 57504,
            "time": 81.6817365,
            "velocity": 0.29133858267716534
          },
          {
            "duration": 0.13636350000000164,
            "durationTicks": 96,
            "midi": 28,
            "name": "E1",
            "ticks": 57600,
            "time": 81.8181,
            "velocity": 0.29133858267716534
          },
          {
            "duration": 0.13636350000000164,
            "durationTicks": 96,
            "midi": 28,
            "name": "E1",
            "ticks": 57696,
            "time": 81.9544635,
            "velocity": 0.29133858267716534
          },
          {
            "duration": 0.13636350000000164,
            "durationTicks": 96,
            "midi": 28,
            "name": "E1",
            "ticks": 57792,
            "time": 82.090827,
            "velocity": 0.29133858267716534
          },
          {
            "duration": 0.13636349999998743,
            "durationTicks": 96,
            "midi": 28,
            "name": "E1",
            "ticks": 57888,
            "time": 82.2271905,
            "velocity": 0.29133858267716534
          },
          {
            "duration": 0.13636350000000164,
            "durationTicks": 96,
            "midi": 28,
            "name": "E1",
            "ticks": 57984,
            "time": 82.363554,
            "velocity": 0.29133858267716534
          },
          {
            "duration": 0.13636350000000164,
            "durationTicks": 96,
            "midi": 28,
            "name": "E1",
            "ticks": 58080,
            "time": 82.4999175,
            "velocity": 0.29133858267716534
          },
          {
            "duration": 0.13636350000000164,
            "durationTicks": 96,
            "midi": 28,
            "name": "E1",
            "ticks": 58176,
            "time": 82.636281,
            "velocity": 0.29133858267716534
          },
          {
            "duration": 0.13636350000000164,
            "durationTicks": 96,
            "midi": 28,
            "name": "E1",
            "ticks": 58272,
            "time": 82.7726445,
            "velocity": 0.29133858267716534
          },
          {
            "duration": 0.13636350000000164,
            "durationTicks": 96,
            "midi": 28,
            "name": "E1",
            "ticks": 58368,
            "time": 82.909008,
            "velocity": 0.29133858267716534
          },
          {
            "duration": 0.13636350000000164,
            "durationTicks": 96,
            "midi": 28,
            "name": "E1",
            "ticks": 58464,
            "time": 83.0453715,
            "velocity": 0.29133858267716534
          },
          {
            "duration": 0.13636350000000164,
            "durationTicks": 96,
            "midi": 28,
            "name": "E1",
            "ticks": 58560,
            "time": 83.181735,
            "velocity": 0.29133858267716534
          },
          {
            "duration": 0.13636349999998743,
            "durationTicks": 96,
            "midi": 28,
            "name": "E1",
            "ticks": 58656,
            "time": 83.3180985,
            "velocity": 0.29133858267716534
          },
          {
            "duration": 0.13636350000000164,
            "durationTicks": 96,
            "midi": 28,
            "name": "E1",
            "ticks": 58752,
            "time": 83.45446199999999,
            "velocity": 0.29133858267716534
          },
          {
            "duration": 0.13636350000000164,
            "durationTicks": 96,
            "midi": 28,
            "name": "E1",
            "ticks": 58848,
            "time": 83.5908255,
            "velocity": 0.29133858267716534
          },
          {
            "duration": 0.13636350000000164,
            "durationTicks": 96,
            "midi": 28,
            "name": "E1",
            "ticks": 58944,
            "time": 83.727189,
            "velocity": 0.29133858267716534
          },
          {
            "duration": 0.13636350000000164,
            "durationTicks": 96,
            "midi": 28,
            "name": "E1",
            "ticks": 59040,
            "time": 83.8635525,
            "velocity": 0.29133858267716534
          },
          {
            "duration": 0.13636350000000164,
            "durationTicks": 96,
            "midi": 28,
            "name": "E1",
            "ticks": 59136,
            "time": 83.999916,
            "velocity": 0.29133858267716534
          },
          {
            "duration": 0.13636350000000164,
            "durationTicks": 96,
            "midi": 28,
            "name": "E1",
            "ticks": 59232,
            "time": 84.1362795,
            "velocity": 0.29133858267716534
          },
          {
            "duration": 0.13636350000000164,
            "durationTicks": 96,
            "midi": 28,
            "name": "E1",
            "ticks": 59328,
            "time": 84.272643,
            "velocity": 0.29133858267716534
          },
          {
            "duration": 0.13636350000000164,
            "durationTicks": 96,
            "midi": 28,
            "name": "E1",
            "ticks": 59424,
            "time": 84.4090065,
            "velocity": 0.29133858267716534
          },
          {
            "duration": 0.13636349999998743,
            "durationTicks": 96,
            "midi": 28,
            "name": "E1",
            "ticks": 59520,
            "time": 84.54537,
            "velocity": 0.29133858267716534
          },
          {
            "duration": 0.13636350000000164,
            "durationTicks": 96,
            "midi": 28,
            "name": "E1",
            "ticks": 59616,
            "time": 84.68173349999999,
            "velocity": 0.29133858267716534
          },
          {
            "duration": 0.13636350000000164,
            "durationTicks": 96,
            "midi": 28,
            "name": "E1",
            "ticks": 59712,
            "time": 84.818097,
            "velocity": 0.29133858267716534
          },
          {
            "duration": 0.13636350000000164,
            "durationTicks": 96,
            "midi": 28,
            "name": "E1",
            "ticks": 59808,
            "time": 84.9544605,
            "velocity": 0.29133858267716534
          },
          {
            "duration": 0.13636350000000164,
            "durationTicks": 96,
            "midi": 28,
            "name": "E1",
            "ticks": 59904,
            "time": 85.090824,
            "velocity": 0.29133858267716534
          },
          {
            "duration": 0.13636350000000164,
            "durationTicks": 96,
            "midi": 28,
            "name": "E1",
            "ticks": 60000,
            "time": 85.2271875,
            "velocity": 0.29133858267716534
          },
          {
            "duration": 0.13636350000000164,
            "durationTicks": 96,
            "midi": 28,
            "name": "E1",
            "ticks": 60096,
            "time": 85.363551,
            "velocity": 0.29133858267716534
          },
          {
            "duration": 0.13636350000000164,
            "durationTicks": 96,
            "midi": 28,
            "name": "E1",
            "ticks": 60192,
            "time": 85.4999145,
            "velocity": 0.29133858267716534
          },
          {
            "duration": 0.13636350000000164,
            "durationTicks": 96,
            "midi": 28,
            "name": "E1",
            "ticks": 60288,
            "time": 85.636278,
            "velocity": 0.29133858267716534
          },
          {
            "duration": 0.13636349999998743,
            "durationTicks": 96,
            "midi": 28,
            "name": "E1",
            "ticks": 60384,
            "time": 85.7726415,
            "velocity": 0.29133858267716534
          },
          {
            "duration": 0.13636350000000164,
            "durationTicks": 96,
            "midi": 28,
            "name": "E1",
            "ticks": 60480,
            "time": 85.909005,
            "velocity": 0.29133858267716534
          },
          {
            "duration": 0.13636350000000164,
            "durationTicks": 96,
            "midi": 28,
            "name": "E1",
            "ticks": 60576,
            "time": 86.0453685,
            "velocity": 0.29133858267716534
          },
          {
            "duration": 0.13636350000000164,
            "durationTicks": 96,
            "midi": 28,
            "name": "E1",
            "ticks": 60672,
            "time": 86.181732,
            "velocity": 0.29133858267716534
          },
          {
            "duration": 0.13636350000000164,
            "durationTicks": 96,
            "midi": 28,
            "name": "E1",
            "ticks": 60768,
            "time": 86.3180955,
            "velocity": 0.29133858267716534
          },
          {
            "duration": 0.13636350000000164,
            "durationTicks": 96,
            "midi": 28,
            "name": "E1",
            "ticks": 60864,
            "time": 86.454459,
            "velocity": 0.29133858267716534
          },
          {
            "duration": 0.13636350000000164,
            "durationTicks": 96,
            "midi": 28,
            "name": "E1",
            "ticks": 60960,
            "time": 86.5908225,
            "velocity": 0.29133858267716534
          },
          {
            "duration": 0.13636350000000164,
            "durationTicks": 96,
            "midi": 28,
            "name": "E1",
            "ticks": 61056,
            "time": 86.727186,
            "velocity": 0.29133858267716534
          },
          {
            "duration": 0.13636349999998743,
            "durationTicks": 96,
            "midi": 28,
            "name": "E1",
            "ticks": 61152,
            "time": 86.8635495,
            "velocity": 0.29133858267716534
          },
          {
            "duration": 0.13636350000000164,
            "durationTicks": 96,
            "midi": 28,
            "name": "E1",
            "ticks": 61248,
            "time": 86.99991299999999,
            "velocity": 0.29133858267716534
          },
          {
            "duration": 0.13636350000000164,
            "durationTicks": 96,
            "midi": 28,
            "name": "E1",
            "ticks": 61344,
            "time": 87.1362765,
            "velocity": 0.29133858267716534
          },
          {
            "duration": 0.13636350000000164,
            "durationTicks": 96,
            "midi": 28,
            "name": "E1",
            "ticks": 61440,
            "time": 87.27264,
            "velocity": 0.29133858267716534
          },
          {
            "duration": 0.13636350000000164,
            "durationTicks": 96,
            "midi": 28,
            "name": "E1",
            "ticks": 61536,
            "time": 87.4090035,
            "velocity": 0.29133858267716534
          },
          {
            "duration": 0.13636350000000164,
            "durationTicks": 96,
            "midi": 28,
            "name": "E1",
            "ticks": 61632,
            "time": 87.545367,
            "velocity": 0.29133858267716534
          },
          {
            "duration": 0.13636350000000164,
            "durationTicks": 96,
            "midi": 28,
            "name": "E1",
            "ticks": 61728,
            "time": 87.6817305,
            "velocity": 0.29133858267716534
          },
          {
            "duration": 0.13636350000000164,
            "durationTicks": 96,
            "midi": 28,
            "name": "E1",
            "ticks": 61824,
            "time": 87.818094,
            "velocity": 0.29133858267716534
          },
          {
            "duration": 0.13636350000000164,
            "durationTicks": 96,
            "midi": 28,
            "name": "E1",
            "ticks": 61920,
            "time": 87.9544575,
            "velocity": 0.29133858267716534
          },
          {
            "duration": 0.13636349999998743,
            "durationTicks": 96,
            "midi": 28,
            "name": "E1",
            "ticks": 62016,
            "time": 88.090821,
            "velocity": 0.29133858267716534
          },
          {
            "duration": 0.13636350000000164,
            "durationTicks": 96,
            "midi": 28,
            "name": "E1",
            "ticks": 62112,
            "time": 88.22718449999999,
            "velocity": 0.29133858267716534
          },
          {
            "duration": 0.13636350000000164,
            "durationTicks": 96,
            "midi": 28,
            "name": "E1",
            "ticks": 62208,
            "time": 88.363548,
            "velocity": 0.29133858267716534
          },
          {
            "duration": 0.13636350000000164,
            "durationTicks": 96,
            "midi": 28,
            "name": "E1",
            "ticks": 62304,
            "time": 88.4999115,
            "velocity": 0.29133858267716534
          },
          {
            "duration": 0.13636350000000164,
            "durationTicks": 96,
            "midi": 28,
            "name": "E1",
            "ticks": 62400,
            "time": 88.636275,
            "velocity": 0.29133858267716534
          },
          {
            "duration": 0.13636350000000164,
            "durationTicks": 96,
            "midi": 28,
            "name": "E1",
            "ticks": 62496,
            "time": 88.7726385,
            "velocity": 0.29133858267716534
          },
          {
            "duration": 0.13636350000000164,
            "durationTicks": 96,
            "midi": 28,
            "name": "E1",
            "ticks": 62592,
            "time": 88.909002,
            "velocity": 0.29133858267716534
          },
          {
            "duration": 0.13636350000000164,
            "durationTicks": 96,
            "midi": 28,
            "name": "E1",
            "ticks": 62688,
            "time": 89.0453655,
            "velocity": 0.29133858267716534
          },
          {
            "duration": 0.13636350000000164,
            "durationTicks": 96,
            "midi": 28,
            "name": "E1",
            "ticks": 62784,
            "time": 89.181729,
            "velocity": 0.29133858267716534
          },
          {
            "duration": 0.13636349999998743,
            "durationTicks": 96,
            "midi": 28,
            "name": "E1",
            "ticks": 62880,
            "time": 89.3180925,
            "velocity": 0.29133858267716534
          },
          {
            "duration": 0.13636350000000164,
            "durationTicks": 96,
            "midi": 28,
            "name": "E1",
            "ticks": 62976,
            "time": 89.454456,
            "velocity": 0.29133858267716534
          },
          {
            "duration": 0.13636350000000164,
            "durationTicks": 96,
            "midi": 28,
            "name": "E1",
            "ticks": 63072,
            "time": 89.5908195,
            "velocity": 0.29133858267716534
          },
          {
            "duration": 0.13636350000000164,
            "durationTicks": 96,
            "midi": 28,
            "name": "E1",
            "ticks": 63168,
            "time": 89.727183,
            "velocity": 0.29133858267716534
          },
          {
            "duration": 0.13636350000000164,
            "durationTicks": 96,
            "midi": 28,
            "name": "E1",
            "ticks": 63264,
            "time": 89.8635465,
            "velocity": 0.29133858267716534
          },
          {
            "duration": 0.13636350000000164,
            "durationTicks": 96,
            "midi": 28,
            "name": "E1",
            "ticks": 63360,
            "time": 89.99991,
            "velocity": 0.29133858267716534
          },
          {
            "duration": 0.13636350000000164,
            "durationTicks": 96,
            "midi": 28,
            "name": "E1",
            "ticks": 63456,
            "time": 90.1362735,
            "velocity": 0.29133858267716534
          },
          {
            "duration": 0.13636350000000164,
            "durationTicks": 96,
            "midi": 28,
            "name": "E1",
            "ticks": 63552,
            "time": 90.272637,
            "velocity": 0.29133858267716534
          },
          {
            "duration": 0.13636349999998743,
            "durationTicks": 96,
            "midi": 28,
            "name": "E1",
            "ticks": 63648,
            "time": 90.4090005,
            "velocity": 0.29133858267716534
          },
          {
            "duration": 0.13636350000000164,
            "durationTicks": 96,
            "midi": 28,
            "name": "E1",
            "ticks": 63744,
            "time": 90.54536399999999,
            "velocity": 0.29133858267716534
          },
          {
            "duration": 0.13636350000000164,
            "durationTicks": 96,
            "midi": 28,
            "name": "E1",
            "ticks": 63840,
            "time": 90.6817275,
            "velocity": 0.29133858267716534
          },
          {
            "duration": 0.13636350000000164,
            "durationTicks": 96,
            "midi": 28,
            "name": "E1",
            "ticks": 63936,
            "time": 90.818091,
            "velocity": 0.29133858267716534
          },
          {
            "duration": 0.13636350000000164,
            "durationTicks": 96,
            "midi": 28,
            "name": "E1",
            "ticks": 64032,
            "time": 90.9544545,
            "velocity": 0.29133858267716534
          },
          {
            "duration": 0.13636350000000164,
            "durationTicks": 96,
            "midi": 28,
            "name": "E1",
            "ticks": 64128,
            "time": 91.090818,
            "velocity": 0.29133858267716534
          },
          {
            "duration": 0.13636350000000164,
            "durationTicks": 96,
            "midi": 28,
            "name": "E1",
            "ticks": 64224,
            "time": 91.2271815,
            "velocity": 0.29133858267716534
          },
          {
            "duration": 0.13636350000000164,
            "durationTicks": 96,
            "midi": 28,
            "name": "E1",
            "ticks": 64320,
            "time": 91.363545,
            "velocity": 0.29133858267716534
          },
          {
            "duration": 0.13636350000000164,
            "durationTicks": 96,
            "midi": 28,
            "name": "E1",
            "ticks": 64416,
            "time": 91.4999085,
            "velocity": 0.29133858267716534
          },
          {
            "duration": 0.13636349999998743,
            "durationTicks": 96,
            "midi": 28,
            "name": "E1",
            "ticks": 64512,
            "time": 91.636272,
            "velocity": 0.29133858267716534
          },
          {
            "duration": 0.13636350000000164,
            "durationTicks": 96,
            "midi": 28,
            "name": "E1",
            "ticks": 64608,
            "time": 91.77263549999999,
            "velocity": 0.29133858267716534
          },
          {
            "duration": 0.13636350000000164,
            "durationTicks": 96,
            "midi": 28,
            "name": "E1",
            "ticks": 64704,
            "time": 91.908999,
            "velocity": 0.29133858267716534
          },
          {
            "duration": 0.13636350000000164,
            "durationTicks": 96,
            "midi": 28,
            "name": "E1",
            "ticks": 64800,
            "time": 92.0453625,
            "velocity": 0.29133858267716534
          },
          {
            "duration": 0.13636350000000164,
            "durationTicks": 96,
            "midi": 28,
            "name": "E1",
            "ticks": 64896,
            "time": 92.181726,
            "velocity": 0.29133858267716534
          },
          {
            "duration": 0.13636350000000164,
            "durationTicks": 96,
            "midi": 28,
            "name": "E1",
            "ticks": 64992,
            "time": 92.3180895,
            "velocity": 0.29133858267716534
          },
          {
            "duration": 0.13636350000000164,
            "durationTicks": 96,
            "midi": 28,
            "name": "E1",
            "ticks": 65088,
            "time": 92.454453,
            "velocity": 0.29133858267716534
          },
          {
            "duration": 0.13636350000000164,
            "durationTicks": 96,
            "midi": 28,
            "name": "E1",
            "ticks": 65184,
            "time": 92.5908165,
            "velocity": 0.29133858267716534
          },
          {
            "duration": 0.13636350000000164,
            "durationTicks": 96,
            "midi": 28,
            "name": "E1",
            "ticks": 65280,
            "time": 92.72718,
            "velocity": 0.29133858267716534
          },
          {
            "duration": 0.13636349999998743,
            "durationTicks": 96,
            "midi": 28,
            "name": "E1",
            "ticks": 65376,
            "time": 92.8635435,
            "velocity": 0.29133858267716534
          },
          {
            "duration": 0.13636350000000164,
            "durationTicks": 96,
            "midi": 28,
            "name": "E1",
            "ticks": 65472,
            "time": 92.999907,
            "velocity": 0.29133858267716534
          },
          {
            "duration": 0.13636350000000164,
            "durationTicks": 96,
            "midi": 28,
            "name": "E1",
            "ticks": 65568,
            "time": 93.1362705,
            "velocity": 0.29133858267716534
          },
          {
            "duration": 0.13636350000000164,
            "durationTicks": 96,
            "midi": 28,
            "name": "E1",
            "ticks": 65664,
            "time": 93.272634,
            "velocity": 0.29133858267716534
          },
          {
            "duration": 0.13636350000000164,
            "durationTicks": 96,
            "midi": 28,
            "name": "E1",
            "ticks": 65760,
            "time": 93.4089975,
            "velocity": 0.29133858267716534
          },
          {
            "duration": 0.13636350000000164,
            "durationTicks": 96,
            "midi": 28,
            "name": "E1",
            "ticks": 65856,
            "time": 93.545361,
            "velocity": 0.29133858267716534
          },
          {
            "duration": 0.13636350000000164,
            "durationTicks": 96,
            "midi": 28,
            "name": "E1",
            "ticks": 65952,
            "time": 93.6817245,
            "velocity": 0.29133858267716534
          },
          {
            "duration": 0.13636350000000164,
            "durationTicks": 96,
            "midi": 28,
            "name": "E1",
            "ticks": 66048,
            "time": 93.818088,
            "velocity": 0.29133858267716534
          },
          {
            "duration": 0.13636349999998743,
            "durationTicks": 96,
            "midi": 28,
            "name": "E1",
            "ticks": 66144,
            "time": 93.9544515,
            "velocity": 0.29133858267716534
          },
          {
            "duration": 0.13636350000000164,
            "durationTicks": 96,
            "midi": 28,
            "name": "E1",
            "ticks": 66240,
            "time": 94.09081499999999,
            "velocity": 0.29133858267716534
          },
          {
            "duration": 0.13636350000000164,
            "durationTicks": 96,
            "midi": 28,
            "name": "E1",
            "ticks": 66336,
            "time": 94.2271785,
            "velocity": 0.29133858267716534
          },
          {
            "duration": 0.13636350000000164,
            "durationTicks": 96,
            "midi": 28,
            "name": "E1",
            "ticks": 66432,
            "time": 94.363542,
            "velocity": 0.29133858267716534
          },
          {
            "duration": 0.13636350000000164,
            "durationTicks": 96,
            "midi": 28,
            "name": "E1",
            "ticks": 66528,
            "time": 94.4999055,
            "velocity": 0.29133858267716534
          },
          {
            "duration": 0.13636350000000164,
            "durationTicks": 96,
            "midi": 28,
            "name": "E1",
            "ticks": 66624,
            "time": 94.636269,
            "velocity": 0.29133858267716534
          },
          {
            "duration": 0.13636350000000164,
            "durationTicks": 96,
            "midi": 28,
            "name": "E1",
            "ticks": 66720,
            "time": 94.7726325,
            "velocity": 0.29133858267716534
          },
          {
            "duration": 0.13636350000000164,
            "durationTicks": 96,
            "midi": 28,
            "name": "E1",
            "ticks": 66816,
            "time": 94.908996,
            "velocity": 0.29133858267716534
          },
          {
            "duration": 0.13636350000000164,
            "durationTicks": 96,
            "midi": 28,
            "name": "E1",
            "ticks": 66912,
            "time": 95.0453595,
            "velocity": 0.29133858267716534
          },
          {
            "duration": 0.13636349999998743,
            "durationTicks": 96,
            "midi": 28,
            "name": "E1",
            "ticks": 67008,
            "time": 95.181723,
            "velocity": 0.29133858267716534
          },
          {
            "duration": 0.13636350000000164,
            "durationTicks": 96,
            "midi": 28,
            "name": "E1",
            "ticks": 67104,
            "time": 95.31808649999999,
            "velocity": 0.29133858267716534
          },
          {
            "duration": 0.13636350000000164,
            "durationTicks": 96,
            "midi": 28,
            "name": "E1",
            "ticks": 67200,
            "time": 95.45445,
            "velocity": 0.29133858267716534
          },
          {
            "duration": 0.13636350000000164,
            "durationTicks": 96,
            "midi": 28,
            "name": "E1",
            "ticks": 67296,
            "time": 95.5908135,
            "velocity": 0.29133858267716534
          },
          {
            "duration": 0.13636350000000164,
            "durationTicks": 96,
            "midi": 28,
            "name": "E1",
            "ticks": 67392,
            "time": 95.727177,
            "velocity": 0.29133858267716534
          },
          {
            "duration": 0.13636350000000164,
            "durationTicks": 96,
            "midi": 28,
            "name": "E1",
            "ticks": 67488,
            "time": 95.8635405,
            "velocity": 0.29133858267716534
          },
          {
            "duration": 0.13636350000000164,
            "durationTicks": 96,
            "midi": 28,
            "name": "E1",
            "ticks": 67584,
            "time": 95.999904,
            "velocity": 0.29133858267716534
          },
          {
            "duration": 0.13636350000000164,
            "durationTicks": 96,
            "midi": 28,
            "name": "E1",
            "ticks": 67680,
            "time": 96.1362675,
            "velocity": 0.29133858267716534
          },
          {
            "duration": 0.13636350000000164,
            "durationTicks": 96,
            "midi": 28,
            "name": "E1",
            "ticks": 67776,
            "time": 96.272631,
            "velocity": 0.29133858267716534
          },
          {
            "duration": 0.13636349999998743,
            "durationTicks": 96,
            "midi": 28,
            "name": "E1",
            "ticks": 67872,
            "time": 96.4089945,
            "velocity": 0.29133858267716534
          },
          {
            "duration": 0.13636350000000164,
            "durationTicks": 96,
            "midi": 28,
            "name": "E1",
            "ticks": 67968,
            "time": 96.545358,
            "velocity": 0.29133858267716534
          },
          {
            "duration": 0.13636350000000164,
            "durationTicks": 96,
            "midi": 28,
            "name": "E1",
            "ticks": 68064,
            "time": 96.6817215,
            "velocity": 0.29133858267716534
          },
          {
            "duration": 0.13636350000000164,
            "durationTicks": 96,
            "midi": 28,
            "name": "E1",
            "ticks": 68160,
            "time": 96.818085,
            "velocity": 0.29133858267716534
          },
          {
            "duration": 0.13636350000000164,
            "durationTicks": 96,
            "midi": 28,
            "name": "E1",
            "ticks": 68256,
            "time": 96.9544485,
            "velocity": 0.29133858267716534
          },
          {
            "duration": 0.13636350000000164,
            "durationTicks": 96,
            "midi": 28,
            "name": "E1",
            "ticks": 68352,
            "time": 97.090812,
            "velocity": 0.29133858267716534
          },
          {
            "duration": 0.13636350000000164,
            "durationTicks": 96,
            "midi": 28,
            "name": "E1",
            "ticks": 68448,
            "time": 97.2271755,
            "velocity": 0.29133858267716534
          },
          {
            "duration": 0.13636350000000164,
            "durationTicks": 96,
            "midi": 28,
            "name": "E1",
            "ticks": 68544,
            "time": 97.363539,
            "velocity": 0.29133858267716534
          },
          {
            "duration": 0.13636349999998743,
            "durationTicks": 96,
            "midi": 28,
            "name": "E1",
            "ticks": 68640,
            "time": 97.4999025,
            "velocity": 0.29133858267716534
          },
          {
            "duration": 0.13636350000000164,
            "durationTicks": 96,
            "midi": 28,
            "name": "E1",
            "ticks": 68736,
            "time": 97.63626599999999,
            "velocity": 0.29133858267716534
          },
          {
            "duration": 0.13636350000000164,
            "durationTicks": 96,
            "midi": 28,
            "name": "E1",
            "ticks": 68832,
            "time": 97.7726295,
            "velocity": 0.29133858267716534
          },
          {
            "duration": 0.13636350000000164,
            "durationTicks": 96,
            "midi": 28,
            "name": "E1",
            "ticks": 68928,
            "time": 97.908993,
            "velocity": 0.29133858267716534
          },
          {
            "duration": 0.13636350000000164,
            "durationTicks": 96,
            "midi": 28,
            "name": "E1",
            "ticks": 69024,
            "time": 98.0453565,
            "velocity": 0.29133858267716534
          },
          {
            "duration": 0.13636350000000164,
            "durationTicks": 96,
            "midi": 28,
            "name": "E1",
            "ticks": 69120,
            "time": 98.18172,
            "velocity": 0.29133858267716534
          },
          {
            "duration": 0.13636350000000164,
            "durationTicks": 96,
            "midi": 28,
            "name": "E1",
            "ticks": 69216,
            "time": 98.3180835,
            "velocity": 0.29133858267716534
          },
          {
            "duration": 0.13636350000000164,
            "durationTicks": 96,
            "midi": 28,
            "name": "E1",
            "ticks": 69312,
            "time": 98.454447,
            "velocity": 0.29133858267716534
          },
          {
            "duration": 0.13636350000000164,
            "durationTicks": 96,
            "midi": 28,
            "name": "E1",
            "ticks": 69408,
            "time": 98.5908105,
            "velocity": 0.29133858267716534
          },
          {
            "duration": 0.13636349999998743,
            "durationTicks": 96,
            "midi": 28,
            "name": "E1",
            "ticks": 69504,
            "time": 98.727174,
            "velocity": 0.29133858267716534
          },
          {
            "duration": 0.13636350000000164,
            "durationTicks": 96,
            "midi": 28,
            "name": "E1",
            "ticks": 69600,
            "time": 98.86353749999999,
            "velocity": 0.29133858267716534
          },
          {
            "duration": 0.13636350000000164,
            "durationTicks": 96,
            "midi": 28,
            "name": "E1",
            "ticks": 69696,
            "time": 98.999901,
            "velocity": 0.29133858267716534
          },
          {
            "duration": 0.13636350000000164,
            "durationTicks": 96,
            "midi": 28,
            "name": "E1",
            "ticks": 69792,
            "time": 99.1362645,
            "velocity": 0.29133858267716534
          },
          {
            "duration": 0.13636350000000164,
            "durationTicks": 96,
            "midi": 28,
            "name": "E1",
            "ticks": 69888,
            "time": 99.272628,
            "velocity": 0.29133858267716534
          },
          {
            "duration": 0.13636350000000164,
            "durationTicks": 96,
            "midi": 28,
            "name": "E1",
            "ticks": 69984,
            "time": 99.4089915,
            "velocity": 0.29133858267716534
          },
          {
            "duration": 0.13636350000000164,
            "durationTicks": 96,
            "midi": 28,
            "name": "E1",
            "ticks": 70080,
            "time": 99.545355,
            "velocity": 0.29133858267716534
          },
          {
            "duration": 0.13636350000000164,
            "durationTicks": 96,
            "midi": 28,
            "name": "E1",
            "ticks": 70176,
            "time": 99.6817185,
            "velocity": 0.29133858267716534
          },
          {
            "duration": 0.13636350000000164,
            "durationTicks": 96,
            "midi": 28,
            "name": "E1",
            "ticks": 70272,
            "time": 99.818082,
            "velocity": 0.29133858267716534
          },
          {
            "duration": 0.13636349999998743,
            "durationTicks": 96,
            "midi": 28,
            "name": "E1",
            "ticks": 70368,
            "time": 99.9544455,
            "velocity": 0.29133858267716534
          },
          {
            "duration": 0.13636350000000164,
            "durationTicks": 96,
            "midi": 28,
            "name": "E1",
            "ticks": 70464,
            "time": 100.090809,
            "velocity": 0.29133858267716534
          },
          {
            "duration": 0.13636350000000164,
            "durationTicks": 96,
            "midi": 28,
            "name": "E1",
            "ticks": 70560,
            "time": 100.2271725,
            "velocity": 0.29133858267716534
          },
          {
            "duration": 0.13636350000000164,
            "durationTicks": 96,
            "midi": 28,
            "name": "E1",
            "ticks": 70656,
            "time": 100.363536,
            "velocity": 0.29133858267716534
          },
          {
            "duration": 0.13636350000000164,
            "durationTicks": 96,
            "midi": 28,
            "name": "E1",
            "ticks": 70752,
            "time": 100.4998995,
            "velocity": 0.29133858267716534
          },
          {
            "duration": 0.13636350000000164,
            "durationTicks": 96,
            "midi": 28,
            "name": "E1",
            "ticks": 70848,
            "time": 100.636263,
            "velocity": 0.29133858267716534
          },
          {
            "duration": 0.13636350000000164,
            "durationTicks": 96,
            "midi": 28,
            "name": "E1",
            "ticks": 70944,
            "time": 100.7726265,
            "velocity": 0.29133858267716534
          },
          {
            "duration": 0.13636350000000164,
            "durationTicks": 96,
            "midi": 28,
            "name": "E1",
            "ticks": 71040,
            "time": 100.90899,
            "velocity": 0.29133858267716534
          },
          {
            "duration": 0.13636349999998743,
            "durationTicks": 96,
            "midi": 28,
            "name": "E1",
            "ticks": 71136,
            "time": 101.0453535,
            "velocity": 0.29133858267716534
          },
          {
            "duration": 0.13636350000000164,
            "durationTicks": 96,
            "midi": 28,
            "name": "E1",
            "ticks": 71232,
            "time": 101.18171699999999,
            "velocity": 0.29133858267716534
          },
          {
            "duration": 0.13636350000000164,
            "durationTicks": 96,
            "midi": 28,
            "name": "E1",
            "ticks": 71328,
            "time": 101.3180805,
            "velocity": 0.29133858267716534
          },
          {
            "duration": 0.13636350000000164,
            "durationTicks": 96,
            "midi": 28,
            "name": "E1",
            "ticks": 71424,
            "time": 101.454444,
            "velocity": 0.29133858267716534
          },
          {
            "duration": 0.13636350000000164,
            "durationTicks": 96,
            "midi": 28,
            "name": "E1",
            "ticks": 71520,
            "time": 101.5908075,
            "velocity": 0.29133858267716534
          },
          {
            "duration": 0.13636350000000164,
            "durationTicks": 96,
            "midi": 28,
            "name": "E1",
            "ticks": 71616,
            "time": 101.727171,
            "velocity": 0.29133858267716534
          },
          {
            "duration": 0.13636350000000164,
            "durationTicks": 96,
            "midi": 28,
            "name": "E1",
            "ticks": 71712,
            "time": 101.8635345,
            "velocity": 0.29133858267716534
          },
          {
            "duration": 0.13636350000000164,
            "durationTicks": 96,
            "midi": 28,
            "name": "E1",
            "ticks": 71808,
            "time": 101.999898,
            "velocity": 0.29133858267716534
          },
          {
            "duration": 0.13636350000000164,
            "durationTicks": 96,
            "midi": 28,
            "name": "E1",
            "ticks": 71904,
            "time": 102.1362615,
            "velocity": 0.29133858267716534
          },
          {
            "duration": 0.13636349999998743,
            "durationTicks": 96,
            "midi": 28,
            "name": "E1",
            "ticks": 72000,
            "time": 102.272625,
            "velocity": 0.29133858267716534
          },
          {
            "duration": 0.13636350000000164,
            "durationTicks": 96,
            "midi": 28,
            "name": "E1",
            "ticks": 72096,
            "time": 102.40898849999999,
            "velocity": 0.29133858267716534
          },
          {
            "duration": 0.13636350000000164,
            "durationTicks": 96,
            "midi": 28,
            "name": "E1",
            "ticks": 72192,
            "time": 102.545352,
            "velocity": 0.29133858267716534
          },
          {
            "duration": 0.13636350000000164,
            "durationTicks": 96,
            "midi": 28,
            "name": "E1",
            "ticks": 72288,
            "time": 102.6817155,
            "velocity": 0.29133858267716534
          },
          {
            "duration": 0.13636350000000164,
            "durationTicks": 96,
            "midi": 28,
            "name": "E1",
            "ticks": 72384,
            "time": 102.818079,
            "velocity": 0.29133858267716534
          },
          {
            "duration": 0.13636350000000164,
            "durationTicks": 96,
            "midi": 28,
            "name": "E1",
            "ticks": 72480,
            "time": 102.9544425,
            "velocity": 0.29133858267716534
          },
          {
            "duration": 0.13636350000000164,
            "durationTicks": 96,
            "midi": 28,
            "name": "E1",
            "ticks": 72576,
            "time": 103.090806,
            "velocity": 0.29133858267716534
          },
          {
            "duration": 0.13636350000000164,
            "durationTicks": 96,
            "midi": 28,
            "name": "E1",
            "ticks": 72672,
            "time": 103.2271695,
            "velocity": 0.29133858267716534
          },
          {
            "duration": 0.13636350000000164,
            "durationTicks": 96,
            "midi": 28,
            "name": "E1",
            "ticks": 72768,
            "time": 103.363533,
            "velocity": 0.29133858267716534
          },
          {
            "duration": 0.13636349999998743,
            "durationTicks": 96,
            "midi": 28,
            "name": "E1",
            "ticks": 72864,
            "time": 103.4998965,
            "velocity": 0.29133858267716534
          },
          {
            "duration": 0.13636350000000164,
            "durationTicks": 96,
            "midi": 28,
            "name": "E1",
            "ticks": 72960,
            "time": 103.63626,
            "velocity": 0.29133858267716534
          },
          {
            "duration": 0.13636350000000164,
            "durationTicks": 96,
            "midi": 28,
            "name": "E1",
            "ticks": 73056,
            "time": 103.7726235,
            "velocity": 0.29133858267716534
          },
          {
            "duration": 0.13636350000000164,
            "durationTicks": 96,
            "midi": 28,
            "name": "E1",
            "ticks": 73152,
            "time": 103.908987,
            "velocity": 0.29133858267716534
          },
          {
            "duration": 0.13636350000000164,
            "durationTicks": 96,
            "midi": 28,
            "name": "E1",
            "ticks": 73248,
            "time": 104.0453505,
            "velocity": 0.29133858267716534
          },
          {
            "duration": 0.13636350000000164,
            "durationTicks": 96,
            "midi": 28,
            "name": "E1",
            "ticks": 73344,
            "time": 104.181714,
            "velocity": 0.29133858267716534
          },
          {
            "duration": 0.13636350000000164,
            "durationTicks": 96,
            "midi": 39,
            "name": "D#2",
            "ticks": 73344,
            "time": 104.181714,
            "velocity": 0.29133858267716534
          },
          {
            "duration": 0.13636350000000164,
            "durationTicks": 96,
            "midi": 38,
            "name": "D2",
            "ticks": 73344,
            "time": 104.181714,
            "velocity": 0.29133858267716534
          },
          {
            "duration": 0.13636350000000164,
            "durationTicks": 96,
            "midi": 38,
            "name": "D2",
            "ticks": 73536,
            "time": 104.454441,
            "velocity": 0.29133858267716534
          },
          {
            "duration": 0.13636350000000164,
            "durationTicks": 96,
            "midi": 39,
            "name": "D#2",
            "ticks": 73536,
            "time": 104.454441,
            "velocity": 0.29133858267716534
          },
          {
            "duration": 0.13636350000000164,
            "durationTicks": 96,
            "midi": 28,
            "name": "E1",
            "ticks": 73536,
            "time": 104.454441,
            "velocity": 0.29133858267716534
          },
          {
            "duration": 0.13636349999998743,
            "durationTicks": 96,
            "midi": 35,
            "name": "B1",
            "ticks": 73728,
            "time": 104.727168,
            "velocity": 0.29133858267716534
          },
          {
            "duration": 0.13636350000000164,
            "durationTicks": 96,
            "midi": 40,
            "name": "E2",
            "ticks": 74112,
            "time": 105.272622,
            "velocity": 0.29133858267716534
          },
          {
            "duration": 0.13636350000000164,
            "durationTicks": 96,
            "midi": 38,
            "name": "D2",
            "ticks": 74112,
            "time": 105.272622,
            "velocity": 0.29133858267716534
          },
          {
            "duration": 0.13636349999998743,
            "durationTicks": 96,
            "midi": 35,
            "name": "B1",
            "ticks": 74496,
            "time": 105.818076,
            "velocity": 0.29133858267716534
          },
          {
            "duration": 0.13636350000000164,
            "durationTicks": 96,
            "midi": 38,
            "name": "D2",
            "ticks": 74880,
            "time": 106.36353,
            "velocity": 0.29133858267716534
          },
          {
            "duration": 0.13636350000000164,
            "durationTicks": 96,
            "midi": 40,
            "name": "E2",
            "ticks": 74880,
            "time": 106.36353,
            "velocity": 0.29133858267716534
          },
          {
            "duration": 0.13636350000000164,
            "durationTicks": 96,
            "midi": 35,
            "name": "B1",
            "ticks": 75264,
            "time": 106.908984,
            "velocity": 0.29133858267716534
          },
          {
            "duration": 0.13636350000000164,
            "durationTicks": 96,
            "midi": 40,
            "name": "E2",
            "ticks": 75648,
            "time": 107.454438,
            "velocity": 0.29133858267716534
          },
          {
            "duration": 0.13636350000000164,
            "durationTicks": 96,
            "midi": 38,
            "name": "D2",
            "ticks": 75648,
            "time": 107.454438,
            "velocity": 0.29133858267716534
          },
          {
            "duration": 0.13636350000000164,
            "durationTicks": 96,
            "midi": 35,
            "name": "B1",
            "ticks": 76032,
            "time": 107.999892,
            "velocity": 0.29133858267716534
          },
          {
            "duration": 0.13636350000000164,
            "durationTicks": 96,
            "midi": 40,
            "name": "E2",
            "ticks": 76416,
            "time": 108.545346,
            "velocity": 0.29133858267716534
          },
          {
            "duration": 0.13636350000000164,
            "durationTicks": 96,
            "midi": 38,
            "name": "D2",
            "ticks": 76416,
            "time": 108.545346,
            "velocity": 0.29133858267716534
          },
          {
            "duration": 0.13636350000000164,
            "durationTicks": 96,
            "midi": 35,
            "name": "B1",
            "ticks": 76800,
            "time": 109.0908,
            "velocity": 0.29133858267716534
          },
          {
            "duration": 0.13636350000000164,
            "durationTicks": 96,
            "midi": 40,
            "name": "E2",
            "ticks": 77184,
            "time": 109.636254,
            "velocity": 0.29133858267716534
          },
          {
            "duration": 0.13636350000000164,
            "durationTicks": 96,
            "midi": 38,
            "name": "D2",
            "ticks": 77184,
            "time": 109.636254,
            "velocity": 0.29133858267716534
          },
          {
            "duration": 0.13636350000000164,
            "durationTicks": 96,
            "midi": 35,
            "name": "B1",
            "ticks": 77568,
            "time": 110.181708,
            "velocity": 0.29133858267716534
          },
          {
            "duration": 0.13636350000000164,
            "durationTicks": 96,
            "midi": 40,
            "name": "E2",
            "ticks": 77952,
            "time": 110.72716199999999,
            "velocity": 0.29133858267716534
          },
          {
            "duration": 0.13636350000000164,
            "durationTicks": 96,
            "midi": 38,
            "name": "D2",
            "ticks": 77952,
            "time": 110.72716199999999,
            "velocity": 0.29133858267716534
          },
          {
            "duration": 0.13636350000000164,
            "durationTicks": 96,
            "midi": 35,
            "name": "B1",
            "ticks": 78336,
            "time": 111.272616,
            "velocity": 0.29133858267716534
          },
          {
            "duration": 0.13636349999998743,
            "durationTicks": 96,
            "midi": 38,
            "name": "D2",
            "ticks": 78720,
            "time": 111.81807,
            "velocity": 0.29133858267716534
          },
          {
            "duration": 0.13636349999998743,
            "durationTicks": 96,
            "midi": 40,
            "name": "E2",
            "ticks": 78720,
            "time": 111.81807,
            "velocity": 0.29133858267716534
          },
          {
            "duration": 0.13636350000000164,
            "durationTicks": 96,
            "midi": 35,
            "name": "B1",
            "ticks": 79104,
            "time": 112.363524,
            "velocity": 0.29133858267716534
          },
          {
            "duration": 0.13636349999998743,
            "durationTicks": 96,
            "midi": 40,
            "name": "E2",
            "ticks": 79488,
            "time": 112.908978,
            "velocity": 0.29133858267716534
          },
          {
            "duration": 0.13636349999998743,
            "durationTicks": 96,
            "midi": 38,
            "name": "D2",
            "ticks": 79488,
            "time": 112.908978,
            "velocity": 0.29133858267716534
          },
          {
            "duration": 0.13636350000000164,
            "durationTicks": 96,
            "midi": 35,
            "name": "B1",
            "ticks": 79872,
            "time": 113.454432,
            "velocity": 0.29133858267716534
          },
          {
            "duration": 0.13636350000000164,
            "durationTicks": 96,
            "midi": 40,
            "name": "E2",
            "ticks": 80256,
            "time": 113.999886,
            "velocity": 0.29133858267716534
          },
          {
            "duration": 0.13636350000000164,
            "durationTicks": 96,
            "midi": 38,
            "name": "D2",
            "ticks": 80256,
            "time": 113.999886,
            "velocity": 0.29133858267716534
          },
          {
            "duration": 0.13636350000000164,
            "durationTicks": 96,
            "midi": 35,
            "name": "B1",
            "ticks": 80640,
            "time": 114.54534,
            "velocity": 0.29133858267716534
          },
          {
            "duration": 0.13636350000000164,
            "durationTicks": 96,
            "midi": 40,
            "name": "E2",
            "ticks": 81024,
            "time": 115.090794,
            "velocity": 0.29133858267716534
          },
          {
            "duration": 0.13636350000000164,
            "durationTicks": 96,
            "midi": 38,
            "name": "D2",
            "ticks": 81024,
            "time": 115.090794,
            "velocity": 0.29133858267716534
          },
          {
            "duration": 0.13636350000000164,
            "durationTicks": 96,
            "midi": 35,
            "name": "B1",
            "ticks": 81408,
            "time": 115.636248,
            "velocity": 0.29133858267716534
          },
          {
            "duration": 0.13636350000000164,
            "durationTicks": 96,
            "midi": 40,
            "name": "E2",
            "ticks": 81792,
            "time": 116.181702,
            "velocity": 0.29133858267716534
          },
          {
            "duration": 0.13636350000000164,
            "durationTicks": 96,
            "midi": 38,
            "name": "D2",
            "ticks": 81792,
            "time": 116.181702,
            "velocity": 0.29133858267716534
          },
          {
            "duration": 0.13636350000000164,
            "durationTicks": 96,
            "midi": 35,
            "name": "B1",
            "ticks": 82176,
            "time": 116.727156,
            "velocity": 0.29133858267716534
          },
          {
            "duration": 0.13636350000000164,
            "durationTicks": 96,
            "midi": 38,
            "name": "D2",
            "ticks": 82560,
            "time": 117.27261,
            "velocity": 0.29133858267716534
          },
          {
            "duration": 0.13636350000000164,
            "durationTicks": 96,
            "midi": 40,
            "name": "E2",
            "ticks": 82560,
            "time": 117.27261,
            "velocity": 0.29133858267716534
          },
          {
            "duration": 0.13636350000000164,
            "durationTicks": 96,
            "midi": 35,
            "name": "B1",
            "ticks": 82944,
            "time": 117.81806399999999,
            "velocity": 0.29133858267716534
          },
          {
            "duration": 0.13636350000000164,
            "durationTicks": 96,
            "midi": 38,
            "name": "D2",
            "ticks": 83328,
            "time": 118.363518,
            "velocity": 0.29133858267716534
          },
          {
            "duration": 0.13636350000000164,
            "durationTicks": 96,
            "midi": 40,
            "name": "E2",
            "ticks": 83328,
            "time": 118.363518,
            "velocity": 0.29133858267716534
          },
          {
            "duration": 0.13636349999998743,
            "durationTicks": 96,
            "midi": 35,
            "name": "B1",
            "ticks": 83712,
            "time": 118.908972,
            "velocity": 0.29133858267716534
          },
          {
            "duration": 0.13636350000000164,
            "durationTicks": 96,
            "midi": 40,
            "name": "E2",
            "ticks": 84096,
            "time": 119.454426,
            "velocity": 0.29133858267716534
          },
          {
            "duration": 0.13636350000000164,
            "durationTicks": 96,
            "midi": 38,
            "name": "D2",
            "ticks": 84096,
            "time": 119.454426,
            "velocity": 0.29133858267716534
          },
          {
            "duration": 0.13636349999998743,
            "durationTicks": 96,
            "midi": 35,
            "name": "B1",
            "ticks": 84480,
            "time": 119.99988,
            "velocity": 0.29133858267716534
          },
          {
            "duration": 0.13636350000000164,
            "durationTicks": 96,
            "midi": 38,
            "name": "D2",
            "ticks": 84864,
            "time": 120.545334,
            "velocity": 0.29133858267716534
          },
          {
            "duration": 0.13636350000000164,
            "durationTicks": 96,
            "midi": 40,
            "name": "E2",
            "ticks": 84864,
            "time": 120.545334,
            "velocity": 0.29133858267716534
          },
          {
            "duration": 0.13636350000000164,
            "durationTicks": 96,
            "midi": 35,
            "name": "B1",
            "ticks": 85248,
            "time": 121.090788,
            "velocity": 0.29133858267716534
          },
          {
            "duration": 0.13636350000000164,
            "durationTicks": 96,
            "midi": 38,
            "name": "D2",
            "ticks": 85632,
            "time": 121.636242,
            "velocity": 0.29133858267716534
          },
          {
            "duration": 0.13636350000000164,
            "durationTicks": 96,
            "midi": 40,
            "name": "E2",
            "ticks": 85632,
            "time": 121.636242,
            "velocity": 0.29133858267716534
          }
        ],
        "endOfTrackTicks": 85728
      },
      {
        "channel": 11,
        "controlChanges": {},
        "pitchBends": [],
        "instrument": {
          "family": "world",
          "number": 107,
          "name": "koto"
        },
        "name": "Koto",
        "notes": [
          {
            "duration": 0.13636349999998743,
            "durationTicks": 96,
            "midi": 75,
            "name": "D#5",
            "ticks": 73728,
            "time": 104.727168,
            "velocity": 0.3937007874015748
          },
          {
            "duration": 0.13636350000000164,
            "durationTicks": 96,
            "midi": 77,
            "name": "F5",
            "ticks": 74880,
            "time": 106.36353,
            "velocity": 0.3937007874015748
          },
          {
            "duration": 0.13636350000000164,
            "durationTicks": 96,
            "midi": 75,
            "name": "D#5",
            "ticks": 75264,
            "time": 106.908984,
            "velocity": 0.3937007874015748
          },
          {
            "duration": 0.13636350000000164,
            "durationTicks": 96,
            "midi": 77,
            "name": "F5",
            "ticks": 76416,
            "time": 108.545346,
            "velocity": 0.3937007874015748
          },
          {
            "duration": 0.13636350000000164,
            "durationTicks": 96,
            "midi": 75,
            "name": "D#5",
            "ticks": 76800,
            "time": 109.0908,
            "velocity": 0.3937007874015748
          },
          {
            "duration": 0.13636350000000164,
            "durationTicks": 96,
            "midi": 77,
            "name": "F5",
            "ticks": 77952,
            "time": 110.72716199999999,
            "velocity": 0.3937007874015748
          },
          {
            "duration": 0.13636350000000164,
            "durationTicks": 96,
            "midi": 80,
            "name": "G#5",
            "ticks": 78336,
            "time": 111.272616,
            "velocity": 0.3937007874015748
          },
          {
            "duration": 0.13636349999998743,
            "durationTicks": 96,
            "midi": 80,
            "name": "G#5",
            "ticks": 79488,
            "time": 112.908978,
            "velocity": 0.3937007874015748
          },
          {
            "duration": 0.13636350000000164,
            "durationTicks": 96,
            "midi": 75,
            "name": "D#5",
            "ticks": 79872,
            "time": 113.454432,
            "velocity": 0.3937007874015748
          },
          {
            "duration": 0.13636350000000164,
            "durationTicks": 96,
            "midi": 77,
            "name": "F5",
            "ticks": 81024,
            "time": 115.090794,
            "velocity": 0.3937007874015748
          },
          {
            "duration": 0.13636350000000164,
            "durationTicks": 96,
            "midi": 75,
            "name": "D#5",
            "ticks": 81408,
            "time": 115.636248,
            "velocity": 0.3937007874015748
          },
          {
            "duration": 0.13636350000000164,
            "durationTicks": 96,
            "midi": 77,
            "name": "F5",
            "ticks": 82560,
            "time": 117.27261,
            "velocity": 0.3937007874015748
          },
          {
            "duration": 0.13636350000000164,
            "durationTicks": 96,
            "midi": 75,
            "name": "D#5",
            "ticks": 82944,
            "time": 117.81806399999999,
            "velocity": 0.3937007874015748
          },
          {
            "duration": 0.13636350000000164,
            "durationTicks": 96,
            "midi": 77,
            "name": "F5",
            "ticks": 84096,
            "time": 119.454426,
            "velocity": 0.3937007874015748
          },
          {
            "duration": 0.13636349999998743,
            "durationTicks": 96,
            "midi": 80,
            "name": "G#5",
            "ticks": 84480,
            "time": 119.99988,
            "velocity": 0.3937007874015748
          },
          {
            "duration": 0.13636350000000164,
            "durationTicks": 96,
            "midi": 80,
            "name": "G#5",
            "ticks": 85632,
            "time": 121.636242,
            "velocity": 0.3937007874015748
          }
        ],
        "endOfTrackTicks": 85728
      },
      {
        "channel": 12,
        "controlChanges": {},
        "pitchBends": [],
        "instrument": {
          "family": "guitar",
          "number": 28,
          "name": "electric guitar (muted)"
        },
        "name": "Muted E-Guitar",
        "notes": [
          {
            "duration": 0.13636349999999453,
            "durationTicks": 96,
            "midi": 39,
            "name": "D#2",
            "ticks": 36864,
            "time": 52.363584,
            "velocity": 0.3937007874015748
          },
          {
            "duration": 0.13636350000000164,
            "durationTicks": 96,
            "midi": 36,
            "name": "C2",
            "ticks": 37440,
            "time": 53.181765,
            "velocity": 0.3937007874015748
          },
          {
            "duration": 0.13636350000000164,
            "durationTicks": 96,
            "midi": 34,
            "name": "A#1",
            "ticks": 37824,
            "time": 53.727219,
            "velocity": 0.3937007874015748
          },
          {
            "duration": 0.13636350000000164,
            "durationTicks": 96,
            "midi": 36,
            "name": "C2",
            "ticks": 38016,
            "time": 53.999946,
            "velocity": 0.3937007874015748
          },
          {
            "duration": 0.13636350000000164,
            "durationTicks": 96,
            "midi": 39,
            "name": "D#2",
            "ticks": 38208,
            "time": 54.272673,
            "velocity": 0.3937007874015748
          },
          {
            "duration": 0.13636350000000164,
            "durationTicks": 96,
            "midi": 36,
            "name": "C2",
            "ticks": 38400,
            "time": 54.5454,
            "velocity": 0.3937007874015748
          },
          {
            "duration": 0.13636350000000164,
            "durationTicks": 96,
            "midi": 34,
            "name": "A#1",
            "ticks": 38592,
            "time": 54.818127,
            "velocity": 0.3937007874015748
          },
          {
            "duration": 0.13636350000000164,
            "durationTicks": 96,
            "midi": 36,
            "name": "C2",
            "ticks": 38784,
            "time": 55.090854,
            "velocity": 0.3937007874015748
          },
          {
            "duration": 0.13636350000000164,
            "durationTicks": 96,
            "midi": 34,
            "name": "A#1",
            "ticks": 38976,
            "time": 55.363580999999996,
            "velocity": 0.3937007874015748
          },
          {
            "duration": 0.13636350000000164,
            "durationTicks": 96,
            "midi": 36,
            "name": "C2",
            "ticks": 39168,
            "time": 55.636308,
            "velocity": 0.3937007874015748
          },
          {
            "duration": 0.13636349999999453,
            "durationTicks": 96,
            "midi": 39,
            "name": "D#2",
            "ticks": 39360,
            "time": 55.909035,
            "velocity": 0.3937007874015748
          },
          {
            "duration": 0.13636350000000164,
            "durationTicks": 96,
            "midi": 36,
            "name": "C2",
            "ticks": 39552,
            "time": 56.181762,
            "velocity": 0.3937007874015748
          },
          {
            "duration": 0.13636349999999453,
            "durationTicks": 96,
            "midi": 34,
            "name": "A#1",
            "ticks": 39744,
            "time": 56.454489,
            "velocity": 0.3937007874015748
          },
          {
            "duration": 0.13636350000000164,
            "durationTicks": 96,
            "midi": 39,
            "name": "D#2",
            "ticks": 39936,
            "time": 56.727216,
            "velocity": 0.3937007874015748
          },
          {
            "duration": 0.13636350000000164,
            "durationTicks": 96,
            "midi": 36,
            "name": "C2",
            "ticks": 40512,
            "time": 57.545397,
            "velocity": 0.3937007874015748
          },
          {
            "duration": 0.13636350000000164,
            "durationTicks": 96,
            "midi": 34,
            "name": "A#1",
            "ticks": 40896,
            "time": 58.090851,
            "velocity": 0.3937007874015748
          },
          {
            "duration": 0.13636350000000164,
            "durationTicks": 96,
            "midi": 36,
            "name": "C2",
            "ticks": 41088,
            "time": 58.363578,
            "velocity": 0.3937007874015748
          },
          {
            "duration": 0.13636350000000164,
            "durationTicks": 96,
            "midi": 39,
            "name": "D#2",
            "ticks": 41280,
            "time": 58.636305,
            "velocity": 0.3937007874015748
          },
          {
            "duration": 0.13636350000000164,
            "durationTicks": 96,
            "midi": 36,
            "name": "C2",
            "ticks": 41472,
            "time": 58.909031999999996,
            "velocity": 0.3937007874015748
          },
          {
            "duration": 0.13636350000000164,
            "durationTicks": 96,
            "midi": 34,
            "name": "A#1",
            "ticks": 41664,
            "time": 59.181759,
            "velocity": 0.3937007874015748
          },
          {
            "duration": 0.13636349999999453,
            "durationTicks": 96,
            "midi": 36,
            "name": "C2",
            "ticks": 41856,
            "time": 59.454486,
            "velocity": 0.3937007874015748
          },
          {
            "duration": 0.13636350000000164,
            "durationTicks": 96,
            "midi": 34,
            "name": "A#1",
            "ticks": 42048,
            "time": 59.727213,
            "velocity": 0.3937007874015748
          },
          {
            "duration": 0.13636349999999453,
            "durationTicks": 96,
            "midi": 41,
            "name": "F2",
            "ticks": 42240,
            "time": 59.99994,
            "velocity": 0.3937007874015748
          },
          {
            "duration": 0.13636350000000164,
            "durationTicks": 96,
            "midi": 39,
            "name": "D#2",
            "ticks": 42432,
            "time": 60.272667,
            "velocity": 0.3937007874015748
          },
          {
            "duration": 0.13636349999999453,
            "durationTicks": 96,
            "midi": 36,
            "name": "C2",
            "ticks": 42624,
            "time": 60.545394,
            "velocity": 0.3937007874015748
          },
          {
            "duration": 0.13636350000000164,
            "durationTicks": 96,
            "midi": 34,
            "name": "A#1",
            "ticks": 42816,
            "time": 60.818121,
            "velocity": 0.3937007874015748
          },
          {
            "duration": 0.13636350000000164,
            "durationTicks": 96,
            "midi": 39,
            "name": "D#2",
            "ticks": 43008,
            "time": 61.090848,
            "velocity": 0.3937007874015748
          },
          {
            "duration": 0.13636350000000164,
            "durationTicks": 96,
            "midi": 36,
            "name": "C2",
            "ticks": 43584,
            "time": 61.909029,
            "velocity": 0.3937007874015748
          },
          {
            "duration": 0.13636350000000164,
            "durationTicks": 96,
            "midi": 34,
            "name": "A#1",
            "ticks": 43968,
            "time": 62.454482999999996,
            "velocity": 0.3937007874015748
          },
          {
            "duration": 0.13636350000000164,
            "durationTicks": 96,
            "midi": 36,
            "name": "C2",
            "ticks": 44160,
            "time": 62.72721,
            "velocity": 0.3937007874015748
          },
          {
            "duration": 0.13636349999999453,
            "durationTicks": 96,
            "midi": 39,
            "name": "D#2",
            "ticks": 44352,
            "time": 62.999937,
            "velocity": 0.3937007874015748
          },
          {
            "duration": 0.13636350000000164,
            "durationTicks": 96,
            "midi": 36,
            "name": "C2",
            "ticks": 44544,
            "time": 63.272664,
            "velocity": 0.3937007874015748
          },
          {
            "duration": 0.13636349999999453,
            "durationTicks": 96,
            "midi": 34,
            "name": "A#1",
            "ticks": 44736,
            "time": 63.545391,
            "velocity": 0.3937007874015748
          },
          {
            "duration": 0.13636350000000164,
            "durationTicks": 96,
            "midi": 36,
            "name": "C2",
            "ticks": 44928,
            "time": 63.818118,
            "velocity": 0.3937007874015748
          },
          {
            "duration": 0.13636350000000164,
            "durationTicks": 96,
            "midi": 34,
            "name": "A#1",
            "ticks": 45120,
            "time": 64.090845,
            "velocity": 0.3937007874015748
          },
          {
            "duration": 0.13636349999998743,
            "durationTicks": 96,
            "midi": 36,
            "name": "C2",
            "ticks": 45312,
            "time": 64.363572,
            "velocity": 0.3937007874015748
          },
          {
            "duration": 0.13636350000000164,
            "durationTicks": 96,
            "midi": 39,
            "name": "D#2",
            "ticks": 45504,
            "time": 64.636299,
            "velocity": 0.3937007874015748
          },
          {
            "duration": 0.13636350000000164,
            "durationTicks": 96,
            "midi": 36,
            "name": "C2",
            "ticks": 45696,
            "time": 64.909026,
            "velocity": 0.3937007874015748
          },
          {
            "duration": 0.13636350000000164,
            "durationTicks": 96,
            "midi": 34,
            "name": "A#1",
            "ticks": 45888,
            "time": 65.181753,
            "velocity": 0.3937007874015748
          },
          {
            "duration": 0.13636350000000164,
            "durationTicks": 96,
            "midi": 39,
            "name": "D#2",
            "ticks": 46080,
            "time": 65.45448,
            "velocity": 0.3937007874015748
          },
          {
            "duration": 0.13636350000000164,
            "durationTicks": 96,
            "midi": 36,
            "name": "C2",
            "ticks": 46656,
            "time": 66.272661,
            "velocity": 0.3937007874015748
          },
          {
            "duration": 0.13636349999998743,
            "durationTicks": 96,
            "midi": 34,
            "name": "A#1",
            "ticks": 47040,
            "time": 66.818115,
            "velocity": 0.3937007874015748
          },
          {
            "duration": 0.13636350000000164,
            "durationTicks": 96,
            "midi": 36,
            "name": "C2",
            "ticks": 47232,
            "time": 67.090842,
            "velocity": 0.3937007874015748
          },
          {
            "duration": 0.13636350000000164,
            "durationTicks": 96,
            "midi": 39,
            "name": "D#2",
            "ticks": 47424,
            "time": 67.363569,
            "velocity": 0.3937007874015748
          },
          {
            "duration": 0.13636350000000164,
            "durationTicks": 96,
            "midi": 36,
            "name": "C2",
            "ticks": 47616,
            "time": 67.636296,
            "velocity": 0.3937007874015748
          },
          {
            "duration": 0.13636349999998743,
            "durationTicks": 96,
            "midi": 34,
            "name": "A#1",
            "ticks": 47808,
            "time": 67.909023,
            "velocity": 0.3937007874015748
          },
          {
            "duration": 0.13636350000000164,
            "durationTicks": 96,
            "midi": 36,
            "name": "C2",
            "ticks": 48000,
            "time": 68.18175,
            "velocity": 0.3937007874015748
          },
          {
            "duration": 0.13636350000000164,
            "durationTicks": 96,
            "midi": 34,
            "name": "A#1",
            "ticks": 48192,
            "time": 68.454477,
            "velocity": 0.3937007874015748
          },
          {
            "duration": 0.13636350000000164,
            "durationTicks": 96,
            "midi": 41,
            "name": "F2",
            "ticks": 48384,
            "time": 68.727204,
            "velocity": 0.3937007874015748
          },
          {
            "duration": 0.13636350000000164,
            "durationTicks": 96,
            "midi": 39,
            "name": "D#2",
            "ticks": 48576,
            "time": 68.999931,
            "velocity": 0.3937007874015748
          },
          {
            "duration": 0.13636350000000164,
            "durationTicks": 96,
            "midi": 36,
            "name": "C2",
            "ticks": 48768,
            "time": 69.27265799999999,
            "velocity": 0.3937007874015748
          },
          {
            "duration": 0.13636350000000164,
            "durationTicks": 96,
            "midi": 34,
            "name": "A#1",
            "ticks": 48960,
            "time": 69.545385,
            "velocity": 0.3937007874015748
          }
        ],
        "endOfTrackTicks": 49056
      },
      {
        "channel": 9,
        "controlChanges": {},
        "pitchBends": [],
        "instrument": {
          "family": "drums",
          "number": 255
        },
        "name": "2013 Drum Kit",
        "notes": [
          {
            "duration": 0.1363635,
            "durationTicks": 96,
            "midi": 35,
            "name": "B1",
            "ticks": 0,
            "time": 0,
            "velocity": 0.28346456692913385
          },
          {
            "duration": 0.13636349999999997,
            "durationTicks": 96,
            "midi": 38,
            "name": "D2",
            "ticks": 384,
            "time": 0.545454,
            "velocity": 0.28346456692913385
          },
          {
            "duration": 0.13636350000000008,
            "durationTicks": 96,
            "midi": 35,
            "name": "B1",
            "ticks": 768,
            "time": 1.090908,
            "velocity": 0.28346456692913385
          },
          {
            "duration": 0.13636349999999986,
            "durationTicks": 96,
            "midi": 38,
            "name": "D2",
            "ticks": 1152,
            "time": 1.636362,
            "velocity": 0.28346456692913385
          },
          {
            "duration": 0.13636349999999986,
            "durationTicks": 96,
            "midi": 35,
            "name": "B1",
            "ticks": 1536,
            "time": 2.181816,
            "velocity": 0.28346456692913385
          },
          {
            "duration": 0.1363635000000003,
            "durationTicks": 96,
            "midi": 38,
            "name": "D2",
            "ticks": 1920,
            "time": 2.72727,
            "velocity": 0.28346456692913385
          },
          {
            "duration": 0.13636349999999986,
            "durationTicks": 96,
            "midi": 35,
            "name": "B1",
            "ticks": 2304,
            "time": 3.272724,
            "velocity": 0.28346456692913385
          },
          {
            "duration": 0.13636349999999986,
            "durationTicks": 96,
            "midi": 38,
            "name": "D2",
            "ticks": 2688,
            "time": 3.818178,
            "velocity": 0.28346456692913385
          },
          {
            "duration": 0.13636349999999986,
            "durationTicks": 96,
            "midi": 35,
            "name": "B1",
            "ticks": 3072,
            "time": 4.363632,
            "velocity": 0.28346456692913385
          },
          {
            "duration": 0.13636349999999986,
            "durationTicks": 96,
            "midi": 38,
            "name": "D2",
            "ticks": 3456,
            "time": 4.909086,
            "velocity": 0.28346456692913385
          },
          {
            "duration": 0.13636349999999986,
            "durationTicks": 96,
            "midi": 35,
            "name": "B1",
            "ticks": 3840,
            "time": 5.45454,
            "velocity": 0.28346456692913385
          },
          {
            "duration": 0.13636349999999986,
            "durationTicks": 96,
            "midi": 38,
            "name": "D2",
            "ticks": 4224,
            "time": 5.999994,
            "velocity": 0.28346456692913385
          },
          {
            "duration": 0.13636349999999986,
            "durationTicks": 96,
            "midi": 35,
            "name": "B1",
            "ticks": 4608,
            "time": 6.545448,
            "velocity": 0.28346456692913385
          },
          {
            "duration": 0.13636349999999986,
            "durationTicks": 96,
            "midi": 38,
            "name": "D2",
            "ticks": 4992,
            "time": 7.090902,
            "velocity": 0.28346456692913385
          },
          {
            "duration": 0.13636349999999986,
            "durationTicks": 96,
            "midi": 35,
            "name": "B1",
            "ticks": 5376,
            "time": 7.636356,
            "velocity": 0.28346456692913385
          },
          {
            "duration": 0.13636349999999986,
            "durationTicks": 96,
            "midi": 38,
            "name": "D2",
            "ticks": 5760,
            "time": 8.18181,
            "velocity": 0.28346456692913385
          },
          {
            "duration": 0.13636349999999986,
            "durationTicks": 96,
            "midi": 35,
            "name": "B1",
            "ticks": 6144,
            "time": 8.727264,
            "velocity": 0.28346456692913385
          },
          {
            "duration": 0.13636349999999986,
            "durationTicks": 96,
            "midi": 38,
            "name": "D2",
            "ticks": 6528,
            "time": 9.272718,
            "velocity": 0.28346456692913385
          },
          {
            "duration": 0.13636349999999986,
            "durationTicks": 96,
            "midi": 35,
            "name": "B1",
            "ticks": 6912,
            "time": 9.818172,
            "velocity": 0.28346456692913385
          },
          {
            "duration": 0.13636349999999986,
            "durationTicks": 96,
            "midi": 38,
            "name": "D2",
            "ticks": 7296,
            "time": 10.363626,
            "velocity": 0.28346456692913385
          },
          {
            "duration": 0.13636349999999986,
            "durationTicks": 96,
            "midi": 35,
            "name": "B1",
            "ticks": 7680,
            "time": 10.90908,
            "velocity": 0.28346456692913385
          },
          {
            "duration": 0.13636349999999986,
            "durationTicks": 96,
            "midi": 38,
            "name": "D2",
            "ticks": 8064,
            "time": 11.454534,
            "velocity": 0.28346456692913385
          },
          {
            "duration": 0.13636349999999986,
            "durationTicks": 96,
            "midi": 35,
            "name": "B1",
            "ticks": 8448,
            "time": 11.999988,
            "velocity": 0.28346456692913385
          },
          {
            "duration": 0.13636349999999986,
            "durationTicks": 96,
            "midi": 38,
            "name": "D2",
            "ticks": 8832,
            "time": 12.545442,
            "velocity": 0.28346456692913385
          },
          {
            "duration": 0.13636349999999986,
            "durationTicks": 96,
            "midi": 35,
            "name": "B1",
            "ticks": 9216,
            "time": 13.090896,
            "velocity": 0.28346456692913385
          },
          {
            "duration": 0.13636349999999986,
            "durationTicks": 96,
            "midi": 38,
            "name": "D2",
            "ticks": 9600,
            "time": 13.63635,
            "velocity": 0.28346456692913385
          },
          {
            "duration": 0.13636349999999986,
            "durationTicks": 96,
            "midi": 35,
            "name": "B1",
            "ticks": 9984,
            "time": 14.181804,
            "velocity": 0.28346456692913385
          },
          {
            "duration": 0.13636350000000164,
            "durationTicks": 96,
            "midi": 38,
            "name": "D2",
            "ticks": 10368,
            "time": 14.727257999999999,
            "velocity": 0.28346456692913385
          },
          {
            "duration": 0.13636349999999986,
            "durationTicks": 96,
            "midi": 35,
            "name": "B1",
            "ticks": 10752,
            "time": 15.272712,
            "velocity": 0.28346456692913385
          },
          {
            "duration": 0.13636349999999986,
            "durationTicks": 96,
            "midi": 38,
            "name": "D2",
            "ticks": 11136,
            "time": 15.818166,
            "velocity": 0.28346456692913385
          },
          {
            "duration": 0.13636349999999808,
            "durationTicks": 96,
            "midi": 35,
            "name": "B1",
            "ticks": 11520,
            "time": 16.36362,
            "velocity": 0.28346456692913385
          },
          {
            "duration": 0.13636349999999808,
            "durationTicks": 96,
            "midi": 38,
            "name": "D2",
            "ticks": 11904,
            "time": 16.909074,
            "velocity": 0.28346456692913385
          },
          {
            "duration": 0.13636350000000164,
            "durationTicks": 96,
            "midi": 35,
            "name": "B1",
            "ticks": 12288,
            "time": 17.454528,
            "velocity": 0.28346456692913385
          },
          {
            "duration": 0.13636350000000164,
            "durationTicks": 96,
            "midi": 38,
            "name": "D2",
            "ticks": 12672,
            "time": 17.999982,
            "velocity": 0.28346456692913385
          },
          {
            "duration": 0.13636350000000164,
            "durationTicks": 96,
            "midi": 35,
            "name": "B1",
            "ticks": 13056,
            "time": 18.545436,
            "velocity": 0.28346456692913385
          },
          {
            "duration": 0.13636350000000164,
            "durationTicks": 96,
            "midi": 38,
            "name": "D2",
            "ticks": 13440,
            "time": 19.090889999999998,
            "velocity": 0.28346456692913385
          },
          {
            "duration": 0.13636349999999808,
            "durationTicks": 96,
            "midi": 35,
            "name": "B1",
            "ticks": 13824,
            "time": 19.636344,
            "velocity": 0.28346456692913385
          },
          {
            "duration": 0.13636349999999808,
            "durationTicks": 96,
            "midi": 38,
            "name": "D2",
            "ticks": 14208,
            "time": 20.181798,
            "velocity": 0.28346456692913385
          },
          {
            "duration": 0.13636349999999808,
            "durationTicks": 96,
            "midi": 35,
            "name": "B1",
            "ticks": 14592,
            "time": 20.727252,
            "velocity": 0.28346456692913385
          },
          {
            "duration": 0.13636350000000164,
            "durationTicks": 96,
            "midi": 38,
            "name": "D2",
            "ticks": 14976,
            "time": 21.272706,
            "velocity": 0.28346456692913385
          },
          {
            "duration": 0.13636350000000164,
            "durationTicks": 96,
            "midi": 35,
            "name": "B1",
            "ticks": 15360,
            "time": 21.81816,
            "velocity": 0.28346456692913385
          },
          {
            "duration": 0.13636350000000164,
            "durationTicks": 96,
            "midi": 38,
            "name": "D2",
            "ticks": 15744,
            "time": 22.363614,
            "velocity": 0.28346456692913385
          },
          {
            "duration": 0.13636349999999808,
            "durationTicks": 96,
            "midi": 35,
            "name": "B1",
            "ticks": 16128,
            "time": 22.909068,
            "velocity": 0.28346456692913385
          },
          {
            "duration": 0.13636349999999808,
            "durationTicks": 96,
            "midi": 38,
            "name": "D2",
            "ticks": 16512,
            "time": 23.454522,
            "velocity": 0.28346456692913385
          },
          {
            "duration": 0.13636349999999808,
            "durationTicks": 96,
            "midi": 35,
            "name": "B1",
            "ticks": 16896,
            "time": 23.999976,
            "velocity": 0.28346456692913385
          },
          {
            "duration": 0.13636350000000164,
            "durationTicks": 96,
            "midi": 38,
            "name": "D2",
            "ticks": 17280,
            "time": 24.54543,
            "velocity": 0.28346456692913385
          },
          {
            "duration": 0.13636350000000164,
            "durationTicks": 96,
            "midi": 35,
            "name": "B1",
            "ticks": 17664,
            "time": 25.090884,
            "velocity": 0.28346456692913385
          },
          {
            "duration": 0.13636350000000164,
            "durationTicks": 96,
            "midi": 38,
            "name": "D2",
            "ticks": 18048,
            "time": 25.636338,
            "velocity": 0.28346456692913385
          },
          {
            "duration": 0.13636349999999808,
            "durationTicks": 96,
            "midi": 35,
            "name": "B1",
            "ticks": 18432,
            "time": 26.181792,
            "velocity": 0.28346456692913385
          },
          {
            "duration": 0.13636349999999808,
            "durationTicks": 96,
            "midi": 38,
            "name": "D2",
            "ticks": 18816,
            "time": 26.727246,
            "velocity": 0.28346456692913385
          },
          {
            "duration": 0.13636349999999808,
            "durationTicks": 96,
            "midi": 35,
            "name": "B1",
            "ticks": 19200,
            "time": 27.2727,
            "velocity": 0.28346456692913385
          },
          {
            "duration": 0.13636350000000164,
            "durationTicks": 96,
            "midi": 38,
            "name": "D2",
            "ticks": 19584,
            "time": 27.818154,
            "velocity": 0.28346456692913385
          },
          {
            "duration": 0.13636350000000164,
            "durationTicks": 96,
            "midi": 35,
            "name": "B1",
            "ticks": 19968,
            "time": 28.363608,
            "velocity": 0.28346456692913385
          },
          {
            "duration": 0.13636350000000164,
            "durationTicks": 96,
            "midi": 38,
            "name": "D2",
            "ticks": 20352,
            "time": 28.909062,
            "velocity": 0.28346456692913385
          },
          {
            "duration": 0.13636350000000164,
            "durationTicks": 96,
            "midi": 35,
            "name": "B1",
            "ticks": 20736,
            "time": 29.454515999999998,
            "velocity": 0.28346456692913385
          },
          {
            "duration": 0.13636349999999808,
            "durationTicks": 96,
            "midi": 38,
            "name": "D2",
            "ticks": 21120,
            "time": 29.99997,
            "velocity": 0.28346456692913385
          },
          {
            "duration": 0.13636349999999808,
            "durationTicks": 96,
            "midi": 35,
            "name": "B1",
            "ticks": 21504,
            "time": 30.545424,
            "velocity": 0.28346456692913385
          },
          {
            "duration": 0.13636349999999808,
            "durationTicks": 96,
            "midi": 38,
            "name": "D2",
            "ticks": 21888,
            "time": 31.090878,
            "velocity": 0.28346456692913385
          },
          {
            "duration": 0.13636350000000164,
            "durationTicks": 96,
            "midi": 35,
            "name": "B1",
            "ticks": 22272,
            "time": 31.636332,
            "velocity": 0.28346456692913385
          },
          {
            "duration": 0.13636349999999453,
            "durationTicks": 96,
            "midi": 38,
            "name": "D2",
            "ticks": 22656,
            "time": 32.181786,
            "velocity": 0.28346456692913385
          },
          {
            "duration": 0.13636349999999453,
            "durationTicks": 96,
            "midi": 35,
            "name": "B1",
            "ticks": 23040,
            "time": 32.72724,
            "velocity": 0.28346456692913385
          },
          {
            "duration": 0.13636350000000164,
            "durationTicks": 96,
            "midi": 38,
            "name": "D2",
            "ticks": 23424,
            "time": 33.272694,
            "velocity": 0.28346456692913385
          },
          {
            "duration": 0.13636350000000164,
            "durationTicks": 96,
            "midi": 35,
            "name": "B1",
            "ticks": 23808,
            "time": 33.818148,
            "velocity": 0.28346456692913385
          },
          {
            "duration": 0.13636350000000164,
            "durationTicks": 96,
            "midi": 38,
            "name": "D2",
            "ticks": 24192,
            "time": 34.363602,
            "velocity": 0.28346456692913385
          },
          {
            "duration": 0.13636349999998743,
            "durationTicks": 96,
            "midi": 35,
            "name": "B1",
            "ticks": 73728,
            "time": 104.727168,
            "velocity": 0.28346456692913385
          },
          {
            "duration": 0.13636350000000164,
            "durationTicks": 96,
            "midi": 38,
            "name": "D2",
            "ticks": 74112,
            "time": 105.272622,
            "velocity": 0.28346456692913385
          },
          {
            "duration": 0.13636349999998743,
            "durationTicks": 96,
            "midi": 35,
            "name": "B1",
            "ticks": 74496,
            "time": 105.818076,
            "velocity": 0.28346456692913385
          },
          {
            "duration": 0.13636350000000164,
            "durationTicks": 96,
            "midi": 38,
            "name": "D2",
            "ticks": 74880,
            "time": 106.36353,
            "velocity": 0.28346456692913385
          },
          {
            "duration": 0.13636350000000164,
            "durationTicks": 96,
            "midi": 35,
            "name": "B1",
            "ticks": 75264,
            "time": 106.908984,
            "velocity": 0.28346456692913385
          },
          {
            "duration": 0.13636350000000164,
            "durationTicks": 96,
            "midi": 38,
            "name": "D2",
            "ticks": 75648,
            "time": 107.454438,
            "velocity": 0.28346456692913385
          },
          {
            "duration": 0.13636350000000164,
            "durationTicks": 96,
            "midi": 35,
            "name": "B1",
            "ticks": 76032,
            "time": 107.999892,
            "velocity": 0.28346456692913385
          },
          {
            "duration": 0.13636350000000164,
            "durationTicks": 96,
            "midi": 38,
            "name": "D2",
            "ticks": 76416,
            "time": 108.545346,
            "velocity": 0.28346456692913385
          },
          {
            "duration": 0.13636350000000164,
            "durationTicks": 96,
            "midi": 35,
            "name": "B1",
            "ticks": 76800,
            "time": 109.0908,
            "velocity": 0.28346456692913385
          },
          {
            "duration": 0.13636350000000164,
            "durationTicks": 96,
            "midi": 38,
            "name": "D2",
            "ticks": 77184,
            "time": 109.636254,
            "velocity": 0.28346456692913385
          },
          {
            "duration": 0.13636350000000164,
            "durationTicks": 96,
            "midi": 35,
            "name": "B1",
            "ticks": 77568,
            "time": 110.181708,
            "velocity": 0.28346456692913385
          },
          {
            "duration": 0.13636350000000164,
            "durationTicks": 96,
            "midi": 38,
            "name": "D2",
            "ticks": 77952,
            "time": 110.72716199999999,
            "velocity": 0.28346456692913385
          },
          {
            "duration": 0.13636350000000164,
            "durationTicks": 96,
            "midi": 35,
            "name": "B1",
            "ticks": 78336,
            "time": 111.272616,
            "velocity": 0.28346456692913385
          },
          {
            "duration": 0.13636349999998743,
            "durationTicks": 96,
            "midi": 38,
            "name": "D2",
            "ticks": 78720,
            "time": 111.81807,
            "velocity": 0.28346456692913385
          },
          {
            "duration": 0.13636350000000164,
            "durationTicks": 96,
            "midi": 35,
            "name": "B1",
            "ticks": 79104,
            "time": 112.363524,
            "velocity": 0.28346456692913385
          },
          {
            "duration": 0.13636349999998743,
            "durationTicks": 96,
            "midi": 38,
            "name": "D2",
            "ticks": 79488,
            "time": 112.908978,
            "velocity": 0.28346456692913385
          },
          {
            "duration": 0.13636350000000164,
            "durationTicks": 96,
            "midi": 35,
            "name": "B1",
            "ticks": 79872,
            "time": 113.454432,
            "velocity": 0.28346456692913385
          },
          {
            "duration": 0.13636350000000164,
            "durationTicks": 96,
            "midi": 38,
            "name": "D2",
            "ticks": 80256,
            "time": 113.999886,
            "velocity": 0.28346456692913385
          },
          {
            "duration": 0.13636350000000164,
            "durationTicks": 96,
            "midi": 35,
            "name": "B1",
            "ticks": 80640,
            "time": 114.54534,
            "velocity": 0.28346456692913385
          },
          {
            "duration": 0.13636350000000164,
            "durationTicks": 96,
            "midi": 38,
            "name": "D2",
            "ticks": 81024,
            "time": 115.090794,
            "velocity": 0.28346456692913385
          },
          {
            "duration": 0.13636350000000164,
            "durationTicks": 96,
            "midi": 35,
            "name": "B1",
            "ticks": 81408,
            "time": 115.636248,
            "velocity": 0.28346456692913385
          },
          {
            "duration": 0.13636350000000164,
            "durationTicks": 96,
            "midi": 38,
            "name": "D2",
            "ticks": 81792,
            "time": 116.181702,
            "velocity": 0.28346456692913385
          },
          {
            "duration": 0.13636350000000164,
            "durationTicks": 96,
            "midi": 35,
            "name": "B1",
            "ticks": 82176,
            "time": 116.727156,
            "velocity": 0.28346456692913385
          },
          {
            "duration": 0.13636350000000164,
            "durationTicks": 96,
            "midi": 38,
            "name": "D2",
            "ticks": 82560,
            "time": 117.27261,
            "velocity": 0.28346456692913385
          },
          {
            "duration": 0.13636350000000164,
            "durationTicks": 96,
            "midi": 35,
            "name": "B1",
            "ticks": 82944,
            "time": 117.81806399999999,
            "velocity": 0.28346456692913385
          },
          {
            "duration": 0.13636350000000164,
            "durationTicks": 96,
            "midi": 38,
            "name": "D2",
            "ticks": 83328,
            "time": 118.363518,
            "velocity": 0.28346456692913385
          },
          {
            "duration": 0.13636349999998743,
            "durationTicks": 96,
            "midi": 35,
            "name": "B1",
            "ticks": 83712,
            "time": 118.908972,
            "velocity": 0.28346456692913385
          },
          {
            "duration": 0.13636350000000164,
            "durationTicks": 96,
            "midi": 38,
            "name": "D2",
            "ticks": 84096,
            "time": 119.454426,
            "velocity": 0.28346456692913385
          },
          {
            "duration": 0.13636349999998743,
            "durationTicks": 96,
            "midi": 35,
            "name": "B1",
            "ticks": 84480,
            "time": 119.99988,
            "velocity": 0.28346456692913385
          },
          {
            "duration": 0.13636350000000164,
            "durationTicks": 96,
            "midi": 38,
            "name": "D2",
            "ticks": 84864,
            "time": 120.545334,
            "velocity": 0.28346456692913385
          },
          {
            "duration": 0.13636350000000164,
            "durationTicks": 96,
            "midi": 35,
            "name": "B1",
            "ticks": 85248,
            "time": 121.090788,
            "velocity": 0.28346456692913385
          },
          {
            "duration": 0.13636350000000164,
            "durationTicks": 96,
            "midi": 38,
            "name": "D2",
            "ticks": 85632,
            "time": 121.636242,
            "velocity": 0.28346456692913385
          }
        ],
        "endOfTrackTicks": 85728
      },
      {
        "channel": 9,
        "controlChanges": {},
        "pitchBends": [],
        "instrument": {
          "family": "drums",
          "number": 0,
          "name": "standard kit"
        },
        "name": "909 Drum Kit",
        "notes": [
          {
            "duration": 0.1363635,
            "durationTicks": 96,
            "midi": 0,
            "name": "C-1",
            "ticks": 0,
            "time": 0,
            "velocity": 0.3937007874015748
          },
          {
            "duration": 0.1363635,
            "durationTicks": 96,
            "midi": 0,
            "name": "C-1",
            "ticks": 0,
            "time": 0,
            "velocity": 0.3937007874015748
          },
          {
            "duration": 0.1363635,
            "durationTicks": 96,
            "midi": 0,
            "name": "C-1",
            "ticks": 96,
            "time": 0.1363635,
            "velocity": 0.3937007874015748
          },
          {
            "duration": 0.13636350000000003,
            "durationTicks": 96,
            "midi": 0,
            "name": "C-1",
            "ticks": 192,
            "time": 0.272727,
            "velocity": 0.3937007874015748
          },
          {
            "duration": 0.13636350000000003,
            "durationTicks": 96,
            "midi": 0,
            "name": "C-1",
            "ticks": 192,
            "time": 0.272727,
            "velocity": 0.3937007874015748
          },
          {
            "duration": 0.13636349999999997,
            "durationTicks": 96,
            "midi": 0,
            "name": "C-1",
            "ticks": 288,
            "time": 0.4090905,
            "velocity": 0.3937007874015748
          },
          {
            "duration": 0.13636349999999997,
            "durationTicks": 96,
            "midi": 0,
            "name": "C-1",
            "ticks": 384,
            "time": 0.545454,
            "velocity": 0.3937007874015748
          },
          {
            "duration": 0.13636349999999997,
            "durationTicks": 96,
            "midi": 0,
            "name": "C-1",
            "ticks": 384,
            "time": 0.545454,
            "velocity": 0.3937007874015748
          },
          {
            "duration": 0.13636349999999997,
            "durationTicks": 96,
            "midi": 0,
            "name": "C-1",
            "ticks": 384,
            "time": 0.545454,
            "velocity": 0.3937007874015748
          },
          {
            "duration": 0.13636349999999997,
            "durationTicks": 96,
            "midi": 0,
            "name": "C-1",
            "ticks": 384,
            "time": 0.545454,
            "velocity": 0.3937007874015748
          },
          {
            "duration": 0.13636350000000008,
            "durationTicks": 96,
            "midi": 0,
            "name": "C-1",
            "ticks": 480,
            "time": 0.6818175,
            "velocity": 0.3937007874015748
          },
          {
            "duration": 0.13636349999999997,
            "durationTicks": 96,
            "midi": 0,
            "name": "C-1",
            "ticks": 576,
            "time": 0.818181,
            "velocity": 0.3937007874015748
          },
          {
            "duration": 0.13636349999999997,
            "durationTicks": 96,
            "midi": 0,
            "name": "C-1",
            "ticks": 576,
            "time": 0.818181,
            "velocity": 0.3937007874015748
          },
          {
            "duration": 0.13636349999999997,
            "durationTicks": 96,
            "midi": 0,
            "name": "C-1",
            "ticks": 672,
            "time": 0.9545445,
            "velocity": 0.3937007874015748
          },
          {
            "duration": 0.13636350000000008,
            "durationTicks": 96,
            "midi": 0,
            "name": "C-1",
            "ticks": 768,
            "time": 1.090908,
            "velocity": 0.3937007874015748
          },
          {
            "duration": 0.13636350000000008,
            "durationTicks": 96,
            "midi": 0,
            "name": "C-1",
            "ticks": 768,
            "time": 1.090908,
            "velocity": 0.3937007874015748
          },
          {
            "duration": 0.13636349999999986,
            "durationTicks": 96,
            "midi": 0,
            "name": "C-1",
            "ticks": 864,
            "time": 1.2272715,
            "velocity": 0.3937007874015748
          },
          {
            "duration": 0.13636350000000008,
            "durationTicks": 96,
            "midi": 0,
            "name": "C-1",
            "ticks": 960,
            "time": 1.363635,
            "velocity": 0.3937007874015748
          },
          {
            "duration": 0.13636350000000008,
            "durationTicks": 96,
            "midi": 0,
            "name": "C-1",
            "ticks": 960,
            "time": 1.363635,
            "velocity": 0.3937007874015748
          },
          {
            "duration": 0.13636350000000008,
            "durationTicks": 96,
            "midi": 0,
            "name": "C-1",
            "ticks": 1056,
            "time": 1.4999985,
            "velocity": 0.3937007874015748
          },
          {
            "duration": 0.13636349999999986,
            "durationTicks": 96,
            "midi": 0,
            "name": "C-1",
            "ticks": 1152,
            "time": 1.636362,
            "velocity": 0.3937007874015748
          },
          {
            "duration": 0.13636349999999986,
            "durationTicks": 96,
            "midi": 0,
            "name": "C-1",
            "ticks": 1152,
            "time": 1.636362,
            "velocity": 0.3937007874015748
          },
          {
            "duration": 0.13636349999999986,
            "durationTicks": 96,
            "midi": 0,
            "name": "C-1",
            "ticks": 1152,
            "time": 1.636362,
            "velocity": 0.3937007874015748
          },
          {
            "duration": 0.13636349999999986,
            "durationTicks": 96,
            "midi": 0,
            "name": "C-1",
            "ticks": 1152,
            "time": 1.636362,
            "velocity": 0.3937007874015748
          },
          {
            "duration": 0.13636350000000008,
            "durationTicks": 96,
            "midi": 0,
            "name": "C-1",
            "ticks": 1248,
            "time": 1.7727255,
            "velocity": 0.3937007874015748
          },
          {
            "duration": 0.13636350000000008,
            "durationTicks": 96,
            "midi": 0,
            "name": "C-1",
            "ticks": 1344,
            "time": 1.909089,
            "velocity": 0.3937007874015748
          },
          {
            "duration": 0.13636350000000008,
            "durationTicks": 96,
            "midi": 0,
            "name": "C-1",
            "ticks": 1344,
            "time": 1.909089,
            "velocity": 0.3937007874015748
          },
          {
            "duration": 0.13636349999999986,
            "durationTicks": 96,
            "midi": 0,
            "name": "C-1",
            "ticks": 1440,
            "time": 2.0454525,
            "velocity": 0.3937007874015748
          },
          {
            "duration": 0.13636349999999986,
            "durationTicks": 96,
            "midi": 0,
            "name": "C-1",
            "ticks": 1536,
            "time": 2.181816,
            "velocity": 0.3937007874015748
          },
          {
            "duration": 0.13636349999999986,
            "durationTicks": 96,
            "midi": 0,
            "name": "C-1",
            "ticks": 1536,
            "time": 2.181816,
            "velocity": 0.3937007874015748
          },
          {
            "duration": 0.1363635000000003,
            "durationTicks": 96,
            "midi": 0,
            "name": "C-1",
            "ticks": 1632,
            "time": 2.3181795,
            "velocity": 0.3937007874015748
          },
          {
            "duration": 0.13636349999999986,
            "durationTicks": 96,
            "midi": 0,
            "name": "C-1",
            "ticks": 1728,
            "time": 2.454543,
            "velocity": 0.3937007874015748
          },
          {
            "duration": 0.13636349999999986,
            "durationTicks": 96,
            "midi": 0,
            "name": "C-1",
            "ticks": 1728,
            "time": 2.454543,
            "velocity": 0.3937007874015748
          },
          {
            "duration": 0.13636349999999986,
            "durationTicks": 96,
            "midi": 0,
            "name": "C-1",
            "ticks": 1824,
            "time": 2.5909065,
            "velocity": 0.3937007874015748
          },
          {
            "duration": 0.1363635000000003,
            "durationTicks": 96,
            "midi": 0,
            "name": "C-1",
            "ticks": 1920,
            "time": 2.72727,
            "velocity": 0.3937007874015748
          },
          {
            "duration": 0.1363635000000003,
            "durationTicks": 96,
            "midi": 0,
            "name": "C-1",
            "ticks": 1920,
            "time": 2.72727,
            "velocity": 0.3937007874015748
          },
          {
            "duration": 0.1363635000000003,
            "durationTicks": 96,
            "midi": 0,
            "name": "C-1",
            "ticks": 1920,
            "time": 2.72727,
            "velocity": 0.3937007874015748
          },
          {
            "duration": 0.1363635000000003,
            "durationTicks": 96,
            "midi": 0,
            "name": "C-1",
            "ticks": 1920,
            "time": 2.72727,
            "velocity": 0.3937007874015748
          },
          {
            "duration": 0.13636349999999986,
            "durationTicks": 96,
            "midi": 0,
            "name": "C-1",
            "ticks": 2016,
            "time": 2.8636335,
            "velocity": 0.3937007874015748
          },
          {
            "duration": 0.13636349999999986,
            "durationTicks": 96,
            "midi": 0,
            "name": "C-1",
            "ticks": 2112,
            "time": 2.999997,
            "velocity": 0.3937007874015748
          },
          {
            "duration": 0.13636349999999986,
            "durationTicks": 96,
            "midi": 0,
            "name": "C-1",
            "ticks": 2112,
            "time": 2.999997,
            "velocity": 0.3937007874015748
          },
          {
            "duration": 0.1363635000000003,
            "durationTicks": 96,
            "midi": 0,
            "name": "C-1",
            "ticks": 2208,
            "time": 3.1363605,
            "velocity": 0.3937007874015748
          },
          {
            "duration": 0.13636349999999986,
            "durationTicks": 96,
            "midi": 0,
            "name": "C-1",
            "ticks": 2304,
            "time": 3.272724,
            "velocity": 0.3937007874015748
          },
          {
            "duration": 0.13636349999999986,
            "durationTicks": 96,
            "midi": 0,
            "name": "C-1",
            "ticks": 2304,
            "time": 3.272724,
            "velocity": 0.3937007874015748
          },
          {
            "duration": 0.13636349999999986,
            "durationTicks": 96,
            "midi": 0,
            "name": "C-1",
            "ticks": 2400,
            "time": 3.4090875,
            "velocity": 0.3937007874015748
          },
          {
            "duration": 0.13636349999999986,
            "durationTicks": 96,
            "midi": 0,
            "name": "C-1",
            "ticks": 2496,
            "time": 3.545451,
            "velocity": 0.3937007874015748
          },
          {
            "duration": 0.13636349999999986,
            "durationTicks": 96,
            "midi": 0,
            "name": "C-1",
            "ticks": 2496,
            "time": 3.545451,
            "velocity": 0.3937007874015748
          },
          {
            "duration": 0.1363635000000003,
            "durationTicks": 96,
            "midi": 0,
            "name": "C-1",
            "ticks": 2592,
            "time": 3.6818144999999998,
            "velocity": 0.3937007874015748
          },
          {
            "duration": 0.13636349999999986,
            "durationTicks": 96,
            "midi": 0,
            "name": "C-1",
            "ticks": 2688,
            "time": 3.818178,
            "velocity": 0.3937007874015748
          },
          {
            "duration": 0.13636349999999986,
            "durationTicks": 96,
            "midi": 0,
            "name": "C-1",
            "ticks": 2688,
            "time": 3.818178,
            "velocity": 0.3937007874015748
          },
          {
            "duration": 0.13636349999999986,
            "durationTicks": 96,
            "midi": 0,
            "name": "C-1",
            "ticks": 2688,
            "time": 3.818178,
            "velocity": 0.3937007874015748
          },
          {
            "duration": 0.13636349999999986,
            "durationTicks": 96,
            "midi": 0,
            "name": "C-1",
            "ticks": 2688,
            "time": 3.818178,
            "velocity": 0.3937007874015748
          },
          {
            "duration": 0.1363635000000003,
            "durationTicks": 96,
            "midi": 0,
            "name": "C-1",
            "ticks": 2784,
            "time": 3.9545415,
            "velocity": 0.3937007874015748
          },
          {
            "duration": 0.13636349999999986,
            "durationTicks": 96,
            "midi": 0,
            "name": "C-1",
            "ticks": 2880,
            "time": 4.090905,
            "velocity": 0.3937007874015748
          },
          {
            "duration": 0.13636349999999986,
            "durationTicks": 96,
            "midi": 0,
            "name": "C-1",
            "ticks": 2880,
            "time": 4.090905,
            "velocity": 0.3937007874015748
          },
          {
            "duration": 0.13636349999999986,
            "durationTicks": 96,
            "midi": 0,
            "name": "C-1",
            "ticks": 2976,
            "time": 4.2272685,
            "velocity": 0.3937007874015748
          },
          {
            "duration": 0.13636349999999986,
            "durationTicks": 96,
            "midi": 0,
            "name": "C-1",
            "ticks": 3072,
            "time": 4.363632,
            "velocity": 0.3937007874015748
          },
          {
            "duration": 0.13636349999999986,
            "durationTicks": 96,
            "midi": 0,
            "name": "C-1",
            "ticks": 3072,
            "time": 4.363632,
            "velocity": 0.3937007874015748
          },
          {
            "duration": 0.13636349999999986,
            "durationTicks": 96,
            "midi": 0,
            "name": "C-1",
            "ticks": 3168,
            "time": 4.4999955,
            "velocity": 0.3937007874015748
          },
          {
            "duration": 0.13636349999999986,
            "durationTicks": 96,
            "midi": 0,
            "name": "C-1",
            "ticks": 3264,
            "time": 4.636359,
            "velocity": 0.3937007874015748
          },
          {
            "duration": 0.13636349999999986,
            "durationTicks": 96,
            "midi": 0,
            "name": "C-1",
            "ticks": 3264,
            "time": 4.636359,
            "velocity": 0.3937007874015748
          },
          {
            "duration": 0.13636350000000075,
            "durationTicks": 96,
            "midi": 0,
            "name": "C-1",
            "ticks": 3360,
            "time": 4.7727224999999995,
            "velocity": 0.3937007874015748
          },
          {
            "duration": 0.13636349999999986,
            "durationTicks": 96,
            "midi": 0,
            "name": "C-1",
            "ticks": 3456,
            "time": 4.909086,
            "velocity": 0.3937007874015748
          },
          {
            "duration": 0.13636349999999986,
            "durationTicks": 96,
            "midi": 0,
            "name": "C-1",
            "ticks": 3456,
            "time": 4.909086,
            "velocity": 0.3937007874015748
          },
          {
            "duration": 0.13636349999999986,
            "durationTicks": 96,
            "midi": 0,
            "name": "C-1",
            "ticks": 3456,
            "time": 4.909086,
            "velocity": 0.3937007874015748
          },
          {
            "duration": 0.13636349999999986,
            "durationTicks": 96,
            "midi": 0,
            "name": "C-1",
            "ticks": 3456,
            "time": 4.909086,
            "velocity": 0.3937007874015748
          },
          {
            "duration": 0.13636349999999986,
            "durationTicks": 96,
            "midi": 0,
            "name": "C-1",
            "ticks": 3552,
            "time": 5.0454495,
            "velocity": 0.3937007874015748
          },
          {
            "duration": 0.13636349999999986,
            "durationTicks": 96,
            "midi": 0,
            "name": "C-1",
            "ticks": 3648,
            "time": 5.181813,
            "velocity": 0.3937007874015748
          },
          {
            "duration": 0.13636349999999986,
            "durationTicks": 96,
            "midi": 0,
            "name": "C-1",
            "ticks": 3648,
            "time": 5.181813,
            "velocity": 0.3937007874015748
          },
          {
            "duration": 0.13636349999999986,
            "durationTicks": 96,
            "midi": 0,
            "name": "C-1",
            "ticks": 3744,
            "time": 5.3181765,
            "velocity": 0.3937007874015748
          },
          {
            "duration": 0.13636349999999986,
            "durationTicks": 96,
            "midi": 0,
            "name": "C-1",
            "ticks": 3840,
            "time": 5.45454,
            "velocity": 0.3937007874015748
          },
          {
            "duration": 0.13636349999999986,
            "durationTicks": 96,
            "midi": 0,
            "name": "C-1",
            "ticks": 3840,
            "time": 5.45454,
            "velocity": 0.3937007874015748
          },
          {
            "duration": 0.13636350000000075,
            "durationTicks": 96,
            "midi": 0,
            "name": "C-1",
            "ticks": 3936,
            "time": 5.5909035,
            "velocity": 0.3937007874015748
          },
          {
            "duration": 0.13636349999999986,
            "durationTicks": 96,
            "midi": 0,
            "name": "C-1",
            "ticks": 4032,
            "time": 5.727267,
            "velocity": 0.3937007874015748
          },
          {
            "duration": 0.13636349999999986,
            "durationTicks": 96,
            "midi": 0,
            "name": "C-1",
            "ticks": 4032,
            "time": 5.727267,
            "velocity": 0.3937007874015748
          },
          {
            "duration": 0.13636349999999986,
            "durationTicks": 96,
            "midi": 0,
            "name": "C-1",
            "ticks": 4128,
            "time": 5.8636305,
            "velocity": 0.3937007874015748
          },
          {
            "duration": 0.13636349999999986,
            "durationTicks": 96,
            "midi": 0,
            "name": "C-1",
            "ticks": 4224,
            "time": 5.999994,
            "velocity": 0.3937007874015748
          },
          {
            "duration": 0.13636349999999986,
            "durationTicks": 96,
            "midi": 0,
            "name": "C-1",
            "ticks": 4224,
            "time": 5.999994,
            "velocity": 0.3937007874015748
          },
          {
            "duration": 0.13636349999999986,
            "durationTicks": 96,
            "midi": 0,
            "name": "C-1",
            "ticks": 4224,
            "time": 5.999994,
            "velocity": 0.3937007874015748
          },
          {
            "duration": 0.13636349999999986,
            "durationTicks": 96,
            "midi": 0,
            "name": "C-1",
            "ticks": 4224,
            "time": 5.999994,
            "velocity": 0.3937007874015748
          },
          {
            "duration": 0.13636349999999986,
            "durationTicks": 96,
            "midi": 0,
            "name": "C-1",
            "ticks": 4320,
            "time": 6.1363575,
            "velocity": 0.3937007874015748
          },
          {
            "duration": 0.13636349999999986,
            "durationTicks": 96,
            "midi": 0,
            "name": "C-1",
            "ticks": 4416,
            "time": 6.272721,
            "velocity": 0.3937007874015748
          },
          {
            "duration": 0.13636349999999986,
            "durationTicks": 96,
            "midi": 0,
            "name": "C-1",
            "ticks": 4416,
            "time": 6.272721,
            "velocity": 0.3937007874015748
          },
          {
            "duration": 0.13636350000000075,
            "durationTicks": 96,
            "midi": 0,
            "name": "C-1",
            "ticks": 4512,
            "time": 6.4090845,
            "velocity": 0.3937007874015748
          },
          {
            "duration": 0.13636349999999986,
            "durationTicks": 96,
            "midi": 0,
            "name": "C-1",
            "ticks": 4608,
            "time": 6.545448,
            "velocity": 0.3937007874015748
          },
          {
            "duration": 0.13636349999999986,
            "durationTicks": 96,
            "midi": 0,
            "name": "C-1",
            "ticks": 4608,
            "time": 6.545448,
            "velocity": 0.3937007874015748
          },
          {
            "duration": 0.13636349999999986,
            "durationTicks": 96,
            "midi": 0,
            "name": "C-1",
            "ticks": 4704,
            "time": 6.6818115,
            "velocity": 0.3937007874015748
          },
          {
            "duration": 0.13636349999999986,
            "durationTicks": 96,
            "midi": 0,
            "name": "C-1",
            "ticks": 4800,
            "time": 6.818175,
            "velocity": 0.3937007874015748
          },
          {
            "duration": 0.13636349999999986,
            "durationTicks": 96,
            "midi": 0,
            "name": "C-1",
            "ticks": 4800,
            "time": 6.818175,
            "velocity": 0.3937007874015748
          },
          {
            "duration": 0.13636349999999986,
            "durationTicks": 96,
            "midi": 0,
            "name": "C-1",
            "ticks": 4896,
            "time": 6.9545385,
            "velocity": 0.3937007874015748
          },
          {
            "duration": 0.13636349999999986,
            "durationTicks": 96,
            "midi": 0,
            "name": "C-1",
            "ticks": 4992,
            "time": 7.090902,
            "velocity": 0.3937007874015748
          },
          {
            "duration": 0.13636349999999986,
            "durationTicks": 96,
            "midi": 0,
            "name": "C-1",
            "ticks": 4992,
            "time": 7.090902,
            "velocity": 0.3937007874015748
          },
          {
            "duration": 0.13636349999999986,
            "durationTicks": 96,
            "midi": 0,
            "name": "C-1",
            "ticks": 4992,
            "time": 7.090902,
            "velocity": 0.3937007874015748
          },
          {
            "duration": 0.13636349999999986,
            "durationTicks": 96,
            "midi": 0,
            "name": "C-1",
            "ticks": 4992,
            "time": 7.090902,
            "velocity": 0.3937007874015748
          },
          {
            "duration": 0.13636349999999986,
            "durationTicks": 96,
            "midi": 0,
            "name": "C-1",
            "ticks": 5088,
            "time": 7.2272655,
            "velocity": 0.3937007874015748
          },
          {
            "duration": 0.13636350000000075,
            "durationTicks": 96,
            "midi": 0,
            "name": "C-1",
            "ticks": 5184,
            "time": 7.3636289999999995,
            "velocity": 0.3937007874015748
          },
          {
            "duration": 0.13636350000000075,
            "durationTicks": 96,
            "midi": 0,
            "name": "C-1",
            "ticks": 5184,
            "time": 7.3636289999999995,
            "velocity": 0.3937007874015748
          },
          {
            "duration": 0.13636349999999986,
            "durationTicks": 96,
            "midi": 0,
            "name": "C-1",
            "ticks": 5280,
            "time": 7.4999925,
            "velocity": 0.3937007874015748
          },
          {
            "duration": 0.13636349999999986,
            "durationTicks": 96,
            "midi": 0,
            "name": "C-1",
            "ticks": 5376,
            "time": 7.636356,
            "velocity": 0.3937007874015748
          },
          {
            "duration": 0.13636349999999986,
            "durationTicks": 96,
            "midi": 0,
            "name": "C-1",
            "ticks": 5376,
            "time": 7.636356,
            "velocity": 0.3937007874015748
          },
          {
            "duration": 0.13636349999999986,
            "durationTicks": 96,
            "midi": 0,
            "name": "C-1",
            "ticks": 5472,
            "time": 7.7727195,
            "velocity": 0.3937007874015748
          },
          {
            "duration": 0.13636350000000075,
            "durationTicks": 96,
            "midi": 0,
            "name": "C-1",
            "ticks": 5568,
            "time": 7.909083,
            "velocity": 0.3937007874015748
          },
          {
            "duration": 0.13636350000000075,
            "durationTicks": 96,
            "midi": 0,
            "name": "C-1",
            "ticks": 5568,
            "time": 7.909083,
            "velocity": 0.3937007874015748
          },
          {
            "duration": 0.13636349999999986,
            "durationTicks": 96,
            "midi": 0,
            "name": "C-1",
            "ticks": 5664,
            "time": 8.0454465,
            "velocity": 0.3937007874015748
          },
          {
            "duration": 0.13636349999999986,
            "durationTicks": 96,
            "midi": 0,
            "name": "C-1",
            "ticks": 5760,
            "time": 8.18181,
            "velocity": 0.3937007874015748
          },
          {
            "duration": 0.13636349999999986,
            "durationTicks": 96,
            "midi": 0,
            "name": "C-1",
            "ticks": 5760,
            "time": 8.18181,
            "velocity": 0.3937007874015748
          },
          {
            "duration": 0.13636349999999986,
            "durationTicks": 96,
            "midi": 0,
            "name": "C-1",
            "ticks": 5760,
            "time": 8.18181,
            "velocity": 0.3937007874015748
          },
          {
            "duration": 0.13636349999999986,
            "durationTicks": 96,
            "midi": 0,
            "name": "C-1",
            "ticks": 5760,
            "time": 8.18181,
            "velocity": 0.3937007874015748
          },
          {
            "duration": 0.13636349999999986,
            "durationTicks": 96,
            "midi": 0,
            "name": "C-1",
            "ticks": 5856,
            "time": 8.3181735,
            "velocity": 0.3937007874015748
          },
          {
            "duration": 0.13636349999999986,
            "durationTicks": 96,
            "midi": 0,
            "name": "C-1",
            "ticks": 5952,
            "time": 8.454537,
            "velocity": 0.3937007874015748
          },
          {
            "duration": 0.13636349999999986,
            "durationTicks": 96,
            "midi": 0,
            "name": "C-1",
            "ticks": 5952,
            "time": 8.454537,
            "velocity": 0.3937007874015748
          },
          {
            "duration": 0.13636349999999986,
            "durationTicks": 96,
            "midi": 0,
            "name": "C-1",
            "ticks": 6048,
            "time": 8.5909005,
            "velocity": 0.3937007874015748
          },
          {
            "duration": 0.13636349999999986,
            "durationTicks": 96,
            "midi": 0,
            "name": "C-1",
            "ticks": 6144,
            "time": 8.727264,
            "velocity": 0.3937007874015748
          },
          {
            "duration": 0.13636349999999986,
            "durationTicks": 96,
            "midi": 0,
            "name": "C-1",
            "ticks": 6144,
            "time": 8.727264,
            "velocity": 0.3937007874015748
          },
          {
            "duration": 0.13636349999999986,
            "durationTicks": 96,
            "midi": 0,
            "name": "C-1",
            "ticks": 6240,
            "time": 8.8636275,
            "velocity": 0.3937007874015748
          },
          {
            "duration": 0.13636349999999986,
            "durationTicks": 96,
            "midi": 0,
            "name": "C-1",
            "ticks": 6336,
            "time": 8.999991,
            "velocity": 0.3937007874015748
          },
          {
            "duration": 0.13636349999999986,
            "durationTicks": 96,
            "midi": 0,
            "name": "C-1",
            "ticks": 6336,
            "time": 8.999991,
            "velocity": 0.3937007874015748
          },
          {
            "duration": 0.13636349999999986,
            "durationTicks": 96,
            "midi": 0,
            "name": "C-1",
            "ticks": 6432,
            "time": 9.1363545,
            "velocity": 0.3937007874015748
          },
          {
            "duration": 0.13636349999999986,
            "durationTicks": 96,
            "midi": 0,
            "name": "C-1",
            "ticks": 6528,
            "time": 9.272718,
            "velocity": 0.3937007874015748
          },
          {
            "duration": 0.13636349999999986,
            "durationTicks": 96,
            "midi": 0,
            "name": "C-1",
            "ticks": 6528,
            "time": 9.272718,
            "velocity": 0.3937007874015748
          },
          {
            "duration": 0.13636349999999986,
            "durationTicks": 96,
            "midi": 0,
            "name": "C-1",
            "ticks": 6528,
            "time": 9.272718,
            "velocity": 0.3937007874015748
          },
          {
            "duration": 0.13636349999999986,
            "durationTicks": 96,
            "midi": 0,
            "name": "C-1",
            "ticks": 6528,
            "time": 9.272718,
            "velocity": 0.3937007874015748
          },
          {
            "duration": 0.13636349999999986,
            "durationTicks": 96,
            "midi": 0,
            "name": "C-1",
            "ticks": 6624,
            "time": 9.4090815,
            "velocity": 0.3937007874015748
          },
          {
            "duration": 0.13636350000000164,
            "durationTicks": 96,
            "midi": 0,
            "name": "C-1",
            "ticks": 6720,
            "time": 9.545444999999999,
            "velocity": 0.3937007874015748
          },
          {
            "duration": 0.13636350000000164,
            "durationTicks": 96,
            "midi": 0,
            "name": "C-1",
            "ticks": 6720,
            "time": 9.545444999999999,
            "velocity": 0.3937007874015748
          },
          {
            "duration": 0.13636349999999986,
            "durationTicks": 96,
            "midi": 0,
            "name": "C-1",
            "ticks": 6816,
            "time": 9.6818085,
            "velocity": 0.3937007874015748
          },
          {
            "duration": 0.13636349999999986,
            "durationTicks": 96,
            "midi": 0,
            "name": "C-1",
            "ticks": 6912,
            "time": 9.818172,
            "velocity": 0.3937007874015748
          },
          {
            "duration": 0.13636349999999986,
            "durationTicks": 96,
            "midi": 0,
            "name": "C-1",
            "ticks": 6912,
            "time": 9.818172,
            "velocity": 0.3937007874015748
          },
          {
            "duration": 0.13636349999999986,
            "durationTicks": 96,
            "midi": 0,
            "name": "C-1",
            "ticks": 7008,
            "time": 9.9545355,
            "velocity": 0.3937007874015748
          },
          {
            "duration": 0.13636349999999986,
            "durationTicks": 96,
            "midi": 0,
            "name": "C-1",
            "ticks": 7104,
            "time": 10.090899,
            "velocity": 0.3937007874015748
          },
          {
            "duration": 0.13636349999999986,
            "durationTicks": 96,
            "midi": 0,
            "name": "C-1",
            "ticks": 7104,
            "time": 10.090899,
            "velocity": 0.3937007874015748
          },
          {
            "duration": 0.13636349999999986,
            "durationTicks": 96,
            "midi": 0,
            "name": "C-1",
            "ticks": 7200,
            "time": 10.2272625,
            "velocity": 0.3937007874015748
          },
          {
            "duration": 0.13636349999999986,
            "durationTicks": 96,
            "midi": 0,
            "name": "C-1",
            "ticks": 7296,
            "time": 10.363626,
            "velocity": 0.3937007874015748
          },
          {
            "duration": 0.13636349999999986,
            "durationTicks": 96,
            "midi": 0,
            "name": "C-1",
            "ticks": 7296,
            "time": 10.363626,
            "velocity": 0.3937007874015748
          },
          {
            "duration": 0.13636349999999986,
            "durationTicks": 96,
            "midi": 0,
            "name": "C-1",
            "ticks": 7296,
            "time": 10.363626,
            "velocity": 0.3937007874015748
          },
          {
            "duration": 0.13636349999999986,
            "durationTicks": 96,
            "midi": 0,
            "name": "C-1",
            "ticks": 7296,
            "time": 10.363626,
            "velocity": 0.3937007874015748
          },
          {
            "duration": 0.13636349999999986,
            "durationTicks": 96,
            "midi": 0,
            "name": "C-1",
            "ticks": 7392,
            "time": 10.4999895,
            "velocity": 0.3937007874015748
          },
          {
            "duration": 0.13636349999999986,
            "durationTicks": 96,
            "midi": 0,
            "name": "C-1",
            "ticks": 7488,
            "time": 10.636353,
            "velocity": 0.3937007874015748
          },
          {
            "duration": 0.13636349999999986,
            "durationTicks": 96,
            "midi": 0,
            "name": "C-1",
            "ticks": 7488,
            "time": 10.636353,
            "velocity": 0.3937007874015748
          },
          {
            "duration": 0.13636349999999986,
            "durationTicks": 96,
            "midi": 0,
            "name": "C-1",
            "ticks": 7584,
            "time": 10.7727165,
            "velocity": 0.3937007874015748
          },
          {
            "duration": 0.13636349999999986,
            "durationTicks": 96,
            "midi": 0,
            "name": "C-1",
            "ticks": 7680,
            "time": 10.90908,
            "velocity": 0.3937007874015748
          },
          {
            "duration": 0.13636349999999986,
            "durationTicks": 96,
            "midi": 0,
            "name": "C-1",
            "ticks": 7680,
            "time": 10.90908,
            "velocity": 0.3937007874015748
          },
          {
            "duration": 0.13636349999999986,
            "durationTicks": 96,
            "midi": 0,
            "name": "C-1",
            "ticks": 7776,
            "time": 11.0454435,
            "velocity": 0.3937007874015748
          },
          {
            "duration": 0.13636349999999986,
            "durationTicks": 96,
            "midi": 0,
            "name": "C-1",
            "ticks": 7872,
            "time": 11.181807,
            "velocity": 0.3937007874015748
          },
          {
            "duration": 0.13636349999999986,
            "durationTicks": 96,
            "midi": 0,
            "name": "C-1",
            "ticks": 7872,
            "time": 11.181807,
            "velocity": 0.3937007874015748
          },
          {
            "duration": 0.13636350000000164,
            "durationTicks": 96,
            "midi": 0,
            "name": "C-1",
            "ticks": 7968,
            "time": 11.318170499999999,
            "velocity": 0.3937007874015748
          },
          {
            "duration": 0.13636349999999986,
            "durationTicks": 96,
            "midi": 0,
            "name": "C-1",
            "ticks": 8064,
            "time": 11.454534,
            "velocity": 0.3937007874015748
          },
          {
            "duration": 0.13636349999999986,
            "durationTicks": 96,
            "midi": 0,
            "name": "C-1",
            "ticks": 8064,
            "time": 11.454534,
            "velocity": 0.3937007874015748
          },
          {
            "duration": 0.13636349999999986,
            "durationTicks": 96,
            "midi": 0,
            "name": "C-1",
            "ticks": 8064,
            "time": 11.454534,
            "velocity": 0.3937007874015748
          },
          {
            "duration": 0.13636349999999986,
            "durationTicks": 96,
            "midi": 0,
            "name": "C-1",
            "ticks": 8064,
            "time": 11.454534,
            "velocity": 0.3937007874015748
          },
          {
            "duration": 0.13636349999999986,
            "durationTicks": 96,
            "midi": 0,
            "name": "C-1",
            "ticks": 8160,
            "time": 11.5908975,
            "velocity": 0.3937007874015748
          },
          {
            "duration": 0.13636349999999986,
            "durationTicks": 96,
            "midi": 0,
            "name": "C-1",
            "ticks": 8256,
            "time": 11.727261,
            "velocity": 0.3937007874015748
          },
          {
            "duration": 0.13636349999999986,
            "durationTicks": 96,
            "midi": 0,
            "name": "C-1",
            "ticks": 8256,
            "time": 11.727261,
            "velocity": 0.3937007874015748
          },
          {
            "duration": 0.13636349999999986,
            "durationTicks": 96,
            "midi": 0,
            "name": "C-1",
            "ticks": 8352,
            "time": 11.8636245,
            "velocity": 0.3937007874015748
          },
          {
            "duration": 0.13636349999999986,
            "durationTicks": 96,
            "midi": 0,
            "name": "C-1",
            "ticks": 8448,
            "time": 11.999988,
            "velocity": 0.3937007874015748
          },
          {
            "duration": 0.13636349999999986,
            "durationTicks": 96,
            "midi": 0,
            "name": "C-1",
            "ticks": 8448,
            "time": 11.999988,
            "velocity": 0.3937007874015748
          },
          {
            "duration": 0.13636349999999986,
            "durationTicks": 96,
            "midi": 0,
            "name": "C-1",
            "ticks": 8544,
            "time": 12.1363515,
            "velocity": 0.3937007874015748
          },
          {
            "duration": 0.13636349999999986,
            "durationTicks": 96,
            "midi": 0,
            "name": "C-1",
            "ticks": 8640,
            "time": 12.272715,
            "velocity": 0.3937007874015748
          },
          {
            "duration": 0.13636349999999986,
            "durationTicks": 96,
            "midi": 0,
            "name": "C-1",
            "ticks": 8640,
            "time": 12.272715,
            "velocity": 0.3937007874015748
          },
          {
            "duration": 0.13636349999999986,
            "durationTicks": 96,
            "midi": 0,
            "name": "C-1",
            "ticks": 8736,
            "time": 12.4090785,
            "velocity": 0.3937007874015748
          },
          {
            "duration": 0.13636349999999986,
            "durationTicks": 96,
            "midi": 0,
            "name": "C-1",
            "ticks": 8832,
            "time": 12.545442,
            "velocity": 0.3937007874015748
          },
          {
            "duration": 0.13636349999999986,
            "durationTicks": 96,
            "midi": 0,
            "name": "C-1",
            "ticks": 8832,
            "time": 12.545442,
            "velocity": 0.3937007874015748
          },
          {
            "duration": 0.13636349999999986,
            "durationTicks": 96,
            "midi": 0,
            "name": "C-1",
            "ticks": 8832,
            "time": 12.545442,
            "velocity": 0.3937007874015748
          },
          {
            "duration": 0.13636349999999986,
            "durationTicks": 96,
            "midi": 0,
            "name": "C-1",
            "ticks": 8832,
            "time": 12.545442,
            "velocity": 0.3937007874015748
          },
          {
            "duration": 0.13636349999999986,
            "durationTicks": 96,
            "midi": 0,
            "name": "C-1",
            "ticks": 8928,
            "time": 12.6818055,
            "velocity": 0.3937007874015748
          },
          {
            "duration": 0.13636349999999986,
            "durationTicks": 96,
            "midi": 0,
            "name": "C-1",
            "ticks": 9024,
            "time": 12.818169,
            "velocity": 0.3937007874015748
          },
          {
            "duration": 0.13636349999999986,
            "durationTicks": 96,
            "midi": 0,
            "name": "C-1",
            "ticks": 9024,
            "time": 12.818169,
            "velocity": 0.3937007874015748
          },
          {
            "duration": 0.13636350000000164,
            "durationTicks": 96,
            "midi": 0,
            "name": "C-1",
            "ticks": 9120,
            "time": 12.9545325,
            "velocity": 0.3937007874015748
          },
          {
            "duration": 0.13636349999999986,
            "durationTicks": 96,
            "midi": 0,
            "name": "C-1",
            "ticks": 9216,
            "time": 13.090896,
            "velocity": 0.3937007874015748
          },
          {
            "duration": 0.13636349999999986,
            "durationTicks": 96,
            "midi": 0,
            "name": "C-1",
            "ticks": 9216,
            "time": 13.090896,
            "velocity": 0.3937007874015748
          },
          {
            "duration": 0.13636349999999986,
            "durationTicks": 96,
            "midi": 0,
            "name": "C-1",
            "ticks": 9312,
            "time": 13.2272595,
            "velocity": 0.3937007874015748
          },
          {
            "duration": 0.13636349999999986,
            "durationTicks": 96,
            "midi": 0,
            "name": "C-1",
            "ticks": 9408,
            "time": 13.363623,
            "velocity": 0.3937007874015748
          },
          {
            "duration": 0.13636349999999986,
            "durationTicks": 96,
            "midi": 0,
            "name": "C-1",
            "ticks": 9408,
            "time": 13.363623,
            "velocity": 0.3937007874015748
          },
          {
            "duration": 0.13636349999999986,
            "durationTicks": 96,
            "midi": 0,
            "name": "C-1",
            "ticks": 9504,
            "time": 13.4999865,
            "velocity": 0.3937007874015748
          },
          {
            "duration": 0.13636349999999986,
            "durationTicks": 96,
            "midi": 0,
            "name": "C-1",
            "ticks": 9600,
            "time": 13.63635,
            "velocity": 0.3937007874015748
          },
          {
            "duration": 0.13636349999999986,
            "durationTicks": 96,
            "midi": 0,
            "name": "C-1",
            "ticks": 9600,
            "time": 13.63635,
            "velocity": 0.3937007874015748
          },
          {
            "duration": 0.13636349999999986,
            "durationTicks": 96,
            "midi": 0,
            "name": "C-1",
            "ticks": 9600,
            "time": 13.63635,
            "velocity": 0.3937007874015748
          },
          {
            "duration": 0.13636349999999986,
            "durationTicks": 96,
            "midi": 0,
            "name": "C-1",
            "ticks": 9600,
            "time": 13.63635,
            "velocity": 0.3937007874015748
          },
          {
            "duration": 0.13636349999999986,
            "durationTicks": 96,
            "midi": 0,
            "name": "C-1",
            "ticks": 9696,
            "time": 13.7727135,
            "velocity": 0.3937007874015748
          },
          {
            "duration": 0.13636349999999986,
            "durationTicks": 96,
            "midi": 0,
            "name": "C-1",
            "ticks": 9792,
            "time": 13.909077,
            "velocity": 0.3937007874015748
          },
          {
            "duration": 0.13636349999999986,
            "durationTicks": 96,
            "midi": 0,
            "name": "C-1",
            "ticks": 9792,
            "time": 13.909077,
            "velocity": 0.3937007874015748
          },
          {
            "duration": 0.13636349999999986,
            "durationTicks": 96,
            "midi": 0,
            "name": "C-1",
            "ticks": 9888,
            "time": 14.0454405,
            "velocity": 0.3937007874015748
          },
          {
            "duration": 0.13636349999999986,
            "durationTicks": 96,
            "midi": 0,
            "name": "C-1",
            "ticks": 9984,
            "time": 14.181804,
            "velocity": 0.3937007874015748
          },
          {
            "duration": 0.13636349999999986,
            "durationTicks": 96,
            "midi": 0,
            "name": "C-1",
            "ticks": 9984,
            "time": 14.181804,
            "velocity": 0.3937007874015748
          },
          {
            "duration": 0.13636349999999986,
            "durationTicks": 96,
            "midi": 0,
            "name": "C-1",
            "ticks": 10080,
            "time": 14.3181675,
            "velocity": 0.3937007874015748
          },
          {
            "duration": 0.13636349999999986,
            "durationTicks": 96,
            "midi": 0,
            "name": "C-1",
            "ticks": 10176,
            "time": 14.454531,
            "velocity": 0.3937007874015748
          },
          {
            "duration": 0.13636349999999986,
            "durationTicks": 96,
            "midi": 0,
            "name": "C-1",
            "ticks": 10176,
            "time": 14.454531,
            "velocity": 0.3937007874015748
          },
          {
            "duration": 0.13636349999999986,
            "durationTicks": 96,
            "midi": 0,
            "name": "C-1",
            "ticks": 10272,
            "time": 14.5908945,
            "velocity": 0.3937007874015748
          },
          {
            "duration": 0.13636350000000164,
            "durationTicks": 96,
            "midi": 0,
            "name": "C-1",
            "ticks": 10368,
            "time": 14.727257999999999,
            "velocity": 0.3937007874015748
          },
          {
            "duration": 0.13636350000000164,
            "durationTicks": 96,
            "midi": 0,
            "name": "C-1",
            "ticks": 10368,
            "time": 14.727257999999999,
            "velocity": 0.3937007874015748
          },
          {
            "duration": 0.13636350000000164,
            "durationTicks": 96,
            "midi": 0,
            "name": "C-1",
            "ticks": 10368,
            "time": 14.727257999999999,
            "velocity": 0.3937007874015748
          },
          {
            "duration": 0.13636350000000164,
            "durationTicks": 96,
            "midi": 0,
            "name": "C-1",
            "ticks": 10368,
            "time": 14.727257999999999,
            "velocity": 0.3937007874015748
          },
          {
            "duration": 0.13636349999999986,
            "durationTicks": 96,
            "midi": 0,
            "name": "C-1",
            "ticks": 10464,
            "time": 14.8636215,
            "velocity": 0.3937007874015748
          },
          {
            "duration": 0.13636349999999986,
            "durationTicks": 96,
            "midi": 0,
            "name": "C-1",
            "ticks": 10560,
            "time": 14.999985,
            "velocity": 0.3937007874015748
          },
          {
            "duration": 0.13636349999999986,
            "durationTicks": 96,
            "midi": 0,
            "name": "C-1",
            "ticks": 10560,
            "time": 14.999985,
            "velocity": 0.3937007874015748
          },
          {
            "duration": 0.13636349999999986,
            "durationTicks": 96,
            "midi": 0,
            "name": "C-1",
            "ticks": 10656,
            "time": 15.1363485,
            "velocity": 0.3937007874015748
          },
          {
            "duration": 0.13636349999999986,
            "durationTicks": 96,
            "midi": 0,
            "name": "C-1",
            "ticks": 10752,
            "time": 15.272712,
            "velocity": 0.3937007874015748
          },
          {
            "duration": 0.13636349999999986,
            "durationTicks": 96,
            "midi": 0,
            "name": "C-1",
            "ticks": 10752,
            "time": 15.272712,
            "velocity": 0.3937007874015748
          },
          {
            "duration": 0.13636349999999986,
            "durationTicks": 96,
            "midi": 0,
            "name": "C-1",
            "ticks": 10848,
            "time": 15.4090755,
            "velocity": 0.3937007874015748
          },
          {
            "duration": 0.13636349999999986,
            "durationTicks": 96,
            "midi": 0,
            "name": "C-1",
            "ticks": 10944,
            "time": 15.545439,
            "velocity": 0.3937007874015748
          },
          {
            "duration": 0.13636349999999986,
            "durationTicks": 96,
            "midi": 0,
            "name": "C-1",
            "ticks": 10944,
            "time": 15.545439,
            "velocity": 0.3937007874015748
          },
          {
            "duration": 0.13636349999999986,
            "durationTicks": 96,
            "midi": 0,
            "name": "C-1",
            "ticks": 11040,
            "time": 15.6818025,
            "velocity": 0.3937007874015748
          },
          {
            "duration": 0.13636349999999986,
            "durationTicks": 96,
            "midi": 0,
            "name": "C-1",
            "ticks": 11136,
            "time": 15.818166,
            "velocity": 0.3937007874015748
          },
          {
            "duration": 0.13636349999999986,
            "durationTicks": 96,
            "midi": 0,
            "name": "C-1",
            "ticks": 11136,
            "time": 15.818166,
            "velocity": 0.3937007874015748
          },
          {
            "duration": 0.13636349999999986,
            "durationTicks": 96,
            "midi": 0,
            "name": "C-1",
            "ticks": 11136,
            "time": 15.818166,
            "velocity": 0.3937007874015748
          },
          {
            "duration": 0.13636349999999986,
            "durationTicks": 96,
            "midi": 0,
            "name": "C-1",
            "ticks": 11136,
            "time": 15.818166,
            "velocity": 0.3937007874015748
          },
          {
            "duration": 0.13636350000000164,
            "durationTicks": 96,
            "midi": 0,
            "name": "C-1",
            "ticks": 11232,
            "time": 15.9545295,
            "velocity": 0.3937007874015748
          },
          {
            "duration": 0.13636349999999808,
            "durationTicks": 96,
            "midi": 0,
            "name": "C-1",
            "ticks": 11328,
            "time": 16.090893,
            "velocity": 0.3937007874015748
          },
          {
            "duration": 0.13636349999999808,
            "durationTicks": 96,
            "midi": 0,
            "name": "C-1",
            "ticks": 11328,
            "time": 16.090893,
            "velocity": 0.3937007874015748
          },
          {
            "duration": 0.13636350000000164,
            "durationTicks": 96,
            "midi": 0,
            "name": "C-1",
            "ticks": 11424,
            "time": 16.2272565,
            "velocity": 0.3937007874015748
          },
          {
            "duration": 0.13636349999999808,
            "durationTicks": 96,
            "midi": 0,
            "name": "C-1",
            "ticks": 11520,
            "time": 16.36362,
            "velocity": 0.3937007874015748
          },
          {
            "duration": 0.13636349999999808,
            "durationTicks": 96,
            "midi": 0,
            "name": "C-1",
            "ticks": 11520,
            "time": 16.36362,
            "velocity": 0.3937007874015748
          },
          {
            "duration": 0.13636350000000164,
            "durationTicks": 96,
            "midi": 0,
            "name": "C-1",
            "ticks": 11616,
            "time": 16.4999835,
            "velocity": 0.3937007874015748
          },
          {
            "duration": 0.13636349999999808,
            "durationTicks": 96,
            "midi": 0,
            "name": "C-1",
            "ticks": 11712,
            "time": 16.636347,
            "velocity": 0.3937007874015748
          },
          {
            "duration": 0.13636349999999808,
            "durationTicks": 96,
            "midi": 0,
            "name": "C-1",
            "ticks": 11712,
            "time": 16.636347,
            "velocity": 0.3937007874015748
          },
          {
            "duration": 0.13636350000000164,
            "durationTicks": 96,
            "midi": 0,
            "name": "C-1",
            "ticks": 11808,
            "time": 16.7727105,
            "velocity": 0.3937007874015748
          },
          {
            "duration": 0.13636349999999808,
            "durationTicks": 96,
            "midi": 0,
            "name": "C-1",
            "ticks": 11904,
            "time": 16.909074,
            "velocity": 0.3937007874015748
          },
          {
            "duration": 0.13636349999999808,
            "durationTicks": 96,
            "midi": 0,
            "name": "C-1",
            "ticks": 11904,
            "time": 16.909074,
            "velocity": 0.3937007874015748
          },
          {
            "duration": 0.13636349999999808,
            "durationTicks": 96,
            "midi": 0,
            "name": "C-1",
            "ticks": 11904,
            "time": 16.909074,
            "velocity": 0.3937007874015748
          },
          {
            "duration": 0.13636349999999808,
            "durationTicks": 96,
            "midi": 0,
            "name": "C-1",
            "ticks": 11904,
            "time": 16.909074,
            "velocity": 0.3937007874015748
          },
          {
            "duration": 0.13636350000000164,
            "durationTicks": 96,
            "midi": 0,
            "name": "C-1",
            "ticks": 12000,
            "time": 17.0454375,
            "velocity": 0.3937007874015748
          },
          {
            "duration": 0.13636349999999808,
            "durationTicks": 96,
            "midi": 0,
            "name": "C-1",
            "ticks": 12096,
            "time": 17.181801,
            "velocity": 0.3937007874015748
          },
          {
            "duration": 0.13636349999999808,
            "durationTicks": 96,
            "midi": 0,
            "name": "C-1",
            "ticks": 12096,
            "time": 17.181801,
            "velocity": 0.3937007874015748
          },
          {
            "duration": 0.13636350000000164,
            "durationTicks": 96,
            "midi": 0,
            "name": "C-1",
            "ticks": 12192,
            "time": 17.318164499999998,
            "velocity": 0.3937007874015748
          },
          {
            "duration": 0.13636350000000164,
            "durationTicks": 96,
            "midi": 0,
            "name": "C-1",
            "ticks": 12288,
            "time": 17.454528,
            "velocity": 0.3937007874015748
          },
          {
            "duration": 0.13636350000000164,
            "durationTicks": 96,
            "midi": 0,
            "name": "C-1",
            "ticks": 12288,
            "time": 17.454528,
            "velocity": 0.3937007874015748
          },
          {
            "duration": 0.13636349999999808,
            "durationTicks": 96,
            "midi": 0,
            "name": "C-1",
            "ticks": 12384,
            "time": 17.5908915,
            "velocity": 0.3937007874015748
          },
          {
            "duration": 0.13636350000000164,
            "durationTicks": 96,
            "midi": 0,
            "name": "C-1",
            "ticks": 12480,
            "time": 17.727255,
            "velocity": 0.3937007874015748
          },
          {
            "duration": 0.13636350000000164,
            "durationTicks": 96,
            "midi": 0,
            "name": "C-1",
            "ticks": 12480,
            "time": 17.727255,
            "velocity": 0.3937007874015748
          },
          {
            "duration": 0.13636349999999808,
            "durationTicks": 96,
            "midi": 0,
            "name": "C-1",
            "ticks": 12576,
            "time": 17.8636185,
            "velocity": 0.3937007874015748
          },
          {
            "duration": 0.13636350000000164,
            "durationTicks": 96,
            "midi": 0,
            "name": "C-1",
            "ticks": 12672,
            "time": 17.999982,
            "velocity": 0.3937007874015748
          },
          {
            "duration": 0.13636350000000164,
            "durationTicks": 96,
            "midi": 0,
            "name": "C-1",
            "ticks": 12672,
            "time": 17.999982,
            "velocity": 0.3937007874015748
          },
          {
            "duration": 0.13636350000000164,
            "durationTicks": 96,
            "midi": 0,
            "name": "C-1",
            "ticks": 12672,
            "time": 17.999982,
            "velocity": 0.3937007874015748
          },
          {
            "duration": 0.13636350000000164,
            "durationTicks": 96,
            "midi": 0,
            "name": "C-1",
            "ticks": 12672,
            "time": 17.999982,
            "velocity": 0.3937007874015748
          },
          {
            "duration": 0.13636349999999808,
            "durationTicks": 96,
            "midi": 0,
            "name": "C-1",
            "ticks": 12768,
            "time": 18.1363455,
            "velocity": 0.3937007874015748
          },
          {
            "duration": 0.13636350000000164,
            "durationTicks": 96,
            "midi": 0,
            "name": "C-1",
            "ticks": 12864,
            "time": 18.272709,
            "velocity": 0.3937007874015748
          },
          {
            "duration": 0.13636350000000164,
            "durationTicks": 96,
            "midi": 0,
            "name": "C-1",
            "ticks": 12864,
            "time": 18.272709,
            "velocity": 0.3937007874015748
          },
          {
            "duration": 0.13636349999999808,
            "durationTicks": 96,
            "midi": 0,
            "name": "C-1",
            "ticks": 12960,
            "time": 18.4090725,
            "velocity": 0.3937007874015748
          },
          {
            "duration": 0.13636350000000164,
            "durationTicks": 96,
            "midi": 0,
            "name": "C-1",
            "ticks": 13056,
            "time": 18.545436,
            "velocity": 0.3937007874015748
          },
          {
            "duration": 0.13636350000000164,
            "durationTicks": 96,
            "midi": 0,
            "name": "C-1",
            "ticks": 13056,
            "time": 18.545436,
            "velocity": 0.3937007874015748
          },
          {
            "duration": 0.13636349999999808,
            "durationTicks": 96,
            "midi": 0,
            "name": "C-1",
            "ticks": 13152,
            "time": 18.6817995,
            "velocity": 0.3937007874015748
          },
          {
            "duration": 0.13636350000000164,
            "durationTicks": 96,
            "midi": 0,
            "name": "C-1",
            "ticks": 13248,
            "time": 18.818163,
            "velocity": 0.3937007874015748
          },
          {
            "duration": 0.13636350000000164,
            "durationTicks": 96,
            "midi": 0,
            "name": "C-1",
            "ticks": 13248,
            "time": 18.818163,
            "velocity": 0.3937007874015748
          },
          {
            "duration": 0.13636349999999808,
            "durationTicks": 96,
            "midi": 0,
            "name": "C-1",
            "ticks": 13344,
            "time": 18.9545265,
            "velocity": 0.3937007874015748
          },
          {
            "duration": 0.13636350000000164,
            "durationTicks": 96,
            "midi": 0,
            "name": "C-1",
            "ticks": 13440,
            "time": 19.090889999999998,
            "velocity": 0.3937007874015748
          },
          {
            "duration": 0.13636350000000164,
            "durationTicks": 96,
            "midi": 0,
            "name": "C-1",
            "ticks": 13440,
            "time": 19.090889999999998,
            "velocity": 0.3937007874015748
          },
          {
            "duration": 0.13636350000000164,
            "durationTicks": 96,
            "midi": 0,
            "name": "C-1",
            "ticks": 13440,
            "time": 19.090889999999998,
            "velocity": 0.3937007874015748
          },
          {
            "duration": 0.13636350000000164,
            "durationTicks": 96,
            "midi": 0,
            "name": "C-1",
            "ticks": 13440,
            "time": 19.090889999999998,
            "velocity": 0.3937007874015748
          },
          {
            "duration": 0.13636350000000164,
            "durationTicks": 96,
            "midi": 0,
            "name": "C-1",
            "ticks": 13536,
            "time": 19.2272535,
            "velocity": 0.3937007874015748
          },
          {
            "duration": 0.13636349999999808,
            "durationTicks": 96,
            "midi": 0,
            "name": "C-1",
            "ticks": 13632,
            "time": 19.363617,
            "velocity": 0.3937007874015748
          },
          {
            "duration": 0.13636349999999808,
            "durationTicks": 96,
            "midi": 0,
            "name": "C-1",
            "ticks": 13632,
            "time": 19.363617,
            "velocity": 0.3937007874015748
          },
          {
            "duration": 0.13636350000000164,
            "durationTicks": 96,
            "midi": 0,
            "name": "C-1",
            "ticks": 13728,
            "time": 19.4999805,
            "velocity": 0.3937007874015748
          },
          {
            "duration": 0.13636349999999808,
            "durationTicks": 96,
            "midi": 0,
            "name": "C-1",
            "ticks": 13824,
            "time": 19.636344,
            "velocity": 0.3937007874015748
          },
          {
            "duration": 0.13636349999999808,
            "durationTicks": 96,
            "midi": 0,
            "name": "C-1",
            "ticks": 13824,
            "time": 19.636344,
            "velocity": 0.3937007874015748
          },
          {
            "duration": 0.13636350000000164,
            "durationTicks": 96,
            "midi": 0,
            "name": "C-1",
            "ticks": 13920,
            "time": 19.7727075,
            "velocity": 0.3937007874015748
          },
          {
            "duration": 0.13636349999999808,
            "durationTicks": 96,
            "midi": 0,
            "name": "C-1",
            "ticks": 14016,
            "time": 19.909071,
            "velocity": 0.3937007874015748
          },
          {
            "duration": 0.13636349999999808,
            "durationTicks": 96,
            "midi": 0,
            "name": "C-1",
            "ticks": 14016,
            "time": 19.909071,
            "velocity": 0.3937007874015748
          },
          {
            "duration": 0.13636350000000164,
            "durationTicks": 96,
            "midi": 0,
            "name": "C-1",
            "ticks": 14112,
            "time": 20.0454345,
            "velocity": 0.3937007874015748
          },
          {
            "duration": 0.13636349999999808,
            "durationTicks": 96,
            "midi": 0,
            "name": "C-1",
            "ticks": 14208,
            "time": 20.181798,
            "velocity": 0.3937007874015748
          },
          {
            "duration": 0.13636349999999808,
            "durationTicks": 96,
            "midi": 0,
            "name": "C-1",
            "ticks": 14208,
            "time": 20.181798,
            "velocity": 0.3937007874015748
          },
          {
            "duration": 0.13636349999999808,
            "durationTicks": 96,
            "midi": 0,
            "name": "C-1",
            "ticks": 14208,
            "time": 20.181798,
            "velocity": 0.3937007874015748
          },
          {
            "duration": 0.13636349999999808,
            "durationTicks": 96,
            "midi": 0,
            "name": "C-1",
            "ticks": 14208,
            "time": 20.181798,
            "velocity": 0.3937007874015748
          },
          {
            "duration": 0.13636350000000164,
            "durationTicks": 96,
            "midi": 0,
            "name": "C-1",
            "ticks": 14304,
            "time": 20.3181615,
            "velocity": 0.3937007874015748
          },
          {
            "duration": 0.13636349999999808,
            "durationTicks": 96,
            "midi": 0,
            "name": "C-1",
            "ticks": 14400,
            "time": 20.454525,
            "velocity": 0.3937007874015748
          },
          {
            "duration": 0.13636349999999808,
            "durationTicks": 96,
            "midi": 0,
            "name": "C-1",
            "ticks": 14400,
            "time": 20.454525,
            "velocity": 0.3937007874015748
          },
          {
            "duration": 0.13636350000000164,
            "durationTicks": 96,
            "midi": 0,
            "name": "C-1",
            "ticks": 14496,
            "time": 20.5908885,
            "velocity": 0.3937007874015748
          },
          {
            "duration": 0.13636349999999808,
            "durationTicks": 96,
            "midi": 0,
            "name": "C-1",
            "ticks": 14592,
            "time": 20.727252,
            "velocity": 0.3937007874015748
          },
          {
            "duration": 0.13636349999999808,
            "durationTicks": 96,
            "midi": 0,
            "name": "C-1",
            "ticks": 14592,
            "time": 20.727252,
            "velocity": 0.3937007874015748
          },
          {
            "duration": 0.13636350000000164,
            "durationTicks": 96,
            "midi": 0,
            "name": "C-1",
            "ticks": 14688,
            "time": 20.863615499999998,
            "velocity": 0.3937007874015748
          },
          {
            "duration": 0.13636350000000164,
            "durationTicks": 96,
            "midi": 0,
            "name": "C-1",
            "ticks": 14784,
            "time": 20.999979,
            "velocity": 0.3937007874015748
          },
          {
            "duration": 0.13636350000000164,
            "durationTicks": 96,
            "midi": 0,
            "name": "C-1",
            "ticks": 14784,
            "time": 20.999979,
            "velocity": 0.3937007874015748
          },
          {
            "duration": 0.13636349999999808,
            "durationTicks": 96,
            "midi": 0,
            "name": "C-1",
            "ticks": 14880,
            "time": 21.1363425,
            "velocity": 0.3937007874015748
          },
          {
            "duration": 0.13636350000000164,
            "durationTicks": 96,
            "midi": 0,
            "name": "C-1",
            "ticks": 14976,
            "time": 21.272706,
            "velocity": 0.3937007874015748
          },
          {
            "duration": 0.13636350000000164,
            "durationTicks": 96,
            "midi": 0,
            "name": "C-1",
            "ticks": 14976,
            "time": 21.272706,
            "velocity": 0.3937007874015748
          },
          {
            "duration": 0.13636350000000164,
            "durationTicks": 96,
            "midi": 0,
            "name": "C-1",
            "ticks": 14976,
            "time": 21.272706,
            "velocity": 0.3937007874015748
          },
          {
            "duration": 0.13636350000000164,
            "durationTicks": 96,
            "midi": 0,
            "name": "C-1",
            "ticks": 14976,
            "time": 21.272706,
            "velocity": 0.3937007874015748
          },
          {
            "duration": 0.13636349999999808,
            "durationTicks": 96,
            "midi": 0,
            "name": "C-1",
            "ticks": 15072,
            "time": 21.4090695,
            "velocity": 0.3937007874015748
          },
          {
            "duration": 0.13636350000000164,
            "durationTicks": 96,
            "midi": 0,
            "name": "C-1",
            "ticks": 15168,
            "time": 21.545433,
            "velocity": 0.3937007874015748
          },
          {
            "duration": 0.13636350000000164,
            "durationTicks": 96,
            "midi": 0,
            "name": "C-1",
            "ticks": 15168,
            "time": 21.545433,
            "velocity": 0.3937007874015748
          },
          {
            "duration": 0.13636349999999808,
            "durationTicks": 96,
            "midi": 0,
            "name": "C-1",
            "ticks": 15264,
            "time": 21.6817965,
            "velocity": 0.3937007874015748
          },
          {
            "duration": 0.13636350000000164,
            "durationTicks": 96,
            "midi": 0,
            "name": "C-1",
            "ticks": 15360,
            "time": 21.81816,
            "velocity": 0.3937007874015748
          },
          {
            "duration": 0.13636350000000164,
            "durationTicks": 96,
            "midi": 0,
            "name": "C-1",
            "ticks": 15360,
            "time": 21.81816,
            "velocity": 0.3937007874015748
          },
          {
            "duration": 0.13636349999999808,
            "durationTicks": 96,
            "midi": 0,
            "name": "C-1",
            "ticks": 15456,
            "time": 21.9545235,
            "velocity": 0.3937007874015748
          },
          {
            "duration": 0.13636350000000164,
            "durationTicks": 96,
            "midi": 0,
            "name": "C-1",
            "ticks": 15552,
            "time": 22.090887,
            "velocity": 0.3937007874015748
          },
          {
            "duration": 0.13636350000000164,
            "durationTicks": 96,
            "midi": 0,
            "name": "C-1",
            "ticks": 15552,
            "time": 22.090887,
            "velocity": 0.3937007874015748
          },
          {
            "duration": 0.13636349999999808,
            "durationTicks": 96,
            "midi": 0,
            "name": "C-1",
            "ticks": 15648,
            "time": 22.2272505,
            "velocity": 0.3937007874015748
          },
          {
            "duration": 0.13636350000000164,
            "durationTicks": 96,
            "midi": 0,
            "name": "C-1",
            "ticks": 15744,
            "time": 22.363614,
            "velocity": 0.3937007874015748
          },
          {
            "duration": 0.13636350000000164,
            "durationTicks": 96,
            "midi": 0,
            "name": "C-1",
            "ticks": 15744,
            "time": 22.363614,
            "velocity": 0.3937007874015748
          },
          {
            "duration": 0.13636350000000164,
            "durationTicks": 96,
            "midi": 0,
            "name": "C-1",
            "ticks": 15744,
            "time": 22.363614,
            "velocity": 0.3937007874015748
          },
          {
            "duration": 0.13636350000000164,
            "durationTicks": 96,
            "midi": 0,
            "name": "C-1",
            "ticks": 15744,
            "time": 22.363614,
            "velocity": 0.3937007874015748
          },
          {
            "duration": 0.13636349999999808,
            "durationTicks": 96,
            "midi": 0,
            "name": "C-1",
            "ticks": 15840,
            "time": 22.4999775,
            "velocity": 0.3937007874015748
          },
          {
            "duration": 0.13636350000000164,
            "durationTicks": 96,
            "midi": 0,
            "name": "C-1",
            "ticks": 15936,
            "time": 22.636340999999998,
            "velocity": 0.3937007874015748
          },
          {
            "duration": 0.13636350000000164,
            "durationTicks": 96,
            "midi": 0,
            "name": "C-1",
            "ticks": 15936,
            "time": 22.636340999999998,
            "velocity": 0.3937007874015748
          },
          {
            "duration": 0.13636350000000164,
            "durationTicks": 96,
            "midi": 0,
            "name": "C-1",
            "ticks": 16032,
            "time": 22.7727045,
            "velocity": 0.3937007874015748
          },
          {
            "duration": 0.13636349999999808,
            "durationTicks": 96,
            "midi": 0,
            "name": "C-1",
            "ticks": 16128,
            "time": 22.909068,
            "velocity": 0.3937007874015748
          },
          {
            "duration": 0.13636349999999808,
            "durationTicks": 96,
            "midi": 0,
            "name": "C-1",
            "ticks": 16128,
            "time": 22.909068,
            "velocity": 0.3937007874015748
          },
          {
            "duration": 0.13636350000000164,
            "durationTicks": 96,
            "midi": 0,
            "name": "C-1",
            "ticks": 16224,
            "time": 23.0454315,
            "velocity": 0.3937007874015748
          },
          {
            "duration": 0.13636349999999808,
            "durationTicks": 96,
            "midi": 0,
            "name": "C-1",
            "ticks": 16320,
            "time": 23.181795,
            "velocity": 0.3937007874015748
          },
          {
            "duration": 0.13636349999999808,
            "durationTicks": 96,
            "midi": 0,
            "name": "C-1",
            "ticks": 16320,
            "time": 23.181795,
            "velocity": 0.3937007874015748
          },
          {
            "duration": 0.13636350000000164,
            "durationTicks": 96,
            "midi": 0,
            "name": "C-1",
            "ticks": 16416,
            "time": 23.3181585,
            "velocity": 0.3937007874015748
          },
          {
            "duration": 0.13636349999999808,
            "durationTicks": 96,
            "midi": 0,
            "name": "C-1",
            "ticks": 16512,
            "time": 23.454522,
            "velocity": 0.3937007874015748
          },
          {
            "duration": 0.13636349999999808,
            "durationTicks": 96,
            "midi": 0,
            "name": "C-1",
            "ticks": 16512,
            "time": 23.454522,
            "velocity": 0.3937007874015748
          },
          {
            "duration": 0.13636349999999808,
            "durationTicks": 96,
            "midi": 0,
            "name": "C-1",
            "ticks": 16512,
            "time": 23.454522,
            "velocity": 0.3937007874015748
          },
          {
            "duration": 0.13636349999999808,
            "durationTicks": 96,
            "midi": 0,
            "name": "C-1",
            "ticks": 16512,
            "time": 23.454522,
            "velocity": 0.3937007874015748
          },
          {
            "duration": 0.13636350000000164,
            "durationTicks": 96,
            "midi": 0,
            "name": "C-1",
            "ticks": 16608,
            "time": 23.5908855,
            "velocity": 0.3937007874015748
          },
          {
            "duration": 0.13636349999999808,
            "durationTicks": 96,
            "midi": 0,
            "name": "C-1",
            "ticks": 16704,
            "time": 23.727249,
            "velocity": 0.3937007874015748
          },
          {
            "duration": 0.13636349999999808,
            "durationTicks": 96,
            "midi": 0,
            "name": "C-1",
            "ticks": 16704,
            "time": 23.727249,
            "velocity": 0.3937007874015748
          },
          {
            "duration": 0.13636350000000164,
            "durationTicks": 96,
            "midi": 0,
            "name": "C-1",
            "ticks": 16800,
            "time": 23.8636125,
            "velocity": 0.3937007874015748
          },
          {
            "duration": 0.13636349999999808,
            "durationTicks": 96,
            "midi": 0,
            "name": "C-1",
            "ticks": 16896,
            "time": 23.999976,
            "velocity": 0.3937007874015748
          },
          {
            "duration": 0.13636349999999808,
            "durationTicks": 96,
            "midi": 0,
            "name": "C-1",
            "ticks": 16896,
            "time": 23.999976,
            "velocity": 0.3937007874015748
          },
          {
            "duration": 0.13636350000000164,
            "durationTicks": 96,
            "midi": 0,
            "name": "C-1",
            "ticks": 16992,
            "time": 24.1363395,
            "velocity": 0.3937007874015748
          },
          {
            "duration": 0.13636349999999808,
            "durationTicks": 96,
            "midi": 0,
            "name": "C-1",
            "ticks": 17088,
            "time": 24.272703,
            "velocity": 0.3937007874015748
          },
          {
            "duration": 0.13636349999999808,
            "durationTicks": 96,
            "midi": 0,
            "name": "C-1",
            "ticks": 17088,
            "time": 24.272703,
            "velocity": 0.3937007874015748
          },
          {
            "duration": 0.13636350000000164,
            "durationTicks": 96,
            "midi": 0,
            "name": "C-1",
            "ticks": 17184,
            "time": 24.409066499999998,
            "velocity": 0.3937007874015748
          },
          {
            "duration": 0.13636350000000164,
            "durationTicks": 96,
            "midi": 0,
            "name": "C-1",
            "ticks": 17280,
            "time": 24.54543,
            "velocity": 0.3937007874015748
          },
          {
            "duration": 0.13636350000000164,
            "durationTicks": 96,
            "midi": 0,
            "name": "C-1",
            "ticks": 17280,
            "time": 24.54543,
            "velocity": 0.3937007874015748
          },
          {
            "duration": 0.13636350000000164,
            "durationTicks": 96,
            "midi": 0,
            "name": "C-1",
            "ticks": 17280,
            "time": 24.54543,
            "velocity": 0.3937007874015748
          },
          {
            "duration": 0.13636350000000164,
            "durationTicks": 96,
            "midi": 0,
            "name": "C-1",
            "ticks": 17280,
            "time": 24.54543,
            "velocity": 0.3937007874015748
          },
          {
            "duration": 0.13636349999999808,
            "durationTicks": 96,
            "midi": 0,
            "name": "C-1",
            "ticks": 17376,
            "time": 24.6817935,
            "velocity": 0.3937007874015748
          },
          {
            "duration": 0.13636350000000164,
            "durationTicks": 96,
            "midi": 0,
            "name": "C-1",
            "ticks": 17472,
            "time": 24.818157,
            "velocity": 0.3937007874015748
          },
          {
            "duration": 0.13636350000000164,
            "durationTicks": 96,
            "midi": 0,
            "name": "C-1",
            "ticks": 17472,
            "time": 24.818157,
            "velocity": 0.3937007874015748
          },
          {
            "duration": 0.13636349999999808,
            "durationTicks": 96,
            "midi": 0,
            "name": "C-1",
            "ticks": 17568,
            "time": 24.9545205,
            "velocity": 0.3937007874015748
          },
          {
            "duration": 0.13636350000000164,
            "durationTicks": 96,
            "midi": 0,
            "name": "C-1",
            "ticks": 17664,
            "time": 25.090884,
            "velocity": 0.3937007874015748
          },
          {
            "duration": 0.13636350000000164,
            "durationTicks": 96,
            "midi": 0,
            "name": "C-1",
            "ticks": 17664,
            "time": 25.090884,
            "velocity": 0.3937007874015748
          },
          {
            "duration": 0.13636349999999808,
            "durationTicks": 96,
            "midi": 0,
            "name": "C-1",
            "ticks": 17760,
            "time": 25.2272475,
            "velocity": 0.3937007874015748
          },
          {
            "duration": 0.13636350000000164,
            "durationTicks": 96,
            "midi": 0,
            "name": "C-1",
            "ticks": 17856,
            "time": 25.363611,
            "velocity": 0.3937007874015748
          },
          {
            "duration": 0.13636350000000164,
            "durationTicks": 96,
            "midi": 0,
            "name": "C-1",
            "ticks": 17856,
            "time": 25.363611,
            "velocity": 0.3937007874015748
          },
          {
            "duration": 0.13636349999999808,
            "durationTicks": 96,
            "midi": 0,
            "name": "C-1",
            "ticks": 17952,
            "time": 25.4999745,
            "velocity": 0.3937007874015748
          },
          {
            "duration": 0.13636350000000164,
            "durationTicks": 96,
            "midi": 0,
            "name": "C-1",
            "ticks": 18048,
            "time": 25.636338,
            "velocity": 0.3937007874015748
          },
          {
            "duration": 0.13636350000000164,
            "durationTicks": 96,
            "midi": 0,
            "name": "C-1",
            "ticks": 18048,
            "time": 25.636338,
            "velocity": 0.3937007874015748
          },
          {
            "duration": 0.13636350000000164,
            "durationTicks": 96,
            "midi": 0,
            "name": "C-1",
            "ticks": 18048,
            "time": 25.636338,
            "velocity": 0.3937007874015748
          },
          {
            "duration": 0.13636350000000164,
            "durationTicks": 96,
            "midi": 0,
            "name": "C-1",
            "ticks": 18048,
            "time": 25.636338,
            "velocity": 0.3937007874015748
          },
          {
            "duration": 0.13636349999999808,
            "durationTicks": 96,
            "midi": 0,
            "name": "C-1",
            "ticks": 18144,
            "time": 25.7727015,
            "velocity": 0.3937007874015748
          },
          {
            "duration": 0.13636350000000164,
            "durationTicks": 96,
            "midi": 0,
            "name": "C-1",
            "ticks": 18240,
            "time": 25.909065,
            "velocity": 0.3937007874015748
          },
          {
            "duration": 0.13636350000000164,
            "durationTicks": 96,
            "midi": 0,
            "name": "C-1",
            "ticks": 18240,
            "time": 25.909065,
            "velocity": 0.3937007874015748
          },
          {
            "duration": 0.13636350000000164,
            "durationTicks": 96,
            "midi": 0,
            "name": "C-1",
            "ticks": 18336,
            "time": 26.0454285,
            "velocity": 0.3937007874015748
          },
          {
            "duration": 0.13636349999999808,
            "durationTicks": 96,
            "midi": 0,
            "name": "C-1",
            "ticks": 18432,
            "time": 26.181792,
            "velocity": 0.3937007874015748
          },
          {
            "duration": 0.13636349999999808,
            "durationTicks": 96,
            "midi": 0,
            "name": "C-1",
            "ticks": 18432,
            "time": 26.181792,
            "velocity": 0.3937007874015748
          },
          {
            "duration": 0.13636350000000164,
            "durationTicks": 96,
            "midi": 0,
            "name": "C-1",
            "ticks": 18528,
            "time": 26.3181555,
            "velocity": 0.3937007874015748
          },
          {
            "duration": 0.13636349999999808,
            "durationTicks": 96,
            "midi": 0,
            "name": "C-1",
            "ticks": 18624,
            "time": 26.454519,
            "velocity": 0.3937007874015748
          },
          {
            "duration": 0.13636349999999808,
            "durationTicks": 96,
            "midi": 0,
            "name": "C-1",
            "ticks": 18624,
            "time": 26.454519,
            "velocity": 0.3937007874015748
          },
          {
            "duration": 0.13636350000000164,
            "durationTicks": 96,
            "midi": 0,
            "name": "C-1",
            "ticks": 18720,
            "time": 26.5908825,
            "velocity": 0.3937007874015748
          },
          {
            "duration": 0.13636349999999808,
            "durationTicks": 96,
            "midi": 0,
            "name": "C-1",
            "ticks": 18816,
            "time": 26.727246,
            "velocity": 0.3937007874015748
          },
          {
            "duration": 0.13636349999999808,
            "durationTicks": 96,
            "midi": 0,
            "name": "C-1",
            "ticks": 18816,
            "time": 26.727246,
            "velocity": 0.3937007874015748
          },
          {
            "duration": 0.13636349999999808,
            "durationTicks": 96,
            "midi": 0,
            "name": "C-1",
            "ticks": 18816,
            "time": 26.727246,
            "velocity": 0.3937007874015748
          },
          {
            "duration": 0.13636349999999808,
            "durationTicks": 96,
            "midi": 0,
            "name": "C-1",
            "ticks": 18816,
            "time": 26.727246,
            "velocity": 0.3937007874015748
          },
          {
            "duration": 0.13636350000000164,
            "durationTicks": 96,
            "midi": 0,
            "name": "C-1",
            "ticks": 18912,
            "time": 26.8636095,
            "velocity": 0.3937007874015748
          },
          {
            "duration": 0.13636349999999808,
            "durationTicks": 96,
            "midi": 0,
            "name": "C-1",
            "ticks": 19008,
            "time": 26.999973,
            "velocity": 0.3937007874015748
          },
          {
            "duration": 0.13636349999999808,
            "durationTicks": 96,
            "midi": 0,
            "name": "C-1",
            "ticks": 19008,
            "time": 26.999973,
            "velocity": 0.3937007874015748
          },
          {
            "duration": 0.13636350000000164,
            "durationTicks": 96,
            "midi": 0,
            "name": "C-1",
            "ticks": 19104,
            "time": 27.1363365,
            "velocity": 0.3937007874015748
          },
          {
            "duration": 0.13636349999999808,
            "durationTicks": 96,
            "midi": 0,
            "name": "C-1",
            "ticks": 19200,
            "time": 27.2727,
            "velocity": 0.3937007874015748
          },
          {
            "duration": 0.13636349999999808,
            "durationTicks": 96,
            "midi": 0,
            "name": "C-1",
            "ticks": 19200,
            "time": 27.2727,
            "velocity": 0.3937007874015748
          },
          {
            "duration": 0.13636350000000164,
            "durationTicks": 96,
            "midi": 0,
            "name": "C-1",
            "ticks": 19296,
            "time": 27.4090635,
            "velocity": 0.3937007874015748
          },
          {
            "duration": 0.13636349999999808,
            "durationTicks": 96,
            "midi": 0,
            "name": "C-1",
            "ticks": 19392,
            "time": 27.545427,
            "velocity": 0.3937007874015748
          },
          {
            "duration": 0.13636349999999808,
            "durationTicks": 96,
            "midi": 0,
            "name": "C-1",
            "ticks": 19392,
            "time": 27.545427,
            "velocity": 0.3937007874015748
          },
          {
            "duration": 0.13636350000000164,
            "durationTicks": 96,
            "midi": 0,
            "name": "C-1",
            "ticks": 19488,
            "time": 27.681790499999998,
            "velocity": 0.3937007874015748
          },
          {
            "duration": 0.13636350000000164,
            "durationTicks": 96,
            "midi": 0,
            "name": "C-1",
            "ticks": 19584,
            "time": 27.818154,
            "velocity": 0.3937007874015748
          },
          {
            "duration": 0.13636350000000164,
            "durationTicks": 96,
            "midi": 0,
            "name": "C-1",
            "ticks": 19584,
            "time": 27.818154,
            "velocity": 0.3937007874015748
          },
          {
            "duration": 0.13636350000000164,
            "durationTicks": 96,
            "midi": 0,
            "name": "C-1",
            "ticks": 19584,
            "time": 27.818154,
            "velocity": 0.3937007874015748
          },
          {
            "duration": 0.13636350000000164,
            "durationTicks": 96,
            "midi": 0,
            "name": "C-1",
            "ticks": 19584,
            "time": 27.818154,
            "velocity": 0.3937007874015748
          },
          {
            "duration": 0.13636349999999808,
            "durationTicks": 96,
            "midi": 0,
            "name": "C-1",
            "ticks": 19680,
            "time": 27.9545175,
            "velocity": 0.3937007874015748
          },
          {
            "duration": 0.13636350000000164,
            "durationTicks": 96,
            "midi": 0,
            "name": "C-1",
            "ticks": 19776,
            "time": 28.090881,
            "velocity": 0.3937007874015748
          },
          {
            "duration": 0.13636350000000164,
            "durationTicks": 96,
            "midi": 0,
            "name": "C-1",
            "ticks": 19776,
            "time": 28.090881,
            "velocity": 0.3937007874015748
          },
          {
            "duration": 0.13636349999999808,
            "durationTicks": 96,
            "midi": 0,
            "name": "C-1",
            "ticks": 19872,
            "time": 28.2272445,
            "velocity": 0.3937007874015748
          },
          {
            "duration": 0.13636350000000164,
            "durationTicks": 96,
            "midi": 0,
            "name": "C-1",
            "ticks": 19968,
            "time": 28.363608,
            "velocity": 0.3937007874015748
          },
          {
            "duration": 0.13636350000000164,
            "durationTicks": 96,
            "midi": 0,
            "name": "C-1",
            "ticks": 19968,
            "time": 28.363608,
            "velocity": 0.3937007874015748
          },
          {
            "duration": 0.13636349999999808,
            "durationTicks": 96,
            "midi": 0,
            "name": "C-1",
            "ticks": 20064,
            "time": 28.4999715,
            "velocity": 0.3937007874015748
          },
          {
            "duration": 0.13636350000000164,
            "durationTicks": 96,
            "midi": 0,
            "name": "C-1",
            "ticks": 20160,
            "time": 28.636335,
            "velocity": 0.3937007874015748
          },
          {
            "duration": 0.13636350000000164,
            "durationTicks": 96,
            "midi": 0,
            "name": "C-1",
            "ticks": 20160,
            "time": 28.636335,
            "velocity": 0.3937007874015748
          },
          {
            "duration": 0.13636349999999808,
            "durationTicks": 96,
            "midi": 0,
            "name": "C-1",
            "ticks": 20256,
            "time": 28.7726985,
            "velocity": 0.3937007874015748
          },
          {
            "duration": 0.13636350000000164,
            "durationTicks": 96,
            "midi": 0,
            "name": "C-1",
            "ticks": 20352,
            "time": 28.909062,
            "velocity": 0.3937007874015748
          },
          {
            "duration": 0.13636350000000164,
            "durationTicks": 96,
            "midi": 0,
            "name": "C-1",
            "ticks": 20352,
            "time": 28.909062,
            "velocity": 0.3937007874015748
          },
          {
            "duration": 0.13636350000000164,
            "durationTicks": 96,
            "midi": 0,
            "name": "C-1",
            "ticks": 20352,
            "time": 28.909062,
            "velocity": 0.3937007874015748
          },
          {
            "duration": 0.13636350000000164,
            "durationTicks": 96,
            "midi": 0,
            "name": "C-1",
            "ticks": 20352,
            "time": 28.909062,
            "velocity": 0.3937007874015748
          },
          {
            "duration": 0.13636349999999808,
            "durationTicks": 96,
            "midi": 0,
            "name": "C-1",
            "ticks": 20448,
            "time": 29.0454255,
            "velocity": 0.3937007874015748
          },
          {
            "duration": 0.13636350000000164,
            "durationTicks": 96,
            "midi": 0,
            "name": "C-1",
            "ticks": 20544,
            "time": 29.181789,
            "velocity": 0.3937007874015748
          },
          {
            "duration": 0.13636350000000164,
            "durationTicks": 96,
            "midi": 0,
            "name": "C-1",
            "ticks": 20544,
            "time": 29.181789,
            "velocity": 0.3937007874015748
          },
          {
            "duration": 0.13636349999999808,
            "durationTicks": 96,
            "midi": 0,
            "name": "C-1",
            "ticks": 20640,
            "time": 29.3181525,
            "velocity": 0.3937007874015748
          },
          {
            "duration": 0.13636350000000164,
            "durationTicks": 96,
            "midi": 0,
            "name": "C-1",
            "ticks": 20736,
            "time": 29.454515999999998,
            "velocity": 0.3937007874015748
          },
          {
            "duration": 0.13636350000000164,
            "durationTicks": 96,
            "midi": 0,
            "name": "C-1",
            "ticks": 20736,
            "time": 29.454515999999998,
            "velocity": 0.3937007874015748
          },
          {
            "duration": 0.13636350000000164,
            "durationTicks": 96,
            "midi": 0,
            "name": "C-1",
            "ticks": 20832,
            "time": 29.5908795,
            "velocity": 0.3937007874015748
          },
          {
            "duration": 0.13636349999999808,
            "durationTicks": 96,
            "midi": 0,
            "name": "C-1",
            "ticks": 20928,
            "time": 29.727243,
            "velocity": 0.3937007874015748
          },
          {
            "duration": 0.13636349999999808,
            "durationTicks": 96,
            "midi": 0,
            "name": "C-1",
            "ticks": 20928,
            "time": 29.727243,
            "velocity": 0.3937007874015748
          },
          {
            "duration": 0.13636350000000164,
            "durationTicks": 96,
            "midi": 0,
            "name": "C-1",
            "ticks": 21024,
            "time": 29.8636065,
            "velocity": 0.3937007874015748
          },
          {
            "duration": 0.13636349999999808,
            "durationTicks": 96,
            "midi": 0,
            "name": "C-1",
            "ticks": 21120,
            "time": 29.99997,
            "velocity": 0.3937007874015748
          },
          {
            "duration": 0.13636349999999808,
            "durationTicks": 96,
            "midi": 0,
            "name": "C-1",
            "ticks": 21120,
            "time": 29.99997,
            "velocity": 0.3937007874015748
          },
          {
            "duration": 0.13636349999999808,
            "durationTicks": 96,
            "midi": 0,
            "name": "C-1",
            "ticks": 21120,
            "time": 29.99997,
            "velocity": 0.3937007874015748
          },
          {
            "duration": 0.13636349999999808,
            "durationTicks": 96,
            "midi": 0,
            "name": "C-1",
            "ticks": 21120,
            "time": 29.99997,
            "velocity": 0.3937007874015748
          },
          {
            "duration": 0.13636350000000164,
            "durationTicks": 96,
            "midi": 0,
            "name": "C-1",
            "ticks": 21216,
            "time": 30.1363335,
            "velocity": 0.3937007874015748
          },
          {
            "duration": 0.13636349999999808,
            "durationTicks": 96,
            "midi": 0,
            "name": "C-1",
            "ticks": 21312,
            "time": 30.272697,
            "velocity": 0.3937007874015748
          },
          {
            "duration": 0.13636349999999808,
            "durationTicks": 96,
            "midi": 0,
            "name": "C-1",
            "ticks": 21312,
            "time": 30.272697,
            "velocity": 0.3937007874015748
          },
          {
            "duration": 0.13636350000000164,
            "durationTicks": 96,
            "midi": 0,
            "name": "C-1",
            "ticks": 21408,
            "time": 30.4090605,
            "velocity": 0.3937007874015748
          },
          {
            "duration": 0.13636349999999808,
            "durationTicks": 96,
            "midi": 0,
            "name": "C-1",
            "ticks": 21504,
            "time": 30.545424,
            "velocity": 0.3937007874015748
          },
          {
            "duration": 0.13636349999999808,
            "durationTicks": 96,
            "midi": 0,
            "name": "C-1",
            "ticks": 21504,
            "time": 30.545424,
            "velocity": 0.3937007874015748
          },
          {
            "duration": 0.13636350000000164,
            "durationTicks": 96,
            "midi": 0,
            "name": "C-1",
            "ticks": 21600,
            "time": 30.6817875,
            "velocity": 0.3937007874015748
          },
          {
            "duration": 0.13636349999999808,
            "durationTicks": 96,
            "midi": 0,
            "name": "C-1",
            "ticks": 21696,
            "time": 30.818151,
            "velocity": 0.3937007874015748
          },
          {
            "duration": 0.13636349999999808,
            "durationTicks": 96,
            "midi": 0,
            "name": "C-1",
            "ticks": 21696,
            "time": 30.818151,
            "velocity": 0.3937007874015748
          },
          {
            "duration": 0.13636350000000164,
            "durationTicks": 96,
            "midi": 0,
            "name": "C-1",
            "ticks": 21792,
            "time": 30.9545145,
            "velocity": 0.3937007874015748
          },
          {
            "duration": 0.13636349999999808,
            "durationTicks": 96,
            "midi": 0,
            "name": "C-1",
            "ticks": 21888,
            "time": 31.090878,
            "velocity": 0.3937007874015748
          },
          {
            "duration": 0.13636349999999808,
            "durationTicks": 96,
            "midi": 0,
            "name": "C-1",
            "ticks": 21888,
            "time": 31.090878,
            "velocity": 0.3937007874015748
          },
          {
            "duration": 0.13636349999999808,
            "durationTicks": 96,
            "midi": 0,
            "name": "C-1",
            "ticks": 21888,
            "time": 31.090878,
            "velocity": 0.3937007874015748
          },
          {
            "duration": 0.13636349999999808,
            "durationTicks": 96,
            "midi": 0,
            "name": "C-1",
            "ticks": 21888,
            "time": 31.090878,
            "velocity": 0.3937007874015748
          },
          {
            "duration": 0.13636350000000164,
            "durationTicks": 96,
            "midi": 0,
            "name": "C-1",
            "ticks": 21984,
            "time": 31.227241499999998,
            "velocity": 0.3937007874015748
          },
          {
            "duration": 0.13636350000000164,
            "durationTicks": 96,
            "midi": 0,
            "name": "C-1",
            "ticks": 22080,
            "time": 31.363605,
            "velocity": 0.3937007874015748
          },
          {
            "duration": 0.13636350000000164,
            "durationTicks": 96,
            "midi": 0,
            "name": "C-1",
            "ticks": 22080,
            "time": 31.363605,
            "velocity": 0.3937007874015748
          },
          {
            "duration": 0.13636349999999808,
            "durationTicks": 96,
            "midi": 0,
            "name": "C-1",
            "ticks": 22176,
            "time": 31.4999685,
            "velocity": 0.3937007874015748
          },
          {
            "duration": 0.13636350000000164,
            "durationTicks": 96,
            "midi": 0,
            "name": "C-1",
            "ticks": 22272,
            "time": 31.636332,
            "velocity": 0.3937007874015748
          },
          {
            "duration": 0.13636350000000164,
            "durationTicks": 96,
            "midi": 0,
            "name": "C-1",
            "ticks": 22272,
            "time": 31.636332,
            "velocity": 0.3937007874015748
          },
          {
            "duration": 0.13636349999999808,
            "durationTicks": 96,
            "midi": 0,
            "name": "C-1",
            "ticks": 22368,
            "time": 31.7726955,
            "velocity": 0.3937007874015748
          },
          {
            "duration": 0.13636350000000164,
            "durationTicks": 96,
            "midi": 0,
            "name": "C-1",
            "ticks": 22464,
            "time": 31.909059,
            "velocity": 0.3937007874015748
          },
          {
            "duration": 0.13636350000000164,
            "durationTicks": 96,
            "midi": 0,
            "name": "C-1",
            "ticks": 22464,
            "time": 31.909059,
            "velocity": 0.3937007874015748
          },
          {
            "duration": 0.13636350000000164,
            "durationTicks": 96,
            "midi": 0,
            "name": "C-1",
            "ticks": 22560,
            "time": 32.0454225,
            "velocity": 0.3937007874015748
          },
          {
            "duration": 0.13636349999999453,
            "durationTicks": 96,
            "midi": 0,
            "name": "C-1",
            "ticks": 22656,
            "time": 32.181786,
            "velocity": 0.3937007874015748
          },
          {
            "duration": 0.13636349999999453,
            "durationTicks": 96,
            "midi": 0,
            "name": "C-1",
            "ticks": 22656,
            "time": 32.181786,
            "velocity": 0.3937007874015748
          },
          {
            "duration": 0.13636349999999453,
            "durationTicks": 96,
            "midi": 0,
            "name": "C-1",
            "ticks": 22656,
            "time": 32.181786,
            "velocity": 0.3937007874015748
          },
          {
            "duration": 0.13636349999999453,
            "durationTicks": 96,
            "midi": 0,
            "name": "C-1",
            "ticks": 22656,
            "time": 32.181786,
            "velocity": 0.3937007874015748
          },
          {
            "duration": 0.13636350000000164,
            "durationTicks": 96,
            "midi": 0,
            "name": "C-1",
            "ticks": 22752,
            "time": 32.3181495,
            "velocity": 0.3937007874015748
          },
          {
            "duration": 0.13636350000000164,
            "durationTicks": 96,
            "midi": 0,
            "name": "C-1",
            "ticks": 22848,
            "time": 32.454513,
            "velocity": 0.3937007874015748
          },
          {
            "duration": 0.13636350000000164,
            "durationTicks": 96,
            "midi": 0,
            "name": "C-1",
            "ticks": 22848,
            "time": 32.454513,
            "velocity": 0.3937007874015748
          },
          {
            "duration": 0.13636350000000164,
            "durationTicks": 96,
            "midi": 0,
            "name": "C-1",
            "ticks": 22944,
            "time": 32.5908765,
            "velocity": 0.3937007874015748
          },
          {
            "duration": 0.13636349999999453,
            "durationTicks": 96,
            "midi": 0,
            "name": "C-1",
            "ticks": 23040,
            "time": 32.72724,
            "velocity": 0.3937007874015748
          },
          {
            "duration": 0.13636349999999453,
            "durationTicks": 96,
            "midi": 0,
            "name": "C-1",
            "ticks": 23040,
            "time": 32.72724,
            "velocity": 0.3937007874015748
          },
          {
            "duration": 0.13636350000000164,
            "durationTicks": 96,
            "midi": 0,
            "name": "C-1",
            "ticks": 23136,
            "time": 32.863603499999996,
            "velocity": 0.3937007874015748
          },
          {
            "duration": 0.13636350000000164,
            "durationTicks": 96,
            "midi": 0,
            "name": "C-1",
            "ticks": 23232,
            "time": 32.999967,
            "velocity": 0.3937007874015748
          },
          {
            "duration": 0.13636350000000164,
            "durationTicks": 96,
            "midi": 0,
            "name": "C-1",
            "ticks": 23232,
            "time": 32.999967,
            "velocity": 0.3937007874015748
          },
          {
            "duration": 0.13636350000000164,
            "durationTicks": 96,
            "midi": 0,
            "name": "C-1",
            "ticks": 23328,
            "time": 33.1363305,
            "velocity": 0.3937007874015748
          },
          {
            "duration": 0.13636350000000164,
            "durationTicks": 96,
            "midi": 0,
            "name": "C-1",
            "ticks": 23424,
            "time": 33.272694,
            "velocity": 0.3937007874015748
          },
          {
            "duration": 0.13636350000000164,
            "durationTicks": 96,
            "midi": 0,
            "name": "C-1",
            "ticks": 23424,
            "time": 33.272694,
            "velocity": 0.3937007874015748
          },
          {
            "duration": 0.13636350000000164,
            "durationTicks": 96,
            "midi": 0,
            "name": "C-1",
            "ticks": 23424,
            "time": 33.272694,
            "velocity": 0.3937007874015748
          },
          {
            "duration": 0.13636350000000164,
            "durationTicks": 96,
            "midi": 0,
            "name": "C-1",
            "ticks": 23424,
            "time": 33.272694,
            "velocity": 0.3937007874015748
          },
          {
            "duration": 0.13636349999999453,
            "durationTicks": 96,
            "midi": 0,
            "name": "C-1",
            "ticks": 23520,
            "time": 33.4090575,
            "velocity": 0.3937007874015748
          },
          {
            "duration": 0.13636350000000164,
            "durationTicks": 96,
            "midi": 0,
            "name": "C-1",
            "ticks": 23616,
            "time": 33.545421,
            "velocity": 0.3937007874015748
          },
          {
            "duration": 0.13636350000000164,
            "durationTicks": 96,
            "midi": 0,
            "name": "C-1",
            "ticks": 23616,
            "time": 33.545421,
            "velocity": 0.3937007874015748
          },
          {
            "duration": 0.13636350000000164,
            "durationTicks": 96,
            "midi": 0,
            "name": "C-1",
            "ticks": 23712,
            "time": 33.6817845,
            "velocity": 0.3937007874015748
          },
          {
            "duration": 0.13636350000000164,
            "durationTicks": 96,
            "midi": 0,
            "name": "C-1",
            "ticks": 23808,
            "time": 33.818148,
            "velocity": 0.3937007874015748
          },
          {
            "duration": 0.13636350000000164,
            "durationTicks": 96,
            "midi": 0,
            "name": "C-1",
            "ticks": 23808,
            "time": 33.818148,
            "velocity": 0.3937007874015748
          },
          {
            "duration": 0.13636349999999453,
            "durationTicks": 96,
            "midi": 0,
            "name": "C-1",
            "ticks": 23904,
            "time": 33.9545115,
            "velocity": 0.3937007874015748
          },
          {
            "duration": 0.13636350000000164,
            "durationTicks": 96,
            "midi": 0,
            "name": "C-1",
            "ticks": 24000,
            "time": 34.090875,
            "velocity": 0.3937007874015748
          },
          {
            "duration": 0.13636350000000164,
            "durationTicks": 96,
            "midi": 0,
            "name": "C-1",
            "ticks": 24000,
            "time": 34.090875,
            "velocity": 0.3937007874015748
          },
          {
            "duration": 0.13636350000000164,
            "durationTicks": 96,
            "midi": 0,
            "name": "C-1",
            "ticks": 24096,
            "time": 34.2272385,
            "velocity": 0.3937007874015748
          },
          {
            "duration": 0.13636350000000164,
            "durationTicks": 96,
            "midi": 0,
            "name": "C-1",
            "ticks": 24192,
            "time": 34.363602,
            "velocity": 0.3937007874015748
          },
          {
            "duration": 0.13636350000000164,
            "durationTicks": 96,
            "midi": 0,
            "name": "C-1",
            "ticks": 24192,
            "time": 34.363602,
            "velocity": 0.3937007874015748
          },
          {
            "duration": 0.13636350000000164,
            "durationTicks": 96,
            "midi": 0,
            "name": "C-1",
            "ticks": 24192,
            "time": 34.363602,
            "velocity": 0.3937007874015748
          },
          {
            "duration": 0.13636350000000164,
            "durationTicks": 96,
            "midi": 0,
            "name": "C-1",
            "ticks": 24192,
            "time": 34.363602,
            "velocity": 0.3937007874015748
          },
          {
            "duration": 0.13636349999999453,
            "durationTicks": 96,
            "midi": 0,
            "name": "C-1",
            "ticks": 24288,
            "time": 34.4999655,
            "velocity": 0.3937007874015748
          },
          {
            "duration": 0.13636350000000164,
            "durationTicks": 96,
            "midi": 0,
            "name": "C-1",
            "ticks": 24384,
            "time": 34.636328999999996,
            "velocity": 0.3937007874015748
          },
          {
            "duration": 0.13636350000000164,
            "durationTicks": 96,
            "midi": 0,
            "name": "C-1",
            "ticks": 24384,
            "time": 34.636328999999996,
            "velocity": 0.3937007874015748
          },
          {
            "duration": 0.13636350000000164,
            "durationTicks": 96,
            "midi": 0,
            "name": "C-1",
            "ticks": 24480,
            "time": 34.7726925,
            "velocity": 0.3937007874015748
          },
          {
            "duration": 0.13636350000000164,
            "durationTicks": 96,
            "midi": 0,
            "name": "C-1",
            "ticks": 24576,
            "time": 34.909056,
            "velocity": 0.3937007874015748
          },
          {
            "duration": 0.13636350000000164,
            "durationTicks": 96,
            "midi": 0,
            "name": "C-1",
            "ticks": 24576,
            "time": 34.909056,
            "velocity": 0.3937007874015748
          },
          {
            "duration": 0.13636349999999453,
            "durationTicks": 96,
            "midi": 0,
            "name": "C-1",
            "ticks": 24768,
            "time": 35.181783,
            "velocity": 0.3937007874015748
          },
          {
            "duration": 0.13636349999999453,
            "durationTicks": 96,
            "midi": 0,
            "name": "C-1",
            "ticks": 24768,
            "time": 35.181783,
            "velocity": 0.3937007874015748
          },
          {
            "duration": 0.13636350000000164,
            "durationTicks": 96,
            "midi": 0,
            "name": "C-1",
            "ticks": 24864,
            "time": 35.3181465,
            "velocity": 0.3937007874015748
          },
          {
            "duration": 0.13636350000000164,
            "durationTicks": 96,
            "midi": 0,
            "name": "C-1",
            "ticks": 24960,
            "time": 35.45451,
            "velocity": 0.3937007874015748
          },
          {
            "duration": 0.13636350000000164,
            "durationTicks": 96,
            "midi": 0,
            "name": "C-1",
            "ticks": 24960,
            "time": 35.45451,
            "velocity": 0.3937007874015748
          },
          {
            "duration": 0.13636349999999453,
            "durationTicks": 96,
            "midi": 0,
            "name": "C-1",
            "ticks": 25152,
            "time": 35.727237,
            "velocity": 0.3937007874015748
          },
          {
            "duration": 0.13636349999999453,
            "durationTicks": 96,
            "midi": 0,
            "name": "C-1",
            "ticks": 25152,
            "time": 35.727237,
            "velocity": 0.3937007874015748
          },
          {
            "duration": 0.13636350000000164,
            "durationTicks": 96,
            "midi": 0,
            "name": "C-1",
            "ticks": 25248,
            "time": 35.8636005,
            "velocity": 0.3937007874015748
          },
          {
            "duration": 0.13636350000000164,
            "durationTicks": 96,
            "midi": 0,
            "name": "C-1",
            "ticks": 25344,
            "time": 35.999964,
            "velocity": 0.3937007874015748
          },
          {
            "duration": 0.13636350000000164,
            "durationTicks": 96,
            "midi": 0,
            "name": "C-1",
            "ticks": 25344,
            "time": 35.999964,
            "velocity": 0.3937007874015748
          },
          {
            "duration": 0.13636349999999453,
            "durationTicks": 96,
            "midi": 0,
            "name": "C-1",
            "ticks": 25536,
            "time": 36.272691,
            "velocity": 0.3937007874015748
          },
          {
            "duration": 0.13636349999999453,
            "durationTicks": 96,
            "midi": 0,
            "name": "C-1",
            "ticks": 25536,
            "time": 36.272691,
            "velocity": 0.3937007874015748
          },
          {
            "duration": 0.13636349999999453,
            "durationTicks": 96,
            "midi": 0,
            "name": "C-1",
            "ticks": 25536,
            "time": 36.272691,
            "velocity": 0.3937007874015748
          },
          {
            "duration": 0.13636350000000164,
            "durationTicks": 96,
            "midi": 0,
            "name": "C-1",
            "ticks": 25632,
            "time": 36.409054499999996,
            "velocity": 0.3937007874015748
          },
          {
            "duration": 0.13636350000000164,
            "durationTicks": 96,
            "midi": 0,
            "name": "C-1",
            "ticks": 25728,
            "time": 36.545418,
            "velocity": 0.3937007874015748
          },
          {
            "duration": 0.13636350000000164,
            "durationTicks": 96,
            "midi": 0,
            "name": "C-1",
            "ticks": 25728,
            "time": 36.545418,
            "velocity": 0.3937007874015748
          },
          {
            "duration": 0.13636350000000164,
            "durationTicks": 96,
            "midi": 0,
            "name": "C-1",
            "ticks": 25920,
            "time": 36.818145,
            "velocity": 0.3937007874015748
          },
          {
            "duration": 0.13636350000000164,
            "durationTicks": 96,
            "midi": 0,
            "name": "C-1",
            "ticks": 25920,
            "time": 36.818145,
            "velocity": 0.3937007874015748
          },
          {
            "duration": 0.13636349999999453,
            "durationTicks": 96,
            "midi": 0,
            "name": "C-1",
            "ticks": 26016,
            "time": 36.9545085,
            "velocity": 0.3937007874015748
          },
          {
            "duration": 0.13636349999999453,
            "durationTicks": 96,
            "midi": 0,
            "name": "C-1",
            "ticks": 26016,
            "time": 36.9545085,
            "velocity": 0.3937007874015748
          },
          {
            "duration": 0.13636350000000164,
            "durationTicks": 96,
            "midi": 0,
            "name": "C-1",
            "ticks": 26112,
            "time": 37.090872,
            "velocity": 0.3937007874015748
          },
          {
            "duration": 0.13636350000000164,
            "durationTicks": 96,
            "midi": 0,
            "name": "C-1",
            "ticks": 26112,
            "time": 37.090872,
            "velocity": 0.3937007874015748
          },
          {
            "duration": 0.13636350000000164,
            "durationTicks": 96,
            "midi": 0,
            "name": "C-1",
            "ticks": 26304,
            "time": 37.363599,
            "velocity": 0.3937007874015748
          },
          {
            "duration": 0.13636350000000164,
            "durationTicks": 96,
            "midi": 0,
            "name": "C-1",
            "ticks": 26304,
            "time": 37.363599,
            "velocity": 0.3937007874015748
          },
          {
            "duration": 0.13636349999999453,
            "durationTicks": 96,
            "midi": 0,
            "name": "C-1",
            "ticks": 26400,
            "time": 37.4999625,
            "velocity": 0.3937007874015748
          },
          {
            "duration": 0.13636350000000164,
            "durationTicks": 96,
            "midi": 0,
            "name": "C-1",
            "ticks": 26496,
            "time": 37.636326,
            "velocity": 0.3937007874015748
          },
          {
            "duration": 0.13636350000000164,
            "durationTicks": 96,
            "midi": 0,
            "name": "C-1",
            "ticks": 26496,
            "time": 37.636326,
            "velocity": 0.3937007874015748
          },
          {
            "duration": 0.13636350000000164,
            "durationTicks": 96,
            "midi": 0,
            "name": "C-1",
            "ticks": 26688,
            "time": 37.909053,
            "velocity": 0.3937007874015748
          },
          {
            "duration": 0.13636350000000164,
            "durationTicks": 96,
            "midi": 0,
            "name": "C-1",
            "ticks": 26688,
            "time": 37.909053,
            "velocity": 0.3937007874015748
          },
          {
            "duration": 0.13636350000000164,
            "durationTicks": 96,
            "midi": 0,
            "name": "C-1",
            "ticks": 26688,
            "time": 37.909053,
            "velocity": 0.3937007874015748
          },
          {
            "duration": 0.13636349999999453,
            "durationTicks": 96,
            "midi": 0,
            "name": "C-1",
            "ticks": 26784,
            "time": 38.0454165,
            "velocity": 0.3937007874015748
          },
          {
            "duration": 0.13636349999999453,
            "durationTicks": 96,
            "midi": 0,
            "name": "C-1",
            "ticks": 26784,
            "time": 38.0454165,
            "velocity": 0.3937007874015748
          },
          {
            "duration": 0.13636350000000164,
            "durationTicks": 96,
            "midi": 0,
            "name": "C-1",
            "ticks": 26880,
            "time": 38.181779999999996,
            "velocity": 0.3937007874015748
          },
          {
            "duration": 0.13636350000000164,
            "durationTicks": 96,
            "midi": 0,
            "name": "C-1",
            "ticks": 26880,
            "time": 38.181779999999996,
            "velocity": 0.3937007874015748
          },
          {
            "duration": 0.13636350000000164,
            "durationTicks": 96,
            "midi": 0,
            "name": "C-1",
            "ticks": 27072,
            "time": 38.454507,
            "velocity": 0.3937007874015748
          },
          {
            "duration": 0.13636350000000164,
            "durationTicks": 96,
            "midi": 0,
            "name": "C-1",
            "ticks": 27072,
            "time": 38.454507,
            "velocity": 0.3937007874015748
          },
          {
            "duration": 0.13636350000000164,
            "durationTicks": 96,
            "midi": 0,
            "name": "C-1",
            "ticks": 27072,
            "time": 38.454507,
            "velocity": 0.3937007874015748
          },
          {
            "duration": 0.13636350000000164,
            "durationTicks": 96,
            "midi": 0,
            "name": "C-1",
            "ticks": 27168,
            "time": 38.5908705,
            "velocity": 0.3937007874015748
          },
          {
            "duration": 0.13636349999999453,
            "durationTicks": 96,
            "midi": 0,
            "name": "C-1",
            "ticks": 27264,
            "time": 38.727234,
            "velocity": 0.3937007874015748
          },
          {
            "duration": 0.13636349999999453,
            "durationTicks": 96,
            "midi": 0,
            "name": "C-1",
            "ticks": 27264,
            "time": 38.727234,
            "velocity": 0.3937007874015748
          },
          {
            "duration": 0.13636350000000164,
            "durationTicks": 96,
            "midi": 0,
            "name": "C-1",
            "ticks": 27360,
            "time": 38.8635975,
            "velocity": 0.3937007874015748
          },
          {
            "duration": 0.13636350000000164,
            "durationTicks": 96,
            "midi": 0,
            "name": "C-1",
            "ticks": 27456,
            "time": 38.999961,
            "velocity": 0.3937007874015748
          },
          {
            "duration": 0.13636350000000164,
            "durationTicks": 96,
            "midi": 0,
            "name": "C-1",
            "ticks": 27456,
            "time": 38.999961,
            "velocity": 0.3937007874015748
          },
          {
            "duration": 0.13636350000000164,
            "durationTicks": 96,
            "midi": 0,
            "name": "C-1",
            "ticks": 27552,
            "time": 39.1363245,
            "velocity": 0.3937007874015748
          },
          {
            "duration": 0.13636350000000164,
            "durationTicks": 96,
            "midi": 0,
            "name": "C-1",
            "ticks": 27552,
            "time": 39.1363245,
            "velocity": 0.3937007874015748
          },
          {
            "duration": 0.13636349999999453,
            "durationTicks": 96,
            "midi": 0,
            "name": "C-1",
            "ticks": 27648,
            "time": 39.272688,
            "velocity": 0.3937007874015748
          },
          {
            "duration": 0.13636349999999453,
            "durationTicks": 96,
            "midi": 0,
            "name": "C-1",
            "ticks": 27648,
            "time": 39.272688,
            "velocity": 0.3937007874015748
          },
          {
            "duration": 0.13636350000000164,
            "durationTicks": 96,
            "midi": 0,
            "name": "C-1",
            "ticks": 27840,
            "time": 39.545415,
            "velocity": 0.3937007874015748
          },
          {
            "duration": 0.13636350000000164,
            "durationTicks": 96,
            "midi": 0,
            "name": "C-1",
            "ticks": 27840,
            "time": 39.545415,
            "velocity": 0.3937007874015748
          },
          {
            "duration": 0.13636350000000164,
            "durationTicks": 96,
            "midi": 0,
            "name": "C-1",
            "ticks": 27936,
            "time": 39.6817785,
            "velocity": 0.3937007874015748
          },
          {
            "duration": 0.13636349999999453,
            "durationTicks": 96,
            "midi": 0,
            "name": "C-1",
            "ticks": 28032,
            "time": 39.818142,
            "velocity": 0.3937007874015748
          },
          {
            "duration": 0.13636349999999453,
            "durationTicks": 96,
            "midi": 0,
            "name": "C-1",
            "ticks": 28032,
            "time": 39.818142,
            "velocity": 0.3937007874015748
          },
          {
            "duration": 0.13636350000000164,
            "durationTicks": 96,
            "midi": 0,
            "name": "C-1",
            "ticks": 28224,
            "time": 40.090869,
            "velocity": 0.3937007874015748
          },
          {
            "duration": 0.13636350000000164,
            "durationTicks": 96,
            "midi": 0,
            "name": "C-1",
            "ticks": 28224,
            "time": 40.090869,
            "velocity": 0.3937007874015748
          },
          {
            "duration": 0.13636350000000164,
            "durationTicks": 96,
            "midi": 0,
            "name": "C-1",
            "ticks": 28320,
            "time": 40.2272325,
            "velocity": 0.3937007874015748
          },
          {
            "duration": 0.13636350000000164,
            "durationTicks": 96,
            "midi": 0,
            "name": "C-1",
            "ticks": 28416,
            "time": 40.363596,
            "velocity": 0.3937007874015748
          },
          {
            "duration": 0.13636350000000164,
            "durationTicks": 96,
            "midi": 0,
            "name": "C-1",
            "ticks": 28416,
            "time": 40.363596,
            "velocity": 0.3937007874015748
          },
          {
            "duration": 0.13636350000000164,
            "durationTicks": 96,
            "midi": 0,
            "name": "C-1",
            "ticks": 28608,
            "time": 40.636323,
            "velocity": 0.3937007874015748
          },
          {
            "duration": 0.13636350000000164,
            "durationTicks": 96,
            "midi": 0,
            "name": "C-1",
            "ticks": 28608,
            "time": 40.636323,
            "velocity": 0.3937007874015748
          },
          {
            "duration": 0.13636350000000164,
            "durationTicks": 96,
            "midi": 0,
            "name": "C-1",
            "ticks": 28608,
            "time": 40.636323,
            "velocity": 0.3937007874015748
          },
          {
            "duration": 0.13636350000000164,
            "durationTicks": 96,
            "midi": 0,
            "name": "C-1",
            "ticks": 28704,
            "time": 40.7726865,
            "velocity": 0.3937007874015748
          },
          {
            "duration": 0.13636350000000164,
            "durationTicks": 96,
            "midi": 0,
            "name": "C-1",
            "ticks": 28800,
            "time": 40.90905,
            "velocity": 0.3937007874015748
          },
          {
            "duration": 0.13636350000000164,
            "durationTicks": 96,
            "midi": 0,
            "name": "C-1",
            "ticks": 28800,
            "time": 40.90905,
            "velocity": 0.3937007874015748
          },
          {
            "duration": 0.13636350000000164,
            "durationTicks": 96,
            "midi": 0,
            "name": "C-1",
            "ticks": 28992,
            "time": 41.181777,
            "velocity": 0.3937007874015748
          },
          {
            "duration": 0.13636350000000164,
            "durationTicks": 96,
            "midi": 0,
            "name": "C-1",
            "ticks": 28992,
            "time": 41.181777,
            "velocity": 0.3937007874015748
          },
          {
            "duration": 0.13636350000000164,
            "durationTicks": 96,
            "midi": 0,
            "name": "C-1",
            "ticks": 29088,
            "time": 41.3181405,
            "velocity": 0.3937007874015748
          },
          {
            "duration": 0.13636350000000164,
            "durationTicks": 96,
            "midi": 0,
            "name": "C-1",
            "ticks": 29088,
            "time": 41.3181405,
            "velocity": 0.3937007874015748
          },
          {
            "duration": 0.13636350000000164,
            "durationTicks": 96,
            "midi": 0,
            "name": "C-1",
            "ticks": 29184,
            "time": 41.454504,
            "velocity": 0.3937007874015748
          },
          {
            "duration": 0.13636350000000164,
            "durationTicks": 96,
            "midi": 0,
            "name": "C-1",
            "ticks": 29184,
            "time": 41.454504,
            "velocity": 0.3937007874015748
          },
          {
            "duration": 0.13636350000000164,
            "durationTicks": 96,
            "midi": 0,
            "name": "C-1",
            "ticks": 29376,
            "time": 41.727230999999996,
            "velocity": 0.3937007874015748
          },
          {
            "duration": 0.13636350000000164,
            "durationTicks": 96,
            "midi": 0,
            "name": "C-1",
            "ticks": 29376,
            "time": 41.727230999999996,
            "velocity": 0.3937007874015748
          },
          {
            "duration": 0.13636350000000164,
            "durationTicks": 96,
            "midi": 0,
            "name": "C-1",
            "ticks": 29472,
            "time": 41.8635945,
            "velocity": 0.3937007874015748
          },
          {
            "duration": 0.13636350000000164,
            "durationTicks": 96,
            "midi": 0,
            "name": "C-1",
            "ticks": 29568,
            "time": 41.999958,
            "velocity": 0.3937007874015748
          },
          {
            "duration": 0.13636350000000164,
            "durationTicks": 96,
            "midi": 0,
            "name": "C-1",
            "ticks": 29568,
            "time": 41.999958,
            "velocity": 0.3937007874015748
          },
          {
            "duration": 0.13636349999999453,
            "durationTicks": 96,
            "midi": 0,
            "name": "C-1",
            "ticks": 29760,
            "time": 42.272685,
            "velocity": 0.3937007874015748
          },
          {
            "duration": 0.13636349999999453,
            "durationTicks": 96,
            "midi": 0,
            "name": "C-1",
            "ticks": 29760,
            "time": 42.272685,
            "velocity": 0.3937007874015748
          },
          {
            "duration": 0.13636349999999453,
            "durationTicks": 96,
            "midi": 0,
            "name": "C-1",
            "ticks": 29760,
            "time": 42.272685,
            "velocity": 0.3937007874015748
          },
          {
            "duration": 0.13636350000000164,
            "durationTicks": 96,
            "midi": 0,
            "name": "C-1",
            "ticks": 29856,
            "time": 42.4090485,
            "velocity": 0.3937007874015748
          },
          {
            "duration": 0.13636350000000164,
            "durationTicks": 96,
            "midi": 0,
            "name": "C-1",
            "ticks": 29856,
            "time": 42.4090485,
            "velocity": 0.3937007874015748
          },
          {
            "duration": 0.13636350000000164,
            "durationTicks": 96,
            "midi": 0,
            "name": "C-1",
            "ticks": 29952,
            "time": 42.545412,
            "velocity": 0.3937007874015748
          },
          {
            "duration": 0.13636350000000164,
            "durationTicks": 96,
            "midi": 0,
            "name": "C-1",
            "ticks": 29952,
            "time": 42.545412,
            "velocity": 0.3937007874015748
          },
          {
            "duration": 0.13636350000000164,
            "durationTicks": 96,
            "midi": 0,
            "name": "C-1",
            "ticks": 30048,
            "time": 42.6817755,
            "velocity": 0.3937007874015748
          },
          {
            "duration": 0.13636349999999453,
            "durationTicks": 96,
            "midi": 0,
            "name": "C-1",
            "ticks": 30144,
            "time": 42.818139,
            "velocity": 0.3937007874015748
          },
          {
            "duration": 0.13636349999999453,
            "durationTicks": 96,
            "midi": 0,
            "name": "C-1",
            "ticks": 30144,
            "time": 42.818139,
            "velocity": 0.3937007874015748
          },
          {
            "duration": 0.13636349999999453,
            "durationTicks": 96,
            "midi": 0,
            "name": "C-1",
            "ticks": 30144,
            "time": 42.818139,
            "velocity": 0.3937007874015748
          },
          {
            "duration": 0.13636350000000164,
            "durationTicks": 96,
            "midi": 0,
            "name": "C-1",
            "ticks": 30240,
            "time": 42.9545025,
            "velocity": 0.3937007874015748
          },
          {
            "duration": 0.13636350000000164,
            "durationTicks": 96,
            "midi": 0,
            "name": "C-1",
            "ticks": 30240,
            "time": 42.9545025,
            "velocity": 0.3937007874015748
          },
          {
            "duration": 0.13636350000000164,
            "durationTicks": 96,
            "midi": 0,
            "name": "C-1",
            "ticks": 30336,
            "time": 43.090866,
            "velocity": 0.3937007874015748
          },
          {
            "duration": 0.13636350000000164,
            "durationTicks": 96,
            "midi": 0,
            "name": "C-1",
            "ticks": 30336,
            "time": 43.090866,
            "velocity": 0.3937007874015748
          },
          {
            "duration": 0.13636350000000164,
            "durationTicks": 96,
            "midi": 0,
            "name": "C-1",
            "ticks": 30432,
            "time": 43.2272295,
            "velocity": 0.3937007874015748
          },
          {
            "duration": 0.13636349999999453,
            "durationTicks": 96,
            "midi": 0,
            "name": "C-1",
            "ticks": 30528,
            "time": 43.363593,
            "velocity": 0.3937007874015748
          },
          {
            "duration": 0.13636349999999453,
            "durationTicks": 96,
            "midi": 0,
            "name": "C-1",
            "ticks": 30528,
            "time": 43.363593,
            "velocity": 0.3937007874015748
          },
          {
            "duration": 0.13636349999999453,
            "durationTicks": 96,
            "midi": 0,
            "name": "C-1",
            "ticks": 30528,
            "time": 43.363593,
            "velocity": 0.3937007874015748
          },
          {
            "duration": 0.13636350000000164,
            "durationTicks": 96,
            "midi": 0,
            "name": "C-1",
            "ticks": 30624,
            "time": 43.499956499999996,
            "velocity": 0.3937007874015748
          },
          {
            "duration": 0.13636350000000164,
            "durationTicks": 96,
            "midi": 0,
            "name": "C-1",
            "ticks": 30624,
            "time": 43.499956499999996,
            "velocity": 0.3937007874015748
          },
          {
            "duration": 0.13636350000000164,
            "durationTicks": 96,
            "midi": 0,
            "name": "C-1",
            "ticks": 30720,
            "time": 43.63632,
            "velocity": 0.3937007874015748
          },
          {
            "duration": 0.13636350000000164,
            "durationTicks": 96,
            "midi": 0,
            "name": "C-1",
            "ticks": 30720,
            "time": 43.63632,
            "velocity": 0.3937007874015748
          },
          {
            "duration": 0.13636350000000164,
            "durationTicks": 96,
            "midi": 0,
            "name": "C-1",
            "ticks": 30912,
            "time": 43.909047,
            "velocity": 0.3937007874015748
          },
          {
            "duration": 0.13636350000000164,
            "durationTicks": 96,
            "midi": 0,
            "name": "C-1",
            "ticks": 30912,
            "time": 43.909047,
            "velocity": 0.3937007874015748
          },
          {
            "duration": 0.13636349999999453,
            "durationTicks": 96,
            "midi": 0,
            "name": "C-1",
            "ticks": 31008,
            "time": 44.0454105,
            "velocity": 0.3937007874015748
          },
          {
            "duration": 0.13636350000000164,
            "durationTicks": 96,
            "midi": 0,
            "name": "C-1",
            "ticks": 31104,
            "time": 44.181774,
            "velocity": 0.3937007874015748
          },
          {
            "duration": 0.13636350000000164,
            "durationTicks": 96,
            "midi": 0,
            "name": "C-1",
            "ticks": 31104,
            "time": 44.181774,
            "velocity": 0.3937007874015748
          },
          {
            "duration": 0.13636350000000164,
            "durationTicks": 96,
            "midi": 0,
            "name": "C-1",
            "ticks": 31296,
            "time": 44.454501,
            "velocity": 0.3937007874015748
          },
          {
            "duration": 0.13636350000000164,
            "durationTicks": 96,
            "midi": 0,
            "name": "C-1",
            "ticks": 31296,
            "time": 44.454501,
            "velocity": 0.3937007874015748
          },
          {
            "duration": 0.13636349999999453,
            "durationTicks": 96,
            "midi": 0,
            "name": "C-1",
            "ticks": 31392,
            "time": 44.5908645,
            "velocity": 0.3937007874015748
          },
          {
            "duration": 0.13636350000000164,
            "durationTicks": 96,
            "midi": 0,
            "name": "C-1",
            "ticks": 31488,
            "time": 44.727228,
            "velocity": 0.3937007874015748
          },
          {
            "duration": 0.13636350000000164,
            "durationTicks": 96,
            "midi": 0,
            "name": "C-1",
            "ticks": 31488,
            "time": 44.727228,
            "velocity": 0.3937007874015748
          },
          {
            "duration": 0.13636350000000164,
            "durationTicks": 96,
            "midi": 0,
            "name": "C-1",
            "ticks": 31680,
            "time": 44.999955,
            "velocity": 0.3937007874015748
          },
          {
            "duration": 0.13636350000000164,
            "durationTicks": 96,
            "midi": 0,
            "name": "C-1",
            "ticks": 31680,
            "time": 44.999955,
            "velocity": 0.3937007874015748
          },
          {
            "duration": 0.13636350000000164,
            "durationTicks": 96,
            "midi": 0,
            "name": "C-1",
            "ticks": 31680,
            "time": 44.999955,
            "velocity": 0.3937007874015748
          },
          {
            "duration": 0.13636349999999453,
            "durationTicks": 96,
            "midi": 0,
            "name": "C-1",
            "ticks": 31776,
            "time": 45.1363185,
            "velocity": 0.3937007874015748
          },
          {
            "duration": 0.13636350000000164,
            "durationTicks": 96,
            "midi": 0,
            "name": "C-1",
            "ticks": 31872,
            "time": 45.272681999999996,
            "velocity": 0.3937007874015748
          },
          {
            "duration": 0.13636350000000164,
            "durationTicks": 96,
            "midi": 0,
            "name": "C-1",
            "ticks": 31872,
            "time": 45.272681999999996,
            "velocity": 0.3937007874015748
          },
          {
            "duration": 0.13636350000000164,
            "durationTicks": 96,
            "midi": 0,
            "name": "C-1",
            "ticks": 32064,
            "time": 45.545409,
            "velocity": 0.3937007874015748
          },
          {
            "duration": 0.13636350000000164,
            "durationTicks": 96,
            "midi": 0,
            "name": "C-1",
            "ticks": 32064,
            "time": 45.545409,
            "velocity": 0.3937007874015748
          },
          {
            "duration": 0.13636350000000164,
            "durationTicks": 96,
            "midi": 0,
            "name": "C-1",
            "ticks": 32160,
            "time": 45.6817725,
            "velocity": 0.3937007874015748
          },
          {
            "duration": 0.13636350000000164,
            "durationTicks": 96,
            "midi": 0,
            "name": "C-1",
            "ticks": 32160,
            "time": 45.6817725,
            "velocity": 0.3937007874015748
          },
          {
            "duration": 0.13636349999999453,
            "durationTicks": 96,
            "midi": 0,
            "name": "C-1",
            "ticks": 32256,
            "time": 45.818136,
            "velocity": 0.3937007874015748
          },
          {
            "duration": 0.13636349999999453,
            "durationTicks": 96,
            "midi": 0,
            "name": "C-1",
            "ticks": 32256,
            "time": 45.818136,
            "velocity": 0.3937007874015748
          },
          {
            "duration": 0.13636350000000164,
            "durationTicks": 96,
            "midi": 0,
            "name": "C-1",
            "ticks": 32448,
            "time": 46.090863,
            "velocity": 0.3937007874015748
          },
          {
            "duration": 0.13636350000000164,
            "durationTicks": 96,
            "midi": 0,
            "name": "C-1",
            "ticks": 32448,
            "time": 46.090863,
            "velocity": 0.3937007874015748
          },
          {
            "duration": 0.13636350000000164,
            "durationTicks": 96,
            "midi": 0,
            "name": "C-1",
            "ticks": 32544,
            "time": 46.2272265,
            "velocity": 0.3937007874015748
          },
          {
            "duration": 0.13636349999999453,
            "durationTicks": 96,
            "midi": 0,
            "name": "C-1",
            "ticks": 32640,
            "time": 46.36359,
            "velocity": 0.3937007874015748
          },
          {
            "duration": 0.13636349999999453,
            "durationTicks": 96,
            "midi": 0,
            "name": "C-1",
            "ticks": 32640,
            "time": 46.36359,
            "velocity": 0.3937007874015748
          },
          {
            "duration": 0.13636350000000164,
            "durationTicks": 96,
            "midi": 0,
            "name": "C-1",
            "ticks": 32832,
            "time": 46.636317,
            "velocity": 0.3937007874015748
          },
          {
            "duration": 0.13636350000000164,
            "durationTicks": 96,
            "midi": 0,
            "name": "C-1",
            "ticks": 32832,
            "time": 46.636317,
            "velocity": 0.3937007874015748
          },
          {
            "duration": 0.13636350000000164,
            "durationTicks": 96,
            "midi": 0,
            "name": "C-1",
            "ticks": 32832,
            "time": 46.636317,
            "velocity": 0.3937007874015748
          },
          {
            "duration": 0.13636350000000164,
            "durationTicks": 96,
            "midi": 0,
            "name": "C-1",
            "ticks": 32928,
            "time": 46.7726805,
            "velocity": 0.3937007874015748
          },
          {
            "duration": 0.13636350000000164,
            "durationTicks": 96,
            "midi": 0,
            "name": "C-1",
            "ticks": 32928,
            "time": 46.7726805,
            "velocity": 0.3937007874015748
          },
          {
            "duration": 0.13636349999999453,
            "durationTicks": 96,
            "midi": 0,
            "name": "C-1",
            "ticks": 33024,
            "time": 46.909044,
            "velocity": 0.3937007874015748
          },
          {
            "duration": 0.13636349999999453,
            "durationTicks": 96,
            "midi": 0,
            "name": "C-1",
            "ticks": 33024,
            "time": 46.909044,
            "velocity": 0.3937007874015748
          },
          {
            "duration": 0.13636350000000164,
            "durationTicks": 96,
            "midi": 0,
            "name": "C-1",
            "ticks": 33216,
            "time": 47.181771,
            "velocity": 0.3937007874015748
          },
          {
            "duration": 0.13636350000000164,
            "durationTicks": 96,
            "midi": 0,
            "name": "C-1",
            "ticks": 33216,
            "time": 47.181771,
            "velocity": 0.3937007874015748
          },
          {
            "duration": 0.13636350000000164,
            "durationTicks": 96,
            "midi": 0,
            "name": "C-1",
            "ticks": 33216,
            "time": 47.181771,
            "velocity": 0.3937007874015748
          },
          {
            "duration": 0.13636350000000164,
            "durationTicks": 96,
            "midi": 0,
            "name": "C-1",
            "ticks": 33312,
            "time": 47.3181345,
            "velocity": 0.3937007874015748
          },
          {
            "duration": 0.13636350000000164,
            "durationTicks": 96,
            "midi": 0,
            "name": "C-1",
            "ticks": 33408,
            "time": 47.454498,
            "velocity": 0.3937007874015748
          },
          {
            "duration": 0.13636350000000164,
            "durationTicks": 96,
            "midi": 0,
            "name": "C-1",
            "ticks": 33408,
            "time": 47.454498,
            "velocity": 0.3937007874015748
          },
          {
            "duration": 0.13636349999999453,
            "durationTicks": 96,
            "midi": 0,
            "name": "C-1",
            "ticks": 33504,
            "time": 47.5908615,
            "velocity": 0.3937007874015748
          },
          {
            "duration": 0.13636350000000164,
            "durationTicks": 96,
            "midi": 0,
            "name": "C-1",
            "ticks": 33600,
            "time": 47.727225,
            "velocity": 0.3937007874015748
          },
          {
            "duration": 0.13636350000000164,
            "durationTicks": 96,
            "midi": 0,
            "name": "C-1",
            "ticks": 33600,
            "time": 47.727225,
            "velocity": 0.3937007874015748
          },
          {
            "duration": 0.13636350000000164,
            "durationTicks": 96,
            "midi": 0,
            "name": "C-1",
            "ticks": 33696,
            "time": 47.8635885,
            "velocity": 0.3937007874015748
          },
          {
            "duration": 0.13636350000000164,
            "durationTicks": 96,
            "midi": 0,
            "name": "C-1",
            "ticks": 33696,
            "time": 47.8635885,
            "velocity": 0.3937007874015748
          },
          {
            "duration": 0.13636350000000164,
            "durationTicks": 96,
            "midi": 0,
            "name": "C-1",
            "ticks": 33792,
            "time": 47.999952,
            "velocity": 0.3937007874015748
          },
          {
            "duration": 0.13636350000000164,
            "durationTicks": 96,
            "midi": 0,
            "name": "C-1",
            "ticks": 33792,
            "time": 47.999952,
            "velocity": 0.3937007874015748
          },
          {
            "duration": 0.13636350000000164,
            "durationTicks": 96,
            "midi": 0,
            "name": "C-1",
            "ticks": 33984,
            "time": 48.272679,
            "velocity": 0.3937007874015748
          },
          {
            "duration": 0.13636350000000164,
            "durationTicks": 96,
            "midi": 0,
            "name": "C-1",
            "ticks": 33984,
            "time": 48.272679,
            "velocity": 0.3937007874015748
          },
          {
            "duration": 0.13636350000000164,
            "durationTicks": 96,
            "midi": 0,
            "name": "C-1",
            "ticks": 34080,
            "time": 48.4090425,
            "velocity": 0.3937007874015748
          },
          {
            "duration": 0.13636350000000164,
            "durationTicks": 96,
            "midi": 0,
            "name": "C-1",
            "ticks": 34176,
            "time": 48.545406,
            "velocity": 0.3937007874015748
          },
          {
            "duration": 0.13636350000000164,
            "durationTicks": 96,
            "midi": 0,
            "name": "C-1",
            "ticks": 34176,
            "time": 48.545406,
            "velocity": 0.3937007874015748
          },
          {
            "duration": 0.13636350000000164,
            "durationTicks": 96,
            "midi": 0,
            "name": "C-1",
            "ticks": 34368,
            "time": 48.818132999999996,
            "velocity": 0.3937007874015748
          },
          {
            "duration": 0.13636350000000164,
            "durationTicks": 96,
            "midi": 0,
            "name": "C-1",
            "ticks": 34368,
            "time": 48.818132999999996,
            "velocity": 0.3937007874015748
          },
          {
            "duration": 0.13636350000000164,
            "durationTicks": 96,
            "midi": 0,
            "name": "C-1",
            "ticks": 34464,
            "time": 48.9544965,
            "velocity": 0.3937007874015748
          },
          {
            "duration": 0.13636350000000164,
            "durationTicks": 96,
            "midi": 0,
            "name": "C-1",
            "ticks": 34560,
            "time": 49.09086,
            "velocity": 0.3937007874015748
          },
          {
            "duration": 0.13636350000000164,
            "durationTicks": 96,
            "midi": 0,
            "name": "C-1",
            "ticks": 34560,
            "time": 49.09086,
            "velocity": 0.3937007874015748
          },
          {
            "duration": 0.13636349999999453,
            "durationTicks": 96,
            "midi": 0,
            "name": "C-1",
            "ticks": 34752,
            "time": 49.363587,
            "velocity": 0.3937007874015748
          },
          {
            "duration": 0.13636349999999453,
            "durationTicks": 96,
            "midi": 0,
            "name": "C-1",
            "ticks": 34752,
            "time": 49.363587,
            "velocity": 0.3937007874015748
          },
          {
            "duration": 0.13636349999999453,
            "durationTicks": 96,
            "midi": 0,
            "name": "C-1",
            "ticks": 34752,
            "time": 49.363587,
            "velocity": 0.3937007874015748
          },
          {
            "duration": 0.13636350000000164,
            "durationTicks": 96,
            "midi": 0,
            "name": "C-1",
            "ticks": 34848,
            "time": 49.4999505,
            "velocity": 0.3937007874015748
          },
          {
            "duration": 0.13636350000000164,
            "durationTicks": 96,
            "midi": 0,
            "name": "C-1",
            "ticks": 34944,
            "time": 49.636314,
            "velocity": 0.3937007874015748
          },
          {
            "duration": 0.13636350000000164,
            "durationTicks": 96,
            "midi": 0,
            "name": "C-1",
            "ticks": 34944,
            "time": 49.636314,
            "velocity": 0.3937007874015748
          },
          {
            "duration": 0.13636349999999453,
            "durationTicks": 96,
            "midi": 0,
            "name": "C-1",
            "ticks": 35136,
            "time": 49.909041,
            "velocity": 0.3937007874015748
          },
          {
            "duration": 0.13636349999999453,
            "durationTicks": 96,
            "midi": 0,
            "name": "C-1",
            "ticks": 35136,
            "time": 49.909041,
            "velocity": 0.3937007874015748
          },
          {
            "duration": 0.13636350000000164,
            "durationTicks": 96,
            "midi": 0,
            "name": "C-1",
            "ticks": 35232,
            "time": 50.0454045,
            "velocity": 0.3937007874015748
          },
          {
            "duration": 0.13636350000000164,
            "durationTicks": 96,
            "midi": 0,
            "name": "C-1",
            "ticks": 35232,
            "time": 50.0454045,
            "velocity": 0.3937007874015748
          },
          {
            "duration": 0.13636350000000164,
            "durationTicks": 96,
            "midi": 0,
            "name": "C-1",
            "ticks": 35328,
            "time": 50.181768,
            "velocity": 0.3937007874015748
          },
          {
            "duration": 0.13636350000000164,
            "durationTicks": 96,
            "midi": 0,
            "name": "C-1",
            "ticks": 35328,
            "time": 50.181768,
            "velocity": 0.3937007874015748
          },
          {
            "duration": 0.13636349999999453,
            "durationTicks": 96,
            "midi": 0,
            "name": "C-1",
            "ticks": 35520,
            "time": 50.454495,
            "velocity": 0.3937007874015748
          },
          {
            "duration": 0.13636349999999453,
            "durationTicks": 96,
            "midi": 0,
            "name": "C-1",
            "ticks": 35520,
            "time": 50.454495,
            "velocity": 0.3937007874015748
          },
          {
            "duration": 0.13636350000000164,
            "durationTicks": 96,
            "midi": 0,
            "name": "C-1",
            "ticks": 35616,
            "time": 50.590858499999996,
            "velocity": 0.3937007874015748
          },
          {
            "duration": 0.13636350000000164,
            "durationTicks": 96,
            "midi": 0,
            "name": "C-1",
            "ticks": 35712,
            "time": 50.727222,
            "velocity": 0.3937007874015748
          },
          {
            "duration": 0.13636350000000164,
            "durationTicks": 96,
            "midi": 0,
            "name": "C-1",
            "ticks": 35712,
            "time": 50.727222,
            "velocity": 0.3937007874015748
          },
          {
            "duration": 0.13636350000000164,
            "durationTicks": 96,
            "midi": 0,
            "name": "C-1",
            "ticks": 35904,
            "time": 50.999949,
            "velocity": 0.3937007874015748
          },
          {
            "duration": 0.13636350000000164,
            "durationTicks": 96,
            "midi": 0,
            "name": "C-1",
            "ticks": 35904,
            "time": 50.999949,
            "velocity": 0.3937007874015748
          },
          {
            "duration": 0.13636350000000164,
            "durationTicks": 96,
            "midi": 0,
            "name": "C-1",
            "ticks": 35904,
            "time": 50.999949,
            "velocity": 0.3937007874015748
          },
          {
            "duration": 0.13636349999999453,
            "durationTicks": 96,
            "midi": 0,
            "name": "C-1",
            "ticks": 36000,
            "time": 51.1363125,
            "velocity": 0.3937007874015748
          },
          {
            "duration": 0.13636349999999453,
            "durationTicks": 96,
            "midi": 0,
            "name": "C-1",
            "ticks": 36000,
            "time": 51.1363125,
            "velocity": 0.3937007874015748
          },
          {
            "duration": 0.13636350000000164,
            "durationTicks": 96,
            "midi": 0,
            "name": "C-1",
            "ticks": 36096,
            "time": 51.272676,
            "velocity": 0.3937007874015748
          },
          {
            "duration": 0.13636350000000164,
            "durationTicks": 96,
            "midi": 0,
            "name": "C-1",
            "ticks": 36096,
            "time": 51.272676,
            "velocity": 0.3937007874015748
          },
          {
            "duration": 0.13636350000000164,
            "durationTicks": 96,
            "midi": 0,
            "name": "C-1",
            "ticks": 36192,
            "time": 51.4090395,
            "velocity": 0.3937007874015748
          },
          {
            "duration": 0.13636350000000164,
            "durationTicks": 96,
            "midi": 0,
            "name": "C-1",
            "ticks": 36288,
            "time": 51.545403,
            "velocity": 0.3937007874015748
          },
          {
            "duration": 0.13636350000000164,
            "durationTicks": 96,
            "midi": 0,
            "name": "C-1",
            "ticks": 36288,
            "time": 51.545403,
            "velocity": 0.3937007874015748
          },
          {
            "duration": 0.13636350000000164,
            "durationTicks": 96,
            "midi": 0,
            "name": "C-1",
            "ticks": 36288,
            "time": 51.545403,
            "velocity": 0.3937007874015748
          },
          {
            "duration": 0.13636349999999453,
            "durationTicks": 96,
            "midi": 0,
            "name": "C-1",
            "ticks": 36384,
            "time": 51.6817665,
            "velocity": 0.3937007874015748
          },
          {
            "duration": 0.13636349999999453,
            "durationTicks": 96,
            "midi": 0,
            "name": "C-1",
            "ticks": 36384,
            "time": 51.6817665,
            "velocity": 0.3937007874015748
          },
          {
            "duration": 0.13636350000000164,
            "durationTicks": 96,
            "midi": 0,
            "name": "C-1",
            "ticks": 36480,
            "time": 51.81813,
            "velocity": 0.3937007874015748
          },
          {
            "duration": 0.13636350000000164,
            "durationTicks": 96,
            "midi": 0,
            "name": "C-1",
            "ticks": 36480,
            "time": 51.81813,
            "velocity": 0.3937007874015748
          },
          {
            "duration": 0.13636350000000164,
            "durationTicks": 96,
            "midi": 0,
            "name": "C-1",
            "ticks": 36576,
            "time": 51.9544935,
            "velocity": 0.3937007874015748
          },
          {
            "duration": 0.13636350000000164,
            "durationTicks": 96,
            "midi": 0,
            "name": "C-1",
            "ticks": 36672,
            "time": 52.090857,
            "velocity": 0.3937007874015748
          },
          {
            "duration": 0.13636350000000164,
            "durationTicks": 96,
            "midi": 0,
            "name": "C-1",
            "ticks": 36672,
            "time": 52.090857,
            "velocity": 0.3937007874015748
          },
          {
            "duration": 0.13636350000000164,
            "durationTicks": 96,
            "midi": 0,
            "name": "C-1",
            "ticks": 36672,
            "time": 52.090857,
            "velocity": 0.3937007874015748
          },
          {
            "duration": 0.13636350000000164,
            "durationTicks": 96,
            "midi": 0,
            "name": "C-1",
            "ticks": 36768,
            "time": 52.2272205,
            "velocity": 0.3937007874015748
          },
          {
            "duration": 0.13636350000000164,
            "durationTicks": 96,
            "midi": 0,
            "name": "C-1",
            "ticks": 36768,
            "time": 52.2272205,
            "velocity": 0.3937007874015748
          },
          {
            "duration": 0.13636349999999453,
            "durationTicks": 96,
            "midi": 0,
            "name": "C-1",
            "ticks": 36864,
            "time": 52.363584,
            "velocity": 0.3937007874015748
          },
          {
            "duration": 0.13636349999999453,
            "durationTicks": 96,
            "midi": 0,
            "name": "C-1",
            "ticks": 36864,
            "time": 52.363584,
            "velocity": 0.3937007874015748
          },
          {
            "duration": 0.13636350000000164,
            "durationTicks": 96,
            "midi": 0,
            "name": "C-1",
            "ticks": 37056,
            "time": 52.636311,
            "velocity": 0.3937007874015748
          },
          {
            "duration": 0.13636350000000164,
            "durationTicks": 96,
            "midi": 0,
            "name": "C-1",
            "ticks": 37056,
            "time": 52.636311,
            "velocity": 0.3937007874015748
          },
          {
            "duration": 0.13636350000000164,
            "durationTicks": 96,
            "midi": 0,
            "name": "C-1",
            "ticks": 37152,
            "time": 52.7726745,
            "velocity": 0.3937007874015748
          },
          {
            "duration": 0.13636349999999453,
            "durationTicks": 96,
            "midi": 0,
            "name": "C-1",
            "ticks": 37248,
            "time": 52.909038,
            "velocity": 0.3937007874015748
          },
          {
            "duration": 0.13636349999999453,
            "durationTicks": 96,
            "midi": 0,
            "name": "C-1",
            "ticks": 37248,
            "time": 52.909038,
            "velocity": 0.3937007874015748
          },
          {
            "duration": 0.13636350000000164,
            "durationTicks": 96,
            "midi": 0,
            "name": "C-1",
            "ticks": 37440,
            "time": 53.181765,
            "velocity": 0.3937007874015748
          },
          {
            "duration": 0.13636350000000164,
            "durationTicks": 96,
            "midi": 0,
            "name": "C-1",
            "ticks": 37440,
            "time": 53.181765,
            "velocity": 0.3937007874015748
          },
          {
            "duration": 0.13636350000000164,
            "durationTicks": 96,
            "midi": 0,
            "name": "C-1",
            "ticks": 37536,
            "time": 53.3181285,
            "velocity": 0.3937007874015748
          },
          {
            "duration": 0.13636349999999453,
            "durationTicks": 96,
            "midi": 0,
            "name": "C-1",
            "ticks": 37632,
            "time": 53.454492,
            "velocity": 0.3937007874015748
          },
          {
            "duration": 0.13636349999999453,
            "durationTicks": 96,
            "midi": 0,
            "name": "C-1",
            "ticks": 37632,
            "time": 53.454492,
            "velocity": 0.3937007874015748
          },
          {
            "duration": 0.13636350000000164,
            "durationTicks": 96,
            "midi": 0,
            "name": "C-1",
            "ticks": 37824,
            "time": 53.727219,
            "velocity": 0.3937007874015748
          },
          {
            "duration": 0.13636350000000164,
            "durationTicks": 96,
            "midi": 0,
            "name": "C-1",
            "ticks": 37824,
            "time": 53.727219,
            "velocity": 0.3937007874015748
          },
          {
            "duration": 0.13636350000000164,
            "durationTicks": 96,
            "midi": 0,
            "name": "C-1",
            "ticks": 37824,
            "time": 53.727219,
            "velocity": 0.3937007874015748
          },
          {
            "duration": 0.13636350000000164,
            "durationTicks": 96,
            "midi": 0,
            "name": "C-1",
            "ticks": 37920,
            "time": 53.8635825,
            "velocity": 0.3937007874015748
          },
          {
            "duration": 0.13636350000000164,
            "durationTicks": 96,
            "midi": 0,
            "name": "C-1",
            "ticks": 38016,
            "time": 53.999946,
            "velocity": 0.3937007874015748
          },
          {
            "duration": 0.13636350000000164,
            "durationTicks": 96,
            "midi": 0,
            "name": "C-1",
            "ticks": 38016,
            "time": 53.999946,
            "velocity": 0.3937007874015748
          },
          {
            "duration": 0.13636350000000164,
            "durationTicks": 96,
            "midi": 0,
            "name": "C-1",
            "ticks": 38208,
            "time": 54.272673,
            "velocity": 0.3937007874015748
          },
          {
            "duration": 0.13636350000000164,
            "durationTicks": 96,
            "midi": 0,
            "name": "C-1",
            "ticks": 38208,
            "time": 54.272673,
            "velocity": 0.3937007874015748
          },
          {
            "duration": 0.13636350000000164,
            "durationTicks": 96,
            "midi": 0,
            "name": "C-1",
            "ticks": 38304,
            "time": 54.4090365,
            "velocity": 0.3937007874015748
          },
          {
            "duration": 0.13636350000000164,
            "durationTicks": 96,
            "midi": 0,
            "name": "C-1",
            "ticks": 38304,
            "time": 54.4090365,
            "velocity": 0.3937007874015748
          },
          {
            "duration": 0.13636350000000164,
            "durationTicks": 96,
            "midi": 0,
            "name": "C-1",
            "ticks": 38400,
            "time": 54.5454,
            "velocity": 0.3937007874015748
          },
          {
            "duration": 0.13636350000000164,
            "durationTicks": 96,
            "midi": 0,
            "name": "C-1",
            "ticks": 38400,
            "time": 54.5454,
            "velocity": 0.3937007874015748
          },
          {
            "duration": 0.13636350000000164,
            "durationTicks": 96,
            "midi": 0,
            "name": "C-1",
            "ticks": 38592,
            "time": 54.818127,
            "velocity": 0.3937007874015748
          },
          {
            "duration": 0.13636350000000164,
            "durationTicks": 96,
            "midi": 0,
            "name": "C-1",
            "ticks": 38592,
            "time": 54.818127,
            "velocity": 0.3937007874015748
          },
          {
            "duration": 0.13636350000000164,
            "durationTicks": 96,
            "midi": 0,
            "name": "C-1",
            "ticks": 38688,
            "time": 54.9544905,
            "velocity": 0.3937007874015748
          },
          {
            "duration": 0.13636350000000164,
            "durationTicks": 96,
            "midi": 0,
            "name": "C-1",
            "ticks": 38784,
            "time": 55.090854,
            "velocity": 0.3937007874015748
          },
          {
            "duration": 0.13636350000000164,
            "durationTicks": 96,
            "midi": 0,
            "name": "C-1",
            "ticks": 38784,
            "time": 55.090854,
            "velocity": 0.3937007874015748
          },
          {
            "duration": 0.13636350000000164,
            "durationTicks": 96,
            "midi": 0,
            "name": "C-1",
            "ticks": 38976,
            "time": 55.363580999999996,
            "velocity": 0.3937007874015748
          },
          {
            "duration": 0.13636350000000164,
            "durationTicks": 96,
            "midi": 0,
            "name": "C-1",
            "ticks": 38976,
            "time": 55.363580999999996,
            "velocity": 0.3937007874015748
          },
          {
            "duration": 0.13636350000000164,
            "durationTicks": 96,
            "midi": 0,
            "name": "C-1",
            "ticks": 38976,
            "time": 55.363580999999996,
            "velocity": 0.3937007874015748
          },
          {
            "duration": 0.13636350000000164,
            "durationTicks": 96,
            "midi": 0,
            "name": "C-1",
            "ticks": 39072,
            "time": 55.4999445,
            "velocity": 0.3937007874015748
          },
          {
            "duration": 0.13636350000000164,
            "durationTicks": 96,
            "midi": 0,
            "name": "C-1",
            "ticks": 39072,
            "time": 55.4999445,
            "velocity": 0.3937007874015748
          },
          {
            "duration": 0.13636350000000164,
            "durationTicks": 96,
            "midi": 0,
            "name": "C-1",
            "ticks": 39168,
            "time": 55.636308,
            "velocity": 0.3937007874015748
          },
          {
            "duration": 0.13636350000000164,
            "durationTicks": 96,
            "midi": 0,
            "name": "C-1",
            "ticks": 39168,
            "time": 55.636308,
            "velocity": 0.3937007874015748
          },
          {
            "duration": 0.13636349999999453,
            "durationTicks": 96,
            "midi": 0,
            "name": "C-1",
            "ticks": 39360,
            "time": 55.909035,
            "velocity": 0.3937007874015748
          },
          {
            "duration": 0.13636349999999453,
            "durationTicks": 96,
            "midi": 0,
            "name": "C-1",
            "ticks": 39360,
            "time": 55.909035,
            "velocity": 0.3937007874015748
          },
          {
            "duration": 0.13636349999999453,
            "durationTicks": 96,
            "midi": 0,
            "name": "C-1",
            "ticks": 39360,
            "time": 55.909035,
            "velocity": 0.3937007874015748
          },
          {
            "duration": 0.13636350000000164,
            "durationTicks": 96,
            "midi": 0,
            "name": "C-1",
            "ticks": 39456,
            "time": 56.0453985,
            "velocity": 0.3937007874015748
          },
          {
            "duration": 0.13636350000000164,
            "durationTicks": 96,
            "midi": 0,
            "name": "C-1",
            "ticks": 39552,
            "time": 56.181762,
            "velocity": 0.3937007874015748
          },
          {
            "duration": 0.13636350000000164,
            "durationTicks": 96,
            "midi": 0,
            "name": "C-1",
            "ticks": 39552,
            "time": 56.181762,
            "velocity": 0.3937007874015748
          },
          {
            "duration": 0.13636350000000164,
            "durationTicks": 96,
            "midi": 0,
            "name": "C-1",
            "ticks": 39648,
            "time": 56.3181255,
            "velocity": 0.3937007874015748
          },
          {
            "duration": 0.13636349999999453,
            "durationTicks": 96,
            "midi": 0,
            "name": "C-1",
            "ticks": 39744,
            "time": 56.454489,
            "velocity": 0.3937007874015748
          },
          {
            "duration": 0.13636349999999453,
            "durationTicks": 96,
            "midi": 0,
            "name": "C-1",
            "ticks": 39744,
            "time": 56.454489,
            "velocity": 0.3937007874015748
          },
          {
            "duration": 0.13636350000000164,
            "durationTicks": 96,
            "midi": 0,
            "name": "C-1",
            "ticks": 39840,
            "time": 56.5908525,
            "velocity": 0.3937007874015748
          },
          {
            "duration": 0.13636350000000164,
            "durationTicks": 96,
            "midi": 0,
            "name": "C-1",
            "ticks": 39840,
            "time": 56.5908525,
            "velocity": 0.3937007874015748
          },
          {
            "duration": 0.13636350000000164,
            "durationTicks": 96,
            "midi": 0,
            "name": "C-1",
            "ticks": 39936,
            "time": 56.727216,
            "velocity": 0.3937007874015748
          },
          {
            "duration": 0.13636350000000164,
            "durationTicks": 96,
            "midi": 0,
            "name": "C-1",
            "ticks": 39936,
            "time": 56.727216,
            "velocity": 0.3937007874015748
          },
          {
            "duration": 0.13636349999999453,
            "durationTicks": 96,
            "midi": 0,
            "name": "C-1",
            "ticks": 40128,
            "time": 56.999943,
            "velocity": 0.3937007874015748
          },
          {
            "duration": 0.13636349999999453,
            "durationTicks": 96,
            "midi": 0,
            "name": "C-1",
            "ticks": 40128,
            "time": 56.999943,
            "velocity": 0.3937007874015748
          },
          {
            "duration": 0.13636350000000164,
            "durationTicks": 96,
            "midi": 0,
            "name": "C-1",
            "ticks": 40224,
            "time": 57.136306499999996,
            "velocity": 0.3937007874015748
          },
          {
            "duration": 0.13636350000000164,
            "durationTicks": 96,
            "midi": 0,
            "name": "C-1",
            "ticks": 40320,
            "time": 57.27267,
            "velocity": 0.3937007874015748
          },
          {
            "duration": 0.13636350000000164,
            "durationTicks": 96,
            "midi": 0,
            "name": "C-1",
            "ticks": 40320,
            "time": 57.27267,
            "velocity": 0.3937007874015748
          },
          {
            "duration": 0.13636350000000164,
            "durationTicks": 96,
            "midi": 0,
            "name": "C-1",
            "ticks": 40512,
            "time": 57.545397,
            "velocity": 0.3937007874015748
          },
          {
            "duration": 0.13636350000000164,
            "durationTicks": 96,
            "midi": 0,
            "name": "C-1",
            "ticks": 40512,
            "time": 57.545397,
            "velocity": 0.3937007874015748
          },
          {
            "duration": 0.13636349999999453,
            "durationTicks": 96,
            "midi": 0,
            "name": "C-1",
            "ticks": 40608,
            "time": 57.6817605,
            "velocity": 0.3937007874015748
          },
          {
            "duration": 0.13636350000000164,
            "durationTicks": 96,
            "midi": 0,
            "name": "C-1",
            "ticks": 40704,
            "time": 57.818124,
            "velocity": 0.3937007874015748
          },
          {
            "duration": 0.13636350000000164,
            "durationTicks": 96,
            "midi": 0,
            "name": "C-1",
            "ticks": 40704,
            "time": 57.818124,
            "velocity": 0.3937007874015748
          },
          {
            "duration": 0.13636350000000164,
            "durationTicks": 96,
            "midi": 0,
            "name": "C-1",
            "ticks": 40896,
            "time": 58.090851,
            "velocity": 0.3937007874015748
          },
          {
            "duration": 0.13636350000000164,
            "durationTicks": 96,
            "midi": 0,
            "name": "C-1",
            "ticks": 40896,
            "time": 58.090851,
            "velocity": 0.3937007874015748
          },
          {
            "duration": 0.13636350000000164,
            "durationTicks": 96,
            "midi": 0,
            "name": "C-1",
            "ticks": 40896,
            "time": 58.090851,
            "velocity": 0.3937007874015748
          },
          {
            "duration": 0.13636349999999453,
            "durationTicks": 96,
            "midi": 0,
            "name": "C-1",
            "ticks": 40992,
            "time": 58.2272145,
            "velocity": 0.3937007874015748
          },
          {
            "duration": 0.13636350000000164,
            "durationTicks": 96,
            "midi": 0,
            "name": "C-1",
            "ticks": 41088,
            "time": 58.363578,
            "velocity": 0.3937007874015748
          },
          {
            "duration": 0.13636350000000164,
            "durationTicks": 96,
            "midi": 0,
            "name": "C-1",
            "ticks": 41088,
            "time": 58.363578,
            "velocity": 0.3937007874015748
          },
          {
            "duration": 0.13636350000000164,
            "durationTicks": 96,
            "midi": 0,
            "name": "C-1",
            "ticks": 41280,
            "time": 58.636305,
            "velocity": 0.3937007874015748
          },
          {
            "duration": 0.13636350000000164,
            "durationTicks": 96,
            "midi": 0,
            "name": "C-1",
            "ticks": 41280,
            "time": 58.636305,
            "velocity": 0.3937007874015748
          },
          {
            "duration": 0.13636349999999453,
            "durationTicks": 96,
            "midi": 0,
            "name": "C-1",
            "ticks": 41376,
            "time": 58.7726685,
            "velocity": 0.3937007874015748
          },
          {
            "duration": 0.13636349999999453,
            "durationTicks": 96,
            "midi": 0,
            "name": "C-1",
            "ticks": 41376,
            "time": 58.7726685,
            "velocity": 0.3937007874015748
          },
          {
            "duration": 0.13636350000000164,
            "durationTicks": 96,
            "midi": 0,
            "name": "C-1",
            "ticks": 41472,
            "time": 58.909031999999996,
            "velocity": 0.3937007874015748
          },
          {
            "duration": 0.13636350000000164,
            "durationTicks": 96,
            "midi": 0,
            "name": "C-1",
            "ticks": 41472,
            "time": 58.909031999999996,
            "velocity": 0.3937007874015748
          },
          {
            "duration": 0.13636350000000164,
            "durationTicks": 96,
            "midi": 0,
            "name": "C-1",
            "ticks": 41664,
            "time": 59.181759,
            "velocity": 0.3937007874015748
          },
          {
            "duration": 0.13636350000000164,
            "durationTicks": 96,
            "midi": 0,
            "name": "C-1",
            "ticks": 41664,
            "time": 59.181759,
            "velocity": 0.3937007874015748
          },
          {
            "duration": 0.13636350000000164,
            "durationTicks": 96,
            "midi": 0,
            "name": "C-1",
            "ticks": 41760,
            "time": 59.3181225,
            "velocity": 0.3937007874015748
          },
          {
            "duration": 0.13636349999999453,
            "durationTicks": 96,
            "midi": 0,
            "name": "C-1",
            "ticks": 41856,
            "time": 59.454486,
            "velocity": 0.3937007874015748
          },
          {
            "duration": 0.13636349999999453,
            "durationTicks": 96,
            "midi": 0,
            "name": "C-1",
            "ticks": 41856,
            "time": 59.454486,
            "velocity": 0.3937007874015748
          },
          {
            "duration": 0.13636350000000164,
            "durationTicks": 96,
            "midi": 0,
            "name": "C-1",
            "ticks": 42048,
            "time": 59.727213,
            "velocity": 0.3937007874015748
          },
          {
            "duration": 0.13636350000000164,
            "durationTicks": 96,
            "midi": 0,
            "name": "C-1",
            "ticks": 42048,
            "time": 59.727213,
            "velocity": 0.3937007874015748
          },
          {
            "duration": 0.13636350000000164,
            "durationTicks": 96,
            "midi": 0,
            "name": "C-1",
            "ticks": 42048,
            "time": 59.727213,
            "velocity": 0.3937007874015748
          },
          {
            "duration": 0.13636350000000164,
            "durationTicks": 96,
            "midi": 0,
            "name": "C-1",
            "ticks": 42144,
            "time": 59.8635765,
            "velocity": 0.3937007874015748
          },
          {
            "duration": 0.13636350000000164,
            "durationTicks": 96,
            "midi": 0,
            "name": "C-1",
            "ticks": 42144,
            "time": 59.8635765,
            "velocity": 0.3937007874015748
          },
          {
            "duration": 0.13636349999999453,
            "durationTicks": 96,
            "midi": 0,
            "name": "C-1",
            "ticks": 42240,
            "time": 59.99994,
            "velocity": 0.3937007874015748
          },
          {
            "duration": 0.13636349999999453,
            "durationTicks": 96,
            "midi": 0,
            "name": "C-1",
            "ticks": 42240,
            "time": 59.99994,
            "velocity": 0.3937007874015748
          },
          {
            "duration": 0.13636350000000164,
            "durationTicks": 96,
            "midi": 0,
            "name": "C-1",
            "ticks": 42336,
            "time": 60.1363035,
            "velocity": 0.3937007874015748
          },
          {
            "duration": 0.13636350000000164,
            "durationTicks": 96,
            "midi": 0,
            "name": "C-1",
            "ticks": 42432,
            "time": 60.272667,
            "velocity": 0.3937007874015748
          },
          {
            "duration": 0.13636350000000164,
            "durationTicks": 96,
            "midi": 0,
            "name": "C-1",
            "ticks": 42432,
            "time": 60.272667,
            "velocity": 0.3937007874015748
          },
          {
            "duration": 0.13636350000000164,
            "durationTicks": 96,
            "midi": 0,
            "name": "C-1",
            "ticks": 42432,
            "time": 60.272667,
            "velocity": 0.3937007874015748
          },
          {
            "duration": 0.13636350000000164,
            "durationTicks": 96,
            "midi": 0,
            "name": "C-1",
            "ticks": 42528,
            "time": 60.4090305,
            "velocity": 0.3937007874015748
          },
          {
            "duration": 0.13636350000000164,
            "durationTicks": 96,
            "midi": 0,
            "name": "C-1",
            "ticks": 42528,
            "time": 60.4090305,
            "velocity": 0.3937007874015748
          },
          {
            "duration": 0.13636349999999453,
            "durationTicks": 96,
            "midi": 0,
            "name": "C-1",
            "ticks": 42624,
            "time": 60.545394,
            "velocity": 0.3937007874015748
          },
          {
            "duration": 0.13636349999999453,
            "durationTicks": 96,
            "midi": 0,
            "name": "C-1",
            "ticks": 42624,
            "time": 60.545394,
            "velocity": 0.3937007874015748
          },
          {
            "duration": 0.13636350000000164,
            "durationTicks": 96,
            "midi": 0,
            "name": "C-1",
            "ticks": 42720,
            "time": 60.681757499999996,
            "velocity": 0.3937007874015748
          },
          {
            "duration": 0.13636350000000164,
            "durationTicks": 96,
            "midi": 0,
            "name": "C-1",
            "ticks": 42816,
            "time": 60.818121,
            "velocity": 0.3937007874015748
          },
          {
            "duration": 0.13636350000000164,
            "durationTicks": 96,
            "midi": 0,
            "name": "C-1",
            "ticks": 42816,
            "time": 60.818121,
            "velocity": 0.3937007874015748
          },
          {
            "duration": 0.13636350000000164,
            "durationTicks": 96,
            "midi": 0,
            "name": "C-1",
            "ticks": 42816,
            "time": 60.818121,
            "velocity": 0.3937007874015748
          },
          {
            "duration": 0.13636350000000164,
            "durationTicks": 96,
            "midi": 0,
            "name": "C-1",
            "ticks": 42912,
            "time": 60.9544845,
            "velocity": 0.3937007874015748
          },
          {
            "duration": 0.13636350000000164,
            "durationTicks": 96,
            "midi": 0,
            "name": "C-1",
            "ticks": 42912,
            "time": 60.9544845,
            "velocity": 0.3937007874015748
          },
          {
            "duration": 0.13636350000000164,
            "durationTicks": 96,
            "midi": 0,
            "name": "C-1",
            "ticks": 43008,
            "time": 61.090848,
            "velocity": 0.3937007874015748
          },
          {
            "duration": 0.13636350000000164,
            "durationTicks": 96,
            "midi": 0,
            "name": "C-1",
            "ticks": 43008,
            "time": 61.090848,
            "velocity": 0.3937007874015748
          },
          {
            "duration": 0.13636350000000164,
            "durationTicks": 96,
            "midi": 0,
            "name": "C-1",
            "ticks": 43200,
            "time": 61.363575,
            "velocity": 0.3937007874015748
          },
          {
            "duration": 0.13636350000000164,
            "durationTicks": 96,
            "midi": 0,
            "name": "C-1",
            "ticks": 43200,
            "time": 61.363575,
            "velocity": 0.3937007874015748
          },
          {
            "duration": 0.13636350000000164,
            "durationTicks": 96,
            "midi": 0,
            "name": "C-1",
            "ticks": 43296,
            "time": 61.4999385,
            "velocity": 0.3937007874015748
          },
          {
            "duration": 0.13636350000000164,
            "durationTicks": 96,
            "midi": 0,
            "name": "C-1",
            "ticks": 43392,
            "time": 61.636302,
            "velocity": 0.3937007874015748
          },
          {
            "duration": 0.13636350000000164,
            "durationTicks": 96,
            "midi": 0,
            "name": "C-1",
            "ticks": 43392,
            "time": 61.636302,
            "velocity": 0.3937007874015748
          },
          {
            "duration": 0.13636350000000164,
            "durationTicks": 96,
            "midi": 0,
            "name": "C-1",
            "ticks": 43584,
            "time": 61.909029,
            "velocity": 0.3937007874015748
          },
          {
            "duration": 0.13636350000000164,
            "durationTicks": 96,
            "midi": 0,
            "name": "C-1",
            "ticks": 43584,
            "time": 61.909029,
            "velocity": 0.3937007874015748
          },
          {
            "duration": 0.13636350000000164,
            "durationTicks": 96,
            "midi": 0,
            "name": "C-1",
            "ticks": 43680,
            "time": 62.0453925,
            "velocity": 0.3937007874015748
          },
          {
            "duration": 0.13636350000000164,
            "durationTicks": 96,
            "midi": 0,
            "name": "C-1",
            "ticks": 43776,
            "time": 62.181756,
            "velocity": 0.3937007874015748
          },
          {
            "duration": 0.13636350000000164,
            "durationTicks": 96,
            "midi": 0,
            "name": "C-1",
            "ticks": 43776,
            "time": 62.181756,
            "velocity": 0.3937007874015748
          },
          {
            "duration": 0.13636350000000164,
            "durationTicks": 96,
            "midi": 0,
            "name": "C-1",
            "ticks": 43968,
            "time": 62.454482999999996,
            "velocity": 0.3937007874015748
          },
          {
            "duration": 0.13636350000000164,
            "durationTicks": 96,
            "midi": 0,
            "name": "C-1",
            "ticks": 43968,
            "time": 62.454482999999996,
            "velocity": 0.3937007874015748
          },
          {
            "duration": 0.13636350000000164,
            "durationTicks": 96,
            "midi": 0,
            "name": "C-1",
            "ticks": 43968,
            "time": 62.454482999999996,
            "velocity": 0.3937007874015748
          },
          {
            "duration": 0.13636350000000164,
            "durationTicks": 96,
            "midi": 0,
            "name": "C-1",
            "ticks": 44064,
            "time": 62.5908465,
            "velocity": 0.3937007874015748
          },
          {
            "duration": 0.13636350000000164,
            "durationTicks": 96,
            "midi": 0,
            "name": "C-1",
            "ticks": 44160,
            "time": 62.72721,
            "velocity": 0.3937007874015748
          },
          {
            "duration": 0.13636350000000164,
            "durationTicks": 96,
            "midi": 0,
            "name": "C-1",
            "ticks": 44160,
            "time": 62.72721,
            "velocity": 0.3937007874015748
          },
          {
            "duration": 0.13636349999999453,
            "durationTicks": 96,
            "midi": 0,
            "name": "C-1",
            "ticks": 44352,
            "time": 62.999937,
            "velocity": 0.3937007874015748
          },
          {
            "duration": 0.13636349999999453,
            "durationTicks": 96,
            "midi": 0,
            "name": "C-1",
            "ticks": 44352,
            "time": 62.999937,
            "velocity": 0.3937007874015748
          },
          {
            "duration": 0.13636350000000164,
            "durationTicks": 96,
            "midi": 0,
            "name": "C-1",
            "ticks": 44448,
            "time": 63.1363005,
            "velocity": 0.3937007874015748
          },
          {
            "duration": 0.13636350000000164,
            "durationTicks": 96,
            "midi": 0,
            "name": "C-1",
            "ticks": 44448,
            "time": 63.1363005,
            "velocity": 0.3937007874015748
          },
          {
            "duration": 0.13636350000000164,
            "durationTicks": 96,
            "midi": 0,
            "name": "C-1",
            "ticks": 44544,
            "time": 63.272664,
            "velocity": 0.3937007874015748
          },
          {
            "duration": 0.13636350000000164,
            "durationTicks": 96,
            "midi": 0,
            "name": "C-1",
            "ticks": 44544,
            "time": 63.272664,
            "velocity": 0.3937007874015748
          },
          {
            "duration": 0.13636349999999453,
            "durationTicks": 96,
            "midi": 0,
            "name": "C-1",
            "ticks": 44736,
            "time": 63.545391,
            "velocity": 0.3937007874015748
          },
          {
            "duration": 0.13636349999999453,
            "durationTicks": 96,
            "midi": 0,
            "name": "C-1",
            "ticks": 44736,
            "time": 63.545391,
            "velocity": 0.3937007874015748
          },
          {
            "duration": 0.13636350000000164,
            "durationTicks": 96,
            "midi": 0,
            "name": "C-1",
            "ticks": 44832,
            "time": 63.6817545,
            "velocity": 0.3937007874015748
          },
          {
            "duration": 0.13636350000000164,
            "durationTicks": 96,
            "midi": 0,
            "name": "C-1",
            "ticks": 44928,
            "time": 63.818118,
            "velocity": 0.3937007874015748
          },
          {
            "duration": 0.13636350000000164,
            "durationTicks": 96,
            "midi": 0,
            "name": "C-1",
            "ticks": 44928,
            "time": 63.818118,
            "velocity": 0.3937007874015748
          },
          {
            "duration": 0.13636350000000164,
            "durationTicks": 96,
            "midi": 0,
            "name": "C-1",
            "ticks": 45120,
            "time": 64.090845,
            "velocity": 0.3937007874015748
          },
          {
            "duration": 0.13636350000000164,
            "durationTicks": 96,
            "midi": 0,
            "name": "C-1",
            "ticks": 45120,
            "time": 64.090845,
            "velocity": 0.3937007874015748
          },
          {
            "duration": 0.13636350000000164,
            "durationTicks": 96,
            "midi": 0,
            "name": "C-1",
            "ticks": 45120,
            "time": 64.090845,
            "velocity": 0.3937007874015748
          },
          {
            "duration": 0.13636350000000164,
            "durationTicks": 96,
            "midi": 0,
            "name": "C-1",
            "ticks": 45216,
            "time": 64.2272085,
            "velocity": 0.3937007874015748
          },
          {
            "duration": 0.13636350000000164,
            "durationTicks": 96,
            "midi": 0,
            "name": "C-1",
            "ticks": 45216,
            "time": 64.2272085,
            "velocity": 0.3937007874015748
          },
          {
            "duration": 0.13636349999998743,
            "durationTicks": 96,
            "midi": 0,
            "name": "C-1",
            "ticks": 45312,
            "time": 64.363572,
            "velocity": 0.3937007874015748
          },
          {
            "duration": 0.13636349999998743,
            "durationTicks": 96,
            "midi": 0,
            "name": "C-1",
            "ticks": 45312,
            "time": 64.363572,
            "velocity": 0.3937007874015748
          },
          {
            "duration": 0.13636350000000164,
            "durationTicks": 96,
            "midi": 0,
            "name": "C-1",
            "ticks": 45504,
            "time": 64.636299,
            "velocity": 0.3937007874015748
          },
          {
            "duration": 0.13636350000000164,
            "durationTicks": 96,
            "midi": 0,
            "name": "C-1",
            "ticks": 45504,
            "time": 64.636299,
            "velocity": 0.3937007874015748
          },
          {
            "duration": 0.13636350000000164,
            "durationTicks": 96,
            "midi": 0,
            "name": "C-1",
            "ticks": 45504,
            "time": 64.636299,
            "velocity": 0.3937007874015748
          },
          {
            "duration": 0.13636350000000164,
            "durationTicks": 96,
            "midi": 0,
            "name": "C-1",
            "ticks": 45600,
            "time": 64.7726625,
            "velocity": 0.3937007874015748
          },
          {
            "duration": 0.13636350000000164,
            "durationTicks": 96,
            "midi": 0,
            "name": "C-1",
            "ticks": 45696,
            "time": 64.909026,
            "velocity": 0.3937007874015748
          },
          {
            "duration": 0.13636350000000164,
            "durationTicks": 96,
            "midi": 0,
            "name": "C-1",
            "ticks": 45696,
            "time": 64.909026,
            "velocity": 0.3937007874015748
          },
          {
            "duration": 0.13636350000000164,
            "durationTicks": 96,
            "midi": 0,
            "name": "C-1",
            "ticks": 45792,
            "time": 65.0453895,
            "velocity": 0.3937007874015748
          },
          {
            "duration": 0.13636350000000164,
            "durationTicks": 96,
            "midi": 0,
            "name": "C-1",
            "ticks": 45888,
            "time": 65.181753,
            "velocity": 0.3937007874015748
          },
          {
            "duration": 0.13636350000000164,
            "durationTicks": 96,
            "midi": 0,
            "name": "C-1",
            "ticks": 45888,
            "time": 65.181753,
            "velocity": 0.3937007874015748
          },
          {
            "duration": 0.13636350000000164,
            "durationTicks": 96,
            "midi": 0,
            "name": "C-1",
            "ticks": 45984,
            "time": 65.3181165,
            "velocity": 0.3937007874015748
          },
          {
            "duration": 0.13636350000000164,
            "durationTicks": 96,
            "midi": 0,
            "name": "C-1",
            "ticks": 45984,
            "time": 65.3181165,
            "velocity": 0.3937007874015748
          },
          {
            "duration": 0.13636350000000164,
            "durationTicks": 96,
            "midi": 0,
            "name": "C-1",
            "ticks": 46080,
            "time": 65.45448,
            "velocity": 0.3937007874015748
          },
          {
            "duration": 0.13636350000000164,
            "durationTicks": 96,
            "midi": 0,
            "name": "C-1",
            "ticks": 46080,
            "time": 65.45448,
            "velocity": 0.3937007874015748
          },
          {
            "duration": 0.13636350000000164,
            "durationTicks": 96,
            "midi": 0,
            "name": "C-1",
            "ticks": 46272,
            "time": 65.72720699999999,
            "velocity": 0.3937007874015748
          },
          {
            "duration": 0.13636350000000164,
            "durationTicks": 96,
            "midi": 0,
            "name": "C-1",
            "ticks": 46272,
            "time": 65.72720699999999,
            "velocity": 0.3937007874015748
          },
          {
            "duration": 0.13636350000000164,
            "durationTicks": 96,
            "midi": 0,
            "name": "C-1",
            "ticks": 46368,
            "time": 65.8635705,
            "velocity": 0.3937007874015748
          },
          {
            "duration": 0.13636350000000164,
            "durationTicks": 96,
            "midi": 0,
            "name": "C-1",
            "ticks": 46464,
            "time": 65.999934,
            "velocity": 0.3937007874015748
          },
          {
            "duration": 0.13636350000000164,
            "durationTicks": 96,
            "midi": 0,
            "name": "C-1",
            "ticks": 46464,
            "time": 65.999934,
            "velocity": 0.3937007874015748
          },
          {
            "duration": 0.13636350000000164,
            "durationTicks": 96,
            "midi": 0,
            "name": "C-1",
            "ticks": 46656,
            "time": 66.272661,
            "velocity": 0.3937007874015748
          },
          {
            "duration": 0.13636350000000164,
            "durationTicks": 96,
            "midi": 0,
            "name": "C-1",
            "ticks": 46656,
            "time": 66.272661,
            "velocity": 0.3937007874015748
          },
          {
            "duration": 0.13636350000000164,
            "durationTicks": 96,
            "midi": 0,
            "name": "C-1",
            "ticks": 46752,
            "time": 66.4090245,
            "velocity": 0.3937007874015748
          },
          {
            "duration": 0.13636350000000164,
            "durationTicks": 96,
            "midi": 0,
            "name": "C-1",
            "ticks": 46848,
            "time": 66.545388,
            "velocity": 0.3937007874015748
          },
          {
            "duration": 0.13636350000000164,
            "durationTicks": 96,
            "midi": 0,
            "name": "C-1",
            "ticks": 46848,
            "time": 66.545388,
            "velocity": 0.3937007874015748
          },
          {
            "duration": 0.13636349999998743,
            "durationTicks": 96,
            "midi": 0,
            "name": "C-1",
            "ticks": 47040,
            "time": 66.818115,
            "velocity": 0.3937007874015748
          },
          {
            "duration": 0.13636349999998743,
            "durationTicks": 96,
            "midi": 0,
            "name": "C-1",
            "ticks": 47040,
            "time": 66.818115,
            "velocity": 0.3937007874015748
          },
          {
            "duration": 0.13636349999998743,
            "durationTicks": 96,
            "midi": 0,
            "name": "C-1",
            "ticks": 47040,
            "time": 66.818115,
            "velocity": 0.3937007874015748
          },
          {
            "duration": 0.13636350000000164,
            "durationTicks": 96,
            "midi": 0,
            "name": "C-1",
            "ticks": 47136,
            "time": 66.9544785,
            "velocity": 0.3937007874015748
          },
          {
            "duration": 0.13636350000000164,
            "durationTicks": 96,
            "midi": 0,
            "name": "C-1",
            "ticks": 47232,
            "time": 67.090842,
            "velocity": 0.3937007874015748
          },
          {
            "duration": 0.13636350000000164,
            "durationTicks": 96,
            "midi": 0,
            "name": "C-1",
            "ticks": 47232,
            "time": 67.090842,
            "velocity": 0.3937007874015748
          },
          {
            "duration": 0.13636350000000164,
            "durationTicks": 96,
            "midi": 0,
            "name": "C-1",
            "ticks": 47424,
            "time": 67.363569,
            "velocity": 0.3937007874015748
          },
          {
            "duration": 0.13636350000000164,
            "durationTicks": 96,
            "midi": 0,
            "name": "C-1",
            "ticks": 47424,
            "time": 67.363569,
            "velocity": 0.3937007874015748
          },
          {
            "duration": 0.13636350000000164,
            "durationTicks": 96,
            "midi": 0,
            "name": "C-1",
            "ticks": 47520,
            "time": 67.4999325,
            "velocity": 0.3937007874015748
          },
          {
            "duration": 0.13636350000000164,
            "durationTicks": 96,
            "midi": 0,
            "name": "C-1",
            "ticks": 47520,
            "time": 67.4999325,
            "velocity": 0.3937007874015748
          },
          {
            "duration": 0.13636350000000164,
            "durationTicks": 96,
            "midi": 0,
            "name": "C-1",
            "ticks": 47616,
            "time": 67.636296,
            "velocity": 0.3937007874015748
          },
          {
            "duration": 0.13636350000000164,
            "durationTicks": 96,
            "midi": 0,
            "name": "C-1",
            "ticks": 47616,
            "time": 67.636296,
            "velocity": 0.3937007874015748
          },
          {
            "duration": 0.13636349999998743,
            "durationTicks": 96,
            "midi": 0,
            "name": "C-1",
            "ticks": 47808,
            "time": 67.909023,
            "velocity": 0.3937007874015748
          },
          {
            "duration": 0.13636349999998743,
            "durationTicks": 96,
            "midi": 0,
            "name": "C-1",
            "ticks": 47808,
            "time": 67.909023,
            "velocity": 0.3937007874015748
          },
          {
            "duration": 0.13636350000000164,
            "durationTicks": 96,
            "midi": 0,
            "name": "C-1",
            "ticks": 47904,
            "time": 68.04538649999999,
            "velocity": 0.3937007874015748
          },
          {
            "duration": 0.13636350000000164,
            "durationTicks": 96,
            "midi": 0,
            "name": "C-1",
            "ticks": 48000,
            "time": 68.18175,
            "velocity": 0.3937007874015748
          },
          {
            "duration": 0.13636350000000164,
            "durationTicks": 96,
            "midi": 0,
            "name": "C-1",
            "ticks": 48000,
            "time": 68.18175,
            "velocity": 0.3937007874015748
          },
          {
            "duration": 0.13636350000000164,
            "durationTicks": 96,
            "midi": 0,
            "name": "C-1",
            "ticks": 48192,
            "time": 68.454477,
            "velocity": 0.3937007874015748
          },
          {
            "duration": 0.13636350000000164,
            "durationTicks": 96,
            "midi": 0,
            "name": "C-1",
            "ticks": 48192,
            "time": 68.454477,
            "velocity": 0.3937007874015748
          },
          {
            "duration": 0.13636350000000164,
            "durationTicks": 96,
            "midi": 0,
            "name": "C-1",
            "ticks": 48192,
            "time": 68.454477,
            "velocity": 0.3937007874015748
          },
          {
            "duration": 0.13636350000000164,
            "durationTicks": 96,
            "midi": 0,
            "name": "C-1",
            "ticks": 48288,
            "time": 68.5908405,
            "velocity": 0.3937007874015748
          },
          {
            "duration": 0.13636350000000164,
            "durationTicks": 96,
            "midi": 0,
            "name": "C-1",
            "ticks": 48288,
            "time": 68.5908405,
            "velocity": 0.3937007874015748
          },
          {
            "duration": 0.13636350000000164,
            "durationTicks": 96,
            "midi": 0,
            "name": "C-1",
            "ticks": 48384,
            "time": 68.727204,
            "velocity": 0.3937007874015748
          },
          {
            "duration": 0.13636350000000164,
            "durationTicks": 96,
            "midi": 0,
            "name": "C-1",
            "ticks": 48384,
            "time": 68.727204,
            "velocity": 0.3937007874015748
          },
          {
            "duration": 0.13636350000000164,
            "durationTicks": 96,
            "midi": 0,
            "name": "C-1",
            "ticks": 48480,
            "time": 68.8635675,
            "velocity": 0.3937007874015748
          },
          {
            "duration": 0.13636350000000164,
            "durationTicks": 96,
            "midi": 0,
            "name": "C-1",
            "ticks": 48576,
            "time": 68.999931,
            "velocity": 0.3937007874015748
          },
          {
            "duration": 0.13636350000000164,
            "durationTicks": 96,
            "midi": 0,
            "name": "C-1",
            "ticks": 48576,
            "time": 68.999931,
            "velocity": 0.3937007874015748
          },
          {
            "duration": 0.13636350000000164,
            "durationTicks": 96,
            "midi": 0,
            "name": "C-1",
            "ticks": 48576,
            "time": 68.999931,
            "velocity": 0.3937007874015748
          },
          {
            "duration": 0.13636349999998743,
            "durationTicks": 96,
            "midi": 0,
            "name": "C-1",
            "ticks": 48672,
            "time": 69.1362945,
            "velocity": 0.3937007874015748
          },
          {
            "duration": 0.13636349999998743,
            "durationTicks": 96,
            "midi": 0,
            "name": "C-1",
            "ticks": 48672,
            "time": 69.1362945,
            "velocity": 0.3937007874015748
          },
          {
            "duration": 0.13636350000000164,
            "durationTicks": 96,
            "midi": 0,
            "name": "C-1",
            "ticks": 48768,
            "time": 69.27265799999999,
            "velocity": 0.3937007874015748
          },
          {
            "duration": 0.13636350000000164,
            "durationTicks": 96,
            "midi": 0,
            "name": "C-1",
            "ticks": 48768,
            "time": 69.27265799999999,
            "velocity": 0.3937007874015748
          },
          {
            "duration": 0.13636350000000164,
            "durationTicks": 96,
            "midi": 0,
            "name": "C-1",
            "ticks": 48864,
            "time": 69.4090215,
            "velocity": 0.3937007874015748
          },
          {
            "duration": 0.13636350000000164,
            "durationTicks": 96,
            "midi": 0,
            "name": "C-1",
            "ticks": 48960,
            "time": 69.545385,
            "velocity": 0.3937007874015748
          },
          {
            "duration": 0.13636350000000164,
            "durationTicks": 96,
            "midi": 0,
            "name": "C-1",
            "ticks": 48960,
            "time": 69.545385,
            "velocity": 0.3937007874015748
          },
          {
            "duration": 0.13636350000000164,
            "durationTicks": 96,
            "midi": 0,
            "name": "C-1",
            "ticks": 48960,
            "time": 69.545385,
            "velocity": 0.3937007874015748
          },
          {
            "duration": 0.13636350000000164,
            "durationTicks": 96,
            "midi": 0,
            "name": "C-1",
            "ticks": 49056,
            "time": 69.6817485,
            "velocity": 0.3937007874015748
          },
          {
            "duration": 0.13636350000000164,
            "durationTicks": 96,
            "midi": 0,
            "name": "C-1",
            "ticks": 49056,
            "time": 69.6817485,
            "velocity": 0.3937007874015748
          },
          {
            "duration": 0.13636350000000164,
            "durationTicks": 96,
            "midi": 0,
            "name": "C-1",
            "ticks": 49152,
            "time": 69.818112,
            "velocity": 0.3937007874015748
          },
          {
            "duration": 0.13636350000000164,
            "durationTicks": 96,
            "midi": 0,
            "name": "C-1",
            "ticks": 49152,
            "time": 69.818112,
            "velocity": 0.3937007874015748
          },
          {
            "duration": 0.13636350000000164,
            "durationTicks": 96,
            "midi": 0,
            "name": "C-1",
            "ticks": 49152,
            "time": 69.818112,
            "velocity": 0.3937007874015748
          },
          {
            "duration": 0.13636350000000164,
            "durationTicks": 96,
            "midi": 0,
            "name": "C-1",
            "ticks": 49248,
            "time": 69.9544755,
            "velocity": 0.3937007874015748
          },
          {
            "duration": 0.13636350000000164,
            "durationTicks": 96,
            "midi": 0,
            "name": "C-1",
            "ticks": 49344,
            "time": 70.090839,
            "velocity": 0.3937007874015748
          },
          {
            "duration": 0.13636350000000164,
            "durationTicks": 96,
            "midi": 0,
            "name": "C-1",
            "ticks": 49440,
            "time": 70.2272025,
            "velocity": 0.3937007874015748
          },
          {
            "duration": 0.13636349999998743,
            "durationTicks": 96,
            "midi": 0,
            "name": "C-1",
            "ticks": 49536,
            "time": 70.363566,
            "velocity": 0.3937007874015748
          },
          {
            "duration": 0.13636349999998743,
            "durationTicks": 96,
            "midi": 0,
            "name": "C-1",
            "ticks": 49536,
            "time": 70.363566,
            "velocity": 0.3937007874015748
          },
          {
            "duration": 0.13636349999998743,
            "durationTicks": 96,
            "midi": 0,
            "name": "C-1",
            "ticks": 49536,
            "time": 70.363566,
            "velocity": 0.3937007874015748
          },
          {
            "duration": 0.13636350000000164,
            "durationTicks": 96,
            "midi": 0,
            "name": "C-1",
            "ticks": 49632,
            "time": 70.4999295,
            "velocity": 0.3937007874015748
          },
          {
            "duration": 0.13636350000000164,
            "durationTicks": 96,
            "midi": 0,
            "name": "C-1",
            "ticks": 49728,
            "time": 70.636293,
            "velocity": 0.3937007874015748
          },
          {
            "duration": 0.13636350000000164,
            "durationTicks": 96,
            "midi": 0,
            "name": "C-1",
            "ticks": 49824,
            "time": 70.7726565,
            "velocity": 0.3937007874015748
          },
          {
            "duration": 0.13636350000000164,
            "durationTicks": 96,
            "midi": 0,
            "name": "C-1",
            "ticks": 49920,
            "time": 70.90902,
            "velocity": 0.3937007874015748
          },
          {
            "duration": 0.13636350000000164,
            "durationTicks": 96,
            "midi": 0,
            "name": "C-1",
            "ticks": 49920,
            "time": 70.90902,
            "velocity": 0.3937007874015748
          },
          {
            "duration": 0.13636350000000164,
            "durationTicks": 96,
            "midi": 0,
            "name": "C-1",
            "ticks": 49920,
            "time": 70.90902,
            "velocity": 0.3937007874015748
          },
          {
            "duration": 0.13636350000000164,
            "durationTicks": 96,
            "midi": 0,
            "name": "C-1",
            "ticks": 50016,
            "time": 71.0453835,
            "velocity": 0.3937007874015748
          },
          {
            "duration": 0.13636350000000164,
            "durationTicks": 96,
            "midi": 0,
            "name": "C-1",
            "ticks": 50112,
            "time": 71.181747,
            "velocity": 0.3937007874015748
          },
          {
            "duration": 0.13636350000000164,
            "durationTicks": 96,
            "midi": 0,
            "name": "C-1",
            "ticks": 50112,
            "time": 71.181747,
            "velocity": 0.3937007874015748
          },
          {
            "duration": 0.13636350000000164,
            "durationTicks": 96,
            "midi": 0,
            "name": "C-1",
            "ticks": 50112,
            "time": 71.181747,
            "velocity": 0.3937007874015748
          },
          {
            "duration": 0.13636350000000164,
            "durationTicks": 96,
            "midi": 0,
            "name": "C-1",
            "ticks": 50208,
            "time": 71.3181105,
            "velocity": 0.3937007874015748
          },
          {
            "duration": 0.13636350000000164,
            "durationTicks": 96,
            "midi": 0,
            "name": "C-1",
            "ticks": 50304,
            "time": 71.454474,
            "velocity": 0.3937007874015748
          },
          {
            "duration": 0.13636350000000164,
            "durationTicks": 96,
            "midi": 0,
            "name": "C-1",
            "ticks": 50304,
            "time": 71.454474,
            "velocity": 0.3937007874015748
          },
          {
            "duration": 0.13636350000000164,
            "durationTicks": 96,
            "midi": 0,
            "name": "C-1",
            "ticks": 50304,
            "time": 71.454474,
            "velocity": 0.3937007874015748
          },
          {
            "duration": 0.13636349999998743,
            "durationTicks": 96,
            "midi": 0,
            "name": "C-1",
            "ticks": 50400,
            "time": 71.5908375,
            "velocity": 0.3937007874015748
          },
          {
            "duration": 0.13636350000000164,
            "durationTicks": 96,
            "midi": 0,
            "name": "C-1",
            "ticks": 50496,
            "time": 71.727201,
            "velocity": 0.3937007874015748
          },
          {
            "duration": 0.13636350000000164,
            "durationTicks": 96,
            "midi": 0,
            "name": "C-1",
            "ticks": 50496,
            "time": 71.727201,
            "velocity": 0.3937007874015748
          },
          {
            "duration": 0.13636350000000164,
            "durationTicks": 96,
            "midi": 0,
            "name": "C-1",
            "ticks": 50592,
            "time": 71.8635645,
            "velocity": 0.3937007874015748
          },
          {
            "duration": 0.13636350000000164,
            "durationTicks": 96,
            "midi": 0,
            "name": "C-1",
            "ticks": 50688,
            "time": 71.999928,
            "velocity": 0.3937007874015748
          },
          {
            "duration": 0.13636350000000164,
            "durationTicks": 96,
            "midi": 0,
            "name": "C-1",
            "ticks": 50688,
            "time": 71.999928,
            "velocity": 0.3937007874015748
          },
          {
            "duration": 0.13636350000000164,
            "durationTicks": 96,
            "midi": 0,
            "name": "C-1",
            "ticks": 50688,
            "time": 71.999928,
            "velocity": 0.3937007874015748
          },
          {
            "duration": 0.13636350000000164,
            "durationTicks": 96,
            "midi": 0,
            "name": "C-1",
            "ticks": 50784,
            "time": 72.1362915,
            "velocity": 0.3937007874015748
          },
          {
            "duration": 0.13636350000000164,
            "durationTicks": 96,
            "midi": 0,
            "name": "C-1",
            "ticks": 50880,
            "time": 72.272655,
            "velocity": 0.3937007874015748
          },
          {
            "duration": 0.13636350000000164,
            "durationTicks": 96,
            "midi": 0,
            "name": "C-1",
            "ticks": 50976,
            "time": 72.4090185,
            "velocity": 0.3937007874015748
          },
          {
            "duration": 0.13636350000000164,
            "durationTicks": 96,
            "midi": 0,
            "name": "C-1",
            "ticks": 51072,
            "time": 72.545382,
            "velocity": 0.3937007874015748
          },
          {
            "duration": 0.13636350000000164,
            "durationTicks": 96,
            "midi": 0,
            "name": "C-1",
            "ticks": 51072,
            "time": 72.545382,
            "velocity": 0.3937007874015748
          },
          {
            "duration": 0.13636350000000164,
            "durationTicks": 96,
            "midi": 0,
            "name": "C-1",
            "ticks": 51072,
            "time": 72.545382,
            "velocity": 0.3937007874015748
          },
          {
            "duration": 0.13636349999998743,
            "durationTicks": 96,
            "midi": 0,
            "name": "C-1",
            "ticks": 51168,
            "time": 72.6817455,
            "velocity": 0.3937007874015748
          },
          {
            "duration": 0.13636350000000164,
            "durationTicks": 96,
            "midi": 0,
            "name": "C-1",
            "ticks": 51264,
            "time": 72.81810899999999,
            "velocity": 0.3937007874015748
          },
          {
            "duration": 0.13636350000000164,
            "durationTicks": 96,
            "midi": 0,
            "name": "C-1",
            "ticks": 51264,
            "time": 72.81810899999999,
            "velocity": 0.3937007874015748
          },
          {
            "duration": 0.13636350000000164,
            "durationTicks": 96,
            "midi": 0,
            "name": "C-1",
            "ticks": 51360,
            "time": 72.9544725,
            "velocity": 0.3937007874015748
          },
          {
            "duration": 0.13636350000000164,
            "durationTicks": 96,
            "midi": 0,
            "name": "C-1",
            "ticks": 51456,
            "time": 73.090836,
            "velocity": 0.3937007874015748
          },
          {
            "duration": 0.13636350000000164,
            "durationTicks": 96,
            "midi": 0,
            "name": "C-1",
            "ticks": 51456,
            "time": 73.090836,
            "velocity": 0.3937007874015748
          },
          {
            "duration": 0.13636350000000164,
            "durationTicks": 96,
            "midi": 0,
            "name": "C-1",
            "ticks": 51552,
            "time": 73.2271995,
            "velocity": 0.3937007874015748
          },
          {
            "duration": 0.13636350000000164,
            "durationTicks": 96,
            "midi": 0,
            "name": "C-1",
            "ticks": 51648,
            "time": 73.363563,
            "velocity": 0.3937007874015748
          },
          {
            "duration": 0.13636350000000164,
            "durationTicks": 96,
            "midi": 0,
            "name": "C-1",
            "ticks": 51648,
            "time": 73.363563,
            "velocity": 0.3937007874015748
          },
          {
            "duration": 0.13636350000000164,
            "durationTicks": 96,
            "midi": 0,
            "name": "C-1",
            "ticks": 51648,
            "time": 73.363563,
            "velocity": 0.3937007874015748
          },
          {
            "duration": 0.13636350000000164,
            "durationTicks": 96,
            "midi": 0,
            "name": "C-1",
            "ticks": 51744,
            "time": 73.4999265,
            "velocity": 0.3937007874015748
          },
          {
            "duration": 0.13636350000000164,
            "durationTicks": 96,
            "midi": 0,
            "name": "C-1",
            "ticks": 51840,
            "time": 73.63629,
            "velocity": 0.3937007874015748
          },
          {
            "duration": 0.13636350000000164,
            "durationTicks": 96,
            "midi": 0,
            "name": "C-1",
            "ticks": 51840,
            "time": 73.63629,
            "velocity": 0.3937007874015748
          },
          {
            "duration": 0.13636350000000164,
            "durationTicks": 96,
            "midi": 0,
            "name": "C-1",
            "ticks": 51840,
            "time": 73.63629,
            "velocity": 0.3937007874015748
          },
          {
            "duration": 0.13636350000000164,
            "durationTicks": 96,
            "midi": 0,
            "name": "C-1",
            "ticks": 51936,
            "time": 73.7726535,
            "velocity": 0.3937007874015748
          },
          {
            "duration": 0.13636350000000164,
            "durationTicks": 96,
            "midi": 0,
            "name": "C-1",
            "ticks": 51936,
            "time": 73.7726535,
            "velocity": 0.3937007874015748
          },
          {
            "duration": 0.13636349999998743,
            "durationTicks": 96,
            "midi": 0,
            "name": "C-1",
            "ticks": 52032,
            "time": 73.909017,
            "velocity": 0.3937007874015748
          },
          {
            "duration": 0.13636349999998743,
            "durationTicks": 96,
            "midi": 0,
            "name": "C-1",
            "ticks": 52032,
            "time": 73.909017,
            "velocity": 0.3937007874015748
          },
          {
            "duration": 0.13636349999998743,
            "durationTicks": 96,
            "midi": 0,
            "name": "C-1",
            "ticks": 52032,
            "time": 73.909017,
            "velocity": 0.3937007874015748
          },
          {
            "duration": 0.13636350000000164,
            "durationTicks": 96,
            "midi": 0,
            "name": "C-1",
            "ticks": 52128,
            "time": 74.0453805,
            "velocity": 0.3937007874015748
          },
          {
            "duration": 0.13636350000000164,
            "durationTicks": 96,
            "midi": 0,
            "name": "C-1",
            "ticks": 52128,
            "time": 74.0453805,
            "velocity": 0.3937007874015748
          },
          {
            "duration": 0.13636350000000164,
            "durationTicks": 96,
            "midi": 0,
            "name": "C-1",
            "ticks": 52128,
            "time": 74.0453805,
            "velocity": 0.3937007874015748
          },
          {
            "duration": 0.13636350000000164,
            "durationTicks": 96,
            "midi": 0,
            "name": "C-1",
            "ticks": 52224,
            "time": 74.181744,
            "velocity": 0.3937007874015748
          },
          {
            "duration": 0.13636350000000164,
            "durationTicks": 96,
            "midi": 0,
            "name": "C-1",
            "ticks": 52224,
            "time": 74.181744,
            "velocity": 0.3937007874015748
          },
          {
            "duration": 0.13636350000000164,
            "durationTicks": 96,
            "midi": 0,
            "name": "C-1",
            "ticks": 52224,
            "time": 74.181744,
            "velocity": 0.3937007874015748
          },
          {
            "duration": 0.13636350000000164,
            "durationTicks": 96,
            "midi": 0,
            "name": "C-1",
            "ticks": 52320,
            "time": 74.3181075,
            "velocity": 0.3937007874015748
          },
          {
            "duration": 0.13636350000000164,
            "durationTicks": 96,
            "midi": 0,
            "name": "C-1",
            "ticks": 52416,
            "time": 74.454471,
            "velocity": 0.3937007874015748
          },
          {
            "duration": 0.13636350000000164,
            "durationTicks": 96,
            "midi": 0,
            "name": "C-1",
            "ticks": 52512,
            "time": 74.5908345,
            "velocity": 0.3937007874015748
          },
          {
            "duration": 0.13636350000000164,
            "durationTicks": 96,
            "midi": 0,
            "name": "C-1",
            "ticks": 52608,
            "time": 74.727198,
            "velocity": 0.3937007874015748
          },
          {
            "duration": 0.13636350000000164,
            "durationTicks": 96,
            "midi": 0,
            "name": "C-1",
            "ticks": 52608,
            "time": 74.727198,
            "velocity": 0.3937007874015748
          },
          {
            "duration": 0.13636350000000164,
            "durationTicks": 96,
            "midi": 0,
            "name": "C-1",
            "ticks": 52608,
            "time": 74.727198,
            "velocity": 0.3937007874015748
          },
          {
            "duration": 0.13636350000000164,
            "durationTicks": 96,
            "midi": 0,
            "name": "C-1",
            "ticks": 52704,
            "time": 74.8635615,
            "velocity": 0.3937007874015748
          },
          {
            "duration": 0.13636350000000164,
            "durationTicks": 96,
            "midi": 0,
            "name": "C-1",
            "ticks": 52800,
            "time": 74.999925,
            "velocity": 0.3937007874015748
          },
          {
            "duration": 0.13636349999998743,
            "durationTicks": 96,
            "midi": 0,
            "name": "C-1",
            "ticks": 52896,
            "time": 75.1362885,
            "velocity": 0.3937007874015748
          },
          {
            "duration": 0.13636350000000164,
            "durationTicks": 96,
            "midi": 0,
            "name": "C-1",
            "ticks": 52992,
            "time": 75.272652,
            "velocity": 0.3937007874015748
          },
          {
            "duration": 0.13636350000000164,
            "durationTicks": 96,
            "midi": 0,
            "name": "C-1",
            "ticks": 52992,
            "time": 75.272652,
            "velocity": 0.3937007874015748
          },
          {
            "duration": 0.13636350000000164,
            "durationTicks": 96,
            "midi": 0,
            "name": "C-1",
            "ticks": 52992,
            "time": 75.272652,
            "velocity": 0.3937007874015748
          },
          {
            "duration": 0.13636350000000164,
            "durationTicks": 96,
            "midi": 0,
            "name": "C-1",
            "ticks": 53088,
            "time": 75.4090155,
            "velocity": 0.3937007874015748
          },
          {
            "duration": 0.13636350000000164,
            "durationTicks": 96,
            "midi": 0,
            "name": "C-1",
            "ticks": 53184,
            "time": 75.545379,
            "velocity": 0.3937007874015748
          },
          {
            "duration": 0.13636350000000164,
            "durationTicks": 96,
            "midi": 0,
            "name": "C-1",
            "ticks": 53184,
            "time": 75.545379,
            "velocity": 0.3937007874015748
          },
          {
            "duration": 0.13636350000000164,
            "durationTicks": 96,
            "midi": 0,
            "name": "C-1",
            "ticks": 53184,
            "time": 75.545379,
            "velocity": 0.3937007874015748
          },
          {
            "duration": 0.13636350000000164,
            "durationTicks": 96,
            "midi": 0,
            "name": "C-1",
            "ticks": 53280,
            "time": 75.6817425,
            "velocity": 0.3937007874015748
          },
          {
            "duration": 0.13636350000000164,
            "durationTicks": 96,
            "midi": 0,
            "name": "C-1",
            "ticks": 53376,
            "time": 75.818106,
            "velocity": 0.3937007874015748
          },
          {
            "duration": 0.13636350000000164,
            "durationTicks": 96,
            "midi": 0,
            "name": "C-1",
            "ticks": 53376,
            "time": 75.818106,
            "velocity": 0.3937007874015748
          },
          {
            "duration": 0.13636350000000164,
            "durationTicks": 96,
            "midi": 0,
            "name": "C-1",
            "ticks": 53376,
            "time": 75.818106,
            "velocity": 0.3937007874015748
          },
          {
            "duration": 0.13636350000000164,
            "durationTicks": 96,
            "midi": 0,
            "name": "C-1",
            "ticks": 53472,
            "time": 75.9544695,
            "velocity": 0.3937007874015748
          },
          {
            "duration": 0.13636350000000164,
            "durationTicks": 96,
            "midi": 0,
            "name": "C-1",
            "ticks": 53568,
            "time": 76.090833,
            "velocity": 0.3937007874015748
          },
          {
            "duration": 0.13636350000000164,
            "durationTicks": 96,
            "midi": 0,
            "name": "C-1",
            "ticks": 53568,
            "time": 76.090833,
            "velocity": 0.3937007874015748
          },
          {
            "duration": 0.13636349999998743,
            "durationTicks": 96,
            "midi": 0,
            "name": "C-1",
            "ticks": 53664,
            "time": 76.2271965,
            "velocity": 0.3937007874015748
          },
          {
            "duration": 0.13636350000000164,
            "durationTicks": 96,
            "midi": 0,
            "name": "C-1",
            "ticks": 53760,
            "time": 76.36355999999999,
            "velocity": 0.3937007874015748
          },
          {
            "duration": 0.13636350000000164,
            "durationTicks": 96,
            "midi": 0,
            "name": "C-1",
            "ticks": 53760,
            "time": 76.36355999999999,
            "velocity": 0.3937007874015748
          },
          {
            "duration": 0.13636350000000164,
            "durationTicks": 96,
            "midi": 0,
            "name": "C-1",
            "ticks": 53760,
            "time": 76.36355999999999,
            "velocity": 0.3937007874015748
          },
          {
            "duration": 0.13636350000000164,
            "durationTicks": 96,
            "midi": 0,
            "name": "C-1",
            "ticks": 53856,
            "time": 76.4999235,
            "velocity": 0.3937007874015748
          },
          {
            "duration": 0.13636350000000164,
            "durationTicks": 96,
            "midi": 0,
            "name": "C-1",
            "ticks": 53952,
            "time": 76.636287,
            "velocity": 0.3937007874015748
          },
          {
            "duration": 0.13636350000000164,
            "durationTicks": 96,
            "midi": 0,
            "name": "C-1",
            "ticks": 54048,
            "time": 76.7726505,
            "velocity": 0.3937007874015748
          },
          {
            "duration": 0.13636350000000164,
            "durationTicks": 96,
            "midi": 0,
            "name": "C-1",
            "ticks": 54144,
            "time": 76.909014,
            "velocity": 0.3937007874015748
          },
          {
            "duration": 0.13636350000000164,
            "durationTicks": 96,
            "midi": 0,
            "name": "C-1",
            "ticks": 54144,
            "time": 76.909014,
            "velocity": 0.3937007874015748
          },
          {
            "duration": 0.13636350000000164,
            "durationTicks": 96,
            "midi": 0,
            "name": "C-1",
            "ticks": 54144,
            "time": 76.909014,
            "velocity": 0.3937007874015748
          },
          {
            "duration": 0.13636350000000164,
            "durationTicks": 96,
            "midi": 0,
            "name": "C-1",
            "ticks": 54240,
            "time": 77.0453775,
            "velocity": 0.3937007874015748
          },
          {
            "duration": 0.13636350000000164,
            "durationTicks": 96,
            "midi": 0,
            "name": "C-1",
            "ticks": 54336,
            "time": 77.181741,
            "velocity": 0.3937007874015748
          },
          {
            "duration": 0.13636350000000164,
            "durationTicks": 96,
            "midi": 0,
            "name": "C-1",
            "ticks": 54336,
            "time": 77.181741,
            "velocity": 0.3937007874015748
          },
          {
            "duration": 0.13636350000000164,
            "durationTicks": 96,
            "midi": 0,
            "name": "C-1",
            "ticks": 54432,
            "time": 77.3181045,
            "velocity": 0.3937007874015748
          },
          {
            "duration": 0.13636349999998743,
            "durationTicks": 96,
            "midi": 0,
            "name": "C-1",
            "ticks": 54528,
            "time": 77.454468,
            "velocity": 0.3937007874015748
          },
          {
            "duration": 0.13636349999998743,
            "durationTicks": 96,
            "midi": 0,
            "name": "C-1",
            "ticks": 54528,
            "time": 77.454468,
            "velocity": 0.3937007874015748
          },
          {
            "duration": 0.13636350000000164,
            "durationTicks": 96,
            "midi": 0,
            "name": "C-1",
            "ticks": 54624,
            "time": 77.5908315,
            "velocity": 0.3937007874015748
          },
          {
            "duration": 0.13636350000000164,
            "durationTicks": 96,
            "midi": 0,
            "name": "C-1",
            "ticks": 54720,
            "time": 77.727195,
            "velocity": 0.3937007874015748
          },
          {
            "duration": 0.13636350000000164,
            "durationTicks": 96,
            "midi": 0,
            "name": "C-1",
            "ticks": 54720,
            "time": 77.727195,
            "velocity": 0.3937007874015748
          },
          {
            "duration": 0.13636350000000164,
            "durationTicks": 96,
            "midi": 0,
            "name": "C-1",
            "ticks": 54720,
            "time": 77.727195,
            "velocity": 0.3937007874015748
          },
          {
            "duration": 0.13636350000000164,
            "durationTicks": 96,
            "midi": 0,
            "name": "C-1",
            "ticks": 54816,
            "time": 77.8635585,
            "velocity": 0.3937007874015748
          },
          {
            "duration": 0.13636350000000164,
            "durationTicks": 96,
            "midi": 0,
            "name": "C-1",
            "ticks": 54912,
            "time": 77.999922,
            "velocity": 0.3937007874015748
          },
          {
            "duration": 0.13636350000000164,
            "durationTicks": 96,
            "midi": 0,
            "name": "C-1",
            "ticks": 54912,
            "time": 77.999922,
            "velocity": 0.3937007874015748
          },
          {
            "duration": 0.13636350000000164,
            "durationTicks": 96,
            "midi": 0,
            "name": "C-1",
            "ticks": 54912,
            "time": 77.999922,
            "velocity": 0.3937007874015748
          },
          {
            "duration": 0.13636350000000164,
            "durationTicks": 96,
            "midi": 0,
            "name": "C-1",
            "ticks": 55008,
            "time": 78.1362855,
            "velocity": 0.3937007874015748
          },
          {
            "duration": 0.13636350000000164,
            "durationTicks": 96,
            "midi": 0,
            "name": "C-1",
            "ticks": 55008,
            "time": 78.1362855,
            "velocity": 0.3937007874015748
          },
          {
            "duration": 0.13636350000000164,
            "durationTicks": 96,
            "midi": 0,
            "name": "C-1",
            "ticks": 55104,
            "time": 78.272649,
            "velocity": 0.3937007874015748
          },
          {
            "duration": 0.13636350000000164,
            "durationTicks": 96,
            "midi": 0,
            "name": "C-1",
            "ticks": 55104,
            "time": 78.272649,
            "velocity": 0.3937007874015748
          },
          {
            "duration": 0.13636350000000164,
            "durationTicks": 96,
            "midi": 0,
            "name": "C-1",
            "ticks": 55104,
            "time": 78.272649,
            "velocity": 0.3937007874015748
          },
          {
            "duration": 0.13636350000000164,
            "durationTicks": 96,
            "midi": 0,
            "name": "C-1",
            "ticks": 55200,
            "time": 78.4090125,
            "velocity": 0.3937007874015748
          },
          {
            "duration": 0.13636350000000164,
            "durationTicks": 96,
            "midi": 0,
            "name": "C-1",
            "ticks": 55200,
            "time": 78.4090125,
            "velocity": 0.3937007874015748
          },
          {
            "duration": 0.13636350000000164,
            "durationTicks": 96,
            "midi": 0,
            "name": "C-1",
            "ticks": 55200,
            "time": 78.4090125,
            "velocity": 0.3937007874015748
          },
          {
            "duration": 0.13636350000000164,
            "durationTicks": 96,
            "midi": 0,
            "name": "C-1",
            "ticks": 55296,
            "time": 78.545376,
            "velocity": 0.3937007874015748
          },
          {
            "duration": 0.13636350000000164,
            "durationTicks": 96,
            "midi": 0,
            "name": "C-1",
            "ticks": 55296,
            "time": 78.545376,
            "velocity": 0.3937007874015748
          },
          {
            "duration": 0.13636350000000164,
            "durationTicks": 96,
            "midi": 0,
            "name": "C-1",
            "ticks": 55296,
            "time": 78.545376,
            "velocity": 0.3937007874015748
          },
          {
            "duration": 0.13636349999998743,
            "durationTicks": 96,
            "midi": 0,
            "name": "C-1",
            "ticks": 55392,
            "time": 78.6817395,
            "velocity": 0.3937007874015748
          },
          {
            "duration": 0.13636350000000164,
            "durationTicks": 96,
            "midi": 0,
            "name": "C-1",
            "ticks": 55488,
            "time": 78.818103,
            "velocity": 0.3937007874015748
          },
          {
            "duration": 0.13636350000000164,
            "durationTicks": 96,
            "midi": 0,
            "name": "C-1",
            "ticks": 55584,
            "time": 78.9544665,
            "velocity": 0.3937007874015748
          },
          {
            "duration": 0.13636350000000164,
            "durationTicks": 96,
            "midi": 0,
            "name": "C-1",
            "ticks": 55680,
            "time": 79.09083,
            "velocity": 0.3937007874015748
          },
          {
            "duration": 0.13636350000000164,
            "durationTicks": 96,
            "midi": 0,
            "name": "C-1",
            "ticks": 55680,
            "time": 79.09083,
            "velocity": 0.3937007874015748
          },
          {
            "duration": 0.13636350000000164,
            "durationTicks": 96,
            "midi": 0,
            "name": "C-1",
            "ticks": 55680,
            "time": 79.09083,
            "velocity": 0.3937007874015748
          },
          {
            "duration": 0.13636350000000164,
            "durationTicks": 96,
            "midi": 0,
            "name": "C-1",
            "ticks": 55776,
            "time": 79.2271935,
            "velocity": 0.3937007874015748
          },
          {
            "duration": 0.13636350000000164,
            "durationTicks": 96,
            "midi": 0,
            "name": "C-1",
            "ticks": 55872,
            "time": 79.363557,
            "velocity": 0.3937007874015748
          },
          {
            "duration": 0.13636350000000164,
            "durationTicks": 96,
            "midi": 0,
            "name": "C-1",
            "ticks": 55968,
            "time": 79.4999205,
            "velocity": 0.3937007874015748
          },
          {
            "duration": 0.13636350000000164,
            "durationTicks": 96,
            "midi": 0,
            "name": "C-1",
            "ticks": 56064,
            "time": 79.636284,
            "velocity": 0.3937007874015748
          },
          {
            "duration": 0.13636350000000164,
            "durationTicks": 96,
            "midi": 0,
            "name": "C-1",
            "ticks": 56064,
            "time": 79.636284,
            "velocity": 0.3937007874015748
          },
          {
            "duration": 0.13636350000000164,
            "durationTicks": 96,
            "midi": 0,
            "name": "C-1",
            "ticks": 56064,
            "time": 79.636284,
            "velocity": 0.3937007874015748
          },
          {
            "duration": 0.13636349999998743,
            "durationTicks": 96,
            "midi": 0,
            "name": "C-1",
            "ticks": 56160,
            "time": 79.7726475,
            "velocity": 0.3937007874015748
          },
          {
            "duration": 0.13636350000000164,
            "durationTicks": 96,
            "midi": 0,
            "name": "C-1",
            "ticks": 56256,
            "time": 79.90901099999999,
            "velocity": 0.3937007874015748
          },
          {
            "duration": 0.13636350000000164,
            "durationTicks": 96,
            "midi": 0,
            "name": "C-1",
            "ticks": 56256,
            "time": 79.90901099999999,
            "velocity": 0.3937007874015748
          },
          {
            "duration": 0.13636350000000164,
            "durationTicks": 96,
            "midi": 0,
            "name": "C-1",
            "ticks": 56256,
            "time": 79.90901099999999,
            "velocity": 0.3937007874015748
          },
          {
            "duration": 0.13636350000000164,
            "durationTicks": 96,
            "midi": 0,
            "name": "C-1",
            "ticks": 56352,
            "time": 80.0453745,
            "velocity": 0.3937007874015748
          },
          {
            "duration": 0.13636350000000164,
            "durationTicks": 96,
            "midi": 0,
            "name": "C-1",
            "ticks": 56448,
            "time": 80.181738,
            "velocity": 0.3937007874015748
          },
          {
            "duration": 0.13636350000000164,
            "durationTicks": 96,
            "midi": 0,
            "name": "C-1",
            "ticks": 56448,
            "time": 80.181738,
            "velocity": 0.3937007874015748
          },
          {
            "duration": 0.13636350000000164,
            "durationTicks": 96,
            "midi": 0,
            "name": "C-1",
            "ticks": 56448,
            "time": 80.181738,
            "velocity": 0.3937007874015748
          },
          {
            "duration": 0.13636350000000164,
            "durationTicks": 96,
            "midi": 0,
            "name": "C-1",
            "ticks": 56544,
            "time": 80.3181015,
            "velocity": 0.3937007874015748
          },
          {
            "duration": 0.13636350000000164,
            "durationTicks": 96,
            "midi": 0,
            "name": "C-1",
            "ticks": 56640,
            "time": 80.454465,
            "velocity": 0.3937007874015748
          },
          {
            "duration": 0.13636350000000164,
            "durationTicks": 96,
            "midi": 0,
            "name": "C-1",
            "ticks": 56640,
            "time": 80.454465,
            "velocity": 0.3937007874015748
          },
          {
            "duration": 0.13636350000000164,
            "durationTicks": 96,
            "midi": 0,
            "name": "C-1",
            "ticks": 56736,
            "time": 80.5908285,
            "velocity": 0.3937007874015748
          },
          {
            "duration": 0.13636350000000164,
            "durationTicks": 96,
            "midi": 0,
            "name": "C-1",
            "ticks": 56832,
            "time": 80.727192,
            "velocity": 0.3937007874015748
          },
          {
            "duration": 0.13636350000000164,
            "durationTicks": 96,
            "midi": 0,
            "name": "C-1",
            "ticks": 56832,
            "time": 80.727192,
            "velocity": 0.3937007874015748
          },
          {
            "duration": 0.13636350000000164,
            "durationTicks": 96,
            "midi": 0,
            "name": "C-1",
            "ticks": 56832,
            "time": 80.727192,
            "velocity": 0.3937007874015748
          },
          {
            "duration": 0.13636350000000164,
            "durationTicks": 96,
            "midi": 0,
            "name": "C-1",
            "ticks": 56928,
            "time": 80.8635555,
            "velocity": 0.3937007874015748
          },
          {
            "duration": 0.13636349999998743,
            "durationTicks": 96,
            "midi": 0,
            "name": "C-1",
            "ticks": 57024,
            "time": 80.999919,
            "velocity": 0.3937007874015748
          },
          {
            "duration": 0.13636350000000164,
            "durationTicks": 96,
            "midi": 0,
            "name": "C-1",
            "ticks": 57120,
            "time": 81.1362825,
            "velocity": 0.3937007874015748
          },
          {
            "duration": 0.13636350000000164,
            "durationTicks": 96,
            "midi": 0,
            "name": "C-1",
            "ticks": 57216,
            "time": 81.272646,
            "velocity": 0.3937007874015748
          },
          {
            "duration": 0.13636350000000164,
            "durationTicks": 96,
            "midi": 0,
            "name": "C-1",
            "ticks": 57216,
            "time": 81.272646,
            "velocity": 0.3937007874015748
          },
          {
            "duration": 0.13636350000000164,
            "durationTicks": 96,
            "midi": 0,
            "name": "C-1",
            "ticks": 57216,
            "time": 81.272646,
            "velocity": 0.3937007874015748
          },
          {
            "duration": 0.13636350000000164,
            "durationTicks": 96,
            "midi": 0,
            "name": "C-1",
            "ticks": 57312,
            "time": 81.4090095,
            "velocity": 0.3937007874015748
          },
          {
            "duration": 0.13636350000000164,
            "durationTicks": 96,
            "midi": 0,
            "name": "C-1",
            "ticks": 57408,
            "time": 81.545373,
            "velocity": 0.3937007874015748
          },
          {
            "duration": 0.13636350000000164,
            "durationTicks": 96,
            "midi": 0,
            "name": "C-1",
            "ticks": 57408,
            "time": 81.545373,
            "velocity": 0.3937007874015748
          },
          {
            "duration": 0.13636350000000164,
            "durationTicks": 96,
            "midi": 0,
            "name": "C-1",
            "ticks": 57504,
            "time": 81.6817365,
            "velocity": 0.3937007874015748
          },
          {
            "duration": 0.13636350000000164,
            "durationTicks": 96,
            "midi": 0,
            "name": "C-1",
            "ticks": 57600,
            "time": 81.8181,
            "velocity": 0.3937007874015748
          },
          {
            "duration": 0.13636350000000164,
            "durationTicks": 96,
            "midi": 0,
            "name": "C-1",
            "ticks": 57600,
            "time": 81.8181,
            "velocity": 0.3937007874015748
          },
          {
            "duration": 0.13636350000000164,
            "durationTicks": 96,
            "midi": 0,
            "name": "C-1",
            "ticks": 57696,
            "time": 81.9544635,
            "velocity": 0.3937007874015748
          },
          {
            "duration": 0.13636350000000164,
            "durationTicks": 96,
            "midi": 0,
            "name": "C-1",
            "ticks": 57792,
            "time": 82.090827,
            "velocity": 0.3937007874015748
          },
          {
            "duration": 0.13636350000000164,
            "durationTicks": 96,
            "midi": 0,
            "name": "C-1",
            "ticks": 57792,
            "time": 82.090827,
            "velocity": 0.3937007874015748
          },
          {
            "duration": 0.13636350000000164,
            "durationTicks": 96,
            "midi": 0,
            "name": "C-1",
            "ticks": 57792,
            "time": 82.090827,
            "velocity": 0.3937007874015748
          },
          {
            "duration": 0.13636349999998743,
            "durationTicks": 96,
            "midi": 0,
            "name": "C-1",
            "ticks": 57888,
            "time": 82.2271905,
            "velocity": 0.3937007874015748
          },
          {
            "duration": 0.13636350000000164,
            "durationTicks": 96,
            "midi": 0,
            "name": "C-1",
            "ticks": 57984,
            "time": 82.363554,
            "velocity": 0.3937007874015748
          },
          {
            "duration": 0.13636350000000164,
            "durationTicks": 96,
            "midi": 0,
            "name": "C-1",
            "ticks": 57984,
            "time": 82.363554,
            "velocity": 0.3937007874015748
          },
          {
            "duration": 0.13636350000000164,
            "durationTicks": 96,
            "midi": 0,
            "name": "C-1",
            "ticks": 57984,
            "time": 82.363554,
            "velocity": 0.3937007874015748
          },
          {
            "duration": 0.13636350000000164,
            "durationTicks": 96,
            "midi": 0,
            "name": "C-1",
            "ticks": 58080,
            "time": 82.4999175,
            "velocity": 0.3937007874015748
          },
          {
            "duration": 0.13636350000000164,
            "durationTicks": 96,
            "midi": 0,
            "name": "C-1",
            "ticks": 58080,
            "time": 82.4999175,
            "velocity": 0.3937007874015748
          },
          {
            "duration": 0.13636350000000164,
            "durationTicks": 96,
            "midi": 0,
            "name": "C-1",
            "ticks": 58176,
            "time": 82.636281,
            "velocity": 0.3937007874015748
          },
          {
            "duration": 0.13636350000000164,
            "durationTicks": 96,
            "midi": 0,
            "name": "C-1",
            "ticks": 58176,
            "time": 82.636281,
            "velocity": 0.3937007874015748
          },
          {
            "duration": 0.13636350000000164,
            "durationTicks": 96,
            "midi": 0,
            "name": "C-1",
            "ticks": 58176,
            "time": 82.636281,
            "velocity": 0.3937007874015748
          },
          {
            "duration": 0.13636350000000164,
            "durationTicks": 96,
            "midi": 0,
            "name": "C-1",
            "ticks": 58272,
            "time": 82.7726445,
            "velocity": 0.3937007874015748
          },
          {
            "duration": 0.13636350000000164,
            "durationTicks": 96,
            "midi": 0,
            "name": "C-1",
            "ticks": 58272,
            "time": 82.7726445,
            "velocity": 0.3937007874015748
          },
          {
            "duration": 0.13636350000000164,
            "durationTicks": 96,
            "midi": 0,
            "name": "C-1",
            "ticks": 58272,
            "time": 82.7726445,
            "velocity": 0.3937007874015748
          },
          {
            "duration": 0.13636350000000164,
            "durationTicks": 96,
            "midi": 0,
            "name": "C-1",
            "ticks": 58368,
            "time": 82.909008,
            "velocity": 0.3937007874015748
          },
          {
            "duration": 0.13636350000000164,
            "durationTicks": 96,
            "midi": 0,
            "name": "C-1",
            "ticks": 58368,
            "time": 82.909008,
            "velocity": 0.3937007874015748
          },
          {
            "duration": 0.13636350000000164,
            "durationTicks": 96,
            "midi": 0,
            "name": "C-1",
            "ticks": 58368,
            "time": 82.909008,
            "velocity": 0.3937007874015748
          },
          {
            "duration": 0.13636350000000164,
            "durationTicks": 96,
            "midi": 0,
            "name": "C-1",
            "ticks": 58464,
            "time": 83.0453715,
            "velocity": 0.3937007874015748
          },
          {
            "duration": 0.13636350000000164,
            "durationTicks": 96,
            "midi": 0,
            "name": "C-1",
            "ticks": 58560,
            "time": 83.181735,
            "velocity": 0.3937007874015748
          },
          {
            "duration": 0.13636349999998743,
            "durationTicks": 96,
            "midi": 0,
            "name": "C-1",
            "ticks": 58656,
            "time": 83.3180985,
            "velocity": 0.3937007874015748
          },
          {
            "duration": 0.13636350000000164,
            "durationTicks": 96,
            "midi": 0,
            "name": "C-1",
            "ticks": 58752,
            "time": 83.45446199999999,
            "velocity": 0.3937007874015748
          },
          {
            "duration": 0.13636350000000164,
            "durationTicks": 96,
            "midi": 0,
            "name": "C-1",
            "ticks": 58752,
            "time": 83.45446199999999,
            "velocity": 0.3937007874015748
          },
          {
            "duration": 0.13636350000000164,
            "durationTicks": 96,
            "midi": 0,
            "name": "C-1",
            "ticks": 58752,
            "time": 83.45446199999999,
            "velocity": 0.3937007874015748
          },
          {
            "duration": 0.13636350000000164,
            "durationTicks": 96,
            "midi": 0,
            "name": "C-1",
            "ticks": 58848,
            "time": 83.5908255,
            "velocity": 0.3937007874015748
          },
          {
            "duration": 0.13636350000000164,
            "durationTicks": 96,
            "midi": 0,
            "name": "C-1",
            "ticks": 58944,
            "time": 83.727189,
            "velocity": 0.3937007874015748
          },
          {
            "duration": 0.13636350000000164,
            "durationTicks": 96,
            "midi": 0,
            "name": "C-1",
            "ticks": 59040,
            "time": 83.8635525,
            "velocity": 0.3937007874015748
          },
          {
            "duration": 0.13636350000000164,
            "durationTicks": 96,
            "midi": 0,
            "name": "C-1",
            "ticks": 59136,
            "time": 83.999916,
            "velocity": 0.3937007874015748
          },
          {
            "duration": 0.13636350000000164,
            "durationTicks": 96,
            "midi": 0,
            "name": "C-1",
            "ticks": 59136,
            "time": 83.999916,
            "velocity": 0.3937007874015748
          },
          {
            "duration": 0.13636350000000164,
            "durationTicks": 96,
            "midi": 0,
            "name": "C-1",
            "ticks": 59136,
            "time": 83.999916,
            "velocity": 0.3937007874015748
          },
          {
            "duration": 0.13636350000000164,
            "durationTicks": 96,
            "midi": 0,
            "name": "C-1",
            "ticks": 59232,
            "time": 84.1362795,
            "velocity": 0.3937007874015748
          },
          {
            "duration": 0.13636350000000164,
            "durationTicks": 96,
            "midi": 0,
            "name": "C-1",
            "ticks": 59328,
            "time": 84.272643,
            "velocity": 0.3937007874015748
          },
          {
            "duration": 0.13636350000000164,
            "durationTicks": 96,
            "midi": 0,
            "name": "C-1",
            "ticks": 59328,
            "time": 84.272643,
            "velocity": 0.3937007874015748
          },
          {
            "duration": 0.13636350000000164,
            "durationTicks": 96,
            "midi": 0,
            "name": "C-1",
            "ticks": 59328,
            "time": 84.272643,
            "velocity": 0.3937007874015748
          },
          {
            "duration": 0.13636350000000164,
            "durationTicks": 96,
            "midi": 0,
            "name": "C-1",
            "ticks": 59424,
            "time": 84.4090065,
            "velocity": 0.3937007874015748
          },
          {
            "duration": 0.13636349999998743,
            "durationTicks": 96,
            "midi": 0,
            "name": "C-1",
            "ticks": 59520,
            "time": 84.54537,
            "velocity": 0.3937007874015748
          },
          {
            "duration": 0.13636349999998743,
            "durationTicks": 96,
            "midi": 0,
            "name": "C-1",
            "ticks": 59520,
            "time": 84.54537,
            "velocity": 0.3937007874015748
          },
          {
            "duration": 0.13636349999998743,
            "durationTicks": 96,
            "midi": 0,
            "name": "C-1",
            "ticks": 59520,
            "time": 84.54537,
            "velocity": 0.3937007874015748
          },
          {
            "duration": 0.13636350000000164,
            "durationTicks": 96,
            "midi": 0,
            "name": "C-1",
            "ticks": 59616,
            "time": 84.68173349999999,
            "velocity": 0.3937007874015748
          },
          {
            "duration": 0.13636350000000164,
            "durationTicks": 96,
            "midi": 0,
            "name": "C-1",
            "ticks": 59712,
            "time": 84.818097,
            "velocity": 0.3937007874015748
          },
          {
            "duration": 0.13636350000000164,
            "durationTicks": 96,
            "midi": 0,
            "name": "C-1",
            "ticks": 59712,
            "time": 84.818097,
            "velocity": 0.3937007874015748
          },
          {
            "duration": 0.13636350000000164,
            "durationTicks": 96,
            "midi": 0,
            "name": "C-1",
            "ticks": 59808,
            "time": 84.9544605,
            "velocity": 0.3937007874015748
          },
          {
            "duration": 0.13636350000000164,
            "durationTicks": 96,
            "midi": 0,
            "name": "C-1",
            "ticks": 59904,
            "time": 85.090824,
            "velocity": 0.3937007874015748
          },
          {
            "duration": 0.13636350000000164,
            "durationTicks": 96,
            "midi": 0,
            "name": "C-1",
            "ticks": 59904,
            "time": 85.090824,
            "velocity": 0.3937007874015748
          },
          {
            "duration": 0.13636350000000164,
            "durationTicks": 96,
            "midi": 0,
            "name": "C-1",
            "ticks": 59904,
            "time": 85.090824,
            "velocity": 0.3937007874015748
          },
          {
            "duration": 0.13636350000000164,
            "durationTicks": 96,
            "midi": 0,
            "name": "C-1",
            "ticks": 60000,
            "time": 85.2271875,
            "velocity": 0.3937007874015748
          },
          {
            "duration": 0.13636350000000164,
            "durationTicks": 96,
            "midi": 0,
            "name": "C-1",
            "ticks": 60096,
            "time": 85.363551,
            "velocity": 0.3937007874015748
          },
          {
            "duration": 0.13636350000000164,
            "durationTicks": 96,
            "midi": 0,
            "name": "C-1",
            "ticks": 60192,
            "time": 85.4999145,
            "velocity": 0.3937007874015748
          },
          {
            "duration": 0.13636350000000164,
            "durationTicks": 96,
            "midi": 0,
            "name": "C-1",
            "ticks": 60288,
            "time": 85.636278,
            "velocity": 0.3937007874015748
          },
          {
            "duration": 0.13636350000000164,
            "durationTicks": 96,
            "midi": 0,
            "name": "C-1",
            "ticks": 60288,
            "time": 85.636278,
            "velocity": 0.3937007874015748
          },
          {
            "duration": 0.13636350000000164,
            "durationTicks": 96,
            "midi": 0,
            "name": "C-1",
            "ticks": 60288,
            "time": 85.636278,
            "velocity": 0.3937007874015748
          },
          {
            "duration": 0.13636349999998743,
            "durationTicks": 96,
            "midi": 0,
            "name": "C-1",
            "ticks": 60384,
            "time": 85.7726415,
            "velocity": 0.3937007874015748
          },
          {
            "duration": 0.13636350000000164,
            "durationTicks": 96,
            "midi": 0,
            "name": "C-1",
            "ticks": 60480,
            "time": 85.909005,
            "velocity": 0.3937007874015748
          },
          {
            "duration": 0.13636350000000164,
            "durationTicks": 96,
            "midi": 0,
            "name": "C-1",
            "ticks": 60480,
            "time": 85.909005,
            "velocity": 0.3937007874015748
          },
          {
            "duration": 0.13636350000000164,
            "durationTicks": 96,
            "midi": 0,
            "name": "C-1",
            "ticks": 60576,
            "time": 86.0453685,
            "velocity": 0.3937007874015748
          },
          {
            "duration": 0.13636350000000164,
            "durationTicks": 96,
            "midi": 0,
            "name": "C-1",
            "ticks": 60672,
            "time": 86.181732,
            "velocity": 0.3937007874015748
          },
          {
            "duration": 0.13636350000000164,
            "durationTicks": 96,
            "midi": 0,
            "name": "C-1",
            "ticks": 60672,
            "time": 86.181732,
            "velocity": 0.3937007874015748
          },
          {
            "duration": 0.13636350000000164,
            "durationTicks": 96,
            "midi": 0,
            "name": "C-1",
            "ticks": 60768,
            "time": 86.3180955,
            "velocity": 0.3937007874015748
          },
          {
            "duration": 0.13636350000000164,
            "durationTicks": 96,
            "midi": 0,
            "name": "C-1",
            "ticks": 60864,
            "time": 86.454459,
            "velocity": 0.3937007874015748
          },
          {
            "duration": 0.13636350000000164,
            "durationTicks": 96,
            "midi": 0,
            "name": "C-1",
            "ticks": 60864,
            "time": 86.454459,
            "velocity": 0.3937007874015748
          },
          {
            "duration": 0.13636350000000164,
            "durationTicks": 96,
            "midi": 0,
            "name": "C-1",
            "ticks": 60864,
            "time": 86.454459,
            "velocity": 0.3937007874015748
          },
          {
            "duration": 0.13636350000000164,
            "durationTicks": 96,
            "midi": 0,
            "name": "C-1",
            "ticks": 60960,
            "time": 86.5908225,
            "velocity": 0.3937007874015748
          },
          {
            "duration": 0.13636350000000164,
            "durationTicks": 96,
            "midi": 0,
            "name": "C-1",
            "ticks": 61056,
            "time": 86.727186,
            "velocity": 0.3937007874015748
          },
          {
            "duration": 0.13636350000000164,
            "durationTicks": 96,
            "midi": 0,
            "name": "C-1",
            "ticks": 61056,
            "time": 86.727186,
            "velocity": 0.3937007874015748
          },
          {
            "duration": 0.13636350000000164,
            "durationTicks": 96,
            "midi": 0,
            "name": "C-1",
            "ticks": 61056,
            "time": 86.727186,
            "velocity": 0.3937007874015748
          },
          {
            "duration": 0.13636349999998743,
            "durationTicks": 96,
            "midi": 0,
            "name": "C-1",
            "ticks": 61152,
            "time": 86.8635495,
            "velocity": 0.3937007874015748
          },
          {
            "duration": 0.13636349999998743,
            "durationTicks": 96,
            "midi": 0,
            "name": "C-1",
            "ticks": 61152,
            "time": 86.8635495,
            "velocity": 0.3937007874015748
          },
          {
            "duration": 0.13636350000000164,
            "durationTicks": 96,
            "midi": 0,
            "name": "C-1",
            "ticks": 61248,
            "time": 86.99991299999999,
            "velocity": 0.3937007874015748
          },
          {
            "duration": 0.13636350000000164,
            "durationTicks": 96,
            "midi": 0,
            "name": "C-1",
            "ticks": 61248,
            "time": 86.99991299999999,
            "velocity": 0.3937007874015748
          },
          {
            "duration": 0.13636350000000164,
            "durationTicks": 96,
            "midi": 0,
            "name": "C-1",
            "ticks": 61248,
            "time": 86.99991299999999,
            "velocity": 0.3937007874015748
          },
          {
            "duration": 0.13636350000000164,
            "durationTicks": 96,
            "midi": 0,
            "name": "C-1",
            "ticks": 61344,
            "time": 87.1362765,
            "velocity": 0.3937007874015748
          },
          {
            "duration": 0.13636350000000164,
            "durationTicks": 96,
            "midi": 0,
            "name": "C-1",
            "ticks": 61344,
            "time": 87.1362765,
            "velocity": 0.3937007874015748
          },
          {
            "duration": 0.13636350000000164,
            "durationTicks": 96,
            "midi": 0,
            "name": "C-1",
            "ticks": 61344,
            "time": 87.1362765,
            "velocity": 0.3937007874015748
          },
          {
            "duration": 0.13636350000000164,
            "durationTicks": 96,
            "midi": 0,
            "name": "C-1",
            "ticks": 61440,
            "time": 87.27264,
            "velocity": 0.3937007874015748
          },
          {
            "duration": 0.13636350000000164,
            "durationTicks": 96,
            "midi": 0,
            "name": "C-1",
            "ticks": 61440,
            "time": 87.27264,
            "velocity": 0.3937007874015748
          },
          {
            "duration": 0.13636350000000164,
            "durationTicks": 96,
            "midi": 0,
            "name": "C-1",
            "ticks": 61440,
            "time": 87.27264,
            "velocity": 0.3937007874015748
          },
          {
            "duration": 0.13636350000000164,
            "durationTicks": 96,
            "midi": 0,
            "name": "C-1",
            "ticks": 61536,
            "time": 87.4090035,
            "velocity": 0.3937007874015748
          },
          {
            "duration": 0.13636350000000164,
            "durationTicks": 96,
            "midi": 0,
            "name": "C-1",
            "ticks": 61632,
            "time": 87.545367,
            "velocity": 0.3937007874015748
          },
          {
            "duration": 0.13636350000000164,
            "durationTicks": 96,
            "midi": 0,
            "name": "C-1",
            "ticks": 61728,
            "time": 87.6817305,
            "velocity": 0.3937007874015748
          },
          {
            "duration": 0.13636350000000164,
            "durationTicks": 96,
            "midi": 0,
            "name": "C-1",
            "ticks": 61824,
            "time": 87.818094,
            "velocity": 0.3937007874015748
          },
          {
            "duration": 0.13636350000000164,
            "durationTicks": 96,
            "midi": 0,
            "name": "C-1",
            "ticks": 61824,
            "time": 87.818094,
            "velocity": 0.3937007874015748
          },
          {
            "duration": 0.13636350000000164,
            "durationTicks": 96,
            "midi": 0,
            "name": "C-1",
            "ticks": 61824,
            "time": 87.818094,
            "velocity": 0.3937007874015748
          },
          {
            "duration": 0.13636350000000164,
            "durationTicks": 96,
            "midi": 0,
            "name": "C-1",
            "ticks": 61920,
            "time": 87.9544575,
            "velocity": 0.3937007874015748
          },
          {
            "duration": 0.13636349999998743,
            "durationTicks": 96,
            "midi": 0,
            "name": "C-1",
            "ticks": 62016,
            "time": 88.090821,
            "velocity": 0.3937007874015748
          },
          {
            "duration": 0.13636350000000164,
            "durationTicks": 96,
            "midi": 0,
            "name": "C-1",
            "ticks": 62112,
            "time": 88.22718449999999,
            "velocity": 0.3937007874015748
          },
          {
            "duration": 0.13636350000000164,
            "durationTicks": 96,
            "midi": 0,
            "name": "C-1",
            "ticks": 62208,
            "time": 88.363548,
            "velocity": 0.3937007874015748
          },
          {
            "duration": 0.13636350000000164,
            "durationTicks": 96,
            "midi": 0,
            "name": "C-1",
            "ticks": 62208,
            "time": 88.363548,
            "velocity": 0.3937007874015748
          },
          {
            "duration": 0.13636350000000164,
            "durationTicks": 96,
            "midi": 0,
            "name": "C-1",
            "ticks": 62208,
            "time": 88.363548,
            "velocity": 0.3937007874015748
          },
          {
            "duration": 0.13636350000000164,
            "durationTicks": 96,
            "midi": 0,
            "name": "C-1",
            "ticks": 62304,
            "time": 88.4999115,
            "velocity": 0.3937007874015748
          },
          {
            "duration": 0.13636350000000164,
            "durationTicks": 96,
            "midi": 0,
            "name": "C-1",
            "ticks": 62400,
            "time": 88.636275,
            "velocity": 0.3937007874015748
          },
          {
            "duration": 0.13636350000000164,
            "durationTicks": 96,
            "midi": 0,
            "name": "C-1",
            "ticks": 62400,
            "time": 88.636275,
            "velocity": 0.3937007874015748
          },
          {
            "duration": 0.13636350000000164,
            "durationTicks": 96,
            "midi": 0,
            "name": "C-1",
            "ticks": 62400,
            "time": 88.636275,
            "velocity": 0.3937007874015748
          },
          {
            "duration": 0.13636350000000164,
            "durationTicks": 96,
            "midi": 0,
            "name": "C-1",
            "ticks": 62496,
            "time": 88.7726385,
            "velocity": 0.3937007874015748
          },
          {
            "duration": 0.13636350000000164,
            "durationTicks": 96,
            "midi": 0,
            "name": "C-1",
            "ticks": 62592,
            "time": 88.909002,
            "velocity": 0.3937007874015748
          },
          {
            "duration": 0.13636350000000164,
            "durationTicks": 96,
            "midi": 0,
            "name": "C-1",
            "ticks": 62592,
            "time": 88.909002,
            "velocity": 0.3937007874015748
          },
          {
            "duration": 0.13636350000000164,
            "durationTicks": 96,
            "midi": 0,
            "name": "C-1",
            "ticks": 62592,
            "time": 88.909002,
            "velocity": 0.3937007874015748
          },
          {
            "duration": 0.13636350000000164,
            "durationTicks": 96,
            "midi": 0,
            "name": "C-1",
            "ticks": 62688,
            "time": 89.0453655,
            "velocity": 0.3937007874015748
          },
          {
            "duration": 0.13636350000000164,
            "durationTicks": 96,
            "midi": 0,
            "name": "C-1",
            "ticks": 62784,
            "time": 89.181729,
            "velocity": 0.3937007874015748
          },
          {
            "duration": 0.13636350000000164,
            "durationTicks": 96,
            "midi": 0,
            "name": "C-1",
            "ticks": 62784,
            "time": 89.181729,
            "velocity": 0.3937007874015748
          },
          {
            "duration": 0.13636349999998743,
            "durationTicks": 96,
            "midi": 0,
            "name": "C-1",
            "ticks": 62880,
            "time": 89.3180925,
            "velocity": 0.3937007874015748
          },
          {
            "duration": 0.13636350000000164,
            "durationTicks": 96,
            "midi": 0,
            "name": "C-1",
            "ticks": 62976,
            "time": 89.454456,
            "velocity": 0.3937007874015748
          },
          {
            "duration": 0.13636350000000164,
            "durationTicks": 96,
            "midi": 0,
            "name": "C-1",
            "ticks": 62976,
            "time": 89.454456,
            "velocity": 0.3937007874015748
          },
          {
            "duration": 0.13636350000000164,
            "durationTicks": 96,
            "midi": 0,
            "name": "C-1",
            "ticks": 62976,
            "time": 89.454456,
            "velocity": 0.3937007874015748
          },
          {
            "duration": 0.13636350000000164,
            "durationTicks": 96,
            "midi": 0,
            "name": "C-1",
            "ticks": 63072,
            "time": 89.5908195,
            "velocity": 0.3937007874015748
          },
          {
            "duration": 0.13636350000000164,
            "durationTicks": 96,
            "midi": 0,
            "name": "C-1",
            "ticks": 63168,
            "time": 89.727183,
            "velocity": 0.3937007874015748
          },
          {
            "duration": 0.13636350000000164,
            "durationTicks": 96,
            "midi": 0,
            "name": "C-1",
            "ticks": 63264,
            "time": 89.8635465,
            "velocity": 0.3937007874015748
          },
          {
            "duration": 0.13636350000000164,
            "durationTicks": 96,
            "midi": 0,
            "name": "C-1",
            "ticks": 63360,
            "time": 89.99991,
            "velocity": 0.3937007874015748
          },
          {
            "duration": 0.13636350000000164,
            "durationTicks": 96,
            "midi": 0,
            "name": "C-1",
            "ticks": 63360,
            "time": 89.99991,
            "velocity": 0.3937007874015748
          },
          {
            "duration": 0.13636350000000164,
            "durationTicks": 96,
            "midi": 0,
            "name": "C-1",
            "ticks": 63360,
            "time": 89.99991,
            "velocity": 0.3937007874015748
          },
          {
            "duration": 0.13636350000000164,
            "durationTicks": 96,
            "midi": 0,
            "name": "C-1",
            "ticks": 63456,
            "time": 90.1362735,
            "velocity": 0.3937007874015748
          },
          {
            "duration": 0.13636350000000164,
            "durationTicks": 96,
            "midi": 0,
            "name": "C-1",
            "ticks": 63552,
            "time": 90.272637,
            "velocity": 0.3937007874015748
          },
          {
            "duration": 0.13636350000000164,
            "durationTicks": 96,
            "midi": 0,
            "name": "C-1",
            "ticks": 63552,
            "time": 90.272637,
            "velocity": 0.3937007874015748
          },
          {
            "duration": 0.13636349999998743,
            "durationTicks": 96,
            "midi": 0,
            "name": "C-1",
            "ticks": 63648,
            "time": 90.4090005,
            "velocity": 0.3937007874015748
          },
          {
            "duration": 0.13636350000000164,
            "durationTicks": 96,
            "midi": 0,
            "name": "C-1",
            "ticks": 63744,
            "time": 90.54536399999999,
            "velocity": 0.3937007874015748
          },
          {
            "duration": 0.13636350000000164,
            "durationTicks": 96,
            "midi": 0,
            "name": "C-1",
            "ticks": 63744,
            "time": 90.54536399999999,
            "velocity": 0.3937007874015748
          },
          {
            "duration": 0.13636350000000164,
            "durationTicks": 96,
            "midi": 0,
            "name": "C-1",
            "ticks": 63840,
            "time": 90.6817275,
            "velocity": 0.3937007874015748
          },
          {
            "duration": 0.13636350000000164,
            "durationTicks": 96,
            "midi": 0,
            "name": "C-1",
            "ticks": 63936,
            "time": 90.818091,
            "velocity": 0.3937007874015748
          },
          {
            "duration": 0.13636350000000164,
            "durationTicks": 96,
            "midi": 0,
            "name": "C-1",
            "ticks": 63936,
            "time": 90.818091,
            "velocity": 0.3937007874015748
          },
          {
            "duration": 0.13636350000000164,
            "durationTicks": 96,
            "midi": 0,
            "name": "C-1",
            "ticks": 63936,
            "time": 90.818091,
            "velocity": 0.3937007874015748
          },
          {
            "duration": 0.13636350000000164,
            "durationTicks": 96,
            "midi": 0,
            "name": "C-1",
            "ticks": 64032,
            "time": 90.9544545,
            "velocity": 0.3937007874015748
          },
          {
            "duration": 0.13636350000000164,
            "durationTicks": 96,
            "midi": 0,
            "name": "C-1",
            "ticks": 64128,
            "time": 91.090818,
            "velocity": 0.3937007874015748
          },
          {
            "duration": 0.13636350000000164,
            "durationTicks": 96,
            "midi": 0,
            "name": "C-1",
            "ticks": 64128,
            "time": 91.090818,
            "velocity": 0.3937007874015748
          },
          {
            "duration": 0.13636350000000164,
            "durationTicks": 96,
            "midi": 0,
            "name": "C-1",
            "ticks": 64128,
            "time": 91.090818,
            "velocity": 0.3937007874015748
          },
          {
            "duration": 0.13636350000000164,
            "durationTicks": 96,
            "midi": 0,
            "name": "C-1",
            "ticks": 64224,
            "time": 91.2271815,
            "velocity": 0.3937007874015748
          },
          {
            "duration": 0.13636350000000164,
            "durationTicks": 96,
            "midi": 0,
            "name": "C-1",
            "ticks": 64224,
            "time": 91.2271815,
            "velocity": 0.3937007874015748
          },
          {
            "duration": 0.13636350000000164,
            "durationTicks": 96,
            "midi": 0,
            "name": "C-1",
            "ticks": 64320,
            "time": 91.363545,
            "velocity": 0.3937007874015748
          },
          {
            "duration": 0.13636350000000164,
            "durationTicks": 96,
            "midi": 0,
            "name": "C-1",
            "ticks": 64320,
            "time": 91.363545,
            "velocity": 0.3937007874015748
          },
          {
            "duration": 0.13636350000000164,
            "durationTicks": 96,
            "midi": 0,
            "name": "C-1",
            "ticks": 64320,
            "time": 91.363545,
            "velocity": 0.3937007874015748
          },
          {
            "duration": 0.13636350000000164,
            "durationTicks": 96,
            "midi": 0,
            "name": "C-1",
            "ticks": 64416,
            "time": 91.4999085,
            "velocity": 0.3937007874015748
          },
          {
            "duration": 0.13636350000000164,
            "durationTicks": 96,
            "midi": 0,
            "name": "C-1",
            "ticks": 64416,
            "time": 91.4999085,
            "velocity": 0.3937007874015748
          },
          {
            "duration": 0.13636350000000164,
            "durationTicks": 96,
            "midi": 0,
            "name": "C-1",
            "ticks": 64416,
            "time": 91.4999085,
            "velocity": 0.3937007874015748
          },
          {
            "duration": 0.13636349999998743,
            "durationTicks": 96,
            "midi": 0,
            "name": "C-1",
            "ticks": 64512,
            "time": 91.636272,
            "velocity": 0.3937007874015748
          },
          {
            "duration": 0.13636349999998743,
            "durationTicks": 96,
            "midi": 0,
            "name": "C-1",
            "ticks": 64512,
            "time": 91.636272,
            "velocity": 0.3937007874015748
          },
          {
            "duration": 0.13636349999998743,
            "durationTicks": 96,
            "midi": 0,
            "name": "C-1",
            "ticks": 64512,
            "time": 91.636272,
            "velocity": 0.3937007874015748
          },
          {
            "duration": 0.13636350000000164,
            "durationTicks": 96,
            "midi": 0,
            "name": "C-1",
            "ticks": 64608,
            "time": 91.77263549999999,
            "velocity": 0.3937007874015748
          },
          {
            "duration": 0.13636350000000164,
            "durationTicks": 96,
            "midi": 0,
            "name": "C-1",
            "ticks": 64704,
            "time": 91.908999,
            "velocity": 0.3937007874015748
          },
          {
            "duration": 0.13636350000000164,
            "durationTicks": 96,
            "midi": 0,
            "name": "C-1",
            "ticks": 64800,
            "time": 92.0453625,
            "velocity": 0.3937007874015748
          },
          {
            "duration": 0.13636350000000164,
            "durationTicks": 96,
            "midi": 0,
            "name": "C-1",
            "ticks": 64896,
            "time": 92.181726,
            "velocity": 0.3937007874015748
          },
          {
            "duration": 0.13636350000000164,
            "durationTicks": 96,
            "midi": 0,
            "name": "C-1",
            "ticks": 64896,
            "time": 92.181726,
            "velocity": 0.3937007874015748
          },
          {
            "duration": 0.13636350000000164,
            "durationTicks": 96,
            "midi": 0,
            "name": "C-1",
            "ticks": 64896,
            "time": 92.181726,
            "velocity": 0.3937007874015748
          },
          {
            "duration": 0.13636350000000164,
            "durationTicks": 96,
            "midi": 0,
            "name": "C-1",
            "ticks": 64992,
            "time": 92.3180895,
            "velocity": 0.3937007874015748
          },
          {
            "duration": 0.13636350000000164,
            "durationTicks": 96,
            "midi": 0,
            "name": "C-1",
            "ticks": 65088,
            "time": 92.454453,
            "velocity": 0.3937007874015748
          },
          {
            "duration": 0.13636350000000164,
            "durationTicks": 96,
            "midi": 0,
            "name": "C-1",
            "ticks": 65184,
            "time": 92.5908165,
            "velocity": 0.3937007874015748
          },
          {
            "duration": 0.13636350000000164,
            "durationTicks": 96,
            "midi": 0,
            "name": "C-1",
            "ticks": 65280,
            "time": 92.72718,
            "velocity": 0.3937007874015748
          },
          {
            "duration": 0.13636350000000164,
            "durationTicks": 96,
            "midi": 0,
            "name": "C-1",
            "ticks": 65280,
            "time": 92.72718,
            "velocity": 0.3937007874015748
          },
          {
            "duration": 0.13636350000000164,
            "durationTicks": 96,
            "midi": 0,
            "name": "C-1",
            "ticks": 65280,
            "time": 92.72718,
            "velocity": 0.3937007874015748
          },
          {
            "duration": 0.13636349999998743,
            "durationTicks": 96,
            "midi": 0,
            "name": "C-1",
            "ticks": 65376,
            "time": 92.8635435,
            "velocity": 0.3937007874015748
          },
          {
            "duration": 0.13636350000000164,
            "durationTicks": 96,
            "midi": 0,
            "name": "C-1",
            "ticks": 65472,
            "time": 92.999907,
            "velocity": 0.3937007874015748
          },
          {
            "duration": 0.13636350000000164,
            "durationTicks": 96,
            "midi": 0,
            "name": "C-1",
            "ticks": 65472,
            "time": 92.999907,
            "velocity": 0.3937007874015748
          },
          {
            "duration": 0.13636350000000164,
            "durationTicks": 96,
            "midi": 0,
            "name": "C-1",
            "ticks": 65472,
            "time": 92.999907,
            "velocity": 0.3937007874015748
          },
          {
            "duration": 0.13636350000000164,
            "durationTicks": 96,
            "midi": 0,
            "name": "C-1",
            "ticks": 65568,
            "time": 93.1362705,
            "velocity": 0.3937007874015748
          },
          {
            "duration": 0.13636350000000164,
            "durationTicks": 96,
            "midi": 0,
            "name": "C-1",
            "ticks": 65664,
            "time": 93.272634,
            "velocity": 0.3937007874015748
          },
          {
            "duration": 0.13636350000000164,
            "durationTicks": 96,
            "midi": 0,
            "name": "C-1",
            "ticks": 65664,
            "time": 93.272634,
            "velocity": 0.3937007874015748
          },
          {
            "duration": 0.13636350000000164,
            "durationTicks": 96,
            "midi": 0,
            "name": "C-1",
            "ticks": 65664,
            "time": 93.272634,
            "velocity": 0.3937007874015748
          },
          {
            "duration": 0.13636350000000164,
            "durationTicks": 96,
            "midi": 0,
            "name": "C-1",
            "ticks": 65760,
            "time": 93.4089975,
            "velocity": 0.3937007874015748
          },
          {
            "duration": 0.13636350000000164,
            "durationTicks": 96,
            "midi": 0,
            "name": "C-1",
            "ticks": 65856,
            "time": 93.545361,
            "velocity": 0.3937007874015748
          },
          {
            "duration": 0.13636350000000164,
            "durationTicks": 96,
            "midi": 0,
            "name": "C-1",
            "ticks": 65856,
            "time": 93.545361,
            "velocity": 0.3937007874015748
          },
          {
            "duration": 0.13636350000000164,
            "durationTicks": 96,
            "midi": 0,
            "name": "C-1",
            "ticks": 65952,
            "time": 93.6817245,
            "velocity": 0.3937007874015748
          },
          {
            "duration": 0.13636350000000164,
            "durationTicks": 96,
            "midi": 0,
            "name": "C-1",
            "ticks": 66048,
            "time": 93.818088,
            "velocity": 0.3937007874015748
          },
          {
            "duration": 0.13636350000000164,
            "durationTicks": 96,
            "midi": 0,
            "name": "C-1",
            "ticks": 66048,
            "time": 93.818088,
            "velocity": 0.3937007874015748
          },
          {
            "duration": 0.13636350000000164,
            "durationTicks": 96,
            "midi": 0,
            "name": "C-1",
            "ticks": 66048,
            "time": 93.818088,
            "velocity": 0.3937007874015748
          },
          {
            "duration": 0.13636349999998743,
            "durationTicks": 96,
            "midi": 0,
            "name": "C-1",
            "ticks": 66144,
            "time": 93.9544515,
            "velocity": 0.3937007874015748
          },
          {
            "duration": 0.13636350000000164,
            "durationTicks": 96,
            "midi": 0,
            "name": "C-1",
            "ticks": 66240,
            "time": 94.09081499999999,
            "velocity": 0.3937007874015748
          },
          {
            "duration": 0.13636350000000164,
            "durationTicks": 96,
            "midi": 0,
            "name": "C-1",
            "ticks": 66336,
            "time": 94.2271785,
            "velocity": 0.3937007874015748
          },
          {
            "duration": 0.13636350000000164,
            "durationTicks": 96,
            "midi": 0,
            "name": "C-1",
            "ticks": 66432,
            "time": 94.363542,
            "velocity": 0.3937007874015748
          },
          {
            "duration": 0.13636350000000164,
            "durationTicks": 96,
            "midi": 0,
            "name": "C-1",
            "ticks": 66432,
            "time": 94.363542,
            "velocity": 0.3937007874015748
          },
          {
            "duration": 0.13636350000000164,
            "durationTicks": 96,
            "midi": 0,
            "name": "C-1",
            "ticks": 66432,
            "time": 94.363542,
            "velocity": 0.3937007874015748
          },
          {
            "duration": 0.13636350000000164,
            "durationTicks": 96,
            "midi": 0,
            "name": "C-1",
            "ticks": 66528,
            "time": 94.4999055,
            "velocity": 0.3937007874015748
          },
          {
            "duration": 0.13636350000000164,
            "durationTicks": 96,
            "midi": 0,
            "name": "C-1",
            "ticks": 66624,
            "time": 94.636269,
            "velocity": 0.3937007874015748
          },
          {
            "duration": 0.13636350000000164,
            "durationTicks": 96,
            "midi": 0,
            "name": "C-1",
            "ticks": 66624,
            "time": 94.636269,
            "velocity": 0.3937007874015748
          },
          {
            "duration": 0.13636350000000164,
            "durationTicks": 96,
            "midi": 0,
            "name": "C-1",
            "ticks": 66720,
            "time": 94.7726325,
            "velocity": 0.3937007874015748
          },
          {
            "duration": 0.13636350000000164,
            "durationTicks": 96,
            "midi": 0,
            "name": "C-1",
            "ticks": 66816,
            "time": 94.908996,
            "velocity": 0.3937007874015748
          },
          {
            "duration": 0.13636350000000164,
            "durationTicks": 96,
            "midi": 0,
            "name": "C-1",
            "ticks": 66816,
            "time": 94.908996,
            "velocity": 0.3937007874015748
          },
          {
            "duration": 0.13636350000000164,
            "durationTicks": 96,
            "midi": 0,
            "name": "C-1",
            "ticks": 66912,
            "time": 95.0453595,
            "velocity": 0.3937007874015748
          },
          {
            "duration": 0.13636349999998743,
            "durationTicks": 96,
            "midi": 0,
            "name": "C-1",
            "ticks": 67008,
            "time": 95.181723,
            "velocity": 0.3937007874015748
          },
          {
            "duration": 0.13636349999998743,
            "durationTicks": 96,
            "midi": 0,
            "name": "C-1",
            "ticks": 67008,
            "time": 95.181723,
            "velocity": 0.3937007874015748
          },
          {
            "duration": 0.13636349999998743,
            "durationTicks": 96,
            "midi": 0,
            "name": "C-1",
            "ticks": 67008,
            "time": 95.181723,
            "velocity": 0.3937007874015748
          },
          {
            "duration": 0.13636350000000164,
            "durationTicks": 96,
            "midi": 0,
            "name": "C-1",
            "ticks": 67104,
            "time": 95.31808649999999,
            "velocity": 0.3937007874015748
          },
          {
            "duration": 0.13636350000000164,
            "durationTicks": 96,
            "midi": 0,
            "name": "C-1",
            "ticks": 67200,
            "time": 95.45445,
            "velocity": 0.3937007874015748
          },
          {
            "duration": 0.13636350000000164,
            "durationTicks": 96,
            "midi": 0,
            "name": "C-1",
            "ticks": 67200,
            "time": 95.45445,
            "velocity": 0.3937007874015748
          },
          {
            "duration": 0.13636350000000164,
            "durationTicks": 96,
            "midi": 0,
            "name": "C-1",
            "ticks": 67200,
            "time": 95.45445,
            "velocity": 0.3937007874015748
          },
          {
            "duration": 0.13636350000000164,
            "durationTicks": 96,
            "midi": 0,
            "name": "C-1",
            "ticks": 67296,
            "time": 95.5908135,
            "velocity": 0.3937007874015748
          },
          {
            "duration": 0.13636350000000164,
            "durationTicks": 96,
            "midi": 0,
            "name": "C-1",
            "ticks": 67296,
            "time": 95.5908135,
            "velocity": 0.3937007874015748
          },
          {
            "duration": 0.13636350000000164,
            "durationTicks": 96,
            "midi": 0,
            "name": "C-1",
            "ticks": 67392,
            "time": 95.727177,
            "velocity": 0.3937007874015748
          },
          {
            "duration": 0.13636350000000164,
            "durationTicks": 96,
            "midi": 0,
            "name": "C-1",
            "ticks": 67392,
            "time": 95.727177,
            "velocity": 0.3937007874015748
          },
          {
            "duration": 0.13636350000000164,
            "durationTicks": 96,
            "midi": 0,
            "name": "C-1",
            "ticks": 67392,
            "time": 95.727177,
            "velocity": 0.3937007874015748
          },
          {
            "duration": 0.13636350000000164,
            "durationTicks": 96,
            "midi": 0,
            "name": "C-1",
            "ticks": 67488,
            "time": 95.8635405,
            "velocity": 0.3937007874015748
          },
          {
            "duration": 0.13636350000000164,
            "durationTicks": 96,
            "midi": 0,
            "name": "C-1",
            "ticks": 67488,
            "time": 95.8635405,
            "velocity": 0.3937007874015748
          },
          {
            "duration": 0.13636350000000164,
            "durationTicks": 96,
            "midi": 0,
            "name": "C-1",
            "ticks": 67488,
            "time": 95.8635405,
            "velocity": 0.3937007874015748
          },
          {
            "duration": 0.13636350000000164,
            "durationTicks": 96,
            "midi": 0,
            "name": "C-1",
            "ticks": 67584,
            "time": 95.999904,
            "velocity": 0.3937007874015748
          },
          {
            "duration": 0.13636350000000164,
            "durationTicks": 96,
            "midi": 0,
            "name": "C-1",
            "ticks": 67584,
            "time": 95.999904,
            "velocity": 0.3937007874015748
          },
          {
            "duration": 0.13636350000000164,
            "durationTicks": 96,
            "midi": 0,
            "name": "C-1",
            "ticks": 67968,
            "time": 96.545358,
            "velocity": 0.3937007874015748
          },
          {
            "duration": 0.13636350000000164,
            "durationTicks": 96,
            "midi": 0,
            "name": "C-1",
            "ticks": 67968,
            "time": 96.545358,
            "velocity": 0.3937007874015748
          },
          {
            "duration": 0.13636350000000164,
            "durationTicks": 96,
            "midi": 0,
            "name": "C-1",
            "ticks": 68352,
            "time": 97.090812,
            "velocity": 0.3937007874015748
          },
          {
            "duration": 0.13636350000000164,
            "durationTicks": 96,
            "midi": 0,
            "name": "C-1",
            "ticks": 68352,
            "time": 97.090812,
            "velocity": 0.3937007874015748
          },
          {
            "duration": 0.13636350000000164,
            "durationTicks": 96,
            "midi": 0,
            "name": "C-1",
            "ticks": 68736,
            "time": 97.63626599999999,
            "velocity": 0.3937007874015748
          },
          {
            "duration": 0.13636350000000164,
            "durationTicks": 96,
            "midi": 0,
            "name": "C-1",
            "ticks": 68736,
            "time": 97.63626599999999,
            "velocity": 0.3937007874015748
          },
          {
            "duration": 0.13636350000000164,
            "durationTicks": 96,
            "midi": 0,
            "name": "C-1",
            "ticks": 69120,
            "time": 98.18172,
            "velocity": 0.3937007874015748
          },
          {
            "duration": 0.13636350000000164,
            "durationTicks": 96,
            "midi": 0,
            "name": "C-1",
            "ticks": 69120,
            "time": 98.18172,
            "velocity": 0.3937007874015748
          },
          {
            "duration": 0.13636349999998743,
            "durationTicks": 96,
            "midi": 0,
            "name": "C-1",
            "ticks": 69504,
            "time": 98.727174,
            "velocity": 0.3937007874015748
          },
          {
            "duration": 0.13636349999998743,
            "durationTicks": 96,
            "midi": 0,
            "name": "C-1",
            "ticks": 69504,
            "time": 98.727174,
            "velocity": 0.3937007874015748
          },
          {
            "duration": 0.13636350000000164,
            "durationTicks": 96,
            "midi": 0,
            "name": "C-1",
            "ticks": 69888,
            "time": 99.272628,
            "velocity": 0.3937007874015748
          },
          {
            "duration": 0.13636350000000164,
            "durationTicks": 96,
            "midi": 0,
            "name": "C-1",
            "ticks": 69888,
            "time": 99.272628,
            "velocity": 0.3937007874015748
          },
          {
            "duration": 0.13636350000000164,
            "durationTicks": 96,
            "midi": 0,
            "name": "C-1",
            "ticks": 70272,
            "time": 99.818082,
            "velocity": 0.3937007874015748
          },
          {
            "duration": 0.13636350000000164,
            "durationTicks": 96,
            "midi": 0,
            "name": "C-1",
            "ticks": 70272,
            "time": 99.818082,
            "velocity": 0.3937007874015748
          },
          {
            "duration": 0.13636350000000164,
            "durationTicks": 96,
            "midi": 0,
            "name": "C-1",
            "ticks": 70656,
            "time": 100.363536,
            "velocity": 0.3937007874015748
          },
          {
            "duration": 0.13636350000000164,
            "durationTicks": 96,
            "midi": 0,
            "name": "C-1",
            "ticks": 70656,
            "time": 100.363536,
            "velocity": 0.3937007874015748
          },
          {
            "duration": 0.13636350000000164,
            "durationTicks": 96,
            "midi": 0,
            "name": "C-1",
            "ticks": 70848,
            "time": 100.636263,
            "velocity": 0.3937007874015748
          },
          {
            "duration": 0.13636350000000164,
            "durationTicks": 96,
            "midi": 0,
            "name": "C-1",
            "ticks": 70848,
            "time": 100.636263,
            "velocity": 0.3937007874015748
          },
          {
            "duration": 0.13636350000000164,
            "durationTicks": 96,
            "midi": 0,
            "name": "C-1",
            "ticks": 71040,
            "time": 100.90899,
            "velocity": 0.3937007874015748
          },
          {
            "duration": 0.13636350000000164,
            "durationTicks": 96,
            "midi": 0,
            "name": "C-1",
            "ticks": 71040,
            "time": 100.90899,
            "velocity": 0.3937007874015748
          },
          {
            "duration": 0.13636350000000164,
            "durationTicks": 96,
            "midi": 0,
            "name": "C-1",
            "ticks": 71232,
            "time": 101.18171699999999,
            "velocity": 0.3937007874015748
          },
          {
            "duration": 0.13636350000000164,
            "durationTicks": 96,
            "midi": 0,
            "name": "C-1",
            "ticks": 71232,
            "time": 101.18171699999999,
            "velocity": 0.3937007874015748
          },
          {
            "duration": 0.13636350000000164,
            "durationTicks": 96,
            "midi": 0,
            "name": "C-1",
            "ticks": 71424,
            "time": 101.454444,
            "velocity": 0.3937007874015748
          },
          {
            "duration": 0.13636350000000164,
            "durationTicks": 96,
            "midi": 0,
            "name": "C-1",
            "ticks": 71424,
            "time": 101.454444,
            "velocity": 0.3937007874015748
          },
          {
            "duration": 0.13636350000000164,
            "durationTicks": 96,
            "midi": 0,
            "name": "C-1",
            "ticks": 71616,
            "time": 101.727171,
            "velocity": 0.3937007874015748
          },
          {
            "duration": 0.13636350000000164,
            "durationTicks": 96,
            "midi": 0,
            "name": "C-1",
            "ticks": 71616,
            "time": 101.727171,
            "velocity": 0.3937007874015748
          },
          {
            "duration": 0.13636350000000164,
            "durationTicks": 96,
            "midi": 0,
            "name": "C-1",
            "ticks": 71808,
            "time": 101.999898,
            "velocity": 0.3937007874015748
          },
          {
            "duration": 0.13636350000000164,
            "durationTicks": 96,
            "midi": 0,
            "name": "C-1",
            "ticks": 71808,
            "time": 101.999898,
            "velocity": 0.3937007874015748
          },
          {
            "duration": 0.13636349999998743,
            "durationTicks": 96,
            "midi": 0,
            "name": "C-1",
            "ticks": 72000,
            "time": 102.272625,
            "velocity": 0.3937007874015748
          },
          {
            "duration": 0.13636349999998743,
            "durationTicks": 96,
            "midi": 0,
            "name": "C-1",
            "ticks": 72000,
            "time": 102.272625,
            "velocity": 0.3937007874015748
          },
          {
            "duration": 0.13636350000000164,
            "durationTicks": 96,
            "midi": 0,
            "name": "C-1",
            "ticks": 72192,
            "time": 102.545352,
            "velocity": 0.3937007874015748
          },
          {
            "duration": 0.13636350000000164,
            "durationTicks": 96,
            "midi": 0,
            "name": "C-1",
            "ticks": 72192,
            "time": 102.545352,
            "velocity": 0.3937007874015748
          },
          {
            "duration": 0.13636350000000164,
            "durationTicks": 96,
            "midi": 0,
            "name": "C-1",
            "ticks": 72288,
            "time": 102.6817155,
            "velocity": 0.3937007874015748
          },
          {
            "duration": 0.13636350000000164,
            "durationTicks": 96,
            "midi": 0,
            "name": "C-1",
            "ticks": 72288,
            "time": 102.6817155,
            "velocity": 0.3937007874015748
          },
          {
            "duration": 0.13636350000000164,
            "durationTicks": 96,
            "midi": 0,
            "name": "C-1",
            "ticks": 72384,
            "time": 102.818079,
            "velocity": 0.3937007874015748
          },
          {
            "duration": 0.13636350000000164,
            "durationTicks": 96,
            "midi": 0,
            "name": "C-1",
            "ticks": 72384,
            "time": 102.818079,
            "velocity": 0.3937007874015748
          },
          {
            "duration": 0.13636350000000164,
            "durationTicks": 96,
            "midi": 0,
            "name": "C-1",
            "ticks": 72480,
            "time": 102.9544425,
            "velocity": 0.3937007874015748
          },
          {
            "duration": 0.13636350000000164,
            "durationTicks": 96,
            "midi": 0,
            "name": "C-1",
            "ticks": 72480,
            "time": 102.9544425,
            "velocity": 0.3937007874015748
          },
          {
            "duration": 0.13636350000000164,
            "durationTicks": 96,
            "midi": 0,
            "name": "C-1",
            "ticks": 72576,
            "time": 103.090806,
            "velocity": 0.3937007874015748
          },
          {
            "duration": 0.13636350000000164,
            "durationTicks": 96,
            "midi": 0,
            "name": "C-1",
            "ticks": 72576,
            "time": 103.090806,
            "velocity": 0.3937007874015748
          },
          {
            "duration": 0.13636350000000164,
            "durationTicks": 96,
            "midi": 0,
            "name": "C-1",
            "ticks": 72672,
            "time": 103.2271695,
            "velocity": 0.3937007874015748
          },
          {
            "duration": 0.13636350000000164,
            "durationTicks": 96,
            "midi": 0,
            "name": "C-1",
            "ticks": 72672,
            "time": 103.2271695,
            "velocity": 0.3937007874015748
          },
          {
            "duration": 0.13636350000000164,
            "durationTicks": 96,
            "midi": 0,
            "name": "C-1",
            "ticks": 72768,
            "time": 103.363533,
            "velocity": 0.3937007874015748
          },
          {
            "duration": 0.13636350000000164,
            "durationTicks": 96,
            "midi": 0,
            "name": "C-1",
            "ticks": 72768,
            "time": 103.363533,
            "velocity": 0.3937007874015748
          },
          {
            "duration": 0.13636349999998743,
            "durationTicks": 96,
            "midi": 0,
            "name": "C-1",
            "ticks": 72864,
            "time": 103.4998965,
            "velocity": 0.3937007874015748
          },
          {
            "duration": 0.13636349999998743,
            "durationTicks": 96,
            "midi": 0,
            "name": "C-1",
            "ticks": 72864,
            "time": 103.4998965,
            "velocity": 0.3937007874015748
          },
          {
            "duration": 0.13636350000000164,
            "durationTicks": 96,
            "midi": 0,
            "name": "C-1",
            "ticks": 72960,
            "time": 103.63626,
            "velocity": 0.3937007874015748
          },
          {
            "duration": 0.13636350000000164,
            "durationTicks": 96,
            "midi": 0,
            "name": "C-1",
            "ticks": 72960,
            "time": 103.63626,
            "velocity": 0.3937007874015748
          },
          {
            "duration": 0.13636350000000164,
            "durationTicks": 96,
            "midi": 0,
            "name": "C-1",
            "ticks": 72960,
            "time": 103.63626,
            "velocity": 0.3937007874015748
          },
          {
            "duration": 0.13636350000000164,
            "durationTicks": 96,
            "midi": 0,
            "name": "C-1",
            "ticks": 73056,
            "time": 103.7726235,
            "velocity": 0.3937007874015748
          },
          {
            "duration": 0.13636350000000164,
            "durationTicks": 96,
            "midi": 0,
            "name": "C-1",
            "ticks": 73056,
            "time": 103.7726235,
            "velocity": 0.3937007874015748
          },
          {
            "duration": 0.13636350000000164,
            "durationTicks": 96,
            "midi": 0,
            "name": "C-1",
            "ticks": 73152,
            "time": 103.908987,
            "velocity": 0.3937007874015748
          },
          {
            "duration": 0.13636350000000164,
            "durationTicks": 96,
            "midi": 0,
            "name": "C-1",
            "ticks": 73152,
            "time": 103.908987,
            "velocity": 0.3937007874015748
          },
          {
            "duration": 0.13636350000000164,
            "durationTicks": 96,
            "midi": 0,
            "name": "C-1",
            "ticks": 73248,
            "time": 104.0453505,
            "velocity": 0.3937007874015748
          },
          {
            "duration": 0.13636350000000164,
            "durationTicks": 96,
            "midi": 0,
            "name": "C-1",
            "ticks": 73248,
            "time": 104.0453505,
            "velocity": 0.3937007874015748
          },
          {
            "duration": 0.13636350000000164,
            "durationTicks": 96,
            "midi": 0,
            "name": "C-1",
            "ticks": 73344,
            "time": 104.181714,
            "velocity": 0.3937007874015748
          },
          {
            "duration": 0.13636350000000164,
            "durationTicks": 96,
            "midi": 0,
            "name": "C-1",
            "ticks": 73344,
            "time": 104.181714,
            "velocity": 0.3937007874015748
          },
          {
            "duration": 0.13636350000000164,
            "durationTicks": 96,
            "midi": 0,
            "name": "C-1",
            "ticks": 73344,
            "time": 104.181714,
            "velocity": 0.3937007874015748
          },
          {
            "duration": 0.13636350000000164,
            "durationTicks": 96,
            "midi": 0,
            "name": "C-1",
            "ticks": 73440,
            "time": 104.3180775,
            "velocity": 0.3937007874015748
          },
          {
            "duration": 0.13636350000000164,
            "durationTicks": 96,
            "midi": 0,
            "name": "C-1",
            "ticks": 73440,
            "time": 104.3180775,
            "velocity": 0.3937007874015748
          },
          {
            "duration": 0.13636350000000164,
            "durationTicks": 96,
            "midi": 0,
            "name": "C-1",
            "ticks": 73440,
            "time": 104.3180775,
            "velocity": 0.3937007874015748
          },
          {
            "duration": 0.13636350000000164,
            "durationTicks": 96,
            "midi": 0,
            "name": "C-1",
            "ticks": 73536,
            "time": 104.454441,
            "velocity": 0.3937007874015748
          },
          {
            "duration": 0.13636350000000164,
            "durationTicks": 96,
            "midi": 0,
            "name": "C-1",
            "ticks": 73536,
            "time": 104.454441,
            "velocity": 0.3937007874015748
          },
          {
            "duration": 0.13636350000000164,
            "durationTicks": 96,
            "midi": 0,
            "name": "C-1",
            "ticks": 73536,
            "time": 104.454441,
            "velocity": 0.3937007874015748
          },
          {
            "duration": 0.13636350000000164,
            "durationTicks": 96,
            "midi": 0,
            "name": "C-1",
            "ticks": 73632,
            "time": 104.5908045,
            "velocity": 0.3937007874015748
          },
          {
            "duration": 0.13636350000000164,
            "durationTicks": 96,
            "midi": 0,
            "name": "C-1",
            "ticks": 73632,
            "time": 104.5908045,
            "velocity": 0.3937007874015748
          },
          {
            "duration": 0.13636350000000164,
            "durationTicks": 96,
            "midi": 0,
            "name": "C-1",
            "ticks": 73632,
            "time": 104.5908045,
            "velocity": 0.3937007874015748
          },
          {
            "duration": 0.13636349999998743,
            "durationTicks": 96,
            "midi": 0,
            "name": "C-1",
            "ticks": 73728,
            "time": 104.727168,
            "velocity": 0.3937007874015748
          },
          {
            "duration": 0.13636349999998743,
            "durationTicks": 96,
            "midi": 0,
            "name": "C-1",
            "ticks": 73728,
            "time": 104.727168,
            "velocity": 0.3937007874015748
          },
          {
            "duration": 0.13636350000000164,
            "durationTicks": 96,
            "midi": 0,
            "name": "C-1",
            "ticks": 73824,
            "time": 104.8635315,
            "velocity": 0.3937007874015748
          },
          {
            "duration": 0.13636350000000164,
            "durationTicks": 96,
            "midi": 0,
            "name": "C-1",
            "ticks": 73920,
            "time": 104.999895,
            "velocity": 0.3937007874015748
          },
          {
            "duration": 0.13636350000000164,
            "durationTicks": 96,
            "midi": 0,
            "name": "C-1",
            "ticks": 73920,
            "time": 104.999895,
            "velocity": 0.3937007874015748
          },
          {
            "duration": 0.13636350000000164,
            "durationTicks": 96,
            "midi": 0,
            "name": "C-1",
            "ticks": 74016,
            "time": 105.1362585,
            "velocity": 0.3937007874015748
          },
          {
            "duration": 0.13636350000000164,
            "durationTicks": 96,
            "midi": 0,
            "name": "C-1",
            "ticks": 74112,
            "time": 105.272622,
            "velocity": 0.3937007874015748
          },
          {
            "duration": 0.13636350000000164,
            "durationTicks": 96,
            "midi": 0,
            "name": "C-1",
            "ticks": 74112,
            "time": 105.272622,
            "velocity": 0.3937007874015748
          },
          {
            "duration": 0.13636350000000164,
            "durationTicks": 96,
            "midi": 0,
            "name": "C-1",
            "ticks": 74112,
            "time": 105.272622,
            "velocity": 0.3937007874015748
          },
          {
            "duration": 0.13636350000000164,
            "durationTicks": 96,
            "midi": 0,
            "name": "C-1",
            "ticks": 74112,
            "time": 105.272622,
            "velocity": 0.3937007874015748
          },
          {
            "duration": 0.13636350000000164,
            "durationTicks": 96,
            "midi": 0,
            "name": "C-1",
            "ticks": 74208,
            "time": 105.4089855,
            "velocity": 0.3937007874015748
          },
          {
            "duration": 0.13636350000000164,
            "durationTicks": 96,
            "midi": 0,
            "name": "C-1",
            "ticks": 74304,
            "time": 105.545349,
            "velocity": 0.3937007874015748
          },
          {
            "duration": 0.13636350000000164,
            "durationTicks": 96,
            "midi": 0,
            "name": "C-1",
            "ticks": 74304,
            "time": 105.545349,
            "velocity": 0.3937007874015748
          },
          {
            "duration": 0.13636350000000164,
            "durationTicks": 96,
            "midi": 0,
            "name": "C-1",
            "ticks": 74400,
            "time": 105.6817125,
            "velocity": 0.3937007874015748
          },
          {
            "duration": 0.13636349999998743,
            "durationTicks": 96,
            "midi": 0,
            "name": "C-1",
            "ticks": 74496,
            "time": 105.818076,
            "velocity": 0.3937007874015748
          },
          {
            "duration": 0.13636349999998743,
            "durationTicks": 96,
            "midi": 0,
            "name": "C-1",
            "ticks": 74496,
            "time": 105.818076,
            "velocity": 0.3937007874015748
          },
          {
            "duration": 0.13636350000000164,
            "durationTicks": 96,
            "midi": 0,
            "name": "C-1",
            "ticks": 74592,
            "time": 105.95443949999999,
            "velocity": 0.3937007874015748
          },
          {
            "duration": 0.13636350000000164,
            "durationTicks": 96,
            "midi": 0,
            "name": "C-1",
            "ticks": 74688,
            "time": 106.090803,
            "velocity": 0.3937007874015748
          },
          {
            "duration": 0.13636350000000164,
            "durationTicks": 96,
            "midi": 0,
            "name": "C-1",
            "ticks": 74688,
            "time": 106.090803,
            "velocity": 0.3937007874015748
          },
          {
            "duration": 0.13636350000000164,
            "durationTicks": 96,
            "midi": 0,
            "name": "C-1",
            "ticks": 74784,
            "time": 106.2271665,
            "velocity": 0.3937007874015748
          },
          {
            "duration": 0.13636350000000164,
            "durationTicks": 96,
            "midi": 0,
            "name": "C-1",
            "ticks": 74880,
            "time": 106.36353,
            "velocity": 0.3937007874015748
          },
          {
            "duration": 0.13636350000000164,
            "durationTicks": 96,
            "midi": 0,
            "name": "C-1",
            "ticks": 74880,
            "time": 106.36353,
            "velocity": 0.3937007874015748
          },
          {
            "duration": 0.13636350000000164,
            "durationTicks": 96,
            "midi": 0,
            "name": "C-1",
            "ticks": 74880,
            "time": 106.36353,
            "velocity": 0.3937007874015748
          },
          {
            "duration": 0.13636350000000164,
            "durationTicks": 96,
            "midi": 0,
            "name": "C-1",
            "ticks": 74880,
            "time": 106.36353,
            "velocity": 0.3937007874015748
          },
          {
            "duration": 0.13636350000000164,
            "durationTicks": 96,
            "midi": 0,
            "name": "C-1",
            "ticks": 74976,
            "time": 106.4998935,
            "velocity": 0.3937007874015748
          },
          {
            "duration": 0.13636350000000164,
            "durationTicks": 96,
            "midi": 0,
            "name": "C-1",
            "ticks": 75072,
            "time": 106.636257,
            "velocity": 0.3937007874015748
          },
          {
            "duration": 0.13636350000000164,
            "durationTicks": 96,
            "midi": 0,
            "name": "C-1",
            "ticks": 75072,
            "time": 106.636257,
            "velocity": 0.3937007874015748
          },
          {
            "duration": 0.13636350000000164,
            "durationTicks": 96,
            "midi": 0,
            "name": "C-1",
            "ticks": 75168,
            "time": 106.7726205,
            "velocity": 0.3937007874015748
          },
          {
            "duration": 0.13636350000000164,
            "durationTicks": 96,
            "midi": 0,
            "name": "C-1",
            "ticks": 75264,
            "time": 106.908984,
            "velocity": 0.3937007874015748
          },
          {
            "duration": 0.13636350000000164,
            "durationTicks": 96,
            "midi": 0,
            "name": "C-1",
            "ticks": 75264,
            "time": 106.908984,
            "velocity": 0.3937007874015748
          },
          {
            "duration": 0.13636349999998743,
            "durationTicks": 96,
            "midi": 0,
            "name": "C-1",
            "ticks": 75360,
            "time": 107.0453475,
            "velocity": 0.3937007874015748
          },
          {
            "duration": 0.13636350000000164,
            "durationTicks": 96,
            "midi": 0,
            "name": "C-1",
            "ticks": 75456,
            "time": 107.18171099999999,
            "velocity": 0.3937007874015748
          },
          {
            "duration": 0.13636350000000164,
            "durationTicks": 96,
            "midi": 0,
            "name": "C-1",
            "ticks": 75456,
            "time": 107.18171099999999,
            "velocity": 0.3937007874015748
          },
          {
            "duration": 0.13636350000000164,
            "durationTicks": 96,
            "midi": 0,
            "name": "C-1",
            "ticks": 75552,
            "time": 107.3180745,
            "velocity": 0.3937007874015748
          },
          {
            "duration": 0.13636350000000164,
            "durationTicks": 96,
            "midi": 0,
            "name": "C-1",
            "ticks": 75648,
            "time": 107.454438,
            "velocity": 0.3937007874015748
          },
          {
            "duration": 0.13636350000000164,
            "durationTicks": 96,
            "midi": 0,
            "name": "C-1",
            "ticks": 75648,
            "time": 107.454438,
            "velocity": 0.3937007874015748
          },
          {
            "duration": 0.13636350000000164,
            "durationTicks": 96,
            "midi": 0,
            "name": "C-1",
            "ticks": 75648,
            "time": 107.454438,
            "velocity": 0.3937007874015748
          },
          {
            "duration": 0.13636350000000164,
            "durationTicks": 96,
            "midi": 0,
            "name": "C-1",
            "ticks": 75648,
            "time": 107.454438,
            "velocity": 0.3937007874015748
          },
          {
            "duration": 0.13636350000000164,
            "durationTicks": 96,
            "midi": 0,
            "name": "C-1",
            "ticks": 75744,
            "time": 107.5908015,
            "velocity": 0.3937007874015748
          },
          {
            "duration": 0.13636350000000164,
            "durationTicks": 96,
            "midi": 0,
            "name": "C-1",
            "ticks": 75840,
            "time": 107.727165,
            "velocity": 0.3937007874015748
          },
          {
            "duration": 0.13636350000000164,
            "durationTicks": 96,
            "midi": 0,
            "name": "C-1",
            "ticks": 75840,
            "time": 107.727165,
            "velocity": 0.3937007874015748
          },
          {
            "duration": 0.13636350000000164,
            "durationTicks": 96,
            "midi": 0,
            "name": "C-1",
            "ticks": 75936,
            "time": 107.8635285,
            "velocity": 0.3937007874015748
          },
          {
            "duration": 0.13636350000000164,
            "durationTicks": 96,
            "midi": 0,
            "name": "C-1",
            "ticks": 76032,
            "time": 107.999892,
            "velocity": 0.3937007874015748
          },
          {
            "duration": 0.13636350000000164,
            "durationTicks": 96,
            "midi": 0,
            "name": "C-1",
            "ticks": 76032,
            "time": 107.999892,
            "velocity": 0.3937007874015748
          },
          {
            "duration": 0.13636350000000164,
            "durationTicks": 96,
            "midi": 0,
            "name": "C-1",
            "ticks": 76128,
            "time": 108.1362555,
            "velocity": 0.3937007874015748
          },
          {
            "duration": 0.13636349999998743,
            "durationTicks": 96,
            "midi": 0,
            "name": "C-1",
            "ticks": 76224,
            "time": 108.272619,
            "velocity": 0.3937007874015748
          },
          {
            "duration": 0.13636349999998743,
            "durationTicks": 96,
            "midi": 0,
            "name": "C-1",
            "ticks": 76224,
            "time": 108.272619,
            "velocity": 0.3937007874015748
          },
          {
            "duration": 0.13636350000000164,
            "durationTicks": 96,
            "midi": 0,
            "name": "C-1",
            "ticks": 76320,
            "time": 108.4089825,
            "velocity": 0.3937007874015748
          },
          {
            "duration": 0.13636350000000164,
            "durationTicks": 96,
            "midi": 0,
            "name": "C-1",
            "ticks": 76416,
            "time": 108.545346,
            "velocity": 0.3937007874015748
          },
          {
            "duration": 0.13636350000000164,
            "durationTicks": 96,
            "midi": 0,
            "name": "C-1",
            "ticks": 76416,
            "time": 108.545346,
            "velocity": 0.3937007874015748
          },
          {
            "duration": 0.13636350000000164,
            "durationTicks": 96,
            "midi": 0,
            "name": "C-1",
            "ticks": 76416,
            "time": 108.545346,
            "velocity": 0.3937007874015748
          },
          {
            "duration": 0.13636350000000164,
            "durationTicks": 96,
            "midi": 0,
            "name": "C-1",
            "ticks": 76416,
            "time": 108.545346,
            "velocity": 0.3937007874015748
          },
          {
            "duration": 0.13636350000000164,
            "durationTicks": 96,
            "midi": 0,
            "name": "C-1",
            "ticks": 76512,
            "time": 108.6817095,
            "velocity": 0.3937007874015748
          },
          {
            "duration": 0.13636350000000164,
            "durationTicks": 96,
            "midi": 0,
            "name": "C-1",
            "ticks": 76608,
            "time": 108.818073,
            "velocity": 0.3937007874015748
          },
          {
            "duration": 0.13636350000000164,
            "durationTicks": 96,
            "midi": 0,
            "name": "C-1",
            "ticks": 76608,
            "time": 108.818073,
            "velocity": 0.3937007874015748
          },
          {
            "duration": 0.13636350000000164,
            "durationTicks": 96,
            "midi": 0,
            "name": "C-1",
            "ticks": 76704,
            "time": 108.9544365,
            "velocity": 0.3937007874015748
          },
          {
            "duration": 0.13636350000000164,
            "durationTicks": 96,
            "midi": 0,
            "name": "C-1",
            "ticks": 76800,
            "time": 109.0908,
            "velocity": 0.3937007874015748
          },
          {
            "duration": 0.13636350000000164,
            "durationTicks": 96,
            "midi": 0,
            "name": "C-1",
            "ticks": 76800,
            "time": 109.0908,
            "velocity": 0.3937007874015748
          },
          {
            "duration": 0.13636350000000164,
            "durationTicks": 96,
            "midi": 0,
            "name": "C-1",
            "ticks": 76896,
            "time": 109.2271635,
            "velocity": 0.3937007874015748
          },
          {
            "duration": 0.13636349999998743,
            "durationTicks": 96,
            "midi": 0,
            "name": "C-1",
            "ticks": 76992,
            "time": 109.363527,
            "velocity": 0.3937007874015748
          },
          {
            "duration": 0.13636349999998743,
            "durationTicks": 96,
            "midi": 0,
            "name": "C-1",
            "ticks": 76992,
            "time": 109.363527,
            "velocity": 0.3937007874015748
          },
          {
            "duration": 0.13636350000000164,
            "durationTicks": 96,
            "midi": 0,
            "name": "C-1",
            "ticks": 77088,
            "time": 109.49989049999999,
            "velocity": 0.3937007874015748
          },
          {
            "duration": 0.13636350000000164,
            "durationTicks": 96,
            "midi": 0,
            "name": "C-1",
            "ticks": 77184,
            "time": 109.636254,
            "velocity": 0.3937007874015748
          },
          {
            "duration": 0.13636350000000164,
            "durationTicks": 96,
            "midi": 0,
            "name": "C-1",
            "ticks": 77184,
            "time": 109.636254,
            "velocity": 0.3937007874015748
          },
          {
            "duration": 0.13636350000000164,
            "durationTicks": 96,
            "midi": 0,
            "name": "C-1",
            "ticks": 77184,
            "time": 109.636254,
            "velocity": 0.3937007874015748
          },
          {
            "duration": 0.13636350000000164,
            "durationTicks": 96,
            "midi": 0,
            "name": "C-1",
            "ticks": 77184,
            "time": 109.636254,
            "velocity": 0.3937007874015748
          },
          {
            "duration": 0.13636350000000164,
            "durationTicks": 96,
            "midi": 0,
            "name": "C-1",
            "ticks": 77280,
            "time": 109.7726175,
            "velocity": 0.3937007874015748
          },
          {
            "duration": 0.13636350000000164,
            "durationTicks": 96,
            "midi": 0,
            "name": "C-1",
            "ticks": 77376,
            "time": 109.908981,
            "velocity": 0.3937007874015748
          },
          {
            "duration": 0.13636350000000164,
            "durationTicks": 96,
            "midi": 0,
            "name": "C-1",
            "ticks": 77376,
            "time": 109.908981,
            "velocity": 0.3937007874015748
          },
          {
            "duration": 0.13636350000000164,
            "durationTicks": 96,
            "midi": 0,
            "name": "C-1",
            "ticks": 77472,
            "time": 110.0453445,
            "velocity": 0.3937007874015748
          },
          {
            "duration": 0.13636350000000164,
            "durationTicks": 96,
            "midi": 0,
            "name": "C-1",
            "ticks": 77568,
            "time": 110.181708,
            "velocity": 0.3937007874015748
          },
          {
            "duration": 0.13636350000000164,
            "durationTicks": 96,
            "midi": 0,
            "name": "C-1",
            "ticks": 77568,
            "time": 110.181708,
            "velocity": 0.3937007874015748
          },
          {
            "duration": 0.13636350000000164,
            "durationTicks": 96,
            "midi": 0,
            "name": "C-1",
            "ticks": 77664,
            "time": 110.3180715,
            "velocity": 0.3937007874015748
          },
          {
            "duration": 0.13636350000000164,
            "durationTicks": 96,
            "midi": 0,
            "name": "C-1",
            "ticks": 77760,
            "time": 110.454435,
            "velocity": 0.3937007874015748
          },
          {
            "duration": 0.13636350000000164,
            "durationTicks": 96,
            "midi": 0,
            "name": "C-1",
            "ticks": 77760,
            "time": 110.454435,
            "velocity": 0.3937007874015748
          },
          {
            "duration": 0.13636349999998743,
            "durationTicks": 96,
            "midi": 0,
            "name": "C-1",
            "ticks": 77856,
            "time": 110.5907985,
            "velocity": 0.3937007874015748
          },
          {
            "duration": 0.13636350000000164,
            "durationTicks": 96,
            "midi": 0,
            "name": "C-1",
            "ticks": 77952,
            "time": 110.72716199999999,
            "velocity": 0.3937007874015748
          },
          {
            "duration": 0.13636350000000164,
            "durationTicks": 96,
            "midi": 0,
            "name": "C-1",
            "ticks": 77952,
            "time": 110.72716199999999,
            "velocity": 0.3937007874015748
          },
          {
            "duration": 0.13636350000000164,
            "durationTicks": 96,
            "midi": 0,
            "name": "C-1",
            "ticks": 77952,
            "time": 110.72716199999999,
            "velocity": 0.3937007874015748
          },
          {
            "duration": 0.13636350000000164,
            "durationTicks": 96,
            "midi": 0,
            "name": "C-1",
            "ticks": 77952,
            "time": 110.72716199999999,
            "velocity": 0.3937007874015748
          },
          {
            "duration": 0.13636350000000164,
            "durationTicks": 96,
            "midi": 0,
            "name": "C-1",
            "ticks": 78048,
            "time": 110.8635255,
            "velocity": 0.3937007874015748
          },
          {
            "duration": 0.13636350000000164,
            "durationTicks": 96,
            "midi": 0,
            "name": "C-1",
            "ticks": 78144,
            "time": 110.999889,
            "velocity": 0.3937007874015748
          },
          {
            "duration": 0.13636350000000164,
            "durationTicks": 96,
            "midi": 0,
            "name": "C-1",
            "ticks": 78144,
            "time": 110.999889,
            "velocity": 0.3937007874015748
          },
          {
            "duration": 0.13636350000000164,
            "durationTicks": 96,
            "midi": 0,
            "name": "C-1",
            "ticks": 78240,
            "time": 111.1362525,
            "velocity": 0.3937007874015748
          },
          {
            "duration": 0.13636350000000164,
            "durationTicks": 96,
            "midi": 0,
            "name": "C-1",
            "ticks": 78336,
            "time": 111.272616,
            "velocity": 0.3937007874015748
          },
          {
            "duration": 0.13636350000000164,
            "durationTicks": 96,
            "midi": 0,
            "name": "C-1",
            "ticks": 78336,
            "time": 111.272616,
            "velocity": 0.3937007874015748
          },
          {
            "duration": 0.13636350000000164,
            "durationTicks": 96,
            "midi": 0,
            "name": "C-1",
            "ticks": 78432,
            "time": 111.4089795,
            "velocity": 0.3937007874015748
          },
          {
            "duration": 0.13636350000000164,
            "durationTicks": 96,
            "midi": 0,
            "name": "C-1",
            "ticks": 78528,
            "time": 111.545343,
            "velocity": 0.3937007874015748
          },
          {
            "duration": 0.13636350000000164,
            "durationTicks": 96,
            "midi": 0,
            "name": "C-1",
            "ticks": 78528,
            "time": 111.545343,
            "velocity": 0.3937007874015748
          },
          {
            "duration": 0.13636350000000164,
            "durationTicks": 96,
            "midi": 0,
            "name": "C-1",
            "ticks": 78624,
            "time": 111.6817065,
            "velocity": 0.3937007874015748
          },
          {
            "duration": 0.13636349999998743,
            "durationTicks": 96,
            "midi": 0,
            "name": "C-1",
            "ticks": 78720,
            "time": 111.81807,
            "velocity": 0.3937007874015748
          },
          {
            "duration": 0.13636349999998743,
            "durationTicks": 96,
            "midi": 0,
            "name": "C-1",
            "ticks": 78720,
            "time": 111.81807,
            "velocity": 0.3937007874015748
          },
          {
            "duration": 0.13636349999998743,
            "durationTicks": 96,
            "midi": 0,
            "name": "C-1",
            "ticks": 78720,
            "time": 111.81807,
            "velocity": 0.3937007874015748
          },
          {
            "duration": 0.13636349999998743,
            "durationTicks": 96,
            "midi": 0,
            "name": "C-1",
            "ticks": 78720,
            "time": 111.81807,
            "velocity": 0.3937007874015748
          },
          {
            "duration": 0.13636350000000164,
            "durationTicks": 96,
            "midi": 0,
            "name": "C-1",
            "ticks": 78816,
            "time": 111.9544335,
            "velocity": 0.3937007874015748
          },
          {
            "duration": 0.13636350000000164,
            "durationTicks": 96,
            "midi": 0,
            "name": "C-1",
            "ticks": 78912,
            "time": 112.090797,
            "velocity": 0.3937007874015748
          },
          {
            "duration": 0.13636350000000164,
            "durationTicks": 96,
            "midi": 0,
            "name": "C-1",
            "ticks": 78912,
            "time": 112.090797,
            "velocity": 0.3937007874015748
          },
          {
            "duration": 0.13636350000000164,
            "durationTicks": 96,
            "midi": 0,
            "name": "C-1",
            "ticks": 79008,
            "time": 112.2271605,
            "velocity": 0.3937007874015748
          },
          {
            "duration": 0.13636350000000164,
            "durationTicks": 96,
            "midi": 0,
            "name": "C-1",
            "ticks": 79104,
            "time": 112.363524,
            "velocity": 0.3937007874015748
          },
          {
            "duration": 0.13636350000000164,
            "durationTicks": 96,
            "midi": 0,
            "name": "C-1",
            "ticks": 79104,
            "time": 112.363524,
            "velocity": 0.3937007874015748
          },
          {
            "duration": 0.13636350000000164,
            "durationTicks": 96,
            "midi": 0,
            "name": "C-1",
            "ticks": 79200,
            "time": 112.4998875,
            "velocity": 0.3937007874015748
          },
          {
            "duration": 0.13636350000000164,
            "durationTicks": 96,
            "midi": 0,
            "name": "C-1",
            "ticks": 79296,
            "time": 112.636251,
            "velocity": 0.3937007874015748
          },
          {
            "duration": 0.13636350000000164,
            "durationTicks": 96,
            "midi": 0,
            "name": "C-1",
            "ticks": 79296,
            "time": 112.636251,
            "velocity": 0.3937007874015748
          },
          {
            "duration": 0.13636350000000164,
            "durationTicks": 96,
            "midi": 0,
            "name": "C-1",
            "ticks": 79392,
            "time": 112.7726145,
            "velocity": 0.3937007874015748
          },
          {
            "duration": 0.13636349999998743,
            "durationTicks": 96,
            "midi": 0,
            "name": "C-1",
            "ticks": 79488,
            "time": 112.908978,
            "velocity": 0.3937007874015748
          },
          {
            "duration": 0.13636349999998743,
            "durationTicks": 96,
            "midi": 0,
            "name": "C-1",
            "ticks": 79488,
            "time": 112.908978,
            "velocity": 0.3937007874015748
          },
          {
            "duration": 0.13636349999998743,
            "durationTicks": 96,
            "midi": 0,
            "name": "C-1",
            "ticks": 79488,
            "time": 112.908978,
            "velocity": 0.3937007874015748
          },
          {
            "duration": 0.13636349999998743,
            "durationTicks": 96,
            "midi": 0,
            "name": "C-1",
            "ticks": 79488,
            "time": 112.908978,
            "velocity": 0.3937007874015748
          },
          {
            "duration": 0.13636350000000164,
            "durationTicks": 96,
            "midi": 0,
            "name": "C-1",
            "ticks": 79584,
            "time": 113.04534149999999,
            "velocity": 0.3937007874015748
          },
          {
            "duration": 0.13636350000000164,
            "durationTicks": 96,
            "midi": 0,
            "name": "C-1",
            "ticks": 79680,
            "time": 113.181705,
            "velocity": 0.3937007874015748
          },
          {
            "duration": 0.13636350000000164,
            "durationTicks": 96,
            "midi": 0,
            "name": "C-1",
            "ticks": 79680,
            "time": 113.181705,
            "velocity": 0.3937007874015748
          },
          {
            "duration": 0.13636350000000164,
            "durationTicks": 96,
            "midi": 0,
            "name": "C-1",
            "ticks": 79776,
            "time": 113.3180685,
            "velocity": 0.3937007874015748
          },
          {
            "duration": 0.13636350000000164,
            "durationTicks": 96,
            "midi": 0,
            "name": "C-1",
            "ticks": 79872,
            "time": 113.454432,
            "velocity": 0.3937007874015748
          },
          {
            "duration": 0.13636350000000164,
            "durationTicks": 96,
            "midi": 0,
            "name": "C-1",
            "ticks": 79872,
            "time": 113.454432,
            "velocity": 0.3937007874015748
          },
          {
            "duration": 0.13636350000000164,
            "durationTicks": 96,
            "midi": 0,
            "name": "C-1",
            "ticks": 79968,
            "time": 113.5907955,
            "velocity": 0.3937007874015748
          },
          {
            "duration": 0.13636350000000164,
            "durationTicks": 96,
            "midi": 0,
            "name": "C-1",
            "ticks": 80064,
            "time": 113.727159,
            "velocity": 0.3937007874015748
          },
          {
            "duration": 0.13636350000000164,
            "durationTicks": 96,
            "midi": 0,
            "name": "C-1",
            "ticks": 80064,
            "time": 113.727159,
            "velocity": 0.3937007874015748
          },
          {
            "duration": 0.13636350000000164,
            "durationTicks": 96,
            "midi": 0,
            "name": "C-1",
            "ticks": 80160,
            "time": 113.8635225,
            "velocity": 0.3937007874015748
          },
          {
            "duration": 0.13636350000000164,
            "durationTicks": 96,
            "midi": 0,
            "name": "C-1",
            "ticks": 80256,
            "time": 113.999886,
            "velocity": 0.3937007874015748
          },
          {
            "duration": 0.13636350000000164,
            "durationTicks": 96,
            "midi": 0,
            "name": "C-1",
            "ticks": 80256,
            "time": 113.999886,
            "velocity": 0.3937007874015748
          },
          {
            "duration": 0.13636350000000164,
            "durationTicks": 96,
            "midi": 0,
            "name": "C-1",
            "ticks": 80256,
            "time": 113.999886,
            "velocity": 0.3937007874015748
          },
          {
            "duration": 0.13636350000000164,
            "durationTicks": 96,
            "midi": 0,
            "name": "C-1",
            "ticks": 80256,
            "time": 113.999886,
            "velocity": 0.3937007874015748
          },
          {
            "duration": 0.13636349999998743,
            "durationTicks": 96,
            "midi": 0,
            "name": "C-1",
            "ticks": 80352,
            "time": 114.1362495,
            "velocity": 0.3937007874015748
          },
          {
            "duration": 0.13636350000000164,
            "durationTicks": 96,
            "midi": 0,
            "name": "C-1",
            "ticks": 80448,
            "time": 114.27261299999999,
            "velocity": 0.3937007874015748
          },
          {
            "duration": 0.13636350000000164,
            "durationTicks": 96,
            "midi": 0,
            "name": "C-1",
            "ticks": 80448,
            "time": 114.27261299999999,
            "velocity": 0.3937007874015748
          },
          {
            "duration": 0.13636350000000164,
            "durationTicks": 96,
            "midi": 0,
            "name": "C-1",
            "ticks": 80544,
            "time": 114.4089765,
            "velocity": 0.3937007874015748
          },
          {
            "duration": 0.13636350000000164,
            "durationTicks": 96,
            "midi": 0,
            "name": "C-1",
            "ticks": 80640,
            "time": 114.54534,
            "velocity": 0.3937007874015748
          },
          {
            "duration": 0.13636350000000164,
            "durationTicks": 96,
            "midi": 0,
            "name": "C-1",
            "ticks": 80640,
            "time": 114.54534,
            "velocity": 0.3937007874015748
          },
          {
            "duration": 0.13636350000000164,
            "durationTicks": 96,
            "midi": 0,
            "name": "C-1",
            "ticks": 80736,
            "time": 114.6817035,
            "velocity": 0.3937007874015748
          },
          {
            "duration": 0.13636350000000164,
            "durationTicks": 96,
            "midi": 0,
            "name": "C-1",
            "ticks": 80832,
            "time": 114.818067,
            "velocity": 0.3937007874015748
          },
          {
            "duration": 0.13636350000000164,
            "durationTicks": 96,
            "midi": 0,
            "name": "C-1",
            "ticks": 80832,
            "time": 114.818067,
            "velocity": 0.3937007874015748
          },
          {
            "duration": 0.13636350000000164,
            "durationTicks": 96,
            "midi": 0,
            "name": "C-1",
            "ticks": 80928,
            "time": 114.9544305,
            "velocity": 0.3937007874015748
          },
          {
            "duration": 0.13636350000000164,
            "durationTicks": 96,
            "midi": 0,
            "name": "C-1",
            "ticks": 81024,
            "time": 115.090794,
            "velocity": 0.3937007874015748
          },
          {
            "duration": 0.13636350000000164,
            "durationTicks": 96,
            "midi": 0,
            "name": "C-1",
            "ticks": 81024,
            "time": 115.090794,
            "velocity": 0.3937007874015748
          },
          {
            "duration": 0.13636350000000164,
            "durationTicks": 96,
            "midi": 0,
            "name": "C-1",
            "ticks": 81024,
            "time": 115.090794,
            "velocity": 0.3937007874015748
          },
          {
            "duration": 0.13636350000000164,
            "durationTicks": 96,
            "midi": 0,
            "name": "C-1",
            "ticks": 81024,
            "time": 115.090794,
            "velocity": 0.3937007874015748
          },
          {
            "duration": 0.13636350000000164,
            "durationTicks": 96,
            "midi": 0,
            "name": "C-1",
            "ticks": 81120,
            "time": 115.2271575,
            "velocity": 0.3937007874015748
          },
          {
            "duration": 0.13636349999998743,
            "durationTicks": 96,
            "midi": 0,
            "name": "C-1",
            "ticks": 81216,
            "time": 115.363521,
            "velocity": 0.3937007874015748
          },
          {
            "duration": 0.13636349999998743,
            "durationTicks": 96,
            "midi": 0,
            "name": "C-1",
            "ticks": 81216,
            "time": 115.363521,
            "velocity": 0.3937007874015748
          },
          {
            "duration": 0.13636350000000164,
            "durationTicks": 96,
            "midi": 0,
            "name": "C-1",
            "ticks": 81312,
            "time": 115.4998845,
            "velocity": 0.3937007874015748
          },
          {
            "duration": 0.13636350000000164,
            "durationTicks": 96,
            "midi": 0,
            "name": "C-1",
            "ticks": 81408,
            "time": 115.636248,
            "velocity": 0.3937007874015748
          },
          {
            "duration": 0.13636350000000164,
            "durationTicks": 96,
            "midi": 0,
            "name": "C-1",
            "ticks": 81408,
            "time": 115.636248,
            "velocity": 0.3937007874015748
          },
          {
            "duration": 0.13636350000000164,
            "durationTicks": 96,
            "midi": 0,
            "name": "C-1",
            "ticks": 81504,
            "time": 115.7726115,
            "velocity": 0.3937007874015748
          },
          {
            "duration": 0.13636350000000164,
            "durationTicks": 96,
            "midi": 0,
            "name": "C-1",
            "ticks": 81600,
            "time": 115.908975,
            "velocity": 0.3937007874015748
          },
          {
            "duration": 0.13636350000000164,
            "durationTicks": 96,
            "midi": 0,
            "name": "C-1",
            "ticks": 81600,
            "time": 115.908975,
            "velocity": 0.3937007874015748
          },
          {
            "duration": 0.13636350000000164,
            "durationTicks": 96,
            "midi": 0,
            "name": "C-1",
            "ticks": 81696,
            "time": 116.0453385,
            "velocity": 0.3937007874015748
          },
          {
            "duration": 0.13636350000000164,
            "durationTicks": 96,
            "midi": 0,
            "name": "C-1",
            "ticks": 81792,
            "time": 116.181702,
            "velocity": 0.3937007874015748
          },
          {
            "duration": 0.13636350000000164,
            "durationTicks": 96,
            "midi": 0,
            "name": "C-1",
            "ticks": 81792,
            "time": 116.181702,
            "velocity": 0.3937007874015748
          },
          {
            "duration": 0.13636350000000164,
            "durationTicks": 96,
            "midi": 0,
            "name": "C-1",
            "ticks": 81792,
            "time": 116.181702,
            "velocity": 0.3937007874015748
          },
          {
            "duration": 0.13636350000000164,
            "durationTicks": 96,
            "midi": 0,
            "name": "C-1",
            "ticks": 81792,
            "time": 116.181702,
            "velocity": 0.3937007874015748
          },
          {
            "duration": 0.13636350000000164,
            "durationTicks": 96,
            "midi": 0,
            "name": "C-1",
            "ticks": 81888,
            "time": 116.3180655,
            "velocity": 0.3937007874015748
          },
          {
            "duration": 0.13636349999998743,
            "durationTicks": 96,
            "midi": 0,
            "name": "C-1",
            "ticks": 81984,
            "time": 116.454429,
            "velocity": 0.3937007874015748
          },
          {
            "duration": 0.13636349999998743,
            "durationTicks": 96,
            "midi": 0,
            "name": "C-1",
            "ticks": 81984,
            "time": 116.454429,
            "velocity": 0.3937007874015748
          },
          {
            "duration": 0.13636350000000164,
            "durationTicks": 96,
            "midi": 0,
            "name": "C-1",
            "ticks": 82080,
            "time": 116.59079249999999,
            "velocity": 0.3937007874015748
          },
          {
            "duration": 0.13636350000000164,
            "durationTicks": 96,
            "midi": 0,
            "name": "C-1",
            "ticks": 82176,
            "time": 116.727156,
            "velocity": 0.3937007874015748
          },
          {
            "duration": 0.13636350000000164,
            "durationTicks": 96,
            "midi": 0,
            "name": "C-1",
            "ticks": 82176,
            "time": 116.727156,
            "velocity": 0.3937007874015748
          },
          {
            "duration": 0.13636350000000164,
            "durationTicks": 96,
            "midi": 0,
            "name": "C-1",
            "ticks": 82272,
            "time": 116.8635195,
            "velocity": 0.3937007874015748
          },
          {
            "duration": 0.13636350000000164,
            "durationTicks": 96,
            "midi": 0,
            "name": "C-1",
            "ticks": 82368,
            "time": 116.999883,
            "velocity": 0.3937007874015748
          },
          {
            "duration": 0.13636350000000164,
            "durationTicks": 96,
            "midi": 0,
            "name": "C-1",
            "ticks": 82368,
            "time": 116.999883,
            "velocity": 0.3937007874015748
          },
          {
            "duration": 0.13636350000000164,
            "durationTicks": 96,
            "midi": 0,
            "name": "C-1",
            "ticks": 82464,
            "time": 117.1362465,
            "velocity": 0.3937007874015748
          },
          {
            "duration": 0.13636350000000164,
            "durationTicks": 96,
            "midi": 0,
            "name": "C-1",
            "ticks": 82560,
            "time": 117.27261,
            "velocity": 0.3937007874015748
          },
          {
            "duration": 0.13636350000000164,
            "durationTicks": 96,
            "midi": 0,
            "name": "C-1",
            "ticks": 82560,
            "time": 117.27261,
            "velocity": 0.3937007874015748
          },
          {
            "duration": 0.13636350000000164,
            "durationTicks": 96,
            "midi": 0,
            "name": "C-1",
            "ticks": 82560,
            "time": 117.27261,
            "velocity": 0.3937007874015748
          },
          {
            "duration": 0.13636350000000164,
            "durationTicks": 96,
            "midi": 0,
            "name": "C-1",
            "ticks": 82560,
            "time": 117.27261,
            "velocity": 0.3937007874015748
          },
          {
            "duration": 0.13636350000000164,
            "durationTicks": 96,
            "midi": 0,
            "name": "C-1",
            "ticks": 82656,
            "time": 117.4089735,
            "velocity": 0.3937007874015748
          },
          {
            "duration": 0.13636350000000164,
            "durationTicks": 96,
            "midi": 0,
            "name": "C-1",
            "ticks": 82752,
            "time": 117.545337,
            "velocity": 0.3937007874015748
          },
          {
            "duration": 0.13636350000000164,
            "durationTicks": 96,
            "midi": 0,
            "name": "C-1",
            "ticks": 82752,
            "time": 117.545337,
            "velocity": 0.3937007874015748
          },
          {
            "duration": 0.13636349999998743,
            "durationTicks": 96,
            "midi": 0,
            "name": "C-1",
            "ticks": 82848,
            "time": 117.6817005,
            "velocity": 0.3937007874015748
          },
          {
            "duration": 0.13636350000000164,
            "durationTicks": 96,
            "midi": 0,
            "name": "C-1",
            "ticks": 82944,
            "time": 117.81806399999999,
            "velocity": 0.3937007874015748
          },
          {
            "duration": 0.13636350000000164,
            "durationTicks": 96,
            "midi": 0,
            "name": "C-1",
            "ticks": 82944,
            "time": 117.81806399999999,
            "velocity": 0.3937007874015748
          },
          {
            "duration": 0.13636350000000164,
            "durationTicks": 96,
            "midi": 0,
            "name": "C-1",
            "ticks": 83040,
            "time": 117.9544275,
            "velocity": 0.3937007874015748
          },
          {
            "duration": 0.13636350000000164,
            "durationTicks": 96,
            "midi": 0,
            "name": "C-1",
            "ticks": 83136,
            "time": 118.090791,
            "velocity": 0.3937007874015748
          },
          {
            "duration": 0.13636350000000164,
            "durationTicks": 96,
            "midi": 0,
            "name": "C-1",
            "ticks": 83136,
            "time": 118.090791,
            "velocity": 0.3937007874015748
          },
          {
            "duration": 0.13636350000000164,
            "durationTicks": 96,
            "midi": 0,
            "name": "C-1",
            "ticks": 83232,
            "time": 118.2271545,
            "velocity": 0.3937007874015748
          },
          {
            "duration": 0.13636350000000164,
            "durationTicks": 96,
            "midi": 0,
            "name": "C-1",
            "ticks": 83328,
            "time": 118.363518,
            "velocity": 0.3937007874015748
          },
          {
            "duration": 0.13636350000000164,
            "durationTicks": 96,
            "midi": 0,
            "name": "C-1",
            "ticks": 83328,
            "time": 118.363518,
            "velocity": 0.3937007874015748
          },
          {
            "duration": 0.13636350000000164,
            "durationTicks": 96,
            "midi": 0,
            "name": "C-1",
            "ticks": 83328,
            "time": 118.363518,
            "velocity": 0.3937007874015748
          },
          {
            "duration": 0.13636350000000164,
            "durationTicks": 96,
            "midi": 0,
            "name": "C-1",
            "ticks": 83328,
            "time": 118.363518,
            "velocity": 0.3937007874015748
          },
          {
            "duration": 0.13636350000000164,
            "durationTicks": 96,
            "midi": 0,
            "name": "C-1",
            "ticks": 83424,
            "time": 118.4998815,
            "velocity": 0.3937007874015748
          },
          {
            "duration": 0.13636350000000164,
            "durationTicks": 96,
            "midi": 0,
            "name": "C-1",
            "ticks": 83520,
            "time": 118.636245,
            "velocity": 0.3937007874015748
          },
          {
            "duration": 0.13636350000000164,
            "durationTicks": 96,
            "midi": 0,
            "name": "C-1",
            "ticks": 83520,
            "time": 118.636245,
            "velocity": 0.3937007874015748
          },
          {
            "duration": 0.13636350000000164,
            "durationTicks": 96,
            "midi": 0,
            "name": "C-1",
            "ticks": 83616,
            "time": 118.7726085,
            "velocity": 0.3937007874015748
          },
          {
            "duration": 0.13636349999998743,
            "durationTicks": 96,
            "midi": 0,
            "name": "C-1",
            "ticks": 83712,
            "time": 118.908972,
            "velocity": 0.3937007874015748
          },
          {
            "duration": 0.13636349999998743,
            "durationTicks": 96,
            "midi": 0,
            "name": "C-1",
            "ticks": 83712,
            "time": 118.908972,
            "velocity": 0.3937007874015748
          },
          {
            "duration": 0.13636350000000164,
            "durationTicks": 96,
            "midi": 0,
            "name": "C-1",
            "ticks": 83808,
            "time": 119.0453355,
            "velocity": 0.3937007874015748
          },
          {
            "duration": 0.13636350000000164,
            "durationTicks": 96,
            "midi": 0,
            "name": "C-1",
            "ticks": 83904,
            "time": 119.181699,
            "velocity": 0.3937007874015748
          },
          {
            "duration": 0.13636350000000164,
            "durationTicks": 96,
            "midi": 0,
            "name": "C-1",
            "ticks": 83904,
            "time": 119.181699,
            "velocity": 0.3937007874015748
          },
          {
            "duration": 0.13636350000000164,
            "durationTicks": 96,
            "midi": 0,
            "name": "C-1",
            "ticks": 84000,
            "time": 119.3180625,
            "velocity": 0.3937007874015748
          },
          {
            "duration": 0.13636350000000164,
            "durationTicks": 96,
            "midi": 0,
            "name": "C-1",
            "ticks": 84096,
            "time": 119.454426,
            "velocity": 0.3937007874015748
          },
          {
            "duration": 0.13636350000000164,
            "durationTicks": 96,
            "midi": 0,
            "name": "C-1",
            "ticks": 84096,
            "time": 119.454426,
            "velocity": 0.3937007874015748
          },
          {
            "duration": 0.13636350000000164,
            "durationTicks": 96,
            "midi": 0,
            "name": "C-1",
            "ticks": 84096,
            "time": 119.454426,
            "velocity": 0.3937007874015748
          },
          {
            "duration": 0.13636350000000164,
            "durationTicks": 96,
            "midi": 0,
            "name": "C-1",
            "ticks": 84096,
            "time": 119.454426,
            "velocity": 0.3937007874015748
          },
          {
            "duration": 0.13636350000000164,
            "durationTicks": 96,
            "midi": 0,
            "name": "C-1",
            "ticks": 84192,
            "time": 119.5907895,
            "velocity": 0.3937007874015748
          },
          {
            "duration": 0.13636350000000164,
            "durationTicks": 96,
            "midi": 0,
            "name": "C-1",
            "ticks": 84288,
            "time": 119.727153,
            "velocity": 0.3937007874015748
          },
          {
            "duration": 0.13636350000000164,
            "durationTicks": 96,
            "midi": 0,
            "name": "C-1",
            "ticks": 84288,
            "time": 119.727153,
            "velocity": 0.3937007874015748
          },
          {
            "duration": 0.13636350000000164,
            "durationTicks": 96,
            "midi": 0,
            "name": "C-1",
            "ticks": 84384,
            "time": 119.8635165,
            "velocity": 0.3937007874015748
          },
          {
            "duration": 0.13636349999998743,
            "durationTicks": 96,
            "midi": 0,
            "name": "C-1",
            "ticks": 84480,
            "time": 119.99988,
            "velocity": 0.3937007874015748
          },
          {
            "duration": 0.13636349999998743,
            "durationTicks": 96,
            "midi": 0,
            "name": "C-1",
            "ticks": 84480,
            "time": 119.99988,
            "velocity": 0.3937007874015748
          },
          {
            "duration": 0.13636350000000164,
            "durationTicks": 96,
            "midi": 0,
            "name": "C-1",
            "ticks": 84576,
            "time": 120.13624349999999,
            "velocity": 0.3937007874015748
          },
          {
            "duration": 0.13636350000000164,
            "durationTicks": 96,
            "midi": 0,
            "name": "C-1",
            "ticks": 84672,
            "time": 120.272607,
            "velocity": 0.3937007874015748
          },
          {
            "duration": 0.13636350000000164,
            "durationTicks": 96,
            "midi": 0,
            "name": "C-1",
            "ticks": 84672,
            "time": 120.272607,
            "velocity": 0.3937007874015748
          },
          {
            "duration": 0.13636350000000164,
            "durationTicks": 96,
            "midi": 0,
            "name": "C-1",
            "ticks": 84768,
            "time": 120.4089705,
            "velocity": 0.3937007874015748
          },
          {
            "duration": 0.13636350000000164,
            "durationTicks": 96,
            "midi": 0,
            "name": "C-1",
            "ticks": 84864,
            "time": 120.545334,
            "velocity": 0.3937007874015748
          },
          {
            "duration": 0.13636350000000164,
            "durationTicks": 96,
            "midi": 0,
            "name": "C-1",
            "ticks": 84864,
            "time": 120.545334,
            "velocity": 0.3937007874015748
          },
          {
            "duration": 0.13636350000000164,
            "durationTicks": 96,
            "midi": 0,
            "name": "C-1",
            "ticks": 84864,
            "time": 120.545334,
            "velocity": 0.3937007874015748
          },
          {
            "duration": 0.13636350000000164,
            "durationTicks": 96,
            "midi": 0,
            "name": "C-1",
            "ticks": 84864,
            "time": 120.545334,
            "velocity": 0.3937007874015748
          },
          {
            "duration": 0.13636350000000164,
            "durationTicks": 96,
            "midi": 0,
            "name": "C-1",
            "ticks": 84960,
            "time": 120.6816975,
            "velocity": 0.3937007874015748
          },
          {
            "duration": 0.13636350000000164,
            "durationTicks": 96,
            "midi": 0,
            "name": "C-1",
            "ticks": 85056,
            "time": 120.818061,
            "velocity": 0.3937007874015748
          },
          {
            "duration": 0.13636350000000164,
            "durationTicks": 96,
            "midi": 0,
            "name": "C-1",
            "ticks": 85056,
            "time": 120.818061,
            "velocity": 0.3937007874015748
          },
          {
            "duration": 0.13636350000000164,
            "durationTicks": 96,
            "midi": 0,
            "name": "C-1",
            "ticks": 85152,
            "time": 120.9544245,
            "velocity": 0.3937007874015748
          },
          {
            "duration": 0.13636350000000164,
            "durationTicks": 96,
            "midi": 0,
            "name": "C-1",
            "ticks": 85248,
            "time": 121.090788,
            "velocity": 0.3937007874015748
          },
          {
            "duration": 0.13636350000000164,
            "durationTicks": 96,
            "midi": 0,
            "name": "C-1",
            "ticks": 85248,
            "time": 121.090788,
            "velocity": 0.3937007874015748
          },
          {
            "duration": 0.13636349999998743,
            "durationTicks": 96,
            "midi": 0,
            "name": "C-1",
            "ticks": 85344,
            "time": 121.2271515,
            "velocity": 0.3937007874015748
          },
          {
            "duration": 0.13636350000000164,
            "durationTicks": 96,
            "midi": 0,
            "name": "C-1",
            "ticks": 85440,
            "time": 121.36351499999999,
            "velocity": 0.3937007874015748
          },
          {
            "duration": 0.13636350000000164,
            "durationTicks": 96,
            "midi": 0,
            "name": "C-1",
            "ticks": 85440,
            "time": 121.36351499999999,
            "velocity": 0.3937007874015748
          },
          {
            "duration": 0.13636350000000164,
            "durationTicks": 96,
            "midi": 0,
            "name": "C-1",
            "ticks": 85536,
            "time": 121.4998785,
            "velocity": 0.3937007874015748
          },
          {
            "duration": 0.13636350000000164,
            "durationTicks": 96,
            "midi": 0,
            "name": "C-1",
            "ticks": 85632,
            "time": 121.636242,
            "velocity": 0.3937007874015748
          },
          {
            "duration": 0.13636350000000164,
            "durationTicks": 96,
            "midi": 0,
            "name": "C-1",
            "ticks": 85632,
            "time": 121.636242,
            "velocity": 0.3937007874015748
          },
          {
            "duration": 0.13636350000000164,
            "durationTicks": 96,
            "midi": 0,
            "name": "C-1",
            "ticks": 85632,
            "time": 121.636242,
            "velocity": 0.3937007874015748
          },
          {
            "duration": 0.13636350000000164,
            "durationTicks": 96,
            "midi": 0,
            "name": "C-1",
            "ticks": 85632,
            "time": 121.636242,
            "velocity": 0.3937007874015748
          },
          {
            "duration": 0.13636350000000164,
            "durationTicks": 96,
            "midi": 0,
            "name": "C-1",
            "ticks": 85728,
            "time": 121.7726055,
            "velocity": 0.3937007874015748
          },
          {
            "duration": 0.13636350000000164,
            "durationTicks": 96,
            "midi": 0,
            "name": "C-1",
            "ticks": 85824,
            "time": 121.908969,
            "velocity": 0.3937007874015748
          },
          {
            "duration": 0.13636350000000164,
            "durationTicks": 96,
            "midi": 0,
            "name": "C-1",
            "ticks": 85824,
            "time": 121.908969,
            "velocity": 0.3937007874015748
          },
          {
            "duration": 0.13636350000000164,
            "durationTicks": 96,
            "midi": 0,
            "name": "C-1",
            "ticks": 85920,
            "time": 122.0453325,
            "velocity": 0.3937007874015748
          }
        ],
        "endOfTrackTicks": 86016
      }
    ]
  }