{
    "header": {
      "keySignatures": [],
      "meta": [],
      "name": "",
      "ppq": 384,
      "tempos": [
        {
          "bpm": 120,
          "ticks": 0
        }
      ],
      "timeSignatures": [
        {
          "ticks": 0,
          "timeSignature": [
            1,
            4
          ],
          "measures": 0
        }
      ]
    },
    "tracks": [
      {
        "channel": 0,
        "controlChanges": {},
        "pitchBends": [],
        "instrument": {
          "family": "piano",
          "number": 0,
          "name": "acoustic grand piano"
        },
        "name": "Grand Piano",
        "notes": [
          {
            "duration": 1.125,
            "durationTicks": 864,
            "midi": 48,
            "name": "C3",
            "ticks": 3072,
            "time": 4,
            "velocity": 0.25984251968503935
          },
          {
            "duration": 0,
            "durationTicks": 0,
            "midi": 36,
            "name": "C2",
            "ticks": 3072,
            "time": 4,
            "velocity": 0.2992125984251969
          },
          {
            "duration": 0.125,
            "durationTicks": 96,
            "midi": 36,
            "name": "C2",
            "ticks": 3072,
            "time": 4,
            "velocity": 0.2992125984251969
          },
          {
            "duration": 0,
            "durationTicks": 0,
            "midi": 54,
            "name": "F#3",
            "ticks": 3072,
            "time": 4,
            "velocity": 0.2283464566929134
          },
          {
            "duration": 0,
            "durationTicks": 0,
            "midi": 44,
            "name": "G#2",
            "ticks": 3072,
            "time": 4,
            "velocity": 0.2677165354330709
          },
          {
            "duration": 0,
            "durationTicks": 0,
            "midi": 62,
            "name": "D4",
            "ticks": 3072,
            "time": 4,
            "velocity": 0.28346456692913385
          },
          {
            "duration": 0.125,
            "durationTicks": 96,
            "midi": 36,
            "name": "C2",
            "ticks": 3264,
            "time": 4.25,
            "velocity": 0.30708661417322836
          },
          {
            "duration": 0.125,
            "durationTicks": 96,
            "midi": 60,
            "name": "C4",
            "ticks": 3456,
            "time": 4.5,
            "velocity": 0.1889763779527559
          },
          {
            "duration": 0.125,
            "durationTicks": 96,
            "midi": 64,
            "name": "E4",
            "ticks": 3456,
            "time": 4.5,
            "velocity": 0.25984251968503935
          },
          {
            "duration": 0.125,
            "durationTicks": 96,
            "midi": 60,
            "name": "C4",
            "ticks": 3456,
            "time": 4.5,
            "velocity": 0.1889763779527559
          },
          {
            "duration": 0.125,
            "durationTicks": 96,
            "midi": 36,
            "name": "C2",
            "ticks": 3456,
            "time": 4.5,
            "velocity": 0.30708661417322836
          },
          {
            "duration": 0.125,
            "durationTicks": 96,
            "midi": 72,
            "name": "C5",
            "ticks": 3456,
            "time": 4.5,
            "velocity": 0.25984251968503935
          },
          {
            "duration": 0.125,
            "durationTicks": 96,
            "midi": 55,
            "name": "G3",
            "ticks": 3456,
            "time": 4.5,
            "velocity": 0.13385826771653545
          },
          {
            "duration": 0.625,
            "durationTicks": 480,
            "midi": 55,
            "name": "G3",
            "ticks": 3456,
            "time": 4.5,
            "velocity": 0.13385826771653545
          },
          {
            "duration": 0,
            "durationTicks": 0,
            "midi": 54,
            "name": "F#3",
            "ticks": 3456,
            "time": 4.5,
            "velocity": 0.2204724409448819
          },
          {
            "duration": 0,
            "durationTicks": 0,
            "midi": 62,
            "name": "D4",
            "ticks": 3456,
            "time": 4.5,
            "velocity": 0.29133858267716534
          },
          {
            "duration": 0,
            "durationTicks": 0,
            "midi": 38,
            "name": "D2",
            "ticks": 3456,
            "time": 4.5,
            "velocity": 0.33858267716535434
          },
          {
            "duration": 0,
            "durationTicks": 0,
            "midi": 44,
            "name": "G#2",
            "ticks": 3456,
            "time": 4.5,
            "velocity": 0.25984251968503935
          },
          {
            "duration": 0.125,
            "durationTicks": 96,
            "midi": 60,
            "name": "C4",
            "ticks": 3552,
            "time": 4.625,
            "velocity": 0.25984251968503935
          },
          {
            "duration": 0.125,
            "durationTicks": 96,
            "midi": 72,
            "name": "C5",
            "ticks": 3552,
            "time": 4.625,
            "velocity": 0.2677165354330709
          },
          {
            "duration": 0.125,
            "durationTicks": 96,
            "midi": 36,
            "name": "C2",
            "ticks": 3648,
            "time": 4.75,
            "velocity": 0.31496062992125984
          },
          {
            "duration": 0,
            "durationTicks": 0,
            "midi": 44,
            "name": "G#2",
            "ticks": 3840,
            "time": 5,
            "velocity": 0.2677165354330709
          },
          {
            "duration": 0,
            "durationTicks": 0,
            "midi": 36,
            "name": "C2",
            "ticks": 3840,
            "time": 5,
            "velocity": 0.2992125984251969
          },
          {
            "duration": 0.125,
            "durationTicks": 96,
            "midi": 63,
            "name": "D#4",
            "ticks": 3840,
            "time": 5,
            "velocity": 0.2440944881889764
          },
          {
            "duration": 0.125,
            "durationTicks": 96,
            "midi": 36,
            "name": "C2",
            "ticks": 3840,
            "time": 5,
            "velocity": 0.2992125984251969
          },
          {
            "duration": 0.125,
            "durationTicks": 96,
            "midi": 75,
            "name": "D#5",
            "ticks": 3840,
            "time": 5,
            "velocity": 0.2755905511811024
          },
          {
            "duration": 0,
            "durationTicks": 0,
            "midi": 54,
            "name": "F#3",
            "ticks": 3840,
            "time": 5,
            "velocity": 0.2283464566929134
          },
          {
            "duration": 0,
            "durationTicks": 0,
            "midi": 62,
            "name": "D4",
            "ticks": 3840,
            "time": 5,
            "velocity": 0.2755905511811024
          },
          {
            "duration": 0.125,
            "durationTicks": 96,
            "midi": 64,
            "name": "E4",
            "ticks": 3888,
            "time": 5.0625,
            "velocity": 0.23622047244094488
          },
          {
            "duration": 0.125,
            "durationTicks": 96,
            "midi": 76,
            "name": "E5",
            "ticks": 3888,
            "time": 5.0625,
            "velocity": 0.2047244094488189
          },
          {
            "duration": 0.125,
            "durationTicks": 96,
            "midi": 55,
            "name": "G3",
            "ticks": 4032,
            "time": 5.25,
            "velocity": 0.2755905511811024
          },
          {
            "duration": 0.125,
            "durationTicks": 96,
            "midi": 48,
            "name": "C3",
            "ticks": 4032,
            "time": 5.25,
            "velocity": 0.25984251968503935
          },
          {
            "duration": 0.25,
            "durationTicks": 192,
            "midi": 36,
            "name": "C2",
            "ticks": 4032,
            "time": 5.25,
            "velocity": 0.30708661417322836
          },
          {
            "duration": 0.125,
            "durationTicks": 96,
            "midi": 60,
            "name": "C4",
            "ticks": 4224,
            "time": 5.5,
            "velocity": 0.2047244094488189
          },
          {
            "duration": 0,
            "durationTicks": 0,
            "midi": 62,
            "name": "D4",
            "ticks": 4224,
            "time": 5.5,
            "velocity": 0.28346456692913385
          },
          {
            "duration": 0,
            "durationTicks": 0,
            "midi": 54,
            "name": "F#3",
            "ticks": 4224,
            "time": 5.5,
            "velocity": 0.2440944881889764
          },
          {
            "duration": 0,
            "durationTicks": 0,
            "midi": 38,
            "name": "D2",
            "ticks": 4224,
            "time": 5.5,
            "velocity": 0.33858267716535434
          },
          {
            "duration": 0,
            "durationTicks": 0,
            "midi": 44,
            "name": "G#2",
            "ticks": 4224,
            "time": 5.5,
            "velocity": 0.25984251968503935
          },
          {
            "duration": 0.5,
            "durationTicks": 384,
            "midi": 60,
            "name": "C4",
            "ticks": 4224,
            "time": 5.5,
            "velocity": 0.2047244094488189
          },
          {
            "duration": 0.125,
            "durationTicks": 96,
            "midi": 55,
            "name": "G3",
            "ticks": 4224,
            "time": 5.5,
            "velocity": 0.1889763779527559
          },
          {
            "duration": 0.25,
            "durationTicks": 192,
            "midi": 40,
            "name": "E2",
            "ticks": 4224,
            "time": 5.5,
            "velocity": 0.2992125984251969
          },
          {
            "duration": 0.5,
            "durationTicks": 384,
            "midi": 72,
            "name": "C5",
            "ticks": 4224,
            "time": 5.5,
            "velocity": 0.2677165354330709
          },
          {
            "duration": 0,
            "durationTicks": 0,
            "midi": 46,
            "name": "A#2",
            "ticks": 4416,
            "time": 5.75,
            "velocity": 0.2755905511811024
          },
          {
            "duration": 0.375,
            "durationTicks": 288,
            "midi": 38,
            "name": "D2",
            "ticks": 4416,
            "time": 5.75,
            "velocity": 0.31496062992125984
          },
          {
            "duration": 1.375,
            "durationTicks": 1056,
            "midi": 50,
            "name": "D3",
            "ticks": 4416,
            "time": 5.75,
            "velocity": 0.2677165354330709
          },
          {
            "duration": 1.375,
            "durationTicks": 1056,
            "midi": 57,
            "name": "A3",
            "ticks": 4416,
            "time": 5.75,
            "velocity": 0.25984251968503935
          },
          {
            "duration": 0,
            "durationTicks": 0,
            "midi": 54,
            "name": "F#3",
            "ticks": 4608,
            "time": 6,
            "velocity": 0.23622047244094488
          },
          {
            "duration": 0,
            "durationTicks": 0,
            "midi": 62,
            "name": "D4",
            "ticks": 4608,
            "time": 6,
            "velocity": 0.29133858267716534
          },
          {
            "duration": 0,
            "durationTicks": 0,
            "midi": 36,
            "name": "C2",
            "ticks": 4608,
            "time": 6,
            "velocity": 0.33858267716535434
          },
          {
            "duration": 0,
            "durationTicks": 0,
            "midi": 44,
            "name": "G#2",
            "ticks": 4608,
            "time": 6,
            "velocity": 0.2755905511811024
          },
          {
            "duration": 0.125,
            "durationTicks": 96,
            "midi": 38,
            "name": "D2",
            "ticks": 4800,
            "time": 6.25,
            "velocity": 0.31496062992125984
          },
          {
            "duration": 0.125,
            "durationTicks": 96,
            "midi": 60,
            "name": "C4",
            "ticks": 4992,
            "time": 6.5,
            "velocity": 0.2047244094488189
          },
          {
            "duration": 0,
            "durationTicks": 0,
            "midi": 38,
            "name": "D2",
            "ticks": 4992,
            "time": 6.5,
            "velocity": 0.31496062992125984
          },
          {
            "duration": 0.125,
            "durationTicks": 96,
            "midi": 38,
            "name": "D2",
            "ticks": 4992,
            "time": 6.5,
            "velocity": 0.31496062992125984
          },
          {
            "duration": 0.125,
            "durationTicks": 96,
            "midi": 66,
            "name": "F#4",
            "ticks": 4992,
            "time": 6.5,
            "velocity": 0.28346456692913385
          },
          {
            "duration": 0.125,
            "durationTicks": 96,
            "midi": 63,
            "name": "D#4",
            "ticks": 4992,
            "time": 6.5,
            "velocity": 0.25984251968503935
          },
          {
            "duration": 0,
            "durationTicks": 0,
            "midi": 62,
            "name": "D4",
            "ticks": 4992,
            "time": 6.5,
            "velocity": 0.2755905511811024
          },
          {
            "duration": 0,
            "durationTicks": 0,
            "midi": 54,
            "name": "F#3",
            "ticks": 4992,
            "time": 6.5,
            "velocity": 0.2283464566929134
          },
          {
            "duration": 0,
            "durationTicks": 0,
            "midi": 44,
            "name": "G#2",
            "ticks": 4992,
            "time": 6.5,
            "velocity": 0.2677165354330709
          },
          {
            "duration": 0.125,
            "durationTicks": 96,
            "midi": 75,
            "name": "D#5",
            "ticks": 4992,
            "time": 6.5,
            "velocity": 0.2440944881889764
          },
          {
            "duration": 0.125,
            "durationTicks": 96,
            "midi": 76,
            "name": "E5",
            "ticks": 5040,
            "time": 6.5625,
            "velocity": 0.2283464566929134
          },
          {
            "duration": 0.125,
            "durationTicks": 96,
            "midi": 64,
            "name": "E4",
            "ticks": 5040,
            "time": 6.5625,
            "velocity": 0.25196850393700787
          },
          {
            "duration": 0.125,
            "durationTicks": 96,
            "midi": 38,
            "name": "D2",
            "ticks": 5184,
            "time": 6.75,
            "velocity": 0.2992125984251969
          },
          {
            "duration": 1,
            "durationTicks": 768,
            "midi": 72,
            "name": "C5",
            "ticks": 5376,
            "time": 7,
            "velocity": 0.2677165354330709
          },
          {
            "duration": 0.125,
            "durationTicks": 96,
            "midi": 38,
            "name": "D2",
            "ticks": 5376,
            "time": 7,
            "velocity": 0.2992125984251969
          },
          {
            "duration": 0,
            "durationTicks": 0,
            "midi": 54,
            "name": "F#3",
            "ticks": 5376,
            "time": 7,
            "velocity": 0.2204724409448819
          },
          {
            "duration": 0,
            "durationTicks": 0,
            "midi": 36,
            "name": "C2",
            "ticks": 5376,
            "time": 7,
            "velocity": 0.33858267716535434
          },
          {
            "duration": 0,
            "durationTicks": 0,
            "midi": 62,
            "name": "D4",
            "ticks": 5376,
            "time": 7,
            "velocity": 0.28346456692913385
          },
          {
            "duration": 0,
            "durationTicks": 0,
            "midi": 44,
            "name": "G#2",
            "ticks": 5376,
            "time": 7,
            "velocity": 0.25984251968503935
          },
          {
            "duration": 0.125,
            "durationTicks": 96,
            "midi": 50,
            "name": "D3",
            "ticks": 5568,
            "time": 7.25,
            "velocity": 0.25984251968503935
          },
          {
            "duration": 0.125,
            "durationTicks": 96,
            "midi": 57,
            "name": "A3",
            "ticks": 5568,
            "time": 7.25,
            "velocity": 0.2755905511811024
          },
          {
            "duration": 0.25,
            "durationTicks": 192,
            "midi": 38,
            "name": "D2",
            "ticks": 5568,
            "time": 7.25,
            "velocity": 0.31496062992125984
          },
          {
            "duration": 0.25,
            "durationTicks": 192,
            "midi": 40,
            "name": "E2",
            "ticks": 5760,
            "time": 7.5,
            "velocity": 0.2992125984251969
          },
          {
            "duration": 0,
            "durationTicks": 0,
            "midi": 54,
            "name": "F#3",
            "ticks": 5760,
            "time": 7.5,
            "velocity": 0.2440944881889764
          },
          {
            "duration": 0.125,
            "durationTicks": 96,
            "midi": 60,
            "name": "C4",
            "ticks": 5760,
            "time": 7.5,
            "velocity": 0.23622047244094488
          },
          {
            "duration": 0.125,
            "durationTicks": 96,
            "midi": 57,
            "name": "A3",
            "ticks": 5760,
            "time": 7.5,
            "velocity": 0.18110236220472442
          },
          {
            "duration": 0.5,
            "durationTicks": 384,
            "midi": 60,
            "name": "C4",
            "ticks": 5760,
            "time": 7.5,
            "velocity": 0.23622047244094488
          },
          {
            "duration": 0,
            "durationTicks": 0,
            "midi": 44,
            "name": "G#2",
            "ticks": 5760,
            "time": 7.5,
            "velocity": 0.2755905511811024
          },
          {
            "duration": 0,
            "durationTicks": 0,
            "midi": 62,
            "name": "D4",
            "ticks": 5760,
            "time": 7.5,
            "velocity": 0.2755905511811024
          },
          {
            "duration": 0,
            "durationTicks": 0,
            "midi": 38,
            "name": "D2",
            "ticks": 5760,
            "time": 7.5,
            "velocity": 0.33070866141732286
          },
          {
            "duration": 0.125,
            "durationTicks": 96,
            "midi": 66,
            "name": "F#4",
            "ticks": 5760,
            "time": 7.5,
            "velocity": 0.1889763779527559
          },
          {
            "duration": 1.375,
            "durationTicks": 1056,
            "midi": 53,
            "name": "F3",
            "ticks": 5952,
            "time": 7.75,
            "velocity": 0.2677165354330709
          },
          {
            "duration": 1.375,
            "durationTicks": 1056,
            "midi": 57,
            "name": "A3",
            "ticks": 5952,
            "time": 7.75,
            "velocity": 0.2755905511811024
          },
          {
            "duration": 0,
            "durationTicks": 0,
            "midi": 46,
            "name": "A#2",
            "ticks": 5952,
            "time": 7.75,
            "velocity": 0.2677165354330709
          },
          {
            "duration": 0.375,
            "durationTicks": 288,
            "midi": 41,
            "name": "F2",
            "ticks": 5952,
            "time": 7.75,
            "velocity": 0.31496062992125984
          },
          {
            "duration": 0,
            "durationTicks": 0,
            "midi": 44,
            "name": "G#2",
            "ticks": 6144,
            "time": 8,
            "velocity": 0.25984251968503935
          },
          {
            "duration": 0,
            "durationTicks": 0,
            "midi": 36,
            "name": "C2",
            "ticks": 6144,
            "time": 8,
            "velocity": 0.33858267716535434
          },
          {
            "duration": 0,
            "durationTicks": 0,
            "midi": 62,
            "name": "D4",
            "ticks": 6144,
            "time": 8,
            "velocity": 0.28346456692913385
          },
          {
            "duration": 0,
            "durationTicks": 0,
            "midi": 54,
            "name": "F#3",
            "ticks": 6144,
            "time": 8,
            "velocity": 0.2283464566929134
          },
          {
            "duration": 0.125,
            "durationTicks": 96,
            "midi": 41,
            "name": "F2",
            "ticks": 6336,
            "time": 8.25,
            "velocity": 0.31496062992125984
          },
          {
            "duration": 0.125,
            "durationTicks": 96,
            "midi": 60,
            "name": "C4",
            "ticks": 6528,
            "time": 8.5,
            "velocity": 0.18110236220472442
          },
          {
            "duration": 0,
            "durationTicks": 0,
            "midi": 54,
            "name": "F#3",
            "ticks": 6528,
            "time": 8.5,
            "velocity": 0.23622047244094488
          },
          {
            "duration": 0.125,
            "durationTicks": 96,
            "midi": 65,
            "name": "F4",
            "ticks": 6528,
            "time": 8.5,
            "velocity": 0.25196850393700787
          },
          {
            "duration": 0,
            "durationTicks": 0,
            "midi": 44,
            "name": "G#2",
            "ticks": 6528,
            "time": 8.5,
            "velocity": 0.2755905511811024
          },
          {
            "duration": 0.125,
            "durationTicks": 96,
            "midi": 69,
            "name": "A4",
            "ticks": 6528,
            "time": 8.5,
            "velocity": 0.2755905511811024
          },
          {
            "duration": 0.125,
            "durationTicks": 96,
            "midi": 72,
            "name": "C5",
            "ticks": 6528,
            "time": 8.5,
            "velocity": 0.2440944881889764
          },
          {
            "duration": 0,
            "durationTicks": 0,
            "midi": 62,
            "name": "D4",
            "ticks": 6528,
            "time": 8.5,
            "velocity": 0.2755905511811024
          },
          {
            "duration": 0,
            "durationTicks": 0,
            "midi": 38,
            "name": "D2",
            "ticks": 6528,
            "time": 8.5,
            "velocity": 0.33858267716535434
          },
          {
            "duration": 0.125,
            "durationTicks": 96,
            "midi": 60,
            "name": "C4",
            "ticks": 6528,
            "time": 8.5,
            "velocity": 0.18110236220472442
          },
          {
            "duration": 0.125,
            "durationTicks": 96,
            "midi": 41,
            "name": "F2",
            "ticks": 6528,
            "time": 8.5,
            "velocity": 0.2992125984251969
          },
          {
            "duration": 0.125,
            "durationTicks": 96,
            "midi": 72,
            "name": "C5",
            "ticks": 6624,
            "time": 8.625,
            "velocity": 0.23622047244094488
          },
          {
            "duration": 0.125,
            "durationTicks": 96,
            "midi": 60,
            "name": "C4",
            "ticks": 6624,
            "time": 8.625,
            "velocity": 0.2677165354330709
          },
          {
            "duration": 0.125,
            "durationTicks": 96,
            "midi": 41,
            "name": "F2",
            "ticks": 6720,
            "time": 8.75,
            "velocity": 0.31496062992125984
          },
          {
            "duration": 0,
            "durationTicks": 0,
            "midi": 54,
            "name": "F#3",
            "ticks": 6912,
            "time": 9,
            "velocity": 0.2204724409448819
          },
          {
            "duration": 0,
            "durationTicks": 0,
            "midi": 62,
            "name": "D4",
            "ticks": 6912,
            "time": 9,
            "velocity": 0.29133858267716534
          },
          {
            "duration": 0,
            "durationTicks": 0,
            "midi": 36,
            "name": "C2",
            "ticks": 6912,
            "time": 9,
            "velocity": 0.33070866141732286
          },
          {
            "duration": 0.125,
            "durationTicks": 96,
            "midi": 75,
            "name": "D#5",
            "ticks": 6912,
            "time": 9,
            "velocity": 0.2677165354330709
          },
          {
            "duration": 0,
            "durationTicks": 0,
            "midi": 44,
            "name": "G#2",
            "ticks": 6912,
            "time": 9,
            "velocity": 0.2677165354330709
          },
          {
            "duration": 0.125,
            "durationTicks": 96,
            "midi": 63,
            "name": "D#4",
            "ticks": 6912,
            "time": 9,
            "velocity": 0.2755905511811024
          },
          {
            "duration": 0.125,
            "durationTicks": 96,
            "midi": 41,
            "name": "F2",
            "ticks": 6912,
            "time": 9,
            "velocity": 0.31496062992125984
          },
          {
            "duration": 0.125,
            "durationTicks": 96,
            "midi": 64,
            "name": "E4",
            "ticks": 6960,
            "time": 9.0625,
            "velocity": 0.25196850393700787
          },
          {
            "duration": 0.125,
            "durationTicks": 96,
            "midi": 76,
            "name": "E5",
            "ticks": 6960,
            "time": 9.0625,
            "velocity": 0.23622047244094488
          },
          {
            "duration": 0.125,
            "durationTicks": 96,
            "midi": 41,
            "name": "F2",
            "ticks": 7104,
            "time": 9.25,
            "velocity": 0.2992125984251969
          },
          {
            "duration": 0.5,
            "durationTicks": 384,
            "midi": 53,
            "name": "F3",
            "ticks": 7104,
            "time": 9.25,
            "velocity": 0.2677165354330709
          },
          {
            "duration": 0.5,
            "durationTicks": 384,
            "midi": 57,
            "name": "A3",
            "ticks": 7104,
            "time": 9.25,
            "velocity": 0.2755905511811024
          },
          {
            "duration": 0,
            "durationTicks": 0,
            "midi": 62,
            "name": "D4",
            "ticks": 7296,
            "time": 9.5,
            "velocity": 0.28346456692913385
          },
          {
            "duration": 0,
            "durationTicks": 0,
            "midi": 54,
            "name": "F#3",
            "ticks": 7296,
            "time": 9.5,
            "velocity": 0.23622047244094488
          },
          {
            "duration": 0,
            "durationTicks": 0,
            "midi": 44,
            "name": "G#2",
            "ticks": 7296,
            "time": 9.5,
            "velocity": 0.2677165354330709
          },
          {
            "duration": 0.125,
            "durationTicks": 96,
            "midi": 69,
            "name": "A4",
            "ticks": 7296,
            "time": 9.5,
            "velocity": 0.25984251968503935
          },
          {
            "duration": 0.125,
            "durationTicks": 96,
            "midi": 65,
            "name": "F4",
            "ticks": 7296,
            "time": 9.5,
            "velocity": 0.18110236220472442
          },
          {
            "duration": 0,
            "durationTicks": 0,
            "midi": 38,
            "name": "D2",
            "ticks": 7296,
            "time": 9.5,
            "velocity": 0.33858267716535434
          },
          {
            "duration": 0.25,
            "durationTicks": 192,
            "midi": 41,
            "name": "F2",
            "ticks": 7296,
            "time": 9.5,
            "velocity": 0.2992125984251969
          },
          {
            "duration": 0.5,
            "durationTicks": 384,
            "midi": 60,
            "name": "C4",
            "ticks": 7296,
            "time": 9.5,
            "velocity": 0.23622047244094488
          },
          {
            "duration": 0.5,
            "durationTicks": 384,
            "midi": 72,
            "name": "C5",
            "ticks": 7296,
            "time": 9.5,
            "velocity": 0.2677165354330709
          },
          {
            "duration": 0,
            "durationTicks": 0,
            "midi": 46,
            "name": "A#2",
            "ticks": 7488,
            "time": 9.75,
            "velocity": 0.2755905511811024
          },
          {
            "duration": 0.375,
            "durationTicks": 288,
            "midi": 43,
            "name": "G2",
            "ticks": 7488,
            "time": 9.75,
            "velocity": 0.30708661417322836
          },
          {
            "duration": 0,
            "durationTicks": 0,
            "midi": 54,
            "name": "F#3",
            "ticks": 7680,
            "time": 10,
            "velocity": 0.23622047244094488
          },
          {
            "duration": 0.25,
            "durationTicks": 192,
            "midi": 52,
            "name": "E3",
            "ticks": 7680,
            "time": 10,
            "velocity": 0.2755905511811024
          },
          {
            "duration": 0,
            "durationTicks": 0,
            "midi": 36,
            "name": "C2",
            "ticks": 7680,
            "time": 10,
            "velocity": 0.33070866141732286
          },
          {
            "duration": 0,
            "durationTicks": 0,
            "midi": 44,
            "name": "G#2",
            "ticks": 7680,
            "time": 10,
            "velocity": 0.2677165354330709
          },
          {
            "duration": 0,
            "durationTicks": 0,
            "midi": 62,
            "name": "D4",
            "ticks": 7680,
            "time": 10,
            "velocity": 0.28346456692913385
          },
          {
            "duration": 0.5,
            "durationTicks": 384,
            "midi": 55,
            "name": "G3",
            "ticks": 7680,
            "time": 10,
            "velocity": 0.25984251968503935
          },
          {
            "duration": 0.125,
            "durationTicks": 96,
            "midi": 43,
            "name": "G2",
            "ticks": 7872,
            "time": 10.25,
            "velocity": 0.2992125984251969
          },
          {
            "duration": 0.25,
            "durationTicks": 192,
            "midi": 50,
            "name": "D3",
            "ticks": 7872,
            "time": 10.25,
            "velocity": 0.25984251968503935
          },
          {
            "duration": 0.125,
            "durationTicks": 96,
            "midi": 71,
            "name": "B4",
            "ticks": 8064,
            "time": 10.5,
            "velocity": 0.2755905511811024
          },
          {
            "duration": 0.125,
            "durationTicks": 96,
            "midi": 63,
            "name": "D#4",
            "ticks": 8064,
            "time": 10.5,
            "velocity": 0.23622047244094488
          },
          {
            "duration": 0.125,
            "durationTicks": 96,
            "midi": 67,
            "name": "G4",
            "ticks": 8064,
            "time": 10.5,
            "velocity": 0.2204724409448819
          },
          {
            "duration": 0,
            "durationTicks": 0,
            "midi": 62,
            "name": "D4",
            "ticks": 8064,
            "time": 10.5,
            "velocity": 0.2755905511811024
          },
          {
            "duration": 0,
            "durationTicks": 0,
            "midi": 38,
            "name": "D2",
            "ticks": 8064,
            "time": 10.5,
            "velocity": 0.33070866141732286
          },
          {
            "duration": 0.125,
            "durationTicks": 96,
            "midi": 43,
            "name": "G2",
            "ticks": 8064,
            "time": 10.5,
            "velocity": 0.30708661417322836
          },
          {
            "duration": 0.125,
            "durationTicks": 96,
            "midi": 75,
            "name": "D#5",
            "ticks": 8064,
            "time": 10.5,
            "velocity": 0.25984251968503935
          },
          {
            "duration": 0,
            "durationTicks": 0,
            "midi": 44,
            "name": "G#2",
            "ticks": 8064,
            "time": 10.5,
            "velocity": 0.2677165354330709
          },
          {
            "duration": 0,
            "durationTicks": 0,
            "midi": 54,
            "name": "F#3",
            "ticks": 8064,
            "time": 10.5,
            "velocity": 0.2283464566929134
          },
          {
            "duration": 0.125,
            "durationTicks": 96,
            "midi": 76,
            "name": "E5",
            "ticks": 8112,
            "time": 10.5625,
            "velocity": 0.25984251968503935
          },
          {
            "duration": 0.125,
            "durationTicks": 96,
            "midi": 64,
            "name": "E4",
            "ticks": 8112,
            "time": 10.5625,
            "velocity": 0.2755905511811024
          },
          {
            "duration": 0.25,
            "durationTicks": 192,
            "midi": 52,
            "name": "E3",
            "ticks": 8256,
            "time": 10.75,
            "velocity": 0.25984251968503935
          },
          {
            "duration": 0.125,
            "durationTicks": 96,
            "midi": 43,
            "name": "G2",
            "ticks": 8256,
            "time": 10.75,
            "velocity": 0.31496062992125984
          },
          {
            "duration": 0.25,
            "durationTicks": 192,
            "midi": 55,
            "name": "G3",
            "ticks": 8256,
            "time": 10.75,
            "velocity": 0.25196850393700787
          },
          {
            "duration": 0,
            "durationTicks": 0,
            "midi": 36,
            "name": "C2",
            "ticks": 8448,
            "time": 11,
            "velocity": 0.33070866141732286
          },
          {
            "duration": 0.875,
            "durationTicks": 672,
            "midi": 72,
            "name": "C5",
            "ticks": 8448,
            "time": 11,
            "velocity": 0.2677165354330709
          },
          {
            "duration": 0.875,
            "durationTicks": 672,
            "midi": 60,
            "name": "C4",
            "ticks": 8448,
            "time": 11,
            "velocity": 0.28346456692913385
          },
          {
            "duration": 0.125,
            "durationTicks": 96,
            "midi": 43,
            "name": "G2",
            "ticks": 8448,
            "time": 11,
            "velocity": 0.31496062992125984
          },
          {
            "duration": 0,
            "durationTicks": 0,
            "midi": 44,
            "name": "G#2",
            "ticks": 8448,
            "time": 11,
            "velocity": 0.2677165354330709
          },
          {
            "duration": 0,
            "durationTicks": 0,
            "midi": 54,
            "name": "F#3",
            "ticks": 8448,
            "time": 11,
            "velocity": 0.2283464566929134
          },
          {
            "duration": 0,
            "durationTicks": 0,
            "midi": 62,
            "name": "D4",
            "ticks": 8448,
            "time": 11,
            "velocity": 0.2755905511811024
          },
          {
            "duration": 0.25,
            "durationTicks": 192,
            "midi": 43,
            "name": "G2",
            "ticks": 8640,
            "time": 11.25,
            "velocity": 0.2992125984251969
          },
          {
            "duration": 0.625,
            "durationTicks": 480,
            "midi": 55,
            "name": "G3",
            "ticks": 8640,
            "time": 11.25,
            "velocity": 0.25984251968503935
          },
          {
            "duration": 0.625,
            "durationTicks": 480,
            "midi": 50,
            "name": "D3",
            "ticks": 8640,
            "time": 11.25,
            "velocity": 0.25984251968503935
          },
          {
            "duration": 0.125,
            "durationTicks": 96,
            "midi": 71,
            "name": "B4",
            "ticks": 8832,
            "time": 11.5,
            "velocity": 0.28346456692913385
          },
          {
            "duration": 0.25,
            "durationTicks": 192,
            "midi": 45,
            "name": "A2",
            "ticks": 8832,
            "time": 11.5,
            "velocity": 0.2992125984251969
          },
          {
            "duration": 0,
            "durationTicks": 0,
            "midi": 54,
            "name": "F#3",
            "ticks": 8832,
            "time": 11.5,
            "velocity": 0.2204724409448819
          },
          {
            "duration": 0.125,
            "durationTicks": 96,
            "midi": 67,
            "name": "G4",
            "ticks": 8832,
            "time": 11.5,
            "velocity": 0.1968503937007874
          },
          {
            "duration": 0,
            "durationTicks": 0,
            "midi": 62,
            "name": "D4",
            "ticks": 8832,
            "time": 11.5,
            "velocity": 0.2755905511811024
          },
          {
            "duration": 0,
            "durationTicks": 0,
            "midi": 38,
            "name": "D2",
            "ticks": 8832,
            "time": 11.5,
            "velocity": 0.33858267716535434
          },
          {
            "duration": 0,
            "durationTicks": 0,
            "midi": 44,
            "name": "G#2",
            "ticks": 8832,
            "time": 11.5,
            "velocity": 0.2677165354330709
          },
          {
            "duration": 0,
            "durationTicks": 0,
            "midi": 46,
            "name": "A#2",
            "ticks": 9024,
            "time": 11.75,
            "velocity": 0.2677165354330709
          },
          {
            "duration": 0.25,
            "durationTicks": 192,
            "midi": 43,
            "name": "G2",
            "ticks": 9024,
            "time": 11.75,
            "velocity": 0.30708661417322836
          },
          {
            "duration": 0,
            "durationTicks": 0,
            "midi": 54,
            "name": "F#3",
            "ticks": 9216,
            "time": 12,
            "velocity": 0.2440944881889764
          },
          {
            "duration": 0,
            "durationTicks": 0,
            "midi": 36,
            "name": "C2",
            "ticks": 9216,
            "time": 12,
            "velocity": 0.30708661417322836
          },
          {
            "duration": 0,
            "durationTicks": 0,
            "midi": 60,
            "name": "C4",
            "ticks": 9216,
            "time": 12,
            "velocity": 0.3228346456692913
          },
          {
            "duration": 0,
            "durationTicks": 0,
            "midi": 44,
            "name": "G#2",
            "ticks": 9216,
            "time": 12,
            "velocity": 0.2677165354330709
          },
          {
            "duration": 1,
            "durationTicks": 768,
            "midi": 55,
            "name": "G3",
            "ticks": 9216,
            "time": 12,
            "velocity": 0.1889763779527559
          },
          {
            "duration": 1.125,
            "durationTicks": 864,
            "midi": 84,
            "name": "C6",
            "ticks": 9216,
            "time": 12,
            "velocity": 0.1968503937007874
          },
          {
            "duration": 0.375,
            "durationTicks": 288,
            "midi": 36,
            "name": "C2",
            "ticks": 9216,
            "time": 12,
            "velocity": 0.30708661417322836
          },
          {
            "duration": 1.125,
            "durationTicks": 864,
            "midi": 52,
            "name": "E3",
            "ticks": 9216,
            "time": 12,
            "velocity": 0.2755905511811024
          },
          {
            "duration": 1.125,
            "durationTicks": 864,
            "midi": 84,
            "name": "C6",
            "ticks": 9216,
            "time": 12,
            "velocity": 0.1968503937007874
          },
          {
            "duration": 0.125,
            "durationTicks": 96,
            "midi": 60,
            "name": "C4",
            "ticks": 9216,
            "time": 12,
            "velocity": 0.3228346456692913
          },
          {
            "duration": 1,
            "durationTicks": 768,
            "midi": 64,
            "name": "E4",
            "ticks": 9216,
            "time": 12,
            "velocity": 0.1889763779527559
          },
          {
            "duration": 1.125,
            "durationTicks": 864,
            "midi": 48,
            "name": "C3",
            "ticks": 9216,
            "time": 12,
            "velocity": 0.2677165354330709
          },
          {
            "duration": 0.125,
            "durationTicks": 96,
            "midi": 60,
            "name": "C4",
            "ticks": 9312,
            "time": 12.125,
            "velocity": 0.31496062992125984
          },
          {
            "duration": 0.125,
            "durationTicks": 96,
            "midi": 60,
            "name": "C4",
            "ticks": 9408,
            "time": 12.25,
            "velocity": 0.33858267716535434
          },
          {
            "duration": 0.125,
            "durationTicks": 96,
            "midi": 60,
            "name": "C4",
            "ticks": 9600,
            "time": 12.5,
            "velocity": 0.3228346456692913
          },
          {
            "duration": 0.375,
            "durationTicks": 288,
            "midi": 36,
            "name": "C2",
            "ticks": 9600,
            "time": 12.5,
            "velocity": 0.30708661417322836
          },
          {
            "duration": 0,
            "durationTicks": 0,
            "midi": 54,
            "name": "F#3",
            "ticks": 9600,
            "time": 12.5,
            "velocity": 0.2440944881889764
          },
          {
            "duration": 0,
            "durationTicks": 0,
            "midi": 61,
            "name": "C#4",
            "ticks": 9600,
            "time": 12.5,
            "velocity": 0.2755905511811024
          },
          {
            "duration": 0,
            "durationTicks": 0,
            "midi": 38,
            "name": "D2",
            "ticks": 9600,
            "time": 12.5,
            "velocity": 0.33858267716535434
          },
          {
            "duration": 0,
            "durationTicks": 0,
            "midi": 44,
            "name": "G#2",
            "ticks": 9600,
            "time": 12.5,
            "velocity": 0.2677165354330709
          },
          {
            "duration": 0.125,
            "durationTicks": 96,
            "midi": 60,
            "name": "C4",
            "ticks": 9696,
            "time": 12.625,
            "velocity": 0.3228346456692913
          },
          {
            "duration": 0.125,
            "durationTicks": 96,
            "midi": 60,
            "name": "C4",
            "ticks": 9792,
            "time": 12.75,
            "velocity": 0.33070866141732286
          },
          {
            "duration": 0.25,
            "durationTicks": 192,
            "midi": 60,
            "name": "C4",
            "ticks": 9792,
            "time": 12.75,
            "velocity": 0.33070866141732286
          },
          {
            "duration": 0,
            "durationTicks": 0,
            "midi": 36,
            "name": "C2",
            "ticks": 9984,
            "time": 13,
            "velocity": 0.30708661417322836
          },
          {
            "duration": 0,
            "durationTicks": 0,
            "midi": 60,
            "name": "C4",
            "ticks": 9984,
            "time": 13,
            "velocity": 0.28346456692913385
          },
          {
            "duration": 0,
            "durationTicks": 0,
            "midi": 54,
            "name": "F#3",
            "ticks": 9984,
            "time": 13,
            "velocity": 0.2440944881889764
          },
          {
            "duration": 0.125,
            "durationTicks": 96,
            "midi": 36,
            "name": "C2",
            "ticks": 9984,
            "time": 13,
            "velocity": 0.30708661417322836
          },
          {
            "duration": 0,
            "durationTicks": 0,
            "midi": 44,
            "name": "G#2",
            "ticks": 9984,
            "time": 13,
            "velocity": 0.2677165354330709
          },
          {
            "duration": 0.25,
            "durationTicks": 192,
            "midi": 55,
            "name": "G3",
            "ticks": 10176,
            "time": 13.25,
            "velocity": 0.1889763779527559
          },
          {
            "duration": 0.375,
            "durationTicks": 288,
            "midi": 36,
            "name": "C2",
            "ticks": 10176,
            "time": 13.25,
            "velocity": 0.2992125984251969
          },
          {
            "duration": 0.25,
            "durationTicks": 192,
            "midi": 60,
            "name": "C4",
            "ticks": 10176,
            "time": 13.25,
            "velocity": 0.25196850393700787
          },
          {
            "duration": 0.125,
            "durationTicks": 96,
            "midi": 64,
            "name": "E4",
            "ticks": 10176,
            "time": 13.25,
            "velocity": 0.23622047244094488
          },
          {
            "duration": 0.125,
            "durationTicks": 96,
            "midi": 48,
            "name": "C3",
            "ticks": 10176,
            "time": 13.25,
            "velocity": 0.25984251968503935
          },
          {
            "duration": 0.125,
            "durationTicks": 96,
            "midi": 52,
            "name": "E3",
            "ticks": 10176,
            "time": 13.25,
            "velocity": 0.25984251968503935
          },
          {
            "duration": 0.25,
            "durationTicks": 192,
            "midi": 84,
            "name": "C6",
            "ticks": 10176,
            "time": 13.25,
            "velocity": 0.2204724409448819
          },
          {
            "duration": 0.25,
            "durationTicks": 192,
            "midi": 84,
            "name": "C6",
            "ticks": 10176,
            "time": 13.25,
            "velocity": 0.2204724409448819
          },
          {
            "duration": 0.25,
            "durationTicks": 192,
            "midi": 64,
            "name": "E4",
            "ticks": 10176,
            "time": 13.25,
            "velocity": 0.23622047244094488
          },
          {
            "duration": 0.25,
            "durationTicks": 192,
            "midi": 81,
            "name": "A5",
            "ticks": 10368,
            "time": 13.5,
            "velocity": 0.1968503937007874
          },
          {
            "duration": 0.25,
            "durationTicks": 192,
            "midi": 81,
            "name": "A5",
            "ticks": 10368,
            "time": 13.5,
            "velocity": 0.1968503937007874
          },
          {
            "duration": 0,
            "durationTicks": 0,
            "midi": 44,
            "name": "G#2",
            "ticks": 10368,
            "time": 13.5,
            "velocity": 0.2755905511811024
          },
          {
            "duration": 0,
            "durationTicks": 0,
            "midi": 54,
            "name": "F#3",
            "ticks": 10368,
            "time": 13.5,
            "velocity": 0.23622047244094488
          },
          {
            "duration": 0,
            "durationTicks": 0,
            "midi": 61,
            "name": "C#4",
            "ticks": 10368,
            "time": 13.5,
            "velocity": 0.2755905511811024
          },
          {
            "duration": 0,
            "durationTicks": 0,
            "midi": 38,
            "name": "D2",
            "ticks": 10368,
            "time": 13.5,
            "velocity": 0.33858267716535434
          },
          {
            "duration": 0,
            "durationTicks": 0,
            "midi": 60,
            "name": "C4",
            "ticks": 10464,
            "time": 13.625,
            "velocity": 0.2755905511811024
          },
          {
            "duration": 0,
            "durationTicks": 0,
            "midi": 61,
            "name": "C#4",
            "ticks": 10560,
            "time": 13.75,
            "velocity": 0.28346456692913385
          },
          {
            "duration": 0.5,
            "durationTicks": 384,
            "midi": 57,
            "name": "A3",
            "ticks": 10560,
            "time": 13.75,
            "velocity": 0.23622047244094488
          },
          {
            "duration": 0,
            "durationTicks": 0,
            "midi": 46,
            "name": "A#2",
            "ticks": 10560,
            "time": 13.75,
            "velocity": 0.2677165354330709
          },
          {
            "duration": 1.375,
            "durationTicks": 1056,
            "midi": 50,
            "name": "D3",
            "ticks": 10560,
            "time": 13.75,
            "velocity": 0.25196850393700787
          },
          {
            "duration": 0.25,
            "durationTicks": 192,
            "midi": 84,
            "name": "C6",
            "ticks": 10560,
            "time": 13.75,
            "velocity": 0.1889763779527559
          },
          {
            "duration": 0.25,
            "durationTicks": 192,
            "midi": 84,
            "name": "C6",
            "ticks": 10560,
            "time": 13.75,
            "velocity": 0.1889763779527559
          },
          {
            "duration": 0.25,
            "durationTicks": 192,
            "midi": 60,
            "name": "C4",
            "ticks": 10560,
            "time": 13.75,
            "velocity": 0.2125984251968504
          },
          {
            "duration": 0.25,
            "durationTicks": 192,
            "midi": 66,
            "name": "F#4",
            "ticks": 10560,
            "time": 13.75,
            "velocity": 0.1732283464566929
          },
          {
            "duration": 0.25,
            "durationTicks": 192,
            "midi": 36,
            "name": "C2",
            "ticks": 10560,
            "time": 13.75,
            "velocity": 0.31496062992125984
          },
          {
            "duration": 0,
            "durationTicks": 0,
            "midi": 44,
            "name": "G#2",
            "ticks": 10752,
            "time": 14,
            "velocity": 0.2677165354330709
          },
          {
            "duration": 0,
            "durationTicks": 0,
            "midi": 60,
            "name": "C4",
            "ticks": 10752,
            "time": 14,
            "velocity": 0.2440944881889764
          },
          {
            "duration": 0.25,
            "durationTicks": 192,
            "midi": 66,
            "name": "F#4",
            "ticks": 10752,
            "time": 14,
            "velocity": 0.2047244094488189
          },
          {
            "duration": 0,
            "durationTicks": 0,
            "midi": 54,
            "name": "F#3",
            "ticks": 10752,
            "time": 14,
            "velocity": 0.2204724409448819
          },
          {
            "duration": 0.375,
            "durationTicks": 288,
            "midi": 38,
            "name": "D2",
            "ticks": 10752,
            "time": 14,
            "velocity": 0.30708661417322836
          },
          {
            "duration": 0,
            "durationTicks": 0,
            "midi": 36,
            "name": "C2",
            "ticks": 10752,
            "time": 14,
            "velocity": 0.33858267716535434
          },
          {
            "duration": 1.25,
            "durationTicks": 960,
            "midi": 88,
            "name": "E6",
            "ticks": 10752,
            "time": 14,
            "velocity": 0.2204724409448819
          },
          {
            "duration": 0.25,
            "durationTicks": 192,
            "midi": 60,
            "name": "C4",
            "ticks": 10752,
            "time": 14,
            "velocity": 0.2440944881889764
          },
          {
            "duration": 1.25,
            "durationTicks": 960,
            "midi": 88,
            "name": "E6",
            "ticks": 10752,
            "time": 14,
            "velocity": 0.2204724409448819
          },
          {
            "duration": 0,
            "durationTicks": 0,
            "midi": 38,
            "name": "D2",
            "ticks": 11136,
            "time": 14.5,
            "velocity": 0.31496062992125984
          },
          {
            "duration": 0.25,
            "durationTicks": 192,
            "midi": 66,
            "name": "F#4",
            "ticks": 11136,
            "time": 14.5,
            "velocity": 0.1889763779527559
          },
          {
            "duration": 0.375,
            "durationTicks": 288,
            "midi": 38,
            "name": "D2",
            "ticks": 11136,
            "time": 14.5,
            "velocity": 0.31496062992125984
          },
          {
            "duration": 0,
            "durationTicks": 0,
            "midi": 54,
            "name": "F#3",
            "ticks": 11136,
            "time": 14.5,
            "velocity": 0.2204724409448819
          },
          {
            "duration": 0,
            "durationTicks": 0,
            "midi": 61,
            "name": "C#4",
            "ticks": 11136,
            "time": 14.5,
            "velocity": 0.28346456692913385
          },
          {
            "duration": 0.25,
            "durationTicks": 192,
            "midi": 60,
            "name": "C4",
            "ticks": 11136,
            "time": 14.5,
            "velocity": 0.25196850393700787
          },
          {
            "duration": 0,
            "durationTicks": 0,
            "midi": 44,
            "name": "G#2",
            "ticks": 11136,
            "time": 14.5,
            "velocity": 0.2677165354330709
          },
          {
            "duration": 0.25,
            "durationTicks": 192,
            "midi": 69,
            "name": "A4",
            "ticks": 11136,
            "time": 14.5,
            "velocity": 0.31496062992125984
          },
          {
            "duration": 0.25,
            "durationTicks": 192,
            "midi": 57,
            "name": "A3",
            "ticks": 11136,
            "time": 14.5,
            "velocity": 0.1889763779527559
          },
          {
            "duration": 0.375,
            "durationTicks": 288,
            "midi": 64,
            "name": "E4",
            "ticks": 11520,
            "time": 15,
            "velocity": 0.33070866141732286
          },
          {
            "duration": 0.25,
            "durationTicks": 192,
            "midi": 66,
            "name": "F#4",
            "ticks": 11520,
            "time": 15,
            "velocity": 0.2047244094488189
          },
          {
            "duration": 0.125,
            "durationTicks": 96,
            "midi": 38,
            "name": "D2",
            "ticks": 11520,
            "time": 15,
            "velocity": 0.31496062992125984
          },
          {
            "duration": 0,
            "durationTicks": 0,
            "midi": 60,
            "name": "C4",
            "ticks": 11520,
            "time": 15,
            "velocity": 0.2440944881889764
          },
          {
            "duration": 0,
            "durationTicks": 0,
            "midi": 54,
            "name": "F#3",
            "ticks": 11520,
            "time": 15,
            "velocity": 0.2440944881889764
          },
          {
            "duration": 0.25,
            "durationTicks": 192,
            "midi": 57,
            "name": "A3",
            "ticks": 11520,
            "time": 15,
            "velocity": 0.1968503937007874
          },
          {
            "duration": 0.25,
            "durationTicks": 192,
            "midi": 60,
            "name": "C4",
            "ticks": 11520,
            "time": 15,
            "velocity": 0.2440944881889764
          },
          {
            "duration": 0.125,
            "durationTicks": 96,
            "midi": 54,
            "name": "F#3",
            "ticks": 11520,
            "time": 15,
            "velocity": 0.2440944881889764
          },
          {
            "duration": 0,
            "durationTicks": 0,
            "midi": 36,
            "name": "C2",
            "ticks": 11520,
            "time": 15,
            "velocity": 0.33070866141732286
          },
          {
            "duration": 0,
            "durationTicks": 0,
            "midi": 44,
            "name": "G#2",
            "ticks": 11520,
            "time": 15,
            "velocity": 0.2677165354330709
          },
          {
            "duration": 0.125,
            "durationTicks": 96,
            "midi": 50,
            "name": "D3",
            "ticks": 11712,
            "time": 15.25,
            "velocity": 0.25984251968503935
          },
          {
            "duration": 0.125,
            "durationTicks": 96,
            "midi": 54,
            "name": "F#3",
            "ticks": 11712,
            "time": 15.25,
            "velocity": 0.2755905511811024
          },
          {
            "duration": 0.25,
            "durationTicks": 192,
            "midi": 57,
            "name": "A3",
            "ticks": 11712,
            "time": 15.25,
            "velocity": 0.1889763779527559
          },
          {
            "duration": 0.25,
            "durationTicks": 192,
            "midi": 38,
            "name": "D2",
            "ticks": 11712,
            "time": 15.25,
            "velocity": 0.30708661417322836
          },
          {
            "duration": 0.25,
            "durationTicks": 192,
            "midi": 60,
            "name": "C4",
            "ticks": 11712,
            "time": 15.25,
            "velocity": 0.25196850393700787
          },
          {
            "duration": 0.25,
            "durationTicks": 192,
            "midi": 66,
            "name": "F#4",
            "ticks": 11712,
            "time": 15.25,
            "velocity": 0.25984251968503935
          },
          {
            "duration": 0,
            "durationTicks": 0,
            "midi": 44,
            "name": "G#2",
            "ticks": 11904,
            "time": 15.5,
            "velocity": 0.25984251968503935
          },
          {
            "duration": 0.125,
            "durationTicks": 96,
            "midi": 88,
            "name": "E6",
            "ticks": 11904,
            "time": 15.5,
            "velocity": 0.2125984251968504
          },
          {
            "duration": 0.125,
            "durationTicks": 96,
            "midi": 88,
            "name": "E6",
            "ticks": 11904,
            "time": 15.5,
            "velocity": 0.2125984251968504
          },
          {
            "duration": 0,
            "durationTicks": 0,
            "midi": 38,
            "name": "D2",
            "ticks": 11904,
            "time": 15.5,
            "velocity": 0.33858267716535434
          },
          {
            "duration": 0,
            "durationTicks": 0,
            "midi": 61,
            "name": "C#4",
            "ticks": 11904,
            "time": 15.5,
            "velocity": 0.2755905511811024
          },
          {
            "duration": 0,
            "durationTicks": 0,
            "midi": 54,
            "name": "F#3",
            "ticks": 11904,
            "time": 15.5,
            "velocity": 0.2440944881889764
          },
          {
            "duration": 0.25,
            "durationTicks": 192,
            "midi": 40,
            "name": "E2",
            "ticks": 11904,
            "time": 15.5,
            "velocity": 0.31496062992125984
          },
          {
            "duration": 0.125,
            "durationTicks": 96,
            "midi": 86,
            "name": "D6",
            "ticks": 12000,
            "time": 15.625,
            "velocity": 0.2204724409448819
          },
          {
            "duration": 0.125,
            "durationTicks": 96,
            "midi": 86,
            "name": "D6",
            "ticks": 12000,
            "time": 15.625,
            "velocity": 0.2204724409448819
          },
          {
            "duration": 0.125,
            "durationTicks": 96,
            "midi": 84,
            "name": "C6",
            "ticks": 12096,
            "time": 15.75,
            "velocity": 0.2047244094488189
          },
          {
            "duration": 0,
            "durationTicks": 0,
            "midi": 46,
            "name": "A#2",
            "ticks": 12096,
            "time": 15.75,
            "velocity": 0.2755905511811024
          },
          {
            "duration": 0.125,
            "durationTicks": 96,
            "midi": 84,
            "name": "C6",
            "ticks": 12096,
            "time": 15.75,
            "velocity": 0.2047244094488189
          },
          {
            "duration": 0.625,
            "durationTicks": 480,
            "midi": 41,
            "name": "F2",
            "ticks": 12096,
            "time": 15.75,
            "velocity": 0.31496062992125984
          },
          {
            "duration": 1.25,
            "durationTicks": 960,
            "midi": 53,
            "name": "F3",
            "ticks": 12096,
            "time": 15.75,
            "velocity": 0.2755905511811024
          },
          {
            "duration": 0.125,
            "durationTicks": 96,
            "midi": 81,
            "name": "A5",
            "ticks": 12192,
            "time": 15.875,
            "velocity": 0.2125984251968504
          },
          {
            "duration": 0.125,
            "durationTicks": 96,
            "midi": 81,
            "name": "A5",
            "ticks": 12192,
            "time": 15.875,
            "velocity": 0.2125984251968504
          },
          {
            "duration": 0,
            "durationTicks": 0,
            "midi": 60,
            "name": "C4",
            "ticks": 12288,
            "time": 16,
            "velocity": 0.2677165354330709
          },
          {
            "duration": 0,
            "durationTicks": 0,
            "midi": 36,
            "name": "C2",
            "ticks": 12288,
            "time": 16,
            "velocity": 0.33070866141732286
          },
          {
            "duration": 0,
            "durationTicks": 0,
            "midi": 44,
            "name": "G#2",
            "ticks": 12288,
            "time": 16,
            "velocity": 0.2677165354330709
          },
          {
            "duration": 0,
            "durationTicks": 0,
            "midi": 54,
            "name": "F#3",
            "ticks": 12288,
            "time": 16,
            "velocity": 0.2283464566929134
          },
          {
            "duration": 1.25,
            "durationTicks": 960,
            "midi": 84,
            "name": "C6",
            "ticks": 12288,
            "time": 16,
            "velocity": 0.1968503937007874
          },
          {
            "duration": 1,
            "durationTicks": 768,
            "midi": 65,
            "name": "F4",
            "ticks": 12288,
            "time": 16,
            "velocity": 0.2125984251968504
          },
          {
            "duration": 1.25,
            "durationTicks": 960,
            "midi": 84,
            "name": "C6",
            "ticks": 12288,
            "time": 16,
            "velocity": 0.1968503937007874
          },
          {
            "duration": 1,
            "durationTicks": 768,
            "midi": 60,
            "name": "C4",
            "ticks": 12288,
            "time": 16,
            "velocity": 0.2677165354330709
          },
          {
            "duration": 1,
            "durationTicks": 768,
            "midi": 57,
            "name": "A3",
            "ticks": 12288,
            "time": 16,
            "velocity": 0.25984251968503935
          },
          {
            "duration": 1,
            "durationTicks": 768,
            "midi": 57,
            "name": "A3",
            "ticks": 12288,
            "time": 16,
            "velocity": 0.25984251968503935
          },
          {
            "duration": 0.125,
            "durationTicks": 96,
            "midi": 64,
            "name": "E4",
            "ticks": 12672,
            "time": 16.5,
            "velocity": 0.31496062992125984
          },
          {
            "duration": 0,
            "durationTicks": 0,
            "midi": 44,
            "name": "G#2",
            "ticks": 12672,
            "time": 16.5,
            "velocity": 0.25984251968503935
          },
          {
            "duration": 0.375,
            "durationTicks": 288,
            "midi": 41,
            "name": "F2",
            "ticks": 12672,
            "time": 16.5,
            "velocity": 0.31496062992125984
          },
          {
            "duration": 0,
            "durationTicks": 0,
            "midi": 61,
            "name": "C#4",
            "ticks": 12672,
            "time": 16.5,
            "velocity": 0.28346456692913385
          },
          {
            "duration": 0,
            "durationTicks": 0,
            "midi": 54,
            "name": "F#3",
            "ticks": 12672,
            "time": 16.5,
            "velocity": 0.2283464566929134
          },
          {
            "duration": 0,
            "durationTicks": 0,
            "midi": 38,
            "name": "D2",
            "ticks": 12672,
            "time": 16.5,
            "velocity": 0.33858267716535434
          },
          {
            "duration": 0.125,
            "durationTicks": 96,
            "midi": 64,
            "name": "E4",
            "ticks": 12864,
            "time": 16.75,
            "velocity": 0.31496062992125984
          },
          {
            "duration": 0,
            "durationTicks": 0,
            "midi": 36,
            "name": "C2",
            "ticks": 13056,
            "time": 17,
            "velocity": 0.33070866141732286
          },
          {
            "duration": 0,
            "durationTicks": 0,
            "midi": 44,
            "name": "G#2",
            "ticks": 13056,
            "time": 17,
            "velocity": 0.2677165354330709
          },
          {
            "duration": 0.125,
            "durationTicks": 96,
            "midi": 41,
            "name": "F2",
            "ticks": 13056,
            "time": 17,
            "velocity": 0.31496062992125984
          },
          {
            "duration": 0,
            "durationTicks": 0,
            "midi": 54,
            "name": "F#3",
            "ticks": 13056,
            "time": 17,
            "velocity": 0.2204724409448819
          },
          {
            "duration": 0,
            "durationTicks": 0,
            "midi": 60,
            "name": "C4",
            "ticks": 13056,
            "time": 17,
            "velocity": 0.2755905511811024
          },
          {
            "duration": 0.25,
            "durationTicks": 192,
            "midi": 69,
            "name": "A4",
            "ticks": 13056,
            "time": 17,
            "velocity": 0.33858267716535434
          },
          {
            "duration": 0.375,
            "durationTicks": 288,
            "midi": 53,
            "name": "F3",
            "ticks": 13248,
            "time": 17.25,
            "velocity": 0.25196850393700787
          },
          {
            "duration": 0.25,
            "durationTicks": 192,
            "midi": 57,
            "name": "A3",
            "ticks": 13248,
            "time": 17.25,
            "velocity": 0.2283464566929134
          },
          {
            "duration": 0.375,
            "durationTicks": 288,
            "midi": 57,
            "name": "A3",
            "ticks": 13248,
            "time": 17.25,
            "velocity": 0.2283464566929134
          },
          {
            "duration": 0.25,
            "durationTicks": 192,
            "midi": 84,
            "name": "C6",
            "ticks": 13248,
            "time": 17.25,
            "velocity": 0.1968503937007874
          },
          {
            "duration": 0.375,
            "durationTicks": 288,
            "midi": 41,
            "name": "F2",
            "ticks": 13248,
            "time": 17.25,
            "velocity": 0.31496062992125984
          },
          {
            "duration": 0.25,
            "durationTicks": 192,
            "midi": 65,
            "name": "F4",
            "ticks": 13248,
            "time": 17.25,
            "velocity": 0.2204724409448819
          },
          {
            "duration": 0.25,
            "durationTicks": 192,
            "midi": 84,
            "name": "C6",
            "ticks": 13248,
            "time": 17.25,
            "velocity": 0.1968503937007874
          },
          {
            "duration": 0.25,
            "durationTicks": 192,
            "midi": 60,
            "name": "C4",
            "ticks": 13248,
            "time": 17.25,
            "velocity": 0.2204724409448819
          },
          {
            "duration": 0,
            "durationTicks": 0,
            "midi": 38,
            "name": "D2",
            "ticks": 13440,
            "time": 17.5,
            "velocity": 0.33070866141732286
          },
          {
            "duration": 0,
            "durationTicks": 0,
            "midi": 44,
            "name": "G#2",
            "ticks": 13440,
            "time": 17.5,
            "velocity": 0.25984251968503935
          },
          {
            "duration": 0.25,
            "durationTicks": 192,
            "midi": 81,
            "name": "A5",
            "ticks": 13440,
            "time": 17.5,
            "velocity": 0.2125984251968504
          },
          {
            "duration": 0.25,
            "durationTicks": 192,
            "midi": 64,
            "name": "E4",
            "ticks": 13440,
            "time": 17.5,
            "velocity": 0.31496062992125984
          },
          {
            "duration": 0.25,
            "durationTicks": 192,
            "midi": 81,
            "name": "A5",
            "ticks": 13440,
            "time": 17.5,
            "velocity": 0.2125984251968504
          },
          {
            "duration": 0,
            "durationTicks": 0,
            "midi": 61,
            "name": "C#4",
            "ticks": 13440,
            "time": 17.5,
            "velocity": 0.28346456692913385
          },
          {
            "duration": 0,
            "durationTicks": 0,
            "midi": 54,
            "name": "F#3",
            "ticks": 13440,
            "time": 17.5,
            "velocity": 0.23622047244094488
          },
          {
            "duration": 0,
            "durationTicks": 0,
            "midi": 60,
            "name": "C4",
            "ticks": 13536,
            "time": 17.625,
            "velocity": 0.2755905511811024
          },
          {
            "duration": 0,
            "durationTicks": 0,
            "midi": 61,
            "name": "C#4",
            "ticks": 13632,
            "time": 17.75,
            "velocity": 0.28346456692913385
          },
          {
            "duration": 0.25,
            "durationTicks": 192,
            "midi": 41,
            "name": "F2",
            "ticks": 13632,
            "time": 17.75,
            "velocity": 0.31496062992125984
          },
          {
            "duration": 0.25,
            "durationTicks": 192,
            "midi": 84,
            "name": "C6",
            "ticks": 13632,
            "time": 17.75,
            "velocity": 0.2047244094488189
          },
          {
            "duration": 0.25,
            "durationTicks": 192,
            "midi": 84,
            "name": "C6",
            "ticks": 13632,
            "time": 17.75,
            "velocity": 0.2047244094488189
          },
          {
            "duration": 0.25,
            "durationTicks": 192,
            "midi": 59,
            "name": "B3",
            "ticks": 13632,
            "time": 17.75,
            "velocity": 0.2047244094488189
          },
          {
            "duration": 0.25,
            "durationTicks": 192,
            "midi": 62,
            "name": "D4",
            "ticks": 13632,
            "time": 17.75,
            "velocity": 0.25196850393700787
          },
          {
            "duration": 0,
            "durationTicks": 0,
            "midi": 46,
            "name": "A#2",
            "ticks": 13632,
            "time": 17.75,
            "velocity": 0.2677165354330709
          },
          {
            "duration": 0.25,
            "durationTicks": 192,
            "midi": 67,
            "name": "G4",
            "ticks": 13632,
            "time": 17.75,
            "velocity": 0.14173228346456693
          },
          {
            "duration": 0.5,
            "durationTicks": 384,
            "midi": 88,
            "name": "E6",
            "ticks": 13824,
            "time": 18,
            "velocity": 0.2204724409448819
          },
          {
            "duration": 0.5,
            "durationTicks": 384,
            "midi": 52,
            "name": "E3",
            "ticks": 13824,
            "time": 18,
            "velocity": 0.2755905511811024
          },
          {
            "duration": 0.5,
            "durationTicks": 384,
            "midi": 88,
            "name": "E6",
            "ticks": 13824,
            "time": 18,
            "velocity": 0.2204724409448819
          },
          {
            "duration": 0,
            "durationTicks": 0,
            "midi": 54,
            "name": "F#3",
            "ticks": 13824,
            "time": 18,
            "velocity": 0.23622047244094488
          },
          {
            "duration": 0,
            "durationTicks": 0,
            "midi": 60,
            "name": "C4",
            "ticks": 13824,
            "time": 18,
            "velocity": 0.28346456692913385
          },
          {
            "duration": 0.5,
            "durationTicks": 384,
            "midi": 55,
            "name": "G3",
            "ticks": 13824,
            "time": 18,
            "velocity": 0.2755905511811024
          },
          {
            "duration": 0,
            "durationTicks": 0,
            "midi": 36,
            "name": "C2",
            "ticks": 13824,
            "time": 18,
            "velocity": 0.33070866141732286
          },
          {
            "duration": 0.125,
            "durationTicks": 96,
            "midi": 43,
            "name": "G2",
            "ticks": 13824,
            "time": 18,
            "velocity": 0.30708661417322836
          },
          {
            "duration": 0,
            "durationTicks": 0,
            "midi": 44,
            "name": "G#2",
            "ticks": 13824,
            "time": 18,
            "velocity": 0.25984251968503935
          },
          {
            "duration": 0.125,
            "durationTicks": 96,
            "midi": 43,
            "name": "G2",
            "ticks": 14016,
            "time": 18.25,
            "velocity": 0.2992125984251969
          },
          {
            "duration": 0.25,
            "durationTicks": 192,
            "midi": 69,
            "name": "A4",
            "ticks": 14208,
            "time": 18.5,
            "velocity": 0.33858267716535434
          },
          {
            "duration": 0.125,
            "durationTicks": 96,
            "midi": 67,
            "name": "G4",
            "ticks": 14208,
            "time": 18.5,
            "velocity": 0.18110236220472442
          },
          {
            "duration": 0.5,
            "durationTicks": 384,
            "midi": 86,
            "name": "D6",
            "ticks": 14208,
            "time": 18.5,
            "velocity": 0.2125984251968504
          },
          {
            "duration": 0,
            "durationTicks": 0,
            "midi": 61,
            "name": "C#4",
            "ticks": 14208,
            "time": 18.5,
            "velocity": 0.28346456692913385
          },
          {
            "duration": 0.125,
            "durationTicks": 96,
            "midi": 43,
            "name": "G2",
            "ticks": 14208,
            "time": 18.5,
            "velocity": 0.31496062992125984
          },
          {
            "duration": 0,
            "durationTicks": 0,
            "midi": 38,
            "name": "D2",
            "ticks": 14208,
            "time": 18.5,
            "velocity": 0.33858267716535434
          },
          {
            "duration": 0.125,
            "durationTicks": 96,
            "midi": 59,
            "name": "B3",
            "ticks": 14208,
            "time": 18.5,
            "velocity": 0.1968503937007874
          },
          {
            "duration": 0,
            "durationTicks": 0,
            "midi": 44,
            "name": "G#2",
            "ticks": 14208,
            "time": 18.5,
            "velocity": 0.2677165354330709
          },
          {
            "duration": 0.5,
            "durationTicks": 384,
            "midi": 86,
            "name": "D6",
            "ticks": 14208,
            "time": 18.5,
            "velocity": 0.2125984251968504
          },
          {
            "duration": 0.125,
            "durationTicks": 96,
            "midi": 62,
            "name": "D4",
            "ticks": 14208,
            "time": 18.5,
            "velocity": 0.2992125984251969
          },
          {
            "duration": 0,
            "durationTicks": 0,
            "midi": 54,
            "name": "F#3",
            "ticks": 14208,
            "time": 18.5,
            "velocity": 0.2440944881889764
          },
          {
            "duration": 0.375,
            "durationTicks": 288,
            "midi": 55,
            "name": "G3",
            "ticks": 14400,
            "time": 18.75,
            "velocity": 0.25984251968503935
          },
          {
            "duration": 0.125,
            "durationTicks": 96,
            "midi": 43,
            "name": "G2",
            "ticks": 14400,
            "time": 18.75,
            "velocity": 0.30708661417322836
          },
          {
            "duration": 0.375,
            "durationTicks": 288,
            "midi": 50,
            "name": "D3",
            "ticks": 14400,
            "time": 18.75,
            "velocity": 0.2677165354330709
          },
          {
            "duration": 0.125,
            "durationTicks": 96,
            "midi": 43,
            "name": "G2",
            "ticks": 14592,
            "time": 19,
            "velocity": 0.30708661417322836
          },
          {
            "duration": 0.25,
            "durationTicks": 192,
            "midi": 64,
            "name": "E4",
            "ticks": 14592,
            "time": 19,
            "velocity": 0.3228346456692913
          },
          {
            "duration": 0.25,
            "durationTicks": 192,
            "midi": 59,
            "name": "B3",
            "ticks": 14592,
            "time": 19,
            "velocity": 0.1889763779527559
          },
          {
            "duration": 0,
            "durationTicks": 0,
            "midi": 44,
            "name": "G#2",
            "ticks": 14592,
            "time": 19,
            "velocity": 0.2677165354330709
          },
          {
            "duration": 0,
            "durationTicks": 0,
            "midi": 54,
            "name": "F#3",
            "ticks": 14592,
            "time": 19,
            "velocity": 0.2204724409448819
          },
          {
            "duration": 0.5,
            "durationTicks": 384,
            "midi": 84,
            "name": "C6",
            "ticks": 14592,
            "time": 19,
            "velocity": 0.2204724409448819
          },
          {
            "duration": 0.5,
            "durationTicks": 384,
            "midi": 84,
            "name": "C6",
            "ticks": 14592,
            "time": 19,
            "velocity": 0.2204724409448819
          },
          {
            "duration": 0,
            "durationTicks": 0,
            "midi": 36,
            "name": "C2",
            "ticks": 14592,
            "time": 19,
            "velocity": 0.33858267716535434
          },
          {
            "duration": 0.25,
            "durationTicks": 192,
            "midi": 62,
            "name": "D4",
            "ticks": 14592,
            "time": 19,
            "velocity": 0.29133858267716534
          },
          {
            "duration": 0.25,
            "durationTicks": 192,
            "midi": 67,
            "name": "G4",
            "ticks": 14592,
            "time": 19,
            "velocity": 0.2283464566929134
          },
          {
            "duration": 0,
            "durationTicks": 0,
            "midi": 60,
            "name": "C4",
            "ticks": 14592,
            "time": 19,
            "velocity": 0.28346456692913385
          },
          {
            "duration": 0.125,
            "durationTicks": 96,
            "midi": 62,
            "name": "D4",
            "ticks": 14784,
            "time": 19.25,
            "velocity": 0.2125984251968504
          },
          {
            "duration": 0.125,
            "durationTicks": 96,
            "midi": 67,
            "name": "G4",
            "ticks": 14784,
            "time": 19.25,
            "velocity": 0.2440944881889764
          },
          {
            "duration": 0.5,
            "durationTicks": 384,
            "midi": 55,
            "name": "G3",
            "ticks": 14784,
            "time": 19.25,
            "velocity": 0.2755905511811024
          },
          {
            "duration": 0,
            "durationTicks": 0,
            "midi": 38,
            "name": "D2",
            "ticks": 14784,
            "time": 19.25,
            "velocity": 0.33858267716535434
          },
          {
            "duration": 0.125,
            "durationTicks": 96,
            "midi": 59,
            "name": "B3",
            "ticks": 14784,
            "time": 19.25,
            "velocity": 0.2125984251968504
          },
          {
            "duration": 0.5,
            "durationTicks": 384,
            "midi": 50,
            "name": "D3",
            "ticks": 14784,
            "time": 19.25,
            "velocity": 0.25196850393700787
          },
          {
            "duration": 0.25,
            "durationTicks": 192,
            "midi": 43,
            "name": "G2",
            "ticks": 14784,
            "time": 19.25,
            "velocity": 0.2992125984251969
          },
          {
            "duration": 0.5,
            "durationTicks": 384,
            "midi": 81,
            "name": "A5",
            "ticks": 14976,
            "time": 19.5,
            "velocity": 0.1968503937007874
          },
          {
            "duration": 0.5,
            "durationTicks": 384,
            "midi": 81,
            "name": "A5",
            "ticks": 14976,
            "time": 19.5,
            "velocity": 0.1968503937007874
          },
          {
            "duration": 0,
            "durationTicks": 0,
            "midi": 61,
            "name": "C#4",
            "ticks": 14976,
            "time": 19.5,
            "velocity": 0.28346456692913385
          },
          {
            "duration": 0,
            "durationTicks": 0,
            "midi": 54,
            "name": "F#3",
            "ticks": 14976,
            "time": 19.5,
            "velocity": 0.2283464566929134
          },
          {
            "duration": 0,
            "durationTicks": 0,
            "midi": 38,
            "name": "D2",
            "ticks": 14976,
            "time": 19.5,
            "velocity": 0.33858267716535434
          },
          {
            "duration": 0,
            "durationTicks": 0,
            "midi": 44,
            "name": "G#2",
            "ticks": 14976,
            "time": 19.5,
            "velocity": 0.25984251968503935
          },
          {
            "duration": 0.25,
            "durationTicks": 192,
            "midi": 45,
            "name": "A2",
            "ticks": 14976,
            "time": 19.5,
            "velocity": 0.2992125984251969
          },
          {
            "duration": 0,
            "durationTicks": 0,
            "midi": 38,
            "name": "D2",
            "ticks": 15072,
            "time": 19.625,
            "velocity": 0.33070866141732286
          },
          {
            "duration": 0,
            "durationTicks": 0,
            "midi": 46,
            "name": "A#2",
            "ticks": 15168,
            "time": 19.75,
            "velocity": 0.2677165354330709
          },
          {
            "duration": 0.25,
            "durationTicks": 192,
            "midi": 43,
            "name": "G2",
            "ticks": 15168,
            "time": 19.75,
            "velocity": 0.2992125984251969
          },
          {
            "duration": 0,
            "durationTicks": 0,
            "midi": 38,
            "name": "D2",
            "ticks": 15168,
            "time": 19.75,
            "velocity": 0.33070866141732286
          },
          {
            "duration": 0,
            "durationTicks": 0,
            "midi": 36,
            "name": "C2",
            "ticks": 15360,
            "time": 20,
            "velocity": 0.30708661417322836
          },
          {
            "duration": 1,
            "durationTicks": 768,
            "midi": 64,
            "name": "E4",
            "ticks": 15360,
            "time": 20,
            "velocity": 0.1889763779527559
          },
          {
            "duration": 1,
            "durationTicks": 768,
            "midi": 55,
            "name": "G3",
            "ticks": 15360,
            "time": 20,
            "velocity": 0.1889763779527559
          },
          {
            "duration": 1.125,
            "durationTicks": 864,
            "midi": 84,
            "name": "C6",
            "ticks": 15360,
            "time": 20,
            "velocity": 0.2204724409448819
          },
          {
            "duration": 0,
            "durationTicks": 0,
            "midi": 44,
            "name": "G#2",
            "ticks": 15360,
            "time": 20,
            "velocity": 0.2677165354330709
          },
          {
            "duration": 1.125,
            "durationTicks": 864,
            "midi": 84,
            "name": "C6",
            "ticks": 15360,
            "time": 20,
            "velocity": 0.2204724409448819
          },
          {
            "duration": 0,
            "durationTicks": 0,
            "midi": 54,
            "name": "F#3",
            "ticks": 15360,
            "time": 20,
            "velocity": 0.2283464566929134
          },
          {
            "duration": 0.375,
            "durationTicks": 288,
            "midi": 36,
            "name": "C2",
            "ticks": 15360,
            "time": 20,
            "velocity": 0.30708661417322836
          },
          {
            "duration": 0,
            "durationTicks": 0,
            "midi": 60,
            "name": "C4",
            "ticks": 15360,
            "time": 20,
            "velocity": 0.33858267716535434
          },
          {
            "duration": 0.125,
            "durationTicks": 96,
            "midi": 60,
            "name": "C4",
            "ticks": 15360,
            "time": 20,
            "velocity": 0.33858267716535434
          },
          {
            "duration": 1.125,
            "durationTicks": 864,
            "midi": 48,
            "name": "C3",
            "ticks": 15360,
            "time": 20,
            "velocity": 0.25984251968503935
          },
          {
            "duration": 1.125,
            "durationTicks": 864,
            "midi": 52,
            "name": "E3",
            "ticks": 15360,
            "time": 20,
            "velocity": 0.25984251968503935
          },
          {
            "duration": 0.125,
            "durationTicks": 96,
            "midi": 60,
            "name": "C4",
            "ticks": 15456,
            "time": 20.125,
            "velocity": 0.33070866141732286
          },
          {
            "duration": 0.125,
            "durationTicks": 96,
            "midi": 60,
            "name": "C4",
            "ticks": 15552,
            "time": 20.25,
            "velocity": 0.3228346456692913
          },
          {
            "duration": 0.375,
            "durationTicks": 288,
            "midi": 36,
            "name": "C2",
            "ticks": 15744,
            "time": 20.5,
            "velocity": 0.31496062992125984
          },
          {
            "duration": 0,
            "durationTicks": 0,
            "midi": 44,
            "name": "G#2",
            "ticks": 15744,
            "time": 20.5,
            "velocity": 0.2677165354330709
          },
          {
            "duration": 0,
            "durationTicks": 0,
            "midi": 54,
            "name": "F#3",
            "ticks": 15744,
            "time": 20.5,
            "velocity": 0.23622047244094488
          },
          {
            "duration": 0.125,
            "durationTicks": 96,
            "midi": 60,
            "name": "C4",
            "ticks": 15744,
            "time": 20.5,
            "velocity": 0.33070866141732286
          },
          {
            "duration": 0,
            "durationTicks": 0,
            "midi": 61,
            "name": "C#4",
            "ticks": 15744,
            "time": 20.5,
            "velocity": 0.2755905511811024
          },
          {
            "duration": 0,
            "durationTicks": 0,
            "midi": 38,
            "name": "D2",
            "ticks": 15744,
            "time": 20.5,
            "velocity": 0.33070866141732286
          },
          {
            "duration": 0.125,
            "durationTicks": 96,
            "midi": 60,
            "name": "C4",
            "ticks": 15840,
            "time": 20.625,
            "velocity": 0.33858267716535434
          },
          {
            "duration": 0.125,
            "durationTicks": 96,
            "midi": 60,
            "name": "C4",
            "ticks": 15936,
            "time": 20.75,
            "velocity": 0.33070866141732286
          },
          {
            "duration": 0.25,
            "durationTicks": 192,
            "midi": 60,
            "name": "C4",
            "ticks": 15936,
            "time": 20.75,
            "velocity": 0.33070866141732286
          },
          {
            "duration": 0,
            "durationTicks": 0,
            "midi": 60,
            "name": "C4",
            "ticks": 16128,
            "time": 21,
            "velocity": 0.2755905511811024
          },
          {
            "duration": 0,
            "durationTicks": 0,
            "midi": 44,
            "name": "G#2",
            "ticks": 16128,
            "time": 21,
            "velocity": 0.25984251968503935
          },
          {
            "duration": 0,
            "durationTicks": 0,
            "midi": 54,
            "name": "F#3",
            "ticks": 16128,
            "time": 21,
            "velocity": 0.2440944881889764
          },
          {
            "duration": 0,
            "durationTicks": 0,
            "midi": 36,
            "name": "C2",
            "ticks": 16128,
            "time": 21,
            "velocity": 0.2992125984251969
          },
          {
            "duration": 0.25,
            "durationTicks": 192,
            "midi": 36,
            "name": "C2",
            "ticks": 16128,
            "time": 21,
            "velocity": 0.2992125984251969
          },
          {
            "duration": 0.125,
            "durationTicks": 96,
            "midi": 48,
            "name": "C3",
            "ticks": 16320,
            "time": 21.25,
            "velocity": 0.25196850393700787
          },
          {
            "duration": 0.125,
            "durationTicks": 96,
            "midi": 64,
            "name": "E4",
            "ticks": 16320,
            "time": 21.25,
            "velocity": 0.23622047244094488
          },
          {
            "duration": 0.25,
            "durationTicks": 192,
            "midi": 84,
            "name": "C6",
            "ticks": 16320,
            "time": 21.25,
            "velocity": 0.2204724409448819
          },
          {
            "duration": 0.25,
            "durationTicks": 192,
            "midi": 84,
            "name": "C6",
            "ticks": 16320,
            "time": 21.25,
            "velocity": 0.2204724409448819
          },
          {
            "duration": 0.25,
            "durationTicks": 192,
            "midi": 40,
            "name": "E2",
            "ticks": 16320,
            "time": 21.25,
            "velocity": 0.2992125984251969
          },
          {
            "duration": 0.25,
            "durationTicks": 192,
            "midi": 60,
            "name": "C4",
            "ticks": 16320,
            "time": 21.25,
            "velocity": 0.25196850393700787
          },
          {
            "duration": 0.25,
            "durationTicks": 192,
            "midi": 64,
            "name": "E4",
            "ticks": 16320,
            "time": 21.25,
            "velocity": 0.23622047244094488
          },
          {
            "duration": 0.25,
            "durationTicks": 192,
            "midi": 55,
            "name": "G3",
            "ticks": 16320,
            "time": 21.25,
            "velocity": 0.1889763779527559
          },
          {
            "duration": 0.125,
            "durationTicks": 96,
            "midi": 52,
            "name": "E3",
            "ticks": 16320,
            "time": 21.25,
            "velocity": 0.2755905511811024
          },
          {
            "duration": 0.25,
            "durationTicks": 192,
            "midi": 81,
            "name": "A5",
            "ticks": 16512,
            "time": 21.5,
            "velocity": 0.2204724409448819
          },
          {
            "duration": 0.25,
            "durationTicks": 192,
            "midi": 81,
            "name": "A5",
            "ticks": 16512,
            "time": 21.5,
            "velocity": 0.2204724409448819
          },
          {
            "duration": 0,
            "durationTicks": 0,
            "midi": 38,
            "name": "D2",
            "ticks": 16512,
            "time": 21.5,
            "velocity": 0.30708661417322836
          },
          {
            "duration": 0.25,
            "durationTicks": 192,
            "midi": 38,
            "name": "D2",
            "ticks": 16512,
            "time": 21.5,
            "velocity": 0.30708661417322836
          },
          {
            "duration": 0,
            "durationTicks": 0,
            "midi": 44,
            "name": "G#2",
            "ticks": 16512,
            "time": 21.5,
            "velocity": 0.2677165354330709
          },
          {
            "duration": 0,
            "durationTicks": 0,
            "midi": 54,
            "name": "F#3",
            "ticks": 16512,
            "time": 21.5,
            "velocity": 0.2283464566929134
          },
          {
            "duration": 0,
            "durationTicks": 0,
            "midi": 61,
            "name": "C#4",
            "ticks": 16512,
            "time": 21.5,
            "velocity": 0.28346456692913385
          },
          {
            "duration": 0,
            "durationTicks": 0,
            "midi": 60,
            "name": "C4",
            "ticks": 16608,
            "time": 21.625,
            "velocity": 0.2755905511811024
          },
          {
            "duration": 0.25,
            "durationTicks": 192,
            "midi": 66,
            "name": "F#4",
            "ticks": 16704,
            "time": 21.75,
            "velocity": 0.1732283464566929
          },
          {
            "duration": 0.25,
            "durationTicks": 192,
            "midi": 40,
            "name": "E2",
            "ticks": 16704,
            "time": 21.75,
            "velocity": 0.2992125984251969
          },
          {
            "duration": 0.25,
            "durationTicks": 192,
            "midi": 60,
            "name": "C4",
            "ticks": 16704,
            "time": 21.75,
            "velocity": 0.2125984251968504
          },
          {
            "duration": 0,
            "durationTicks": 0,
            "midi": 61,
            "name": "C#4",
            "ticks": 16704,
            "time": 21.75,
            "velocity": 0.28346456692913385
          },
          {
            "duration": 1.25,
            "durationTicks": 960,
            "midi": 50,
            "name": "D3",
            "ticks": 16704,
            "time": 21.75,
            "velocity": 0.2677165354330709
          },
          {
            "duration": 0,
            "durationTicks": 0,
            "midi": 46,
            "name": "A#2",
            "ticks": 16704,
            "time": 21.75,
            "velocity": 0.2677165354330709
          },
          {
            "duration": 0.25,
            "durationTicks": 192,
            "midi": 84,
            "name": "C6",
            "ticks": 16704,
            "time": 21.75,
            "velocity": 0.2204724409448819
          },
          {
            "duration": 0.25,
            "durationTicks": 192,
            "midi": 84,
            "name": "C6",
            "ticks": 16704,
            "time": 21.75,
            "velocity": 0.2204724409448819
          },
          {
            "duration": 0.5,
            "durationTicks": 384,
            "midi": 57,
            "name": "A3",
            "ticks": 16704,
            "time": 21.75,
            "velocity": 0.23622047244094488
          },
          {
            "duration": 0,
            "durationTicks": 0,
            "midi": 44,
            "name": "G#2",
            "ticks": 16896,
            "time": 22,
            "velocity": 0.2755905511811024
          },
          {
            "duration": 0,
            "durationTicks": 0,
            "midi": 60,
            "name": "C4",
            "ticks": 16896,
            "time": 22,
            "velocity": 0.2440944881889764
          },
          {
            "duration": 0.25,
            "durationTicks": 192,
            "midi": 66,
            "name": "F#4",
            "ticks": 16896,
            "time": 22,
            "velocity": 0.2047244094488189
          },
          {
            "duration": 0.375,
            "durationTicks": 288,
            "midi": 38,
            "name": "D2",
            "ticks": 16896,
            "time": 22,
            "velocity": 0.31496062992125984
          },
          {
            "duration": 0,
            "durationTicks": 0,
            "midi": 36,
            "name": "C2",
            "ticks": 16896,
            "time": 22,
            "velocity": 0.33858267716535434
          },
          {
            "duration": 1.375,
            "durationTicks": 1056,
            "midi": 88,
            "name": "E6",
            "ticks": 16896,
            "time": 22,
            "velocity": 0.1889763779527559
          },
          {
            "duration": 1.375,
            "durationTicks": 1056,
            "midi": 88,
            "name": "E6",
            "ticks": 16896,
            "time": 22,
            "velocity": 0.1889763779527559
          },
          {
            "duration": 0.25,
            "durationTicks": 192,
            "midi": 60,
            "name": "C4",
            "ticks": 16896,
            "time": 22,
            "velocity": 0.2440944881889764
          },
          {
            "duration": 0,
            "durationTicks": 0,
            "midi": 54,
            "name": "F#3",
            "ticks": 16896,
            "time": 22,
            "velocity": 0.2204724409448819
          },
          {
            "duration": 0,
            "durationTicks": 0,
            "midi": 38,
            "name": "D2",
            "ticks": 17280,
            "time": 22.5,
            "velocity": 0.2992125984251969
          },
          {
            "duration": 0,
            "durationTicks": 0,
            "midi": 54,
            "name": "F#3",
            "ticks": 17280,
            "time": 22.5,
            "velocity": 0.2440944881889764
          },
          {
            "duration": 0,
            "durationTicks": 0,
            "midi": 61,
            "name": "C#4",
            "ticks": 17280,
            "time": 22.5,
            "velocity": 0.29133858267716534
          },
          {
            "duration": 0.25,
            "durationTicks": 192,
            "midi": 60,
            "name": "C4",
            "ticks": 17280,
            "time": 22.5,
            "velocity": 0.25196850393700787
          },
          {
            "duration": 0.25,
            "durationTicks": 192,
            "midi": 69,
            "name": "A4",
            "ticks": 17280,
            "time": 22.5,
            "velocity": 0.31496062992125984
          },
          {
            "duration": 0.5,
            "durationTicks": 384,
            "midi": 54,
            "name": "F#3",
            "ticks": 17280,
            "time": 22.5,
            "velocity": 0.2440944881889764
          },
          {
            "duration": 0.375,
            "durationTicks": 288,
            "midi": 38,
            "name": "D2",
            "ticks": 17280,
            "time": 22.5,
            "velocity": 0.2992125984251969
          },
          {
            "duration": 0,
            "durationTicks": 0,
            "midi": 44,
            "name": "G#2",
            "ticks": 17280,
            "time": 22.5,
            "velocity": 0.25984251968503935
          },
          {
            "duration": 0.25,
            "durationTicks": 192,
            "midi": 57,
            "name": "A3",
            "ticks": 17280,
            "time": 22.5,
            "velocity": 0.1889763779527559
          },
          {
            "duration": 0.25,
            "durationTicks": 192,
            "midi": 66,
            "name": "F#4",
            "ticks": 17280,
            "time": 22.5,
            "velocity": 0.1889763779527559
          },
          {
            "duration": 0,
            "durationTicks": 0,
            "midi": 60,
            "name": "C4",
            "ticks": 17664,
            "time": 23,
            "velocity": 0.2440944881889764
          },
          {
            "duration": 0.25,
            "durationTicks": 192,
            "midi": 57,
            "name": "A3",
            "ticks": 17664,
            "time": 23,
            "velocity": 0.1968503937007874
          },
          {
            "duration": 0,
            "durationTicks": 0,
            "midi": 36,
            "name": "C2",
            "ticks": 17664,
            "time": 23,
            "velocity": 0.33858267716535434
          },
          {
            "duration": 0,
            "durationTicks": 0,
            "midi": 44,
            "name": "G#2",
            "ticks": 17664,
            "time": 23,
            "velocity": 0.2755905511811024
          },
          {
            "duration": 0.125,
            "durationTicks": 96,
            "midi": 38,
            "name": "D2",
            "ticks": 17664,
            "time": 23,
            "velocity": 0.31496062992125984
          },
          {
            "duration": 0,
            "durationTicks": 0,
            "midi": 54,
            "name": "F#3",
            "ticks": 17664,
            "time": 23,
            "velocity": 0.2440944881889764
          },
          {
            "duration": 0.25,
            "durationTicks": 192,
            "midi": 60,
            "name": "C4",
            "ticks": 17664,
            "time": 23,
            "velocity": 0.2440944881889764
          },
          {
            "duration": 0.375,
            "durationTicks": 288,
            "midi": 64,
            "name": "E4",
            "ticks": 17664,
            "time": 23,
            "velocity": 0.33858267716535434
          },
          {
            "duration": 0.25,
            "durationTicks": 192,
            "midi": 66,
            "name": "F#4",
            "ticks": 17664,
            "time": 23,
            "velocity": 0.2047244094488189
          },
          {
            "duration": 0.25,
            "durationTicks": 192,
            "midi": 57,
            "name": "A3",
            "ticks": 17856,
            "time": 23.25,
            "velocity": 0.1889763779527559
          },
          {
            "duration": 0.25,
            "durationTicks": 192,
            "midi": 66,
            "name": "F#4",
            "ticks": 17856,
            "time": 23.25,
            "velocity": 0.25984251968503935
          },
          {
            "duration": 0.125,
            "durationTicks": 96,
            "midi": 50,
            "name": "D3",
            "ticks": 17856,
            "time": 23.25,
            "velocity": 0.2755905511811024
          },
          {
            "duration": 0.25,
            "durationTicks": 192,
            "midi": 38,
            "name": "D2",
            "ticks": 17856,
            "time": 23.25,
            "velocity": 0.2992125984251969
          },
          {
            "duration": 0.25,
            "durationTicks": 192,
            "midi": 60,
            "name": "C4",
            "ticks": 17856,
            "time": 23.25,
            "velocity": 0.25196850393700787
          },
          {
            "duration": 0.125,
            "durationTicks": 96,
            "midi": 54,
            "name": "F#3",
            "ticks": 17856,
            "time": 23.25,
            "velocity": 0.25984251968503935
          },
          {
            "duration": 0,
            "durationTicks": 0,
            "midi": 61,
            "name": "C#4",
            "ticks": 18048,
            "time": 23.5,
            "velocity": 0.29133858267716534
          },
          {
            "duration": 0,
            "durationTicks": 0,
            "midi": 44,
            "name": "G#2",
            "ticks": 18048,
            "time": 23.5,
            "velocity": 0.2677165354330709
          },
          {
            "duration": 0.125,
            "durationTicks": 96,
            "midi": 88,
            "name": "E6",
            "ticks": 18048,
            "time": 23.5,
            "velocity": 0.2125984251968504
          },
          {
            "duration": 0,
            "durationTicks": 0,
            "midi": 54,
            "name": "F#3",
            "ticks": 18048,
            "time": 23.5,
            "velocity": 0.23622047244094488
          },
          {
            "duration": 0,
            "durationTicks": 0,
            "midi": 38,
            "name": "D2",
            "ticks": 18048,
            "time": 23.5,
            "velocity": 0.33858267716535434
          },
          {
            "duration": 0.125,
            "durationTicks": 96,
            "midi": 88,
            "name": "E6",
            "ticks": 18048,
            "time": 23.5,
            "velocity": 0.2125984251968504
          },
          {
            "duration": 0.25,
            "durationTicks": 192,
            "midi": 40,
            "name": "E2",
            "ticks": 18048,
            "time": 23.5,
            "velocity": 0.31496062992125984
          },
          {
            "duration": 0.125,
            "durationTicks": 96,
            "midi": 86,
            "name": "D6",
            "ticks": 18144,
            "time": 23.625,
            "velocity": 0.2047244094488189
          },
          {
            "duration": 0.125,
            "durationTicks": 96,
            "midi": 86,
            "name": "D6",
            "ticks": 18144,
            "time": 23.625,
            "velocity": 0.2047244094488189
          },
          {
            "duration": 0,
            "durationTicks": 0,
            "midi": 46,
            "name": "A#2",
            "ticks": 18240,
            "time": 23.75,
            "velocity": 0.2677165354330709
          },
          {
            "duration": 0.125,
            "durationTicks": 96,
            "midi": 84,
            "name": "C6",
            "ticks": 18240,
            "time": 23.75,
            "velocity": 0.2204724409448819
          },
          {
            "duration": 0.125,
            "durationTicks": 96,
            "midi": 84,
            "name": "C6",
            "ticks": 18240,
            "time": 23.75,
            "velocity": 0.2204724409448819
          },
          {
            "duration": 0.375,
            "durationTicks": 288,
            "midi": 41,
            "name": "F2",
            "ticks": 18240,
            "time": 23.75,
            "velocity": 0.2992125984251969
          },
          {
            "duration": 1.375,
            "durationTicks": 1056,
            "midi": 53,
            "name": "F3",
            "ticks": 18240,
            "time": 23.75,
            "velocity": 0.25984251968503935
          },
          {
            "duration": 0.125,
            "durationTicks": 96,
            "midi": 81,
            "name": "A5",
            "ticks": 18336,
            "time": 23.875,
            "velocity": 0.2125984251968504
          },
          {
            "duration": 0.125,
            "durationTicks": 96,
            "midi": 81,
            "name": "A5",
            "ticks": 18336,
            "time": 23.875,
            "velocity": 0.2125984251968504
          },
          {
            "duration": 0,
            "durationTicks": 0,
            "midi": 60,
            "name": "C4",
            "ticks": 18432,
            "time": 24,
            "velocity": 0.2677165354330709
          },
          {
            "duration": 0,
            "durationTicks": 0,
            "midi": 36,
            "name": "C2",
            "ticks": 18432,
            "time": 24,
            "velocity": 0.33070866141732286
          },
          {
            "duration": 0,
            "durationTicks": 0,
            "midi": 54,
            "name": "F#3",
            "ticks": 18432,
            "time": 24,
            "velocity": 0.2440944881889764
          },
          {
            "duration": 1,
            "durationTicks": 768,
            "midi": 65,
            "name": "F4",
            "ticks": 18432,
            "time": 24,
            "velocity": 0.2125984251968504
          },
          {
            "duration": 0,
            "durationTicks": 0,
            "midi": 44,
            "name": "G#2",
            "ticks": 18432,
            "time": 24,
            "velocity": 0.25984251968503935
          },
          {
            "duration": 1,
            "durationTicks": 768,
            "midi": 57,
            "name": "A3",
            "ticks": 18432,
            "time": 24,
            "velocity": 0.25984251968503935
          },
          {
            "duration": 1.25,
            "durationTicks": 960,
            "midi": 84,
            "name": "C6",
            "ticks": 18432,
            "time": 24,
            "velocity": 0.2125984251968504
          },
          {
            "duration": 1,
            "durationTicks": 768,
            "midi": 60,
            "name": "C4",
            "ticks": 18432,
            "time": 24,
            "velocity": 0.2677165354330709
          },
          {
            "duration": 1.125,
            "durationTicks": 864,
            "midi": 57,
            "name": "A3",
            "ticks": 18432,
            "time": 24,
            "velocity": 0.25984251968503935
          },
          {
            "duration": 1.25,
            "durationTicks": 960,
            "midi": 84,
            "name": "C6",
            "ticks": 18432,
            "time": 24,
            "velocity": 0.2125984251968504
          },
          {
            "duration": 0.125,
            "durationTicks": 96,
            "midi": 41,
            "name": "F2",
            "ticks": 18624,
            "time": 24.25,
            "velocity": 0.31496062992125984
          },
          {
            "duration": 0,
            "durationTicks": 0,
            "midi": 61,
            "name": "C#4",
            "ticks": 18816,
            "time": 24.5,
            "velocity": 0.2755905511811024
          },
          {
            "duration": 0.125,
            "durationTicks": 96,
            "midi": 41,
            "name": "F2",
            "ticks": 18816,
            "time": 24.5,
            "velocity": 0.30708661417322836
          },
          {
            "duration": 0,
            "durationTicks": 0,
            "midi": 54,
            "name": "F#3",
            "ticks": 18816,
            "time": 24.5,
            "velocity": 0.23622047244094488
          },
          {
            "duration": 0,
            "durationTicks": 0,
            "midi": 44,
            "name": "G#2",
            "ticks": 18816,
            "time": 24.5,
            "velocity": 0.2677165354330709
          },
          {
            "duration": 0.125,
            "durationTicks": 96,
            "midi": 64,
            "name": "E4",
            "ticks": 18816,
            "time": 24.5,
            "velocity": 0.31496062992125984
          },
          {
            "duration": 0,
            "durationTicks": 0,
            "midi": 38,
            "name": "D2",
            "ticks": 18816,
            "time": 24.5,
            "velocity": 0.33858267716535434
          },
          {
            "duration": 0.125,
            "durationTicks": 96,
            "midi": 64,
            "name": "E4",
            "ticks": 19008,
            "time": 24.75,
            "velocity": 0.33070866141732286
          },
          {
            "duration": 0.125,
            "durationTicks": 96,
            "midi": 41,
            "name": "F2",
            "ticks": 19008,
            "time": 24.75,
            "velocity": 0.30708661417322836
          },
          {
            "duration": 0,
            "durationTicks": 0,
            "midi": 44,
            "name": "G#2",
            "ticks": 19200,
            "time": 25,
            "velocity": 0.25984251968503935
          },
          {
            "duration": 0,
            "durationTicks": 0,
            "midi": 54,
            "name": "F#3",
            "ticks": 19200,
            "time": 25,
            "velocity": 0.2283464566929134
          },
          {
            "duration": 0.25,
            "durationTicks": 192,
            "midi": 69,
            "name": "A4",
            "ticks": 19200,
            "time": 25,
            "velocity": 0.3228346456692913
          },
          {
            "duration": 0,
            "durationTicks": 0,
            "midi": 60,
            "name": "C4",
            "ticks": 19200,
            "time": 25,
            "velocity": 0.28346456692913385
          },
          {
            "duration": 0.375,
            "durationTicks": 288,
            "midi": 41,
            "name": "F2",
            "ticks": 19200,
            "time": 25,
            "velocity": 0.30708661417322836
          },
          {
            "duration": 0,
            "durationTicks": 0,
            "midi": 36,
            "name": "C2",
            "ticks": 19200,
            "time": 25,
            "velocity": 0.33858267716535434
          },
          {
            "duration": 0.125,
            "durationTicks": 96,
            "midi": 53,
            "name": "F3",
            "ticks": 19392,
            "time": 25.25,
            "velocity": 0.25984251968503935
          },
          {
            "duration": 0.125,
            "durationTicks": 96,
            "midi": 57,
            "name": "A3",
            "ticks": 19392,
            "time": 25.25,
            "velocity": 0.2283464566929134
          },
          {
            "duration": 0.25,
            "durationTicks": 192,
            "midi": 84,
            "name": "C6",
            "ticks": 19392,
            "time": 25.25,
            "velocity": 0.1968503937007874
          },
          {
            "duration": 0.25,
            "durationTicks": 192,
            "midi": 84,
            "name": "C6",
            "ticks": 19392,
            "time": 25.25,
            "velocity": 0.1968503937007874
          },
          {
            "duration": 0.25,
            "durationTicks": 192,
            "midi": 57,
            "name": "A3",
            "ticks": 19392,
            "time": 25.25,
            "velocity": 0.2283464566929134
          },
          {
            "duration": 0.25,
            "durationTicks": 192,
            "midi": 65,
            "name": "F4",
            "ticks": 19392,
            "time": 25.25,
            "velocity": 0.2204724409448819
          },
          {
            "duration": 0.25,
            "durationTicks": 192,
            "midi": 60,
            "name": "C4",
            "ticks": 19392,
            "time": 25.25,
            "velocity": 0.2204724409448819
          },
          {
            "duration": 0.25,
            "durationTicks": 192,
            "midi": 64,
            "name": "E4",
            "ticks": 19584,
            "time": 25.5,
            "velocity": 0.33858267716535434
          },
          {
            "duration": 0.25,
            "durationTicks": 192,
            "midi": 41,
            "name": "F2",
            "ticks": 19584,
            "time": 25.5,
            "velocity": 0.30708661417322836
          },
          {
            "duration": 0.25,
            "durationTicks": 192,
            "midi": 81,
            "name": "A5",
            "ticks": 19584,
            "time": 25.5,
            "velocity": 0.2204724409448819
          },
          {
            "duration": 0.25,
            "durationTicks": 192,
            "midi": 81,
            "name": "A5",
            "ticks": 19584,
            "time": 25.5,
            "velocity": 0.2204724409448819
          },
          {
            "duration": 0,
            "durationTicks": 0,
            "midi": 54,
            "name": "F#3",
            "ticks": 19584,
            "time": 25.5,
            "velocity": 0.2204724409448819
          },
          {
            "duration": 0,
            "durationTicks": 0,
            "midi": 61,
            "name": "C#4",
            "ticks": 19584,
            "time": 25.5,
            "velocity": 0.29133858267716534
          },
          {
            "duration": 0,
            "durationTicks": 0,
            "midi": 38,
            "name": "D2",
            "ticks": 19584,
            "time": 25.5,
            "velocity": 0.33070866141732286
          },
          {
            "duration": 0,
            "durationTicks": 0,
            "midi": 44,
            "name": "G#2",
            "ticks": 19584,
            "time": 25.5,
            "velocity": 0.25984251968503935
          },
          {
            "duration": 0,
            "durationTicks": 0,
            "midi": 60,
            "name": "C4",
            "ticks": 19680,
            "time": 25.625,
            "velocity": 0.2755905511811024
          },
          {
            "duration": 0.25,
            "durationTicks": 192,
            "midi": 62,
            "name": "D4",
            "ticks": 19776,
            "time": 25.75,
            "velocity": 0.25196850393700787
          },
          {
            "duration": 0.25,
            "durationTicks": 192,
            "midi": 67,
            "name": "G4",
            "ticks": 19776,
            "time": 25.75,
            "velocity": 0.2047244094488189
          },
          {
            "duration": 0,
            "durationTicks": 0,
            "midi": 61,
            "name": "C#4",
            "ticks": 19776,
            "time": 25.75,
            "velocity": 0.28346456692913385
          },
          {
            "duration": 0,
            "durationTicks": 0,
            "midi": 46,
            "name": "A#2",
            "ticks": 19776,
            "time": 25.75,
            "velocity": 0.2755905511811024
          },
          {
            "duration": 0.25,
            "durationTicks": 192,
            "midi": 84,
            "name": "C6",
            "ticks": 19776,
            "time": 25.75,
            "velocity": 0.2204724409448819
          },
          {
            "duration": 0.25,
            "durationTicks": 192,
            "midi": 84,
            "name": "C6",
            "ticks": 19776,
            "time": 25.75,
            "velocity": 0.2204724409448819
          },
          {
            "duration": 0.375,
            "durationTicks": 288,
            "midi": 43,
            "name": "G2",
            "ticks": 19776,
            "time": 25.75,
            "velocity": 0.30708661417322836
          },
          {
            "duration": 0.25,
            "durationTicks": 192,
            "midi": 59,
            "name": "B3",
            "ticks": 19776,
            "time": 25.75,
            "velocity": 0.2047244094488189
          },
          {
            "duration": 0,
            "durationTicks": 0,
            "midi": 60,
            "name": "C4",
            "ticks": 19968,
            "time": 26,
            "velocity": 0.29133858267716534
          },
          {
            "duration": 0,
            "durationTicks": 0,
            "midi": 36,
            "name": "C2",
            "ticks": 19968,
            "time": 26,
            "velocity": 0.33070866141732286
          },
          {
            "duration": 0,
            "durationTicks": 0,
            "midi": 54,
            "name": "F#3",
            "ticks": 19968,
            "time": 26,
            "velocity": 0.2440944881889764
          },
          {
            "duration": 0.5,
            "durationTicks": 384,
            "midi": 88,
            "name": "E6",
            "ticks": 19968,
            "time": 26,
            "velocity": 0.1968503937007874
          },
          {
            "duration": 0.25,
            "durationTicks": 192,
            "midi": 55,
            "name": "G3",
            "ticks": 19968,
            "time": 26,
            "velocity": 0.2755905511811024
          },
          {
            "duration": 0.5,
            "durationTicks": 384,
            "midi": 88,
            "name": "E6",
            "ticks": 19968,
            "time": 26,
            "velocity": 0.1968503937007874
          },
          {
            "duration": 0.25,
            "durationTicks": 192,
            "midi": 52,
            "name": "E3",
            "ticks": 19968,
            "time": 26,
            "velocity": 0.25196850393700787
          },
          {
            "duration": 0,
            "durationTicks": 0,
            "midi": 44,
            "name": "G#2",
            "ticks": 19968,
            "time": 26,
            "velocity": 0.25984251968503935
          },
          {
            "duration": 0.125,
            "durationTicks": 96,
            "midi": 43,
            "name": "G2",
            "ticks": 20160,
            "time": 26.25,
            "velocity": 0.2992125984251969
          },
          {
            "duration": 0,
            "durationTicks": 0,
            "midi": 44,
            "name": "G#2",
            "ticks": 20352,
            "time": 26.5,
            "velocity": 0.2677165354330709
          },
          {
            "duration": 0.125,
            "durationTicks": 96,
            "midi": 62,
            "name": "D4",
            "ticks": 20352,
            "time": 26.5,
            "velocity": 0.2992125984251969
          },
          {
            "duration": 0.125,
            "durationTicks": 96,
            "midi": 59,
            "name": "B3",
            "ticks": 20352,
            "time": 26.5,
            "velocity": 0.1968503937007874
          },
          {
            "duration": 0.125,
            "durationTicks": 96,
            "midi": 67,
            "name": "G4",
            "ticks": 20352,
            "time": 26.5,
            "velocity": 0.18110236220472442
          },
          {
            "duration": 0.125,
            "durationTicks": 96,
            "midi": 43,
            "name": "G2",
            "ticks": 20352,
            "time": 26.5,
            "velocity": 0.2992125984251969
          },
          {
            "duration": 0,
            "durationTicks": 0,
            "midi": 38,
            "name": "D2",
            "ticks": 20352,
            "time": 26.5,
            "velocity": 0.33858267716535434
          },
          {
            "duration": 0.25,
            "durationTicks": 192,
            "midi": 69,
            "name": "A4",
            "ticks": 20352,
            "time": 26.5,
            "velocity": 0.33858267716535434
          },
          {
            "duration": 0.5,
            "durationTicks": 384,
            "midi": 86,
            "name": "D6",
            "ticks": 20352,
            "time": 26.5,
            "velocity": 0.2047244094488189
          },
          {
            "duration": 0.5,
            "durationTicks": 384,
            "midi": 86,
            "name": "D6",
            "ticks": 20352,
            "time": 26.5,
            "velocity": 0.2047244094488189
          },
          {
            "duration": 0,
            "durationTicks": 0,
            "midi": 61,
            "name": "C#4",
            "ticks": 20352,
            "time": 26.5,
            "velocity": 0.2755905511811024
          },
          {
            "duration": 0,
            "durationTicks": 0,
            "midi": 54,
            "name": "F#3",
            "ticks": 20352,
            "time": 26.5,
            "velocity": 0.2204724409448819
          },
          {
            "duration": 0.375,
            "durationTicks": 288,
            "midi": 50,
            "name": "D3",
            "ticks": 20544,
            "time": 26.75,
            "velocity": 0.25984251968503935
          },
          {
            "duration": 0.125,
            "durationTicks": 96,
            "midi": 43,
            "name": "G2",
            "ticks": 20544,
            "time": 26.75,
            "velocity": 0.2992125984251969
          },
          {
            "duration": 0.375,
            "durationTicks": 288,
            "midi": 55,
            "name": "G3",
            "ticks": 20544,
            "time": 26.75,
            "velocity": 0.25196850393700787
          },
          {
            "duration": 0,
            "durationTicks": 0,
            "midi": 36,
            "name": "C2",
            "ticks": 20736,
            "time": 27,
            "velocity": 0.33070866141732286
          },
          {
            "duration": 0.25,
            "durationTicks": 192,
            "midi": 67,
            "name": "G4",
            "ticks": 20736,
            "time": 27,
            "velocity": 0.2283464566929134
          },
          {
            "duration": 0.25,
            "durationTicks": 192,
            "midi": 59,
            "name": "B3",
            "ticks": 20736,
            "time": 27,
            "velocity": 0.1889763779527559
          },
          {
            "duration": 0.5,
            "durationTicks": 384,
            "midi": 88,
            "name": "E6",
            "ticks": 20736,
            "time": 27,
            "velocity": 0.2204724409448819
          },
          {
            "duration": 0.5,
            "durationTicks": 384,
            "midi": 88,
            "name": "E6",
            "ticks": 20736,
            "time": 27,
            "velocity": 0.2204724409448819
          },
          {
            "duration": 0,
            "durationTicks": 0,
            "midi": 60,
            "name": "C4",
            "ticks": 20736,
            "time": 27,
            "velocity": 0.2755905511811024
          },
          {
            "duration": 0.375,
            "durationTicks": 288,
            "midi": 64,
            "name": "E4",
            "ticks": 20736,
            "time": 27,
            "velocity": 0.3228346456692913
          },
          {
            "duration": 0.25,
            "durationTicks": 192,
            "midi": 43,
            "name": "G2",
            "ticks": 20736,
            "time": 27,
            "velocity": 0.2992125984251969
          },
          {
            "duration": 0,
            "durationTicks": 0,
            "midi": 44,
            "name": "G#2",
            "ticks": 20736,
            "time": 27,
            "velocity": 0.2677165354330709
          },
          {
            "duration": 0,
            "durationTicks": 0,
            "midi": 54,
            "name": "F#3",
            "ticks": 20736,
            "time": 27,
            "velocity": 0.2283464566929134
          },
          {
            "duration": 0.25,
            "durationTicks": 192,
            "midi": 62,
            "name": "D4",
            "ticks": 20736,
            "time": 27,
            "velocity": 0.29133858267716534
          },
          {
            "duration": 0,
            "durationTicks": 0,
            "midi": 38,
            "name": "D2",
            "ticks": 20928,
            "time": 27.25,
            "velocity": 0.33070866141732286
          },
          {
            "duration": 0.75,
            "durationTicks": 576,
            "midi": 50,
            "name": "D3",
            "ticks": 20928,
            "time": 27.25,
            "velocity": 0.2677165354330709
          },
          {
            "duration": 0.75,
            "durationTicks": 576,
            "midi": 55,
            "name": "G3",
            "ticks": 20928,
            "time": 27.25,
            "velocity": 0.2755905511811024
          },
          {
            "duration": 0.125,
            "durationTicks": 96,
            "midi": 62,
            "name": "D4",
            "ticks": 20928,
            "time": 27.25,
            "velocity": 0.2125984251968504
          },
          {
            "duration": 0.25,
            "durationTicks": 192,
            "midi": 41,
            "name": "F2",
            "ticks": 20928,
            "time": 27.25,
            "velocity": 0.2992125984251969
          },
          {
            "duration": 0.125,
            "durationTicks": 96,
            "midi": 59,
            "name": "B3",
            "ticks": 20928,
            "time": 27.25,
            "velocity": 0.2125984251968504
          },
          {
            "duration": 0.125,
            "durationTicks": 96,
            "midi": 67,
            "name": "G4",
            "ticks": 20928,
            "time": 27.25,
            "velocity": 0.2440944881889764
          },
          {
            "duration": 0.5,
            "durationTicks": 384,
            "midi": 86,
            "name": "D6",
            "ticks": 21120,
            "time": 27.5,
            "velocity": 0.1889763779527559
          },
          {
            "duration": 0.5,
            "durationTicks": 384,
            "midi": 86,
            "name": "D6",
            "ticks": 21120,
            "time": 27.5,
            "velocity": 0.1889763779527559
          },
          {
            "duration": 0,
            "durationTicks": 0,
            "midi": 38,
            "name": "D2",
            "ticks": 21120,
            "time": 27.5,
            "velocity": 0.33858267716535434
          },
          {
            "duration": 0.25,
            "durationTicks": 192,
            "midi": 40,
            "name": "E2",
            "ticks": 21120,
            "time": 27.5,
            "velocity": 0.2992125984251969
          },
          {
            "duration": 0,
            "durationTicks": 0,
            "midi": 54,
            "name": "F#3",
            "ticks": 21120,
            "time": 27.5,
            "velocity": 0.2440944881889764
          },
          {
            "duration": 0,
            "durationTicks": 0,
            "midi": 61,
            "name": "C#4",
            "ticks": 21120,
            "time": 27.5,
            "velocity": 0.2755905511811024
          },
          {
            "duration": 0,
            "durationTicks": 0,
            "midi": 44,
            "name": "G#2",
            "ticks": 21120,
            "time": 27.5,
            "velocity": 0.25984251968503935
          },
          {
            "duration": 0,
            "durationTicks": 0,
            "midi": 38,
            "name": "D2",
            "ticks": 21216,
            "time": 27.625,
            "velocity": 0.33858267716535434
          },
          {
            "duration": 0,
            "durationTicks": 0,
            "midi": 38,
            "name": "D2",
            "ticks": 21312,
            "time": 27.75,
            "velocity": 0.2992125984251969
          },
          {
            "duration": 0.25,
            "durationTicks": 192,
            "midi": 38,
            "name": "D2",
            "ticks": 21312,
            "time": 27.75,
            "velocity": 0.2992125984251969
          },
          {
            "duration": 0,
            "durationTicks": 0,
            "midi": 46,
            "name": "A#2",
            "ticks": 21312,
            "time": 27.75,
            "velocity": 0.2677165354330709
          },
          {
            "duration": 0.125,
            "durationTicks": 96,
            "midi": 64,
            "name": "E4",
            "ticks": 21312,
            "time": 27.75,
            "velocity": 0.33070866141732286
          },
          {
            "duration": 0.375,
            "durationTicks": 288,
            "midi": 67,
            "name": "G4",
            "ticks": 21504,
            "time": 28,
            "velocity": 0.2677165354330709
          },
          {
            "duration": 0.375,
            "durationTicks": 288,
            "midi": 62,
            "name": "D4",
            "ticks": 21504,
            "time": 28,
            "velocity": 0.2677165354330709
          },
          {
            "duration": 0,
            "durationTicks": 0,
            "midi": 36,
            "name": "C2",
            "ticks": 21504,
            "time": 28,
            "velocity": 0.33070866141732286
          },
          {
            "duration": 0,
            "durationTicks": 0,
            "midi": 54,
            "name": "F#3",
            "ticks": 21504,
            "time": 28,
            "velocity": 0.2440944881889764
          },
          {
            "duration": 0,
            "durationTicks": 0,
            "midi": 44,
            "name": "G#2",
            "ticks": 21504,
            "time": 28,
            "velocity": 0.2677165354330709
          },
          {
            "duration": 0.125,
            "durationTicks": 96,
            "midi": 64,
            "name": "E4",
            "ticks": 21504,
            "time": 28,
            "velocity": 0.33070866141732286
          },
          {
            "duration": 0.375,
            "durationTicks": 288,
            "midi": 50,
            "name": "D3",
            "ticks": 21504,
            "time": 28,
            "velocity": 0.2677165354330709
          },
          {
            "duration": 0,
            "durationTicks": 0,
            "midi": 61,
            "name": "C#4",
            "ticks": 21504,
            "time": 28,
            "velocity": 0.28346456692913385
          },
          {
            "duration": 0.375,
            "durationTicks": 288,
            "midi": 55,
            "name": "G3",
            "ticks": 21504,
            "time": 28,
            "velocity": 0.25984251968503935
          },
          {
            "duration": 0.375,
            "durationTicks": 288,
            "midi": 31,
            "name": "G1",
            "ticks": 21504,
            "time": 28,
            "velocity": 0.31496062992125984
          },
          {
            "duration": 0,
            "durationTicks": 0,
            "midi": 44,
            "name": "G#2",
            "ticks": 21888,
            "time": 28.5,
            "velocity": 0.25984251968503935
          },
          {
            "duration": 0.125,
            "durationTicks": 96,
            "midi": 67,
            "name": "G4",
            "ticks": 21888,
            "time": 28.5,
            "velocity": 0.2755905511811024
          },
          {
            "duration": 0.125,
            "durationTicks": 96,
            "midi": 62,
            "name": "D4",
            "ticks": 21888,
            "time": 28.5,
            "velocity": 0.2204724409448819
          },
          {
            "duration": 0.125,
            "durationTicks": 96,
            "midi": 64,
            "name": "E4",
            "ticks": 21888,
            "time": 28.5,
            "velocity": 0.25984251968503935
          },
          {
            "duration": 0.125,
            "durationTicks": 96,
            "midi": 67,
            "name": "G4",
            "ticks": 21888,
            "time": 28.5,
            "velocity": 0.2755905511811024
          },
          {
            "duration": 0,
            "durationTicks": 0,
            "midi": 38,
            "name": "D2",
            "ticks": 21888,
            "time": 28.5,
            "velocity": 0.33858267716535434
          },
          {
            "duration": 0.375,
            "durationTicks": 288,
            "midi": 52,
            "name": "E3",
            "ticks": 21888,
            "time": 28.5,
            "velocity": 0.25984251968503935
          },
          {
            "duration": 0.375,
            "durationTicks": 288,
            "midi": 55,
            "name": "G3",
            "ticks": 21888,
            "time": 28.5,
            "velocity": 0.25984251968503935
          },
          {
            "duration": 0.125,
            "durationTicks": 96,
            "midi": 64,
            "name": "E4",
            "ticks": 21888,
            "time": 28.5,
            "velocity": 0.25984251968503935
          },
          {
            "duration": 0.375,
            "durationTicks": 288,
            "midi": 31,
            "name": "G1",
            "ticks": 21888,
            "time": 28.5,
            "velocity": 0.2992125984251969
          },
          {
            "duration": 0,
            "durationTicks": 0,
            "midi": 54,
            "name": "F#3",
            "ticks": 21888,
            "time": 28.5,
            "velocity": 0.2204724409448819
          },
          {
            "duration": 0,
            "durationTicks": 0,
            "midi": 61,
            "name": "C#4",
            "ticks": 21888,
            "time": 28.5,
            "velocity": 0.28346456692913385
          },
          {
            "duration": 0.125,
            "durationTicks": 96,
            "midi": 64,
            "name": "E4",
            "ticks": 22080,
            "time": 28.75,
            "velocity": 0.3464566929133858
          },
          {
            "duration": 0,
            "durationTicks": 0,
            "midi": 61,
            "name": "C#4",
            "ticks": 22272,
            "time": 29,
            "velocity": 0.28346456692913385
          },
          {
            "duration": 0.375,
            "durationTicks": 288,
            "midi": 55,
            "name": "G3",
            "ticks": 22272,
            "time": 29,
            "velocity": 0.25196850393700787
          },
          {
            "duration": 0,
            "durationTicks": 0,
            "midi": 36,
            "name": "C2",
            "ticks": 22272,
            "time": 29,
            "velocity": 0.33070866141732286
          },
          {
            "duration": 0.25,
            "durationTicks": 192,
            "midi": 62,
            "name": "D4",
            "ticks": 22272,
            "time": 29,
            "velocity": 0.25984251968503935
          },
          {
            "duration": 0,
            "durationTicks": 0,
            "midi": 44,
            "name": "G#2",
            "ticks": 22272,
            "time": 29,
            "velocity": 0.25984251968503935
          },
          {
            "duration": 0.125,
            "durationTicks": 96,
            "midi": 64,
            "name": "E4",
            "ticks": 22272,
            "time": 29,
            "velocity": 0.3464566929133858
          },
          {
            "duration": 0,
            "durationTicks": 0,
            "midi": 54,
            "name": "F#3",
            "ticks": 22272,
            "time": 29,
            "velocity": 0.2440944881889764
          },
          {
            "duration": 0.125,
            "durationTicks": 96,
            "midi": 31,
            "name": "G1",
            "ticks": 22272,
            "time": 29,
            "velocity": 0.30708661417322836
          },
          {
            "duration": 0.375,
            "durationTicks": 288,
            "midi": 50,
            "name": "D3",
            "ticks": 22272,
            "time": 29,
            "velocity": 0.2677165354330709
          },
          {
            "duration": 0.25,
            "durationTicks": 192,
            "midi": 67,
            "name": "G4",
            "ticks": 22272,
            "time": 29,
            "velocity": 0.25984251968503935
          },
          {
            "duration": 0.125,
            "durationTicks": 96,
            "midi": 67,
            "name": "G4",
            "ticks": 22464,
            "time": 29.25,
            "velocity": 0.2677165354330709
          },
          {
            "duration": 0.125,
            "durationTicks": 96,
            "midi": 64,
            "name": "E4",
            "ticks": 22464,
            "time": 29.25,
            "velocity": 0.3464566929133858
          },
          {
            "duration": 0.375,
            "durationTicks": 288,
            "midi": 64,
            "name": "E4",
            "ticks": 22464,
            "time": 29.25,
            "velocity": 0.3464566929133858
          },
          {
            "duration": 0.375,
            "durationTicks": 288,
            "midi": 31,
            "name": "G1",
            "ticks": 22464,
            "time": 29.25,
            "velocity": 0.2992125984251969
          },
          {
            "duration": 0.125,
            "durationTicks": 96,
            "midi": 52,
            "name": "E3",
            "ticks": 22656,
            "time": 29.5,
            "velocity": 0.2755905511811024
          },
          {
            "duration": 0,
            "durationTicks": 0,
            "midi": 38,
            "name": "D2",
            "ticks": 22656,
            "time": 29.5,
            "velocity": 0.33070866141732286
          },
          {
            "duration": 0,
            "durationTicks": 0,
            "midi": 44,
            "name": "G#2",
            "ticks": 22656,
            "time": 29.5,
            "velocity": 0.25984251968503935
          },
          {
            "duration": 0,
            "durationTicks": 0,
            "midi": 54,
            "name": "F#3",
            "ticks": 22656,
            "time": 29.5,
            "velocity": 0.2283464566929134
          },
          {
            "duration": 0.125,
            "durationTicks": 96,
            "midi": 67,
            "name": "G4",
            "ticks": 22656,
            "time": 29.5,
            "velocity": 0.23622047244094488
          },
          {
            "duration": 0.125,
            "durationTicks": 96,
            "midi": 55,
            "name": "G3",
            "ticks": 22656,
            "time": 29.5,
            "velocity": 0.2755905511811024
          },
          {
            "duration": 0.125,
            "durationTicks": 96,
            "midi": 62,
            "name": "D4",
            "ticks": 22656,
            "time": 29.5,
            "velocity": 0.1889763779527559
          },
          {
            "duration": 0,
            "durationTicks": 0,
            "midi": 61,
            "name": "C#4",
            "ticks": 22656,
            "time": 29.5,
            "velocity": 0.2755905511811024
          },
          {
            "duration": 0,
            "durationTicks": 0,
            "midi": 46,
            "name": "A#2",
            "ticks": 22848,
            "time": 29.75,
            "velocity": 0.2677165354330709
          },
          {
            "duration": 0.125,
            "durationTicks": 96,
            "midi": 31,
            "name": "G1",
            "ticks": 22848,
            "time": 29.75,
            "velocity": 0.2992125984251969
          },
          {
            "duration": 0.25,
            "durationTicks": 192,
            "midi": 50,
            "name": "D3",
            "ticks": 22848,
            "time": 29.75,
            "velocity": 0.2755905511811024
          },
          {
            "duration": 0.5,
            "durationTicks": 384,
            "midi": 67,
            "name": "G4",
            "ticks": 22848,
            "time": 29.75,
            "velocity": 0.3543307086614173
          },
          {
            "duration": 0.25,
            "durationTicks": 192,
            "midi": 55,
            "name": "G3",
            "ticks": 22848,
            "time": 29.75,
            "velocity": 0.2755905511811024
          },
          {
            "duration": 0.5,
            "durationTicks": 384,
            "midi": 62,
            "name": "D4",
            "ticks": 22848,
            "time": 29.75,
            "velocity": 0.2677165354330709
          },
          {
            "duration": 0,
            "durationTicks": 0,
            "midi": 61,
            "name": "C#4",
            "ticks": 23040,
            "time": 30,
            "velocity": 0.28346456692913385
          },
          {
            "duration": 0,
            "durationTicks": 0,
            "midi": 36,
            "name": "C2",
            "ticks": 23040,
            "time": 30,
            "velocity": 0.33070866141732286
          },
          {
            "duration": 0,
            "durationTicks": 0,
            "midi": 44,
            "name": "G#2",
            "ticks": 23040,
            "time": 30,
            "velocity": 0.25984251968503935
          },
          {
            "duration": 0,
            "durationTicks": 0,
            "midi": 54,
            "name": "F#3",
            "ticks": 23040,
            "time": 30,
            "velocity": 0.2283464566929134
          },
          {
            "duration": 0.375,
            "durationTicks": 288,
            "midi": 31,
            "name": "G1",
            "ticks": 23040,
            "time": 30,
            "velocity": 0.2992125984251969
          },
          {
            "duration": 0.125,
            "durationTicks": 96,
            "midi": 62,
            "name": "D4",
            "ticks": 23232,
            "time": 30.25,
            "velocity": 0.25984251968503935
          },
          {
            "duration": 0.125,
            "durationTicks": 96,
            "midi": 55,
            "name": "G3",
            "ticks": 23232,
            "time": 30.25,
            "velocity": 0.2755905511811024
          },
          {
            "duration": 0.125,
            "durationTicks": 96,
            "midi": 50,
            "name": "D3",
            "ticks": 23232,
            "time": 30.25,
            "velocity": 0.2677165354330709
          },
          {
            "duration": 0.25,
            "durationTicks": 192,
            "midi": 55,
            "name": "G3",
            "ticks": 23424,
            "time": 30.5,
            "velocity": 0.2755905511811024
          },
          {
            "duration": 0.125,
            "durationTicks": 96,
            "midi": 67,
            "name": "G4",
            "ticks": 23424,
            "time": 30.5,
            "velocity": 0.25984251968503935
          },
          {
            "duration": 0.375,
            "durationTicks": 288,
            "midi": 31,
            "name": "G1",
            "ticks": 23424,
            "time": 30.5,
            "velocity": 0.30708661417322836
          },
          {
            "duration": 0,
            "durationTicks": 0,
            "midi": 61,
            "name": "C#4",
            "ticks": 23424,
            "time": 30.5,
            "velocity": 0.2755905511811024
          },
          {
            "duration": 0.25,
            "durationTicks": 192,
            "midi": 67,
            "name": "G4",
            "ticks": 23424,
            "time": 30.5,
            "velocity": 0.25984251968503935
          },
          {
            "duration": 0,
            "durationTicks": 0,
            "midi": 38,
            "name": "D2",
            "ticks": 23424,
            "time": 30.5,
            "velocity": 0.33858267716535434
          },
          {
            "duration": 0.25,
            "durationTicks": 192,
            "midi": 64,
            "name": "E4",
            "ticks": 23424,
            "time": 30.5,
            "velocity": 0.25984251968503935
          },
          {
            "duration": 0,
            "durationTicks": 0,
            "midi": 44,
            "name": "G#2",
            "ticks": 23424,
            "time": 30.5,
            "velocity": 0.2677165354330709
          },
          {
            "duration": 0.25,
            "durationTicks": 192,
            "midi": 67,
            "name": "G4",
            "ticks": 23424,
            "time": 30.5,
            "velocity": 0.25984251968503935
          },
          {
            "duration": 0.125,
            "durationTicks": 96,
            "midi": 59,
            "name": "B3",
            "ticks": 23424,
            "time": 30.5,
            "velocity": 0.13385826771653545
          },
          {
            "duration": 0.125,
            "durationTicks": 96,
            "midi": 62,
            "name": "D4",
            "ticks": 23424,
            "time": 30.5,
            "velocity": 0.2204724409448819
          },
          {
            "duration": 0.25,
            "durationTicks": 192,
            "midi": 52,
            "name": "E3",
            "ticks": 23424,
            "time": 30.5,
            "velocity": 0.2755905511811024
          },
          {
            "duration": 0,
            "durationTicks": 0,
            "midi": 54,
            "name": "F#3",
            "ticks": 23424,
            "time": 30.5,
            "velocity": 0.23622047244094488
          },
          {
            "duration": 0,
            "durationTicks": 0,
            "midi": 36,
            "name": "C2",
            "ticks": 23808,
            "time": 31,
            "velocity": 0.33070866141732286
          },
          {
            "duration": 0,
            "durationTicks": 0,
            "midi": 61,
            "name": "C#4",
            "ticks": 23808,
            "time": 31,
            "velocity": 0.28346456692913385
          },
          {
            "duration": 0,
            "durationTicks": 0,
            "midi": 44,
            "name": "G#2",
            "ticks": 23808,
            "time": 31,
            "velocity": 0.25984251968503935
          },
          {
            "duration": 0.25,
            "durationTicks": 192,
            "midi": 67,
            "name": "G4",
            "ticks": 23808,
            "time": 31,
            "velocity": 0.3464566929133858
          },
          {
            "duration": 0.25,
            "durationTicks": 192,
            "midi": 67,
            "name": "G4",
            "ticks": 23808,
            "time": 31,
            "velocity": 0.3464566929133858
          },
          {
            "duration": 0.25,
            "durationTicks": 192,
            "midi": 62,
            "name": "D4",
            "ticks": 23808,
            "time": 31,
            "velocity": 0.2677165354330709
          },
          {
            "duration": 0,
            "durationTicks": 0,
            "midi": 54,
            "name": "F#3",
            "ticks": 23808,
            "time": 31,
            "velocity": 0.2283464566929134
          },
          {
            "duration": 0.375,
            "durationTicks": 288,
            "midi": 50,
            "name": "D3",
            "ticks": 23808,
            "time": 31,
            "velocity": 0.2677165354330709
          },
          {
            "duration": 0.25,
            "durationTicks": 192,
            "midi": 31,
            "name": "G1",
            "ticks": 23808,
            "time": 31,
            "velocity": 0.2992125984251969
          },
          {
            "duration": 0.375,
            "durationTicks": 288,
            "midi": 55,
            "name": "G3",
            "ticks": 23808,
            "time": 31,
            "velocity": 0.25196850393700787
          },
          {
            "duration": 0.125,
            "durationTicks": 96,
            "midi": 64,
            "name": "E4",
            "ticks": 24000,
            "time": 31.25,
            "velocity": 0.33858267716535434
          },
          {
            "duration": 0.375,
            "durationTicks": 288,
            "midi": 64,
            "name": "E4",
            "ticks": 24000,
            "time": 31.25,
            "velocity": 0.33858267716535434
          },
          {
            "duration": 0.25,
            "durationTicks": 192,
            "midi": 36,
            "name": "C2",
            "ticks": 24000,
            "time": 31.25,
            "velocity": 0.31496062992125984
          },
          {
            "duration": 0.125,
            "durationTicks": 96,
            "midi": 67,
            "name": "G4",
            "ticks": 24000,
            "time": 31.25,
            "velocity": 0.2755905511811024
          },
          {
            "duration": 0.125,
            "durationTicks": 96,
            "midi": 62,
            "name": "D4",
            "ticks": 24192,
            "time": 31.5,
            "velocity": 0.2125984251968504
          },
          {
            "duration": 0.125,
            "durationTicks": 96,
            "midi": 67,
            "name": "G4",
            "ticks": 24192,
            "time": 31.5,
            "velocity": 0.2677165354330709
          },
          {
            "duration": 0,
            "durationTicks": 0,
            "midi": 44,
            "name": "G#2",
            "ticks": 24192,
            "time": 31.5,
            "velocity": 0.25984251968503935
          },
          {
            "duration": 0.25,
            "durationTicks": 192,
            "midi": 52,
            "name": "E3",
            "ticks": 24192,
            "time": 31.5,
            "velocity": 0.25196850393700787
          },
          {
            "duration": 0.25,
            "durationTicks": 192,
            "midi": 55,
            "name": "G3",
            "ticks": 24192,
            "time": 31.5,
            "velocity": 0.25196850393700787
          },
          {
            "duration": 0,
            "durationTicks": 0,
            "midi": 38,
            "name": "D2",
            "ticks": 24192,
            "time": 31.5,
            "velocity": 0.31496062992125984
          },
          {
            "duration": 0,
            "durationTicks": 0,
            "midi": 54,
            "name": "F#3",
            "ticks": 24192,
            "time": 31.5,
            "velocity": 0.23622047244094488
          },
          {
            "duration": 0.25,
            "durationTicks": 192,
            "midi": 38,
            "name": "D2",
            "ticks": 24192,
            "time": 31.5,
            "velocity": 0.31496062992125984
          },
          {
            "duration": 0,
            "durationTicks": 0,
            "midi": 61,
            "name": "C#4",
            "ticks": 24192,
            "time": 31.5,
            "velocity": 0.29133858267716534
          },
          {
            "duration": 0,
            "durationTicks": 0,
            "midi": 46,
            "name": "A#2",
            "ticks": 24384,
            "time": 31.75,
            "velocity": 0.2677165354330709
          },
          {
            "duration": 0.125,
            "durationTicks": 96,
            "midi": 43,
            "name": "G2",
            "ticks": 24384,
            "time": 31.75,
            "velocity": 0.31496062992125984
          },
          {
            "duration": 0.375,
            "durationTicks": 288,
            "midi": 62,
            "name": "D4",
            "ticks": 24384,
            "time": 31.75,
            "velocity": 0.33858267716535434
          },
          {
            "duration": 0.375,
            "durationTicks": 288,
            "midi": 53,
            "name": "F3",
            "ticks": 24576,
            "time": 32,
            "velocity": 0.2677165354330709
          },
          {
            "duration": 0,
            "durationTicks": 0,
            "midi": 54,
            "name": "F#3",
            "ticks": 24576,
            "time": 32,
            "velocity": 0.2204724409448819
          },
          {
            "duration": 0,
            "durationTicks": 0,
            "midi": 61,
            "name": "C#4",
            "ticks": 24576,
            "time": 32,
            "velocity": 0.2755905511811024
          },
          {
            "duration": 0,
            "durationTicks": 0,
            "midi": 36,
            "name": "C2",
            "ticks": 24576,
            "time": 32,
            "velocity": 0.33858267716535434
          },
          {
            "duration": 0,
            "durationTicks": 0,
            "midi": 44,
            "name": "G#2",
            "ticks": 24576,
            "time": 32,
            "velocity": 0.2677165354330709
          },
          {
            "duration": 0.375,
            "durationTicks": 288,
            "midi": 48,
            "name": "C3",
            "ticks": 24576,
            "time": 32,
            "velocity": 0.2755905511811024
          },
          {
            "duration": 0.375,
            "durationTicks": 288,
            "midi": 41,
            "name": "F2",
            "ticks": 24576,
            "time": 32,
            "velocity": 0.2992125984251969
          },
          {
            "duration": 0.375,
            "durationTicks": 288,
            "midi": 65,
            "name": "F4",
            "ticks": 24576,
            "time": 32,
            "velocity": 0.28346456692913385
          },
          {
            "duration": 0.125,
            "durationTicks": 96,
            "midi": 60,
            "name": "C4",
            "ticks": 24672,
            "time": 32.125,
            "velocity": 0.33858267716535434
          },
          {
            "duration": 0.25,
            "durationTicks": 192,
            "midi": 60,
            "name": "C4",
            "ticks": 24672,
            "time": 32.125,
            "velocity": 0.33858267716535434
          },
          {
            "duration": 0.125,
            "durationTicks": 96,
            "midi": 57,
            "name": "A3",
            "ticks": 24768,
            "time": 32.25,
            "velocity": 0.3543307086614173
          },
          {
            "duration": 0.125,
            "durationTicks": 96,
            "midi": 60,
            "name": "C4",
            "ticks": 24960,
            "time": 32.5,
            "velocity": 0.3464566929133858
          },
          {
            "duration": 0.125,
            "durationTicks": 96,
            "midi": 65,
            "name": "F4",
            "ticks": 24960,
            "time": 32.5,
            "velocity": 0.23622047244094488
          },
          {
            "duration": 0.125,
            "durationTicks": 96,
            "midi": 62,
            "name": "D4",
            "ticks": 24960,
            "time": 32.5,
            "velocity": 0.25984251968503935
          },
          {
            "duration": 0.375,
            "durationTicks": 288,
            "midi": 50,
            "name": "D3",
            "ticks": 24960,
            "time": 32.5,
            "velocity": 0.2677165354330709
          },
          {
            "duration": 0.375,
            "durationTicks": 288,
            "midi": 53,
            "name": "F3",
            "ticks": 24960,
            "time": 32.5,
            "velocity": 0.25196850393700787
          },
          {
            "duration": 0.125,
            "durationTicks": 96,
            "midi": 65,
            "name": "F4",
            "ticks": 24960,
            "time": 32.5,
            "velocity": 0.23622047244094488
          },
          {
            "duration": 0,
            "durationTicks": 0,
            "midi": 38,
            "name": "D2",
            "ticks": 24960,
            "time": 32.5,
            "velocity": 0.33858267716535434
          },
          {
            "duration": 0.375,
            "durationTicks": 288,
            "midi": 41,
            "name": "F2",
            "ticks": 24960,
            "time": 32.5,
            "velocity": 0.31496062992125984
          },
          {
            "duration": 0.125,
            "durationTicks": 96,
            "midi": 60,
            "name": "C4",
            "ticks": 24960,
            "time": 32.5,
            "velocity": 0.3464566929133858
          },
          {
            "duration": 0,
            "durationTicks": 0,
            "midi": 54,
            "name": "F#3",
            "ticks": 24960,
            "time": 32.5,
            "velocity": 0.2440944881889764
          },
          {
            "duration": 0,
            "durationTicks": 0,
            "midi": 61,
            "name": "C#4",
            "ticks": 24960,
            "time": 32.5,
            "velocity": 0.28346456692913385
          },
          {
            "duration": 0,
            "durationTicks": 0,
            "midi": 44,
            "name": "G#2",
            "ticks": 24960,
            "time": 32.5,
            "velocity": 0.2755905511811024
          },
          {
            "duration": 0.125,
            "durationTicks": 96,
            "midi": 41,
            "name": "F2",
            "ticks": 25344,
            "time": 33,
            "velocity": 0.2992125984251969
          },
          {
            "duration": 0.25,
            "durationTicks": 192,
            "midi": 60,
            "name": "C4",
            "ticks": 25344,
            "time": 33,
            "velocity": 0.25984251968503935
          },
          {
            "duration": 0.25,
            "durationTicks": 192,
            "midi": 65,
            "name": "F4",
            "ticks": 25344,
            "time": 33,
            "velocity": 0.2677165354330709
          },
          {
            "duration": 0.25,
            "durationTicks": 192,
            "midi": 48,
            "name": "C3",
            "ticks": 25344,
            "time": 33,
            "velocity": 0.25196850393700787
          },
          {
            "duration": 0,
            "durationTicks": 0,
            "midi": 44,
            "name": "G#2",
            "ticks": 25344,
            "time": 33,
            "velocity": 0.25984251968503935
          },
          {
            "duration": 0,
            "durationTicks": 0,
            "midi": 36,
            "name": "C2",
            "ticks": 25344,
            "time": 33,
            "velocity": 0.33070866141732286
          },
          {
            "duration": 0.25,
            "durationTicks": 192,
            "midi": 53,
            "name": "F3",
            "ticks": 25344,
            "time": 33,
            "velocity": 0.2755905511811024
          },
          {
            "duration": 0,
            "durationTicks": 0,
            "midi": 54,
            "name": "F#3",
            "ticks": 25344,
            "time": 33,
            "velocity": 0.2204724409448819
          },
          {
            "duration": 0,
            "durationTicks": 0,
            "midi": 61,
            "name": "C#4",
            "ticks": 25344,
            "time": 33,
            "velocity": 0.29133858267716534
          },
          {
            "duration": 0.125,
            "durationTicks": 96,
            "midi": 65,
            "name": "F4",
            "ticks": 25536,
            "time": 33.25,
            "velocity": 0.25984251968503935
          },
          {
            "duration": 0.125,
            "durationTicks": 96,
            "midi": 62,
            "name": "D4",
            "ticks": 25536,
            "time": 33.25,
            "velocity": 0.25984251968503935
          },
          {
            "duration": 0.375,
            "durationTicks": 288,
            "midi": 41,
            "name": "F2",
            "ticks": 25536,
            "time": 33.25,
            "velocity": 0.2992125984251969
          },
          {
            "duration": 0.125,
            "durationTicks": 96,
            "midi": 65,
            "name": "F4",
            "ticks": 25728,
            "time": 33.5,
            "velocity": 0.2440944881889764
          },
          {
            "duration": 0,
            "durationTicks": 0,
            "midi": 44,
            "name": "G#2",
            "ticks": 25728,
            "time": 33.5,
            "velocity": 0.2677165354330709
          },
          {
            "duration": 0.125,
            "durationTicks": 96,
            "midi": 50,
            "name": "D3",
            "ticks": 25728,
            "time": 33.5,
            "velocity": 0.2677165354330709
          },
          {
            "duration": 0.125,
            "durationTicks": 96,
            "midi": 60,
            "name": "C4",
            "ticks": 25728,
            "time": 33.5,
            "velocity": 0.2047244094488189
          },
          {
            "duration": 0,
            "durationTicks": 0,
            "midi": 54,
            "name": "F#3",
            "ticks": 25728,
            "time": 33.5,
            "velocity": 0.2283464566929134
          },
          {
            "duration": 0,
            "durationTicks": 0,
            "midi": 61,
            "name": "C#4",
            "ticks": 25728,
            "time": 33.5,
            "velocity": 0.2755905511811024
          },
          {
            "duration": 0.25,
            "durationTicks": 192,
            "midi": 60,
            "name": "C4",
            "ticks": 25728,
            "time": 33.5,
            "velocity": 0.2047244094488189
          },
          {
            "duration": 0.125,
            "durationTicks": 96,
            "midi": 53,
            "name": "F3",
            "ticks": 25728,
            "time": 33.5,
            "velocity": 0.25984251968503935
          },
          {
            "duration": 0,
            "durationTicks": 0,
            "midi": 38,
            "name": "D2",
            "ticks": 25728,
            "time": 33.5,
            "velocity": 0.33858267716535434
          },
          {
            "duration": 0.5,
            "durationTicks": 384,
            "midi": 60,
            "name": "C4",
            "ticks": 25920,
            "time": 33.75,
            "velocity": 0.2677165354330709
          },
          {
            "duration": 0.125,
            "durationTicks": 96,
            "midi": 53,
            "name": "F3",
            "ticks": 25920,
            "time": 33.75,
            "velocity": 0.2677165354330709
          },
          {
            "duration": 0.5,
            "durationTicks": 384,
            "midi": 65,
            "name": "F4",
            "ticks": 25920,
            "time": 33.75,
            "velocity": 0.2677165354330709
          },
          {
            "duration": 0.125,
            "durationTicks": 96,
            "midi": 48,
            "name": "C3",
            "ticks": 25920,
            "time": 33.75,
            "velocity": 0.25984251968503935
          },
          {
            "duration": 0,
            "durationTicks": 0,
            "midi": 46,
            "name": "A#2",
            "ticks": 25920,
            "time": 33.75,
            "velocity": 0.2755905511811024
          },
          {
            "duration": 0.125,
            "durationTicks": 96,
            "midi": 41,
            "name": "F2",
            "ticks": 25920,
            "time": 33.75,
            "velocity": 0.30708661417322836
          },
          {
            "duration": 0,
            "durationTicks": 0,
            "midi": 36,
            "name": "C2",
            "ticks": 26112,
            "time": 34,
            "velocity": 0.33070866141732286
          },
          {
            "duration": 0,
            "durationTicks": 0,
            "midi": 54,
            "name": "F#3",
            "ticks": 26112,
            "time": 34,
            "velocity": 0.2204724409448819
          },
          {
            "duration": 0,
            "durationTicks": 0,
            "midi": 61,
            "name": "C#4",
            "ticks": 26112,
            "time": 34,
            "velocity": 0.2755905511811024
          },
          {
            "duration": 0.375,
            "durationTicks": 288,
            "midi": 41,
            "name": "F2",
            "ticks": 26112,
            "time": 34,
            "velocity": 0.31496062992125984
          },
          {
            "duration": 0,
            "durationTicks": 0,
            "midi": 44,
            "name": "G#2",
            "ticks": 26112,
            "time": 34,
            "velocity": 0.25984251968503935
          },
          {
            "duration": 0.125,
            "durationTicks": 96,
            "midi": 53,
            "name": "F3",
            "ticks": 26304,
            "time": 34.25,
            "velocity": 0.2755905511811024
          },
          {
            "duration": 0.125,
            "durationTicks": 96,
            "midi": 48,
            "name": "C3",
            "ticks": 26304,
            "time": 34.25,
            "velocity": 0.2755905511811024
          },
          {
            "duration": 0.125,
            "durationTicks": 96,
            "midi": 60,
            "name": "C4",
            "ticks": 26304,
            "time": 34.25,
            "velocity": 0.25984251968503935
          },
          {
            "duration": 0.125,
            "durationTicks": 96,
            "midi": 60,
            "name": "C4",
            "ticks": 26496,
            "time": 34.5,
            "velocity": 0.18110236220472442
          },
          {
            "duration": 0.125,
            "durationTicks": 96,
            "midi": 62,
            "name": "D4",
            "ticks": 26496,
            "time": 34.5,
            "velocity": 0.2755905511811024
          },
          {
            "duration": 0.125,
            "durationTicks": 96,
            "midi": 65,
            "name": "F4",
            "ticks": 26496,
            "time": 34.5,
            "velocity": 0.2283464566929134
          },
          {
            "duration": 0.125,
            "durationTicks": 96,
            "midi": 65,
            "name": "F4",
            "ticks": 26496,
            "time": 34.5,
            "velocity": 0.2283464566929134
          },
          {
            "duration": 0.25,
            "durationTicks": 192,
            "midi": 53,
            "name": "F3",
            "ticks": 26496,
            "time": 34.5,
            "velocity": 0.25984251968503935
          },
          {
            "duration": 0,
            "durationTicks": 0,
            "midi": 44,
            "name": "G#2",
            "ticks": 26496,
            "time": 34.5,
            "velocity": 0.2677165354330709
          },
          {
            "duration": 0,
            "durationTicks": 0,
            "midi": 61,
            "name": "C#4",
            "ticks": 26496,
            "time": 34.5,
            "velocity": 0.2755905511811024
          },
          {
            "duration": 0.25,
            "durationTicks": 192,
            "midi": 50,
            "name": "D3",
            "ticks": 26496,
            "time": 34.5,
            "velocity": 0.25984251968503935
          },
          {
            "duration": 0.375,
            "durationTicks": 288,
            "midi": 41,
            "name": "F2",
            "ticks": 26496,
            "time": 34.5,
            "velocity": 0.2992125984251969
          },
          {
            "duration": 0,
            "durationTicks": 0,
            "midi": 54,
            "name": "F#3",
            "ticks": 26496,
            "time": 34.5,
            "velocity": 0.2440944881889764
          },
          {
            "duration": 0,
            "durationTicks": 0,
            "midi": 38,
            "name": "D2",
            "ticks": 26496,
            "time": 34.5,
            "velocity": 0.33858267716535434
          },
          {
            "duration": 0.125,
            "durationTicks": 96,
            "midi": 57,
            "name": "A3",
            "ticks": 26688,
            "time": 34.75,
            "velocity": 0.2440944881889764
          },
          {
            "duration": 0,
            "durationTicks": 0,
            "midi": 36,
            "name": "C2",
            "ticks": 26880,
            "time": 35,
            "velocity": 0.33858267716535434
          },
          {
            "duration": 0.25,
            "durationTicks": 192,
            "midi": 65,
            "name": "F4",
            "ticks": 26880,
            "time": 35,
            "velocity": 0.2677165354330709
          },
          {
            "duration": 0.25,
            "durationTicks": 192,
            "midi": 55,
            "name": "G3",
            "ticks": 26880,
            "time": 35,
            "velocity": 0.2440944881889764
          },
          {
            "duration": 0,
            "durationTicks": 0,
            "midi": 61,
            "name": "C#4",
            "ticks": 26880,
            "time": 35,
            "velocity": 0.2755905511811024
          },
          {
            "duration": 0.25,
            "durationTicks": 192,
            "midi": 60,
            "name": "C4",
            "ticks": 26880,
            "time": 35,
            "velocity": 0.2755905511811024
          },
          {
            "duration": 0.25,
            "durationTicks": 192,
            "midi": 53,
            "name": "F3",
            "ticks": 26880,
            "time": 35,
            "velocity": 0.2677165354330709
          },
          {
            "duration": 0.25,
            "durationTicks": 192,
            "midi": 48,
            "name": "C3",
            "ticks": 26880,
            "time": 35,
            "velocity": 0.2755905511811024
          },
          {
            "duration": 0.125,
            "durationTicks": 96,
            "midi": 41,
            "name": "F2",
            "ticks": 26880,
            "time": 35,
            "velocity": 0.30708661417322836
          },
          {
            "duration": 0,
            "durationTicks": 0,
            "midi": 44,
            "name": "G#2",
            "ticks": 26880,
            "time": 35,
            "velocity": 0.25984251968503935
          },
          {
            "duration": 0,
            "durationTicks": 0,
            "midi": 54,
            "name": "F#3",
            "ticks": 26880,
            "time": 35,
            "velocity": 0.2283464566929134
          },
          {
            "duration": 0.125,
            "durationTicks": 96,
            "midi": 65,
            "name": "F4",
            "ticks": 27072,
            "time": 35.25,
            "velocity": 0.2755905511811024
          },
          {
            "duration": 0.125,
            "durationTicks": 96,
            "midi": 62,
            "name": "D4",
            "ticks": 27072,
            "time": 35.25,
            "velocity": 0.25984251968503935
          },
          {
            "duration": 0.125,
            "durationTicks": 96,
            "midi": 41,
            "name": "F2",
            "ticks": 27072,
            "time": 35.25,
            "velocity": 0.30708661417322836
          },
          {
            "duration": 0.25,
            "durationTicks": 192,
            "midi": 41,
            "name": "F2",
            "ticks": 27264,
            "time": 35.5,
            "velocity": 0.30708661417322836
          },
          {
            "duration": 0.125,
            "durationTicks": 96,
            "midi": 65,
            "name": "F4",
            "ticks": 27264,
            "time": 35.5,
            "velocity": 0.2283464566929134
          },
          {
            "duration": 0.25,
            "durationTicks": 192,
            "midi": 53,
            "name": "F3",
            "ticks": 27264,
            "time": 35.5,
            "velocity": 0.2755905511811024
          },
          {
            "duration": 0.125,
            "durationTicks": 96,
            "midi": 60,
            "name": "C4",
            "ticks": 27264,
            "time": 35.5,
            "velocity": 0.1968503937007874
          },
          {
            "duration": 0.25,
            "durationTicks": 192,
            "midi": 50,
            "name": "D3",
            "ticks": 27264,
            "time": 35.5,
            "velocity": 0.25196850393700787
          },
          {
            "duration": 0,
            "durationTicks": 0,
            "midi": 38,
            "name": "D2",
            "ticks": 27264,
            "time": 35.5,
            "velocity": 0.33070866141732286
          },
          {
            "duration": 0,
            "durationTicks": 0,
            "midi": 54,
            "name": "F#3",
            "ticks": 27264,
            "time": 35.5,
            "velocity": 0.2204724409448819
          },
          {
            "duration": 0,
            "durationTicks": 0,
            "midi": 44,
            "name": "G#2",
            "ticks": 27264,
            "time": 35.5,
            "velocity": 0.2755905511811024
          },
          {
            "duration": 0,
            "durationTicks": 0,
            "midi": 61,
            "name": "C#4",
            "ticks": 27264,
            "time": 35.5,
            "velocity": 0.28346456692913385
          },
          {
            "duration": 0,
            "durationTicks": 0,
            "midi": 46,
            "name": "A#2",
            "ticks": 27456,
            "time": 35.75,
            "velocity": 0.2755905511811024
          },
          {
            "duration": 0.125,
            "durationTicks": 96,
            "midi": 43,
            "name": "G2",
            "ticks": 27456,
            "time": 35.75,
            "velocity": 0.31496062992125984
          },
          {
            "duration": 0.125,
            "durationTicks": 96,
            "midi": 64,
            "name": "E4",
            "ticks": 27648,
            "time": 36,
            "velocity": 0.33858267716535434
          },
          {
            "duration": 0.25,
            "durationTicks": 192,
            "midi": 50,
            "name": "D3",
            "ticks": 27648,
            "time": 36,
            "velocity": 0.25196850393700787
          },
          {
            "duration": 0.25,
            "durationTicks": 192,
            "midi": 55,
            "name": "G3",
            "ticks": 27648,
            "time": 36,
            "velocity": 0.25984251968503935
          },
          {
            "duration": 0.375,
            "durationTicks": 288,
            "midi": 31,
            "name": "G1",
            "ticks": 27648,
            "time": 36,
            "velocity": 0.2992125984251969
          },
          {
            "duration": 0.375,
            "durationTicks": 288,
            "midi": 62,
            "name": "D4",
            "ticks": 27648,
            "time": 36,
            "velocity": 0.25984251968503935
          },
          {
            "duration": 0.375,
            "durationTicks": 288,
            "midi": 67,
            "name": "G4",
            "ticks": 27648,
            "time": 36,
            "velocity": 0.25984251968503935
          },
          {
            "duration": 0,
            "durationTicks": 0,
            "midi": 60,
            "name": "C4",
            "ticks": 27648,
            "time": 36,
            "velocity": 0.2755905511811024
          },
          {
            "duration": 0,
            "durationTicks": 0,
            "midi": 36,
            "name": "C2",
            "ticks": 27648,
            "time": 36,
            "velocity": 0.33070866141732286
          },
          {
            "duration": 0,
            "durationTicks": 0,
            "midi": 44,
            "name": "G#2",
            "ticks": 27648,
            "time": 36,
            "velocity": 0.25984251968503935
          },
          {
            "duration": 0,
            "durationTicks": 0,
            "midi": 54,
            "name": "F#3",
            "ticks": 27648,
            "time": 36,
            "velocity": 0.2204724409448819
          },
          {
            "duration": 0.125,
            "durationTicks": 96,
            "midi": 64,
            "name": "E4",
            "ticks": 28032,
            "time": 36.5,
            "velocity": 0.2677165354330709
          },
          {
            "duration": 0.25,
            "durationTicks": 192,
            "midi": 55,
            "name": "G3",
            "ticks": 28032,
            "time": 36.5,
            "velocity": 0.2755905511811024
          },
          {
            "duration": 0.25,
            "durationTicks": 192,
            "midi": 52,
            "name": "E3",
            "ticks": 28032,
            "time": 36.5,
            "velocity": 0.25196850393700787
          },
          {
            "duration": 0,
            "durationTicks": 0,
            "midi": 61,
            "name": "C#4",
            "ticks": 28032,
            "time": 36.5,
            "velocity": 0.28346456692913385
          },
          {
            "duration": 0,
            "durationTicks": 0,
            "midi": 38,
            "name": "D2",
            "ticks": 28032,
            "time": 36.5,
            "velocity": 0.33858267716535434
          },
          {
            "duration": 0.125,
            "durationTicks": 96,
            "midi": 67,
            "name": "G4",
            "ticks": 28032,
            "time": 36.5,
            "velocity": 0.2440944881889764
          },
          {
            "duration": 0,
            "durationTicks": 0,
            "midi": 44,
            "name": "G#2",
            "ticks": 28032,
            "time": 36.5,
            "velocity": 0.2677165354330709
          },
          {
            "duration": 0.125,
            "durationTicks": 96,
            "midi": 62,
            "name": "D4",
            "ticks": 28032,
            "time": 36.5,
            "velocity": 0.1889763779527559
          },
          {
            "duration": 0.375,
            "durationTicks": 288,
            "midi": 31,
            "name": "G1",
            "ticks": 28032,
            "time": 36.5,
            "velocity": 0.31496062992125984
          },
          {
            "duration": 0.125,
            "durationTicks": 96,
            "midi": 64,
            "name": "E4",
            "ticks": 28032,
            "time": 36.5,
            "velocity": 0.2677165354330709
          },
          {
            "duration": 0,
            "durationTicks": 0,
            "midi": 54,
            "name": "F#3",
            "ticks": 28032,
            "time": 36.5,
            "velocity": 0.23622047244094488
          },
          {
            "duration": 0.125,
            "durationTicks": 96,
            "midi": 67,
            "name": "G4",
            "ticks": 28032,
            "time": 36.5,
            "velocity": 0.2440944881889764
          },
          {
            "duration": 0.125,
            "durationTicks": 96,
            "midi": 64,
            "name": "E4",
            "ticks": 28224,
            "time": 36.75,
            "velocity": 0.33070866141732286
          },
          {
            "duration": 0,
            "durationTicks": 0,
            "midi": 44,
            "name": "G#2",
            "ticks": 28416,
            "time": 37,
            "velocity": 0.2677165354330709
          },
          {
            "duration": 0.125,
            "durationTicks": 96,
            "midi": 31,
            "name": "G1",
            "ticks": 28416,
            "time": 37,
            "velocity": 0.2992125984251969
          },
          {
            "duration": 0.25,
            "durationTicks": 192,
            "midi": 62,
            "name": "D4",
            "ticks": 28416,
            "time": 37,
            "velocity": 0.25984251968503935
          },
          {
            "duration": 0,
            "durationTicks": 0,
            "midi": 36,
            "name": "C2",
            "ticks": 28416,
            "time": 37,
            "velocity": 0.33858267716535434
          },
          {
            "duration": 0.25,
            "durationTicks": 192,
            "midi": 55,
            "name": "G3",
            "ticks": 28416,
            "time": 37,
            "velocity": 0.2755905511811024
          },
          {
            "duration": 0,
            "durationTicks": 0,
            "midi": 61,
            "name": "C#4",
            "ticks": 28416,
            "time": 37,
            "velocity": 0.2755905511811024
          },
          {
            "duration": 0.25,
            "durationTicks": 192,
            "midi": 50,
            "name": "D3",
            "ticks": 28416,
            "time": 37,
            "velocity": 0.2755905511811024
          },
          {
            "duration": 0.25,
            "durationTicks": 192,
            "midi": 67,
            "name": "G4",
            "ticks": 28416,
            "time": 37,
            "velocity": 0.28346456692913385
          },
          {
            "duration": 0,
            "durationTicks": 0,
            "midi": 54,
            "name": "F#3",
            "ticks": 28416,
            "time": 37,
            "velocity": 0.2440944881889764
          },
          {
            "duration": 0.125,
            "durationTicks": 96,
            "midi": 64,
            "name": "E4",
            "ticks": 28608,
            "time": 37.25,
            "velocity": 0.25984251968503935
          },
          {
            "duration": 0.125,
            "durationTicks": 96,
            "midi": 67,
            "name": "G4",
            "ticks": 28608,
            "time": 37.25,
            "velocity": 0.25984251968503935
          },
          {
            "duration": 0.375,
            "durationTicks": 288,
            "midi": 31,
            "name": "G1",
            "ticks": 28608,
            "time": 37.25,
            "velocity": 0.2992125984251969
          },
          {
            "duration": 0.125,
            "durationTicks": 96,
            "midi": 64,
            "name": "E4",
            "ticks": 28608,
            "time": 37.25,
            "velocity": 0.25984251968503935
          },
          {
            "duration": 0.125,
            "durationTicks": 96,
            "midi": 64,
            "name": "E4",
            "ticks": 28800,
            "time": 37.5,
            "velocity": 0.33858267716535434
          },
          {
            "duration": 0.125,
            "durationTicks": 96,
            "midi": 52,
            "name": "E3",
            "ticks": 28800,
            "time": 37.5,
            "velocity": 0.25196850393700787
          },
          {
            "duration": 0,
            "durationTicks": 0,
            "midi": 44,
            "name": "G#2",
            "ticks": 28800,
            "time": 37.5,
            "velocity": 0.2755905511811024
          },
          {
            "duration": 0.125,
            "durationTicks": 96,
            "midi": 67,
            "name": "G4",
            "ticks": 28800,
            "time": 37.5,
            "velocity": 0.25984251968503935
          },
          {
            "duration": 0.125,
            "durationTicks": 96,
            "midi": 62,
            "name": "D4",
            "ticks": 28800,
            "time": 37.5,
            "velocity": 0.2047244094488189
          },
          {
            "duration": 0.125,
            "durationTicks": 96,
            "midi": 55,
            "name": "G3",
            "ticks": 28800,
            "time": 37.5,
            "velocity": 0.2677165354330709
          },
          {
            "duration": 0,
            "durationTicks": 0,
            "midi": 54,
            "name": "F#3",
            "ticks": 28800,
            "time": 37.5,
            "velocity": 0.2283464566929134
          },
          {
            "duration": 0,
            "durationTicks": 0,
            "midi": 61,
            "name": "C#4",
            "ticks": 28800,
            "time": 37.5,
            "velocity": 0.2755905511811024
          },
          {
            "duration": 0,
            "durationTicks": 0,
            "midi": 38,
            "name": "D2",
            "ticks": 28800,
            "time": 37.5,
            "velocity": 0.33858267716535434
          },
          {
            "duration": 0.25,
            "durationTicks": 192,
            "midi": 67,
            "name": "G4",
            "ticks": 28992,
            "time": 37.75,
            "velocity": 0.33070866141732286
          },
          {
            "duration": 0.125,
            "durationTicks": 96,
            "midi": 55,
            "name": "G3",
            "ticks": 28992,
            "time": 37.75,
            "velocity": 0.2677165354330709
          },
          {
            "duration": 0.5,
            "durationTicks": 384,
            "midi": 67,
            "name": "G4",
            "ticks": 28992,
            "time": 37.75,
            "velocity": 0.33070866141732286
          },
          {
            "duration": 0.5,
            "durationTicks": 384,
            "midi": 62,
            "name": "D4",
            "ticks": 28992,
            "time": 37.75,
            "velocity": 0.25984251968503935
          },
          {
            "duration": 0.125,
            "durationTicks": 96,
            "midi": 31,
            "name": "G1",
            "ticks": 28992,
            "time": 37.75,
            "velocity": 0.30708661417322836
          },
          {
            "duration": 0,
            "durationTicks": 0,
            "midi": 46,
            "name": "A#2",
            "ticks": 28992,
            "time": 37.75,
            "velocity": 0.2677165354330709
          },
          {
            "duration": 0.125,
            "durationTicks": 96,
            "midi": 50,
            "name": "D3",
            "ticks": 28992,
            "time": 37.75,
            "velocity": 0.2755905511811024
          },
          {
            "duration": 0,
            "durationTicks": 0,
            "midi": 44,
            "name": "G#2",
            "ticks": 29184,
            "time": 38,
            "velocity": 0.25984251968503935
          },
          {
            "duration": 0.375,
            "durationTicks": 288,
            "midi": 31,
            "name": "G1",
            "ticks": 29184,
            "time": 38,
            "velocity": 0.2992125984251969
          },
          {
            "duration": 0,
            "durationTicks": 0,
            "midi": 36,
            "name": "C2",
            "ticks": 29184,
            "time": 38,
            "velocity": 0.33858267716535434
          },
          {
            "duration": 0,
            "durationTicks": 0,
            "midi": 54,
            "name": "F#3",
            "ticks": 29184,
            "time": 38,
            "velocity": 0.2283464566929134
          },
          {
            "duration": 0,
            "durationTicks": 0,
            "midi": 60,
            "name": "C4",
            "ticks": 29184,
            "time": 38,
            "velocity": 0.2755905511811024
          },
          {
            "duration": 0.25,
            "durationTicks": 192,
            "midi": 67,
            "name": "G4",
            "ticks": 29376,
            "time": 38.25,
            "velocity": 0.33858267716535434
          },
          {
            "duration": 0.125,
            "durationTicks": 96,
            "midi": 62,
            "name": "D4",
            "ticks": 29376,
            "time": 38.25,
            "velocity": 0.23622047244094488
          },
          {
            "duration": 0.125,
            "durationTicks": 96,
            "midi": 55,
            "name": "G3",
            "ticks": 29376,
            "time": 38.25,
            "velocity": 0.25984251968503935
          },
          {
            "duration": 0.125,
            "durationTicks": 96,
            "midi": 50,
            "name": "D3",
            "ticks": 29376,
            "time": 38.25,
            "velocity": 0.2755905511811024
          },
          {
            "duration": 0,
            "durationTicks": 0,
            "midi": 61,
            "name": "C#4",
            "ticks": 29568,
            "time": 38.5,
            "velocity": 0.29133858267716534
          },
          {
            "duration": 0,
            "durationTicks": 0,
            "midi": 38,
            "name": "D2",
            "ticks": 29568,
            "time": 38.5,
            "velocity": 0.33858267716535434
          },
          {
            "duration": 0,
            "durationTicks": 0,
            "midi": 54,
            "name": "F#3",
            "ticks": 29568,
            "time": 38.5,
            "velocity": 0.2283464566929134
          },
          {
            "duration": 0,
            "durationTicks": 0,
            "midi": 44,
            "name": "G#2",
            "ticks": 29568,
            "time": 38.5,
            "velocity": 0.2677165354330709
          },
          {
            "duration": 0.125,
            "durationTicks": 96,
            "midi": 55,
            "name": "G3",
            "ticks": 29568,
            "time": 38.5,
            "velocity": 0.2755905511811024
          },
          {
            "duration": 0.125,
            "durationTicks": 96,
            "midi": 67,
            "name": "G4",
            "ticks": 29568,
            "time": 38.5,
            "velocity": 0.2440944881889764
          },
          {
            "duration": 0.125,
            "durationTicks": 96,
            "midi": 52,
            "name": "E3",
            "ticks": 29568,
            "time": 38.5,
            "velocity": 0.25196850393700787
          },
          {
            "duration": 0.125,
            "durationTicks": 96,
            "midi": 62,
            "name": "D4",
            "ticks": 29568,
            "time": 38.5,
            "velocity": 0.1889763779527559
          },
          {
            "duration": 0.125,
            "durationTicks": 96,
            "midi": 67,
            "name": "G4",
            "ticks": 29568,
            "time": 38.5,
            "velocity": 0.2440944881889764
          },
          {
            "duration": 0.125,
            "durationTicks": 96,
            "midi": 64,
            "name": "E4",
            "ticks": 29568,
            "time": 38.5,
            "velocity": 0.2677165354330709
          },
          {
            "duration": 0.375,
            "durationTicks": 288,
            "midi": 31,
            "name": "G1",
            "ticks": 29568,
            "time": 38.5,
            "velocity": 0.2992125984251969
          },
          {
            "duration": 0.125,
            "durationTicks": 96,
            "midi": 64,
            "name": "E4",
            "ticks": 29760,
            "time": 38.75,
            "velocity": 0.33858267716535434
          },
          {
            "duration": 0.125,
            "durationTicks": 96,
            "midi": 31,
            "name": "G1",
            "ticks": 29952,
            "time": 39,
            "velocity": 0.31496062992125984
          },
          {
            "duration": 0.25,
            "durationTicks": 192,
            "midi": 67,
            "name": "G4",
            "ticks": 29952,
            "time": 39,
            "velocity": 0.33858267716535434
          },
          {
            "duration": 0.25,
            "durationTicks": 192,
            "midi": 62,
            "name": "D4",
            "ticks": 29952,
            "time": 39,
            "velocity": 0.25984251968503935
          },
          {
            "duration": 0.25,
            "durationTicks": 192,
            "midi": 55,
            "name": "G3",
            "ticks": 29952,
            "time": 39,
            "velocity": 0.25196850393700787
          },
          {
            "duration": 0.25,
            "durationTicks": 192,
            "midi": 50,
            "name": "D3",
            "ticks": 29952,
            "time": 39,
            "velocity": 0.25984251968503935
          },
          {
            "duration": 0,
            "durationTicks": 0,
            "midi": 44,
            "name": "G#2",
            "ticks": 29952,
            "time": 39,
            "velocity": 0.2677165354330709
          },
          {
            "duration": 0,
            "durationTicks": 0,
            "midi": 61,
            "name": "C#4",
            "ticks": 29952,
            "time": 39,
            "velocity": 0.29133858267716534
          },
          {
            "duration": 0,
            "durationTicks": 0,
            "midi": 54,
            "name": "F#3",
            "ticks": 29952,
            "time": 39,
            "velocity": 0.2283464566929134
          },
          {
            "duration": 0,
            "durationTicks": 0,
            "midi": 36,
            "name": "C2",
            "ticks": 29952,
            "time": 39,
            "velocity": 0.33858267716535434
          },
          {
            "duration": 0.25,
            "durationTicks": 192,
            "midi": 67,
            "name": "G4",
            "ticks": 29952,
            "time": 39,
            "velocity": 0.33858267716535434
          },
          {
            "duration": 0.25,
            "durationTicks": 192,
            "midi": 64,
            "name": "E4",
            "ticks": 30144,
            "time": 39.25,
            "velocity": 0.33858267716535434
          },
          {
            "duration": 0.25,
            "durationTicks": 192,
            "midi": 36,
            "name": "C2",
            "ticks": 30144,
            "time": 39.25,
            "velocity": 0.2992125984251969
          },
          {
            "duration": 0.25,
            "durationTicks": 192,
            "midi": 64,
            "name": "E4",
            "ticks": 30144,
            "time": 39.25,
            "velocity": 0.33858267716535434
          },
          {
            "duration": 0.25,
            "durationTicks": 192,
            "midi": 55,
            "name": "G3",
            "ticks": 30336,
            "time": 39.5,
            "velocity": 0.2677165354330709
          },
          {
            "duration": 0.125,
            "durationTicks": 96,
            "midi": 62,
            "name": "D4",
            "ticks": 30336,
            "time": 39.5,
            "velocity": 0.18110236220472442
          },
          {
            "duration": 0.125,
            "durationTicks": 96,
            "midi": 67,
            "name": "G4",
            "ticks": 30336,
            "time": 39.5,
            "velocity": 0.2440944881889764
          },
          {
            "duration": 0,
            "durationTicks": 0,
            "midi": 54,
            "name": "F#3",
            "ticks": 30336,
            "time": 39.5,
            "velocity": 0.2283464566929134
          },
          {
            "duration": 0,
            "durationTicks": 0,
            "midi": 38,
            "name": "D2",
            "ticks": 30336,
            "time": 39.5,
            "velocity": 0.30708661417322836
          },
          {
            "duration": 0,
            "durationTicks": 0,
            "midi": 61,
            "name": "C#4",
            "ticks": 30336,
            "time": 39.5,
            "velocity": 0.2755905511811024
          },
          {
            "duration": 0.25,
            "durationTicks": 192,
            "midi": 52,
            "name": "E3",
            "ticks": 30336,
            "time": 39.5,
            "velocity": 0.25196850393700787
          },
          {
            "duration": 0.25,
            "durationTicks": 192,
            "midi": 38,
            "name": "D2",
            "ticks": 30336,
            "time": 39.5,
            "velocity": 0.30708661417322836
          },
          {
            "duration": 0,
            "durationTicks": 0,
            "midi": 44,
            "name": "G#2",
            "ticks": 30336,
            "time": 39.5,
            "velocity": 0.2677165354330709
          },
          {
            "duration": 0.125,
            "durationTicks": 96,
            "midi": 43,
            "name": "G2",
            "ticks": 30528,
            "time": 39.75,
            "velocity": 0.31496062992125984
          },
          {
            "duration": 0,
            "durationTicks": 0,
            "midi": 46,
            "name": "A#2",
            "ticks": 30528,
            "time": 39.75,
            "velocity": 0.2677165354330709
          },
          {
            "duration": 0.125,
            "durationTicks": 96,
            "midi": 62,
            "name": "D4",
            "ticks": 30720,
            "time": 40,
            "velocity": 0.3464566929133858
          },
          {
            "duration": 0,
            "durationTicks": 0,
            "midi": 54,
            "name": "F#3",
            "ticks": 30720,
            "time": 40,
            "velocity": 0.2204724409448819
          },
          {
            "duration": 0,
            "durationTicks": 0,
            "midi": 61,
            "name": "C#4",
            "ticks": 30720,
            "time": 40,
            "velocity": 0.2755905511811024
          },
          {
            "duration": 0,
            "durationTicks": 0,
            "midi": 36,
            "name": "C2",
            "ticks": 30720,
            "time": 40,
            "velocity": 0.33858267716535434
          },
          {
            "duration": 0,
            "durationTicks": 0,
            "midi": 44,
            "name": "G#2",
            "ticks": 30720,
            "time": 40,
            "velocity": 0.2677165354330709
          },
          {
            "duration": 0.5,
            "durationTicks": 384,
            "midi": 65,
            "name": "F4",
            "ticks": 30720,
            "time": 40,
            "velocity": 0.2440944881889764
          },
          {
            "duration": 0.375,
            "durationTicks": 288,
            "midi": 41,
            "name": "F2",
            "ticks": 30720,
            "time": 40,
            "velocity": 0.2992125984251969
          },
          {
            "duration": 0.25,
            "durationTicks": 192,
            "midi": 53,
            "name": "F3",
            "ticks": 30720,
            "time": 40,
            "velocity": 0.2677165354330709
          },
          {
            "duration": 0.25,
            "durationTicks": 192,
            "midi": 48,
            "name": "C3",
            "ticks": 30720,
            "time": 40,
            "velocity": 0.25196850393700787
          },
          {
            "duration": 0.125,
            "durationTicks": 96,
            "midi": 60,
            "name": "C4",
            "ticks": 30816,
            "time": 40.125,
            "velocity": 0.3464566929133858
          },
          {
            "duration": 0.375,
            "durationTicks": 288,
            "midi": 60,
            "name": "C4",
            "ticks": 30816,
            "time": 40.125,
            "velocity": 0.3464566929133858
          },
          {
            "duration": 0.125,
            "durationTicks": 96,
            "midi": 57,
            "name": "A3",
            "ticks": 30912,
            "time": 40.25,
            "velocity": 0.33070866141732286
          },
          {
            "duration": 0,
            "durationTicks": 0,
            "midi": 44,
            "name": "G#2",
            "ticks": 31104,
            "time": 40.5,
            "velocity": 0.2677165354330709
          },
          {
            "duration": 0.125,
            "durationTicks": 96,
            "midi": 60,
            "name": "C4",
            "ticks": 31104,
            "time": 40.5,
            "velocity": 0.33070866141732286
          },
          {
            "duration": 0.125,
            "durationTicks": 96,
            "midi": 65,
            "name": "F4",
            "ticks": 31104,
            "time": 40.5,
            "velocity": 0.2204724409448819
          },
          {
            "duration": 0.125,
            "durationTicks": 96,
            "midi": 60,
            "name": "C4",
            "ticks": 31104,
            "time": 40.5,
            "velocity": 0.33070866141732286
          },
          {
            "duration": 0.125,
            "durationTicks": 96,
            "midi": 62,
            "name": "D4",
            "ticks": 31104,
            "time": 40.5,
            "velocity": 0.28346456692913385
          },
          {
            "duration": 0,
            "durationTicks": 0,
            "midi": 38,
            "name": "D2",
            "ticks": 31104,
            "time": 40.5,
            "velocity": 0.33858267716535434
          },
          {
            "duration": 0.375,
            "durationTicks": 288,
            "midi": 41,
            "name": "F2",
            "ticks": 31104,
            "time": 40.5,
            "velocity": 0.2992125984251969
          },
          {
            "duration": 0,
            "durationTicks": 0,
            "midi": 54,
            "name": "F#3",
            "ticks": 31104,
            "time": 40.5,
            "velocity": 0.2204724409448819
          },
          {
            "duration": 0.375,
            "durationTicks": 288,
            "midi": 50,
            "name": "D3",
            "ticks": 31104,
            "time": 40.5,
            "velocity": 0.25984251968503935
          },
          {
            "duration": 0,
            "durationTicks": 0,
            "midi": 61,
            "name": "C#4",
            "ticks": 31104,
            "time": 40.5,
            "velocity": 0.29133858267716534
          },
          {
            "duration": 0.375,
            "durationTicks": 288,
            "midi": 53,
            "name": "F3",
            "ticks": 31104,
            "time": 40.5,
            "velocity": 0.25196850393700787
          },
          {
            "duration": 0,
            "durationTicks": 0,
            "midi": 44,
            "name": "G#2",
            "ticks": 31488,
            "time": 41,
            "velocity": 0.2677165354330709
          },
          {
            "duration": 0.125,
            "durationTicks": 96,
            "midi": 41,
            "name": "F2",
            "ticks": 31488,
            "time": 41,
            "velocity": 0.31496062992125984
          },
          {
            "duration": 0.25,
            "durationTicks": 192,
            "midi": 60,
            "name": "C4",
            "ticks": 31488,
            "time": 41,
            "velocity": 0.2440944881889764
          },
          {
            "duration": 0.375,
            "durationTicks": 288,
            "midi": 53,
            "name": "F3",
            "ticks": 31488,
            "time": 41,
            "velocity": 0.2755905511811024
          },
          {
            "duration": 0,
            "durationTicks": 0,
            "midi": 36,
            "name": "C2",
            "ticks": 31488,
            "time": 41,
            "velocity": 0.33858267716535434
          },
          {
            "duration": 0.25,
            "durationTicks": 192,
            "midi": 65,
            "name": "F4",
            "ticks": 31488,
            "time": 41,
            "velocity": 0.25984251968503935
          },
          {
            "duration": 0,
            "durationTicks": 0,
            "midi": 54,
            "name": "F#3",
            "ticks": 31488,
            "time": 41,
            "velocity": 0.23622047244094488
          },
          {
            "duration": 0.375,
            "durationTicks": 288,
            "midi": 48,
            "name": "C3",
            "ticks": 31488,
            "time": 41,
            "velocity": 0.25984251968503935
          },
          {
            "duration": 0,
            "durationTicks": 0,
            "midi": 61,
            "name": "C#4",
            "ticks": 31488,
            "time": 41,
            "velocity": 0.2755905511811024
          },
          {
            "duration": 0.375,
            "durationTicks": 288,
            "midi": 41,
            "name": "F2",
            "ticks": 31680,
            "time": 41.25,
            "velocity": 0.30708661417322836
          },
          {
            "duration": 0.125,
            "durationTicks": 96,
            "midi": 65,
            "name": "F4",
            "ticks": 31680,
            "time": 41.25,
            "velocity": 0.2204724409448819
          },
          {
            "duration": 0.125,
            "durationTicks": 96,
            "midi": 62,
            "name": "D4",
            "ticks": 31680,
            "time": 41.25,
            "velocity": 0.2677165354330709
          },
          {
            "duration": 0.125,
            "durationTicks": 96,
            "midi": 60,
            "name": "C4",
            "ticks": 31680,
            "time": 41.25,
            "velocity": 0.1889763779527559
          },
          {
            "duration": 0.125,
            "durationTicks": 96,
            "midi": 60,
            "name": "C4",
            "ticks": 31680,
            "time": 41.25,
            "velocity": 0.1889763779527559
          },
          {
            "duration": 0.125,
            "durationTicks": 96,
            "midi": 65,
            "name": "F4",
            "ticks": 31680,
            "time": 41.25,
            "velocity": 0.2204724409448819
          },
          {
            "duration": 0,
            "durationTicks": 0,
            "midi": 44,
            "name": "G#2",
            "ticks": 31872,
            "time": 41.5,
            "velocity": 0.25984251968503935
          },
          {
            "duration": 0,
            "durationTicks": 0,
            "midi": 38,
            "name": "D2",
            "ticks": 31872,
            "time": 41.5,
            "velocity": 0.33858267716535434
          },
          {
            "duration": 0.125,
            "durationTicks": 96,
            "midi": 50,
            "name": "D3",
            "ticks": 31872,
            "time": 41.5,
            "velocity": 0.25196850393700787
          },
          {
            "duration": 0,
            "durationTicks": 0,
            "midi": 54,
            "name": "F#3",
            "ticks": 31872,
            "time": 41.5,
            "velocity": 0.2283464566929134
          },
          {
            "duration": 0.125,
            "durationTicks": 96,
            "midi": 53,
            "name": "F3",
            "ticks": 31872,
            "time": 41.5,
            "velocity": 0.2755905511811024
          },
          {
            "duration": 0,
            "durationTicks": 0,
            "midi": 61,
            "name": "C#4",
            "ticks": 31872,
            "time": 41.5,
            "velocity": 0.28346456692913385
          },
          {
            "duration": 0.125,
            "durationTicks": 96,
            "midi": 48,
            "name": "C3",
            "ticks": 32064,
            "time": 41.75,
            "velocity": 0.25984251968503935
          },
          {
            "duration": 0.5,
            "durationTicks": 384,
            "midi": 60,
            "name": "C4",
            "ticks": 32064,
            "time": 41.75,
            "velocity": 0.2677165354330709
          },
          {
            "duration": 0.125,
            "durationTicks": 96,
            "midi": 53,
            "name": "F3",
            "ticks": 32064,
            "time": 41.75,
            "velocity": 0.2755905511811024
          },
          {
            "duration": 0,
            "durationTicks": 0,
            "midi": 46,
            "name": "A#2",
            "ticks": 32064,
            "time": 41.75,
            "velocity": 0.2755905511811024
          },
          {
            "duration": 0.125,
            "durationTicks": 96,
            "midi": 41,
            "name": "F2",
            "ticks": 32064,
            "time": 41.75,
            "velocity": 0.2992125984251969
          },
          {
            "duration": 0,
            "durationTicks": 0,
            "midi": 61,
            "name": "C#4",
            "ticks": 32256,
            "time": 42,
            "velocity": 0.2755905511811024
          },
          {
            "duration": 0,
            "durationTicks": 0,
            "midi": 36,
            "name": "C2",
            "ticks": 32256,
            "time": 42,
            "velocity": 0.33858267716535434
          },
          {
            "duration": 0,
            "durationTicks": 0,
            "midi": 44,
            "name": "G#2",
            "ticks": 32256,
            "time": 42,
            "velocity": 0.25984251968503935
          },
          {
            "duration": 0.125,
            "durationTicks": 96,
            "midi": 41,
            "name": "F2",
            "ticks": 32256,
            "time": 42,
            "velocity": 0.2992125984251969
          },
          {
            "duration": 0,
            "durationTicks": 0,
            "midi": 54,
            "name": "F#3",
            "ticks": 32256,
            "time": 42,
            "velocity": 0.2204724409448819
          },
          {
            "duration": 0.25,
            "durationTicks": 192,
            "midi": 41,
            "name": "F2",
            "ticks": 32448,
            "time": 42.25,
            "velocity": 0.2992125984251969
          },
          {
            "duration": 0.125,
            "durationTicks": 96,
            "midi": 60,
            "name": "C4",
            "ticks": 32448,
            "time": 42.25,
            "velocity": 0.28346456692913385
          },
          {
            "duration": 0.125,
            "durationTicks": 96,
            "midi": 53,
            "name": "F3",
            "ticks": 32448,
            "time": 42.25,
            "velocity": 0.25984251968503935
          },
          {
            "duration": 0.125,
            "durationTicks": 96,
            "midi": 48,
            "name": "C3",
            "ticks": 32448,
            "time": 42.25,
            "velocity": 0.2755905511811024
          },
          {
            "duration": 0.125,
            "durationTicks": 96,
            "midi": 60,
            "name": "C4",
            "ticks": 32640,
            "time": 42.5,
            "velocity": 0.2204724409448819
          },
          {
            "duration": 0.125,
            "durationTicks": 96,
            "midi": 62,
            "name": "D4",
            "ticks": 32640,
            "time": 42.5,
            "velocity": 0.2677165354330709
          },
          {
            "duration": 0.125,
            "durationTicks": 96,
            "midi": 50,
            "name": "D3",
            "ticks": 32640,
            "time": 42.5,
            "velocity": 0.2677165354330709
          },
          {
            "duration": 0,
            "durationTicks": 0,
            "midi": 54,
            "name": "F#3",
            "ticks": 32640,
            "time": 42.5,
            "velocity": 0.2440944881889764
          },
          {
            "duration": 0.125,
            "durationTicks": 96,
            "midi": 40,
            "name": "E2",
            "ticks": 32640,
            "time": 42.5,
            "velocity": 0.2992125984251969
          },
          {
            "duration": 0,
            "durationTicks": 0,
            "midi": 61,
            "name": "C#4",
            "ticks": 32640,
            "time": 42.5,
            "velocity": 0.29133858267716534
          },
          {
            "duration": 0,
            "durationTicks": 0,
            "midi": 38,
            "name": "D2",
            "ticks": 32640,
            "time": 42.5,
            "velocity": 0.33858267716535434
          },
          {
            "duration": 0.125,
            "durationTicks": 96,
            "midi": 53,
            "name": "F3",
            "ticks": 32640,
            "time": 42.5,
            "velocity": 0.25984251968503935
          },
          {
            "duration": 0,
            "durationTicks": 0,
            "midi": 44,
            "name": "G#2",
            "ticks": 32640,
            "time": 42.5,
            "velocity": 0.2677165354330709
          },
          {
            "duration": 0.125,
            "durationTicks": 96,
            "midi": 65,
            "name": "F4",
            "ticks": 32640,
            "time": 42.5,
            "velocity": 0.2283464566929134
          },
          {
            "duration": 0.125,
            "durationTicks": 96,
            "midi": 60,
            "name": "C4",
            "ticks": 32784,
            "time": 42.6875,
            "velocity": 0.2440944881889764
          },
          {
            "duration": 0.125,
            "durationTicks": 96,
            "midi": 57,
            "name": "A3",
            "ticks": 32832,
            "time": 42.75,
            "velocity": 0.25196850393700787
          },
          {
            "duration": 0.25,
            "durationTicks": 192,
            "midi": 40,
            "name": "E2",
            "ticks": 32832,
            "time": 42.75,
            "velocity": 0.2992125984251969
          },
          {
            "duration": 0,
            "durationTicks": 0,
            "midi": 44,
            "name": "G#2",
            "ticks": 33024,
            "time": 43,
            "velocity": 0.2677165354330709
          },
          {
            "duration": 0.125,
            "durationTicks": 96,
            "midi": 38,
            "name": "D2",
            "ticks": 33024,
            "time": 43,
            "velocity": 0.2992125984251969
          },
          {
            "duration": 0.25,
            "durationTicks": 192,
            "midi": 53,
            "name": "F3",
            "ticks": 33024,
            "time": 43,
            "velocity": 0.2677165354330709
          },
          {
            "duration": 0.25,
            "durationTicks": 192,
            "midi": 48,
            "name": "C3",
            "ticks": 33024,
            "time": 43,
            "velocity": 0.25984251968503935
          },
          {
            "duration": 0.25,
            "durationTicks": 192,
            "midi": 60,
            "name": "C4",
            "ticks": 33024,
            "time": 43,
            "velocity": 0.25984251968503935
          },
          {
            "duration": 0,
            "durationTicks": 0,
            "midi": 36,
            "name": "C2",
            "ticks": 33024,
            "time": 43,
            "velocity": 0.33858267716535434
          },
          {
            "duration": 0,
            "durationTicks": 0,
            "midi": 54,
            "name": "F#3",
            "ticks": 33024,
            "time": 43,
            "velocity": 0.2440944881889764
          },
          {
            "duration": 0,
            "durationTicks": 0,
            "midi": 61,
            "name": "C#4",
            "ticks": 33024,
            "time": 43,
            "velocity": 0.2755905511811024
          },
          {
            "duration": 0.125,
            "durationTicks": 96,
            "midi": 65,
            "name": "F4",
            "ticks": 33216,
            "time": 43.25,
            "velocity": 0.2283464566929134
          },
          {
            "duration": 0.25,
            "durationTicks": 192,
            "midi": 38,
            "name": "D2",
            "ticks": 33216,
            "time": 43.25,
            "velocity": 0.31496062992125984
          },
          {
            "duration": 0.125,
            "durationTicks": 96,
            "midi": 60,
            "name": "C4",
            "ticks": 33216,
            "time": 43.25,
            "velocity": 0.1889763779527559
          },
          {
            "duration": 0.125,
            "durationTicks": 96,
            "midi": 62,
            "name": "D4",
            "ticks": 33216,
            "time": 43.25,
            "velocity": 0.2440944881889764
          },
          {
            "duration": 0,
            "durationTicks": 0,
            "midi": 44,
            "name": "G#2",
            "ticks": 33408,
            "time": 43.5,
            "velocity": 0.2677165354330709
          },
          {
            "duration": 0.125,
            "durationTicks": 96,
            "midi": 36,
            "name": "C2",
            "ticks": 33408,
            "time": 43.5,
            "velocity": 0.31496062992125984
          },
          {
            "duration": 0,
            "durationTicks": 0,
            "midi": 61,
            "name": "C#4",
            "ticks": 33408,
            "time": 43.5,
            "velocity": 0.28346456692913385
          },
          {
            "duration": 0.25,
            "durationTicks": 192,
            "midi": 53,
            "name": "F3",
            "ticks": 33408,
            "time": 43.5,
            "velocity": 0.2677165354330709
          },
          {
            "duration": 0.25,
            "durationTicks": 192,
            "midi": 50,
            "name": "D3",
            "ticks": 33408,
            "time": 43.5,
            "velocity": 0.2677165354330709
          },
          {
            "duration": 0,
            "durationTicks": 0,
            "midi": 38,
            "name": "D2",
            "ticks": 33408,
            "time": 43.5,
            "velocity": 0.33858267716535434
          },
          {
            "duration": 0,
            "durationTicks": 0,
            "midi": 54,
            "name": "F#3",
            "ticks": 33408,
            "time": 43.5,
            "velocity": 0.2440944881889764
          },
          {
            "duration": 0,
            "durationTicks": 0,
            "midi": 46,
            "name": "A#2",
            "ticks": 33600,
            "time": 43.75,
            "velocity": 0.2677165354330709
          },
          {
            "duration": 0.125,
            "durationTicks": 96,
            "midi": 36,
            "name": "C2",
            "ticks": 33600,
            "time": 43.75,
            "velocity": 0.31496062992125984
          },
          {
            "duration": 0,
            "durationTicks": 0,
            "midi": 44,
            "name": "G#2",
            "ticks": 33792,
            "time": 44,
            "velocity": 0.2677165354330709
          },
          {
            "duration": 0.375,
            "durationTicks": 288,
            "midi": 55,
            "name": "G3",
            "ticks": 33792,
            "time": 44,
            "velocity": 0.25196850393700787
          },
          {
            "duration": 2.75,
            "durationTicks": 2112,
            "midi": 79,
            "name": "G5",
            "ticks": 33792,
            "time": 44,
            "velocity": 0.2125984251968504
          },
          {
            "duration": 0.375,
            "durationTicks": 288,
            "midi": 31,
            "name": "G1",
            "ticks": 33792,
            "time": 44,
            "velocity": 0.31496062992125984
          },
          {
            "duration": 0,
            "durationTicks": 0,
            "midi": 54,
            "name": "F#3",
            "ticks": 33792,
            "time": 44,
            "velocity": 0.2440944881889764
          },
          {
            "duration": 0,
            "durationTicks": 0,
            "midi": 36,
            "name": "C2",
            "ticks": 33792,
            "time": 44,
            "velocity": 0.33070866141732286
          },
          {
            "duration": 0.375,
            "durationTicks": 288,
            "midi": 67,
            "name": "G4",
            "ticks": 33792,
            "time": 44,
            "velocity": 0.23622047244094488
          },
          {
            "duration": 2.75,
            "durationTicks": 2112,
            "midi": 79,
            "name": "G5",
            "ticks": 33792,
            "time": 44,
            "velocity": 0.2125984251968504
          },
          {
            "duration": 0.375,
            "durationTicks": 288,
            "midi": 50,
            "name": "D3",
            "ticks": 33792,
            "time": 44,
            "velocity": 0.2755905511811024
          },
          {
            "duration": 0.375,
            "durationTicks": 288,
            "midi": 62,
            "name": "D4",
            "ticks": 33792,
            "time": 44,
            "velocity": 0.2677165354330709
          },
          {
            "duration": 0,
            "durationTicks": 0,
            "midi": 60,
            "name": "C4",
            "ticks": 33792,
            "time": 44,
            "velocity": 0.28346456692913385
          },
          {
            "duration": 0.25,
            "durationTicks": 192,
            "midi": 64,
            "name": "E4",
            "ticks": 33984,
            "time": 44.25,
            "velocity": 0.3543307086614173
          },
          {
            "duration": 0.125,
            "durationTicks": 96,
            "midi": 64,
            "name": "E4",
            "ticks": 34176,
            "time": 44.5,
            "velocity": 0.2755905511811024
          },
          {
            "duration": 0.125,
            "durationTicks": 96,
            "midi": 67,
            "name": "G4",
            "ticks": 34176,
            "time": 44.5,
            "velocity": 0.25984251968503935
          },
          {
            "duration": 0,
            "durationTicks": 0,
            "midi": 61,
            "name": "C#4",
            "ticks": 34176,
            "time": 44.5,
            "velocity": 0.28346456692913385
          },
          {
            "duration": 0,
            "durationTicks": 0,
            "midi": 54,
            "name": "F#3",
            "ticks": 34176,
            "time": 44.5,
            "velocity": 0.2283464566929134
          },
          {
            "duration": 0.375,
            "durationTicks": 288,
            "midi": 52,
            "name": "E3",
            "ticks": 34176,
            "time": 44.5,
            "velocity": 0.25196850393700787
          },
          {
            "duration": 0.375,
            "durationTicks": 288,
            "midi": 31,
            "name": "G1",
            "ticks": 34176,
            "time": 44.5,
            "velocity": 0.31496062992125984
          },
          {
            "duration": 0,
            "durationTicks": 0,
            "midi": 38,
            "name": "D2",
            "ticks": 34176,
            "time": 44.5,
            "velocity": 0.33858267716535434
          },
          {
            "duration": 0,
            "durationTicks": 0,
            "midi": 44,
            "name": "G#2",
            "ticks": 34176,
            "time": 44.5,
            "velocity": 0.2755905511811024
          },
          {
            "duration": 0.125,
            "durationTicks": 96,
            "midi": 62,
            "name": "D4",
            "ticks": 34176,
            "time": 44.5,
            "velocity": 0.1889763779527559
          },
          {
            "duration": 0.375,
            "durationTicks": 288,
            "midi": 55,
            "name": "G3",
            "ticks": 34176,
            "time": 44.5,
            "velocity": 0.25984251968503935
          },
          {
            "duration": 0.125,
            "durationTicks": 96,
            "midi": 67,
            "name": "G4",
            "ticks": 34176,
            "time": 44.5,
            "velocity": 0.25984251968503935
          },
          {
            "duration": 0.125,
            "durationTicks": 96,
            "midi": 64,
            "name": "E4",
            "ticks": 34368,
            "time": 44.75,
            "velocity": 0.33070866141732286
          },
          {
            "duration": 0,
            "durationTicks": 0,
            "midi": 61,
            "name": "C#4",
            "ticks": 34560,
            "time": 45,
            "velocity": 0.28346456692913385
          },
          {
            "duration": 0.375,
            "durationTicks": 288,
            "midi": 55,
            "name": "G3",
            "ticks": 34560,
            "time": 45,
            "velocity": 0.25984251968503935
          },
          {
            "duration": 0,
            "durationTicks": 0,
            "midi": 44,
            "name": "G#2",
            "ticks": 34560,
            "time": 45,
            "velocity": 0.25984251968503935
          },
          {
            "duration": 0.125,
            "durationTicks": 96,
            "midi": 31,
            "name": "G1",
            "ticks": 34560,
            "time": 45,
            "velocity": 0.31496062992125984
          },
          {
            "duration": 0.125,
            "durationTicks": 96,
            "midi": 64,
            "name": "E4",
            "ticks": 34560,
            "time": 45,
            "velocity": 0.3464566929133858
          },
          {
            "duration": 0.25,
            "durationTicks": 192,
            "midi": 67,
            "name": "G4",
            "ticks": 34560,
            "time": 45,
            "velocity": 0.2755905511811024
          },
          {
            "duration": 0,
            "durationTicks": 0,
            "midi": 54,
            "name": "F#3",
            "ticks": 34560,
            "time": 45,
            "velocity": 0.2204724409448819
          },
          {
            "duration": 0.25,
            "durationTicks": 192,
            "midi": 62,
            "name": "D4",
            "ticks": 34560,
            "time": 45,
            "velocity": 0.25984251968503935
          },
          {
            "duration": 0,
            "durationTicks": 0,
            "midi": 36,
            "name": "C2",
            "ticks": 34560,
            "time": 45,
            "velocity": 0.33858267716535434
          },
          {
            "duration": 0.375,
            "durationTicks": 288,
            "midi": 50,
            "name": "D3",
            "ticks": 34560,
            "time": 45,
            "velocity": 0.25196850393700787
          },
          {
            "duration": 0.375,
            "durationTicks": 288,
            "midi": 31,
            "name": "G1",
            "ticks": 34752,
            "time": 45.25,
            "velocity": 0.2992125984251969
          },
          {
            "duration": 0.125,
            "durationTicks": 96,
            "midi": 67,
            "name": "G4",
            "ticks": 34752,
            "time": 45.25,
            "velocity": 0.23622047244094488
          },
          {
            "duration": 0.125,
            "durationTicks": 96,
            "midi": 64,
            "name": "E4",
            "ticks": 34752,
            "time": 45.25,
            "velocity": 0.33858267716535434
          },
          {
            "duration": 0.25,
            "durationTicks": 192,
            "midi": 64,
            "name": "E4",
            "ticks": 34752,
            "time": 45.25,
            "velocity": 0.33858267716535434
          },
          {
            "duration": 0.125,
            "durationTicks": 96,
            "midi": 67,
            "name": "G4",
            "ticks": 34944,
            "time": 45.5,
            "velocity": 0.2283464566929134
          },
          {
            "duration": 0.125,
            "durationTicks": 96,
            "midi": 62,
            "name": "D4",
            "ticks": 34944,
            "time": 45.5,
            "velocity": 0.18110236220472442
          },
          {
            "duration": 0.125,
            "durationTicks": 96,
            "midi": 52,
            "name": "E3",
            "ticks": 34944,
            "time": 45.5,
            "velocity": 0.2677165354330709
          },
          {
            "duration": 0.125,
            "durationTicks": 96,
            "midi": 55,
            "name": "G3",
            "ticks": 34944,
            "time": 45.5,
            "velocity": 0.2755905511811024
          },
          {
            "duration": 0,
            "durationTicks": 0,
            "midi": 54,
            "name": "F#3",
            "ticks": 34944,
            "time": 45.5,
            "velocity": 0.23622047244094488
          },
          {
            "duration": 0,
            "durationTicks": 0,
            "midi": 44,
            "name": "G#2",
            "ticks": 34944,
            "time": 45.5,
            "velocity": 0.25984251968503935
          },
          {
            "duration": 0,
            "durationTicks": 0,
            "midi": 61,
            "name": "C#4",
            "ticks": 34944,
            "time": 45.5,
            "velocity": 0.28346456692913385
          },
          {
            "duration": 0,
            "durationTicks": 0,
            "midi": 38,
            "name": "D2",
            "ticks": 34944,
            "time": 45.5,
            "velocity": 0.33858267716535434
          },
          {
            "duration": 0,
            "durationTicks": 0,
            "midi": 46,
            "name": "A#2",
            "ticks": 35136,
            "time": 45.75,
            "velocity": 0.2677165354330709
          },
          {
            "duration": 0.125,
            "durationTicks": 96,
            "midi": 31,
            "name": "G1",
            "ticks": 35136,
            "time": 45.75,
            "velocity": 0.30708661417322836
          },
          {
            "duration": 0.375,
            "durationTicks": 288,
            "midi": 62,
            "name": "D4",
            "ticks": 35136,
            "time": 45.75,
            "velocity": 0.2755905511811024
          },
          {
            "duration": 0.25,
            "durationTicks": 192,
            "midi": 55,
            "name": "G3",
            "ticks": 35136,
            "time": 45.75,
            "velocity": 0.2755905511811024
          },
          {
            "duration": 0.375,
            "durationTicks": 288,
            "midi": 67,
            "name": "G4",
            "ticks": 35136,
            "time": 45.75,
            "velocity": 0.3543307086614173
          },
          {
            "duration": 0.25,
            "durationTicks": 192,
            "midi": 50,
            "name": "D3",
            "ticks": 35136,
            "time": 45.75,
            "velocity": 0.2755905511811024
          },
          {
            "duration": 0,
            "durationTicks": 0,
            "midi": 44,
            "name": "G#2",
            "ticks": 35328,
            "time": 46,
            "velocity": 0.2755905511811024
          },
          {
            "duration": 0,
            "durationTicks": 0,
            "midi": 54,
            "name": "F#3",
            "ticks": 35328,
            "time": 46,
            "velocity": 0.23622047244094488
          },
          {
            "duration": 0.375,
            "durationTicks": 288,
            "midi": 31,
            "name": "G1",
            "ticks": 35328,
            "time": 46,
            "velocity": 0.31496062992125984
          },
          {
            "duration": 0,
            "durationTicks": 0,
            "midi": 36,
            "name": "C2",
            "ticks": 35328,
            "time": 46,
            "velocity": 0.33070866141732286
          },
          {
            "duration": 0,
            "durationTicks": 0,
            "midi": 61,
            "name": "C#4",
            "ticks": 35328,
            "time": 46,
            "velocity": 0.2755905511811024
          },
          {
            "duration": 0.125,
            "durationTicks": 96,
            "midi": 67,
            "name": "G4",
            "ticks": 35520,
            "time": 46.25,
            "velocity": 0.28346456692913385
          },
          {
            "duration": 0.125,
            "durationTicks": 96,
            "midi": 50,
            "name": "D3",
            "ticks": 35520,
            "time": 46.25,
            "velocity": 0.2677165354330709
          },
          {
            "duration": 0.125,
            "durationTicks": 96,
            "midi": 55,
            "name": "G3",
            "ticks": 35520,
            "time": 46.25,
            "velocity": 0.25196850393700787
          },
          {
            "duration": 0.125,
            "durationTicks": 96,
            "midi": 67,
            "name": "G4",
            "ticks": 35712,
            "time": 46.5,
            "velocity": 0.2283464566929134
          },
          {
            "duration": 0,
            "durationTicks": 0,
            "midi": 54,
            "name": "F#3",
            "ticks": 35712,
            "time": 46.5,
            "velocity": 0.23622047244094488
          },
          {
            "duration": 0.25,
            "durationTicks": 192,
            "midi": 67,
            "name": "G4",
            "ticks": 35712,
            "time": 46.5,
            "velocity": 0.2283464566929134
          },
          {
            "duration": 0.375,
            "durationTicks": 288,
            "midi": 31,
            "name": "G1",
            "ticks": 35712,
            "time": 46.5,
            "velocity": 0.2992125984251969
          },
          {
            "duration": 0.25,
            "durationTicks": 192,
            "midi": 52,
            "name": "E3",
            "ticks": 35712,
            "time": 46.5,
            "velocity": 0.25984251968503935
          },
          {
            "duration": 0.25,
            "durationTicks": 192,
            "midi": 64,
            "name": "E4",
            "ticks": 35712,
            "time": 46.5,
            "velocity": 0.25984251968503935
          },
          {
            "duration": 0.25,
            "durationTicks": 192,
            "midi": 55,
            "name": "G3",
            "ticks": 35712,
            "time": 46.5,
            "velocity": 0.25984251968503935
          },
          {
            "duration": 0,
            "durationTicks": 0,
            "midi": 38,
            "name": "D2",
            "ticks": 35712,
            "time": 46.5,
            "velocity": 0.33858267716535434
          },
          {
            "duration": 0.125,
            "durationTicks": 96,
            "midi": 62,
            "name": "D4",
            "ticks": 35712,
            "time": 46.5,
            "velocity": 0.14960629921259844
          },
          {
            "duration": 0,
            "durationTicks": 0,
            "midi": 61,
            "name": "C#4",
            "ticks": 35712,
            "time": 46.5,
            "velocity": 0.29133858267716534
          },
          {
            "duration": 0,
            "durationTicks": 0,
            "midi": 44,
            "name": "G#2",
            "ticks": 35712,
            "time": 46.5,
            "velocity": 0.25984251968503935
          },
          {
            "duration": 0.25,
            "durationTicks": 192,
            "midi": 67,
            "name": "G4",
            "ticks": 35712,
            "time": 46.5,
            "velocity": 0.2283464566929134
          },
          {
            "duration": 0.125,
            "durationTicks": 96,
            "midi": 64,
            "name": "E4",
            "ticks": 35904,
            "time": 46.75,
            "velocity": 0.33070866141732286
          },
          {
            "duration": 0.125,
            "durationTicks": 96,
            "midi": 64,
            "name": "E4",
            "ticks": 35904,
            "time": 46.75,
            "velocity": 0.33070866141732286
          },
          {
            "duration": 0.25,
            "durationTicks": 192,
            "midi": 76,
            "name": "E5",
            "ticks": 35904,
            "time": 46.75,
            "velocity": 0.2204724409448819
          },
          {
            "duration": 0.25,
            "durationTicks": 192,
            "midi": 76,
            "name": "E5",
            "ticks": 35904,
            "time": 46.75,
            "velocity": 0.2204724409448819
          },
          {
            "duration": 0.25,
            "durationTicks": 192,
            "midi": 67,
            "name": "G4",
            "ticks": 36096,
            "time": 47,
            "velocity": 0.33070866141732286
          },
          {
            "duration": 0.25,
            "durationTicks": 192,
            "midi": 62,
            "name": "D4",
            "ticks": 36096,
            "time": 47,
            "velocity": 0.25196850393700787
          },
          {
            "duration": 0.125,
            "durationTicks": 96,
            "midi": 31,
            "name": "G1",
            "ticks": 36096,
            "time": 47,
            "velocity": 0.2992125984251969
          },
          {
            "duration": 0,
            "durationTicks": 0,
            "midi": 36,
            "name": "C2",
            "ticks": 36096,
            "time": 47,
            "velocity": 0.33070866141732286
          },
          {
            "duration": 0.25,
            "durationTicks": 192,
            "midi": 55,
            "name": "G3",
            "ticks": 36096,
            "time": 47,
            "velocity": 0.25196850393700787
          },
          {
            "duration": 0.5,
            "durationTicks": 384,
            "midi": 79,
            "name": "G5",
            "ticks": 36096,
            "time": 47,
            "velocity": 0.1968503937007874
          },
          {
            "duration": 0.25,
            "durationTicks": 192,
            "midi": 50,
            "name": "D3",
            "ticks": 36096,
            "time": 47,
            "velocity": 0.25196850393700787
          },
          {
            "duration": 0,
            "durationTicks": 0,
            "midi": 54,
            "name": "F#3",
            "ticks": 36096,
            "time": 47,
            "velocity": 0.2283464566929134
          },
          {
            "duration": 0,
            "durationTicks": 0,
            "midi": 61,
            "name": "C#4",
            "ticks": 36096,
            "time": 47,
            "velocity": 0.28346456692913385
          },
          {
            "duration": 0.25,
            "durationTicks": 192,
            "midi": 67,
            "name": "G4",
            "ticks": 36096,
            "time": 47,
            "velocity": 0.33070866141732286
          },
          {
            "duration": 0.5,
            "durationTicks": 384,
            "midi": 79,
            "name": "G5",
            "ticks": 36096,
            "time": 47,
            "velocity": 0.1968503937007874
          },
          {
            "duration": 0,
            "durationTicks": 0,
            "midi": 44,
            "name": "G#2",
            "ticks": 36096,
            "time": 47,
            "velocity": 0.2677165354330709
          },
          {
            "duration": 0.125,
            "durationTicks": 96,
            "midi": 67,
            "name": "G4",
            "ticks": 36288,
            "time": 47.25,
            "velocity": 0.2677165354330709
          },
          {
            "duration": 0.125,
            "durationTicks": 96,
            "midi": 31,
            "name": "G1",
            "ticks": 36288,
            "time": 47.25,
            "velocity": 0.31496062992125984
          },
          {
            "duration": 0.125,
            "durationTicks": 96,
            "midi": 64,
            "name": "E4",
            "ticks": 36288,
            "time": 47.25,
            "velocity": 0.33858267716535434
          },
          {
            "duration": 0.25,
            "durationTicks": 192,
            "midi": 64,
            "name": "E4",
            "ticks": 36288,
            "time": 47.25,
            "velocity": 0.33858267716535434
          },
          {
            "duration": 0.25,
            "durationTicks": 192,
            "midi": 55,
            "name": "G3",
            "ticks": 36480,
            "time": 47.5,
            "velocity": 0.25196850393700787
          },
          {
            "duration": 0,
            "durationTicks": 0,
            "midi": 54,
            "name": "F#3",
            "ticks": 36480,
            "time": 47.5,
            "velocity": 0.2204724409448819
          },
          {
            "duration": 0,
            "durationTicks": 0,
            "midi": 60,
            "name": "C4",
            "ticks": 36480,
            "time": 47.5,
            "velocity": 0.2755905511811024
          },
          {
            "duration": 0.25,
            "durationTicks": 192,
            "midi": 31,
            "name": "G1",
            "ticks": 36480,
            "time": 47.5,
            "velocity": 0.30708661417322836
          },
          {
            "duration": 0,
            "durationTicks": 0,
            "midi": 44,
            "name": "G#2",
            "ticks": 36480,
            "time": 47.5,
            "velocity": 0.25984251968503935
          },
          {
            "duration": 0.25,
            "durationTicks": 192,
            "midi": 52,
            "name": "E3",
            "ticks": 36480,
            "time": 47.5,
            "velocity": 0.2755905511811024
          },
          {
            "duration": 0,
            "durationTicks": 0,
            "midi": 38,
            "name": "D2",
            "ticks": 36480,
            "time": 47.5,
            "velocity": 0.33070866141732286
          },
          {
            "duration": 0.5,
            "durationTicks": 384,
            "midi": 83,
            "name": "B5",
            "ticks": 36480,
            "time": 47.5,
            "velocity": 0.1968503937007874
          },
          {
            "duration": 0.5,
            "durationTicks": 384,
            "midi": 83,
            "name": "B5",
            "ticks": 36480,
            "time": 47.5,
            "velocity": 0.1968503937007874
          },
          {
            "duration": 0.375,
            "durationTicks": 288,
            "midi": 76,
            "name": "E5",
            "ticks": 36480,
            "time": 47.5,
            "velocity": 0.2992125984251969
          },
          {
            "duration": 0.25,
            "durationTicks": 192,
            "midi": 35,
            "name": "B1",
            "ticks": 36672,
            "time": 47.75,
            "velocity": 0.30708661417322836
          },
          {
            "duration": 0,
            "durationTicks": 0,
            "midi": 46,
            "name": "A#2",
            "ticks": 36672,
            "time": 47.75,
            "velocity": 0.2677165354330709
          },
          {
            "duration": 0.75,
            "durationTicks": 576,
            "midi": 74,
            "name": "D5",
            "ticks": 36864,
            "time": 48,
            "velocity": 0.2992125984251969
          },
          {
            "duration": 0.125,
            "durationTicks": 96,
            "midi": 64,
            "name": "E4",
            "ticks": 36864,
            "time": 48,
            "velocity": 0.2440944881889764
          },
          {
            "duration": 0.75,
            "durationTicks": 576,
            "midi": 81,
            "name": "A5",
            "ticks": 36864,
            "time": 48,
            "velocity": 0.2125984251968504
          },
          {
            "duration": 0.375,
            "durationTicks": 288,
            "midi": 33,
            "name": "A1",
            "ticks": 36864,
            "time": 48,
            "velocity": 0.2992125984251969
          },
          {
            "duration": 0,
            "durationTicks": 0,
            "midi": 54,
            "name": "F#3",
            "ticks": 36864,
            "time": 48,
            "velocity": 0.2283464566929134
          },
          {
            "duration": 0.75,
            "durationTicks": 576,
            "midi": 81,
            "name": "A5",
            "ticks": 36864,
            "time": 48,
            "velocity": 0.2125984251968504
          },
          {
            "duration": 0,
            "durationTicks": 0,
            "midi": 61,
            "name": "C#4",
            "ticks": 36864,
            "time": 48,
            "velocity": 0.28346456692913385
          },
          {
            "duration": 0,
            "durationTicks": 0,
            "midi": 36,
            "name": "C2",
            "ticks": 36864,
            "time": 48,
            "velocity": 0.33858267716535434
          },
          {
            "duration": 0,
            "durationTicks": 0,
            "midi": 44,
            "name": "G#2",
            "ticks": 36864,
            "time": 48,
            "velocity": 0.2755905511811024
          },
          {
            "duration": 0.125,
            "durationTicks": 96,
            "midi": 62,
            "name": "D4",
            "ticks": 36864,
            "time": 48,
            "velocity": 0.3464566929133858
          },
          {
            "duration": 0.25,
            "durationTicks": 192,
            "midi": 64,
            "name": "E4",
            "ticks": 36864,
            "time": 48,
            "velocity": 0.2440944881889764
          },
          {
            "duration": 0.125,
            "durationTicks": 96,
            "midi": 60,
            "name": "C4",
            "ticks": 36960,
            "time": 48.125,
            "velocity": 0.3464566929133858
          },
          {
            "duration": 0.125,
            "durationTicks": 96,
            "midi": 60,
            "name": "C4",
            "ticks": 36960,
            "time": 48.125,
            "velocity": 0.3464566929133858
          },
          {
            "duration": 0.25,
            "durationTicks": 192,
            "midi": 60,
            "name": "C4",
            "ticks": 36960,
            "time": 48.125,
            "velocity": 0.3464566929133858
          },
          {
            "duration": 0.125,
            "durationTicks": 96,
            "midi": 65,
            "name": "F4",
            "ticks": 37056,
            "time": 48.25,
            "velocity": 0.25196850393700787
          },
          {
            "duration": 0.25,
            "durationTicks": 192,
            "midi": 57,
            "name": "A3",
            "ticks": 37056,
            "time": 48.25,
            "velocity": 0.3543307086614173
          },
          {
            "duration": 0.125,
            "durationTicks": 96,
            "midi": 64,
            "name": "E4",
            "ticks": 37152,
            "time": 48.375,
            "velocity": 0.25984251968503935
          },
          {
            "duration": 0,
            "durationTicks": 0,
            "midi": 54,
            "name": "F#3",
            "ticks": 37248,
            "time": 48.5,
            "velocity": 0.2283464566929134
          },
          {
            "duration": 0.375,
            "durationTicks": 288,
            "midi": 33,
            "name": "A1",
            "ticks": 37248,
            "time": 48.5,
            "velocity": 0.30708661417322836
          },
          {
            "duration": 0.125,
            "durationTicks": 96,
            "midi": 62,
            "name": "D4",
            "ticks": 37248,
            "time": 48.5,
            "velocity": 0.2755905511811024
          },
          {
            "duration": 0.125,
            "durationTicks": 96,
            "midi": 62,
            "name": "D4",
            "ticks": 37248,
            "time": 48.5,
            "velocity": 0.2755905511811024
          },
          {
            "duration": 0.125,
            "durationTicks": 96,
            "midi": 64,
            "name": "E4",
            "ticks": 37248,
            "time": 48.5,
            "velocity": 0.1968503937007874
          },
          {
            "duration": 0,
            "durationTicks": 0,
            "midi": 38,
            "name": "D2",
            "ticks": 37248,
            "time": 48.5,
            "velocity": 0.33858267716535434
          },
          {
            "duration": 0.125,
            "durationTicks": 96,
            "midi": 69,
            "name": "A4",
            "ticks": 37248,
            "time": 48.5,
            "velocity": 0.2677165354330709
          },
          {
            "duration": 0,
            "durationTicks": 0,
            "midi": 61,
            "name": "C#4",
            "ticks": 37248,
            "time": 48.5,
            "velocity": 0.28346456692913385
          },
          {
            "duration": 0,
            "durationTicks": 0,
            "midi": 44,
            "name": "G#2",
            "ticks": 37248,
            "time": 48.5,
            "velocity": 0.2677165354330709
          },
          {
            "duration": 0.125,
            "durationTicks": 96,
            "midi": 60,
            "name": "C4",
            "ticks": 37248,
            "time": 48.5,
            "velocity": 0.16535433070866143
          },
          {
            "duration": 0.125,
            "durationTicks": 96,
            "midi": 60,
            "name": "C4",
            "ticks": 37344,
            "time": 48.625,
            "velocity": 0.33858267716535434
          },
          {
            "duration": 0.125,
            "durationTicks": 96,
            "midi": 72,
            "name": "C5",
            "ticks": 37440,
            "time": 48.75,
            "velocity": 0.30708661417322836
          },
          {
            "duration": 0.25,
            "durationTicks": 192,
            "midi": 60,
            "name": "C4",
            "ticks": 37440,
            "time": 48.75,
            "velocity": 0.2677165354330709
          },
          {
            "duration": 0.125,
            "durationTicks": 96,
            "midi": 79,
            "name": "G5",
            "ticks": 37440,
            "time": 48.75,
            "velocity": 0.2047244094488189
          },
          {
            "duration": 0.125,
            "durationTicks": 96,
            "midi": 79,
            "name": "G5",
            "ticks": 37440,
            "time": 48.75,
            "velocity": 0.2047244094488189
          },
          {
            "duration": 0.125,
            "durationTicks": 96,
            "midi": 76,
            "name": "E5",
            "ticks": 37536,
            "time": 48.875,
            "velocity": 0.1968503937007874
          },
          {
            "duration": 0.125,
            "durationTicks": 96,
            "midi": 76,
            "name": "E5",
            "ticks": 37536,
            "time": 48.875,
            "velocity": 0.1968503937007874
          },
          {
            "duration": 0,
            "durationTicks": 0,
            "midi": 44,
            "name": "G#2",
            "ticks": 37632,
            "time": 49,
            "velocity": 0.2677165354330709
          },
          {
            "duration": 0.125,
            "durationTicks": 96,
            "midi": 74,
            "name": "D5",
            "ticks": 37632,
            "time": 49,
            "velocity": 0.31496062992125984
          },
          {
            "duration": 0.125,
            "durationTicks": 96,
            "midi": 33,
            "name": "A1",
            "ticks": 37632,
            "time": 49,
            "velocity": 0.2992125984251969
          },
          {
            "duration": 0.25,
            "durationTicks": 192,
            "midi": 60,
            "name": "C4",
            "ticks": 37632,
            "time": 49,
            "velocity": 0.33070866141732286
          },
          {
            "duration": 0.375,
            "durationTicks": 288,
            "midi": 60,
            "name": "C4",
            "ticks": 37632,
            "time": 49,
            "velocity": 0.33070866141732286
          },
          {
            "duration": 0,
            "durationTicks": 0,
            "midi": 36,
            "name": "C2",
            "ticks": 37632,
            "time": 49,
            "velocity": 0.33858267716535434
          },
          {
            "duration": 0,
            "durationTicks": 0,
            "midi": 61,
            "name": "C#4",
            "ticks": 37632,
            "time": 49,
            "velocity": 0.28346456692913385
          },
          {
            "duration": 0.75,
            "durationTicks": 576,
            "midi": 79,
            "name": "G5",
            "ticks": 37632,
            "time": 49,
            "velocity": 0.2047244094488189
          },
          {
            "duration": 0.5,
            "durationTicks": 384,
            "midi": 57,
            "name": "A3",
            "ticks": 37632,
            "time": 49,
            "velocity": 0.23622047244094488
          },
          {
            "duration": 0.75,
            "durationTicks": 576,
            "midi": 79,
            "name": "G5",
            "ticks": 37632,
            "time": 49,
            "velocity": 0.2047244094488189
          },
          {
            "duration": 0,
            "durationTicks": 0,
            "midi": 54,
            "name": "F#3",
            "ticks": 37632,
            "time": 49,
            "velocity": 0.23622047244094488
          },
          {
            "duration": 0.875,
            "durationTicks": 672,
            "midi": 57,
            "name": "A3",
            "ticks": 37632,
            "time": 49,
            "velocity": 0.23622047244094488
          },
          {
            "duration": 0.375,
            "durationTicks": 288,
            "midi": 33,
            "name": "A1",
            "ticks": 37824,
            "time": 49.25,
            "velocity": 0.31496062992125984
          },
          {
            "duration": 0.375,
            "durationTicks": 288,
            "midi": 76,
            "name": "E5",
            "ticks": 37824,
            "time": 49.25,
            "velocity": 0.3228346456692913
          },
          {
            "duration": 0.375,
            "durationTicks": 288,
            "midi": 62,
            "name": "D4",
            "ticks": 38016,
            "time": 49.5,
            "velocity": 0.2755905511811024
          },
          {
            "duration": 0.125,
            "durationTicks": 96,
            "midi": 69,
            "name": "A4",
            "ticks": 38016,
            "time": 49.5,
            "velocity": 0.2677165354330709
          },
          {
            "duration": 0,
            "durationTicks": 0,
            "midi": 54,
            "name": "F#3",
            "ticks": 38016,
            "time": 49.5,
            "velocity": 0.2204724409448819
          },
          {
            "duration": 0.125,
            "durationTicks": 96,
            "midi": 64,
            "name": "E4",
            "ticks": 38016,
            "time": 49.5,
            "velocity": 0.2204724409448819
          },
          {
            "duration": 0,
            "durationTicks": 0,
            "midi": 38,
            "name": "D2",
            "ticks": 38016,
            "time": 49.5,
            "velocity": 0.33858267716535434
          },
          {
            "duration": 0,
            "durationTicks": 0,
            "midi": 44,
            "name": "G#2",
            "ticks": 38016,
            "time": 49.5,
            "velocity": 0.25984251968503935
          },
          {
            "duration": 0.375,
            "durationTicks": 288,
            "midi": 64,
            "name": "E4",
            "ticks": 38016,
            "time": 49.5,
            "velocity": 0.2204724409448819
          },
          {
            "duration": 0,
            "durationTicks": 0,
            "midi": 61,
            "name": "C#4",
            "ticks": 38016,
            "time": 49.5,
            "velocity": 0.2755905511811024
          },
          {
            "duration": 0,
            "durationTicks": 0,
            "midi": 46,
            "name": "A#2",
            "ticks": 38208,
            "time": 49.75,
            "velocity": 0.2755905511811024
          },
          {
            "duration": 1.625,
            "durationTicks": 1248,
            "midi": 81,
            "name": "A5",
            "ticks": 38208,
            "time": 49.75,
            "velocity": 0.2204724409448819
          },
          {
            "duration": 0.125,
            "durationTicks": 96,
            "midi": 33,
            "name": "A1",
            "ticks": 38208,
            "time": 49.75,
            "velocity": 0.30708661417322836
          },
          {
            "duration": 1.625,
            "durationTicks": 1248,
            "midi": 81,
            "name": "A5",
            "ticks": 38208,
            "time": 49.75,
            "velocity": 0.2204724409448819
          },
          {
            "duration": 0.375,
            "durationTicks": 288,
            "midi": 57,
            "name": "A3",
            "ticks": 38400,
            "time": 50,
            "velocity": 0.2677165354330709
          },
          {
            "duration": 0,
            "durationTicks": 0,
            "midi": 54,
            "name": "F#3",
            "ticks": 38400,
            "time": 50,
            "velocity": 0.2204724409448819
          },
          {
            "duration": 0,
            "durationTicks": 0,
            "midi": 60,
            "name": "C4",
            "ticks": 38400,
            "time": 50,
            "velocity": 0.25984251968503935
          },
          {
            "duration": 0.25,
            "durationTicks": 192,
            "midi": 60,
            "name": "C4",
            "ticks": 38400,
            "time": 50,
            "velocity": 0.25984251968503935
          },
          {
            "duration": 0.5,
            "durationTicks": 384,
            "midi": 60,
            "name": "C4",
            "ticks": 38400,
            "time": 50,
            "velocity": 0.25984251968503935
          },
          {
            "duration": 0,
            "durationTicks": 0,
            "midi": 36,
            "name": "C2",
            "ticks": 38400,
            "time": 50,
            "velocity": 0.33858267716535434
          },
          {
            "duration": 0,
            "durationTicks": 0,
            "midi": 44,
            "name": "G#2",
            "ticks": 38400,
            "time": 50,
            "velocity": 0.2755905511811024
          },
          {
            "duration": 0.25,
            "durationTicks": 192,
            "midi": 64,
            "name": "E4",
            "ticks": 38400,
            "time": 50,
            "velocity": 0.25984251968503935
          },
          {
            "duration": 0.375,
            "durationTicks": 288,
            "midi": 33,
            "name": "A1",
            "ticks": 38400,
            "time": 50,
            "velocity": 0.2992125984251969
          },
          {
            "duration": 0.125,
            "durationTicks": 96,
            "midi": 65,
            "name": "F4",
            "ticks": 38592,
            "time": 50.25,
            "velocity": 0.2677165354330709
          },
          {
            "duration": 0.125,
            "durationTicks": 96,
            "midi": 64,
            "name": "E4",
            "ticks": 38688,
            "time": 50.375,
            "velocity": 0.23622047244094488
          },
          {
            "duration": 0.125,
            "durationTicks": 96,
            "midi": 64,
            "name": "E4",
            "ticks": 38784,
            "time": 50.5,
            "velocity": 0.1889763779527559
          },
          {
            "duration": 0.125,
            "durationTicks": 96,
            "midi": 62,
            "name": "D4",
            "ticks": 38784,
            "time": 50.5,
            "velocity": 0.25196850393700787
          },
          {
            "duration": 0.375,
            "durationTicks": 288,
            "midi": 33,
            "name": "A1",
            "ticks": 38784,
            "time": 50.5,
            "velocity": 0.2992125984251969
          },
          {
            "duration": 0.125,
            "durationTicks": 96,
            "midi": 69,
            "name": "A4",
            "ticks": 38784,
            "time": 50.5,
            "velocity": 0.2677165354330709
          },
          {
            "duration": 0.125,
            "durationTicks": 96,
            "midi": 62,
            "name": "D4",
            "ticks": 38784,
            "time": 50.5,
            "velocity": 0.25196850393700787
          },
          {
            "duration": 0,
            "durationTicks": 0,
            "midi": 61,
            "name": "C#4",
            "ticks": 38784,
            "time": 50.5,
            "velocity": 0.2755905511811024
          },
          {
            "duration": 0,
            "durationTicks": 0,
            "midi": 54,
            "name": "F#3",
            "ticks": 38784,
            "time": 50.5,
            "velocity": 0.2283464566929134
          },
          {
            "duration": 0,
            "durationTicks": 0,
            "midi": 38,
            "name": "D2",
            "ticks": 38784,
            "time": 50.5,
            "velocity": 0.33858267716535434
          },
          {
            "duration": 0,
            "durationTicks": 0,
            "midi": 44,
            "name": "G#2",
            "ticks": 38784,
            "time": 50.5,
            "velocity": 0.2677165354330709
          },
          {
            "duration": 0.25,
            "durationTicks": 192,
            "midi": 60,
            "name": "C4",
            "ticks": 38976,
            "time": 50.75,
            "velocity": 0.25984251968503935
          },
          {
            "duration": 0,
            "durationTicks": 0,
            "midi": 44,
            "name": "G#2",
            "ticks": 39168,
            "time": 51,
            "velocity": 0.2677165354330709
          },
          {
            "duration": 0.125,
            "durationTicks": 96,
            "midi": 33,
            "name": "A1",
            "ticks": 39168,
            "time": 51,
            "velocity": 0.31496062992125984
          },
          {
            "duration": 0.125,
            "durationTicks": 96,
            "midi": 57,
            "name": "A3",
            "ticks": 39168,
            "time": 51,
            "velocity": 0.33858267716535434
          },
          {
            "duration": 0,
            "durationTicks": 0,
            "midi": 54,
            "name": "F#3",
            "ticks": 39168,
            "time": 51,
            "velocity": 0.2283464566929134
          },
          {
            "duration": 0,
            "durationTicks": 0,
            "midi": 36,
            "name": "C2",
            "ticks": 39168,
            "time": 51,
            "velocity": 0.33858267716535434
          },
          {
            "duration": 0,
            "durationTicks": 0,
            "midi": 61,
            "name": "C#4",
            "ticks": 39168,
            "time": 51,
            "velocity": 0.28346456692913385
          },
          {
            "duration": 0.25,
            "durationTicks": 192,
            "midi": 57,
            "name": "A3",
            "ticks": 39168,
            "time": 51,
            "velocity": 0.33858267716535434
          },
          {
            "duration": 0.875,
            "durationTicks": 672,
            "midi": 57,
            "name": "A3",
            "ticks": 39168,
            "time": 51,
            "velocity": 0.33858267716535434
          },
          {
            "duration": 0.125,
            "durationTicks": 96,
            "midi": 33,
            "name": "A1",
            "ticks": 39360,
            "time": 51.25,
            "velocity": 0.2992125984251969
          },
          {
            "duration": 0.25,
            "durationTicks": 192,
            "midi": 60,
            "name": "C4",
            "ticks": 39360,
            "time": 51.25,
            "velocity": 0.33858267716535434
          },
          {
            "duration": 0.375,
            "durationTicks": 288,
            "midi": 60,
            "name": "C4",
            "ticks": 39360,
            "time": 51.25,
            "velocity": 0.33858267716535434
          },
          {
            "duration": 0.125,
            "durationTicks": 96,
            "midi": 76,
            "name": "E5",
            "ticks": 39552,
            "time": 51.5,
            "velocity": 0.2204724409448819
          },
          {
            "duration": 0,
            "durationTicks": 0,
            "midi": 61,
            "name": "C#4",
            "ticks": 39552,
            "time": 51.5,
            "velocity": 0.2755905511811024
          },
          {
            "duration": 0.25,
            "durationTicks": 192,
            "midi": 62,
            "name": "D4",
            "ticks": 39552,
            "time": 51.5,
            "velocity": 0.25196850393700787
          },
          {
            "duration": 0,
            "durationTicks": 0,
            "midi": 54,
            "name": "F#3",
            "ticks": 39552,
            "time": 51.5,
            "velocity": 0.2204724409448819
          },
          {
            "duration": 0.125,
            "durationTicks": 96,
            "midi": 64,
            "name": "E4",
            "ticks": 39552,
            "time": 51.5,
            "velocity": 0.18110236220472442
          },
          {
            "duration": 0.25,
            "durationTicks": 192,
            "midi": 64,
            "name": "E4",
            "ticks": 39552,
            "time": 51.5,
            "velocity": 0.18110236220472442
          },
          {
            "duration": 0.25,
            "durationTicks": 192,
            "midi": 33,
            "name": "A1",
            "ticks": 39552,
            "time": 51.5,
            "velocity": 0.2992125984251969
          },
          {
            "duration": 0.125,
            "durationTicks": 96,
            "midi": 69,
            "name": "A4",
            "ticks": 39552,
            "time": 51.5,
            "velocity": 0.2677165354330709
          },
          {
            "duration": 0.125,
            "durationTicks": 96,
            "midi": 76,
            "name": "E5",
            "ticks": 39552,
            "time": 51.5,
            "velocity": 0.2204724409448819
          },
          {
            "duration": 0.375,
            "durationTicks": 288,
            "midi": 69,
            "name": "A4",
            "ticks": 39552,
            "time": 51.5,
            "velocity": 0.2677165354330709
          },
          {
            "duration": 0,
            "durationTicks": 0,
            "midi": 38,
            "name": "D2",
            "ticks": 39552,
            "time": 51.5,
            "velocity": 0.33070866141732286
          },
          {
            "duration": 0,
            "durationTicks": 0,
            "midi": 44,
            "name": "G#2",
            "ticks": 39552,
            "time": 51.5,
            "velocity": 0.2677165354330709
          },
          {
            "duration": 0.125,
            "durationTicks": 96,
            "midi": 74,
            "name": "D5",
            "ticks": 39648,
            "time": 51.625,
            "velocity": 0.1968503937007874
          },
          {
            "duration": 0.125,
            "durationTicks": 96,
            "midi": 74,
            "name": "D5",
            "ticks": 39648,
            "time": 51.625,
            "velocity": 0.1968503937007874
          },
          {
            "duration": 0,
            "durationTicks": 0,
            "midi": 46,
            "name": "A#2",
            "ticks": 39744,
            "time": 51.75,
            "velocity": 0.2677165354330709
          },
          {
            "duration": 0.25,
            "durationTicks": 192,
            "midi": 72,
            "name": "C5",
            "ticks": 39744,
            "time": 51.75,
            "velocity": 0.2047244094488189
          },
          {
            "duration": 0.25,
            "durationTicks": 192,
            "midi": 72,
            "name": "C5",
            "ticks": 39744,
            "time": 51.75,
            "velocity": 0.2047244094488189
          },
          {
            "duration": 0.875,
            "durationTicks": 672,
            "midi": 62,
            "name": "D4",
            "ticks": 39744,
            "time": 51.75,
            "velocity": 0.33858267716535434
          },
          {
            "duration": 0.5,
            "durationTicks": 384,
            "midi": 65,
            "name": "F4",
            "ticks": 39744,
            "time": 51.75,
            "velocity": 0.33858267716535434
          },
          {
            "duration": 0.25,
            "durationTicks": 192,
            "midi": 36,
            "name": "C2",
            "ticks": 39744,
            "time": 51.75,
            "velocity": 0.2992125984251969
          },
          {
            "duration": 0.625,
            "durationTicks": 480,
            "midi": 53,
            "name": "F3",
            "ticks": 39936,
            "time": 52,
            "velocity": 0.2755905511811024
          },
          {
            "duration": 0.625,
            "durationTicks": 480,
            "midi": 57,
            "name": "A3",
            "ticks": 39936,
            "time": 52,
            "velocity": 0.2755905511811024
          },
          {
            "duration": 1.625,
            "durationTicks": 1248,
            "midi": 74,
            "name": "D5",
            "ticks": 39936,
            "time": 52,
            "velocity": 0.2204724409448819
          },
          {
            "duration": 1.625,
            "durationTicks": 1248,
            "midi": 74,
            "name": "D5",
            "ticks": 39936,
            "time": 52,
            "velocity": 0.2204724409448819
          },
          {
            "duration": 0,
            "durationTicks": 0,
            "midi": 60,
            "name": "C4",
            "ticks": 39936,
            "time": 52,
            "velocity": 0.29133858267716534
          },
          {
            "duration": 0,
            "durationTicks": 0,
            "midi": 49,
            "name": "C#3",
            "ticks": 39936,
            "time": 52,
            "velocity": 0.2755905511811024
          },
          {
            "duration": 0,
            "durationTicks": 0,
            "midi": 36,
            "name": "C2",
            "ticks": 39936,
            "time": 52,
            "velocity": 0.33070866141732286
          },
          {
            "duration": 0.375,
            "durationTicks": 288,
            "midi": 38,
            "name": "D2",
            "ticks": 39936,
            "time": 52,
            "velocity": 0.30708661417322836
          },
          {
            "duration": 0,
            "durationTicks": 0,
            "midi": 44,
            "name": "G#2",
            "ticks": 39936,
            "time": 52,
            "velocity": 0.2677165354330709
          },
          {
            "duration": 0,
            "durationTicks": 0,
            "midi": 54,
            "name": "F#3",
            "ticks": 39936,
            "time": 52,
            "velocity": 0.2204724409448819
          },
          {
            "duration": 0.375,
            "durationTicks": 288,
            "midi": 60,
            "name": "C4",
            "ticks": 40128,
            "time": 52.25,
            "velocity": 0.25984251968503935
          },
          {
            "duration": 0,
            "durationTicks": 0,
            "midi": 38,
            "name": "D2",
            "ticks": 40320,
            "time": 52.5,
            "velocity": 0.31496062992125984
          },
          {
            "duration": 0,
            "durationTicks": 0,
            "midi": 44,
            "name": "G#2",
            "ticks": 40320,
            "time": 52.5,
            "velocity": 0.25984251968503935
          },
          {
            "duration": 0,
            "durationTicks": 0,
            "midi": 61,
            "name": "C#4",
            "ticks": 40320,
            "time": 52.5,
            "velocity": 0.28346456692913385
          },
          {
            "duration": 0.25,
            "durationTicks": 192,
            "midi": 67,
            "name": "G4",
            "ticks": 40320,
            "time": 52.5,
            "velocity": 0.2677165354330709
          },
          {
            "duration": 0.25,
            "durationTicks": 192,
            "midi": 72,
            "name": "C5",
            "ticks": 40320,
            "time": 52.5,
            "velocity": 0.2677165354330709
          },
          {
            "duration": 0.375,
            "durationTicks": 288,
            "midi": 38,
            "name": "D2",
            "ticks": 40320,
            "time": 52.5,
            "velocity": 0.31496062992125984
          },
          {
            "duration": 0,
            "durationTicks": 0,
            "midi": 54,
            "name": "F#3",
            "ticks": 40320,
            "time": 52.5,
            "velocity": 0.2440944881889764
          },
          {
            "duration": 0.875,
            "durationTicks": 672,
            "midi": 69,
            "name": "A4",
            "ticks": 40512,
            "time": 52.75,
            "velocity": 0.25196850393700787
          },
          {
            "duration": 0.5,
            "durationTicks": 384,
            "midi": 60,
            "name": "C4",
            "ticks": 40512,
            "time": 52.75,
            "velocity": 0.2677165354330709
          },
          {
            "duration": 0.5,
            "durationTicks": 384,
            "midi": 53,
            "name": "F3",
            "ticks": 40512,
            "time": 52.75,
            "velocity": 0.2755905511811024
          },
          {
            "duration": 1.125,
            "durationTicks": 864,
            "midi": 57,
            "name": "A3",
            "ticks": 40512,
            "time": 52.75,
            "velocity": 0.25984251968503935
          },
          {
            "duration": 0.125,
            "durationTicks": 96,
            "midi": 38,
            "name": "D2",
            "ticks": 40704,
            "time": 53,
            "velocity": 0.30708661417322836
          },
          {
            "duration": 0,
            "durationTicks": 0,
            "midi": 54,
            "name": "F#3",
            "ticks": 40704,
            "time": 53,
            "velocity": 0.2440944881889764
          },
          {
            "duration": 0,
            "durationTicks": 0,
            "midi": 36,
            "name": "C2",
            "ticks": 40704,
            "time": 53,
            "velocity": 0.33070866141732286
          },
          {
            "duration": 0,
            "durationTicks": 0,
            "midi": 44,
            "name": "G#2",
            "ticks": 40704,
            "time": 53,
            "velocity": 0.2677165354330709
          },
          {
            "duration": 0.125,
            "durationTicks": 96,
            "midi": 62,
            "name": "D4",
            "ticks": 40704,
            "time": 53,
            "velocity": 0.33858267716535434
          },
          {
            "duration": 0.125,
            "durationTicks": 96,
            "midi": 65,
            "name": "F4",
            "ticks": 40704,
            "time": 53,
            "velocity": 0.33070866141732286
          },
          {
            "duration": 0,
            "durationTicks": 0,
            "midi": 61,
            "name": "C#4",
            "ticks": 40704,
            "time": 53,
            "velocity": 0.29133858267716534
          },
          {
            "duration": 0.375,
            "durationTicks": 288,
            "midi": 62,
            "name": "D4",
            "ticks": 40896,
            "time": 53.25,
            "velocity": 0.33070866141732286
          },
          {
            "duration": 0.625,
            "durationTicks": 480,
            "midi": 62,
            "name": "D4",
            "ticks": 40896,
            "time": 53.25,
            "velocity": 0.33070866141732286
          },
          {
            "duration": 0.375,
            "durationTicks": 288,
            "midi": 65,
            "name": "F4",
            "ticks": 40896,
            "time": 53.25,
            "velocity": 0.33858267716535434
          },
          {
            "duration": 0.625,
            "durationTicks": 480,
            "midi": 53,
            "name": "F3",
            "ticks": 40896,
            "time": 53.25,
            "velocity": 0.2755905511811024
          },
          {
            "duration": 0.125,
            "durationTicks": 96,
            "midi": 38,
            "name": "D2",
            "ticks": 40896,
            "time": 53.25,
            "velocity": 0.31496062992125984
          },
          {
            "duration": 0,
            "durationTicks": 0,
            "midi": 44,
            "name": "G#2",
            "ticks": 41088,
            "time": 53.5,
            "velocity": 0.2677165354330709
          },
          {
            "duration": 0,
            "durationTicks": 0,
            "midi": 38,
            "name": "D2",
            "ticks": 41088,
            "time": 53.5,
            "velocity": 0.31496062992125984
          },
          {
            "duration": 0,
            "durationTicks": 0,
            "midi": 61,
            "name": "C#4",
            "ticks": 41088,
            "time": 53.5,
            "velocity": 0.2755905511811024
          },
          {
            "duration": 0.375,
            "durationTicks": 288,
            "midi": 38,
            "name": "D2",
            "ticks": 41088,
            "time": 53.5,
            "velocity": 0.31496062992125984
          },
          {
            "duration": 0,
            "durationTicks": 0,
            "midi": 54,
            "name": "F#3",
            "ticks": 41088,
            "time": 53.5,
            "velocity": 0.2283464566929134
          },
          {
            "duration": 0.5,
            "durationTicks": 384,
            "midi": 64,
            "name": "E4",
            "ticks": 41280,
            "time": 53.75,
            "velocity": 0.3464566929133858
          },
          {
            "duration": 0.25,
            "durationTicks": 192,
            "midi": 74,
            "name": "D5",
            "ticks": 41280,
            "time": 53.75,
            "velocity": 0.1889763779527559
          },
          {
            "duration": 0.25,
            "durationTicks": 192,
            "midi": 74,
            "name": "D5",
            "ticks": 41280,
            "time": 53.75,
            "velocity": 0.1889763779527559
          },
          {
            "duration": 0,
            "durationTicks": 0,
            "midi": 46,
            "name": "A#2",
            "ticks": 41280,
            "time": 53.75,
            "velocity": 0.2755905511811024
          },
          {
            "duration": 0.25,
            "durationTicks": 192,
            "midi": 67,
            "name": "G4",
            "ticks": 41472,
            "time": 54,
            "velocity": 0.25984251968503935
          },
          {
            "duration": 0,
            "durationTicks": 0,
            "midi": 44,
            "name": "G#2",
            "ticks": 41472,
            "time": 54,
            "velocity": 0.2677165354330709
          },
          {
            "duration": 0.125,
            "durationTicks": 96,
            "midi": 38,
            "name": "D2",
            "ticks": 41472,
            "time": 54,
            "velocity": 0.31496062992125984
          },
          {
            "duration": 0.5,
            "durationTicks": 384,
            "midi": 76,
            "name": "E5",
            "ticks": 41472,
            "time": 54,
            "velocity": 0.1968503937007874
          },
          {
            "duration": 0.625,
            "durationTicks": 480,
            "midi": 53,
            "name": "F3",
            "ticks": 41472,
            "time": 54,
            "velocity": 0.2755905511811024
          },
          {
            "duration": 0.5,
            "durationTicks": 384,
            "midi": 76,
            "name": "E5",
            "ticks": 41472,
            "time": 54,
            "velocity": 0.1968503937007874
          },
          {
            "duration": 0.625,
            "durationTicks": 480,
            "midi": 60,
            "name": "C4",
            "ticks": 41472,
            "time": 54,
            "velocity": 0.2755905511811024
          },
          {
            "duration": 0,
            "durationTicks": 0,
            "midi": 49,
            "name": "C#3",
            "ticks": 41472,
            "time": 54,
            "velocity": 0.2755905511811024
          },
          {
            "duration": 0,
            "durationTicks": 0,
            "midi": 54,
            "name": "F#3",
            "ticks": 41472,
            "time": 54,
            "velocity": 0.2283464566929134
          },
          {
            "duration": 0,
            "durationTicks": 0,
            "midi": 61,
            "name": "C#4",
            "ticks": 41472,
            "time": 54,
            "velocity": 0.29133858267716534
          },
          {
            "duration": 0.25,
            "durationTicks": 192,
            "midi": 67,
            "name": "G4",
            "ticks": 41472,
            "time": 54,
            "velocity": 0.25984251968503935
          },
          {
            "duration": 0.25,
            "durationTicks": 192,
            "midi": 72,
            "name": "C5",
            "ticks": 41472,
            "time": 54,
            "velocity": 0.28346456692913385
          },
          {
            "duration": 0.625,
            "durationTicks": 480,
            "midi": 57,
            "name": "A3",
            "ticks": 41472,
            "time": 54,
            "velocity": 0.25196850393700787
          },
          {
            "duration": 0,
            "durationTicks": 0,
            "midi": 36,
            "name": "C2",
            "ticks": 41472,
            "time": 54,
            "velocity": 0.33070866141732286
          },
          {
            "duration": 0.125,
            "durationTicks": 96,
            "midi": 38,
            "name": "D2",
            "ticks": 41664,
            "time": 54.25,
            "velocity": 0.31496062992125984
          },
          {
            "duration": 0.125,
            "durationTicks": 96,
            "midi": 65,
            "name": "F4",
            "ticks": 41664,
            "time": 54.25,
            "velocity": 0.33070866141732286
          },
          {
            "duration": 0.25,
            "durationTicks": 192,
            "midi": 62,
            "name": "D4",
            "ticks": 41664,
            "time": 54.25,
            "velocity": 0.33070866141732286
          },
          {
            "duration": 0.125,
            "durationTicks": 96,
            "midi": 69,
            "name": "A4",
            "ticks": 41760,
            "time": 54.375,
            "velocity": 0.25984251968503935
          },
          {
            "duration": 0,
            "durationTicks": 0,
            "midi": 44,
            "name": "G#2",
            "ticks": 41856,
            "time": 54.5,
            "velocity": 0.2677165354330709
          },
          {
            "duration": 0.25,
            "durationTicks": 192,
            "midi": 72,
            "name": "C5",
            "ticks": 41856,
            "time": 54.5,
            "velocity": 0.2677165354330709
          },
          {
            "duration": 0.5,
            "durationTicks": 384,
            "midi": 74,
            "name": "D5",
            "ticks": 41856,
            "time": 54.5,
            "velocity": 0.2047244094488189
          },
          {
            "duration": 0,
            "durationTicks": 0,
            "midi": 38,
            "name": "D2",
            "ticks": 41856,
            "time": 54.5,
            "velocity": 0.2992125984251969
          },
          {
            "duration": 0.5,
            "durationTicks": 384,
            "midi": 74,
            "name": "D5",
            "ticks": 41856,
            "time": 54.5,
            "velocity": 0.2047244094488189
          },
          {
            "duration": 0,
            "durationTicks": 0,
            "midi": 61,
            "name": "C#4",
            "ticks": 41856,
            "time": 54.5,
            "velocity": 0.28346456692913385
          },
          {
            "duration": 0,
            "durationTicks": 0,
            "midi": 54,
            "name": "F#3",
            "ticks": 41856,
            "time": 54.5,
            "velocity": 0.2440944881889764
          },
          {
            "duration": 0.25,
            "durationTicks": 192,
            "midi": 67,
            "name": "G4",
            "ticks": 41856,
            "time": 54.5,
            "velocity": 0.25984251968503935
          },
          {
            "duration": 0.125,
            "durationTicks": 96,
            "midi": 38,
            "name": "D2",
            "ticks": 41856,
            "time": 54.5,
            "velocity": 0.2992125984251969
          },
          {
            "duration": 0.125,
            "durationTicks": 96,
            "midi": 38,
            "name": "D2",
            "ticks": 42048,
            "time": 54.75,
            "velocity": 0.31496062992125984
          },
          {
            "duration": 1,
            "durationTicks": 768,
            "midi": 57,
            "name": "A3",
            "ticks": 42048,
            "time": 54.75,
            "velocity": 0.25984251968503935
          },
          {
            "duration": 0.5,
            "durationTicks": 384,
            "midi": 64,
            "name": "E4",
            "ticks": 42048,
            "time": 54.75,
            "velocity": 0.33070866141732286
          },
          {
            "duration": 0.5,
            "durationTicks": 384,
            "midi": 53,
            "name": "F3",
            "ticks": 42048,
            "time": 54.75,
            "velocity": 0.25196850393700787
          },
          {
            "duration": 0.5,
            "durationTicks": 384,
            "midi": 60,
            "name": "C4",
            "ticks": 42048,
            "time": 54.75,
            "velocity": 0.25196850393700787
          },
          {
            "duration": 0.125,
            "durationTicks": 96,
            "midi": 69,
            "name": "A4",
            "ticks": 42144,
            "time": 54.875,
            "velocity": 0.25984251968503935
          },
          {
            "duration": 0.25,
            "durationTicks": 192,
            "midi": 67,
            "name": "G4",
            "ticks": 42240,
            "time": 55,
            "velocity": 0.23622047244094488
          },
          {
            "duration": 0.125,
            "durationTicks": 96,
            "midi": 38,
            "name": "D2",
            "ticks": 42240,
            "time": 55,
            "velocity": 0.30708661417322836
          },
          {
            "duration": 0.25,
            "durationTicks": 192,
            "midi": 67,
            "name": "G4",
            "ticks": 42240,
            "time": 55,
            "velocity": 0.23622047244094488
          },
          {
            "duration": 0.5,
            "durationTicks": 384,
            "midi": 72,
            "name": "C5",
            "ticks": 42240,
            "time": 55,
            "velocity": 0.2047244094488189
          },
          {
            "duration": 0.5,
            "durationTicks": 384,
            "midi": 72,
            "name": "C5",
            "ticks": 42240,
            "time": 55,
            "velocity": 0.2047244094488189
          },
          {
            "duration": 0,
            "durationTicks": 0,
            "midi": 54,
            "name": "F#3",
            "ticks": 42240,
            "time": 55,
            "velocity": 0.2283464566929134
          },
          {
            "duration": 0,
            "durationTicks": 0,
            "midi": 36,
            "name": "C2",
            "ticks": 42240,
            "time": 55,
            "velocity": 0.33858267716535434
          },
          {
            "duration": 0,
            "durationTicks": 0,
            "midi": 44,
            "name": "G#2",
            "ticks": 42240,
            "time": 55,
            "velocity": 0.25984251968503935
          },
          {
            "duration": 0,
            "durationTicks": 0,
            "midi": 61,
            "name": "C#4",
            "ticks": 42240,
            "time": 55,
            "velocity": 0.2755905511811024
          },
          {
            "duration": 0.5,
            "durationTicks": 384,
            "midi": 72,
            "name": "C5",
            "ticks": 42240,
            "time": 55,
            "velocity": 0.2047244094488189
          },
          {
            "duration": 0.125,
            "durationTicks": 96,
            "midi": 65,
            "name": "F4",
            "ticks": 42432,
            "time": 55.25,
            "velocity": 0.3228346456692913
          },
          {
            "duration": 0.125,
            "durationTicks": 96,
            "midi": 69,
            "name": "A4",
            "ticks": 42432,
            "time": 55.25,
            "velocity": 0.25984251968503935
          },
          {
            "duration": 0.125,
            "durationTicks": 96,
            "midi": 62,
            "name": "D4",
            "ticks": 42432,
            "time": 55.25,
            "velocity": 0.33070866141732286
          },
          {
            "duration": 0.5,
            "durationTicks": 384,
            "midi": 62,
            "name": "D4",
            "ticks": 42432,
            "time": 55.25,
            "velocity": 0.33070866141732286
          },
          {
            "duration": 0.125,
            "durationTicks": 96,
            "midi": 38,
            "name": "D2",
            "ticks": 42432,
            "time": 55.25,
            "velocity": 0.30708661417322836
          },
          {
            "duration": 0,
            "durationTicks": 0,
            "midi": 44,
            "name": "G#2",
            "ticks": 42624,
            "time": 55.5,
            "velocity": 0.25984251968503935
          },
          {
            "duration": 0.375,
            "durationTicks": 288,
            "midi": 60,
            "name": "C4",
            "ticks": 42624,
            "time": 55.5,
            "velocity": 0.3464566929133858
          },
          {
            "duration": 0,
            "durationTicks": 0,
            "midi": 38,
            "name": "D2",
            "ticks": 42624,
            "time": 55.5,
            "velocity": 0.30708661417322836
          },
          {
            "duration": 0,
            "durationTicks": 0,
            "midi": 54,
            "name": "F#3",
            "ticks": 42624,
            "time": 55.5,
            "velocity": 0.2440944881889764
          },
          {
            "duration": 0.25,
            "durationTicks": 192,
            "midi": 38,
            "name": "D2",
            "ticks": 42624,
            "time": 55.5,
            "velocity": 0.30708661417322836
          },
          {
            "duration": 0.5,
            "durationTicks": 384,
            "midi": 64,
            "name": "E4",
            "ticks": 42624,
            "time": 55.5,
            "velocity": 0.33858267716535434
          },
          {
            "duration": 0.5,
            "durationTicks": 384,
            "midi": 81,
            "name": "A5",
            "ticks": 42624,
            "time": 55.5,
            "velocity": 0.1968503937007874
          },
          {
            "duration": 0.5,
            "durationTicks": 384,
            "midi": 81,
            "name": "A5",
            "ticks": 42624,
            "time": 55.5,
            "velocity": 0.1968503937007874
          },
          {
            "duration": 0,
            "durationTicks": 0,
            "midi": 61,
            "name": "C#4",
            "ticks": 42624,
            "time": 55.5,
            "velocity": 0.29133858267716534
          },
          {
            "duration": 0.25,
            "durationTicks": 192,
            "midi": 41,
            "name": "F2",
            "ticks": 42816,
            "time": 55.75,
            "velocity": 0.2992125984251969
          },
          {
            "duration": 0,
            "durationTicks": 0,
            "midi": 46,
            "name": "A#2",
            "ticks": 42816,
            "time": 55.75,
            "velocity": 0.2677165354330709
          },
          {
            "duration": 0,
            "durationTicks": 0,
            "midi": 44,
            "name": "G#2",
            "ticks": 43008,
            "time": 56,
            "velocity": 0.25984251968503935
          },
          {
            "duration": 0.125,
            "durationTicks": 96,
            "midi": 43,
            "name": "G2",
            "ticks": 43008,
            "time": 56,
            "velocity": 0.31496062992125984
          },
          {
            "duration": 0.375,
            "durationTicks": 288,
            "midi": 59,
            "name": "B3",
            "ticks": 43008,
            "time": 56,
            "velocity": 0.25984251968503935
          },
          {
            "duration": 0.375,
            "durationTicks": 288,
            "midi": 55,
            "name": "G3",
            "ticks": 43008,
            "time": 56,
            "velocity": 0.25984251968503935
          },
          {
            "duration": 0,
            "durationTicks": 0,
            "midi": 36,
            "name": "C2",
            "ticks": 43008,
            "time": 56,
            "velocity": 0.33858267716535434
          },
          {
            "duration": 3.5,
            "durationTicks": 2688,
            "midi": 79,
            "name": "G5",
            "ticks": 43008,
            "time": 56,
            "velocity": 0.2204724409448819
          },
          {
            "duration": 0,
            "durationTicks": 0,
            "midi": 60,
            "name": "C4",
            "ticks": 43008,
            "time": 56,
            "velocity": 0.28346456692913385
          },
          {
            "duration": 3.5,
            "durationTicks": 2688,
            "midi": 79,
            "name": "G5",
            "ticks": 43008,
            "time": 56,
            "velocity": 0.2204724409448819
          },
          {
            "duration": 0.375,
            "durationTicks": 288,
            "midi": 67,
            "name": "G4",
            "ticks": 43008,
            "time": 56,
            "velocity": 0.2755905511811024
          },
          {
            "duration": 0.5,
            "durationTicks": 384,
            "midi": 65,
            "name": "F4",
            "ticks": 43008,
            "time": 56,
            "velocity": 0.3228346456692913
          },
          {
            "duration": 0,
            "durationTicks": 0,
            "midi": 54,
            "name": "F#3",
            "ticks": 43008,
            "time": 56,
            "velocity": 0.2283464566929134
          },
          {
            "duration": 0.125,
            "durationTicks": 96,
            "midi": 43,
            "name": "G2",
            "ticks": 43200,
            "time": 56.25,
            "velocity": 0.31496062992125984
          },
          {
            "duration": 0.125,
            "durationTicks": 96,
            "midi": 62,
            "name": "D4",
            "ticks": 43392,
            "time": 56.5,
            "velocity": 0.2204724409448819
          },
          {
            "duration": 0.375,
            "durationTicks": 288,
            "midi": 59,
            "name": "B3",
            "ticks": 43392,
            "time": 56.5,
            "velocity": 0.25196850393700787
          },
          {
            "duration": 0.125,
            "durationTicks": 96,
            "midi": 43,
            "name": "G2",
            "ticks": 43392,
            "time": 56.5,
            "velocity": 0.31496062992125984
          },
          {
            "duration": 0.375,
            "durationTicks": 288,
            "midi": 55,
            "name": "G3",
            "ticks": 43392,
            "time": 56.5,
            "velocity": 0.25984251968503935
          },
          {
            "duration": 0,
            "durationTicks": 0,
            "midi": 38,
            "name": "D2",
            "ticks": 43392,
            "time": 56.5,
            "velocity": 0.33070866141732286
          },
          {
            "duration": 1,
            "durationTicks": 768,
            "midi": 62,
            "name": "D4",
            "ticks": 43392,
            "time": 56.5,
            "velocity": 0.2204724409448819
          },
          {
            "duration": 0.125,
            "durationTicks": 96,
            "midi": 67,
            "name": "G4",
            "ticks": 43392,
            "time": 56.5,
            "velocity": 0.2677165354330709
          },
          {
            "duration": 0,
            "durationTicks": 0,
            "midi": 54,
            "name": "F#3",
            "ticks": 43392,
            "time": 56.5,
            "velocity": 0.23622047244094488
          },
          {
            "duration": 0,
            "durationTicks": 0,
            "midi": 61,
            "name": "C#4",
            "ticks": 43392,
            "time": 56.5,
            "velocity": 0.29133858267716534
          },
          {
            "duration": 0,
            "durationTicks": 0,
            "midi": 44,
            "name": "G#2",
            "ticks": 43392,
            "time": 56.5,
            "velocity": 0.25984251968503935
          },
          {
            "duration": 0.375,
            "durationTicks": 288,
            "midi": 67,
            "name": "G4",
            "ticks": 43392,
            "time": 56.5,
            "velocity": 0.2677165354330709
          },
          {
            "duration": 0.25,
            "durationTicks": 192,
            "midi": 43,
            "name": "G2",
            "ticks": 43584,
            "time": 56.75,
            "velocity": 0.31496062992125984
          },
          {
            "duration": 0.375,
            "durationTicks": 288,
            "midi": 59,
            "name": "B3",
            "ticks": 43776,
            "time": 57,
            "velocity": 0.25984251968503935
          },
          {
            "duration": 0,
            "durationTicks": 0,
            "midi": 36,
            "name": "C2",
            "ticks": 43776,
            "time": 57,
            "velocity": 0.33858267716535434
          },
          {
            "duration": 0,
            "durationTicks": 0,
            "midi": 61,
            "name": "C#4",
            "ticks": 43776,
            "time": 57,
            "velocity": 0.28346456692913385
          },
          {
            "duration": 0,
            "durationTicks": 0,
            "midi": 54,
            "name": "F#3",
            "ticks": 43776,
            "time": 57,
            "velocity": 0.2204724409448819
          },
          {
            "duration": 0,
            "durationTicks": 0,
            "midi": 44,
            "name": "G#2",
            "ticks": 43776,
            "time": 57,
            "velocity": 0.2677165354330709
          },
          {
            "duration": 0.125,
            "durationTicks": 96,
            "midi": 41,
            "name": "F2",
            "ticks": 43776,
            "time": 57,
            "velocity": 0.31496062992125984
          },
          {
            "duration": 0.375,
            "durationTicks": 288,
            "midi": 53,
            "name": "F3",
            "ticks": 43776,
            "time": 57,
            "velocity": 0.25984251968503935
          },
          {
            "duration": 0.5,
            "durationTicks": 384,
            "midi": 65,
            "name": "F4",
            "ticks": 43776,
            "time": 57,
            "velocity": 0.25984251968503935
          },
          {
            "duration": 0.125,
            "durationTicks": 96,
            "midi": 41,
            "name": "F2",
            "ticks": 43968,
            "time": 57.25,
            "velocity": 0.2992125984251969
          },
          {
            "duration": 0.375,
            "durationTicks": 288,
            "midi": 65,
            "name": "F4",
            "ticks": 44160,
            "time": 57.5,
            "velocity": 0.25984251968503935
          },
          {
            "duration": 0.125,
            "durationTicks": 96,
            "midi": 62,
            "name": "D4",
            "ticks": 44160,
            "time": 57.5,
            "velocity": 0.2204724409448819
          },
          {
            "duration": 0.125,
            "durationTicks": 96,
            "midi": 67,
            "name": "G4",
            "ticks": 44160,
            "time": 57.5,
            "velocity": 0.2283464566929134
          },
          {
            "duration": 0,
            "durationTicks": 0,
            "midi": 44,
            "name": "G#2",
            "ticks": 44160,
            "time": 57.5,
            "velocity": 0.25984251968503935
          },
          {
            "duration": 0.125,
            "durationTicks": 96,
            "midi": 41,
            "name": "F2",
            "ticks": 44160,
            "time": 57.5,
            "velocity": 0.31496062992125984
          },
          {
            "duration": 0.375,
            "durationTicks": 288,
            "midi": 59,
            "name": "B3",
            "ticks": 44160,
            "time": 57.5,
            "velocity": 0.2677165354330709
          },
          {
            "duration": 0,
            "durationTicks": 0,
            "midi": 61,
            "name": "C#4",
            "ticks": 44160,
            "time": 57.5,
            "velocity": 0.2755905511811024
          },
          {
            "duration": 0,
            "durationTicks": 0,
            "midi": 54,
            "name": "F#3",
            "ticks": 44160,
            "time": 57.5,
            "velocity": 0.2204724409448819
          },
          {
            "duration": 0,
            "durationTicks": 0,
            "midi": 38,
            "name": "D2",
            "ticks": 44160,
            "time": 57.5,
            "velocity": 0.33070866141732286
          },
          {
            "duration": 0.375,
            "durationTicks": 288,
            "midi": 53,
            "name": "F3",
            "ticks": 44160,
            "time": 57.5,
            "velocity": 0.25984251968503935
          },
          {
            "duration": 0,
            "durationTicks": 0,
            "midi": 46,
            "name": "A#2",
            "ticks": 44352,
            "time": 57.75,
            "velocity": 0.2755905511811024
          },
          {
            "duration": 0.25,
            "durationTicks": 192,
            "midi": 41,
            "name": "F2",
            "ticks": 44352,
            "time": 57.75,
            "velocity": 0.31496062992125984
          },
          {
            "duration": 0,
            "durationTicks": 0,
            "midi": 54,
            "name": "F#3",
            "ticks": 44544,
            "time": 58,
            "velocity": 0.2283464566929134
          },
          {
            "duration": 0,
            "durationTicks": 0,
            "midi": 61,
            "name": "C#4",
            "ticks": 44544,
            "time": 58,
            "velocity": 0.2755905511811024
          },
          {
            "duration": 0.375,
            "durationTicks": 288,
            "midi": 64,
            "name": "E4",
            "ticks": 44544,
            "time": 58,
            "velocity": 0.25196850393700787
          },
          {
            "duration": 0,
            "durationTicks": 0,
            "midi": 36,
            "name": "C2",
            "ticks": 44544,
            "time": 58,
            "velocity": 0.33858267716535434
          },
          {
            "duration": 0.375,
            "durationTicks": 288,
            "midi": 52,
            "name": "E3",
            "ticks": 44544,
            "time": 58,
            "velocity": 0.2755905511811024
          },
          {
            "duration": 0,
            "durationTicks": 0,
            "midi": 44,
            "name": "G#2",
            "ticks": 44544,
            "time": 58,
            "velocity": 0.2677165354330709
          },
          {
            "duration": 0.125,
            "durationTicks": 96,
            "midi": 40,
            "name": "E2",
            "ticks": 44544,
            "time": 58,
            "velocity": 0.2992125984251969
          },
          {
            "duration": 0.375,
            "durationTicks": 288,
            "midi": 59,
            "name": "B3",
            "ticks": 44544,
            "time": 58,
            "velocity": 0.2677165354330709
          },
          {
            "duration": 0.125,
            "durationTicks": 96,
            "midi": 40,
            "name": "E2",
            "ticks": 44736,
            "time": 58.25,
            "velocity": 0.31496062992125984
          },
          {
            "duration": 0.375,
            "durationTicks": 288,
            "midi": 52,
            "name": "E3",
            "ticks": 44928,
            "time": 58.5,
            "velocity": 0.2677165354330709
          },
          {
            "duration": 0,
            "durationTicks": 0,
            "midi": 38,
            "name": "D2",
            "ticks": 44928,
            "time": 58.5,
            "velocity": 0.33070866141732286
          },
          {
            "duration": 0,
            "durationTicks": 0,
            "midi": 54,
            "name": "F#3",
            "ticks": 44928,
            "time": 58.5,
            "velocity": 0.2440944881889764
          },
          {
            "duration": 0,
            "durationTicks": 0,
            "midi": 44,
            "name": "G#2",
            "ticks": 44928,
            "time": 58.5,
            "velocity": 0.2677165354330709
          },
          {
            "duration": 0.125,
            "durationTicks": 96,
            "midi": 67,
            "name": "G4",
            "ticks": 44928,
            "time": 58.5,
            "velocity": 0.2283464566929134
          },
          {
            "duration": 0.125,
            "durationTicks": 96,
            "midi": 40,
            "name": "E2",
            "ticks": 44928,
            "time": 58.5,
            "velocity": 0.30708661417322836
          },
          {
            "duration": 0,
            "durationTicks": 0,
            "midi": 61,
            "name": "C#4",
            "ticks": 44928,
            "time": 58.5,
            "velocity": 0.28346456692913385
          },
          {
            "duration": 0.375,
            "durationTicks": 288,
            "midi": 59,
            "name": "B3",
            "ticks": 44928,
            "time": 58.5,
            "velocity": 0.25984251968503935
          },
          {
            "duration": 0.125,
            "durationTicks": 96,
            "midi": 62,
            "name": "D4",
            "ticks": 44928,
            "time": 58.5,
            "velocity": 0.14960629921259844
          },
          {
            "duration": 0.375,
            "durationTicks": 288,
            "midi": 64,
            "name": "E4",
            "ticks": 44928,
            "time": 58.5,
            "velocity": 0.25984251968503935
          },
          {
            "duration": 0.25,
            "durationTicks": 192,
            "midi": 40,
            "name": "E2",
            "ticks": 45120,
            "time": 58.75,
            "velocity": 0.31496062992125984
          },
          {
            "duration": 0,
            "durationTicks": 0,
            "midi": 44,
            "name": "G#2",
            "ticks": 45312,
            "time": 59,
            "velocity": 0.25984251968503935
          },
          {
            "duration": 0,
            "durationTicks": 0,
            "midi": 38,
            "name": "D2",
            "ticks": 45312,
            "time": 59,
            "velocity": 0.31496062992125984
          },
          {
            "duration": 0.375,
            "durationTicks": 288,
            "midi": 59,
            "name": "B3",
            "ticks": 45312,
            "time": 59,
            "velocity": 0.2677165354330709
          },
          {
            "duration": 0.375,
            "durationTicks": 288,
            "midi": 50,
            "name": "D3",
            "ticks": 45312,
            "time": 59,
            "velocity": 0.25984251968503935
          },
          {
            "duration": 0,
            "durationTicks": 0,
            "midi": 36,
            "name": "C2",
            "ticks": 45312,
            "time": 59,
            "velocity": 0.33858267716535434
          },
          {
            "duration": 0,
            "durationTicks": 0,
            "midi": 54,
            "name": "F#3",
            "ticks": 45312,
            "time": 59,
            "velocity": 0.2283464566929134
          },
          {
            "duration": 0.375,
            "durationTicks": 288,
            "midi": 62,
            "name": "D4",
            "ticks": 45312,
            "time": 59,
            "velocity": 0.2440944881889764
          },
          {
            "duration": 0,
            "durationTicks": 0,
            "midi": 60,
            "name": "C4",
            "ticks": 45312,
            "time": 59,
            "velocity": 0.28346456692913385
          },
          {
            "duration": 0.125,
            "durationTicks": 96,
            "midi": 38,
            "name": "D2",
            "ticks": 45312,
            "time": 59,
            "velocity": 0.31496062992125984
          },
          {
            "duration": 0,
            "durationTicks": 0,
            "midi": 38,
            "name": "D2",
            "ticks": 45504,
            "time": 59.25,
            "velocity": 0.30708661417322836
          },
          {
            "duration": 0.125,
            "durationTicks": 96,
            "midi": 38,
            "name": "D2",
            "ticks": 45504,
            "time": 59.25,
            "velocity": 0.30708661417322836
          },
          {
            "duration": 0,
            "durationTicks": 0,
            "midi": 38,
            "name": "D2",
            "ticks": 45600,
            "time": 59.375,
            "velocity": 0.33858267716535434
          },
          {
            "duration": 0,
            "durationTicks": 0,
            "midi": 54,
            "name": "F#3",
            "ticks": 45696,
            "time": 59.5,
            "velocity": 0.2283464566929134
          },
          {
            "duration": 0.125,
            "durationTicks": 96,
            "midi": 62,
            "name": "D4",
            "ticks": 45696,
            "time": 59.5,
            "velocity": 0.1889763779527559
          },
          {
            "duration": 0,
            "durationTicks": 0,
            "midi": 38,
            "name": "D2",
            "ticks": 45696,
            "time": 59.5,
            "velocity": 0.31496062992125984
          },
          {
            "duration": 0,
            "durationTicks": 0,
            "midi": 61,
            "name": "C#4",
            "ticks": 45696,
            "time": 59.5,
            "velocity": 0.2755905511811024
          },
          {
            "duration": 0.125,
            "durationTicks": 96,
            "midi": 67,
            "name": "G4",
            "ticks": 45696,
            "time": 59.5,
            "velocity": 0.25196850393700787
          },
          {
            "duration": 0.125,
            "durationTicks": 96,
            "midi": 38,
            "name": "D2",
            "ticks": 45696,
            "time": 59.5,
            "velocity": 0.31496062992125984
          },
          {
            "duration": 0.375,
            "durationTicks": 288,
            "midi": 50,
            "name": "D3",
            "ticks": 45696,
            "time": 59.5,
            "velocity": 0.25196850393700787
          },
          {
            "duration": 0,
            "durationTicks": 0,
            "midi": 44,
            "name": "G#2",
            "ticks": 45696,
            "time": 59.5,
            "velocity": 0.2755905511811024
          },
          {
            "duration": 0.125,
            "durationTicks": 96,
            "midi": 79,
            "name": "G5",
            "ticks": 45696,
            "time": 59.5,
            "velocity": 0.1968503937007874
          },
          {
            "duration": 0.375,
            "durationTicks": 288,
            "midi": 59,
            "name": "B3",
            "ticks": 45696,
            "time": 59.5,
            "velocity": 0.25984251968503935
          },
          {
            "duration": 0.125,
            "durationTicks": 96,
            "midi": 79,
            "name": "G5",
            "ticks": 45696,
            "time": 59.5,
            "velocity": 0.1968503937007874
          },
          {
            "duration": 0.25,
            "durationTicks": 192,
            "midi": 62,
            "name": "D4",
            "ticks": 45696,
            "time": 59.5,
            "velocity": 0.1889763779527559
          },
          {
            "duration": 0,
            "durationTicks": 0,
            "midi": 38,
            "name": "D2",
            "ticks": 45792,
            "time": 59.625,
            "velocity": 0.33858267716535434
          },
          {
            "duration": 0.125,
            "durationTicks": 96,
            "midi": 81,
            "name": "A5",
            "ticks": 45792,
            "time": 59.625,
            "velocity": 0.2047244094488189
          },
          {
            "duration": 0.125,
            "durationTicks": 96,
            "midi": 81,
            "name": "A5",
            "ticks": 45792,
            "time": 59.625,
            "velocity": 0.2047244094488189
          },
          {
            "duration": 0,
            "durationTicks": 0,
            "midi": 46,
            "name": "A#2",
            "ticks": 45888,
            "time": 59.75,
            "velocity": 0.2677165354330709
          },
          {
            "duration": 0.125,
            "durationTicks": 96,
            "midi": 84,
            "name": "C6",
            "ticks": 45888,
            "time": 59.75,
            "velocity": 0.1889763779527559
          },
          {
            "duration": 0.125,
            "durationTicks": 96,
            "midi": 84,
            "name": "C6",
            "ticks": 45888,
            "time": 59.75,
            "velocity": 0.1889763779527559
          },
          {
            "duration": 0,
            "durationTicks": 0,
            "midi": 38,
            "name": "D2",
            "ticks": 45888,
            "time": 59.75,
            "velocity": 0.30708661417322836
          },
          {
            "duration": 0.125,
            "durationTicks": 96,
            "midi": 38,
            "name": "D2",
            "ticks": 45888,
            "time": 59.75,
            "velocity": 0.30708661417322836
          },
          {
            "duration": 0,
            "durationTicks": 0,
            "midi": 38,
            "name": "D2",
            "ticks": 45984,
            "time": 59.875,
            "velocity": 0.33070866141732286
          },
          {
            "duration": 1,
            "durationTicks": 768,
            "midi": 64,
            "name": "E4",
            "ticks": 46080,
            "time": 60,
            "velocity": 0.1889763779527559
          },
          {
            "duration": 0,
            "durationTicks": 0,
            "midi": 60,
            "name": "C4",
            "ticks": 46080,
            "time": 60,
            "velocity": 0.33070866141732286
          },
          {
            "duration": 0,
            "durationTicks": 0,
            "midi": 54,
            "name": "F#3",
            "ticks": 46080,
            "time": 60,
            "velocity": 0.23622047244094488
          },
          {
            "duration": 0,
            "durationTicks": 0,
            "midi": 36,
            "name": "C2",
            "ticks": 46080,
            "time": 60,
            "velocity": 0.30708661417322836
          },
          {
            "duration": 0,
            "durationTicks": 0,
            "midi": 49,
            "name": "C#3",
            "ticks": 46080,
            "time": 60,
            "velocity": 0.2677165354330709
          },
          {
            "duration": 0,
            "durationTicks": 0,
            "midi": 44,
            "name": "G#2",
            "ticks": 46080,
            "time": 60,
            "velocity": 0.25984251968503935
          },
          {
            "duration": 0.125,
            "durationTicks": 96,
            "midi": 60,
            "name": "C4",
            "ticks": 46080,
            "time": 60,
            "velocity": 0.33070866141732286
          },
          {
            "duration": 1.125,
            "durationTicks": 864,
            "midi": 84,
            "name": "C6",
            "ticks": 46080,
            "time": 60,
            "velocity": 0.2204724409448819
          },
          {
            "duration": 1,
            "durationTicks": 768,
            "midi": 55,
            "name": "G3",
            "ticks": 46080,
            "time": 60,
            "velocity": 0.1889763779527559
          },
          {
            "duration": 0.375,
            "durationTicks": 288,
            "midi": 36,
            "name": "C2",
            "ticks": 46080,
            "time": 60,
            "velocity": 0.30708661417322836
          },
          {
            "duration": 1.125,
            "durationTicks": 864,
            "midi": 48,
            "name": "C3",
            "ticks": 46080,
            "time": 60,
            "velocity": 0.25196850393700787
          },
          {
            "duration": 1.125,
            "durationTicks": 864,
            "midi": 52,
            "name": "E3",
            "ticks": 46080,
            "time": 60,
            "velocity": 0.2677165354330709
          },
          {
            "duration": 1.125,
            "durationTicks": 864,
            "midi": 84,
            "name": "C6",
            "ticks": 46080,
            "time": 60,
            "velocity": 0.2204724409448819
          },
          {
            "duration": 0.125,
            "durationTicks": 96,
            "midi": 60,
            "name": "C4",
            "ticks": 46176,
            "time": 60.125,
            "velocity": 0.33070866141732286
          },
          {
            "duration": 0.125,
            "durationTicks": 96,
            "midi": 60,
            "name": "C4",
            "ticks": 46272,
            "time": 60.25,
            "velocity": 0.33858267716535434
          },
          {
            "duration": 0,
            "durationTicks": 0,
            "midi": 54,
            "name": "F#3",
            "ticks": 46464,
            "time": 60.5,
            "velocity": 0.2204724409448819
          },
          {
            "duration": 0.125,
            "durationTicks": 96,
            "midi": 60,
            "name": "C4",
            "ticks": 46464,
            "time": 60.5,
            "velocity": 0.31496062992125984
          },
          {
            "duration": 0.375,
            "durationTicks": 288,
            "midi": 36,
            "name": "C2",
            "ticks": 46464,
            "time": 60.5,
            "velocity": 0.30708661417322836
          },
          {
            "duration": 0,
            "durationTicks": 0,
            "midi": 38,
            "name": "D2",
            "ticks": 46464,
            "time": 60.5,
            "velocity": 0.33858267716535434
          },
          {
            "duration": 0,
            "durationTicks": 0,
            "midi": 61,
            "name": "C#4",
            "ticks": 46464,
            "time": 60.5,
            "velocity": 0.2755905511811024
          },
          {
            "duration": 0,
            "durationTicks": 0,
            "midi": 44,
            "name": "G#2",
            "ticks": 46464,
            "time": 60.5,
            "velocity": 0.2677165354330709
          },
          {
            "duration": 0.125,
            "durationTicks": 96,
            "midi": 60,
            "name": "C4",
            "ticks": 46560,
            "time": 60.625,
            "velocity": 0.33858267716535434
          },
          {
            "duration": 0.125,
            "durationTicks": 96,
            "midi": 60,
            "name": "C4",
            "ticks": 46656,
            "time": 60.75,
            "velocity": 0.3228346456692913
          },
          {
            "duration": 0.25,
            "durationTicks": 192,
            "midi": 60,
            "name": "C4",
            "ticks": 46656,
            "time": 60.75,
            "velocity": 0.3228346456692913
          },
          {
            "duration": 0,
            "durationTicks": 0,
            "midi": 36,
            "name": "C2",
            "ticks": 46848,
            "time": 61,
            "velocity": 0.30708661417322836
          },
          {
            "duration": 0,
            "durationTicks": 0,
            "midi": 44,
            "name": "G#2",
            "ticks": 46848,
            "time": 61,
            "velocity": 0.2677165354330709
          },
          {
            "duration": 0,
            "durationTicks": 0,
            "midi": 54,
            "name": "F#3",
            "ticks": 46848,
            "time": 61,
            "velocity": 0.2283464566929134
          },
          {
            "duration": 0.125,
            "durationTicks": 96,
            "midi": 36,
            "name": "C2",
            "ticks": 46848,
            "time": 61,
            "velocity": 0.30708661417322836
          },
          {
            "duration": 0,
            "durationTicks": 0,
            "midi": 60,
            "name": "C4",
            "ticks": 46848,
            "time": 61,
            "velocity": 0.2755905511811024
          },
          {
            "duration": 0.125,
            "durationTicks": 96,
            "midi": 36,
            "name": "C2",
            "ticks": 47040,
            "time": 61.25,
            "velocity": 0.31496062992125984
          },
          {
            "duration": 0.25,
            "durationTicks": 192,
            "midi": 84,
            "name": "C6",
            "ticks": 47040,
            "time": 61.25,
            "velocity": 0.1968503937007874
          },
          {
            "duration": 0.125,
            "durationTicks": 96,
            "midi": 64,
            "name": "E4",
            "ticks": 47040,
            "time": 61.25,
            "velocity": 0.23622047244094488
          },
          {
            "duration": 0.25,
            "durationTicks": 192,
            "midi": 60,
            "name": "C4",
            "ticks": 47040,
            "time": 61.25,
            "velocity": 0.25196850393700787
          },
          {
            "duration": 0.25,
            "durationTicks": 192,
            "midi": 64,
            "name": "E4",
            "ticks": 47040,
            "time": 61.25,
            "velocity": 0.23622047244094488
          },
          {
            "duration": 0.25,
            "durationTicks": 192,
            "midi": 84,
            "name": "C6",
            "ticks": 47040,
            "time": 61.25,
            "velocity": 0.1968503937007874
          },
          {
            "duration": 0.125,
            "durationTicks": 96,
            "midi": 48,
            "name": "C3",
            "ticks": 47040,
            "time": 61.25,
            "velocity": 0.2755905511811024
          },
          {
            "duration": 0.25,
            "durationTicks": 192,
            "midi": 55,
            "name": "G3",
            "ticks": 47040,
            "time": 61.25,
            "velocity": 0.1889763779527559
          },
          {
            "duration": 0.125,
            "durationTicks": 96,
            "midi": 52,
            "name": "E3",
            "ticks": 47040,
            "time": 61.25,
            "velocity": 0.2755905511811024
          },
          {
            "duration": 0,
            "durationTicks": 0,
            "midi": 44,
            "name": "G#2",
            "ticks": 47232,
            "time": 61.5,
            "velocity": 0.2677165354330709
          },
          {
            "duration": 0.25,
            "durationTicks": 192,
            "midi": 81,
            "name": "A5",
            "ticks": 47232,
            "time": 61.5,
            "velocity": 0.1889763779527559
          },
          {
            "duration": 0.25,
            "durationTicks": 192,
            "midi": 81,
            "name": "A5",
            "ticks": 47232,
            "time": 61.5,
            "velocity": 0.1889763779527559
          },
          {
            "duration": 0.25,
            "durationTicks": 192,
            "midi": 36,
            "name": "C2",
            "ticks": 47232,
            "time": 61.5,
            "velocity": 0.30708661417322836
          },
          {
            "duration": 0,
            "durationTicks": 0,
            "midi": 61,
            "name": "C#4",
            "ticks": 47232,
            "time": 61.5,
            "velocity": 0.28346456692913385
          },
          {
            "duration": 0,
            "durationTicks": 0,
            "midi": 38,
            "name": "D2",
            "ticks": 47232,
            "time": 61.5,
            "velocity": 0.33858267716535434
          },
          {
            "duration": 0,
            "durationTicks": 0,
            "midi": 54,
            "name": "F#3",
            "ticks": 47232,
            "time": 61.5,
            "velocity": 0.2283464566929134
          },
          {
            "duration": 0,
            "durationTicks": 0,
            "midi": 60,
            "name": "C4",
            "ticks": 47328,
            "time": 61.625,
            "velocity": 0.28346456692913385
          },
          {
            "duration": 0.5,
            "durationTicks": 384,
            "midi": 57,
            "name": "A3",
            "ticks": 47424,
            "time": 61.75,
            "velocity": 0.23622047244094488
          },
          {
            "duration": 0.25,
            "durationTicks": 192,
            "midi": 84,
            "name": "C6",
            "ticks": 47424,
            "time": 61.75,
            "velocity": 0.2047244094488189
          },
          {
            "duration": 0.25,
            "durationTicks": 192,
            "midi": 60,
            "name": "C4",
            "ticks": 47424,
            "time": 61.75,
            "velocity": 0.2125984251968504
          },
          {
            "duration": 0,
            "durationTicks": 0,
            "midi": 61,
            "name": "C#4",
            "ticks": 47424,
            "time": 61.75,
            "velocity": 0.28346456692913385
          },
          {
            "duration": 1.375,
            "durationTicks": 1056,
            "midi": 50,
            "name": "D3",
            "ticks": 47424,
            "time": 61.75,
            "velocity": 0.25984251968503935
          },
          {
            "duration": 0.25,
            "durationTicks": 192,
            "midi": 84,
            "name": "C6",
            "ticks": 47424,
            "time": 61.75,
            "velocity": 0.2047244094488189
          },
          {
            "duration": 0,
            "durationTicks": 0,
            "midi": 46,
            "name": "A#2",
            "ticks": 47424,
            "time": 61.75,
            "velocity": 0.2755905511811024
          },
          {
            "duration": 0.625,
            "durationTicks": 480,
            "midi": 38,
            "name": "D2",
            "ticks": 47424,
            "time": 61.75,
            "velocity": 0.31496062992125984
          },
          {
            "duration": 0.25,
            "durationTicks": 192,
            "midi": 66,
            "name": "F#4",
            "ticks": 47424,
            "time": 61.75,
            "velocity": 0.1732283464566929
          },
          {
            "duration": 0,
            "durationTicks": 0,
            "midi": 54,
            "name": "F#3",
            "ticks": 47616,
            "time": 62,
            "velocity": 0.2440944881889764
          },
          {
            "duration": 0,
            "durationTicks": 0,
            "midi": 60,
            "name": "C4",
            "ticks": 47616,
            "time": 62,
            "velocity": 0.2440944881889764
          },
          {
            "duration": 0,
            "durationTicks": 0,
            "midi": 36,
            "name": "C2",
            "ticks": 47616,
            "time": 62,
            "velocity": 0.33070866141732286
          },
          {
            "duration": 0,
            "durationTicks": 0,
            "midi": 44,
            "name": "G#2",
            "ticks": 47616,
            "time": 62,
            "velocity": 0.2755905511811024
          },
          {
            "duration": 0.25,
            "durationTicks": 192,
            "midi": 60,
            "name": "C4",
            "ticks": 47616,
            "time": 62,
            "velocity": 0.2440944881889764
          },
          {
            "duration": 1.25,
            "durationTicks": 960,
            "midi": 88,
            "name": "E6",
            "ticks": 47616,
            "time": 62,
            "velocity": 0.2047244094488189
          },
          {
            "duration": 0.25,
            "durationTicks": 192,
            "midi": 66,
            "name": "F#4",
            "ticks": 47616,
            "time": 62,
            "velocity": 0.2047244094488189
          },
          {
            "duration": 1.25,
            "durationTicks": 960,
            "midi": 88,
            "name": "E6",
            "ticks": 47616,
            "time": 62,
            "velocity": 0.2047244094488189
          },
          {
            "duration": 0.25,
            "durationTicks": 192,
            "midi": 69,
            "name": "A4",
            "ticks": 48000,
            "time": 62.5,
            "velocity": 0.31496062992125984
          },
          {
            "duration": 0.25,
            "durationTicks": 192,
            "midi": 66,
            "name": "F#4",
            "ticks": 48000,
            "time": 62.5,
            "velocity": 0.1889763779527559
          },
          {
            "duration": 0,
            "durationTicks": 0,
            "midi": 61,
            "name": "C#4",
            "ticks": 48000,
            "time": 62.5,
            "velocity": 0.2755905511811024
          },
          {
            "duration": 0,
            "durationTicks": 0,
            "midi": 38,
            "name": "D2",
            "ticks": 48000,
            "time": 62.5,
            "velocity": 0.31496062992125984
          },
          {
            "duration": 0,
            "durationTicks": 0,
            "midi": 54,
            "name": "F#3",
            "ticks": 48000,
            "time": 62.5,
            "velocity": 0.23622047244094488
          },
          {
            "duration": 0.25,
            "durationTicks": 192,
            "midi": 60,
            "name": "C4",
            "ticks": 48000,
            "time": 62.5,
            "velocity": 0.25196850393700787
          },
          {
            "duration": 0.375,
            "durationTicks": 288,
            "midi": 38,
            "name": "D2",
            "ticks": 48000,
            "time": 62.5,
            "velocity": 0.31496062992125984
          },
          {
            "duration": 0,
            "durationTicks": 0,
            "midi": 44,
            "name": "G#2",
            "ticks": 48000,
            "time": 62.5,
            "velocity": 0.2755905511811024
          },
          {
            "duration": 0.25,
            "durationTicks": 192,
            "midi": 57,
            "name": "A3",
            "ticks": 48000,
            "time": 62.5,
            "velocity": 0.1889763779527559
          },
          {
            "duration": 0,
            "durationTicks": 0,
            "midi": 54,
            "name": "F#3",
            "ticks": 48384,
            "time": 63,
            "velocity": 0.2204724409448819
          },
          {
            "duration": 0.125,
            "durationTicks": 96,
            "midi": 54,
            "name": "F#3",
            "ticks": 48384,
            "time": 63,
            "velocity": 0.2204724409448819
          },
          {
            "duration": 0,
            "durationTicks": 0,
            "midi": 60,
            "name": "C4",
            "ticks": 48384,
            "time": 63,
            "velocity": 0.2440944881889764
          },
          {
            "duration": 0.125,
            "durationTicks": 96,
            "midi": 38,
            "name": "D2",
            "ticks": 48384,
            "time": 63,
            "velocity": 0.31496062992125984
          },
          {
            "duration": 0.25,
            "durationTicks": 192,
            "midi": 57,
            "name": "A3",
            "ticks": 48384,
            "time": 63,
            "velocity": 0.1968503937007874
          },
          {
            "duration": 0,
            "durationTicks": 0,
            "midi": 36,
            "name": "C2",
            "ticks": 48384,
            "time": 63,
            "velocity": 0.33858267716535434
          },
          {
            "duration": 0.25,
            "durationTicks": 192,
            "midi": 66,
            "name": "F#4",
            "ticks": 48384,
            "time": 63,
            "velocity": 0.2047244094488189
          },
          {
            "duration": 0,
            "durationTicks": 0,
            "midi": 44,
            "name": "G#2",
            "ticks": 48384,
            "time": 63,
            "velocity": 0.25984251968503935
          },
          {
            "duration": 0.25,
            "durationTicks": 192,
            "midi": 60,
            "name": "C4",
            "ticks": 48384,
            "time": 63,
            "velocity": 0.2440944881889764
          },
          {
            "duration": 0.375,
            "durationTicks": 288,
            "midi": 64,
            "name": "E4",
            "ticks": 48384,
            "time": 63,
            "velocity": 0.33070866141732286
          },
          {
            "duration": 0.25,
            "durationTicks": 192,
            "midi": 60,
            "name": "C4",
            "ticks": 48576,
            "time": 63.25,
            "velocity": 0.25196850393700787
          },
          {
            "duration": 0.125,
            "durationTicks": 96,
            "midi": 54,
            "name": "F#3",
            "ticks": 48576,
            "time": 63.25,
            "velocity": 0.2677165354330709
          },
          {
            "duration": 0.125,
            "durationTicks": 96,
            "midi": 38,
            "name": "D2",
            "ticks": 48576,
            "time": 63.25,
            "velocity": 0.31496062992125984
          },
          {
            "duration": 0.25,
            "durationTicks": 192,
            "midi": 57,
            "name": "A3",
            "ticks": 48576,
            "time": 63.25,
            "velocity": 0.1889763779527559
          },
          {
            "duration": 0.25,
            "durationTicks": 192,
            "midi": 66,
            "name": "F#4",
            "ticks": 48576,
            "time": 63.25,
            "velocity": 0.25984251968503935
          },
          {
            "duration": 0.125,
            "durationTicks": 96,
            "midi": 50,
            "name": "D3",
            "ticks": 48576,
            "time": 63.25,
            "velocity": 0.2755905511811024
          },
          {
            "duration": 0,
            "durationTicks": 0,
            "midi": 38,
            "name": "D2",
            "ticks": 48768,
            "time": 63.5,
            "velocity": 0.2992125984251969
          },
          {
            "duration": 0,
            "durationTicks": 0,
            "midi": 54,
            "name": "F#3",
            "ticks": 48768,
            "time": 63.5,
            "velocity": 0.2204724409448819
          },
          {
            "duration": 0.125,
            "durationTicks": 96,
            "midi": 88,
            "name": "E6",
            "ticks": 48768,
            "time": 63.5,
            "velocity": 0.2125984251968504
          },
          {
            "duration": 0.25,
            "durationTicks": 192,
            "midi": 38,
            "name": "D2",
            "ticks": 48768,
            "time": 63.5,
            "velocity": 0.2992125984251969
          },
          {
            "duration": 0.125,
            "durationTicks": 96,
            "midi": 88,
            "name": "E6",
            "ticks": 48768,
            "time": 63.5,
            "velocity": 0.2125984251968504
          },
          {
            "duration": 0,
            "durationTicks": 0,
            "midi": 61,
            "name": "C#4",
            "ticks": 48768,
            "time": 63.5,
            "velocity": 0.28346456692913385
          },
          {
            "duration": 0,
            "durationTicks": 0,
            "midi": 44,
            "name": "G#2",
            "ticks": 48768,
            "time": 63.5,
            "velocity": 0.25984251968503935
          },
          {
            "duration": 0.125,
            "durationTicks": 96,
            "midi": 86,
            "name": "D6",
            "ticks": 48864,
            "time": 63.625,
            "velocity": 0.2047244094488189
          },
          {
            "duration": 0.125,
            "durationTicks": 96,
            "midi": 86,
            "name": "D6",
            "ticks": 48864,
            "time": 63.625,
            "velocity": 0.2047244094488189
          },
          {
            "duration": 0.125,
            "durationTicks": 96,
            "midi": 84,
            "name": "C6",
            "ticks": 48960,
            "time": 63.75,
            "velocity": 0.1968503937007874
          },
          {
            "duration": 0.125,
            "durationTicks": 96,
            "midi": 84,
            "name": "C6",
            "ticks": 48960,
            "time": 63.75,
            "velocity": 0.1968503937007874
          },
          {
            "duration": 0.25,
            "durationTicks": 192,
            "midi": 40,
            "name": "E2",
            "ticks": 48960,
            "time": 63.75,
            "velocity": 0.30708661417322836
          },
          {
            "duration": 1.375,
            "durationTicks": 1056,
            "midi": 53,
            "name": "F3",
            "ticks": 48960,
            "time": 63.75,
            "velocity": 0.25984251968503935
          },
          {
            "duration": 0,
            "durationTicks": 0,
            "midi": 46,
            "name": "A#2",
            "ticks": 48960,
            "time": 63.75,
            "velocity": 0.2755905511811024
          },
          {
            "duration": 0.125,
            "durationTicks": 96,
            "midi": 81,
            "name": "A5",
            "ticks": 49056,
            "time": 63.875,
            "velocity": 0.1968503937007874
          },
          {
            "duration": 0.125,
            "durationTicks": 96,
            "midi": 81,
            "name": "A5",
            "ticks": 49056,
            "time": 63.875,
            "velocity": 0.1968503937007874
          },
          {
            "duration": 0,
            "durationTicks": 0,
            "midi": 60,
            "name": "C4",
            "ticks": 49152,
            "time": 64,
            "velocity": 0.2677165354330709
          },
          {
            "duration": 0,
            "durationTicks": 0,
            "midi": 36,
            "name": "C2",
            "ticks": 49152,
            "time": 64,
            "velocity": 0.33858267716535434
          },
          {
            "duration": 0,
            "durationTicks": 0,
            "midi": 49,
            "name": "C#3",
            "ticks": 49152,
            "time": 64,
            "velocity": 0.2755905511811024
          },
          {
            "duration": 1,
            "durationTicks": 768,
            "midi": 57,
            "name": "A3",
            "ticks": 49152,
            "time": 64,
            "velocity": 0.25984251968503935
          },
          {
            "duration": 0.375,
            "durationTicks": 288,
            "midi": 41,
            "name": "F2",
            "ticks": 49152,
            "time": 64,
            "velocity": 0.2992125984251969
          },
          {
            "duration": 0,
            "durationTicks": 0,
            "midi": 54,
            "name": "F#3",
            "ticks": 49152,
            "time": 64,
            "velocity": 0.2283464566929134
          },
          {
            "duration": 1.25,
            "durationTicks": 960,
            "midi": 84,
            "name": "C6",
            "ticks": 49152,
            "time": 64,
            "velocity": 0.2047244094488189
          },
          {
            "duration": 0,
            "durationTicks": 0,
            "midi": 44,
            "name": "G#2",
            "ticks": 49152,
            "time": 64,
            "velocity": 0.2677165354330709
          },
          {
            "duration": 1,
            "durationTicks": 768,
            "midi": 60,
            "name": "C4",
            "ticks": 49152,
            "time": 64,
            "velocity": 0.2677165354330709
          },
          {
            "duration": 1.125,
            "durationTicks": 864,
            "midi": 57,
            "name": "A3",
            "ticks": 49152,
            "time": 64,
            "velocity": 0.25984251968503935
          },
          {
            "duration": 1,
            "durationTicks": 768,
            "midi": 65,
            "name": "F4",
            "ticks": 49152,
            "time": 64,
            "velocity": 0.2125984251968504
          },
          {
            "duration": 1.25,
            "durationTicks": 960,
            "midi": 84,
            "name": "C6",
            "ticks": 49152,
            "time": 64,
            "velocity": 0.2047244094488189
          },
          {
            "duration": 0.375,
            "durationTicks": 288,
            "midi": 41,
            "name": "F2",
            "ticks": 49536,
            "time": 64.5,
            "velocity": 0.31496062992125984
          },
          {
            "duration": 0,
            "durationTicks": 0,
            "midi": 44,
            "name": "G#2",
            "ticks": 49536,
            "time": 64.5,
            "velocity": 0.25984251968503935
          },
          {
            "duration": 0,
            "durationTicks": 0,
            "midi": 38,
            "name": "D2",
            "ticks": 49536,
            "time": 64.5,
            "velocity": 0.33070866141732286
          },
          {
            "duration": 0.125,
            "durationTicks": 96,
            "midi": 64,
            "name": "E4",
            "ticks": 49536,
            "time": 64.5,
            "velocity": 0.3228346456692913
          },
          {
            "duration": 0,
            "durationTicks": 0,
            "midi": 54,
            "name": "F#3",
            "ticks": 49536,
            "time": 64.5,
            "velocity": 0.2440944881889764
          },
          {
            "duration": 0,
            "durationTicks": 0,
            "midi": 61,
            "name": "C#4",
            "ticks": 49536,
            "time": 64.5,
            "velocity": 0.28346456692913385
          },
          {
            "duration": 0.125,
            "durationTicks": 96,
            "midi": 64,
            "name": "E4",
            "ticks": 49728,
            "time": 64.75,
            "velocity": 0.31496062992125984
          },
          {
            "duration": 0.125,
            "durationTicks": 96,
            "midi": 41,
            "name": "F2",
            "ticks": 49920,
            "time": 65,
            "velocity": 0.31496062992125984
          },
          {
            "duration": 0,
            "durationTicks": 0,
            "midi": 54,
            "name": "F#3",
            "ticks": 49920,
            "time": 65,
            "velocity": 0.2204724409448819
          },
          {
            "duration": 0.25,
            "durationTicks": 192,
            "midi": 69,
            "name": "A4",
            "ticks": 49920,
            "time": 65,
            "velocity": 0.3228346456692913
          },
          {
            "duration": 0,
            "durationTicks": 0,
            "midi": 60,
            "name": "C4",
            "ticks": 49920,
            "time": 65,
            "velocity": 0.2755905511811024
          },
          {
            "duration": 0,
            "durationTicks": 0,
            "midi": 36,
            "name": "C2",
            "ticks": 49920,
            "time": 65,
            "velocity": 0.33858267716535434
          },
          {
            "duration": 0,
            "durationTicks": 0,
            "midi": 44,
            "name": "G#2",
            "ticks": 49920,
            "time": 65,
            "velocity": 0.25984251968503935
          },
          {
            "duration": 0.25,
            "durationTicks": 192,
            "midi": 57,
            "name": "A3",
            "ticks": 50112,
            "time": 65.25,
            "velocity": 0.2283464566929134
          },
          {
            "duration": 0.25,
            "durationTicks": 192,
            "midi": 84,
            "name": "C6",
            "ticks": 50112,
            "time": 65.25,
            "velocity": 0.2047244094488189
          },
          {
            "duration": 0.25,
            "durationTicks": 192,
            "midi": 60,
            "name": "C4",
            "ticks": 50112,
            "time": 65.25,
            "velocity": 0.2204724409448819
          },
          {
            "duration": 0.125,
            "durationTicks": 96,
            "midi": 41,
            "name": "F2",
            "ticks": 50112,
            "time": 65.25,
            "velocity": 0.2992125984251969
          },
          {
            "duration": 0.375,
            "durationTicks": 288,
            "midi": 57,
            "name": "A3",
            "ticks": 50112,
            "time": 65.25,
            "velocity": 0.2283464566929134
          },
          {
            "duration": 0.25,
            "durationTicks": 192,
            "midi": 65,
            "name": "F4",
            "ticks": 50112,
            "time": 65.25,
            "velocity": 0.2204724409448819
          },
          {
            "duration": 0.375,
            "durationTicks": 288,
            "midi": 53,
            "name": "F3",
            "ticks": 50112,
            "time": 65.25,
            "velocity": 0.2677165354330709
          },
          {
            "duration": 0.25,
            "durationTicks": 192,
            "midi": 84,
            "name": "C6",
            "ticks": 50112,
            "time": 65.25,
            "velocity": 0.2047244094488189
          },
          {
            "duration": 0.125,
            "durationTicks": 96,
            "midi": 41,
            "name": "F2",
            "ticks": 50304,
            "time": 65.5,
            "velocity": 0.31496062992125984
          },
          {
            "duration": 0,
            "durationTicks": 0,
            "midi": 44,
            "name": "G#2",
            "ticks": 50304,
            "time": 65.5,
            "velocity": 0.2677165354330709
          },
          {
            "duration": 0.25,
            "durationTicks": 192,
            "midi": 81,
            "name": "A5",
            "ticks": 50304,
            "time": 65.5,
            "velocity": 0.2204724409448819
          },
          {
            "duration": 0,
            "durationTicks": 0,
            "midi": 54,
            "name": "F#3",
            "ticks": 50304,
            "time": 65.5,
            "velocity": 0.23622047244094488
          },
          {
            "duration": 0.25,
            "durationTicks": 192,
            "midi": 64,
            "name": "E4",
            "ticks": 50304,
            "time": 65.5,
            "velocity": 0.31496062992125984
          },
          {
            "duration": 0,
            "durationTicks": 0,
            "midi": 61,
            "name": "C#4",
            "ticks": 50304,
            "time": 65.5,
            "velocity": 0.2755905511811024
          },
          {
            "duration": 0.25,
            "durationTicks": 192,
            "midi": 81,
            "name": "A5",
            "ticks": 50304,
            "time": 65.5,
            "velocity": 0.2204724409448819
          },
          {
            "duration": 0,
            "durationTicks": 0,
            "midi": 38,
            "name": "D2",
            "ticks": 50304,
            "time": 65.5,
            "velocity": 0.33858267716535434
          },
          {
            "duration": 0,
            "durationTicks": 0,
            "midi": 60,
            "name": "C4",
            "ticks": 50400,
            "time": 65.625,
            "velocity": 0.2755905511811024
          },
          {
            "duration": 0.25,
            "durationTicks": 192,
            "midi": 59,
            "name": "B3",
            "ticks": 50496,
            "time": 65.75,
            "velocity": 0.2047244094488189
          },
          {
            "duration": 0.25,
            "durationTicks": 192,
            "midi": 62,
            "name": "D4",
            "ticks": 50496,
            "time": 65.75,
            "velocity": 0.25196850393700787
          },
          {
            "duration": 0.25,
            "durationTicks": 192,
            "midi": 67,
            "name": "G4",
            "ticks": 50496,
            "time": 65.75,
            "velocity": 0.14173228346456693
          },
          {
            "duration": 0.25,
            "durationTicks": 192,
            "midi": 84,
            "name": "C6",
            "ticks": 50496,
            "time": 65.75,
            "velocity": 0.2204724409448819
          },
          {
            "duration": 0.25,
            "durationTicks": 192,
            "midi": 41,
            "name": "F2",
            "ticks": 50496,
            "time": 65.75,
            "velocity": 0.31496062992125984
          },
          {
            "duration": 0.25,
            "durationTicks": 192,
            "midi": 84,
            "name": "C6",
            "ticks": 50496,
            "time": 65.75,
            "velocity": 0.2204724409448819
          },
          {
            "duration": 0,
            "durationTicks": 0,
            "midi": 61,
            "name": "C#4",
            "ticks": 50496,
            "time": 65.75,
            "velocity": 0.28346456692913385
          },
          {
            "duration": 0,
            "durationTicks": 0,
            "midi": 46,
            "name": "A#2",
            "ticks": 50496,
            "time": 65.75,
            "velocity": 0.2755905511811024
          },
          {
            "duration": 0.5,
            "durationTicks": 384,
            "midi": 55,
            "name": "G3",
            "ticks": 50688,
            "time": 66,
            "velocity": 0.2755905511811024
          },
          {
            "duration": 0.375,
            "durationTicks": 288,
            "midi": 43,
            "name": "G2",
            "ticks": 50688,
            "time": 66,
            "velocity": 0.2992125984251969
          },
          {
            "duration": 0.5,
            "durationTicks": 384,
            "midi": 88,
            "name": "E6",
            "ticks": 50688,
            "time": 66,
            "velocity": 0.1968503937007874
          },
          {
            "duration": 0,
            "durationTicks": 0,
            "midi": 60,
            "name": "C4",
            "ticks": 50688,
            "time": 66,
            "velocity": 0.28346456692913385
          },
          {
            "duration": 0.5,
            "durationTicks": 384,
            "midi": 88,
            "name": "E6",
            "ticks": 50688,
            "time": 66,
            "velocity": 0.1968503937007874
          },
          {
            "duration": 0,
            "durationTicks": 0,
            "midi": 54,
            "name": "F#3",
            "ticks": 50688,
            "time": 66,
            "velocity": 0.23622047244094488
          },
          {
            "duration": 0.5,
            "durationTicks": 384,
            "midi": 52,
            "name": "E3",
            "ticks": 50688,
            "time": 66,
            "velocity": 0.2677165354330709
          },
          {
            "duration": 0,
            "durationTicks": 0,
            "midi": 36,
            "name": "C2",
            "ticks": 50688,
            "time": 66,
            "velocity": 0.33858267716535434
          },
          {
            "duration": 0,
            "durationTicks": 0,
            "midi": 44,
            "name": "G#2",
            "ticks": 50688,
            "time": 66,
            "velocity": 0.25984251968503935
          },
          {
            "duration": 0.125,
            "durationTicks": 96,
            "midi": 59,
            "name": "B3",
            "ticks": 51072,
            "time": 66.5,
            "velocity": 0.1968503937007874
          },
          {
            "duration": 0.125,
            "durationTicks": 96,
            "midi": 67,
            "name": "G4",
            "ticks": 51072,
            "time": 66.5,
            "velocity": 0.18110236220472442
          },
          {
            "duration": 0,
            "durationTicks": 0,
            "midi": 38,
            "name": "D2",
            "ticks": 51072,
            "time": 66.5,
            "velocity": 0.33070866141732286
          },
          {
            "duration": 0.5,
            "durationTicks": 384,
            "midi": 86,
            "name": "D6",
            "ticks": 51072,
            "time": 66.5,
            "velocity": 0.1889763779527559
          },
          {
            "duration": 0.125,
            "durationTicks": 96,
            "midi": 62,
            "name": "D4",
            "ticks": 51072,
            "time": 66.5,
            "velocity": 0.2992125984251969
          },
          {
            "duration": 0.25,
            "durationTicks": 192,
            "midi": 69,
            "name": "A4",
            "ticks": 51072,
            "time": 66.5,
            "velocity": 0.3228346456692913
          },
          {
            "duration": 0,
            "durationTicks": 0,
            "midi": 54,
            "name": "F#3",
            "ticks": 51072,
            "time": 66.5,
            "velocity": 0.2204724409448819
          },
          {
            "duration": 0,
            "durationTicks": 0,
            "midi": 44,
            "name": "G#2",
            "ticks": 51072,
            "time": 66.5,
            "velocity": 0.25984251968503935
          },
          {
            "duration": 0,
            "durationTicks": 0,
            "midi": 61,
            "name": "C#4",
            "ticks": 51072,
            "time": 66.5,
            "velocity": 0.28346456692913385
          },
          {
            "duration": 0.5,
            "durationTicks": 384,
            "midi": 86,
            "name": "D6",
            "ticks": 51072,
            "time": 66.5,
            "velocity": 0.1889763779527559
          },
          {
            "duration": 0.375,
            "durationTicks": 288,
            "midi": 43,
            "name": "G2",
            "ticks": 51072,
            "time": 66.5,
            "velocity": 0.2992125984251969
          },
          {
            "duration": 0.375,
            "durationTicks": 288,
            "midi": 55,
            "name": "G3",
            "ticks": 51264,
            "time": 66.75,
            "velocity": 0.25196850393700787
          },
          {
            "duration": 0.375,
            "durationTicks": 288,
            "midi": 50,
            "name": "D3",
            "ticks": 51264,
            "time": 66.75,
            "velocity": 0.25984251968503935
          },
          {
            "duration": 0.125,
            "durationTicks": 96,
            "midi": 43,
            "name": "G2",
            "ticks": 51456,
            "time": 67,
            "velocity": 0.31496062992125984
          },
          {
            "duration": 0.25,
            "durationTicks": 192,
            "midi": 62,
            "name": "D4",
            "ticks": 51456,
            "time": 67,
            "velocity": 0.29133858267716534
          },
          {
            "duration": 0.25,
            "durationTicks": 192,
            "midi": 59,
            "name": "B3",
            "ticks": 51456,
            "time": 67,
            "velocity": 0.1889763779527559
          },
          {
            "duration": 0,
            "durationTicks": 0,
            "midi": 54,
            "name": "F#3",
            "ticks": 51456,
            "time": 67,
            "velocity": 0.2440944881889764
          },
          {
            "duration": 0,
            "durationTicks": 0,
            "midi": 60,
            "name": "C4",
            "ticks": 51456,
            "time": 67,
            "velocity": 0.2755905511811024
          },
          {
            "duration": 0.25,
            "durationTicks": 192,
            "midi": 64,
            "name": "E4",
            "ticks": 51456,
            "time": 67,
            "velocity": 0.3228346456692913
          },
          {
            "duration": 0.5,
            "durationTicks": 384,
            "midi": 84,
            "name": "C6",
            "ticks": 51456,
            "time": 67,
            "velocity": 0.2125984251968504
          },
          {
            "duration": 0,
            "durationTicks": 0,
            "midi": 36,
            "name": "C2",
            "ticks": 51456,
            "time": 67,
            "velocity": 0.33070866141732286
          },
          {
            "duration": 0,
            "durationTicks": 0,
            "midi": 44,
            "name": "G#2",
            "ticks": 51456,
            "time": 67,
            "velocity": 0.2677165354330709
          },
          {
            "duration": 0.25,
            "durationTicks": 192,
            "midi": 67,
            "name": "G4",
            "ticks": 51456,
            "time": 67,
            "velocity": 0.2283464566929134
          },
          {
            "duration": 0.5,
            "durationTicks": 384,
            "midi": 84,
            "name": "C6",
            "ticks": 51456,
            "time": 67,
            "velocity": 0.2125984251968504
          },
          {
            "duration": 0.5,
            "durationTicks": 384,
            "midi": 55,
            "name": "G3",
            "ticks": 51648,
            "time": 67.25,
            "velocity": 0.25984251968503935
          },
          {
            "duration": 0,
            "durationTicks": 0,
            "midi": 38,
            "name": "D2",
            "ticks": 51648,
            "time": 67.25,
            "velocity": 0.33858267716535434
          },
          {
            "duration": 0.5,
            "durationTicks": 384,
            "midi": 50,
            "name": "D3",
            "ticks": 51648,
            "time": 67.25,
            "velocity": 0.2755905511811024
          },
          {
            "duration": 0.125,
            "durationTicks": 96,
            "midi": 67,
            "name": "G4",
            "ticks": 51648,
            "time": 67.25,
            "velocity": 0.2440944881889764
          },
          {
            "duration": 0.125,
            "durationTicks": 96,
            "midi": 59,
            "name": "B3",
            "ticks": 51648,
            "time": 67.25,
            "velocity": 0.2125984251968504
          },
          {
            "duration": 0.125,
            "durationTicks": 96,
            "midi": 62,
            "name": "D4",
            "ticks": 51648,
            "time": 67.25,
            "velocity": 0.2125984251968504
          },
          {
            "duration": 0.25,
            "durationTicks": 192,
            "midi": 43,
            "name": "G2",
            "ticks": 51648,
            "time": 67.25,
            "velocity": 0.30708661417322836
          },
          {
            "duration": 0.5,
            "durationTicks": 384,
            "midi": 81,
            "name": "A5",
            "ticks": 51840,
            "time": 67.5,
            "velocity": 0.2204724409448819
          },
          {
            "duration": 0.5,
            "durationTicks": 384,
            "midi": 81,
            "name": "A5",
            "ticks": 51840,
            "time": 67.5,
            "velocity": 0.2204724409448819
          },
          {
            "duration": 0,
            "durationTicks": 0,
            "midi": 54,
            "name": "F#3",
            "ticks": 51840,
            "time": 67.5,
            "velocity": 0.23622047244094488
          },
          {
            "duration": 0,
            "durationTicks": 0,
            "midi": 38,
            "name": "D2",
            "ticks": 51840,
            "time": 67.5,
            "velocity": 0.33858267716535434
          },
          {
            "duration": 0,
            "durationTicks": 0,
            "midi": 61,
            "name": "C#4",
            "ticks": 51840,
            "time": 67.5,
            "velocity": 0.28346456692913385
          },
          {
            "duration": 0,
            "durationTicks": 0,
            "midi": 44,
            "name": "G#2",
            "ticks": 51840,
            "time": 67.5,
            "velocity": 0.2677165354330709
          },
          {
            "duration": 0.25,
            "durationTicks": 192,
            "midi": 41,
            "name": "F2",
            "ticks": 51840,
            "time": 67.5,
            "velocity": 0.31496062992125984
          },
          {
            "duration": 0,
            "durationTicks": 0,
            "midi": 38,
            "name": "D2",
            "ticks": 51936,
            "time": 67.625,
            "velocity": 0.33858267716535434
          },
          {
            "duration": 0,
            "durationTicks": 0,
            "midi": 38,
            "name": "D2",
            "ticks": 52032,
            "time": 67.75,
            "velocity": 0.33070866141732286
          },
          {
            "duration": 0.25,
            "durationTicks": 192,
            "midi": 40,
            "name": "E2",
            "ticks": 52032,
            "time": 67.75,
            "velocity": 0.30708661417322836
          },
          {
            "duration": 0,
            "durationTicks": 0,
            "midi": 46,
            "name": "A#2",
            "ticks": 52032,
            "time": 67.75,
            "velocity": 0.2677165354330709
          },
          {
            "duration": 0,
            "durationTicks": 0,
            "midi": 60,
            "name": "C4",
            "ticks": 52224,
            "time": 68,
            "velocity": 0.3228346456692913
          },
          {
            "duration": 0.125,
            "durationTicks": 96,
            "midi": 60,
            "name": "C4",
            "ticks": 52224,
            "time": 68,
            "velocity": 0.3228346456692913
          },
          {
            "duration": 0,
            "durationTicks": 0,
            "midi": 36,
            "name": "C2",
            "ticks": 52224,
            "time": 68,
            "velocity": 0.2992125984251969
          },
          {
            "duration": 1.125,
            "durationTicks": 864,
            "midi": 84,
            "name": "C6",
            "ticks": 52224,
            "time": 68,
            "velocity": 0.2204724409448819
          },
          {
            "duration": 0,
            "durationTicks": 0,
            "midi": 49,
            "name": "C#3",
            "ticks": 52224,
            "time": 68,
            "velocity": 0.2755905511811024
          },
          {
            "duration": 0,
            "durationTicks": 0,
            "midi": 54,
            "name": "F#3",
            "ticks": 52224,
            "time": 68,
            "velocity": 0.2440944881889764
          },
          {
            "duration": 0,
            "durationTicks": 0,
            "midi": 44,
            "name": "G#2",
            "ticks": 52224,
            "time": 68,
            "velocity": 0.2677165354330709
          },
          {
            "duration": 1.125,
            "durationTicks": 864,
            "midi": 48,
            "name": "C3",
            "ticks": 52224,
            "time": 68,
            "velocity": 0.25984251968503935
          },
          {
            "duration": 1,
            "durationTicks": 768,
            "midi": 55,
            "name": "G3",
            "ticks": 52224,
            "time": 68,
            "velocity": 0.1889763779527559
          },
          {
            "duration": 1,
            "durationTicks": 768,
            "midi": 64,
            "name": "E4",
            "ticks": 52224,
            "time": 68,
            "velocity": 0.1889763779527559
          },
          {
            "duration": 1.125,
            "durationTicks": 864,
            "midi": 84,
            "name": "C6",
            "ticks": 52224,
            "time": 68,
            "velocity": 0.2204724409448819
          },
          {
            "duration": 0.375,
            "durationTicks": 288,
            "midi": 36,
            "name": "C2",
            "ticks": 52224,
            "time": 68,
            "velocity": 0.2992125984251969
          },
          {
            "duration": 1.125,
            "durationTicks": 864,
            "midi": 52,
            "name": "E3",
            "ticks": 52224,
            "time": 68,
            "velocity": 0.25984251968503935
          },
          {
            "duration": 0.125,
            "durationTicks": 96,
            "midi": 60,
            "name": "C4",
            "ticks": 52320,
            "time": 68.125,
            "velocity": 0.31496062992125984
          },
          {
            "duration": 0.125,
            "durationTicks": 96,
            "midi": 60,
            "name": "C4",
            "ticks": 52416,
            "time": 68.25,
            "velocity": 0.33070866141732286
          },
          {
            "duration": 0,
            "durationTicks": 0,
            "midi": 44,
            "name": "G#2",
            "ticks": 52608,
            "time": 68.5,
            "velocity": 0.2755905511811024
          },
          {
            "duration": 0.125,
            "durationTicks": 96,
            "midi": 60,
            "name": "C4",
            "ticks": 52608,
            "time": 68.5,
            "velocity": 0.33858267716535434
          },
          {
            "duration": 0,
            "durationTicks": 0,
            "midi": 54,
            "name": "F#3",
            "ticks": 52608,
            "time": 68.5,
            "velocity": 0.2283464566929134
          },
          {
            "duration": 0.375,
            "durationTicks": 288,
            "midi": 36,
            "name": "C2",
            "ticks": 52608,
            "time": 68.5,
            "velocity": 0.30708661417322836
          },
          {
            "duration": 0,
            "durationTicks": 0,
            "midi": 38,
            "name": "D2",
            "ticks": 52608,
            "time": 68.5,
            "velocity": 0.33858267716535434
          },
          {
            "duration": 0,
            "durationTicks": 0,
            "midi": 61,
            "name": "C#4",
            "ticks": 52608,
            "time": 68.5,
            "velocity": 0.2755905511811024
          },
          {
            "duration": 0.125,
            "durationTicks": 96,
            "midi": 60,
            "name": "C4",
            "ticks": 52704,
            "time": 68.625,
            "velocity": 0.33070866141732286
          },
          {
            "duration": 0.125,
            "durationTicks": 96,
            "midi": 60,
            "name": "C4",
            "ticks": 52800,
            "time": 68.75,
            "velocity": 0.3228346456692913
          },
          {
            "duration": 0.25,
            "durationTicks": 192,
            "midi": 60,
            "name": "C4",
            "ticks": 52800,
            "time": 68.75,
            "velocity": 0.3228346456692913
          },
          {
            "duration": 0,
            "durationTicks": 0,
            "midi": 44,
            "name": "G#2",
            "ticks": 52992,
            "time": 69,
            "velocity": 0.25984251968503935
          },
          {
            "duration": 0,
            "durationTicks": 0,
            "midi": 54,
            "name": "F#3",
            "ticks": 52992,
            "time": 69,
            "velocity": 0.2204724409448819
          },
          {
            "duration": 0,
            "durationTicks": 0,
            "midi": 36,
            "name": "C2",
            "ticks": 52992,
            "time": 69,
            "velocity": 0.31496062992125984
          },
          {
            "duration": 0.125,
            "durationTicks": 96,
            "midi": 36,
            "name": "C2",
            "ticks": 52992,
            "time": 69,
            "velocity": 0.31496062992125984
          },
          {
            "duration": 0,
            "durationTicks": 0,
            "midi": 60,
            "name": "C4",
            "ticks": 52992,
            "time": 69,
            "velocity": 0.28346456692913385
          },
          {
            "duration": 0.25,
            "durationTicks": 192,
            "midi": 55,
            "name": "G3",
            "ticks": 53184,
            "time": 69.25,
            "velocity": 0.1889763779527559
          },
          {
            "duration": 0.125,
            "durationTicks": 96,
            "midi": 48,
            "name": "C3",
            "ticks": 53184,
            "time": 69.25,
            "velocity": 0.25984251968503935
          },
          {
            "duration": 0.125,
            "durationTicks": 96,
            "midi": 36,
            "name": "C2",
            "ticks": 53184,
            "time": 69.25,
            "velocity": 0.2992125984251969
          },
          {
            "duration": 0.25,
            "durationTicks": 192,
            "midi": 84,
            "name": "C6",
            "ticks": 53184,
            "time": 69.25,
            "velocity": 0.2204724409448819
          },
          {
            "duration": 0.25,
            "durationTicks": 192,
            "midi": 84,
            "name": "C6",
            "ticks": 53184,
            "time": 69.25,
            "velocity": 0.2204724409448819
          },
          {
            "duration": 0.125,
            "durationTicks": 96,
            "midi": 52,
            "name": "E3",
            "ticks": 53184,
            "time": 69.25,
            "velocity": 0.25984251968503935
          },
          {
            "duration": 0.125,
            "durationTicks": 96,
            "midi": 64,
            "name": "E4",
            "ticks": 53184,
            "time": 69.25,
            "velocity": 0.23622047244094488
          },
          {
            "duration": 0.25,
            "durationTicks": 192,
            "midi": 60,
            "name": "C4",
            "ticks": 53184,
            "time": 69.25,
            "velocity": 0.25196850393700787
          },
          {
            "duration": 0.25,
            "durationTicks": 192,
            "midi": 64,
            "name": "E4",
            "ticks": 53184,
            "time": 69.25,
            "velocity": 0.23622047244094488
          },
          {
            "duration": 0.25,
            "durationTicks": 192,
            "midi": 36,
            "name": "C2",
            "ticks": 53376,
            "time": 69.5,
            "velocity": 0.2992125984251969
          },
          {
            "duration": 0,
            "durationTicks": 0,
            "midi": 54,
            "name": "F#3",
            "ticks": 53376,
            "time": 69.5,
            "velocity": 0.23622047244094488
          },
          {
            "duration": 0,
            "durationTicks": 0,
            "midi": 61,
            "name": "C#4",
            "ticks": 53376,
            "time": 69.5,
            "velocity": 0.29133858267716534
          },
          {
            "duration": 0,
            "durationTicks": 0,
            "midi": 38,
            "name": "D2",
            "ticks": 53376,
            "time": 69.5,
            "velocity": 0.33070866141732286
          },
          {
            "duration": 0.25,
            "durationTicks": 192,
            "midi": 81,
            "name": "A5",
            "ticks": 53376,
            "time": 69.5,
            "velocity": 0.1968503937007874
          },
          {
            "duration": 0,
            "durationTicks": 0,
            "midi": 44,
            "name": "G#2",
            "ticks": 53376,
            "time": 69.5,
            "velocity": 0.2755905511811024
          },
          {
            "duration": 0.25,
            "durationTicks": 192,
            "midi": 81,
            "name": "A5",
            "ticks": 53376,
            "time": 69.5,
            "velocity": 0.1968503937007874
          },
          {
            "duration": 0,
            "durationTicks": 0,
            "midi": 60,
            "name": "C4",
            "ticks": 53472,
            "time": 69.625,
            "velocity": 0.2755905511811024
          },
          {
            "duration": 1.25,
            "durationTicks": 960,
            "midi": 50,
            "name": "D3",
            "ticks": 53568,
            "time": 69.75,
            "velocity": 0.25196850393700787
          },
          {
            "duration": 0.25,
            "durationTicks": 192,
            "midi": 84,
            "name": "C6",
            "ticks": 53568,
            "time": 69.75,
            "velocity": 0.1968503937007874
          },
          {
            "duration": 0.25,
            "durationTicks": 192,
            "midi": 66,
            "name": "F#4",
            "ticks": 53568,
            "time": 69.75,
            "velocity": 0.1732283464566929
          },
          {
            "duration": 0.25,
            "durationTicks": 192,
            "midi": 60,
            "name": "C4",
            "ticks": 53568,
            "time": 69.75,
            "velocity": 0.2125984251968504
          },
          {
            "duration": 0.25,
            "durationTicks": 192,
            "midi": 84,
            "name": "C6",
            "ticks": 53568,
            "time": 69.75,
            "velocity": 0.1968503937007874
          },
          {
            "duration": 0,
            "durationTicks": 0,
            "midi": 61,
            "name": "C#4",
            "ticks": 53568,
            "time": 69.75,
            "velocity": 0.28346456692913385
          },
          {
            "duration": 0.5,
            "durationTicks": 384,
            "midi": 57,
            "name": "A3",
            "ticks": 53568,
            "time": 69.75,
            "velocity": 0.23622047244094488
          },
          {
            "duration": 0,
            "durationTicks": 0,
            "midi": 46,
            "name": "A#2",
            "ticks": 53568,
            "time": 69.75,
            "velocity": 0.2755905511811024
          },
          {
            "duration": 0.625,
            "durationTicks": 480,
            "midi": 38,
            "name": "D2",
            "ticks": 53568,
            "time": 69.75,
            "velocity": 0.2992125984251969
          },
          {
            "duration": 0.25,
            "durationTicks": 192,
            "midi": 66,
            "name": "F#4",
            "ticks": 53760,
            "time": 70,
            "velocity": 0.2047244094488189
          },
          {
            "duration": 0,
            "durationTicks": 0,
            "midi": 54,
            "name": "F#3",
            "ticks": 53760,
            "time": 70,
            "velocity": 0.2283464566929134
          },
          {
            "duration": 0,
            "durationTicks": 0,
            "midi": 60,
            "name": "C4",
            "ticks": 53760,
            "time": 70,
            "velocity": 0.2440944881889764
          },
          {
            "duration": 0,
            "durationTicks": 0,
            "midi": 36,
            "name": "C2",
            "ticks": 53760,
            "time": 70,
            "velocity": 0.33070866141732286
          },
          {
            "duration": 0,
            "durationTicks": 0,
            "midi": 44,
            "name": "G#2",
            "ticks": 53760,
            "time": 70,
            "velocity": 0.2677165354330709
          },
          {
            "duration": 1.375,
            "durationTicks": 1056,
            "midi": 88,
            "name": "E6",
            "ticks": 53760,
            "time": 70,
            "velocity": 0.2047244094488189
          },
          {
            "duration": 1.375,
            "durationTicks": 1056,
            "midi": 88,
            "name": "E6",
            "ticks": 53760,
            "time": 70,
            "velocity": 0.2047244094488189
          },
          {
            "duration": 0,
            "durationTicks": 0,
            "midi": 49,
            "name": "C#3",
            "ticks": 53760,
            "time": 70,
            "velocity": 0.2755905511811024
          },
          {
            "duration": 0.25,
            "durationTicks": 192,
            "midi": 60,
            "name": "C4",
            "ticks": 53760,
            "time": 70,
            "velocity": 0.2440944881889764
          },
          {
            "duration": 0,
            "durationTicks": 0,
            "midi": 54,
            "name": "F#3",
            "ticks": 54144,
            "time": 70.5,
            "velocity": 0.2204724409448819
          },
          {
            "duration": 0,
            "durationTicks": 0,
            "midi": 61,
            "name": "C#4",
            "ticks": 54144,
            "time": 70.5,
            "velocity": 0.2755905511811024
          },
          {
            "duration": 0.25,
            "durationTicks": 192,
            "midi": 66,
            "name": "F#4",
            "ticks": 54144,
            "time": 70.5,
            "velocity": 0.1889763779527559
          },
          {
            "duration": 0,
            "durationTicks": 0,
            "midi": 38,
            "name": "D2",
            "ticks": 54144,
            "time": 70.5,
            "velocity": 0.2992125984251969
          },
          {
            "duration": 0.5,
            "durationTicks": 384,
            "midi": 54,
            "name": "F#3",
            "ticks": 54144,
            "time": 70.5,
            "velocity": 0.2204724409448819
          },
          {
            "duration": 0.375,
            "durationTicks": 288,
            "midi": 38,
            "name": "D2",
            "ticks": 54144,
            "time": 70.5,
            "velocity": 0.2992125984251969
          },
          {
            "duration": 0,
            "durationTicks": 0,
            "midi": 44,
            "name": "G#2",
            "ticks": 54144,
            "time": 70.5,
            "velocity": 0.2755905511811024
          },
          {
            "duration": 0.25,
            "durationTicks": 192,
            "midi": 69,
            "name": "A4",
            "ticks": 54144,
            "time": 70.5,
            "velocity": 0.33070866141732286
          },
          {
            "duration": 0.25,
            "durationTicks": 192,
            "midi": 57,
            "name": "A3",
            "ticks": 54144,
            "time": 70.5,
            "velocity": 0.1889763779527559
          },
          {
            "duration": 0.25,
            "durationTicks": 192,
            "midi": 60,
            "name": "C4",
            "ticks": 54144,
            "time": 70.5,
            "velocity": 0.25196850393700787
          },
          {
            "duration": 0.25,
            "durationTicks": 192,
            "midi": 57,
            "name": "A3",
            "ticks": 54528,
            "time": 71,
            "velocity": 0.1968503937007874
          },
          {
            "duration": 0.375,
            "durationTicks": 288,
            "midi": 64,
            "name": "E4",
            "ticks": 54528,
            "time": 71,
            "velocity": 0.3228346456692913
          },
          {
            "duration": 0,
            "durationTicks": 0,
            "midi": 54,
            "name": "F#3",
            "ticks": 54528,
            "time": 71,
            "velocity": 0.23622047244094488
          },
          {
            "duration": 0.125,
            "durationTicks": 96,
            "midi": 50,
            "name": "D3",
            "ticks": 54528,
            "time": 71,
            "velocity": 0.2992125984251969
          },
          {
            "duration": 0,
            "durationTicks": 0,
            "midi": 44,
            "name": "G#2",
            "ticks": 54528,
            "time": 71,
            "velocity": 0.25984251968503935
          },
          {
            "duration": 0,
            "durationTicks": 0,
            "midi": 36,
            "name": "C2",
            "ticks": 54528,
            "time": 71,
            "velocity": 0.33858267716535434
          },
          {
            "duration": 0,
            "durationTicks": 0,
            "midi": 60,
            "name": "C4",
            "ticks": 54528,
            "time": 71,
            "velocity": 0.2440944881889764
          },
          {
            "duration": 0.25,
            "durationTicks": 192,
            "midi": 60,
            "name": "C4",
            "ticks": 54528,
            "time": 71,
            "velocity": 0.2440944881889764
          },
          {
            "duration": 0.25,
            "durationTicks": 192,
            "midi": 66,
            "name": "F#4",
            "ticks": 54528,
            "time": 71,
            "velocity": 0.2047244094488189
          },
          {
            "duration": 0.125,
            "durationTicks": 96,
            "midi": 51,
            "name": "D#3",
            "ticks": 54624,
            "time": 71.125,
            "velocity": 0.2992125984251969
          },
          {
            "duration": 0.25,
            "durationTicks": 192,
            "midi": 66,
            "name": "F#4",
            "ticks": 54720,
            "time": 71.25,
            "velocity": 0.25984251968503935
          },
          {
            "duration": 0.25,
            "durationTicks": 192,
            "midi": 57,
            "name": "A3",
            "ticks": 54720,
            "time": 71.25,
            "velocity": 0.1889763779527559
          },
          {
            "duration": 0.125,
            "durationTicks": 96,
            "midi": 54,
            "name": "F#3",
            "ticks": 54720,
            "time": 71.25,
            "velocity": 0.2677165354330709
          },
          {
            "duration": 0.25,
            "durationTicks": 192,
            "midi": 60,
            "name": "C4",
            "ticks": 54720,
            "time": 71.25,
            "velocity": 0.25196850393700787
          },
          {
            "duration": 0.125,
            "durationTicks": 96,
            "midi": 50,
            "name": "D3",
            "ticks": 54720,
            "time": 71.25,
            "velocity": 0.25196850393700787
          },
          {
            "duration": 0.125,
            "durationTicks": 96,
            "midi": 52,
            "name": "E3",
            "ticks": 54720,
            "time": 71.25,
            "velocity": 0.2992125984251969
          },
          {
            "duration": 0.125,
            "durationTicks": 96,
            "midi": 53,
            "name": "F3",
            "ticks": 54816,
            "time": 71.375,
            "velocity": 0.30708661417322836
          },
          {
            "duration": 0.125,
            "durationTicks": 96,
            "midi": 88,
            "name": "E6",
            "ticks": 54912,
            "time": 71.5,
            "velocity": 0.2047244094488189
          },
          {
            "duration": 0.125,
            "durationTicks": 96,
            "midi": 88,
            "name": "E6",
            "ticks": 54912,
            "time": 71.5,
            "velocity": 0.2047244094488189
          },
          {
            "duration": 0,
            "durationTicks": 0,
            "midi": 54,
            "name": "F#3",
            "ticks": 54912,
            "time": 71.5,
            "velocity": 0.2992125984251969
          },
          {
            "duration": 0,
            "durationTicks": 0,
            "midi": 44,
            "name": "G#2",
            "ticks": 54912,
            "time": 71.5,
            "velocity": 0.25984251968503935
          },
          {
            "duration": 0,
            "durationTicks": 0,
            "midi": 38,
            "name": "D2",
            "ticks": 54912,
            "time": 71.5,
            "velocity": 0.33858267716535434
          },
          {
            "duration": 0.125,
            "durationTicks": 96,
            "midi": 54,
            "name": "F#3",
            "ticks": 54912,
            "time": 71.5,
            "velocity": 0.2992125984251969
          },
          {
            "duration": 0,
            "durationTicks": 0,
            "midi": 61,
            "name": "C#4",
            "ticks": 54912,
            "time": 71.5,
            "velocity": 0.2755905511811024
          },
          {
            "duration": 0.125,
            "durationTicks": 96,
            "midi": 86,
            "name": "D6",
            "ticks": 55008,
            "time": 71.625,
            "velocity": 0.2204724409448819
          },
          {
            "duration": 0.125,
            "durationTicks": 96,
            "midi": 86,
            "name": "D6",
            "ticks": 55008,
            "time": 71.625,
            "velocity": 0.2204724409448819
          },
          {
            "duration": 0.125,
            "durationTicks": 96,
            "midi": 54,
            "name": "F#3",
            "ticks": 55008,
            "time": 71.625,
            "velocity": 0.31496062992125984
          },
          {
            "duration": 0.125,
            "durationTicks": 96,
            "midi": 84,
            "name": "C6",
            "ticks": 55104,
            "time": 71.75,
            "velocity": 0.2125984251968504
          },
          {
            "duration": 0.125,
            "durationTicks": 96,
            "midi": 84,
            "name": "C6",
            "ticks": 55104,
            "time": 71.75,
            "velocity": 0.2125984251968504
          },
          {
            "duration": 0.25,
            "durationTicks": 192,
            "midi": 50,
            "name": "D3",
            "ticks": 55104,
            "time": 71.75,
            "velocity": 0.2992125984251969
          },
          {
            "duration": 1.375,
            "durationTicks": 1056,
            "midi": 53,
            "name": "F3",
            "ticks": 55104,
            "time": 71.75,
            "velocity": 0.2755905511811024
          },
          {
            "duration": 0,
            "durationTicks": 0,
            "midi": 46,
            "name": "A#2",
            "ticks": 55104,
            "time": 71.75,
            "velocity": 0.2677165354330709
          },
          {
            "duration": 0.125,
            "durationTicks": 96,
            "midi": 81,
            "name": "A5",
            "ticks": 55200,
            "time": 71.875,
            "velocity": 0.1968503937007874
          },
          {
            "duration": 0.125,
            "durationTicks": 96,
            "midi": 81,
            "name": "A5",
            "ticks": 55200,
            "time": 71.875,
            "velocity": 0.1968503937007874
          },
          {
            "duration": 0,
            "durationTicks": 0,
            "midi": 60,
            "name": "C4",
            "ticks": 55296,
            "time": 72,
            "velocity": 0.2677165354330709
          },
          {
            "duration": 1,
            "durationTicks": 768,
            "midi": 60,
            "name": "C4",
            "ticks": 55296,
            "time": 72,
            "velocity": 0.2677165354330709
          },
          {
            "duration": 0,
            "durationTicks": 0,
            "midi": 44,
            "name": "G#2",
            "ticks": 55296,
            "time": 72,
            "velocity": 0.25984251968503935
          },
          {
            "duration": 0.375,
            "durationTicks": 288,
            "midi": 38,
            "name": "D2",
            "ticks": 55296,
            "time": 72,
            "velocity": 0.30708661417322836
          },
          {
            "duration": 1,
            "durationTicks": 768,
            "midi": 65,
            "name": "F4",
            "ticks": 55296,
            "time": 72,
            "velocity": 0.2125984251968504
          },
          {
            "duration": 1.25,
            "durationTicks": 960,
            "midi": 84,
            "name": "C6",
            "ticks": 55296,
            "time": 72,
            "velocity": 0.2204724409448819
          },
          {
            "duration": 0,
            "durationTicks": 0,
            "midi": 54,
            "name": "F#3",
            "ticks": 55296,
            "time": 72,
            "velocity": 0.2283464566929134
          },
          {
            "duration": 1,
            "durationTicks": 768,
            "midi": 57,
            "name": "A3",
            "ticks": 55296,
            "time": 72,
            "velocity": 0.25984251968503935
          },
          {
            "duration": 1.25,
            "durationTicks": 960,
            "midi": 84,
            "name": "C6",
            "ticks": 55296,
            "time": 72,
            "velocity": 0.2204724409448819
          },
          {
            "duration": 1.125,
            "durationTicks": 864,
            "midi": 57,
            "name": "A3",
            "ticks": 55296,
            "time": 72,
            "velocity": 0.25984251968503935
          },
          {
            "duration": 0,
            "durationTicks": 0,
            "midi": 36,
            "name": "C2",
            "ticks": 55296,
            "time": 72,
            "velocity": 0.33070866141732286
          },
          {
            "duration": 0,
            "durationTicks": 0,
            "midi": 44,
            "name": "G#2",
            "ticks": 55680,
            "time": 72.5,
            "velocity": 0.2677165354330709
          },
          {
            "duration": 0.125,
            "durationTicks": 96,
            "midi": 64,
            "name": "E4",
            "ticks": 55680,
            "time": 72.5,
            "velocity": 0.3228346456692913
          },
          {
            "duration": 0,
            "durationTicks": 0,
            "midi": 54,
            "name": "F#3",
            "ticks": 55680,
            "time": 72.5,
            "velocity": 0.2440944881889764
          },
          {
            "duration": 0,
            "durationTicks": 0,
            "midi": 61,
            "name": "C#4",
            "ticks": 55680,
            "time": 72.5,
            "velocity": 0.2755905511811024
          },
          {
            "duration": 0,
            "durationTicks": 0,
            "midi": 38,
            "name": "D2",
            "ticks": 55680,
            "time": 72.5,
            "velocity": 0.2992125984251969
          },
          {
            "duration": 0.375,
            "durationTicks": 288,
            "midi": 38,
            "name": "D2",
            "ticks": 55680,
            "time": 72.5,
            "velocity": 0.2992125984251969
          },
          {
            "duration": 0.125,
            "durationTicks": 96,
            "midi": 64,
            "name": "E4",
            "ticks": 55872,
            "time": 72.75,
            "velocity": 0.33858267716535434
          },
          {
            "duration": 0.125,
            "durationTicks": 96,
            "midi": 38,
            "name": "D2",
            "ticks": 56064,
            "time": 73,
            "velocity": 0.2992125984251969
          },
          {
            "duration": 0.25,
            "durationTicks": 192,
            "midi": 69,
            "name": "A4",
            "ticks": 56064,
            "time": 73,
            "velocity": 0.33070866141732286
          },
          {
            "duration": 0,
            "durationTicks": 0,
            "midi": 44,
            "name": "G#2",
            "ticks": 56064,
            "time": 73,
            "velocity": 0.2677165354330709
          },
          {
            "duration": 0,
            "durationTicks": 0,
            "midi": 36,
            "name": "C2",
            "ticks": 56064,
            "time": 73,
            "velocity": 0.33070866141732286
          },
          {
            "duration": 0,
            "durationTicks": 0,
            "midi": 54,
            "name": "F#3",
            "ticks": 56064,
            "time": 73,
            "velocity": 0.2283464566929134
          },
          {
            "duration": 0,
            "durationTicks": 0,
            "midi": 60,
            "name": "C4",
            "ticks": 56064,
            "time": 73,
            "velocity": 0.28346456692913385
          },
          {
            "duration": 0.25,
            "durationTicks": 192,
            "midi": 38,
            "name": "D2",
            "ticks": 56256,
            "time": 73.25,
            "velocity": 0.2992125984251969
          },
          {
            "duration": 0.25,
            "durationTicks": 192,
            "midi": 65,
            "name": "F4",
            "ticks": 56256,
            "time": 73.25,
            "velocity": 0.2204724409448819
          },
          {
            "duration": 0.25,
            "durationTicks": 192,
            "midi": 84,
            "name": "C6",
            "ticks": 56256,
            "time": 73.25,
            "velocity": 0.2047244094488189
          },
          {
            "duration": 0.125,
            "durationTicks": 96,
            "midi": 53,
            "name": "F3",
            "ticks": 56256,
            "time": 73.25,
            "velocity": 0.25984251968503935
          },
          {
            "duration": 0.25,
            "durationTicks": 192,
            "midi": 84,
            "name": "C6",
            "ticks": 56256,
            "time": 73.25,
            "velocity": 0.2047244094488189
          },
          {
            "duration": 0.125,
            "durationTicks": 96,
            "midi": 57,
            "name": "A3",
            "ticks": 56256,
            "time": 73.25,
            "velocity": 0.2283464566929134
          },
          {
            "duration": 0.25,
            "durationTicks": 192,
            "midi": 60,
            "name": "C4",
            "ticks": 56256,
            "time": 73.25,
            "velocity": 0.2204724409448819
          },
          {
            "duration": 0.25,
            "durationTicks": 192,
            "midi": 57,
            "name": "A3",
            "ticks": 56256,
            "time": 73.25,
            "velocity": 0.2283464566929134
          },
          {
            "duration": 0.25,
            "durationTicks": 192,
            "midi": 64,
            "name": "E4",
            "ticks": 56448,
            "time": 73.5,
            "velocity": 0.3228346456692913
          },
          {
            "duration": 0.25,
            "durationTicks": 192,
            "midi": 41,
            "name": "F2",
            "ticks": 56448,
            "time": 73.5,
            "velocity": 0.31496062992125984
          },
          {
            "duration": 0.25,
            "durationTicks": 192,
            "midi": 81,
            "name": "A5",
            "ticks": 56448,
            "time": 73.5,
            "velocity": 0.1968503937007874
          },
          {
            "duration": 0.25,
            "durationTicks": 192,
            "midi": 81,
            "name": "A5",
            "ticks": 56448,
            "time": 73.5,
            "velocity": 0.1968503937007874
          },
          {
            "duration": 0,
            "durationTicks": 0,
            "midi": 54,
            "name": "F#3",
            "ticks": 56448,
            "time": 73.5,
            "velocity": 0.2440944881889764
          },
          {
            "duration": 0,
            "durationTicks": 0,
            "midi": 61,
            "name": "C#4",
            "ticks": 56448,
            "time": 73.5,
            "velocity": 0.2755905511811024
          },
          {
            "duration": 0,
            "durationTicks": 0,
            "midi": 38,
            "name": "D2",
            "ticks": 56448,
            "time": 73.5,
            "velocity": 0.33070866141732286
          },
          {
            "duration": 0,
            "durationTicks": 0,
            "midi": 44,
            "name": "G#2",
            "ticks": 56448,
            "time": 73.5,
            "velocity": 0.2677165354330709
          },
          {
            "duration": 0,
            "durationTicks": 0,
            "midi": 60,
            "name": "C4",
            "ticks": 56544,
            "time": 73.625,
            "velocity": 0.28346456692913385
          },
          {
            "duration": 0,
            "durationTicks": 0,
            "midi": 61,
            "name": "C#4",
            "ticks": 56640,
            "time": 73.75,
            "velocity": 0.28346456692913385
          },
          {
            "duration": 0,
            "durationTicks": 0,
            "midi": 46,
            "name": "A#2",
            "ticks": 56640,
            "time": 73.75,
            "velocity": 0.2755905511811024
          },
          {
            "duration": 0.25,
            "durationTicks": 192,
            "midi": 42,
            "name": "F#2",
            "ticks": 56640,
            "time": 73.75,
            "velocity": 0.2992125984251969
          },
          {
            "duration": 0.25,
            "durationTicks": 192,
            "midi": 84,
            "name": "C6",
            "ticks": 56640,
            "time": 73.75,
            "velocity": 0.2047244094488189
          },
          {
            "duration": 0.25,
            "durationTicks": 192,
            "midi": 84,
            "name": "C6",
            "ticks": 56640,
            "time": 73.75,
            "velocity": 0.2047244094488189
          },
          {
            "duration": 0.25,
            "durationTicks": 192,
            "midi": 59,
            "name": "B3",
            "ticks": 56640,
            "time": 73.75,
            "velocity": 0.2047244094488189
          },
          {
            "duration": 0.25,
            "durationTicks": 192,
            "midi": 62,
            "name": "D4",
            "ticks": 56640,
            "time": 73.75,
            "velocity": 0.25196850393700787
          },
          {
            "duration": 0.25,
            "durationTicks": 192,
            "midi": 67,
            "name": "G4",
            "ticks": 56640,
            "time": 73.75,
            "velocity": 0.14173228346456693
          },
          {
            "duration": 0,
            "durationTicks": 0,
            "midi": 60,
            "name": "C4",
            "ticks": 56832,
            "time": 74,
            "velocity": 0.28346456692913385
          },
          {
            "duration": 0,
            "durationTicks": 0,
            "midi": 36,
            "name": "C2",
            "ticks": 56832,
            "time": 74,
            "velocity": 0.33858267716535434
          },
          {
            "duration": 0.25,
            "durationTicks": 192,
            "midi": 52,
            "name": "E3",
            "ticks": 56832,
            "time": 74,
            "velocity": 0.2755905511811024
          },
          {
            "duration": 0,
            "durationTicks": 0,
            "midi": 49,
            "name": "C#3",
            "ticks": 56832,
            "time": 74,
            "velocity": 0.2677165354330709
          },
          {
            "duration": 0.5,
            "durationTicks": 384,
            "midi": 88,
            "name": "E6",
            "ticks": 56832,
            "time": 74,
            "velocity": 0.2047244094488189
          },
          {
            "duration": 0.25,
            "durationTicks": 192,
            "midi": 55,
            "name": "G3",
            "ticks": 56832,
            "time": 74,
            "velocity": 0.2755905511811024
          },
          {
            "duration": 0,
            "durationTicks": 0,
            "midi": 44,
            "name": "G#2",
            "ticks": 56832,
            "time": 74,
            "velocity": 0.2677165354330709
          },
          {
            "duration": 0.375,
            "durationTicks": 288,
            "midi": 43,
            "name": "G2",
            "ticks": 56832,
            "time": 74,
            "velocity": 0.31496062992125984
          },
          {
            "duration": 0.5,
            "durationTicks": 384,
            "midi": 88,
            "name": "E6",
            "ticks": 56832,
            "time": 74,
            "velocity": 0.2047244094488189
          },
          {
            "duration": 0,
            "durationTicks": 0,
            "midi": 54,
            "name": "F#3",
            "ticks": 56832,
            "time": 74,
            "velocity": 0.23622047244094488
          },
          {
            "duration": 0,
            "durationTicks": 0,
            "midi": 38,
            "name": "D2",
            "ticks": 57208,
            "time": 74.48958333333333,
            "velocity": 0.33858267716535434
          },
          {
            "duration": 0.25,
            "durationTicks": 192,
            "midi": 69,
            "name": "A4",
            "ticks": 57216,
            "time": 74.5,
            "velocity": 0.33070866141732286
          },
          {
            "duration": 0,
            "durationTicks": 0,
            "midi": 54,
            "name": "F#3",
            "ticks": 57216,
            "time": 74.5,
            "velocity": 0.23622047244094488
          },
          {
            "duration": 0.125,
            "durationTicks": 96,
            "midi": 67,
            "name": "G4",
            "ticks": 57216,
            "time": 74.5,
            "velocity": 0.18110236220472442
          },
          {
            "duration": 0.375,
            "durationTicks": 288,
            "midi": 43,
            "name": "G2",
            "ticks": 57216,
            "time": 74.5,
            "velocity": 0.2992125984251969
          },
          {
            "duration": 0.5,
            "durationTicks": 384,
            "midi": 86,
            "name": "D6",
            "ticks": 57216,
            "time": 74.5,
            "velocity": 0.1889763779527559
          },
          {
            "duration": 0.5,
            "durationTicks": 384,
            "midi": 86,
            "name": "D6",
            "ticks": 57216,
            "time": 74.5,
            "velocity": 0.1889763779527559
          },
          {
            "duration": 0.125,
            "durationTicks": 96,
            "midi": 62,
            "name": "D4",
            "ticks": 57216,
            "time": 74.5,
            "velocity": 0.2992125984251969
          },
          {
            "duration": 0,
            "durationTicks": 0,
            "midi": 61,
            "name": "C#4",
            "ticks": 57216,
            "time": 74.5,
            "velocity": 0.2755905511811024
          },
          {
            "duration": 0,
            "durationTicks": 0,
            "midi": 44,
            "name": "G#2",
            "ticks": 57216,
            "time": 74.5,
            "velocity": 0.2677165354330709
          },
          {
            "duration": 0.125,
            "durationTicks": 96,
            "midi": 59,
            "name": "B3",
            "ticks": 57216,
            "time": 74.5,
            "velocity": 0.1968503937007874
          },
          {
            "duration": 0.375,
            "durationTicks": 288,
            "midi": 50,
            "name": "D3",
            "ticks": 57408,
            "time": 74.75,
            "velocity": 0.25984251968503935
          },
          {
            "duration": 0.375,
            "durationTicks": 288,
            "midi": 55,
            "name": "G3",
            "ticks": 57408,
            "time": 74.75,
            "velocity": 0.25196850393700787
          },
          {
            "duration": 0,
            "durationTicks": 0,
            "midi": 44,
            "name": "G#2",
            "ticks": 57600,
            "time": 75,
            "velocity": 0.2677165354330709
          },
          {
            "duration": 0.125,
            "durationTicks": 96,
            "midi": 43,
            "name": "G2",
            "ticks": 57600,
            "time": 75,
            "velocity": 0.30708661417322836
          },
          {
            "duration": 0,
            "durationTicks": 0,
            "midi": 36,
            "name": "C2",
            "ticks": 57600,
            "time": 75,
            "velocity": 0.33070866141732286
          },
          {
            "duration": 0.5,
            "durationTicks": 384,
            "midi": 88,
            "name": "E6",
            "ticks": 57600,
            "time": 75,
            "velocity": 0.2204724409448819
          },
          {
            "duration": 0,
            "durationTicks": 0,
            "midi": 60,
            "name": "C4",
            "ticks": 57600,
            "time": 75,
            "velocity": 0.28346456692913385
          },
          {
            "duration": 0.25,
            "durationTicks": 192,
            "midi": 62,
            "name": "D4",
            "ticks": 57600,
            "time": 75,
            "velocity": 0.29133858267716534
          },
          {
            "duration": 0.25,
            "durationTicks": 192,
            "midi": 59,
            "name": "B3",
            "ticks": 57600,
            "time": 75,
            "velocity": 0.1889763779527559
          },
          {
            "duration": 0.25,
            "durationTicks": 192,
            "midi": 67,
            "name": "G4",
            "ticks": 57600,
            "time": 75,
            "velocity": 0.2283464566929134
          },
          {
            "duration": 0,
            "durationTicks": 0,
            "midi": 54,
            "name": "F#3",
            "ticks": 57600,
            "time": 75,
            "velocity": 0.2440944881889764
          },
          {
            "duration": 0.375,
            "durationTicks": 288,
            "midi": 64,
            "name": "E4",
            "ticks": 57600,
            "time": 75,
            "velocity": 0.3228346456692913
          },
          {
            "duration": 0.5,
            "durationTicks": 384,
            "midi": 88,
            "name": "E6",
            "ticks": 57600,
            "time": 75,
            "velocity": 0.2204724409448819
          },
          {
            "duration": 0,
            "durationTicks": 0,
            "midi": 38,
            "name": "D2",
            "ticks": 57788,
            "time": 75.24479166666667,
            "velocity": 0.33858267716535434
          },
          {
            "duration": 0.125,
            "durationTicks": 96,
            "midi": 59,
            "name": "B3",
            "ticks": 57792,
            "time": 75.25,
            "velocity": 0.2125984251968504
          },
          {
            "duration": 0.75,
            "durationTicks": 576,
            "midi": 55,
            "name": "G3",
            "ticks": 57792,
            "time": 75.25,
            "velocity": 0.25196850393700787
          },
          {
            "duration": 0.75,
            "durationTicks": 576,
            "midi": 50,
            "name": "D3",
            "ticks": 57792,
            "time": 75.25,
            "velocity": 0.2755905511811024
          },
          {
            "duration": 0.125,
            "durationTicks": 96,
            "midi": 67,
            "name": "G4",
            "ticks": 57792,
            "time": 75.25,
            "velocity": 0.2440944881889764
          },
          {
            "duration": 0.25,
            "durationTicks": 192,
            "midi": 43,
            "name": "G2",
            "ticks": 57792,
            "time": 75.25,
            "velocity": 0.2992125984251969
          },
          {
            "duration": 0.125,
            "durationTicks": 96,
            "midi": 62,
            "name": "D4",
            "ticks": 57792,
            "time": 75.25,
            "velocity": 0.2125984251968504
          },
          {
            "duration": 0,
            "durationTicks": 0,
            "midi": 61,
            "name": "C#4",
            "ticks": 57984,
            "time": 75.5,
            "velocity": 0.29133858267716534
          },
          {
            "duration": 0,
            "durationTicks": 0,
            "midi": 54,
            "name": "F#3",
            "ticks": 57984,
            "time": 75.5,
            "velocity": 0.2204724409448819
          },
          {
            "duration": 0.5,
            "durationTicks": 384,
            "midi": 86,
            "name": "D6",
            "ticks": 57984,
            "time": 75.5,
            "velocity": 0.1968503937007874
          },
          {
            "duration": 0,
            "durationTicks": 0,
            "midi": 44,
            "name": "G#2",
            "ticks": 57984,
            "time": 75.5,
            "velocity": 0.2677165354330709
          },
          {
            "duration": 0.25,
            "durationTicks": 192,
            "midi": 41,
            "name": "F2",
            "ticks": 57984,
            "time": 75.5,
            "velocity": 0.31496062992125984
          },
          {
            "duration": 0.5,
            "durationTicks": 384,
            "midi": 86,
            "name": "D6",
            "ticks": 57984,
            "time": 75.5,
            "velocity": 0.1968503937007874
          },
          {
            "duration": 0,
            "durationTicks": 0,
            "midi": 38,
            "name": "D2",
            "ticks": 57988,
            "time": 75.50520833333333,
            "velocity": 0.33858267716535434
          },
          {
            "duration": 0.25,
            "durationTicks": 192,
            "midi": 40,
            "name": "E2",
            "ticks": 58176,
            "time": 75.75,
            "velocity": 0.30708661417322836
          },
          {
            "duration": 0,
            "durationTicks": 0,
            "midi": 46,
            "name": "A#2",
            "ticks": 58176,
            "time": 75.75,
            "velocity": 0.2755905511811024
          },
          {
            "duration": 0.125,
            "durationTicks": 96,
            "midi": 64,
            "name": "E4",
            "ticks": 58176,
            "time": 75.75,
            "velocity": 0.33858267716535434
          },
          {
            "duration": 0,
            "durationTicks": 0,
            "midi": 36,
            "name": "C2",
            "ticks": 58368,
            "time": 76,
            "velocity": 0.33070866141732286
          },
          {
            "duration": 0,
            "durationTicks": 0,
            "midi": 44,
            "name": "G#2",
            "ticks": 58368,
            "time": 76,
            "velocity": 0.25984251968503935
          },
          {
            "duration": 0.125,
            "durationTicks": 96,
            "midi": 64,
            "name": "E4",
            "ticks": 58368,
            "time": 76,
            "velocity": 0.33858267716535434
          },
          {
            "duration": 0.375,
            "durationTicks": 288,
            "midi": 55,
            "name": "G3",
            "ticks": 58368,
            "time": 76,
            "velocity": 0.2440944881889764
          },
          {
            "duration": 0.375,
            "durationTicks": 288,
            "midi": 50,
            "name": "D3",
            "ticks": 58368,
            "time": 76,
            "velocity": 0.25984251968503935
          },
          {
            "duration": 0.5,
            "durationTicks": 384,
            "midi": 62,
            "name": "D4",
            "ticks": 58368,
            "time": 76,
            "velocity": 0.2677165354330709
          },
          {
            "duration": 0.5,
            "durationTicks": 384,
            "midi": 55,
            "name": "G3",
            "ticks": 58368,
            "time": 76,
            "velocity": 0.2440944881889764
          },
          {
            "duration": 0,
            "durationTicks": 0,
            "midi": 54,
            "name": "F#3",
            "ticks": 58368,
            "time": 76,
            "velocity": 0.23622047244094488
          },
          {
            "duration": 0.375,
            "durationTicks": 288,
            "midi": 67,
            "name": "G4",
            "ticks": 58368,
            "time": 76,
            "velocity": 0.2677165354330709
          },
          {
            "duration": 0.375,
            "durationTicks": 288,
            "midi": 31,
            "name": "G1",
            "ticks": 58368,
            "time": 76,
            "velocity": 0.2992125984251969
          },
          {
            "duration": 0,
            "durationTicks": 0,
            "midi": 61,
            "name": "C#4",
            "ticks": 58368,
            "time": 76,
            "velocity": 0.28346456692913385
          },
          {
            "duration": 0,
            "durationTicks": 0,
            "midi": 38,
            "name": "D2",
            "ticks": 58752,
            "time": 76.5,
            "velocity": 0.33858267716535434
          },
          {
            "duration": 0,
            "durationTicks": 0,
            "midi": 54,
            "name": "F#3",
            "ticks": 58752,
            "time": 76.5,
            "velocity": 0.2283464566929134
          },
          {
            "duration": 0.375,
            "durationTicks": 288,
            "midi": 31,
            "name": "G1",
            "ticks": 58752,
            "time": 76.5,
            "velocity": 0.31496062992125984
          },
          {
            "duration": 0,
            "durationTicks": 0,
            "midi": 61,
            "name": "C#4",
            "ticks": 58752,
            "time": 76.5,
            "velocity": 0.28346456692913385
          },
          {
            "duration": 0.375,
            "durationTicks": 288,
            "midi": 55,
            "name": "G3",
            "ticks": 58752,
            "time": 76.5,
            "velocity": 0.25984251968503935
          },
          {
            "duration": 0.375,
            "durationTicks": 288,
            "midi": 52,
            "name": "E3",
            "ticks": 58752,
            "time": 76.5,
            "velocity": 0.2755905511811024
          },
          {
            "duration": 0.5,
            "durationTicks": 384,
            "midi": 74,
            "name": "D5",
            "ticks": 58752,
            "time": 76.5,
            "velocity": 0.29133858267716534
          },
          {
            "duration": 0,
            "durationTicks": 0,
            "midi": 44,
            "name": "G#2",
            "ticks": 58752,
            "time": 76.5,
            "velocity": 0.2677165354330709
          },
          {
            "duration": 0.125,
            "durationTicks": 96,
            "midi": 64,
            "name": "E4",
            "ticks": 58752,
            "time": 76.5,
            "velocity": 0.25984251968503935
          },
          {
            "duration": 0.125,
            "durationTicks": 96,
            "midi": 67,
            "name": "G4",
            "ticks": 58752,
            "time": 76.5,
            "velocity": 0.13385826771653545
          },
          {
            "duration": 0.125,
            "durationTicks": 96,
            "midi": 64,
            "name": "E4",
            "ticks": 58752,
            "time": 76.5,
            "velocity": 0.25984251968503935
          },
          {
            "duration": 0.5,
            "durationTicks": 384,
            "midi": 71,
            "name": "B4",
            "ticks": 58752,
            "time": 76.5,
            "velocity": 0.2755905511811024
          },
          {
            "duration": 0.5,
            "durationTicks": 384,
            "midi": 67,
            "name": "G4",
            "ticks": 58752,
            "time": 76.5,
            "velocity": 0.13385826771653545
          },
          {
            "duration": 0.125,
            "durationTicks": 96,
            "midi": 64,
            "name": "E4",
            "ticks": 58944,
            "time": 76.75,
            "velocity": 0.33070866141732286
          },
          {
            "duration": 0,
            "durationTicks": 0,
            "midi": 44,
            "name": "G#2",
            "ticks": 59136,
            "time": 77,
            "velocity": 0.25984251968503935
          },
          {
            "duration": 0.125,
            "durationTicks": 96,
            "midi": 74,
            "name": "D5",
            "ticks": 59136,
            "time": 77,
            "velocity": 0.28346456692913385
          },
          {
            "duration": 0.125,
            "durationTicks": 96,
            "midi": 71,
            "name": "B4",
            "ticks": 59136,
            "time": 77,
            "velocity": 0.2204724409448819
          },
          {
            "duration": 0.125,
            "durationTicks": 96,
            "midi": 31,
            "name": "G1",
            "ticks": 59136,
            "time": 77,
            "velocity": 0.31496062992125984
          },
          {
            "duration": 0.125,
            "durationTicks": 96,
            "midi": 64,
            "name": "E4",
            "ticks": 59136,
            "time": 77,
            "velocity": 0.33858267716535434
          },
          {
            "duration": 0,
            "durationTicks": 0,
            "midi": 54,
            "name": "F#3",
            "ticks": 59136,
            "time": 77,
            "velocity": 0.2283464566929134
          },
          {
            "duration": 0.375,
            "durationTicks": 288,
            "midi": 50,
            "name": "D3",
            "ticks": 59136,
            "time": 77,
            "velocity": 0.25984251968503935
          },
          {
            "duration": 0.375,
            "durationTicks": 288,
            "midi": 55,
            "name": "G3",
            "ticks": 59136,
            "time": 77,
            "velocity": 0.25196850393700787
          },
          {
            "duration": 0,
            "durationTicks": 0,
            "midi": 61,
            "name": "C#4",
            "ticks": 59136,
            "time": 77,
            "velocity": 0.29133858267716534
          },
          {
            "duration": 0,
            "durationTicks": 0,
            "midi": 36,
            "name": "C2",
            "ticks": 59136,
            "time": 77,
            "velocity": 0.33070866141732286
          },
          {
            "duration": 0.25,
            "durationTicks": 192,
            "midi": 62,
            "name": "D4",
            "ticks": 59136,
            "time": 77,
            "velocity": 0.25984251968503935
          },
          {
            "duration": 0.25,
            "durationTicks": 192,
            "midi": 67,
            "name": "G4",
            "ticks": 59136,
            "time": 77,
            "velocity": 0.25984251968503935
          },
          {
            "duration": 0.25,
            "durationTicks": 192,
            "midi": 31,
            "name": "G1",
            "ticks": 59328,
            "time": 77.25,
            "velocity": 0.30708661417322836
          },
          {
            "duration": 0.125,
            "durationTicks": 96,
            "midi": 64,
            "name": "E4",
            "ticks": 59328,
            "time": 77.25,
            "velocity": 0.33858267716535434
          },
          {
            "duration": 0.375,
            "durationTicks": 288,
            "midi": 64,
            "name": "E4",
            "ticks": 59328,
            "time": 77.25,
            "velocity": 0.33858267716535434
          },
          {
            "duration": 0.125,
            "durationTicks": 96,
            "midi": 67,
            "name": "G4",
            "ticks": 59424,
            "time": 77.375,
            "velocity": 0.2677165354330709
          },
          {
            "duration": 0,
            "durationTicks": 0,
            "midi": 61,
            "name": "C#4",
            "ticks": 59520,
            "time": 77.5,
            "velocity": 0.2755905511811024
          },
          {
            "duration": 0,
            "durationTicks": 0,
            "midi": 38,
            "name": "D2",
            "ticks": 59520,
            "time": 77.5,
            "velocity": 0.33070866141732286
          },
          {
            "duration": 0.125,
            "durationTicks": 96,
            "midi": 55,
            "name": "G3",
            "ticks": 59520,
            "time": 77.5,
            "velocity": 0.2755905511811024
          },
          {
            "duration": 0.125,
            "durationTicks": 96,
            "midi": 52,
            "name": "E3",
            "ticks": 59520,
            "time": 77.5,
            "velocity": 0.2677165354330709
          },
          {
            "duration": 0,
            "durationTicks": 0,
            "midi": 54,
            "name": "F#3",
            "ticks": 59520,
            "time": 77.5,
            "velocity": 0.2283464566929134
          },
          {
            "duration": 0,
            "durationTicks": 0,
            "midi": 44,
            "name": "G#2",
            "ticks": 59520,
            "time": 77.5,
            "velocity": 0.2677165354330709
          },
          {
            "duration": 0,
            "durationTicks": 0,
            "midi": 46,
            "name": "A#2",
            "ticks": 59712,
            "time": 77.75,
            "velocity": 0.2755905511811024
          },
          {
            "duration": 0.5,
            "durationTicks": 384,
            "midi": 62,
            "name": "D4",
            "ticks": 59712,
            "time": 77.75,
            "velocity": 0.2677165354330709
          },
          {
            "duration": 0.125,
            "durationTicks": 96,
            "midi": 31,
            "name": "G1",
            "ticks": 59712,
            "time": 77.75,
            "velocity": 0.2992125984251969
          },
          {
            "duration": 0.5,
            "durationTicks": 384,
            "midi": 67,
            "name": "G4",
            "ticks": 59712,
            "time": 77.75,
            "velocity": 0.3464566929133858
          },
          {
            "duration": 0.25,
            "durationTicks": 192,
            "midi": 50,
            "name": "D3",
            "ticks": 59712,
            "time": 77.75,
            "velocity": 0.2755905511811024
          },
          {
            "duration": 0.25,
            "durationTicks": 192,
            "midi": 55,
            "name": "G3",
            "ticks": 59712,
            "time": 77.75,
            "velocity": 0.25196850393700787
          },
          {
            "duration": 0.375,
            "durationTicks": 288,
            "midi": 31,
            "name": "G1",
            "ticks": 59904,
            "time": 78,
            "velocity": 0.2992125984251969
          },
          {
            "duration": 0,
            "durationTicks": 0,
            "midi": 36,
            "name": "C2",
            "ticks": 59904,
            "time": 78,
            "velocity": 0.33858267716535434
          },
          {
            "duration": 0,
            "durationTicks": 0,
            "midi": 44,
            "name": "G#2",
            "ticks": 59904,
            "time": 78,
            "velocity": 0.2677165354330709
          },
          {
            "duration": 0,
            "durationTicks": 0,
            "midi": 61,
            "name": "C#4",
            "ticks": 59904,
            "time": 78,
            "velocity": 0.2755905511811024
          },
          {
            "duration": 0,
            "durationTicks": 0,
            "midi": 54,
            "name": "F#3",
            "ticks": 59904,
            "time": 78,
            "velocity": 0.2440944881889764
          },
          {
            "duration": 0.125,
            "durationTicks": 96,
            "midi": 62,
            "name": "D4",
            "ticks": 60096,
            "time": 78.25,
            "velocity": 0.25984251968503935
          },
          {
            "duration": 0.125,
            "durationTicks": 96,
            "midi": 55,
            "name": "G3",
            "ticks": 60096,
            "time": 78.25,
            "velocity": 0.25984251968503935
          },
          {
            "duration": 0.125,
            "durationTicks": 96,
            "midi": 55,
            "name": "G3",
            "ticks": 60096,
            "time": 78.25,
            "velocity": 0.25984251968503935
          },
          {
            "duration": 0.125,
            "durationTicks": 96,
            "midi": 50,
            "name": "D3",
            "ticks": 60096,
            "time": 78.25,
            "velocity": 0.2677165354330709
          },
          {
            "duration": 0,
            "durationTicks": 0,
            "midi": 61,
            "name": "C#4",
            "ticks": 60288,
            "time": 78.5,
            "velocity": 0.2755905511811024
          },
          {
            "duration": 0.5,
            "durationTicks": 384,
            "midi": 71,
            "name": "B4",
            "ticks": 60288,
            "time": 78.5,
            "velocity": 0.25984251968503935
          },
          {
            "duration": 0,
            "durationTicks": 0,
            "midi": 38,
            "name": "D2",
            "ticks": 60288,
            "time": 78.5,
            "velocity": 0.33070866141732286
          },
          {
            "duration": 0.25,
            "durationTicks": 192,
            "midi": 64,
            "name": "E4",
            "ticks": 60288,
            "time": 78.5,
            "velocity": 0.25984251968503935
          },
          {
            "duration": 0,
            "durationTicks": 0,
            "midi": 44,
            "name": "G#2",
            "ticks": 60288,
            "time": 78.5,
            "velocity": 0.2677165354330709
          },
          {
            "duration": 0,
            "durationTicks": 0,
            "midi": 54,
            "name": "F#3",
            "ticks": 60288,
            "time": 78.5,
            "velocity": 0.23622047244094488
          },
          {
            "duration": 0.25,
            "durationTicks": 192,
            "midi": 55,
            "name": "G3",
            "ticks": 60288,
            "time": 78.5,
            "velocity": 0.25984251968503935
          },
          {
            "duration": 0.25,
            "durationTicks": 192,
            "midi": 52,
            "name": "E3",
            "ticks": 60288,
            "time": 78.5,
            "velocity": 0.2677165354330709
          },
          {
            "duration": 0.375,
            "durationTicks": 288,
            "midi": 31,
            "name": "G1",
            "ticks": 60288,
            "time": 78.5,
            "velocity": 0.31496062992125984
          },
          {
            "duration": 0.25,
            "durationTicks": 192,
            "midi": 67,
            "name": "G4",
            "ticks": 60288,
            "time": 78.5,
            "velocity": 0.2440944881889764
          },
          {
            "duration": 0.5,
            "durationTicks": 384,
            "midi": 74,
            "name": "D5",
            "ticks": 60288,
            "time": 78.5,
            "velocity": 0.2755905511811024
          },
          {
            "duration": 0.25,
            "durationTicks": 192,
            "midi": 67,
            "name": "G4",
            "ticks": 60288,
            "time": 78.5,
            "velocity": 0.2440944881889764
          },
          {
            "duration": 0.25,
            "durationTicks": 192,
            "midi": 67,
            "name": "G4",
            "ticks": 60672,
            "time": 79,
            "velocity": 0.33858267716535434
          },
          {
            "duration": 0.25,
            "durationTicks": 192,
            "midi": 67,
            "name": "G4",
            "ticks": 60672,
            "time": 79,
            "velocity": 0.33858267716535434
          },
          {
            "duration": 0,
            "durationTicks": 0,
            "midi": 61,
            "name": "C#4",
            "ticks": 60672,
            "time": 79,
            "velocity": 0.2755905511811024
          },
          {
            "duration": 0.125,
            "durationTicks": 96,
            "midi": 74,
            "name": "D5",
            "ticks": 60672,
            "time": 79,
            "velocity": 0.2755905511811024
          },
          {
            "duration": 0.125,
            "durationTicks": 96,
            "midi": 31,
            "name": "G1",
            "ticks": 60672,
            "time": 79,
            "velocity": 0.30708661417322836
          },
          {
            "duration": 0.25,
            "durationTicks": 192,
            "midi": 62,
            "name": "D4",
            "ticks": 60672,
            "time": 79,
            "velocity": 0.2677165354330709
          },
          {
            "duration": 0.125,
            "durationTicks": 96,
            "midi": 71,
            "name": "B4",
            "ticks": 60672,
            "time": 79,
            "velocity": 0.2204724409448819
          },
          {
            "duration": 0,
            "durationTicks": 0,
            "midi": 54,
            "name": "F#3",
            "ticks": 60672,
            "time": 79,
            "velocity": 0.2440944881889764
          },
          {
            "duration": 0.25,
            "durationTicks": 192,
            "midi": 55,
            "name": "G3",
            "ticks": 60672,
            "time": 79,
            "velocity": 0.25984251968503935
          },
          {
            "duration": 0,
            "durationTicks": 0,
            "midi": 36,
            "name": "C2",
            "ticks": 60672,
            "time": 79,
            "velocity": 0.33858267716535434
          },
          {
            "duration": 0,
            "durationTicks": 0,
            "midi": 44,
            "name": "G#2",
            "ticks": 60672,
            "time": 79,
            "velocity": 0.2677165354330709
          },
          {
            "duration": 0.25,
            "durationTicks": 192,
            "midi": 50,
            "name": "D3",
            "ticks": 60672,
            "time": 79,
            "velocity": 0.2677165354330709
          },
          {
            "duration": 0.125,
            "durationTicks": 96,
            "midi": 64,
            "name": "E4",
            "ticks": 60864,
            "time": 79.25,
            "velocity": 0.33070866141732286
          },
          {
            "duration": 0.375,
            "durationTicks": 288,
            "midi": 64,
            "name": "E4",
            "ticks": 60864,
            "time": 79.25,
            "velocity": 0.33070866141732286
          },
          {
            "duration": 0.125,
            "durationTicks": 96,
            "midi": 31,
            "name": "G1",
            "ticks": 60864,
            "time": 79.25,
            "velocity": 0.2992125984251969
          },
          {
            "duration": 0.125,
            "durationTicks": 96,
            "midi": 67,
            "name": "G4",
            "ticks": 60864,
            "time": 79.25,
            "velocity": 0.28346456692913385
          },
          {
            "duration": 0,
            "durationTicks": 0,
            "midi": 61,
            "name": "C#4",
            "ticks": 61056,
            "time": 79.5,
            "velocity": 0.28346456692913385
          },
          {
            "duration": 0.25,
            "durationTicks": 192,
            "midi": 55,
            "name": "G3",
            "ticks": 61056,
            "time": 79.5,
            "velocity": 0.2440944881889764
          },
          {
            "duration": 0,
            "durationTicks": 0,
            "midi": 44,
            "name": "G#2",
            "ticks": 61056,
            "time": 79.5,
            "velocity": 0.2677165354330709
          },
          {
            "duration": 0,
            "durationTicks": 0,
            "midi": 38,
            "name": "D2",
            "ticks": 61056,
            "time": 79.5,
            "velocity": 0.33858267716535434
          },
          {
            "duration": 0.25,
            "durationTicks": 192,
            "midi": 52,
            "name": "E3",
            "ticks": 61056,
            "time": 79.5,
            "velocity": 0.25984251968503935
          },
          {
            "duration": 0.25,
            "durationTicks": 192,
            "midi": 55,
            "name": "G3",
            "ticks": 61056,
            "time": 79.5,
            "velocity": 0.2440944881889764
          },
          {
            "duration": 0,
            "durationTicks": 0,
            "midi": 54,
            "name": "F#3",
            "ticks": 61056,
            "time": 79.5,
            "velocity": 0.2283464566929134
          },
          {
            "duration": 0.375,
            "durationTicks": 288,
            "midi": 62,
            "name": "D4",
            "ticks": 61248,
            "time": 79.75,
            "velocity": 0.33858267716535434
          },
          {
            "duration": 0,
            "durationTicks": 0,
            "midi": 46,
            "name": "A#2",
            "ticks": 61248,
            "time": 79.75,
            "velocity": 0.2755905511811024
          },
          {
            "duration": 0.25,
            "durationTicks": 192,
            "midi": 40,
            "name": "E2",
            "ticks": 61248,
            "time": 79.75,
            "velocity": 0.31496062992125984
          },
          {
            "duration": 0,
            "durationTicks": 0,
            "midi": 61,
            "name": "C#4",
            "ticks": 61440,
            "time": 80,
            "velocity": 0.2755905511811024
          },
          {
            "duration": 0,
            "durationTicks": 0,
            "midi": 36,
            "name": "C2",
            "ticks": 61440,
            "time": 80,
            "velocity": 0.33858267716535434
          },
          {
            "duration": 0,
            "durationTicks": 0,
            "midi": 44,
            "name": "G#2",
            "ticks": 61440,
            "time": 80,
            "velocity": 0.2677165354330709
          },
          {
            "duration": 0.25,
            "durationTicks": 192,
            "midi": 48,
            "name": "C3",
            "ticks": 61440,
            "time": 80,
            "velocity": 0.2755905511811024
          },
          {
            "duration": 0.25,
            "durationTicks": 192,
            "midi": 53,
            "name": "F3",
            "ticks": 61440,
            "time": 80,
            "velocity": 0.2677165354330709
          },
          {
            "duration": 0,
            "durationTicks": 0,
            "midi": 54,
            "name": "F#3",
            "ticks": 61440,
            "time": 80,
            "velocity": 0.2440944881889764
          },
          {
            "duration": 0.375,
            "durationTicks": 288,
            "midi": 65,
            "name": "F4",
            "ticks": 61440,
            "time": 80,
            "velocity": 0.28346456692913385
          },
          {
            "duration": 0.25,
            "durationTicks": 192,
            "midi": 53,
            "name": "F3",
            "ticks": 61440,
            "time": 80,
            "velocity": 0.2677165354330709
          },
          {
            "duration": 0.375,
            "durationTicks": 288,
            "midi": 41,
            "name": "F2",
            "ticks": 61440,
            "time": 80,
            "velocity": 0.30708661417322836
          },
          {
            "duration": 0.125,
            "durationTicks": 96,
            "midi": 60,
            "name": "C4",
            "ticks": 61536,
            "time": 80.125,
            "velocity": 0.33858267716535434
          },
          {
            "duration": 0.375,
            "durationTicks": 288,
            "midi": 60,
            "name": "C4",
            "ticks": 61536,
            "time": 80.125,
            "velocity": 0.33858267716535434
          },
          {
            "duration": 0.125,
            "durationTicks": 96,
            "midi": 57,
            "name": "A3",
            "ticks": 61632,
            "time": 80.25,
            "velocity": 0.3464566929133858
          },
          {
            "duration": 0.125,
            "durationTicks": 96,
            "midi": 65,
            "name": "F4",
            "ticks": 61824,
            "time": 80.5,
            "velocity": 0.1732283464566929
          },
          {
            "duration": 0.125,
            "durationTicks": 96,
            "midi": 62,
            "name": "D4",
            "ticks": 61824,
            "time": 80.5,
            "velocity": 0.25984251968503935
          },
          {
            "duration": 0.25,
            "durationTicks": 192,
            "midi": 53,
            "name": "F3",
            "ticks": 61824,
            "time": 80.5,
            "velocity": 0.25196850393700787
          },
          {
            "duration": 0,
            "durationTicks": 0,
            "midi": 61,
            "name": "C#4",
            "ticks": 61824,
            "time": 80.5,
            "velocity": 0.28346456692913385
          },
          {
            "duration": 0.5,
            "durationTicks": 384,
            "midi": 65,
            "name": "F4",
            "ticks": 61824,
            "time": 80.5,
            "velocity": 0.1732283464566929
          },
          {
            "duration": 0.25,
            "durationTicks": 192,
            "midi": 50,
            "name": "D3",
            "ticks": 61824,
            "time": 80.5,
            "velocity": 0.25984251968503935
          },
          {
            "duration": 0.5,
            "durationTicks": 384,
            "midi": 69,
            "name": "A4",
            "ticks": 61824,
            "time": 80.5,
            "velocity": 0.23622047244094488
          },
          {
            "duration": 0,
            "durationTicks": 0,
            "midi": 38,
            "name": "D2",
            "ticks": 61824,
            "time": 80.5,
            "velocity": 0.33858267716535434
          },
          {
            "duration": 0.5,
            "durationTicks": 384,
            "midi": 72,
            "name": "C5",
            "ticks": 61824,
            "time": 80.5,
            "velocity": 0.2992125984251969
          },
          {
            "duration": 0.125,
            "durationTicks": 96,
            "midi": 60,
            "name": "C4",
            "ticks": 61824,
            "time": 80.5,
            "velocity": 0.3464566929133858
          },
          {
            "duration": 0.375,
            "durationTicks": 288,
            "midi": 41,
            "name": "F2",
            "ticks": 61824,
            "time": 80.5,
            "velocity": 0.2992125984251969
          },
          {
            "duration": 0,
            "durationTicks": 0,
            "midi": 44,
            "name": "G#2",
            "ticks": 61824,
            "time": 80.5,
            "velocity": 0.25984251968503935
          },
          {
            "duration": 0,
            "durationTicks": 0,
            "midi": 54,
            "name": "F#3",
            "ticks": 61824,
            "time": 80.5,
            "velocity": 0.2204724409448819
          },
          {
            "duration": 0.125,
            "durationTicks": 96,
            "midi": 60,
            "name": "C4",
            "ticks": 62208,
            "time": 81,
            "velocity": 0.25984251968503935
          },
          {
            "duration": 0,
            "durationTicks": 0,
            "midi": 54,
            "name": "F#3",
            "ticks": 62208,
            "time": 81,
            "velocity": 0.2440944881889764
          },
          {
            "duration": 0,
            "durationTicks": 0,
            "midi": 44,
            "name": "G#2",
            "ticks": 62208,
            "time": 81,
            "velocity": 0.2677165354330709
          },
          {
            "duration": 0.25,
            "durationTicks": 192,
            "midi": 48,
            "name": "C3",
            "ticks": 62208,
            "time": 81,
            "velocity": 0.25984251968503935
          },
          {
            "duration": 0,
            "durationTicks": 0,
            "midi": 36,
            "name": "C2",
            "ticks": 62208,
            "time": 81,
            "velocity": 0.33858267716535434
          },
          {
            "duration": 0,
            "durationTicks": 0,
            "midi": 61,
            "name": "C#4",
            "ticks": 62208,
            "time": 81,
            "velocity": 0.28346456692913385
          },
          {
            "duration": 0.125,
            "durationTicks": 96,
            "midi": 65,
            "name": "F4",
            "ticks": 62208,
            "time": 81,
            "velocity": 0.14960629921259844
          },
          {
            "duration": 0.125,
            "durationTicks": 96,
            "midi": 72,
            "name": "C5",
            "ticks": 62208,
            "time": 81,
            "velocity": 0.28346456692913385
          },
          {
            "duration": 0.125,
            "durationTicks": 96,
            "midi": 41,
            "name": "F2",
            "ticks": 62208,
            "time": 81,
            "velocity": 0.31496062992125984
          },
          {
            "duration": 0.75,
            "durationTicks": 576,
            "midi": 60,
            "name": "C4",
            "ticks": 62208,
            "time": 81,
            "velocity": 0.25984251968503935
          },
          {
            "duration": 0.125,
            "durationTicks": 96,
            "midi": 65,
            "name": "F4",
            "ticks": 62208,
            "time": 81,
            "velocity": 0.14960629921259844
          },
          {
            "duration": 0.25,
            "durationTicks": 192,
            "midi": 53,
            "name": "F3",
            "ticks": 62208,
            "time": 81,
            "velocity": 0.2677165354330709
          },
          {
            "duration": 0.125,
            "durationTicks": 96,
            "midi": 69,
            "name": "A4",
            "ticks": 62208,
            "time": 81,
            "velocity": 0.23622047244094488
          },
          {
            "duration": 0.125,
            "durationTicks": 96,
            "midi": 62,
            "name": "D4",
            "ticks": 62400,
            "time": 81.25,
            "velocity": 0.25984251968503935
          },
          {
            "duration": 0.25,
            "durationTicks": 192,
            "midi": 41,
            "name": "F2",
            "ticks": 62400,
            "time": 81.25,
            "velocity": 0.2992125984251969
          },
          {
            "duration": 0.125,
            "durationTicks": 96,
            "midi": 65,
            "name": "F4",
            "ticks": 62496,
            "time": 81.375,
            "velocity": 0.25984251968503935
          },
          {
            "duration": 0,
            "durationTicks": 0,
            "midi": 44,
            "name": "G#2",
            "ticks": 62592,
            "time": 81.5,
            "velocity": 0.2677165354330709
          },
          {
            "duration": 0,
            "durationTicks": 0,
            "midi": 54,
            "name": "F#3",
            "ticks": 62592,
            "time": 81.5,
            "velocity": 0.2283464566929134
          },
          {
            "duration": 0,
            "durationTicks": 0,
            "midi": 61,
            "name": "C#4",
            "ticks": 62592,
            "time": 81.5,
            "velocity": 0.28346456692913385
          },
          {
            "duration": 0.125,
            "durationTicks": 96,
            "midi": 50,
            "name": "D3",
            "ticks": 62592,
            "time": 81.5,
            "velocity": 0.2755905511811024
          },
          {
            "duration": 0,
            "durationTicks": 0,
            "midi": 38,
            "name": "D2",
            "ticks": 62592,
            "time": 81.5,
            "velocity": 0.33858267716535434
          },
          {
            "duration": 0.125,
            "durationTicks": 96,
            "midi": 53,
            "name": "F3",
            "ticks": 62592,
            "time": 81.5,
            "velocity": 0.25196850393700787
          },
          {
            "duration": 0,
            "durationTicks": 0,
            "midi": 46,
            "name": "A#2",
            "ticks": 62784,
            "time": 81.75,
            "velocity": 0.2677165354330709
          },
          {
            "duration": 0.125,
            "durationTicks": 96,
            "midi": 41,
            "name": "F2",
            "ticks": 62784,
            "time": 81.75,
            "velocity": 0.2992125984251969
          },
          {
            "duration": 0.125,
            "durationTicks": 96,
            "midi": 53,
            "name": "F3",
            "ticks": 62784,
            "time": 81.75,
            "velocity": 0.2125984251968504
          },
          {
            "duration": 0.5,
            "durationTicks": 384,
            "midi": 60,
            "name": "C4",
            "ticks": 62784,
            "time": 81.75,
            "velocity": 0.2677165354330709
          },
          {
            "duration": 0.5,
            "durationTicks": 384,
            "midi": 65,
            "name": "F4",
            "ticks": 62784,
            "time": 81.75,
            "velocity": 0.2677165354330709
          },
          {
            "duration": 0.125,
            "durationTicks": 96,
            "midi": 48,
            "name": "C3",
            "ticks": 62784,
            "time": 81.75,
            "velocity": 0.25984251968503935
          },
          {
            "duration": 0,
            "durationTicks": 0,
            "midi": 61,
            "name": "C#4",
            "ticks": 62976,
            "time": 82,
            "velocity": 0.28346456692913385
          },
          {
            "duration": 0,
            "durationTicks": 0,
            "midi": 36,
            "name": "C2",
            "ticks": 62976,
            "time": 82,
            "velocity": 0.33858267716535434
          },
          {
            "duration": 0,
            "durationTicks": 0,
            "midi": 44,
            "name": "G#2",
            "ticks": 62976,
            "time": 82,
            "velocity": 0.2677165354330709
          },
          {
            "duration": 0.375,
            "durationTicks": 288,
            "midi": 41,
            "name": "F2",
            "ticks": 62976,
            "time": 82,
            "velocity": 0.30708661417322836
          },
          {
            "duration": 0,
            "durationTicks": 0,
            "midi": 54,
            "name": "F#3",
            "ticks": 62976,
            "time": 82,
            "velocity": 0.23622047244094488
          },
          {
            "duration": 0.125,
            "durationTicks": 96,
            "midi": 48,
            "name": "C3",
            "ticks": 63168,
            "time": 82.25,
            "velocity": 0.25196850393700787
          },
          {
            "duration": 0.125,
            "durationTicks": 96,
            "midi": 53,
            "name": "F3",
            "ticks": 63168,
            "time": 82.25,
            "velocity": 0.25984251968503935
          },
          {
            "duration": 0.125,
            "durationTicks": 96,
            "midi": 60,
            "name": "C4",
            "ticks": 63168,
            "time": 82.25,
            "velocity": 0.25984251968503935
          },
          {
            "duration": 0.25,
            "durationTicks": 192,
            "midi": 53,
            "name": "F3",
            "ticks": 63168,
            "time": 82.25,
            "velocity": 0.25984251968503935
          },
          {
            "duration": 0.25,
            "durationTicks": 192,
            "midi": 62,
            "name": "D4",
            "ticks": 63360,
            "time": 82.5,
            "velocity": 0.2755905511811024
          },
          {
            "duration": 0.25,
            "durationTicks": 192,
            "midi": 50,
            "name": "D3",
            "ticks": 63360,
            "time": 82.5,
            "velocity": 0.2677165354330709
          },
          {
            "duration": 0.25,
            "durationTicks": 192,
            "midi": 53,
            "name": "F3",
            "ticks": 63360,
            "time": 82.5,
            "velocity": 0.25196850393700787
          },
          {
            "duration": 0.125,
            "durationTicks": 96,
            "midi": 72,
            "name": "C5",
            "ticks": 63360,
            "time": 82.5,
            "velocity": 0.28346456692913385
          },
          {
            "duration": 0.125,
            "durationTicks": 96,
            "midi": 69,
            "name": "A4",
            "ticks": 63360,
            "time": 82.5,
            "velocity": 0.1968503937007874
          },
          {
            "duration": 0,
            "durationTicks": 0,
            "midi": 61,
            "name": "C#4",
            "ticks": 63360,
            "time": 82.5,
            "velocity": 0.28346456692913385
          },
          {
            "duration": 0,
            "durationTicks": 0,
            "midi": 38,
            "name": "D2",
            "ticks": 63360,
            "time": 82.5,
            "velocity": 0.33070866141732286
          },
          {
            "duration": 0.5,
            "durationTicks": 384,
            "midi": 40,
            "name": "E2",
            "ticks": 63360,
            "time": 82.5,
            "velocity": 0.2992125984251969
          },
          {
            "duration": 0,
            "durationTicks": 0,
            "midi": 44,
            "name": "G#2",
            "ticks": 63360,
            "time": 82.5,
            "velocity": 0.25984251968503935
          },
          {
            "duration": 0.25,
            "durationTicks": 192,
            "midi": 65,
            "name": "F4",
            "ticks": 63360,
            "time": 82.5,
            "velocity": 0.2677165354330709
          },
          {
            "duration": 0,
            "durationTicks": 0,
            "midi": 54,
            "name": "F#3",
            "ticks": 63360,
            "time": 82.5,
            "velocity": 0.2440944881889764
          },
          {
            "duration": 0.125,
            "durationTicks": 96,
            "midi": 57,
            "name": "A3",
            "ticks": 63552,
            "time": 82.75,
            "velocity": 0.2440944881889764
          },
          {
            "duration": 0,
            "durationTicks": 0,
            "midi": 36,
            "name": "C2",
            "ticks": 63744,
            "time": 83,
            "velocity": 0.33858267716535434
          },
          {
            "duration": 0,
            "durationTicks": 0,
            "midi": 44,
            "name": "G#2",
            "ticks": 63744,
            "time": 83,
            "velocity": 0.25984251968503935
          },
          {
            "duration": 0.25,
            "durationTicks": 192,
            "midi": 60,
            "name": "C4",
            "ticks": 63744,
            "time": 83,
            "velocity": 0.2755905511811024
          },
          {
            "duration": 0.25,
            "durationTicks": 192,
            "midi": 65,
            "name": "F4",
            "ticks": 63744,
            "time": 83,
            "velocity": 0.2677165354330709
          },
          {
            "duration": 0,
            "durationTicks": 0,
            "midi": 61,
            "name": "C#4",
            "ticks": 63744,
            "time": 83,
            "velocity": 0.28346456692913385
          },
          {
            "duration": 0.375,
            "durationTicks": 288,
            "midi": 55,
            "name": "G3",
            "ticks": 63744,
            "time": 83,
            "velocity": 0.2440944881889764
          },
          {
            "duration": 0.25,
            "durationTicks": 192,
            "midi": 53,
            "name": "F3",
            "ticks": 63744,
            "time": 83,
            "velocity": 0.2755905511811024
          },
          {
            "duration": 0,
            "durationTicks": 0,
            "midi": 54,
            "name": "F#3",
            "ticks": 63744,
            "time": 83,
            "velocity": 0.2440944881889764
          },
          {
            "duration": 0.25,
            "durationTicks": 192,
            "midi": 48,
            "name": "C3",
            "ticks": 63744,
            "time": 83,
            "velocity": 0.2755905511811024
          },
          {
            "duration": 0.375,
            "durationTicks": 288,
            "midi": 38,
            "name": "D2",
            "ticks": 63744,
            "time": 83,
            "velocity": 0.30708661417322836
          },
          {
            "duration": 0.125,
            "durationTicks": 96,
            "midi": 62,
            "name": "D4",
            "ticks": 63936,
            "time": 83.25,
            "velocity": 0.25984251968503935
          },
          {
            "duration": 0.125,
            "durationTicks": 96,
            "midi": 65,
            "name": "F4",
            "ticks": 64032,
            "time": 83.375,
            "velocity": 0.2755905511811024
          },
          {
            "duration": 0.125,
            "durationTicks": 96,
            "midi": 69,
            "name": "A4",
            "ticks": 64128,
            "time": 83.5,
            "velocity": 0.2204724409448819
          },
          {
            "duration": 0.125,
            "durationTicks": 96,
            "midi": 72,
            "name": "C5",
            "ticks": 64128,
            "time": 83.5,
            "velocity": 0.2677165354330709
          },
          {
            "duration": 0.375,
            "durationTicks": 288,
            "midi": 36,
            "name": "C2",
            "ticks": 64128,
            "time": 83.5,
            "velocity": 0.2992125984251969
          },
          {
            "duration": 0.25,
            "durationTicks": 192,
            "midi": 53,
            "name": "F3",
            "ticks": 64128,
            "time": 83.5,
            "velocity": 0.25984251968503935
          },
          {
            "duration": 0.25,
            "durationTicks": 192,
            "midi": 50,
            "name": "D3",
            "ticks": 64128,
            "time": 83.5,
            "velocity": 0.25984251968503935
          },
          {
            "duration": 0,
            "durationTicks": 0,
            "midi": 54,
            "name": "F#3",
            "ticks": 64128,
            "time": 83.5,
            "velocity": 0.2283464566929134
          },
          {
            "duration": 0,
            "durationTicks": 0,
            "midi": 61,
            "name": "C#4",
            "ticks": 64128,
            "time": 83.5,
            "velocity": 0.2755905511811024
          },
          {
            "duration": 0,
            "durationTicks": 0,
            "midi": 38,
            "name": "D2",
            "ticks": 64128,
            "time": 83.5,
            "velocity": 0.33070866141732286
          },
          {
            "duration": 0,
            "durationTicks": 0,
            "midi": 44,
            "name": "G#2",
            "ticks": 64128,
            "time": 83.5,
            "velocity": 0.25984251968503935
          },
          {
            "duration": 0,
            "durationTicks": 0,
            "midi": 46,
            "name": "A#2",
            "ticks": 64320,
            "time": 83.75,
            "velocity": 0.2677165354330709
          },
          {
            "duration": 0.375,
            "durationTicks": 288,
            "midi": 67,
            "name": "G4",
            "ticks": 64512,
            "time": 84,
            "velocity": 0.25984251968503935
          },
          {
            "duration": 0,
            "durationTicks": 0,
            "midi": 36,
            "name": "C2",
            "ticks": 64512,
            "time": 84,
            "velocity": 0.33858267716535434
          },
          {
            "duration": 0,
            "durationTicks": 0,
            "midi": 54,
            "name": "F#3",
            "ticks": 64512,
            "time": 84,
            "velocity": 0.2204724409448819
          },
          {
            "duration": 0,
            "durationTicks": 0,
            "midi": 44,
            "name": "G#2",
            "ticks": 64512,
            "time": 84,
            "velocity": 0.25984251968503935
          },
          {
            "duration": 0,
            "durationTicks": 0,
            "midi": 60,
            "name": "C4",
            "ticks": 64512,
            "time": 84,
            "velocity": 0.2755905511811024
          },
          {
            "duration": 0.125,
            "durationTicks": 96,
            "midi": 64,
            "name": "E4",
            "ticks": 64512,
            "time": 84,
            "velocity": 0.33858267716535434
          },
          {
            "duration": 0.25,
            "durationTicks": 192,
            "midi": 55,
            "name": "G3",
            "ticks": 64512,
            "time": 84,
            "velocity": 0.23622047244094488
          },
          {
            "duration": 0.25,
            "durationTicks": 192,
            "midi": 50,
            "name": "D3",
            "ticks": 64512,
            "time": 84,
            "velocity": 0.25984251968503935
          },
          {
            "duration": 0.375,
            "durationTicks": 288,
            "midi": 31,
            "name": "G1",
            "ticks": 64512,
            "time": 84,
            "velocity": 0.31496062992125984
          },
          {
            "duration": 0.375,
            "durationTicks": 288,
            "midi": 62,
            "name": "D4",
            "ticks": 64512,
            "time": 84,
            "velocity": 0.25984251968503935
          },
          {
            "duration": 0.5,
            "durationTicks": 384,
            "midi": 71,
            "name": "B4",
            "ticks": 64896,
            "time": 84.5,
            "velocity": 0.25196850393700787
          },
          {
            "duration": 0,
            "durationTicks": 0,
            "midi": 38,
            "name": "D2",
            "ticks": 64896,
            "time": 84.5,
            "velocity": 0.33858267716535434
          },
          {
            "duration": 0,
            "durationTicks": 0,
            "midi": 44,
            "name": "G#2",
            "ticks": 64896,
            "time": 84.5,
            "velocity": 0.2677165354330709
          },
          {
            "duration": 0.125,
            "durationTicks": 96,
            "midi": 64,
            "name": "E4",
            "ticks": 64896,
            "time": 84.5,
            "velocity": 0.2677165354330709
          },
          {
            "duration": 0.25,
            "durationTicks": 192,
            "midi": 55,
            "name": "G3",
            "ticks": 64896,
            "time": 84.5,
            "velocity": 0.2755905511811024
          },
          {
            "duration": 0.125,
            "durationTicks": 96,
            "midi": 67,
            "name": "G4",
            "ticks": 64896,
            "time": 84.5,
            "velocity": 0.2755905511811024
          },
          {
            "duration": 0.25,
            "durationTicks": 192,
            "midi": 52,
            "name": "E3",
            "ticks": 64896,
            "time": 84.5,
            "velocity": 0.25984251968503935
          },
          {
            "duration": 0.125,
            "durationTicks": 96,
            "midi": 64,
            "name": "E4",
            "ticks": 64896,
            "time": 84.5,
            "velocity": 0.2677165354330709
          },
          {
            "duration": 0.5,
            "durationTicks": 384,
            "midi": 74,
            "name": "D5",
            "ticks": 64896,
            "time": 84.5,
            "velocity": 0.2992125984251969
          },
          {
            "duration": 0.25,
            "durationTicks": 192,
            "midi": 55,
            "name": "G3",
            "ticks": 64896,
            "time": 84.5,
            "velocity": 0.2755905511811024
          },
          {
            "duration": 0.375,
            "durationTicks": 288,
            "midi": 31,
            "name": "G1",
            "ticks": 64896,
            "time": 84.5,
            "velocity": 0.30708661417322836
          },
          {
            "duration": 0,
            "durationTicks": 0,
            "midi": 54,
            "name": "F#3",
            "ticks": 64896,
            "time": 84.5,
            "velocity": 0.2283464566929134
          },
          {
            "duration": 0,
            "durationTicks": 0,
            "midi": 61,
            "name": "C#4",
            "ticks": 64896,
            "time": 84.5,
            "velocity": 0.29133858267716534
          },
          {
            "duration": 0.125,
            "durationTicks": 96,
            "midi": 64,
            "name": "E4",
            "ticks": 65088,
            "time": 84.75,
            "velocity": 0.3464566929133858
          },
          {
            "duration": 0.125,
            "durationTicks": 96,
            "midi": 67,
            "name": "G4",
            "ticks": 65280,
            "time": 85,
            "velocity": 0.13385826771653545
          },
          {
            "duration": 0,
            "durationTicks": 0,
            "midi": 44,
            "name": "G#2",
            "ticks": 65280,
            "time": 85,
            "velocity": 0.25984251968503935
          },
          {
            "duration": 0.125,
            "durationTicks": 96,
            "midi": 74,
            "name": "D5",
            "ticks": 65280,
            "time": 85,
            "velocity": 0.28346456692913385
          },
          {
            "duration": 0,
            "durationTicks": 0,
            "midi": 61,
            "name": "C#4",
            "ticks": 65280,
            "time": 85,
            "velocity": 0.28346456692913385
          },
          {
            "duration": 0.125,
            "durationTicks": 96,
            "midi": 71,
            "name": "B4",
            "ticks": 65280,
            "time": 85,
            "velocity": 0.2677165354330709
          },
          {
            "duration": 0.25,
            "durationTicks": 192,
            "midi": 50,
            "name": "D3",
            "ticks": 65280,
            "time": 85,
            "velocity": 0.25196850393700787
          },
          {
            "duration": 0.25,
            "durationTicks": 192,
            "midi": 67,
            "name": "G4",
            "ticks": 65280,
            "time": 85,
            "velocity": 0.13385826771653545
          },
          {
            "duration": 0.125,
            "durationTicks": 96,
            "midi": 31,
            "name": "G1",
            "ticks": 65280,
            "time": 85,
            "velocity": 0.2992125984251969
          },
          {
            "duration": 0.25,
            "durationTicks": 192,
            "midi": 55,
            "name": "G3",
            "ticks": 65280,
            "time": 85,
            "velocity": 0.2755905511811024
          },
          {
            "duration": 0,
            "durationTicks": 0,
            "midi": 36,
            "name": "C2",
            "ticks": 65280,
            "time": 85,
            "velocity": 0.33070866141732286
          },
          {
            "duration": 0,
            "durationTicks": 0,
            "midi": 54,
            "name": "F#3",
            "ticks": 65280,
            "time": 85,
            "velocity": 0.2283464566929134
          },
          {
            "duration": 0.25,
            "durationTicks": 192,
            "midi": 62,
            "name": "D4",
            "ticks": 65280,
            "time": 85,
            "velocity": 0.25984251968503935
          },
          {
            "duration": 0.25,
            "durationTicks": 192,
            "midi": 31,
            "name": "G1",
            "ticks": 65472,
            "time": 85.25,
            "velocity": 0.30708661417322836
          },
          {
            "duration": 0.125,
            "durationTicks": 96,
            "midi": 64,
            "name": "E4",
            "ticks": 65472,
            "time": 85.25,
            "velocity": 0.25984251968503935
          },
          {
            "duration": 0.125,
            "durationTicks": 96,
            "midi": 64,
            "name": "E4",
            "ticks": 65472,
            "time": 85.25,
            "velocity": 0.25984251968503935
          },
          {
            "duration": 0.125,
            "durationTicks": 96,
            "midi": 67,
            "name": "G4",
            "ticks": 65472,
            "time": 85.25,
            "velocity": 0.25984251968503935
          },
          {
            "duration": 0,
            "durationTicks": 0,
            "midi": 38,
            "name": "D2",
            "ticks": 65664,
            "time": 85.5,
            "velocity": 0.33858267716535434
          },
          {
            "duration": 0.125,
            "durationTicks": 96,
            "midi": 55,
            "name": "G3",
            "ticks": 65664,
            "time": 85.5,
            "velocity": 0.25196850393700787
          },
          {
            "duration": 0.125,
            "durationTicks": 96,
            "midi": 52,
            "name": "E3",
            "ticks": 65664,
            "time": 85.5,
            "velocity": 0.2677165354330709
          },
          {
            "duration": 0,
            "durationTicks": 0,
            "midi": 61,
            "name": "C#4",
            "ticks": 65664,
            "time": 85.5,
            "velocity": 0.2755905511811024
          },
          {
            "duration": 0,
            "durationTicks": 0,
            "midi": 44,
            "name": "G#2",
            "ticks": 65664,
            "time": 85.5,
            "velocity": 0.25984251968503935
          },
          {
            "duration": 0.125,
            "durationTicks": 96,
            "midi": 64,
            "name": "E4",
            "ticks": 65664,
            "time": 85.5,
            "velocity": 0.33070866141732286
          },
          {
            "duration": 0,
            "durationTicks": 0,
            "midi": 54,
            "name": "F#3",
            "ticks": 65664,
            "time": 85.5,
            "velocity": 0.23622047244094488
          },
          {
            "duration": 0,
            "durationTicks": 0,
            "midi": 46,
            "name": "A#2",
            "ticks": 65856,
            "time": 85.75,
            "velocity": 0.2677165354330709
          },
          {
            "duration": 0.125,
            "durationTicks": 96,
            "midi": 50,
            "name": "D3",
            "ticks": 65856,
            "time": 85.75,
            "velocity": 0.2677165354330709
          },
          {
            "duration": 0.125,
            "durationTicks": 96,
            "midi": 55,
            "name": "G3",
            "ticks": 65856,
            "time": 85.75,
            "velocity": 0.2440944881889764
          },
          {
            "duration": 0.25,
            "durationTicks": 192,
            "midi": 67,
            "name": "G4",
            "ticks": 65856,
            "time": 85.75,
            "velocity": 0.3464566929133858
          },
          {
            "duration": 0.5,
            "durationTicks": 384,
            "midi": 62,
            "name": "D4",
            "ticks": 65856,
            "time": 85.75,
            "velocity": 0.25984251968503935
          },
          {
            "duration": 0.125,
            "durationTicks": 96,
            "midi": 31,
            "name": "G1",
            "ticks": 65856,
            "time": 85.75,
            "velocity": 0.2992125984251969
          },
          {
            "duration": 0.5,
            "durationTicks": 384,
            "midi": 67,
            "name": "G4",
            "ticks": 65856,
            "time": 85.75,
            "velocity": 0.3464566929133858
          },
          {
            "duration": 0,
            "durationTicks": 0,
            "midi": 54,
            "name": "F#3",
            "ticks": 66048,
            "time": 86,
            "velocity": 0.2283464566929134
          },
          {
            "duration": 0,
            "durationTicks": 0,
            "midi": 60,
            "name": "C4",
            "ticks": 66048,
            "time": 86,
            "velocity": 0.2755905511811024
          },
          {
            "duration": 0,
            "durationTicks": 0,
            "midi": 36,
            "name": "C2",
            "ticks": 66048,
            "time": 86,
            "velocity": 0.33070866141732286
          },
          {
            "duration": 0.375,
            "durationTicks": 288,
            "midi": 31,
            "name": "G1",
            "ticks": 66048,
            "time": 86,
            "velocity": 0.31496062992125984
          },
          {
            "duration": 0,
            "durationTicks": 0,
            "midi": 44,
            "name": "G#2",
            "ticks": 66048,
            "time": 86,
            "velocity": 0.2755905511811024
          },
          {
            "duration": 0.125,
            "durationTicks": 96,
            "midi": 62,
            "name": "D4",
            "ticks": 66240,
            "time": 86.25,
            "velocity": 0.23622047244094488
          },
          {
            "duration": 0.125,
            "durationTicks": 96,
            "midi": 55,
            "name": "G3",
            "ticks": 66240,
            "time": 86.25,
            "velocity": 0.2755905511811024
          },
          {
            "duration": 0.125,
            "durationTicks": 96,
            "midi": 50,
            "name": "D3",
            "ticks": 66240,
            "time": 86.25,
            "velocity": 0.2677165354330709
          },
          {
            "duration": 0.25,
            "durationTicks": 192,
            "midi": 67,
            "name": "G4",
            "ticks": 66240,
            "time": 86.25,
            "velocity": 0.3464566929133858
          },
          {
            "duration": 0.25,
            "durationTicks": 192,
            "midi": 55,
            "name": "G3",
            "ticks": 66240,
            "time": 86.25,
            "velocity": 0.2755905511811024
          },
          {
            "duration": 0.125,
            "durationTicks": 96,
            "midi": 71,
            "name": "B4",
            "ticks": 66432,
            "time": 86.5,
            "velocity": 0.2047244094488189
          },
          {
            "duration": 0.125,
            "durationTicks": 96,
            "midi": 67,
            "name": "G4",
            "ticks": 66432,
            "time": 86.5,
            "velocity": 0.2677165354330709
          },
          {
            "duration": 0.125,
            "durationTicks": 96,
            "midi": 52,
            "name": "E3",
            "ticks": 66432,
            "time": 86.5,
            "velocity": 0.25196850393700787
          },
          {
            "duration": 0,
            "durationTicks": 0,
            "midi": 54,
            "name": "F#3",
            "ticks": 66432,
            "time": 86.5,
            "velocity": 0.2283464566929134
          },
          {
            "duration": 0,
            "durationTicks": 0,
            "midi": 61,
            "name": "C#4",
            "ticks": 66432,
            "time": 86.5,
            "velocity": 0.2755905511811024
          },
          {
            "duration": 0.125,
            "durationTicks": 96,
            "midi": 55,
            "name": "G3",
            "ticks": 66432,
            "time": 86.5,
            "velocity": 0.25984251968503935
          },
          {
            "duration": 0.125,
            "durationTicks": 96,
            "midi": 64,
            "name": "E4",
            "ticks": 66432,
            "time": 86.5,
            "velocity": 0.2677165354330709
          },
          {
            "duration": 0.125,
            "durationTicks": 96,
            "midi": 74,
            "name": "D5",
            "ticks": 66432,
            "time": 86.5,
            "velocity": 0.2677165354330709
          },
          {
            "duration": 0.375,
            "durationTicks": 288,
            "midi": 31,
            "name": "G1",
            "ticks": 66432,
            "time": 86.5,
            "velocity": 0.2992125984251969
          },
          {
            "duration": 0,
            "durationTicks": 0,
            "midi": 44,
            "name": "G#2",
            "ticks": 66432,
            "time": 86.5,
            "velocity": 0.25984251968503935
          },
          {
            "duration": 0,
            "durationTicks": 0,
            "midi": 38,
            "name": "D2",
            "ticks": 66432,
            "time": 86.5,
            "velocity": 0.33858267716535434
          },
          {
            "duration": 0.125,
            "durationTicks": 96,
            "midi": 64,
            "name": "E4",
            "ticks": 66624,
            "time": 86.75,
            "velocity": 0.33858267716535434
          },
          {
            "duration": 0.25,
            "durationTicks": 192,
            "midi": 55,
            "name": "G3",
            "ticks": 66816,
            "time": 87,
            "velocity": 0.2677165354330709
          },
          {
            "duration": 0.25,
            "durationTicks": 192,
            "midi": 67,
            "name": "G4",
            "ticks": 66816,
            "time": 87,
            "velocity": 0.33070866141732286
          },
          {
            "duration": 0.25,
            "durationTicks": 192,
            "midi": 50,
            "name": "D3",
            "ticks": 66816,
            "time": 87,
            "velocity": 0.2677165354330709
          },
          {
            "duration": 0.125,
            "durationTicks": 96,
            "midi": 31,
            "name": "G1",
            "ticks": 66816,
            "time": 87,
            "velocity": 0.30708661417322836
          },
          {
            "duration": 0.25,
            "durationTicks": 192,
            "midi": 62,
            "name": "D4",
            "ticks": 66816,
            "time": 87,
            "velocity": 0.25984251968503935
          },
          {
            "duration": 0.25,
            "durationTicks": 192,
            "midi": 67,
            "name": "G4",
            "ticks": 66816,
            "time": 87,
            "velocity": 0.33070866141732286
          },
          {
            "duration": 0,
            "durationTicks": 0,
            "midi": 61,
            "name": "C#4",
            "ticks": 66816,
            "time": 87,
            "velocity": 0.28346456692913385
          },
          {
            "duration": 0,
            "durationTicks": 0,
            "midi": 36,
            "name": "C2",
            "ticks": 66816,
            "time": 87,
            "velocity": 0.33858267716535434
          },
          {
            "duration": 0,
            "durationTicks": 0,
            "midi": 44,
            "name": "G#2",
            "ticks": 66816,
            "time": 87,
            "velocity": 0.25984251968503935
          },
          {
            "duration": 0,
            "durationTicks": 0,
            "midi": 54,
            "name": "F#3",
            "ticks": 66816,
            "time": 87,
            "velocity": 0.2283464566929134
          },
          {
            "duration": 0.25,
            "durationTicks": 192,
            "midi": 64,
            "name": "E4",
            "ticks": 67008,
            "time": 87.25,
            "velocity": 0.33070866141732286
          },
          {
            "duration": 0.25,
            "durationTicks": 192,
            "midi": 64,
            "name": "E4",
            "ticks": 67008,
            "time": 87.25,
            "velocity": 0.33070866141732286
          },
          {
            "duration": 0.25,
            "durationTicks": 192,
            "midi": 38,
            "name": "D2",
            "ticks": 67008,
            "time": 87.25,
            "velocity": 0.30708661417322836
          },
          {
            "duration": 0,
            "durationTicks": 0,
            "midi": 38,
            "name": "D2",
            "ticks": 67200,
            "time": 87.5,
            "velocity": 0.33858267716535434
          },
          {
            "duration": 0,
            "durationTicks": 0,
            "midi": 44,
            "name": "G#2",
            "ticks": 67200,
            "time": 87.5,
            "velocity": 0.25984251968503935
          },
          {
            "duration": 0.125,
            "durationTicks": 96,
            "midi": 55,
            "name": "G3",
            "ticks": 67200,
            "time": 87.5,
            "velocity": 0.23622047244094488
          },
          {
            "duration": 0.125,
            "durationTicks": 96,
            "midi": 74,
            "name": "D5",
            "ticks": 67200,
            "time": 87.5,
            "velocity": 0.28346456692913385
          },
          {
            "duration": 0.125,
            "durationTicks": 96,
            "midi": 67,
            "name": "G4",
            "ticks": 67200,
            "time": 87.5,
            "velocity": 0.13385826771653545
          },
          {
            "duration": 0.25,
            "durationTicks": 192,
            "midi": 40,
            "name": "E2",
            "ticks": 67200,
            "time": 87.5,
            "velocity": 0.2992125984251969
          },
          {
            "duration": 0.25,
            "durationTicks": 192,
            "midi": 55,
            "name": "G3",
            "ticks": 67200,
            "time": 87.5,
            "velocity": 0.23622047244094488
          },
          {
            "duration": 0.125,
            "durationTicks": 96,
            "midi": 71,
            "name": "B4",
            "ticks": 67200,
            "time": 87.5,
            "velocity": 0.2677165354330709
          },
          {
            "duration": 0.25,
            "durationTicks": 192,
            "midi": 52,
            "name": "E3",
            "ticks": 67200,
            "time": 87.5,
            "velocity": 0.2755905511811024
          },
          {
            "duration": 0,
            "durationTicks": 0,
            "midi": 54,
            "name": "F#3",
            "ticks": 67200,
            "time": 87.5,
            "velocity": 0.2440944881889764
          },
          {
            "duration": 0,
            "durationTicks": 0,
            "midi": 61,
            "name": "C#4",
            "ticks": 67200,
            "time": 87.5,
            "velocity": 0.28346456692913385
          },
          {
            "duration": 0,
            "durationTicks": 0,
            "midi": 46,
            "name": "A#2",
            "ticks": 67392,
            "time": 87.75,
            "velocity": 0.2755905511811024
          },
          {
            "duration": 0.25,
            "durationTicks": 192,
            "midi": 43,
            "name": "G2",
            "ticks": 67392,
            "time": 87.75,
            "velocity": 0.2992125984251969
          },
          {
            "duration": 0.25,
            "durationTicks": 192,
            "midi": 48,
            "name": "C3",
            "ticks": 67584,
            "time": 88,
            "velocity": 0.25984251968503935
          },
          {
            "duration": 0,
            "durationTicks": 0,
            "midi": 44,
            "name": "G#2",
            "ticks": 67584,
            "time": 88,
            "velocity": 0.2677165354330709
          },
          {
            "duration": 0,
            "durationTicks": 0,
            "midi": 54,
            "name": "F#3",
            "ticks": 67584,
            "time": 88,
            "velocity": 0.2283464566929134
          },
          {
            "duration": 0,
            "durationTicks": 0,
            "midi": 61,
            "name": "C#4",
            "ticks": 67584,
            "time": 88,
            "velocity": 0.2755905511811024
          },
          {
            "duration": 0.125,
            "durationTicks": 96,
            "midi": 62,
            "name": "D4",
            "ticks": 67584,
            "time": 88,
            "velocity": 0.33070866141732286
          },
          {
            "duration": 0.5,
            "durationTicks": 384,
            "midi": 65,
            "name": "F4",
            "ticks": 67584,
            "time": 88,
            "velocity": 0.2440944881889764
          },
          {
            "duration": 0,
            "durationTicks": 0,
            "midi": 36,
            "name": "C2",
            "ticks": 67584,
            "time": 88,
            "velocity": 0.33858267716535434
          },
          {
            "duration": 0.375,
            "durationTicks": 288,
            "midi": 41,
            "name": "F2",
            "ticks": 67584,
            "time": 88,
            "velocity": 0.31496062992125984
          },
          {
            "duration": 0.25,
            "durationTicks": 192,
            "midi": 53,
            "name": "F3",
            "ticks": 67584,
            "time": 88,
            "velocity": 0.2755905511811024
          },
          {
            "duration": 0.5,
            "durationTicks": 384,
            "midi": 53,
            "name": "F3",
            "ticks": 67584,
            "time": 88,
            "velocity": 0.2755905511811024
          },
          {
            "duration": 0.125,
            "durationTicks": 96,
            "midi": 60,
            "name": "C4",
            "ticks": 67680,
            "time": 88.125,
            "velocity": 0.33858267716535434
          },
          {
            "duration": 0.375,
            "durationTicks": 288,
            "midi": 60,
            "name": "C4",
            "ticks": 67680,
            "time": 88.125,
            "velocity": 0.33858267716535434
          },
          {
            "duration": 0.125,
            "durationTicks": 96,
            "midi": 57,
            "name": "A3",
            "ticks": 67776,
            "time": 88.25,
            "velocity": 0.3464566929133858
          },
          {
            "duration": 0.125,
            "durationTicks": 96,
            "midi": 62,
            "name": "D4",
            "ticks": 67968,
            "time": 88.5,
            "velocity": 0.28346456692913385
          },
          {
            "duration": 0.375,
            "durationTicks": 288,
            "midi": 53,
            "name": "F3",
            "ticks": 67968,
            "time": 88.5,
            "velocity": 0.2677165354330709
          },
          {
            "duration": 0.5,
            "durationTicks": 384,
            "midi": 65,
            "name": "F4",
            "ticks": 67968,
            "time": 88.5,
            "velocity": 0.16535433070866143
          },
          {
            "duration": 0.5,
            "durationTicks": 384,
            "midi": 69,
            "name": "A4",
            "ticks": 67968,
            "time": 88.5,
            "velocity": 0.25196850393700787
          },
          {
            "duration": 0.375,
            "durationTicks": 288,
            "midi": 50,
            "name": "D3",
            "ticks": 67968,
            "time": 88.5,
            "velocity": 0.25984251968503935
          },
          {
            "duration": 0.125,
            "durationTicks": 96,
            "midi": 60,
            "name": "C4",
            "ticks": 67968,
            "time": 88.5,
            "velocity": 0.33858267716535434
          },
          {
            "duration": 0,
            "durationTicks": 0,
            "midi": 38,
            "name": "D2",
            "ticks": 67968,
            "time": 88.5,
            "velocity": 0.33858267716535434
          },
          {
            "duration": 0,
            "durationTicks": 0,
            "midi": 44,
            "name": "G#2",
            "ticks": 67968,
            "time": 88.5,
            "velocity": 0.2677165354330709
          },
          {
            "duration": 0.5,
            "durationTicks": 384,
            "midi": 72,
            "name": "C5",
            "ticks": 67968,
            "time": 88.5,
            "velocity": 0.2755905511811024
          },
          {
            "duration": 0,
            "durationTicks": 0,
            "midi": 54,
            "name": "F#3",
            "ticks": 67968,
            "time": 88.5,
            "velocity": 0.2283464566929134
          },
          {
            "duration": 0.375,
            "durationTicks": 288,
            "midi": 41,
            "name": "F2",
            "ticks": 67968,
            "time": 88.5,
            "velocity": 0.31496062992125984
          },
          {
            "duration": 0,
            "durationTicks": 0,
            "midi": 61,
            "name": "C#4",
            "ticks": 67968,
            "time": 88.5,
            "velocity": 0.2755905511811024
          },
          {
            "duration": 0.125,
            "durationTicks": 96,
            "midi": 65,
            "name": "F4",
            "ticks": 68352,
            "time": 89,
            "velocity": 0.2047244094488189
          },
          {
            "duration": 0.125,
            "durationTicks": 96,
            "midi": 41,
            "name": "F2",
            "ticks": 68352,
            "time": 89,
            "velocity": 0.31496062992125984
          },
          {
            "duration": 0.125,
            "durationTicks": 96,
            "midi": 69,
            "name": "A4",
            "ticks": 68352,
            "time": 89,
            "velocity": 0.2283464566929134
          },
          {
            "duration": 0.375,
            "durationTicks": 288,
            "midi": 53,
            "name": "F3",
            "ticks": 68352,
            "time": 89,
            "velocity": 0.2755905511811024
          },
          {
            "duration": 0.25,
            "durationTicks": 192,
            "midi": 60,
            "name": "C4",
            "ticks": 68352,
            "time": 89,
            "velocity": 0.2440944881889764
          },
          {
            "duration": 0.375,
            "durationTicks": 288,
            "midi": 48,
            "name": "C3",
            "ticks": 68352,
            "time": 89,
            "velocity": 0.25984251968503935
          },
          {
            "duration": 0,
            "durationTicks": 0,
            "midi": 61,
            "name": "C#4",
            "ticks": 68352,
            "time": 89,
            "velocity": 0.2755905511811024
          },
          {
            "duration": 0.375,
            "durationTicks": 288,
            "midi": 60,
            "name": "C4",
            "ticks": 68352,
            "time": 89,
            "velocity": 0.2440944881889764
          },
          {
            "duration": 0.25,
            "durationTicks": 192,
            "midi": 65,
            "name": "F4",
            "ticks": 68352,
            "time": 89,
            "velocity": 0.2047244094488189
          },
          {
            "duration": 0,
            "durationTicks": 0,
            "midi": 36,
            "name": "C2",
            "ticks": 68352,
            "time": 89,
            "velocity": 0.33070866141732286
          },
          {
            "duration": 0,
            "durationTicks": 0,
            "midi": 44,
            "name": "G#2",
            "ticks": 68352,
            "time": 89,
            "velocity": 0.2755905511811024
          },
          {
            "duration": 0.125,
            "durationTicks": 96,
            "midi": 72,
            "name": "C5",
            "ticks": 68352,
            "time": 89,
            "velocity": 0.2677165354330709
          },
          {
            "duration": 0,
            "durationTicks": 0,
            "midi": 54,
            "name": "F#3",
            "ticks": 68352,
            "time": 89,
            "velocity": 0.2283464566929134
          },
          {
            "duration": 0.125,
            "durationTicks": 96,
            "midi": 62,
            "name": "D4",
            "ticks": 68544,
            "time": 89.25,
            "velocity": 0.2677165354330709
          },
          {
            "duration": 0.375,
            "durationTicks": 288,
            "midi": 41,
            "name": "F2",
            "ticks": 68544,
            "time": 89.25,
            "velocity": 0.30708661417322836
          },
          {
            "duration": 0.125,
            "durationTicks": 96,
            "midi": 65,
            "name": "F4",
            "ticks": 68544,
            "time": 89.25,
            "velocity": 0.25984251968503935
          },
          {
            "duration": 0,
            "durationTicks": 0,
            "midi": 38,
            "name": "D2",
            "ticks": 68736,
            "time": 89.5,
            "velocity": 0.33858267716535434
          },
          {
            "duration": 0,
            "durationTicks": 0,
            "midi": 44,
            "name": "G#2",
            "ticks": 68736,
            "time": 89.5,
            "velocity": 0.2677165354330709
          },
          {
            "duration": 0,
            "durationTicks": 0,
            "midi": 54,
            "name": "F#3",
            "ticks": 68736,
            "time": 89.5,
            "velocity": 0.2440944881889764
          },
          {
            "duration": 0.125,
            "durationTicks": 96,
            "midi": 50,
            "name": "D3",
            "ticks": 68736,
            "time": 89.5,
            "velocity": 0.2755905511811024
          },
          {
            "duration": 0,
            "durationTicks": 0,
            "midi": 61,
            "name": "C#4",
            "ticks": 68736,
            "time": 89.5,
            "velocity": 0.28346456692913385
          },
          {
            "duration": 0.125,
            "durationTicks": 96,
            "midi": 53,
            "name": "F3",
            "ticks": 68736,
            "time": 89.5,
            "velocity": 0.25196850393700787
          },
          {
            "duration": 0.125,
            "durationTicks": 96,
            "midi": 41,
            "name": "F2",
            "ticks": 68928,
            "time": 89.75,
            "velocity": 0.2992125984251969
          },
          {
            "duration": 0,
            "durationTicks": 0,
            "midi": 46,
            "name": "A#2",
            "ticks": 68928,
            "time": 89.75,
            "velocity": 0.2677165354330709
          },
          {
            "duration": 0.125,
            "durationTicks": 96,
            "midi": 48,
            "name": "C3",
            "ticks": 68928,
            "time": 89.75,
            "velocity": 0.2755905511811024
          },
          {
            "duration": 0.5,
            "durationTicks": 384,
            "midi": 60,
            "name": "C4",
            "ticks": 68928,
            "time": 89.75,
            "velocity": 0.2677165354330709
          },
          {
            "duration": 0.125,
            "durationTicks": 96,
            "midi": 53,
            "name": "F3",
            "ticks": 68928,
            "time": 89.75,
            "velocity": 0.2204724409448819
          },
          {
            "duration": 0.375,
            "durationTicks": 288,
            "midi": 41,
            "name": "F2",
            "ticks": 69120,
            "time": 90,
            "velocity": 0.2992125984251969
          },
          {
            "duration": 0,
            "durationTicks": 0,
            "midi": 44,
            "name": "G#2",
            "ticks": 69120,
            "time": 90,
            "velocity": 0.2755905511811024
          },
          {
            "duration": 0,
            "durationTicks": 0,
            "midi": 61,
            "name": "C#4",
            "ticks": 69120,
            "time": 90,
            "velocity": 0.2755905511811024
          },
          {
            "duration": 0,
            "durationTicks": 0,
            "midi": 36,
            "name": "C2",
            "ticks": 69120,
            "time": 90,
            "velocity": 0.33070866141732286
          },
          {
            "duration": 0,
            "durationTicks": 0,
            "midi": 54,
            "name": "F#3",
            "ticks": 69120,
            "time": 90,
            "velocity": 0.2440944881889764
          },
          {
            "duration": 0.125,
            "durationTicks": 96,
            "midi": 48,
            "name": "C3",
            "ticks": 69312,
            "time": 90.25,
            "velocity": 0.25984251968503935
          },
          {
            "duration": 0.125,
            "durationTicks": 96,
            "midi": 60,
            "name": "C4",
            "ticks": 69312,
            "time": 90.25,
            "velocity": 0.28346456692913385
          },
          {
            "duration": 0.125,
            "durationTicks": 96,
            "midi": 53,
            "name": "F3",
            "ticks": 69312,
            "time": 90.25,
            "velocity": 0.25196850393700787
          },
          {
            "duration": 0.25,
            "durationTicks": 192,
            "midi": 53,
            "name": "F3",
            "ticks": 69312,
            "time": 90.25,
            "velocity": 0.25196850393700787
          },
          {
            "duration": 0,
            "durationTicks": 0,
            "midi": 54,
            "name": "F#3",
            "ticks": 69504,
            "time": 90.5,
            "velocity": 0.2204724409448819
          },
          {
            "duration": 0.125,
            "durationTicks": 96,
            "midi": 69,
            "name": "A4",
            "ticks": 69504,
            "time": 90.5,
            "velocity": 0.25196850393700787
          },
          {
            "duration": 0.125,
            "durationTicks": 96,
            "midi": 62,
            "name": "D4",
            "ticks": 69504,
            "time": 90.5,
            "velocity": 0.2677165354330709
          },
          {
            "duration": 0.125,
            "durationTicks": 96,
            "midi": 50,
            "name": "D3",
            "ticks": 69504,
            "time": 90.5,
            "velocity": 0.25984251968503935
          },
          {
            "duration": 0,
            "durationTicks": 0,
            "midi": 38,
            "name": "D2",
            "ticks": 69504,
            "time": 90.5,
            "velocity": 0.33858267716535434
          },
          {
            "duration": 0,
            "durationTicks": 0,
            "midi": 44,
            "name": "G#2",
            "ticks": 69504,
            "time": 90.5,
            "velocity": 0.2677165354330709
          },
          {
            "duration": 0.375,
            "durationTicks": 288,
            "midi": 40,
            "name": "E2",
            "ticks": 69504,
            "time": 90.5,
            "velocity": 0.31496062992125984
          },
          {
            "duration": 0.125,
            "durationTicks": 96,
            "midi": 72,
            "name": "C5",
            "ticks": 69504,
            "time": 90.5,
            "velocity": 0.29133858267716534
          },
          {
            "duration": 0,
            "durationTicks": 0,
            "midi": 61,
            "name": "C#4",
            "ticks": 69504,
            "time": 90.5,
            "velocity": 0.2755905511811024
          },
          {
            "duration": 0.125,
            "durationTicks": 96,
            "midi": 53,
            "name": "F3",
            "ticks": 69504,
            "time": 90.5,
            "velocity": 0.2755905511811024
          },
          {
            "duration": 0.125,
            "durationTicks": 96,
            "midi": 60,
            "name": "C4",
            "ticks": 69648,
            "time": 90.6875,
            "velocity": 0.2440944881889764
          },
          {
            "duration": 0.125,
            "durationTicks": 96,
            "midi": 57,
            "name": "A3",
            "ticks": 69696,
            "time": 90.75,
            "velocity": 0.25196850393700787
          },
          {
            "duration": 0,
            "durationTicks": 0,
            "midi": 36,
            "name": "C2",
            "ticks": 69888,
            "time": 91,
            "velocity": 0.33858267716535434
          },
          {
            "duration": 0,
            "durationTicks": 0,
            "midi": 44,
            "name": "G#2",
            "ticks": 69888,
            "time": 91,
            "velocity": 0.25984251968503935
          },
          {
            "duration": 0.25,
            "durationTicks": 192,
            "midi": 53,
            "name": "F3",
            "ticks": 69888,
            "time": 91,
            "velocity": 0.25196850393700787
          },
          {
            "duration": 0,
            "durationTicks": 0,
            "midi": 61,
            "name": "C#4",
            "ticks": 69888,
            "time": 91,
            "velocity": 0.2755905511811024
          },
          {
            "duration": 0,
            "durationTicks": 0,
            "midi": 54,
            "name": "F#3",
            "ticks": 69888,
            "time": 91,
            "velocity": 0.2204724409448819
          },
          {
            "duration": 0.25,
            "durationTicks": 192,
            "midi": 41,
            "name": "F2",
            "ticks": 69888,
            "time": 91,
            "velocity": 0.31496062992125984
          },
          {
            "duration": 0.25,
            "durationTicks": 192,
            "midi": 48,
            "name": "C3",
            "ticks": 69888,
            "time": 91,
            "velocity": 0.25984251968503935
          },
          {
            "duration": 0.25,
            "durationTicks": 192,
            "midi": 60,
            "name": "C4",
            "ticks": 69888,
            "time": 91,
            "velocity": 0.25984251968503935
          },
          {
            "duration": 0.25,
            "durationTicks": 192,
            "midi": 40,
            "name": "E2",
            "ticks": 70080,
            "time": 91.25,
            "velocity": 0.30708661417322836
          },
          {
            "duration": 0.125,
            "durationTicks": 96,
            "midi": 62,
            "name": "D4",
            "ticks": 70080,
            "time": 91.25,
            "velocity": 0.2440944881889764
          },
          {
            "duration": 0.125,
            "durationTicks": 96,
            "midi": 65,
            "name": "F4",
            "ticks": 70272,
            "time": 91.5,
            "velocity": 0.13385826771653545
          },
          {
            "duration": 0,
            "durationTicks": 0,
            "midi": 44,
            "name": "G#2",
            "ticks": 70272,
            "time": 91.5,
            "velocity": 0.25984251968503935
          },
          {
            "duration": 0.25,
            "durationTicks": 192,
            "midi": 50,
            "name": "D3",
            "ticks": 70272,
            "time": 91.5,
            "velocity": 0.25984251968503935
          },
          {
            "duration": 0,
            "durationTicks": 0,
            "midi": 54,
            "name": "F#3",
            "ticks": 70272,
            "time": 91.5,
            "velocity": 0.2440944881889764
          },
          {
            "duration": 0,
            "durationTicks": 0,
            "midi": 61,
            "name": "C#4",
            "ticks": 70272,
            "time": 91.5,
            "velocity": 0.28346456692913385
          },
          {
            "duration": 0,
            "durationTicks": 0,
            "midi": 38,
            "name": "D2",
            "ticks": 70272,
            "time": 91.5,
            "velocity": 0.2992125984251969
          },
          {
            "duration": 0.25,
            "durationTicks": 192,
            "midi": 38,
            "name": "D2",
            "ticks": 70272,
            "time": 91.5,
            "velocity": 0.2992125984251969
          },
          {
            "duration": 0.125,
            "durationTicks": 96,
            "midi": 72,
            "name": "C5",
            "ticks": 70272,
            "time": 91.5,
            "velocity": 0.28346456692913385
          },
          {
            "duration": 0.25,
            "durationTicks": 192,
            "midi": 53,
            "name": "F3",
            "ticks": 70272,
            "time": 91.5,
            "velocity": 0.2677165354330709
          },
          {
            "duration": 0.125,
            "durationTicks": 96,
            "midi": 69,
            "name": "A4",
            "ticks": 70272,
            "time": 91.5,
            "velocity": 0.25984251968503935
          },
          {
            "duration": 0.25,
            "durationTicks": 192,
            "midi": 36,
            "name": "C2",
            "ticks": 70464,
            "time": 91.75,
            "velocity": 0.30708661417322836
          },
          {
            "duration": 0,
            "durationTicks": 0,
            "midi": 46,
            "name": "A#2",
            "ticks": 70464,
            "time": 91.75,
            "velocity": 0.2755905511811024
          },
          {
            "duration": 2.75,
            "durationTicks": 2112,
            "midi": 79,
            "name": "G5",
            "ticks": 70656,
            "time": 92,
            "velocity": 0.2047244094488189
          },
          {
            "duration": 0.375,
            "durationTicks": 288,
            "midi": 62,
            "name": "D4",
            "ticks": 70656,
            "time": 92,
            "velocity": 0.2677165354330709
          },
          {
            "duration": 0,
            "durationTicks": 0,
            "midi": 36,
            "name": "C2",
            "ticks": 70656,
            "time": 92,
            "velocity": 0.33070866141732286
          },
          {
            "duration": 0.375,
            "durationTicks": 288,
            "midi": 67,
            "name": "G4",
            "ticks": 70656,
            "time": 92,
            "velocity": 0.23622047244094488
          },
          {
            "duration": 0,
            "durationTicks": 0,
            "midi": 60,
            "name": "C4",
            "ticks": 70656,
            "time": 92,
            "velocity": 0.28346456692913385
          },
          {
            "duration": 0.375,
            "durationTicks": 288,
            "midi": 55,
            "name": "G3",
            "ticks": 70656,
            "time": 92,
            "velocity": 0.25196850393700787
          },
          {
            "duration": 0.375,
            "durationTicks": 288,
            "midi": 31,
            "name": "G1",
            "ticks": 70656,
            "time": 92,
            "velocity": 0.31496062992125984
          },
          {
            "duration": 0.375,
            "durationTicks": 288,
            "midi": 50,
            "name": "D3",
            "ticks": 70656,
            "time": 92,
            "velocity": 0.2755905511811024
          },
          {
            "duration": 0,
            "durationTicks": 0,
            "midi": 54,
            "name": "F#3",
            "ticks": 70656,
            "time": 92,
            "velocity": 0.2204724409448819
          },
          {
            "duration": 0,
            "durationTicks": 0,
            "midi": 44,
            "name": "G#2",
            "ticks": 70656,
            "time": 92,
            "velocity": 0.25984251968503935
          },
          {
            "duration": 2.75,
            "durationTicks": 2112,
            "midi": 79,
            "name": "G5",
            "ticks": 70656,
            "time": 92,
            "velocity": 0.2047244094488189
          },
          {
            "duration": 0.5,
            "durationTicks": 384,
            "midi": 55,
            "name": "G3",
            "ticks": 70656,
            "time": 92,
            "velocity": 0.25196850393700787
          },
          {
            "duration": 0.25,
            "durationTicks": 192,
            "midi": 64,
            "name": "E4",
            "ticks": 70848,
            "time": 92.25,
            "velocity": 0.33858267716535434
          },
          {
            "duration": 0.375,
            "durationTicks": 288,
            "midi": 55,
            "name": "G3",
            "ticks": 71040,
            "time": 92.5,
            "velocity": 0.25196850393700787
          },
          {
            "duration": 0.375,
            "durationTicks": 288,
            "midi": 52,
            "name": "E3",
            "ticks": 71040,
            "time": 92.5,
            "velocity": 0.2677165354330709
          },
          {
            "duration": 0.375,
            "durationTicks": 288,
            "midi": 31,
            "name": "G1",
            "ticks": 71040,
            "time": 92.5,
            "velocity": 0.31496062992125984
          },
          {
            "duration": 0.125,
            "durationTicks": 96,
            "midi": 64,
            "name": "E4",
            "ticks": 71040,
            "time": 92.5,
            "velocity": 0.2755905511811024
          },
          {
            "duration": 0,
            "durationTicks": 0,
            "midi": 54,
            "name": "F#3",
            "ticks": 71040,
            "time": 92.5,
            "velocity": 0.23622047244094488
          },
          {
            "duration": 0,
            "durationTicks": 0,
            "midi": 44,
            "name": "G#2",
            "ticks": 71040,
            "time": 92.5,
            "velocity": 0.25984251968503935
          },
          {
            "duration": 0.125,
            "durationTicks": 96,
            "midi": 71,
            "name": "B4",
            "ticks": 71040,
            "time": 92.5,
            "velocity": 0.2677165354330709
          },
          {
            "duration": 0.125,
            "durationTicks": 96,
            "midi": 74,
            "name": "D5",
            "ticks": 71040,
            "time": 92.5,
            "velocity": 0.28346456692913385
          },
          {
            "duration": 0.125,
            "durationTicks": 96,
            "midi": 67,
            "name": "G4",
            "ticks": 71040,
            "time": 92.5,
            "velocity": 0.13385826771653545
          },
          {
            "duration": 0.125,
            "durationTicks": 96,
            "midi": 67,
            "name": "G4",
            "ticks": 71040,
            "time": 92.5,
            "velocity": 0.13385826771653545
          },
          {
            "duration": 0,
            "durationTicks": 0,
            "midi": 61,
            "name": "C#4",
            "ticks": 71040,
            "time": 92.5,
            "velocity": 0.2755905511811024
          },
          {
            "duration": 0,
            "durationTicks": 0,
            "midi": 38,
            "name": "D2",
            "ticks": 71040,
            "time": 92.5,
            "velocity": 0.33858267716535434
          },
          {
            "duration": 0.125,
            "durationTicks": 96,
            "midi": 64,
            "name": "E4",
            "ticks": 71232,
            "time": 92.75,
            "velocity": 0.33070866141732286
          },
          {
            "duration": 0,
            "durationTicks": 0,
            "midi": 44,
            "name": "G#2",
            "ticks": 71424,
            "time": 93,
            "velocity": 0.2677165354330709
          },
          {
            "duration": 0.375,
            "durationTicks": 288,
            "midi": 50,
            "name": "D3",
            "ticks": 71424,
            "time": 93,
            "velocity": 0.25196850393700787
          },
          {
            "duration": 0,
            "durationTicks": 0,
            "midi": 36,
            "name": "C2",
            "ticks": 71424,
            "time": 93,
            "velocity": 0.33858267716535434
          },
          {
            "duration": 0.125,
            "durationTicks": 96,
            "midi": 64,
            "name": "E4",
            "ticks": 71424,
            "time": 93,
            "velocity": 0.3464566929133858
          },
          {
            "duration": 0.125,
            "durationTicks": 96,
            "midi": 31,
            "name": "G1",
            "ticks": 71424,
            "time": 93,
            "velocity": 0.31496062992125984
          },
          {
            "duration": 0,
            "durationTicks": 0,
            "midi": 54,
            "name": "F#3",
            "ticks": 71424,
            "time": 93,
            "velocity": 0.2440944881889764
          },
          {
            "duration": 0,
            "durationTicks": 0,
            "midi": 61,
            "name": "C#4",
            "ticks": 71424,
            "time": 93,
            "velocity": 0.2755905511811024
          },
          {
            "duration": 0.25,
            "durationTicks": 192,
            "midi": 67,
            "name": "G4",
            "ticks": 71424,
            "time": 93,
            "velocity": 0.2755905511811024
          },
          {
            "duration": 0.25,
            "durationTicks": 192,
            "midi": 62,
            "name": "D4",
            "ticks": 71424,
            "time": 93,
            "velocity": 0.25984251968503935
          },
          {
            "duration": 0.375,
            "durationTicks": 288,
            "midi": 55,
            "name": "G3",
            "ticks": 71424,
            "time": 93,
            "velocity": 0.25984251968503935
          },
          {
            "duration": 0.125,
            "durationTicks": 96,
            "midi": 64,
            "name": "E4",
            "ticks": 71616,
            "time": 93.25,
            "velocity": 0.3464566929133858
          },
          {
            "duration": 0.125,
            "durationTicks": 96,
            "midi": 67,
            "name": "G4",
            "ticks": 71616,
            "time": 93.25,
            "velocity": 0.23622047244094488
          },
          {
            "duration": 0.25,
            "durationTicks": 192,
            "midi": 64,
            "name": "E4",
            "ticks": 71616,
            "time": 93.25,
            "velocity": 0.3464566929133858
          },
          {
            "duration": 0.375,
            "durationTicks": 288,
            "midi": 31,
            "name": "G1",
            "ticks": 71616,
            "time": 93.25,
            "velocity": 0.30708661417322836
          },
          {
            "duration": 0.125,
            "durationTicks": 96,
            "midi": 67,
            "name": "G4",
            "ticks": 71808,
            "time": 93.5,
            "velocity": 0.13385826771653545
          },
          {
            "duration": 0.125,
            "durationTicks": 96,
            "midi": 52,
            "name": "E3",
            "ticks": 71808,
            "time": 93.5,
            "velocity": 0.25196850393700787
          },
          {
            "duration": 0.125,
            "durationTicks": 96,
            "midi": 71,
            "name": "B4",
            "ticks": 71808,
            "time": 93.5,
            "velocity": 0.23622047244094488
          },
          {
            "duration": 0,
            "durationTicks": 0,
            "midi": 38,
            "name": "D2",
            "ticks": 71808,
            "time": 93.5,
            "velocity": 0.33858267716535434
          },
          {
            "duration": 0,
            "durationTicks": 0,
            "midi": 54,
            "name": "F#3",
            "ticks": 71808,
            "time": 93.5,
            "velocity": 0.2440944881889764
          },
          {
            "duration": 0,
            "durationTicks": 0,
            "midi": 61,
            "name": "C#4",
            "ticks": 71808,
            "time": 93.5,
            "velocity": 0.29133858267716534
          },
          {
            "duration": 0.125,
            "durationTicks": 96,
            "midi": 55,
            "name": "G3",
            "ticks": 71808,
            "time": 93.5,
            "velocity": 0.2755905511811024
          },
          {
            "duration": 0,
            "durationTicks": 0,
            "midi": 44,
            "name": "G#2",
            "ticks": 71808,
            "time": 93.5,
            "velocity": 0.25984251968503935
          },
          {
            "duration": 0.125,
            "durationTicks": 96,
            "midi": 74,
            "name": "D5",
            "ticks": 71808,
            "time": 93.5,
            "velocity": 0.28346456692913385
          },
          {
            "duration": 0,
            "durationTicks": 0,
            "midi": 46,
            "name": "A#2",
            "ticks": 72000,
            "time": 93.75,
            "velocity": 0.2677165354330709
          },
          {
            "duration": 0.125,
            "durationTicks": 96,
            "midi": 31,
            "name": "G1",
            "ticks": 72000,
            "time": 93.75,
            "velocity": 0.31496062992125984
          },
          {
            "duration": 0.25,
            "durationTicks": 192,
            "midi": 55,
            "name": "G3",
            "ticks": 72000,
            "time": 93.75,
            "velocity": 0.2440944881889764
          },
          {
            "duration": 0.375,
            "durationTicks": 288,
            "midi": 67,
            "name": "G4",
            "ticks": 72000,
            "time": 93.75,
            "velocity": 0.33070866141732286
          },
          {
            "duration": 0.25,
            "durationTicks": 192,
            "midi": 50,
            "name": "D3",
            "ticks": 72000,
            "time": 93.75,
            "velocity": 0.2755905511811024
          },
          {
            "duration": 0.625,
            "durationTicks": 480,
            "midi": 62,
            "name": "D4",
            "ticks": 72000,
            "time": 93.75,
            "velocity": 0.2755905511811024
          },
          {
            "duration": 0.375,
            "durationTicks": 288,
            "midi": 31,
            "name": "G1",
            "ticks": 72192,
            "time": 94,
            "velocity": 0.30708661417322836
          },
          {
            "duration": 0,
            "durationTicks": 0,
            "midi": 54,
            "name": "F#3",
            "ticks": 72192,
            "time": 94,
            "velocity": 0.2440944881889764
          },
          {
            "duration": 0,
            "durationTicks": 0,
            "midi": 44,
            "name": "G#2",
            "ticks": 72192,
            "time": 94,
            "velocity": 0.2677165354330709
          },
          {
            "duration": 0,
            "durationTicks": 0,
            "midi": 61,
            "name": "C#4",
            "ticks": 72192,
            "time": 94,
            "velocity": 0.28346456692913385
          },
          {
            "duration": 0,
            "durationTicks": 0,
            "midi": 36,
            "name": "C2",
            "ticks": 72192,
            "time": 94,
            "velocity": 0.33858267716535434
          },
          {
            "duration": 0.125,
            "durationTicks": 96,
            "midi": 67,
            "name": "G4",
            "ticks": 72384,
            "time": 94.25,
            "velocity": 0.28346456692913385
          },
          {
            "duration": 0.125,
            "durationTicks": 96,
            "midi": 55,
            "name": "G3",
            "ticks": 72384,
            "time": 94.25,
            "velocity": 0.25984251968503935
          },
          {
            "duration": 0.25,
            "durationTicks": 192,
            "midi": 55,
            "name": "G3",
            "ticks": 72384,
            "time": 94.25,
            "velocity": 0.25984251968503935
          },
          {
            "duration": 0.125,
            "durationTicks": 96,
            "midi": 50,
            "name": "D3",
            "ticks": 72384,
            "time": 94.25,
            "velocity": 0.25984251968503935
          },
          {
            "duration": 0,
            "durationTicks": 0,
            "midi": 54,
            "name": "F#3",
            "ticks": 72576,
            "time": 94.5,
            "velocity": 0.23622047244094488
          },
          {
            "duration": 0.125,
            "durationTicks": 96,
            "midi": 67,
            "name": "G4",
            "ticks": 72576,
            "time": 94.5,
            "velocity": 0.13385826771653545
          },
          {
            "duration": 0.25,
            "durationTicks": 192,
            "midi": 67,
            "name": "G4",
            "ticks": 72576,
            "time": 94.5,
            "velocity": 0.13385826771653545
          },
          {
            "duration": 0.25,
            "durationTicks": 192,
            "midi": 64,
            "name": "E4",
            "ticks": 72576,
            "time": 94.5,
            "velocity": 0.25984251968503935
          },
          {
            "duration": 0,
            "durationTicks": 0,
            "midi": 61,
            "name": "C#4",
            "ticks": 72576,
            "time": 94.5,
            "velocity": 0.28346456692913385
          },
          {
            "duration": 0,
            "durationTicks": 0,
            "midi": 44,
            "name": "G#2",
            "ticks": 72576,
            "time": 94.5,
            "velocity": 0.25984251968503935
          },
          {
            "duration": 0.125,
            "durationTicks": 96,
            "midi": 74,
            "name": "D5",
            "ticks": 72576,
            "time": 94.5,
            "velocity": 0.2992125984251969
          },
          {
            "duration": 0.125,
            "durationTicks": 96,
            "midi": 71,
            "name": "B4",
            "ticks": 72576,
            "time": 94.5,
            "velocity": 0.25984251968503935
          },
          {
            "duration": 0.25,
            "durationTicks": 192,
            "midi": 67,
            "name": "G4",
            "ticks": 72576,
            "time": 94.5,
            "velocity": 0.13385826771653545
          },
          {
            "duration": 0.25,
            "durationTicks": 192,
            "midi": 55,
            "name": "G3",
            "ticks": 72576,
            "time": 94.5,
            "velocity": 0.2755905511811024
          },
          {
            "duration": 0.25,
            "durationTicks": 192,
            "midi": 52,
            "name": "E3",
            "ticks": 72576,
            "time": 94.5,
            "velocity": 0.25984251968503935
          },
          {
            "duration": 0,
            "durationTicks": 0,
            "midi": 38,
            "name": "D2",
            "ticks": 72576,
            "time": 94.5,
            "velocity": 0.33070866141732286
          },
          {
            "duration": 0.375,
            "durationTicks": 288,
            "midi": 31,
            "name": "G1",
            "ticks": 72576,
            "time": 94.5,
            "velocity": 0.2992125984251969
          },
          {
            "duration": 0.125,
            "durationTicks": 96,
            "midi": 64,
            "name": "E4",
            "ticks": 72768,
            "time": 94.75,
            "velocity": 0.33070866141732286
          },
          {
            "duration": 0.25,
            "durationTicks": 192,
            "midi": 76,
            "name": "E5",
            "ticks": 72768,
            "time": 94.75,
            "velocity": 0.2047244094488189
          },
          {
            "duration": 0.125,
            "durationTicks": 96,
            "midi": 64,
            "name": "E4",
            "ticks": 72768,
            "time": 94.75,
            "velocity": 0.33070866141732286
          },
          {
            "duration": 0.25,
            "durationTicks": 192,
            "midi": 76,
            "name": "E5",
            "ticks": 72768,
            "time": 94.75,
            "velocity": 0.2047244094488189
          },
          {
            "duration": 0.25,
            "durationTicks": 192,
            "midi": 62,
            "name": "D4",
            "ticks": 72960,
            "time": 95,
            "velocity": 0.25196850393700787
          },
          {
            "duration": 0.25,
            "durationTicks": 192,
            "midi": 67,
            "name": "G4",
            "ticks": 72960,
            "time": 95,
            "velocity": 0.3464566929133858
          },
          {
            "duration": 0.125,
            "durationTicks": 96,
            "midi": 31,
            "name": "G1",
            "ticks": 72960,
            "time": 95,
            "velocity": 0.2992125984251969
          },
          {
            "duration": 0.25,
            "durationTicks": 192,
            "midi": 50,
            "name": "D3",
            "ticks": 72960,
            "time": 95,
            "velocity": 0.25984251968503935
          },
          {
            "duration": 0.25,
            "durationTicks": 192,
            "midi": 55,
            "name": "G3",
            "ticks": 72960,
            "time": 95,
            "velocity": 0.25984251968503935
          },
          {
            "duration": 0.25,
            "durationTicks": 192,
            "midi": 67,
            "name": "G4",
            "ticks": 72960,
            "time": 95,
            "velocity": 0.3464566929133858
          },
          {
            "duration": 0,
            "durationTicks": 0,
            "midi": 44,
            "name": "G#2",
            "ticks": 72960,
            "time": 95,
            "velocity": 0.2677165354330709
          },
          {
            "duration": 0.5,
            "durationTicks": 384,
            "midi": 79,
            "name": "G5",
            "ticks": 72960,
            "time": 95,
            "velocity": 0.1968503937007874
          },
          {
            "duration": 0,
            "durationTicks": 0,
            "midi": 36,
            "name": "C2",
            "ticks": 72960,
            "time": 95,
            "velocity": 0.33858267716535434
          },
          {
            "duration": 0,
            "durationTicks": 0,
            "midi": 61,
            "name": "C#4",
            "ticks": 72960,
            "time": 95,
            "velocity": 0.28346456692913385
          },
          {
            "duration": 0.5,
            "durationTicks": 384,
            "midi": 79,
            "name": "G5",
            "ticks": 72960,
            "time": 95,
            "velocity": 0.1968503937007874
          },
          {
            "duration": 0,
            "durationTicks": 0,
            "midi": 54,
            "name": "F#3",
            "ticks": 72960,
            "time": 95,
            "velocity": 0.2204724409448819
          },
          {
            "duration": 0.125,
            "durationTicks": 96,
            "midi": 64,
            "name": "E4",
            "ticks": 73152,
            "time": 95.25,
            "velocity": 0.33070866141732286
          },
          {
            "duration": 0.25,
            "durationTicks": 192,
            "midi": 31,
            "name": "G1",
            "ticks": 73152,
            "time": 95.25,
            "velocity": 0.31496062992125984
          },
          {
            "duration": 0.25,
            "durationTicks": 192,
            "midi": 64,
            "name": "E4",
            "ticks": 73152,
            "time": 95.25,
            "velocity": 0.33070866141732286
          },
          {
            "duration": 0.125,
            "durationTicks": 96,
            "midi": 67,
            "name": "G4",
            "ticks": 73152,
            "time": 95.25,
            "velocity": 0.2677165354330709
          },
          {
            "duration": 0.125,
            "durationTicks": 96,
            "midi": 71,
            "name": "B4",
            "ticks": 73344,
            "time": 95.5,
            "velocity": 0.2440944881889764
          },
          {
            "duration": 0.125,
            "durationTicks": 96,
            "midi": 67,
            "name": "G4",
            "ticks": 73344,
            "time": 95.5,
            "velocity": 0.13385826771653545
          },
          {
            "duration": 0.125,
            "durationTicks": 96,
            "midi": 74,
            "name": "D5",
            "ticks": 73344,
            "time": 95.5,
            "velocity": 0.2755905511811024
          },
          {
            "duration": 0.25,
            "durationTicks": 192,
            "midi": 55,
            "name": "G3",
            "ticks": 73344,
            "time": 95.5,
            "velocity": 0.25984251968503935
          },
          {
            "duration": 0.5,
            "durationTicks": 384,
            "midi": 83,
            "name": "B5",
            "ticks": 73344,
            "time": 95.5,
            "velocity": 0.2204724409448819
          },
          {
            "duration": 0,
            "durationTicks": 0,
            "midi": 38,
            "name": "D2",
            "ticks": 73344,
            "time": 95.5,
            "velocity": 0.33858267716535434
          },
          {
            "duration": 0.25,
            "durationTicks": 192,
            "midi": 52,
            "name": "E3",
            "ticks": 73344,
            "time": 95.5,
            "velocity": 0.2755905511811024
          },
          {
            "duration": 0.5,
            "durationTicks": 384,
            "midi": 83,
            "name": "B5",
            "ticks": 73344,
            "time": 95.5,
            "velocity": 0.2204724409448819
          },
          {
            "duration": 0,
            "durationTicks": 0,
            "midi": 54,
            "name": "F#3",
            "ticks": 73344,
            "time": 95.5,
            "velocity": 0.2440944881889764
          },
          {
            "duration": 0,
            "durationTicks": 0,
            "midi": 60,
            "name": "C4",
            "ticks": 73344,
            "time": 95.5,
            "velocity": 0.28346456692913385
          },
          {
            "duration": 0.375,
            "durationTicks": 288,
            "midi": 76,
            "name": "E5",
            "ticks": 73344,
            "time": 95.5,
            "velocity": 0.31496062992125984
          },
          {
            "duration": 0.125,
            "durationTicks": 96,
            "midi": 35,
            "name": "B1",
            "ticks": 73344,
            "time": 95.5,
            "velocity": 0.2992125984251969
          },
          {
            "duration": 0,
            "durationTicks": 0,
            "midi": 44,
            "name": "G#2",
            "ticks": 73344,
            "time": 95.5,
            "velocity": 0.2677165354330709
          },
          {
            "duration": 0.25,
            "durationTicks": 192,
            "midi": 35,
            "name": "B1",
            "ticks": 73536,
            "time": 95.75,
            "velocity": 0.31496062992125984
          },
          {
            "duration": 0,
            "durationTicks": 0,
            "midi": 46,
            "name": "A#2",
            "ticks": 73536,
            "time": 95.75,
            "velocity": 0.2755905511811024
          },
          {
            "duration": 0.125,
            "durationTicks": 96,
            "midi": 62,
            "name": "D4",
            "ticks": 73728,
            "time": 96,
            "velocity": 0.33858267716535434
          },
          {
            "duration": 0,
            "durationTicks": 0,
            "midi": 36,
            "name": "C2",
            "ticks": 73728,
            "time": 96,
            "velocity": 0.33070866141732286
          },
          {
            "duration": 0.125,
            "durationTicks": 96,
            "midi": 64,
            "name": "E4",
            "ticks": 73728,
            "time": 96,
            "velocity": 0.2440944881889764
          },
          {
            "duration": 0.375,
            "durationTicks": 288,
            "midi": 33,
            "name": "A1",
            "ticks": 73728,
            "time": 96,
            "velocity": 0.2992125984251969
          },
          {
            "duration": 0.75,
            "durationTicks": 576,
            "midi": 81,
            "name": "A5",
            "ticks": 73728,
            "time": 96,
            "velocity": 0.2047244094488189
          },
          {
            "duration": 0,
            "durationTicks": 0,
            "midi": 61,
            "name": "C#4",
            "ticks": 73728,
            "time": 96,
            "velocity": 0.28346456692913385
          },
          {
            "duration": 0,
            "durationTicks": 0,
            "midi": 44,
            "name": "G#2",
            "ticks": 73728,
            "time": 96,
            "velocity": 0.2677165354330709
          },
          {
            "duration": 0.25,
            "durationTicks": 192,
            "midi": 64,
            "name": "E4",
            "ticks": 73728,
            "time": 96,
            "velocity": 0.2440944881889764
          },
          {
            "duration": 0.75,
            "durationTicks": 576,
            "midi": 81,
            "name": "A5",
            "ticks": 73728,
            "time": 96,
            "velocity": 0.2047244094488189
          },
          {
            "duration": 0.75,
            "durationTicks": 576,
            "midi": 74,
            "name": "D5",
            "ticks": 73728,
            "time": 96,
            "velocity": 0.2992125984251969
          },
          {
            "duration": 0,
            "durationTicks": 0,
            "midi": 54,
            "name": "F#3",
            "ticks": 73728,
            "time": 96,
            "velocity": 0.2283464566929134
          },
          {
            "duration": 0.125,
            "durationTicks": 96,
            "midi": 60,
            "name": "C4",
            "ticks": 73824,
            "time": 96.125,
            "velocity": 0.33858267716535434
          },
          {
            "duration": 0.125,
            "durationTicks": 96,
            "midi": 60,
            "name": "C4",
            "ticks": 73824,
            "time": 96.125,
            "velocity": 0.33858267716535434
          },
          {
            "duration": 0.25,
            "durationTicks": 192,
            "midi": 60,
            "name": "C4",
            "ticks": 73824,
            "time": 96.125,
            "velocity": 0.33858267716535434
          },
          {
            "duration": 0.125,
            "durationTicks": 96,
            "midi": 65,
            "name": "F4",
            "ticks": 73920,
            "time": 96.25,
            "velocity": 0.25196850393700787
          },
          {
            "duration": 0.25,
            "durationTicks": 192,
            "midi": 57,
            "name": "A3",
            "ticks": 73920,
            "time": 96.25,
            "velocity": 0.33858267716535434
          },
          {
            "duration": 0.125,
            "durationTicks": 96,
            "midi": 64,
            "name": "E4",
            "ticks": 74016,
            "time": 96.375,
            "velocity": 0.25984251968503935
          },
          {
            "duration": 0.125,
            "durationTicks": 96,
            "midi": 69,
            "name": "A4",
            "ticks": 74112,
            "time": 96.5,
            "velocity": 0.2204724409448819
          },
          {
            "duration": 0.375,
            "durationTicks": 288,
            "midi": 33,
            "name": "A1",
            "ticks": 74112,
            "time": 96.5,
            "velocity": 0.30708661417322836
          },
          {
            "duration": 0.125,
            "durationTicks": 96,
            "midi": 76,
            "name": "E5",
            "ticks": 74112,
            "time": 96.5,
            "velocity": 0.2755905511811024
          },
          {
            "duration": 0,
            "durationTicks": 0,
            "midi": 38,
            "name": "D2",
            "ticks": 74112,
            "time": 96.5,
            "velocity": 0.33858267716535434
          },
          {
            "duration": 0.125,
            "durationTicks": 96,
            "midi": 72,
            "name": "C5",
            "ticks": 74112,
            "time": 96.5,
            "velocity": 0.25984251968503935
          },
          {
            "duration": 0,
            "durationTicks": 0,
            "midi": 61,
            "name": "C#4",
            "ticks": 74112,
            "time": 96.5,
            "velocity": 0.28346456692913385
          },
          {
            "duration": 0,
            "durationTicks": 0,
            "midi": 54,
            "name": "F#3",
            "ticks": 74112,
            "time": 96.5,
            "velocity": 0.23622047244094488
          },
          {
            "duration": 0,
            "durationTicks": 0,
            "midi": 44,
            "name": "G#2",
            "ticks": 74112,
            "time": 96.5,
            "velocity": 0.25984251968503935
          },
          {
            "duration": 0.125,
            "durationTicks": 96,
            "midi": 62,
            "name": "D4",
            "ticks": 74112,
            "time": 96.5,
            "velocity": 0.2755905511811024
          },
          {
            "duration": 0.125,
            "durationTicks": 96,
            "midi": 62,
            "name": "D4",
            "ticks": 74112,
            "time": 96.5,
            "velocity": 0.2755905511811024
          },
          {
            "duration": 0.125,
            "durationTicks": 96,
            "midi": 60,
            "name": "C4",
            "ticks": 74208,
            "time": 96.625,
            "velocity": 0.33858267716535434
          },
          {
            "duration": 0.125,
            "durationTicks": 96,
            "midi": 79,
            "name": "G5",
            "ticks": 74304,
            "time": 96.75,
            "velocity": 0.1968503937007874
          },
          {
            "duration": 0.125,
            "durationTicks": 96,
            "midi": 79,
            "name": "G5",
            "ticks": 74304,
            "time": 96.75,
            "velocity": 0.1968503937007874
          },
          {
            "duration": 0.125,
            "durationTicks": 96,
            "midi": 72,
            "name": "C5",
            "ticks": 74304,
            "time": 96.75,
            "velocity": 0.3228346456692913
          },
          {
            "duration": 0.25,
            "durationTicks": 192,
            "midi": 60,
            "name": "C4",
            "ticks": 74304,
            "time": 96.75,
            "velocity": 0.2677165354330709
          },
          {
            "duration": 0.125,
            "durationTicks": 96,
            "midi": 76,
            "name": "E5",
            "ticks": 74400,
            "time": 96.875,
            "velocity": 0.2047244094488189
          },
          {
            "duration": 0.125,
            "durationTicks": 96,
            "midi": 76,
            "name": "E5",
            "ticks": 74400,
            "time": 96.875,
            "velocity": 0.2047244094488189
          },
          {
            "duration": 0.125,
            "durationTicks": 96,
            "midi": 74,
            "name": "D5",
            "ticks": 74496,
            "time": 97,
            "velocity": 0.2992125984251969
          },
          {
            "duration": 0.25,
            "durationTicks": 192,
            "midi": 60,
            "name": "C4",
            "ticks": 74496,
            "time": 97,
            "velocity": 0.3464566929133858
          },
          {
            "duration": 0,
            "durationTicks": 0,
            "midi": 44,
            "name": "G#2",
            "ticks": 74496,
            "time": 97,
            "velocity": 0.2677165354330709
          },
          {
            "duration": 0.375,
            "durationTicks": 288,
            "midi": 60,
            "name": "C4",
            "ticks": 74496,
            "time": 97,
            "velocity": 0.3464566929133858
          },
          {
            "duration": 0.125,
            "durationTicks": 96,
            "midi": 33,
            "name": "A1",
            "ticks": 74496,
            "time": 97,
            "velocity": 0.2992125984251969
          },
          {
            "duration": 0.5,
            "durationTicks": 384,
            "midi": 57,
            "name": "A3",
            "ticks": 74496,
            "time": 97,
            "velocity": 0.23622047244094488
          },
          {
            "duration": 0.75,
            "durationTicks": 576,
            "midi": 79,
            "name": "G5",
            "ticks": 74496,
            "time": 97,
            "velocity": 0.1968503937007874
          },
          {
            "duration": 0,
            "durationTicks": 0,
            "midi": 54,
            "name": "F#3",
            "ticks": 74496,
            "time": 97,
            "velocity": 0.2283464566929134
          },
          {
            "duration": 0.75,
            "durationTicks": 576,
            "midi": 79,
            "name": "G5",
            "ticks": 74496,
            "time": 97,
            "velocity": 0.1968503937007874
          },
          {
            "duration": 0.875,
            "durationTicks": 672,
            "midi": 57,
            "name": "A3",
            "ticks": 74496,
            "time": 97,
            "velocity": 0.23622047244094488
          },
          {
            "duration": 0,
            "durationTicks": 0,
            "midi": 61,
            "name": "C#4",
            "ticks": 74496,
            "time": 97,
            "velocity": 0.29133858267716534
          },
          {
            "duration": 0,
            "durationTicks": 0,
            "midi": 36,
            "name": "C2",
            "ticks": 74496,
            "time": 97,
            "velocity": 0.33070866141732286
          },
          {
            "duration": 0.625,
            "durationTicks": 480,
            "midi": 64,
            "name": "E4",
            "ticks": 74688,
            "time": 97.25,
            "velocity": 0.25196850393700787
          },
          {
            "duration": 0.25,
            "durationTicks": 192,
            "midi": 33,
            "name": "A1",
            "ticks": 74688,
            "time": 97.25,
            "velocity": 0.31496062992125984
          },
          {
            "duration": 0.125,
            "durationTicks": 96,
            "midi": 72,
            "name": "C5",
            "ticks": 74880,
            "time": 97.5,
            "velocity": 0.25984251968503935
          },
          {
            "duration": 0,
            "durationTicks": 0,
            "midi": 38,
            "name": "D2",
            "ticks": 74880,
            "time": 97.5,
            "velocity": 0.33858267716535434
          },
          {
            "duration": 0,
            "durationTicks": 0,
            "midi": 61,
            "name": "C#4",
            "ticks": 74880,
            "time": 97.5,
            "velocity": 0.2755905511811024
          },
          {
            "duration": 0,
            "durationTicks": 0,
            "midi": 44,
            "name": "G#2",
            "ticks": 74880,
            "time": 97.5,
            "velocity": 0.2677165354330709
          },
          {
            "duration": 0,
            "durationTicks": 0,
            "midi": 54,
            "name": "F#3",
            "ticks": 74880,
            "time": 97.5,
            "velocity": 0.23622047244094488
          },
          {
            "duration": 0.125,
            "durationTicks": 96,
            "midi": 76,
            "name": "E5",
            "ticks": 74880,
            "time": 97.5,
            "velocity": 0.28346456692913385
          },
          {
            "duration": 0.125,
            "durationTicks": 96,
            "midi": 76,
            "name": "E5",
            "ticks": 74880,
            "time": 97.5,
            "velocity": 0.28346456692913385
          },
          {
            "duration": 0.125,
            "durationTicks": 96,
            "midi": 69,
            "name": "A4",
            "ticks": 74880,
            "time": 97.5,
            "velocity": 0.16535433070866143
          },
          {
            "duration": 0.375,
            "durationTicks": 288,
            "midi": 62,
            "name": "D4",
            "ticks": 74880,
            "time": 97.5,
            "velocity": 0.2677165354330709
          },
          {
            "duration": 1.625,
            "durationTicks": 1248,
            "midi": 81,
            "name": "A5",
            "ticks": 75072,
            "time": 97.75,
            "velocity": 0.1968503937007874
          },
          {
            "duration": 0,
            "durationTicks": 0,
            "midi": 46,
            "name": "A#2",
            "ticks": 75072,
            "time": 97.75,
            "velocity": 0.2755905511811024
          },
          {
            "duration": 0.125,
            "durationTicks": 96,
            "midi": 33,
            "name": "A1",
            "ticks": 75072,
            "time": 97.75,
            "velocity": 0.30708661417322836
          },
          {
            "duration": 1.625,
            "durationTicks": 1248,
            "midi": 81,
            "name": "A5",
            "ticks": 75072,
            "time": 97.75,
            "velocity": 0.1968503937007874
          },
          {
            "duration": 0.375,
            "durationTicks": 288,
            "midi": 33,
            "name": "A1",
            "ticks": 75264,
            "time": 98,
            "velocity": 0.30708661417322836
          },
          {
            "duration": 0,
            "durationTicks": 0,
            "midi": 60,
            "name": "C4",
            "ticks": 75264,
            "time": 98,
            "velocity": 0.25984251968503935
          },
          {
            "duration": 0.25,
            "durationTicks": 192,
            "midi": 64,
            "name": "E4",
            "ticks": 75264,
            "time": 98,
            "velocity": 0.25984251968503935
          },
          {
            "duration": 0.5,
            "durationTicks": 384,
            "midi": 57,
            "name": "A3",
            "ticks": 75264,
            "time": 98,
            "velocity": 0.2677165354330709
          },
          {
            "duration": 0.25,
            "durationTicks": 192,
            "midi": 60,
            "name": "C4",
            "ticks": 75264,
            "time": 98,
            "velocity": 0.25984251968503935
          },
          {
            "duration": 0,
            "durationTicks": 0,
            "midi": 54,
            "name": "F#3",
            "ticks": 75264,
            "time": 98,
            "velocity": 0.2283464566929134
          },
          {
            "duration": 0.5,
            "durationTicks": 384,
            "midi": 60,
            "name": "C4",
            "ticks": 75264,
            "time": 98,
            "velocity": 0.25984251968503935
          },
          {
            "duration": 0,
            "durationTicks": 0,
            "midi": 36,
            "name": "C2",
            "ticks": 75264,
            "time": 98,
            "velocity": 0.33858267716535434
          },
          {
            "duration": 0,
            "durationTicks": 0,
            "midi": 44,
            "name": "G#2",
            "ticks": 75264,
            "time": 98,
            "velocity": 0.25984251968503935
          },
          {
            "duration": 0.125,
            "durationTicks": 96,
            "midi": 65,
            "name": "F4",
            "ticks": 75456,
            "time": 98.25,
            "velocity": 0.2677165354330709
          },
          {
            "duration": 0.125,
            "durationTicks": 96,
            "midi": 64,
            "name": "E4",
            "ticks": 75552,
            "time": 98.375,
            "velocity": 0.23622047244094488
          },
          {
            "duration": 0.125,
            "durationTicks": 96,
            "midi": 62,
            "name": "D4",
            "ticks": 75648,
            "time": 98.5,
            "velocity": 0.25196850393700787
          },
          {
            "duration": 0,
            "durationTicks": 0,
            "midi": 61,
            "name": "C#4",
            "ticks": 75648,
            "time": 98.5,
            "velocity": 0.28346456692913385
          },
          {
            "duration": 0.125,
            "durationTicks": 96,
            "midi": 69,
            "name": "A4",
            "ticks": 75648,
            "time": 98.5,
            "velocity": 0.1732283464566929
          },
          {
            "duration": 0.375,
            "durationTicks": 288,
            "midi": 33,
            "name": "A1",
            "ticks": 75648,
            "time": 98.5,
            "velocity": 0.30708661417322836
          },
          {
            "duration": 0,
            "durationTicks": 0,
            "midi": 38,
            "name": "D2",
            "ticks": 75648,
            "time": 98.5,
            "velocity": 0.33858267716535434
          },
          {
            "duration": 0,
            "durationTicks": 0,
            "midi": 44,
            "name": "G#2",
            "ticks": 75648,
            "time": 98.5,
            "velocity": 0.25984251968503935
          },
          {
            "duration": 0.125,
            "durationTicks": 96,
            "midi": 62,
            "name": "D4",
            "ticks": 75648,
            "time": 98.5,
            "velocity": 0.25196850393700787
          },
          {
            "duration": 0.125,
            "durationTicks": 96,
            "midi": 76,
            "name": "E5",
            "ticks": 75648,
            "time": 98.5,
            "velocity": 0.2992125984251969
          },
          {
            "duration": 0,
            "durationTicks": 0,
            "midi": 54,
            "name": "F#3",
            "ticks": 75648,
            "time": 98.5,
            "velocity": 0.2283464566929134
          },
          {
            "duration": 0.125,
            "durationTicks": 96,
            "midi": 72,
            "name": "C5",
            "ticks": 75648,
            "time": 98.5,
            "velocity": 0.2755905511811024
          },
          {
            "duration": 0.25,
            "durationTicks": 192,
            "midi": 60,
            "name": "C4",
            "ticks": 75840,
            "time": 98.75,
            "velocity": 0.25984251968503935
          },
          {
            "duration": 0.125,
            "durationTicks": 96,
            "midi": 57,
            "name": "A3",
            "ticks": 76032,
            "time": 99,
            "velocity": 0.3543307086614173
          },
          {
            "duration": 0,
            "durationTicks": 0,
            "midi": 36,
            "name": "C2",
            "ticks": 76032,
            "time": 99,
            "velocity": 0.2992125984251969
          },
          {
            "duration": 0.25,
            "durationTicks": 192,
            "midi": 57,
            "name": "A3",
            "ticks": 76032,
            "time": 99,
            "velocity": 0.3543307086614173
          },
          {
            "duration": 0,
            "durationTicks": 0,
            "midi": 54,
            "name": "F#3",
            "ticks": 76032,
            "time": 99,
            "velocity": 0.2440944881889764
          },
          {
            "duration": 0,
            "durationTicks": 0,
            "midi": 44,
            "name": "G#2",
            "ticks": 76032,
            "time": 99,
            "velocity": 0.2677165354330709
          },
          {
            "duration": 0.875,
            "durationTicks": 672,
            "midi": 57,
            "name": "A3",
            "ticks": 76032,
            "time": 99,
            "velocity": 0.3543307086614173
          },
          {
            "duration": 0,
            "durationTicks": 0,
            "midi": 61,
            "name": "C#4",
            "ticks": 76032,
            "time": 99,
            "velocity": 0.2755905511811024
          },
          {
            "duration": 0.125,
            "durationTicks": 96,
            "midi": 36,
            "name": "C2",
            "ticks": 76032,
            "time": 99,
            "velocity": 0.2992125984251969
          },
          {
            "duration": 0.5,
            "durationTicks": 384,
            "midi": 64,
            "name": "E4",
            "ticks": 76224,
            "time": 99.25,
            "velocity": 0.25984251968503935
          },
          {
            "duration": 0.25,
            "durationTicks": 192,
            "midi": 60,
            "name": "C4",
            "ticks": 76224,
            "time": 99.25,
            "velocity": 0.33858267716535434
          },
          {
            "duration": 0.25,
            "durationTicks": 192,
            "midi": 36,
            "name": "C2",
            "ticks": 76224,
            "time": 99.25,
            "velocity": 0.31496062992125984
          },
          {
            "duration": 0.375,
            "durationTicks": 288,
            "midi": 60,
            "name": "C4",
            "ticks": 76224,
            "time": 99.25,
            "velocity": 0.33858267716535434
          },
          {
            "duration": 0,
            "durationTicks": 0,
            "midi": 44,
            "name": "G#2",
            "ticks": 76416,
            "time": 99.5,
            "velocity": 0.25984251968503935
          },
          {
            "duration": 0,
            "durationTicks": 0,
            "midi": 54,
            "name": "F#3",
            "ticks": 76416,
            "time": 99.5,
            "velocity": 0.2283464566929134
          },
          {
            "duration": 0.125,
            "durationTicks": 96,
            "midi": 76,
            "name": "E5",
            "ticks": 76416,
            "time": 99.5,
            "velocity": 0.1968503937007874
          },
          {
            "duration": 0,
            "durationTicks": 0,
            "midi": 61,
            "name": "C#4",
            "ticks": 76416,
            "time": 99.5,
            "velocity": 0.28346456692913385
          },
          {
            "duration": 0.125,
            "durationTicks": 96,
            "midi": 69,
            "name": "A4",
            "ticks": 76416,
            "time": 99.5,
            "velocity": 0.16535433070866143
          },
          {
            "duration": 0,
            "durationTicks": 0,
            "midi": 38,
            "name": "D2",
            "ticks": 76416,
            "time": 99.5,
            "velocity": 0.33858267716535434
          },
          {
            "duration": 0.125,
            "durationTicks": 96,
            "midi": 37,
            "name": "C#2",
            "ticks": 76416,
            "time": 99.5,
            "velocity": 0.30708661417322836
          },
          {
            "duration": 0.125,
            "durationTicks": 96,
            "midi": 76,
            "name": "E5",
            "ticks": 76416,
            "time": 99.5,
            "velocity": 0.1968503937007874
          },
          {
            "duration": 0.25,
            "durationTicks": 192,
            "midi": 62,
            "name": "D4",
            "ticks": 76416,
            "time": 99.5,
            "velocity": 0.25196850393700787
          },
          {
            "duration": 0.375,
            "durationTicks": 288,
            "midi": 69,
            "name": "A4",
            "ticks": 76416,
            "time": 99.5,
            "velocity": 0.16535433070866143
          },
          {
            "duration": 0.125,
            "durationTicks": 96,
            "midi": 72,
            "name": "C5",
            "ticks": 76416,
            "time": 99.5,
            "velocity": 0.2677165354330709
          },
          {
            "duration": 0.125,
            "durationTicks": 96,
            "midi": 76,
            "name": "E5",
            "ticks": 76416,
            "time": 99.5,
            "velocity": 0.1968503937007874
          },
          {
            "duration": 0.125,
            "durationTicks": 96,
            "midi": 74,
            "name": "D5",
            "ticks": 76512,
            "time": 99.625,
            "velocity": 0.2125984251968504
          },
          {
            "duration": 0.125,
            "durationTicks": 96,
            "midi": 74,
            "name": "D5",
            "ticks": 76512,
            "time": 99.625,
            "velocity": 0.2125984251968504
          },
          {
            "duration": 0.875,
            "durationTicks": 672,
            "midi": 62,
            "name": "D4",
            "ticks": 76608,
            "time": 99.75,
            "velocity": 0.33858267716535434
          },
          {
            "duration": 0.5,
            "durationTicks": 384,
            "midi": 65,
            "name": "F4",
            "ticks": 76608,
            "time": 99.75,
            "velocity": 0.33070866141732286
          },
          {
            "duration": 0,
            "durationTicks": 0,
            "midi": 46,
            "name": "A#2",
            "ticks": 76608,
            "time": 99.75,
            "velocity": 0.2677165354330709
          },
          {
            "duration": 0.25,
            "durationTicks": 192,
            "midi": 72,
            "name": "C5",
            "ticks": 76608,
            "time": 99.75,
            "velocity": 0.2047244094488189
          },
          {
            "duration": 0.25,
            "durationTicks": 192,
            "midi": 72,
            "name": "C5",
            "ticks": 76608,
            "time": 99.75,
            "velocity": 0.2047244094488189
          },
          {
            "duration": 0.25,
            "durationTicks": 192,
            "midi": 37,
            "name": "C#2",
            "ticks": 76608,
            "time": 99.75,
            "velocity": 0.2992125984251969
          },
          {
            "duration": 1.625,
            "durationTicks": 1248,
            "midi": 74,
            "name": "D5",
            "ticks": 76800,
            "time": 100,
            "velocity": 0.2047244094488189
          },
          {
            "duration": 0,
            "durationTicks": 0,
            "midi": 49,
            "name": "C#3",
            "ticks": 76800,
            "time": 100,
            "velocity": 0.2755905511811024
          },
          {
            "duration": 1.625,
            "durationTicks": 1248,
            "midi": 74,
            "name": "D5",
            "ticks": 76800,
            "time": 100,
            "velocity": 0.2047244094488189
          },
          {
            "duration": 0,
            "durationTicks": 0,
            "midi": 54,
            "name": "F#3",
            "ticks": 76800,
            "time": 100,
            "velocity": 0.23622047244094488
          },
          {
            "duration": 0,
            "durationTicks": 0,
            "midi": 36,
            "name": "C2",
            "ticks": 76800,
            "time": 100,
            "velocity": 0.33070866141732286
          },
          {
            "duration": 0.625,
            "durationTicks": 480,
            "midi": 57,
            "name": "A3",
            "ticks": 76800,
            "time": 100,
            "velocity": 0.2755905511811024
          },
          {
            "duration": 0,
            "durationTicks": 0,
            "midi": 44,
            "name": "G#2",
            "ticks": 76800,
            "time": 100,
            "velocity": 0.2755905511811024
          },
          {
            "duration": 0.375,
            "durationTicks": 288,
            "midi": 38,
            "name": "D2",
            "ticks": 76800,
            "time": 100,
            "velocity": 0.30708661417322836
          },
          {
            "duration": 0.625,
            "durationTicks": 480,
            "midi": 53,
            "name": "F3",
            "ticks": 76800,
            "time": 100,
            "velocity": 0.2755905511811024
          },
          {
            "duration": 0,
            "durationTicks": 0,
            "midi": 60,
            "name": "C4",
            "ticks": 76800,
            "time": 100,
            "velocity": 0.2755905511811024
          },
          {
            "duration": 0.375,
            "durationTicks": 288,
            "midi": 60,
            "name": "C4",
            "ticks": 76992,
            "time": 100.25,
            "velocity": 0.2755905511811024
          },
          {
            "duration": 0.25,
            "durationTicks": 192,
            "midi": 67,
            "name": "G4",
            "ticks": 77184,
            "time": 100.5,
            "velocity": 0.2677165354330709
          },
          {
            "duration": 0,
            "durationTicks": 0,
            "midi": 38,
            "name": "D2",
            "ticks": 77184,
            "time": 100.5,
            "velocity": 0.30708661417322836
          },
          {
            "duration": 0,
            "durationTicks": 0,
            "midi": 44,
            "name": "G#2",
            "ticks": 77184,
            "time": 100.5,
            "velocity": 0.25984251968503935
          },
          {
            "duration": 0,
            "durationTicks": 0,
            "midi": 54,
            "name": "F#3",
            "ticks": 77184,
            "time": 100.5,
            "velocity": 0.23622047244094488
          },
          {
            "duration": 0.25,
            "durationTicks": 192,
            "midi": 72,
            "name": "C5",
            "ticks": 77184,
            "time": 100.5,
            "velocity": 0.2677165354330709
          },
          {
            "duration": 0,
            "durationTicks": 0,
            "midi": 61,
            "name": "C#4",
            "ticks": 77184,
            "time": 100.5,
            "velocity": 0.2755905511811024
          },
          {
            "duration": 0.375,
            "durationTicks": 288,
            "midi": 38,
            "name": "D2",
            "ticks": 77184,
            "time": 100.5,
            "velocity": 0.30708661417322836
          },
          {
            "duration": 1.125,
            "durationTicks": 864,
            "midi": 57,
            "name": "A3",
            "ticks": 77376,
            "time": 100.75,
            "velocity": 0.2677165354330709
          },
          {
            "duration": 0.5,
            "durationTicks": 384,
            "midi": 60,
            "name": "C4",
            "ticks": 77376,
            "time": 100.75,
            "velocity": 0.25984251968503935
          },
          {
            "duration": 0.5,
            "durationTicks": 384,
            "midi": 53,
            "name": "F3",
            "ticks": 77376,
            "time": 100.75,
            "velocity": 0.25196850393700787
          },
          {
            "duration": 0.875,
            "durationTicks": 672,
            "midi": 69,
            "name": "A4",
            "ticks": 77376,
            "time": 100.75,
            "velocity": 0.25196850393700787
          },
          {
            "duration": 0,
            "durationTicks": 0,
            "midi": 44,
            "name": "G#2",
            "ticks": 77568,
            "time": 101,
            "velocity": 0.25984251968503935
          },
          {
            "duration": 0,
            "durationTicks": 0,
            "midi": 61,
            "name": "C#4",
            "ticks": 77568,
            "time": 101,
            "velocity": 0.28346456692913385
          },
          {
            "duration": 0.125,
            "durationTicks": 96,
            "midi": 65,
            "name": "F4",
            "ticks": 77568,
            "time": 101,
            "velocity": 0.33070866141732286
          },
          {
            "duration": 0.125,
            "durationTicks": 96,
            "midi": 38,
            "name": "D2",
            "ticks": 77568,
            "time": 101,
            "velocity": 0.2992125984251969
          },
          {
            "duration": 0,
            "durationTicks": 0,
            "midi": 54,
            "name": "F#3",
            "ticks": 77568,
            "time": 101,
            "velocity": 0.23622047244094488
          },
          {
            "duration": 0,
            "durationTicks": 0,
            "midi": 36,
            "name": "C2",
            "ticks": 77568,
            "time": 101,
            "velocity": 0.33858267716535434
          },
          {
            "duration": 0.125,
            "durationTicks": 96,
            "midi": 62,
            "name": "D4",
            "ticks": 77568,
            "time": 101,
            "velocity": 0.33070866141732286
          },
          {
            "duration": 0.375,
            "durationTicks": 288,
            "midi": 62,
            "name": "D4",
            "ticks": 77760,
            "time": 101.25,
            "velocity": 0.33070866141732286
          },
          {
            "duration": 0.25,
            "durationTicks": 192,
            "midi": 38,
            "name": "D2",
            "ticks": 77760,
            "time": 101.25,
            "velocity": 0.30708661417322836
          },
          {
            "duration": 0.625,
            "durationTicks": 480,
            "midi": 53,
            "name": "F3",
            "ticks": 77760,
            "time": 101.25,
            "velocity": 0.25196850393700787
          },
          {
            "duration": 0.375,
            "durationTicks": 288,
            "midi": 65,
            "name": "F4",
            "ticks": 77760,
            "time": 101.25,
            "velocity": 0.33858267716535434
          },
          {
            "duration": 0.625,
            "durationTicks": 480,
            "midi": 62,
            "name": "D4",
            "ticks": 77760,
            "time": 101.25,
            "velocity": 0.33070866141732286
          },
          {
            "duration": 0,
            "durationTicks": 0,
            "midi": 38,
            "name": "D2",
            "ticks": 77952,
            "time": 101.5,
            "velocity": 0.33858267716535434
          },
          {
            "duration": 0,
            "durationTicks": 0,
            "midi": 44,
            "name": "G#2",
            "ticks": 77952,
            "time": 101.5,
            "velocity": 0.2755905511811024
          },
          {
            "duration": 0,
            "durationTicks": 0,
            "midi": 61,
            "name": "C#4",
            "ticks": 77952,
            "time": 101.5,
            "velocity": 0.2755905511811024
          },
          {
            "duration": 0,
            "durationTicks": 0,
            "midi": 54,
            "name": "F#3",
            "ticks": 77952,
            "time": 101.5,
            "velocity": 0.2204724409448819
          },
          {
            "duration": 0,
            "durationTicks": 0,
            "midi": 46,
            "name": "A#2",
            "ticks": 78144,
            "time": 101.75,
            "velocity": 0.2755905511811024
          },
          {
            "duration": 0.125,
            "durationTicks": 96,
            "midi": 38,
            "name": "D2",
            "ticks": 78144,
            "time": 101.75,
            "velocity": 0.30708661417322836
          },
          {
            "duration": 0.5,
            "durationTicks": 384,
            "midi": 64,
            "name": "E4",
            "ticks": 78144,
            "time": 101.75,
            "velocity": 0.3464566929133858
          },
          {
            "duration": 0.25,
            "durationTicks": 192,
            "midi": 74,
            "name": "D5",
            "ticks": 78144,
            "time": 101.75,
            "velocity": 0.2047244094488189
          },
          {
            "duration": 0.25,
            "durationTicks": 192,
            "midi": 74,
            "name": "D5",
            "ticks": 78144,
            "time": 101.75,
            "velocity": 0.2047244094488189
          },
          {
            "duration": 0,
            "durationTicks": 0,
            "midi": 36,
            "name": "C2",
            "ticks": 78336,
            "time": 102,
            "velocity": 0.33858267716535434
          },
          {
            "duration": 0,
            "durationTicks": 0,
            "midi": 44,
            "name": "G#2",
            "ticks": 78336,
            "time": 102,
            "velocity": 0.25984251968503935
          },
          {
            "duration": 0.25,
            "durationTicks": 192,
            "midi": 67,
            "name": "G4",
            "ticks": 78336,
            "time": 102,
            "velocity": 0.25984251968503935
          },
          {
            "duration": 0.25,
            "durationTicks": 192,
            "midi": 67,
            "name": "G4",
            "ticks": 78336,
            "time": 102,
            "velocity": 0.25984251968503935
          },
          {
            "duration": 0,
            "durationTicks": 0,
            "midi": 54,
            "name": "F#3",
            "ticks": 78336,
            "time": 102,
            "velocity": 0.2283464566929134
          },
          {
            "duration": 0.25,
            "durationTicks": 192,
            "midi": 72,
            "name": "C5",
            "ticks": 78336,
            "time": 102,
            "velocity": 0.28346456692913385
          },
          {
            "duration": 0.625,
            "durationTicks": 480,
            "midi": 53,
            "name": "F3",
            "ticks": 78336,
            "time": 102,
            "velocity": 0.25984251968503935
          },
          {
            "duration": 0,
            "durationTicks": 0,
            "midi": 49,
            "name": "C#3",
            "ticks": 78336,
            "time": 102,
            "velocity": 0.2755905511811024
          },
          {
            "duration": 0.5,
            "durationTicks": 384,
            "midi": 76,
            "name": "E5",
            "ticks": 78336,
            "time": 102,
            "velocity": 0.1968503937007874
          },
          {
            "duration": 0.625,
            "durationTicks": 480,
            "midi": 57,
            "name": "A3",
            "ticks": 78336,
            "time": 102,
            "velocity": 0.2755905511811024
          },
          {
            "duration": 0.5,
            "durationTicks": 384,
            "midi": 76,
            "name": "E5",
            "ticks": 78336,
            "time": 102,
            "velocity": 0.1968503937007874
          },
          {
            "duration": 0.625,
            "durationTicks": 480,
            "midi": 60,
            "name": "C4",
            "ticks": 78336,
            "time": 102,
            "velocity": 0.25984251968503935
          },
          {
            "duration": 0,
            "durationTicks": 0,
            "midi": 61,
            "name": "C#4",
            "ticks": 78336,
            "time": 102,
            "velocity": 0.29133858267716534
          },
          {
            "duration": 0.375,
            "durationTicks": 288,
            "midi": 38,
            "name": "D2",
            "ticks": 78336,
            "time": 102,
            "velocity": 0.30708661417322836
          },
          {
            "duration": 0.125,
            "durationTicks": 96,
            "midi": 65,
            "name": "F4",
            "ticks": 78528,
            "time": 102.25,
            "velocity": 0.3228346456692913
          },
          {
            "duration": 0.125,
            "durationTicks": 96,
            "midi": 62,
            "name": "D4",
            "ticks": 78528,
            "time": 102.25,
            "velocity": 0.33858267716535434
          },
          {
            "duration": 0.125,
            "durationTicks": 96,
            "midi": 69,
            "name": "A4",
            "ticks": 78624,
            "time": 102.375,
            "velocity": 0.25984251968503935
          },
          {
            "duration": 0,
            "durationTicks": 0,
            "midi": 61,
            "name": "C#4",
            "ticks": 78720,
            "time": 102.5,
            "velocity": 0.28346456692913385
          },
          {
            "duration": 0,
            "durationTicks": 0,
            "midi": 38,
            "name": "D2",
            "ticks": 78720,
            "time": 102.5,
            "velocity": 0.2992125984251969
          },
          {
            "duration": 0,
            "durationTicks": 0,
            "midi": 44,
            "name": "G#2",
            "ticks": 78720,
            "time": 102.5,
            "velocity": 0.2677165354330709
          },
          {
            "duration": 0.5,
            "durationTicks": 384,
            "midi": 74,
            "name": "D5",
            "ticks": 78720,
            "time": 102.5,
            "velocity": 0.1889763779527559
          },
          {
            "duration": 0.25,
            "durationTicks": 192,
            "midi": 67,
            "name": "G4",
            "ticks": 78720,
            "time": 102.5,
            "velocity": 0.25984251968503935
          },
          {
            "duration": 0,
            "durationTicks": 0,
            "midi": 54,
            "name": "F#3",
            "ticks": 78720,
            "time": 102.5,
            "velocity": 0.2204724409448819
          },
          {
            "duration": 0.25,
            "durationTicks": 192,
            "midi": 72,
            "name": "C5",
            "ticks": 78720,
            "time": 102.5,
            "velocity": 0.2677165354330709
          },
          {
            "duration": 0.5,
            "durationTicks": 384,
            "midi": 74,
            "name": "D5",
            "ticks": 78720,
            "time": 102.5,
            "velocity": 0.1889763779527559
          },
          {
            "duration": 0.375,
            "durationTicks": 288,
            "midi": 38,
            "name": "D2",
            "ticks": 78720,
            "time": 102.5,
            "velocity": 0.2992125984251969
          },
          {
            "duration": 0.5,
            "durationTicks": 384,
            "midi": 53,
            "name": "F3",
            "ticks": 78912,
            "time": 102.75,
            "velocity": 0.25984251968503935
          },
          {
            "duration": 1,
            "durationTicks": 768,
            "midi": 57,
            "name": "A3",
            "ticks": 78912,
            "time": 102.75,
            "velocity": 0.2755905511811024
          },
          {
            "duration": 0.5,
            "durationTicks": 384,
            "midi": 60,
            "name": "C4",
            "ticks": 78912,
            "time": 102.75,
            "velocity": 0.25984251968503935
          },
          {
            "duration": 0.5,
            "durationTicks": 384,
            "midi": 64,
            "name": "E4",
            "ticks": 78912,
            "time": 102.75,
            "velocity": 0.33858267716535434
          },
          {
            "duration": 0.125,
            "durationTicks": 96,
            "midi": 69,
            "name": "A4",
            "ticks": 79008,
            "time": 102.875,
            "velocity": 0.25984251968503935
          },
          {
            "duration": 0.25,
            "durationTicks": 192,
            "midi": 67,
            "name": "G4",
            "ticks": 79104,
            "time": 103,
            "velocity": 0.23622047244094488
          },
          {
            "duration": 0,
            "durationTicks": 0,
            "midi": 61,
            "name": "C#4",
            "ticks": 79104,
            "time": 103,
            "velocity": 0.2755905511811024
          },
          {
            "duration": 0,
            "durationTicks": 0,
            "midi": 54,
            "name": "F#3",
            "ticks": 79104,
            "time": 103,
            "velocity": 0.2204724409448819
          },
          {
            "duration": 0,
            "durationTicks": 0,
            "midi": 44,
            "name": "G#2",
            "ticks": 79104,
            "time": 103,
            "velocity": 0.2677165354330709
          },
          {
            "duration": 0.25,
            "durationTicks": 192,
            "midi": 67,
            "name": "G4",
            "ticks": 79104,
            "time": 103,
            "velocity": 0.23622047244094488
          },
          {
            "duration": 0.5,
            "durationTicks": 384,
            "midi": 72,
            "name": "C5",
            "ticks": 79104,
            "time": 103,
            "velocity": 0.2204724409448819
          },
          {
            "duration": 0.125,
            "durationTicks": 96,
            "midi": 40,
            "name": "E2",
            "ticks": 79104,
            "time": 103,
            "velocity": 0.31496062992125984
          },
          {
            "duration": 0.5,
            "durationTicks": 384,
            "midi": 72,
            "name": "C5",
            "ticks": 79104,
            "time": 103,
            "velocity": 0.2204724409448819
          },
          {
            "duration": 0.5,
            "durationTicks": 384,
            "midi": 72,
            "name": "C5",
            "ticks": 79104,
            "time": 103,
            "velocity": 0.2204724409448819
          },
          {
            "duration": 0,
            "durationTicks": 0,
            "midi": 36,
            "name": "C2",
            "ticks": 79104,
            "time": 103,
            "velocity": 0.33070866141732286
          },
          {
            "duration": 0.125,
            "durationTicks": 96,
            "midi": 65,
            "name": "F4",
            "ticks": 79296,
            "time": 103.25,
            "velocity": 0.33858267716535434
          },
          {
            "duration": 0.125,
            "durationTicks": 96,
            "midi": 69,
            "name": "A4",
            "ticks": 79296,
            "time": 103.25,
            "velocity": 0.25984251968503935
          },
          {
            "duration": 0.125,
            "durationTicks": 96,
            "midi": 62,
            "name": "D4",
            "ticks": 79296,
            "time": 103.25,
            "velocity": 0.33858267716535434
          },
          {
            "duration": 0.25,
            "durationTicks": 192,
            "midi": 40,
            "name": "E2",
            "ticks": 79296,
            "time": 103.25,
            "velocity": 0.2992125984251969
          },
          {
            "duration": 0.5,
            "durationTicks": 384,
            "midi": 62,
            "name": "D4",
            "ticks": 79296,
            "time": 103.25,
            "velocity": 0.33858267716535434
          },
          {
            "duration": 0,
            "durationTicks": 0,
            "midi": 54,
            "name": "F#3",
            "ticks": 79488,
            "time": 103.5,
            "velocity": 0.2283464566929134
          },
          {
            "duration": 0,
            "durationTicks": 0,
            "midi": 44,
            "name": "G#2",
            "ticks": 79488,
            "time": 103.5,
            "velocity": 0.2755905511811024
          },
          {
            "duration": 0,
            "durationTicks": 0,
            "midi": 38,
            "name": "D2",
            "ticks": 79488,
            "time": 103.5,
            "velocity": 0.33070866141732286
          },
          {
            "duration": 0.125,
            "durationTicks": 96,
            "midi": 41,
            "name": "F2",
            "ticks": 79488,
            "time": 103.5,
            "velocity": 0.30708661417322836
          },
          {
            "duration": 0,
            "durationTicks": 0,
            "midi": 61,
            "name": "C#4",
            "ticks": 79488,
            "time": 103.5,
            "velocity": 0.29133858267716534
          },
          {
            "duration": 0.5,
            "durationTicks": 384,
            "midi": 81,
            "name": "A5",
            "ticks": 79488,
            "time": 103.5,
            "velocity": 0.2204724409448819
          },
          {
            "duration": 0.5,
            "durationTicks": 384,
            "midi": 81,
            "name": "A5",
            "ticks": 79488,
            "time": 103.5,
            "velocity": 0.2204724409448819
          },
          {
            "duration": 0.5,
            "durationTicks": 384,
            "midi": 64,
            "name": "E4",
            "ticks": 79488,
            "time": 103.5,
            "velocity": 0.33070866141732286
          },
          {
            "duration": 0.375,
            "durationTicks": 288,
            "midi": 60,
            "name": "C4",
            "ticks": 79488,
            "time": 103.5,
            "velocity": 0.33858267716535434
          },
          {
            "duration": 0,
            "durationTicks": 0,
            "midi": 46,
            "name": "A#2",
            "ticks": 79680,
            "time": 103.75,
            "velocity": 0.2755905511811024
          },
          {
            "duration": 0.125,
            "durationTicks": 96,
            "midi": 41,
            "name": "F2",
            "ticks": 79680,
            "time": 103.75,
            "velocity": 0.30708661417322836
          },
          {
            "duration": 0,
            "durationTicks": 0,
            "midi": 49,
            "name": "C#3",
            "ticks": 79872,
            "time": 104,
            "velocity": 0.2755905511811024
          },
          {
            "duration": 0,
            "durationTicks": 0,
            "midi": 60,
            "name": "C4",
            "ticks": 79872,
            "time": 104,
            "velocity": 0.2755905511811024
          },
          {
            "duration": 0,
            "durationTicks": 0,
            "midi": 36,
            "name": "C2",
            "ticks": 79872,
            "time": 104,
            "velocity": 0.33858267716535434
          },
          {
            "duration": 0,
            "durationTicks": 0,
            "midi": 44,
            "name": "G#2",
            "ticks": 79872,
            "time": 104,
            "velocity": 0.2677165354330709
          },
          {
            "duration": 0.375,
            "durationTicks": 288,
            "midi": 55,
            "name": "G3",
            "ticks": 79872,
            "time": 104,
            "velocity": 0.2677165354330709
          },
          {
            "duration": 0.125,
            "durationTicks": 96,
            "midi": 43,
            "name": "G2",
            "ticks": 79872,
            "time": 104,
            "velocity": 0.31496062992125984
          },
          {
            "duration": 0.375,
            "durationTicks": 288,
            "midi": 59,
            "name": "B3",
            "ticks": 79872,
            "time": 104,
            "velocity": 0.25984251968503935
          },
          {
            "duration": 3.5,
            "durationTicks": 2688,
            "midi": 79,
            "name": "G5",
            "ticks": 79872,
            "time": 104,
            "velocity": 0.2125984251968504
          },
          {
            "duration": 0.5,
            "durationTicks": 384,
            "midi": 74,
            "name": "D5",
            "ticks": 79872,
            "time": 104,
            "velocity": 0.2992125984251969
          },
          {
            "duration": 1.5,
            "durationTicks": 1152,
            "midi": 62,
            "name": "D4",
            "ticks": 79872,
            "time": 104,
            "velocity": 0.33070866141732286
          },
          {
            "duration": 0.5,
            "durationTicks": 384,
            "midi": 65,
            "name": "F4",
            "ticks": 79872,
            "time": 104,
            "velocity": 0.31496062992125984
          },
          {
            "duration": 3.5,
            "durationTicks": 2688,
            "midi": 79,
            "name": "G5",
            "ticks": 79872,
            "time": 104,
            "velocity": 0.2125984251968504
          },
          {
            "duration": 0.375,
            "durationTicks": 288,
            "midi": 67,
            "name": "G4",
            "ticks": 79872,
            "time": 104,
            "velocity": 0.18110236220472442
          },
          {
            "duration": 0,
            "durationTicks": 0,
            "midi": 54,
            "name": "F#3",
            "ticks": 79872,
            "time": 104,
            "velocity": 0.23622047244094488
          },
          {
            "duration": 0.5,
            "durationTicks": 384,
            "midi": 71,
            "name": "B4",
            "ticks": 79872,
            "time": 104,
            "velocity": 0.23622047244094488
          },
          {
            "duration": 0.5,
            "durationTicks": 384,
            "midi": 67,
            "name": "G4",
            "ticks": 79872,
            "time": 104,
            "velocity": 0.18110236220472442
          },
          {
            "duration": 0.125,
            "durationTicks": 96,
            "midi": 43,
            "name": "G2",
            "ticks": 80064,
            "time": 104.25,
            "velocity": 0.2992125984251969
          },
          {
            "duration": 0.375,
            "durationTicks": 288,
            "midi": 59,
            "name": "B3",
            "ticks": 80256,
            "time": 104.5,
            "velocity": 0.25984251968503935
          },
          {
            "duration": 0.375,
            "durationTicks": 288,
            "midi": 67,
            "name": "G4",
            "ticks": 80256,
            "time": 104.5,
            "velocity": 0.2755905511811024
          },
          {
            "duration": 0,
            "durationTicks": 0,
            "midi": 38,
            "name": "D2",
            "ticks": 80256,
            "time": 104.5,
            "velocity": 0.33858267716535434
          },
          {
            "duration": 0,
            "durationTicks": 0,
            "midi": 44,
            "name": "G#2",
            "ticks": 80256,
            "time": 104.5,
            "velocity": 0.2755905511811024
          },
          {
            "duration": 0,
            "durationTicks": 0,
            "midi": 54,
            "name": "F#3",
            "ticks": 80256,
            "time": 104.5,
            "velocity": 0.2283464566929134
          },
          {
            "duration": 0.125,
            "durationTicks": 96,
            "midi": 43,
            "name": "G2",
            "ticks": 80256,
            "time": 104.5,
            "velocity": 0.2992125984251969
          },
          {
            "duration": 0.375,
            "durationTicks": 288,
            "midi": 55,
            "name": "G3",
            "ticks": 80256,
            "time": 104.5,
            "velocity": 0.2755905511811024
          },
          {
            "duration": 0,
            "durationTicks": 0,
            "midi": 61,
            "name": "C#4",
            "ticks": 80256,
            "time": 104.5,
            "velocity": 0.29133858267716534
          },
          {
            "duration": 0.25,
            "durationTicks": 192,
            "midi": 43,
            "name": "G2",
            "ticks": 80448,
            "time": 104.75,
            "velocity": 0.2992125984251969
          },
          {
            "duration": 0.5,
            "durationTicks": 384,
            "midi": 65,
            "name": "F4",
            "ticks": 80640,
            "time": 105,
            "velocity": 0.1968503937007874
          },
          {
            "duration": 0.5,
            "durationTicks": 384,
            "midi": 69,
            "name": "A4",
            "ticks": 80640,
            "time": 105,
            "velocity": 0.2677165354330709
          },
          {
            "duration": 0,
            "durationTicks": 0,
            "midi": 61,
            "name": "C#4",
            "ticks": 80640,
            "time": 105,
            "velocity": 0.29133858267716534
          },
          {
            "duration": 0.375,
            "durationTicks": 288,
            "midi": 53,
            "name": "F3",
            "ticks": 80640,
            "time": 105,
            "velocity": 0.2677165354330709
          },
          {
            "duration": 0.5,
            "durationTicks": 384,
            "midi": 72,
            "name": "C5",
            "ticks": 80640,
            "time": 105,
            "velocity": 0.28346456692913385
          },
          {
            "duration": 0.5,
            "durationTicks": 384,
            "midi": 65,
            "name": "F4",
            "ticks": 80640,
            "time": 105,
            "velocity": 0.1968503937007874
          },
          {
            "duration": 0,
            "durationTicks": 0,
            "midi": 44,
            "name": "G#2",
            "ticks": 80640,
            "time": 105,
            "velocity": 0.2677165354330709
          },
          {
            "duration": 0.125,
            "durationTicks": 96,
            "midi": 41,
            "name": "F2",
            "ticks": 80640,
            "time": 105,
            "velocity": 0.31496062992125984
          },
          {
            "duration": 0.375,
            "durationTicks": 288,
            "midi": 59,
            "name": "B3",
            "ticks": 80640,
            "time": 105,
            "velocity": 0.25196850393700787
          },
          {
            "duration": 0,
            "durationTicks": 0,
            "midi": 54,
            "name": "F#3",
            "ticks": 80640,
            "time": 105,
            "velocity": 0.2440944881889764
          },
          {
            "duration": 0,
            "durationTicks": 0,
            "midi": 36,
            "name": "C2",
            "ticks": 80640,
            "time": 105,
            "velocity": 0.33858267716535434
          },
          {
            "duration": 0.125,
            "durationTicks": 96,
            "midi": 41,
            "name": "F2",
            "ticks": 80832,
            "time": 105.25,
            "velocity": 0.30708661417322836
          },
          {
            "duration": 0.375,
            "durationTicks": 288,
            "midi": 65,
            "name": "F4",
            "ticks": 81024,
            "time": 105.5,
            "velocity": 0.25984251968503935
          },
          {
            "duration": 0,
            "durationTicks": 0,
            "midi": 61,
            "name": "C#4",
            "ticks": 81024,
            "time": 105.5,
            "velocity": 0.2755905511811024
          },
          {
            "duration": 0,
            "durationTicks": 0,
            "midi": 38,
            "name": "D2",
            "ticks": 81024,
            "time": 105.5,
            "velocity": 0.33858267716535434
          },
          {
            "duration": 0,
            "durationTicks": 0,
            "midi": 44,
            "name": "G#2",
            "ticks": 81024,
            "time": 105.5,
            "velocity": 0.2677165354330709
          },
          {
            "duration": 0.125,
            "durationTicks": 96,
            "midi": 41,
            "name": "F2",
            "ticks": 81024,
            "time": 105.5,
            "velocity": 0.2992125984251969
          },
          {
            "duration": 0.375,
            "durationTicks": 288,
            "midi": 59,
            "name": "B3",
            "ticks": 81024,
            "time": 105.5,
            "velocity": 0.25196850393700787
          },
          {
            "duration": 0.375,
            "durationTicks": 288,
            "midi": 53,
            "name": "F3",
            "ticks": 81024,
            "time": 105.5,
            "velocity": 0.25196850393700787
          },
          {
            "duration": 0,
            "durationTicks": 0,
            "midi": 54,
            "name": "F#3",
            "ticks": 81024,
            "time": 105.5,
            "velocity": 0.23622047244094488
          },
          {
            "duration": 0.25,
            "durationTicks": 192,
            "midi": 41,
            "name": "F2",
            "ticks": 81216,
            "time": 105.75,
            "velocity": 0.30708661417322836
          },
          {
            "duration": 0,
            "durationTicks": 0,
            "midi": 46,
            "name": "A#2",
            "ticks": 81216,
            "time": 105.75,
            "velocity": 0.2755905511811024
          },
          {
            "duration": 0,
            "durationTicks": 0,
            "midi": 49,
            "name": "C#3",
            "ticks": 81408,
            "time": 106,
            "velocity": 0.2677165354330709
          },
          {
            "duration": 0.125,
            "durationTicks": 96,
            "midi": 40,
            "name": "E2",
            "ticks": 81408,
            "time": 106,
            "velocity": 0.2992125984251969
          },
          {
            "duration": 0,
            "durationTicks": 0,
            "midi": 61,
            "name": "C#4",
            "ticks": 81408,
            "time": 106,
            "velocity": 0.28346456692913385
          },
          {
            "duration": 0,
            "durationTicks": 0,
            "midi": 44,
            "name": "G#2",
            "ticks": 81408,
            "time": 106,
            "velocity": 0.2677165354330709
          },
          {
            "duration": 0.5,
            "durationTicks": 384,
            "midi": 67,
            "name": "G4",
            "ticks": 81408,
            "time": 106,
            "velocity": 0.25984251968503935
          },
          {
            "duration": 0.5,
            "durationTicks": 384,
            "midi": 71,
            "name": "B4",
            "ticks": 81408,
            "time": 106,
            "velocity": 0.28346456692913385
          },
          {
            "duration": 0.375,
            "durationTicks": 288,
            "midi": 64,
            "name": "E4",
            "ticks": 81408,
            "time": 106,
            "velocity": 0.2047244094488189
          },
          {
            "duration": 0,
            "durationTicks": 0,
            "midi": 36,
            "name": "C2",
            "ticks": 81408,
            "time": 106,
            "velocity": 0.33858267716535434
          },
          {
            "duration": 0.375,
            "durationTicks": 288,
            "midi": 59,
            "name": "B3",
            "ticks": 81408,
            "time": 106,
            "velocity": 0.25984251968503935
          },
          {
            "duration": 0,
            "durationTicks": 0,
            "midi": 54,
            "name": "F#3",
            "ticks": 81408,
            "time": 106,
            "velocity": 0.23622047244094488
          },
          {
            "duration": 0.375,
            "durationTicks": 288,
            "midi": 52,
            "name": "E3",
            "ticks": 81408,
            "time": 106,
            "velocity": 0.25984251968503935
          },
          {
            "duration": 0.5,
            "durationTicks": 384,
            "midi": 64,
            "name": "E4",
            "ticks": 81408,
            "time": 106,
            "velocity": 0.2047244094488189
          },
          {
            "duration": 0.125,
            "durationTicks": 96,
            "midi": 40,
            "name": "E2",
            "ticks": 81600,
            "time": 106.25,
            "velocity": 0.2992125984251969
          },
          {
            "duration": 0,
            "durationTicks": 0,
            "midi": 38,
            "name": "D2",
            "ticks": 81600,
            "time": 106.25,
            "velocity": 0.33070866141732286
          },
          {
            "duration": 0,
            "durationTicks": 0,
            "midi": 38,
            "name": "D2",
            "ticks": 81696,
            "time": 106.375,
            "velocity": 0.33858267716535434
          },
          {
            "duration": 0,
            "durationTicks": 0,
            "midi": 44,
            "name": "G#2",
            "ticks": 81792,
            "time": 106.5,
            "velocity": 0.25984251968503935
          },
          {
            "duration": 0.375,
            "durationTicks": 288,
            "midi": 52,
            "name": "E3",
            "ticks": 81792,
            "time": 106.5,
            "velocity": 0.25984251968503935
          },
          {
            "duration": 0.375,
            "durationTicks": 288,
            "midi": 64,
            "name": "E4",
            "ticks": 81792,
            "time": 106.5,
            "velocity": 0.25984251968503935
          },
          {
            "duration": 0,
            "durationTicks": 0,
            "midi": 38,
            "name": "D2",
            "ticks": 81792,
            "time": 106.5,
            "velocity": 0.33070866141732286
          },
          {
            "duration": 0.375,
            "durationTicks": 288,
            "midi": 59,
            "name": "B3",
            "ticks": 81792,
            "time": 106.5,
            "velocity": 0.2755905511811024
          },
          {
            "duration": 0.125,
            "durationTicks": 96,
            "midi": 40,
            "name": "E2",
            "ticks": 81792,
            "time": 106.5,
            "velocity": 0.30708661417322836
          },
          {
            "duration": 0,
            "durationTicks": 0,
            "midi": 54,
            "name": "F#3",
            "ticks": 81792,
            "time": 106.5,
            "velocity": 0.2440944881889764
          },
          {
            "duration": 0,
            "durationTicks": 0,
            "midi": 61,
            "name": "C#4",
            "ticks": 81792,
            "time": 106.5,
            "velocity": 0.2755905511811024
          },
          {
            "duration": 0,
            "durationTicks": 0,
            "midi": 38,
            "name": "D2",
            "ticks": 81888,
            "time": 106.625,
            "velocity": 0.33858267716535434
          },
          {
            "duration": 0.25,
            "durationTicks": 192,
            "midi": 40,
            "name": "E2",
            "ticks": 81984,
            "time": 106.75,
            "velocity": 0.31496062992125984
          },
          {
            "duration": 0,
            "durationTicks": 0,
            "midi": 38,
            "name": "D2",
            "ticks": 81984,
            "time": 106.75,
            "velocity": 0.33070866141732286
          },
          {
            "duration": 0,
            "durationTicks": 0,
            "midi": 38,
            "name": "D2",
            "ticks": 82080,
            "time": 106.875,
            "velocity": 0.33070866141732286
          },
          {
            "duration": 0,
            "durationTicks": 0,
            "midi": 36,
            "name": "C2",
            "ticks": 82176,
            "time": 107,
            "velocity": 0.33070866141732286
          },
          {
            "duration": 0,
            "durationTicks": 0,
            "midi": 44,
            "name": "G#2",
            "ticks": 82176,
            "time": 107,
            "velocity": 0.2677165354330709
          },
          {
            "duration": 0,
            "durationTicks": 0,
            "midi": 38,
            "name": "D2",
            "ticks": 82176,
            "time": 107,
            "velocity": 0.30708661417322836
          },
          {
            "duration": 0.375,
            "durationTicks": 288,
            "midi": 59,
            "name": "B3",
            "ticks": 82176,
            "time": 107,
            "velocity": 0.25196850393700787
          },
          {
            "duration": 0.375,
            "durationTicks": 288,
            "midi": 50,
            "name": "D3",
            "ticks": 82176,
            "time": 107,
            "velocity": 0.25984251968503935
          },
          {
            "duration": 0.125,
            "durationTicks": 96,
            "midi": 38,
            "name": "D2",
            "ticks": 82176,
            "time": 107,
            "velocity": 0.30708661417322836
          },
          {
            "duration": 0,
            "durationTicks": 0,
            "midi": 60,
            "name": "C4",
            "ticks": 82176,
            "time": 107,
            "velocity": 0.2755905511811024
          },
          {
            "duration": 0.75,
            "durationTicks": 576,
            "midi": 69,
            "name": "A4",
            "ticks": 82176,
            "time": 107,
            "velocity": 0.2755905511811024
          },
          {
            "duration": 0,
            "durationTicks": 0,
            "midi": 54,
            "name": "F#3",
            "ticks": 82176,
            "time": 107,
            "velocity": 0.2204724409448819
          },
          {
            "duration": 0.75,
            "durationTicks": 576,
            "midi": 67,
            "name": "G4",
            "ticks": 82176,
            "time": 107,
            "velocity": 0.2283464566929134
          },
          {
            "duration": 0.375,
            "durationTicks": 288,
            "midi": 62,
            "name": "D4",
            "ticks": 82176,
            "time": 107,
            "velocity": 0.2125984251968504
          },
          {
            "duration": 0,
            "durationTicks": 0,
            "midi": 38,
            "name": "D2",
            "ticks": 82272,
            "time": 107.125,
            "velocity": 0.33858267716535434
          },
          {
            "duration": 0,
            "durationTicks": 0,
            "midi": 38,
            "name": "D2",
            "ticks": 82368,
            "time": 107.25,
            "velocity": 0.31496062992125984
          },
          {
            "duration": 0.125,
            "durationTicks": 96,
            "midi": 38,
            "name": "D2",
            "ticks": 82368,
            "time": 107.25,
            "velocity": 0.31496062992125984
          },
          {
            "duration": 0,
            "durationTicks": 0,
            "midi": 38,
            "name": "D2",
            "ticks": 82464,
            "time": 107.375,
            "velocity": 0.33070866141732286
          },
          {
            "duration": 0.375,
            "durationTicks": 288,
            "midi": 50,
            "name": "D3",
            "ticks": 82560,
            "time": 107.5,
            "velocity": 0.25196850393700787
          },
          {
            "duration": 0.25,
            "durationTicks": 192,
            "midi": 62,
            "name": "D4",
            "ticks": 82560,
            "time": 107.5,
            "velocity": 0.23622047244094488
          },
          {
            "duration": 0,
            "durationTicks": 0,
            "midi": 38,
            "name": "D2",
            "ticks": 82560,
            "time": 107.5,
            "velocity": 0.31496062992125984
          },
          {
            "duration": 0.25,
            "durationTicks": 192,
            "midi": 62,
            "name": "D4",
            "ticks": 82560,
            "time": 107.5,
            "velocity": 0.23622047244094488
          },
          {
            "duration": 0,
            "durationTicks": 0,
            "midi": 44,
            "name": "G#2",
            "ticks": 82560,
            "time": 107.5,
            "velocity": 0.2677165354330709
          },
          {
            "duration": 0,
            "durationTicks": 0,
            "midi": 61,
            "name": "C#4",
            "ticks": 82560,
            "time": 107.5,
            "velocity": 0.2755905511811024
          },
          {
            "duration": 0.125,
            "durationTicks": 96,
            "midi": 79,
            "name": "G5",
            "ticks": 82560,
            "time": 107.5,
            "velocity": 0.2047244094488189
          },
          {
            "duration": 0.125,
            "durationTicks": 96,
            "midi": 38,
            "name": "D2",
            "ticks": 82560,
            "time": 107.5,
            "velocity": 0.31496062992125984
          },
          {
            "duration": 0.375,
            "durationTicks": 288,
            "midi": 59,
            "name": "B3",
            "ticks": 82560,
            "time": 107.5,
            "velocity": 0.25984251968503935
          },
          {
            "duration": 0.125,
            "durationTicks": 96,
            "midi": 79,
            "name": "G5",
            "ticks": 82560,
            "time": 107.5,
            "velocity": 0.2047244094488189
          },
          {
            "duration": 0,
            "durationTicks": 0,
            "midi": 54,
            "name": "F#3",
            "ticks": 82560,
            "time": 107.5,
            "velocity": 0.2204724409448819
          },
          {
            "duration": 0,
            "durationTicks": 0,
            "midi": 38,
            "name": "D2",
            "ticks": 82656,
            "time": 107.625,
            "velocity": 0.33858267716535434
          },
          {
            "duration": 0.125,
            "durationTicks": 96,
            "midi": 81,
            "name": "A5",
            "ticks": 82656,
            "time": 107.625,
            "velocity": 0.1968503937007874
          },
          {
            "duration": 0.125,
            "durationTicks": 96,
            "midi": 81,
            "name": "A5",
            "ticks": 82656,
            "time": 107.625,
            "velocity": 0.1968503937007874
          },
          {
            "duration": 0.125,
            "durationTicks": 96,
            "midi": 84,
            "name": "C6",
            "ticks": 82752,
            "time": 107.75,
            "velocity": 0.2204724409448819
          },
          {
            "duration": 0,
            "durationTicks": 0,
            "midi": 46,
            "name": "A#2",
            "ticks": 82752,
            "time": 107.75,
            "velocity": 0.2677165354330709
          },
          {
            "duration": 0,
            "durationTicks": 0,
            "midi": 38,
            "name": "D2",
            "ticks": 82752,
            "time": 107.75,
            "velocity": 0.31496062992125984
          },
          {
            "duration": 0.125,
            "durationTicks": 96,
            "midi": 84,
            "name": "C6",
            "ticks": 82752,
            "time": 107.75,
            "velocity": 0.2204724409448819
          },
          {
            "duration": 0,
            "durationTicks": 0,
            "midi": 38,
            "name": "D2",
            "ticks": 82848,
            "time": 107.875,
            "velocity": 0.33858267716535434
          },
          {
            "duration": 0.125,
            "durationTicks": 96,
            "midi": 38,
            "name": "D2",
            "ticks": 82848,
            "time": 107.875,
            "velocity": 0.33858267716535434
          },
          {
            "duration": 0,
            "durationTicks": 0,
            "midi": 36,
            "name": "C2",
            "ticks": 82944,
            "time": 108,
            "velocity": 0.30708661417322836
          },
          {
            "duration": 0,
            "durationTicks": 0,
            "midi": 60,
            "name": "C4",
            "ticks": 82944,
            "time": 108,
            "velocity": 0.3228346456692913
          },
          {
            "duration": 1.125,
            "durationTicks": 864,
            "midi": 48,
            "name": "C3",
            "ticks": 82944,
            "time": 108,
            "velocity": 0.2755905511811024
          },
          {
            "duration": 0,
            "durationTicks": 0,
            "midi": 54,
            "name": "F#3",
            "ticks": 82944,
            "time": 108,
            "velocity": 0.2283464566929134
          },
          {
            "duration": 0.125,
            "durationTicks": 96,
            "midi": 60,
            "name": "C4",
            "ticks": 82944,
            "time": 108,
            "velocity": 0.3228346456692913
          },
          {
            "duration": 0,
            "durationTicks": 0,
            "midi": 49,
            "name": "C#3",
            "ticks": 82944,
            "time": 108,
            "velocity": 0.2677165354330709
          },
          {
            "duration": 1.125,
            "durationTicks": 864,
            "midi": 52,
            "name": "E3",
            "ticks": 82944,
            "time": 108,
            "velocity": 0.25984251968503935
          },
          {
            "duration": 1.125,
            "durationTicks": 864,
            "midi": 84,
            "name": "C6",
            "ticks": 82944,
            "time": 108,
            "velocity": 0.2047244094488189
          },
          {
            "duration": 0,
            "durationTicks": 0,
            "midi": 44,
            "name": "G#2",
            "ticks": 82944,
            "time": 108,
            "velocity": 0.2677165354330709
          },
          {
            "duration": 0.375,
            "durationTicks": 288,
            "midi": 36,
            "name": "C2",
            "ticks": 82944,
            "time": 108,
            "velocity": 0.30708661417322836
          },
          {
            "duration": 1,
            "durationTicks": 768,
            "midi": 55,
            "name": "G3",
            "ticks": 82944,
            "time": 108,
            "velocity": 0.1889763779527559
          },
          {
            "duration": 1.125,
            "durationTicks": 864,
            "midi": 84,
            "name": "C6",
            "ticks": 82944,
            "time": 108,
            "velocity": 0.2047244094488189
          },
          {
            "duration": 1,
            "durationTicks": 768,
            "midi": 64,
            "name": "E4",
            "ticks": 82944,
            "time": 108,
            "velocity": 0.1889763779527559
          },
          {
            "duration": 0.125,
            "durationTicks": 96,
            "midi": 60,
            "name": "C4",
            "ticks": 83040,
            "time": 108.125,
            "velocity": 0.33070866141732286
          },
          {
            "duration": 0.125,
            "durationTicks": 96,
            "midi": 60,
            "name": "C4",
            "ticks": 83136,
            "time": 108.25,
            "velocity": 0.33070866141732286
          },
          {
            "duration": 0,
            "durationTicks": 0,
            "midi": 38,
            "name": "D2",
            "ticks": 83328,
            "time": 108.5,
            "velocity": 0.33070866141732286
          },
          {
            "duration": 0,
            "durationTicks": 0,
            "midi": 61,
            "name": "C#4",
            "ticks": 83328,
            "time": 108.5,
            "velocity": 0.2755905511811024
          },
          {
            "duration": 0.375,
            "durationTicks": 288,
            "midi": 36,
            "name": "C2",
            "ticks": 83328,
            "time": 108.5,
            "velocity": 0.31496062992125984
          },
          {
            "duration": 0,
            "durationTicks": 0,
            "midi": 44,
            "name": "G#2",
            "ticks": 83328,
            "time": 108.5,
            "velocity": 0.2677165354330709
          },
          {
            "duration": 0.125,
            "durationTicks": 96,
            "midi": 60,
            "name": "C4",
            "ticks": 83328,
            "time": 108.5,
            "velocity": 0.3228346456692913
          },
          {
            "duration": 0,
            "durationTicks": 0,
            "midi": 54,
            "name": "F#3",
            "ticks": 83328,
            "time": 108.5,
            "velocity": 0.23622047244094488
          },
          {
            "duration": 0.125,
            "durationTicks": 96,
            "midi": 60,
            "name": "C4",
            "ticks": 83424,
            "time": 108.625,
            "velocity": 0.33070866141732286
          },
          {
            "duration": 0.125,
            "durationTicks": 96,
            "midi": 60,
            "name": "C4",
            "ticks": 83520,
            "time": 108.75,
            "velocity": 0.33070866141732286
          },
          {
            "duration": 0.25,
            "durationTicks": 192,
            "midi": 60,
            "name": "C4",
            "ticks": 83520,
            "time": 108.75,
            "velocity": 0.33070866141732286
          },
          {
            "duration": 0,
            "durationTicks": 0,
            "midi": 36,
            "name": "C2",
            "ticks": 83712,
            "time": 109,
            "velocity": 0.31496062992125984
          },
          {
            "duration": 0,
            "durationTicks": 0,
            "midi": 44,
            "name": "G#2",
            "ticks": 83712,
            "time": 109,
            "velocity": 0.2755905511811024
          },
          {
            "duration": 0,
            "durationTicks": 0,
            "midi": 60,
            "name": "C4",
            "ticks": 83712,
            "time": 109,
            "velocity": 0.2755905511811024
          },
          {
            "duration": 0.125,
            "durationTicks": 96,
            "midi": 36,
            "name": "C2",
            "ticks": 83712,
            "time": 109,
            "velocity": 0.31496062992125984
          },
          {
            "duration": 0,
            "durationTicks": 0,
            "midi": 54,
            "name": "F#3",
            "ticks": 83712,
            "time": 109,
            "velocity": 0.2440944881889764
          },
          {
            "duration": 0.125,
            "durationTicks": 96,
            "midi": 64,
            "name": "E4",
            "ticks": 83904,
            "time": 109.25,
            "velocity": 0.23622047244094488
          },
          {
            "duration": 0.25,
            "durationTicks": 192,
            "midi": 60,
            "name": "C4",
            "ticks": 83904,
            "time": 109.25,
            "velocity": 0.25196850393700787
          },
          {
            "duration": 0.25,
            "durationTicks": 192,
            "midi": 84,
            "name": "C6",
            "ticks": 83904,
            "time": 109.25,
            "velocity": 0.1889763779527559
          },
          {
            "duration": 0.125,
            "durationTicks": 96,
            "midi": 48,
            "name": "C3",
            "ticks": 83904,
            "time": 109.25,
            "velocity": 0.2755905511811024
          },
          {
            "duration": 0.125,
            "durationTicks": 96,
            "midi": 52,
            "name": "E3",
            "ticks": 83904,
            "time": 109.25,
            "velocity": 0.2755905511811024
          },
          {
            "duration": 0.25,
            "durationTicks": 192,
            "midi": 84,
            "name": "C6",
            "ticks": 83904,
            "time": 109.25,
            "velocity": 0.1889763779527559
          },
          {
            "duration": 0.25,
            "durationTicks": 192,
            "midi": 64,
            "name": "E4",
            "ticks": 83904,
            "time": 109.25,
            "velocity": 0.23622047244094488
          },
          {
            "duration": 0.125,
            "durationTicks": 96,
            "midi": 36,
            "name": "C2",
            "ticks": 83904,
            "time": 109.25,
            "velocity": 0.30708661417322836
          },
          {
            "duration": 0.25,
            "durationTicks": 192,
            "midi": 55,
            "name": "G3",
            "ticks": 83904,
            "time": 109.25,
            "velocity": 0.1889763779527559
          },
          {
            "duration": 0,
            "durationTicks": 0,
            "midi": 61,
            "name": "C#4",
            "ticks": 84096,
            "time": 109.5,
            "velocity": 0.2755905511811024
          },
          {
            "duration": 0,
            "durationTicks": 0,
            "midi": 38,
            "name": "D2",
            "ticks": 84096,
            "time": 109.5,
            "velocity": 0.33070866141732286
          },
          {
            "duration": 0,
            "durationTicks": 0,
            "midi": 54,
            "name": "F#3",
            "ticks": 84096,
            "time": 109.5,
            "velocity": 0.2283464566929134
          },
          {
            "duration": 0.25,
            "durationTicks": 192,
            "midi": 81,
            "name": "A5",
            "ticks": 84096,
            "time": 109.5,
            "velocity": 0.2047244094488189
          },
          {
            "duration": 0,
            "durationTicks": 0,
            "midi": 44,
            "name": "G#2",
            "ticks": 84096,
            "time": 109.5,
            "velocity": 0.2677165354330709
          },
          {
            "duration": 0.25,
            "durationTicks": 192,
            "midi": 36,
            "name": "C2",
            "ticks": 84096,
            "time": 109.5,
            "velocity": 0.31496062992125984
          },
          {
            "duration": 0.25,
            "durationTicks": 192,
            "midi": 81,
            "name": "A5",
            "ticks": 84096,
            "time": 109.5,
            "velocity": 0.2047244094488189
          },
          {
            "duration": 0,
            "durationTicks": 0,
            "midi": 60,
            "name": "C4",
            "ticks": 84192,
            "time": 109.625,
            "velocity": 0.2755905511811024
          },
          {
            "duration": 0.5,
            "durationTicks": 384,
            "midi": 57,
            "name": "A3",
            "ticks": 84288,
            "time": 109.75,
            "velocity": 0.23622047244094488
          },
          {
            "duration": 0.625,
            "durationTicks": 480,
            "midi": 38,
            "name": "D2",
            "ticks": 84288,
            "time": 109.75,
            "velocity": 0.30708661417322836
          },
          {
            "duration": 1.375,
            "durationTicks": 1056,
            "midi": 50,
            "name": "D3",
            "ticks": 84288,
            "time": 109.75,
            "velocity": 0.2204724409448819
          },
          {
            "duration": 1.375,
            "durationTicks": 1056,
            "midi": 50,
            "name": "D3",
            "ticks": 84288,
            "time": 109.75,
            "velocity": 0.2204724409448819
          },
          {
            "duration": 0.25,
            "durationTicks": 192,
            "midi": 84,
            "name": "C6",
            "ticks": 84288,
            "time": 109.75,
            "velocity": 0.2047244094488189
          },
          {
            "duration": 0,
            "durationTicks": 0,
            "midi": 61,
            "name": "C#4",
            "ticks": 84288,
            "time": 109.75,
            "velocity": 0.28346456692913385
          },
          {
            "duration": 0.25,
            "durationTicks": 192,
            "midi": 84,
            "name": "C6",
            "ticks": 84288,
            "time": 109.75,
            "velocity": 0.2047244094488189
          },
          {
            "duration": 0.25,
            "durationTicks": 192,
            "midi": 66,
            "name": "F#4",
            "ticks": 84288,
            "time": 109.75,
            "velocity": 0.1732283464566929
          },
          {
            "duration": 0.25,
            "durationTicks": 192,
            "midi": 60,
            "name": "C4",
            "ticks": 84288,
            "time": 109.75,
            "velocity": 0.2125984251968504
          },
          {
            "duration": 0,
            "durationTicks": 0,
            "midi": 46,
            "name": "A#2",
            "ticks": 84288,
            "time": 109.75,
            "velocity": 0.2755905511811024
          },
          {
            "duration": 0,
            "durationTicks": 0,
            "midi": 44,
            "name": "G#2",
            "ticks": 84480,
            "time": 110,
            "velocity": 0.2677165354330709
          },
          {
            "duration": 0,
            "durationTicks": 0,
            "midi": 60,
            "name": "C4",
            "ticks": 84480,
            "time": 110,
            "velocity": 0.2440944881889764
          },
          {
            "duration": 0,
            "durationTicks": 0,
            "midi": 36,
            "name": "C2",
            "ticks": 84480,
            "time": 110,
            "velocity": 0.33070866141732286
          },
          {
            "duration": 0.25,
            "durationTicks": 192,
            "midi": 60,
            "name": "C4",
            "ticks": 84480,
            "time": 110,
            "velocity": 0.2440944881889764
          },
          {
            "duration": 0.25,
            "durationTicks": 192,
            "midi": 66,
            "name": "F#4",
            "ticks": 84480,
            "time": 110,
            "velocity": 0.2047244094488189
          },
          {
            "duration": 1.25,
            "durationTicks": 960,
            "midi": 88,
            "name": "E6",
            "ticks": 84480,
            "time": 110,
            "velocity": 0.2125984251968504
          },
          {
            "duration": 1.25,
            "durationTicks": 960,
            "midi": 88,
            "name": "E6",
            "ticks": 84480,
            "time": 110,
            "velocity": 0.2125984251968504
          },
          {
            "duration": 0,
            "durationTicks": 0,
            "midi": 54,
            "name": "F#3",
            "ticks": 84480,
            "time": 110,
            "velocity": 0.2283464566929134
          },
          {
            "duration": 0,
            "durationTicks": 0,
            "midi": 38,
            "name": "D2",
            "ticks": 84864,
            "time": 110.5,
            "velocity": 0.31496062992125984
          },
          {
            "duration": 0.375,
            "durationTicks": 288,
            "midi": 38,
            "name": "D2",
            "ticks": 84864,
            "time": 110.5,
            "velocity": 0.31496062992125984
          },
          {
            "duration": 0.25,
            "durationTicks": 192,
            "midi": 66,
            "name": "F#4",
            "ticks": 84864,
            "time": 110.5,
            "velocity": 0.1889763779527559
          },
          {
            "duration": 0,
            "durationTicks": 0,
            "midi": 61,
            "name": "C#4",
            "ticks": 84864,
            "time": 110.5,
            "velocity": 0.2755905511811024
          },
          {
            "duration": 0.25,
            "durationTicks": 192,
            "midi": 69,
            "name": "A4",
            "ticks": 84864,
            "time": 110.5,
            "velocity": 0.33858267716535434
          },
          {
            "duration": 0.25,
            "durationTicks": 192,
            "midi": 57,
            "name": "A3",
            "ticks": 84864,
            "time": 110.5,
            "velocity": 0.1889763779527559
          },
          {
            "duration": 0.25,
            "durationTicks": 192,
            "midi": 60,
            "name": "C4",
            "ticks": 84864,
            "time": 110.5,
            "velocity": 0.25196850393700787
          },
          {
            "duration": 0,
            "durationTicks": 0,
            "midi": 54,
            "name": "F#3",
            "ticks": 84864,
            "time": 110.5,
            "velocity": 0.2283464566929134
          },
          {
            "duration": 0,
            "durationTicks": 0,
            "midi": 44,
            "name": "G#2",
            "ticks": 84864,
            "time": 110.5,
            "velocity": 0.25984251968503935
          },
          {
            "duration": 0,
            "durationTicks": 0,
            "midi": 60,
            "name": "C4",
            "ticks": 85248,
            "time": 111,
            "velocity": 0.2440944881889764
          },
          {
            "duration": 0.125,
            "durationTicks": 96,
            "midi": 38,
            "name": "D2",
            "ticks": 85248,
            "time": 111,
            "velocity": 0.2992125984251969
          },
          {
            "duration": 0,
            "durationTicks": 0,
            "midi": 54,
            "name": "F#3",
            "ticks": 85248,
            "time": 111,
            "velocity": 0.2204724409448819
          },
          {
            "duration": 0,
            "durationTicks": 0,
            "midi": 36,
            "name": "C2",
            "ticks": 85248,
            "time": 111,
            "velocity": 0.33858267716535434
          },
          {
            "duration": 0.25,
            "durationTicks": 192,
            "midi": 57,
            "name": "A3",
            "ticks": 85248,
            "time": 111,
            "velocity": 0.1968503937007874
          },
          {
            "duration": 0.25,
            "durationTicks": 192,
            "midi": 66,
            "name": "F#4",
            "ticks": 85248,
            "time": 111,
            "velocity": 0.2047244094488189
          },
          {
            "duration": 0.125,
            "durationTicks": 96,
            "midi": 54,
            "name": "F#3",
            "ticks": 85248,
            "time": 111,
            "velocity": 0.2204724409448819
          },
          {
            "duration": 0.25,
            "durationTicks": 192,
            "midi": 60,
            "name": "C4",
            "ticks": 85248,
            "time": 111,
            "velocity": 0.2440944881889764
          },
          {
            "duration": 0,
            "durationTicks": 0,
            "midi": 44,
            "name": "G#2",
            "ticks": 85248,
            "time": 111,
            "velocity": 0.2677165354330709
          },
          {
            "duration": 0.375,
            "durationTicks": 288,
            "midi": 64,
            "name": "E4",
            "ticks": 85248,
            "time": 111,
            "velocity": 0.31496062992125984
          },
          {
            "duration": 0.25,
            "durationTicks": 192,
            "midi": 38,
            "name": "D2",
            "ticks": 85440,
            "time": 111.25,
            "velocity": 0.2992125984251969
          },
          {
            "duration": 0.25,
            "durationTicks": 192,
            "midi": 57,
            "name": "A3",
            "ticks": 85440,
            "time": 111.25,
            "velocity": 0.1889763779527559
          },
          {
            "duration": 0.125,
            "durationTicks": 96,
            "midi": 54,
            "name": "F#3",
            "ticks": 85440,
            "time": 111.25,
            "velocity": 0.2755905511811024
          },
          {
            "duration": 0.25,
            "durationTicks": 192,
            "midi": 60,
            "name": "C4",
            "ticks": 85440,
            "time": 111.25,
            "velocity": 0.25196850393700787
          },
          {
            "duration": 0.25,
            "durationTicks": 192,
            "midi": 66,
            "name": "F#4",
            "ticks": 85440,
            "time": 111.25,
            "velocity": 0.25984251968503935
          },
          {
            "duration": 0.125,
            "durationTicks": 96,
            "midi": 50,
            "name": "D3",
            "ticks": 85440,
            "time": 111.25,
            "velocity": 0.25984251968503935
          },
          {
            "duration": 0,
            "durationTicks": 0,
            "midi": 38,
            "name": "D2",
            "ticks": 85632,
            "time": 111.5,
            "velocity": 0.33858267716535434
          },
          {
            "duration": 0,
            "durationTicks": 0,
            "midi": 44,
            "name": "G#2",
            "ticks": 85632,
            "time": 111.5,
            "velocity": 0.2677165354330709
          },
          {
            "duration": 0.125,
            "durationTicks": 96,
            "midi": 88,
            "name": "E6",
            "ticks": 85632,
            "time": 111.5,
            "velocity": 0.2047244094488189
          },
          {
            "duration": 0.125,
            "durationTicks": 96,
            "midi": 88,
            "name": "E6",
            "ticks": 85632,
            "time": 111.5,
            "velocity": 0.2047244094488189
          },
          {
            "duration": 0.25,
            "durationTicks": 192,
            "midi": 40,
            "name": "E2",
            "ticks": 85632,
            "time": 111.5,
            "velocity": 0.31496062992125984
          },
          {
            "duration": 0,
            "durationTicks": 0,
            "midi": 61,
            "name": "C#4",
            "ticks": 85632,
            "time": 111.5,
            "velocity": 0.28346456692913385
          },
          {
            "duration": 0,
            "durationTicks": 0,
            "midi": 54,
            "name": "F#3",
            "ticks": 85632,
            "time": 111.5,
            "velocity": 0.2440944881889764
          },
          {
            "duration": 0.125,
            "durationTicks": 96,
            "midi": 86,
            "name": "D6",
            "ticks": 85728,
            "time": 111.625,
            "velocity": 0.1968503937007874
          },
          {
            "duration": 0.125,
            "durationTicks": 96,
            "midi": 86,
            "name": "D6",
            "ticks": 85728,
            "time": 111.625,
            "velocity": 0.1968503937007874
          },
          {
            "duration": 0.375,
            "durationTicks": 288,
            "midi": 41,
            "name": "F2",
            "ticks": 85824,
            "time": 111.75,
            "velocity": 0.31496062992125984
          },
          {
            "duration": 0.125,
            "durationTicks": 96,
            "midi": 84,
            "name": "C6",
            "ticks": 85824,
            "time": 111.75,
            "velocity": 0.1968503937007874
          },
          {
            "duration": 0,
            "durationTicks": 0,
            "midi": 46,
            "name": "A#2",
            "ticks": 85824,
            "time": 111.75,
            "velocity": 0.2677165354330709
          },
          {
            "duration": 0.125,
            "durationTicks": 96,
            "midi": 84,
            "name": "C6",
            "ticks": 85824,
            "time": 111.75,
            "velocity": 0.1968503937007874
          },
          {
            "duration": 0.125,
            "durationTicks": 96,
            "midi": 81,
            "name": "A5",
            "ticks": 85920,
            "time": 111.875,
            "velocity": 0.1968503937007874
          },
          {
            "duration": 0.125,
            "durationTicks": 96,
            "midi": 81,
            "name": "A5",
            "ticks": 85920,
            "time": 111.875,
            "velocity": 0.1968503937007874
          },
          {
            "duration": 0,
            "durationTicks": 0,
            "midi": 60,
            "name": "C4",
            "ticks": 86016,
            "time": 112,
            "velocity": 0.2677165354330709
          },
          {
            "duration": 0,
            "durationTicks": 0,
            "midi": 44,
            "name": "G#2",
            "ticks": 86016,
            "time": 112,
            "velocity": 0.2677165354330709
          },
          {
            "duration": 0,
            "durationTicks": 0,
            "midi": 54,
            "name": "F#3",
            "ticks": 86016,
            "time": 112,
            "velocity": 0.2283464566929134
          },
          {
            "duration": 1.25,
            "durationTicks": 960,
            "midi": 84,
            "name": "C6",
            "ticks": 86016,
            "time": 112,
            "velocity": 0.2204724409448819
          },
          {
            "duration": 1,
            "durationTicks": 768,
            "midi": 53,
            "name": "F3",
            "ticks": 86016,
            "time": 112,
            "velocity": 0.2125984251968504
          },
          {
            "duration": 1,
            "durationTicks": 768,
            "midi": 65,
            "name": "F4",
            "ticks": 86016,
            "time": 112,
            "velocity": 0.2125984251968504
          },
          {
            "duration": 1.25,
            "durationTicks": 960,
            "midi": 84,
            "name": "C6",
            "ticks": 86016,
            "time": 112,
            "velocity": 0.2204724409448819
          },
          {
            "duration": 1,
            "durationTicks": 768,
            "midi": 60,
            "name": "C4",
            "ticks": 86016,
            "time": 112,
            "velocity": 0.2677165354330709
          },
          {
            "duration": 0,
            "durationTicks": 0,
            "midi": 36,
            "name": "C2",
            "ticks": 86016,
            "time": 112,
            "velocity": 0.33858267716535434
          },
          {
            "duration": 1,
            "durationTicks": 768,
            "midi": 57,
            "name": "A3",
            "ticks": 86016,
            "time": 112,
            "velocity": 0.25984251968503935
          },
          {
            "duration": 1.25,
            "durationTicks": 960,
            "midi": 53,
            "name": "F3",
            "ticks": 86016,
            "time": 112,
            "velocity": 0.2125984251968504
          },
          {
            "duration": 1,
            "durationTicks": 768,
            "midi": 57,
            "name": "A3",
            "ticks": 86016,
            "time": 112,
            "velocity": 0.25984251968503935
          },
          {
            "duration": 0.125,
            "durationTicks": 96,
            "midi": 41,
            "name": "F2",
            "ticks": 86208,
            "time": 112.25,
            "velocity": 0.30708661417322836
          },
          {
            "duration": 0.125,
            "durationTicks": 96,
            "midi": 64,
            "name": "E4",
            "ticks": 86400,
            "time": 112.5,
            "velocity": 0.3228346456692913
          },
          {
            "duration": 0,
            "durationTicks": 0,
            "midi": 44,
            "name": "G#2",
            "ticks": 86400,
            "time": 112.5,
            "velocity": 0.2677165354330709
          },
          {
            "duration": 0,
            "durationTicks": 0,
            "midi": 61,
            "name": "C#4",
            "ticks": 86400,
            "time": 112.5,
            "velocity": 0.2755905511811024
          },
          {
            "duration": 0.125,
            "durationTicks": 96,
            "midi": 41,
            "name": "F2",
            "ticks": 86400,
            "time": 112.5,
            "velocity": 0.31496062992125984
          },
          {
            "duration": 0,
            "durationTicks": 0,
            "midi": 54,
            "name": "F#3",
            "ticks": 86400,
            "time": 112.5,
            "velocity": 0.2204724409448819
          },
          {
            "duration": 0,
            "durationTicks": 0,
            "midi": 38,
            "name": "D2",
            "ticks": 86400,
            "time": 112.5,
            "velocity": 0.33858267716535434
          },
          {
            "duration": 0.125,
            "durationTicks": 96,
            "midi": 64,
            "name": "E4",
            "ticks": 86592,
            "time": 112.75,
            "velocity": 0.31496062992125984
          },
          {
            "duration": 0.125,
            "durationTicks": 96,
            "midi": 41,
            "name": "F2",
            "ticks": 86592,
            "time": 112.75,
            "velocity": 0.31496062992125984
          },
          {
            "duration": 0,
            "durationTicks": 0,
            "midi": 54,
            "name": "F#3",
            "ticks": 86784,
            "time": 113,
            "velocity": 0.2440944881889764
          },
          {
            "duration": 0.25,
            "durationTicks": 192,
            "midi": 69,
            "name": "A4",
            "ticks": 86784,
            "time": 113,
            "velocity": 0.33070866141732286
          },
          {
            "duration": 0,
            "durationTicks": 0,
            "midi": 44,
            "name": "G#2",
            "ticks": 86784,
            "time": 113,
            "velocity": 0.2677165354330709
          },
          {
            "duration": 0.125,
            "durationTicks": 96,
            "midi": 41,
            "name": "F2",
            "ticks": 86784,
            "time": 113,
            "velocity": 0.2992125984251969
          },
          {
            "duration": 0,
            "durationTicks": 0,
            "midi": 60,
            "name": "C4",
            "ticks": 86784,
            "time": 113,
            "velocity": 0.2755905511811024
          },
          {
            "duration": 0,
            "durationTicks": 0,
            "midi": 36,
            "name": "C2",
            "ticks": 86784,
            "time": 113,
            "velocity": 0.33070866141732286
          },
          {
            "duration": 0.25,
            "durationTicks": 192,
            "midi": 57,
            "name": "A3",
            "ticks": 86976,
            "time": 113.25,
            "velocity": 0.2283464566929134
          },
          {
            "duration": 0.25,
            "durationTicks": 192,
            "midi": 84,
            "name": "C6",
            "ticks": 86976,
            "time": 113.25,
            "velocity": 0.2047244094488189
          },
          {
            "duration": 0.25,
            "durationTicks": 192,
            "midi": 84,
            "name": "C6",
            "ticks": 86976,
            "time": 113.25,
            "velocity": 0.2047244094488189
          },
          {
            "duration": 0.125,
            "durationTicks": 96,
            "midi": 41,
            "name": "F2",
            "ticks": 86976,
            "time": 113.25,
            "velocity": 0.2992125984251969
          },
          {
            "duration": 0.25,
            "durationTicks": 192,
            "midi": 65,
            "name": "F4",
            "ticks": 86976,
            "time": 113.25,
            "velocity": 0.2204724409448819
          },
          {
            "duration": 0.25,
            "durationTicks": 192,
            "midi": 60,
            "name": "C4",
            "ticks": 86976,
            "time": 113.25,
            "velocity": 0.2204724409448819
          },
          {
            "duration": 0.375,
            "durationTicks": 288,
            "midi": 53,
            "name": "F3",
            "ticks": 86976,
            "time": 113.25,
            "velocity": 0.25196850393700787
          },
          {
            "duration": 0.375,
            "durationTicks": 288,
            "midi": 57,
            "name": "A3",
            "ticks": 86976,
            "time": 113.25,
            "velocity": 0.2283464566929134
          },
          {
            "duration": 0,
            "durationTicks": 0,
            "midi": 38,
            "name": "D2",
            "ticks": 87168,
            "time": 113.5,
            "velocity": 0.33858267716535434
          },
          {
            "duration": 0.25,
            "durationTicks": 192,
            "midi": 81,
            "name": "A5",
            "ticks": 87168,
            "time": 113.5,
            "velocity": 0.2047244094488189
          },
          {
            "duration": 0,
            "durationTicks": 0,
            "midi": 44,
            "name": "G#2",
            "ticks": 87168,
            "time": 113.5,
            "velocity": 0.25984251968503935
          },
          {
            "duration": 0.25,
            "durationTicks": 192,
            "midi": 81,
            "name": "A5",
            "ticks": 87168,
            "time": 113.5,
            "velocity": 0.2047244094488189
          },
          {
            "duration": 0.25,
            "durationTicks": 192,
            "midi": 64,
            "name": "E4",
            "ticks": 87168,
            "time": 113.5,
            "velocity": 0.31496062992125984
          },
          {
            "duration": 0,
            "durationTicks": 0,
            "midi": 54,
            "name": "F#3",
            "ticks": 87168,
            "time": 113.5,
            "velocity": 0.2440944881889764
          },
          {
            "duration": 0.25,
            "durationTicks": 192,
            "midi": 41,
            "name": "F2",
            "ticks": 87168,
            "time": 113.5,
            "velocity": 0.31496062992125984
          },
          {
            "duration": 0,
            "durationTicks": 0,
            "midi": 61,
            "name": "C#4",
            "ticks": 87168,
            "time": 113.5,
            "velocity": 0.28346456692913385
          },
          {
            "duration": 0,
            "durationTicks": 0,
            "midi": 60,
            "name": "C4",
            "ticks": 87264,
            "time": 113.625,
            "velocity": 0.28346456692913385
          },
          {
            "duration": 0.25,
            "durationTicks": 192,
            "midi": 84,
            "name": "C6",
            "ticks": 87360,
            "time": 113.75,
            "velocity": 0.2047244094488189
          },
          {
            "duration": 0.25,
            "durationTicks": 192,
            "midi": 62,
            "name": "D4",
            "ticks": 87360,
            "time": 113.75,
            "velocity": 0.25196850393700787
          },
          {
            "duration": 0.25,
            "durationTicks": 192,
            "midi": 84,
            "name": "C6",
            "ticks": 87360,
            "time": 113.75,
            "velocity": 0.2047244094488189
          },
          {
            "duration": 0.25,
            "durationTicks": 192,
            "midi": 59,
            "name": "B3",
            "ticks": 87360,
            "time": 113.75,
            "velocity": 0.2047244094488189
          },
          {
            "duration": 0,
            "durationTicks": 0,
            "midi": 46,
            "name": "A#2",
            "ticks": 87360,
            "time": 113.75,
            "velocity": 0.2677165354330709
          },
          {
            "duration": 0.25,
            "durationTicks": 192,
            "midi": 67,
            "name": "G4",
            "ticks": 87360,
            "time": 113.75,
            "velocity": 0.14173228346456693
          },
          {
            "duration": 0,
            "durationTicks": 0,
            "midi": 61,
            "name": "C#4",
            "ticks": 87360,
            "time": 113.75,
            "velocity": 0.28346456692913385
          },
          {
            "duration": 0.375,
            "durationTicks": 288,
            "midi": 43,
            "name": "G2",
            "ticks": 87360,
            "time": 113.75,
            "velocity": 0.31496062992125984
          },
          {
            "duration": 0,
            "durationTicks": 0,
            "midi": 36,
            "name": "C2",
            "ticks": 87552,
            "time": 114,
            "velocity": 0.33070866141732286
          },
          {
            "duration": 0,
            "durationTicks": 0,
            "midi": 44,
            "name": "G#2",
            "ticks": 87552,
            "time": 114,
            "velocity": 0.2677165354330709
          },
          {
            "duration": 0,
            "durationTicks": 0,
            "midi": 54,
            "name": "F#3",
            "ticks": 87552,
            "time": 114,
            "velocity": 0.2204724409448819
          },
          {
            "duration": 0.5,
            "durationTicks": 384,
            "midi": 52,
            "name": "E3",
            "ticks": 87552,
            "time": 114,
            "velocity": 0.2677165354330709
          },
          {
            "duration": 0.5,
            "durationTicks": 384,
            "midi": 55,
            "name": "G3",
            "ticks": 87552,
            "time": 114,
            "velocity": 0.2755905511811024
          },
          {
            "duration": 0.5,
            "durationTicks": 384,
            "midi": 88,
            "name": "E6",
            "ticks": 87552,
            "time": 114,
            "velocity": 0.1968503937007874
          },
          {
            "duration": 0.5,
            "durationTicks": 384,
            "midi": 88,
            "name": "E6",
            "ticks": 87552,
            "time": 114,
            "velocity": 0.1968503937007874
          },
          {
            "duration": 0,
            "durationTicks": 0,
            "midi": 60,
            "name": "C4",
            "ticks": 87552,
            "time": 114,
            "velocity": 0.28346456692913385
          },
          {
            "duration": 0.125,
            "durationTicks": 96,
            "midi": 43,
            "name": "G2",
            "ticks": 87744,
            "time": 114.25,
            "velocity": 0.2992125984251969
          },
          {
            "duration": 0.25,
            "durationTicks": 192,
            "midi": 69,
            "name": "A4",
            "ticks": 87936,
            "time": 114.5,
            "velocity": 0.33858267716535434
          },
          {
            "duration": 0,
            "durationTicks": 0,
            "midi": 44,
            "name": "G#2",
            "ticks": 87936,
            "time": 114.5,
            "velocity": 0.2677165354330709
          },
          {
            "duration": 0.125,
            "durationTicks": 96,
            "midi": 62,
            "name": "D4",
            "ticks": 87936,
            "time": 114.5,
            "velocity": 0.2992125984251969
          },
          {
            "duration": 0.5,
            "durationTicks": 384,
            "midi": 86,
            "name": "D6",
            "ticks": 87936,
            "time": 114.5,
            "velocity": 0.2125984251968504
          },
          {
            "duration": 0.125,
            "durationTicks": 96,
            "midi": 67,
            "name": "G4",
            "ticks": 87936,
            "time": 114.5,
            "velocity": 0.18110236220472442
          },
          {
            "duration": 0,
            "durationTicks": 0,
            "midi": 38,
            "name": "D2",
            "ticks": 87936,
            "time": 114.5,
            "velocity": 0.33070866141732286
          },
          {
            "duration": 0.125,
            "durationTicks": 96,
            "midi": 59,
            "name": "B3",
            "ticks": 87936,
            "time": 114.5,
            "velocity": 0.1968503937007874
          },
          {
            "duration": 0.5,
            "durationTicks": 384,
            "midi": 86,
            "name": "D6",
            "ticks": 87936,
            "time": 114.5,
            "velocity": 0.2125984251968504
          },
          {
            "duration": 0.125,
            "durationTicks": 96,
            "midi": 43,
            "name": "G2",
            "ticks": 87936,
            "time": 114.5,
            "velocity": 0.2992125984251969
          },
          {
            "duration": 0,
            "durationTicks": 0,
            "midi": 54,
            "name": "F#3",
            "ticks": 87936,
            "time": 114.5,
            "velocity": 0.2204724409448819
          },
          {
            "duration": 0,
            "durationTicks": 0,
            "midi": 61,
            "name": "C#4",
            "ticks": 87936,
            "time": 114.5,
            "velocity": 0.28346456692913385
          },
          {
            "duration": 0.125,
            "durationTicks": 96,
            "midi": 43,
            "name": "G2",
            "ticks": 88128,
            "time": 114.75,
            "velocity": 0.2992125984251969
          },
          {
            "duration": 0.375,
            "durationTicks": 288,
            "midi": 55,
            "name": "G3",
            "ticks": 88128,
            "time": 114.75,
            "velocity": 0.25984251968503935
          },
          {
            "duration": 0.375,
            "durationTicks": 288,
            "midi": 50,
            "name": "D3",
            "ticks": 88128,
            "time": 114.75,
            "velocity": 0.2755905511811024
          },
          {
            "duration": 0.25,
            "durationTicks": 192,
            "midi": 59,
            "name": "B3",
            "ticks": 88320,
            "time": 115,
            "velocity": 0.1889763779527559
          },
          {
            "duration": 0.25,
            "durationTicks": 192,
            "midi": 62,
            "name": "D4",
            "ticks": 88320,
            "time": 115,
            "velocity": 0.29133858267716534
          },
          {
            "duration": 0.25,
            "durationTicks": 192,
            "midi": 67,
            "name": "G4",
            "ticks": 88320,
            "time": 115,
            "velocity": 0.2283464566929134
          },
          {
            "duration": 0.25,
            "durationTicks": 192,
            "midi": 64,
            "name": "E4",
            "ticks": 88320,
            "time": 115,
            "velocity": 0.33858267716535434
          },
          {
            "duration": 0,
            "durationTicks": 0,
            "midi": 60,
            "name": "C4",
            "ticks": 88320,
            "time": 115,
            "velocity": 0.29133858267716534
          },
          {
            "duration": 0,
            "durationTicks": 0,
            "midi": 54,
            "name": "F#3",
            "ticks": 88320,
            "time": 115,
            "velocity": 0.2204724409448819
          },
          {
            "duration": 0.5,
            "durationTicks": 384,
            "midi": 84,
            "name": "C6",
            "ticks": 88320,
            "time": 115,
            "velocity": 0.1889763779527559
          },
          {
            "duration": 0,
            "durationTicks": 0,
            "midi": 36,
            "name": "C2",
            "ticks": 88320,
            "time": 115,
            "velocity": 0.33858267716535434
          },
          {
            "duration": 0.125,
            "durationTicks": 96,
            "midi": 43,
            "name": "G2",
            "ticks": 88320,
            "time": 115,
            "velocity": 0.30708661417322836
          },
          {
            "duration": 0,
            "durationTicks": 0,
            "midi": 44,
            "name": "G#2",
            "ticks": 88320,
            "time": 115,
            "velocity": 0.2677165354330709
          },
          {
            "duration": 0.5,
            "durationTicks": 384,
            "midi": 84,
            "name": "C6",
            "ticks": 88320,
            "time": 115,
            "velocity": 0.1889763779527559
          },
          {
            "duration": 0.25,
            "durationTicks": 192,
            "midi": 55,
            "name": "G3",
            "ticks": 88512,
            "time": 115.25,
            "velocity": 0.25984251968503935
          },
          {
            "duration": 0.5,
            "durationTicks": 384,
            "midi": 55,
            "name": "G3",
            "ticks": 88512,
            "time": 115.25,
            "velocity": 0.25984251968503935
          },
          {
            "duration": 0.125,
            "durationTicks": 96,
            "midi": 67,
            "name": "G4",
            "ticks": 88512,
            "time": 115.25,
            "velocity": 0.2440944881889764
          },
          {
            "duration": 0.125,
            "durationTicks": 96,
            "midi": 59,
            "name": "B3",
            "ticks": 88512,
            "time": 115.25,
            "velocity": 0.2125984251968504
          },
          {
            "duration": 0,
            "durationTicks": 0,
            "midi": 38,
            "name": "D2",
            "ticks": 88512,
            "time": 115.25,
            "velocity": 0.33070866141732286
          },
          {
            "duration": 0.25,
            "durationTicks": 192,
            "midi": 43,
            "name": "G2",
            "ticks": 88512,
            "time": 115.25,
            "velocity": 0.2992125984251969
          },
          {
            "duration": 0.125,
            "durationTicks": 96,
            "midi": 62,
            "name": "D4",
            "ticks": 88512,
            "time": 115.25,
            "velocity": 0.2125984251968504
          },
          {
            "duration": 0.5,
            "durationTicks": 384,
            "midi": 50,
            "name": "D3",
            "ticks": 88512,
            "time": 115.25,
            "velocity": 0.25196850393700787
          },
          {
            "duration": 0,
            "durationTicks": 0,
            "midi": 44,
            "name": "G#2",
            "ticks": 88704,
            "time": 115.5,
            "velocity": 0.25984251968503935
          },
          {
            "duration": 0.25,
            "durationTicks": 192,
            "midi": 45,
            "name": "A2",
            "ticks": 88704,
            "time": 115.5,
            "velocity": 0.31496062992125984
          },
          {
            "duration": 0,
            "durationTicks": 0,
            "midi": 61,
            "name": "C#4",
            "ticks": 88704,
            "time": 115.5,
            "velocity": 0.28346456692913385
          },
          {
            "duration": 0.5,
            "durationTicks": 384,
            "midi": 81,
            "name": "A5",
            "ticks": 88704,
            "time": 115.5,
            "velocity": 0.2204724409448819
          },
          {
            "duration": 0.5,
            "durationTicks": 384,
            "midi": 81,
            "name": "A5",
            "ticks": 88704,
            "time": 115.5,
            "velocity": 0.2204724409448819
          },
          {
            "duration": 0,
            "durationTicks": 0,
            "midi": 54,
            "name": "F#3",
            "ticks": 88704,
            "time": 115.5,
            "velocity": 0.2283464566929134
          },
          {
            "duration": 0,
            "durationTicks": 0,
            "midi": 38,
            "name": "D2",
            "ticks": 88704,
            "time": 115.5,
            "velocity": 0.33858267716535434
          },
          {
            "duration": 0,
            "durationTicks": 0,
            "midi": 38,
            "name": "D2",
            "ticks": 88800,
            "time": 115.625,
            "velocity": 0.33070866141732286
          },
          {
            "duration": 0,
            "durationTicks": 0,
            "midi": 38,
            "name": "D2",
            "ticks": 88896,
            "time": 115.75,
            "velocity": 0.33858267716535434
          },
          {
            "duration": 0.25,
            "durationTicks": 192,
            "midi": 43,
            "name": "G2",
            "ticks": 88896,
            "time": 115.75,
            "velocity": 0.31496062992125984
          },
          {
            "duration": 0,
            "durationTicks": 0,
            "midi": 46,
            "name": "A#2",
            "ticks": 88896,
            "time": 115.75,
            "velocity": 0.2755905511811024
          },
          {
            "duration": 0,
            "durationTicks": 0,
            "midi": 60,
            "name": "C4",
            "ticks": 89088,
            "time": 116,
            "velocity": 0.33070866141732286
          },
          {
            "duration": 0.125,
            "durationTicks": 96,
            "midi": 60,
            "name": "C4",
            "ticks": 89088,
            "time": 116,
            "velocity": 0.33070866141732286
          },
          {
            "duration": 0,
            "durationTicks": 0,
            "midi": 54,
            "name": "F#3",
            "ticks": 89088,
            "time": 116,
            "velocity": 0.23622047244094488
          },
          {
            "duration": 0,
            "durationTicks": 0,
            "midi": 44,
            "name": "G#2",
            "ticks": 89088,
            "time": 116,
            "velocity": 0.2677165354330709
          },
          {
            "duration": 0,
            "durationTicks": 0,
            "midi": 36,
            "name": "C2",
            "ticks": 89088,
            "time": 116,
            "velocity": 0.2992125984251969
          },
          {
            "duration": 1,
            "durationTicks": 768,
            "midi": 48,
            "name": "C3",
            "ticks": 89088,
            "time": 116,
            "velocity": 0.2125984251968504
          },
          {
            "duration": 0.375,
            "durationTicks": 288,
            "midi": 36,
            "name": "C2",
            "ticks": 89088,
            "time": 116,
            "velocity": 0.2992125984251969
          },
          {
            "duration": 1.125,
            "durationTicks": 864,
            "midi": 48,
            "name": "C3",
            "ticks": 89088,
            "time": 116,
            "velocity": 0.2125984251968504
          },
          {
            "duration": 1.125,
            "durationTicks": 864,
            "midi": 84,
            "name": "C6",
            "ticks": 89088,
            "time": 116,
            "velocity": 0.1968503937007874
          },
          {
            "duration": 1.125,
            "durationTicks": 864,
            "midi": 84,
            "name": "C6",
            "ticks": 89088,
            "time": 116,
            "velocity": 0.1968503937007874
          },
          {
            "duration": 1,
            "durationTicks": 768,
            "midi": 52,
            "name": "E3",
            "ticks": 89088,
            "time": 116,
            "velocity": 0.2755905511811024
          },
          {
            "duration": 1,
            "durationTicks": 768,
            "midi": 64,
            "name": "E4",
            "ticks": 89088,
            "time": 116,
            "velocity": 0.1889763779527559
          },
          {
            "duration": 1,
            "durationTicks": 768,
            "midi": 55,
            "name": "G3",
            "ticks": 89088,
            "time": 116,
            "velocity": 0.1889763779527559
          },
          {
            "duration": 0.125,
            "durationTicks": 96,
            "midi": 60,
            "name": "C4",
            "ticks": 89184,
            "time": 116.125,
            "velocity": 0.33070866141732286
          },
          {
            "duration": 0.125,
            "durationTicks": 96,
            "midi": 60,
            "name": "C4",
            "ticks": 89280,
            "time": 116.25,
            "velocity": 0.31496062992125984
          },
          {
            "duration": 0.375,
            "durationTicks": 288,
            "midi": 36,
            "name": "C2",
            "ticks": 89472,
            "time": 116.5,
            "velocity": 0.2992125984251969
          },
          {
            "duration": 0.125,
            "durationTicks": 96,
            "midi": 60,
            "name": "C4",
            "ticks": 89472,
            "time": 116.5,
            "velocity": 0.31496062992125984
          },
          {
            "duration": 0,
            "durationTicks": 0,
            "midi": 38,
            "name": "D2",
            "ticks": 89472,
            "time": 116.5,
            "velocity": 0.33858267716535434
          },
          {
            "duration": 0,
            "durationTicks": 0,
            "midi": 44,
            "name": "G#2",
            "ticks": 89472,
            "time": 116.5,
            "velocity": 0.25984251968503935
          },
          {
            "duration": 0,
            "durationTicks": 0,
            "midi": 61,
            "name": "C#4",
            "ticks": 89472,
            "time": 116.5,
            "velocity": 0.28346456692913385
          },
          {
            "duration": 0,
            "durationTicks": 0,
            "midi": 54,
            "name": "F#3",
            "ticks": 89472,
            "time": 116.5,
            "velocity": 0.2283464566929134
          },
          {
            "duration": 0.125,
            "durationTicks": 96,
            "midi": 60,
            "name": "C4",
            "ticks": 89568,
            "time": 116.625,
            "velocity": 0.3228346456692913
          },
          {
            "duration": 0.125,
            "durationTicks": 96,
            "midi": 60,
            "name": "C4",
            "ticks": 89664,
            "time": 116.75,
            "velocity": 0.33070866141732286
          },
          {
            "duration": 0.25,
            "durationTicks": 192,
            "midi": 60,
            "name": "C4",
            "ticks": 89664,
            "time": 116.75,
            "velocity": 0.33070866141732286
          },
          {
            "duration": 0,
            "durationTicks": 0,
            "midi": 54,
            "name": "F#3",
            "ticks": 89856,
            "time": 117,
            "velocity": 0.2204724409448819
          },
          {
            "duration": 0,
            "durationTicks": 0,
            "midi": 60,
            "name": "C4",
            "ticks": 89856,
            "time": 117,
            "velocity": 0.2755905511811024
          },
          {
            "duration": 0,
            "durationTicks": 0,
            "midi": 44,
            "name": "G#2",
            "ticks": 89856,
            "time": 117,
            "velocity": 0.2677165354330709
          },
          {
            "duration": 0,
            "durationTicks": 0,
            "midi": 36,
            "name": "C2",
            "ticks": 89856,
            "time": 117,
            "velocity": 0.30708661417322836
          },
          {
            "duration": 0.125,
            "durationTicks": 96,
            "midi": 36,
            "name": "C2",
            "ticks": 89856,
            "time": 117,
            "velocity": 0.30708661417322836
          },
          {
            "duration": 0.125,
            "durationTicks": 96,
            "midi": 48,
            "name": "C3",
            "ticks": 90048,
            "time": 117.25,
            "velocity": 0.2755905511811024
          },
          {
            "duration": 0.25,
            "durationTicks": 192,
            "midi": 84,
            "name": "C6",
            "ticks": 90048,
            "time": 117.25,
            "velocity": 0.1889763779527559
          },
          {
            "duration": 0.125,
            "durationTicks": 96,
            "midi": 64,
            "name": "E4",
            "ticks": 90048,
            "time": 117.25,
            "velocity": 0.23622047244094488
          },
          {
            "duration": 0.25,
            "durationTicks": 192,
            "midi": 64,
            "name": "E4",
            "ticks": 90048,
            "time": 117.25,
            "velocity": 0.23622047244094488
          },
          {
            "duration": 0.25,
            "durationTicks": 192,
            "midi": 84,
            "name": "C6",
            "ticks": 90048,
            "time": 117.25,
            "velocity": 0.1889763779527559
          },
          {
            "duration": 0.125,
            "durationTicks": 96,
            "midi": 36,
            "name": "C2",
            "ticks": 90048,
            "time": 117.25,
            "velocity": 0.2992125984251969
          },
          {
            "duration": 0.25,
            "durationTicks": 192,
            "midi": 55,
            "name": "G3",
            "ticks": 90048,
            "time": 117.25,
            "velocity": 0.1889763779527559
          },
          {
            "duration": 0.25,
            "durationTicks": 192,
            "midi": 60,
            "name": "C4",
            "ticks": 90048,
            "time": 117.25,
            "velocity": 0.25196850393700787
          },
          {
            "duration": 0.125,
            "durationTicks": 96,
            "midi": 52,
            "name": "E3",
            "ticks": 90048,
            "time": 117.25,
            "velocity": 0.2677165354330709
          },
          {
            "duration": 0,
            "durationTicks": 0,
            "midi": 54,
            "name": "F#3",
            "ticks": 90240,
            "time": 117.5,
            "velocity": 0.2283464566929134
          },
          {
            "duration": 0,
            "durationTicks": 0,
            "midi": 61,
            "name": "C#4",
            "ticks": 90240,
            "time": 117.5,
            "velocity": 0.28346456692913385
          },
          {
            "duration": 0,
            "durationTicks": 0,
            "midi": 38,
            "name": "D2",
            "ticks": 90240,
            "time": 117.5,
            "velocity": 0.33070866141732286
          },
          {
            "duration": 0.25,
            "durationTicks": 192,
            "midi": 81,
            "name": "A5",
            "ticks": 90240,
            "time": 117.5,
            "velocity": 0.2125984251968504
          },
          {
            "duration": 0,
            "durationTicks": 0,
            "midi": 44,
            "name": "G#2",
            "ticks": 90240,
            "time": 117.5,
            "velocity": 0.2755905511811024
          },
          {
            "duration": 0.25,
            "durationTicks": 192,
            "midi": 36,
            "name": "C2",
            "ticks": 90240,
            "time": 117.5,
            "velocity": 0.31496062992125984
          },
          {
            "duration": 0.25,
            "durationTicks": 192,
            "midi": 81,
            "name": "A5",
            "ticks": 90240,
            "time": 117.5,
            "velocity": 0.2125984251968504
          },
          {
            "duration": 0,
            "durationTicks": 0,
            "midi": 60,
            "name": "C4",
            "ticks": 90336,
            "time": 117.625,
            "velocity": 0.28346456692913385
          },
          {
            "duration": 1.25,
            "durationTicks": 960,
            "midi": 50,
            "name": "D3",
            "ticks": 90432,
            "time": 117.75,
            "velocity": 0.1968503937007874
          },
          {
            "duration": 0,
            "durationTicks": 0,
            "midi": 61,
            "name": "C#4",
            "ticks": 90432,
            "time": 117.75,
            "velocity": 0.29133858267716534
          },
          {
            "duration": 0.5,
            "durationTicks": 384,
            "midi": 57,
            "name": "A3",
            "ticks": 90432,
            "time": 117.75,
            "velocity": 0.23622047244094488
          },
          {
            "duration": 0,
            "durationTicks": 0,
            "midi": 46,
            "name": "A#2",
            "ticks": 90432,
            "time": 117.75,
            "velocity": 0.2677165354330709
          },
          {
            "duration": 0.625,
            "durationTicks": 480,
            "midi": 38,
            "name": "D2",
            "ticks": 90432,
            "time": 117.75,
            "velocity": 0.2992125984251969
          },
          {
            "duration": 0.25,
            "durationTicks": 192,
            "midi": 84,
            "name": "C6",
            "ticks": 90432,
            "time": 117.75,
            "velocity": 0.2047244094488189
          },
          {
            "duration": 0.25,
            "durationTicks": 192,
            "midi": 84,
            "name": "C6",
            "ticks": 90432,
            "time": 117.75,
            "velocity": 0.2047244094488189
          },
          {
            "duration": 0.25,
            "durationTicks": 192,
            "midi": 60,
            "name": "C4",
            "ticks": 90432,
            "time": 117.75,
            "velocity": 0.2125984251968504
          },
          {
            "duration": 0.25,
            "durationTicks": 192,
            "midi": 66,
            "name": "F#4",
            "ticks": 90432,
            "time": 117.75,
            "velocity": 0.1732283464566929
          },
          {
            "duration": 0,
            "durationTicks": 0,
            "midi": 36,
            "name": "C2",
            "ticks": 90624,
            "time": 118,
            "velocity": 0.33070866141732286
          },
          {
            "duration": 0,
            "durationTicks": 0,
            "midi": 44,
            "name": "G#2",
            "ticks": 90624,
            "time": 118,
            "velocity": 0.2677165354330709
          },
          {
            "duration": 1.375,
            "durationTicks": 1056,
            "midi": 88,
            "name": "E6",
            "ticks": 90624,
            "time": 118,
            "velocity": 0.2204724409448819
          },
          {
            "duration": 0,
            "durationTicks": 0,
            "midi": 60,
            "name": "C4",
            "ticks": 90624,
            "time": 118,
            "velocity": 0.2440944881889764
          },
          {
            "duration": 0.25,
            "durationTicks": 192,
            "midi": 66,
            "name": "F#4",
            "ticks": 90624,
            "time": 118,
            "velocity": 0.2047244094488189
          },
          {
            "duration": 0,
            "durationTicks": 0,
            "midi": 54,
            "name": "F#3",
            "ticks": 90624,
            "time": 118,
            "velocity": 0.23622047244094488
          },
          {
            "duration": 0.25,
            "durationTicks": 192,
            "midi": 60,
            "name": "C4",
            "ticks": 90624,
            "time": 118,
            "velocity": 0.2440944881889764
          },
          {
            "duration": 1.375,
            "durationTicks": 1056,
            "midi": 88,
            "name": "E6",
            "ticks": 90624,
            "time": 118,
            "velocity": 0.2204724409448819
          },
          {
            "duration": 0,
            "durationTicks": 0,
            "midi": 44,
            "name": "G#2",
            "ticks": 91008,
            "time": 118.5,
            "velocity": 0.2677165354330709
          },
          {
            "duration": 0.25,
            "durationTicks": 192,
            "midi": 60,
            "name": "C4",
            "ticks": 91008,
            "time": 118.5,
            "velocity": 0.25196850393700787
          },
          {
            "duration": 0,
            "durationTicks": 0,
            "midi": 38,
            "name": "D2",
            "ticks": 91008,
            "time": 118.5,
            "velocity": 0.2992125984251969
          },
          {
            "duration": 0.25,
            "durationTicks": 192,
            "midi": 69,
            "name": "A4",
            "ticks": 91008,
            "time": 118.5,
            "velocity": 0.31496062992125984
          },
          {
            "duration": 0.25,
            "durationTicks": 192,
            "midi": 66,
            "name": "F#4",
            "ticks": 91008,
            "time": 118.5,
            "velocity": 0.1889763779527559
          },
          {
            "duration": 0,
            "durationTicks": 0,
            "midi": 54,
            "name": "F#3",
            "ticks": 91008,
            "time": 118.5,
            "velocity": 0.2283464566929134
          },
          {
            "duration": 0,
            "durationTicks": 0,
            "midi": 61,
            "name": "C#4",
            "ticks": 91008,
            "time": 118.5,
            "velocity": 0.28346456692913385
          },
          {
            "duration": 0.5,
            "durationTicks": 384,
            "midi": 54,
            "name": "F#3",
            "ticks": 91008,
            "time": 118.5,
            "velocity": 0.2283464566929134
          },
          {
            "duration": 0.25,
            "durationTicks": 192,
            "midi": 57,
            "name": "A3",
            "ticks": 91008,
            "time": 118.5,
            "velocity": 0.1889763779527559
          },
          {
            "duration": 0.375,
            "durationTicks": 288,
            "midi": 38,
            "name": "D2",
            "ticks": 91008,
            "time": 118.5,
            "velocity": 0.2992125984251969
          },
          {
            "duration": 0,
            "durationTicks": 0,
            "midi": 60,
            "name": "C4",
            "ticks": 91392,
            "time": 119,
            "velocity": 0.2440944881889764
          },
          {
            "duration": 0.25,
            "durationTicks": 192,
            "midi": 57,
            "name": "A3",
            "ticks": 91392,
            "time": 119,
            "velocity": 0.1968503937007874
          },
          {
            "duration": 0,
            "durationTicks": 0,
            "midi": 54,
            "name": "F#3",
            "ticks": 91392,
            "time": 119,
            "velocity": 0.2440944881889764
          },
          {
            "duration": 0.375,
            "durationTicks": 288,
            "midi": 64,
            "name": "E4",
            "ticks": 91392,
            "time": 119,
            "velocity": 0.33858267716535434
          },
          {
            "duration": 0.25,
            "durationTicks": 192,
            "midi": 66,
            "name": "F#4",
            "ticks": 91392,
            "time": 119,
            "velocity": 0.2047244094488189
          },
          {
            "duration": 0,
            "durationTicks": 0,
            "midi": 36,
            "name": "C2",
            "ticks": 91392,
            "time": 119,
            "velocity": 0.33858267716535434
          },
          {
            "duration": 0.25,
            "durationTicks": 192,
            "midi": 60,
            "name": "C4",
            "ticks": 91392,
            "time": 119,
            "velocity": 0.2440944881889764
          },
          {
            "duration": 0,
            "durationTicks": 0,
            "midi": 44,
            "name": "G#2",
            "ticks": 91392,
            "time": 119,
            "velocity": 0.25984251968503935
          },
          {
            "duration": 0.125,
            "durationTicks": 96,
            "midi": 50,
            "name": "D3",
            "ticks": 91392,
            "time": 119,
            "velocity": 0.30708661417322836
          },
          {
            "duration": 0.125,
            "durationTicks": 96,
            "midi": 50,
            "name": "D3",
            "ticks": 91392,
            "time": 119,
            "velocity": 0.30708661417322836
          },
          {
            "duration": 0.125,
            "durationTicks": 96,
            "midi": 51,
            "name": "D#3",
            "ticks": 91488,
            "time": 119.125,
            "velocity": 0.31496062992125984
          },
          {
            "duration": 0.125,
            "durationTicks": 96,
            "midi": 52,
            "name": "E3",
            "ticks": 91584,
            "time": 119.25,
            "velocity": 0.2992125984251969
          },
          {
            "duration": 0.125,
            "durationTicks": 96,
            "midi": 54,
            "name": "F#3",
            "ticks": 91584,
            "time": 119.25,
            "velocity": 0.25196850393700787
          },
          {
            "duration": 0.25,
            "durationTicks": 192,
            "midi": 60,
            "name": "C4",
            "ticks": 91584,
            "time": 119.25,
            "velocity": 0.25196850393700787
          },
          {
            "duration": 0.25,
            "durationTicks": 192,
            "midi": 66,
            "name": "F#4",
            "ticks": 91584,
            "time": 119.25,
            "velocity": 0.25984251968503935
          },
          {
            "duration": 0.125,
            "durationTicks": 96,
            "midi": 50,
            "name": "D3",
            "ticks": 91584,
            "time": 119.25,
            "velocity": 0.2677165354330709
          },
          {
            "duration": 0.25,
            "durationTicks": 192,
            "midi": 57,
            "name": "A3",
            "ticks": 91584,
            "time": 119.25,
            "velocity": 0.1889763779527559
          },
          {
            "duration": 0.125,
            "durationTicks": 96,
            "midi": 53,
            "name": "F3",
            "ticks": 91680,
            "time": 119.375,
            "velocity": 0.2992125984251969
          },
          {
            "duration": 0,
            "durationTicks": 0,
            "midi": 54,
            "name": "F#3",
            "ticks": 91776,
            "time": 119.5,
            "velocity": 0.31496062992125984
          },
          {
            "duration": 0,
            "durationTicks": 0,
            "midi": 61,
            "name": "C#4",
            "ticks": 91776,
            "time": 119.5,
            "velocity": 0.2755905511811024
          },
          {
            "duration": 0,
            "durationTicks": 0,
            "midi": 38,
            "name": "D2",
            "ticks": 91776,
            "time": 119.5,
            "velocity": 0.33858267716535434
          },
          {
            "duration": 0,
            "durationTicks": 0,
            "midi": 44,
            "name": "G#2",
            "ticks": 91776,
            "time": 119.5,
            "velocity": 0.25984251968503935
          },
          {
            "duration": 0.125,
            "durationTicks": 96,
            "midi": 88,
            "name": "E6",
            "ticks": 91776,
            "time": 119.5,
            "velocity": 0.2047244094488189
          },
          {
            "duration": 0.125,
            "durationTicks": 96,
            "midi": 88,
            "name": "E6",
            "ticks": 91776,
            "time": 119.5,
            "velocity": 0.2047244094488189
          },
          {
            "duration": 0.125,
            "durationTicks": 96,
            "midi": 54,
            "name": "F#3",
            "ticks": 91776,
            "time": 119.5,
            "velocity": 0.31496062992125984
          },
          {
            "duration": 0.125,
            "durationTicks": 96,
            "midi": 86,
            "name": "D6",
            "ticks": 91872,
            "time": 119.625,
            "velocity": 0.1968503937007874
          },
          {
            "duration": 0.125,
            "durationTicks": 96,
            "midi": 54,
            "name": "F#3",
            "ticks": 91872,
            "time": 119.625,
            "velocity": 0.2992125984251969
          },
          {
            "duration": 0.125,
            "durationTicks": 96,
            "midi": 86,
            "name": "D6",
            "ticks": 91872,
            "time": 119.625,
            "velocity": 0.1968503937007874
          },
          {
            "duration": 0.25,
            "durationTicks": 192,
            "midi": 50,
            "name": "D3",
            "ticks": 91968,
            "time": 119.75,
            "velocity": 0.2992125984251969
          },
          {
            "duration": 0.125,
            "durationTicks": 96,
            "midi": 84,
            "name": "C6",
            "ticks": 91968,
            "time": 119.75,
            "velocity": 0.2047244094488189
          },
          {
            "duration": 1.375,
            "durationTicks": 1056,
            "midi": 53,
            "name": "F3",
            "ticks": 91968,
            "time": 119.75,
            "velocity": 0.2677165354330709
          },
          {
            "duration": 0.125,
            "durationTicks": 96,
            "midi": 84,
            "name": "C6",
            "ticks": 91968,
            "time": 119.75,
            "velocity": 0.2047244094488189
          },
          {
            "duration": 0,
            "durationTicks": 0,
            "midi": 46,
            "name": "A#2",
            "ticks": 91968,
            "time": 119.75,
            "velocity": 0.2755905511811024
          },
          {
            "duration": 0.125,
            "durationTicks": 96,
            "midi": 81,
            "name": "A5",
            "ticks": 92064,
            "time": 119.875,
            "velocity": 0.1968503937007874
          },
          {
            "duration": 0.125,
            "durationTicks": 96,
            "midi": 81,
            "name": "A5",
            "ticks": 92064,
            "time": 119.875,
            "velocity": 0.1968503937007874
          },
          {
            "duration": 1.25,
            "durationTicks": 960,
            "midi": 84,
            "name": "C6",
            "ticks": 92160,
            "time": 120,
            "velocity": 0.2047244094488189
          },
          {
            "duration": 0,
            "durationTicks": 0,
            "midi": 60,
            "name": "C4",
            "ticks": 92160,
            "time": 120,
            "velocity": 0.2677165354330709
          },
          {
            "duration": 1,
            "durationTicks": 768,
            "midi": 65,
            "name": "F4",
            "ticks": 92160,
            "time": 120,
            "velocity": 0.2125984251968504
          },
          {
            "duration": 1,
            "durationTicks": 768,
            "midi": 57,
            "name": "A3",
            "ticks": 92160,
            "time": 120,
            "velocity": 0.25984251968503935
          },
          {
            "duration": 1.125,
            "durationTicks": 864,
            "midi": 57,
            "name": "A3",
            "ticks": 92160,
            "time": 120,
            "velocity": 0.25984251968503935
          },
          {
            "duration": 0,
            "durationTicks": 0,
            "midi": 44,
            "name": "G#2",
            "ticks": 92160,
            "time": 120,
            "velocity": 0.2677165354330709
          },
          {
            "duration": 0,
            "durationTicks": 0,
            "midi": 54,
            "name": "F#3",
            "ticks": 92160,
            "time": 120,
            "velocity": 0.2440944881889764
          },
          {
            "duration": 1,
            "durationTicks": 768,
            "midi": 60,
            "name": "C4",
            "ticks": 92160,
            "time": 120,
            "velocity": 0.2677165354330709
          },
          {
            "duration": 0,
            "durationTicks": 0,
            "midi": 36,
            "name": "C2",
            "ticks": 92160,
            "time": 120,
            "velocity": 0.33070866141732286
          },
          {
            "duration": 0.375,
            "durationTicks": 288,
            "midi": 38,
            "name": "D2",
            "ticks": 92160,
            "time": 120,
            "velocity": 0.30708661417322836
          },
          {
            "duration": 1.25,
            "durationTicks": 960,
            "midi": 84,
            "name": "C6",
            "ticks": 92160,
            "time": 120,
            "velocity": 0.2047244094488189
          },
          {
            "duration": 1.125,
            "durationTicks": 864,
            "midi": 50,
            "name": "D3",
            "ticks": 92160,
            "time": 120,
            "velocity": 0.1968503937007874
          },
          {
            "duration": 0,
            "durationTicks": 0,
            "midi": 61,
            "name": "C#4",
            "ticks": 92544,
            "time": 120.5,
            "velocity": 0.2755905511811024
          },
          {
            "duration": 0,
            "durationTicks": 0,
            "midi": 38,
            "name": "D2",
            "ticks": 92544,
            "time": 120.5,
            "velocity": 0.31496062992125984
          },
          {
            "duration": 0,
            "durationTicks": 0,
            "midi": 54,
            "name": "F#3",
            "ticks": 92544,
            "time": 120.5,
            "velocity": 0.2283464566929134
          },
          {
            "duration": 0,
            "durationTicks": 0,
            "midi": 44,
            "name": "G#2",
            "ticks": 92544,
            "time": 120.5,
            "velocity": 0.25984251968503935
          },
          {
            "duration": 0.375,
            "durationTicks": 288,
            "midi": 38,
            "name": "D2",
            "ticks": 92544,
            "time": 120.5,
            "velocity": 0.31496062992125984
          },
          {
            "duration": 0.125,
            "durationTicks": 96,
            "midi": 64,
            "name": "E4",
            "ticks": 92544,
            "time": 120.5,
            "velocity": 0.3228346456692913
          },
          {
            "duration": 0.125,
            "durationTicks": 96,
            "midi": 64,
            "name": "E4",
            "ticks": 92736,
            "time": 120.75,
            "velocity": 0.33070866141732286
          },
          {
            "duration": 0.125,
            "durationTicks": 96,
            "midi": 69,
            "name": "A4",
            "ticks": 92928,
            "time": 121,
            "velocity": 0.33858267716535434
          },
          {
            "duration": 0.125,
            "durationTicks": 96,
            "midi": 38,
            "name": "D2",
            "ticks": 92928,
            "time": 121,
            "velocity": 0.2992125984251969
          },
          {
            "duration": 0,
            "durationTicks": 0,
            "midi": 36,
            "name": "C2",
            "ticks": 92928,
            "time": 121,
            "velocity": 0.33858267716535434
          },
          {
            "duration": 0,
            "durationTicks": 0,
            "midi": 60,
            "name": "C4",
            "ticks": 92928,
            "time": 121,
            "velocity": 0.28346456692913385
          },
          {
            "duration": 0,
            "durationTicks": 0,
            "midi": 54,
            "name": "F#3",
            "ticks": 92928,
            "time": 121,
            "velocity": 0.23622047244094488
          },
          {
            "duration": 0,
            "durationTicks": 0,
            "midi": 44,
            "name": "G#2",
            "ticks": 92928,
            "time": 121,
            "velocity": 0.25984251968503935
          },
          {
            "duration": 0.25,
            "durationTicks": 192,
            "midi": 38,
            "name": "D2",
            "ticks": 93120,
            "time": 121.25,
            "velocity": 0.30708661417322836
          },
          {
            "duration": 0.25,
            "durationTicks": 192,
            "midi": 65,
            "name": "F4",
            "ticks": 93120,
            "time": 121.25,
            "velocity": 0.2204724409448819
          },
          {
            "duration": 0.25,
            "durationTicks": 192,
            "midi": 84,
            "name": "C6",
            "ticks": 93120,
            "time": 121.25,
            "velocity": 0.2047244094488189
          },
          {
            "duration": 0.25,
            "durationTicks": 192,
            "midi": 60,
            "name": "C4",
            "ticks": 93120,
            "time": 121.25,
            "velocity": 0.2204724409448819
          },
          {
            "duration": 0.125,
            "durationTicks": 96,
            "midi": 57,
            "name": "A3",
            "ticks": 93120,
            "time": 121.25,
            "velocity": 0.2283464566929134
          },
          {
            "duration": 0.125,
            "durationTicks": 96,
            "midi": 53,
            "name": "F3",
            "ticks": 93120,
            "time": 121.25,
            "velocity": 0.2755905511811024
          },
          {
            "duration": 0.25,
            "durationTicks": 192,
            "midi": 84,
            "name": "C6",
            "ticks": 93120,
            "time": 121.25,
            "velocity": 0.2047244094488189
          },
          {
            "duration": 0.25,
            "durationTicks": 192,
            "midi": 57,
            "name": "A3",
            "ticks": 93120,
            "time": 121.25,
            "velocity": 0.2283464566929134
          },
          {
            "duration": 0.25,
            "durationTicks": 192,
            "midi": 64,
            "name": "E4",
            "ticks": 93312,
            "time": 121.5,
            "velocity": 0.31496062992125984
          },
          {
            "duration": 0.25,
            "durationTicks": 192,
            "midi": 41,
            "name": "F2",
            "ticks": 93312,
            "time": 121.5,
            "velocity": 0.2992125984251969
          },
          {
            "duration": 0,
            "durationTicks": 0,
            "midi": 54,
            "name": "F#3",
            "ticks": 93312,
            "time": 121.5,
            "velocity": 0.23622047244094488
          },
          {
            "duration": 0,
            "durationTicks": 0,
            "midi": 44,
            "name": "G#2",
            "ticks": 93312,
            "time": 121.5,
            "velocity": 0.25984251968503935
          },
          {
            "duration": 0,
            "durationTicks": 0,
            "midi": 61,
            "name": "C#4",
            "ticks": 93312,
            "time": 121.5,
            "velocity": 0.29133858267716534
          },
          {
            "duration": 0,
            "durationTicks": 0,
            "midi": 38,
            "name": "D2",
            "ticks": 93312,
            "time": 121.5,
            "velocity": 0.33858267716535434
          },
          {
            "duration": 0.25,
            "durationTicks": 192,
            "midi": 81,
            "name": "A5",
            "ticks": 93312,
            "time": 121.5,
            "velocity": 0.1968503937007874
          },
          {
            "duration": 0.25,
            "durationTicks": 192,
            "midi": 81,
            "name": "A5",
            "ticks": 93312,
            "time": 121.5,
            "velocity": 0.1968503937007874
          },
          {
            "duration": 0,
            "durationTicks": 0,
            "midi": 60,
            "name": "C4",
            "ticks": 93408,
            "time": 121.625,
            "velocity": 0.2755905511811024
          },
          {
            "duration": 0.25,
            "durationTicks": 192,
            "midi": 67,
            "name": "G4",
            "ticks": 93504,
            "time": 121.75,
            "velocity": 0.14173228346456693
          },
          {
            "duration": 0,
            "durationTicks": 0,
            "midi": 61,
            "name": "C#4",
            "ticks": 93504,
            "time": 121.75,
            "velocity": 0.2755905511811024
          },
          {
            "duration": 0,
            "durationTicks": 0,
            "midi": 46,
            "name": "A#2",
            "ticks": 93504,
            "time": 121.75,
            "velocity": 0.2677165354330709
          },
          {
            "duration": 0.25,
            "durationTicks": 192,
            "midi": 84,
            "name": "C6",
            "ticks": 93504,
            "time": 121.75,
            "velocity": 0.2125984251968504
          },
          {
            "duration": 0.25,
            "durationTicks": 192,
            "midi": 42,
            "name": "F#2",
            "ticks": 93504,
            "time": 121.75,
            "velocity": 0.2992125984251969
          },
          {
            "duration": 0.25,
            "durationTicks": 192,
            "midi": 59,
            "name": "B3",
            "ticks": 93504,
            "time": 121.75,
            "velocity": 0.2047244094488189
          },
          {
            "duration": 0.25,
            "durationTicks": 192,
            "midi": 62,
            "name": "D4",
            "ticks": 93504,
            "time": 121.75,
            "velocity": 0.25196850393700787
          },
          {
            "duration": 0.25,
            "durationTicks": 192,
            "midi": 84,
            "name": "C6",
            "ticks": 93504,
            "time": 121.75,
            "velocity": 0.2125984251968504
          },
          {
            "duration": 0.375,
            "durationTicks": 288,
            "midi": 43,
            "name": "G2",
            "ticks": 93696,
            "time": 122,
            "velocity": 0.31496062992125984
          },
          {
            "duration": 0.25,
            "durationTicks": 192,
            "midi": 52,
            "name": "E3",
            "ticks": 93696,
            "time": 122,
            "velocity": 0.2677165354330709
          },
          {
            "duration": 0.5,
            "durationTicks": 384,
            "midi": 88,
            "name": "E6",
            "ticks": 93696,
            "time": 122,
            "velocity": 0.2047244094488189
          },
          {
            "duration": 0.25,
            "durationTicks": 192,
            "midi": 55,
            "name": "G3",
            "ticks": 93696,
            "time": 122,
            "velocity": 0.25984251968503935
          },
          {
            "duration": 0,
            "durationTicks": 0,
            "midi": 54,
            "name": "F#3",
            "ticks": 93696,
            "time": 122,
            "velocity": 0.2440944881889764
          },
          {
            "duration": 0.5,
            "durationTicks": 384,
            "midi": 88,
            "name": "E6",
            "ticks": 93696,
            "time": 122,
            "velocity": 0.2047244094488189
          },
          {
            "duration": 0,
            "durationTicks": 0,
            "midi": 60,
            "name": "C4",
            "ticks": 93696,
            "time": 122,
            "velocity": 0.28346456692913385
          },
          {
            "duration": 0,
            "durationTicks": 0,
            "midi": 36,
            "name": "C2",
            "ticks": 93696,
            "time": 122,
            "velocity": 0.33858267716535434
          },
          {
            "duration": 0,
            "durationTicks": 0,
            "midi": 44,
            "name": "G#2",
            "ticks": 93696,
            "time": 122,
            "velocity": 0.2677165354330709
          },
          {
            "duration": 0,
            "durationTicks": 0,
            "midi": 38,
            "name": "D2",
            "ticks": 94072,
            "time": 122.48958333333333,
            "velocity": 0.33858267716535434
          },
          {
            "duration": 0,
            "durationTicks": 0,
            "midi": 44,
            "name": "G#2",
            "ticks": 94080,
            "time": 122.5,
            "velocity": 0.25984251968503935
          },
          {
            "duration": 0,
            "durationTicks": 0,
            "midi": 61,
            "name": "C#4",
            "ticks": 94080,
            "time": 122.5,
            "velocity": 0.2755905511811024
          },
          {
            "duration": 0.125,
            "durationTicks": 96,
            "midi": 62,
            "name": "D4",
            "ticks": 94080,
            "time": 122.5,
            "velocity": 0.2992125984251969
          },
          {
            "duration": 0,
            "durationTicks": 0,
            "midi": 54,
            "name": "F#3",
            "ticks": 94080,
            "time": 122.5,
            "velocity": 0.23622047244094488
          },
          {
            "duration": 0.125,
            "durationTicks": 96,
            "midi": 59,
            "name": "B3",
            "ticks": 94080,
            "time": 122.5,
            "velocity": 0.1968503937007874
          },
          {
            "duration": 0.25,
            "durationTicks": 192,
            "midi": 69,
            "name": "A4",
            "ticks": 94080,
            "time": 122.5,
            "velocity": 0.3228346456692913
          },
          {
            "duration": 0.375,
            "durationTicks": 288,
            "midi": 43,
            "name": "G2",
            "ticks": 94080,
            "time": 122.5,
            "velocity": 0.30708661417322836
          },
          {
            "duration": 0.5,
            "durationTicks": 384,
            "midi": 86,
            "name": "D6",
            "ticks": 94080,
            "time": 122.5,
            "velocity": 0.1968503937007874
          },
          {
            "duration": 0.125,
            "durationTicks": 96,
            "midi": 67,
            "name": "G4",
            "ticks": 94080,
            "time": 122.5,
            "velocity": 0.18110236220472442
          },
          {
            "duration": 0.5,
            "durationTicks": 384,
            "midi": 86,
            "name": "D6",
            "ticks": 94080,
            "time": 122.5,
            "velocity": 0.1968503937007874
          },
          {
            "duration": 0.375,
            "durationTicks": 288,
            "midi": 55,
            "name": "G3",
            "ticks": 94272,
            "time": 122.75,
            "velocity": 0.2677165354330709
          },
          {
            "duration": 0.375,
            "durationTicks": 288,
            "midi": 50,
            "name": "D3",
            "ticks": 94272,
            "time": 122.75,
            "velocity": 0.2755905511811024
          },
          {
            "duration": 0.25,
            "durationTicks": 192,
            "midi": 59,
            "name": "B3",
            "ticks": 94464,
            "time": 123,
            "velocity": 0.1889763779527559
          },
          {
            "duration": 0.25,
            "durationTicks": 192,
            "midi": 62,
            "name": "D4",
            "ticks": 94464,
            "time": 123,
            "velocity": 0.29133858267716534
          },
          {
            "duration": 0.25,
            "durationTicks": 192,
            "midi": 67,
            "name": "G4",
            "ticks": 94464,
            "time": 123,
            "velocity": 0.2283464566929134
          },
          {
            "duration": 0.5,
            "durationTicks": 384,
            "midi": 88,
            "name": "E6",
            "ticks": 94464,
            "time": 123,
            "velocity": 0.2047244094488189
          },
          {
            "duration": 0,
            "durationTicks": 0,
            "midi": 36,
            "name": "C2",
            "ticks": 94464,
            "time": 123,
            "velocity": 0.33070866141732286
          },
          {
            "duration": 0.125,
            "durationTicks": 96,
            "midi": 43,
            "name": "G2",
            "ticks": 94464,
            "time": 123,
            "velocity": 0.2992125984251969
          },
          {
            "duration": 0.5,
            "durationTicks": 384,
            "midi": 88,
            "name": "E6",
            "ticks": 94464,
            "time": 123,
            "velocity": 0.2047244094488189
          },
          {
            "duration": 0.375,
            "durationTicks": 288,
            "midi": 64,
            "name": "E4",
            "ticks": 94464,
            "time": 123,
            "velocity": 0.3228346456692913
          },
          {
            "duration": 0,
            "durationTicks": 0,
            "midi": 54,
            "name": "F#3",
            "ticks": 94464,
            "time": 123,
            "velocity": 0.23622047244094488
          },
          {
            "duration": 0,
            "durationTicks": 0,
            "midi": 60,
            "name": "C4",
            "ticks": 94464,
            "time": 123,
            "velocity": 0.28346456692913385
          },
          {
            "duration": 0,
            "durationTicks": 0,
            "midi": 44,
            "name": "G#2",
            "ticks": 94464,
            "time": 123,
            "velocity": 0.2677165354330709
          },
          {
            "duration": 0,
            "durationTicks": 0,
            "midi": 38,
            "name": "D2",
            "ticks": 94652,
            "time": 123.24479166666667,
            "velocity": 0.33858267716535434
          },
          {
            "duration": 0.125,
            "durationTicks": 96,
            "midi": 55,
            "name": "G3",
            "ticks": 94656,
            "time": 123.25,
            "velocity": 0.2677165354330709
          },
          {
            "duration": 0.125,
            "durationTicks": 96,
            "midi": 59,
            "name": "B3",
            "ticks": 94656,
            "time": 123.25,
            "velocity": 0.2125984251968504
          },
          {
            "duration": 0.25,
            "durationTicks": 192,
            "midi": 43,
            "name": "G2",
            "ticks": 94656,
            "time": 123.25,
            "velocity": 0.2992125984251969
          },
          {
            "duration": 0.125,
            "durationTicks": 96,
            "midi": 67,
            "name": "G4",
            "ticks": 94656,
            "time": 123.25,
            "velocity": 0.2440944881889764
          },
          {
            "duration": 0.75,
            "durationTicks": 576,
            "midi": 55,
            "name": "G3",
            "ticks": 94656,
            "time": 123.25,
            "velocity": 0.2677165354330709
          },
          {
            "duration": 0.125,
            "durationTicks": 96,
            "midi": 62,
            "name": "D4",
            "ticks": 94656,
            "time": 123.25,
            "velocity": 0.2125984251968504
          },
          {
            "duration": 0.75,
            "durationTicks": 576,
            "midi": 50,
            "name": "D3",
            "ticks": 94656,
            "time": 123.25,
            "velocity": 0.2755905511811024
          },
          {
            "duration": 0,
            "durationTicks": 0,
            "midi": 38,
            "name": "D2",
            "ticks": 94752,
            "time": 123.375,
            "velocity": 0.33858267716535434
          },
          {
            "duration": 0,
            "durationTicks": 0,
            "midi": 44,
            "name": "G#2",
            "ticks": 94848,
            "time": 123.5,
            "velocity": 0.2677165354330709
          },
          {
            "duration": 0.5,
            "durationTicks": 384,
            "midi": 86,
            "name": "D6",
            "ticks": 94848,
            "time": 123.5,
            "velocity": 0.2125984251968504
          },
          {
            "duration": 0.5,
            "durationTicks": 384,
            "midi": 86,
            "name": "D6",
            "ticks": 94848,
            "time": 123.5,
            "velocity": 0.2125984251968504
          },
          {
            "duration": 0,
            "durationTicks": 0,
            "midi": 54,
            "name": "F#3",
            "ticks": 94848,
            "time": 123.5,
            "velocity": 0.23622047244094488
          },
          {
            "duration": 0,
            "durationTicks": 0,
            "midi": 61,
            "name": "C#4",
            "ticks": 94848,
            "time": 123.5,
            "velocity": 0.2755905511811024
          },
          {
            "duration": 0.25,
            "durationTicks": 192,
            "midi": 41,
            "name": "F2",
            "ticks": 94848,
            "time": 123.5,
            "velocity": 0.2992125984251969
          },
          {
            "duration": 0,
            "durationTicks": 0,
            "midi": 38,
            "name": "D2",
            "ticks": 94852,
            "time": 123.50520833333333,
            "velocity": 0.33858267716535434
          },
          {
            "duration": 0,
            "durationTicks": 0,
            "midi": 38,
            "name": "D2",
            "ticks": 94944,
            "time": 123.625,
            "velocity": 0.33858267716535434
          },
          {
            "duration": 0,
            "durationTicks": 0,
            "midi": 46,
            "name": "A#2",
            "ticks": 95040,
            "time": 123.75,
            "velocity": 0.2755905511811024
          },
          {
            "duration": 0,
            "durationTicks": 0,
            "midi": 38,
            "name": "D2",
            "ticks": 95040,
            "time": 123.75,
            "velocity": 0.33858267716535434
          },
          {
            "duration": 0.25,
            "durationTicks": 192,
            "midi": 40,
            "name": "E2",
            "ticks": 95040,
            "time": 123.75,
            "velocity": 0.31496062992125984
          },
          {
            "duration": 0,
            "durationTicks": 0,
            "midi": 38,
            "name": "D2",
            "ticks": 95136,
            "time": 123.875,
            "velocity": 0.33070866141732286
          },
          {
            "duration": 0,
            "durationTicks": 0,
            "midi": 60,
            "name": "C4",
            "ticks": 95232,
            "time": 124,
            "velocity": 0.29133858267716534
          },
          {
            "duration": 0.375,
            "durationTicks": 288,
            "midi": 75,
            "name": "D#5",
            "ticks": 95232,
            "time": 124,
            "velocity": 0.2047244094488189
          },
          {
            "duration": 0.375,
            "durationTicks": 288,
            "midi": 75,
            "name": "D#5",
            "ticks": 95232,
            "time": 124,
            "velocity": 0.2047244094488189
          },
          {
            "duration": 0,
            "durationTicks": 0,
            "midi": 54,
            "name": "F#3",
            "ticks": 95232,
            "time": 124,
            "velocity": 0.2283464566929134
          },
          {
            "duration": 0.5,
            "durationTicks": 384,
            "midi": 67,
            "name": "G4",
            "ticks": 95232,
            "time": 124,
            "velocity": 0.3228346456692913
          },
          {
            "duration": 0.375,
            "durationTicks": 288,
            "midi": 51,
            "name": "D#3",
            "ticks": 95232,
            "time": 124,
            "velocity": 0.25984251968503935
          },
          {
            "duration": 0,
            "durationTicks": 0,
            "midi": 44,
            "name": "G#2",
            "ticks": 95232,
            "time": 124,
            "velocity": 0.2677165354330709
          },
          {
            "duration": 0.5,
            "durationTicks": 384,
            "midi": 70,
            "name": "A#4",
            "ticks": 95232,
            "time": 124,
            "velocity": 0.25196850393700787
          },
          {
            "duration": 0.375,
            "durationTicks": 288,
            "midi": 39,
            "name": "D#2",
            "ticks": 95232,
            "time": 124,
            "velocity": 0.30708661417322836
          },
          {
            "duration": 0.125,
            "durationTicks": 96,
            "midi": 63,
            "name": "D#4",
            "ticks": 95232,
            "time": 124,
            "velocity": 0.3228346456692913
          },
          {
            "duration": 0,
            "durationTicks": 0,
            "midi": 36,
            "name": "C2",
            "ticks": 95232,
            "time": 124,
            "velocity": 0.33858267716535434
          },
          {
            "duration": 0.5,
            "durationTicks": 384,
            "midi": 63,
            "name": "D#4",
            "ticks": 95232,
            "time": 124,
            "velocity": 0.3228346456692913
          },
          {
            "duration": 0.375,
            "durationTicks": 288,
            "midi": 55,
            "name": "G3",
            "ticks": 95232,
            "time": 124,
            "velocity": 0.2755905511811024
          },
          {
            "duration": 0,
            "durationTicks": 0,
            "midi": 44,
            "name": "G#2",
            "ticks": 95616,
            "time": 124.5,
            "velocity": 0.2677165354330709
          },
          {
            "duration": 0.125,
            "durationTicks": 96,
            "midi": 75,
            "name": "D#5",
            "ticks": 95616,
            "time": 124.5,
            "velocity": 0.2125984251968504
          },
          {
            "duration": 0.125,
            "durationTicks": 96,
            "midi": 70,
            "name": "A#4",
            "ticks": 95616,
            "time": 124.5,
            "velocity": 0.2204724409448819
          },
          {
            "duration": 0.125,
            "durationTicks": 96,
            "midi": 67,
            "name": "G4",
            "ticks": 95616,
            "time": 124.5,
            "velocity": 0.2204724409448819
          },
          {
            "duration": 0.125,
            "durationTicks": 96,
            "midi": 75,
            "name": "D#5",
            "ticks": 95616,
            "time": 124.5,
            "velocity": 0.2125984251968504
          },
          {
            "duration": 0,
            "durationTicks": 0,
            "midi": 38,
            "name": "D2",
            "ticks": 95616,
            "time": 124.5,
            "velocity": 0.33858267716535434
          },
          {
            "duration": 0.125,
            "durationTicks": 96,
            "midi": 51,
            "name": "D#3",
            "ticks": 95616,
            "time": 124.5,
            "velocity": 0.2677165354330709
          },
          {
            "duration": 0,
            "durationTicks": 0,
            "midi": 54,
            "name": "F#3",
            "ticks": 95616,
            "time": 124.5,
            "velocity": 0.2204724409448819
          },
          {
            "duration": 0.125,
            "durationTicks": 96,
            "midi": 55,
            "name": "G3",
            "ticks": 95616,
            "time": 124.5,
            "velocity": 0.2677165354330709
          },
          {
            "duration": 0,
            "durationTicks": 0,
            "midi": 61,
            "name": "C#4",
            "ticks": 95616,
            "time": 124.5,
            "velocity": 0.28346456692913385
          },
          {
            "duration": 0.375,
            "durationTicks": 288,
            "midi": 39,
            "name": "D#2",
            "ticks": 95616,
            "time": 124.5,
            "velocity": 0.31496062992125984
          },
          {
            "duration": 0.125,
            "durationTicks": 96,
            "midi": 67,
            "name": "G4",
            "ticks": 95808,
            "time": 124.75,
            "velocity": 0.23622047244094488
          },
          {
            "duration": 0.125,
            "durationTicks": 96,
            "midi": 55,
            "name": "G3",
            "ticks": 95808,
            "time": 124.75,
            "velocity": 0.2677165354330709
          },
          {
            "duration": 0.125,
            "durationTicks": 96,
            "midi": 51,
            "name": "D#3",
            "ticks": 95808,
            "time": 124.75,
            "velocity": 0.25984251968503935
          },
          {
            "duration": 0.25,
            "durationTicks": 192,
            "midi": 75,
            "name": "D#5",
            "ticks": 95808,
            "time": 124.75,
            "velocity": 0.1968503937007874
          },
          {
            "duration": 0.125,
            "durationTicks": 96,
            "midi": 70,
            "name": "A#4",
            "ticks": 95808,
            "time": 124.75,
            "velocity": 0.2440944881889764
          },
          {
            "duration": 0.125,
            "durationTicks": 96,
            "midi": 63,
            "name": "D#4",
            "ticks": 95808,
            "time": 124.75,
            "velocity": 0.25984251968503935
          },
          {
            "duration": 0.125,
            "durationTicks": 96,
            "midi": 67,
            "name": "G4",
            "ticks": 95808,
            "time": 124.75,
            "velocity": 0.23622047244094488
          },
          {
            "duration": 0.25,
            "durationTicks": 192,
            "midi": 75,
            "name": "D#5",
            "ticks": 95808,
            "time": 124.75,
            "velocity": 0.1968503937007874
          },
          {
            "duration": 0.125,
            "durationTicks": 96,
            "midi": 63,
            "name": "D#4",
            "ticks": 95808,
            "time": 124.75,
            "velocity": 0.25984251968503935
          },
          {
            "duration": 0.375,
            "durationTicks": 288,
            "midi": 51,
            "name": "D#3",
            "ticks": 96000,
            "time": 125,
            "velocity": 0.25984251968503935
          },
          {
            "duration": 0.125,
            "durationTicks": 96,
            "midi": 39,
            "name": "D#2",
            "ticks": 96000,
            "time": 125,
            "velocity": 0.31496062992125984
          },
          {
            "duration": 0,
            "durationTicks": 0,
            "midi": 44,
            "name": "G#2",
            "ticks": 96000,
            "time": 125,
            "velocity": 0.2677165354330709
          },
          {
            "duration": 0,
            "durationTicks": 0,
            "midi": 60,
            "name": "C4",
            "ticks": 96000,
            "time": 125,
            "velocity": 0.2755905511811024
          },
          {
            "duration": 0.375,
            "durationTicks": 288,
            "midi": 55,
            "name": "G3",
            "ticks": 96000,
            "time": 125,
            "velocity": 0.25196850393700787
          },
          {
            "duration": 0,
            "durationTicks": 0,
            "midi": 36,
            "name": "C2",
            "ticks": 96000,
            "time": 125,
            "velocity": 0.33070866141732286
          },
          {
            "duration": 1,
            "durationTicks": 768,
            "midi": 62,
            "name": "D4",
            "ticks": 96000,
            "time": 125,
            "velocity": 0.33070866141732286
          },
          {
            "duration": 0,
            "durationTicks": 0,
            "midi": 54,
            "name": "F#3",
            "ticks": 96000,
            "time": 125,
            "velocity": 0.23622047244094488
          },
          {
            "duration": 0.125,
            "durationTicks": 96,
            "midi": 63,
            "name": "D#4",
            "ticks": 96000,
            "time": 125,
            "velocity": 0.2204724409448819
          },
          {
            "duration": 0.375,
            "durationTicks": 288,
            "midi": 74,
            "name": "D5",
            "ticks": 96000,
            "time": 125,
            "velocity": 0.1889763779527559
          },
          {
            "duration": 0.375,
            "durationTicks": 288,
            "midi": 74,
            "name": "D5",
            "ticks": 96000,
            "time": 125,
            "velocity": 0.1889763779527559
          },
          {
            "duration": 0.125,
            "durationTicks": 96,
            "midi": 39,
            "name": "D#2",
            "ticks": 96192,
            "time": 125.25,
            "velocity": 0.2992125984251969
          },
          {
            "duration": 0,
            "durationTicks": 0,
            "midi": 54,
            "name": "F#3",
            "ticks": 96384,
            "time": 125.5,
            "velocity": 0.23622047244094488
          },
          {
            "duration": 0,
            "durationTicks": 0,
            "midi": 61,
            "name": "C#4",
            "ticks": 96384,
            "time": 125.5,
            "velocity": 0.28346456692913385
          },
          {
            "duration": 0.125,
            "durationTicks": 96,
            "midi": 70,
            "name": "A#4",
            "ticks": 96384,
            "time": 125.5,
            "velocity": 0.2204724409448819
          },
          {
            "duration": 0,
            "durationTicks": 0,
            "midi": 44,
            "name": "G#2",
            "ticks": 96384,
            "time": 125.5,
            "velocity": 0.2677165354330709
          },
          {
            "duration": 0.375,
            "durationTicks": 288,
            "midi": 55,
            "name": "G3",
            "ticks": 96384,
            "time": 125.5,
            "velocity": 0.25984251968503935
          },
          {
            "duration": 0.125,
            "durationTicks": 96,
            "midi": 74,
            "name": "D5",
            "ticks": 96384,
            "time": 125.5,
            "velocity": 0.2047244094488189
          },
          {
            "duration": 0.125,
            "durationTicks": 96,
            "midi": 67,
            "name": "G4",
            "ticks": 96384,
            "time": 125.5,
            "velocity": 0.2204724409448819
          },
          {
            "duration": 0.125,
            "durationTicks": 96,
            "midi": 74,
            "name": "D5",
            "ticks": 96384,
            "time": 125.5,
            "velocity": 0.2047244094488189
          },
          {
            "duration": 0.375,
            "durationTicks": 288,
            "midi": 51,
            "name": "D#3",
            "ticks": 96384,
            "time": 125.5,
            "velocity": 0.2677165354330709
          },
          {
            "duration": 0,
            "durationTicks": 0,
            "midi": 38,
            "name": "D2",
            "ticks": 96384,
            "time": 125.5,
            "velocity": 0.33858267716535434
          },
          {
            "duration": 0,
            "durationTicks": 0,
            "midi": 60,
            "name": "C4",
            "ticks": 96480,
            "time": 125.625,
            "velocity": 0.2755905511811024
          },
          {
            "duration": 0.25,
            "durationTicks": 192,
            "midi": 74,
            "name": "D5",
            "ticks": 96576,
            "time": 125.75,
            "velocity": 0.2047244094488189
          },
          {
            "duration": 0.25,
            "durationTicks": 192,
            "midi": 74,
            "name": "D5",
            "ticks": 96576,
            "time": 125.75,
            "velocity": 0.2047244094488189
          },
          {
            "duration": 0.125,
            "durationTicks": 96,
            "midi": 39,
            "name": "D#2",
            "ticks": 96576,
            "time": 125.75,
            "velocity": 0.2992125984251969
          },
          {
            "duration": 0,
            "durationTicks": 0,
            "midi": 46,
            "name": "A#2",
            "ticks": 96576,
            "time": 125.75,
            "velocity": 0.2677165354330709
          },
          {
            "duration": 0,
            "durationTicks": 0,
            "midi": 61,
            "name": "C#4",
            "ticks": 96576,
            "time": 125.75,
            "velocity": 0.28346456692913385
          },
          {
            "duration": 0.375,
            "durationTicks": 288,
            "midi": 72,
            "name": "C5",
            "ticks": 96768,
            "time": 126,
            "velocity": 0.1968503937007874
          },
          {
            "duration": 0.375,
            "durationTicks": 288,
            "midi": 72,
            "name": "C5",
            "ticks": 96768,
            "time": 126,
            "velocity": 0.1968503937007874
          },
          {
            "duration": 0.125,
            "durationTicks": 96,
            "midi": 51,
            "name": "D#3",
            "ticks": 96768,
            "time": 126,
            "velocity": 0.25196850393700787
          },
          {
            "duration": 0,
            "durationTicks": 0,
            "midi": 60,
            "name": "C4",
            "ticks": 96768,
            "time": 126,
            "velocity": 0.3228346456692913
          },
          {
            "duration": 0.375,
            "durationTicks": 288,
            "midi": 39,
            "name": "D#2",
            "ticks": 96768,
            "time": 126,
            "velocity": 0.31496062992125984
          },
          {
            "duration": 0,
            "durationTicks": 0,
            "midi": 54,
            "name": "F#3",
            "ticks": 96768,
            "time": 126,
            "velocity": 0.2440944881889764
          },
          {
            "duration": 1,
            "durationTicks": 768,
            "midi": 60,
            "name": "C4",
            "ticks": 96768,
            "time": 126,
            "velocity": 0.3228346456692913
          },
          {
            "duration": 0.125,
            "durationTicks": 96,
            "midi": 55,
            "name": "G3",
            "ticks": 96768,
            "time": 126,
            "velocity": 0.25984251968503935
          },
          {
            "duration": 0,
            "durationTicks": 0,
            "midi": 36,
            "name": "C2",
            "ticks": 96768,
            "time": 126,
            "velocity": 0.33070866141732286
          },
          {
            "duration": 0,
            "durationTicks": 0,
            "midi": 44,
            "name": "G#2",
            "ticks": 96768,
            "time": 126,
            "velocity": 0.2677165354330709
          },
          {
            "duration": 0.125,
            "durationTicks": 96,
            "midi": 63,
            "name": "D#4",
            "ticks": 96768,
            "time": 126,
            "velocity": 0.2204724409448819
          },
          {
            "duration": 0.125,
            "durationTicks": 96,
            "midi": 67,
            "name": "G4",
            "ticks": 96960,
            "time": 126.25,
            "velocity": 0.2204724409448819
          },
          {
            "duration": 0.125,
            "durationTicks": 96,
            "midi": 70,
            "name": "A#4",
            "ticks": 96960,
            "time": 126.25,
            "velocity": 0.2204724409448819
          },
          {
            "duration": 0.125,
            "durationTicks": 96,
            "midi": 55,
            "name": "G3",
            "ticks": 96960,
            "time": 126.25,
            "velocity": 0.2677165354330709
          },
          {
            "duration": 0.125,
            "durationTicks": 96,
            "midi": 51,
            "name": "D#3",
            "ticks": 96960,
            "time": 126.25,
            "velocity": 0.25984251968503935
          },
          {
            "duration": 0,
            "durationTicks": 0,
            "midi": 67,
            "name": "G4",
            "ticks": 97056,
            "time": 126.375,
            "velocity": 0.2204724409448819
          },
          {
            "duration": 0.125,
            "durationTicks": 96,
            "midi": 67,
            "name": "G4",
            "ticks": 97056,
            "time": 126.375,
            "velocity": 0.2204724409448819
          },
          {
            "duration": 0,
            "durationTicks": 0,
            "midi": 70,
            "name": "A#4",
            "ticks": 97056,
            "time": 126.375,
            "velocity": 0.2204724409448819
          },
          {
            "duration": 0.125,
            "durationTicks": 96,
            "midi": 70,
            "name": "A#4",
            "ticks": 97056,
            "time": 126.375,
            "velocity": 0.2204724409448819
          },
          {
            "duration": 0.375,
            "durationTicks": 288,
            "midi": 51,
            "name": "D#3",
            "ticks": 97152,
            "time": 126.5,
            "velocity": 0.2677165354330709
          },
          {
            "duration": 0.375,
            "durationTicks": 288,
            "midi": 55,
            "name": "G3",
            "ticks": 97152,
            "time": 126.5,
            "velocity": 0.25984251968503935
          },
          {
            "duration": 0,
            "durationTicks": 0,
            "midi": 54,
            "name": "F#3",
            "ticks": 97152,
            "time": 126.5,
            "velocity": 0.23622047244094488
          },
          {
            "duration": 0.125,
            "durationTicks": 96,
            "midi": 72,
            "name": "C5",
            "ticks": 97152,
            "time": 126.5,
            "velocity": 0.2125984251968504
          },
          {
            "duration": 0,
            "durationTicks": 0,
            "midi": 44,
            "name": "G#2",
            "ticks": 97152,
            "time": 126.5,
            "velocity": 0.25984251968503935
          },
          {
            "duration": 0,
            "durationTicks": 0,
            "midi": 61,
            "name": "C#4",
            "ticks": 97152,
            "time": 126.5,
            "velocity": 0.28346456692913385
          },
          {
            "duration": 0,
            "durationTicks": 0,
            "midi": 38,
            "name": "D2",
            "ticks": 97152,
            "time": 126.5,
            "velocity": 0.33858267716535434
          },
          {
            "duration": 0.375,
            "durationTicks": 288,
            "midi": 39,
            "name": "D#2",
            "ticks": 97152,
            "time": 126.5,
            "velocity": 0.30708661417322836
          },
          {
            "duration": 0.125,
            "durationTicks": 96,
            "midi": 72,
            "name": "C5",
            "ticks": 97152,
            "time": 126.5,
            "velocity": 0.2125984251968504
          },
          {
            "duration": 0.125,
            "durationTicks": 96,
            "midi": 67,
            "name": "G4",
            "ticks": 97344,
            "time": 126.75,
            "velocity": 0.2204724409448819
          },
          {
            "duration": 0.125,
            "durationTicks": 96,
            "midi": 70,
            "name": "A#4",
            "ticks": 97344,
            "time": 126.75,
            "velocity": 0.2204724409448819
          },
          {
            "duration": 0.125,
            "durationTicks": 96,
            "midi": 72,
            "name": "C5",
            "ticks": 97344,
            "time": 126.75,
            "velocity": 0.2047244094488189
          },
          {
            "duration": 0.125,
            "durationTicks": 96,
            "midi": 67,
            "name": "G4",
            "ticks": 97344,
            "time": 126.75,
            "velocity": 0.2204724409448819
          },
          {
            "duration": 0.125,
            "durationTicks": 96,
            "midi": 70,
            "name": "A#4",
            "ticks": 97344,
            "time": 126.75,
            "velocity": 0.2204724409448819
          },
          {
            "duration": 0.125,
            "durationTicks": 96,
            "midi": 72,
            "name": "C5",
            "ticks": 97344,
            "time": 126.75,
            "velocity": 0.2047244094488189
          },
          {
            "duration": 0.125,
            "durationTicks": 96,
            "midi": 39,
            "name": "D#2",
            "ticks": 97536,
            "time": 127,
            "velocity": 0.31496062992125984
          },
          {
            "duration": 0,
            "durationTicks": 0,
            "midi": 60,
            "name": "C4",
            "ticks": 97536,
            "time": 127,
            "velocity": 0.28346456692913385
          },
          {
            "duration": 0.5,
            "durationTicks": 384,
            "midi": 70,
            "name": "A#4",
            "ticks": 97536,
            "time": 127,
            "velocity": 0.2125984251968504
          },
          {
            "duration": 0,
            "durationTicks": 0,
            "midi": 36,
            "name": "C2",
            "ticks": 97536,
            "time": 127,
            "velocity": 0.33858267716535434
          },
          {
            "duration": 0,
            "durationTicks": 0,
            "midi": 44,
            "name": "G#2",
            "ticks": 97536,
            "time": 127,
            "velocity": 0.2677165354330709
          },
          {
            "duration": 0.5,
            "durationTicks": 384,
            "midi": 70,
            "name": "A#4",
            "ticks": 97536,
            "time": 127,
            "velocity": 0.2125984251968504
          },
          {
            "duration": 0,
            "durationTicks": 0,
            "midi": 54,
            "name": "F#3",
            "ticks": 97536,
            "time": 127,
            "velocity": 0.2204724409448819
          },
          {
            "duration": 0.125,
            "durationTicks": 96,
            "midi": 63,
            "name": "D#4",
            "ticks": 97536,
            "time": 127,
            "velocity": 0.2204724409448819
          },
          {
            "duration": 0.125,
            "durationTicks": 96,
            "midi": 51,
            "name": "D#3",
            "ticks": 97536,
            "time": 127,
            "velocity": 0.2755905511811024
          },
          {
            "duration": 0.125,
            "durationTicks": 96,
            "midi": 55,
            "name": "G3",
            "ticks": 97536,
            "time": 127,
            "velocity": 0.25196850393700787
          },
          {
            "duration": 0.125,
            "durationTicks": 96,
            "midi": 39,
            "name": "D#2",
            "ticks": 97728,
            "time": 127.25,
            "velocity": 0.2992125984251969
          },
          {
            "duration": 0.125,
            "durationTicks": 96,
            "midi": 51,
            "name": "D#3",
            "ticks": 97728,
            "time": 127.25,
            "velocity": 0.25196850393700787
          },
          {
            "duration": 0.125,
            "durationTicks": 96,
            "midi": 55,
            "name": "G3",
            "ticks": 97728,
            "time": 127.25,
            "velocity": 0.25984251968503935
          },
          {
            "duration": 0,
            "durationTicks": 0,
            "midi": 54,
            "name": "F#3",
            "ticks": 97920,
            "time": 127.5,
            "velocity": 0.2204724409448819
          },
          {
            "duration": 0,
            "durationTicks": 0,
            "midi": 61,
            "name": "C#4",
            "ticks": 97920,
            "time": 127.5,
            "velocity": 0.2755905511811024
          },
          {
            "duration": 0,
            "durationTicks": 0,
            "midi": 38,
            "name": "D2",
            "ticks": 97920,
            "time": 127.5,
            "velocity": 0.33858267716535434
          },
          {
            "duration": 0,
            "durationTicks": 0,
            "midi": 44,
            "name": "G#2",
            "ticks": 97920,
            "time": 127.5,
            "velocity": 0.25984251968503935
          },
          {
            "duration": 0.125,
            "durationTicks": 96,
            "midi": 67,
            "name": "G4",
            "ticks": 97920,
            "time": 127.5,
            "velocity": 0.3228346456692913
          },
          {
            "duration": 0.125,
            "durationTicks": 96,
            "midi": 67,
            "name": "G4",
            "ticks": 97920,
            "time": 127.5,
            "velocity": 0.3228346456692913
          },
          {
            "duration": 0.375,
            "durationTicks": 288,
            "midi": 51,
            "name": "D#3",
            "ticks": 97920,
            "time": 127.5,
            "velocity": 0.2755905511811024
          },
          {
            "duration": 0.5,
            "durationTicks": 384,
            "midi": 72,
            "name": "C5",
            "ticks": 97920,
            "time": 127.5,
            "velocity": 0.1889763779527559
          },
          {
            "duration": 0.125,
            "durationTicks": 96,
            "midi": 70,
            "name": "A#4",
            "ticks": 97920,
            "time": 127.5,
            "velocity": 0.2204724409448819
          },
          {
            "duration": 0.5,
            "durationTicks": 384,
            "midi": 72,
            "name": "C5",
            "ticks": 97920,
            "time": 127.5,
            "velocity": 0.1889763779527559
          },
          {
            "duration": 0.375,
            "durationTicks": 288,
            "midi": 55,
            "name": "G3",
            "ticks": 97920,
            "time": 127.5,
            "velocity": 0.25196850393700787
          },
          {
            "duration": 0.25,
            "durationTicks": 192,
            "midi": 67,
            "name": "G4",
            "ticks": 98112,
            "time": 127.75,
            "velocity": 0.3228346456692913
          },
          {
            "duration": 0.125,
            "durationTicks": 96,
            "midi": 39,
            "name": "D#2",
            "ticks": 98112,
            "time": 127.75,
            "velocity": 0.31496062992125984
          },
          {
            "duration": 0,
            "durationTicks": 0,
            "midi": 46,
            "name": "A#2",
            "ticks": 98112,
            "time": 127.75,
            "velocity": 0.2755905511811024
          },
          {
            "duration": 0.25,
            "durationTicks": 192,
            "midi": 67,
            "name": "G4",
            "ticks": 98304,
            "time": 128,
            "velocity": 0.1889763779527559
          },
          {
            "duration": 0,
            "durationTicks": 0,
            "midi": 44,
            "name": "G#2",
            "ticks": 98304,
            "time": 128,
            "velocity": 0.2755905511811024
          },
          {
            "duration": 0.25,
            "durationTicks": 192,
            "midi": 64,
            "name": "E4",
            "ticks": 98304,
            "time": 128,
            "velocity": 0.3228346456692913
          },
          {
            "duration": 0.375,
            "durationTicks": 288,
            "midi": 55,
            "name": "G3",
            "ticks": 98304,
            "time": 128,
            "velocity": 0.2755905511811024
          },
          {
            "duration": 0.375,
            "durationTicks": 288,
            "midi": 48,
            "name": "C3",
            "ticks": 98304,
            "time": 128,
            "velocity": 0.2677165354330709
          },
          {
            "duration": 0,
            "durationTicks": 0,
            "midi": 36,
            "name": "C2",
            "ticks": 98304,
            "time": 128,
            "velocity": 0.30708661417322836
          },
          {
            "duration": 0.375,
            "durationTicks": 288,
            "midi": 36,
            "name": "C2",
            "ticks": 98304,
            "time": 128,
            "velocity": 0.30708661417322836
          },
          {
            "duration": 0.375,
            "durationTicks": 288,
            "midi": 64,
            "name": "E4",
            "ticks": 98304,
            "time": 128,
            "velocity": 0.3228346456692913
          },
          {
            "duration": 0,
            "durationTicks": 0,
            "midi": 60,
            "name": "C4",
            "ticks": 98304,
            "time": 128,
            "velocity": 0.1968503937007874
          },
          {
            "duration": 3.25,
            "durationTicks": 2496,
            "midi": 79,
            "name": "G5",
            "ticks": 98304,
            "time": 128,
            "velocity": 0.2125984251968504
          },
          {
            "duration": 0,
            "durationTicks": 0,
            "midi": 54,
            "name": "F#3",
            "ticks": 98304,
            "time": 128,
            "velocity": 0.2440944881889764
          },
          {
            "duration": 0.375,
            "durationTicks": 288,
            "midi": 71,
            "name": "B4",
            "ticks": 98304,
            "time": 128,
            "velocity": 0.2440944881889764
          },
          {
            "duration": 0.375,
            "durationTicks": 288,
            "midi": 60,
            "name": "C4",
            "ticks": 98304,
            "time": 128,
            "velocity": 0.1968503937007874
          },
          {
            "duration": 3.25,
            "durationTicks": 2496,
            "midi": 79,
            "name": "G5",
            "ticks": 98304,
            "time": 128,
            "velocity": 0.2125984251968504
          },
          {
            "duration": 0.125,
            "durationTicks": 96,
            "midi": 36,
            "name": "C2",
            "ticks": 98688,
            "time": 128.5,
            "velocity": 0.31496062992125984
          },
          {
            "duration": 0.125,
            "durationTicks": 96,
            "midi": 55,
            "name": "G3",
            "ticks": 98688,
            "time": 128.5,
            "velocity": 0.25984251968503935
          },
          {
            "duration": 0.125,
            "durationTicks": 96,
            "midi": 48,
            "name": "C3",
            "ticks": 98688,
            "time": 128.5,
            "velocity": 0.25196850393700787
          },
          {
            "duration": 0.125,
            "durationTicks": 96,
            "midi": 64,
            "name": "E4",
            "ticks": 98688,
            "time": 128.5,
            "velocity": 0.2204724409448819
          },
          {
            "duration": 0,
            "durationTicks": 0,
            "midi": 44,
            "name": "G#2",
            "ticks": 98688,
            "time": 128.5,
            "velocity": 0.2677165354330709
          },
          {
            "duration": 0,
            "durationTicks": 0,
            "midi": 54,
            "name": "F#3",
            "ticks": 98688,
            "time": 128.5,
            "velocity": 0.2283464566929134
          },
          {
            "duration": 0,
            "durationTicks": 0,
            "midi": 38,
            "name": "D2",
            "ticks": 98688,
            "time": 128.5,
            "velocity": 0.33070866141732286
          },
          {
            "duration": 0.125,
            "durationTicks": 96,
            "midi": 67,
            "name": "G4",
            "ticks": 98688,
            "time": 128.5,
            "velocity": 0.2204724409448819
          },
          {
            "duration": 0,
            "durationTicks": 0,
            "midi": 61,
            "name": "C#4",
            "ticks": 98688,
            "time": 128.5,
            "velocity": 0.28346456692913385
          },
          {
            "duration": 0.125,
            "durationTicks": 96,
            "midi": 67,
            "name": "G4",
            "ticks": 98880,
            "time": 128.75,
            "velocity": 0.2204724409448819
          },
          {
            "duration": 0.125,
            "durationTicks": 96,
            "midi": 64,
            "name": "E4",
            "ticks": 98880,
            "time": 128.75,
            "velocity": 0.2204724409448819
          },
          {
            "duration": 2.5,
            "durationTicks": 1920,
            "midi": 67,
            "name": "G4",
            "ticks": 98880,
            "time": 128.75,
            "velocity": 0.2204724409448819
          },
          {
            "duration": 2.5,
            "durationTicks": 1920,
            "midi": 67,
            "name": "G4",
            "ticks": 98880,
            "time": 128.75,
            "velocity": 0.2204724409448819
          },
          {
            "duration": 0.125,
            "durationTicks": 96,
            "midi": 48,
            "name": "C3",
            "ticks": 98880,
            "time": 128.75,
            "velocity": 0.25984251968503935
          },
          {
            "duration": 0.25,
            "durationTicks": 192,
            "midi": 36,
            "name": "C2",
            "ticks": 98880,
            "time": 128.75,
            "velocity": 0.2992125984251969
          },
          {
            "duration": 0.125,
            "durationTicks": 96,
            "midi": 55,
            "name": "G3",
            "ticks": 98880,
            "time": 128.75,
            "velocity": 0.2677165354330709
          },
          {
            "duration": 0.25,
            "durationTicks": 192,
            "midi": 64,
            "name": "E4",
            "ticks": 98880,
            "time": 128.75,
            "velocity": 0.2204724409448819
          },
          {
            "duration": 0.125,
            "durationTicks": 96,
            "midi": 71,
            "name": "B4",
            "ticks": 99072,
            "time": 129,
            "velocity": 0.2204724409448819
          },
          {
            "duration": 0.125,
            "durationTicks": 96,
            "midi": 69,
            "name": "A4",
            "ticks": 99072,
            "time": 129,
            "velocity": 0.2204724409448819
          },
          {
            "duration": 0,
            "durationTicks": 0,
            "midi": 60,
            "name": "C4",
            "ticks": 99072,
            "time": 129,
            "velocity": 0.2755905511811024
          },
          {
            "duration": 0.5,
            "durationTicks": 384,
            "midi": 60,
            "name": "C4",
            "ticks": 99072,
            "time": 129,
            "velocity": 0.2755905511811024
          },
          {
            "duration": 0.5,
            "durationTicks": 384,
            "midi": 69,
            "name": "A4",
            "ticks": 99072,
            "time": 129,
            "velocity": 0.2204724409448819
          },
          {
            "duration": 0.375,
            "durationTicks": 288,
            "midi": 55,
            "name": "G3",
            "ticks": 99072,
            "time": 129,
            "velocity": 0.2677165354330709
          },
          {
            "duration": 0,
            "durationTicks": 0,
            "midi": 36,
            "name": "C2",
            "ticks": 99072,
            "time": 129,
            "velocity": 0.33858267716535434
          },
          {
            "duration": 0.375,
            "durationTicks": 288,
            "midi": 48,
            "name": "C3",
            "ticks": 99072,
            "time": 129,
            "velocity": 0.2755905511811024
          },
          {
            "duration": 0.125,
            "durationTicks": 96,
            "midi": 64,
            "name": "E4",
            "ticks": 99072,
            "time": 129,
            "velocity": 0.2204724409448819
          },
          {
            "duration": 0.5,
            "durationTicks": 384,
            "midi": 64,
            "name": "E4",
            "ticks": 99072,
            "time": 129,
            "velocity": 0.2204724409448819
          },
          {
            "duration": 0.375,
            "durationTicks": 288,
            "midi": 40,
            "name": "E2",
            "ticks": 99072,
            "time": 129,
            "velocity": 0.31496062992125984
          },
          {
            "duration": 0,
            "durationTicks": 0,
            "midi": 44,
            "name": "G#2",
            "ticks": 99072,
            "time": 129,
            "velocity": 0.2677165354330709
          },
          {
            "duration": 0,
            "durationTicks": 0,
            "midi": 54,
            "name": "F#3",
            "ticks": 99072,
            "time": 129,
            "velocity": 0.2283464566929134
          },
          {
            "duration": 0,
            "durationTicks": 0,
            "midi": 54,
            "name": "F#3",
            "ticks": 99456,
            "time": 129.5,
            "velocity": 0.23622047244094488
          },
          {
            "duration": 0,
            "durationTicks": 0,
            "midi": 38,
            "name": "D2",
            "ticks": 99456,
            "time": 129.5,
            "velocity": 0.33858267716535434
          },
          {
            "duration": 0.375,
            "durationTicks": 288,
            "midi": 48,
            "name": "C3",
            "ticks": 99456,
            "time": 129.5,
            "velocity": 0.25984251968503935
          },
          {
            "duration": 0,
            "durationTicks": 0,
            "midi": 44,
            "name": "G#2",
            "ticks": 99456,
            "time": 129.5,
            "velocity": 0.2677165354330709
          },
          {
            "duration": 0.125,
            "durationTicks": 96,
            "midi": 69,
            "name": "A4",
            "ticks": 99456,
            "time": 129.5,
            "velocity": 0.2204724409448819
          },
          {
            "duration": 0.125,
            "durationTicks": 96,
            "midi": 64,
            "name": "E4",
            "ticks": 99456,
            "time": 129.5,
            "velocity": 0.2204724409448819
          },
          {
            "duration": 0.125,
            "durationTicks": 96,
            "midi": 40,
            "name": "E2",
            "ticks": 99456,
            "time": 129.5,
            "velocity": 0.30708661417322836
          },
          {
            "duration": 0.375,
            "durationTicks": 288,
            "midi": 55,
            "name": "G3",
            "ticks": 99456,
            "time": 129.5,
            "velocity": 0.2755905511811024
          },
          {
            "duration": 0,
            "durationTicks": 0,
            "midi": 61,
            "name": "C#4",
            "ticks": 99456,
            "time": 129.5,
            "velocity": 0.28346456692913385
          },
          {
            "duration": 0,
            "durationTicks": 0,
            "midi": 60,
            "name": "C4",
            "ticks": 99552,
            "time": 129.625,
            "velocity": 0.29133858267716534
          },
          {
            "duration": 0,
            "durationTicks": 0,
            "midi": 46,
            "name": "A#2",
            "ticks": 99648,
            "time": 129.75,
            "velocity": 0.2677165354330709
          },
          {
            "duration": 0.125,
            "durationTicks": 96,
            "midi": 64,
            "name": "E4",
            "ticks": 99648,
            "time": 129.75,
            "velocity": 0.2204724409448819
          },
          {
            "duration": 0.25,
            "durationTicks": 192,
            "midi": 40,
            "name": "E2",
            "ticks": 99648,
            "time": 129.75,
            "velocity": 0.30708661417322836
          },
          {
            "duration": 0.125,
            "durationTicks": 96,
            "midi": 69,
            "name": "A4",
            "ticks": 99648,
            "time": 129.75,
            "velocity": 0.2204724409448819
          },
          {
            "duration": 0,
            "durationTicks": 0,
            "midi": 61,
            "name": "C#4",
            "ticks": 99648,
            "time": 129.75,
            "velocity": 0.2755905511811024
          },
          {
            "duration": 0.375,
            "durationTicks": 288,
            "midi": 41,
            "name": "F2",
            "ticks": 99840,
            "time": 130,
            "velocity": 0.31496062992125984
          },
          {
            "duration": 0.125,
            "durationTicks": 96,
            "midi": 48,
            "name": "C3",
            "ticks": 99840,
            "time": 130,
            "velocity": 0.25196850393700787
          },
          {
            "duration": 0,
            "durationTicks": 0,
            "midi": 60,
            "name": "C4",
            "ticks": 99840,
            "time": 130,
            "velocity": 0.2125984251968504
          },
          {
            "duration": 0.375,
            "durationTicks": 288,
            "midi": 60,
            "name": "C4",
            "ticks": 99840,
            "time": 130,
            "velocity": 0.2125984251968504
          },
          {
            "duration": 0.125,
            "durationTicks": 96,
            "midi": 55,
            "name": "G3",
            "ticks": 99840,
            "time": 130,
            "velocity": 0.2677165354330709
          },
          {
            "duration": 0,
            "durationTicks": 0,
            "midi": 36,
            "name": "C2",
            "ticks": 99840,
            "time": 130,
            "velocity": 0.33858267716535434
          },
          {
            "duration": 0,
            "durationTicks": 0,
            "midi": 44,
            "name": "G#2",
            "ticks": 99840,
            "time": 130,
            "velocity": 0.25984251968503935
          },
          {
            "duration": 0.125,
            "durationTicks": 96,
            "midi": 71,
            "name": "B4",
            "ticks": 99840,
            "time": 130,
            "velocity": 0.2204724409448819
          },
          {
            "duration": 0.125,
            "durationTicks": 96,
            "midi": 64,
            "name": "E4",
            "ticks": 99840,
            "time": 130,
            "velocity": 0.2204724409448819
          },
          {
            "duration": 0.375,
            "durationTicks": 288,
            "midi": 64,
            "name": "E4",
            "ticks": 99840,
            "time": 130,
            "velocity": 0.2204724409448819
          },
          {
            "duration": 0.375,
            "durationTicks": 288,
            "midi": 71,
            "name": "B4",
            "ticks": 99840,
            "time": 130,
            "velocity": 0.2204724409448819
          },
          {
            "duration": 0,
            "durationTicks": 0,
            "midi": 54,
            "name": "F#3",
            "ticks": 99840,
            "time": 130,
            "velocity": 0.23622047244094488
          },
          {
            "duration": 0.125,
            "durationTicks": 96,
            "midi": 48,
            "name": "C3",
            "ticks": 100032,
            "time": 130.25,
            "velocity": 0.25196850393700787
          },
          {
            "duration": 0.125,
            "durationTicks": 96,
            "midi": 55,
            "name": "G3",
            "ticks": 100032,
            "time": 130.25,
            "velocity": 0.25196850393700787
          },
          {
            "duration": 0.375,
            "durationTicks": 288,
            "midi": 55,
            "name": "G3",
            "ticks": 100224,
            "time": 130.5,
            "velocity": 0.2755905511811024
          },
          {
            "duration": 0,
            "durationTicks": 0,
            "midi": 61,
            "name": "C#4",
            "ticks": 100224,
            "time": 130.5,
            "velocity": 0.2755905511811024
          },
          {
            "duration": 0,
            "durationTicks": 0,
            "midi": 38,
            "name": "D2",
            "ticks": 100224,
            "time": 130.5,
            "velocity": 0.33858267716535434
          },
          {
            "duration": 0,
            "durationTicks": 0,
            "midi": 44,
            "name": "G#2",
            "ticks": 100224,
            "time": 130.5,
            "velocity": 0.2755905511811024
          },
          {
            "duration": 0.125,
            "durationTicks": 96,
            "midi": 64,
            "name": "E4",
            "ticks": 100224,
            "time": 130.5,
            "velocity": 0.2204724409448819
          },
          {
            "duration": 0.125,
            "durationTicks": 96,
            "midi": 41,
            "name": "F2",
            "ticks": 100224,
            "time": 130.5,
            "velocity": 0.31496062992125984
          },
          {
            "duration": 0.375,
            "durationTicks": 288,
            "midi": 48,
            "name": "C3",
            "ticks": 100224,
            "time": 130.5,
            "velocity": 0.2755905511811024
          },
          {
            "duration": 0.125,
            "durationTicks": 96,
            "midi": 71,
            "name": "B4",
            "ticks": 100224,
            "time": 130.5,
            "velocity": 0.2204724409448819
          },
          {
            "duration": 0,
            "durationTicks": 0,
            "midi": 54,
            "name": "F#3",
            "ticks": 100224,
            "time": 130.5,
            "velocity": 0.2440944881889764
          },
          {
            "duration": 0.25,
            "durationTicks": 192,
            "midi": 41,
            "name": "F2",
            "ticks": 100416,
            "time": 130.75,
            "velocity": 0.30708661417322836
          },
          {
            "duration": 0,
            "durationTicks": 0,
            "midi": 44,
            "name": "G#2",
            "ticks": 100608,
            "time": 131,
            "velocity": 0.25984251968503935
          },
          {
            "duration": 0.375,
            "durationTicks": 288,
            "midi": 43,
            "name": "G2",
            "ticks": 100608,
            "time": 131,
            "velocity": 0.31496062992125984
          },
          {
            "duration": 0.125,
            "durationTicks": 96,
            "midi": 69,
            "name": "A4",
            "ticks": 100608,
            "time": 131,
            "velocity": 0.2204724409448819
          },
          {
            "duration": 0.125,
            "durationTicks": 96,
            "midi": 55,
            "name": "G3",
            "ticks": 100608,
            "time": 131,
            "velocity": 0.2677165354330709
          },
          {
            "duration": 0.125,
            "durationTicks": 96,
            "midi": 48,
            "name": "C3",
            "ticks": 100608,
            "time": 131,
            "velocity": 0.25984251968503935
          },
          {
            "duration": 0,
            "durationTicks": 0,
            "midi": 60,
            "name": "C4",
            "ticks": 100608,
            "time": 131,
            "velocity": 0.2755905511811024
          },
          {
            "duration": 0.125,
            "durationTicks": 96,
            "midi": 64,
            "name": "E4",
            "ticks": 100608,
            "time": 131,
            "velocity": 0.2204724409448819
          },
          {
            "duration": 0,
            "durationTicks": 0,
            "midi": 36,
            "name": "C2",
            "ticks": 100608,
            "time": 131,
            "velocity": 0.33070866141732286
          },
          {
            "duration": 0.5,
            "durationTicks": 384,
            "midi": 64,
            "name": "E4",
            "ticks": 100608,
            "time": 131,
            "velocity": 0.2204724409448819
          },
          {
            "duration": 0,
            "durationTicks": 0,
            "midi": 54,
            "name": "F#3",
            "ticks": 100608,
            "time": 131,
            "velocity": 0.2283464566929134
          },
          {
            "duration": 0.5,
            "durationTicks": 384,
            "midi": 69,
            "name": "A4",
            "ticks": 100608,
            "time": 131,
            "velocity": 0.2204724409448819
          },
          {
            "duration": 0.125,
            "durationTicks": 96,
            "midi": 48,
            "name": "C3",
            "ticks": 100800,
            "time": 131.25,
            "velocity": 0.2677165354330709
          },
          {
            "duration": 0,
            "durationTicks": 0,
            "midi": 38,
            "name": "D2",
            "ticks": 100800,
            "time": 131.25,
            "velocity": 0.33858267716535434
          },
          {
            "duration": 0.125,
            "durationTicks": 96,
            "midi": 55,
            "name": "G3",
            "ticks": 100800,
            "time": 131.25,
            "velocity": 0.25196850393700787
          },
          {
            "duration": 0.125,
            "durationTicks": 96,
            "midi": 67,
            "name": "G4",
            "ticks": 100992,
            "time": 131.5,
            "velocity": 0.2047244094488189
          },
          {
            "duration": 0.125,
            "durationTicks": 96,
            "midi": 69,
            "name": "A4",
            "ticks": 100992,
            "time": 131.5,
            "velocity": 0.2204724409448819
          },
          {
            "duration": 0.125,
            "durationTicks": 96,
            "midi": 60,
            "name": "C4",
            "ticks": 100992,
            "time": 131.5,
            "velocity": 0.33858267716535434
          },
          {
            "duration": 0,
            "durationTicks": 0,
            "midi": 44,
            "name": "G#2",
            "ticks": 100992,
            "time": 131.5,
            "velocity": 0.2677165354330709
          },
          {
            "duration": 0.125,
            "durationTicks": 96,
            "midi": 67,
            "name": "G4",
            "ticks": 100992,
            "time": 131.5,
            "velocity": 0.2047244094488189
          },
          {
            "duration": 0.125,
            "durationTicks": 96,
            "midi": 64,
            "name": "E4",
            "ticks": 100992,
            "time": 131.5,
            "velocity": 0.2204724409448819
          },
          {
            "duration": 0.125,
            "durationTicks": 96,
            "midi": 43,
            "name": "G2",
            "ticks": 100992,
            "time": 131.5,
            "velocity": 0.31496062992125984
          },
          {
            "duration": 0,
            "durationTicks": 0,
            "midi": 54,
            "name": "F#3",
            "ticks": 100992,
            "time": 131.5,
            "velocity": 0.2440944881889764
          },
          {
            "duration": 0.375,
            "durationTicks": 288,
            "midi": 48,
            "name": "C3",
            "ticks": 100992,
            "time": 131.5,
            "velocity": 0.2755905511811024
          },
          {
            "duration": 0,
            "durationTicks": 0,
            "midi": 61,
            "name": "C#4",
            "ticks": 100992,
            "time": 131.5,
            "velocity": 0.2755905511811024
          },
          {
            "duration": 0,
            "durationTicks": 0,
            "midi": 38,
            "name": "D2",
            "ticks": 100992,
            "time": 131.5,
            "velocity": 0.33070866141732286
          },
          {
            "duration": 0.375,
            "durationTicks": 288,
            "midi": 55,
            "name": "G3",
            "ticks": 100992,
            "time": 131.5,
            "velocity": 0.2677165354330709
          },
          {
            "duration": 0,
            "durationTicks": 0,
            "midi": 38,
            "name": "D2",
            "ticks": 101088,
            "time": 131.625,
            "velocity": 0.33070866141732286
          },
          {
            "duration": 0.125,
            "durationTicks": 96,
            "midi": 72,
            "name": "C5",
            "ticks": 101088,
            "time": 131.625,
            "velocity": 0.2204724409448819
          },
          {
            "duration": 0.125,
            "durationTicks": 96,
            "midi": 72,
            "name": "C5",
            "ticks": 101088,
            "time": 131.625,
            "velocity": 0.2204724409448819
          },
          {
            "duration": 0.125,
            "durationTicks": 96,
            "midi": 74,
            "name": "D5",
            "ticks": 101184,
            "time": 131.75,
            "velocity": 0.2125984251968504
          },
          {
            "duration": 0.125,
            "durationTicks": 96,
            "midi": 74,
            "name": "D5",
            "ticks": 101184,
            "time": 131.75,
            "velocity": 0.2125984251968504
          },
          {
            "duration": 0,
            "durationTicks": 0,
            "midi": 38,
            "name": "D2",
            "ticks": 101184,
            "time": 131.75,
            "velocity": 0.33858267716535434
          },
          {
            "duration": 0.125,
            "durationTicks": 96,
            "midi": 60,
            "name": "C4",
            "ticks": 101184,
            "time": 131.75,
            "velocity": 0.3228346456692913
          },
          {
            "duration": 0,
            "durationTicks": 0,
            "midi": 46,
            "name": "A#2",
            "ticks": 101184,
            "time": 131.75,
            "velocity": 0.2677165354330709
          },
          {
            "duration": 0.25,
            "durationTicks": 192,
            "midi": 43,
            "name": "G2",
            "ticks": 101184,
            "time": 131.75,
            "velocity": 0.30708661417322836
          },
          {
            "duration": 0.125,
            "durationTicks": 96,
            "midi": 63,
            "name": "D#4",
            "ticks": 101376,
            "time": 132,
            "velocity": 0.31496062992125984
          },
          {
            "duration": 0.375,
            "durationTicks": 288,
            "midi": 75,
            "name": "D#5",
            "ticks": 101376,
            "time": 132,
            "velocity": 0.1968503937007874
          },
          {
            "duration": 0,
            "durationTicks": 0,
            "midi": 36,
            "name": "C2",
            "ticks": 101376,
            "time": 132,
            "velocity": 0.33070866141732286
          },
          {
            "duration": 0.375,
            "durationTicks": 288,
            "midi": 75,
            "name": "D#5",
            "ticks": 101376,
            "time": 132,
            "velocity": 0.1968503937007874
          },
          {
            "duration": 0.375,
            "durationTicks": 288,
            "midi": 55,
            "name": "G3",
            "ticks": 101376,
            "time": 132,
            "velocity": 0.25196850393700787
          },
          {
            "duration": 0.5,
            "durationTicks": 384,
            "midi": 63,
            "name": "D#4",
            "ticks": 101376,
            "time": 132,
            "velocity": 0.31496062992125984
          },
          {
            "duration": 0,
            "durationTicks": 0,
            "midi": 49,
            "name": "C#3",
            "ticks": 101376,
            "time": 132,
            "velocity": 0.2677165354330709
          },
          {
            "duration": 0,
            "durationTicks": 0,
            "midi": 54,
            "name": "F#3",
            "ticks": 101376,
            "time": 132,
            "velocity": 0.2440944881889764
          },
          {
            "duration": 0,
            "durationTicks": 0,
            "midi": 44,
            "name": "G#2",
            "ticks": 101376,
            "time": 132,
            "velocity": 0.25984251968503935
          },
          {
            "duration": 0.375,
            "durationTicks": 288,
            "midi": 39,
            "name": "D#2",
            "ticks": 101376,
            "time": 132,
            "velocity": 0.30708661417322836
          },
          {
            "duration": 0.375,
            "durationTicks": 288,
            "midi": 67,
            "name": "G4",
            "ticks": 101376,
            "time": 132,
            "velocity": 0.3228346456692913
          },
          {
            "duration": 0.375,
            "durationTicks": 288,
            "midi": 70,
            "name": "A#4",
            "ticks": 101376,
            "time": 132,
            "velocity": 0.25196850393700787
          },
          {
            "duration": 0,
            "durationTicks": 0,
            "midi": 60,
            "name": "C4",
            "ticks": 101376,
            "time": 132,
            "velocity": 0.28346456692913385
          },
          {
            "duration": 0.375,
            "durationTicks": 288,
            "midi": 51,
            "name": "D#3",
            "ticks": 101376,
            "time": 132,
            "velocity": 0.25984251968503935
          },
          {
            "duration": 0.375,
            "durationTicks": 288,
            "midi": 39,
            "name": "D#2",
            "ticks": 101760,
            "time": 132.5,
            "velocity": 0.2992125984251969
          },
          {
            "duration": 0,
            "durationTicks": 0,
            "midi": 38,
            "name": "D2",
            "ticks": 101760,
            "time": 132.5,
            "velocity": 0.33070866141732286
          },
          {
            "duration": 0,
            "durationTicks": 0,
            "midi": 44,
            "name": "G#2",
            "ticks": 101760,
            "time": 132.5,
            "velocity": 0.25984251968503935
          },
          {
            "duration": 0.125,
            "durationTicks": 96,
            "midi": 51,
            "name": "D#3",
            "ticks": 101760,
            "time": 132.5,
            "velocity": 0.2755905511811024
          },
          {
            "duration": 0.125,
            "durationTicks": 96,
            "midi": 75,
            "name": "D#5",
            "ticks": 101760,
            "time": 132.5,
            "velocity": 0.1889763779527559
          },
          {
            "duration": 0.125,
            "durationTicks": 96,
            "midi": 70,
            "name": "A#4",
            "ticks": 101760,
            "time": 132.5,
            "velocity": 0.2204724409448819
          },
          {
            "duration": 0,
            "durationTicks": 0,
            "midi": 54,
            "name": "F#3",
            "ticks": 101760,
            "time": 132.5,
            "velocity": 0.23622047244094488
          },
          {
            "duration": 0.125,
            "durationTicks": 96,
            "midi": 75,
            "name": "D#5",
            "ticks": 101760,
            "time": 132.5,
            "velocity": 0.1889763779527559
          },
          {
            "duration": 0,
            "durationTicks": 0,
            "midi": 61,
            "name": "C#4",
            "ticks": 101760,
            "time": 132.5,
            "velocity": 0.28346456692913385
          },
          {
            "duration": 0.125,
            "durationTicks": 96,
            "midi": 55,
            "name": "G3",
            "ticks": 101760,
            "time": 132.5,
            "velocity": 0.25984251968503935
          },
          {
            "duration": 0.125,
            "durationTicks": 96,
            "midi": 67,
            "name": "G4",
            "ticks": 101760,
            "time": 132.5,
            "velocity": 0.2204724409448819
          },
          {
            "duration": 0.125,
            "durationTicks": 96,
            "midi": 63,
            "name": "D#4",
            "ticks": 101952,
            "time": 132.75,
            "velocity": 0.2125984251968504
          },
          {
            "duration": 0.125,
            "durationTicks": 96,
            "midi": 51,
            "name": "D#3",
            "ticks": 101952,
            "time": 132.75,
            "velocity": 0.25984251968503935
          },
          {
            "duration": 0.125,
            "durationTicks": 96,
            "midi": 70,
            "name": "A#4",
            "ticks": 101952,
            "time": 132.75,
            "velocity": 0.2440944881889764
          },
          {
            "duration": 0.125,
            "durationTicks": 96,
            "midi": 67,
            "name": "G4",
            "ticks": 101952,
            "time": 132.75,
            "velocity": 0.2677165354330709
          },
          {
            "duration": 0.25,
            "durationTicks": 192,
            "midi": 75,
            "name": "D#5",
            "ticks": 101952,
            "time": 132.75,
            "velocity": 0.1889763779527559
          },
          {
            "duration": 0.25,
            "durationTicks": 192,
            "midi": 75,
            "name": "D#5",
            "ticks": 101952,
            "time": 132.75,
            "velocity": 0.1889763779527559
          },
          {
            "duration": 0.25,
            "durationTicks": 192,
            "midi": 63,
            "name": "D#4",
            "ticks": 101952,
            "time": 132.75,
            "velocity": 0.2125984251968504
          },
          {
            "duration": 0.25,
            "durationTicks": 192,
            "midi": 67,
            "name": "G4",
            "ticks": 101952,
            "time": 132.75,
            "velocity": 0.2677165354330709
          },
          {
            "duration": 0.125,
            "durationTicks": 96,
            "midi": 55,
            "name": "G3",
            "ticks": 101952,
            "time": 132.75,
            "velocity": 0.2677165354330709
          },
          {
            "duration": 0.375,
            "durationTicks": 288,
            "midi": 74,
            "name": "D5",
            "ticks": 102144,
            "time": 133,
            "velocity": 0.2204724409448819
          },
          {
            "duration": 0,
            "durationTicks": 0,
            "midi": 44,
            "name": "G#2",
            "ticks": 102144,
            "time": 133,
            "velocity": 0.25984251968503935
          },
          {
            "duration": 0.125,
            "durationTicks": 96,
            "midi": 39,
            "name": "D#2",
            "ticks": 102144,
            "time": 133,
            "velocity": 0.2992125984251969
          },
          {
            "duration": 0.375,
            "durationTicks": 288,
            "midi": 74,
            "name": "D5",
            "ticks": 102144,
            "time": 133,
            "velocity": 0.2204724409448819
          },
          {
            "duration": 0,
            "durationTicks": 0,
            "midi": 36,
            "name": "C2",
            "ticks": 102144,
            "time": 133,
            "velocity": 0.33070866141732286
          },
          {
            "duration": 0,
            "durationTicks": 0,
            "midi": 60,
            "name": "C4",
            "ticks": 102144,
            "time": 133,
            "velocity": 0.28346456692913385
          },
          {
            "duration": 1,
            "durationTicks": 768,
            "midi": 62,
            "name": "D4",
            "ticks": 102144,
            "time": 133,
            "velocity": 0.33070866141732286
          },
          {
            "duration": 0.375,
            "durationTicks": 288,
            "midi": 51,
            "name": "D#3",
            "ticks": 102144,
            "time": 133,
            "velocity": 0.25196850393700787
          },
          {
            "duration": 0,
            "durationTicks": 0,
            "midi": 54,
            "name": "F#3",
            "ticks": 102144,
            "time": 133,
            "velocity": 0.23622047244094488
          },
          {
            "duration": 0.375,
            "durationTicks": 288,
            "midi": 55,
            "name": "G3",
            "ticks": 102144,
            "time": 133,
            "velocity": 0.2677165354330709
          },
          {
            "duration": 0.125,
            "durationTicks": 96,
            "midi": 39,
            "name": "D#2",
            "ticks": 102336,
            "time": 133.25,
            "velocity": 0.2992125984251969
          },
          {
            "duration": 0.125,
            "durationTicks": 96,
            "midi": 74,
            "name": "D5",
            "ticks": 102528,
            "time": 133.5,
            "velocity": 0.2047244094488189
          },
          {
            "duration": 0.125,
            "durationTicks": 96,
            "midi": 74,
            "name": "D5",
            "ticks": 102528,
            "time": 133.5,
            "velocity": 0.2047244094488189
          },
          {
            "duration": 0.125,
            "durationTicks": 96,
            "midi": 67,
            "name": "G4",
            "ticks": 102528,
            "time": 133.5,
            "velocity": 0.2204724409448819
          },
          {
            "duration": 0.125,
            "durationTicks": 96,
            "midi": 70,
            "name": "A#4",
            "ticks": 102528,
            "time": 133.5,
            "velocity": 0.2204724409448819
          },
          {
            "duration": 0,
            "durationTicks": 0,
            "midi": 44,
            "name": "G#2",
            "ticks": 102528,
            "time": 133.5,
            "velocity": 0.25984251968503935
          },
          {
            "duration": 0,
            "durationTicks": 0,
            "midi": 38,
            "name": "D2",
            "ticks": 102528,
            "time": 133.5,
            "velocity": 0.33858267716535434
          },
          {
            "duration": 0.375,
            "durationTicks": 288,
            "midi": 51,
            "name": "D#3",
            "ticks": 102528,
            "time": 133.5,
            "velocity": 0.25984251968503935
          },
          {
            "duration": 0,
            "durationTicks": 0,
            "midi": 61,
            "name": "C#4",
            "ticks": 102528,
            "time": 133.5,
            "velocity": 0.2755905511811024
          },
          {
            "duration": 0,
            "durationTicks": 0,
            "midi": 54,
            "name": "F#3",
            "ticks": 102528,
            "time": 133.5,
            "velocity": 0.2440944881889764
          },
          {
            "duration": 0.375,
            "durationTicks": 288,
            "midi": 55,
            "name": "G3",
            "ticks": 102528,
            "time": 133.5,
            "velocity": 0.25984251968503935
          },
          {
            "duration": 0,
            "durationTicks": 0,
            "midi": 60,
            "name": "C4",
            "ticks": 102624,
            "time": 133.625,
            "velocity": 0.2755905511811024
          },
          {
            "duration": 0,
            "durationTicks": 0,
            "midi": 46,
            "name": "A#2",
            "ticks": 102720,
            "time": 133.75,
            "velocity": 0.2755905511811024
          },
          {
            "duration": 0.25,
            "durationTicks": 192,
            "midi": 74,
            "name": "D5",
            "ticks": 102720,
            "time": 133.75,
            "velocity": 0.2204724409448819
          },
          {
            "duration": 0,
            "durationTicks": 0,
            "midi": 61,
            "name": "C#4",
            "ticks": 102720,
            "time": 133.75,
            "velocity": 0.2755905511811024
          },
          {
            "duration": 0.125,
            "durationTicks": 96,
            "midi": 39,
            "name": "D#2",
            "ticks": 102720,
            "time": 133.75,
            "velocity": 0.31496062992125984
          },
          {
            "duration": 0.25,
            "durationTicks": 192,
            "midi": 74,
            "name": "D5",
            "ticks": 102720,
            "time": 133.75,
            "velocity": 0.2204724409448819
          },
          {
            "duration": 0.125,
            "durationTicks": 96,
            "midi": 63,
            "name": "D#4",
            "ticks": 102912,
            "time": 134,
            "velocity": 0.2204724409448819
          },
          {
            "duration": 0.125,
            "durationTicks": 96,
            "midi": 51,
            "name": "D#3",
            "ticks": 102912,
            "time": 134,
            "velocity": 0.2755905511811024
          },
          {
            "duration": 0,
            "durationTicks": 0,
            "midi": 44,
            "name": "G#2",
            "ticks": 102912,
            "time": 134,
            "velocity": 0.25984251968503935
          },
          {
            "duration": 0,
            "durationTicks": 0,
            "midi": 36,
            "name": "C2",
            "ticks": 102912,
            "time": 134,
            "velocity": 0.33070866141732286
          },
          {
            "duration": 0.125,
            "durationTicks": 96,
            "midi": 55,
            "name": "G3",
            "ticks": 102912,
            "time": 134,
            "velocity": 0.2755905511811024
          },
          {
            "duration": 0,
            "durationTicks": 0,
            "midi": 60,
            "name": "C4",
            "ticks": 102912,
            "time": 134,
            "velocity": 0.31496062992125984
          },
          {
            "duration": 0.375,
            "durationTicks": 288,
            "midi": 39,
            "name": "D#2",
            "ticks": 102912,
            "time": 134,
            "velocity": 0.2992125984251969
          },
          {
            "duration": 0.375,
            "durationTicks": 288,
            "midi": 72,
            "name": "C5",
            "ticks": 102912,
            "time": 134,
            "velocity": 0.1968503937007874
          },
          {
            "duration": 0,
            "durationTicks": 0,
            "midi": 54,
            "name": "F#3",
            "ticks": 102912,
            "time": 134,
            "velocity": 0.2283464566929134
          },
          {
            "duration": 0.375,
            "durationTicks": 288,
            "midi": 72,
            "name": "C5",
            "ticks": 102912,
            "time": 134,
            "velocity": 0.1968503937007874
          },
          {
            "duration": 0.125,
            "durationTicks": 96,
            "midi": 67,
            "name": "G4",
            "ticks": 103104,
            "time": 134.25,
            "velocity": 0.2204724409448819
          },
          {
            "duration": 0.125,
            "durationTicks": 96,
            "midi": 70,
            "name": "A#4",
            "ticks": 103104,
            "time": 134.25,
            "velocity": 0.2204724409448819
          },
          {
            "duration": 0.25,
            "durationTicks": 192,
            "midi": 67,
            "name": "G4",
            "ticks": 103104,
            "time": 134.25,
            "velocity": 0.2204724409448819
          },
          {
            "duration": 0.125,
            "durationTicks": 96,
            "midi": 51,
            "name": "D#3",
            "ticks": 103104,
            "time": 134.25,
            "velocity": 0.2755905511811024
          },
          {
            "duration": 0.125,
            "durationTicks": 96,
            "midi": 55,
            "name": "G3",
            "ticks": 103104,
            "time": 134.25,
            "velocity": 0.25984251968503935
          },
          {
            "duration": 0,
            "durationTicks": 0,
            "midi": 70,
            "name": "A#4",
            "ticks": 103200,
            "time": 134.375,
            "velocity": 0.2204724409448819
          },
          {
            "duration": 0.125,
            "durationTicks": 96,
            "midi": 70,
            "name": "A#4",
            "ticks": 103200,
            "time": 134.375,
            "velocity": 0.2204724409448819
          },
          {
            "duration": 0.125,
            "durationTicks": 96,
            "midi": 72,
            "name": "C5",
            "ticks": 103296,
            "time": 134.5,
            "velocity": 0.2204724409448819
          },
          {
            "duration": 0,
            "durationTicks": 0,
            "midi": 61,
            "name": "C#4",
            "ticks": 103296,
            "time": 134.5,
            "velocity": 0.29133858267716534
          },
          {
            "duration": 0.375,
            "durationTicks": 288,
            "midi": 55,
            "name": "G3",
            "ticks": 103296,
            "time": 134.5,
            "velocity": 0.2677165354330709
          },
          {
            "duration": 0,
            "durationTicks": 0,
            "midi": 38,
            "name": "D2",
            "ticks": 103296,
            "time": 134.5,
            "velocity": 0.33858267716535434
          },
          {
            "duration": 0.125,
            "durationTicks": 96,
            "midi": 72,
            "name": "C5",
            "ticks": 103296,
            "time": 134.5,
            "velocity": 0.2204724409448819
          },
          {
            "duration": 0.375,
            "durationTicks": 288,
            "midi": 51,
            "name": "D#3",
            "ticks": 103296,
            "time": 134.5,
            "velocity": 0.25196850393700787
          },
          {
            "duration": 0.375,
            "durationTicks": 288,
            "midi": 39,
            "name": "D#2",
            "ticks": 103296,
            "time": 134.5,
            "velocity": 0.31496062992125984
          },
          {
            "duration": 0,
            "durationTicks": 0,
            "midi": 44,
            "name": "G#2",
            "ticks": 103296,
            "time": 134.5,
            "velocity": 0.2677165354330709
          },
          {
            "duration": 0,
            "durationTicks": 0,
            "midi": 54,
            "name": "F#3",
            "ticks": 103296,
            "time": 134.5,
            "velocity": 0.23622047244094488
          },
          {
            "duration": 0.125,
            "durationTicks": 96,
            "midi": 67,
            "name": "G4",
            "ticks": 103488,
            "time": 134.75,
            "velocity": 0.2204724409448819
          },
          {
            "duration": 0.25,
            "durationTicks": 192,
            "midi": 72,
            "name": "C5",
            "ticks": 103488,
            "time": 134.75,
            "velocity": 0.1968503937007874
          },
          {
            "duration": 0.25,
            "durationTicks": 192,
            "midi": 72,
            "name": "C5",
            "ticks": 103488,
            "time": 134.75,
            "velocity": 0.1968503937007874
          },
          {
            "duration": 0.125,
            "durationTicks": 96,
            "midi": 67,
            "name": "G4",
            "ticks": 103488,
            "time": 134.75,
            "velocity": 0.2204724409448819
          },
          {
            "duration": 0.125,
            "durationTicks": 96,
            "midi": 70,
            "name": "A#4",
            "ticks": 103488,
            "time": 134.75,
            "velocity": 0.2204724409448819
          },
          {
            "duration": 0.125,
            "durationTicks": 96,
            "midi": 70,
            "name": "A#4",
            "ticks": 103488,
            "time": 134.75,
            "velocity": 0.2204724409448819
          },
          {
            "duration": 0.125,
            "durationTicks": 96,
            "midi": 63,
            "name": "D#4",
            "ticks": 103488,
            "time": 134.75,
            "velocity": 0.1968503937007874
          },
          {
            "duration": 0,
            "durationTicks": 0,
            "midi": 60,
            "name": "C4",
            "ticks": 103680,
            "time": 135,
            "velocity": 0.28346456692913385
          },
          {
            "duration": 0.125,
            "durationTicks": 96,
            "midi": 51,
            "name": "D#3",
            "ticks": 103680,
            "time": 135,
            "velocity": 0.25984251968503935
          },
          {
            "duration": 0.5,
            "durationTicks": 384,
            "midi": 70,
            "name": "A#4",
            "ticks": 103680,
            "time": 135,
            "velocity": 0.2125984251968504
          },
          {
            "duration": 0.125,
            "durationTicks": 96,
            "midi": 39,
            "name": "D#2",
            "ticks": 103680,
            "time": 135,
            "velocity": 0.31496062992125984
          },
          {
            "duration": 0.5,
            "durationTicks": 384,
            "midi": 70,
            "name": "A#4",
            "ticks": 103680,
            "time": 135,
            "velocity": 0.2125984251968504
          },
          {
            "duration": 0.375,
            "durationTicks": 288,
            "midi": 60,
            "name": "C4",
            "ticks": 103680,
            "time": 135,
            "velocity": 0.28346456692913385
          },
          {
            "duration": 0.125,
            "durationTicks": 96,
            "midi": 55,
            "name": "G3",
            "ticks": 103680,
            "time": 135,
            "velocity": 0.2755905511811024
          },
          {
            "duration": 0.125,
            "durationTicks": 96,
            "midi": 63,
            "name": "D#4",
            "ticks": 103680,
            "time": 135,
            "velocity": 0.2204724409448819
          },
          {
            "duration": 0,
            "durationTicks": 0,
            "midi": 44,
            "name": "G#2",
            "ticks": 103680,
            "time": 135,
            "velocity": 0.2755905511811024
          },
          {
            "duration": 0,
            "durationTicks": 0,
            "midi": 36,
            "name": "C2",
            "ticks": 103680,
            "time": 135,
            "velocity": 0.33070866141732286
          },
          {
            "duration": 0,
            "durationTicks": 0,
            "midi": 54,
            "name": "F#3",
            "ticks": 103680,
            "time": 135,
            "velocity": 0.2204724409448819
          },
          {
            "duration": 0.5,
            "durationTicks": 384,
            "midi": 39,
            "name": "D#2",
            "ticks": 103872,
            "time": 135.25,
            "velocity": 0.31496062992125984
          },
          {
            "duration": 0.125,
            "durationTicks": 96,
            "midi": 55,
            "name": "G3",
            "ticks": 103872,
            "time": 135.25,
            "velocity": 0.2755905511811024
          },
          {
            "duration": 0.125,
            "durationTicks": 96,
            "midi": 51,
            "name": "D#3",
            "ticks": 103872,
            "time": 135.25,
            "velocity": 0.25984251968503935
          },
          {
            "duration": 0.125,
            "durationTicks": 96,
            "midi": 67,
            "name": "G4",
            "ticks": 104064,
            "time": 135.5,
            "velocity": 0.33858267716535434
          },
          {
            "duration": 0,
            "durationTicks": 0,
            "midi": 38,
            "name": "D2",
            "ticks": 104064,
            "time": 135.5,
            "velocity": 0.33858267716535434
          },
          {
            "duration": 0.125,
            "durationTicks": 96,
            "midi": 70,
            "name": "A#4",
            "ticks": 104064,
            "time": 135.5,
            "velocity": 0.2204724409448819
          },
          {
            "duration": 0.125,
            "durationTicks": 96,
            "midi": 67,
            "name": "G4",
            "ticks": 104064,
            "time": 135.5,
            "velocity": 0.33858267716535434
          },
          {
            "duration": 0,
            "durationTicks": 0,
            "midi": 54,
            "name": "F#3",
            "ticks": 104064,
            "time": 135.5,
            "velocity": 0.2283464566929134
          },
          {
            "duration": 0.375,
            "durationTicks": 288,
            "midi": 55,
            "name": "G3",
            "ticks": 104064,
            "time": 135.5,
            "velocity": 0.25984251968503935
          },
          {
            "duration": 0,
            "durationTicks": 0,
            "midi": 44,
            "name": "G#2",
            "ticks": 104064,
            "time": 135.5,
            "velocity": 0.2755905511811024
          },
          {
            "duration": 0.375,
            "durationTicks": 288,
            "midi": 51,
            "name": "D#3",
            "ticks": 104064,
            "time": 135.5,
            "velocity": 0.2755905511811024
          },
          {
            "duration": 0,
            "durationTicks": 0,
            "midi": 61,
            "name": "C#4",
            "ticks": 104064,
            "time": 135.5,
            "velocity": 0.2755905511811024
          },
          {
            "duration": 0.125,
            "durationTicks": 96,
            "midi": 67,
            "name": "G4",
            "ticks": 104256,
            "time": 135.75,
            "velocity": 0.33858267716535434
          },
          {
            "duration": 0.25,
            "durationTicks": 192,
            "midi": 67,
            "name": "G4",
            "ticks": 104256,
            "time": 135.75,
            "velocity": 0.33858267716535434
          },
          {
            "duration": 0.25,
            "durationTicks": 192,
            "midi": 41,
            "name": "F2",
            "ticks": 104256,
            "time": 135.75,
            "velocity": 0.2992125984251969
          },
          {
            "duration": 0,
            "durationTicks": 0,
            "midi": 46,
            "name": "A#2",
            "ticks": 104256,
            "time": 135.75,
            "velocity": 0.2677165354330709
          },
          {
            "duration": 0.25,
            "durationTicks": 192,
            "midi": 67,
            "name": "G4",
            "ticks": 104256,
            "time": 135.75,
            "velocity": 0.33858267716535434
          },
          {
            "duration": 0,
            "durationTicks": 0,
            "midi": 44,
            "name": "G#2",
            "ticks": 104448,
            "time": 136,
            "velocity": 0.2677165354330709
          },
          {
            "duration": 0.125,
            "durationTicks": 96,
            "midi": 67,
            "name": "G4",
            "ticks": 104448,
            "time": 136,
            "velocity": 0.3228346456692913
          },
          {
            "duration": 0,
            "durationTicks": 0,
            "midi": 36,
            "name": "C2",
            "ticks": 104448,
            "time": 136,
            "velocity": 0.33070866141732286
          },
          {
            "duration": 0.125,
            "durationTicks": 96,
            "midi": 72,
            "name": "C5",
            "ticks": 104448,
            "time": 136,
            "velocity": 0.1968503937007874
          },
          {
            "duration": 0.125,
            "durationTicks": 96,
            "midi": 48,
            "name": "C3",
            "ticks": 104448,
            "time": 136,
            "velocity": 0.2677165354330709
          },
          {
            "duration": 0.125,
            "durationTicks": 96,
            "midi": 65,
            "name": "F4",
            "ticks": 104448,
            "time": 136,
            "velocity": 0.25196850393700787
          },
          {
            "duration": 0.125,
            "durationTicks": 96,
            "midi": 53,
            "name": "F3",
            "ticks": 104448,
            "time": 136,
            "velocity": 0.25984251968503935
          },
          {
            "duration": 0,
            "durationTicks": 0,
            "midi": 60,
            "name": "C4",
            "ticks": 104448,
            "time": 136,
            "velocity": 0.23622047244094488
          },
          {
            "duration": 0.5,
            "durationTicks": 384,
            "midi": 69,
            "name": "A4",
            "ticks": 104448,
            "time": 136,
            "velocity": 0.2440944881889764
          },
          {
            "duration": 0,
            "durationTicks": 0,
            "midi": 38,
            "name": "D2",
            "ticks": 104448,
            "time": 136,
            "velocity": 0.33858267716535434
          },
          {
            "duration": 0.375,
            "durationTicks": 288,
            "midi": 43,
            "name": "G2",
            "ticks": 104448,
            "time": 136,
            "velocity": 0.31496062992125984
          },
          {
            "duration": 3,
            "durationTicks": 2304,
            "midi": 79,
            "name": "G5",
            "ticks": 104448,
            "time": 136,
            "velocity": 0.1968503937007874
          },
          {
            "duration": 0,
            "durationTicks": 0,
            "midi": 54,
            "name": "F#3",
            "ticks": 104448,
            "time": 136,
            "velocity": 0.2283464566929134
          },
          {
            "duration": 3,
            "durationTicks": 2304,
            "midi": 79,
            "name": "G5",
            "ticks": 104448,
            "time": 136,
            "velocity": 0.1968503937007874
          },
          {
            "duration": 0.125,
            "durationTicks": 96,
            "midi": 48,
            "name": "C3",
            "ticks": 104640,
            "time": 136.25,
            "velocity": 0.25196850393700787
          },
          {
            "duration": 0,
            "durationTicks": 0,
            "midi": 36,
            "name": "C2",
            "ticks": 104640,
            "time": 136.25,
            "velocity": 0.33858267716535434
          },
          {
            "duration": 0,
            "durationTicks": 0,
            "midi": 38,
            "name": "D2",
            "ticks": 104640,
            "time": 136.25,
            "velocity": 0.33070866141732286
          },
          {
            "duration": 0.25,
            "durationTicks": 192,
            "midi": 65,
            "name": "F4",
            "ticks": 104640,
            "time": 136.25,
            "velocity": 0.28346456692913385
          },
          {
            "duration": 0.125,
            "durationTicks": 96,
            "midi": 67,
            "name": "G4",
            "ticks": 104640,
            "time": 136.25,
            "velocity": 0.2204724409448819
          },
          {
            "duration": 0.125,
            "durationTicks": 96,
            "midi": 53,
            "name": "F3",
            "ticks": 104640,
            "time": 136.25,
            "velocity": 0.25196850393700787
          },
          {
            "duration": 0.125,
            "durationTicks": 96,
            "midi": 72,
            "name": "C5",
            "ticks": 104640,
            "time": 136.25,
            "velocity": 0.2204724409448819
          },
          {
            "duration": 0,
            "durationTicks": 0,
            "midi": 61,
            "name": "C#4",
            "ticks": 104832,
            "time": 136.5,
            "velocity": 0.29133858267716534
          },
          {
            "duration": 0.125,
            "durationTicks": 96,
            "midi": 69,
            "name": "A4",
            "ticks": 104832,
            "time": 136.5,
            "velocity": 0.25984251968503935
          },
          {
            "duration": 0.25,
            "durationTicks": 192,
            "midi": 65,
            "name": "F4",
            "ticks": 104832,
            "time": 136.5,
            "velocity": 0.2755905511811024
          },
          {
            "duration": 0,
            "durationTicks": 0,
            "midi": 36,
            "name": "C2",
            "ticks": 104832,
            "time": 136.5,
            "velocity": 0.33070866141732286
          },
          {
            "duration": 0,
            "durationTicks": 0,
            "midi": 44,
            "name": "G#2",
            "ticks": 104832,
            "time": 136.5,
            "velocity": 0.2677165354330709
          },
          {
            "duration": 0.125,
            "durationTicks": 96,
            "midi": 67,
            "name": "G4",
            "ticks": 104832,
            "time": 136.5,
            "velocity": 0.2204724409448819
          },
          {
            "duration": 0.125,
            "durationTicks": 96,
            "midi": 53,
            "name": "F3",
            "ticks": 104832,
            "time": 136.5,
            "velocity": 0.25196850393700787
          },
          {
            "duration": 0,
            "durationTicks": 0,
            "midi": 38,
            "name": "D2",
            "ticks": 104832,
            "time": 136.5,
            "velocity": 0.33858267716535434
          },
          {
            "duration": 0.125,
            "durationTicks": 96,
            "midi": 43,
            "name": "G2",
            "ticks": 104832,
            "time": 136.5,
            "velocity": 0.30708661417322836
          },
          {
            "duration": 0.125,
            "durationTicks": 96,
            "midi": 72,
            "name": "C5",
            "ticks": 104832,
            "time": 136.5,
            "velocity": 0.2204724409448819
          },
          {
            "duration": 0.125,
            "durationTicks": 96,
            "midi": 48,
            "name": "C3",
            "ticks": 104832,
            "time": 136.5,
            "velocity": 0.25984251968503935
          },
          {
            "duration": 0.25,
            "durationTicks": 192,
            "midi": 69,
            "name": "A4",
            "ticks": 105024,
            "time": 136.75,
            "velocity": 0.2677165354330709
          },
          {
            "duration": 0.125,
            "durationTicks": 96,
            "midi": 67,
            "name": "G4",
            "ticks": 105024,
            "time": 136.75,
            "velocity": 0.2204724409448819
          },
          {
            "duration": 0.125,
            "durationTicks": 96,
            "midi": 72,
            "name": "C5",
            "ticks": 105024,
            "time": 136.75,
            "velocity": 0.2204724409448819
          },
          {
            "duration": 0.125,
            "durationTicks": 96,
            "midi": 43,
            "name": "G2",
            "ticks": 105024,
            "time": 136.75,
            "velocity": 0.30708661417322836
          },
          {
            "duration": 0.125,
            "durationTicks": 96,
            "midi": 53,
            "name": "F3",
            "ticks": 105024,
            "time": 136.75,
            "velocity": 0.25984251968503935
          },
          {
            "duration": 0.25,
            "durationTicks": 192,
            "midi": 67,
            "name": "G4",
            "ticks": 105024,
            "time": 136.75,
            "velocity": 0.2204724409448819
          },
          {
            "duration": 0.125,
            "durationTicks": 96,
            "midi": 48,
            "name": "C3",
            "ticks": 105024,
            "time": 136.75,
            "velocity": 0.2677165354330709
          },
          {
            "duration": 0,
            "durationTicks": 0,
            "midi": 36,
            "name": "C2",
            "ticks": 105024,
            "time": 136.75,
            "velocity": 0.33858267716535434
          },
          {
            "duration": 0.25,
            "durationTicks": 192,
            "midi": 65,
            "name": "F4",
            "ticks": 105024,
            "time": 136.75,
            "velocity": 0.2755905511811024
          },
          {
            "duration": 0,
            "durationTicks": 0,
            "midi": 38,
            "name": "D2",
            "ticks": 105024,
            "time": 136.75,
            "velocity": 0.33858267716535434
          },
          {
            "duration": 0.125,
            "durationTicks": 96,
            "midi": 48,
            "name": "C3",
            "ticks": 105216,
            "time": 137,
            "velocity": 0.2755905511811024
          },
          {
            "duration": 0.125,
            "durationTicks": 96,
            "midi": 69,
            "name": "A4",
            "ticks": 105216,
            "time": 137,
            "velocity": 0.2440944881889764
          },
          {
            "duration": 0.125,
            "durationTicks": 96,
            "midi": 53,
            "name": "F3",
            "ticks": 105216,
            "time": 137,
            "velocity": 0.25984251968503935
          },
          {
            "duration": 0,
            "durationTicks": 0,
            "midi": 60,
            "name": "C4",
            "ticks": 105216,
            "time": 137,
            "velocity": 0.2755905511811024
          },
          {
            "duration": 0,
            "durationTicks": 0,
            "midi": 38,
            "name": "D2",
            "ticks": 105216,
            "time": 137,
            "velocity": 0.33070866141732286
          },
          {
            "duration": 0,
            "durationTicks": 0,
            "midi": 36,
            "name": "C2",
            "ticks": 105216,
            "time": 137,
            "velocity": 0.33858267716535434
          },
          {
            "duration": 0.125,
            "durationTicks": 96,
            "midi": 43,
            "name": "G2",
            "ticks": 105216,
            "time": 137,
            "velocity": 0.31496062992125984
          },
          {
            "duration": 0,
            "durationTicks": 0,
            "midi": 44,
            "name": "G#2",
            "ticks": 105216,
            "time": 137,
            "velocity": 0.25984251968503935
          },
          {
            "duration": 0.125,
            "durationTicks": 96,
            "midi": 67,
            "name": "G4",
            "ticks": 105216,
            "time": 137,
            "velocity": 0.2204724409448819
          },
          {
            "duration": 0,
            "durationTicks": 0,
            "midi": 54,
            "name": "F#3",
            "ticks": 105216,
            "time": 137,
            "velocity": 0.2440944881889764
          },
          {
            "duration": 0.125,
            "durationTicks": 96,
            "midi": 72,
            "name": "C5",
            "ticks": 105216,
            "time": 137,
            "velocity": 0.2204724409448819
          },
          {
            "duration": 0.5,
            "durationTicks": 384,
            "midi": 60,
            "name": "C4",
            "ticks": 105216,
            "time": 137,
            "velocity": 0.2755905511811024
          },
          {
            "duration": 0.25,
            "durationTicks": 192,
            "midi": 65,
            "name": "F4",
            "ticks": 105216,
            "time": 137,
            "velocity": 0.2755905511811024
          },
          {
            "duration": 0.25,
            "durationTicks": 192,
            "midi": 65,
            "name": "F4",
            "ticks": 105408,
            "time": 137.25,
            "velocity": 0.28346456692913385
          },
          {
            "duration": 0.125,
            "durationTicks": 96,
            "midi": 43,
            "name": "G2",
            "ticks": 105408,
            "time": 137.25,
            "velocity": 0.2992125984251969
          },
          {
            "duration": 0.25,
            "durationTicks": 192,
            "midi": 69,
            "name": "A4",
            "ticks": 105408,
            "time": 137.25,
            "velocity": 0.2440944881889764
          },
          {
            "duration": 0,
            "durationTicks": 0,
            "midi": 36,
            "name": "C2",
            "ticks": 105408,
            "time": 137.25,
            "velocity": 0.33858267716535434
          },
          {
            "duration": 0,
            "durationTicks": 0,
            "midi": 38,
            "name": "D2",
            "ticks": 105408,
            "time": 137.25,
            "velocity": 0.33070866141732286
          },
          {
            "duration": 0.125,
            "durationTicks": 96,
            "midi": 72,
            "name": "C5",
            "ticks": 105408,
            "time": 137.25,
            "velocity": 0.2204724409448819
          },
          {
            "duration": 0.125,
            "durationTicks": 96,
            "midi": 53,
            "name": "F3",
            "ticks": 105408,
            "time": 137.25,
            "velocity": 0.2755905511811024
          },
          {
            "duration": 0.125,
            "durationTicks": 96,
            "midi": 67,
            "name": "G4",
            "ticks": 105408,
            "time": 137.25,
            "velocity": 0.2204724409448819
          },
          {
            "duration": 0.125,
            "durationTicks": 96,
            "midi": 48,
            "name": "C3",
            "ticks": 105408,
            "time": 137.25,
            "velocity": 0.2755905511811024
          },
          {
            "duration": 0,
            "durationTicks": 0,
            "midi": 61,
            "name": "C#4",
            "ticks": 105600,
            "time": 137.5,
            "velocity": 0.2755905511811024
          },
          {
            "duration": 0,
            "durationTicks": 0,
            "midi": 36,
            "name": "C2",
            "ticks": 105600,
            "time": 137.5,
            "velocity": 0.33070866141732286
          },
          {
            "duration": 0.125,
            "durationTicks": 96,
            "midi": 72,
            "name": "C5",
            "ticks": 105600,
            "time": 137.5,
            "velocity": 0.2204724409448819
          },
          {
            "duration": 0.25,
            "durationTicks": 192,
            "midi": 69,
            "name": "A4",
            "ticks": 105600,
            "time": 137.5,
            "velocity": 0.2755905511811024
          },
          {
            "duration": 0.125,
            "durationTicks": 96,
            "midi": 53,
            "name": "F3",
            "ticks": 105600,
            "time": 137.5,
            "velocity": 0.2755905511811024
          },
          {
            "duration": 0,
            "durationTicks": 0,
            "midi": 38,
            "name": "D2",
            "ticks": 105600,
            "time": 137.5,
            "velocity": 0.33858267716535434
          },
          {
            "duration": 0.125,
            "durationTicks": 96,
            "midi": 67,
            "name": "G4",
            "ticks": 105600,
            "time": 137.5,
            "velocity": 0.2204724409448819
          },
          {
            "duration": 0,
            "durationTicks": 0,
            "midi": 44,
            "name": "G#2",
            "ticks": 105600,
            "time": 137.5,
            "velocity": 0.25984251968503935
          },
          {
            "duration": 0.125,
            "durationTicks": 96,
            "midi": 43,
            "name": "G2",
            "ticks": 105600,
            "time": 137.5,
            "velocity": 0.31496062992125984
          },
          {
            "duration": 0.125,
            "durationTicks": 96,
            "midi": 48,
            "name": "C3",
            "ticks": 105600,
            "time": 137.5,
            "velocity": 0.2755905511811024
          },
          {
            "duration": 0.125,
            "durationTicks": 96,
            "midi": 65,
            "name": "F4",
            "ticks": 105600,
            "time": 137.5,
            "velocity": 0.25196850393700787
          },
          {
            "duration": 0,
            "durationTicks": 0,
            "midi": 60,
            "name": "C4",
            "ticks": 105696,
            "time": 137.625,
            "velocity": 0.2755905511811024
          },
          {
            "duration": 0.25,
            "durationTicks": 192,
            "midi": 60,
            "name": "C4",
            "ticks": 105696,
            "time": 137.625,
            "velocity": 0.2755905511811024
          },
          {
            "duration": 0.125,
            "durationTicks": 96,
            "midi": 72,
            "name": "C5",
            "ticks": 105792,
            "time": 137.75,
            "velocity": 0.2204724409448819
          },
          {
            "duration": 0,
            "durationTicks": 0,
            "midi": 38,
            "name": "D2",
            "ticks": 105792,
            "time": 137.75,
            "velocity": 0.33070866141732286
          },
          {
            "duration": 0,
            "durationTicks": 0,
            "midi": 61,
            "name": "C#4",
            "ticks": 105792,
            "time": 137.75,
            "velocity": 0.2755905511811024
          },
          {
            "duration": 0,
            "durationTicks": 0,
            "midi": 36,
            "name": "C2",
            "ticks": 105792,
            "time": 137.75,
            "velocity": 0.33070866141732286
          },
          {
            "duration": 0,
            "durationTicks": 0,
            "midi": 46,
            "name": "A#2",
            "ticks": 105792,
            "time": 137.75,
            "velocity": 0.2755905511811024
          },
          {
            "duration": 0.125,
            "durationTicks": 96,
            "midi": 65,
            "name": "F4",
            "ticks": 105792,
            "time": 137.75,
            "velocity": 0.28346456692913385
          },
          {
            "duration": 0.25,
            "durationTicks": 192,
            "midi": 72,
            "name": "C5",
            "ticks": 105792,
            "time": 137.75,
            "velocity": 0.2204724409448819
          },
          {
            "duration": 0.25,
            "durationTicks": 192,
            "midi": 72,
            "name": "C5",
            "ticks": 105792,
            "time": 137.75,
            "velocity": 0.2204724409448819
          },
          {
            "duration": 0.125,
            "durationTicks": 96,
            "midi": 43,
            "name": "G2",
            "ticks": 105792,
            "time": 137.75,
            "velocity": 0.30708661417322836
          },
          {
            "duration": 0.125,
            "durationTicks": 96,
            "midi": 69,
            "name": "A4",
            "ticks": 105792,
            "time": 137.75,
            "velocity": 0.2677165354330709
          },
          {
            "duration": 0.125,
            "durationTicks": 96,
            "midi": 67,
            "name": "G4",
            "ticks": 105792,
            "time": 137.75,
            "velocity": 0.2204724409448819
          },
          {
            "duration": 0.125,
            "durationTicks": 96,
            "midi": 53,
            "name": "F3",
            "ticks": 105792,
            "time": 137.75,
            "velocity": 0.2677165354330709
          },
          {
            "duration": 0.125,
            "durationTicks": 96,
            "midi": 48,
            "name": "C3",
            "ticks": 105792,
            "time": 137.75,
            "velocity": 0.2755905511811024
          },
          {
            "duration": 0.125,
            "durationTicks": 96,
            "midi": 71,
            "name": "B4",
            "ticks": 105984,
            "time": 138,
            "velocity": 0.2047244094488189
          },
          {
            "duration": 0.125,
            "durationTicks": 96,
            "midi": 55,
            "name": "G3",
            "ticks": 105984,
            "time": 138,
            "velocity": 0.2755905511811024
          },
          {
            "duration": 0,
            "durationTicks": 0,
            "midi": 54,
            "name": "F#3",
            "ticks": 105984,
            "time": 138,
            "velocity": 0.23622047244094488
          },
          {
            "duration": 0.125,
            "durationTicks": 96,
            "midi": 67,
            "name": "G4",
            "ticks": 105984,
            "time": 138,
            "velocity": 0.2204724409448819
          },
          {
            "duration": 0.125,
            "durationTicks": 96,
            "midi": 67,
            "name": "G4",
            "ticks": 105984,
            "time": 138,
            "velocity": 0.2204724409448819
          },
          {
            "duration": 0,
            "durationTicks": 0,
            "midi": 60,
            "name": "C4",
            "ticks": 105984,
            "time": 138,
            "velocity": 0.2755905511811024
          },
          {
            "duration": 0,
            "durationTicks": 0,
            "midi": 36,
            "name": "C2",
            "ticks": 105984,
            "time": 138,
            "velocity": 0.33858267716535434
          },
          {
            "duration": 0.25,
            "durationTicks": 192,
            "midi": 43,
            "name": "G2",
            "ticks": 105984,
            "time": 138,
            "velocity": 0.2992125984251969
          },
          {
            "duration": 0,
            "durationTicks": 0,
            "midi": 44,
            "name": "G#2",
            "ticks": 105984,
            "time": 138,
            "velocity": 0.2677165354330709
          },
          {
            "duration": 0.125,
            "durationTicks": 96,
            "midi": 74,
            "name": "D5",
            "ticks": 105984,
            "time": 138,
            "velocity": 0.2204724409448819
          },
          {
            "duration": 0.75,
            "durationTicks": 576,
            "midi": 62,
            "name": "D4",
            "ticks": 105984,
            "time": 138,
            "velocity": 0.2440944881889764
          },
          {
            "duration": 0.125,
            "durationTicks": 96,
            "midi": 50,
            "name": "D3",
            "ticks": 105984,
            "time": 138,
            "velocity": 0.25196850393700787
          },
          {
            "duration": 0,
            "durationTicks": 0,
            "midi": 38,
            "name": "D2",
            "ticks": 105984,
            "time": 138,
            "velocity": 0.33858267716535434
          },
          {
            "duration": 0.125,
            "durationTicks": 96,
            "midi": 67,
            "name": "G4",
            "ticks": 106176,
            "time": 138.25,
            "velocity": 0.2204724409448819
          },
          {
            "duration": 0.25,
            "durationTicks": 192,
            "midi": 67,
            "name": "G4",
            "ticks": 106176,
            "time": 138.25,
            "velocity": 0.2204724409448819
          },
          {
            "duration": 0,
            "durationTicks": 0,
            "midi": 36,
            "name": "C2",
            "ticks": 106176,
            "time": 138.25,
            "velocity": 0.33070866141732286
          },
          {
            "duration": 0.125,
            "durationTicks": 96,
            "midi": 74,
            "name": "D5",
            "ticks": 106176,
            "time": 138.25,
            "velocity": 0.2204724409448819
          },
          {
            "duration": 0.25,
            "durationTicks": 192,
            "midi": 71,
            "name": "B4",
            "ticks": 106176,
            "time": 138.25,
            "velocity": 0.2755905511811024
          },
          {
            "duration": 0,
            "durationTicks": 0,
            "midi": 38,
            "name": "D2",
            "ticks": 106176,
            "time": 138.25,
            "velocity": 0.3464566929133858
          },
          {
            "duration": 0.125,
            "durationTicks": 96,
            "midi": 31,
            "name": "G1",
            "ticks": 106176,
            "time": 138.25,
            "velocity": 0.30708661417322836
          },
          {
            "duration": 0.125,
            "durationTicks": 96,
            "midi": 50,
            "name": "D3",
            "ticks": 106176,
            "time": 138.25,
            "velocity": 0.25984251968503935
          },
          {
            "duration": 0.125,
            "durationTicks": 96,
            "midi": 55,
            "name": "G3",
            "ticks": 106176,
            "time": 138.25,
            "velocity": 0.25196850393700787
          },
          {
            "duration": 0.25,
            "durationTicks": 192,
            "midi": 71,
            "name": "B4",
            "ticks": 106368,
            "time": 138.5,
            "velocity": 0.2755905511811024
          },
          {
            "duration": 0,
            "durationTicks": 0,
            "midi": 36,
            "name": "C2",
            "ticks": 106368,
            "time": 138.5,
            "velocity": 0.33858267716535434
          },
          {
            "duration": 0,
            "durationTicks": 0,
            "midi": 61,
            "name": "C#4",
            "ticks": 106368,
            "time": 138.5,
            "velocity": 0.28346456692913385
          },
          {
            "duration": 0.125,
            "durationTicks": 96,
            "midi": 31,
            "name": "G1",
            "ticks": 106368,
            "time": 138.5,
            "velocity": 0.2992125984251969
          },
          {
            "duration": 0,
            "durationTicks": 0,
            "midi": 44,
            "name": "G#2",
            "ticks": 106368,
            "time": 138.5,
            "velocity": 0.2755905511811024
          },
          {
            "duration": 0.125,
            "durationTicks": 96,
            "midi": 50,
            "name": "D3",
            "ticks": 106368,
            "time": 138.5,
            "velocity": 0.2677165354330709
          },
          {
            "duration": 0.125,
            "durationTicks": 96,
            "midi": 55,
            "name": "G3",
            "ticks": 106368,
            "time": 138.5,
            "velocity": 0.2677165354330709
          },
          {
            "duration": 0.125,
            "durationTicks": 96,
            "midi": 67,
            "name": "G4",
            "ticks": 106368,
            "time": 138.5,
            "velocity": 0.2204724409448819
          },
          {
            "duration": 0,
            "durationTicks": 0,
            "midi": 38,
            "name": "D2",
            "ticks": 106368,
            "time": 138.5,
            "velocity": 0.33858267716535434
          },
          {
            "duration": 0.25,
            "durationTicks": 192,
            "midi": 67,
            "name": "G4",
            "ticks": 106368,
            "time": 138.5,
            "velocity": 0.2204724409448819
          },
          {
            "duration": 0.125,
            "durationTicks": 96,
            "midi": 74,
            "name": "D5",
            "ticks": 106368,
            "time": 138.5,
            "velocity": 0.2204724409448819
          },
          {
            "duration": 0,
            "durationTicks": 0,
            "midi": 38,
            "name": "D2",
            "ticks": 106560,
            "time": 138.75,
            "velocity": 0.33858267716535434
          },
          {
            "duration": 0.125,
            "durationTicks": 96,
            "midi": 55,
            "name": "G3",
            "ticks": 106560,
            "time": 138.75,
            "velocity": 0.25984251968503935
          },
          {
            "duration": 0.125,
            "durationTicks": 96,
            "midi": 74,
            "name": "D5",
            "ticks": 106560,
            "time": 138.75,
            "velocity": 0.2204724409448819
          },
          {
            "duration": 0.125,
            "durationTicks": 96,
            "midi": 50,
            "name": "D3",
            "ticks": 106560,
            "time": 138.75,
            "velocity": 0.2755905511811024
          },
          {
            "duration": 0.375,
            "durationTicks": 288,
            "midi": 62,
            "name": "D4",
            "ticks": 106560,
            "time": 138.75,
            "velocity": 0.1732283464566929
          },
          {
            "duration": 0.25,
            "durationTicks": 192,
            "midi": 71,
            "name": "B4",
            "ticks": 106560,
            "time": 138.75,
            "velocity": 0.25984251968503935
          },
          {
            "duration": 0.125,
            "durationTicks": 96,
            "midi": 67,
            "name": "G4",
            "ticks": 106560,
            "time": 138.75,
            "velocity": 0.2204724409448819
          },
          {
            "duration": 0.125,
            "durationTicks": 96,
            "midi": 67,
            "name": "G4",
            "ticks": 106560,
            "time": 138.75,
            "velocity": 0.2204724409448819
          },
          {
            "duration": 0,
            "durationTicks": 0,
            "midi": 36,
            "name": "C2",
            "ticks": 106560,
            "time": 138.75,
            "velocity": 0.3464566929133858
          },
          {
            "duration": 0.25,
            "durationTicks": 192,
            "midi": 71,
            "name": "B4",
            "ticks": 106560,
            "time": 138.75,
            "velocity": 0.25984251968503935
          },
          {
            "duration": 0.125,
            "durationTicks": 96,
            "midi": 31,
            "name": "G1",
            "ticks": 106560,
            "time": 138.75,
            "velocity": 0.30708661417322836
          },
          {
            "duration": 0.375,
            "durationTicks": 288,
            "midi": 71,
            "name": "B4",
            "ticks": 106560,
            "time": 138.75,
            "velocity": 0.25984251968503935
          },
          {
            "duration": 0,
            "durationTicks": 0,
            "midi": 54,
            "name": "F#3",
            "ticks": 106752,
            "time": 139,
            "velocity": 0.2283464566929134
          },
          {
            "duration": 0,
            "durationTicks": 0,
            "midi": 36,
            "name": "C2",
            "ticks": 106752,
            "time": 139,
            "velocity": 0.33858267716535434
          },
          {
            "duration": 0,
            "durationTicks": 0,
            "midi": 44,
            "name": "G#2",
            "ticks": 106752,
            "time": 139,
            "velocity": 0.2677165354330709
          },
          {
            "duration": 0,
            "durationTicks": 0,
            "midi": 60,
            "name": "C4",
            "ticks": 106752,
            "time": 139,
            "velocity": 0.2755905511811024
          },
          {
            "duration": 0.125,
            "durationTicks": 96,
            "midi": 67,
            "name": "G4",
            "ticks": 106752,
            "time": 139,
            "velocity": 0.2204724409448819
          },
          {
            "duration": 0.125,
            "durationTicks": 96,
            "midi": 74,
            "name": "D5",
            "ticks": 106752,
            "time": 139,
            "velocity": 0.2204724409448819
          },
          {
            "duration": 0,
            "durationTicks": 0,
            "midi": 38,
            "name": "D2",
            "ticks": 106752,
            "time": 139,
            "velocity": 0.33070866141732286
          },
          {
            "duration": 0.125,
            "durationTicks": 96,
            "midi": 31,
            "name": "G1",
            "ticks": 106752,
            "time": 139,
            "velocity": 0.2992125984251969
          },
          {
            "duration": 0.125,
            "durationTicks": 96,
            "midi": 50,
            "name": "D3",
            "ticks": 106752,
            "time": 139,
            "velocity": 0.2677165354330709
          },
          {
            "duration": 0.125,
            "durationTicks": 96,
            "midi": 67,
            "name": "G4",
            "ticks": 106752,
            "time": 139,
            "velocity": 0.2204724409448819
          },
          {
            "duration": 0.125,
            "durationTicks": 96,
            "midi": 55,
            "name": "G3",
            "ticks": 106752,
            "time": 139,
            "velocity": 0.2755905511811024
          },
          {
            "duration": 0.125,
            "durationTicks": 96,
            "midi": 55,
            "name": "G3",
            "ticks": 106944,
            "time": 139.25,
            "velocity": 0.25984251968503935
          },
          {
            "duration": 0.125,
            "durationTicks": 96,
            "midi": 67,
            "name": "G4",
            "ticks": 106944,
            "time": 139.25,
            "velocity": 0.2204724409448819
          },
          {
            "duration": 0.25,
            "durationTicks": 192,
            "midi": 71,
            "name": "B4",
            "ticks": 106944,
            "time": 139.25,
            "velocity": 0.25984251968503935
          },
          {
            "duration": 0.125,
            "durationTicks": 96,
            "midi": 31,
            "name": "G1",
            "ticks": 106944,
            "time": 139.25,
            "velocity": 0.31496062992125984
          },
          {
            "duration": 0.25,
            "durationTicks": 192,
            "midi": 62,
            "name": "D4",
            "ticks": 106944,
            "time": 139.25,
            "velocity": 0.2755905511811024
          },
          {
            "duration": 0.125,
            "durationTicks": 96,
            "midi": 50,
            "name": "D3",
            "ticks": 106944,
            "time": 139.25,
            "velocity": 0.25196850393700787
          },
          {
            "duration": 0,
            "durationTicks": 0,
            "midi": 38,
            "name": "D2",
            "ticks": 106944,
            "time": 139.25,
            "velocity": 0.33858267716535434
          },
          {
            "duration": 0,
            "durationTicks": 0,
            "midi": 36,
            "name": "C2",
            "ticks": 106944,
            "time": 139.25,
            "velocity": 0.33858267716535434
          },
          {
            "duration": 0.25,
            "durationTicks": 192,
            "midi": 67,
            "name": "G4",
            "ticks": 106944,
            "time": 139.25,
            "velocity": 0.2204724409448819
          },
          {
            "duration": 0.125,
            "durationTicks": 96,
            "midi": 74,
            "name": "D5",
            "ticks": 106944,
            "time": 139.25,
            "velocity": 0.2204724409448819
          },
          {
            "duration": 0.125,
            "durationTicks": 96,
            "midi": 55,
            "name": "G3",
            "ticks": 107136,
            "time": 139.5,
            "velocity": 0.25984251968503935
          },
          {
            "duration": 0.25,
            "durationTicks": 192,
            "midi": 71,
            "name": "B4",
            "ticks": 107136,
            "time": 139.5,
            "velocity": 0.2677165354330709
          },
          {
            "duration": 0,
            "durationTicks": 0,
            "midi": 38,
            "name": "D2",
            "ticks": 107136,
            "time": 139.5,
            "velocity": 0.33070866141732286
          },
          {
            "duration": 0.125,
            "durationTicks": 96,
            "midi": 79,
            "name": "G5",
            "ticks": 107136,
            "time": 139.5,
            "velocity": 0.2047244094488189
          },
          {
            "duration": 0.125,
            "durationTicks": 96,
            "midi": 67,
            "name": "G4",
            "ticks": 107136,
            "time": 139.5,
            "velocity": 0.2204724409448819
          },
          {
            "duration": 0,
            "durationTicks": 0,
            "midi": 61,
            "name": "C#4",
            "ticks": 107136,
            "time": 139.5,
            "velocity": 0.28346456692913385
          },
          {
            "duration": 0.125,
            "durationTicks": 96,
            "midi": 79,
            "name": "G5",
            "ticks": 107136,
            "time": 139.5,
            "velocity": 0.2047244094488189
          },
          {
            "duration": 0,
            "durationTicks": 0,
            "midi": 36,
            "name": "C2",
            "ticks": 107136,
            "time": 139.5,
            "velocity": 0.33858267716535434
          },
          {
            "duration": 0.125,
            "durationTicks": 96,
            "midi": 50,
            "name": "D3",
            "ticks": 107136,
            "time": 139.5,
            "velocity": 0.2755905511811024
          },
          {
            "duration": 0.125,
            "durationTicks": 96,
            "midi": 74,
            "name": "D5",
            "ticks": 107136,
            "time": 139.5,
            "velocity": 0.2204724409448819
          },
          {
            "duration": 0,
            "durationTicks": 0,
            "midi": 44,
            "name": "G#2",
            "ticks": 107136,
            "time": 139.5,
            "velocity": 0.25984251968503935
          },
          {
            "duration": 0.25,
            "durationTicks": 192,
            "midi": 67,
            "name": "G4",
            "ticks": 107136,
            "time": 139.5,
            "velocity": 0.2204724409448819
          },
          {
            "duration": 0.25,
            "durationTicks": 192,
            "midi": 62,
            "name": "D4",
            "ticks": 107136,
            "time": 139.5,
            "velocity": 0.2440944881889764
          },
          {
            "duration": 0.25,
            "durationTicks": 192,
            "midi": 31,
            "name": "G1",
            "ticks": 107136,
            "time": 139.5,
            "velocity": 0.2992125984251969
          },
          {
            "duration": 0.125,
            "durationTicks": 96,
            "midi": 81,
            "name": "A5",
            "ticks": 107232,
            "time": 139.625,
            "velocity": 0.2047244094488189
          },
          {
            "duration": 0.125,
            "durationTicks": 96,
            "midi": 81,
            "name": "A5",
            "ticks": 107232,
            "time": 139.625,
            "velocity": 0.2047244094488189
          },
          {
            "duration": 0.125,
            "durationTicks": 96,
            "midi": 50,
            "name": "D3",
            "ticks": 107328,
            "time": 139.75,
            "velocity": 0.2755905511811024
          },
          {
            "duration": 0.125,
            "durationTicks": 96,
            "midi": 55,
            "name": "G3",
            "ticks": 107328,
            "time": 139.75,
            "velocity": 0.25984251968503935
          },
          {
            "duration": 0.25,
            "durationTicks": 192,
            "midi": 62,
            "name": "D4",
            "ticks": 107328,
            "time": 139.75,
            "velocity": 0.28346456692913385
          },
          {
            "duration": 0.25,
            "durationTicks": 192,
            "midi": 71,
            "name": "B4",
            "ticks": 107328,
            "time": 139.75,
            "velocity": 0.2440944881889764
          },
          {
            "duration": 0.125,
            "durationTicks": 96,
            "midi": 67,
            "name": "G4",
            "ticks": 107328,
            "time": 139.75,
            "velocity": 0.2204724409448819
          },
          {
            "duration": 0,
            "durationTicks": 0,
            "midi": 38,
            "name": "D2",
            "ticks": 107328,
            "time": 139.75,
            "velocity": 0.33070866141732286
          },
          {
            "duration": 0.125,
            "durationTicks": 96,
            "midi": 84,
            "name": "C6",
            "ticks": 107328,
            "time": 139.75,
            "velocity": 0.2047244094488189
          },
          {
            "duration": 0.125,
            "durationTicks": 96,
            "midi": 74,
            "name": "D5",
            "ticks": 107328,
            "time": 139.75,
            "velocity": 0.2204724409448819
          },
          {
            "duration": 0.125,
            "durationTicks": 96,
            "midi": 84,
            "name": "C6",
            "ticks": 107328,
            "time": 139.75,
            "velocity": 0.2047244094488189
          },
          {
            "duration": 0,
            "durationTicks": 0,
            "midi": 36,
            "name": "C2",
            "ticks": 107328,
            "time": 139.75,
            "velocity": 0.33070866141732286
          },
          {
            "duration": 0.25,
            "durationTicks": 192,
            "midi": 67,
            "name": "G4",
            "ticks": 107328,
            "time": 139.75,
            "velocity": 0.2204724409448819
          },
          {
            "duration": 0,
            "durationTicks": 0,
            "midi": 46,
            "name": "A#2",
            "ticks": 107328,
            "time": 139.75,
            "velocity": 0.2677165354330709
          },
          {
            "duration": 0.25,
            "durationTicks": 192,
            "midi": 35,
            "name": "B1",
            "ticks": 107328,
            "time": 139.75,
            "velocity": 0.30708661417322836
          },
          {
            "duration": 0,
            "durationTicks": 0,
            "midi": 54,
            "name": "F#3",
            "ticks": 107520,
            "time": 140,
            "velocity": 0.2283464566929134
          },
          {
            "duration": 1.125,
            "durationTicks": 864,
            "midi": 84,
            "name": "C6",
            "ticks": 107520,
            "time": 140,
            "velocity": 0.2125984251968504
          },
          {
            "duration": 0,
            "durationTicks": 0,
            "midi": 49,
            "name": "C#3",
            "ticks": 107520,
            "time": 140,
            "velocity": 0.2755905511811024
          },
          {
            "duration": 1,
            "durationTicks": 768,
            "midi": 64,
            "name": "E4",
            "ticks": 107520,
            "time": 140,
            "velocity": 0.1889763779527559
          },
          {
            "duration": 0,
            "durationTicks": 0,
            "midi": 60,
            "name": "C4",
            "ticks": 107520,
            "time": 140,
            "velocity": 0.33070866141732286
          },
          {
            "duration": 0,
            "durationTicks": 0,
            "midi": 36,
            "name": "C2",
            "ticks": 107520,
            "time": 140,
            "velocity": 0.30708661417322836
          },
          {
            "duration": 0,
            "durationTicks": 0,
            "midi": 44,
            "name": "G#2",
            "ticks": 107520,
            "time": 140,
            "velocity": 0.2677165354330709
          },
          {
            "duration": 1.125,
            "durationTicks": 864,
            "midi": 84,
            "name": "C6",
            "ticks": 107520,
            "time": 140,
            "velocity": 0.2125984251968504
          },
          {
            "duration": 0.375,
            "durationTicks": 288,
            "midi": 36,
            "name": "C2",
            "ticks": 107520,
            "time": 140,
            "velocity": 0.30708661417322836
          },
          {
            "duration": 1.125,
            "durationTicks": 864,
            "midi": 52,
            "name": "E3",
            "ticks": 107520,
            "time": 140,
            "velocity": 0.2755905511811024
          },
          {
            "duration": 1.125,
            "durationTicks": 864,
            "midi": 48,
            "name": "C3",
            "ticks": 107520,
            "time": 140,
            "velocity": 0.2677165354330709
          },
          {
            "duration": 0.125,
            "durationTicks": 96,
            "midi": 60,
            "name": "C4",
            "ticks": 107520,
            "time": 140,
            "velocity": 0.33070866141732286
          },
          {
            "duration": 1,
            "durationTicks": 768,
            "midi": 55,
            "name": "G3",
            "ticks": 107520,
            "time": 140,
            "velocity": 0.1889763779527559
          },
          {
            "duration": 0.125,
            "durationTicks": 96,
            "midi": 60,
            "name": "C4",
            "ticks": 107616,
            "time": 140.125,
            "velocity": 0.3228346456692913
          },
          {
            "duration": 0.125,
            "durationTicks": 96,
            "midi": 60,
            "name": "C4",
            "ticks": 107712,
            "time": 140.25,
            "velocity": 0.3228346456692913
          },
          {
            "duration": 0.125,
            "durationTicks": 96,
            "midi": 60,
            "name": "C4",
            "ticks": 107904,
            "time": 140.5,
            "velocity": 0.33070866141732286
          },
          {
            "duration": 0,
            "durationTicks": 0,
            "midi": 61,
            "name": "C#4",
            "ticks": 107904,
            "time": 140.5,
            "velocity": 0.2755905511811024
          },
          {
            "duration": 0.375,
            "durationTicks": 288,
            "midi": 36,
            "name": "C2",
            "ticks": 107904,
            "time": 140.5,
            "velocity": 0.31496062992125984
          },
          {
            "duration": 0,
            "durationTicks": 0,
            "midi": 38,
            "name": "D2",
            "ticks": 107904,
            "time": 140.5,
            "velocity": 0.33858267716535434
          },
          {
            "duration": 0,
            "durationTicks": 0,
            "midi": 44,
            "name": "G#2",
            "ticks": 107904,
            "time": 140.5,
            "velocity": 0.2677165354330709
          },
          {
            "duration": 0,
            "durationTicks": 0,
            "midi": 54,
            "name": "F#3",
            "ticks": 107904,
            "time": 140.5,
            "velocity": 0.2440944881889764
          },
          {
            "duration": 0.125,
            "durationTicks": 96,
            "midi": 60,
            "name": "C4",
            "ticks": 108000,
            "time": 140.625,
            "velocity": 0.33858267716535434
          },
          {
            "duration": 0.125,
            "durationTicks": 96,
            "midi": 60,
            "name": "C4",
            "ticks": 108096,
            "time": 140.75,
            "velocity": 0.33070866141732286
          },
          {
            "duration": 0.25,
            "durationTicks": 192,
            "midi": 60,
            "name": "C4",
            "ticks": 108096,
            "time": 140.75,
            "velocity": 0.33070866141732286
          },
          {
            "duration": 0,
            "durationTicks": 0,
            "midi": 36,
            "name": "C2",
            "ticks": 108288,
            "time": 141,
            "velocity": 0.2992125984251969
          },
          {
            "duration": 0,
            "durationTicks": 0,
            "midi": 60,
            "name": "C4",
            "ticks": 108288,
            "time": 141,
            "velocity": 0.28346456692913385
          },
          {
            "duration": 0,
            "durationTicks": 0,
            "midi": 54,
            "name": "F#3",
            "ticks": 108288,
            "time": 141,
            "velocity": 0.23622047244094488
          },
          {
            "duration": 0,
            "durationTicks": 0,
            "midi": 44,
            "name": "G#2",
            "ticks": 108288,
            "time": 141,
            "velocity": 0.2677165354330709
          },
          {
            "duration": 0.125,
            "durationTicks": 96,
            "midi": 36,
            "name": "C2",
            "ticks": 108288,
            "time": 141,
            "velocity": 0.2992125984251969
          },
          {
            "duration": 0.25,
            "durationTicks": 192,
            "midi": 60,
            "name": "C4",
            "ticks": 108480,
            "time": 141.25,
            "velocity": 0.25196850393700787
          },
          {
            "duration": 0.125,
            "durationTicks": 96,
            "midi": 64,
            "name": "E4",
            "ticks": 108480,
            "time": 141.25,
            "velocity": 0.23622047244094488
          },
          {
            "duration": 0.25,
            "durationTicks": 192,
            "midi": 84,
            "name": "C6",
            "ticks": 108480,
            "time": 141.25,
            "velocity": 0.1968503937007874
          },
          {
            "duration": 0.125,
            "durationTicks": 96,
            "midi": 48,
            "name": "C3",
            "ticks": 108480,
            "time": 141.25,
            "velocity": 0.2755905511811024
          },
          {
            "duration": 0.25,
            "durationTicks": 192,
            "midi": 64,
            "name": "E4",
            "ticks": 108480,
            "time": 141.25,
            "velocity": 0.23622047244094488
          },
          {
            "duration": 0.25,
            "durationTicks": 192,
            "midi": 55,
            "name": "G3",
            "ticks": 108480,
            "time": 141.25,
            "velocity": 0.1889763779527559
          },
          {
            "duration": 0.125,
            "durationTicks": 96,
            "midi": 52,
            "name": "E3",
            "ticks": 108480,
            "time": 141.25,
            "velocity": 0.25984251968503935
          },
          {
            "duration": 0.375,
            "durationTicks": 288,
            "midi": 36,
            "name": "C2",
            "ticks": 108480,
            "time": 141.25,
            "velocity": 0.2992125984251969
          },
          {
            "duration": 0.25,
            "durationTicks": 192,
            "midi": 84,
            "name": "C6",
            "ticks": 108480,
            "time": 141.25,
            "velocity": 0.1968503937007874
          },
          {
            "duration": 0,
            "durationTicks": 0,
            "midi": 38,
            "name": "D2",
            "ticks": 108672,
            "time": 141.5,
            "velocity": 0.33070866141732286
          },
          {
            "duration": 0,
            "durationTicks": 0,
            "midi": 44,
            "name": "G#2",
            "ticks": 108672,
            "time": 141.5,
            "velocity": 0.2677165354330709
          },
          {
            "duration": 0.25,
            "durationTicks": 192,
            "midi": 81,
            "name": "A5",
            "ticks": 108672,
            "time": 141.5,
            "velocity": 0.2125984251968504
          },
          {
            "duration": 0,
            "durationTicks": 0,
            "midi": 61,
            "name": "C#4",
            "ticks": 108672,
            "time": 141.5,
            "velocity": 0.2755905511811024
          },
          {
            "duration": 0.25,
            "durationTicks": 192,
            "midi": 81,
            "name": "A5",
            "ticks": 108672,
            "time": 141.5,
            "velocity": 0.2125984251968504
          },
          {
            "duration": 0,
            "durationTicks": 0,
            "midi": 54,
            "name": "F#3",
            "ticks": 108672,
            "time": 141.5,
            "velocity": 0.2204724409448819
          },
          {
            "duration": 0,
            "durationTicks": 0,
            "midi": 60,
            "name": "C4",
            "ticks": 108768,
            "time": 141.625,
            "velocity": 0.2755905511811024
          },
          {
            "duration": 0.25,
            "durationTicks": 192,
            "midi": 84,
            "name": "C6",
            "ticks": 108864,
            "time": 141.75,
            "velocity": 0.2204724409448819
          },
          {
            "duration": 0.25,
            "durationTicks": 192,
            "midi": 84,
            "name": "C6",
            "ticks": 108864,
            "time": 141.75,
            "velocity": 0.2204724409448819
          },
          {
            "duration": 0.25,
            "durationTicks": 192,
            "midi": 60,
            "name": "C4",
            "ticks": 108864,
            "time": 141.75,
            "velocity": 0.2125984251968504
          },
          {
            "duration": 0,
            "durationTicks": 0,
            "midi": 46,
            "name": "A#2",
            "ticks": 108864,
            "time": 141.75,
            "velocity": 0.2677165354330709
          },
          {
            "duration": 0.25,
            "durationTicks": 192,
            "midi": 66,
            "name": "F#4",
            "ticks": 108864,
            "time": 141.75,
            "velocity": 0.1732283464566929
          },
          {
            "duration": 1.375,
            "durationTicks": 1056,
            "midi": 50,
            "name": "D3",
            "ticks": 108864,
            "time": 141.75,
            "velocity": 0.2047244094488189
          },
          {
            "duration": 1.375,
            "durationTicks": 1056,
            "midi": 50,
            "name": "D3",
            "ticks": 108864,
            "time": 141.75,
            "velocity": 0.2047244094488189
          },
          {
            "duration": 0.5,
            "durationTicks": 384,
            "midi": 57,
            "name": "A3",
            "ticks": 108864,
            "time": 141.75,
            "velocity": 0.23622047244094488
          },
          {
            "duration": 0.25,
            "durationTicks": 192,
            "midi": 36,
            "name": "C2",
            "ticks": 108864,
            "time": 141.75,
            "velocity": 0.2992125984251969
          },
          {
            "duration": 0,
            "durationTicks": 0,
            "midi": 61,
            "name": "C#4",
            "ticks": 108864,
            "time": 141.75,
            "velocity": 0.29133858267716534
          },
          {
            "duration": 0.25,
            "durationTicks": 192,
            "midi": 66,
            "name": "F#4",
            "ticks": 109056,
            "time": 142,
            "velocity": 0.2047244094488189
          },
          {
            "duration": 0.375,
            "durationTicks": 288,
            "midi": 38,
            "name": "D2",
            "ticks": 109056,
            "time": 142,
            "velocity": 0.30708661417322836
          },
          {
            "duration": 0,
            "durationTicks": 0,
            "midi": 44,
            "name": "G#2",
            "ticks": 109056,
            "time": 142,
            "velocity": 0.2677165354330709
          },
          {
            "duration": 1.25,
            "durationTicks": 960,
            "midi": 88,
            "name": "E6",
            "ticks": 109056,
            "time": 142,
            "velocity": 0.1968503937007874
          },
          {
            "duration": 0,
            "durationTicks": 0,
            "midi": 60,
            "name": "C4",
            "ticks": 109056,
            "time": 142,
            "velocity": 0.2440944881889764
          },
          {
            "duration": 1.25,
            "durationTicks": 960,
            "midi": 88,
            "name": "E6",
            "ticks": 109056,
            "time": 142,
            "velocity": 0.1968503937007874
          },
          {
            "duration": 0,
            "durationTicks": 0,
            "midi": 54,
            "name": "F#3",
            "ticks": 109056,
            "time": 142,
            "velocity": 0.2440944881889764
          },
          {
            "duration": 0.25,
            "durationTicks": 192,
            "midi": 60,
            "name": "C4",
            "ticks": 109056,
            "time": 142,
            "velocity": 0.2440944881889764
          },
          {
            "duration": 0,
            "durationTicks": 0,
            "midi": 36,
            "name": "C2",
            "ticks": 109056,
            "time": 142,
            "velocity": 0.36220472440944884
          },
          {
            "duration": 0,
            "durationTicks": 0,
            "midi": 44,
            "name": "G#2",
            "ticks": 109440,
            "time": 142.5,
            "velocity": 0.25984251968503935
          },
          {
            "duration": 0.25,
            "durationTicks": 192,
            "midi": 69,
            "name": "A4",
            "ticks": 109440,
            "time": 142.5,
            "velocity": 0.33858267716535434
          },
          {
            "duration": 0,
            "durationTicks": 0,
            "midi": 38,
            "name": "D2",
            "ticks": 109440,
            "time": 142.5,
            "velocity": 0.2992125984251969
          },
          {
            "duration": 0.25,
            "durationTicks": 192,
            "midi": 57,
            "name": "A3",
            "ticks": 109440,
            "time": 142.5,
            "velocity": 0.1889763779527559
          },
          {
            "duration": 0.25,
            "durationTicks": 192,
            "midi": 60,
            "name": "C4",
            "ticks": 109440,
            "time": 142.5,
            "velocity": 0.25196850393700787
          },
          {
            "duration": 0,
            "durationTicks": 0,
            "midi": 61,
            "name": "C#4",
            "ticks": 109440,
            "time": 142.5,
            "velocity": 0.2755905511811024
          },
          {
            "duration": 0.25,
            "durationTicks": 192,
            "midi": 66,
            "name": "F#4",
            "ticks": 109440,
            "time": 142.5,
            "velocity": 0.1889763779527559
          },
          {
            "duration": 0,
            "durationTicks": 0,
            "midi": 54,
            "name": "F#3",
            "ticks": 109440,
            "time": 142.5,
            "velocity": 0.2440944881889764
          },
          {
            "duration": 0.375,
            "durationTicks": 288,
            "midi": 38,
            "name": "D2",
            "ticks": 109440,
            "time": 142.5,
            "velocity": 0.2992125984251969
          },
          {
            "duration": 0.25,
            "durationTicks": 192,
            "midi": 66,
            "name": "F#4",
            "ticks": 109824,
            "time": 143,
            "velocity": 0.2047244094488189
          },
          {
            "duration": 0.125,
            "durationTicks": 96,
            "midi": 38,
            "name": "D2",
            "ticks": 109824,
            "time": 143,
            "velocity": 0.2992125984251969
          },
          {
            "duration": 0,
            "durationTicks": 0,
            "midi": 44,
            "name": "G#2",
            "ticks": 109824,
            "time": 143,
            "velocity": 0.2677165354330709
          },
          {
            "duration": 0,
            "durationTicks": 0,
            "midi": 60,
            "name": "C4",
            "ticks": 109824,
            "time": 143,
            "velocity": 0.2440944881889764
          },
          {
            "duration": 0,
            "durationTicks": 0,
            "midi": 54,
            "name": "F#3",
            "ticks": 109824,
            "time": 143,
            "velocity": 0.2204724409448819
          },
          {
            "duration": 0.375,
            "durationTicks": 288,
            "midi": 64,
            "name": "E4",
            "ticks": 109824,
            "time": 143,
            "velocity": 0.3228346456692913
          },
          {
            "duration": 0.25,
            "durationTicks": 192,
            "midi": 57,
            "name": "A3",
            "ticks": 109824,
            "time": 143,
            "velocity": 0.1968503937007874
          },
          {
            "duration": 0,
            "durationTicks": 0,
            "midi": 36,
            "name": "C2",
            "ticks": 109824,
            "time": 143,
            "velocity": 0.3700787401574803
          },
          {
            "duration": 0.25,
            "durationTicks": 192,
            "midi": 60,
            "name": "C4",
            "ticks": 109824,
            "time": 143,
            "velocity": 0.2440944881889764
          },
          {
            "duration": 0.125,
            "durationTicks": 96,
            "midi": 54,
            "name": "F#3",
            "ticks": 109824,
            "time": 143,
            "velocity": 0.2204724409448819
          },
          {
            "duration": 0.125,
            "durationTicks": 96,
            "midi": 50,
            "name": "D3",
            "ticks": 110016,
            "time": 143.25,
            "velocity": 0.25196850393700787
          },
          {
            "duration": 0.25,
            "durationTicks": 192,
            "midi": 57,
            "name": "A3",
            "ticks": 110016,
            "time": 143.25,
            "velocity": 0.1889763779527559
          },
          {
            "duration": 0.25,
            "durationTicks": 192,
            "midi": 60,
            "name": "C4",
            "ticks": 110016,
            "time": 143.25,
            "velocity": 0.25196850393700787
          },
          {
            "duration": 0.125,
            "durationTicks": 96,
            "midi": 54,
            "name": "F#3",
            "ticks": 110016,
            "time": 143.25,
            "velocity": 0.2755905511811024
          },
          {
            "duration": 0.25,
            "durationTicks": 192,
            "midi": 66,
            "name": "F#4",
            "ticks": 110016,
            "time": 143.25,
            "velocity": 0.25984251968503935
          },
          {
            "duration": 0,
            "durationTicks": 0,
            "midi": 54,
            "name": "F#3",
            "ticks": 110208,
            "time": 143.5,
            "velocity": 0.23622047244094488
          },
          {
            "duration": 0,
            "durationTicks": 0,
            "midi": 61,
            "name": "C#4",
            "ticks": 110208,
            "time": 143.5,
            "velocity": 0.2755905511811024
          },
          {
            "duration": 0,
            "durationTicks": 0,
            "midi": 38,
            "name": "D2",
            "ticks": 110208,
            "time": 143.5,
            "velocity": 0.33070866141732286
          },
          {
            "duration": 0,
            "durationTicks": 0,
            "midi": 44,
            "name": "G#2",
            "ticks": 110208,
            "time": 143.5,
            "velocity": 0.25984251968503935
          },
          {
            "duration": 0.125,
            "durationTicks": 96,
            "midi": 88,
            "name": "E6",
            "ticks": 110208,
            "time": 143.5,
            "velocity": 0.1889763779527559
          },
          {
            "duration": 0.125,
            "durationTicks": 96,
            "midi": 38,
            "name": "D2",
            "ticks": 110208,
            "time": 143.5,
            "velocity": 0.33070866141732286
          },
          {
            "duration": 0.125,
            "durationTicks": 96,
            "midi": 88,
            "name": "E6",
            "ticks": 110208,
            "time": 143.5,
            "velocity": 0.1889763779527559
          },
          {
            "duration": 0.125,
            "durationTicks": 96,
            "midi": 86,
            "name": "D6",
            "ticks": 110304,
            "time": 143.625,
            "velocity": 0.2047244094488189
          },
          {
            "duration": 0.125,
            "durationTicks": 96,
            "midi": 86,
            "name": "D6",
            "ticks": 110304,
            "time": 143.625,
            "velocity": 0.2047244094488189
          },
          {
            "duration": 0.125,
            "durationTicks": 96,
            "midi": 84,
            "name": "C6",
            "ticks": 110400,
            "time": 143.75,
            "velocity": 0.1889763779527559
          },
          {
            "duration": 0,
            "durationTicks": 0,
            "midi": 46,
            "name": "A#2",
            "ticks": 110400,
            "time": 143.75,
            "velocity": 0.2755905511811024
          },
          {
            "duration": 0.125,
            "durationTicks": 96,
            "midi": 84,
            "name": "C6",
            "ticks": 110400,
            "time": 143.75,
            "velocity": 0.1889763779527559
          },
          {
            "duration": 0.25,
            "durationTicks": 192,
            "midi": 40,
            "name": "E2",
            "ticks": 110400,
            "time": 143.75,
            "velocity": 0.2992125984251969
          },
          {
            "duration": 0.125,
            "durationTicks": 96,
            "midi": 81,
            "name": "A5",
            "ticks": 110496,
            "time": 143.875,
            "velocity": 0.2047244094488189
          },
          {
            "duration": 0.125,
            "durationTicks": 96,
            "midi": 81,
            "name": "A5",
            "ticks": 110496,
            "time": 143.875,
            "velocity": 0.2047244094488189
          },
          {
            "duration": 0,
            "durationTicks": 0,
            "midi": 60,
            "name": "C4",
            "ticks": 110592,
            "time": 144,
            "velocity": 0.2677165354330709
          },
          {
            "duration": 1.25,
            "durationTicks": 960,
            "midi": 84,
            "name": "C6",
            "ticks": 110592,
            "time": 144,
            "velocity": 0.1889763779527559
          },
          {
            "duration": 1,
            "durationTicks": 768,
            "midi": 57,
            "name": "A3",
            "ticks": 110592,
            "time": 144,
            "velocity": 0.25984251968503935
          },
          {
            "duration": 0,
            "durationTicks": 0,
            "midi": 36,
            "name": "C2",
            "ticks": 110592,
            "time": 144,
            "velocity": 0.3700787401574803
          },
          {
            "duration": 0.375,
            "durationTicks": 288,
            "midi": 41,
            "name": "F2",
            "ticks": 110592,
            "time": 144,
            "velocity": 0.30708661417322836
          },
          {
            "duration": 0,
            "durationTicks": 0,
            "midi": 44,
            "name": "G#2",
            "ticks": 110592,
            "time": 144,
            "velocity": 0.2677165354330709
          },
          {
            "duration": 1.25,
            "durationTicks": 960,
            "midi": 84,
            "name": "C6",
            "ticks": 110592,
            "time": 144,
            "velocity": 0.1889763779527559
          },
          {
            "duration": 1,
            "durationTicks": 768,
            "midi": 53,
            "name": "F3",
            "ticks": 110592,
            "time": 144,
            "velocity": 0.2204724409448819
          },
          {
            "duration": 1,
            "durationTicks": 768,
            "midi": 65,
            "name": "F4",
            "ticks": 110592,
            "time": 144,
            "velocity": 0.2125984251968504
          },
          {
            "duration": 1.25,
            "durationTicks": 960,
            "midi": 53,
            "name": "F3",
            "ticks": 110592,
            "time": 144,
            "velocity": 0.2204724409448819
          },
          {
            "duration": 1,
            "durationTicks": 768,
            "midi": 57,
            "name": "A3",
            "ticks": 110592,
            "time": 144,
            "velocity": 0.25984251968503935
          },
          {
            "duration": 0,
            "durationTicks": 0,
            "midi": 54,
            "name": "F#3",
            "ticks": 110592,
            "time": 144,
            "velocity": 0.2440944881889764
          },
          {
            "duration": 1,
            "durationTicks": 768,
            "midi": 60,
            "name": "C4",
            "ticks": 110592,
            "time": 144,
            "velocity": 0.2677165354330709
          },
          {
            "duration": 0.125,
            "durationTicks": 96,
            "midi": 64,
            "name": "E4",
            "ticks": 110976,
            "time": 144.5,
            "velocity": 0.33858267716535434
          },
          {
            "duration": 0.375,
            "durationTicks": 288,
            "midi": 41,
            "name": "F2",
            "ticks": 110976,
            "time": 144.5,
            "velocity": 0.31496062992125984
          },
          {
            "duration": 0,
            "durationTicks": 0,
            "midi": 61,
            "name": "C#4",
            "ticks": 110976,
            "time": 144.5,
            "velocity": 0.2755905511811024
          },
          {
            "duration": 0,
            "durationTicks": 0,
            "midi": 54,
            "name": "F#3",
            "ticks": 110976,
            "time": 144.5,
            "velocity": 0.2440944881889764
          },
          {
            "duration": 0,
            "durationTicks": 0,
            "midi": 44,
            "name": "G#2",
            "ticks": 110976,
            "time": 144.5,
            "velocity": 0.25984251968503935
          },
          {
            "duration": 0,
            "durationTicks": 0,
            "midi": 38,
            "name": "D2",
            "ticks": 110976,
            "time": 144.5,
            "velocity": 0.33070866141732286
          },
          {
            "duration": 0.125,
            "durationTicks": 96,
            "midi": 64,
            "name": "E4",
            "ticks": 111168,
            "time": 144.75,
            "velocity": 0.3228346456692913
          },
          {
            "duration": 0.125,
            "durationTicks": 96,
            "midi": 41,
            "name": "F2",
            "ticks": 111360,
            "time": 145,
            "velocity": 0.2992125984251969
          },
          {
            "duration": 0.25,
            "durationTicks": 192,
            "midi": 69,
            "name": "A4",
            "ticks": 111360,
            "time": 145,
            "velocity": 0.33858267716535434
          },
          {
            "duration": 0,
            "durationTicks": 0,
            "midi": 44,
            "name": "G#2",
            "ticks": 111360,
            "time": 145,
            "velocity": 0.2677165354330709
          },
          {
            "duration": 0,
            "durationTicks": 0,
            "midi": 60,
            "name": "C4",
            "ticks": 111360,
            "time": 145,
            "velocity": 0.2755905511811024
          },
          {
            "duration": 0,
            "durationTicks": 0,
            "midi": 54,
            "name": "F#3",
            "ticks": 111360,
            "time": 145,
            "velocity": 0.2440944881889764
          },
          {
            "duration": 0,
            "durationTicks": 0,
            "midi": 36,
            "name": "C2",
            "ticks": 111360,
            "time": 145,
            "velocity": 0.3700787401574803
          },
          {
            "duration": 0.25,
            "durationTicks": 192,
            "midi": 57,
            "name": "A3",
            "ticks": 111552,
            "time": 145.25,
            "velocity": 0.2283464566929134
          },
          {
            "duration": 0.25,
            "durationTicks": 192,
            "midi": 84,
            "name": "C6",
            "ticks": 111552,
            "time": 145.25,
            "velocity": 0.2047244094488189
          },
          {
            "duration": 0.25,
            "durationTicks": 192,
            "midi": 84,
            "name": "C6",
            "ticks": 111552,
            "time": 145.25,
            "velocity": 0.2047244094488189
          },
          {
            "duration": 0.375,
            "durationTicks": 288,
            "midi": 57,
            "name": "A3",
            "ticks": 111552,
            "time": 145.25,
            "velocity": 0.2283464566929134
          },
          {
            "duration": 0.375,
            "durationTicks": 288,
            "midi": 53,
            "name": "F3",
            "ticks": 111552,
            "time": 145.25,
            "velocity": 0.2755905511811024
          },
          {
            "duration": 0.25,
            "durationTicks": 192,
            "midi": 60,
            "name": "C4",
            "ticks": 111552,
            "time": 145.25,
            "velocity": 0.2204724409448819
          },
          {
            "duration": 0.375,
            "durationTicks": 288,
            "midi": 41,
            "name": "F2",
            "ticks": 111552,
            "time": 145.25,
            "velocity": 0.2992125984251969
          },
          {
            "duration": 0.25,
            "durationTicks": 192,
            "midi": 65,
            "name": "F4",
            "ticks": 111552,
            "time": 145.25,
            "velocity": 0.2204724409448819
          },
          {
            "duration": 0,
            "durationTicks": 0,
            "midi": 44,
            "name": "G#2",
            "ticks": 111744,
            "time": 145.5,
            "velocity": 0.2677165354330709
          },
          {
            "duration": 0.25,
            "durationTicks": 192,
            "midi": 64,
            "name": "E4",
            "ticks": 111744,
            "time": 145.5,
            "velocity": 0.31496062992125984
          },
          {
            "duration": 0,
            "durationTicks": 0,
            "midi": 54,
            "name": "F#3",
            "ticks": 111744,
            "time": 145.5,
            "velocity": 0.23622047244094488
          },
          {
            "duration": 0,
            "durationTicks": 0,
            "midi": 61,
            "name": "C#4",
            "ticks": 111744,
            "time": 145.5,
            "velocity": 0.2755905511811024
          },
          {
            "duration": 0.25,
            "durationTicks": 192,
            "midi": 81,
            "name": "A5",
            "ticks": 111744,
            "time": 145.5,
            "velocity": 0.2204724409448819
          },
          {
            "duration": 0,
            "durationTicks": 0,
            "midi": 38,
            "name": "D2",
            "ticks": 111744,
            "time": 145.5,
            "velocity": 0.33070866141732286
          },
          {
            "duration": 0.25,
            "durationTicks": 192,
            "midi": 81,
            "name": "A5",
            "ticks": 111744,
            "time": 145.5,
            "velocity": 0.2204724409448819
          },
          {
            "duration": 0,
            "durationTicks": 0,
            "midi": 60,
            "name": "C4",
            "ticks": 111840,
            "time": 145.625,
            "velocity": 0.2755905511811024
          },
          {
            "duration": 0.25,
            "durationTicks": 192,
            "midi": 62,
            "name": "D4",
            "ticks": 111936,
            "time": 145.75,
            "velocity": 0.25196850393700787
          },
          {
            "duration": 0.25,
            "durationTicks": 192,
            "midi": 67,
            "name": "G4",
            "ticks": 111936,
            "time": 145.75,
            "velocity": 0.14173228346456693
          },
          {
            "duration": 0.25,
            "durationTicks": 192,
            "midi": 59,
            "name": "B3",
            "ticks": 111936,
            "time": 145.75,
            "velocity": 0.2047244094488189
          },
          {
            "duration": 0.25,
            "durationTicks": 192,
            "midi": 41,
            "name": "F2",
            "ticks": 111936,
            "time": 145.75,
            "velocity": 0.2992125984251969
          },
          {
            "duration": 0.25,
            "durationTicks": 192,
            "midi": 84,
            "name": "C6",
            "ticks": 111936,
            "time": 145.75,
            "velocity": 0.2125984251968504
          },
          {
            "duration": 0,
            "durationTicks": 0,
            "midi": 46,
            "name": "A#2",
            "ticks": 111936,
            "time": 145.75,
            "velocity": 0.2677165354330709
          },
          {
            "duration": 0.25,
            "durationTicks": 192,
            "midi": 84,
            "name": "C6",
            "ticks": 111936,
            "time": 145.75,
            "velocity": 0.2125984251968504
          },
          {
            "duration": 0,
            "durationTicks": 0,
            "midi": 61,
            "name": "C#4",
            "ticks": 111936,
            "time": 145.75,
            "velocity": 0.28346456692913385
          },
          {
            "duration": 0,
            "durationTicks": 0,
            "midi": 36,
            "name": "C2",
            "ticks": 112128,
            "time": 146,
            "velocity": 0.3700787401574803
          },
          {
            "duration": 0.5,
            "durationTicks": 384,
            "midi": 88,
            "name": "E6",
            "ticks": 112128,
            "time": 146,
            "velocity": 0.2204724409448819
          },
          {
            "duration": 0.5,
            "durationTicks": 384,
            "midi": 55,
            "name": "G3",
            "ticks": 112128,
            "time": 146,
            "velocity": 0.2755905511811024
          },
          {
            "duration": 0.5,
            "durationTicks": 384,
            "midi": 52,
            "name": "E3",
            "ticks": 112128,
            "time": 146,
            "velocity": 0.2755905511811024
          },
          {
            "duration": 0,
            "durationTicks": 0,
            "midi": 44,
            "name": "G#2",
            "ticks": 112128,
            "time": 146,
            "velocity": 0.25984251968503935
          },
          {
            "duration": 0.125,
            "durationTicks": 96,
            "midi": 43,
            "name": "G2",
            "ticks": 112128,
            "time": 146,
            "velocity": 0.31496062992125984
          },
          {
            "duration": 0,
            "durationTicks": 0,
            "midi": 54,
            "name": "F#3",
            "ticks": 112128,
            "time": 146,
            "velocity": 0.2204724409448819
          },
          {
            "duration": 0,
            "durationTicks": 0,
            "midi": 60,
            "name": "C4",
            "ticks": 112128,
            "time": 146,
            "velocity": 0.2755905511811024
          },
          {
            "duration": 0.5,
            "durationTicks": 384,
            "midi": 88,
            "name": "E6",
            "ticks": 112128,
            "time": 146,
            "velocity": 0.2204724409448819
          },
          {
            "duration": 0.125,
            "durationTicks": 96,
            "midi": 43,
            "name": "G2",
            "ticks": 112320,
            "time": 146.25,
            "velocity": 0.31496062992125984
          },
          {
            "duration": 0.125,
            "durationTicks": 96,
            "midi": 62,
            "name": "D4",
            "ticks": 112512,
            "time": 146.5,
            "velocity": 0.2992125984251969
          },
          {
            "duration": 0,
            "durationTicks": 0,
            "midi": 44,
            "name": "G#2",
            "ticks": 112512,
            "time": 146.5,
            "velocity": 0.2677165354330709
          },
          {
            "duration": 0.125,
            "durationTicks": 96,
            "midi": 59,
            "name": "B3",
            "ticks": 112512,
            "time": 146.5,
            "velocity": 0.1968503937007874
          },
          {
            "duration": 0.125,
            "durationTicks": 96,
            "midi": 43,
            "name": "G2",
            "ticks": 112512,
            "time": 146.5,
            "velocity": 0.2992125984251969
          },
          {
            "duration": 0.125,
            "durationTicks": 96,
            "midi": 67,
            "name": "G4",
            "ticks": 112512,
            "time": 146.5,
            "velocity": 0.18110236220472442
          },
          {
            "duration": 0.25,
            "durationTicks": 192,
            "midi": 69,
            "name": "A4",
            "ticks": 112512,
            "time": 146.5,
            "velocity": 0.31496062992125984
          },
          {
            "duration": 0.5,
            "durationTicks": 384,
            "midi": 86,
            "name": "D6",
            "ticks": 112512,
            "time": 146.5,
            "velocity": 0.1968503937007874
          },
          {
            "duration": 0.5,
            "durationTicks": 384,
            "midi": 86,
            "name": "D6",
            "ticks": 112512,
            "time": 146.5,
            "velocity": 0.1968503937007874
          },
          {
            "duration": 0,
            "durationTicks": 0,
            "midi": 61,
            "name": "C#4",
            "ticks": 112512,
            "time": 146.5,
            "velocity": 0.2755905511811024
          },
          {
            "duration": 0,
            "durationTicks": 0,
            "midi": 38,
            "name": "D2",
            "ticks": 112512,
            "time": 146.5,
            "velocity": 0.33858267716535434
          },
          {
            "duration": 0,
            "durationTicks": 0,
            "midi": 54,
            "name": "F#3",
            "ticks": 112512,
            "time": 146.5,
            "velocity": 0.2283464566929134
          },
          {
            "duration": 0.375,
            "durationTicks": 288,
            "midi": 55,
            "name": "G3",
            "ticks": 112704,
            "time": 146.75,
            "velocity": 0.2755905511811024
          },
          {
            "duration": 0.375,
            "durationTicks": 288,
            "midi": 50,
            "name": "D3",
            "ticks": 112704,
            "time": 146.75,
            "velocity": 0.25196850393700787
          },
          {
            "duration": 0.125,
            "durationTicks": 96,
            "midi": 43,
            "name": "G2",
            "ticks": 112704,
            "time": 146.75,
            "velocity": 0.2992125984251969
          },
          {
            "duration": 0.25,
            "durationTicks": 192,
            "midi": 64,
            "name": "E4",
            "ticks": 112896,
            "time": 147,
            "velocity": 0.3228346456692913
          },
          {
            "duration": 0.125,
            "durationTicks": 96,
            "midi": 43,
            "name": "G2",
            "ticks": 112896,
            "time": 147,
            "velocity": 0.30708661417322836
          },
          {
            "duration": 0.25,
            "durationTicks": 192,
            "midi": 59,
            "name": "B3",
            "ticks": 112896,
            "time": 147,
            "velocity": 0.1889763779527559
          },
          {
            "duration": 0.25,
            "durationTicks": 192,
            "midi": 62,
            "name": "D4",
            "ticks": 112896,
            "time": 147,
            "velocity": 0.29133858267716534
          },
          {
            "duration": 0,
            "durationTicks": 0,
            "midi": 36,
            "name": "C2",
            "ticks": 112896,
            "time": 147,
            "velocity": 0.3700787401574803
          },
          {
            "duration": 0,
            "durationTicks": 0,
            "midi": 54,
            "name": "F#3",
            "ticks": 112896,
            "time": 147,
            "velocity": 0.2440944881889764
          },
          {
            "duration": 0,
            "durationTicks": 0,
            "midi": 60,
            "name": "C4",
            "ticks": 112896,
            "time": 147,
            "velocity": 0.28346456692913385
          },
          {
            "duration": 0,
            "durationTicks": 0,
            "midi": 44,
            "name": "G#2",
            "ticks": 112896,
            "time": 147,
            "velocity": 0.25984251968503935
          },
          {
            "duration": 0.25,
            "durationTicks": 192,
            "midi": 67,
            "name": "G4",
            "ticks": 112896,
            "time": 147,
            "velocity": 0.2283464566929134
          },
          {
            "duration": 0.5,
            "durationTicks": 384,
            "midi": 84,
            "name": "C6",
            "ticks": 112896,
            "time": 147,
            "velocity": 0.2125984251968504
          },
          {
            "duration": 0.5,
            "durationTicks": 384,
            "midi": 84,
            "name": "C6",
            "ticks": 112896,
            "time": 147,
            "velocity": 0.2125984251968504
          },
          {
            "duration": 0,
            "durationTicks": 0,
            "midi": 38,
            "name": "D2",
            "ticks": 113088,
            "time": 147.25,
            "velocity": 0.33070866141732286
          },
          {
            "duration": 0.25,
            "durationTicks": 192,
            "midi": 43,
            "name": "G2",
            "ticks": 113088,
            "time": 147.25,
            "velocity": 0.2992125984251969
          },
          {
            "duration": 0.125,
            "durationTicks": 96,
            "midi": 59,
            "name": "B3",
            "ticks": 113088,
            "time": 147.25,
            "velocity": 0.2125984251968504
          },
          {
            "duration": 0.125,
            "durationTicks": 96,
            "midi": 67,
            "name": "G4",
            "ticks": 113088,
            "time": 147.25,
            "velocity": 0.2440944881889764
          },
          {
            "duration": 0.125,
            "durationTicks": 96,
            "midi": 62,
            "name": "D4",
            "ticks": 113088,
            "time": 147.25,
            "velocity": 0.2125984251968504
          },
          {
            "duration": 0.25,
            "durationTicks": 192,
            "midi": 55,
            "name": "G3",
            "ticks": 113088,
            "time": 147.25,
            "velocity": 0.2677165354330709
          },
          {
            "duration": 0.5,
            "durationTicks": 384,
            "midi": 55,
            "name": "G3",
            "ticks": 113088,
            "time": 147.25,
            "velocity": 0.2677165354330709
          },
          {
            "duration": 0.5,
            "durationTicks": 384,
            "midi": 50,
            "name": "D3",
            "ticks": 113088,
            "time": 147.25,
            "velocity": 0.2755905511811024
          },
          {
            "duration": 0.25,
            "durationTicks": 192,
            "midi": 45,
            "name": "A2",
            "ticks": 113280,
            "time": 147.5,
            "velocity": 0.30708661417322836
          },
          {
            "duration": 0,
            "durationTicks": 0,
            "midi": 61,
            "name": "C#4",
            "ticks": 113280,
            "time": 147.5,
            "velocity": 0.2755905511811024
          },
          {
            "duration": 0.5,
            "durationTicks": 384,
            "midi": 81,
            "name": "A5",
            "ticks": 113280,
            "time": 147.5,
            "velocity": 0.1968503937007874
          },
          {
            "duration": 0,
            "durationTicks": 0,
            "midi": 44,
            "name": "G#2",
            "ticks": 113280,
            "time": 147.5,
            "velocity": 0.2677165354330709
          },
          {
            "duration": 0.5,
            "durationTicks": 384,
            "midi": 81,
            "name": "A5",
            "ticks": 113280,
            "time": 147.5,
            "velocity": 0.1968503937007874
          },
          {
            "duration": 0,
            "durationTicks": 0,
            "midi": 54,
            "name": "F#3",
            "ticks": 113280,
            "time": 147.5,
            "velocity": 0.2283464566929134
          },
          {
            "duration": 0,
            "durationTicks": 0,
            "midi": 38,
            "name": "D2",
            "ticks": 113280,
            "time": 147.5,
            "velocity": 0.33858267716535434
          },
          {
            "duration": 0,
            "durationTicks": 0,
            "midi": 38,
            "name": "D2",
            "ticks": 113376,
            "time": 147.625,
            "velocity": 0.33858267716535434
          },
          {
            "duration": 0,
            "durationTicks": 0,
            "midi": 46,
            "name": "A#2",
            "ticks": 113472,
            "time": 147.75,
            "velocity": 0.2755905511811024
          },
          {
            "duration": 0,
            "durationTicks": 0,
            "midi": 38,
            "name": "D2",
            "ticks": 113472,
            "time": 147.75,
            "velocity": 0.33858267716535434
          },
          {
            "duration": 0.125,
            "durationTicks": 96,
            "midi": 43,
            "name": "G2",
            "ticks": 113472,
            "time": 147.75,
            "velocity": 0.2992125984251969
          },
          {
            "duration": 0,
            "durationTicks": 0,
            "midi": 60,
            "name": "C4",
            "ticks": 113664,
            "time": 148,
            "velocity": 0.31496062992125984
          },
          {
            "duration": 0.125,
            "durationTicks": 96,
            "midi": 60,
            "name": "C4",
            "ticks": 113664,
            "time": 148,
            "velocity": 0.31496062992125984
          },
          {
            "duration": 0,
            "durationTicks": 0,
            "midi": 49,
            "name": "C#3",
            "ticks": 113664,
            "time": 148,
            "velocity": 0.2755905511811024
          },
          {
            "duration": 0,
            "durationTicks": 0,
            "midi": 54,
            "name": "F#3",
            "ticks": 113664,
            "time": 148,
            "velocity": 0.2204724409448819
          },
          {
            "duration": 1,
            "durationTicks": 768,
            "midi": 64,
            "name": "E4",
            "ticks": 113664,
            "time": 148,
            "velocity": 0.1889763779527559
          },
          {
            "duration": 0,
            "durationTicks": 0,
            "midi": 44,
            "name": "G#2",
            "ticks": 113664,
            "time": 148,
            "velocity": 0.25984251968503935
          },
          {
            "duration": 1.125,
            "durationTicks": 864,
            "midi": 84,
            "name": "C6",
            "ticks": 113664,
            "time": 148,
            "velocity": 0.2047244094488189
          },
          {
            "duration": 0,
            "durationTicks": 0,
            "midi": 36,
            "name": "C2",
            "ticks": 113664,
            "time": 148,
            "velocity": 0.2992125984251969
          },
          {
            "duration": 1.125,
            "durationTicks": 864,
            "midi": 48,
            "name": "C3",
            "ticks": 113664,
            "time": 148,
            "velocity": 0.2204724409448819
          },
          {
            "duration": 1,
            "durationTicks": 768,
            "midi": 55,
            "name": "G3",
            "ticks": 113664,
            "time": 148,
            "velocity": 0.1889763779527559
          },
          {
            "duration": 1.125,
            "durationTicks": 864,
            "midi": 48,
            "name": "C3",
            "ticks": 113664,
            "time": 148,
            "velocity": 0.2204724409448819
          },
          {
            "duration": 1.125,
            "durationTicks": 864,
            "midi": 84,
            "name": "C6",
            "ticks": 113664,
            "time": 148,
            "velocity": 0.2047244094488189
          },
          {
            "duration": 0.375,
            "durationTicks": 288,
            "midi": 36,
            "name": "C2",
            "ticks": 113664,
            "time": 148,
            "velocity": 0.2992125984251969
          },
          {
            "duration": 1.125,
            "durationTicks": 864,
            "midi": 52,
            "name": "E3",
            "ticks": 113664,
            "time": 148,
            "velocity": 0.25984251968503935
          },
          {
            "duration": 0.125,
            "durationTicks": 96,
            "midi": 60,
            "name": "C4",
            "ticks": 113760,
            "time": 148.125,
            "velocity": 0.31496062992125984
          },
          {
            "duration": 0.125,
            "durationTicks": 96,
            "midi": 60,
            "name": "C4",
            "ticks": 113856,
            "time": 148.25,
            "velocity": 0.3228346456692913
          },
          {
            "duration": 0,
            "durationTicks": 0,
            "midi": 54,
            "name": "F#3",
            "ticks": 114048,
            "time": 148.5,
            "velocity": 0.23622047244094488
          },
          {
            "duration": 0,
            "durationTicks": 0,
            "midi": 61,
            "name": "C#4",
            "ticks": 114048,
            "time": 148.5,
            "velocity": 0.29133858267716534
          },
          {
            "duration": 0.125,
            "durationTicks": 96,
            "midi": 60,
            "name": "C4",
            "ticks": 114048,
            "time": 148.5,
            "velocity": 0.33858267716535434
          },
          {
            "duration": 0.375,
            "durationTicks": 288,
            "midi": 36,
            "name": "C2",
            "ticks": 114048,
            "time": 148.5,
            "velocity": 0.2992125984251969
          },
          {
            "duration": 0,
            "durationTicks": 0,
            "midi": 38,
            "name": "D2",
            "ticks": 114048,
            "time": 148.5,
            "velocity": 0.33858267716535434
          },
          {
            "duration": 0,
            "durationTicks": 0,
            "midi": 44,
            "name": "G#2",
            "ticks": 114048,
            "time": 148.5,
            "velocity": 0.25984251968503935
          },
          {
            "duration": 0.125,
            "durationTicks": 96,
            "midi": 60,
            "name": "C4",
            "ticks": 114144,
            "time": 148.625,
            "velocity": 0.33858267716535434
          },
          {
            "duration": 0.125,
            "durationTicks": 96,
            "midi": 60,
            "name": "C4",
            "ticks": 114240,
            "time": 148.75,
            "velocity": 0.33858267716535434
          },
          {
            "duration": 0.25,
            "durationTicks": 192,
            "midi": 60,
            "name": "C4",
            "ticks": 114240,
            "time": 148.75,
            "velocity": 0.33858267716535434
          },
          {
            "duration": 0,
            "durationTicks": 0,
            "midi": 60,
            "name": "C4",
            "ticks": 114432,
            "time": 149,
            "velocity": 0.2755905511811024
          },
          {
            "duration": 0,
            "durationTicks": 0,
            "midi": 36,
            "name": "C2",
            "ticks": 114432,
            "time": 149,
            "velocity": 0.30708661417322836
          },
          {
            "duration": 0,
            "durationTicks": 0,
            "midi": 54,
            "name": "F#3",
            "ticks": 114432,
            "time": 149,
            "velocity": 0.2283464566929134
          },
          {
            "duration": 0,
            "durationTicks": 0,
            "midi": 44,
            "name": "G#2",
            "ticks": 114432,
            "time": 149,
            "velocity": 0.25984251968503935
          },
          {
            "duration": 0.125,
            "durationTicks": 96,
            "midi": 36,
            "name": "C2",
            "ticks": 114432,
            "time": 149,
            "velocity": 0.30708661417322836
          },
          {
            "duration": 0.125,
            "durationTicks": 96,
            "midi": 64,
            "name": "E4",
            "ticks": 114624,
            "time": 149.25,
            "velocity": 0.23622047244094488
          },
          {
            "duration": 0.25,
            "durationTicks": 192,
            "midi": 60,
            "name": "C4",
            "ticks": 114624,
            "time": 149.25,
            "velocity": 0.25196850393700787
          },
          {
            "duration": 0.25,
            "durationTicks": 192,
            "midi": 84,
            "name": "C6",
            "ticks": 114624,
            "time": 149.25,
            "velocity": 0.1889763779527559
          },
          {
            "duration": 0.125,
            "durationTicks": 96,
            "midi": 48,
            "name": "C3",
            "ticks": 114624,
            "time": 149.25,
            "velocity": 0.2755905511811024
          },
          {
            "duration": 0.375,
            "durationTicks": 288,
            "midi": 36,
            "name": "C2",
            "ticks": 114624,
            "time": 149.25,
            "velocity": 0.30708661417322836
          },
          {
            "duration": 0.25,
            "durationTicks": 192,
            "midi": 84,
            "name": "C6",
            "ticks": 114624,
            "time": 149.25,
            "velocity": 0.1889763779527559
          },
          {
            "duration": 0.25,
            "durationTicks": 192,
            "midi": 55,
            "name": "G3",
            "ticks": 114624,
            "time": 149.25,
            "velocity": 0.1889763779527559
          },
          {
            "duration": 0.25,
            "durationTicks": 192,
            "midi": 64,
            "name": "E4",
            "ticks": 114624,
            "time": 149.25,
            "velocity": 0.23622047244094488
          },
          {
            "duration": 0.125,
            "durationTicks": 96,
            "midi": 52,
            "name": "E3",
            "ticks": 114624,
            "time": 149.25,
            "velocity": 0.25984251968503935
          },
          {
            "duration": 0.25,
            "durationTicks": 192,
            "midi": 81,
            "name": "A5",
            "ticks": 114816,
            "time": 149.5,
            "velocity": 0.2125984251968504
          },
          {
            "duration": 0.25,
            "durationTicks": 192,
            "midi": 81,
            "name": "A5",
            "ticks": 114816,
            "time": 149.5,
            "velocity": 0.2125984251968504
          },
          {
            "duration": 0,
            "durationTicks": 0,
            "midi": 54,
            "name": "F#3",
            "ticks": 114816,
            "time": 149.5,
            "velocity": 0.2204724409448819
          },
          {
            "duration": 0,
            "durationTicks": 0,
            "midi": 61,
            "name": "C#4",
            "ticks": 114816,
            "time": 149.5,
            "velocity": 0.2755905511811024
          },
          {
            "duration": 0,
            "durationTicks": 0,
            "midi": 38,
            "name": "D2",
            "ticks": 114816,
            "time": 149.5,
            "velocity": 0.33070866141732286
          },
          {
            "duration": 0,
            "durationTicks": 0,
            "midi": 44,
            "name": "G#2",
            "ticks": 114816,
            "time": 149.5,
            "velocity": 0.2677165354330709
          },
          {
            "duration": 0,
            "durationTicks": 0,
            "midi": 60,
            "name": "C4",
            "ticks": 114912,
            "time": 149.625,
            "velocity": 0.28346456692913385
          },
          {
            "duration": 0.25,
            "durationTicks": 192,
            "midi": 36,
            "name": "C2",
            "ticks": 115008,
            "time": 149.75,
            "velocity": 0.2992125984251969
          },
          {
            "duration": 0,
            "durationTicks": 0,
            "midi": 61,
            "name": "C#4",
            "ticks": 115008,
            "time": 149.75,
            "velocity": 0.28346456692913385
          },
          {
            "duration": 0.5,
            "durationTicks": 384,
            "midi": 57,
            "name": "A3",
            "ticks": 115008,
            "time": 149.75,
            "velocity": 0.23622047244094488
          },
          {
            "duration": 0.25,
            "durationTicks": 192,
            "midi": 66,
            "name": "F#4",
            "ticks": 115008,
            "time": 149.75,
            "velocity": 0.1732283464566929
          },
          {
            "duration": 0.25,
            "durationTicks": 192,
            "midi": 84,
            "name": "C6",
            "ticks": 115008,
            "time": 149.75,
            "velocity": 0.1889763779527559
          },
          {
            "duration": 0,
            "durationTicks": 0,
            "midi": 46,
            "name": "A#2",
            "ticks": 115008,
            "time": 149.75,
            "velocity": 0.2677165354330709
          },
          {
            "duration": 0.25,
            "durationTicks": 192,
            "midi": 84,
            "name": "C6",
            "ticks": 115008,
            "time": 149.75,
            "velocity": 0.1889763779527559
          },
          {
            "duration": 0.25,
            "durationTicks": 192,
            "midi": 60,
            "name": "C4",
            "ticks": 115008,
            "time": 149.75,
            "velocity": 0.2125984251968504
          },
          {
            "duration": 1.25,
            "durationTicks": 960,
            "midi": 50,
            "name": "D3",
            "ticks": 115008,
            "time": 149.75,
            "velocity": 0.2125984251968504
          },
          {
            "duration": 0,
            "durationTicks": 0,
            "midi": 60,
            "name": "C4",
            "ticks": 115200,
            "time": 150,
            "velocity": 0.2440944881889764
          },
          {
            "duration": 0.25,
            "durationTicks": 192,
            "midi": 66,
            "name": "F#4",
            "ticks": 115200,
            "time": 150,
            "velocity": 0.2047244094488189
          },
          {
            "duration": 0.375,
            "durationTicks": 288,
            "midi": 38,
            "name": "D2",
            "ticks": 115200,
            "time": 150,
            "velocity": 0.2992125984251969
          },
          {
            "duration": 0,
            "durationTicks": 0,
            "midi": 44,
            "name": "G#2",
            "ticks": 115200,
            "time": 150,
            "velocity": 0.2677165354330709
          },
          {
            "duration": 1.375,
            "durationTicks": 1056,
            "midi": 88,
            "name": "E6",
            "ticks": 115200,
            "time": 150,
            "velocity": 0.2047244094488189
          },
          {
            "duration": 1.375,
            "durationTicks": 1056,
            "midi": 88,
            "name": "E6",
            "ticks": 115200,
            "time": 150,
            "velocity": 0.2047244094488189
          },
          {
            "duration": 0.25,
            "durationTicks": 192,
            "midi": 60,
            "name": "C4",
            "ticks": 115200,
            "time": 150,
            "velocity": 0.2440944881889764
          },
          {
            "duration": 0,
            "durationTicks": 0,
            "midi": 54,
            "name": "F#3",
            "ticks": 115200,
            "time": 150,
            "velocity": 0.2204724409448819
          },
          {
            "duration": 0,
            "durationTicks": 0,
            "midi": 36,
            "name": "C2",
            "ticks": 115200,
            "time": 150,
            "velocity": 0.36220472440944884
          },
          {
            "duration": 0,
            "durationTicks": 0,
            "midi": 61,
            "name": "C#4",
            "ticks": 115584,
            "time": 150.5,
            "velocity": 0.28346456692913385
          },
          {
            "duration": 0,
            "durationTicks": 0,
            "midi": 38,
            "name": "D2",
            "ticks": 115584,
            "time": 150.5,
            "velocity": 0.30708661417322836
          },
          {
            "duration": 0.25,
            "durationTicks": 192,
            "midi": 66,
            "name": "F#4",
            "ticks": 115584,
            "time": 150.5,
            "velocity": 0.1889763779527559
          },
          {
            "duration": 0.25,
            "durationTicks": 192,
            "midi": 57,
            "name": "A3",
            "ticks": 115584,
            "time": 150.5,
            "velocity": 0.1889763779527559
          },
          {
            "duration": 0.25,
            "durationTicks": 192,
            "midi": 69,
            "name": "A4",
            "ticks": 115584,
            "time": 150.5,
            "velocity": 0.31496062992125984
          },
          {
            "duration": 0.25,
            "durationTicks": 192,
            "midi": 38,
            "name": "D2",
            "ticks": 115584,
            "time": 150.5,
            "velocity": 0.30708661417322836
          },
          {
            "duration": 0,
            "durationTicks": 0,
            "midi": 44,
            "name": "G#2",
            "ticks": 115584,
            "time": 150.5,
            "velocity": 0.2677165354330709
          },
          {
            "duration": 0,
            "durationTicks": 0,
            "midi": 54,
            "name": "F#3",
            "ticks": 115584,
            "time": 150.5,
            "velocity": 0.23622047244094488
          },
          {
            "duration": 0.25,
            "durationTicks": 192,
            "midi": 60,
            "name": "C4",
            "ticks": 115584,
            "time": 150.5,
            "velocity": 0.25196850393700787
          },
          {
            "duration": 0.5,
            "durationTicks": 384,
            "midi": 54,
            "name": "F#3",
            "ticks": 115584,
            "time": 150.5,
            "velocity": 0.23622047244094488
          },
          {
            "duration": 0.25,
            "durationTicks": 192,
            "midi": 57,
            "name": "A3",
            "ticks": 115968,
            "time": 151,
            "velocity": 0.1968503937007874
          },
          {
            "duration": 0,
            "durationTicks": 0,
            "midi": 60,
            "name": "C4",
            "ticks": 115968,
            "time": 151,
            "velocity": 0.2440944881889764
          },
          {
            "duration": 0.25,
            "durationTicks": 192,
            "midi": 66,
            "name": "F#4",
            "ticks": 115968,
            "time": 151,
            "velocity": 0.2047244094488189
          },
          {
            "duration": 0.25,
            "durationTicks": 192,
            "midi": 60,
            "name": "C4",
            "ticks": 115968,
            "time": 151,
            "velocity": 0.2440944881889764
          },
          {
            "duration": 0.375,
            "durationTicks": 288,
            "midi": 64,
            "name": "E4",
            "ticks": 115968,
            "time": 151,
            "velocity": 0.3228346456692913
          },
          {
            "duration": 0,
            "durationTicks": 0,
            "midi": 54,
            "name": "F#3",
            "ticks": 115968,
            "time": 151,
            "velocity": 0.2204724409448819
          },
          {
            "duration": 0,
            "durationTicks": 0,
            "midi": 36,
            "name": "C2",
            "ticks": 115968,
            "time": 151,
            "velocity": 0.3700787401574803
          },
          {
            "duration": 0,
            "durationTicks": 0,
            "midi": 44,
            "name": "G#2",
            "ticks": 115968,
            "time": 151,
            "velocity": 0.2677165354330709
          },
          {
            "duration": 0.125,
            "durationTicks": 96,
            "midi": 50,
            "name": "D3",
            "ticks": 115968,
            "time": 151,
            "velocity": 0.2992125984251969
          },
          {
            "duration": 0.125,
            "durationTicks": 96,
            "midi": 50,
            "name": "D3",
            "ticks": 115968,
            "time": 151,
            "velocity": 0.2992125984251969
          },
          {
            "duration": 0.125,
            "durationTicks": 96,
            "midi": 51,
            "name": "D#3",
            "ticks": 116064,
            "time": 151.125,
            "velocity": 0.2992125984251969
          },
          {
            "duration": 0.125,
            "durationTicks": 96,
            "midi": 50,
            "name": "D3",
            "ticks": 116160,
            "time": 151.25,
            "velocity": 0.25984251968503935
          },
          {
            "duration": 0.25,
            "durationTicks": 192,
            "midi": 52,
            "name": "E3",
            "ticks": 116160,
            "time": 151.25,
            "velocity": 0.31496062992125984
          },
          {
            "duration": 0.25,
            "durationTicks": 192,
            "midi": 57,
            "name": "A3",
            "ticks": 116160,
            "time": 151.25,
            "velocity": 0.1889763779527559
          },
          {
            "duration": 0.25,
            "durationTicks": 192,
            "midi": 60,
            "name": "C4",
            "ticks": 116160,
            "time": 151.25,
            "velocity": 0.25196850393700787
          },
          {
            "duration": 0.25,
            "durationTicks": 192,
            "midi": 66,
            "name": "F#4",
            "ticks": 116160,
            "time": 151.25,
            "velocity": 0.25984251968503935
          },
          {
            "duration": 0.125,
            "durationTicks": 96,
            "midi": 54,
            "name": "F#3",
            "ticks": 116160,
            "time": 151.25,
            "velocity": 0.25984251968503935
          },
          {
            "duration": 0.125,
            "durationTicks": 96,
            "midi": 88,
            "name": "E6",
            "ticks": 116352,
            "time": 151.5,
            "velocity": 0.2047244094488189
          },
          {
            "duration": 0.125,
            "durationTicks": 96,
            "midi": 88,
            "name": "E6",
            "ticks": 116352,
            "time": 151.5,
            "velocity": 0.2047244094488189
          },
          {
            "duration": 0,
            "durationTicks": 0,
            "midi": 54,
            "name": "F#3",
            "ticks": 116352,
            "time": 151.5,
            "velocity": 0.30708661417322836
          },
          {
            "duration": 0,
            "durationTicks": 0,
            "midi": 38,
            "name": "D2",
            "ticks": 116352,
            "time": 151.5,
            "velocity": 0.33858267716535434
          },
          {
            "duration": 0,
            "durationTicks": 0,
            "midi": 44,
            "name": "G#2",
            "ticks": 116352,
            "time": 151.5,
            "velocity": 0.2677165354330709
          },
          {
            "duration": 0.125,
            "durationTicks": 96,
            "midi": 54,
            "name": "F#3",
            "ticks": 116352,
            "time": 151.5,
            "velocity": 0.30708661417322836
          },
          {
            "duration": 0,
            "durationTicks": 0,
            "midi": 61,
            "name": "C#4",
            "ticks": 116352,
            "time": 151.5,
            "velocity": 0.29133858267716534
          },
          {
            "duration": 0.125,
            "durationTicks": 96,
            "midi": 86,
            "name": "D6",
            "ticks": 116448,
            "time": 151.625,
            "velocity": 0.2125984251968504
          },
          {
            "duration": 0.125,
            "durationTicks": 96,
            "midi": 54,
            "name": "F#3",
            "ticks": 116448,
            "time": 151.625,
            "velocity": 0.2992125984251969
          },
          {
            "duration": 0.125,
            "durationTicks": 96,
            "midi": 86,
            "name": "D6",
            "ticks": 116448,
            "time": 151.625,
            "velocity": 0.2125984251968504
          },
          {
            "duration": 0.125,
            "durationTicks": 96,
            "midi": 50,
            "name": "D3",
            "ticks": 116544,
            "time": 151.75,
            "velocity": 0.2992125984251969
          },
          {
            "duration": 1.375,
            "durationTicks": 1056,
            "midi": 53,
            "name": "F3",
            "ticks": 116544,
            "time": 151.75,
            "velocity": 0.25196850393700787
          },
          {
            "duration": 0.125,
            "durationTicks": 96,
            "midi": 84,
            "name": "C6",
            "ticks": 116544,
            "time": 151.75,
            "velocity": 0.2204724409448819
          },
          {
            "duration": 0,
            "durationTicks": 0,
            "midi": 46,
            "name": "A#2",
            "ticks": 116544,
            "time": 151.75,
            "velocity": 0.2677165354330709
          },
          {
            "duration": 0.125,
            "durationTicks": 96,
            "midi": 84,
            "name": "C6",
            "ticks": 116544,
            "time": 151.75,
            "velocity": 0.2204724409448819
          },
          {
            "duration": 0.125,
            "durationTicks": 96,
            "midi": 81,
            "name": "A5",
            "ticks": 116640,
            "time": 151.875,
            "velocity": 0.2125984251968504
          },
          {
            "duration": 0.125,
            "durationTicks": 96,
            "midi": 81,
            "name": "A5",
            "ticks": 116640,
            "time": 151.875,
            "velocity": 0.2125984251968504
          },
          {
            "duration": 1.125,
            "durationTicks": 864,
            "midi": 50,
            "name": "D3",
            "ticks": 116736,
            "time": 152,
            "velocity": 0.2125984251968504
          },
          {
            "duration": 1,
            "durationTicks": 768,
            "midi": 57,
            "name": "A3",
            "ticks": 116736,
            "time": 152,
            "velocity": 0.25984251968503935
          },
          {
            "duration": 0.375,
            "durationTicks": 288,
            "midi": 38,
            "name": "D2",
            "ticks": 116736,
            "time": 152,
            "velocity": 0.30708661417322836
          },
          {
            "duration": 1.125,
            "durationTicks": 864,
            "midi": 57,
            "name": "A3",
            "ticks": 116736,
            "time": 152,
            "velocity": 0.25984251968503935
          },
          {
            "duration": 1,
            "durationTicks": 768,
            "midi": 65,
            "name": "F4",
            "ticks": 116736,
            "time": 152,
            "velocity": 0.2125984251968504
          },
          {
            "duration": 1.25,
            "durationTicks": 960,
            "midi": 84,
            "name": "C6",
            "ticks": 116736,
            "time": 152,
            "velocity": 0.2125984251968504
          },
          {
            "duration": 1.25,
            "durationTicks": 960,
            "midi": 84,
            "name": "C6",
            "ticks": 116736,
            "time": 152,
            "velocity": 0.2125984251968504
          },
          {
            "duration": 0,
            "durationTicks": 0,
            "midi": 54,
            "name": "F#3",
            "ticks": 116736,
            "time": 152,
            "velocity": 0.2283464566929134
          },
          {
            "duration": 0,
            "durationTicks": 0,
            "midi": 36,
            "name": "C2",
            "ticks": 116736,
            "time": 152,
            "velocity": 0.36220472440944884
          },
          {
            "duration": 0,
            "durationTicks": 0,
            "midi": 44,
            "name": "G#2",
            "ticks": 116736,
            "time": 152,
            "velocity": 0.2677165354330709
          },
          {
            "duration": 0,
            "durationTicks": 0,
            "midi": 60,
            "name": "C4",
            "ticks": 116736,
            "time": 152,
            "velocity": 0.2677165354330709
          },
          {
            "duration": 1,
            "durationTicks": 768,
            "midi": 60,
            "name": "C4",
            "ticks": 116736,
            "time": 152,
            "velocity": 0.2677165354330709
          },
          {
            "duration": 0,
            "durationTicks": 0,
            "midi": 44,
            "name": "G#2",
            "ticks": 117120,
            "time": 152.5,
            "velocity": 0.25984251968503935
          },
          {
            "duration": 0,
            "durationTicks": 0,
            "midi": 54,
            "name": "F#3",
            "ticks": 117120,
            "time": 152.5,
            "velocity": 0.23622047244094488
          },
          {
            "duration": 0,
            "durationTicks": 0,
            "midi": 38,
            "name": "D2",
            "ticks": 117120,
            "time": 152.5,
            "velocity": 0.2992125984251969
          },
          {
            "duration": 0,
            "durationTicks": 0,
            "midi": 61,
            "name": "C#4",
            "ticks": 117120,
            "time": 152.5,
            "velocity": 0.2755905511811024
          },
          {
            "duration": 0.125,
            "durationTicks": 96,
            "midi": 64,
            "name": "E4",
            "ticks": 117120,
            "time": 152.5,
            "velocity": 0.3228346456692913
          },
          {
            "duration": 0.375,
            "durationTicks": 288,
            "midi": 38,
            "name": "D2",
            "ticks": 117120,
            "time": 152.5,
            "velocity": 0.2992125984251969
          },
          {
            "duration": 0.125,
            "durationTicks": 96,
            "midi": 64,
            "name": "E4",
            "ticks": 117312,
            "time": 152.75,
            "velocity": 0.31496062992125984
          },
          {
            "duration": 0,
            "durationTicks": 0,
            "midi": 36,
            "name": "C2",
            "ticks": 117504,
            "time": 153,
            "velocity": 0.3700787401574803
          },
          {
            "duration": 0,
            "durationTicks": 0,
            "midi": 44,
            "name": "G#2",
            "ticks": 117504,
            "time": 153,
            "velocity": 0.2677165354330709
          },
          {
            "duration": 0.125,
            "durationTicks": 96,
            "midi": 38,
            "name": "D2",
            "ticks": 117504,
            "time": 153,
            "velocity": 0.31496062992125984
          },
          {
            "duration": 0,
            "durationTicks": 0,
            "midi": 60,
            "name": "C4",
            "ticks": 117504,
            "time": 153,
            "velocity": 0.2755905511811024
          },
          {
            "duration": 0.25,
            "durationTicks": 192,
            "midi": 69,
            "name": "A4",
            "ticks": 117504,
            "time": 153,
            "velocity": 0.33858267716535434
          },
          {
            "duration": 0,
            "durationTicks": 0,
            "midi": 54,
            "name": "F#3",
            "ticks": 117504,
            "time": 153,
            "velocity": 0.2283464566929134
          },
          {
            "duration": 0.125,
            "durationTicks": 96,
            "midi": 53,
            "name": "F3",
            "ticks": 117696,
            "time": 153.25,
            "velocity": 0.25984251968503935
          },
          {
            "duration": 0.25,
            "durationTicks": 192,
            "midi": 84,
            "name": "C6",
            "ticks": 117696,
            "time": 153.25,
            "velocity": 0.2125984251968504
          },
          {
            "duration": 0.25,
            "durationTicks": 192,
            "midi": 84,
            "name": "C6",
            "ticks": 117696,
            "time": 153.25,
            "velocity": 0.2125984251968504
          },
          {
            "duration": 0.125,
            "durationTicks": 96,
            "midi": 57,
            "name": "A3",
            "ticks": 117696,
            "time": 153.25,
            "velocity": 0.2283464566929134
          },
          {
            "duration": 0.25,
            "durationTicks": 192,
            "midi": 65,
            "name": "F4",
            "ticks": 117696,
            "time": 153.25,
            "velocity": 0.2204724409448819
          },
          {
            "duration": 0.25,
            "durationTicks": 192,
            "midi": 60,
            "name": "C4",
            "ticks": 117696,
            "time": 153.25,
            "velocity": 0.2204724409448819
          },
          {
            "duration": 0.25,
            "durationTicks": 192,
            "midi": 57,
            "name": "A3",
            "ticks": 117696,
            "time": 153.25,
            "velocity": 0.2283464566929134
          },
          {
            "duration": 0,
            "durationTicks": 0,
            "midi": 54,
            "name": "F#3",
            "ticks": 117888,
            "time": 153.5,
            "velocity": 0.2440944881889764
          },
          {
            "duration": 0,
            "durationTicks": 0,
            "midi": 38,
            "name": "D2",
            "ticks": 117888,
            "time": 153.5,
            "velocity": 0.33858267716535434
          },
          {
            "duration": 0,
            "durationTicks": 0,
            "midi": 44,
            "name": "G#2",
            "ticks": 117888,
            "time": 153.5,
            "velocity": 0.2677165354330709
          },
          {
            "duration": 0.125,
            "durationTicks": 96,
            "midi": 38,
            "name": "D2",
            "ticks": 117888,
            "time": 153.5,
            "velocity": 0.33858267716535434
          },
          {
            "duration": 0,
            "durationTicks": 0,
            "midi": 61,
            "name": "C#4",
            "ticks": 117888,
            "time": 153.5,
            "velocity": 0.28346456692913385
          },
          {
            "duration": 0.25,
            "durationTicks": 192,
            "midi": 81,
            "name": "A5",
            "ticks": 117888,
            "time": 153.5,
            "velocity": 0.1968503937007874
          },
          {
            "duration": 0.25,
            "durationTicks": 192,
            "midi": 64,
            "name": "E4",
            "ticks": 117888,
            "time": 153.5,
            "velocity": 0.33858267716535434
          },
          {
            "duration": 0.25,
            "durationTicks": 192,
            "midi": 81,
            "name": "A5",
            "ticks": 117888,
            "time": 153.5,
            "velocity": 0.1968503937007874
          },
          {
            "duration": 0,
            "durationTicks": 0,
            "midi": 60,
            "name": "C4",
            "ticks": 117984,
            "time": 153.625,
            "velocity": 0.28346456692913385
          },
          {
            "duration": 0.25,
            "durationTicks": 192,
            "midi": 67,
            "name": "G4",
            "ticks": 118080,
            "time": 153.75,
            "velocity": 0.14173228346456693
          },
          {
            "duration": 0,
            "durationTicks": 0,
            "midi": 46,
            "name": "A#2",
            "ticks": 118080,
            "time": 153.75,
            "velocity": 0.2677165354330709
          },
          {
            "duration": 0.25,
            "durationTicks": 192,
            "midi": 84,
            "name": "C6",
            "ticks": 118080,
            "time": 153.75,
            "velocity": 0.1968503937007874
          },
          {
            "duration": 0.25,
            "durationTicks": 192,
            "midi": 84,
            "name": "C6",
            "ticks": 118080,
            "time": 153.75,
            "velocity": 0.1968503937007874
          },
          {
            "duration": 0.25,
            "durationTicks": 192,
            "midi": 59,
            "name": "B3",
            "ticks": 118080,
            "time": 153.75,
            "velocity": 0.2047244094488189
          },
          {
            "duration": 0.25,
            "durationTicks": 192,
            "midi": 62,
            "name": "D4",
            "ticks": 118080,
            "time": 153.75,
            "velocity": 0.25196850393700787
          },
          {
            "duration": 0,
            "durationTicks": 0,
            "midi": 61,
            "name": "C#4",
            "ticks": 118080,
            "time": 153.75,
            "velocity": 0.2755905511811024
          },
          {
            "duration": 0.25,
            "durationTicks": 192,
            "midi": 38,
            "name": "D2",
            "ticks": 118080,
            "time": 153.75,
            "velocity": 0.2992125984251969
          },
          {
            "duration": 0.5,
            "durationTicks": 384,
            "midi": 52,
            "name": "E3",
            "ticks": 118272,
            "time": 154,
            "velocity": 0.2677165354330709
          },
          {
            "duration": 0.5,
            "durationTicks": 384,
            "midi": 88,
            "name": "E6",
            "ticks": 118272,
            "time": 154,
            "velocity": 0.1968503937007874
          },
          {
            "duration": 0.5,
            "durationTicks": 384,
            "midi": 55,
            "name": "G3",
            "ticks": 118272,
            "time": 154,
            "velocity": 0.25984251968503935
          },
          {
            "duration": 0,
            "durationTicks": 0,
            "midi": 54,
            "name": "F#3",
            "ticks": 118272,
            "time": 154,
            "velocity": 0.23622047244094488
          },
          {
            "duration": 0,
            "durationTicks": 0,
            "midi": 60,
            "name": "C4",
            "ticks": 118272,
            "time": 154,
            "velocity": 0.2755905511811024
          },
          {
            "duration": 0.125,
            "durationTicks": 96,
            "midi": 43,
            "name": "G2",
            "ticks": 118272,
            "time": 154,
            "velocity": 0.2992125984251969
          },
          {
            "duration": 0,
            "durationTicks": 0,
            "midi": 44,
            "name": "G#2",
            "ticks": 118272,
            "time": 154,
            "velocity": 0.2677165354330709
          },
          {
            "duration": 0,
            "durationTicks": 0,
            "midi": 36,
            "name": "C2",
            "ticks": 118272,
            "time": 154,
            "velocity": 0.3543307086614173
          },
          {
            "duration": 0.5,
            "durationTicks": 384,
            "midi": 88,
            "name": "E6",
            "ticks": 118272,
            "time": 154,
            "velocity": 0.1968503937007874
          },
          {
            "duration": 0.125,
            "durationTicks": 96,
            "midi": 43,
            "name": "G2",
            "ticks": 118464,
            "time": 154.25,
            "velocity": 0.2992125984251969
          },
          {
            "duration": 0,
            "durationTicks": 0,
            "midi": 38,
            "name": "D2",
            "ticks": 118648,
            "time": 154.48958333333334,
            "velocity": 0.33070866141732286
          },
          {
            "duration": 0.25,
            "durationTicks": 192,
            "midi": 69,
            "name": "A4",
            "ticks": 118656,
            "time": 154.5,
            "velocity": 0.3228346456692913
          },
          {
            "duration": 0,
            "durationTicks": 0,
            "midi": 61,
            "name": "C#4",
            "ticks": 118656,
            "time": 154.5,
            "velocity": 0.2755905511811024
          },
          {
            "duration": 0.125,
            "durationTicks": 96,
            "midi": 43,
            "name": "G2",
            "ticks": 118656,
            "time": 154.5,
            "velocity": 0.30708661417322836
          },
          {
            "duration": 0,
            "durationTicks": 0,
            "midi": 44,
            "name": "G#2",
            "ticks": 118656,
            "time": 154.5,
            "velocity": 0.2677165354330709
          },
          {
            "duration": 0.5,
            "durationTicks": 384,
            "midi": 86,
            "name": "D6",
            "ticks": 118656,
            "time": 154.5,
            "velocity": 0.1968503937007874
          },
          {
            "duration": 0.125,
            "durationTicks": 96,
            "midi": 62,
            "name": "D4",
            "ticks": 118656,
            "time": 154.5,
            "velocity": 0.2992125984251969
          },
          {
            "duration": 0,
            "durationTicks": 0,
            "midi": 54,
            "name": "F#3",
            "ticks": 118656,
            "time": 154.5,
            "velocity": 0.23622047244094488
          },
          {
            "duration": 0.125,
            "durationTicks": 96,
            "midi": 59,
            "name": "B3",
            "ticks": 118656,
            "time": 154.5,
            "velocity": 0.1968503937007874
          },
          {
            "duration": 0.5,
            "durationTicks": 384,
            "midi": 86,
            "name": "D6",
            "ticks": 118656,
            "time": 154.5,
            "velocity": 0.1968503937007874
          },
          {
            "duration": 0.125,
            "durationTicks": 96,
            "midi": 67,
            "name": "G4",
            "ticks": 118656,
            "time": 154.5,
            "velocity": 0.18110236220472442
          },
          {
            "duration": 0.125,
            "durationTicks": 96,
            "midi": 43,
            "name": "G2",
            "ticks": 118848,
            "time": 154.75,
            "velocity": 0.31496062992125984
          },
          {
            "duration": 0.375,
            "durationTicks": 288,
            "midi": 55,
            "name": "G3",
            "ticks": 118848,
            "time": 154.75,
            "velocity": 0.2755905511811024
          },
          {
            "duration": 0.375,
            "durationTicks": 288,
            "midi": 50,
            "name": "D3",
            "ticks": 118848,
            "time": 154.75,
            "velocity": 0.25984251968503935
          },
          {
            "duration": 0.375,
            "durationTicks": 288,
            "midi": 64,
            "name": "E4",
            "ticks": 119040,
            "time": 155,
            "velocity": 0.33858267716535434
          },
          {
            "duration": 0,
            "durationTicks": 0,
            "midi": 44,
            "name": "G#2",
            "ticks": 119040,
            "time": 155,
            "velocity": 0.25984251968503935
          },
          {
            "duration": 0.5,
            "durationTicks": 384,
            "midi": 88,
            "name": "E6",
            "ticks": 119040,
            "time": 155,
            "velocity": 0.2204724409448819
          },
          {
            "duration": 0.25,
            "durationTicks": 192,
            "midi": 67,
            "name": "G4",
            "ticks": 119040,
            "time": 155,
            "velocity": 0.2283464566929134
          },
          {
            "duration": 0.5,
            "durationTicks": 384,
            "midi": 88,
            "name": "E6",
            "ticks": 119040,
            "time": 155,
            "velocity": 0.2204724409448819
          },
          {
            "duration": 0,
            "durationTicks": 0,
            "midi": 54,
            "name": "F#3",
            "ticks": 119040,
            "time": 155,
            "velocity": 0.2440944881889764
          },
          {
            "duration": 0,
            "durationTicks": 0,
            "midi": 60,
            "name": "C4",
            "ticks": 119040,
            "time": 155,
            "velocity": 0.2755905511811024
          },
          {
            "duration": 0.25,
            "durationTicks": 192,
            "midi": 59,
            "name": "B3",
            "ticks": 119040,
            "time": 155,
            "velocity": 0.1889763779527559
          },
          {
            "duration": 0.25,
            "durationTicks": 192,
            "midi": 62,
            "name": "D4",
            "ticks": 119040,
            "time": 155,
            "velocity": 0.29133858267716534
          },
          {
            "duration": 0,
            "durationTicks": 0,
            "midi": 36,
            "name": "C2",
            "ticks": 119040,
            "time": 155,
            "velocity": 0.3700787401574803
          },
          {
            "duration": 0.125,
            "durationTicks": 96,
            "midi": 43,
            "name": "G2",
            "ticks": 119040,
            "time": 155,
            "velocity": 0.2992125984251969
          },
          {
            "duration": 0,
            "durationTicks": 0,
            "midi": 38,
            "name": "D2",
            "ticks": 119228,
            "time": 155.24479166666666,
            "velocity": 0.33858267716535434
          },
          {
            "duration": 0.125,
            "durationTicks": 96,
            "midi": 55,
            "name": "G3",
            "ticks": 119232,
            "time": 155.25,
            "velocity": 0.2755905511811024
          },
          {
            "duration": 0.125,
            "durationTicks": 96,
            "midi": 67,
            "name": "G4",
            "ticks": 119232,
            "time": 155.25,
            "velocity": 0.2440944881889764
          },
          {
            "duration": 0.75,
            "durationTicks": 576,
            "midi": 55,
            "name": "G3",
            "ticks": 119232,
            "time": 155.25,
            "velocity": 0.2755905511811024
          },
          {
            "duration": 0.25,
            "durationTicks": 192,
            "midi": 43,
            "name": "G2",
            "ticks": 119232,
            "time": 155.25,
            "velocity": 0.2992125984251969
          },
          {
            "duration": 0.125,
            "durationTicks": 96,
            "midi": 59,
            "name": "B3",
            "ticks": 119232,
            "time": 155.25,
            "velocity": 0.2125984251968504
          },
          {
            "duration": 0.125,
            "durationTicks": 96,
            "midi": 62,
            "name": "D4",
            "ticks": 119232,
            "time": 155.25,
            "velocity": 0.2125984251968504
          },
          {
            "duration": 0.75,
            "durationTicks": 576,
            "midi": 50,
            "name": "D3",
            "ticks": 119232,
            "time": 155.25,
            "velocity": 0.25984251968503935
          },
          {
            "duration": 0.5,
            "durationTicks": 384,
            "midi": 86,
            "name": "D6",
            "ticks": 119424,
            "time": 155.5,
            "velocity": 0.2204724409448819
          },
          {
            "duration": 0,
            "durationTicks": 0,
            "midi": 61,
            "name": "C#4",
            "ticks": 119424,
            "time": 155.5,
            "velocity": 0.29133858267716534
          },
          {
            "duration": 0,
            "durationTicks": 0,
            "midi": 54,
            "name": "F#3",
            "ticks": 119424,
            "time": 155.5,
            "velocity": 0.2283464566929134
          },
          {
            "duration": 0.25,
            "durationTicks": 192,
            "midi": 41,
            "name": "F2",
            "ticks": 119424,
            "time": 155.5,
            "velocity": 0.31496062992125984
          },
          {
            "duration": 0,
            "durationTicks": 0,
            "midi": 44,
            "name": "G#2",
            "ticks": 119424,
            "time": 155.5,
            "velocity": 0.25984251968503935
          },
          {
            "duration": 0.5,
            "durationTicks": 384,
            "midi": 86,
            "name": "D6",
            "ticks": 119424,
            "time": 155.5,
            "velocity": 0.2204724409448819
          },
          {
            "duration": 0,
            "durationTicks": 0,
            "midi": 38,
            "name": "D2",
            "ticks": 119428,
            "time": 155.50520833333334,
            "velocity": 0.33070866141732286
          },
          {
            "duration": 0.25,
            "durationTicks": 192,
            "midi": 40,
            "name": "E2",
            "ticks": 119616,
            "time": 155.75,
            "velocity": 0.30708661417322836
          },
          {
            "duration": 0,
            "durationTicks": 0,
            "midi": 46,
            "name": "A#2",
            "ticks": 119616,
            "time": 155.75,
            "velocity": 0.2755905511811024
          },
          {
            "duration": 0,
            "durationTicks": 0,
            "midi": 54,
            "name": "F#3",
            "ticks": 119808,
            "time": 156,
            "velocity": 0.2283464566929134
          },
          {
            "duration": 0,
            "durationTicks": 0,
            "midi": 60,
            "name": "C4",
            "ticks": 119808,
            "time": 156,
            "velocity": 0.3228346456692913
          },
          {
            "duration": 0,
            "durationTicks": 0,
            "midi": 44,
            "name": "G#2",
            "ticks": 119808,
            "time": 156,
            "velocity": 0.2677165354330709
          },
          {
            "duration": 0.125,
            "durationTicks": 96,
            "midi": 60,
            "name": "C4",
            "ticks": 119808,
            "time": 156,
            "velocity": 0.3228346456692913
          },
          {
            "duration": 0,
            "durationTicks": 0,
            "midi": 49,
            "name": "C#3",
            "ticks": 119808,
            "time": 156,
            "velocity": 0.28346456692913385
          },
          {
            "duration": 1.125,
            "durationTicks": 864,
            "midi": 48,
            "name": "C3",
            "ticks": 119808,
            "time": 156,
            "velocity": 0.25196850393700787
          },
          {
            "duration": 1,
            "durationTicks": 768,
            "midi": 64,
            "name": "E4",
            "ticks": 119808,
            "time": 156,
            "velocity": 0.1889763779527559
          },
          {
            "duration": 0,
            "durationTicks": 0,
            "midi": 36,
            "name": "C2",
            "ticks": 119808,
            "time": 156,
            "velocity": 0.30708661417322836
          },
          {
            "duration": 1.125,
            "durationTicks": 864,
            "midi": 84,
            "name": "C6",
            "ticks": 119808,
            "time": 156,
            "velocity": 0.2204724409448819
          },
          {
            "duration": 1.125,
            "durationTicks": 864,
            "midi": 84,
            "name": "C6",
            "ticks": 119808,
            "time": 156,
            "velocity": 0.2204724409448819
          },
          {
            "duration": 1.125,
            "durationTicks": 864,
            "midi": 52,
            "name": "E3",
            "ticks": 119808,
            "time": 156,
            "velocity": 0.25196850393700787
          },
          {
            "duration": 1,
            "durationTicks": 768,
            "midi": 55,
            "name": "G3",
            "ticks": 119808,
            "time": 156,
            "velocity": 0.1889763779527559
          },
          {
            "duration": 0.375,
            "durationTicks": 288,
            "midi": 36,
            "name": "C2",
            "ticks": 119808,
            "time": 156,
            "velocity": 0.30708661417322836
          },
          {
            "duration": 0.125,
            "durationTicks": 96,
            "midi": 60,
            "name": "C4",
            "ticks": 119904,
            "time": 156.125,
            "velocity": 0.33858267716535434
          },
          {
            "duration": 0.125,
            "durationTicks": 96,
            "midi": 60,
            "name": "C4",
            "ticks": 120000,
            "time": 156.25,
            "velocity": 0.3228346456692913
          },
          {
            "duration": 0,
            "durationTicks": 0,
            "midi": 38,
            "name": "D2",
            "ticks": 120192,
            "time": 156.5,
            "velocity": 0.33858267716535434
          },
          {
            "duration": 0,
            "durationTicks": 0,
            "midi": 54,
            "name": "F#3",
            "ticks": 120192,
            "time": 156.5,
            "velocity": 0.23622047244094488
          },
          {
            "duration": 0,
            "durationTicks": 0,
            "midi": 61,
            "name": "C#4",
            "ticks": 120192,
            "time": 156.5,
            "velocity": 0.29133858267716534
          },
          {
            "duration": 0,
            "durationTicks": 0,
            "midi": 44,
            "name": "G#2",
            "ticks": 120192,
            "time": 156.5,
            "velocity": 0.25984251968503935
          },
          {
            "duration": 0.125,
            "durationTicks": 96,
            "midi": 60,
            "name": "C4",
            "ticks": 120192,
            "time": 156.5,
            "velocity": 0.31496062992125984
          },
          {
            "duration": 0.375,
            "durationTicks": 288,
            "midi": 36,
            "name": "C2",
            "ticks": 120192,
            "time": 156.5,
            "velocity": 0.31496062992125984
          },
          {
            "duration": 0.125,
            "durationTicks": 96,
            "midi": 60,
            "name": "C4",
            "ticks": 120288,
            "time": 156.625,
            "velocity": 0.33070866141732286
          },
          {
            "duration": 0.125,
            "durationTicks": 96,
            "midi": 60,
            "name": "C4",
            "ticks": 120384,
            "time": 156.75,
            "velocity": 0.31496062992125984
          },
          {
            "duration": 0.25,
            "durationTicks": 192,
            "midi": 60,
            "name": "C4",
            "ticks": 120384,
            "time": 156.75,
            "velocity": 0.31496062992125984
          },
          {
            "duration": 0,
            "durationTicks": 0,
            "midi": 54,
            "name": "F#3",
            "ticks": 120576,
            "time": 157,
            "velocity": 0.23622047244094488
          },
          {
            "duration": 0,
            "durationTicks": 0,
            "midi": 36,
            "name": "C2",
            "ticks": 120576,
            "time": 157,
            "velocity": 0.30708661417322836
          },
          {
            "duration": 0,
            "durationTicks": 0,
            "midi": 60,
            "name": "C4",
            "ticks": 120576,
            "time": 157,
            "velocity": 0.28346456692913385
          },
          {
            "duration": 0.125,
            "durationTicks": 96,
            "midi": 36,
            "name": "C2",
            "ticks": 120576,
            "time": 157,
            "velocity": 0.30708661417322836
          },
          {
            "duration": 0,
            "durationTicks": 0,
            "midi": 44,
            "name": "G#2",
            "ticks": 120576,
            "time": 157,
            "velocity": 0.25984251968503935
          },
          {
            "duration": 0.25,
            "durationTicks": 192,
            "midi": 55,
            "name": "G3",
            "ticks": 120768,
            "time": 157.25,
            "velocity": 0.1889763779527559
          },
          {
            "duration": 0.125,
            "durationTicks": 96,
            "midi": 64,
            "name": "E4",
            "ticks": 120768,
            "time": 157.25,
            "velocity": 0.23622047244094488
          },
          {
            "duration": 0.25,
            "durationTicks": 192,
            "midi": 60,
            "name": "C4",
            "ticks": 120768,
            "time": 157.25,
            "velocity": 0.25196850393700787
          },
          {
            "duration": 0.125,
            "durationTicks": 96,
            "midi": 48,
            "name": "C3",
            "ticks": 120768,
            "time": 157.25,
            "velocity": 0.25196850393700787
          },
          {
            "duration": 0.25,
            "durationTicks": 192,
            "midi": 64,
            "name": "E4",
            "ticks": 120768,
            "time": 157.25,
            "velocity": 0.23622047244094488
          },
          {
            "duration": 0.25,
            "durationTicks": 192,
            "midi": 36,
            "name": "C2",
            "ticks": 120768,
            "time": 157.25,
            "velocity": 0.2992125984251969
          },
          {
            "duration": 0.125,
            "durationTicks": 96,
            "midi": 52,
            "name": "E3",
            "ticks": 120768,
            "time": 157.25,
            "velocity": 0.25196850393700787
          },
          {
            "duration": 0.25,
            "durationTicks": 192,
            "midi": 84,
            "name": "C6",
            "ticks": 120768,
            "time": 157.25,
            "velocity": 0.2125984251968504
          },
          {
            "duration": 0.25,
            "durationTicks": 192,
            "midi": 84,
            "name": "C6",
            "ticks": 120768,
            "time": 157.25,
            "velocity": 0.2125984251968504
          },
          {
            "duration": 0.25,
            "durationTicks": 192,
            "midi": 81,
            "name": "A5",
            "ticks": 120960,
            "time": 157.5,
            "velocity": 0.2047244094488189
          },
          {
            "duration": 0.25,
            "durationTicks": 192,
            "midi": 81,
            "name": "A5",
            "ticks": 120960,
            "time": 157.5,
            "velocity": 0.2047244094488189
          },
          {
            "duration": 0.25,
            "durationTicks": 192,
            "midi": 40,
            "name": "E2",
            "ticks": 120960,
            "time": 157.5,
            "velocity": 0.2992125984251969
          },
          {
            "duration": 0,
            "durationTicks": 0,
            "midi": 38,
            "name": "D2",
            "ticks": 120960,
            "time": 157.5,
            "velocity": 0.33070866141732286
          },
          {
            "duration": 0,
            "durationTicks": 0,
            "midi": 61,
            "name": "C#4",
            "ticks": 120960,
            "time": 157.5,
            "velocity": 0.2755905511811024
          },
          {
            "duration": 0,
            "durationTicks": 0,
            "midi": 54,
            "name": "F#3",
            "ticks": 120960,
            "time": 157.5,
            "velocity": 0.23622047244094488
          },
          {
            "duration": 0,
            "durationTicks": 0,
            "midi": 44,
            "name": "G#2",
            "ticks": 120960,
            "time": 157.5,
            "velocity": 0.2677165354330709
          },
          {
            "duration": 0,
            "durationTicks": 0,
            "midi": 60,
            "name": "C4",
            "ticks": 121056,
            "time": 157.625,
            "velocity": 0.2755905511811024
          },
          {
            "duration": 0,
            "durationTicks": 0,
            "midi": 46,
            "name": "A#2",
            "ticks": 121152,
            "time": 157.75,
            "velocity": 0.2755905511811024
          },
          {
            "duration": 0.25,
            "durationTicks": 192,
            "midi": 84,
            "name": "C6",
            "ticks": 121152,
            "time": 157.75,
            "velocity": 0.1968503937007874
          },
          {
            "duration": 0.25,
            "durationTicks": 192,
            "midi": 60,
            "name": "C4",
            "ticks": 121152,
            "time": 157.75,
            "velocity": 0.2125984251968504
          },
          {
            "duration": 0,
            "durationTicks": 0,
            "midi": 61,
            "name": "C#4",
            "ticks": 121152,
            "time": 157.75,
            "velocity": 0.2755905511811024
          },
          {
            "duration": 0.5,
            "durationTicks": 384,
            "midi": 57,
            "name": "A3",
            "ticks": 121152,
            "time": 157.75,
            "velocity": 0.23622047244094488
          },
          {
            "duration": 0.25,
            "durationTicks": 192,
            "midi": 84,
            "name": "C6",
            "ticks": 121152,
            "time": 157.75,
            "velocity": 0.1968503937007874
          },
          {
            "duration": 0.25,
            "durationTicks": 192,
            "midi": 66,
            "name": "F#4",
            "ticks": 121152,
            "time": 157.75,
            "velocity": 0.1732283464566929
          },
          {
            "duration": 1.375,
            "durationTicks": 1056,
            "midi": 50,
            "name": "D3",
            "ticks": 121152,
            "time": 157.75,
            "velocity": 0.2047244094488189
          },
          {
            "duration": 0.375,
            "durationTicks": 288,
            "midi": 38,
            "name": "D2",
            "ticks": 121152,
            "time": 157.75,
            "velocity": 0.31496062992125984
          },
          {
            "duration": 1.375,
            "durationTicks": 1056,
            "midi": 50,
            "name": "D3",
            "ticks": 121152,
            "time": 157.75,
            "velocity": 0.2047244094488189
          },
          {
            "duration": 0,
            "durationTicks": 0,
            "midi": 54,
            "name": "F#3",
            "ticks": 121344,
            "time": 158,
            "velocity": 0.2283464566929134
          },
          {
            "duration": 0,
            "durationTicks": 0,
            "midi": 60,
            "name": "C4",
            "ticks": 121344,
            "time": 158,
            "velocity": 0.2440944881889764
          },
          {
            "duration": 1.25,
            "durationTicks": 960,
            "midi": 88,
            "name": "E6",
            "ticks": 121344,
            "time": 158,
            "velocity": 0.2047244094488189
          },
          {
            "duration": 0,
            "durationTicks": 0,
            "midi": 36,
            "name": "C2",
            "ticks": 121344,
            "time": 158,
            "velocity": 0.3700787401574803
          },
          {
            "duration": 0.25,
            "durationTicks": 192,
            "midi": 60,
            "name": "C4",
            "ticks": 121344,
            "time": 158,
            "velocity": 0.2440944881889764
          },
          {
            "duration": 0,
            "durationTicks": 0,
            "midi": 44,
            "name": "G#2",
            "ticks": 121344,
            "time": 158,
            "velocity": 0.25984251968503935
          },
          {
            "duration": 0.25,
            "durationTicks": 192,
            "midi": 66,
            "name": "F#4",
            "ticks": 121344,
            "time": 158,
            "velocity": 0.2047244094488189
          },
          {
            "duration": 1.25,
            "durationTicks": 960,
            "midi": 88,
            "name": "E6",
            "ticks": 121344,
            "time": 158,
            "velocity": 0.2047244094488189
          },
          {
            "duration": 0.125,
            "durationTicks": 96,
            "midi": 38,
            "name": "D2",
            "ticks": 121536,
            "time": 158.25,
            "velocity": 0.30708661417322836
          },
          {
            "duration": 0,
            "durationTicks": 0,
            "midi": 44,
            "name": "G#2",
            "ticks": 121728,
            "time": 158.5,
            "velocity": 0.25984251968503935
          },
          {
            "duration": 0,
            "durationTicks": 0,
            "midi": 54,
            "name": "F#3",
            "ticks": 121728,
            "time": 158.5,
            "velocity": 0.2283464566929134
          },
          {
            "duration": 0.25,
            "durationTicks": 192,
            "midi": 60,
            "name": "C4",
            "ticks": 121728,
            "time": 158.5,
            "velocity": 0.25196850393700787
          },
          {
            "duration": 0,
            "durationTicks": 0,
            "midi": 38,
            "name": "D2",
            "ticks": 121728,
            "time": 158.5,
            "velocity": 0.31496062992125984
          },
          {
            "duration": 0.25,
            "durationTicks": 192,
            "midi": 69,
            "name": "A4",
            "ticks": 121728,
            "time": 158.5,
            "velocity": 0.33070866141732286
          },
          {
            "duration": 0.25,
            "durationTicks": 192,
            "midi": 57,
            "name": "A3",
            "ticks": 121728,
            "time": 158.5,
            "velocity": 0.1889763779527559
          },
          {
            "duration": 0.25,
            "durationTicks": 192,
            "midi": 66,
            "name": "F#4",
            "ticks": 121728,
            "time": 158.5,
            "velocity": 0.1889763779527559
          },
          {
            "duration": 0,
            "durationTicks": 0,
            "midi": 61,
            "name": "C#4",
            "ticks": 121728,
            "time": 158.5,
            "velocity": 0.29133858267716534
          },
          {
            "duration": 0.125,
            "durationTicks": 96,
            "midi": 38,
            "name": "D2",
            "ticks": 121728,
            "time": 158.5,
            "velocity": 0.31496062992125984
          },
          {
            "duration": 0.125,
            "durationTicks": 96,
            "midi": 38,
            "name": "D2",
            "ticks": 121920,
            "time": 158.75,
            "velocity": 0.31496062992125984
          },
          {
            "duration": 0,
            "durationTicks": 0,
            "midi": 60,
            "name": "C4",
            "ticks": 122112,
            "time": 159,
            "velocity": 0.2440944881889764
          },
          {
            "duration": 0,
            "durationTicks": 0,
            "midi": 36,
            "name": "C2",
            "ticks": 122112,
            "time": 159,
            "velocity": 0.3700787401574803
          },
          {
            "duration": 0.25,
            "durationTicks": 192,
            "midi": 66,
            "name": "F#4",
            "ticks": 122112,
            "time": 159,
            "velocity": 0.2047244094488189
          },
          {
            "duration": 0,
            "durationTicks": 0,
            "midi": 54,
            "name": "F#3",
            "ticks": 122112,
            "time": 159,
            "velocity": 0.2440944881889764
          },
          {
            "duration": 0.25,
            "durationTicks": 192,
            "midi": 60,
            "name": "C4",
            "ticks": 122112,
            "time": 159,
            "velocity": 0.2440944881889764
          },
          {
            "duration": 0.25,
            "durationTicks": 192,
            "midi": 57,
            "name": "A3",
            "ticks": 122112,
            "time": 159,
            "velocity": 0.1968503937007874
          },
          {
            "duration": 0.375,
            "durationTicks": 288,
            "midi": 64,
            "name": "E4",
            "ticks": 122112,
            "time": 159,
            "velocity": 0.31496062992125984
          },
          {
            "duration": 0.125,
            "durationTicks": 96,
            "midi": 54,
            "name": "F#3",
            "ticks": 122112,
            "time": 159,
            "velocity": 0.2440944881889764
          },
          {
            "duration": 0.125,
            "durationTicks": 96,
            "midi": 38,
            "name": "D2",
            "ticks": 122112,
            "time": 159,
            "velocity": 0.31496062992125984
          },
          {
            "duration": 0,
            "durationTicks": 0,
            "midi": 44,
            "name": "G#2",
            "ticks": 122112,
            "time": 159,
            "velocity": 0.2677165354330709
          },
          {
            "duration": 0.125,
            "durationTicks": 96,
            "midi": 50,
            "name": "D3",
            "ticks": 122304,
            "time": 159.25,
            "velocity": 0.25984251968503935
          },
          {
            "duration": 0.25,
            "durationTicks": 192,
            "midi": 38,
            "name": "D2",
            "ticks": 122304,
            "time": 159.25,
            "velocity": 0.2992125984251969
          },
          {
            "duration": 0.25,
            "durationTicks": 192,
            "midi": 66,
            "name": "F#4",
            "ticks": 122304,
            "time": 159.25,
            "velocity": 0.25984251968503935
          },
          {
            "duration": 0.25,
            "durationTicks": 192,
            "midi": 57,
            "name": "A3",
            "ticks": 122304,
            "time": 159.25,
            "velocity": 0.1889763779527559
          },
          {
            "duration": 0.125,
            "durationTicks": 96,
            "midi": 54,
            "name": "F#3",
            "ticks": 122304,
            "time": 159.25,
            "velocity": 0.25984251968503935
          },
          {
            "duration": 0.25,
            "durationTicks": 192,
            "midi": 60,
            "name": "C4",
            "ticks": 122304,
            "time": 159.25,
            "velocity": 0.25196850393700787
          },
          {
            "duration": 0,
            "durationTicks": 0,
            "midi": 38,
            "name": "D2",
            "ticks": 122496,
            "time": 159.5,
            "velocity": 0.33858267716535434
          },
          {
            "duration": 0.125,
            "durationTicks": 96,
            "midi": 88,
            "name": "E6",
            "ticks": 122496,
            "time": 159.5,
            "velocity": 0.1968503937007874
          },
          {
            "duration": 0.125,
            "durationTicks": 96,
            "midi": 88,
            "name": "E6",
            "ticks": 122496,
            "time": 159.5,
            "velocity": 0.1968503937007874
          },
          {
            "duration": 0.25,
            "durationTicks": 192,
            "midi": 40,
            "name": "E2",
            "ticks": 122496,
            "time": 159.5,
            "velocity": 0.2992125984251969
          },
          {
            "duration": 0,
            "durationTicks": 0,
            "midi": 44,
            "name": "G#2",
            "ticks": 122496,
            "time": 159.5,
            "velocity": 0.2677165354330709
          },
          {
            "duration": 0,
            "durationTicks": 0,
            "midi": 61,
            "name": "C#4",
            "ticks": 122496,
            "time": 159.5,
            "velocity": 0.28346456692913385
          },
          {
            "duration": 0,
            "durationTicks": 0,
            "midi": 54,
            "name": "F#3",
            "ticks": 122496,
            "time": 159.5,
            "velocity": 0.2204724409448819
          },
          {
            "duration": 0.125,
            "durationTicks": 96,
            "midi": 86,
            "name": "D6",
            "ticks": 122592,
            "time": 159.625,
            "velocity": 0.2204724409448819
          },
          {
            "duration": 0.125,
            "durationTicks": 96,
            "midi": 86,
            "name": "D6",
            "ticks": 122592,
            "time": 159.625,
            "velocity": 0.2204724409448819
          },
          {
            "duration": 0.125,
            "durationTicks": 96,
            "midi": 84,
            "name": "C6",
            "ticks": 122688,
            "time": 159.75,
            "velocity": 0.2047244094488189
          },
          {
            "duration": 0,
            "durationTicks": 0,
            "midi": 46,
            "name": "A#2",
            "ticks": 122688,
            "time": 159.75,
            "velocity": 0.2677165354330709
          },
          {
            "duration": 0.375,
            "durationTicks": 288,
            "midi": 41,
            "name": "F2",
            "ticks": 122688,
            "time": 159.75,
            "velocity": 0.2992125984251969
          },
          {
            "duration": 0.125,
            "durationTicks": 96,
            "midi": 84,
            "name": "C6",
            "ticks": 122688,
            "time": 159.75,
            "velocity": 0.2047244094488189
          },
          {
            "duration": 0.125,
            "durationTicks": 96,
            "midi": 81,
            "name": "A5",
            "ticks": 122784,
            "time": 159.875,
            "velocity": 0.1889763779527559
          },
          {
            "duration": 0.125,
            "durationTicks": 96,
            "midi": 81,
            "name": "A5",
            "ticks": 122784,
            "time": 159.875,
            "velocity": 0.1889763779527559
          },
          {
            "duration": 0,
            "durationTicks": 0,
            "midi": 60,
            "name": "C4",
            "ticks": 122880,
            "time": 160,
            "velocity": 0.2677165354330709
          },
          {
            "duration": 0,
            "durationTicks": 0,
            "midi": 36,
            "name": "C2",
            "ticks": 122880,
            "time": 160,
            "velocity": 0.3700787401574803
          },
          {
            "duration": 0,
            "durationTicks": 0,
            "midi": 54,
            "name": "F#3",
            "ticks": 122880,
            "time": 160,
            "velocity": 0.2204724409448819
          },
          {
            "duration": 1.25,
            "durationTicks": 960,
            "midi": 84,
            "name": "C6",
            "ticks": 122880,
            "time": 160,
            "velocity": 0.2204724409448819
          },
          {
            "duration": 1,
            "durationTicks": 768,
            "midi": 57,
            "name": "A3",
            "ticks": 122880,
            "time": 160,
            "velocity": 0.25984251968503935
          },
          {
            "duration": 1,
            "durationTicks": 768,
            "midi": 53,
            "name": "F3",
            "ticks": 122880,
            "time": 160,
            "velocity": 0.1889763779527559
          },
          {
            "duration": 1.25,
            "durationTicks": 960,
            "midi": 53,
            "name": "F3",
            "ticks": 122880,
            "time": 160,
            "velocity": 0.1889763779527559
          },
          {
            "duration": 1.25,
            "durationTicks": 960,
            "midi": 84,
            "name": "C6",
            "ticks": 122880,
            "time": 160,
            "velocity": 0.2204724409448819
          },
          {
            "duration": 1,
            "durationTicks": 768,
            "midi": 60,
            "name": "C4",
            "ticks": 122880,
            "time": 160,
            "velocity": 0.2677165354330709
          },
          {
            "duration": 1,
            "durationTicks": 768,
            "midi": 57,
            "name": "A3",
            "ticks": 122880,
            "time": 160,
            "velocity": 0.25984251968503935
          },
          {
            "duration": 0,
            "durationTicks": 0,
            "midi": 44,
            "name": "G#2",
            "ticks": 122880,
            "time": 160,
            "velocity": 0.2677165354330709
          },
          {
            "duration": 1,
            "durationTicks": 768,
            "midi": 65,
            "name": "F4",
            "ticks": 122880,
            "time": 160,
            "velocity": 0.2125984251968504
          },
          {
            "duration": 0.125,
            "durationTicks": 96,
            "midi": 41,
            "name": "F2",
            "ticks": 123072,
            "time": 160.25,
            "velocity": 0.30708661417322836
          },
          {
            "duration": 0.125,
            "durationTicks": 96,
            "midi": 41,
            "name": "F2",
            "ticks": 123264,
            "time": 160.5,
            "velocity": 0.2992125984251969
          },
          {
            "duration": 0,
            "durationTicks": 0,
            "midi": 61,
            "name": "C#4",
            "ticks": 123264,
            "time": 160.5,
            "velocity": 0.2755905511811024
          },
          {
            "duration": 0,
            "durationTicks": 0,
            "midi": 54,
            "name": "F#3",
            "ticks": 123264,
            "time": 160.5,
            "velocity": 0.2204724409448819
          },
          {
            "duration": 0,
            "durationTicks": 0,
            "midi": 38,
            "name": "D2",
            "ticks": 123264,
            "time": 160.5,
            "velocity": 0.33070866141732286
          },
          {
            "duration": 0.125,
            "durationTicks": 96,
            "midi": 64,
            "name": "E4",
            "ticks": 123264,
            "time": 160.5,
            "velocity": 0.31496062992125984
          },
          {
            "duration": 0,
            "durationTicks": 0,
            "midi": 44,
            "name": "G#2",
            "ticks": 123264,
            "time": 160.5,
            "velocity": 0.2755905511811024
          },
          {
            "duration": 0.125,
            "durationTicks": 96,
            "midi": 41,
            "name": "F2",
            "ticks": 123456,
            "time": 160.75,
            "velocity": 0.2992125984251969
          },
          {
            "duration": 0.125,
            "durationTicks": 96,
            "midi": 64,
            "name": "E4",
            "ticks": 123456,
            "time": 160.75,
            "velocity": 0.33070866141732286
          },
          {
            "duration": 0,
            "durationTicks": 0,
            "midi": 54,
            "name": "F#3",
            "ticks": 123648,
            "time": 161,
            "velocity": 0.2440944881889764
          },
          {
            "duration": 0,
            "durationTicks": 0,
            "midi": 60,
            "name": "C4",
            "ticks": 123648,
            "time": 161,
            "velocity": 0.2755905511811024
          },
          {
            "duration": 0,
            "durationTicks": 0,
            "midi": 44,
            "name": "G#2",
            "ticks": 123648,
            "time": 161,
            "velocity": 0.25984251968503935
          },
          {
            "duration": 0.125,
            "durationTicks": 96,
            "midi": 41,
            "name": "F2",
            "ticks": 123648,
            "time": 161,
            "velocity": 0.2992125984251969
          },
          {
            "duration": 0.25,
            "durationTicks": 192,
            "midi": 69,
            "name": "A4",
            "ticks": 123648,
            "time": 161,
            "velocity": 0.33858267716535434
          },
          {
            "duration": 0,
            "durationTicks": 0,
            "midi": 36,
            "name": "C2",
            "ticks": 123648,
            "time": 161,
            "velocity": 0.3543307086614173
          },
          {
            "duration": 0.25,
            "durationTicks": 192,
            "midi": 57,
            "name": "A3",
            "ticks": 123840,
            "time": 161.25,
            "velocity": 0.2283464566929134
          },
          {
            "duration": 0.375,
            "durationTicks": 288,
            "midi": 53,
            "name": "F3",
            "ticks": 123840,
            "time": 161.25,
            "velocity": 0.25984251968503935
          },
          {
            "duration": 0.25,
            "durationTicks": 192,
            "midi": 60,
            "name": "C4",
            "ticks": 123840,
            "time": 161.25,
            "velocity": 0.2204724409448819
          },
          {
            "duration": 0.375,
            "durationTicks": 288,
            "midi": 57,
            "name": "A3",
            "ticks": 123840,
            "time": 161.25,
            "velocity": 0.2283464566929134
          },
          {
            "duration": 0.375,
            "durationTicks": 288,
            "midi": 41,
            "name": "F2",
            "ticks": 123840,
            "time": 161.25,
            "velocity": 0.31496062992125984
          },
          {
            "duration": 0.25,
            "durationTicks": 192,
            "midi": 84,
            "name": "C6",
            "ticks": 123840,
            "time": 161.25,
            "velocity": 0.1968503937007874
          },
          {
            "duration": 0.25,
            "durationTicks": 192,
            "midi": 65,
            "name": "F4",
            "ticks": 123840,
            "time": 161.25,
            "velocity": 0.2204724409448819
          },
          {
            "duration": 0.25,
            "durationTicks": 192,
            "midi": 84,
            "name": "C6",
            "ticks": 123840,
            "time": 161.25,
            "velocity": 0.1968503937007874
          },
          {
            "duration": 0,
            "durationTicks": 0,
            "midi": 61,
            "name": "C#4",
            "ticks": 124032,
            "time": 161.5,
            "velocity": 0.2755905511811024
          },
          {
            "duration": 0,
            "durationTicks": 0,
            "midi": 38,
            "name": "D2",
            "ticks": 124032,
            "time": 161.5,
            "velocity": 0.33070866141732286
          },
          {
            "duration": 0,
            "durationTicks": 0,
            "midi": 54,
            "name": "F#3",
            "ticks": 124032,
            "time": 161.5,
            "velocity": 0.2283464566929134
          },
          {
            "duration": 0.25,
            "durationTicks": 192,
            "midi": 81,
            "name": "A5",
            "ticks": 124032,
            "time": 161.5,
            "velocity": 0.1889763779527559
          },
          {
            "duration": 0.25,
            "durationTicks": 192,
            "midi": 81,
            "name": "A5",
            "ticks": 124032,
            "time": 161.5,
            "velocity": 0.1889763779527559
          },
          {
            "duration": 0,
            "durationTicks": 0,
            "midi": 44,
            "name": "G#2",
            "ticks": 124032,
            "time": 161.5,
            "velocity": 0.2677165354330709
          },
          {
            "duration": 0.25,
            "durationTicks": 192,
            "midi": 64,
            "name": "E4",
            "ticks": 124032,
            "time": 161.5,
            "velocity": 0.33070866141732286
          },
          {
            "duration": 0,
            "durationTicks": 0,
            "midi": 60,
            "name": "C4",
            "ticks": 124128,
            "time": 161.625,
            "velocity": 0.2755905511811024
          },
          {
            "duration": 0.25,
            "durationTicks": 192,
            "midi": 62,
            "name": "D4",
            "ticks": 124224,
            "time": 161.75,
            "velocity": 0.25196850393700787
          },
          {
            "duration": 0.25,
            "durationTicks": 192,
            "midi": 67,
            "name": "G4",
            "ticks": 124224,
            "time": 161.75,
            "velocity": 0.14173228346456693
          },
          {
            "duration": 0.25,
            "durationTicks": 192,
            "midi": 41,
            "name": "F2",
            "ticks": 124224,
            "time": 161.75,
            "velocity": 0.31496062992125984
          },
          {
            "duration": 0.25,
            "durationTicks": 192,
            "midi": 59,
            "name": "B3",
            "ticks": 124224,
            "time": 161.75,
            "velocity": 0.2047244094488189
          },
          {
            "duration": 0,
            "durationTicks": 0,
            "midi": 46,
            "name": "A#2",
            "ticks": 124224,
            "time": 161.75,
            "velocity": 0.2677165354330709
          },
          {
            "duration": 0,
            "durationTicks": 0,
            "midi": 61,
            "name": "C#4",
            "ticks": 124224,
            "time": 161.75,
            "velocity": 0.28346456692913385
          },
          {
            "duration": 0.25,
            "durationTicks": 192,
            "midi": 84,
            "name": "C6",
            "ticks": 124224,
            "time": 161.75,
            "velocity": 0.1968503937007874
          },
          {
            "duration": 0.25,
            "durationTicks": 192,
            "midi": 84,
            "name": "C6",
            "ticks": 124224,
            "time": 161.75,
            "velocity": 0.1968503937007874
          },
          {
            "duration": 0.125,
            "durationTicks": 96,
            "midi": 43,
            "name": "G2",
            "ticks": 124416,
            "time": 162,
            "velocity": 0.2992125984251969
          },
          {
            "duration": 0,
            "durationTicks": 0,
            "midi": 54,
            "name": "F#3",
            "ticks": 124416,
            "time": 162,
            "velocity": 0.23622047244094488
          },
          {
            "duration": 0,
            "durationTicks": 0,
            "midi": 60,
            "name": "C4",
            "ticks": 124416,
            "time": 162,
            "velocity": 0.28346456692913385
          },
          {
            "duration": 0,
            "durationTicks": 0,
            "midi": 44,
            "name": "G#2",
            "ticks": 124416,
            "time": 162,
            "velocity": 0.2677165354330709
          },
          {
            "duration": 0.5,
            "durationTicks": 384,
            "midi": 52,
            "name": "E3",
            "ticks": 124416,
            "time": 162,
            "velocity": 0.2755905511811024
          },
          {
            "duration": 0,
            "durationTicks": 0,
            "midi": 36,
            "name": "C2",
            "ticks": 124416,
            "time": 162,
            "velocity": 0.36220472440944884
          },
          {
            "duration": 0.5,
            "durationTicks": 384,
            "midi": 88,
            "name": "E6",
            "ticks": 124416,
            "time": 162,
            "velocity": 0.2125984251968504
          },
          {
            "duration": 0.5,
            "durationTicks": 384,
            "midi": 88,
            "name": "E6",
            "ticks": 124416,
            "time": 162,
            "velocity": 0.2125984251968504
          },
          {
            "duration": 0.625,
            "durationTicks": 480,
            "midi": 55,
            "name": "G3",
            "ticks": 124416,
            "time": 162,
            "velocity": 0.25984251968503935
          },
          {
            "duration": 0.125,
            "durationTicks": 96,
            "midi": 43,
            "name": "G2",
            "ticks": 124608,
            "time": 162.25,
            "velocity": 0.2992125984251969
          },
          {
            "duration": 0.25,
            "durationTicks": 192,
            "midi": 69,
            "name": "A4",
            "ticks": 124800,
            "time": 162.5,
            "velocity": 0.3228346456692913
          },
          {
            "duration": 0,
            "durationTicks": 0,
            "midi": 38,
            "name": "D2",
            "ticks": 124800,
            "time": 162.5,
            "velocity": 0.33858267716535434
          },
          {
            "duration": 0,
            "durationTicks": 0,
            "midi": 61,
            "name": "C#4",
            "ticks": 124800,
            "time": 162.5,
            "velocity": 0.2755905511811024
          },
          {
            "duration": 0.125,
            "durationTicks": 96,
            "midi": 43,
            "name": "G2",
            "ticks": 124800,
            "time": 162.5,
            "velocity": 0.30708661417322836
          },
          {
            "duration": 0,
            "durationTicks": 0,
            "midi": 54,
            "name": "F#3",
            "ticks": 124800,
            "time": 162.5,
            "velocity": 0.2283464566929134
          },
          {
            "duration": 0.5,
            "durationTicks": 384,
            "midi": 86,
            "name": "D6",
            "ticks": 124800,
            "time": 162.5,
            "velocity": 0.2047244094488189
          },
          {
            "duration": 0.5,
            "durationTicks": 384,
            "midi": 86,
            "name": "D6",
            "ticks": 124800,
            "time": 162.5,
            "velocity": 0.2047244094488189
          },
          {
            "duration": 0.125,
            "durationTicks": 96,
            "midi": 62,
            "name": "D4",
            "ticks": 124800,
            "time": 162.5,
            "velocity": 0.2992125984251969
          },
          {
            "duration": 0.125,
            "durationTicks": 96,
            "midi": 59,
            "name": "B3",
            "ticks": 124800,
            "time": 162.5,
            "velocity": 0.1968503937007874
          },
          {
            "duration": 0.125,
            "durationTicks": 96,
            "midi": 67,
            "name": "G4",
            "ticks": 124800,
            "time": 162.5,
            "velocity": 0.18110236220472442
          },
          {
            "duration": 0,
            "durationTicks": 0,
            "midi": 44,
            "name": "G#2",
            "ticks": 124800,
            "time": 162.5,
            "velocity": 0.25984251968503935
          },
          {
            "duration": 0.375,
            "durationTicks": 288,
            "midi": 50,
            "name": "D3",
            "ticks": 124992,
            "time": 162.75,
            "velocity": 0.25984251968503935
          },
          {
            "duration": 0.375,
            "durationTicks": 288,
            "midi": 55,
            "name": "G3",
            "ticks": 124992,
            "time": 162.75,
            "velocity": 0.2755905511811024
          },
          {
            "duration": 0.125,
            "durationTicks": 96,
            "midi": 43,
            "name": "G2",
            "ticks": 124992,
            "time": 162.75,
            "velocity": 0.31496062992125984
          },
          {
            "duration": 0.25,
            "durationTicks": 192,
            "midi": 43,
            "name": "G2",
            "ticks": 125184,
            "time": 163,
            "velocity": 0.31496062992125984
          },
          {
            "duration": 0,
            "durationTicks": 0,
            "midi": 44,
            "name": "G#2",
            "ticks": 125184,
            "time": 163,
            "velocity": 0.25984251968503935
          },
          {
            "duration": 0.5,
            "durationTicks": 384,
            "midi": 84,
            "name": "C6",
            "ticks": 125184,
            "time": 163,
            "velocity": 0.1968503937007874
          },
          {
            "duration": 0,
            "durationTicks": 0,
            "midi": 36,
            "name": "C2",
            "ticks": 125184,
            "time": 163,
            "velocity": 0.3700787401574803
          },
          {
            "duration": 0.5,
            "durationTicks": 384,
            "midi": 84,
            "name": "C6",
            "ticks": 125184,
            "time": 163,
            "velocity": 0.1968503937007874
          },
          {
            "duration": 0.25,
            "durationTicks": 192,
            "midi": 64,
            "name": "E4",
            "ticks": 125184,
            "time": 163,
            "velocity": 0.3228346456692913
          },
          {
            "duration": 0.25,
            "durationTicks": 192,
            "midi": 59,
            "name": "B3",
            "ticks": 125184,
            "time": 163,
            "velocity": 0.1889763779527559
          },
          {
            "duration": 0,
            "durationTicks": 0,
            "midi": 54,
            "name": "F#3",
            "ticks": 125184,
            "time": 163,
            "velocity": 0.2440944881889764
          },
          {
            "duration": 0.25,
            "durationTicks": 192,
            "midi": 62,
            "name": "D4",
            "ticks": 125184,
            "time": 163,
            "velocity": 0.29133858267716534
          },
          {
            "duration": 0.25,
            "durationTicks": 192,
            "midi": 67,
            "name": "G4",
            "ticks": 125184,
            "time": 163,
            "velocity": 0.2283464566929134
          },
          {
            "duration": 0,
            "durationTicks": 0,
            "midi": 60,
            "name": "C4",
            "ticks": 125184,
            "time": 163,
            "velocity": 0.2755905511811024
          },
          {
            "duration": 0.25,
            "durationTicks": 192,
            "midi": 55,
            "name": "G3",
            "ticks": 125376,
            "time": 163.25,
            "velocity": 0.25984251968503935
          },
          {
            "duration": 0.25,
            "durationTicks": 192,
            "midi": 40,
            "name": "E2",
            "ticks": 125376,
            "time": 163.25,
            "velocity": 0.30708661417322836
          },
          {
            "duration": 0.5,
            "durationTicks": 384,
            "midi": 50,
            "name": "D3",
            "ticks": 125376,
            "time": 163.25,
            "velocity": 0.2677165354330709
          },
          {
            "duration": 0,
            "durationTicks": 0,
            "midi": 38,
            "name": "D2",
            "ticks": 125376,
            "time": 163.25,
            "velocity": 0.33858267716535434
          },
          {
            "duration": 0.125,
            "durationTicks": 96,
            "midi": 67,
            "name": "G4",
            "ticks": 125376,
            "time": 163.25,
            "velocity": 0.2440944881889764
          },
          {
            "duration": 0.125,
            "durationTicks": 96,
            "midi": 59,
            "name": "B3",
            "ticks": 125376,
            "time": 163.25,
            "velocity": 0.2125984251968504
          },
          {
            "duration": 0.125,
            "durationTicks": 96,
            "midi": 62,
            "name": "D4",
            "ticks": 125376,
            "time": 163.25,
            "velocity": 0.2125984251968504
          },
          {
            "duration": 0.5,
            "durationTicks": 384,
            "midi": 55,
            "name": "G3",
            "ticks": 125376,
            "time": 163.25,
            "velocity": 0.25984251968503935
          },
          {
            "duration": 0,
            "durationTicks": 0,
            "midi": 44,
            "name": "G#2",
            "ticks": 125568,
            "time": 163.5,
            "velocity": 0.25984251968503935
          },
          {
            "duration": 0,
            "durationTicks": 0,
            "midi": 38,
            "name": "D2",
            "ticks": 125568,
            "time": 163.5,
            "velocity": 0.33858267716535434
          },
          {
            "duration": 0,
            "durationTicks": 0,
            "midi": 54,
            "name": "F#3",
            "ticks": 125568,
            "time": 163.5,
            "velocity": 0.2283464566929134
          },
          {
            "duration": 0.25,
            "durationTicks": 192,
            "midi": 41,
            "name": "F2",
            "ticks": 125568,
            "time": 163.5,
            "velocity": 0.2992125984251969
          },
          {
            "duration": 0,
            "durationTicks": 0,
            "midi": 61,
            "name": "C#4",
            "ticks": 125568,
            "time": 163.5,
            "velocity": 0.2755905511811024
          },
          {
            "duration": 0.5,
            "durationTicks": 384,
            "midi": 81,
            "name": "A5",
            "ticks": 125568,
            "time": 163.5,
            "velocity": 0.2047244094488189
          },
          {
            "duration": 0.5,
            "durationTicks": 384,
            "midi": 81,
            "name": "A5",
            "ticks": 125568,
            "time": 163.5,
            "velocity": 0.2047244094488189
          },
          {
            "duration": 0,
            "durationTicks": 0,
            "midi": 38,
            "name": "D2",
            "ticks": 125664,
            "time": 163.625,
            "velocity": 0.33858267716535434
          },
          {
            "duration": 0,
            "durationTicks": 0,
            "midi": 38,
            "name": "D2",
            "ticks": 125760,
            "time": 163.75,
            "velocity": 0.33858267716535434
          },
          {
            "duration": 0.25,
            "durationTicks": 192,
            "midi": 40,
            "name": "E2",
            "ticks": 125760,
            "time": 163.75,
            "velocity": 0.30708661417322836
          },
          {
            "duration": 0,
            "durationTicks": 0,
            "midi": 46,
            "name": "A#2",
            "ticks": 125760,
            "time": 163.75,
            "velocity": 0.2677165354330709
          },
          {
            "duration": 1,
            "durationTicks": 768,
            "midi": 64,
            "name": "E4",
            "ticks": 125952,
            "time": 164,
            "velocity": 0.1889763779527559
          },
          {
            "duration": 0,
            "durationTicks": 0,
            "midi": 49,
            "name": "C#3",
            "ticks": 125952,
            "time": 164,
            "velocity": 0.28346456692913385
          },
          {
            "duration": 1.125,
            "durationTicks": 864,
            "midi": 48,
            "name": "C3",
            "ticks": 125952,
            "time": 164,
            "velocity": 0.2047244094488189
          },
          {
            "duration": 1.125,
            "durationTicks": 864,
            "midi": 84,
            "name": "C6",
            "ticks": 125952,
            "time": 164,
            "velocity": 0.1889763779527559
          },
          {
            "duration": 1,
            "durationTicks": 768,
            "midi": 55,
            "name": "G3",
            "ticks": 125952,
            "time": 164,
            "velocity": 0.1889763779527559
          },
          {
            "duration": 1.125,
            "durationTicks": 864,
            "midi": 84,
            "name": "C6",
            "ticks": 125952,
            "time": 164,
            "velocity": 0.1889763779527559
          },
          {
            "duration": 0,
            "durationTicks": 0,
            "midi": 36,
            "name": "C2",
            "ticks": 125952,
            "time": 164,
            "velocity": 0.2992125984251969
          },
          {
            "duration": 1.125,
            "durationTicks": 864,
            "midi": 52,
            "name": "E3",
            "ticks": 125952,
            "time": 164,
            "velocity": 0.2755905511811024
          },
          {
            "duration": 1.125,
            "durationTicks": 864,
            "midi": 48,
            "name": "C3",
            "ticks": 125952,
            "time": 164,
            "velocity": 0.2047244094488189
          },
          {
            "duration": 0,
            "durationTicks": 0,
            "midi": 60,
            "name": "C4",
            "ticks": 125952,
            "time": 164,
            "velocity": 0.33858267716535434
          },
          {
            "duration": 0,
            "durationTicks": 0,
            "midi": 54,
            "name": "F#3",
            "ticks": 125952,
            "time": 164,
            "velocity": 0.2440944881889764
          },
          {
            "duration": 0.375,
            "durationTicks": 288,
            "midi": 36,
            "name": "C2",
            "ticks": 125952,
            "time": 164,
            "velocity": 0.2992125984251969
          },
          {
            "duration": 0,
            "durationTicks": 0,
            "midi": 44,
            "name": "G#2",
            "ticks": 125952,
            "time": 164,
            "velocity": 0.2755905511811024
          },
          {
            "duration": 0.125,
            "durationTicks": 96,
            "midi": 60,
            "name": "C4",
            "ticks": 125952,
            "time": 164,
            "velocity": 0.33858267716535434
          },
          {
            "duration": 0.125,
            "durationTicks": 96,
            "midi": 60,
            "name": "C4",
            "ticks": 126048,
            "time": 164.125,
            "velocity": 0.33858267716535434
          },
          {
            "duration": 0.125,
            "durationTicks": 96,
            "midi": 60,
            "name": "C4",
            "ticks": 126144,
            "time": 164.25,
            "velocity": 0.31496062992125984
          },
          {
            "duration": 0,
            "durationTicks": 0,
            "midi": 38,
            "name": "D2",
            "ticks": 126336,
            "time": 164.5,
            "velocity": 0.33858267716535434
          },
          {
            "duration": 0.125,
            "durationTicks": 96,
            "midi": 36,
            "name": "C2",
            "ticks": 126336,
            "time": 164.5,
            "velocity": 0.31496062992125984
          },
          {
            "duration": 0,
            "durationTicks": 0,
            "midi": 54,
            "name": "F#3",
            "ticks": 126336,
            "time": 164.5,
            "velocity": 0.2440944881889764
          },
          {
            "duration": 0,
            "durationTicks": 0,
            "midi": 44,
            "name": "G#2",
            "ticks": 126336,
            "time": 164.5,
            "velocity": 0.2677165354330709
          },
          {
            "duration": 0.125,
            "durationTicks": 96,
            "midi": 60,
            "name": "C4",
            "ticks": 126336,
            "time": 164.5,
            "velocity": 0.3228346456692913
          },
          {
            "duration": 0,
            "durationTicks": 0,
            "midi": 61,
            "name": "C#4",
            "ticks": 126336,
            "time": 164.5,
            "velocity": 0.28346456692913385
          },
          {
            "duration": 0.125,
            "durationTicks": 96,
            "midi": 60,
            "name": "C4",
            "ticks": 126432,
            "time": 164.625,
            "velocity": 0.33070866141732286
          },
          {
            "duration": 0.125,
            "durationTicks": 96,
            "midi": 36,
            "name": "C2",
            "ticks": 126528,
            "time": 164.75,
            "velocity": 0.31496062992125984
          },
          {
            "duration": 0.125,
            "durationTicks": 96,
            "midi": 60,
            "name": "C4",
            "ticks": 126528,
            "time": 164.75,
            "velocity": 0.33858267716535434
          },
          {
            "duration": 0.25,
            "durationTicks": 192,
            "midi": 60,
            "name": "C4",
            "ticks": 126528,
            "time": 164.75,
            "velocity": 0.33858267716535434
          },
          {
            "duration": 0,
            "durationTicks": 0,
            "midi": 36,
            "name": "C2",
            "ticks": 126720,
            "time": 165,
            "velocity": 0.2992125984251969
          },
          {
            "duration": 0,
            "durationTicks": 0,
            "midi": 60,
            "name": "C4",
            "ticks": 126720,
            "time": 165,
            "velocity": 0.28346456692913385
          },
          {
            "duration": 0.125,
            "durationTicks": 96,
            "midi": 36,
            "name": "C2",
            "ticks": 126720,
            "time": 165,
            "velocity": 0.2992125984251969
          },
          {
            "duration": 0,
            "durationTicks": 0,
            "midi": 54,
            "name": "F#3",
            "ticks": 126720,
            "time": 165,
            "velocity": 0.2440944881889764
          },
          {
            "duration": 0,
            "durationTicks": 0,
            "midi": 44,
            "name": "G#2",
            "ticks": 126720,
            "time": 165,
            "velocity": 0.2677165354330709
          },
          {
            "duration": 0.25,
            "durationTicks": 192,
            "midi": 60,
            "name": "C4",
            "ticks": 126912,
            "time": 165.25,
            "velocity": 0.25196850393700787
          },
          {
            "duration": 0.25,
            "durationTicks": 192,
            "midi": 55,
            "name": "G3",
            "ticks": 126912,
            "time": 165.25,
            "velocity": 0.1889763779527559
          },
          {
            "duration": 0.125,
            "durationTicks": 96,
            "midi": 52,
            "name": "E3",
            "ticks": 126912,
            "time": 165.25,
            "velocity": 0.2755905511811024
          },
          {
            "duration": 0.125,
            "durationTicks": 96,
            "midi": 64,
            "name": "E4",
            "ticks": 126912,
            "time": 165.25,
            "velocity": 0.23622047244094488
          },
          {
            "duration": 0.25,
            "durationTicks": 192,
            "midi": 64,
            "name": "E4",
            "ticks": 126912,
            "time": 165.25,
            "velocity": 0.23622047244094488
          },
          {
            "duration": 0.125,
            "durationTicks": 96,
            "midi": 48,
            "name": "C3",
            "ticks": 126912,
            "time": 165.25,
            "velocity": 0.25984251968503935
          },
          {
            "duration": 0.25,
            "durationTicks": 192,
            "midi": 84,
            "name": "C6",
            "ticks": 126912,
            "time": 165.25,
            "velocity": 0.2047244094488189
          },
          {
            "duration": 0.25,
            "durationTicks": 192,
            "midi": 84,
            "name": "C6",
            "ticks": 126912,
            "time": 165.25,
            "velocity": 0.2047244094488189
          },
          {
            "duration": 0.125,
            "durationTicks": 96,
            "midi": 36,
            "name": "C2",
            "ticks": 126912,
            "time": 165.25,
            "velocity": 0.31496062992125984
          },
          {
            "duration": 0,
            "durationTicks": 0,
            "midi": 54,
            "name": "F#3",
            "ticks": 127104,
            "time": 165.5,
            "velocity": 0.2440944881889764
          },
          {
            "duration": 0,
            "durationTicks": 0,
            "midi": 61,
            "name": "C#4",
            "ticks": 127104,
            "time": 165.5,
            "velocity": 0.28346456692913385
          },
          {
            "duration": 0,
            "durationTicks": 0,
            "midi": 44,
            "name": "G#2",
            "ticks": 127104,
            "time": 165.5,
            "velocity": 0.2677165354330709
          },
          {
            "duration": 0,
            "durationTicks": 0,
            "midi": 38,
            "name": "D2",
            "ticks": 127104,
            "time": 165.5,
            "velocity": 0.33858267716535434
          },
          {
            "duration": 0.25,
            "durationTicks": 192,
            "midi": 36,
            "name": "C2",
            "ticks": 127104,
            "time": 165.5,
            "velocity": 0.31496062992125984
          },
          {
            "duration": 0.25,
            "durationTicks": 192,
            "midi": 81,
            "name": "A5",
            "ticks": 127104,
            "time": 165.5,
            "velocity": 0.2125984251968504
          },
          {
            "duration": 0.25,
            "durationTicks": 192,
            "midi": 81,
            "name": "A5",
            "ticks": 127104,
            "time": 165.5,
            "velocity": 0.2125984251968504
          },
          {
            "duration": 0,
            "durationTicks": 0,
            "midi": 60,
            "name": "C4",
            "ticks": 127200,
            "time": 165.625,
            "velocity": 0.2755905511811024
          },
          {
            "duration": 0.375,
            "durationTicks": 288,
            "midi": 57,
            "name": "A3",
            "ticks": 127296,
            "time": 165.75,
            "velocity": 0.23622047244094488
          },
          {
            "duration": 1.25,
            "durationTicks": 960,
            "midi": 50,
            "name": "D3",
            "ticks": 127296,
            "time": 165.75,
            "velocity": 0.2047244094488189
          },
          {
            "duration": 0.25,
            "durationTicks": 192,
            "midi": 66,
            "name": "F#4",
            "ticks": 127296,
            "time": 165.75,
            "velocity": 0.1732283464566929
          },
          {
            "duration": 0.25,
            "durationTicks": 192,
            "midi": 84,
            "name": "C6",
            "ticks": 127296,
            "time": 165.75,
            "velocity": 0.2047244094488189
          },
          {
            "duration": 1.375,
            "durationTicks": 1056,
            "midi": 50,
            "name": "D3",
            "ticks": 127296,
            "time": 165.75,
            "velocity": 0.2047244094488189
          },
          {
            "duration": 0.25,
            "durationTicks": 192,
            "midi": 84,
            "name": "C6",
            "ticks": 127296,
            "time": 165.75,
            "velocity": 0.2047244094488189
          },
          {
            "duration": 0.25,
            "durationTicks": 192,
            "midi": 60,
            "name": "C4",
            "ticks": 127296,
            "time": 165.75,
            "velocity": 0.2125984251968504
          },
          {
            "duration": 0.625,
            "durationTicks": 480,
            "midi": 38,
            "name": "D2",
            "ticks": 127296,
            "time": 165.75,
            "velocity": 0.31496062992125984
          },
          {
            "duration": 0,
            "durationTicks": 0,
            "midi": 61,
            "name": "C#4",
            "ticks": 127296,
            "time": 165.75,
            "velocity": 0.2755905511811024
          },
          {
            "duration": 0,
            "durationTicks": 0,
            "midi": 46,
            "name": "A#2",
            "ticks": 127296,
            "time": 165.75,
            "velocity": 0.2755905511811024
          },
          {
            "duration": 0,
            "durationTicks": 0,
            "midi": 36,
            "name": "C2",
            "ticks": 127488,
            "time": 166,
            "velocity": 0.3700787401574803
          },
          {
            "duration": 1.375,
            "durationTicks": 1056,
            "midi": 88,
            "name": "E6",
            "ticks": 127488,
            "time": 166,
            "velocity": 0.2047244094488189
          },
          {
            "duration": 0,
            "durationTicks": 0,
            "midi": 60,
            "name": "C4",
            "ticks": 127488,
            "time": 166,
            "velocity": 0.2440944881889764
          },
          {
            "duration": 0.25,
            "durationTicks": 192,
            "midi": 60,
            "name": "C4",
            "ticks": 127488,
            "time": 166,
            "velocity": 0.2440944881889764
          },
          {
            "duration": 0.25,
            "durationTicks": 192,
            "midi": 66,
            "name": "F#4",
            "ticks": 127488,
            "time": 166,
            "velocity": 0.2047244094488189
          },
          {
            "duration": 0,
            "durationTicks": 0,
            "midi": 54,
            "name": "F#3",
            "ticks": 127488,
            "time": 166,
            "velocity": 0.2440944881889764
          },
          {
            "duration": 1.375,
            "durationTicks": 1056,
            "midi": 88,
            "name": "E6",
            "ticks": 127488,
            "time": 166,
            "velocity": 0.2047244094488189
          },
          {
            "duration": 0,
            "durationTicks": 0,
            "midi": 44,
            "name": "G#2",
            "ticks": 127488,
            "time": 166,
            "velocity": 0.25984251968503935
          },
          {
            "duration": 0,
            "durationTicks": 0,
            "midi": 38,
            "name": "D2",
            "ticks": 127872,
            "time": 166.5,
            "velocity": 0.31496062992125984
          },
          {
            "duration": 0.25,
            "durationTicks": 192,
            "midi": 60,
            "name": "C4",
            "ticks": 127872,
            "time": 166.5,
            "velocity": 0.25196850393700787
          },
          {
            "duration": 0,
            "durationTicks": 0,
            "midi": 54,
            "name": "F#3",
            "ticks": 127872,
            "time": 166.5,
            "velocity": 0.2440944881889764
          },
          {
            "duration": 0.25,
            "durationTicks": 192,
            "midi": 66,
            "name": "F#4",
            "ticks": 127872,
            "time": 166.5,
            "velocity": 0.1889763779527559
          },
          {
            "duration": 0.25,
            "durationTicks": 192,
            "midi": 57,
            "name": "A3",
            "ticks": 127872,
            "time": 166.5,
            "velocity": 0.1889763779527559
          },
          {
            "duration": 0.5,
            "durationTicks": 384,
            "midi": 54,
            "name": "F#3",
            "ticks": 127872,
            "time": 166.5,
            "velocity": 0.2440944881889764
          },
          {
            "duration": 0,
            "durationTicks": 0,
            "midi": 44,
            "name": "G#2",
            "ticks": 127872,
            "time": 166.5,
            "velocity": 0.2677165354330709
          },
          {
            "duration": 0.125,
            "durationTicks": 96,
            "midi": 38,
            "name": "D2",
            "ticks": 127872,
            "time": 166.5,
            "velocity": 0.31496062992125984
          },
          {
            "duration": 0.25,
            "durationTicks": 192,
            "midi": 69,
            "name": "A4",
            "ticks": 127872,
            "time": 166.5,
            "velocity": 0.31496062992125984
          },
          {
            "duration": 0,
            "durationTicks": 0,
            "midi": 61,
            "name": "C#4",
            "ticks": 127872,
            "time": 166.5,
            "velocity": 0.28346456692913385
          },
          {
            "duration": 0.125,
            "durationTicks": 96,
            "midi": 38,
            "name": "D2",
            "ticks": 128064,
            "time": 166.75,
            "velocity": 0.2992125984251969
          },
          {
            "duration": 0,
            "durationTicks": 0,
            "midi": 36,
            "name": "C2",
            "ticks": 128256,
            "time": 167,
            "velocity": 0.36220472440944884
          },
          {
            "duration": 0.375,
            "durationTicks": 288,
            "midi": 64,
            "name": "E4",
            "ticks": 128256,
            "time": 167,
            "velocity": 0.33858267716535434
          },
          {
            "duration": 0.125,
            "durationTicks": 96,
            "midi": 38,
            "name": "D2",
            "ticks": 128256,
            "time": 167,
            "velocity": 0.31496062992125984
          },
          {
            "duration": 0,
            "durationTicks": 0,
            "midi": 54,
            "name": "F#3",
            "ticks": 128256,
            "time": 167,
            "velocity": 0.2440944881889764
          },
          {
            "duration": 0.25,
            "durationTicks": 192,
            "midi": 57,
            "name": "A3",
            "ticks": 128256,
            "time": 167,
            "velocity": 0.1968503937007874
          },
          {
            "duration": 0,
            "durationTicks": 0,
            "midi": 44,
            "name": "G#2",
            "ticks": 128256,
            "time": 167,
            "velocity": 0.2677165354330709
          },
          {
            "duration": 0,
            "durationTicks": 0,
            "midi": 60,
            "name": "C4",
            "ticks": 128256,
            "time": 167,
            "velocity": 0.2440944881889764
          },
          {
            "duration": 0.25,
            "durationTicks": 192,
            "midi": 60,
            "name": "C4",
            "ticks": 128256,
            "time": 167,
            "velocity": 0.2440944881889764
          },
          {
            "duration": 0.25,
            "durationTicks": 192,
            "midi": 66,
            "name": "F#4",
            "ticks": 128256,
            "time": 167,
            "velocity": 0.2047244094488189
          },
          {
            "duration": 0.25,
            "durationTicks": 192,
            "midi": 66,
            "name": "F#4",
            "ticks": 128448,
            "time": 167.25,
            "velocity": 0.25984251968503935
          },
          {
            "duration": 0.25,
            "durationTicks": 192,
            "midi": 57,
            "name": "A3",
            "ticks": 128448,
            "time": 167.25,
            "velocity": 0.1889763779527559
          },
          {
            "duration": 0.125,
            "durationTicks": 96,
            "midi": 54,
            "name": "F#3",
            "ticks": 128448,
            "time": 167.25,
            "velocity": 0.2755905511811024
          },
          {
            "duration": 0.25,
            "durationTicks": 192,
            "midi": 38,
            "name": "D2",
            "ticks": 128448,
            "time": 167.25,
            "velocity": 0.31496062992125984
          },
          {
            "duration": 0.25,
            "durationTicks": 192,
            "midi": 60,
            "name": "C4",
            "ticks": 128448,
            "time": 167.25,
            "velocity": 0.25196850393700787
          },
          {
            "duration": 0.125,
            "durationTicks": 96,
            "midi": 50,
            "name": "D3",
            "ticks": 128448,
            "time": 167.25,
            "velocity": 0.25984251968503935
          },
          {
            "duration": 0,
            "durationTicks": 0,
            "midi": 61,
            "name": "C#4",
            "ticks": 128640,
            "time": 167.5,
            "velocity": 0.2755905511811024
          },
          {
            "duration": 0,
            "durationTicks": 0,
            "midi": 44,
            "name": "G#2",
            "ticks": 128640,
            "time": 167.5,
            "velocity": 0.2677165354330709
          },
          {
            "duration": 0,
            "durationTicks": 0,
            "midi": 38,
            "name": "D2",
            "ticks": 128640,
            "time": 167.5,
            "velocity": 0.33858267716535434
          },
          {
            "duration": 0.125,
            "durationTicks": 96,
            "midi": 88,
            "name": "E6",
            "ticks": 128640,
            "time": 167.5,
            "velocity": 0.2047244094488189
          },
          {
            "duration": 0.125,
            "durationTicks": 96,
            "midi": 88,
            "name": "E6",
            "ticks": 128640,
            "time": 167.5,
            "velocity": 0.2047244094488189
          },
          {
            "duration": 0,
            "durationTicks": 0,
            "midi": 54,
            "name": "F#3",
            "ticks": 128640,
            "time": 167.5,
            "velocity": 0.23622047244094488
          },
          {
            "duration": 0.25,
            "durationTicks": 192,
            "midi": 40,
            "name": "E2",
            "ticks": 128640,
            "time": 167.5,
            "velocity": 0.31496062992125984
          },
          {
            "duration": 0.125,
            "durationTicks": 96,
            "midi": 86,
            "name": "D6",
            "ticks": 128736,
            "time": 167.625,
            "velocity": 0.2047244094488189
          },
          {
            "duration": 0.125,
            "durationTicks": 96,
            "midi": 86,
            "name": "D6",
            "ticks": 128736,
            "time": 167.625,
            "velocity": 0.2047244094488189
          },
          {
            "duration": 0.125,
            "durationTicks": 96,
            "midi": 84,
            "name": "C6",
            "ticks": 128832,
            "time": 167.75,
            "velocity": 0.2047244094488189
          },
          {
            "duration": 1.375,
            "durationTicks": 1056,
            "midi": 53,
            "name": "F3",
            "ticks": 128832,
            "time": 167.75,
            "velocity": 0.2677165354330709
          },
          {
            "duration": 0.125,
            "durationTicks": 96,
            "midi": 84,
            "name": "C6",
            "ticks": 128832,
            "time": 167.75,
            "velocity": 0.2047244094488189
          },
          {
            "duration": 0.375,
            "durationTicks": 288,
            "midi": 41,
            "name": "F2",
            "ticks": 128832,
            "time": 167.75,
            "velocity": 0.31496062992125984
          },
          {
            "duration": 0,
            "durationTicks": 0,
            "midi": 46,
            "name": "A#2",
            "ticks": 128832,
            "time": 167.75,
            "velocity": 0.2677165354330709
          },
          {
            "duration": 0.125,
            "durationTicks": 96,
            "midi": 81,
            "name": "A5",
            "ticks": 128928,
            "time": 167.875,
            "velocity": 0.2125984251968504
          },
          {
            "duration": 0.125,
            "durationTicks": 96,
            "midi": 81,
            "name": "A5",
            "ticks": 128928,
            "time": 167.875,
            "velocity": 0.2125984251968504
          },
          {
            "duration": 0,
            "durationTicks": 0,
            "midi": 54,
            "name": "F#3",
            "ticks": 129024,
            "time": 168,
            "velocity": 0.2440944881889764
          },
          {
            "duration": 0,
            "durationTicks": 0,
            "midi": 60,
            "name": "C4",
            "ticks": 129024,
            "time": 168,
            "velocity": 0.2677165354330709
          },
          {
            "duration": 0,
            "durationTicks": 0,
            "midi": 44,
            "name": "G#2",
            "ticks": 129024,
            "time": 168,
            "velocity": 0.2677165354330709
          },
          {
            "duration": 0,
            "durationTicks": 0,
            "midi": 36,
            "name": "C2",
            "ticks": 129024,
            "time": 168,
            "velocity": 0.36220472440944884
          },
          {
            "duration": 1.125,
            "durationTicks": 864,
            "midi": 50,
            "name": "D3",
            "ticks": 129024,
            "time": 168,
            "velocity": 0.2047244094488189
          },
          {
            "duration": 1.25,
            "durationTicks": 960,
            "midi": 84,
            "name": "C6",
            "ticks": 129024,
            "time": 168,
            "velocity": 0.1968503937007874
          },
          {
            "duration": 1,
            "durationTicks": 768,
            "midi": 57,
            "name": "A3",
            "ticks": 129024,
            "time": 168,
            "velocity": 0.25984251968503935
          },
          {
            "duration": 1.25,
            "durationTicks": 960,
            "midi": 84,
            "name": "C6",
            "ticks": 129024,
            "time": 168,
            "velocity": 0.1968503937007874
          },
          {
            "duration": 1,
            "durationTicks": 768,
            "midi": 65,
            "name": "F4",
            "ticks": 129024,
            "time": 168,
            "velocity": 0.2125984251968504
          },
          {
            "duration": 1.125,
            "durationTicks": 864,
            "midi": 57,
            "name": "A3",
            "ticks": 129024,
            "time": 168,
            "velocity": 0.25984251968503935
          },
          {
            "duration": 1,
            "durationTicks": 768,
            "midi": 60,
            "name": "C4",
            "ticks": 129024,
            "time": 168,
            "velocity": 0.2677165354330709
          },
          {
            "duration": 0.125,
            "durationTicks": 96,
            "midi": 41,
            "name": "F2",
            "ticks": 129216,
            "time": 168.25,
            "velocity": 0.30708661417322836
          },
          {
            "duration": 0.125,
            "durationTicks": 96,
            "midi": 41,
            "name": "F2",
            "ticks": 129408,
            "time": 168.5,
            "velocity": 0.31496062992125984
          },
          {
            "duration": 0,
            "durationTicks": 0,
            "midi": 61,
            "name": "C#4",
            "ticks": 129408,
            "time": 168.5,
            "velocity": 0.2755905511811024
          },
          {
            "duration": 0.125,
            "durationTicks": 96,
            "midi": 64,
            "name": "E4",
            "ticks": 129408,
            "time": 168.5,
            "velocity": 0.3228346456692913
          },
          {
            "duration": 0,
            "durationTicks": 0,
            "midi": 44,
            "name": "G#2",
            "ticks": 129408,
            "time": 168.5,
            "velocity": 0.2677165354330709
          },
          {
            "duration": 0,
            "durationTicks": 0,
            "midi": 54,
            "name": "F#3",
            "ticks": 129408,
            "time": 168.5,
            "velocity": 0.2440944881889764
          },
          {
            "duration": 0,
            "durationTicks": 0,
            "midi": 38,
            "name": "D2",
            "ticks": 129408,
            "time": 168.5,
            "velocity": 0.33858267716535434
          },
          {
            "duration": 0.125,
            "durationTicks": 96,
            "midi": 41,
            "name": "F2",
            "ticks": 129600,
            "time": 168.75,
            "velocity": 0.2992125984251969
          },
          {
            "duration": 0.125,
            "durationTicks": 96,
            "midi": 64,
            "name": "E4",
            "ticks": 129600,
            "time": 168.75,
            "velocity": 0.33070866141732286
          },
          {
            "duration": 0,
            "durationTicks": 0,
            "midi": 54,
            "name": "F#3",
            "ticks": 129792,
            "time": 169,
            "velocity": 0.2440944881889764
          },
          {
            "duration": 0,
            "durationTicks": 0,
            "midi": 60,
            "name": "C4",
            "ticks": 129792,
            "time": 169,
            "velocity": 0.2755905511811024
          },
          {
            "duration": 0.125,
            "durationTicks": 96,
            "midi": 69,
            "name": "A4",
            "ticks": 129792,
            "time": 169,
            "velocity": 0.3228346456692913
          },
          {
            "duration": 0.125,
            "durationTicks": 96,
            "midi": 41,
            "name": "F2",
            "ticks": 129792,
            "time": 169,
            "velocity": 0.2992125984251969
          },
          {
            "duration": 0,
            "durationTicks": 0,
            "midi": 36,
            "name": "C2",
            "ticks": 129792,
            "time": 169,
            "velocity": 0.3700787401574803
          },
          {
            "duration": 0,
            "durationTicks": 0,
            "midi": 44,
            "name": "G#2",
            "ticks": 129792,
            "time": 169,
            "velocity": 0.2677165354330709
          },
          {
            "duration": 0.125,
            "durationTicks": 96,
            "midi": 57,
            "name": "A3",
            "ticks": 129984,
            "time": 169.25,
            "velocity": 0.2283464566929134
          },
          {
            "duration": 0.25,
            "durationTicks": 192,
            "midi": 65,
            "name": "F4",
            "ticks": 129984,
            "time": 169.25,
            "velocity": 0.2204724409448819
          },
          {
            "duration": 0.125,
            "durationTicks": 96,
            "midi": 41,
            "name": "F2",
            "ticks": 129984,
            "time": 169.25,
            "velocity": 0.2992125984251969
          },
          {
            "duration": 0.25,
            "durationTicks": 192,
            "midi": 57,
            "name": "A3",
            "ticks": 129984,
            "time": 169.25,
            "velocity": 0.2283464566929134
          },
          {
            "duration": 0.125,
            "durationTicks": 96,
            "midi": 53,
            "name": "F3",
            "ticks": 129984,
            "time": 169.25,
            "velocity": 0.25196850393700787
          },
          {
            "duration": 0.25,
            "durationTicks": 192,
            "midi": 84,
            "name": "C6",
            "ticks": 129984,
            "time": 169.25,
            "velocity": 0.2125984251968504
          },
          {
            "duration": 0.25,
            "durationTicks": 192,
            "midi": 84,
            "name": "C6",
            "ticks": 129984,
            "time": 169.25,
            "velocity": 0.2125984251968504
          },
          {
            "duration": 0.25,
            "durationTicks": 192,
            "midi": 60,
            "name": "C4",
            "ticks": 129984,
            "time": 169.25,
            "velocity": 0.2204724409448819
          },
          {
            "duration": 0.25,
            "durationTicks": 192,
            "midi": 64,
            "name": "E4",
            "ticks": 130176,
            "time": 169.5,
            "velocity": 0.3228346456692913
          },
          {
            "duration": 0.25,
            "durationTicks": 192,
            "midi": 81,
            "name": "A5",
            "ticks": 130176,
            "time": 169.5,
            "velocity": 0.1889763779527559
          },
          {
            "duration": 0,
            "durationTicks": 0,
            "midi": 38,
            "name": "D2",
            "ticks": 130176,
            "time": 169.5,
            "velocity": 0.33858267716535434
          },
          {
            "duration": 0.125,
            "durationTicks": 96,
            "midi": 41,
            "name": "F2",
            "ticks": 130176,
            "time": 169.5,
            "velocity": 0.31496062992125984
          },
          {
            "duration": 0,
            "durationTicks": 0,
            "midi": 54,
            "name": "F#3",
            "ticks": 130176,
            "time": 169.5,
            "velocity": 0.2283464566929134
          },
          {
            "duration": 0,
            "durationTicks": 0,
            "midi": 61,
            "name": "C#4",
            "ticks": 130176,
            "time": 169.5,
            "velocity": 0.28346456692913385
          },
          {
            "duration": 0.25,
            "durationTicks": 192,
            "midi": 81,
            "name": "A5",
            "ticks": 130176,
            "time": 169.5,
            "velocity": 0.1889763779527559
          },
          {
            "duration": 0,
            "durationTicks": 0,
            "midi": 44,
            "name": "G#2",
            "ticks": 130176,
            "time": 169.5,
            "velocity": 0.2677165354330709
          },
          {
            "duration": 0,
            "durationTicks": 0,
            "midi": 60,
            "name": "C4",
            "ticks": 130272,
            "time": 169.625,
            "velocity": 0.29133858267716534
          },
          {
            "duration": 0,
            "durationTicks": 0,
            "midi": 46,
            "name": "A#2",
            "ticks": 130368,
            "time": 169.75,
            "velocity": 0.2755905511811024
          },
          {
            "duration": 0.25,
            "durationTicks": 192,
            "midi": 84,
            "name": "C6",
            "ticks": 130368,
            "time": 169.75,
            "velocity": 0.1968503937007874
          },
          {
            "duration": 0.25,
            "durationTicks": 192,
            "midi": 84,
            "name": "C6",
            "ticks": 130368,
            "time": 169.75,
            "velocity": 0.1968503937007874
          },
          {
            "duration": 0.25,
            "durationTicks": 192,
            "midi": 59,
            "name": "B3",
            "ticks": 130368,
            "time": 169.75,
            "velocity": 0.2047244094488189
          },
          {
            "duration": 0,
            "durationTicks": 0,
            "midi": 61,
            "name": "C#4",
            "ticks": 130368,
            "time": 169.75,
            "velocity": 0.2755905511811024
          },
          {
            "duration": 0.25,
            "durationTicks": 192,
            "midi": 41,
            "name": "F2",
            "ticks": 130368,
            "time": 169.75,
            "velocity": 0.30708661417322836
          },
          {
            "duration": 0.25,
            "durationTicks": 192,
            "midi": 62,
            "name": "D4",
            "ticks": 130368,
            "time": 169.75,
            "velocity": 0.25196850393700787
          },
          {
            "duration": 0.25,
            "durationTicks": 192,
            "midi": 67,
            "name": "G4",
            "ticks": 130368,
            "time": 169.75,
            "velocity": 0.14173228346456693
          },
          {
            "duration": 0.125,
            "durationTicks": 96,
            "midi": 43,
            "name": "G2",
            "ticks": 130560,
            "time": 170,
            "velocity": 0.2992125984251969
          },
          {
            "duration": 0,
            "durationTicks": 0,
            "midi": 54,
            "name": "F#3",
            "ticks": 130560,
            "time": 170,
            "velocity": 0.2440944881889764
          },
          {
            "duration": 0,
            "durationTicks": 0,
            "midi": 60,
            "name": "C4",
            "ticks": 130560,
            "time": 170,
            "velocity": 0.28346456692913385
          },
          {
            "duration": 0,
            "durationTicks": 0,
            "midi": 36,
            "name": "C2",
            "ticks": 130560,
            "time": 170,
            "velocity": 0.3700787401574803
          },
          {
            "duration": 0.5,
            "durationTicks": 384,
            "midi": 88,
            "name": "E6",
            "ticks": 130560,
            "time": 170,
            "velocity": 0.1968503937007874
          },
          {
            "duration": 0.5,
            "durationTicks": 384,
            "midi": 52,
            "name": "E3",
            "ticks": 130560,
            "time": 170,
            "velocity": 0.25984251968503935
          },
          {
            "duration": 0.5,
            "durationTicks": 384,
            "midi": 55,
            "name": "G3",
            "ticks": 130560,
            "time": 170,
            "velocity": 0.2755905511811024
          },
          {
            "duration": 0,
            "durationTicks": 0,
            "midi": 44,
            "name": "G#2",
            "ticks": 130560,
            "time": 170,
            "velocity": 0.25984251968503935
          },
          {
            "duration": 0.5,
            "durationTicks": 384,
            "midi": 88,
            "name": "E6",
            "ticks": 130560,
            "time": 170,
            "velocity": 0.1968503937007874
          },
          {
            "duration": 0.125,
            "durationTicks": 96,
            "midi": 43,
            "name": "G2",
            "ticks": 130752,
            "time": 170.25,
            "velocity": 0.2992125984251969
          },
          {
            "duration": 0,
            "durationTicks": 0,
            "midi": 38,
            "name": "D2",
            "ticks": 130936,
            "time": 170.48958333333334,
            "velocity": 0.33858267716535434
          },
          {
            "duration": 0.125,
            "durationTicks": 96,
            "midi": 59,
            "name": "B3",
            "ticks": 130944,
            "time": 170.5,
            "velocity": 0.1968503937007874
          },
          {
            "duration": 0.125,
            "durationTicks": 96,
            "midi": 67,
            "name": "G4",
            "ticks": 130944,
            "time": 170.5,
            "velocity": 0.18110236220472442
          },
          {
            "duration": 0.125,
            "durationTicks": 96,
            "midi": 43,
            "name": "G2",
            "ticks": 130944,
            "time": 170.5,
            "velocity": 0.30708661417322836
          },
          {
            "duration": 0.25,
            "durationTicks": 192,
            "midi": 69,
            "name": "A4",
            "ticks": 130944,
            "time": 170.5,
            "velocity": 0.3228346456692913
          },
          {
            "duration": 0.125,
            "durationTicks": 96,
            "midi": 62,
            "name": "D4",
            "ticks": 130944,
            "time": 170.5,
            "velocity": 0.2992125984251969
          },
          {
            "duration": 0,
            "durationTicks": 0,
            "midi": 61,
            "name": "C#4",
            "ticks": 130944,
            "time": 170.5,
            "velocity": 0.28346456692913385
          },
          {
            "duration": 0.5,
            "durationTicks": 384,
            "midi": 86,
            "name": "D6",
            "ticks": 130944,
            "time": 170.5,
            "velocity": 0.1968503937007874
          },
          {
            "duration": 0.5,
            "durationTicks": 384,
            "midi": 86,
            "name": "D6",
            "ticks": 130944,
            "time": 170.5,
            "velocity": 0.1968503937007874
          },
          {
            "duration": 0,
            "durationTicks": 0,
            "midi": 44,
            "name": "G#2",
            "ticks": 130944,
            "time": 170.5,
            "velocity": 0.2755905511811024
          },
          {
            "duration": 0,
            "durationTicks": 0,
            "midi": 54,
            "name": "F#3",
            "ticks": 130944,
            "time": 170.5,
            "velocity": 0.23622047244094488
          },
          {
            "duration": 0.375,
            "durationTicks": 288,
            "midi": 50,
            "name": "D3",
            "ticks": 131136,
            "time": 170.75,
            "velocity": 0.2755905511811024
          },
          {
            "duration": 0.125,
            "durationTicks": 96,
            "midi": 43,
            "name": "G2",
            "ticks": 131136,
            "time": 170.75,
            "velocity": 0.31496062992125984
          },
          {
            "duration": 0.375,
            "durationTicks": 288,
            "midi": 55,
            "name": "G3",
            "ticks": 131136,
            "time": 170.75,
            "velocity": 0.2677165354330709
          },
          {
            "duration": 0.125,
            "durationTicks": 96,
            "midi": 43,
            "name": "G2",
            "ticks": 131328,
            "time": 171,
            "velocity": 0.2992125984251969
          },
          {
            "duration": 0.25,
            "durationTicks": 192,
            "midi": 62,
            "name": "D4",
            "ticks": 131328,
            "time": 171,
            "velocity": 0.29133858267716534
          },
          {
            "duration": 0,
            "durationTicks": 0,
            "midi": 54,
            "name": "F#3",
            "ticks": 131328,
            "time": 171,
            "velocity": 0.2440944881889764
          },
          {
            "duration": 0.25,
            "durationTicks": 192,
            "midi": 59,
            "name": "B3",
            "ticks": 131328,
            "time": 171,
            "velocity": 0.1889763779527559
          },
          {
            "duration": 0,
            "durationTicks": 0,
            "midi": 60,
            "name": "C4",
            "ticks": 131328,
            "time": 171,
            "velocity": 0.28346456692913385
          },
          {
            "duration": 0.375,
            "durationTicks": 288,
            "midi": 64,
            "name": "E4",
            "ticks": 131328,
            "time": 171,
            "velocity": 0.33858267716535434
          },
          {
            "duration": 0.5,
            "durationTicks": 384,
            "midi": 88,
            "name": "E6",
            "ticks": 131328,
            "time": 171,
            "velocity": 0.2204724409448819
          },
          {
            "duration": 0.5,
            "durationTicks": 384,
            "midi": 88,
            "name": "E6",
            "ticks": 131328,
            "time": 171,
            "velocity": 0.2204724409448819
          },
          {
            "duration": 0.25,
            "durationTicks": 192,
            "midi": 67,
            "name": "G4",
            "ticks": 131328,
            "time": 171,
            "velocity": 0.2283464566929134
          },
          {
            "duration": 0,
            "durationTicks": 0,
            "midi": 44,
            "name": "G#2",
            "ticks": 131328,
            "time": 171,
            "velocity": 0.25984251968503935
          },
          {
            "duration": 0,
            "durationTicks": 0,
            "midi": 36,
            "name": "C2",
            "ticks": 131328,
            "time": 171,
            "velocity": 0.3700787401574803
          },
          {
            "duration": 0,
            "durationTicks": 0,
            "midi": 38,
            "name": "D2",
            "ticks": 131516,
            "time": 171.24479166666666,
            "velocity": 0.33070866141732286
          },
          {
            "duration": 0.75,
            "durationTicks": 576,
            "midi": 50,
            "name": "D3",
            "ticks": 131520,
            "time": 171.25,
            "velocity": 0.2755905511811024
          },
          {
            "duration": 0.125,
            "durationTicks": 96,
            "midi": 67,
            "name": "G4",
            "ticks": 131520,
            "time": 171.25,
            "velocity": 0.2440944881889764
          },
          {
            "duration": 0.25,
            "durationTicks": 192,
            "midi": 43,
            "name": "G2",
            "ticks": 131520,
            "time": 171.25,
            "velocity": 0.31496062992125984
          },
          {
            "duration": 0.125,
            "durationTicks": 96,
            "midi": 59,
            "name": "B3",
            "ticks": 131520,
            "time": 171.25,
            "velocity": 0.2125984251968504
          },
          {
            "duration": 0.125,
            "durationTicks": 96,
            "midi": 55,
            "name": "G3",
            "ticks": 131520,
            "time": 171.25,
            "velocity": 0.2755905511811024
          },
          {
            "duration": 0.75,
            "durationTicks": 576,
            "midi": 55,
            "name": "G3",
            "ticks": 131520,
            "time": 171.25,
            "velocity": 0.2755905511811024
          },
          {
            "duration": 0.125,
            "durationTicks": 96,
            "midi": 62,
            "name": "D4",
            "ticks": 131520,
            "time": 171.25,
            "velocity": 0.2125984251968504
          },
          {
            "duration": 0,
            "durationTicks": 0,
            "midi": 61,
            "name": "C#4",
            "ticks": 131712,
            "time": 171.5,
            "velocity": 0.28346456692913385
          },
          {
            "duration": 0,
            "durationTicks": 0,
            "midi": 44,
            "name": "G#2",
            "ticks": 131712,
            "time": 171.5,
            "velocity": 0.2677165354330709
          },
          {
            "duration": 0.25,
            "durationTicks": 192,
            "midi": 41,
            "name": "F2",
            "ticks": 131712,
            "time": 171.5,
            "velocity": 0.2992125984251969
          },
          {
            "duration": 0.5,
            "durationTicks": 384,
            "midi": 86,
            "name": "D6",
            "ticks": 131712,
            "time": 171.5,
            "velocity": 0.2204724409448819
          },
          {
            "duration": 0.5,
            "durationTicks": 384,
            "midi": 86,
            "name": "D6",
            "ticks": 131712,
            "time": 171.5,
            "velocity": 0.2204724409448819
          },
          {
            "duration": 0,
            "durationTicks": 0,
            "midi": 54,
            "name": "F#3",
            "ticks": 131712,
            "time": 171.5,
            "velocity": 0.2283464566929134
          },
          {
            "duration": 0,
            "durationTicks": 0,
            "midi": 38,
            "name": "D2",
            "ticks": 131716,
            "time": 171.50520833333334,
            "velocity": 0.33858267716535434
          },
          {
            "duration": 0.125,
            "durationTicks": 96,
            "midi": 40,
            "name": "E2",
            "ticks": 131904,
            "time": 171.75,
            "velocity": 0.30708661417322836
          },
          {
            "duration": 0,
            "durationTicks": 0,
            "midi": 46,
            "name": "A#2",
            "ticks": 131904,
            "time": 171.75,
            "velocity": 0.2677165354330709
          },
          {
            "duration": 0,
            "durationTicks": 0,
            "midi": 36,
            "name": "C2",
            "ticks": 132096,
            "time": 172,
            "velocity": 0.2992125984251969
          },
          {
            "duration": 0,
            "durationTicks": 0,
            "midi": 60,
            "name": "C4",
            "ticks": 132096,
            "time": 172,
            "velocity": 0.3228346456692913
          },
          {
            "duration": 0,
            "durationTicks": 0,
            "midi": 54,
            "name": "F#3",
            "ticks": 132096,
            "time": 172,
            "velocity": 0.2755905511811024
          },
          {
            "duration": 0.125,
            "durationTicks": 96,
            "midi": 60,
            "name": "C4",
            "ticks": 132096,
            "time": 172,
            "velocity": 0.3228346456692913
          },
          {
            "duration": 0,
            "durationTicks": 0,
            "midi": 44,
            "name": "G#2",
            "ticks": 132096,
            "time": 172,
            "velocity": 0.25984251968503935
          },
          {
            "duration": 0,
            "durationTicks": 0,
            "midi": 49,
            "name": "C#3",
            "ticks": 132096,
            "time": 172,
            "velocity": 0.28346456692913385
          },
          {
            "duration": 0.375,
            "durationTicks": 288,
            "midi": 36,
            "name": "C2",
            "ticks": 132096,
            "time": 172,
            "velocity": 0.2992125984251969
          },
          {
            "duration": 1.125,
            "durationTicks": 864,
            "midi": 48,
            "name": "C3",
            "ticks": 132096,
            "time": 172,
            "velocity": 0.25984251968503935
          },
          {
            "duration": 1.125,
            "durationTicks": 864,
            "midi": 84,
            "name": "C6",
            "ticks": 132096,
            "time": 172,
            "velocity": 0.2047244094488189
          },
          {
            "duration": 1.125,
            "durationTicks": 864,
            "midi": 52,
            "name": "E3",
            "ticks": 132096,
            "time": 172,
            "velocity": 0.2755905511811024
          },
          {
            "duration": 1,
            "durationTicks": 768,
            "midi": 55,
            "name": "G3",
            "ticks": 132096,
            "time": 172,
            "velocity": 0.1889763779527559
          },
          {
            "duration": 1.125,
            "durationTicks": 864,
            "midi": 84,
            "name": "C6",
            "ticks": 132096,
            "time": 172,
            "velocity": 0.2047244094488189
          },
          {
            "duration": 1,
            "durationTicks": 768,
            "midi": 64,
            "name": "E4",
            "ticks": 132096,
            "time": 172,
            "velocity": 0.1889763779527559
          },
          {
            "duration": 0.125,
            "durationTicks": 96,
            "midi": 60,
            "name": "C4",
            "ticks": 132192,
            "time": 172.125,
            "velocity": 0.33070866141732286
          },
          {
            "duration": 0.125,
            "durationTicks": 96,
            "midi": 60,
            "name": "C4",
            "ticks": 132288,
            "time": 172.25,
            "velocity": 0.33858267716535434
          },
          {
            "duration": 0,
            "durationTicks": 0,
            "midi": 54,
            "name": "F#3",
            "ticks": 132480,
            "time": 172.5,
            "velocity": 0.29133858267716534
          },
          {
            "duration": 0,
            "durationTicks": 0,
            "midi": 44,
            "name": "G#2",
            "ticks": 132480,
            "time": 172.5,
            "velocity": 0.2755905511811024
          },
          {
            "duration": 0,
            "durationTicks": 0,
            "midi": 38,
            "name": "D2",
            "ticks": 132480,
            "time": 172.5,
            "velocity": 0.33858267716535434
          },
          {
            "duration": 0.125,
            "durationTicks": 96,
            "midi": 60,
            "name": "C4",
            "ticks": 132480,
            "time": 172.5,
            "velocity": 0.3228346456692913
          },
          {
            "duration": 0.375,
            "durationTicks": 288,
            "midi": 36,
            "name": "C2",
            "ticks": 132480,
            "time": 172.5,
            "velocity": 0.2992125984251969
          },
          {
            "duration": 0,
            "durationTicks": 0,
            "midi": 61,
            "name": "C#4",
            "ticks": 132480,
            "time": 172.5,
            "velocity": 0.29133858267716534
          },
          {
            "duration": 0.125,
            "durationTicks": 96,
            "midi": 60,
            "name": "C4",
            "ticks": 132576,
            "time": 172.625,
            "velocity": 0.31496062992125984
          },
          {
            "duration": 0.125,
            "durationTicks": 96,
            "midi": 60,
            "name": "C4",
            "ticks": 132672,
            "time": 172.75,
            "velocity": 0.31496062992125984
          },
          {
            "duration": 0.25,
            "durationTicks": 192,
            "midi": 60,
            "name": "C4",
            "ticks": 132672,
            "time": 172.75,
            "velocity": 0.31496062992125984
          },
          {
            "duration": 0,
            "durationTicks": 0,
            "midi": 54,
            "name": "F#3",
            "ticks": 132864,
            "time": 173,
            "velocity": 0.28346456692913385
          },
          {
            "duration": 0,
            "durationTicks": 0,
            "midi": 36,
            "name": "C2",
            "ticks": 132864,
            "time": 173,
            "velocity": 0.30708661417322836
          },
          {
            "duration": 0,
            "durationTicks": 0,
            "midi": 44,
            "name": "G#2",
            "ticks": 132864,
            "time": 173,
            "velocity": 0.25984251968503935
          },
          {
            "duration": 0,
            "durationTicks": 0,
            "midi": 60,
            "name": "C4",
            "ticks": 132864,
            "time": 173,
            "velocity": 0.29133858267716534
          },
          {
            "duration": 0.125,
            "durationTicks": 96,
            "midi": 36,
            "name": "C2",
            "ticks": 132864,
            "time": 173,
            "velocity": 0.30708661417322836
          },
          {
            "duration": 0.25,
            "durationTicks": 192,
            "midi": 84,
            "name": "C6",
            "ticks": 133056,
            "time": 173.25,
            "velocity": 0.1968503937007874
          },
          {
            "duration": 0.25,
            "durationTicks": 192,
            "midi": 84,
            "name": "C6",
            "ticks": 133056,
            "time": 173.25,
            "velocity": 0.1968503937007874
          },
          {
            "duration": 0.125,
            "durationTicks": 96,
            "midi": 52,
            "name": "E3",
            "ticks": 133056,
            "time": 173.25,
            "velocity": 0.2755905511811024
          },
          {
            "duration": 0.25,
            "durationTicks": 192,
            "midi": 60,
            "name": "C4",
            "ticks": 133056,
            "time": 173.25,
            "velocity": 0.25196850393700787
          },
          {
            "duration": 0.25,
            "durationTicks": 192,
            "midi": 55,
            "name": "G3",
            "ticks": 133056,
            "time": 173.25,
            "velocity": 0.1889763779527559
          },
          {
            "duration": 0.125,
            "durationTicks": 96,
            "midi": 64,
            "name": "E4",
            "ticks": 133056,
            "time": 173.25,
            "velocity": 0.23622047244094488
          },
          {
            "duration": 0.25,
            "durationTicks": 192,
            "midi": 64,
            "name": "E4",
            "ticks": 133056,
            "time": 173.25,
            "velocity": 0.23622047244094488
          },
          {
            "duration": 0.375,
            "durationTicks": 288,
            "midi": 36,
            "name": "C2",
            "ticks": 133056,
            "time": 173.25,
            "velocity": 0.2992125984251969
          },
          {
            "duration": 0.125,
            "durationTicks": 96,
            "midi": 48,
            "name": "C3",
            "ticks": 133056,
            "time": 173.25,
            "velocity": 0.25984251968503935
          },
          {
            "duration": 0,
            "durationTicks": 0,
            "midi": 54,
            "name": "F#3",
            "ticks": 133248,
            "time": 173.5,
            "velocity": 0.2755905511811024
          },
          {
            "duration": 0,
            "durationTicks": 0,
            "midi": 44,
            "name": "G#2",
            "ticks": 133248,
            "time": 173.5,
            "velocity": 0.25984251968503935
          },
          {
            "duration": 0,
            "durationTicks": 0,
            "midi": 38,
            "name": "D2",
            "ticks": 133248,
            "time": 173.5,
            "velocity": 0.33858267716535434
          },
          {
            "duration": 0,
            "durationTicks": 0,
            "midi": 61,
            "name": "C#4",
            "ticks": 133248,
            "time": 173.5,
            "velocity": 0.2755905511811024
          },
          {
            "duration": 0.25,
            "durationTicks": 192,
            "midi": 81,
            "name": "A5",
            "ticks": 133248,
            "time": 173.5,
            "velocity": 0.1889763779527559
          },
          {
            "duration": 0.25,
            "durationTicks": 192,
            "midi": 81,
            "name": "A5",
            "ticks": 133248,
            "time": 173.5,
            "velocity": 0.1889763779527559
          },
          {
            "duration": 0,
            "durationTicks": 0,
            "midi": 60,
            "name": "C4",
            "ticks": 133344,
            "time": 173.625,
            "velocity": 0.2755905511811024
          },
          {
            "duration": 0.5,
            "durationTicks": 384,
            "midi": 57,
            "name": "A3",
            "ticks": 133440,
            "time": 173.75,
            "velocity": 0.23622047244094488
          },
          {
            "duration": 0,
            "durationTicks": 0,
            "midi": 46,
            "name": "A#2",
            "ticks": 133440,
            "time": 173.75,
            "velocity": 0.2677165354330709
          },
          {
            "duration": 1.375,
            "durationTicks": 1056,
            "midi": 50,
            "name": "D3",
            "ticks": 133440,
            "time": 173.75,
            "velocity": 0.1889763779527559
          },
          {
            "duration": 0.25,
            "durationTicks": 192,
            "midi": 84,
            "name": "C6",
            "ticks": 133440,
            "time": 173.75,
            "velocity": 0.2204724409448819
          },
          {
            "duration": 1.375,
            "durationTicks": 1056,
            "midi": 50,
            "name": "D3",
            "ticks": 133440,
            "time": 173.75,
            "velocity": 0.1889763779527559
          },
          {
            "duration": 0.25,
            "durationTicks": 192,
            "midi": 66,
            "name": "F#4",
            "ticks": 133440,
            "time": 173.75,
            "velocity": 0.1732283464566929
          },
          {
            "duration": 0,
            "durationTicks": 0,
            "midi": 61,
            "name": "C#4",
            "ticks": 133440,
            "time": 173.75,
            "velocity": 0.28346456692913385
          },
          {
            "duration": 0.25,
            "durationTicks": 192,
            "midi": 36,
            "name": "C2",
            "ticks": 133440,
            "time": 173.75,
            "velocity": 0.30708661417322836
          },
          {
            "duration": 0.25,
            "durationTicks": 192,
            "midi": 60,
            "name": "C4",
            "ticks": 133440,
            "time": 173.75,
            "velocity": 0.2125984251968504
          },
          {
            "duration": 0.25,
            "durationTicks": 192,
            "midi": 84,
            "name": "C6",
            "ticks": 133440,
            "time": 173.75,
            "velocity": 0.2204724409448819
          },
          {
            "duration": 0,
            "durationTicks": 0,
            "midi": 60,
            "name": "C4",
            "ticks": 133632,
            "time": 174,
            "velocity": 0.2440944881889764
          },
          {
            "duration": 0.25,
            "durationTicks": 192,
            "midi": 66,
            "name": "F#4",
            "ticks": 133632,
            "time": 174,
            "velocity": 0.2047244094488189
          },
          {
            "duration": 0.375,
            "durationTicks": 288,
            "midi": 38,
            "name": "D2",
            "ticks": 133632,
            "time": 174,
            "velocity": 0.31496062992125984
          },
          {
            "duration": 0,
            "durationTicks": 0,
            "midi": 44,
            "name": "G#2",
            "ticks": 133632,
            "time": 174,
            "velocity": 0.2677165354330709
          },
          {
            "duration": 1.25,
            "durationTicks": 960,
            "midi": 88,
            "name": "E6",
            "ticks": 133632,
            "time": 174,
            "velocity": 0.2047244094488189
          },
          {
            "duration": 1.25,
            "durationTicks": 960,
            "midi": 88,
            "name": "E6",
            "ticks": 133632,
            "time": 174,
            "velocity": 0.2047244094488189
          },
          {
            "duration": 0.25,
            "durationTicks": 192,
            "midi": 60,
            "name": "C4",
            "ticks": 133632,
            "time": 174,
            "velocity": 0.2440944881889764
          },
          {
            "duration": 0,
            "durationTicks": 0,
            "midi": 54,
            "name": "F#3",
            "ticks": 133632,
            "time": 174,
            "velocity": 0.2755905511811024
          },
          {
            "duration": 0,
            "durationTicks": 0,
            "midi": 36,
            "name": "C2",
            "ticks": 133632,
            "time": 174,
            "velocity": 0.3700787401574803
          },
          {
            "duration": 0.25,
            "durationTicks": 192,
            "midi": 57,
            "name": "A3",
            "ticks": 134016,
            "time": 174.5,
            "velocity": 0.1889763779527559
          },
          {
            "duration": 0.25,
            "durationTicks": 192,
            "midi": 69,
            "name": "A4",
            "ticks": 134016,
            "time": 174.5,
            "velocity": 0.3228346456692913
          },
          {
            "duration": 0,
            "durationTicks": 0,
            "midi": 38,
            "name": "D2",
            "ticks": 134016,
            "time": 174.5,
            "velocity": 0.30708661417322836
          },
          {
            "duration": 0,
            "durationTicks": 0,
            "midi": 44,
            "name": "G#2",
            "ticks": 134016,
            "time": 174.5,
            "velocity": 0.25984251968503935
          },
          {
            "duration": 0,
            "durationTicks": 0,
            "midi": 61,
            "name": "C#4",
            "ticks": 134016,
            "time": 174.5,
            "velocity": 0.28346456692913385
          },
          {
            "duration": 0,
            "durationTicks": 0,
            "midi": 54,
            "name": "F#3",
            "ticks": 134016,
            "time": 174.5,
            "velocity": 0.28346456692913385
          },
          {
            "duration": 0.25,
            "durationTicks": 192,
            "midi": 66,
            "name": "F#4",
            "ticks": 134016,
            "time": 174.5,
            "velocity": 0.1889763779527559
          },
          {
            "duration": 0.25,
            "durationTicks": 192,
            "midi": 60,
            "name": "C4",
            "ticks": 134016,
            "time": 174.5,
            "velocity": 0.25196850393700787
          },
          {
            "duration": 0.375,
            "durationTicks": 288,
            "midi": 38,
            "name": "D2",
            "ticks": 134016,
            "time": 174.5,
            "velocity": 0.30708661417322836
          },
          {
            "duration": 0,
            "durationTicks": 0,
            "midi": 54,
            "name": "F#3",
            "ticks": 134400,
            "time": 175,
            "velocity": 0.2755905511811024
          },
          {
            "duration": 0,
            "durationTicks": 0,
            "midi": 60,
            "name": "C4",
            "ticks": 134400,
            "time": 175,
            "velocity": 0.2440944881889764
          },
          {
            "duration": 0.375,
            "durationTicks": 288,
            "midi": 64,
            "name": "E4",
            "ticks": 134400,
            "time": 175,
            "velocity": 0.3228346456692913
          },
          {
            "duration": 0.125,
            "durationTicks": 96,
            "midi": 38,
            "name": "D2",
            "ticks": 134400,
            "time": 175,
            "velocity": 0.31496062992125984
          },
          {
            "duration": 0.25,
            "durationTicks": 192,
            "midi": 57,
            "name": "A3",
            "ticks": 134400,
            "time": 175,
            "velocity": 0.1968503937007874
          },
          {
            "duration": 0.25,
            "durationTicks": 192,
            "midi": 66,
            "name": "F#4",
            "ticks": 134400,
            "time": 175,
            "velocity": 0.2047244094488189
          },
          {
            "duration": 0.25,
            "durationTicks": 192,
            "midi": 60,
            "name": "C4",
            "ticks": 134400,
            "time": 175,
            "velocity": 0.2440944881889764
          },
          {
            "duration": 0,
            "durationTicks": 0,
            "midi": 44,
            "name": "G#2",
            "ticks": 134400,
            "time": 175,
            "velocity": 0.2677165354330709
          },
          {
            "duration": 0.125,
            "durationTicks": 96,
            "midi": 54,
            "name": "F#3",
            "ticks": 134400,
            "time": 175,
            "velocity": 0.2755905511811024
          },
          {
            "duration": 0,
            "durationTicks": 0,
            "midi": 36,
            "name": "C2",
            "ticks": 134400,
            "time": 175,
            "velocity": 0.36220472440944884
          },
          {
            "duration": 0.25,
            "durationTicks": 192,
            "midi": 60,
            "name": "C4",
            "ticks": 134592,
            "time": 175.25,
            "velocity": 0.25196850393700787
          },
          {
            "duration": 0.125,
            "durationTicks": 96,
            "midi": 50,
            "name": "D3",
            "ticks": 134592,
            "time": 175.25,
            "velocity": 0.2755905511811024
          },
          {
            "duration": 0.25,
            "durationTicks": 192,
            "midi": 57,
            "name": "A3",
            "ticks": 134592,
            "time": 175.25,
            "velocity": 0.1889763779527559
          },
          {
            "duration": 0.125,
            "durationTicks": 96,
            "midi": 54,
            "name": "F#3",
            "ticks": 134592,
            "time": 175.25,
            "velocity": 0.25984251968503935
          },
          {
            "duration": 0.25,
            "durationTicks": 192,
            "midi": 66,
            "name": "F#4",
            "ticks": 134592,
            "time": 175.25,
            "velocity": 0.25984251968503935
          },
          {
            "duration": 0,
            "durationTicks": 0,
            "midi": 38,
            "name": "D2",
            "ticks": 134784,
            "time": 175.5,
            "velocity": 0.33858267716535434
          },
          {
            "duration": 0.125,
            "durationTicks": 96,
            "midi": 88,
            "name": "E6",
            "ticks": 134784,
            "time": 175.5,
            "velocity": 0.2125984251968504
          },
          {
            "duration": 0.125,
            "durationTicks": 96,
            "midi": 88,
            "name": "E6",
            "ticks": 134784,
            "time": 175.5,
            "velocity": 0.2125984251968504
          },
          {
            "duration": 0,
            "durationTicks": 0,
            "midi": 44,
            "name": "G#2",
            "ticks": 134784,
            "time": 175.5,
            "velocity": 0.25984251968503935
          },
          {
            "duration": 0.125,
            "durationTicks": 96,
            "midi": 38,
            "name": "D2",
            "ticks": 134784,
            "time": 175.5,
            "velocity": 0.33858267716535434
          },
          {
            "duration": 0,
            "durationTicks": 0,
            "midi": 54,
            "name": "F#3",
            "ticks": 134784,
            "time": 175.5,
            "velocity": 0.28346456692913385
          },
          {
            "duration": 0,
            "durationTicks": 0,
            "midi": 61,
            "name": "C#4",
            "ticks": 134784,
            "time": 175.5,
            "velocity": 0.29133858267716534
          },
          {
            "duration": 0.125,
            "durationTicks": 96,
            "midi": 86,
            "name": "D6",
            "ticks": 134880,
            "time": 175.625,
            "velocity": 0.2204724409448819
          },
          {
            "duration": 0.125,
            "durationTicks": 96,
            "midi": 86,
            "name": "D6",
            "ticks": 134880,
            "time": 175.625,
            "velocity": 0.2204724409448819
          },
          {
            "duration": 0,
            "durationTicks": 0,
            "midi": 46,
            "name": "A#2",
            "ticks": 134976,
            "time": 175.75,
            "velocity": 0.2755905511811024
          },
          {
            "duration": 0.125,
            "durationTicks": 96,
            "midi": 84,
            "name": "C6",
            "ticks": 134976,
            "time": 175.75,
            "velocity": 0.2125984251968504
          },
          {
            "duration": 0.125,
            "durationTicks": 96,
            "midi": 84,
            "name": "C6",
            "ticks": 134976,
            "time": 175.75,
            "velocity": 0.2125984251968504
          },
          {
            "duration": 0.25,
            "durationTicks": 192,
            "midi": 40,
            "name": "E2",
            "ticks": 134976,
            "time": 175.75,
            "velocity": 0.2992125984251969
          },
          {
            "duration": 0.125,
            "durationTicks": 96,
            "midi": 81,
            "name": "A5",
            "ticks": 135072,
            "time": 175.875,
            "velocity": 0.1968503937007874
          },
          {
            "duration": 0.125,
            "durationTicks": 96,
            "midi": 81,
            "name": "A5",
            "ticks": 135072,
            "time": 175.875,
            "velocity": 0.1968503937007874
          },
          {
            "duration": 0,
            "durationTicks": 0,
            "midi": 54,
            "name": "F#3",
            "ticks": 135168,
            "time": 176,
            "velocity": 0.28346456692913385
          },
          {
            "duration": 0,
            "durationTicks": 0,
            "midi": 60,
            "name": "C4",
            "ticks": 135168,
            "time": 176,
            "velocity": 0.2677165354330709
          },
          {
            "duration": 0,
            "durationTicks": 0,
            "midi": 44,
            "name": "G#2",
            "ticks": 135168,
            "time": 176,
            "velocity": 0.25984251968503935
          },
          {
            "duration": 0,
            "durationTicks": 0,
            "midi": 36,
            "name": "C2",
            "ticks": 135168,
            "time": 176,
            "velocity": 0.36220472440944884
          },
          {
            "duration": 0.375,
            "durationTicks": 288,
            "midi": 41,
            "name": "F2",
            "ticks": 135168,
            "time": 176,
            "velocity": 0.2992125984251969
          },
          {
            "duration": 1.25,
            "durationTicks": 960,
            "midi": 84,
            "name": "C6",
            "ticks": 135168,
            "time": 176,
            "velocity": 0.2204724409448819
          },
          {
            "duration": 1,
            "durationTicks": 768,
            "midi": 53,
            "name": "F3",
            "ticks": 135168,
            "time": 176,
            "velocity": 0.2047244094488189
          },
          {
            "duration": 1,
            "durationTicks": 768,
            "midi": 57,
            "name": "A3",
            "ticks": 135168,
            "time": 176,
            "velocity": 0.25984251968503935
          },
          {
            "duration": 1,
            "durationTicks": 768,
            "midi": 57,
            "name": "A3",
            "ticks": 135168,
            "time": 176,
            "velocity": 0.25984251968503935
          },
          {
            "duration": 1,
            "durationTicks": 768,
            "midi": 60,
            "name": "C4",
            "ticks": 135168,
            "time": 176,
            "velocity": 0.2677165354330709
          },
          {
            "duration": 1.25,
            "durationTicks": 960,
            "midi": 53,
            "name": "F3",
            "ticks": 135168,
            "time": 176,
            "velocity": 0.2047244094488189
          },
          {
            "duration": 1.25,
            "durationTicks": 960,
            "midi": 84,
            "name": "C6",
            "ticks": 135168,
            "time": 176,
            "velocity": 0.2204724409448819
          },
          {
            "duration": 1,
            "durationTicks": 768,
            "midi": 65,
            "name": "F4",
            "ticks": 135168,
            "time": 176,
            "velocity": 0.2125984251968504
          },
          {
            "duration": 0,
            "durationTicks": 0,
            "midi": 61,
            "name": "C#4",
            "ticks": 135552,
            "time": 176.5,
            "velocity": 0.2755905511811024
          },
          {
            "duration": 0,
            "durationTicks": 0,
            "midi": 44,
            "name": "G#2",
            "ticks": 135552,
            "time": 176.5,
            "velocity": 0.25984251968503935
          },
          {
            "duration": 0,
            "durationTicks": 0,
            "midi": 38,
            "name": "D2",
            "ticks": 135552,
            "time": 176.5,
            "velocity": 0.33858267716535434
          },
          {
            "duration": 0.125,
            "durationTicks": 96,
            "midi": 64,
            "name": "E4",
            "ticks": 135552,
            "time": 176.5,
            "velocity": 0.33070866141732286
          },
          {
            "duration": 0.375,
            "durationTicks": 288,
            "midi": 41,
            "name": "F2",
            "ticks": 135552,
            "time": 176.5,
            "velocity": 0.30708661417322836
          },
          {
            "duration": 0,
            "durationTicks": 0,
            "midi": 54,
            "name": "F#3",
            "ticks": 135552,
            "time": 176.5,
            "velocity": 0.28346456692913385
          },
          {
            "duration": 0.125,
            "durationTicks": 96,
            "midi": 64,
            "name": "E4",
            "ticks": 135744,
            "time": 176.75,
            "velocity": 0.33858267716535434
          },
          {
            "duration": 0,
            "durationTicks": 0,
            "midi": 36,
            "name": "C2",
            "ticks": 135936,
            "time": 177,
            "velocity": 0.3700787401574803
          },
          {
            "duration": 0.125,
            "durationTicks": 96,
            "midi": 41,
            "name": "F2",
            "ticks": 135936,
            "time": 177,
            "velocity": 0.31496062992125984
          },
          {
            "duration": 0,
            "durationTicks": 0,
            "midi": 54,
            "name": "F#3",
            "ticks": 135936,
            "time": 177,
            "velocity": 0.28346456692913385
          },
          {
            "duration": 0.25,
            "durationTicks": 192,
            "midi": 69,
            "name": "A4",
            "ticks": 135936,
            "time": 177,
            "velocity": 0.33858267716535434
          },
          {
            "duration": 0,
            "durationTicks": 0,
            "midi": 44,
            "name": "G#2",
            "ticks": 135936,
            "time": 177,
            "velocity": 0.2677165354330709
          },
          {
            "duration": 0,
            "durationTicks": 0,
            "midi": 60,
            "name": "C4",
            "ticks": 135936,
            "time": 177,
            "velocity": 0.28346456692913385
          },
          {
            "duration": 0.375,
            "durationTicks": 288,
            "midi": 41,
            "name": "F2",
            "ticks": 136128,
            "time": 177.25,
            "velocity": 0.31496062992125984
          },
          {
            "duration": 0.25,
            "durationTicks": 192,
            "midi": 57,
            "name": "A3",
            "ticks": 136128,
            "time": 177.25,
            "velocity": 0.2283464566929134
          },
          {
            "duration": 0.25,
            "durationTicks": 192,
            "midi": 84,
            "name": "C6",
            "ticks": 136128,
            "time": 177.25,
            "velocity": 0.2204724409448819
          },
          {
            "duration": 0.25,
            "durationTicks": 192,
            "midi": 84,
            "name": "C6",
            "ticks": 136128,
            "time": 177.25,
            "velocity": 0.2204724409448819
          },
          {
            "duration": 0.25,
            "durationTicks": 192,
            "midi": 65,
            "name": "F4",
            "ticks": 136128,
            "time": 177.25,
            "velocity": 0.2204724409448819
          },
          {
            "duration": 0.25,
            "durationTicks": 192,
            "midi": 60,
            "name": "C4",
            "ticks": 136128,
            "time": 177.25,
            "velocity": 0.2204724409448819
          },
          {
            "duration": 0.375,
            "durationTicks": 288,
            "midi": 53,
            "name": "F3",
            "ticks": 136128,
            "time": 177.25,
            "velocity": 0.2755905511811024
          },
          {
            "duration": 0.375,
            "durationTicks": 288,
            "midi": 57,
            "name": "A3",
            "ticks": 136128,
            "time": 177.25,
            "velocity": 0.2283464566929134
          },
          {
            "duration": 0,
            "durationTicks": 0,
            "midi": 44,
            "name": "G#2",
            "ticks": 136320,
            "time": 177.5,
            "velocity": 0.25984251968503935
          },
          {
            "duration": 0,
            "durationTicks": 0,
            "midi": 61,
            "name": "C#4",
            "ticks": 136320,
            "time": 177.5,
            "velocity": 0.2755905511811024
          },
          {
            "duration": 0.25,
            "durationTicks": 192,
            "midi": 81,
            "name": "A5",
            "ticks": 136320,
            "time": 177.5,
            "velocity": 0.1889763779527559
          },
          {
            "duration": 0,
            "durationTicks": 0,
            "midi": 38,
            "name": "D2",
            "ticks": 136320,
            "time": 177.5,
            "velocity": 0.33858267716535434
          },
          {
            "duration": 0,
            "durationTicks": 0,
            "midi": 54,
            "name": "F#3",
            "ticks": 136320,
            "time": 177.5,
            "velocity": 0.28346456692913385
          },
          {
            "duration": 0.25,
            "durationTicks": 192,
            "midi": 64,
            "name": "E4",
            "ticks": 136320,
            "time": 177.5,
            "velocity": 0.3228346456692913
          },
          {
            "duration": 0.25,
            "durationTicks": 192,
            "midi": 81,
            "name": "A5",
            "ticks": 136320,
            "time": 177.5,
            "velocity": 0.1889763779527559
          },
          {
            "duration": 0,
            "durationTicks": 0,
            "midi": 60,
            "name": "C4",
            "ticks": 136416,
            "time": 177.625,
            "velocity": 0.28346456692913385
          },
          {
            "duration": 0.25,
            "durationTicks": 192,
            "midi": 41,
            "name": "F2",
            "ticks": 136512,
            "time": 177.75,
            "velocity": 0.31496062992125984
          },
          {
            "duration": 0,
            "durationTicks": 0,
            "midi": 61,
            "name": "C#4",
            "ticks": 136512,
            "time": 177.75,
            "velocity": 0.2755905511811024
          },
          {
            "duration": 0.25,
            "durationTicks": 192,
            "midi": 84,
            "name": "C6",
            "ticks": 136512,
            "time": 177.75,
            "velocity": 0.1968503937007874
          },
          {
            "duration": 0.25,
            "durationTicks": 192,
            "midi": 84,
            "name": "C6",
            "ticks": 136512,
            "time": 177.75,
            "velocity": 0.1968503937007874
          },
          {
            "duration": 0.25,
            "durationTicks": 192,
            "midi": 67,
            "name": "G4",
            "ticks": 136512,
            "time": 177.75,
            "velocity": 0.14173228346456693
          },
          {
            "duration": 0.25,
            "durationTicks": 192,
            "midi": 62,
            "name": "D4",
            "ticks": 136512,
            "time": 177.75,
            "velocity": 0.25196850393700787
          },
          {
            "duration": 0.25,
            "durationTicks": 192,
            "midi": 59,
            "name": "B3",
            "ticks": 136512,
            "time": 177.75,
            "velocity": 0.2047244094488189
          },
          {
            "duration": 0,
            "durationTicks": 0,
            "midi": 46,
            "name": "A#2",
            "ticks": 136512,
            "time": 177.75,
            "velocity": 0.2677165354330709
          },
          {
            "duration": 0.5,
            "durationTicks": 384,
            "midi": 88,
            "name": "E6",
            "ticks": 136704,
            "time": 178,
            "velocity": 0.2047244094488189
          },
          {
            "duration": 0.5,
            "durationTicks": 384,
            "midi": 55,
            "name": "G3",
            "ticks": 136704,
            "time": 178,
            "velocity": 0.25196850393700787
          },
          {
            "duration": 0.5,
            "durationTicks": 384,
            "midi": 52,
            "name": "E3",
            "ticks": 136704,
            "time": 178,
            "velocity": 0.2755905511811024
          },
          {
            "duration": 0.125,
            "durationTicks": 96,
            "midi": 43,
            "name": "G2",
            "ticks": 136704,
            "time": 178,
            "velocity": 0.2992125984251969
          },
          {
            "duration": 0,
            "durationTicks": 0,
            "midi": 54,
            "name": "F#3",
            "ticks": 136704,
            "time": 178,
            "velocity": 0.28346456692913385
          },
          {
            "duration": 0,
            "durationTicks": 0,
            "midi": 44,
            "name": "G#2",
            "ticks": 136704,
            "time": 178,
            "velocity": 0.25984251968503935
          },
          {
            "duration": 0,
            "durationTicks": 0,
            "midi": 60,
            "name": "C4",
            "ticks": 136704,
            "time": 178,
            "velocity": 0.2755905511811024
          },
          {
            "duration": 0,
            "durationTicks": 0,
            "midi": 36,
            "name": "C2",
            "ticks": 136704,
            "time": 178,
            "velocity": 0.3543307086614173
          },
          {
            "duration": 0.5,
            "durationTicks": 384,
            "midi": 88,
            "name": "E6",
            "ticks": 136704,
            "time": 178,
            "velocity": 0.2047244094488189
          },
          {
            "duration": 0.125,
            "durationTicks": 96,
            "midi": 43,
            "name": "G2",
            "ticks": 136896,
            "time": 178.25,
            "velocity": 0.2992125984251969
          },
          {
            "duration": 0,
            "durationTicks": 0,
            "midi": 38,
            "name": "D2",
            "ticks": 137088,
            "time": 178.5,
            "velocity": 0.33858267716535434
          },
          {
            "duration": 0.125,
            "durationTicks": 96,
            "midi": 67,
            "name": "G4",
            "ticks": 137088,
            "time": 178.5,
            "velocity": 0.18110236220472442
          },
          {
            "duration": 0.125,
            "durationTicks": 96,
            "midi": 59,
            "name": "B3",
            "ticks": 137088,
            "time": 178.5,
            "velocity": 0.1968503937007874
          },
          {
            "duration": 0.125,
            "durationTicks": 96,
            "midi": 62,
            "name": "D4",
            "ticks": 137088,
            "time": 178.5,
            "velocity": 0.2992125984251969
          },
          {
            "duration": 0.125,
            "durationTicks": 96,
            "midi": 43,
            "name": "G2",
            "ticks": 137088,
            "time": 178.5,
            "velocity": 0.2992125984251969
          },
          {
            "duration": 0,
            "durationTicks": 0,
            "midi": 44,
            "name": "G#2",
            "ticks": 137088,
            "time": 178.5,
            "velocity": 0.2677165354330709
          },
          {
            "duration": 0,
            "durationTicks": 0,
            "midi": 54,
            "name": "F#3",
            "ticks": 137088,
            "time": 178.5,
            "velocity": 0.2755905511811024
          },
          {
            "duration": 0.5,
            "durationTicks": 384,
            "midi": 86,
            "name": "D6",
            "ticks": 137088,
            "time": 178.5,
            "velocity": 0.1968503937007874
          },
          {
            "duration": 0.5,
            "durationTicks": 384,
            "midi": 86,
            "name": "D6",
            "ticks": 137088,
            "time": 178.5,
            "velocity": 0.1968503937007874
          },
          {
            "duration": 0.25,
            "durationTicks": 192,
            "midi": 69,
            "name": "A4",
            "ticks": 137088,
            "time": 178.5,
            "velocity": 0.33858267716535434
          },
          {
            "duration": 0,
            "durationTicks": 0,
            "midi": 61,
            "name": "C#4",
            "ticks": 137088,
            "time": 178.5,
            "velocity": 0.2755905511811024
          },
          {
            "duration": 0.375,
            "durationTicks": 288,
            "midi": 55,
            "name": "G3",
            "ticks": 137280,
            "time": 178.75,
            "velocity": 0.2755905511811024
          },
          {
            "duration": 0.375,
            "durationTicks": 288,
            "midi": 50,
            "name": "D3",
            "ticks": 137280,
            "time": 178.75,
            "velocity": 0.2677165354330709
          },
          {
            "duration": 0.125,
            "durationTicks": 96,
            "midi": 43,
            "name": "G2",
            "ticks": 137280,
            "time": 178.75,
            "velocity": 0.31496062992125984
          },
          {
            "duration": 0.125,
            "durationTicks": 96,
            "midi": 43,
            "name": "G2",
            "ticks": 137472,
            "time": 179,
            "velocity": 0.2992125984251969
          },
          {
            "duration": 0,
            "durationTicks": 0,
            "midi": 54,
            "name": "F#3",
            "ticks": 137472,
            "time": 179,
            "velocity": 0.2755905511811024
          },
          {
            "duration": 0.25,
            "durationTicks": 192,
            "midi": 64,
            "name": "E4",
            "ticks": 137472,
            "time": 179,
            "velocity": 0.33858267716535434
          },
          {
            "duration": 0.25,
            "durationTicks": 192,
            "midi": 67,
            "name": "G4",
            "ticks": 137472,
            "time": 179,
            "velocity": 0.2283464566929134
          },
          {
            "duration": 0.25,
            "durationTicks": 192,
            "midi": 62,
            "name": "D4",
            "ticks": 137472,
            "time": 179,
            "velocity": 0.29133858267716534
          },
          {
            "duration": 0.5,
            "durationTicks": 384,
            "midi": 84,
            "name": "C6",
            "ticks": 137472,
            "time": 179,
            "velocity": 0.2047244094488189
          },
          {
            "duration": 0.5,
            "durationTicks": 384,
            "midi": 84,
            "name": "C6",
            "ticks": 137472,
            "time": 179,
            "velocity": 0.2047244094488189
          },
          {
            "duration": 0,
            "durationTicks": 0,
            "midi": 36,
            "name": "C2",
            "ticks": 137472,
            "time": 179,
            "velocity": 0.36220472440944884
          },
          {
            "duration": 0.25,
            "durationTicks": 192,
            "midi": 59,
            "name": "B3",
            "ticks": 137472,
            "time": 179,
            "velocity": 0.1889763779527559
          },
          {
            "duration": 0,
            "durationTicks": 0,
            "midi": 60,
            "name": "C4",
            "ticks": 137472,
            "time": 179,
            "velocity": 0.29133858267716534
          },
          {
            "duration": 0,
            "durationTicks": 0,
            "midi": 44,
            "name": "G#2",
            "ticks": 137472,
            "time": 179,
            "velocity": 0.2677165354330709
          },
          {
            "duration": 0.25,
            "durationTicks": 192,
            "midi": 55,
            "name": "G3",
            "ticks": 137664,
            "time": 179.25,
            "velocity": 0.25984251968503935
          },
          {
            "duration": 0.25,
            "durationTicks": 192,
            "midi": 43,
            "name": "G2",
            "ticks": 137664,
            "time": 179.25,
            "velocity": 0.30708661417322836
          },
          {
            "duration": 0.5,
            "durationTicks": 384,
            "midi": 55,
            "name": "G3",
            "ticks": 137664,
            "time": 179.25,
            "velocity": 0.25984251968503935
          },
          {
            "duration": 0.125,
            "durationTicks": 96,
            "midi": 67,
            "name": "G4",
            "ticks": 137664,
            "time": 179.25,
            "velocity": 0.2440944881889764
          },
          {
            "duration": 0.5,
            "durationTicks": 384,
            "midi": 50,
            "name": "D3",
            "ticks": 137664,
            "time": 179.25,
            "velocity": 0.25984251968503935
          },
          {
            "duration": 0,
            "durationTicks": 0,
            "midi": 38,
            "name": "D2",
            "ticks": 137664,
            "time": 179.25,
            "velocity": 0.33070866141732286
          },
          {
            "duration": 0.125,
            "durationTicks": 96,
            "midi": 59,
            "name": "B3",
            "ticks": 137664,
            "time": 179.25,
            "velocity": 0.2125984251968504
          },
          {
            "duration": 0.125,
            "durationTicks": 96,
            "midi": 62,
            "name": "D4",
            "ticks": 137664,
            "time": 179.25,
            "velocity": 0.2125984251968504
          },
          {
            "duration": 0.5,
            "durationTicks": 384,
            "midi": 81,
            "name": "A5",
            "ticks": 137856,
            "time": 179.5,
            "velocity": 0.2125984251968504
          },
          {
            "duration": 0,
            "durationTicks": 0,
            "midi": 44,
            "name": "G#2",
            "ticks": 137856,
            "time": 179.5,
            "velocity": 0.25984251968503935
          },
          {
            "duration": 0,
            "durationTicks": 0,
            "midi": 38,
            "name": "D2",
            "ticks": 137856,
            "time": 179.5,
            "velocity": 0.33858267716535434
          },
          {
            "duration": 0,
            "durationTicks": 0,
            "midi": 54,
            "name": "F#3",
            "ticks": 137856,
            "time": 179.5,
            "velocity": 0.29133858267716534
          },
          {
            "duration": 0.25,
            "durationTicks": 192,
            "midi": 45,
            "name": "A2",
            "ticks": 137856,
            "time": 179.5,
            "velocity": 0.31496062992125984
          },
          {
            "duration": 0,
            "durationTicks": 0,
            "midi": 61,
            "name": "C#4",
            "ticks": 137856,
            "time": 179.5,
            "velocity": 0.2755905511811024
          },
          {
            "duration": 0.5,
            "durationTicks": 384,
            "midi": 81,
            "name": "A5",
            "ticks": 137856,
            "time": 179.5,
            "velocity": 0.2125984251968504
          },
          {
            "duration": 0,
            "durationTicks": 0,
            "midi": 38,
            "name": "D2",
            "ticks": 137952,
            "time": 179.625,
            "velocity": 0.33070866141732286
          },
          {
            "duration": 0,
            "durationTicks": 0,
            "midi": 38,
            "name": "D2",
            "ticks": 138048,
            "time": 179.75,
            "velocity": 0.33858267716535434
          },
          {
            "duration": 0,
            "durationTicks": 0,
            "midi": 46,
            "name": "A#2",
            "ticks": 138048,
            "time": 179.75,
            "velocity": 0.2755905511811024
          },
          {
            "duration": 0.125,
            "durationTicks": 96,
            "midi": 43,
            "name": "G2",
            "ticks": 138048,
            "time": 179.75,
            "velocity": 0.30708661417322836
          },
          {
            "duration": 0,
            "durationTicks": 0,
            "midi": 60,
            "name": "C4",
            "ticks": 138240,
            "time": 180,
            "velocity": 0.33070866141732286
          },
          {
            "duration": 0.125,
            "durationTicks": 96,
            "midi": 60,
            "name": "C4",
            "ticks": 138240,
            "time": 180,
            "velocity": 0.33070866141732286
          },
          {
            "duration": 0,
            "durationTicks": 0,
            "midi": 44,
            "name": "G#2",
            "ticks": 138240,
            "time": 180,
            "velocity": 0.2677165354330709
          },
          {
            "duration": 0,
            "durationTicks": 0,
            "midi": 36,
            "name": "C2",
            "ticks": 138240,
            "time": 180,
            "velocity": 0.30708661417322836
          },
          {
            "duration": 0,
            "durationTicks": 0,
            "midi": 54,
            "name": "F#3",
            "ticks": 138240,
            "time": 180,
            "velocity": 0.28346456692913385
          },
          {
            "duration": 1.125,
            "durationTicks": 864,
            "midi": 84,
            "name": "C6",
            "ticks": 138240,
            "time": 180,
            "velocity": 0.1968503937007874
          },
          {
            "duration": 1,
            "durationTicks": 768,
            "midi": 55,
            "name": "G3",
            "ticks": 138240,
            "time": 180,
            "velocity": 0.1889763779527559
          },
          {
            "duration": 0.375,
            "durationTicks": 288,
            "midi": 36,
            "name": "C2",
            "ticks": 138240,
            "time": 180,
            "velocity": 0.30708661417322836
          },
          {
            "duration": 0,
            "durationTicks": 0,
            "midi": 49,
            "name": "C#3",
            "ticks": 138240,
            "time": 180,
            "velocity": 0.28346456692913385
          },
          {
            "duration": 1,
            "durationTicks": 768,
            "midi": 64,
            "name": "E4",
            "ticks": 138240,
            "time": 180,
            "velocity": 0.1889763779527559
          },
          {
            "duration": 1.125,
            "durationTicks": 864,
            "midi": 52,
            "name": "E3",
            "ticks": 138240,
            "time": 180,
            "velocity": 0.2755905511811024
          },
          {
            "duration": 1.125,
            "durationTicks": 864,
            "midi": 48,
            "name": "C3",
            "ticks": 138240,
            "time": 180,
            "velocity": 0.2204724409448819
          },
          {
            "duration": 1.125,
            "durationTicks": 864,
            "midi": 84,
            "name": "C6",
            "ticks": 138240,
            "time": 180,
            "velocity": 0.1968503937007874
          },
          {
            "duration": 1.125,
            "durationTicks": 864,
            "midi": 48,
            "name": "C3",
            "ticks": 138240,
            "time": 180,
            "velocity": 0.2204724409448819
          },
          {
            "duration": 0.125,
            "durationTicks": 96,
            "midi": 60,
            "name": "C4",
            "ticks": 138336,
            "time": 180.125,
            "velocity": 0.3228346456692913
          },
          {
            "duration": 0.125,
            "durationTicks": 96,
            "midi": 60,
            "name": "C4",
            "ticks": 138432,
            "time": 180.25,
            "velocity": 0.3228346456692913
          },
          {
            "duration": 0.375,
            "durationTicks": 288,
            "midi": 36,
            "name": "C2",
            "ticks": 138624,
            "time": 180.5,
            "velocity": 0.2992125984251969
          },
          {
            "duration": 0,
            "durationTicks": 0,
            "midi": 38,
            "name": "D2",
            "ticks": 138624,
            "time": 180.5,
            "velocity": 0.33070866141732286
          },
          {
            "duration": 0,
            "durationTicks": 0,
            "midi": 44,
            "name": "G#2",
            "ticks": 138624,
            "time": 180.5,
            "velocity": 0.25984251968503935
          },
          {
            "duration": 0,
            "durationTicks": 0,
            "midi": 61,
            "name": "C#4",
            "ticks": 138624,
            "time": 180.5,
            "velocity": 0.2755905511811024
          },
          {
            "duration": 0.125,
            "durationTicks": 96,
            "midi": 60,
            "name": "C4",
            "ticks": 138624,
            "time": 180.5,
            "velocity": 0.31496062992125984
          },
          {
            "duration": 0,
            "durationTicks": 0,
            "midi": 54,
            "name": "F#3",
            "ticks": 138624,
            "time": 180.5,
            "velocity": 0.28346456692913385
          },
          {
            "duration": 0.125,
            "durationTicks": 96,
            "midi": 60,
            "name": "C4",
            "ticks": 138720,
            "time": 180.625,
            "velocity": 0.33858267716535434
          },
          {
            "duration": 0.125,
            "durationTicks": 96,
            "midi": 60,
            "name": "C4",
            "ticks": 138816,
            "time": 180.75,
            "velocity": 0.31496062992125984
          },
          {
            "duration": 0.25,
            "durationTicks": 192,
            "midi": 60,
            "name": "C4",
            "ticks": 138816,
            "time": 180.75,
            "velocity": 0.31496062992125984
          },
          {
            "duration": 0,
            "durationTicks": 0,
            "midi": 36,
            "name": "C2",
            "ticks": 139008,
            "time": 181,
            "velocity": 0.31496062992125984
          },
          {
            "duration": 0,
            "durationTicks": 0,
            "midi": 44,
            "name": "G#2",
            "ticks": 139008,
            "time": 181,
            "velocity": 0.25984251968503935
          },
          {
            "duration": 0,
            "durationTicks": 0,
            "midi": 54,
            "name": "F#3",
            "ticks": 139008,
            "time": 181,
            "velocity": 0.2755905511811024
          },
          {
            "duration": 0.125,
            "durationTicks": 96,
            "midi": 36,
            "name": "C2",
            "ticks": 139008,
            "time": 181,
            "velocity": 0.31496062992125984
          },
          {
            "duration": 0,
            "durationTicks": 0,
            "midi": 60,
            "name": "C4",
            "ticks": 139008,
            "time": 181,
            "velocity": 0.28346456692913385
          },
          {
            "duration": 0.375,
            "durationTicks": 288,
            "midi": 36,
            "name": "C2",
            "ticks": 139200,
            "time": 181.25,
            "velocity": 0.31496062992125984
          },
          {
            "duration": 0.25,
            "durationTicks": 192,
            "midi": 60,
            "name": "C4",
            "ticks": 139200,
            "time": 181.25,
            "velocity": 0.25196850393700787
          },
          {
            "duration": 0.25,
            "durationTicks": 192,
            "midi": 55,
            "name": "G3",
            "ticks": 139200,
            "time": 181.25,
            "velocity": 0.1889763779527559
          },
          {
            "duration": 0.125,
            "durationTicks": 96,
            "midi": 64,
            "name": "E4",
            "ticks": 139200,
            "time": 181.25,
            "velocity": 0.23622047244094488
          },
          {
            "duration": 0.25,
            "durationTicks": 192,
            "midi": 84,
            "name": "C6",
            "ticks": 139200,
            "time": 181.25,
            "velocity": 0.2125984251968504
          },
          {
            "duration": 0.25,
            "durationTicks": 192,
            "midi": 64,
            "name": "E4",
            "ticks": 139200,
            "time": 181.25,
            "velocity": 0.23622047244094488
          },
          {
            "duration": 0.125,
            "durationTicks": 96,
            "midi": 48,
            "name": "C3",
            "ticks": 139200,
            "time": 181.25,
            "velocity": 0.2755905511811024
          },
          {
            "duration": 0.125,
            "durationTicks": 96,
            "midi": 52,
            "name": "E3",
            "ticks": 139200,
            "time": 181.25,
            "velocity": 0.2677165354330709
          },
          {
            "duration": 0.25,
            "durationTicks": 192,
            "midi": 84,
            "name": "C6",
            "ticks": 139200,
            "time": 181.25,
            "velocity": 0.2125984251968504
          },
          {
            "duration": 0,
            "durationTicks": 0,
            "midi": 38,
            "name": "D2",
            "ticks": 139392,
            "time": 181.5,
            "velocity": 0.33858267716535434
          },
          {
            "duration": 0.25,
            "durationTicks": 192,
            "midi": 81,
            "name": "A5",
            "ticks": 139392,
            "time": 181.5,
            "velocity": 0.1968503937007874
          },
          {
            "duration": 0,
            "durationTicks": 0,
            "midi": 61,
            "name": "C#4",
            "ticks": 139392,
            "time": 181.5,
            "velocity": 0.28346456692913385
          },
          {
            "duration": 0.25,
            "durationTicks": 192,
            "midi": 81,
            "name": "A5",
            "ticks": 139392,
            "time": 181.5,
            "velocity": 0.1968503937007874
          },
          {
            "duration": 0,
            "durationTicks": 0,
            "midi": 54,
            "name": "F#3",
            "ticks": 139392,
            "time": 181.5,
            "velocity": 0.2755905511811024
          },
          {
            "duration": 0,
            "durationTicks": 0,
            "midi": 44,
            "name": "G#2",
            "ticks": 139392,
            "time": 181.5,
            "velocity": 0.2677165354330709
          },
          {
            "duration": 0,
            "durationTicks": 0,
            "midi": 60,
            "name": "C4",
            "ticks": 139488,
            "time": 181.625,
            "velocity": 0.29133858267716534
          },
          {
            "duration": 0.25,
            "durationTicks": 192,
            "midi": 84,
            "name": "C6",
            "ticks": 139584,
            "time": 181.75,
            "velocity": 0.2125984251968504
          },
          {
            "duration": 0.25,
            "durationTicks": 192,
            "midi": 66,
            "name": "F#4",
            "ticks": 139584,
            "time": 181.75,
            "velocity": 0.1732283464566929
          },
          {
            "duration": 0.25,
            "durationTicks": 192,
            "midi": 60,
            "name": "C4",
            "ticks": 139584,
            "time": 181.75,
            "velocity": 0.2125984251968504
          },
          {
            "duration": 0,
            "durationTicks": 0,
            "midi": 46,
            "name": "A#2",
            "ticks": 139584,
            "time": 181.75,
            "velocity": 0.2755905511811024
          },
          {
            "duration": 0.25,
            "durationTicks": 192,
            "midi": 36,
            "name": "C2",
            "ticks": 139584,
            "time": 181.75,
            "velocity": 0.30708661417322836
          },
          {
            "duration": 0.25,
            "durationTicks": 192,
            "midi": 84,
            "name": "C6",
            "ticks": 139584,
            "time": 181.75,
            "velocity": 0.2125984251968504
          },
          {
            "duration": 1.25,
            "durationTicks": 960,
            "midi": 50,
            "name": "D3",
            "ticks": 139584,
            "time": 181.75,
            "velocity": 0.1968503937007874
          },
          {
            "duration": 0,
            "durationTicks": 0,
            "midi": 61,
            "name": "C#4",
            "ticks": 139584,
            "time": 181.75,
            "velocity": 0.28346456692913385
          },
          {
            "duration": 0.5,
            "durationTicks": 384,
            "midi": 57,
            "name": "A3",
            "ticks": 139584,
            "time": 181.75,
            "velocity": 0.23622047244094488
          },
          {
            "duration": 0,
            "durationTicks": 0,
            "midi": 44,
            "name": "G#2",
            "ticks": 139776,
            "time": 182,
            "velocity": 0.25984251968503935
          },
          {
            "duration": 0,
            "durationTicks": 0,
            "midi": 36,
            "name": "C2",
            "ticks": 139776,
            "time": 182,
            "velocity": 0.3464566929133858
          },
          {
            "duration": 0.25,
            "durationTicks": 192,
            "midi": 66,
            "name": "F#4",
            "ticks": 139776,
            "time": 182,
            "velocity": 0.2047244094488189
          },
          {
            "duration": 0.375,
            "durationTicks": 288,
            "midi": 38,
            "name": "D2",
            "ticks": 139776,
            "time": 182,
            "velocity": 0.2992125984251969
          },
          {
            "duration": 1.375,
            "durationTicks": 1056,
            "midi": 88,
            "name": "E6",
            "ticks": 139776,
            "time": 182,
            "velocity": 0.2125984251968504
          },
          {
            "duration": 0,
            "durationTicks": 0,
            "midi": 60,
            "name": "C4",
            "ticks": 139776,
            "time": 182,
            "velocity": 0.2440944881889764
          },
          {
            "duration": 1.375,
            "durationTicks": 1056,
            "midi": 88,
            "name": "E6",
            "ticks": 139776,
            "time": 182,
            "velocity": 0.2125984251968504
          },
          {
            "duration": 0,
            "durationTicks": 0,
            "midi": 54,
            "name": "F#3",
            "ticks": 139776,
            "time": 182,
            "velocity": 0.2755905511811024
          },
          {
            "duration": 0.25,
            "durationTicks": 192,
            "midi": 60,
            "name": "C4",
            "ticks": 139776,
            "time": 182,
            "velocity": 0.2440944881889764
          },
          {
            "duration": 0,
            "durationTicks": 0,
            "midi": 38,
            "name": "D2",
            "ticks": 140160,
            "time": 182.5,
            "velocity": 0.2992125984251969
          },
          {
            "duration": 0,
            "durationTicks": 0,
            "midi": 54,
            "name": "F#3",
            "ticks": 140160,
            "time": 182.5,
            "velocity": 0.2755905511811024
          },
          {
            "duration": 0.25,
            "durationTicks": 192,
            "midi": 66,
            "name": "F#4",
            "ticks": 140160,
            "time": 182.5,
            "velocity": 0.1889763779527559
          },
          {
            "duration": 0,
            "durationTicks": 0,
            "midi": 61,
            "name": "C#4",
            "ticks": 140160,
            "time": 182.5,
            "velocity": 0.2755905511811024
          },
          {
            "duration": 0.25,
            "durationTicks": 192,
            "midi": 57,
            "name": "A3",
            "ticks": 140160,
            "time": 182.5,
            "velocity": 0.1889763779527559
          },
          {
            "duration": 0.25,
            "durationTicks": 192,
            "midi": 38,
            "name": "D2",
            "ticks": 140160,
            "time": 182.5,
            "velocity": 0.2992125984251969
          },
          {
            "duration": 0.25,
            "durationTicks": 192,
            "midi": 69,
            "name": "A4",
            "ticks": 140160,
            "time": 182.5,
            "velocity": 0.3228346456692913
          },
          {
            "duration": 0.5,
            "durationTicks": 384,
            "midi": 54,
            "name": "F#3",
            "ticks": 140160,
            "time": 182.5,
            "velocity": 0.2755905511811024
          },
          {
            "duration": 0,
            "durationTicks": 0,
            "midi": 44,
            "name": "G#2",
            "ticks": 140160,
            "time": 182.5,
            "velocity": 0.25984251968503935
          },
          {
            "duration": 0.25,
            "durationTicks": 192,
            "midi": 60,
            "name": "C4",
            "ticks": 140160,
            "time": 182.5,
            "velocity": 0.25196850393700787
          },
          {
            "duration": 0,
            "durationTicks": 0,
            "midi": 60,
            "name": "C4",
            "ticks": 140544,
            "time": 183,
            "velocity": 0.2440944881889764
          },
          {
            "duration": 0,
            "durationTicks": 0,
            "midi": 54,
            "name": "F#3",
            "ticks": 140544,
            "time": 183,
            "velocity": 0.28346456692913385
          },
          {
            "duration": 0.375,
            "durationTicks": 288,
            "midi": 64,
            "name": "E4",
            "ticks": 140544,
            "time": 183,
            "velocity": 0.33070866141732286
          },
          {
            "duration": 0,
            "durationTicks": 0,
            "midi": 44,
            "name": "G#2",
            "ticks": 140544,
            "time": 183,
            "velocity": 0.2677165354330709
          },
          {
            "duration": 0.25,
            "durationTicks": 192,
            "midi": 57,
            "name": "A3",
            "ticks": 140544,
            "time": 183,
            "velocity": 0.1968503937007874
          },
          {
            "duration": 0.25,
            "durationTicks": 192,
            "midi": 66,
            "name": "F#4",
            "ticks": 140544,
            "time": 183,
            "velocity": 0.2047244094488189
          },
          {
            "duration": 0.25,
            "durationTicks": 192,
            "midi": 60,
            "name": "C4",
            "ticks": 140544,
            "time": 183,
            "velocity": 0.2440944881889764
          },
          {
            "duration": 0.125,
            "durationTicks": 96,
            "midi": 50,
            "name": "D3",
            "ticks": 140544,
            "time": 183,
            "velocity": 0.30708661417322836
          },
          {
            "duration": 0.125,
            "durationTicks": 96,
            "midi": 50,
            "name": "D3",
            "ticks": 140544,
            "time": 183,
            "velocity": 0.30708661417322836
          },
          {
            "duration": 0,
            "durationTicks": 0,
            "midi": 36,
            "name": "C2",
            "ticks": 140544,
            "time": 183,
            "velocity": 0.3700787401574803
          },
          {
            "duration": 0.125,
            "durationTicks": 96,
            "midi": 51,
            "name": "D#3",
            "ticks": 140640,
            "time": 183.125,
            "velocity": 0.30708661417322836
          },
          {
            "duration": 0.25,
            "durationTicks": 192,
            "midi": 66,
            "name": "F#4",
            "ticks": 140736,
            "time": 183.25,
            "velocity": 0.25984251968503935
          },
          {
            "duration": 0.25,
            "durationTicks": 192,
            "midi": 60,
            "name": "C4",
            "ticks": 140736,
            "time": 183.25,
            "velocity": 0.25196850393700787
          },
          {
            "duration": 0.25,
            "durationTicks": 192,
            "midi": 52,
            "name": "E3",
            "ticks": 140736,
            "time": 183.25,
            "velocity": 0.31496062992125984
          },
          {
            "duration": 0.125,
            "durationTicks": 96,
            "midi": 54,
            "name": "F#3",
            "ticks": 140736,
            "time": 183.25,
            "velocity": 0.25984251968503935
          },
          {
            "duration": 0.125,
            "durationTicks": 96,
            "midi": 50,
            "name": "D3",
            "ticks": 140736,
            "time": 183.25,
            "velocity": 0.25984251968503935
          },
          {
            "duration": 0.25,
            "durationTicks": 192,
            "midi": 57,
            "name": "A3",
            "ticks": 140736,
            "time": 183.25,
            "velocity": 0.1889763779527559
          },
          {
            "duration": 0.125,
            "durationTicks": 96,
            "midi": 88,
            "name": "E6",
            "ticks": 140928,
            "time": 183.5,
            "velocity": 0.1968503937007874
          },
          {
            "duration": 0,
            "durationTicks": 0,
            "midi": 54,
            "name": "F#3",
            "ticks": 140928,
            "time": 183.5,
            "velocity": 0.30708661417322836
          },
          {
            "duration": 0.125,
            "durationTicks": 96,
            "midi": 54,
            "name": "F#3",
            "ticks": 140928,
            "time": 183.5,
            "velocity": 0.30708661417322836
          },
          {
            "duration": 0,
            "durationTicks": 0,
            "midi": 38,
            "name": "D2",
            "ticks": 140928,
            "time": 183.5,
            "velocity": 0.33070866141732286
          },
          {
            "duration": 0.125,
            "durationTicks": 96,
            "midi": 88,
            "name": "E6",
            "ticks": 140928,
            "time": 183.5,
            "velocity": 0.1968503937007874
          },
          {
            "duration": 0,
            "durationTicks": 0,
            "midi": 61,
            "name": "C#4",
            "ticks": 140928,
            "time": 183.5,
            "velocity": 0.2755905511811024
          },
          {
            "duration": 0,
            "durationTicks": 0,
            "midi": 44,
            "name": "G#2",
            "ticks": 140928,
            "time": 183.5,
            "velocity": 0.25984251968503935
          },
          {
            "duration": 0.125,
            "durationTicks": 96,
            "midi": 86,
            "name": "D6",
            "ticks": 141024,
            "time": 183.625,
            "velocity": 0.2125984251968504
          },
          {
            "duration": 0.125,
            "durationTicks": 96,
            "midi": 54,
            "name": "F#3",
            "ticks": 141024,
            "time": 183.625,
            "velocity": 0.2992125984251969
          },
          {
            "duration": 0.125,
            "durationTicks": 96,
            "midi": 86,
            "name": "D6",
            "ticks": 141024,
            "time": 183.625,
            "velocity": 0.2125984251968504
          },
          {
            "duration": 1.375,
            "durationTicks": 1056,
            "midi": 53,
            "name": "F3",
            "ticks": 141120,
            "time": 183.75,
            "velocity": 0.25984251968503935
          },
          {
            "duration": 0.125,
            "durationTicks": 96,
            "midi": 50,
            "name": "D3",
            "ticks": 141120,
            "time": 183.75,
            "velocity": 0.30708661417322836
          },
          {
            "duration": 0,
            "durationTicks": 0,
            "midi": 46,
            "name": "A#2",
            "ticks": 141120,
            "time": 183.75,
            "velocity": 0.2755905511811024
          },
          {
            "duration": 0.125,
            "durationTicks": 96,
            "midi": 84,
            "name": "C6",
            "ticks": 141120,
            "time": 183.75,
            "velocity": 0.1968503937007874
          },
          {
            "duration": 0.125,
            "durationTicks": 96,
            "midi": 84,
            "name": "C6",
            "ticks": 141120,
            "time": 183.75,
            "velocity": 0.1968503937007874
          },
          {
            "duration": 0.125,
            "durationTicks": 96,
            "midi": 81,
            "name": "A5",
            "ticks": 141216,
            "time": 183.875,
            "velocity": 0.2204724409448819
          },
          {
            "duration": 0.125,
            "durationTicks": 96,
            "midi": 81,
            "name": "A5",
            "ticks": 141216,
            "time": 183.875,
            "velocity": 0.2204724409448819
          },
          {
            "duration": 1.25,
            "durationTicks": 960,
            "midi": 84,
            "name": "C6",
            "ticks": 141312,
            "time": 184,
            "velocity": 0.2047244094488189
          },
          {
            "duration": 1.125,
            "durationTicks": 864,
            "midi": 50,
            "name": "D3",
            "ticks": 141312,
            "time": 184,
            "velocity": 0.1968503937007874
          },
          {
            "duration": 0,
            "durationTicks": 0,
            "midi": 36,
            "name": "C2",
            "ticks": 141312,
            "time": 184,
            "velocity": 0.3464566929133858
          },
          {
            "duration": 1,
            "durationTicks": 768,
            "midi": 57,
            "name": "A3",
            "ticks": 141312,
            "time": 184,
            "velocity": 0.25984251968503935
          },
          {
            "duration": 1.125,
            "durationTicks": 864,
            "midi": 57,
            "name": "A3",
            "ticks": 141312,
            "time": 184,
            "velocity": 0.25984251968503935
          },
          {
            "duration": 1.25,
            "durationTicks": 960,
            "midi": 84,
            "name": "C6",
            "ticks": 141312,
            "time": 184,
            "velocity": 0.2047244094488189
          },
          {
            "duration": 0,
            "durationTicks": 0,
            "midi": 60,
            "name": "C4",
            "ticks": 141312,
            "time": 184,
            "velocity": 0.2677165354330709
          },
          {
            "duration": 0,
            "durationTicks": 0,
            "midi": 54,
            "name": "F#3",
            "ticks": 141312,
            "time": 184,
            "velocity": 0.28346456692913385
          },
          {
            "duration": 1,
            "durationTicks": 768,
            "midi": 60,
            "name": "C4",
            "ticks": 141312,
            "time": 184,
            "velocity": 0.2677165354330709
          },
          {
            "duration": 0,
            "durationTicks": 0,
            "midi": 44,
            "name": "G#2",
            "ticks": 141312,
            "time": 184,
            "velocity": 0.2677165354330709
          },
          {
            "duration": 0.375,
            "durationTicks": 288,
            "midi": 38,
            "name": "D2",
            "ticks": 141312,
            "time": 184,
            "velocity": 0.2992125984251969
          },
          {
            "duration": 1,
            "durationTicks": 768,
            "midi": 65,
            "name": "F4",
            "ticks": 141312,
            "time": 184,
            "velocity": 0.2125984251968504
          },
          {
            "duration": 0,
            "durationTicks": 0,
            "midi": 38,
            "name": "D2",
            "ticks": 141696,
            "time": 184.5,
            "velocity": 0.31496062992125984
          },
          {
            "duration": 0.125,
            "durationTicks": 96,
            "midi": 64,
            "name": "E4",
            "ticks": 141696,
            "time": 184.5,
            "velocity": 0.3228346456692913
          },
          {
            "duration": 0,
            "durationTicks": 0,
            "midi": 54,
            "name": "F#3",
            "ticks": 141696,
            "time": 184.5,
            "velocity": 0.28346456692913385
          },
          {
            "duration": 0,
            "durationTicks": 0,
            "midi": 61,
            "name": "C#4",
            "ticks": 141696,
            "time": 184.5,
            "velocity": 0.29133858267716534
          },
          {
            "duration": 0,
            "durationTicks": 0,
            "midi": 44,
            "name": "G#2",
            "ticks": 141696,
            "time": 184.5,
            "velocity": 0.25984251968503935
          },
          {
            "duration": 0.375,
            "durationTicks": 288,
            "midi": 38,
            "name": "D2",
            "ticks": 141696,
            "time": 184.5,
            "velocity": 0.31496062992125984
          },
          {
            "duration": 0.125,
            "durationTicks": 96,
            "midi": 64,
            "name": "E4",
            "ticks": 141888,
            "time": 184.75,
            "velocity": 0.31496062992125984
          },
          {
            "duration": 0.125,
            "durationTicks": 96,
            "midi": 69,
            "name": "A4",
            "ticks": 142080,
            "time": 185,
            "velocity": 0.3228346456692913
          },
          {
            "duration": 0,
            "durationTicks": 0,
            "midi": 36,
            "name": "C2",
            "ticks": 142080,
            "time": 185,
            "velocity": 0.3543307086614173
          },
          {
            "duration": 0.125,
            "durationTicks": 96,
            "midi": 38,
            "name": "D2",
            "ticks": 142080,
            "time": 185,
            "velocity": 0.2992125984251969
          },
          {
            "duration": 0,
            "durationTicks": 0,
            "midi": 60,
            "name": "C4",
            "ticks": 142080,
            "time": 185,
            "velocity": 0.2755905511811024
          },
          {
            "duration": 0,
            "durationTicks": 0,
            "midi": 44,
            "name": "G#2",
            "ticks": 142080,
            "time": 185,
            "velocity": 0.25984251968503935
          },
          {
            "duration": 0,
            "durationTicks": 0,
            "midi": 54,
            "name": "F#3",
            "ticks": 142080,
            "time": 185,
            "velocity": 0.2755905511811024
          },
          {
            "duration": 0.25,
            "durationTicks": 192,
            "midi": 84,
            "name": "C6",
            "ticks": 142272,
            "time": 185.25,
            "velocity": 0.2204724409448819
          },
          {
            "duration": 0.125,
            "durationTicks": 96,
            "midi": 53,
            "name": "F3",
            "ticks": 142272,
            "time": 185.25,
            "velocity": 0.2755905511811024
          },
          {
            "duration": 0.25,
            "durationTicks": 192,
            "midi": 65,
            "name": "F4",
            "ticks": 142272,
            "time": 185.25,
            "velocity": 0.2204724409448819
          },
          {
            "duration": 0.125,
            "durationTicks": 96,
            "midi": 57,
            "name": "A3",
            "ticks": 142272,
            "time": 185.25,
            "velocity": 0.2283464566929134
          },
          {
            "duration": 0.25,
            "durationTicks": 192,
            "midi": 57,
            "name": "A3",
            "ticks": 142272,
            "time": 185.25,
            "velocity": 0.2283464566929134
          },
          {
            "duration": 0.25,
            "durationTicks": 192,
            "midi": 60,
            "name": "C4",
            "ticks": 142272,
            "time": 185.25,
            "velocity": 0.2204724409448819
          },
          {
            "duration": 0.25,
            "durationTicks": 192,
            "midi": 84,
            "name": "C6",
            "ticks": 142272,
            "time": 185.25,
            "velocity": 0.2204724409448819
          },
          {
            "duration": 0,
            "durationTicks": 0,
            "midi": 38,
            "name": "D2",
            "ticks": 142464,
            "time": 185.5,
            "velocity": 0.33858267716535434
          },
          {
            "duration": 0,
            "durationTicks": 0,
            "midi": 61,
            "name": "C#4",
            "ticks": 142464,
            "time": 185.5,
            "velocity": 0.2755905511811024
          },
          {
            "duration": 0,
            "durationTicks": 0,
            "midi": 44,
            "name": "G#2",
            "ticks": 142464,
            "time": 185.5,
            "velocity": 0.25984251968503935
          },
          {
            "duration": 0,
            "durationTicks": 0,
            "midi": 54,
            "name": "F#3",
            "ticks": 142464,
            "time": 185.5,
            "velocity": 0.28346456692913385
          },
          {
            "duration": 0.125,
            "durationTicks": 96,
            "midi": 38,
            "name": "D2",
            "ticks": 142464,
            "time": 185.5,
            "velocity": 0.33858267716535434
          },
          {
            "duration": 0.25,
            "durationTicks": 192,
            "midi": 64,
            "name": "E4",
            "ticks": 142464,
            "time": 185.5,
            "velocity": 0.31496062992125984
          },
          {
            "duration": 0.25,
            "durationTicks": 192,
            "midi": 81,
            "name": "A5",
            "ticks": 142464,
            "time": 185.5,
            "velocity": 0.2204724409448819
          },
          {
            "duration": 0.25,
            "durationTicks": 192,
            "midi": 81,
            "name": "A5",
            "ticks": 142464,
            "time": 185.5,
            "velocity": 0.2204724409448819
          },
          {
            "duration": 0,
            "durationTicks": 0,
            "midi": 60,
            "name": "C4",
            "ticks": 142560,
            "time": 185.625,
            "velocity": 0.2755905511811024
          },
          {
            "duration": 0.25,
            "durationTicks": 192,
            "midi": 84,
            "name": "C6",
            "ticks": 142656,
            "time": 185.75,
            "velocity": 0.2125984251968504
          },
          {
            "duration": 0.25,
            "durationTicks": 192,
            "midi": 67,
            "name": "G4",
            "ticks": 142656,
            "time": 185.75,
            "velocity": 0.14173228346456693
          },
          {
            "duration": 0.25,
            "durationTicks": 192,
            "midi": 62,
            "name": "D4",
            "ticks": 142656,
            "time": 185.75,
            "velocity": 0.25196850393700787
          },
          {
            "duration": 0.25,
            "durationTicks": 192,
            "midi": 84,
            "name": "C6",
            "ticks": 142656,
            "time": 185.75,
            "velocity": 0.2125984251968504
          },
          {
            "duration": 0,
            "durationTicks": 0,
            "midi": 61,
            "name": "C#4",
            "ticks": 142656,
            "time": 185.75,
            "velocity": 0.2755905511811024
          },
          {
            "duration": 0.25,
            "durationTicks": 192,
            "midi": 59,
            "name": "B3",
            "ticks": 142656,
            "time": 185.75,
            "velocity": 0.2047244094488189
          },
          {
            "duration": 0.25,
            "durationTicks": 192,
            "midi": 38,
            "name": "D2",
            "ticks": 142656,
            "time": 185.75,
            "velocity": 0.2992125984251969
          },
          {
            "duration": 0,
            "durationTicks": 0,
            "midi": 46,
            "name": "A#2",
            "ticks": 142656,
            "time": 185.75,
            "velocity": 0.2755905511811024
          },
          {
            "duration": 0,
            "durationTicks": 0,
            "midi": 36,
            "name": "C2",
            "ticks": 142848,
            "time": 186,
            "velocity": 0.3543307086614173
          },
          {
            "duration": 0.125,
            "durationTicks": 96,
            "midi": 43,
            "name": "G2",
            "ticks": 142848,
            "time": 186,
            "velocity": 0.2992125984251969
          },
          {
            "duration": 0.5,
            "durationTicks": 384,
            "midi": 88,
            "name": "E6",
            "ticks": 142848,
            "time": 186,
            "velocity": 0.2125984251968504
          },
          {
            "duration": 0.5,
            "durationTicks": 384,
            "midi": 88,
            "name": "E6",
            "ticks": 142848,
            "time": 186,
            "velocity": 0.2125984251968504
          },
          {
            "duration": 0.5,
            "durationTicks": 384,
            "midi": 52,
            "name": "E3",
            "ticks": 142848,
            "time": 186,
            "velocity": 0.25984251968503935
          },
          {
            "duration": 0.5,
            "durationTicks": 384,
            "midi": 55,
            "name": "G3",
            "ticks": 142848,
            "time": 186,
            "velocity": 0.2755905511811024
          },
          {
            "duration": 0,
            "durationTicks": 0,
            "midi": 44,
            "name": "G#2",
            "ticks": 142848,
            "time": 186,
            "velocity": 0.2755905511811024
          },
          {
            "duration": 0,
            "durationTicks": 0,
            "midi": 54,
            "name": "F#3",
            "ticks": 142848,
            "time": 186,
            "velocity": 0.28346456692913385
          },
          {
            "duration": 0,
            "durationTicks": 0,
            "midi": 60,
            "name": "C4",
            "ticks": 142848,
            "time": 186,
            "velocity": 0.2677165354330709
          },
          {
            "duration": 0.125,
            "durationTicks": 96,
            "midi": 43,
            "name": "G2",
            "ticks": 143040,
            "time": 186.25,
            "velocity": 0.31496062992125984
          },
          {
            "duration": 0,
            "durationTicks": 0,
            "midi": 38,
            "name": "D2",
            "ticks": 143224,
            "time": 186.48958333333334,
            "velocity": 0.33070866141732286
          },
          {
            "duration": 0.125,
            "durationTicks": 96,
            "midi": 62,
            "name": "D4",
            "ticks": 143232,
            "time": 186.5,
            "velocity": 0.2992125984251969
          },
          {
            "duration": 0.125,
            "durationTicks": 96,
            "midi": 69,
            "name": "A4",
            "ticks": 143232,
            "time": 186.5,
            "velocity": 0.33858267716535434
          },
          {
            "duration": 0.125,
            "durationTicks": 96,
            "midi": 59,
            "name": "B3",
            "ticks": 143232,
            "time": 186.5,
            "velocity": 0.1968503937007874
          },
          {
            "duration": 0.125,
            "durationTicks": 96,
            "midi": 43,
            "name": "G2",
            "ticks": 143232,
            "time": 186.5,
            "velocity": 0.30708661417322836
          },
          {
            "duration": 0.5,
            "durationTicks": 384,
            "midi": 86,
            "name": "D6",
            "ticks": 143232,
            "time": 186.5,
            "velocity": 0.2204724409448819
          },
          {
            "duration": 0,
            "durationTicks": 0,
            "midi": 54,
            "name": "F#3",
            "ticks": 143232,
            "time": 186.5,
            "velocity": 0.28346456692913385
          },
          {
            "duration": 0,
            "durationTicks": 0,
            "midi": 61,
            "name": "C#4",
            "ticks": 143232,
            "time": 186.5,
            "velocity": 0.2755905511811024
          },
          {
            "duration": 0.5,
            "durationTicks": 384,
            "midi": 86,
            "name": "D6",
            "ticks": 143232,
            "time": 186.5,
            "velocity": 0.2204724409448819
          },
          {
            "duration": 0,
            "durationTicks": 0,
            "midi": 44,
            "name": "G#2",
            "ticks": 143232,
            "time": 186.5,
            "velocity": 0.2677165354330709
          },
          {
            "duration": 0.125,
            "durationTicks": 96,
            "midi": 67,
            "name": "G4",
            "ticks": 143232,
            "time": 186.5,
            "velocity": 0.18110236220472442
          },
          {
            "duration": 0.375,
            "durationTicks": 288,
            "midi": 50,
            "name": "D3",
            "ticks": 143424,
            "time": 186.75,
            "velocity": 0.2677165354330709
          },
          {
            "duration": 0.125,
            "durationTicks": 96,
            "midi": 43,
            "name": "G2",
            "ticks": 143424,
            "time": 186.75,
            "velocity": 0.31496062992125984
          },
          {
            "duration": 0.375,
            "durationTicks": 288,
            "midi": 55,
            "name": "G3",
            "ticks": 143424,
            "time": 186.75,
            "velocity": 0.2677165354330709
          },
          {
            "duration": 0.25,
            "durationTicks": 192,
            "midi": 59,
            "name": "B3",
            "ticks": 143616,
            "time": 187,
            "velocity": 0.1889763779527559
          },
          {
            "duration": 0.25,
            "durationTicks": 192,
            "midi": 62,
            "name": "D4",
            "ticks": 143616,
            "time": 187,
            "velocity": 0.29133858267716534
          },
          {
            "duration": 0.25,
            "durationTicks": 192,
            "midi": 67,
            "name": "G4",
            "ticks": 143616,
            "time": 187,
            "velocity": 0.2283464566929134
          },
          {
            "duration": 0,
            "durationTicks": 0,
            "midi": 54,
            "name": "F#3",
            "ticks": 143616,
            "time": 187,
            "velocity": 0.28346456692913385
          },
          {
            "duration": 0.5,
            "durationTicks": 384,
            "midi": 88,
            "name": "E6",
            "ticks": 143616,
            "time": 187,
            "velocity": 0.2125984251968504
          },
          {
            "duration": 0,
            "durationTicks": 0,
            "midi": 60,
            "name": "C4",
            "ticks": 143616,
            "time": 187,
            "velocity": 0.28346456692913385
          },
          {
            "duration": 0.125,
            "durationTicks": 96,
            "midi": 43,
            "name": "G2",
            "ticks": 143616,
            "time": 187,
            "velocity": 0.30708661417322836
          },
          {
            "duration": 0,
            "durationTicks": 0,
            "midi": 44,
            "name": "G#2",
            "ticks": 143616,
            "time": 187,
            "velocity": 0.2677165354330709
          },
          {
            "duration": 0.5,
            "durationTicks": 384,
            "midi": 88,
            "name": "E6",
            "ticks": 143616,
            "time": 187,
            "velocity": 0.2125984251968504
          },
          {
            "duration": 0,
            "durationTicks": 0,
            "midi": 36,
            "name": "C2",
            "ticks": 143616,
            "time": 187,
            "velocity": 0.3700787401574803
          },
          {
            "duration": 0.375,
            "durationTicks": 288,
            "midi": 64,
            "name": "E4",
            "ticks": 143616,
            "time": 187,
            "velocity": 0.33858267716535434
          },
          {
            "duration": 0,
            "durationTicks": 0,
            "midi": 38,
            "name": "D2",
            "ticks": 143804,
            "time": 187.24479166666666,
            "velocity": 0.33858267716535434
          },
          {
            "duration": 0.125,
            "durationTicks": 96,
            "midi": 55,
            "name": "G3",
            "ticks": 143808,
            "time": 187.25,
            "velocity": 0.2677165354330709
          },
          {
            "duration": 0.125,
            "durationTicks": 96,
            "midi": 67,
            "name": "G4",
            "ticks": 143808,
            "time": 187.25,
            "velocity": 0.2440944881889764
          },
          {
            "duration": 0.75,
            "durationTicks": 576,
            "midi": 50,
            "name": "D3",
            "ticks": 143808,
            "time": 187.25,
            "velocity": 0.25196850393700787
          },
          {
            "duration": 0.125,
            "durationTicks": 96,
            "midi": 62,
            "name": "D4",
            "ticks": 143808,
            "time": 187.25,
            "velocity": 0.2125984251968504
          },
          {
            "duration": 0.125,
            "durationTicks": 96,
            "midi": 59,
            "name": "B3",
            "ticks": 143808,
            "time": 187.25,
            "velocity": 0.2125984251968504
          },
          {
            "duration": 0.25,
            "durationTicks": 192,
            "midi": 43,
            "name": "G2",
            "ticks": 143808,
            "time": 187.25,
            "velocity": 0.31496062992125984
          },
          {
            "duration": 0.75,
            "durationTicks": 576,
            "midi": 55,
            "name": "G3",
            "ticks": 143808,
            "time": 187.25,
            "velocity": 0.2677165354330709
          },
          {
            "duration": 0,
            "durationTicks": 0,
            "midi": 44,
            "name": "G#2",
            "ticks": 144000,
            "time": 187.5,
            "velocity": 0.2677165354330709
          },
          {
            "duration": 0,
            "durationTicks": 0,
            "midi": 61,
            "name": "C#4",
            "ticks": 144000,
            "time": 187.5,
            "velocity": 0.28346456692913385
          },
          {
            "duration": 0.25,
            "durationTicks": 192,
            "midi": 41,
            "name": "F2",
            "ticks": 144000,
            "time": 187.5,
            "velocity": 0.30708661417322836
          },
          {
            "duration": 0.5,
            "durationTicks": 384,
            "midi": 86,
            "name": "D6",
            "ticks": 144000,
            "time": 187.5,
            "velocity": 0.1889763779527559
          },
          {
            "duration": 0.5,
            "durationTicks": 384,
            "midi": 86,
            "name": "D6",
            "ticks": 144000,
            "time": 187.5,
            "velocity": 0.1889763779527559
          },
          {
            "duration": 0,
            "durationTicks": 0,
            "midi": 54,
            "name": "F#3",
            "ticks": 144000,
            "time": 187.5,
            "velocity": 0.28346456692913385
          },
          {
            "duration": 0,
            "durationTicks": 0,
            "midi": 38,
            "name": "D2",
            "ticks": 144004,
            "time": 187.50520833333334,
            "velocity": 0.33858267716535434
          },
          {
            "duration": 0,
            "durationTicks": 0,
            "midi": 46,
            "name": "A#2",
            "ticks": 144192,
            "time": 187.75,
            "velocity": 0.2677165354330709
          },
          {
            "duration": 0.25,
            "durationTicks": 192,
            "midi": 40,
            "name": "E2",
            "ticks": 144192,
            "time": 187.75,
            "velocity": 0.2992125984251969
          },
          {
            "duration": 0.25,
            "durationTicks": 192,
            "midi": 60,
            "name": "C4",
            "ticks": 144384,
            "time": 188,
            "velocity": 0.2204724409448819
          },
          {
            "duration": 1.5,
            "durationTicks": 1152,
            "midi": 60,
            "name": "C4",
            "ticks": 144384,
            "time": 188,
            "velocity": 0.2204724409448819
          },
          {
            "duration": 0.25,
            "durationTicks": 192,
            "midi": 67,
            "name": "G4",
            "ticks": 144384,
            "time": 188,
            "velocity": 0.15748031496062992
          },
          {
            "duration": 0,
            "durationTicks": 0,
            "midi": 36,
            "name": "C2",
            "ticks": 144384,
            "time": 188,
            "velocity": 0.2992125984251969
          },
          {
            "duration": 0,
            "durationTicks": 0,
            "midi": 44,
            "name": "G#2",
            "ticks": 144384,
            "time": 188,
            "velocity": 0.2677165354330709
          },
          {
            "duration": 0,
            "durationTicks": 0,
            "midi": 38,
            "name": "D2",
            "ticks": 144384,
            "time": 188,
            "velocity": 0.33070866141732286
          },
          {
            "duration": 1.5,
            "durationTicks": 1152,
            "midi": 36,
            "name": "C2",
            "ticks": 144384,
            "time": 188,
            "velocity": 0.2992125984251969
          },
          {
            "duration": 1.5,
            "durationTicks": 1152,
            "midi": 64,
            "name": "E4",
            "ticks": 144388,
            "time": 188.00520833333334,
            "velocity": 0.2677165354330709
          },
          {
            "duration": 1.375,
            "durationTicks": 1056,
            "midi": 84,
            "name": "C6",
            "ticks": 144424,
            "time": 188.05208333333334,
            "velocity": 0.2204724409448819
          },
          {
            "duration": 1.375,
            "durationTicks": 1056,
            "midi": 84,
            "name": "C6",
            "ticks": 144424,
            "time": 188.05208333333334,
            "velocity": 0.2204724409448819
          }
        ],
        "endOfTrackTicks": 145540
      }
    ]
  }