{
    "header": {
      "keySignatures": [],
      "meta": [],
      "name": "",
      "ppq": 384,
      "tempos": [
        {
          "bpm": 146.00032120070665,
          "ticks": 0
        }
      ],
      "timeSignatures": [
        {
          "ticks": 0,
          "timeSignature": [
            1,
            4
          ],
          "measures": 0
        }
      ]
    },
    "tracks": [
      {
        "channel": 0,
        "controlChanges": {},
        "pitchBends": [],
        "instrument": {
          "family": "synth lead",
          "number": 87,
          "name": "lead 8 (bass + lead)"
        },
        "name": "Synth Pluck",
        "notes": [
          {
            "duration": 0.1027395,
            "durationTicks": 96,
            "midi": 60,
            "name": "C4",
            "ticks": 0,
            "time": 0,
            "velocity": 0.3937007874015748
          },
          {
            "duration": 0.1027395,
            "durationTicks": 96,
            "midi": 60,
            "name": "C4",
            "ticks": 0,
            "time": 0,
            "velocity": 0.3937007874015748
          },
          {
            "duration": 0.1027395,
            "durationTicks": 96,
            "midi": 72,
            "name": "C5",
            "ticks": 0,
            "time": 0,
            "velocity": 0.3937007874015748
          },
          {
            "duration": 0.1027395,
            "durationTicks": 96,
            "midi": 57,
            "name": "A3",
            "ticks": 0,
            "time": 0,
            "velocity": 0.3937007874015748
          },
          {
            "duration": 0.1027395,
            "durationTicks": 96,
            "midi": 72,
            "name": "C5",
            "ticks": 0,
            "time": 0,
            "velocity": 0.3937007874015748
          },
          {
            "duration": 0.1027395,
            "durationTicks": 96,
            "midi": 57,
            "name": "A3",
            "ticks": 0,
            "time": 0,
            "velocity": 0.3937007874015748
          },
          {
            "duration": 0.1027395,
            "durationTicks": 96,
            "midi": 69,
            "name": "A4",
            "ticks": 0,
            "time": 0,
            "velocity": 0.3937007874015748
          },
          {
            "duration": 0.1027395,
            "durationTicks": 96,
            "midi": 69,
            "name": "A4",
            "ticks": 0,
            "time": 0,
            "velocity": 0.3937007874015748
          },
          {
            "duration": 0.10273950000000001,
            "durationTicks": 96,
            "midi": 72,
            "name": "C5",
            "ticks": 192,
            "time": 0.205479,
            "velocity": 0.3937007874015748
          },
          {
            "duration": 0.10273950000000001,
            "durationTicks": 96,
            "midi": 60,
            "name": "C4",
            "ticks": 192,
            "time": 0.205479,
            "velocity": 0.3937007874015748
          },
          {
            "duration": 0.10273950000000001,
            "durationTicks": 96,
            "midi": 72,
            "name": "C5",
            "ticks": 192,
            "time": 0.205479,
            "velocity": 0.3937007874015748
          },
          {
            "duration": 0.10273950000000001,
            "durationTicks": 96,
            "midi": 60,
            "name": "C4",
            "ticks": 192,
            "time": 0.205479,
            "velocity": 0.3937007874015748
          },
          {
            "duration": 0.10273950000000001,
            "durationTicks": 96,
            "midi": 57,
            "name": "A3",
            "ticks": 192,
            "time": 0.205479,
            "velocity": 0.3937007874015748
          },
          {
            "duration": 0.10273950000000001,
            "durationTicks": 96,
            "midi": 69,
            "name": "A4",
            "ticks": 192,
            "time": 0.205479,
            "velocity": 0.3937007874015748
          },
          {
            "duration": 0.10273950000000001,
            "durationTicks": 96,
            "midi": 57,
            "name": "A3",
            "ticks": 192,
            "time": 0.205479,
            "velocity": 0.3937007874015748
          },
          {
            "duration": 0.10273950000000001,
            "durationTicks": 96,
            "midi": 69,
            "name": "A4",
            "ticks": 192,
            "time": 0.205479,
            "velocity": 0.3937007874015748
          },
          {
            "duration": 0.10273950000000004,
            "durationTicks": 96,
            "midi": 57,
            "name": "A3",
            "ticks": 384,
            "time": 0.410958,
            "velocity": 0.3937007874015748
          },
          {
            "duration": 0.10273950000000004,
            "durationTicks": 96,
            "midi": 60,
            "name": "C4",
            "ticks": 384,
            "time": 0.410958,
            "velocity": 0.3937007874015748
          },
          {
            "duration": 0.10273950000000004,
            "durationTicks": 96,
            "midi": 60,
            "name": "C4",
            "ticks": 384,
            "time": 0.410958,
            "velocity": 0.3937007874015748
          },
          {
            "duration": 0.10273950000000004,
            "durationTicks": 96,
            "midi": 69,
            "name": "A4",
            "ticks": 384,
            "time": 0.410958,
            "velocity": 0.3937007874015748
          },
          {
            "duration": 0.10273950000000004,
            "durationTicks": 96,
            "midi": 69,
            "name": "A4",
            "ticks": 384,
            "time": 0.410958,
            "velocity": 0.3937007874015748
          },
          {
            "duration": 0.10273950000000004,
            "durationTicks": 96,
            "midi": 72,
            "name": "C5",
            "ticks": 384,
            "time": 0.410958,
            "velocity": 0.3937007874015748
          },
          {
            "duration": 0.10273950000000004,
            "durationTicks": 96,
            "midi": 72,
            "name": "C5",
            "ticks": 384,
            "time": 0.410958,
            "velocity": 0.3937007874015748
          },
          {
            "duration": 0.10273950000000004,
            "durationTicks": 96,
            "midi": 57,
            "name": "A3",
            "ticks": 384,
            "time": 0.410958,
            "velocity": 0.3937007874015748
          },
          {
            "duration": 0.10273949999999998,
            "durationTicks": 96,
            "midi": 65,
            "name": "F4",
            "ticks": 576,
            "time": 0.616437,
            "velocity": 0.3937007874015748
          },
          {
            "duration": 0.10273949999999998,
            "durationTicks": 96,
            "midi": 62,
            "name": "D4",
            "ticks": 576,
            "time": 0.616437,
            "velocity": 0.3937007874015748
          },
          {
            "duration": 0.10273949999999998,
            "durationTicks": 96,
            "midi": 53,
            "name": "F3",
            "ticks": 576,
            "time": 0.616437,
            "velocity": 0.3937007874015748
          },
          {
            "duration": 0.10273949999999998,
            "durationTicks": 96,
            "midi": 62,
            "name": "D4",
            "ticks": 576,
            "time": 0.616437,
            "velocity": 0.3937007874015748
          },
          {
            "duration": 0.10273949999999998,
            "durationTicks": 96,
            "midi": 53,
            "name": "F3",
            "ticks": 576,
            "time": 0.616437,
            "velocity": 0.3937007874015748
          },
          {
            "duration": 0.10273949999999998,
            "durationTicks": 96,
            "midi": 50,
            "name": "D3",
            "ticks": 576,
            "time": 0.616437,
            "velocity": 0.3937007874015748
          },
          {
            "duration": 0.10273949999999998,
            "durationTicks": 96,
            "midi": 65,
            "name": "F4",
            "ticks": 576,
            "time": 0.616437,
            "velocity": 0.3937007874015748
          },
          {
            "duration": 0.10273949999999998,
            "durationTicks": 96,
            "midi": 50,
            "name": "D3",
            "ticks": 576,
            "time": 0.616437,
            "velocity": 0.3937007874015748
          },
          {
            "duration": 0.10273949999999998,
            "durationTicks": 96,
            "midi": 60,
            "name": "C4",
            "ticks": 672,
            "time": 0.7191765,
            "velocity": 0.3937007874015748
          },
          {
            "duration": 0.10273949999999998,
            "durationTicks": 96,
            "midi": 57,
            "name": "A3",
            "ticks": 672,
            "time": 0.7191765,
            "velocity": 0.3937007874015748
          },
          {
            "duration": 0.10273949999999998,
            "durationTicks": 96,
            "midi": 57,
            "name": "A3",
            "ticks": 672,
            "time": 0.7191765,
            "velocity": 0.3937007874015748
          },
          {
            "duration": 0.10273949999999998,
            "durationTicks": 96,
            "midi": 60,
            "name": "C4",
            "ticks": 672,
            "time": 0.7191765,
            "velocity": 0.3937007874015748
          },
          {
            "duration": 0.10273949999999998,
            "durationTicks": 96,
            "midi": 72,
            "name": "C5",
            "ticks": 672,
            "time": 0.7191765,
            "velocity": 0.3937007874015748
          },
          {
            "duration": 0.10273949999999998,
            "durationTicks": 96,
            "midi": 69,
            "name": "A4",
            "ticks": 672,
            "time": 0.7191765,
            "velocity": 0.3937007874015748
          },
          {
            "duration": 0.10273949999999998,
            "durationTicks": 96,
            "midi": 69,
            "name": "A4",
            "ticks": 672,
            "time": 0.7191765,
            "velocity": 0.3937007874015748
          },
          {
            "duration": 0.10273949999999998,
            "durationTicks": 96,
            "midi": 72,
            "name": "C5",
            "ticks": 672,
            "time": 0.7191765,
            "velocity": 0.3937007874015748
          },
          {
            "duration": 0.1027395000000001,
            "durationTicks": 96,
            "midi": 72,
            "name": "C5",
            "ticks": 864,
            "time": 0.9246555,
            "velocity": 0.3937007874015748
          },
          {
            "duration": 0.1027395000000001,
            "durationTicks": 96,
            "midi": 60,
            "name": "C4",
            "ticks": 864,
            "time": 0.9246555,
            "velocity": 0.3937007874015748
          },
          {
            "duration": 0.1027395000000001,
            "durationTicks": 96,
            "midi": 57,
            "name": "A3",
            "ticks": 864,
            "time": 0.9246555,
            "velocity": 0.3937007874015748
          },
          {
            "duration": 0.1027395000000001,
            "durationTicks": 96,
            "midi": 69,
            "name": "A4",
            "ticks": 864,
            "time": 0.9246555,
            "velocity": 0.3937007874015748
          },
          {
            "duration": 0.1027395000000001,
            "durationTicks": 96,
            "midi": 60,
            "name": "C4",
            "ticks": 864,
            "time": 0.9246555,
            "velocity": 0.3937007874015748
          },
          {
            "duration": 0.1027395000000001,
            "durationTicks": 96,
            "midi": 72,
            "name": "C5",
            "ticks": 864,
            "time": 0.9246555,
            "velocity": 0.3937007874015748
          },
          {
            "duration": 0.1027395000000001,
            "durationTicks": 96,
            "midi": 57,
            "name": "A3",
            "ticks": 864,
            "time": 0.9246555,
            "velocity": 0.3937007874015748
          },
          {
            "duration": 0.1027395000000001,
            "durationTicks": 96,
            "midi": 69,
            "name": "A4",
            "ticks": 864,
            "time": 0.9246555,
            "velocity": 0.3937007874015748
          },
          {
            "duration": 0.10273949999999998,
            "durationTicks": 96,
            "midi": 53,
            "name": "F3",
            "ticks": 1056,
            "time": 1.1301345,
            "velocity": 0.3937007874015748
          },
          {
            "duration": 0.10273949999999998,
            "durationTicks": 96,
            "midi": 65,
            "name": "F4",
            "ticks": 1056,
            "time": 1.1301345,
            "velocity": 0.3937007874015748
          },
          {
            "duration": 0.10273949999999998,
            "durationTicks": 96,
            "midi": 50,
            "name": "D3",
            "ticks": 1056,
            "time": 1.1301345,
            "velocity": 0.3937007874015748
          },
          {
            "duration": 0.10273949999999998,
            "durationTicks": 96,
            "midi": 62,
            "name": "D4",
            "ticks": 1056,
            "time": 1.1301345,
            "velocity": 0.3937007874015748
          },
          {
            "duration": 0.10273949999999998,
            "durationTicks": 96,
            "midi": 62,
            "name": "D4",
            "ticks": 1056,
            "time": 1.1301345,
            "velocity": 0.3937007874015748
          },
          {
            "duration": 0.10273949999999998,
            "durationTicks": 96,
            "midi": 53,
            "name": "F3",
            "ticks": 1056,
            "time": 1.1301345,
            "velocity": 0.3937007874015748
          },
          {
            "duration": 0.10273949999999998,
            "durationTicks": 96,
            "midi": 50,
            "name": "D3",
            "ticks": 1056,
            "time": 1.1301345,
            "velocity": 0.3937007874015748
          },
          {
            "duration": 0.10273949999999998,
            "durationTicks": 96,
            "midi": 65,
            "name": "F4",
            "ticks": 1056,
            "time": 1.1301345,
            "velocity": 0.3937007874015748
          },
          {
            "duration": 0.10273949999999998,
            "durationTicks": 96,
            "midi": 60,
            "name": "C4",
            "ticks": 1152,
            "time": 1.232874,
            "velocity": 0.3937007874015748
          },
          {
            "duration": 0.10273949999999998,
            "durationTicks": 96,
            "midi": 57,
            "name": "A3",
            "ticks": 1152,
            "time": 1.232874,
            "velocity": 0.3937007874015748
          },
          {
            "duration": 0.10273949999999998,
            "durationTicks": 96,
            "midi": 72,
            "name": "C5",
            "ticks": 1152,
            "time": 1.232874,
            "velocity": 0.3937007874015748
          },
          {
            "duration": 0.10273949999999998,
            "durationTicks": 96,
            "midi": 72,
            "name": "C5",
            "ticks": 1152,
            "time": 1.232874,
            "velocity": 0.3937007874015748
          },
          {
            "duration": 0.10273949999999998,
            "durationTicks": 96,
            "midi": 69,
            "name": "A4",
            "ticks": 1152,
            "time": 1.232874,
            "velocity": 0.3937007874015748
          },
          {
            "duration": 0.10273949999999998,
            "durationTicks": 96,
            "midi": 57,
            "name": "A3",
            "ticks": 1152,
            "time": 1.232874,
            "velocity": 0.3937007874015748
          },
          {
            "duration": 0.10273949999999998,
            "durationTicks": 96,
            "midi": 69,
            "name": "A4",
            "ticks": 1152,
            "time": 1.232874,
            "velocity": 0.3937007874015748
          },
          {
            "duration": 0.10273949999999998,
            "durationTicks": 96,
            "midi": 60,
            "name": "C4",
            "ticks": 1152,
            "time": 1.232874,
            "velocity": 0.3937007874015748
          },
          {
            "duration": 0.10273949999999998,
            "durationTicks": 96,
            "midi": 65,
            "name": "F4",
            "ticks": 1248,
            "time": 1.3356135,
            "velocity": 0.3937007874015748
          },
          {
            "duration": 0.10273949999999998,
            "durationTicks": 96,
            "midi": 65,
            "name": "F4",
            "ticks": 1248,
            "time": 1.3356135,
            "velocity": 0.3937007874015748
          },
          {
            "duration": 0.10273949999999998,
            "durationTicks": 96,
            "midi": 62,
            "name": "D4",
            "ticks": 1248,
            "time": 1.3356135,
            "velocity": 0.3937007874015748
          },
          {
            "duration": 0.10273949999999998,
            "durationTicks": 96,
            "midi": 53,
            "name": "F3",
            "ticks": 1248,
            "time": 1.3356135,
            "velocity": 0.3937007874015748
          },
          {
            "duration": 0.10273949999999998,
            "durationTicks": 96,
            "midi": 53,
            "name": "F3",
            "ticks": 1248,
            "time": 1.3356135,
            "velocity": 0.3937007874015748
          },
          {
            "duration": 0.10273949999999998,
            "durationTicks": 96,
            "midi": 50,
            "name": "D3",
            "ticks": 1248,
            "time": 1.3356135,
            "velocity": 0.3937007874015748
          },
          {
            "duration": 0.10273949999999998,
            "durationTicks": 96,
            "midi": 62,
            "name": "D4",
            "ticks": 1248,
            "time": 1.3356135,
            "velocity": 0.3937007874015748
          },
          {
            "duration": 0.10273949999999998,
            "durationTicks": 96,
            "midi": 50,
            "name": "D3",
            "ticks": 1248,
            "time": 1.3356135,
            "velocity": 0.3937007874015748
          },
          {
            "duration": 0.10273949999999998,
            "durationTicks": 96,
            "midi": 60,
            "name": "C4",
            "ticks": 1344,
            "time": 1.438353,
            "velocity": 0.3937007874015748
          },
          {
            "duration": 0.10273949999999998,
            "durationTicks": 96,
            "midi": 72,
            "name": "C5",
            "ticks": 1344,
            "time": 1.438353,
            "velocity": 0.3937007874015748
          },
          {
            "duration": 0.10273949999999998,
            "durationTicks": 96,
            "midi": 69,
            "name": "A4",
            "ticks": 1344,
            "time": 1.438353,
            "velocity": 0.3937007874015748
          },
          {
            "duration": 0.10273949999999998,
            "durationTicks": 96,
            "midi": 57,
            "name": "A3",
            "ticks": 1344,
            "time": 1.438353,
            "velocity": 0.3937007874015748
          },
          {
            "duration": 0.10273949999999998,
            "durationTicks": 96,
            "midi": 60,
            "name": "C4",
            "ticks": 1344,
            "time": 1.438353,
            "velocity": 0.3937007874015748
          },
          {
            "duration": 0.10273949999999998,
            "durationTicks": 96,
            "midi": 69,
            "name": "A4",
            "ticks": 1344,
            "time": 1.438353,
            "velocity": 0.3937007874015748
          },
          {
            "duration": 0.10273949999999998,
            "durationTicks": 96,
            "midi": 72,
            "name": "C5",
            "ticks": 1344,
            "time": 1.438353,
            "velocity": 0.3937007874015748
          },
          {
            "duration": 0.10273949999999998,
            "durationTicks": 96,
            "midi": 57,
            "name": "A3",
            "ticks": 1344,
            "time": 1.438353,
            "velocity": 0.3937007874015748
          },
          {
            "duration": 0.10273949999999998,
            "durationTicks": 96,
            "midi": 67,
            "name": "G4",
            "ticks": 1536,
            "time": 1.643832,
            "velocity": 0.3937007874015748
          },
          {
            "duration": 0.10273949999999998,
            "durationTicks": 96,
            "midi": 67,
            "name": "G4",
            "ticks": 1536,
            "time": 1.643832,
            "velocity": 0.3937007874015748
          },
          {
            "duration": 0.10273949999999998,
            "durationTicks": 96,
            "midi": 59,
            "name": "B3",
            "ticks": 1536,
            "time": 1.643832,
            "velocity": 0.3937007874015748
          },
          {
            "duration": 0.10273949999999998,
            "durationTicks": 96,
            "midi": 55,
            "name": "G3",
            "ticks": 1536,
            "time": 1.643832,
            "velocity": 0.3937007874015748
          },
          {
            "duration": 0.10273949999999998,
            "durationTicks": 96,
            "midi": 71,
            "name": "B4",
            "ticks": 1536,
            "time": 1.643832,
            "velocity": 0.3937007874015748
          },
          {
            "duration": 0.10273949999999998,
            "durationTicks": 96,
            "midi": 55,
            "name": "G3",
            "ticks": 1536,
            "time": 1.643832,
            "velocity": 0.3937007874015748
          },
          {
            "duration": 0.10273949999999998,
            "durationTicks": 96,
            "midi": 71,
            "name": "B4",
            "ticks": 1536,
            "time": 1.643832,
            "velocity": 0.3937007874015748
          },
          {
            "duration": 0.10273949999999998,
            "durationTicks": 96,
            "midi": 59,
            "name": "B3",
            "ticks": 1536,
            "time": 1.643832,
            "velocity": 0.3937007874015748
          },
          {
            "duration": 0.10273949999999998,
            "durationTicks": 96,
            "midi": 68,
            "name": "G#4",
            "ticks": 1632,
            "time": 1.7465715,
            "velocity": 0.3937007874015748
          },
          {
            "duration": 0.10273949999999998,
            "durationTicks": 96,
            "midi": 71,
            "name": "B4",
            "ticks": 1728,
            "time": 1.849311,
            "velocity": 0.3937007874015748
          },
          {
            "duration": 0.10273949999999998,
            "durationTicks": 96,
            "midi": 67,
            "name": "G4",
            "ticks": 1728,
            "time": 1.849311,
            "velocity": 0.3937007874015748
          },
          {
            "duration": 0.10273949999999998,
            "durationTicks": 96,
            "midi": 67,
            "name": "G4",
            "ticks": 1728,
            "time": 1.849311,
            "velocity": 0.3937007874015748
          },
          {
            "duration": 0.10273949999999998,
            "durationTicks": 96,
            "midi": 55,
            "name": "G3",
            "ticks": 1728,
            "time": 1.849311,
            "velocity": 0.3937007874015748
          },
          {
            "duration": 0.10273949999999998,
            "durationTicks": 96,
            "midi": 59,
            "name": "B3",
            "ticks": 1728,
            "time": 1.849311,
            "velocity": 0.3937007874015748
          },
          {
            "duration": 0.10273949999999998,
            "durationTicks": 96,
            "midi": 59,
            "name": "B3",
            "ticks": 1728,
            "time": 1.849311,
            "velocity": 0.3937007874015748
          },
          {
            "duration": 0.10273949999999998,
            "durationTicks": 96,
            "midi": 55,
            "name": "G3",
            "ticks": 1728,
            "time": 1.849311,
            "velocity": 0.3937007874015748
          },
          {
            "duration": 0.10273949999999998,
            "durationTicks": 96,
            "midi": 71,
            "name": "B4",
            "ticks": 1728,
            "time": 1.849311,
            "velocity": 0.3937007874015748
          },
          {
            "duration": 0.10273949999999976,
            "durationTicks": 96,
            "midi": 55,
            "name": "G3",
            "ticks": 1920,
            "time": 2.05479,
            "velocity": 0.3937007874015748
          },
          {
            "duration": 0.10273949999999976,
            "durationTicks": 96,
            "midi": 67,
            "name": "G4",
            "ticks": 1920,
            "time": 2.05479,
            "velocity": 0.3937007874015748
          },
          {
            "duration": 0.10273949999999976,
            "durationTicks": 96,
            "midi": 59,
            "name": "B3",
            "ticks": 1920,
            "time": 2.05479,
            "velocity": 0.3937007874015748
          },
          {
            "duration": 0.10273949999999976,
            "durationTicks": 96,
            "midi": 55,
            "name": "G3",
            "ticks": 1920,
            "time": 2.05479,
            "velocity": 0.3937007874015748
          },
          {
            "duration": 0.10273949999999976,
            "durationTicks": 96,
            "midi": 59,
            "name": "B3",
            "ticks": 1920,
            "time": 2.05479,
            "velocity": 0.3937007874015748
          },
          {
            "duration": 0.10273949999999976,
            "durationTicks": 96,
            "midi": 71,
            "name": "B4",
            "ticks": 1920,
            "time": 2.05479,
            "velocity": 0.3937007874015748
          },
          {
            "duration": 0.10273949999999976,
            "durationTicks": 96,
            "midi": 67,
            "name": "G4",
            "ticks": 1920,
            "time": 2.05479,
            "velocity": 0.3937007874015748
          },
          {
            "duration": 0.10273949999999976,
            "durationTicks": 96,
            "midi": 71,
            "name": "B4",
            "ticks": 1920,
            "time": 2.05479,
            "velocity": 0.3937007874015748
          },
          {
            "duration": 0.10273949999999976,
            "durationTicks": 96,
            "midi": 60,
            "name": "C4",
            "ticks": 2112,
            "time": 2.260269,
            "velocity": 0.3937007874015748
          },
          {
            "duration": 0.10273949999999976,
            "durationTicks": 96,
            "midi": 64,
            "name": "E4",
            "ticks": 2112,
            "time": 2.260269,
            "velocity": 0.3937007874015748
          },
          {
            "duration": 0.10273949999999976,
            "durationTicks": 96,
            "midi": 48,
            "name": "C3",
            "ticks": 2112,
            "time": 2.260269,
            "velocity": 0.3937007874015748
          },
          {
            "duration": 0.10273949999999976,
            "durationTicks": 96,
            "midi": 48,
            "name": "C3",
            "ticks": 2112,
            "time": 2.260269,
            "velocity": 0.3937007874015748
          },
          {
            "duration": 0.10273949999999976,
            "durationTicks": 96,
            "midi": 52,
            "name": "E3",
            "ticks": 2112,
            "time": 2.260269,
            "velocity": 0.3937007874015748
          },
          {
            "duration": 0.10273949999999976,
            "durationTicks": 96,
            "midi": 52,
            "name": "E3",
            "ticks": 2112,
            "time": 2.260269,
            "velocity": 0.3937007874015748
          },
          {
            "duration": 0.10273949999999976,
            "durationTicks": 96,
            "midi": 64,
            "name": "E4",
            "ticks": 2112,
            "time": 2.260269,
            "velocity": 0.3937007874015748
          },
          {
            "duration": 0.10273949999999976,
            "durationTicks": 96,
            "midi": 60,
            "name": "C4",
            "ticks": 2112,
            "time": 2.260269,
            "velocity": 0.3937007874015748
          },
          {
            "duration": 0.1027395000000002,
            "durationTicks": 96,
            "midi": 67,
            "name": "G4",
            "ticks": 2208,
            "time": 2.3630085,
            "velocity": 0.3937007874015748
          },
          {
            "duration": 0.1027395000000002,
            "durationTicks": 96,
            "midi": 59,
            "name": "B3",
            "ticks": 2208,
            "time": 2.3630085,
            "velocity": 0.3937007874015748
          },
          {
            "duration": 0.1027395000000002,
            "durationTicks": 96,
            "midi": 55,
            "name": "G3",
            "ticks": 2208,
            "time": 2.3630085,
            "velocity": 0.3937007874015748
          },
          {
            "duration": 0.1027395000000002,
            "durationTicks": 96,
            "midi": 55,
            "name": "G3",
            "ticks": 2208,
            "time": 2.3630085,
            "velocity": 0.3937007874015748
          },
          {
            "duration": 0.1027395000000002,
            "durationTicks": 96,
            "midi": 71,
            "name": "B4",
            "ticks": 2208,
            "time": 2.3630085,
            "velocity": 0.3937007874015748
          },
          {
            "duration": 0.1027395000000002,
            "durationTicks": 96,
            "midi": 59,
            "name": "B3",
            "ticks": 2208,
            "time": 2.3630085,
            "velocity": 0.3937007874015748
          },
          {
            "duration": 0.1027395000000002,
            "durationTicks": 96,
            "midi": 67,
            "name": "G4",
            "ticks": 2208,
            "time": 2.3630085,
            "velocity": 0.3937007874015748
          },
          {
            "duration": 0.1027395000000002,
            "durationTicks": 96,
            "midi": 71,
            "name": "B4",
            "ticks": 2208,
            "time": 2.3630085,
            "velocity": 0.3937007874015748
          },
          {
            "duration": 0.1027395000000002,
            "durationTicks": 96,
            "midi": 59,
            "name": "B3",
            "ticks": 2400,
            "time": 2.5684875,
            "velocity": 0.3937007874015748
          },
          {
            "duration": 0.1027395000000002,
            "durationTicks": 96,
            "midi": 71,
            "name": "B4",
            "ticks": 2400,
            "time": 2.5684875,
            "velocity": 0.3937007874015748
          },
          {
            "duration": 0.1027395000000002,
            "durationTicks": 96,
            "midi": 67,
            "name": "G4",
            "ticks": 2400,
            "time": 2.5684875,
            "velocity": 0.3937007874015748
          },
          {
            "duration": 0.1027395000000002,
            "durationTicks": 96,
            "midi": 59,
            "name": "B3",
            "ticks": 2400,
            "time": 2.5684875,
            "velocity": 0.3937007874015748
          },
          {
            "duration": 0.1027395000000002,
            "durationTicks": 96,
            "midi": 55,
            "name": "G3",
            "ticks": 2400,
            "time": 2.5684875,
            "velocity": 0.3937007874015748
          },
          {
            "duration": 0.1027395000000002,
            "durationTicks": 96,
            "midi": 71,
            "name": "B4",
            "ticks": 2400,
            "time": 2.5684875,
            "velocity": 0.3937007874015748
          },
          {
            "duration": 0.1027395000000002,
            "durationTicks": 96,
            "midi": 55,
            "name": "G3",
            "ticks": 2400,
            "time": 2.5684875,
            "velocity": 0.3937007874015748
          },
          {
            "duration": 0.1027395000000002,
            "durationTicks": 96,
            "midi": 67,
            "name": "G4",
            "ticks": 2400,
            "time": 2.5684875,
            "velocity": 0.3937007874015748
          },
          {
            "duration": 0.1027395000000002,
            "durationTicks": 96,
            "midi": 60,
            "name": "C4",
            "ticks": 2592,
            "time": 2.7739665,
            "velocity": 0.3937007874015748
          },
          {
            "duration": 0.1027395000000002,
            "durationTicks": 96,
            "midi": 48,
            "name": "C3",
            "ticks": 2592,
            "time": 2.7739665,
            "velocity": 0.3937007874015748
          },
          {
            "duration": 0.1027395000000002,
            "durationTicks": 96,
            "midi": 52,
            "name": "E3",
            "ticks": 2592,
            "time": 2.7739665,
            "velocity": 0.3937007874015748
          },
          {
            "duration": 0.1027395000000002,
            "durationTicks": 96,
            "midi": 48,
            "name": "C3",
            "ticks": 2592,
            "time": 2.7739665,
            "velocity": 0.3937007874015748
          },
          {
            "duration": 0.1027395000000002,
            "durationTicks": 96,
            "midi": 64,
            "name": "E4",
            "ticks": 2592,
            "time": 2.7739665,
            "velocity": 0.3937007874015748
          },
          {
            "duration": 0.1027395000000002,
            "durationTicks": 96,
            "midi": 52,
            "name": "E3",
            "ticks": 2592,
            "time": 2.7739665,
            "velocity": 0.3937007874015748
          },
          {
            "duration": 0.1027395000000002,
            "durationTicks": 96,
            "midi": 60,
            "name": "C4",
            "ticks": 2592,
            "time": 2.7739665,
            "velocity": 0.3937007874015748
          },
          {
            "duration": 0.1027395000000002,
            "durationTicks": 96,
            "midi": 64,
            "name": "E4",
            "ticks": 2592,
            "time": 2.7739665,
            "velocity": 0.3937007874015748
          },
          {
            "duration": 0.10273949999999976,
            "durationTicks": 96,
            "midi": 67,
            "name": "G4",
            "ticks": 2688,
            "time": 2.876706,
            "velocity": 0.3937007874015748
          },
          {
            "duration": 0.10273949999999976,
            "durationTicks": 96,
            "midi": 55,
            "name": "G3",
            "ticks": 2688,
            "time": 2.876706,
            "velocity": 0.3937007874015748
          },
          {
            "duration": 0.10273949999999976,
            "durationTicks": 96,
            "midi": 55,
            "name": "G3",
            "ticks": 2688,
            "time": 2.876706,
            "velocity": 0.3937007874015748
          },
          {
            "duration": 0.10273949999999976,
            "durationTicks": 96,
            "midi": 59,
            "name": "B3",
            "ticks": 2688,
            "time": 2.876706,
            "velocity": 0.3937007874015748
          },
          {
            "duration": 0.10273949999999976,
            "durationTicks": 96,
            "midi": 71,
            "name": "B4",
            "ticks": 2688,
            "time": 2.876706,
            "velocity": 0.3937007874015748
          },
          {
            "duration": 0.10273949999999976,
            "durationTicks": 96,
            "midi": 71,
            "name": "B4",
            "ticks": 2688,
            "time": 2.876706,
            "velocity": 0.3937007874015748
          },
          {
            "duration": 0.10273949999999976,
            "durationTicks": 96,
            "midi": 59,
            "name": "B3",
            "ticks": 2688,
            "time": 2.876706,
            "velocity": 0.3937007874015748
          },
          {
            "duration": 0.10273949999999976,
            "durationTicks": 96,
            "midi": 67,
            "name": "G4",
            "ticks": 2688,
            "time": 2.876706,
            "velocity": 0.3937007874015748
          },
          {
            "duration": 0.1027395000000002,
            "durationTicks": 96,
            "midi": 64,
            "name": "E4",
            "ticks": 2784,
            "time": 2.9794454999999997,
            "velocity": 0.3937007874015748
          },
          {
            "duration": 0.1027395000000002,
            "durationTicks": 96,
            "midi": 48,
            "name": "C3",
            "ticks": 2784,
            "time": 2.9794454999999997,
            "velocity": 0.3937007874015748
          },
          {
            "duration": 0.1027395000000002,
            "durationTicks": 96,
            "midi": 52,
            "name": "E3",
            "ticks": 2784,
            "time": 2.9794454999999997,
            "velocity": 0.3937007874015748
          },
          {
            "duration": 0.1027395000000002,
            "durationTicks": 96,
            "midi": 52,
            "name": "E3",
            "ticks": 2784,
            "time": 2.9794454999999997,
            "velocity": 0.3937007874015748
          },
          {
            "duration": 0.1027395000000002,
            "durationTicks": 96,
            "midi": 64,
            "name": "E4",
            "ticks": 2784,
            "time": 2.9794454999999997,
            "velocity": 0.3937007874015748
          },
          {
            "duration": 0.1027395000000002,
            "durationTicks": 96,
            "midi": 48,
            "name": "C3",
            "ticks": 2784,
            "time": 2.9794454999999997,
            "velocity": 0.3937007874015748
          },
          {
            "duration": 0.1027395000000002,
            "durationTicks": 96,
            "midi": 60,
            "name": "C4",
            "ticks": 2784,
            "time": 2.9794454999999997,
            "velocity": 0.3937007874015748
          },
          {
            "duration": 0.1027395000000002,
            "durationTicks": 96,
            "midi": 60,
            "name": "C4",
            "ticks": 2784,
            "time": 2.9794454999999997,
            "velocity": 0.3937007874015748
          },
          {
            "duration": 0.10273949999999976,
            "durationTicks": 96,
            "midi": 55,
            "name": "G3",
            "ticks": 2880,
            "time": 3.082185,
            "velocity": 0.3937007874015748
          },
          {
            "duration": 0.10273949999999976,
            "durationTicks": 96,
            "midi": 67,
            "name": "G4",
            "ticks": 2880,
            "time": 3.082185,
            "velocity": 0.3937007874015748
          },
          {
            "duration": 0.10273949999999976,
            "durationTicks": 96,
            "midi": 71,
            "name": "B4",
            "ticks": 2880,
            "time": 3.082185,
            "velocity": 0.3937007874015748
          },
          {
            "duration": 0.10273949999999976,
            "durationTicks": 96,
            "midi": 55,
            "name": "G3",
            "ticks": 2880,
            "time": 3.082185,
            "velocity": 0.3937007874015748
          },
          {
            "duration": 0.10273949999999976,
            "durationTicks": 96,
            "midi": 59,
            "name": "B3",
            "ticks": 2880,
            "time": 3.082185,
            "velocity": 0.3937007874015748
          },
          {
            "duration": 0.10273949999999976,
            "durationTicks": 96,
            "midi": 71,
            "name": "B4",
            "ticks": 2880,
            "time": 3.082185,
            "velocity": 0.3937007874015748
          },
          {
            "duration": 0.10273949999999976,
            "durationTicks": 96,
            "midi": 59,
            "name": "B3",
            "ticks": 2880,
            "time": 3.082185,
            "velocity": 0.3937007874015748
          },
          {
            "duration": 0.10273949999999976,
            "durationTicks": 96,
            "midi": 67,
            "name": "G4",
            "ticks": 2880,
            "time": 3.082185,
            "velocity": 0.3937007874015748
          },
          {
            "duration": 0.1027395000000002,
            "durationTicks": 96,
            "midi": 60,
            "name": "C4",
            "ticks": 3072,
            "time": 3.287664,
            "velocity": 0.3937007874015748
          },
          {
            "duration": 0.1027395000000002,
            "durationTicks": 96,
            "midi": 72,
            "name": "C5",
            "ticks": 3072,
            "time": 3.287664,
            "velocity": 0.3937007874015748
          },
          {
            "duration": 0.1027395000000002,
            "durationTicks": 96,
            "midi": 60,
            "name": "C4",
            "ticks": 3072,
            "time": 3.287664,
            "velocity": 0.3937007874015748
          },
          {
            "duration": 0.1027395000000002,
            "durationTicks": 96,
            "midi": 69,
            "name": "A4",
            "ticks": 3072,
            "time": 3.287664,
            "velocity": 0.3937007874015748
          },
          {
            "duration": 0.1027395000000002,
            "durationTicks": 96,
            "midi": 72,
            "name": "C5",
            "ticks": 3072,
            "time": 3.287664,
            "velocity": 0.3937007874015748
          },
          {
            "duration": 0.1027395000000002,
            "durationTicks": 96,
            "midi": 57,
            "name": "A3",
            "ticks": 3072,
            "time": 3.287664,
            "velocity": 0.3937007874015748
          },
          {
            "duration": 0.1027395000000002,
            "durationTicks": 96,
            "midi": 57,
            "name": "A3",
            "ticks": 3072,
            "time": 3.287664,
            "velocity": 0.3937007874015748
          },
          {
            "duration": 0.1027395000000002,
            "durationTicks": 96,
            "midi": 69,
            "name": "A4",
            "ticks": 3072,
            "time": 3.287664,
            "velocity": 0.3937007874015748
          },
          {
            "duration": 0.1027395000000002,
            "durationTicks": 96,
            "midi": 72,
            "name": "C5",
            "ticks": 3264,
            "time": 3.493143,
            "velocity": 0.3937007874015748
          },
          {
            "duration": 0.1027395000000002,
            "durationTicks": 96,
            "midi": 60,
            "name": "C4",
            "ticks": 3264,
            "time": 3.493143,
            "velocity": 0.3937007874015748
          },
          {
            "duration": 0.1027395000000002,
            "durationTicks": 96,
            "midi": 69,
            "name": "A4",
            "ticks": 3264,
            "time": 3.493143,
            "velocity": 0.3937007874015748
          },
          {
            "duration": 0.1027395000000002,
            "durationTicks": 96,
            "midi": 72,
            "name": "C5",
            "ticks": 3264,
            "time": 3.493143,
            "velocity": 0.3937007874015748
          },
          {
            "duration": 0.1027395000000002,
            "durationTicks": 96,
            "midi": 69,
            "name": "A4",
            "ticks": 3264,
            "time": 3.493143,
            "velocity": 0.3937007874015748
          },
          {
            "duration": 0.1027395000000002,
            "durationTicks": 96,
            "midi": 60,
            "name": "C4",
            "ticks": 3264,
            "time": 3.493143,
            "velocity": 0.3937007874015748
          },
          {
            "duration": 0.1027395000000002,
            "durationTicks": 96,
            "midi": 57,
            "name": "A3",
            "ticks": 3264,
            "time": 3.493143,
            "velocity": 0.3937007874015748
          },
          {
            "duration": 0.1027395000000002,
            "durationTicks": 96,
            "midi": 57,
            "name": "A3",
            "ticks": 3264,
            "time": 3.493143,
            "velocity": 0.3937007874015748
          },
          {
            "duration": 0.1027395000000002,
            "durationTicks": 96,
            "midi": 60,
            "name": "C4",
            "ticks": 3456,
            "time": 3.698622,
            "velocity": 0.3937007874015748
          },
          {
            "duration": 0.1027395000000002,
            "durationTicks": 96,
            "midi": 72,
            "name": "C5",
            "ticks": 3456,
            "time": 3.698622,
            "velocity": 0.3937007874015748
          },
          {
            "duration": 0.1027395000000002,
            "durationTicks": 96,
            "midi": 57,
            "name": "A3",
            "ticks": 3456,
            "time": 3.698622,
            "velocity": 0.3937007874015748
          },
          {
            "duration": 0.1027395000000002,
            "durationTicks": 96,
            "midi": 60,
            "name": "C4",
            "ticks": 3456,
            "time": 3.698622,
            "velocity": 0.3937007874015748
          },
          {
            "duration": 0.1027395000000002,
            "durationTicks": 96,
            "midi": 72,
            "name": "C5",
            "ticks": 3456,
            "time": 3.698622,
            "velocity": 0.3937007874015748
          },
          {
            "duration": 0.1027395000000002,
            "durationTicks": 96,
            "midi": 57,
            "name": "A3",
            "ticks": 3456,
            "time": 3.698622,
            "velocity": 0.3937007874015748
          },
          {
            "duration": 0.1027395000000002,
            "durationTicks": 96,
            "midi": 69,
            "name": "A4",
            "ticks": 3456,
            "time": 3.698622,
            "velocity": 0.3937007874015748
          },
          {
            "duration": 0.1027395000000002,
            "durationTicks": 96,
            "midi": 69,
            "name": "A4",
            "ticks": 3456,
            "time": 3.698622,
            "velocity": 0.3937007874015748
          },
          {
            "duration": 0.1027395000000002,
            "durationTicks": 96,
            "midi": 53,
            "name": "F3",
            "ticks": 3648,
            "time": 3.904101,
            "velocity": 0.3937007874015748
          },
          {
            "duration": 0.1027395000000002,
            "durationTicks": 96,
            "midi": 50,
            "name": "D3",
            "ticks": 3648,
            "time": 3.904101,
            "velocity": 0.3937007874015748
          },
          {
            "duration": 0.1027395000000002,
            "durationTicks": 96,
            "midi": 53,
            "name": "F3",
            "ticks": 3648,
            "time": 3.904101,
            "velocity": 0.3937007874015748
          },
          {
            "duration": 0.1027395000000002,
            "durationTicks": 96,
            "midi": 65,
            "name": "F4",
            "ticks": 3648,
            "time": 3.904101,
            "velocity": 0.3937007874015748
          },
          {
            "duration": 0.1027395000000002,
            "durationTicks": 96,
            "midi": 65,
            "name": "F4",
            "ticks": 3648,
            "time": 3.904101,
            "velocity": 0.3937007874015748
          },
          {
            "duration": 0.1027395000000002,
            "durationTicks": 96,
            "midi": 50,
            "name": "D3",
            "ticks": 3648,
            "time": 3.904101,
            "velocity": 0.3937007874015748
          },
          {
            "duration": 0.1027395000000002,
            "durationTicks": 96,
            "midi": 62,
            "name": "D4",
            "ticks": 3648,
            "time": 3.904101,
            "velocity": 0.3937007874015748
          },
          {
            "duration": 0.1027395000000002,
            "durationTicks": 96,
            "midi": 62,
            "name": "D4",
            "ticks": 3648,
            "time": 3.904101,
            "velocity": 0.3937007874015748
          },
          {
            "duration": 0.1027395000000002,
            "durationTicks": 96,
            "midi": 69,
            "name": "A4",
            "ticks": 3744,
            "time": 4.0068405,
            "velocity": 0.3937007874015748
          },
          {
            "duration": 0.1027395000000002,
            "durationTicks": 96,
            "midi": 57,
            "name": "A3",
            "ticks": 3744,
            "time": 4.0068405,
            "velocity": 0.3937007874015748
          },
          {
            "duration": 0.1027395000000002,
            "durationTicks": 96,
            "midi": 72,
            "name": "C5",
            "ticks": 3744,
            "time": 4.0068405,
            "velocity": 0.3937007874015748
          },
          {
            "duration": 0.1027395000000002,
            "durationTicks": 96,
            "midi": 60,
            "name": "C4",
            "ticks": 3744,
            "time": 4.0068405,
            "velocity": 0.3937007874015748
          },
          {
            "duration": 0.1027395000000002,
            "durationTicks": 96,
            "midi": 69,
            "name": "A4",
            "ticks": 3744,
            "time": 4.0068405,
            "velocity": 0.3937007874015748
          },
          {
            "duration": 0.1027395000000002,
            "durationTicks": 96,
            "midi": 60,
            "name": "C4",
            "ticks": 3744,
            "time": 4.0068405,
            "velocity": 0.3937007874015748
          },
          {
            "duration": 0.1027395000000002,
            "durationTicks": 96,
            "midi": 57,
            "name": "A3",
            "ticks": 3744,
            "time": 4.0068405,
            "velocity": 0.3937007874015748
          },
          {
            "duration": 0.1027395000000002,
            "durationTicks": 96,
            "midi": 72,
            "name": "C5",
            "ticks": 3744,
            "time": 4.0068405,
            "velocity": 0.3937007874015748
          },
          {
            "duration": 0.1027395000000002,
            "durationTicks": 96,
            "midi": 69,
            "name": "A4",
            "ticks": 3936,
            "time": 4.2123194999999996,
            "velocity": 0.3937007874015748
          },
          {
            "duration": 0.1027395000000002,
            "durationTicks": 96,
            "midi": 72,
            "name": "C5",
            "ticks": 3936,
            "time": 4.2123194999999996,
            "velocity": 0.3937007874015748
          },
          {
            "duration": 0.1027395000000002,
            "durationTicks": 96,
            "midi": 57,
            "name": "A3",
            "ticks": 3936,
            "time": 4.2123194999999996,
            "velocity": 0.3937007874015748
          },
          {
            "duration": 0.1027395000000002,
            "durationTicks": 96,
            "midi": 72,
            "name": "C5",
            "ticks": 3936,
            "time": 4.2123194999999996,
            "velocity": 0.3937007874015748
          },
          {
            "duration": 0.1027395000000002,
            "durationTicks": 96,
            "midi": 60,
            "name": "C4",
            "ticks": 3936,
            "time": 4.2123194999999996,
            "velocity": 0.3937007874015748
          },
          {
            "duration": 0.1027395000000002,
            "durationTicks": 96,
            "midi": 60,
            "name": "C4",
            "ticks": 3936,
            "time": 4.2123194999999996,
            "velocity": 0.3937007874015748
          },
          {
            "duration": 0.1027395000000002,
            "durationTicks": 96,
            "midi": 69,
            "name": "A4",
            "ticks": 3936,
            "time": 4.2123194999999996,
            "velocity": 0.3937007874015748
          },
          {
            "duration": 0.1027395000000002,
            "durationTicks": 96,
            "midi": 57,
            "name": "A3",
            "ticks": 3936,
            "time": 4.2123194999999996,
            "velocity": 0.3937007874015748
          },
          {
            "duration": 0.1027395000000002,
            "durationTicks": 96,
            "midi": 65,
            "name": "F4",
            "ticks": 4128,
            "time": 4.4177985,
            "velocity": 0.3937007874015748
          },
          {
            "duration": 0.1027395000000002,
            "durationTicks": 96,
            "midi": 50,
            "name": "D3",
            "ticks": 4128,
            "time": 4.4177985,
            "velocity": 0.3937007874015748
          },
          {
            "duration": 0.1027395000000002,
            "durationTicks": 96,
            "midi": 53,
            "name": "F3",
            "ticks": 4128,
            "time": 4.4177985,
            "velocity": 0.3937007874015748
          },
          {
            "duration": 0.1027395000000002,
            "durationTicks": 96,
            "midi": 62,
            "name": "D4",
            "ticks": 4128,
            "time": 4.4177985,
            "velocity": 0.3937007874015748
          },
          {
            "duration": 0.1027395000000002,
            "durationTicks": 96,
            "midi": 50,
            "name": "D3",
            "ticks": 4128,
            "time": 4.4177985,
            "velocity": 0.3937007874015748
          },
          {
            "duration": 0.1027395000000002,
            "durationTicks": 96,
            "midi": 62,
            "name": "D4",
            "ticks": 4128,
            "time": 4.4177985,
            "velocity": 0.3937007874015748
          },
          {
            "duration": 0.1027395000000002,
            "durationTicks": 96,
            "midi": 65,
            "name": "F4",
            "ticks": 4128,
            "time": 4.4177985,
            "velocity": 0.3937007874015748
          },
          {
            "duration": 0.1027395000000002,
            "durationTicks": 96,
            "midi": 53,
            "name": "F3",
            "ticks": 4128,
            "time": 4.4177985,
            "velocity": 0.3937007874015748
          },
          {
            "duration": 0.10273949999999932,
            "durationTicks": 96,
            "midi": 69,
            "name": "A4",
            "ticks": 4224,
            "time": 4.520538,
            "velocity": 0.3937007874015748
          },
          {
            "duration": 0.10273949999999932,
            "durationTicks": 96,
            "midi": 72,
            "name": "C5",
            "ticks": 4224,
            "time": 4.520538,
            "velocity": 0.3937007874015748
          },
          {
            "duration": 0.10273949999999932,
            "durationTicks": 96,
            "midi": 69,
            "name": "A4",
            "ticks": 4224,
            "time": 4.520538,
            "velocity": 0.3937007874015748
          },
          {
            "duration": 0.10273949999999932,
            "durationTicks": 96,
            "midi": 57,
            "name": "A3",
            "ticks": 4224,
            "time": 4.520538,
            "velocity": 0.3937007874015748
          },
          {
            "duration": 0.10273949999999932,
            "durationTicks": 96,
            "midi": 60,
            "name": "C4",
            "ticks": 4224,
            "time": 4.520538,
            "velocity": 0.3937007874015748
          },
          {
            "duration": 0.10273949999999932,
            "durationTicks": 96,
            "midi": 60,
            "name": "C4",
            "ticks": 4224,
            "time": 4.520538,
            "velocity": 0.3937007874015748
          },
          {
            "duration": 0.10273949999999932,
            "durationTicks": 96,
            "midi": 72,
            "name": "C5",
            "ticks": 4224,
            "time": 4.520538,
            "velocity": 0.3937007874015748
          },
          {
            "duration": 0.10273949999999932,
            "durationTicks": 96,
            "midi": 57,
            "name": "A3",
            "ticks": 4224,
            "time": 4.520538,
            "velocity": 0.3937007874015748
          },
          {
            "duration": 0.1027395000000002,
            "durationTicks": 96,
            "midi": 53,
            "name": "F3",
            "ticks": 4320,
            "time": 4.6232774999999995,
            "velocity": 0.3937007874015748
          },
          {
            "duration": 0.1027395000000002,
            "durationTicks": 96,
            "midi": 65,
            "name": "F4",
            "ticks": 4320,
            "time": 4.6232774999999995,
            "velocity": 0.3937007874015748
          },
          {
            "duration": 0.1027395000000002,
            "durationTicks": 96,
            "midi": 53,
            "name": "F3",
            "ticks": 4320,
            "time": 4.6232774999999995,
            "velocity": 0.3937007874015748
          },
          {
            "duration": 0.1027395000000002,
            "durationTicks": 96,
            "midi": 50,
            "name": "D3",
            "ticks": 4320,
            "time": 4.6232774999999995,
            "velocity": 0.3937007874015748
          },
          {
            "duration": 0.1027395000000002,
            "durationTicks": 96,
            "midi": 62,
            "name": "D4",
            "ticks": 4320,
            "time": 4.6232774999999995,
            "velocity": 0.3937007874015748
          },
          {
            "duration": 0.1027395000000002,
            "durationTicks": 96,
            "midi": 62,
            "name": "D4",
            "ticks": 4320,
            "time": 4.6232774999999995,
            "velocity": 0.3937007874015748
          },
          {
            "duration": 0.1027395000000002,
            "durationTicks": 96,
            "midi": 50,
            "name": "D3",
            "ticks": 4320,
            "time": 4.6232774999999995,
            "velocity": 0.3937007874015748
          },
          {
            "duration": 0.1027395000000002,
            "durationTicks": 96,
            "midi": 65,
            "name": "F4",
            "ticks": 4320,
            "time": 4.6232774999999995,
            "velocity": 0.3937007874015748
          },
          {
            "duration": 0.1027395000000002,
            "durationTicks": 96,
            "midi": 69,
            "name": "A4",
            "ticks": 4416,
            "time": 4.726017,
            "velocity": 0.3937007874015748
          },
          {
            "duration": 0.1027395000000002,
            "durationTicks": 96,
            "midi": 72,
            "name": "C5",
            "ticks": 4416,
            "time": 4.726017,
            "velocity": 0.3937007874015748
          },
          {
            "duration": 0.1027395000000002,
            "durationTicks": 96,
            "midi": 57,
            "name": "A3",
            "ticks": 4416,
            "time": 4.726017,
            "velocity": 0.3937007874015748
          },
          {
            "duration": 0.1027395000000002,
            "durationTicks": 96,
            "midi": 57,
            "name": "A3",
            "ticks": 4416,
            "time": 4.726017,
            "velocity": 0.3937007874015748
          },
          {
            "duration": 0.1027395000000002,
            "durationTicks": 96,
            "midi": 72,
            "name": "C5",
            "ticks": 4416,
            "time": 4.726017,
            "velocity": 0.3937007874015748
          },
          {
            "duration": 0.1027395000000002,
            "durationTicks": 96,
            "midi": 60,
            "name": "C4",
            "ticks": 4416,
            "time": 4.726017,
            "velocity": 0.3937007874015748
          },
          {
            "duration": 0.1027395000000002,
            "durationTicks": 96,
            "midi": 69,
            "name": "A4",
            "ticks": 4416,
            "time": 4.726017,
            "velocity": 0.3937007874015748
          },
          {
            "duration": 0.1027395000000002,
            "durationTicks": 96,
            "midi": 60,
            "name": "C4",
            "ticks": 4416,
            "time": 4.726017,
            "velocity": 0.3937007874015748
          },
          {
            "duration": 0.1027395000000002,
            "durationTicks": 96,
            "midi": 59,
            "name": "B3",
            "ticks": 4608,
            "time": 4.931496,
            "velocity": 0.3937007874015748
          },
          {
            "duration": 0.1027395000000002,
            "durationTicks": 96,
            "midi": 67,
            "name": "G4",
            "ticks": 4608,
            "time": 4.931496,
            "velocity": 0.3937007874015748
          },
          {
            "duration": 0.1027395000000002,
            "durationTicks": 96,
            "midi": 71,
            "name": "B4",
            "ticks": 4608,
            "time": 4.931496,
            "velocity": 0.3937007874015748
          },
          {
            "duration": 0.1027395000000002,
            "durationTicks": 96,
            "midi": 71,
            "name": "B4",
            "ticks": 4608,
            "time": 4.931496,
            "velocity": 0.3937007874015748
          },
          {
            "duration": 0.1027395000000002,
            "durationTicks": 96,
            "midi": 67,
            "name": "G4",
            "ticks": 4608,
            "time": 4.931496,
            "velocity": 0.3937007874015748
          },
          {
            "duration": 0.1027395000000002,
            "durationTicks": 96,
            "midi": 55,
            "name": "G3",
            "ticks": 4608,
            "time": 4.931496,
            "velocity": 0.3937007874015748
          },
          {
            "duration": 0.1027395000000002,
            "durationTicks": 96,
            "midi": 59,
            "name": "B3",
            "ticks": 4608,
            "time": 4.931496,
            "velocity": 0.3937007874015748
          },
          {
            "duration": 0.1027395000000002,
            "durationTicks": 96,
            "midi": 55,
            "name": "G3",
            "ticks": 4608,
            "time": 4.931496,
            "velocity": 0.3937007874015748
          },
          {
            "duration": 0.10273949999999932,
            "durationTicks": 96,
            "midi": 68,
            "name": "G#4",
            "ticks": 4704,
            "time": 5.0342355,
            "velocity": 0.3937007874015748
          },
          {
            "duration": 0.1027395000000002,
            "durationTicks": 96,
            "midi": 55,
            "name": "G3",
            "ticks": 4800,
            "time": 5.136975,
            "velocity": 0.3937007874015748
          },
          {
            "duration": 0.1027395000000002,
            "durationTicks": 96,
            "midi": 59,
            "name": "B3",
            "ticks": 4800,
            "time": 5.136975,
            "velocity": 0.3937007874015748
          },
          {
            "duration": 0.1027395000000002,
            "durationTicks": 96,
            "midi": 59,
            "name": "B3",
            "ticks": 4800,
            "time": 5.136975,
            "velocity": 0.3937007874015748
          },
          {
            "duration": 0.1027395000000002,
            "durationTicks": 96,
            "midi": 67,
            "name": "G4",
            "ticks": 4800,
            "time": 5.136975,
            "velocity": 0.3937007874015748
          },
          {
            "duration": 0.1027395000000002,
            "durationTicks": 96,
            "midi": 55,
            "name": "G3",
            "ticks": 4800,
            "time": 5.136975,
            "velocity": 0.3937007874015748
          },
          {
            "duration": 0.1027395000000002,
            "durationTicks": 96,
            "midi": 71,
            "name": "B4",
            "ticks": 4800,
            "time": 5.136975,
            "velocity": 0.3937007874015748
          },
          {
            "duration": 0.1027395000000002,
            "durationTicks": 96,
            "midi": 71,
            "name": "B4",
            "ticks": 4800,
            "time": 5.136975,
            "velocity": 0.3937007874015748
          },
          {
            "duration": 0.1027395000000002,
            "durationTicks": 96,
            "midi": 67,
            "name": "G4",
            "ticks": 4800,
            "time": 5.136975,
            "velocity": 0.3937007874015748
          },
          {
            "duration": 0.1027395000000002,
            "durationTicks": 96,
            "midi": 59,
            "name": "B3",
            "ticks": 4992,
            "time": 5.342454,
            "velocity": 0.3937007874015748
          },
          {
            "duration": 0.1027395000000002,
            "durationTicks": 96,
            "midi": 71,
            "name": "B4",
            "ticks": 4992,
            "time": 5.342454,
            "velocity": 0.3937007874015748
          },
          {
            "duration": 0.1027395000000002,
            "durationTicks": 96,
            "midi": 59,
            "name": "B3",
            "ticks": 4992,
            "time": 5.342454,
            "velocity": 0.3937007874015748
          },
          {
            "duration": 0.1027395000000002,
            "durationTicks": 96,
            "midi": 55,
            "name": "G3",
            "ticks": 4992,
            "time": 5.342454,
            "velocity": 0.3937007874015748
          },
          {
            "duration": 0.1027395000000002,
            "durationTicks": 96,
            "midi": 55,
            "name": "G3",
            "ticks": 4992,
            "time": 5.342454,
            "velocity": 0.3937007874015748
          },
          {
            "duration": 0.1027395000000002,
            "durationTicks": 96,
            "midi": 71,
            "name": "B4",
            "ticks": 4992,
            "time": 5.342454,
            "velocity": 0.3937007874015748
          },
          {
            "duration": 0.1027395000000002,
            "durationTicks": 96,
            "midi": 67,
            "name": "G4",
            "ticks": 4992,
            "time": 5.342454,
            "velocity": 0.3937007874015748
          },
          {
            "duration": 0.1027395000000002,
            "durationTicks": 96,
            "midi": 67,
            "name": "G4",
            "ticks": 4992,
            "time": 5.342454,
            "velocity": 0.3937007874015748
          },
          {
            "duration": 0.1027395000000002,
            "durationTicks": 96,
            "midi": 64,
            "name": "E4",
            "ticks": 5184,
            "time": 5.547933,
            "velocity": 0.3937007874015748
          },
          {
            "duration": 0.1027395000000002,
            "durationTicks": 96,
            "midi": 48,
            "name": "C3",
            "ticks": 5184,
            "time": 5.547933,
            "velocity": 0.3937007874015748
          },
          {
            "duration": 0.1027395000000002,
            "durationTicks": 96,
            "midi": 52,
            "name": "E3",
            "ticks": 5184,
            "time": 5.547933,
            "velocity": 0.3937007874015748
          },
          {
            "duration": 0.1027395000000002,
            "durationTicks": 96,
            "midi": 64,
            "name": "E4",
            "ticks": 5184,
            "time": 5.547933,
            "velocity": 0.3937007874015748
          },
          {
            "duration": 0.1027395000000002,
            "durationTicks": 96,
            "midi": 48,
            "name": "C3",
            "ticks": 5184,
            "time": 5.547933,
            "velocity": 0.3937007874015748
          },
          {
            "duration": 0.1027395000000002,
            "durationTicks": 96,
            "midi": 52,
            "name": "E3",
            "ticks": 5184,
            "time": 5.547933,
            "velocity": 0.3937007874015748
          },
          {
            "duration": 0.1027395000000002,
            "durationTicks": 96,
            "midi": 60,
            "name": "C4",
            "ticks": 5184,
            "time": 5.547933,
            "velocity": 0.3937007874015748
          },
          {
            "duration": 0.1027395000000002,
            "durationTicks": 96,
            "midi": 60,
            "name": "C4",
            "ticks": 5184,
            "time": 5.547933,
            "velocity": 0.3937007874015748
          },
          {
            "duration": 0.1027395000000002,
            "durationTicks": 96,
            "midi": 55,
            "name": "G3",
            "ticks": 5280,
            "time": 5.6506725,
            "velocity": 0.3937007874015748
          },
          {
            "duration": 0.1027395000000002,
            "durationTicks": 96,
            "midi": 71,
            "name": "B4",
            "ticks": 5280,
            "time": 5.6506725,
            "velocity": 0.3937007874015748
          },
          {
            "duration": 0.1027395000000002,
            "durationTicks": 96,
            "midi": 59,
            "name": "B3",
            "ticks": 5280,
            "time": 5.6506725,
            "velocity": 0.3937007874015748
          },
          {
            "duration": 0.1027395000000002,
            "durationTicks": 96,
            "midi": 55,
            "name": "G3",
            "ticks": 5280,
            "time": 5.6506725,
            "velocity": 0.3937007874015748
          },
          {
            "duration": 0.1027395000000002,
            "durationTicks": 96,
            "midi": 59,
            "name": "B3",
            "ticks": 5280,
            "time": 5.6506725,
            "velocity": 0.3937007874015748
          },
          {
            "duration": 0.1027395000000002,
            "durationTicks": 96,
            "midi": 71,
            "name": "B4",
            "ticks": 5280,
            "time": 5.6506725,
            "velocity": 0.3937007874015748
          },
          {
            "duration": 0.1027395000000002,
            "durationTicks": 96,
            "midi": 67,
            "name": "G4",
            "ticks": 5280,
            "time": 5.6506725,
            "velocity": 0.3937007874015748
          },
          {
            "duration": 0.1027395000000002,
            "durationTicks": 96,
            "midi": 67,
            "name": "G4",
            "ticks": 5280,
            "time": 5.6506725,
            "velocity": 0.3937007874015748
          },
          {
            "duration": 0.10273949999999932,
            "durationTicks": 96,
            "midi": 67,
            "name": "G4",
            "ticks": 5472,
            "time": 5.8561515,
            "velocity": 0.3937007874015748
          },
          {
            "duration": 0.10273949999999932,
            "durationTicks": 96,
            "midi": 55,
            "name": "G3",
            "ticks": 5472,
            "time": 5.8561515,
            "velocity": 0.3937007874015748
          },
          {
            "duration": 0.10273949999999932,
            "durationTicks": 96,
            "midi": 71,
            "name": "B4",
            "ticks": 5472,
            "time": 5.8561515,
            "velocity": 0.3937007874015748
          },
          {
            "duration": 0.10273949999999932,
            "durationTicks": 96,
            "midi": 55,
            "name": "G3",
            "ticks": 5472,
            "time": 5.8561515,
            "velocity": 0.3937007874015748
          },
          {
            "duration": 0.10273949999999932,
            "durationTicks": 96,
            "midi": 59,
            "name": "B3",
            "ticks": 5472,
            "time": 5.8561515,
            "velocity": 0.3937007874015748
          },
          {
            "duration": 0.10273949999999932,
            "durationTicks": 96,
            "midi": 59,
            "name": "B3",
            "ticks": 5472,
            "time": 5.8561515,
            "velocity": 0.3937007874015748
          },
          {
            "duration": 0.10273949999999932,
            "durationTicks": 96,
            "midi": 67,
            "name": "G4",
            "ticks": 5472,
            "time": 5.8561515,
            "velocity": 0.3937007874015748
          },
          {
            "duration": 0.10273949999999932,
            "durationTicks": 96,
            "midi": 71,
            "name": "B4",
            "ticks": 5472,
            "time": 5.8561515,
            "velocity": 0.3937007874015748
          },
          {
            "duration": 0.1027395000000002,
            "durationTicks": 96,
            "midi": 64,
            "name": "E4",
            "ticks": 5664,
            "time": 6.0616305,
            "velocity": 0.3937007874015748
          },
          {
            "duration": 0.1027395000000002,
            "durationTicks": 96,
            "midi": 52,
            "name": "E3",
            "ticks": 5664,
            "time": 6.0616305,
            "velocity": 0.3937007874015748
          },
          {
            "duration": 0.1027395000000002,
            "durationTicks": 96,
            "midi": 48,
            "name": "C3",
            "ticks": 5664,
            "time": 6.0616305,
            "velocity": 0.3937007874015748
          },
          {
            "duration": 0.1027395000000002,
            "durationTicks": 96,
            "midi": 48,
            "name": "C3",
            "ticks": 5664,
            "time": 6.0616305,
            "velocity": 0.3937007874015748
          },
          {
            "duration": 0.1027395000000002,
            "durationTicks": 96,
            "midi": 64,
            "name": "E4",
            "ticks": 5664,
            "time": 6.0616305,
            "velocity": 0.3937007874015748
          },
          {
            "duration": 0.1027395000000002,
            "durationTicks": 96,
            "midi": 52,
            "name": "E3",
            "ticks": 5664,
            "time": 6.0616305,
            "velocity": 0.3937007874015748
          },
          {
            "duration": 0.1027395000000002,
            "durationTicks": 96,
            "midi": 60,
            "name": "C4",
            "ticks": 5664,
            "time": 6.0616305,
            "velocity": 0.3937007874015748
          },
          {
            "duration": 0.1027395000000002,
            "durationTicks": 96,
            "midi": 60,
            "name": "C4",
            "ticks": 5664,
            "time": 6.0616305,
            "velocity": 0.3937007874015748
          },
          {
            "duration": 0.1027395000000002,
            "durationTicks": 96,
            "midi": 67,
            "name": "G4",
            "ticks": 5760,
            "time": 6.16437,
            "velocity": 0.3937007874015748
          },
          {
            "duration": 0.1027395000000002,
            "durationTicks": 96,
            "midi": 71,
            "name": "B4",
            "ticks": 5760,
            "time": 6.16437,
            "velocity": 0.3937007874015748
          },
          {
            "duration": 0.1027395000000002,
            "durationTicks": 96,
            "midi": 59,
            "name": "B3",
            "ticks": 5760,
            "time": 6.16437,
            "velocity": 0.3937007874015748
          },
          {
            "duration": 0.1027395000000002,
            "durationTicks": 96,
            "midi": 71,
            "name": "B4",
            "ticks": 5760,
            "time": 6.16437,
            "velocity": 0.3937007874015748
          },
          {
            "duration": 0.1027395000000002,
            "durationTicks": 96,
            "midi": 67,
            "name": "G4",
            "ticks": 5760,
            "time": 6.16437,
            "velocity": 0.3937007874015748
          },
          {
            "duration": 0.1027395000000002,
            "durationTicks": 96,
            "midi": 55,
            "name": "G3",
            "ticks": 5760,
            "time": 6.16437,
            "velocity": 0.3937007874015748
          },
          {
            "duration": 0.1027395000000002,
            "durationTicks": 96,
            "midi": 59,
            "name": "B3",
            "ticks": 5760,
            "time": 6.16437,
            "velocity": 0.3937007874015748
          },
          {
            "duration": 0.1027395000000002,
            "durationTicks": 96,
            "midi": 55,
            "name": "G3",
            "ticks": 5760,
            "time": 6.16437,
            "velocity": 0.3937007874015748
          },
          {
            "duration": 0.10273949999999932,
            "durationTicks": 96,
            "midi": 48,
            "name": "C3",
            "ticks": 5856,
            "time": 6.2671095,
            "velocity": 0.3937007874015748
          },
          {
            "duration": 0.10273949999999932,
            "durationTicks": 96,
            "midi": 48,
            "name": "C3",
            "ticks": 5856,
            "time": 6.2671095,
            "velocity": 0.3937007874015748
          },
          {
            "duration": 0.10273949999999932,
            "durationTicks": 96,
            "midi": 64,
            "name": "E4",
            "ticks": 5856,
            "time": 6.2671095,
            "velocity": 0.3937007874015748
          },
          {
            "duration": 0.10273949999999932,
            "durationTicks": 96,
            "midi": 52,
            "name": "E3",
            "ticks": 5856,
            "time": 6.2671095,
            "velocity": 0.3937007874015748
          },
          {
            "duration": 0.10273949999999932,
            "durationTicks": 96,
            "midi": 52,
            "name": "E3",
            "ticks": 5856,
            "time": 6.2671095,
            "velocity": 0.3937007874015748
          },
          {
            "duration": 0.10273949999999932,
            "durationTicks": 96,
            "midi": 60,
            "name": "C4",
            "ticks": 5856,
            "time": 6.2671095,
            "velocity": 0.3937007874015748
          },
          {
            "duration": 0.10273949999999932,
            "durationTicks": 96,
            "midi": 60,
            "name": "C4",
            "ticks": 5856,
            "time": 6.2671095,
            "velocity": 0.3937007874015748
          },
          {
            "duration": 0.10273949999999932,
            "durationTicks": 96,
            "midi": 64,
            "name": "E4",
            "ticks": 5856,
            "time": 6.2671095,
            "velocity": 0.3937007874015748
          },
          {
            "duration": 0.1027395000000002,
            "durationTicks": 96,
            "midi": 67,
            "name": "G4",
            "ticks": 5952,
            "time": 6.369848999999999,
            "velocity": 0.3937007874015748
          },
          {
            "duration": 0.1027395000000002,
            "durationTicks": 96,
            "midi": 55,
            "name": "G3",
            "ticks": 5952,
            "time": 6.369848999999999,
            "velocity": 0.3937007874015748
          },
          {
            "duration": 0.1027395000000002,
            "durationTicks": 96,
            "midi": 67,
            "name": "G4",
            "ticks": 5952,
            "time": 6.369848999999999,
            "velocity": 0.3937007874015748
          },
          {
            "duration": 0.1027395000000002,
            "durationTicks": 96,
            "midi": 71,
            "name": "B4",
            "ticks": 5952,
            "time": 6.369848999999999,
            "velocity": 0.3937007874015748
          },
          {
            "duration": 0.1027395000000002,
            "durationTicks": 96,
            "midi": 59,
            "name": "B3",
            "ticks": 5952,
            "time": 6.369848999999999,
            "velocity": 0.3937007874015748
          },
          {
            "duration": 0.1027395000000002,
            "durationTicks": 96,
            "midi": 71,
            "name": "B4",
            "ticks": 5952,
            "time": 6.369848999999999,
            "velocity": 0.3937007874015748
          },
          {
            "duration": 0.1027395000000002,
            "durationTicks": 96,
            "midi": 55,
            "name": "G3",
            "ticks": 5952,
            "time": 6.369848999999999,
            "velocity": 0.3937007874015748
          },
          {
            "duration": 0.1027395000000002,
            "durationTicks": 96,
            "midi": 59,
            "name": "B3",
            "ticks": 5952,
            "time": 6.369848999999999,
            "velocity": 0.3937007874015748
          },
          {
            "duration": 0.1027395000000002,
            "durationTicks": 96,
            "midi": 60,
            "name": "C4",
            "ticks": 6144,
            "time": 6.575328,
            "velocity": 0.3937007874015748
          },
          {
            "duration": 0.1027395000000002,
            "durationTicks": 96,
            "midi": 72,
            "name": "C5",
            "ticks": 6144,
            "time": 6.575328,
            "velocity": 0.3937007874015748
          },
          {
            "duration": 0.1027395000000002,
            "durationTicks": 96,
            "midi": 60,
            "name": "C4",
            "ticks": 6144,
            "time": 6.575328,
            "velocity": 0.3937007874015748
          },
          {
            "duration": 0.1027395000000002,
            "durationTicks": 96,
            "midi": 69,
            "name": "A4",
            "ticks": 6144,
            "time": 6.575328,
            "velocity": 0.3937007874015748
          },
          {
            "duration": 0.1027395000000002,
            "durationTicks": 96,
            "midi": 72,
            "name": "C5",
            "ticks": 6144,
            "time": 6.575328,
            "velocity": 0.3937007874015748
          },
          {
            "duration": 0.1027395000000002,
            "durationTicks": 96,
            "midi": 57,
            "name": "A3",
            "ticks": 6144,
            "time": 6.575328,
            "velocity": 0.3937007874015748
          },
          {
            "duration": 0.1027395000000002,
            "durationTicks": 96,
            "midi": 57,
            "name": "A3",
            "ticks": 6144,
            "time": 6.575328,
            "velocity": 0.3937007874015748
          },
          {
            "duration": 0.1027395000000002,
            "durationTicks": 96,
            "midi": 69,
            "name": "A4",
            "ticks": 6144,
            "time": 6.575328,
            "velocity": 0.3937007874015748
          },
          {
            "duration": 0.10273949999999932,
            "durationTicks": 96,
            "midi": 72,
            "name": "C5",
            "ticks": 6336,
            "time": 6.780807,
            "velocity": 0.3937007874015748
          },
          {
            "duration": 0.10273949999999932,
            "durationTicks": 96,
            "midi": 60,
            "name": "C4",
            "ticks": 6336,
            "time": 6.780807,
            "velocity": 0.3937007874015748
          },
          {
            "duration": 0.10273949999999932,
            "durationTicks": 96,
            "midi": 69,
            "name": "A4",
            "ticks": 6336,
            "time": 6.780807,
            "velocity": 0.3937007874015748
          },
          {
            "duration": 0.10273949999999932,
            "durationTicks": 96,
            "midi": 72,
            "name": "C5",
            "ticks": 6336,
            "time": 6.780807,
            "velocity": 0.3937007874015748
          },
          {
            "duration": 0.10273949999999932,
            "durationTicks": 96,
            "midi": 69,
            "name": "A4",
            "ticks": 6336,
            "time": 6.780807,
            "velocity": 0.3937007874015748
          },
          {
            "duration": 0.10273949999999932,
            "durationTicks": 96,
            "midi": 60,
            "name": "C4",
            "ticks": 6336,
            "time": 6.780807,
            "velocity": 0.3937007874015748
          },
          {
            "duration": 0.10273949999999932,
            "durationTicks": 96,
            "midi": 57,
            "name": "A3",
            "ticks": 6336,
            "time": 6.780807,
            "velocity": 0.3937007874015748
          },
          {
            "duration": 0.10273949999999932,
            "durationTicks": 96,
            "midi": 57,
            "name": "A3",
            "ticks": 6336,
            "time": 6.780807,
            "velocity": 0.3937007874015748
          },
          {
            "duration": 0.1027395000000002,
            "durationTicks": 96,
            "midi": 60,
            "name": "C4",
            "ticks": 6528,
            "time": 6.986286,
            "velocity": 0.3937007874015748
          },
          {
            "duration": 0.1027395000000002,
            "durationTicks": 96,
            "midi": 72,
            "name": "C5",
            "ticks": 6528,
            "time": 6.986286,
            "velocity": 0.3937007874015748
          },
          {
            "duration": 0.1027395000000002,
            "durationTicks": 96,
            "midi": 57,
            "name": "A3",
            "ticks": 6528,
            "time": 6.986286,
            "velocity": 0.3937007874015748
          },
          {
            "duration": 0.1027395000000002,
            "durationTicks": 96,
            "midi": 60,
            "name": "C4",
            "ticks": 6528,
            "time": 6.986286,
            "velocity": 0.3937007874015748
          },
          {
            "duration": 0.1027395000000002,
            "durationTicks": 96,
            "midi": 72,
            "name": "C5",
            "ticks": 6528,
            "time": 6.986286,
            "velocity": 0.3937007874015748
          },
          {
            "duration": 0.1027395000000002,
            "durationTicks": 96,
            "midi": 57,
            "name": "A3",
            "ticks": 6528,
            "time": 6.986286,
            "velocity": 0.3937007874015748
          },
          {
            "duration": 0.1027395000000002,
            "durationTicks": 96,
            "midi": 69,
            "name": "A4",
            "ticks": 6528,
            "time": 6.986286,
            "velocity": 0.3937007874015748
          },
          {
            "duration": 0.1027395000000002,
            "durationTicks": 96,
            "midi": 69,
            "name": "A4",
            "ticks": 6528,
            "time": 6.986286,
            "velocity": 0.3937007874015748
          },
          {
            "duration": 0.10273949999999932,
            "durationTicks": 96,
            "midi": 53,
            "name": "F3",
            "ticks": 6720,
            "time": 7.191765,
            "velocity": 0.3937007874015748
          },
          {
            "duration": 0.10273949999999932,
            "durationTicks": 96,
            "midi": 50,
            "name": "D3",
            "ticks": 6720,
            "time": 7.191765,
            "velocity": 0.3937007874015748
          },
          {
            "duration": 0.10273949999999932,
            "durationTicks": 96,
            "midi": 53,
            "name": "F3",
            "ticks": 6720,
            "time": 7.191765,
            "velocity": 0.3937007874015748
          },
          {
            "duration": 0.10273949999999932,
            "durationTicks": 96,
            "midi": 65,
            "name": "F4",
            "ticks": 6720,
            "time": 7.191765,
            "velocity": 0.3937007874015748
          },
          {
            "duration": 0.10273949999999932,
            "durationTicks": 96,
            "midi": 65,
            "name": "F4",
            "ticks": 6720,
            "time": 7.191765,
            "velocity": 0.3937007874015748
          },
          {
            "duration": 0.10273949999999932,
            "durationTicks": 96,
            "midi": 50,
            "name": "D3",
            "ticks": 6720,
            "time": 7.191765,
            "velocity": 0.3937007874015748
          },
          {
            "duration": 0.10273949999999932,
            "durationTicks": 96,
            "midi": 62,
            "name": "D4",
            "ticks": 6720,
            "time": 7.191765,
            "velocity": 0.3937007874015748
          },
          {
            "duration": 0.10273949999999932,
            "durationTicks": 96,
            "midi": 62,
            "name": "D4",
            "ticks": 6720,
            "time": 7.191765,
            "velocity": 0.3937007874015748
          },
          {
            "duration": 0.1027395000000002,
            "durationTicks": 96,
            "midi": 69,
            "name": "A4",
            "ticks": 6816,
            "time": 7.2945044999999995,
            "velocity": 0.3937007874015748
          },
          {
            "duration": 0.1027395000000002,
            "durationTicks": 96,
            "midi": 57,
            "name": "A3",
            "ticks": 6816,
            "time": 7.2945044999999995,
            "velocity": 0.3937007874015748
          },
          {
            "duration": 0.1027395000000002,
            "durationTicks": 96,
            "midi": 72,
            "name": "C5",
            "ticks": 6816,
            "time": 7.2945044999999995,
            "velocity": 0.3937007874015748
          },
          {
            "duration": 0.1027395000000002,
            "durationTicks": 96,
            "midi": 60,
            "name": "C4",
            "ticks": 6816,
            "time": 7.2945044999999995,
            "velocity": 0.3937007874015748
          },
          {
            "duration": 0.1027395000000002,
            "durationTicks": 96,
            "midi": 69,
            "name": "A4",
            "ticks": 6816,
            "time": 7.2945044999999995,
            "velocity": 0.3937007874015748
          },
          {
            "duration": 0.1027395000000002,
            "durationTicks": 96,
            "midi": 60,
            "name": "C4",
            "ticks": 6816,
            "time": 7.2945044999999995,
            "velocity": 0.3937007874015748
          },
          {
            "duration": 0.1027395000000002,
            "durationTicks": 96,
            "midi": 57,
            "name": "A3",
            "ticks": 6816,
            "time": 7.2945044999999995,
            "velocity": 0.3937007874015748
          },
          {
            "duration": 0.1027395000000002,
            "durationTicks": 96,
            "midi": 72,
            "name": "C5",
            "ticks": 6816,
            "time": 7.2945044999999995,
            "velocity": 0.3937007874015748
          },
          {
            "duration": 0.1027395000000002,
            "durationTicks": 96,
            "midi": 69,
            "name": "A4",
            "ticks": 7008,
            "time": 7.4999835,
            "velocity": 0.3937007874015748
          },
          {
            "duration": 0.1027395000000002,
            "durationTicks": 96,
            "midi": 72,
            "name": "C5",
            "ticks": 7008,
            "time": 7.4999835,
            "velocity": 0.3937007874015748
          },
          {
            "duration": 0.1027395000000002,
            "durationTicks": 96,
            "midi": 57,
            "name": "A3",
            "ticks": 7008,
            "time": 7.4999835,
            "velocity": 0.3937007874015748
          },
          {
            "duration": 0.1027395000000002,
            "durationTicks": 96,
            "midi": 72,
            "name": "C5",
            "ticks": 7008,
            "time": 7.4999835,
            "velocity": 0.3937007874015748
          },
          {
            "duration": 0.1027395000000002,
            "durationTicks": 96,
            "midi": 60,
            "name": "C4",
            "ticks": 7008,
            "time": 7.4999835,
            "velocity": 0.3937007874015748
          },
          {
            "duration": 0.1027395000000002,
            "durationTicks": 96,
            "midi": 60,
            "name": "C4",
            "ticks": 7008,
            "time": 7.4999835,
            "velocity": 0.3937007874015748
          },
          {
            "duration": 0.1027395000000002,
            "durationTicks": 96,
            "midi": 69,
            "name": "A4",
            "ticks": 7008,
            "time": 7.4999835,
            "velocity": 0.3937007874015748
          },
          {
            "duration": 0.1027395000000002,
            "durationTicks": 96,
            "midi": 57,
            "name": "A3",
            "ticks": 7008,
            "time": 7.4999835,
            "velocity": 0.3937007874015748
          },
          {
            "duration": 0.1027395000000002,
            "durationTicks": 96,
            "midi": 65,
            "name": "F4",
            "ticks": 7200,
            "time": 7.705462499999999,
            "velocity": 0.3937007874015748
          },
          {
            "duration": 0.1027395000000002,
            "durationTicks": 96,
            "midi": 50,
            "name": "D3",
            "ticks": 7200,
            "time": 7.705462499999999,
            "velocity": 0.3937007874015748
          },
          {
            "duration": 0.1027395000000002,
            "durationTicks": 96,
            "midi": 53,
            "name": "F3",
            "ticks": 7200,
            "time": 7.705462499999999,
            "velocity": 0.3937007874015748
          },
          {
            "duration": 0.1027395000000002,
            "durationTicks": 96,
            "midi": 62,
            "name": "D4",
            "ticks": 7200,
            "time": 7.705462499999999,
            "velocity": 0.3937007874015748
          },
          {
            "duration": 0.1027395000000002,
            "durationTicks": 96,
            "midi": 50,
            "name": "D3",
            "ticks": 7200,
            "time": 7.705462499999999,
            "velocity": 0.3937007874015748
          },
          {
            "duration": 0.1027395000000002,
            "durationTicks": 96,
            "midi": 62,
            "name": "D4",
            "ticks": 7200,
            "time": 7.705462499999999,
            "velocity": 0.3937007874015748
          },
          {
            "duration": 0.1027395000000002,
            "durationTicks": 96,
            "midi": 65,
            "name": "F4",
            "ticks": 7200,
            "time": 7.705462499999999,
            "velocity": 0.3937007874015748
          },
          {
            "duration": 0.1027395000000002,
            "durationTicks": 96,
            "midi": 53,
            "name": "F3",
            "ticks": 7200,
            "time": 7.705462499999999,
            "velocity": 0.3937007874015748
          },
          {
            "duration": 0.1027395000000002,
            "durationTicks": 96,
            "midi": 69,
            "name": "A4",
            "ticks": 7296,
            "time": 7.808202,
            "velocity": 0.3937007874015748
          },
          {
            "duration": 0.1027395000000002,
            "durationTicks": 96,
            "midi": 72,
            "name": "C5",
            "ticks": 7296,
            "time": 7.808202,
            "velocity": 0.3937007874015748
          },
          {
            "duration": 0.1027395000000002,
            "durationTicks": 96,
            "midi": 69,
            "name": "A4",
            "ticks": 7296,
            "time": 7.808202,
            "velocity": 0.3937007874015748
          },
          {
            "duration": 0.1027395000000002,
            "durationTicks": 96,
            "midi": 57,
            "name": "A3",
            "ticks": 7296,
            "time": 7.808202,
            "velocity": 0.3937007874015748
          },
          {
            "duration": 0.1027395000000002,
            "durationTicks": 96,
            "midi": 60,
            "name": "C4",
            "ticks": 7296,
            "time": 7.808202,
            "velocity": 0.3937007874015748
          },
          {
            "duration": 0.1027395000000002,
            "durationTicks": 96,
            "midi": 60,
            "name": "C4",
            "ticks": 7296,
            "time": 7.808202,
            "velocity": 0.3937007874015748
          },
          {
            "duration": 0.1027395000000002,
            "durationTicks": 96,
            "midi": 72,
            "name": "C5",
            "ticks": 7296,
            "time": 7.808202,
            "velocity": 0.3937007874015748
          },
          {
            "duration": 0.1027395000000002,
            "durationTicks": 96,
            "midi": 57,
            "name": "A3",
            "ticks": 7296,
            "time": 7.808202,
            "velocity": 0.3937007874015748
          },
          {
            "duration": 0.1027395000000002,
            "durationTicks": 96,
            "midi": 53,
            "name": "F3",
            "ticks": 7392,
            "time": 7.9109415,
            "velocity": 0.3937007874015748
          },
          {
            "duration": 0.1027395000000002,
            "durationTicks": 96,
            "midi": 65,
            "name": "F4",
            "ticks": 7392,
            "time": 7.9109415,
            "velocity": 0.3937007874015748
          },
          {
            "duration": 0.1027395000000002,
            "durationTicks": 96,
            "midi": 53,
            "name": "F3",
            "ticks": 7392,
            "time": 7.9109415,
            "velocity": 0.3937007874015748
          },
          {
            "duration": 0.1027395000000002,
            "durationTicks": 96,
            "midi": 50,
            "name": "D3",
            "ticks": 7392,
            "time": 7.9109415,
            "velocity": 0.3937007874015748
          },
          {
            "duration": 0.1027395000000002,
            "durationTicks": 96,
            "midi": 62,
            "name": "D4",
            "ticks": 7392,
            "time": 7.9109415,
            "velocity": 0.3937007874015748
          },
          {
            "duration": 0.1027395000000002,
            "durationTicks": 96,
            "midi": 62,
            "name": "D4",
            "ticks": 7392,
            "time": 7.9109415,
            "velocity": 0.3937007874015748
          },
          {
            "duration": 0.1027395000000002,
            "durationTicks": 96,
            "midi": 50,
            "name": "D3",
            "ticks": 7392,
            "time": 7.9109415,
            "velocity": 0.3937007874015748
          },
          {
            "duration": 0.1027395000000002,
            "durationTicks": 96,
            "midi": 65,
            "name": "F4",
            "ticks": 7392,
            "time": 7.9109415,
            "velocity": 0.3937007874015748
          },
          {
            "duration": 0.1027395000000002,
            "durationTicks": 96,
            "midi": 69,
            "name": "A4",
            "ticks": 7488,
            "time": 8.013681,
            "velocity": 0.3937007874015748
          },
          {
            "duration": 0.1027395000000002,
            "durationTicks": 96,
            "midi": 72,
            "name": "C5",
            "ticks": 7488,
            "time": 8.013681,
            "velocity": 0.3937007874015748
          },
          {
            "duration": 0.1027395000000002,
            "durationTicks": 96,
            "midi": 57,
            "name": "A3",
            "ticks": 7488,
            "time": 8.013681,
            "velocity": 0.3937007874015748
          },
          {
            "duration": 0.1027395000000002,
            "durationTicks": 96,
            "midi": 57,
            "name": "A3",
            "ticks": 7488,
            "time": 8.013681,
            "velocity": 0.3937007874015748
          },
          {
            "duration": 0.1027395000000002,
            "durationTicks": 96,
            "midi": 72,
            "name": "C5",
            "ticks": 7488,
            "time": 8.013681,
            "velocity": 0.3937007874015748
          },
          {
            "duration": 0.1027395000000002,
            "durationTicks": 96,
            "midi": 60,
            "name": "C4",
            "ticks": 7488,
            "time": 8.013681,
            "velocity": 0.3937007874015748
          },
          {
            "duration": 0.1027395000000002,
            "durationTicks": 96,
            "midi": 69,
            "name": "A4",
            "ticks": 7488,
            "time": 8.013681,
            "velocity": 0.3937007874015748
          },
          {
            "duration": 0.1027395000000002,
            "durationTicks": 96,
            "midi": 60,
            "name": "C4",
            "ticks": 7488,
            "time": 8.013681,
            "velocity": 0.3937007874015748
          },
          {
            "duration": 0.1027395000000002,
            "durationTicks": 96,
            "midi": 59,
            "name": "B3",
            "ticks": 7680,
            "time": 8.21916,
            "velocity": 0.3937007874015748
          },
          {
            "duration": 0.1027395000000002,
            "durationTicks": 96,
            "midi": 67,
            "name": "G4",
            "ticks": 7680,
            "time": 8.21916,
            "velocity": 0.3937007874015748
          },
          {
            "duration": 0.1027395000000002,
            "durationTicks": 96,
            "midi": 71,
            "name": "B4",
            "ticks": 7680,
            "time": 8.21916,
            "velocity": 0.3937007874015748
          },
          {
            "duration": 0.1027395000000002,
            "durationTicks": 96,
            "midi": 71,
            "name": "B4",
            "ticks": 7680,
            "time": 8.21916,
            "velocity": 0.3937007874015748
          },
          {
            "duration": 0.1027395000000002,
            "durationTicks": 96,
            "midi": 67,
            "name": "G4",
            "ticks": 7680,
            "time": 8.21916,
            "velocity": 0.3937007874015748
          },
          {
            "duration": 0.1027395000000002,
            "durationTicks": 96,
            "midi": 55,
            "name": "G3",
            "ticks": 7680,
            "time": 8.21916,
            "velocity": 0.3937007874015748
          },
          {
            "duration": 0.1027395000000002,
            "durationTicks": 96,
            "midi": 59,
            "name": "B3",
            "ticks": 7680,
            "time": 8.21916,
            "velocity": 0.3937007874015748
          },
          {
            "duration": 0.1027395000000002,
            "durationTicks": 96,
            "midi": 55,
            "name": "G3",
            "ticks": 7680,
            "time": 8.21916,
            "velocity": 0.3937007874015748
          },
          {
            "duration": 0.10273949999999843,
            "durationTicks": 96,
            "midi": 68,
            "name": "G#4",
            "ticks": 7776,
            "time": 8.3218995,
            "velocity": 0.3937007874015748
          },
          {
            "duration": 0.1027395000000002,
            "durationTicks": 96,
            "midi": 55,
            "name": "G3",
            "ticks": 7872,
            "time": 8.424638999999999,
            "velocity": 0.3937007874015748
          },
          {
            "duration": 0.1027395000000002,
            "durationTicks": 96,
            "midi": 59,
            "name": "B3",
            "ticks": 7872,
            "time": 8.424638999999999,
            "velocity": 0.3937007874015748
          },
          {
            "duration": 0.1027395000000002,
            "durationTicks": 96,
            "midi": 59,
            "name": "B3",
            "ticks": 7872,
            "time": 8.424638999999999,
            "velocity": 0.3937007874015748
          },
          {
            "duration": 0.1027395000000002,
            "durationTicks": 96,
            "midi": 67,
            "name": "G4",
            "ticks": 7872,
            "time": 8.424638999999999,
            "velocity": 0.3937007874015748
          },
          {
            "duration": 0.1027395000000002,
            "durationTicks": 96,
            "midi": 55,
            "name": "G3",
            "ticks": 7872,
            "time": 8.424638999999999,
            "velocity": 0.3937007874015748
          },
          {
            "duration": 0.1027395000000002,
            "durationTicks": 96,
            "midi": 71,
            "name": "B4",
            "ticks": 7872,
            "time": 8.424638999999999,
            "velocity": 0.3937007874015748
          },
          {
            "duration": 0.1027395000000002,
            "durationTicks": 96,
            "midi": 71,
            "name": "B4",
            "ticks": 7872,
            "time": 8.424638999999999,
            "velocity": 0.3937007874015748
          },
          {
            "duration": 0.1027395000000002,
            "durationTicks": 96,
            "midi": 67,
            "name": "G4",
            "ticks": 7872,
            "time": 8.424638999999999,
            "velocity": 0.3937007874015748
          },
          {
            "duration": 0.1027395000000002,
            "durationTicks": 96,
            "midi": 59,
            "name": "B3",
            "ticks": 8064,
            "time": 8.630118,
            "velocity": 0.3937007874015748
          },
          {
            "duration": 0.1027395000000002,
            "durationTicks": 96,
            "midi": 71,
            "name": "B4",
            "ticks": 8064,
            "time": 8.630118,
            "velocity": 0.3937007874015748
          },
          {
            "duration": 0.1027395000000002,
            "durationTicks": 96,
            "midi": 59,
            "name": "B3",
            "ticks": 8064,
            "time": 8.630118,
            "velocity": 0.3937007874015748
          },
          {
            "duration": 0.1027395000000002,
            "durationTicks": 96,
            "midi": 55,
            "name": "G3",
            "ticks": 8064,
            "time": 8.630118,
            "velocity": 0.3937007874015748
          },
          {
            "duration": 0.1027395000000002,
            "durationTicks": 96,
            "midi": 55,
            "name": "G3",
            "ticks": 8064,
            "time": 8.630118,
            "velocity": 0.3937007874015748
          },
          {
            "duration": 0.1027395000000002,
            "durationTicks": 96,
            "midi": 71,
            "name": "B4",
            "ticks": 8064,
            "time": 8.630118,
            "velocity": 0.3937007874015748
          },
          {
            "duration": 0.1027395000000002,
            "durationTicks": 96,
            "midi": 67,
            "name": "G4",
            "ticks": 8064,
            "time": 8.630118,
            "velocity": 0.3937007874015748
          },
          {
            "duration": 0.1027395000000002,
            "durationTicks": 96,
            "midi": 67,
            "name": "G4",
            "ticks": 8064,
            "time": 8.630118,
            "velocity": 0.3937007874015748
          },
          {
            "duration": 0.1027395000000002,
            "durationTicks": 96,
            "midi": 64,
            "name": "E4",
            "ticks": 8256,
            "time": 8.835597,
            "velocity": 0.3937007874015748
          },
          {
            "duration": 0.1027395000000002,
            "durationTicks": 96,
            "midi": 48,
            "name": "C3",
            "ticks": 8256,
            "time": 8.835597,
            "velocity": 0.3937007874015748
          },
          {
            "duration": 0.1027395000000002,
            "durationTicks": 96,
            "midi": 52,
            "name": "E3",
            "ticks": 8256,
            "time": 8.835597,
            "velocity": 0.3937007874015748
          },
          {
            "duration": 0.1027395000000002,
            "durationTicks": 96,
            "midi": 64,
            "name": "E4",
            "ticks": 8256,
            "time": 8.835597,
            "velocity": 0.3937007874015748
          },
          {
            "duration": 0.1027395000000002,
            "durationTicks": 96,
            "midi": 48,
            "name": "C3",
            "ticks": 8256,
            "time": 8.835597,
            "velocity": 0.3937007874015748
          },
          {
            "duration": 0.1027395000000002,
            "durationTicks": 96,
            "midi": 52,
            "name": "E3",
            "ticks": 8256,
            "time": 8.835597,
            "velocity": 0.3937007874015748
          },
          {
            "duration": 0.1027395000000002,
            "durationTicks": 96,
            "midi": 60,
            "name": "C4",
            "ticks": 8256,
            "time": 8.835597,
            "velocity": 0.3937007874015748
          },
          {
            "duration": 0.1027395000000002,
            "durationTicks": 96,
            "midi": 60,
            "name": "C4",
            "ticks": 8256,
            "time": 8.835597,
            "velocity": 0.3937007874015748
          },
          {
            "duration": 0.1027395000000002,
            "durationTicks": 96,
            "midi": 55,
            "name": "G3",
            "ticks": 8352,
            "time": 8.9383365,
            "velocity": 0.3937007874015748
          },
          {
            "duration": 0.1027395000000002,
            "durationTicks": 96,
            "midi": 71,
            "name": "B4",
            "ticks": 8352,
            "time": 8.9383365,
            "velocity": 0.3937007874015748
          },
          {
            "duration": 0.1027395000000002,
            "durationTicks": 96,
            "midi": 59,
            "name": "B3",
            "ticks": 8352,
            "time": 8.9383365,
            "velocity": 0.3937007874015748
          },
          {
            "duration": 0.1027395000000002,
            "durationTicks": 96,
            "midi": 55,
            "name": "G3",
            "ticks": 8352,
            "time": 8.9383365,
            "velocity": 0.3937007874015748
          },
          {
            "duration": 0.1027395000000002,
            "durationTicks": 96,
            "midi": 59,
            "name": "B3",
            "ticks": 8352,
            "time": 8.9383365,
            "velocity": 0.3937007874015748
          },
          {
            "duration": 0.1027395000000002,
            "durationTicks": 96,
            "midi": 71,
            "name": "B4",
            "ticks": 8352,
            "time": 8.9383365,
            "velocity": 0.3937007874015748
          },
          {
            "duration": 0.1027395000000002,
            "durationTicks": 96,
            "midi": 67,
            "name": "G4",
            "ticks": 8352,
            "time": 8.9383365,
            "velocity": 0.3937007874015748
          },
          {
            "duration": 0.1027395000000002,
            "durationTicks": 96,
            "midi": 67,
            "name": "G4",
            "ticks": 8352,
            "time": 8.9383365,
            "velocity": 0.3937007874015748
          },
          {
            "duration": 0.10273949999999843,
            "durationTicks": 96,
            "midi": 67,
            "name": "G4",
            "ticks": 8544,
            "time": 9.1438155,
            "velocity": 0.3937007874015748
          },
          {
            "duration": 0.10273949999999843,
            "durationTicks": 96,
            "midi": 55,
            "name": "G3",
            "ticks": 8544,
            "time": 9.1438155,
            "velocity": 0.3937007874015748
          },
          {
            "duration": 0.10273949999999843,
            "durationTicks": 96,
            "midi": 71,
            "name": "B4",
            "ticks": 8544,
            "time": 9.1438155,
            "velocity": 0.3937007874015748
          },
          {
            "duration": 0.10273949999999843,
            "durationTicks": 96,
            "midi": 55,
            "name": "G3",
            "ticks": 8544,
            "time": 9.1438155,
            "velocity": 0.3937007874015748
          },
          {
            "duration": 0.10273949999999843,
            "durationTicks": 96,
            "midi": 59,
            "name": "B3",
            "ticks": 8544,
            "time": 9.1438155,
            "velocity": 0.3937007874015748
          },
          {
            "duration": 0.10273949999999843,
            "durationTicks": 96,
            "midi": 59,
            "name": "B3",
            "ticks": 8544,
            "time": 9.1438155,
            "velocity": 0.3937007874015748
          },
          {
            "duration": 0.10273949999999843,
            "durationTicks": 96,
            "midi": 67,
            "name": "G4",
            "ticks": 8544,
            "time": 9.1438155,
            "velocity": 0.3937007874015748
          },
          {
            "duration": 0.10273949999999843,
            "durationTicks": 96,
            "midi": 71,
            "name": "B4",
            "ticks": 8544,
            "time": 9.1438155,
            "velocity": 0.3937007874015748
          },
          {
            "duration": 0.1027395000000002,
            "durationTicks": 96,
            "midi": 64,
            "name": "E4",
            "ticks": 8736,
            "time": 9.3492945,
            "velocity": 0.3937007874015748
          },
          {
            "duration": 0.1027395000000002,
            "durationTicks": 96,
            "midi": 52,
            "name": "E3",
            "ticks": 8736,
            "time": 9.3492945,
            "velocity": 0.3937007874015748
          },
          {
            "duration": 0.1027395000000002,
            "durationTicks": 96,
            "midi": 48,
            "name": "C3",
            "ticks": 8736,
            "time": 9.3492945,
            "velocity": 0.3937007874015748
          },
          {
            "duration": 0.1027395000000002,
            "durationTicks": 96,
            "midi": 48,
            "name": "C3",
            "ticks": 8736,
            "time": 9.3492945,
            "velocity": 0.3937007874015748
          },
          {
            "duration": 0.1027395000000002,
            "durationTicks": 96,
            "midi": 64,
            "name": "E4",
            "ticks": 8736,
            "time": 9.3492945,
            "velocity": 0.3937007874015748
          },
          {
            "duration": 0.1027395000000002,
            "durationTicks": 96,
            "midi": 52,
            "name": "E3",
            "ticks": 8736,
            "time": 9.3492945,
            "velocity": 0.3937007874015748
          },
          {
            "duration": 0.1027395000000002,
            "durationTicks": 96,
            "midi": 60,
            "name": "C4",
            "ticks": 8736,
            "time": 9.3492945,
            "velocity": 0.3937007874015748
          },
          {
            "duration": 0.1027395000000002,
            "durationTicks": 96,
            "midi": 60,
            "name": "C4",
            "ticks": 8736,
            "time": 9.3492945,
            "velocity": 0.3937007874015748
          },
          {
            "duration": 0.1027395000000002,
            "durationTicks": 96,
            "midi": 67,
            "name": "G4",
            "ticks": 8832,
            "time": 9.452034,
            "velocity": 0.3937007874015748
          },
          {
            "duration": 0.1027395000000002,
            "durationTicks": 96,
            "midi": 71,
            "name": "B4",
            "ticks": 8832,
            "time": 9.452034,
            "velocity": 0.3937007874015748
          },
          {
            "duration": 0.1027395000000002,
            "durationTicks": 96,
            "midi": 59,
            "name": "B3",
            "ticks": 8832,
            "time": 9.452034,
            "velocity": 0.3937007874015748
          },
          {
            "duration": 0.1027395000000002,
            "durationTicks": 96,
            "midi": 71,
            "name": "B4",
            "ticks": 8832,
            "time": 9.452034,
            "velocity": 0.3937007874015748
          },
          {
            "duration": 0.1027395000000002,
            "durationTicks": 96,
            "midi": 67,
            "name": "G4",
            "ticks": 8832,
            "time": 9.452034,
            "velocity": 0.3937007874015748
          },
          {
            "duration": 0.1027395000000002,
            "durationTicks": 96,
            "midi": 55,
            "name": "G3",
            "ticks": 8832,
            "time": 9.452034,
            "velocity": 0.3937007874015748
          },
          {
            "duration": 0.1027395000000002,
            "durationTicks": 96,
            "midi": 59,
            "name": "B3",
            "ticks": 8832,
            "time": 9.452034,
            "velocity": 0.3937007874015748
          },
          {
            "duration": 0.1027395000000002,
            "durationTicks": 96,
            "midi": 55,
            "name": "G3",
            "ticks": 8832,
            "time": 9.452034,
            "velocity": 0.3937007874015748
          },
          {
            "duration": 0.1027395000000002,
            "durationTicks": 96,
            "midi": 48,
            "name": "C3",
            "ticks": 8928,
            "time": 9.5547735,
            "velocity": 0.3937007874015748
          },
          {
            "duration": 0.1027395000000002,
            "durationTicks": 96,
            "midi": 48,
            "name": "C3",
            "ticks": 8928,
            "time": 9.5547735,
            "velocity": 0.3937007874015748
          },
          {
            "duration": 0.1027395000000002,
            "durationTicks": 96,
            "midi": 64,
            "name": "E4",
            "ticks": 8928,
            "time": 9.5547735,
            "velocity": 0.3937007874015748
          },
          {
            "duration": 0.1027395000000002,
            "durationTicks": 96,
            "midi": 52,
            "name": "E3",
            "ticks": 8928,
            "time": 9.5547735,
            "velocity": 0.3937007874015748
          },
          {
            "duration": 0.1027395000000002,
            "durationTicks": 96,
            "midi": 52,
            "name": "E3",
            "ticks": 8928,
            "time": 9.5547735,
            "velocity": 0.3937007874015748
          },
          {
            "duration": 0.1027395000000002,
            "durationTicks": 96,
            "midi": 60,
            "name": "C4",
            "ticks": 8928,
            "time": 9.5547735,
            "velocity": 0.3937007874015748
          },
          {
            "duration": 0.1027395000000002,
            "durationTicks": 96,
            "midi": 60,
            "name": "C4",
            "ticks": 8928,
            "time": 9.5547735,
            "velocity": 0.3937007874015748
          },
          {
            "duration": 0.1027395000000002,
            "durationTicks": 96,
            "midi": 64,
            "name": "E4",
            "ticks": 8928,
            "time": 9.5547735,
            "velocity": 0.3937007874015748
          },
          {
            "duration": 0.1027395000000002,
            "durationTicks": 96,
            "midi": 67,
            "name": "G4",
            "ticks": 9024,
            "time": 9.657513,
            "velocity": 0.3937007874015748
          },
          {
            "duration": 0.1027395000000002,
            "durationTicks": 96,
            "midi": 55,
            "name": "G3",
            "ticks": 9024,
            "time": 9.657513,
            "velocity": 0.3937007874015748
          },
          {
            "duration": 0.1027395000000002,
            "durationTicks": 96,
            "midi": 67,
            "name": "G4",
            "ticks": 9024,
            "time": 9.657513,
            "velocity": 0.3937007874015748
          },
          {
            "duration": 0.1027395000000002,
            "durationTicks": 96,
            "midi": 71,
            "name": "B4",
            "ticks": 9024,
            "time": 9.657513,
            "velocity": 0.3937007874015748
          },
          {
            "duration": 0.1027395000000002,
            "durationTicks": 96,
            "midi": 59,
            "name": "B3",
            "ticks": 9024,
            "time": 9.657513,
            "velocity": 0.3937007874015748
          },
          {
            "duration": 0.1027395000000002,
            "durationTicks": 96,
            "midi": 71,
            "name": "B4",
            "ticks": 9024,
            "time": 9.657513,
            "velocity": 0.3937007874015748
          },
          {
            "duration": 0.1027395000000002,
            "durationTicks": 96,
            "midi": 55,
            "name": "G3",
            "ticks": 9024,
            "time": 9.657513,
            "velocity": 0.3937007874015748
          },
          {
            "duration": 0.1027395000000002,
            "durationTicks": 96,
            "midi": 59,
            "name": "B3",
            "ticks": 9024,
            "time": 9.657513,
            "velocity": 0.3937007874015748
          },
          {
            "duration": 0.1027395000000002,
            "durationTicks": 96,
            "midi": 60,
            "name": "C4",
            "ticks": 9216,
            "time": 9.862992,
            "velocity": 0.3937007874015748
          },
          {
            "duration": 0.1027395000000002,
            "durationTicks": 96,
            "midi": 72,
            "name": "C5",
            "ticks": 9216,
            "time": 9.862992,
            "velocity": 0.3937007874015748
          },
          {
            "duration": 0.1027395000000002,
            "durationTicks": 96,
            "midi": 60,
            "name": "C4",
            "ticks": 9216,
            "time": 9.862992,
            "velocity": 0.3937007874015748
          },
          {
            "duration": 0.1027395000000002,
            "durationTicks": 96,
            "midi": 69,
            "name": "A4",
            "ticks": 9216,
            "time": 9.862992,
            "velocity": 0.3937007874015748
          },
          {
            "duration": 0.1027395000000002,
            "durationTicks": 96,
            "midi": 72,
            "name": "C5",
            "ticks": 9216,
            "time": 9.862992,
            "velocity": 0.3937007874015748
          },
          {
            "duration": 0.1027395000000002,
            "durationTicks": 96,
            "midi": 57,
            "name": "A3",
            "ticks": 9216,
            "time": 9.862992,
            "velocity": 0.3937007874015748
          },
          {
            "duration": 0.1027395000000002,
            "durationTicks": 96,
            "midi": 57,
            "name": "A3",
            "ticks": 9216,
            "time": 9.862992,
            "velocity": 0.3937007874015748
          },
          {
            "duration": 0.1027395000000002,
            "durationTicks": 96,
            "midi": 69,
            "name": "A4",
            "ticks": 9216,
            "time": 9.862992,
            "velocity": 0.3937007874015748
          },
          {
            "duration": 0.10273949999999843,
            "durationTicks": 96,
            "midi": 72,
            "name": "C5",
            "ticks": 9408,
            "time": 10.068471,
            "velocity": 0.3937007874015748
          },
          {
            "duration": 0.10273949999999843,
            "durationTicks": 96,
            "midi": 60,
            "name": "C4",
            "ticks": 9408,
            "time": 10.068471,
            "velocity": 0.3937007874015748
          },
          {
            "duration": 0.10273949999999843,
            "durationTicks": 96,
            "midi": 69,
            "name": "A4",
            "ticks": 9408,
            "time": 10.068471,
            "velocity": 0.3937007874015748
          },
          {
            "duration": 0.10273949999999843,
            "durationTicks": 96,
            "midi": 72,
            "name": "C5",
            "ticks": 9408,
            "time": 10.068471,
            "velocity": 0.3937007874015748
          },
          {
            "duration": 0.10273949999999843,
            "durationTicks": 96,
            "midi": 69,
            "name": "A4",
            "ticks": 9408,
            "time": 10.068471,
            "velocity": 0.3937007874015748
          },
          {
            "duration": 0.10273949999999843,
            "durationTicks": 96,
            "midi": 60,
            "name": "C4",
            "ticks": 9408,
            "time": 10.068471,
            "velocity": 0.3937007874015748
          },
          {
            "duration": 0.10273949999999843,
            "durationTicks": 96,
            "midi": 57,
            "name": "A3",
            "ticks": 9408,
            "time": 10.068471,
            "velocity": 0.3937007874015748
          },
          {
            "duration": 0.10273949999999843,
            "durationTicks": 96,
            "midi": 57,
            "name": "A3",
            "ticks": 9408,
            "time": 10.068471,
            "velocity": 0.3937007874015748
          },
          {
            "duration": 0.1027395000000002,
            "durationTicks": 96,
            "midi": 60,
            "name": "C4",
            "ticks": 9600,
            "time": 10.27395,
            "velocity": 0.3937007874015748
          },
          {
            "duration": 0.1027395000000002,
            "durationTicks": 96,
            "midi": 72,
            "name": "C5",
            "ticks": 9600,
            "time": 10.27395,
            "velocity": 0.3937007874015748
          },
          {
            "duration": 0.1027395000000002,
            "durationTicks": 96,
            "midi": 57,
            "name": "A3",
            "ticks": 9600,
            "time": 10.27395,
            "velocity": 0.3937007874015748
          },
          {
            "duration": 0.1027395000000002,
            "durationTicks": 96,
            "midi": 60,
            "name": "C4",
            "ticks": 9600,
            "time": 10.27395,
            "velocity": 0.3937007874015748
          },
          {
            "duration": 0.1027395000000002,
            "durationTicks": 96,
            "midi": 72,
            "name": "C5",
            "ticks": 9600,
            "time": 10.27395,
            "velocity": 0.3937007874015748
          },
          {
            "duration": 0.1027395000000002,
            "durationTicks": 96,
            "midi": 57,
            "name": "A3",
            "ticks": 9600,
            "time": 10.27395,
            "velocity": 0.3937007874015748
          },
          {
            "duration": 0.1027395000000002,
            "durationTicks": 96,
            "midi": 69,
            "name": "A4",
            "ticks": 9600,
            "time": 10.27395,
            "velocity": 0.3937007874015748
          },
          {
            "duration": 0.1027395000000002,
            "durationTicks": 96,
            "midi": 69,
            "name": "A4",
            "ticks": 9600,
            "time": 10.27395,
            "velocity": 0.3937007874015748
          },
          {
            "duration": 0.1027395000000002,
            "durationTicks": 96,
            "midi": 53,
            "name": "F3",
            "ticks": 9792,
            "time": 10.479429,
            "velocity": 0.3937007874015748
          },
          {
            "duration": 0.1027395000000002,
            "durationTicks": 96,
            "midi": 50,
            "name": "D3",
            "ticks": 9792,
            "time": 10.479429,
            "velocity": 0.3937007874015748
          },
          {
            "duration": 0.1027395000000002,
            "durationTicks": 96,
            "midi": 53,
            "name": "F3",
            "ticks": 9792,
            "time": 10.479429,
            "velocity": 0.3937007874015748
          },
          {
            "duration": 0.1027395000000002,
            "durationTicks": 96,
            "midi": 65,
            "name": "F4",
            "ticks": 9792,
            "time": 10.479429,
            "velocity": 0.3937007874015748
          },
          {
            "duration": 0.1027395000000002,
            "durationTicks": 96,
            "midi": 65,
            "name": "F4",
            "ticks": 9792,
            "time": 10.479429,
            "velocity": 0.3937007874015748
          },
          {
            "duration": 0.1027395000000002,
            "durationTicks": 96,
            "midi": 50,
            "name": "D3",
            "ticks": 9792,
            "time": 10.479429,
            "velocity": 0.3937007874015748
          },
          {
            "duration": 0.1027395000000002,
            "durationTicks": 96,
            "midi": 62,
            "name": "D4",
            "ticks": 9792,
            "time": 10.479429,
            "velocity": 0.3937007874015748
          },
          {
            "duration": 0.1027395000000002,
            "durationTicks": 96,
            "midi": 62,
            "name": "D4",
            "ticks": 9792,
            "time": 10.479429,
            "velocity": 0.3937007874015748
          },
          {
            "duration": 0.1027395000000002,
            "durationTicks": 96,
            "midi": 69,
            "name": "A4",
            "ticks": 9888,
            "time": 10.5821685,
            "velocity": 0.3937007874015748
          },
          {
            "duration": 0.1027395000000002,
            "durationTicks": 96,
            "midi": 57,
            "name": "A3",
            "ticks": 9888,
            "time": 10.5821685,
            "velocity": 0.3937007874015748
          },
          {
            "duration": 0.1027395000000002,
            "durationTicks": 96,
            "midi": 72,
            "name": "C5",
            "ticks": 9888,
            "time": 10.5821685,
            "velocity": 0.3937007874015748
          },
          {
            "duration": 0.1027395000000002,
            "durationTicks": 96,
            "midi": 60,
            "name": "C4",
            "ticks": 9888,
            "time": 10.5821685,
            "velocity": 0.3937007874015748
          },
          {
            "duration": 0.1027395000000002,
            "durationTicks": 96,
            "midi": 69,
            "name": "A4",
            "ticks": 9888,
            "time": 10.5821685,
            "velocity": 0.3937007874015748
          },
          {
            "duration": 0.1027395000000002,
            "durationTicks": 96,
            "midi": 60,
            "name": "C4",
            "ticks": 9888,
            "time": 10.5821685,
            "velocity": 0.3937007874015748
          },
          {
            "duration": 0.1027395000000002,
            "durationTicks": 96,
            "midi": 57,
            "name": "A3",
            "ticks": 9888,
            "time": 10.5821685,
            "velocity": 0.3937007874015748
          },
          {
            "duration": 0.1027395000000002,
            "durationTicks": 96,
            "midi": 72,
            "name": "C5",
            "ticks": 9888,
            "time": 10.5821685,
            "velocity": 0.3937007874015748
          },
          {
            "duration": 0.1027395000000002,
            "durationTicks": 96,
            "midi": 69,
            "name": "A4",
            "ticks": 10080,
            "time": 10.7876475,
            "velocity": 0.3937007874015748
          },
          {
            "duration": 0.1027395000000002,
            "durationTicks": 96,
            "midi": 72,
            "name": "C5",
            "ticks": 10080,
            "time": 10.7876475,
            "velocity": 0.3937007874015748
          },
          {
            "duration": 0.1027395000000002,
            "durationTicks": 96,
            "midi": 57,
            "name": "A3",
            "ticks": 10080,
            "time": 10.7876475,
            "velocity": 0.3937007874015748
          },
          {
            "duration": 0.1027395000000002,
            "durationTicks": 96,
            "midi": 72,
            "name": "C5",
            "ticks": 10080,
            "time": 10.7876475,
            "velocity": 0.3937007874015748
          },
          {
            "duration": 0.1027395000000002,
            "durationTicks": 96,
            "midi": 60,
            "name": "C4",
            "ticks": 10080,
            "time": 10.7876475,
            "velocity": 0.3937007874015748
          },
          {
            "duration": 0.1027395000000002,
            "durationTicks": 96,
            "midi": 60,
            "name": "C4",
            "ticks": 10080,
            "time": 10.7876475,
            "velocity": 0.3937007874015748
          },
          {
            "duration": 0.1027395000000002,
            "durationTicks": 96,
            "midi": 69,
            "name": "A4",
            "ticks": 10080,
            "time": 10.7876475,
            "velocity": 0.3937007874015748
          },
          {
            "duration": 0.1027395000000002,
            "durationTicks": 96,
            "midi": 57,
            "name": "A3",
            "ticks": 10080,
            "time": 10.7876475,
            "velocity": 0.3937007874015748
          },
          {
            "duration": 0.1027395000000002,
            "durationTicks": 96,
            "midi": 65,
            "name": "F4",
            "ticks": 10272,
            "time": 10.993126499999999,
            "velocity": 0.3937007874015748
          },
          {
            "duration": 0.1027395000000002,
            "durationTicks": 96,
            "midi": 50,
            "name": "D3",
            "ticks": 10272,
            "time": 10.993126499999999,
            "velocity": 0.3937007874015748
          },
          {
            "duration": 0.1027395000000002,
            "durationTicks": 96,
            "midi": 53,
            "name": "F3",
            "ticks": 10272,
            "time": 10.993126499999999,
            "velocity": 0.3937007874015748
          },
          {
            "duration": 0.1027395000000002,
            "durationTicks": 96,
            "midi": 62,
            "name": "D4",
            "ticks": 10272,
            "time": 10.993126499999999,
            "velocity": 0.3937007874015748
          },
          {
            "duration": 0.1027395000000002,
            "durationTicks": 96,
            "midi": 50,
            "name": "D3",
            "ticks": 10272,
            "time": 10.993126499999999,
            "velocity": 0.3937007874015748
          },
          {
            "duration": 0.1027395000000002,
            "durationTicks": 96,
            "midi": 62,
            "name": "D4",
            "ticks": 10272,
            "time": 10.993126499999999,
            "velocity": 0.3937007874015748
          },
          {
            "duration": 0.1027395000000002,
            "durationTicks": 96,
            "midi": 65,
            "name": "F4",
            "ticks": 10272,
            "time": 10.993126499999999,
            "velocity": 0.3937007874015748
          },
          {
            "duration": 0.1027395000000002,
            "durationTicks": 96,
            "midi": 53,
            "name": "F3",
            "ticks": 10272,
            "time": 10.993126499999999,
            "velocity": 0.3937007874015748
          },
          {
            "duration": 0.1027395000000002,
            "durationTicks": 96,
            "midi": 69,
            "name": "A4",
            "ticks": 10368,
            "time": 11.095866,
            "velocity": 0.3937007874015748
          },
          {
            "duration": 0.1027395000000002,
            "durationTicks": 96,
            "midi": 72,
            "name": "C5",
            "ticks": 10368,
            "time": 11.095866,
            "velocity": 0.3937007874015748
          },
          {
            "duration": 0.1027395000000002,
            "durationTicks": 96,
            "midi": 69,
            "name": "A4",
            "ticks": 10368,
            "time": 11.095866,
            "velocity": 0.3937007874015748
          },
          {
            "duration": 0.1027395000000002,
            "durationTicks": 96,
            "midi": 57,
            "name": "A3",
            "ticks": 10368,
            "time": 11.095866,
            "velocity": 0.3937007874015748
          },
          {
            "duration": 0.1027395000000002,
            "durationTicks": 96,
            "midi": 60,
            "name": "C4",
            "ticks": 10368,
            "time": 11.095866,
            "velocity": 0.3937007874015748
          },
          {
            "duration": 0.1027395000000002,
            "durationTicks": 96,
            "midi": 60,
            "name": "C4",
            "ticks": 10368,
            "time": 11.095866,
            "velocity": 0.3937007874015748
          },
          {
            "duration": 0.1027395000000002,
            "durationTicks": 96,
            "midi": 72,
            "name": "C5",
            "ticks": 10368,
            "time": 11.095866,
            "velocity": 0.3937007874015748
          },
          {
            "duration": 0.1027395000000002,
            "durationTicks": 96,
            "midi": 57,
            "name": "A3",
            "ticks": 10368,
            "time": 11.095866,
            "velocity": 0.3937007874015748
          },
          {
            "duration": 0.1027395000000002,
            "durationTicks": 96,
            "midi": 53,
            "name": "F3",
            "ticks": 10464,
            "time": 11.1986055,
            "velocity": 0.3937007874015748
          },
          {
            "duration": 0.1027395000000002,
            "durationTicks": 96,
            "midi": 65,
            "name": "F4",
            "ticks": 10464,
            "time": 11.1986055,
            "velocity": 0.3937007874015748
          },
          {
            "duration": 0.1027395000000002,
            "durationTicks": 96,
            "midi": 53,
            "name": "F3",
            "ticks": 10464,
            "time": 11.1986055,
            "velocity": 0.3937007874015748
          },
          {
            "duration": 0.1027395000000002,
            "durationTicks": 96,
            "midi": 50,
            "name": "D3",
            "ticks": 10464,
            "time": 11.1986055,
            "velocity": 0.3937007874015748
          },
          {
            "duration": 0.1027395000000002,
            "durationTicks": 96,
            "midi": 62,
            "name": "D4",
            "ticks": 10464,
            "time": 11.1986055,
            "velocity": 0.3937007874015748
          },
          {
            "duration": 0.1027395000000002,
            "durationTicks": 96,
            "midi": 62,
            "name": "D4",
            "ticks": 10464,
            "time": 11.1986055,
            "velocity": 0.3937007874015748
          },
          {
            "duration": 0.1027395000000002,
            "durationTicks": 96,
            "midi": 50,
            "name": "D3",
            "ticks": 10464,
            "time": 11.1986055,
            "velocity": 0.3937007874015748
          },
          {
            "duration": 0.1027395000000002,
            "durationTicks": 96,
            "midi": 65,
            "name": "F4",
            "ticks": 10464,
            "time": 11.1986055,
            "velocity": 0.3937007874015748
          },
          {
            "duration": 0.1027395000000002,
            "durationTicks": 96,
            "midi": 69,
            "name": "A4",
            "ticks": 10560,
            "time": 11.301345,
            "velocity": 0.3937007874015748
          },
          {
            "duration": 0.1027395000000002,
            "durationTicks": 96,
            "midi": 72,
            "name": "C5",
            "ticks": 10560,
            "time": 11.301345,
            "velocity": 0.3937007874015748
          },
          {
            "duration": 0.1027395000000002,
            "durationTicks": 96,
            "midi": 57,
            "name": "A3",
            "ticks": 10560,
            "time": 11.301345,
            "velocity": 0.3937007874015748
          },
          {
            "duration": 0.1027395000000002,
            "durationTicks": 96,
            "midi": 57,
            "name": "A3",
            "ticks": 10560,
            "time": 11.301345,
            "velocity": 0.3937007874015748
          },
          {
            "duration": 0.1027395000000002,
            "durationTicks": 96,
            "midi": 72,
            "name": "C5",
            "ticks": 10560,
            "time": 11.301345,
            "velocity": 0.3937007874015748
          },
          {
            "duration": 0.1027395000000002,
            "durationTicks": 96,
            "midi": 60,
            "name": "C4",
            "ticks": 10560,
            "time": 11.301345,
            "velocity": 0.3937007874015748
          },
          {
            "duration": 0.1027395000000002,
            "durationTicks": 96,
            "midi": 69,
            "name": "A4",
            "ticks": 10560,
            "time": 11.301345,
            "velocity": 0.3937007874015748
          },
          {
            "duration": 0.1027395000000002,
            "durationTicks": 96,
            "midi": 60,
            "name": "C4",
            "ticks": 10560,
            "time": 11.301345,
            "velocity": 0.3937007874015748
          },
          {
            "duration": 0.1027395000000002,
            "durationTicks": 96,
            "midi": 59,
            "name": "B3",
            "ticks": 10752,
            "time": 11.506824,
            "velocity": 0.3937007874015748
          },
          {
            "duration": 0.1027395000000002,
            "durationTicks": 96,
            "midi": 67,
            "name": "G4",
            "ticks": 10752,
            "time": 11.506824,
            "velocity": 0.3937007874015748
          },
          {
            "duration": 0.1027395000000002,
            "durationTicks": 96,
            "midi": 71,
            "name": "B4",
            "ticks": 10752,
            "time": 11.506824,
            "velocity": 0.3937007874015748
          },
          {
            "duration": 0.1027395000000002,
            "durationTicks": 96,
            "midi": 71,
            "name": "B4",
            "ticks": 10752,
            "time": 11.506824,
            "velocity": 0.3937007874015748
          },
          {
            "duration": 0.1027395000000002,
            "durationTicks": 96,
            "midi": 67,
            "name": "G4",
            "ticks": 10752,
            "time": 11.506824,
            "velocity": 0.3937007874015748
          },
          {
            "duration": 0.1027395000000002,
            "durationTicks": 96,
            "midi": 55,
            "name": "G3",
            "ticks": 10752,
            "time": 11.506824,
            "velocity": 0.3937007874015748
          },
          {
            "duration": 0.1027395000000002,
            "durationTicks": 96,
            "midi": 59,
            "name": "B3",
            "ticks": 10752,
            "time": 11.506824,
            "velocity": 0.3937007874015748
          },
          {
            "duration": 0.1027395000000002,
            "durationTicks": 96,
            "midi": 55,
            "name": "G3",
            "ticks": 10752,
            "time": 11.506824,
            "velocity": 0.3937007874015748
          },
          {
            "duration": 0.1027395000000002,
            "durationTicks": 96,
            "midi": 68,
            "name": "G#4",
            "ticks": 10848,
            "time": 11.6095635,
            "velocity": 0.3937007874015748
          },
          {
            "duration": 0.1027395000000002,
            "durationTicks": 96,
            "midi": 55,
            "name": "G3",
            "ticks": 10944,
            "time": 11.712303,
            "velocity": 0.3937007874015748
          },
          {
            "duration": 0.1027395000000002,
            "durationTicks": 96,
            "midi": 59,
            "name": "B3",
            "ticks": 10944,
            "time": 11.712303,
            "velocity": 0.3937007874015748
          },
          {
            "duration": 0.1027395000000002,
            "durationTicks": 96,
            "midi": 59,
            "name": "B3",
            "ticks": 10944,
            "time": 11.712303,
            "velocity": 0.3937007874015748
          },
          {
            "duration": 0.1027395000000002,
            "durationTicks": 96,
            "midi": 67,
            "name": "G4",
            "ticks": 10944,
            "time": 11.712303,
            "velocity": 0.3937007874015748
          },
          {
            "duration": 0.1027395000000002,
            "durationTicks": 96,
            "midi": 55,
            "name": "G3",
            "ticks": 10944,
            "time": 11.712303,
            "velocity": 0.3937007874015748
          },
          {
            "duration": 0.1027395000000002,
            "durationTicks": 96,
            "midi": 71,
            "name": "B4",
            "ticks": 10944,
            "time": 11.712303,
            "velocity": 0.3937007874015748
          },
          {
            "duration": 0.1027395000000002,
            "durationTicks": 96,
            "midi": 71,
            "name": "B4",
            "ticks": 10944,
            "time": 11.712303,
            "velocity": 0.3937007874015748
          },
          {
            "duration": 0.1027395000000002,
            "durationTicks": 96,
            "midi": 67,
            "name": "G4",
            "ticks": 10944,
            "time": 11.712303,
            "velocity": 0.3937007874015748
          },
          {
            "duration": 0.1027395000000002,
            "durationTicks": 96,
            "midi": 59,
            "name": "B3",
            "ticks": 11136,
            "time": 11.917781999999999,
            "velocity": 0.3937007874015748
          },
          {
            "duration": 0.1027395000000002,
            "durationTicks": 96,
            "midi": 71,
            "name": "B4",
            "ticks": 11136,
            "time": 11.917781999999999,
            "velocity": 0.3937007874015748
          },
          {
            "duration": 0.1027395000000002,
            "durationTicks": 96,
            "midi": 59,
            "name": "B3",
            "ticks": 11136,
            "time": 11.917781999999999,
            "velocity": 0.3937007874015748
          },
          {
            "duration": 0.1027395000000002,
            "durationTicks": 96,
            "midi": 55,
            "name": "G3",
            "ticks": 11136,
            "time": 11.917781999999999,
            "velocity": 0.3937007874015748
          },
          {
            "duration": 0.1027395000000002,
            "durationTicks": 96,
            "midi": 55,
            "name": "G3",
            "ticks": 11136,
            "time": 11.917781999999999,
            "velocity": 0.3937007874015748
          },
          {
            "duration": 0.1027395000000002,
            "durationTicks": 96,
            "midi": 71,
            "name": "B4",
            "ticks": 11136,
            "time": 11.917781999999999,
            "velocity": 0.3937007874015748
          },
          {
            "duration": 0.1027395000000002,
            "durationTicks": 96,
            "midi": 67,
            "name": "G4",
            "ticks": 11136,
            "time": 11.917781999999999,
            "velocity": 0.3937007874015748
          },
          {
            "duration": 0.1027395000000002,
            "durationTicks": 96,
            "midi": 67,
            "name": "G4",
            "ticks": 11136,
            "time": 11.917781999999999,
            "velocity": 0.3937007874015748
          },
          {
            "duration": 0.1027395000000002,
            "durationTicks": 96,
            "midi": 64,
            "name": "E4",
            "ticks": 11328,
            "time": 12.123261,
            "velocity": 0.3937007874015748
          },
          {
            "duration": 0.1027395000000002,
            "durationTicks": 96,
            "midi": 48,
            "name": "C3",
            "ticks": 11328,
            "time": 12.123261,
            "velocity": 0.3937007874015748
          },
          {
            "duration": 0.1027395000000002,
            "durationTicks": 96,
            "midi": 52,
            "name": "E3",
            "ticks": 11328,
            "time": 12.123261,
            "velocity": 0.3937007874015748
          },
          {
            "duration": 0.1027395000000002,
            "durationTicks": 96,
            "midi": 64,
            "name": "E4",
            "ticks": 11328,
            "time": 12.123261,
            "velocity": 0.3937007874015748
          },
          {
            "duration": 0.1027395000000002,
            "durationTicks": 96,
            "midi": 48,
            "name": "C3",
            "ticks": 11328,
            "time": 12.123261,
            "velocity": 0.3937007874015748
          },
          {
            "duration": 0.1027395000000002,
            "durationTicks": 96,
            "midi": 52,
            "name": "E3",
            "ticks": 11328,
            "time": 12.123261,
            "velocity": 0.3937007874015748
          },
          {
            "duration": 0.1027395000000002,
            "durationTicks": 96,
            "midi": 60,
            "name": "C4",
            "ticks": 11328,
            "time": 12.123261,
            "velocity": 0.3937007874015748
          },
          {
            "duration": 0.1027395000000002,
            "durationTicks": 96,
            "midi": 60,
            "name": "C4",
            "ticks": 11328,
            "time": 12.123261,
            "velocity": 0.3937007874015748
          },
          {
            "duration": 0.1027395000000002,
            "durationTicks": 96,
            "midi": 55,
            "name": "G3",
            "ticks": 11424,
            "time": 12.2260005,
            "velocity": 0.3937007874015748
          },
          {
            "duration": 0.1027395000000002,
            "durationTicks": 96,
            "midi": 71,
            "name": "B4",
            "ticks": 11424,
            "time": 12.2260005,
            "velocity": 0.3937007874015748
          },
          {
            "duration": 0.1027395000000002,
            "durationTicks": 96,
            "midi": 59,
            "name": "B3",
            "ticks": 11424,
            "time": 12.2260005,
            "velocity": 0.3937007874015748
          },
          {
            "duration": 0.1027395000000002,
            "durationTicks": 96,
            "midi": 55,
            "name": "G3",
            "ticks": 11424,
            "time": 12.2260005,
            "velocity": 0.3937007874015748
          },
          {
            "duration": 0.1027395000000002,
            "durationTicks": 96,
            "midi": 59,
            "name": "B3",
            "ticks": 11424,
            "time": 12.2260005,
            "velocity": 0.3937007874015748
          },
          {
            "duration": 0.1027395000000002,
            "durationTicks": 96,
            "midi": 71,
            "name": "B4",
            "ticks": 11424,
            "time": 12.2260005,
            "velocity": 0.3937007874015748
          },
          {
            "duration": 0.1027395000000002,
            "durationTicks": 96,
            "midi": 67,
            "name": "G4",
            "ticks": 11424,
            "time": 12.2260005,
            "velocity": 0.3937007874015748
          },
          {
            "duration": 0.1027395000000002,
            "durationTicks": 96,
            "midi": 67,
            "name": "G4",
            "ticks": 11424,
            "time": 12.2260005,
            "velocity": 0.3937007874015748
          },
          {
            "duration": 0.1027395000000002,
            "durationTicks": 96,
            "midi": 67,
            "name": "G4",
            "ticks": 11616,
            "time": 12.4314795,
            "velocity": 0.3937007874015748
          },
          {
            "duration": 0.1027395000000002,
            "durationTicks": 96,
            "midi": 55,
            "name": "G3",
            "ticks": 11616,
            "time": 12.4314795,
            "velocity": 0.3937007874015748
          },
          {
            "duration": 0.1027395000000002,
            "durationTicks": 96,
            "midi": 71,
            "name": "B4",
            "ticks": 11616,
            "time": 12.4314795,
            "velocity": 0.3937007874015748
          },
          {
            "duration": 0.1027395000000002,
            "durationTicks": 96,
            "midi": 55,
            "name": "G3",
            "ticks": 11616,
            "time": 12.4314795,
            "velocity": 0.3937007874015748
          },
          {
            "duration": 0.1027395000000002,
            "durationTicks": 96,
            "midi": 59,
            "name": "B3",
            "ticks": 11616,
            "time": 12.4314795,
            "velocity": 0.3937007874015748
          },
          {
            "duration": 0.1027395000000002,
            "durationTicks": 96,
            "midi": 59,
            "name": "B3",
            "ticks": 11616,
            "time": 12.4314795,
            "velocity": 0.3937007874015748
          },
          {
            "duration": 0.1027395000000002,
            "durationTicks": 96,
            "midi": 67,
            "name": "G4",
            "ticks": 11616,
            "time": 12.4314795,
            "velocity": 0.3937007874015748
          },
          {
            "duration": 0.1027395000000002,
            "durationTicks": 96,
            "midi": 71,
            "name": "B4",
            "ticks": 11616,
            "time": 12.4314795,
            "velocity": 0.3937007874015748
          },
          {
            "duration": 0.10273949999999843,
            "durationTicks": 96,
            "midi": 64,
            "name": "E4",
            "ticks": 11808,
            "time": 12.6369585,
            "velocity": 0.3937007874015748
          },
          {
            "duration": 0.10273949999999843,
            "durationTicks": 96,
            "midi": 52,
            "name": "E3",
            "ticks": 11808,
            "time": 12.6369585,
            "velocity": 0.3937007874015748
          },
          {
            "duration": 0.10273949999999843,
            "durationTicks": 96,
            "midi": 48,
            "name": "C3",
            "ticks": 11808,
            "time": 12.6369585,
            "velocity": 0.3937007874015748
          },
          {
            "duration": 0.10273949999999843,
            "durationTicks": 96,
            "midi": 48,
            "name": "C3",
            "ticks": 11808,
            "time": 12.6369585,
            "velocity": 0.3937007874015748
          },
          {
            "duration": 0.10273949999999843,
            "durationTicks": 96,
            "midi": 64,
            "name": "E4",
            "ticks": 11808,
            "time": 12.6369585,
            "velocity": 0.3937007874015748
          },
          {
            "duration": 0.10273949999999843,
            "durationTicks": 96,
            "midi": 52,
            "name": "E3",
            "ticks": 11808,
            "time": 12.6369585,
            "velocity": 0.3937007874015748
          },
          {
            "duration": 0.10273949999999843,
            "durationTicks": 96,
            "midi": 60,
            "name": "C4",
            "ticks": 11808,
            "time": 12.6369585,
            "velocity": 0.3937007874015748
          },
          {
            "duration": 0.10273949999999843,
            "durationTicks": 96,
            "midi": 60,
            "name": "C4",
            "ticks": 11808,
            "time": 12.6369585,
            "velocity": 0.3937007874015748
          },
          {
            "duration": 0.1027395000000002,
            "durationTicks": 96,
            "midi": 67,
            "name": "G4",
            "ticks": 11904,
            "time": 12.739697999999999,
            "velocity": 0.3937007874015748
          },
          {
            "duration": 0.1027395000000002,
            "durationTicks": 96,
            "midi": 71,
            "name": "B4",
            "ticks": 11904,
            "time": 12.739697999999999,
            "velocity": 0.3937007874015748
          },
          {
            "duration": 0.1027395000000002,
            "durationTicks": 96,
            "midi": 59,
            "name": "B3",
            "ticks": 11904,
            "time": 12.739697999999999,
            "velocity": 0.3937007874015748
          },
          {
            "duration": 0.1027395000000002,
            "durationTicks": 96,
            "midi": 71,
            "name": "B4",
            "ticks": 11904,
            "time": 12.739697999999999,
            "velocity": 0.3937007874015748
          },
          {
            "duration": 0.1027395000000002,
            "durationTicks": 96,
            "midi": 67,
            "name": "G4",
            "ticks": 11904,
            "time": 12.739697999999999,
            "velocity": 0.3937007874015748
          },
          {
            "duration": 0.1027395000000002,
            "durationTicks": 96,
            "midi": 55,
            "name": "G3",
            "ticks": 11904,
            "time": 12.739697999999999,
            "velocity": 0.3937007874015748
          },
          {
            "duration": 0.1027395000000002,
            "durationTicks": 96,
            "midi": 59,
            "name": "B3",
            "ticks": 11904,
            "time": 12.739697999999999,
            "velocity": 0.3937007874015748
          },
          {
            "duration": 0.1027395000000002,
            "durationTicks": 96,
            "midi": 55,
            "name": "G3",
            "ticks": 11904,
            "time": 12.739697999999999,
            "velocity": 0.3937007874015748
          },
          {
            "duration": 0.1027395000000002,
            "durationTicks": 96,
            "midi": 48,
            "name": "C3",
            "ticks": 12000,
            "time": 12.842437499999999,
            "velocity": 0.3937007874015748
          },
          {
            "duration": 0.1027395000000002,
            "durationTicks": 96,
            "midi": 48,
            "name": "C3",
            "ticks": 12000,
            "time": 12.842437499999999,
            "velocity": 0.3937007874015748
          },
          {
            "duration": 0.1027395000000002,
            "durationTicks": 96,
            "midi": 64,
            "name": "E4",
            "ticks": 12000,
            "time": 12.842437499999999,
            "velocity": 0.3937007874015748
          },
          {
            "duration": 0.1027395000000002,
            "durationTicks": 96,
            "midi": 52,
            "name": "E3",
            "ticks": 12000,
            "time": 12.842437499999999,
            "velocity": 0.3937007874015748
          },
          {
            "duration": 0.1027395000000002,
            "durationTicks": 96,
            "midi": 52,
            "name": "E3",
            "ticks": 12000,
            "time": 12.842437499999999,
            "velocity": 0.3937007874015748
          },
          {
            "duration": 0.1027395000000002,
            "durationTicks": 96,
            "midi": 60,
            "name": "C4",
            "ticks": 12000,
            "time": 12.842437499999999,
            "velocity": 0.3937007874015748
          },
          {
            "duration": 0.1027395000000002,
            "durationTicks": 96,
            "midi": 60,
            "name": "C4",
            "ticks": 12000,
            "time": 12.842437499999999,
            "velocity": 0.3937007874015748
          },
          {
            "duration": 0.1027395000000002,
            "durationTicks": 96,
            "midi": 64,
            "name": "E4",
            "ticks": 12000,
            "time": 12.842437499999999,
            "velocity": 0.3937007874015748
          },
          {
            "duration": 0.1027395000000002,
            "durationTicks": 96,
            "midi": 67,
            "name": "G4",
            "ticks": 12096,
            "time": 12.945177,
            "velocity": 0.3937007874015748
          },
          {
            "duration": 0.1027395000000002,
            "durationTicks": 96,
            "midi": 55,
            "name": "G3",
            "ticks": 12096,
            "time": 12.945177,
            "velocity": 0.3937007874015748
          },
          {
            "duration": 0.1027395000000002,
            "durationTicks": 96,
            "midi": 67,
            "name": "G4",
            "ticks": 12096,
            "time": 12.945177,
            "velocity": 0.3937007874015748
          },
          {
            "duration": 0.1027395000000002,
            "durationTicks": 96,
            "midi": 71,
            "name": "B4",
            "ticks": 12096,
            "time": 12.945177,
            "velocity": 0.3937007874015748
          },
          {
            "duration": 0.1027395000000002,
            "durationTicks": 96,
            "midi": 59,
            "name": "B3",
            "ticks": 12096,
            "time": 12.945177,
            "velocity": 0.3937007874015748
          },
          {
            "duration": 0.1027395000000002,
            "durationTicks": 96,
            "midi": 71,
            "name": "B4",
            "ticks": 12096,
            "time": 12.945177,
            "velocity": 0.3937007874015748
          },
          {
            "duration": 0.1027395000000002,
            "durationTicks": 96,
            "midi": 55,
            "name": "G3",
            "ticks": 12096,
            "time": 12.945177,
            "velocity": 0.3937007874015748
          },
          {
            "duration": 0.1027395000000002,
            "durationTicks": 96,
            "midi": 59,
            "name": "B3",
            "ticks": 12096,
            "time": 12.945177,
            "velocity": 0.3937007874015748
          }
        ],
        "endOfTrackTicks": 12192
      },
      {
        "channel": 9,
        "controlChanges": {},
        "pitchBends": [],
        "instrument": {
          "family": "drums",
          "number": 0,
          "name": "standard kit"
        },
        "name": "Electric Drum Kit",
        "notes": [
          {
            "duration": 0.1027395,
            "durationTicks": 96,
            "midi": 72,
            "name": "C5",
            "ticks": 0,
            "time": 0,
            "velocity": 0.3937007874015748
          },
          {
            "duration": 0.1027395,
            "durationTicks": 96,
            "midi": 47,
            "name": "B2",
            "ticks": 0,
            "time": 0,
            "velocity": 0.3937007874015748
          },
          {
            "duration": 0.1027395,
            "durationTicks": 96,
            "midi": 67,
            "name": "G4",
            "ticks": 0,
            "time": 0,
            "velocity": 0.3937007874015748
          },
          {
            "duration": 0.1027395,
            "durationTicks": 96,
            "midi": 67,
            "name": "G4",
            "ticks": 96,
            "time": 0.1027395,
            "velocity": 0.3937007874015748
          },
          {
            "duration": 0.1027395,
            "durationTicks": 96,
            "midi": 47,
            "name": "B2",
            "ticks": 96,
            "time": 0.1027395,
            "velocity": 0.3937007874015748
          },
          {
            "duration": 0.10273950000000001,
            "durationTicks": 96,
            "midi": 68,
            "name": "G#4",
            "ticks": 192,
            "time": 0.205479,
            "velocity": 0.3937007874015748
          },
          {
            "duration": 0.10273950000000001,
            "durationTicks": 96,
            "midi": 47,
            "name": "B2",
            "ticks": 192,
            "time": 0.205479,
            "velocity": 0.3937007874015748
          },
          {
            "duration": 0.10273949999999998,
            "durationTicks": 96,
            "midi": 67,
            "name": "G4",
            "ticks": 288,
            "time": 0.3082185,
            "velocity": 0.3937007874015748
          },
          {
            "duration": 0.10273950000000004,
            "durationTicks": 96,
            "midi": 47,
            "name": "B2",
            "ticks": 384,
            "time": 0.410958,
            "velocity": 0.3937007874015748
          },
          {
            "duration": 0.10273950000000004,
            "durationTicks": 96,
            "midi": 67,
            "name": "G4",
            "ticks": 384,
            "time": 0.410958,
            "velocity": 0.3937007874015748
          },
          {
            "duration": 0.10273949999999998,
            "durationTicks": 96,
            "midi": 67,
            "name": "G4",
            "ticks": 480,
            "time": 0.5136975,
            "velocity": 0.3937007874015748
          },
          {
            "duration": 0.10273949999999998,
            "durationTicks": 96,
            "midi": 67,
            "name": "G4",
            "ticks": 576,
            "time": 0.616437,
            "velocity": 0.3937007874015748
          },
          {
            "duration": 0.10273949999999998,
            "durationTicks": 96,
            "midi": 47,
            "name": "B2",
            "ticks": 576,
            "time": 0.616437,
            "velocity": 0.3937007874015748
          },
          {
            "duration": 0.10273949999999998,
            "durationTicks": 96,
            "midi": 67,
            "name": "G4",
            "ticks": 672,
            "time": 0.7191765,
            "velocity": 0.3937007874015748
          },
          {
            "duration": 0.10273949999999998,
            "durationTicks": 96,
            "midi": 47,
            "name": "B2",
            "ticks": 672,
            "time": 0.7191765,
            "velocity": 0.3937007874015748
          },
          {
            "duration": 0.10273949999999998,
            "durationTicks": 96,
            "midi": 67,
            "name": "G4",
            "ticks": 768,
            "time": 0.821916,
            "velocity": 0.3937007874015748
          },
          {
            "duration": 0.1027395000000001,
            "durationTicks": 96,
            "midi": 47,
            "name": "B2",
            "ticks": 864,
            "time": 0.9246555,
            "velocity": 0.3937007874015748
          },
          {
            "duration": 0.1027395000000001,
            "durationTicks": 96,
            "midi": 68,
            "name": "G#4",
            "ticks": 864,
            "time": 0.9246555,
            "velocity": 0.3937007874015748
          },
          {
            "duration": 0.10273949999999998,
            "durationTicks": 96,
            "midi": 67,
            "name": "G4",
            "ticks": 960,
            "time": 1.027395,
            "velocity": 0.3937007874015748
          },
          {
            "duration": 0.10273949999999998,
            "durationTicks": 96,
            "midi": 67,
            "name": "G4",
            "ticks": 1056,
            "time": 1.1301345,
            "velocity": 0.3937007874015748
          },
          {
            "duration": 0.10273949999999998,
            "durationTicks": 96,
            "midi": 47,
            "name": "B2",
            "ticks": 1056,
            "time": 1.1301345,
            "velocity": 0.3937007874015748
          },
          {
            "duration": 0.10273949999999998,
            "durationTicks": 96,
            "midi": 47,
            "name": "B2",
            "ticks": 1152,
            "time": 1.232874,
            "velocity": 0.3937007874015748
          },
          {
            "duration": 0.10273949999999998,
            "durationTicks": 96,
            "midi": 68,
            "name": "G#4",
            "ticks": 1152,
            "time": 1.232874,
            "velocity": 0.3937007874015748
          },
          {
            "duration": 0.10273949999999998,
            "durationTicks": 96,
            "midi": 68,
            "name": "G#4",
            "ticks": 1248,
            "time": 1.3356135,
            "velocity": 0.3937007874015748
          },
          {
            "duration": 0.10273949999999998,
            "durationTicks": 96,
            "midi": 47,
            "name": "B2",
            "ticks": 1248,
            "time": 1.3356135,
            "velocity": 0.3937007874015748
          },
          {
            "duration": 0.10273949999999998,
            "durationTicks": 96,
            "midi": 68,
            "name": "G#4",
            "ticks": 1344,
            "time": 1.438353,
            "velocity": 0.3937007874015748
          },
          {
            "duration": 0.10273949999999998,
            "durationTicks": 96,
            "midi": 47,
            "name": "B2",
            "ticks": 1344,
            "time": 1.438353,
            "velocity": 0.3937007874015748
          },
          {
            "duration": 0.10273949999999998,
            "durationTicks": 96,
            "midi": 68,
            "name": "G#4",
            "ticks": 1440,
            "time": 1.5410925,
            "velocity": 0.3937007874015748
          },
          {
            "duration": 0.10273949999999998,
            "durationTicks": 96,
            "midi": 48,
            "name": "C3",
            "ticks": 1536,
            "time": 1.643832,
            "velocity": 0.3937007874015748
          },
          {
            "duration": 0.10273949999999998,
            "durationTicks": 96,
            "midi": 71,
            "name": "B4",
            "ticks": 1536,
            "time": 1.643832,
            "velocity": 0.3937007874015748
          },
          {
            "duration": 0.10273949999999998,
            "durationTicks": 96,
            "midi": 67,
            "name": "G4",
            "ticks": 1536,
            "time": 1.643832,
            "velocity": 0.3937007874015748
          },
          {
            "duration": 0.10273949999999998,
            "durationTicks": 96,
            "midi": 48,
            "name": "C3",
            "ticks": 1632,
            "time": 1.7465715,
            "velocity": 0.3937007874015748
          },
          {
            "duration": 0.10273949999999998,
            "durationTicks": 96,
            "midi": 67,
            "name": "G4",
            "ticks": 1728,
            "time": 1.849311,
            "velocity": 0.3937007874015748
          },
          {
            "duration": 0.10273949999999998,
            "durationTicks": 96,
            "midi": 48,
            "name": "C3",
            "ticks": 1728,
            "time": 1.849311,
            "velocity": 0.3937007874015748
          },
          {
            "duration": 0.1027395000000002,
            "durationTicks": 96,
            "midi": 68,
            "name": "G#4",
            "ticks": 1824,
            "time": 1.9520505,
            "velocity": 0.3937007874015748
          },
          {
            "duration": 0.1027395000000002,
            "durationTicks": 96,
            "midi": 48,
            "name": "C3",
            "ticks": 1824,
            "time": 1.9520505,
            "velocity": 0.3937007874015748
          },
          {
            "duration": 0.10273949999999976,
            "durationTicks": 96,
            "midi": 67,
            "name": "G4",
            "ticks": 1920,
            "time": 2.05479,
            "velocity": 0.3937007874015748
          },
          {
            "duration": 0.10273949999999976,
            "durationTicks": 96,
            "midi": 48,
            "name": "C3",
            "ticks": 1920,
            "time": 2.05479,
            "velocity": 0.3937007874015748
          },
          {
            "duration": 0.1027395000000002,
            "durationTicks": 96,
            "midi": 67,
            "name": "G4",
            "ticks": 2016,
            "time": 2.1575295,
            "velocity": 0.3937007874015748
          },
          {
            "duration": 0.10273949999999976,
            "durationTicks": 96,
            "midi": 67,
            "name": "G4",
            "ticks": 2112,
            "time": 2.260269,
            "velocity": 0.3937007874015748
          },
          {
            "duration": 0.1027395000000002,
            "durationTicks": 96,
            "midi": 68,
            "name": "G#4",
            "ticks": 2208,
            "time": 2.3630085,
            "velocity": 0.3937007874015748
          },
          {
            "duration": 0.1027395000000002,
            "durationTicks": 96,
            "midi": 48,
            "name": "C3",
            "ticks": 2208,
            "time": 2.3630085,
            "velocity": 0.3937007874015748
          },
          {
            "duration": 0.10273949999999976,
            "durationTicks": 96,
            "midi": 48,
            "name": "C3",
            "ticks": 2304,
            "time": 2.465748,
            "velocity": 0.3937007874015748
          },
          {
            "duration": 0.10273949999999976,
            "durationTicks": 96,
            "midi": 68,
            "name": "G#4",
            "ticks": 2304,
            "time": 2.465748,
            "velocity": 0.3937007874015748
          },
          {
            "duration": 0.1027395000000002,
            "durationTicks": 96,
            "midi": 67,
            "name": "G4",
            "ticks": 2400,
            "time": 2.5684875,
            "velocity": 0.3937007874015748
          },
          {
            "duration": 0.1027395000000002,
            "durationTicks": 96,
            "midi": 48,
            "name": "C3",
            "ticks": 2400,
            "time": 2.5684875,
            "velocity": 0.3937007874015748
          },
          {
            "duration": 0.10273949999999976,
            "durationTicks": 96,
            "midi": 67,
            "name": "G4",
            "ticks": 2496,
            "time": 2.671227,
            "velocity": 0.3937007874015748
          },
          {
            "duration": 0.10273949999999976,
            "durationTicks": 96,
            "midi": 48,
            "name": "C3",
            "ticks": 2496,
            "time": 2.671227,
            "velocity": 0.3937007874015748
          },
          {
            "duration": 0.1027395000000002,
            "durationTicks": 96,
            "midi": 67,
            "name": "G4",
            "ticks": 2592,
            "time": 2.7739665,
            "velocity": 0.3937007874015748
          },
          {
            "duration": 0.10273949999999976,
            "durationTicks": 96,
            "midi": 67,
            "name": "G4",
            "ticks": 2688,
            "time": 2.876706,
            "velocity": 0.3937007874015748
          },
          {
            "duration": 0.10273949999999976,
            "durationTicks": 96,
            "midi": 48,
            "name": "C3",
            "ticks": 2688,
            "time": 2.876706,
            "velocity": 0.3937007874015748
          },
          {
            "duration": 0.1027395000000002,
            "durationTicks": 96,
            "midi": 67,
            "name": "G4",
            "ticks": 2784,
            "time": 2.9794454999999997,
            "velocity": 0.3937007874015748
          },
          {
            "duration": 0.10273949999999976,
            "durationTicks": 96,
            "midi": 48,
            "name": "C3",
            "ticks": 2880,
            "time": 3.082185,
            "velocity": 0.3937007874015748
          },
          {
            "duration": 0.10273949999999976,
            "durationTicks": 96,
            "midi": 68,
            "name": "G#4",
            "ticks": 2880,
            "time": 3.082185,
            "velocity": 0.3937007874015748
          },
          {
            "duration": 0.1027395000000002,
            "durationTicks": 96,
            "midi": 68,
            "name": "G#4",
            "ticks": 2976,
            "time": 3.1849244999999997,
            "velocity": 0.3937007874015748
          },
          {
            "duration": 0.1027395000000002,
            "durationTicks": 96,
            "midi": 48,
            "name": "C3",
            "ticks": 2976,
            "time": 3.1849244999999997,
            "velocity": 0.3937007874015748
          },
          {
            "duration": 0.1027395000000002,
            "durationTicks": 96,
            "midi": 67,
            "name": "G4",
            "ticks": 3072,
            "time": 3.287664,
            "velocity": 0.3937007874015748
          },
          {
            "duration": 0.1027395000000002,
            "durationTicks": 96,
            "midi": 47,
            "name": "B2",
            "ticks": 3072,
            "time": 3.287664,
            "velocity": 0.3937007874015748
          },
          {
            "duration": 0.1027395000000002,
            "durationTicks": 96,
            "midi": 72,
            "name": "C5",
            "ticks": 3072,
            "time": 3.287664,
            "velocity": 0.3937007874015748
          },
          {
            "duration": 0.10273949999999976,
            "durationTicks": 96,
            "midi": 47,
            "name": "B2",
            "ticks": 3168,
            "time": 3.3904035,
            "velocity": 0.3937007874015748
          },
          {
            "duration": 0.10273949999999976,
            "durationTicks": 96,
            "midi": 67,
            "name": "G4",
            "ticks": 3168,
            "time": 3.3904035,
            "velocity": 0.3937007874015748
          },
          {
            "duration": 0.1027395000000002,
            "durationTicks": 96,
            "midi": 47,
            "name": "B2",
            "ticks": 3264,
            "time": 3.493143,
            "velocity": 0.3937007874015748
          },
          {
            "duration": 0.1027395000000002,
            "durationTicks": 96,
            "midi": 68,
            "name": "G#4",
            "ticks": 3264,
            "time": 3.493143,
            "velocity": 0.3937007874015748
          },
          {
            "duration": 0.10273949999999976,
            "durationTicks": 96,
            "midi": 67,
            "name": "G4",
            "ticks": 3360,
            "time": 3.5958825,
            "velocity": 0.3937007874015748
          },
          {
            "duration": 0.1027395000000002,
            "durationTicks": 96,
            "midi": 67,
            "name": "G4",
            "ticks": 3456,
            "time": 3.698622,
            "velocity": 0.3937007874015748
          },
          {
            "duration": 0.1027395000000002,
            "durationTicks": 96,
            "midi": 47,
            "name": "B2",
            "ticks": 3456,
            "time": 3.698622,
            "velocity": 0.3937007874015748
          },
          {
            "duration": 0.10273949999999976,
            "durationTicks": 96,
            "midi": 67,
            "name": "G4",
            "ticks": 3552,
            "time": 3.8013615,
            "velocity": 0.3937007874015748
          },
          {
            "duration": 0.1027395000000002,
            "durationTicks": 96,
            "midi": 47,
            "name": "B2",
            "ticks": 3648,
            "time": 3.904101,
            "velocity": 0.3937007874015748
          },
          {
            "duration": 0.1027395000000002,
            "durationTicks": 96,
            "midi": 67,
            "name": "G4",
            "ticks": 3648,
            "time": 3.904101,
            "velocity": 0.3937007874015748
          },
          {
            "duration": 0.1027395000000002,
            "durationTicks": 96,
            "midi": 47,
            "name": "B2",
            "ticks": 3744,
            "time": 4.0068405,
            "velocity": 0.3937007874015748
          },
          {
            "duration": 0.1027395000000002,
            "durationTicks": 96,
            "midi": 67,
            "name": "G4",
            "ticks": 3744,
            "time": 4.0068405,
            "velocity": 0.3937007874015748
          },
          {
            "duration": 0.10273949999999932,
            "durationTicks": 96,
            "midi": 67,
            "name": "G4",
            "ticks": 3840,
            "time": 4.10958,
            "velocity": 0.3937007874015748
          },
          {
            "duration": 0.1027395000000002,
            "durationTicks": 96,
            "midi": 68,
            "name": "G#4",
            "ticks": 3936,
            "time": 4.2123194999999996,
            "velocity": 0.3937007874015748
          },
          {
            "duration": 0.1027395000000002,
            "durationTicks": 96,
            "midi": 47,
            "name": "B2",
            "ticks": 3936,
            "time": 4.2123194999999996,
            "velocity": 0.3937007874015748
          },
          {
            "duration": 0.1027395000000002,
            "durationTicks": 96,
            "midi": 67,
            "name": "G4",
            "ticks": 4032,
            "time": 4.315059,
            "velocity": 0.3937007874015748
          },
          {
            "duration": 0.1027395000000002,
            "durationTicks": 96,
            "midi": 47,
            "name": "B2",
            "ticks": 4128,
            "time": 4.4177985,
            "velocity": 0.3937007874015748
          },
          {
            "duration": 0.1027395000000002,
            "durationTicks": 96,
            "midi": 67,
            "name": "G4",
            "ticks": 4128,
            "time": 4.4177985,
            "velocity": 0.3937007874015748
          },
          {
            "duration": 0.10273949999999932,
            "durationTicks": 96,
            "midi": 47,
            "name": "B2",
            "ticks": 4224,
            "time": 4.520538,
            "velocity": 0.3937007874015748
          },
          {
            "duration": 0.10273949999999932,
            "durationTicks": 96,
            "midi": 68,
            "name": "G#4",
            "ticks": 4224,
            "time": 4.520538,
            "velocity": 0.3937007874015748
          },
          {
            "duration": 0.1027395000000002,
            "durationTicks": 96,
            "midi": 68,
            "name": "G#4",
            "ticks": 4320,
            "time": 4.6232774999999995,
            "velocity": 0.3937007874015748
          },
          {
            "duration": 0.1027395000000002,
            "durationTicks": 96,
            "midi": 47,
            "name": "B2",
            "ticks": 4320,
            "time": 4.6232774999999995,
            "velocity": 0.3937007874015748
          },
          {
            "duration": 0.1027395000000002,
            "durationTicks": 96,
            "midi": 47,
            "name": "B2",
            "ticks": 4416,
            "time": 4.726017,
            "velocity": 0.3937007874015748
          },
          {
            "duration": 0.1027395000000002,
            "durationTicks": 96,
            "midi": 68,
            "name": "G#4",
            "ticks": 4416,
            "time": 4.726017,
            "velocity": 0.3937007874015748
          },
          {
            "duration": 0.1027395000000002,
            "durationTicks": 96,
            "midi": 68,
            "name": "G#4",
            "ticks": 4512,
            "time": 4.8287565,
            "velocity": 0.3937007874015748
          },
          {
            "duration": 0.1027395000000002,
            "durationTicks": 96,
            "midi": 48,
            "name": "C3",
            "ticks": 4608,
            "time": 4.931496,
            "velocity": 0.3937007874015748
          },
          {
            "duration": 0.1027395000000002,
            "durationTicks": 96,
            "midi": 67,
            "name": "G4",
            "ticks": 4608,
            "time": 4.931496,
            "velocity": 0.3937007874015748
          },
          {
            "duration": 0.1027395000000002,
            "durationTicks": 96,
            "midi": 71,
            "name": "B4",
            "ticks": 4608,
            "time": 4.931496,
            "velocity": 0.3937007874015748
          },
          {
            "duration": 0.10273949999999932,
            "durationTicks": 96,
            "midi": 48,
            "name": "C3",
            "ticks": 4704,
            "time": 5.0342355,
            "velocity": 0.3937007874015748
          },
          {
            "duration": 0.1027395000000002,
            "durationTicks": 96,
            "midi": 48,
            "name": "C3",
            "ticks": 4800,
            "time": 5.136975,
            "velocity": 0.3937007874015748
          },
          {
            "duration": 0.1027395000000002,
            "durationTicks": 96,
            "midi": 67,
            "name": "G4",
            "ticks": 4800,
            "time": 5.136975,
            "velocity": 0.3937007874015748
          },
          {
            "duration": 0.1027395000000002,
            "durationTicks": 96,
            "midi": 68,
            "name": "G#4",
            "ticks": 4896,
            "time": 5.2397145,
            "velocity": 0.3937007874015748
          },
          {
            "duration": 0.1027395000000002,
            "durationTicks": 96,
            "midi": 48,
            "name": "C3",
            "ticks": 4896,
            "time": 5.2397145,
            "velocity": 0.3937007874015748
          },
          {
            "duration": 0.1027395000000002,
            "durationTicks": 96,
            "midi": 67,
            "name": "G4",
            "ticks": 4992,
            "time": 5.342454,
            "velocity": 0.3937007874015748
          },
          {
            "duration": 0.1027395000000002,
            "durationTicks": 96,
            "midi": 48,
            "name": "C3",
            "ticks": 4992,
            "time": 5.342454,
            "velocity": 0.3937007874015748
          },
          {
            "duration": 0.10273949999999932,
            "durationTicks": 96,
            "midi": 67,
            "name": "G4",
            "ticks": 5088,
            "time": 5.4451935,
            "velocity": 0.3937007874015748
          },
          {
            "duration": 0.1027395000000002,
            "durationTicks": 96,
            "midi": 67,
            "name": "G4",
            "ticks": 5184,
            "time": 5.547933,
            "velocity": 0.3937007874015748
          },
          {
            "duration": 0.1027395000000002,
            "durationTicks": 96,
            "midi": 48,
            "name": "C3",
            "ticks": 5280,
            "time": 5.6506725,
            "velocity": 0.3937007874015748
          },
          {
            "duration": 0.1027395000000002,
            "durationTicks": 96,
            "midi": 68,
            "name": "G#4",
            "ticks": 5280,
            "time": 5.6506725,
            "velocity": 0.3937007874015748
          },
          {
            "duration": 0.1027395000000002,
            "durationTicks": 96,
            "midi": 68,
            "name": "G#4",
            "ticks": 5376,
            "time": 5.753412,
            "velocity": 0.3937007874015748
          },
          {
            "duration": 0.1027395000000002,
            "durationTicks": 96,
            "midi": 48,
            "name": "C3",
            "ticks": 5376,
            "time": 5.753412,
            "velocity": 0.3937007874015748
          },
          {
            "duration": 0.10273949999999932,
            "durationTicks": 96,
            "midi": 67,
            "name": "G4",
            "ticks": 5472,
            "time": 5.8561515,
            "velocity": 0.3937007874015748
          },
          {
            "duration": 0.10273949999999932,
            "durationTicks": 96,
            "midi": 48,
            "name": "C3",
            "ticks": 5472,
            "time": 5.8561515,
            "velocity": 0.3937007874015748
          },
          {
            "duration": 0.1027395000000002,
            "durationTicks": 96,
            "midi": 67,
            "name": "G4",
            "ticks": 5568,
            "time": 5.9588909999999995,
            "velocity": 0.3937007874015748
          },
          {
            "duration": 0.1027395000000002,
            "durationTicks": 96,
            "midi": 48,
            "name": "C3",
            "ticks": 5568,
            "time": 5.9588909999999995,
            "velocity": 0.3937007874015748
          },
          {
            "duration": 0.1027395000000002,
            "durationTicks": 96,
            "midi": 67,
            "name": "G4",
            "ticks": 5664,
            "time": 6.0616305,
            "velocity": 0.3937007874015748
          },
          {
            "duration": 0.1027395000000002,
            "durationTicks": 96,
            "midi": 48,
            "name": "C3",
            "ticks": 5760,
            "time": 6.16437,
            "velocity": 0.3937007874015748
          },
          {
            "duration": 0.1027395000000002,
            "durationTicks": 96,
            "midi": 67,
            "name": "G4",
            "ticks": 5760,
            "time": 6.16437,
            "velocity": 0.3937007874015748
          },
          {
            "duration": 0.10273949999999932,
            "durationTicks": 96,
            "midi": 67,
            "name": "G4",
            "ticks": 5856,
            "time": 6.2671095,
            "velocity": 0.3937007874015748
          },
          {
            "duration": 0.1027395000000002,
            "durationTicks": 96,
            "midi": 68,
            "name": "G#4",
            "ticks": 5952,
            "time": 6.369848999999999,
            "velocity": 0.3937007874015748
          },
          {
            "duration": 0.1027395000000002,
            "durationTicks": 96,
            "midi": 48,
            "name": "C3",
            "ticks": 5952,
            "time": 6.369848999999999,
            "velocity": 0.3937007874015748
          },
          {
            "duration": 0.1027395000000002,
            "durationTicks": 96,
            "midi": 48,
            "name": "C3",
            "ticks": 6048,
            "time": 6.4725885,
            "velocity": 0.3937007874015748
          },
          {
            "duration": 0.1027395000000002,
            "durationTicks": 96,
            "midi": 68,
            "name": "G#4",
            "ticks": 6048,
            "time": 6.4725885,
            "velocity": 0.3937007874015748
          },
          {
            "duration": 0.1027395000000002,
            "durationTicks": 96,
            "midi": 72,
            "name": "C5",
            "ticks": 6144,
            "time": 6.575328,
            "velocity": 0.3937007874015748
          },
          {
            "duration": 0.1027395000000002,
            "durationTicks": 96,
            "midi": 47,
            "name": "B2",
            "ticks": 6144,
            "time": 6.575328,
            "velocity": 0.3937007874015748
          },
          {
            "duration": 0.1027395000000002,
            "durationTicks": 96,
            "midi": 67,
            "name": "G4",
            "ticks": 6144,
            "time": 6.575328,
            "velocity": 0.3937007874015748
          },
          {
            "duration": 0.1027395000000002,
            "durationTicks": 96,
            "midi": 67,
            "name": "G4",
            "ticks": 6240,
            "time": 6.6780675,
            "velocity": 0.3937007874015748
          },
          {
            "duration": 0.1027395000000002,
            "durationTicks": 96,
            "midi": 47,
            "name": "B2",
            "ticks": 6240,
            "time": 6.6780675,
            "velocity": 0.3937007874015748
          },
          {
            "duration": 0.10273949999999932,
            "durationTicks": 96,
            "midi": 47,
            "name": "B2",
            "ticks": 6336,
            "time": 6.780807,
            "velocity": 0.3937007874015748
          },
          {
            "duration": 0.10273949999999932,
            "durationTicks": 96,
            "midi": 68,
            "name": "G#4",
            "ticks": 6336,
            "time": 6.780807,
            "velocity": 0.3937007874015748
          },
          {
            "duration": 0.1027395000000002,
            "durationTicks": 96,
            "midi": 67,
            "name": "G4",
            "ticks": 6432,
            "time": 6.8835465,
            "velocity": 0.3937007874015748
          },
          {
            "duration": 0.1027395000000002,
            "durationTicks": 96,
            "midi": 47,
            "name": "B2",
            "ticks": 6528,
            "time": 6.986286,
            "velocity": 0.3937007874015748
          },
          {
            "duration": 0.1027395000000002,
            "durationTicks": 96,
            "midi": 67,
            "name": "G4",
            "ticks": 6528,
            "time": 6.986286,
            "velocity": 0.3937007874015748
          },
          {
            "duration": 0.1027395000000002,
            "durationTicks": 96,
            "midi": 67,
            "name": "G4",
            "ticks": 6624,
            "time": 7.0890255,
            "velocity": 0.3937007874015748
          },
          {
            "duration": 0.10273949999999932,
            "durationTicks": 96,
            "midi": 47,
            "name": "B2",
            "ticks": 6720,
            "time": 7.191765,
            "velocity": 0.3937007874015748
          },
          {
            "duration": 0.10273949999999932,
            "durationTicks": 96,
            "midi": 67,
            "name": "G4",
            "ticks": 6720,
            "time": 7.191765,
            "velocity": 0.3937007874015748
          },
          {
            "duration": 0.1027395000000002,
            "durationTicks": 96,
            "midi": 47,
            "name": "B2",
            "ticks": 6816,
            "time": 7.2945044999999995,
            "velocity": 0.3937007874015748
          },
          {
            "duration": 0.1027395000000002,
            "durationTicks": 96,
            "midi": 67,
            "name": "G4",
            "ticks": 6816,
            "time": 7.2945044999999995,
            "velocity": 0.3937007874015748
          },
          {
            "duration": 0.1027395000000002,
            "durationTicks": 96,
            "midi": 67,
            "name": "G4",
            "ticks": 6912,
            "time": 7.397244,
            "velocity": 0.3937007874015748
          },
          {
            "duration": 0.1027395000000002,
            "durationTicks": 96,
            "midi": 68,
            "name": "G#4",
            "ticks": 7008,
            "time": 7.4999835,
            "velocity": 0.3937007874015748
          },
          {
            "duration": 0.1027395000000002,
            "durationTicks": 96,
            "midi": 47,
            "name": "B2",
            "ticks": 7008,
            "time": 7.4999835,
            "velocity": 0.3937007874015748
          },
          {
            "duration": 0.10273949999999932,
            "durationTicks": 96,
            "midi": 67,
            "name": "G4",
            "ticks": 7104,
            "time": 7.602723,
            "velocity": 0.3937007874015748
          },
          {
            "duration": 0.1027395000000002,
            "durationTicks": 96,
            "midi": 67,
            "name": "G4",
            "ticks": 7200,
            "time": 7.705462499999999,
            "velocity": 0.3937007874015748
          },
          {
            "duration": 0.1027395000000002,
            "durationTicks": 96,
            "midi": 47,
            "name": "B2",
            "ticks": 7200,
            "time": 7.705462499999999,
            "velocity": 0.3937007874015748
          },
          {
            "duration": 0.1027395000000002,
            "durationTicks": 96,
            "midi": 47,
            "name": "B2",
            "ticks": 7296,
            "time": 7.808202,
            "velocity": 0.3937007874015748
          },
          {
            "duration": 0.1027395000000002,
            "durationTicks": 96,
            "midi": 68,
            "name": "G#4",
            "ticks": 7296,
            "time": 7.808202,
            "velocity": 0.3937007874015748
          },
          {
            "duration": 0.1027395000000002,
            "durationTicks": 96,
            "midi": 68,
            "name": "G#4",
            "ticks": 7392,
            "time": 7.9109415,
            "velocity": 0.3937007874015748
          },
          {
            "duration": 0.1027395000000002,
            "durationTicks": 96,
            "midi": 47,
            "name": "B2",
            "ticks": 7392,
            "time": 7.9109415,
            "velocity": 0.3937007874015748
          },
          {
            "duration": 0.1027395000000002,
            "durationTicks": 96,
            "midi": 47,
            "name": "B2",
            "ticks": 7488,
            "time": 8.013681,
            "velocity": 0.3937007874015748
          },
          {
            "duration": 0.1027395000000002,
            "durationTicks": 96,
            "midi": 68,
            "name": "G#4",
            "ticks": 7488,
            "time": 8.013681,
            "velocity": 0.3937007874015748
          },
          {
            "duration": 0.1027395000000002,
            "durationTicks": 96,
            "midi": 68,
            "name": "G#4",
            "ticks": 7584,
            "time": 8.1164205,
            "velocity": 0.3937007874015748
          },
          {
            "duration": 0.1027395000000002,
            "durationTicks": 96,
            "midi": 48,
            "name": "C3",
            "ticks": 7680,
            "time": 8.21916,
            "velocity": 0.3937007874015748
          },
          {
            "duration": 0.1027395000000002,
            "durationTicks": 96,
            "midi": 67,
            "name": "G4",
            "ticks": 7680,
            "time": 8.21916,
            "velocity": 0.3937007874015748
          },
          {
            "duration": 0.1027395000000002,
            "durationTicks": 96,
            "midi": 71,
            "name": "B4",
            "ticks": 7680,
            "time": 8.21916,
            "velocity": 0.3937007874015748
          },
          {
            "duration": 0.10273949999999843,
            "durationTicks": 96,
            "midi": 48,
            "name": "C3",
            "ticks": 7776,
            "time": 8.3218995,
            "velocity": 0.3937007874015748
          },
          {
            "duration": 0.1027395000000002,
            "durationTicks": 96,
            "midi": 67,
            "name": "G4",
            "ticks": 7872,
            "time": 8.424638999999999,
            "velocity": 0.3937007874015748
          },
          {
            "duration": 0.1027395000000002,
            "durationTicks": 96,
            "midi": 48,
            "name": "C3",
            "ticks": 7872,
            "time": 8.424638999999999,
            "velocity": 0.3937007874015748
          },
          {
            "duration": 0.1027395000000002,
            "durationTicks": 96,
            "midi": 48,
            "name": "C3",
            "ticks": 7968,
            "time": 8.5273785,
            "velocity": 0.3937007874015748
          },
          {
            "duration": 0.1027395000000002,
            "durationTicks": 96,
            "midi": 68,
            "name": "G#4",
            "ticks": 7968,
            "time": 8.5273785,
            "velocity": 0.3937007874015748
          },
          {
            "duration": 0.1027395000000002,
            "durationTicks": 96,
            "midi": 67,
            "name": "G4",
            "ticks": 8064,
            "time": 8.630118,
            "velocity": 0.3937007874015748
          },
          {
            "duration": 0.1027395000000002,
            "durationTicks": 96,
            "midi": 48,
            "name": "C3",
            "ticks": 8064,
            "time": 8.630118,
            "velocity": 0.3937007874015748
          },
          {
            "duration": 0.1027395000000002,
            "durationTicks": 96,
            "midi": 67,
            "name": "G4",
            "ticks": 8160,
            "time": 8.7328575,
            "velocity": 0.3937007874015748
          },
          {
            "duration": 0.1027395000000002,
            "durationTicks": 96,
            "midi": 67,
            "name": "G4",
            "ticks": 8256,
            "time": 8.835597,
            "velocity": 0.3937007874015748
          },
          {
            "duration": 0.1027395000000002,
            "durationTicks": 96,
            "midi": 68,
            "name": "G#4",
            "ticks": 8352,
            "time": 8.9383365,
            "velocity": 0.3937007874015748
          },
          {
            "duration": 0.1027395000000002,
            "durationTicks": 96,
            "midi": 48,
            "name": "C3",
            "ticks": 8352,
            "time": 8.9383365,
            "velocity": 0.3937007874015748
          },
          {
            "duration": 0.1027395000000002,
            "durationTicks": 96,
            "midi": 48,
            "name": "C3",
            "ticks": 8448,
            "time": 9.041076,
            "velocity": 0.3937007874015748
          },
          {
            "duration": 0.1027395000000002,
            "durationTicks": 96,
            "midi": 68,
            "name": "G#4",
            "ticks": 8448,
            "time": 9.041076,
            "velocity": 0.3937007874015748
          },
          {
            "duration": 0.10273949999999843,
            "durationTicks": 96,
            "midi": 67,
            "name": "G4",
            "ticks": 8544,
            "time": 9.1438155,
            "velocity": 0.3937007874015748
          },
          {
            "duration": 0.10273949999999843,
            "durationTicks": 96,
            "midi": 48,
            "name": "C3",
            "ticks": 8544,
            "time": 9.1438155,
            "velocity": 0.3937007874015748
          },
          {
            "duration": 0.1027395000000002,
            "durationTicks": 96,
            "midi": 67,
            "name": "G4",
            "ticks": 8640,
            "time": 9.246554999999999,
            "velocity": 0.3937007874015748
          },
          {
            "duration": 0.1027395000000002,
            "durationTicks": 96,
            "midi": 48,
            "name": "C3",
            "ticks": 8640,
            "time": 9.246554999999999,
            "velocity": 0.3937007874015748
          },
          {
            "duration": 0.1027395000000002,
            "durationTicks": 96,
            "midi": 67,
            "name": "G4",
            "ticks": 8736,
            "time": 9.3492945,
            "velocity": 0.3937007874015748
          },
          {
            "duration": 0.1027395000000002,
            "durationTicks": 96,
            "midi": 48,
            "name": "C3",
            "ticks": 8832,
            "time": 9.452034,
            "velocity": 0.3937007874015748
          },
          {
            "duration": 0.1027395000000002,
            "durationTicks": 96,
            "midi": 67,
            "name": "G4",
            "ticks": 8832,
            "time": 9.452034,
            "velocity": 0.3937007874015748
          },
          {
            "duration": 0.1027395000000002,
            "durationTicks": 96,
            "midi": 67,
            "name": "G4",
            "ticks": 8928,
            "time": 9.5547735,
            "velocity": 0.3937007874015748
          },
          {
            "duration": 0.1027395000000002,
            "durationTicks": 96,
            "midi": 48,
            "name": "C3",
            "ticks": 9024,
            "time": 9.657513,
            "velocity": 0.3937007874015748
          },
          {
            "duration": 0.1027395000000002,
            "durationTicks": 96,
            "midi": 68,
            "name": "G#4",
            "ticks": 9024,
            "time": 9.657513,
            "velocity": 0.3937007874015748
          },
          {
            "duration": 0.1027395000000002,
            "durationTicks": 96,
            "midi": 48,
            "name": "C3",
            "ticks": 9120,
            "time": 9.7602525,
            "velocity": 0.3937007874015748
          },
          {
            "duration": 0.1027395000000002,
            "durationTicks": 96,
            "midi": 68,
            "name": "G#4",
            "ticks": 9120,
            "time": 9.7602525,
            "velocity": 0.3937007874015748
          },
          {
            "duration": 0.1027395000000002,
            "durationTicks": 96,
            "midi": 72,
            "name": "C5",
            "ticks": 9216,
            "time": 9.862992,
            "velocity": 0.3937007874015748
          },
          {
            "duration": 0.1027395000000002,
            "durationTicks": 96,
            "midi": 67,
            "name": "G4",
            "ticks": 9216,
            "time": 9.862992,
            "velocity": 0.3937007874015748
          },
          {
            "duration": 0.1027395000000002,
            "durationTicks": 96,
            "midi": 47,
            "name": "B2",
            "ticks": 9216,
            "time": 9.862992,
            "velocity": 0.3937007874015748
          },
          {
            "duration": 0.1027395000000002,
            "durationTicks": 96,
            "midi": 67,
            "name": "G4",
            "ticks": 9312,
            "time": 9.9657315,
            "velocity": 0.3937007874015748
          },
          {
            "duration": 0.1027395000000002,
            "durationTicks": 96,
            "midi": 47,
            "name": "B2",
            "ticks": 9312,
            "time": 9.9657315,
            "velocity": 0.3937007874015748
          },
          {
            "duration": 0.10273949999999843,
            "durationTicks": 96,
            "midi": 68,
            "name": "G#4",
            "ticks": 9408,
            "time": 10.068471,
            "velocity": 0.3937007874015748
          },
          {
            "duration": 0.10273949999999843,
            "durationTicks": 96,
            "midi": 47,
            "name": "B2",
            "ticks": 9408,
            "time": 10.068471,
            "velocity": 0.3937007874015748
          },
          {
            "duration": 0.1027395000000002,
            "durationTicks": 96,
            "midi": 67,
            "name": "G4",
            "ticks": 9504,
            "time": 10.171210499999999,
            "velocity": 0.3937007874015748
          },
          {
            "duration": 0.1027395000000002,
            "durationTicks": 96,
            "midi": 47,
            "name": "B2",
            "ticks": 9600,
            "time": 10.27395,
            "velocity": 0.3937007874015748
          },
          {
            "duration": 0.1027395000000002,
            "durationTicks": 96,
            "midi": 67,
            "name": "G4",
            "ticks": 9600,
            "time": 10.27395,
            "velocity": 0.3937007874015748
          },
          {
            "duration": 0.1027395000000002,
            "durationTicks": 96,
            "midi": 67,
            "name": "G4",
            "ticks": 9696,
            "time": 10.3766895,
            "velocity": 0.3937007874015748
          },
          {
            "duration": 0.1027395000000002,
            "durationTicks": 96,
            "midi": 67,
            "name": "G4",
            "ticks": 9792,
            "time": 10.479429,
            "velocity": 0.3937007874015748
          },
          {
            "duration": 0.1027395000000002,
            "durationTicks": 96,
            "midi": 47,
            "name": "B2",
            "ticks": 9792,
            "time": 10.479429,
            "velocity": 0.3937007874015748
          },
          {
            "duration": 0.1027395000000002,
            "durationTicks": 96,
            "midi": 47,
            "name": "B2",
            "ticks": 9888,
            "time": 10.5821685,
            "velocity": 0.3937007874015748
          },
          {
            "duration": 0.1027395000000002,
            "durationTicks": 96,
            "midi": 67,
            "name": "G4",
            "ticks": 9888,
            "time": 10.5821685,
            "velocity": 0.3937007874015748
          },
          {
            "duration": 0.1027395000000002,
            "durationTicks": 96,
            "midi": 67,
            "name": "G4",
            "ticks": 9984,
            "time": 10.684908,
            "velocity": 0.3937007874015748
          },
          {
            "duration": 0.1027395000000002,
            "durationTicks": 96,
            "midi": 47,
            "name": "B2",
            "ticks": 10080,
            "time": 10.7876475,
            "velocity": 0.3937007874015748
          },
          {
            "duration": 0.1027395000000002,
            "durationTicks": 96,
            "midi": 68,
            "name": "G#4",
            "ticks": 10080,
            "time": 10.7876475,
            "velocity": 0.3937007874015748
          },
          {
            "duration": 0.10273949999999843,
            "durationTicks": 96,
            "midi": 67,
            "name": "G4",
            "ticks": 10176,
            "time": 10.890387,
            "velocity": 0.3937007874015748
          },
          {
            "duration": 0.1027395000000002,
            "durationTicks": 96,
            "midi": 67,
            "name": "G4",
            "ticks": 10272,
            "time": 10.993126499999999,
            "velocity": 0.3937007874015748
          },
          {
            "duration": 0.1027395000000002,
            "durationTicks": 96,
            "midi": 47,
            "name": "B2",
            "ticks": 10272,
            "time": 10.993126499999999,
            "velocity": 0.3937007874015748
          },
          {
            "duration": 0.1027395000000002,
            "durationTicks": 96,
            "midi": 68,
            "name": "G#4",
            "ticks": 10368,
            "time": 11.095866,
            "velocity": 0.3937007874015748
          },
          {
            "duration": 0.1027395000000002,
            "durationTicks": 96,
            "midi": 47,
            "name": "B2",
            "ticks": 10368,
            "time": 11.095866,
            "velocity": 0.3937007874015748
          },
          {
            "duration": 0.1027395000000002,
            "durationTicks": 96,
            "midi": 68,
            "name": "G#4",
            "ticks": 10464,
            "time": 11.1986055,
            "velocity": 0.3937007874015748
          },
          {
            "duration": 0.1027395000000002,
            "durationTicks": 96,
            "midi": 47,
            "name": "B2",
            "ticks": 10464,
            "time": 11.1986055,
            "velocity": 0.3937007874015748
          },
          {
            "duration": 0.1027395000000002,
            "durationTicks": 96,
            "midi": 68,
            "name": "G#4",
            "ticks": 10560,
            "time": 11.301345,
            "velocity": 0.3937007874015748
          },
          {
            "duration": 0.1027395000000002,
            "durationTicks": 96,
            "midi": 47,
            "name": "B2",
            "ticks": 10560,
            "time": 11.301345,
            "velocity": 0.3937007874015748
          },
          {
            "duration": 0.1027395000000002,
            "durationTicks": 96,
            "midi": 68,
            "name": "G#4",
            "ticks": 10656,
            "time": 11.4040845,
            "velocity": 0.3937007874015748
          },
          {
            "duration": 0.1027395000000002,
            "durationTicks": 96,
            "midi": 71,
            "name": "B4",
            "ticks": 10752,
            "time": 11.506824,
            "velocity": 0.3937007874015748
          },
          {
            "duration": 0.1027395000000002,
            "durationTicks": 96,
            "midi": 48,
            "name": "C3",
            "ticks": 10752,
            "time": 11.506824,
            "velocity": 0.3937007874015748
          },
          {
            "duration": 0.1027395000000002,
            "durationTicks": 96,
            "midi": 67,
            "name": "G4",
            "ticks": 10752,
            "time": 11.506824,
            "velocity": 0.3937007874015748
          },
          {
            "duration": 0.1027395000000002,
            "durationTicks": 96,
            "midi": 48,
            "name": "C3",
            "ticks": 10848,
            "time": 11.6095635,
            "velocity": 0.3937007874015748
          },
          {
            "duration": 0.1027395000000002,
            "durationTicks": 96,
            "midi": 48,
            "name": "C3",
            "ticks": 10944,
            "time": 11.712303,
            "velocity": 0.3937007874015748
          },
          {
            "duration": 0.1027395000000002,
            "durationTicks": 96,
            "midi": 67,
            "name": "G4",
            "ticks": 10944,
            "time": 11.712303,
            "velocity": 0.3937007874015748
          },
          {
            "duration": 0.10273949999999843,
            "durationTicks": 96,
            "midi": 68,
            "name": "G#4",
            "ticks": 11040,
            "time": 11.8150425,
            "velocity": 0.3937007874015748
          },
          {
            "duration": 0.10273949999999843,
            "durationTicks": 96,
            "midi": 48,
            "name": "C3",
            "ticks": 11040,
            "time": 11.8150425,
            "velocity": 0.3937007874015748
          },
          {
            "duration": 0.1027395000000002,
            "durationTicks": 96,
            "midi": 48,
            "name": "C3",
            "ticks": 11136,
            "time": 11.917781999999999,
            "velocity": 0.3937007874015748
          },
          {
            "duration": 0.1027395000000002,
            "durationTicks": 96,
            "midi": 67,
            "name": "G4",
            "ticks": 11136,
            "time": 11.917781999999999,
            "velocity": 0.3937007874015748
          },
          {
            "duration": 0.1027395000000002,
            "durationTicks": 96,
            "midi": 67,
            "name": "G4",
            "ticks": 11232,
            "time": 12.0205215,
            "velocity": 0.3937007874015748
          },
          {
            "duration": 0.1027395000000002,
            "durationTicks": 96,
            "midi": 67,
            "name": "G4",
            "ticks": 11328,
            "time": 12.123261,
            "velocity": 0.3937007874015748
          },
          {
            "duration": 0.1027395000000002,
            "durationTicks": 96,
            "midi": 48,
            "name": "C3",
            "ticks": 11424,
            "time": 12.2260005,
            "velocity": 0.3937007874015748
          },
          {
            "duration": 0.1027395000000002,
            "durationTicks": 96,
            "midi": 68,
            "name": "G#4",
            "ticks": 11424,
            "time": 12.2260005,
            "velocity": 0.3937007874015748
          },
          {
            "duration": 0.1027395000000002,
            "durationTicks": 96,
            "midi": 68,
            "name": "G#4",
            "ticks": 11520,
            "time": 12.32874,
            "velocity": 0.3937007874015748
          },
          {
            "duration": 0.1027395000000002,
            "durationTicks": 96,
            "midi": 48,
            "name": "C3",
            "ticks": 11520,
            "time": 12.32874,
            "velocity": 0.3937007874015748
          },
          {
            "duration": 0.1027395000000002,
            "durationTicks": 96,
            "midi": 48,
            "name": "C3",
            "ticks": 11616,
            "time": 12.4314795,
            "velocity": 0.3937007874015748
          },
          {
            "duration": 0.1027395000000002,
            "durationTicks": 96,
            "midi": 67,
            "name": "G4",
            "ticks": 11616,
            "time": 12.4314795,
            "velocity": 0.3937007874015748
          },
          {
            "duration": 0.1027395000000002,
            "durationTicks": 96,
            "midi": 67,
            "name": "G4",
            "ticks": 11712,
            "time": 12.534219,
            "velocity": 0.3937007874015748
          },
          {
            "duration": 0.1027395000000002,
            "durationTicks": 96,
            "midi": 48,
            "name": "C3",
            "ticks": 11712,
            "time": 12.534219,
            "velocity": 0.3937007874015748
          },
          {
            "duration": 0.10273949999999843,
            "durationTicks": 96,
            "midi": 67,
            "name": "G4",
            "ticks": 11808,
            "time": 12.6369585,
            "velocity": 0.3937007874015748
          },
          {
            "duration": 0.1027395000000002,
            "durationTicks": 96,
            "midi": 48,
            "name": "C3",
            "ticks": 11904,
            "time": 12.739697999999999,
            "velocity": 0.3937007874015748
          },
          {
            "duration": 0.1027395000000002,
            "durationTicks": 96,
            "midi": 67,
            "name": "G4",
            "ticks": 11904,
            "time": 12.739697999999999,
            "velocity": 0.3937007874015748
          },
          {
            "duration": 0.1027395000000002,
            "durationTicks": 96,
            "midi": 67,
            "name": "G4",
            "ticks": 12000,
            "time": 12.842437499999999,
            "velocity": 0.3937007874015748
          },
          {
            "duration": 0.1027395000000002,
            "durationTicks": 96,
            "midi": 48,
            "name": "C3",
            "ticks": 12096,
            "time": 12.945177,
            "velocity": 0.3937007874015748
          },
          {
            "duration": 0.1027395000000002,
            "durationTicks": 96,
            "midi": 68,
            "name": "G#4",
            "ticks": 12096,
            "time": 12.945177,
            "velocity": 0.3937007874015748
          },
          {
            "duration": 0.1027395000000002,
            "durationTicks": 96,
            "midi": 67,
            "name": "G4",
            "ticks": 12192,
            "time": 13.0479165,
            "velocity": 0.3937007874015748
          },
          {
            "duration": 0.1027395000000002,
            "durationTicks": 96,
            "midi": 47,
            "name": "B2",
            "ticks": 12192,
            "time": 13.0479165,
            "velocity": 0.3937007874015748
          },
          {
            "duration": 0.1027395000000002,
            "durationTicks": 96,
            "midi": 71,
            "name": "B4",
            "ticks": 12288,
            "time": 13.150656,
            "velocity": 0.3937007874015748
          },
          {
            "duration": 0.1027395000000002,
            "durationTicks": 96,
            "midi": 68,
            "name": "G#4",
            "ticks": 12288,
            "time": 13.150656,
            "velocity": 0.3937007874015748
          },
          {
            "duration": 0.1027395000000002,
            "durationTicks": 96,
            "midi": 67,
            "name": "G4",
            "ticks": 12288,
            "time": 13.150656,
            "velocity": 0.3937007874015748
          },
          {
            "duration": 0.1027395000000002,
            "durationTicks": 96,
            "midi": 63,
            "name": "D#4",
            "ticks": 12288,
            "time": 13.150656,
            "velocity": 0.3937007874015748
          },
          {
            "duration": 0.1027395000000002,
            "durationTicks": 96,
            "midi": 67,
            "name": "G4",
            "ticks": 12384,
            "time": 13.2533955,
            "velocity": 0.3937007874015748
          },
          {
            "duration": 0.1027395000000002,
            "durationTicks": 96,
            "midi": 67,
            "name": "G4",
            "ticks": 12480,
            "time": 13.356135,
            "velocity": 0.3937007874015748
          },
          {
            "duration": 0.1027395000000002,
            "durationTicks": 96,
            "midi": 67,
            "name": "G4",
            "ticks": 12576,
            "time": 13.4588745,
            "velocity": 0.3937007874015748
          },
          {
            "duration": 0.1027395000000002,
            "durationTicks": 96,
            "midi": 68,
            "name": "G#4",
            "ticks": 12576,
            "time": 13.4588745,
            "velocity": 0.3937007874015748
          },
          {
            "duration": 0.10273949999999843,
            "durationTicks": 96,
            "midi": 67,
            "name": "G4",
            "ticks": 12672,
            "time": 13.561614,
            "velocity": 0.3937007874015748
          },
          {
            "duration": 0.10273949999999843,
            "durationTicks": 96,
            "midi": 64,
            "name": "E4",
            "ticks": 12672,
            "time": 13.561614,
            "velocity": 0.3937007874015748
          },
          {
            "duration": 0.10273949999999843,
            "durationTicks": 96,
            "midi": 71,
            "name": "B4",
            "ticks": 12672,
            "time": 13.561614,
            "velocity": 0.3937007874015748
          },
          {
            "duration": 0.1027395000000002,
            "durationTicks": 96,
            "midi": 68,
            "name": "G#4",
            "ticks": 12768,
            "time": 13.664353499999999,
            "velocity": 0.3937007874015748
          },
          {
            "duration": 0.1027395000000002,
            "durationTicks": 96,
            "midi": 63,
            "name": "D#4",
            "ticks": 12864,
            "time": 13.767093,
            "velocity": 0.3937007874015748
          },
          {
            "duration": 0.1027395000000002,
            "durationTicks": 96,
            "midi": 68,
            "name": "G#4",
            "ticks": 12864,
            "time": 13.767093,
            "velocity": 0.3937007874015748
          },
          {
            "duration": 0.1027395000000002,
            "durationTicks": 96,
            "midi": 67,
            "name": "G4",
            "ticks": 12960,
            "time": 13.8698325,
            "velocity": 0.3937007874015748
          },
          {
            "duration": 0.1027395000000002,
            "durationTicks": 96,
            "midi": 64,
            "name": "E4",
            "ticks": 13056,
            "time": 13.972572,
            "velocity": 0.3937007874015748
          },
          {
            "duration": 0.1027395000000002,
            "durationTicks": 96,
            "midi": 72,
            "name": "C5",
            "ticks": 13056,
            "time": 13.972572,
            "velocity": 0.3937007874015748
          },
          {
            "duration": 0.1027395000000002,
            "durationTicks": 96,
            "midi": 67,
            "name": "G4",
            "ticks": 13056,
            "time": 13.972572,
            "velocity": 0.3937007874015748
          },
          {
            "duration": 0.1027395000000002,
            "durationTicks": 96,
            "midi": 63,
            "name": "D#4",
            "ticks": 13152,
            "time": 14.0753115,
            "velocity": 0.3937007874015748
          },
          {
            "duration": 0.1027395000000002,
            "durationTicks": 96,
            "midi": 68,
            "name": "G#4",
            "ticks": 13152,
            "time": 14.0753115,
            "velocity": 0.3937007874015748
          },
          {
            "duration": 0.1027395000000002,
            "durationTicks": 96,
            "midi": 67,
            "name": "G4",
            "ticks": 13248,
            "time": 14.178051,
            "velocity": 0.3937007874015748
          },
          {
            "duration": 0.1027395000000002,
            "durationTicks": 96,
            "midi": 67,
            "name": "G4",
            "ticks": 13344,
            "time": 14.2807905,
            "velocity": 0.3937007874015748
          },
          {
            "duration": 0.10273949999999843,
            "durationTicks": 96,
            "midi": 72,
            "name": "C5",
            "ticks": 13440,
            "time": 14.38353,
            "velocity": 0.3937007874015748
          },
          {
            "duration": 0.10273949999999843,
            "durationTicks": 96,
            "midi": 63,
            "name": "D#4",
            "ticks": 13440,
            "time": 14.38353,
            "velocity": 0.3937007874015748
          },
          {
            "duration": 0.10273949999999843,
            "durationTicks": 96,
            "midi": 68,
            "name": "G#4",
            "ticks": 13440,
            "time": 14.38353,
            "velocity": 0.3937007874015748
          },
          {
            "duration": 0.1027395000000002,
            "durationTicks": 96,
            "midi": 67,
            "name": "G4",
            "ticks": 13536,
            "time": 14.486269499999999,
            "velocity": 0.3937007874015748
          },
          {
            "duration": 0.1027395000000002,
            "durationTicks": 96,
            "midi": 68,
            "name": "G#4",
            "ticks": 13536,
            "time": 14.486269499999999,
            "velocity": 0.3937007874015748
          },
          {
            "duration": 0.1027395000000002,
            "durationTicks": 96,
            "midi": 67,
            "name": "G4",
            "ticks": 13632,
            "time": 14.589008999999999,
            "velocity": 0.3937007874015748
          },
          {
            "duration": 0.1027395000000002,
            "durationTicks": 96,
            "midi": 64,
            "name": "E4",
            "ticks": 13632,
            "time": 14.589008999999999,
            "velocity": 0.3937007874015748
          },
          {
            "duration": 0.1027395000000002,
            "durationTicks": 96,
            "midi": 67,
            "name": "G4",
            "ticks": 13728,
            "time": 14.6917485,
            "velocity": 0.3937007874015748
          },
          {
            "duration": 0.1027395000000002,
            "durationTicks": 96,
            "midi": 71,
            "name": "B4",
            "ticks": 13824,
            "time": 14.794488,
            "velocity": 0.3937007874015748
          },
          {
            "duration": 0.1027395000000002,
            "durationTicks": 96,
            "midi": 68,
            "name": "G#4",
            "ticks": 13824,
            "time": 14.794488,
            "velocity": 0.3937007874015748
          },
          {
            "duration": 0.1027395000000002,
            "durationTicks": 96,
            "midi": 63,
            "name": "D#4",
            "ticks": 13824,
            "time": 14.794488,
            "velocity": 0.3937007874015748
          },
          {
            "duration": 0.1027395000000002,
            "durationTicks": 96,
            "midi": 67,
            "name": "G4",
            "ticks": 13824,
            "time": 14.794488,
            "velocity": 0.3937007874015748
          },
          {
            "duration": 0.1027395000000002,
            "durationTicks": 96,
            "midi": 67,
            "name": "G4",
            "ticks": 13920,
            "time": 14.8972275,
            "velocity": 0.3937007874015748
          },
          {
            "duration": 0.1027395000000002,
            "durationTicks": 96,
            "midi": 63,
            "name": "D#4",
            "ticks": 14016,
            "time": 14.999967,
            "velocity": 0.3937007874015748
          },
          {
            "duration": 0.1027395000000002,
            "durationTicks": 96,
            "midi": 68,
            "name": "G#4",
            "ticks": 14016,
            "time": 14.999967,
            "velocity": 0.3937007874015748
          },
          {
            "duration": 0.1027395000000002,
            "durationTicks": 96,
            "midi": 67,
            "name": "G4",
            "ticks": 14112,
            "time": 15.1027065,
            "velocity": 0.3937007874015748
          },
          {
            "duration": 0.1027395000000002,
            "durationTicks": 96,
            "midi": 67,
            "name": "G4",
            "ticks": 14208,
            "time": 15.205446,
            "velocity": 0.3937007874015748
          },
          {
            "duration": 0.1027395000000002,
            "durationTicks": 96,
            "midi": 71,
            "name": "B4",
            "ticks": 14208,
            "time": 15.205446,
            "velocity": 0.3937007874015748
          },
          {
            "duration": 0.1027395000000002,
            "durationTicks": 96,
            "midi": 64,
            "name": "E4",
            "ticks": 14208,
            "time": 15.205446,
            "velocity": 0.3937007874015748
          },
          {
            "duration": 0.10273949999999843,
            "durationTicks": 96,
            "midi": 68,
            "name": "G#4",
            "ticks": 14304,
            "time": 15.3081855,
            "velocity": 0.3937007874015748
          },
          {
            "duration": 0.1027395000000002,
            "durationTicks": 96,
            "midi": 67,
            "name": "G4",
            "ticks": 14400,
            "time": 15.410924999999999,
            "velocity": 0.3937007874015748
          },
          {
            "duration": 0.1027395000000002,
            "durationTicks": 96,
            "midi": 64,
            "name": "E4",
            "ticks": 14496,
            "time": 15.513664499999999,
            "velocity": 0.3937007874015748
          },
          {
            "duration": 0.1027395000000002,
            "durationTicks": 96,
            "midi": 67,
            "name": "G4",
            "ticks": 14496,
            "time": 15.513664499999999,
            "velocity": 0.3937007874015748
          },
          {
            "duration": 0.1027395000000002,
            "durationTicks": 96,
            "midi": 72,
            "name": "C5",
            "ticks": 14592,
            "time": 15.616404,
            "velocity": 0.3937007874015748
          },
          {
            "duration": 0.1027395000000002,
            "durationTicks": 96,
            "midi": 68,
            "name": "G#4",
            "ticks": 14592,
            "time": 15.616404,
            "velocity": 0.3937007874015748
          },
          {
            "duration": 0.1027395000000002,
            "durationTicks": 96,
            "midi": 63,
            "name": "D#4",
            "ticks": 14592,
            "time": 15.616404,
            "velocity": 0.3937007874015748
          },
          {
            "duration": 0.1027395000000002,
            "durationTicks": 96,
            "midi": 67,
            "name": "G4",
            "ticks": 14688,
            "time": 15.7191435,
            "velocity": 0.3937007874015748
          },
          {
            "duration": 0.1027395000000002,
            "durationTicks": 96,
            "midi": 67,
            "name": "G4",
            "ticks": 14784,
            "time": 15.821883,
            "velocity": 0.3937007874015748
          },
          {
            "duration": 0.1027395000000002,
            "durationTicks": 96,
            "midi": 64,
            "name": "E4",
            "ticks": 14784,
            "time": 15.821883,
            "velocity": 0.3937007874015748
          },
          {
            "duration": 0.1027395000000002,
            "durationTicks": 96,
            "midi": 63,
            "name": "D#4",
            "ticks": 14880,
            "time": 15.9246225,
            "velocity": 0.3937007874015748
          },
          {
            "duration": 0.1027395000000002,
            "durationTicks": 96,
            "midi": 67,
            "name": "G4",
            "ticks": 14880,
            "time": 15.9246225,
            "velocity": 0.3937007874015748
          },
          {
            "duration": 0.10273949999999843,
            "durationTicks": 96,
            "midi": 67,
            "name": "G4",
            "ticks": 14976,
            "time": 16.027362,
            "velocity": 0.3937007874015748
          },
          {
            "duration": 0.10273949999999843,
            "durationTicks": 96,
            "midi": 72,
            "name": "C5",
            "ticks": 14976,
            "time": 16.027362,
            "velocity": 0.3937007874015748
          },
          {
            "duration": 0.10273950000000198,
            "durationTicks": 96,
            "midi": 67,
            "name": "G4",
            "ticks": 15072,
            "time": 16.1301015,
            "velocity": 0.3937007874015748
          },
          {
            "duration": 0.10273950000000198,
            "durationTicks": 96,
            "midi": 64,
            "name": "E4",
            "ticks": 15072,
            "time": 16.1301015,
            "velocity": 0.3937007874015748
          },
          {
            "duration": 0.10273949999999843,
            "durationTicks": 96,
            "midi": 67,
            "name": "G4",
            "ticks": 15168,
            "time": 16.232841,
            "velocity": 0.3937007874015748
          },
          {
            "duration": 0.10273950000000198,
            "durationTicks": 96,
            "midi": 67,
            "name": "G4",
            "ticks": 15264,
            "time": 16.3355805,
            "velocity": 0.3937007874015748
          },
          {
            "duration": 0.10273950000000198,
            "durationTicks": 96,
            "midi": 63,
            "name": "D#4",
            "ticks": 15264,
            "time": 16.3355805,
            "velocity": 0.3937007874015748
          },
          {
            "duration": 0.10273950000000198,
            "durationTicks": 96,
            "midi": 71,
            "name": "B4",
            "ticks": 15264,
            "time": 16.3355805,
            "velocity": 0.3937007874015748
          },
          {
            "duration": 0.10273949999999843,
            "durationTicks": 96,
            "midi": 74,
            "name": "D5",
            "ticks": 15360,
            "time": 16.43832,
            "velocity": 0.3937007874015748
          },
          {
            "duration": 0.10273949999999843,
            "durationTicks": 96,
            "midi": 63,
            "name": "D#4",
            "ticks": 15360,
            "time": 16.43832,
            "velocity": 0.3937007874015748
          },
          {
            "duration": 0.10273949999999843,
            "durationTicks": 96,
            "midi": 50,
            "name": "D3",
            "ticks": 15360,
            "time": 16.43832,
            "velocity": 0.3937007874015748
          },
          {
            "duration": 0.10273949999999843,
            "durationTicks": 96,
            "midi": 73,
            "name": "C#5",
            "ticks": 15360,
            "time": 16.43832,
            "velocity": 0.3937007874015748
          },
          {
            "duration": 0.10273949999999843,
            "durationTicks": 96,
            "midi": 56,
            "name": "G#3",
            "ticks": 15360,
            "time": 16.43832,
            "velocity": 0.3937007874015748
          },
          {
            "duration": 0.10273949999999843,
            "durationTicks": 96,
            "midi": 67,
            "name": "G4",
            "ticks": 15360,
            "time": 16.43832,
            "velocity": 0.3937007874015748
          },
          {
            "duration": 0.10273949999999843,
            "durationTicks": 96,
            "midi": 68,
            "name": "G#4",
            "ticks": 15360,
            "time": 16.43832,
            "velocity": 0.3937007874015748
          },
          {
            "duration": 0.10273950000000198,
            "durationTicks": 96,
            "midi": 67,
            "name": "G4",
            "ticks": 15456,
            "time": 16.5410595,
            "velocity": 0.3937007874015748
          },
          {
            "duration": 0.10273949999999843,
            "durationTicks": 96,
            "midi": 67,
            "name": "G4",
            "ticks": 15552,
            "time": 16.643799,
            "velocity": 0.3937007874015748
          },
          {
            "duration": 0.10273949999999843,
            "durationTicks": 96,
            "midi": 68,
            "name": "G#4",
            "ticks": 15648,
            "time": 16.7465385,
            "velocity": 0.3937007874015748
          },
          {
            "duration": 0.10273949999999843,
            "durationTicks": 96,
            "midi": 67,
            "name": "G4",
            "ticks": 15648,
            "time": 16.7465385,
            "velocity": 0.3937007874015748
          },
          {
            "duration": 0.10273950000000198,
            "durationTicks": 96,
            "midi": 67,
            "name": "G4",
            "ticks": 15744,
            "time": 16.849277999999998,
            "velocity": 0.3937007874015748
          },
          {
            "duration": 0.10273950000000198,
            "durationTicks": 96,
            "midi": 64,
            "name": "E4",
            "ticks": 15744,
            "time": 16.849277999999998,
            "velocity": 0.3937007874015748
          },
          {
            "duration": 0.10273950000000198,
            "durationTicks": 96,
            "midi": 71,
            "name": "B4",
            "ticks": 15744,
            "time": 16.849277999999998,
            "velocity": 0.3937007874015748
          },
          {
            "duration": 0.10273949999999843,
            "durationTicks": 96,
            "midi": 68,
            "name": "G#4",
            "ticks": 15840,
            "time": 16.9520175,
            "velocity": 0.3937007874015748
          },
          {
            "duration": 0.10273950000000198,
            "durationTicks": 96,
            "midi": 68,
            "name": "G#4",
            "ticks": 15936,
            "time": 17.054757,
            "velocity": 0.3937007874015748
          },
          {
            "duration": 0.10273950000000198,
            "durationTicks": 96,
            "midi": 63,
            "name": "D#4",
            "ticks": 15936,
            "time": 17.054757,
            "velocity": 0.3937007874015748
          },
          {
            "duration": 0.10273949999999843,
            "durationTicks": 96,
            "midi": 67,
            "name": "G4",
            "ticks": 16032,
            "time": 17.1574965,
            "velocity": 0.3937007874015748
          },
          {
            "duration": 0.10273950000000198,
            "durationTicks": 96,
            "midi": 67,
            "name": "G4",
            "ticks": 16128,
            "time": 17.260236,
            "velocity": 0.3937007874015748
          },
          {
            "duration": 0.10273950000000198,
            "durationTicks": 96,
            "midi": 56,
            "name": "G#3",
            "ticks": 16128,
            "time": 17.260236,
            "velocity": 0.3937007874015748
          },
          {
            "duration": 0.10273950000000198,
            "durationTicks": 96,
            "midi": 64,
            "name": "E4",
            "ticks": 16128,
            "time": 17.260236,
            "velocity": 0.3937007874015748
          },
          {
            "duration": 0.10273950000000198,
            "durationTicks": 96,
            "midi": 73,
            "name": "C#5",
            "ticks": 16128,
            "time": 17.260236,
            "velocity": 0.3937007874015748
          },
          {
            "duration": 0.10273950000000198,
            "durationTicks": 96,
            "midi": 74,
            "name": "D5",
            "ticks": 16128,
            "time": 17.260236,
            "velocity": 0.3937007874015748
          },
          {
            "duration": 0.10273950000000198,
            "durationTicks": 96,
            "midi": 72,
            "name": "C5",
            "ticks": 16128,
            "time": 17.260236,
            "velocity": 0.3937007874015748
          },
          {
            "duration": 0.10273950000000198,
            "durationTicks": 96,
            "midi": 48,
            "name": "C3",
            "ticks": 16128,
            "time": 17.260236,
            "velocity": 0.3937007874015748
          },
          {
            "duration": 0.10273949999999843,
            "durationTicks": 96,
            "midi": 68,
            "name": "G#4",
            "ticks": 16224,
            "time": 17.3629755,
            "velocity": 0.3937007874015748
          },
          {
            "duration": 0.10273949999999843,
            "durationTicks": 96,
            "midi": 63,
            "name": "D#4",
            "ticks": 16224,
            "time": 17.3629755,
            "velocity": 0.3937007874015748
          },
          {
            "duration": 0.10273949999999843,
            "durationTicks": 96,
            "midi": 67,
            "name": "G4",
            "ticks": 16320,
            "time": 17.465715,
            "velocity": 0.3937007874015748
          },
          {
            "duration": 0.10273950000000198,
            "durationTicks": 96,
            "midi": 67,
            "name": "G4",
            "ticks": 16416,
            "time": 17.568454499999998,
            "velocity": 0.3937007874015748
          },
          {
            "duration": 0.10273949999999843,
            "durationTicks": 96,
            "midi": 72,
            "name": "C5",
            "ticks": 16512,
            "time": 17.671194,
            "velocity": 0.3937007874015748
          },
          {
            "duration": 0.10273949999999843,
            "durationTicks": 96,
            "midi": 68,
            "name": "G#4",
            "ticks": 16512,
            "time": 17.671194,
            "velocity": 0.3937007874015748
          },
          {
            "duration": 0.10273949999999843,
            "durationTicks": 96,
            "midi": 63,
            "name": "D#4",
            "ticks": 16512,
            "time": 17.671194,
            "velocity": 0.3937007874015748
          },
          {
            "duration": 0.10273950000000198,
            "durationTicks": 96,
            "midi": 68,
            "name": "G#4",
            "ticks": 16608,
            "time": 17.7739335,
            "velocity": 0.3937007874015748
          },
          {
            "duration": 0.10273950000000198,
            "durationTicks": 96,
            "midi": 67,
            "name": "G4",
            "ticks": 16608,
            "time": 17.7739335,
            "velocity": 0.3937007874015748
          },
          {
            "duration": 0.10273949999999843,
            "durationTicks": 96,
            "midi": 64,
            "name": "E4",
            "ticks": 16704,
            "time": 17.876673,
            "velocity": 0.3937007874015748
          },
          {
            "duration": 0.10273949999999843,
            "durationTicks": 96,
            "midi": 67,
            "name": "G4",
            "ticks": 16704,
            "time": 17.876673,
            "velocity": 0.3937007874015748
          },
          {
            "duration": 0.10273950000000198,
            "durationTicks": 96,
            "midi": 67,
            "name": "G4",
            "ticks": 16800,
            "time": 17.9794125,
            "velocity": 0.3937007874015748
          },
          {
            "duration": 0.10273949999999843,
            "durationTicks": 96,
            "midi": 63,
            "name": "D#4",
            "ticks": 16896,
            "time": 18.082152,
            "velocity": 0.3937007874015748
          },
          {
            "duration": 0.10273949999999843,
            "durationTicks": 96,
            "midi": 74,
            "name": "D5",
            "ticks": 16896,
            "time": 18.082152,
            "velocity": 0.3937007874015748
          },
          {
            "duration": 0.10273949999999843,
            "durationTicks": 96,
            "midi": 50,
            "name": "D3",
            "ticks": 16896,
            "time": 18.082152,
            "velocity": 0.3937007874015748
          },
          {
            "duration": 0.10273949999999843,
            "durationTicks": 96,
            "midi": 73,
            "name": "C#5",
            "ticks": 16896,
            "time": 18.082152,
            "velocity": 0.3937007874015748
          },
          {
            "duration": 0.10273949999999843,
            "durationTicks": 96,
            "midi": 68,
            "name": "G#4",
            "ticks": 16896,
            "time": 18.082152,
            "velocity": 0.3937007874015748
          },
          {
            "duration": 0.10273949999999843,
            "durationTicks": 96,
            "midi": 56,
            "name": "G#3",
            "ticks": 16896,
            "time": 18.082152,
            "velocity": 0.3937007874015748
          },
          {
            "duration": 0.10273949999999843,
            "durationTicks": 96,
            "midi": 71,
            "name": "B4",
            "ticks": 16896,
            "time": 18.082152,
            "velocity": 0.3937007874015748
          },
          {
            "duration": 0.10273949999999843,
            "durationTicks": 96,
            "midi": 67,
            "name": "G4",
            "ticks": 16896,
            "time": 18.082152,
            "velocity": 0.3937007874015748
          },
          {
            "duration": 0.10273950000000198,
            "durationTicks": 96,
            "midi": 67,
            "name": "G4",
            "ticks": 16992,
            "time": 18.1848915,
            "velocity": 0.3937007874015748
          },
          {
            "duration": 0.10273949999999843,
            "durationTicks": 96,
            "midi": 68,
            "name": "G#4",
            "ticks": 17088,
            "time": 18.287631,
            "velocity": 0.3937007874015748
          },
          {
            "duration": 0.10273949999999843,
            "durationTicks": 96,
            "midi": 63,
            "name": "D#4",
            "ticks": 17088,
            "time": 18.287631,
            "velocity": 0.3937007874015748
          },
          {
            "duration": 0.10273949999999843,
            "durationTicks": 96,
            "midi": 67,
            "name": "G4",
            "ticks": 17184,
            "time": 18.3903705,
            "velocity": 0.3937007874015748
          },
          {
            "duration": 0.10273950000000198,
            "durationTicks": 96,
            "midi": 74,
            "name": "D5",
            "ticks": 17280,
            "time": 18.493109999999998,
            "velocity": 0.3937007874015748
          },
          {
            "duration": 0.10273950000000198,
            "durationTicks": 96,
            "midi": 67,
            "name": "G4",
            "ticks": 17280,
            "time": 18.493109999999998,
            "velocity": 0.3937007874015748
          },
          {
            "duration": 0.10273950000000198,
            "durationTicks": 96,
            "midi": 73,
            "name": "C#5",
            "ticks": 17280,
            "time": 18.493109999999998,
            "velocity": 0.3937007874015748
          },
          {
            "duration": 0.10273950000000198,
            "durationTicks": 96,
            "midi": 64,
            "name": "E4",
            "ticks": 17280,
            "time": 18.493109999999998,
            "velocity": 0.3937007874015748
          },
          {
            "duration": 0.10273950000000198,
            "durationTicks": 96,
            "midi": 71,
            "name": "B4",
            "ticks": 17280,
            "time": 18.493109999999998,
            "velocity": 0.3937007874015748
          },
          {
            "duration": 0.10273950000000198,
            "durationTicks": 96,
            "midi": 56,
            "name": "G#3",
            "ticks": 17280,
            "time": 18.493109999999998,
            "velocity": 0.3937007874015748
          },
          {
            "duration": 0.10273950000000198,
            "durationTicks": 96,
            "midi": 48,
            "name": "C3",
            "ticks": 17280,
            "time": 18.493109999999998,
            "velocity": 0.3937007874015748
          },
          {
            "duration": 0.10273949999999843,
            "durationTicks": 96,
            "midi": 68,
            "name": "G#4",
            "ticks": 17376,
            "time": 18.5958495,
            "velocity": 0.3937007874015748
          },
          {
            "duration": 0.10273950000000198,
            "durationTicks": 96,
            "midi": 67,
            "name": "G4",
            "ticks": 17472,
            "time": 18.698589,
            "velocity": 0.3937007874015748
          },
          {
            "duration": 0.10273949999999843,
            "durationTicks": 96,
            "midi": 67,
            "name": "G4",
            "ticks": 17568,
            "time": 18.8013285,
            "velocity": 0.3937007874015748
          },
          {
            "duration": 0.10273949999999843,
            "durationTicks": 96,
            "midi": 64,
            "name": "E4",
            "ticks": 17568,
            "time": 18.8013285,
            "velocity": 0.3937007874015748
          },
          {
            "duration": 0.10273950000000198,
            "durationTicks": 96,
            "midi": 73,
            "name": "C#5",
            "ticks": 17664,
            "time": 18.904068,
            "velocity": 0.3937007874015748
          },
          {
            "duration": 0.10273950000000198,
            "durationTicks": 96,
            "midi": 74,
            "name": "D5",
            "ticks": 17664,
            "time": 18.904068,
            "velocity": 0.3937007874015748
          },
          {
            "duration": 0.10273950000000198,
            "durationTicks": 96,
            "midi": 56,
            "name": "G#3",
            "ticks": 17664,
            "time": 18.904068,
            "velocity": 0.3937007874015748
          },
          {
            "duration": 0.10273950000000198,
            "durationTicks": 96,
            "midi": 50,
            "name": "D3",
            "ticks": 17664,
            "time": 18.904068,
            "velocity": 0.3937007874015748
          },
          {
            "duration": 0.10273950000000198,
            "durationTicks": 96,
            "midi": 72,
            "name": "C5",
            "ticks": 17664,
            "time": 18.904068,
            "velocity": 0.3937007874015748
          },
          {
            "duration": 0.10273950000000198,
            "durationTicks": 96,
            "midi": 63,
            "name": "D#4",
            "ticks": 17664,
            "time": 18.904068,
            "velocity": 0.3937007874015748
          },
          {
            "duration": 0.10273950000000198,
            "durationTicks": 96,
            "midi": 68,
            "name": "G#4",
            "ticks": 17664,
            "time": 18.904068,
            "velocity": 0.3937007874015748
          },
          {
            "duration": 0.10273949999999843,
            "durationTicks": 96,
            "midi": 67,
            "name": "G4",
            "ticks": 17760,
            "time": 19.0068075,
            "velocity": 0.3937007874015748
          },
          {
            "duration": 0.10273950000000198,
            "durationTicks": 96,
            "midi": 64,
            "name": "E4",
            "ticks": 17856,
            "time": 19.109547,
            "velocity": 0.3937007874015748
          },
          {
            "duration": 0.10273950000000198,
            "durationTicks": 96,
            "midi": 67,
            "name": "G4",
            "ticks": 17856,
            "time": 19.109547,
            "velocity": 0.3937007874015748
          },
          {
            "duration": 0.10273949999999843,
            "durationTicks": 96,
            "midi": 63,
            "name": "D#4",
            "ticks": 17952,
            "time": 19.2122865,
            "velocity": 0.3937007874015748
          },
          {
            "duration": 0.10273949999999843,
            "durationTicks": 96,
            "midi": 67,
            "name": "G4",
            "ticks": 17952,
            "time": 19.2122865,
            "velocity": 0.3937007874015748
          },
          {
            "duration": 0.10273949999999843,
            "durationTicks": 96,
            "midi": 72,
            "name": "C5",
            "ticks": 18048,
            "time": 19.315026,
            "velocity": 0.3937007874015748
          },
          {
            "duration": 0.10273949999999843,
            "durationTicks": 96,
            "midi": 74,
            "name": "D5",
            "ticks": 18048,
            "time": 19.315026,
            "velocity": 0.3937007874015748
          },
          {
            "duration": 0.10273949999999843,
            "durationTicks": 96,
            "midi": 67,
            "name": "G4",
            "ticks": 18048,
            "time": 19.315026,
            "velocity": 0.3937007874015748
          },
          {
            "duration": 0.10273949999999843,
            "durationTicks": 96,
            "midi": 56,
            "name": "G#3",
            "ticks": 18048,
            "time": 19.315026,
            "velocity": 0.3937007874015748
          },
          {
            "duration": 0.10273949999999843,
            "durationTicks": 96,
            "midi": 73,
            "name": "C#5",
            "ticks": 18048,
            "time": 19.315026,
            "velocity": 0.3937007874015748
          },
          {
            "duration": 0.10273949999999843,
            "durationTicks": 96,
            "midi": 48,
            "name": "C3",
            "ticks": 18048,
            "time": 19.315026,
            "velocity": 0.3937007874015748
          },
          {
            "duration": 0.10273950000000198,
            "durationTicks": 96,
            "midi": 64,
            "name": "E4",
            "ticks": 18144,
            "time": 19.417765499999998,
            "velocity": 0.3937007874015748
          },
          {
            "duration": 0.10273950000000198,
            "durationTicks": 96,
            "midi": 67,
            "name": "G4",
            "ticks": 18144,
            "time": 19.417765499999998,
            "velocity": 0.3937007874015748
          },
          {
            "duration": 0.10273949999999843,
            "durationTicks": 96,
            "midi": 67,
            "name": "G4",
            "ticks": 18240,
            "time": 19.520505,
            "velocity": 0.3937007874015748
          },
          {
            "duration": 0.10273950000000198,
            "durationTicks": 96,
            "midi": 63,
            "name": "D#4",
            "ticks": 18336,
            "time": 19.6232445,
            "velocity": 0.3937007874015748
          },
          {
            "duration": 0.10273950000000198,
            "durationTicks": 96,
            "midi": 67,
            "name": "G4",
            "ticks": 18336,
            "time": 19.6232445,
            "velocity": 0.3937007874015748
          }
        ],
        "endOfTrackTicks": 18432
      }
    ]
  }