{
    "header": {
      "keySignatures": [],
      "meta": [],
      "name": "",
      "ppq": 384,
      "tempos": [
        {
          "bpm": 143.000143000143,
          "ticks": 0
        }
      ],
      "timeSignatures": [
        {
          "ticks": 0,
          "timeSignature": [
            1,
            4
          ],
          "measures": 0
        }
      ]
    },
    "tracks": [
      {
        "channel": 0,
        "controlChanges": {},
        "pitchBends": [],
        "instrument": {
          "family": "piano",
          "number": 0,
          "name": "acoustic grand piano"
        },
        "name": "Elec. Piano (Classic)",
        "notes": [
          {
            "duration": 0.20978999999999814,
            "durationTicks": 192,
            "midi": 34,
            "name": "A#1",
            "ticks": 50688,
            "time": 55.38456,
            "velocity": 0.3937007874015748
          },
          {
            "duration": 0.20979000000000525,
            "durationTicks": 192,
            "midi": 41,
            "name": "F2",
            "ticks": 50880,
            "time": 55.59435,
            "velocity": 0.3937007874015748
          },
          {
            "duration": 0.20978999999999814,
            "durationTicks": 192,
            "midi": 34,
            "name": "A#1",
            "ticks": 51072,
            "time": 55.804140000000004,
            "velocity": 0.3937007874015748
          },
          {
            "duration": 0.20978999999999814,
            "durationTicks": 192,
            "midi": 41,
            "name": "F2",
            "ticks": 51264,
            "time": 56.01393,
            "velocity": 0.3937007874015748
          },
          {
            "duration": 0.10489499999999907,
            "durationTicks": 96,
            "midi": 34,
            "name": "A#1",
            "ticks": 51456,
            "time": 56.22372,
            "velocity": 0.3937007874015748
          },
          {
            "duration": 0.10489499999999907,
            "durationTicks": 96,
            "midi": 34,
            "name": "A#1",
            "ticks": 51552,
            "time": 56.328615,
            "velocity": 0.3937007874015748
          },
          {
            "duration": 0.10489500000000618,
            "durationTicks": 96,
            "midi": 41,
            "name": "F2",
            "ticks": 51648,
            "time": 56.43351,
            "velocity": 0.3937007874015748
          },
          {
            "duration": 0.20978999999999814,
            "durationTicks": 192,
            "midi": 34,
            "name": "A#1",
            "ticks": 51744,
            "time": 56.538405000000004,
            "velocity": 0.3937007874015748
          },
          {
            "duration": 0.10489499999999907,
            "durationTicks": 96,
            "midi": 34,
            "name": "A#1",
            "ticks": 51936,
            "time": 56.748195,
            "velocity": 0.3937007874015748
          },
          {
            "duration": 0.20978999999999814,
            "durationTicks": 192,
            "midi": 40,
            "name": "E2",
            "ticks": 52032,
            "time": 56.85309,
            "velocity": 0.3937007874015748
          },
          {
            "duration": 0.20978999999999814,
            "durationTicks": 192,
            "midi": 33,
            "name": "A1",
            "ticks": 52224,
            "time": 57.06288,
            "velocity": 0.3937007874015748
          },
          {
            "duration": 0.20979000000000525,
            "durationTicks": 192,
            "midi": 38,
            "name": "D2",
            "ticks": 52416,
            "time": 57.27267,
            "velocity": 0.3937007874015748
          },
          {
            "duration": 0.20978999999999814,
            "durationTicks": 192,
            "midi": 33,
            "name": "A1",
            "ticks": 52608,
            "time": 57.48246,
            "velocity": 0.3937007874015748
          },
          {
            "duration": 0.20978999999999814,
            "durationTicks": 192,
            "midi": 38,
            "name": "D2",
            "ticks": 52800,
            "time": 57.69225,
            "velocity": 0.3937007874015748
          },
          {
            "duration": 0.10489499999999907,
            "durationTicks": 96,
            "midi": 33,
            "name": "A1",
            "ticks": 52992,
            "time": 57.90204,
            "velocity": 0.3937007874015748
          },
          {
            "duration": 0.10489499999999907,
            "durationTicks": 96,
            "midi": 33,
            "name": "A1",
            "ticks": 53088,
            "time": 58.006935,
            "velocity": 0.3937007874015748
          },
          {
            "duration": 0.10489500000000618,
            "durationTicks": 96,
            "midi": 38,
            "name": "D2",
            "ticks": 53184,
            "time": 58.11183,
            "velocity": 0.3937007874015748
          },
          {
            "duration": 0.20978999999999814,
            "durationTicks": 192,
            "midi": 33,
            "name": "A1",
            "ticks": 53280,
            "time": 58.216725000000004,
            "velocity": 0.3937007874015748
          },
          {
            "duration": 0.10489499999999907,
            "durationTicks": 96,
            "midi": 41,
            "name": "F2",
            "ticks": 53472,
            "time": 58.426515,
            "velocity": 0.3937007874015748
          },
          {
            "duration": 0.10489499999999907,
            "durationTicks": 96,
            "midi": 40,
            "name": "E2",
            "ticks": 53568,
            "time": 58.53141,
            "velocity": 0.3937007874015748
          },
          {
            "duration": 0.10489499999999907,
            "durationTicks": 96,
            "midi": 36,
            "name": "C2",
            "ticks": 53664,
            "time": 58.636305,
            "velocity": 0.3937007874015748
          },
          {
            "duration": 0.20979000000000525,
            "durationTicks": 192,
            "midi": 34,
            "name": "A#1",
            "ticks": 53760,
            "time": 58.7412,
            "velocity": 0.3937007874015748
          },
          {
            "duration": 0.20978999999999814,
            "durationTicks": 192,
            "midi": 41,
            "name": "F2",
            "ticks": 53952,
            "time": 58.950990000000004,
            "velocity": 0.3937007874015748
          },
          {
            "duration": 0.20978999999999814,
            "durationTicks": 192,
            "midi": 34,
            "name": "A#1",
            "ticks": 54144,
            "time": 59.16078,
            "velocity": 0.3937007874015748
          },
          {
            "duration": 0.20978999999999814,
            "durationTicks": 192,
            "midi": 41,
            "name": "F2",
            "ticks": 54336,
            "time": 59.37057,
            "velocity": 0.3937007874015748
          },
          {
            "duration": 0.10489499999999907,
            "durationTicks": 96,
            "midi": 34,
            "name": "A#1",
            "ticks": 54528,
            "time": 59.58036,
            "velocity": 0.3937007874015748
          },
          {
            "duration": 0.10489500000000618,
            "durationTicks": 96,
            "midi": 34,
            "name": "A#1",
            "ticks": 54624,
            "time": 59.685255,
            "velocity": 0.3937007874015748
          },
          {
            "duration": 0.10489499999999907,
            "durationTicks": 96,
            "midi": 41,
            "name": "F2",
            "ticks": 54720,
            "time": 59.790150000000004,
            "velocity": 0.3937007874015748
          },
          {
            "duration": 0.20978999999999814,
            "durationTicks": 192,
            "midi": 34,
            "name": "A#1",
            "ticks": 54816,
            "time": 59.895045,
            "velocity": 0.3937007874015748
          },
          {
            "duration": 0.10489499999999907,
            "durationTicks": 96,
            "midi": 34,
            "name": "A#1",
            "ticks": 55008,
            "time": 60.104835,
            "velocity": 0.3937007874015748
          },
          {
            "duration": 0.20978999999999814,
            "durationTicks": 192,
            "midi": 40,
            "name": "E2",
            "ticks": 55104,
            "time": 60.20973,
            "velocity": 0.3937007874015748
          },
          {
            "duration": 0.20979000000000525,
            "durationTicks": 192,
            "midi": 33,
            "name": "A1",
            "ticks": 55296,
            "time": 60.41952,
            "velocity": 0.3937007874015748
          },
          {
            "duration": 0.20978999999999814,
            "durationTicks": 192,
            "midi": 38,
            "name": "D2",
            "ticks": 55488,
            "time": 60.629310000000004,
            "velocity": 0.3937007874015748
          },
          {
            "duration": 0.20978999999999814,
            "durationTicks": 192,
            "midi": 33,
            "name": "A1",
            "ticks": 55680,
            "time": 60.8391,
            "velocity": 0.3937007874015748
          },
          {
            "duration": 0.20978999999999814,
            "durationTicks": 192,
            "midi": 38,
            "name": "D2",
            "ticks": 55872,
            "time": 61.04889,
            "velocity": 0.3937007874015748
          },
          {
            "duration": 0.20979000000000525,
            "durationTicks": 192,
            "midi": 38,
            "name": "D2",
            "ticks": 56064,
            "time": 61.25868,
            "velocity": 0.3937007874015748
          },
          {
            "duration": 0.20979000000000525,
            "durationTicks": 192,
            "midi": 45,
            "name": "A2",
            "ticks": 56064,
            "time": 61.25868,
            "velocity": 0.3937007874015748
          },
          {
            "duration": 0.20978999999999814,
            "durationTicks": 192,
            "midi": 37,
            "name": "C#2",
            "ticks": 56256,
            "time": 61.46847,
            "velocity": 0.3937007874015748
          },
          {
            "duration": 0.20978999999999814,
            "durationTicks": 192,
            "midi": 44,
            "name": "G#2",
            "ticks": 56256,
            "time": 61.46847,
            "velocity": 0.3937007874015748
          },
          {
            "duration": 0.20978999999999814,
            "durationTicks": 192,
            "midi": 36,
            "name": "C2",
            "ticks": 56448,
            "time": 61.67826,
            "velocity": 0.3937007874015748
          },
          {
            "duration": 0.20978999999999814,
            "durationTicks": 192,
            "midi": 43,
            "name": "G2",
            "ticks": 56448,
            "time": 61.67826,
            "velocity": 0.3937007874015748
          },
          {
            "duration": 0.20978999999999814,
            "durationTicks": 192,
            "midi": 35,
            "name": "B1",
            "ticks": 56640,
            "time": 61.88805,
            "velocity": 0.3937007874015748
          },
          {
            "duration": 0.20978999999999814,
            "durationTicks": 192,
            "midi": 42,
            "name": "F#2",
            "ticks": 56640,
            "time": 61.88805,
            "velocity": 0.3937007874015748
          },
          {
            "duration": 0.20979000000000525,
            "durationTicks": 192,
            "midi": 34,
            "name": "A#1",
            "ticks": 56832,
            "time": 62.09784,
            "velocity": 0.3937007874015748
          },
          {
            "duration": 0.20978999999999814,
            "durationTicks": 192,
            "midi": 41,
            "name": "F2",
            "ticks": 57024,
            "time": 62.30763,
            "velocity": 0.3937007874015748
          },
          {
            "duration": 0.20978999999999814,
            "durationTicks": 192,
            "midi": 34,
            "name": "A#1",
            "ticks": 57216,
            "time": 62.51742,
            "velocity": 0.3937007874015748
          },
          {
            "duration": 0.20979000000000525,
            "durationTicks": 192,
            "midi": 41,
            "name": "F2",
            "ticks": 57408,
            "time": 62.72721,
            "velocity": 0.3937007874015748
          },
          {
            "duration": 0.10489499999999907,
            "durationTicks": 96,
            "midi": 34,
            "name": "A#1",
            "ticks": 57600,
            "time": 62.937000000000005,
            "velocity": 0.3937007874015748
          },
          {
            "duration": 0.10489499999999907,
            "durationTicks": 96,
            "midi": 34,
            "name": "A#1",
            "ticks": 57696,
            "time": 63.041895000000004,
            "velocity": 0.3937007874015748
          },
          {
            "duration": 0.10489499999999907,
            "durationTicks": 96,
            "midi": 41,
            "name": "F2",
            "ticks": 57792,
            "time": 63.14679,
            "velocity": 0.3937007874015748
          },
          {
            "duration": 0.20978999999999814,
            "durationTicks": 192,
            "midi": 34,
            "name": "A#1",
            "ticks": 57888,
            "time": 63.251685,
            "velocity": 0.3937007874015748
          },
          {
            "duration": 0.10489499999999907,
            "durationTicks": 96,
            "midi": 34,
            "name": "A#1",
            "ticks": 58080,
            "time": 63.461475,
            "velocity": 0.3937007874015748
          },
          {
            "duration": 0.20979000000000525,
            "durationTicks": 192,
            "midi": 40,
            "name": "E2",
            "ticks": 58176,
            "time": 63.56637,
            "velocity": 0.3937007874015748
          },
          {
            "duration": 0.20978999999999814,
            "durationTicks": 192,
            "midi": 33,
            "name": "A1",
            "ticks": 58368,
            "time": 63.776160000000004,
            "velocity": 0.3937007874015748
          },
          {
            "duration": 0.20978999999999814,
            "durationTicks": 192,
            "midi": 38,
            "name": "D2",
            "ticks": 58560,
            "time": 63.98595,
            "velocity": 0.3937007874015748
          },
          {
            "duration": 0.20978999999999814,
            "durationTicks": 192,
            "midi": 33,
            "name": "A1",
            "ticks": 58752,
            "time": 64.19574,
            "velocity": 0.3937007874015748
          },
          {
            "duration": 0.20978999999999814,
            "durationTicks": 192,
            "midi": 38,
            "name": "D2",
            "ticks": 58944,
            "time": 64.40553,
            "velocity": 0.3937007874015748
          },
          {
            "duration": 0.10489499999999907,
            "durationTicks": 96,
            "midi": 33,
            "name": "A1",
            "ticks": 59136,
            "time": 64.61532,
            "velocity": 0.3937007874015748
          },
          {
            "duration": 0.10489499999999907,
            "durationTicks": 96,
            "midi": 33,
            "name": "A1",
            "ticks": 59232,
            "time": 64.720215,
            "velocity": 0.3937007874015748
          },
          {
            "duration": 0.10489500000001328,
            "durationTicks": 96,
            "midi": 38,
            "name": "D2",
            "ticks": 59328,
            "time": 64.82511,
            "velocity": 0.3937007874015748
          },
          {
            "duration": 0.20978999999999814,
            "durationTicks": 192,
            "midi": 33,
            "name": "A1",
            "ticks": 59424,
            "time": 64.93000500000001,
            "velocity": 0.3937007874015748
          },
          {
            "duration": 0.10489499999999907,
            "durationTicks": 96,
            "midi": 41,
            "name": "F2",
            "ticks": 59616,
            "time": 65.139795,
            "velocity": 0.3937007874015748
          },
          {
            "duration": 0.10489499999999907,
            "durationTicks": 96,
            "midi": 40,
            "name": "E2",
            "ticks": 59712,
            "time": 65.24469,
            "velocity": 0.3937007874015748
          },
          {
            "duration": 0.10489499999999907,
            "durationTicks": 96,
            "midi": 36,
            "name": "C2",
            "ticks": 59808,
            "time": 65.349585,
            "velocity": 0.3937007874015748
          },
          {
            "duration": 0.20978999999999814,
            "durationTicks": 192,
            "midi": 34,
            "name": "A#1",
            "ticks": 59904,
            "time": 65.45448,
            "velocity": 0.3937007874015748
          },
          {
            "duration": 0.20978999999999814,
            "durationTicks": 192,
            "midi": 41,
            "name": "F2",
            "ticks": 60096,
            "time": 65.66427,
            "velocity": 0.3937007874015748
          },
          {
            "duration": 0.20978999999999814,
            "durationTicks": 192,
            "midi": 34,
            "name": "A#1",
            "ticks": 60288,
            "time": 65.87406,
            "velocity": 0.3937007874015748
          },
          {
            "duration": 0.20978999999999814,
            "durationTicks": 192,
            "midi": 41,
            "name": "F2",
            "ticks": 60480,
            "time": 66.08385,
            "velocity": 0.3937007874015748
          },
          {
            "duration": 0.10489499999999907,
            "durationTicks": 96,
            "midi": 34,
            "name": "A#1",
            "ticks": 60672,
            "time": 66.29364,
            "velocity": 0.3937007874015748
          },
          {
            "duration": 0.10489499999999907,
            "durationTicks": 96,
            "midi": 34,
            "name": "A#1",
            "ticks": 60768,
            "time": 66.398535,
            "velocity": 0.3937007874015748
          },
          {
            "duration": 0.10489500000001328,
            "durationTicks": 96,
            "midi": 41,
            "name": "F2",
            "ticks": 60864,
            "time": 66.50343,
            "velocity": 0.3937007874015748
          },
          {
            "duration": 0.20978999999999814,
            "durationTicks": 192,
            "midi": 34,
            "name": "A#1",
            "ticks": 60960,
            "time": 66.60832500000001,
            "velocity": 0.3937007874015748
          },
          {
            "duration": 0.10489499999999907,
            "durationTicks": 96,
            "midi": 34,
            "name": "A#1",
            "ticks": 61152,
            "time": 66.818115,
            "velocity": 0.3937007874015748
          },
          {
            "duration": 0.20978999999999814,
            "durationTicks": 192,
            "midi": 40,
            "name": "E2",
            "ticks": 61248,
            "time": 66.92301,
            "velocity": 0.3937007874015748
          },
          {
            "duration": 0.20978999999999814,
            "durationTicks": 192,
            "midi": 33,
            "name": "A1",
            "ticks": 61440,
            "time": 67.1328,
            "velocity": 0.3937007874015748
          },
          {
            "duration": 0.20978999999999814,
            "durationTicks": 192,
            "midi": 38,
            "name": "D2",
            "ticks": 61632,
            "time": 67.34259,
            "velocity": 0.3937007874015748
          },
          {
            "duration": 0.20978999999999814,
            "durationTicks": 192,
            "midi": 33,
            "name": "A1",
            "ticks": 61824,
            "time": 67.55238,
            "velocity": 0.3937007874015748
          },
          {
            "duration": 0.20978999999999814,
            "durationTicks": 192,
            "midi": 38,
            "name": "D2",
            "ticks": 62016,
            "time": 67.76217,
            "velocity": 0.3937007874015748
          },
          {
            "duration": 0.20979000000001236,
            "durationTicks": 192,
            "midi": 38,
            "name": "D2",
            "ticks": 62208,
            "time": 67.97196,
            "velocity": 0.3937007874015748
          },
          {
            "duration": 0.20979000000001236,
            "durationTicks": 192,
            "midi": 45,
            "name": "A2",
            "ticks": 62208,
            "time": 67.97196,
            "velocity": 0.3937007874015748
          },
          {
            "duration": 0.20978999999999814,
            "durationTicks": 192,
            "midi": 44,
            "name": "G#2",
            "ticks": 62400,
            "time": 68.18175000000001,
            "velocity": 0.3937007874015748
          },
          {
            "duration": 0.20978999999999814,
            "durationTicks": 192,
            "midi": 37,
            "name": "C#2",
            "ticks": 62400,
            "time": 68.18175000000001,
            "velocity": 0.3937007874015748
          },
          {
            "duration": 0.20978999999999814,
            "durationTicks": 192,
            "midi": 48,
            "name": "C3",
            "ticks": 62400,
            "time": 68.18175000000001,
            "velocity": 0.3937007874015748
          },
          {
            "duration": 0.20978999999999814,
            "durationTicks": 192,
            "midi": 50,
            "name": "D3",
            "ticks": 62592,
            "time": 68.39154,
            "velocity": 0.3937007874015748
          },
          {
            "duration": 0.20978999999999814,
            "durationTicks": 192,
            "midi": 36,
            "name": "C2",
            "ticks": 62592,
            "time": 68.39154,
            "velocity": 0.3937007874015748
          },
          {
            "duration": 0.20978999999999814,
            "durationTicks": 192,
            "midi": 43,
            "name": "G2",
            "ticks": 62592,
            "time": 68.39154,
            "velocity": 0.3937007874015748
          },
          {
            "duration": 0.20978999999999814,
            "durationTicks": 192,
            "midi": 52,
            "name": "E3",
            "ticks": 62784,
            "time": 68.60133,
            "velocity": 0.3937007874015748
          },
          {
            "duration": 0.20978999999999814,
            "durationTicks": 192,
            "midi": 35,
            "name": "B1",
            "ticks": 62784,
            "time": 68.60133,
            "velocity": 0.3937007874015748
          },
          {
            "duration": 0.20978999999999814,
            "durationTicks": 192,
            "midi": 42,
            "name": "F#2",
            "ticks": 62784,
            "time": 68.60133,
            "velocity": 0.3937007874015748
          },
          {
            "duration": 0.10489499999999907,
            "durationTicks": 96,
            "midi": 32,
            "name": "G#1",
            "ticks": 62976,
            "time": 68.81112,
            "velocity": 0.3937007874015748
          },
          {
            "duration": 0.10489499999999907,
            "durationTicks": 96,
            "midi": 32,
            "name": "G#1",
            "ticks": 63168,
            "time": 69.02091,
            "velocity": 0.3937007874015748
          },
          {
            "duration": 0.20978999999999814,
            "durationTicks": 192,
            "midi": 32,
            "name": "G#1",
            "ticks": 63264,
            "time": 69.125805,
            "velocity": 0.3937007874015748
          },
          {
            "duration": 0.20978999999999814,
            "durationTicks": 192,
            "midi": 39,
            "name": "D#2",
            "ticks": 63456,
            "time": 69.335595,
            "velocity": 0.3937007874015748
          },
          {
            "duration": 0.10489499999999907,
            "durationTicks": 96,
            "midi": 32,
            "name": "G#1",
            "ticks": 63648,
            "time": 69.545385,
            "velocity": 0.3937007874015748
          },
          {
            "duration": 0.10489500000001328,
            "durationTicks": 96,
            "midi": 32,
            "name": "G#1",
            "ticks": 63744,
            "time": 69.65028,
            "velocity": 0.3937007874015748
          },
          {
            "duration": 0.10489499999999907,
            "durationTicks": 96,
            "midi": 31,
            "name": "G1",
            "ticks": 64512,
            "time": 70.48944,
            "velocity": 0.3937007874015748
          },
          {
            "duration": 0.10489499999999907,
            "durationTicks": 96,
            "midi": 31,
            "name": "G1",
            "ticks": 64704,
            "time": 70.69923,
            "velocity": 0.3937007874015748
          },
          {
            "duration": 0.20978999999999814,
            "durationTicks": 192,
            "midi": 31,
            "name": "G1",
            "ticks": 64800,
            "time": 70.804125,
            "velocity": 0.3937007874015748
          },
          {
            "duration": 0.20978999999999814,
            "durationTicks": 192,
            "midi": 38,
            "name": "D2",
            "ticks": 64992,
            "time": 71.013915,
            "velocity": 0.3937007874015748
          },
          {
            "duration": 0.10489499999999907,
            "durationTicks": 96,
            "midi": 31,
            "name": "G1",
            "ticks": 65184,
            "time": 71.223705,
            "velocity": 0.3937007874015748
          },
          {
            "duration": 0.10489500000001328,
            "durationTicks": 96,
            "midi": 31,
            "name": "G1",
            "ticks": 65280,
            "time": 71.3286,
            "velocity": 0.3937007874015748
          },
          {
            "duration": 0.10489499999999907,
            "durationTicks": 96,
            "midi": 32,
            "name": "G#1",
            "ticks": 66048,
            "time": 72.16776,
            "velocity": 0.3937007874015748
          },
          {
            "duration": 0.10489499999999907,
            "durationTicks": 96,
            "midi": 32,
            "name": "G#1",
            "ticks": 66240,
            "time": 72.37755,
            "velocity": 0.3937007874015748
          },
          {
            "duration": 0.20978999999999814,
            "durationTicks": 192,
            "midi": 32,
            "name": "G#1",
            "ticks": 66336,
            "time": 72.482445,
            "velocity": 0.3937007874015748
          },
          {
            "duration": 0.20978999999999814,
            "durationTicks": 192,
            "midi": 39,
            "name": "D#2",
            "ticks": 66528,
            "time": 72.692235,
            "velocity": 0.3937007874015748
          },
          {
            "duration": 0.10489500000001328,
            "durationTicks": 96,
            "midi": 32,
            "name": "G#1",
            "ticks": 66720,
            "time": 72.902025,
            "velocity": 0.3937007874015748
          },
          {
            "duration": 0.10489499999999907,
            "durationTicks": 96,
            "midi": 32,
            "name": "G#1",
            "ticks": 66816,
            "time": 73.00692000000001,
            "velocity": 0.3937007874015748
          },
          {
            "duration": 0.10489499999999907,
            "durationTicks": 96,
            "midi": 31,
            "name": "G1",
            "ticks": 67584,
            "time": 73.84608,
            "velocity": 0.3937007874015748
          },
          {
            "duration": 0.10489499999999907,
            "durationTicks": 96,
            "midi": 31,
            "name": "G1",
            "ticks": 67776,
            "time": 74.05587,
            "velocity": 0.3937007874015748
          },
          {
            "duration": 0.20978999999999814,
            "durationTicks": 192,
            "midi": 31,
            "name": "G1",
            "ticks": 67872,
            "time": 74.160765,
            "velocity": 0.3937007874015748
          },
          {
            "duration": 0.20979000000001236,
            "durationTicks": 192,
            "midi": 38,
            "name": "D2",
            "ticks": 68064,
            "time": 74.370555,
            "velocity": 0.3937007874015748
          },
          {
            "duration": 0.10489499999999907,
            "durationTicks": 96,
            "midi": 31,
            "name": "G1",
            "ticks": 68256,
            "time": 74.58034500000001,
            "velocity": 0.3937007874015748
          },
          {
            "duration": 0.10489499999999907,
            "durationTicks": 96,
            "midi": 31,
            "name": "G1",
            "ticks": 68352,
            "time": 74.68524000000001,
            "velocity": 0.3937007874015748
          }
        ],
        "endOfTrackTicks": 68448
      },
      {
        "channel": 9,
        "controlChanges": {},
        "pitchBends": [],
        "instrument": {
          "family": "drums",
          "number": 0,
          "name": "standard kit"
        },
        "name": "Drum Kit",
        "notes": [
          {
            "duration": 0.20979000000000525,
            "durationTicks": 192,
            "midi": 45,
            "name": "A2",
            "ticks": 38400,
            "time": 41.958,
            "velocity": 0.3937007874015748
          },
          {
            "duration": 0.20979000000000525,
            "durationTicks": 192,
            "midi": 38,
            "name": "D2",
            "ticks": 38400,
            "time": 41.958,
            "velocity": 0.3937007874015748
          },
          {
            "duration": 0.20979000000000525,
            "durationTicks": 192,
            "midi": 50,
            "name": "D3",
            "ticks": 38400,
            "time": 41.958,
            "velocity": 0.3937007874015748
          },
          {
            "duration": 0.20978999999999814,
            "durationTicks": 192,
            "midi": 45,
            "name": "A2",
            "ticks": 38592,
            "time": 42.167790000000004,
            "velocity": 0.3937007874015748
          },
          {
            "duration": 0.20978999999999814,
            "durationTicks": 192,
            "midi": 38,
            "name": "D2",
            "ticks": 38592,
            "time": 42.167790000000004,
            "velocity": 0.3937007874015748
          },
          {
            "duration": 0.20978999999999814,
            "durationTicks": 192,
            "midi": 50,
            "name": "D3",
            "ticks": 38592,
            "time": 42.167790000000004,
            "velocity": 0.3937007874015748
          },
          {
            "duration": 0.20978999999999814,
            "durationTicks": 192,
            "midi": 45,
            "name": "A2",
            "ticks": 38784,
            "time": 42.37758,
            "velocity": 0.3937007874015748
          },
          {
            "duration": 0.20978999999999814,
            "durationTicks": 192,
            "midi": 50,
            "name": "D3",
            "ticks": 38784,
            "time": 42.37758,
            "velocity": 0.3937007874015748
          },
          {
            "duration": 0.20978999999999814,
            "durationTicks": 192,
            "midi": 57,
            "name": "A3",
            "ticks": 38784,
            "time": 42.37758,
            "velocity": 0.3937007874015748
          },
          {
            "duration": 0.10489499999999907,
            "durationTicks": 96,
            "midi": 45,
            "name": "A2",
            "ticks": 38976,
            "time": 42.58737,
            "velocity": 0.3937007874015748
          },
          {
            "duration": 0.10489499999999907,
            "durationTicks": 96,
            "midi": 50,
            "name": "D3",
            "ticks": 38976,
            "time": 42.58737,
            "velocity": 0.3937007874015748
          },
          {
            "duration": 0.10489499999999907,
            "durationTicks": 96,
            "midi": 38,
            "name": "D2",
            "ticks": 38976,
            "time": 42.58737,
            "velocity": 0.3937007874015748
          },
          {
            "duration": 0.10489499999999907,
            "durationTicks": 96,
            "midi": 38,
            "name": "D2",
            "ticks": 39072,
            "time": 42.692265,
            "velocity": 0.3937007874015748
          },
          {
            "duration": 0.10489499999999907,
            "durationTicks": 96,
            "midi": 45,
            "name": "A2",
            "ticks": 39072,
            "time": 42.692265,
            "velocity": 0.3937007874015748
          },
          {
            "duration": 0.10489499999999907,
            "durationTicks": 96,
            "midi": 50,
            "name": "D3",
            "ticks": 39072,
            "time": 42.692265,
            "velocity": 0.3937007874015748
          },
          {
            "duration": 0.20979000000000525,
            "durationTicks": 192,
            "midi": 38,
            "name": "D2",
            "ticks": 39168,
            "time": 42.79716,
            "velocity": 0.3937007874015748
          },
          {
            "duration": 0.20979000000000525,
            "durationTicks": 192,
            "midi": 50,
            "name": "D3",
            "ticks": 39168,
            "time": 42.79716,
            "velocity": 0.3937007874015748
          },
          {
            "duration": 0.20979000000000525,
            "durationTicks": 192,
            "midi": 45,
            "name": "A2",
            "ticks": 39168,
            "time": 42.79716,
            "velocity": 0.3937007874015748
          },
          {
            "duration": 0.20978999999999814,
            "durationTicks": 192,
            "midi": 38,
            "name": "D2",
            "ticks": 39360,
            "time": 43.00695,
            "velocity": 0.3937007874015748
          },
          {
            "duration": 0.20978999999999814,
            "durationTicks": 192,
            "midi": 45,
            "name": "A2",
            "ticks": 39360,
            "time": 43.00695,
            "velocity": 0.3937007874015748
          },
          {
            "duration": 0.20978999999999814,
            "durationTicks": 192,
            "midi": 50,
            "name": "D3",
            "ticks": 39360,
            "time": 43.00695,
            "velocity": 0.3937007874015748
          },
          {
            "duration": 0.20978999999999814,
            "durationTicks": 192,
            "midi": 45,
            "name": "A2",
            "ticks": 39552,
            "time": 43.21674,
            "velocity": 0.3937007874015748
          },
          {
            "duration": 0.20978999999999814,
            "durationTicks": 192,
            "midi": 57,
            "name": "A3",
            "ticks": 39552,
            "time": 43.21674,
            "velocity": 0.3937007874015748
          },
          {
            "duration": 0.20978999999999814,
            "durationTicks": 192,
            "midi": 50,
            "name": "D3",
            "ticks": 39552,
            "time": 43.21674,
            "velocity": 0.3937007874015748
          },
          {
            "duration": 0.10489499999999907,
            "durationTicks": 96,
            "midi": 38,
            "name": "D2",
            "ticks": 39744,
            "time": 43.42653,
            "velocity": 0.3937007874015748
          },
          {
            "duration": 0.10489499999999907,
            "durationTicks": 96,
            "midi": 45,
            "name": "A2",
            "ticks": 39744,
            "time": 43.42653,
            "velocity": 0.3937007874015748
          },
          {
            "duration": 0.10489499999999907,
            "durationTicks": 96,
            "midi": 50,
            "name": "D3",
            "ticks": 39744,
            "time": 43.42653,
            "velocity": 0.3937007874015748
          },
          {
            "duration": 0.10489499999999907,
            "durationTicks": 96,
            "midi": 45,
            "name": "A2",
            "ticks": 39840,
            "time": 43.531425,
            "velocity": 0.3937007874015748
          },
          {
            "duration": 0.10489499999999907,
            "durationTicks": 96,
            "midi": 38,
            "name": "D2",
            "ticks": 39840,
            "time": 43.531425,
            "velocity": 0.3937007874015748
          },
          {
            "duration": 0.10489499999999907,
            "durationTicks": 96,
            "midi": 50,
            "name": "D3",
            "ticks": 39840,
            "time": 43.531425,
            "velocity": 0.3937007874015748
          },
          {
            "duration": 0.20979000000000525,
            "durationTicks": 192,
            "midi": 37,
            "name": "C#2",
            "ticks": 39936,
            "time": 43.63632,
            "velocity": 0.3937007874015748
          },
          {
            "duration": 0.20979000000000525,
            "durationTicks": 192,
            "midi": 44,
            "name": "G#2",
            "ticks": 39936,
            "time": 43.63632,
            "velocity": 0.3937007874015748
          },
          {
            "duration": 0.20979000000000525,
            "durationTicks": 192,
            "midi": 49,
            "name": "C#3",
            "ticks": 39936,
            "time": 43.63632,
            "velocity": 0.3937007874015748
          },
          {
            "duration": 0.20978999999999814,
            "durationTicks": 192,
            "midi": 44,
            "name": "G#2",
            "ticks": 40128,
            "time": 43.84611,
            "velocity": 0.3937007874015748
          },
          {
            "duration": 0.20978999999999814,
            "durationTicks": 192,
            "midi": 49,
            "name": "C#3",
            "ticks": 40128,
            "time": 43.84611,
            "velocity": 0.3937007874015748
          },
          {
            "duration": 0.20978999999999814,
            "durationTicks": 192,
            "midi": 37,
            "name": "C#2",
            "ticks": 40128,
            "time": 43.84611,
            "velocity": 0.3937007874015748
          },
          {
            "duration": 0.20978999999999814,
            "durationTicks": 192,
            "midi": 56,
            "name": "G#3",
            "ticks": 40320,
            "time": 44.0559,
            "velocity": 0.3937007874015748
          },
          {
            "duration": 0.20978999999999814,
            "durationTicks": 192,
            "midi": 49,
            "name": "C#3",
            "ticks": 40320,
            "time": 44.0559,
            "velocity": 0.3937007874015748
          },
          {
            "duration": 0.20978999999999814,
            "durationTicks": 192,
            "midi": 44,
            "name": "G#2",
            "ticks": 40320,
            "time": 44.0559,
            "velocity": 0.3937007874015748
          },
          {
            "duration": 0.10489499999999907,
            "durationTicks": 96,
            "midi": 37,
            "name": "C#2",
            "ticks": 40512,
            "time": 44.26569,
            "velocity": 0.3937007874015748
          },
          {
            "duration": 0.10489499999999907,
            "durationTicks": 96,
            "midi": 44,
            "name": "G#2",
            "ticks": 40512,
            "time": 44.26569,
            "velocity": 0.3937007874015748
          },
          {
            "duration": 0.10489499999999907,
            "durationTicks": 96,
            "midi": 49,
            "name": "C#3",
            "ticks": 40512,
            "time": 44.26569,
            "velocity": 0.3937007874015748
          },
          {
            "duration": 0.10489499999999907,
            "durationTicks": 96,
            "midi": 44,
            "name": "G#2",
            "ticks": 40608,
            "time": 44.370585,
            "velocity": 0.3937007874015748
          },
          {
            "duration": 0.10489499999999907,
            "durationTicks": 96,
            "midi": 37,
            "name": "C#2",
            "ticks": 40608,
            "time": 44.370585,
            "velocity": 0.3937007874015748
          },
          {
            "duration": 0.10489499999999907,
            "durationTicks": 96,
            "midi": 49,
            "name": "C#3",
            "ticks": 40608,
            "time": 44.370585,
            "velocity": 0.3937007874015748
          },
          {
            "duration": 0.20979000000000525,
            "durationTicks": 192,
            "midi": 38,
            "name": "D2",
            "ticks": 40704,
            "time": 44.47548,
            "velocity": 0.3937007874015748
          },
          {
            "duration": 0.20979000000000525,
            "durationTicks": 192,
            "midi": 45,
            "name": "A2",
            "ticks": 40704,
            "time": 44.47548,
            "velocity": 0.3937007874015748
          },
          {
            "duration": 0.20979000000000525,
            "durationTicks": 192,
            "midi": 50,
            "name": "D3",
            "ticks": 40704,
            "time": 44.47548,
            "velocity": 0.3937007874015748
          },
          {
            "duration": 0.20978999999999814,
            "durationTicks": 192,
            "midi": 50,
            "name": "D3",
            "ticks": 40896,
            "time": 44.68527,
            "velocity": 0.3937007874015748
          },
          {
            "duration": 0.20978999999999814,
            "durationTicks": 192,
            "midi": 45,
            "name": "A2",
            "ticks": 40896,
            "time": 44.68527,
            "velocity": 0.3937007874015748
          },
          {
            "duration": 0.20978999999999814,
            "durationTicks": 192,
            "midi": 38,
            "name": "D2",
            "ticks": 40896,
            "time": 44.68527,
            "velocity": 0.3937007874015748
          },
          {
            "duration": 0.20978999999999814,
            "durationTicks": 192,
            "midi": 57,
            "name": "A3",
            "ticks": 41088,
            "time": 44.89506,
            "velocity": 0.3937007874015748
          },
          {
            "duration": 0.20978999999999814,
            "durationTicks": 192,
            "midi": 50,
            "name": "D3",
            "ticks": 41088,
            "time": 44.89506,
            "velocity": 0.3937007874015748
          },
          {
            "duration": 0.20978999999999814,
            "durationTicks": 192,
            "midi": 45,
            "name": "A2",
            "ticks": 41088,
            "time": 44.89506,
            "velocity": 0.3937007874015748
          },
          {
            "duration": 0.10489499999999907,
            "durationTicks": 96,
            "midi": 50,
            "name": "D3",
            "ticks": 41280,
            "time": 45.10485,
            "velocity": 0.3937007874015748
          },
          {
            "duration": 0.10489499999999907,
            "durationTicks": 96,
            "midi": 45,
            "name": "A2",
            "ticks": 41280,
            "time": 45.10485,
            "velocity": 0.3937007874015748
          },
          {
            "duration": 0.10489499999999907,
            "durationTicks": 96,
            "midi": 38,
            "name": "D2",
            "ticks": 41280,
            "time": 45.10485,
            "velocity": 0.3937007874015748
          },
          {
            "duration": 0.10489500000000618,
            "durationTicks": 96,
            "midi": 50,
            "name": "D3",
            "ticks": 41376,
            "time": 45.209745,
            "velocity": 0.3937007874015748
          },
          {
            "duration": 0.10489500000000618,
            "durationTicks": 96,
            "midi": 45,
            "name": "A2",
            "ticks": 41376,
            "time": 45.209745,
            "velocity": 0.3937007874015748
          },
          {
            "duration": 0.10489500000000618,
            "durationTicks": 96,
            "midi": 57,
            "name": "A3",
            "ticks": 41376,
            "time": 45.209745,
            "velocity": 0.3937007874015748
          },
          {
            "duration": 0.20978999999999814,
            "durationTicks": 192,
            "midi": 40,
            "name": "E2",
            "ticks": 41472,
            "time": 45.314640000000004,
            "velocity": 0.3937007874015748
          },
          {
            "duration": 0.20978999999999814,
            "durationTicks": 192,
            "midi": 45,
            "name": "A2",
            "ticks": 41472,
            "time": 45.314640000000004,
            "velocity": 0.3937007874015748
          },
          {
            "duration": 0.20978999999999814,
            "durationTicks": 192,
            "midi": 33,
            "name": "A1",
            "ticks": 41472,
            "time": 45.314640000000004,
            "velocity": 0.3937007874015748
          },
          {
            "duration": 0.20978999999999814,
            "durationTicks": 192,
            "midi": 40,
            "name": "E2",
            "ticks": 41664,
            "time": 45.52443,
            "velocity": 0.3937007874015748
          },
          {
            "duration": 0.20978999999999814,
            "durationTicks": 192,
            "midi": 33,
            "name": "A1",
            "ticks": 41664,
            "time": 45.52443,
            "velocity": 0.3937007874015748
          },
          {
            "duration": 0.20978999999999814,
            "durationTicks": 192,
            "midi": 45,
            "name": "A2",
            "ticks": 41664,
            "time": 45.52443,
            "velocity": 0.3937007874015748
          },
          {
            "duration": 0.20978999999999814,
            "durationTicks": 192,
            "midi": 52,
            "name": "E3",
            "ticks": 41856,
            "time": 45.73422,
            "velocity": 0.3937007874015748
          },
          {
            "duration": 0.20978999999999814,
            "durationTicks": 192,
            "midi": 45,
            "name": "A2",
            "ticks": 41856,
            "time": 45.73422,
            "velocity": 0.3937007874015748
          },
          {
            "duration": 0.20978999999999814,
            "durationTicks": 192,
            "midi": 40,
            "name": "E2",
            "ticks": 41856,
            "time": 45.73422,
            "velocity": 0.3937007874015748
          },
          {
            "duration": 0.10489499999999907,
            "durationTicks": 96,
            "midi": 45,
            "name": "A2",
            "ticks": 42048,
            "time": 45.94401,
            "velocity": 0.3937007874015748
          },
          {
            "duration": 0.10489499999999907,
            "durationTicks": 96,
            "midi": 33,
            "name": "A1",
            "ticks": 42048,
            "time": 45.94401,
            "velocity": 0.3937007874015748
          },
          {
            "duration": 0.10489499999999907,
            "durationTicks": 96,
            "midi": 40,
            "name": "E2",
            "ticks": 42048,
            "time": 45.94401,
            "velocity": 0.3937007874015748
          },
          {
            "duration": 0.10489500000000618,
            "durationTicks": 96,
            "midi": 45,
            "name": "A2",
            "ticks": 42144,
            "time": 46.048905,
            "velocity": 0.3937007874015748
          },
          {
            "duration": 0.10489500000000618,
            "durationTicks": 96,
            "midi": 33,
            "name": "A1",
            "ticks": 42144,
            "time": 46.048905,
            "velocity": 0.3937007874015748
          },
          {
            "duration": 0.10489500000000618,
            "durationTicks": 96,
            "midi": 40,
            "name": "E2",
            "ticks": 42144,
            "time": 46.048905,
            "velocity": 0.3937007874015748
          },
          {
            "duration": 0.20978999999999814,
            "durationTicks": 192,
            "midi": 50,
            "name": "D3",
            "ticks": 42240,
            "time": 46.153800000000004,
            "velocity": 0.3937007874015748
          },
          {
            "duration": 0.20978999999999814,
            "durationTicks": 192,
            "midi": 45,
            "name": "A2",
            "ticks": 42240,
            "time": 46.153800000000004,
            "velocity": 0.3937007874015748
          },
          {
            "duration": 0.20978999999999814,
            "durationTicks": 192,
            "midi": 38,
            "name": "D2",
            "ticks": 42240,
            "time": 46.153800000000004,
            "velocity": 0.3937007874015748
          },
          {
            "duration": 0.20978999999999814,
            "durationTicks": 192,
            "midi": 38,
            "name": "D2",
            "ticks": 42432,
            "time": 46.36359,
            "velocity": 0.3937007874015748
          },
          {
            "duration": 0.20978999999999814,
            "durationTicks": 192,
            "midi": 45,
            "name": "A2",
            "ticks": 42432,
            "time": 46.36359,
            "velocity": 0.3937007874015748
          },
          {
            "duration": 0.20978999999999814,
            "durationTicks": 192,
            "midi": 50,
            "name": "D3",
            "ticks": 42432,
            "time": 46.36359,
            "velocity": 0.3937007874015748
          },
          {
            "duration": 0.20978999999999814,
            "durationTicks": 192,
            "midi": 57,
            "name": "A3",
            "ticks": 42624,
            "time": 46.57338,
            "velocity": 0.3937007874015748
          },
          {
            "duration": 0.20978999999999814,
            "durationTicks": 192,
            "midi": 45,
            "name": "A2",
            "ticks": 42624,
            "time": 46.57338,
            "velocity": 0.3937007874015748
          },
          {
            "duration": 0.20978999999999814,
            "durationTicks": 192,
            "midi": 50,
            "name": "D3",
            "ticks": 42624,
            "time": 46.57338,
            "velocity": 0.3937007874015748
          },
          {
            "duration": 0.10489499999999907,
            "durationTicks": 96,
            "midi": 38,
            "name": "D2",
            "ticks": 42816,
            "time": 46.78317,
            "velocity": 0.3937007874015748
          },
          {
            "duration": 0.10489499999999907,
            "durationTicks": 96,
            "midi": 50,
            "name": "D3",
            "ticks": 42816,
            "time": 46.78317,
            "velocity": 0.3937007874015748
          },
          {
            "duration": 0.10489499999999907,
            "durationTicks": 96,
            "midi": 45,
            "name": "A2",
            "ticks": 42816,
            "time": 46.78317,
            "velocity": 0.3937007874015748
          },
          {
            "duration": 0.10489500000000618,
            "durationTicks": 96,
            "midi": 38,
            "name": "D2",
            "ticks": 42912,
            "time": 46.888065,
            "velocity": 0.3937007874015748
          },
          {
            "duration": 0.10489500000000618,
            "durationTicks": 96,
            "midi": 45,
            "name": "A2",
            "ticks": 42912,
            "time": 46.888065,
            "velocity": 0.3937007874015748
          },
          {
            "duration": 0.10489500000000618,
            "durationTicks": 96,
            "midi": 50,
            "name": "D3",
            "ticks": 42912,
            "time": 46.888065,
            "velocity": 0.3937007874015748
          },
          {
            "duration": 0.20978999999999814,
            "durationTicks": 192,
            "midi": 46,
            "name": "A#2",
            "ticks": 43008,
            "time": 46.992960000000004,
            "velocity": 0.3937007874015748
          },
          {
            "duration": 0.20978999999999814,
            "durationTicks": 192,
            "midi": 34,
            "name": "A#1",
            "ticks": 43008,
            "time": 46.992960000000004,
            "velocity": 0.3937007874015748
          },
          {
            "duration": 0.20978999999999814,
            "durationTicks": 192,
            "midi": 41,
            "name": "F2",
            "ticks": 43008,
            "time": 46.992960000000004,
            "velocity": 0.3937007874015748
          },
          {
            "duration": 0.20978999999999814,
            "durationTicks": 192,
            "midi": 34,
            "name": "A#1",
            "ticks": 43200,
            "time": 47.20275,
            "velocity": 0.3937007874015748
          },
          {
            "duration": 0.20978999999999814,
            "durationTicks": 192,
            "midi": 41,
            "name": "F2",
            "ticks": 43200,
            "time": 47.20275,
            "velocity": 0.3937007874015748
          },
          {
            "duration": 0.20978999999999814,
            "durationTicks": 192,
            "midi": 46,
            "name": "A#2",
            "ticks": 43200,
            "time": 47.20275,
            "velocity": 0.3937007874015748
          },
          {
            "duration": 0.20978999999999814,
            "durationTicks": 192,
            "midi": 41,
            "name": "F2",
            "ticks": 43392,
            "time": 47.41254,
            "velocity": 0.3937007874015748
          },
          {
            "duration": 0.20978999999999814,
            "durationTicks": 192,
            "midi": 46,
            "name": "A#2",
            "ticks": 43392,
            "time": 47.41254,
            "velocity": 0.3937007874015748
          },
          {
            "duration": 0.20978999999999814,
            "durationTicks": 192,
            "midi": 53,
            "name": "F3",
            "ticks": 43392,
            "time": 47.41254,
            "velocity": 0.3937007874015748
          },
          {
            "duration": 0.10489500000000618,
            "durationTicks": 96,
            "midi": 46,
            "name": "A#2",
            "ticks": 43584,
            "time": 47.62233,
            "velocity": 0.3937007874015748
          },
          {
            "duration": 0.10489500000000618,
            "durationTicks": 96,
            "midi": 34,
            "name": "A#1",
            "ticks": 43584,
            "time": 47.62233,
            "velocity": 0.3937007874015748
          },
          {
            "duration": 0.10489500000000618,
            "durationTicks": 96,
            "midi": 41,
            "name": "F2",
            "ticks": 43584,
            "time": 47.62233,
            "velocity": 0.3937007874015748
          },
          {
            "duration": 0.10489499999999907,
            "durationTicks": 96,
            "midi": 41,
            "name": "F2",
            "ticks": 43680,
            "time": 47.727225000000004,
            "velocity": 0.3937007874015748
          },
          {
            "duration": 0.10489499999999907,
            "durationTicks": 96,
            "midi": 46,
            "name": "A#2",
            "ticks": 43680,
            "time": 47.727225000000004,
            "velocity": 0.3937007874015748
          },
          {
            "duration": 0.10489499999999907,
            "durationTicks": 96,
            "midi": 34,
            "name": "A#1",
            "ticks": 43680,
            "time": 47.727225000000004,
            "velocity": 0.3937007874015748
          },
          {
            "duration": 0.20978999999999814,
            "durationTicks": 192,
            "midi": 33,
            "name": "A1",
            "ticks": 43776,
            "time": 47.83212,
            "velocity": 0.3937007874015748
          },
          {
            "duration": 0.20978999999999814,
            "durationTicks": 192,
            "midi": 40,
            "name": "E2",
            "ticks": 43776,
            "time": 47.83212,
            "velocity": 0.3937007874015748
          },
          {
            "duration": 0.20978999999999814,
            "durationTicks": 192,
            "midi": 45,
            "name": "A2",
            "ticks": 43776,
            "time": 47.83212,
            "velocity": 0.3937007874015748
          },
          {
            "duration": 0.20978999999999814,
            "durationTicks": 192,
            "midi": 45,
            "name": "A2",
            "ticks": 43968,
            "time": 48.04191,
            "velocity": 0.3937007874015748
          },
          {
            "duration": 0.20978999999999814,
            "durationTicks": 192,
            "midi": 33,
            "name": "A1",
            "ticks": 43968,
            "time": 48.04191,
            "velocity": 0.3937007874015748
          },
          {
            "duration": 0.20978999999999814,
            "durationTicks": 192,
            "midi": 40,
            "name": "E2",
            "ticks": 43968,
            "time": 48.04191,
            "velocity": 0.3937007874015748
          },
          {
            "duration": 0.4195800000000034,
            "durationTicks": 384,
            "midi": 40,
            "name": "E2",
            "ticks": 44160,
            "time": 48.2517,
            "velocity": 0.3937007874015748
          },
          {
            "duration": 0.4195800000000034,
            "durationTicks": 384,
            "midi": 52,
            "name": "E3",
            "ticks": 44160,
            "time": 48.2517,
            "velocity": 0.3937007874015748
          },
          {
            "duration": 0.4195800000000034,
            "durationTicks": 384,
            "midi": 33,
            "name": "A1",
            "ticks": 44160,
            "time": 48.2517,
            "velocity": 0.3937007874015748
          },
          {
            "duration": 0.4195800000000034,
            "durationTicks": 384,
            "midi": 45,
            "name": "A2",
            "ticks": 44160,
            "time": 48.2517,
            "velocity": 0.3937007874015748
          },
          {
            "duration": 0.20978999999999814,
            "durationTicks": 192,
            "midi": 38,
            "name": "D2",
            "ticks": 44544,
            "time": 48.67128,
            "velocity": 0.3937007874015748
          },
          {
            "duration": 0.20978999999999814,
            "durationTicks": 192,
            "midi": 45,
            "name": "A2",
            "ticks": 44544,
            "time": 48.67128,
            "velocity": 0.3937007874015748
          },
          {
            "duration": 0.20978999999999814,
            "durationTicks": 192,
            "midi": 50,
            "name": "D3",
            "ticks": 44544,
            "time": 48.67128,
            "velocity": 0.3937007874015748
          },
          {
            "duration": 0.20978999999999814,
            "durationTicks": 192,
            "midi": 50,
            "name": "D3",
            "ticks": 44736,
            "time": 48.88107,
            "velocity": 0.3937007874015748
          },
          {
            "duration": 0.20978999999999814,
            "durationTicks": 192,
            "midi": 45,
            "name": "A2",
            "ticks": 44736,
            "time": 48.88107,
            "velocity": 0.3937007874015748
          },
          {
            "duration": 0.20978999999999814,
            "durationTicks": 192,
            "midi": 38,
            "name": "D2",
            "ticks": 44736,
            "time": 48.88107,
            "velocity": 0.3937007874015748
          },
          {
            "duration": 0.20979000000000525,
            "durationTicks": 192,
            "midi": 57,
            "name": "A3",
            "ticks": 44928,
            "time": 49.09086,
            "velocity": 0.3937007874015748
          },
          {
            "duration": 0.20979000000000525,
            "durationTicks": 192,
            "midi": 50,
            "name": "D3",
            "ticks": 44928,
            "time": 49.09086,
            "velocity": 0.3937007874015748
          },
          {
            "duration": 0.20979000000000525,
            "durationTicks": 192,
            "midi": 45,
            "name": "A2",
            "ticks": 44928,
            "time": 49.09086,
            "velocity": 0.3937007874015748
          },
          {
            "duration": 0.10489499999999907,
            "durationTicks": 96,
            "midi": 45,
            "name": "A2",
            "ticks": 45120,
            "time": 49.300650000000005,
            "velocity": 0.3937007874015748
          },
          {
            "duration": 0.10489499999999907,
            "durationTicks": 96,
            "midi": 50,
            "name": "D3",
            "ticks": 45120,
            "time": 49.300650000000005,
            "velocity": 0.3937007874015748
          },
          {
            "duration": 0.10489499999999907,
            "durationTicks": 96,
            "midi": 38,
            "name": "D2",
            "ticks": 45120,
            "time": 49.300650000000005,
            "velocity": 0.3937007874015748
          },
          {
            "duration": 0.10489499999999907,
            "durationTicks": 96,
            "midi": 38,
            "name": "D2",
            "ticks": 45216,
            "time": 49.405545000000004,
            "velocity": 0.3937007874015748
          },
          {
            "duration": 0.10489499999999907,
            "durationTicks": 96,
            "midi": 45,
            "name": "A2",
            "ticks": 45216,
            "time": 49.405545000000004,
            "velocity": 0.3937007874015748
          },
          {
            "duration": 0.10489499999999907,
            "durationTicks": 96,
            "midi": 50,
            "name": "D3",
            "ticks": 45216,
            "time": 49.405545000000004,
            "velocity": 0.3937007874015748
          },
          {
            "duration": 0.20978999999999814,
            "durationTicks": 192,
            "midi": 45,
            "name": "A2",
            "ticks": 45312,
            "time": 49.51044,
            "velocity": 0.3937007874015748
          },
          {
            "duration": 0.20978999999999814,
            "durationTicks": 192,
            "midi": 50,
            "name": "D3",
            "ticks": 45312,
            "time": 49.51044,
            "velocity": 0.3937007874015748
          },
          {
            "duration": 0.20978999999999814,
            "durationTicks": 192,
            "midi": 38,
            "name": "D2",
            "ticks": 45312,
            "time": 49.51044,
            "velocity": 0.3937007874015748
          },
          {
            "duration": 0.20978999999999814,
            "durationTicks": 192,
            "midi": 38,
            "name": "D2",
            "ticks": 45504,
            "time": 49.72023,
            "velocity": 0.3937007874015748
          },
          {
            "duration": 0.20978999999999814,
            "durationTicks": 192,
            "midi": 45,
            "name": "A2",
            "ticks": 45504,
            "time": 49.72023,
            "velocity": 0.3937007874015748
          },
          {
            "duration": 0.20978999999999814,
            "durationTicks": 192,
            "midi": 50,
            "name": "D3",
            "ticks": 45504,
            "time": 49.72023,
            "velocity": 0.3937007874015748
          },
          {
            "duration": 0.20979000000000525,
            "durationTicks": 192,
            "midi": 57,
            "name": "A3",
            "ticks": 45696,
            "time": 49.93002,
            "velocity": 0.3937007874015748
          },
          {
            "duration": 0.20979000000000525,
            "durationTicks": 192,
            "midi": 50,
            "name": "D3",
            "ticks": 45696,
            "time": 49.93002,
            "velocity": 0.3937007874015748
          },
          {
            "duration": 0.20979000000000525,
            "durationTicks": 192,
            "midi": 45,
            "name": "A2",
            "ticks": 45696,
            "time": 49.93002,
            "velocity": 0.3937007874015748
          },
          {
            "duration": 0.10489499999999907,
            "durationTicks": 96,
            "midi": 38,
            "name": "D2",
            "ticks": 45888,
            "time": 50.139810000000004,
            "velocity": 0.3937007874015748
          },
          {
            "duration": 0.10489499999999907,
            "durationTicks": 96,
            "midi": 50,
            "name": "D3",
            "ticks": 45888,
            "time": 50.139810000000004,
            "velocity": 0.3937007874015748
          },
          {
            "duration": 0.10489499999999907,
            "durationTicks": 96,
            "midi": 45,
            "name": "A2",
            "ticks": 45888,
            "time": 50.139810000000004,
            "velocity": 0.3937007874015748
          },
          {
            "duration": 0.10489499999999907,
            "durationTicks": 96,
            "midi": 45,
            "name": "A2",
            "ticks": 45984,
            "time": 50.244705,
            "velocity": 0.3937007874015748
          },
          {
            "duration": 0.10489499999999907,
            "durationTicks": 96,
            "midi": 50,
            "name": "D3",
            "ticks": 45984,
            "time": 50.244705,
            "velocity": 0.3937007874015748
          },
          {
            "duration": 0.10489499999999907,
            "durationTicks": 96,
            "midi": 38,
            "name": "D2",
            "ticks": 45984,
            "time": 50.244705,
            "velocity": 0.3937007874015748
          },
          {
            "duration": 0.20978999999999814,
            "durationTicks": 192,
            "midi": 37,
            "name": "C#2",
            "ticks": 46080,
            "time": 50.3496,
            "velocity": 0.3937007874015748
          },
          {
            "duration": 0.20978999999999814,
            "durationTicks": 192,
            "midi": 44,
            "name": "G#2",
            "ticks": 46080,
            "time": 50.3496,
            "velocity": 0.3937007874015748
          },
          {
            "duration": 0.20978999999999814,
            "durationTicks": 192,
            "midi": 49,
            "name": "C#3",
            "ticks": 46080,
            "time": 50.3496,
            "velocity": 0.3937007874015748
          },
          {
            "duration": 0.20978999999999814,
            "durationTicks": 192,
            "midi": 37,
            "name": "C#2",
            "ticks": 46272,
            "time": 50.55939,
            "velocity": 0.3937007874015748
          },
          {
            "duration": 0.20978999999999814,
            "durationTicks": 192,
            "midi": 44,
            "name": "G#2",
            "ticks": 46272,
            "time": 50.55939,
            "velocity": 0.3937007874015748
          },
          {
            "duration": 0.20978999999999814,
            "durationTicks": 192,
            "midi": 49,
            "name": "C#3",
            "ticks": 46272,
            "time": 50.55939,
            "velocity": 0.3937007874015748
          },
          {
            "duration": 0.20979000000000525,
            "durationTicks": 192,
            "midi": 56,
            "name": "G#3",
            "ticks": 46464,
            "time": 50.76918,
            "velocity": 0.3937007874015748
          },
          {
            "duration": 0.20979000000000525,
            "durationTicks": 192,
            "midi": 49,
            "name": "C#3",
            "ticks": 46464,
            "time": 50.76918,
            "velocity": 0.3937007874015748
          },
          {
            "duration": 0.20979000000000525,
            "durationTicks": 192,
            "midi": 44,
            "name": "G#2",
            "ticks": 46464,
            "time": 50.76918,
            "velocity": 0.3937007874015748
          },
          {
            "duration": 0.10489499999999907,
            "durationTicks": 96,
            "midi": 37,
            "name": "C#2",
            "ticks": 46656,
            "time": 50.978970000000004,
            "velocity": 0.3937007874015748
          },
          {
            "duration": 0.10489499999999907,
            "durationTicks": 96,
            "midi": 44,
            "name": "G#2",
            "ticks": 46656,
            "time": 50.978970000000004,
            "velocity": 0.3937007874015748
          },
          {
            "duration": 0.10489499999999907,
            "durationTicks": 96,
            "midi": 49,
            "name": "C#3",
            "ticks": 46656,
            "time": 50.978970000000004,
            "velocity": 0.3937007874015748
          },
          {
            "duration": 0.10489499999999907,
            "durationTicks": 96,
            "midi": 44,
            "name": "G#2",
            "ticks": 46752,
            "time": 51.083865,
            "velocity": 0.3937007874015748
          },
          {
            "duration": 0.10489499999999907,
            "durationTicks": 96,
            "midi": 49,
            "name": "C#3",
            "ticks": 46752,
            "time": 51.083865,
            "velocity": 0.3937007874015748
          },
          {
            "duration": 0.10489499999999907,
            "durationTicks": 96,
            "midi": 37,
            "name": "C#2",
            "ticks": 46752,
            "time": 51.083865,
            "velocity": 0.3937007874015748
          },
          {
            "duration": 0.20978999999999814,
            "durationTicks": 192,
            "midi": 38,
            "name": "D2",
            "ticks": 46848,
            "time": 51.18876,
            "velocity": 0.3937007874015748
          },
          {
            "duration": 0.20978999999999814,
            "durationTicks": 192,
            "midi": 45,
            "name": "A2",
            "ticks": 46848,
            "time": 51.18876,
            "velocity": 0.3937007874015748
          },
          {
            "duration": 0.20978999999999814,
            "durationTicks": 192,
            "midi": 50,
            "name": "D3",
            "ticks": 46848,
            "time": 51.18876,
            "velocity": 0.3937007874015748
          },
          {
            "duration": 0.20978999999999814,
            "durationTicks": 192,
            "midi": 38,
            "name": "D2",
            "ticks": 47040,
            "time": 51.39855,
            "velocity": 0.3937007874015748
          },
          {
            "duration": 0.20978999999999814,
            "durationTicks": 192,
            "midi": 45,
            "name": "A2",
            "ticks": 47040,
            "time": 51.39855,
            "velocity": 0.3937007874015748
          },
          {
            "duration": 0.20978999999999814,
            "durationTicks": 192,
            "midi": 50,
            "name": "D3",
            "ticks": 47040,
            "time": 51.39855,
            "velocity": 0.3937007874015748
          },
          {
            "duration": 0.20979000000000525,
            "durationTicks": 192,
            "midi": 50,
            "name": "D3",
            "ticks": 47232,
            "time": 51.60834,
            "velocity": 0.3937007874015748
          },
          {
            "duration": 0.20979000000000525,
            "durationTicks": 192,
            "midi": 57,
            "name": "A3",
            "ticks": 47232,
            "time": 51.60834,
            "velocity": 0.3937007874015748
          },
          {
            "duration": 0.20979000000000525,
            "durationTicks": 192,
            "midi": 45,
            "name": "A2",
            "ticks": 47232,
            "time": 51.60834,
            "velocity": 0.3937007874015748
          },
          {
            "duration": 0.10489499999999907,
            "durationTicks": 96,
            "midi": 45,
            "name": "A2",
            "ticks": 47424,
            "time": 51.818130000000004,
            "velocity": 0.3937007874015748
          },
          {
            "duration": 0.10489499999999907,
            "durationTicks": 96,
            "midi": 38,
            "name": "D2",
            "ticks": 47424,
            "time": 51.818130000000004,
            "velocity": 0.3937007874015748
          },
          {
            "duration": 0.10489499999999907,
            "durationTicks": 96,
            "midi": 50,
            "name": "D3",
            "ticks": 47424,
            "time": 51.818130000000004,
            "velocity": 0.3937007874015748
          },
          {
            "duration": 0.10489499999999907,
            "durationTicks": 96,
            "midi": 57,
            "name": "A3",
            "ticks": 47520,
            "time": 51.923025,
            "velocity": 0.3937007874015748
          },
          {
            "duration": 0.10489499999999907,
            "durationTicks": 96,
            "midi": 50,
            "name": "D3",
            "ticks": 47520,
            "time": 51.923025,
            "velocity": 0.3937007874015748
          },
          {
            "duration": 0.10489499999999907,
            "durationTicks": 96,
            "midi": 45,
            "name": "A2",
            "ticks": 47520,
            "time": 51.923025,
            "velocity": 0.3937007874015748
          },
          {
            "duration": 0.20978999999999814,
            "durationTicks": 192,
            "midi": 33,
            "name": "A1",
            "ticks": 47616,
            "time": 52.02792,
            "velocity": 0.3937007874015748
          },
          {
            "duration": 0.20978999999999814,
            "durationTicks": 192,
            "midi": 40,
            "name": "E2",
            "ticks": 47616,
            "time": 52.02792,
            "velocity": 0.3937007874015748
          },
          {
            "duration": 0.20978999999999814,
            "durationTicks": 192,
            "midi": 45,
            "name": "A2",
            "ticks": 47616,
            "time": 52.02792,
            "velocity": 0.3937007874015748
          },
          {
            "duration": 0.20978999999999814,
            "durationTicks": 192,
            "midi": 33,
            "name": "A1",
            "ticks": 47808,
            "time": 52.23771,
            "velocity": 0.3937007874015748
          },
          {
            "duration": 0.20978999999999814,
            "durationTicks": 192,
            "midi": 40,
            "name": "E2",
            "ticks": 47808,
            "time": 52.23771,
            "velocity": 0.3937007874015748
          },
          {
            "duration": 0.20978999999999814,
            "durationTicks": 192,
            "midi": 45,
            "name": "A2",
            "ticks": 47808,
            "time": 52.23771,
            "velocity": 0.3937007874015748
          },
          {
            "duration": 0.20979000000000525,
            "durationTicks": 192,
            "midi": 52,
            "name": "E3",
            "ticks": 48000,
            "time": 52.4475,
            "velocity": 0.3937007874015748
          },
          {
            "duration": 0.20979000000000525,
            "durationTicks": 192,
            "midi": 45,
            "name": "A2",
            "ticks": 48000,
            "time": 52.4475,
            "velocity": 0.3937007874015748
          },
          {
            "duration": 0.20979000000000525,
            "durationTicks": 192,
            "midi": 40,
            "name": "E2",
            "ticks": 48000,
            "time": 52.4475,
            "velocity": 0.3937007874015748
          },
          {
            "duration": 0.10489499999999907,
            "durationTicks": 96,
            "midi": 45,
            "name": "A2",
            "ticks": 48192,
            "time": 52.65729,
            "velocity": 0.3937007874015748
          },
          {
            "duration": 0.10489499999999907,
            "durationTicks": 96,
            "midi": 40,
            "name": "E2",
            "ticks": 48192,
            "time": 52.65729,
            "velocity": 0.3937007874015748
          },
          {
            "duration": 0.10489499999999907,
            "durationTicks": 96,
            "midi": 33,
            "name": "A1",
            "ticks": 48192,
            "time": 52.65729,
            "velocity": 0.3937007874015748
          },
          {
            "duration": 0.10489499999999907,
            "durationTicks": 96,
            "midi": 33,
            "name": "A1",
            "ticks": 48288,
            "time": 52.762185,
            "velocity": 0.3937007874015748
          },
          {
            "duration": 0.10489499999999907,
            "durationTicks": 96,
            "midi": 45,
            "name": "A2",
            "ticks": 48288,
            "time": 52.762185,
            "velocity": 0.3937007874015748
          },
          {
            "duration": 0.10489499999999907,
            "durationTicks": 96,
            "midi": 40,
            "name": "E2",
            "ticks": 48288,
            "time": 52.762185,
            "velocity": 0.3937007874015748
          },
          {
            "duration": 0.20978999999999814,
            "durationTicks": 192,
            "midi": 50,
            "name": "D3",
            "ticks": 48384,
            "time": 52.86708,
            "velocity": 0.3937007874015748
          },
          {
            "duration": 0.20978999999999814,
            "durationTicks": 192,
            "midi": 38,
            "name": "D2",
            "ticks": 48384,
            "time": 52.86708,
            "velocity": 0.3937007874015748
          },
          {
            "duration": 0.20978999999999814,
            "durationTicks": 192,
            "midi": 45,
            "name": "A2",
            "ticks": 48384,
            "time": 52.86708,
            "velocity": 0.3937007874015748
          },
          {
            "duration": 0.20978999999999814,
            "durationTicks": 192,
            "midi": 50,
            "name": "D3",
            "ticks": 48576,
            "time": 53.07687,
            "velocity": 0.3937007874015748
          },
          {
            "duration": 0.20978999999999814,
            "durationTicks": 192,
            "midi": 38,
            "name": "D2",
            "ticks": 48576,
            "time": 53.07687,
            "velocity": 0.3937007874015748
          },
          {
            "duration": 0.20978999999999814,
            "durationTicks": 192,
            "midi": 45,
            "name": "A2",
            "ticks": 48576,
            "time": 53.07687,
            "velocity": 0.3937007874015748
          },
          {
            "duration": 0.20979000000000525,
            "durationTicks": 192,
            "midi": 50,
            "name": "D3",
            "ticks": 48768,
            "time": 53.28666,
            "velocity": 0.3937007874015748
          },
          {
            "duration": 0.20979000000000525,
            "durationTicks": 192,
            "midi": 57,
            "name": "A3",
            "ticks": 48768,
            "time": 53.28666,
            "velocity": 0.3937007874015748
          },
          {
            "duration": 0.20979000000000525,
            "durationTicks": 192,
            "midi": 45,
            "name": "A2",
            "ticks": 48768,
            "time": 53.28666,
            "velocity": 0.3937007874015748
          },
          {
            "duration": 0.10489499999999907,
            "durationTicks": 96,
            "midi": 50,
            "name": "D3",
            "ticks": 48960,
            "time": 53.49645,
            "velocity": 0.3937007874015748
          },
          {
            "duration": 0.10489499999999907,
            "durationTicks": 96,
            "midi": 38,
            "name": "D2",
            "ticks": 48960,
            "time": 53.49645,
            "velocity": 0.3937007874015748
          },
          {
            "duration": 0.10489499999999907,
            "durationTicks": 96,
            "midi": 45,
            "name": "A2",
            "ticks": 48960,
            "time": 53.49645,
            "velocity": 0.3937007874015748
          },
          {
            "duration": 0.10489499999999907,
            "durationTicks": 96,
            "midi": 50,
            "name": "D3",
            "ticks": 49056,
            "time": 53.601345,
            "velocity": 0.3937007874015748
          },
          {
            "duration": 0.10489499999999907,
            "durationTicks": 96,
            "midi": 45,
            "name": "A2",
            "ticks": 49056,
            "time": 53.601345,
            "velocity": 0.3937007874015748
          },
          {
            "duration": 0.10489499999999907,
            "durationTicks": 96,
            "midi": 38,
            "name": "D2",
            "ticks": 49056,
            "time": 53.601345,
            "velocity": 0.3937007874015748
          },
          {
            "duration": 0.20978999999999814,
            "durationTicks": 192,
            "midi": 46,
            "name": "A#2",
            "ticks": 49152,
            "time": 53.70624,
            "velocity": 0.3937007874015748
          },
          {
            "duration": 0.20978999999999814,
            "durationTicks": 192,
            "midi": 41,
            "name": "F2",
            "ticks": 49152,
            "time": 53.70624,
            "velocity": 0.3937007874015748
          },
          {
            "duration": 0.20978999999999814,
            "durationTicks": 192,
            "midi": 34,
            "name": "A#1",
            "ticks": 49152,
            "time": 53.70624,
            "velocity": 0.3937007874015748
          },
          {
            "duration": 0.20979000000000525,
            "durationTicks": 192,
            "midi": 34,
            "name": "A#1",
            "ticks": 49344,
            "time": 53.91603,
            "velocity": 0.3937007874015748
          },
          {
            "duration": 0.20979000000000525,
            "durationTicks": 192,
            "midi": 41,
            "name": "F2",
            "ticks": 49344,
            "time": 53.91603,
            "velocity": 0.3937007874015748
          },
          {
            "duration": 0.20979000000000525,
            "durationTicks": 192,
            "midi": 46,
            "name": "A#2",
            "ticks": 49344,
            "time": 53.91603,
            "velocity": 0.3937007874015748
          },
          {
            "duration": 0.20978999999999814,
            "durationTicks": 192,
            "midi": 46,
            "name": "A#2",
            "ticks": 49536,
            "time": 54.125820000000004,
            "velocity": 0.3937007874015748
          },
          {
            "duration": 0.20978999999999814,
            "durationTicks": 192,
            "midi": 41,
            "name": "F2",
            "ticks": 49536,
            "time": 54.125820000000004,
            "velocity": 0.3937007874015748
          },
          {
            "duration": 0.20978999999999814,
            "durationTicks": 192,
            "midi": 53,
            "name": "F3",
            "ticks": 49536,
            "time": 54.125820000000004,
            "velocity": 0.3937007874015748
          },
          {
            "duration": 0.10489499999999907,
            "durationTicks": 96,
            "midi": 46,
            "name": "A#2",
            "ticks": 49728,
            "time": 54.33561,
            "velocity": 0.3937007874015748
          },
          {
            "duration": 0.10489499999999907,
            "durationTicks": 96,
            "midi": 41,
            "name": "F2",
            "ticks": 49728,
            "time": 54.33561,
            "velocity": 0.3937007874015748
          },
          {
            "duration": 0.10489499999999907,
            "durationTicks": 96,
            "midi": 34,
            "name": "A#1",
            "ticks": 49728,
            "time": 54.33561,
            "velocity": 0.3937007874015748
          },
          {
            "duration": 0.10489499999999907,
            "durationTicks": 96,
            "midi": 34,
            "name": "A#1",
            "ticks": 49824,
            "time": 54.440505,
            "velocity": 0.3937007874015748
          },
          {
            "duration": 0.10489499999999907,
            "durationTicks": 96,
            "midi": 46,
            "name": "A#2",
            "ticks": 49824,
            "time": 54.440505,
            "velocity": 0.3937007874015748
          },
          {
            "duration": 0.10489499999999907,
            "durationTicks": 96,
            "midi": 41,
            "name": "F2",
            "ticks": 49824,
            "time": 54.440505,
            "velocity": 0.3937007874015748
          },
          {
            "duration": 0.20978999999999814,
            "durationTicks": 192,
            "midi": 45,
            "name": "A2",
            "ticks": 49920,
            "time": 54.5454,
            "velocity": 0.3937007874015748
          },
          {
            "duration": 0.20978999999999814,
            "durationTicks": 192,
            "midi": 33,
            "name": "A1",
            "ticks": 49920,
            "time": 54.5454,
            "velocity": 0.3937007874015748
          },
          {
            "duration": 0.20978999999999814,
            "durationTicks": 192,
            "midi": 40,
            "name": "E2",
            "ticks": 49920,
            "time": 54.5454,
            "velocity": 0.3937007874015748
          },
          {
            "duration": 0.20979000000000525,
            "durationTicks": 192,
            "midi": 33,
            "name": "A1",
            "ticks": 50112,
            "time": 54.75519,
            "velocity": 0.3937007874015748
          },
          {
            "duration": 0.20979000000000525,
            "durationTicks": 192,
            "midi": 40,
            "name": "E2",
            "ticks": 50112,
            "time": 54.75519,
            "velocity": 0.3937007874015748
          },
          {
            "duration": 0.20979000000000525,
            "durationTicks": 192,
            "midi": 45,
            "name": "A2",
            "ticks": 50112,
            "time": 54.75519,
            "velocity": 0.3937007874015748
          },
          {
            "duration": 0.20978999999999814,
            "durationTicks": 192,
            "midi": 45,
            "name": "A2",
            "ticks": 50304,
            "time": 54.964980000000004,
            "velocity": 0.3937007874015748
          },
          {
            "duration": 0.20978999999999814,
            "durationTicks": 192,
            "midi": 50,
            "name": "D3",
            "ticks": 50304,
            "time": 54.964980000000004,
            "velocity": 0.3937007874015748
          },
          {
            "duration": 0.20978999999999814,
            "durationTicks": 192,
            "midi": 57,
            "name": "A3",
            "ticks": 50304,
            "time": 54.964980000000004,
            "velocity": 0.3937007874015748
          },
          {
            "duration": 0.20978999999999814,
            "durationTicks": 192,
            "midi": 38,
            "name": "D2",
            "ticks": 50304,
            "time": 54.964980000000004,
            "velocity": 0.3937007874015748
          },
          {
            "duration": 0.10489499999999907,
            "durationTicks": 96,
            "midi": 41,
            "name": "F2",
            "ticks": 50688,
            "time": 55.38456,
            "velocity": 0.3937007874015748
          },
          {
            "duration": 0.10489499999999907,
            "durationTicks": 96,
            "midi": 46,
            "name": "A#2",
            "ticks": 50688,
            "time": 55.38456,
            "velocity": 0.3937007874015748
          },
          {
            "duration": 0.10489499999999907,
            "durationTicks": 96,
            "midi": 34,
            "name": "A#1",
            "ticks": 50688,
            "time": 55.38456,
            "velocity": 0.3937007874015748
          },
          {
            "duration": 0.10489499999999907,
            "durationTicks": 96,
            "midi": 46,
            "name": "A#2",
            "ticks": 50784,
            "time": 55.489455,
            "velocity": 0.3937007874015748
          },
          {
            "duration": 0.10489499999999907,
            "durationTicks": 96,
            "midi": 34,
            "name": "A#1",
            "ticks": 50784,
            "time": 55.489455,
            "velocity": 0.3937007874015748
          },
          {
            "duration": 0.10489499999999907,
            "durationTicks": 96,
            "midi": 41,
            "name": "F2",
            "ticks": 50784,
            "time": 55.489455,
            "velocity": 0.3937007874015748
          },
          {
            "duration": 0.10489499999999907,
            "durationTicks": 96,
            "midi": 46,
            "name": "A#2",
            "ticks": 50880,
            "time": 55.59435,
            "velocity": 0.3937007874015748
          },
          {
            "duration": 0.10489499999999907,
            "durationTicks": 96,
            "midi": 34,
            "name": "A#1",
            "ticks": 50880,
            "time": 55.59435,
            "velocity": 0.3937007874015748
          },
          {
            "duration": 0.10489499999999907,
            "durationTicks": 96,
            "midi": 41,
            "name": "F2",
            "ticks": 50880,
            "time": 55.59435,
            "velocity": 0.3937007874015748
          },
          {
            "duration": 0.10489500000000618,
            "durationTicks": 96,
            "midi": 34,
            "name": "A#1",
            "ticks": 50976,
            "time": 55.699245,
            "velocity": 0.3937007874015748
          },
          {
            "duration": 0.10489500000000618,
            "durationTicks": 96,
            "midi": 41,
            "name": "F2",
            "ticks": 50976,
            "time": 55.699245,
            "velocity": 0.3937007874015748
          },
          {
            "duration": 0.10489500000000618,
            "durationTicks": 96,
            "midi": 46,
            "name": "A#2",
            "ticks": 50976,
            "time": 55.699245,
            "velocity": 0.3937007874015748
          },
          {
            "duration": 0.10489499999999907,
            "durationTicks": 96,
            "midi": 41,
            "name": "F2",
            "ticks": 51072,
            "time": 55.804140000000004,
            "velocity": 0.3937007874015748
          },
          {
            "duration": 0.10489499999999907,
            "durationTicks": 96,
            "midi": 46,
            "name": "A#2",
            "ticks": 51072,
            "time": 55.804140000000004,
            "velocity": 0.3937007874015748
          },
          {
            "duration": 0.10489499999999907,
            "durationTicks": 96,
            "midi": 34,
            "name": "A#1",
            "ticks": 51072,
            "time": 55.804140000000004,
            "velocity": 0.3937007874015748
          },
          {
            "duration": 0.10489499999999907,
            "durationTicks": 96,
            "midi": 34,
            "name": "A#1",
            "ticks": 51168,
            "time": 55.909035,
            "velocity": 0.3937007874015748
          },
          {
            "duration": 0.10489499999999907,
            "durationTicks": 96,
            "midi": 41,
            "name": "F2",
            "ticks": 51168,
            "time": 55.909035,
            "velocity": 0.3937007874015748
          },
          {
            "duration": 0.10489499999999907,
            "durationTicks": 96,
            "midi": 46,
            "name": "A#2",
            "ticks": 51168,
            "time": 55.909035,
            "velocity": 0.3937007874015748
          },
          {
            "duration": 0.10489499999999907,
            "durationTicks": 96,
            "midi": 46,
            "name": "A#2",
            "ticks": 51264,
            "time": 56.01393,
            "velocity": 0.3937007874015748
          },
          {
            "duration": 0.10489499999999907,
            "durationTicks": 96,
            "midi": 34,
            "name": "A#1",
            "ticks": 51264,
            "time": 56.01393,
            "velocity": 0.3937007874015748
          },
          {
            "duration": 0.10489499999999907,
            "durationTicks": 96,
            "midi": 41,
            "name": "F2",
            "ticks": 51264,
            "time": 56.01393,
            "velocity": 0.3937007874015748
          },
          {
            "duration": 0.10489499999999907,
            "durationTicks": 96,
            "midi": 41,
            "name": "F2",
            "ticks": 51360,
            "time": 56.118825,
            "velocity": 0.3937007874015748
          },
          {
            "duration": 0.10489499999999907,
            "durationTicks": 96,
            "midi": 46,
            "name": "A#2",
            "ticks": 51360,
            "time": 56.118825,
            "velocity": 0.3937007874015748
          },
          {
            "duration": 0.10489499999999907,
            "durationTicks": 96,
            "midi": 34,
            "name": "A#1",
            "ticks": 51360,
            "time": 56.118825,
            "velocity": 0.3937007874015748
          },
          {
            "duration": 0.10489499999999907,
            "durationTicks": 96,
            "midi": 46,
            "name": "A#2",
            "ticks": 51456,
            "time": 56.22372,
            "velocity": 0.3937007874015748
          },
          {
            "duration": 0.10489499999999907,
            "durationTicks": 96,
            "midi": 34,
            "name": "A#1",
            "ticks": 51456,
            "time": 56.22372,
            "velocity": 0.3937007874015748
          },
          {
            "duration": 0.10489499999999907,
            "durationTicks": 96,
            "midi": 41,
            "name": "F2",
            "ticks": 51456,
            "time": 56.22372,
            "velocity": 0.3937007874015748
          },
          {
            "duration": 0.10489499999999907,
            "durationTicks": 96,
            "midi": 46,
            "name": "A#2",
            "ticks": 51552,
            "time": 56.328615,
            "velocity": 0.3937007874015748
          },
          {
            "duration": 0.10489499999999907,
            "durationTicks": 96,
            "midi": 41,
            "name": "F2",
            "ticks": 51552,
            "time": 56.328615,
            "velocity": 0.3937007874015748
          },
          {
            "duration": 0.10489499999999907,
            "durationTicks": 96,
            "midi": 34,
            "name": "A#1",
            "ticks": 51552,
            "time": 56.328615,
            "velocity": 0.3937007874015748
          },
          {
            "duration": 0.10489500000000618,
            "durationTicks": 96,
            "midi": 34,
            "name": "A#1",
            "ticks": 51648,
            "time": 56.43351,
            "velocity": 0.3937007874015748
          },
          {
            "duration": 0.10489500000000618,
            "durationTicks": 96,
            "midi": 41,
            "name": "F2",
            "ticks": 51648,
            "time": 56.43351,
            "velocity": 0.3937007874015748
          },
          {
            "duration": 0.10489500000000618,
            "durationTicks": 96,
            "midi": 46,
            "name": "A#2",
            "ticks": 51648,
            "time": 56.43351,
            "velocity": 0.3937007874015748
          },
          {
            "duration": 0.10489499999999907,
            "durationTicks": 96,
            "midi": 41,
            "name": "F2",
            "ticks": 51744,
            "time": 56.538405000000004,
            "velocity": 0.3937007874015748
          },
          {
            "duration": 0.10489499999999907,
            "durationTicks": 96,
            "midi": 46,
            "name": "A#2",
            "ticks": 51744,
            "time": 56.538405000000004,
            "velocity": 0.3937007874015748
          },
          {
            "duration": 0.10489499999999907,
            "durationTicks": 96,
            "midi": 34,
            "name": "A#1",
            "ticks": 51744,
            "time": 56.538405000000004,
            "velocity": 0.3937007874015748
          },
          {
            "duration": 0.10489499999999907,
            "durationTicks": 96,
            "midi": 34,
            "name": "A#1",
            "ticks": 51840,
            "time": 56.6433,
            "velocity": 0.3937007874015748
          },
          {
            "duration": 0.10489499999999907,
            "durationTicks": 96,
            "midi": 41,
            "name": "F2",
            "ticks": 51840,
            "time": 56.6433,
            "velocity": 0.3937007874015748
          },
          {
            "duration": 0.10489499999999907,
            "durationTicks": 96,
            "midi": 46,
            "name": "A#2",
            "ticks": 51840,
            "time": 56.6433,
            "velocity": 0.3937007874015748
          },
          {
            "duration": 0.10489499999999907,
            "durationTicks": 96,
            "midi": 46,
            "name": "A#2",
            "ticks": 51936,
            "time": 56.748195,
            "velocity": 0.3937007874015748
          },
          {
            "duration": 0.10489499999999907,
            "durationTicks": 96,
            "midi": 41,
            "name": "F2",
            "ticks": 51936,
            "time": 56.748195,
            "velocity": 0.3937007874015748
          },
          {
            "duration": 0.10489499999999907,
            "durationTicks": 96,
            "midi": 34,
            "name": "A#1",
            "ticks": 51936,
            "time": 56.748195,
            "velocity": 0.3937007874015748
          },
          {
            "duration": 0.10489499999999907,
            "durationTicks": 96,
            "midi": 34,
            "name": "A#1",
            "ticks": 52032,
            "time": 56.85309,
            "velocity": 0.3937007874015748
          },
          {
            "duration": 0.10489499999999907,
            "durationTicks": 96,
            "midi": 41,
            "name": "F2",
            "ticks": 52032,
            "time": 56.85309,
            "velocity": 0.3937007874015748
          },
          {
            "duration": 0.10489499999999907,
            "durationTicks": 96,
            "midi": 46,
            "name": "A#2",
            "ticks": 52032,
            "time": 56.85309,
            "velocity": 0.3937007874015748
          },
          {
            "duration": 0.10489499999999907,
            "durationTicks": 96,
            "midi": 34,
            "name": "A#1",
            "ticks": 52128,
            "time": 56.957985,
            "velocity": 0.3937007874015748
          },
          {
            "duration": 0.10489499999999907,
            "durationTicks": 96,
            "midi": 46,
            "name": "A#2",
            "ticks": 52128,
            "time": 56.957985,
            "velocity": 0.3937007874015748
          },
          {
            "duration": 0.10489499999999907,
            "durationTicks": 96,
            "midi": 41,
            "name": "F2",
            "ticks": 52128,
            "time": 56.957985,
            "velocity": 0.3937007874015748
          },
          {
            "duration": 0.10489499999999907,
            "durationTicks": 96,
            "midi": 45,
            "name": "A2",
            "ticks": 52224,
            "time": 57.06288,
            "velocity": 0.3937007874015748
          },
          {
            "duration": 0.10489499999999907,
            "durationTicks": 96,
            "midi": 50,
            "name": "D3",
            "ticks": 52224,
            "time": 57.06288,
            "velocity": 0.3937007874015748
          },
          {
            "duration": 0.10489499999999907,
            "durationTicks": 96,
            "midi": 38,
            "name": "D2",
            "ticks": 52224,
            "time": 57.06288,
            "velocity": 0.3937007874015748
          },
          {
            "duration": 0.10489499999999907,
            "durationTicks": 96,
            "midi": 38,
            "name": "D2",
            "ticks": 52320,
            "time": 57.167775,
            "velocity": 0.3937007874015748
          },
          {
            "duration": 0.10489499999999907,
            "durationTicks": 96,
            "midi": 45,
            "name": "A2",
            "ticks": 52320,
            "time": 57.167775,
            "velocity": 0.3937007874015748
          },
          {
            "duration": 0.10489499999999907,
            "durationTicks": 96,
            "midi": 50,
            "name": "D3",
            "ticks": 52320,
            "time": 57.167775,
            "velocity": 0.3937007874015748
          },
          {
            "duration": 0.10489500000000618,
            "durationTicks": 96,
            "midi": 50,
            "name": "D3",
            "ticks": 52416,
            "time": 57.27267,
            "velocity": 0.3937007874015748
          },
          {
            "duration": 0.10489500000000618,
            "durationTicks": 96,
            "midi": 38,
            "name": "D2",
            "ticks": 52416,
            "time": 57.27267,
            "velocity": 0.3937007874015748
          },
          {
            "duration": 0.10489500000000618,
            "durationTicks": 96,
            "midi": 45,
            "name": "A2",
            "ticks": 52416,
            "time": 57.27267,
            "velocity": 0.3937007874015748
          },
          {
            "duration": 0.10489499999999907,
            "durationTicks": 96,
            "midi": 50,
            "name": "D3",
            "ticks": 52512,
            "time": 57.377565000000004,
            "velocity": 0.3937007874015748
          },
          {
            "duration": 0.10489499999999907,
            "durationTicks": 96,
            "midi": 38,
            "name": "D2",
            "ticks": 52512,
            "time": 57.377565000000004,
            "velocity": 0.3937007874015748
          },
          {
            "duration": 0.10489499999999907,
            "durationTicks": 96,
            "midi": 45,
            "name": "A2",
            "ticks": 52512,
            "time": 57.377565000000004,
            "velocity": 0.3937007874015748
          },
          {
            "duration": 0.10489499999999907,
            "durationTicks": 96,
            "midi": 50,
            "name": "D3",
            "ticks": 52608,
            "time": 57.48246,
            "velocity": 0.3937007874015748
          },
          {
            "duration": 0.10489499999999907,
            "durationTicks": 96,
            "midi": 38,
            "name": "D2",
            "ticks": 52608,
            "time": 57.48246,
            "velocity": 0.3937007874015748
          },
          {
            "duration": 0.10489499999999907,
            "durationTicks": 96,
            "midi": 45,
            "name": "A2",
            "ticks": 52608,
            "time": 57.48246,
            "velocity": 0.3937007874015748
          },
          {
            "duration": 0.10489499999999907,
            "durationTicks": 96,
            "midi": 38,
            "name": "D2",
            "ticks": 52704,
            "time": 57.587355,
            "velocity": 0.3937007874015748
          },
          {
            "duration": 0.10489499999999907,
            "durationTicks": 96,
            "midi": 45,
            "name": "A2",
            "ticks": 52704,
            "time": 57.587355,
            "velocity": 0.3937007874015748
          },
          {
            "duration": 0.10489499999999907,
            "durationTicks": 96,
            "midi": 50,
            "name": "D3",
            "ticks": 52704,
            "time": 57.587355,
            "velocity": 0.3937007874015748
          },
          {
            "duration": 0.10489499999999907,
            "durationTicks": 96,
            "midi": 50,
            "name": "D3",
            "ticks": 52800,
            "time": 57.69225,
            "velocity": 0.3937007874015748
          },
          {
            "duration": 0.10489499999999907,
            "durationTicks": 96,
            "midi": 45,
            "name": "A2",
            "ticks": 52800,
            "time": 57.69225,
            "velocity": 0.3937007874015748
          },
          {
            "duration": 0.10489499999999907,
            "durationTicks": 96,
            "midi": 38,
            "name": "D2",
            "ticks": 52800,
            "time": 57.69225,
            "velocity": 0.3937007874015748
          },
          {
            "duration": 0.10489499999999907,
            "durationTicks": 96,
            "midi": 45,
            "name": "A2",
            "ticks": 52896,
            "time": 57.797145,
            "velocity": 0.3937007874015748
          },
          {
            "duration": 0.10489499999999907,
            "durationTicks": 96,
            "midi": 38,
            "name": "D2",
            "ticks": 52896,
            "time": 57.797145,
            "velocity": 0.3937007874015748
          },
          {
            "duration": 0.10489499999999907,
            "durationTicks": 96,
            "midi": 50,
            "name": "D3",
            "ticks": 52896,
            "time": 57.797145,
            "velocity": 0.3937007874015748
          },
          {
            "duration": 0.10489499999999907,
            "durationTicks": 96,
            "midi": 45,
            "name": "A2",
            "ticks": 52992,
            "time": 57.90204,
            "velocity": 0.3937007874015748
          },
          {
            "duration": 0.10489499999999907,
            "durationTicks": 96,
            "midi": 50,
            "name": "D3",
            "ticks": 52992,
            "time": 57.90204,
            "velocity": 0.3937007874015748
          },
          {
            "duration": 0.10489499999999907,
            "durationTicks": 96,
            "midi": 38,
            "name": "D2",
            "ticks": 52992,
            "time": 57.90204,
            "velocity": 0.3937007874015748
          },
          {
            "duration": 0.10489499999999907,
            "durationTicks": 96,
            "midi": 50,
            "name": "D3",
            "ticks": 53088,
            "time": 58.006935,
            "velocity": 0.3937007874015748
          },
          {
            "duration": 0.10489499999999907,
            "durationTicks": 96,
            "midi": 45,
            "name": "A2",
            "ticks": 53088,
            "time": 58.006935,
            "velocity": 0.3937007874015748
          },
          {
            "duration": 0.10489499999999907,
            "durationTicks": 96,
            "midi": 38,
            "name": "D2",
            "ticks": 53088,
            "time": 58.006935,
            "velocity": 0.3937007874015748
          },
          {
            "duration": 0.10489500000000618,
            "durationTicks": 96,
            "midi": 38,
            "name": "D2",
            "ticks": 53184,
            "time": 58.11183,
            "velocity": 0.3937007874015748
          },
          {
            "duration": 0.10489500000000618,
            "durationTicks": 96,
            "midi": 45,
            "name": "A2",
            "ticks": 53184,
            "time": 58.11183,
            "velocity": 0.3937007874015748
          },
          {
            "duration": 0.10489500000000618,
            "durationTicks": 96,
            "midi": 50,
            "name": "D3",
            "ticks": 53184,
            "time": 58.11183,
            "velocity": 0.3937007874015748
          },
          {
            "duration": 0.10489499999999907,
            "durationTicks": 96,
            "midi": 45,
            "name": "A2",
            "ticks": 53280,
            "time": 58.216725000000004,
            "velocity": 0.3937007874015748
          },
          {
            "duration": 0.10489499999999907,
            "durationTicks": 96,
            "midi": 50,
            "name": "D3",
            "ticks": 53280,
            "time": 58.216725000000004,
            "velocity": 0.3937007874015748
          },
          {
            "duration": 0.10489499999999907,
            "durationTicks": 96,
            "midi": 38,
            "name": "D2",
            "ticks": 53280,
            "time": 58.216725000000004,
            "velocity": 0.3937007874015748
          },
          {
            "duration": 0.10489499999999907,
            "durationTicks": 96,
            "midi": 50,
            "name": "D3",
            "ticks": 53376,
            "time": 58.32162,
            "velocity": 0.3937007874015748
          },
          {
            "duration": 0.10489499999999907,
            "durationTicks": 96,
            "midi": 38,
            "name": "D2",
            "ticks": 53376,
            "time": 58.32162,
            "velocity": 0.3937007874015748
          },
          {
            "duration": 0.10489499999999907,
            "durationTicks": 96,
            "midi": 45,
            "name": "A2",
            "ticks": 53376,
            "time": 58.32162,
            "velocity": 0.3937007874015748
          },
          {
            "duration": 0.10489499999999907,
            "durationTicks": 96,
            "midi": 45,
            "name": "A2",
            "ticks": 53472,
            "time": 58.426515,
            "velocity": 0.3937007874015748
          },
          {
            "duration": 0.10489499999999907,
            "durationTicks": 96,
            "midi": 38,
            "name": "D2",
            "ticks": 53472,
            "time": 58.426515,
            "velocity": 0.3937007874015748
          },
          {
            "duration": 0.10489499999999907,
            "durationTicks": 96,
            "midi": 50,
            "name": "D3",
            "ticks": 53472,
            "time": 58.426515,
            "velocity": 0.3937007874015748
          },
          {
            "duration": 0.10489499999999907,
            "durationTicks": 96,
            "midi": 45,
            "name": "A2",
            "ticks": 53568,
            "time": 58.53141,
            "velocity": 0.3937007874015748
          },
          {
            "duration": 0.10489499999999907,
            "durationTicks": 96,
            "midi": 38,
            "name": "D2",
            "ticks": 53568,
            "time": 58.53141,
            "velocity": 0.3937007874015748
          },
          {
            "duration": 0.10489499999999907,
            "durationTicks": 96,
            "midi": 50,
            "name": "D3",
            "ticks": 53568,
            "time": 58.53141,
            "velocity": 0.3937007874015748
          },
          {
            "duration": 0.10489499999999907,
            "durationTicks": 96,
            "midi": 38,
            "name": "D2",
            "ticks": 53664,
            "time": 58.636305,
            "velocity": 0.3937007874015748
          },
          {
            "duration": 0.10489499999999907,
            "durationTicks": 96,
            "midi": 45,
            "name": "A2",
            "ticks": 53664,
            "time": 58.636305,
            "velocity": 0.3937007874015748
          },
          {
            "duration": 0.10489499999999907,
            "durationTicks": 96,
            "midi": 50,
            "name": "D3",
            "ticks": 53664,
            "time": 58.636305,
            "velocity": 0.3937007874015748
          },
          {
            "duration": 0.10489499999999907,
            "durationTicks": 96,
            "midi": 46,
            "name": "A#2",
            "ticks": 53760,
            "time": 58.7412,
            "velocity": 0.3937007874015748
          },
          {
            "duration": 0.10489499999999907,
            "durationTicks": 96,
            "midi": 41,
            "name": "F2",
            "ticks": 53760,
            "time": 58.7412,
            "velocity": 0.3937007874015748
          },
          {
            "duration": 0.10489499999999907,
            "durationTicks": 96,
            "midi": 34,
            "name": "A#1",
            "ticks": 53760,
            "time": 58.7412,
            "velocity": 0.3937007874015748
          },
          {
            "duration": 0.10489500000000618,
            "durationTicks": 96,
            "midi": 34,
            "name": "A#1",
            "ticks": 53856,
            "time": 58.846095,
            "velocity": 0.3937007874015748
          },
          {
            "duration": 0.10489500000000618,
            "durationTicks": 96,
            "midi": 46,
            "name": "A#2",
            "ticks": 53856,
            "time": 58.846095,
            "velocity": 0.3937007874015748
          },
          {
            "duration": 0.10489500000000618,
            "durationTicks": 96,
            "midi": 41,
            "name": "F2",
            "ticks": 53856,
            "time": 58.846095,
            "velocity": 0.3937007874015748
          },
          {
            "duration": 0.10489499999999907,
            "durationTicks": 96,
            "midi": 41,
            "name": "F2",
            "ticks": 53952,
            "time": 58.950990000000004,
            "velocity": 0.3937007874015748
          },
          {
            "duration": 0.10489499999999907,
            "durationTicks": 96,
            "midi": 46,
            "name": "A#2",
            "ticks": 53952,
            "time": 58.950990000000004,
            "velocity": 0.3937007874015748
          },
          {
            "duration": 0.10489499999999907,
            "durationTicks": 96,
            "midi": 34,
            "name": "A#1",
            "ticks": 53952,
            "time": 58.950990000000004,
            "velocity": 0.3937007874015748
          },
          {
            "duration": 0.10489499999999907,
            "durationTicks": 96,
            "midi": 46,
            "name": "A#2",
            "ticks": 54048,
            "time": 59.055885,
            "velocity": 0.3937007874015748
          },
          {
            "duration": 0.10489499999999907,
            "durationTicks": 96,
            "midi": 34,
            "name": "A#1",
            "ticks": 54048,
            "time": 59.055885,
            "velocity": 0.3937007874015748
          },
          {
            "duration": 0.10489499999999907,
            "durationTicks": 96,
            "midi": 41,
            "name": "F2",
            "ticks": 54048,
            "time": 59.055885,
            "velocity": 0.3937007874015748
          },
          {
            "duration": 0.10489499999999907,
            "durationTicks": 96,
            "midi": 34,
            "name": "A#1",
            "ticks": 54144,
            "time": 59.16078,
            "velocity": 0.3937007874015748
          },
          {
            "duration": 0.10489499999999907,
            "durationTicks": 96,
            "midi": 41,
            "name": "F2",
            "ticks": 54144,
            "time": 59.16078,
            "velocity": 0.3937007874015748
          },
          {
            "duration": 0.10489499999999907,
            "durationTicks": 96,
            "midi": 46,
            "name": "A#2",
            "ticks": 54144,
            "time": 59.16078,
            "velocity": 0.3937007874015748
          },
          {
            "duration": 0.10489499999999907,
            "durationTicks": 96,
            "midi": 34,
            "name": "A#1",
            "ticks": 54240,
            "time": 59.265675,
            "velocity": 0.3937007874015748
          },
          {
            "duration": 0.10489499999999907,
            "durationTicks": 96,
            "midi": 46,
            "name": "A#2",
            "ticks": 54240,
            "time": 59.265675,
            "velocity": 0.3937007874015748
          },
          {
            "duration": 0.10489499999999907,
            "durationTicks": 96,
            "midi": 41,
            "name": "F2",
            "ticks": 54240,
            "time": 59.265675,
            "velocity": 0.3937007874015748
          },
          {
            "duration": 0.10489499999999907,
            "durationTicks": 96,
            "midi": 41,
            "name": "F2",
            "ticks": 54336,
            "time": 59.37057,
            "velocity": 0.3937007874015748
          },
          {
            "duration": 0.10489499999999907,
            "durationTicks": 96,
            "midi": 34,
            "name": "A#1",
            "ticks": 54336,
            "time": 59.37057,
            "velocity": 0.3937007874015748
          },
          {
            "duration": 0.10489499999999907,
            "durationTicks": 96,
            "midi": 46,
            "name": "A#2",
            "ticks": 54336,
            "time": 59.37057,
            "velocity": 0.3937007874015748
          },
          {
            "duration": 0.10489499999999907,
            "durationTicks": 96,
            "midi": 46,
            "name": "A#2",
            "ticks": 54432,
            "time": 59.475465,
            "velocity": 0.3937007874015748
          },
          {
            "duration": 0.10489499999999907,
            "durationTicks": 96,
            "midi": 41,
            "name": "F2",
            "ticks": 54432,
            "time": 59.475465,
            "velocity": 0.3937007874015748
          },
          {
            "duration": 0.10489499999999907,
            "durationTicks": 96,
            "midi": 34,
            "name": "A#1",
            "ticks": 54432,
            "time": 59.475465,
            "velocity": 0.3937007874015748
          },
          {
            "duration": 0.10489499999999907,
            "durationTicks": 96,
            "midi": 46,
            "name": "A#2",
            "ticks": 54528,
            "time": 59.58036,
            "velocity": 0.3937007874015748
          },
          {
            "duration": 0.10489499999999907,
            "durationTicks": 96,
            "midi": 41,
            "name": "F2",
            "ticks": 54528,
            "time": 59.58036,
            "velocity": 0.3937007874015748
          },
          {
            "duration": 0.10489499999999907,
            "durationTicks": 96,
            "midi": 34,
            "name": "A#1",
            "ticks": 54528,
            "time": 59.58036,
            "velocity": 0.3937007874015748
          },
          {
            "duration": 0.10489500000000618,
            "durationTicks": 96,
            "midi": 41,
            "name": "F2",
            "ticks": 54624,
            "time": 59.685255,
            "velocity": 0.3937007874015748
          },
          {
            "duration": 0.10489500000000618,
            "durationTicks": 96,
            "midi": 46,
            "name": "A#2",
            "ticks": 54624,
            "time": 59.685255,
            "velocity": 0.3937007874015748
          },
          {
            "duration": 0.10489500000000618,
            "durationTicks": 96,
            "midi": 34,
            "name": "A#1",
            "ticks": 54624,
            "time": 59.685255,
            "velocity": 0.3937007874015748
          },
          {
            "duration": 0.10489499999999907,
            "durationTicks": 96,
            "midi": 41,
            "name": "F2",
            "ticks": 54720,
            "time": 59.790150000000004,
            "velocity": 0.3937007874015748
          },
          {
            "duration": 0.10489499999999907,
            "durationTicks": 96,
            "midi": 34,
            "name": "A#1",
            "ticks": 54720,
            "time": 59.790150000000004,
            "velocity": 0.3937007874015748
          },
          {
            "duration": 0.10489499999999907,
            "durationTicks": 96,
            "midi": 46,
            "name": "A#2",
            "ticks": 54720,
            "time": 59.790150000000004,
            "velocity": 0.3937007874015748
          },
          {
            "duration": 0.10489499999999907,
            "durationTicks": 96,
            "midi": 34,
            "name": "A#1",
            "ticks": 54816,
            "time": 59.895045,
            "velocity": 0.3937007874015748
          },
          {
            "duration": 0.10489499999999907,
            "durationTicks": 96,
            "midi": 41,
            "name": "F2",
            "ticks": 54816,
            "time": 59.895045,
            "velocity": 0.3937007874015748
          },
          {
            "duration": 0.10489499999999907,
            "durationTicks": 96,
            "midi": 46,
            "name": "A#2",
            "ticks": 54816,
            "time": 59.895045,
            "velocity": 0.3937007874015748
          },
          {
            "duration": 0.10489499999999907,
            "durationTicks": 96,
            "midi": 34,
            "name": "A#1",
            "ticks": 54912,
            "time": 59.99994,
            "velocity": 0.3937007874015748
          },
          {
            "duration": 0.10489499999999907,
            "durationTicks": 96,
            "midi": 41,
            "name": "F2",
            "ticks": 54912,
            "time": 59.99994,
            "velocity": 0.3937007874015748
          },
          {
            "duration": 0.10489499999999907,
            "durationTicks": 96,
            "midi": 46,
            "name": "A#2",
            "ticks": 54912,
            "time": 59.99994,
            "velocity": 0.3937007874015748
          },
          {
            "duration": 0.10489499999999907,
            "durationTicks": 96,
            "midi": 46,
            "name": "A#2",
            "ticks": 55008,
            "time": 60.104835,
            "velocity": 0.3937007874015748
          },
          {
            "duration": 0.10489499999999907,
            "durationTicks": 96,
            "midi": 41,
            "name": "F2",
            "ticks": 55008,
            "time": 60.104835,
            "velocity": 0.3937007874015748
          },
          {
            "duration": 0.10489499999999907,
            "durationTicks": 96,
            "midi": 34,
            "name": "A#1",
            "ticks": 55008,
            "time": 60.104835,
            "velocity": 0.3937007874015748
          },
          {
            "duration": 0.10489499999999907,
            "durationTicks": 96,
            "midi": 34,
            "name": "A#1",
            "ticks": 55104,
            "time": 60.20973,
            "velocity": 0.3937007874015748
          },
          {
            "duration": 0.10489499999999907,
            "durationTicks": 96,
            "midi": 46,
            "name": "A#2",
            "ticks": 55104,
            "time": 60.20973,
            "velocity": 0.3937007874015748
          },
          {
            "duration": 0.10489499999999907,
            "durationTicks": 96,
            "midi": 41,
            "name": "F2",
            "ticks": 55104,
            "time": 60.20973,
            "velocity": 0.3937007874015748
          },
          {
            "duration": 0.10489499999999907,
            "durationTicks": 96,
            "midi": 41,
            "name": "F2",
            "ticks": 55200,
            "time": 60.314625,
            "velocity": 0.3937007874015748
          },
          {
            "duration": 0.10489499999999907,
            "durationTicks": 96,
            "midi": 46,
            "name": "A#2",
            "ticks": 55200,
            "time": 60.314625,
            "velocity": 0.3937007874015748
          },
          {
            "duration": 0.10489499999999907,
            "durationTicks": 96,
            "midi": 34,
            "name": "A#1",
            "ticks": 55200,
            "time": 60.314625,
            "velocity": 0.3937007874015748
          },
          {
            "duration": 0.10489500000000618,
            "durationTicks": 96,
            "midi": 45,
            "name": "A2",
            "ticks": 55296,
            "time": 60.41952,
            "velocity": 0.3937007874015748
          },
          {
            "duration": 0.10489500000000618,
            "durationTicks": 96,
            "midi": 50,
            "name": "D3",
            "ticks": 55296,
            "time": 60.41952,
            "velocity": 0.3937007874015748
          },
          {
            "duration": 0.10489500000000618,
            "durationTicks": 96,
            "midi": 38,
            "name": "D2",
            "ticks": 55296,
            "time": 60.41952,
            "velocity": 0.3937007874015748
          },
          {
            "duration": 0.10489499999999907,
            "durationTicks": 96,
            "midi": 38,
            "name": "D2",
            "ticks": 55392,
            "time": 60.524415000000005,
            "velocity": 0.3937007874015748
          },
          {
            "duration": 0.10489499999999907,
            "durationTicks": 96,
            "midi": 45,
            "name": "A2",
            "ticks": 55392,
            "time": 60.524415000000005,
            "velocity": 0.3937007874015748
          },
          {
            "duration": 0.10489499999999907,
            "durationTicks": 96,
            "midi": 50,
            "name": "D3",
            "ticks": 55392,
            "time": 60.524415000000005,
            "velocity": 0.3937007874015748
          },
          {
            "duration": 0.10489499999999907,
            "durationTicks": 96,
            "midi": 50,
            "name": "D3",
            "ticks": 55488,
            "time": 60.629310000000004,
            "velocity": 0.3937007874015748
          },
          {
            "duration": 0.10489499999999907,
            "durationTicks": 96,
            "midi": 45,
            "name": "A2",
            "ticks": 55488,
            "time": 60.629310000000004,
            "velocity": 0.3937007874015748
          },
          {
            "duration": 0.10489499999999907,
            "durationTicks": 96,
            "midi": 38,
            "name": "D2",
            "ticks": 55488,
            "time": 60.629310000000004,
            "velocity": 0.3937007874015748
          },
          {
            "duration": 0.10489499999999907,
            "durationTicks": 96,
            "midi": 45,
            "name": "A2",
            "ticks": 55584,
            "time": 60.734205,
            "velocity": 0.3937007874015748
          },
          {
            "duration": 0.10489499999999907,
            "durationTicks": 96,
            "midi": 50,
            "name": "D3",
            "ticks": 55584,
            "time": 60.734205,
            "velocity": 0.3937007874015748
          },
          {
            "duration": 0.10489499999999907,
            "durationTicks": 96,
            "midi": 38,
            "name": "D2",
            "ticks": 55584,
            "time": 60.734205,
            "velocity": 0.3937007874015748
          },
          {
            "duration": 0.10489499999999907,
            "durationTicks": 96,
            "midi": 45,
            "name": "A2",
            "ticks": 55680,
            "time": 60.8391,
            "velocity": 0.3937007874015748
          },
          {
            "duration": 0.10489499999999907,
            "durationTicks": 96,
            "midi": 50,
            "name": "D3",
            "ticks": 55680,
            "time": 60.8391,
            "velocity": 0.3937007874015748
          },
          {
            "duration": 0.10489499999999907,
            "durationTicks": 96,
            "midi": 38,
            "name": "D2",
            "ticks": 55680,
            "time": 60.8391,
            "velocity": 0.3937007874015748
          },
          {
            "duration": 0.10489499999999907,
            "durationTicks": 96,
            "midi": 50,
            "name": "D3",
            "ticks": 55776,
            "time": 60.943995,
            "velocity": 0.3937007874015748
          },
          {
            "duration": 0.10489499999999907,
            "durationTicks": 96,
            "midi": 45,
            "name": "A2",
            "ticks": 55776,
            "time": 60.943995,
            "velocity": 0.3937007874015748
          },
          {
            "duration": 0.10489499999999907,
            "durationTicks": 96,
            "midi": 38,
            "name": "D2",
            "ticks": 55776,
            "time": 60.943995,
            "velocity": 0.3937007874015748
          },
          {
            "duration": 0.10489499999999907,
            "durationTicks": 96,
            "midi": 45,
            "name": "A2",
            "ticks": 55872,
            "time": 61.04889,
            "velocity": 0.3937007874015748
          },
          {
            "duration": 0.10489499999999907,
            "durationTicks": 96,
            "midi": 50,
            "name": "D3",
            "ticks": 55872,
            "time": 61.04889,
            "velocity": 0.3937007874015748
          },
          {
            "duration": 0.10489499999999907,
            "durationTicks": 96,
            "midi": 38,
            "name": "D2",
            "ticks": 55872,
            "time": 61.04889,
            "velocity": 0.3937007874015748
          },
          {
            "duration": 0.10489499999999907,
            "durationTicks": 96,
            "midi": 38,
            "name": "D2",
            "ticks": 55968,
            "time": 61.153785,
            "velocity": 0.3937007874015748
          },
          {
            "duration": 0.10489499999999907,
            "durationTicks": 96,
            "midi": 45,
            "name": "A2",
            "ticks": 55968,
            "time": 61.153785,
            "velocity": 0.3937007874015748
          },
          {
            "duration": 0.10489499999999907,
            "durationTicks": 96,
            "midi": 50,
            "name": "D3",
            "ticks": 55968,
            "time": 61.153785,
            "velocity": 0.3937007874015748
          },
          {
            "duration": 0.10489500000000618,
            "durationTicks": 96,
            "midi": 50,
            "name": "D3",
            "ticks": 56064,
            "time": 61.25868,
            "velocity": 0.3937007874015748
          },
          {
            "duration": 0.10489500000000618,
            "durationTicks": 96,
            "midi": 38,
            "name": "D2",
            "ticks": 56064,
            "time": 61.25868,
            "velocity": 0.3937007874015748
          },
          {
            "duration": 0.10489500000000618,
            "durationTicks": 96,
            "midi": 57,
            "name": "A3",
            "ticks": 56064,
            "time": 61.25868,
            "velocity": 0.3937007874015748
          },
          {
            "duration": 0.10489500000000618,
            "durationTicks": 96,
            "midi": 62,
            "name": "D4",
            "ticks": 56064,
            "time": 61.25868,
            "velocity": 0.3937007874015748
          },
          {
            "duration": 0.10489500000000618,
            "durationTicks": 96,
            "midi": 69,
            "name": "A4",
            "ticks": 56064,
            "time": 61.25868,
            "velocity": 0.3937007874015748
          },
          {
            "duration": 0.10489500000000618,
            "durationTicks": 96,
            "midi": 45,
            "name": "A2",
            "ticks": 56064,
            "time": 61.25868,
            "velocity": 0.3937007874015748
          },
          {
            "duration": 0.10489499999999907,
            "durationTicks": 96,
            "midi": 38,
            "name": "D2",
            "ticks": 56160,
            "time": 61.363575000000004,
            "velocity": 0.3937007874015748
          },
          {
            "duration": 0.10489499999999907,
            "durationTicks": 96,
            "midi": 45,
            "name": "A2",
            "ticks": 56160,
            "time": 61.363575000000004,
            "velocity": 0.3937007874015748
          },
          {
            "duration": 0.10489499999999907,
            "durationTicks": 96,
            "midi": 69,
            "name": "A4",
            "ticks": 56160,
            "time": 61.363575000000004,
            "velocity": 0.3937007874015748
          },
          {
            "duration": 0.10489499999999907,
            "durationTicks": 96,
            "midi": 50,
            "name": "D3",
            "ticks": 56160,
            "time": 61.363575000000004,
            "velocity": 0.3937007874015748
          },
          {
            "duration": 0.10489499999999907,
            "durationTicks": 96,
            "midi": 57,
            "name": "A3",
            "ticks": 56160,
            "time": 61.363575000000004,
            "velocity": 0.3937007874015748
          },
          {
            "duration": 0.10489499999999907,
            "durationTicks": 96,
            "midi": 62,
            "name": "D4",
            "ticks": 56160,
            "time": 61.363575000000004,
            "velocity": 0.3937007874015748
          },
          {
            "duration": 0.10489499999999907,
            "durationTicks": 96,
            "midi": 56,
            "name": "G#3",
            "ticks": 56256,
            "time": 61.46847,
            "velocity": 0.3937007874015748
          },
          {
            "duration": 0.10489499999999907,
            "durationTicks": 96,
            "midi": 61,
            "name": "C#4",
            "ticks": 56256,
            "time": 61.46847,
            "velocity": 0.3937007874015748
          },
          {
            "duration": 0.10489499999999907,
            "durationTicks": 96,
            "midi": 44,
            "name": "G#2",
            "ticks": 56256,
            "time": 61.46847,
            "velocity": 0.3937007874015748
          },
          {
            "duration": 0.10489499999999907,
            "durationTicks": 96,
            "midi": 37,
            "name": "C#2",
            "ticks": 56256,
            "time": 61.46847,
            "velocity": 0.3937007874015748
          },
          {
            "duration": 0.10489499999999907,
            "durationTicks": 96,
            "midi": 49,
            "name": "C#3",
            "ticks": 56256,
            "time": 61.46847,
            "velocity": 0.3937007874015748
          },
          {
            "duration": 0.10489499999999907,
            "durationTicks": 96,
            "midi": 68,
            "name": "G#4",
            "ticks": 56256,
            "time": 61.46847,
            "velocity": 0.3937007874015748
          },
          {
            "duration": 0.10489499999999907,
            "durationTicks": 96,
            "midi": 68,
            "name": "G#4",
            "ticks": 56352,
            "time": 61.573365,
            "velocity": 0.3937007874015748
          },
          {
            "duration": 0.10489499999999907,
            "durationTicks": 96,
            "midi": 56,
            "name": "G#3",
            "ticks": 56352,
            "time": 61.573365,
            "velocity": 0.3937007874015748
          },
          {
            "duration": 0.10489499999999907,
            "durationTicks": 96,
            "midi": 44,
            "name": "G#2",
            "ticks": 56352,
            "time": 61.573365,
            "velocity": 0.3937007874015748
          },
          {
            "duration": 0.10489499999999907,
            "durationTicks": 96,
            "midi": 49,
            "name": "C#3",
            "ticks": 56352,
            "time": 61.573365,
            "velocity": 0.3937007874015748
          },
          {
            "duration": 0.10489499999999907,
            "durationTicks": 96,
            "midi": 61,
            "name": "C#4",
            "ticks": 56352,
            "time": 61.573365,
            "velocity": 0.3937007874015748
          },
          {
            "duration": 0.10489499999999907,
            "durationTicks": 96,
            "midi": 37,
            "name": "C#2",
            "ticks": 56352,
            "time": 61.573365,
            "velocity": 0.3937007874015748
          },
          {
            "duration": 0.10489499999999907,
            "durationTicks": 96,
            "midi": 55,
            "name": "G3",
            "ticks": 56448,
            "time": 61.67826,
            "velocity": 0.3937007874015748
          },
          {
            "duration": 0.10489499999999907,
            "durationTicks": 96,
            "midi": 60,
            "name": "C4",
            "ticks": 56448,
            "time": 61.67826,
            "velocity": 0.3937007874015748
          },
          {
            "duration": 0.10489499999999907,
            "durationTicks": 96,
            "midi": 48,
            "name": "C3",
            "ticks": 56448,
            "time": 61.67826,
            "velocity": 0.3937007874015748
          },
          {
            "duration": 0.10489499999999907,
            "durationTicks": 96,
            "midi": 67,
            "name": "G4",
            "ticks": 56448,
            "time": 61.67826,
            "velocity": 0.3937007874015748
          },
          {
            "duration": 0.10489499999999907,
            "durationTicks": 96,
            "midi": 43,
            "name": "G2",
            "ticks": 56448,
            "time": 61.67826,
            "velocity": 0.3937007874015748
          },
          {
            "duration": 0.10489499999999907,
            "durationTicks": 96,
            "midi": 36,
            "name": "C2",
            "ticks": 56448,
            "time": 61.67826,
            "velocity": 0.3937007874015748
          },
          {
            "duration": 0.10489499999999907,
            "durationTicks": 96,
            "midi": 67,
            "name": "G4",
            "ticks": 56544,
            "time": 61.783155,
            "velocity": 0.3937007874015748
          },
          {
            "duration": 0.10489499999999907,
            "durationTicks": 96,
            "midi": 55,
            "name": "G3",
            "ticks": 56544,
            "time": 61.783155,
            "velocity": 0.3937007874015748
          },
          {
            "duration": 0.10489499999999907,
            "durationTicks": 96,
            "midi": 36,
            "name": "C2",
            "ticks": 56544,
            "time": 61.783155,
            "velocity": 0.3937007874015748
          },
          {
            "duration": 0.10489499999999907,
            "durationTicks": 96,
            "midi": 48,
            "name": "C3",
            "ticks": 56544,
            "time": 61.783155,
            "velocity": 0.3937007874015748
          },
          {
            "duration": 0.10489499999999907,
            "durationTicks": 96,
            "midi": 43,
            "name": "G2",
            "ticks": 56544,
            "time": 61.783155,
            "velocity": 0.3937007874015748
          },
          {
            "duration": 0.10489499999999907,
            "durationTicks": 96,
            "midi": 60,
            "name": "C4",
            "ticks": 56544,
            "time": 61.783155,
            "velocity": 0.3937007874015748
          },
          {
            "duration": 0.10489499999999907,
            "durationTicks": 96,
            "midi": 59,
            "name": "B3",
            "ticks": 56640,
            "time": 61.88805,
            "velocity": 0.3937007874015748
          },
          {
            "duration": 0.10489499999999907,
            "durationTicks": 96,
            "midi": 54,
            "name": "F#3",
            "ticks": 56640,
            "time": 61.88805,
            "velocity": 0.3937007874015748
          },
          {
            "duration": 0.10489499999999907,
            "durationTicks": 96,
            "midi": 66,
            "name": "F#4",
            "ticks": 56640,
            "time": 61.88805,
            "velocity": 0.3937007874015748
          },
          {
            "duration": 0.10489499999999907,
            "durationTicks": 96,
            "midi": 42,
            "name": "F#2",
            "ticks": 56640,
            "time": 61.88805,
            "velocity": 0.3937007874015748
          },
          {
            "duration": 0.10489499999999907,
            "durationTicks": 96,
            "midi": 47,
            "name": "B2",
            "ticks": 56640,
            "time": 61.88805,
            "velocity": 0.3937007874015748
          },
          {
            "duration": 0.10489499999999907,
            "durationTicks": 96,
            "midi": 35,
            "name": "B1",
            "ticks": 56640,
            "time": 61.88805,
            "velocity": 0.3937007874015748
          },
          {
            "duration": 0.10489499999999907,
            "durationTicks": 96,
            "midi": 54,
            "name": "F#3",
            "ticks": 56736,
            "time": 61.992945,
            "velocity": 0.3937007874015748
          },
          {
            "duration": 0.10489499999999907,
            "durationTicks": 96,
            "midi": 59,
            "name": "B3",
            "ticks": 56736,
            "time": 61.992945,
            "velocity": 0.3937007874015748
          },
          {
            "duration": 0.10489499999999907,
            "durationTicks": 96,
            "midi": 35,
            "name": "B1",
            "ticks": 56736,
            "time": 61.992945,
            "velocity": 0.3937007874015748
          },
          {
            "duration": 0.10489499999999907,
            "durationTicks": 96,
            "midi": 47,
            "name": "B2",
            "ticks": 56736,
            "time": 61.992945,
            "velocity": 0.3937007874015748
          },
          {
            "duration": 0.10489499999999907,
            "durationTicks": 96,
            "midi": 42,
            "name": "F#2",
            "ticks": 56736,
            "time": 61.992945,
            "velocity": 0.3937007874015748
          },
          {
            "duration": 0.10489499999999907,
            "durationTicks": 96,
            "midi": 66,
            "name": "F#4",
            "ticks": 56736,
            "time": 61.992945,
            "velocity": 0.3937007874015748
          },
          {
            "duration": 0.10489500000000618,
            "durationTicks": 96,
            "midi": 41,
            "name": "F2",
            "ticks": 56832,
            "time": 62.09784,
            "velocity": 0.3937007874015748
          },
          {
            "duration": 0.10489500000000618,
            "durationTicks": 96,
            "midi": 34,
            "name": "A#1",
            "ticks": 56832,
            "time": 62.09784,
            "velocity": 0.3937007874015748
          },
          {
            "duration": 0.10489500000000618,
            "durationTicks": 96,
            "midi": 46,
            "name": "A#2",
            "ticks": 56832,
            "time": 62.09784,
            "velocity": 0.3937007874015748
          },
          {
            "duration": 0.10489499999999907,
            "durationTicks": 96,
            "midi": 46,
            "name": "A#2",
            "ticks": 56928,
            "time": 62.202735000000004,
            "velocity": 0.3937007874015748
          },
          {
            "duration": 0.10489499999999907,
            "durationTicks": 96,
            "midi": 41,
            "name": "F2",
            "ticks": 56928,
            "time": 62.202735000000004,
            "velocity": 0.3937007874015748
          },
          {
            "duration": 0.10489499999999907,
            "durationTicks": 96,
            "midi": 34,
            "name": "A#1",
            "ticks": 56928,
            "time": 62.202735000000004,
            "velocity": 0.3937007874015748
          },
          {
            "duration": 0.10489499999999907,
            "durationTicks": 96,
            "midi": 46,
            "name": "A#2",
            "ticks": 57024,
            "time": 62.30763,
            "velocity": 0.3937007874015748
          },
          {
            "duration": 0.10489499999999907,
            "durationTicks": 96,
            "midi": 34,
            "name": "A#1",
            "ticks": 57024,
            "time": 62.30763,
            "velocity": 0.3937007874015748
          },
          {
            "duration": 0.10489499999999907,
            "durationTicks": 96,
            "midi": 41,
            "name": "F2",
            "ticks": 57024,
            "time": 62.30763,
            "velocity": 0.3937007874015748
          },
          {
            "duration": 0.10489499999999907,
            "durationTicks": 96,
            "midi": 41,
            "name": "F2",
            "ticks": 57120,
            "time": 62.412525,
            "velocity": 0.3937007874015748
          },
          {
            "duration": 0.10489499999999907,
            "durationTicks": 96,
            "midi": 46,
            "name": "A#2",
            "ticks": 57120,
            "time": 62.412525,
            "velocity": 0.3937007874015748
          },
          {
            "duration": 0.10489499999999907,
            "durationTicks": 96,
            "midi": 34,
            "name": "A#1",
            "ticks": 57120,
            "time": 62.412525,
            "velocity": 0.3937007874015748
          },
          {
            "duration": 0.10489499999999907,
            "durationTicks": 96,
            "midi": 41,
            "name": "F2",
            "ticks": 57216,
            "time": 62.51742,
            "velocity": 0.3937007874015748
          },
          {
            "duration": 0.10489499999999907,
            "durationTicks": 96,
            "midi": 46,
            "name": "A#2",
            "ticks": 57216,
            "time": 62.51742,
            "velocity": 0.3937007874015748
          },
          {
            "duration": 0.10489499999999907,
            "durationTicks": 96,
            "midi": 34,
            "name": "A#1",
            "ticks": 57216,
            "time": 62.51742,
            "velocity": 0.3937007874015748
          },
          {
            "duration": 0.10489499999999907,
            "durationTicks": 96,
            "midi": 34,
            "name": "A#1",
            "ticks": 57312,
            "time": 62.622315,
            "velocity": 0.3937007874015748
          },
          {
            "duration": 0.10489499999999907,
            "durationTicks": 96,
            "midi": 41,
            "name": "F2",
            "ticks": 57312,
            "time": 62.622315,
            "velocity": 0.3937007874015748
          },
          {
            "duration": 0.10489499999999907,
            "durationTicks": 96,
            "midi": 46,
            "name": "A#2",
            "ticks": 57312,
            "time": 62.622315,
            "velocity": 0.3937007874015748
          },
          {
            "duration": 0.10489499999999907,
            "durationTicks": 96,
            "midi": 46,
            "name": "A#2",
            "ticks": 57408,
            "time": 62.72721,
            "velocity": 0.3937007874015748
          },
          {
            "duration": 0.10489499999999907,
            "durationTicks": 96,
            "midi": 41,
            "name": "F2",
            "ticks": 57408,
            "time": 62.72721,
            "velocity": 0.3937007874015748
          },
          {
            "duration": 0.10489499999999907,
            "durationTicks": 96,
            "midi": 34,
            "name": "A#1",
            "ticks": 57408,
            "time": 62.72721,
            "velocity": 0.3937007874015748
          },
          {
            "duration": 0.10489500000000618,
            "durationTicks": 96,
            "midi": 41,
            "name": "F2",
            "ticks": 57504,
            "time": 62.832105,
            "velocity": 0.3937007874015748
          },
          {
            "duration": 0.10489500000000618,
            "durationTicks": 96,
            "midi": 46,
            "name": "A#2",
            "ticks": 57504,
            "time": 62.832105,
            "velocity": 0.3937007874015748
          },
          {
            "duration": 0.10489500000000618,
            "durationTicks": 96,
            "midi": 34,
            "name": "A#1",
            "ticks": 57504,
            "time": 62.832105,
            "velocity": 0.3937007874015748
          },
          {
            "duration": 0.10489499999999907,
            "durationTicks": 96,
            "midi": 41,
            "name": "F2",
            "ticks": 57600,
            "time": 62.937000000000005,
            "velocity": 0.3937007874015748
          },
          {
            "duration": 0.10489499999999907,
            "durationTicks": 96,
            "midi": 46,
            "name": "A#2",
            "ticks": 57600,
            "time": 62.937000000000005,
            "velocity": 0.3937007874015748
          },
          {
            "duration": 0.10489499999999907,
            "durationTicks": 96,
            "midi": 34,
            "name": "A#1",
            "ticks": 57600,
            "time": 62.937000000000005,
            "velocity": 0.3937007874015748
          },
          {
            "duration": 0.10489499999999907,
            "durationTicks": 96,
            "midi": 34,
            "name": "A#1",
            "ticks": 57696,
            "time": 63.041895000000004,
            "velocity": 0.3937007874015748
          },
          {
            "duration": 0.10489499999999907,
            "durationTicks": 96,
            "midi": 41,
            "name": "F2",
            "ticks": 57696,
            "time": 63.041895000000004,
            "velocity": 0.3937007874015748
          },
          {
            "duration": 0.10489499999999907,
            "durationTicks": 96,
            "midi": 46,
            "name": "A#2",
            "ticks": 57696,
            "time": 63.041895000000004,
            "velocity": 0.3937007874015748
          },
          {
            "duration": 0.10489499999999907,
            "durationTicks": 96,
            "midi": 41,
            "name": "F2",
            "ticks": 57792,
            "time": 63.14679,
            "velocity": 0.3937007874015748
          },
          {
            "duration": 0.10489499999999907,
            "durationTicks": 96,
            "midi": 34,
            "name": "A#1",
            "ticks": 57792,
            "time": 63.14679,
            "velocity": 0.3937007874015748
          },
          {
            "duration": 0.10489499999999907,
            "durationTicks": 96,
            "midi": 46,
            "name": "A#2",
            "ticks": 57792,
            "time": 63.14679,
            "velocity": 0.3937007874015748
          },
          {
            "duration": 0.10489499999999907,
            "durationTicks": 96,
            "midi": 41,
            "name": "F2",
            "ticks": 57888,
            "time": 63.251685,
            "velocity": 0.3937007874015748
          },
          {
            "duration": 0.10489499999999907,
            "durationTicks": 96,
            "midi": 46,
            "name": "A#2",
            "ticks": 57888,
            "time": 63.251685,
            "velocity": 0.3937007874015748
          },
          {
            "duration": 0.10489499999999907,
            "durationTicks": 96,
            "midi": 34,
            "name": "A#1",
            "ticks": 57888,
            "time": 63.251685,
            "velocity": 0.3937007874015748
          },
          {
            "duration": 0.10489499999999907,
            "durationTicks": 96,
            "midi": 41,
            "name": "F2",
            "ticks": 57984,
            "time": 63.35658,
            "velocity": 0.3937007874015748
          },
          {
            "duration": 0.10489499999999907,
            "durationTicks": 96,
            "midi": 34,
            "name": "A#1",
            "ticks": 57984,
            "time": 63.35658,
            "velocity": 0.3937007874015748
          },
          {
            "duration": 0.10489499999999907,
            "durationTicks": 96,
            "midi": 46,
            "name": "A#2",
            "ticks": 57984,
            "time": 63.35658,
            "velocity": 0.3937007874015748
          },
          {
            "duration": 0.10489499999999907,
            "durationTicks": 96,
            "midi": 46,
            "name": "A#2",
            "ticks": 58080,
            "time": 63.461475,
            "velocity": 0.3937007874015748
          },
          {
            "duration": 0.10489499999999907,
            "durationTicks": 96,
            "midi": 41,
            "name": "F2",
            "ticks": 58080,
            "time": 63.461475,
            "velocity": 0.3937007874015748
          },
          {
            "duration": 0.10489499999999907,
            "durationTicks": 96,
            "midi": 34,
            "name": "A#1",
            "ticks": 58080,
            "time": 63.461475,
            "velocity": 0.3937007874015748
          },
          {
            "duration": 0.10489499999999907,
            "durationTicks": 96,
            "midi": 46,
            "name": "A#2",
            "ticks": 58176,
            "time": 63.56637,
            "velocity": 0.3937007874015748
          },
          {
            "duration": 0.10489499999999907,
            "durationTicks": 96,
            "midi": 41,
            "name": "F2",
            "ticks": 58176,
            "time": 63.56637,
            "velocity": 0.3937007874015748
          },
          {
            "duration": 0.10489499999999907,
            "durationTicks": 96,
            "midi": 34,
            "name": "A#1",
            "ticks": 58176,
            "time": 63.56637,
            "velocity": 0.3937007874015748
          },
          {
            "duration": 0.10489500000000618,
            "durationTicks": 96,
            "midi": 46,
            "name": "A#2",
            "ticks": 58272,
            "time": 63.671265,
            "velocity": 0.3937007874015748
          },
          {
            "duration": 0.10489500000000618,
            "durationTicks": 96,
            "midi": 34,
            "name": "A#1",
            "ticks": 58272,
            "time": 63.671265,
            "velocity": 0.3937007874015748
          },
          {
            "duration": 0.10489500000000618,
            "durationTicks": 96,
            "midi": 41,
            "name": "F2",
            "ticks": 58272,
            "time": 63.671265,
            "velocity": 0.3937007874015748
          },
          {
            "duration": 0.10489499999999907,
            "durationTicks": 96,
            "midi": 38,
            "name": "D2",
            "ticks": 58368,
            "time": 63.776160000000004,
            "velocity": 0.3937007874015748
          },
          {
            "duration": 0.10489499999999907,
            "durationTicks": 96,
            "midi": 45,
            "name": "A2",
            "ticks": 58368,
            "time": 63.776160000000004,
            "velocity": 0.3937007874015748
          },
          {
            "duration": 0.10489499999999907,
            "durationTicks": 96,
            "midi": 50,
            "name": "D3",
            "ticks": 58368,
            "time": 63.776160000000004,
            "velocity": 0.3937007874015748
          },
          {
            "duration": 0.10489499999999907,
            "durationTicks": 96,
            "midi": 50,
            "name": "D3",
            "ticks": 58464,
            "time": 63.881055,
            "velocity": 0.3937007874015748
          },
          {
            "duration": 0.10489499999999907,
            "durationTicks": 96,
            "midi": 45,
            "name": "A2",
            "ticks": 58464,
            "time": 63.881055,
            "velocity": 0.3937007874015748
          },
          {
            "duration": 0.10489499999999907,
            "durationTicks": 96,
            "midi": 38,
            "name": "D2",
            "ticks": 58464,
            "time": 63.881055,
            "velocity": 0.3937007874015748
          },
          {
            "duration": 0.10489499999999907,
            "durationTicks": 96,
            "midi": 50,
            "name": "D3",
            "ticks": 58560,
            "time": 63.98595,
            "velocity": 0.3937007874015748
          },
          {
            "duration": 0.10489499999999907,
            "durationTicks": 96,
            "midi": 38,
            "name": "D2",
            "ticks": 58560,
            "time": 63.98595,
            "velocity": 0.3937007874015748
          },
          {
            "duration": 0.10489499999999907,
            "durationTicks": 96,
            "midi": 45,
            "name": "A2",
            "ticks": 58560,
            "time": 63.98595,
            "velocity": 0.3937007874015748
          },
          {
            "duration": 0.10489499999999907,
            "durationTicks": 96,
            "midi": 50,
            "name": "D3",
            "ticks": 58656,
            "time": 64.090845,
            "velocity": 0.3937007874015748
          },
          {
            "duration": 0.10489499999999907,
            "durationTicks": 96,
            "midi": 45,
            "name": "A2",
            "ticks": 58656,
            "time": 64.090845,
            "velocity": 0.3937007874015748
          },
          {
            "duration": 0.10489499999999907,
            "durationTicks": 96,
            "midi": 38,
            "name": "D2",
            "ticks": 58656,
            "time": 64.090845,
            "velocity": 0.3937007874015748
          },
          {
            "duration": 0.10489499999999907,
            "durationTicks": 96,
            "midi": 45,
            "name": "A2",
            "ticks": 58752,
            "time": 64.19574,
            "velocity": 0.3937007874015748
          },
          {
            "duration": 0.10489499999999907,
            "durationTicks": 96,
            "midi": 50,
            "name": "D3",
            "ticks": 58752,
            "time": 64.19574,
            "velocity": 0.3937007874015748
          },
          {
            "duration": 0.10489499999999907,
            "durationTicks": 96,
            "midi": 38,
            "name": "D2",
            "ticks": 58752,
            "time": 64.19574,
            "velocity": 0.3937007874015748
          },
          {
            "duration": 0.10489499999999907,
            "durationTicks": 96,
            "midi": 38,
            "name": "D2",
            "ticks": 58848,
            "time": 64.300635,
            "velocity": 0.3937007874015748
          },
          {
            "duration": 0.10489499999999907,
            "durationTicks": 96,
            "midi": 50,
            "name": "D3",
            "ticks": 58848,
            "time": 64.300635,
            "velocity": 0.3937007874015748
          },
          {
            "duration": 0.10489499999999907,
            "durationTicks": 96,
            "midi": 45,
            "name": "A2",
            "ticks": 58848,
            "time": 64.300635,
            "velocity": 0.3937007874015748
          },
          {
            "duration": 0.10489499999999907,
            "durationTicks": 96,
            "midi": 50,
            "name": "D3",
            "ticks": 58944,
            "time": 64.40553,
            "velocity": 0.3937007874015748
          },
          {
            "duration": 0.10489499999999907,
            "durationTicks": 96,
            "midi": 45,
            "name": "A2",
            "ticks": 58944,
            "time": 64.40553,
            "velocity": 0.3937007874015748
          },
          {
            "duration": 0.10489499999999907,
            "durationTicks": 96,
            "midi": 38,
            "name": "D2",
            "ticks": 58944,
            "time": 64.40553,
            "velocity": 0.3937007874015748
          },
          {
            "duration": 0.10489499999999907,
            "durationTicks": 96,
            "midi": 38,
            "name": "D2",
            "ticks": 59040,
            "time": 64.510425,
            "velocity": 0.3937007874015748
          },
          {
            "duration": 0.10489499999999907,
            "durationTicks": 96,
            "midi": 45,
            "name": "A2",
            "ticks": 59040,
            "time": 64.510425,
            "velocity": 0.3937007874015748
          },
          {
            "duration": 0.10489499999999907,
            "durationTicks": 96,
            "midi": 50,
            "name": "D3",
            "ticks": 59040,
            "time": 64.510425,
            "velocity": 0.3937007874015748
          },
          {
            "duration": 0.10489499999999907,
            "durationTicks": 96,
            "midi": 50,
            "name": "D3",
            "ticks": 59136,
            "time": 64.61532,
            "velocity": 0.3937007874015748
          },
          {
            "duration": 0.10489499999999907,
            "durationTicks": 96,
            "midi": 45,
            "name": "A2",
            "ticks": 59136,
            "time": 64.61532,
            "velocity": 0.3937007874015748
          },
          {
            "duration": 0.10489499999999907,
            "durationTicks": 96,
            "midi": 38,
            "name": "D2",
            "ticks": 59136,
            "time": 64.61532,
            "velocity": 0.3937007874015748
          },
          {
            "duration": 0.10489499999999907,
            "durationTicks": 96,
            "midi": 50,
            "name": "D3",
            "ticks": 59232,
            "time": 64.720215,
            "velocity": 0.3937007874015748
          },
          {
            "duration": 0.10489499999999907,
            "durationTicks": 96,
            "midi": 38,
            "name": "D2",
            "ticks": 59232,
            "time": 64.720215,
            "velocity": 0.3937007874015748
          },
          {
            "duration": 0.10489499999999907,
            "durationTicks": 96,
            "midi": 45,
            "name": "A2",
            "ticks": 59232,
            "time": 64.720215,
            "velocity": 0.3937007874015748
          },
          {
            "duration": 0.10489500000001328,
            "durationTicks": 96,
            "midi": 45,
            "name": "A2",
            "ticks": 59328,
            "time": 64.82511,
            "velocity": 0.3937007874015748
          },
          {
            "duration": 0.10489500000001328,
            "durationTicks": 96,
            "midi": 50,
            "name": "D3",
            "ticks": 59328,
            "time": 64.82511,
            "velocity": 0.3937007874015748
          },
          {
            "duration": 0.10489500000001328,
            "durationTicks": 96,
            "midi": 38,
            "name": "D2",
            "ticks": 59328,
            "time": 64.82511,
            "velocity": 0.3937007874015748
          },
          {
            "duration": 0.10489499999999907,
            "durationTicks": 96,
            "midi": 45,
            "name": "A2",
            "ticks": 59424,
            "time": 64.93000500000001,
            "velocity": 0.3937007874015748
          },
          {
            "duration": 0.10489499999999907,
            "durationTicks": 96,
            "midi": 50,
            "name": "D3",
            "ticks": 59424,
            "time": 64.93000500000001,
            "velocity": 0.3937007874015748
          },
          {
            "duration": 0.10489499999999907,
            "durationTicks": 96,
            "midi": 38,
            "name": "D2",
            "ticks": 59424,
            "time": 64.93000500000001,
            "velocity": 0.3937007874015748
          },
          {
            "duration": 0.10489499999999907,
            "durationTicks": 96,
            "midi": 45,
            "name": "A2",
            "ticks": 59520,
            "time": 65.03490000000001,
            "velocity": 0.3937007874015748
          },
          {
            "duration": 0.10489499999999907,
            "durationTicks": 96,
            "midi": 50,
            "name": "D3",
            "ticks": 59520,
            "time": 65.03490000000001,
            "velocity": 0.3937007874015748
          },
          {
            "duration": 0.10489499999999907,
            "durationTicks": 96,
            "midi": 38,
            "name": "D2",
            "ticks": 59520,
            "time": 65.03490000000001,
            "velocity": 0.3937007874015748
          },
          {
            "duration": 0.10489499999999907,
            "durationTicks": 96,
            "midi": 50,
            "name": "D3",
            "ticks": 59616,
            "time": 65.139795,
            "velocity": 0.3937007874015748
          },
          {
            "duration": 0.10489499999999907,
            "durationTicks": 96,
            "midi": 45,
            "name": "A2",
            "ticks": 59616,
            "time": 65.139795,
            "velocity": 0.3937007874015748
          },
          {
            "duration": 0.10489499999999907,
            "durationTicks": 96,
            "midi": 38,
            "name": "D2",
            "ticks": 59616,
            "time": 65.139795,
            "velocity": 0.3937007874015748
          },
          {
            "duration": 0.10489499999999907,
            "durationTicks": 96,
            "midi": 45,
            "name": "A2",
            "ticks": 59712,
            "time": 65.24469,
            "velocity": 0.3937007874015748
          },
          {
            "duration": 0.10489499999999907,
            "durationTicks": 96,
            "midi": 38,
            "name": "D2",
            "ticks": 59712,
            "time": 65.24469,
            "velocity": 0.3937007874015748
          },
          {
            "duration": 0.10489499999999907,
            "durationTicks": 96,
            "midi": 50,
            "name": "D3",
            "ticks": 59712,
            "time": 65.24469,
            "velocity": 0.3937007874015748
          },
          {
            "duration": 0.10489499999999907,
            "durationTicks": 96,
            "midi": 50,
            "name": "D3",
            "ticks": 59808,
            "time": 65.349585,
            "velocity": 0.3937007874015748
          },
          {
            "duration": 0.10489499999999907,
            "durationTicks": 96,
            "midi": 38,
            "name": "D2",
            "ticks": 59808,
            "time": 65.349585,
            "velocity": 0.3937007874015748
          },
          {
            "duration": 0.10489499999999907,
            "durationTicks": 96,
            "midi": 45,
            "name": "A2",
            "ticks": 59808,
            "time": 65.349585,
            "velocity": 0.3937007874015748
          },
          {
            "duration": 0.10489499999999907,
            "durationTicks": 96,
            "midi": 34,
            "name": "A#1",
            "ticks": 59904,
            "time": 65.45448,
            "velocity": 0.3937007874015748
          },
          {
            "duration": 0.10489499999999907,
            "durationTicks": 96,
            "midi": 41,
            "name": "F2",
            "ticks": 59904,
            "time": 65.45448,
            "velocity": 0.3937007874015748
          },
          {
            "duration": 0.10489499999999907,
            "durationTicks": 96,
            "midi": 46,
            "name": "A#2",
            "ticks": 59904,
            "time": 65.45448,
            "velocity": 0.3937007874015748
          },
          {
            "duration": 0.10489499999999907,
            "durationTicks": 96,
            "midi": 41,
            "name": "F2",
            "ticks": 60000,
            "time": 65.559375,
            "velocity": 0.3937007874015748
          },
          {
            "duration": 0.10489499999999907,
            "durationTicks": 96,
            "midi": 34,
            "name": "A#1",
            "ticks": 60000,
            "time": 65.559375,
            "velocity": 0.3937007874015748
          },
          {
            "duration": 0.10489499999999907,
            "durationTicks": 96,
            "midi": 46,
            "name": "A#2",
            "ticks": 60000,
            "time": 65.559375,
            "velocity": 0.3937007874015748
          },
          {
            "duration": 0.10489499999999907,
            "durationTicks": 96,
            "midi": 46,
            "name": "A#2",
            "ticks": 60096,
            "time": 65.66427,
            "velocity": 0.3937007874015748
          },
          {
            "duration": 0.10489499999999907,
            "durationTicks": 96,
            "midi": 34,
            "name": "A#1",
            "ticks": 60096,
            "time": 65.66427,
            "velocity": 0.3937007874015748
          },
          {
            "duration": 0.10489499999999907,
            "durationTicks": 96,
            "midi": 41,
            "name": "F2",
            "ticks": 60096,
            "time": 65.66427,
            "velocity": 0.3937007874015748
          },
          {
            "duration": 0.10489499999999907,
            "durationTicks": 96,
            "midi": 46,
            "name": "A#2",
            "ticks": 60192,
            "time": 65.769165,
            "velocity": 0.3937007874015748
          },
          {
            "duration": 0.10489499999999907,
            "durationTicks": 96,
            "midi": 34,
            "name": "A#1",
            "ticks": 60192,
            "time": 65.769165,
            "velocity": 0.3937007874015748
          },
          {
            "duration": 0.10489499999999907,
            "durationTicks": 96,
            "midi": 41,
            "name": "F2",
            "ticks": 60192,
            "time": 65.769165,
            "velocity": 0.3937007874015748
          },
          {
            "duration": 0.10489499999999907,
            "durationTicks": 96,
            "midi": 41,
            "name": "F2",
            "ticks": 60288,
            "time": 65.87406,
            "velocity": 0.3937007874015748
          },
          {
            "duration": 0.10489499999999907,
            "durationTicks": 96,
            "midi": 46,
            "name": "A#2",
            "ticks": 60288,
            "time": 65.87406,
            "velocity": 0.3937007874015748
          },
          {
            "duration": 0.10489499999999907,
            "durationTicks": 96,
            "midi": 34,
            "name": "A#1",
            "ticks": 60288,
            "time": 65.87406,
            "velocity": 0.3937007874015748
          },
          {
            "duration": 0.10489499999999907,
            "durationTicks": 96,
            "midi": 46,
            "name": "A#2",
            "ticks": 60384,
            "time": 65.978955,
            "velocity": 0.3937007874015748
          },
          {
            "duration": 0.10489499999999907,
            "durationTicks": 96,
            "midi": 41,
            "name": "F2",
            "ticks": 60384,
            "time": 65.978955,
            "velocity": 0.3937007874015748
          },
          {
            "duration": 0.10489499999999907,
            "durationTicks": 96,
            "midi": 34,
            "name": "A#1",
            "ticks": 60384,
            "time": 65.978955,
            "velocity": 0.3937007874015748
          },
          {
            "duration": 0.10489499999999907,
            "durationTicks": 96,
            "midi": 34,
            "name": "A#1",
            "ticks": 60480,
            "time": 66.08385,
            "velocity": 0.3937007874015748
          },
          {
            "duration": 0.10489499999999907,
            "durationTicks": 96,
            "midi": 41,
            "name": "F2",
            "ticks": 60480,
            "time": 66.08385,
            "velocity": 0.3937007874015748
          },
          {
            "duration": 0.10489499999999907,
            "durationTicks": 96,
            "midi": 46,
            "name": "A#2",
            "ticks": 60480,
            "time": 66.08385,
            "velocity": 0.3937007874015748
          },
          {
            "duration": 0.10489499999999907,
            "durationTicks": 96,
            "midi": 34,
            "name": "A#1",
            "ticks": 60576,
            "time": 66.188745,
            "velocity": 0.3937007874015748
          },
          {
            "duration": 0.10489499999999907,
            "durationTicks": 96,
            "midi": 41,
            "name": "F2",
            "ticks": 60576,
            "time": 66.188745,
            "velocity": 0.3937007874015748
          },
          {
            "duration": 0.10489499999999907,
            "durationTicks": 96,
            "midi": 46,
            "name": "A#2",
            "ticks": 60576,
            "time": 66.188745,
            "velocity": 0.3937007874015748
          },
          {
            "duration": 0.10489499999999907,
            "durationTicks": 96,
            "midi": 46,
            "name": "A#2",
            "ticks": 60672,
            "time": 66.29364,
            "velocity": 0.3937007874015748
          },
          {
            "duration": 0.10489499999999907,
            "durationTicks": 96,
            "midi": 34,
            "name": "A#1",
            "ticks": 60672,
            "time": 66.29364,
            "velocity": 0.3937007874015748
          },
          {
            "duration": 0.10489499999999907,
            "durationTicks": 96,
            "midi": 41,
            "name": "F2",
            "ticks": 60672,
            "time": 66.29364,
            "velocity": 0.3937007874015748
          },
          {
            "duration": 0.10489499999999907,
            "durationTicks": 96,
            "midi": 34,
            "name": "A#1",
            "ticks": 60768,
            "time": 66.398535,
            "velocity": 0.3937007874015748
          },
          {
            "duration": 0.10489499999999907,
            "durationTicks": 96,
            "midi": 46,
            "name": "A#2",
            "ticks": 60768,
            "time": 66.398535,
            "velocity": 0.3937007874015748
          },
          {
            "duration": 0.10489499999999907,
            "durationTicks": 96,
            "midi": 41,
            "name": "F2",
            "ticks": 60768,
            "time": 66.398535,
            "velocity": 0.3937007874015748
          },
          {
            "duration": 0.10489500000001328,
            "durationTicks": 96,
            "midi": 46,
            "name": "A#2",
            "ticks": 60864,
            "time": 66.50343,
            "velocity": 0.3937007874015748
          },
          {
            "duration": 0.10489500000001328,
            "durationTicks": 96,
            "midi": 41,
            "name": "F2",
            "ticks": 60864,
            "time": 66.50343,
            "velocity": 0.3937007874015748
          },
          {
            "duration": 0.10489500000001328,
            "durationTicks": 96,
            "midi": 34,
            "name": "A#1",
            "ticks": 60864,
            "time": 66.50343,
            "velocity": 0.3937007874015748
          },
          {
            "duration": 0.10489499999999907,
            "durationTicks": 96,
            "midi": 41,
            "name": "F2",
            "ticks": 60960,
            "time": 66.60832500000001,
            "velocity": 0.3937007874015748
          },
          {
            "duration": 0.10489499999999907,
            "durationTicks": 96,
            "midi": 46,
            "name": "A#2",
            "ticks": 60960,
            "time": 66.60832500000001,
            "velocity": 0.3937007874015748
          },
          {
            "duration": 0.10489499999999907,
            "durationTicks": 96,
            "midi": 34,
            "name": "A#1",
            "ticks": 60960,
            "time": 66.60832500000001,
            "velocity": 0.3937007874015748
          },
          {
            "duration": 0.10489499999999907,
            "durationTicks": 96,
            "midi": 34,
            "name": "A#1",
            "ticks": 61056,
            "time": 66.71322,
            "velocity": 0.3937007874015748
          },
          {
            "duration": 0.10489499999999907,
            "durationTicks": 96,
            "midi": 46,
            "name": "A#2",
            "ticks": 61056,
            "time": 66.71322,
            "velocity": 0.3937007874015748
          },
          {
            "duration": 0.10489499999999907,
            "durationTicks": 96,
            "midi": 41,
            "name": "F2",
            "ticks": 61056,
            "time": 66.71322,
            "velocity": 0.3937007874015748
          },
          {
            "duration": 0.10489499999999907,
            "durationTicks": 96,
            "midi": 34,
            "name": "A#1",
            "ticks": 61152,
            "time": 66.818115,
            "velocity": 0.3937007874015748
          },
          {
            "duration": 0.10489499999999907,
            "durationTicks": 96,
            "midi": 46,
            "name": "A#2",
            "ticks": 61152,
            "time": 66.818115,
            "velocity": 0.3937007874015748
          },
          {
            "duration": 0.10489499999999907,
            "durationTicks": 96,
            "midi": 41,
            "name": "F2",
            "ticks": 61152,
            "time": 66.818115,
            "velocity": 0.3937007874015748
          },
          {
            "duration": 0.10489499999999907,
            "durationTicks": 96,
            "midi": 41,
            "name": "F2",
            "ticks": 61248,
            "time": 66.92301,
            "velocity": 0.3937007874015748
          },
          {
            "duration": 0.10489499999999907,
            "durationTicks": 96,
            "midi": 46,
            "name": "A#2",
            "ticks": 61248,
            "time": 66.92301,
            "velocity": 0.3937007874015748
          },
          {
            "duration": 0.10489499999999907,
            "durationTicks": 96,
            "midi": 34,
            "name": "A#1",
            "ticks": 61248,
            "time": 66.92301,
            "velocity": 0.3937007874015748
          },
          {
            "duration": 0.10489499999999907,
            "durationTicks": 96,
            "midi": 34,
            "name": "A#1",
            "ticks": 61344,
            "time": 67.027905,
            "velocity": 0.3937007874015748
          },
          {
            "duration": 0.10489499999999907,
            "durationTicks": 96,
            "midi": 41,
            "name": "F2",
            "ticks": 61344,
            "time": 67.027905,
            "velocity": 0.3937007874015748
          },
          {
            "duration": 0.10489499999999907,
            "durationTicks": 96,
            "midi": 46,
            "name": "A#2",
            "ticks": 61344,
            "time": 67.027905,
            "velocity": 0.3937007874015748
          },
          {
            "duration": 0.10489499999999907,
            "durationTicks": 96,
            "midi": 45,
            "name": "A2",
            "ticks": 61440,
            "time": 67.1328,
            "velocity": 0.3937007874015748
          },
          {
            "duration": 0.10489499999999907,
            "durationTicks": 96,
            "midi": 38,
            "name": "D2",
            "ticks": 61440,
            "time": 67.1328,
            "velocity": 0.3937007874015748
          },
          {
            "duration": 0.10489499999999907,
            "durationTicks": 96,
            "midi": 50,
            "name": "D3",
            "ticks": 61440,
            "time": 67.1328,
            "velocity": 0.3937007874015748
          },
          {
            "duration": 0.10489499999999907,
            "durationTicks": 96,
            "midi": 45,
            "name": "A2",
            "ticks": 61536,
            "time": 67.237695,
            "velocity": 0.3937007874015748
          },
          {
            "duration": 0.10489499999999907,
            "durationTicks": 96,
            "midi": 38,
            "name": "D2",
            "ticks": 61536,
            "time": 67.237695,
            "velocity": 0.3937007874015748
          },
          {
            "duration": 0.10489499999999907,
            "durationTicks": 96,
            "midi": 50,
            "name": "D3",
            "ticks": 61536,
            "time": 67.237695,
            "velocity": 0.3937007874015748
          },
          {
            "duration": 0.10489499999999907,
            "durationTicks": 96,
            "midi": 50,
            "name": "D3",
            "ticks": 61632,
            "time": 67.34259,
            "velocity": 0.3937007874015748
          },
          {
            "duration": 0.10489499999999907,
            "durationTicks": 96,
            "midi": 45,
            "name": "A2",
            "ticks": 61632,
            "time": 67.34259,
            "velocity": 0.3937007874015748
          },
          {
            "duration": 0.10489499999999907,
            "durationTicks": 96,
            "midi": 38,
            "name": "D2",
            "ticks": 61632,
            "time": 67.34259,
            "velocity": 0.3937007874015748
          },
          {
            "duration": 0.10489499999999907,
            "durationTicks": 96,
            "midi": 38,
            "name": "D2",
            "ticks": 61728,
            "time": 67.447485,
            "velocity": 0.3937007874015748
          },
          {
            "duration": 0.10489499999999907,
            "durationTicks": 96,
            "midi": 45,
            "name": "A2",
            "ticks": 61728,
            "time": 67.447485,
            "velocity": 0.3937007874015748
          },
          {
            "duration": 0.10489499999999907,
            "durationTicks": 96,
            "midi": 50,
            "name": "D3",
            "ticks": 61728,
            "time": 67.447485,
            "velocity": 0.3937007874015748
          },
          {
            "duration": 0.10489499999999907,
            "durationTicks": 96,
            "midi": 45,
            "name": "A2",
            "ticks": 61824,
            "time": 67.55238,
            "velocity": 0.3937007874015748
          },
          {
            "duration": 0.10489499999999907,
            "durationTicks": 96,
            "midi": 38,
            "name": "D2",
            "ticks": 61824,
            "time": 67.55238,
            "velocity": 0.3937007874015748
          },
          {
            "duration": 0.10489499999999907,
            "durationTicks": 96,
            "midi": 50,
            "name": "D3",
            "ticks": 61824,
            "time": 67.55238,
            "velocity": 0.3937007874015748
          },
          {
            "duration": 0.10489499999999907,
            "durationTicks": 96,
            "midi": 38,
            "name": "D2",
            "ticks": 61920,
            "time": 67.657275,
            "velocity": 0.3937007874015748
          },
          {
            "duration": 0.10489499999999907,
            "durationTicks": 96,
            "midi": 45,
            "name": "A2",
            "ticks": 61920,
            "time": 67.657275,
            "velocity": 0.3937007874015748
          },
          {
            "duration": 0.10489499999999907,
            "durationTicks": 96,
            "midi": 50,
            "name": "D3",
            "ticks": 61920,
            "time": 67.657275,
            "velocity": 0.3937007874015748
          },
          {
            "duration": 0.10489499999999907,
            "durationTicks": 96,
            "midi": 38,
            "name": "D2",
            "ticks": 62016,
            "time": 67.76217,
            "velocity": 0.3937007874015748
          },
          {
            "duration": 0.10489499999999907,
            "durationTicks": 96,
            "midi": 45,
            "name": "A2",
            "ticks": 62016,
            "time": 67.76217,
            "velocity": 0.3937007874015748
          },
          {
            "duration": 0.10489499999999907,
            "durationTicks": 96,
            "midi": 50,
            "name": "D3",
            "ticks": 62016,
            "time": 67.76217,
            "velocity": 0.3937007874015748
          },
          {
            "duration": 0.10489499999999907,
            "durationTicks": 96,
            "midi": 38,
            "name": "D2",
            "ticks": 62112,
            "time": 67.867065,
            "velocity": 0.3937007874015748
          },
          {
            "duration": 0.10489499999999907,
            "durationTicks": 96,
            "midi": 45,
            "name": "A2",
            "ticks": 62112,
            "time": 67.867065,
            "velocity": 0.3937007874015748
          },
          {
            "duration": 0.10489499999999907,
            "durationTicks": 96,
            "midi": 50,
            "name": "D3",
            "ticks": 62112,
            "time": 67.867065,
            "velocity": 0.3937007874015748
          },
          {
            "duration": 0.10489499999999907,
            "durationTicks": 96,
            "midi": 50,
            "name": "D3",
            "ticks": 62208,
            "time": 67.97196,
            "velocity": 0.3937007874015748
          },
          {
            "duration": 0.10489499999999907,
            "durationTicks": 96,
            "midi": 38,
            "name": "D2",
            "ticks": 62208,
            "time": 67.97196,
            "velocity": 0.3937007874015748
          },
          {
            "duration": 0.10489499999999907,
            "durationTicks": 96,
            "midi": 69,
            "name": "A4",
            "ticks": 62208,
            "time": 67.97196,
            "velocity": 0.3937007874015748
          },
          {
            "duration": 0.10489499999999907,
            "durationTicks": 96,
            "midi": 62,
            "name": "D4",
            "ticks": 62208,
            "time": 67.97196,
            "velocity": 0.3937007874015748
          },
          {
            "duration": 0.10489499999999907,
            "durationTicks": 96,
            "midi": 45,
            "name": "A2",
            "ticks": 62208,
            "time": 67.97196,
            "velocity": 0.3937007874015748
          },
          {
            "duration": 0.10489499999999907,
            "durationTicks": 96,
            "midi": 57,
            "name": "A3",
            "ticks": 62208,
            "time": 67.97196,
            "velocity": 0.3937007874015748
          },
          {
            "duration": 0.10489500000001328,
            "durationTicks": 96,
            "midi": 38,
            "name": "D2",
            "ticks": 62304,
            "time": 68.076855,
            "velocity": 0.3937007874015748
          },
          {
            "duration": 0.10489500000001328,
            "durationTicks": 96,
            "midi": 45,
            "name": "A2",
            "ticks": 62304,
            "time": 68.076855,
            "velocity": 0.3937007874015748
          },
          {
            "duration": 0.10489500000001328,
            "durationTicks": 96,
            "midi": 69,
            "name": "A4",
            "ticks": 62304,
            "time": 68.076855,
            "velocity": 0.3937007874015748
          },
          {
            "duration": 0.10489500000001328,
            "durationTicks": 96,
            "midi": 57,
            "name": "A3",
            "ticks": 62304,
            "time": 68.076855,
            "velocity": 0.3937007874015748
          },
          {
            "duration": 0.10489500000001328,
            "durationTicks": 96,
            "midi": 62,
            "name": "D4",
            "ticks": 62304,
            "time": 68.076855,
            "velocity": 0.3937007874015748
          },
          {
            "duration": 0.10489500000001328,
            "durationTicks": 96,
            "midi": 50,
            "name": "D3",
            "ticks": 62304,
            "time": 68.076855,
            "velocity": 0.3937007874015748
          },
          {
            "duration": 0.10489499999999907,
            "durationTicks": 96,
            "midi": 61,
            "name": "C#4",
            "ticks": 62400,
            "time": 68.18175000000001,
            "velocity": 0.3937007874015748
          },
          {
            "duration": 0.10489499999999907,
            "durationTicks": 96,
            "midi": 68,
            "name": "G#4",
            "ticks": 62400,
            "time": 68.18175000000001,
            "velocity": 0.3937007874015748
          },
          {
            "duration": 0.10489499999999907,
            "durationTicks": 96,
            "midi": 37,
            "name": "C#2",
            "ticks": 62400,
            "time": 68.18175000000001,
            "velocity": 0.3937007874015748
          },
          {
            "duration": 0.10489499999999907,
            "durationTicks": 96,
            "midi": 44,
            "name": "G#2",
            "ticks": 62400,
            "time": 68.18175000000001,
            "velocity": 0.3937007874015748
          },
          {
            "duration": 0.10489499999999907,
            "durationTicks": 96,
            "midi": 56,
            "name": "G#3",
            "ticks": 62400,
            "time": 68.18175000000001,
            "velocity": 0.3937007874015748
          },
          {
            "duration": 0.10489499999999907,
            "durationTicks": 96,
            "midi": 49,
            "name": "C#3",
            "ticks": 62400,
            "time": 68.18175000000001,
            "velocity": 0.3937007874015748
          },
          {
            "duration": 0.10489499999999907,
            "durationTicks": 96,
            "midi": 44,
            "name": "G#2",
            "ticks": 62496,
            "time": 68.28664500000001,
            "velocity": 0.3937007874015748
          },
          {
            "duration": 0.10489499999999907,
            "durationTicks": 96,
            "midi": 56,
            "name": "G#3",
            "ticks": 62496,
            "time": 68.28664500000001,
            "velocity": 0.3937007874015748
          },
          {
            "duration": 0.10489499999999907,
            "durationTicks": 96,
            "midi": 49,
            "name": "C#3",
            "ticks": 62496,
            "time": 68.28664500000001,
            "velocity": 0.3937007874015748
          },
          {
            "duration": 0.10489499999999907,
            "durationTicks": 96,
            "midi": 37,
            "name": "C#2",
            "ticks": 62496,
            "time": 68.28664500000001,
            "velocity": 0.3937007874015748
          },
          {
            "duration": 0.10489499999999907,
            "durationTicks": 96,
            "midi": 68,
            "name": "G#4",
            "ticks": 62496,
            "time": 68.28664500000001,
            "velocity": 0.3937007874015748
          },
          {
            "duration": 0.10489499999999907,
            "durationTicks": 96,
            "midi": 61,
            "name": "C#4",
            "ticks": 62496,
            "time": 68.28664500000001,
            "velocity": 0.3937007874015748
          },
          {
            "duration": 0.10489499999999907,
            "durationTicks": 96,
            "midi": 36,
            "name": "C2",
            "ticks": 62592,
            "time": 68.39154,
            "velocity": 0.3937007874015748
          },
          {
            "duration": 0.10489499999999907,
            "durationTicks": 96,
            "midi": 60,
            "name": "C4",
            "ticks": 62592,
            "time": 68.39154,
            "velocity": 0.3937007874015748
          },
          {
            "duration": 0.10489499999999907,
            "durationTicks": 96,
            "midi": 48,
            "name": "C3",
            "ticks": 62592,
            "time": 68.39154,
            "velocity": 0.3937007874015748
          },
          {
            "duration": 0.10489499999999907,
            "durationTicks": 96,
            "midi": 55,
            "name": "G3",
            "ticks": 62592,
            "time": 68.39154,
            "velocity": 0.3937007874015748
          },
          {
            "duration": 0.10489499999999907,
            "durationTicks": 96,
            "midi": 67,
            "name": "G4",
            "ticks": 62592,
            "time": 68.39154,
            "velocity": 0.3937007874015748
          },
          {
            "duration": 0.10489499999999907,
            "durationTicks": 96,
            "midi": 43,
            "name": "G2",
            "ticks": 62592,
            "time": 68.39154,
            "velocity": 0.3937007874015748
          },
          {
            "duration": 0.10489499999999907,
            "durationTicks": 96,
            "midi": 43,
            "name": "G2",
            "ticks": 62688,
            "time": 68.496435,
            "velocity": 0.3937007874015748
          },
          {
            "duration": 0.10489499999999907,
            "durationTicks": 96,
            "midi": 36,
            "name": "C2",
            "ticks": 62688,
            "time": 68.496435,
            "velocity": 0.3937007874015748
          },
          {
            "duration": 0.10489499999999907,
            "durationTicks": 96,
            "midi": 67,
            "name": "G4",
            "ticks": 62688,
            "time": 68.496435,
            "velocity": 0.3937007874015748
          },
          {
            "duration": 0.10489499999999907,
            "durationTicks": 96,
            "midi": 60,
            "name": "C4",
            "ticks": 62688,
            "time": 68.496435,
            "velocity": 0.3937007874015748
          },
          {
            "duration": 0.10489499999999907,
            "durationTicks": 96,
            "midi": 55,
            "name": "G3",
            "ticks": 62688,
            "time": 68.496435,
            "velocity": 0.3937007874015748
          },
          {
            "duration": 0.10489499999999907,
            "durationTicks": 96,
            "midi": 48,
            "name": "C3",
            "ticks": 62688,
            "time": 68.496435,
            "velocity": 0.3937007874015748
          },
          {
            "duration": 0.10489499999999907,
            "durationTicks": 96,
            "midi": 47,
            "name": "B2",
            "ticks": 62784,
            "time": 68.60133,
            "velocity": 0.3937007874015748
          },
          {
            "duration": 0.10489499999999907,
            "durationTicks": 96,
            "midi": 42,
            "name": "F#2",
            "ticks": 62784,
            "time": 68.60133,
            "velocity": 0.3937007874015748
          },
          {
            "duration": 0.10489499999999907,
            "durationTicks": 96,
            "midi": 35,
            "name": "B1",
            "ticks": 62784,
            "time": 68.60133,
            "velocity": 0.3937007874015748
          },
          {
            "duration": 0.10489499999999907,
            "durationTicks": 96,
            "midi": 59,
            "name": "B3",
            "ticks": 62784,
            "time": 68.60133,
            "velocity": 0.3937007874015748
          },
          {
            "duration": 0.10489499999999907,
            "durationTicks": 96,
            "midi": 54,
            "name": "F#3",
            "ticks": 62784,
            "time": 68.60133,
            "velocity": 0.3937007874015748
          },
          {
            "duration": 0.10489499999999907,
            "durationTicks": 96,
            "midi": 66,
            "name": "F#4",
            "ticks": 62784,
            "time": 68.60133,
            "velocity": 0.3937007874015748
          },
          {
            "duration": 0.10489499999999907,
            "durationTicks": 96,
            "midi": 54,
            "name": "F#3",
            "ticks": 62880,
            "time": 68.706225,
            "velocity": 0.3937007874015748
          },
          {
            "duration": 0.10489499999999907,
            "durationTicks": 96,
            "midi": 66,
            "name": "F#4",
            "ticks": 62880,
            "time": 68.706225,
            "velocity": 0.3937007874015748
          },
          {
            "duration": 0.10489499999999907,
            "durationTicks": 96,
            "midi": 47,
            "name": "B2",
            "ticks": 62880,
            "time": 68.706225,
            "velocity": 0.3937007874015748
          },
          {
            "duration": 0.10489499999999907,
            "durationTicks": 96,
            "midi": 42,
            "name": "F#2",
            "ticks": 62880,
            "time": 68.706225,
            "velocity": 0.3937007874015748
          },
          {
            "duration": 0.10489499999999907,
            "durationTicks": 96,
            "midi": 35,
            "name": "B1",
            "ticks": 62880,
            "time": 68.706225,
            "velocity": 0.3937007874015748
          },
          {
            "duration": 0.10489499999999907,
            "durationTicks": 96,
            "midi": 59,
            "name": "B3",
            "ticks": 62880,
            "time": 68.706225,
            "velocity": 0.3937007874015748
          },
          {
            "duration": 0.10489499999999907,
            "durationTicks": 96,
            "midi": 63,
            "name": "D#4",
            "ticks": 62976,
            "time": 68.81112,
            "velocity": 0.3937007874015748
          },
          {
            "duration": 0.10489499999999907,
            "durationTicks": 96,
            "midi": 44,
            "name": "G#2",
            "ticks": 62976,
            "time": 68.81112,
            "velocity": 0.3937007874015748
          },
          {
            "duration": 0.10489499999999907,
            "durationTicks": 96,
            "midi": 32,
            "name": "G#1",
            "ticks": 62976,
            "time": 68.81112,
            "velocity": 0.3937007874015748
          },
          {
            "duration": 0.10489499999999907,
            "durationTicks": 96,
            "midi": 56,
            "name": "G#3",
            "ticks": 62976,
            "time": 68.81112,
            "velocity": 0.3937007874015748
          },
          {
            "duration": 0.10489499999999907,
            "durationTicks": 96,
            "midi": 51,
            "name": "D#3",
            "ticks": 62976,
            "time": 68.81112,
            "velocity": 0.3937007874015748
          },
          {
            "duration": 0.10489499999999907,
            "durationTicks": 96,
            "midi": 39,
            "name": "D#2",
            "ticks": 62976,
            "time": 68.81112,
            "velocity": 0.3937007874015748
          },
          {
            "duration": 0.10489499999999907,
            "durationTicks": 96,
            "midi": 39,
            "name": "D#2",
            "ticks": 63072,
            "time": 68.916015,
            "velocity": 0.3937007874015748
          },
          {
            "duration": 0.10489499999999907,
            "durationTicks": 96,
            "midi": 56,
            "name": "G#3",
            "ticks": 63072,
            "time": 68.916015,
            "velocity": 0.3937007874015748
          },
          {
            "duration": 0.10489499999999907,
            "durationTicks": 96,
            "midi": 44,
            "name": "G#2",
            "ticks": 63072,
            "time": 68.916015,
            "velocity": 0.3937007874015748
          },
          {
            "duration": 0.10489499999999907,
            "durationTicks": 96,
            "midi": 63,
            "name": "D#4",
            "ticks": 63072,
            "time": 68.916015,
            "velocity": 0.3937007874015748
          },
          {
            "duration": 0.10489499999999907,
            "durationTicks": 96,
            "midi": 51,
            "name": "D#3",
            "ticks": 63072,
            "time": 68.916015,
            "velocity": 0.3937007874015748
          },
          {
            "duration": 0.10489499999999907,
            "durationTicks": 96,
            "midi": 32,
            "name": "G#1",
            "ticks": 63072,
            "time": 68.916015,
            "velocity": 0.3937007874015748
          },
          {
            "duration": 0.10489499999999907,
            "durationTicks": 96,
            "midi": 39,
            "name": "D#2",
            "ticks": 63168,
            "time": 69.02091,
            "velocity": 0.3937007874015748
          },
          {
            "duration": 0.10489499999999907,
            "durationTicks": 96,
            "midi": 56,
            "name": "G#3",
            "ticks": 63168,
            "time": 69.02091,
            "velocity": 0.3937007874015748
          },
          {
            "duration": 0.10489499999999907,
            "durationTicks": 96,
            "midi": 63,
            "name": "D#4",
            "ticks": 63168,
            "time": 69.02091,
            "velocity": 0.3937007874015748
          },
          {
            "duration": 0.10489499999999907,
            "durationTicks": 96,
            "midi": 44,
            "name": "G#2",
            "ticks": 63168,
            "time": 69.02091,
            "velocity": 0.3937007874015748
          },
          {
            "duration": 0.10489499999999907,
            "durationTicks": 96,
            "midi": 51,
            "name": "D#3",
            "ticks": 63168,
            "time": 69.02091,
            "velocity": 0.3937007874015748
          },
          {
            "duration": 0.10489499999999907,
            "durationTicks": 96,
            "midi": 32,
            "name": "G#1",
            "ticks": 63168,
            "time": 69.02091,
            "velocity": 0.3937007874015748
          },
          {
            "duration": 0.10489499999999907,
            "durationTicks": 96,
            "midi": 44,
            "name": "G#2",
            "ticks": 63264,
            "time": 69.125805,
            "velocity": 0.3937007874015748
          },
          {
            "duration": 0.10489499999999907,
            "durationTicks": 96,
            "midi": 63,
            "name": "D#4",
            "ticks": 63264,
            "time": 69.125805,
            "velocity": 0.3937007874015748
          },
          {
            "duration": 0.10489499999999907,
            "durationTicks": 96,
            "midi": 51,
            "name": "D#3",
            "ticks": 63264,
            "time": 69.125805,
            "velocity": 0.3937007874015748
          },
          {
            "duration": 0.10489499999999907,
            "durationTicks": 96,
            "midi": 56,
            "name": "G#3",
            "ticks": 63264,
            "time": 69.125805,
            "velocity": 0.3937007874015748
          },
          {
            "duration": 0.10489499999999907,
            "durationTicks": 96,
            "midi": 32,
            "name": "G#1",
            "ticks": 63264,
            "time": 69.125805,
            "velocity": 0.3937007874015748
          },
          {
            "duration": 0.10489499999999907,
            "durationTicks": 96,
            "midi": 39,
            "name": "D#2",
            "ticks": 63264,
            "time": 69.125805,
            "velocity": 0.3937007874015748
          },
          {
            "duration": 0.10489499999999907,
            "durationTicks": 96,
            "midi": 39,
            "name": "D#2",
            "ticks": 63360,
            "time": 69.2307,
            "velocity": 0.3937007874015748
          },
          {
            "duration": 0.10489499999999907,
            "durationTicks": 96,
            "midi": 44,
            "name": "G#2",
            "ticks": 63360,
            "time": 69.2307,
            "velocity": 0.3937007874015748
          },
          {
            "duration": 0.10489499999999907,
            "durationTicks": 96,
            "midi": 32,
            "name": "G#1",
            "ticks": 63360,
            "time": 69.2307,
            "velocity": 0.3937007874015748
          },
          {
            "duration": 0.10489499999999907,
            "durationTicks": 96,
            "midi": 63,
            "name": "D#4",
            "ticks": 63360,
            "time": 69.2307,
            "velocity": 0.3937007874015748
          },
          {
            "duration": 0.10489499999999907,
            "durationTicks": 96,
            "midi": 51,
            "name": "D#3",
            "ticks": 63360,
            "time": 69.2307,
            "velocity": 0.3937007874015748
          },
          {
            "duration": 0.10489499999999907,
            "durationTicks": 96,
            "midi": 56,
            "name": "G#3",
            "ticks": 63360,
            "time": 69.2307,
            "velocity": 0.3937007874015748
          },
          {
            "duration": 0.10489499999999907,
            "durationTicks": 96,
            "midi": 63,
            "name": "D#4",
            "ticks": 63456,
            "time": 69.335595,
            "velocity": 0.3937007874015748
          },
          {
            "duration": 0.10489499999999907,
            "durationTicks": 96,
            "midi": 39,
            "name": "D#2",
            "ticks": 63456,
            "time": 69.335595,
            "velocity": 0.3937007874015748
          },
          {
            "duration": 0.10489499999999907,
            "durationTicks": 96,
            "midi": 51,
            "name": "D#3",
            "ticks": 63456,
            "time": 69.335595,
            "velocity": 0.3937007874015748
          },
          {
            "duration": 0.10489499999999907,
            "durationTicks": 96,
            "midi": 44,
            "name": "G#2",
            "ticks": 63456,
            "time": 69.335595,
            "velocity": 0.3937007874015748
          },
          {
            "duration": 0.10489499999999907,
            "durationTicks": 96,
            "midi": 56,
            "name": "G#3",
            "ticks": 63456,
            "time": 69.335595,
            "velocity": 0.3937007874015748
          },
          {
            "duration": 0.10489499999999907,
            "durationTicks": 96,
            "midi": 32,
            "name": "G#1",
            "ticks": 63456,
            "time": 69.335595,
            "velocity": 0.3937007874015748
          },
          {
            "duration": 0.10489499999999907,
            "durationTicks": 96,
            "midi": 44,
            "name": "G#2",
            "ticks": 63552,
            "time": 69.44049,
            "velocity": 0.3937007874015748
          },
          {
            "duration": 0.10489499999999907,
            "durationTicks": 96,
            "midi": 32,
            "name": "G#1",
            "ticks": 63552,
            "time": 69.44049,
            "velocity": 0.3937007874015748
          },
          {
            "duration": 0.10489499999999907,
            "durationTicks": 96,
            "midi": 39,
            "name": "D#2",
            "ticks": 63552,
            "time": 69.44049,
            "velocity": 0.3937007874015748
          },
          {
            "duration": 0.10489499999999907,
            "durationTicks": 96,
            "midi": 56,
            "name": "G#3",
            "ticks": 63552,
            "time": 69.44049,
            "velocity": 0.3937007874015748
          },
          {
            "duration": 0.10489499999999907,
            "durationTicks": 96,
            "midi": 51,
            "name": "D#3",
            "ticks": 63552,
            "time": 69.44049,
            "velocity": 0.3937007874015748
          },
          {
            "duration": 0.10489499999999907,
            "durationTicks": 96,
            "midi": 63,
            "name": "D#4",
            "ticks": 63552,
            "time": 69.44049,
            "velocity": 0.3937007874015748
          },
          {
            "duration": 0.10489499999999907,
            "durationTicks": 96,
            "midi": 63,
            "name": "D#4",
            "ticks": 63648,
            "time": 69.545385,
            "velocity": 0.3937007874015748
          },
          {
            "duration": 0.10489499999999907,
            "durationTicks": 96,
            "midi": 39,
            "name": "D#2",
            "ticks": 63648,
            "time": 69.545385,
            "velocity": 0.3937007874015748
          },
          {
            "duration": 0.10489499999999907,
            "durationTicks": 96,
            "midi": 32,
            "name": "G#1",
            "ticks": 63648,
            "time": 69.545385,
            "velocity": 0.3937007874015748
          },
          {
            "duration": 0.10489499999999907,
            "durationTicks": 96,
            "midi": 56,
            "name": "G#3",
            "ticks": 63648,
            "time": 69.545385,
            "velocity": 0.3937007874015748
          },
          {
            "duration": 0.10489499999999907,
            "durationTicks": 96,
            "midi": 51,
            "name": "D#3",
            "ticks": 63648,
            "time": 69.545385,
            "velocity": 0.3937007874015748
          },
          {
            "duration": 0.10489499999999907,
            "durationTicks": 96,
            "midi": 44,
            "name": "G#2",
            "ticks": 63648,
            "time": 69.545385,
            "velocity": 0.3937007874015748
          },
          {
            "duration": 0.10489500000001328,
            "durationTicks": 96,
            "midi": 51,
            "name": "D#3",
            "ticks": 63744,
            "time": 69.65028,
            "velocity": 0.3937007874015748
          },
          {
            "duration": 0.10489500000001328,
            "durationTicks": 96,
            "midi": 63,
            "name": "D#4",
            "ticks": 63744,
            "time": 69.65028,
            "velocity": 0.3937007874015748
          },
          {
            "duration": 0.10489500000001328,
            "durationTicks": 96,
            "midi": 32,
            "name": "G#1",
            "ticks": 63744,
            "time": 69.65028,
            "velocity": 0.3937007874015748
          },
          {
            "duration": 0.10489500000001328,
            "durationTicks": 96,
            "midi": 44,
            "name": "G#2",
            "ticks": 63744,
            "time": 69.65028,
            "velocity": 0.3937007874015748
          },
          {
            "duration": 0.10489500000001328,
            "durationTicks": 96,
            "midi": 39,
            "name": "D#2",
            "ticks": 63744,
            "time": 69.65028,
            "velocity": 0.3937007874015748
          },
          {
            "duration": 0.10489500000001328,
            "durationTicks": 96,
            "midi": 56,
            "name": "G#3",
            "ticks": 63744,
            "time": 69.65028,
            "velocity": 0.3937007874015748
          },
          {
            "duration": 0.10489499999999907,
            "durationTicks": 96,
            "midi": 38,
            "name": "D2",
            "ticks": 64512,
            "time": 70.48944,
            "velocity": 0.3937007874015748
          },
          {
            "duration": 0.10489499999999907,
            "durationTicks": 96,
            "midi": 55,
            "name": "G3",
            "ticks": 64512,
            "time": 70.48944,
            "velocity": 0.3937007874015748
          },
          {
            "duration": 0.10489499999999907,
            "durationTicks": 96,
            "midi": 62,
            "name": "D4",
            "ticks": 64512,
            "time": 70.48944,
            "velocity": 0.3937007874015748
          },
          {
            "duration": 0.10489499999999907,
            "durationTicks": 96,
            "midi": 50,
            "name": "D3",
            "ticks": 64512,
            "time": 70.48944,
            "velocity": 0.3937007874015748
          },
          {
            "duration": 0.10489499999999907,
            "durationTicks": 96,
            "midi": 43,
            "name": "G2",
            "ticks": 64512,
            "time": 70.48944,
            "velocity": 0.3937007874015748
          },
          {
            "duration": 0.10489499999999907,
            "durationTicks": 96,
            "midi": 31,
            "name": "G1",
            "ticks": 64512,
            "time": 70.48944,
            "velocity": 0.3937007874015748
          },
          {
            "duration": 0.10489499999999907,
            "durationTicks": 96,
            "midi": 38,
            "name": "D2",
            "ticks": 64608,
            "time": 70.594335,
            "velocity": 0.3937007874015748
          },
          {
            "duration": 0.10489499999999907,
            "durationTicks": 96,
            "midi": 62,
            "name": "D4",
            "ticks": 64608,
            "time": 70.594335,
            "velocity": 0.3937007874015748
          },
          {
            "duration": 0.10489499999999907,
            "durationTicks": 96,
            "midi": 55,
            "name": "G3",
            "ticks": 64608,
            "time": 70.594335,
            "velocity": 0.3937007874015748
          },
          {
            "duration": 0.10489499999999907,
            "durationTicks": 96,
            "midi": 43,
            "name": "G2",
            "ticks": 64608,
            "time": 70.594335,
            "velocity": 0.3937007874015748
          },
          {
            "duration": 0.10489499999999907,
            "durationTicks": 96,
            "midi": 50,
            "name": "D3",
            "ticks": 64608,
            "time": 70.594335,
            "velocity": 0.3937007874015748
          },
          {
            "duration": 0.10489499999999907,
            "durationTicks": 96,
            "midi": 31,
            "name": "G1",
            "ticks": 64608,
            "time": 70.594335,
            "velocity": 0.3937007874015748
          },
          {
            "duration": 0.10489499999999907,
            "durationTicks": 96,
            "midi": 55,
            "name": "G3",
            "ticks": 64704,
            "time": 70.69923,
            "velocity": 0.3937007874015748
          },
          {
            "duration": 0.10489499999999907,
            "durationTicks": 96,
            "midi": 50,
            "name": "D3",
            "ticks": 64704,
            "time": 70.69923,
            "velocity": 0.3937007874015748
          },
          {
            "duration": 0.10489499999999907,
            "durationTicks": 96,
            "midi": 38,
            "name": "D2",
            "ticks": 64704,
            "time": 70.69923,
            "velocity": 0.3937007874015748
          },
          {
            "duration": 0.10489499999999907,
            "durationTicks": 96,
            "midi": 62,
            "name": "D4",
            "ticks": 64704,
            "time": 70.69923,
            "velocity": 0.3937007874015748
          },
          {
            "duration": 0.10489499999999907,
            "durationTicks": 96,
            "midi": 31,
            "name": "G1",
            "ticks": 64704,
            "time": 70.69923,
            "velocity": 0.3937007874015748
          },
          {
            "duration": 0.10489499999999907,
            "durationTicks": 96,
            "midi": 43,
            "name": "G2",
            "ticks": 64704,
            "time": 70.69923,
            "velocity": 0.3937007874015748
          },
          {
            "duration": 0.10489499999999907,
            "durationTicks": 96,
            "midi": 38,
            "name": "D2",
            "ticks": 64800,
            "time": 70.804125,
            "velocity": 0.3937007874015748
          },
          {
            "duration": 0.10489499999999907,
            "durationTicks": 96,
            "midi": 31,
            "name": "G1",
            "ticks": 64800,
            "time": 70.804125,
            "velocity": 0.3937007874015748
          },
          {
            "duration": 0.10489499999999907,
            "durationTicks": 96,
            "midi": 62,
            "name": "D4",
            "ticks": 64800,
            "time": 70.804125,
            "velocity": 0.3937007874015748
          },
          {
            "duration": 0.10489499999999907,
            "durationTicks": 96,
            "midi": 43,
            "name": "G2",
            "ticks": 64800,
            "time": 70.804125,
            "velocity": 0.3937007874015748
          },
          {
            "duration": 0.10489499999999907,
            "durationTicks": 96,
            "midi": 55,
            "name": "G3",
            "ticks": 64800,
            "time": 70.804125,
            "velocity": 0.3937007874015748
          },
          {
            "duration": 0.10489499999999907,
            "durationTicks": 96,
            "midi": 50,
            "name": "D3",
            "ticks": 64800,
            "time": 70.804125,
            "velocity": 0.3937007874015748
          },
          {
            "duration": 0.10489499999999907,
            "durationTicks": 96,
            "midi": 62,
            "name": "D4",
            "ticks": 64896,
            "time": 70.90902,
            "velocity": 0.3937007874015748
          },
          {
            "duration": 0.10489499999999907,
            "durationTicks": 96,
            "midi": 50,
            "name": "D3",
            "ticks": 64896,
            "time": 70.90902,
            "velocity": 0.3937007874015748
          },
          {
            "duration": 0.10489499999999907,
            "durationTicks": 96,
            "midi": 55,
            "name": "G3",
            "ticks": 64896,
            "time": 70.90902,
            "velocity": 0.3937007874015748
          },
          {
            "duration": 0.10489499999999907,
            "durationTicks": 96,
            "midi": 31,
            "name": "G1",
            "ticks": 64896,
            "time": 70.90902,
            "velocity": 0.3937007874015748
          },
          {
            "duration": 0.10489499999999907,
            "durationTicks": 96,
            "midi": 38,
            "name": "D2",
            "ticks": 64896,
            "time": 70.90902,
            "velocity": 0.3937007874015748
          },
          {
            "duration": 0.10489499999999907,
            "durationTicks": 96,
            "midi": 43,
            "name": "G2",
            "ticks": 64896,
            "time": 70.90902,
            "velocity": 0.3937007874015748
          },
          {
            "duration": 0.10489499999999907,
            "durationTicks": 96,
            "midi": 50,
            "name": "D3",
            "ticks": 64992,
            "time": 71.013915,
            "velocity": 0.3937007874015748
          },
          {
            "duration": 0.10489499999999907,
            "durationTicks": 96,
            "midi": 55,
            "name": "G3",
            "ticks": 64992,
            "time": 71.013915,
            "velocity": 0.3937007874015748
          },
          {
            "duration": 0.10489499999999907,
            "durationTicks": 96,
            "midi": 43,
            "name": "G2",
            "ticks": 64992,
            "time": 71.013915,
            "velocity": 0.3937007874015748
          },
          {
            "duration": 0.10489499999999907,
            "durationTicks": 96,
            "midi": 31,
            "name": "G1",
            "ticks": 64992,
            "time": 71.013915,
            "velocity": 0.3937007874015748
          },
          {
            "duration": 0.10489499999999907,
            "durationTicks": 96,
            "midi": 38,
            "name": "D2",
            "ticks": 64992,
            "time": 71.013915,
            "velocity": 0.3937007874015748
          },
          {
            "duration": 0.10489499999999907,
            "durationTicks": 96,
            "midi": 62,
            "name": "D4",
            "ticks": 64992,
            "time": 71.013915,
            "velocity": 0.3937007874015748
          },
          {
            "duration": 0.10489499999999907,
            "durationTicks": 96,
            "midi": 62,
            "name": "D4",
            "ticks": 65088,
            "time": 71.11881,
            "velocity": 0.3937007874015748
          },
          {
            "duration": 0.10489499999999907,
            "durationTicks": 96,
            "midi": 50,
            "name": "D3",
            "ticks": 65088,
            "time": 71.11881,
            "velocity": 0.3937007874015748
          },
          {
            "duration": 0.10489499999999907,
            "durationTicks": 96,
            "midi": 38,
            "name": "D2",
            "ticks": 65088,
            "time": 71.11881,
            "velocity": 0.3937007874015748
          },
          {
            "duration": 0.10489499999999907,
            "durationTicks": 96,
            "midi": 43,
            "name": "G2",
            "ticks": 65088,
            "time": 71.11881,
            "velocity": 0.3937007874015748
          },
          {
            "duration": 0.10489499999999907,
            "durationTicks": 96,
            "midi": 31,
            "name": "G1",
            "ticks": 65088,
            "time": 71.11881,
            "velocity": 0.3937007874015748
          },
          {
            "duration": 0.10489499999999907,
            "durationTicks": 96,
            "midi": 55,
            "name": "G3",
            "ticks": 65088,
            "time": 71.11881,
            "velocity": 0.3937007874015748
          },
          {
            "duration": 0.10489499999999907,
            "durationTicks": 96,
            "midi": 50,
            "name": "D3",
            "ticks": 65184,
            "time": 71.223705,
            "velocity": 0.3937007874015748
          },
          {
            "duration": 0.10489499999999907,
            "durationTicks": 96,
            "midi": 55,
            "name": "G3",
            "ticks": 65184,
            "time": 71.223705,
            "velocity": 0.3937007874015748
          },
          {
            "duration": 0.10489499999999907,
            "durationTicks": 96,
            "midi": 38,
            "name": "D2",
            "ticks": 65184,
            "time": 71.223705,
            "velocity": 0.3937007874015748
          },
          {
            "duration": 0.10489499999999907,
            "durationTicks": 96,
            "midi": 62,
            "name": "D4",
            "ticks": 65184,
            "time": 71.223705,
            "velocity": 0.3937007874015748
          },
          {
            "duration": 0.10489499999999907,
            "durationTicks": 96,
            "midi": 43,
            "name": "G2",
            "ticks": 65184,
            "time": 71.223705,
            "velocity": 0.3937007874015748
          },
          {
            "duration": 0.10489499999999907,
            "durationTicks": 96,
            "midi": 31,
            "name": "G1",
            "ticks": 65184,
            "time": 71.223705,
            "velocity": 0.3937007874015748
          },
          {
            "duration": 0.10489500000001328,
            "durationTicks": 96,
            "midi": 62,
            "name": "D4",
            "ticks": 65280,
            "time": 71.3286,
            "velocity": 0.3937007874015748
          },
          {
            "duration": 0.10489500000001328,
            "durationTicks": 96,
            "midi": 50,
            "name": "D3",
            "ticks": 65280,
            "time": 71.3286,
            "velocity": 0.3937007874015748
          },
          {
            "duration": 0.10489500000001328,
            "durationTicks": 96,
            "midi": 43,
            "name": "G2",
            "ticks": 65280,
            "time": 71.3286,
            "velocity": 0.3937007874015748
          },
          {
            "duration": 0.10489500000001328,
            "durationTicks": 96,
            "midi": 31,
            "name": "G1",
            "ticks": 65280,
            "time": 71.3286,
            "velocity": 0.3937007874015748
          },
          {
            "duration": 0.10489500000001328,
            "durationTicks": 96,
            "midi": 38,
            "name": "D2",
            "ticks": 65280,
            "time": 71.3286,
            "velocity": 0.3937007874015748
          },
          {
            "duration": 0.10489500000001328,
            "durationTicks": 96,
            "midi": 55,
            "name": "G3",
            "ticks": 65280,
            "time": 71.3286,
            "velocity": 0.3937007874015748
          },
          {
            "duration": 0.10489499999999907,
            "durationTicks": 96,
            "midi": 63,
            "name": "D#4",
            "ticks": 66048,
            "time": 72.16776,
            "velocity": 0.3937007874015748
          },
          {
            "duration": 0.10489499999999907,
            "durationTicks": 96,
            "midi": 44,
            "name": "G#2",
            "ticks": 66048,
            "time": 72.16776,
            "velocity": 0.3937007874015748
          },
          {
            "duration": 0.10489499999999907,
            "durationTicks": 96,
            "midi": 51,
            "name": "D#3",
            "ticks": 66048,
            "time": 72.16776,
            "velocity": 0.3937007874015748
          },
          {
            "duration": 0.10489499999999907,
            "durationTicks": 96,
            "midi": 56,
            "name": "G#3",
            "ticks": 66048,
            "time": 72.16776,
            "velocity": 0.3937007874015748
          },
          {
            "duration": 0.10489499999999907,
            "durationTicks": 96,
            "midi": 32,
            "name": "G#1",
            "ticks": 66048,
            "time": 72.16776,
            "velocity": 0.3937007874015748
          },
          {
            "duration": 0.10489499999999907,
            "durationTicks": 96,
            "midi": 39,
            "name": "D#2",
            "ticks": 66048,
            "time": 72.16776,
            "velocity": 0.3937007874015748
          },
          {
            "duration": 0.10489499999999907,
            "durationTicks": 96,
            "midi": 39,
            "name": "D#2",
            "ticks": 66144,
            "time": 72.272655,
            "velocity": 0.3937007874015748
          },
          {
            "duration": 0.10489499999999907,
            "durationTicks": 96,
            "midi": 63,
            "name": "D#4",
            "ticks": 66144,
            "time": 72.272655,
            "velocity": 0.3937007874015748
          },
          {
            "duration": 0.10489499999999907,
            "durationTicks": 96,
            "midi": 51,
            "name": "D#3",
            "ticks": 66144,
            "time": 72.272655,
            "velocity": 0.3937007874015748
          },
          {
            "duration": 0.10489499999999907,
            "durationTicks": 96,
            "midi": 44,
            "name": "G#2",
            "ticks": 66144,
            "time": 72.272655,
            "velocity": 0.3937007874015748
          },
          {
            "duration": 0.10489499999999907,
            "durationTicks": 96,
            "midi": 56,
            "name": "G#3",
            "ticks": 66144,
            "time": 72.272655,
            "velocity": 0.3937007874015748
          },
          {
            "duration": 0.10489499999999907,
            "durationTicks": 96,
            "midi": 32,
            "name": "G#1",
            "ticks": 66144,
            "time": 72.272655,
            "velocity": 0.3937007874015748
          },
          {
            "duration": 0.10489499999999907,
            "durationTicks": 96,
            "midi": 39,
            "name": "D#2",
            "ticks": 66240,
            "time": 72.37755,
            "velocity": 0.3937007874015748
          },
          {
            "duration": 0.10489499999999907,
            "durationTicks": 96,
            "midi": 44,
            "name": "G#2",
            "ticks": 66240,
            "time": 72.37755,
            "velocity": 0.3937007874015748
          },
          {
            "duration": 0.10489499999999907,
            "durationTicks": 96,
            "midi": 63,
            "name": "D#4",
            "ticks": 66240,
            "time": 72.37755,
            "velocity": 0.3937007874015748
          },
          {
            "duration": 0.10489499999999907,
            "durationTicks": 96,
            "midi": 51,
            "name": "D#3",
            "ticks": 66240,
            "time": 72.37755,
            "velocity": 0.3937007874015748
          },
          {
            "duration": 0.10489499999999907,
            "durationTicks": 96,
            "midi": 56,
            "name": "G#3",
            "ticks": 66240,
            "time": 72.37755,
            "velocity": 0.3937007874015748
          },
          {
            "duration": 0.10489499999999907,
            "durationTicks": 96,
            "midi": 32,
            "name": "G#1",
            "ticks": 66240,
            "time": 72.37755,
            "velocity": 0.3937007874015748
          },
          {
            "duration": 0.10489499999999907,
            "durationTicks": 96,
            "midi": 44,
            "name": "G#2",
            "ticks": 66336,
            "time": 72.482445,
            "velocity": 0.3937007874015748
          },
          {
            "duration": 0.10489499999999907,
            "durationTicks": 96,
            "midi": 51,
            "name": "D#3",
            "ticks": 66336,
            "time": 72.482445,
            "velocity": 0.3937007874015748
          },
          {
            "duration": 0.10489499999999907,
            "durationTicks": 96,
            "midi": 56,
            "name": "G#3",
            "ticks": 66336,
            "time": 72.482445,
            "velocity": 0.3937007874015748
          },
          {
            "duration": 0.10489499999999907,
            "durationTicks": 96,
            "midi": 32,
            "name": "G#1",
            "ticks": 66336,
            "time": 72.482445,
            "velocity": 0.3937007874015748
          },
          {
            "duration": 0.10489499999999907,
            "durationTicks": 96,
            "midi": 63,
            "name": "D#4",
            "ticks": 66336,
            "time": 72.482445,
            "velocity": 0.3937007874015748
          },
          {
            "duration": 0.10489499999999907,
            "durationTicks": 96,
            "midi": 39,
            "name": "D#2",
            "ticks": 66336,
            "time": 72.482445,
            "velocity": 0.3937007874015748
          },
          {
            "duration": 0.10489499999999907,
            "durationTicks": 96,
            "midi": 44,
            "name": "G#2",
            "ticks": 66432,
            "time": 72.58734,
            "velocity": 0.3937007874015748
          },
          {
            "duration": 0.10489499999999907,
            "durationTicks": 96,
            "midi": 39,
            "name": "D#2",
            "ticks": 66432,
            "time": 72.58734,
            "velocity": 0.3937007874015748
          },
          {
            "duration": 0.10489499999999907,
            "durationTicks": 96,
            "midi": 63,
            "name": "D#4",
            "ticks": 66432,
            "time": 72.58734,
            "velocity": 0.3937007874015748
          },
          {
            "duration": 0.10489499999999907,
            "durationTicks": 96,
            "midi": 56,
            "name": "G#3",
            "ticks": 66432,
            "time": 72.58734,
            "velocity": 0.3937007874015748
          },
          {
            "duration": 0.10489499999999907,
            "durationTicks": 96,
            "midi": 32,
            "name": "G#1",
            "ticks": 66432,
            "time": 72.58734,
            "velocity": 0.3937007874015748
          },
          {
            "duration": 0.10489499999999907,
            "durationTicks": 96,
            "midi": 51,
            "name": "D#3",
            "ticks": 66432,
            "time": 72.58734,
            "velocity": 0.3937007874015748
          },
          {
            "duration": 0.10489499999999907,
            "durationTicks": 96,
            "midi": 39,
            "name": "D#2",
            "ticks": 66528,
            "time": 72.692235,
            "velocity": 0.3937007874015748
          },
          {
            "duration": 0.10489499999999907,
            "durationTicks": 96,
            "midi": 32,
            "name": "G#1",
            "ticks": 66528,
            "time": 72.692235,
            "velocity": 0.3937007874015748
          },
          {
            "duration": 0.10489499999999907,
            "durationTicks": 96,
            "midi": 63,
            "name": "D#4",
            "ticks": 66528,
            "time": 72.692235,
            "velocity": 0.3937007874015748
          },
          {
            "duration": 0.10489499999999907,
            "durationTicks": 96,
            "midi": 56,
            "name": "G#3",
            "ticks": 66528,
            "time": 72.692235,
            "velocity": 0.3937007874015748
          },
          {
            "duration": 0.10489499999999907,
            "durationTicks": 96,
            "midi": 51,
            "name": "D#3",
            "ticks": 66528,
            "time": 72.692235,
            "velocity": 0.3937007874015748
          },
          {
            "duration": 0.10489499999999907,
            "durationTicks": 96,
            "midi": 44,
            "name": "G#2",
            "ticks": 66528,
            "time": 72.692235,
            "velocity": 0.3937007874015748
          },
          {
            "duration": 0.10489499999999907,
            "durationTicks": 96,
            "midi": 63,
            "name": "D#4",
            "ticks": 66624,
            "time": 72.79713,
            "velocity": 0.3937007874015748
          },
          {
            "duration": 0.10489499999999907,
            "durationTicks": 96,
            "midi": 51,
            "name": "D#3",
            "ticks": 66624,
            "time": 72.79713,
            "velocity": 0.3937007874015748
          },
          {
            "duration": 0.10489499999999907,
            "durationTicks": 96,
            "midi": 44,
            "name": "G#2",
            "ticks": 66624,
            "time": 72.79713,
            "velocity": 0.3937007874015748
          },
          {
            "duration": 0.10489499999999907,
            "durationTicks": 96,
            "midi": 32,
            "name": "G#1",
            "ticks": 66624,
            "time": 72.79713,
            "velocity": 0.3937007874015748
          },
          {
            "duration": 0.10489499999999907,
            "durationTicks": 96,
            "midi": 56,
            "name": "G#3",
            "ticks": 66624,
            "time": 72.79713,
            "velocity": 0.3937007874015748
          },
          {
            "duration": 0.10489499999999907,
            "durationTicks": 96,
            "midi": 39,
            "name": "D#2",
            "ticks": 66624,
            "time": 72.79713,
            "velocity": 0.3937007874015748
          },
          {
            "duration": 0.10489500000001328,
            "durationTicks": 96,
            "midi": 39,
            "name": "D#2",
            "ticks": 66720,
            "time": 72.902025,
            "velocity": 0.3937007874015748
          },
          {
            "duration": 0.10489500000001328,
            "durationTicks": 96,
            "midi": 32,
            "name": "G#1",
            "ticks": 66720,
            "time": 72.902025,
            "velocity": 0.3937007874015748
          },
          {
            "duration": 0.10489500000001328,
            "durationTicks": 96,
            "midi": 63,
            "name": "D#4",
            "ticks": 66720,
            "time": 72.902025,
            "velocity": 0.3937007874015748
          },
          {
            "duration": 0.10489500000001328,
            "durationTicks": 96,
            "midi": 56,
            "name": "G#3",
            "ticks": 66720,
            "time": 72.902025,
            "velocity": 0.3937007874015748
          },
          {
            "duration": 0.10489500000001328,
            "durationTicks": 96,
            "midi": 51,
            "name": "D#3",
            "ticks": 66720,
            "time": 72.902025,
            "velocity": 0.3937007874015748
          },
          {
            "duration": 0.10489500000001328,
            "durationTicks": 96,
            "midi": 44,
            "name": "G#2",
            "ticks": 66720,
            "time": 72.902025,
            "velocity": 0.3937007874015748
          },
          {
            "duration": 0.10489499999999907,
            "durationTicks": 96,
            "midi": 39,
            "name": "D#2",
            "ticks": 66816,
            "time": 73.00692000000001,
            "velocity": 0.3937007874015748
          },
          {
            "duration": 0.10489499999999907,
            "durationTicks": 96,
            "midi": 32,
            "name": "G#1",
            "ticks": 66816,
            "time": 73.00692000000001,
            "velocity": 0.3937007874015748
          },
          {
            "duration": 0.10489499999999907,
            "durationTicks": 96,
            "midi": 56,
            "name": "G#3",
            "ticks": 66816,
            "time": 73.00692000000001,
            "velocity": 0.3937007874015748
          },
          {
            "duration": 0.10489499999999907,
            "durationTicks": 96,
            "midi": 44,
            "name": "G#2",
            "ticks": 66816,
            "time": 73.00692000000001,
            "velocity": 0.3937007874015748
          },
          {
            "duration": 0.10489499999999907,
            "durationTicks": 96,
            "midi": 51,
            "name": "D#3",
            "ticks": 66816,
            "time": 73.00692000000001,
            "velocity": 0.3937007874015748
          },
          {
            "duration": 0.10489499999999907,
            "durationTicks": 96,
            "midi": 63,
            "name": "D#4",
            "ticks": 66816,
            "time": 73.00692000000001,
            "velocity": 0.3937007874015748
          },
          {
            "duration": 0.10489499999999907,
            "durationTicks": 96,
            "midi": 50,
            "name": "D3",
            "ticks": 67584,
            "time": 73.84608,
            "velocity": 0.3937007874015748
          },
          {
            "duration": 0.10489499999999907,
            "durationTicks": 96,
            "midi": 31,
            "name": "G1",
            "ticks": 67584,
            "time": 73.84608,
            "velocity": 0.3937007874015748
          },
          {
            "duration": 0.10489499999999907,
            "durationTicks": 96,
            "midi": 55,
            "name": "G3",
            "ticks": 67584,
            "time": 73.84608,
            "velocity": 0.3937007874015748
          },
          {
            "duration": 0.10489499999999907,
            "durationTicks": 96,
            "midi": 43,
            "name": "G2",
            "ticks": 67584,
            "time": 73.84608,
            "velocity": 0.3937007874015748
          },
          {
            "duration": 0.10489499999999907,
            "durationTicks": 96,
            "midi": 38,
            "name": "D2",
            "ticks": 67584,
            "time": 73.84608,
            "velocity": 0.3937007874015748
          },
          {
            "duration": 0.10489499999999907,
            "durationTicks": 96,
            "midi": 62,
            "name": "D4",
            "ticks": 67584,
            "time": 73.84608,
            "velocity": 0.3937007874015748
          },
          {
            "duration": 0.10489499999999907,
            "durationTicks": 96,
            "midi": 55,
            "name": "G3",
            "ticks": 67680,
            "time": 73.950975,
            "velocity": 0.3937007874015748
          },
          {
            "duration": 0.10489499999999907,
            "durationTicks": 96,
            "midi": 31,
            "name": "G1",
            "ticks": 67680,
            "time": 73.950975,
            "velocity": 0.3937007874015748
          },
          {
            "duration": 0.10489499999999907,
            "durationTicks": 96,
            "midi": 43,
            "name": "G2",
            "ticks": 67680,
            "time": 73.950975,
            "velocity": 0.3937007874015748
          },
          {
            "duration": 0.10489499999999907,
            "durationTicks": 96,
            "midi": 62,
            "name": "D4",
            "ticks": 67680,
            "time": 73.950975,
            "velocity": 0.3937007874015748
          },
          {
            "duration": 0.10489499999999907,
            "durationTicks": 96,
            "midi": 38,
            "name": "D2",
            "ticks": 67680,
            "time": 73.950975,
            "velocity": 0.3937007874015748
          },
          {
            "duration": 0.10489499999999907,
            "durationTicks": 96,
            "midi": 50,
            "name": "D3",
            "ticks": 67680,
            "time": 73.950975,
            "velocity": 0.3937007874015748
          },
          {
            "duration": 0.10489499999999907,
            "durationTicks": 96,
            "midi": 55,
            "name": "G3",
            "ticks": 67776,
            "time": 74.05587,
            "velocity": 0.3937007874015748
          },
          {
            "duration": 0.10489499999999907,
            "durationTicks": 96,
            "midi": 38,
            "name": "D2",
            "ticks": 67776,
            "time": 74.05587,
            "velocity": 0.3937007874015748
          },
          {
            "duration": 0.10489499999999907,
            "durationTicks": 96,
            "midi": 62,
            "name": "D4",
            "ticks": 67776,
            "time": 74.05587,
            "velocity": 0.3937007874015748
          },
          {
            "duration": 0.10489499999999907,
            "durationTicks": 96,
            "midi": 43,
            "name": "G2",
            "ticks": 67776,
            "time": 74.05587,
            "velocity": 0.3937007874015748
          },
          {
            "duration": 0.10489499999999907,
            "durationTicks": 96,
            "midi": 50,
            "name": "D3",
            "ticks": 67776,
            "time": 74.05587,
            "velocity": 0.3937007874015748
          },
          {
            "duration": 0.10489499999999907,
            "durationTicks": 96,
            "midi": 31,
            "name": "G1",
            "ticks": 67776,
            "time": 74.05587,
            "velocity": 0.3937007874015748
          },
          {
            "duration": 0.10489499999999907,
            "durationTicks": 96,
            "midi": 43,
            "name": "G2",
            "ticks": 67872,
            "time": 74.160765,
            "velocity": 0.3937007874015748
          },
          {
            "duration": 0.10489499999999907,
            "durationTicks": 96,
            "midi": 50,
            "name": "D3",
            "ticks": 67872,
            "time": 74.160765,
            "velocity": 0.3937007874015748
          },
          {
            "duration": 0.10489499999999907,
            "durationTicks": 96,
            "midi": 55,
            "name": "G3",
            "ticks": 67872,
            "time": 74.160765,
            "velocity": 0.3937007874015748
          },
          {
            "duration": 0.10489499999999907,
            "durationTicks": 96,
            "midi": 31,
            "name": "G1",
            "ticks": 67872,
            "time": 74.160765,
            "velocity": 0.3937007874015748
          },
          {
            "duration": 0.10489499999999907,
            "durationTicks": 96,
            "midi": 38,
            "name": "D2",
            "ticks": 67872,
            "time": 74.160765,
            "velocity": 0.3937007874015748
          },
          {
            "duration": 0.10489499999999907,
            "durationTicks": 96,
            "midi": 62,
            "name": "D4",
            "ticks": 67872,
            "time": 74.160765,
            "velocity": 0.3937007874015748
          },
          {
            "duration": 0.10489499999999907,
            "durationTicks": 96,
            "midi": 43,
            "name": "G2",
            "ticks": 67968,
            "time": 74.26566,
            "velocity": 0.3937007874015748
          },
          {
            "duration": 0.10489499999999907,
            "durationTicks": 96,
            "midi": 38,
            "name": "D2",
            "ticks": 67968,
            "time": 74.26566,
            "velocity": 0.3937007874015748
          },
          {
            "duration": 0.10489499999999907,
            "durationTicks": 96,
            "midi": 31,
            "name": "G1",
            "ticks": 67968,
            "time": 74.26566,
            "velocity": 0.3937007874015748
          },
          {
            "duration": 0.10489499999999907,
            "durationTicks": 96,
            "midi": 62,
            "name": "D4",
            "ticks": 67968,
            "time": 74.26566,
            "velocity": 0.3937007874015748
          },
          {
            "duration": 0.10489499999999907,
            "durationTicks": 96,
            "midi": 55,
            "name": "G3",
            "ticks": 67968,
            "time": 74.26566,
            "velocity": 0.3937007874015748
          },
          {
            "duration": 0.10489499999999907,
            "durationTicks": 96,
            "midi": 50,
            "name": "D3",
            "ticks": 67968,
            "time": 74.26566,
            "velocity": 0.3937007874015748
          },
          {
            "duration": 0.10489499999999907,
            "durationTicks": 96,
            "midi": 50,
            "name": "D3",
            "ticks": 68064,
            "time": 74.370555,
            "velocity": 0.3937007874015748
          },
          {
            "duration": 0.10489499999999907,
            "durationTicks": 96,
            "midi": 55,
            "name": "G3",
            "ticks": 68064,
            "time": 74.370555,
            "velocity": 0.3937007874015748
          },
          {
            "duration": 0.10489499999999907,
            "durationTicks": 96,
            "midi": 62,
            "name": "D4",
            "ticks": 68064,
            "time": 74.370555,
            "velocity": 0.3937007874015748
          },
          {
            "duration": 0.10489499999999907,
            "durationTicks": 96,
            "midi": 43,
            "name": "G2",
            "ticks": 68064,
            "time": 74.370555,
            "velocity": 0.3937007874015748
          },
          {
            "duration": 0.10489499999999907,
            "durationTicks": 96,
            "midi": 38,
            "name": "D2",
            "ticks": 68064,
            "time": 74.370555,
            "velocity": 0.3937007874015748
          },
          {
            "duration": 0.10489499999999907,
            "durationTicks": 96,
            "midi": 31,
            "name": "G1",
            "ticks": 68064,
            "time": 74.370555,
            "velocity": 0.3937007874015748
          },
          {
            "duration": 0.10489500000001328,
            "durationTicks": 96,
            "midi": 55,
            "name": "G3",
            "ticks": 68160,
            "time": 74.47545,
            "velocity": 0.3937007874015748
          },
          {
            "duration": 0.10489500000001328,
            "durationTicks": 96,
            "midi": 50,
            "name": "D3",
            "ticks": 68160,
            "time": 74.47545,
            "velocity": 0.3937007874015748
          },
          {
            "duration": 0.10489500000001328,
            "durationTicks": 96,
            "midi": 43,
            "name": "G2",
            "ticks": 68160,
            "time": 74.47545,
            "velocity": 0.3937007874015748
          },
          {
            "duration": 0.10489500000001328,
            "durationTicks": 96,
            "midi": 62,
            "name": "D4",
            "ticks": 68160,
            "time": 74.47545,
            "velocity": 0.3937007874015748
          },
          {
            "duration": 0.10489500000001328,
            "durationTicks": 96,
            "midi": 38,
            "name": "D2",
            "ticks": 68160,
            "time": 74.47545,
            "velocity": 0.3937007874015748
          },
          {
            "duration": 0.10489500000001328,
            "durationTicks": 96,
            "midi": 31,
            "name": "G1",
            "ticks": 68160,
            "time": 74.47545,
            "velocity": 0.3937007874015748
          },
          {
            "duration": 0.10489499999999907,
            "durationTicks": 96,
            "midi": 50,
            "name": "D3",
            "ticks": 68256,
            "time": 74.58034500000001,
            "velocity": 0.3937007874015748
          },
          {
            "duration": 0.10489499999999907,
            "durationTicks": 96,
            "midi": 31,
            "name": "G1",
            "ticks": 68256,
            "time": 74.58034500000001,
            "velocity": 0.3937007874015748
          },
          {
            "duration": 0.10489499999999907,
            "durationTicks": 96,
            "midi": 55,
            "name": "G3",
            "ticks": 68256,
            "time": 74.58034500000001,
            "velocity": 0.3937007874015748
          },
          {
            "duration": 0.10489499999999907,
            "durationTicks": 96,
            "midi": 62,
            "name": "D4",
            "ticks": 68256,
            "time": 74.58034500000001,
            "velocity": 0.3937007874015748
          },
          {
            "duration": 0.10489499999999907,
            "durationTicks": 96,
            "midi": 38,
            "name": "D2",
            "ticks": 68256,
            "time": 74.58034500000001,
            "velocity": 0.3937007874015748
          },
          {
            "duration": 0.10489499999999907,
            "durationTicks": 96,
            "midi": 43,
            "name": "G2",
            "ticks": 68256,
            "time": 74.58034500000001,
            "velocity": 0.3937007874015748
          },
          {
            "duration": 0.10489499999999907,
            "durationTicks": 96,
            "midi": 31,
            "name": "G1",
            "ticks": 68352,
            "time": 74.68524000000001,
            "velocity": 0.3937007874015748
          },
          {
            "duration": 0.10489499999999907,
            "durationTicks": 96,
            "midi": 55,
            "name": "G3",
            "ticks": 68352,
            "time": 74.68524000000001,
            "velocity": 0.3937007874015748
          },
          {
            "duration": 0.10489499999999907,
            "durationTicks": 96,
            "midi": 43,
            "name": "G2",
            "ticks": 68352,
            "time": 74.68524000000001,
            "velocity": 0.3937007874015748
          },
          {
            "duration": 0.10489499999999907,
            "durationTicks": 96,
            "midi": 50,
            "name": "D3",
            "ticks": 68352,
            "time": 74.68524000000001,
            "velocity": 0.3937007874015748
          },
          {
            "duration": 0.10489499999999907,
            "durationTicks": 96,
            "midi": 62,
            "name": "D4",
            "ticks": 68352,
            "time": 74.68524000000001,
            "velocity": 0.3937007874015748
          },
          {
            "duration": 0.10489499999999907,
            "durationTicks": 96,
            "midi": 38,
            "name": "D2",
            "ticks": 68352,
            "time": 74.68524000000001,
            "velocity": 0.3937007874015748
          }
        ],
        "endOfTrackTicks": 68448
      },
      {
        "channel": 1,
        "controlChanges": {},
        "pitchBends": [],
        "instrument": {
          "family": "synth lead",
          "number": 80,
          "name": "lead 1 (square)"
        },
        "name": "Smooth Synth",
        "notes": [
          {
            "duration": 0.10489499999999996,
            "durationTicks": 96,
            "midi": 35,
            "name": "B1",
            "ticks": 6144,
            "time": 6.71328,
            "velocity": 0.3937007874015748
          },
          {
            "duration": 0.10489499999999996,
            "durationTicks": 96,
            "midi": 35,
            "name": "B1",
            "ticks": 6192,
            "time": 6.765727500000001,
            "velocity": 0.3937007874015748
          },
          {
            "duration": 0.10489499999999996,
            "durationTicks": 96,
            "midi": 35,
            "name": "B1",
            "ticks": 6240,
            "time": 6.818175,
            "velocity": 0.3937007874015748
          },
          {
            "duration": 0.10489499999999996,
            "durationTicks": 96,
            "midi": 35,
            "name": "B1",
            "ticks": 6288,
            "time": 6.8706225000000005,
            "velocity": 0.3937007874015748
          },
          {
            "duration": 0.10489499999999996,
            "durationTicks": 96,
            "midi": 35,
            "name": "B1",
            "ticks": 6336,
            "time": 6.92307,
            "velocity": 0.3937007874015748
          },
          {
            "duration": 0.10489499999999996,
            "durationTicks": 96,
            "midi": 35,
            "name": "B1",
            "ticks": 6384,
            "time": 6.9755175000000005,
            "velocity": 0.3937007874015748
          },
          {
            "duration": 0.10489499999999996,
            "durationTicks": 96,
            "midi": 35,
            "name": "B1",
            "ticks": 6432,
            "time": 7.027965,
            "velocity": 0.3937007874015748
          },
          {
            "duration": 0.10489499999999996,
            "durationTicks": 96,
            "midi": 35,
            "name": "B1",
            "ticks": 6480,
            "time": 7.0804125,
            "velocity": 0.3937007874015748
          },
          {
            "duration": 0.10489499999999996,
            "durationTicks": 96,
            "midi": 35,
            "name": "B1",
            "ticks": 6528,
            "time": 7.13286,
            "velocity": 0.3937007874015748
          },
          {
            "duration": 0.10489499999999996,
            "durationTicks": 96,
            "midi": 35,
            "name": "B1",
            "ticks": 6576,
            "time": 7.1853075,
            "velocity": 0.3937007874015748
          },
          {
            "duration": 0.10489499999999996,
            "durationTicks": 96,
            "midi": 35,
            "name": "B1",
            "ticks": 6624,
            "time": 7.237755,
            "velocity": 0.3937007874015748
          },
          {
            "duration": 0.10489499999999996,
            "durationTicks": 96,
            "midi": 35,
            "name": "B1",
            "ticks": 6672,
            "time": 7.2902025,
            "velocity": 0.3937007874015748
          },
          {
            "duration": 0.10489499999999996,
            "durationTicks": 96,
            "midi": 35,
            "name": "B1",
            "ticks": 6720,
            "time": 7.34265,
            "velocity": 0.3937007874015748
          },
          {
            "duration": 0.10489499999999996,
            "durationTicks": 96,
            "midi": 35,
            "name": "B1",
            "ticks": 6768,
            "time": 7.3950975,
            "velocity": 0.3937007874015748
          },
          {
            "duration": 0.10489499999999996,
            "durationTicks": 96,
            "midi": 35,
            "name": "B1",
            "ticks": 6816,
            "time": 7.447545,
            "velocity": 0.3937007874015748
          },
          {
            "duration": 0.10489499999999996,
            "durationTicks": 96,
            "midi": 35,
            "name": "B1",
            "ticks": 6864,
            "time": 7.4999925,
            "velocity": 0.3937007874015748
          },
          {
            "duration": 0.10489499999999996,
            "durationTicks": 96,
            "midi": 35,
            "name": "B1",
            "ticks": 6912,
            "time": 7.55244,
            "velocity": 0.3937007874015748
          },
          {
            "duration": 0.10489499999999996,
            "durationTicks": 96,
            "midi": 35,
            "name": "B1",
            "ticks": 6960,
            "time": 7.6048875,
            "velocity": 0.3937007874015748
          },
          {
            "duration": 0.10489499999999996,
            "durationTicks": 96,
            "midi": 35,
            "name": "B1",
            "ticks": 7008,
            "time": 7.657335,
            "velocity": 0.3937007874015748
          },
          {
            "duration": 0.10489499999999996,
            "durationTicks": 96,
            "midi": 35,
            "name": "B1",
            "ticks": 7056,
            "time": 7.7097825,
            "velocity": 0.3937007874015748
          },
          {
            "duration": 0.10489500000000085,
            "durationTicks": 96,
            "midi": 35,
            "name": "B1",
            "ticks": 7104,
            "time": 7.76223,
            "velocity": 0.3937007874015748
          },
          {
            "duration": 0.10489499999999996,
            "durationTicks": 96,
            "midi": 35,
            "name": "B1",
            "ticks": 7152,
            "time": 7.8146775,
            "velocity": 0.3937007874015748
          },
          {
            "duration": 0.10489499999999996,
            "durationTicks": 96,
            "midi": 35,
            "name": "B1",
            "ticks": 7200,
            "time": 7.867125000000001,
            "velocity": 0.3937007874015748
          },
          {
            "duration": 0.10489499999999996,
            "durationTicks": 96,
            "midi": 35,
            "name": "B1",
            "ticks": 7248,
            "time": 7.9195725,
            "velocity": 0.3937007874015748
          },
          {
            "duration": 0.10489499999999907,
            "durationTicks": 96,
            "midi": 35,
            "name": "B1",
            "ticks": 7296,
            "time": 7.9720200000000006,
            "velocity": 0.3937007874015748
          },
          {
            "duration": 0.10489500000000085,
            "durationTicks": 96,
            "midi": 35,
            "name": "B1",
            "ticks": 7344,
            "time": 8.0244675,
            "velocity": 0.3937007874015748
          },
          {
            "duration": 0.10489500000000085,
            "durationTicks": 96,
            "midi": 35,
            "name": "B1",
            "ticks": 7392,
            "time": 8.076915,
            "velocity": 0.3937007874015748
          },
          {
            "duration": 0.10489499999999907,
            "durationTicks": 96,
            "midi": 35,
            "name": "B1",
            "ticks": 7440,
            "time": 8.129362500000001,
            "velocity": 0.3937007874015748
          },
          {
            "duration": 0.10489499999999907,
            "durationTicks": 96,
            "midi": 35,
            "name": "B1",
            "ticks": 7488,
            "time": 8.18181,
            "velocity": 0.3937007874015748
          },
          {
            "duration": 0.10489500000000085,
            "durationTicks": 96,
            "midi": 35,
            "name": "B1",
            "ticks": 7536,
            "time": 8.2342575,
            "velocity": 0.3937007874015748
          },
          {
            "duration": 0.10489500000000085,
            "durationTicks": 96,
            "midi": 35,
            "name": "B1",
            "ticks": 7584,
            "time": 8.286705,
            "velocity": 0.3937007874015748
          },
          {
            "duration": 0.10489499999999907,
            "durationTicks": 96,
            "midi": 35,
            "name": "B1",
            "ticks": 7632,
            "time": 8.3391525,
            "velocity": 0.3937007874015748
          },
          {
            "duration": 0.10489499999999907,
            "durationTicks": 96,
            "midi": 35,
            "name": "B1",
            "ticks": 7680,
            "time": 8.3916,
            "velocity": 0.3937007874015748
          },
          {
            "duration": 0.10489500000000085,
            "durationTicks": 96,
            "midi": 35,
            "name": "B1",
            "ticks": 7728,
            "time": 8.4440475,
            "velocity": 0.3937007874015748
          },
          {
            "duration": 0.10489500000000085,
            "durationTicks": 96,
            "midi": 35,
            "name": "B1",
            "ticks": 7776,
            "time": 8.496495,
            "velocity": 0.3937007874015748
          },
          {
            "duration": 0.10489499999999907,
            "durationTicks": 96,
            "midi": 35,
            "name": "B1",
            "ticks": 7824,
            "time": 8.5489425,
            "velocity": 0.3937007874015748
          },
          {
            "duration": 0.10489499999999907,
            "durationTicks": 96,
            "midi": 35,
            "name": "B1",
            "ticks": 7872,
            "time": 8.60139,
            "velocity": 0.3937007874015748
          },
          {
            "duration": 0.10489500000000085,
            "durationTicks": 96,
            "midi": 35,
            "name": "B1",
            "ticks": 7920,
            "time": 8.6538375,
            "velocity": 0.3937007874015748
          },
          {
            "duration": 0.10489500000000085,
            "durationTicks": 96,
            "midi": 35,
            "name": "B1",
            "ticks": 7968,
            "time": 8.706285,
            "velocity": 0.3937007874015748
          },
          {
            "duration": 0.10489499999999907,
            "durationTicks": 96,
            "midi": 35,
            "name": "B1",
            "ticks": 8016,
            "time": 8.7587325,
            "velocity": 0.3937007874015748
          },
          {
            "duration": 0.10489499999999907,
            "durationTicks": 96,
            "midi": 35,
            "name": "B1",
            "ticks": 8064,
            "time": 8.81118,
            "velocity": 0.3937007874015748
          },
          {
            "duration": 0.10489500000000085,
            "durationTicks": 96,
            "midi": 35,
            "name": "B1",
            "ticks": 8112,
            "time": 8.8636275,
            "velocity": 0.3937007874015748
          },
          {
            "duration": 0.10489500000000085,
            "durationTicks": 96,
            "midi": 35,
            "name": "B1",
            "ticks": 8160,
            "time": 8.916075,
            "velocity": 0.3937007874015748
          },
          {
            "duration": 0.10489499999999907,
            "durationTicks": 96,
            "midi": 35,
            "name": "B1",
            "ticks": 8208,
            "time": 8.9685225,
            "velocity": 0.3937007874015748
          },
          {
            "duration": 0.10489500000000085,
            "durationTicks": 96,
            "midi": 35,
            "name": "B1",
            "ticks": 8256,
            "time": 9.02097,
            "velocity": 0.3937007874015748
          },
          {
            "duration": 0.10489500000000085,
            "durationTicks": 96,
            "midi": 35,
            "name": "B1",
            "ticks": 8304,
            "time": 9.0734175,
            "velocity": 0.3937007874015748
          },
          {
            "duration": 0.10489499999999907,
            "durationTicks": 96,
            "midi": 35,
            "name": "B1",
            "ticks": 8352,
            "time": 9.125865000000001,
            "velocity": 0.3937007874015748
          },
          {
            "duration": 0.10489499999999907,
            "durationTicks": 96,
            "midi": 35,
            "name": "B1",
            "ticks": 8400,
            "time": 9.1783125,
            "velocity": 0.3937007874015748
          },
          {
            "duration": 0.10489500000000085,
            "durationTicks": 96,
            "midi": 35,
            "name": "B1",
            "ticks": 8448,
            "time": 9.23076,
            "velocity": 0.3937007874015748
          },
          {
            "duration": 0.10489500000000085,
            "durationTicks": 96,
            "midi": 35,
            "name": "B1",
            "ticks": 8496,
            "time": 9.2832075,
            "velocity": 0.3937007874015748
          },
          {
            "duration": 0.10489499999999907,
            "durationTicks": 96,
            "midi": 35,
            "name": "B1",
            "ticks": 8544,
            "time": 9.335655000000001,
            "velocity": 0.3937007874015748
          },
          {
            "duration": 0.10489499999999907,
            "durationTicks": 96,
            "midi": 35,
            "name": "B1",
            "ticks": 8592,
            "time": 9.3881025,
            "velocity": 0.3937007874015748
          },
          {
            "duration": 0.10489500000000085,
            "durationTicks": 96,
            "midi": 35,
            "name": "B1",
            "ticks": 8640,
            "time": 9.44055,
            "velocity": 0.3937007874015748
          },
          {
            "duration": 0.10489500000000085,
            "durationTicks": 96,
            "midi": 35,
            "name": "B1",
            "ticks": 8688,
            "time": 9.4929975,
            "velocity": 0.3937007874015748
          },
          {
            "duration": 0.10489499999999907,
            "durationTicks": 96,
            "midi": 35,
            "name": "B1",
            "ticks": 8736,
            "time": 9.545445,
            "velocity": 0.3937007874015748
          },
          {
            "duration": 0.10489499999999907,
            "durationTicks": 96,
            "midi": 35,
            "name": "B1",
            "ticks": 8784,
            "time": 9.5978925,
            "velocity": 0.3937007874015748
          },
          {
            "duration": 0.10489500000000085,
            "durationTicks": 96,
            "midi": 35,
            "name": "B1",
            "ticks": 8832,
            "time": 9.65034,
            "velocity": 0.3937007874015748
          },
          {
            "duration": 0.10489500000000085,
            "durationTicks": 96,
            "midi": 35,
            "name": "B1",
            "ticks": 8880,
            "time": 9.7027875,
            "velocity": 0.3937007874015748
          },
          {
            "duration": 0.10489499999999907,
            "durationTicks": 96,
            "midi": 35,
            "name": "B1",
            "ticks": 8928,
            "time": 9.755235,
            "velocity": 0.3937007874015748
          },
          {
            "duration": 0.10489499999999907,
            "durationTicks": 96,
            "midi": 35,
            "name": "B1",
            "ticks": 8976,
            "time": 9.8076825,
            "velocity": 0.3937007874015748
          },
          {
            "duration": 0.10489500000000085,
            "durationTicks": 96,
            "midi": 35,
            "name": "B1",
            "ticks": 9024,
            "time": 9.86013,
            "velocity": 0.3937007874015748
          },
          {
            "duration": 0.10489500000000085,
            "durationTicks": 96,
            "midi": 35,
            "name": "B1",
            "ticks": 9072,
            "time": 9.9125775,
            "velocity": 0.3937007874015748
          },
          {
            "duration": 0.10489499999999907,
            "durationTicks": 96,
            "midi": 35,
            "name": "B1",
            "ticks": 9120,
            "time": 9.965025,
            "velocity": 0.3937007874015748
          },
          {
            "duration": 0.10489500000000085,
            "durationTicks": 96,
            "midi": 35,
            "name": "B1",
            "ticks": 9168,
            "time": 10.0174725,
            "velocity": 0.3937007874015748
          },
          {
            "duration": 0.10489500000000085,
            "durationTicks": 96,
            "midi": 35,
            "name": "B1",
            "ticks": 9216,
            "time": 10.06992,
            "velocity": 0.3937007874015748
          },
          {
            "duration": 0.10489499999999907,
            "durationTicks": 96,
            "midi": 35,
            "name": "B1",
            "ticks": 9264,
            "time": 10.122367500000001,
            "velocity": 0.3937007874015748
          },
          {
            "duration": 0.10489499999999907,
            "durationTicks": 96,
            "midi": 35,
            "name": "B1",
            "ticks": 9312,
            "time": 10.174815,
            "velocity": 0.3937007874015748
          },
          {
            "duration": 0.10489500000000085,
            "durationTicks": 96,
            "midi": 35,
            "name": "B1",
            "ticks": 9360,
            "time": 10.2272625,
            "velocity": 0.3937007874015748
          },
          {
            "duration": 0.10489500000000085,
            "durationTicks": 96,
            "midi": 35,
            "name": "B1",
            "ticks": 9408,
            "time": 10.27971,
            "velocity": 0.3937007874015748
          },
          {
            "duration": 0.10489499999999907,
            "durationTicks": 96,
            "midi": 35,
            "name": "B1",
            "ticks": 9456,
            "time": 10.332157500000001,
            "velocity": 0.3937007874015748
          },
          {
            "duration": 0.10489499999999907,
            "durationTicks": 96,
            "midi": 35,
            "name": "B1",
            "ticks": 9504,
            "time": 10.384605,
            "velocity": 0.3937007874015748
          },
          {
            "duration": 0.10489500000000085,
            "durationTicks": 96,
            "midi": 35,
            "name": "B1",
            "ticks": 9552,
            "time": 10.4370525,
            "velocity": 0.3937007874015748
          },
          {
            "duration": 0.10489500000000085,
            "durationTicks": 96,
            "midi": 35,
            "name": "B1",
            "ticks": 9600,
            "time": 10.4895,
            "velocity": 0.3937007874015748
          },
          {
            "duration": 0.10489499999999907,
            "durationTicks": 96,
            "midi": 35,
            "name": "B1",
            "ticks": 9648,
            "time": 10.541947500000001,
            "velocity": 0.3937007874015748
          },
          {
            "duration": 0.10489499999999907,
            "durationTicks": 96,
            "midi": 35,
            "name": "B1",
            "ticks": 9696,
            "time": 10.594395,
            "velocity": 0.3937007874015748
          },
          {
            "duration": 0.10489500000000085,
            "durationTicks": 96,
            "midi": 35,
            "name": "B1",
            "ticks": 9744,
            "time": 10.6468425,
            "velocity": 0.3937007874015748
          },
          {
            "duration": 0.10489500000000085,
            "durationTicks": 96,
            "midi": 35,
            "name": "B1",
            "ticks": 9792,
            "time": 10.69929,
            "velocity": 0.3937007874015748
          },
          {
            "duration": 0.10489499999999907,
            "durationTicks": 96,
            "midi": 35,
            "name": "B1",
            "ticks": 9840,
            "time": 10.7517375,
            "velocity": 0.3937007874015748
          },
          {
            "duration": 0.10489499999999907,
            "durationTicks": 96,
            "midi": 35,
            "name": "B1",
            "ticks": 9888,
            "time": 10.804185,
            "velocity": 0.3937007874015748
          },
          {
            "duration": 0.10489500000000085,
            "durationTicks": 96,
            "midi": 35,
            "name": "B1",
            "ticks": 9936,
            "time": 10.8566325,
            "velocity": 0.3937007874015748
          },
          {
            "duration": 0.10489500000000085,
            "durationTicks": 96,
            "midi": 35,
            "name": "B1",
            "ticks": 9984,
            "time": 10.90908,
            "velocity": 0.3937007874015748
          },
          {
            "duration": 0.10489499999999907,
            "durationTicks": 96,
            "midi": 35,
            "name": "B1",
            "ticks": 10032,
            "time": 10.9615275,
            "velocity": 0.3937007874015748
          },
          {
            "duration": 0.10489499999999907,
            "durationTicks": 96,
            "midi": 35,
            "name": "B1",
            "ticks": 10080,
            "time": 11.013975,
            "velocity": 0.3937007874015748
          },
          {
            "duration": 0.10489500000000085,
            "durationTicks": 96,
            "midi": 35,
            "name": "B1",
            "ticks": 10128,
            "time": 11.0664225,
            "velocity": 0.3937007874015748
          },
          {
            "duration": 0.10489500000000085,
            "durationTicks": 96,
            "midi": 35,
            "name": "B1",
            "ticks": 10176,
            "time": 11.11887,
            "velocity": 0.3937007874015748
          },
          {
            "duration": 0.10489499999999907,
            "durationTicks": 96,
            "midi": 35,
            "name": "B1",
            "ticks": 10224,
            "time": 11.1713175,
            "velocity": 0.3937007874015748
          },
          {
            "duration": 0.10489500000000085,
            "durationTicks": 96,
            "midi": 35,
            "name": "B1",
            "ticks": 10272,
            "time": 11.223765,
            "velocity": 0.3937007874015748
          },
          {
            "duration": 0.10489500000000085,
            "durationTicks": 96,
            "midi": 35,
            "name": "B1",
            "ticks": 10320,
            "time": 11.2762125,
            "velocity": 0.3937007874015748
          },
          {
            "duration": 0.10489499999999907,
            "durationTicks": 96,
            "midi": 35,
            "name": "B1",
            "ticks": 10368,
            "time": 11.328660000000001,
            "velocity": 0.3937007874015748
          },
          {
            "duration": 0.10489499999999907,
            "durationTicks": 96,
            "midi": 35,
            "name": "B1",
            "ticks": 10416,
            "time": 11.3811075,
            "velocity": 0.3937007874015748
          },
          {
            "duration": 0.10489500000000085,
            "durationTicks": 96,
            "midi": 35,
            "name": "B1",
            "ticks": 10464,
            "time": 11.433555,
            "velocity": 0.3937007874015748
          },
          {
            "duration": 0.10489500000000085,
            "durationTicks": 96,
            "midi": 35,
            "name": "B1",
            "ticks": 10512,
            "time": 11.4860025,
            "velocity": 0.3937007874015748
          },
          {
            "duration": 0.10489499999999907,
            "durationTicks": 96,
            "midi": 35,
            "name": "B1",
            "ticks": 10560,
            "time": 11.538450000000001,
            "velocity": 0.3937007874015748
          },
          {
            "duration": 0.10489499999999907,
            "durationTicks": 96,
            "midi": 35,
            "name": "B1",
            "ticks": 10608,
            "time": 11.5908975,
            "velocity": 0.3937007874015748
          },
          {
            "duration": 0.10489500000000085,
            "durationTicks": 96,
            "midi": 35,
            "name": "B1",
            "ticks": 10656,
            "time": 11.643345,
            "velocity": 0.3937007874015748
          },
          {
            "duration": 0.10489500000000085,
            "durationTicks": 96,
            "midi": 35,
            "name": "B1",
            "ticks": 10704,
            "time": 11.6957925,
            "velocity": 0.3937007874015748
          },
          {
            "duration": 0.10489499999999907,
            "durationTicks": 96,
            "midi": 35,
            "name": "B1",
            "ticks": 10752,
            "time": 11.748240000000001,
            "velocity": 0.3937007874015748
          },
          {
            "duration": 0.10489499999999907,
            "durationTicks": 96,
            "midi": 35,
            "name": "B1",
            "ticks": 10800,
            "time": 11.8006875,
            "velocity": 0.3937007874015748
          },
          {
            "duration": 0.10489500000000085,
            "durationTicks": 96,
            "midi": 35,
            "name": "B1",
            "ticks": 10848,
            "time": 11.853135,
            "velocity": 0.3937007874015748
          },
          {
            "duration": 0.10489500000000085,
            "durationTicks": 96,
            "midi": 35,
            "name": "B1",
            "ticks": 10896,
            "time": 11.9055825,
            "velocity": 0.3937007874015748
          },
          {
            "duration": 0.10489499999999907,
            "durationTicks": 96,
            "midi": 35,
            "name": "B1",
            "ticks": 10944,
            "time": 11.95803,
            "velocity": 0.3937007874015748
          },
          {
            "duration": 0.10489499999999907,
            "durationTicks": 96,
            "midi": 35,
            "name": "B1",
            "ticks": 10992,
            "time": 12.0104775,
            "velocity": 0.3937007874015748
          },
          {
            "duration": 0.10489500000000085,
            "durationTicks": 96,
            "midi": 35,
            "name": "B1",
            "ticks": 11040,
            "time": 12.062925,
            "velocity": 0.3937007874015748
          },
          {
            "duration": 0.10489500000000085,
            "durationTicks": 96,
            "midi": 35,
            "name": "B1",
            "ticks": 11088,
            "time": 12.1153725,
            "velocity": 0.3937007874015748
          },
          {
            "duration": 0.10489499999999907,
            "durationTicks": 96,
            "midi": 35,
            "name": "B1",
            "ticks": 11136,
            "time": 12.16782,
            "velocity": 0.3937007874015748
          },
          {
            "duration": 0.10489500000000085,
            "durationTicks": 96,
            "midi": 35,
            "name": "B1",
            "ticks": 11184,
            "time": 12.2202675,
            "velocity": 0.3937007874015748
          },
          {
            "duration": 0.10489500000000085,
            "durationTicks": 96,
            "midi": 35,
            "name": "B1",
            "ticks": 11232,
            "time": 12.272715,
            "velocity": 0.3937007874015748
          },
          {
            "duration": 0.10489499999999907,
            "durationTicks": 96,
            "midi": 35,
            "name": "B1",
            "ticks": 11280,
            "time": 12.325162500000001,
            "velocity": 0.3937007874015748
          },
          {
            "duration": 0.10489499999999907,
            "durationTicks": 96,
            "midi": 35,
            "name": "B1",
            "ticks": 11328,
            "time": 12.37761,
            "velocity": 0.3937007874015748
          },
          {
            "duration": 0.10489500000000085,
            "durationTicks": 96,
            "midi": 35,
            "name": "B1",
            "ticks": 11376,
            "time": 12.4300575,
            "velocity": 0.3937007874015748
          },
          {
            "duration": 0.10489500000000085,
            "durationTicks": 96,
            "midi": 35,
            "name": "B1",
            "ticks": 11424,
            "time": 12.482505,
            "velocity": 0.3937007874015748
          },
          {
            "duration": 0.10489499999999907,
            "durationTicks": 96,
            "midi": 35,
            "name": "B1",
            "ticks": 11472,
            "time": 12.534952500000001,
            "velocity": 0.3937007874015748
          },
          {
            "duration": 0.10489499999999907,
            "durationTicks": 96,
            "midi": 35,
            "name": "B1",
            "ticks": 11520,
            "time": 12.5874,
            "velocity": 0.3937007874015748
          },
          {
            "duration": 0.10489500000000085,
            "durationTicks": 96,
            "midi": 35,
            "name": "B1",
            "ticks": 11568,
            "time": 12.6398475,
            "velocity": 0.3937007874015748
          },
          {
            "duration": 0.10489500000000085,
            "durationTicks": 96,
            "midi": 35,
            "name": "B1",
            "ticks": 11616,
            "time": 12.692295,
            "velocity": 0.3937007874015748
          },
          {
            "duration": 0.10489499999999907,
            "durationTicks": 96,
            "midi": 35,
            "name": "B1",
            "ticks": 11664,
            "time": 12.744742500000001,
            "velocity": 0.3937007874015748
          },
          {
            "duration": 0.10489499999999907,
            "durationTicks": 96,
            "midi": 35,
            "name": "B1",
            "ticks": 11712,
            "time": 12.79719,
            "velocity": 0.3937007874015748
          },
          {
            "duration": 0.10489500000000085,
            "durationTicks": 96,
            "midi": 35,
            "name": "B1",
            "ticks": 11760,
            "time": 12.8496375,
            "velocity": 0.3937007874015748
          },
          {
            "duration": 0.10489500000000085,
            "durationTicks": 96,
            "midi": 35,
            "name": "B1",
            "ticks": 11808,
            "time": 12.902085,
            "velocity": 0.3937007874015748
          },
          {
            "duration": 0.10489499999999907,
            "durationTicks": 96,
            "midi": 35,
            "name": "B1",
            "ticks": 11856,
            "time": 12.954532500000001,
            "velocity": 0.3937007874015748
          },
          {
            "duration": 0.10489499999999907,
            "durationTicks": 96,
            "midi": 35,
            "name": "B1",
            "ticks": 11904,
            "time": 13.00698,
            "velocity": 0.3937007874015748
          },
          {
            "duration": 0.10489500000000085,
            "durationTicks": 96,
            "midi": 35,
            "name": "B1",
            "ticks": 11952,
            "time": 13.0594275,
            "velocity": 0.3937007874015748
          },
          {
            "duration": 0.10489500000000085,
            "durationTicks": 96,
            "midi": 35,
            "name": "B1",
            "ticks": 12000,
            "time": 13.111875,
            "velocity": 0.3937007874015748
          },
          {
            "duration": 0.10489499999999907,
            "durationTicks": 96,
            "midi": 35,
            "name": "B1",
            "ticks": 12048,
            "time": 13.1643225,
            "velocity": 0.3937007874015748
          },
          {
            "duration": 0.10489499999999907,
            "durationTicks": 96,
            "midi": 35,
            "name": "B1",
            "ticks": 12096,
            "time": 13.21677,
            "velocity": 0.3937007874015748
          },
          {
            "duration": 0.10489500000000085,
            "durationTicks": 96,
            "midi": 35,
            "name": "B1",
            "ticks": 12144,
            "time": 13.2692175,
            "velocity": 0.3937007874015748
          },
          {
            "duration": 0.10489500000000085,
            "durationTicks": 96,
            "midi": 35,
            "name": "B1",
            "ticks": 12192,
            "time": 13.321665,
            "velocity": 0.3937007874015748
          },
          {
            "duration": 0.10489499999999907,
            "durationTicks": 96,
            "midi": 35,
            "name": "B1",
            "ticks": 12240,
            "time": 13.3741125,
            "velocity": 0.3937007874015748
          },
          {
            "duration": 0.10489500000000085,
            "durationTicks": 96,
            "midi": 35,
            "name": "B1",
            "ticks": 12288,
            "time": 13.42656,
            "velocity": 0.3937007874015748
          },
          {
            "duration": 0.6293699999999998,
            "durationTicks": 576,
            "midi": 50,
            "name": "D3",
            "ticks": 12288,
            "time": 13.42656,
            "velocity": 0.3937007874015748
          },
          {
            "duration": 0.10489500000000085,
            "durationTicks": 96,
            "midi": 35,
            "name": "B1",
            "ticks": 12336,
            "time": 13.4790075,
            "velocity": 0.3937007874015748
          },
          {
            "duration": 0.10489499999999907,
            "durationTicks": 96,
            "midi": 35,
            "name": "B1",
            "ticks": 12384,
            "time": 13.531455000000001,
            "velocity": 0.3937007874015748
          },
          {
            "duration": 0.10489499999999907,
            "durationTicks": 96,
            "midi": 35,
            "name": "B1",
            "ticks": 12432,
            "time": 13.5839025,
            "velocity": 0.3937007874015748
          },
          {
            "duration": 0.10489500000000085,
            "durationTicks": 96,
            "midi": 35,
            "name": "B1",
            "ticks": 12480,
            "time": 13.63635,
            "velocity": 0.3937007874015748
          },
          {
            "duration": 0.10489500000000085,
            "durationTicks": 96,
            "midi": 35,
            "name": "B1",
            "ticks": 12528,
            "time": 13.6887975,
            "velocity": 0.3937007874015748
          },
          {
            "duration": 0.10489499999999907,
            "durationTicks": 96,
            "midi": 35,
            "name": "B1",
            "ticks": 12576,
            "time": 13.741245000000001,
            "velocity": 0.3937007874015748
          },
          {
            "duration": 0.10489499999999907,
            "durationTicks": 96,
            "midi": 35,
            "name": "B1",
            "ticks": 12624,
            "time": 13.7936925,
            "velocity": 0.3937007874015748
          },
          {
            "duration": 0.10489500000000085,
            "durationTicks": 96,
            "midi": 35,
            "name": "B1",
            "ticks": 12672,
            "time": 13.84614,
            "velocity": 0.3937007874015748
          },
          {
            "duration": 0.10489500000000085,
            "durationTicks": 96,
            "midi": 35,
            "name": "B1",
            "ticks": 12720,
            "time": 13.8985875,
            "velocity": 0.3937007874015748
          },
          {
            "duration": 0.10489499999999907,
            "durationTicks": 96,
            "midi": 35,
            "name": "B1",
            "ticks": 12768,
            "time": 13.951035000000001,
            "velocity": 0.3937007874015748
          },
          {
            "duration": 0.10489499999999907,
            "durationTicks": 96,
            "midi": 35,
            "name": "B1",
            "ticks": 12816,
            "time": 14.0034825,
            "velocity": 0.3937007874015748
          },
          {
            "duration": 0.10489500000000085,
            "durationTicks": 96,
            "midi": 35,
            "name": "B1",
            "ticks": 12864,
            "time": 14.05593,
            "velocity": 0.3937007874015748
          },
          {
            "duration": 0.41957999999999984,
            "durationTicks": 384,
            "midi": 62,
            "name": "D4",
            "ticks": 12864,
            "time": 14.05593,
            "velocity": 0.3937007874015748
          },
          {
            "duration": 0.10489500000000085,
            "durationTicks": 96,
            "midi": 35,
            "name": "B1",
            "ticks": 12912,
            "time": 14.1083775,
            "velocity": 0.3937007874015748
          },
          {
            "duration": 0.10489499999999907,
            "durationTicks": 96,
            "midi": 35,
            "name": "B1",
            "ticks": 12960,
            "time": 14.160825,
            "velocity": 0.3937007874015748
          },
          {
            "duration": 0.10489499999999907,
            "durationTicks": 96,
            "midi": 35,
            "name": "B1",
            "ticks": 13008,
            "time": 14.2132725,
            "velocity": 0.3937007874015748
          },
          {
            "duration": 0.10489500000000085,
            "durationTicks": 96,
            "midi": 35,
            "name": "B1",
            "ticks": 13056,
            "time": 14.26572,
            "velocity": 0.3937007874015748
          },
          {
            "duration": 0.10489500000000085,
            "durationTicks": 96,
            "midi": 35,
            "name": "B1",
            "ticks": 13104,
            "time": 14.3181675,
            "velocity": 0.3937007874015748
          },
          {
            "duration": 0.10489499999999907,
            "durationTicks": 96,
            "midi": 35,
            "name": "B1",
            "ticks": 13152,
            "time": 14.370615,
            "velocity": 0.3937007874015748
          },
          {
            "duration": 0.10489499999999907,
            "durationTicks": 96,
            "midi": 35,
            "name": "B1",
            "ticks": 13200,
            "time": 14.4230625,
            "velocity": 0.3937007874015748
          },
          {
            "duration": 0.41957999999999984,
            "durationTicks": 384,
            "midi": 60,
            "name": "C4",
            "ticks": 13248,
            "time": 14.47551,
            "velocity": 0.3937007874015748
          },
          {
            "duration": 0.10489500000000085,
            "durationTicks": 96,
            "midi": 35,
            "name": "B1",
            "ticks": 13248,
            "time": 14.47551,
            "velocity": 0.3937007874015748
          },
          {
            "duration": 0.10489500000000085,
            "durationTicks": 96,
            "midi": 35,
            "name": "B1",
            "ticks": 13296,
            "time": 14.5279575,
            "velocity": 0.3937007874015748
          },
          {
            "duration": 0.10489499999999907,
            "durationTicks": 96,
            "midi": 35,
            "name": "B1",
            "ticks": 13344,
            "time": 14.580405,
            "velocity": 0.3937007874015748
          },
          {
            "duration": 0.10489500000000085,
            "durationTicks": 96,
            "midi": 35,
            "name": "B1",
            "ticks": 13392,
            "time": 14.6328525,
            "velocity": 0.3937007874015748
          },
          {
            "duration": 0.10489500000000085,
            "durationTicks": 96,
            "midi": 35,
            "name": "B1",
            "ticks": 13440,
            "time": 14.6853,
            "velocity": 0.3937007874015748
          },
          {
            "duration": 0.10489499999999907,
            "durationTicks": 96,
            "midi": 35,
            "name": "B1",
            "ticks": 13488,
            "time": 14.737747500000001,
            "velocity": 0.3937007874015748
          },
          {
            "duration": 0.10489499999999907,
            "durationTicks": 96,
            "midi": 35,
            "name": "B1",
            "ticks": 13536,
            "time": 14.790195,
            "velocity": 0.3937007874015748
          },
          {
            "duration": 0.10489500000000085,
            "durationTicks": 96,
            "midi": 35,
            "name": "B1",
            "ticks": 13584,
            "time": 14.8426425,
            "velocity": 0.3937007874015748
          },
          {
            "duration": 0.10489500000000085,
            "durationTicks": 96,
            "midi": 35,
            "name": "B1",
            "ticks": 13632,
            "time": 14.89509,
            "velocity": 0.3937007874015748
          },
          {
            "duration": 0.20978999999999992,
            "durationTicks": 192,
            "midi": 62,
            "name": "D4",
            "ticks": 13632,
            "time": 14.89509,
            "velocity": 0.3937007874015748
          },
          {
            "duration": 0.10489499999999907,
            "durationTicks": 96,
            "midi": 35,
            "name": "B1",
            "ticks": 13680,
            "time": 14.947537500000001,
            "velocity": 0.3937007874015748
          },
          {
            "duration": 0.10489499999999907,
            "durationTicks": 96,
            "midi": 35,
            "name": "B1",
            "ticks": 13728,
            "time": 14.999985,
            "velocity": 0.3937007874015748
          },
          {
            "duration": 0.10489500000000085,
            "durationTicks": 96,
            "midi": 35,
            "name": "B1",
            "ticks": 13776,
            "time": 15.0524325,
            "velocity": 0.3937007874015748
          },
          {
            "duration": 0.6293700000000015,
            "durationTicks": 576,
            "midi": 50,
            "name": "D3",
            "ticks": 13824,
            "time": 15.10488,
            "velocity": 0.3937007874015748
          },
          {
            "duration": 0.10489500000000085,
            "durationTicks": 96,
            "midi": 35,
            "name": "B1",
            "ticks": 13824,
            "time": 15.10488,
            "velocity": 0.3937007874015748
          },
          {
            "duration": 0.10489499999999907,
            "durationTicks": 96,
            "midi": 35,
            "name": "B1",
            "ticks": 13872,
            "time": 15.157327500000001,
            "velocity": 0.3937007874015748
          },
          {
            "duration": 0.10489499999999907,
            "durationTicks": 96,
            "midi": 35,
            "name": "B1",
            "ticks": 13920,
            "time": 15.209775,
            "velocity": 0.3937007874015748
          },
          {
            "duration": 0.10489500000000085,
            "durationTicks": 96,
            "midi": 35,
            "name": "B1",
            "ticks": 13968,
            "time": 15.2622225,
            "velocity": 0.3937007874015748
          },
          {
            "duration": 0.10489500000000085,
            "durationTicks": 96,
            "midi": 35,
            "name": "B1",
            "ticks": 14016,
            "time": 15.31467,
            "velocity": 0.3937007874015748
          },
          {
            "duration": 0.10489499999999907,
            "durationTicks": 96,
            "midi": 35,
            "name": "B1",
            "ticks": 14064,
            "time": 15.3671175,
            "velocity": 0.3937007874015748
          },
          {
            "duration": 0.10489499999999907,
            "durationTicks": 96,
            "midi": 35,
            "name": "B1",
            "ticks": 14112,
            "time": 15.419565,
            "velocity": 0.3937007874015748
          },
          {
            "duration": 0.10489500000000085,
            "durationTicks": 96,
            "midi": 35,
            "name": "B1",
            "ticks": 14160,
            "time": 15.4720125,
            "velocity": 0.3937007874015748
          },
          {
            "duration": 0.10489500000000085,
            "durationTicks": 96,
            "midi": 35,
            "name": "B1",
            "ticks": 14208,
            "time": 15.52446,
            "velocity": 0.3937007874015748
          },
          {
            "duration": 0.10489499999999907,
            "durationTicks": 96,
            "midi": 35,
            "name": "B1",
            "ticks": 14256,
            "time": 15.5769075,
            "velocity": 0.3937007874015748
          },
          {
            "duration": 0.10489500000000085,
            "durationTicks": 96,
            "midi": 35,
            "name": "B1",
            "ticks": 14304,
            "time": 15.629355,
            "velocity": 0.3937007874015748
          },
          {
            "duration": 0.10489500000000085,
            "durationTicks": 96,
            "midi": 35,
            "name": "B1",
            "ticks": 14352,
            "time": 15.6818025,
            "velocity": 0.3937007874015748
          },
          {
            "duration": 0.41957999999999807,
            "durationTicks": 384,
            "midi": 62,
            "name": "D4",
            "ticks": 14400,
            "time": 15.734250000000001,
            "velocity": 0.3937007874015748
          },
          {
            "duration": 0.10489499999999907,
            "durationTicks": 96,
            "midi": 35,
            "name": "B1",
            "ticks": 14400,
            "time": 15.734250000000001,
            "velocity": 0.3937007874015748
          },
          {
            "duration": 0.10489499999999907,
            "durationTicks": 96,
            "midi": 35,
            "name": "B1",
            "ticks": 14448,
            "time": 15.7866975,
            "velocity": 0.3937007874015748
          },
          {
            "duration": 0.10489500000000085,
            "durationTicks": 96,
            "midi": 35,
            "name": "B1",
            "ticks": 14496,
            "time": 15.839145,
            "velocity": 0.3937007874015748
          },
          {
            "duration": 0.10489500000000085,
            "durationTicks": 96,
            "midi": 35,
            "name": "B1",
            "ticks": 14544,
            "time": 15.8915925,
            "velocity": 0.3937007874015748
          },
          {
            "duration": 0.10489499999999907,
            "durationTicks": 96,
            "midi": 35,
            "name": "B1",
            "ticks": 14592,
            "time": 15.944040000000001,
            "velocity": 0.3937007874015748
          },
          {
            "duration": 0.10489499999999907,
            "durationTicks": 96,
            "midi": 35,
            "name": "B1",
            "ticks": 14640,
            "time": 15.9964875,
            "velocity": 0.3937007874015748
          },
          {
            "duration": 0.10489499999999907,
            "durationTicks": 96,
            "midi": 35,
            "name": "B1",
            "ticks": 14688,
            "time": 16.048935,
            "velocity": 0.3937007874015748
          },
          {
            "duration": 0.10489499999999907,
            "durationTicks": 96,
            "midi": 35,
            "name": "B1",
            "ticks": 14736,
            "time": 16.1013825,
            "velocity": 0.3937007874015748
          },
          {
            "duration": 0.10489500000000263,
            "durationTicks": 96,
            "midi": 35,
            "name": "B1",
            "ticks": 14784,
            "time": 16.15383,
            "velocity": 0.3937007874015748
          },
          {
            "duration": 0.41957999999999984,
            "durationTicks": 384,
            "midi": 60,
            "name": "C4",
            "ticks": 14784,
            "time": 16.15383,
            "velocity": 0.3937007874015748
          },
          {
            "duration": 0.10489500000000263,
            "durationTicks": 96,
            "midi": 35,
            "name": "B1",
            "ticks": 14832,
            "time": 16.2062775,
            "velocity": 0.3937007874015748
          },
          {
            "duration": 0.10489499999999907,
            "durationTicks": 96,
            "midi": 35,
            "name": "B1",
            "ticks": 14880,
            "time": 16.258725000000002,
            "velocity": 0.3937007874015748
          },
          {
            "duration": 0.10489499999999907,
            "durationTicks": 96,
            "midi": 35,
            "name": "B1",
            "ticks": 14928,
            "time": 16.3111725,
            "velocity": 0.3937007874015748
          },
          {
            "duration": 0.10489499999999907,
            "durationTicks": 96,
            "midi": 35,
            "name": "B1",
            "ticks": 14976,
            "time": 16.36362,
            "velocity": 0.3937007874015748
          },
          {
            "duration": 0.10489499999999907,
            "durationTicks": 96,
            "midi": 35,
            "name": "B1",
            "ticks": 15024,
            "time": 16.4160675,
            "velocity": 0.3937007874015748
          },
          {
            "duration": 0.10489499999999907,
            "durationTicks": 96,
            "midi": 35,
            "name": "B1",
            "ticks": 15072,
            "time": 16.468515,
            "velocity": 0.3937007874015748
          },
          {
            "duration": 0.10489499999999907,
            "durationTicks": 96,
            "midi": 35,
            "name": "B1",
            "ticks": 15120,
            "time": 16.5209625,
            "velocity": 0.3937007874015748
          },
          {
            "duration": 0.10489500000000263,
            "durationTicks": 96,
            "midi": 35,
            "name": "B1",
            "ticks": 15168,
            "time": 16.57341,
            "velocity": 0.3937007874015748
          },
          {
            "duration": 0.2097900000000017,
            "durationTicks": 192,
            "midi": 55,
            "name": "G3",
            "ticks": 15168,
            "time": 16.57341,
            "velocity": 0.3937007874015748
          },
          {
            "duration": 0.10489500000000263,
            "durationTicks": 96,
            "midi": 35,
            "name": "B1",
            "ticks": 15216,
            "time": 16.6258575,
            "velocity": 0.3937007874015748
          },
          {
            "duration": 0.10489499999999907,
            "durationTicks": 96,
            "midi": 35,
            "name": "B1",
            "ticks": 15264,
            "time": 16.678305,
            "velocity": 0.3937007874015748
          },
          {
            "duration": 0.10489499999999907,
            "durationTicks": 96,
            "midi": 35,
            "name": "B1",
            "ticks": 15312,
            "time": 16.7307525,
            "velocity": 0.3937007874015748
          },
          {
            "duration": 0.10489499999999907,
            "durationTicks": 96,
            "midi": 35,
            "name": "B1",
            "ticks": 15360,
            "time": 16.7832,
            "velocity": 0.3937007874015748
          },
          {
            "duration": 0.629369999999998,
            "durationTicks": 576,
            "midi": 51,
            "name": "D#3",
            "ticks": 15360,
            "time": 16.7832,
            "velocity": 0.3937007874015748
          },
          {
            "duration": 0.10489499999999907,
            "durationTicks": 96,
            "midi": 35,
            "name": "B1",
            "ticks": 15408,
            "time": 16.8356475,
            "velocity": 0.3937007874015748
          },
          {
            "duration": 0.10489499999999907,
            "durationTicks": 96,
            "midi": 35,
            "name": "B1",
            "ticks": 15456,
            "time": 16.888095,
            "velocity": 0.3937007874015748
          },
          {
            "duration": 0.10489500000000263,
            "durationTicks": 96,
            "midi": 35,
            "name": "B1",
            "ticks": 15504,
            "time": 16.9405425,
            "velocity": 0.3937007874015748
          },
          {
            "duration": 0.10489500000000263,
            "durationTicks": 96,
            "midi": 35,
            "name": "B1",
            "ticks": 15552,
            "time": 16.99299,
            "velocity": 0.3937007874015748
          },
          {
            "duration": 0.10489499999999907,
            "durationTicks": 96,
            "midi": 35,
            "name": "B1",
            "ticks": 15600,
            "time": 17.045437500000002,
            "velocity": 0.3937007874015748
          },
          {
            "duration": 0.10489499999999907,
            "durationTicks": 96,
            "midi": 35,
            "name": "B1",
            "ticks": 15648,
            "time": 17.097885,
            "velocity": 0.3937007874015748
          },
          {
            "duration": 0.10489499999999907,
            "durationTicks": 96,
            "midi": 35,
            "name": "B1",
            "ticks": 15696,
            "time": 17.1503325,
            "velocity": 0.3937007874015748
          },
          {
            "duration": 0.10489499999999907,
            "durationTicks": 96,
            "midi": 35,
            "name": "B1",
            "ticks": 15744,
            "time": 17.20278,
            "velocity": 0.3937007874015748
          },
          {
            "duration": 0.10489499999999907,
            "durationTicks": 96,
            "midi": 35,
            "name": "B1",
            "ticks": 15792,
            "time": 17.2552275,
            "velocity": 0.3937007874015748
          },
          {
            "duration": 0.10489499999999907,
            "durationTicks": 96,
            "midi": 35,
            "name": "B1",
            "ticks": 15840,
            "time": 17.307675,
            "velocity": 0.3937007874015748
          },
          {
            "duration": 0.10489500000000263,
            "durationTicks": 96,
            "midi": 35,
            "name": "B1",
            "ticks": 15888,
            "time": 17.3601225,
            "velocity": 0.3937007874015748
          },
          {
            "duration": 0.41957999999999984,
            "durationTicks": 384,
            "midi": 63,
            "name": "D#4",
            "ticks": 15936,
            "time": 17.41257,
            "velocity": 0.3937007874015748
          },
          {
            "duration": 0.10489500000000263,
            "durationTicks": 96,
            "midi": 35,
            "name": "B1",
            "ticks": 15936,
            "time": 17.41257,
            "velocity": 0.3937007874015748
          },
          {
            "duration": 0.10489499999999907,
            "durationTicks": 96,
            "midi": 35,
            "name": "B1",
            "ticks": 15984,
            "time": 17.465017500000002,
            "velocity": 0.3937007874015748
          },
          {
            "duration": 0.10489499999999907,
            "durationTicks": 96,
            "midi": 35,
            "name": "B1",
            "ticks": 16032,
            "time": 17.517465,
            "velocity": 0.3937007874015748
          },
          {
            "duration": 0.10489499999999907,
            "durationTicks": 96,
            "midi": 35,
            "name": "B1",
            "ticks": 16080,
            "time": 17.5699125,
            "velocity": 0.3937007874015748
          },
          {
            "duration": 0.10489499999999907,
            "durationTicks": 96,
            "midi": 35,
            "name": "B1",
            "ticks": 16128,
            "time": 17.62236,
            "velocity": 0.3937007874015748
          },
          {
            "duration": 0.10489499999999907,
            "durationTicks": 96,
            "midi": 35,
            "name": "B1",
            "ticks": 16176,
            "time": 17.6748075,
            "velocity": 0.3937007874015748
          },
          {
            "duration": 0.10489499999999907,
            "durationTicks": 96,
            "midi": 35,
            "name": "B1",
            "ticks": 16224,
            "time": 17.727255,
            "velocity": 0.3937007874015748
          },
          {
            "duration": 0.10489500000000263,
            "durationTicks": 96,
            "midi": 35,
            "name": "B1",
            "ticks": 16272,
            "time": 17.7797025,
            "velocity": 0.3937007874015748
          },
          {
            "duration": 0.10489500000000263,
            "durationTicks": 96,
            "midi": 35,
            "name": "B1",
            "ticks": 16320,
            "time": 17.83215,
            "velocity": 0.3937007874015748
          },
          {
            "duration": 0.4195800000000034,
            "durationTicks": 384,
            "midi": 61,
            "name": "C#4",
            "ticks": 16320,
            "time": 17.83215,
            "velocity": 0.3937007874015748
          },
          {
            "duration": 0.10489499999999907,
            "durationTicks": 96,
            "midi": 35,
            "name": "B1",
            "ticks": 16368,
            "time": 17.8845975,
            "velocity": 0.3937007874015748
          },
          {
            "duration": 0.10489499999999907,
            "durationTicks": 96,
            "midi": 35,
            "name": "B1",
            "ticks": 16416,
            "time": 17.937045,
            "velocity": 0.3937007874015748
          },
          {
            "duration": 0.10489499999999907,
            "durationTicks": 96,
            "midi": 35,
            "name": "B1",
            "ticks": 16464,
            "time": 17.9894925,
            "velocity": 0.3937007874015748
          },
          {
            "duration": 0.10489499999999907,
            "durationTicks": 96,
            "midi": 35,
            "name": "B1",
            "ticks": 16512,
            "time": 18.04194,
            "velocity": 0.3937007874015748
          },
          {
            "duration": 0.10489499999999907,
            "durationTicks": 96,
            "midi": 35,
            "name": "B1",
            "ticks": 16560,
            "time": 18.0943875,
            "velocity": 0.3937007874015748
          },
          {
            "duration": 0.10489500000000263,
            "durationTicks": 96,
            "midi": 35,
            "name": "B1",
            "ticks": 16608,
            "time": 18.146835,
            "velocity": 0.3937007874015748
          },
          {
            "duration": 0.10489500000000263,
            "durationTicks": 96,
            "midi": 35,
            "name": "B1",
            "ticks": 16656,
            "time": 18.1992825,
            "velocity": 0.3937007874015748
          },
          {
            "duration": 0.10489499999999907,
            "durationTicks": 96,
            "midi": 35,
            "name": "B1",
            "ticks": 16704,
            "time": 18.251730000000002,
            "velocity": 0.3937007874015748
          },
          {
            "duration": 0.20978999999999814,
            "durationTicks": 192,
            "midi": 63,
            "name": "D#4",
            "ticks": 16704,
            "time": 18.251730000000002,
            "velocity": 0.3937007874015748
          },
          {
            "duration": 0.10489499999999907,
            "durationTicks": 96,
            "midi": 35,
            "name": "B1",
            "ticks": 16752,
            "time": 18.3041775,
            "velocity": 0.3937007874015748
          },
          {
            "duration": 0.10489499999999907,
            "durationTicks": 96,
            "midi": 35,
            "name": "B1",
            "ticks": 16800,
            "time": 18.356625,
            "velocity": 0.3937007874015748
          },
          {
            "duration": 0.10489499999999907,
            "durationTicks": 96,
            "midi": 35,
            "name": "B1",
            "ticks": 16848,
            "time": 18.4090725,
            "velocity": 0.3937007874015748
          },
          {
            "duration": 0.10489499999999907,
            "durationTicks": 96,
            "midi": 35,
            "name": "B1",
            "ticks": 16896,
            "time": 18.46152,
            "velocity": 0.3937007874015748
          },
          {
            "duration": 0.6293700000000015,
            "durationTicks": 576,
            "midi": 51,
            "name": "D#3",
            "ticks": 16896,
            "time": 18.46152,
            "velocity": 0.3937007874015748
          },
          {
            "duration": 0.10489499999999907,
            "durationTicks": 96,
            "midi": 35,
            "name": "B1",
            "ticks": 16944,
            "time": 18.5139675,
            "velocity": 0.3937007874015748
          },
          {
            "duration": 0.10489500000000263,
            "durationTicks": 96,
            "midi": 35,
            "name": "B1",
            "ticks": 16992,
            "time": 18.566415,
            "velocity": 0.3937007874015748
          },
          {
            "duration": 0.10489500000000263,
            "durationTicks": 96,
            "midi": 35,
            "name": "B1",
            "ticks": 17040,
            "time": 18.6188625,
            "velocity": 0.3937007874015748
          },
          {
            "duration": 0.10489499999999907,
            "durationTicks": 96,
            "midi": 35,
            "name": "B1",
            "ticks": 17088,
            "time": 18.671310000000002,
            "velocity": 0.3937007874015748
          },
          {
            "duration": 0.10489499999999907,
            "durationTicks": 96,
            "midi": 35,
            "name": "B1",
            "ticks": 17136,
            "time": 18.7237575,
            "velocity": 0.3937007874015748
          },
          {
            "duration": 0.10489499999999907,
            "durationTicks": 96,
            "midi": 35,
            "name": "B1",
            "ticks": 17184,
            "time": 18.776205,
            "velocity": 0.3937007874015748
          },
          {
            "duration": 0.10489499999999907,
            "durationTicks": 96,
            "midi": 35,
            "name": "B1",
            "ticks": 17232,
            "time": 18.8286525,
            "velocity": 0.3937007874015748
          },
          {
            "duration": 0.10489499999999907,
            "durationTicks": 96,
            "midi": 35,
            "name": "B1",
            "ticks": 17280,
            "time": 18.8811,
            "velocity": 0.3937007874015748
          },
          {
            "duration": 0.10489500000000263,
            "durationTicks": 96,
            "midi": 35,
            "name": "B1",
            "ticks": 17328,
            "time": 18.9335475,
            "velocity": 0.3937007874015748
          },
          {
            "duration": 0.10489500000000263,
            "durationTicks": 96,
            "midi": 35,
            "name": "B1",
            "ticks": 17376,
            "time": 18.985995,
            "velocity": 0.3937007874015748
          },
          {
            "duration": 0.10489499999999907,
            "durationTicks": 96,
            "midi": 35,
            "name": "B1",
            "ticks": 17424,
            "time": 19.038442500000002,
            "velocity": 0.3937007874015748
          },
          {
            "duration": 0.41957999999999984,
            "durationTicks": 384,
            "midi": 63,
            "name": "D#4",
            "ticks": 17472,
            "time": 19.09089,
            "velocity": 0.3937007874015748
          },
          {
            "duration": 0.10489499999999907,
            "durationTicks": 96,
            "midi": 35,
            "name": "B1",
            "ticks": 17472,
            "time": 19.09089,
            "velocity": 0.3937007874015748
          },
          {
            "duration": 0.10489499999999907,
            "durationTicks": 96,
            "midi": 35,
            "name": "B1",
            "ticks": 17520,
            "time": 19.1433375,
            "velocity": 0.3937007874015748
          },
          {
            "duration": 0.10489499999999907,
            "durationTicks": 96,
            "midi": 35,
            "name": "B1",
            "ticks": 17568,
            "time": 19.195785,
            "velocity": 0.3937007874015748
          },
          {
            "duration": 0.10489499999999907,
            "durationTicks": 96,
            "midi": 35,
            "name": "B1",
            "ticks": 17616,
            "time": 19.2482325,
            "velocity": 0.3937007874015748
          },
          {
            "duration": 0.10489499999999907,
            "durationTicks": 96,
            "midi": 35,
            "name": "B1",
            "ticks": 17664,
            "time": 19.30068,
            "velocity": 0.3937007874015748
          },
          {
            "duration": 0.10489500000000263,
            "durationTicks": 96,
            "midi": 35,
            "name": "B1",
            "ticks": 17712,
            "time": 19.3531275,
            "velocity": 0.3937007874015748
          },
          {
            "duration": 0.10489500000000263,
            "durationTicks": 96,
            "midi": 35,
            "name": "B1",
            "ticks": 17760,
            "time": 19.405575,
            "velocity": 0.3937007874015748
          },
          {
            "duration": 0.10489499999999907,
            "durationTicks": 96,
            "midi": 35,
            "name": "B1",
            "ticks": 17808,
            "time": 19.458022500000002,
            "velocity": 0.3937007874015748
          },
          {
            "duration": 0.41957999999999984,
            "durationTicks": 384,
            "midi": 61,
            "name": "C#4",
            "ticks": 17856,
            "time": 19.51047,
            "velocity": 0.3937007874015748
          },
          {
            "duration": 0.10489499999999907,
            "durationTicks": 96,
            "midi": 35,
            "name": "B1",
            "ticks": 17856,
            "time": 19.51047,
            "velocity": 0.3937007874015748
          },
          {
            "duration": 0.10489499999999907,
            "durationTicks": 96,
            "midi": 35,
            "name": "B1",
            "ticks": 17904,
            "time": 19.5629175,
            "velocity": 0.3937007874015748
          },
          {
            "duration": 0.10489499999999907,
            "durationTicks": 96,
            "midi": 35,
            "name": "B1",
            "ticks": 17952,
            "time": 19.615365,
            "velocity": 0.3937007874015748
          },
          {
            "duration": 0.10489499999999907,
            "durationTicks": 96,
            "midi": 35,
            "name": "B1",
            "ticks": 18000,
            "time": 19.6678125,
            "velocity": 0.3937007874015748
          },
          {
            "duration": 0.10489499999999907,
            "durationTicks": 96,
            "midi": 35,
            "name": "B1",
            "ticks": 18048,
            "time": 19.72026,
            "velocity": 0.3937007874015748
          },
          {
            "duration": 0.10489500000000263,
            "durationTicks": 96,
            "midi": 35,
            "name": "B1",
            "ticks": 18096,
            "time": 19.7727075,
            "velocity": 0.3937007874015748
          },
          {
            "duration": 0.10489500000000263,
            "durationTicks": 96,
            "midi": 35,
            "name": "B1",
            "ticks": 18144,
            "time": 19.825155,
            "velocity": 0.3937007874015748
          },
          {
            "duration": 0.10489499999999907,
            "durationTicks": 96,
            "midi": 35,
            "name": "B1",
            "ticks": 18192,
            "time": 19.877602500000002,
            "velocity": 0.3937007874015748
          },
          {
            "duration": 0.20978999999999814,
            "durationTicks": 192,
            "midi": 56,
            "name": "G#3",
            "ticks": 18240,
            "time": 19.93005,
            "velocity": 0.3937007874015748
          },
          {
            "duration": 0.10489499999999907,
            "durationTicks": 96,
            "midi": 35,
            "name": "B1",
            "ticks": 18240,
            "time": 19.93005,
            "velocity": 0.3937007874015748
          },
          {
            "duration": 0.10489499999999907,
            "durationTicks": 96,
            "midi": 35,
            "name": "B1",
            "ticks": 18288,
            "time": 19.9824975,
            "velocity": 0.3937007874015748
          },
          {
            "duration": 0.10489499999999907,
            "durationTicks": 96,
            "midi": 35,
            "name": "B1",
            "ticks": 18336,
            "time": 20.034945,
            "velocity": 0.3937007874015748
          },
          {
            "duration": 0.10489499999999907,
            "durationTicks": 96,
            "midi": 35,
            "name": "B1",
            "ticks": 18384,
            "time": 20.0873925,
            "velocity": 0.3937007874015748
          },
          {
            "duration": 0.10489500000000263,
            "durationTicks": 96,
            "midi": 35,
            "name": "B1",
            "ticks": 18432,
            "time": 20.13984,
            "velocity": 0.3937007874015748
          },
          {
            "duration": 0.6293700000000015,
            "durationTicks": 576,
            "midi": 52,
            "name": "E3",
            "ticks": 18432,
            "time": 20.13984,
            "velocity": 0.3937007874015748
          },
          {
            "duration": 0.10489500000000263,
            "durationTicks": 96,
            "midi": 35,
            "name": "B1",
            "ticks": 18480,
            "time": 20.1922875,
            "velocity": 0.3937007874015748
          },
          {
            "duration": 0.10489499999999907,
            "durationTicks": 96,
            "midi": 35,
            "name": "B1",
            "ticks": 18528,
            "time": 20.244735000000002,
            "velocity": 0.3937007874015748
          },
          {
            "duration": 0.10489499999999907,
            "durationTicks": 96,
            "midi": 35,
            "name": "B1",
            "ticks": 18576,
            "time": 20.2971825,
            "velocity": 0.3937007874015748
          },
          {
            "duration": 0.10489499999999907,
            "durationTicks": 96,
            "midi": 35,
            "name": "B1",
            "ticks": 18624,
            "time": 20.34963,
            "velocity": 0.3937007874015748
          },
          {
            "duration": 0.10489499999999907,
            "durationTicks": 96,
            "midi": 35,
            "name": "B1",
            "ticks": 18672,
            "time": 20.4020775,
            "velocity": 0.3937007874015748
          },
          {
            "duration": 0.10489499999999907,
            "durationTicks": 96,
            "midi": 35,
            "name": "B1",
            "ticks": 18720,
            "time": 20.454525,
            "velocity": 0.3937007874015748
          },
          {
            "duration": 0.10489499999999907,
            "durationTicks": 96,
            "midi": 35,
            "name": "B1",
            "ticks": 18768,
            "time": 20.5069725,
            "velocity": 0.3937007874015748
          },
          {
            "duration": 0.10489500000000263,
            "durationTicks": 96,
            "midi": 35,
            "name": "B1",
            "ticks": 18816,
            "time": 20.55942,
            "velocity": 0.3937007874015748
          },
          {
            "duration": 0.10489500000000263,
            "durationTicks": 96,
            "midi": 35,
            "name": "B1",
            "ticks": 18864,
            "time": 20.6118675,
            "velocity": 0.3937007874015748
          },
          {
            "duration": 0.10489499999999907,
            "durationTicks": 96,
            "midi": 35,
            "name": "B1",
            "ticks": 18912,
            "time": 20.664315000000002,
            "velocity": 0.3937007874015748
          },
          {
            "duration": 0.10489499999999907,
            "durationTicks": 96,
            "midi": 35,
            "name": "B1",
            "ticks": 18960,
            "time": 20.7167625,
            "velocity": 0.3937007874015748
          },
          {
            "duration": 0.10489499999999907,
            "durationTicks": 96,
            "midi": 35,
            "name": "B1",
            "ticks": 19008,
            "time": 20.76921,
            "velocity": 0.3937007874015748
          },
          {
            "duration": 0.41957999999999984,
            "durationTicks": 384,
            "midi": 64,
            "name": "E4",
            "ticks": 19008,
            "time": 20.76921,
            "velocity": 0.3937007874015748
          },
          {
            "duration": 0.10489499999999907,
            "durationTicks": 96,
            "midi": 35,
            "name": "B1",
            "ticks": 19056,
            "time": 20.8216575,
            "velocity": 0.3937007874015748
          },
          {
            "duration": 0.10489499999999907,
            "durationTicks": 96,
            "midi": 35,
            "name": "B1",
            "ticks": 19104,
            "time": 20.874105,
            "velocity": 0.3937007874015748
          },
          {
            "duration": 0.10489499999999907,
            "durationTicks": 96,
            "midi": 35,
            "name": "B1",
            "ticks": 19152,
            "time": 20.9265525,
            "velocity": 0.3937007874015748
          },
          {
            "duration": 0.10489500000000263,
            "durationTicks": 96,
            "midi": 35,
            "name": "B1",
            "ticks": 19200,
            "time": 20.979,
            "velocity": 0.3937007874015748
          },
          {
            "duration": 0.10489500000000263,
            "durationTicks": 96,
            "midi": 35,
            "name": "B1",
            "ticks": 19248,
            "time": 21.0314475,
            "velocity": 0.3937007874015748
          },
          {
            "duration": 0.10489499999999907,
            "durationTicks": 96,
            "midi": 35,
            "name": "B1",
            "ticks": 19296,
            "time": 21.083895000000002,
            "velocity": 0.3937007874015748
          },
          {
            "duration": 0.10489499999999907,
            "durationTicks": 96,
            "midi": 35,
            "name": "B1",
            "ticks": 19344,
            "time": 21.1363425,
            "velocity": 0.3937007874015748
          },
          {
            "duration": 0.41957999999999984,
            "durationTicks": 384,
            "midi": 62,
            "name": "D4",
            "ticks": 19392,
            "time": 21.18879,
            "velocity": 0.3937007874015748
          },
          {
            "duration": 0.10489499999999907,
            "durationTicks": 96,
            "midi": 35,
            "name": "B1",
            "ticks": 19392,
            "time": 21.18879,
            "velocity": 0.3937007874015748
          },
          {
            "duration": 0.10489499999999907,
            "durationTicks": 96,
            "midi": 35,
            "name": "B1",
            "ticks": 19440,
            "time": 21.2412375,
            "velocity": 0.3937007874015748
          },
          {
            "duration": 0.10489499999999907,
            "durationTicks": 96,
            "midi": 35,
            "name": "B1",
            "ticks": 19488,
            "time": 21.293685,
            "velocity": 0.3937007874015748
          },
          {
            "duration": 0.10489500000000263,
            "durationTicks": 96,
            "midi": 35,
            "name": "B1",
            "ticks": 19536,
            "time": 21.3461325,
            "velocity": 0.3937007874015748
          },
          {
            "duration": 0.10489500000000263,
            "durationTicks": 96,
            "midi": 35,
            "name": "B1",
            "ticks": 19584,
            "time": 21.39858,
            "velocity": 0.3937007874015748
          },
          {
            "duration": 0.10489499999999907,
            "durationTicks": 96,
            "midi": 35,
            "name": "B1",
            "ticks": 19632,
            "time": 21.451027500000002,
            "velocity": 0.3937007874015748
          },
          {
            "duration": 0.10489499999999907,
            "durationTicks": 96,
            "midi": 35,
            "name": "B1",
            "ticks": 19680,
            "time": 21.503475,
            "velocity": 0.3937007874015748
          },
          {
            "duration": 0.10489499999999907,
            "durationTicks": 96,
            "midi": 35,
            "name": "B1",
            "ticks": 19728,
            "time": 21.5559225,
            "velocity": 0.3937007874015748
          },
          {
            "duration": 0.10489499999999907,
            "durationTicks": 96,
            "midi": 35,
            "name": "B1",
            "ticks": 19776,
            "time": 21.60837,
            "velocity": 0.3937007874015748
          },
          {
            "duration": 0.20978999999999814,
            "durationTicks": 192,
            "midi": 64,
            "name": "E4",
            "ticks": 19776,
            "time": 21.60837,
            "velocity": 0.3937007874015748
          },
          {
            "duration": 0.10489499999999907,
            "durationTicks": 96,
            "midi": 35,
            "name": "B1",
            "ticks": 19824,
            "time": 21.6608175,
            "velocity": 0.3937007874015748
          },
          {
            "duration": 0.10489499999999907,
            "durationTicks": 96,
            "midi": 35,
            "name": "B1",
            "ticks": 19872,
            "time": 21.713265,
            "velocity": 0.3937007874015748
          },
          {
            "duration": 0.10489500000000263,
            "durationTicks": 96,
            "midi": 35,
            "name": "B1",
            "ticks": 19920,
            "time": 21.7657125,
            "velocity": 0.3937007874015748
          },
          {
            "duration": 0.6293700000000015,
            "durationTicks": 576,
            "midi": 52,
            "name": "E3",
            "ticks": 19968,
            "time": 21.81816,
            "velocity": 0.3937007874015748
          },
          {
            "duration": 0.10489500000000263,
            "durationTicks": 96,
            "midi": 35,
            "name": "B1",
            "ticks": 19968,
            "time": 21.81816,
            "velocity": 0.3937007874015748
          },
          {
            "duration": 0.10489499999999907,
            "durationTicks": 96,
            "midi": 35,
            "name": "B1",
            "ticks": 20016,
            "time": 21.870607500000002,
            "velocity": 0.3937007874015748
          },
          {
            "duration": 0.10489499999999907,
            "durationTicks": 96,
            "midi": 35,
            "name": "B1",
            "ticks": 20064,
            "time": 21.923055,
            "velocity": 0.3937007874015748
          },
          {
            "duration": 0.10489499999999907,
            "durationTicks": 96,
            "midi": 35,
            "name": "B1",
            "ticks": 20112,
            "time": 21.9755025,
            "velocity": 0.3937007874015748
          },
          {
            "duration": 0.10489499999999907,
            "durationTicks": 96,
            "midi": 35,
            "name": "B1",
            "ticks": 20160,
            "time": 22.02795,
            "velocity": 0.3937007874015748
          },
          {
            "duration": 0.10489499999999907,
            "durationTicks": 96,
            "midi": 35,
            "name": "B1",
            "ticks": 20208,
            "time": 22.0803975,
            "velocity": 0.3937007874015748
          },
          {
            "duration": 0.10489499999999907,
            "durationTicks": 96,
            "midi": 35,
            "name": "B1",
            "ticks": 20256,
            "time": 22.132845,
            "velocity": 0.3937007874015748
          },
          {
            "duration": 0.10489500000000263,
            "durationTicks": 96,
            "midi": 35,
            "name": "B1",
            "ticks": 20304,
            "time": 22.1852925,
            "velocity": 0.3937007874015748
          },
          {
            "duration": 0.10489500000000263,
            "durationTicks": 96,
            "midi": 35,
            "name": "B1",
            "ticks": 20352,
            "time": 22.23774,
            "velocity": 0.3937007874015748
          },
          {
            "duration": 0.10489499999999907,
            "durationTicks": 96,
            "midi": 35,
            "name": "B1",
            "ticks": 20400,
            "time": 22.290187500000002,
            "velocity": 0.3937007874015748
          },
          {
            "duration": 0.10489499999999907,
            "durationTicks": 96,
            "midi": 35,
            "name": "B1",
            "ticks": 20448,
            "time": 22.342635,
            "velocity": 0.3937007874015748
          },
          {
            "duration": 0.10489499999999907,
            "durationTicks": 96,
            "midi": 35,
            "name": "B1",
            "ticks": 20496,
            "time": 22.3950825,
            "velocity": 0.3937007874015748
          },
          {
            "duration": 0.10489499999999907,
            "durationTicks": 96,
            "midi": 35,
            "name": "B1",
            "ticks": 20544,
            "time": 22.44753,
            "velocity": 0.3937007874015748
          },
          {
            "duration": 0.41957999999999984,
            "durationTicks": 384,
            "midi": 64,
            "name": "E4",
            "ticks": 20544,
            "time": 22.44753,
            "velocity": 0.3937007874015748
          },
          {
            "duration": 0.10489499999999907,
            "durationTicks": 96,
            "midi": 35,
            "name": "B1",
            "ticks": 20592,
            "time": 22.4999775,
            "velocity": 0.3937007874015748
          },
          {
            "duration": 0.10489500000000263,
            "durationTicks": 96,
            "midi": 35,
            "name": "B1",
            "ticks": 20640,
            "time": 22.552425,
            "velocity": 0.3937007874015748
          },
          {
            "duration": 0.10489500000000263,
            "durationTicks": 96,
            "midi": 35,
            "name": "B1",
            "ticks": 20688,
            "time": 22.6048725,
            "velocity": 0.3937007874015748
          },
          {
            "duration": 0.10489499999999907,
            "durationTicks": 96,
            "midi": 35,
            "name": "B1",
            "ticks": 20736,
            "time": 22.657320000000002,
            "velocity": 0.3937007874015748
          },
          {
            "duration": 0.10489499999999907,
            "durationTicks": 96,
            "midi": 35,
            "name": "B1",
            "ticks": 20784,
            "time": 22.7097675,
            "velocity": 0.3937007874015748
          },
          {
            "duration": 0.10489499999999907,
            "durationTicks": 96,
            "midi": 35,
            "name": "B1",
            "ticks": 20832,
            "time": 22.762215,
            "velocity": 0.3937007874015748
          },
          {
            "duration": 0.10489499999999907,
            "durationTicks": 96,
            "midi": 35,
            "name": "B1",
            "ticks": 20880,
            "time": 22.8146625,
            "velocity": 0.3937007874015748
          },
          {
            "duration": 0.41957999999999984,
            "durationTicks": 384,
            "midi": 62,
            "name": "D4",
            "ticks": 20928,
            "time": 22.86711,
            "velocity": 0.3937007874015748
          },
          {
            "duration": 0.10489499999999907,
            "durationTicks": 96,
            "midi": 35,
            "name": "B1",
            "ticks": 20928,
            "time": 22.86711,
            "velocity": 0.3937007874015748
          },
          {
            "duration": 0.10489499999999907,
            "durationTicks": 96,
            "midi": 35,
            "name": "B1",
            "ticks": 20976,
            "time": 22.9195575,
            "velocity": 0.3937007874015748
          },
          {
            "duration": 0.10489500000000263,
            "durationTicks": 96,
            "midi": 35,
            "name": "B1",
            "ticks": 21024,
            "time": 22.972005,
            "velocity": 0.3937007874015748
          },
          {
            "duration": 0.10489500000000263,
            "durationTicks": 96,
            "midi": 35,
            "name": "B1",
            "ticks": 21072,
            "time": 23.0244525,
            "velocity": 0.3937007874015748
          },
          {
            "duration": 0.10489499999999907,
            "durationTicks": 96,
            "midi": 35,
            "name": "B1",
            "ticks": 21120,
            "time": 23.076900000000002,
            "velocity": 0.3937007874015748
          },
          {
            "duration": 0.10489499999999907,
            "durationTicks": 96,
            "midi": 35,
            "name": "B1",
            "ticks": 21168,
            "time": 23.1293475,
            "velocity": 0.3937007874015748
          },
          {
            "duration": 0.10489499999999907,
            "durationTicks": 96,
            "midi": 35,
            "name": "B1",
            "ticks": 21216,
            "time": 23.181795,
            "velocity": 0.3937007874015748
          },
          {
            "duration": 0.10489499999999907,
            "durationTicks": 96,
            "midi": 35,
            "name": "B1",
            "ticks": 21264,
            "time": 23.2342425,
            "velocity": 0.3937007874015748
          },
          {
            "duration": 0.10489499999999907,
            "durationTicks": 96,
            "midi": 35,
            "name": "B1",
            "ticks": 21312,
            "time": 23.28669,
            "velocity": 0.3937007874015748
          },
          {
            "duration": 0.2097900000000017,
            "durationTicks": 192,
            "midi": 57,
            "name": "A3",
            "ticks": 21312,
            "time": 23.28669,
            "velocity": 0.3937007874015748
          },
          {
            "duration": 0.10489499999999907,
            "durationTicks": 96,
            "midi": 35,
            "name": "B1",
            "ticks": 21360,
            "time": 23.3391375,
            "velocity": 0.3937007874015748
          },
          {
            "duration": 0.10489500000000263,
            "durationTicks": 96,
            "midi": 35,
            "name": "B1",
            "ticks": 21408,
            "time": 23.391585,
            "velocity": 0.3937007874015748
          },
          {
            "duration": 0.10489500000000263,
            "durationTicks": 96,
            "midi": 35,
            "name": "B1",
            "ticks": 21456,
            "time": 23.4440325,
            "velocity": 0.3937007874015748
          },
          {
            "duration": 0.629369999999998,
            "durationTicks": 576,
            "midi": 53,
            "name": "F3",
            "ticks": 21504,
            "time": 23.496480000000002,
            "velocity": 0.3937007874015748
          },
          {
            "duration": 0.10489499999999907,
            "durationTicks": 96,
            "midi": 35,
            "name": "B1",
            "ticks": 21504,
            "time": 23.496480000000002,
            "velocity": 0.3937007874015748
          },
          {
            "duration": 0.10489499999999907,
            "durationTicks": 96,
            "midi": 35,
            "name": "B1",
            "ticks": 21552,
            "time": 23.5489275,
            "velocity": 0.3937007874015748
          },
          {
            "duration": 0.10489499999999907,
            "durationTicks": 96,
            "midi": 35,
            "name": "B1",
            "ticks": 21600,
            "time": 23.601375,
            "velocity": 0.3937007874015748
          },
          {
            "duration": 0.10489499999999907,
            "durationTicks": 96,
            "midi": 35,
            "name": "B1",
            "ticks": 21648,
            "time": 23.6538225,
            "velocity": 0.3937007874015748
          },
          {
            "duration": 0.10489499999999907,
            "durationTicks": 96,
            "midi": 35,
            "name": "B1",
            "ticks": 21696,
            "time": 23.70627,
            "velocity": 0.3937007874015748
          },
          {
            "duration": 0.10489500000000263,
            "durationTicks": 96,
            "midi": 35,
            "name": "B1",
            "ticks": 21744,
            "time": 23.7587175,
            "velocity": 0.3937007874015748
          },
          {
            "duration": 0.10489500000000263,
            "durationTicks": 96,
            "midi": 35,
            "name": "B1",
            "ticks": 21792,
            "time": 23.811165,
            "velocity": 0.3937007874015748
          },
          {
            "duration": 0.10489499999999907,
            "durationTicks": 96,
            "midi": 35,
            "name": "B1",
            "ticks": 21840,
            "time": 23.863612500000002,
            "velocity": 0.3937007874015748
          },
          {
            "duration": 0.10489499999999907,
            "durationTicks": 96,
            "midi": 35,
            "name": "B1",
            "ticks": 21888,
            "time": 23.91606,
            "velocity": 0.3937007874015748
          },
          {
            "duration": 0.10489499999999907,
            "durationTicks": 96,
            "midi": 35,
            "name": "B1",
            "ticks": 21936,
            "time": 23.9685075,
            "velocity": 0.3937007874015748
          },
          {
            "duration": 0.10489499999999907,
            "durationTicks": 96,
            "midi": 35,
            "name": "B1",
            "ticks": 21984,
            "time": 24.020955,
            "velocity": 0.3937007874015748
          },
          {
            "duration": 0.10489499999999907,
            "durationTicks": 96,
            "midi": 35,
            "name": "B1",
            "ticks": 22032,
            "time": 24.0734025,
            "velocity": 0.3937007874015748
          },
          {
            "duration": 0.10489499999999907,
            "durationTicks": 96,
            "midi": 35,
            "name": "B1",
            "ticks": 22080,
            "time": 24.12585,
            "velocity": 0.3937007874015748
          },
          {
            "duration": 0.41957999999999984,
            "durationTicks": 384,
            "midi": 65,
            "name": "F4",
            "ticks": 22080,
            "time": 24.12585,
            "velocity": 0.3937007874015748
          },
          {
            "duration": 0.10489500000000263,
            "durationTicks": 96,
            "midi": 35,
            "name": "B1",
            "ticks": 22128,
            "time": 24.1782975,
            "velocity": 0.3937007874015748
          },
          {
            "duration": 0.10489500000000263,
            "durationTicks": 96,
            "midi": 35,
            "name": "B1",
            "ticks": 22176,
            "time": 24.230745,
            "velocity": 0.3937007874015748
          },
          {
            "duration": 0.10489499999999907,
            "durationTicks": 96,
            "midi": 35,
            "name": "B1",
            "ticks": 22224,
            "time": 24.283192500000002,
            "velocity": 0.3937007874015748
          },
          {
            "duration": 0.10489499999999907,
            "durationTicks": 96,
            "midi": 35,
            "name": "B1",
            "ticks": 22272,
            "time": 24.33564,
            "velocity": 0.3937007874015748
          },
          {
            "duration": 0.10489499999999907,
            "durationTicks": 96,
            "midi": 35,
            "name": "B1",
            "ticks": 22320,
            "time": 24.3880875,
            "velocity": 0.3937007874015748
          },
          {
            "duration": 0.10489499999999907,
            "durationTicks": 96,
            "midi": 35,
            "name": "B1",
            "ticks": 22368,
            "time": 24.440535,
            "velocity": 0.3937007874015748
          },
          {
            "duration": 0.10489499999999907,
            "durationTicks": 96,
            "midi": 35,
            "name": "B1",
            "ticks": 22416,
            "time": 24.4929825,
            "velocity": 0.3937007874015748
          },
          {
            "duration": 0.10489500000000263,
            "durationTicks": 96,
            "midi": 35,
            "name": "B1",
            "ticks": 22464,
            "time": 24.54543,
            "velocity": 0.3937007874015748
          },
          {
            "duration": 0.41957999999999984,
            "durationTicks": 384,
            "midi": 63,
            "name": "D#4",
            "ticks": 22464,
            "time": 24.54543,
            "velocity": 0.3937007874015748
          },
          {
            "duration": 0.10489500000000263,
            "durationTicks": 96,
            "midi": 35,
            "name": "B1",
            "ticks": 22512,
            "time": 24.5978775,
            "velocity": 0.3937007874015748
          },
          {
            "duration": 0.10489499999999907,
            "durationTicks": 96,
            "midi": 35,
            "name": "B1",
            "ticks": 22560,
            "time": 24.650325000000002,
            "velocity": 0.3937007874015748
          },
          {
            "duration": 0.10489499999999907,
            "durationTicks": 96,
            "midi": 35,
            "name": "B1",
            "ticks": 22608,
            "time": 24.702772500000002,
            "velocity": 0.3937007874015748
          },
          {
            "duration": 0.10489499999999907,
            "durationTicks": 96,
            "midi": 35,
            "name": "B1",
            "ticks": 22656,
            "time": 24.75522,
            "velocity": 0.3937007874015748
          },
          {
            "duration": 0.10489499999999907,
            "durationTicks": 96,
            "midi": 35,
            "name": "B1",
            "ticks": 22704,
            "time": 24.8076675,
            "velocity": 0.3937007874015748
          },
          {
            "duration": 0.10489499999999907,
            "durationTicks": 96,
            "midi": 35,
            "name": "B1",
            "ticks": 22752,
            "time": 24.860115,
            "velocity": 0.3937007874015748
          },
          {
            "duration": 0.10489499999999907,
            "durationTicks": 96,
            "midi": 35,
            "name": "B1",
            "ticks": 22800,
            "time": 24.9125625,
            "velocity": 0.3937007874015748
          },
          {
            "duration": 0.10489500000000263,
            "durationTicks": 96,
            "midi": 35,
            "name": "B1",
            "ticks": 22848,
            "time": 24.96501,
            "velocity": 0.3937007874015748
          },
          {
            "duration": 0.2097900000000017,
            "durationTicks": 192,
            "midi": 65,
            "name": "F4",
            "ticks": 22848,
            "time": 24.96501,
            "velocity": 0.3937007874015748
          },
          {
            "duration": 0.10489500000000263,
            "durationTicks": 96,
            "midi": 35,
            "name": "B1",
            "ticks": 22896,
            "time": 25.0174575,
            "velocity": 0.3937007874015748
          },
          {
            "duration": 0.10489499999999907,
            "durationTicks": 96,
            "midi": 35,
            "name": "B1",
            "ticks": 22944,
            "time": 25.069905000000002,
            "velocity": 0.3937007874015748
          },
          {
            "duration": 0.10489499999999907,
            "durationTicks": 96,
            "midi": 35,
            "name": "B1",
            "ticks": 22992,
            "time": 25.1223525,
            "velocity": 0.3937007874015748
          },
          {
            "duration": 0.629369999999998,
            "durationTicks": 576,
            "midi": 53,
            "name": "F3",
            "ticks": 23040,
            "time": 25.1748,
            "velocity": 0.3937007874015748
          },
          {
            "duration": 0.10489499999999907,
            "durationTicks": 96,
            "midi": 35,
            "name": "B1",
            "ticks": 23040,
            "time": 25.1748,
            "velocity": 0.3937007874015748
          },
          {
            "duration": 0.10489499999999907,
            "durationTicks": 96,
            "midi": 35,
            "name": "B1",
            "ticks": 23088,
            "time": 25.2272475,
            "velocity": 0.3937007874015748
          },
          {
            "duration": 0.10489499999999907,
            "durationTicks": 96,
            "midi": 35,
            "name": "B1",
            "ticks": 23136,
            "time": 25.279695,
            "velocity": 0.3937007874015748
          },
          {
            "duration": 0.10489499999999907,
            "durationTicks": 96,
            "midi": 35,
            "name": "B1",
            "ticks": 23184,
            "time": 25.3321425,
            "velocity": 0.3937007874015748
          },
          {
            "duration": 0.10489500000000263,
            "durationTicks": 96,
            "midi": 35,
            "name": "B1",
            "ticks": 23232,
            "time": 25.38459,
            "velocity": 0.3937007874015748
          },
          {
            "duration": 0.10489500000000263,
            "durationTicks": 96,
            "midi": 35,
            "name": "B1",
            "ticks": 23280,
            "time": 25.4370375,
            "velocity": 0.3937007874015748
          },
          {
            "duration": 0.10489499999999907,
            "durationTicks": 96,
            "midi": 35,
            "name": "B1",
            "ticks": 23328,
            "time": 25.489485000000002,
            "velocity": 0.3937007874015748
          },
          {
            "duration": 0.10489499999999907,
            "durationTicks": 96,
            "midi": 35,
            "name": "B1",
            "ticks": 23376,
            "time": 25.5419325,
            "velocity": 0.3937007874015748
          },
          {
            "duration": 0.10489499999999907,
            "durationTicks": 96,
            "midi": 35,
            "name": "B1",
            "ticks": 23424,
            "time": 25.59438,
            "velocity": 0.3937007874015748
          },
          {
            "duration": 0.10489499999999907,
            "durationTicks": 96,
            "midi": 35,
            "name": "B1",
            "ticks": 23472,
            "time": 25.6468275,
            "velocity": 0.3937007874015748
          },
          {
            "duration": 0.10489499999999907,
            "durationTicks": 96,
            "midi": 35,
            "name": "B1",
            "ticks": 23520,
            "time": 25.699275,
            "velocity": 0.3937007874015748
          },
          {
            "duration": 0.10489500000000263,
            "durationTicks": 96,
            "midi": 35,
            "name": "B1",
            "ticks": 23568,
            "time": 25.7517225,
            "velocity": 0.3937007874015748
          },
          {
            "duration": 0.41957999999999984,
            "durationTicks": 384,
            "midi": 65,
            "name": "F4",
            "ticks": 23616,
            "time": 25.80417,
            "velocity": 0.3937007874015748
          },
          {
            "duration": 0.10489500000000263,
            "durationTicks": 96,
            "midi": 35,
            "name": "B1",
            "ticks": 23616,
            "time": 25.80417,
            "velocity": 0.3937007874015748
          },
          {
            "duration": 0.10489499999999907,
            "durationTicks": 96,
            "midi": 35,
            "name": "B1",
            "ticks": 23664,
            "time": 25.856617500000002,
            "velocity": 0.3937007874015748
          },
          {
            "duration": 0.10489499999999907,
            "durationTicks": 96,
            "midi": 35,
            "name": "B1",
            "ticks": 23712,
            "time": 25.909065000000002,
            "velocity": 0.3937007874015748
          },
          {
            "duration": 0.10489499999999907,
            "durationTicks": 96,
            "midi": 35,
            "name": "B1",
            "ticks": 23760,
            "time": 25.9615125,
            "velocity": 0.3937007874015748
          },
          {
            "duration": 0.10489499999999907,
            "durationTicks": 96,
            "midi": 35,
            "name": "B1",
            "ticks": 23808,
            "time": 26.01396,
            "velocity": 0.3937007874015748
          },
          {
            "duration": 0.10489499999999907,
            "durationTicks": 96,
            "midi": 35,
            "name": "B1",
            "ticks": 23856,
            "time": 26.0664075,
            "velocity": 0.3937007874015748
          },
          {
            "duration": 0.10489499999999907,
            "durationTicks": 96,
            "midi": 35,
            "name": "B1",
            "ticks": 23904,
            "time": 26.118855,
            "velocity": 0.3937007874015748
          },
          {
            "duration": 0.10489500000000263,
            "durationTicks": 96,
            "midi": 35,
            "name": "B1",
            "ticks": 23952,
            "time": 26.1713025,
            "velocity": 0.3937007874015748
          },
          {
            "duration": 0.10489500000000263,
            "durationTicks": 96,
            "midi": 35,
            "name": "B1",
            "ticks": 24000,
            "time": 26.22375,
            "velocity": 0.3937007874015748
          },
          {
            "duration": 0.41957999999999984,
            "durationTicks": 384,
            "midi": 63,
            "name": "D#4",
            "ticks": 24000,
            "time": 26.22375,
            "velocity": 0.3937007874015748
          },
          {
            "duration": 0.10489499999999907,
            "durationTicks": 96,
            "midi": 35,
            "name": "B1",
            "ticks": 24048,
            "time": 26.276197500000002,
            "velocity": 0.3937007874015748
          },
          {
            "duration": 0.10489499999999907,
            "durationTicks": 96,
            "midi": 35,
            "name": "B1",
            "ticks": 24096,
            "time": 26.328645,
            "velocity": 0.3937007874015748
          },
          {
            "duration": 0.10489499999999907,
            "durationTicks": 96,
            "midi": 35,
            "name": "B1",
            "ticks": 24144,
            "time": 26.3810925,
            "velocity": 0.3937007874015748
          },
          {
            "duration": 0.10489499999999907,
            "durationTicks": 96,
            "midi": 35,
            "name": "B1",
            "ticks": 24192,
            "time": 26.43354,
            "velocity": 0.3937007874015748
          },
          {
            "duration": 0.10489499999999907,
            "durationTicks": 96,
            "midi": 35,
            "name": "B1",
            "ticks": 24240,
            "time": 26.4859875,
            "velocity": 0.3937007874015748
          },
          {
            "duration": 0.10489499999999907,
            "durationTicks": 96,
            "midi": 35,
            "name": "B1",
            "ticks": 24288,
            "time": 26.538435,
            "velocity": 0.3937007874015748
          },
          {
            "duration": 0.10489500000000263,
            "durationTicks": 96,
            "midi": 35,
            "name": "B1",
            "ticks": 24336,
            "time": 26.5908825,
            "velocity": 0.3937007874015748
          },
          {
            "duration": 0.10489500000000263,
            "durationTicks": 96,
            "midi": 35,
            "name": "B1",
            "ticks": 24384,
            "time": 26.64333,
            "velocity": 0.3937007874015748
          },
          {
            "duration": 0.2097900000000017,
            "durationTicks": 192,
            "midi": 58,
            "name": "A#3",
            "ticks": 24384,
            "time": 26.64333,
            "velocity": 0.3937007874015748
          },
          {
            "duration": 0.10489499999999907,
            "durationTicks": 96,
            "midi": 35,
            "name": "B1",
            "ticks": 24432,
            "time": 26.695777500000002,
            "velocity": 0.3937007874015748
          },
          {
            "duration": 0.10489499999999907,
            "durationTicks": 96,
            "midi": 35,
            "name": "B1",
            "ticks": 24480,
            "time": 26.748225,
            "velocity": 0.3937007874015748
          },
          {
            "duration": 0.10489499999999907,
            "durationTicks": 96,
            "midi": 35,
            "name": "B1",
            "ticks": 24528,
            "time": 26.8006725,
            "velocity": 0.3937007874015748
          },
          {
            "duration": 0.10489499999999907,
            "durationTicks": 96,
            "midi": 35,
            "name": "B1",
            "ticks": 24576,
            "time": 26.85312,
            "velocity": 0.3937007874015748
          },
          {
            "duration": 0.10489499999999907,
            "durationTicks": 96,
            "midi": 35,
            "name": "B1",
            "ticks": 24624,
            "time": 26.9055675,
            "velocity": 0.3937007874015748
          },
          {
            "duration": 0.10489500000000263,
            "durationTicks": 96,
            "midi": 35,
            "name": "B1",
            "ticks": 24672,
            "time": 26.958015,
            "velocity": 0.3937007874015748
          },
          {
            "duration": 0.10489500000000263,
            "durationTicks": 96,
            "midi": 35,
            "name": "B1",
            "ticks": 24720,
            "time": 27.0104625,
            "velocity": 0.3937007874015748
          },
          {
            "duration": 0.10489499999999907,
            "durationTicks": 96,
            "midi": 35,
            "name": "B1",
            "ticks": 24768,
            "time": 27.062910000000002,
            "velocity": 0.3937007874015748
          },
          {
            "duration": 0.10489499999999907,
            "durationTicks": 96,
            "midi": 35,
            "name": "B1",
            "ticks": 24816,
            "time": 27.115357500000002,
            "velocity": 0.3937007874015748
          },
          {
            "duration": 0.10489499999999907,
            "durationTicks": 96,
            "midi": 35,
            "name": "B1",
            "ticks": 24864,
            "time": 27.167805,
            "velocity": 0.3937007874015748
          },
          {
            "duration": 0.10489499999999907,
            "durationTicks": 96,
            "midi": 35,
            "name": "B1",
            "ticks": 24912,
            "time": 27.2202525,
            "velocity": 0.3937007874015748
          },
          {
            "duration": 0.10489499999999907,
            "durationTicks": 96,
            "midi": 35,
            "name": "B1",
            "ticks": 24960,
            "time": 27.2727,
            "velocity": 0.3937007874015748
          },
          {
            "duration": 0.10489499999999907,
            "durationTicks": 96,
            "midi": 35,
            "name": "B1",
            "ticks": 25008,
            "time": 27.3251475,
            "velocity": 0.3937007874015748
          },
          {
            "duration": 0.10489500000000263,
            "durationTicks": 96,
            "midi": 35,
            "name": "B1",
            "ticks": 25056,
            "time": 27.377595,
            "velocity": 0.3937007874015748
          },
          {
            "duration": 0.10489500000000263,
            "durationTicks": 96,
            "midi": 35,
            "name": "B1",
            "ticks": 25104,
            "time": 27.4300425,
            "velocity": 0.3937007874015748
          },
          {
            "duration": 0.10489499999999907,
            "durationTicks": 96,
            "midi": 35,
            "name": "B1",
            "ticks": 25152,
            "time": 27.482490000000002,
            "velocity": 0.3937007874015748
          },
          {
            "duration": 0.10489499999999907,
            "durationTicks": 96,
            "midi": 35,
            "name": "B1",
            "ticks": 25200,
            "time": 27.5349375,
            "velocity": 0.3937007874015748
          },
          {
            "duration": 0.10489499999999907,
            "durationTicks": 96,
            "midi": 35,
            "name": "B1",
            "ticks": 25248,
            "time": 27.587385,
            "velocity": 0.3937007874015748
          },
          {
            "duration": 0.10489499999999907,
            "durationTicks": 96,
            "midi": 35,
            "name": "B1",
            "ticks": 25296,
            "time": 27.6398325,
            "velocity": 0.3937007874015748
          },
          {
            "duration": 0.10489499999999907,
            "durationTicks": 96,
            "midi": 42,
            "name": "F#2",
            "ticks": 38400,
            "time": 41.958,
            "velocity": 0.3937007874015748
          },
          {
            "duration": 0.10489499999999907,
            "durationTicks": 96,
            "midi": 35,
            "name": "B1",
            "ticks": 38400,
            "time": 41.958,
            "velocity": 0.3937007874015748
          },
          {
            "duration": 0.10489499999999907,
            "durationTicks": 96,
            "midi": 42,
            "name": "F#2",
            "ticks": 38592,
            "time": 42.167790000000004,
            "velocity": 0.3937007874015748
          },
          {
            "duration": 0.10489499999999907,
            "durationTicks": 96,
            "midi": 35,
            "name": "B1",
            "ticks": 38592,
            "time": 42.167790000000004,
            "velocity": 0.3937007874015748
          },
          {
            "duration": 0.10489499999999907,
            "durationTicks": 96,
            "midi": 46,
            "name": "A#2",
            "ticks": 38784,
            "time": 42.37758,
            "velocity": 0.3937007874015748
          },
          {
            "duration": 0.10489499999999907,
            "durationTicks": 96,
            "midi": 40,
            "name": "E2",
            "ticks": 38784,
            "time": 42.37758,
            "velocity": 0.3937007874015748
          },
          {
            "duration": 0.10489499999999907,
            "durationTicks": 96,
            "midi": 35,
            "name": "B1",
            "ticks": 38976,
            "time": 42.58737,
            "velocity": 0.3937007874015748
          },
          {
            "duration": 0.10489499999999907,
            "durationTicks": 96,
            "midi": 42,
            "name": "F#2",
            "ticks": 38976,
            "time": 42.58737,
            "velocity": 0.3937007874015748
          },
          {
            "duration": 0.10489499999999907,
            "durationTicks": 96,
            "midi": 35,
            "name": "B1",
            "ticks": 39072,
            "time": 42.692265,
            "velocity": 0.3937007874015748
          },
          {
            "duration": 0.10489499999999907,
            "durationTicks": 96,
            "midi": 42,
            "name": "F#2",
            "ticks": 39072,
            "time": 42.692265,
            "velocity": 0.3937007874015748
          },
          {
            "duration": 0.10489500000000618,
            "durationTicks": 96,
            "midi": 42,
            "name": "F#2",
            "ticks": 39168,
            "time": 42.79716,
            "velocity": 0.3937007874015748
          },
          {
            "duration": 0.10489500000000618,
            "durationTicks": 96,
            "midi": 35,
            "name": "B1",
            "ticks": 39168,
            "time": 42.79716,
            "velocity": 0.3937007874015748
          },
          {
            "duration": 0.10489499999999907,
            "durationTicks": 96,
            "midi": 35,
            "name": "B1",
            "ticks": 39360,
            "time": 43.00695,
            "velocity": 0.3937007874015748
          },
          {
            "duration": 0.10489499999999907,
            "durationTicks": 96,
            "midi": 42,
            "name": "F#2",
            "ticks": 39360,
            "time": 43.00695,
            "velocity": 0.3937007874015748
          },
          {
            "duration": 0.10489499999999907,
            "durationTicks": 96,
            "midi": 40,
            "name": "E2",
            "ticks": 39552,
            "time": 43.21674,
            "velocity": 0.3937007874015748
          },
          {
            "duration": 0.10489499999999907,
            "durationTicks": 96,
            "midi": 46,
            "name": "A#2",
            "ticks": 39552,
            "time": 43.21674,
            "velocity": 0.3937007874015748
          },
          {
            "duration": 0.10489499999999907,
            "durationTicks": 96,
            "midi": 35,
            "name": "B1",
            "ticks": 39744,
            "time": 43.42653,
            "velocity": 0.3937007874015748
          },
          {
            "duration": 0.10489499999999907,
            "durationTicks": 96,
            "midi": 42,
            "name": "F#2",
            "ticks": 39744,
            "time": 43.42653,
            "velocity": 0.3937007874015748
          },
          {
            "duration": 0.10489500000000618,
            "durationTicks": 96,
            "midi": 35,
            "name": "B1",
            "ticks": 39936,
            "time": 43.63632,
            "velocity": 0.3937007874015748
          },
          {
            "duration": 0.10489500000000618,
            "durationTicks": 96,
            "midi": 42,
            "name": "F#2",
            "ticks": 39936,
            "time": 43.63632,
            "velocity": 0.3937007874015748
          },
          {
            "duration": 0.10489499999999907,
            "durationTicks": 96,
            "midi": 42,
            "name": "F#2",
            "ticks": 40128,
            "time": 43.84611,
            "velocity": 0.3937007874015748
          },
          {
            "duration": 0.10489499999999907,
            "durationTicks": 96,
            "midi": 35,
            "name": "B1",
            "ticks": 40128,
            "time": 43.84611,
            "velocity": 0.3937007874015748
          },
          {
            "duration": 0.10489499999999907,
            "durationTicks": 96,
            "midi": 46,
            "name": "A#2",
            "ticks": 40320,
            "time": 44.0559,
            "velocity": 0.3937007874015748
          },
          {
            "duration": 0.10489499999999907,
            "durationTicks": 96,
            "midi": 40,
            "name": "E2",
            "ticks": 40320,
            "time": 44.0559,
            "velocity": 0.3937007874015748
          },
          {
            "duration": 0.10489499999999907,
            "durationTicks": 96,
            "midi": 35,
            "name": "B1",
            "ticks": 40608,
            "time": 44.370585,
            "velocity": 0.3937007874015748
          },
          {
            "duration": 0.10489499999999907,
            "durationTicks": 96,
            "midi": 42,
            "name": "F#2",
            "ticks": 40608,
            "time": 44.370585,
            "velocity": 0.3937007874015748
          },
          {
            "duration": 0.10489500000000618,
            "durationTicks": 96,
            "midi": 35,
            "name": "B1",
            "ticks": 40656,
            "time": 44.4230325,
            "velocity": 0.3937007874015748
          },
          {
            "duration": 0.10489500000000618,
            "durationTicks": 96,
            "midi": 42,
            "name": "F#2",
            "ticks": 40656,
            "time": 44.4230325,
            "velocity": 0.3937007874015748
          },
          {
            "duration": 0.10489500000000618,
            "durationTicks": 96,
            "midi": 35,
            "name": "B1",
            "ticks": 40704,
            "time": 44.47548,
            "velocity": 0.3937007874015748
          },
          {
            "duration": 0.10489500000000618,
            "durationTicks": 96,
            "midi": 42,
            "name": "F#2",
            "ticks": 40704,
            "time": 44.47548,
            "velocity": 0.3937007874015748
          },
          {
            "duration": 0.10489499999999907,
            "durationTicks": 96,
            "midi": 42,
            "name": "F#2",
            "ticks": 40800,
            "time": 44.580375000000004,
            "velocity": 0.3937007874015748
          },
          {
            "duration": 0.10489499999999907,
            "durationTicks": 96,
            "midi": 35,
            "name": "B1",
            "ticks": 40800,
            "time": 44.580375000000004,
            "velocity": 0.3937007874015748
          },
          {
            "duration": 0.10489499999999907,
            "durationTicks": 96,
            "midi": 42,
            "name": "F#2",
            "ticks": 40896,
            "time": 44.68527,
            "velocity": 0.3937007874015748
          },
          {
            "duration": 0.10489499999999907,
            "durationTicks": 96,
            "midi": 35,
            "name": "B1",
            "ticks": 40896,
            "time": 44.68527,
            "velocity": 0.3937007874015748
          },
          {
            "duration": 0.10489499999999907,
            "durationTicks": 96,
            "midi": 40,
            "name": "E2",
            "ticks": 41088,
            "time": 44.89506,
            "velocity": 0.3937007874015748
          },
          {
            "duration": 0.10489499999999907,
            "durationTicks": 96,
            "midi": 46,
            "name": "A#2",
            "ticks": 41088,
            "time": 44.89506,
            "velocity": 0.3937007874015748
          },
          {
            "duration": 0.10489499999999907,
            "durationTicks": 96,
            "midi": 35,
            "name": "B1",
            "ticks": 41280,
            "time": 45.10485,
            "velocity": 0.3937007874015748
          },
          {
            "duration": 0.10489499999999907,
            "durationTicks": 96,
            "midi": 42,
            "name": "F#2",
            "ticks": 41280,
            "time": 45.10485,
            "velocity": 0.3937007874015748
          },
          {
            "duration": 0.10489500000000618,
            "durationTicks": 96,
            "midi": 46,
            "name": "A#2",
            "ticks": 41376,
            "time": 45.209745,
            "velocity": 0.3937007874015748
          },
          {
            "duration": 0.10489500000000618,
            "durationTicks": 96,
            "midi": 40,
            "name": "E2",
            "ticks": 41376,
            "time": 45.209745,
            "velocity": 0.3937007874015748
          },
          {
            "duration": 0.10489499999999907,
            "durationTicks": 96,
            "midi": 35,
            "name": "B1",
            "ticks": 41472,
            "time": 45.314640000000004,
            "velocity": 0.3937007874015748
          },
          {
            "duration": 0.10489499999999907,
            "durationTicks": 96,
            "midi": 42,
            "name": "F#2",
            "ticks": 41472,
            "time": 45.314640000000004,
            "velocity": 0.3937007874015748
          },
          {
            "duration": 0.10489499999999907,
            "durationTicks": 96,
            "midi": 42,
            "name": "F#2",
            "ticks": 41664,
            "time": 45.52443,
            "velocity": 0.3937007874015748
          },
          {
            "duration": 0.10489499999999907,
            "durationTicks": 96,
            "midi": 35,
            "name": "B1",
            "ticks": 41664,
            "time": 45.52443,
            "velocity": 0.3937007874015748
          },
          {
            "duration": 0.10489499999999907,
            "durationTicks": 96,
            "midi": 40,
            "name": "E2",
            "ticks": 41856,
            "time": 45.73422,
            "velocity": 0.3937007874015748
          },
          {
            "duration": 0.10489499999999907,
            "durationTicks": 96,
            "midi": 46,
            "name": "A#2",
            "ticks": 41856,
            "time": 45.73422,
            "velocity": 0.3937007874015748
          },
          {
            "duration": 0.10489499999999907,
            "durationTicks": 96,
            "midi": 35,
            "name": "B1",
            "ticks": 42048,
            "time": 45.94401,
            "velocity": 0.3937007874015748
          },
          {
            "duration": 0.10489499999999907,
            "durationTicks": 96,
            "midi": 42,
            "name": "F#2",
            "ticks": 42048,
            "time": 45.94401,
            "velocity": 0.3937007874015748
          },
          {
            "duration": 0.10489500000000618,
            "durationTicks": 96,
            "midi": 35,
            "name": "B1",
            "ticks": 42144,
            "time": 46.048905,
            "velocity": 0.3937007874015748
          },
          {
            "duration": 0.10489500000000618,
            "durationTicks": 96,
            "midi": 42,
            "name": "F#2",
            "ticks": 42144,
            "time": 46.048905,
            "velocity": 0.3937007874015748
          },
          {
            "duration": 0.10489499999999907,
            "durationTicks": 96,
            "midi": 35,
            "name": "B1",
            "ticks": 42240,
            "time": 46.153800000000004,
            "velocity": 0.3937007874015748
          },
          {
            "duration": 0.10489499999999907,
            "durationTicks": 96,
            "midi": 42,
            "name": "F#2",
            "ticks": 42240,
            "time": 46.153800000000004,
            "velocity": 0.3937007874015748
          },
          {
            "duration": 0.10489499999999907,
            "durationTicks": 96,
            "midi": 35,
            "name": "B1",
            "ticks": 42432,
            "time": 46.36359,
            "velocity": 0.3937007874015748
          },
          {
            "duration": 0.10489499999999907,
            "durationTicks": 96,
            "midi": 42,
            "name": "F#2",
            "ticks": 42432,
            "time": 46.36359,
            "velocity": 0.3937007874015748
          },
          {
            "duration": 0.10489499999999907,
            "durationTicks": 96,
            "midi": 40,
            "name": "E2",
            "ticks": 42624,
            "time": 46.57338,
            "velocity": 0.3937007874015748
          },
          {
            "duration": 0.10489499999999907,
            "durationTicks": 96,
            "midi": 46,
            "name": "A#2",
            "ticks": 42624,
            "time": 46.57338,
            "velocity": 0.3937007874015748
          },
          {
            "duration": 0.10489499999999907,
            "durationTicks": 96,
            "midi": 42,
            "name": "F#2",
            "ticks": 42816,
            "time": 46.78317,
            "velocity": 0.3937007874015748
          },
          {
            "duration": 0.10489499999999907,
            "durationTicks": 96,
            "midi": 35,
            "name": "B1",
            "ticks": 42816,
            "time": 46.78317,
            "velocity": 0.3937007874015748
          },
          {
            "duration": 0.10489499999999907,
            "durationTicks": 96,
            "midi": 35,
            "name": "B1",
            "ticks": 43008,
            "time": 46.992960000000004,
            "velocity": 0.3937007874015748
          },
          {
            "duration": 0.10489499999999907,
            "durationTicks": 96,
            "midi": 42,
            "name": "F#2",
            "ticks": 43008,
            "time": 46.992960000000004,
            "velocity": 0.3937007874015748
          },
          {
            "duration": 0.10489499999999907,
            "durationTicks": 96,
            "midi": 35,
            "name": "B1",
            "ticks": 43200,
            "time": 47.20275,
            "velocity": 0.3937007874015748
          },
          {
            "duration": 0.10489499999999907,
            "durationTicks": 96,
            "midi": 42,
            "name": "F#2",
            "ticks": 43200,
            "time": 47.20275,
            "velocity": 0.3937007874015748
          },
          {
            "duration": 0.10489499999999907,
            "durationTicks": 96,
            "midi": 40,
            "name": "E2",
            "ticks": 43392,
            "time": 47.41254,
            "velocity": 0.3937007874015748
          },
          {
            "duration": 0.10489499999999907,
            "durationTicks": 96,
            "midi": 46,
            "name": "A#2",
            "ticks": 43392,
            "time": 47.41254,
            "velocity": 0.3937007874015748
          },
          {
            "duration": 0.10489499999999907,
            "durationTicks": 96,
            "midi": 35,
            "name": "B1",
            "ticks": 43680,
            "time": 47.727225000000004,
            "velocity": 0.3937007874015748
          },
          {
            "duration": 0.10489499999999907,
            "durationTicks": 96,
            "midi": 42,
            "name": "F#2",
            "ticks": 43680,
            "time": 47.727225000000004,
            "velocity": 0.3937007874015748
          },
          {
            "duration": 0.10489499999999907,
            "durationTicks": 96,
            "midi": 35,
            "name": "B1",
            "ticks": 43728,
            "time": 47.779672500000004,
            "velocity": 0.3937007874015748
          },
          {
            "duration": 0.10489499999999907,
            "durationTicks": 96,
            "midi": 42,
            "name": "F#2",
            "ticks": 43728,
            "time": 47.779672500000004,
            "velocity": 0.3937007874015748
          },
          {
            "duration": 0.10489499999999907,
            "durationTicks": 96,
            "midi": 42,
            "name": "F#2",
            "ticks": 43776,
            "time": 47.83212,
            "velocity": 0.3937007874015748
          },
          {
            "duration": 0.10489499999999907,
            "durationTicks": 96,
            "midi": 35,
            "name": "B1",
            "ticks": 43776,
            "time": 47.83212,
            "velocity": 0.3937007874015748
          },
          {
            "duration": 0.10489499999999907,
            "durationTicks": 96,
            "midi": 35,
            "name": "B1",
            "ticks": 43872,
            "time": 47.937015,
            "velocity": 0.3937007874015748
          },
          {
            "duration": 0.10489499999999907,
            "durationTicks": 96,
            "midi": 42,
            "name": "F#2",
            "ticks": 43872,
            "time": 47.937015,
            "velocity": 0.3937007874015748
          },
          {
            "duration": 0.10489499999999907,
            "durationTicks": 96,
            "midi": 42,
            "name": "F#2",
            "ticks": 43968,
            "time": 48.04191,
            "velocity": 0.3937007874015748
          },
          {
            "duration": 0.10489499999999907,
            "durationTicks": 96,
            "midi": 35,
            "name": "B1",
            "ticks": 43968,
            "time": 48.04191,
            "velocity": 0.3937007874015748
          },
          {
            "duration": 0.10489499999999907,
            "durationTicks": 96,
            "midi": 46,
            "name": "A#2",
            "ticks": 44160,
            "time": 48.2517,
            "velocity": 0.3937007874015748
          },
          {
            "duration": 0.10489499999999907,
            "durationTicks": 96,
            "midi": 40,
            "name": "E2",
            "ticks": 44160,
            "time": 48.2517,
            "velocity": 0.3937007874015748
          },
          {
            "duration": 0.10489500000000618,
            "durationTicks": 96,
            "midi": 35,
            "name": "B1",
            "ticks": 44352,
            "time": 48.46149,
            "velocity": 0.3937007874015748
          },
          {
            "duration": 0.10489500000000618,
            "durationTicks": 96,
            "midi": 42,
            "name": "F#2",
            "ticks": 44352,
            "time": 48.46149,
            "velocity": 0.3937007874015748
          },
          {
            "duration": 0.10489499999999907,
            "durationTicks": 96,
            "midi": 46,
            "name": "A#2",
            "ticks": 44448,
            "time": 48.566385000000004,
            "velocity": 0.3937007874015748
          },
          {
            "duration": 0.10489499999999907,
            "durationTicks": 96,
            "midi": 40,
            "name": "E2",
            "ticks": 44448,
            "time": 48.566385000000004,
            "velocity": 0.3937007874015748
          },
          {
            "duration": 0.10489499999999907,
            "durationTicks": 96,
            "midi": 35,
            "name": "B1",
            "ticks": 44544,
            "time": 48.67128,
            "velocity": 0.3937007874015748
          },
          {
            "duration": 0.10489499999999907,
            "durationTicks": 96,
            "midi": 42,
            "name": "F#2",
            "ticks": 44544,
            "time": 48.67128,
            "velocity": 0.3937007874015748
          },
          {
            "duration": 0.10489499999999907,
            "durationTicks": 96,
            "midi": 35,
            "name": "B1",
            "ticks": 44736,
            "time": 48.88107,
            "velocity": 0.3937007874015748
          },
          {
            "duration": 0.10489499999999907,
            "durationTicks": 96,
            "midi": 42,
            "name": "F#2",
            "ticks": 44736,
            "time": 48.88107,
            "velocity": 0.3937007874015748
          },
          {
            "duration": 0.10489499999999907,
            "durationTicks": 96,
            "midi": 40,
            "name": "E2",
            "ticks": 44928,
            "time": 49.09086,
            "velocity": 0.3937007874015748
          },
          {
            "duration": 0.10489499999999907,
            "durationTicks": 96,
            "midi": 46,
            "name": "A#2",
            "ticks": 44928,
            "time": 49.09086,
            "velocity": 0.3937007874015748
          },
          {
            "duration": 0.10489499999999907,
            "durationTicks": 96,
            "midi": 42,
            "name": "F#2",
            "ticks": 45120,
            "time": 49.300650000000005,
            "velocity": 0.3937007874015748
          },
          {
            "duration": 0.10489499999999907,
            "durationTicks": 96,
            "midi": 35,
            "name": "B1",
            "ticks": 45120,
            "time": 49.300650000000005,
            "velocity": 0.3937007874015748
          },
          {
            "duration": 0.10489499999999907,
            "durationTicks": 96,
            "midi": 42,
            "name": "F#2",
            "ticks": 45216,
            "time": 49.405545000000004,
            "velocity": 0.3937007874015748
          },
          {
            "duration": 0.10489499999999907,
            "durationTicks": 96,
            "midi": 35,
            "name": "B1",
            "ticks": 45216,
            "time": 49.405545000000004,
            "velocity": 0.3937007874015748
          },
          {
            "duration": 0.10489499999999907,
            "durationTicks": 96,
            "midi": 35,
            "name": "B1",
            "ticks": 45312,
            "time": 49.51044,
            "velocity": 0.3937007874015748
          },
          {
            "duration": 0.10489499999999907,
            "durationTicks": 96,
            "midi": 42,
            "name": "F#2",
            "ticks": 45312,
            "time": 49.51044,
            "velocity": 0.3937007874015748
          },
          {
            "duration": 0.10489499999999907,
            "durationTicks": 96,
            "midi": 42,
            "name": "F#2",
            "ticks": 45504,
            "time": 49.72023,
            "velocity": 0.3937007874015748
          },
          {
            "duration": 0.10489499999999907,
            "durationTicks": 96,
            "midi": 35,
            "name": "B1",
            "ticks": 45504,
            "time": 49.72023,
            "velocity": 0.3937007874015748
          },
          {
            "duration": 0.10489499999999907,
            "durationTicks": 96,
            "midi": 40,
            "name": "E2",
            "ticks": 45696,
            "time": 49.93002,
            "velocity": 0.3937007874015748
          },
          {
            "duration": 0.10489499999999907,
            "durationTicks": 96,
            "midi": 46,
            "name": "A#2",
            "ticks": 45696,
            "time": 49.93002,
            "velocity": 0.3937007874015748
          },
          {
            "duration": 0.10489499999999907,
            "durationTicks": 96,
            "midi": 35,
            "name": "B1",
            "ticks": 45888,
            "time": 50.139810000000004,
            "velocity": 0.3937007874015748
          },
          {
            "duration": 0.10489499999999907,
            "durationTicks": 96,
            "midi": 42,
            "name": "F#2",
            "ticks": 45888,
            "time": 50.139810000000004,
            "velocity": 0.3937007874015748
          },
          {
            "duration": 0.10489499999999907,
            "durationTicks": 96,
            "midi": 42,
            "name": "F#2",
            "ticks": 46080,
            "time": 50.3496,
            "velocity": 0.3937007874015748
          },
          {
            "duration": 0.10489499999999907,
            "durationTicks": 96,
            "midi": 35,
            "name": "B1",
            "ticks": 46080,
            "time": 50.3496,
            "velocity": 0.3937007874015748
          },
          {
            "duration": 0.10489499999999907,
            "durationTicks": 96,
            "midi": 42,
            "name": "F#2",
            "ticks": 46272,
            "time": 50.55939,
            "velocity": 0.3937007874015748
          },
          {
            "duration": 0.10489499999999907,
            "durationTicks": 96,
            "midi": 35,
            "name": "B1",
            "ticks": 46272,
            "time": 50.55939,
            "velocity": 0.3937007874015748
          },
          {
            "duration": 0.10489499999999907,
            "durationTicks": 96,
            "midi": 40,
            "name": "E2",
            "ticks": 46464,
            "time": 50.76918,
            "velocity": 0.3937007874015748
          },
          {
            "duration": 0.10489499999999907,
            "durationTicks": 96,
            "midi": 46,
            "name": "A#2",
            "ticks": 46464,
            "time": 50.76918,
            "velocity": 0.3937007874015748
          },
          {
            "duration": 0.10489499999999907,
            "durationTicks": 96,
            "midi": 42,
            "name": "F#2",
            "ticks": 46752,
            "time": 51.083865,
            "velocity": 0.3937007874015748
          },
          {
            "duration": 0.10489499999999907,
            "durationTicks": 96,
            "midi": 35,
            "name": "B1",
            "ticks": 46752,
            "time": 51.083865,
            "velocity": 0.3937007874015748
          },
          {
            "duration": 0.10489499999999907,
            "durationTicks": 96,
            "midi": 42,
            "name": "F#2",
            "ticks": 46800,
            "time": 51.1363125,
            "velocity": 0.3937007874015748
          },
          {
            "duration": 0.10489499999999907,
            "durationTicks": 96,
            "midi": 35,
            "name": "B1",
            "ticks": 46800,
            "time": 51.1363125,
            "velocity": 0.3937007874015748
          },
          {
            "duration": 0.10489499999999907,
            "durationTicks": 96,
            "midi": 35,
            "name": "B1",
            "ticks": 46848,
            "time": 51.18876,
            "velocity": 0.3937007874015748
          },
          {
            "duration": 0.10489499999999907,
            "durationTicks": 96,
            "midi": 42,
            "name": "F#2",
            "ticks": 46848,
            "time": 51.18876,
            "velocity": 0.3937007874015748
          },
          {
            "duration": 0.10489499999999907,
            "durationTicks": 96,
            "midi": 42,
            "name": "F#2",
            "ticks": 46944,
            "time": 51.293655,
            "velocity": 0.3937007874015748
          },
          {
            "duration": 0.10489499999999907,
            "durationTicks": 96,
            "midi": 35,
            "name": "B1",
            "ticks": 46944,
            "time": 51.293655,
            "velocity": 0.3937007874015748
          },
          {
            "duration": 0.10489499999999907,
            "durationTicks": 96,
            "midi": 42,
            "name": "F#2",
            "ticks": 47040,
            "time": 51.39855,
            "velocity": 0.3937007874015748
          },
          {
            "duration": 0.10489499999999907,
            "durationTicks": 96,
            "midi": 35,
            "name": "B1",
            "ticks": 47040,
            "time": 51.39855,
            "velocity": 0.3937007874015748
          },
          {
            "duration": 0.10489500000000618,
            "durationTicks": 96,
            "midi": 46,
            "name": "A#2",
            "ticks": 47232,
            "time": 51.60834,
            "velocity": 0.3937007874015748
          },
          {
            "duration": 0.10489500000000618,
            "durationTicks": 96,
            "midi": 40,
            "name": "E2",
            "ticks": 47232,
            "time": 51.60834,
            "velocity": 0.3937007874015748
          },
          {
            "duration": 0.10489499999999907,
            "durationTicks": 96,
            "midi": 42,
            "name": "F#2",
            "ticks": 47424,
            "time": 51.818130000000004,
            "velocity": 0.3937007874015748
          },
          {
            "duration": 0.10489499999999907,
            "durationTicks": 96,
            "midi": 35,
            "name": "B1",
            "ticks": 47424,
            "time": 51.818130000000004,
            "velocity": 0.3937007874015748
          },
          {
            "duration": 0.10489499999999907,
            "durationTicks": 96,
            "midi": 46,
            "name": "A#2",
            "ticks": 47520,
            "time": 51.923025,
            "velocity": 0.3937007874015748
          },
          {
            "duration": 0.10489499999999907,
            "durationTicks": 96,
            "midi": 40,
            "name": "E2",
            "ticks": 47520,
            "time": 51.923025,
            "velocity": 0.3937007874015748
          },
          {
            "duration": 0.10489499999999907,
            "durationTicks": 96,
            "midi": 42,
            "name": "F#2",
            "ticks": 47616,
            "time": 52.02792,
            "velocity": 0.3937007874015748
          },
          {
            "duration": 0.10489499999999907,
            "durationTicks": 96,
            "midi": 35,
            "name": "B1",
            "ticks": 47616,
            "time": 52.02792,
            "velocity": 0.3937007874015748
          },
          {
            "duration": 0.10489499999999907,
            "durationTicks": 96,
            "midi": 35,
            "name": "B1",
            "ticks": 47808,
            "time": 52.23771,
            "velocity": 0.3937007874015748
          },
          {
            "duration": 0.10489499999999907,
            "durationTicks": 96,
            "midi": 42,
            "name": "F#2",
            "ticks": 47808,
            "time": 52.23771,
            "velocity": 0.3937007874015748
          },
          {
            "duration": 0.10489500000000618,
            "durationTicks": 96,
            "midi": 40,
            "name": "E2",
            "ticks": 48000,
            "time": 52.4475,
            "velocity": 0.3937007874015748
          },
          {
            "duration": 0.10489500000000618,
            "durationTicks": 96,
            "midi": 46,
            "name": "A#2",
            "ticks": 48000,
            "time": 52.4475,
            "velocity": 0.3937007874015748
          },
          {
            "duration": 0.10489499999999907,
            "durationTicks": 96,
            "midi": 35,
            "name": "B1",
            "ticks": 48192,
            "time": 52.65729,
            "velocity": 0.3937007874015748
          },
          {
            "duration": 0.10489499999999907,
            "durationTicks": 96,
            "midi": 42,
            "name": "F#2",
            "ticks": 48192,
            "time": 52.65729,
            "velocity": 0.3937007874015748
          },
          {
            "duration": 0.10489499999999907,
            "durationTicks": 96,
            "midi": 42,
            "name": "F#2",
            "ticks": 48288,
            "time": 52.762185,
            "velocity": 0.3937007874015748
          },
          {
            "duration": 0.10489499999999907,
            "durationTicks": 96,
            "midi": 35,
            "name": "B1",
            "ticks": 48288,
            "time": 52.762185,
            "velocity": 0.3937007874015748
          },
          {
            "duration": 0.10489499999999907,
            "durationTicks": 96,
            "midi": 42,
            "name": "F#2",
            "ticks": 48384,
            "time": 52.86708,
            "velocity": 0.3937007874015748
          },
          {
            "duration": 0.10489499999999907,
            "durationTicks": 96,
            "midi": 35,
            "name": "B1",
            "ticks": 48384,
            "time": 52.86708,
            "velocity": 0.3937007874015748
          },
          {
            "duration": 0.10489499999999907,
            "durationTicks": 96,
            "midi": 42,
            "name": "F#2",
            "ticks": 48576,
            "time": 53.07687,
            "velocity": 0.3937007874015748
          },
          {
            "duration": 0.10489499999999907,
            "durationTicks": 96,
            "midi": 35,
            "name": "B1",
            "ticks": 48576,
            "time": 53.07687,
            "velocity": 0.3937007874015748
          },
          {
            "duration": 0.10489500000000618,
            "durationTicks": 96,
            "midi": 40,
            "name": "E2",
            "ticks": 48768,
            "time": 53.28666,
            "velocity": 0.3937007874015748
          },
          {
            "duration": 0.10489500000000618,
            "durationTicks": 96,
            "midi": 46,
            "name": "A#2",
            "ticks": 48768,
            "time": 53.28666,
            "velocity": 0.3937007874015748
          },
          {
            "duration": 0.10489499999999907,
            "durationTicks": 96,
            "midi": 35,
            "name": "B1",
            "ticks": 48960,
            "time": 53.49645,
            "velocity": 0.3937007874015748
          },
          {
            "duration": 0.10489499999999907,
            "durationTicks": 96,
            "midi": 42,
            "name": "F#2",
            "ticks": 48960,
            "time": 53.49645,
            "velocity": 0.3937007874015748
          },
          {
            "duration": 0.10489499999999907,
            "durationTicks": 96,
            "midi": 35,
            "name": "B1",
            "ticks": 49152,
            "time": 53.70624,
            "velocity": 0.3937007874015748
          },
          {
            "duration": 0.10489499999999907,
            "durationTicks": 96,
            "midi": 42,
            "name": "F#2",
            "ticks": 49152,
            "time": 53.70624,
            "velocity": 0.3937007874015748
          },
          {
            "duration": 0.10489499999999907,
            "durationTicks": 96,
            "midi": 35,
            "name": "B1",
            "ticks": 49344,
            "time": 53.91603,
            "velocity": 0.3937007874015748
          },
          {
            "duration": 0.10489499999999907,
            "durationTicks": 96,
            "midi": 42,
            "name": "F#2",
            "ticks": 49344,
            "time": 53.91603,
            "velocity": 0.3937007874015748
          },
          {
            "duration": 0.10489499999999907,
            "durationTicks": 96,
            "midi": 46,
            "name": "A#2",
            "ticks": 49536,
            "time": 54.125820000000004,
            "velocity": 0.3937007874015748
          },
          {
            "duration": 0.10489499999999907,
            "durationTicks": 96,
            "midi": 40,
            "name": "E2",
            "ticks": 49536,
            "time": 54.125820000000004,
            "velocity": 0.3937007874015748
          },
          {
            "duration": 0.10489499999999907,
            "durationTicks": 96,
            "midi": 42,
            "name": "F#2",
            "ticks": 49824,
            "time": 54.440505,
            "velocity": 0.3937007874015748
          },
          {
            "duration": 0.10489499999999907,
            "durationTicks": 96,
            "midi": 35,
            "name": "B1",
            "ticks": 49824,
            "time": 54.440505,
            "velocity": 0.3937007874015748
          },
          {
            "duration": 0.10489499999999907,
            "durationTicks": 96,
            "midi": 42,
            "name": "F#2",
            "ticks": 49872,
            "time": 54.4929525,
            "velocity": 0.3937007874015748
          },
          {
            "duration": 0.10489499999999907,
            "durationTicks": 96,
            "midi": 35,
            "name": "B1",
            "ticks": 49872,
            "time": 54.4929525,
            "velocity": 0.3937007874015748
          },
          {
            "duration": 0.10489499999999907,
            "durationTicks": 96,
            "midi": 42,
            "name": "F#2",
            "ticks": 49920,
            "time": 54.5454,
            "velocity": 0.3937007874015748
          },
          {
            "duration": 0.10489499999999907,
            "durationTicks": 96,
            "midi": 35,
            "name": "B1",
            "ticks": 49920,
            "time": 54.5454,
            "velocity": 0.3937007874015748
          },
          {
            "duration": 0.10489499999999907,
            "durationTicks": 96,
            "midi": 35,
            "name": "B1",
            "ticks": 50016,
            "time": 54.650295,
            "velocity": 0.3937007874015748
          },
          {
            "duration": 0.10489499999999907,
            "durationTicks": 96,
            "midi": 42,
            "name": "F#2",
            "ticks": 50016,
            "time": 54.650295,
            "velocity": 0.3937007874015748
          },
          {
            "duration": 0.10489499999999907,
            "durationTicks": 96,
            "midi": 35,
            "name": "B1",
            "ticks": 50112,
            "time": 54.75519,
            "velocity": 0.3937007874015748
          },
          {
            "duration": 0.10489499999999907,
            "durationTicks": 96,
            "midi": 42,
            "name": "F#2",
            "ticks": 50112,
            "time": 54.75519,
            "velocity": 0.3937007874015748
          },
          {
            "duration": 0.10489499999999907,
            "durationTicks": 96,
            "midi": 40,
            "name": "E2",
            "ticks": 50304,
            "time": 54.964980000000004,
            "velocity": 0.3937007874015748
          },
          {
            "duration": 0.10489499999999907,
            "durationTicks": 96,
            "midi": 46,
            "name": "A#2",
            "ticks": 50304,
            "time": 54.964980000000004,
            "velocity": 0.3937007874015748
          },
          {
            "duration": 0.10489499999999907,
            "durationTicks": 96,
            "midi": 46,
            "name": "A#2",
            "ticks": 50400,
            "time": 55.069875,
            "velocity": 0.3937007874015748
          },
          {
            "duration": 0.10489499999999907,
            "durationTicks": 96,
            "midi": 40,
            "name": "E2",
            "ticks": 50400,
            "time": 55.069875,
            "velocity": 0.3937007874015748
          },
          {
            "duration": 0.10489499999999907,
            "durationTicks": 96,
            "midi": 40,
            "name": "E2",
            "ticks": 50496,
            "time": 55.17477,
            "velocity": 0.3937007874015748
          },
          {
            "duration": 0.10489499999999907,
            "durationTicks": 96,
            "midi": 35,
            "name": "B1",
            "ticks": 50496,
            "time": 55.17477,
            "velocity": 0.3937007874015748
          },
          {
            "duration": 0.10489499999999907,
            "durationTicks": 96,
            "midi": 46,
            "name": "A#2",
            "ticks": 50496,
            "time": 55.17477,
            "velocity": 0.3937007874015748
          },
          {
            "duration": 0.10489499999999907,
            "durationTicks": 96,
            "midi": 42,
            "name": "F#2",
            "ticks": 50496,
            "time": 55.17477,
            "velocity": 0.3937007874015748
          },
          {
            "duration": 0.10489499999999907,
            "durationTicks": 96,
            "midi": 46,
            "name": "A#2",
            "ticks": 50592,
            "time": 55.279665,
            "velocity": 0.3937007874015748
          },
          {
            "duration": 0.10489499999999907,
            "durationTicks": 96,
            "midi": 40,
            "name": "E2",
            "ticks": 50592,
            "time": 55.279665,
            "velocity": 0.3937007874015748
          },
          {
            "duration": 0.10489499999999907,
            "durationTicks": 96,
            "midi": 42,
            "name": "F#2",
            "ticks": 50688,
            "time": 55.38456,
            "velocity": 0.3937007874015748
          },
          {
            "duration": 0.10489499999999907,
            "durationTicks": 96,
            "midi": 35,
            "name": "B1",
            "ticks": 50688,
            "time": 55.38456,
            "velocity": 0.3937007874015748
          },
          {
            "duration": 0.10489499999999907,
            "durationTicks": 96,
            "midi": 40,
            "name": "E2",
            "ticks": 50880,
            "time": 55.59435,
            "velocity": 0.3937007874015748
          },
          {
            "duration": 0.10489499999999907,
            "durationTicks": 96,
            "midi": 46,
            "name": "A#2",
            "ticks": 50880,
            "time": 55.59435,
            "velocity": 0.3937007874015748
          },
          {
            "duration": 0.10489499999999907,
            "durationTicks": 96,
            "midi": 35,
            "name": "B1",
            "ticks": 51072,
            "time": 55.804140000000004,
            "velocity": 0.3937007874015748
          },
          {
            "duration": 0.10489499999999907,
            "durationTicks": 96,
            "midi": 42,
            "name": "F#2",
            "ticks": 51072,
            "time": 55.804140000000004,
            "velocity": 0.3937007874015748
          },
          {
            "duration": 0.10489499999999907,
            "durationTicks": 96,
            "midi": 35,
            "name": "B1",
            "ticks": 51168,
            "time": 55.909035,
            "velocity": 0.3937007874015748
          },
          {
            "duration": 0.10489499999999907,
            "durationTicks": 96,
            "midi": 42,
            "name": "F#2",
            "ticks": 51168,
            "time": 55.909035,
            "velocity": 0.3937007874015748
          },
          {
            "duration": 0.10489499999999907,
            "durationTicks": 96,
            "midi": 46,
            "name": "A#2",
            "ticks": 51264,
            "time": 56.01393,
            "velocity": 0.3937007874015748
          },
          {
            "duration": 0.10489499999999907,
            "durationTicks": 96,
            "midi": 40,
            "name": "E2",
            "ticks": 51264,
            "time": 56.01393,
            "velocity": 0.3937007874015748
          },
          {
            "duration": 0.10489499999999907,
            "durationTicks": 96,
            "midi": 42,
            "name": "F#2",
            "ticks": 51456,
            "time": 56.22372,
            "velocity": 0.3937007874015748
          },
          {
            "duration": 0.10489499999999907,
            "durationTicks": 96,
            "midi": 35,
            "name": "B1",
            "ticks": 51456,
            "time": 56.22372,
            "velocity": 0.3937007874015748
          },
          {
            "duration": 0.10489499999999907,
            "durationTicks": 96,
            "midi": 42,
            "name": "F#2",
            "ticks": 51552,
            "time": 56.328615,
            "velocity": 0.3937007874015748
          },
          {
            "duration": 0.10489499999999907,
            "durationTicks": 96,
            "midi": 35,
            "name": "B1",
            "ticks": 51552,
            "time": 56.328615,
            "velocity": 0.3937007874015748
          },
          {
            "duration": 0.10489500000000618,
            "durationTicks": 96,
            "midi": 40,
            "name": "E2",
            "ticks": 51648,
            "time": 56.43351,
            "velocity": 0.3937007874015748
          },
          {
            "duration": 0.10489500000000618,
            "durationTicks": 96,
            "midi": 46,
            "name": "A#2",
            "ticks": 51648,
            "time": 56.43351,
            "velocity": 0.3937007874015748
          },
          {
            "duration": 0.10489499999999907,
            "durationTicks": 96,
            "midi": 42,
            "name": "F#2",
            "ticks": 51744,
            "time": 56.538405000000004,
            "velocity": 0.3937007874015748
          },
          {
            "duration": 0.10489499999999907,
            "durationTicks": 96,
            "midi": 35,
            "name": "B1",
            "ticks": 51744,
            "time": 56.538405000000004,
            "velocity": 0.3937007874015748
          },
          {
            "duration": 0.10489499999999907,
            "durationTicks": 96,
            "midi": 42,
            "name": "F#2",
            "ticks": 51936,
            "time": 56.748195,
            "velocity": 0.3937007874015748
          },
          {
            "duration": 0.10489499999999907,
            "durationTicks": 96,
            "midi": 35,
            "name": "B1",
            "ticks": 51936,
            "time": 56.748195,
            "velocity": 0.3937007874015748
          },
          {
            "duration": 0.10489499999999907,
            "durationTicks": 96,
            "midi": 46,
            "name": "A#2",
            "ticks": 52032,
            "time": 56.85309,
            "velocity": 0.3937007874015748
          },
          {
            "duration": 0.10489499999999907,
            "durationTicks": 96,
            "midi": 40,
            "name": "E2",
            "ticks": 52032,
            "time": 56.85309,
            "velocity": 0.3937007874015748
          },
          {
            "duration": 0.6293700000000015,
            "durationTicks": 576,
            "midi": 50,
            "name": "D3",
            "ticks": 52224,
            "time": 57.06288,
            "velocity": 0.3937007874015748
          },
          {
            "duration": 0.10489499999999907,
            "durationTicks": 96,
            "midi": 42,
            "name": "F#2",
            "ticks": 52224,
            "time": 57.06288,
            "velocity": 0.3937007874015748
          },
          {
            "duration": 0.10489499999999907,
            "durationTicks": 96,
            "midi": 35,
            "name": "B1",
            "ticks": 52224,
            "time": 57.06288,
            "velocity": 0.3937007874015748
          },
          {
            "duration": 0.10489500000000618,
            "durationTicks": 96,
            "midi": 46,
            "name": "A#2",
            "ticks": 52416,
            "time": 57.27267,
            "velocity": 0.3937007874015748
          },
          {
            "duration": 0.10489500000000618,
            "durationTicks": 96,
            "midi": 40,
            "name": "E2",
            "ticks": 52416,
            "time": 57.27267,
            "velocity": 0.3937007874015748
          },
          {
            "duration": 0.10489499999999907,
            "durationTicks": 96,
            "midi": 42,
            "name": "F#2",
            "ticks": 52608,
            "time": 57.48246,
            "velocity": 0.3937007874015748
          },
          {
            "duration": 0.10489499999999907,
            "durationTicks": 96,
            "midi": 35,
            "name": "B1",
            "ticks": 52608,
            "time": 57.48246,
            "velocity": 0.3937007874015748
          },
          {
            "duration": 0.10489499999999907,
            "durationTicks": 96,
            "midi": 42,
            "name": "F#2",
            "ticks": 52704,
            "time": 57.587355,
            "velocity": 0.3937007874015748
          },
          {
            "duration": 0.10489499999999907,
            "durationTicks": 96,
            "midi": 35,
            "name": "B1",
            "ticks": 52704,
            "time": 57.587355,
            "velocity": 0.3937007874015748
          },
          {
            "duration": 0.4195799999999963,
            "durationTicks": 384,
            "midi": 62,
            "name": "D4",
            "ticks": 52800,
            "time": 57.69225,
            "velocity": 0.3937007874015748
          },
          {
            "duration": 0.10489499999999907,
            "durationTicks": 96,
            "midi": 46,
            "name": "A#2",
            "ticks": 52800,
            "time": 57.69225,
            "velocity": 0.3937007874015748
          },
          {
            "duration": 0.10489499999999907,
            "durationTicks": 96,
            "midi": 40,
            "name": "E2",
            "ticks": 52800,
            "time": 57.69225,
            "velocity": 0.3937007874015748
          },
          {
            "duration": 0.10489499999999907,
            "durationTicks": 96,
            "midi": 42,
            "name": "F#2",
            "ticks": 52992,
            "time": 57.90204,
            "velocity": 0.3937007874015748
          },
          {
            "duration": 0.10489499999999907,
            "durationTicks": 96,
            "midi": 35,
            "name": "B1",
            "ticks": 52992,
            "time": 57.90204,
            "velocity": 0.3937007874015748
          },
          {
            "duration": 0.10489499999999907,
            "durationTicks": 96,
            "midi": 35,
            "name": "B1",
            "ticks": 53088,
            "time": 58.006935,
            "velocity": 0.3937007874015748
          },
          {
            "duration": 0.10489499999999907,
            "durationTicks": 96,
            "midi": 42,
            "name": "F#2",
            "ticks": 53088,
            "time": 58.006935,
            "velocity": 0.3937007874015748
          },
          {
            "duration": 0.10489500000000618,
            "durationTicks": 96,
            "midi": 40,
            "name": "E2",
            "ticks": 53184,
            "time": 58.11183,
            "velocity": 0.3937007874015748
          },
          {
            "duration": 0.4195800000000034,
            "durationTicks": 384,
            "midi": 60,
            "name": "C4",
            "ticks": 53184,
            "time": 58.11183,
            "velocity": 0.3937007874015748
          },
          {
            "duration": 0.10489500000000618,
            "durationTicks": 96,
            "midi": 46,
            "name": "A#2",
            "ticks": 53184,
            "time": 58.11183,
            "velocity": 0.3937007874015748
          },
          {
            "duration": 0.10489499999999907,
            "durationTicks": 96,
            "midi": 35,
            "name": "B1",
            "ticks": 53280,
            "time": 58.216725000000004,
            "velocity": 0.3937007874015748
          },
          {
            "duration": 0.10489499999999907,
            "durationTicks": 96,
            "midi": 42,
            "name": "F#2",
            "ticks": 53280,
            "time": 58.216725000000004,
            "velocity": 0.3937007874015748
          },
          {
            "duration": 0.10489499999999907,
            "durationTicks": 96,
            "midi": 35,
            "name": "B1",
            "ticks": 53472,
            "time": 58.426515,
            "velocity": 0.3937007874015748
          },
          {
            "duration": 0.10489499999999907,
            "durationTicks": 96,
            "midi": 42,
            "name": "F#2",
            "ticks": 53472,
            "time": 58.426515,
            "velocity": 0.3937007874015748
          },
          {
            "duration": 0.10489499999999907,
            "durationTicks": 96,
            "midi": 40,
            "name": "E2",
            "ticks": 53568,
            "time": 58.53141,
            "velocity": 0.3937007874015748
          },
          {
            "duration": 0.20978999999999814,
            "durationTicks": 192,
            "midi": 62,
            "name": "D4",
            "ticks": 53568,
            "time": 58.53141,
            "velocity": 0.3937007874015748
          },
          {
            "duration": 0.10489499999999907,
            "durationTicks": 96,
            "midi": 46,
            "name": "A#2",
            "ticks": 53568,
            "time": 58.53141,
            "velocity": 0.3937007874015748
          },
          {
            "duration": 0.10489499999999907,
            "durationTicks": 96,
            "midi": 35,
            "name": "B1",
            "ticks": 53760,
            "time": 58.7412,
            "velocity": 0.3937007874015748
          },
          {
            "duration": 0.10489499999999907,
            "durationTicks": 96,
            "midi": 42,
            "name": "F#2",
            "ticks": 53760,
            "time": 58.7412,
            "velocity": 0.3937007874015748
          },
          {
            "duration": 0.10489499999999907,
            "durationTicks": 96,
            "midi": 40,
            "name": "E2",
            "ticks": 53952,
            "time": 58.950990000000004,
            "velocity": 0.3937007874015748
          },
          {
            "duration": 0.10489499999999907,
            "durationTicks": 96,
            "midi": 46,
            "name": "A#2",
            "ticks": 53952,
            "time": 58.950990000000004,
            "velocity": 0.3937007874015748
          },
          {
            "duration": 0.10489499999999907,
            "durationTicks": 96,
            "midi": 42,
            "name": "F#2",
            "ticks": 54144,
            "time": 59.16078,
            "velocity": 0.3937007874015748
          },
          {
            "duration": 0.10489499999999907,
            "durationTicks": 96,
            "midi": 35,
            "name": "B1",
            "ticks": 54144,
            "time": 59.16078,
            "velocity": 0.3937007874015748
          },
          {
            "duration": 0.10489499999999907,
            "durationTicks": 96,
            "midi": 35,
            "name": "B1",
            "ticks": 54240,
            "time": 59.265675,
            "velocity": 0.3937007874015748
          },
          {
            "duration": 0.10489499999999907,
            "durationTicks": 96,
            "midi": 42,
            "name": "F#2",
            "ticks": 54240,
            "time": 59.265675,
            "velocity": 0.3937007874015748
          },
          {
            "duration": 0.10489499999999907,
            "durationTicks": 96,
            "midi": 40,
            "name": "E2",
            "ticks": 54336,
            "time": 59.37057,
            "velocity": 0.3937007874015748
          },
          {
            "duration": 0.10489499999999907,
            "durationTicks": 96,
            "midi": 46,
            "name": "A#2",
            "ticks": 54336,
            "time": 59.37057,
            "velocity": 0.3937007874015748
          },
          {
            "duration": 0.10489499999999907,
            "durationTicks": 96,
            "midi": 35,
            "name": "B1",
            "ticks": 54528,
            "time": 59.58036,
            "velocity": 0.3937007874015748
          },
          {
            "duration": 0.10489499999999907,
            "durationTicks": 96,
            "midi": 42,
            "name": "F#2",
            "ticks": 54528,
            "time": 59.58036,
            "velocity": 0.3937007874015748
          },
          {
            "duration": 0.10489500000000618,
            "durationTicks": 96,
            "midi": 35,
            "name": "B1",
            "ticks": 54624,
            "time": 59.685255,
            "velocity": 0.3937007874015748
          },
          {
            "duration": 0.10489500000000618,
            "durationTicks": 96,
            "midi": 42,
            "name": "F#2",
            "ticks": 54624,
            "time": 59.685255,
            "velocity": 0.3937007874015748
          },
          {
            "duration": 0.10489499999999907,
            "durationTicks": 96,
            "midi": 46,
            "name": "A#2",
            "ticks": 54720,
            "time": 59.790150000000004,
            "velocity": 0.3937007874015748
          },
          {
            "duration": 0.10489499999999907,
            "durationTicks": 96,
            "midi": 40,
            "name": "E2",
            "ticks": 54720,
            "time": 59.790150000000004,
            "velocity": 0.3937007874015748
          },
          {
            "duration": 0.10489499999999907,
            "durationTicks": 96,
            "midi": 42,
            "name": "F#2",
            "ticks": 54816,
            "time": 59.895045,
            "velocity": 0.3937007874015748
          },
          {
            "duration": 0.10489499999999907,
            "durationTicks": 96,
            "midi": 35,
            "name": "B1",
            "ticks": 54816,
            "time": 59.895045,
            "velocity": 0.3937007874015748
          },
          {
            "duration": 0.10489499999999907,
            "durationTicks": 96,
            "midi": 35,
            "name": "B1",
            "ticks": 55008,
            "time": 60.104835,
            "velocity": 0.3937007874015748
          },
          {
            "duration": 0.10489499999999907,
            "durationTicks": 96,
            "midi": 42,
            "name": "F#2",
            "ticks": 55008,
            "time": 60.104835,
            "velocity": 0.3937007874015748
          },
          {
            "duration": 0.10489499999999907,
            "durationTicks": 96,
            "midi": 46,
            "name": "A#2",
            "ticks": 55104,
            "time": 60.20973,
            "velocity": 0.3937007874015748
          },
          {
            "duration": 0.10489499999999907,
            "durationTicks": 96,
            "midi": 40,
            "name": "E2",
            "ticks": 55104,
            "time": 60.20973,
            "velocity": 0.3937007874015748
          },
          {
            "duration": 0.10489500000000618,
            "durationTicks": 96,
            "midi": 42,
            "name": "F#2",
            "ticks": 55296,
            "time": 60.41952,
            "velocity": 0.3937007874015748
          },
          {
            "duration": 0.10489500000000618,
            "durationTicks": 96,
            "midi": 35,
            "name": "B1",
            "ticks": 55296,
            "time": 60.41952,
            "velocity": 0.3937007874015748
          },
          {
            "duration": 0.10489500000000618,
            "durationTicks": 96,
            "midi": 46,
            "name": "A#2",
            "ticks": 55296,
            "time": 60.41952,
            "velocity": 0.3937007874015748
          },
          {
            "duration": 0.10489500000000618,
            "durationTicks": 96,
            "midi": 40,
            "name": "E2",
            "ticks": 55296,
            "time": 60.41952,
            "velocity": 0.3937007874015748
          },
          {
            "duration": 0.10489500000000618,
            "durationTicks": 96,
            "midi": 35,
            "name": "B1",
            "ticks": 55344,
            "time": 60.4719675,
            "velocity": 0.3937007874015748
          },
          {
            "duration": 0.10489500000000618,
            "durationTicks": 96,
            "midi": 40,
            "name": "E2",
            "ticks": 55344,
            "time": 60.4719675,
            "velocity": 0.3937007874015748
          },
          {
            "duration": 0.10489500000000618,
            "durationTicks": 96,
            "midi": 46,
            "name": "A#2",
            "ticks": 55344,
            "time": 60.4719675,
            "velocity": 0.3937007874015748
          },
          {
            "duration": 0.10489500000000618,
            "durationTicks": 96,
            "midi": 42,
            "name": "F#2",
            "ticks": 55344,
            "time": 60.4719675,
            "velocity": 0.3937007874015748
          },
          {
            "duration": 0.10489499999999907,
            "durationTicks": 96,
            "midi": 40,
            "name": "E2",
            "ticks": 55392,
            "time": 60.524415000000005,
            "velocity": 0.3937007874015748
          },
          {
            "duration": 0.10489499999999907,
            "durationTicks": 96,
            "midi": 46,
            "name": "A#2",
            "ticks": 55392,
            "time": 60.524415000000005,
            "velocity": 0.3937007874015748
          },
          {
            "duration": 0.10489499999999907,
            "durationTicks": 96,
            "midi": 42,
            "name": "F#2",
            "ticks": 55392,
            "time": 60.524415000000005,
            "velocity": 0.3937007874015748
          },
          {
            "duration": 0.10489499999999907,
            "durationTicks": 96,
            "midi": 35,
            "name": "B1",
            "ticks": 55392,
            "time": 60.524415000000005,
            "velocity": 0.3937007874015748
          },
          {
            "duration": 0.10489499999999907,
            "durationTicks": 96,
            "midi": 35,
            "name": "B1",
            "ticks": 55440,
            "time": 60.576862500000004,
            "velocity": 0.3937007874015748
          },
          {
            "duration": 0.10489499999999907,
            "durationTicks": 96,
            "midi": 40,
            "name": "E2",
            "ticks": 55440,
            "time": 60.576862500000004,
            "velocity": 0.3937007874015748
          },
          {
            "duration": 0.10489499999999907,
            "durationTicks": 96,
            "midi": 46,
            "name": "A#2",
            "ticks": 55440,
            "time": 60.576862500000004,
            "velocity": 0.3937007874015748
          },
          {
            "duration": 0.10489499999999907,
            "durationTicks": 96,
            "midi": 42,
            "name": "F#2",
            "ticks": 55440,
            "time": 60.576862500000004,
            "velocity": 0.3937007874015748
          },
          {
            "duration": 0.10489499999999907,
            "durationTicks": 96,
            "midi": 40,
            "name": "E2",
            "ticks": 55488,
            "time": 60.629310000000004,
            "velocity": 0.3937007874015748
          },
          {
            "duration": 0.10489499999999907,
            "durationTicks": 96,
            "midi": 46,
            "name": "A#2",
            "ticks": 55488,
            "time": 60.629310000000004,
            "velocity": 0.3937007874015748
          },
          {
            "duration": 0.10489499999999907,
            "durationTicks": 96,
            "midi": 35,
            "name": "B1",
            "ticks": 55488,
            "time": 60.629310000000004,
            "velocity": 0.3937007874015748
          },
          {
            "duration": 0.10489499999999907,
            "durationTicks": 96,
            "midi": 42,
            "name": "F#2",
            "ticks": 55488,
            "time": 60.629310000000004,
            "velocity": 0.3937007874015748
          },
          {
            "duration": 0.10489499999999907,
            "durationTicks": 96,
            "midi": 35,
            "name": "B1",
            "ticks": 55536,
            "time": 60.6817575,
            "velocity": 0.3937007874015748
          },
          {
            "duration": 0.10489499999999907,
            "durationTicks": 96,
            "midi": 42,
            "name": "F#2",
            "ticks": 55536,
            "time": 60.6817575,
            "velocity": 0.3937007874015748
          },
          {
            "duration": 0.10489499999999907,
            "durationTicks": 96,
            "midi": 46,
            "name": "A#2",
            "ticks": 55536,
            "time": 60.6817575,
            "velocity": 0.3937007874015748
          },
          {
            "duration": 0.10489499999999907,
            "durationTicks": 96,
            "midi": 40,
            "name": "E2",
            "ticks": 55536,
            "time": 60.6817575,
            "velocity": 0.3937007874015748
          },
          {
            "duration": 0.10489499999999907,
            "durationTicks": 96,
            "midi": 35,
            "name": "B1",
            "ticks": 55584,
            "time": 60.734205,
            "velocity": 0.3937007874015748
          },
          {
            "duration": 0.10489499999999907,
            "durationTicks": 96,
            "midi": 42,
            "name": "F#2",
            "ticks": 55584,
            "time": 60.734205,
            "velocity": 0.3937007874015748
          },
          {
            "duration": 0.10489499999999907,
            "durationTicks": 96,
            "midi": 46,
            "name": "A#2",
            "ticks": 55584,
            "time": 60.734205,
            "velocity": 0.3937007874015748
          },
          {
            "duration": 0.10489499999999907,
            "durationTicks": 96,
            "midi": 40,
            "name": "E2",
            "ticks": 55584,
            "time": 60.734205,
            "velocity": 0.3937007874015748
          },
          {
            "duration": 0.10489499999999907,
            "durationTicks": 96,
            "midi": 40,
            "name": "E2",
            "ticks": 55632,
            "time": 60.7866525,
            "velocity": 0.3937007874015748
          },
          {
            "duration": 0.10489499999999907,
            "durationTicks": 96,
            "midi": 42,
            "name": "F#2",
            "ticks": 55632,
            "time": 60.7866525,
            "velocity": 0.3937007874015748
          },
          {
            "duration": 0.10489499999999907,
            "durationTicks": 96,
            "midi": 35,
            "name": "B1",
            "ticks": 55632,
            "time": 60.7866525,
            "velocity": 0.3937007874015748
          },
          {
            "duration": 0.10489499999999907,
            "durationTicks": 96,
            "midi": 46,
            "name": "A#2",
            "ticks": 55632,
            "time": 60.7866525,
            "velocity": 0.3937007874015748
          },
          {
            "duration": 0.10489499999999907,
            "durationTicks": 96,
            "midi": 35,
            "name": "B1",
            "ticks": 55680,
            "time": 60.8391,
            "velocity": 0.3937007874015748
          },
          {
            "duration": 0.10489499999999907,
            "durationTicks": 96,
            "midi": 40,
            "name": "E2",
            "ticks": 55680,
            "time": 60.8391,
            "velocity": 0.3937007874015748
          },
          {
            "duration": 0.10489499999999907,
            "durationTicks": 96,
            "midi": 46,
            "name": "A#2",
            "ticks": 55680,
            "time": 60.8391,
            "velocity": 0.3937007874015748
          },
          {
            "duration": 0.10489499999999907,
            "durationTicks": 96,
            "midi": 42,
            "name": "F#2",
            "ticks": 55680,
            "time": 60.8391,
            "velocity": 0.3937007874015748
          },
          {
            "duration": 0.10489499999999907,
            "durationTicks": 96,
            "midi": 42,
            "name": "F#2",
            "ticks": 55728,
            "time": 60.8915475,
            "velocity": 0.3937007874015748
          },
          {
            "duration": 0.10489499999999907,
            "durationTicks": 96,
            "midi": 40,
            "name": "E2",
            "ticks": 55728,
            "time": 60.8915475,
            "velocity": 0.3937007874015748
          },
          {
            "duration": 0.10489499999999907,
            "durationTicks": 96,
            "midi": 35,
            "name": "B1",
            "ticks": 55728,
            "time": 60.8915475,
            "velocity": 0.3937007874015748
          },
          {
            "duration": 0.10489499999999907,
            "durationTicks": 96,
            "midi": 46,
            "name": "A#2",
            "ticks": 55728,
            "time": 60.8915475,
            "velocity": 0.3937007874015748
          },
          {
            "duration": 0.10489499999999907,
            "durationTicks": 96,
            "midi": 46,
            "name": "A#2",
            "ticks": 55776,
            "time": 60.943995,
            "velocity": 0.3937007874015748
          },
          {
            "duration": 0.10489499999999907,
            "durationTicks": 96,
            "midi": 35,
            "name": "B1",
            "ticks": 55776,
            "time": 60.943995,
            "velocity": 0.3937007874015748
          },
          {
            "duration": 0.10489499999999907,
            "durationTicks": 96,
            "midi": 40,
            "name": "E2",
            "ticks": 55776,
            "time": 60.943995,
            "velocity": 0.3937007874015748
          },
          {
            "duration": 0.10489499999999907,
            "durationTicks": 96,
            "midi": 42,
            "name": "F#2",
            "ticks": 55776,
            "time": 60.943995,
            "velocity": 0.3937007874015748
          },
          {
            "duration": 0.10489499999999907,
            "durationTicks": 96,
            "midi": 42,
            "name": "F#2",
            "ticks": 55824,
            "time": 60.9964425,
            "velocity": 0.3937007874015748
          },
          {
            "duration": 0.10489499999999907,
            "durationTicks": 96,
            "midi": 46,
            "name": "A#2",
            "ticks": 55824,
            "time": 60.9964425,
            "velocity": 0.3937007874015748
          },
          {
            "duration": 0.10489499999999907,
            "durationTicks": 96,
            "midi": 40,
            "name": "E2",
            "ticks": 55824,
            "time": 60.9964425,
            "velocity": 0.3937007874015748
          },
          {
            "duration": 0.10489499999999907,
            "durationTicks": 96,
            "midi": 35,
            "name": "B1",
            "ticks": 55824,
            "time": 60.9964425,
            "velocity": 0.3937007874015748
          },
          {
            "duration": 0.10489499999999907,
            "durationTicks": 96,
            "midi": 42,
            "name": "F#2",
            "ticks": 55872,
            "time": 61.04889,
            "velocity": 0.3937007874015748
          },
          {
            "duration": 0.10489499999999907,
            "durationTicks": 96,
            "midi": 40,
            "name": "E2",
            "ticks": 55872,
            "time": 61.04889,
            "velocity": 0.3937007874015748
          },
          {
            "duration": 0.10489499999999907,
            "durationTicks": 96,
            "midi": 35,
            "name": "B1",
            "ticks": 55872,
            "time": 61.04889,
            "velocity": 0.3937007874015748
          },
          {
            "duration": 0.10489499999999907,
            "durationTicks": 96,
            "midi": 46,
            "name": "A#2",
            "ticks": 55872,
            "time": 61.04889,
            "velocity": 0.3937007874015748
          },
          {
            "duration": 0.10489499999999907,
            "durationTicks": 96,
            "midi": 42,
            "name": "F#2",
            "ticks": 55920,
            "time": 61.1013375,
            "velocity": 0.3937007874015748
          },
          {
            "duration": 0.10489499999999907,
            "durationTicks": 96,
            "midi": 35,
            "name": "B1",
            "ticks": 55920,
            "time": 61.1013375,
            "velocity": 0.3937007874015748
          },
          {
            "duration": 0.10489499999999907,
            "durationTicks": 96,
            "midi": 46,
            "name": "A#2",
            "ticks": 55920,
            "time": 61.1013375,
            "velocity": 0.3937007874015748
          },
          {
            "duration": 0.10489499999999907,
            "durationTicks": 96,
            "midi": 40,
            "name": "E2",
            "ticks": 55920,
            "time": 61.1013375,
            "velocity": 0.3937007874015748
          },
          {
            "duration": 0.10489499999999907,
            "durationTicks": 96,
            "midi": 42,
            "name": "F#2",
            "ticks": 55968,
            "time": 61.153785,
            "velocity": 0.3937007874015748
          },
          {
            "duration": 0.10489499999999907,
            "durationTicks": 96,
            "midi": 46,
            "name": "A#2",
            "ticks": 55968,
            "time": 61.153785,
            "velocity": 0.3937007874015748
          },
          {
            "duration": 0.10489499999999907,
            "durationTicks": 96,
            "midi": 40,
            "name": "E2",
            "ticks": 55968,
            "time": 61.153785,
            "velocity": 0.3937007874015748
          },
          {
            "duration": 0.10489499999999907,
            "durationTicks": 96,
            "midi": 35,
            "name": "B1",
            "ticks": 55968,
            "time": 61.153785,
            "velocity": 0.3937007874015748
          },
          {
            "duration": 0.10489499999999907,
            "durationTicks": 96,
            "midi": 40,
            "name": "E2",
            "ticks": 56016,
            "time": 61.2062325,
            "velocity": 0.3937007874015748
          },
          {
            "duration": 0.10489499999999907,
            "durationTicks": 96,
            "midi": 46,
            "name": "A#2",
            "ticks": 56016,
            "time": 61.2062325,
            "velocity": 0.3937007874015748
          },
          {
            "duration": 0.10489499999999907,
            "durationTicks": 96,
            "midi": 35,
            "name": "B1",
            "ticks": 56016,
            "time": 61.2062325,
            "velocity": 0.3937007874015748
          },
          {
            "duration": 0.10489499999999907,
            "durationTicks": 96,
            "midi": 42,
            "name": "F#2",
            "ticks": 56016,
            "time": 61.2062325,
            "velocity": 0.3937007874015748
          },
          {
            "duration": 0.20979000000000525,
            "durationTicks": 192,
            "midi": 46,
            "name": "A#2",
            "ticks": 56064,
            "time": 61.25868,
            "velocity": 0.3937007874015748
          },
          {
            "duration": 0.20979000000000525,
            "durationTicks": 192,
            "midi": 35,
            "name": "B1",
            "ticks": 56064,
            "time": 61.25868,
            "velocity": 0.3937007874015748
          },
          {
            "duration": 0.20979000000000525,
            "durationTicks": 192,
            "midi": 42,
            "name": "F#2",
            "ticks": 56064,
            "time": 61.25868,
            "velocity": 0.3937007874015748
          },
          {
            "duration": 0.20979000000000525,
            "durationTicks": 192,
            "midi": 40,
            "name": "E2",
            "ticks": 56064,
            "time": 61.25868,
            "velocity": 0.3937007874015748
          },
          {
            "duration": 0.20978999999999814,
            "durationTicks": 192,
            "midi": 46,
            "name": "A#2",
            "ticks": 56256,
            "time": 61.46847,
            "velocity": 0.3937007874015748
          },
          {
            "duration": 0.20978999999999814,
            "durationTicks": 192,
            "midi": 42,
            "name": "F#2",
            "ticks": 56256,
            "time": 61.46847,
            "velocity": 0.3937007874015748
          },
          {
            "duration": 0.20978999999999814,
            "durationTicks": 192,
            "midi": 40,
            "name": "E2",
            "ticks": 56256,
            "time": 61.46847,
            "velocity": 0.3937007874015748
          },
          {
            "duration": 0.20978999999999814,
            "durationTicks": 192,
            "midi": 35,
            "name": "B1",
            "ticks": 56256,
            "time": 61.46847,
            "velocity": 0.3937007874015748
          },
          {
            "duration": 0.20978999999999814,
            "durationTicks": 192,
            "midi": 35,
            "name": "B1",
            "ticks": 56448,
            "time": 61.67826,
            "velocity": 0.3937007874015748
          },
          {
            "duration": 0.20978999999999814,
            "durationTicks": 192,
            "midi": 40,
            "name": "E2",
            "ticks": 56448,
            "time": 61.67826,
            "velocity": 0.3937007874015748
          },
          {
            "duration": 0.20978999999999814,
            "durationTicks": 192,
            "midi": 42,
            "name": "F#2",
            "ticks": 56448,
            "time": 61.67826,
            "velocity": 0.3937007874015748
          },
          {
            "duration": 0.20978999999999814,
            "durationTicks": 192,
            "midi": 46,
            "name": "A#2",
            "ticks": 56448,
            "time": 61.67826,
            "velocity": 0.3937007874015748
          },
          {
            "duration": 0.20978999999999814,
            "durationTicks": 192,
            "midi": 42,
            "name": "F#2",
            "ticks": 56640,
            "time": 61.88805,
            "velocity": 0.3937007874015748
          },
          {
            "duration": 0.20978999999999814,
            "durationTicks": 192,
            "midi": 46,
            "name": "A#2",
            "ticks": 56640,
            "time": 61.88805,
            "velocity": 0.3937007874015748
          },
          {
            "duration": 0.20978999999999814,
            "durationTicks": 192,
            "midi": 40,
            "name": "E2",
            "ticks": 56640,
            "time": 61.88805,
            "velocity": 0.3937007874015748
          },
          {
            "duration": 0.20978999999999814,
            "durationTicks": 192,
            "midi": 35,
            "name": "B1",
            "ticks": 56640,
            "time": 61.88805,
            "velocity": 0.3937007874015748
          },
          {
            "duration": 0.10489500000000618,
            "durationTicks": 96,
            "midi": 42,
            "name": "F#2",
            "ticks": 56832,
            "time": 62.09784,
            "velocity": 0.3937007874015748
          },
          {
            "duration": 0.10489500000000618,
            "durationTicks": 96,
            "midi": 35,
            "name": "B1",
            "ticks": 56832,
            "time": 62.09784,
            "velocity": 0.3937007874015748
          },
          {
            "duration": 0.10489499999999907,
            "durationTicks": 96,
            "midi": 46,
            "name": "A#2",
            "ticks": 57024,
            "time": 62.30763,
            "velocity": 0.3937007874015748
          },
          {
            "duration": 0.10489499999999907,
            "durationTicks": 96,
            "midi": 40,
            "name": "E2",
            "ticks": 57024,
            "time": 62.30763,
            "velocity": 0.3937007874015748
          },
          {
            "duration": 0.10489499999999907,
            "durationTicks": 96,
            "midi": 42,
            "name": "F#2",
            "ticks": 57216,
            "time": 62.51742,
            "velocity": 0.3937007874015748
          },
          {
            "duration": 0.10489499999999907,
            "durationTicks": 96,
            "midi": 35,
            "name": "B1",
            "ticks": 57216,
            "time": 62.51742,
            "velocity": 0.3937007874015748
          },
          {
            "duration": 0.10489499999999907,
            "durationTicks": 96,
            "midi": 35,
            "name": "B1",
            "ticks": 57312,
            "time": 62.622315,
            "velocity": 0.3937007874015748
          },
          {
            "duration": 0.10489499999999907,
            "durationTicks": 96,
            "midi": 42,
            "name": "F#2",
            "ticks": 57312,
            "time": 62.622315,
            "velocity": 0.3937007874015748
          },
          {
            "duration": 0.10489499999999907,
            "durationTicks": 96,
            "midi": 40,
            "name": "E2",
            "ticks": 57408,
            "time": 62.72721,
            "velocity": 0.3937007874015748
          },
          {
            "duration": 0.10489499999999907,
            "durationTicks": 96,
            "midi": 46,
            "name": "A#2",
            "ticks": 57408,
            "time": 62.72721,
            "velocity": 0.3937007874015748
          },
          {
            "duration": 0.10489499999999907,
            "durationTicks": 96,
            "midi": 42,
            "name": "F#2",
            "ticks": 57600,
            "time": 62.937000000000005,
            "velocity": 0.3937007874015748
          },
          {
            "duration": 0.10489499999999907,
            "durationTicks": 96,
            "midi": 35,
            "name": "B1",
            "ticks": 57600,
            "time": 62.937000000000005,
            "velocity": 0.3937007874015748
          },
          {
            "duration": 0.10489499999999907,
            "durationTicks": 96,
            "midi": 35,
            "name": "B1",
            "ticks": 57696,
            "time": 63.041895000000004,
            "velocity": 0.3937007874015748
          },
          {
            "duration": 0.10489499999999907,
            "durationTicks": 96,
            "midi": 42,
            "name": "F#2",
            "ticks": 57696,
            "time": 63.041895000000004,
            "velocity": 0.3937007874015748
          },
          {
            "duration": 0.10489499999999907,
            "durationTicks": 96,
            "midi": 46,
            "name": "A#2",
            "ticks": 57792,
            "time": 63.14679,
            "velocity": 0.3937007874015748
          },
          {
            "duration": 0.10489499999999907,
            "durationTicks": 96,
            "midi": 40,
            "name": "E2",
            "ticks": 57792,
            "time": 63.14679,
            "velocity": 0.3937007874015748
          },
          {
            "duration": 0.10489499999999907,
            "durationTicks": 96,
            "midi": 35,
            "name": "B1",
            "ticks": 57888,
            "time": 63.251685,
            "velocity": 0.3937007874015748
          },
          {
            "duration": 0.10489499999999907,
            "durationTicks": 96,
            "midi": 42,
            "name": "F#2",
            "ticks": 57888,
            "time": 63.251685,
            "velocity": 0.3937007874015748
          },
          {
            "duration": 0.10489499999999907,
            "durationTicks": 96,
            "midi": 35,
            "name": "B1",
            "ticks": 58080,
            "time": 63.461475,
            "velocity": 0.3937007874015748
          },
          {
            "duration": 0.10489499999999907,
            "durationTicks": 96,
            "midi": 42,
            "name": "F#2",
            "ticks": 58080,
            "time": 63.461475,
            "velocity": 0.3937007874015748
          },
          {
            "duration": 0.10489499999999907,
            "durationTicks": 96,
            "midi": 40,
            "name": "E2",
            "ticks": 58176,
            "time": 63.56637,
            "velocity": 0.3937007874015748
          },
          {
            "duration": 0.10489499999999907,
            "durationTicks": 96,
            "midi": 46,
            "name": "A#2",
            "ticks": 58176,
            "time": 63.56637,
            "velocity": 0.3937007874015748
          },
          {
            "duration": 0.10489499999999907,
            "durationTicks": 96,
            "midi": 35,
            "name": "B1",
            "ticks": 58368,
            "time": 63.776160000000004,
            "velocity": 0.3937007874015748
          },
          {
            "duration": 0.10489499999999907,
            "durationTicks": 96,
            "midi": 42,
            "name": "F#2",
            "ticks": 58368,
            "time": 63.776160000000004,
            "velocity": 0.3937007874015748
          },
          {
            "duration": 0.6293699999999944,
            "durationTicks": 576,
            "midi": 50,
            "name": "D3",
            "ticks": 58368,
            "time": 63.776160000000004,
            "velocity": 0.3937007874015748
          },
          {
            "duration": 0.10489499999999907,
            "durationTicks": 96,
            "midi": 46,
            "name": "A#2",
            "ticks": 58560,
            "time": 63.98595,
            "velocity": 0.3937007874015748
          },
          {
            "duration": 0.10489499999999907,
            "durationTicks": 96,
            "midi": 40,
            "name": "E2",
            "ticks": 58560,
            "time": 63.98595,
            "velocity": 0.3937007874015748
          },
          {
            "duration": 0.10489499999999907,
            "durationTicks": 96,
            "midi": 35,
            "name": "B1",
            "ticks": 58752,
            "time": 64.19574,
            "velocity": 0.3937007874015748
          },
          {
            "duration": 0.10489499999999907,
            "durationTicks": 96,
            "midi": 42,
            "name": "F#2",
            "ticks": 58752,
            "time": 64.19574,
            "velocity": 0.3937007874015748
          },
          {
            "duration": 0.10489499999999907,
            "durationTicks": 96,
            "midi": 42,
            "name": "F#2",
            "ticks": 58848,
            "time": 64.300635,
            "velocity": 0.3937007874015748
          },
          {
            "duration": 0.10489499999999907,
            "durationTicks": 96,
            "midi": 35,
            "name": "B1",
            "ticks": 58848,
            "time": 64.300635,
            "velocity": 0.3937007874015748
          },
          {
            "duration": 0.10489499999999907,
            "durationTicks": 96,
            "midi": 46,
            "name": "A#2",
            "ticks": 58944,
            "time": 64.40553,
            "velocity": 0.3937007874015748
          },
          {
            "duration": 0.10489499999999907,
            "durationTicks": 96,
            "midi": 40,
            "name": "E2",
            "ticks": 58944,
            "time": 64.40553,
            "velocity": 0.3937007874015748
          },
          {
            "duration": 0.4195799999999963,
            "durationTicks": 384,
            "midi": 62,
            "name": "D4",
            "ticks": 58944,
            "time": 64.40553,
            "velocity": 0.3937007874015748
          },
          {
            "duration": 0.10489499999999907,
            "durationTicks": 96,
            "midi": 35,
            "name": "B1",
            "ticks": 59136,
            "time": 64.61532,
            "velocity": 0.3937007874015748
          },
          {
            "duration": 0.10489499999999907,
            "durationTicks": 96,
            "midi": 42,
            "name": "F#2",
            "ticks": 59136,
            "time": 64.61532,
            "velocity": 0.3937007874015748
          },
          {
            "duration": 0.10489499999999907,
            "durationTicks": 96,
            "midi": 42,
            "name": "F#2",
            "ticks": 59232,
            "time": 64.720215,
            "velocity": 0.3937007874015748
          },
          {
            "duration": 0.10489499999999907,
            "durationTicks": 96,
            "midi": 35,
            "name": "B1",
            "ticks": 59232,
            "time": 64.720215,
            "velocity": 0.3937007874015748
          },
          {
            "duration": 0.4195800000000105,
            "durationTicks": 384,
            "midi": 60,
            "name": "C4",
            "ticks": 59328,
            "time": 64.82511,
            "velocity": 0.3937007874015748
          },
          {
            "duration": 0.10489500000001328,
            "durationTicks": 96,
            "midi": 40,
            "name": "E2",
            "ticks": 59328,
            "time": 64.82511,
            "velocity": 0.3937007874015748
          },
          {
            "duration": 0.10489500000001328,
            "durationTicks": 96,
            "midi": 46,
            "name": "A#2",
            "ticks": 59328,
            "time": 64.82511,
            "velocity": 0.3937007874015748
          },
          {
            "duration": 0.10489499999999907,
            "durationTicks": 96,
            "midi": 35,
            "name": "B1",
            "ticks": 59424,
            "time": 64.93000500000001,
            "velocity": 0.3937007874015748
          },
          {
            "duration": 0.10489499999999907,
            "durationTicks": 96,
            "midi": 42,
            "name": "F#2",
            "ticks": 59424,
            "time": 64.93000500000001,
            "velocity": 0.3937007874015748
          },
          {
            "duration": 0.10489499999999907,
            "durationTicks": 96,
            "midi": 42,
            "name": "F#2",
            "ticks": 59616,
            "time": 65.139795,
            "velocity": 0.3937007874015748
          },
          {
            "duration": 0.10489499999999907,
            "durationTicks": 96,
            "midi": 35,
            "name": "B1",
            "ticks": 59616,
            "time": 65.139795,
            "velocity": 0.3937007874015748
          },
          {
            "duration": 0.10489499999999907,
            "durationTicks": 96,
            "midi": 46,
            "name": "A#2",
            "ticks": 59712,
            "time": 65.24469,
            "velocity": 0.3937007874015748
          },
          {
            "duration": 0.20978999999999814,
            "durationTicks": 192,
            "midi": 62,
            "name": "D4",
            "ticks": 59712,
            "time": 65.24469,
            "velocity": 0.3937007874015748
          },
          {
            "duration": 0.10489499999999907,
            "durationTicks": 96,
            "midi": 40,
            "name": "E2",
            "ticks": 59712,
            "time": 65.24469,
            "velocity": 0.3937007874015748
          },
          {
            "duration": 0.10489499999999907,
            "durationTicks": 96,
            "midi": 35,
            "name": "B1",
            "ticks": 59904,
            "time": 65.45448,
            "velocity": 0.3937007874015748
          },
          {
            "duration": 0.10489499999999907,
            "durationTicks": 96,
            "midi": 42,
            "name": "F#2",
            "ticks": 59904,
            "time": 65.45448,
            "velocity": 0.3937007874015748
          },
          {
            "duration": 0.10489499999999907,
            "durationTicks": 96,
            "midi": 40,
            "name": "E2",
            "ticks": 60096,
            "time": 65.66427,
            "velocity": 0.3937007874015748
          },
          {
            "duration": 0.10489499999999907,
            "durationTicks": 96,
            "midi": 46,
            "name": "A#2",
            "ticks": 60096,
            "time": 65.66427,
            "velocity": 0.3937007874015748
          },
          {
            "duration": 0.10489499999999907,
            "durationTicks": 96,
            "midi": 35,
            "name": "B1",
            "ticks": 60288,
            "time": 65.87406,
            "velocity": 0.3937007874015748
          },
          {
            "duration": 0.10489499999999907,
            "durationTicks": 96,
            "midi": 42,
            "name": "F#2",
            "ticks": 60288,
            "time": 65.87406,
            "velocity": 0.3937007874015748
          },
          {
            "duration": 0.10489499999999907,
            "durationTicks": 96,
            "midi": 42,
            "name": "F#2",
            "ticks": 60384,
            "time": 65.978955,
            "velocity": 0.3937007874015748
          },
          {
            "duration": 0.10489499999999907,
            "durationTicks": 96,
            "midi": 35,
            "name": "B1",
            "ticks": 60384,
            "time": 65.978955,
            "velocity": 0.3937007874015748
          },
          {
            "duration": 0.10489499999999907,
            "durationTicks": 96,
            "midi": 46,
            "name": "A#2",
            "ticks": 60480,
            "time": 66.08385,
            "velocity": 0.3937007874015748
          },
          {
            "duration": 0.10489499999999907,
            "durationTicks": 96,
            "midi": 40,
            "name": "E2",
            "ticks": 60480,
            "time": 66.08385,
            "velocity": 0.3937007874015748
          },
          {
            "duration": 0.10489499999999907,
            "durationTicks": 96,
            "midi": 35,
            "name": "B1",
            "ticks": 60672,
            "time": 66.29364,
            "velocity": 0.3937007874015748
          },
          {
            "duration": 0.10489499999999907,
            "durationTicks": 96,
            "midi": 42,
            "name": "F#2",
            "ticks": 60672,
            "time": 66.29364,
            "velocity": 0.3937007874015748
          },
          {
            "duration": 0.10489499999999907,
            "durationTicks": 96,
            "midi": 35,
            "name": "B1",
            "ticks": 60768,
            "time": 66.398535,
            "velocity": 0.3937007874015748
          },
          {
            "duration": 0.10489499999999907,
            "durationTicks": 96,
            "midi": 42,
            "name": "F#2",
            "ticks": 60768,
            "time": 66.398535,
            "velocity": 0.3937007874015748
          },
          {
            "duration": 0.10489500000001328,
            "durationTicks": 96,
            "midi": 40,
            "name": "E2",
            "ticks": 60864,
            "time": 66.50343,
            "velocity": 0.3937007874015748
          },
          {
            "duration": 0.10489500000001328,
            "durationTicks": 96,
            "midi": 46,
            "name": "A#2",
            "ticks": 60864,
            "time": 66.50343,
            "velocity": 0.3937007874015748
          },
          {
            "duration": 0.10489499999999907,
            "durationTicks": 96,
            "midi": 35,
            "name": "B1",
            "ticks": 60960,
            "time": 66.60832500000001,
            "velocity": 0.3937007874015748
          },
          {
            "duration": 0.10489499999999907,
            "durationTicks": 96,
            "midi": 42,
            "name": "F#2",
            "ticks": 60960,
            "time": 66.60832500000001,
            "velocity": 0.3937007874015748
          },
          {
            "duration": 0.10489499999999907,
            "durationTicks": 96,
            "midi": 42,
            "name": "F#2",
            "ticks": 61152,
            "time": 66.818115,
            "velocity": 0.3937007874015748
          },
          {
            "duration": 0.10489499999999907,
            "durationTicks": 96,
            "midi": 35,
            "name": "B1",
            "ticks": 61152,
            "time": 66.818115,
            "velocity": 0.3937007874015748
          },
          {
            "duration": 0.10489499999999907,
            "durationTicks": 96,
            "midi": 46,
            "name": "A#2",
            "ticks": 61248,
            "time": 66.92301,
            "velocity": 0.3937007874015748
          },
          {
            "duration": 0.10489499999999907,
            "durationTicks": 96,
            "midi": 40,
            "name": "E2",
            "ticks": 61248,
            "time": 66.92301,
            "velocity": 0.3937007874015748
          },
          {
            "duration": 0.10489499999999907,
            "durationTicks": 96,
            "midi": 40,
            "name": "E2",
            "ticks": 61440,
            "time": 67.1328,
            "velocity": 0.3937007874015748
          },
          {
            "duration": 0.10489499999999907,
            "durationTicks": 96,
            "midi": 42,
            "name": "F#2",
            "ticks": 61440,
            "time": 67.1328,
            "velocity": 0.3937007874015748
          },
          {
            "duration": 0.10489499999999907,
            "durationTicks": 96,
            "midi": 46,
            "name": "A#2",
            "ticks": 61440,
            "time": 67.1328,
            "velocity": 0.3937007874015748
          },
          {
            "duration": 0.10489499999999907,
            "durationTicks": 96,
            "midi": 35,
            "name": "B1",
            "ticks": 61440,
            "time": 67.1328,
            "velocity": 0.3937007874015748
          },
          {
            "duration": 0.10489499999999907,
            "durationTicks": 96,
            "midi": 35,
            "name": "B1",
            "ticks": 61488,
            "time": 67.1852475,
            "velocity": 0.3937007874015748
          },
          {
            "duration": 0.10489499999999907,
            "durationTicks": 96,
            "midi": 40,
            "name": "E2",
            "ticks": 61488,
            "time": 67.1852475,
            "velocity": 0.3937007874015748
          },
          {
            "duration": 0.10489499999999907,
            "durationTicks": 96,
            "midi": 42,
            "name": "F#2",
            "ticks": 61488,
            "time": 67.1852475,
            "velocity": 0.3937007874015748
          },
          {
            "duration": 0.10489499999999907,
            "durationTicks": 96,
            "midi": 46,
            "name": "A#2",
            "ticks": 61488,
            "time": 67.1852475,
            "velocity": 0.3937007874015748
          },
          {
            "duration": 0.10489499999999907,
            "durationTicks": 96,
            "midi": 42,
            "name": "F#2",
            "ticks": 61536,
            "time": 67.237695,
            "velocity": 0.3937007874015748
          },
          {
            "duration": 0.10489499999999907,
            "durationTicks": 96,
            "midi": 40,
            "name": "E2",
            "ticks": 61536,
            "time": 67.237695,
            "velocity": 0.3937007874015748
          },
          {
            "duration": 0.10489499999999907,
            "durationTicks": 96,
            "midi": 35,
            "name": "B1",
            "ticks": 61536,
            "time": 67.237695,
            "velocity": 0.3937007874015748
          },
          {
            "duration": 0.10489499999999907,
            "durationTicks": 96,
            "midi": 46,
            "name": "A#2",
            "ticks": 61536,
            "time": 67.237695,
            "velocity": 0.3937007874015748
          },
          {
            "duration": 0.10489499999999907,
            "durationTicks": 96,
            "midi": 40,
            "name": "E2",
            "ticks": 61584,
            "time": 67.2901425,
            "velocity": 0.3937007874015748
          },
          {
            "duration": 0.10489499999999907,
            "durationTicks": 96,
            "midi": 35,
            "name": "B1",
            "ticks": 61584,
            "time": 67.2901425,
            "velocity": 0.3937007874015748
          },
          {
            "duration": 0.10489499999999907,
            "durationTicks": 96,
            "midi": 42,
            "name": "F#2",
            "ticks": 61584,
            "time": 67.2901425,
            "velocity": 0.3937007874015748
          },
          {
            "duration": 0.10489499999999907,
            "durationTicks": 96,
            "midi": 46,
            "name": "A#2",
            "ticks": 61584,
            "time": 67.2901425,
            "velocity": 0.3937007874015748
          },
          {
            "duration": 0.10489499999999907,
            "durationTicks": 96,
            "midi": 35,
            "name": "B1",
            "ticks": 61632,
            "time": 67.34259,
            "velocity": 0.3937007874015748
          },
          {
            "duration": 0.10489499999999907,
            "durationTicks": 96,
            "midi": 42,
            "name": "F#2",
            "ticks": 61632,
            "time": 67.34259,
            "velocity": 0.3937007874015748
          },
          {
            "duration": 0.10489499999999907,
            "durationTicks": 96,
            "midi": 40,
            "name": "E2",
            "ticks": 61632,
            "time": 67.34259,
            "velocity": 0.3937007874015748
          },
          {
            "duration": 0.10489499999999907,
            "durationTicks": 96,
            "midi": 46,
            "name": "A#2",
            "ticks": 61632,
            "time": 67.34259,
            "velocity": 0.3937007874015748
          },
          {
            "duration": 0.10489499999999907,
            "durationTicks": 96,
            "midi": 35,
            "name": "B1",
            "ticks": 61680,
            "time": 67.3950375,
            "velocity": 0.3937007874015748
          },
          {
            "duration": 0.10489499999999907,
            "durationTicks": 96,
            "midi": 42,
            "name": "F#2",
            "ticks": 61680,
            "time": 67.3950375,
            "velocity": 0.3937007874015748
          },
          {
            "duration": 0.10489499999999907,
            "durationTicks": 96,
            "midi": 40,
            "name": "E2",
            "ticks": 61680,
            "time": 67.3950375,
            "velocity": 0.3937007874015748
          },
          {
            "duration": 0.10489499999999907,
            "durationTicks": 96,
            "midi": 46,
            "name": "A#2",
            "ticks": 61680,
            "time": 67.3950375,
            "velocity": 0.3937007874015748
          },
          {
            "duration": 0.10489499999999907,
            "durationTicks": 96,
            "midi": 35,
            "name": "B1",
            "ticks": 61728,
            "time": 67.447485,
            "velocity": 0.3937007874015748
          },
          {
            "duration": 0.10489499999999907,
            "durationTicks": 96,
            "midi": 40,
            "name": "E2",
            "ticks": 61728,
            "time": 67.447485,
            "velocity": 0.3937007874015748
          },
          {
            "duration": 0.10489499999999907,
            "durationTicks": 96,
            "midi": 46,
            "name": "A#2",
            "ticks": 61728,
            "time": 67.447485,
            "velocity": 0.3937007874015748
          },
          {
            "duration": 0.10489499999999907,
            "durationTicks": 96,
            "midi": 42,
            "name": "F#2",
            "ticks": 61728,
            "time": 67.447485,
            "velocity": 0.3937007874015748
          },
          {
            "duration": 0.10489499999999907,
            "durationTicks": 96,
            "midi": 35,
            "name": "B1",
            "ticks": 61776,
            "time": 67.4999325,
            "velocity": 0.3937007874015748
          },
          {
            "duration": 0.10489499999999907,
            "durationTicks": 96,
            "midi": 42,
            "name": "F#2",
            "ticks": 61776,
            "time": 67.4999325,
            "velocity": 0.3937007874015748
          },
          {
            "duration": 0.10489499999999907,
            "durationTicks": 96,
            "midi": 46,
            "name": "A#2",
            "ticks": 61776,
            "time": 67.4999325,
            "velocity": 0.3937007874015748
          },
          {
            "duration": 0.10489499999999907,
            "durationTicks": 96,
            "midi": 40,
            "name": "E2",
            "ticks": 61776,
            "time": 67.4999325,
            "velocity": 0.3937007874015748
          },
          {
            "duration": 0.10489499999999907,
            "durationTicks": 96,
            "midi": 35,
            "name": "B1",
            "ticks": 61824,
            "time": 67.55238,
            "velocity": 0.3937007874015748
          },
          {
            "duration": 0.10489499999999907,
            "durationTicks": 96,
            "midi": 42,
            "name": "F#2",
            "ticks": 61824,
            "time": 67.55238,
            "velocity": 0.3937007874015748
          },
          {
            "duration": 0.10489499999999907,
            "durationTicks": 96,
            "midi": 46,
            "name": "A#2",
            "ticks": 61824,
            "time": 67.55238,
            "velocity": 0.3937007874015748
          },
          {
            "duration": 0.10489499999999907,
            "durationTicks": 96,
            "midi": 40,
            "name": "E2",
            "ticks": 61824,
            "time": 67.55238,
            "velocity": 0.3937007874015748
          },
          {
            "duration": 0.10489499999999907,
            "durationTicks": 96,
            "midi": 35,
            "name": "B1",
            "ticks": 61872,
            "time": 67.6048275,
            "velocity": 0.3937007874015748
          },
          {
            "duration": 0.10489499999999907,
            "durationTicks": 96,
            "midi": 42,
            "name": "F#2",
            "ticks": 61872,
            "time": 67.6048275,
            "velocity": 0.3937007874015748
          },
          {
            "duration": 0.10489499999999907,
            "durationTicks": 96,
            "midi": 40,
            "name": "E2",
            "ticks": 61872,
            "time": 67.6048275,
            "velocity": 0.3937007874015748
          },
          {
            "duration": 0.10489499999999907,
            "durationTicks": 96,
            "midi": 46,
            "name": "A#2",
            "ticks": 61872,
            "time": 67.6048275,
            "velocity": 0.3937007874015748
          },
          {
            "duration": 0.10489499999999907,
            "durationTicks": 96,
            "midi": 40,
            "name": "E2",
            "ticks": 61920,
            "time": 67.657275,
            "velocity": 0.3937007874015748
          },
          {
            "duration": 0.10489499999999907,
            "durationTicks": 96,
            "midi": 35,
            "name": "B1",
            "ticks": 61920,
            "time": 67.657275,
            "velocity": 0.3937007874015748
          },
          {
            "duration": 0.10489499999999907,
            "durationTicks": 96,
            "midi": 42,
            "name": "F#2",
            "ticks": 61920,
            "time": 67.657275,
            "velocity": 0.3937007874015748
          },
          {
            "duration": 0.10489499999999907,
            "durationTicks": 96,
            "midi": 46,
            "name": "A#2",
            "ticks": 61920,
            "time": 67.657275,
            "velocity": 0.3937007874015748
          },
          {
            "duration": 0.10489499999999907,
            "durationTicks": 96,
            "midi": 46,
            "name": "A#2",
            "ticks": 61968,
            "time": 67.7097225,
            "velocity": 0.3937007874015748
          },
          {
            "duration": 0.10489499999999907,
            "durationTicks": 96,
            "midi": 42,
            "name": "F#2",
            "ticks": 61968,
            "time": 67.7097225,
            "velocity": 0.3937007874015748
          },
          {
            "duration": 0.10489499999999907,
            "durationTicks": 96,
            "midi": 40,
            "name": "E2",
            "ticks": 61968,
            "time": 67.7097225,
            "velocity": 0.3937007874015748
          },
          {
            "duration": 0.10489499999999907,
            "durationTicks": 96,
            "midi": 35,
            "name": "B1",
            "ticks": 61968,
            "time": 67.7097225,
            "velocity": 0.3937007874015748
          },
          {
            "duration": 0.10489499999999907,
            "durationTicks": 96,
            "midi": 35,
            "name": "B1",
            "ticks": 62016,
            "time": 67.76217,
            "velocity": 0.3937007874015748
          },
          {
            "duration": 0.10489499999999907,
            "durationTicks": 96,
            "midi": 46,
            "name": "A#2",
            "ticks": 62016,
            "time": 67.76217,
            "velocity": 0.3937007874015748
          },
          {
            "duration": 0.10489499999999907,
            "durationTicks": 96,
            "midi": 42,
            "name": "F#2",
            "ticks": 62016,
            "time": 67.76217,
            "velocity": 0.3937007874015748
          },
          {
            "duration": 0.10489499999999907,
            "durationTicks": 96,
            "midi": 40,
            "name": "E2",
            "ticks": 62016,
            "time": 67.76217,
            "velocity": 0.3937007874015748
          },
          {
            "duration": 0.10489499999999907,
            "durationTicks": 96,
            "midi": 46,
            "name": "A#2",
            "ticks": 62064,
            "time": 67.8146175,
            "velocity": 0.3937007874015748
          },
          {
            "duration": 0.10489499999999907,
            "durationTicks": 96,
            "midi": 35,
            "name": "B1",
            "ticks": 62064,
            "time": 67.8146175,
            "velocity": 0.3937007874015748
          },
          {
            "duration": 0.10489499999999907,
            "durationTicks": 96,
            "midi": 40,
            "name": "E2",
            "ticks": 62064,
            "time": 67.8146175,
            "velocity": 0.3937007874015748
          },
          {
            "duration": 0.10489499999999907,
            "durationTicks": 96,
            "midi": 42,
            "name": "F#2",
            "ticks": 62064,
            "time": 67.8146175,
            "velocity": 0.3937007874015748
          },
          {
            "duration": 0.10489499999999907,
            "durationTicks": 96,
            "midi": 35,
            "name": "B1",
            "ticks": 62112,
            "time": 67.867065,
            "velocity": 0.3937007874015748
          },
          {
            "duration": 0.10489499999999907,
            "durationTicks": 96,
            "midi": 46,
            "name": "A#2",
            "ticks": 62112,
            "time": 67.867065,
            "velocity": 0.3937007874015748
          },
          {
            "duration": 0.10489499999999907,
            "durationTicks": 96,
            "midi": 42,
            "name": "F#2",
            "ticks": 62112,
            "time": 67.867065,
            "velocity": 0.3937007874015748
          },
          {
            "duration": 0.10489499999999907,
            "durationTicks": 96,
            "midi": 40,
            "name": "E2",
            "ticks": 62112,
            "time": 67.867065,
            "velocity": 0.3937007874015748
          },
          {
            "duration": 0.10489499999999907,
            "durationTicks": 96,
            "midi": 35,
            "name": "B1",
            "ticks": 62160,
            "time": 67.9195125,
            "velocity": 0.3937007874015748
          },
          {
            "duration": 0.10489499999999907,
            "durationTicks": 96,
            "midi": 46,
            "name": "A#2",
            "ticks": 62160,
            "time": 67.9195125,
            "velocity": 0.3937007874015748
          },
          {
            "duration": 0.10489499999999907,
            "durationTicks": 96,
            "midi": 40,
            "name": "E2",
            "ticks": 62160,
            "time": 67.9195125,
            "velocity": 0.3937007874015748
          },
          {
            "duration": 0.10489499999999907,
            "durationTicks": 96,
            "midi": 42,
            "name": "F#2",
            "ticks": 62160,
            "time": 67.9195125,
            "velocity": 0.3937007874015748
          },
          {
            "duration": 0.20979000000001236,
            "durationTicks": 192,
            "midi": 42,
            "name": "F#2",
            "ticks": 62208,
            "time": 67.97196,
            "velocity": 0.3937007874015748
          },
          {
            "duration": 0.20979000000001236,
            "durationTicks": 192,
            "midi": 46,
            "name": "A#2",
            "ticks": 62208,
            "time": 67.97196,
            "velocity": 0.3937007874015748
          },
          {
            "duration": 0.20979000000001236,
            "durationTicks": 192,
            "midi": 40,
            "name": "E2",
            "ticks": 62208,
            "time": 67.97196,
            "velocity": 0.3937007874015748
          },
          {
            "duration": 0.20979000000001236,
            "durationTicks": 192,
            "midi": 35,
            "name": "B1",
            "ticks": 62208,
            "time": 67.97196,
            "velocity": 0.3937007874015748
          },
          {
            "duration": 0.20978999999999814,
            "durationTicks": 192,
            "midi": 46,
            "name": "A#2",
            "ticks": 62400,
            "time": 68.18175000000001,
            "velocity": 0.3937007874015748
          },
          {
            "duration": 0.20978999999999814,
            "durationTicks": 192,
            "midi": 42,
            "name": "F#2",
            "ticks": 62400,
            "time": 68.18175000000001,
            "velocity": 0.3937007874015748
          },
          {
            "duration": 0.20978999999999814,
            "durationTicks": 192,
            "midi": 35,
            "name": "B1",
            "ticks": 62400,
            "time": 68.18175000000001,
            "velocity": 0.3937007874015748
          },
          {
            "duration": 0.20978999999999814,
            "durationTicks": 192,
            "midi": 40,
            "name": "E2",
            "ticks": 62400,
            "time": 68.18175000000001,
            "velocity": 0.3937007874015748
          },
          {
            "duration": 0.20978999999999814,
            "durationTicks": 192,
            "midi": 46,
            "name": "A#2",
            "ticks": 62592,
            "time": 68.39154,
            "velocity": 0.3937007874015748
          },
          {
            "duration": 0.20978999999999814,
            "durationTicks": 192,
            "midi": 35,
            "name": "B1",
            "ticks": 62592,
            "time": 68.39154,
            "velocity": 0.3937007874015748
          },
          {
            "duration": 0.20978999999999814,
            "durationTicks": 192,
            "midi": 40,
            "name": "E2",
            "ticks": 62592,
            "time": 68.39154,
            "velocity": 0.3937007874015748
          },
          {
            "duration": 0.20978999999999814,
            "durationTicks": 192,
            "midi": 42,
            "name": "F#2",
            "ticks": 62592,
            "time": 68.39154,
            "velocity": 0.3937007874015748
          },
          {
            "duration": 0.20978999999999814,
            "durationTicks": 192,
            "midi": 46,
            "name": "A#2",
            "ticks": 62784,
            "time": 68.60133,
            "velocity": 0.3937007874015748
          },
          {
            "duration": 0.20978999999999814,
            "durationTicks": 192,
            "midi": 42,
            "name": "F#2",
            "ticks": 62784,
            "time": 68.60133,
            "velocity": 0.3937007874015748
          },
          {
            "duration": 0.20978999999999814,
            "durationTicks": 192,
            "midi": 35,
            "name": "B1",
            "ticks": 62784,
            "time": 68.60133,
            "velocity": 0.3937007874015748
          },
          {
            "duration": 0.20978999999999814,
            "durationTicks": 192,
            "midi": 40,
            "name": "E2",
            "ticks": 62784,
            "time": 68.60133,
            "velocity": 0.3937007874015748
          },
          {
            "duration": 0.10489499999999907,
            "durationTicks": 96,
            "midi": 42,
            "name": "F#2",
            "ticks": 62976,
            "time": 68.81112,
            "velocity": 0.3937007874015748
          },
          {
            "duration": 0.10489499999999907,
            "durationTicks": 96,
            "midi": 35,
            "name": "B1",
            "ticks": 62976,
            "time": 68.81112,
            "velocity": 0.3937007874015748
          },
          {
            "duration": 0.10489499999999907,
            "durationTicks": 96,
            "midi": 35,
            "name": "B1",
            "ticks": 63072,
            "time": 68.916015,
            "velocity": 0.3937007874015748
          },
          {
            "duration": 0.10489499999999907,
            "durationTicks": 96,
            "midi": 42,
            "name": "F#2",
            "ticks": 63072,
            "time": 68.916015,
            "velocity": 0.3937007874015748
          },
          {
            "duration": 0.10489499999999907,
            "durationTicks": 96,
            "midi": 40,
            "name": "E2",
            "ticks": 63168,
            "time": 69.02091,
            "velocity": 0.3937007874015748
          },
          {
            "duration": 0.10489499999999907,
            "durationTicks": 96,
            "midi": 46,
            "name": "A#2",
            "ticks": 63168,
            "time": 69.02091,
            "velocity": 0.3937007874015748
          },
          {
            "duration": 0.10489499999999907,
            "durationTicks": 96,
            "midi": 42,
            "name": "F#2",
            "ticks": 63264,
            "time": 69.125805,
            "velocity": 0.3937007874015748
          },
          {
            "duration": 0.10489499999999907,
            "durationTicks": 96,
            "midi": 35,
            "name": "B1",
            "ticks": 63264,
            "time": 69.125805,
            "velocity": 0.3937007874015748
          },
          {
            "duration": 0.10489499999999907,
            "durationTicks": 96,
            "midi": 35,
            "name": "B1",
            "ticks": 63360,
            "time": 69.2307,
            "velocity": 0.3937007874015748
          },
          {
            "duration": 0.10489499999999907,
            "durationTicks": 96,
            "midi": 42,
            "name": "F#2",
            "ticks": 63360,
            "time": 69.2307,
            "velocity": 0.3937007874015748
          },
          {
            "duration": 0.10489499999999907,
            "durationTicks": 96,
            "midi": 40,
            "name": "E2",
            "ticks": 63456,
            "time": 69.335595,
            "velocity": 0.3937007874015748
          },
          {
            "duration": 0.10489499999999907,
            "durationTicks": 96,
            "midi": 46,
            "name": "A#2",
            "ticks": 63456,
            "time": 69.335595,
            "velocity": 0.3937007874015748
          },
          {
            "duration": 0.10489499999999907,
            "durationTicks": 96,
            "midi": 35,
            "name": "B1",
            "ticks": 63552,
            "time": 69.44049,
            "velocity": 0.3937007874015748
          },
          {
            "duration": 0.10489499999999907,
            "durationTicks": 96,
            "midi": 42,
            "name": "F#2",
            "ticks": 63552,
            "time": 69.44049,
            "velocity": 0.3937007874015748
          },
          {
            "duration": 0.10489499999999907,
            "durationTicks": 96,
            "midi": 35,
            "name": "B1",
            "ticks": 63648,
            "time": 69.545385,
            "velocity": 0.3937007874015748
          },
          {
            "duration": 0.10489499999999907,
            "durationTicks": 96,
            "midi": 42,
            "name": "F#2",
            "ticks": 63648,
            "time": 69.545385,
            "velocity": 0.3937007874015748
          },
          {
            "duration": 0.10489500000001328,
            "durationTicks": 96,
            "midi": 46,
            "name": "A#2",
            "ticks": 63744,
            "time": 69.65028,
            "velocity": 0.3937007874015748
          },
          {
            "duration": 0.10489500000001328,
            "durationTicks": 96,
            "midi": 40,
            "name": "E2",
            "ticks": 63744,
            "time": 69.65028,
            "velocity": 0.3937007874015748
          },
          {
            "duration": 0.10489499999999907,
            "durationTicks": 96,
            "midi": 35,
            "name": "B1",
            "ticks": 64512,
            "time": 70.48944,
            "velocity": 0.3937007874015748
          },
          {
            "duration": 0.10489499999999907,
            "durationTicks": 96,
            "midi": 42,
            "name": "F#2",
            "ticks": 64512,
            "time": 70.48944,
            "velocity": 0.3937007874015748
          },
          {
            "duration": 0.10489499999999907,
            "durationTicks": 96,
            "midi": 35,
            "name": "B1",
            "ticks": 64608,
            "time": 70.594335,
            "velocity": 0.3937007874015748
          },
          {
            "duration": 0.10489499999999907,
            "durationTicks": 96,
            "midi": 42,
            "name": "F#2",
            "ticks": 64608,
            "time": 70.594335,
            "velocity": 0.3937007874015748
          },
          {
            "duration": 0.10489499999999907,
            "durationTicks": 96,
            "midi": 46,
            "name": "A#2",
            "ticks": 64704,
            "time": 70.69923,
            "velocity": 0.3937007874015748
          },
          {
            "duration": 0.10489499999999907,
            "durationTicks": 96,
            "midi": 40,
            "name": "E2",
            "ticks": 64704,
            "time": 70.69923,
            "velocity": 0.3937007874015748
          },
          {
            "duration": 0.10489499999999907,
            "durationTicks": 96,
            "midi": 42,
            "name": "F#2",
            "ticks": 64800,
            "time": 70.804125,
            "velocity": 0.3937007874015748
          },
          {
            "duration": 0.10489499999999907,
            "durationTicks": 96,
            "midi": 35,
            "name": "B1",
            "ticks": 64800,
            "time": 70.804125,
            "velocity": 0.3937007874015748
          },
          {
            "duration": 0.10489499999999907,
            "durationTicks": 96,
            "midi": 42,
            "name": "F#2",
            "ticks": 64896,
            "time": 70.90902,
            "velocity": 0.3937007874015748
          },
          {
            "duration": 0.10489499999999907,
            "durationTicks": 96,
            "midi": 35,
            "name": "B1",
            "ticks": 64896,
            "time": 70.90902,
            "velocity": 0.3937007874015748
          },
          {
            "duration": 0.10489499999999907,
            "durationTicks": 96,
            "midi": 40,
            "name": "E2",
            "ticks": 64992,
            "time": 71.013915,
            "velocity": 0.3937007874015748
          },
          {
            "duration": 0.10489499999999907,
            "durationTicks": 96,
            "midi": 46,
            "name": "A#2",
            "ticks": 64992,
            "time": 71.013915,
            "velocity": 0.3937007874015748
          },
          {
            "duration": 0.10489499999999907,
            "durationTicks": 96,
            "midi": 35,
            "name": "B1",
            "ticks": 65088,
            "time": 71.11881,
            "velocity": 0.3937007874015748
          },
          {
            "duration": 0.10489499999999907,
            "durationTicks": 96,
            "midi": 42,
            "name": "F#2",
            "ticks": 65088,
            "time": 71.11881,
            "velocity": 0.3937007874015748
          },
          {
            "duration": 0.10489499999999907,
            "durationTicks": 96,
            "midi": 35,
            "name": "B1",
            "ticks": 65184,
            "time": 71.223705,
            "velocity": 0.3937007874015748
          },
          {
            "duration": 0.10489499999999907,
            "durationTicks": 96,
            "midi": 42,
            "name": "F#2",
            "ticks": 65184,
            "time": 71.223705,
            "velocity": 0.3937007874015748
          },
          {
            "duration": 0.10489500000001328,
            "durationTicks": 96,
            "midi": 40,
            "name": "E2",
            "ticks": 65280,
            "time": 71.3286,
            "velocity": 0.3937007874015748
          },
          {
            "duration": 0.10489500000001328,
            "durationTicks": 96,
            "midi": 46,
            "name": "A#2",
            "ticks": 65280,
            "time": 71.3286,
            "velocity": 0.3937007874015748
          },
          {
            "duration": 0.10489499999999907,
            "durationTicks": 96,
            "midi": 42,
            "name": "F#2",
            "ticks": 66048,
            "time": 72.16776,
            "velocity": 0.3937007874015748
          },
          {
            "duration": 0.10489499999999907,
            "durationTicks": 96,
            "midi": 35,
            "name": "B1",
            "ticks": 66048,
            "time": 72.16776,
            "velocity": 0.3937007874015748
          },
          {
            "duration": 0.10489499999999907,
            "durationTicks": 96,
            "midi": 42,
            "name": "F#2",
            "ticks": 66144,
            "time": 72.272655,
            "velocity": 0.3937007874015748
          },
          {
            "duration": 0.10489499999999907,
            "durationTicks": 96,
            "midi": 35,
            "name": "B1",
            "ticks": 66144,
            "time": 72.272655,
            "velocity": 0.3937007874015748
          },
          {
            "duration": 0.10489499999999907,
            "durationTicks": 96,
            "midi": 46,
            "name": "A#2",
            "ticks": 66240,
            "time": 72.37755,
            "velocity": 0.3937007874015748
          },
          {
            "duration": 0.10489499999999907,
            "durationTicks": 96,
            "midi": 40,
            "name": "E2",
            "ticks": 66240,
            "time": 72.37755,
            "velocity": 0.3937007874015748
          },
          {
            "duration": 0.10489499999999907,
            "durationTicks": 96,
            "midi": 35,
            "name": "B1",
            "ticks": 66336,
            "time": 72.482445,
            "velocity": 0.3937007874015748
          },
          {
            "duration": 0.10489499999999907,
            "durationTicks": 96,
            "midi": 42,
            "name": "F#2",
            "ticks": 66336,
            "time": 72.482445,
            "velocity": 0.3937007874015748
          },
          {
            "duration": 0.10489499999999907,
            "durationTicks": 96,
            "midi": 35,
            "name": "B1",
            "ticks": 66432,
            "time": 72.58734,
            "velocity": 0.3937007874015748
          },
          {
            "duration": 0.10489499999999907,
            "durationTicks": 96,
            "midi": 42,
            "name": "F#2",
            "ticks": 66432,
            "time": 72.58734,
            "velocity": 0.3937007874015748
          },
          {
            "duration": 0.10489499999999907,
            "durationTicks": 96,
            "midi": 46,
            "name": "A#2",
            "ticks": 66528,
            "time": 72.692235,
            "velocity": 0.3937007874015748
          },
          {
            "duration": 0.10489499999999907,
            "durationTicks": 96,
            "midi": 40,
            "name": "E2",
            "ticks": 66528,
            "time": 72.692235,
            "velocity": 0.3937007874015748
          },
          {
            "duration": 0.10489499999999907,
            "durationTicks": 96,
            "midi": 42,
            "name": "F#2",
            "ticks": 66624,
            "time": 72.79713,
            "velocity": 0.3937007874015748
          },
          {
            "duration": 0.10489499999999907,
            "durationTicks": 96,
            "midi": 35,
            "name": "B1",
            "ticks": 66624,
            "time": 72.79713,
            "velocity": 0.3937007874015748
          },
          {
            "duration": 0.10489500000001328,
            "durationTicks": 96,
            "midi": 35,
            "name": "B1",
            "ticks": 66720,
            "time": 72.902025,
            "velocity": 0.3937007874015748
          },
          {
            "duration": 0.10489500000001328,
            "durationTicks": 96,
            "midi": 42,
            "name": "F#2",
            "ticks": 66720,
            "time": 72.902025,
            "velocity": 0.3937007874015748
          },
          {
            "duration": 0.10489499999999907,
            "durationTicks": 96,
            "midi": 40,
            "name": "E2",
            "ticks": 66816,
            "time": 73.00692000000001,
            "velocity": 0.3937007874015748
          },
          {
            "duration": 0.10489499999999907,
            "durationTicks": 96,
            "midi": 46,
            "name": "A#2",
            "ticks": 66816,
            "time": 73.00692000000001,
            "velocity": 0.3937007874015748
          },
          {
            "duration": 0.10489499999999907,
            "durationTicks": 96,
            "midi": 42,
            "name": "F#2",
            "ticks": 67584,
            "time": 73.84608,
            "velocity": 0.3937007874015748
          },
          {
            "duration": 0.10489499999999907,
            "durationTicks": 96,
            "midi": 35,
            "name": "B1",
            "ticks": 67584,
            "time": 73.84608,
            "velocity": 0.3937007874015748
          },
          {
            "duration": 0.10489499999999907,
            "durationTicks": 96,
            "midi": 35,
            "name": "B1",
            "ticks": 67680,
            "time": 73.950975,
            "velocity": 0.3937007874015748
          },
          {
            "duration": 0.10489499999999907,
            "durationTicks": 96,
            "midi": 42,
            "name": "F#2",
            "ticks": 67680,
            "time": 73.950975,
            "velocity": 0.3937007874015748
          },
          {
            "duration": 0.10489499999999907,
            "durationTicks": 96,
            "midi": 40,
            "name": "E2",
            "ticks": 67776,
            "time": 74.05587,
            "velocity": 0.3937007874015748
          },
          {
            "duration": 0.10489499999999907,
            "durationTicks": 96,
            "midi": 46,
            "name": "A#2",
            "ticks": 67776,
            "time": 74.05587,
            "velocity": 0.3937007874015748
          },
          {
            "duration": 0.10489499999999907,
            "durationTicks": 96,
            "midi": 35,
            "name": "B1",
            "ticks": 67872,
            "time": 74.160765,
            "velocity": 0.3937007874015748
          },
          {
            "duration": 0.10489499999999907,
            "durationTicks": 96,
            "midi": 42,
            "name": "F#2",
            "ticks": 67872,
            "time": 74.160765,
            "velocity": 0.3937007874015748
          },
          {
            "duration": 0.10489499999999907,
            "durationTicks": 96,
            "midi": 42,
            "name": "F#2",
            "ticks": 67968,
            "time": 74.26566,
            "velocity": 0.3937007874015748
          },
          {
            "duration": 0.10489499999999907,
            "durationTicks": 96,
            "midi": 35,
            "name": "B1",
            "ticks": 67968,
            "time": 74.26566,
            "velocity": 0.3937007874015748
          },
          {
            "duration": 0.10489499999999907,
            "durationTicks": 96,
            "midi": 46,
            "name": "A#2",
            "ticks": 68064,
            "time": 74.370555,
            "velocity": 0.3937007874015748
          },
          {
            "duration": 0.10489499999999907,
            "durationTicks": 96,
            "midi": 40,
            "name": "E2",
            "ticks": 68064,
            "time": 74.370555,
            "velocity": 0.3937007874015748
          },
          {
            "duration": 0.10489500000001328,
            "durationTicks": 96,
            "midi": 35,
            "name": "B1",
            "ticks": 68160,
            "time": 74.47545,
            "velocity": 0.3937007874015748
          },
          {
            "duration": 0.10489500000001328,
            "durationTicks": 96,
            "midi": 42,
            "name": "F#2",
            "ticks": 68160,
            "time": 74.47545,
            "velocity": 0.3937007874015748
          },
          {
            "duration": 0.10489499999999907,
            "durationTicks": 96,
            "midi": 35,
            "name": "B1",
            "ticks": 68256,
            "time": 74.58034500000001,
            "velocity": 0.3937007874015748
          },
          {
            "duration": 0.10489499999999907,
            "durationTicks": 96,
            "midi": 42,
            "name": "F#2",
            "ticks": 68256,
            "time": 74.58034500000001,
            "velocity": 0.3937007874015748
          },
          {
            "duration": 0.10489499999999907,
            "durationTicks": 96,
            "midi": 46,
            "name": "A#2",
            "ticks": 68352,
            "time": 74.68524000000001,
            "velocity": 0.3937007874015748
          },
          {
            "duration": 0.10489499999999907,
            "durationTicks": 96,
            "midi": 40,
            "name": "E2",
            "ticks": 68352,
            "time": 74.68524000000001,
            "velocity": 0.3937007874015748
          },
          {
            "duration": 0.10489499999999907,
            "durationTicks": 96,
            "midi": 35,
            "name": "B1",
            "ticks": 69120,
            "time": 75.5244,
            "velocity": 0.3937007874015748
          },
          {
            "duration": 0.10489499999999907,
            "durationTicks": 96,
            "midi": 35,
            "name": "B1",
            "ticks": 69168,
            "time": 75.5768475,
            "velocity": 0.3937007874015748
          },
          {
            "duration": 0.10489499999999907,
            "durationTicks": 96,
            "midi": 35,
            "name": "B1",
            "ticks": 69216,
            "time": 75.629295,
            "velocity": 0.3937007874015748
          },
          {
            "duration": 0.10489499999999907,
            "durationTicks": 96,
            "midi": 35,
            "name": "B1",
            "ticks": 69264,
            "time": 75.6817425,
            "velocity": 0.3937007874015748
          },
          {
            "duration": 0.10489499999999907,
            "durationTicks": 96,
            "midi": 35,
            "name": "B1",
            "ticks": 69312,
            "time": 75.73419,
            "velocity": 0.3937007874015748
          },
          {
            "duration": 0.10489499999999907,
            "durationTicks": 96,
            "midi": 35,
            "name": "B1",
            "ticks": 69360,
            "time": 75.7866375,
            "velocity": 0.3937007874015748
          },
          {
            "duration": 0.10489499999999907,
            "durationTicks": 96,
            "midi": 35,
            "name": "B1",
            "ticks": 69408,
            "time": 75.839085,
            "velocity": 0.3937007874015748
          },
          {
            "duration": 0.10489499999999907,
            "durationTicks": 96,
            "midi": 35,
            "name": "B1",
            "ticks": 69456,
            "time": 75.8915325,
            "velocity": 0.3937007874015748
          },
          {
            "duration": 0.10489499999999907,
            "durationTicks": 96,
            "midi": 35,
            "name": "B1",
            "ticks": 69504,
            "time": 75.94398,
            "velocity": 0.3937007874015748
          },
          {
            "duration": 0.10489499999999907,
            "durationTicks": 96,
            "midi": 35,
            "name": "B1",
            "ticks": 69552,
            "time": 75.9964275,
            "velocity": 0.3937007874015748
          },
          {
            "duration": 0.10489500000001328,
            "durationTicks": 96,
            "midi": 35,
            "name": "B1",
            "ticks": 69600,
            "time": 76.048875,
            "velocity": 0.3937007874015748
          },
          {
            "duration": 0.10489500000001328,
            "durationTicks": 96,
            "midi": 35,
            "name": "B1",
            "ticks": 69648,
            "time": 76.1013225,
            "velocity": 0.3937007874015748
          },
          {
            "duration": 0.10489499999999907,
            "durationTicks": 96,
            "midi": 35,
            "name": "B1",
            "ticks": 69696,
            "time": 76.15377000000001,
            "velocity": 0.3937007874015748
          },
          {
            "duration": 0.10489499999999907,
            "durationTicks": 96,
            "midi": 35,
            "name": "B1",
            "ticks": 69744,
            "time": 76.20621750000001,
            "velocity": 0.3937007874015748
          },
          {
            "duration": 0.10489499999999907,
            "durationTicks": 96,
            "midi": 35,
            "name": "B1",
            "ticks": 69792,
            "time": 76.25866500000001,
            "velocity": 0.3937007874015748
          },
          {
            "duration": 0.10489499999999907,
            "durationTicks": 96,
            "midi": 35,
            "name": "B1",
            "ticks": 69840,
            "time": 76.31111250000001,
            "velocity": 0.3937007874015748
          },
          {
            "duration": 0.10489499999999907,
            "durationTicks": 96,
            "midi": 35,
            "name": "B1",
            "ticks": 69888,
            "time": 76.36356,
            "velocity": 0.3937007874015748
          },
          {
            "duration": 0.10489499999999907,
            "durationTicks": 96,
            "midi": 35,
            "name": "B1",
            "ticks": 69936,
            "time": 76.4160075,
            "velocity": 0.3937007874015748
          },
          {
            "duration": 0.10489499999999907,
            "durationTicks": 96,
            "midi": 35,
            "name": "B1",
            "ticks": 69984,
            "time": 76.468455,
            "velocity": 0.3937007874015748
          },
          {
            "duration": 0.10489499999999907,
            "durationTicks": 96,
            "midi": 35,
            "name": "B1",
            "ticks": 70032,
            "time": 76.5209025,
            "velocity": 0.3937007874015748
          },
          {
            "duration": 0.10489499999999907,
            "durationTicks": 96,
            "midi": 35,
            "name": "B1",
            "ticks": 70080,
            "time": 76.57335,
            "velocity": 0.3937007874015748
          },
          {
            "duration": 0.10489499999999907,
            "durationTicks": 96,
            "midi": 35,
            "name": "B1",
            "ticks": 70128,
            "time": 76.6257975,
            "velocity": 0.3937007874015748
          },
          {
            "duration": 0.10489499999999907,
            "durationTicks": 96,
            "midi": 35,
            "name": "B1",
            "ticks": 70176,
            "time": 76.678245,
            "velocity": 0.3937007874015748
          },
          {
            "duration": 0.10489499999999907,
            "durationTicks": 96,
            "midi": 35,
            "name": "B1",
            "ticks": 70224,
            "time": 76.7306925,
            "velocity": 0.3937007874015748
          },
          {
            "duration": 0.10489499999999907,
            "durationTicks": 96,
            "midi": 35,
            "name": "B1",
            "ticks": 70272,
            "time": 76.78314,
            "velocity": 0.3937007874015748
          },
          {
            "duration": 0.10489499999999907,
            "durationTicks": 96,
            "midi": 35,
            "name": "B1",
            "ticks": 70320,
            "time": 76.8355875,
            "velocity": 0.3937007874015748
          },
          {
            "duration": 0.10489499999999907,
            "durationTicks": 96,
            "midi": 35,
            "name": "B1",
            "ticks": 70368,
            "time": 76.888035,
            "velocity": 0.3937007874015748
          },
          {
            "duration": 0.10489499999999907,
            "durationTicks": 96,
            "midi": 35,
            "name": "B1",
            "ticks": 70416,
            "time": 76.9404825,
            "velocity": 0.3937007874015748
          },
          {
            "duration": 0.10489499999999907,
            "durationTicks": 96,
            "midi": 35,
            "name": "B1",
            "ticks": 70464,
            "time": 76.99293,
            "velocity": 0.3937007874015748
          },
          {
            "duration": 0.10489499999999907,
            "durationTicks": 96,
            "midi": 35,
            "name": "B1",
            "ticks": 70512,
            "time": 77.0453775,
            "velocity": 0.3937007874015748
          },
          {
            "duration": 0.10489499999999907,
            "durationTicks": 96,
            "midi": 35,
            "name": "B1",
            "ticks": 70560,
            "time": 77.097825,
            "velocity": 0.3937007874015748
          },
          {
            "duration": 0.10489499999999907,
            "durationTicks": 96,
            "midi": 35,
            "name": "B1",
            "ticks": 70608,
            "time": 77.1502725,
            "velocity": 0.3937007874015748
          },
          {
            "duration": 0.10489499999999907,
            "durationTicks": 96,
            "midi": 35,
            "name": "B1",
            "ticks": 70656,
            "time": 77.20272,
            "velocity": 0.3937007874015748
          },
          {
            "duration": 0.10489499999999907,
            "durationTicks": 96,
            "midi": 35,
            "name": "B1",
            "ticks": 70704,
            "time": 77.2551675,
            "velocity": 0.3937007874015748
          },
          {
            "duration": 0.10489499999999907,
            "durationTicks": 96,
            "midi": 35,
            "name": "B1",
            "ticks": 70752,
            "time": 77.307615,
            "velocity": 0.3937007874015748
          },
          {
            "duration": 0.10489499999999907,
            "durationTicks": 96,
            "midi": 35,
            "name": "B1",
            "ticks": 70800,
            "time": 77.3600625,
            "velocity": 0.3937007874015748
          },
          {
            "duration": 0.10489499999999907,
            "durationTicks": 96,
            "midi": 35,
            "name": "B1",
            "ticks": 70848,
            "time": 77.41251,
            "velocity": 0.3937007874015748
          },
          {
            "duration": 0.10489499999999907,
            "durationTicks": 96,
            "midi": 35,
            "name": "B1",
            "ticks": 70896,
            "time": 77.4649575,
            "velocity": 0.3937007874015748
          },
          {
            "duration": 0.10489499999999907,
            "durationTicks": 96,
            "midi": 35,
            "name": "B1",
            "ticks": 70944,
            "time": 77.517405,
            "velocity": 0.3937007874015748
          },
          {
            "duration": 0.10489499999999907,
            "durationTicks": 96,
            "midi": 35,
            "name": "B1",
            "ticks": 70992,
            "time": 77.5698525,
            "velocity": 0.3937007874015748
          },
          {
            "duration": 0.10489499999999907,
            "durationTicks": 96,
            "midi": 35,
            "name": "B1",
            "ticks": 71040,
            "time": 77.6223,
            "velocity": 0.3937007874015748
          },
          {
            "duration": 0.10489500000001328,
            "durationTicks": 96,
            "midi": 35,
            "name": "B1",
            "ticks": 71088,
            "time": 77.6747475,
            "velocity": 0.3937007874015748
          },
          {
            "duration": 0.10489500000001328,
            "durationTicks": 96,
            "midi": 35,
            "name": "B1",
            "ticks": 71136,
            "time": 77.727195,
            "velocity": 0.3937007874015748
          },
          {
            "duration": 0.10489499999999907,
            "durationTicks": 96,
            "midi": 35,
            "name": "B1",
            "ticks": 71184,
            "time": 77.77964250000001,
            "velocity": 0.3937007874015748
          },
          {
            "duration": 0.10489499999999907,
            "durationTicks": 96,
            "midi": 35,
            "name": "B1",
            "ticks": 71232,
            "time": 77.83209000000001,
            "velocity": 0.3937007874015748
          },
          {
            "duration": 0.10489499999999907,
            "durationTicks": 96,
            "midi": 35,
            "name": "B1",
            "ticks": 71280,
            "time": 77.88453750000001,
            "velocity": 0.3937007874015748
          },
          {
            "duration": 0.10489499999999907,
            "durationTicks": 96,
            "midi": 35,
            "name": "B1",
            "ticks": 71328,
            "time": 77.936985,
            "velocity": 0.3937007874015748
          },
          {
            "duration": 0.10489499999999907,
            "durationTicks": 96,
            "midi": 35,
            "name": "B1",
            "ticks": 71376,
            "time": 77.9894325,
            "velocity": 0.3937007874015748
          },
          {
            "duration": 0.10489499999999907,
            "durationTicks": 96,
            "midi": 35,
            "name": "B1",
            "ticks": 71424,
            "time": 78.04188,
            "velocity": 0.3937007874015748
          },
          {
            "duration": 0.10489499999999907,
            "durationTicks": 96,
            "midi": 35,
            "name": "B1",
            "ticks": 71472,
            "time": 78.0943275,
            "velocity": 0.3937007874015748
          },
          {
            "duration": 0.10489499999999907,
            "durationTicks": 96,
            "midi": 35,
            "name": "B1",
            "ticks": 71520,
            "time": 78.146775,
            "velocity": 0.3937007874015748
          },
          {
            "duration": 0.10489499999999907,
            "durationTicks": 96,
            "midi": 35,
            "name": "B1",
            "ticks": 71568,
            "time": 78.1992225,
            "velocity": 0.3937007874015748
          },
          {
            "duration": 0.10489499999999907,
            "durationTicks": 96,
            "midi": 35,
            "name": "B1",
            "ticks": 71616,
            "time": 78.25167,
            "velocity": 0.3937007874015748
          },
          {
            "duration": 0.10489499999999907,
            "durationTicks": 96,
            "midi": 35,
            "name": "B1",
            "ticks": 71664,
            "time": 78.3041175,
            "velocity": 0.3937007874015748
          },
          {
            "duration": 0.10489499999999907,
            "durationTicks": 96,
            "midi": 35,
            "name": "B1",
            "ticks": 71712,
            "time": 78.356565,
            "velocity": 0.3937007874015748
          },
          {
            "duration": 0.10489499999999907,
            "durationTicks": 96,
            "midi": 35,
            "name": "B1",
            "ticks": 71760,
            "time": 78.4090125,
            "velocity": 0.3937007874015748
          },
          {
            "duration": 0.10489499999999907,
            "durationTicks": 96,
            "midi": 35,
            "name": "B1",
            "ticks": 71808,
            "time": 78.46146,
            "velocity": 0.3937007874015748
          },
          {
            "duration": 0.10489499999999907,
            "durationTicks": 96,
            "midi": 35,
            "name": "B1",
            "ticks": 71856,
            "time": 78.5139075,
            "velocity": 0.3937007874015748
          },
          {
            "duration": 0.10489499999999907,
            "durationTicks": 96,
            "midi": 35,
            "name": "B1",
            "ticks": 71904,
            "time": 78.566355,
            "velocity": 0.3937007874015748
          },
          {
            "duration": 0.10489499999999907,
            "durationTicks": 96,
            "midi": 35,
            "name": "B1",
            "ticks": 71952,
            "time": 78.6188025,
            "velocity": 0.3937007874015748
          },
          {
            "duration": 0.10489499999999907,
            "durationTicks": 96,
            "midi": 35,
            "name": "B1",
            "ticks": 72000,
            "time": 78.67125,
            "velocity": 0.3937007874015748
          },
          {
            "duration": 0.10489499999999907,
            "durationTicks": 96,
            "midi": 35,
            "name": "B1",
            "ticks": 72048,
            "time": 78.7236975,
            "velocity": 0.3937007874015748
          },
          {
            "duration": 0.10489499999999907,
            "durationTicks": 96,
            "midi": 35,
            "name": "B1",
            "ticks": 72096,
            "time": 78.776145,
            "velocity": 0.3937007874015748
          },
          {
            "duration": 0.10489499999999907,
            "durationTicks": 96,
            "midi": 35,
            "name": "B1",
            "ticks": 72144,
            "time": 78.8285925,
            "velocity": 0.3937007874015748
          },
          {
            "duration": 0.10489499999999907,
            "durationTicks": 96,
            "midi": 35,
            "name": "B1",
            "ticks": 72192,
            "time": 78.88104,
            "velocity": 0.3937007874015748
          },
          {
            "duration": 0.10489499999999907,
            "durationTicks": 96,
            "midi": 35,
            "name": "B1",
            "ticks": 72240,
            "time": 78.9334875,
            "velocity": 0.3937007874015748
          },
          {
            "duration": 0.10489499999999907,
            "durationTicks": 96,
            "midi": 35,
            "name": "B1",
            "ticks": 72288,
            "time": 78.985935,
            "velocity": 0.3937007874015748
          },
          {
            "duration": 0.10489499999999907,
            "durationTicks": 96,
            "midi": 35,
            "name": "B1",
            "ticks": 72336,
            "time": 79.0383825,
            "velocity": 0.3937007874015748
          },
          {
            "duration": 0.10489499999999907,
            "durationTicks": 96,
            "midi": 35,
            "name": "B1",
            "ticks": 72384,
            "time": 79.09083,
            "velocity": 0.3937007874015748
          },
          {
            "duration": 0.10489499999999907,
            "durationTicks": 96,
            "midi": 35,
            "name": "B1",
            "ticks": 72432,
            "time": 79.1432775,
            "velocity": 0.3937007874015748
          },
          {
            "duration": 0.10489499999999907,
            "durationTicks": 96,
            "midi": 35,
            "name": "B1",
            "ticks": 72480,
            "time": 79.195725,
            "velocity": 0.3937007874015748
          },
          {
            "duration": 0.10489499999999907,
            "durationTicks": 96,
            "midi": 35,
            "name": "B1",
            "ticks": 72528,
            "time": 79.2481725,
            "velocity": 0.3937007874015748
          },
          {
            "duration": 0.10489500000001328,
            "durationTicks": 96,
            "midi": 35,
            "name": "B1",
            "ticks": 72576,
            "time": 79.30062,
            "velocity": 0.3937007874015748
          },
          {
            "duration": 0.10489500000001328,
            "durationTicks": 96,
            "midi": 35,
            "name": "B1",
            "ticks": 72624,
            "time": 79.3530675,
            "velocity": 0.3937007874015748
          },
          {
            "duration": 0.10489499999999907,
            "durationTicks": 96,
            "midi": 35,
            "name": "B1",
            "ticks": 72672,
            "time": 79.40551500000001,
            "velocity": 0.3937007874015748
          },
          {
            "duration": 0.10489499999999907,
            "durationTicks": 96,
            "midi": 35,
            "name": "B1",
            "ticks": 72720,
            "time": 79.45796250000001,
            "velocity": 0.3937007874015748
          },
          {
            "duration": 0.10489499999999907,
            "durationTicks": 96,
            "midi": 35,
            "name": "B1",
            "ticks": 72768,
            "time": 79.51041000000001,
            "velocity": 0.3937007874015748
          },
          {
            "duration": 0.10489499999999907,
            "durationTicks": 96,
            "midi": 35,
            "name": "B1",
            "ticks": 72816,
            "time": 79.5628575,
            "velocity": 0.3937007874015748
          },
          {
            "duration": 0.10489499999999907,
            "durationTicks": 96,
            "midi": 35,
            "name": "B1",
            "ticks": 72864,
            "time": 79.615305,
            "velocity": 0.3937007874015748
          },
          {
            "duration": 0.10489499999999907,
            "durationTicks": 96,
            "midi": 35,
            "name": "B1",
            "ticks": 72912,
            "time": 79.6677525,
            "velocity": 0.3937007874015748
          },
          {
            "duration": 0.10489499999999907,
            "durationTicks": 96,
            "midi": 35,
            "name": "B1",
            "ticks": 72960,
            "time": 79.7202,
            "velocity": 0.3937007874015748
          },
          {
            "duration": 0.10489499999999907,
            "durationTicks": 96,
            "midi": 35,
            "name": "B1",
            "ticks": 73008,
            "time": 79.7726475,
            "velocity": 0.3937007874015748
          },
          {
            "duration": 0.10489499999999907,
            "durationTicks": 96,
            "midi": 35,
            "name": "B1",
            "ticks": 73056,
            "time": 79.825095,
            "velocity": 0.3937007874015748
          },
          {
            "duration": 0.10489499999999907,
            "durationTicks": 96,
            "midi": 35,
            "name": "B1",
            "ticks": 73104,
            "time": 79.8775425,
            "velocity": 0.3937007874015748
          },
          {
            "duration": 0.10489499999999907,
            "durationTicks": 96,
            "midi": 35,
            "name": "B1",
            "ticks": 73152,
            "time": 79.92999,
            "velocity": 0.3937007874015748
          },
          {
            "duration": 0.10489499999999907,
            "durationTicks": 96,
            "midi": 35,
            "name": "B1",
            "ticks": 73200,
            "time": 79.9824375,
            "velocity": 0.3937007874015748
          },
          {
            "duration": 0.10489499999999907,
            "durationTicks": 96,
            "midi": 35,
            "name": "B1",
            "ticks": 73248,
            "time": 80.034885,
            "velocity": 0.3937007874015748
          },
          {
            "duration": 0.10489499999999907,
            "durationTicks": 96,
            "midi": 35,
            "name": "B1",
            "ticks": 73296,
            "time": 80.0873325,
            "velocity": 0.3937007874015748
          },
          {
            "duration": 0.10489499999999907,
            "durationTicks": 96,
            "midi": 35,
            "name": "B1",
            "ticks": 73344,
            "time": 80.13978,
            "velocity": 0.3937007874015748
          },
          {
            "duration": 0.10489499999999907,
            "durationTicks": 96,
            "midi": 35,
            "name": "B1",
            "ticks": 73392,
            "time": 80.1922275,
            "velocity": 0.3937007874015748
          },
          {
            "duration": 0.10489499999999907,
            "durationTicks": 96,
            "midi": 35,
            "name": "B1",
            "ticks": 73440,
            "time": 80.244675,
            "velocity": 0.3937007874015748
          },
          {
            "duration": 0.10489499999999907,
            "durationTicks": 96,
            "midi": 35,
            "name": "B1",
            "ticks": 73488,
            "time": 80.2971225,
            "velocity": 0.3937007874015748
          },
          {
            "duration": 0.10489499999999907,
            "durationTicks": 96,
            "midi": 35,
            "name": "B1",
            "ticks": 73536,
            "time": 80.34957,
            "velocity": 0.3937007874015748
          },
          {
            "duration": 0.10489499999999907,
            "durationTicks": 96,
            "midi": 35,
            "name": "B1",
            "ticks": 73584,
            "time": 80.4020175,
            "velocity": 0.3937007874015748
          },
          {
            "duration": 0.10489499999999907,
            "durationTicks": 96,
            "midi": 35,
            "name": "B1",
            "ticks": 73632,
            "time": 80.454465,
            "velocity": 0.3937007874015748
          },
          {
            "duration": 0.10489499999999907,
            "durationTicks": 96,
            "midi": 35,
            "name": "B1",
            "ticks": 73680,
            "time": 80.5069125,
            "velocity": 0.3937007874015748
          },
          {
            "duration": 0.10489499999999907,
            "durationTicks": 96,
            "midi": 35,
            "name": "B1",
            "ticks": 73728,
            "time": 80.55936,
            "velocity": 0.3937007874015748
          },
          {
            "duration": 0.10489499999999907,
            "durationTicks": 96,
            "midi": 35,
            "name": "B1",
            "ticks": 73776,
            "time": 80.6118075,
            "velocity": 0.3937007874015748
          },
          {
            "duration": 0.10489499999999907,
            "durationTicks": 96,
            "midi": 35,
            "name": "B1",
            "ticks": 73824,
            "time": 80.664255,
            "velocity": 0.3937007874015748
          },
          {
            "duration": 0.10489499999999907,
            "durationTicks": 96,
            "midi": 35,
            "name": "B1",
            "ticks": 73872,
            "time": 80.7167025,
            "velocity": 0.3937007874015748
          },
          {
            "duration": 0.10489499999999907,
            "durationTicks": 96,
            "midi": 35,
            "name": "B1",
            "ticks": 73920,
            "time": 80.76915,
            "velocity": 0.3937007874015748
          },
          {
            "duration": 0.10489499999999907,
            "durationTicks": 96,
            "midi": 35,
            "name": "B1",
            "ticks": 73968,
            "time": 80.8215975,
            "velocity": 0.3937007874015748
          },
          {
            "duration": 0.10489500000001328,
            "durationTicks": 96,
            "midi": 35,
            "name": "B1",
            "ticks": 74016,
            "time": 80.874045,
            "velocity": 0.3937007874015748
          },
          {
            "duration": 0.10489500000001328,
            "durationTicks": 96,
            "midi": 35,
            "name": "B1",
            "ticks": 74064,
            "time": 80.9264925,
            "velocity": 0.3937007874015748
          },
          {
            "duration": 0.10489499999999907,
            "durationTicks": 96,
            "midi": 35,
            "name": "B1",
            "ticks": 74112,
            "time": 80.97894000000001,
            "velocity": 0.3937007874015748
          },
          {
            "duration": 0.10489499999999907,
            "durationTicks": 96,
            "midi": 35,
            "name": "B1",
            "ticks": 74160,
            "time": 81.03138750000001,
            "velocity": 0.3937007874015748
          },
          {
            "duration": 0.10489499999999907,
            "durationTicks": 96,
            "midi": 35,
            "name": "B1",
            "ticks": 74208,
            "time": 81.08383500000001,
            "velocity": 0.3937007874015748
          },
          {
            "duration": 0.10489499999999907,
            "durationTicks": 96,
            "midi": 35,
            "name": "B1",
            "ticks": 74256,
            "time": 81.13628250000001,
            "velocity": 0.3937007874015748
          },
          {
            "duration": 0.10489499999999907,
            "durationTicks": 96,
            "midi": 35,
            "name": "B1",
            "ticks": 74304,
            "time": 81.18873,
            "velocity": 0.3937007874015748
          },
          {
            "duration": 0.10489499999999907,
            "durationTicks": 96,
            "midi": 35,
            "name": "B1",
            "ticks": 74352,
            "time": 81.2411775,
            "velocity": 0.3937007874015748
          },
          {
            "duration": 0.10489499999999907,
            "durationTicks": 96,
            "midi": 35,
            "name": "B1",
            "ticks": 74400,
            "time": 81.293625,
            "velocity": 0.3937007874015748
          },
          {
            "duration": 0.10489499999999907,
            "durationTicks": 96,
            "midi": 35,
            "name": "B1",
            "ticks": 74448,
            "time": 81.3460725,
            "velocity": 0.3937007874015748
          },
          {
            "duration": 0.10489499999999907,
            "durationTicks": 96,
            "midi": 35,
            "name": "B1",
            "ticks": 74496,
            "time": 81.39852,
            "velocity": 0.3937007874015748
          },
          {
            "duration": 0.10489499999999907,
            "durationTicks": 96,
            "midi": 35,
            "name": "B1",
            "ticks": 74544,
            "time": 81.4509675,
            "velocity": 0.3937007874015748
          },
          {
            "duration": 0.10489499999999907,
            "durationTicks": 96,
            "midi": 35,
            "name": "B1",
            "ticks": 74592,
            "time": 81.503415,
            "velocity": 0.3937007874015748
          },
          {
            "duration": 0.10489499999999907,
            "durationTicks": 96,
            "midi": 35,
            "name": "B1",
            "ticks": 74640,
            "time": 81.5558625,
            "velocity": 0.3937007874015748
          },
          {
            "duration": 0.10489499999999907,
            "durationTicks": 96,
            "midi": 35,
            "name": "B1",
            "ticks": 74688,
            "time": 81.60831,
            "velocity": 0.3937007874015748
          },
          {
            "duration": 0.10489499999999907,
            "durationTicks": 96,
            "midi": 35,
            "name": "B1",
            "ticks": 74736,
            "time": 81.6607575,
            "velocity": 0.3937007874015748
          },
          {
            "duration": 0.10489499999999907,
            "durationTicks": 96,
            "midi": 35,
            "name": "B1",
            "ticks": 74784,
            "time": 81.713205,
            "velocity": 0.3937007874015748
          },
          {
            "duration": 0.10489499999999907,
            "durationTicks": 96,
            "midi": 35,
            "name": "B1",
            "ticks": 74832,
            "time": 81.7656525,
            "velocity": 0.3937007874015748
          },
          {
            "duration": 0.10489499999999907,
            "durationTicks": 96,
            "midi": 35,
            "name": "B1",
            "ticks": 74880,
            "time": 81.8181,
            "velocity": 0.3937007874015748
          },
          {
            "duration": 0.10489499999999907,
            "durationTicks": 96,
            "midi": 35,
            "name": "B1",
            "ticks": 74928,
            "time": 81.8705475,
            "velocity": 0.3937007874015748
          },
          {
            "duration": 0.10489499999999907,
            "durationTicks": 96,
            "midi": 35,
            "name": "B1",
            "ticks": 74976,
            "time": 81.922995,
            "velocity": 0.3937007874015748
          },
          {
            "duration": 0.10489499999999907,
            "durationTicks": 96,
            "midi": 35,
            "name": "B1",
            "ticks": 75024,
            "time": 81.9754425,
            "velocity": 0.3937007874015748
          },
          {
            "duration": 0.10489499999999907,
            "durationTicks": 96,
            "midi": 35,
            "name": "B1",
            "ticks": 75072,
            "time": 82.02789,
            "velocity": 0.3937007874015748
          },
          {
            "duration": 0.10489499999999907,
            "durationTicks": 96,
            "midi": 35,
            "name": "B1",
            "ticks": 75120,
            "time": 82.0803375,
            "velocity": 0.3937007874015748
          },
          {
            "duration": 0.10489499999999907,
            "durationTicks": 96,
            "midi": 35,
            "name": "B1",
            "ticks": 75168,
            "time": 82.132785,
            "velocity": 0.3937007874015748
          },
          {
            "duration": 0.10489499999999907,
            "durationTicks": 96,
            "midi": 35,
            "name": "B1",
            "ticks": 75216,
            "time": 82.1852325,
            "velocity": 0.3937007874015748
          },
          {
            "duration": 0.10489499999999907,
            "durationTicks": 96,
            "midi": 35,
            "name": "B1",
            "ticks": 75264,
            "time": 82.23768,
            "velocity": 0.3937007874015748
          },
          {
            "duration": 0.10489499999999907,
            "durationTicks": 96,
            "midi": 35,
            "name": "B1",
            "ticks": 75312,
            "time": 82.2901275,
            "velocity": 0.3937007874015748
          },
          {
            "duration": 0.10489499999999907,
            "durationTicks": 96,
            "midi": 35,
            "name": "B1",
            "ticks": 75360,
            "time": 82.342575,
            "velocity": 0.3937007874015748
          },
          {
            "duration": 0.10489499999999907,
            "durationTicks": 96,
            "midi": 35,
            "name": "B1",
            "ticks": 75408,
            "time": 82.3950225,
            "velocity": 0.3937007874015748
          },
          {
            "duration": 0.10489499999999907,
            "durationTicks": 96,
            "midi": 35,
            "name": "B1",
            "ticks": 75456,
            "time": 82.44747,
            "velocity": 0.3937007874015748
          },
          {
            "duration": 0.10489500000001328,
            "durationTicks": 96,
            "midi": 35,
            "name": "B1",
            "ticks": 75504,
            "time": 82.4999175,
            "velocity": 0.3937007874015748
          },
          {
            "duration": 0.10489500000001328,
            "durationTicks": 96,
            "midi": 35,
            "name": "B1",
            "ticks": 75552,
            "time": 82.552365,
            "velocity": 0.3937007874015748
          },
          {
            "duration": 0.10489499999999907,
            "durationTicks": 96,
            "midi": 35,
            "name": "B1",
            "ticks": 75600,
            "time": 82.60481250000001,
            "velocity": 0.3937007874015748
          },
          {
            "duration": 0.10489499999999907,
            "durationTicks": 96,
            "midi": 35,
            "name": "B1",
            "ticks": 75648,
            "time": 82.65726000000001,
            "velocity": 0.3937007874015748
          },
          {
            "duration": 0.10489499999999907,
            "durationTicks": 96,
            "midi": 35,
            "name": "B1",
            "ticks": 75696,
            "time": 82.70970750000001,
            "velocity": 0.3937007874015748
          },
          {
            "duration": 0.10489499999999907,
            "durationTicks": 96,
            "midi": 35,
            "name": "B1",
            "ticks": 75744,
            "time": 82.762155,
            "velocity": 0.3937007874015748
          },
          {
            "duration": 0.10489499999999907,
            "durationTicks": 96,
            "midi": 35,
            "name": "B1",
            "ticks": 75792,
            "time": 82.8146025,
            "velocity": 0.3937007874015748
          },
          {
            "duration": 0.10489499999999907,
            "durationTicks": 96,
            "midi": 35,
            "name": "B1",
            "ticks": 75840,
            "time": 82.86705,
            "velocity": 0.3937007874015748
          },
          {
            "duration": 0.10489499999999907,
            "durationTicks": 96,
            "midi": 35,
            "name": "B1",
            "ticks": 75888,
            "time": 82.9194975,
            "velocity": 0.3937007874015748
          },
          {
            "duration": 0.10489499999999907,
            "durationTicks": 96,
            "midi": 35,
            "name": "B1",
            "ticks": 75936,
            "time": 82.971945,
            "velocity": 0.3937007874015748
          },
          {
            "duration": 0.10489499999999907,
            "durationTicks": 96,
            "midi": 35,
            "name": "B1",
            "ticks": 75984,
            "time": 83.0243925,
            "velocity": 0.3937007874015748
          },
          {
            "duration": 0.10489499999999907,
            "durationTicks": 96,
            "midi": 35,
            "name": "B1",
            "ticks": 76032,
            "time": 83.07684,
            "velocity": 0.3937007874015748
          },
          {
            "duration": 0.10489499999999907,
            "durationTicks": 96,
            "midi": 35,
            "name": "B1",
            "ticks": 76080,
            "time": 83.1292875,
            "velocity": 0.3937007874015748
          },
          {
            "duration": 0.10489499999999907,
            "durationTicks": 96,
            "midi": 35,
            "name": "B1",
            "ticks": 76128,
            "time": 83.181735,
            "velocity": 0.3937007874015748
          },
          {
            "duration": 0.10489499999999907,
            "durationTicks": 96,
            "midi": 35,
            "name": "B1",
            "ticks": 76176,
            "time": 83.2341825,
            "velocity": 0.3937007874015748
          },
          {
            "duration": 0.10489499999999907,
            "durationTicks": 96,
            "midi": 35,
            "name": "B1",
            "ticks": 76224,
            "time": 83.28663,
            "velocity": 0.3937007874015748
          },
          {
            "duration": 0.10489499999999907,
            "durationTicks": 96,
            "midi": 35,
            "name": "B1",
            "ticks": 76272,
            "time": 83.3390775,
            "velocity": 0.3937007874015748
          },
          {
            "duration": 0.10489499999999907,
            "durationTicks": 96,
            "midi": 35,
            "name": "B1",
            "ticks": 76320,
            "time": 83.391525,
            "velocity": 0.3937007874015748
          },
          {
            "duration": 0.10489499999999907,
            "durationTicks": 96,
            "midi": 35,
            "name": "B1",
            "ticks": 76368,
            "time": 83.4439725,
            "velocity": 0.3937007874015748
          },
          {
            "duration": 0.10489499999999907,
            "durationTicks": 96,
            "midi": 35,
            "name": "B1",
            "ticks": 76416,
            "time": 83.49642,
            "velocity": 0.3937007874015748
          },
          {
            "duration": 0.10489499999999907,
            "durationTicks": 96,
            "midi": 35,
            "name": "B1",
            "ticks": 76464,
            "time": 83.5488675,
            "velocity": 0.3937007874015748
          },
          {
            "duration": 0.10489499999999907,
            "durationTicks": 96,
            "midi": 35,
            "name": "B1",
            "ticks": 76512,
            "time": 83.601315,
            "velocity": 0.3937007874015748
          },
          {
            "duration": 0.10489499999999907,
            "durationTicks": 96,
            "midi": 35,
            "name": "B1",
            "ticks": 76560,
            "time": 83.6537625,
            "velocity": 0.3937007874015748
          },
          {
            "duration": 0.10489499999999907,
            "durationTicks": 96,
            "midi": 35,
            "name": "B1",
            "ticks": 76608,
            "time": 83.70621,
            "velocity": 0.3937007874015748
          },
          {
            "duration": 0.10489499999999907,
            "durationTicks": 96,
            "midi": 35,
            "name": "B1",
            "ticks": 76656,
            "time": 83.7586575,
            "velocity": 0.3937007874015748
          },
          {
            "duration": 0.10489499999999907,
            "durationTicks": 96,
            "midi": 35,
            "name": "B1",
            "ticks": 76704,
            "time": 83.811105,
            "velocity": 0.3937007874015748
          },
          {
            "duration": 0.10489499999999907,
            "durationTicks": 96,
            "midi": 35,
            "name": "B1",
            "ticks": 76752,
            "time": 83.8635525,
            "velocity": 0.3937007874015748
          },
          {
            "duration": 0.10489499999999907,
            "durationTicks": 96,
            "midi": 35,
            "name": "B1",
            "ticks": 76800,
            "time": 83.916,
            "velocity": 0.3937007874015748
          },
          {
            "duration": 0.10489499999999907,
            "durationTicks": 96,
            "midi": 35,
            "name": "B1",
            "ticks": 76848,
            "time": 83.9684475,
            "velocity": 0.3937007874015748
          },
          {
            "duration": 0.10489499999999907,
            "durationTicks": 96,
            "midi": 35,
            "name": "B1",
            "ticks": 76896,
            "time": 84.020895,
            "velocity": 0.3937007874015748
          },
          {
            "duration": 0.10489500000001328,
            "durationTicks": 96,
            "midi": 35,
            "name": "B1",
            "ticks": 76944,
            "time": 84.0733425,
            "velocity": 0.3937007874015748
          },
          {
            "duration": 0.10489500000001328,
            "durationTicks": 96,
            "midi": 35,
            "name": "B1",
            "ticks": 76992,
            "time": 84.12579,
            "velocity": 0.3937007874015748
          },
          {
            "duration": 0.10489499999999907,
            "durationTicks": 96,
            "midi": 35,
            "name": "B1",
            "ticks": 77040,
            "time": 84.17823750000001,
            "velocity": 0.3937007874015748
          },
          {
            "duration": 0.10489499999999907,
            "durationTicks": 96,
            "midi": 35,
            "name": "B1",
            "ticks": 77088,
            "time": 84.23068500000001,
            "velocity": 0.3937007874015748
          },
          {
            "duration": 0.10489499999999907,
            "durationTicks": 96,
            "midi": 35,
            "name": "B1",
            "ticks": 77136,
            "time": 84.28313250000001,
            "velocity": 0.3937007874015748
          },
          {
            "duration": 0.10489499999999907,
            "durationTicks": 96,
            "midi": 35,
            "name": "B1",
            "ticks": 77184,
            "time": 84.33558000000001,
            "velocity": 0.3937007874015748
          },
          {
            "duration": 0.10489499999999907,
            "durationTicks": 96,
            "midi": 35,
            "name": "B1",
            "ticks": 77232,
            "time": 84.3880275,
            "velocity": 0.3937007874015748
          },
          {
            "duration": 0.10489499999999907,
            "durationTicks": 96,
            "midi": 35,
            "name": "B1",
            "ticks": 77280,
            "time": 84.440475,
            "velocity": 0.3937007874015748
          },
          {
            "duration": 0.10489499999999907,
            "durationTicks": 96,
            "midi": 35,
            "name": "B1",
            "ticks": 77328,
            "time": 84.4929225,
            "velocity": 0.3937007874015748
          },
          {
            "duration": 0.10489499999999907,
            "durationTicks": 96,
            "midi": 35,
            "name": "B1",
            "ticks": 77376,
            "time": 84.54537,
            "velocity": 0.3937007874015748
          },
          {
            "duration": 0.10489499999999907,
            "durationTicks": 96,
            "midi": 35,
            "name": "B1",
            "ticks": 77424,
            "time": 84.5978175,
            "velocity": 0.3937007874015748
          },
          {
            "duration": 0.10489499999999907,
            "durationTicks": 96,
            "midi": 35,
            "name": "B1",
            "ticks": 77472,
            "time": 84.650265,
            "velocity": 0.3937007874015748
          },
          {
            "duration": 0.10489499999999907,
            "durationTicks": 96,
            "midi": 35,
            "name": "B1",
            "ticks": 77520,
            "time": 84.7027125,
            "velocity": 0.3937007874015748
          },
          {
            "duration": 0.10489499999999907,
            "durationTicks": 96,
            "midi": 35,
            "name": "B1",
            "ticks": 77568,
            "time": 84.75516,
            "velocity": 0.3937007874015748
          },
          {
            "duration": 0.10489499999999907,
            "durationTicks": 96,
            "midi": 35,
            "name": "B1",
            "ticks": 77616,
            "time": 84.8076075,
            "velocity": 0.3937007874015748
          },
          {
            "duration": 0.10489499999999907,
            "durationTicks": 96,
            "midi": 35,
            "name": "B1",
            "ticks": 77664,
            "time": 84.860055,
            "velocity": 0.3937007874015748
          },
          {
            "duration": 0.10489499999999907,
            "durationTicks": 96,
            "midi": 35,
            "name": "B1",
            "ticks": 77712,
            "time": 84.9125025,
            "velocity": 0.3937007874015748
          },
          {
            "duration": 0.10489499999999907,
            "durationTicks": 96,
            "midi": 35,
            "name": "B1",
            "ticks": 77760,
            "time": 84.96495,
            "velocity": 0.3937007874015748
          },
          {
            "duration": 0.10489499999999907,
            "durationTicks": 96,
            "midi": 35,
            "name": "B1",
            "ticks": 77808,
            "time": 85.0173975,
            "velocity": 0.3937007874015748
          },
          {
            "duration": 0.10489499999999907,
            "durationTicks": 96,
            "midi": 35,
            "name": "B1",
            "ticks": 77856,
            "time": 85.069845,
            "velocity": 0.3937007874015748
          },
          {
            "duration": 0.10489499999999907,
            "durationTicks": 96,
            "midi": 35,
            "name": "B1",
            "ticks": 77904,
            "time": 85.1222925,
            "velocity": 0.3937007874015748
          },
          {
            "duration": 0.10489499999999907,
            "durationTicks": 96,
            "midi": 35,
            "name": "B1",
            "ticks": 77952,
            "time": 85.17474,
            "velocity": 0.3937007874015748
          },
          {
            "duration": 0.10489499999999907,
            "durationTicks": 96,
            "midi": 35,
            "name": "B1",
            "ticks": 78000,
            "time": 85.2271875,
            "velocity": 0.3937007874015748
          },
          {
            "duration": 0.10489499999999907,
            "durationTicks": 96,
            "midi": 35,
            "name": "B1",
            "ticks": 78048,
            "time": 85.279635,
            "velocity": 0.3937007874015748
          },
          {
            "duration": 0.10489499999999907,
            "durationTicks": 96,
            "midi": 35,
            "name": "B1",
            "ticks": 78096,
            "time": 85.3320825,
            "velocity": 0.3937007874015748
          },
          {
            "duration": 0.10489499999999907,
            "durationTicks": 96,
            "midi": 35,
            "name": "B1",
            "ticks": 78144,
            "time": 85.38453,
            "velocity": 0.3937007874015748
          },
          {
            "duration": 0.10489499999999907,
            "durationTicks": 96,
            "midi": 35,
            "name": "B1",
            "ticks": 78192,
            "time": 85.4369775,
            "velocity": 0.3937007874015748
          },
          {
            "duration": 0.10489499999999907,
            "durationTicks": 96,
            "midi": 35,
            "name": "B1",
            "ticks": 78240,
            "time": 85.489425,
            "velocity": 0.3937007874015748
          },
          {
            "duration": 0.10489499999999907,
            "durationTicks": 96,
            "midi": 35,
            "name": "B1",
            "ticks": 78288,
            "time": 85.5418725,
            "velocity": 0.3937007874015748
          },
          {
            "duration": 0.10489499999999907,
            "durationTicks": 96,
            "midi": 35,
            "name": "B1",
            "ticks": 78336,
            "time": 85.59432,
            "velocity": 0.3937007874015748
          },
          {
            "duration": 0.10489499999999907,
            "durationTicks": 96,
            "midi": 35,
            "name": "B1",
            "ticks": 78384,
            "time": 85.6467675,
            "velocity": 0.3937007874015748
          },
          {
            "duration": 0.10489500000001328,
            "durationTicks": 96,
            "midi": 35,
            "name": "B1",
            "ticks": 78432,
            "time": 85.699215,
            "velocity": 0.3937007874015748
          },
          {
            "duration": 0.10489500000001328,
            "durationTicks": 96,
            "midi": 35,
            "name": "B1",
            "ticks": 78480,
            "time": 85.7516625,
            "velocity": 0.3937007874015748
          },
          {
            "duration": 0.10489499999999907,
            "durationTicks": 96,
            "midi": 35,
            "name": "B1",
            "ticks": 78528,
            "time": 85.80411000000001,
            "velocity": 0.3937007874015748
          },
          {
            "duration": 0.10489499999999907,
            "durationTicks": 96,
            "midi": 35,
            "name": "B1",
            "ticks": 78576,
            "time": 85.85655750000001,
            "velocity": 0.3937007874015748
          },
          {
            "duration": 0.10489499999999907,
            "durationTicks": 96,
            "midi": 35,
            "name": "B1",
            "ticks": 78624,
            "time": 85.90900500000001,
            "velocity": 0.3937007874015748
          },
          {
            "duration": 0.10489499999999907,
            "durationTicks": 96,
            "midi": 35,
            "name": "B1",
            "ticks": 78672,
            "time": 85.96145250000001,
            "velocity": 0.3937007874015748
          },
          {
            "duration": 0.10489499999999907,
            "durationTicks": 96,
            "midi": 35,
            "name": "B1",
            "ticks": 78720,
            "time": 86.0139,
            "velocity": 0.3937007874015748
          },
          {
            "duration": 0.10489499999999907,
            "durationTicks": 96,
            "midi": 35,
            "name": "B1",
            "ticks": 78768,
            "time": 86.0663475,
            "velocity": 0.3937007874015748
          },
          {
            "duration": 0.10489499999999907,
            "durationTicks": 96,
            "midi": 35,
            "name": "B1",
            "ticks": 78816,
            "time": 86.118795,
            "velocity": 0.3937007874015748
          },
          {
            "duration": 0.10489499999999907,
            "durationTicks": 96,
            "midi": 35,
            "name": "B1",
            "ticks": 78864,
            "time": 86.1712425,
            "velocity": 0.3937007874015748
          },
          {
            "duration": 0.10489499999999907,
            "durationTicks": 96,
            "midi": 35,
            "name": "B1",
            "ticks": 78912,
            "time": 86.22369,
            "velocity": 0.3937007874015748
          },
          {
            "duration": 0.10489499999999907,
            "durationTicks": 96,
            "midi": 35,
            "name": "B1",
            "ticks": 78960,
            "time": 86.2761375,
            "velocity": 0.3937007874015748
          },
          {
            "duration": 0.10489499999999907,
            "durationTicks": 96,
            "midi": 35,
            "name": "B1",
            "ticks": 79008,
            "time": 86.328585,
            "velocity": 0.3937007874015748
          },
          {
            "duration": 0.10489499999999907,
            "durationTicks": 96,
            "midi": 35,
            "name": "B1",
            "ticks": 79056,
            "time": 86.3810325,
            "velocity": 0.3937007874015748
          },
          {
            "duration": 0.10489499999999907,
            "durationTicks": 96,
            "midi": 35,
            "name": "B1",
            "ticks": 79104,
            "time": 86.43348,
            "velocity": 0.3937007874015748
          },
          {
            "duration": 0.10489499999999907,
            "durationTicks": 96,
            "midi": 35,
            "name": "B1",
            "ticks": 79152,
            "time": 86.4859275,
            "velocity": 0.3937007874015748
          },
          {
            "duration": 0.10489499999999907,
            "durationTicks": 96,
            "midi": 35,
            "name": "B1",
            "ticks": 79200,
            "time": 86.538375,
            "velocity": 0.3937007874015748
          },
          {
            "duration": 0.10489499999999907,
            "durationTicks": 96,
            "midi": 35,
            "name": "B1",
            "ticks": 79248,
            "time": 86.5908225,
            "velocity": 0.3937007874015748
          },
          {
            "duration": 0.10489499999999907,
            "durationTicks": 96,
            "midi": 35,
            "name": "B1",
            "ticks": 79296,
            "time": 86.64327,
            "velocity": 0.3937007874015748
          },
          {
            "duration": 0.10489499999999907,
            "durationTicks": 96,
            "midi": 35,
            "name": "B1",
            "ticks": 79344,
            "time": 86.6957175,
            "velocity": 0.3937007874015748
          },
          {
            "duration": 0.10489499999999907,
            "durationTicks": 96,
            "midi": 35,
            "name": "B1",
            "ticks": 79392,
            "time": 86.748165,
            "velocity": 0.3937007874015748
          },
          {
            "duration": 0.10489499999999907,
            "durationTicks": 96,
            "midi": 35,
            "name": "B1",
            "ticks": 79440,
            "time": 86.8006125,
            "velocity": 0.3937007874015748
          },
          {
            "duration": 0.10489499999999907,
            "durationTicks": 96,
            "midi": 35,
            "name": "B1",
            "ticks": 79488,
            "time": 86.85306,
            "velocity": 0.3937007874015748
          },
          {
            "duration": 0.10489499999999907,
            "durationTicks": 96,
            "midi": 35,
            "name": "B1",
            "ticks": 79536,
            "time": 86.9055075,
            "velocity": 0.3937007874015748
          },
          {
            "duration": 0.10489499999999907,
            "durationTicks": 96,
            "midi": 35,
            "name": "B1",
            "ticks": 79584,
            "time": 86.957955,
            "velocity": 0.3937007874015748
          },
          {
            "duration": 0.10489499999999907,
            "durationTicks": 96,
            "midi": 35,
            "name": "B1",
            "ticks": 79632,
            "time": 87.0104025,
            "velocity": 0.3937007874015748
          },
          {
            "duration": 0.10489499999999907,
            "durationTicks": 96,
            "midi": 35,
            "name": "B1",
            "ticks": 79680,
            "time": 87.06285,
            "velocity": 0.3937007874015748
          },
          {
            "duration": 0.10489499999999907,
            "durationTicks": 96,
            "midi": 35,
            "name": "B1",
            "ticks": 79728,
            "time": 87.1152975,
            "velocity": 0.3937007874015748
          },
          {
            "duration": 0.10489499999999907,
            "durationTicks": 96,
            "midi": 35,
            "name": "B1",
            "ticks": 79776,
            "time": 87.167745,
            "velocity": 0.3937007874015748
          },
          {
            "duration": 0.10489499999999907,
            "durationTicks": 96,
            "midi": 35,
            "name": "B1",
            "ticks": 79824,
            "time": 87.2201925,
            "velocity": 0.3937007874015748
          },
          {
            "duration": 0.10489500000001328,
            "durationTicks": 96,
            "midi": 35,
            "name": "B1",
            "ticks": 79872,
            "time": 87.27264,
            "velocity": 0.3937007874015748
          },
          {
            "duration": 0.10489500000001328,
            "durationTicks": 96,
            "midi": 35,
            "name": "B1",
            "ticks": 79920,
            "time": 87.3250875,
            "velocity": 0.3937007874015748
          },
          {
            "duration": 0.10489499999999907,
            "durationTicks": 96,
            "midi": 35,
            "name": "B1",
            "ticks": 79968,
            "time": 87.37753500000001,
            "velocity": 0.3937007874015748
          },
          {
            "duration": 0.10489499999999907,
            "durationTicks": 96,
            "midi": 35,
            "name": "B1",
            "ticks": 80016,
            "time": 87.42998250000001,
            "velocity": 0.3937007874015748
          },
          {
            "duration": 0.10489499999999907,
            "durationTicks": 96,
            "midi": 35,
            "name": "B1",
            "ticks": 80064,
            "time": 87.48243000000001,
            "velocity": 0.3937007874015748
          },
          {
            "duration": 0.10489499999999907,
            "durationTicks": 96,
            "midi": 35,
            "name": "B1",
            "ticks": 80112,
            "time": 87.53487750000001,
            "velocity": 0.3937007874015748
          },
          {
            "duration": 0.10489499999999907,
            "durationTicks": 96,
            "midi": 35,
            "name": "B1",
            "ticks": 80160,
            "time": 87.587325,
            "velocity": 0.3937007874015748
          },
          {
            "duration": 0.10489499999999907,
            "durationTicks": 96,
            "midi": 35,
            "name": "B1",
            "ticks": 80208,
            "time": 87.6397725,
            "velocity": 0.3937007874015748
          },
          {
            "duration": 0.10489499999999907,
            "durationTicks": 96,
            "midi": 35,
            "name": "B1",
            "ticks": 80256,
            "time": 87.69222,
            "velocity": 0.3937007874015748
          },
          {
            "duration": 0.10489499999999907,
            "durationTicks": 96,
            "midi": 35,
            "name": "B1",
            "ticks": 80304,
            "time": 87.7446675,
            "velocity": 0.3937007874015748
          },
          {
            "duration": 0.10489499999999907,
            "durationTicks": 96,
            "midi": 35,
            "name": "B1",
            "ticks": 80352,
            "time": 87.797115,
            "velocity": 0.3937007874015748
          },
          {
            "duration": 0.10489499999999907,
            "durationTicks": 96,
            "midi": 35,
            "name": "B1",
            "ticks": 80400,
            "time": 87.8495625,
            "velocity": 0.3937007874015748
          },
          {
            "duration": 0.10489499999999907,
            "durationTicks": 96,
            "midi": 35,
            "name": "B1",
            "ticks": 80448,
            "time": 87.90201,
            "velocity": 0.3937007874015748
          },
          {
            "duration": 0.10489499999999907,
            "durationTicks": 96,
            "midi": 35,
            "name": "B1",
            "ticks": 80496,
            "time": 87.9544575,
            "velocity": 0.3937007874015748
          },
          {
            "duration": 0.10489499999999907,
            "durationTicks": 96,
            "midi": 35,
            "name": "B1",
            "ticks": 80544,
            "time": 88.006905,
            "velocity": 0.3937007874015748
          },
          {
            "duration": 0.10489499999999907,
            "durationTicks": 96,
            "midi": 35,
            "name": "B1",
            "ticks": 80592,
            "time": 88.0593525,
            "velocity": 0.3937007874015748
          },
          {
            "duration": 0.10489499999999907,
            "durationTicks": 96,
            "midi": 35,
            "name": "B1",
            "ticks": 80640,
            "time": 88.1118,
            "velocity": 0.3937007874015748
          },
          {
            "duration": 0.10489499999999907,
            "durationTicks": 96,
            "midi": 35,
            "name": "B1",
            "ticks": 80688,
            "time": 88.1642475,
            "velocity": 0.3937007874015748
          },
          {
            "duration": 0.10489499999999907,
            "durationTicks": 96,
            "midi": 35,
            "name": "B1",
            "ticks": 80736,
            "time": 88.216695,
            "velocity": 0.3937007874015748
          },
          {
            "duration": 0.10489499999999907,
            "durationTicks": 96,
            "midi": 35,
            "name": "B1",
            "ticks": 80784,
            "time": 88.2691425,
            "velocity": 0.3937007874015748
          },
          {
            "duration": 0.10489499999999907,
            "durationTicks": 96,
            "midi": 35,
            "name": "B1",
            "ticks": 80832,
            "time": 88.32159,
            "velocity": 0.3937007874015748
          },
          {
            "duration": 0.10489499999999907,
            "durationTicks": 96,
            "midi": 35,
            "name": "B1",
            "ticks": 80880,
            "time": 88.3740375,
            "velocity": 0.3937007874015748
          },
          {
            "duration": 0.10489499999999907,
            "durationTicks": 96,
            "midi": 35,
            "name": "B1",
            "ticks": 80928,
            "time": 88.426485,
            "velocity": 0.3937007874015748
          },
          {
            "duration": 0.10489499999999907,
            "durationTicks": 96,
            "midi": 35,
            "name": "B1",
            "ticks": 80976,
            "time": 88.4789325,
            "velocity": 0.3937007874015748
          },
          {
            "duration": 0.10489499999999907,
            "durationTicks": 96,
            "midi": 35,
            "name": "B1",
            "ticks": 81024,
            "time": 88.53138,
            "velocity": 0.3937007874015748
          },
          {
            "duration": 0.10489499999999907,
            "durationTicks": 96,
            "midi": 35,
            "name": "B1",
            "ticks": 81072,
            "time": 88.5838275,
            "velocity": 0.3937007874015748
          },
          {
            "duration": 0.10489499999999907,
            "durationTicks": 96,
            "midi": 35,
            "name": "B1",
            "ticks": 81120,
            "time": 88.636275,
            "velocity": 0.3937007874015748
          },
          {
            "duration": 0.10489499999999907,
            "durationTicks": 96,
            "midi": 35,
            "name": "B1",
            "ticks": 81168,
            "time": 88.6887225,
            "velocity": 0.3937007874015748
          },
          {
            "duration": 0.10489499999999907,
            "durationTicks": 96,
            "midi": 35,
            "name": "B1",
            "ticks": 81216,
            "time": 88.74117,
            "velocity": 0.3937007874015748
          },
          {
            "duration": 0.10489499999999907,
            "durationTicks": 96,
            "midi": 35,
            "name": "B1",
            "ticks": 81264,
            "time": 88.7936175,
            "velocity": 0.3937007874015748
          },
          {
            "duration": 0.10489499999999907,
            "durationTicks": 96,
            "midi": 35,
            "name": "B1",
            "ticks": 81312,
            "time": 88.846065,
            "velocity": 0.3937007874015748
          },
          {
            "duration": 0.10489500000001328,
            "durationTicks": 96,
            "midi": 35,
            "name": "B1",
            "ticks": 81360,
            "time": 88.8985125,
            "velocity": 0.3937007874015748
          },
          {
            "duration": 0.10489500000001328,
            "durationTicks": 96,
            "midi": 35,
            "name": "B1",
            "ticks": 81408,
            "time": 88.95096,
            "velocity": 0.3937007874015748
          },
          {
            "duration": 0.10489499999999907,
            "durationTicks": 96,
            "midi": 35,
            "name": "B1",
            "ticks": 81456,
            "time": 89.00340750000001,
            "velocity": 0.3937007874015748
          },
          {
            "duration": 0.10489499999999907,
            "durationTicks": 96,
            "midi": 35,
            "name": "B1",
            "ticks": 81504,
            "time": 89.05585500000001,
            "velocity": 0.3937007874015748
          },
          {
            "duration": 0.10489499999999907,
            "durationTicks": 96,
            "midi": 35,
            "name": "B1",
            "ticks": 81552,
            "time": 89.10830250000001,
            "velocity": 0.3937007874015748
          },
          {
            "duration": 0.10489499999999907,
            "durationTicks": 96,
            "midi": 35,
            "name": "B1",
            "ticks": 81600,
            "time": 89.16075000000001,
            "velocity": 0.3937007874015748
          },
          {
            "duration": 0.10489499999999907,
            "durationTicks": 96,
            "midi": 35,
            "name": "B1",
            "ticks": 81648,
            "time": 89.2131975,
            "velocity": 0.3937007874015748
          },
          {
            "duration": 0.10489499999999907,
            "durationTicks": 96,
            "midi": 35,
            "name": "B1",
            "ticks": 81696,
            "time": 89.265645,
            "velocity": 0.3937007874015748
          },
          {
            "duration": 0.10489499999999907,
            "durationTicks": 96,
            "midi": 35,
            "name": "B1",
            "ticks": 81744,
            "time": 89.3180925,
            "velocity": 0.3937007874015748
          },
          {
            "duration": 0.10489499999999907,
            "durationTicks": 96,
            "midi": 35,
            "name": "B1",
            "ticks": 81792,
            "time": 89.37054,
            "velocity": 0.3937007874015748
          },
          {
            "duration": 0.10489499999999907,
            "durationTicks": 96,
            "midi": 35,
            "name": "B1",
            "ticks": 81840,
            "time": 89.4229875,
            "velocity": 0.3937007874015748
          },
          {
            "duration": 0.10489499999999907,
            "durationTicks": 96,
            "midi": 35,
            "name": "B1",
            "ticks": 81888,
            "time": 89.475435,
            "velocity": 0.3937007874015748
          },
          {
            "duration": 0.10489499999999907,
            "durationTicks": 96,
            "midi": 35,
            "name": "B1",
            "ticks": 81936,
            "time": 89.5278825,
            "velocity": 0.3937007874015748
          },
          {
            "duration": 0.10489499999999907,
            "durationTicks": 96,
            "midi": 35,
            "name": "B1",
            "ticks": 81984,
            "time": 89.58033,
            "velocity": 0.3937007874015748
          },
          {
            "duration": 0.10489499999999907,
            "durationTicks": 96,
            "midi": 35,
            "name": "B1",
            "ticks": 82032,
            "time": 89.6327775,
            "velocity": 0.3937007874015748
          },
          {
            "duration": 0.10489499999999907,
            "durationTicks": 96,
            "midi": 35,
            "name": "B1",
            "ticks": 82080,
            "time": 89.685225,
            "velocity": 0.3937007874015748
          },
          {
            "duration": 0.10489499999999907,
            "durationTicks": 96,
            "midi": 35,
            "name": "B1",
            "ticks": 82128,
            "time": 89.7376725,
            "velocity": 0.3937007874015748
          },
          {
            "duration": 0.10489499999999907,
            "durationTicks": 96,
            "midi": 35,
            "name": "B1",
            "ticks": 82176,
            "time": 89.79012,
            "velocity": 0.3937007874015748
          },
          {
            "duration": 0.10489499999999907,
            "durationTicks": 96,
            "midi": 35,
            "name": "B1",
            "ticks": 82224,
            "time": 89.8425675,
            "velocity": 0.3937007874015748
          },
          {
            "duration": 0.10489499999999907,
            "durationTicks": 96,
            "midi": 35,
            "name": "B1",
            "ticks": 82272,
            "time": 89.895015,
            "velocity": 0.3937007874015748
          },
          {
            "duration": 0.10489499999999907,
            "durationTicks": 96,
            "midi": 35,
            "name": "B1",
            "ticks": 82320,
            "time": 89.9474625,
            "velocity": 0.3937007874015748
          },
          {
            "duration": 0.10489499999999907,
            "durationTicks": 96,
            "midi": 35,
            "name": "B1",
            "ticks": 82368,
            "time": 89.99991,
            "velocity": 0.3937007874015748
          },
          {
            "duration": 0.10489499999999907,
            "durationTicks": 96,
            "midi": 35,
            "name": "B1",
            "ticks": 82416,
            "time": 90.0523575,
            "velocity": 0.3937007874015748
          },
          {
            "duration": 0.10489499999999907,
            "durationTicks": 96,
            "midi": 35,
            "name": "B1",
            "ticks": 82464,
            "time": 90.104805,
            "velocity": 0.3937007874015748
          },
          {
            "duration": 0.10489499999999907,
            "durationTicks": 96,
            "midi": 35,
            "name": "B1",
            "ticks": 82512,
            "time": 90.1572525,
            "velocity": 0.3937007874015748
          },
          {
            "duration": 0.10489499999999907,
            "durationTicks": 96,
            "midi": 35,
            "name": "B1",
            "ticks": 82560,
            "time": 90.2097,
            "velocity": 0.3937007874015748
          },
          {
            "duration": 0.10489499999999907,
            "durationTicks": 96,
            "midi": 35,
            "name": "B1",
            "ticks": 82608,
            "time": 90.2621475,
            "velocity": 0.3937007874015748
          },
          {
            "duration": 0.10489499999999907,
            "durationTicks": 96,
            "midi": 35,
            "name": "B1",
            "ticks": 82656,
            "time": 90.314595,
            "velocity": 0.3937007874015748
          },
          {
            "duration": 0.10489499999999907,
            "durationTicks": 96,
            "midi": 35,
            "name": "B1",
            "ticks": 82704,
            "time": 90.3670425,
            "velocity": 0.3937007874015748
          },
          {
            "duration": 0.10489499999999907,
            "durationTicks": 96,
            "midi": 35,
            "name": "B1",
            "ticks": 82752,
            "time": 90.41949,
            "velocity": 0.3937007874015748
          },
          {
            "duration": 0.10489499999999907,
            "durationTicks": 96,
            "midi": 35,
            "name": "B1",
            "ticks": 82800,
            "time": 90.4719375,
            "velocity": 0.3937007874015748
          },
          {
            "duration": 0.10489500000001328,
            "durationTicks": 96,
            "midi": 35,
            "name": "B1",
            "ticks": 82848,
            "time": 90.524385,
            "velocity": 0.3937007874015748
          },
          {
            "duration": 0.10489500000001328,
            "durationTicks": 96,
            "midi": 35,
            "name": "B1",
            "ticks": 82896,
            "time": 90.5768325,
            "velocity": 0.3937007874015748
          },
          {
            "duration": 0.10489499999999907,
            "durationTicks": 96,
            "midi": 35,
            "name": "B1",
            "ticks": 82944,
            "time": 90.62928000000001,
            "velocity": 0.3937007874015748
          },
          {
            "duration": 0.10489499999999907,
            "durationTicks": 96,
            "midi": 35,
            "name": "B1",
            "ticks": 82992,
            "time": 90.68172750000001,
            "velocity": 0.3937007874015748
          },
          {
            "duration": 0.10489499999999907,
            "durationTicks": 96,
            "midi": 35,
            "name": "B1",
            "ticks": 83040,
            "time": 90.73417500000001,
            "velocity": 0.3937007874015748
          },
          {
            "duration": 0.10489499999999907,
            "durationTicks": 96,
            "midi": 35,
            "name": "B1",
            "ticks": 83088,
            "time": 90.78662250000001,
            "velocity": 0.3937007874015748
          },
          {
            "duration": 0.10489499999999907,
            "durationTicks": 96,
            "midi": 35,
            "name": "B1",
            "ticks": 83136,
            "time": 90.83907,
            "velocity": 0.3937007874015748
          },
          {
            "duration": 0.10489499999999907,
            "durationTicks": 96,
            "midi": 35,
            "name": "B1",
            "ticks": 83184,
            "time": 90.8915175,
            "velocity": 0.3937007874015748
          },
          {
            "duration": 0.10489499999999907,
            "durationTicks": 96,
            "midi": 35,
            "name": "B1",
            "ticks": 83232,
            "time": 90.943965,
            "velocity": 0.3937007874015748
          },
          {
            "duration": 0.10489499999999907,
            "durationTicks": 96,
            "midi": 35,
            "name": "B1",
            "ticks": 83280,
            "time": 90.9964125,
            "velocity": 0.3937007874015748
          },
          {
            "duration": 0.10489499999999907,
            "durationTicks": 96,
            "midi": 35,
            "name": "B1",
            "ticks": 83328,
            "time": 91.04886,
            "velocity": 0.3937007874015748
          },
          {
            "duration": 0.10489499999999907,
            "durationTicks": 96,
            "midi": 35,
            "name": "B1",
            "ticks": 83376,
            "time": 91.1013075,
            "velocity": 0.3937007874015748
          },
          {
            "duration": 0.10489499999999907,
            "durationTicks": 96,
            "midi": 35,
            "name": "B1",
            "ticks": 83424,
            "time": 91.153755,
            "velocity": 0.3937007874015748
          },
          {
            "duration": 0.10489499999999907,
            "durationTicks": 96,
            "midi": 35,
            "name": "B1",
            "ticks": 83472,
            "time": 91.2062025,
            "velocity": 0.3937007874015748
          },
          {
            "duration": 0.10489499999999907,
            "durationTicks": 96,
            "midi": 35,
            "name": "B1",
            "ticks": 83520,
            "time": 91.25865,
            "velocity": 0.3937007874015748
          },
          {
            "duration": 0.10489499999999907,
            "durationTicks": 96,
            "midi": 35,
            "name": "B1",
            "ticks": 83568,
            "time": 91.3110975,
            "velocity": 0.3937007874015748
          },
          {
            "duration": 0.10489499999999907,
            "durationTicks": 96,
            "midi": 35,
            "name": "B1",
            "ticks": 83616,
            "time": 91.363545,
            "velocity": 0.3937007874015748
          },
          {
            "duration": 0.10489499999999907,
            "durationTicks": 96,
            "midi": 35,
            "name": "B1",
            "ticks": 83664,
            "time": 91.4159925,
            "velocity": 0.3937007874015748
          },
          {
            "duration": 0.10489499999999907,
            "durationTicks": 96,
            "midi": 35,
            "name": "B1",
            "ticks": 83712,
            "time": 91.46844,
            "velocity": 0.3937007874015748
          },
          {
            "duration": 0.10489499999999907,
            "durationTicks": 96,
            "midi": 35,
            "name": "B1",
            "ticks": 83760,
            "time": 91.5208875,
            "velocity": 0.3937007874015748
          },
          {
            "duration": 0.10489499999999907,
            "durationTicks": 96,
            "midi": 35,
            "name": "B1",
            "ticks": 83808,
            "time": 91.573335,
            "velocity": 0.3937007874015748
          },
          {
            "duration": 0.10489499999999907,
            "durationTicks": 96,
            "midi": 35,
            "name": "B1",
            "ticks": 83856,
            "time": 91.6257825,
            "velocity": 0.3937007874015748
          },
          {
            "duration": 0.10489499999999907,
            "durationTicks": 96,
            "midi": 35,
            "name": "B1",
            "ticks": 83904,
            "time": 91.67823,
            "velocity": 0.3937007874015748
          },
          {
            "duration": 0.10489499999999907,
            "durationTicks": 96,
            "midi": 35,
            "name": "B1",
            "ticks": 83952,
            "time": 91.7306775,
            "velocity": 0.3937007874015748
          },
          {
            "duration": 0.10489499999999907,
            "durationTicks": 96,
            "midi": 35,
            "name": "B1",
            "ticks": 84000,
            "time": 91.783125,
            "velocity": 0.3937007874015748
          },
          {
            "duration": 0.10489499999999907,
            "durationTicks": 96,
            "midi": 35,
            "name": "B1",
            "ticks": 84048,
            "time": 91.8355725,
            "velocity": 0.3937007874015748
          },
          {
            "duration": 0.10489499999999907,
            "durationTicks": 96,
            "midi": 35,
            "name": "B1",
            "ticks": 84096,
            "time": 91.88802,
            "velocity": 0.3937007874015748
          },
          {
            "duration": 0.10489499999999907,
            "durationTicks": 96,
            "midi": 35,
            "name": "B1",
            "ticks": 84144,
            "time": 91.9404675,
            "velocity": 0.3937007874015748
          },
          {
            "duration": 0.10489499999999907,
            "durationTicks": 96,
            "midi": 35,
            "name": "B1",
            "ticks": 84192,
            "time": 91.992915,
            "velocity": 0.3937007874015748
          },
          {
            "duration": 0.10489499999999907,
            "durationTicks": 96,
            "midi": 35,
            "name": "B1",
            "ticks": 84240,
            "time": 92.0453625,
            "velocity": 0.3937007874015748
          },
          {
            "duration": 0.10489500000001328,
            "durationTicks": 96,
            "midi": 35,
            "name": "B1",
            "ticks": 84288,
            "time": 92.09781,
            "velocity": 0.3937007874015748
          },
          {
            "duration": 0.10489500000001328,
            "durationTicks": 96,
            "midi": 35,
            "name": "B1",
            "ticks": 84336,
            "time": 92.1502575,
            "velocity": 0.3937007874015748
          },
          {
            "duration": 0.10489499999999907,
            "durationTicks": 96,
            "midi": 35,
            "name": "B1",
            "ticks": 84384,
            "time": 92.20270500000001,
            "velocity": 0.3937007874015748
          },
          {
            "duration": 0.10489499999999907,
            "durationTicks": 96,
            "midi": 35,
            "name": "B1",
            "ticks": 84432,
            "time": 92.25515250000001,
            "velocity": 0.3937007874015748
          },
          {
            "duration": 0.10489499999999907,
            "durationTicks": 96,
            "midi": 35,
            "name": "B1",
            "ticks": 84480,
            "time": 92.30760000000001,
            "velocity": 0.3937007874015748
          },
          {
            "duration": 0.10489499999999907,
            "durationTicks": 96,
            "midi": 35,
            "name": "B1",
            "ticks": 84528,
            "time": 92.36004750000001,
            "velocity": 0.3937007874015748
          },
          {
            "duration": 0.10489499999999907,
            "durationTicks": 96,
            "midi": 35,
            "name": "B1",
            "ticks": 84576,
            "time": 92.412495,
            "velocity": 0.3937007874015748
          },
          {
            "duration": 0.10489499999999907,
            "durationTicks": 96,
            "midi": 35,
            "name": "B1",
            "ticks": 84624,
            "time": 92.4649425,
            "velocity": 0.3937007874015748
          },
          {
            "duration": 0.10489499999999907,
            "durationTicks": 96,
            "midi": 35,
            "name": "B1",
            "ticks": 84672,
            "time": 92.51739,
            "velocity": 0.3937007874015748
          },
          {
            "duration": 0.10489499999999907,
            "durationTicks": 96,
            "midi": 35,
            "name": "B1",
            "ticks": 84720,
            "time": 92.5698375,
            "velocity": 0.3937007874015748
          },
          {
            "duration": 0.10489499999999907,
            "durationTicks": 96,
            "midi": 35,
            "name": "B1",
            "ticks": 84768,
            "time": 92.622285,
            "velocity": 0.3937007874015748
          },
          {
            "duration": 0.10489499999999907,
            "durationTicks": 96,
            "midi": 35,
            "name": "B1",
            "ticks": 84816,
            "time": 92.6747325,
            "velocity": 0.3937007874015748
          },
          {
            "duration": 0.10489499999999907,
            "durationTicks": 96,
            "midi": 35,
            "name": "B1",
            "ticks": 84864,
            "time": 92.72718,
            "velocity": 0.3937007874015748
          },
          {
            "duration": 0.10489499999999907,
            "durationTicks": 96,
            "midi": 35,
            "name": "B1",
            "ticks": 84912,
            "time": 92.7796275,
            "velocity": 0.3937007874015748
          },
          {
            "duration": 0.10489499999999907,
            "durationTicks": 96,
            "midi": 35,
            "name": "B1",
            "ticks": 84960,
            "time": 92.832075,
            "velocity": 0.3937007874015748
          },
          {
            "duration": 0.10489499999999907,
            "durationTicks": 96,
            "midi": 35,
            "name": "B1",
            "ticks": 85008,
            "time": 92.8845225,
            "velocity": 0.3937007874015748
          },
          {
            "duration": 0.10489499999999907,
            "durationTicks": 96,
            "midi": 35,
            "name": "B1",
            "ticks": 85056,
            "time": 92.93697,
            "velocity": 0.3937007874015748
          },
          {
            "duration": 0.10489499999999907,
            "durationTicks": 96,
            "midi": 35,
            "name": "B1",
            "ticks": 85104,
            "time": 92.9894175,
            "velocity": 0.3937007874015748
          },
          {
            "duration": 0.10489499999999907,
            "durationTicks": 96,
            "midi": 35,
            "name": "B1",
            "ticks": 85152,
            "time": 93.041865,
            "velocity": 0.3937007874015748
          },
          {
            "duration": 0.10489499999999907,
            "durationTicks": 96,
            "midi": 35,
            "name": "B1",
            "ticks": 85200,
            "time": 93.0943125,
            "velocity": 0.3937007874015748
          },
          {
            "duration": 0.10489499999999907,
            "durationTicks": 96,
            "midi": 35,
            "name": "B1",
            "ticks": 85248,
            "time": 93.14676,
            "velocity": 0.3937007874015748
          },
          {
            "duration": 0.10489499999999907,
            "durationTicks": 96,
            "midi": 35,
            "name": "B1",
            "ticks": 85296,
            "time": 93.1992075,
            "velocity": 0.3937007874015748
          },
          {
            "duration": 0.10489499999999907,
            "durationTicks": 96,
            "midi": 35,
            "name": "B1",
            "ticks": 85344,
            "time": 93.251655,
            "velocity": 0.3937007874015748
          },
          {
            "duration": 0.10489499999999907,
            "durationTicks": 96,
            "midi": 35,
            "name": "B1",
            "ticks": 85392,
            "time": 93.3041025,
            "velocity": 0.3937007874015748
          },
          {
            "duration": 0.10489499999999907,
            "durationTicks": 96,
            "midi": 35,
            "name": "B1",
            "ticks": 85440,
            "time": 93.35655,
            "velocity": 0.3937007874015748
          },
          {
            "duration": 0.10489499999999907,
            "durationTicks": 96,
            "midi": 35,
            "name": "B1",
            "ticks": 85488,
            "time": 93.4089975,
            "velocity": 0.3937007874015748
          },
          {
            "duration": 0.10489499999999907,
            "durationTicks": 96,
            "midi": 35,
            "name": "B1",
            "ticks": 85536,
            "time": 93.461445,
            "velocity": 0.3937007874015748
          },
          {
            "duration": 0.10489499999999907,
            "durationTicks": 96,
            "midi": 35,
            "name": "B1",
            "ticks": 85584,
            "time": 93.5138925,
            "velocity": 0.3937007874015748
          },
          {
            "duration": 0.10489499999999907,
            "durationTicks": 96,
            "midi": 35,
            "name": "B1",
            "ticks": 85632,
            "time": 93.56634,
            "velocity": 0.3937007874015748
          },
          {
            "duration": 0.10489499999999907,
            "durationTicks": 96,
            "midi": 35,
            "name": "B1",
            "ticks": 85680,
            "time": 93.6187875,
            "velocity": 0.3937007874015748
          },
          {
            "duration": 0.10489499999999907,
            "durationTicks": 96,
            "midi": 35,
            "name": "B1",
            "ticks": 85728,
            "time": 93.671235,
            "velocity": 0.3937007874015748
          },
          {
            "duration": 0.10489500000001328,
            "durationTicks": 96,
            "midi": 35,
            "name": "B1",
            "ticks": 85776,
            "time": 93.7236825,
            "velocity": 0.3937007874015748
          },
          {
            "duration": 0.10489500000001328,
            "durationTicks": 96,
            "midi": 35,
            "name": "B1",
            "ticks": 85824,
            "time": 93.77613,
            "velocity": 0.3937007874015748
          },
          {
            "duration": 0.10489499999999907,
            "durationTicks": 96,
            "midi": 35,
            "name": "B1",
            "ticks": 85872,
            "time": 93.82857750000001,
            "velocity": 0.3937007874015748
          },
          {
            "duration": 0.10489499999999907,
            "durationTicks": 96,
            "midi": 35,
            "name": "B1",
            "ticks": 85920,
            "time": 93.88102500000001,
            "velocity": 0.3937007874015748
          },
          {
            "duration": 0.10489499999999907,
            "durationTicks": 96,
            "midi": 35,
            "name": "B1",
            "ticks": 85968,
            "time": 93.93347250000001,
            "velocity": 0.3937007874015748
          },
          {
            "duration": 0.10489499999999907,
            "durationTicks": 96,
            "midi": 35,
            "name": "B1",
            "ticks": 86016,
            "time": 93.98592000000001,
            "velocity": 0.3937007874015748
          },
          {
            "duration": 0.10489499999999907,
            "durationTicks": 96,
            "midi": 35,
            "name": "B1",
            "ticks": 86064,
            "time": 94.0383675,
            "velocity": 0.3937007874015748
          },
          {
            "duration": 0.10489499999999907,
            "durationTicks": 96,
            "midi": 35,
            "name": "B1",
            "ticks": 86112,
            "time": 94.090815,
            "velocity": 0.3937007874015748
          },
          {
            "duration": 0.10489499999999907,
            "durationTicks": 96,
            "midi": 35,
            "name": "B1",
            "ticks": 86160,
            "time": 94.1432625,
            "velocity": 0.3937007874015748
          },
          {
            "duration": 0.10489499999999907,
            "durationTicks": 96,
            "midi": 35,
            "name": "B1",
            "ticks": 86208,
            "time": 94.19571,
            "velocity": 0.3937007874015748
          },
          {
            "duration": 0.10489499999999907,
            "durationTicks": 96,
            "midi": 35,
            "name": "B1",
            "ticks": 86256,
            "time": 94.2481575,
            "velocity": 0.3937007874015748
          },
          {
            "duration": 0.10489499999999907,
            "durationTicks": 96,
            "midi": 35,
            "name": "B1",
            "ticks": 86304,
            "time": 94.300605,
            "velocity": 0.3937007874015748
          },
          {
            "duration": 0.10489499999999907,
            "durationTicks": 96,
            "midi": 35,
            "name": "B1",
            "ticks": 86352,
            "time": 94.3530525,
            "velocity": 0.3937007874015748
          },
          {
            "duration": 0.10489499999999907,
            "durationTicks": 96,
            "midi": 35,
            "name": "B1",
            "ticks": 86400,
            "time": 94.4055,
            "velocity": 0.3937007874015748
          },
          {
            "duration": 0.10489499999999907,
            "durationTicks": 96,
            "midi": 35,
            "name": "B1",
            "ticks": 86448,
            "time": 94.4579475,
            "velocity": 0.3937007874015748
          },
          {
            "duration": 0.10489499999999907,
            "durationTicks": 96,
            "midi": 35,
            "name": "B1",
            "ticks": 86496,
            "time": 94.510395,
            "velocity": 0.3937007874015748
          },
          {
            "duration": 0.10489499999999907,
            "durationTicks": 96,
            "midi": 35,
            "name": "B1",
            "ticks": 86544,
            "time": 94.5628425,
            "velocity": 0.3937007874015748
          },
          {
            "duration": 0.10489499999999907,
            "durationTicks": 96,
            "midi": 35,
            "name": "B1",
            "ticks": 86592,
            "time": 94.61529,
            "velocity": 0.3937007874015748
          },
          {
            "duration": 0.10489499999999907,
            "durationTicks": 96,
            "midi": 35,
            "name": "B1",
            "ticks": 86640,
            "time": 94.6677375,
            "velocity": 0.3937007874015748
          },
          {
            "duration": 0.10489499999999907,
            "durationTicks": 96,
            "midi": 35,
            "name": "B1",
            "ticks": 86688,
            "time": 94.720185,
            "velocity": 0.3937007874015748
          },
          {
            "duration": 0.10489499999999907,
            "durationTicks": 96,
            "midi": 35,
            "name": "B1",
            "ticks": 86736,
            "time": 94.7726325,
            "velocity": 0.3937007874015748
          },
          {
            "duration": 0.10489499999999907,
            "durationTicks": 96,
            "midi": 35,
            "name": "B1",
            "ticks": 86784,
            "time": 94.82508,
            "velocity": 0.3937007874015748
          },
          {
            "duration": 0.10489499999999907,
            "durationTicks": 96,
            "midi": 35,
            "name": "B1",
            "ticks": 86832,
            "time": 94.8775275,
            "velocity": 0.3937007874015748
          },
          {
            "duration": 0.10489499999999907,
            "durationTicks": 96,
            "midi": 35,
            "name": "B1",
            "ticks": 86880,
            "time": 94.929975,
            "velocity": 0.3937007874015748
          },
          {
            "duration": 0.10489499999999907,
            "durationTicks": 96,
            "midi": 35,
            "name": "B1",
            "ticks": 86928,
            "time": 94.9824225,
            "velocity": 0.3937007874015748
          },
          {
            "duration": 0.10489499999999907,
            "durationTicks": 96,
            "midi": 35,
            "name": "B1",
            "ticks": 86976,
            "time": 95.03487,
            "velocity": 0.3937007874015748
          },
          {
            "duration": 0.10489499999999907,
            "durationTicks": 96,
            "midi": 35,
            "name": "B1",
            "ticks": 87024,
            "time": 95.0873175,
            "velocity": 0.3937007874015748
          },
          {
            "duration": 0.10489499999999907,
            "durationTicks": 96,
            "midi": 35,
            "name": "B1",
            "ticks": 87072,
            "time": 95.139765,
            "velocity": 0.3937007874015748
          },
          {
            "duration": 0.10489499999999907,
            "durationTicks": 96,
            "midi": 35,
            "name": "B1",
            "ticks": 87120,
            "time": 95.1922125,
            "velocity": 0.3937007874015748
          },
          {
            "duration": 0.10489499999999907,
            "durationTicks": 96,
            "midi": 35,
            "name": "B1",
            "ticks": 87168,
            "time": 95.24466,
            "velocity": 0.3937007874015748
          },
          {
            "duration": 0.10489500000001328,
            "durationTicks": 96,
            "midi": 35,
            "name": "B1",
            "ticks": 87216,
            "time": 95.2971075,
            "velocity": 0.3937007874015748
          },
          {
            "duration": 0.10489500000001328,
            "durationTicks": 96,
            "midi": 35,
            "name": "B1",
            "ticks": 87264,
            "time": 95.349555,
            "velocity": 0.3937007874015748
          },
          {
            "duration": 0.10489499999999907,
            "durationTicks": 96,
            "midi": 35,
            "name": "B1",
            "ticks": 87312,
            "time": 95.40200250000001,
            "velocity": 0.3937007874015748
          },
          {
            "duration": 0.10489499999999907,
            "durationTicks": 96,
            "midi": 35,
            "name": "B1",
            "ticks": 87360,
            "time": 95.45445000000001,
            "velocity": 0.3937007874015748
          },
          {
            "duration": 0.10489499999999907,
            "durationTicks": 96,
            "midi": 35,
            "name": "B1",
            "ticks": 87408,
            "time": 95.50689750000001,
            "velocity": 0.3937007874015748
          },
          {
            "duration": 0.10489499999999907,
            "durationTicks": 96,
            "midi": 35,
            "name": "B1",
            "ticks": 87456,
            "time": 95.55934500000001,
            "velocity": 0.3937007874015748
          },
          {
            "duration": 0.10489499999999907,
            "durationTicks": 96,
            "midi": 35,
            "name": "B1",
            "ticks": 87504,
            "time": 95.6117925,
            "velocity": 0.3937007874015748
          }
        ],
        "endOfTrackTicks": 87600
      },
      {
        "channel": 2,
        "controlChanges": {},
        "pitchBends": [],
        "instrument": {
          "family": "guitar",
          "number": 29,
          "name": "overdriven guitar"
        },
        "name": "Electric Guitar",
        "notes": [
          {
            "duration": 0.6293699999999998,
            "durationTicks": 576,
            "midi": 50,
            "name": "D3",
            "ticks": 12480,
            "time": 13.63635,
            "velocity": 0.3937007874015748
          },
          {
            "duration": 0.6293699999999998,
            "durationTicks": 576,
            "midi": 50,
            "name": "D3",
            "ticks": 12672,
            "time": 13.84614,
            "velocity": 0.3937007874015748
          },
          {
            "duration": 0.41957999999999984,
            "durationTicks": 384,
            "midi": 62,
            "name": "D4",
            "ticks": 13056,
            "time": 14.26572,
            "velocity": 0.3937007874015748
          },
          {
            "duration": 0.41957999999999984,
            "durationTicks": 384,
            "midi": 62,
            "name": "D4",
            "ticks": 13248,
            "time": 14.47551,
            "velocity": 0.3937007874015748
          },
          {
            "duration": 0.41957999999999984,
            "durationTicks": 384,
            "midi": 60,
            "name": "C4",
            "ticks": 13440,
            "time": 14.6853,
            "velocity": 0.3937007874015748
          },
          {
            "duration": 0.41957999999999984,
            "durationTicks": 384,
            "midi": 60,
            "name": "C4",
            "ticks": 13632,
            "time": 14.89509,
            "velocity": 0.3937007874015748
          },
          {
            "duration": 0.20978999999999992,
            "durationTicks": 192,
            "midi": 62,
            "name": "D4",
            "ticks": 13824,
            "time": 15.10488,
            "velocity": 0.3937007874015748
          },
          {
            "duration": 0.20978999999999992,
            "durationTicks": 192,
            "midi": 62,
            "name": "D4",
            "ticks": 14016,
            "time": 15.31467,
            "velocity": 0.3937007874015748
          },
          {
            "duration": 0.6293700000000015,
            "durationTicks": 576,
            "midi": 50,
            "name": "D3",
            "ticks": 14016,
            "time": 15.31467,
            "velocity": 0.3937007874015748
          },
          {
            "duration": 0.6293699999999998,
            "durationTicks": 576,
            "midi": 50,
            "name": "D3",
            "ticks": 14208,
            "time": 15.52446,
            "velocity": 0.3937007874015748
          },
          {
            "duration": 0.41957999999999984,
            "durationTicks": 384,
            "midi": 62,
            "name": "D4",
            "ticks": 14592,
            "time": 15.944040000000001,
            "velocity": 0.3937007874015748
          },
          {
            "duration": 0.41957999999999984,
            "durationTicks": 384,
            "midi": 62,
            "name": "D4",
            "ticks": 14784,
            "time": 16.15383,
            "velocity": 0.3937007874015748
          },
          {
            "duration": 0.41957999999999984,
            "durationTicks": 384,
            "midi": 60,
            "name": "C4",
            "ticks": 14976,
            "time": 16.36362,
            "velocity": 0.3937007874015748
          },
          {
            "duration": 0.41957999999999984,
            "durationTicks": 384,
            "midi": 60,
            "name": "C4",
            "ticks": 15168,
            "time": 16.57341,
            "velocity": 0.3937007874015748
          },
          {
            "duration": 0.20978999999999814,
            "durationTicks": 192,
            "midi": 55,
            "name": "G3",
            "ticks": 15360,
            "time": 16.7832,
            "velocity": 0.3937007874015748
          },
          {
            "duration": 0.2097900000000017,
            "durationTicks": 192,
            "midi": 55,
            "name": "G3",
            "ticks": 15552,
            "time": 16.99299,
            "velocity": 0.3937007874015748
          },
          {
            "duration": 0.6293700000000015,
            "durationTicks": 576,
            "midi": 51,
            "name": "D#3",
            "ticks": 15552,
            "time": 16.99299,
            "velocity": 0.3937007874015748
          },
          {
            "duration": 0.629369999999998,
            "durationTicks": 576,
            "midi": 51,
            "name": "D#3",
            "ticks": 15744,
            "time": 17.20278,
            "velocity": 0.3937007874015748
          },
          {
            "duration": 0.41957999999999984,
            "durationTicks": 384,
            "midi": 63,
            "name": "D#4",
            "ticks": 16128,
            "time": 17.62236,
            "velocity": 0.3937007874015748
          },
          {
            "duration": 0.4195800000000034,
            "durationTicks": 384,
            "midi": 63,
            "name": "D#4",
            "ticks": 16320,
            "time": 17.83215,
            "velocity": 0.3937007874015748
          },
          {
            "duration": 0.41957999999999984,
            "durationTicks": 384,
            "midi": 61,
            "name": "C#4",
            "ticks": 16512,
            "time": 18.04194,
            "velocity": 0.3937007874015748
          },
          {
            "duration": 0.41957999999999984,
            "durationTicks": 384,
            "midi": 61,
            "name": "C#4",
            "ticks": 16704,
            "time": 18.251730000000002,
            "velocity": 0.3937007874015748
          },
          {
            "duration": 0.2097900000000017,
            "durationTicks": 192,
            "midi": 63,
            "name": "D#4",
            "ticks": 16896,
            "time": 18.46152,
            "velocity": 0.3937007874015748
          },
          {
            "duration": 0.629369999999998,
            "durationTicks": 576,
            "midi": 51,
            "name": "D#3",
            "ticks": 17088,
            "time": 18.671310000000002,
            "velocity": 0.3937007874015748
          },
          {
            "duration": 0.20978999999999814,
            "durationTicks": 192,
            "midi": 63,
            "name": "D#4",
            "ticks": 17088,
            "time": 18.671310000000002,
            "velocity": 0.3937007874015748
          },
          {
            "duration": 0.6293700000000015,
            "durationTicks": 576,
            "midi": 51,
            "name": "D#3",
            "ticks": 17280,
            "time": 18.8811,
            "velocity": 0.3937007874015748
          },
          {
            "duration": 0.41957999999999984,
            "durationTicks": 384,
            "midi": 63,
            "name": "D#4",
            "ticks": 17664,
            "time": 19.30068,
            "velocity": 0.3937007874015748
          },
          {
            "duration": 0.41957999999999984,
            "durationTicks": 384,
            "midi": 63,
            "name": "D#4",
            "ticks": 17856,
            "time": 19.51047,
            "velocity": 0.3937007874015748
          },
          {
            "duration": 0.41957999999999984,
            "durationTicks": 384,
            "midi": 61,
            "name": "C#4",
            "ticks": 18048,
            "time": 19.72026,
            "velocity": 0.3937007874015748
          },
          {
            "duration": 0.41957999999999984,
            "durationTicks": 384,
            "midi": 61,
            "name": "C#4",
            "ticks": 18240,
            "time": 19.93005,
            "velocity": 0.3937007874015748
          },
          {
            "duration": 0.2097900000000017,
            "durationTicks": 192,
            "midi": 56,
            "name": "G#3",
            "ticks": 18432,
            "time": 20.13984,
            "velocity": 0.3937007874015748
          },
          {
            "duration": 0.629369999999998,
            "durationTicks": 576,
            "midi": 52,
            "name": "E3",
            "ticks": 18624,
            "time": 20.34963,
            "velocity": 0.3937007874015748
          },
          {
            "duration": 0.20978999999999814,
            "durationTicks": 192,
            "midi": 56,
            "name": "G#3",
            "ticks": 18624,
            "time": 20.34963,
            "velocity": 0.3937007874015748
          },
          {
            "duration": 0.6293700000000015,
            "durationTicks": 576,
            "midi": 52,
            "name": "E3",
            "ticks": 18816,
            "time": 20.55942,
            "velocity": 0.3937007874015748
          },
          {
            "duration": 0.41957999999999984,
            "durationTicks": 384,
            "midi": 64,
            "name": "E4",
            "ticks": 19200,
            "time": 20.979,
            "velocity": 0.3937007874015748
          },
          {
            "duration": 0.41957999999999984,
            "durationTicks": 384,
            "midi": 64,
            "name": "E4",
            "ticks": 19392,
            "time": 21.18879,
            "velocity": 0.3937007874015748
          },
          {
            "duration": 0.41957999999999984,
            "durationTicks": 384,
            "midi": 62,
            "name": "D4",
            "ticks": 19584,
            "time": 21.39858,
            "velocity": 0.3937007874015748
          },
          {
            "duration": 0.41957999999999984,
            "durationTicks": 384,
            "midi": 62,
            "name": "D4",
            "ticks": 19776,
            "time": 21.60837,
            "velocity": 0.3937007874015748
          },
          {
            "duration": 0.2097900000000017,
            "durationTicks": 192,
            "midi": 64,
            "name": "E4",
            "ticks": 19968,
            "time": 21.81816,
            "velocity": 0.3937007874015748
          },
          {
            "duration": 0.6293700000000015,
            "durationTicks": 576,
            "midi": 52,
            "name": "E3",
            "ticks": 20160,
            "time": 22.02795,
            "velocity": 0.3937007874015748
          },
          {
            "duration": 0.20978999999999814,
            "durationTicks": 192,
            "midi": 64,
            "name": "E4",
            "ticks": 20160,
            "time": 22.02795,
            "velocity": 0.3937007874015748
          },
          {
            "duration": 0.6293700000000015,
            "durationTicks": 576,
            "midi": 52,
            "name": "E3",
            "ticks": 20352,
            "time": 22.23774,
            "velocity": 0.3937007874015748
          },
          {
            "duration": 0.41957999999999984,
            "durationTicks": 384,
            "midi": 64,
            "name": "E4",
            "ticks": 20736,
            "time": 22.657320000000002,
            "velocity": 0.3937007874015748
          },
          {
            "duration": 0.41957999999999984,
            "durationTicks": 384,
            "midi": 64,
            "name": "E4",
            "ticks": 20928,
            "time": 22.86711,
            "velocity": 0.3937007874015748
          },
          {
            "duration": 0.41957999999999984,
            "durationTicks": 384,
            "midi": 62,
            "name": "D4",
            "ticks": 21120,
            "time": 23.076900000000002,
            "velocity": 0.3937007874015748
          },
          {
            "duration": 0.41957999999999984,
            "durationTicks": 384,
            "midi": 62,
            "name": "D4",
            "ticks": 21312,
            "time": 23.28669,
            "velocity": 0.3937007874015748
          },
          {
            "duration": 0.20978999999999814,
            "durationTicks": 192,
            "midi": 57,
            "name": "A3",
            "ticks": 21504,
            "time": 23.496480000000002,
            "velocity": 0.3937007874015748
          },
          {
            "duration": 0.2097900000000017,
            "durationTicks": 192,
            "midi": 57,
            "name": "A3",
            "ticks": 21696,
            "time": 23.70627,
            "velocity": 0.3937007874015748
          },
          {
            "duration": 0.6293700000000015,
            "durationTicks": 576,
            "midi": 53,
            "name": "F3",
            "ticks": 21696,
            "time": 23.70627,
            "velocity": 0.3937007874015748
          },
          {
            "duration": 0.629369999999998,
            "durationTicks": 576,
            "midi": 53,
            "name": "F3",
            "ticks": 21888,
            "time": 23.91606,
            "velocity": 0.3937007874015748
          },
          {
            "duration": 0.41957999999999984,
            "durationTicks": 384,
            "midi": 65,
            "name": "F4",
            "ticks": 22272,
            "time": 24.33564,
            "velocity": 0.3937007874015748
          },
          {
            "duration": 0.41957999999999984,
            "durationTicks": 384,
            "midi": 65,
            "name": "F4",
            "ticks": 22464,
            "time": 24.54543,
            "velocity": 0.3937007874015748
          },
          {
            "duration": 0.41957999999999984,
            "durationTicks": 384,
            "midi": 63,
            "name": "D#4",
            "ticks": 22656,
            "time": 24.75522,
            "velocity": 0.3937007874015748
          },
          {
            "duration": 0.41957999999999984,
            "durationTicks": 384,
            "midi": 63,
            "name": "D#4",
            "ticks": 22848,
            "time": 24.96501,
            "velocity": 0.3937007874015748
          },
          {
            "duration": 0.20978999999999814,
            "durationTicks": 192,
            "midi": 65,
            "name": "F4",
            "ticks": 23040,
            "time": 25.1748,
            "velocity": 0.3937007874015748
          },
          {
            "duration": 0.6293700000000015,
            "durationTicks": 576,
            "midi": 53,
            "name": "F3",
            "ticks": 23232,
            "time": 25.38459,
            "velocity": 0.3937007874015748
          },
          {
            "duration": 0.2097900000000017,
            "durationTicks": 192,
            "midi": 65,
            "name": "F4",
            "ticks": 23232,
            "time": 25.38459,
            "velocity": 0.3937007874015748
          },
          {
            "duration": 0.629369999999998,
            "durationTicks": 576,
            "midi": 53,
            "name": "F3",
            "ticks": 23424,
            "time": 25.59438,
            "velocity": 0.3937007874015748
          },
          {
            "duration": 0.41957999999999984,
            "durationTicks": 384,
            "midi": 65,
            "name": "F4",
            "ticks": 23808,
            "time": 26.01396,
            "velocity": 0.3937007874015748
          },
          {
            "duration": 0.41957999999999984,
            "durationTicks": 384,
            "midi": 65,
            "name": "F4",
            "ticks": 24000,
            "time": 26.22375,
            "velocity": 0.3937007874015748
          },
          {
            "duration": 0.41957999999999984,
            "durationTicks": 384,
            "midi": 63,
            "name": "D#4",
            "ticks": 24192,
            "time": 26.43354,
            "velocity": 0.3937007874015748
          },
          {
            "duration": 0.4195800000000034,
            "durationTicks": 384,
            "midi": 63,
            "name": "D#4",
            "ticks": 24384,
            "time": 26.64333,
            "velocity": 0.3937007874015748
          },
          {
            "duration": 0.2097900000000017,
            "durationTicks": 192,
            "midi": 58,
            "name": "A#3",
            "ticks": 24576,
            "time": 26.85312,
            "velocity": 0.3937007874015748
          },
          {
            "duration": 0.20978999999999814,
            "durationTicks": 192,
            "midi": 58,
            "name": "A#3",
            "ticks": 24768,
            "time": 27.062910000000002,
            "velocity": 0.3937007874015748
          },
          {
            "duration": 0.20979000000000525,
            "durationTicks": 192,
            "midi": 62,
            "name": "D4",
            "ticks": 38400,
            "time": 41.958,
            "velocity": 0.3937007874015748
          },
          {
            "duration": 0.20979000000000525,
            "durationTicks": 192,
            "midi": 50,
            "name": "D3",
            "ticks": 38400,
            "time": 41.958,
            "velocity": 0.3937007874015748
          },
          {
            "duration": 0.20978999999999814,
            "durationTicks": 192,
            "midi": 45,
            "name": "A2",
            "ticks": 38592,
            "time": 42.167790000000004,
            "velocity": 0.3937007874015748
          },
          {
            "duration": 0.20978999999999814,
            "durationTicks": 192,
            "midi": 57,
            "name": "A3",
            "ticks": 38592,
            "time": 42.167790000000004,
            "velocity": 0.3937007874015748
          },
          {
            "duration": 0.20978999999999814,
            "durationTicks": 192,
            "midi": 58,
            "name": "A#3",
            "ticks": 38784,
            "time": 42.37758,
            "velocity": 0.3937007874015748
          },
          {
            "duration": 0.20978999999999814,
            "durationTicks": 192,
            "midi": 46,
            "name": "A#2",
            "ticks": 38784,
            "time": 42.37758,
            "velocity": 0.3937007874015748
          },
          {
            "duration": 0.20978999999999814,
            "durationTicks": 192,
            "midi": 55,
            "name": "G3",
            "ticks": 38976,
            "time": 42.58737,
            "velocity": 0.3937007874015748
          },
          {
            "duration": 0.20978999999999814,
            "durationTicks": 192,
            "midi": 43,
            "name": "G2",
            "ticks": 38976,
            "time": 42.58737,
            "velocity": 0.3937007874015748
          },
          {
            "duration": 0.20979000000000525,
            "durationTicks": 192,
            "midi": 57,
            "name": "A3",
            "ticks": 39168,
            "time": 42.79716,
            "velocity": 0.3937007874015748
          },
          {
            "duration": 0.20979000000000525,
            "durationTicks": 192,
            "midi": 45,
            "name": "A2",
            "ticks": 39168,
            "time": 42.79716,
            "velocity": 0.3937007874015748
          },
          {
            "duration": 0.20978999999999814,
            "durationTicks": 192,
            "midi": 50,
            "name": "D3",
            "ticks": 39360,
            "time": 43.00695,
            "velocity": 0.3937007874015748
          },
          {
            "duration": 0.20978999999999814,
            "durationTicks": 192,
            "midi": 62,
            "name": "D4",
            "ticks": 39360,
            "time": 43.00695,
            "velocity": 0.3937007874015748
          },
          {
            "duration": 0.10489499999999907,
            "durationTicks": 96,
            "midi": 57,
            "name": "A3",
            "ticks": 39552,
            "time": 43.21674,
            "velocity": 0.3937007874015748
          },
          {
            "duration": 0.10489499999999907,
            "durationTicks": 96,
            "midi": 45,
            "name": "A2",
            "ticks": 39552,
            "time": 43.21674,
            "velocity": 0.3937007874015748
          },
          {
            "duration": 0.10489499999999907,
            "durationTicks": 96,
            "midi": 43,
            "name": "G2",
            "ticks": 39648,
            "time": 43.321635,
            "velocity": 0.3937007874015748
          },
          {
            "duration": 0.10489499999999907,
            "durationTicks": 96,
            "midi": 55,
            "name": "G3",
            "ticks": 39648,
            "time": 43.321635,
            "velocity": 0.3937007874015748
          },
          {
            "duration": 0.20978999999999814,
            "durationTicks": 192,
            "midi": 53,
            "name": "F3",
            "ticks": 39744,
            "time": 43.42653,
            "velocity": 0.3937007874015748
          },
          {
            "duration": 0.20978999999999814,
            "durationTicks": 192,
            "midi": 41,
            "name": "F2",
            "ticks": 39744,
            "time": 43.42653,
            "velocity": 0.3937007874015748
          },
          {
            "duration": 0.20979000000000525,
            "durationTicks": 192,
            "midi": 40,
            "name": "E2",
            "ticks": 39936,
            "time": 43.63632,
            "velocity": 0.3937007874015748
          },
          {
            "duration": 0.20979000000000525,
            "durationTicks": 192,
            "midi": 52,
            "name": "E3",
            "ticks": 39936,
            "time": 43.63632,
            "velocity": 0.3937007874015748
          },
          {
            "duration": 0.20978999999999814,
            "durationTicks": 192,
            "midi": 55,
            "name": "G3",
            "ticks": 40128,
            "time": 43.84611,
            "velocity": 0.3937007874015748
          },
          {
            "duration": 0.20978999999999814,
            "durationTicks": 192,
            "midi": 43,
            "name": "G2",
            "ticks": 40128,
            "time": 43.84611,
            "velocity": 0.3937007874015748
          },
          {
            "duration": 0.10489499999999907,
            "durationTicks": 96,
            "midi": 41,
            "name": "F2",
            "ticks": 40320,
            "time": 44.0559,
            "velocity": 0.3937007874015748
          },
          {
            "duration": 0.10489499999999907,
            "durationTicks": 96,
            "midi": 53,
            "name": "F3",
            "ticks": 40320,
            "time": 44.0559,
            "velocity": 0.3937007874015748
          },
          {
            "duration": 0.10489499999999907,
            "durationTicks": 96,
            "midi": 52,
            "name": "E3",
            "ticks": 40416,
            "time": 44.160795,
            "velocity": 0.3937007874015748
          },
          {
            "duration": 0.10489499999999907,
            "durationTicks": 96,
            "midi": 40,
            "name": "E2",
            "ticks": 40416,
            "time": 44.160795,
            "velocity": 0.3937007874015748
          },
          {
            "duration": 0.20978999999999814,
            "durationTicks": 192,
            "midi": 49,
            "name": "C#3",
            "ticks": 40512,
            "time": 44.26569,
            "velocity": 0.3937007874015748
          },
          {
            "duration": 0.20978999999999814,
            "durationTicks": 192,
            "midi": 37,
            "name": "C#2",
            "ticks": 40512,
            "time": 44.26569,
            "velocity": 0.3937007874015748
          },
          {
            "duration": 0.20979000000000525,
            "durationTicks": 192,
            "midi": 50,
            "name": "D3",
            "ticks": 40704,
            "time": 44.47548,
            "velocity": 0.3937007874015748
          },
          {
            "duration": 0.20979000000000525,
            "durationTicks": 192,
            "midi": 38,
            "name": "D2",
            "ticks": 40704,
            "time": 44.47548,
            "velocity": 0.3937007874015748
          },
          {
            "duration": 0.20978999999999814,
            "durationTicks": 192,
            "midi": 58,
            "name": "A#3",
            "ticks": 40896,
            "time": 44.68527,
            "velocity": 0.3937007874015748
          },
          {
            "duration": 0.20978999999999814,
            "durationTicks": 192,
            "midi": 46,
            "name": "A#2",
            "ticks": 40896,
            "time": 44.68527,
            "velocity": 0.3937007874015748
          },
          {
            "duration": 0.10489499999999907,
            "durationTicks": 96,
            "midi": 45,
            "name": "A2",
            "ticks": 41088,
            "time": 44.89506,
            "velocity": 0.3937007874015748
          },
          {
            "duration": 0.10489499999999907,
            "durationTicks": 96,
            "midi": 57,
            "name": "A3",
            "ticks": 41088,
            "time": 44.89506,
            "velocity": 0.3937007874015748
          },
          {
            "duration": 0.10489499999999907,
            "durationTicks": 96,
            "midi": 43,
            "name": "G2",
            "ticks": 41184,
            "time": 44.999955,
            "velocity": 0.3937007874015748
          },
          {
            "duration": 0.10489499999999907,
            "durationTicks": 96,
            "midi": 55,
            "name": "G3",
            "ticks": 41184,
            "time": 44.999955,
            "velocity": 0.3937007874015748
          },
          {
            "duration": 0.20979000000000525,
            "durationTicks": 192,
            "midi": 57,
            "name": "A3",
            "ticks": 41280,
            "time": 45.10485,
            "velocity": 0.3937007874015748
          },
          {
            "duration": 0.20979000000000525,
            "durationTicks": 192,
            "midi": 45,
            "name": "A2",
            "ticks": 41280,
            "time": 45.10485,
            "velocity": 0.3937007874015748
          },
          {
            "duration": 0.20978999999999814,
            "durationTicks": 192,
            "midi": 40,
            "name": "E2",
            "ticks": 41472,
            "time": 45.314640000000004,
            "velocity": 0.3937007874015748
          },
          {
            "duration": 0.20978999999999814,
            "durationTicks": 192,
            "midi": 52,
            "name": "E3",
            "ticks": 41472,
            "time": 45.314640000000004,
            "velocity": 0.3937007874015748
          },
          {
            "duration": 0.20978999999999814,
            "durationTicks": 192,
            "midi": 49,
            "name": "C#3",
            "ticks": 41664,
            "time": 45.52443,
            "velocity": 0.3937007874015748
          },
          {
            "duration": 0.20978999999999814,
            "durationTicks": 192,
            "midi": 37,
            "name": "C#2",
            "ticks": 41664,
            "time": 45.52443,
            "velocity": 0.3937007874015748
          },
          {
            "duration": 0.10489499999999907,
            "durationTicks": 96,
            "midi": 58,
            "name": "A#3",
            "ticks": 41856,
            "time": 45.73422,
            "velocity": 0.3937007874015748
          },
          {
            "duration": 0.10489499999999907,
            "durationTicks": 96,
            "midi": 46,
            "name": "A#2",
            "ticks": 41856,
            "time": 45.73422,
            "velocity": 0.3937007874015748
          },
          {
            "duration": 0.10489499999999907,
            "durationTicks": 96,
            "midi": 45,
            "name": "A2",
            "ticks": 41952,
            "time": 45.839115,
            "velocity": 0.3937007874015748
          },
          {
            "duration": 0.10489499999999907,
            "durationTicks": 96,
            "midi": 57,
            "name": "A3",
            "ticks": 41952,
            "time": 45.839115,
            "velocity": 0.3937007874015748
          },
          {
            "duration": 0.20979000000000525,
            "durationTicks": 192,
            "midi": 55,
            "name": "G3",
            "ticks": 42048,
            "time": 45.94401,
            "velocity": 0.3937007874015748
          },
          {
            "duration": 0.20979000000000525,
            "durationTicks": 192,
            "midi": 43,
            "name": "G2",
            "ticks": 42048,
            "time": 45.94401,
            "velocity": 0.3937007874015748
          },
          {
            "duration": 0.20978999999999814,
            "durationTicks": 192,
            "midi": 45,
            "name": "A2",
            "ticks": 42240,
            "time": 46.153800000000004,
            "velocity": 0.3937007874015748
          },
          {
            "duration": 0.20978999999999814,
            "durationTicks": 192,
            "midi": 57,
            "name": "A3",
            "ticks": 42240,
            "time": 46.153800000000004,
            "velocity": 0.3937007874015748
          },
          {
            "duration": 0.20978999999999814,
            "durationTicks": 192,
            "midi": 62,
            "name": "D4",
            "ticks": 42432,
            "time": 46.36359,
            "velocity": 0.3937007874015748
          },
          {
            "duration": 0.20978999999999814,
            "durationTicks": 192,
            "midi": 50,
            "name": "D3",
            "ticks": 42432,
            "time": 46.36359,
            "velocity": 0.3937007874015748
          },
          {
            "duration": 0.10489499999999907,
            "durationTicks": 96,
            "midi": 53,
            "name": "F3",
            "ticks": 42624,
            "time": 46.57338,
            "velocity": 0.3937007874015748
          },
          {
            "duration": 0.10489499999999907,
            "durationTicks": 96,
            "midi": 65,
            "name": "F4",
            "ticks": 42624,
            "time": 46.57338,
            "velocity": 0.3937007874015748
          },
          {
            "duration": 0.10489499999999907,
            "durationTicks": 96,
            "midi": 64,
            "name": "E4",
            "ticks": 42720,
            "time": 46.678275,
            "velocity": 0.3937007874015748
          },
          {
            "duration": 0.10489499999999907,
            "durationTicks": 96,
            "midi": 52,
            "name": "E3",
            "ticks": 42720,
            "time": 46.678275,
            "velocity": 0.3937007874015748
          },
          {
            "duration": 0.20979000000000525,
            "durationTicks": 192,
            "midi": 50,
            "name": "D3",
            "ticks": 42816,
            "time": 46.78317,
            "velocity": 0.3937007874015748
          },
          {
            "duration": 0.20979000000000525,
            "durationTicks": 192,
            "midi": 62,
            "name": "D4",
            "ticks": 42816,
            "time": 46.78317,
            "velocity": 0.3937007874015748
          },
          {
            "duration": 0.20978999999999814,
            "durationTicks": 192,
            "midi": 53,
            "name": "F3",
            "ticks": 43008,
            "time": 46.992960000000004,
            "velocity": 0.3937007874015748
          },
          {
            "duration": 0.20978999999999814,
            "durationTicks": 192,
            "midi": 65,
            "name": "F4",
            "ticks": 43008,
            "time": 46.992960000000004,
            "velocity": 0.3937007874015748
          },
          {
            "duration": 0.20978999999999814,
            "durationTicks": 192,
            "midi": 62,
            "name": "D4",
            "ticks": 43200,
            "time": 47.20275,
            "velocity": 0.3937007874015748
          },
          {
            "duration": 0.20978999999999814,
            "durationTicks": 192,
            "midi": 50,
            "name": "D3",
            "ticks": 43200,
            "time": 47.20275,
            "velocity": 0.3937007874015748
          },
          {
            "duration": 0.10489499999999907,
            "durationTicks": 96,
            "midi": 58,
            "name": "A#3",
            "ticks": 43392,
            "time": 47.41254,
            "velocity": 0.3937007874015748
          },
          {
            "duration": 0.10489499999999907,
            "durationTicks": 96,
            "midi": 46,
            "name": "A#2",
            "ticks": 43392,
            "time": 47.41254,
            "velocity": 0.3937007874015748
          },
          {
            "duration": 0.10489499999999907,
            "durationTicks": 96,
            "midi": 55,
            "name": "G3",
            "ticks": 43488,
            "time": 47.517435,
            "velocity": 0.3937007874015748
          },
          {
            "duration": 0.10489499999999907,
            "durationTicks": 96,
            "midi": 43,
            "name": "G2",
            "ticks": 43488,
            "time": 47.517435,
            "velocity": 0.3937007874015748
          },
          {
            "duration": 0.20979000000000525,
            "durationTicks": 192,
            "midi": 52,
            "name": "E3",
            "ticks": 43584,
            "time": 47.62233,
            "velocity": 0.3937007874015748
          },
          {
            "duration": 0.20979000000000525,
            "durationTicks": 192,
            "midi": 40,
            "name": "E2",
            "ticks": 43584,
            "time": 47.62233,
            "velocity": 0.3937007874015748
          },
          {
            "duration": 0.20978999999999814,
            "durationTicks": 192,
            "midi": 57,
            "name": "A3",
            "ticks": 43776,
            "time": 47.83212,
            "velocity": 0.3937007874015748
          },
          {
            "duration": 0.20978999999999814,
            "durationTicks": 192,
            "midi": 45,
            "name": "A2",
            "ticks": 43776,
            "time": 47.83212,
            "velocity": 0.3937007874015748
          },
          {
            "duration": 0.20978999999999814,
            "durationTicks": 192,
            "midi": 46,
            "name": "A#2",
            "ticks": 43968,
            "time": 48.04191,
            "velocity": 0.3937007874015748
          },
          {
            "duration": 0.20978999999999814,
            "durationTicks": 192,
            "midi": 58,
            "name": "A#3",
            "ticks": 43968,
            "time": 48.04191,
            "velocity": 0.3937007874015748
          },
          {
            "duration": 0.3146850000000043,
            "durationTicks": 288,
            "midi": 57,
            "name": "A3",
            "ticks": 44160,
            "time": 48.2517,
            "velocity": 0.3937007874015748
          },
          {
            "duration": 0.3146850000000043,
            "durationTicks": 288,
            "midi": 45,
            "name": "A2",
            "ticks": 44160,
            "time": 48.2517,
            "velocity": 0.3937007874015748
          },
          {
            "duration": 0.10489500000000618,
            "durationTicks": 96,
            "midi": 46,
            "name": "A#2",
            "ticks": 44352,
            "time": 48.46149,
            "velocity": 0.3937007874015748
          },
          {
            "duration": 0.10489500000000618,
            "durationTicks": 96,
            "midi": 58,
            "name": "A#3",
            "ticks": 44352,
            "time": 48.46149,
            "velocity": 0.3937007874015748
          },
          {
            "duration": 0.10489499999999907,
            "durationTicks": 96,
            "midi": 47,
            "name": "B2",
            "ticks": 44400,
            "time": 48.513937500000004,
            "velocity": 0.3937007874015748
          },
          {
            "duration": 0.10489499999999907,
            "durationTicks": 96,
            "midi": 59,
            "name": "B3",
            "ticks": 44400,
            "time": 48.513937500000004,
            "velocity": 0.3937007874015748
          },
          {
            "duration": 0.10489499999999907,
            "durationTicks": 96,
            "midi": 60,
            "name": "C4",
            "ticks": 44448,
            "time": 48.566385000000004,
            "velocity": 0.3937007874015748
          },
          {
            "duration": 0.10489499999999907,
            "durationTicks": 96,
            "midi": 48,
            "name": "C3",
            "ticks": 44448,
            "time": 48.566385000000004,
            "velocity": 0.3937007874015748
          },
          {
            "duration": 0.10489499999999907,
            "durationTicks": 96,
            "midi": 49,
            "name": "C#3",
            "ticks": 44496,
            "time": 48.6188325,
            "velocity": 0.3937007874015748
          },
          {
            "duration": 0.10489499999999907,
            "durationTicks": 96,
            "midi": 61,
            "name": "C#4",
            "ticks": 44496,
            "time": 48.6188325,
            "velocity": 0.3937007874015748
          },
          {
            "duration": 0.20978999999999814,
            "durationTicks": 192,
            "midi": 62,
            "name": "D4",
            "ticks": 44544,
            "time": 48.67128,
            "velocity": 0.3937007874015748
          },
          {
            "duration": 0.20978999999999814,
            "durationTicks": 192,
            "midi": 50,
            "name": "D3",
            "ticks": 44544,
            "time": 48.67128,
            "velocity": 0.3937007874015748
          },
          {
            "duration": 0.20978999999999814,
            "durationTicks": 192,
            "midi": 57,
            "name": "A3",
            "ticks": 44736,
            "time": 48.88107,
            "velocity": 0.3937007874015748
          },
          {
            "duration": 0.20978999999999814,
            "durationTicks": 192,
            "midi": 45,
            "name": "A2",
            "ticks": 44736,
            "time": 48.88107,
            "velocity": 0.3937007874015748
          },
          {
            "duration": 0.20979000000000525,
            "durationTicks": 192,
            "midi": 58,
            "name": "A#3",
            "ticks": 44928,
            "time": 49.09086,
            "velocity": 0.3937007874015748
          },
          {
            "duration": 0.20979000000000525,
            "durationTicks": 192,
            "midi": 46,
            "name": "A#2",
            "ticks": 44928,
            "time": 49.09086,
            "velocity": 0.3937007874015748
          },
          {
            "duration": 0.20978999999999814,
            "durationTicks": 192,
            "midi": 55,
            "name": "G3",
            "ticks": 45120,
            "time": 49.300650000000005,
            "velocity": 0.3937007874015748
          },
          {
            "duration": 0.20978999999999814,
            "durationTicks": 192,
            "midi": 43,
            "name": "G2",
            "ticks": 45120,
            "time": 49.300650000000005,
            "velocity": 0.3937007874015748
          },
          {
            "duration": 0.20978999999999814,
            "durationTicks": 192,
            "midi": 57,
            "name": "A3",
            "ticks": 45312,
            "time": 49.51044,
            "velocity": 0.3937007874015748
          },
          {
            "duration": 0.20978999999999814,
            "durationTicks": 192,
            "midi": 45,
            "name": "A2",
            "ticks": 45312,
            "time": 49.51044,
            "velocity": 0.3937007874015748
          },
          {
            "duration": 0.20978999999999814,
            "durationTicks": 192,
            "midi": 62,
            "name": "D4",
            "ticks": 45504,
            "time": 49.72023,
            "velocity": 0.3937007874015748
          },
          {
            "duration": 0.20978999999999814,
            "durationTicks": 192,
            "midi": 50,
            "name": "D3",
            "ticks": 45504,
            "time": 49.72023,
            "velocity": 0.3937007874015748
          },
          {
            "duration": 0.10489499999999907,
            "durationTicks": 96,
            "midi": 57,
            "name": "A3",
            "ticks": 45696,
            "time": 49.93002,
            "velocity": 0.3937007874015748
          },
          {
            "duration": 0.10489499999999907,
            "durationTicks": 96,
            "midi": 45,
            "name": "A2",
            "ticks": 45696,
            "time": 49.93002,
            "velocity": 0.3937007874015748
          },
          {
            "duration": 0.10489500000000618,
            "durationTicks": 96,
            "midi": 55,
            "name": "G3",
            "ticks": 45792,
            "time": 50.034915,
            "velocity": 0.3937007874015748
          },
          {
            "duration": 0.10489500000000618,
            "durationTicks": 96,
            "midi": 43,
            "name": "G2",
            "ticks": 45792,
            "time": 50.034915,
            "velocity": 0.3937007874015748
          },
          {
            "duration": 0.20978999999999814,
            "durationTicks": 192,
            "midi": 41,
            "name": "F2",
            "ticks": 45888,
            "time": 50.139810000000004,
            "velocity": 0.3937007874015748
          },
          {
            "duration": 0.20978999999999814,
            "durationTicks": 192,
            "midi": 53,
            "name": "F3",
            "ticks": 45888,
            "time": 50.139810000000004,
            "velocity": 0.3937007874015748
          },
          {
            "duration": 0.20978999999999814,
            "durationTicks": 192,
            "midi": 52,
            "name": "E3",
            "ticks": 46080,
            "time": 50.3496,
            "velocity": 0.3937007874015748
          },
          {
            "duration": 0.20978999999999814,
            "durationTicks": 192,
            "midi": 40,
            "name": "E2",
            "ticks": 46080,
            "time": 50.3496,
            "velocity": 0.3937007874015748
          },
          {
            "duration": 0.20978999999999814,
            "durationTicks": 192,
            "midi": 55,
            "name": "G3",
            "ticks": 46272,
            "time": 50.55939,
            "velocity": 0.3937007874015748
          },
          {
            "duration": 0.20978999999999814,
            "durationTicks": 192,
            "midi": 43,
            "name": "G2",
            "ticks": 46272,
            "time": 50.55939,
            "velocity": 0.3937007874015748
          },
          {
            "duration": 0.10489499999999907,
            "durationTicks": 96,
            "midi": 41,
            "name": "F2",
            "ticks": 46464,
            "time": 50.76918,
            "velocity": 0.3937007874015748
          },
          {
            "duration": 0.10489499999999907,
            "durationTicks": 96,
            "midi": 53,
            "name": "F3",
            "ticks": 46464,
            "time": 50.76918,
            "velocity": 0.3937007874015748
          },
          {
            "duration": 0.10489500000000618,
            "durationTicks": 96,
            "midi": 52,
            "name": "E3",
            "ticks": 46560,
            "time": 50.874075,
            "velocity": 0.3937007874015748
          },
          {
            "duration": 0.10489500000000618,
            "durationTicks": 96,
            "midi": 40,
            "name": "E2",
            "ticks": 46560,
            "time": 50.874075,
            "velocity": 0.3937007874015748
          },
          {
            "duration": 0.20978999999999814,
            "durationTicks": 192,
            "midi": 37,
            "name": "C#2",
            "ticks": 46656,
            "time": 50.978970000000004,
            "velocity": 0.3937007874015748
          },
          {
            "duration": 0.20978999999999814,
            "durationTicks": 192,
            "midi": 49,
            "name": "C#3",
            "ticks": 46656,
            "time": 50.978970000000004,
            "velocity": 0.3937007874015748
          },
          {
            "duration": 0.20978999999999814,
            "durationTicks": 192,
            "midi": 38,
            "name": "D2",
            "ticks": 46848,
            "time": 51.18876,
            "velocity": 0.3937007874015748
          },
          {
            "duration": 0.20978999999999814,
            "durationTicks": 192,
            "midi": 50,
            "name": "D3",
            "ticks": 46848,
            "time": 51.18876,
            "velocity": 0.3937007874015748
          },
          {
            "duration": 0.20978999999999814,
            "durationTicks": 192,
            "midi": 46,
            "name": "A#2",
            "ticks": 47040,
            "time": 51.39855,
            "velocity": 0.3937007874015748
          },
          {
            "duration": 0.20978999999999814,
            "durationTicks": 192,
            "midi": 58,
            "name": "A#3",
            "ticks": 47040,
            "time": 51.39855,
            "velocity": 0.3937007874015748
          },
          {
            "duration": 0.10489500000000618,
            "durationTicks": 96,
            "midi": 45,
            "name": "A2",
            "ticks": 47232,
            "time": 51.60834,
            "velocity": 0.3937007874015748
          },
          {
            "duration": 0.10489500000000618,
            "durationTicks": 96,
            "midi": 57,
            "name": "A3",
            "ticks": 47232,
            "time": 51.60834,
            "velocity": 0.3937007874015748
          },
          {
            "duration": 0.10489499999999907,
            "durationTicks": 96,
            "midi": 43,
            "name": "G2",
            "ticks": 47328,
            "time": 51.713235000000005,
            "velocity": 0.3937007874015748
          },
          {
            "duration": 0.10489499999999907,
            "durationTicks": 96,
            "midi": 55,
            "name": "G3",
            "ticks": 47328,
            "time": 51.713235000000005,
            "velocity": 0.3937007874015748
          },
          {
            "duration": 0.20978999999999814,
            "durationTicks": 192,
            "midi": 45,
            "name": "A2",
            "ticks": 47424,
            "time": 51.818130000000004,
            "velocity": 0.3937007874015748
          },
          {
            "duration": 0.20978999999999814,
            "durationTicks": 192,
            "midi": 57,
            "name": "A3",
            "ticks": 47424,
            "time": 51.818130000000004,
            "velocity": 0.3937007874015748
          },
          {
            "duration": 0.20978999999999814,
            "durationTicks": 192,
            "midi": 52,
            "name": "E3",
            "ticks": 47616,
            "time": 52.02792,
            "velocity": 0.3937007874015748
          },
          {
            "duration": 0.20978999999999814,
            "durationTicks": 192,
            "midi": 40,
            "name": "E2",
            "ticks": 47616,
            "time": 52.02792,
            "velocity": 0.3937007874015748
          },
          {
            "duration": 0.20978999999999814,
            "durationTicks": 192,
            "midi": 37,
            "name": "C#2",
            "ticks": 47808,
            "time": 52.23771,
            "velocity": 0.3937007874015748
          },
          {
            "duration": 0.20978999999999814,
            "durationTicks": 192,
            "midi": 49,
            "name": "C#3",
            "ticks": 47808,
            "time": 52.23771,
            "velocity": 0.3937007874015748
          },
          {
            "duration": 0.10489500000000618,
            "durationTicks": 96,
            "midi": 46,
            "name": "A#2",
            "ticks": 48000,
            "time": 52.4475,
            "velocity": 0.3937007874015748
          },
          {
            "duration": 0.10489500000000618,
            "durationTicks": 96,
            "midi": 58,
            "name": "A#3",
            "ticks": 48000,
            "time": 52.4475,
            "velocity": 0.3937007874015748
          },
          {
            "duration": 0.10489499999999907,
            "durationTicks": 96,
            "midi": 57,
            "name": "A3",
            "ticks": 48096,
            "time": 52.552395000000004,
            "velocity": 0.3937007874015748
          },
          {
            "duration": 0.10489499999999907,
            "durationTicks": 96,
            "midi": 45,
            "name": "A2",
            "ticks": 48096,
            "time": 52.552395000000004,
            "velocity": 0.3937007874015748
          },
          {
            "duration": 0.20978999999999814,
            "durationTicks": 192,
            "midi": 43,
            "name": "G2",
            "ticks": 48192,
            "time": 52.65729,
            "velocity": 0.3937007874015748
          },
          {
            "duration": 0.20978999999999814,
            "durationTicks": 192,
            "midi": 55,
            "name": "G3",
            "ticks": 48192,
            "time": 52.65729,
            "velocity": 0.3937007874015748
          },
          {
            "duration": 0.20978999999999814,
            "durationTicks": 192,
            "midi": 45,
            "name": "A2",
            "ticks": 48384,
            "time": 52.86708,
            "velocity": 0.3937007874015748
          },
          {
            "duration": 0.20978999999999814,
            "durationTicks": 192,
            "midi": 57,
            "name": "A3",
            "ticks": 48384,
            "time": 52.86708,
            "velocity": 0.3937007874015748
          },
          {
            "duration": 0.20978999999999814,
            "durationTicks": 192,
            "midi": 62,
            "name": "D4",
            "ticks": 48576,
            "time": 53.07687,
            "velocity": 0.3937007874015748
          },
          {
            "duration": 0.20978999999999814,
            "durationTicks": 192,
            "midi": 50,
            "name": "D3",
            "ticks": 48576,
            "time": 53.07687,
            "velocity": 0.3937007874015748
          },
          {
            "duration": 0.10489500000000618,
            "durationTicks": 96,
            "midi": 53,
            "name": "F3",
            "ticks": 48768,
            "time": 53.28666,
            "velocity": 0.3937007874015748
          },
          {
            "duration": 0.10489500000000618,
            "durationTicks": 96,
            "midi": 65,
            "name": "F4",
            "ticks": 48768,
            "time": 53.28666,
            "velocity": 0.3937007874015748
          },
          {
            "duration": 0.10489499999999907,
            "durationTicks": 96,
            "midi": 64,
            "name": "E4",
            "ticks": 48864,
            "time": 53.391555000000004,
            "velocity": 0.3937007874015748
          },
          {
            "duration": 0.10489499999999907,
            "durationTicks": 96,
            "midi": 52,
            "name": "E3",
            "ticks": 48864,
            "time": 53.391555000000004,
            "velocity": 0.3937007874015748
          },
          {
            "duration": 0.20978999999999814,
            "durationTicks": 192,
            "midi": 50,
            "name": "D3",
            "ticks": 48960,
            "time": 53.49645,
            "velocity": 0.3937007874015748
          },
          {
            "duration": 0.20978999999999814,
            "durationTicks": 192,
            "midi": 62,
            "name": "D4",
            "ticks": 48960,
            "time": 53.49645,
            "velocity": 0.3937007874015748
          },
          {
            "duration": 0.20978999999999814,
            "durationTicks": 192,
            "midi": 46,
            "name": "A#2",
            "ticks": 49152,
            "time": 53.70624,
            "velocity": 0.3937007874015748
          },
          {
            "duration": 0.20978999999999814,
            "durationTicks": 192,
            "midi": 58,
            "name": "A#3",
            "ticks": 49152,
            "time": 53.70624,
            "velocity": 0.3937007874015748
          },
          {
            "duration": 0.10489499999999907,
            "durationTicks": 96,
            "midi": 45,
            "name": "A2",
            "ticks": 49344,
            "time": 53.91603,
            "velocity": 0.3937007874015748
          },
          {
            "duration": 0.10489499999999907,
            "durationTicks": 96,
            "midi": 57,
            "name": "A3",
            "ticks": 49344,
            "time": 53.91603,
            "velocity": 0.3937007874015748
          },
          {
            "duration": 0.10489500000000618,
            "durationTicks": 96,
            "midi": 57,
            "name": "A3",
            "ticks": 49440,
            "time": 54.020925,
            "velocity": 0.3937007874015748
          },
          {
            "duration": 0.10489500000000618,
            "durationTicks": 96,
            "midi": 45,
            "name": "A2",
            "ticks": 49440,
            "time": 54.020925,
            "velocity": 0.3937007874015748
          },
          {
            "duration": 0.10489499999999907,
            "durationTicks": 96,
            "midi": 55,
            "name": "G3",
            "ticks": 49536,
            "time": 54.125820000000004,
            "velocity": 0.3937007874015748
          },
          {
            "duration": 0.10489499999999907,
            "durationTicks": 96,
            "midi": 43,
            "name": "G2",
            "ticks": 49536,
            "time": 54.125820000000004,
            "velocity": 0.3937007874015748
          },
          {
            "duration": 0.10489499999999907,
            "durationTicks": 96,
            "midi": 41,
            "name": "F2",
            "ticks": 49632,
            "time": 54.230715000000004,
            "velocity": 0.3937007874015748
          },
          {
            "duration": 0.10489499999999907,
            "durationTicks": 96,
            "midi": 53,
            "name": "F3",
            "ticks": 49632,
            "time": 54.230715000000004,
            "velocity": 0.3937007874015748
          },
          {
            "duration": 0.10489499999999907,
            "durationTicks": 96,
            "midi": 52,
            "name": "E3",
            "ticks": 49728,
            "time": 54.33561,
            "velocity": 0.3937007874015748
          },
          {
            "duration": 0.10489499999999907,
            "durationTicks": 96,
            "midi": 40,
            "name": "E2",
            "ticks": 49728,
            "time": 54.33561,
            "velocity": 0.3937007874015748
          },
          {
            "duration": 0.10489499999999907,
            "durationTicks": 96,
            "midi": 38,
            "name": "D2",
            "ticks": 49824,
            "time": 54.440505,
            "velocity": 0.3937007874015748
          },
          {
            "duration": 0.10489499999999907,
            "durationTicks": 96,
            "midi": 50,
            "name": "D3",
            "ticks": 49824,
            "time": 54.440505,
            "velocity": 0.3937007874015748
          },
          {
            "duration": 0.20978999999999814,
            "durationTicks": 192,
            "midi": 37,
            "name": "C#2",
            "ticks": 49920,
            "time": 54.5454,
            "velocity": 0.3937007874015748
          },
          {
            "duration": 0.20978999999999814,
            "durationTicks": 192,
            "midi": 49,
            "name": "C#3",
            "ticks": 49920,
            "time": 54.5454,
            "velocity": 0.3937007874015748
          },
          {
            "duration": 0.20979000000000525,
            "durationTicks": 192,
            "midi": 45,
            "name": "A2",
            "ticks": 50112,
            "time": 54.75519,
            "velocity": 0.3937007874015748
          },
          {
            "duration": 0.20979000000000525,
            "durationTicks": 192,
            "midi": 57,
            "name": "A3",
            "ticks": 50112,
            "time": 54.75519,
            "velocity": 0.3937007874015748
          },
          {
            "duration": 0.20978999999999814,
            "durationTicks": 192,
            "midi": 50,
            "name": "D3",
            "ticks": 50304,
            "time": 54.964980000000004,
            "velocity": 0.3937007874015748
          },
          {
            "duration": 0.20978999999999814,
            "durationTicks": 192,
            "midi": 38,
            "name": "D2",
            "ticks": 50304,
            "time": 54.964980000000004,
            "velocity": 0.3937007874015748
          },
          {
            "duration": 0.5244750000000025,
            "durationTicks": 480,
            "midi": 53,
            "name": "F3",
            "ticks": 50688,
            "time": 55.38456,
            "velocity": 0.3937007874015748
          },
          {
            "duration": 0.5244750000000025,
            "durationTicks": 480,
            "midi": 65,
            "name": "F4",
            "ticks": 50688,
            "time": 55.38456,
            "velocity": 0.3937007874015748
          },
          {
            "duration": 0.20978999999999814,
            "durationTicks": 192,
            "midi": 55,
            "name": "G3",
            "ticks": 51264,
            "time": 56.01393,
            "velocity": 0.3937007874015748
          },
          {
            "duration": 0.20978999999999814,
            "durationTicks": 192,
            "midi": 67,
            "name": "G4",
            "ticks": 51264,
            "time": 56.01393,
            "velocity": 0.3937007874015748
          },
          {
            "duration": 0.5244750000000025,
            "durationTicks": 480,
            "midi": 53,
            "name": "F3",
            "ticks": 51456,
            "time": 56.22372,
            "velocity": 0.3937007874015748
          },
          {
            "duration": 0.5244750000000025,
            "durationTicks": 480,
            "midi": 65,
            "name": "F4",
            "ticks": 51456,
            "time": 56.22372,
            "velocity": 0.3937007874015748
          },
          {
            "duration": 0.20978999999999814,
            "durationTicks": 192,
            "midi": 62,
            "name": "D4",
            "ticks": 52032,
            "time": 56.85309,
            "velocity": 0.3937007874015748
          },
          {
            "duration": 0.20978999999999814,
            "durationTicks": 192,
            "midi": 50,
            "name": "D3",
            "ticks": 52032,
            "time": 56.85309,
            "velocity": 0.3937007874015748
          },
          {
            "duration": 0.20978999999999814,
            "durationTicks": 192,
            "midi": 53,
            "name": "F3",
            "ticks": 52224,
            "time": 57.06288,
            "velocity": 0.3937007874015748
          },
          {
            "duration": 0.20978999999999814,
            "durationTicks": 192,
            "midi": 65,
            "name": "F4",
            "ticks": 52224,
            "time": 57.06288,
            "velocity": 0.3937007874015748
          },
          {
            "duration": 0.10489500000000618,
            "durationTicks": 96,
            "midi": 55,
            "name": "G3",
            "ticks": 52416,
            "time": 57.27267,
            "velocity": 0.3937007874015748
          },
          {
            "duration": 0.10489500000000618,
            "durationTicks": 96,
            "midi": 67,
            "name": "G4",
            "ticks": 52416,
            "time": 57.27267,
            "velocity": 0.3937007874015748
          },
          {
            "duration": 0.6293700000000015,
            "durationTicks": 576,
            "midi": 50,
            "name": "D3",
            "ticks": 52416,
            "time": 57.27267,
            "velocity": 0.3937007874015748
          },
          {
            "duration": 0.20978999999999814,
            "durationTicks": 192,
            "midi": 65,
            "name": "F4",
            "ticks": 52512,
            "time": 57.377565000000004,
            "velocity": 0.3937007874015748
          },
          {
            "duration": 0.20978999999999814,
            "durationTicks": 192,
            "midi": 53,
            "name": "F3",
            "ticks": 52512,
            "time": 57.377565000000004,
            "velocity": 0.3937007874015748
          },
          {
            "duration": 0.4195799999999963,
            "durationTicks": 384,
            "midi": 50,
            "name": "D3",
            "ticks": 52608,
            "time": 57.48246,
            "velocity": 0.3937007874015748
          },
          {
            "duration": 0.4195799999999963,
            "durationTicks": 384,
            "midi": 50,
            "name": "D3",
            "ticks": 52800,
            "time": 57.69225,
            "velocity": 0.3937007874015748
          },
          {
            "duration": 0.20978999999999814,
            "durationTicks": 192,
            "midi": 62,
            "name": "D4",
            "ticks": 52800,
            "time": 57.69225,
            "velocity": 0.3937007874015748
          },
          {
            "duration": 0.20978999999999814,
            "durationTicks": 192,
            "midi": 65,
            "name": "F4",
            "ticks": 52992,
            "time": 57.90204,
            "velocity": 0.3937007874015748
          },
          {
            "duration": 0.20978999999999814,
            "durationTicks": 192,
            "midi": 53,
            "name": "F3",
            "ticks": 52992,
            "time": 57.90204,
            "velocity": 0.3937007874015748
          },
          {
            "duration": 0.4195800000000034,
            "durationTicks": 384,
            "midi": 62,
            "name": "D4",
            "ticks": 52992,
            "time": 57.90204,
            "velocity": 0.3937007874015748
          },
          {
            "duration": 0.10489500000000618,
            "durationTicks": 96,
            "midi": 55,
            "name": "G3",
            "ticks": 53184,
            "time": 58.11183,
            "velocity": 0.3937007874015748
          },
          {
            "duration": 0.10489500000000618,
            "durationTicks": 96,
            "midi": 67,
            "name": "G4",
            "ticks": 53184,
            "time": 58.11183,
            "velocity": 0.3937007874015748
          },
          {
            "duration": 0.4195800000000034,
            "durationTicks": 384,
            "midi": 62,
            "name": "D4",
            "ticks": 53184,
            "time": 58.11183,
            "velocity": 0.3937007874015748
          },
          {
            "duration": 0.20978999999999814,
            "durationTicks": 192,
            "midi": 69,
            "name": "A4",
            "ticks": 53280,
            "time": 58.216725000000004,
            "velocity": 0.3937007874015748
          },
          {
            "duration": 0.20978999999999814,
            "durationTicks": 192,
            "midi": 57,
            "name": "A3",
            "ticks": 53280,
            "time": 58.216725000000004,
            "velocity": 0.3937007874015748
          },
          {
            "duration": 0.4195799999999963,
            "durationTicks": 384,
            "midi": 60,
            "name": "C4",
            "ticks": 53376,
            "time": 58.32162,
            "velocity": 0.3937007874015748
          },
          {
            "duration": 0.10489499999999907,
            "durationTicks": 96,
            "midi": 55,
            "name": "G3",
            "ticks": 53472,
            "time": 58.426515,
            "velocity": 0.3937007874015748
          },
          {
            "duration": 0.10489499999999907,
            "durationTicks": 96,
            "midi": 67,
            "name": "G4",
            "ticks": 53472,
            "time": 58.426515,
            "velocity": 0.3937007874015748
          },
          {
            "duration": 0.4195800000000034,
            "durationTicks": 384,
            "midi": 60,
            "name": "C4",
            "ticks": 53568,
            "time": 58.53141,
            "velocity": 0.3937007874015748
          },
          {
            "duration": 0.10489499999999907,
            "durationTicks": 96,
            "midi": 53,
            "name": "F3",
            "ticks": 53568,
            "time": 58.53141,
            "velocity": 0.3937007874015748
          },
          {
            "duration": 0.10489499999999907,
            "durationTicks": 96,
            "midi": 65,
            "name": "F4",
            "ticks": 53568,
            "time": 58.53141,
            "velocity": 0.3937007874015748
          },
          {
            "duration": 0.10489499999999907,
            "durationTicks": 96,
            "midi": 52,
            "name": "E3",
            "ticks": 53664,
            "time": 58.636305,
            "velocity": 0.3937007874015748
          },
          {
            "duration": 0.10489499999999907,
            "durationTicks": 96,
            "midi": 64,
            "name": "E4",
            "ticks": 53664,
            "time": 58.636305,
            "velocity": 0.3937007874015748
          },
          {
            "duration": 0.10489499999999907,
            "durationTicks": 96,
            "midi": 62,
            "name": "D4",
            "ticks": 53760,
            "time": 58.7412,
            "velocity": 0.3937007874015748
          },
          {
            "duration": 0.10489499999999907,
            "durationTicks": 96,
            "midi": 50,
            "name": "D3",
            "ticks": 53760,
            "time": 58.7412,
            "velocity": 0.3937007874015748
          },
          {
            "duration": 0.20979000000000525,
            "durationTicks": 192,
            "midi": 62,
            "name": "D4",
            "ticks": 53760,
            "time": 58.7412,
            "velocity": 0.3937007874015748
          },
          {
            "duration": 0.10489500000000618,
            "durationTicks": 96,
            "midi": 62,
            "name": "D4",
            "ticks": 53856,
            "time": 58.846095,
            "velocity": 0.3937007874015748
          },
          {
            "duration": 0.10489500000000618,
            "durationTicks": 96,
            "midi": 50,
            "name": "D3",
            "ticks": 53856,
            "time": 58.846095,
            "velocity": 0.3937007874015748
          },
          {
            "duration": 0.20978999999999814,
            "durationTicks": 192,
            "midi": 46,
            "name": "A#2",
            "ticks": 53952,
            "time": 58.950990000000004,
            "velocity": 0.3937007874015748
          },
          {
            "duration": 0.20978999999999814,
            "durationTicks": 192,
            "midi": 58,
            "name": "A#3",
            "ticks": 53952,
            "time": 58.950990000000004,
            "velocity": 0.3937007874015748
          },
          {
            "duration": 0.20978999999999814,
            "durationTicks": 192,
            "midi": 62,
            "name": "D4",
            "ticks": 53952,
            "time": 58.950990000000004,
            "velocity": 0.3937007874015748
          },
          {
            "duration": 0.10489499999999907,
            "durationTicks": 96,
            "midi": 50,
            "name": "D3",
            "ticks": 54144,
            "time": 59.16078,
            "velocity": 0.3937007874015748
          },
          {
            "duration": 0.10489499999999907,
            "durationTicks": 96,
            "midi": 62,
            "name": "D4",
            "ticks": 54144,
            "time": 59.16078,
            "velocity": 0.3937007874015748
          },
          {
            "duration": 0.10489499999999907,
            "durationTicks": 96,
            "midi": 62,
            "name": "D4",
            "ticks": 54240,
            "time": 59.265675,
            "velocity": 0.3937007874015748
          },
          {
            "duration": 0.10489499999999907,
            "durationTicks": 96,
            "midi": 50,
            "name": "D3",
            "ticks": 54240,
            "time": 59.265675,
            "velocity": 0.3937007874015748
          },
          {
            "duration": 0.10489499999999907,
            "durationTicks": 96,
            "midi": 58,
            "name": "A#3",
            "ticks": 54336,
            "time": 59.37057,
            "velocity": 0.3937007874015748
          },
          {
            "duration": 0.10489499999999907,
            "durationTicks": 96,
            "midi": 46,
            "name": "A#2",
            "ticks": 54336,
            "time": 59.37057,
            "velocity": 0.3937007874015748
          },
          {
            "duration": 0.10489499999999907,
            "durationTicks": 96,
            "midi": 58,
            "name": "A#3",
            "ticks": 54432,
            "time": 59.475465,
            "velocity": 0.3937007874015748
          },
          {
            "duration": 0.10489499999999907,
            "durationTicks": 96,
            "midi": 46,
            "name": "A#2",
            "ticks": 54432,
            "time": 59.475465,
            "velocity": 0.3937007874015748
          },
          {
            "duration": 0.10489499999999907,
            "durationTicks": 96,
            "midi": 62,
            "name": "D4",
            "ticks": 54528,
            "time": 59.58036,
            "velocity": 0.3937007874015748
          },
          {
            "duration": 0.10489499999999907,
            "durationTicks": 96,
            "midi": 50,
            "name": "D3",
            "ticks": 54528,
            "time": 59.58036,
            "velocity": 0.3937007874015748
          },
          {
            "duration": 0.10489500000000618,
            "durationTicks": 96,
            "midi": 58,
            "name": "A#3",
            "ticks": 54624,
            "time": 59.685255,
            "velocity": 0.3937007874015748
          },
          {
            "duration": 0.10489500000000618,
            "durationTicks": 96,
            "midi": 46,
            "name": "A#2",
            "ticks": 54624,
            "time": 59.685255,
            "velocity": 0.3937007874015748
          },
          {
            "duration": 0.10489499999999907,
            "durationTicks": 96,
            "midi": 64,
            "name": "E4",
            "ticks": 54720,
            "time": 59.790150000000004,
            "velocity": 0.3937007874015748
          },
          {
            "duration": 0.10489499999999907,
            "durationTicks": 96,
            "midi": 52,
            "name": "E3",
            "ticks": 54720,
            "time": 59.790150000000004,
            "velocity": 0.3937007874015748
          },
          {
            "duration": 0.10489499999999907,
            "durationTicks": 96,
            "midi": 46,
            "name": "A#2",
            "ticks": 54816,
            "time": 59.895045,
            "velocity": 0.3937007874015748
          },
          {
            "duration": 0.10489499999999907,
            "durationTicks": 96,
            "midi": 58,
            "name": "A#3",
            "ticks": 54816,
            "time": 59.895045,
            "velocity": 0.3937007874015748
          },
          {
            "duration": 0.10489499999999907,
            "durationTicks": 96,
            "midi": 65,
            "name": "F4",
            "ticks": 54912,
            "time": 59.99994,
            "velocity": 0.3937007874015748
          },
          {
            "duration": 0.10489499999999907,
            "durationTicks": 96,
            "midi": 53,
            "name": "F3",
            "ticks": 54912,
            "time": 59.99994,
            "velocity": 0.3937007874015748
          },
          {
            "duration": 0.10489499999999907,
            "durationTicks": 96,
            "midi": 58,
            "name": "A#3",
            "ticks": 55008,
            "time": 60.104835,
            "velocity": 0.3937007874015748
          },
          {
            "duration": 0.10489499999999907,
            "durationTicks": 96,
            "midi": 46,
            "name": "A#2",
            "ticks": 55008,
            "time": 60.104835,
            "velocity": 0.3937007874015748
          },
          {
            "duration": 0.10489499999999907,
            "durationTicks": 96,
            "midi": 67,
            "name": "G4",
            "ticks": 55104,
            "time": 60.20973,
            "velocity": 0.3937007874015748
          },
          {
            "duration": 0.10489499999999907,
            "durationTicks": 96,
            "midi": 55,
            "name": "G3",
            "ticks": 55104,
            "time": 60.20973,
            "velocity": 0.3937007874015748
          },
          {
            "duration": 0.10489499999999907,
            "durationTicks": 96,
            "midi": 53,
            "name": "F3",
            "ticks": 55200,
            "time": 60.314625,
            "velocity": 0.3937007874015748
          },
          {
            "duration": 0.10489499999999907,
            "durationTicks": 96,
            "midi": 65,
            "name": "F4",
            "ticks": 55200,
            "time": 60.314625,
            "velocity": 0.3937007874015748
          },
          {
            "duration": 0.10489500000000618,
            "durationTicks": 96,
            "midi": 57,
            "name": "A3",
            "ticks": 55296,
            "time": 60.41952,
            "velocity": 0.3937007874015748
          },
          {
            "duration": 0.10489500000000618,
            "durationTicks": 96,
            "midi": 69,
            "name": "A4",
            "ticks": 55296,
            "time": 60.41952,
            "velocity": 0.3937007874015748
          },
          {
            "duration": 0.10489499999999907,
            "durationTicks": 96,
            "midi": 55,
            "name": "G3",
            "ticks": 55392,
            "time": 60.524415000000005,
            "velocity": 0.3937007874015748
          },
          {
            "duration": 0.10489499999999907,
            "durationTicks": 96,
            "midi": 67,
            "name": "G4",
            "ticks": 55392,
            "time": 60.524415000000005,
            "velocity": 0.3937007874015748
          },
          {
            "duration": 0.10489499999999907,
            "durationTicks": 96,
            "midi": 65,
            "name": "F4",
            "ticks": 55488,
            "time": 60.629310000000004,
            "velocity": 0.3937007874015748
          },
          {
            "duration": 0.10489499999999907,
            "durationTicks": 96,
            "midi": 53,
            "name": "F3",
            "ticks": 55488,
            "time": 60.629310000000004,
            "velocity": 0.3937007874015748
          },
          {
            "duration": 0.10489499999999907,
            "durationTicks": 96,
            "midi": 55,
            "name": "G3",
            "ticks": 55584,
            "time": 60.734205,
            "velocity": 0.3937007874015748
          },
          {
            "duration": 0.10489499999999907,
            "durationTicks": 96,
            "midi": 67,
            "name": "G4",
            "ticks": 55584,
            "time": 60.734205,
            "velocity": 0.3937007874015748
          },
          {
            "duration": 0.10489499999999907,
            "durationTicks": 96,
            "midi": 53,
            "name": "F3",
            "ticks": 55680,
            "time": 60.8391,
            "velocity": 0.3937007874015748
          },
          {
            "duration": 0.10489499999999907,
            "durationTicks": 96,
            "midi": 65,
            "name": "F4",
            "ticks": 55680,
            "time": 60.8391,
            "velocity": 0.3937007874015748
          },
          {
            "duration": 0.10489499999999907,
            "durationTicks": 96,
            "midi": 52,
            "name": "E3",
            "ticks": 55776,
            "time": 60.943995,
            "velocity": 0.3937007874015748
          },
          {
            "duration": 0.10489499999999907,
            "durationTicks": 96,
            "midi": 64,
            "name": "E4",
            "ticks": 55776,
            "time": 60.943995,
            "velocity": 0.3937007874015748
          },
          {
            "duration": 0.10489499999999907,
            "durationTicks": 96,
            "midi": 50,
            "name": "D3",
            "ticks": 55872,
            "time": 61.04889,
            "velocity": 0.3937007874015748
          },
          {
            "duration": 0.10489499999999907,
            "durationTicks": 96,
            "midi": 62,
            "name": "D4",
            "ticks": 55872,
            "time": 61.04889,
            "velocity": 0.3937007874015748
          },
          {
            "duration": 0.10489499999999907,
            "durationTicks": 96,
            "midi": 55,
            "name": "G3",
            "ticks": 55968,
            "time": 61.153785,
            "velocity": 0.3937007874015748
          },
          {
            "duration": 0.10489499999999907,
            "durationTicks": 96,
            "midi": 67,
            "name": "G4",
            "ticks": 55968,
            "time": 61.153785,
            "velocity": 0.3937007874015748
          },
          {
            "duration": 0.20979000000000525,
            "durationTicks": 192,
            "midi": 50,
            "name": "D3",
            "ticks": 56064,
            "time": 61.25868,
            "velocity": 0.3937007874015748
          },
          {
            "duration": 0.20979000000000525,
            "durationTicks": 192,
            "midi": 57,
            "name": "A3",
            "ticks": 56064,
            "time": 61.25868,
            "velocity": 0.3937007874015748
          },
          {
            "duration": 0.20979000000000525,
            "durationTicks": 192,
            "midi": 62,
            "name": "D4",
            "ticks": 56064,
            "time": 61.25868,
            "velocity": 0.3937007874015748
          },
          {
            "duration": 0.20979000000000525,
            "durationTicks": 192,
            "midi": 69,
            "name": "A4",
            "ticks": 56064,
            "time": 61.25868,
            "velocity": 0.3937007874015748
          },
          {
            "duration": 0.20978999999999814,
            "durationTicks": 192,
            "midi": 56,
            "name": "G#3",
            "ticks": 56256,
            "time": 61.46847,
            "velocity": 0.3937007874015748
          },
          {
            "duration": 0.20978999999999814,
            "durationTicks": 192,
            "midi": 68,
            "name": "G#4",
            "ticks": 56256,
            "time": 61.46847,
            "velocity": 0.3937007874015748
          },
          {
            "duration": 0.20978999999999814,
            "durationTicks": 192,
            "midi": 49,
            "name": "C#3",
            "ticks": 56256,
            "time": 61.46847,
            "velocity": 0.3937007874015748
          },
          {
            "duration": 0.20978999999999814,
            "durationTicks": 192,
            "midi": 61,
            "name": "C#4",
            "ticks": 56256,
            "time": 61.46847,
            "velocity": 0.3937007874015748
          },
          {
            "duration": 0.20978999999999814,
            "durationTicks": 192,
            "midi": 48,
            "name": "C3",
            "ticks": 56448,
            "time": 61.67826,
            "velocity": 0.3937007874015748
          },
          {
            "duration": 0.20978999999999814,
            "durationTicks": 192,
            "midi": 60,
            "name": "C4",
            "ticks": 56448,
            "time": 61.67826,
            "velocity": 0.3937007874015748
          },
          {
            "duration": 0.20978999999999814,
            "durationTicks": 192,
            "midi": 55,
            "name": "G3",
            "ticks": 56448,
            "time": 61.67826,
            "velocity": 0.3937007874015748
          },
          {
            "duration": 0.20978999999999814,
            "durationTicks": 192,
            "midi": 67,
            "name": "G4",
            "ticks": 56448,
            "time": 61.67826,
            "velocity": 0.3937007874015748
          },
          {
            "duration": 0.20978999999999814,
            "durationTicks": 192,
            "midi": 59,
            "name": "B3",
            "ticks": 56640,
            "time": 61.88805,
            "velocity": 0.3937007874015748
          },
          {
            "duration": 0.20978999999999814,
            "durationTicks": 192,
            "midi": 54,
            "name": "F#3",
            "ticks": 56640,
            "time": 61.88805,
            "velocity": 0.3937007874015748
          },
          {
            "duration": 0.20978999999999814,
            "durationTicks": 192,
            "midi": 47,
            "name": "B2",
            "ticks": 56640,
            "time": 61.88805,
            "velocity": 0.3937007874015748
          },
          {
            "duration": 0.20978999999999814,
            "durationTicks": 192,
            "midi": 66,
            "name": "F#4",
            "ticks": 56640,
            "time": 61.88805,
            "velocity": 0.3937007874015748
          },
          {
            "duration": 0.5244750000000025,
            "durationTicks": 480,
            "midi": 65,
            "name": "F4",
            "ticks": 56832,
            "time": 62.09784,
            "velocity": 0.3937007874015748
          },
          {
            "duration": 0.5244750000000025,
            "durationTicks": 480,
            "midi": 53,
            "name": "F3",
            "ticks": 56832,
            "time": 62.09784,
            "velocity": 0.3937007874015748
          },
          {
            "duration": 0.20979000000000525,
            "durationTicks": 192,
            "midi": 55,
            "name": "G3",
            "ticks": 57408,
            "time": 62.72721,
            "velocity": 0.3937007874015748
          },
          {
            "duration": 0.20979000000000525,
            "durationTicks": 192,
            "midi": 67,
            "name": "G4",
            "ticks": 57408,
            "time": 62.72721,
            "velocity": 0.3937007874015748
          },
          {
            "duration": 0.5244749999999954,
            "durationTicks": 480,
            "midi": 65,
            "name": "F4",
            "ticks": 57600,
            "time": 62.937000000000005,
            "velocity": 0.3937007874015748
          },
          {
            "duration": 0.5244749999999954,
            "durationTicks": 480,
            "midi": 53,
            "name": "F3",
            "ticks": 57600,
            "time": 62.937000000000005,
            "velocity": 0.3937007874015748
          },
          {
            "duration": 0.20979000000000525,
            "durationTicks": 192,
            "midi": 62,
            "name": "D4",
            "ticks": 58176,
            "time": 63.56637,
            "velocity": 0.3937007874015748
          },
          {
            "duration": 0.20979000000000525,
            "durationTicks": 192,
            "midi": 50,
            "name": "D3",
            "ticks": 58176,
            "time": 63.56637,
            "velocity": 0.3937007874015748
          },
          {
            "duration": 0.20978999999999814,
            "durationTicks": 192,
            "midi": 65,
            "name": "F4",
            "ticks": 58368,
            "time": 63.776160000000004,
            "velocity": 0.3937007874015748
          },
          {
            "duration": 0.20978999999999814,
            "durationTicks": 192,
            "midi": 53,
            "name": "F3",
            "ticks": 58368,
            "time": 63.776160000000004,
            "velocity": 0.3937007874015748
          },
          {
            "duration": 0.10489499999999907,
            "durationTicks": 96,
            "midi": 55,
            "name": "G3",
            "ticks": 58560,
            "time": 63.98595,
            "velocity": 0.3937007874015748
          },
          {
            "duration": 0.10489499999999907,
            "durationTicks": 96,
            "midi": 67,
            "name": "G4",
            "ticks": 58560,
            "time": 63.98595,
            "velocity": 0.3937007874015748
          },
          {
            "duration": 0.6293699999999944,
            "durationTicks": 576,
            "midi": 50,
            "name": "D3",
            "ticks": 58560,
            "time": 63.98595,
            "velocity": 0.3937007874015748
          },
          {
            "duration": 0.20978999999999814,
            "durationTicks": 192,
            "midi": 53,
            "name": "F3",
            "ticks": 58656,
            "time": 64.090845,
            "velocity": 0.3937007874015748
          },
          {
            "duration": 0.20978999999999814,
            "durationTicks": 192,
            "midi": 65,
            "name": "F4",
            "ticks": 58656,
            "time": 64.090845,
            "velocity": 0.3937007874015748
          },
          {
            "duration": 0.4195799999999963,
            "durationTicks": 384,
            "midi": 50,
            "name": "D3",
            "ticks": 58752,
            "time": 64.19574,
            "velocity": 0.3937007874015748
          },
          {
            "duration": 0.4195799999999963,
            "durationTicks": 384,
            "midi": 50,
            "name": "D3",
            "ticks": 58944,
            "time": 64.40553,
            "velocity": 0.3937007874015748
          },
          {
            "duration": 0.20978999999999814,
            "durationTicks": 192,
            "midi": 62,
            "name": "D4",
            "ticks": 58944,
            "time": 64.40553,
            "velocity": 0.3937007874015748
          },
          {
            "duration": 0.4195800000000105,
            "durationTicks": 384,
            "midi": 62,
            "name": "D4",
            "ticks": 59136,
            "time": 64.61532,
            "velocity": 0.3937007874015748
          },
          {
            "duration": 0.20978999999999814,
            "durationTicks": 192,
            "midi": 53,
            "name": "F3",
            "ticks": 59136,
            "time": 64.61532,
            "velocity": 0.3937007874015748
          },
          {
            "duration": 0.20978999999999814,
            "durationTicks": 192,
            "midi": 65,
            "name": "F4",
            "ticks": 59136,
            "time": 64.61532,
            "velocity": 0.3937007874015748
          },
          {
            "duration": 0.10489500000001328,
            "durationTicks": 96,
            "midi": 67,
            "name": "G4",
            "ticks": 59328,
            "time": 64.82511,
            "velocity": 0.3937007874015748
          },
          {
            "duration": 0.31468500000001143,
            "durationTicks": 288,
            "midi": 62,
            "name": "D4",
            "ticks": 59328,
            "time": 64.82511,
            "velocity": 0.3937007874015748
          },
          {
            "duration": 0.10489500000001328,
            "durationTicks": 96,
            "midi": 55,
            "name": "G3",
            "ticks": 59328,
            "time": 64.82511,
            "velocity": 0.3937007874015748
          },
          {
            "duration": 0.20978999999999814,
            "durationTicks": 192,
            "midi": 74,
            "name": "D5",
            "ticks": 59424,
            "time": 64.93000500000001,
            "velocity": 0.3937007874015748
          },
          {
            "duration": 0.3146849999999972,
            "durationTicks": 288,
            "midi": 62,
            "name": "D4",
            "ticks": 59424,
            "time": 64.93000500000001,
            "velocity": 0.3937007874015748
          },
          {
            "duration": 0.4195799999999963,
            "durationTicks": 384,
            "midi": 60,
            "name": "C4",
            "ticks": 59520,
            "time": 65.03490000000001,
            "velocity": 0.3937007874015748
          },
          {
            "duration": 0.10489499999999907,
            "durationTicks": 96,
            "midi": 67,
            "name": "G4",
            "ticks": 59616,
            "time": 65.139795,
            "velocity": 0.3937007874015748
          },
          {
            "duration": 0.10489499999999907,
            "durationTicks": 96,
            "midi": 55,
            "name": "G3",
            "ticks": 59616,
            "time": 65.139795,
            "velocity": 0.3937007874015748
          },
          {
            "duration": 0.10489499999999907,
            "durationTicks": 96,
            "midi": 65,
            "name": "F4",
            "ticks": 59712,
            "time": 65.24469,
            "velocity": 0.3937007874015748
          },
          {
            "duration": 0.4195799999999963,
            "durationTicks": 384,
            "midi": 60,
            "name": "C4",
            "ticks": 59712,
            "time": 65.24469,
            "velocity": 0.3937007874015748
          },
          {
            "duration": 0.10489499999999907,
            "durationTicks": 96,
            "midi": 53,
            "name": "F3",
            "ticks": 59712,
            "time": 65.24469,
            "velocity": 0.3937007874015748
          },
          {
            "duration": 0.10489499999999907,
            "durationTicks": 96,
            "midi": 52,
            "name": "E3",
            "ticks": 59808,
            "time": 65.349585,
            "velocity": 0.3937007874015748
          },
          {
            "duration": 0.10489499999999907,
            "durationTicks": 96,
            "midi": 64,
            "name": "E4",
            "ticks": 59808,
            "time": 65.349585,
            "velocity": 0.3937007874015748
          },
          {
            "duration": 0.10489499999999907,
            "durationTicks": 96,
            "midi": 62,
            "name": "D4",
            "ticks": 59904,
            "time": 65.45448,
            "velocity": 0.3937007874015748
          },
          {
            "duration": 0.20978999999999814,
            "durationTicks": 192,
            "midi": 62,
            "name": "D4",
            "ticks": 59904,
            "time": 65.45448,
            "velocity": 0.3937007874015748
          },
          {
            "duration": 0.10489499999999907,
            "durationTicks": 96,
            "midi": 50,
            "name": "D3",
            "ticks": 59904,
            "time": 65.45448,
            "velocity": 0.3937007874015748
          },
          {
            "duration": 0.10489499999999907,
            "durationTicks": 96,
            "midi": 62,
            "name": "D4",
            "ticks": 60000,
            "time": 65.559375,
            "velocity": 0.3937007874015748
          },
          {
            "duration": 0.10489499999999907,
            "durationTicks": 96,
            "midi": 50,
            "name": "D3",
            "ticks": 60000,
            "time": 65.559375,
            "velocity": 0.3937007874015748
          },
          {
            "duration": 0.20978999999999814,
            "durationTicks": 192,
            "midi": 58,
            "name": "A#3",
            "ticks": 60096,
            "time": 65.66427,
            "velocity": 0.3937007874015748
          },
          {
            "duration": 0.20978999999999814,
            "durationTicks": 192,
            "midi": 46,
            "name": "A#2",
            "ticks": 60096,
            "time": 65.66427,
            "velocity": 0.3937007874015748
          },
          {
            "duration": 0.20978999999999814,
            "durationTicks": 192,
            "midi": 62,
            "name": "D4",
            "ticks": 60096,
            "time": 65.66427,
            "velocity": 0.3937007874015748
          },
          {
            "duration": 0.10489499999999907,
            "durationTicks": 96,
            "midi": 50,
            "name": "D3",
            "ticks": 60288,
            "time": 65.87406,
            "velocity": 0.3937007874015748
          },
          {
            "duration": 0.10489499999999907,
            "durationTicks": 96,
            "midi": 62,
            "name": "D4",
            "ticks": 60288,
            "time": 65.87406,
            "velocity": 0.3937007874015748
          },
          {
            "duration": 0.10489499999999907,
            "durationTicks": 96,
            "midi": 50,
            "name": "D3",
            "ticks": 60384,
            "time": 65.978955,
            "velocity": 0.3937007874015748
          },
          {
            "duration": 0.10489499999999907,
            "durationTicks": 96,
            "midi": 62,
            "name": "D4",
            "ticks": 60384,
            "time": 65.978955,
            "velocity": 0.3937007874015748
          },
          {
            "duration": 0.10489499999999907,
            "durationTicks": 96,
            "midi": 58,
            "name": "A#3",
            "ticks": 60480,
            "time": 66.08385,
            "velocity": 0.3937007874015748
          },
          {
            "duration": 0.10489499999999907,
            "durationTicks": 96,
            "midi": 46,
            "name": "A#2",
            "ticks": 60480,
            "time": 66.08385,
            "velocity": 0.3937007874015748
          },
          {
            "duration": 0.10489499999999907,
            "durationTicks": 96,
            "midi": 46,
            "name": "A#2",
            "ticks": 60576,
            "time": 66.188745,
            "velocity": 0.3937007874015748
          },
          {
            "duration": 0.10489499999999907,
            "durationTicks": 96,
            "midi": 58,
            "name": "A#3",
            "ticks": 60576,
            "time": 66.188745,
            "velocity": 0.3937007874015748
          },
          {
            "duration": 0.10489499999999907,
            "durationTicks": 96,
            "midi": 62,
            "name": "D4",
            "ticks": 60672,
            "time": 66.29364,
            "velocity": 0.3937007874015748
          },
          {
            "duration": 0.10489499999999907,
            "durationTicks": 96,
            "midi": 50,
            "name": "D3",
            "ticks": 60672,
            "time": 66.29364,
            "velocity": 0.3937007874015748
          },
          {
            "duration": 0.10489499999999907,
            "durationTicks": 96,
            "midi": 46,
            "name": "A#2",
            "ticks": 60768,
            "time": 66.398535,
            "velocity": 0.3937007874015748
          },
          {
            "duration": 0.10489499999999907,
            "durationTicks": 96,
            "midi": 58,
            "name": "A#3",
            "ticks": 60768,
            "time": 66.398535,
            "velocity": 0.3937007874015748
          },
          {
            "duration": 0.10489500000001328,
            "durationTicks": 96,
            "midi": 64,
            "name": "E4",
            "ticks": 60864,
            "time": 66.50343,
            "velocity": 0.3937007874015748
          },
          {
            "duration": 0.10489500000001328,
            "durationTicks": 96,
            "midi": 52,
            "name": "E3",
            "ticks": 60864,
            "time": 66.50343,
            "velocity": 0.3937007874015748
          },
          {
            "duration": 0.10489499999999907,
            "durationTicks": 96,
            "midi": 46,
            "name": "A#2",
            "ticks": 60960,
            "time": 66.60832500000001,
            "velocity": 0.3937007874015748
          },
          {
            "duration": 0.10489499999999907,
            "durationTicks": 96,
            "midi": 58,
            "name": "A#3",
            "ticks": 60960,
            "time": 66.60832500000001,
            "velocity": 0.3937007874015748
          },
          {
            "duration": 0.10489499999999907,
            "durationTicks": 96,
            "midi": 53,
            "name": "F3",
            "ticks": 61056,
            "time": 66.71322,
            "velocity": 0.3937007874015748
          },
          {
            "duration": 0.10489499999999907,
            "durationTicks": 96,
            "midi": 65,
            "name": "F4",
            "ticks": 61056,
            "time": 66.71322,
            "velocity": 0.3937007874015748
          },
          {
            "duration": 0.10489499999999907,
            "durationTicks": 96,
            "midi": 46,
            "name": "A#2",
            "ticks": 61152,
            "time": 66.818115,
            "velocity": 0.3937007874015748
          },
          {
            "duration": 0.10489499999999907,
            "durationTicks": 96,
            "midi": 58,
            "name": "A#3",
            "ticks": 61152,
            "time": 66.818115,
            "velocity": 0.3937007874015748
          },
          {
            "duration": 0.10489499999999907,
            "durationTicks": 96,
            "midi": 55,
            "name": "G3",
            "ticks": 61248,
            "time": 66.92301,
            "velocity": 0.3937007874015748
          },
          {
            "duration": 0.10489499999999907,
            "durationTicks": 96,
            "midi": 67,
            "name": "G4",
            "ticks": 61248,
            "time": 66.92301,
            "velocity": 0.3937007874015748
          },
          {
            "duration": 0.10489499999999907,
            "durationTicks": 96,
            "midi": 53,
            "name": "F3",
            "ticks": 61344,
            "time": 67.027905,
            "velocity": 0.3937007874015748
          },
          {
            "duration": 0.10489499999999907,
            "durationTicks": 96,
            "midi": 65,
            "name": "F4",
            "ticks": 61344,
            "time": 67.027905,
            "velocity": 0.3937007874015748
          },
          {
            "duration": 0.10489499999999907,
            "durationTicks": 96,
            "midi": 57,
            "name": "A3",
            "ticks": 61440,
            "time": 67.1328,
            "velocity": 0.3937007874015748
          },
          {
            "duration": 0.10489499999999907,
            "durationTicks": 96,
            "midi": 69,
            "name": "A4",
            "ticks": 61440,
            "time": 67.1328,
            "velocity": 0.3937007874015748
          },
          {
            "duration": 0.10489499999999907,
            "durationTicks": 96,
            "midi": 67,
            "name": "G4",
            "ticks": 61536,
            "time": 67.237695,
            "velocity": 0.3937007874015748
          },
          {
            "duration": 0.10489499999999907,
            "durationTicks": 96,
            "midi": 55,
            "name": "G3",
            "ticks": 61536,
            "time": 67.237695,
            "velocity": 0.3937007874015748
          },
          {
            "duration": 0.10489499999999907,
            "durationTicks": 96,
            "midi": 53,
            "name": "F3",
            "ticks": 61632,
            "time": 67.34259,
            "velocity": 0.3937007874015748
          },
          {
            "duration": 0.10489499999999907,
            "durationTicks": 96,
            "midi": 65,
            "name": "F4",
            "ticks": 61632,
            "time": 67.34259,
            "velocity": 0.3937007874015748
          },
          {
            "duration": 0.10489499999999907,
            "durationTicks": 96,
            "midi": 60,
            "name": "C4",
            "ticks": 61728,
            "time": 67.447485,
            "velocity": 0.3937007874015748
          },
          {
            "duration": 0.10489499999999907,
            "durationTicks": 96,
            "midi": 72,
            "name": "C5",
            "ticks": 61728,
            "time": 67.447485,
            "velocity": 0.3937007874015748
          },
          {
            "duration": 0.10489499999999907,
            "durationTicks": 96,
            "midi": 69,
            "name": "A4",
            "ticks": 61824,
            "time": 67.55238,
            "velocity": 0.3937007874015748
          },
          {
            "duration": 0.10489499999999907,
            "durationTicks": 96,
            "midi": 57,
            "name": "A3",
            "ticks": 61824,
            "time": 67.55238,
            "velocity": 0.3937007874015748
          },
          {
            "duration": 0.10489499999999907,
            "durationTicks": 96,
            "midi": 67,
            "name": "G4",
            "ticks": 61920,
            "time": 67.657275,
            "velocity": 0.3937007874015748
          },
          {
            "duration": 0.10489499999999907,
            "durationTicks": 96,
            "midi": 55,
            "name": "G3",
            "ticks": 61920,
            "time": 67.657275,
            "velocity": 0.3937007874015748
          },
          {
            "duration": 0.10489499999999907,
            "durationTicks": 96,
            "midi": 65,
            "name": "F4",
            "ticks": 62016,
            "time": 67.76217,
            "velocity": 0.3937007874015748
          },
          {
            "duration": 0.10489499999999907,
            "durationTicks": 96,
            "midi": 53,
            "name": "F3",
            "ticks": 62016,
            "time": 67.76217,
            "velocity": 0.3937007874015748
          },
          {
            "duration": 0.10489499999999907,
            "durationTicks": 96,
            "midi": 55,
            "name": "G3",
            "ticks": 62112,
            "time": 67.867065,
            "velocity": 0.3937007874015748
          },
          {
            "duration": 0.10489499999999907,
            "durationTicks": 96,
            "midi": 67,
            "name": "G4",
            "ticks": 62112,
            "time": 67.867065,
            "velocity": 0.3937007874015748
          },
          {
            "duration": 0.20979000000001236,
            "durationTicks": 192,
            "midi": 50,
            "name": "D3",
            "ticks": 62208,
            "time": 67.97196,
            "velocity": 0.3937007874015748
          },
          {
            "duration": 0.20979000000001236,
            "durationTicks": 192,
            "midi": 69,
            "name": "A4",
            "ticks": 62208,
            "time": 67.97196,
            "velocity": 0.3937007874015748
          },
          {
            "duration": 0.20979000000001236,
            "durationTicks": 192,
            "midi": 57,
            "name": "A3",
            "ticks": 62208,
            "time": 67.97196,
            "velocity": 0.3937007874015748
          },
          {
            "duration": 0.20979000000001236,
            "durationTicks": 192,
            "midi": 62,
            "name": "D4",
            "ticks": 62208,
            "time": 67.97196,
            "velocity": 0.3937007874015748
          },
          {
            "duration": 0.20978999999999814,
            "durationTicks": 192,
            "midi": 68,
            "name": "G#4",
            "ticks": 62400,
            "time": 68.18175000000001,
            "velocity": 0.3937007874015748
          },
          {
            "duration": 0.20978999999999814,
            "durationTicks": 192,
            "midi": 72,
            "name": "C5",
            "ticks": 62400,
            "time": 68.18175000000001,
            "velocity": 0.3937007874015748
          },
          {
            "duration": 0.20978999999999814,
            "durationTicks": 192,
            "midi": 56,
            "name": "G#3",
            "ticks": 62400,
            "time": 68.18175000000001,
            "velocity": 0.3937007874015748
          },
          {
            "duration": 0.20978999999999814,
            "durationTicks": 192,
            "midi": 61,
            "name": "C#4",
            "ticks": 62400,
            "time": 68.18175000000001,
            "velocity": 0.3937007874015748
          },
          {
            "duration": 0.20978999999999814,
            "durationTicks": 192,
            "midi": 60,
            "name": "C4",
            "ticks": 62400,
            "time": 68.18175000000001,
            "velocity": 0.3937007874015748
          },
          {
            "duration": 0.20978999999999814,
            "durationTicks": 192,
            "midi": 49,
            "name": "C#3",
            "ticks": 62400,
            "time": 68.18175000000001,
            "velocity": 0.3937007874015748
          },
          {
            "duration": 0.20978999999999814,
            "durationTicks": 192,
            "midi": 62,
            "name": "D4",
            "ticks": 62592,
            "time": 68.39154,
            "velocity": 0.3937007874015748
          },
          {
            "duration": 0.20978999999999814,
            "durationTicks": 192,
            "midi": 48,
            "name": "C3",
            "ticks": 62592,
            "time": 68.39154,
            "velocity": 0.3937007874015748
          },
          {
            "duration": 0.20978999999999814,
            "durationTicks": 192,
            "midi": 55,
            "name": "G3",
            "ticks": 62592,
            "time": 68.39154,
            "velocity": 0.3937007874015748
          },
          {
            "duration": 0.20978999999999814,
            "durationTicks": 192,
            "midi": 74,
            "name": "D5",
            "ticks": 62592,
            "time": 68.39154,
            "velocity": 0.3937007874015748
          },
          {
            "duration": 0.20978999999999814,
            "durationTicks": 192,
            "midi": 60,
            "name": "C4",
            "ticks": 62592,
            "time": 68.39154,
            "velocity": 0.3937007874015748
          },
          {
            "duration": 0.20978999999999814,
            "durationTicks": 192,
            "midi": 67,
            "name": "G4",
            "ticks": 62592,
            "time": 68.39154,
            "velocity": 0.3937007874015748
          },
          {
            "duration": 0.20978999999999814,
            "durationTicks": 192,
            "midi": 59,
            "name": "B3",
            "ticks": 62784,
            "time": 68.60133,
            "velocity": 0.3937007874015748
          },
          {
            "duration": 0.20978999999999814,
            "durationTicks": 192,
            "midi": 76,
            "name": "E5",
            "ticks": 62784,
            "time": 68.60133,
            "velocity": 0.3937007874015748
          },
          {
            "duration": 0.20978999999999814,
            "durationTicks": 192,
            "midi": 64,
            "name": "E4",
            "ticks": 62784,
            "time": 68.60133,
            "velocity": 0.3937007874015748
          },
          {
            "duration": 0.20978999999999814,
            "durationTicks": 192,
            "midi": 66,
            "name": "F#4",
            "ticks": 62784,
            "time": 68.60133,
            "velocity": 0.3937007874015748
          },
          {
            "duration": 0.20978999999999814,
            "durationTicks": 192,
            "midi": 47,
            "name": "B2",
            "ticks": 62784,
            "time": 68.60133,
            "velocity": 0.3937007874015748
          },
          {
            "duration": 0.20978999999999814,
            "durationTicks": 192,
            "midi": 54,
            "name": "F#3",
            "ticks": 62784,
            "time": 68.60133,
            "velocity": 0.3937007874015748
          },
          {
            "duration": 0.9440550000000059,
            "durationTicks": 864,
            "midi": 53,
            "name": "F3",
            "ticks": 62976,
            "time": 68.81112,
            "velocity": 0.3937007874015748
          },
          {
            "duration": 0.9440550000000059,
            "durationTicks": 864,
            "midi": 65,
            "name": "F4",
            "ticks": 62976,
            "time": 68.81112,
            "velocity": 0.3937007874015748
          },
          {
            "duration": 0.9440550000000059,
            "durationTicks": 864,
            "midi": 77,
            "name": "F5",
            "ticks": 62976,
            "time": 68.81112,
            "velocity": 0.3937007874015748
          },
          {
            "duration": 0.9440550000000059,
            "durationTicks": 864,
            "midi": 77,
            "name": "F5",
            "ticks": 64512,
            "time": 70.48944,
            "velocity": 0.3937007874015748
          },
          {
            "duration": 0.9440550000000059,
            "durationTicks": 864,
            "midi": 53,
            "name": "F3",
            "ticks": 64512,
            "time": 70.48944,
            "velocity": 0.3937007874015748
          },
          {
            "duration": 0.9440550000000059,
            "durationTicks": 864,
            "midi": 65,
            "name": "F4",
            "ticks": 64512,
            "time": 70.48944,
            "velocity": 0.3937007874015748
          },
          {
            "duration": 0.9440550000000059,
            "durationTicks": 864,
            "midi": 53,
            "name": "F3",
            "ticks": 66048,
            "time": 72.16776,
            "velocity": 0.3937007874015748
          },
          {
            "duration": 0.9440550000000059,
            "durationTicks": 864,
            "midi": 77,
            "name": "F5",
            "ticks": 66048,
            "time": 72.16776,
            "velocity": 0.3937007874015748
          },
          {
            "duration": 0.9440550000000059,
            "durationTicks": 864,
            "midi": 65,
            "name": "F4",
            "ticks": 66048,
            "time": 72.16776,
            "velocity": 0.3937007874015748
          },
          {
            "duration": 0.9440550000000059,
            "durationTicks": 864,
            "midi": 53,
            "name": "F3",
            "ticks": 67584,
            "time": 73.84608,
            "velocity": 0.3937007874015748
          },
          {
            "duration": 0.9440550000000059,
            "durationTicks": 864,
            "midi": 77,
            "name": "F5",
            "ticks": 67584,
            "time": 73.84608,
            "velocity": 0.3937007874015748
          },
          {
            "duration": 0.9440550000000059,
            "durationTicks": 864,
            "midi": 65,
            "name": "F4",
            "ticks": 67584,
            "time": 73.84608,
            "velocity": 0.3937007874015748
          }
        ],
        "endOfTrackTicks": 68448
      },
      {
        "channel": 3,
        "controlChanges": {},
        "pitchBends": [],
        "instrument": {
          "family": "bass",
          "number": 32,
          "name": "acoustic bass"
        },
        "name": "Bass (Classic)",
        "notes": [
          {
            "duration": 0.104895,
            "durationTicks": 96,
            "midi": 26,
            "name": "D1",
            "ticks": 0,
            "time": 0,
            "velocity": 0.3937007874015748
          },
          {
            "duration": 0.104895,
            "durationTicks": 96,
            "midi": 33,
            "name": "A1",
            "ticks": 96,
            "time": 0.104895,
            "velocity": 0.3937007874015748
          },
          {
            "duration": 0.104895,
            "durationTicks": 96,
            "midi": 26,
            "name": "D1",
            "ticks": 96,
            "time": 0.104895,
            "velocity": 0.3937007874015748
          },
          {
            "duration": 0.10489499999999999,
            "durationTicks": 96,
            "midi": 32,
            "name": "G#1",
            "ticks": 192,
            "time": 0.20979,
            "velocity": 0.3937007874015748
          },
          {
            "duration": 0.10489499999999999,
            "durationTicks": 96,
            "midi": 26,
            "name": "D1",
            "ticks": 192,
            "time": 0.20979,
            "velocity": 0.3937007874015748
          },
          {
            "duration": 0.10489499999999999,
            "durationTicks": 96,
            "midi": 33,
            "name": "A1",
            "ticks": 192,
            "time": 0.20979,
            "velocity": 0.3937007874015748
          },
          {
            "duration": 0.10489500000000002,
            "durationTicks": 96,
            "midi": 33,
            "name": "A1",
            "ticks": 288,
            "time": 0.314685,
            "velocity": 0.3937007874015748
          },
          {
            "duration": 0.10489500000000002,
            "durationTicks": 96,
            "midi": 32,
            "name": "G#1",
            "ticks": 288,
            "time": 0.314685,
            "velocity": 0.3937007874015748
          },
          {
            "duration": 0.10489500000000002,
            "durationTicks": 96,
            "midi": 31,
            "name": "G1",
            "ticks": 288,
            "time": 0.314685,
            "velocity": 0.3937007874015748
          },
          {
            "duration": 0.10489500000000002,
            "durationTicks": 96,
            "midi": 31,
            "name": "G1",
            "ticks": 384,
            "time": 0.41958,
            "velocity": 0.3937007874015748
          },
          {
            "duration": 0.10489500000000002,
            "durationTicks": 96,
            "midi": 38,
            "name": "D2",
            "ticks": 384,
            "time": 0.41958,
            "velocity": 0.3937007874015748
          },
          {
            "duration": 0.10489500000000002,
            "durationTicks": 96,
            "midi": 32,
            "name": "G#1",
            "ticks": 384,
            "time": 0.41958,
            "velocity": 0.3937007874015748
          },
          {
            "duration": 0.10489499999999996,
            "durationTicks": 96,
            "midi": 38,
            "name": "D2",
            "ticks": 480,
            "time": 0.524475,
            "velocity": 0.3937007874015748
          },
          {
            "duration": 0.10489499999999996,
            "durationTicks": 96,
            "midi": 37,
            "name": "C#2",
            "ticks": 480,
            "time": 0.524475,
            "velocity": 0.3937007874015748
          },
          {
            "duration": 0.10489499999999996,
            "durationTicks": 96,
            "midi": 31,
            "name": "G1",
            "ticks": 480,
            "time": 0.524475,
            "velocity": 0.3937007874015748
          },
          {
            "duration": 0.10489500000000007,
            "durationTicks": 96,
            "midi": 37,
            "name": "C#2",
            "ticks": 576,
            "time": 0.62937,
            "velocity": 0.3937007874015748
          },
          {
            "duration": 0.10489500000000007,
            "durationTicks": 96,
            "midi": 36,
            "name": "C2",
            "ticks": 576,
            "time": 0.62937,
            "velocity": 0.3937007874015748
          },
          {
            "duration": 0.10489500000000007,
            "durationTicks": 96,
            "midi": 38,
            "name": "D2",
            "ticks": 576,
            "time": 0.62937,
            "velocity": 0.3937007874015748
          },
          {
            "duration": 0.10489499999999996,
            "durationTicks": 96,
            "midi": 36,
            "name": "C2",
            "ticks": 672,
            "time": 0.7342650000000001,
            "velocity": 0.3937007874015748
          },
          {
            "duration": 0.10489499999999996,
            "durationTicks": 96,
            "midi": 43,
            "name": "G2",
            "ticks": 672,
            "time": 0.7342650000000001,
            "velocity": 0.3937007874015748
          },
          {
            "duration": 0.10489499999999996,
            "durationTicks": 96,
            "midi": 37,
            "name": "C#2",
            "ticks": 672,
            "time": 0.7342650000000001,
            "velocity": 0.3937007874015748
          },
          {
            "duration": 0.10489499999999996,
            "durationTicks": 96,
            "midi": 43,
            "name": "G2",
            "ticks": 768,
            "time": 0.83916,
            "velocity": 0.3937007874015748
          },
          {
            "duration": 0.10489499999999996,
            "durationTicks": 96,
            "midi": 36,
            "name": "C2",
            "ticks": 768,
            "time": 0.83916,
            "velocity": 0.3937007874015748
          },
          {
            "duration": 0.10489499999999996,
            "durationTicks": 96,
            "midi": 42,
            "name": "F#2",
            "ticks": 768,
            "time": 0.83916,
            "velocity": 0.3937007874015748
          },
          {
            "duration": 0.10489500000000007,
            "durationTicks": 96,
            "midi": 42,
            "name": "F#2",
            "ticks": 864,
            "time": 0.944055,
            "velocity": 0.3937007874015748
          },
          {
            "duration": 0.10489500000000007,
            "durationTicks": 96,
            "midi": 40,
            "name": "E2",
            "ticks": 864,
            "time": 0.944055,
            "velocity": 0.3937007874015748
          },
          {
            "duration": 0.10489500000000007,
            "durationTicks": 96,
            "midi": 43,
            "name": "G2",
            "ticks": 864,
            "time": 0.944055,
            "velocity": 0.3937007874015748
          },
          {
            "duration": 0.10489499999999996,
            "durationTicks": 96,
            "midi": 38,
            "name": "D2",
            "ticks": 960,
            "time": 1.04895,
            "velocity": 0.3937007874015748
          },
          {
            "duration": 0.10489499999999996,
            "durationTicks": 96,
            "midi": 42,
            "name": "F#2",
            "ticks": 960,
            "time": 1.04895,
            "velocity": 0.3937007874015748
          },
          {
            "duration": 0.10489499999999996,
            "durationTicks": 96,
            "midi": 40,
            "name": "E2",
            "ticks": 960,
            "time": 1.04895,
            "velocity": 0.3937007874015748
          },
          {
            "duration": 0.10489499999999996,
            "durationTicks": 96,
            "midi": 38,
            "name": "D2",
            "ticks": 1056,
            "time": 1.153845,
            "velocity": 0.3937007874015748
          },
          {
            "duration": 0.10489499999999996,
            "durationTicks": 96,
            "midi": 36,
            "name": "C2",
            "ticks": 1056,
            "time": 1.153845,
            "velocity": 0.3937007874015748
          },
          {
            "duration": 0.10489499999999996,
            "durationTicks": 96,
            "midi": 40,
            "name": "E2",
            "ticks": 1056,
            "time": 1.153845,
            "velocity": 0.3937007874015748
          },
          {
            "duration": 0.10489499999999996,
            "durationTicks": 96,
            "midi": 33,
            "name": "A1",
            "ticks": 1152,
            "time": 1.25874,
            "velocity": 0.3937007874015748
          },
          {
            "duration": 0.10489499999999996,
            "durationTicks": 96,
            "midi": 36,
            "name": "C2",
            "ticks": 1152,
            "time": 1.25874,
            "velocity": 0.3937007874015748
          },
          {
            "duration": 0.10489499999999996,
            "durationTicks": 96,
            "midi": 38,
            "name": "D2",
            "ticks": 1152,
            "time": 1.25874,
            "velocity": 0.3937007874015748
          },
          {
            "duration": 0.10489500000000018,
            "durationTicks": 96,
            "midi": 36,
            "name": "C2",
            "ticks": 1248,
            "time": 1.363635,
            "velocity": 0.3937007874015748
          },
          {
            "duration": 0.10489500000000018,
            "durationTicks": 96,
            "midi": 33,
            "name": "A1",
            "ticks": 1248,
            "time": 1.363635,
            "velocity": 0.3937007874015748
          },
          {
            "duration": 0.10489500000000018,
            "durationTicks": 96,
            "midi": 36,
            "name": "C2",
            "ticks": 1248,
            "time": 1.363635,
            "velocity": 0.3937007874015748
          },
          {
            "duration": 0.10489499999999996,
            "durationTicks": 96,
            "midi": 36,
            "name": "C2",
            "ticks": 1344,
            "time": 1.4685300000000001,
            "velocity": 0.3937007874015748
          },
          {
            "duration": 0.10489499999999996,
            "durationTicks": 96,
            "midi": 31,
            "name": "G1",
            "ticks": 1344,
            "time": 1.4685300000000001,
            "velocity": 0.3937007874015748
          },
          {
            "duration": 0.10489499999999996,
            "durationTicks": 96,
            "midi": 33,
            "name": "A1",
            "ticks": 1344,
            "time": 1.4685300000000001,
            "velocity": 0.3937007874015748
          },
          {
            "duration": 0.10489499999999996,
            "durationTicks": 96,
            "midi": 36,
            "name": "C2",
            "ticks": 1440,
            "time": 1.573425,
            "velocity": 0.3937007874015748
          },
          {
            "duration": 0.10489499999999996,
            "durationTicks": 96,
            "midi": 29,
            "name": "F1",
            "ticks": 1440,
            "time": 1.573425,
            "velocity": 0.3937007874015748
          },
          {
            "duration": 0.10489499999999996,
            "durationTicks": 96,
            "midi": 31,
            "name": "G1",
            "ticks": 1440,
            "time": 1.573425,
            "velocity": 0.3937007874015748
          },
          {
            "duration": 0.10489499999999996,
            "durationTicks": 96,
            "midi": 31,
            "name": "G1",
            "ticks": 1536,
            "time": 1.67832,
            "velocity": 0.3937007874015748
          },
          {
            "duration": 0.10489499999999996,
            "durationTicks": 96,
            "midi": 29,
            "name": "F1",
            "ticks": 1536,
            "time": 1.67832,
            "velocity": 0.3937007874015748
          },
          {
            "duration": 0.10489499999999996,
            "durationTicks": 96,
            "midi": 26,
            "name": "D1",
            "ticks": 1536,
            "time": 1.67832,
            "velocity": 0.3937007874015748
          },
          {
            "duration": 0.10489499999999996,
            "durationTicks": 96,
            "midi": 26,
            "name": "D1",
            "ticks": 1632,
            "time": 1.783215,
            "velocity": 0.3937007874015748
          },
          {
            "duration": 0.10489499999999996,
            "durationTicks": 96,
            "midi": 29,
            "name": "F1",
            "ticks": 1632,
            "time": 1.783215,
            "velocity": 0.3937007874015748
          },
          {
            "duration": 0.10489499999999996,
            "durationTicks": 96,
            "midi": 33,
            "name": "A1",
            "ticks": 1632,
            "time": 1.783215,
            "velocity": 0.3937007874015748
          },
          {
            "duration": 0.10489500000000018,
            "durationTicks": 96,
            "midi": 26,
            "name": "D1",
            "ticks": 1728,
            "time": 1.88811,
            "velocity": 0.3937007874015748
          },
          {
            "duration": 0.10489500000000018,
            "durationTicks": 96,
            "midi": 33,
            "name": "A1",
            "ticks": 1728,
            "time": 1.88811,
            "velocity": 0.3937007874015748
          },
          {
            "duration": 0.10489500000000018,
            "durationTicks": 96,
            "midi": 32,
            "name": "G#1",
            "ticks": 1728,
            "time": 1.88811,
            "velocity": 0.3937007874015748
          },
          {
            "duration": 0.10489499999999996,
            "durationTicks": 96,
            "midi": 31,
            "name": "G1",
            "ticks": 1824,
            "time": 1.9930050000000001,
            "velocity": 0.3937007874015748
          },
          {
            "duration": 0.10489499999999996,
            "durationTicks": 96,
            "midi": 32,
            "name": "G#1",
            "ticks": 1824,
            "time": 1.9930050000000001,
            "velocity": 0.3937007874015748
          },
          {
            "duration": 0.10489499999999996,
            "durationTicks": 96,
            "midi": 33,
            "name": "A1",
            "ticks": 1824,
            "time": 1.9930050000000001,
            "velocity": 0.3937007874015748
          },
          {
            "duration": 0.10489499999999996,
            "durationTicks": 96,
            "midi": 31,
            "name": "G1",
            "ticks": 1920,
            "time": 2.0979,
            "velocity": 0.3937007874015748
          },
          {
            "duration": 0.10489499999999996,
            "durationTicks": 96,
            "midi": 38,
            "name": "D2",
            "ticks": 1920,
            "time": 2.0979,
            "velocity": 0.3937007874015748
          },
          {
            "duration": 0.10489499999999996,
            "durationTicks": 96,
            "midi": 32,
            "name": "G#1",
            "ticks": 1920,
            "time": 2.0979,
            "velocity": 0.3937007874015748
          },
          {
            "duration": 0.10489499999999996,
            "durationTicks": 96,
            "midi": 38,
            "name": "D2",
            "ticks": 2016,
            "time": 2.202795,
            "velocity": 0.3937007874015748
          },
          {
            "duration": 0.10489499999999996,
            "durationTicks": 96,
            "midi": 37,
            "name": "C#2",
            "ticks": 2016,
            "time": 2.202795,
            "velocity": 0.3937007874015748
          },
          {
            "duration": 0.10489499999999996,
            "durationTicks": 96,
            "midi": 31,
            "name": "G1",
            "ticks": 2016,
            "time": 2.202795,
            "velocity": 0.3937007874015748
          },
          {
            "duration": 0.10489499999999996,
            "durationTicks": 96,
            "midi": 38,
            "name": "D2",
            "ticks": 2112,
            "time": 2.30769,
            "velocity": 0.3937007874015748
          },
          {
            "duration": 0.10489499999999996,
            "durationTicks": 96,
            "midi": 36,
            "name": "C2",
            "ticks": 2112,
            "time": 2.30769,
            "velocity": 0.3937007874015748
          },
          {
            "duration": 0.10489499999999996,
            "durationTicks": 96,
            "midi": 37,
            "name": "C#2",
            "ticks": 2112,
            "time": 2.30769,
            "velocity": 0.3937007874015748
          },
          {
            "duration": 0.10489499999999996,
            "durationTicks": 96,
            "midi": 36,
            "name": "C2",
            "ticks": 2208,
            "time": 2.412585,
            "velocity": 0.3937007874015748
          },
          {
            "duration": 0.10489499999999996,
            "durationTicks": 96,
            "midi": 43,
            "name": "G2",
            "ticks": 2208,
            "time": 2.412585,
            "velocity": 0.3937007874015748
          },
          {
            "duration": 0.10489499999999996,
            "durationTicks": 96,
            "midi": 37,
            "name": "C#2",
            "ticks": 2208,
            "time": 2.412585,
            "velocity": 0.3937007874015748
          },
          {
            "duration": 0.10489499999999996,
            "durationTicks": 96,
            "midi": 43,
            "name": "G2",
            "ticks": 2304,
            "time": 2.51748,
            "velocity": 0.3937007874015748
          },
          {
            "duration": 0.10489499999999996,
            "durationTicks": 96,
            "midi": 36,
            "name": "C2",
            "ticks": 2304,
            "time": 2.51748,
            "velocity": 0.3937007874015748
          },
          {
            "duration": 0.10489499999999996,
            "durationTicks": 96,
            "midi": 42,
            "name": "F#2",
            "ticks": 2304,
            "time": 2.51748,
            "velocity": 0.3937007874015748
          },
          {
            "duration": 0.10489499999999996,
            "durationTicks": 96,
            "midi": 43,
            "name": "G2",
            "ticks": 2400,
            "time": 2.622375,
            "velocity": 0.3937007874015748
          },
          {
            "duration": 0.10489499999999996,
            "durationTicks": 96,
            "midi": 42,
            "name": "F#2",
            "ticks": 2400,
            "time": 2.622375,
            "velocity": 0.3937007874015748
          },
          {
            "duration": 0.10489499999999996,
            "durationTicks": 96,
            "midi": 40,
            "name": "E2",
            "ticks": 2400,
            "time": 2.622375,
            "velocity": 0.3937007874015748
          },
          {
            "duration": 0.1048950000000004,
            "durationTicks": 96,
            "midi": 38,
            "name": "D2",
            "ticks": 2496,
            "time": 2.72727,
            "velocity": 0.3937007874015748
          },
          {
            "duration": 0.1048950000000004,
            "durationTicks": 96,
            "midi": 40,
            "name": "E2",
            "ticks": 2496,
            "time": 2.72727,
            "velocity": 0.3937007874015748
          },
          {
            "duration": 0.1048950000000004,
            "durationTicks": 96,
            "midi": 42,
            "name": "F#2",
            "ticks": 2496,
            "time": 2.72727,
            "velocity": 0.3937007874015748
          },
          {
            "duration": 0.10489499999999996,
            "durationTicks": 96,
            "midi": 40,
            "name": "E2",
            "ticks": 2592,
            "time": 2.8321650000000003,
            "velocity": 0.3937007874015748
          },
          {
            "duration": 0.10489499999999996,
            "durationTicks": 96,
            "midi": 36,
            "name": "C2",
            "ticks": 2592,
            "time": 2.8321650000000003,
            "velocity": 0.3937007874015748
          },
          {
            "duration": 0.10489499999999996,
            "durationTicks": 96,
            "midi": 38,
            "name": "D2",
            "ticks": 2592,
            "time": 2.8321650000000003,
            "velocity": 0.3937007874015748
          },
          {
            "duration": 0.10489499999999996,
            "durationTicks": 96,
            "midi": 33,
            "name": "A1",
            "ticks": 2688,
            "time": 2.9370600000000002,
            "velocity": 0.3937007874015748
          },
          {
            "duration": 0.10489499999999996,
            "durationTicks": 96,
            "midi": 36,
            "name": "C2",
            "ticks": 2688,
            "time": 2.9370600000000002,
            "velocity": 0.3937007874015748
          },
          {
            "duration": 0.10489499999999996,
            "durationTicks": 96,
            "midi": 38,
            "name": "D2",
            "ticks": 2688,
            "time": 2.9370600000000002,
            "velocity": 0.3937007874015748
          },
          {
            "duration": 0.10489499999999996,
            "durationTicks": 96,
            "midi": 36,
            "name": "C2",
            "ticks": 2784,
            "time": 3.041955,
            "velocity": 0.3937007874015748
          },
          {
            "duration": 0.10489499999999996,
            "durationTicks": 96,
            "midi": 33,
            "name": "A1",
            "ticks": 2784,
            "time": 3.041955,
            "velocity": 0.3937007874015748
          },
          {
            "duration": 0.10489499999999996,
            "durationTicks": 96,
            "midi": 36,
            "name": "C2",
            "ticks": 2784,
            "time": 3.041955,
            "velocity": 0.3937007874015748
          },
          {
            "duration": 0.10489499999999996,
            "durationTicks": 96,
            "midi": 33,
            "name": "A1",
            "ticks": 2880,
            "time": 3.14685,
            "velocity": 0.3937007874015748
          },
          {
            "duration": 0.10489499999999996,
            "durationTicks": 96,
            "midi": 36,
            "name": "C2",
            "ticks": 2880,
            "time": 3.14685,
            "velocity": 0.3937007874015748
          },
          {
            "duration": 0.10489499999999996,
            "durationTicks": 96,
            "midi": 31,
            "name": "G1",
            "ticks": 2880,
            "time": 3.14685,
            "velocity": 0.3937007874015748
          },
          {
            "duration": 0.10489499999999996,
            "durationTicks": 96,
            "midi": 29,
            "name": "F1",
            "ticks": 2976,
            "time": 3.251745,
            "velocity": 0.3937007874015748
          },
          {
            "duration": 0.10489499999999996,
            "durationTicks": 96,
            "midi": 36,
            "name": "C2",
            "ticks": 2976,
            "time": 3.251745,
            "velocity": 0.3937007874015748
          },
          {
            "duration": 0.10489499999999996,
            "durationTicks": 96,
            "midi": 31,
            "name": "G1",
            "ticks": 2976,
            "time": 3.251745,
            "velocity": 0.3937007874015748
          },
          {
            "duration": 0.10489499999999996,
            "durationTicks": 96,
            "midi": 26,
            "name": "D1",
            "ticks": 3072,
            "time": 3.35664,
            "velocity": 0.3937007874015748
          },
          {
            "duration": 0.10489499999999996,
            "durationTicks": 96,
            "midi": 29,
            "name": "F1",
            "ticks": 3072,
            "time": 3.35664,
            "velocity": 0.3937007874015748
          },
          {
            "duration": 0.10489499999999996,
            "durationTicks": 96,
            "midi": 31,
            "name": "G1",
            "ticks": 3072,
            "time": 3.35664,
            "velocity": 0.3937007874015748
          },
          {
            "duration": 0.10489499999999996,
            "durationTicks": 96,
            "midi": 29,
            "name": "F1",
            "ticks": 3168,
            "time": 3.461535,
            "velocity": 0.3937007874015748
          },
          {
            "duration": 0.10489499999999996,
            "durationTicks": 96,
            "midi": 33,
            "name": "A1",
            "ticks": 3168,
            "time": 3.461535,
            "velocity": 0.3937007874015748
          },
          {
            "duration": 0.10489499999999996,
            "durationTicks": 96,
            "midi": 26,
            "name": "D1",
            "ticks": 3168,
            "time": 3.461535,
            "velocity": 0.3937007874015748
          },
          {
            "duration": 0.10489499999999996,
            "durationTicks": 96,
            "midi": 26,
            "name": "D1",
            "ticks": 3264,
            "time": 3.56643,
            "velocity": 0.3937007874015748
          },
          {
            "duration": 0.10489499999999996,
            "durationTicks": 96,
            "midi": 32,
            "name": "G#1",
            "ticks": 3264,
            "time": 3.56643,
            "velocity": 0.3937007874015748
          },
          {
            "duration": 0.10489499999999996,
            "durationTicks": 96,
            "midi": 33,
            "name": "A1",
            "ticks": 3264,
            "time": 3.56643,
            "velocity": 0.3937007874015748
          },
          {
            "duration": 0.10489499999999996,
            "durationTicks": 96,
            "midi": 33,
            "name": "A1",
            "ticks": 3360,
            "time": 3.671325,
            "velocity": 0.3937007874015748
          },
          {
            "duration": 0.10489499999999996,
            "durationTicks": 96,
            "midi": 32,
            "name": "G#1",
            "ticks": 3360,
            "time": 3.671325,
            "velocity": 0.3937007874015748
          },
          {
            "duration": 0.10489499999999996,
            "durationTicks": 96,
            "midi": 31,
            "name": "G1",
            "ticks": 3360,
            "time": 3.671325,
            "velocity": 0.3937007874015748
          },
          {
            "duration": 0.10489499999999996,
            "durationTicks": 96,
            "midi": 32,
            "name": "G#1",
            "ticks": 3456,
            "time": 3.77622,
            "velocity": 0.3937007874015748
          },
          {
            "duration": 0.10489499999999996,
            "durationTicks": 96,
            "midi": 31,
            "name": "G1",
            "ticks": 3456,
            "time": 3.77622,
            "velocity": 0.3937007874015748
          },
          {
            "duration": 0.10489499999999996,
            "durationTicks": 96,
            "midi": 38,
            "name": "D2",
            "ticks": 3456,
            "time": 3.77622,
            "velocity": 0.3937007874015748
          },
          {
            "duration": 0.1048950000000004,
            "durationTicks": 96,
            "midi": 37,
            "name": "C#2",
            "ticks": 3552,
            "time": 3.881115,
            "velocity": 0.3937007874015748
          },
          {
            "duration": 0.1048950000000004,
            "durationTicks": 96,
            "midi": 31,
            "name": "G1",
            "ticks": 3552,
            "time": 3.881115,
            "velocity": 0.3937007874015748
          },
          {
            "duration": 0.1048950000000004,
            "durationTicks": 96,
            "midi": 38,
            "name": "D2",
            "ticks": 3552,
            "time": 3.881115,
            "velocity": 0.3937007874015748
          },
          {
            "duration": 0.10489499999999996,
            "durationTicks": 96,
            "midi": 36,
            "name": "C2",
            "ticks": 3648,
            "time": 3.9860100000000003,
            "velocity": 0.3937007874015748
          },
          {
            "duration": 0.10489499999999996,
            "durationTicks": 96,
            "midi": 37,
            "name": "C#2",
            "ticks": 3648,
            "time": 3.9860100000000003,
            "velocity": 0.3937007874015748
          },
          {
            "duration": 0.10489499999999996,
            "durationTicks": 96,
            "midi": 38,
            "name": "D2",
            "ticks": 3648,
            "time": 3.9860100000000003,
            "velocity": 0.3937007874015748
          },
          {
            "duration": 0.10489499999999996,
            "durationTicks": 96,
            "midi": 43,
            "name": "G2",
            "ticks": 3744,
            "time": 4.090905,
            "velocity": 0.3937007874015748
          },
          {
            "duration": 0.10489499999999996,
            "durationTicks": 96,
            "midi": 36,
            "name": "C2",
            "ticks": 3744,
            "time": 4.090905,
            "velocity": 0.3937007874015748
          },
          {
            "duration": 0.10489499999999996,
            "durationTicks": 96,
            "midi": 37,
            "name": "C#2",
            "ticks": 3744,
            "time": 4.090905,
            "velocity": 0.3937007874015748
          },
          {
            "duration": 0.10489499999999996,
            "durationTicks": 96,
            "midi": 42,
            "name": "F#2",
            "ticks": 3840,
            "time": 4.1958,
            "velocity": 0.3937007874015748
          },
          {
            "duration": 0.10489499999999996,
            "durationTicks": 96,
            "midi": 36,
            "name": "C2",
            "ticks": 3840,
            "time": 4.1958,
            "velocity": 0.3937007874015748
          },
          {
            "duration": 0.10489499999999996,
            "durationTicks": 96,
            "midi": 43,
            "name": "G2",
            "ticks": 3840,
            "time": 4.1958,
            "velocity": 0.3937007874015748
          },
          {
            "duration": 0.10489499999999996,
            "durationTicks": 96,
            "midi": 43,
            "name": "G2",
            "ticks": 3936,
            "time": 4.300695,
            "velocity": 0.3937007874015748
          },
          {
            "duration": 0.10489499999999996,
            "durationTicks": 96,
            "midi": 42,
            "name": "F#2",
            "ticks": 3936,
            "time": 4.300695,
            "velocity": 0.3937007874015748
          },
          {
            "duration": 0.10489499999999996,
            "durationTicks": 96,
            "midi": 40,
            "name": "E2",
            "ticks": 3936,
            "time": 4.300695,
            "velocity": 0.3937007874015748
          },
          {
            "duration": 0.10489499999999996,
            "durationTicks": 96,
            "midi": 40,
            "name": "E2",
            "ticks": 4032,
            "time": 4.40559,
            "velocity": 0.3937007874015748
          },
          {
            "duration": 0.10489499999999996,
            "durationTicks": 96,
            "midi": 38,
            "name": "D2",
            "ticks": 4032,
            "time": 4.40559,
            "velocity": 0.3937007874015748
          },
          {
            "duration": 0.10489499999999996,
            "durationTicks": 96,
            "midi": 42,
            "name": "F#2",
            "ticks": 4032,
            "time": 4.40559,
            "velocity": 0.3937007874015748
          },
          {
            "duration": 0.10489499999999996,
            "durationTicks": 96,
            "midi": 38,
            "name": "D2",
            "ticks": 4128,
            "time": 4.510485,
            "velocity": 0.3937007874015748
          },
          {
            "duration": 0.10489499999999996,
            "durationTicks": 96,
            "midi": 40,
            "name": "E2",
            "ticks": 4128,
            "time": 4.510485,
            "velocity": 0.3937007874015748
          },
          {
            "duration": 0.10489499999999996,
            "durationTicks": 96,
            "midi": 36,
            "name": "C2",
            "ticks": 4128,
            "time": 4.510485,
            "velocity": 0.3937007874015748
          },
          {
            "duration": 0.10489499999999996,
            "durationTicks": 96,
            "midi": 36,
            "name": "C2",
            "ticks": 4224,
            "time": 4.61538,
            "velocity": 0.3937007874015748
          },
          {
            "duration": 0.10489499999999996,
            "durationTicks": 96,
            "midi": 33,
            "name": "A1",
            "ticks": 4224,
            "time": 4.61538,
            "velocity": 0.3937007874015748
          },
          {
            "duration": 0.10489499999999996,
            "durationTicks": 96,
            "midi": 38,
            "name": "D2",
            "ticks": 4224,
            "time": 4.61538,
            "velocity": 0.3937007874015748
          },
          {
            "duration": 0.10489499999999996,
            "durationTicks": 96,
            "midi": 33,
            "name": "A1",
            "ticks": 4320,
            "time": 4.720275,
            "velocity": 0.3937007874015748
          },
          {
            "duration": 0.10489499999999996,
            "durationTicks": 96,
            "midi": 36,
            "name": "C2",
            "ticks": 4320,
            "time": 4.720275,
            "velocity": 0.3937007874015748
          },
          {
            "duration": 0.10489499999999996,
            "durationTicks": 96,
            "midi": 36,
            "name": "C2",
            "ticks": 4320,
            "time": 4.720275,
            "velocity": 0.3937007874015748
          },
          {
            "duration": 0.10489499999999996,
            "durationTicks": 96,
            "midi": 33,
            "name": "A1",
            "ticks": 4416,
            "time": 4.82517,
            "velocity": 0.3937007874015748
          },
          {
            "duration": 0.10489499999999996,
            "durationTicks": 96,
            "midi": 31,
            "name": "G1",
            "ticks": 4416,
            "time": 4.82517,
            "velocity": 0.3937007874015748
          },
          {
            "duration": 0.10489499999999996,
            "durationTicks": 96,
            "midi": 36,
            "name": "C2",
            "ticks": 4416,
            "time": 4.82517,
            "velocity": 0.3937007874015748
          },
          {
            "duration": 0.10489499999999996,
            "durationTicks": 96,
            "midi": 29,
            "name": "F1",
            "ticks": 4512,
            "time": 4.930065,
            "velocity": 0.3937007874015748
          },
          {
            "duration": 0.10489499999999996,
            "durationTicks": 96,
            "midi": 36,
            "name": "C2",
            "ticks": 4512,
            "time": 4.930065,
            "velocity": 0.3937007874015748
          },
          {
            "duration": 0.10489499999999996,
            "durationTicks": 96,
            "midi": 31,
            "name": "G1",
            "ticks": 4512,
            "time": 4.930065,
            "velocity": 0.3937007874015748
          },
          {
            "duration": 0.10489499999999996,
            "durationTicks": 96,
            "midi": 29,
            "name": "F1",
            "ticks": 4608,
            "time": 5.03496,
            "velocity": 0.3937007874015748
          },
          {
            "duration": 0.10489499999999996,
            "durationTicks": 96,
            "midi": 26,
            "name": "D1",
            "ticks": 4608,
            "time": 5.03496,
            "velocity": 0.3937007874015748
          },
          {
            "duration": 0.10489499999999996,
            "durationTicks": 96,
            "midi": 31,
            "name": "G1",
            "ticks": 4608,
            "time": 5.03496,
            "velocity": 0.3937007874015748
          },
          {
            "duration": 0.10489499999999996,
            "durationTicks": 96,
            "midi": 29,
            "name": "F1",
            "ticks": 4704,
            "time": 5.139855,
            "velocity": 0.3937007874015748
          },
          {
            "duration": 0.10489499999999996,
            "durationTicks": 96,
            "midi": 33,
            "name": "A1",
            "ticks": 4704,
            "time": 5.139855,
            "velocity": 0.3937007874015748
          },
          {
            "duration": 0.10489499999999996,
            "durationTicks": 96,
            "midi": 26,
            "name": "D1",
            "ticks": 4704,
            "time": 5.139855,
            "velocity": 0.3937007874015748
          },
          {
            "duration": 0.10489499999999996,
            "durationTicks": 96,
            "midi": 32,
            "name": "G#1",
            "ticks": 4800,
            "time": 5.24475,
            "velocity": 0.3937007874015748
          },
          {
            "duration": 0.10489499999999996,
            "durationTicks": 96,
            "midi": 33,
            "name": "A1",
            "ticks": 4800,
            "time": 5.24475,
            "velocity": 0.3937007874015748
          },
          {
            "duration": 0.10489499999999996,
            "durationTicks": 96,
            "midi": 26,
            "name": "D1",
            "ticks": 4800,
            "time": 5.24475,
            "velocity": 0.3937007874015748
          },
          {
            "duration": 0.10489499999999996,
            "durationTicks": 96,
            "midi": 31,
            "name": "G1",
            "ticks": 4896,
            "time": 5.349645,
            "velocity": 0.3937007874015748
          },
          {
            "duration": 0.10489499999999996,
            "durationTicks": 96,
            "midi": 32,
            "name": "G#1",
            "ticks": 4896,
            "time": 5.349645,
            "velocity": 0.3937007874015748
          },
          {
            "duration": 0.10489499999999996,
            "durationTicks": 96,
            "midi": 33,
            "name": "A1",
            "ticks": 4896,
            "time": 5.349645,
            "velocity": 0.3937007874015748
          },
          {
            "duration": 0.10489499999999996,
            "durationTicks": 96,
            "midi": 31,
            "name": "G1",
            "ticks": 4992,
            "time": 5.45454,
            "velocity": 0.3937007874015748
          },
          {
            "duration": 0.10489499999999996,
            "durationTicks": 96,
            "midi": 32,
            "name": "G#1",
            "ticks": 4992,
            "time": 5.45454,
            "velocity": 0.3937007874015748
          },
          {
            "duration": 0.10489499999999996,
            "durationTicks": 96,
            "midi": 38,
            "name": "D2",
            "ticks": 4992,
            "time": 5.45454,
            "velocity": 0.3937007874015748
          },
          {
            "duration": 0.10489500000000085,
            "durationTicks": 96,
            "midi": 38,
            "name": "D2",
            "ticks": 5088,
            "time": 5.559435,
            "velocity": 0.3937007874015748
          },
          {
            "duration": 0.10489500000000085,
            "durationTicks": 96,
            "midi": 31,
            "name": "G1",
            "ticks": 5088,
            "time": 5.559435,
            "velocity": 0.3937007874015748
          },
          {
            "duration": 0.10489500000000085,
            "durationTicks": 96,
            "midi": 37,
            "name": "C#2",
            "ticks": 5088,
            "time": 5.559435,
            "velocity": 0.3937007874015748
          },
          {
            "duration": 0.10489499999999996,
            "durationTicks": 96,
            "midi": 37,
            "name": "C#2",
            "ticks": 5184,
            "time": 5.6643300000000005,
            "velocity": 0.3937007874015748
          },
          {
            "duration": 0.10489499999999996,
            "durationTicks": 96,
            "midi": 38,
            "name": "D2",
            "ticks": 5184,
            "time": 5.6643300000000005,
            "velocity": 0.3937007874015748
          },
          {
            "duration": 0.10489499999999996,
            "durationTicks": 96,
            "midi": 36,
            "name": "C2",
            "ticks": 5184,
            "time": 5.6643300000000005,
            "velocity": 0.3937007874015748
          },
          {
            "duration": 0.10489499999999996,
            "durationTicks": 96,
            "midi": 37,
            "name": "C#2",
            "ticks": 5280,
            "time": 5.7692250000000005,
            "velocity": 0.3937007874015748
          },
          {
            "duration": 0.10489499999999996,
            "durationTicks": 96,
            "midi": 36,
            "name": "C2",
            "ticks": 5280,
            "time": 5.7692250000000005,
            "velocity": 0.3937007874015748
          },
          {
            "duration": 0.10489499999999996,
            "durationTicks": 96,
            "midi": 43,
            "name": "G2",
            "ticks": 5280,
            "time": 5.7692250000000005,
            "velocity": 0.3937007874015748
          },
          {
            "duration": 0.10489499999999996,
            "durationTicks": 96,
            "midi": 43,
            "name": "G2",
            "ticks": 5376,
            "time": 5.8741200000000005,
            "velocity": 0.3937007874015748
          },
          {
            "duration": 0.10489499999999996,
            "durationTicks": 96,
            "midi": 36,
            "name": "C2",
            "ticks": 5376,
            "time": 5.8741200000000005,
            "velocity": 0.3937007874015748
          },
          {
            "duration": 0.10489499999999996,
            "durationTicks": 96,
            "midi": 42,
            "name": "F#2",
            "ticks": 5376,
            "time": 5.8741200000000005,
            "velocity": 0.3937007874015748
          },
          {
            "duration": 0.10489499999999996,
            "durationTicks": 96,
            "midi": 43,
            "name": "G2",
            "ticks": 5472,
            "time": 5.979015,
            "velocity": 0.3937007874015748
          },
          {
            "duration": 0.10489499999999996,
            "durationTicks": 96,
            "midi": 40,
            "name": "E2",
            "ticks": 5472,
            "time": 5.979015,
            "velocity": 0.3937007874015748
          },
          {
            "duration": 0.10489499999999996,
            "durationTicks": 96,
            "midi": 42,
            "name": "F#2",
            "ticks": 5472,
            "time": 5.979015,
            "velocity": 0.3937007874015748
          },
          {
            "duration": 0.10489499999999996,
            "durationTicks": 96,
            "midi": 42,
            "name": "F#2",
            "ticks": 5568,
            "time": 6.08391,
            "velocity": 0.3937007874015748
          },
          {
            "duration": 0.10489499999999996,
            "durationTicks": 96,
            "midi": 38,
            "name": "D2",
            "ticks": 5568,
            "time": 6.08391,
            "velocity": 0.3937007874015748
          },
          {
            "duration": 0.10489499999999996,
            "durationTicks": 96,
            "midi": 40,
            "name": "E2",
            "ticks": 5568,
            "time": 6.08391,
            "velocity": 0.3937007874015748
          },
          {
            "duration": 0.10489499999999996,
            "durationTicks": 96,
            "midi": 36,
            "name": "C2",
            "ticks": 5664,
            "time": 6.188805,
            "velocity": 0.3937007874015748
          },
          {
            "duration": 0.10489499999999996,
            "durationTicks": 96,
            "midi": 40,
            "name": "E2",
            "ticks": 5664,
            "time": 6.188805,
            "velocity": 0.3937007874015748
          },
          {
            "duration": 0.10489499999999996,
            "durationTicks": 96,
            "midi": 38,
            "name": "D2",
            "ticks": 5664,
            "time": 6.188805,
            "velocity": 0.3937007874015748
          },
          {
            "duration": 0.10489499999999996,
            "durationTicks": 96,
            "midi": 33,
            "name": "A1",
            "ticks": 5760,
            "time": 6.2937,
            "velocity": 0.3937007874015748
          },
          {
            "duration": 0.10489499999999996,
            "durationTicks": 96,
            "midi": 36,
            "name": "C2",
            "ticks": 5760,
            "time": 6.2937,
            "velocity": 0.3937007874015748
          },
          {
            "duration": 0.10489499999999996,
            "durationTicks": 96,
            "midi": 38,
            "name": "D2",
            "ticks": 5760,
            "time": 6.2937,
            "velocity": 0.3937007874015748
          },
          {
            "duration": 0.10489499999999996,
            "durationTicks": 96,
            "midi": 36,
            "name": "C2",
            "ticks": 5856,
            "time": 6.398595,
            "velocity": 0.3937007874015748
          },
          {
            "duration": 0.10489499999999996,
            "durationTicks": 96,
            "midi": 33,
            "name": "A1",
            "ticks": 5856,
            "time": 6.398595,
            "velocity": 0.3937007874015748
          },
          {
            "duration": 0.10489499999999996,
            "durationTicks": 96,
            "midi": 36,
            "name": "C2",
            "ticks": 5856,
            "time": 6.398595,
            "velocity": 0.3937007874015748
          },
          {
            "duration": 0.10489499999999996,
            "durationTicks": 96,
            "midi": 36,
            "name": "C2",
            "ticks": 5952,
            "time": 6.50349,
            "velocity": 0.3937007874015748
          },
          {
            "duration": 0.10489499999999996,
            "durationTicks": 96,
            "midi": 31,
            "name": "G1",
            "ticks": 5952,
            "time": 6.50349,
            "velocity": 0.3937007874015748
          },
          {
            "duration": 0.10489499999999996,
            "durationTicks": 96,
            "midi": 33,
            "name": "A1",
            "ticks": 5952,
            "time": 6.50349,
            "velocity": 0.3937007874015748
          },
          {
            "duration": 0.10489499999999996,
            "durationTicks": 96,
            "midi": 29,
            "name": "F1",
            "ticks": 6048,
            "time": 6.608385,
            "velocity": 0.3937007874015748
          },
          {
            "duration": 0.10489499999999996,
            "durationTicks": 96,
            "midi": 36,
            "name": "C2",
            "ticks": 6048,
            "time": 6.608385,
            "velocity": 0.3937007874015748
          },
          {
            "duration": 0.10489499999999996,
            "durationTicks": 96,
            "midi": 31,
            "name": "G1",
            "ticks": 6048,
            "time": 6.608385,
            "velocity": 0.3937007874015748
          },
          {
            "duration": 0.10489499999999996,
            "durationTicks": 96,
            "midi": 29,
            "name": "F1",
            "ticks": 6144,
            "time": 6.71328,
            "velocity": 0.3937007874015748
          },
          {
            "duration": 0.10489499999999996,
            "durationTicks": 96,
            "midi": 31,
            "name": "G1",
            "ticks": 6144,
            "time": 6.71328,
            "velocity": 0.3937007874015748
          },
          {
            "duration": 0.10489499999999996,
            "durationTicks": 96,
            "midi": 26,
            "name": "D1",
            "ticks": 6144,
            "time": 6.71328,
            "velocity": 0.3937007874015748
          },
          {
            "duration": 0.10489499999999996,
            "durationTicks": 96,
            "midi": 26,
            "name": "D1",
            "ticks": 6240,
            "time": 6.818175,
            "velocity": 0.3937007874015748
          },
          {
            "duration": 0.10489499999999996,
            "durationTicks": 96,
            "midi": 33,
            "name": "A1",
            "ticks": 6240,
            "time": 6.818175,
            "velocity": 0.3937007874015748
          },
          {
            "duration": 0.10489499999999996,
            "durationTicks": 96,
            "midi": 29,
            "name": "F1",
            "ticks": 6240,
            "time": 6.818175,
            "velocity": 0.3937007874015748
          },
          {
            "duration": 0.10489499999999996,
            "durationTicks": 96,
            "midi": 33,
            "name": "A1",
            "ticks": 6336,
            "time": 6.92307,
            "velocity": 0.3937007874015748
          },
          {
            "duration": 0.10489499999999996,
            "durationTicks": 96,
            "midi": 26,
            "name": "D1",
            "ticks": 6336,
            "time": 6.92307,
            "velocity": 0.3937007874015748
          },
          {
            "duration": 0.10489499999999996,
            "durationTicks": 96,
            "midi": 32,
            "name": "G#1",
            "ticks": 6336,
            "time": 6.92307,
            "velocity": 0.3937007874015748
          },
          {
            "duration": 0.10489499999999996,
            "durationTicks": 96,
            "midi": 32,
            "name": "G#1",
            "ticks": 6432,
            "time": 7.027965,
            "velocity": 0.3937007874015748
          },
          {
            "duration": 0.10489499999999996,
            "durationTicks": 96,
            "midi": 33,
            "name": "A1",
            "ticks": 6432,
            "time": 7.027965,
            "velocity": 0.3937007874015748
          },
          {
            "duration": 0.10489499999999996,
            "durationTicks": 96,
            "midi": 31,
            "name": "G1",
            "ticks": 6432,
            "time": 7.027965,
            "velocity": 0.3937007874015748
          },
          {
            "duration": 0.10489499999999996,
            "durationTicks": 96,
            "midi": 31,
            "name": "G1",
            "ticks": 6528,
            "time": 7.13286,
            "velocity": 0.3937007874015748
          },
          {
            "duration": 0.10489499999999996,
            "durationTicks": 96,
            "midi": 32,
            "name": "G#1",
            "ticks": 6528,
            "time": 7.13286,
            "velocity": 0.3937007874015748
          },
          {
            "duration": 0.10489499999999996,
            "durationTicks": 96,
            "midi": 38,
            "name": "D2",
            "ticks": 6528,
            "time": 7.13286,
            "velocity": 0.3937007874015748
          },
          {
            "duration": 0.10489499999999996,
            "durationTicks": 96,
            "midi": 37,
            "name": "C#2",
            "ticks": 6624,
            "time": 7.237755,
            "velocity": 0.3937007874015748
          },
          {
            "duration": 0.10489499999999996,
            "durationTicks": 96,
            "midi": 38,
            "name": "D2",
            "ticks": 6624,
            "time": 7.237755,
            "velocity": 0.3937007874015748
          },
          {
            "duration": 0.10489499999999996,
            "durationTicks": 96,
            "midi": 31,
            "name": "G1",
            "ticks": 6624,
            "time": 7.237755,
            "velocity": 0.3937007874015748
          },
          {
            "duration": 0.10489499999999996,
            "durationTicks": 96,
            "midi": 36,
            "name": "C2",
            "ticks": 6720,
            "time": 7.34265,
            "velocity": 0.3937007874015748
          },
          {
            "duration": 0.10489499999999996,
            "durationTicks": 96,
            "midi": 37,
            "name": "C#2",
            "ticks": 6720,
            "time": 7.34265,
            "velocity": 0.3937007874015748
          },
          {
            "duration": 0.10489499999999996,
            "durationTicks": 96,
            "midi": 38,
            "name": "D2",
            "ticks": 6720,
            "time": 7.34265,
            "velocity": 0.3937007874015748
          },
          {
            "duration": 0.10489499999999996,
            "durationTicks": 96,
            "midi": 36,
            "name": "C2",
            "ticks": 6816,
            "time": 7.447545,
            "velocity": 0.3937007874015748
          },
          {
            "duration": 0.10489499999999996,
            "durationTicks": 96,
            "midi": 37,
            "name": "C#2",
            "ticks": 6816,
            "time": 7.447545,
            "velocity": 0.3937007874015748
          },
          {
            "duration": 0.10489499999999996,
            "durationTicks": 96,
            "midi": 43,
            "name": "G2",
            "ticks": 6816,
            "time": 7.447545,
            "velocity": 0.3937007874015748
          },
          {
            "duration": 0.10489499999999996,
            "durationTicks": 96,
            "midi": 43,
            "name": "G2",
            "ticks": 6912,
            "time": 7.55244,
            "velocity": 0.3937007874015748
          },
          {
            "duration": 0.10489499999999996,
            "durationTicks": 96,
            "midi": 42,
            "name": "F#2",
            "ticks": 6912,
            "time": 7.55244,
            "velocity": 0.3937007874015748
          },
          {
            "duration": 0.10489499999999996,
            "durationTicks": 96,
            "midi": 36,
            "name": "C2",
            "ticks": 6912,
            "time": 7.55244,
            "velocity": 0.3937007874015748
          },
          {
            "duration": 0.10489499999999996,
            "durationTicks": 96,
            "midi": 42,
            "name": "F#2",
            "ticks": 7008,
            "time": 7.657335,
            "velocity": 0.3937007874015748
          },
          {
            "duration": 0.10489499999999996,
            "durationTicks": 96,
            "midi": 43,
            "name": "G2",
            "ticks": 7008,
            "time": 7.657335,
            "velocity": 0.3937007874015748
          },
          {
            "duration": 0.10489499999999996,
            "durationTicks": 96,
            "midi": 40,
            "name": "E2",
            "ticks": 7008,
            "time": 7.657335,
            "velocity": 0.3937007874015748
          },
          {
            "duration": 0.10489500000000085,
            "durationTicks": 96,
            "midi": 42,
            "name": "F#2",
            "ticks": 7104,
            "time": 7.76223,
            "velocity": 0.3937007874015748
          },
          {
            "duration": 0.10489500000000085,
            "durationTicks": 96,
            "midi": 40,
            "name": "E2",
            "ticks": 7104,
            "time": 7.76223,
            "velocity": 0.3937007874015748
          },
          {
            "duration": 0.10489500000000085,
            "durationTicks": 96,
            "midi": 38,
            "name": "D2",
            "ticks": 7104,
            "time": 7.76223,
            "velocity": 0.3937007874015748
          },
          {
            "duration": 0.10489499999999996,
            "durationTicks": 96,
            "midi": 38,
            "name": "D2",
            "ticks": 7200,
            "time": 7.867125000000001,
            "velocity": 0.3937007874015748
          },
          {
            "duration": 0.10489499999999996,
            "durationTicks": 96,
            "midi": 40,
            "name": "E2",
            "ticks": 7200,
            "time": 7.867125000000001,
            "velocity": 0.3937007874015748
          },
          {
            "duration": 0.10489499999999996,
            "durationTicks": 96,
            "midi": 36,
            "name": "C2",
            "ticks": 7200,
            "time": 7.867125000000001,
            "velocity": 0.3937007874015748
          },
          {
            "duration": 0.10489499999999907,
            "durationTicks": 96,
            "midi": 36,
            "name": "C2",
            "ticks": 7296,
            "time": 7.9720200000000006,
            "velocity": 0.3937007874015748
          },
          {
            "duration": 0.10489499999999907,
            "durationTicks": 96,
            "midi": 33,
            "name": "A1",
            "ticks": 7296,
            "time": 7.9720200000000006,
            "velocity": 0.3937007874015748
          },
          {
            "duration": 0.10489499999999907,
            "durationTicks": 96,
            "midi": 38,
            "name": "D2",
            "ticks": 7296,
            "time": 7.9720200000000006,
            "velocity": 0.3937007874015748
          },
          {
            "duration": 0.10489500000000085,
            "durationTicks": 96,
            "midi": 36,
            "name": "C2",
            "ticks": 7392,
            "time": 8.076915,
            "velocity": 0.3937007874015748
          },
          {
            "duration": 0.10489500000000085,
            "durationTicks": 96,
            "midi": 36,
            "name": "C2",
            "ticks": 7392,
            "time": 8.076915,
            "velocity": 0.3937007874015748
          },
          {
            "duration": 0.10489500000000085,
            "durationTicks": 96,
            "midi": 33,
            "name": "A1",
            "ticks": 7392,
            "time": 8.076915,
            "velocity": 0.3937007874015748
          },
          {
            "duration": 0.10489499999999907,
            "durationTicks": 96,
            "midi": 33,
            "name": "A1",
            "ticks": 7488,
            "time": 8.18181,
            "velocity": 0.3937007874015748
          },
          {
            "duration": 0.10489499999999907,
            "durationTicks": 96,
            "midi": 36,
            "name": "C2",
            "ticks": 7488,
            "time": 8.18181,
            "velocity": 0.3937007874015748
          },
          {
            "duration": 0.10489499999999907,
            "durationTicks": 96,
            "midi": 31,
            "name": "G1",
            "ticks": 7488,
            "time": 8.18181,
            "velocity": 0.3937007874015748
          },
          {
            "duration": 0.10489500000000085,
            "durationTicks": 96,
            "midi": 29,
            "name": "F1",
            "ticks": 7584,
            "time": 8.286705,
            "velocity": 0.3937007874015748
          },
          {
            "duration": 0.10489500000000085,
            "durationTicks": 96,
            "midi": 36,
            "name": "C2",
            "ticks": 7584,
            "time": 8.286705,
            "velocity": 0.3937007874015748
          },
          {
            "duration": 0.10489500000000085,
            "durationTicks": 96,
            "midi": 31,
            "name": "G1",
            "ticks": 7584,
            "time": 8.286705,
            "velocity": 0.3937007874015748
          },
          {
            "duration": 0.10489499999999907,
            "durationTicks": 96,
            "midi": 29,
            "name": "F1",
            "ticks": 7680,
            "time": 8.3916,
            "velocity": 0.3937007874015748
          },
          {
            "duration": 0.10489499999999907,
            "durationTicks": 96,
            "midi": 26,
            "name": "D1",
            "ticks": 7680,
            "time": 8.3916,
            "velocity": 0.3937007874015748
          },
          {
            "duration": 0.10489499999999907,
            "durationTicks": 96,
            "midi": 31,
            "name": "G1",
            "ticks": 7680,
            "time": 8.3916,
            "velocity": 0.3937007874015748
          },
          {
            "duration": 0.10489500000000085,
            "durationTicks": 96,
            "midi": 26,
            "name": "D1",
            "ticks": 7776,
            "time": 8.496495,
            "velocity": 0.3937007874015748
          },
          {
            "duration": 0.10489500000000085,
            "durationTicks": 96,
            "midi": 33,
            "name": "A1",
            "ticks": 7776,
            "time": 8.496495,
            "velocity": 0.3937007874015748
          },
          {
            "duration": 0.10489500000000085,
            "durationTicks": 96,
            "midi": 29,
            "name": "F1",
            "ticks": 7776,
            "time": 8.496495,
            "velocity": 0.3937007874015748
          },
          {
            "duration": 0.10489499999999907,
            "durationTicks": 96,
            "midi": 33,
            "name": "A1",
            "ticks": 7872,
            "time": 8.60139,
            "velocity": 0.3937007874015748
          },
          {
            "duration": 0.10489499999999907,
            "durationTicks": 96,
            "midi": 26,
            "name": "D1",
            "ticks": 7872,
            "time": 8.60139,
            "velocity": 0.3937007874015748
          },
          {
            "duration": 0.10489499999999907,
            "durationTicks": 96,
            "midi": 32,
            "name": "G#1",
            "ticks": 7872,
            "time": 8.60139,
            "velocity": 0.3937007874015748
          },
          {
            "duration": 0.10489500000000085,
            "durationTicks": 96,
            "midi": 32,
            "name": "G#1",
            "ticks": 7968,
            "time": 8.706285,
            "velocity": 0.3937007874015748
          },
          {
            "duration": 0.10489500000000085,
            "durationTicks": 96,
            "midi": 31,
            "name": "G1",
            "ticks": 7968,
            "time": 8.706285,
            "velocity": 0.3937007874015748
          },
          {
            "duration": 0.10489500000000085,
            "durationTicks": 96,
            "midi": 33,
            "name": "A1",
            "ticks": 7968,
            "time": 8.706285,
            "velocity": 0.3937007874015748
          },
          {
            "duration": 0.10489499999999907,
            "durationTicks": 96,
            "midi": 31,
            "name": "G1",
            "ticks": 8064,
            "time": 8.81118,
            "velocity": 0.3937007874015748
          },
          {
            "duration": 0.10489499999999907,
            "durationTicks": 96,
            "midi": 32,
            "name": "G#1",
            "ticks": 8064,
            "time": 8.81118,
            "velocity": 0.3937007874015748
          },
          {
            "duration": 0.10489499999999907,
            "durationTicks": 96,
            "midi": 38,
            "name": "D2",
            "ticks": 8064,
            "time": 8.81118,
            "velocity": 0.3937007874015748
          },
          {
            "duration": 0.10489500000000085,
            "durationTicks": 96,
            "midi": 31,
            "name": "G1",
            "ticks": 8160,
            "time": 8.916075,
            "velocity": 0.3937007874015748
          },
          {
            "duration": 0.10489500000000085,
            "durationTicks": 96,
            "midi": 37,
            "name": "C#2",
            "ticks": 8160,
            "time": 8.916075,
            "velocity": 0.3937007874015748
          },
          {
            "duration": 0.10489500000000085,
            "durationTicks": 96,
            "midi": 38,
            "name": "D2",
            "ticks": 8160,
            "time": 8.916075,
            "velocity": 0.3937007874015748
          },
          {
            "duration": 0.10489500000000085,
            "durationTicks": 96,
            "midi": 38,
            "name": "D2",
            "ticks": 8256,
            "time": 9.02097,
            "velocity": 0.3937007874015748
          },
          {
            "duration": 0.10489500000000085,
            "durationTicks": 96,
            "midi": 36,
            "name": "C2",
            "ticks": 8256,
            "time": 9.02097,
            "velocity": 0.3937007874015748
          },
          {
            "duration": 0.10489500000000085,
            "durationTicks": 96,
            "midi": 37,
            "name": "C#2",
            "ticks": 8256,
            "time": 9.02097,
            "velocity": 0.3937007874015748
          },
          {
            "duration": 0.10489499999999907,
            "durationTicks": 96,
            "midi": 37,
            "name": "C#2",
            "ticks": 8352,
            "time": 9.125865000000001,
            "velocity": 0.3937007874015748
          },
          {
            "duration": 0.10489499999999907,
            "durationTicks": 96,
            "midi": 36,
            "name": "C2",
            "ticks": 8352,
            "time": 9.125865000000001,
            "velocity": 0.3937007874015748
          },
          {
            "duration": 0.10489499999999907,
            "durationTicks": 96,
            "midi": 43,
            "name": "G2",
            "ticks": 8352,
            "time": 9.125865000000001,
            "velocity": 0.3937007874015748
          },
          {
            "duration": 0.10489500000000085,
            "durationTicks": 96,
            "midi": 42,
            "name": "F#2",
            "ticks": 8448,
            "time": 9.23076,
            "velocity": 0.3937007874015748
          },
          {
            "duration": 0.10489500000000085,
            "durationTicks": 96,
            "midi": 43,
            "name": "G2",
            "ticks": 8448,
            "time": 9.23076,
            "velocity": 0.3937007874015748
          },
          {
            "duration": 0.10489500000000085,
            "durationTicks": 96,
            "midi": 36,
            "name": "C2",
            "ticks": 8448,
            "time": 9.23076,
            "velocity": 0.3937007874015748
          },
          {
            "duration": 0.10489499999999907,
            "durationTicks": 96,
            "midi": 43,
            "name": "G2",
            "ticks": 8544,
            "time": 9.335655000000001,
            "velocity": 0.3937007874015748
          },
          {
            "duration": 0.10489499999999907,
            "durationTicks": 96,
            "midi": 40,
            "name": "E2",
            "ticks": 8544,
            "time": 9.335655000000001,
            "velocity": 0.3937007874015748
          },
          {
            "duration": 0.10489499999999907,
            "durationTicks": 96,
            "midi": 42,
            "name": "F#2",
            "ticks": 8544,
            "time": 9.335655000000001,
            "velocity": 0.3937007874015748
          },
          {
            "duration": 0.10489500000000085,
            "durationTicks": 96,
            "midi": 40,
            "name": "E2",
            "ticks": 8640,
            "time": 9.44055,
            "velocity": 0.3937007874015748
          },
          {
            "duration": 0.10489500000000085,
            "durationTicks": 96,
            "midi": 38,
            "name": "D2",
            "ticks": 8640,
            "time": 9.44055,
            "velocity": 0.3937007874015748
          },
          {
            "duration": 0.10489500000000085,
            "durationTicks": 96,
            "midi": 42,
            "name": "F#2",
            "ticks": 8640,
            "time": 9.44055,
            "velocity": 0.3937007874015748
          },
          {
            "duration": 0.10489499999999907,
            "durationTicks": 96,
            "midi": 36,
            "name": "C2",
            "ticks": 8736,
            "time": 9.545445,
            "velocity": 0.3937007874015748
          },
          {
            "duration": 0.10489499999999907,
            "durationTicks": 96,
            "midi": 40,
            "name": "E2",
            "ticks": 8736,
            "time": 9.545445,
            "velocity": 0.3937007874015748
          },
          {
            "duration": 0.10489499999999907,
            "durationTicks": 96,
            "midi": 38,
            "name": "D2",
            "ticks": 8736,
            "time": 9.545445,
            "velocity": 0.3937007874015748
          },
          {
            "duration": 0.10489500000000085,
            "durationTicks": 96,
            "midi": 36,
            "name": "C2",
            "ticks": 8832,
            "time": 9.65034,
            "velocity": 0.3937007874015748
          },
          {
            "duration": 0.10489500000000085,
            "durationTicks": 96,
            "midi": 38,
            "name": "D2",
            "ticks": 8832,
            "time": 9.65034,
            "velocity": 0.3937007874015748
          },
          {
            "duration": 0.10489500000000085,
            "durationTicks": 96,
            "midi": 33,
            "name": "A1",
            "ticks": 8832,
            "time": 9.65034,
            "velocity": 0.3937007874015748
          },
          {
            "duration": 0.10489499999999907,
            "durationTicks": 96,
            "midi": 36,
            "name": "C2",
            "ticks": 8928,
            "time": 9.755235,
            "velocity": 0.3937007874015748
          },
          {
            "duration": 0.10489499999999907,
            "durationTicks": 96,
            "midi": 33,
            "name": "A1",
            "ticks": 8928,
            "time": 9.755235,
            "velocity": 0.3937007874015748
          },
          {
            "duration": 0.10489499999999907,
            "durationTicks": 96,
            "midi": 36,
            "name": "C2",
            "ticks": 8928,
            "time": 9.755235,
            "velocity": 0.3937007874015748
          },
          {
            "duration": 0.10489500000000085,
            "durationTicks": 96,
            "midi": 33,
            "name": "A1",
            "ticks": 9024,
            "time": 9.86013,
            "velocity": 0.3937007874015748
          },
          {
            "duration": 0.10489500000000085,
            "durationTicks": 96,
            "midi": 31,
            "name": "G1",
            "ticks": 9024,
            "time": 9.86013,
            "velocity": 0.3937007874015748
          },
          {
            "duration": 0.10489500000000085,
            "durationTicks": 96,
            "midi": 36,
            "name": "C2",
            "ticks": 9024,
            "time": 9.86013,
            "velocity": 0.3937007874015748
          },
          {
            "duration": 0.10489499999999907,
            "durationTicks": 96,
            "midi": 36,
            "name": "C2",
            "ticks": 9120,
            "time": 9.965025,
            "velocity": 0.3937007874015748
          },
          {
            "duration": 0.10489499999999907,
            "durationTicks": 96,
            "midi": 29,
            "name": "F1",
            "ticks": 9120,
            "time": 9.965025,
            "velocity": 0.3937007874015748
          },
          {
            "duration": 0.10489499999999907,
            "durationTicks": 96,
            "midi": 31,
            "name": "G1",
            "ticks": 9120,
            "time": 9.965025,
            "velocity": 0.3937007874015748
          },
          {
            "duration": 0.10489500000000085,
            "durationTicks": 96,
            "midi": 29,
            "name": "F1",
            "ticks": 9216,
            "time": 10.06992,
            "velocity": 0.3937007874015748
          },
          {
            "duration": 0.10489500000000085,
            "durationTicks": 96,
            "midi": 31,
            "name": "G1",
            "ticks": 9216,
            "time": 10.06992,
            "velocity": 0.3937007874015748
          },
          {
            "duration": 0.10489500000000085,
            "durationTicks": 96,
            "midi": 26,
            "name": "D1",
            "ticks": 9216,
            "time": 10.06992,
            "velocity": 0.3937007874015748
          },
          {
            "duration": 0.10489499999999907,
            "durationTicks": 96,
            "midi": 29,
            "name": "F1",
            "ticks": 9312,
            "time": 10.174815,
            "velocity": 0.3937007874015748
          },
          {
            "duration": 0.10489499999999907,
            "durationTicks": 96,
            "midi": 26,
            "name": "D1",
            "ticks": 9312,
            "time": 10.174815,
            "velocity": 0.3937007874015748
          },
          {
            "duration": 0.10489499999999907,
            "durationTicks": 96,
            "midi": 33,
            "name": "A1",
            "ticks": 9312,
            "time": 10.174815,
            "velocity": 0.3937007874015748
          },
          {
            "duration": 0.10489500000000085,
            "durationTicks": 96,
            "midi": 26,
            "name": "D1",
            "ticks": 9408,
            "time": 10.27971,
            "velocity": 0.3937007874015748
          },
          {
            "duration": 0.10489500000000085,
            "durationTicks": 96,
            "midi": 33,
            "name": "A1",
            "ticks": 9408,
            "time": 10.27971,
            "velocity": 0.3937007874015748
          },
          {
            "duration": 0.10489500000000085,
            "durationTicks": 96,
            "midi": 32,
            "name": "G#1",
            "ticks": 9408,
            "time": 10.27971,
            "velocity": 0.3937007874015748
          },
          {
            "duration": 0.10489499999999907,
            "durationTicks": 96,
            "midi": 31,
            "name": "G1",
            "ticks": 9504,
            "time": 10.384605,
            "velocity": 0.3937007874015748
          },
          {
            "duration": 0.10489499999999907,
            "durationTicks": 96,
            "midi": 33,
            "name": "A1",
            "ticks": 9504,
            "time": 10.384605,
            "velocity": 0.3937007874015748
          },
          {
            "duration": 0.10489499999999907,
            "durationTicks": 96,
            "midi": 32,
            "name": "G#1",
            "ticks": 9504,
            "time": 10.384605,
            "velocity": 0.3937007874015748
          },
          {
            "duration": 0.10489500000000085,
            "durationTicks": 96,
            "midi": 32,
            "name": "G#1",
            "ticks": 9600,
            "time": 10.4895,
            "velocity": 0.3937007874015748
          },
          {
            "duration": 0.10489500000000085,
            "durationTicks": 96,
            "midi": 31,
            "name": "G1",
            "ticks": 9600,
            "time": 10.4895,
            "velocity": 0.3937007874015748
          },
          {
            "duration": 0.10489500000000085,
            "durationTicks": 96,
            "midi": 38,
            "name": "D2",
            "ticks": 9600,
            "time": 10.4895,
            "velocity": 0.3937007874015748
          },
          {
            "duration": 0.10489499999999907,
            "durationTicks": 96,
            "midi": 31,
            "name": "G1",
            "ticks": 9696,
            "time": 10.594395,
            "velocity": 0.3937007874015748
          },
          {
            "duration": 0.10489499999999907,
            "durationTicks": 96,
            "midi": 38,
            "name": "D2",
            "ticks": 9696,
            "time": 10.594395,
            "velocity": 0.3937007874015748
          },
          {
            "duration": 0.10489499999999907,
            "durationTicks": 96,
            "midi": 37,
            "name": "C#2",
            "ticks": 9696,
            "time": 10.594395,
            "velocity": 0.3937007874015748
          },
          {
            "duration": 0.10489500000000085,
            "durationTicks": 96,
            "midi": 37,
            "name": "C#2",
            "ticks": 9792,
            "time": 10.69929,
            "velocity": 0.3937007874015748
          },
          {
            "duration": 0.10489500000000085,
            "durationTicks": 96,
            "midi": 38,
            "name": "D2",
            "ticks": 9792,
            "time": 10.69929,
            "velocity": 0.3937007874015748
          },
          {
            "duration": 0.10489500000000085,
            "durationTicks": 96,
            "midi": 36,
            "name": "C2",
            "ticks": 9792,
            "time": 10.69929,
            "velocity": 0.3937007874015748
          },
          {
            "duration": 0.10489499999999907,
            "durationTicks": 96,
            "midi": 43,
            "name": "G2",
            "ticks": 9888,
            "time": 10.804185,
            "velocity": 0.3937007874015748
          },
          {
            "duration": 0.10489499999999907,
            "durationTicks": 96,
            "midi": 37,
            "name": "C#2",
            "ticks": 9888,
            "time": 10.804185,
            "velocity": 0.3937007874015748
          },
          {
            "duration": 0.10489499999999907,
            "durationTicks": 96,
            "midi": 36,
            "name": "C2",
            "ticks": 9888,
            "time": 10.804185,
            "velocity": 0.3937007874015748
          },
          {
            "duration": 0.10489500000000085,
            "durationTicks": 96,
            "midi": 43,
            "name": "G2",
            "ticks": 9984,
            "time": 10.90908,
            "velocity": 0.3937007874015748
          },
          {
            "duration": 0.10489500000000085,
            "durationTicks": 96,
            "midi": 36,
            "name": "C2",
            "ticks": 9984,
            "time": 10.90908,
            "velocity": 0.3937007874015748
          },
          {
            "duration": 0.10489500000000085,
            "durationTicks": 96,
            "midi": 42,
            "name": "F#2",
            "ticks": 9984,
            "time": 10.90908,
            "velocity": 0.3937007874015748
          },
          {
            "duration": 0.10489499999999907,
            "durationTicks": 96,
            "midi": 43,
            "name": "G2",
            "ticks": 10080,
            "time": 11.013975,
            "velocity": 0.3937007874015748
          },
          {
            "duration": 0.10489499999999907,
            "durationTicks": 96,
            "midi": 42,
            "name": "F#2",
            "ticks": 10080,
            "time": 11.013975,
            "velocity": 0.3937007874015748
          },
          {
            "duration": 0.10489499999999907,
            "durationTicks": 96,
            "midi": 40,
            "name": "E2",
            "ticks": 10080,
            "time": 11.013975,
            "velocity": 0.3937007874015748
          },
          {
            "duration": 0.10489500000000085,
            "durationTicks": 96,
            "midi": 40,
            "name": "E2",
            "ticks": 10176,
            "time": 11.11887,
            "velocity": 0.3937007874015748
          },
          {
            "duration": 0.10489500000000085,
            "durationTicks": 96,
            "midi": 38,
            "name": "D2",
            "ticks": 10176,
            "time": 11.11887,
            "velocity": 0.3937007874015748
          },
          {
            "duration": 0.10489500000000085,
            "durationTicks": 96,
            "midi": 42,
            "name": "F#2",
            "ticks": 10176,
            "time": 11.11887,
            "velocity": 0.3937007874015748
          },
          {
            "duration": 0.10489500000000085,
            "durationTicks": 96,
            "midi": 36,
            "name": "C2",
            "ticks": 10272,
            "time": 11.223765,
            "velocity": 0.3937007874015748
          },
          {
            "duration": 0.10489500000000085,
            "durationTicks": 96,
            "midi": 40,
            "name": "E2",
            "ticks": 10272,
            "time": 11.223765,
            "velocity": 0.3937007874015748
          },
          {
            "duration": 0.10489500000000085,
            "durationTicks": 96,
            "midi": 38,
            "name": "D2",
            "ticks": 10272,
            "time": 11.223765,
            "velocity": 0.3937007874015748
          },
          {
            "duration": 0.10489499999999907,
            "durationTicks": 96,
            "midi": 33,
            "name": "A1",
            "ticks": 10368,
            "time": 11.328660000000001,
            "velocity": 0.3937007874015748
          },
          {
            "duration": 0.10489499999999907,
            "durationTicks": 96,
            "midi": 38,
            "name": "D2",
            "ticks": 10368,
            "time": 11.328660000000001,
            "velocity": 0.3937007874015748
          },
          {
            "duration": 0.10489499999999907,
            "durationTicks": 96,
            "midi": 36,
            "name": "C2",
            "ticks": 10368,
            "time": 11.328660000000001,
            "velocity": 0.3937007874015748
          },
          {
            "duration": 0.10489500000000085,
            "durationTicks": 96,
            "midi": 33,
            "name": "A1",
            "ticks": 10464,
            "time": 11.433555,
            "velocity": 0.3937007874015748
          },
          {
            "duration": 0.10489500000000085,
            "durationTicks": 96,
            "midi": 36,
            "name": "C2",
            "ticks": 10464,
            "time": 11.433555,
            "velocity": 0.3937007874015748
          },
          {
            "duration": 0.10489500000000085,
            "durationTicks": 96,
            "midi": 36,
            "name": "C2",
            "ticks": 10464,
            "time": 11.433555,
            "velocity": 0.3937007874015748
          },
          {
            "duration": 0.10489499999999907,
            "durationTicks": 96,
            "midi": 31,
            "name": "G1",
            "ticks": 10560,
            "time": 11.538450000000001,
            "velocity": 0.3937007874015748
          },
          {
            "duration": 0.10489499999999907,
            "durationTicks": 96,
            "midi": 33,
            "name": "A1",
            "ticks": 10560,
            "time": 11.538450000000001,
            "velocity": 0.3937007874015748
          },
          {
            "duration": 0.10489499999999907,
            "durationTicks": 96,
            "midi": 36,
            "name": "C2",
            "ticks": 10560,
            "time": 11.538450000000001,
            "velocity": 0.3937007874015748
          },
          {
            "duration": 0.10489500000000085,
            "durationTicks": 96,
            "midi": 31,
            "name": "G1",
            "ticks": 10656,
            "time": 11.643345,
            "velocity": 0.3937007874015748
          },
          {
            "duration": 0.10489500000000085,
            "durationTicks": 96,
            "midi": 36,
            "name": "C2",
            "ticks": 10656,
            "time": 11.643345,
            "velocity": 0.3937007874015748
          },
          {
            "duration": 0.10489500000000085,
            "durationTicks": 96,
            "midi": 29,
            "name": "F1",
            "ticks": 10656,
            "time": 11.643345,
            "velocity": 0.3937007874015748
          },
          {
            "duration": 0.10489499999999907,
            "durationTicks": 96,
            "midi": 31,
            "name": "G1",
            "ticks": 10752,
            "time": 11.748240000000001,
            "velocity": 0.3937007874015748
          },
          {
            "duration": 0.10489499999999907,
            "durationTicks": 96,
            "midi": 29,
            "name": "F1",
            "ticks": 10752,
            "time": 11.748240000000001,
            "velocity": 0.3937007874015748
          },
          {
            "duration": 0.10489499999999907,
            "durationTicks": 96,
            "midi": 26,
            "name": "D1",
            "ticks": 10752,
            "time": 11.748240000000001,
            "velocity": 0.3937007874015748
          },
          {
            "duration": 0.10489500000000085,
            "durationTicks": 96,
            "midi": 33,
            "name": "A1",
            "ticks": 10848,
            "time": 11.853135,
            "velocity": 0.3937007874015748
          },
          {
            "duration": 0.10489500000000085,
            "durationTicks": 96,
            "midi": 29,
            "name": "F1",
            "ticks": 10848,
            "time": 11.853135,
            "velocity": 0.3937007874015748
          },
          {
            "duration": 0.10489500000000085,
            "durationTicks": 96,
            "midi": 26,
            "name": "D1",
            "ticks": 10848,
            "time": 11.853135,
            "velocity": 0.3937007874015748
          },
          {
            "duration": 0.10489499999999907,
            "durationTicks": 96,
            "midi": 32,
            "name": "G#1",
            "ticks": 10944,
            "time": 11.95803,
            "velocity": 0.3937007874015748
          },
          {
            "duration": 0.10489499999999907,
            "durationTicks": 96,
            "midi": 26,
            "name": "D1",
            "ticks": 10944,
            "time": 11.95803,
            "velocity": 0.3937007874015748
          },
          {
            "duration": 0.10489499999999907,
            "durationTicks": 96,
            "midi": 33,
            "name": "A1",
            "ticks": 10944,
            "time": 11.95803,
            "velocity": 0.3937007874015748
          },
          {
            "duration": 0.10489500000000085,
            "durationTicks": 96,
            "midi": 31,
            "name": "G1",
            "ticks": 11040,
            "time": 12.062925,
            "velocity": 0.3937007874015748
          },
          {
            "duration": 0.10489500000000085,
            "durationTicks": 96,
            "midi": 32,
            "name": "G#1",
            "ticks": 11040,
            "time": 12.062925,
            "velocity": 0.3937007874015748
          },
          {
            "duration": 0.10489500000000085,
            "durationTicks": 96,
            "midi": 33,
            "name": "A1",
            "ticks": 11040,
            "time": 12.062925,
            "velocity": 0.3937007874015748
          },
          {
            "duration": 0.10489499999999907,
            "durationTicks": 96,
            "midi": 38,
            "name": "D2",
            "ticks": 11136,
            "time": 12.16782,
            "velocity": 0.3937007874015748
          },
          {
            "duration": 0.10489499999999907,
            "durationTicks": 96,
            "midi": 32,
            "name": "G#1",
            "ticks": 11136,
            "time": 12.16782,
            "velocity": 0.3937007874015748
          },
          {
            "duration": 0.10489499999999907,
            "durationTicks": 96,
            "midi": 31,
            "name": "G1",
            "ticks": 11136,
            "time": 12.16782,
            "velocity": 0.3937007874015748
          },
          {
            "duration": 0.10489500000000085,
            "durationTicks": 96,
            "midi": 38,
            "name": "D2",
            "ticks": 11232,
            "time": 12.272715,
            "velocity": 0.3937007874015748
          },
          {
            "duration": 0.10489500000000085,
            "durationTicks": 96,
            "midi": 37,
            "name": "C#2",
            "ticks": 11232,
            "time": 12.272715,
            "velocity": 0.3937007874015748
          },
          {
            "duration": 0.10489500000000085,
            "durationTicks": 96,
            "midi": 31,
            "name": "G1",
            "ticks": 11232,
            "time": 12.272715,
            "velocity": 0.3937007874015748
          },
          {
            "duration": 0.10489499999999907,
            "durationTicks": 96,
            "midi": 37,
            "name": "C#2",
            "ticks": 11328,
            "time": 12.37761,
            "velocity": 0.3937007874015748
          },
          {
            "duration": 0.10489499999999907,
            "durationTicks": 96,
            "midi": 38,
            "name": "D2",
            "ticks": 11328,
            "time": 12.37761,
            "velocity": 0.3937007874015748
          },
          {
            "duration": 0.10489499999999907,
            "durationTicks": 96,
            "midi": 36,
            "name": "C2",
            "ticks": 11328,
            "time": 12.37761,
            "velocity": 0.3937007874015748
          },
          {
            "duration": 0.10489500000000085,
            "durationTicks": 96,
            "midi": 36,
            "name": "C2",
            "ticks": 11424,
            "time": 12.482505,
            "velocity": 0.3937007874015748
          },
          {
            "duration": 0.10489500000000085,
            "durationTicks": 96,
            "midi": 43,
            "name": "G2",
            "ticks": 11424,
            "time": 12.482505,
            "velocity": 0.3937007874015748
          },
          {
            "duration": 0.10489500000000085,
            "durationTicks": 96,
            "midi": 37,
            "name": "C#2",
            "ticks": 11424,
            "time": 12.482505,
            "velocity": 0.3937007874015748
          },
          {
            "duration": 0.10489499999999907,
            "durationTicks": 96,
            "midi": 42,
            "name": "F#2",
            "ticks": 11520,
            "time": 12.5874,
            "velocity": 0.3937007874015748
          },
          {
            "duration": 0.10489499999999907,
            "durationTicks": 96,
            "midi": 36,
            "name": "C2",
            "ticks": 11520,
            "time": 12.5874,
            "velocity": 0.3937007874015748
          },
          {
            "duration": 0.10489499999999907,
            "durationTicks": 96,
            "midi": 43,
            "name": "G2",
            "ticks": 11520,
            "time": 12.5874,
            "velocity": 0.3937007874015748
          },
          {
            "duration": 0.10489500000000085,
            "durationTicks": 96,
            "midi": 42,
            "name": "F#2",
            "ticks": 11616,
            "time": 12.692295,
            "velocity": 0.3937007874015748
          },
          {
            "duration": 0.10489500000000085,
            "durationTicks": 96,
            "midi": 43,
            "name": "G2",
            "ticks": 11616,
            "time": 12.692295,
            "velocity": 0.3937007874015748
          },
          {
            "duration": 0.10489500000000085,
            "durationTicks": 96,
            "midi": 40,
            "name": "E2",
            "ticks": 11616,
            "time": 12.692295,
            "velocity": 0.3937007874015748
          },
          {
            "duration": 0.10489499999999907,
            "durationTicks": 96,
            "midi": 40,
            "name": "E2",
            "ticks": 11712,
            "time": 12.79719,
            "velocity": 0.3937007874015748
          },
          {
            "duration": 0.10489499999999907,
            "durationTicks": 96,
            "midi": 38,
            "name": "D2",
            "ticks": 11712,
            "time": 12.79719,
            "velocity": 0.3937007874015748
          },
          {
            "duration": 0.10489499999999907,
            "durationTicks": 96,
            "midi": 42,
            "name": "F#2",
            "ticks": 11712,
            "time": 12.79719,
            "velocity": 0.3937007874015748
          },
          {
            "duration": 0.10489500000000085,
            "durationTicks": 96,
            "midi": 38,
            "name": "D2",
            "ticks": 11808,
            "time": 12.902085,
            "velocity": 0.3937007874015748
          },
          {
            "duration": 0.10489500000000085,
            "durationTicks": 96,
            "midi": 40,
            "name": "E2",
            "ticks": 11808,
            "time": 12.902085,
            "velocity": 0.3937007874015748
          },
          {
            "duration": 0.10489500000000085,
            "durationTicks": 96,
            "midi": 36,
            "name": "C2",
            "ticks": 11808,
            "time": 12.902085,
            "velocity": 0.3937007874015748
          },
          {
            "duration": 0.10489499999999907,
            "durationTicks": 96,
            "midi": 38,
            "name": "D2",
            "ticks": 11904,
            "time": 13.00698,
            "velocity": 0.3937007874015748
          },
          {
            "duration": 0.10489499999999907,
            "durationTicks": 96,
            "midi": 33,
            "name": "A1",
            "ticks": 11904,
            "time": 13.00698,
            "velocity": 0.3937007874015748
          },
          {
            "duration": 0.10489499999999907,
            "durationTicks": 96,
            "midi": 36,
            "name": "C2",
            "ticks": 11904,
            "time": 13.00698,
            "velocity": 0.3937007874015748
          },
          {
            "duration": 0.10489500000000085,
            "durationTicks": 96,
            "midi": 33,
            "name": "A1",
            "ticks": 12000,
            "time": 13.111875,
            "velocity": 0.3937007874015748
          },
          {
            "duration": 0.10489500000000085,
            "durationTicks": 96,
            "midi": 36,
            "name": "C2",
            "ticks": 12000,
            "time": 13.111875,
            "velocity": 0.3937007874015748
          },
          {
            "duration": 0.10489500000000085,
            "durationTicks": 96,
            "midi": 36,
            "name": "C2",
            "ticks": 12000,
            "time": 13.111875,
            "velocity": 0.3937007874015748
          },
          {
            "duration": 0.10489499999999907,
            "durationTicks": 96,
            "midi": 31,
            "name": "G1",
            "ticks": 12096,
            "time": 13.21677,
            "velocity": 0.3937007874015748
          },
          {
            "duration": 0.10489499999999907,
            "durationTicks": 96,
            "midi": 36,
            "name": "C2",
            "ticks": 12096,
            "time": 13.21677,
            "velocity": 0.3937007874015748
          },
          {
            "duration": 0.10489499999999907,
            "durationTicks": 96,
            "midi": 33,
            "name": "A1",
            "ticks": 12096,
            "time": 13.21677,
            "velocity": 0.3937007874015748
          },
          {
            "duration": 0.10489500000000085,
            "durationTicks": 96,
            "midi": 29,
            "name": "F1",
            "ticks": 12192,
            "time": 13.321665,
            "velocity": 0.3937007874015748
          },
          {
            "duration": 0.10489500000000085,
            "durationTicks": 96,
            "midi": 31,
            "name": "G1",
            "ticks": 12192,
            "time": 13.321665,
            "velocity": 0.3937007874015748
          },
          {
            "duration": 0.10489500000000085,
            "durationTicks": 96,
            "midi": 36,
            "name": "C2",
            "ticks": 12192,
            "time": 13.321665,
            "velocity": 0.3937007874015748
          },
          {
            "duration": 0.10489500000000085,
            "durationTicks": 96,
            "midi": 29,
            "name": "F1",
            "ticks": 12288,
            "time": 13.42656,
            "velocity": 0.3937007874015748
          },
          {
            "duration": 0.10489500000000085,
            "durationTicks": 96,
            "midi": 26,
            "name": "D1",
            "ticks": 12288,
            "time": 13.42656,
            "velocity": 0.3937007874015748
          },
          {
            "duration": 0.10489500000000085,
            "durationTicks": 96,
            "midi": 31,
            "name": "G1",
            "ticks": 12288,
            "time": 13.42656,
            "velocity": 0.3937007874015748
          },
          {
            "duration": 0.10489499999999907,
            "durationTicks": 96,
            "midi": 29,
            "name": "F1",
            "ticks": 12384,
            "time": 13.531455000000001,
            "velocity": 0.3937007874015748
          },
          {
            "duration": 0.10489499999999907,
            "durationTicks": 96,
            "midi": 33,
            "name": "A1",
            "ticks": 12384,
            "time": 13.531455000000001,
            "velocity": 0.3937007874015748
          },
          {
            "duration": 0.10489499999999907,
            "durationTicks": 96,
            "midi": 26,
            "name": "D1",
            "ticks": 12384,
            "time": 13.531455000000001,
            "velocity": 0.3937007874015748
          },
          {
            "duration": 0.10489500000000085,
            "durationTicks": 96,
            "midi": 33,
            "name": "A1",
            "ticks": 12480,
            "time": 13.63635,
            "velocity": 0.3937007874015748
          },
          {
            "duration": 0.10489500000000085,
            "durationTicks": 96,
            "midi": 32,
            "name": "G#1",
            "ticks": 12480,
            "time": 13.63635,
            "velocity": 0.3937007874015748
          },
          {
            "duration": 0.10489500000000085,
            "durationTicks": 96,
            "midi": 26,
            "name": "D1",
            "ticks": 12480,
            "time": 13.63635,
            "velocity": 0.3937007874015748
          },
          {
            "duration": 0.10489499999999907,
            "durationTicks": 96,
            "midi": 33,
            "name": "A1",
            "ticks": 12576,
            "time": 13.741245000000001,
            "velocity": 0.3937007874015748
          },
          {
            "duration": 0.10489499999999907,
            "durationTicks": 96,
            "midi": 32,
            "name": "G#1",
            "ticks": 12576,
            "time": 13.741245000000001,
            "velocity": 0.3937007874015748
          },
          {
            "duration": 0.10489499999999907,
            "durationTicks": 96,
            "midi": 31,
            "name": "G1",
            "ticks": 12576,
            "time": 13.741245000000001,
            "velocity": 0.3937007874015748
          },
          {
            "duration": 0.10489500000000085,
            "durationTicks": 96,
            "midi": 31,
            "name": "G1",
            "ticks": 12672,
            "time": 13.84614,
            "velocity": 0.3937007874015748
          },
          {
            "duration": 0.10489500000000085,
            "durationTicks": 96,
            "midi": 32,
            "name": "G#1",
            "ticks": 12672,
            "time": 13.84614,
            "velocity": 0.3937007874015748
          },
          {
            "duration": 0.10489500000000085,
            "durationTicks": 96,
            "midi": 38,
            "name": "D2",
            "ticks": 12672,
            "time": 13.84614,
            "velocity": 0.3937007874015748
          },
          {
            "duration": 0.10489499999999907,
            "durationTicks": 96,
            "midi": 37,
            "name": "C#2",
            "ticks": 12768,
            "time": 13.951035000000001,
            "velocity": 0.3937007874015748
          },
          {
            "duration": 0.10489499999999907,
            "durationTicks": 96,
            "midi": 38,
            "name": "D2",
            "ticks": 12768,
            "time": 13.951035000000001,
            "velocity": 0.3937007874015748
          },
          {
            "duration": 0.10489499999999907,
            "durationTicks": 96,
            "midi": 31,
            "name": "G1",
            "ticks": 12768,
            "time": 13.951035000000001,
            "velocity": 0.3937007874015748
          },
          {
            "duration": 0.10489500000000085,
            "durationTicks": 96,
            "midi": 37,
            "name": "C#2",
            "ticks": 12864,
            "time": 14.05593,
            "velocity": 0.3937007874015748
          },
          {
            "duration": 0.10489500000000085,
            "durationTicks": 96,
            "midi": 38,
            "name": "D2",
            "ticks": 12864,
            "time": 14.05593,
            "velocity": 0.3937007874015748
          },
          {
            "duration": 0.10489500000000085,
            "durationTicks": 96,
            "midi": 36,
            "name": "C2",
            "ticks": 12864,
            "time": 14.05593,
            "velocity": 0.3937007874015748
          },
          {
            "duration": 0.10489499999999907,
            "durationTicks": 96,
            "midi": 37,
            "name": "C#2",
            "ticks": 12960,
            "time": 14.160825,
            "velocity": 0.3937007874015748
          },
          {
            "duration": 0.10489499999999907,
            "durationTicks": 96,
            "midi": 36,
            "name": "C2",
            "ticks": 12960,
            "time": 14.160825,
            "velocity": 0.3937007874015748
          },
          {
            "duration": 0.10489499999999907,
            "durationTicks": 96,
            "midi": 43,
            "name": "G2",
            "ticks": 12960,
            "time": 14.160825,
            "velocity": 0.3937007874015748
          },
          {
            "duration": 0.10489500000000085,
            "durationTicks": 96,
            "midi": 36,
            "name": "C2",
            "ticks": 13056,
            "time": 14.26572,
            "velocity": 0.3937007874015748
          },
          {
            "duration": 0.10489500000000085,
            "durationTicks": 96,
            "midi": 42,
            "name": "F#2",
            "ticks": 13056,
            "time": 14.26572,
            "velocity": 0.3937007874015748
          },
          {
            "duration": 0.10489500000000085,
            "durationTicks": 96,
            "midi": 43,
            "name": "G2",
            "ticks": 13056,
            "time": 14.26572,
            "velocity": 0.3937007874015748
          },
          {
            "duration": 0.10489499999999907,
            "durationTicks": 96,
            "midi": 42,
            "name": "F#2",
            "ticks": 13152,
            "time": 14.370615,
            "velocity": 0.3937007874015748
          },
          {
            "duration": 0.10489499999999907,
            "durationTicks": 96,
            "midi": 40,
            "name": "E2",
            "ticks": 13152,
            "time": 14.370615,
            "velocity": 0.3937007874015748
          },
          {
            "duration": 0.10489499999999907,
            "durationTicks": 96,
            "midi": 43,
            "name": "G2",
            "ticks": 13152,
            "time": 14.370615,
            "velocity": 0.3937007874015748
          },
          {
            "duration": 0.10489500000000085,
            "durationTicks": 96,
            "midi": 42,
            "name": "F#2",
            "ticks": 13248,
            "time": 14.47551,
            "velocity": 0.3937007874015748
          },
          {
            "duration": 0.10489500000000085,
            "durationTicks": 96,
            "midi": 40,
            "name": "E2",
            "ticks": 13248,
            "time": 14.47551,
            "velocity": 0.3937007874015748
          },
          {
            "duration": 0.10489500000000085,
            "durationTicks": 96,
            "midi": 38,
            "name": "D2",
            "ticks": 13248,
            "time": 14.47551,
            "velocity": 0.3937007874015748
          },
          {
            "duration": 0.10489499999999907,
            "durationTicks": 96,
            "midi": 36,
            "name": "C2",
            "ticks": 13344,
            "time": 14.580405,
            "velocity": 0.3937007874015748
          },
          {
            "duration": 0.10489499999999907,
            "durationTicks": 96,
            "midi": 40,
            "name": "E2",
            "ticks": 13344,
            "time": 14.580405,
            "velocity": 0.3937007874015748
          },
          {
            "duration": 0.10489499999999907,
            "durationTicks": 96,
            "midi": 38,
            "name": "D2",
            "ticks": 13344,
            "time": 14.580405,
            "velocity": 0.3937007874015748
          },
          {
            "duration": 0.10489500000000085,
            "durationTicks": 96,
            "midi": 33,
            "name": "A1",
            "ticks": 13440,
            "time": 14.6853,
            "velocity": 0.3937007874015748
          },
          {
            "duration": 0.10489500000000085,
            "durationTicks": 96,
            "midi": 38,
            "name": "D2",
            "ticks": 13440,
            "time": 14.6853,
            "velocity": 0.3937007874015748
          },
          {
            "duration": 0.10489500000000085,
            "durationTicks": 96,
            "midi": 36,
            "name": "C2",
            "ticks": 13440,
            "time": 14.6853,
            "velocity": 0.3937007874015748
          },
          {
            "duration": 0.10489499999999907,
            "durationTicks": 96,
            "midi": 36,
            "name": "C2",
            "ticks": 13536,
            "time": 14.790195,
            "velocity": 0.3937007874015748
          },
          {
            "duration": 0.10489499999999907,
            "durationTicks": 96,
            "midi": 33,
            "name": "A1",
            "ticks": 13536,
            "time": 14.790195,
            "velocity": 0.3937007874015748
          },
          {
            "duration": 0.10489499999999907,
            "durationTicks": 96,
            "midi": 36,
            "name": "C2",
            "ticks": 13536,
            "time": 14.790195,
            "velocity": 0.3937007874015748
          },
          {
            "duration": 0.10489500000000085,
            "durationTicks": 96,
            "midi": 33,
            "name": "A1",
            "ticks": 13632,
            "time": 14.89509,
            "velocity": 0.3937007874015748
          },
          {
            "duration": 0.10489500000000085,
            "durationTicks": 96,
            "midi": 31,
            "name": "G1",
            "ticks": 13632,
            "time": 14.89509,
            "velocity": 0.3937007874015748
          },
          {
            "duration": 0.10489500000000085,
            "durationTicks": 96,
            "midi": 36,
            "name": "C2",
            "ticks": 13632,
            "time": 14.89509,
            "velocity": 0.3937007874015748
          },
          {
            "duration": 0.10489499999999907,
            "durationTicks": 96,
            "midi": 36,
            "name": "C2",
            "ticks": 13728,
            "time": 14.999985,
            "velocity": 0.3937007874015748
          },
          {
            "duration": 0.10489499999999907,
            "durationTicks": 96,
            "midi": 31,
            "name": "G1",
            "ticks": 13728,
            "time": 14.999985,
            "velocity": 0.3937007874015748
          },
          {
            "duration": 0.10489499999999907,
            "durationTicks": 96,
            "midi": 29,
            "name": "F1",
            "ticks": 13728,
            "time": 14.999985,
            "velocity": 0.3937007874015748
          },
          {
            "duration": 0.10489500000000085,
            "durationTicks": 96,
            "midi": 26,
            "name": "D1",
            "ticks": 13824,
            "time": 15.10488,
            "velocity": 0.3937007874015748
          },
          {
            "duration": 0.10489500000000085,
            "durationTicks": 96,
            "midi": 31,
            "name": "G1",
            "ticks": 13824,
            "time": 15.10488,
            "velocity": 0.3937007874015748
          },
          {
            "duration": 0.10489500000000085,
            "durationTicks": 96,
            "midi": 29,
            "name": "F1",
            "ticks": 13824,
            "time": 15.10488,
            "velocity": 0.3937007874015748
          },
          {
            "duration": 0.10489499999999907,
            "durationTicks": 96,
            "midi": 29,
            "name": "F1",
            "ticks": 13920,
            "time": 15.209775,
            "velocity": 0.3937007874015748
          },
          {
            "duration": 0.10489499999999907,
            "durationTicks": 96,
            "midi": 26,
            "name": "D1",
            "ticks": 13920,
            "time": 15.209775,
            "velocity": 0.3937007874015748
          },
          {
            "duration": 0.10489499999999907,
            "durationTicks": 96,
            "midi": 33,
            "name": "A1",
            "ticks": 13920,
            "time": 15.209775,
            "velocity": 0.3937007874015748
          },
          {
            "duration": 0.10489500000000085,
            "durationTicks": 96,
            "midi": 26,
            "name": "D1",
            "ticks": 14016,
            "time": 15.31467,
            "velocity": 0.3937007874015748
          },
          {
            "duration": 0.10489500000000085,
            "durationTicks": 96,
            "midi": 33,
            "name": "A1",
            "ticks": 14016,
            "time": 15.31467,
            "velocity": 0.3937007874015748
          },
          {
            "duration": 0.10489500000000085,
            "durationTicks": 96,
            "midi": 32,
            "name": "G#1",
            "ticks": 14016,
            "time": 15.31467,
            "velocity": 0.3937007874015748
          },
          {
            "duration": 0.10489499999999907,
            "durationTicks": 96,
            "midi": 33,
            "name": "A1",
            "ticks": 14112,
            "time": 15.419565,
            "velocity": 0.3937007874015748
          },
          {
            "duration": 0.10489499999999907,
            "durationTicks": 96,
            "midi": 31,
            "name": "G1",
            "ticks": 14112,
            "time": 15.419565,
            "velocity": 0.3937007874015748
          },
          {
            "duration": 0.10489499999999907,
            "durationTicks": 96,
            "midi": 32,
            "name": "G#1",
            "ticks": 14112,
            "time": 15.419565,
            "velocity": 0.3937007874015748
          },
          {
            "duration": 0.10489500000000085,
            "durationTicks": 96,
            "midi": 32,
            "name": "G#1",
            "ticks": 14208,
            "time": 15.52446,
            "velocity": 0.3937007874015748
          },
          {
            "duration": 0.10489500000000085,
            "durationTicks": 96,
            "midi": 31,
            "name": "G1",
            "ticks": 14208,
            "time": 15.52446,
            "velocity": 0.3937007874015748
          },
          {
            "duration": 0.10489500000000085,
            "durationTicks": 96,
            "midi": 38,
            "name": "D2",
            "ticks": 14208,
            "time": 15.52446,
            "velocity": 0.3937007874015748
          },
          {
            "duration": 0.10489500000000085,
            "durationTicks": 96,
            "midi": 31,
            "name": "G1",
            "ticks": 14304,
            "time": 15.629355,
            "velocity": 0.3937007874015748
          },
          {
            "duration": 0.10489500000000085,
            "durationTicks": 96,
            "midi": 37,
            "name": "C#2",
            "ticks": 14304,
            "time": 15.629355,
            "velocity": 0.3937007874015748
          },
          {
            "duration": 0.10489500000000085,
            "durationTicks": 96,
            "midi": 38,
            "name": "D2",
            "ticks": 14304,
            "time": 15.629355,
            "velocity": 0.3937007874015748
          },
          {
            "duration": 0.10489499999999907,
            "durationTicks": 96,
            "midi": 37,
            "name": "C#2",
            "ticks": 14400,
            "time": 15.734250000000001,
            "velocity": 0.3937007874015748
          },
          {
            "duration": 0.10489499999999907,
            "durationTicks": 96,
            "midi": 36,
            "name": "C2",
            "ticks": 14400,
            "time": 15.734250000000001,
            "velocity": 0.3937007874015748
          },
          {
            "duration": 0.10489499999999907,
            "durationTicks": 96,
            "midi": 38,
            "name": "D2",
            "ticks": 14400,
            "time": 15.734250000000001,
            "velocity": 0.3937007874015748
          },
          {
            "duration": 0.10489500000000085,
            "durationTicks": 96,
            "midi": 37,
            "name": "C#2",
            "ticks": 14496,
            "time": 15.839145,
            "velocity": 0.3937007874015748
          },
          {
            "duration": 0.10489500000000085,
            "durationTicks": 96,
            "midi": 36,
            "name": "C2",
            "ticks": 14496,
            "time": 15.839145,
            "velocity": 0.3937007874015748
          },
          {
            "duration": 0.10489500000000085,
            "durationTicks": 96,
            "midi": 43,
            "name": "G2",
            "ticks": 14496,
            "time": 15.839145,
            "velocity": 0.3937007874015748
          },
          {
            "duration": 0.10489499999999907,
            "durationTicks": 96,
            "midi": 36,
            "name": "C2",
            "ticks": 14592,
            "time": 15.944040000000001,
            "velocity": 0.3937007874015748
          },
          {
            "duration": 0.10489499999999907,
            "durationTicks": 96,
            "midi": 42,
            "name": "F#2",
            "ticks": 14592,
            "time": 15.944040000000001,
            "velocity": 0.3937007874015748
          },
          {
            "duration": 0.10489499999999907,
            "durationTicks": 96,
            "midi": 43,
            "name": "G2",
            "ticks": 14592,
            "time": 15.944040000000001,
            "velocity": 0.3937007874015748
          },
          {
            "duration": 0.10489499999999907,
            "durationTicks": 96,
            "midi": 42,
            "name": "F#2",
            "ticks": 14688,
            "time": 16.048935,
            "velocity": 0.3937007874015748
          },
          {
            "duration": 0.10489499999999907,
            "durationTicks": 96,
            "midi": 43,
            "name": "G2",
            "ticks": 14688,
            "time": 16.048935,
            "velocity": 0.3937007874015748
          },
          {
            "duration": 0.10489499999999907,
            "durationTicks": 96,
            "midi": 40,
            "name": "E2",
            "ticks": 14688,
            "time": 16.048935,
            "velocity": 0.3937007874015748
          },
          {
            "duration": 0.10489500000000263,
            "durationTicks": 96,
            "midi": 40,
            "name": "E2",
            "ticks": 14784,
            "time": 16.15383,
            "velocity": 0.3937007874015748
          },
          {
            "duration": 0.10489500000000263,
            "durationTicks": 96,
            "midi": 38,
            "name": "D2",
            "ticks": 14784,
            "time": 16.15383,
            "velocity": 0.3937007874015748
          },
          {
            "duration": 0.10489500000000263,
            "durationTicks": 96,
            "midi": 42,
            "name": "F#2",
            "ticks": 14784,
            "time": 16.15383,
            "velocity": 0.3937007874015748
          },
          {
            "duration": 0.10489499999999907,
            "durationTicks": 96,
            "midi": 38,
            "name": "D2",
            "ticks": 14880,
            "time": 16.258725000000002,
            "velocity": 0.3937007874015748
          },
          {
            "duration": 0.10489499999999907,
            "durationTicks": 96,
            "midi": 36,
            "name": "C2",
            "ticks": 14880,
            "time": 16.258725000000002,
            "velocity": 0.3937007874015748
          },
          {
            "duration": 0.10489499999999907,
            "durationTicks": 96,
            "midi": 40,
            "name": "E2",
            "ticks": 14880,
            "time": 16.258725000000002,
            "velocity": 0.3937007874015748
          },
          {
            "duration": 0.10489499999999907,
            "durationTicks": 96,
            "midi": 36,
            "name": "C2",
            "ticks": 14976,
            "time": 16.36362,
            "velocity": 0.3937007874015748
          },
          {
            "duration": 0.10489499999999907,
            "durationTicks": 96,
            "midi": 38,
            "name": "D2",
            "ticks": 14976,
            "time": 16.36362,
            "velocity": 0.3937007874015748
          },
          {
            "duration": 0.10489499999999907,
            "durationTicks": 96,
            "midi": 33,
            "name": "A1",
            "ticks": 14976,
            "time": 16.36362,
            "velocity": 0.3937007874015748
          },
          {
            "duration": 0.10489499999999907,
            "durationTicks": 96,
            "midi": 36,
            "name": "C2",
            "ticks": 15072,
            "time": 16.468515,
            "velocity": 0.3937007874015748
          },
          {
            "duration": 0.10489499999999907,
            "durationTicks": 96,
            "midi": 36,
            "name": "C2",
            "ticks": 15072,
            "time": 16.468515,
            "velocity": 0.3937007874015748
          },
          {
            "duration": 0.10489499999999907,
            "durationTicks": 96,
            "midi": 33,
            "name": "A1",
            "ticks": 15072,
            "time": 16.468515,
            "velocity": 0.3937007874015748
          },
          {
            "duration": 0.10489500000000263,
            "durationTicks": 96,
            "midi": 36,
            "name": "C2",
            "ticks": 15168,
            "time": 16.57341,
            "velocity": 0.3937007874015748
          },
          {
            "duration": 0.10489500000000263,
            "durationTicks": 96,
            "midi": 31,
            "name": "G1",
            "ticks": 15168,
            "time": 16.57341,
            "velocity": 0.3937007874015748
          },
          {
            "duration": 0.10489500000000263,
            "durationTicks": 96,
            "midi": 33,
            "name": "A1",
            "ticks": 15168,
            "time": 16.57341,
            "velocity": 0.3937007874015748
          },
          {
            "duration": 0.10489499999999907,
            "durationTicks": 96,
            "midi": 29,
            "name": "F1",
            "ticks": 15264,
            "time": 16.678305,
            "velocity": 0.3937007874015748
          },
          {
            "duration": 0.10489499999999907,
            "durationTicks": 96,
            "midi": 31,
            "name": "G1",
            "ticks": 15264,
            "time": 16.678305,
            "velocity": 0.3937007874015748
          },
          {
            "duration": 0.10489499999999907,
            "durationTicks": 96,
            "midi": 36,
            "name": "C2",
            "ticks": 15264,
            "time": 16.678305,
            "velocity": 0.3937007874015748
          },
          {
            "duration": 0.10489499999999907,
            "durationTicks": 96,
            "midi": 31,
            "name": "G1",
            "ticks": 15360,
            "time": 16.7832,
            "velocity": 0.3937007874015748
          },
          {
            "duration": 0.10489499999999907,
            "durationTicks": 96,
            "midi": 29,
            "name": "F1",
            "ticks": 15360,
            "time": 16.7832,
            "velocity": 0.3937007874015748
          },
          {
            "duration": 0.10489499999999907,
            "durationTicks": 96,
            "midi": 26,
            "name": "D1",
            "ticks": 15360,
            "time": 16.7832,
            "velocity": 0.3937007874015748
          },
          {
            "duration": 0.10489499999999907,
            "durationTicks": 96,
            "midi": 29,
            "name": "F1",
            "ticks": 15456,
            "time": 16.888095,
            "velocity": 0.3937007874015748
          },
          {
            "duration": 0.10489499999999907,
            "durationTicks": 96,
            "midi": 26,
            "name": "D1",
            "ticks": 15456,
            "time": 16.888095,
            "velocity": 0.3937007874015748
          },
          {
            "duration": 0.10489499999999907,
            "durationTicks": 96,
            "midi": 33,
            "name": "A1",
            "ticks": 15456,
            "time": 16.888095,
            "velocity": 0.3937007874015748
          },
          {
            "duration": 0.10489500000000263,
            "durationTicks": 96,
            "midi": 33,
            "name": "A1",
            "ticks": 15552,
            "time": 16.99299,
            "velocity": 0.3937007874015748
          },
          {
            "duration": 0.10489500000000263,
            "durationTicks": 96,
            "midi": 32,
            "name": "G#1",
            "ticks": 15552,
            "time": 16.99299,
            "velocity": 0.3937007874015748
          },
          {
            "duration": 0.10489500000000263,
            "durationTicks": 96,
            "midi": 26,
            "name": "D1",
            "ticks": 15552,
            "time": 16.99299,
            "velocity": 0.3937007874015748
          },
          {
            "duration": 0.10489499999999907,
            "durationTicks": 96,
            "midi": 33,
            "name": "A1",
            "ticks": 15648,
            "time": 17.097885,
            "velocity": 0.3937007874015748
          },
          {
            "duration": 0.10489499999999907,
            "durationTicks": 96,
            "midi": 31,
            "name": "G1",
            "ticks": 15648,
            "time": 17.097885,
            "velocity": 0.3937007874015748
          },
          {
            "duration": 0.10489499999999907,
            "durationTicks": 96,
            "midi": 32,
            "name": "G#1",
            "ticks": 15648,
            "time": 17.097885,
            "velocity": 0.3937007874015748
          },
          {
            "duration": 0.10489499999999907,
            "durationTicks": 96,
            "midi": 31,
            "name": "G1",
            "ticks": 15744,
            "time": 17.20278,
            "velocity": 0.3937007874015748
          },
          {
            "duration": 0.10489499999999907,
            "durationTicks": 96,
            "midi": 32,
            "name": "G#1",
            "ticks": 15744,
            "time": 17.20278,
            "velocity": 0.3937007874015748
          },
          {
            "duration": 0.10489499999999907,
            "durationTicks": 96,
            "midi": 38,
            "name": "D2",
            "ticks": 15744,
            "time": 17.20278,
            "velocity": 0.3937007874015748
          },
          {
            "duration": 0.10489499999999907,
            "durationTicks": 96,
            "midi": 31,
            "name": "G1",
            "ticks": 15840,
            "time": 17.307675,
            "velocity": 0.3937007874015748
          },
          {
            "duration": 0.10489499999999907,
            "durationTicks": 96,
            "midi": 38,
            "name": "D2",
            "ticks": 15840,
            "time": 17.307675,
            "velocity": 0.3937007874015748
          },
          {
            "duration": 0.10489499999999907,
            "durationTicks": 96,
            "midi": 37,
            "name": "C#2",
            "ticks": 15840,
            "time": 17.307675,
            "velocity": 0.3937007874015748
          },
          {
            "duration": 0.10489500000000263,
            "durationTicks": 96,
            "midi": 38,
            "name": "D2",
            "ticks": 15936,
            "time": 17.41257,
            "velocity": 0.3937007874015748
          },
          {
            "duration": 0.10489500000000263,
            "durationTicks": 96,
            "midi": 36,
            "name": "C2",
            "ticks": 15936,
            "time": 17.41257,
            "velocity": 0.3937007874015748
          },
          {
            "duration": 0.10489500000000263,
            "durationTicks": 96,
            "midi": 37,
            "name": "C#2",
            "ticks": 15936,
            "time": 17.41257,
            "velocity": 0.3937007874015748
          },
          {
            "duration": 0.10489499999999907,
            "durationTicks": 96,
            "midi": 43,
            "name": "G2",
            "ticks": 16032,
            "time": 17.517465,
            "velocity": 0.3937007874015748
          },
          {
            "duration": 0.10489499999999907,
            "durationTicks": 96,
            "midi": 37,
            "name": "C#2",
            "ticks": 16032,
            "time": 17.517465,
            "velocity": 0.3937007874015748
          },
          {
            "duration": 0.10489499999999907,
            "durationTicks": 96,
            "midi": 36,
            "name": "C2",
            "ticks": 16032,
            "time": 17.517465,
            "velocity": 0.3937007874015748
          },
          {
            "duration": 0.10489499999999907,
            "durationTicks": 96,
            "midi": 43,
            "name": "G2",
            "ticks": 16128,
            "time": 17.62236,
            "velocity": 0.3937007874015748
          },
          {
            "duration": 0.10489499999999907,
            "durationTicks": 96,
            "midi": 36,
            "name": "C2",
            "ticks": 16128,
            "time": 17.62236,
            "velocity": 0.3937007874015748
          },
          {
            "duration": 0.10489499999999907,
            "durationTicks": 96,
            "midi": 42,
            "name": "F#2",
            "ticks": 16128,
            "time": 17.62236,
            "velocity": 0.3937007874015748
          },
          {
            "duration": 0.10489499999999907,
            "durationTicks": 96,
            "midi": 42,
            "name": "F#2",
            "ticks": 16224,
            "time": 17.727255,
            "velocity": 0.3937007874015748
          },
          {
            "duration": 0.10489499999999907,
            "durationTicks": 96,
            "midi": 40,
            "name": "E2",
            "ticks": 16224,
            "time": 17.727255,
            "velocity": 0.3937007874015748
          },
          {
            "duration": 0.10489499999999907,
            "durationTicks": 96,
            "midi": 43,
            "name": "G2",
            "ticks": 16224,
            "time": 17.727255,
            "velocity": 0.3937007874015748
          },
          {
            "duration": 0.10489500000000263,
            "durationTicks": 96,
            "midi": 42,
            "name": "F#2",
            "ticks": 16320,
            "time": 17.83215,
            "velocity": 0.3937007874015748
          },
          {
            "duration": 0.10489500000000263,
            "durationTicks": 96,
            "midi": 38,
            "name": "D2",
            "ticks": 16320,
            "time": 17.83215,
            "velocity": 0.3937007874015748
          },
          {
            "duration": 0.10489500000000263,
            "durationTicks": 96,
            "midi": 40,
            "name": "E2",
            "ticks": 16320,
            "time": 17.83215,
            "velocity": 0.3937007874015748
          },
          {
            "duration": 0.10489499999999907,
            "durationTicks": 96,
            "midi": 40,
            "name": "E2",
            "ticks": 16416,
            "time": 17.937045,
            "velocity": 0.3937007874015748
          },
          {
            "duration": 0.10489499999999907,
            "durationTicks": 96,
            "midi": 36,
            "name": "C2",
            "ticks": 16416,
            "time": 17.937045,
            "velocity": 0.3937007874015748
          },
          {
            "duration": 0.10489499999999907,
            "durationTicks": 96,
            "midi": 38,
            "name": "D2",
            "ticks": 16416,
            "time": 17.937045,
            "velocity": 0.3937007874015748
          },
          {
            "duration": 0.10489499999999907,
            "durationTicks": 96,
            "midi": 38,
            "name": "D2",
            "ticks": 16512,
            "time": 18.04194,
            "velocity": 0.3937007874015748
          },
          {
            "duration": 0.10489499999999907,
            "durationTicks": 96,
            "midi": 33,
            "name": "A1",
            "ticks": 16512,
            "time": 18.04194,
            "velocity": 0.3937007874015748
          },
          {
            "duration": 0.10489499999999907,
            "durationTicks": 96,
            "midi": 36,
            "name": "C2",
            "ticks": 16512,
            "time": 18.04194,
            "velocity": 0.3937007874015748
          },
          {
            "duration": 0.10489500000000263,
            "durationTicks": 96,
            "midi": 33,
            "name": "A1",
            "ticks": 16608,
            "time": 18.146835,
            "velocity": 0.3937007874015748
          },
          {
            "duration": 0.10489500000000263,
            "durationTicks": 96,
            "midi": 36,
            "name": "C2",
            "ticks": 16608,
            "time": 18.146835,
            "velocity": 0.3937007874015748
          },
          {
            "duration": 0.10489500000000263,
            "durationTicks": 96,
            "midi": 36,
            "name": "C2",
            "ticks": 16608,
            "time": 18.146835,
            "velocity": 0.3937007874015748
          },
          {
            "duration": 0.10489499999999907,
            "durationTicks": 96,
            "midi": 36,
            "name": "C2",
            "ticks": 16704,
            "time": 18.251730000000002,
            "velocity": 0.3937007874015748
          },
          {
            "duration": 0.10489499999999907,
            "durationTicks": 96,
            "midi": 31,
            "name": "G1",
            "ticks": 16704,
            "time": 18.251730000000002,
            "velocity": 0.3937007874015748
          },
          {
            "duration": 0.10489499999999907,
            "durationTicks": 96,
            "midi": 33,
            "name": "A1",
            "ticks": 16704,
            "time": 18.251730000000002,
            "velocity": 0.3937007874015748
          },
          {
            "duration": 0.10489499999999907,
            "durationTicks": 96,
            "midi": 29,
            "name": "F1",
            "ticks": 16800,
            "time": 18.356625,
            "velocity": 0.3937007874015748
          },
          {
            "duration": 0.10489499999999907,
            "durationTicks": 96,
            "midi": 36,
            "name": "C2",
            "ticks": 16800,
            "time": 18.356625,
            "velocity": 0.3937007874015748
          },
          {
            "duration": 0.10489499999999907,
            "durationTicks": 96,
            "midi": 31,
            "name": "G1",
            "ticks": 16800,
            "time": 18.356625,
            "velocity": 0.3937007874015748
          },
          {
            "duration": 0.10489499999999907,
            "durationTicks": 96,
            "midi": 29,
            "name": "F1",
            "ticks": 16896,
            "time": 18.46152,
            "velocity": 0.3937007874015748
          },
          {
            "duration": 0.10489499999999907,
            "durationTicks": 96,
            "midi": 26,
            "name": "D1",
            "ticks": 16896,
            "time": 18.46152,
            "velocity": 0.3937007874015748
          },
          {
            "duration": 0.10489499999999907,
            "durationTicks": 96,
            "midi": 31,
            "name": "G1",
            "ticks": 16896,
            "time": 18.46152,
            "velocity": 0.3937007874015748
          },
          {
            "duration": 0.10489500000000263,
            "durationTicks": 96,
            "midi": 29,
            "name": "F1",
            "ticks": 16992,
            "time": 18.566415,
            "velocity": 0.3937007874015748
          },
          {
            "duration": 0.10489500000000263,
            "durationTicks": 96,
            "midi": 26,
            "name": "D1",
            "ticks": 16992,
            "time": 18.566415,
            "velocity": 0.3937007874015748
          },
          {
            "duration": 0.10489500000000263,
            "durationTicks": 96,
            "midi": 33,
            "name": "A1",
            "ticks": 16992,
            "time": 18.566415,
            "velocity": 0.3937007874015748
          },
          {
            "duration": 0.10489499999999907,
            "durationTicks": 96,
            "midi": 33,
            "name": "A1",
            "ticks": 17088,
            "time": 18.671310000000002,
            "velocity": 0.3937007874015748
          },
          {
            "duration": 0.10489499999999907,
            "durationTicks": 96,
            "midi": 32,
            "name": "G#1",
            "ticks": 17088,
            "time": 18.671310000000002,
            "velocity": 0.3937007874015748
          },
          {
            "duration": 0.10489499999999907,
            "durationTicks": 96,
            "midi": 26,
            "name": "D1",
            "ticks": 17088,
            "time": 18.671310000000002,
            "velocity": 0.3937007874015748
          },
          {
            "duration": 0.10489499999999907,
            "durationTicks": 96,
            "midi": 32,
            "name": "G#1",
            "ticks": 17184,
            "time": 18.776205,
            "velocity": 0.3937007874015748
          },
          {
            "duration": 0.10489499999999907,
            "durationTicks": 96,
            "midi": 31,
            "name": "G1",
            "ticks": 17184,
            "time": 18.776205,
            "velocity": 0.3937007874015748
          },
          {
            "duration": 0.10489499999999907,
            "durationTicks": 96,
            "midi": 33,
            "name": "A1",
            "ticks": 17184,
            "time": 18.776205,
            "velocity": 0.3937007874015748
          },
          {
            "duration": 0.10489499999999907,
            "durationTicks": 96,
            "midi": 38,
            "name": "D2",
            "ticks": 17280,
            "time": 18.8811,
            "velocity": 0.3937007874015748
          },
          {
            "duration": 0.10489499999999907,
            "durationTicks": 96,
            "midi": 32,
            "name": "G#1",
            "ticks": 17280,
            "time": 18.8811,
            "velocity": 0.3937007874015748
          },
          {
            "duration": 0.10489499999999907,
            "durationTicks": 96,
            "midi": 31,
            "name": "G1",
            "ticks": 17280,
            "time": 18.8811,
            "velocity": 0.3937007874015748
          },
          {
            "duration": 0.10489500000000263,
            "durationTicks": 96,
            "midi": 31,
            "name": "G1",
            "ticks": 17376,
            "time": 18.985995,
            "velocity": 0.3937007874015748
          },
          {
            "duration": 0.10489500000000263,
            "durationTicks": 96,
            "midi": 38,
            "name": "D2",
            "ticks": 17376,
            "time": 18.985995,
            "velocity": 0.3937007874015748
          },
          {
            "duration": 0.10489500000000263,
            "durationTicks": 96,
            "midi": 37,
            "name": "C#2",
            "ticks": 17376,
            "time": 18.985995,
            "velocity": 0.3937007874015748
          },
          {
            "duration": 0.10489499999999907,
            "durationTicks": 96,
            "midi": 38,
            "name": "D2",
            "ticks": 17472,
            "time": 19.09089,
            "velocity": 0.3937007874015748
          },
          {
            "duration": 0.10489499999999907,
            "durationTicks": 96,
            "midi": 36,
            "name": "C2",
            "ticks": 17472,
            "time": 19.09089,
            "velocity": 0.3937007874015748
          },
          {
            "duration": 0.10489499999999907,
            "durationTicks": 96,
            "midi": 37,
            "name": "C#2",
            "ticks": 17472,
            "time": 19.09089,
            "velocity": 0.3937007874015748
          },
          {
            "duration": 0.10489499999999907,
            "durationTicks": 96,
            "midi": 36,
            "name": "C2",
            "ticks": 17568,
            "time": 19.195785,
            "velocity": 0.3937007874015748
          },
          {
            "duration": 0.10489499999999907,
            "durationTicks": 96,
            "midi": 37,
            "name": "C#2",
            "ticks": 17568,
            "time": 19.195785,
            "velocity": 0.3937007874015748
          },
          {
            "duration": 0.10489499999999907,
            "durationTicks": 96,
            "midi": 43,
            "name": "G2",
            "ticks": 17568,
            "time": 19.195785,
            "velocity": 0.3937007874015748
          },
          {
            "duration": 0.10489499999999907,
            "durationTicks": 96,
            "midi": 43,
            "name": "G2",
            "ticks": 17664,
            "time": 19.30068,
            "velocity": 0.3937007874015748
          },
          {
            "duration": 0.10489499999999907,
            "durationTicks": 96,
            "midi": 42,
            "name": "F#2",
            "ticks": 17664,
            "time": 19.30068,
            "velocity": 0.3937007874015748
          },
          {
            "duration": 0.10489499999999907,
            "durationTicks": 96,
            "midi": 36,
            "name": "C2",
            "ticks": 17664,
            "time": 19.30068,
            "velocity": 0.3937007874015748
          },
          {
            "duration": 0.10489500000000263,
            "durationTicks": 96,
            "midi": 42,
            "name": "F#2",
            "ticks": 17760,
            "time": 19.405575,
            "velocity": 0.3937007874015748
          },
          {
            "duration": 0.10489500000000263,
            "durationTicks": 96,
            "midi": 43,
            "name": "G2",
            "ticks": 17760,
            "time": 19.405575,
            "velocity": 0.3937007874015748
          },
          {
            "duration": 0.10489500000000263,
            "durationTicks": 96,
            "midi": 40,
            "name": "E2",
            "ticks": 17760,
            "time": 19.405575,
            "velocity": 0.3937007874015748
          },
          {
            "duration": 0.10489499999999907,
            "durationTicks": 96,
            "midi": 40,
            "name": "E2",
            "ticks": 17856,
            "time": 19.51047,
            "velocity": 0.3937007874015748
          },
          {
            "duration": 0.10489499999999907,
            "durationTicks": 96,
            "midi": 42,
            "name": "F#2",
            "ticks": 17856,
            "time": 19.51047,
            "velocity": 0.3937007874015748
          },
          {
            "duration": 0.10489499999999907,
            "durationTicks": 96,
            "midi": 38,
            "name": "D2",
            "ticks": 17856,
            "time": 19.51047,
            "velocity": 0.3937007874015748
          },
          {
            "duration": 0.10489499999999907,
            "durationTicks": 96,
            "midi": 38,
            "name": "D2",
            "ticks": 17952,
            "time": 19.615365,
            "velocity": 0.3937007874015748
          },
          {
            "duration": 0.10489499999999907,
            "durationTicks": 96,
            "midi": 40,
            "name": "E2",
            "ticks": 17952,
            "time": 19.615365,
            "velocity": 0.3937007874015748
          },
          {
            "duration": 0.10489499999999907,
            "durationTicks": 96,
            "midi": 36,
            "name": "C2",
            "ticks": 17952,
            "time": 19.615365,
            "velocity": 0.3937007874015748
          },
          {
            "duration": 0.10489499999999907,
            "durationTicks": 96,
            "midi": 38,
            "name": "D2",
            "ticks": 18048,
            "time": 19.72026,
            "velocity": 0.3937007874015748
          },
          {
            "duration": 0.10489499999999907,
            "durationTicks": 96,
            "midi": 36,
            "name": "C2",
            "ticks": 18048,
            "time": 19.72026,
            "velocity": 0.3937007874015748
          },
          {
            "duration": 0.10489499999999907,
            "durationTicks": 96,
            "midi": 33,
            "name": "A1",
            "ticks": 18048,
            "time": 19.72026,
            "velocity": 0.3937007874015748
          },
          {
            "duration": 0.10489500000000263,
            "durationTicks": 96,
            "midi": 36,
            "name": "C2",
            "ticks": 18144,
            "time": 19.825155,
            "velocity": 0.3937007874015748
          },
          {
            "duration": 0.10489500000000263,
            "durationTicks": 96,
            "midi": 33,
            "name": "A1",
            "ticks": 18144,
            "time": 19.825155,
            "velocity": 0.3937007874015748
          },
          {
            "duration": 0.10489500000000263,
            "durationTicks": 96,
            "midi": 36,
            "name": "C2",
            "ticks": 18144,
            "time": 19.825155,
            "velocity": 0.3937007874015748
          },
          {
            "duration": 0.10489499999999907,
            "durationTicks": 96,
            "midi": 33,
            "name": "A1",
            "ticks": 18240,
            "time": 19.93005,
            "velocity": 0.3937007874015748
          },
          {
            "duration": 0.10489499999999907,
            "durationTicks": 96,
            "midi": 36,
            "name": "C2",
            "ticks": 18240,
            "time": 19.93005,
            "velocity": 0.3937007874015748
          },
          {
            "duration": 0.10489499999999907,
            "durationTicks": 96,
            "midi": 31,
            "name": "G1",
            "ticks": 18240,
            "time": 19.93005,
            "velocity": 0.3937007874015748
          },
          {
            "duration": 0.10489499999999907,
            "durationTicks": 96,
            "midi": 29,
            "name": "F1",
            "ticks": 18336,
            "time": 20.034945,
            "velocity": 0.3937007874015748
          },
          {
            "duration": 0.10489499999999907,
            "durationTicks": 96,
            "midi": 31,
            "name": "G1",
            "ticks": 18336,
            "time": 20.034945,
            "velocity": 0.3937007874015748
          },
          {
            "duration": 0.10489499999999907,
            "durationTicks": 96,
            "midi": 36,
            "name": "C2",
            "ticks": 18336,
            "time": 20.034945,
            "velocity": 0.3937007874015748
          },
          {
            "duration": 0.10489500000000263,
            "durationTicks": 96,
            "midi": 26,
            "name": "D1",
            "ticks": 18432,
            "time": 20.13984,
            "velocity": 0.3937007874015748
          },
          {
            "duration": 0.10489500000000263,
            "durationTicks": 96,
            "midi": 31,
            "name": "G1",
            "ticks": 18432,
            "time": 20.13984,
            "velocity": 0.3937007874015748
          },
          {
            "duration": 0.10489500000000263,
            "durationTicks": 96,
            "midi": 29,
            "name": "F1",
            "ticks": 18432,
            "time": 20.13984,
            "velocity": 0.3937007874015748
          },
          {
            "duration": 0.10489499999999907,
            "durationTicks": 96,
            "midi": 33,
            "name": "A1",
            "ticks": 18528,
            "time": 20.244735000000002,
            "velocity": 0.3937007874015748
          },
          {
            "duration": 0.10489499999999907,
            "durationTicks": 96,
            "midi": 26,
            "name": "D1",
            "ticks": 18528,
            "time": 20.244735000000002,
            "velocity": 0.3937007874015748
          },
          {
            "duration": 0.10489499999999907,
            "durationTicks": 96,
            "midi": 29,
            "name": "F1",
            "ticks": 18528,
            "time": 20.244735000000002,
            "velocity": 0.3937007874015748
          },
          {
            "duration": 0.10489499999999907,
            "durationTicks": 96,
            "midi": 32,
            "name": "G#1",
            "ticks": 18624,
            "time": 20.34963,
            "velocity": 0.3937007874015748
          },
          {
            "duration": 0.10489499999999907,
            "durationTicks": 96,
            "midi": 33,
            "name": "A1",
            "ticks": 18624,
            "time": 20.34963,
            "velocity": 0.3937007874015748
          },
          {
            "duration": 0.10489499999999907,
            "durationTicks": 96,
            "midi": 26,
            "name": "D1",
            "ticks": 18624,
            "time": 20.34963,
            "velocity": 0.3937007874015748
          },
          {
            "duration": 0.10489499999999907,
            "durationTicks": 96,
            "midi": 32,
            "name": "G#1",
            "ticks": 18720,
            "time": 20.454525,
            "velocity": 0.3937007874015748
          },
          {
            "duration": 0.10489499999999907,
            "durationTicks": 96,
            "midi": 33,
            "name": "A1",
            "ticks": 18720,
            "time": 20.454525,
            "velocity": 0.3937007874015748
          },
          {
            "duration": 0.10489499999999907,
            "durationTicks": 96,
            "midi": 31,
            "name": "G1",
            "ticks": 18720,
            "time": 20.454525,
            "velocity": 0.3937007874015748
          },
          {
            "duration": 0.10489500000000263,
            "durationTicks": 96,
            "midi": 31,
            "name": "G1",
            "ticks": 18816,
            "time": 20.55942,
            "velocity": 0.3937007874015748
          },
          {
            "duration": 0.10489500000000263,
            "durationTicks": 96,
            "midi": 32,
            "name": "G#1",
            "ticks": 18816,
            "time": 20.55942,
            "velocity": 0.3937007874015748
          },
          {
            "duration": 0.10489500000000263,
            "durationTicks": 96,
            "midi": 38,
            "name": "D2",
            "ticks": 18816,
            "time": 20.55942,
            "velocity": 0.3937007874015748
          },
          {
            "duration": 0.10489499999999907,
            "durationTicks": 96,
            "midi": 38,
            "name": "D2",
            "ticks": 18912,
            "time": 20.664315000000002,
            "velocity": 0.3937007874015748
          },
          {
            "duration": 0.10489499999999907,
            "durationTicks": 96,
            "midi": 37,
            "name": "C#2",
            "ticks": 18912,
            "time": 20.664315000000002,
            "velocity": 0.3937007874015748
          },
          {
            "duration": 0.10489499999999907,
            "durationTicks": 96,
            "midi": 31,
            "name": "G1",
            "ticks": 18912,
            "time": 20.664315000000002,
            "velocity": 0.3937007874015748
          },
          {
            "duration": 0.10489499999999907,
            "durationTicks": 96,
            "midi": 38,
            "name": "D2",
            "ticks": 19008,
            "time": 20.76921,
            "velocity": 0.3937007874015748
          },
          {
            "duration": 0.10489499999999907,
            "durationTicks": 96,
            "midi": 37,
            "name": "C#2",
            "ticks": 19008,
            "time": 20.76921,
            "velocity": 0.3937007874015748
          },
          {
            "duration": 0.10489499999999907,
            "durationTicks": 96,
            "midi": 36,
            "name": "C2",
            "ticks": 19008,
            "time": 20.76921,
            "velocity": 0.3937007874015748
          },
          {
            "duration": 0.10489499999999907,
            "durationTicks": 96,
            "midi": 36,
            "name": "C2",
            "ticks": 19104,
            "time": 20.874105,
            "velocity": 0.3937007874015748
          },
          {
            "duration": 0.10489499999999907,
            "durationTicks": 96,
            "midi": 43,
            "name": "G2",
            "ticks": 19104,
            "time": 20.874105,
            "velocity": 0.3937007874015748
          },
          {
            "duration": 0.10489499999999907,
            "durationTicks": 96,
            "midi": 37,
            "name": "C#2",
            "ticks": 19104,
            "time": 20.874105,
            "velocity": 0.3937007874015748
          },
          {
            "duration": 0.10489500000000263,
            "durationTicks": 96,
            "midi": 42,
            "name": "F#2",
            "ticks": 19200,
            "time": 20.979,
            "velocity": 0.3937007874015748
          },
          {
            "duration": 0.10489500000000263,
            "durationTicks": 96,
            "midi": 36,
            "name": "C2",
            "ticks": 19200,
            "time": 20.979,
            "velocity": 0.3937007874015748
          },
          {
            "duration": 0.10489500000000263,
            "durationTicks": 96,
            "midi": 43,
            "name": "G2",
            "ticks": 19200,
            "time": 20.979,
            "velocity": 0.3937007874015748
          },
          {
            "duration": 0.10489499999999907,
            "durationTicks": 96,
            "midi": 42,
            "name": "F#2",
            "ticks": 19296,
            "time": 21.083895000000002,
            "velocity": 0.3937007874015748
          },
          {
            "duration": 0.10489499999999907,
            "durationTicks": 96,
            "midi": 40,
            "name": "E2",
            "ticks": 19296,
            "time": 21.083895000000002,
            "velocity": 0.3937007874015748
          },
          {
            "duration": 0.10489499999999907,
            "durationTicks": 96,
            "midi": 43,
            "name": "G2",
            "ticks": 19296,
            "time": 21.083895000000002,
            "velocity": 0.3937007874015748
          },
          {
            "duration": 0.10489499999999907,
            "durationTicks": 96,
            "midi": 42,
            "name": "F#2",
            "ticks": 19392,
            "time": 21.18879,
            "velocity": 0.3937007874015748
          },
          {
            "duration": 0.10489499999999907,
            "durationTicks": 96,
            "midi": 38,
            "name": "D2",
            "ticks": 19392,
            "time": 21.18879,
            "velocity": 0.3937007874015748
          },
          {
            "duration": 0.10489499999999907,
            "durationTicks": 96,
            "midi": 40,
            "name": "E2",
            "ticks": 19392,
            "time": 21.18879,
            "velocity": 0.3937007874015748
          },
          {
            "duration": 0.10489499999999907,
            "durationTicks": 96,
            "midi": 36,
            "name": "C2",
            "ticks": 19488,
            "time": 21.293685,
            "velocity": 0.3937007874015748
          },
          {
            "duration": 0.10489499999999907,
            "durationTicks": 96,
            "midi": 38,
            "name": "D2",
            "ticks": 19488,
            "time": 21.293685,
            "velocity": 0.3937007874015748
          },
          {
            "duration": 0.10489499999999907,
            "durationTicks": 96,
            "midi": 40,
            "name": "E2",
            "ticks": 19488,
            "time": 21.293685,
            "velocity": 0.3937007874015748
          },
          {
            "duration": 0.10489500000000263,
            "durationTicks": 96,
            "midi": 38,
            "name": "D2",
            "ticks": 19584,
            "time": 21.39858,
            "velocity": 0.3937007874015748
          },
          {
            "duration": 0.10489500000000263,
            "durationTicks": 96,
            "midi": 36,
            "name": "C2",
            "ticks": 19584,
            "time": 21.39858,
            "velocity": 0.3937007874015748
          },
          {
            "duration": 0.10489500000000263,
            "durationTicks": 96,
            "midi": 33,
            "name": "A1",
            "ticks": 19584,
            "time": 21.39858,
            "velocity": 0.3937007874015748
          },
          {
            "duration": 0.10489499999999907,
            "durationTicks": 96,
            "midi": 36,
            "name": "C2",
            "ticks": 19680,
            "time": 21.503475,
            "velocity": 0.3937007874015748
          },
          {
            "duration": 0.10489499999999907,
            "durationTicks": 96,
            "midi": 33,
            "name": "A1",
            "ticks": 19680,
            "time": 21.503475,
            "velocity": 0.3937007874015748
          },
          {
            "duration": 0.10489499999999907,
            "durationTicks": 96,
            "midi": 36,
            "name": "C2",
            "ticks": 19680,
            "time": 21.503475,
            "velocity": 0.3937007874015748
          },
          {
            "duration": 0.10489499999999907,
            "durationTicks": 96,
            "midi": 33,
            "name": "A1",
            "ticks": 19776,
            "time": 21.60837,
            "velocity": 0.3937007874015748
          },
          {
            "duration": 0.10489499999999907,
            "durationTicks": 96,
            "midi": 36,
            "name": "C2",
            "ticks": 19776,
            "time": 21.60837,
            "velocity": 0.3937007874015748
          },
          {
            "duration": 0.10489499999999907,
            "durationTicks": 96,
            "midi": 31,
            "name": "G1",
            "ticks": 19776,
            "time": 21.60837,
            "velocity": 0.3937007874015748
          },
          {
            "duration": 0.10489499999999907,
            "durationTicks": 96,
            "midi": 29,
            "name": "F1",
            "ticks": 19872,
            "time": 21.713265,
            "velocity": 0.3937007874015748
          },
          {
            "duration": 0.10489499999999907,
            "durationTicks": 96,
            "midi": 31,
            "name": "G1",
            "ticks": 19872,
            "time": 21.713265,
            "velocity": 0.3937007874015748
          },
          {
            "duration": 0.10489499999999907,
            "durationTicks": 96,
            "midi": 36,
            "name": "C2",
            "ticks": 19872,
            "time": 21.713265,
            "velocity": 0.3937007874015748
          },
          {
            "duration": 0.10489500000000263,
            "durationTicks": 96,
            "midi": 31,
            "name": "G1",
            "ticks": 19968,
            "time": 21.81816,
            "velocity": 0.3937007874015748
          },
          {
            "duration": 0.10489500000000263,
            "durationTicks": 96,
            "midi": 29,
            "name": "F1",
            "ticks": 19968,
            "time": 21.81816,
            "velocity": 0.3937007874015748
          },
          {
            "duration": 0.10489500000000263,
            "durationTicks": 96,
            "midi": 26,
            "name": "D1",
            "ticks": 19968,
            "time": 21.81816,
            "velocity": 0.3937007874015748
          },
          {
            "duration": 0.10489499999999907,
            "durationTicks": 96,
            "midi": 33,
            "name": "A1",
            "ticks": 20064,
            "time": 21.923055,
            "velocity": 0.3937007874015748
          },
          {
            "duration": 0.10489499999999907,
            "durationTicks": 96,
            "midi": 26,
            "name": "D1",
            "ticks": 20064,
            "time": 21.923055,
            "velocity": 0.3937007874015748
          },
          {
            "duration": 0.10489499999999907,
            "durationTicks": 96,
            "midi": 29,
            "name": "F1",
            "ticks": 20064,
            "time": 21.923055,
            "velocity": 0.3937007874015748
          },
          {
            "duration": 0.10489499999999907,
            "durationTicks": 96,
            "midi": 33,
            "name": "A1",
            "ticks": 20160,
            "time": 22.02795,
            "velocity": 0.3937007874015748
          },
          {
            "duration": 0.10489499999999907,
            "durationTicks": 96,
            "midi": 32,
            "name": "G#1",
            "ticks": 20160,
            "time": 22.02795,
            "velocity": 0.3937007874015748
          },
          {
            "duration": 0.10489499999999907,
            "durationTicks": 96,
            "midi": 26,
            "name": "D1",
            "ticks": 20160,
            "time": 22.02795,
            "velocity": 0.3937007874015748
          },
          {
            "duration": 0.10489499999999907,
            "durationTicks": 96,
            "midi": 32,
            "name": "G#1",
            "ticks": 20256,
            "time": 22.132845,
            "velocity": 0.3937007874015748
          },
          {
            "duration": 0.10489499999999907,
            "durationTicks": 96,
            "midi": 33,
            "name": "A1",
            "ticks": 20256,
            "time": 22.132845,
            "velocity": 0.3937007874015748
          },
          {
            "duration": 0.10489499999999907,
            "durationTicks": 96,
            "midi": 31,
            "name": "G1",
            "ticks": 20256,
            "time": 22.132845,
            "velocity": 0.3937007874015748
          },
          {
            "duration": 0.10489500000000263,
            "durationTicks": 96,
            "midi": 32,
            "name": "G#1",
            "ticks": 20352,
            "time": 22.23774,
            "velocity": 0.3937007874015748
          },
          {
            "duration": 0.10489500000000263,
            "durationTicks": 96,
            "midi": 31,
            "name": "G1",
            "ticks": 20352,
            "time": 22.23774,
            "velocity": 0.3937007874015748
          },
          {
            "duration": 0.10489500000000263,
            "durationTicks": 96,
            "midi": 38,
            "name": "D2",
            "ticks": 20352,
            "time": 22.23774,
            "velocity": 0.3937007874015748
          },
          {
            "duration": 0.10489499999999907,
            "durationTicks": 96,
            "midi": 37,
            "name": "C#2",
            "ticks": 20448,
            "time": 22.342635,
            "velocity": 0.3937007874015748
          },
          {
            "duration": 0.10489499999999907,
            "durationTicks": 96,
            "midi": 31,
            "name": "G1",
            "ticks": 20448,
            "time": 22.342635,
            "velocity": 0.3937007874015748
          },
          {
            "duration": 0.10489499999999907,
            "durationTicks": 96,
            "midi": 38,
            "name": "D2",
            "ticks": 20448,
            "time": 22.342635,
            "velocity": 0.3937007874015748
          },
          {
            "duration": 0.10489499999999907,
            "durationTicks": 96,
            "midi": 38,
            "name": "D2",
            "ticks": 20544,
            "time": 22.44753,
            "velocity": 0.3937007874015748
          },
          {
            "duration": 0.10489499999999907,
            "durationTicks": 96,
            "midi": 37,
            "name": "C#2",
            "ticks": 20544,
            "time": 22.44753,
            "velocity": 0.3937007874015748
          },
          {
            "duration": 0.10489499999999907,
            "durationTicks": 96,
            "midi": 36,
            "name": "C2",
            "ticks": 20544,
            "time": 22.44753,
            "velocity": 0.3937007874015748
          },
          {
            "duration": 0.10489500000000263,
            "durationTicks": 96,
            "midi": 37,
            "name": "C#2",
            "ticks": 20640,
            "time": 22.552425,
            "velocity": 0.3937007874015748
          },
          {
            "duration": 0.10489500000000263,
            "durationTicks": 96,
            "midi": 43,
            "name": "G2",
            "ticks": 20640,
            "time": 22.552425,
            "velocity": 0.3937007874015748
          },
          {
            "duration": 0.10489500000000263,
            "durationTicks": 96,
            "midi": 36,
            "name": "C2",
            "ticks": 20640,
            "time": 22.552425,
            "velocity": 0.3937007874015748
          },
          {
            "duration": 0.10489499999999907,
            "durationTicks": 96,
            "midi": 43,
            "name": "G2",
            "ticks": 20736,
            "time": 22.657320000000002,
            "velocity": 0.3937007874015748
          },
          {
            "duration": 0.10489499999999907,
            "durationTicks": 96,
            "midi": 42,
            "name": "F#2",
            "ticks": 20736,
            "time": 22.657320000000002,
            "velocity": 0.3937007874015748
          },
          {
            "duration": 0.10489499999999907,
            "durationTicks": 96,
            "midi": 36,
            "name": "C2",
            "ticks": 20736,
            "time": 22.657320000000002,
            "velocity": 0.3937007874015748
          },
          {
            "duration": 0.10489499999999907,
            "durationTicks": 96,
            "midi": 40,
            "name": "E2",
            "ticks": 20832,
            "time": 22.762215,
            "velocity": 0.3937007874015748
          },
          {
            "duration": 0.10489499999999907,
            "durationTicks": 96,
            "midi": 42,
            "name": "F#2",
            "ticks": 20832,
            "time": 22.762215,
            "velocity": 0.3937007874015748
          },
          {
            "duration": 0.10489499999999907,
            "durationTicks": 96,
            "midi": 43,
            "name": "G2",
            "ticks": 20832,
            "time": 22.762215,
            "velocity": 0.3937007874015748
          },
          {
            "duration": 0.10489499999999907,
            "durationTicks": 96,
            "midi": 42,
            "name": "F#2",
            "ticks": 20928,
            "time": 22.86711,
            "velocity": 0.3937007874015748
          },
          {
            "duration": 0.10489499999999907,
            "durationTicks": 96,
            "midi": 38,
            "name": "D2",
            "ticks": 20928,
            "time": 22.86711,
            "velocity": 0.3937007874015748
          },
          {
            "duration": 0.10489499999999907,
            "durationTicks": 96,
            "midi": 40,
            "name": "E2",
            "ticks": 20928,
            "time": 22.86711,
            "velocity": 0.3937007874015748
          },
          {
            "duration": 0.10489500000000263,
            "durationTicks": 96,
            "midi": 36,
            "name": "C2",
            "ticks": 21024,
            "time": 22.972005,
            "velocity": 0.3937007874015748
          },
          {
            "duration": 0.10489500000000263,
            "durationTicks": 96,
            "midi": 38,
            "name": "D2",
            "ticks": 21024,
            "time": 22.972005,
            "velocity": 0.3937007874015748
          },
          {
            "duration": 0.10489500000000263,
            "durationTicks": 96,
            "midi": 40,
            "name": "E2",
            "ticks": 21024,
            "time": 22.972005,
            "velocity": 0.3937007874015748
          },
          {
            "duration": 0.10489499999999907,
            "durationTicks": 96,
            "midi": 33,
            "name": "A1",
            "ticks": 21120,
            "time": 23.076900000000002,
            "velocity": 0.3937007874015748
          },
          {
            "duration": 0.10489499999999907,
            "durationTicks": 96,
            "midi": 36,
            "name": "C2",
            "ticks": 21120,
            "time": 23.076900000000002,
            "velocity": 0.3937007874015748
          },
          {
            "duration": 0.10489499999999907,
            "durationTicks": 96,
            "midi": 38,
            "name": "D2",
            "ticks": 21120,
            "time": 23.076900000000002,
            "velocity": 0.3937007874015748
          },
          {
            "duration": 0.10489499999999907,
            "durationTicks": 96,
            "midi": 36,
            "name": "C2",
            "ticks": 21216,
            "time": 23.181795,
            "velocity": 0.3937007874015748
          },
          {
            "duration": 0.10489499999999907,
            "durationTicks": 96,
            "midi": 36,
            "name": "C2",
            "ticks": 21216,
            "time": 23.181795,
            "velocity": 0.3937007874015748
          },
          {
            "duration": 0.10489499999999907,
            "durationTicks": 96,
            "midi": 33,
            "name": "A1",
            "ticks": 21216,
            "time": 23.181795,
            "velocity": 0.3937007874015748
          },
          {
            "duration": 0.10489499999999907,
            "durationTicks": 96,
            "midi": 36,
            "name": "C2",
            "ticks": 21312,
            "time": 23.28669,
            "velocity": 0.3937007874015748
          },
          {
            "duration": 0.10489499999999907,
            "durationTicks": 96,
            "midi": 33,
            "name": "A1",
            "ticks": 21312,
            "time": 23.28669,
            "velocity": 0.3937007874015748
          },
          {
            "duration": 0.10489499999999907,
            "durationTicks": 96,
            "midi": 31,
            "name": "G1",
            "ticks": 21312,
            "time": 23.28669,
            "velocity": 0.3937007874015748
          },
          {
            "duration": 0.10489500000000263,
            "durationTicks": 96,
            "midi": 36,
            "name": "C2",
            "ticks": 21408,
            "time": 23.391585,
            "velocity": 0.3937007874015748
          },
          {
            "duration": 0.10489500000000263,
            "durationTicks": 96,
            "midi": 31,
            "name": "G1",
            "ticks": 21408,
            "time": 23.391585,
            "velocity": 0.3937007874015748
          },
          {
            "duration": 0.10489500000000263,
            "durationTicks": 96,
            "midi": 29,
            "name": "F1",
            "ticks": 21408,
            "time": 23.391585,
            "velocity": 0.3937007874015748
          },
          {
            "duration": 0.10489499999999907,
            "durationTicks": 96,
            "midi": 29,
            "name": "F1",
            "ticks": 21504,
            "time": 23.496480000000002,
            "velocity": 0.3937007874015748
          },
          {
            "duration": 0.10489499999999907,
            "durationTicks": 96,
            "midi": 26,
            "name": "D1",
            "ticks": 21504,
            "time": 23.496480000000002,
            "velocity": 0.3937007874015748
          },
          {
            "duration": 0.10489499999999907,
            "durationTicks": 96,
            "midi": 31,
            "name": "G1",
            "ticks": 21504,
            "time": 23.496480000000002,
            "velocity": 0.3937007874015748
          },
          {
            "duration": 0.10489499999999907,
            "durationTicks": 96,
            "midi": 33,
            "name": "A1",
            "ticks": 21600,
            "time": 23.601375,
            "velocity": 0.3937007874015748
          },
          {
            "duration": 0.10489499999999907,
            "durationTicks": 96,
            "midi": 26,
            "name": "D1",
            "ticks": 21600,
            "time": 23.601375,
            "velocity": 0.3937007874015748
          },
          {
            "duration": 0.10489499999999907,
            "durationTicks": 96,
            "midi": 29,
            "name": "F1",
            "ticks": 21600,
            "time": 23.601375,
            "velocity": 0.3937007874015748
          },
          {
            "duration": 0.10489499999999907,
            "durationTicks": 96,
            "midi": 32,
            "name": "G#1",
            "ticks": 21696,
            "time": 23.70627,
            "velocity": 0.3937007874015748
          },
          {
            "duration": 0.10489499999999907,
            "durationTicks": 96,
            "midi": 33,
            "name": "A1",
            "ticks": 21696,
            "time": 23.70627,
            "velocity": 0.3937007874015748
          },
          {
            "duration": 0.10489499999999907,
            "durationTicks": 96,
            "midi": 26,
            "name": "D1",
            "ticks": 21696,
            "time": 23.70627,
            "velocity": 0.3937007874015748
          },
          {
            "duration": 0.10489500000000263,
            "durationTicks": 96,
            "midi": 31,
            "name": "G1",
            "ticks": 21792,
            "time": 23.811165,
            "velocity": 0.3937007874015748
          },
          {
            "duration": 0.10489500000000263,
            "durationTicks": 96,
            "midi": 33,
            "name": "A1",
            "ticks": 21792,
            "time": 23.811165,
            "velocity": 0.3937007874015748
          },
          {
            "duration": 0.10489500000000263,
            "durationTicks": 96,
            "midi": 32,
            "name": "G#1",
            "ticks": 21792,
            "time": 23.811165,
            "velocity": 0.3937007874015748
          },
          {
            "duration": 0.10489499999999907,
            "durationTicks": 96,
            "midi": 38,
            "name": "D2",
            "ticks": 21888,
            "time": 23.91606,
            "velocity": 0.3937007874015748
          },
          {
            "duration": 0.10489499999999907,
            "durationTicks": 96,
            "midi": 32,
            "name": "G#1",
            "ticks": 21888,
            "time": 23.91606,
            "velocity": 0.3937007874015748
          },
          {
            "duration": 0.10489499999999907,
            "durationTicks": 96,
            "midi": 31,
            "name": "G1",
            "ticks": 21888,
            "time": 23.91606,
            "velocity": 0.3937007874015748
          },
          {
            "duration": 0.10489499999999907,
            "durationTicks": 96,
            "midi": 31,
            "name": "G1",
            "ticks": 21984,
            "time": 24.020955,
            "velocity": 0.3937007874015748
          },
          {
            "duration": 0.10489499999999907,
            "durationTicks": 96,
            "midi": 38,
            "name": "D2",
            "ticks": 21984,
            "time": 24.020955,
            "velocity": 0.3937007874015748
          },
          {
            "duration": 0.10489499999999907,
            "durationTicks": 96,
            "midi": 37,
            "name": "C#2",
            "ticks": 21984,
            "time": 24.020955,
            "velocity": 0.3937007874015748
          },
          {
            "duration": 0.10489499999999907,
            "durationTicks": 96,
            "midi": 38,
            "name": "D2",
            "ticks": 22080,
            "time": 24.12585,
            "velocity": 0.3937007874015748
          },
          {
            "duration": 0.10489499999999907,
            "durationTicks": 96,
            "midi": 37,
            "name": "C#2",
            "ticks": 22080,
            "time": 24.12585,
            "velocity": 0.3937007874015748
          },
          {
            "duration": 0.10489499999999907,
            "durationTicks": 96,
            "midi": 36,
            "name": "C2",
            "ticks": 22080,
            "time": 24.12585,
            "velocity": 0.3937007874015748
          },
          {
            "duration": 0.10489500000000263,
            "durationTicks": 96,
            "midi": 43,
            "name": "G2",
            "ticks": 22176,
            "time": 24.230745,
            "velocity": 0.3937007874015748
          },
          {
            "duration": 0.10489500000000263,
            "durationTicks": 96,
            "midi": 37,
            "name": "C#2",
            "ticks": 22176,
            "time": 24.230745,
            "velocity": 0.3937007874015748
          },
          {
            "duration": 0.10489500000000263,
            "durationTicks": 96,
            "midi": 36,
            "name": "C2",
            "ticks": 22176,
            "time": 24.230745,
            "velocity": 0.3937007874015748
          },
          {
            "duration": 0.10489499999999907,
            "durationTicks": 96,
            "midi": 42,
            "name": "F#2",
            "ticks": 22272,
            "time": 24.33564,
            "velocity": 0.3937007874015748
          },
          {
            "duration": 0.10489499999999907,
            "durationTicks": 96,
            "midi": 43,
            "name": "G2",
            "ticks": 22272,
            "time": 24.33564,
            "velocity": 0.3937007874015748
          },
          {
            "duration": 0.10489499999999907,
            "durationTicks": 96,
            "midi": 36,
            "name": "C2",
            "ticks": 22272,
            "time": 24.33564,
            "velocity": 0.3937007874015748
          },
          {
            "duration": 0.10489499999999907,
            "durationTicks": 96,
            "midi": 40,
            "name": "E2",
            "ticks": 22368,
            "time": 24.440535,
            "velocity": 0.3937007874015748
          },
          {
            "duration": 0.10489499999999907,
            "durationTicks": 96,
            "midi": 43,
            "name": "G2",
            "ticks": 22368,
            "time": 24.440535,
            "velocity": 0.3937007874015748
          },
          {
            "duration": 0.10489499999999907,
            "durationTicks": 96,
            "midi": 42,
            "name": "F#2",
            "ticks": 22368,
            "time": 24.440535,
            "velocity": 0.3937007874015748
          },
          {
            "duration": 0.10489500000000263,
            "durationTicks": 96,
            "midi": 42,
            "name": "F#2",
            "ticks": 22464,
            "time": 24.54543,
            "velocity": 0.3937007874015748
          },
          {
            "duration": 0.10489500000000263,
            "durationTicks": 96,
            "midi": 38,
            "name": "D2",
            "ticks": 22464,
            "time": 24.54543,
            "velocity": 0.3937007874015748
          },
          {
            "duration": 0.10489500000000263,
            "durationTicks": 96,
            "midi": 40,
            "name": "E2",
            "ticks": 22464,
            "time": 24.54543,
            "velocity": 0.3937007874015748
          },
          {
            "duration": 0.10489499999999907,
            "durationTicks": 96,
            "midi": 38,
            "name": "D2",
            "ticks": 22560,
            "time": 24.650325000000002,
            "velocity": 0.3937007874015748
          },
          {
            "duration": 0.10489499999999907,
            "durationTicks": 96,
            "midi": 36,
            "name": "C2",
            "ticks": 22560,
            "time": 24.650325000000002,
            "velocity": 0.3937007874015748
          },
          {
            "duration": 0.10489499999999907,
            "durationTicks": 96,
            "midi": 40,
            "name": "E2",
            "ticks": 22560,
            "time": 24.650325000000002,
            "velocity": 0.3937007874015748
          },
          {
            "duration": 0.10489499999999907,
            "durationTicks": 96,
            "midi": 38,
            "name": "D2",
            "ticks": 22656,
            "time": 24.75522,
            "velocity": 0.3937007874015748
          },
          {
            "duration": 0.10489499999999907,
            "durationTicks": 96,
            "midi": 36,
            "name": "C2",
            "ticks": 22656,
            "time": 24.75522,
            "velocity": 0.3937007874015748
          },
          {
            "duration": 0.10489499999999907,
            "durationTicks": 96,
            "midi": 33,
            "name": "A1",
            "ticks": 22656,
            "time": 24.75522,
            "velocity": 0.3937007874015748
          },
          {
            "duration": 0.10489499999999907,
            "durationTicks": 96,
            "midi": 33,
            "name": "A1",
            "ticks": 22752,
            "time": 24.860115,
            "velocity": 0.3937007874015748
          },
          {
            "duration": 0.10489499999999907,
            "durationTicks": 96,
            "midi": 36,
            "name": "C2",
            "ticks": 22752,
            "time": 24.860115,
            "velocity": 0.3937007874015748
          },
          {
            "duration": 0.10489499999999907,
            "durationTicks": 96,
            "midi": 36,
            "name": "C2",
            "ticks": 22752,
            "time": 24.860115,
            "velocity": 0.3937007874015748
          },
          {
            "duration": 0.10489500000000263,
            "durationTicks": 96,
            "midi": 36,
            "name": "C2",
            "ticks": 22848,
            "time": 24.96501,
            "velocity": 0.3937007874015748
          },
          {
            "duration": 0.10489500000000263,
            "durationTicks": 96,
            "midi": 31,
            "name": "G1",
            "ticks": 22848,
            "time": 24.96501,
            "velocity": 0.3937007874015748
          },
          {
            "duration": 0.10489500000000263,
            "durationTicks": 96,
            "midi": 33,
            "name": "A1",
            "ticks": 22848,
            "time": 24.96501,
            "velocity": 0.3937007874015748
          },
          {
            "duration": 0.10489499999999907,
            "durationTicks": 96,
            "midi": 31,
            "name": "G1",
            "ticks": 22944,
            "time": 25.069905000000002,
            "velocity": 0.3937007874015748
          },
          {
            "duration": 0.10489499999999907,
            "durationTicks": 96,
            "midi": 36,
            "name": "C2",
            "ticks": 22944,
            "time": 25.069905000000002,
            "velocity": 0.3937007874015748
          },
          {
            "duration": 0.10489499999999907,
            "durationTicks": 96,
            "midi": 29,
            "name": "F1",
            "ticks": 22944,
            "time": 25.069905000000002,
            "velocity": 0.3937007874015748
          },
          {
            "duration": 0.10489499999999907,
            "durationTicks": 96,
            "midi": 26,
            "name": "D1",
            "ticks": 23040,
            "time": 25.1748,
            "velocity": 0.3937007874015748
          },
          {
            "duration": 0.10489499999999907,
            "durationTicks": 96,
            "midi": 29,
            "name": "F1",
            "ticks": 23040,
            "time": 25.1748,
            "velocity": 0.3937007874015748
          },
          {
            "duration": 0.10489499999999907,
            "durationTicks": 96,
            "midi": 31,
            "name": "G1",
            "ticks": 23040,
            "time": 25.1748,
            "velocity": 0.3937007874015748
          },
          {
            "duration": 0.10489499999999907,
            "durationTicks": 96,
            "midi": 29,
            "name": "F1",
            "ticks": 23136,
            "time": 25.279695,
            "velocity": 0.3937007874015748
          },
          {
            "duration": 0.10489499999999907,
            "durationTicks": 96,
            "midi": 26,
            "name": "D1",
            "ticks": 23136,
            "time": 25.279695,
            "velocity": 0.3937007874015748
          },
          {
            "duration": 0.10489499999999907,
            "durationTicks": 96,
            "midi": 33,
            "name": "A1",
            "ticks": 23136,
            "time": 25.279695,
            "velocity": 0.3937007874015748
          },
          {
            "duration": 0.10489500000000263,
            "durationTicks": 96,
            "midi": 33,
            "name": "A1",
            "ticks": 23232,
            "time": 25.38459,
            "velocity": 0.3937007874015748
          },
          {
            "duration": 0.10489500000000263,
            "durationTicks": 96,
            "midi": 32,
            "name": "G#1",
            "ticks": 23232,
            "time": 25.38459,
            "velocity": 0.3937007874015748
          },
          {
            "duration": 0.10489500000000263,
            "durationTicks": 96,
            "midi": 26,
            "name": "D1",
            "ticks": 23232,
            "time": 25.38459,
            "velocity": 0.3937007874015748
          },
          {
            "duration": 0.10489499999999907,
            "durationTicks": 96,
            "midi": 31,
            "name": "G1",
            "ticks": 23328,
            "time": 25.489485000000002,
            "velocity": 0.3937007874015748
          },
          {
            "duration": 0.10489499999999907,
            "durationTicks": 96,
            "midi": 33,
            "name": "A1",
            "ticks": 23328,
            "time": 25.489485000000002,
            "velocity": 0.3937007874015748
          },
          {
            "duration": 0.10489499999999907,
            "durationTicks": 96,
            "midi": 32,
            "name": "G#1",
            "ticks": 23328,
            "time": 25.489485000000002,
            "velocity": 0.3937007874015748
          },
          {
            "duration": 0.10489499999999907,
            "durationTicks": 96,
            "midi": 38,
            "name": "D2",
            "ticks": 23424,
            "time": 25.59438,
            "velocity": 0.3937007874015748
          },
          {
            "duration": 0.10489499999999907,
            "durationTicks": 96,
            "midi": 31,
            "name": "G1",
            "ticks": 23424,
            "time": 25.59438,
            "velocity": 0.3937007874015748
          },
          {
            "duration": 0.10489499999999907,
            "durationTicks": 96,
            "midi": 32,
            "name": "G#1",
            "ticks": 23424,
            "time": 25.59438,
            "velocity": 0.3937007874015748
          },
          {
            "duration": 0.10489499999999907,
            "durationTicks": 96,
            "midi": 31,
            "name": "G1",
            "ticks": 23520,
            "time": 25.699275,
            "velocity": 0.3937007874015748
          },
          {
            "duration": 0.10489499999999907,
            "durationTicks": 96,
            "midi": 38,
            "name": "D2",
            "ticks": 23520,
            "time": 25.699275,
            "velocity": 0.3937007874015748
          },
          {
            "duration": 0.10489499999999907,
            "durationTicks": 96,
            "midi": 37,
            "name": "C#2",
            "ticks": 23520,
            "time": 25.699275,
            "velocity": 0.3937007874015748
          },
          {
            "duration": 0.10489500000000263,
            "durationTicks": 96,
            "midi": 36,
            "name": "C2",
            "ticks": 23616,
            "time": 25.80417,
            "velocity": 0.3937007874015748
          },
          {
            "duration": 0.10489500000000263,
            "durationTicks": 96,
            "midi": 37,
            "name": "C#2",
            "ticks": 23616,
            "time": 25.80417,
            "velocity": 0.3937007874015748
          },
          {
            "duration": 0.10489500000000263,
            "durationTicks": 96,
            "midi": 38,
            "name": "D2",
            "ticks": 23616,
            "time": 25.80417,
            "velocity": 0.3937007874015748
          },
          {
            "duration": 0.10489499999999907,
            "durationTicks": 96,
            "midi": 36,
            "name": "C2",
            "ticks": 23712,
            "time": 25.909065000000002,
            "velocity": 0.3937007874015748
          },
          {
            "duration": 0.10489499999999907,
            "durationTicks": 96,
            "midi": 37,
            "name": "C#2",
            "ticks": 23712,
            "time": 25.909065000000002,
            "velocity": 0.3937007874015748
          },
          {
            "duration": 0.10489499999999907,
            "durationTicks": 96,
            "midi": 43,
            "name": "G2",
            "ticks": 23712,
            "time": 25.909065000000002,
            "velocity": 0.3937007874015748
          },
          {
            "duration": 0.10489499999999907,
            "durationTicks": 96,
            "midi": 42,
            "name": "F#2",
            "ticks": 23808,
            "time": 26.01396,
            "velocity": 0.3937007874015748
          },
          {
            "duration": 0.10489499999999907,
            "durationTicks": 96,
            "midi": 43,
            "name": "G2",
            "ticks": 23808,
            "time": 26.01396,
            "velocity": 0.3937007874015748
          },
          {
            "duration": 0.10489499999999907,
            "durationTicks": 96,
            "midi": 36,
            "name": "C2",
            "ticks": 23808,
            "time": 26.01396,
            "velocity": 0.3937007874015748
          },
          {
            "duration": 0.10489499999999907,
            "durationTicks": 96,
            "midi": 40,
            "name": "E2",
            "ticks": 23904,
            "time": 26.118855,
            "velocity": 0.3937007874015748
          },
          {
            "duration": 0.10489499999999907,
            "durationTicks": 96,
            "midi": 43,
            "name": "G2",
            "ticks": 23904,
            "time": 26.118855,
            "velocity": 0.3937007874015748
          },
          {
            "duration": 0.10489499999999907,
            "durationTicks": 96,
            "midi": 42,
            "name": "F#2",
            "ticks": 23904,
            "time": 26.118855,
            "velocity": 0.3937007874015748
          },
          {
            "duration": 0.10489500000000263,
            "durationTicks": 96,
            "midi": 38,
            "name": "D2",
            "ticks": 24000,
            "time": 26.22375,
            "velocity": 0.3937007874015748
          },
          {
            "duration": 0.10489500000000263,
            "durationTicks": 96,
            "midi": 40,
            "name": "E2",
            "ticks": 24000,
            "time": 26.22375,
            "velocity": 0.3937007874015748
          },
          {
            "duration": 0.10489500000000263,
            "durationTicks": 96,
            "midi": 42,
            "name": "F#2",
            "ticks": 24000,
            "time": 26.22375,
            "velocity": 0.3937007874015748
          },
          {
            "duration": 0.10489499999999907,
            "durationTicks": 96,
            "midi": 36,
            "name": "C2",
            "ticks": 24096,
            "time": 26.328645,
            "velocity": 0.3937007874015748
          },
          {
            "duration": 0.10489499999999907,
            "durationTicks": 96,
            "midi": 38,
            "name": "D2",
            "ticks": 24096,
            "time": 26.328645,
            "velocity": 0.3937007874015748
          },
          {
            "duration": 0.10489499999999907,
            "durationTicks": 96,
            "midi": 40,
            "name": "E2",
            "ticks": 24096,
            "time": 26.328645,
            "velocity": 0.3937007874015748
          },
          {
            "duration": 0.10489499999999907,
            "durationTicks": 96,
            "midi": 38,
            "name": "D2",
            "ticks": 24192,
            "time": 26.43354,
            "velocity": 0.3937007874015748
          },
          {
            "duration": 0.10489499999999907,
            "durationTicks": 96,
            "midi": 36,
            "name": "C2",
            "ticks": 24192,
            "time": 26.43354,
            "velocity": 0.3937007874015748
          },
          {
            "duration": 0.10489499999999907,
            "durationTicks": 96,
            "midi": 33,
            "name": "A1",
            "ticks": 24192,
            "time": 26.43354,
            "velocity": 0.3937007874015748
          },
          {
            "duration": 0.10489499999999907,
            "durationTicks": 96,
            "midi": 36,
            "name": "C2",
            "ticks": 24288,
            "time": 26.538435,
            "velocity": 0.3937007874015748
          },
          {
            "duration": 0.10489499999999907,
            "durationTicks": 96,
            "midi": 33,
            "name": "A1",
            "ticks": 24288,
            "time": 26.538435,
            "velocity": 0.3937007874015748
          },
          {
            "duration": 0.10489499999999907,
            "durationTicks": 96,
            "midi": 36,
            "name": "C2",
            "ticks": 24288,
            "time": 26.538435,
            "velocity": 0.3937007874015748
          },
          {
            "duration": 0.10489500000000263,
            "durationTicks": 96,
            "midi": 33,
            "name": "A1",
            "ticks": 24384,
            "time": 26.64333,
            "velocity": 0.3937007874015748
          },
          {
            "duration": 0.10489500000000263,
            "durationTicks": 96,
            "midi": 36,
            "name": "C2",
            "ticks": 24384,
            "time": 26.64333,
            "velocity": 0.3937007874015748
          },
          {
            "duration": 0.10489500000000263,
            "durationTicks": 96,
            "midi": 31,
            "name": "G1",
            "ticks": 24384,
            "time": 26.64333,
            "velocity": 0.3937007874015748
          },
          {
            "duration": 0.10489499999999907,
            "durationTicks": 96,
            "midi": 29,
            "name": "F1",
            "ticks": 24480,
            "time": 26.748225,
            "velocity": 0.3937007874015748
          },
          {
            "duration": 0.10489499999999907,
            "durationTicks": 96,
            "midi": 36,
            "name": "C2",
            "ticks": 24480,
            "time": 26.748225,
            "velocity": 0.3937007874015748
          },
          {
            "duration": 0.10489499999999907,
            "durationTicks": 96,
            "midi": 31,
            "name": "G1",
            "ticks": 24480,
            "time": 26.748225,
            "velocity": 0.3937007874015748
          },
          {
            "duration": 0.10489499999999907,
            "durationTicks": 96,
            "midi": 29,
            "name": "F1",
            "ticks": 24576,
            "time": 26.85312,
            "velocity": 0.3937007874015748
          },
          {
            "duration": 0.10489499999999907,
            "durationTicks": 96,
            "midi": 31,
            "name": "G1",
            "ticks": 24576,
            "time": 26.85312,
            "velocity": 0.3937007874015748
          },
          {
            "duration": 0.10489500000000263,
            "durationTicks": 96,
            "midi": 29,
            "name": "F1",
            "ticks": 24672,
            "time": 26.958015,
            "velocity": 0.3937007874015748
          },
          {
            "duration": 0.10489499999999907,
            "durationTicks": 96,
            "midi": 38,
            "name": "D2",
            "ticks": 26112,
            "time": 28.53144,
            "velocity": 0.3937007874015748
          },
          {
            "duration": 0.10489499999999907,
            "durationTicks": 96,
            "midi": 50,
            "name": "D3",
            "ticks": 26304,
            "time": 28.74123,
            "velocity": 0.3937007874015748
          },
          {
            "duration": 0.10489499999999907,
            "durationTicks": 96,
            "midi": 38,
            "name": "D2",
            "ticks": 26496,
            "time": 28.95102,
            "velocity": 0.3937007874015748
          },
          {
            "duration": 0.10489499999999907,
            "durationTicks": 96,
            "midi": 50,
            "name": "D3",
            "ticks": 26688,
            "time": 29.16081,
            "velocity": 0.3937007874015748
          },
          {
            "duration": 0.10489500000000263,
            "durationTicks": 96,
            "midi": 38,
            "name": "D2",
            "ticks": 26880,
            "time": 29.3706,
            "velocity": 0.3937007874015748
          },
          {
            "duration": 0.10489499999999907,
            "durationTicks": 96,
            "midi": 50,
            "name": "D3",
            "ticks": 27072,
            "time": 29.58039,
            "velocity": 0.3937007874015748
          },
          {
            "duration": 0.10489500000000263,
            "durationTicks": 96,
            "midi": 38,
            "name": "D2",
            "ticks": 27264,
            "time": 29.79018,
            "velocity": 0.3937007874015748
          },
          {
            "duration": 0.10489499999999907,
            "durationTicks": 96,
            "midi": 50,
            "name": "D3",
            "ticks": 27456,
            "time": 29.99997,
            "velocity": 0.3937007874015748
          },
          {
            "duration": 0.10489500000000263,
            "durationTicks": 96,
            "midi": 37,
            "name": "C#2",
            "ticks": 27648,
            "time": 30.20976,
            "velocity": 0.3937007874015748
          },
          {
            "duration": 0.10489499999999907,
            "durationTicks": 96,
            "midi": 49,
            "name": "C#3",
            "ticks": 27840,
            "time": 30.41955,
            "velocity": 0.3937007874015748
          },
          {
            "duration": 0.10489500000000263,
            "durationTicks": 96,
            "midi": 37,
            "name": "C#2",
            "ticks": 28032,
            "time": 30.62934,
            "velocity": 0.3937007874015748
          },
          {
            "duration": 0.10489499999999907,
            "durationTicks": 96,
            "midi": 49,
            "name": "C#3",
            "ticks": 28224,
            "time": 30.83913,
            "velocity": 0.3937007874015748
          },
          {
            "duration": 0.10489500000000263,
            "durationTicks": 96,
            "midi": 38,
            "name": "D2",
            "ticks": 28416,
            "time": 31.04892,
            "velocity": 0.3937007874015748
          },
          {
            "duration": 0.10489499999999907,
            "durationTicks": 96,
            "midi": 50,
            "name": "D3",
            "ticks": 28608,
            "time": 31.25871,
            "velocity": 0.3937007874015748
          },
          {
            "duration": 0.10489499999999907,
            "durationTicks": 96,
            "midi": 38,
            "name": "D2",
            "ticks": 28800,
            "time": 31.468500000000002,
            "velocity": 0.3937007874015748
          },
          {
            "duration": 0.10489499999999907,
            "durationTicks": 96,
            "midi": 50,
            "name": "D3",
            "ticks": 28992,
            "time": 31.67829,
            "velocity": 0.3937007874015748
          },
          {
            "duration": 0.10489499999999907,
            "durationTicks": 96,
            "midi": 33,
            "name": "A1",
            "ticks": 29184,
            "time": 31.888080000000002,
            "velocity": 0.3937007874015748
          },
          {
            "duration": 0.10489499999999907,
            "durationTicks": 96,
            "midi": 45,
            "name": "A2",
            "ticks": 29376,
            "time": 32.09787,
            "velocity": 0.3937007874015748
          },
          {
            "duration": 0.10489499999999907,
            "durationTicks": 96,
            "midi": 33,
            "name": "A1",
            "ticks": 29568,
            "time": 32.30766,
            "velocity": 0.3937007874015748
          },
          {
            "duration": 0.10489499999999907,
            "durationTicks": 96,
            "midi": 45,
            "name": "A2",
            "ticks": 29760,
            "time": 32.517450000000004,
            "velocity": 0.3937007874015748
          },
          {
            "duration": 0.10489499999999907,
            "durationTicks": 96,
            "midi": 38,
            "name": "D2",
            "ticks": 29952,
            "time": 32.72724,
            "velocity": 0.3937007874015748
          },
          {
            "duration": 0.10489499999999907,
            "durationTicks": 96,
            "midi": 50,
            "name": "D3",
            "ticks": 30144,
            "time": 32.93703,
            "velocity": 0.3937007874015748
          },
          {
            "duration": 0.10489499999999907,
            "durationTicks": 96,
            "midi": 38,
            "name": "D2",
            "ticks": 30336,
            "time": 33.14682,
            "velocity": 0.3937007874015748
          },
          {
            "duration": 0.10489499999999907,
            "durationTicks": 96,
            "midi": 50,
            "name": "D3",
            "ticks": 30528,
            "time": 33.35661,
            "velocity": 0.3937007874015748
          },
          {
            "duration": 0.10489499999999907,
            "durationTicks": 96,
            "midi": 34,
            "name": "A#1",
            "ticks": 30720,
            "time": 33.5664,
            "velocity": 0.3937007874015748
          },
          {
            "duration": 0.10489499999999907,
            "durationTicks": 96,
            "midi": 46,
            "name": "A#2",
            "ticks": 30912,
            "time": 33.77619,
            "velocity": 0.3937007874015748
          },
          {
            "duration": 0.10489500000000618,
            "durationTicks": 96,
            "midi": 34,
            "name": "A#1",
            "ticks": 31104,
            "time": 33.98598,
            "velocity": 0.3937007874015748
          },
          {
            "duration": 0.10489499999999907,
            "durationTicks": 96,
            "midi": 46,
            "name": "A#2",
            "ticks": 31296,
            "time": 34.19577,
            "velocity": 0.3937007874015748
          },
          {
            "duration": 0.10489499999999907,
            "durationTicks": 96,
            "midi": 33,
            "name": "A1",
            "ticks": 31488,
            "time": 34.40556,
            "velocity": 0.3937007874015748
          },
          {
            "duration": 0.10489499999999907,
            "durationTicks": 96,
            "midi": 45,
            "name": "A2",
            "ticks": 31680,
            "time": 34.61535,
            "velocity": 0.3937007874015748
          },
          {
            "duration": 0.10489500000000618,
            "durationTicks": 96,
            "midi": 45,
            "name": "A2",
            "ticks": 31872,
            "time": 34.82514,
            "velocity": 0.3937007874015748
          },
          {
            "duration": 0.10489500000000618,
            "durationTicks": 96,
            "midi": 33,
            "name": "A1",
            "ticks": 31872,
            "time": 34.82514,
            "velocity": 0.3937007874015748
          },
          {
            "duration": 0.10489499999999907,
            "durationTicks": 96,
            "midi": 38,
            "name": "D2",
            "ticks": 32256,
            "time": 35.24472,
            "velocity": 0.3937007874015748
          },
          {
            "duration": 0.10489499999999907,
            "durationTicks": 96,
            "midi": 50,
            "name": "D3",
            "ticks": 32448,
            "time": 35.45451,
            "velocity": 0.3937007874015748
          },
          {
            "duration": 0.10489500000000618,
            "durationTicks": 96,
            "midi": 38,
            "name": "D2",
            "ticks": 32640,
            "time": 35.6643,
            "velocity": 0.3937007874015748
          },
          {
            "duration": 0.10489499999999907,
            "durationTicks": 96,
            "midi": 50,
            "name": "D3",
            "ticks": 32832,
            "time": 35.87409,
            "velocity": 0.3937007874015748
          },
          {
            "duration": 0.10489499999999907,
            "durationTicks": 96,
            "midi": 38,
            "name": "D2",
            "ticks": 33024,
            "time": 36.08388,
            "velocity": 0.3937007874015748
          },
          {
            "duration": 0.10489499999999907,
            "durationTicks": 96,
            "midi": 50,
            "name": "D3",
            "ticks": 33216,
            "time": 36.29367,
            "velocity": 0.3937007874015748
          },
          {
            "duration": 0.10489499999999907,
            "durationTicks": 96,
            "midi": 38,
            "name": "D2",
            "ticks": 33408,
            "time": 36.503460000000004,
            "velocity": 0.3937007874015748
          },
          {
            "duration": 0.10489499999999907,
            "durationTicks": 96,
            "midi": 50,
            "name": "D3",
            "ticks": 33600,
            "time": 36.71325,
            "velocity": 0.3937007874015748
          },
          {
            "duration": 0.10489499999999907,
            "durationTicks": 96,
            "midi": 37,
            "name": "C#2",
            "ticks": 33792,
            "time": 36.92304,
            "velocity": 0.3937007874015748
          },
          {
            "duration": 0.10489499999999907,
            "durationTicks": 96,
            "midi": 49,
            "name": "C#3",
            "ticks": 33984,
            "time": 37.13283,
            "velocity": 0.3937007874015748
          },
          {
            "duration": 0.10489499999999907,
            "durationTicks": 96,
            "midi": 37,
            "name": "C#2",
            "ticks": 34176,
            "time": 37.342620000000004,
            "velocity": 0.3937007874015748
          },
          {
            "duration": 0.10489499999999907,
            "durationTicks": 96,
            "midi": 49,
            "name": "C#3",
            "ticks": 34368,
            "time": 37.55241,
            "velocity": 0.3937007874015748
          },
          {
            "duration": 0.10489499999999907,
            "durationTicks": 96,
            "midi": 38,
            "name": "D2",
            "ticks": 34560,
            "time": 37.7622,
            "velocity": 0.3937007874015748
          },
          {
            "duration": 0.10489500000000618,
            "durationTicks": 96,
            "midi": 50,
            "name": "D3",
            "ticks": 34752,
            "time": 37.97199,
            "velocity": 0.3937007874015748
          },
          {
            "duration": 0.10489499999999907,
            "durationTicks": 96,
            "midi": 38,
            "name": "D2",
            "ticks": 34944,
            "time": 38.18178,
            "velocity": 0.3937007874015748
          },
          {
            "duration": 0.10489499999999907,
            "durationTicks": 96,
            "midi": 50,
            "name": "D3",
            "ticks": 35136,
            "time": 38.39157,
            "velocity": 0.3937007874015748
          },
          {
            "duration": 0.10489499999999907,
            "durationTicks": 96,
            "midi": 33,
            "name": "A1",
            "ticks": 35328,
            "time": 38.60136,
            "velocity": 0.3937007874015748
          },
          {
            "duration": 0.10489500000000618,
            "durationTicks": 96,
            "midi": 45,
            "name": "A2",
            "ticks": 35520,
            "time": 38.81115,
            "velocity": 0.3937007874015748
          },
          {
            "duration": 0.10489499999999907,
            "durationTicks": 96,
            "midi": 33,
            "name": "A1",
            "ticks": 35712,
            "time": 39.02094,
            "velocity": 0.3937007874015748
          },
          {
            "duration": 0.10489499999999907,
            "durationTicks": 96,
            "midi": 45,
            "name": "A2",
            "ticks": 35904,
            "time": 39.23073,
            "velocity": 0.3937007874015748
          },
          {
            "duration": 0.10489499999999907,
            "durationTicks": 96,
            "midi": 38,
            "name": "D2",
            "ticks": 36096,
            "time": 39.44052,
            "velocity": 0.3937007874015748
          },
          {
            "duration": 0.10489500000000618,
            "durationTicks": 96,
            "midi": 50,
            "name": "D3",
            "ticks": 36288,
            "time": 39.65031,
            "velocity": 0.3937007874015748
          },
          {
            "duration": 0.10489499999999907,
            "durationTicks": 96,
            "midi": 38,
            "name": "D2",
            "ticks": 36480,
            "time": 39.8601,
            "velocity": 0.3937007874015748
          },
          {
            "duration": 0.10489499999999907,
            "durationTicks": 96,
            "midi": 50,
            "name": "D3",
            "ticks": 36672,
            "time": 40.06989,
            "velocity": 0.3937007874015748
          },
          {
            "duration": 0.10489499999999907,
            "durationTicks": 96,
            "midi": 34,
            "name": "A#1",
            "ticks": 36864,
            "time": 40.27968,
            "velocity": 0.3937007874015748
          },
          {
            "duration": 0.10489499999999907,
            "durationTicks": 96,
            "midi": 46,
            "name": "A#2",
            "ticks": 37056,
            "time": 40.489470000000004,
            "velocity": 0.3937007874015748
          },
          {
            "duration": 0.10489499999999907,
            "durationTicks": 96,
            "midi": 34,
            "name": "A#1",
            "ticks": 37248,
            "time": 40.69926,
            "velocity": 0.3937007874015748
          },
          {
            "duration": 0.10489499999999907,
            "durationTicks": 96,
            "midi": 46,
            "name": "A#2",
            "ticks": 37440,
            "time": 40.90905,
            "velocity": 0.3937007874015748
          },
          {
            "duration": 0.10489499999999907,
            "durationTicks": 96,
            "midi": 33,
            "name": "A1",
            "ticks": 37632,
            "time": 41.11884,
            "velocity": 0.3937007874015748
          },
          {
            "duration": 0.10489499999999907,
            "durationTicks": 96,
            "midi": 45,
            "name": "A2",
            "ticks": 37824,
            "time": 41.328630000000004,
            "velocity": 0.3937007874015748
          },
          {
            "duration": 0.10489499999999907,
            "durationTicks": 96,
            "midi": 45,
            "name": "A2",
            "ticks": 38016,
            "time": 41.53842,
            "velocity": 0.3937007874015748
          },
          {
            "duration": 0.10489499999999907,
            "durationTicks": 96,
            "midi": 38,
            "name": "D2",
            "ticks": 38016,
            "time": 41.53842,
            "velocity": 0.3937007874015748
          },
          {
            "duration": 0.10489499999999907,
            "durationTicks": 96,
            "midi": 33,
            "name": "A1",
            "ticks": 38016,
            "time": 41.53842,
            "velocity": 0.3937007874015748
          },
          {
            "duration": 0.10489499999999907,
            "durationTicks": 96,
            "midi": 50,
            "name": "D3",
            "ticks": 38016,
            "time": 41.53842,
            "velocity": 0.3937007874015748
          },
          {
            "duration": 0.10489499999999907,
            "durationTicks": 96,
            "midi": 26,
            "name": "D1",
            "ticks": 38400,
            "time": 41.958,
            "velocity": 0.3937007874015748
          },
          {
            "duration": 0.10489500000000618,
            "durationTicks": 96,
            "midi": 26,
            "name": "D1",
            "ticks": 38496,
            "time": 42.062895,
            "velocity": 0.3937007874015748
          },
          {
            "duration": 0.10489500000000618,
            "durationTicks": 96,
            "midi": 26,
            "name": "D1",
            "ticks": 38496,
            "time": 42.062895,
            "velocity": 0.3937007874015748
          },
          {
            "duration": 0.10489499999999907,
            "durationTicks": 96,
            "midi": 26,
            "name": "D1",
            "ticks": 38592,
            "time": 42.167790000000004,
            "velocity": 0.3937007874015748
          },
          {
            "duration": 0.10489499999999907,
            "durationTicks": 96,
            "midi": 26,
            "name": "D1",
            "ticks": 38592,
            "time": 42.167790000000004,
            "velocity": 0.3937007874015748
          },
          {
            "duration": 0.10489499999999907,
            "durationTicks": 96,
            "midi": 26,
            "name": "D1",
            "ticks": 38592,
            "time": 42.167790000000004,
            "velocity": 0.3937007874015748
          },
          {
            "duration": 0.10489499999999907,
            "durationTicks": 96,
            "midi": 26,
            "name": "D1",
            "ticks": 38640,
            "time": 42.2202375,
            "velocity": 0.3937007874015748
          },
          {
            "duration": 0.10489499999999907,
            "durationTicks": 96,
            "midi": 26,
            "name": "D1",
            "ticks": 38688,
            "time": 42.272685,
            "velocity": 0.3937007874015748
          },
          {
            "duration": 0.10489499999999907,
            "durationTicks": 96,
            "midi": 26,
            "name": "D1",
            "ticks": 38688,
            "time": 42.272685,
            "velocity": 0.3937007874015748
          },
          {
            "duration": 0.10489499999999907,
            "durationTicks": 96,
            "midi": 26,
            "name": "D1",
            "ticks": 38688,
            "time": 42.272685,
            "velocity": 0.3937007874015748
          },
          {
            "duration": 0.10489499999999907,
            "durationTicks": 96,
            "midi": 26,
            "name": "D1",
            "ticks": 38736,
            "time": 42.3251325,
            "velocity": 0.3937007874015748
          },
          {
            "duration": 0.10489499999999907,
            "durationTicks": 96,
            "midi": 26,
            "name": "D1",
            "ticks": 38784,
            "time": 42.37758,
            "velocity": 0.3937007874015748
          },
          {
            "duration": 0.10489499999999907,
            "durationTicks": 96,
            "midi": 26,
            "name": "D1",
            "ticks": 38784,
            "time": 42.37758,
            "velocity": 0.3937007874015748
          },
          {
            "duration": 0.10489499999999907,
            "durationTicks": 96,
            "midi": 26,
            "name": "D1",
            "ticks": 38784,
            "time": 42.37758,
            "velocity": 0.3937007874015748
          },
          {
            "duration": 0.10489499999999907,
            "durationTicks": 96,
            "midi": 26,
            "name": "D1",
            "ticks": 38832,
            "time": 42.4300275,
            "velocity": 0.3937007874015748
          },
          {
            "duration": 0.10489499999999907,
            "durationTicks": 96,
            "midi": 26,
            "name": "D1",
            "ticks": 38880,
            "time": 42.482475,
            "velocity": 0.3937007874015748
          },
          {
            "duration": 0.10489499999999907,
            "durationTicks": 96,
            "midi": 26,
            "name": "D1",
            "ticks": 38880,
            "time": 42.482475,
            "velocity": 0.3937007874015748
          },
          {
            "duration": 0.10489499999999907,
            "durationTicks": 96,
            "midi": 26,
            "name": "D1",
            "ticks": 38880,
            "time": 42.482475,
            "velocity": 0.3937007874015748
          },
          {
            "duration": 0.10489499999999907,
            "durationTicks": 96,
            "midi": 26,
            "name": "D1",
            "ticks": 38928,
            "time": 42.5349225,
            "velocity": 0.3937007874015748
          },
          {
            "duration": 0.10489499999999907,
            "durationTicks": 96,
            "midi": 26,
            "name": "D1",
            "ticks": 38976,
            "time": 42.58737,
            "velocity": 0.3937007874015748
          },
          {
            "duration": 0.10489499999999907,
            "durationTicks": 96,
            "midi": 26,
            "name": "D1",
            "ticks": 38976,
            "time": 42.58737,
            "velocity": 0.3937007874015748
          },
          {
            "duration": 0.10489499999999907,
            "durationTicks": 96,
            "midi": 26,
            "name": "D1",
            "ticks": 38976,
            "time": 42.58737,
            "velocity": 0.3937007874015748
          },
          {
            "duration": 0.10489499999999907,
            "durationTicks": 96,
            "midi": 26,
            "name": "D1",
            "ticks": 39024,
            "time": 42.6398175,
            "velocity": 0.3937007874015748
          },
          {
            "duration": 0.10489499999999907,
            "durationTicks": 96,
            "midi": 26,
            "name": "D1",
            "ticks": 39072,
            "time": 42.692265,
            "velocity": 0.3937007874015748
          },
          {
            "duration": 0.10489499999999907,
            "durationTicks": 96,
            "midi": 26,
            "name": "D1",
            "ticks": 39072,
            "time": 42.692265,
            "velocity": 0.3937007874015748
          },
          {
            "duration": 0.10489499999999907,
            "durationTicks": 96,
            "midi": 26,
            "name": "D1",
            "ticks": 39072,
            "time": 42.692265,
            "velocity": 0.3937007874015748
          },
          {
            "duration": 0.10489499999999907,
            "durationTicks": 96,
            "midi": 26,
            "name": "D1",
            "ticks": 39120,
            "time": 42.7447125,
            "velocity": 0.3937007874015748
          },
          {
            "duration": 0.10489500000000618,
            "durationTicks": 96,
            "midi": 26,
            "name": "D1",
            "ticks": 39168,
            "time": 42.79716,
            "velocity": 0.3937007874015748
          },
          {
            "duration": 0.10489500000000618,
            "durationTicks": 96,
            "midi": 26,
            "name": "D1",
            "ticks": 39168,
            "time": 42.79716,
            "velocity": 0.3937007874015748
          },
          {
            "duration": 0.10489500000000618,
            "durationTicks": 96,
            "midi": 26,
            "name": "D1",
            "ticks": 39168,
            "time": 42.79716,
            "velocity": 0.3937007874015748
          },
          {
            "duration": 0.10489500000000618,
            "durationTicks": 96,
            "midi": 26,
            "name": "D1",
            "ticks": 39216,
            "time": 42.8496075,
            "velocity": 0.3937007874015748
          },
          {
            "duration": 0.10489499999999907,
            "durationTicks": 96,
            "midi": 26,
            "name": "D1",
            "ticks": 39264,
            "time": 42.902055000000004,
            "velocity": 0.3937007874015748
          },
          {
            "duration": 0.10489499999999907,
            "durationTicks": 96,
            "midi": 26,
            "name": "D1",
            "ticks": 39264,
            "time": 42.902055000000004,
            "velocity": 0.3937007874015748
          },
          {
            "duration": 0.10489499999999907,
            "durationTicks": 96,
            "midi": 26,
            "name": "D1",
            "ticks": 39264,
            "time": 42.902055000000004,
            "velocity": 0.3937007874015748
          },
          {
            "duration": 0.10489499999999907,
            "durationTicks": 96,
            "midi": 26,
            "name": "D1",
            "ticks": 39312,
            "time": 42.954502500000004,
            "velocity": 0.3937007874015748
          },
          {
            "duration": 0.10489499999999907,
            "durationTicks": 96,
            "midi": 26,
            "name": "D1",
            "ticks": 39360,
            "time": 43.00695,
            "velocity": 0.3937007874015748
          },
          {
            "duration": 0.10489499999999907,
            "durationTicks": 96,
            "midi": 26,
            "name": "D1",
            "ticks": 39360,
            "time": 43.00695,
            "velocity": 0.3937007874015748
          },
          {
            "duration": 0.10489499999999907,
            "durationTicks": 96,
            "midi": 26,
            "name": "D1",
            "ticks": 39360,
            "time": 43.00695,
            "velocity": 0.3937007874015748
          },
          {
            "duration": 0.10489499999999907,
            "durationTicks": 96,
            "midi": 26,
            "name": "D1",
            "ticks": 39408,
            "time": 43.0593975,
            "velocity": 0.3937007874015748
          },
          {
            "duration": 0.10489499999999907,
            "durationTicks": 96,
            "midi": 26,
            "name": "D1",
            "ticks": 39456,
            "time": 43.111845,
            "velocity": 0.3937007874015748
          },
          {
            "duration": 0.10489499999999907,
            "durationTicks": 96,
            "midi": 26,
            "name": "D1",
            "ticks": 39456,
            "time": 43.111845,
            "velocity": 0.3937007874015748
          },
          {
            "duration": 0.10489499999999907,
            "durationTicks": 96,
            "midi": 26,
            "name": "D1",
            "ticks": 39456,
            "time": 43.111845,
            "velocity": 0.3937007874015748
          },
          {
            "duration": 0.10489499999999907,
            "durationTicks": 96,
            "midi": 26,
            "name": "D1",
            "ticks": 39504,
            "time": 43.1642925,
            "velocity": 0.3937007874015748
          },
          {
            "duration": 0.10489499999999907,
            "durationTicks": 96,
            "midi": 26,
            "name": "D1",
            "ticks": 39552,
            "time": 43.21674,
            "velocity": 0.3937007874015748
          },
          {
            "duration": 0.10489499999999907,
            "durationTicks": 96,
            "midi": 26,
            "name": "D1",
            "ticks": 39552,
            "time": 43.21674,
            "velocity": 0.3937007874015748
          },
          {
            "duration": 0.1573424999999986,
            "durationTicks": 144,
            "midi": 26,
            "name": "D1",
            "ticks": 39552,
            "time": 43.21674,
            "velocity": 0.3937007874015748
          },
          {
            "duration": 0.1573424999999986,
            "durationTicks": 144,
            "midi": 26,
            "name": "D1",
            "ticks": 39600,
            "time": 43.2691875,
            "velocity": 0.3937007874015748
          },
          {
            "duration": 0.10489499999999907,
            "durationTicks": 96,
            "midi": 26,
            "name": "D1",
            "ticks": 39648,
            "time": 43.321635,
            "velocity": 0.3937007874015748
          },
          {
            "duration": 0.1573424999999986,
            "durationTicks": 144,
            "midi": 26,
            "name": "D1",
            "ticks": 39648,
            "time": 43.321635,
            "velocity": 0.3937007874015748
          },
          {
            "duration": 0.10489499999999907,
            "durationTicks": 96,
            "midi": 26,
            "name": "D1",
            "ticks": 39696,
            "time": 43.3740825,
            "velocity": 0.3937007874015748
          },
          {
            "duration": 0.1573424999999986,
            "durationTicks": 144,
            "midi": 26,
            "name": "D1",
            "ticks": 39696,
            "time": 43.3740825,
            "velocity": 0.3937007874015748
          },
          {
            "duration": 0.10489499999999907,
            "durationTicks": 96,
            "midi": 26,
            "name": "D1",
            "ticks": 39744,
            "time": 43.42653,
            "velocity": 0.3937007874015748
          },
          {
            "duration": 0.1573424999999986,
            "durationTicks": 144,
            "midi": 26,
            "name": "D1",
            "ticks": 39744,
            "time": 43.42653,
            "velocity": 0.3937007874015748
          },
          {
            "duration": 0.1573424999999986,
            "durationTicks": 144,
            "midi": 26,
            "name": "D1",
            "ticks": 39792,
            "time": 43.4789775,
            "velocity": 0.3937007874015748
          },
          {
            "duration": 0.1573424999999986,
            "durationTicks": 144,
            "midi": 26,
            "name": "D1",
            "ticks": 39792,
            "time": 43.4789775,
            "velocity": 0.3937007874015748
          },
          {
            "duration": 0.15734250000000571,
            "durationTicks": 144,
            "midi": 26,
            "name": "D1",
            "ticks": 39840,
            "time": 43.531425,
            "velocity": 0.3937007874015748
          },
          {
            "duration": 0.10489500000000618,
            "durationTicks": 96,
            "midi": 26,
            "name": "D1",
            "ticks": 39888,
            "time": 43.5838725,
            "velocity": 0.3937007874015748
          },
          {
            "duration": 0.15734250000000571,
            "durationTicks": 144,
            "midi": 26,
            "name": "D1",
            "ticks": 39888,
            "time": 43.5838725,
            "velocity": 0.3937007874015748
          },
          {
            "duration": 0.10489500000000618,
            "durationTicks": 96,
            "midi": 25,
            "name": "C#1",
            "ticks": 39936,
            "time": 43.63632,
            "velocity": 0.3937007874015748
          },
          {
            "duration": 0.15734250000000571,
            "durationTicks": 144,
            "midi": 26,
            "name": "D1",
            "ticks": 39936,
            "time": 43.63632,
            "velocity": 0.3937007874015748
          },
          {
            "duration": 0.20978999999999814,
            "durationTicks": 192,
            "midi": 26,
            "name": "D1",
            "ticks": 39984,
            "time": 43.688767500000004,
            "velocity": 0.3937007874015748
          },
          {
            "duration": 0.10489499999999907,
            "durationTicks": 96,
            "midi": 25,
            "name": "C#1",
            "ticks": 40032,
            "time": 43.741215000000004,
            "velocity": 0.3937007874015748
          },
          {
            "duration": 0.10489499999999907,
            "durationTicks": 96,
            "midi": 25,
            "name": "C#1",
            "ticks": 40032,
            "time": 43.741215000000004,
            "velocity": 0.3937007874015748
          },
          {
            "duration": 0.10489499999999907,
            "durationTicks": 96,
            "midi": 25,
            "name": "C#1",
            "ticks": 40128,
            "time": 43.84611,
            "velocity": 0.3937007874015748
          },
          {
            "duration": 0.10489499999999907,
            "durationTicks": 96,
            "midi": 25,
            "name": "C#1",
            "ticks": 40128,
            "time": 43.84611,
            "velocity": 0.3937007874015748
          },
          {
            "duration": 0.10489499999999907,
            "durationTicks": 96,
            "midi": 25,
            "name": "C#1",
            "ticks": 40128,
            "time": 43.84611,
            "velocity": 0.3937007874015748
          },
          {
            "duration": 0.10489499999999907,
            "durationTicks": 96,
            "midi": 25,
            "name": "C#1",
            "ticks": 40176,
            "time": 43.8985575,
            "velocity": 0.3937007874015748
          },
          {
            "duration": 0.10489499999999907,
            "durationTicks": 96,
            "midi": 25,
            "name": "C#1",
            "ticks": 40224,
            "time": 43.951005,
            "velocity": 0.3937007874015748
          },
          {
            "duration": 0.10489499999999907,
            "durationTicks": 96,
            "midi": 25,
            "name": "C#1",
            "ticks": 40224,
            "time": 43.951005,
            "velocity": 0.3937007874015748
          },
          {
            "duration": 0.10489499999999907,
            "durationTicks": 96,
            "midi": 25,
            "name": "C#1",
            "ticks": 40224,
            "time": 43.951005,
            "velocity": 0.3937007874015748
          },
          {
            "duration": 0.10489499999999907,
            "durationTicks": 96,
            "midi": 25,
            "name": "C#1",
            "ticks": 40272,
            "time": 44.0034525,
            "velocity": 0.3937007874015748
          },
          {
            "duration": 0.10489499999999907,
            "durationTicks": 96,
            "midi": 25,
            "name": "C#1",
            "ticks": 40320,
            "time": 44.0559,
            "velocity": 0.3937007874015748
          },
          {
            "duration": 0.10489499999999907,
            "durationTicks": 96,
            "midi": 25,
            "name": "C#1",
            "ticks": 40320,
            "time": 44.0559,
            "velocity": 0.3937007874015748
          },
          {
            "duration": 0.10489499999999907,
            "durationTicks": 96,
            "midi": 25,
            "name": "C#1",
            "ticks": 40320,
            "time": 44.0559,
            "velocity": 0.3937007874015748
          },
          {
            "duration": 0.10489499999999907,
            "durationTicks": 96,
            "midi": 25,
            "name": "C#1",
            "ticks": 40368,
            "time": 44.1083475,
            "velocity": 0.3937007874015748
          },
          {
            "duration": 0.10489499999999907,
            "durationTicks": 96,
            "midi": 25,
            "name": "C#1",
            "ticks": 40416,
            "time": 44.160795,
            "velocity": 0.3937007874015748
          },
          {
            "duration": 0.10489499999999907,
            "durationTicks": 96,
            "midi": 25,
            "name": "C#1",
            "ticks": 40416,
            "time": 44.160795,
            "velocity": 0.3937007874015748
          },
          {
            "duration": 0.10489499999999907,
            "durationTicks": 96,
            "midi": 25,
            "name": "C#1",
            "ticks": 40416,
            "time": 44.160795,
            "velocity": 0.3937007874015748
          },
          {
            "duration": 0.10489499999999907,
            "durationTicks": 96,
            "midi": 25,
            "name": "C#1",
            "ticks": 40464,
            "time": 44.2132425,
            "velocity": 0.3937007874015748
          },
          {
            "duration": 0.10489499999999907,
            "durationTicks": 96,
            "midi": 25,
            "name": "C#1",
            "ticks": 40512,
            "time": 44.26569,
            "velocity": 0.3937007874015748
          },
          {
            "duration": 0.10489499999999907,
            "durationTicks": 96,
            "midi": 25,
            "name": "C#1",
            "ticks": 40512,
            "time": 44.26569,
            "velocity": 0.3937007874015748
          },
          {
            "duration": 0.10489499999999907,
            "durationTicks": 96,
            "midi": 25,
            "name": "C#1",
            "ticks": 40512,
            "time": 44.26569,
            "velocity": 0.3937007874015748
          },
          {
            "duration": 0.10489499999999907,
            "durationTicks": 96,
            "midi": 25,
            "name": "C#1",
            "ticks": 40560,
            "time": 44.3181375,
            "velocity": 0.3937007874015748
          },
          {
            "duration": 0.10489499999999907,
            "durationTicks": 96,
            "midi": 25,
            "name": "C#1",
            "ticks": 40608,
            "time": 44.370585,
            "velocity": 0.3937007874015748
          },
          {
            "duration": 0.10489499999999907,
            "durationTicks": 96,
            "midi": 25,
            "name": "C#1",
            "ticks": 40608,
            "time": 44.370585,
            "velocity": 0.3937007874015748
          },
          {
            "duration": 0.10489499999999907,
            "durationTicks": 96,
            "midi": 25,
            "name": "C#1",
            "ticks": 40608,
            "time": 44.370585,
            "velocity": 0.3937007874015748
          },
          {
            "duration": 0.10489500000000618,
            "durationTicks": 96,
            "midi": 25,
            "name": "C#1",
            "ticks": 40656,
            "time": 44.4230325,
            "velocity": 0.3937007874015748
          },
          {
            "duration": 0.10489500000000618,
            "durationTicks": 96,
            "midi": 26,
            "name": "D1",
            "ticks": 40704,
            "time": 44.47548,
            "velocity": 0.3937007874015748
          },
          {
            "duration": 0.10489500000000618,
            "durationTicks": 96,
            "midi": 25,
            "name": "C#1",
            "ticks": 40704,
            "time": 44.47548,
            "velocity": 0.3937007874015748
          },
          {
            "duration": 0.10489500000000618,
            "durationTicks": 96,
            "midi": 25,
            "name": "C#1",
            "ticks": 40704,
            "time": 44.47548,
            "velocity": 0.3937007874015748
          },
          {
            "duration": 0.10489499999999907,
            "durationTicks": 96,
            "midi": 26,
            "name": "D1",
            "ticks": 40752,
            "time": 44.527927500000004,
            "velocity": 0.3937007874015748
          },
          {
            "duration": 0.10489499999999907,
            "durationTicks": 96,
            "midi": 25,
            "name": "C#1",
            "ticks": 40800,
            "time": 44.580375000000004,
            "velocity": 0.3937007874015748
          },
          {
            "duration": 0.10489499999999907,
            "durationTicks": 96,
            "midi": 26,
            "name": "D1",
            "ticks": 40800,
            "time": 44.580375000000004,
            "velocity": 0.3937007874015748
          },
          {
            "duration": 0.10489499999999907,
            "durationTicks": 96,
            "midi": 26,
            "name": "D1",
            "ticks": 40800,
            "time": 44.580375000000004,
            "velocity": 0.3937007874015748
          },
          {
            "duration": 0.10489499999999907,
            "durationTicks": 96,
            "midi": 26,
            "name": "D1",
            "ticks": 40848,
            "time": 44.6328225,
            "velocity": 0.3937007874015748
          },
          {
            "duration": 0.10489499999999907,
            "durationTicks": 96,
            "midi": 26,
            "name": "D1",
            "ticks": 40896,
            "time": 44.68527,
            "velocity": 0.3937007874015748
          },
          {
            "duration": 0.10489499999999907,
            "durationTicks": 96,
            "midi": 26,
            "name": "D1",
            "ticks": 40896,
            "time": 44.68527,
            "velocity": 0.3937007874015748
          },
          {
            "duration": 0.10489499999999907,
            "durationTicks": 96,
            "midi": 26,
            "name": "D1",
            "ticks": 40896,
            "time": 44.68527,
            "velocity": 0.3937007874015748
          },
          {
            "duration": 0.10489499999999907,
            "durationTicks": 96,
            "midi": 26,
            "name": "D1",
            "ticks": 40944,
            "time": 44.7377175,
            "velocity": 0.3937007874015748
          },
          {
            "duration": 0.10489499999999907,
            "durationTicks": 96,
            "midi": 26,
            "name": "D1",
            "ticks": 40992,
            "time": 44.790165,
            "velocity": 0.3937007874015748
          },
          {
            "duration": 0.10489499999999907,
            "durationTicks": 96,
            "midi": 26,
            "name": "D1",
            "ticks": 40992,
            "time": 44.790165,
            "velocity": 0.3937007874015748
          },
          {
            "duration": 0.10489499999999907,
            "durationTicks": 96,
            "midi": 26,
            "name": "D1",
            "ticks": 40992,
            "time": 44.790165,
            "velocity": 0.3937007874015748
          },
          {
            "duration": 0.10489499999999907,
            "durationTicks": 96,
            "midi": 26,
            "name": "D1",
            "ticks": 41040,
            "time": 44.8426125,
            "velocity": 0.3937007874015748
          },
          {
            "duration": 0.10489499999999907,
            "durationTicks": 96,
            "midi": 26,
            "name": "D1",
            "ticks": 41088,
            "time": 44.89506,
            "velocity": 0.3937007874015748
          },
          {
            "duration": 0.10489499999999907,
            "durationTicks": 96,
            "midi": 26,
            "name": "D1",
            "ticks": 41088,
            "time": 44.89506,
            "velocity": 0.3937007874015748
          },
          {
            "duration": 0.1573424999999986,
            "durationTicks": 144,
            "midi": 26,
            "name": "D1",
            "ticks": 41088,
            "time": 44.89506,
            "velocity": 0.3937007874015748
          },
          {
            "duration": 0.1573424999999986,
            "durationTicks": 144,
            "midi": 26,
            "name": "D1",
            "ticks": 41136,
            "time": 44.9475075,
            "velocity": 0.3937007874015748
          },
          {
            "duration": 0.10489499999999907,
            "durationTicks": 96,
            "midi": 26,
            "name": "D1",
            "ticks": 41184,
            "time": 44.999955,
            "velocity": 0.3937007874015748
          },
          {
            "duration": 0.1573424999999986,
            "durationTicks": 144,
            "midi": 26,
            "name": "D1",
            "ticks": 41184,
            "time": 44.999955,
            "velocity": 0.3937007874015748
          },
          {
            "duration": 0.10489499999999907,
            "durationTicks": 96,
            "midi": 26,
            "name": "D1",
            "ticks": 41232,
            "time": 45.0524025,
            "velocity": 0.3937007874015748
          },
          {
            "duration": 0.1573424999999986,
            "durationTicks": 144,
            "midi": 26,
            "name": "D1",
            "ticks": 41232,
            "time": 45.0524025,
            "velocity": 0.3937007874015748
          },
          {
            "duration": 0.10489499999999907,
            "durationTicks": 96,
            "midi": 26,
            "name": "D1",
            "ticks": 41280,
            "time": 45.10485,
            "velocity": 0.3937007874015748
          },
          {
            "duration": 0.1573424999999986,
            "durationTicks": 144,
            "midi": 26,
            "name": "D1",
            "ticks": 41280,
            "time": 45.10485,
            "velocity": 0.3937007874015748
          },
          {
            "duration": 0.15734250000000571,
            "durationTicks": 144,
            "midi": 26,
            "name": "D1",
            "ticks": 41328,
            "time": 45.1572975,
            "velocity": 0.3937007874015748
          },
          {
            "duration": 0.15734250000000571,
            "durationTicks": 144,
            "midi": 26,
            "name": "D1",
            "ticks": 41328,
            "time": 45.1572975,
            "velocity": 0.3937007874015748
          },
          {
            "duration": 0.15734250000000571,
            "durationTicks": 144,
            "midi": 26,
            "name": "D1",
            "ticks": 41376,
            "time": 45.209745,
            "velocity": 0.3937007874015748
          },
          {
            "duration": 0.10489500000000618,
            "durationTicks": 96,
            "midi": 26,
            "name": "D1",
            "ticks": 41424,
            "time": 45.2621925,
            "velocity": 0.3937007874015748
          },
          {
            "duration": 0.15734250000000571,
            "durationTicks": 144,
            "midi": 26,
            "name": "D1",
            "ticks": 41424,
            "time": 45.2621925,
            "velocity": 0.3937007874015748
          },
          {
            "duration": 0.1573424999999986,
            "durationTicks": 144,
            "midi": 26,
            "name": "D1",
            "ticks": 41472,
            "time": 45.314640000000004,
            "velocity": 0.3937007874015748
          },
          {
            "duration": 0.10489499999999907,
            "durationTicks": 96,
            "midi": 33,
            "name": "A1",
            "ticks": 41472,
            "time": 45.314640000000004,
            "velocity": 0.3937007874015748
          },
          {
            "duration": 0.20978999999999814,
            "durationTicks": 192,
            "midi": 26,
            "name": "D1",
            "ticks": 41520,
            "time": 45.367087500000004,
            "velocity": 0.3937007874015748
          },
          {
            "duration": 0.10489499999999907,
            "durationTicks": 96,
            "midi": 33,
            "name": "A1",
            "ticks": 41568,
            "time": 45.419535,
            "velocity": 0.3937007874015748
          },
          {
            "duration": 0.10489499999999907,
            "durationTicks": 96,
            "midi": 33,
            "name": "A1",
            "ticks": 41568,
            "time": 45.419535,
            "velocity": 0.3937007874015748
          },
          {
            "duration": 0.10489499999999907,
            "durationTicks": 96,
            "midi": 33,
            "name": "A1",
            "ticks": 41664,
            "time": 45.52443,
            "velocity": 0.3937007874015748
          },
          {
            "duration": 0.10489499999999907,
            "durationTicks": 96,
            "midi": 33,
            "name": "A1",
            "ticks": 41664,
            "time": 45.52443,
            "velocity": 0.3937007874015748
          },
          {
            "duration": 0.10489499999999907,
            "durationTicks": 96,
            "midi": 33,
            "name": "A1",
            "ticks": 41664,
            "time": 45.52443,
            "velocity": 0.3937007874015748
          },
          {
            "duration": 0.10489499999999907,
            "durationTicks": 96,
            "midi": 33,
            "name": "A1",
            "ticks": 41712,
            "time": 45.5768775,
            "velocity": 0.3937007874015748
          },
          {
            "duration": 0.10489499999999907,
            "durationTicks": 96,
            "midi": 33,
            "name": "A1",
            "ticks": 41760,
            "time": 45.629325,
            "velocity": 0.3937007874015748
          },
          {
            "duration": 0.10489499999999907,
            "durationTicks": 96,
            "midi": 33,
            "name": "A1",
            "ticks": 41760,
            "time": 45.629325,
            "velocity": 0.3937007874015748
          },
          {
            "duration": 0.10489499999999907,
            "durationTicks": 96,
            "midi": 33,
            "name": "A1",
            "ticks": 41760,
            "time": 45.629325,
            "velocity": 0.3937007874015748
          },
          {
            "duration": 0.10489499999999907,
            "durationTicks": 96,
            "midi": 33,
            "name": "A1",
            "ticks": 41808,
            "time": 45.6817725,
            "velocity": 0.3937007874015748
          },
          {
            "duration": 0.10489499999999907,
            "durationTicks": 96,
            "midi": 33,
            "name": "A1",
            "ticks": 41856,
            "time": 45.73422,
            "velocity": 0.3937007874015748
          },
          {
            "duration": 0.10489499999999907,
            "durationTicks": 96,
            "midi": 33,
            "name": "A1",
            "ticks": 41856,
            "time": 45.73422,
            "velocity": 0.3937007874015748
          },
          {
            "duration": 0.10489499999999907,
            "durationTicks": 96,
            "midi": 33,
            "name": "A1",
            "ticks": 41856,
            "time": 45.73422,
            "velocity": 0.3937007874015748
          },
          {
            "duration": 0.10489499999999907,
            "durationTicks": 96,
            "midi": 33,
            "name": "A1",
            "ticks": 41904,
            "time": 45.7866675,
            "velocity": 0.3937007874015748
          },
          {
            "duration": 0.10489499999999907,
            "durationTicks": 96,
            "midi": 33,
            "name": "A1",
            "ticks": 41952,
            "time": 45.839115,
            "velocity": 0.3937007874015748
          },
          {
            "duration": 0.10489499999999907,
            "durationTicks": 96,
            "midi": 33,
            "name": "A1",
            "ticks": 41952,
            "time": 45.839115,
            "velocity": 0.3937007874015748
          },
          {
            "duration": 0.10489499999999907,
            "durationTicks": 96,
            "midi": 33,
            "name": "A1",
            "ticks": 41952,
            "time": 45.839115,
            "velocity": 0.3937007874015748
          },
          {
            "duration": 0.10489499999999907,
            "durationTicks": 96,
            "midi": 33,
            "name": "A1",
            "ticks": 42000,
            "time": 45.8915625,
            "velocity": 0.3937007874015748
          },
          {
            "duration": 0.10489499999999907,
            "durationTicks": 96,
            "midi": 33,
            "name": "A1",
            "ticks": 42048,
            "time": 45.94401,
            "velocity": 0.3937007874015748
          },
          {
            "duration": 0.10489499999999907,
            "durationTicks": 96,
            "midi": 33,
            "name": "A1",
            "ticks": 42048,
            "time": 45.94401,
            "velocity": 0.3937007874015748
          },
          {
            "duration": 0.10489499999999907,
            "durationTicks": 96,
            "midi": 33,
            "name": "A1",
            "ticks": 42048,
            "time": 45.94401,
            "velocity": 0.3937007874015748
          },
          {
            "duration": 0.10489500000000618,
            "durationTicks": 96,
            "midi": 33,
            "name": "A1",
            "ticks": 42096,
            "time": 45.9964575,
            "velocity": 0.3937007874015748
          },
          {
            "duration": 0.10489500000000618,
            "durationTicks": 96,
            "midi": 33,
            "name": "A1",
            "ticks": 42144,
            "time": 46.048905,
            "velocity": 0.3937007874015748
          },
          {
            "duration": 0.10489500000000618,
            "durationTicks": 96,
            "midi": 33,
            "name": "A1",
            "ticks": 42144,
            "time": 46.048905,
            "velocity": 0.3937007874015748
          },
          {
            "duration": 0.10489500000000618,
            "durationTicks": 96,
            "midi": 33,
            "name": "A1",
            "ticks": 42144,
            "time": 46.048905,
            "velocity": 0.3937007874015748
          },
          {
            "duration": 0.10489499999999907,
            "durationTicks": 96,
            "midi": 33,
            "name": "A1",
            "ticks": 42192,
            "time": 46.101352500000004,
            "velocity": 0.3937007874015748
          },
          {
            "duration": 0.10489499999999907,
            "durationTicks": 96,
            "midi": 33,
            "name": "A1",
            "ticks": 42240,
            "time": 46.153800000000004,
            "velocity": 0.3937007874015748
          },
          {
            "duration": 0.10489499999999907,
            "durationTicks": 96,
            "midi": 33,
            "name": "A1",
            "ticks": 42240,
            "time": 46.153800000000004,
            "velocity": 0.3937007874015748
          },
          {
            "duration": 0.10489499999999907,
            "durationTicks": 96,
            "midi": 26,
            "name": "D1",
            "ticks": 42240,
            "time": 46.153800000000004,
            "velocity": 0.3937007874015748
          },
          {
            "duration": 0.10489499999999907,
            "durationTicks": 96,
            "midi": 26,
            "name": "D1",
            "ticks": 42288,
            "time": 46.2062475,
            "velocity": 0.3937007874015748
          },
          {
            "duration": 0.10489499999999907,
            "durationTicks": 96,
            "midi": 26,
            "name": "D1",
            "ticks": 42336,
            "time": 46.258695,
            "velocity": 0.3937007874015748
          },
          {
            "duration": 0.10489499999999907,
            "durationTicks": 96,
            "midi": 26,
            "name": "D1",
            "ticks": 42336,
            "time": 46.258695,
            "velocity": 0.3937007874015748
          },
          {
            "duration": 0.10489499999999907,
            "durationTicks": 96,
            "midi": 33,
            "name": "A1",
            "ticks": 42336,
            "time": 46.258695,
            "velocity": 0.3937007874015748
          },
          {
            "duration": 0.10489499999999907,
            "durationTicks": 96,
            "midi": 26,
            "name": "D1",
            "ticks": 42384,
            "time": 46.3111425,
            "velocity": 0.3937007874015748
          },
          {
            "duration": 0.10489499999999907,
            "durationTicks": 96,
            "midi": 26,
            "name": "D1",
            "ticks": 42432,
            "time": 46.36359,
            "velocity": 0.3937007874015748
          },
          {
            "duration": 0.10489499999999907,
            "durationTicks": 96,
            "midi": 26,
            "name": "D1",
            "ticks": 42432,
            "time": 46.36359,
            "velocity": 0.3937007874015748
          },
          {
            "duration": 0.10489499999999907,
            "durationTicks": 96,
            "midi": 26,
            "name": "D1",
            "ticks": 42432,
            "time": 46.36359,
            "velocity": 0.3937007874015748
          },
          {
            "duration": 0.10489499999999907,
            "durationTicks": 96,
            "midi": 26,
            "name": "D1",
            "ticks": 42480,
            "time": 46.4160375,
            "velocity": 0.3937007874015748
          },
          {
            "duration": 0.10489499999999907,
            "durationTicks": 96,
            "midi": 26,
            "name": "D1",
            "ticks": 42528,
            "time": 46.468485,
            "velocity": 0.3937007874015748
          },
          {
            "duration": 0.10489499999999907,
            "durationTicks": 96,
            "midi": 26,
            "name": "D1",
            "ticks": 42528,
            "time": 46.468485,
            "velocity": 0.3937007874015748
          },
          {
            "duration": 0.10489499999999907,
            "durationTicks": 96,
            "midi": 26,
            "name": "D1",
            "ticks": 42528,
            "time": 46.468485,
            "velocity": 0.3937007874015748
          },
          {
            "duration": 0.10489499999999907,
            "durationTicks": 96,
            "midi": 26,
            "name": "D1",
            "ticks": 42576,
            "time": 46.5209325,
            "velocity": 0.3937007874015748
          },
          {
            "duration": 0.10489499999999907,
            "durationTicks": 96,
            "midi": 26,
            "name": "D1",
            "ticks": 42624,
            "time": 46.57338,
            "velocity": 0.3937007874015748
          },
          {
            "duration": 0.10489499999999907,
            "durationTicks": 96,
            "midi": 26,
            "name": "D1",
            "ticks": 42624,
            "time": 46.57338,
            "velocity": 0.3937007874015748
          },
          {
            "duration": 0.1573424999999986,
            "durationTicks": 144,
            "midi": 26,
            "name": "D1",
            "ticks": 42624,
            "time": 46.57338,
            "velocity": 0.3937007874015748
          },
          {
            "duration": 0.1573424999999986,
            "durationTicks": 144,
            "midi": 26,
            "name": "D1",
            "ticks": 42672,
            "time": 46.6258275,
            "velocity": 0.3937007874015748
          },
          {
            "duration": 0.10489499999999907,
            "durationTicks": 96,
            "midi": 26,
            "name": "D1",
            "ticks": 42720,
            "time": 46.678275,
            "velocity": 0.3937007874015748
          },
          {
            "duration": 0.1573424999999986,
            "durationTicks": 144,
            "midi": 26,
            "name": "D1",
            "ticks": 42720,
            "time": 46.678275,
            "velocity": 0.3937007874015748
          },
          {
            "duration": 0.10489499999999907,
            "durationTicks": 96,
            "midi": 26,
            "name": "D1",
            "ticks": 42768,
            "time": 46.7307225,
            "velocity": 0.3937007874015748
          },
          {
            "duration": 0.1573424999999986,
            "durationTicks": 144,
            "midi": 26,
            "name": "D1",
            "ticks": 42768,
            "time": 46.7307225,
            "velocity": 0.3937007874015748
          },
          {
            "duration": 0.10489499999999907,
            "durationTicks": 96,
            "midi": 26,
            "name": "D1",
            "ticks": 42816,
            "time": 46.78317,
            "velocity": 0.3937007874015748
          },
          {
            "duration": 0.15734250000000571,
            "durationTicks": 144,
            "midi": 26,
            "name": "D1",
            "ticks": 42816,
            "time": 46.78317,
            "velocity": 0.3937007874015748
          },
          {
            "duration": 0.15734250000000571,
            "durationTicks": 144,
            "midi": 26,
            "name": "D1",
            "ticks": 42864,
            "time": 46.8356175,
            "velocity": 0.3937007874015748
          },
          {
            "duration": 0.15734250000000571,
            "durationTicks": 144,
            "midi": 26,
            "name": "D1",
            "ticks": 42864,
            "time": 46.8356175,
            "velocity": 0.3937007874015748
          },
          {
            "duration": 0.15734250000000571,
            "durationTicks": 144,
            "midi": 26,
            "name": "D1",
            "ticks": 42912,
            "time": 46.888065,
            "velocity": 0.3937007874015748
          },
          {
            "duration": 0.10489499999999907,
            "durationTicks": 96,
            "midi": 26,
            "name": "D1",
            "ticks": 42960,
            "time": 46.940512500000004,
            "velocity": 0.3937007874015748
          },
          {
            "duration": 0.1573424999999986,
            "durationTicks": 144,
            "midi": 26,
            "name": "D1",
            "ticks": 42960,
            "time": 46.940512500000004,
            "velocity": 0.3937007874015748
          },
          {
            "duration": 0.1573424999999986,
            "durationTicks": 144,
            "midi": 26,
            "name": "D1",
            "ticks": 43008,
            "time": 46.992960000000004,
            "velocity": 0.3937007874015748
          },
          {
            "duration": 0.10489499999999907,
            "durationTicks": 96,
            "midi": 34,
            "name": "A#1",
            "ticks": 43008,
            "time": 46.992960000000004,
            "velocity": 0.3937007874015748
          },
          {
            "duration": 0.20978999999999814,
            "durationTicks": 192,
            "midi": 26,
            "name": "D1",
            "ticks": 43056,
            "time": 47.0454075,
            "velocity": 0.3937007874015748
          },
          {
            "duration": 0.10489499999999907,
            "durationTicks": 96,
            "midi": 34,
            "name": "A#1",
            "ticks": 43104,
            "time": 47.097855,
            "velocity": 0.3937007874015748
          },
          {
            "duration": 0.10489499999999907,
            "durationTicks": 96,
            "midi": 34,
            "name": "A#1",
            "ticks": 43104,
            "time": 47.097855,
            "velocity": 0.3937007874015748
          },
          {
            "duration": 0.10489499999999907,
            "durationTicks": 96,
            "midi": 34,
            "name": "A#1",
            "ticks": 43200,
            "time": 47.20275,
            "velocity": 0.3937007874015748
          },
          {
            "duration": 0.10489499999999907,
            "durationTicks": 96,
            "midi": 34,
            "name": "A#1",
            "ticks": 43200,
            "time": 47.20275,
            "velocity": 0.3937007874015748
          },
          {
            "duration": 0.10489499999999907,
            "durationTicks": 96,
            "midi": 34,
            "name": "A#1",
            "ticks": 43200,
            "time": 47.20275,
            "velocity": 0.3937007874015748
          },
          {
            "duration": 0.10489499999999907,
            "durationTicks": 96,
            "midi": 34,
            "name": "A#1",
            "ticks": 43248,
            "time": 47.2551975,
            "velocity": 0.3937007874015748
          },
          {
            "duration": 0.10489499999999907,
            "durationTicks": 96,
            "midi": 34,
            "name": "A#1",
            "ticks": 43296,
            "time": 47.307645,
            "velocity": 0.3937007874015748
          },
          {
            "duration": 0.10489499999999907,
            "durationTicks": 96,
            "midi": 34,
            "name": "A#1",
            "ticks": 43296,
            "time": 47.307645,
            "velocity": 0.3937007874015748
          },
          {
            "duration": 0.10489499999999907,
            "durationTicks": 96,
            "midi": 34,
            "name": "A#1",
            "ticks": 43296,
            "time": 47.307645,
            "velocity": 0.3937007874015748
          },
          {
            "duration": 0.10489499999999907,
            "durationTicks": 96,
            "midi": 34,
            "name": "A#1",
            "ticks": 43344,
            "time": 47.3600925,
            "velocity": 0.3937007874015748
          },
          {
            "duration": 0.10489499999999907,
            "durationTicks": 96,
            "midi": 34,
            "name": "A#1",
            "ticks": 43392,
            "time": 47.41254,
            "velocity": 0.3937007874015748
          },
          {
            "duration": 0.10489499999999907,
            "durationTicks": 96,
            "midi": 34,
            "name": "A#1",
            "ticks": 43392,
            "time": 47.41254,
            "velocity": 0.3937007874015748
          },
          {
            "duration": 0.10489499999999907,
            "durationTicks": 96,
            "midi": 34,
            "name": "A#1",
            "ticks": 43392,
            "time": 47.41254,
            "velocity": 0.3937007874015748
          },
          {
            "duration": 0.10489499999999907,
            "durationTicks": 96,
            "midi": 34,
            "name": "A#1",
            "ticks": 43440,
            "time": 47.4649875,
            "velocity": 0.3937007874015748
          },
          {
            "duration": 0.10489499999999907,
            "durationTicks": 96,
            "midi": 34,
            "name": "A#1",
            "ticks": 43488,
            "time": 47.517435,
            "velocity": 0.3937007874015748
          },
          {
            "duration": 0.10489499999999907,
            "durationTicks": 96,
            "midi": 34,
            "name": "A#1",
            "ticks": 43488,
            "time": 47.517435,
            "velocity": 0.3937007874015748
          },
          {
            "duration": 0.10489499999999907,
            "durationTicks": 96,
            "midi": 34,
            "name": "A#1",
            "ticks": 43488,
            "time": 47.517435,
            "velocity": 0.3937007874015748
          },
          {
            "duration": 0.10489499999999907,
            "durationTicks": 96,
            "midi": 34,
            "name": "A#1",
            "ticks": 43536,
            "time": 47.5698825,
            "velocity": 0.3937007874015748
          },
          {
            "duration": 0.10489500000000618,
            "durationTicks": 96,
            "midi": 34,
            "name": "A#1",
            "ticks": 43584,
            "time": 47.62233,
            "velocity": 0.3937007874015748
          },
          {
            "duration": 0.10489500000000618,
            "durationTicks": 96,
            "midi": 34,
            "name": "A#1",
            "ticks": 43584,
            "time": 47.62233,
            "velocity": 0.3937007874015748
          },
          {
            "duration": 0.10489500000000618,
            "durationTicks": 96,
            "midi": 34,
            "name": "A#1",
            "ticks": 43584,
            "time": 47.62233,
            "velocity": 0.3937007874015748
          },
          {
            "duration": 0.10489500000000618,
            "durationTicks": 96,
            "midi": 34,
            "name": "A#1",
            "ticks": 43632,
            "time": 47.6747775,
            "velocity": 0.3937007874015748
          },
          {
            "duration": 0.10489499999999907,
            "durationTicks": 96,
            "midi": 34,
            "name": "A#1",
            "ticks": 43680,
            "time": 47.727225000000004,
            "velocity": 0.3937007874015748
          },
          {
            "duration": 0.10489499999999907,
            "durationTicks": 96,
            "midi": 34,
            "name": "A#1",
            "ticks": 43680,
            "time": 47.727225000000004,
            "velocity": 0.3937007874015748
          },
          {
            "duration": 0.10489499999999907,
            "durationTicks": 96,
            "midi": 34,
            "name": "A#1",
            "ticks": 43680,
            "time": 47.727225000000004,
            "velocity": 0.3937007874015748
          },
          {
            "duration": 0.10489499999999907,
            "durationTicks": 96,
            "midi": 34,
            "name": "A#1",
            "ticks": 43728,
            "time": 47.779672500000004,
            "velocity": 0.3937007874015748
          },
          {
            "duration": 0.10489499999999907,
            "durationTicks": 96,
            "midi": 34,
            "name": "A#1",
            "ticks": 43776,
            "time": 47.83212,
            "velocity": 0.3937007874015748
          },
          {
            "duration": 0.10489499999999907,
            "durationTicks": 96,
            "midi": 34,
            "name": "A#1",
            "ticks": 43776,
            "time": 47.83212,
            "velocity": 0.3937007874015748
          },
          {
            "duration": 0.10489499999999907,
            "durationTicks": 96,
            "midi": 33,
            "name": "A1",
            "ticks": 43776,
            "time": 47.83212,
            "velocity": 0.3937007874015748
          },
          {
            "duration": 0.10489499999999907,
            "durationTicks": 96,
            "midi": 33,
            "name": "A1",
            "ticks": 43824,
            "time": 47.8845675,
            "velocity": 0.3937007874015748
          },
          {
            "duration": 0.10489499999999907,
            "durationTicks": 96,
            "midi": 33,
            "name": "A1",
            "ticks": 43872,
            "time": 47.937015,
            "velocity": 0.3937007874015748
          },
          {
            "duration": 0.10489499999999907,
            "durationTicks": 96,
            "midi": 33,
            "name": "A1",
            "ticks": 43872,
            "time": 47.937015,
            "velocity": 0.3937007874015748
          },
          {
            "duration": 0.10489499999999907,
            "durationTicks": 96,
            "midi": 34,
            "name": "A#1",
            "ticks": 43872,
            "time": 47.937015,
            "velocity": 0.3937007874015748
          },
          {
            "duration": 0.10489499999999907,
            "durationTicks": 96,
            "midi": 33,
            "name": "A1",
            "ticks": 43920,
            "time": 47.9894625,
            "velocity": 0.3937007874015748
          },
          {
            "duration": 0.10489499999999907,
            "durationTicks": 96,
            "midi": 33,
            "name": "A1",
            "ticks": 43968,
            "time": 48.04191,
            "velocity": 0.3937007874015748
          },
          {
            "duration": 0.10489499999999907,
            "durationTicks": 96,
            "midi": 33,
            "name": "A1",
            "ticks": 43968,
            "time": 48.04191,
            "velocity": 0.3937007874015748
          },
          {
            "duration": 0.10489499999999907,
            "durationTicks": 96,
            "midi": 33,
            "name": "A1",
            "ticks": 43968,
            "time": 48.04191,
            "velocity": 0.3937007874015748
          },
          {
            "duration": 0.10489499999999907,
            "durationTicks": 96,
            "midi": 33,
            "name": "A1",
            "ticks": 44016,
            "time": 48.0943575,
            "velocity": 0.3937007874015748
          },
          {
            "duration": 0.10489499999999907,
            "durationTicks": 96,
            "midi": 33,
            "name": "A1",
            "ticks": 44064,
            "time": 48.146805,
            "velocity": 0.3937007874015748
          },
          {
            "duration": 0.10489499999999907,
            "durationTicks": 96,
            "midi": 33,
            "name": "A1",
            "ticks": 44064,
            "time": 48.146805,
            "velocity": 0.3937007874015748
          },
          {
            "duration": 0.10489499999999907,
            "durationTicks": 96,
            "midi": 33,
            "name": "A1",
            "ticks": 44064,
            "time": 48.146805,
            "velocity": 0.3937007874015748
          },
          {
            "duration": 0.10489499999999907,
            "durationTicks": 96,
            "midi": 33,
            "name": "A1",
            "ticks": 44112,
            "time": 48.1992525,
            "velocity": 0.3937007874015748
          },
          {
            "duration": 0.10489499999999907,
            "durationTicks": 96,
            "midi": 33,
            "name": "A1",
            "ticks": 44160,
            "time": 48.2517,
            "velocity": 0.3937007874015748
          },
          {
            "duration": 0.10489499999999907,
            "durationTicks": 96,
            "midi": 33,
            "name": "A1",
            "ticks": 44160,
            "time": 48.2517,
            "velocity": 0.3937007874015748
          },
          {
            "duration": 0.1573424999999986,
            "durationTicks": 144,
            "midi": 33,
            "name": "A1",
            "ticks": 44160,
            "time": 48.2517,
            "velocity": 0.3937007874015748
          },
          {
            "duration": 0.1573424999999986,
            "durationTicks": 144,
            "midi": 33,
            "name": "A1",
            "ticks": 44208,
            "time": 48.3041475,
            "velocity": 0.3937007874015748
          },
          {
            "duration": 0.10489499999999907,
            "durationTicks": 96,
            "midi": 33,
            "name": "A1",
            "ticks": 44256,
            "time": 48.356595,
            "velocity": 0.3937007874015748
          },
          {
            "duration": 0.15734250000000571,
            "durationTicks": 144,
            "midi": 33,
            "name": "A1",
            "ticks": 44256,
            "time": 48.356595,
            "velocity": 0.3937007874015748
          },
          {
            "duration": 0.10489500000000618,
            "durationTicks": 96,
            "midi": 33,
            "name": "A1",
            "ticks": 44304,
            "time": 48.4090425,
            "velocity": 0.3937007874015748
          },
          {
            "duration": 0.15734250000000571,
            "durationTicks": 144,
            "midi": 33,
            "name": "A1",
            "ticks": 44304,
            "time": 48.4090425,
            "velocity": 0.3937007874015748
          },
          {
            "duration": 0.10489500000000618,
            "durationTicks": 96,
            "midi": 33,
            "name": "A1",
            "ticks": 44352,
            "time": 48.46149,
            "velocity": 0.3937007874015748
          },
          {
            "duration": 0.15734250000000571,
            "durationTicks": 144,
            "midi": 33,
            "name": "A1",
            "ticks": 44352,
            "time": 48.46149,
            "velocity": 0.3937007874015748
          },
          {
            "duration": 0.1573424999999986,
            "durationTicks": 144,
            "midi": 33,
            "name": "A1",
            "ticks": 44400,
            "time": 48.513937500000004,
            "velocity": 0.3937007874015748
          },
          {
            "duration": 0.1573424999999986,
            "durationTicks": 144,
            "midi": 33,
            "name": "A1",
            "ticks": 44400,
            "time": 48.513937500000004,
            "velocity": 0.3937007874015748
          },
          {
            "duration": 0.1573424999999986,
            "durationTicks": 144,
            "midi": 33,
            "name": "A1",
            "ticks": 44448,
            "time": 48.566385000000004,
            "velocity": 0.3937007874015748
          },
          {
            "duration": 0.10489499999999907,
            "durationTicks": 96,
            "midi": 33,
            "name": "A1",
            "ticks": 44496,
            "time": 48.6188325,
            "velocity": 0.3937007874015748
          },
          {
            "duration": 0.1573424999999986,
            "durationTicks": 144,
            "midi": 33,
            "name": "A1",
            "ticks": 44496,
            "time": 48.6188325,
            "velocity": 0.3937007874015748
          },
          {
            "duration": 0.1573424999999986,
            "durationTicks": 144,
            "midi": 33,
            "name": "A1",
            "ticks": 44544,
            "time": 48.67128,
            "velocity": 0.3937007874015748
          },
          {
            "duration": 0.10489499999999907,
            "durationTicks": 96,
            "midi": 26,
            "name": "D1",
            "ticks": 44544,
            "time": 48.67128,
            "velocity": 0.3937007874015748
          },
          {
            "duration": 0.20978999999999814,
            "durationTicks": 192,
            "midi": 33,
            "name": "A1",
            "ticks": 44592,
            "time": 48.7237275,
            "velocity": 0.3937007874015748
          },
          {
            "duration": 0.10489499999999907,
            "durationTicks": 96,
            "midi": 26,
            "name": "D1",
            "ticks": 44640,
            "time": 48.776175,
            "velocity": 0.3937007874015748
          },
          {
            "duration": 0.10489499999999907,
            "durationTicks": 96,
            "midi": 26,
            "name": "D1",
            "ticks": 44640,
            "time": 48.776175,
            "velocity": 0.3937007874015748
          },
          {
            "duration": 0.10489499999999907,
            "durationTicks": 96,
            "midi": 26,
            "name": "D1",
            "ticks": 44736,
            "time": 48.88107,
            "velocity": 0.3937007874015748
          },
          {
            "duration": 0.10489499999999907,
            "durationTicks": 96,
            "midi": 26,
            "name": "D1",
            "ticks": 44736,
            "time": 48.88107,
            "velocity": 0.3937007874015748
          },
          {
            "duration": 0.10489499999999907,
            "durationTicks": 96,
            "midi": 26,
            "name": "D1",
            "ticks": 44736,
            "time": 48.88107,
            "velocity": 0.3937007874015748
          },
          {
            "duration": 0.10489499999999907,
            "durationTicks": 96,
            "midi": 26,
            "name": "D1",
            "ticks": 44784,
            "time": 48.9335175,
            "velocity": 0.3937007874015748
          },
          {
            "duration": 0.10489499999999907,
            "durationTicks": 96,
            "midi": 26,
            "name": "D1",
            "ticks": 44832,
            "time": 48.985965,
            "velocity": 0.3937007874015748
          },
          {
            "duration": 0.10489499999999907,
            "durationTicks": 96,
            "midi": 26,
            "name": "D1",
            "ticks": 44832,
            "time": 48.985965,
            "velocity": 0.3937007874015748
          },
          {
            "duration": 0.10489499999999907,
            "durationTicks": 96,
            "midi": 26,
            "name": "D1",
            "ticks": 44832,
            "time": 48.985965,
            "velocity": 0.3937007874015748
          },
          {
            "duration": 0.10489499999999907,
            "durationTicks": 96,
            "midi": 26,
            "name": "D1",
            "ticks": 44880,
            "time": 49.0384125,
            "velocity": 0.3937007874015748
          },
          {
            "duration": 0.10489499999999907,
            "durationTicks": 96,
            "midi": 26,
            "name": "D1",
            "ticks": 44928,
            "time": 49.09086,
            "velocity": 0.3937007874015748
          },
          {
            "duration": 0.10489499999999907,
            "durationTicks": 96,
            "midi": 26,
            "name": "D1",
            "ticks": 44928,
            "time": 49.09086,
            "velocity": 0.3937007874015748
          },
          {
            "duration": 0.10489499999999907,
            "durationTicks": 96,
            "midi": 26,
            "name": "D1",
            "ticks": 44928,
            "time": 49.09086,
            "velocity": 0.3937007874015748
          },
          {
            "duration": 0.10489499999999907,
            "durationTicks": 96,
            "midi": 26,
            "name": "D1",
            "ticks": 44976,
            "time": 49.1433075,
            "velocity": 0.3937007874015748
          },
          {
            "duration": 0.10489500000000618,
            "durationTicks": 96,
            "midi": 26,
            "name": "D1",
            "ticks": 45024,
            "time": 49.195755,
            "velocity": 0.3937007874015748
          },
          {
            "duration": 0.10489500000000618,
            "durationTicks": 96,
            "midi": 26,
            "name": "D1",
            "ticks": 45024,
            "time": 49.195755,
            "velocity": 0.3937007874015748
          },
          {
            "duration": 0.10489500000000618,
            "durationTicks": 96,
            "midi": 26,
            "name": "D1",
            "ticks": 45024,
            "time": 49.195755,
            "velocity": 0.3937007874015748
          },
          {
            "duration": 0.10489500000000618,
            "durationTicks": 96,
            "midi": 26,
            "name": "D1",
            "ticks": 45072,
            "time": 49.2482025,
            "velocity": 0.3937007874015748
          },
          {
            "duration": 0.10489499999999907,
            "durationTicks": 96,
            "midi": 26,
            "name": "D1",
            "ticks": 45120,
            "time": 49.300650000000005,
            "velocity": 0.3937007874015748
          },
          {
            "duration": 0.10489499999999907,
            "durationTicks": 96,
            "midi": 26,
            "name": "D1",
            "ticks": 45120,
            "time": 49.300650000000005,
            "velocity": 0.3937007874015748
          },
          {
            "duration": 0.10489499999999907,
            "durationTicks": 96,
            "midi": 26,
            "name": "D1",
            "ticks": 45120,
            "time": 49.300650000000005,
            "velocity": 0.3937007874015748
          },
          {
            "duration": 0.10489499999999907,
            "durationTicks": 96,
            "midi": 26,
            "name": "D1",
            "ticks": 45168,
            "time": 49.353097500000004,
            "velocity": 0.3937007874015748
          },
          {
            "duration": 0.10489499999999907,
            "durationTicks": 96,
            "midi": 26,
            "name": "D1",
            "ticks": 45216,
            "time": 49.405545000000004,
            "velocity": 0.3937007874015748
          },
          {
            "duration": 0.10489499999999907,
            "durationTicks": 96,
            "midi": 26,
            "name": "D1",
            "ticks": 45216,
            "time": 49.405545000000004,
            "velocity": 0.3937007874015748
          },
          {
            "duration": 0.10489499999999907,
            "durationTicks": 96,
            "midi": 26,
            "name": "D1",
            "ticks": 45216,
            "time": 49.405545000000004,
            "velocity": 0.3937007874015748
          },
          {
            "duration": 0.10489499999999907,
            "durationTicks": 96,
            "midi": 26,
            "name": "D1",
            "ticks": 45264,
            "time": 49.4579925,
            "velocity": 0.3937007874015748
          },
          {
            "duration": 0.10489499999999907,
            "durationTicks": 96,
            "midi": 26,
            "name": "D1",
            "ticks": 45312,
            "time": 49.51044,
            "velocity": 0.3937007874015748
          },
          {
            "duration": 0.10489499999999907,
            "durationTicks": 96,
            "midi": 26,
            "name": "D1",
            "ticks": 45312,
            "time": 49.51044,
            "velocity": 0.3937007874015748
          },
          {
            "duration": 0.10489499999999907,
            "durationTicks": 96,
            "midi": 26,
            "name": "D1",
            "ticks": 45312,
            "time": 49.51044,
            "velocity": 0.3937007874015748
          },
          {
            "duration": 0.10489499999999907,
            "durationTicks": 96,
            "midi": 26,
            "name": "D1",
            "ticks": 45360,
            "time": 49.5628875,
            "velocity": 0.3937007874015748
          },
          {
            "duration": 0.10489499999999907,
            "durationTicks": 96,
            "midi": 26,
            "name": "D1",
            "ticks": 45408,
            "time": 49.615335,
            "velocity": 0.3937007874015748
          },
          {
            "duration": 0.10489499999999907,
            "durationTicks": 96,
            "midi": 26,
            "name": "D1",
            "ticks": 45408,
            "time": 49.615335,
            "velocity": 0.3937007874015748
          },
          {
            "duration": 0.10489499999999907,
            "durationTicks": 96,
            "midi": 26,
            "name": "D1",
            "ticks": 45408,
            "time": 49.615335,
            "velocity": 0.3937007874015748
          },
          {
            "duration": 0.10489499999999907,
            "durationTicks": 96,
            "midi": 26,
            "name": "D1",
            "ticks": 45456,
            "time": 49.6677825,
            "velocity": 0.3937007874015748
          },
          {
            "duration": 0.10489499999999907,
            "durationTicks": 96,
            "midi": 26,
            "name": "D1",
            "ticks": 45504,
            "time": 49.72023,
            "velocity": 0.3937007874015748
          },
          {
            "duration": 0.10489499999999907,
            "durationTicks": 96,
            "midi": 26,
            "name": "D1",
            "ticks": 45504,
            "time": 49.72023,
            "velocity": 0.3937007874015748
          },
          {
            "duration": 0.10489499999999907,
            "durationTicks": 96,
            "midi": 26,
            "name": "D1",
            "ticks": 45504,
            "time": 49.72023,
            "velocity": 0.3937007874015748
          },
          {
            "duration": 0.10489499999999907,
            "durationTicks": 96,
            "midi": 26,
            "name": "D1",
            "ticks": 45552,
            "time": 49.7726775,
            "velocity": 0.3937007874015748
          },
          {
            "duration": 0.10489499999999907,
            "durationTicks": 96,
            "midi": 26,
            "name": "D1",
            "ticks": 45600,
            "time": 49.825125,
            "velocity": 0.3937007874015748
          },
          {
            "duration": 0.10489499999999907,
            "durationTicks": 96,
            "midi": 26,
            "name": "D1",
            "ticks": 45600,
            "time": 49.825125,
            "velocity": 0.3937007874015748
          },
          {
            "duration": 0.10489499999999907,
            "durationTicks": 96,
            "midi": 26,
            "name": "D1",
            "ticks": 45600,
            "time": 49.825125,
            "velocity": 0.3937007874015748
          },
          {
            "duration": 0.10489499999999907,
            "durationTicks": 96,
            "midi": 26,
            "name": "D1",
            "ticks": 45648,
            "time": 49.8775725,
            "velocity": 0.3937007874015748
          },
          {
            "duration": 0.10489499999999907,
            "durationTicks": 96,
            "midi": 26,
            "name": "D1",
            "ticks": 45696,
            "time": 49.93002,
            "velocity": 0.3937007874015748
          },
          {
            "duration": 0.10489499999999907,
            "durationTicks": 96,
            "midi": 26,
            "name": "D1",
            "ticks": 45696,
            "time": 49.93002,
            "velocity": 0.3937007874015748
          },
          {
            "duration": 0.1573424999999986,
            "durationTicks": 144,
            "midi": 26,
            "name": "D1",
            "ticks": 45696,
            "time": 49.93002,
            "velocity": 0.3937007874015748
          },
          {
            "duration": 0.15734250000000571,
            "durationTicks": 144,
            "midi": 26,
            "name": "D1",
            "ticks": 45744,
            "time": 49.9824675,
            "velocity": 0.3937007874015748
          },
          {
            "duration": 0.10489500000000618,
            "durationTicks": 96,
            "midi": 26,
            "name": "D1",
            "ticks": 45792,
            "time": 50.034915,
            "velocity": 0.3937007874015748
          },
          {
            "duration": 0.15734250000000571,
            "durationTicks": 144,
            "midi": 26,
            "name": "D1",
            "ticks": 45792,
            "time": 50.034915,
            "velocity": 0.3937007874015748
          },
          {
            "duration": 0.10489500000000618,
            "durationTicks": 96,
            "midi": 26,
            "name": "D1",
            "ticks": 45840,
            "time": 50.0873625,
            "velocity": 0.3937007874015748
          },
          {
            "duration": 0.15734250000000571,
            "durationTicks": 144,
            "midi": 26,
            "name": "D1",
            "ticks": 45840,
            "time": 50.0873625,
            "velocity": 0.3937007874015748
          },
          {
            "duration": 0.10489499999999907,
            "durationTicks": 96,
            "midi": 26,
            "name": "D1",
            "ticks": 45888,
            "time": 50.139810000000004,
            "velocity": 0.3937007874015748
          },
          {
            "duration": 0.1573424999999986,
            "durationTicks": 144,
            "midi": 26,
            "name": "D1",
            "ticks": 45888,
            "time": 50.139810000000004,
            "velocity": 0.3937007874015748
          },
          {
            "duration": 0.1573424999999986,
            "durationTicks": 144,
            "midi": 26,
            "name": "D1",
            "ticks": 45936,
            "time": 50.192257500000004,
            "velocity": 0.3937007874015748
          },
          {
            "duration": 0.1573424999999986,
            "durationTicks": 144,
            "midi": 26,
            "name": "D1",
            "ticks": 45936,
            "time": 50.192257500000004,
            "velocity": 0.3937007874015748
          },
          {
            "duration": 0.1573424999999986,
            "durationTicks": 144,
            "midi": 26,
            "name": "D1",
            "ticks": 45984,
            "time": 50.244705,
            "velocity": 0.3937007874015748
          },
          {
            "duration": 0.10489499999999907,
            "durationTicks": 96,
            "midi": 26,
            "name": "D1",
            "ticks": 46032,
            "time": 50.2971525,
            "velocity": 0.3937007874015748
          },
          {
            "duration": 0.1573424999999986,
            "durationTicks": 144,
            "midi": 26,
            "name": "D1",
            "ticks": 46032,
            "time": 50.2971525,
            "velocity": 0.3937007874015748
          },
          {
            "duration": 0.10489499999999907,
            "durationTicks": 96,
            "midi": 25,
            "name": "C#1",
            "ticks": 46080,
            "time": 50.3496,
            "velocity": 0.3937007874015748
          },
          {
            "duration": 0.1573424999999986,
            "durationTicks": 144,
            "midi": 26,
            "name": "D1",
            "ticks": 46080,
            "time": 50.3496,
            "velocity": 0.3937007874015748
          },
          {
            "duration": 0.20978999999999814,
            "durationTicks": 192,
            "midi": 26,
            "name": "D1",
            "ticks": 46128,
            "time": 50.4020475,
            "velocity": 0.3937007874015748
          },
          {
            "duration": 0.10489499999999907,
            "durationTicks": 96,
            "midi": 25,
            "name": "C#1",
            "ticks": 46176,
            "time": 50.454495,
            "velocity": 0.3937007874015748
          },
          {
            "duration": 0.10489499999999907,
            "durationTicks": 96,
            "midi": 25,
            "name": "C#1",
            "ticks": 46176,
            "time": 50.454495,
            "velocity": 0.3937007874015748
          },
          {
            "duration": 0.10489499999999907,
            "durationTicks": 96,
            "midi": 25,
            "name": "C#1",
            "ticks": 46272,
            "time": 50.55939,
            "velocity": 0.3937007874015748
          },
          {
            "duration": 0.10489499999999907,
            "durationTicks": 96,
            "midi": 25,
            "name": "C#1",
            "ticks": 46272,
            "time": 50.55939,
            "velocity": 0.3937007874015748
          },
          {
            "duration": 0.10489499999999907,
            "durationTicks": 96,
            "midi": 25,
            "name": "C#1",
            "ticks": 46272,
            "time": 50.55939,
            "velocity": 0.3937007874015748
          },
          {
            "duration": 0.10489499999999907,
            "durationTicks": 96,
            "midi": 25,
            "name": "C#1",
            "ticks": 46320,
            "time": 50.6118375,
            "velocity": 0.3937007874015748
          },
          {
            "duration": 0.10489499999999907,
            "durationTicks": 96,
            "midi": 25,
            "name": "C#1",
            "ticks": 46368,
            "time": 50.664285,
            "velocity": 0.3937007874015748
          },
          {
            "duration": 0.10489499999999907,
            "durationTicks": 96,
            "midi": 25,
            "name": "C#1",
            "ticks": 46368,
            "time": 50.664285,
            "velocity": 0.3937007874015748
          },
          {
            "duration": 0.10489499999999907,
            "durationTicks": 96,
            "midi": 25,
            "name": "C#1",
            "ticks": 46368,
            "time": 50.664285,
            "velocity": 0.3937007874015748
          },
          {
            "duration": 0.10489499999999907,
            "durationTicks": 96,
            "midi": 25,
            "name": "C#1",
            "ticks": 46416,
            "time": 50.7167325,
            "velocity": 0.3937007874015748
          },
          {
            "duration": 0.10489499999999907,
            "durationTicks": 96,
            "midi": 25,
            "name": "C#1",
            "ticks": 46464,
            "time": 50.76918,
            "velocity": 0.3937007874015748
          },
          {
            "duration": 0.10489499999999907,
            "durationTicks": 96,
            "midi": 25,
            "name": "C#1",
            "ticks": 46464,
            "time": 50.76918,
            "velocity": 0.3937007874015748
          },
          {
            "duration": 0.10489499999999907,
            "durationTicks": 96,
            "midi": 25,
            "name": "C#1",
            "ticks": 46464,
            "time": 50.76918,
            "velocity": 0.3937007874015748
          },
          {
            "duration": 0.10489500000000618,
            "durationTicks": 96,
            "midi": 25,
            "name": "C#1",
            "ticks": 46512,
            "time": 50.8216275,
            "velocity": 0.3937007874015748
          },
          {
            "duration": 0.10489500000000618,
            "durationTicks": 96,
            "midi": 25,
            "name": "C#1",
            "ticks": 46560,
            "time": 50.874075,
            "velocity": 0.3937007874015748
          },
          {
            "duration": 0.10489500000000618,
            "durationTicks": 96,
            "midi": 25,
            "name": "C#1",
            "ticks": 46560,
            "time": 50.874075,
            "velocity": 0.3937007874015748
          },
          {
            "duration": 0.10489500000000618,
            "durationTicks": 96,
            "midi": 25,
            "name": "C#1",
            "ticks": 46560,
            "time": 50.874075,
            "velocity": 0.3937007874015748
          },
          {
            "duration": 0.10489499999999907,
            "durationTicks": 96,
            "midi": 25,
            "name": "C#1",
            "ticks": 46608,
            "time": 50.926522500000004,
            "velocity": 0.3937007874015748
          },
          {
            "duration": 0.10489499999999907,
            "durationTicks": 96,
            "midi": 25,
            "name": "C#1",
            "ticks": 46656,
            "time": 50.978970000000004,
            "velocity": 0.3937007874015748
          },
          {
            "duration": 0.10489499999999907,
            "durationTicks": 96,
            "midi": 25,
            "name": "C#1",
            "ticks": 46656,
            "time": 50.978970000000004,
            "velocity": 0.3937007874015748
          },
          {
            "duration": 0.10489499999999907,
            "durationTicks": 96,
            "midi": 25,
            "name": "C#1",
            "ticks": 46656,
            "time": 50.978970000000004,
            "velocity": 0.3937007874015748
          },
          {
            "duration": 0.10489499999999907,
            "durationTicks": 96,
            "midi": 25,
            "name": "C#1",
            "ticks": 46704,
            "time": 51.0314175,
            "velocity": 0.3937007874015748
          },
          {
            "duration": 0.10489499999999907,
            "durationTicks": 96,
            "midi": 25,
            "name": "C#1",
            "ticks": 46752,
            "time": 51.083865,
            "velocity": 0.3937007874015748
          },
          {
            "duration": 0.10489499999999907,
            "durationTicks": 96,
            "midi": 25,
            "name": "C#1",
            "ticks": 46752,
            "time": 51.083865,
            "velocity": 0.3937007874015748
          },
          {
            "duration": 0.10489499999999907,
            "durationTicks": 96,
            "midi": 25,
            "name": "C#1",
            "ticks": 46752,
            "time": 51.083865,
            "velocity": 0.3937007874015748
          },
          {
            "duration": 0.10489499999999907,
            "durationTicks": 96,
            "midi": 25,
            "name": "C#1",
            "ticks": 46800,
            "time": 51.1363125,
            "velocity": 0.3937007874015748
          },
          {
            "duration": 0.10489499999999907,
            "durationTicks": 96,
            "midi": 25,
            "name": "C#1",
            "ticks": 46848,
            "time": 51.18876,
            "velocity": 0.3937007874015748
          },
          {
            "duration": 0.10489499999999907,
            "durationTicks": 96,
            "midi": 26,
            "name": "D1",
            "ticks": 46848,
            "time": 51.18876,
            "velocity": 0.3937007874015748
          },
          {
            "duration": 0.10489499999999907,
            "durationTicks": 96,
            "midi": 25,
            "name": "C#1",
            "ticks": 46848,
            "time": 51.18876,
            "velocity": 0.3937007874015748
          },
          {
            "duration": 0.10489499999999907,
            "durationTicks": 96,
            "midi": 26,
            "name": "D1",
            "ticks": 46896,
            "time": 51.2412075,
            "velocity": 0.3937007874015748
          },
          {
            "duration": 0.10489499999999907,
            "durationTicks": 96,
            "midi": 25,
            "name": "C#1",
            "ticks": 46944,
            "time": 51.293655,
            "velocity": 0.3937007874015748
          },
          {
            "duration": 0.10489499999999907,
            "durationTicks": 96,
            "midi": 26,
            "name": "D1",
            "ticks": 46944,
            "time": 51.293655,
            "velocity": 0.3937007874015748
          },
          {
            "duration": 0.10489499999999907,
            "durationTicks": 96,
            "midi": 26,
            "name": "D1",
            "ticks": 46944,
            "time": 51.293655,
            "velocity": 0.3937007874015748
          },
          {
            "duration": 0.10489499999999907,
            "durationTicks": 96,
            "midi": 26,
            "name": "D1",
            "ticks": 46992,
            "time": 51.3461025,
            "velocity": 0.3937007874015748
          },
          {
            "duration": 0.10489499999999907,
            "durationTicks": 96,
            "midi": 26,
            "name": "D1",
            "ticks": 47040,
            "time": 51.39855,
            "velocity": 0.3937007874015748
          },
          {
            "duration": 0.10489499999999907,
            "durationTicks": 96,
            "midi": 26,
            "name": "D1",
            "ticks": 47040,
            "time": 51.39855,
            "velocity": 0.3937007874015748
          },
          {
            "duration": 0.10489499999999907,
            "durationTicks": 96,
            "midi": 26,
            "name": "D1",
            "ticks": 47040,
            "time": 51.39855,
            "velocity": 0.3937007874015748
          },
          {
            "duration": 0.10489499999999907,
            "durationTicks": 96,
            "midi": 26,
            "name": "D1",
            "ticks": 47088,
            "time": 51.4509975,
            "velocity": 0.3937007874015748
          },
          {
            "duration": 0.10489499999999907,
            "durationTicks": 96,
            "midi": 26,
            "name": "D1",
            "ticks": 47136,
            "time": 51.503445,
            "velocity": 0.3937007874015748
          },
          {
            "duration": 0.10489499999999907,
            "durationTicks": 96,
            "midi": 26,
            "name": "D1",
            "ticks": 47136,
            "time": 51.503445,
            "velocity": 0.3937007874015748
          },
          {
            "duration": 0.10489499999999907,
            "durationTicks": 96,
            "midi": 26,
            "name": "D1",
            "ticks": 47136,
            "time": 51.503445,
            "velocity": 0.3937007874015748
          },
          {
            "duration": 0.10489499999999907,
            "durationTicks": 96,
            "midi": 26,
            "name": "D1",
            "ticks": 47184,
            "time": 51.5558925,
            "velocity": 0.3937007874015748
          },
          {
            "duration": 0.10489500000000618,
            "durationTicks": 96,
            "midi": 26,
            "name": "D1",
            "ticks": 47232,
            "time": 51.60834,
            "velocity": 0.3937007874015748
          },
          {
            "duration": 0.10489500000000618,
            "durationTicks": 96,
            "midi": 26,
            "name": "D1",
            "ticks": 47232,
            "time": 51.60834,
            "velocity": 0.3937007874015748
          },
          {
            "duration": 0.15734250000000571,
            "durationTicks": 144,
            "midi": 26,
            "name": "D1",
            "ticks": 47232,
            "time": 51.60834,
            "velocity": 0.3937007874015748
          },
          {
            "duration": 0.15734250000000571,
            "durationTicks": 144,
            "midi": 26,
            "name": "D1",
            "ticks": 47280,
            "time": 51.6607875,
            "velocity": 0.3937007874015748
          },
          {
            "duration": 0.10489499999999907,
            "durationTicks": 96,
            "midi": 26,
            "name": "D1",
            "ticks": 47328,
            "time": 51.713235000000005,
            "velocity": 0.3937007874015748
          },
          {
            "duration": 0.1573424999999986,
            "durationTicks": 144,
            "midi": 26,
            "name": "D1",
            "ticks": 47328,
            "time": 51.713235000000005,
            "velocity": 0.3937007874015748
          },
          {
            "duration": 0.10489499999999907,
            "durationTicks": 96,
            "midi": 26,
            "name": "D1",
            "ticks": 47376,
            "time": 51.765682500000004,
            "velocity": 0.3937007874015748
          },
          {
            "duration": 0.1573424999999986,
            "durationTicks": 144,
            "midi": 26,
            "name": "D1",
            "ticks": 47376,
            "time": 51.765682500000004,
            "velocity": 0.3937007874015748
          },
          {
            "duration": 0.10489499999999907,
            "durationTicks": 96,
            "midi": 26,
            "name": "D1",
            "ticks": 47424,
            "time": 51.818130000000004,
            "velocity": 0.3937007874015748
          },
          {
            "duration": 0.1573424999999986,
            "durationTicks": 144,
            "midi": 26,
            "name": "D1",
            "ticks": 47424,
            "time": 51.818130000000004,
            "velocity": 0.3937007874015748
          },
          {
            "duration": 0.1573424999999986,
            "durationTicks": 144,
            "midi": 26,
            "name": "D1",
            "ticks": 47472,
            "time": 51.8705775,
            "velocity": 0.3937007874015748
          },
          {
            "duration": 0.1573424999999986,
            "durationTicks": 144,
            "midi": 26,
            "name": "D1",
            "ticks": 47472,
            "time": 51.8705775,
            "velocity": 0.3937007874015748
          },
          {
            "duration": 0.1573424999999986,
            "durationTicks": 144,
            "midi": 26,
            "name": "D1",
            "ticks": 47520,
            "time": 51.923025,
            "velocity": 0.3937007874015748
          },
          {
            "duration": 0.10489499999999907,
            "durationTicks": 96,
            "midi": 26,
            "name": "D1",
            "ticks": 47568,
            "time": 51.9754725,
            "velocity": 0.3937007874015748
          },
          {
            "duration": 0.1573424999999986,
            "durationTicks": 144,
            "midi": 26,
            "name": "D1",
            "ticks": 47568,
            "time": 51.9754725,
            "velocity": 0.3937007874015748
          },
          {
            "duration": 0.10489499999999907,
            "durationTicks": 96,
            "midi": 33,
            "name": "A1",
            "ticks": 47616,
            "time": 52.02792,
            "velocity": 0.3937007874015748
          },
          {
            "duration": 0.1573424999999986,
            "durationTicks": 144,
            "midi": 26,
            "name": "D1",
            "ticks": 47616,
            "time": 52.02792,
            "velocity": 0.3937007874015748
          },
          {
            "duration": 0.20978999999999814,
            "durationTicks": 192,
            "midi": 26,
            "name": "D1",
            "ticks": 47664,
            "time": 52.0803675,
            "velocity": 0.3937007874015748
          },
          {
            "duration": 0.10489499999999907,
            "durationTicks": 96,
            "midi": 33,
            "name": "A1",
            "ticks": 47712,
            "time": 52.132815,
            "velocity": 0.3937007874015748
          },
          {
            "duration": 0.10489499999999907,
            "durationTicks": 96,
            "midi": 33,
            "name": "A1",
            "ticks": 47712,
            "time": 52.132815,
            "velocity": 0.3937007874015748
          },
          {
            "duration": 0.10489499999999907,
            "durationTicks": 96,
            "midi": 33,
            "name": "A1",
            "ticks": 47808,
            "time": 52.23771,
            "velocity": 0.3937007874015748
          },
          {
            "duration": 0.10489499999999907,
            "durationTicks": 96,
            "midi": 33,
            "name": "A1",
            "ticks": 47808,
            "time": 52.23771,
            "velocity": 0.3937007874015748
          },
          {
            "duration": 0.10489499999999907,
            "durationTicks": 96,
            "midi": 33,
            "name": "A1",
            "ticks": 47808,
            "time": 52.23771,
            "velocity": 0.3937007874015748
          },
          {
            "duration": 0.10489499999999907,
            "durationTicks": 96,
            "midi": 33,
            "name": "A1",
            "ticks": 47856,
            "time": 52.2901575,
            "velocity": 0.3937007874015748
          },
          {
            "duration": 0.10489499999999907,
            "durationTicks": 96,
            "midi": 33,
            "name": "A1",
            "ticks": 47904,
            "time": 52.342605,
            "velocity": 0.3937007874015748
          },
          {
            "duration": 0.10489499999999907,
            "durationTicks": 96,
            "midi": 33,
            "name": "A1",
            "ticks": 47904,
            "time": 52.342605,
            "velocity": 0.3937007874015748
          },
          {
            "duration": 0.10489499999999907,
            "durationTicks": 96,
            "midi": 33,
            "name": "A1",
            "ticks": 47904,
            "time": 52.342605,
            "velocity": 0.3937007874015748
          },
          {
            "duration": 0.10489499999999907,
            "durationTicks": 96,
            "midi": 33,
            "name": "A1",
            "ticks": 47952,
            "time": 52.3950525,
            "velocity": 0.3937007874015748
          },
          {
            "duration": 0.10489500000000618,
            "durationTicks": 96,
            "midi": 33,
            "name": "A1",
            "ticks": 48000,
            "time": 52.4475,
            "velocity": 0.3937007874015748
          },
          {
            "duration": 0.10489500000000618,
            "durationTicks": 96,
            "midi": 33,
            "name": "A1",
            "ticks": 48000,
            "time": 52.4475,
            "velocity": 0.3937007874015748
          },
          {
            "duration": 0.10489500000000618,
            "durationTicks": 96,
            "midi": 33,
            "name": "A1",
            "ticks": 48000,
            "time": 52.4475,
            "velocity": 0.3937007874015748
          },
          {
            "duration": 0.10489500000000618,
            "durationTicks": 96,
            "midi": 33,
            "name": "A1",
            "ticks": 48048,
            "time": 52.4999475,
            "velocity": 0.3937007874015748
          },
          {
            "duration": 0.10489499999999907,
            "durationTicks": 96,
            "midi": 33,
            "name": "A1",
            "ticks": 48096,
            "time": 52.552395000000004,
            "velocity": 0.3937007874015748
          },
          {
            "duration": 0.10489499999999907,
            "durationTicks": 96,
            "midi": 33,
            "name": "A1",
            "ticks": 48096,
            "time": 52.552395000000004,
            "velocity": 0.3937007874015748
          },
          {
            "duration": 0.10489499999999907,
            "durationTicks": 96,
            "midi": 33,
            "name": "A1",
            "ticks": 48096,
            "time": 52.552395000000004,
            "velocity": 0.3937007874015748
          },
          {
            "duration": 0.10489499999999907,
            "durationTicks": 96,
            "midi": 33,
            "name": "A1",
            "ticks": 48144,
            "time": 52.604842500000004,
            "velocity": 0.3937007874015748
          },
          {
            "duration": 0.10489499999999907,
            "durationTicks": 96,
            "midi": 33,
            "name": "A1",
            "ticks": 48192,
            "time": 52.65729,
            "velocity": 0.3937007874015748
          },
          {
            "duration": 0.10489499999999907,
            "durationTicks": 96,
            "midi": 33,
            "name": "A1",
            "ticks": 48192,
            "time": 52.65729,
            "velocity": 0.3937007874015748
          },
          {
            "duration": 0.10489499999999907,
            "durationTicks": 96,
            "midi": 33,
            "name": "A1",
            "ticks": 48192,
            "time": 52.65729,
            "velocity": 0.3937007874015748
          },
          {
            "duration": 0.10489499999999907,
            "durationTicks": 96,
            "midi": 33,
            "name": "A1",
            "ticks": 48240,
            "time": 52.7097375,
            "velocity": 0.3937007874015748
          },
          {
            "duration": 0.10489499999999907,
            "durationTicks": 96,
            "midi": 33,
            "name": "A1",
            "ticks": 48288,
            "time": 52.762185,
            "velocity": 0.3937007874015748
          },
          {
            "duration": 0.10489499999999907,
            "durationTicks": 96,
            "midi": 33,
            "name": "A1",
            "ticks": 48288,
            "time": 52.762185,
            "velocity": 0.3937007874015748
          },
          {
            "duration": 0.10489499999999907,
            "durationTicks": 96,
            "midi": 33,
            "name": "A1",
            "ticks": 48288,
            "time": 52.762185,
            "velocity": 0.3937007874015748
          },
          {
            "duration": 0.10489499999999907,
            "durationTicks": 96,
            "midi": 33,
            "name": "A1",
            "ticks": 48336,
            "time": 52.8146325,
            "velocity": 0.3937007874015748
          },
          {
            "duration": 0.10489499999999907,
            "durationTicks": 96,
            "midi": 33,
            "name": "A1",
            "ticks": 48384,
            "time": 52.86708,
            "velocity": 0.3937007874015748
          },
          {
            "duration": 0.10489499999999907,
            "durationTicks": 96,
            "midi": 26,
            "name": "D1",
            "ticks": 48384,
            "time": 52.86708,
            "velocity": 0.3937007874015748
          },
          {
            "duration": 0.10489499999999907,
            "durationTicks": 96,
            "midi": 33,
            "name": "A1",
            "ticks": 48384,
            "time": 52.86708,
            "velocity": 0.3937007874015748
          },
          {
            "duration": 0.10489499999999907,
            "durationTicks": 96,
            "midi": 26,
            "name": "D1",
            "ticks": 48432,
            "time": 52.9195275,
            "velocity": 0.3937007874015748
          },
          {
            "duration": 0.10489499999999907,
            "durationTicks": 96,
            "midi": 33,
            "name": "A1",
            "ticks": 48480,
            "time": 52.971975,
            "velocity": 0.3937007874015748
          },
          {
            "duration": 0.10489499999999907,
            "durationTicks": 96,
            "midi": 26,
            "name": "D1",
            "ticks": 48480,
            "time": 52.971975,
            "velocity": 0.3937007874015748
          },
          {
            "duration": 0.10489499999999907,
            "durationTicks": 96,
            "midi": 26,
            "name": "D1",
            "ticks": 48480,
            "time": 52.971975,
            "velocity": 0.3937007874015748
          },
          {
            "duration": 0.10489499999999907,
            "durationTicks": 96,
            "midi": 26,
            "name": "D1",
            "ticks": 48528,
            "time": 53.0244225,
            "velocity": 0.3937007874015748
          },
          {
            "duration": 0.10489499999999907,
            "durationTicks": 96,
            "midi": 26,
            "name": "D1",
            "ticks": 48576,
            "time": 53.07687,
            "velocity": 0.3937007874015748
          },
          {
            "duration": 0.10489499999999907,
            "durationTicks": 96,
            "midi": 26,
            "name": "D1",
            "ticks": 48576,
            "time": 53.07687,
            "velocity": 0.3937007874015748
          },
          {
            "duration": 0.10489499999999907,
            "durationTicks": 96,
            "midi": 26,
            "name": "D1",
            "ticks": 48576,
            "time": 53.07687,
            "velocity": 0.3937007874015748
          },
          {
            "duration": 0.10489499999999907,
            "durationTicks": 96,
            "midi": 26,
            "name": "D1",
            "ticks": 48624,
            "time": 53.1293175,
            "velocity": 0.3937007874015748
          },
          {
            "duration": 0.10489499999999907,
            "durationTicks": 96,
            "midi": 26,
            "name": "D1",
            "ticks": 48672,
            "time": 53.181765,
            "velocity": 0.3937007874015748
          },
          {
            "duration": 0.10489499999999907,
            "durationTicks": 96,
            "midi": 26,
            "name": "D1",
            "ticks": 48672,
            "time": 53.181765,
            "velocity": 0.3937007874015748
          },
          {
            "duration": 0.10489499999999907,
            "durationTicks": 96,
            "midi": 26,
            "name": "D1",
            "ticks": 48672,
            "time": 53.181765,
            "velocity": 0.3937007874015748
          },
          {
            "duration": 0.10489500000000618,
            "durationTicks": 96,
            "midi": 26,
            "name": "D1",
            "ticks": 48720,
            "time": 53.2342125,
            "velocity": 0.3937007874015748
          },
          {
            "duration": 0.10489500000000618,
            "durationTicks": 96,
            "midi": 26,
            "name": "D1",
            "ticks": 48768,
            "time": 53.28666,
            "velocity": 0.3937007874015748
          },
          {
            "duration": 0.10489500000000618,
            "durationTicks": 96,
            "midi": 26,
            "name": "D1",
            "ticks": 48768,
            "time": 53.28666,
            "velocity": 0.3937007874015748
          },
          {
            "duration": 0.15734250000000571,
            "durationTicks": 144,
            "midi": 26,
            "name": "D1",
            "ticks": 48768,
            "time": 53.28666,
            "velocity": 0.3937007874015748
          },
          {
            "duration": 0.1573424999999986,
            "durationTicks": 144,
            "midi": 26,
            "name": "D1",
            "ticks": 48816,
            "time": 53.339107500000004,
            "velocity": 0.3937007874015748
          },
          {
            "duration": 0.10489499999999907,
            "durationTicks": 96,
            "midi": 26,
            "name": "D1",
            "ticks": 48864,
            "time": 53.391555000000004,
            "velocity": 0.3937007874015748
          },
          {
            "duration": 0.1573424999999986,
            "durationTicks": 144,
            "midi": 26,
            "name": "D1",
            "ticks": 48864,
            "time": 53.391555000000004,
            "velocity": 0.3937007874015748
          },
          {
            "duration": 0.10489499999999907,
            "durationTicks": 96,
            "midi": 26,
            "name": "D1",
            "ticks": 48912,
            "time": 53.4440025,
            "velocity": 0.3937007874015748
          },
          {
            "duration": 0.1573424999999986,
            "durationTicks": 144,
            "midi": 26,
            "name": "D1",
            "ticks": 48912,
            "time": 53.4440025,
            "velocity": 0.3937007874015748
          },
          {
            "duration": 0.10489499999999907,
            "durationTicks": 96,
            "midi": 26,
            "name": "D1",
            "ticks": 48960,
            "time": 53.49645,
            "velocity": 0.3937007874015748
          },
          {
            "duration": 0.1573424999999986,
            "durationTicks": 144,
            "midi": 26,
            "name": "D1",
            "ticks": 48960,
            "time": 53.49645,
            "velocity": 0.3937007874015748
          },
          {
            "duration": 0.1573424999999986,
            "durationTicks": 144,
            "midi": 26,
            "name": "D1",
            "ticks": 49008,
            "time": 53.5488975,
            "velocity": 0.3937007874015748
          },
          {
            "duration": 0.1573424999999986,
            "durationTicks": 144,
            "midi": 26,
            "name": "D1",
            "ticks": 49008,
            "time": 53.5488975,
            "velocity": 0.3937007874015748
          },
          {
            "duration": 0.1573424999999986,
            "durationTicks": 144,
            "midi": 26,
            "name": "D1",
            "ticks": 49056,
            "time": 53.601345,
            "velocity": 0.3937007874015748
          },
          {
            "duration": 0.10489499999999907,
            "durationTicks": 96,
            "midi": 26,
            "name": "D1",
            "ticks": 49104,
            "time": 53.6537925,
            "velocity": 0.3937007874015748
          },
          {
            "duration": 0.1573424999999986,
            "durationTicks": 144,
            "midi": 26,
            "name": "D1",
            "ticks": 49104,
            "time": 53.6537925,
            "velocity": 0.3937007874015748
          },
          {
            "duration": 0.1573424999999986,
            "durationTicks": 144,
            "midi": 26,
            "name": "D1",
            "ticks": 49152,
            "time": 53.70624,
            "velocity": 0.3937007874015748
          },
          {
            "duration": 0.10489499999999907,
            "durationTicks": 96,
            "midi": 34,
            "name": "A#1",
            "ticks": 49152,
            "time": 53.70624,
            "velocity": 0.3937007874015748
          },
          {
            "duration": 0.20978999999999814,
            "durationTicks": 192,
            "midi": 26,
            "name": "D1",
            "ticks": 49200,
            "time": 53.7586875,
            "velocity": 0.3937007874015748
          },
          {
            "duration": 0.10489499999999907,
            "durationTicks": 96,
            "midi": 34,
            "name": "A#1",
            "ticks": 49248,
            "time": 53.811135,
            "velocity": 0.3937007874015748
          },
          {
            "duration": 0.10489499999999907,
            "durationTicks": 96,
            "midi": 34,
            "name": "A#1",
            "ticks": 49248,
            "time": 53.811135,
            "velocity": 0.3937007874015748
          },
          {
            "duration": 0.10489499999999907,
            "durationTicks": 96,
            "midi": 34,
            "name": "A#1",
            "ticks": 49344,
            "time": 53.91603,
            "velocity": 0.3937007874015748
          },
          {
            "duration": 0.10489499999999907,
            "durationTicks": 96,
            "midi": 34,
            "name": "A#1",
            "ticks": 49344,
            "time": 53.91603,
            "velocity": 0.3937007874015748
          },
          {
            "duration": 0.10489499999999907,
            "durationTicks": 96,
            "midi": 34,
            "name": "A#1",
            "ticks": 49344,
            "time": 53.91603,
            "velocity": 0.3937007874015748
          },
          {
            "duration": 0.10489499999999907,
            "durationTicks": 96,
            "midi": 34,
            "name": "A#1",
            "ticks": 49392,
            "time": 53.9684775,
            "velocity": 0.3937007874015748
          },
          {
            "duration": 0.10489500000000618,
            "durationTicks": 96,
            "midi": 34,
            "name": "A#1",
            "ticks": 49440,
            "time": 54.020925,
            "velocity": 0.3937007874015748
          },
          {
            "duration": 0.10489500000000618,
            "durationTicks": 96,
            "midi": 34,
            "name": "A#1",
            "ticks": 49440,
            "time": 54.020925,
            "velocity": 0.3937007874015748
          },
          {
            "duration": 0.10489500000000618,
            "durationTicks": 96,
            "midi": 34,
            "name": "A#1",
            "ticks": 49440,
            "time": 54.020925,
            "velocity": 0.3937007874015748
          },
          {
            "duration": 0.10489500000000618,
            "durationTicks": 96,
            "midi": 34,
            "name": "A#1",
            "ticks": 49488,
            "time": 54.0733725,
            "velocity": 0.3937007874015748
          },
          {
            "duration": 0.10489499999999907,
            "durationTicks": 96,
            "midi": 34,
            "name": "A#1",
            "ticks": 49536,
            "time": 54.125820000000004,
            "velocity": 0.3937007874015748
          },
          {
            "duration": 0.10489499999999907,
            "durationTicks": 96,
            "midi": 34,
            "name": "A#1",
            "ticks": 49536,
            "time": 54.125820000000004,
            "velocity": 0.3937007874015748
          },
          {
            "duration": 0.10489499999999907,
            "durationTicks": 96,
            "midi": 34,
            "name": "A#1",
            "ticks": 49536,
            "time": 54.125820000000004,
            "velocity": 0.3937007874015748
          },
          {
            "duration": 0.10489499999999907,
            "durationTicks": 96,
            "midi": 34,
            "name": "A#1",
            "ticks": 49584,
            "time": 54.178267500000004,
            "velocity": 0.3937007874015748
          },
          {
            "duration": 0.10489499999999907,
            "durationTicks": 96,
            "midi": 34,
            "name": "A#1",
            "ticks": 49632,
            "time": 54.230715000000004,
            "velocity": 0.3937007874015748
          },
          {
            "duration": 0.10489499999999907,
            "durationTicks": 96,
            "midi": 34,
            "name": "A#1",
            "ticks": 49632,
            "time": 54.230715000000004,
            "velocity": 0.3937007874015748
          },
          {
            "duration": 0.10489499999999907,
            "durationTicks": 96,
            "midi": 34,
            "name": "A#1",
            "ticks": 49632,
            "time": 54.230715000000004,
            "velocity": 0.3937007874015748
          },
          {
            "duration": 0.10489499999999907,
            "durationTicks": 96,
            "midi": 34,
            "name": "A#1",
            "ticks": 49680,
            "time": 54.2831625,
            "velocity": 0.3937007874015748
          },
          {
            "duration": 0.10489499999999907,
            "durationTicks": 96,
            "midi": 34,
            "name": "A#1",
            "ticks": 49728,
            "time": 54.33561,
            "velocity": 0.3937007874015748
          },
          {
            "duration": 0.10489499999999907,
            "durationTicks": 96,
            "midi": 34,
            "name": "A#1",
            "ticks": 49728,
            "time": 54.33561,
            "velocity": 0.3937007874015748
          },
          {
            "duration": 0.10489499999999907,
            "durationTicks": 96,
            "midi": 34,
            "name": "A#1",
            "ticks": 49728,
            "time": 54.33561,
            "velocity": 0.3937007874015748
          },
          {
            "duration": 0.10489499999999907,
            "durationTicks": 96,
            "midi": 34,
            "name": "A#1",
            "ticks": 49776,
            "time": 54.3880575,
            "velocity": 0.3937007874015748
          },
          {
            "duration": 0.10489499999999907,
            "durationTicks": 96,
            "midi": 34,
            "name": "A#1",
            "ticks": 49824,
            "time": 54.440505,
            "velocity": 0.3937007874015748
          },
          {
            "duration": 0.10489499999999907,
            "durationTicks": 96,
            "midi": 34,
            "name": "A#1",
            "ticks": 49824,
            "time": 54.440505,
            "velocity": 0.3937007874015748
          },
          {
            "duration": 0.10489499999999907,
            "durationTicks": 96,
            "midi": 34,
            "name": "A#1",
            "ticks": 49824,
            "time": 54.440505,
            "velocity": 0.3937007874015748
          },
          {
            "duration": 0.10489499999999907,
            "durationTicks": 96,
            "midi": 34,
            "name": "A#1",
            "ticks": 49872,
            "time": 54.4929525,
            "velocity": 0.3937007874015748
          },
          {
            "duration": 0.10489499999999907,
            "durationTicks": 96,
            "midi": 34,
            "name": "A#1",
            "ticks": 49920,
            "time": 54.5454,
            "velocity": 0.3937007874015748
          },
          {
            "duration": 0.10489499999999907,
            "durationTicks": 96,
            "midi": 34,
            "name": "A#1",
            "ticks": 49920,
            "time": 54.5454,
            "velocity": 0.3937007874015748
          },
          {
            "duration": 0.10489499999999907,
            "durationTicks": 96,
            "midi": 33,
            "name": "A1",
            "ticks": 49920,
            "time": 54.5454,
            "velocity": 0.3937007874015748
          },
          {
            "duration": 0.10489499999999907,
            "durationTicks": 96,
            "midi": 33,
            "name": "A1",
            "ticks": 49968,
            "time": 54.5978475,
            "velocity": 0.3937007874015748
          },
          {
            "duration": 0.10489499999999907,
            "durationTicks": 96,
            "midi": 34,
            "name": "A#1",
            "ticks": 50016,
            "time": 54.650295,
            "velocity": 0.3937007874015748
          },
          {
            "duration": 0.10489499999999907,
            "durationTicks": 96,
            "midi": 33,
            "name": "A1",
            "ticks": 50016,
            "time": 54.650295,
            "velocity": 0.3937007874015748
          },
          {
            "duration": 0.10489499999999907,
            "durationTicks": 96,
            "midi": 33,
            "name": "A1",
            "ticks": 50016,
            "time": 54.650295,
            "velocity": 0.3937007874015748
          },
          {
            "duration": 0.10489499999999907,
            "durationTicks": 96,
            "midi": 33,
            "name": "A1",
            "ticks": 50064,
            "time": 54.7027425,
            "velocity": 0.3937007874015748
          },
          {
            "duration": 0.10489499999999907,
            "durationTicks": 96,
            "midi": 33,
            "name": "A1",
            "ticks": 50112,
            "time": 54.75519,
            "velocity": 0.3937007874015748
          },
          {
            "duration": 0.10489499999999907,
            "durationTicks": 96,
            "midi": 33,
            "name": "A1",
            "ticks": 50112,
            "time": 54.75519,
            "velocity": 0.3937007874015748
          },
          {
            "duration": 0.10489499999999907,
            "durationTicks": 96,
            "midi": 33,
            "name": "A1",
            "ticks": 50112,
            "time": 54.75519,
            "velocity": 0.3937007874015748
          },
          {
            "duration": 0.10489500000000618,
            "durationTicks": 96,
            "midi": 33,
            "name": "A1",
            "ticks": 50160,
            "time": 54.8076375,
            "velocity": 0.3937007874015748
          },
          {
            "duration": 0.10489500000000618,
            "durationTicks": 96,
            "midi": 33,
            "name": "A1",
            "ticks": 50208,
            "time": 54.860085,
            "velocity": 0.3937007874015748
          },
          {
            "duration": 0.10489500000000618,
            "durationTicks": 96,
            "midi": 33,
            "name": "A1",
            "ticks": 50208,
            "time": 54.860085,
            "velocity": 0.3937007874015748
          },
          {
            "duration": 0.10489500000000618,
            "durationTicks": 96,
            "midi": 33,
            "name": "A1",
            "ticks": 50208,
            "time": 54.860085,
            "velocity": 0.3937007874015748
          },
          {
            "duration": 0.10489499999999907,
            "durationTicks": 96,
            "midi": 33,
            "name": "A1",
            "ticks": 50256,
            "time": 54.912532500000005,
            "velocity": 0.3937007874015748
          },
          {
            "duration": 0.10489499999999907,
            "durationTicks": 96,
            "midi": 33,
            "name": "A1",
            "ticks": 50304,
            "time": 54.964980000000004,
            "velocity": 0.3937007874015748
          },
          {
            "duration": 0.20978999999999814,
            "durationTicks": 192,
            "midi": 26,
            "name": "D1",
            "ticks": 50304,
            "time": 54.964980000000004,
            "velocity": 0.3937007874015748
          },
          {
            "duration": 0.10489499999999907,
            "durationTicks": 96,
            "midi": 33,
            "name": "A1",
            "ticks": 50304,
            "time": 54.964980000000004,
            "velocity": 0.3937007874015748
          },
          {
            "duration": 0.10489499999999907,
            "durationTicks": 96,
            "midi": 33,
            "name": "A1",
            "ticks": 50352,
            "time": 55.017427500000004,
            "velocity": 0.3937007874015748
          },
          {
            "duration": 0.20978999999999814,
            "durationTicks": 192,
            "midi": 26,
            "name": "D1",
            "ticks": 50400,
            "time": 55.069875,
            "velocity": 0.3937007874015748
          },
          {
            "duration": 0.10489499999999907,
            "durationTicks": 96,
            "midi": 33,
            "name": "A1",
            "ticks": 50400,
            "time": 55.069875,
            "velocity": 0.3937007874015748
          },
          {
            "duration": 0.10489499999999907,
            "durationTicks": 96,
            "midi": 33,
            "name": "A1",
            "ticks": 50448,
            "time": 55.1223225,
            "velocity": 0.3937007874015748
          },
          {
            "duration": 0.20978999999999814,
            "durationTicks": 192,
            "midi": 26,
            "name": "D1",
            "ticks": 50496,
            "time": 55.17477,
            "velocity": 0.3937007874015748
          },
          {
            "duration": 0.10489499999999907,
            "durationTicks": 96,
            "midi": 34,
            "name": "A#1",
            "ticks": 50688,
            "time": 55.38456,
            "velocity": 0.3937007874015748
          },
          {
            "duration": 0.10489499999999907,
            "durationTicks": 96,
            "midi": 34,
            "name": "A#1",
            "ticks": 50784,
            "time": 55.489455,
            "velocity": 0.3937007874015748
          },
          {
            "duration": 0.10489499999999907,
            "durationTicks": 96,
            "midi": 34,
            "name": "A#1",
            "ticks": 50784,
            "time": 55.489455,
            "velocity": 0.3937007874015748
          },
          {
            "duration": 0.10489499999999907,
            "durationTicks": 96,
            "midi": 34,
            "name": "A#1",
            "ticks": 50880,
            "time": 55.59435,
            "velocity": 0.3937007874015748
          },
          {
            "duration": 0.10489499999999907,
            "durationTicks": 96,
            "midi": 34,
            "name": "A#1",
            "ticks": 50880,
            "time": 55.59435,
            "velocity": 0.3937007874015748
          },
          {
            "duration": 0.10489499999999907,
            "durationTicks": 96,
            "midi": 34,
            "name": "A#1",
            "ticks": 50880,
            "time": 55.59435,
            "velocity": 0.3937007874015748
          },
          {
            "duration": 0.10489500000000618,
            "durationTicks": 96,
            "midi": 34,
            "name": "A#1",
            "ticks": 50976,
            "time": 55.699245,
            "velocity": 0.3937007874015748
          },
          {
            "duration": 0.10489500000000618,
            "durationTicks": 96,
            "midi": 34,
            "name": "A#1",
            "ticks": 50976,
            "time": 55.699245,
            "velocity": 0.3937007874015748
          },
          {
            "duration": 0.10489500000000618,
            "durationTicks": 96,
            "midi": 34,
            "name": "A#1",
            "ticks": 50976,
            "time": 55.699245,
            "velocity": 0.3937007874015748
          },
          {
            "duration": 0.10489499999999907,
            "durationTicks": 96,
            "midi": 34,
            "name": "A#1",
            "ticks": 51072,
            "time": 55.804140000000004,
            "velocity": 0.3937007874015748
          },
          {
            "duration": 0.10489499999999907,
            "durationTicks": 96,
            "midi": 34,
            "name": "A#1",
            "ticks": 51072,
            "time": 55.804140000000004,
            "velocity": 0.3937007874015748
          },
          {
            "duration": 0.10489499999999907,
            "durationTicks": 96,
            "midi": 34,
            "name": "A#1",
            "ticks": 51072,
            "time": 55.804140000000004,
            "velocity": 0.3937007874015748
          },
          {
            "duration": 0.10489499999999907,
            "durationTicks": 96,
            "midi": 34,
            "name": "A#1",
            "ticks": 51120,
            "time": 55.8565875,
            "velocity": 0.3937007874015748
          },
          {
            "duration": 0.10489499999999907,
            "durationTicks": 96,
            "midi": 34,
            "name": "A#1",
            "ticks": 51168,
            "time": 55.909035,
            "velocity": 0.3937007874015748
          },
          {
            "duration": 0.10489499999999907,
            "durationTicks": 96,
            "midi": 34,
            "name": "A#1",
            "ticks": 51168,
            "time": 55.909035,
            "velocity": 0.3937007874015748
          },
          {
            "duration": 0.10489499999999907,
            "durationTicks": 96,
            "midi": 34,
            "name": "A#1",
            "ticks": 51168,
            "time": 55.909035,
            "velocity": 0.3937007874015748
          },
          {
            "duration": 0.10489499999999907,
            "durationTicks": 96,
            "midi": 34,
            "name": "A#1",
            "ticks": 51216,
            "time": 55.9614825,
            "velocity": 0.3937007874015748
          },
          {
            "duration": 0.10489499999999907,
            "durationTicks": 96,
            "midi": 84,
            "name": "C6",
            "ticks": 51216,
            "time": 55.9614825,
            "velocity": 0.3937007874015748
          },
          {
            "duration": 0.10489499999999907,
            "durationTicks": 96,
            "midi": 34,
            "name": "A#1",
            "ticks": 51216,
            "time": 55.9614825,
            "velocity": 0.3937007874015748
          },
          {
            "duration": 0.10489499999999907,
            "durationTicks": 96,
            "midi": 34,
            "name": "A#1",
            "ticks": 51264,
            "time": 56.01393,
            "velocity": 0.3937007874015748
          },
          {
            "duration": 0.10489499999999907,
            "durationTicks": 96,
            "midi": 34,
            "name": "A#1",
            "ticks": 51264,
            "time": 56.01393,
            "velocity": 0.3937007874015748
          },
          {
            "duration": 0.10489499999999907,
            "durationTicks": 96,
            "midi": 34,
            "name": "A#1",
            "ticks": 51264,
            "time": 56.01393,
            "velocity": 0.3937007874015748
          },
          {
            "duration": 0.10489499999999907,
            "durationTicks": 96,
            "midi": 82,
            "name": "A#5",
            "ticks": 51312,
            "time": 56.0663775,
            "velocity": 0.3937007874015748
          },
          {
            "duration": 0.10489499999999907,
            "durationTicks": 96,
            "midi": 34,
            "name": "A#1",
            "ticks": 51312,
            "time": 56.0663775,
            "velocity": 0.3937007874015748
          },
          {
            "duration": 0.10489499999999907,
            "durationTicks": 96,
            "midi": 34,
            "name": "A#1",
            "ticks": 51312,
            "time": 56.0663775,
            "velocity": 0.3937007874015748
          },
          {
            "duration": 0.10489499999999907,
            "durationTicks": 96,
            "midi": 34,
            "name": "A#1",
            "ticks": 51360,
            "time": 56.118825,
            "velocity": 0.3937007874015748
          },
          {
            "duration": 0.10489499999999907,
            "durationTicks": 96,
            "midi": 34,
            "name": "A#1",
            "ticks": 51360,
            "time": 56.118825,
            "velocity": 0.3937007874015748
          },
          {
            "duration": 0.10489499999999907,
            "durationTicks": 96,
            "midi": 34,
            "name": "A#1",
            "ticks": 51360,
            "time": 56.118825,
            "velocity": 0.3937007874015748
          },
          {
            "duration": 0.10489499999999907,
            "durationTicks": 96,
            "midi": 34,
            "name": "A#1",
            "ticks": 51408,
            "time": 56.1712725,
            "velocity": 0.3937007874015748
          },
          {
            "duration": 0.10489499999999907,
            "durationTicks": 96,
            "midi": 81,
            "name": "A5",
            "ticks": 51408,
            "time": 56.1712725,
            "velocity": 0.3937007874015748
          },
          {
            "duration": 0.10489499999999907,
            "durationTicks": 96,
            "midi": 34,
            "name": "A#1",
            "ticks": 51456,
            "time": 56.22372,
            "velocity": 0.3937007874015748
          },
          {
            "duration": 0.10489499999999907,
            "durationTicks": 96,
            "midi": 34,
            "name": "A#1",
            "ticks": 51456,
            "time": 56.22372,
            "velocity": 0.3937007874015748
          },
          {
            "duration": 0.10489499999999907,
            "durationTicks": 96,
            "midi": 34,
            "name": "A#1",
            "ticks": 51456,
            "time": 56.22372,
            "velocity": 0.3937007874015748
          },
          {
            "duration": 0.10489499999999907,
            "durationTicks": 96,
            "midi": 79,
            "name": "G5",
            "ticks": 51504,
            "time": 56.2761675,
            "velocity": 0.3937007874015748
          },
          {
            "duration": 0.10489499999999907,
            "durationTicks": 96,
            "midi": 34,
            "name": "A#1",
            "ticks": 51552,
            "time": 56.328615,
            "velocity": 0.3937007874015748
          },
          {
            "duration": 0.10489499999999907,
            "durationTicks": 96,
            "midi": 34,
            "name": "A#1",
            "ticks": 51552,
            "time": 56.328615,
            "velocity": 0.3937007874015748
          },
          {
            "duration": 0.10489499999999907,
            "durationTicks": 96,
            "midi": 34,
            "name": "A#1",
            "ticks": 51552,
            "time": 56.328615,
            "velocity": 0.3937007874015748
          },
          {
            "duration": 0.10489499999999907,
            "durationTicks": 96,
            "midi": 77,
            "name": "F5",
            "ticks": 51600,
            "time": 56.3810625,
            "velocity": 0.3937007874015748
          },
          {
            "duration": 0.10489500000000618,
            "durationTicks": 96,
            "midi": 34,
            "name": "A#1",
            "ticks": 51648,
            "time": 56.43351,
            "velocity": 0.3937007874015748
          },
          {
            "duration": 0.10489500000000618,
            "durationTicks": 96,
            "midi": 34,
            "name": "A#1",
            "ticks": 51648,
            "time": 56.43351,
            "velocity": 0.3937007874015748
          },
          {
            "duration": 0.10489500000000618,
            "durationTicks": 96,
            "midi": 34,
            "name": "A#1",
            "ticks": 51648,
            "time": 56.43351,
            "velocity": 0.3937007874015748
          },
          {
            "duration": 0.10489499999999907,
            "durationTicks": 96,
            "midi": 34,
            "name": "A#1",
            "ticks": 51744,
            "time": 56.538405000000004,
            "velocity": 0.3937007874015748
          },
          {
            "duration": 0.10489499999999907,
            "durationTicks": 96,
            "midi": 34,
            "name": "A#1",
            "ticks": 51744,
            "time": 56.538405000000004,
            "velocity": 0.3937007874015748
          },
          {
            "duration": 0.10489499999999907,
            "durationTicks": 96,
            "midi": 34,
            "name": "A#1",
            "ticks": 51744,
            "time": 56.538405000000004,
            "velocity": 0.3937007874015748
          },
          {
            "duration": 0.10489499999999907,
            "durationTicks": 96,
            "midi": 34,
            "name": "A#1",
            "ticks": 51840,
            "time": 56.6433,
            "velocity": 0.3937007874015748
          },
          {
            "duration": 0.10489499999999907,
            "durationTicks": 96,
            "midi": 34,
            "name": "A#1",
            "ticks": 51840,
            "time": 56.6433,
            "velocity": 0.3937007874015748
          },
          {
            "duration": 0.10489499999999907,
            "durationTicks": 96,
            "midi": 24,
            "name": "C1",
            "ticks": 51840,
            "time": 56.6433,
            "velocity": 0.3937007874015748
          },
          {
            "duration": 0.10489499999999907,
            "durationTicks": 96,
            "midi": 24,
            "name": "C1",
            "ticks": 51888,
            "time": 56.6957475,
            "velocity": 0.3937007874015748
          },
          {
            "duration": 0.10489499999999907,
            "durationTicks": 96,
            "midi": 24,
            "name": "C1",
            "ticks": 51936,
            "time": 56.748195,
            "velocity": 0.3937007874015748
          },
          {
            "duration": 0.10489499999999907,
            "durationTicks": 96,
            "midi": 24,
            "name": "C1",
            "ticks": 51936,
            "time": 56.748195,
            "velocity": 0.3937007874015748
          },
          {
            "duration": 0.10489499999999907,
            "durationTicks": 96,
            "midi": 34,
            "name": "A#1",
            "ticks": 51936,
            "time": 56.748195,
            "velocity": 0.3937007874015748
          },
          {
            "duration": 0.10489499999999907,
            "durationTicks": 96,
            "midi": 24,
            "name": "C1",
            "ticks": 51984,
            "time": 56.8006425,
            "velocity": 0.3937007874015748
          },
          {
            "duration": 0.10489499999999907,
            "durationTicks": 96,
            "midi": 24,
            "name": "C1",
            "ticks": 51984,
            "time": 56.8006425,
            "velocity": 0.3937007874015748
          },
          {
            "duration": 0.10489499999999907,
            "durationTicks": 96,
            "midi": 84,
            "name": "C6",
            "ticks": 51984,
            "time": 56.8006425,
            "velocity": 0.3937007874015748
          },
          {
            "duration": 0.10489499999999907,
            "durationTicks": 96,
            "midi": 24,
            "name": "C1",
            "ticks": 52032,
            "time": 56.85309,
            "velocity": 0.3937007874015748
          },
          {
            "duration": 0.10489499999999907,
            "durationTicks": 96,
            "midi": 24,
            "name": "C1",
            "ticks": 52032,
            "time": 56.85309,
            "velocity": 0.3937007874015748
          },
          {
            "duration": 0.10489499999999907,
            "durationTicks": 96,
            "midi": 24,
            "name": "C1",
            "ticks": 52032,
            "time": 56.85309,
            "velocity": 0.3937007874015748
          },
          {
            "duration": 0.10489499999999907,
            "durationTicks": 96,
            "midi": 82,
            "name": "A#5",
            "ticks": 52080,
            "time": 56.9055375,
            "velocity": 0.3937007874015748
          },
          {
            "duration": 0.10489499999999907,
            "durationTicks": 96,
            "midi": 24,
            "name": "C1",
            "ticks": 52080,
            "time": 56.9055375,
            "velocity": 0.3937007874015748
          },
          {
            "duration": 0.10489499999999907,
            "durationTicks": 96,
            "midi": 24,
            "name": "C1",
            "ticks": 52080,
            "time": 56.9055375,
            "velocity": 0.3937007874015748
          },
          {
            "duration": 0.10489499999999907,
            "durationTicks": 96,
            "midi": 24,
            "name": "C1",
            "ticks": 52128,
            "time": 56.957985,
            "velocity": 0.3937007874015748
          },
          {
            "duration": 0.10489499999999907,
            "durationTicks": 96,
            "midi": 24,
            "name": "C1",
            "ticks": 52128,
            "time": 56.957985,
            "velocity": 0.3937007874015748
          },
          {
            "duration": 0.10489499999999907,
            "durationTicks": 96,
            "midi": 24,
            "name": "C1",
            "ticks": 52128,
            "time": 56.957985,
            "velocity": 0.3937007874015748
          },
          {
            "duration": 0.10489499999999907,
            "durationTicks": 96,
            "midi": 24,
            "name": "C1",
            "ticks": 52176,
            "time": 57.0104325,
            "velocity": 0.3937007874015748
          },
          {
            "duration": 0.10489499999999907,
            "durationTicks": 96,
            "midi": 81,
            "name": "A5",
            "ticks": 52176,
            "time": 57.0104325,
            "velocity": 0.3937007874015748
          },
          {
            "duration": 0.10489499999999907,
            "durationTicks": 96,
            "midi": 24,
            "name": "C1",
            "ticks": 52224,
            "time": 57.06288,
            "velocity": 0.3937007874015748
          },
          {
            "duration": 0.10489499999999907,
            "durationTicks": 96,
            "midi": 26,
            "name": "D1",
            "ticks": 52224,
            "time": 57.06288,
            "velocity": 0.3937007874015748
          },
          {
            "duration": 0.10489499999999907,
            "durationTicks": 96,
            "midi": 24,
            "name": "C1",
            "ticks": 52224,
            "time": 57.06288,
            "velocity": 0.3937007874015748
          },
          {
            "duration": 0.10489499999999907,
            "durationTicks": 96,
            "midi": 79,
            "name": "G5",
            "ticks": 52272,
            "time": 57.1153275,
            "velocity": 0.3937007874015748
          },
          {
            "duration": 0.10489499999999907,
            "durationTicks": 96,
            "midi": 24,
            "name": "C1",
            "ticks": 52320,
            "time": 57.167775,
            "velocity": 0.3937007874015748
          },
          {
            "duration": 0.10489499999999907,
            "durationTicks": 96,
            "midi": 26,
            "name": "D1",
            "ticks": 52320,
            "time": 57.167775,
            "velocity": 0.3937007874015748
          },
          {
            "duration": 0.10489499999999907,
            "durationTicks": 96,
            "midi": 26,
            "name": "D1",
            "ticks": 52320,
            "time": 57.167775,
            "velocity": 0.3937007874015748
          },
          {
            "duration": 0.10489500000000618,
            "durationTicks": 96,
            "midi": 77,
            "name": "F5",
            "ticks": 52368,
            "time": 57.2202225,
            "velocity": 0.3937007874015748
          },
          {
            "duration": 0.10489500000000618,
            "durationTicks": 96,
            "midi": 26,
            "name": "D1",
            "ticks": 52416,
            "time": 57.27267,
            "velocity": 0.3937007874015748
          },
          {
            "duration": 0.10489500000000618,
            "durationTicks": 96,
            "midi": 26,
            "name": "D1",
            "ticks": 52416,
            "time": 57.27267,
            "velocity": 0.3937007874015748
          },
          {
            "duration": 0.10489500000000618,
            "durationTicks": 96,
            "midi": 26,
            "name": "D1",
            "ticks": 52416,
            "time": 57.27267,
            "velocity": 0.3937007874015748
          },
          {
            "duration": 0.10489499999999907,
            "durationTicks": 96,
            "midi": 26,
            "name": "D1",
            "ticks": 52512,
            "time": 57.377565000000004,
            "velocity": 0.3937007874015748
          },
          {
            "duration": 0.10489499999999907,
            "durationTicks": 96,
            "midi": 26,
            "name": "D1",
            "ticks": 52512,
            "time": 57.377565000000004,
            "velocity": 0.3937007874015748
          },
          {
            "duration": 0.10489499999999907,
            "durationTicks": 96,
            "midi": 26,
            "name": "D1",
            "ticks": 52512,
            "time": 57.377565000000004,
            "velocity": 0.3937007874015748
          },
          {
            "duration": 0.10489499999999907,
            "durationTicks": 96,
            "midi": 26,
            "name": "D1",
            "ticks": 52608,
            "time": 57.48246,
            "velocity": 0.3937007874015748
          },
          {
            "duration": 0.10489499999999907,
            "durationTicks": 96,
            "midi": 26,
            "name": "D1",
            "ticks": 52608,
            "time": 57.48246,
            "velocity": 0.3937007874015748
          },
          {
            "duration": 0.10489499999999907,
            "durationTicks": 96,
            "midi": 26,
            "name": "D1",
            "ticks": 52608,
            "time": 57.48246,
            "velocity": 0.3937007874015748
          },
          {
            "duration": 0.10489499999999907,
            "durationTicks": 96,
            "midi": 26,
            "name": "D1",
            "ticks": 52656,
            "time": 57.5349075,
            "velocity": 0.3937007874015748
          },
          {
            "duration": 0.10489499999999907,
            "durationTicks": 96,
            "midi": 26,
            "name": "D1",
            "ticks": 52704,
            "time": 57.587355,
            "velocity": 0.3937007874015748
          },
          {
            "duration": 0.10489499999999907,
            "durationTicks": 96,
            "midi": 26,
            "name": "D1",
            "ticks": 52704,
            "time": 57.587355,
            "velocity": 0.3937007874015748
          },
          {
            "duration": 0.10489499999999907,
            "durationTicks": 96,
            "midi": 26,
            "name": "D1",
            "ticks": 52704,
            "time": 57.587355,
            "velocity": 0.3937007874015748
          },
          {
            "duration": 0.10489499999999907,
            "durationTicks": 96,
            "midi": 77,
            "name": "F5",
            "ticks": 52752,
            "time": 57.6398025,
            "velocity": 0.3937007874015748
          },
          {
            "duration": 0.10489499999999907,
            "durationTicks": 96,
            "midi": 26,
            "name": "D1",
            "ticks": 52752,
            "time": 57.6398025,
            "velocity": 0.3937007874015748
          },
          {
            "duration": 0.10489499999999907,
            "durationTicks": 96,
            "midi": 26,
            "name": "D1",
            "ticks": 52752,
            "time": 57.6398025,
            "velocity": 0.3937007874015748
          },
          {
            "duration": 0.10489499999999907,
            "durationTicks": 96,
            "midi": 26,
            "name": "D1",
            "ticks": 52800,
            "time": 57.69225,
            "velocity": 0.3937007874015748
          },
          {
            "duration": 0.10489499999999907,
            "durationTicks": 96,
            "midi": 26,
            "name": "D1",
            "ticks": 52800,
            "time": 57.69225,
            "velocity": 0.3937007874015748
          },
          {
            "duration": 0.10489499999999907,
            "durationTicks": 96,
            "midi": 26,
            "name": "D1",
            "ticks": 52800,
            "time": 57.69225,
            "velocity": 0.3937007874015748
          },
          {
            "duration": 0.10489499999999907,
            "durationTicks": 96,
            "midi": 26,
            "name": "D1",
            "ticks": 52848,
            "time": 57.7446975,
            "velocity": 0.3937007874015748
          },
          {
            "duration": 0.10489499999999907,
            "durationTicks": 96,
            "midi": 26,
            "name": "D1",
            "ticks": 52848,
            "time": 57.7446975,
            "velocity": 0.3937007874015748
          },
          {
            "duration": 0.10489499999999907,
            "durationTicks": 96,
            "midi": 76,
            "name": "E5",
            "ticks": 52848,
            "time": 57.7446975,
            "velocity": 0.3937007874015748
          },
          {
            "duration": 0.10489499999999907,
            "durationTicks": 96,
            "midi": 26,
            "name": "D1",
            "ticks": 52896,
            "time": 57.797145,
            "velocity": 0.3937007874015748
          },
          {
            "duration": 0.10489499999999907,
            "durationTicks": 96,
            "midi": 26,
            "name": "D1",
            "ticks": 52896,
            "time": 57.797145,
            "velocity": 0.3937007874015748
          },
          {
            "duration": 0.10489499999999907,
            "durationTicks": 96,
            "midi": 26,
            "name": "D1",
            "ticks": 52896,
            "time": 57.797145,
            "velocity": 0.3937007874015748
          },
          {
            "duration": 0.10489499999999907,
            "durationTicks": 96,
            "midi": 74,
            "name": "D5",
            "ticks": 52944,
            "time": 57.8495925,
            "velocity": 0.3937007874015748
          },
          {
            "duration": 0.10489499999999907,
            "durationTicks": 96,
            "midi": 26,
            "name": "D1",
            "ticks": 52944,
            "time": 57.8495925,
            "velocity": 0.3937007874015748
          },
          {
            "duration": 0.10489499999999907,
            "durationTicks": 96,
            "midi": 26,
            "name": "D1",
            "ticks": 52992,
            "time": 57.90204,
            "velocity": 0.3937007874015748
          },
          {
            "duration": 0.10489499999999907,
            "durationTicks": 96,
            "midi": 26,
            "name": "D1",
            "ticks": 52992,
            "time": 57.90204,
            "velocity": 0.3937007874015748
          },
          {
            "duration": 0.10489499999999907,
            "durationTicks": 96,
            "midi": 26,
            "name": "D1",
            "ticks": 52992,
            "time": 57.90204,
            "velocity": 0.3937007874015748
          },
          {
            "duration": 0.10489499999999907,
            "durationTicks": 96,
            "midi": 72,
            "name": "C5",
            "ticks": 53040,
            "time": 57.9544875,
            "velocity": 0.3937007874015748
          },
          {
            "duration": 0.10489499999999907,
            "durationTicks": 96,
            "midi": 26,
            "name": "D1",
            "ticks": 53088,
            "time": 58.006935,
            "velocity": 0.3937007874015748
          },
          {
            "duration": 0.10489499999999907,
            "durationTicks": 96,
            "midi": 26,
            "name": "D1",
            "ticks": 53088,
            "time": 58.006935,
            "velocity": 0.3937007874015748
          },
          {
            "duration": 0.10489499999999907,
            "durationTicks": 96,
            "midi": 26,
            "name": "D1",
            "ticks": 53088,
            "time": 58.006935,
            "velocity": 0.3937007874015748
          },
          {
            "duration": 0.10489500000000618,
            "durationTicks": 96,
            "midi": 69,
            "name": "A4",
            "ticks": 53136,
            "time": 58.0593825,
            "velocity": 0.3937007874015748
          },
          {
            "duration": 0.10489500000000618,
            "durationTicks": 96,
            "midi": 26,
            "name": "D1",
            "ticks": 53184,
            "time": 58.11183,
            "velocity": 0.3937007874015748
          },
          {
            "duration": 0.10489500000000618,
            "durationTicks": 96,
            "midi": 26,
            "name": "D1",
            "ticks": 53184,
            "time": 58.11183,
            "velocity": 0.3937007874015748
          },
          {
            "duration": 0.10489500000000618,
            "durationTicks": 96,
            "midi": 26,
            "name": "D1",
            "ticks": 53184,
            "time": 58.11183,
            "velocity": 0.3937007874015748
          },
          {
            "duration": 0.10489499999999907,
            "durationTicks": 96,
            "midi": 26,
            "name": "D1",
            "ticks": 53280,
            "time": 58.216725000000004,
            "velocity": 0.3937007874015748
          },
          {
            "duration": 0.10489499999999907,
            "durationTicks": 96,
            "midi": 26,
            "name": "D1",
            "ticks": 53280,
            "time": 58.216725000000004,
            "velocity": 0.3937007874015748
          },
          {
            "duration": 0.10489499999999907,
            "durationTicks": 96,
            "midi": 26,
            "name": "D1",
            "ticks": 53280,
            "time": 58.216725000000004,
            "velocity": 0.3937007874015748
          },
          {
            "duration": 0.10489499999999907,
            "durationTicks": 96,
            "midi": 26,
            "name": "D1",
            "ticks": 53376,
            "time": 58.32162,
            "velocity": 0.3937007874015748
          },
          {
            "duration": 0.10489499999999907,
            "durationTicks": 96,
            "midi": 24,
            "name": "C1",
            "ticks": 53376,
            "time": 58.32162,
            "velocity": 0.3937007874015748
          },
          {
            "duration": 0.10489499999999907,
            "durationTicks": 96,
            "midi": 26,
            "name": "D1",
            "ticks": 53376,
            "time": 58.32162,
            "velocity": 0.3937007874015748
          },
          {
            "duration": 0.10489499999999907,
            "durationTicks": 96,
            "midi": 24,
            "name": "C1",
            "ticks": 53424,
            "time": 58.3740675,
            "velocity": 0.3937007874015748
          },
          {
            "duration": 0.10489499999999907,
            "durationTicks": 96,
            "midi": 24,
            "name": "C1",
            "ticks": 53472,
            "time": 58.426515,
            "velocity": 0.3937007874015748
          },
          {
            "duration": 0.10489499999999907,
            "durationTicks": 96,
            "midi": 24,
            "name": "C1",
            "ticks": 53472,
            "time": 58.426515,
            "velocity": 0.3937007874015748
          },
          {
            "duration": 0.10489499999999907,
            "durationTicks": 96,
            "midi": 26,
            "name": "D1",
            "ticks": 53472,
            "time": 58.426515,
            "velocity": 0.3937007874015748
          },
          {
            "duration": 0.10489499999999907,
            "durationTicks": 96,
            "midi": 24,
            "name": "C1",
            "ticks": 53520,
            "time": 58.4789625,
            "velocity": 0.3937007874015748
          },
          {
            "duration": 0.10489499999999907,
            "durationTicks": 96,
            "midi": 77,
            "name": "F5",
            "ticks": 53520,
            "time": 58.4789625,
            "velocity": 0.3937007874015748
          },
          {
            "duration": 0.10489499999999907,
            "durationTicks": 96,
            "midi": 24,
            "name": "C1",
            "ticks": 53520,
            "time": 58.4789625,
            "velocity": 0.3937007874015748
          },
          {
            "duration": 0.10489499999999907,
            "durationTicks": 96,
            "midi": 24,
            "name": "C1",
            "ticks": 53568,
            "time": 58.53141,
            "velocity": 0.3937007874015748
          },
          {
            "duration": 0.10489499999999907,
            "durationTicks": 96,
            "midi": 24,
            "name": "C1",
            "ticks": 53568,
            "time": 58.53141,
            "velocity": 0.3937007874015748
          },
          {
            "duration": 0.10489499999999907,
            "durationTicks": 96,
            "midi": 24,
            "name": "C1",
            "ticks": 53568,
            "time": 58.53141,
            "velocity": 0.3937007874015748
          },
          {
            "duration": 0.10489499999999907,
            "durationTicks": 96,
            "midi": 24,
            "name": "C1",
            "ticks": 53616,
            "time": 58.5838575,
            "velocity": 0.3937007874015748
          },
          {
            "duration": 0.10489499999999907,
            "durationTicks": 96,
            "midi": 24,
            "name": "C1",
            "ticks": 53616,
            "time": 58.5838575,
            "velocity": 0.3937007874015748
          },
          {
            "duration": 0.10489499999999907,
            "durationTicks": 96,
            "midi": 76,
            "name": "E5",
            "ticks": 53616,
            "time": 58.5838575,
            "velocity": 0.3937007874015748
          },
          {
            "duration": 0.10489499999999907,
            "durationTicks": 96,
            "midi": 24,
            "name": "C1",
            "ticks": 53664,
            "time": 58.636305,
            "velocity": 0.3937007874015748
          },
          {
            "duration": 0.10489499999999907,
            "durationTicks": 96,
            "midi": 24,
            "name": "C1",
            "ticks": 53664,
            "time": 58.636305,
            "velocity": 0.3937007874015748
          },
          {
            "duration": 0.10489499999999907,
            "durationTicks": 96,
            "midi": 24,
            "name": "C1",
            "ticks": 53664,
            "time": 58.636305,
            "velocity": 0.3937007874015748
          },
          {
            "duration": 0.10489499999999907,
            "durationTicks": 96,
            "midi": 74,
            "name": "D5",
            "ticks": 53712,
            "time": 58.6887525,
            "velocity": 0.3937007874015748
          },
          {
            "duration": 0.10489499999999907,
            "durationTicks": 96,
            "midi": 24,
            "name": "C1",
            "ticks": 53712,
            "time": 58.6887525,
            "velocity": 0.3937007874015748
          },
          {
            "duration": 0.10489499999999907,
            "durationTicks": 96,
            "midi": 24,
            "name": "C1",
            "ticks": 53760,
            "time": 58.7412,
            "velocity": 0.3937007874015748
          },
          {
            "duration": 0.10489499999999907,
            "durationTicks": 96,
            "midi": 34,
            "name": "A#1",
            "ticks": 53760,
            "time": 58.7412,
            "velocity": 0.3937007874015748
          },
          {
            "duration": 0.10489499999999907,
            "durationTicks": 96,
            "midi": 24,
            "name": "C1",
            "ticks": 53760,
            "time": 58.7412,
            "velocity": 0.3937007874015748
          },
          {
            "duration": 0.10489499999999907,
            "durationTicks": 96,
            "midi": 72,
            "name": "C5",
            "ticks": 53808,
            "time": 58.7936475,
            "velocity": 0.3937007874015748
          },
          {
            "duration": 0.10489500000000618,
            "durationTicks": 96,
            "midi": 34,
            "name": "A#1",
            "ticks": 53856,
            "time": 58.846095,
            "velocity": 0.3937007874015748
          },
          {
            "duration": 0.10489500000000618,
            "durationTicks": 96,
            "midi": 24,
            "name": "C1",
            "ticks": 53856,
            "time": 58.846095,
            "velocity": 0.3937007874015748
          },
          {
            "duration": 0.10489500000000618,
            "durationTicks": 96,
            "midi": 34,
            "name": "A#1",
            "ticks": 53856,
            "time": 58.846095,
            "velocity": 0.3937007874015748
          },
          {
            "duration": 0.10489500000000618,
            "durationTicks": 96,
            "midi": 69,
            "name": "A4",
            "ticks": 53904,
            "time": 58.8985425,
            "velocity": 0.3937007874015748
          },
          {
            "duration": 0.10489499999999907,
            "durationTicks": 96,
            "midi": 34,
            "name": "A#1",
            "ticks": 53952,
            "time": 58.950990000000004,
            "velocity": 0.3937007874015748
          },
          {
            "duration": 0.10489499999999907,
            "durationTicks": 96,
            "midi": 34,
            "name": "A#1",
            "ticks": 53952,
            "time": 58.950990000000004,
            "velocity": 0.3937007874015748
          },
          {
            "duration": 0.10489499999999907,
            "durationTicks": 96,
            "midi": 34,
            "name": "A#1",
            "ticks": 53952,
            "time": 58.950990000000004,
            "velocity": 0.3937007874015748
          },
          {
            "duration": 0.10489499999999907,
            "durationTicks": 96,
            "midi": 34,
            "name": "A#1",
            "ticks": 54048,
            "time": 59.055885,
            "velocity": 0.3937007874015748
          },
          {
            "duration": 0.10489499999999907,
            "durationTicks": 96,
            "midi": 34,
            "name": "A#1",
            "ticks": 54048,
            "time": 59.055885,
            "velocity": 0.3937007874015748
          },
          {
            "duration": 0.10489499999999907,
            "durationTicks": 96,
            "midi": 34,
            "name": "A#1",
            "ticks": 54048,
            "time": 59.055885,
            "velocity": 0.3937007874015748
          },
          {
            "duration": 0.10489499999999907,
            "durationTicks": 96,
            "midi": 34,
            "name": "A#1",
            "ticks": 54144,
            "time": 59.16078,
            "velocity": 0.3937007874015748
          },
          {
            "duration": 0.10489499999999907,
            "durationTicks": 96,
            "midi": 34,
            "name": "A#1",
            "ticks": 54144,
            "time": 59.16078,
            "velocity": 0.3937007874015748
          },
          {
            "duration": 0.10489499999999907,
            "durationTicks": 96,
            "midi": 34,
            "name": "A#1",
            "ticks": 54144,
            "time": 59.16078,
            "velocity": 0.3937007874015748
          },
          {
            "duration": 0.10489499999999907,
            "durationTicks": 96,
            "midi": 34,
            "name": "A#1",
            "ticks": 54192,
            "time": 59.2132275,
            "velocity": 0.3937007874015748
          },
          {
            "duration": 0.10489499999999907,
            "durationTicks": 96,
            "midi": 34,
            "name": "A#1",
            "ticks": 54240,
            "time": 59.265675,
            "velocity": 0.3937007874015748
          },
          {
            "duration": 0.10489499999999907,
            "durationTicks": 96,
            "midi": 34,
            "name": "A#1",
            "ticks": 54240,
            "time": 59.265675,
            "velocity": 0.3937007874015748
          },
          {
            "duration": 0.10489499999999907,
            "durationTicks": 96,
            "midi": 34,
            "name": "A#1",
            "ticks": 54240,
            "time": 59.265675,
            "velocity": 0.3937007874015748
          },
          {
            "duration": 0.10489499999999907,
            "durationTicks": 96,
            "midi": 34,
            "name": "A#1",
            "ticks": 54288,
            "time": 59.3181225,
            "velocity": 0.3937007874015748
          },
          {
            "duration": 0.10489499999999907,
            "durationTicks": 96,
            "midi": 34,
            "name": "A#1",
            "ticks": 54288,
            "time": 59.3181225,
            "velocity": 0.3937007874015748
          },
          {
            "duration": 0.10489499999999907,
            "durationTicks": 96,
            "midi": 34,
            "name": "A#1",
            "ticks": 54336,
            "time": 59.37057,
            "velocity": 0.3937007874015748
          },
          {
            "duration": 0.10489499999999907,
            "durationTicks": 96,
            "midi": 34,
            "name": "A#1",
            "ticks": 54336,
            "time": 59.37057,
            "velocity": 0.3937007874015748
          },
          {
            "duration": 0.10489499999999907,
            "durationTicks": 96,
            "midi": 34,
            "name": "A#1",
            "ticks": 54336,
            "time": 59.37057,
            "velocity": 0.3937007874015748
          },
          {
            "duration": 0.10489499999999907,
            "durationTicks": 96,
            "midi": 34,
            "name": "A#1",
            "ticks": 54384,
            "time": 59.4230175,
            "velocity": 0.3937007874015748
          },
          {
            "duration": 0.10489499999999907,
            "durationTicks": 96,
            "midi": 34,
            "name": "A#1",
            "ticks": 54384,
            "time": 59.4230175,
            "velocity": 0.3937007874015748
          },
          {
            "duration": 0.10489499999999907,
            "durationTicks": 96,
            "midi": 34,
            "name": "A#1",
            "ticks": 54432,
            "time": 59.475465,
            "velocity": 0.3937007874015748
          },
          {
            "duration": 0.10489499999999907,
            "durationTicks": 96,
            "midi": 34,
            "name": "A#1",
            "ticks": 54432,
            "time": 59.475465,
            "velocity": 0.3937007874015748
          },
          {
            "duration": 0.10489499999999907,
            "durationTicks": 96,
            "midi": 34,
            "name": "A#1",
            "ticks": 54432,
            "time": 59.475465,
            "velocity": 0.3937007874015748
          },
          {
            "duration": 0.10489499999999907,
            "durationTicks": 96,
            "midi": 34,
            "name": "A#1",
            "ticks": 54480,
            "time": 59.5279125,
            "velocity": 0.3937007874015748
          },
          {
            "duration": 0.10489499999999907,
            "durationTicks": 96,
            "midi": 34,
            "name": "A#1",
            "ticks": 54528,
            "time": 59.58036,
            "velocity": 0.3937007874015748
          },
          {
            "duration": 0.10489499999999907,
            "durationTicks": 96,
            "midi": 34,
            "name": "A#1",
            "ticks": 54528,
            "time": 59.58036,
            "velocity": 0.3937007874015748
          },
          {
            "duration": 0.10489499999999907,
            "durationTicks": 96,
            "midi": 34,
            "name": "A#1",
            "ticks": 54528,
            "time": 59.58036,
            "velocity": 0.3937007874015748
          },
          {
            "duration": 0.10489500000000618,
            "durationTicks": 96,
            "midi": 34,
            "name": "A#1",
            "ticks": 54624,
            "time": 59.685255,
            "velocity": 0.3937007874015748
          },
          {
            "duration": 0.10489500000000618,
            "durationTicks": 96,
            "midi": 34,
            "name": "A#1",
            "ticks": 54624,
            "time": 59.685255,
            "velocity": 0.3937007874015748
          },
          {
            "duration": 0.10489500000000618,
            "durationTicks": 96,
            "midi": 34,
            "name": "A#1",
            "ticks": 54624,
            "time": 59.685255,
            "velocity": 0.3937007874015748
          },
          {
            "duration": 0.10489499999999907,
            "durationTicks": 96,
            "midi": 34,
            "name": "A#1",
            "ticks": 54720,
            "time": 59.790150000000004,
            "velocity": 0.3937007874015748
          },
          {
            "duration": 0.10489499999999907,
            "durationTicks": 96,
            "midi": 34,
            "name": "A#1",
            "ticks": 54720,
            "time": 59.790150000000004,
            "velocity": 0.3937007874015748
          },
          {
            "duration": 0.10489499999999907,
            "durationTicks": 96,
            "midi": 34,
            "name": "A#1",
            "ticks": 54720,
            "time": 59.790150000000004,
            "velocity": 0.3937007874015748
          },
          {
            "duration": 0.10489499999999907,
            "durationTicks": 96,
            "midi": 34,
            "name": "A#1",
            "ticks": 54816,
            "time": 59.895045,
            "velocity": 0.3937007874015748
          },
          {
            "duration": 0.10489499999999907,
            "durationTicks": 96,
            "midi": 34,
            "name": "A#1",
            "ticks": 54816,
            "time": 59.895045,
            "velocity": 0.3937007874015748
          },
          {
            "duration": 0.10489499999999907,
            "durationTicks": 96,
            "midi": 34,
            "name": "A#1",
            "ticks": 54816,
            "time": 59.895045,
            "velocity": 0.3937007874015748
          },
          {
            "duration": 0.10489499999999907,
            "durationTicks": 96,
            "midi": 34,
            "name": "A#1",
            "ticks": 54912,
            "time": 59.99994,
            "velocity": 0.3937007874015748
          },
          {
            "duration": 0.10489499999999907,
            "durationTicks": 96,
            "midi": 24,
            "name": "C1",
            "ticks": 54912,
            "time": 59.99994,
            "velocity": 0.3937007874015748
          },
          {
            "duration": 0.10489499999999907,
            "durationTicks": 96,
            "midi": 34,
            "name": "A#1",
            "ticks": 54912,
            "time": 59.99994,
            "velocity": 0.3937007874015748
          },
          {
            "duration": 0.10489499999999907,
            "durationTicks": 96,
            "midi": 24,
            "name": "C1",
            "ticks": 54960,
            "time": 60.0523875,
            "velocity": 0.3937007874015748
          },
          {
            "duration": 0.10489499999999907,
            "durationTicks": 96,
            "midi": 24,
            "name": "C1",
            "ticks": 55008,
            "time": 60.104835,
            "velocity": 0.3937007874015748
          },
          {
            "duration": 0.10489499999999907,
            "durationTicks": 96,
            "midi": 34,
            "name": "A#1",
            "ticks": 55008,
            "time": 60.104835,
            "velocity": 0.3937007874015748
          },
          {
            "duration": 0.10489499999999907,
            "durationTicks": 96,
            "midi": 24,
            "name": "C1",
            "ticks": 55008,
            "time": 60.104835,
            "velocity": 0.3937007874015748
          },
          {
            "duration": 0.10489499999999907,
            "durationTicks": 96,
            "midi": 24,
            "name": "C1",
            "ticks": 55056,
            "time": 60.1572825,
            "velocity": 0.3937007874015748
          },
          {
            "duration": 0.10489499999999907,
            "durationTicks": 96,
            "midi": 24,
            "name": "C1",
            "ticks": 55056,
            "time": 60.1572825,
            "velocity": 0.3937007874015748
          },
          {
            "duration": 0.10489499999999907,
            "durationTicks": 96,
            "midi": 24,
            "name": "C1",
            "ticks": 55104,
            "time": 60.20973,
            "velocity": 0.3937007874015748
          },
          {
            "duration": 0.10489499999999907,
            "durationTicks": 96,
            "midi": 24,
            "name": "C1",
            "ticks": 55104,
            "time": 60.20973,
            "velocity": 0.3937007874015748
          },
          {
            "duration": 0.10489499999999907,
            "durationTicks": 96,
            "midi": 24,
            "name": "C1",
            "ticks": 55104,
            "time": 60.20973,
            "velocity": 0.3937007874015748
          },
          {
            "duration": 0.10489499999999907,
            "durationTicks": 96,
            "midi": 24,
            "name": "C1",
            "ticks": 55152,
            "time": 60.2621775,
            "velocity": 0.3937007874015748
          },
          {
            "duration": 0.10489499999999907,
            "durationTicks": 96,
            "midi": 24,
            "name": "C1",
            "ticks": 55152,
            "time": 60.2621775,
            "velocity": 0.3937007874015748
          },
          {
            "duration": 0.10489499999999907,
            "durationTicks": 96,
            "midi": 24,
            "name": "C1",
            "ticks": 55200,
            "time": 60.314625,
            "velocity": 0.3937007874015748
          },
          {
            "duration": 0.10489499999999907,
            "durationTicks": 96,
            "midi": 24,
            "name": "C1",
            "ticks": 55200,
            "time": 60.314625,
            "velocity": 0.3937007874015748
          },
          {
            "duration": 0.10489499999999907,
            "durationTicks": 96,
            "midi": 24,
            "name": "C1",
            "ticks": 55200,
            "time": 60.314625,
            "velocity": 0.3937007874015748
          },
          {
            "duration": 0.10489499999999907,
            "durationTicks": 96,
            "midi": 24,
            "name": "C1",
            "ticks": 55248,
            "time": 60.3670725,
            "velocity": 0.3937007874015748
          },
          {
            "duration": 0.10489500000000618,
            "durationTicks": 96,
            "midi": 24,
            "name": "C1",
            "ticks": 55296,
            "time": 60.41952,
            "velocity": 0.3937007874015748
          },
          {
            "duration": 0.10489500000000618,
            "durationTicks": 96,
            "midi": 26,
            "name": "D1",
            "ticks": 55296,
            "time": 60.41952,
            "velocity": 0.3937007874015748
          },
          {
            "duration": 0.10489500000000618,
            "durationTicks": 96,
            "midi": 24,
            "name": "C1",
            "ticks": 55296,
            "time": 60.41952,
            "velocity": 0.3937007874015748
          },
          {
            "duration": 0.10489499999999907,
            "durationTicks": 96,
            "midi": 24,
            "name": "C1",
            "ticks": 55392,
            "time": 60.524415000000005,
            "velocity": 0.3937007874015748
          },
          {
            "duration": 0.10489499999999907,
            "durationTicks": 96,
            "midi": 26,
            "name": "D1",
            "ticks": 55392,
            "time": 60.524415000000005,
            "velocity": 0.3937007874015748
          },
          {
            "duration": 0.10489499999999907,
            "durationTicks": 96,
            "midi": 26,
            "name": "D1",
            "ticks": 55392,
            "time": 60.524415000000005,
            "velocity": 0.3937007874015748
          },
          {
            "duration": 0.10489499999999907,
            "durationTicks": 96,
            "midi": 26,
            "name": "D1",
            "ticks": 55488,
            "time": 60.629310000000004,
            "velocity": 0.3937007874015748
          },
          {
            "duration": 0.10489499999999907,
            "durationTicks": 96,
            "midi": 26,
            "name": "D1",
            "ticks": 55488,
            "time": 60.629310000000004,
            "velocity": 0.3937007874015748
          },
          {
            "duration": 0.10489499999999907,
            "durationTicks": 96,
            "midi": 26,
            "name": "D1",
            "ticks": 55488,
            "time": 60.629310000000004,
            "velocity": 0.3937007874015748
          },
          {
            "duration": 0.10489499999999907,
            "durationTicks": 96,
            "midi": 26,
            "name": "D1",
            "ticks": 55584,
            "time": 60.734205,
            "velocity": 0.3937007874015748
          },
          {
            "duration": 0.10489499999999907,
            "durationTicks": 96,
            "midi": 26,
            "name": "D1",
            "ticks": 55584,
            "time": 60.734205,
            "velocity": 0.3937007874015748
          },
          {
            "duration": 0.10489499999999907,
            "durationTicks": 96,
            "midi": 26,
            "name": "D1",
            "ticks": 55584,
            "time": 60.734205,
            "velocity": 0.3937007874015748
          },
          {
            "duration": 0.10489499999999907,
            "durationTicks": 96,
            "midi": 26,
            "name": "D1",
            "ticks": 55680,
            "time": 60.8391,
            "velocity": 0.3937007874015748
          },
          {
            "duration": 0.10489499999999907,
            "durationTicks": 96,
            "midi": 26,
            "name": "D1",
            "ticks": 55680,
            "time": 60.8391,
            "velocity": 0.3937007874015748
          },
          {
            "duration": 0.10489499999999907,
            "durationTicks": 96,
            "midi": 26,
            "name": "D1",
            "ticks": 55680,
            "time": 60.8391,
            "velocity": 0.3937007874015748
          },
          {
            "duration": 0.10489499999999907,
            "durationTicks": 96,
            "midi": 26,
            "name": "D1",
            "ticks": 55728,
            "time": 60.8915475,
            "velocity": 0.3937007874015748
          },
          {
            "duration": 0.10489499999999907,
            "durationTicks": 96,
            "midi": 26,
            "name": "D1",
            "ticks": 55776,
            "time": 60.943995,
            "velocity": 0.3937007874015748
          },
          {
            "duration": 0.10489499999999907,
            "durationTicks": 96,
            "midi": 26,
            "name": "D1",
            "ticks": 55776,
            "time": 60.943995,
            "velocity": 0.3937007874015748
          },
          {
            "duration": 0.10489499999999907,
            "durationTicks": 96,
            "midi": 26,
            "name": "D1",
            "ticks": 55776,
            "time": 60.943995,
            "velocity": 0.3937007874015748
          },
          {
            "duration": 0.10489499999999907,
            "durationTicks": 96,
            "midi": 26,
            "name": "D1",
            "ticks": 55824,
            "time": 60.9964425,
            "velocity": 0.3937007874015748
          },
          {
            "duration": 0.10489499999999907,
            "durationTicks": 96,
            "midi": 26,
            "name": "D1",
            "ticks": 55824,
            "time": 60.9964425,
            "velocity": 0.3937007874015748
          },
          {
            "duration": 0.10489499999999907,
            "durationTicks": 96,
            "midi": 26,
            "name": "D1",
            "ticks": 55872,
            "time": 61.04889,
            "velocity": 0.3937007874015748
          },
          {
            "duration": 0.10489499999999907,
            "durationTicks": 96,
            "midi": 26,
            "name": "D1",
            "ticks": 55872,
            "time": 61.04889,
            "velocity": 0.3937007874015748
          },
          {
            "duration": 0.10489499999999907,
            "durationTicks": 96,
            "midi": 26,
            "name": "D1",
            "ticks": 55872,
            "time": 61.04889,
            "velocity": 0.3937007874015748
          },
          {
            "duration": 0.10489499999999907,
            "durationTicks": 96,
            "midi": 26,
            "name": "D1",
            "ticks": 55920,
            "time": 61.1013375,
            "velocity": 0.3937007874015748
          },
          {
            "duration": 0.10489499999999907,
            "durationTicks": 96,
            "midi": 26,
            "name": "D1",
            "ticks": 55920,
            "time": 61.1013375,
            "velocity": 0.3937007874015748
          },
          {
            "duration": 0.10489499999999907,
            "durationTicks": 96,
            "midi": 26,
            "name": "D1",
            "ticks": 55968,
            "time": 61.153785,
            "velocity": 0.3937007874015748
          },
          {
            "duration": 0.10489499999999907,
            "durationTicks": 96,
            "midi": 26,
            "name": "D1",
            "ticks": 55968,
            "time": 61.153785,
            "velocity": 0.3937007874015748
          },
          {
            "duration": 0.10489499999999907,
            "durationTicks": 96,
            "midi": 26,
            "name": "D1",
            "ticks": 55968,
            "time": 61.153785,
            "velocity": 0.3937007874015748
          },
          {
            "duration": 0.10489499999999907,
            "durationTicks": 96,
            "midi": 26,
            "name": "D1",
            "ticks": 56016,
            "time": 61.2062325,
            "velocity": 0.3937007874015748
          },
          {
            "duration": 0.10489500000000618,
            "durationTicks": 96,
            "midi": 26,
            "name": "D1",
            "ticks": 56064,
            "time": 61.25868,
            "velocity": 0.3937007874015748
          },
          {
            "duration": 0.10489500000000618,
            "durationTicks": 96,
            "midi": 26,
            "name": "D1",
            "ticks": 56064,
            "time": 61.25868,
            "velocity": 0.3937007874015748
          },
          {
            "duration": 0.10489499999999907,
            "durationTicks": 96,
            "midi": 26,
            "name": "D1",
            "ticks": 56160,
            "time": 61.363575000000004,
            "velocity": 0.3937007874015748
          },
          {
            "duration": 0.10489500000000618,
            "durationTicks": 96,
            "midi": 34,
            "name": "A#1",
            "ticks": 56832,
            "time": 62.09784,
            "velocity": 0.3937007874015748
          },
          {
            "duration": 0.10489499999999907,
            "durationTicks": 96,
            "midi": 34,
            "name": "A#1",
            "ticks": 56928,
            "time": 62.202735000000004,
            "velocity": 0.3937007874015748
          },
          {
            "duration": 0.10489499999999907,
            "durationTicks": 96,
            "midi": 34,
            "name": "A#1",
            "ticks": 56928,
            "time": 62.202735000000004,
            "velocity": 0.3937007874015748
          },
          {
            "duration": 0.10489499999999907,
            "durationTicks": 96,
            "midi": 34,
            "name": "A#1",
            "ticks": 57024,
            "time": 62.30763,
            "velocity": 0.3937007874015748
          },
          {
            "duration": 0.10489499999999907,
            "durationTicks": 96,
            "midi": 34,
            "name": "A#1",
            "ticks": 57024,
            "time": 62.30763,
            "velocity": 0.3937007874015748
          },
          {
            "duration": 0.10489499999999907,
            "durationTicks": 96,
            "midi": 34,
            "name": "A#1",
            "ticks": 57024,
            "time": 62.30763,
            "velocity": 0.3937007874015748
          },
          {
            "duration": 0.10489499999999907,
            "durationTicks": 96,
            "midi": 34,
            "name": "A#1",
            "ticks": 57120,
            "time": 62.412525,
            "velocity": 0.3937007874015748
          },
          {
            "duration": 0.10489499999999907,
            "durationTicks": 96,
            "midi": 34,
            "name": "A#1",
            "ticks": 57120,
            "time": 62.412525,
            "velocity": 0.3937007874015748
          },
          {
            "duration": 0.10489499999999907,
            "durationTicks": 96,
            "midi": 34,
            "name": "A#1",
            "ticks": 57120,
            "time": 62.412525,
            "velocity": 0.3937007874015748
          },
          {
            "duration": 0.10489499999999907,
            "durationTicks": 96,
            "midi": 34,
            "name": "A#1",
            "ticks": 57216,
            "time": 62.51742,
            "velocity": 0.3937007874015748
          },
          {
            "duration": 0.10489499999999907,
            "durationTicks": 96,
            "midi": 34,
            "name": "A#1",
            "ticks": 57216,
            "time": 62.51742,
            "velocity": 0.3937007874015748
          },
          {
            "duration": 0.10489499999999907,
            "durationTicks": 96,
            "midi": 34,
            "name": "A#1",
            "ticks": 57216,
            "time": 62.51742,
            "velocity": 0.3937007874015748
          },
          {
            "duration": 0.10489499999999907,
            "durationTicks": 96,
            "midi": 34,
            "name": "A#1",
            "ticks": 57264,
            "time": 62.5698675,
            "velocity": 0.3937007874015748
          },
          {
            "duration": 0.10489499999999907,
            "durationTicks": 96,
            "midi": 34,
            "name": "A#1",
            "ticks": 57312,
            "time": 62.622315,
            "velocity": 0.3937007874015748
          },
          {
            "duration": 0.10489499999999907,
            "durationTicks": 96,
            "midi": 34,
            "name": "A#1",
            "ticks": 57312,
            "time": 62.622315,
            "velocity": 0.3937007874015748
          },
          {
            "duration": 0.10489499999999907,
            "durationTicks": 96,
            "midi": 34,
            "name": "A#1",
            "ticks": 57312,
            "time": 62.622315,
            "velocity": 0.3937007874015748
          },
          {
            "duration": 0.10489499999999907,
            "durationTicks": 96,
            "midi": 34,
            "name": "A#1",
            "ticks": 57360,
            "time": 62.6747625,
            "velocity": 0.3937007874015748
          },
          {
            "duration": 0.10489499999999907,
            "durationTicks": 96,
            "midi": 34,
            "name": "A#1",
            "ticks": 57360,
            "time": 62.6747625,
            "velocity": 0.3937007874015748
          },
          {
            "duration": 0.10489499999999907,
            "durationTicks": 96,
            "midi": 84,
            "name": "C6",
            "ticks": 57360,
            "time": 62.6747625,
            "velocity": 0.3937007874015748
          },
          {
            "duration": 0.10489499999999907,
            "durationTicks": 96,
            "midi": 34,
            "name": "A#1",
            "ticks": 57408,
            "time": 62.72721,
            "velocity": 0.3937007874015748
          },
          {
            "duration": 0.10489499999999907,
            "durationTicks": 96,
            "midi": 34,
            "name": "A#1",
            "ticks": 57408,
            "time": 62.72721,
            "velocity": 0.3937007874015748
          },
          {
            "duration": 0.10489499999999907,
            "durationTicks": 96,
            "midi": 34,
            "name": "A#1",
            "ticks": 57408,
            "time": 62.72721,
            "velocity": 0.3937007874015748
          },
          {
            "duration": 0.10489499999999907,
            "durationTicks": 96,
            "midi": 82,
            "name": "A#5",
            "ticks": 57456,
            "time": 62.7796575,
            "velocity": 0.3937007874015748
          },
          {
            "duration": 0.10489499999999907,
            "durationTicks": 96,
            "midi": 34,
            "name": "A#1",
            "ticks": 57456,
            "time": 62.7796575,
            "velocity": 0.3937007874015748
          },
          {
            "duration": 0.10489499999999907,
            "durationTicks": 96,
            "midi": 34,
            "name": "A#1",
            "ticks": 57456,
            "time": 62.7796575,
            "velocity": 0.3937007874015748
          },
          {
            "duration": 0.10489500000000618,
            "durationTicks": 96,
            "midi": 34,
            "name": "A#1",
            "ticks": 57504,
            "time": 62.832105,
            "velocity": 0.3937007874015748
          },
          {
            "duration": 0.10489500000000618,
            "durationTicks": 96,
            "midi": 34,
            "name": "A#1",
            "ticks": 57504,
            "time": 62.832105,
            "velocity": 0.3937007874015748
          },
          {
            "duration": 0.10489500000000618,
            "durationTicks": 96,
            "midi": 34,
            "name": "A#1",
            "ticks": 57504,
            "time": 62.832105,
            "velocity": 0.3937007874015748
          },
          {
            "duration": 0.10489500000000618,
            "durationTicks": 96,
            "midi": 81,
            "name": "A5",
            "ticks": 57552,
            "time": 62.8845525,
            "velocity": 0.3937007874015748
          },
          {
            "duration": 0.10489500000000618,
            "durationTicks": 96,
            "midi": 34,
            "name": "A#1",
            "ticks": 57552,
            "time": 62.8845525,
            "velocity": 0.3937007874015748
          },
          {
            "duration": 0.10489499999999907,
            "durationTicks": 96,
            "midi": 34,
            "name": "A#1",
            "ticks": 57600,
            "time": 62.937000000000005,
            "velocity": 0.3937007874015748
          },
          {
            "duration": 0.10489499999999907,
            "durationTicks": 96,
            "midi": 34,
            "name": "A#1",
            "ticks": 57600,
            "time": 62.937000000000005,
            "velocity": 0.3937007874015748
          },
          {
            "duration": 0.10489499999999907,
            "durationTicks": 96,
            "midi": 34,
            "name": "A#1",
            "ticks": 57600,
            "time": 62.937000000000005,
            "velocity": 0.3937007874015748
          },
          {
            "duration": 0.10489499999999907,
            "durationTicks": 96,
            "midi": 79,
            "name": "G5",
            "ticks": 57648,
            "time": 62.989447500000004,
            "velocity": 0.3937007874015748
          },
          {
            "duration": 0.10489499999999907,
            "durationTicks": 96,
            "midi": 34,
            "name": "A#1",
            "ticks": 57696,
            "time": 63.041895000000004,
            "velocity": 0.3937007874015748
          },
          {
            "duration": 0.10489499999999907,
            "durationTicks": 96,
            "midi": 34,
            "name": "A#1",
            "ticks": 57696,
            "time": 63.041895000000004,
            "velocity": 0.3937007874015748
          },
          {
            "duration": 0.10489499999999907,
            "durationTicks": 96,
            "midi": 34,
            "name": "A#1",
            "ticks": 57696,
            "time": 63.041895000000004,
            "velocity": 0.3937007874015748
          },
          {
            "duration": 0.10489499999999907,
            "durationTicks": 96,
            "midi": 77,
            "name": "F5",
            "ticks": 57744,
            "time": 63.0943425,
            "velocity": 0.3937007874015748
          },
          {
            "duration": 0.10489499999999907,
            "durationTicks": 96,
            "midi": 34,
            "name": "A#1",
            "ticks": 57792,
            "time": 63.14679,
            "velocity": 0.3937007874015748
          },
          {
            "duration": 0.10489499999999907,
            "durationTicks": 96,
            "midi": 34,
            "name": "A#1",
            "ticks": 57792,
            "time": 63.14679,
            "velocity": 0.3937007874015748
          },
          {
            "duration": 0.10489499999999907,
            "durationTicks": 96,
            "midi": 34,
            "name": "A#1",
            "ticks": 57792,
            "time": 63.14679,
            "velocity": 0.3937007874015748
          },
          {
            "duration": 0.10489499999999907,
            "durationTicks": 96,
            "midi": 34,
            "name": "A#1",
            "ticks": 57888,
            "time": 63.251685,
            "velocity": 0.3937007874015748
          },
          {
            "duration": 0.10489499999999907,
            "durationTicks": 96,
            "midi": 34,
            "name": "A#1",
            "ticks": 57888,
            "time": 63.251685,
            "velocity": 0.3937007874015748
          },
          {
            "duration": 0.10489499999999907,
            "durationTicks": 96,
            "midi": 34,
            "name": "A#1",
            "ticks": 57888,
            "time": 63.251685,
            "velocity": 0.3937007874015748
          },
          {
            "duration": 0.10489499999999907,
            "durationTicks": 96,
            "midi": 34,
            "name": "A#1",
            "ticks": 57984,
            "time": 63.35658,
            "velocity": 0.3937007874015748
          },
          {
            "duration": 0.10489499999999907,
            "durationTicks": 96,
            "midi": 34,
            "name": "A#1",
            "ticks": 57984,
            "time": 63.35658,
            "velocity": 0.3937007874015748
          },
          {
            "duration": 0.10489499999999907,
            "durationTicks": 96,
            "midi": 24,
            "name": "C1",
            "ticks": 57984,
            "time": 63.35658,
            "velocity": 0.3937007874015748
          },
          {
            "duration": 0.10489499999999907,
            "durationTicks": 96,
            "midi": 24,
            "name": "C1",
            "ticks": 58032,
            "time": 63.4090275,
            "velocity": 0.3937007874015748
          },
          {
            "duration": 0.10489499999999907,
            "durationTicks": 96,
            "midi": 34,
            "name": "A#1",
            "ticks": 58080,
            "time": 63.461475,
            "velocity": 0.3937007874015748
          },
          {
            "duration": 0.10489499999999907,
            "durationTicks": 96,
            "midi": 24,
            "name": "C1",
            "ticks": 58080,
            "time": 63.461475,
            "velocity": 0.3937007874015748
          },
          {
            "duration": 0.10489499999999907,
            "durationTicks": 96,
            "midi": 24,
            "name": "C1",
            "ticks": 58080,
            "time": 63.461475,
            "velocity": 0.3937007874015748
          },
          {
            "duration": 0.10489499999999907,
            "durationTicks": 96,
            "midi": 24,
            "name": "C1",
            "ticks": 58128,
            "time": 63.5139225,
            "velocity": 0.3937007874015748
          },
          {
            "duration": 0.10489499999999907,
            "durationTicks": 96,
            "midi": 84,
            "name": "C6",
            "ticks": 58128,
            "time": 63.5139225,
            "velocity": 0.3937007874015748
          },
          {
            "duration": 0.10489499999999907,
            "durationTicks": 96,
            "midi": 24,
            "name": "C1",
            "ticks": 58128,
            "time": 63.5139225,
            "velocity": 0.3937007874015748
          },
          {
            "duration": 0.10489499999999907,
            "durationTicks": 96,
            "midi": 24,
            "name": "C1",
            "ticks": 58176,
            "time": 63.56637,
            "velocity": 0.3937007874015748
          },
          {
            "duration": 0.10489499999999907,
            "durationTicks": 96,
            "midi": 24,
            "name": "C1",
            "ticks": 58176,
            "time": 63.56637,
            "velocity": 0.3937007874015748
          },
          {
            "duration": 0.10489499999999907,
            "durationTicks": 96,
            "midi": 24,
            "name": "C1",
            "ticks": 58176,
            "time": 63.56637,
            "velocity": 0.3937007874015748
          },
          {
            "duration": 0.10489499999999907,
            "durationTicks": 96,
            "midi": 82,
            "name": "A#5",
            "ticks": 58224,
            "time": 63.6188175,
            "velocity": 0.3937007874015748
          },
          {
            "duration": 0.10489499999999907,
            "durationTicks": 96,
            "midi": 24,
            "name": "C1",
            "ticks": 58224,
            "time": 63.6188175,
            "velocity": 0.3937007874015748
          },
          {
            "duration": 0.10489499999999907,
            "durationTicks": 96,
            "midi": 24,
            "name": "C1",
            "ticks": 58224,
            "time": 63.6188175,
            "velocity": 0.3937007874015748
          },
          {
            "duration": 0.10489500000000618,
            "durationTicks": 96,
            "midi": 24,
            "name": "C1",
            "ticks": 58272,
            "time": 63.671265,
            "velocity": 0.3937007874015748
          },
          {
            "duration": 0.10489500000000618,
            "durationTicks": 96,
            "midi": 24,
            "name": "C1",
            "ticks": 58272,
            "time": 63.671265,
            "velocity": 0.3937007874015748
          },
          {
            "duration": 0.10489500000000618,
            "durationTicks": 96,
            "midi": 24,
            "name": "C1",
            "ticks": 58272,
            "time": 63.671265,
            "velocity": 0.3937007874015748
          },
          {
            "duration": 0.10489500000000618,
            "durationTicks": 96,
            "midi": 24,
            "name": "C1",
            "ticks": 58320,
            "time": 63.7237125,
            "velocity": 0.3937007874015748
          },
          {
            "duration": 0.10489500000000618,
            "durationTicks": 96,
            "midi": 81,
            "name": "A5",
            "ticks": 58320,
            "time": 63.7237125,
            "velocity": 0.3937007874015748
          },
          {
            "duration": 0.10489499999999907,
            "durationTicks": 96,
            "midi": 24,
            "name": "C1",
            "ticks": 58368,
            "time": 63.776160000000004,
            "velocity": 0.3937007874015748
          },
          {
            "duration": 0.10489499999999907,
            "durationTicks": 96,
            "midi": 26,
            "name": "D1",
            "ticks": 58368,
            "time": 63.776160000000004,
            "velocity": 0.3937007874015748
          },
          {
            "duration": 0.10489499999999907,
            "durationTicks": 96,
            "midi": 24,
            "name": "C1",
            "ticks": 58368,
            "time": 63.776160000000004,
            "velocity": 0.3937007874015748
          },
          {
            "duration": 0.10489499999999907,
            "durationTicks": 96,
            "midi": 79,
            "name": "G5",
            "ticks": 58416,
            "time": 63.828607500000004,
            "velocity": 0.3937007874015748
          },
          {
            "duration": 0.10489499999999907,
            "durationTicks": 96,
            "midi": 26,
            "name": "D1",
            "ticks": 58464,
            "time": 63.881055,
            "velocity": 0.3937007874015748
          },
          {
            "duration": 0.10489499999999907,
            "durationTicks": 96,
            "midi": 26,
            "name": "D1",
            "ticks": 58464,
            "time": 63.881055,
            "velocity": 0.3937007874015748
          },
          {
            "duration": 0.10489499999999907,
            "durationTicks": 96,
            "midi": 24,
            "name": "C1",
            "ticks": 58464,
            "time": 63.881055,
            "velocity": 0.3937007874015748
          },
          {
            "duration": 0.10489499999999907,
            "durationTicks": 96,
            "midi": 77,
            "name": "F5",
            "ticks": 58512,
            "time": 63.9335025,
            "velocity": 0.3937007874015748
          },
          {
            "duration": 0.10489499999999907,
            "durationTicks": 96,
            "midi": 26,
            "name": "D1",
            "ticks": 58560,
            "time": 63.98595,
            "velocity": 0.3937007874015748
          },
          {
            "duration": 0.10489499999999907,
            "durationTicks": 96,
            "midi": 26,
            "name": "D1",
            "ticks": 58560,
            "time": 63.98595,
            "velocity": 0.3937007874015748
          },
          {
            "duration": 0.10489499999999907,
            "durationTicks": 96,
            "midi": 26,
            "name": "D1",
            "ticks": 58560,
            "time": 63.98595,
            "velocity": 0.3937007874015748
          },
          {
            "duration": 0.10489499999999907,
            "durationTicks": 96,
            "midi": 26,
            "name": "D1",
            "ticks": 58656,
            "time": 64.090845,
            "velocity": 0.3937007874015748
          },
          {
            "duration": 0.10489499999999907,
            "durationTicks": 96,
            "midi": 26,
            "name": "D1",
            "ticks": 58656,
            "time": 64.090845,
            "velocity": 0.3937007874015748
          },
          {
            "duration": 0.10489499999999907,
            "durationTicks": 96,
            "midi": 26,
            "name": "D1",
            "ticks": 58656,
            "time": 64.090845,
            "velocity": 0.3937007874015748
          },
          {
            "duration": 0.10489499999999907,
            "durationTicks": 96,
            "midi": 26,
            "name": "D1",
            "ticks": 58752,
            "time": 64.19574,
            "velocity": 0.3937007874015748
          },
          {
            "duration": 0.10489499999999907,
            "durationTicks": 96,
            "midi": 26,
            "name": "D1",
            "ticks": 58752,
            "time": 64.19574,
            "velocity": 0.3937007874015748
          },
          {
            "duration": 0.10489499999999907,
            "durationTicks": 96,
            "midi": 26,
            "name": "D1",
            "ticks": 58752,
            "time": 64.19574,
            "velocity": 0.3937007874015748
          },
          {
            "duration": 0.10489499999999907,
            "durationTicks": 96,
            "midi": 26,
            "name": "D1",
            "ticks": 58800,
            "time": 64.2481875,
            "velocity": 0.3937007874015748
          },
          {
            "duration": 0.10489499999999907,
            "durationTicks": 96,
            "midi": 26,
            "name": "D1",
            "ticks": 58848,
            "time": 64.300635,
            "velocity": 0.3937007874015748
          },
          {
            "duration": 0.10489499999999907,
            "durationTicks": 96,
            "midi": 26,
            "name": "D1",
            "ticks": 58848,
            "time": 64.300635,
            "velocity": 0.3937007874015748
          },
          {
            "duration": 0.10489499999999907,
            "durationTicks": 96,
            "midi": 26,
            "name": "D1",
            "ticks": 58848,
            "time": 64.300635,
            "velocity": 0.3937007874015748
          },
          {
            "duration": 0.10489499999999907,
            "durationTicks": 96,
            "midi": 77,
            "name": "F5",
            "ticks": 58896,
            "time": 64.3530825,
            "velocity": 0.3937007874015748
          },
          {
            "duration": 0.10489499999999907,
            "durationTicks": 96,
            "midi": 26,
            "name": "D1",
            "ticks": 58896,
            "time": 64.3530825,
            "velocity": 0.3937007874015748
          },
          {
            "duration": 0.10489499999999907,
            "durationTicks": 96,
            "midi": 26,
            "name": "D1",
            "ticks": 58896,
            "time": 64.3530825,
            "velocity": 0.3937007874015748
          },
          {
            "duration": 0.10489499999999907,
            "durationTicks": 96,
            "midi": 26,
            "name": "D1",
            "ticks": 58944,
            "time": 64.40553,
            "velocity": 0.3937007874015748
          },
          {
            "duration": 0.10489499999999907,
            "durationTicks": 96,
            "midi": 26,
            "name": "D1",
            "ticks": 58944,
            "time": 64.40553,
            "velocity": 0.3937007874015748
          },
          {
            "duration": 0.10489499999999907,
            "durationTicks": 96,
            "midi": 26,
            "name": "D1",
            "ticks": 58944,
            "time": 64.40553,
            "velocity": 0.3937007874015748
          },
          {
            "duration": 0.10489499999999907,
            "durationTicks": 96,
            "midi": 26,
            "name": "D1",
            "ticks": 58992,
            "time": 64.4579775,
            "velocity": 0.3937007874015748
          },
          {
            "duration": 0.10489499999999907,
            "durationTicks": 96,
            "midi": 76,
            "name": "E5",
            "ticks": 58992,
            "time": 64.4579775,
            "velocity": 0.3937007874015748
          },
          {
            "duration": 0.10489499999999907,
            "durationTicks": 96,
            "midi": 26,
            "name": "D1",
            "ticks": 58992,
            "time": 64.4579775,
            "velocity": 0.3937007874015748
          },
          {
            "duration": 0.10489499999999907,
            "durationTicks": 96,
            "midi": 26,
            "name": "D1",
            "ticks": 59040,
            "time": 64.510425,
            "velocity": 0.3937007874015748
          },
          {
            "duration": 0.10489499999999907,
            "durationTicks": 96,
            "midi": 26,
            "name": "D1",
            "ticks": 59040,
            "time": 64.510425,
            "velocity": 0.3937007874015748
          },
          {
            "duration": 0.10489499999999907,
            "durationTicks": 96,
            "midi": 26,
            "name": "D1",
            "ticks": 59040,
            "time": 64.510425,
            "velocity": 0.3937007874015748
          },
          {
            "duration": 0.10489499999999907,
            "durationTicks": 96,
            "midi": 26,
            "name": "D1",
            "ticks": 59088,
            "time": 64.5628725,
            "velocity": 0.3937007874015748
          },
          {
            "duration": 0.10489499999999907,
            "durationTicks": 96,
            "midi": 74,
            "name": "D5",
            "ticks": 59088,
            "time": 64.5628725,
            "velocity": 0.3937007874015748
          },
          {
            "duration": 0.10489499999999907,
            "durationTicks": 96,
            "midi": 26,
            "name": "D1",
            "ticks": 59136,
            "time": 64.61532,
            "velocity": 0.3937007874015748
          },
          {
            "duration": 0.10489499999999907,
            "durationTicks": 96,
            "midi": 26,
            "name": "D1",
            "ticks": 59136,
            "time": 64.61532,
            "velocity": 0.3937007874015748
          },
          {
            "duration": 0.10489499999999907,
            "durationTicks": 96,
            "midi": 26,
            "name": "D1",
            "ticks": 59136,
            "time": 64.61532,
            "velocity": 0.3937007874015748
          },
          {
            "duration": 0.10489499999999907,
            "durationTicks": 96,
            "midi": 72,
            "name": "C5",
            "ticks": 59184,
            "time": 64.6677675,
            "velocity": 0.3937007874015748
          },
          {
            "duration": 0.10489499999999907,
            "durationTicks": 96,
            "midi": 26,
            "name": "D1",
            "ticks": 59232,
            "time": 64.720215,
            "velocity": 0.3937007874015748
          },
          {
            "duration": 0.10489499999999907,
            "durationTicks": 96,
            "midi": 26,
            "name": "D1",
            "ticks": 59232,
            "time": 64.720215,
            "velocity": 0.3937007874015748
          },
          {
            "duration": 0.10489499999999907,
            "durationTicks": 96,
            "midi": 26,
            "name": "D1",
            "ticks": 59232,
            "time": 64.720215,
            "velocity": 0.3937007874015748
          },
          {
            "duration": 0.10489499999999907,
            "durationTicks": 96,
            "midi": 69,
            "name": "A4",
            "ticks": 59280,
            "time": 64.7726625,
            "velocity": 0.3937007874015748
          },
          {
            "duration": 0.10489500000001328,
            "durationTicks": 96,
            "midi": 26,
            "name": "D1",
            "ticks": 59328,
            "time": 64.82511,
            "velocity": 0.3937007874015748
          },
          {
            "duration": 0.10489500000001328,
            "durationTicks": 96,
            "midi": 26,
            "name": "D1",
            "ticks": 59328,
            "time": 64.82511,
            "velocity": 0.3937007874015748
          },
          {
            "duration": 0.10489500000001328,
            "durationTicks": 96,
            "midi": 26,
            "name": "D1",
            "ticks": 59328,
            "time": 64.82511,
            "velocity": 0.3937007874015748
          },
          {
            "duration": 0.10489499999999907,
            "durationTicks": 96,
            "midi": 26,
            "name": "D1",
            "ticks": 59424,
            "time": 64.93000500000001,
            "velocity": 0.3937007874015748
          },
          {
            "duration": 0.10489499999999907,
            "durationTicks": 96,
            "midi": 26,
            "name": "D1",
            "ticks": 59424,
            "time": 64.93000500000001,
            "velocity": 0.3937007874015748
          },
          {
            "duration": 0.10489499999999907,
            "durationTicks": 96,
            "midi": 26,
            "name": "D1",
            "ticks": 59424,
            "time": 64.93000500000001,
            "velocity": 0.3937007874015748
          },
          {
            "duration": 0.10489499999999907,
            "durationTicks": 96,
            "midi": 26,
            "name": "D1",
            "ticks": 59520,
            "time": 65.03490000000001,
            "velocity": 0.3937007874015748
          },
          {
            "duration": 0.10489499999999907,
            "durationTicks": 96,
            "midi": 24,
            "name": "C1",
            "ticks": 59520,
            "time": 65.03490000000001,
            "velocity": 0.3937007874015748
          },
          {
            "duration": 0.10489499999999907,
            "durationTicks": 96,
            "midi": 26,
            "name": "D1",
            "ticks": 59520,
            "time": 65.03490000000001,
            "velocity": 0.3937007874015748
          },
          {
            "duration": 0.10489499999999907,
            "durationTicks": 96,
            "midi": 24,
            "name": "C1",
            "ticks": 59568,
            "time": 65.0873475,
            "velocity": 0.3937007874015748
          },
          {
            "duration": 0.10489499999999907,
            "durationTicks": 96,
            "midi": 24,
            "name": "C1",
            "ticks": 59616,
            "time": 65.139795,
            "velocity": 0.3937007874015748
          },
          {
            "duration": 0.10489499999999907,
            "durationTicks": 96,
            "midi": 26,
            "name": "D1",
            "ticks": 59616,
            "time": 65.139795,
            "velocity": 0.3937007874015748
          },
          {
            "duration": 0.10489499999999907,
            "durationTicks": 96,
            "midi": 24,
            "name": "C1",
            "ticks": 59616,
            "time": 65.139795,
            "velocity": 0.3937007874015748
          },
          {
            "duration": 0.10489499999999907,
            "durationTicks": 96,
            "midi": 77,
            "name": "F5",
            "ticks": 59664,
            "time": 65.1922425,
            "velocity": 0.3937007874015748
          },
          {
            "duration": 0.10489499999999907,
            "durationTicks": 96,
            "midi": 24,
            "name": "C1",
            "ticks": 59664,
            "time": 65.1922425,
            "velocity": 0.3937007874015748
          },
          {
            "duration": 0.10489499999999907,
            "durationTicks": 96,
            "midi": 24,
            "name": "C1",
            "ticks": 59664,
            "time": 65.1922425,
            "velocity": 0.3937007874015748
          },
          {
            "duration": 0.10489499999999907,
            "durationTicks": 96,
            "midi": 24,
            "name": "C1",
            "ticks": 59712,
            "time": 65.24469,
            "velocity": 0.3937007874015748
          },
          {
            "duration": 0.10489499999999907,
            "durationTicks": 96,
            "midi": 24,
            "name": "C1",
            "ticks": 59712,
            "time": 65.24469,
            "velocity": 0.3937007874015748
          },
          {
            "duration": 0.10489499999999907,
            "durationTicks": 96,
            "midi": 24,
            "name": "C1",
            "ticks": 59712,
            "time": 65.24469,
            "velocity": 0.3937007874015748
          },
          {
            "duration": 0.10489499999999907,
            "durationTicks": 96,
            "midi": 24,
            "name": "C1",
            "ticks": 59760,
            "time": 65.2971375,
            "velocity": 0.3937007874015748
          },
          {
            "duration": 0.10489499999999907,
            "durationTicks": 96,
            "midi": 76,
            "name": "E5",
            "ticks": 59760,
            "time": 65.2971375,
            "velocity": 0.3937007874015748
          },
          {
            "duration": 0.10489499999999907,
            "durationTicks": 96,
            "midi": 24,
            "name": "C1",
            "ticks": 59760,
            "time": 65.2971375,
            "velocity": 0.3937007874015748
          },
          {
            "duration": 0.10489499999999907,
            "durationTicks": 96,
            "midi": 24,
            "name": "C1",
            "ticks": 59808,
            "time": 65.349585,
            "velocity": 0.3937007874015748
          },
          {
            "duration": 0.10489499999999907,
            "durationTicks": 96,
            "midi": 24,
            "name": "C1",
            "ticks": 59808,
            "time": 65.349585,
            "velocity": 0.3937007874015748
          },
          {
            "duration": 0.10489499999999907,
            "durationTicks": 96,
            "midi": 24,
            "name": "C1",
            "ticks": 59808,
            "time": 65.349585,
            "velocity": 0.3937007874015748
          },
          {
            "duration": 0.10489499999999907,
            "durationTicks": 96,
            "midi": 74,
            "name": "D5",
            "ticks": 59856,
            "time": 65.4020325,
            "velocity": 0.3937007874015748
          },
          {
            "duration": 0.10489499999999907,
            "durationTicks": 96,
            "midi": 24,
            "name": "C1",
            "ticks": 59856,
            "time": 65.4020325,
            "velocity": 0.3937007874015748
          },
          {
            "duration": 0.10489499999999907,
            "durationTicks": 96,
            "midi": 34,
            "name": "A#1",
            "ticks": 59904,
            "time": 65.45448,
            "velocity": 0.3937007874015748
          },
          {
            "duration": 0.10489499999999907,
            "durationTicks": 96,
            "midi": 24,
            "name": "C1",
            "ticks": 59904,
            "time": 65.45448,
            "velocity": 0.3937007874015748
          },
          {
            "duration": 0.10489499999999907,
            "durationTicks": 96,
            "midi": 24,
            "name": "C1",
            "ticks": 59904,
            "time": 65.45448,
            "velocity": 0.3937007874015748
          },
          {
            "duration": 0.10489499999999907,
            "durationTicks": 96,
            "midi": 72,
            "name": "C5",
            "ticks": 59952,
            "time": 65.5069275,
            "velocity": 0.3937007874015748
          },
          {
            "duration": 0.10489499999999907,
            "durationTicks": 96,
            "midi": 34,
            "name": "A#1",
            "ticks": 60000,
            "time": 65.559375,
            "velocity": 0.3937007874015748
          },
          {
            "duration": 0.10489499999999907,
            "durationTicks": 96,
            "midi": 24,
            "name": "C1",
            "ticks": 60000,
            "time": 65.559375,
            "velocity": 0.3937007874015748
          },
          {
            "duration": 0.10489499999999907,
            "durationTicks": 96,
            "midi": 34,
            "name": "A#1",
            "ticks": 60000,
            "time": 65.559375,
            "velocity": 0.3937007874015748
          },
          {
            "duration": 0.10489499999999907,
            "durationTicks": 96,
            "midi": 69,
            "name": "A4",
            "ticks": 60048,
            "time": 65.6118225,
            "velocity": 0.3937007874015748
          },
          {
            "duration": 0.10489499999999907,
            "durationTicks": 96,
            "midi": 34,
            "name": "A#1",
            "ticks": 60096,
            "time": 65.66427,
            "velocity": 0.3937007874015748
          },
          {
            "duration": 0.10489499999999907,
            "durationTicks": 96,
            "midi": 34,
            "name": "A#1",
            "ticks": 60096,
            "time": 65.66427,
            "velocity": 0.3937007874015748
          },
          {
            "duration": 0.10489499999999907,
            "durationTicks": 96,
            "midi": 34,
            "name": "A#1",
            "ticks": 60096,
            "time": 65.66427,
            "velocity": 0.3937007874015748
          },
          {
            "duration": 0.10489499999999907,
            "durationTicks": 96,
            "midi": 34,
            "name": "A#1",
            "ticks": 60192,
            "time": 65.769165,
            "velocity": 0.3937007874015748
          },
          {
            "duration": 0.10489499999999907,
            "durationTicks": 96,
            "midi": 34,
            "name": "A#1",
            "ticks": 60192,
            "time": 65.769165,
            "velocity": 0.3937007874015748
          },
          {
            "duration": 0.10489499999999907,
            "durationTicks": 96,
            "midi": 34,
            "name": "A#1",
            "ticks": 60192,
            "time": 65.769165,
            "velocity": 0.3937007874015748
          },
          {
            "duration": 0.10489499999999907,
            "durationTicks": 96,
            "midi": 34,
            "name": "A#1",
            "ticks": 60288,
            "time": 65.87406,
            "velocity": 0.3937007874015748
          },
          {
            "duration": 0.10489499999999907,
            "durationTicks": 96,
            "midi": 34,
            "name": "A#1",
            "ticks": 60288,
            "time": 65.87406,
            "velocity": 0.3937007874015748
          },
          {
            "duration": 0.10489499999999907,
            "durationTicks": 96,
            "midi": 34,
            "name": "A#1",
            "ticks": 60288,
            "time": 65.87406,
            "velocity": 0.3937007874015748
          },
          {
            "duration": 0.10489499999999907,
            "durationTicks": 96,
            "midi": 34,
            "name": "A#1",
            "ticks": 60336,
            "time": 65.9265075,
            "velocity": 0.3937007874015748
          },
          {
            "duration": 0.10489499999999907,
            "durationTicks": 96,
            "midi": 34,
            "name": "A#1",
            "ticks": 60384,
            "time": 65.978955,
            "velocity": 0.3937007874015748
          },
          {
            "duration": 0.10489499999999907,
            "durationTicks": 96,
            "midi": 34,
            "name": "A#1",
            "ticks": 60384,
            "time": 65.978955,
            "velocity": 0.3937007874015748
          },
          {
            "duration": 0.10489499999999907,
            "durationTicks": 96,
            "midi": 34,
            "name": "A#1",
            "ticks": 60384,
            "time": 65.978955,
            "velocity": 0.3937007874015748
          },
          {
            "duration": 0.10489499999999907,
            "durationTicks": 96,
            "midi": 81,
            "name": "A5",
            "ticks": 60432,
            "time": 66.0314025,
            "velocity": 0.3937007874015748
          },
          {
            "duration": 0.10489499999999907,
            "durationTicks": 96,
            "midi": 34,
            "name": "A#1",
            "ticks": 60432,
            "time": 66.0314025,
            "velocity": 0.3937007874015748
          },
          {
            "duration": 0.10489499999999907,
            "durationTicks": 96,
            "midi": 34,
            "name": "A#1",
            "ticks": 60432,
            "time": 66.0314025,
            "velocity": 0.3937007874015748
          },
          {
            "duration": 0.10489499999999907,
            "durationTicks": 96,
            "midi": 34,
            "name": "A#1",
            "ticks": 60480,
            "time": 66.08385,
            "velocity": 0.3937007874015748
          },
          {
            "duration": 0.10489499999999907,
            "durationTicks": 96,
            "midi": 34,
            "name": "A#1",
            "ticks": 60480,
            "time": 66.08385,
            "velocity": 0.3937007874015748
          },
          {
            "duration": 0.10489499999999907,
            "durationTicks": 96,
            "midi": 34,
            "name": "A#1",
            "ticks": 60480,
            "time": 66.08385,
            "velocity": 0.3937007874015748
          },
          {
            "duration": 0.10489499999999907,
            "durationTicks": 96,
            "midi": 34,
            "name": "A#1",
            "ticks": 60528,
            "time": 66.1362975,
            "velocity": 0.3937007874015748
          },
          {
            "duration": 0.10489499999999907,
            "durationTicks": 96,
            "midi": 34,
            "name": "A#1",
            "ticks": 60528,
            "time": 66.1362975,
            "velocity": 0.3937007874015748
          },
          {
            "duration": 0.10489499999999907,
            "durationTicks": 96,
            "midi": 81,
            "name": "A5",
            "ticks": 60528,
            "time": 66.1362975,
            "velocity": 0.3937007874015748
          },
          {
            "duration": 0.10489499999999907,
            "durationTicks": 96,
            "midi": 34,
            "name": "A#1",
            "ticks": 60576,
            "time": 66.188745,
            "velocity": 0.3937007874015748
          },
          {
            "duration": 0.10489499999999907,
            "durationTicks": 96,
            "midi": 34,
            "name": "A#1",
            "ticks": 60576,
            "time": 66.188745,
            "velocity": 0.3937007874015748
          },
          {
            "duration": 0.10489499999999907,
            "durationTicks": 96,
            "midi": 34,
            "name": "A#1",
            "ticks": 60576,
            "time": 66.188745,
            "velocity": 0.3937007874015748
          },
          {
            "duration": 0.10489499999999907,
            "durationTicks": 96,
            "midi": 34,
            "name": "A#1",
            "ticks": 60624,
            "time": 66.2411925,
            "velocity": 0.3937007874015748
          },
          {
            "duration": 0.10489499999999907,
            "durationTicks": 96,
            "midi": 77,
            "name": "F5",
            "ticks": 60624,
            "time": 66.2411925,
            "velocity": 0.3937007874015748
          },
          {
            "duration": 0.10489499999999907,
            "durationTicks": 96,
            "midi": 34,
            "name": "A#1",
            "ticks": 60672,
            "time": 66.29364,
            "velocity": 0.3937007874015748
          },
          {
            "duration": 0.10489499999999907,
            "durationTicks": 96,
            "midi": 34,
            "name": "A#1",
            "ticks": 60672,
            "time": 66.29364,
            "velocity": 0.3937007874015748
          },
          {
            "duration": 0.10489499999999907,
            "durationTicks": 96,
            "midi": 34,
            "name": "A#1",
            "ticks": 60672,
            "time": 66.29364,
            "velocity": 0.3937007874015748
          },
          {
            "duration": 0.10489499999999907,
            "durationTicks": 96,
            "midi": 77,
            "name": "F5",
            "ticks": 60720,
            "time": 66.3460875,
            "velocity": 0.3937007874015748
          },
          {
            "duration": 0.10489499999999907,
            "durationTicks": 96,
            "midi": 34,
            "name": "A#1",
            "ticks": 60768,
            "time": 66.398535,
            "velocity": 0.3937007874015748
          },
          {
            "duration": 0.10489499999999907,
            "durationTicks": 96,
            "midi": 34,
            "name": "A#1",
            "ticks": 60768,
            "time": 66.398535,
            "velocity": 0.3937007874015748
          },
          {
            "duration": 0.10489499999999907,
            "durationTicks": 96,
            "midi": 34,
            "name": "A#1",
            "ticks": 60768,
            "time": 66.398535,
            "velocity": 0.3937007874015748
          },
          {
            "duration": 0.10489500000001328,
            "durationTicks": 96,
            "midi": 74,
            "name": "D5",
            "ticks": 60816,
            "time": 66.4509825,
            "velocity": 0.3937007874015748
          },
          {
            "duration": 0.10489500000001328,
            "durationTicks": 96,
            "midi": 34,
            "name": "A#1",
            "ticks": 60864,
            "time": 66.50343,
            "velocity": 0.3937007874015748
          },
          {
            "duration": 0.10489500000001328,
            "durationTicks": 96,
            "midi": 34,
            "name": "A#1",
            "ticks": 60864,
            "time": 66.50343,
            "velocity": 0.3937007874015748
          },
          {
            "duration": 0.10489500000001328,
            "durationTicks": 96,
            "midi": 34,
            "name": "A#1",
            "ticks": 60864,
            "time": 66.50343,
            "velocity": 0.3937007874015748
          },
          {
            "duration": 0.10489499999999907,
            "durationTicks": 96,
            "midi": 74,
            "name": "D5",
            "ticks": 60912,
            "time": 66.55587750000001,
            "velocity": 0.3937007874015748
          },
          {
            "duration": 0.10489499999999907,
            "durationTicks": 96,
            "midi": 34,
            "name": "A#1",
            "ticks": 60960,
            "time": 66.60832500000001,
            "velocity": 0.3937007874015748
          },
          {
            "duration": 0.10489499999999907,
            "durationTicks": 96,
            "midi": 34,
            "name": "A#1",
            "ticks": 60960,
            "time": 66.60832500000001,
            "velocity": 0.3937007874015748
          },
          {
            "duration": 0.10489499999999907,
            "durationTicks": 96,
            "midi": 34,
            "name": "A#1",
            "ticks": 60960,
            "time": 66.60832500000001,
            "velocity": 0.3937007874015748
          },
          {
            "duration": 0.10489499999999907,
            "durationTicks": 96,
            "midi": 77,
            "name": "F5",
            "ticks": 61008,
            "time": 66.66077250000001,
            "velocity": 0.3937007874015748
          },
          {
            "duration": 0.10489499999999907,
            "durationTicks": 96,
            "midi": 34,
            "name": "A#1",
            "ticks": 61056,
            "time": 66.71322,
            "velocity": 0.3937007874015748
          },
          {
            "duration": 0.10489499999999907,
            "durationTicks": 96,
            "midi": 34,
            "name": "A#1",
            "ticks": 61056,
            "time": 66.71322,
            "velocity": 0.3937007874015748
          },
          {
            "duration": 0.10489499999999907,
            "durationTicks": 96,
            "midi": 24,
            "name": "C1",
            "ticks": 61056,
            "time": 66.71322,
            "velocity": 0.3937007874015748
          },
          {
            "duration": 0.10489499999999907,
            "durationTicks": 96,
            "midi": 24,
            "name": "C1",
            "ticks": 61104,
            "time": 66.7656675,
            "velocity": 0.3937007874015748
          },
          {
            "duration": 0.10489499999999907,
            "durationTicks": 96,
            "midi": 77,
            "name": "F5",
            "ticks": 61104,
            "time": 66.7656675,
            "velocity": 0.3937007874015748
          },
          {
            "duration": 0.10489499999999907,
            "durationTicks": 96,
            "midi": 24,
            "name": "C1",
            "ticks": 61152,
            "time": 66.818115,
            "velocity": 0.3937007874015748
          },
          {
            "duration": 0.10489499999999907,
            "durationTicks": 96,
            "midi": 24,
            "name": "C1",
            "ticks": 61152,
            "time": 66.818115,
            "velocity": 0.3937007874015748
          },
          {
            "duration": 0.10489499999999907,
            "durationTicks": 96,
            "midi": 34,
            "name": "A#1",
            "ticks": 61152,
            "time": 66.818115,
            "velocity": 0.3937007874015748
          },
          {
            "duration": 0.10489499999999907,
            "durationTicks": 96,
            "midi": 24,
            "name": "C1",
            "ticks": 61200,
            "time": 66.8705625,
            "velocity": 0.3937007874015748
          },
          {
            "duration": 0.10489499999999907,
            "durationTicks": 96,
            "midi": 81,
            "name": "A5",
            "ticks": 61200,
            "time": 66.8705625,
            "velocity": 0.3937007874015748
          },
          {
            "duration": 0.10489499999999907,
            "durationTicks": 96,
            "midi": 24,
            "name": "C1",
            "ticks": 61200,
            "time": 66.8705625,
            "velocity": 0.3937007874015748
          },
          {
            "duration": 0.10489499999999907,
            "durationTicks": 96,
            "midi": 24,
            "name": "C1",
            "ticks": 61248,
            "time": 66.92301,
            "velocity": 0.3937007874015748
          },
          {
            "duration": 0.10489499999999907,
            "durationTicks": 96,
            "midi": 24,
            "name": "C1",
            "ticks": 61248,
            "time": 66.92301,
            "velocity": 0.3937007874015748
          },
          {
            "duration": 0.10489499999999907,
            "durationTicks": 96,
            "midi": 24,
            "name": "C1",
            "ticks": 61248,
            "time": 66.92301,
            "velocity": 0.3937007874015748
          },
          {
            "duration": 0.10489499999999907,
            "durationTicks": 96,
            "midi": 81,
            "name": "A5",
            "ticks": 61296,
            "time": 66.9754575,
            "velocity": 0.3937007874015748
          },
          {
            "duration": 0.10489499999999907,
            "durationTicks": 96,
            "midi": 24,
            "name": "C1",
            "ticks": 61296,
            "time": 66.9754575,
            "velocity": 0.3937007874015748
          },
          {
            "duration": 0.10489499999999907,
            "durationTicks": 96,
            "midi": 24,
            "name": "C1",
            "ticks": 61296,
            "time": 66.9754575,
            "velocity": 0.3937007874015748
          },
          {
            "duration": 0.10489499999999907,
            "durationTicks": 96,
            "midi": 24,
            "name": "C1",
            "ticks": 61344,
            "time": 67.027905,
            "velocity": 0.3937007874015748
          },
          {
            "duration": 0.10489499999999907,
            "durationTicks": 96,
            "midi": 24,
            "name": "C1",
            "ticks": 61344,
            "time": 67.027905,
            "velocity": 0.3937007874015748
          },
          {
            "duration": 0.10489499999999907,
            "durationTicks": 96,
            "midi": 24,
            "name": "C1",
            "ticks": 61344,
            "time": 67.027905,
            "velocity": 0.3937007874015748
          },
          {
            "duration": 0.10489499999999907,
            "durationTicks": 96,
            "midi": 84,
            "name": "C6",
            "ticks": 61392,
            "time": 67.0803525,
            "velocity": 0.3937007874015748
          },
          {
            "duration": 0.10489499999999907,
            "durationTicks": 96,
            "midi": 24,
            "name": "C1",
            "ticks": 61392,
            "time": 67.0803525,
            "velocity": 0.3937007874015748
          },
          {
            "duration": 0.10489499999999907,
            "durationTicks": 96,
            "midi": 26,
            "name": "D1",
            "ticks": 61440,
            "time": 67.1328,
            "velocity": 0.3937007874015748
          },
          {
            "duration": 0.10489499999999907,
            "durationTicks": 96,
            "midi": 24,
            "name": "C1",
            "ticks": 61440,
            "time": 67.1328,
            "velocity": 0.3937007874015748
          },
          {
            "duration": 0.10489499999999907,
            "durationTicks": 96,
            "midi": 24,
            "name": "C1",
            "ticks": 61440,
            "time": 67.1328,
            "velocity": 0.3937007874015748
          },
          {
            "duration": 0.10489499999999907,
            "durationTicks": 96,
            "midi": 84,
            "name": "C6",
            "ticks": 61488,
            "time": 67.1852475,
            "velocity": 0.3937007874015748
          },
          {
            "duration": 0.10489499999999907,
            "durationTicks": 96,
            "midi": 26,
            "name": "D1",
            "ticks": 61536,
            "time": 67.237695,
            "velocity": 0.3937007874015748
          },
          {
            "duration": 0.10489499999999907,
            "durationTicks": 96,
            "midi": 26,
            "name": "D1",
            "ticks": 61536,
            "time": 67.237695,
            "velocity": 0.3937007874015748
          },
          {
            "duration": 0.10489499999999907,
            "durationTicks": 96,
            "midi": 24,
            "name": "C1",
            "ticks": 61536,
            "time": 67.237695,
            "velocity": 0.3937007874015748
          },
          {
            "duration": 0.10489499999999907,
            "durationTicks": 96,
            "midi": 81,
            "name": "A5",
            "ticks": 61584,
            "time": 67.2901425,
            "velocity": 0.3937007874015748
          },
          {
            "duration": 0.10489499999999907,
            "durationTicks": 96,
            "midi": 26,
            "name": "D1",
            "ticks": 61632,
            "time": 67.34259,
            "velocity": 0.3937007874015748
          },
          {
            "duration": 0.10489499999999907,
            "durationTicks": 96,
            "midi": 26,
            "name": "D1",
            "ticks": 61632,
            "time": 67.34259,
            "velocity": 0.3937007874015748
          },
          {
            "duration": 0.10489499999999907,
            "durationTicks": 96,
            "midi": 26,
            "name": "D1",
            "ticks": 61632,
            "time": 67.34259,
            "velocity": 0.3937007874015748
          },
          {
            "duration": 0.10489499999999907,
            "durationTicks": 96,
            "midi": 81,
            "name": "A5",
            "ticks": 61680,
            "time": 67.3950375,
            "velocity": 0.3937007874015748
          },
          {
            "duration": 0.10489499999999907,
            "durationTicks": 96,
            "midi": 26,
            "name": "D1",
            "ticks": 61728,
            "time": 67.447485,
            "velocity": 0.3937007874015748
          },
          {
            "duration": 0.10489499999999907,
            "durationTicks": 96,
            "midi": 26,
            "name": "D1",
            "ticks": 61728,
            "time": 67.447485,
            "velocity": 0.3937007874015748
          },
          {
            "duration": 0.10489499999999907,
            "durationTicks": 96,
            "midi": 26,
            "name": "D1",
            "ticks": 61728,
            "time": 67.447485,
            "velocity": 0.3937007874015748
          },
          {
            "duration": 0.10489499999999907,
            "durationTicks": 96,
            "midi": 80,
            "name": "G#5",
            "ticks": 61776,
            "time": 67.4999325,
            "velocity": 0.3937007874015748
          },
          {
            "duration": 0.10489499999999907,
            "durationTicks": 96,
            "midi": 26,
            "name": "D1",
            "ticks": 61824,
            "time": 67.55238,
            "velocity": 0.3937007874015748
          },
          {
            "duration": 0.10489499999999907,
            "durationTicks": 96,
            "midi": 26,
            "name": "D1",
            "ticks": 61824,
            "time": 67.55238,
            "velocity": 0.3937007874015748
          },
          {
            "duration": 0.10489499999999907,
            "durationTicks": 96,
            "midi": 26,
            "name": "D1",
            "ticks": 61824,
            "time": 67.55238,
            "velocity": 0.3937007874015748
          },
          {
            "duration": 0.10489499999999907,
            "durationTicks": 96,
            "midi": 26,
            "name": "D1",
            "ticks": 61872,
            "time": 67.6048275,
            "velocity": 0.3937007874015748
          },
          {
            "duration": 0.10489499999999907,
            "durationTicks": 96,
            "midi": 80,
            "name": "G#5",
            "ticks": 61872,
            "time": 67.6048275,
            "velocity": 0.3937007874015748
          },
          {
            "duration": 0.10489499999999907,
            "durationTicks": 96,
            "midi": 26,
            "name": "D1",
            "ticks": 61920,
            "time": 67.657275,
            "velocity": 0.3937007874015748
          },
          {
            "duration": 0.10489499999999907,
            "durationTicks": 96,
            "midi": 26,
            "name": "D1",
            "ticks": 61920,
            "time": 67.657275,
            "velocity": 0.3937007874015748
          },
          {
            "duration": 0.10489499999999907,
            "durationTicks": 96,
            "midi": 26,
            "name": "D1",
            "ticks": 61920,
            "time": 67.657275,
            "velocity": 0.3937007874015748
          },
          {
            "duration": 0.10489499999999907,
            "durationTicks": 96,
            "midi": 79,
            "name": "G5",
            "ticks": 61968,
            "time": 67.7097225,
            "velocity": 0.3937007874015748
          },
          {
            "duration": 0.10489499999999907,
            "durationTicks": 96,
            "midi": 26,
            "name": "D1",
            "ticks": 61968,
            "time": 67.7097225,
            "velocity": 0.3937007874015748
          },
          {
            "duration": 0.10489499999999907,
            "durationTicks": 96,
            "midi": 26,
            "name": "D1",
            "ticks": 61968,
            "time": 67.7097225,
            "velocity": 0.3937007874015748
          },
          {
            "duration": 0.10489499999999907,
            "durationTicks": 96,
            "midi": 26,
            "name": "D1",
            "ticks": 62016,
            "time": 67.76217,
            "velocity": 0.3937007874015748
          },
          {
            "duration": 0.10489499999999907,
            "durationTicks": 96,
            "midi": 26,
            "name": "D1",
            "ticks": 62016,
            "time": 67.76217,
            "velocity": 0.3937007874015748
          },
          {
            "duration": 0.10489499999999907,
            "durationTicks": 96,
            "midi": 26,
            "name": "D1",
            "ticks": 62016,
            "time": 67.76217,
            "velocity": 0.3937007874015748
          },
          {
            "duration": 0.10489499999999907,
            "durationTicks": 96,
            "midi": 79,
            "name": "G5",
            "ticks": 62064,
            "time": 67.8146175,
            "velocity": 0.3937007874015748
          },
          {
            "duration": 0.10489499999999907,
            "durationTicks": 96,
            "midi": 26,
            "name": "D1",
            "ticks": 62064,
            "time": 67.8146175,
            "velocity": 0.3937007874015748
          },
          {
            "duration": 0.10489499999999907,
            "durationTicks": 96,
            "midi": 26,
            "name": "D1",
            "ticks": 62064,
            "time": 67.8146175,
            "velocity": 0.3937007874015748
          },
          {
            "duration": 0.10489499999999907,
            "durationTicks": 96,
            "midi": 26,
            "name": "D1",
            "ticks": 62112,
            "time": 67.867065,
            "velocity": 0.3937007874015748
          },
          {
            "duration": 0.10489499999999907,
            "durationTicks": 96,
            "midi": 26,
            "name": "D1",
            "ticks": 62112,
            "time": 67.867065,
            "velocity": 0.3937007874015748
          },
          {
            "duration": 0.10489499999999907,
            "durationTicks": 96,
            "midi": 26,
            "name": "D1",
            "ticks": 62112,
            "time": 67.867065,
            "velocity": 0.3937007874015748
          },
          {
            "duration": 0.10489499999999907,
            "durationTicks": 96,
            "midi": 78,
            "name": "F#5",
            "ticks": 62160,
            "time": 67.9195125,
            "velocity": 0.3937007874015748
          },
          {
            "duration": 0.10489499999999907,
            "durationTicks": 96,
            "midi": 26,
            "name": "D1",
            "ticks": 62160,
            "time": 67.9195125,
            "velocity": 0.3937007874015748
          },
          {
            "duration": 0.10489499999999907,
            "durationTicks": 96,
            "midi": 26,
            "name": "D1",
            "ticks": 62208,
            "time": 67.97196,
            "velocity": 0.3937007874015748
          },
          {
            "duration": 0.10489499999999907,
            "durationTicks": 96,
            "midi": 26,
            "name": "D1",
            "ticks": 62208,
            "time": 67.97196,
            "velocity": 0.3937007874015748
          },
          {
            "duration": 0.10489499999999907,
            "durationTicks": 96,
            "midi": 78,
            "name": "F#5",
            "ticks": 62256,
            "time": 68.0244075,
            "velocity": 0.3937007874015748
          },
          {
            "duration": 0.10489500000001328,
            "durationTicks": 96,
            "midi": 26,
            "name": "D1",
            "ticks": 62304,
            "time": 68.076855,
            "velocity": 0.3937007874015748
          },
          {
            "duration": 0.10489500000001328,
            "durationTicks": 96,
            "midi": 81,
            "name": "A5",
            "ticks": 62352,
            "time": 68.1293025,
            "velocity": 0.3937007874015748
          },
          {
            "duration": 0.10489499999999907,
            "durationTicks": 96,
            "midi": 81,
            "name": "A5",
            "ticks": 62448,
            "time": 68.23419750000001,
            "velocity": 0.3937007874015748
          },
          {
            "duration": 0.10489499999999907,
            "durationTicks": 96,
            "midi": 84,
            "name": "C6",
            "ticks": 62544,
            "time": 68.3390925,
            "velocity": 0.3937007874015748
          },
          {
            "duration": 0.10489499999999907,
            "durationTicks": 96,
            "midi": 84,
            "name": "C6",
            "ticks": 62640,
            "time": 68.4439875,
            "velocity": 0.3937007874015748
          },
          {
            "duration": 0.10489499999999907,
            "durationTicks": 96,
            "midi": 86,
            "name": "D6",
            "ticks": 62736,
            "time": 68.5488825,
            "velocity": 0.3937007874015748
          },
          {
            "duration": 0.10489499999999907,
            "durationTicks": 96,
            "midi": 86,
            "name": "D6",
            "ticks": 62832,
            "time": 68.6537775,
            "velocity": 0.3937007874015748
          },
          {
            "duration": 0.10489499999999907,
            "durationTicks": 96,
            "midi": 88,
            "name": "E6",
            "ticks": 62928,
            "time": 68.7586725,
            "velocity": 0.3937007874015748
          },
          {
            "duration": 0.10489499999999907,
            "durationTicks": 96,
            "midi": 32,
            "name": "G#1",
            "ticks": 62976,
            "time": 68.81112,
            "velocity": 0.3937007874015748
          },
          {
            "duration": 0.10489499999999907,
            "durationTicks": 96,
            "midi": 41,
            "name": "F2",
            "ticks": 62976,
            "time": 68.81112,
            "velocity": 0.3937007874015748
          },
          {
            "duration": 0.10489499999999907,
            "durationTicks": 96,
            "midi": 27,
            "name": "D#1",
            "ticks": 62976,
            "time": 68.81112,
            "velocity": 0.3937007874015748
          },
          {
            "duration": 0.10489499999999907,
            "durationTicks": 96,
            "midi": 88,
            "name": "E6",
            "ticks": 63024,
            "time": 68.8635675,
            "velocity": 0.3937007874015748
          },
          {
            "duration": 0.10489499999999907,
            "durationTicks": 96,
            "midi": 32,
            "name": "G#1",
            "ticks": 63072,
            "time": 68.916015,
            "velocity": 0.3937007874015748
          },
          {
            "duration": 0.10489499999999907,
            "durationTicks": 96,
            "midi": 41,
            "name": "F2",
            "ticks": 63072,
            "time": 68.916015,
            "velocity": 0.3937007874015748
          },
          {
            "duration": 0.10489499999999907,
            "durationTicks": 96,
            "midi": 27,
            "name": "D#1",
            "ticks": 63072,
            "time": 68.916015,
            "velocity": 0.3937007874015748
          },
          {
            "duration": 0.10489499999999907,
            "durationTicks": 96,
            "midi": 41,
            "name": "F2",
            "ticks": 63072,
            "time": 68.916015,
            "velocity": 0.3937007874015748
          },
          {
            "duration": 0.10489499999999907,
            "durationTicks": 96,
            "midi": 32,
            "name": "G#1",
            "ticks": 63072,
            "time": 68.916015,
            "velocity": 0.3937007874015748
          },
          {
            "duration": 0.10489499999999907,
            "durationTicks": 96,
            "midi": 27,
            "name": "D#1",
            "ticks": 63072,
            "time": 68.916015,
            "velocity": 0.3937007874015748
          },
          {
            "duration": 0.10489499999999907,
            "durationTicks": 96,
            "midi": 41,
            "name": "F2",
            "ticks": 63168,
            "time": 69.02091,
            "velocity": 0.3937007874015748
          },
          {
            "duration": 0.10489499999999907,
            "durationTicks": 96,
            "midi": 41,
            "name": "F2",
            "ticks": 63168,
            "time": 69.02091,
            "velocity": 0.3937007874015748
          },
          {
            "duration": 0.10489499999999907,
            "durationTicks": 96,
            "midi": 32,
            "name": "G#1",
            "ticks": 63168,
            "time": 69.02091,
            "velocity": 0.3937007874015748
          },
          {
            "duration": 0.10489499999999907,
            "durationTicks": 96,
            "midi": 27,
            "name": "D#1",
            "ticks": 63168,
            "time": 69.02091,
            "velocity": 0.3937007874015748
          },
          {
            "duration": 0.10489499999999907,
            "durationTicks": 96,
            "midi": 32,
            "name": "G#1",
            "ticks": 63168,
            "time": 69.02091,
            "velocity": 0.3937007874015748
          },
          {
            "duration": 0.10489499999999907,
            "durationTicks": 96,
            "midi": 41,
            "name": "F2",
            "ticks": 63168,
            "time": 69.02091,
            "velocity": 0.3937007874015748
          },
          {
            "duration": 0.10489499999999907,
            "durationTicks": 96,
            "midi": 32,
            "name": "G#1",
            "ticks": 63168,
            "time": 69.02091,
            "velocity": 0.3937007874015748
          },
          {
            "duration": 0.10489499999999907,
            "durationTicks": 96,
            "midi": 27,
            "name": "D#1",
            "ticks": 63168,
            "time": 69.02091,
            "velocity": 0.3937007874015748
          },
          {
            "duration": 0.10489499999999907,
            "durationTicks": 96,
            "midi": 27,
            "name": "D#1",
            "ticks": 63168,
            "time": 69.02091,
            "velocity": 0.3937007874015748
          },
          {
            "duration": 0.10489499999999907,
            "durationTicks": 96,
            "midi": 41,
            "name": "F2",
            "ticks": 63264,
            "time": 69.125805,
            "velocity": 0.3937007874015748
          },
          {
            "duration": 0.10489499999999907,
            "durationTicks": 96,
            "midi": 41,
            "name": "F2",
            "ticks": 63264,
            "time": 69.125805,
            "velocity": 0.3937007874015748
          },
          {
            "duration": 0.10489499999999907,
            "durationTicks": 96,
            "midi": 32,
            "name": "G#1",
            "ticks": 63264,
            "time": 69.125805,
            "velocity": 0.3937007874015748
          },
          {
            "duration": 0.10489499999999907,
            "durationTicks": 96,
            "midi": 27,
            "name": "D#1",
            "ticks": 63264,
            "time": 69.125805,
            "velocity": 0.3937007874015748
          },
          {
            "duration": 0.10489499999999907,
            "durationTicks": 96,
            "midi": 27,
            "name": "D#1",
            "ticks": 63264,
            "time": 69.125805,
            "velocity": 0.3937007874015748
          },
          {
            "duration": 0.10489499999999907,
            "durationTicks": 96,
            "midi": 27,
            "name": "D#1",
            "ticks": 63264,
            "time": 69.125805,
            "velocity": 0.3937007874015748
          },
          {
            "duration": 0.10489499999999907,
            "durationTicks": 96,
            "midi": 32,
            "name": "G#1",
            "ticks": 63264,
            "time": 69.125805,
            "velocity": 0.3937007874015748
          },
          {
            "duration": 0.10489499999999907,
            "durationTicks": 96,
            "midi": 32,
            "name": "G#1",
            "ticks": 63264,
            "time": 69.125805,
            "velocity": 0.3937007874015748
          },
          {
            "duration": 0.10489499999999907,
            "durationTicks": 96,
            "midi": 41,
            "name": "F2",
            "ticks": 63264,
            "time": 69.125805,
            "velocity": 0.3937007874015748
          },
          {
            "duration": 0.10489499999999907,
            "durationTicks": 96,
            "midi": 32,
            "name": "G#1",
            "ticks": 63360,
            "time": 69.2307,
            "velocity": 0.3937007874015748
          },
          {
            "duration": 0.10489499999999907,
            "durationTicks": 96,
            "midi": 27,
            "name": "D#1",
            "ticks": 63360,
            "time": 69.2307,
            "velocity": 0.3937007874015748
          },
          {
            "duration": 0.10489499999999907,
            "durationTicks": 96,
            "midi": 41,
            "name": "F2",
            "ticks": 63360,
            "time": 69.2307,
            "velocity": 0.3937007874015748
          },
          {
            "duration": 0.10489499999999907,
            "durationTicks": 96,
            "midi": 27,
            "name": "D#1",
            "ticks": 63360,
            "time": 69.2307,
            "velocity": 0.3937007874015748
          },
          {
            "duration": 0.10489499999999907,
            "durationTicks": 96,
            "midi": 27,
            "name": "D#1",
            "ticks": 63360,
            "time": 69.2307,
            "velocity": 0.3937007874015748
          },
          {
            "duration": 0.10489499999999907,
            "durationTicks": 96,
            "midi": 32,
            "name": "G#1",
            "ticks": 63360,
            "time": 69.2307,
            "velocity": 0.3937007874015748
          },
          {
            "duration": 0.10489499999999907,
            "durationTicks": 96,
            "midi": 41,
            "name": "F2",
            "ticks": 63360,
            "time": 69.2307,
            "velocity": 0.3937007874015748
          },
          {
            "duration": 0.10489499999999907,
            "durationTicks": 96,
            "midi": 41,
            "name": "F2",
            "ticks": 63360,
            "time": 69.2307,
            "velocity": 0.3937007874015748
          },
          {
            "duration": 0.10489499999999907,
            "durationTicks": 96,
            "midi": 32,
            "name": "G#1",
            "ticks": 63360,
            "time": 69.2307,
            "velocity": 0.3937007874015748
          },
          {
            "duration": 0.10489499999999907,
            "durationTicks": 96,
            "midi": 41,
            "name": "F2",
            "ticks": 63408,
            "time": 69.2831475,
            "velocity": 0.3937007874015748
          },
          {
            "duration": 0.10489499999999907,
            "durationTicks": 96,
            "midi": 32,
            "name": "G#1",
            "ticks": 63408,
            "time": 69.2831475,
            "velocity": 0.3937007874015748
          },
          {
            "duration": 0.10489499999999907,
            "durationTicks": 96,
            "midi": 27,
            "name": "D#1",
            "ticks": 63408,
            "time": 69.2831475,
            "velocity": 0.3937007874015748
          },
          {
            "duration": 0.10489499999999907,
            "durationTicks": 96,
            "midi": 32,
            "name": "G#1",
            "ticks": 63456,
            "time": 69.335595,
            "velocity": 0.3937007874015748
          },
          {
            "duration": 0.10489499999999907,
            "durationTicks": 96,
            "midi": 27,
            "name": "D#1",
            "ticks": 63456,
            "time": 69.335595,
            "velocity": 0.3937007874015748
          },
          {
            "duration": 0.10489499999999907,
            "durationTicks": 96,
            "midi": 41,
            "name": "F2",
            "ticks": 63456,
            "time": 69.335595,
            "velocity": 0.3937007874015748
          },
          {
            "duration": 0.10489499999999907,
            "durationTicks": 96,
            "midi": 32,
            "name": "G#1",
            "ticks": 63456,
            "time": 69.335595,
            "velocity": 0.3937007874015748
          },
          {
            "duration": 0.10489499999999907,
            "durationTicks": 96,
            "midi": 41,
            "name": "F2",
            "ticks": 63456,
            "time": 69.335595,
            "velocity": 0.3937007874015748
          },
          {
            "duration": 0.10489499999999907,
            "durationTicks": 96,
            "midi": 32,
            "name": "G#1",
            "ticks": 63456,
            "time": 69.335595,
            "velocity": 0.3937007874015748
          },
          {
            "duration": 0.10489499999999907,
            "durationTicks": 96,
            "midi": 41,
            "name": "F2",
            "ticks": 63456,
            "time": 69.335595,
            "velocity": 0.3937007874015748
          },
          {
            "duration": 0.10489499999999907,
            "durationTicks": 96,
            "midi": 27,
            "name": "D#1",
            "ticks": 63456,
            "time": 69.335595,
            "velocity": 0.3937007874015748
          },
          {
            "duration": 0.10489499999999907,
            "durationTicks": 96,
            "midi": 27,
            "name": "D#1",
            "ticks": 63456,
            "time": 69.335595,
            "velocity": 0.3937007874015748
          },
          {
            "duration": 0.10489499999999907,
            "durationTicks": 96,
            "midi": 41,
            "name": "F2",
            "ticks": 63504,
            "time": 69.3880425,
            "velocity": 0.3937007874015748
          },
          {
            "duration": 0.10489499999999907,
            "durationTicks": 96,
            "midi": 32,
            "name": "G#1",
            "ticks": 63504,
            "time": 69.3880425,
            "velocity": 0.3937007874015748
          },
          {
            "duration": 0.10489499999999907,
            "durationTicks": 96,
            "midi": 41,
            "name": "F2",
            "ticks": 63504,
            "time": 69.3880425,
            "velocity": 0.3937007874015748
          },
          {
            "duration": 0.10489499999999907,
            "durationTicks": 96,
            "midi": 32,
            "name": "G#1",
            "ticks": 63504,
            "time": 69.3880425,
            "velocity": 0.3937007874015748
          },
          {
            "duration": 0.10489499999999907,
            "durationTicks": 96,
            "midi": 27,
            "name": "D#1",
            "ticks": 63504,
            "time": 69.3880425,
            "velocity": 0.3937007874015748
          },
          {
            "duration": 0.10489499999999907,
            "durationTicks": 96,
            "midi": 27,
            "name": "D#1",
            "ticks": 63504,
            "time": 69.3880425,
            "velocity": 0.3937007874015748
          },
          {
            "duration": 0.10489499999999907,
            "durationTicks": 96,
            "midi": 27,
            "name": "D#1",
            "ticks": 63552,
            "time": 69.44049,
            "velocity": 0.3937007874015748
          },
          {
            "duration": 0.10489499999999907,
            "durationTicks": 96,
            "midi": 27,
            "name": "D#1",
            "ticks": 63552,
            "time": 69.44049,
            "velocity": 0.3937007874015748
          },
          {
            "duration": 0.10489499999999907,
            "durationTicks": 96,
            "midi": 32,
            "name": "G#1",
            "ticks": 63552,
            "time": 69.44049,
            "velocity": 0.3937007874015748
          },
          {
            "duration": 0.10489499999999907,
            "durationTicks": 96,
            "midi": 41,
            "name": "F2",
            "ticks": 63552,
            "time": 69.44049,
            "velocity": 0.3937007874015748
          },
          {
            "duration": 0.10489499999999907,
            "durationTicks": 96,
            "midi": 32,
            "name": "G#1",
            "ticks": 63552,
            "time": 69.44049,
            "velocity": 0.3937007874015748
          },
          {
            "duration": 0.10489499999999907,
            "durationTicks": 96,
            "midi": 41,
            "name": "F2",
            "ticks": 63552,
            "time": 69.44049,
            "velocity": 0.3937007874015748
          },
          {
            "duration": 0.10489499999999907,
            "durationTicks": 96,
            "midi": 27,
            "name": "D#1",
            "ticks": 63600,
            "time": 69.4929375,
            "velocity": 0.3937007874015748
          },
          {
            "duration": 0.10489499999999907,
            "durationTicks": 96,
            "midi": 41,
            "name": "F2",
            "ticks": 63600,
            "time": 69.4929375,
            "velocity": 0.3937007874015748
          },
          {
            "duration": 0.10489499999999907,
            "durationTicks": 96,
            "midi": 32,
            "name": "G#1",
            "ticks": 63600,
            "time": 69.4929375,
            "velocity": 0.3937007874015748
          },
          {
            "duration": 0.10489499999999907,
            "durationTicks": 96,
            "midi": 32,
            "name": "G#1",
            "ticks": 63600,
            "time": 69.4929375,
            "velocity": 0.3937007874015748
          },
          {
            "duration": 0.10489499999999907,
            "durationTicks": 96,
            "midi": 27,
            "name": "D#1",
            "ticks": 63600,
            "time": 69.4929375,
            "velocity": 0.3937007874015748
          },
          {
            "duration": 0.10489499999999907,
            "durationTicks": 96,
            "midi": 41,
            "name": "F2",
            "ticks": 63600,
            "time": 69.4929375,
            "velocity": 0.3937007874015748
          },
          {
            "duration": 0.10489499999999907,
            "durationTicks": 96,
            "midi": 27,
            "name": "D#1",
            "ticks": 63648,
            "time": 69.545385,
            "velocity": 0.3937007874015748
          },
          {
            "duration": 0.10489499999999907,
            "durationTicks": 96,
            "midi": 74,
            "name": "D5",
            "ticks": 63648,
            "time": 69.545385,
            "velocity": 0.3937007874015748
          },
          {
            "duration": 0.10489499999999907,
            "durationTicks": 96,
            "midi": 32,
            "name": "G#1",
            "ticks": 63648,
            "time": 69.545385,
            "velocity": 0.3937007874015748
          },
          {
            "duration": 0.10489499999999907,
            "durationTicks": 96,
            "midi": 41,
            "name": "F2",
            "ticks": 63648,
            "time": 69.545385,
            "velocity": 0.3937007874015748
          },
          {
            "duration": 0.10489499999999907,
            "durationTicks": 96,
            "midi": 32,
            "name": "G#1",
            "ticks": 63696,
            "time": 69.5978325,
            "velocity": 0.3937007874015748
          },
          {
            "duration": 0.10489499999999907,
            "durationTicks": 96,
            "midi": 41,
            "name": "F2",
            "ticks": 63696,
            "time": 69.5978325,
            "velocity": 0.3937007874015748
          },
          {
            "duration": 0.10489499999999907,
            "durationTicks": 96,
            "midi": 27,
            "name": "D#1",
            "ticks": 63696,
            "time": 69.5978325,
            "velocity": 0.3937007874015748
          },
          {
            "duration": 0.10489500000001328,
            "durationTicks": 96,
            "midi": 32,
            "name": "G#1",
            "ticks": 63744,
            "time": 69.65028,
            "velocity": 0.3937007874015748
          },
          {
            "duration": 0.10489500000001328,
            "durationTicks": 96,
            "midi": 27,
            "name": "D#1",
            "ticks": 63744,
            "time": 69.65028,
            "velocity": 0.3937007874015748
          },
          {
            "duration": 0.10489500000001328,
            "durationTicks": 96,
            "midi": 41,
            "name": "F2",
            "ticks": 63744,
            "time": 69.65028,
            "velocity": 0.3937007874015748
          },
          {
            "duration": 0.10489499999999907,
            "durationTicks": 96,
            "midi": 32,
            "name": "G#1",
            "ticks": 63840,
            "time": 69.75517500000001,
            "velocity": 0.3937007874015748
          },
          {
            "duration": 0.10489499999999907,
            "durationTicks": 96,
            "midi": 74,
            "name": "D5",
            "ticks": 63840,
            "time": 69.75517500000001,
            "velocity": 0.3937007874015748
          },
          {
            "duration": 0.10489499999999907,
            "durationTicks": 96,
            "midi": 41,
            "name": "F2",
            "ticks": 63840,
            "time": 69.75517500000001,
            "velocity": 0.3937007874015748
          },
          {
            "duration": 0.10489499999999907,
            "durationTicks": 96,
            "midi": 27,
            "name": "D#1",
            "ticks": 63840,
            "time": 69.75517500000001,
            "velocity": 0.3937007874015748
          },
          {
            "duration": 0.10489499999999907,
            "durationTicks": 96,
            "midi": 27,
            "name": "D#1",
            "ticks": 63936,
            "time": 69.86007000000001,
            "velocity": 0.3937007874015748
          },
          {
            "duration": 0.10489499999999907,
            "durationTicks": 96,
            "midi": 32,
            "name": "G#1",
            "ticks": 63936,
            "time": 69.86007000000001,
            "velocity": 0.3937007874015748
          },
          {
            "duration": 0.10489499999999907,
            "durationTicks": 96,
            "midi": 41,
            "name": "F2",
            "ticks": 63936,
            "time": 69.86007000000001,
            "velocity": 0.3937007874015748
          },
          {
            "duration": 0.10489499999999907,
            "durationTicks": 96,
            "midi": 74,
            "name": "D5",
            "ticks": 64032,
            "time": 69.964965,
            "velocity": 0.3937007874015748
          },
          {
            "duration": 0.10489499999999907,
            "durationTicks": 96,
            "midi": 74,
            "name": "D5",
            "ticks": 64224,
            "time": 70.174755,
            "velocity": 0.3937007874015748
          },
          {
            "duration": 0.10489499999999907,
            "durationTicks": 96,
            "midi": 86,
            "name": "D6",
            "ticks": 64224,
            "time": 70.174755,
            "velocity": 0.3937007874015748
          },
          {
            "duration": 0.10489499999999907,
            "durationTicks": 96,
            "midi": 86,
            "name": "D6",
            "ticks": 64416,
            "time": 70.384545,
            "velocity": 0.3937007874015748
          },
          {
            "duration": 0.10489499999999907,
            "durationTicks": 96,
            "midi": 26,
            "name": "D1",
            "ticks": 64512,
            "time": 70.48944,
            "velocity": 0.3937007874015748
          },
          {
            "duration": 0.10489499999999907,
            "durationTicks": 96,
            "midi": 31,
            "name": "G1",
            "ticks": 64512,
            "time": 70.48944,
            "velocity": 0.3937007874015748
          },
          {
            "duration": 0.10489499999999907,
            "durationTicks": 96,
            "midi": 41,
            "name": "F2",
            "ticks": 64512,
            "time": 70.48944,
            "velocity": 0.3937007874015748
          },
          {
            "duration": 0.10489499999999907,
            "durationTicks": 96,
            "midi": 31,
            "name": "G1",
            "ticks": 64608,
            "time": 70.594335,
            "velocity": 0.3937007874015748
          },
          {
            "duration": 0.10489499999999907,
            "durationTicks": 96,
            "midi": 26,
            "name": "D1",
            "ticks": 64608,
            "time": 70.594335,
            "velocity": 0.3937007874015748
          },
          {
            "duration": 0.10489499999999907,
            "durationTicks": 96,
            "midi": 26,
            "name": "D1",
            "ticks": 64608,
            "time": 70.594335,
            "velocity": 0.3937007874015748
          },
          {
            "duration": 0.10489499999999907,
            "durationTicks": 96,
            "midi": 86,
            "name": "D6",
            "ticks": 64608,
            "time": 70.594335,
            "velocity": 0.3937007874015748
          },
          {
            "duration": 0.10489499999999907,
            "durationTicks": 96,
            "midi": 31,
            "name": "G1",
            "ticks": 64608,
            "time": 70.594335,
            "velocity": 0.3937007874015748
          },
          {
            "duration": 0.10489499999999907,
            "durationTicks": 96,
            "midi": 41,
            "name": "F2",
            "ticks": 64608,
            "time": 70.594335,
            "velocity": 0.3937007874015748
          },
          {
            "duration": 0.10489499999999907,
            "durationTicks": 96,
            "midi": 41,
            "name": "F2",
            "ticks": 64608,
            "time": 70.594335,
            "velocity": 0.3937007874015748
          },
          {
            "duration": 0.10489499999999907,
            "durationTicks": 96,
            "midi": 41,
            "name": "F2",
            "ticks": 64704,
            "time": 70.69923,
            "velocity": 0.3937007874015748
          },
          {
            "duration": 0.10489499999999907,
            "durationTicks": 96,
            "midi": 26,
            "name": "D1",
            "ticks": 64704,
            "time": 70.69923,
            "velocity": 0.3937007874015748
          },
          {
            "duration": 0.10489499999999907,
            "durationTicks": 96,
            "midi": 26,
            "name": "D1",
            "ticks": 64704,
            "time": 70.69923,
            "velocity": 0.3937007874015748
          },
          {
            "duration": 0.10489499999999907,
            "durationTicks": 96,
            "midi": 26,
            "name": "D1",
            "ticks": 64704,
            "time": 70.69923,
            "velocity": 0.3937007874015748
          },
          {
            "duration": 0.10489499999999907,
            "durationTicks": 96,
            "midi": 31,
            "name": "G1",
            "ticks": 64704,
            "time": 70.69923,
            "velocity": 0.3937007874015748
          },
          {
            "duration": 0.10489499999999907,
            "durationTicks": 96,
            "midi": 41,
            "name": "F2",
            "ticks": 64704,
            "time": 70.69923,
            "velocity": 0.3937007874015748
          },
          {
            "duration": 0.10489499999999907,
            "durationTicks": 96,
            "midi": 41,
            "name": "F2",
            "ticks": 64704,
            "time": 70.69923,
            "velocity": 0.3937007874015748
          },
          {
            "duration": 0.10489499999999907,
            "durationTicks": 96,
            "midi": 31,
            "name": "G1",
            "ticks": 64704,
            "time": 70.69923,
            "velocity": 0.3937007874015748
          },
          {
            "duration": 0.10489499999999907,
            "durationTicks": 96,
            "midi": 31,
            "name": "G1",
            "ticks": 64704,
            "time": 70.69923,
            "velocity": 0.3937007874015748
          },
          {
            "duration": 0.10489499999999907,
            "durationTicks": 96,
            "midi": 26,
            "name": "D1",
            "ticks": 64800,
            "time": 70.804125,
            "velocity": 0.3937007874015748
          },
          {
            "duration": 0.10489499999999907,
            "durationTicks": 96,
            "midi": 41,
            "name": "F2",
            "ticks": 64800,
            "time": 70.804125,
            "velocity": 0.3937007874015748
          },
          {
            "duration": 0.10489499999999907,
            "durationTicks": 96,
            "midi": 41,
            "name": "F2",
            "ticks": 64800,
            "time": 70.804125,
            "velocity": 0.3937007874015748
          },
          {
            "duration": 0.10489499999999907,
            "durationTicks": 96,
            "midi": 26,
            "name": "D1",
            "ticks": 64800,
            "time": 70.804125,
            "velocity": 0.3937007874015748
          },
          {
            "duration": 0.10489499999999907,
            "durationTicks": 96,
            "midi": 31,
            "name": "G1",
            "ticks": 64800,
            "time": 70.804125,
            "velocity": 0.3937007874015748
          },
          {
            "duration": 0.10489499999999907,
            "durationTicks": 96,
            "midi": 31,
            "name": "G1",
            "ticks": 64800,
            "time": 70.804125,
            "velocity": 0.3937007874015748
          },
          {
            "duration": 0.10489499999999907,
            "durationTicks": 96,
            "midi": 41,
            "name": "F2",
            "ticks": 64800,
            "time": 70.804125,
            "velocity": 0.3937007874015748
          },
          {
            "duration": 0.10489499999999907,
            "durationTicks": 96,
            "midi": 31,
            "name": "G1",
            "ticks": 64800,
            "time": 70.804125,
            "velocity": 0.3937007874015748
          },
          {
            "duration": 0.10489499999999907,
            "durationTicks": 96,
            "midi": 86,
            "name": "D6",
            "ticks": 64800,
            "time": 70.804125,
            "velocity": 0.3937007874015748
          },
          {
            "duration": 0.10489499999999907,
            "durationTicks": 96,
            "midi": 26,
            "name": "D1",
            "ticks": 64800,
            "time": 70.804125,
            "velocity": 0.3937007874015748
          },
          {
            "duration": 0.10489499999999907,
            "durationTicks": 96,
            "midi": 26,
            "name": "D1",
            "ticks": 64896,
            "time": 70.90902,
            "velocity": 0.3937007874015748
          },
          {
            "duration": 0.10489499999999907,
            "durationTicks": 96,
            "midi": 31,
            "name": "G1",
            "ticks": 64896,
            "time": 70.90902,
            "velocity": 0.3937007874015748
          },
          {
            "duration": 0.10489499999999907,
            "durationTicks": 96,
            "midi": 31,
            "name": "G1",
            "ticks": 64896,
            "time": 70.90902,
            "velocity": 0.3937007874015748
          },
          {
            "duration": 0.10489499999999907,
            "durationTicks": 96,
            "midi": 41,
            "name": "F2",
            "ticks": 64896,
            "time": 70.90902,
            "velocity": 0.3937007874015748
          },
          {
            "duration": 0.10489499999999907,
            "durationTicks": 96,
            "midi": 31,
            "name": "G1",
            "ticks": 64896,
            "time": 70.90902,
            "velocity": 0.3937007874015748
          },
          {
            "duration": 0.10489499999999907,
            "durationTicks": 96,
            "midi": 41,
            "name": "F2",
            "ticks": 64896,
            "time": 70.90902,
            "velocity": 0.3937007874015748
          },
          {
            "duration": 0.10489499999999907,
            "durationTicks": 96,
            "midi": 26,
            "name": "D1",
            "ticks": 64896,
            "time": 70.90902,
            "velocity": 0.3937007874015748
          },
          {
            "duration": 0.10489499999999907,
            "durationTicks": 96,
            "midi": 41,
            "name": "F2",
            "ticks": 64896,
            "time": 70.90902,
            "velocity": 0.3937007874015748
          },
          {
            "duration": 0.10489499999999907,
            "durationTicks": 96,
            "midi": 26,
            "name": "D1",
            "ticks": 64896,
            "time": 70.90902,
            "velocity": 0.3937007874015748
          },
          {
            "duration": 0.10489499999999907,
            "durationTicks": 96,
            "midi": 26,
            "name": "D1",
            "ticks": 64944,
            "time": 70.9614675,
            "velocity": 0.3937007874015748
          },
          {
            "duration": 0.10489499999999907,
            "durationTicks": 96,
            "midi": 41,
            "name": "F2",
            "ticks": 64944,
            "time": 70.9614675,
            "velocity": 0.3937007874015748
          },
          {
            "duration": 0.10489499999999907,
            "durationTicks": 96,
            "midi": 31,
            "name": "G1",
            "ticks": 64944,
            "time": 70.9614675,
            "velocity": 0.3937007874015748
          },
          {
            "duration": 0.10489499999999907,
            "durationTicks": 96,
            "midi": 41,
            "name": "F2",
            "ticks": 64992,
            "time": 71.013915,
            "velocity": 0.3937007874015748
          },
          {
            "duration": 0.10489499999999907,
            "durationTicks": 96,
            "midi": 26,
            "name": "D1",
            "ticks": 64992,
            "time": 71.013915,
            "velocity": 0.3937007874015748
          },
          {
            "duration": 0.10489499999999907,
            "durationTicks": 96,
            "midi": 26,
            "name": "D1",
            "ticks": 64992,
            "time": 71.013915,
            "velocity": 0.3937007874015748
          },
          {
            "duration": 0.10489499999999907,
            "durationTicks": 96,
            "midi": 31,
            "name": "G1",
            "ticks": 64992,
            "time": 71.013915,
            "velocity": 0.3937007874015748
          },
          {
            "duration": 0.10489499999999907,
            "durationTicks": 96,
            "midi": 41,
            "name": "F2",
            "ticks": 64992,
            "time": 71.013915,
            "velocity": 0.3937007874015748
          },
          {
            "duration": 0.10489499999999907,
            "durationTicks": 96,
            "midi": 31,
            "name": "G1",
            "ticks": 64992,
            "time": 71.013915,
            "velocity": 0.3937007874015748
          },
          {
            "duration": 0.10489499999999907,
            "durationTicks": 96,
            "midi": 31,
            "name": "G1",
            "ticks": 64992,
            "time": 71.013915,
            "velocity": 0.3937007874015748
          },
          {
            "duration": 0.10489499999999907,
            "durationTicks": 96,
            "midi": 26,
            "name": "D1",
            "ticks": 64992,
            "time": 71.013915,
            "velocity": 0.3937007874015748
          },
          {
            "duration": 0.10489499999999907,
            "durationTicks": 96,
            "midi": 41,
            "name": "F2",
            "ticks": 64992,
            "time": 71.013915,
            "velocity": 0.3937007874015748
          },
          {
            "duration": 0.10489499999999907,
            "durationTicks": 96,
            "midi": 41,
            "name": "F2",
            "ticks": 65040,
            "time": 71.0663625,
            "velocity": 0.3937007874015748
          },
          {
            "duration": 0.10489499999999907,
            "durationTicks": 96,
            "midi": 31,
            "name": "G1",
            "ticks": 65040,
            "time": 71.0663625,
            "velocity": 0.3937007874015748
          },
          {
            "duration": 0.10489499999999907,
            "durationTicks": 96,
            "midi": 26,
            "name": "D1",
            "ticks": 65040,
            "time": 71.0663625,
            "velocity": 0.3937007874015748
          },
          {
            "duration": 0.10489499999999907,
            "durationTicks": 96,
            "midi": 41,
            "name": "F2",
            "ticks": 65040,
            "time": 71.0663625,
            "velocity": 0.3937007874015748
          },
          {
            "duration": 0.10489499999999907,
            "durationTicks": 96,
            "midi": 31,
            "name": "G1",
            "ticks": 65040,
            "time": 71.0663625,
            "velocity": 0.3937007874015748
          },
          {
            "duration": 0.10489499999999907,
            "durationTicks": 96,
            "midi": 26,
            "name": "D1",
            "ticks": 65040,
            "time": 71.0663625,
            "velocity": 0.3937007874015748
          },
          {
            "duration": 0.10489499999999907,
            "durationTicks": 96,
            "midi": 31,
            "name": "G1",
            "ticks": 65088,
            "time": 71.11881,
            "velocity": 0.3937007874015748
          },
          {
            "duration": 0.10489499999999907,
            "durationTicks": 96,
            "midi": 31,
            "name": "G1",
            "ticks": 65088,
            "time": 71.11881,
            "velocity": 0.3937007874015748
          },
          {
            "duration": 0.10489499999999907,
            "durationTicks": 96,
            "midi": 41,
            "name": "F2",
            "ticks": 65088,
            "time": 71.11881,
            "velocity": 0.3937007874015748
          },
          {
            "duration": 0.10489499999999907,
            "durationTicks": 96,
            "midi": 41,
            "name": "F2",
            "ticks": 65088,
            "time": 71.11881,
            "velocity": 0.3937007874015748
          },
          {
            "duration": 0.10489499999999907,
            "durationTicks": 96,
            "midi": 26,
            "name": "D1",
            "ticks": 65088,
            "time": 71.11881,
            "velocity": 0.3937007874015748
          },
          {
            "duration": 0.10489499999999907,
            "durationTicks": 96,
            "midi": 26,
            "name": "D1",
            "ticks": 65088,
            "time": 71.11881,
            "velocity": 0.3937007874015748
          },
          {
            "duration": 0.10489499999999907,
            "durationTicks": 96,
            "midi": 41,
            "name": "F2",
            "ticks": 65136,
            "time": 71.1712575,
            "velocity": 0.3937007874015748
          },
          {
            "duration": 0.10489499999999907,
            "durationTicks": 96,
            "midi": 26,
            "name": "D1",
            "ticks": 65136,
            "time": 71.1712575,
            "velocity": 0.3937007874015748
          },
          {
            "duration": 0.10489499999999907,
            "durationTicks": 96,
            "midi": 31,
            "name": "G1",
            "ticks": 65136,
            "time": 71.1712575,
            "velocity": 0.3937007874015748
          },
          {
            "duration": 0.10489499999999907,
            "durationTicks": 96,
            "midi": 26,
            "name": "D1",
            "ticks": 65136,
            "time": 71.1712575,
            "velocity": 0.3937007874015748
          },
          {
            "duration": 0.10489499999999907,
            "durationTicks": 96,
            "midi": 31,
            "name": "G1",
            "ticks": 65136,
            "time": 71.1712575,
            "velocity": 0.3937007874015748
          },
          {
            "duration": 0.10489499999999907,
            "durationTicks": 96,
            "midi": 41,
            "name": "F2",
            "ticks": 65136,
            "time": 71.1712575,
            "velocity": 0.3937007874015748
          },
          {
            "duration": 0.10489499999999907,
            "durationTicks": 96,
            "midi": 31,
            "name": "G1",
            "ticks": 65184,
            "time": 71.223705,
            "velocity": 0.3937007874015748
          },
          {
            "duration": 0.10489499999999907,
            "durationTicks": 96,
            "midi": 41,
            "name": "F2",
            "ticks": 65184,
            "time": 71.223705,
            "velocity": 0.3937007874015748
          },
          {
            "duration": 0.10489499999999907,
            "durationTicks": 96,
            "midi": 26,
            "name": "D1",
            "ticks": 65184,
            "time": 71.223705,
            "velocity": 0.3937007874015748
          },
          {
            "duration": 0.10489499999999907,
            "durationTicks": 96,
            "midi": 73,
            "name": "C#5",
            "ticks": 65184,
            "time": 71.223705,
            "velocity": 0.3937007874015748
          },
          {
            "duration": 0.10489500000001328,
            "durationTicks": 96,
            "midi": 26,
            "name": "D1",
            "ticks": 65232,
            "time": 71.2761525,
            "velocity": 0.3937007874015748
          },
          {
            "duration": 0.10489500000001328,
            "durationTicks": 96,
            "midi": 31,
            "name": "G1",
            "ticks": 65232,
            "time": 71.2761525,
            "velocity": 0.3937007874015748
          },
          {
            "duration": 0.10489500000001328,
            "durationTicks": 96,
            "midi": 41,
            "name": "F2",
            "ticks": 65232,
            "time": 71.2761525,
            "velocity": 0.3937007874015748
          },
          {
            "duration": 0.10489500000001328,
            "durationTicks": 96,
            "midi": 31,
            "name": "G1",
            "ticks": 65280,
            "time": 71.3286,
            "velocity": 0.3937007874015748
          },
          {
            "duration": 0.10489500000001328,
            "durationTicks": 96,
            "midi": 26,
            "name": "D1",
            "ticks": 65280,
            "time": 71.3286,
            "velocity": 0.3937007874015748
          },
          {
            "duration": 0.10489500000001328,
            "durationTicks": 96,
            "midi": 41,
            "name": "F2",
            "ticks": 65280,
            "time": 71.3286,
            "velocity": 0.3937007874015748
          },
          {
            "duration": 0.10489499999999907,
            "durationTicks": 96,
            "midi": 26,
            "name": "D1",
            "ticks": 65376,
            "time": 71.43349500000001,
            "velocity": 0.3937007874015748
          },
          {
            "duration": 0.10489499999999907,
            "durationTicks": 96,
            "midi": 73,
            "name": "C#5",
            "ticks": 65376,
            "time": 71.43349500000001,
            "velocity": 0.3937007874015748
          },
          {
            "duration": 0.10489499999999907,
            "durationTicks": 96,
            "midi": 31,
            "name": "G1",
            "ticks": 65376,
            "time": 71.43349500000001,
            "velocity": 0.3937007874015748
          },
          {
            "duration": 0.10489499999999907,
            "durationTicks": 96,
            "midi": 41,
            "name": "F2",
            "ticks": 65376,
            "time": 71.43349500000001,
            "velocity": 0.3937007874015748
          },
          {
            "duration": 0.10489499999999907,
            "durationTicks": 96,
            "midi": 31,
            "name": "G1",
            "ticks": 65472,
            "time": 71.53839,
            "velocity": 0.3937007874015748
          },
          {
            "duration": 0.10489499999999907,
            "durationTicks": 96,
            "midi": 26,
            "name": "D1",
            "ticks": 65472,
            "time": 71.53839,
            "velocity": 0.3937007874015748
          },
          {
            "duration": 0.10489499999999907,
            "durationTicks": 96,
            "midi": 41,
            "name": "F2",
            "ticks": 65472,
            "time": 71.53839,
            "velocity": 0.3937007874015748
          },
          {
            "duration": 0.10489499999999907,
            "durationTicks": 96,
            "midi": 73,
            "name": "C#5",
            "ticks": 65568,
            "time": 71.643285,
            "velocity": 0.3937007874015748
          },
          {
            "duration": 0.10489499999999907,
            "durationTicks": 96,
            "midi": 85,
            "name": "C#6",
            "ticks": 65760,
            "time": 71.853075,
            "velocity": 0.3937007874015748
          },
          {
            "duration": 0.10489499999999907,
            "durationTicks": 96,
            "midi": 73,
            "name": "C#5",
            "ticks": 65760,
            "time": 71.853075,
            "velocity": 0.3937007874015748
          },
          {
            "duration": 0.10489499999999907,
            "durationTicks": 96,
            "midi": 85,
            "name": "C#6",
            "ticks": 65952,
            "time": 72.062865,
            "velocity": 0.3937007874015748
          },
          {
            "duration": 0.10489499999999907,
            "durationTicks": 96,
            "midi": 32,
            "name": "G#1",
            "ticks": 66048,
            "time": 72.16776,
            "velocity": 0.3937007874015748
          },
          {
            "duration": 0.10489499999999907,
            "durationTicks": 96,
            "midi": 27,
            "name": "D#1",
            "ticks": 66048,
            "time": 72.16776,
            "velocity": 0.3937007874015748
          },
          {
            "duration": 0.10489499999999907,
            "durationTicks": 96,
            "midi": 41,
            "name": "F2",
            "ticks": 66048,
            "time": 72.16776,
            "velocity": 0.3937007874015748
          },
          {
            "duration": 0.10489499999999907,
            "durationTicks": 96,
            "midi": 41,
            "name": "F2",
            "ticks": 66144,
            "time": 72.272655,
            "velocity": 0.3937007874015748
          },
          {
            "duration": 0.10489499999999907,
            "durationTicks": 96,
            "midi": 32,
            "name": "G#1",
            "ticks": 66144,
            "time": 72.272655,
            "velocity": 0.3937007874015748
          },
          {
            "duration": 0.10489499999999907,
            "durationTicks": 96,
            "midi": 85,
            "name": "C#6",
            "ticks": 66144,
            "time": 72.272655,
            "velocity": 0.3937007874015748
          },
          {
            "duration": 0.10489499999999907,
            "durationTicks": 96,
            "midi": 41,
            "name": "F2",
            "ticks": 66144,
            "time": 72.272655,
            "velocity": 0.3937007874015748
          },
          {
            "duration": 0.10489499999999907,
            "durationTicks": 96,
            "midi": 27,
            "name": "D#1",
            "ticks": 66144,
            "time": 72.272655,
            "velocity": 0.3937007874015748
          },
          {
            "duration": 0.10489499999999907,
            "durationTicks": 96,
            "midi": 27,
            "name": "D#1",
            "ticks": 66144,
            "time": 72.272655,
            "velocity": 0.3937007874015748
          },
          {
            "duration": 0.10489499999999907,
            "durationTicks": 96,
            "midi": 32,
            "name": "G#1",
            "ticks": 66144,
            "time": 72.272655,
            "velocity": 0.3937007874015748
          },
          {
            "duration": 0.10489499999999907,
            "durationTicks": 96,
            "midi": 27,
            "name": "D#1",
            "ticks": 66240,
            "time": 72.37755,
            "velocity": 0.3937007874015748
          },
          {
            "duration": 0.10489499999999907,
            "durationTicks": 96,
            "midi": 41,
            "name": "F2",
            "ticks": 66240,
            "time": 72.37755,
            "velocity": 0.3937007874015748
          },
          {
            "duration": 0.10489499999999907,
            "durationTicks": 96,
            "midi": 32,
            "name": "G#1",
            "ticks": 66240,
            "time": 72.37755,
            "velocity": 0.3937007874015748
          },
          {
            "duration": 0.10489499999999907,
            "durationTicks": 96,
            "midi": 27,
            "name": "D#1",
            "ticks": 66240,
            "time": 72.37755,
            "velocity": 0.3937007874015748
          },
          {
            "duration": 0.10489499999999907,
            "durationTicks": 96,
            "midi": 27,
            "name": "D#1",
            "ticks": 66240,
            "time": 72.37755,
            "velocity": 0.3937007874015748
          },
          {
            "duration": 0.10489499999999907,
            "durationTicks": 96,
            "midi": 32,
            "name": "G#1",
            "ticks": 66240,
            "time": 72.37755,
            "velocity": 0.3937007874015748
          },
          {
            "duration": 0.10489499999999907,
            "durationTicks": 96,
            "midi": 41,
            "name": "F2",
            "ticks": 66240,
            "time": 72.37755,
            "velocity": 0.3937007874015748
          },
          {
            "duration": 0.10489499999999907,
            "durationTicks": 96,
            "midi": 41,
            "name": "F2",
            "ticks": 66240,
            "time": 72.37755,
            "velocity": 0.3937007874015748
          },
          {
            "duration": 0.10489499999999907,
            "durationTicks": 96,
            "midi": 32,
            "name": "G#1",
            "ticks": 66240,
            "time": 72.37755,
            "velocity": 0.3937007874015748
          },
          {
            "duration": 0.10489499999999907,
            "durationTicks": 96,
            "midi": 41,
            "name": "F2",
            "ticks": 66336,
            "time": 72.482445,
            "velocity": 0.3937007874015748
          },
          {
            "duration": 0.10489499999999907,
            "durationTicks": 96,
            "midi": 32,
            "name": "G#1",
            "ticks": 66336,
            "time": 72.482445,
            "velocity": 0.3937007874015748
          },
          {
            "duration": 0.10489499999999907,
            "durationTicks": 96,
            "midi": 27,
            "name": "D#1",
            "ticks": 66336,
            "time": 72.482445,
            "velocity": 0.3937007874015748
          },
          {
            "duration": 0.10489499999999907,
            "durationTicks": 96,
            "midi": 85,
            "name": "C#6",
            "ticks": 66336,
            "time": 72.482445,
            "velocity": 0.3937007874015748
          },
          {
            "duration": 0.10489499999999907,
            "durationTicks": 96,
            "midi": 27,
            "name": "D#1",
            "ticks": 66336,
            "time": 72.482445,
            "velocity": 0.3937007874015748
          },
          {
            "duration": 0.10489499999999907,
            "durationTicks": 96,
            "midi": 41,
            "name": "F2",
            "ticks": 66336,
            "time": 72.482445,
            "velocity": 0.3937007874015748
          },
          {
            "duration": 0.10489499999999907,
            "durationTicks": 96,
            "midi": 32,
            "name": "G#1",
            "ticks": 66336,
            "time": 72.482445,
            "velocity": 0.3937007874015748
          },
          {
            "duration": 0.10489499999999907,
            "durationTicks": 96,
            "midi": 32,
            "name": "G#1",
            "ticks": 66336,
            "time": 72.482445,
            "velocity": 0.3937007874015748
          },
          {
            "duration": 0.10489499999999907,
            "durationTicks": 96,
            "midi": 41,
            "name": "F2",
            "ticks": 66336,
            "time": 72.482445,
            "velocity": 0.3937007874015748
          },
          {
            "duration": 0.10489499999999907,
            "durationTicks": 96,
            "midi": 27,
            "name": "D#1",
            "ticks": 66336,
            "time": 72.482445,
            "velocity": 0.3937007874015748
          },
          {
            "duration": 0.10489499999999907,
            "durationTicks": 96,
            "midi": 27,
            "name": "D#1",
            "ticks": 66432,
            "time": 72.58734,
            "velocity": 0.3937007874015748
          },
          {
            "duration": 0.10489499999999907,
            "durationTicks": 96,
            "midi": 32,
            "name": "G#1",
            "ticks": 66432,
            "time": 72.58734,
            "velocity": 0.3937007874015748
          },
          {
            "duration": 0.10489499999999907,
            "durationTicks": 96,
            "midi": 41,
            "name": "F2",
            "ticks": 66432,
            "time": 72.58734,
            "velocity": 0.3937007874015748
          },
          {
            "duration": 0.10489499999999907,
            "durationTicks": 96,
            "midi": 32,
            "name": "G#1",
            "ticks": 66432,
            "time": 72.58734,
            "velocity": 0.3937007874015748
          },
          {
            "duration": 0.10489499999999907,
            "durationTicks": 96,
            "midi": 27,
            "name": "D#1",
            "ticks": 66432,
            "time": 72.58734,
            "velocity": 0.3937007874015748
          },
          {
            "duration": 0.10489499999999907,
            "durationTicks": 96,
            "midi": 32,
            "name": "G#1",
            "ticks": 66432,
            "time": 72.58734,
            "velocity": 0.3937007874015748
          },
          {
            "duration": 0.10489499999999907,
            "durationTicks": 96,
            "midi": 27,
            "name": "D#1",
            "ticks": 66432,
            "time": 72.58734,
            "velocity": 0.3937007874015748
          },
          {
            "duration": 0.10489499999999907,
            "durationTicks": 96,
            "midi": 41,
            "name": "F2",
            "ticks": 66432,
            "time": 72.58734,
            "velocity": 0.3937007874015748
          },
          {
            "duration": 0.10489499999999907,
            "durationTicks": 96,
            "midi": 41,
            "name": "F2",
            "ticks": 66432,
            "time": 72.58734,
            "velocity": 0.3937007874015748
          },
          {
            "duration": 0.10489499999999907,
            "durationTicks": 96,
            "midi": 32,
            "name": "G#1",
            "ticks": 66480,
            "time": 72.6397875,
            "velocity": 0.3937007874015748
          },
          {
            "duration": 0.10489499999999907,
            "durationTicks": 96,
            "midi": 27,
            "name": "D#1",
            "ticks": 66480,
            "time": 72.6397875,
            "velocity": 0.3937007874015748
          },
          {
            "duration": 0.10489499999999907,
            "durationTicks": 96,
            "midi": 41,
            "name": "F2",
            "ticks": 66480,
            "time": 72.6397875,
            "velocity": 0.3937007874015748
          },
          {
            "duration": 0.10489499999999907,
            "durationTicks": 96,
            "midi": 27,
            "name": "D#1",
            "ticks": 66528,
            "time": 72.692235,
            "velocity": 0.3937007874015748
          },
          {
            "duration": 0.10489499999999907,
            "durationTicks": 96,
            "midi": 41,
            "name": "F2",
            "ticks": 66528,
            "time": 72.692235,
            "velocity": 0.3937007874015748
          },
          {
            "duration": 0.10489499999999907,
            "durationTicks": 96,
            "midi": 41,
            "name": "F2",
            "ticks": 66528,
            "time": 72.692235,
            "velocity": 0.3937007874015748
          },
          {
            "duration": 0.10489499999999907,
            "durationTicks": 96,
            "midi": 32,
            "name": "G#1",
            "ticks": 66528,
            "time": 72.692235,
            "velocity": 0.3937007874015748
          },
          {
            "duration": 0.10489499999999907,
            "durationTicks": 96,
            "midi": 27,
            "name": "D#1",
            "ticks": 66528,
            "time": 72.692235,
            "velocity": 0.3937007874015748
          },
          {
            "duration": 0.10489499999999907,
            "durationTicks": 96,
            "midi": 41,
            "name": "F2",
            "ticks": 66528,
            "time": 72.692235,
            "velocity": 0.3937007874015748
          },
          {
            "duration": 0.10489499999999907,
            "durationTicks": 96,
            "midi": 32,
            "name": "G#1",
            "ticks": 66528,
            "time": 72.692235,
            "velocity": 0.3937007874015748
          },
          {
            "duration": 0.10489499999999907,
            "durationTicks": 96,
            "midi": 27,
            "name": "D#1",
            "ticks": 66528,
            "time": 72.692235,
            "velocity": 0.3937007874015748
          },
          {
            "duration": 0.10489499999999907,
            "durationTicks": 96,
            "midi": 32,
            "name": "G#1",
            "ticks": 66528,
            "time": 72.692235,
            "velocity": 0.3937007874015748
          },
          {
            "duration": 0.10489499999999907,
            "durationTicks": 96,
            "midi": 41,
            "name": "F2",
            "ticks": 66576,
            "time": 72.7446825,
            "velocity": 0.3937007874015748
          },
          {
            "duration": 0.10489499999999907,
            "durationTicks": 96,
            "midi": 41,
            "name": "F2",
            "ticks": 66576,
            "time": 72.7446825,
            "velocity": 0.3937007874015748
          },
          {
            "duration": 0.10489499999999907,
            "durationTicks": 96,
            "midi": 32,
            "name": "G#1",
            "ticks": 66576,
            "time": 72.7446825,
            "velocity": 0.3937007874015748
          },
          {
            "duration": 0.10489499999999907,
            "durationTicks": 96,
            "midi": 27,
            "name": "D#1",
            "ticks": 66576,
            "time": 72.7446825,
            "velocity": 0.3937007874015748
          },
          {
            "duration": 0.10489499999999907,
            "durationTicks": 96,
            "midi": 27,
            "name": "D#1",
            "ticks": 66576,
            "time": 72.7446825,
            "velocity": 0.3937007874015748
          },
          {
            "duration": 0.10489499999999907,
            "durationTicks": 96,
            "midi": 32,
            "name": "G#1",
            "ticks": 66576,
            "time": 72.7446825,
            "velocity": 0.3937007874015748
          },
          {
            "duration": 0.10489499999999907,
            "durationTicks": 96,
            "midi": 32,
            "name": "G#1",
            "ticks": 66624,
            "time": 72.79713,
            "velocity": 0.3937007874015748
          },
          {
            "duration": 0.10489499999999907,
            "durationTicks": 96,
            "midi": 41,
            "name": "F2",
            "ticks": 66624,
            "time": 72.79713,
            "velocity": 0.3937007874015748
          },
          {
            "duration": 0.10489499999999907,
            "durationTicks": 96,
            "midi": 27,
            "name": "D#1",
            "ticks": 66624,
            "time": 72.79713,
            "velocity": 0.3937007874015748
          },
          {
            "duration": 0.10489499999999907,
            "durationTicks": 96,
            "midi": 41,
            "name": "F2",
            "ticks": 66624,
            "time": 72.79713,
            "velocity": 0.3937007874015748
          },
          {
            "duration": 0.10489499999999907,
            "durationTicks": 96,
            "midi": 27,
            "name": "D#1",
            "ticks": 66624,
            "time": 72.79713,
            "velocity": 0.3937007874015748
          },
          {
            "duration": 0.10489499999999907,
            "durationTicks": 96,
            "midi": 32,
            "name": "G#1",
            "ticks": 66624,
            "time": 72.79713,
            "velocity": 0.3937007874015748
          },
          {
            "duration": 0.10489500000001328,
            "durationTicks": 96,
            "midi": 41,
            "name": "F2",
            "ticks": 66672,
            "time": 72.8495775,
            "velocity": 0.3937007874015748
          },
          {
            "duration": 0.10489500000001328,
            "durationTicks": 96,
            "midi": 41,
            "name": "F2",
            "ticks": 66672,
            "time": 72.8495775,
            "velocity": 0.3937007874015748
          },
          {
            "duration": 0.10489500000001328,
            "durationTicks": 96,
            "midi": 27,
            "name": "D#1",
            "ticks": 66672,
            "time": 72.8495775,
            "velocity": 0.3937007874015748
          },
          {
            "duration": 0.10489500000001328,
            "durationTicks": 96,
            "midi": 32,
            "name": "G#1",
            "ticks": 66672,
            "time": 72.8495775,
            "velocity": 0.3937007874015748
          },
          {
            "duration": 0.10489500000001328,
            "durationTicks": 96,
            "midi": 32,
            "name": "G#1",
            "ticks": 66672,
            "time": 72.8495775,
            "velocity": 0.3937007874015748
          },
          {
            "duration": 0.10489500000001328,
            "durationTicks": 96,
            "midi": 27,
            "name": "D#1",
            "ticks": 66672,
            "time": 72.8495775,
            "velocity": 0.3937007874015748
          },
          {
            "duration": 0.10489500000001328,
            "durationTicks": 96,
            "midi": 74,
            "name": "D5",
            "ticks": 66720,
            "time": 72.902025,
            "velocity": 0.3937007874015748
          },
          {
            "duration": 0.10489500000001328,
            "durationTicks": 96,
            "midi": 32,
            "name": "G#1",
            "ticks": 66720,
            "time": 72.902025,
            "velocity": 0.3937007874015748
          },
          {
            "duration": 0.10489500000001328,
            "durationTicks": 96,
            "midi": 27,
            "name": "D#1",
            "ticks": 66720,
            "time": 72.902025,
            "velocity": 0.3937007874015748
          },
          {
            "duration": 0.10489500000001328,
            "durationTicks": 96,
            "midi": 41,
            "name": "F2",
            "ticks": 66720,
            "time": 72.902025,
            "velocity": 0.3937007874015748
          },
          {
            "duration": 0.10489499999999907,
            "durationTicks": 96,
            "midi": 32,
            "name": "G#1",
            "ticks": 66768,
            "time": 72.95447250000001,
            "velocity": 0.3937007874015748
          },
          {
            "duration": 0.10489499999999907,
            "durationTicks": 96,
            "midi": 41,
            "name": "F2",
            "ticks": 66768,
            "time": 72.95447250000001,
            "velocity": 0.3937007874015748
          },
          {
            "duration": 0.10489499999999907,
            "durationTicks": 96,
            "midi": 27,
            "name": "D#1",
            "ticks": 66768,
            "time": 72.95447250000001,
            "velocity": 0.3937007874015748
          },
          {
            "duration": 0.10489499999999907,
            "durationTicks": 96,
            "midi": 27,
            "name": "D#1",
            "ticks": 66816,
            "time": 73.00692000000001,
            "velocity": 0.3937007874015748
          },
          {
            "duration": 0.10489499999999907,
            "durationTicks": 96,
            "midi": 41,
            "name": "F2",
            "ticks": 66816,
            "time": 73.00692000000001,
            "velocity": 0.3937007874015748
          },
          {
            "duration": 0.10489499999999907,
            "durationTicks": 96,
            "midi": 32,
            "name": "G#1",
            "ticks": 66816,
            "time": 73.00692000000001,
            "velocity": 0.3937007874015748
          },
          {
            "duration": 0.10489499999999907,
            "durationTicks": 96,
            "midi": 41,
            "name": "F2",
            "ticks": 66912,
            "time": 73.111815,
            "velocity": 0.3937007874015748
          },
          {
            "duration": 0.10489499999999907,
            "durationTicks": 96,
            "midi": 74,
            "name": "D5",
            "ticks": 66912,
            "time": 73.111815,
            "velocity": 0.3937007874015748
          },
          {
            "duration": 0.10489499999999907,
            "durationTicks": 96,
            "midi": 27,
            "name": "D#1",
            "ticks": 66912,
            "time": 73.111815,
            "velocity": 0.3937007874015748
          },
          {
            "duration": 0.10489499999999907,
            "durationTicks": 96,
            "midi": 32,
            "name": "G#1",
            "ticks": 66912,
            "time": 73.111815,
            "velocity": 0.3937007874015748
          },
          {
            "duration": 0.10489499999999907,
            "durationTicks": 96,
            "midi": 41,
            "name": "F2",
            "ticks": 67008,
            "time": 73.21671,
            "velocity": 0.3937007874015748
          },
          {
            "duration": 0.10489499999999907,
            "durationTicks": 96,
            "midi": 27,
            "name": "D#1",
            "ticks": 67008,
            "time": 73.21671,
            "velocity": 0.3937007874015748
          },
          {
            "duration": 0.10489499999999907,
            "durationTicks": 96,
            "midi": 32,
            "name": "G#1",
            "ticks": 67008,
            "time": 73.21671,
            "velocity": 0.3937007874015748
          },
          {
            "duration": 0.10489499999999907,
            "durationTicks": 96,
            "midi": 74,
            "name": "D5",
            "ticks": 67104,
            "time": 73.321605,
            "velocity": 0.3937007874015748
          },
          {
            "duration": 0.10489499999999907,
            "durationTicks": 96,
            "midi": 86,
            "name": "D6",
            "ticks": 67296,
            "time": 73.531395,
            "velocity": 0.3937007874015748
          },
          {
            "duration": 0.10489499999999907,
            "durationTicks": 96,
            "midi": 74,
            "name": "D5",
            "ticks": 67296,
            "time": 73.531395,
            "velocity": 0.3937007874015748
          },
          {
            "duration": 0.10489499999999907,
            "durationTicks": 96,
            "midi": 86,
            "name": "D6",
            "ticks": 67488,
            "time": 73.741185,
            "velocity": 0.3937007874015748
          },
          {
            "duration": 0.10489499999999907,
            "durationTicks": 96,
            "midi": 41,
            "name": "F2",
            "ticks": 67584,
            "time": 73.84608,
            "velocity": 0.3937007874015748
          },
          {
            "duration": 0.10489499999999907,
            "durationTicks": 96,
            "midi": 26,
            "name": "D1",
            "ticks": 67584,
            "time": 73.84608,
            "velocity": 0.3937007874015748
          },
          {
            "duration": 0.10489499999999907,
            "durationTicks": 96,
            "midi": 31,
            "name": "G1",
            "ticks": 67584,
            "time": 73.84608,
            "velocity": 0.3937007874015748
          },
          {
            "duration": 0.10489499999999907,
            "durationTicks": 96,
            "midi": 31,
            "name": "G1",
            "ticks": 67680,
            "time": 73.950975,
            "velocity": 0.3937007874015748
          },
          {
            "duration": 0.10489499999999907,
            "durationTicks": 96,
            "midi": 26,
            "name": "D1",
            "ticks": 67680,
            "time": 73.950975,
            "velocity": 0.3937007874015748
          },
          {
            "duration": 0.10489499999999907,
            "durationTicks": 96,
            "midi": 26,
            "name": "D1",
            "ticks": 67680,
            "time": 73.950975,
            "velocity": 0.3937007874015748
          },
          {
            "duration": 0.10489499999999907,
            "durationTicks": 96,
            "midi": 41,
            "name": "F2",
            "ticks": 67680,
            "time": 73.950975,
            "velocity": 0.3937007874015748
          },
          {
            "duration": 0.10489499999999907,
            "durationTicks": 96,
            "midi": 86,
            "name": "D6",
            "ticks": 67680,
            "time": 73.950975,
            "velocity": 0.3937007874015748
          },
          {
            "duration": 0.10489499999999907,
            "durationTicks": 96,
            "midi": 31,
            "name": "G1",
            "ticks": 67680,
            "time": 73.950975,
            "velocity": 0.3937007874015748
          },
          {
            "duration": 0.10489499999999907,
            "durationTicks": 96,
            "midi": 41,
            "name": "F2",
            "ticks": 67680,
            "time": 73.950975,
            "velocity": 0.3937007874015748
          },
          {
            "duration": 0.10489499999999907,
            "durationTicks": 96,
            "midi": 26,
            "name": "D1",
            "ticks": 67776,
            "time": 74.05587,
            "velocity": 0.3937007874015748
          },
          {
            "duration": 0.10489499999999907,
            "durationTicks": 96,
            "midi": 41,
            "name": "F2",
            "ticks": 67776,
            "time": 74.05587,
            "velocity": 0.3937007874015748
          },
          {
            "duration": 0.10489499999999907,
            "durationTicks": 96,
            "midi": 31,
            "name": "G1",
            "ticks": 67776,
            "time": 74.05587,
            "velocity": 0.3937007874015748
          },
          {
            "duration": 0.10489499999999907,
            "durationTicks": 96,
            "midi": 41,
            "name": "F2",
            "ticks": 67776,
            "time": 74.05587,
            "velocity": 0.3937007874015748
          },
          {
            "duration": 0.10489499999999907,
            "durationTicks": 96,
            "midi": 31,
            "name": "G1",
            "ticks": 67776,
            "time": 74.05587,
            "velocity": 0.3937007874015748
          },
          {
            "duration": 0.10489499999999907,
            "durationTicks": 96,
            "midi": 26,
            "name": "D1",
            "ticks": 67776,
            "time": 74.05587,
            "velocity": 0.3937007874015748
          },
          {
            "duration": 0.10489499999999907,
            "durationTicks": 96,
            "midi": 31,
            "name": "G1",
            "ticks": 67776,
            "time": 74.05587,
            "velocity": 0.3937007874015748
          },
          {
            "duration": 0.10489499999999907,
            "durationTicks": 96,
            "midi": 41,
            "name": "F2",
            "ticks": 67776,
            "time": 74.05587,
            "velocity": 0.3937007874015748
          },
          {
            "duration": 0.10489499999999907,
            "durationTicks": 96,
            "midi": 26,
            "name": "D1",
            "ticks": 67776,
            "time": 74.05587,
            "velocity": 0.3937007874015748
          },
          {
            "duration": 0.10489499999999907,
            "durationTicks": 96,
            "midi": 31,
            "name": "G1",
            "ticks": 67872,
            "time": 74.160765,
            "velocity": 0.3937007874015748
          },
          {
            "duration": 0.10489499999999907,
            "durationTicks": 96,
            "midi": 41,
            "name": "F2",
            "ticks": 67872,
            "time": 74.160765,
            "velocity": 0.3937007874015748
          },
          {
            "duration": 0.10489499999999907,
            "durationTicks": 96,
            "midi": 41,
            "name": "F2",
            "ticks": 67872,
            "time": 74.160765,
            "velocity": 0.3937007874015748
          },
          {
            "duration": 0.10489499999999907,
            "durationTicks": 96,
            "midi": 26,
            "name": "D1",
            "ticks": 67872,
            "time": 74.160765,
            "velocity": 0.3937007874015748
          },
          {
            "duration": 0.10489499999999907,
            "durationTicks": 96,
            "midi": 31,
            "name": "G1",
            "ticks": 67872,
            "time": 74.160765,
            "velocity": 0.3937007874015748
          },
          {
            "duration": 0.10489499999999907,
            "durationTicks": 96,
            "midi": 41,
            "name": "F2",
            "ticks": 67872,
            "time": 74.160765,
            "velocity": 0.3937007874015748
          },
          {
            "duration": 0.10489499999999907,
            "durationTicks": 96,
            "midi": 26,
            "name": "D1",
            "ticks": 67872,
            "time": 74.160765,
            "velocity": 0.3937007874015748
          },
          {
            "duration": 0.10489499999999907,
            "durationTicks": 96,
            "midi": 86,
            "name": "D6",
            "ticks": 67872,
            "time": 74.160765,
            "velocity": 0.3937007874015748
          },
          {
            "duration": 0.10489499999999907,
            "durationTicks": 96,
            "midi": 26,
            "name": "D1",
            "ticks": 67872,
            "time": 74.160765,
            "velocity": 0.3937007874015748
          },
          {
            "duration": 0.10489499999999907,
            "durationTicks": 96,
            "midi": 31,
            "name": "G1",
            "ticks": 67872,
            "time": 74.160765,
            "velocity": 0.3937007874015748
          },
          {
            "duration": 0.10489499999999907,
            "durationTicks": 96,
            "midi": 31,
            "name": "G1",
            "ticks": 67968,
            "time": 74.26566,
            "velocity": 0.3937007874015748
          },
          {
            "duration": 0.10489499999999907,
            "durationTicks": 96,
            "midi": 41,
            "name": "F2",
            "ticks": 67968,
            "time": 74.26566,
            "velocity": 0.3937007874015748
          },
          {
            "duration": 0.10489499999999907,
            "durationTicks": 96,
            "midi": 26,
            "name": "D1",
            "ticks": 67968,
            "time": 74.26566,
            "velocity": 0.3937007874015748
          },
          {
            "duration": 0.10489499999999907,
            "durationTicks": 96,
            "midi": 41,
            "name": "F2",
            "ticks": 67968,
            "time": 74.26566,
            "velocity": 0.3937007874015748
          },
          {
            "duration": 0.10489499999999907,
            "durationTicks": 96,
            "midi": 31,
            "name": "G1",
            "ticks": 67968,
            "time": 74.26566,
            "velocity": 0.3937007874015748
          },
          {
            "duration": 0.10489499999999907,
            "durationTicks": 96,
            "midi": 26,
            "name": "D1",
            "ticks": 67968,
            "time": 74.26566,
            "velocity": 0.3937007874015748
          },
          {
            "duration": 0.10489499999999907,
            "durationTicks": 96,
            "midi": 31,
            "name": "G1",
            "ticks": 67968,
            "time": 74.26566,
            "velocity": 0.3937007874015748
          },
          {
            "duration": 0.10489499999999907,
            "durationTicks": 96,
            "midi": 41,
            "name": "F2",
            "ticks": 67968,
            "time": 74.26566,
            "velocity": 0.3937007874015748
          },
          {
            "duration": 0.10489499999999907,
            "durationTicks": 96,
            "midi": 26,
            "name": "D1",
            "ticks": 67968,
            "time": 74.26566,
            "velocity": 0.3937007874015748
          },
          {
            "duration": 0.10489499999999907,
            "durationTicks": 96,
            "midi": 26,
            "name": "D1",
            "ticks": 68016,
            "time": 74.3181075,
            "velocity": 0.3937007874015748
          },
          {
            "duration": 0.10489499999999907,
            "durationTicks": 96,
            "midi": 41,
            "name": "F2",
            "ticks": 68016,
            "time": 74.3181075,
            "velocity": 0.3937007874015748
          },
          {
            "duration": 0.10489499999999907,
            "durationTicks": 96,
            "midi": 31,
            "name": "G1",
            "ticks": 68016,
            "time": 74.3181075,
            "velocity": 0.3937007874015748
          },
          {
            "duration": 0.10489499999999907,
            "durationTicks": 96,
            "midi": 26,
            "name": "D1",
            "ticks": 68064,
            "time": 74.370555,
            "velocity": 0.3937007874015748
          },
          {
            "duration": 0.10489499999999907,
            "durationTicks": 96,
            "midi": 41,
            "name": "F2",
            "ticks": 68064,
            "time": 74.370555,
            "velocity": 0.3937007874015748
          },
          {
            "duration": 0.10489499999999907,
            "durationTicks": 96,
            "midi": 26,
            "name": "D1",
            "ticks": 68064,
            "time": 74.370555,
            "velocity": 0.3937007874015748
          },
          {
            "duration": 0.10489499999999907,
            "durationTicks": 96,
            "midi": 31,
            "name": "G1",
            "ticks": 68064,
            "time": 74.370555,
            "velocity": 0.3937007874015748
          },
          {
            "duration": 0.10489499999999907,
            "durationTicks": 96,
            "midi": 41,
            "name": "F2",
            "ticks": 68064,
            "time": 74.370555,
            "velocity": 0.3937007874015748
          },
          {
            "duration": 0.10489499999999907,
            "durationTicks": 96,
            "midi": 26,
            "name": "D1",
            "ticks": 68064,
            "time": 74.370555,
            "velocity": 0.3937007874015748
          },
          {
            "duration": 0.10489499999999907,
            "durationTicks": 96,
            "midi": 41,
            "name": "F2",
            "ticks": 68064,
            "time": 74.370555,
            "velocity": 0.3937007874015748
          },
          {
            "duration": 0.10489499999999907,
            "durationTicks": 96,
            "midi": 31,
            "name": "G1",
            "ticks": 68064,
            "time": 74.370555,
            "velocity": 0.3937007874015748
          },
          {
            "duration": 0.10489499999999907,
            "durationTicks": 96,
            "midi": 31,
            "name": "G1",
            "ticks": 68064,
            "time": 74.370555,
            "velocity": 0.3937007874015748
          },
          {
            "duration": 0.10489499999999907,
            "durationTicks": 96,
            "midi": 26,
            "name": "D1",
            "ticks": 68112,
            "time": 74.4230025,
            "velocity": 0.3937007874015748
          },
          {
            "duration": 0.10489499999999907,
            "durationTicks": 96,
            "midi": 26,
            "name": "D1",
            "ticks": 68112,
            "time": 74.4230025,
            "velocity": 0.3937007874015748
          },
          {
            "duration": 0.10489499999999907,
            "durationTicks": 96,
            "midi": 41,
            "name": "F2",
            "ticks": 68112,
            "time": 74.4230025,
            "velocity": 0.3937007874015748
          },
          {
            "duration": 0.10489499999999907,
            "durationTicks": 96,
            "midi": 31,
            "name": "G1",
            "ticks": 68112,
            "time": 74.4230025,
            "velocity": 0.3937007874015748
          },
          {
            "duration": 0.10489499999999907,
            "durationTicks": 96,
            "midi": 41,
            "name": "F2",
            "ticks": 68112,
            "time": 74.4230025,
            "velocity": 0.3937007874015748
          },
          {
            "duration": 0.10489499999999907,
            "durationTicks": 96,
            "midi": 31,
            "name": "G1",
            "ticks": 68112,
            "time": 74.4230025,
            "velocity": 0.3937007874015748
          },
          {
            "duration": 0.10489500000001328,
            "durationTicks": 96,
            "midi": 31,
            "name": "G1",
            "ticks": 68160,
            "time": 74.47545,
            "velocity": 0.3937007874015748
          },
          {
            "duration": 0.10489500000001328,
            "durationTicks": 96,
            "midi": 26,
            "name": "D1",
            "ticks": 68160,
            "time": 74.47545,
            "velocity": 0.3937007874015748
          },
          {
            "duration": 0.10489500000001328,
            "durationTicks": 96,
            "midi": 41,
            "name": "F2",
            "ticks": 68160,
            "time": 74.47545,
            "velocity": 0.3937007874015748
          },
          {
            "duration": 0.10489500000001328,
            "durationTicks": 96,
            "midi": 31,
            "name": "G1",
            "ticks": 68160,
            "time": 74.47545,
            "velocity": 0.3937007874015748
          },
          {
            "duration": 0.10489500000001328,
            "durationTicks": 96,
            "midi": 41,
            "name": "F2",
            "ticks": 68160,
            "time": 74.47545,
            "velocity": 0.3937007874015748
          },
          {
            "duration": 0.10489500000001328,
            "durationTicks": 96,
            "midi": 26,
            "name": "D1",
            "ticks": 68160,
            "time": 74.47545,
            "velocity": 0.3937007874015748
          },
          {
            "duration": 0.10489500000001328,
            "durationTicks": 96,
            "midi": 26,
            "name": "D1",
            "ticks": 68208,
            "time": 74.5278975,
            "velocity": 0.3937007874015748
          },
          {
            "duration": 0.10489500000001328,
            "durationTicks": 96,
            "midi": 31,
            "name": "G1",
            "ticks": 68208,
            "time": 74.5278975,
            "velocity": 0.3937007874015748
          },
          {
            "duration": 0.10489500000001328,
            "durationTicks": 96,
            "midi": 41,
            "name": "F2",
            "ticks": 68208,
            "time": 74.5278975,
            "velocity": 0.3937007874015748
          },
          {
            "duration": 0.10489500000001328,
            "durationTicks": 96,
            "midi": 31,
            "name": "G1",
            "ticks": 68208,
            "time": 74.5278975,
            "velocity": 0.3937007874015748
          },
          {
            "duration": 0.10489500000001328,
            "durationTicks": 96,
            "midi": 41,
            "name": "F2",
            "ticks": 68208,
            "time": 74.5278975,
            "velocity": 0.3937007874015748
          },
          {
            "duration": 0.10489500000001328,
            "durationTicks": 96,
            "midi": 26,
            "name": "D1",
            "ticks": 68208,
            "time": 74.5278975,
            "velocity": 0.3937007874015748
          },
          {
            "duration": 0.10489499999999907,
            "durationTicks": 96,
            "midi": 26,
            "name": "D1",
            "ticks": 68256,
            "time": 74.58034500000001,
            "velocity": 0.3937007874015748
          },
          {
            "duration": 0.10489499999999907,
            "durationTicks": 96,
            "midi": 31,
            "name": "G1",
            "ticks": 68256,
            "time": 74.58034500000001,
            "velocity": 0.3937007874015748
          },
          {
            "duration": 0.10489499999999907,
            "durationTicks": 96,
            "midi": 73,
            "name": "C#5",
            "ticks": 68256,
            "time": 74.58034500000001,
            "velocity": 0.3937007874015748
          },
          {
            "duration": 0.10489499999999907,
            "durationTicks": 96,
            "midi": 41,
            "name": "F2",
            "ticks": 68256,
            "time": 74.58034500000001,
            "velocity": 0.3937007874015748
          },
          {
            "duration": 0.10489499999999907,
            "durationTicks": 96,
            "midi": 26,
            "name": "D1",
            "ticks": 68304,
            "time": 74.63279250000001,
            "velocity": 0.3937007874015748
          },
          {
            "duration": 0.10489499999999907,
            "durationTicks": 96,
            "midi": 41,
            "name": "F2",
            "ticks": 68304,
            "time": 74.63279250000001,
            "velocity": 0.3937007874015748
          },
          {
            "duration": 0.10489499999999907,
            "durationTicks": 96,
            "midi": 31,
            "name": "G1",
            "ticks": 68304,
            "time": 74.63279250000001,
            "velocity": 0.3937007874015748
          },
          {
            "duration": 0.10489499999999907,
            "durationTicks": 96,
            "midi": 26,
            "name": "D1",
            "ticks": 68352,
            "time": 74.68524000000001,
            "velocity": 0.3937007874015748
          },
          {
            "duration": 0.10489499999999907,
            "durationTicks": 96,
            "midi": 41,
            "name": "F2",
            "ticks": 68352,
            "time": 74.68524000000001,
            "velocity": 0.3937007874015748
          },
          {
            "duration": 0.10489499999999907,
            "durationTicks": 96,
            "midi": 31,
            "name": "G1",
            "ticks": 68352,
            "time": 74.68524000000001,
            "velocity": 0.3937007874015748
          },
          {
            "duration": 0.10489499999999907,
            "durationTicks": 96,
            "midi": 26,
            "name": "D1",
            "ticks": 68448,
            "time": 74.790135,
            "velocity": 0.3937007874015748
          },
          {
            "duration": 0.10489499999999907,
            "durationTicks": 96,
            "midi": 41,
            "name": "F2",
            "ticks": 68448,
            "time": 74.790135,
            "velocity": 0.3937007874015748
          },
          {
            "duration": 0.10489499999999907,
            "durationTicks": 96,
            "midi": 73,
            "name": "C#5",
            "ticks": 68448,
            "time": 74.790135,
            "velocity": 0.3937007874015748
          },
          {
            "duration": 0.10489499999999907,
            "durationTicks": 96,
            "midi": 31,
            "name": "G1",
            "ticks": 68448,
            "time": 74.790135,
            "velocity": 0.3937007874015748
          },
          {
            "duration": 0.10489499999999907,
            "durationTicks": 96,
            "midi": 26,
            "name": "D1",
            "ticks": 68544,
            "time": 74.89503,
            "velocity": 0.3937007874015748
          },
          {
            "duration": 0.10489499999999907,
            "durationTicks": 96,
            "midi": 41,
            "name": "F2",
            "ticks": 68544,
            "time": 74.89503,
            "velocity": 0.3937007874015748
          },
          {
            "duration": 0.10489499999999907,
            "durationTicks": 96,
            "midi": 31,
            "name": "G1",
            "ticks": 68544,
            "time": 74.89503,
            "velocity": 0.3937007874015748
          },
          {
            "duration": 0.10489499999999907,
            "durationTicks": 96,
            "midi": 73,
            "name": "C#5",
            "ticks": 68640,
            "time": 74.999925,
            "velocity": 0.3937007874015748
          },
          {
            "duration": 0.10489499999999907,
            "durationTicks": 96,
            "midi": 73,
            "name": "C#5",
            "ticks": 68832,
            "time": 75.209715,
            "velocity": 0.3937007874015748
          },
          {
            "duration": 0.10489499999999907,
            "durationTicks": 96,
            "midi": 85,
            "name": "C#6",
            "ticks": 68832,
            "time": 75.209715,
            "velocity": 0.3937007874015748
          },
          {
            "duration": 0.10489499999999907,
            "durationTicks": 96,
            "midi": 85,
            "name": "C#6",
            "ticks": 69024,
            "time": 75.419505,
            "velocity": 0.3937007874015748
          },
          {
            "duration": 0.10489499999999907,
            "durationTicks": 96,
            "midi": 26,
            "name": "D1",
            "ticks": 69120,
            "time": 75.5244,
            "velocity": 0.3937007874015748
          },
          {
            "duration": 0.10489499999999907,
            "durationTicks": 96,
            "midi": 33,
            "name": "A1",
            "ticks": 69216,
            "time": 75.629295,
            "velocity": 0.3937007874015748
          },
          {
            "duration": 0.10489499999999907,
            "durationTicks": 96,
            "midi": 85,
            "name": "C#6",
            "ticks": 69216,
            "time": 75.629295,
            "velocity": 0.3937007874015748
          },
          {
            "duration": 0.10489499999999907,
            "durationTicks": 96,
            "midi": 26,
            "name": "D1",
            "ticks": 69216,
            "time": 75.629295,
            "velocity": 0.3937007874015748
          },
          {
            "duration": 0.10489499999999907,
            "durationTicks": 96,
            "midi": 33,
            "name": "A1",
            "ticks": 69312,
            "time": 75.73419,
            "velocity": 0.3937007874015748
          },
          {
            "duration": 0.10489499999999907,
            "durationTicks": 96,
            "midi": 26,
            "name": "D1",
            "ticks": 69312,
            "time": 75.73419,
            "velocity": 0.3937007874015748
          },
          {
            "duration": 0.10489499999999907,
            "durationTicks": 96,
            "midi": 32,
            "name": "G#1",
            "ticks": 69312,
            "time": 75.73419,
            "velocity": 0.3937007874015748
          },
          {
            "duration": 0.10489499999999907,
            "durationTicks": 96,
            "midi": 33,
            "name": "A1",
            "ticks": 69408,
            "time": 75.839085,
            "velocity": 0.3937007874015748
          },
          {
            "duration": 0.10489499999999907,
            "durationTicks": 96,
            "midi": 31,
            "name": "G1",
            "ticks": 69408,
            "time": 75.839085,
            "velocity": 0.3937007874015748
          },
          {
            "duration": 0.10489499999999907,
            "durationTicks": 96,
            "midi": 32,
            "name": "G#1",
            "ticks": 69408,
            "time": 75.839085,
            "velocity": 0.3937007874015748
          },
          {
            "duration": 0.10489499999999907,
            "durationTicks": 96,
            "midi": 85,
            "name": "C#6",
            "ticks": 69408,
            "time": 75.839085,
            "velocity": 0.3937007874015748
          },
          {
            "duration": 0.10489499999999907,
            "durationTicks": 96,
            "midi": 32,
            "name": "G#1",
            "ticks": 69504,
            "time": 75.94398,
            "velocity": 0.3937007874015748
          },
          {
            "duration": 0.10489499999999907,
            "durationTicks": 96,
            "midi": 31,
            "name": "G1",
            "ticks": 69504,
            "time": 75.94398,
            "velocity": 0.3937007874015748
          },
          {
            "duration": 0.10489499999999907,
            "durationTicks": 96,
            "midi": 38,
            "name": "D2",
            "ticks": 69504,
            "time": 75.94398,
            "velocity": 0.3937007874015748
          },
          {
            "duration": 0.10489500000001328,
            "durationTicks": 96,
            "midi": 37,
            "name": "C#2",
            "ticks": 69600,
            "time": 76.048875,
            "velocity": 0.3937007874015748
          },
          {
            "duration": 0.10489500000001328,
            "durationTicks": 96,
            "midi": 31,
            "name": "G1",
            "ticks": 69600,
            "time": 76.048875,
            "velocity": 0.3937007874015748
          },
          {
            "duration": 0.10489500000001328,
            "durationTicks": 96,
            "midi": 38,
            "name": "D2",
            "ticks": 69600,
            "time": 76.048875,
            "velocity": 0.3937007874015748
          },
          {
            "duration": 0.10489499999999907,
            "durationTicks": 96,
            "midi": 37,
            "name": "C#2",
            "ticks": 69696,
            "time": 76.15377000000001,
            "velocity": 0.3937007874015748
          },
          {
            "duration": 0.10489499999999907,
            "durationTicks": 96,
            "midi": 38,
            "name": "D2",
            "ticks": 69696,
            "time": 76.15377000000001,
            "velocity": 0.3937007874015748
          },
          {
            "duration": 0.10489499999999907,
            "durationTicks": 96,
            "midi": 36,
            "name": "C2",
            "ticks": 69696,
            "time": 76.15377000000001,
            "velocity": 0.3937007874015748
          },
          {
            "duration": 0.10489499999999907,
            "durationTicks": 96,
            "midi": 43,
            "name": "G2",
            "ticks": 69792,
            "time": 76.25866500000001,
            "velocity": 0.3937007874015748
          },
          {
            "duration": 0.10489499999999907,
            "durationTicks": 96,
            "midi": 36,
            "name": "C2",
            "ticks": 69792,
            "time": 76.25866500000001,
            "velocity": 0.3937007874015748
          },
          {
            "duration": 0.10489499999999907,
            "durationTicks": 96,
            "midi": 37,
            "name": "C#2",
            "ticks": 69792,
            "time": 76.25866500000001,
            "velocity": 0.3937007874015748
          },
          {
            "duration": 0.10489499999999907,
            "durationTicks": 96,
            "midi": 43,
            "name": "G2",
            "ticks": 69888,
            "time": 76.36356,
            "velocity": 0.3937007874015748
          },
          {
            "duration": 0.10489499999999907,
            "durationTicks": 96,
            "midi": 42,
            "name": "F#2",
            "ticks": 69888,
            "time": 76.36356,
            "velocity": 0.3937007874015748
          },
          {
            "duration": 0.10489499999999907,
            "durationTicks": 96,
            "midi": 36,
            "name": "C2",
            "ticks": 69888,
            "time": 76.36356,
            "velocity": 0.3937007874015748
          },
          {
            "duration": 0.10489499999999907,
            "durationTicks": 96,
            "midi": 42,
            "name": "F#2",
            "ticks": 69984,
            "time": 76.468455,
            "velocity": 0.3937007874015748
          },
          {
            "duration": 0.10489499999999907,
            "durationTicks": 96,
            "midi": 43,
            "name": "G2",
            "ticks": 69984,
            "time": 76.468455,
            "velocity": 0.3937007874015748
          },
          {
            "duration": 0.10489499999999907,
            "durationTicks": 96,
            "midi": 40,
            "name": "E2",
            "ticks": 69984,
            "time": 76.468455,
            "velocity": 0.3937007874015748
          },
          {
            "duration": 0.10489499999999907,
            "durationTicks": 96,
            "midi": 38,
            "name": "D2",
            "ticks": 70080,
            "time": 76.57335,
            "velocity": 0.3937007874015748
          },
          {
            "duration": 0.10489499999999907,
            "durationTicks": 96,
            "midi": 42,
            "name": "F#2",
            "ticks": 70080,
            "time": 76.57335,
            "velocity": 0.3937007874015748
          },
          {
            "duration": 0.10489499999999907,
            "durationTicks": 96,
            "midi": 40,
            "name": "E2",
            "ticks": 70080,
            "time": 76.57335,
            "velocity": 0.3937007874015748
          },
          {
            "duration": 0.10489499999999907,
            "durationTicks": 96,
            "midi": 36,
            "name": "C2",
            "ticks": 70176,
            "time": 76.678245,
            "velocity": 0.3937007874015748
          },
          {
            "duration": 0.10489499999999907,
            "durationTicks": 96,
            "midi": 38,
            "name": "D2",
            "ticks": 70176,
            "time": 76.678245,
            "velocity": 0.3937007874015748
          },
          {
            "duration": 0.10489499999999907,
            "durationTicks": 96,
            "midi": 40,
            "name": "E2",
            "ticks": 70176,
            "time": 76.678245,
            "velocity": 0.3937007874015748
          },
          {
            "duration": 0.10489499999999907,
            "durationTicks": 96,
            "midi": 38,
            "name": "D2",
            "ticks": 70272,
            "time": 76.78314,
            "velocity": 0.3937007874015748
          },
          {
            "duration": 0.10489499999999907,
            "durationTicks": 96,
            "midi": 33,
            "name": "A1",
            "ticks": 70272,
            "time": 76.78314,
            "velocity": 0.3937007874015748
          },
          {
            "duration": 0.10489499999999907,
            "durationTicks": 96,
            "midi": 36,
            "name": "C2",
            "ticks": 70272,
            "time": 76.78314,
            "velocity": 0.3937007874015748
          },
          {
            "duration": 0.10489499999999907,
            "durationTicks": 96,
            "midi": 36,
            "name": "C2",
            "ticks": 70368,
            "time": 76.888035,
            "velocity": 0.3937007874015748
          },
          {
            "duration": 0.10489499999999907,
            "durationTicks": 96,
            "midi": 33,
            "name": "A1",
            "ticks": 70368,
            "time": 76.888035,
            "velocity": 0.3937007874015748
          },
          {
            "duration": 0.10489499999999907,
            "durationTicks": 96,
            "midi": 36,
            "name": "C2",
            "ticks": 70368,
            "time": 76.888035,
            "velocity": 0.3937007874015748
          },
          {
            "duration": 0.10489499999999907,
            "durationTicks": 96,
            "midi": 36,
            "name": "C2",
            "ticks": 70464,
            "time": 76.99293,
            "velocity": 0.3937007874015748
          },
          {
            "duration": 0.10489499999999907,
            "durationTicks": 96,
            "midi": 33,
            "name": "A1",
            "ticks": 70464,
            "time": 76.99293,
            "velocity": 0.3937007874015748
          },
          {
            "duration": 0.10489499999999907,
            "durationTicks": 96,
            "midi": 31,
            "name": "G1",
            "ticks": 70464,
            "time": 76.99293,
            "velocity": 0.3937007874015748
          },
          {
            "duration": 0.10489499999999907,
            "durationTicks": 96,
            "midi": 29,
            "name": "F1",
            "ticks": 70560,
            "time": 77.097825,
            "velocity": 0.3937007874015748
          },
          {
            "duration": 0.10489499999999907,
            "durationTicks": 96,
            "midi": 36,
            "name": "C2",
            "ticks": 70560,
            "time": 77.097825,
            "velocity": 0.3937007874015748
          },
          {
            "duration": 0.10489499999999907,
            "durationTicks": 96,
            "midi": 31,
            "name": "G1",
            "ticks": 70560,
            "time": 77.097825,
            "velocity": 0.3937007874015748
          },
          {
            "duration": 0.10489499999999907,
            "durationTicks": 96,
            "midi": 29,
            "name": "F1",
            "ticks": 70656,
            "time": 77.20272,
            "velocity": 0.3937007874015748
          },
          {
            "duration": 0.10489499999999907,
            "durationTicks": 96,
            "midi": 26,
            "name": "D1",
            "ticks": 70656,
            "time": 77.20272,
            "velocity": 0.3937007874015748
          },
          {
            "duration": 0.10489499999999907,
            "durationTicks": 96,
            "midi": 31,
            "name": "G1",
            "ticks": 70656,
            "time": 77.20272,
            "velocity": 0.3937007874015748
          },
          {
            "duration": 0.10489499999999907,
            "durationTicks": 96,
            "midi": 29,
            "name": "F1",
            "ticks": 70752,
            "time": 77.307615,
            "velocity": 0.3937007874015748
          },
          {
            "duration": 0.10489499999999907,
            "durationTicks": 96,
            "midi": 26,
            "name": "D1",
            "ticks": 70752,
            "time": 77.307615,
            "velocity": 0.3937007874015748
          },
          {
            "duration": 0.10489499999999907,
            "durationTicks": 96,
            "midi": 33,
            "name": "A1",
            "ticks": 70752,
            "time": 77.307615,
            "velocity": 0.3937007874015748
          },
          {
            "duration": 0.10489499999999907,
            "durationTicks": 96,
            "midi": 32,
            "name": "G#1",
            "ticks": 70848,
            "time": 77.41251,
            "velocity": 0.3937007874015748
          },
          {
            "duration": 0.10489499999999907,
            "durationTicks": 96,
            "midi": 33,
            "name": "A1",
            "ticks": 70848,
            "time": 77.41251,
            "velocity": 0.3937007874015748
          },
          {
            "duration": 0.10489499999999907,
            "durationTicks": 96,
            "midi": 26,
            "name": "D1",
            "ticks": 70848,
            "time": 77.41251,
            "velocity": 0.3937007874015748
          },
          {
            "duration": 0.10489499999999907,
            "durationTicks": 96,
            "midi": 33,
            "name": "A1",
            "ticks": 70944,
            "time": 77.517405,
            "velocity": 0.3937007874015748
          },
          {
            "duration": 0.10489499999999907,
            "durationTicks": 96,
            "midi": 32,
            "name": "G#1",
            "ticks": 70944,
            "time": 77.517405,
            "velocity": 0.3937007874015748
          },
          {
            "duration": 0.10489499999999907,
            "durationTicks": 96,
            "midi": 31,
            "name": "G1",
            "ticks": 70944,
            "time": 77.517405,
            "velocity": 0.3937007874015748
          },
          {
            "duration": 0.10489499999999907,
            "durationTicks": 96,
            "midi": 31,
            "name": "G1",
            "ticks": 71040,
            "time": 77.6223,
            "velocity": 0.3937007874015748
          },
          {
            "duration": 0.10489499999999907,
            "durationTicks": 96,
            "midi": 38,
            "name": "D2",
            "ticks": 71040,
            "time": 77.6223,
            "velocity": 0.3937007874015748
          },
          {
            "duration": 0.10489499999999907,
            "durationTicks": 96,
            "midi": 32,
            "name": "G#1",
            "ticks": 71040,
            "time": 77.6223,
            "velocity": 0.3937007874015748
          },
          {
            "duration": 0.10489500000001328,
            "durationTicks": 96,
            "midi": 38,
            "name": "D2",
            "ticks": 71136,
            "time": 77.727195,
            "velocity": 0.3937007874015748
          },
          {
            "duration": 0.10489500000001328,
            "durationTicks": 96,
            "midi": 31,
            "name": "G1",
            "ticks": 71136,
            "time": 77.727195,
            "velocity": 0.3937007874015748
          },
          {
            "duration": 0.10489500000001328,
            "durationTicks": 96,
            "midi": 37,
            "name": "C#2",
            "ticks": 71136,
            "time": 77.727195,
            "velocity": 0.3937007874015748
          },
          {
            "duration": 0.10489499999999907,
            "durationTicks": 96,
            "midi": 38,
            "name": "D2",
            "ticks": 71232,
            "time": 77.83209000000001,
            "velocity": 0.3937007874015748
          },
          {
            "duration": 0.10489499999999907,
            "durationTicks": 96,
            "midi": 36,
            "name": "C2",
            "ticks": 71232,
            "time": 77.83209000000001,
            "velocity": 0.3937007874015748
          },
          {
            "duration": 0.10489499999999907,
            "durationTicks": 96,
            "midi": 37,
            "name": "C#2",
            "ticks": 71232,
            "time": 77.83209000000001,
            "velocity": 0.3937007874015748
          },
          {
            "duration": 0.10489499999999907,
            "durationTicks": 96,
            "midi": 43,
            "name": "G2",
            "ticks": 71328,
            "time": 77.936985,
            "velocity": 0.3937007874015748
          },
          {
            "duration": 0.10489499999999907,
            "durationTicks": 96,
            "midi": 36,
            "name": "C2",
            "ticks": 71328,
            "time": 77.936985,
            "velocity": 0.3937007874015748
          },
          {
            "duration": 0.10489499999999907,
            "durationTicks": 96,
            "midi": 37,
            "name": "C#2",
            "ticks": 71328,
            "time": 77.936985,
            "velocity": 0.3937007874015748
          },
          {
            "duration": 0.10489499999999907,
            "durationTicks": 96,
            "midi": 43,
            "name": "G2",
            "ticks": 71424,
            "time": 78.04188,
            "velocity": 0.3937007874015748
          },
          {
            "duration": 0.10489499999999907,
            "durationTicks": 96,
            "midi": 42,
            "name": "F#2",
            "ticks": 71424,
            "time": 78.04188,
            "velocity": 0.3937007874015748
          },
          {
            "duration": 0.10489499999999907,
            "durationTicks": 96,
            "midi": 36,
            "name": "C2",
            "ticks": 71424,
            "time": 78.04188,
            "velocity": 0.3937007874015748
          },
          {
            "duration": 0.10489499999999907,
            "durationTicks": 96,
            "midi": 43,
            "name": "G2",
            "ticks": 71520,
            "time": 78.146775,
            "velocity": 0.3937007874015748
          },
          {
            "duration": 0.10489499999999907,
            "durationTicks": 96,
            "midi": 42,
            "name": "F#2",
            "ticks": 71520,
            "time": 78.146775,
            "velocity": 0.3937007874015748
          },
          {
            "duration": 0.10489499999999907,
            "durationTicks": 96,
            "midi": 40,
            "name": "E2",
            "ticks": 71520,
            "time": 78.146775,
            "velocity": 0.3937007874015748
          },
          {
            "duration": 0.10489499999999907,
            "durationTicks": 96,
            "midi": 38,
            "name": "D2",
            "ticks": 71616,
            "time": 78.25167,
            "velocity": 0.3937007874015748
          },
          {
            "duration": 0.10489499999999907,
            "durationTicks": 96,
            "midi": 42,
            "name": "F#2",
            "ticks": 71616,
            "time": 78.25167,
            "velocity": 0.3937007874015748
          },
          {
            "duration": 0.10489499999999907,
            "durationTicks": 96,
            "midi": 40,
            "name": "E2",
            "ticks": 71616,
            "time": 78.25167,
            "velocity": 0.3937007874015748
          },
          {
            "duration": 0.10489499999999907,
            "durationTicks": 96,
            "midi": 40,
            "name": "E2",
            "ticks": 71712,
            "time": 78.356565,
            "velocity": 0.3937007874015748
          },
          {
            "duration": 0.10489499999999907,
            "durationTicks": 96,
            "midi": 38,
            "name": "D2",
            "ticks": 71712,
            "time": 78.356565,
            "velocity": 0.3937007874015748
          },
          {
            "duration": 0.10489499999999907,
            "durationTicks": 96,
            "midi": 36,
            "name": "C2",
            "ticks": 71712,
            "time": 78.356565,
            "velocity": 0.3937007874015748
          },
          {
            "duration": 0.10489499999999907,
            "durationTicks": 96,
            "midi": 33,
            "name": "A1",
            "ticks": 71808,
            "time": 78.46146,
            "velocity": 0.3937007874015748
          },
          {
            "duration": 0.10489499999999907,
            "durationTicks": 96,
            "midi": 36,
            "name": "C2",
            "ticks": 71808,
            "time": 78.46146,
            "velocity": 0.3937007874015748
          },
          {
            "duration": 0.10489499999999907,
            "durationTicks": 96,
            "midi": 38,
            "name": "D2",
            "ticks": 71808,
            "time": 78.46146,
            "velocity": 0.3937007874015748
          },
          {
            "duration": 0.10489499999999907,
            "durationTicks": 96,
            "midi": 36,
            "name": "C2",
            "ticks": 71904,
            "time": 78.566355,
            "velocity": 0.3937007874015748
          },
          {
            "duration": 0.10489499999999907,
            "durationTicks": 96,
            "midi": 33,
            "name": "A1",
            "ticks": 71904,
            "time": 78.566355,
            "velocity": 0.3937007874015748
          },
          {
            "duration": 0.10489499999999907,
            "durationTicks": 96,
            "midi": 36,
            "name": "C2",
            "ticks": 71904,
            "time": 78.566355,
            "velocity": 0.3937007874015748
          },
          {
            "duration": 0.10489499999999907,
            "durationTicks": 96,
            "midi": 33,
            "name": "A1",
            "ticks": 72000,
            "time": 78.67125,
            "velocity": 0.3937007874015748
          },
          {
            "duration": 0.10489499999999907,
            "durationTicks": 96,
            "midi": 36,
            "name": "C2",
            "ticks": 72000,
            "time": 78.67125,
            "velocity": 0.3937007874015748
          },
          {
            "duration": 0.10489499999999907,
            "durationTicks": 96,
            "midi": 31,
            "name": "G1",
            "ticks": 72000,
            "time": 78.67125,
            "velocity": 0.3937007874015748
          },
          {
            "duration": 0.10489499999999907,
            "durationTicks": 96,
            "midi": 29,
            "name": "F1",
            "ticks": 72096,
            "time": 78.776145,
            "velocity": 0.3937007874015748
          },
          {
            "duration": 0.10489499999999907,
            "durationTicks": 96,
            "midi": 31,
            "name": "G1",
            "ticks": 72096,
            "time": 78.776145,
            "velocity": 0.3937007874015748
          },
          {
            "duration": 0.10489499999999907,
            "durationTicks": 96,
            "midi": 36,
            "name": "C2",
            "ticks": 72096,
            "time": 78.776145,
            "velocity": 0.3937007874015748
          },
          {
            "duration": 0.10489499999999907,
            "durationTicks": 96,
            "midi": 26,
            "name": "D1",
            "ticks": 72192,
            "time": 78.88104,
            "velocity": 0.3937007874015748
          },
          {
            "duration": 0.10489499999999907,
            "durationTicks": 96,
            "midi": 29,
            "name": "F1",
            "ticks": 72192,
            "time": 78.88104,
            "velocity": 0.3937007874015748
          },
          {
            "duration": 0.10489499999999907,
            "durationTicks": 96,
            "midi": 31,
            "name": "G1",
            "ticks": 72192,
            "time": 78.88104,
            "velocity": 0.3937007874015748
          },
          {
            "duration": 0.10489499999999907,
            "durationTicks": 96,
            "midi": 29,
            "name": "F1",
            "ticks": 72288,
            "time": 78.985935,
            "velocity": 0.3937007874015748
          },
          {
            "duration": 0.10489499999999907,
            "durationTicks": 96,
            "midi": 33,
            "name": "A1",
            "ticks": 72288,
            "time": 78.985935,
            "velocity": 0.3937007874015748
          },
          {
            "duration": 0.10489499999999907,
            "durationTicks": 96,
            "midi": 26,
            "name": "D1",
            "ticks": 72288,
            "time": 78.985935,
            "velocity": 0.3937007874015748
          },
          {
            "duration": 0.10489499999999907,
            "durationTicks": 96,
            "midi": 26,
            "name": "D1",
            "ticks": 72384,
            "time": 79.09083,
            "velocity": 0.3937007874015748
          },
          {
            "duration": 0.10489499999999907,
            "durationTicks": 96,
            "midi": 33,
            "name": "A1",
            "ticks": 72384,
            "time": 79.09083,
            "velocity": 0.3937007874015748
          },
          {
            "duration": 0.10489499999999907,
            "durationTicks": 96,
            "midi": 32,
            "name": "G#1",
            "ticks": 72384,
            "time": 79.09083,
            "velocity": 0.3937007874015748
          },
          {
            "duration": 0.10489499999999907,
            "durationTicks": 96,
            "midi": 31,
            "name": "G1",
            "ticks": 72480,
            "time": 79.195725,
            "velocity": 0.3937007874015748
          },
          {
            "duration": 0.10489499999999907,
            "durationTicks": 96,
            "midi": 32,
            "name": "G#1",
            "ticks": 72480,
            "time": 79.195725,
            "velocity": 0.3937007874015748
          },
          {
            "duration": 0.10489499999999907,
            "durationTicks": 96,
            "midi": 33,
            "name": "A1",
            "ticks": 72480,
            "time": 79.195725,
            "velocity": 0.3937007874015748
          },
          {
            "duration": 0.10489500000001328,
            "durationTicks": 96,
            "midi": 31,
            "name": "G1",
            "ticks": 72576,
            "time": 79.30062,
            "velocity": 0.3937007874015748
          },
          {
            "duration": 0.10489500000001328,
            "durationTicks": 96,
            "midi": 38,
            "name": "D2",
            "ticks": 72576,
            "time": 79.30062,
            "velocity": 0.3937007874015748
          },
          {
            "duration": 0.10489500000001328,
            "durationTicks": 96,
            "midi": 32,
            "name": "G#1",
            "ticks": 72576,
            "time": 79.30062,
            "velocity": 0.3937007874015748
          },
          {
            "duration": 0.10489499999999907,
            "durationTicks": 96,
            "midi": 31,
            "name": "G1",
            "ticks": 72672,
            "time": 79.40551500000001,
            "velocity": 0.3937007874015748
          },
          {
            "duration": 0.10489499999999907,
            "durationTicks": 96,
            "midi": 37,
            "name": "C#2",
            "ticks": 72672,
            "time": 79.40551500000001,
            "velocity": 0.3937007874015748
          },
          {
            "duration": 0.10489499999999907,
            "durationTicks": 96,
            "midi": 38,
            "name": "D2",
            "ticks": 72672,
            "time": 79.40551500000001,
            "velocity": 0.3937007874015748
          },
          {
            "duration": 0.10489499999999907,
            "durationTicks": 96,
            "midi": 38,
            "name": "D2",
            "ticks": 72768,
            "time": 79.51041000000001,
            "velocity": 0.3937007874015748
          },
          {
            "duration": 0.10489499999999907,
            "durationTicks": 96,
            "midi": 37,
            "name": "C#2",
            "ticks": 72768,
            "time": 79.51041000000001,
            "velocity": 0.3937007874015748
          },
          {
            "duration": 0.10489499999999907,
            "durationTicks": 96,
            "midi": 36,
            "name": "C2",
            "ticks": 72768,
            "time": 79.51041000000001,
            "velocity": 0.3937007874015748
          },
          {
            "duration": 0.10489499999999907,
            "durationTicks": 96,
            "midi": 37,
            "name": "C#2",
            "ticks": 72864,
            "time": 79.615305,
            "velocity": 0.3937007874015748
          },
          {
            "duration": 0.10489499999999907,
            "durationTicks": 96,
            "midi": 36,
            "name": "C2",
            "ticks": 72864,
            "time": 79.615305,
            "velocity": 0.3937007874015748
          },
          {
            "duration": 0.10489499999999907,
            "durationTicks": 96,
            "midi": 43,
            "name": "G2",
            "ticks": 72864,
            "time": 79.615305,
            "velocity": 0.3937007874015748
          },
          {
            "duration": 0.10489499999999907,
            "durationTicks": 96,
            "midi": 36,
            "name": "C2",
            "ticks": 72960,
            "time": 79.7202,
            "velocity": 0.3937007874015748
          },
          {
            "duration": 0.10489499999999907,
            "durationTicks": 96,
            "midi": 42,
            "name": "F#2",
            "ticks": 72960,
            "time": 79.7202,
            "velocity": 0.3937007874015748
          },
          {
            "duration": 0.10489499999999907,
            "durationTicks": 96,
            "midi": 43,
            "name": "G2",
            "ticks": 72960,
            "time": 79.7202,
            "velocity": 0.3937007874015748
          },
          {
            "duration": 0.10489499999999907,
            "durationTicks": 96,
            "midi": 42,
            "name": "F#2",
            "ticks": 73056,
            "time": 79.825095,
            "velocity": 0.3937007874015748
          },
          {
            "duration": 0.10489499999999907,
            "durationTicks": 96,
            "midi": 40,
            "name": "E2",
            "ticks": 73056,
            "time": 79.825095,
            "velocity": 0.3937007874015748
          },
          {
            "duration": 0.10489499999999907,
            "durationTicks": 96,
            "midi": 43,
            "name": "G2",
            "ticks": 73056,
            "time": 79.825095,
            "velocity": 0.3937007874015748
          },
          {
            "duration": 0.10489499999999907,
            "durationTicks": 96,
            "midi": 38,
            "name": "D2",
            "ticks": 73152,
            "time": 79.92999,
            "velocity": 0.3937007874015748
          },
          {
            "duration": 0.10489499999999907,
            "durationTicks": 96,
            "midi": 40,
            "name": "E2",
            "ticks": 73152,
            "time": 79.92999,
            "velocity": 0.3937007874015748
          },
          {
            "duration": 0.10489499999999907,
            "durationTicks": 96,
            "midi": 42,
            "name": "F#2",
            "ticks": 73152,
            "time": 79.92999,
            "velocity": 0.3937007874015748
          },
          {
            "duration": 0.10489499999999907,
            "durationTicks": 96,
            "midi": 38,
            "name": "D2",
            "ticks": 73248,
            "time": 80.034885,
            "velocity": 0.3937007874015748
          },
          {
            "duration": 0.10489499999999907,
            "durationTicks": 96,
            "midi": 36,
            "name": "C2",
            "ticks": 73248,
            "time": 80.034885,
            "velocity": 0.3937007874015748
          },
          {
            "duration": 0.10489499999999907,
            "durationTicks": 96,
            "midi": 40,
            "name": "E2",
            "ticks": 73248,
            "time": 80.034885,
            "velocity": 0.3937007874015748
          },
          {
            "duration": 0.10489499999999907,
            "durationTicks": 96,
            "midi": 38,
            "name": "D2",
            "ticks": 73344,
            "time": 80.13978,
            "velocity": 0.3937007874015748
          },
          {
            "duration": 0.10489499999999907,
            "durationTicks": 96,
            "midi": 33,
            "name": "A1",
            "ticks": 73344,
            "time": 80.13978,
            "velocity": 0.3937007874015748
          },
          {
            "duration": 0.10489499999999907,
            "durationTicks": 96,
            "midi": 36,
            "name": "C2",
            "ticks": 73344,
            "time": 80.13978,
            "velocity": 0.3937007874015748
          },
          {
            "duration": 0.10489499999999907,
            "durationTicks": 96,
            "midi": 36,
            "name": "C2",
            "ticks": 73440,
            "time": 80.244675,
            "velocity": 0.3937007874015748
          },
          {
            "duration": 0.10489499999999907,
            "durationTicks": 96,
            "midi": 33,
            "name": "A1",
            "ticks": 73440,
            "time": 80.244675,
            "velocity": 0.3937007874015748
          },
          {
            "duration": 0.10489499999999907,
            "durationTicks": 96,
            "midi": 36,
            "name": "C2",
            "ticks": 73440,
            "time": 80.244675,
            "velocity": 0.3937007874015748
          },
          {
            "duration": 0.10489499999999907,
            "durationTicks": 96,
            "midi": 33,
            "name": "A1",
            "ticks": 73536,
            "time": 80.34957,
            "velocity": 0.3937007874015748
          },
          {
            "duration": 0.10489499999999907,
            "durationTicks": 96,
            "midi": 31,
            "name": "G1",
            "ticks": 73536,
            "time": 80.34957,
            "velocity": 0.3937007874015748
          },
          {
            "duration": 0.10489499999999907,
            "durationTicks": 96,
            "midi": 36,
            "name": "C2",
            "ticks": 73536,
            "time": 80.34957,
            "velocity": 0.3937007874015748
          },
          {
            "duration": 0.10489499999999907,
            "durationTicks": 96,
            "midi": 31,
            "name": "G1",
            "ticks": 73632,
            "time": 80.454465,
            "velocity": 0.3937007874015748
          },
          {
            "duration": 0.10489499999999907,
            "durationTicks": 96,
            "midi": 29,
            "name": "F1",
            "ticks": 73632,
            "time": 80.454465,
            "velocity": 0.3937007874015748
          },
          {
            "duration": 0.10489499999999907,
            "durationTicks": 96,
            "midi": 36,
            "name": "C2",
            "ticks": 73632,
            "time": 80.454465,
            "velocity": 0.3937007874015748
          },
          {
            "duration": 0.10489499999999907,
            "durationTicks": 96,
            "midi": 29,
            "name": "F1",
            "ticks": 73728,
            "time": 80.55936,
            "velocity": 0.3937007874015748
          },
          {
            "duration": 0.10489499999999907,
            "durationTicks": 96,
            "midi": 31,
            "name": "G1",
            "ticks": 73728,
            "time": 80.55936,
            "velocity": 0.3937007874015748
          },
          {
            "duration": 0.10489499999999907,
            "durationTicks": 96,
            "midi": 26,
            "name": "D1",
            "ticks": 73728,
            "time": 80.55936,
            "velocity": 0.3937007874015748
          },
          {
            "duration": 0.10489499999999907,
            "durationTicks": 96,
            "midi": 33,
            "name": "A1",
            "ticks": 73824,
            "time": 80.664255,
            "velocity": 0.3937007874015748
          },
          {
            "duration": 0.10489499999999907,
            "durationTicks": 96,
            "midi": 26,
            "name": "D1",
            "ticks": 73824,
            "time": 80.664255,
            "velocity": 0.3937007874015748
          },
          {
            "duration": 0.10489499999999907,
            "durationTicks": 96,
            "midi": 29,
            "name": "F1",
            "ticks": 73824,
            "time": 80.664255,
            "velocity": 0.3937007874015748
          },
          {
            "duration": 0.10489499999999907,
            "durationTicks": 96,
            "midi": 26,
            "name": "D1",
            "ticks": 73920,
            "time": 80.76915,
            "velocity": 0.3937007874015748
          },
          {
            "duration": 0.10489499999999907,
            "durationTicks": 96,
            "midi": 33,
            "name": "A1",
            "ticks": 73920,
            "time": 80.76915,
            "velocity": 0.3937007874015748
          },
          {
            "duration": 0.10489499999999907,
            "durationTicks": 96,
            "midi": 32,
            "name": "G#1",
            "ticks": 73920,
            "time": 80.76915,
            "velocity": 0.3937007874015748
          },
          {
            "duration": 0.10489500000001328,
            "durationTicks": 96,
            "midi": 33,
            "name": "A1",
            "ticks": 74016,
            "time": 80.874045,
            "velocity": 0.3937007874015748
          },
          {
            "duration": 0.10489500000001328,
            "durationTicks": 96,
            "midi": 31,
            "name": "G1",
            "ticks": 74016,
            "time": 80.874045,
            "velocity": 0.3937007874015748
          },
          {
            "duration": 0.10489500000001328,
            "durationTicks": 96,
            "midi": 32,
            "name": "G#1",
            "ticks": 74016,
            "time": 80.874045,
            "velocity": 0.3937007874015748
          },
          {
            "duration": 0.10489499999999907,
            "durationTicks": 96,
            "midi": 32,
            "name": "G#1",
            "ticks": 74112,
            "time": 80.97894000000001,
            "velocity": 0.3937007874015748
          },
          {
            "duration": 0.10489499999999907,
            "durationTicks": 96,
            "midi": 31,
            "name": "G1",
            "ticks": 74112,
            "time": 80.97894000000001,
            "velocity": 0.3937007874015748
          },
          {
            "duration": 0.10489499999999907,
            "durationTicks": 96,
            "midi": 38,
            "name": "D2",
            "ticks": 74112,
            "time": 80.97894000000001,
            "velocity": 0.3937007874015748
          },
          {
            "duration": 0.10489499999999907,
            "durationTicks": 96,
            "midi": 37,
            "name": "C#2",
            "ticks": 74208,
            "time": 81.08383500000001,
            "velocity": 0.3937007874015748
          },
          {
            "duration": 0.10489499999999907,
            "durationTicks": 96,
            "midi": 38,
            "name": "D2",
            "ticks": 74208,
            "time": 81.08383500000001,
            "velocity": 0.3937007874015748
          },
          {
            "duration": 0.10489499999999907,
            "durationTicks": 96,
            "midi": 31,
            "name": "G1",
            "ticks": 74208,
            "time": 81.08383500000001,
            "velocity": 0.3937007874015748
          },
          {
            "duration": 0.10489499999999907,
            "durationTicks": 96,
            "midi": 36,
            "name": "C2",
            "ticks": 74304,
            "time": 81.18873,
            "velocity": 0.3937007874015748
          },
          {
            "duration": 0.10489499999999907,
            "durationTicks": 96,
            "midi": 37,
            "name": "C#2",
            "ticks": 74304,
            "time": 81.18873,
            "velocity": 0.3937007874015748
          },
          {
            "duration": 0.10489499999999907,
            "durationTicks": 96,
            "midi": 38,
            "name": "D2",
            "ticks": 74304,
            "time": 81.18873,
            "velocity": 0.3937007874015748
          },
          {
            "duration": 0.10489499999999907,
            "durationTicks": 96,
            "midi": 43,
            "name": "G2",
            "ticks": 74400,
            "time": 81.293625,
            "velocity": 0.3937007874015748
          },
          {
            "duration": 0.10489499999999907,
            "durationTicks": 96,
            "midi": 37,
            "name": "C#2",
            "ticks": 74400,
            "time": 81.293625,
            "velocity": 0.3937007874015748
          },
          {
            "duration": 0.10489499999999907,
            "durationTicks": 96,
            "midi": 36,
            "name": "C2",
            "ticks": 74400,
            "time": 81.293625,
            "velocity": 0.3937007874015748
          },
          {
            "duration": 0.10489499999999907,
            "durationTicks": 96,
            "midi": 36,
            "name": "C2",
            "ticks": 74496,
            "time": 81.39852,
            "velocity": 0.3937007874015748
          },
          {
            "duration": 0.10489499999999907,
            "durationTicks": 96,
            "midi": 42,
            "name": "F#2",
            "ticks": 74496,
            "time": 81.39852,
            "velocity": 0.3937007874015748
          },
          {
            "duration": 0.10489499999999907,
            "durationTicks": 96,
            "midi": 43,
            "name": "G2",
            "ticks": 74496,
            "time": 81.39852,
            "velocity": 0.3937007874015748
          },
          {
            "duration": 0.10489499999999907,
            "durationTicks": 96,
            "midi": 43,
            "name": "G2",
            "ticks": 74592,
            "time": 81.503415,
            "velocity": 0.3937007874015748
          },
          {
            "duration": 0.10489499999999907,
            "durationTicks": 96,
            "midi": 42,
            "name": "F#2",
            "ticks": 74592,
            "time": 81.503415,
            "velocity": 0.3937007874015748
          },
          {
            "duration": 0.10489499999999907,
            "durationTicks": 96,
            "midi": 40,
            "name": "E2",
            "ticks": 74592,
            "time": 81.503415,
            "velocity": 0.3937007874015748
          },
          {
            "duration": 0.10489499999999907,
            "durationTicks": 96,
            "midi": 40,
            "name": "E2",
            "ticks": 74688,
            "time": 81.60831,
            "velocity": 0.3937007874015748
          },
          {
            "duration": 0.10489499999999907,
            "durationTicks": 96,
            "midi": 38,
            "name": "D2",
            "ticks": 74688,
            "time": 81.60831,
            "velocity": 0.3937007874015748
          },
          {
            "duration": 0.10489499999999907,
            "durationTicks": 96,
            "midi": 42,
            "name": "F#2",
            "ticks": 74688,
            "time": 81.60831,
            "velocity": 0.3937007874015748
          },
          {
            "duration": 0.10489499999999907,
            "durationTicks": 96,
            "midi": 36,
            "name": "C2",
            "ticks": 74784,
            "time": 81.713205,
            "velocity": 0.3937007874015748
          },
          {
            "duration": 0.10489499999999907,
            "durationTicks": 96,
            "midi": 38,
            "name": "D2",
            "ticks": 74784,
            "time": 81.713205,
            "velocity": 0.3937007874015748
          },
          {
            "duration": 0.10489499999999907,
            "durationTicks": 96,
            "midi": 40,
            "name": "E2",
            "ticks": 74784,
            "time": 81.713205,
            "velocity": 0.3937007874015748
          },
          {
            "duration": 0.10489499999999907,
            "durationTicks": 96,
            "midi": 33,
            "name": "A1",
            "ticks": 74880,
            "time": 81.8181,
            "velocity": 0.3937007874015748
          },
          {
            "duration": 0.10489499999999907,
            "durationTicks": 96,
            "midi": 36,
            "name": "C2",
            "ticks": 74880,
            "time": 81.8181,
            "velocity": 0.3937007874015748
          },
          {
            "duration": 0.10489499999999907,
            "durationTicks": 96,
            "midi": 38,
            "name": "D2",
            "ticks": 74880,
            "time": 81.8181,
            "velocity": 0.3937007874015748
          },
          {
            "duration": 0.10489499999999907,
            "durationTicks": 96,
            "midi": 36,
            "name": "C2",
            "ticks": 74976,
            "time": 81.922995,
            "velocity": 0.3937007874015748
          },
          {
            "duration": 0.10489499999999907,
            "durationTicks": 96,
            "midi": 33,
            "name": "A1",
            "ticks": 74976,
            "time": 81.922995,
            "velocity": 0.3937007874015748
          },
          {
            "duration": 0.10489499999999907,
            "durationTicks": 96,
            "midi": 36,
            "name": "C2",
            "ticks": 74976,
            "time": 81.922995,
            "velocity": 0.3937007874015748
          },
          {
            "duration": 0.10489499999999907,
            "durationTicks": 96,
            "midi": 33,
            "name": "A1",
            "ticks": 75072,
            "time": 82.02789,
            "velocity": 0.3937007874015748
          },
          {
            "duration": 0.10489499999999907,
            "durationTicks": 96,
            "midi": 36,
            "name": "C2",
            "ticks": 75072,
            "time": 82.02789,
            "velocity": 0.3937007874015748
          },
          {
            "duration": 0.10489499999999907,
            "durationTicks": 96,
            "midi": 31,
            "name": "G1",
            "ticks": 75072,
            "time": 82.02789,
            "velocity": 0.3937007874015748
          },
          {
            "duration": 0.10489499999999907,
            "durationTicks": 96,
            "midi": 31,
            "name": "G1",
            "ticks": 75168,
            "time": 82.132785,
            "velocity": 0.3937007874015748
          },
          {
            "duration": 0.10489499999999907,
            "durationTicks": 96,
            "midi": 29,
            "name": "F1",
            "ticks": 75168,
            "time": 82.132785,
            "velocity": 0.3937007874015748
          },
          {
            "duration": 0.10489499999999907,
            "durationTicks": 96,
            "midi": 36,
            "name": "C2",
            "ticks": 75168,
            "time": 82.132785,
            "velocity": 0.3937007874015748
          },
          {
            "duration": 0.10489499999999907,
            "durationTicks": 96,
            "midi": 29,
            "name": "F1",
            "ticks": 75264,
            "time": 82.23768,
            "velocity": 0.3937007874015748
          },
          {
            "duration": 0.10489499999999907,
            "durationTicks": 96,
            "midi": 31,
            "name": "G1",
            "ticks": 75264,
            "time": 82.23768,
            "velocity": 0.3937007874015748
          },
          {
            "duration": 0.10489499999999907,
            "durationTicks": 96,
            "midi": 26,
            "name": "D1",
            "ticks": 75264,
            "time": 82.23768,
            "velocity": 0.3937007874015748
          },
          {
            "duration": 0.10489499999999907,
            "durationTicks": 96,
            "midi": 29,
            "name": "F1",
            "ticks": 75360,
            "time": 82.342575,
            "velocity": 0.3937007874015748
          },
          {
            "duration": 0.10489499999999907,
            "durationTicks": 96,
            "midi": 26,
            "name": "D1",
            "ticks": 75360,
            "time": 82.342575,
            "velocity": 0.3937007874015748
          },
          {
            "duration": 0.10489499999999907,
            "durationTicks": 96,
            "midi": 33,
            "name": "A1",
            "ticks": 75360,
            "time": 82.342575,
            "velocity": 0.3937007874015748
          },
          {
            "duration": 0.10489499999999907,
            "durationTicks": 96,
            "midi": 33,
            "name": "A1",
            "ticks": 75456,
            "time": 82.44747,
            "velocity": 0.3937007874015748
          },
          {
            "duration": 0.10489499999999907,
            "durationTicks": 96,
            "midi": 32,
            "name": "G#1",
            "ticks": 75456,
            "time": 82.44747,
            "velocity": 0.3937007874015748
          },
          {
            "duration": 0.10489499999999907,
            "durationTicks": 96,
            "midi": 26,
            "name": "D1",
            "ticks": 75456,
            "time": 82.44747,
            "velocity": 0.3937007874015748
          },
          {
            "duration": 0.10489500000001328,
            "durationTicks": 96,
            "midi": 33,
            "name": "A1",
            "ticks": 75552,
            "time": 82.552365,
            "velocity": 0.3937007874015748
          },
          {
            "duration": 0.10489500000001328,
            "durationTicks": 96,
            "midi": 32,
            "name": "G#1",
            "ticks": 75552,
            "time": 82.552365,
            "velocity": 0.3937007874015748
          },
          {
            "duration": 0.10489500000001328,
            "durationTicks": 96,
            "midi": 31,
            "name": "G1",
            "ticks": 75552,
            "time": 82.552365,
            "velocity": 0.3937007874015748
          },
          {
            "duration": 0.10489499999999907,
            "durationTicks": 96,
            "midi": 32,
            "name": "G#1",
            "ticks": 75648,
            "time": 82.65726000000001,
            "velocity": 0.3937007874015748
          },
          {
            "duration": 0.10489499999999907,
            "durationTicks": 96,
            "midi": 31,
            "name": "G1",
            "ticks": 75648,
            "time": 82.65726000000001,
            "velocity": 0.3937007874015748
          },
          {
            "duration": 0.10489499999999907,
            "durationTicks": 96,
            "midi": 38,
            "name": "D2",
            "ticks": 75648,
            "time": 82.65726000000001,
            "velocity": 0.3937007874015748
          },
          {
            "duration": 0.10489499999999907,
            "durationTicks": 96,
            "midi": 38,
            "name": "D2",
            "ticks": 75744,
            "time": 82.762155,
            "velocity": 0.3937007874015748
          },
          {
            "duration": 0.10489499999999907,
            "durationTicks": 96,
            "midi": 37,
            "name": "C#2",
            "ticks": 75744,
            "time": 82.762155,
            "velocity": 0.3937007874015748
          },
          {
            "duration": 0.10489499999999907,
            "durationTicks": 96,
            "midi": 31,
            "name": "G1",
            "ticks": 75744,
            "time": 82.762155,
            "velocity": 0.3937007874015748
          },
          {
            "duration": 0.10489499999999907,
            "durationTicks": 96,
            "midi": 37,
            "name": "C#2",
            "ticks": 75840,
            "time": 82.86705,
            "velocity": 0.3937007874015748
          },
          {
            "duration": 0.10489499999999907,
            "durationTicks": 96,
            "midi": 36,
            "name": "C2",
            "ticks": 75840,
            "time": 82.86705,
            "velocity": 0.3937007874015748
          },
          {
            "duration": 0.10489499999999907,
            "durationTicks": 96,
            "midi": 38,
            "name": "D2",
            "ticks": 75840,
            "time": 82.86705,
            "velocity": 0.3937007874015748
          },
          {
            "duration": 0.10489499999999907,
            "durationTicks": 96,
            "midi": 37,
            "name": "C#2",
            "ticks": 75936,
            "time": 82.971945,
            "velocity": 0.3937007874015748
          },
          {
            "duration": 0.10489499999999907,
            "durationTicks": 96,
            "midi": 36,
            "name": "C2",
            "ticks": 75936,
            "time": 82.971945,
            "velocity": 0.3937007874015748
          },
          {
            "duration": 0.10489499999999907,
            "durationTicks": 96,
            "midi": 43,
            "name": "G2",
            "ticks": 75936,
            "time": 82.971945,
            "velocity": 0.3937007874015748
          },
          {
            "duration": 0.10489499999999907,
            "durationTicks": 96,
            "midi": 43,
            "name": "G2",
            "ticks": 76032,
            "time": 83.07684,
            "velocity": 0.3937007874015748
          },
          {
            "duration": 0.10489499999999907,
            "durationTicks": 96,
            "midi": 36,
            "name": "C2",
            "ticks": 76032,
            "time": 83.07684,
            "velocity": 0.3937007874015748
          },
          {
            "duration": 0.10489499999999907,
            "durationTicks": 96,
            "midi": 42,
            "name": "F#2",
            "ticks": 76032,
            "time": 83.07684,
            "velocity": 0.3937007874015748
          },
          {
            "duration": 0.10489499999999907,
            "durationTicks": 96,
            "midi": 40,
            "name": "E2",
            "ticks": 76128,
            "time": 83.181735,
            "velocity": 0.3937007874015748
          },
          {
            "duration": 0.10489499999999907,
            "durationTicks": 96,
            "midi": 43,
            "name": "G2",
            "ticks": 76128,
            "time": 83.181735,
            "velocity": 0.3937007874015748
          },
          {
            "duration": 0.10489499999999907,
            "durationTicks": 96,
            "midi": 42,
            "name": "F#2",
            "ticks": 76128,
            "time": 83.181735,
            "velocity": 0.3937007874015748
          },
          {
            "duration": 0.10489499999999907,
            "durationTicks": 96,
            "midi": 42,
            "name": "F#2",
            "ticks": 76224,
            "time": 83.28663,
            "velocity": 0.3937007874015748
          },
          {
            "duration": 0.10489499999999907,
            "durationTicks": 96,
            "midi": 38,
            "name": "D2",
            "ticks": 76224,
            "time": 83.28663,
            "velocity": 0.3937007874015748
          },
          {
            "duration": 0.10489499999999907,
            "durationTicks": 96,
            "midi": 40,
            "name": "E2",
            "ticks": 76224,
            "time": 83.28663,
            "velocity": 0.3937007874015748
          },
          {
            "duration": 0.10489499999999907,
            "durationTicks": 96,
            "midi": 40,
            "name": "E2",
            "ticks": 76320,
            "time": 83.391525,
            "velocity": 0.3937007874015748
          },
          {
            "duration": 0.10489499999999907,
            "durationTicks": 96,
            "midi": 38,
            "name": "D2",
            "ticks": 76320,
            "time": 83.391525,
            "velocity": 0.3937007874015748
          },
          {
            "duration": 0.10489499999999907,
            "durationTicks": 96,
            "midi": 36,
            "name": "C2",
            "ticks": 76320,
            "time": 83.391525,
            "velocity": 0.3937007874015748
          },
          {
            "duration": 0.10489499999999907,
            "durationTicks": 96,
            "midi": 33,
            "name": "A1",
            "ticks": 76416,
            "time": 83.49642,
            "velocity": 0.3937007874015748
          },
          {
            "duration": 0.10489499999999907,
            "durationTicks": 96,
            "midi": 36,
            "name": "C2",
            "ticks": 76416,
            "time": 83.49642,
            "velocity": 0.3937007874015748
          },
          {
            "duration": 0.10489499999999907,
            "durationTicks": 96,
            "midi": 38,
            "name": "D2",
            "ticks": 76416,
            "time": 83.49642,
            "velocity": 0.3937007874015748
          },
          {
            "duration": 0.10489499999999907,
            "durationTicks": 96,
            "midi": 36,
            "name": "C2",
            "ticks": 76512,
            "time": 83.601315,
            "velocity": 0.3937007874015748
          },
          {
            "duration": 0.10489499999999907,
            "durationTicks": 96,
            "midi": 33,
            "name": "A1",
            "ticks": 76512,
            "time": 83.601315,
            "velocity": 0.3937007874015748
          },
          {
            "duration": 0.10489499999999907,
            "durationTicks": 96,
            "midi": 36,
            "name": "C2",
            "ticks": 76512,
            "time": 83.601315,
            "velocity": 0.3937007874015748
          },
          {
            "duration": 0.10489499999999907,
            "durationTicks": 96,
            "midi": 33,
            "name": "A1",
            "ticks": 76608,
            "time": 83.70621,
            "velocity": 0.3937007874015748
          },
          {
            "duration": 0.10489499999999907,
            "durationTicks": 96,
            "midi": 31,
            "name": "G1",
            "ticks": 76608,
            "time": 83.70621,
            "velocity": 0.3937007874015748
          },
          {
            "duration": 0.10489499999999907,
            "durationTicks": 96,
            "midi": 36,
            "name": "C2",
            "ticks": 76608,
            "time": 83.70621,
            "velocity": 0.3937007874015748
          },
          {
            "duration": 0.10489499999999907,
            "durationTicks": 96,
            "midi": 29,
            "name": "F1",
            "ticks": 76704,
            "time": 83.811105,
            "velocity": 0.3937007874015748
          },
          {
            "duration": 0.10489499999999907,
            "durationTicks": 96,
            "midi": 36,
            "name": "C2",
            "ticks": 76704,
            "time": 83.811105,
            "velocity": 0.3937007874015748
          },
          {
            "duration": 0.10489499999999907,
            "durationTicks": 96,
            "midi": 31,
            "name": "G1",
            "ticks": 76704,
            "time": 83.811105,
            "velocity": 0.3937007874015748
          },
          {
            "duration": 0.10489499999999907,
            "durationTicks": 96,
            "midi": 29,
            "name": "F1",
            "ticks": 76800,
            "time": 83.916,
            "velocity": 0.3937007874015748
          },
          {
            "duration": 0.10489499999999907,
            "durationTicks": 96,
            "midi": 31,
            "name": "G1",
            "ticks": 76800,
            "time": 83.916,
            "velocity": 0.3937007874015748
          },
          {
            "duration": 0.10489499999999907,
            "durationTicks": 96,
            "midi": 26,
            "name": "D1",
            "ticks": 76800,
            "time": 83.916,
            "velocity": 0.3937007874015748
          },
          {
            "duration": 0.10489499999999907,
            "durationTicks": 96,
            "midi": 33,
            "name": "A1",
            "ticks": 76896,
            "time": 84.020895,
            "velocity": 0.3937007874015748
          },
          {
            "duration": 0.10489499999999907,
            "durationTicks": 96,
            "midi": 26,
            "name": "D1",
            "ticks": 76896,
            "time": 84.020895,
            "velocity": 0.3937007874015748
          },
          {
            "duration": 0.10489499999999907,
            "durationTicks": 96,
            "midi": 29,
            "name": "F1",
            "ticks": 76896,
            "time": 84.020895,
            "velocity": 0.3937007874015748
          },
          {
            "duration": 0.10489500000001328,
            "durationTicks": 96,
            "midi": 33,
            "name": "A1",
            "ticks": 76992,
            "time": 84.12579,
            "velocity": 0.3937007874015748
          },
          {
            "duration": 0.10489500000001328,
            "durationTicks": 96,
            "midi": 26,
            "name": "D1",
            "ticks": 76992,
            "time": 84.12579,
            "velocity": 0.3937007874015748
          },
          {
            "duration": 0.10489500000001328,
            "durationTicks": 96,
            "midi": 32,
            "name": "G#1",
            "ticks": 76992,
            "time": 84.12579,
            "velocity": 0.3937007874015748
          },
          {
            "duration": 0.10489499999999907,
            "durationTicks": 96,
            "midi": 33,
            "name": "A1",
            "ticks": 77088,
            "time": 84.23068500000001,
            "velocity": 0.3937007874015748
          },
          {
            "duration": 0.10489499999999907,
            "durationTicks": 96,
            "midi": 32,
            "name": "G#1",
            "ticks": 77088,
            "time": 84.23068500000001,
            "velocity": 0.3937007874015748
          },
          {
            "duration": 0.10489499999999907,
            "durationTicks": 96,
            "midi": 31,
            "name": "G1",
            "ticks": 77088,
            "time": 84.23068500000001,
            "velocity": 0.3937007874015748
          },
          {
            "duration": 0.10489499999999907,
            "durationTicks": 96,
            "midi": 38,
            "name": "D2",
            "ticks": 77184,
            "time": 84.33558000000001,
            "velocity": 0.3937007874015748
          },
          {
            "duration": 0.10489499999999907,
            "durationTicks": 96,
            "midi": 31,
            "name": "G1",
            "ticks": 77184,
            "time": 84.33558000000001,
            "velocity": 0.3937007874015748
          },
          {
            "duration": 0.10489499999999907,
            "durationTicks": 96,
            "midi": 32,
            "name": "G#1",
            "ticks": 77184,
            "time": 84.33558000000001,
            "velocity": 0.3937007874015748
          },
          {
            "duration": 0.10489499999999907,
            "durationTicks": 96,
            "midi": 31,
            "name": "G1",
            "ticks": 77280,
            "time": 84.440475,
            "velocity": 0.3937007874015748
          },
          {
            "duration": 0.10489499999999907,
            "durationTicks": 96,
            "midi": 38,
            "name": "D2",
            "ticks": 77280,
            "time": 84.440475,
            "velocity": 0.3937007874015748
          },
          {
            "duration": 0.10489499999999907,
            "durationTicks": 96,
            "midi": 37,
            "name": "C#2",
            "ticks": 77280,
            "time": 84.440475,
            "velocity": 0.3937007874015748
          },
          {
            "duration": 0.10489499999999907,
            "durationTicks": 96,
            "midi": 37,
            "name": "C#2",
            "ticks": 77376,
            "time": 84.54537,
            "velocity": 0.3937007874015748
          },
          {
            "duration": 0.10489499999999907,
            "durationTicks": 96,
            "midi": 38,
            "name": "D2",
            "ticks": 77376,
            "time": 84.54537,
            "velocity": 0.3937007874015748
          },
          {
            "duration": 0.10489499999999907,
            "durationTicks": 96,
            "midi": 36,
            "name": "C2",
            "ticks": 77376,
            "time": 84.54537,
            "velocity": 0.3937007874015748
          },
          {
            "duration": 0.10489499999999907,
            "durationTicks": 96,
            "midi": 36,
            "name": "C2",
            "ticks": 77472,
            "time": 84.650265,
            "velocity": 0.3937007874015748
          },
          {
            "duration": 0.10489499999999907,
            "durationTicks": 96,
            "midi": 43,
            "name": "G2",
            "ticks": 77472,
            "time": 84.650265,
            "velocity": 0.3937007874015748
          },
          {
            "duration": 0.10489499999999907,
            "durationTicks": 96,
            "midi": 37,
            "name": "C#2",
            "ticks": 77472,
            "time": 84.650265,
            "velocity": 0.3937007874015748
          },
          {
            "duration": 0.10489499999999907,
            "durationTicks": 96,
            "midi": 36,
            "name": "C2",
            "ticks": 77568,
            "time": 84.75516,
            "velocity": 0.3937007874015748
          },
          {
            "duration": 0.10489499999999907,
            "durationTicks": 96,
            "midi": 43,
            "name": "G2",
            "ticks": 77568,
            "time": 84.75516,
            "velocity": 0.3937007874015748
          },
          {
            "duration": 0.10489499999999907,
            "durationTicks": 96,
            "midi": 42,
            "name": "F#2",
            "ticks": 77568,
            "time": 84.75516,
            "velocity": 0.3937007874015748
          },
          {
            "duration": 0.10489499999999907,
            "durationTicks": 96,
            "midi": 40,
            "name": "E2",
            "ticks": 77664,
            "time": 84.860055,
            "velocity": 0.3937007874015748
          },
          {
            "duration": 0.10489499999999907,
            "durationTicks": 96,
            "midi": 42,
            "name": "F#2",
            "ticks": 77664,
            "time": 84.860055,
            "velocity": 0.3937007874015748
          },
          {
            "duration": 0.10489499999999907,
            "durationTicks": 96,
            "midi": 43,
            "name": "G2",
            "ticks": 77664,
            "time": 84.860055,
            "velocity": 0.3937007874015748
          },
          {
            "duration": 0.10489499999999907,
            "durationTicks": 96,
            "midi": 38,
            "name": "D2",
            "ticks": 77760,
            "time": 84.96495,
            "velocity": 0.3937007874015748
          },
          {
            "duration": 0.10489499999999907,
            "durationTicks": 96,
            "midi": 40,
            "name": "E2",
            "ticks": 77760,
            "time": 84.96495,
            "velocity": 0.3937007874015748
          },
          {
            "duration": 0.10489499999999907,
            "durationTicks": 96,
            "midi": 42,
            "name": "F#2",
            "ticks": 77760,
            "time": 84.96495,
            "velocity": 0.3937007874015748
          },
          {
            "duration": 0.10489499999999907,
            "durationTicks": 96,
            "midi": 36,
            "name": "C2",
            "ticks": 77856,
            "time": 85.069845,
            "velocity": 0.3937007874015748
          },
          {
            "duration": 0.10489499999999907,
            "durationTicks": 96,
            "midi": 40,
            "name": "E2",
            "ticks": 77856,
            "time": 85.069845,
            "velocity": 0.3937007874015748
          },
          {
            "duration": 0.10489499999999907,
            "durationTicks": 96,
            "midi": 38,
            "name": "D2",
            "ticks": 77856,
            "time": 85.069845,
            "velocity": 0.3937007874015748
          },
          {
            "duration": 0.10489499999999907,
            "durationTicks": 96,
            "midi": 38,
            "name": "D2",
            "ticks": 77952,
            "time": 85.17474,
            "velocity": 0.3937007874015748
          },
          {
            "duration": 0.10489499999999907,
            "durationTicks": 96,
            "midi": 36,
            "name": "C2",
            "ticks": 77952,
            "time": 85.17474,
            "velocity": 0.3937007874015748
          },
          {
            "duration": 0.10489499999999907,
            "durationTicks": 96,
            "midi": 33,
            "name": "A1",
            "ticks": 77952,
            "time": 85.17474,
            "velocity": 0.3937007874015748
          },
          {
            "duration": 0.10489499999999907,
            "durationTicks": 96,
            "midi": 36,
            "name": "C2",
            "ticks": 78048,
            "time": 85.279635,
            "velocity": 0.3937007874015748
          },
          {
            "duration": 0.10489499999999907,
            "durationTicks": 96,
            "midi": 33,
            "name": "A1",
            "ticks": 78048,
            "time": 85.279635,
            "velocity": 0.3937007874015748
          },
          {
            "duration": 0.10489499999999907,
            "durationTicks": 96,
            "midi": 36,
            "name": "C2",
            "ticks": 78048,
            "time": 85.279635,
            "velocity": 0.3937007874015748
          },
          {
            "duration": 0.10489499999999907,
            "durationTicks": 96,
            "midi": 36,
            "name": "C2",
            "ticks": 78144,
            "time": 85.38453,
            "velocity": 0.3937007874015748
          },
          {
            "duration": 0.10489499999999907,
            "durationTicks": 96,
            "midi": 31,
            "name": "G1",
            "ticks": 78144,
            "time": 85.38453,
            "velocity": 0.3937007874015748
          },
          {
            "duration": 0.10489499999999907,
            "durationTicks": 96,
            "midi": 33,
            "name": "A1",
            "ticks": 78144,
            "time": 85.38453,
            "velocity": 0.3937007874015748
          },
          {
            "duration": 0.10489499999999907,
            "durationTicks": 96,
            "midi": 36,
            "name": "C2",
            "ticks": 78240,
            "time": 85.489425,
            "velocity": 0.3937007874015748
          },
          {
            "duration": 0.10489499999999907,
            "durationTicks": 96,
            "midi": 31,
            "name": "G1",
            "ticks": 78240,
            "time": 85.489425,
            "velocity": 0.3937007874015748
          },
          {
            "duration": 0.10489499999999907,
            "durationTicks": 96,
            "midi": 29,
            "name": "F1",
            "ticks": 78240,
            "time": 85.489425,
            "velocity": 0.3937007874015748
          },
          {
            "duration": 0.10489499999999907,
            "durationTicks": 96,
            "midi": 29,
            "name": "F1",
            "ticks": 78336,
            "time": 85.59432,
            "velocity": 0.3937007874015748
          },
          {
            "duration": 0.10489499999999907,
            "durationTicks": 96,
            "midi": 26,
            "name": "D1",
            "ticks": 78336,
            "time": 85.59432,
            "velocity": 0.3937007874015748
          },
          {
            "duration": 0.10489499999999907,
            "durationTicks": 96,
            "midi": 31,
            "name": "G1",
            "ticks": 78336,
            "time": 85.59432,
            "velocity": 0.3937007874015748
          },
          {
            "duration": 0.10489500000001328,
            "durationTicks": 96,
            "midi": 33,
            "name": "A1",
            "ticks": 78432,
            "time": 85.699215,
            "velocity": 0.3937007874015748
          },
          {
            "duration": 0.10489500000001328,
            "durationTicks": 96,
            "midi": 26,
            "name": "D1",
            "ticks": 78432,
            "time": 85.699215,
            "velocity": 0.3937007874015748
          },
          {
            "duration": 0.10489500000001328,
            "durationTicks": 96,
            "midi": 29,
            "name": "F1",
            "ticks": 78432,
            "time": 85.699215,
            "velocity": 0.3937007874015748
          },
          {
            "duration": 0.10489499999999907,
            "durationTicks": 96,
            "midi": 33,
            "name": "A1",
            "ticks": 78528,
            "time": 85.80411000000001,
            "velocity": 0.3937007874015748
          },
          {
            "duration": 0.10489499999999907,
            "durationTicks": 96,
            "midi": 32,
            "name": "G#1",
            "ticks": 78528,
            "time": 85.80411000000001,
            "velocity": 0.3937007874015748
          },
          {
            "duration": 0.10489499999999907,
            "durationTicks": 96,
            "midi": 26,
            "name": "D1",
            "ticks": 78528,
            "time": 85.80411000000001,
            "velocity": 0.3937007874015748
          },
          {
            "duration": 0.10489499999999907,
            "durationTicks": 96,
            "midi": 33,
            "name": "A1",
            "ticks": 78624,
            "time": 85.90900500000001,
            "velocity": 0.3937007874015748
          },
          {
            "duration": 0.10489499999999907,
            "durationTicks": 96,
            "midi": 31,
            "name": "G1",
            "ticks": 78624,
            "time": 85.90900500000001,
            "velocity": 0.3937007874015748
          },
          {
            "duration": 0.10489499999999907,
            "durationTicks": 96,
            "midi": 32,
            "name": "G#1",
            "ticks": 78624,
            "time": 85.90900500000001,
            "velocity": 0.3937007874015748
          },
          {
            "duration": 0.10489499999999907,
            "durationTicks": 96,
            "midi": 38,
            "name": "D2",
            "ticks": 78720,
            "time": 86.0139,
            "velocity": 0.3937007874015748
          },
          {
            "duration": 0.10489499999999907,
            "durationTicks": 96,
            "midi": 31,
            "name": "G1",
            "ticks": 78720,
            "time": 86.0139,
            "velocity": 0.3937007874015748
          },
          {
            "duration": 0.10489499999999907,
            "durationTicks": 96,
            "midi": 32,
            "name": "G#1",
            "ticks": 78720,
            "time": 86.0139,
            "velocity": 0.3937007874015748
          },
          {
            "duration": 0.10489499999999907,
            "durationTicks": 96,
            "midi": 31,
            "name": "G1",
            "ticks": 78816,
            "time": 86.118795,
            "velocity": 0.3937007874015748
          },
          {
            "duration": 0.10489499999999907,
            "durationTicks": 96,
            "midi": 38,
            "name": "D2",
            "ticks": 78816,
            "time": 86.118795,
            "velocity": 0.3937007874015748
          },
          {
            "duration": 0.10489499999999907,
            "durationTicks": 96,
            "midi": 37,
            "name": "C#2",
            "ticks": 78816,
            "time": 86.118795,
            "velocity": 0.3937007874015748
          },
          {
            "duration": 0.10489499999999907,
            "durationTicks": 96,
            "midi": 36,
            "name": "C2",
            "ticks": 78912,
            "time": 86.22369,
            "velocity": 0.3937007874015748
          },
          {
            "duration": 0.10489499999999907,
            "durationTicks": 96,
            "midi": 38,
            "name": "D2",
            "ticks": 78912,
            "time": 86.22369,
            "velocity": 0.3937007874015748
          },
          {
            "duration": 0.10489499999999907,
            "durationTicks": 96,
            "midi": 37,
            "name": "C#2",
            "ticks": 78912,
            "time": 86.22369,
            "velocity": 0.3937007874015748
          },
          {
            "duration": 0.10489499999999907,
            "durationTicks": 96,
            "midi": 36,
            "name": "C2",
            "ticks": 79008,
            "time": 86.328585,
            "velocity": 0.3937007874015748
          },
          {
            "duration": 0.10489499999999907,
            "durationTicks": 96,
            "midi": 43,
            "name": "G2",
            "ticks": 79008,
            "time": 86.328585,
            "velocity": 0.3937007874015748
          },
          {
            "duration": 0.10489499999999907,
            "durationTicks": 96,
            "midi": 37,
            "name": "C#2",
            "ticks": 79008,
            "time": 86.328585,
            "velocity": 0.3937007874015748
          },
          {
            "duration": 0.10489499999999907,
            "durationTicks": 96,
            "midi": 42,
            "name": "F#2",
            "ticks": 79104,
            "time": 86.43348,
            "velocity": 0.3937007874015748
          },
          {
            "duration": 0.10489499999999907,
            "durationTicks": 96,
            "midi": 36,
            "name": "C2",
            "ticks": 79104,
            "time": 86.43348,
            "velocity": 0.3937007874015748
          },
          {
            "duration": 0.10489499999999907,
            "durationTicks": 96,
            "midi": 43,
            "name": "G2",
            "ticks": 79104,
            "time": 86.43348,
            "velocity": 0.3937007874015748
          },
          {
            "duration": 0.10489499999999907,
            "durationTicks": 96,
            "midi": 40,
            "name": "E2",
            "ticks": 79200,
            "time": 86.538375,
            "velocity": 0.3937007874015748
          },
          {
            "duration": 0.10489499999999907,
            "durationTicks": 96,
            "midi": 42,
            "name": "F#2",
            "ticks": 79200,
            "time": 86.538375,
            "velocity": 0.3937007874015748
          },
          {
            "duration": 0.10489499999999907,
            "durationTicks": 96,
            "midi": 43,
            "name": "G2",
            "ticks": 79200,
            "time": 86.538375,
            "velocity": 0.3937007874015748
          },
          {
            "duration": 0.10489499999999907,
            "durationTicks": 96,
            "midi": 42,
            "name": "F#2",
            "ticks": 79296,
            "time": 86.64327,
            "velocity": 0.3937007874015748
          },
          {
            "duration": 0.10489499999999907,
            "durationTicks": 96,
            "midi": 38,
            "name": "D2",
            "ticks": 79296,
            "time": 86.64327,
            "velocity": 0.3937007874015748
          },
          {
            "duration": 0.10489499999999907,
            "durationTicks": 96,
            "midi": 40,
            "name": "E2",
            "ticks": 79296,
            "time": 86.64327,
            "velocity": 0.3937007874015748
          },
          {
            "duration": 0.10489499999999907,
            "durationTicks": 96,
            "midi": 36,
            "name": "C2",
            "ticks": 79392,
            "time": 86.748165,
            "velocity": 0.3937007874015748
          },
          {
            "duration": 0.10489499999999907,
            "durationTicks": 96,
            "midi": 38,
            "name": "D2",
            "ticks": 79392,
            "time": 86.748165,
            "velocity": 0.3937007874015748
          },
          {
            "duration": 0.10489499999999907,
            "durationTicks": 96,
            "midi": 40,
            "name": "E2",
            "ticks": 79392,
            "time": 86.748165,
            "velocity": 0.3937007874015748
          },
          {
            "duration": 0.10489499999999907,
            "durationTicks": 96,
            "midi": 38,
            "name": "D2",
            "ticks": 79488,
            "time": 86.85306,
            "velocity": 0.3937007874015748
          },
          {
            "duration": 0.10489499999999907,
            "durationTicks": 96,
            "midi": 33,
            "name": "A1",
            "ticks": 79488,
            "time": 86.85306,
            "velocity": 0.3937007874015748
          },
          {
            "duration": 0.10489499999999907,
            "durationTicks": 96,
            "midi": 36,
            "name": "C2",
            "ticks": 79488,
            "time": 86.85306,
            "velocity": 0.3937007874015748
          },
          {
            "duration": 0.10489499999999907,
            "durationTicks": 96,
            "midi": 36,
            "name": "C2",
            "ticks": 79584,
            "time": 86.957955,
            "velocity": 0.3937007874015748
          },
          {
            "duration": 0.10489499999999907,
            "durationTicks": 96,
            "midi": 36,
            "name": "C2",
            "ticks": 79584,
            "time": 86.957955,
            "velocity": 0.3937007874015748
          },
          {
            "duration": 0.10489499999999907,
            "durationTicks": 96,
            "midi": 33,
            "name": "A1",
            "ticks": 79584,
            "time": 86.957955,
            "velocity": 0.3937007874015748
          },
          {
            "duration": 0.10489499999999907,
            "durationTicks": 96,
            "midi": 33,
            "name": "A1",
            "ticks": 79680,
            "time": 87.06285,
            "velocity": 0.3937007874015748
          },
          {
            "duration": 0.10489499999999907,
            "durationTicks": 96,
            "midi": 36,
            "name": "C2",
            "ticks": 79680,
            "time": 87.06285,
            "velocity": 0.3937007874015748
          },
          {
            "duration": 0.10489499999999907,
            "durationTicks": 96,
            "midi": 31,
            "name": "G1",
            "ticks": 79680,
            "time": 87.06285,
            "velocity": 0.3937007874015748
          },
          {
            "duration": 0.10489499999999907,
            "durationTicks": 96,
            "midi": 31,
            "name": "G1",
            "ticks": 79776,
            "time": 87.167745,
            "velocity": 0.3937007874015748
          },
          {
            "duration": 0.10489499999999907,
            "durationTicks": 96,
            "midi": 29,
            "name": "F1",
            "ticks": 79776,
            "time": 87.167745,
            "velocity": 0.3937007874015748
          },
          {
            "duration": 0.10489499999999907,
            "durationTicks": 96,
            "midi": 36,
            "name": "C2",
            "ticks": 79776,
            "time": 87.167745,
            "velocity": 0.3937007874015748
          },
          {
            "duration": 0.10489500000001328,
            "durationTicks": 96,
            "midi": 31,
            "name": "G1",
            "ticks": 79872,
            "time": 87.27264,
            "velocity": 0.3937007874015748
          },
          {
            "duration": 0.10489500000001328,
            "durationTicks": 96,
            "midi": 29,
            "name": "F1",
            "ticks": 79872,
            "time": 87.27264,
            "velocity": 0.3937007874015748
          },
          {
            "duration": 0.10489500000001328,
            "durationTicks": 96,
            "midi": 26,
            "name": "D1",
            "ticks": 79872,
            "time": 87.27264,
            "velocity": 0.3937007874015748
          },
          {
            "duration": 0.10489499999999907,
            "durationTicks": 96,
            "midi": 33,
            "name": "A1",
            "ticks": 79968,
            "time": 87.37753500000001,
            "velocity": 0.3937007874015748
          },
          {
            "duration": 0.10489499999999907,
            "durationTicks": 96,
            "midi": 29,
            "name": "F1",
            "ticks": 79968,
            "time": 87.37753500000001,
            "velocity": 0.3937007874015748
          },
          {
            "duration": 0.10489499999999907,
            "durationTicks": 96,
            "midi": 26,
            "name": "D1",
            "ticks": 79968,
            "time": 87.37753500000001,
            "velocity": 0.3937007874015748
          },
          {
            "duration": 0.10489499999999907,
            "durationTicks": 96,
            "midi": 33,
            "name": "A1",
            "ticks": 80064,
            "time": 87.48243000000001,
            "velocity": 0.3937007874015748
          },
          {
            "duration": 0.10489499999999907,
            "durationTicks": 96,
            "midi": 32,
            "name": "G#1",
            "ticks": 80064,
            "time": 87.48243000000001,
            "velocity": 0.3937007874015748
          },
          {
            "duration": 0.10489499999999907,
            "durationTicks": 96,
            "midi": 26,
            "name": "D1",
            "ticks": 80064,
            "time": 87.48243000000001,
            "velocity": 0.3937007874015748
          },
          {
            "duration": 0.10489499999999907,
            "durationTicks": 96,
            "midi": 33,
            "name": "A1",
            "ticks": 80160,
            "time": 87.587325,
            "velocity": 0.3937007874015748
          },
          {
            "duration": 0.10489499999999907,
            "durationTicks": 96,
            "midi": 31,
            "name": "G1",
            "ticks": 80160,
            "time": 87.587325,
            "velocity": 0.3937007874015748
          },
          {
            "duration": 0.10489499999999907,
            "durationTicks": 96,
            "midi": 32,
            "name": "G#1",
            "ticks": 80160,
            "time": 87.587325,
            "velocity": 0.3937007874015748
          },
          {
            "duration": 0.10489499999999907,
            "durationTicks": 96,
            "midi": 31,
            "name": "G1",
            "ticks": 80256,
            "time": 87.69222,
            "velocity": 0.3937007874015748
          },
          {
            "duration": 0.10489499999999907,
            "durationTicks": 96,
            "midi": 32,
            "name": "G#1",
            "ticks": 80256,
            "time": 87.69222,
            "velocity": 0.3937007874015748
          },
          {
            "duration": 0.10489499999999907,
            "durationTicks": 96,
            "midi": 38,
            "name": "D2",
            "ticks": 80256,
            "time": 87.69222,
            "velocity": 0.3937007874015748
          },
          {
            "duration": 0.10489499999999907,
            "durationTicks": 96,
            "midi": 38,
            "name": "D2",
            "ticks": 80352,
            "time": 87.797115,
            "velocity": 0.3937007874015748
          },
          {
            "duration": 0.10489499999999907,
            "durationTicks": 96,
            "midi": 37,
            "name": "C#2",
            "ticks": 80352,
            "time": 87.797115,
            "velocity": 0.3937007874015748
          },
          {
            "duration": 0.10489499999999907,
            "durationTicks": 96,
            "midi": 31,
            "name": "G1",
            "ticks": 80352,
            "time": 87.797115,
            "velocity": 0.3937007874015748
          },
          {
            "duration": 0.10489499999999907,
            "durationTicks": 96,
            "midi": 37,
            "name": "C#2",
            "ticks": 80448,
            "time": 87.90201,
            "velocity": 0.3937007874015748
          },
          {
            "duration": 0.10489499999999907,
            "durationTicks": 96,
            "midi": 36,
            "name": "C2",
            "ticks": 80448,
            "time": 87.90201,
            "velocity": 0.3937007874015748
          },
          {
            "duration": 0.10489499999999907,
            "durationTicks": 96,
            "midi": 38,
            "name": "D2",
            "ticks": 80448,
            "time": 87.90201,
            "velocity": 0.3937007874015748
          },
          {
            "duration": 0.10489499999999907,
            "durationTicks": 96,
            "midi": 37,
            "name": "C#2",
            "ticks": 80544,
            "time": 88.006905,
            "velocity": 0.3937007874015748
          },
          {
            "duration": 0.10489499999999907,
            "durationTicks": 96,
            "midi": 43,
            "name": "G2",
            "ticks": 80544,
            "time": 88.006905,
            "velocity": 0.3937007874015748
          },
          {
            "duration": 0.10489499999999907,
            "durationTicks": 96,
            "midi": 36,
            "name": "C2",
            "ticks": 80544,
            "time": 88.006905,
            "velocity": 0.3937007874015748
          },
          {
            "duration": 0.10489499999999907,
            "durationTicks": 96,
            "midi": 36,
            "name": "C2",
            "ticks": 80640,
            "time": 88.1118,
            "velocity": 0.3937007874015748
          },
          {
            "duration": 0.10489499999999907,
            "durationTicks": 96,
            "midi": 43,
            "name": "G2",
            "ticks": 80640,
            "time": 88.1118,
            "velocity": 0.3937007874015748
          },
          {
            "duration": 0.10489499999999907,
            "durationTicks": 96,
            "midi": 42,
            "name": "F#2",
            "ticks": 80640,
            "time": 88.1118,
            "velocity": 0.3937007874015748
          },
          {
            "duration": 0.10489499999999907,
            "durationTicks": 96,
            "midi": 42,
            "name": "F#2",
            "ticks": 80736,
            "time": 88.216695,
            "velocity": 0.3937007874015748
          },
          {
            "duration": 0.10489499999999907,
            "durationTicks": 96,
            "midi": 40,
            "name": "E2",
            "ticks": 80736,
            "time": 88.216695,
            "velocity": 0.3937007874015748
          },
          {
            "duration": 0.10489499999999907,
            "durationTicks": 96,
            "midi": 43,
            "name": "G2",
            "ticks": 80736,
            "time": 88.216695,
            "velocity": 0.3937007874015748
          },
          {
            "duration": 0.10489499999999907,
            "durationTicks": 96,
            "midi": 38,
            "name": "D2",
            "ticks": 80832,
            "time": 88.32159,
            "velocity": 0.3937007874015748
          },
          {
            "duration": 0.10489499999999907,
            "durationTicks": 96,
            "midi": 42,
            "name": "F#2",
            "ticks": 80832,
            "time": 88.32159,
            "velocity": 0.3937007874015748
          },
          {
            "duration": 0.10489499999999907,
            "durationTicks": 96,
            "midi": 40,
            "name": "E2",
            "ticks": 80832,
            "time": 88.32159,
            "velocity": 0.3937007874015748
          },
          {
            "duration": 0.10489499999999907,
            "durationTicks": 96,
            "midi": 36,
            "name": "C2",
            "ticks": 80928,
            "time": 88.426485,
            "velocity": 0.3937007874015748
          },
          {
            "duration": 0.10489499999999907,
            "durationTicks": 96,
            "midi": 38,
            "name": "D2",
            "ticks": 80928,
            "time": 88.426485,
            "velocity": 0.3937007874015748
          },
          {
            "duration": 0.10489499999999907,
            "durationTicks": 96,
            "midi": 40,
            "name": "E2",
            "ticks": 80928,
            "time": 88.426485,
            "velocity": 0.3937007874015748
          },
          {
            "duration": 0.10489499999999907,
            "durationTicks": 96,
            "midi": 38,
            "name": "D2",
            "ticks": 81024,
            "time": 88.53138,
            "velocity": 0.3937007874015748
          },
          {
            "duration": 0.10489499999999907,
            "durationTicks": 96,
            "midi": 33,
            "name": "A1",
            "ticks": 81024,
            "time": 88.53138,
            "velocity": 0.3937007874015748
          },
          {
            "duration": 0.10489499999999907,
            "durationTicks": 96,
            "midi": 36,
            "name": "C2",
            "ticks": 81024,
            "time": 88.53138,
            "velocity": 0.3937007874015748
          },
          {
            "duration": 0.10489499999999907,
            "durationTicks": 96,
            "midi": 36,
            "name": "C2",
            "ticks": 81120,
            "time": 88.636275,
            "velocity": 0.3937007874015748
          },
          {
            "duration": 0.10489499999999907,
            "durationTicks": 96,
            "midi": 33,
            "name": "A1",
            "ticks": 81120,
            "time": 88.636275,
            "velocity": 0.3937007874015748
          },
          {
            "duration": 0.10489499999999907,
            "durationTicks": 96,
            "midi": 36,
            "name": "C2",
            "ticks": 81120,
            "time": 88.636275,
            "velocity": 0.3937007874015748
          },
          {
            "duration": 0.10489499999999907,
            "durationTicks": 96,
            "midi": 36,
            "name": "C2",
            "ticks": 81216,
            "time": 88.74117,
            "velocity": 0.3937007874015748
          },
          {
            "duration": 0.10489499999999907,
            "durationTicks": 96,
            "midi": 33,
            "name": "A1",
            "ticks": 81216,
            "time": 88.74117,
            "velocity": 0.3937007874015748
          },
          {
            "duration": 0.10489499999999907,
            "durationTicks": 96,
            "midi": 31,
            "name": "G1",
            "ticks": 81216,
            "time": 88.74117,
            "velocity": 0.3937007874015748
          },
          {
            "duration": 0.10489499999999907,
            "durationTicks": 96,
            "midi": 36,
            "name": "C2",
            "ticks": 81312,
            "time": 88.846065,
            "velocity": 0.3937007874015748
          },
          {
            "duration": 0.10489499999999907,
            "durationTicks": 96,
            "midi": 31,
            "name": "G1",
            "ticks": 81312,
            "time": 88.846065,
            "velocity": 0.3937007874015748
          },
          {
            "duration": 0.10489499999999907,
            "durationTicks": 96,
            "midi": 29,
            "name": "F1",
            "ticks": 81312,
            "time": 88.846065,
            "velocity": 0.3937007874015748
          },
          {
            "duration": 0.10489500000001328,
            "durationTicks": 96,
            "midi": 26,
            "name": "D1",
            "ticks": 81408,
            "time": 88.95096,
            "velocity": 0.3937007874015748
          },
          {
            "duration": 0.10489500000001328,
            "durationTicks": 96,
            "midi": 31,
            "name": "G1",
            "ticks": 81408,
            "time": 88.95096,
            "velocity": 0.3937007874015748
          },
          {
            "duration": 0.10489500000001328,
            "durationTicks": 96,
            "midi": 29,
            "name": "F1",
            "ticks": 81408,
            "time": 88.95096,
            "velocity": 0.3937007874015748
          },
          {
            "duration": 0.10489499999999907,
            "durationTicks": 96,
            "midi": 33,
            "name": "A1",
            "ticks": 81504,
            "time": 89.05585500000001,
            "velocity": 0.3937007874015748
          },
          {
            "duration": 0.10489499999999907,
            "durationTicks": 96,
            "midi": 29,
            "name": "F1",
            "ticks": 81504,
            "time": 89.05585500000001,
            "velocity": 0.3937007874015748
          },
          {
            "duration": 0.10489499999999907,
            "durationTicks": 96,
            "midi": 26,
            "name": "D1",
            "ticks": 81504,
            "time": 89.05585500000001,
            "velocity": 0.3937007874015748
          },
          {
            "duration": 0.10489499999999907,
            "durationTicks": 96,
            "midi": 33,
            "name": "A1",
            "ticks": 81600,
            "time": 89.16075000000001,
            "velocity": 0.3937007874015748
          },
          {
            "duration": 0.10489499999999907,
            "durationTicks": 96,
            "midi": 32,
            "name": "G#1",
            "ticks": 81600,
            "time": 89.16075000000001,
            "velocity": 0.3937007874015748
          },
          {
            "duration": 0.10489499999999907,
            "durationTicks": 96,
            "midi": 26,
            "name": "D1",
            "ticks": 81600,
            "time": 89.16075000000001,
            "velocity": 0.3937007874015748
          },
          {
            "duration": 0.10489499999999907,
            "durationTicks": 96,
            "midi": 31,
            "name": "G1",
            "ticks": 81696,
            "time": 89.265645,
            "velocity": 0.3937007874015748
          },
          {
            "duration": 0.10489499999999907,
            "durationTicks": 96,
            "midi": 33,
            "name": "A1",
            "ticks": 81696,
            "time": 89.265645,
            "velocity": 0.3937007874015748
          },
          {
            "duration": 0.10489499999999907,
            "durationTicks": 96,
            "midi": 32,
            "name": "G#1",
            "ticks": 81696,
            "time": 89.265645,
            "velocity": 0.3937007874015748
          },
          {
            "duration": 0.10489499999999907,
            "durationTicks": 96,
            "midi": 31,
            "name": "G1",
            "ticks": 81792,
            "time": 89.37054,
            "velocity": 0.3937007874015748
          },
          {
            "duration": 0.10489499999999907,
            "durationTicks": 96,
            "midi": 38,
            "name": "D2",
            "ticks": 81792,
            "time": 89.37054,
            "velocity": 0.3937007874015748
          },
          {
            "duration": 0.10489499999999907,
            "durationTicks": 96,
            "midi": 32,
            "name": "G#1",
            "ticks": 81792,
            "time": 89.37054,
            "velocity": 0.3937007874015748
          },
          {
            "duration": 0.10489499999999907,
            "durationTicks": 96,
            "midi": 37,
            "name": "C#2",
            "ticks": 81888,
            "time": 89.475435,
            "velocity": 0.3937007874015748
          },
          {
            "duration": 0.10489499999999907,
            "durationTicks": 96,
            "midi": 38,
            "name": "D2",
            "ticks": 81888,
            "time": 89.475435,
            "velocity": 0.3937007874015748
          },
          {
            "duration": 0.10489499999999907,
            "durationTicks": 96,
            "midi": 31,
            "name": "G1",
            "ticks": 81888,
            "time": 89.475435,
            "velocity": 0.3937007874015748
          },
          {
            "duration": 0.10489499999999907,
            "durationTicks": 96,
            "midi": 38,
            "name": "D2",
            "ticks": 81984,
            "time": 89.58033,
            "velocity": 0.3937007874015748
          },
          {
            "duration": 0.10489499999999907,
            "durationTicks": 96,
            "midi": 36,
            "name": "C2",
            "ticks": 81984,
            "time": 89.58033,
            "velocity": 0.3937007874015748
          },
          {
            "duration": 0.10489499999999907,
            "durationTicks": 96,
            "midi": 37,
            "name": "C#2",
            "ticks": 81984,
            "time": 89.58033,
            "velocity": 0.3937007874015748
          },
          {
            "duration": 0.10489499999999907,
            "durationTicks": 96,
            "midi": 36,
            "name": "C2",
            "ticks": 82080,
            "time": 89.685225,
            "velocity": 0.3937007874015748
          },
          {
            "duration": 0.10489499999999907,
            "durationTicks": 96,
            "midi": 37,
            "name": "C#2",
            "ticks": 82080,
            "time": 89.685225,
            "velocity": 0.3937007874015748
          },
          {
            "duration": 0.10489499999999907,
            "durationTicks": 96,
            "midi": 43,
            "name": "G2",
            "ticks": 82080,
            "time": 89.685225,
            "velocity": 0.3937007874015748
          },
          {
            "duration": 0.10489499999999907,
            "durationTicks": 96,
            "midi": 42,
            "name": "F#2",
            "ticks": 82176,
            "time": 89.79012,
            "velocity": 0.3937007874015748
          },
          {
            "duration": 0.10489499999999907,
            "durationTicks": 96,
            "midi": 36,
            "name": "C2",
            "ticks": 82176,
            "time": 89.79012,
            "velocity": 0.3937007874015748
          },
          {
            "duration": 0.10489499999999907,
            "durationTicks": 96,
            "midi": 43,
            "name": "G2",
            "ticks": 82176,
            "time": 89.79012,
            "velocity": 0.3937007874015748
          },
          {
            "duration": 0.10489499999999907,
            "durationTicks": 96,
            "midi": 43,
            "name": "G2",
            "ticks": 82272,
            "time": 89.895015,
            "velocity": 0.3937007874015748
          },
          {
            "duration": 0.10489499999999907,
            "durationTicks": 96,
            "midi": 40,
            "name": "E2",
            "ticks": 82272,
            "time": 89.895015,
            "velocity": 0.3937007874015748
          },
          {
            "duration": 0.10489499999999907,
            "durationTicks": 96,
            "midi": 42,
            "name": "F#2",
            "ticks": 82272,
            "time": 89.895015,
            "velocity": 0.3937007874015748
          },
          {
            "duration": 0.10489499999999907,
            "durationTicks": 96,
            "midi": 42,
            "name": "F#2",
            "ticks": 82368,
            "time": 89.99991,
            "velocity": 0.3937007874015748
          },
          {
            "duration": 0.10489499999999907,
            "durationTicks": 96,
            "midi": 38,
            "name": "D2",
            "ticks": 82368,
            "time": 89.99991,
            "velocity": 0.3937007874015748
          },
          {
            "duration": 0.10489499999999907,
            "durationTicks": 96,
            "midi": 40,
            "name": "E2",
            "ticks": 82368,
            "time": 89.99991,
            "velocity": 0.3937007874015748
          },
          {
            "duration": 0.10489499999999907,
            "durationTicks": 96,
            "midi": 40,
            "name": "E2",
            "ticks": 82464,
            "time": 90.104805,
            "velocity": 0.3937007874015748
          },
          {
            "duration": 0.10489499999999907,
            "durationTicks": 96,
            "midi": 36,
            "name": "C2",
            "ticks": 82464,
            "time": 90.104805,
            "velocity": 0.3937007874015748
          },
          {
            "duration": 0.10489499999999907,
            "durationTicks": 96,
            "midi": 38,
            "name": "D2",
            "ticks": 82464,
            "time": 90.104805,
            "velocity": 0.3937007874015748
          },
          {
            "duration": 0.10489499999999907,
            "durationTicks": 96,
            "midi": 33,
            "name": "A1",
            "ticks": 82560,
            "time": 90.2097,
            "velocity": 0.3937007874015748
          },
          {
            "duration": 0.10489499999999907,
            "durationTicks": 96,
            "midi": 36,
            "name": "C2",
            "ticks": 82560,
            "time": 90.2097,
            "velocity": 0.3937007874015748
          },
          {
            "duration": 0.10489499999999907,
            "durationTicks": 96,
            "midi": 38,
            "name": "D2",
            "ticks": 82560,
            "time": 90.2097,
            "velocity": 0.3937007874015748
          },
          {
            "duration": 0.10489499999999907,
            "durationTicks": 96,
            "midi": 36,
            "name": "C2",
            "ticks": 82656,
            "time": 90.314595,
            "velocity": 0.3937007874015748
          },
          {
            "duration": 0.10489499999999907,
            "durationTicks": 96,
            "midi": 36,
            "name": "C2",
            "ticks": 82656,
            "time": 90.314595,
            "velocity": 0.3937007874015748
          },
          {
            "duration": 0.10489499999999907,
            "durationTicks": 96,
            "midi": 33,
            "name": "A1",
            "ticks": 82656,
            "time": 90.314595,
            "velocity": 0.3937007874015748
          },
          {
            "duration": 0.10489499999999907,
            "durationTicks": 96,
            "midi": 36,
            "name": "C2",
            "ticks": 82752,
            "time": 90.41949,
            "velocity": 0.3937007874015748
          },
          {
            "duration": 0.10489499999999907,
            "durationTicks": 96,
            "midi": 33,
            "name": "A1",
            "ticks": 82752,
            "time": 90.41949,
            "velocity": 0.3937007874015748
          },
          {
            "duration": 0.10489499999999907,
            "durationTicks": 96,
            "midi": 31,
            "name": "G1",
            "ticks": 82752,
            "time": 90.41949,
            "velocity": 0.3937007874015748
          },
          {
            "duration": 0.10489500000001328,
            "durationTicks": 96,
            "midi": 36,
            "name": "C2",
            "ticks": 82848,
            "time": 90.524385,
            "velocity": 0.3937007874015748
          },
          {
            "duration": 0.10489500000001328,
            "durationTicks": 96,
            "midi": 31,
            "name": "G1",
            "ticks": 82848,
            "time": 90.524385,
            "velocity": 0.3937007874015748
          },
          {
            "duration": 0.10489500000001328,
            "durationTicks": 96,
            "midi": 29,
            "name": "F1",
            "ticks": 82848,
            "time": 90.524385,
            "velocity": 0.3937007874015748
          },
          {
            "duration": 0.10489499999999907,
            "durationTicks": 96,
            "midi": 31,
            "name": "G1",
            "ticks": 82944,
            "time": 90.62928000000001,
            "velocity": 0.3937007874015748
          },
          {
            "duration": 0.10489499999999907,
            "durationTicks": 96,
            "midi": 29,
            "name": "F1",
            "ticks": 82944,
            "time": 90.62928000000001,
            "velocity": 0.3937007874015748
          },
          {
            "duration": 0.10489499999999907,
            "durationTicks": 96,
            "midi": 26,
            "name": "D1",
            "ticks": 82944,
            "time": 90.62928000000001,
            "velocity": 0.3937007874015748
          },
          {
            "duration": 0.10489499999999907,
            "durationTicks": 96,
            "midi": 29,
            "name": "F1",
            "ticks": 83040,
            "time": 90.73417500000001,
            "velocity": 0.3937007874015748
          },
          {
            "duration": 0.10489499999999907,
            "durationTicks": 96,
            "midi": 33,
            "name": "A1",
            "ticks": 83040,
            "time": 90.73417500000001,
            "velocity": 0.3937007874015748
          },
          {
            "duration": 0.10489499999999907,
            "durationTicks": 96,
            "midi": 26,
            "name": "D1",
            "ticks": 83040,
            "time": 90.73417500000001,
            "velocity": 0.3937007874015748
          },
          {
            "duration": 0.10489499999999907,
            "durationTicks": 96,
            "midi": 26,
            "name": "D1",
            "ticks": 83136,
            "time": 90.83907,
            "velocity": 0.3937007874015748
          },
          {
            "duration": 0.10489499999999907,
            "durationTicks": 96,
            "midi": 33,
            "name": "A1",
            "ticks": 83136,
            "time": 90.83907,
            "velocity": 0.3937007874015748
          },
          {
            "duration": 0.10489499999999907,
            "durationTicks": 96,
            "midi": 32,
            "name": "G#1",
            "ticks": 83136,
            "time": 90.83907,
            "velocity": 0.3937007874015748
          },
          {
            "duration": 0.10489499999999907,
            "durationTicks": 96,
            "midi": 32,
            "name": "G#1",
            "ticks": 83232,
            "time": 90.943965,
            "velocity": 0.3937007874015748
          },
          {
            "duration": 0.10489499999999907,
            "durationTicks": 96,
            "midi": 33,
            "name": "A1",
            "ticks": 83232,
            "time": 90.943965,
            "velocity": 0.3937007874015748
          },
          {
            "duration": 0.10489499999999907,
            "durationTicks": 96,
            "midi": 31,
            "name": "G1",
            "ticks": 83232,
            "time": 90.943965,
            "velocity": 0.3937007874015748
          },
          {
            "duration": 0.10489499999999907,
            "durationTicks": 96,
            "midi": 32,
            "name": "G#1",
            "ticks": 83328,
            "time": 91.04886,
            "velocity": 0.3937007874015748
          },
          {
            "duration": 0.10489499999999907,
            "durationTicks": 96,
            "midi": 38,
            "name": "D2",
            "ticks": 83328,
            "time": 91.04886,
            "velocity": 0.3937007874015748
          },
          {
            "duration": 0.10489499999999907,
            "durationTicks": 96,
            "midi": 31,
            "name": "G1",
            "ticks": 83328,
            "time": 91.04886,
            "velocity": 0.3937007874015748
          },
          {
            "duration": 0.10489499999999907,
            "durationTicks": 96,
            "midi": 38,
            "name": "D2",
            "ticks": 83424,
            "time": 91.153755,
            "velocity": 0.3937007874015748
          },
          {
            "duration": 0.10489499999999907,
            "durationTicks": 96,
            "midi": 31,
            "name": "G1",
            "ticks": 83424,
            "time": 91.153755,
            "velocity": 0.3937007874015748
          },
          {
            "duration": 0.10489499999999907,
            "durationTicks": 96,
            "midi": 37,
            "name": "C#2",
            "ticks": 83424,
            "time": 91.153755,
            "velocity": 0.3937007874015748
          },
          {
            "duration": 0.10489499999999907,
            "durationTicks": 96,
            "midi": 38,
            "name": "D2",
            "ticks": 83520,
            "time": 91.25865,
            "velocity": 0.3937007874015748
          },
          {
            "duration": 0.10489499999999907,
            "durationTicks": 96,
            "midi": 36,
            "name": "C2",
            "ticks": 83520,
            "time": 91.25865,
            "velocity": 0.3937007874015748
          },
          {
            "duration": 0.10489499999999907,
            "durationTicks": 96,
            "midi": 37,
            "name": "C#2",
            "ticks": 83520,
            "time": 91.25865,
            "velocity": 0.3937007874015748
          },
          {
            "duration": 0.10489499999999907,
            "durationTicks": 96,
            "midi": 36,
            "name": "C2",
            "ticks": 83616,
            "time": 91.363545,
            "velocity": 0.3937007874015748
          },
          {
            "duration": 0.10489499999999907,
            "durationTicks": 96,
            "midi": 43,
            "name": "G2",
            "ticks": 83616,
            "time": 91.363545,
            "velocity": 0.3937007874015748
          },
          {
            "duration": 0.10489499999999907,
            "durationTicks": 96,
            "midi": 37,
            "name": "C#2",
            "ticks": 83616,
            "time": 91.363545,
            "velocity": 0.3937007874015748
          },
          {
            "duration": 0.10489499999999907,
            "durationTicks": 96,
            "midi": 36,
            "name": "C2",
            "ticks": 83712,
            "time": 91.46844,
            "velocity": 0.3937007874015748
          },
          {
            "duration": 0.10489499999999907,
            "durationTicks": 96,
            "midi": 42,
            "name": "F#2",
            "ticks": 83712,
            "time": 91.46844,
            "velocity": 0.3937007874015748
          },
          {
            "duration": 0.10489499999999907,
            "durationTicks": 96,
            "midi": 43,
            "name": "G2",
            "ticks": 83712,
            "time": 91.46844,
            "velocity": 0.3937007874015748
          },
          {
            "duration": 0.10489499999999907,
            "durationTicks": 96,
            "midi": 40,
            "name": "E2",
            "ticks": 83808,
            "time": 91.573335,
            "velocity": 0.3937007874015748
          },
          {
            "duration": 0.10489499999999907,
            "durationTicks": 96,
            "midi": 43,
            "name": "G2",
            "ticks": 83808,
            "time": 91.573335,
            "velocity": 0.3937007874015748
          },
          {
            "duration": 0.10489499999999907,
            "durationTicks": 96,
            "midi": 42,
            "name": "F#2",
            "ticks": 83808,
            "time": 91.573335,
            "velocity": 0.3937007874015748
          },
          {
            "duration": 0.10489499999999907,
            "durationTicks": 96,
            "midi": 40,
            "name": "E2",
            "ticks": 83904,
            "time": 91.67823,
            "velocity": 0.3937007874015748
          },
          {
            "duration": 0.10489499999999907,
            "durationTicks": 96,
            "midi": 38,
            "name": "D2",
            "ticks": 83904,
            "time": 91.67823,
            "velocity": 0.3937007874015748
          },
          {
            "duration": 0.10489499999999907,
            "durationTicks": 96,
            "midi": 42,
            "name": "F#2",
            "ticks": 83904,
            "time": 91.67823,
            "velocity": 0.3937007874015748
          },
          {
            "duration": 0.10489499999999907,
            "durationTicks": 96,
            "midi": 40,
            "name": "E2",
            "ticks": 84000,
            "time": 91.783125,
            "velocity": 0.3937007874015748
          },
          {
            "duration": 0.10489499999999907,
            "durationTicks": 96,
            "midi": 38,
            "name": "D2",
            "ticks": 84000,
            "time": 91.783125,
            "velocity": 0.3937007874015748
          },
          {
            "duration": 0.10489499999999907,
            "durationTicks": 96,
            "midi": 36,
            "name": "C2",
            "ticks": 84000,
            "time": 91.783125,
            "velocity": 0.3937007874015748
          },
          {
            "duration": 0.10489499999999907,
            "durationTicks": 96,
            "midi": 36,
            "name": "C2",
            "ticks": 84096,
            "time": 91.88802,
            "velocity": 0.3937007874015748
          },
          {
            "duration": 0.10489499999999907,
            "durationTicks": 96,
            "midi": 38,
            "name": "D2",
            "ticks": 84096,
            "time": 91.88802,
            "velocity": 0.3937007874015748
          },
          {
            "duration": 0.10489499999999907,
            "durationTicks": 96,
            "midi": 33,
            "name": "A1",
            "ticks": 84096,
            "time": 91.88802,
            "velocity": 0.3937007874015748
          },
          {
            "duration": 0.10489499999999907,
            "durationTicks": 96,
            "midi": 36,
            "name": "C2",
            "ticks": 84192,
            "time": 91.992915,
            "velocity": 0.3937007874015748
          },
          {
            "duration": 0.10489499999999907,
            "durationTicks": 96,
            "midi": 36,
            "name": "C2",
            "ticks": 84192,
            "time": 91.992915,
            "velocity": 0.3937007874015748
          },
          {
            "duration": 0.10489499999999907,
            "durationTicks": 96,
            "midi": 33,
            "name": "A1",
            "ticks": 84192,
            "time": 91.992915,
            "velocity": 0.3937007874015748
          },
          {
            "duration": 0.10489500000001328,
            "durationTicks": 96,
            "midi": 33,
            "name": "A1",
            "ticks": 84288,
            "time": 92.09781,
            "velocity": 0.3937007874015748
          },
          {
            "duration": 0.10489500000001328,
            "durationTicks": 96,
            "midi": 31,
            "name": "G1",
            "ticks": 84288,
            "time": 92.09781,
            "velocity": 0.3937007874015748
          },
          {
            "duration": 0.10489500000001328,
            "durationTicks": 96,
            "midi": 36,
            "name": "C2",
            "ticks": 84288,
            "time": 92.09781,
            "velocity": 0.3937007874015748
          },
          {
            "duration": 0.10489499999999907,
            "durationTicks": 96,
            "midi": 29,
            "name": "F1",
            "ticks": 84384,
            "time": 92.20270500000001,
            "velocity": 0.3937007874015748
          },
          {
            "duration": 0.10489499999999907,
            "durationTicks": 96,
            "midi": 31,
            "name": "G1",
            "ticks": 84384,
            "time": 92.20270500000001,
            "velocity": 0.3937007874015748
          },
          {
            "duration": 0.10489499999999907,
            "durationTicks": 96,
            "midi": 36,
            "name": "C2",
            "ticks": 84384,
            "time": 92.20270500000001,
            "velocity": 0.3937007874015748
          },
          {
            "duration": 0.10489499999999907,
            "durationTicks": 96,
            "midi": 29,
            "name": "F1",
            "ticks": 84480,
            "time": 92.30760000000001,
            "velocity": 0.3937007874015748
          },
          {
            "duration": 0.10489499999999907,
            "durationTicks": 96,
            "midi": 26,
            "name": "D1",
            "ticks": 84480,
            "time": 92.30760000000001,
            "velocity": 0.3937007874015748
          },
          {
            "duration": 0.10489499999999907,
            "durationTicks": 96,
            "midi": 31,
            "name": "G1",
            "ticks": 84480,
            "time": 92.30760000000001,
            "velocity": 0.3937007874015748
          },
          {
            "duration": 0.10489499999999907,
            "durationTicks": 96,
            "midi": 26,
            "name": "D1",
            "ticks": 84576,
            "time": 92.412495,
            "velocity": 0.3937007874015748
          },
          {
            "duration": 0.10489499999999907,
            "durationTicks": 96,
            "midi": 29,
            "name": "F1",
            "ticks": 84576,
            "time": 92.412495,
            "velocity": 0.3937007874015748
          },
          {
            "duration": 0.10489499999999907,
            "durationTicks": 96,
            "midi": 33,
            "name": "A1",
            "ticks": 84576,
            "time": 92.412495,
            "velocity": 0.3937007874015748
          },
          {
            "duration": 0.10489499999999907,
            "durationTicks": 96,
            "midi": 32,
            "name": "G#1",
            "ticks": 84672,
            "time": 92.51739,
            "velocity": 0.3937007874015748
          },
          {
            "duration": 0.10489499999999907,
            "durationTicks": 96,
            "midi": 26,
            "name": "D1",
            "ticks": 84672,
            "time": 92.51739,
            "velocity": 0.3937007874015748
          },
          {
            "duration": 0.10489499999999907,
            "durationTicks": 96,
            "midi": 33,
            "name": "A1",
            "ticks": 84672,
            "time": 92.51739,
            "velocity": 0.3937007874015748
          },
          {
            "duration": 0.10489499999999907,
            "durationTicks": 96,
            "midi": 31,
            "name": "G1",
            "ticks": 84768,
            "time": 92.622285,
            "velocity": 0.3937007874015748
          },
          {
            "duration": 0.10489499999999907,
            "durationTicks": 96,
            "midi": 33,
            "name": "A1",
            "ticks": 84768,
            "time": 92.622285,
            "velocity": 0.3937007874015748
          },
          {
            "duration": 0.10489499999999907,
            "durationTicks": 96,
            "midi": 32,
            "name": "G#1",
            "ticks": 84768,
            "time": 92.622285,
            "velocity": 0.3937007874015748
          },
          {
            "duration": 0.10489499999999907,
            "durationTicks": 96,
            "midi": 31,
            "name": "G1",
            "ticks": 84864,
            "time": 92.72718,
            "velocity": 0.3937007874015748
          },
          {
            "duration": 0.10489499999999907,
            "durationTicks": 96,
            "midi": 32,
            "name": "G#1",
            "ticks": 84864,
            "time": 92.72718,
            "velocity": 0.3937007874015748
          },
          {
            "duration": 0.10489499999999907,
            "durationTicks": 96,
            "midi": 38,
            "name": "D2",
            "ticks": 84864,
            "time": 92.72718,
            "velocity": 0.3937007874015748
          },
          {
            "duration": 0.10489499999999907,
            "durationTicks": 96,
            "midi": 37,
            "name": "C#2",
            "ticks": 84960,
            "time": 92.832075,
            "velocity": 0.3937007874015748
          },
          {
            "duration": 0.10489499999999907,
            "durationTicks": 96,
            "midi": 31,
            "name": "G1",
            "ticks": 84960,
            "time": 92.832075,
            "velocity": 0.3937007874015748
          },
          {
            "duration": 0.10489499999999907,
            "durationTicks": 96,
            "midi": 38,
            "name": "D2",
            "ticks": 84960,
            "time": 92.832075,
            "velocity": 0.3937007874015748
          },
          {
            "duration": 0.10489499999999907,
            "durationTicks": 96,
            "midi": 38,
            "name": "D2",
            "ticks": 85056,
            "time": 92.93697,
            "velocity": 0.3937007874015748
          },
          {
            "duration": 0.10489499999999907,
            "durationTicks": 96,
            "midi": 36,
            "name": "C2",
            "ticks": 85056,
            "time": 92.93697,
            "velocity": 0.3937007874015748
          },
          {
            "duration": 0.10489499999999907,
            "durationTicks": 96,
            "midi": 37,
            "name": "C#2",
            "ticks": 85056,
            "time": 92.93697,
            "velocity": 0.3937007874015748
          },
          {
            "duration": 0.10489499999999907,
            "durationTicks": 96,
            "midi": 36,
            "name": "C2",
            "ticks": 85152,
            "time": 93.041865,
            "velocity": 0.3937007874015748
          },
          {
            "duration": 0.10489499999999907,
            "durationTicks": 96,
            "midi": 43,
            "name": "G2",
            "ticks": 85152,
            "time": 93.041865,
            "velocity": 0.3937007874015748
          },
          {
            "duration": 0.10489499999999907,
            "durationTicks": 96,
            "midi": 37,
            "name": "C#2",
            "ticks": 85152,
            "time": 93.041865,
            "velocity": 0.3937007874015748
          },
          {
            "duration": 0.10489499999999907,
            "durationTicks": 96,
            "midi": 42,
            "name": "F#2",
            "ticks": 85248,
            "time": 93.14676,
            "velocity": 0.3937007874015748
          },
          {
            "duration": 0.10489499999999907,
            "durationTicks": 96,
            "midi": 43,
            "name": "G2",
            "ticks": 85248,
            "time": 93.14676,
            "velocity": 0.3937007874015748
          },
          {
            "duration": 0.10489499999999907,
            "durationTicks": 96,
            "midi": 36,
            "name": "C2",
            "ticks": 85248,
            "time": 93.14676,
            "velocity": 0.3937007874015748
          },
          {
            "duration": 0.10489499999999907,
            "durationTicks": 96,
            "midi": 40,
            "name": "E2",
            "ticks": 85344,
            "time": 93.251655,
            "velocity": 0.3937007874015748
          },
          {
            "duration": 0.10489499999999907,
            "durationTicks": 96,
            "midi": 42,
            "name": "F#2",
            "ticks": 85344,
            "time": 93.251655,
            "velocity": 0.3937007874015748
          },
          {
            "duration": 0.10489499999999907,
            "durationTicks": 96,
            "midi": 43,
            "name": "G2",
            "ticks": 85344,
            "time": 93.251655,
            "velocity": 0.3937007874015748
          },
          {
            "duration": 0.10489499999999907,
            "durationTicks": 96,
            "midi": 38,
            "name": "D2",
            "ticks": 85440,
            "time": 93.35655,
            "velocity": 0.3937007874015748
          },
          {
            "duration": 0.10489499999999907,
            "durationTicks": 96,
            "midi": 40,
            "name": "E2",
            "ticks": 85440,
            "time": 93.35655,
            "velocity": 0.3937007874015748
          },
          {
            "duration": 0.10489499999999907,
            "durationTicks": 96,
            "midi": 42,
            "name": "F#2",
            "ticks": 85440,
            "time": 93.35655,
            "velocity": 0.3937007874015748
          },
          {
            "duration": 0.10489499999999907,
            "durationTicks": 96,
            "midi": 40,
            "name": "E2",
            "ticks": 85536,
            "time": 93.461445,
            "velocity": 0.3937007874015748
          },
          {
            "duration": 0.10489499999999907,
            "durationTicks": 96,
            "midi": 38,
            "name": "D2",
            "ticks": 85536,
            "time": 93.461445,
            "velocity": 0.3937007874015748
          },
          {
            "duration": 0.10489499999999907,
            "durationTicks": 96,
            "midi": 36,
            "name": "C2",
            "ticks": 85536,
            "time": 93.461445,
            "velocity": 0.3937007874015748
          },
          {
            "duration": 0.10489499999999907,
            "durationTicks": 96,
            "midi": 33,
            "name": "A1",
            "ticks": 85632,
            "time": 93.56634,
            "velocity": 0.3937007874015748
          },
          {
            "duration": 0.10489499999999907,
            "durationTicks": 96,
            "midi": 38,
            "name": "D2",
            "ticks": 85632,
            "time": 93.56634,
            "velocity": 0.3937007874015748
          },
          {
            "duration": 0.10489499999999907,
            "durationTicks": 96,
            "midi": 36,
            "name": "C2",
            "ticks": 85632,
            "time": 93.56634,
            "velocity": 0.3937007874015748
          },
          {
            "duration": 0.10489499999999907,
            "durationTicks": 96,
            "midi": 33,
            "name": "A1",
            "ticks": 85728,
            "time": 93.671235,
            "velocity": 0.3937007874015748
          },
          {
            "duration": 0.10489499999999907,
            "durationTicks": 96,
            "midi": 36,
            "name": "C2",
            "ticks": 85728,
            "time": 93.671235,
            "velocity": 0.3937007874015748
          },
          {
            "duration": 0.10489499999999907,
            "durationTicks": 96,
            "midi": 36,
            "name": "C2",
            "ticks": 85728,
            "time": 93.671235,
            "velocity": 0.3937007874015748
          },
          {
            "duration": 0.10489500000001328,
            "durationTicks": 96,
            "midi": 36,
            "name": "C2",
            "ticks": 85824,
            "time": 93.77613,
            "velocity": 0.3937007874015748
          },
          {
            "duration": 0.10489500000001328,
            "durationTicks": 96,
            "midi": 33,
            "name": "A1",
            "ticks": 85824,
            "time": 93.77613,
            "velocity": 0.3937007874015748
          },
          {
            "duration": 0.10489500000001328,
            "durationTicks": 96,
            "midi": 31,
            "name": "G1",
            "ticks": 85824,
            "time": 93.77613,
            "velocity": 0.3937007874015748
          },
          {
            "duration": 0.10489499999999907,
            "durationTicks": 96,
            "midi": 36,
            "name": "C2",
            "ticks": 85920,
            "time": 93.88102500000001,
            "velocity": 0.3937007874015748
          },
          {
            "duration": 0.10489499999999907,
            "durationTicks": 96,
            "midi": 29,
            "name": "F1",
            "ticks": 85920,
            "time": 93.88102500000001,
            "velocity": 0.3937007874015748
          },
          {
            "duration": 0.10489499999999907,
            "durationTicks": 96,
            "midi": 31,
            "name": "G1",
            "ticks": 85920,
            "time": 93.88102500000001,
            "velocity": 0.3937007874015748
          },
          {
            "duration": 0.10489499999999907,
            "durationTicks": 96,
            "midi": 29,
            "name": "F1",
            "ticks": 86016,
            "time": 93.98592000000001,
            "velocity": 0.3937007874015748
          },
          {
            "duration": 0.10489499999999907,
            "durationTicks": 96,
            "midi": 26,
            "name": "D1",
            "ticks": 86016,
            "time": 93.98592000000001,
            "velocity": 0.3937007874015748
          },
          {
            "duration": 0.10489499999999907,
            "durationTicks": 96,
            "midi": 31,
            "name": "G1",
            "ticks": 86016,
            "time": 93.98592000000001,
            "velocity": 0.3937007874015748
          },
          {
            "duration": 0.10489499999999907,
            "durationTicks": 96,
            "midi": 26,
            "name": "D1",
            "ticks": 86112,
            "time": 94.090815,
            "velocity": 0.3937007874015748
          },
          {
            "duration": 0.10489499999999907,
            "durationTicks": 96,
            "midi": 33,
            "name": "A1",
            "ticks": 86112,
            "time": 94.090815,
            "velocity": 0.3937007874015748
          },
          {
            "duration": 0.10489499999999907,
            "durationTicks": 96,
            "midi": 29,
            "name": "F1",
            "ticks": 86112,
            "time": 94.090815,
            "velocity": 0.3937007874015748
          },
          {
            "duration": 0.10489499999999907,
            "durationTicks": 96,
            "midi": 33,
            "name": "A1",
            "ticks": 86208,
            "time": 94.19571,
            "velocity": 0.3937007874015748
          },
          {
            "duration": 0.10489499999999907,
            "durationTicks": 96,
            "midi": 32,
            "name": "G#1",
            "ticks": 86208,
            "time": 94.19571,
            "velocity": 0.3937007874015748
          },
          {
            "duration": 0.10489499999999907,
            "durationTicks": 96,
            "midi": 26,
            "name": "D1",
            "ticks": 86208,
            "time": 94.19571,
            "velocity": 0.3937007874015748
          },
          {
            "duration": 0.10489499999999907,
            "durationTicks": 96,
            "midi": 33,
            "name": "A1",
            "ticks": 86304,
            "time": 94.300605,
            "velocity": 0.3937007874015748
          },
          {
            "duration": 0.10489499999999907,
            "durationTicks": 96,
            "midi": 31,
            "name": "G1",
            "ticks": 86304,
            "time": 94.300605,
            "velocity": 0.3937007874015748
          },
          {
            "duration": 0.10489499999999907,
            "durationTicks": 96,
            "midi": 32,
            "name": "G#1",
            "ticks": 86304,
            "time": 94.300605,
            "velocity": 0.3937007874015748
          },
          {
            "duration": 0.10489499999999907,
            "durationTicks": 96,
            "midi": 32,
            "name": "G#1",
            "ticks": 86400,
            "time": 94.4055,
            "velocity": 0.3937007874015748
          },
          {
            "duration": 0.10489499999999907,
            "durationTicks": 96,
            "midi": 38,
            "name": "D2",
            "ticks": 86400,
            "time": 94.4055,
            "velocity": 0.3937007874015748
          },
          {
            "duration": 0.10489499999999907,
            "durationTicks": 96,
            "midi": 31,
            "name": "G1",
            "ticks": 86400,
            "time": 94.4055,
            "velocity": 0.3937007874015748
          },
          {
            "duration": 0.10489499999999907,
            "durationTicks": 96,
            "midi": 31,
            "name": "G1",
            "ticks": 86496,
            "time": 94.510395,
            "velocity": 0.3937007874015748
          },
          {
            "duration": 0.10489499999999907,
            "durationTicks": 96,
            "midi": 38,
            "name": "D2",
            "ticks": 86496,
            "time": 94.510395,
            "velocity": 0.3937007874015748
          },
          {
            "duration": 0.10489499999999907,
            "durationTicks": 96,
            "midi": 37,
            "name": "C#2",
            "ticks": 86496,
            "time": 94.510395,
            "velocity": 0.3937007874015748
          },
          {
            "duration": 0.10489499999999907,
            "durationTicks": 96,
            "midi": 37,
            "name": "C#2",
            "ticks": 86592,
            "time": 94.61529,
            "velocity": 0.3937007874015748
          },
          {
            "duration": 0.10489499999999907,
            "durationTicks": 96,
            "midi": 38,
            "name": "D2",
            "ticks": 86592,
            "time": 94.61529,
            "velocity": 0.3937007874015748
          },
          {
            "duration": 0.10489499999999907,
            "durationTicks": 96,
            "midi": 36,
            "name": "C2",
            "ticks": 86592,
            "time": 94.61529,
            "velocity": 0.3937007874015748
          },
          {
            "duration": 0.10489499999999907,
            "durationTicks": 96,
            "midi": 37,
            "name": "C#2",
            "ticks": 86688,
            "time": 94.720185,
            "velocity": 0.3937007874015748
          },
          {
            "duration": 0.10489499999999907,
            "durationTicks": 96,
            "midi": 36,
            "name": "C2",
            "ticks": 86688,
            "time": 94.720185,
            "velocity": 0.3937007874015748
          },
          {
            "duration": 0.10489499999999907,
            "durationTicks": 96,
            "midi": 43,
            "name": "G2",
            "ticks": 86688,
            "time": 94.720185,
            "velocity": 0.3937007874015748
          },
          {
            "duration": 0.10489499999999907,
            "durationTicks": 96,
            "midi": 42,
            "name": "F#2",
            "ticks": 86784,
            "time": 94.82508,
            "velocity": 0.3937007874015748
          },
          {
            "duration": 0.10489499999999907,
            "durationTicks": 96,
            "midi": 43,
            "name": "G2",
            "ticks": 86784,
            "time": 94.82508,
            "velocity": 0.3937007874015748
          },
          {
            "duration": 0.10489499999999907,
            "durationTicks": 96,
            "midi": 36,
            "name": "C2",
            "ticks": 86784,
            "time": 94.82508,
            "velocity": 0.3937007874015748
          },
          {
            "duration": 0.10489499999999907,
            "durationTicks": 96,
            "midi": 42,
            "name": "F#2",
            "ticks": 86880,
            "time": 94.929975,
            "velocity": 0.3937007874015748
          },
          {
            "duration": 0.10489499999999907,
            "durationTicks": 96,
            "midi": 43,
            "name": "G2",
            "ticks": 86880,
            "time": 94.929975,
            "velocity": 0.3937007874015748
          },
          {
            "duration": 0.10489499999999907,
            "durationTicks": 96,
            "midi": 40,
            "name": "E2",
            "ticks": 86880,
            "time": 94.929975,
            "velocity": 0.3937007874015748
          },
          {
            "duration": 0.10489499999999907,
            "durationTicks": 96,
            "midi": 42,
            "name": "F#2",
            "ticks": 86976,
            "time": 95.03487,
            "velocity": 0.3937007874015748
          },
          {
            "duration": 0.10489499999999907,
            "durationTicks": 96,
            "midi": 40,
            "name": "E2",
            "ticks": 86976,
            "time": 95.03487,
            "velocity": 0.3937007874015748
          },
          {
            "duration": 0.10489499999999907,
            "durationTicks": 96,
            "midi": 38,
            "name": "D2",
            "ticks": 86976,
            "time": 95.03487,
            "velocity": 0.3937007874015748
          },
          {
            "duration": 0.10489499999999907,
            "durationTicks": 96,
            "midi": 36,
            "name": "C2",
            "ticks": 87072,
            "time": 95.139765,
            "velocity": 0.3937007874015748
          },
          {
            "duration": 0.10489499999999907,
            "durationTicks": 96,
            "midi": 40,
            "name": "E2",
            "ticks": 87072,
            "time": 95.139765,
            "velocity": 0.3937007874015748
          },
          {
            "duration": 0.10489499999999907,
            "durationTicks": 96,
            "midi": 38,
            "name": "D2",
            "ticks": 87072,
            "time": 95.139765,
            "velocity": 0.3937007874015748
          },
          {
            "duration": 0.10489499999999907,
            "durationTicks": 96,
            "midi": 36,
            "name": "C2",
            "ticks": 87168,
            "time": 95.24466,
            "velocity": 0.3937007874015748
          },
          {
            "duration": 0.10489499999999907,
            "durationTicks": 96,
            "midi": 38,
            "name": "D2",
            "ticks": 87168,
            "time": 95.24466,
            "velocity": 0.3937007874015748
          },
          {
            "duration": 0.10489499999999907,
            "durationTicks": 96,
            "midi": 33,
            "name": "A1",
            "ticks": 87168,
            "time": 95.24466,
            "velocity": 0.3937007874015748
          },
          {
            "duration": 0.10489500000001328,
            "durationTicks": 96,
            "midi": 36,
            "name": "C2",
            "ticks": 87264,
            "time": 95.349555,
            "velocity": 0.3937007874015748
          },
          {
            "duration": 0.10489500000001328,
            "durationTicks": 96,
            "midi": 33,
            "name": "A1",
            "ticks": 87264,
            "time": 95.349555,
            "velocity": 0.3937007874015748
          },
          {
            "duration": 0.10489500000001328,
            "durationTicks": 96,
            "midi": 36,
            "name": "C2",
            "ticks": 87264,
            "time": 95.349555,
            "velocity": 0.3937007874015748
          },
          {
            "duration": 0.10489499999999907,
            "durationTicks": 96,
            "midi": 31,
            "name": "G1",
            "ticks": 87360,
            "time": 95.45445000000001,
            "velocity": 0.3937007874015748
          },
          {
            "duration": 0.10489499999999907,
            "durationTicks": 96,
            "midi": 33,
            "name": "A1",
            "ticks": 87360,
            "time": 95.45445000000001,
            "velocity": 0.3937007874015748
          },
          {
            "duration": 0.10489499999999907,
            "durationTicks": 96,
            "midi": 36,
            "name": "C2",
            "ticks": 87360,
            "time": 95.45445000000001,
            "velocity": 0.3937007874015748
          },
          {
            "duration": 0.10489499999999907,
            "durationTicks": 96,
            "midi": 36,
            "name": "C2",
            "ticks": 87456,
            "time": 95.55934500000001,
            "velocity": 0.3937007874015748
          },
          {
            "duration": 0.10489499999999907,
            "durationTicks": 96,
            "midi": 31,
            "name": "G1",
            "ticks": 87456,
            "time": 95.55934500000001,
            "velocity": 0.3937007874015748
          },
          {
            "duration": 0.10489499999999907,
            "durationTicks": 96,
            "midi": 29,
            "name": "F1",
            "ticks": 87456,
            "time": 95.55934500000001,
            "velocity": 0.3937007874015748
          },
          {
            "duration": 0.10489499999999907,
            "durationTicks": 96,
            "midi": 31,
            "name": "G1",
            "ticks": 87552,
            "time": 95.66424,
            "velocity": 0.3937007874015748
          },
          {
            "duration": 0.10489499999999907,
            "durationTicks": 96,
            "midi": 29,
            "name": "F1",
            "ticks": 87552,
            "time": 95.66424,
            "velocity": 0.3937007874015748
          },
          {
            "duration": 0.10489499999999907,
            "durationTicks": 96,
            "midi": 29,
            "name": "F1",
            "ticks": 87648,
            "time": 95.769135,
            "velocity": 0.3937007874015748
          }
        ],
        "endOfTrackTicks": 87744
      },
      {
        "channel": 4,
        "controlChanges": {},
        "pitchBends": [],
        "instrument": {
          "family": "synth effects",
          "number": 99,
          "name": "fx 4 (atmosphere)"
        },
        "name": "Scifi",
        "notes": [
          {
            "duration": 3.35664,
            "durationTicks": 3072,
            "midi": 57,
            "name": "A3",
            "ticks": 3072,
            "time": 3.35664,
            "velocity": 0.3937007874015748
          },
          {
            "duration": 3.35664,
            "durationTicks": 3072,
            "midi": 62,
            "name": "D4",
            "ticks": 3072,
            "time": 3.35664,
            "velocity": 0.3937007874015748
          },
          {
            "duration": 3.3566399999999996,
            "durationTicks": 3072,
            "midi": 57,
            "name": "A3",
            "ticks": 6144,
            "time": 6.71328,
            "velocity": 0.3937007874015748
          },
          {
            "duration": 3.3566399999999996,
            "durationTicks": 3072,
            "midi": 62,
            "name": "D4",
            "ticks": 6144,
            "time": 6.71328,
            "velocity": 0.3937007874015748
          },
          {
            "duration": 3.3566400000000005,
            "durationTicks": 3072,
            "midi": 56,
            "name": "G#3",
            "ticks": 9216,
            "time": 10.06992,
            "velocity": 0.3937007874015748
          },
          {
            "duration": 3.3566400000000005,
            "durationTicks": 3072,
            "midi": 61,
            "name": "C#4",
            "ticks": 9216,
            "time": 10.06992,
            "velocity": 0.3937007874015748
          },
          {
            "duration": 1.258740000000003,
            "durationTicks": 1152,
            "midi": 65,
            "name": "F4",
            "ticks": 50688,
            "time": 55.38456,
            "velocity": 0.3937007874015748
          },
          {
            "duration": 0.20978999999999814,
            "durationTicks": 192,
            "midi": 77,
            "name": "F5",
            "ticks": 51072,
            "time": 55.804140000000004,
            "velocity": 0.3937007874015748
          },
          {
            "duration": 0.20978999999999814,
            "durationTicks": 192,
            "midi": 82,
            "name": "A#5",
            "ticks": 51072,
            "time": 55.804140000000004,
            "velocity": 0.3937007874015748
          },
          {
            "duration": 0.4195799999999963,
            "durationTicks": 384,
            "midi": 82,
            "name": "A#5",
            "ticks": 51264,
            "time": 56.01393,
            "velocity": 0.3937007874015748
          },
          {
            "duration": 0.4195799999999963,
            "durationTicks": 384,
            "midi": 77,
            "name": "F5",
            "ticks": 51264,
            "time": 56.01393,
            "velocity": 0.3937007874015748
          },
          {
            "duration": 0.6293700000000015,
            "durationTicks": 576,
            "midi": 76,
            "name": "E5",
            "ticks": 51648,
            "time": 56.43351,
            "velocity": 0.3937007874015748
          },
          {
            "duration": 0.6293700000000015,
            "durationTicks": 576,
            "midi": 81,
            "name": "A5",
            "ticks": 51648,
            "time": 56.43351,
            "velocity": 0.3937007874015748
          },
          {
            "duration": 0.4195799999999963,
            "durationTicks": 384,
            "midi": 64,
            "name": "E4",
            "ticks": 51840,
            "time": 56.6433,
            "velocity": 0.3937007874015748
          },
          {
            "duration": 1.258740000000003,
            "durationTicks": 1152,
            "midi": 62,
            "name": "D4",
            "ticks": 52224,
            "time": 57.06288,
            "velocity": 0.3937007874015748
          },
          {
            "duration": 0.20978999999999814,
            "durationTicks": 192,
            "midi": 81,
            "name": "A5",
            "ticks": 52608,
            "time": 57.48246,
            "velocity": 0.3937007874015748
          },
          {
            "duration": 0.20978999999999814,
            "durationTicks": 192,
            "midi": 86,
            "name": "D6",
            "ticks": 52608,
            "time": 57.48246,
            "velocity": 0.3937007874015748
          },
          {
            "duration": 0.4195799999999963,
            "durationTicks": 384,
            "midi": 86,
            "name": "D6",
            "ticks": 52800,
            "time": 57.69225,
            "velocity": 0.3937007874015748
          },
          {
            "duration": 0.4195799999999963,
            "durationTicks": 384,
            "midi": 81,
            "name": "A5",
            "ticks": 52800,
            "time": 57.69225,
            "velocity": 0.3937007874015748
          },
          {
            "duration": 0.6293700000000015,
            "durationTicks": 576,
            "midi": 79,
            "name": "G5",
            "ticks": 53184,
            "time": 58.11183,
            "velocity": 0.3937007874015748
          },
          {
            "duration": 0.6293700000000015,
            "durationTicks": 576,
            "midi": 84,
            "name": "C6",
            "ticks": 53184,
            "time": 58.11183,
            "velocity": 0.3937007874015748
          },
          {
            "duration": 0.4195799999999963,
            "durationTicks": 384,
            "midi": 60,
            "name": "C4",
            "ticks": 53376,
            "time": 58.32162,
            "velocity": 0.3937007874015748
          },
          {
            "duration": 1.258740000000003,
            "durationTicks": 1152,
            "midi": 58,
            "name": "A#3",
            "ticks": 53760,
            "time": 58.7412,
            "velocity": 0.3937007874015748
          },
          {
            "duration": 0.20978999999999814,
            "durationTicks": 192,
            "midi": 77,
            "name": "F5",
            "ticks": 54144,
            "time": 59.16078,
            "velocity": 0.3937007874015748
          },
          {
            "duration": 0.20978999999999814,
            "durationTicks": 192,
            "midi": 82,
            "name": "A#5",
            "ticks": 54144,
            "time": 59.16078,
            "velocity": 0.3937007874015748
          },
          {
            "duration": 0.4195800000000034,
            "durationTicks": 384,
            "midi": 82,
            "name": "A#5",
            "ticks": 54336,
            "time": 59.37057,
            "velocity": 0.3937007874015748
          },
          {
            "duration": 0.4195800000000034,
            "durationTicks": 384,
            "midi": 77,
            "name": "F5",
            "ticks": 54336,
            "time": 59.37057,
            "velocity": 0.3937007874015748
          },
          {
            "duration": 0.6293699999999944,
            "durationTicks": 576,
            "midi": 81,
            "name": "A5",
            "ticks": 54720,
            "time": 59.790150000000004,
            "velocity": 0.3937007874015748
          },
          {
            "duration": 0.6293699999999944,
            "durationTicks": 576,
            "midi": 76,
            "name": "E5",
            "ticks": 54720,
            "time": 59.790150000000004,
            "velocity": 0.3937007874015748
          },
          {
            "duration": 0.4195799999999963,
            "durationTicks": 384,
            "midi": 60,
            "name": "C4",
            "ticks": 54912,
            "time": 59.99994,
            "velocity": 0.3937007874015748
          },
          {
            "duration": 0.8391599999999997,
            "durationTicks": 768,
            "midi": 62,
            "name": "D4",
            "ticks": 55296,
            "time": 60.41952,
            "velocity": 0.3937007874015748
          },
          {
            "duration": 0.20978999999999814,
            "durationTicks": 192,
            "midi": 86,
            "name": "D6",
            "ticks": 55680,
            "time": 60.8391,
            "velocity": 0.3937007874015748
          },
          {
            "duration": 0.20978999999999814,
            "durationTicks": 192,
            "midi": 81,
            "name": "A5",
            "ticks": 55680,
            "time": 60.8391,
            "velocity": 0.3937007874015748
          },
          {
            "duration": 0.4195800000000034,
            "durationTicks": 384,
            "midi": 81,
            "name": "A5",
            "ticks": 55872,
            "time": 61.04889,
            "velocity": 0.3937007874015748
          },
          {
            "duration": 0.4195800000000034,
            "durationTicks": 384,
            "midi": 86,
            "name": "D6",
            "ticks": 55872,
            "time": 61.04889,
            "velocity": 0.3937007874015748
          },
          {
            "duration": 0.20979000000000525,
            "durationTicks": 192,
            "midi": 62,
            "name": "D4",
            "ticks": 56064,
            "time": 61.25868,
            "velocity": 0.3937007874015748
          },
          {
            "duration": 0.20979000000000525,
            "durationTicks": 192,
            "midi": 69,
            "name": "A4",
            "ticks": 56064,
            "time": 61.25868,
            "velocity": 0.3937007874015748
          },
          {
            "duration": 0.20978999999999814,
            "durationTicks": 192,
            "midi": 68,
            "name": "G#4",
            "ticks": 56256,
            "time": 61.46847,
            "velocity": 0.3937007874015748
          },
          {
            "duration": 0.20978999999999814,
            "durationTicks": 192,
            "midi": 61,
            "name": "C#4",
            "ticks": 56256,
            "time": 61.46847,
            "velocity": 0.3937007874015748
          },
          {
            "duration": 0.6293699999999944,
            "durationTicks": 576,
            "midi": 79,
            "name": "G5",
            "ticks": 56256,
            "time": 61.46847,
            "velocity": 0.3937007874015748
          },
          {
            "duration": 0.6293699999999944,
            "durationTicks": 576,
            "midi": 84,
            "name": "C6",
            "ticks": 56256,
            "time": 61.46847,
            "velocity": 0.3937007874015748
          },
          {
            "duration": 0.20978999999999814,
            "durationTicks": 192,
            "midi": 60,
            "name": "C4",
            "ticks": 56448,
            "time": 61.67826,
            "velocity": 0.3937007874015748
          },
          {
            "duration": 0.20978999999999814,
            "durationTicks": 192,
            "midi": 67,
            "name": "G4",
            "ticks": 56448,
            "time": 61.67826,
            "velocity": 0.3937007874015748
          },
          {
            "duration": 0.20978999999999814,
            "durationTicks": 192,
            "midi": 59,
            "name": "B3",
            "ticks": 56640,
            "time": 61.88805,
            "velocity": 0.3937007874015748
          },
          {
            "duration": 0.20978999999999814,
            "durationTicks": 192,
            "midi": 66,
            "name": "F#4",
            "ticks": 56640,
            "time": 61.88805,
            "velocity": 0.3937007874015748
          },
          {
            "duration": 1.258740000000003,
            "durationTicks": 1152,
            "midi": 65,
            "name": "F4",
            "ticks": 56832,
            "time": 62.09784,
            "velocity": 0.3937007874015748
          },
          {
            "duration": 0.20978999999999814,
            "durationTicks": 192,
            "midi": 82,
            "name": "A#5",
            "ticks": 57216,
            "time": 62.51742,
            "velocity": 0.3937007874015748
          },
          {
            "duration": 0.20978999999999814,
            "durationTicks": 192,
            "midi": 77,
            "name": "F5",
            "ticks": 57216,
            "time": 62.51742,
            "velocity": 0.3937007874015748
          },
          {
            "duration": 0.4195800000000034,
            "durationTicks": 384,
            "midi": 77,
            "name": "F5",
            "ticks": 57408,
            "time": 62.72721,
            "velocity": 0.3937007874015748
          },
          {
            "duration": 0.4195800000000034,
            "durationTicks": 384,
            "midi": 82,
            "name": "A#5",
            "ticks": 57408,
            "time": 62.72721,
            "velocity": 0.3937007874015748
          },
          {
            "duration": 0.6293700000000015,
            "durationTicks": 576,
            "midi": 76,
            "name": "E5",
            "ticks": 57792,
            "time": 63.14679,
            "velocity": 0.3937007874015748
          },
          {
            "duration": 0.6293700000000015,
            "durationTicks": 576,
            "midi": 81,
            "name": "A5",
            "ticks": 57792,
            "time": 63.14679,
            "velocity": 0.3937007874015748
          },
          {
            "duration": 0.4195800000000034,
            "durationTicks": 384,
            "midi": 64,
            "name": "E4",
            "ticks": 57984,
            "time": 63.35658,
            "velocity": 0.3937007874015748
          },
          {
            "duration": 1.258740000000003,
            "durationTicks": 1152,
            "midi": 62,
            "name": "D4",
            "ticks": 58368,
            "time": 63.776160000000004,
            "velocity": 0.3937007874015748
          },
          {
            "duration": 0.20978999999999814,
            "durationTicks": 192,
            "midi": 86,
            "name": "D6",
            "ticks": 58752,
            "time": 64.19574,
            "velocity": 0.3937007874015748
          },
          {
            "duration": 0.20978999999999814,
            "durationTicks": 192,
            "midi": 81,
            "name": "A5",
            "ticks": 58752,
            "time": 64.19574,
            "velocity": 0.3937007874015748
          },
          {
            "duration": 0.4195799999999963,
            "durationTicks": 384,
            "midi": 81,
            "name": "A5",
            "ticks": 58944,
            "time": 64.40553,
            "velocity": 0.3937007874015748
          },
          {
            "duration": 0.4195799999999963,
            "durationTicks": 384,
            "midi": 86,
            "name": "D6",
            "ticks": 58944,
            "time": 64.40553,
            "velocity": 0.3937007874015748
          },
          {
            "duration": 0.6293700000000086,
            "durationTicks": 576,
            "midi": 79,
            "name": "G5",
            "ticks": 59328,
            "time": 64.82511,
            "velocity": 0.3937007874015748
          },
          {
            "duration": 0.6293700000000086,
            "durationTicks": 576,
            "midi": 84,
            "name": "C6",
            "ticks": 59328,
            "time": 64.82511,
            "velocity": 0.3937007874015748
          },
          {
            "duration": 0.4195799999999963,
            "durationTicks": 384,
            "midi": 60,
            "name": "C4",
            "ticks": 59520,
            "time": 65.03490000000001,
            "velocity": 0.3937007874015748
          },
          {
            "duration": 1.258740000000003,
            "durationTicks": 1152,
            "midi": 58,
            "name": "A#3",
            "ticks": 59904,
            "time": 65.45448,
            "velocity": 0.3937007874015748
          },
          {
            "duration": 0.20978999999999814,
            "durationTicks": 192,
            "midi": 82,
            "name": "A#5",
            "ticks": 60288,
            "time": 65.87406,
            "velocity": 0.3937007874015748
          },
          {
            "duration": 0.20978999999999814,
            "durationTicks": 192,
            "midi": 77,
            "name": "F5",
            "ticks": 60288,
            "time": 65.87406,
            "velocity": 0.3937007874015748
          },
          {
            "duration": 0.4195799999999963,
            "durationTicks": 384,
            "midi": 82,
            "name": "A#5",
            "ticks": 60480,
            "time": 66.08385,
            "velocity": 0.3937007874015748
          },
          {
            "duration": 0.4195799999999963,
            "durationTicks": 384,
            "midi": 77,
            "name": "F5",
            "ticks": 60480,
            "time": 66.08385,
            "velocity": 0.3937007874015748
          },
          {
            "duration": 0.6293700000000086,
            "durationTicks": 576,
            "midi": 76,
            "name": "E5",
            "ticks": 60864,
            "time": 66.50343,
            "velocity": 0.3937007874015748
          },
          {
            "duration": 0.6293700000000086,
            "durationTicks": 576,
            "midi": 81,
            "name": "A5",
            "ticks": 60864,
            "time": 66.50343,
            "velocity": 0.3937007874015748
          },
          {
            "duration": 0.4195799999999963,
            "durationTicks": 384,
            "midi": 60,
            "name": "C4",
            "ticks": 61056,
            "time": 66.71322,
            "velocity": 0.3937007874015748
          },
          {
            "duration": 0.8391599999999926,
            "durationTicks": 768,
            "midi": 62,
            "name": "D4",
            "ticks": 61440,
            "time": 67.1328,
            "velocity": 0.3937007874015748
          },
          {
            "duration": 0.20978999999999814,
            "durationTicks": 192,
            "midi": 86,
            "name": "D6",
            "ticks": 61824,
            "time": 67.55238,
            "velocity": 0.3937007874015748
          },
          {
            "duration": 0.20978999999999814,
            "durationTicks": 192,
            "midi": 81,
            "name": "A5",
            "ticks": 61824,
            "time": 67.55238,
            "velocity": 0.3937007874015748
          },
          {
            "duration": 0.4195800000000105,
            "durationTicks": 384,
            "midi": 81,
            "name": "A5",
            "ticks": 62016,
            "time": 67.76217,
            "velocity": 0.3937007874015748
          },
          {
            "duration": 0.4195800000000105,
            "durationTicks": 384,
            "midi": 86,
            "name": "D6",
            "ticks": 62016,
            "time": 67.76217,
            "velocity": 0.3937007874015748
          },
          {
            "duration": 0.20979000000001236,
            "durationTicks": 192,
            "midi": 62,
            "name": "D4",
            "ticks": 62208,
            "time": 67.97196,
            "velocity": 0.3937007874015748
          },
          {
            "duration": 0.20979000000001236,
            "durationTicks": 192,
            "midi": 69,
            "name": "A4",
            "ticks": 62208,
            "time": 67.97196,
            "velocity": 0.3937007874015748
          },
          {
            "duration": 0.20978999999999814,
            "durationTicks": 192,
            "midi": 61,
            "name": "C#4",
            "ticks": 62400,
            "time": 68.18175000000001,
            "velocity": 0.3937007874015748
          },
          {
            "duration": 0.20978999999999814,
            "durationTicks": 192,
            "midi": 68,
            "name": "G#4",
            "ticks": 62400,
            "time": 68.18175000000001,
            "velocity": 0.3937007874015748
          },
          {
            "duration": 0.20978999999999814,
            "durationTicks": 192,
            "midi": 72,
            "name": "C5",
            "ticks": 62400,
            "time": 68.18175000000001,
            "velocity": 0.3937007874015748
          },
          {
            "duration": 0.6293699999999944,
            "durationTicks": 576,
            "midi": 79,
            "name": "G5",
            "ticks": 62400,
            "time": 68.18175000000001,
            "velocity": 0.3937007874015748
          },
          {
            "duration": 0.6293699999999944,
            "durationTicks": 576,
            "midi": 84,
            "name": "C6",
            "ticks": 62400,
            "time": 68.18175000000001,
            "velocity": 0.3937007874015748
          },
          {
            "duration": 0.20978999999999814,
            "durationTicks": 192,
            "midi": 67,
            "name": "G4",
            "ticks": 62592,
            "time": 68.39154,
            "velocity": 0.3937007874015748
          },
          {
            "duration": 0.20978999999999814,
            "durationTicks": 192,
            "midi": 74,
            "name": "D5",
            "ticks": 62592,
            "time": 68.39154,
            "velocity": 0.3937007874015748
          },
          {
            "duration": 0.20978999999999814,
            "durationTicks": 192,
            "midi": 60,
            "name": "C4",
            "ticks": 62592,
            "time": 68.39154,
            "velocity": 0.3937007874015748
          },
          {
            "duration": 0.20978999999999814,
            "durationTicks": 192,
            "midi": 66,
            "name": "F#4",
            "ticks": 62784,
            "time": 68.60133,
            "velocity": 0.3937007874015748
          },
          {
            "duration": 0.20978999999999814,
            "durationTicks": 192,
            "midi": 76,
            "name": "E5",
            "ticks": 62784,
            "time": 68.60133,
            "velocity": 0.3937007874015748
          },
          {
            "duration": 0.20978999999999814,
            "durationTicks": 192,
            "midi": 59,
            "name": "B3",
            "ticks": 62784,
            "time": 68.60133,
            "velocity": 0.3937007874015748
          },
          {
            "duration": 0.8391599999999926,
            "durationTicks": 768,
            "midi": 68,
            "name": "G#4",
            "ticks": 62976,
            "time": 68.81112,
            "velocity": 0.3937007874015748
          },
          {
            "duration": 0.8391599999999926,
            "durationTicks": 768,
            "midi": 63,
            "name": "D#4",
            "ticks": 62976,
            "time": 68.81112,
            "velocity": 0.3937007874015748
          },
          {
            "duration": 0.8391599999999926,
            "durationTicks": 768,
            "midi": 77,
            "name": "F5",
            "ticks": 62976,
            "time": 68.81112,
            "velocity": 0.3937007874015748
          },
          {
            "duration": 0.8391599999999926,
            "durationTicks": 768,
            "midi": 67,
            "name": "G4",
            "ticks": 64512,
            "time": 70.48944,
            "velocity": 0.3937007874015748
          },
          {
            "duration": 0.8391599999999926,
            "durationTicks": 768,
            "midi": 62,
            "name": "D4",
            "ticks": 64512,
            "time": 70.48944,
            "velocity": 0.3937007874015748
          },
          {
            "duration": 0.8391599999999926,
            "durationTicks": 768,
            "midi": 77,
            "name": "F5",
            "ticks": 64512,
            "time": 70.48944,
            "velocity": 0.3937007874015748
          },
          {
            "duration": 0.8391600000000068,
            "durationTicks": 768,
            "midi": 68,
            "name": "G#4",
            "ticks": 66048,
            "time": 72.16776,
            "velocity": 0.3937007874015748
          },
          {
            "duration": 0.8391600000000068,
            "durationTicks": 768,
            "midi": 63,
            "name": "D#4",
            "ticks": 66048,
            "time": 72.16776,
            "velocity": 0.3937007874015748
          },
          {
            "duration": 0.8391600000000068,
            "durationTicks": 768,
            "midi": 77,
            "name": "F5",
            "ticks": 66048,
            "time": 72.16776,
            "velocity": 0.3937007874015748
          },
          {
            "duration": 0.8391600000000068,
            "durationTicks": 768,
            "midi": 67,
            "name": "G4",
            "ticks": 67584,
            "time": 73.84608,
            "velocity": 0.3937007874015748
          },
          {
            "duration": 0.8391600000000068,
            "durationTicks": 768,
            "midi": 77,
            "name": "F5",
            "ticks": 67584,
            "time": 73.84608,
            "velocity": 0.3937007874015748
          },
          {
            "duration": 0.8391600000000068,
            "durationTicks": 768,
            "midi": 62,
            "name": "D4",
            "ticks": 67584,
            "time": 73.84608,
            "velocity": 0.3937007874015748
          },
          {
            "duration": 3.3566399999999987,
            "durationTicks": 3072,
            "midi": 62,
            "name": "D4",
            "ticks": 69120,
            "time": 75.5244,
            "velocity": 0.3937007874015748
          },
          {
            "duration": 3.3566399999999987,
            "durationTicks": 3072,
            "midi": 57,
            "name": "A3",
            "ticks": 69120,
            "time": 75.5244,
            "velocity": 0.3937007874015748
          },
          {
            "duration": 3.3566399999999987,
            "durationTicks": 3072,
            "midi": 69,
            "name": "A4",
            "ticks": 69120,
            "time": 75.5244,
            "velocity": 0.3937007874015748
          },
          {
            "duration": 3.3566399999999987,
            "durationTicks": 3072,
            "midi": 69,
            "name": "A4",
            "ticks": 72192,
            "time": 78.88104,
            "velocity": 0.3937007874015748
          },
          {
            "duration": 3.3566399999999987,
            "durationTicks": 3072,
            "midi": 57,
            "name": "A3",
            "ticks": 72192,
            "time": 78.88104,
            "velocity": 0.3937007874015748
          },
          {
            "duration": 3.3566399999999987,
            "durationTicks": 3072,
            "midi": 62,
            "name": "D4",
            "ticks": 72192,
            "time": 78.88104,
            "velocity": 0.3937007874015748
          },
          {
            "duration": 3.3566399999999987,
            "durationTicks": 3072,
            "midi": 62,
            "name": "D4",
            "ticks": 75264,
            "time": 82.23768,
            "velocity": 0.3937007874015748
          },
          {
            "duration": 3.3566399999999987,
            "durationTicks": 3072,
            "midi": 57,
            "name": "A3",
            "ticks": 75264,
            "time": 82.23768,
            "velocity": 0.3937007874015748
          },
          {
            "duration": 3.3566399999999987,
            "durationTicks": 3072,
            "midi": 69,
            "name": "A4",
            "ticks": 75264,
            "time": 82.23768,
            "velocity": 0.3937007874015748
          },
          {
            "duration": 3.3566399999999987,
            "durationTicks": 3072,
            "midi": 68,
            "name": "G#4",
            "ticks": 78336,
            "time": 85.59432,
            "velocity": 0.3937007874015748
          },
          {
            "duration": 3.3566399999999987,
            "durationTicks": 3072,
            "midi": 56,
            "name": "G#3",
            "ticks": 78336,
            "time": 85.59432,
            "velocity": 0.3937007874015748
          },
          {
            "duration": 3.3566399999999987,
            "durationTicks": 3072,
            "midi": 61,
            "name": "C#4",
            "ticks": 78336,
            "time": 85.59432,
            "velocity": 0.3937007874015748
          },
          {
            "duration": 3.356640000000013,
            "durationTicks": 3072,
            "midi": 57,
            "name": "A3",
            "ticks": 81408,
            "time": 88.95096,
            "velocity": 0.3937007874015748
          },
          {
            "duration": 3.356640000000013,
            "durationTicks": 3072,
            "midi": 69,
            "name": "A4",
            "ticks": 81408,
            "time": 88.95096,
            "velocity": 0.3937007874015748
          },
          {
            "duration": 3.356640000000013,
            "durationTicks": 3072,
            "midi": 62,
            "name": "D4",
            "ticks": 81408,
            "time": 88.95096,
            "velocity": 0.3937007874015748
          }
        ],
        "endOfTrackTicks": 84480
      },
      {
        "channel": 5,
        "controlChanges": {},
        "pitchBends": [],
        "instrument": {
          "family": "brass",
          "number": 57,
          "name": "trombone"
        },
        "name": "Trombone",
        "notes": [
          {
            "duration": 0.10489499999999907,
            "durationTicks": 96,
            "midi": 74,
            "name": "D5",
            "ticks": 26112,
            "time": 28.53144,
            "velocity": 0.3937007874015748
          },
          {
            "duration": 0.10489499999999907,
            "durationTicks": 96,
            "midi": 69,
            "name": "A4",
            "ticks": 26304,
            "time": 28.74123,
            "velocity": 0.3937007874015748
          },
          {
            "duration": 0.10489499999999907,
            "durationTicks": 96,
            "midi": 70,
            "name": "A#4",
            "ticks": 26496,
            "time": 28.95102,
            "velocity": 0.3937007874015748
          },
          {
            "duration": 0.10489499999999907,
            "durationTicks": 96,
            "midi": 67,
            "name": "G4",
            "ticks": 26688,
            "time": 29.16081,
            "velocity": 0.3937007874015748
          },
          {
            "duration": 0.10489500000000263,
            "durationTicks": 96,
            "midi": 69,
            "name": "A4",
            "ticks": 26880,
            "time": 29.3706,
            "velocity": 0.3937007874015748
          },
          {
            "duration": 0.10489499999999907,
            "durationTicks": 96,
            "midi": 74,
            "name": "D5",
            "ticks": 27072,
            "time": 29.58039,
            "velocity": 0.3937007874015748
          },
          {
            "duration": 0.10489500000000263,
            "durationTicks": 96,
            "midi": 69,
            "name": "A4",
            "ticks": 27264,
            "time": 29.79018,
            "velocity": 0.3937007874015748
          },
          {
            "duration": 0.10489499999999907,
            "durationTicks": 96,
            "midi": 67,
            "name": "G4",
            "ticks": 27360,
            "time": 29.895075000000002,
            "velocity": 0.3937007874015748
          },
          {
            "duration": 0.20978999999999814,
            "durationTicks": 192,
            "midi": 65,
            "name": "F4",
            "ticks": 27456,
            "time": 29.99997,
            "velocity": 0.3937007874015748
          },
          {
            "duration": 0.10489500000000263,
            "durationTicks": 96,
            "midi": 64,
            "name": "E4",
            "ticks": 27648,
            "time": 30.20976,
            "velocity": 0.3937007874015748
          },
          {
            "duration": 0.10489499999999907,
            "durationTicks": 96,
            "midi": 67,
            "name": "G4",
            "ticks": 27840,
            "time": 30.41955,
            "velocity": 0.3937007874015748
          },
          {
            "duration": 0.10489500000000263,
            "durationTicks": 96,
            "midi": 65,
            "name": "F4",
            "ticks": 28032,
            "time": 30.62934,
            "velocity": 0.3937007874015748
          },
          {
            "duration": 0.10489499999999907,
            "durationTicks": 96,
            "midi": 64,
            "name": "E4",
            "ticks": 28128,
            "time": 30.734235,
            "velocity": 0.3937007874015748
          },
          {
            "duration": 0.20978999999999814,
            "durationTicks": 192,
            "midi": 61,
            "name": "C#4",
            "ticks": 28224,
            "time": 30.83913,
            "velocity": 0.3937007874015748
          },
          {
            "duration": 0.10489500000000263,
            "durationTicks": 96,
            "midi": 62,
            "name": "D4",
            "ticks": 28416,
            "time": 31.04892,
            "velocity": 0.3937007874015748
          },
          {
            "duration": 0.10489499999999907,
            "durationTicks": 96,
            "midi": 70,
            "name": "A#4",
            "ticks": 28608,
            "time": 31.25871,
            "velocity": 0.3937007874015748
          },
          {
            "duration": 0.10489499999999907,
            "durationTicks": 96,
            "midi": 69,
            "name": "A4",
            "ticks": 28800,
            "time": 31.468500000000002,
            "velocity": 0.3937007874015748
          },
          {
            "duration": 0.10489499999999907,
            "durationTicks": 96,
            "midi": 67,
            "name": "G4",
            "ticks": 28896,
            "time": 31.573395,
            "velocity": 0.3937007874015748
          },
          {
            "duration": 0.2097900000000017,
            "durationTicks": 192,
            "midi": 69,
            "name": "A4",
            "ticks": 28992,
            "time": 31.67829,
            "velocity": 0.3937007874015748
          },
          {
            "duration": 0.10489499999999907,
            "durationTicks": 96,
            "midi": 64,
            "name": "E4",
            "ticks": 29184,
            "time": 31.888080000000002,
            "velocity": 0.3937007874015748
          },
          {
            "duration": 0.10489499999999907,
            "durationTicks": 96,
            "midi": 61,
            "name": "C#4",
            "ticks": 29376,
            "time": 32.09787,
            "velocity": 0.3937007874015748
          },
          {
            "duration": 0.10489499999999907,
            "durationTicks": 96,
            "midi": 70,
            "name": "A#4",
            "ticks": 29568,
            "time": 32.30766,
            "velocity": 0.3937007874015748
          },
          {
            "duration": 0.10489500000000618,
            "durationTicks": 96,
            "midi": 69,
            "name": "A4",
            "ticks": 29664,
            "time": 32.412555,
            "velocity": 0.3937007874015748
          },
          {
            "duration": 0.20978999999999814,
            "durationTicks": 192,
            "midi": 67,
            "name": "G4",
            "ticks": 29760,
            "time": 32.517450000000004,
            "velocity": 0.3937007874015748
          },
          {
            "duration": 0.10489499999999907,
            "durationTicks": 96,
            "midi": 69,
            "name": "A4",
            "ticks": 29952,
            "time": 32.72724,
            "velocity": 0.3937007874015748
          },
          {
            "duration": 0.10489499999999907,
            "durationTicks": 96,
            "midi": 74,
            "name": "D5",
            "ticks": 30144,
            "time": 32.93703,
            "velocity": 0.3937007874015748
          },
          {
            "duration": 0.10489499999999907,
            "durationTicks": 96,
            "midi": 77,
            "name": "F5",
            "ticks": 30336,
            "time": 33.14682,
            "velocity": 0.3937007874015748
          },
          {
            "duration": 0.10489500000000618,
            "durationTicks": 96,
            "midi": 76,
            "name": "E5",
            "ticks": 30432,
            "time": 33.251715,
            "velocity": 0.3937007874015748
          },
          {
            "duration": 0.20978999999999814,
            "durationTicks": 192,
            "midi": 74,
            "name": "D5",
            "ticks": 30528,
            "time": 33.35661,
            "velocity": 0.3937007874015748
          },
          {
            "duration": 0.10489499999999907,
            "durationTicks": 96,
            "midi": 77,
            "name": "F5",
            "ticks": 30720,
            "time": 33.5664,
            "velocity": 0.3937007874015748
          },
          {
            "duration": 0.10489499999999907,
            "durationTicks": 96,
            "midi": 74,
            "name": "D5",
            "ticks": 30912,
            "time": 33.77619,
            "velocity": 0.3937007874015748
          },
          {
            "duration": 0.10489500000000618,
            "durationTicks": 96,
            "midi": 70,
            "name": "A#4",
            "ticks": 31104,
            "time": 33.98598,
            "velocity": 0.3937007874015748
          },
          {
            "duration": 0.10489499999999907,
            "durationTicks": 96,
            "midi": 67,
            "name": "G4",
            "ticks": 31200,
            "time": 34.090875000000004,
            "velocity": 0.3937007874015748
          },
          {
            "duration": 0.20978999999999814,
            "durationTicks": 192,
            "midi": 64,
            "name": "E4",
            "ticks": 31296,
            "time": 34.19577,
            "velocity": 0.3937007874015748
          },
          {
            "duration": 0.10489499999999907,
            "durationTicks": 96,
            "midi": 69,
            "name": "A4",
            "ticks": 31488,
            "time": 34.40556,
            "velocity": 0.3937007874015748
          },
          {
            "duration": 0.10489499999999907,
            "durationTicks": 96,
            "midi": 70,
            "name": "A#4",
            "ticks": 31680,
            "time": 34.61535,
            "velocity": 0.3937007874015748
          },
          {
            "duration": 0.10489500000000618,
            "durationTicks": 96,
            "midi": 69,
            "name": "A4",
            "ticks": 31872,
            "time": 34.82514,
            "velocity": 0.3937007874015748
          },
          {
            "duration": 0.10489499999999907,
            "durationTicks": 96,
            "midi": 77,
            "name": "F5",
            "ticks": 32256,
            "time": 35.24472,
            "velocity": 0.3937007874015748
          },
          {
            "duration": 0.10489499999999907,
            "durationTicks": 96,
            "midi": 74,
            "name": "D5",
            "ticks": 32256,
            "time": 35.24472,
            "velocity": 0.3937007874015748
          },
          {
            "duration": 0.10489499999999907,
            "durationTicks": 96,
            "midi": 74,
            "name": "D5",
            "ticks": 32448,
            "time": 35.45451,
            "velocity": 0.3937007874015748
          },
          {
            "duration": 0.10489499999999907,
            "durationTicks": 96,
            "midi": 69,
            "name": "A4",
            "ticks": 32448,
            "time": 35.45451,
            "velocity": 0.3937007874015748
          },
          {
            "duration": 0.10489500000000618,
            "durationTicks": 96,
            "midi": 76,
            "name": "E5",
            "ticks": 32640,
            "time": 35.6643,
            "velocity": 0.3937007874015748
          },
          {
            "duration": 0.10489500000000618,
            "durationTicks": 96,
            "midi": 70,
            "name": "A#4",
            "ticks": 32640,
            "time": 35.6643,
            "velocity": 0.3937007874015748
          },
          {
            "duration": 0.10489499999999907,
            "durationTicks": 96,
            "midi": 73,
            "name": "C#5",
            "ticks": 32832,
            "time": 35.87409,
            "velocity": 0.3937007874015748
          },
          {
            "duration": 0.10489499999999907,
            "durationTicks": 96,
            "midi": 67,
            "name": "G4",
            "ticks": 32832,
            "time": 35.87409,
            "velocity": 0.3937007874015748
          },
          {
            "duration": 0.10489499999999907,
            "durationTicks": 96,
            "midi": 74,
            "name": "D5",
            "ticks": 33024,
            "time": 36.08388,
            "velocity": 0.3937007874015748
          },
          {
            "duration": 0.10489499999999907,
            "durationTicks": 96,
            "midi": 69,
            "name": "A4",
            "ticks": 33024,
            "time": 36.08388,
            "velocity": 0.3937007874015748
          },
          {
            "duration": 0.10489499999999907,
            "durationTicks": 96,
            "midi": 74,
            "name": "D5",
            "ticks": 33216,
            "time": 36.29367,
            "velocity": 0.3937007874015748
          },
          {
            "duration": 0.10489499999999907,
            "durationTicks": 96,
            "midi": 77,
            "name": "F5",
            "ticks": 33216,
            "time": 36.29367,
            "velocity": 0.3937007874015748
          },
          {
            "duration": 0.10489499999999907,
            "durationTicks": 96,
            "midi": 74,
            "name": "D5",
            "ticks": 33408,
            "time": 36.503460000000004,
            "velocity": 0.3937007874015748
          },
          {
            "duration": 0.10489499999999907,
            "durationTicks": 96,
            "midi": 69,
            "name": "A4",
            "ticks": 33408,
            "time": 36.503460000000004,
            "velocity": 0.3937007874015748
          },
          {
            "duration": 0.10489499999999907,
            "durationTicks": 96,
            "midi": 73,
            "name": "C#5",
            "ticks": 33504,
            "time": 36.608355,
            "velocity": 0.3937007874015748
          },
          {
            "duration": 0.10489499999999907,
            "durationTicks": 96,
            "midi": 67,
            "name": "G4",
            "ticks": 33504,
            "time": 36.608355,
            "velocity": 0.3937007874015748
          },
          {
            "duration": 0.20978999999999814,
            "durationTicks": 192,
            "midi": 65,
            "name": "F4",
            "ticks": 33600,
            "time": 36.71325,
            "velocity": 0.3937007874015748
          },
          {
            "duration": 0.20978999999999814,
            "durationTicks": 192,
            "midi": 74,
            "name": "D5",
            "ticks": 33600,
            "time": 36.71325,
            "velocity": 0.3937007874015748
          },
          {
            "duration": 0.10489499999999907,
            "durationTicks": 96,
            "midi": 64,
            "name": "E4",
            "ticks": 33792,
            "time": 36.92304,
            "velocity": 0.3937007874015748
          },
          {
            "duration": 0.10489499999999907,
            "durationTicks": 96,
            "midi": 73,
            "name": "C#5",
            "ticks": 33792,
            "time": 36.92304,
            "velocity": 0.3937007874015748
          },
          {
            "duration": 0.10489499999999907,
            "durationTicks": 96,
            "midi": 67,
            "name": "G4",
            "ticks": 33984,
            "time": 37.13283,
            "velocity": 0.3937007874015748
          },
          {
            "duration": 0.10489499999999907,
            "durationTicks": 96,
            "midi": 76,
            "name": "E5",
            "ticks": 33984,
            "time": 37.13283,
            "velocity": 0.3937007874015748
          },
          {
            "duration": 0.10489499999999907,
            "durationTicks": 96,
            "midi": 73,
            "name": "C#5",
            "ticks": 34176,
            "time": 37.342620000000004,
            "velocity": 0.3937007874015748
          },
          {
            "duration": 0.10489499999999907,
            "durationTicks": 96,
            "midi": 65,
            "name": "F4",
            "ticks": 34176,
            "time": 37.342620000000004,
            "velocity": 0.3937007874015748
          },
          {
            "duration": 0.10489499999999907,
            "durationTicks": 96,
            "midi": 64,
            "name": "E4",
            "ticks": 34272,
            "time": 37.447515,
            "velocity": 0.3937007874015748
          },
          {
            "duration": 0.10489499999999907,
            "durationTicks": 96,
            "midi": 69,
            "name": "A4",
            "ticks": 34272,
            "time": 37.447515,
            "velocity": 0.3937007874015748
          },
          {
            "duration": 0.20978999999999814,
            "durationTicks": 192,
            "midi": 67,
            "name": "G4",
            "ticks": 34368,
            "time": 37.55241,
            "velocity": 0.3937007874015748
          },
          {
            "duration": 0.20978999999999814,
            "durationTicks": 192,
            "midi": 61,
            "name": "C#4",
            "ticks": 34368,
            "time": 37.55241,
            "velocity": 0.3937007874015748
          },
          {
            "duration": 0.10489499999999907,
            "durationTicks": 96,
            "midi": 69,
            "name": "A4",
            "ticks": 34560,
            "time": 37.7622,
            "velocity": 0.3937007874015748
          },
          {
            "duration": 0.10489499999999907,
            "durationTicks": 96,
            "midi": 62,
            "name": "D4",
            "ticks": 34560,
            "time": 37.7622,
            "velocity": 0.3937007874015748
          },
          {
            "duration": 0.10489500000000618,
            "durationTicks": 96,
            "midi": 77,
            "name": "F5",
            "ticks": 34752,
            "time": 37.97199,
            "velocity": 0.3937007874015748
          },
          {
            "duration": 0.10489500000000618,
            "durationTicks": 96,
            "midi": 70,
            "name": "A#4",
            "ticks": 34752,
            "time": 37.97199,
            "velocity": 0.3937007874015748
          },
          {
            "duration": 0.10489499999999907,
            "durationTicks": 96,
            "midi": 69,
            "name": "A4",
            "ticks": 34944,
            "time": 38.18178,
            "velocity": 0.3937007874015748
          },
          {
            "duration": 0.10489499999999907,
            "durationTicks": 96,
            "midi": 74,
            "name": "D5",
            "ticks": 34944,
            "time": 38.18178,
            "velocity": 0.3937007874015748
          },
          {
            "duration": 0.10489499999999907,
            "durationTicks": 96,
            "midi": 67,
            "name": "G4",
            "ticks": 35040,
            "time": 38.286675,
            "velocity": 0.3937007874015748
          },
          {
            "duration": 0.10489499999999907,
            "durationTicks": 96,
            "midi": 73,
            "name": "C#5",
            "ticks": 35040,
            "time": 38.286675,
            "velocity": 0.3937007874015748
          },
          {
            "duration": 0.20978999999999814,
            "durationTicks": 192,
            "midi": 69,
            "name": "A4",
            "ticks": 35136,
            "time": 38.39157,
            "velocity": 0.3937007874015748
          },
          {
            "duration": 0.20978999999999814,
            "durationTicks": 192,
            "midi": 74,
            "name": "D5",
            "ticks": 35136,
            "time": 38.39157,
            "velocity": 0.3937007874015748
          },
          {
            "duration": 0.10489499999999907,
            "durationTicks": 96,
            "midi": 64,
            "name": "E4",
            "ticks": 35328,
            "time": 38.60136,
            "velocity": 0.3937007874015748
          },
          {
            "duration": 0.10489499999999907,
            "durationTicks": 96,
            "midi": 73,
            "name": "C#5",
            "ticks": 35328,
            "time": 38.60136,
            "velocity": 0.3937007874015748
          },
          {
            "duration": 0.10489500000000618,
            "durationTicks": 96,
            "midi": 69,
            "name": "A4",
            "ticks": 35520,
            "time": 38.81115,
            "velocity": 0.3937007874015748
          },
          {
            "duration": 0.10489500000000618,
            "durationTicks": 96,
            "midi": 61,
            "name": "C#4",
            "ticks": 35520,
            "time": 38.81115,
            "velocity": 0.3937007874015748
          },
          {
            "duration": 0.10489499999999907,
            "durationTicks": 96,
            "midi": 70,
            "name": "A#4",
            "ticks": 35712,
            "time": 39.02094,
            "velocity": 0.3937007874015748
          },
          {
            "duration": 0.10489499999999907,
            "durationTicks": 96,
            "midi": 77,
            "name": "F5",
            "ticks": 35712,
            "time": 39.02094,
            "velocity": 0.3937007874015748
          },
          {
            "duration": 0.10489499999999907,
            "durationTicks": 96,
            "midi": 69,
            "name": "A4",
            "ticks": 35808,
            "time": 39.125835,
            "velocity": 0.3937007874015748
          },
          {
            "duration": 0.10489499999999907,
            "durationTicks": 96,
            "midi": 76,
            "name": "E5",
            "ticks": 35808,
            "time": 39.125835,
            "velocity": 0.3937007874015748
          },
          {
            "duration": 0.20978999999999814,
            "durationTicks": 192,
            "midi": 67,
            "name": "G4",
            "ticks": 35904,
            "time": 39.23073,
            "velocity": 0.3937007874015748
          },
          {
            "duration": 0.20978999999999814,
            "durationTicks": 192,
            "midi": 73,
            "name": "C#5",
            "ticks": 35904,
            "time": 39.23073,
            "velocity": 0.3937007874015748
          },
          {
            "duration": 0.10489499999999907,
            "durationTicks": 96,
            "midi": 74,
            "name": "D5",
            "ticks": 36096,
            "time": 39.44052,
            "velocity": 0.3937007874015748
          },
          {
            "duration": 0.10489499999999907,
            "durationTicks": 96,
            "midi": 69,
            "name": "A4",
            "ticks": 36096,
            "time": 39.44052,
            "velocity": 0.3937007874015748
          },
          {
            "duration": 0.10489500000000618,
            "durationTicks": 96,
            "midi": 81,
            "name": "A5",
            "ticks": 36288,
            "time": 39.65031,
            "velocity": 0.3937007874015748
          },
          {
            "duration": 0.10489500000000618,
            "durationTicks": 96,
            "midi": 74,
            "name": "D5",
            "ticks": 36288,
            "time": 39.65031,
            "velocity": 0.3937007874015748
          },
          {
            "duration": 0.10489499999999907,
            "durationTicks": 96,
            "midi": 77,
            "name": "F5",
            "ticks": 36480,
            "time": 39.8601,
            "velocity": 0.3937007874015748
          },
          {
            "duration": 0.10489499999999907,
            "durationTicks": 96,
            "midi": 84,
            "name": "C6",
            "ticks": 36480,
            "time": 39.8601,
            "velocity": 0.3937007874015748
          },
          {
            "duration": 0.10489499999999907,
            "durationTicks": 96,
            "midi": 76,
            "name": "E5",
            "ticks": 36576,
            "time": 39.964995,
            "velocity": 0.3937007874015748
          },
          {
            "duration": 0.10489499999999907,
            "durationTicks": 96,
            "midi": 82,
            "name": "A#5",
            "ticks": 36576,
            "time": 39.964995,
            "velocity": 0.3937007874015748
          },
          {
            "duration": 0.20978999999999814,
            "durationTicks": 192,
            "midi": 81,
            "name": "A5",
            "ticks": 36672,
            "time": 40.06989,
            "velocity": 0.3937007874015748
          },
          {
            "duration": 0.20978999999999814,
            "durationTicks": 192,
            "midi": 74,
            "name": "D5",
            "ticks": 36672,
            "time": 40.06989,
            "velocity": 0.3937007874015748
          },
          {
            "duration": 0.10489499999999907,
            "durationTicks": 96,
            "midi": 70,
            "name": "A#4",
            "ticks": 36864,
            "time": 40.27968,
            "velocity": 0.3937007874015748
          },
          {
            "duration": 0.10489499999999907,
            "durationTicks": 96,
            "midi": 79,
            "name": "G5",
            "ticks": 36864,
            "time": 40.27968,
            "velocity": 0.3937007874015748
          },
          {
            "duration": 0.10489500000000618,
            "durationTicks": 96,
            "midi": 69,
            "name": "A4",
            "ticks": 36960,
            "time": 40.384575,
            "velocity": 0.3937007874015748
          },
          {
            "duration": 0.10489500000000618,
            "durationTicks": 96,
            "midi": 77,
            "name": "F5",
            "ticks": 36960,
            "time": 40.384575,
            "velocity": 0.3937007874015748
          },
          {
            "duration": 0.10489500000000618,
            "durationTicks": 96,
            "midi": 70,
            "name": "A#4",
            "ticks": 37008,
            "time": 40.4370225,
            "velocity": 0.3937007874015748
          },
          {
            "duration": 0.10489500000000618,
            "durationTicks": 96,
            "midi": 79,
            "name": "G5",
            "ticks": 37008,
            "time": 40.4370225,
            "velocity": 0.3937007874015748
          },
          {
            "duration": 0.20978999999999814,
            "durationTicks": 192,
            "midi": 77,
            "name": "F5",
            "ticks": 37056,
            "time": 40.489470000000004,
            "velocity": 0.3937007874015748
          },
          {
            "duration": 0.20978999999999814,
            "durationTicks": 192,
            "midi": 69,
            "name": "A4",
            "ticks": 37056,
            "time": 40.489470000000004,
            "velocity": 0.3937007874015748
          },
          {
            "duration": 0.10489499999999907,
            "durationTicks": 96,
            "midi": 76,
            "name": "E5",
            "ticks": 37248,
            "time": 40.69926,
            "velocity": 0.3937007874015748
          },
          {
            "duration": 0.10489499999999907,
            "durationTicks": 96,
            "midi": 67,
            "name": "G4",
            "ticks": 37248,
            "time": 40.69926,
            "velocity": 0.3937007874015748
          },
          {
            "duration": 0.10489499999999907,
            "durationTicks": 96,
            "midi": 65,
            "name": "F4",
            "ticks": 37344,
            "time": 40.804155,
            "velocity": 0.3937007874015748
          },
          {
            "duration": 0.10489499999999907,
            "durationTicks": 96,
            "midi": 74,
            "name": "D5",
            "ticks": 37344,
            "time": 40.804155,
            "velocity": 0.3937007874015748
          },
          {
            "duration": 0.10489499999999907,
            "durationTicks": 96,
            "midi": 64,
            "name": "E4",
            "ticks": 37440,
            "time": 40.90905,
            "velocity": 0.3937007874015748
          },
          {
            "duration": 0.10489499999999907,
            "durationTicks": 96,
            "midi": 73,
            "name": "C#5",
            "ticks": 37440,
            "time": 40.90905,
            "velocity": 0.3937007874015748
          },
          {
            "duration": 0.10489499999999907,
            "durationTicks": 96,
            "midi": 62,
            "name": "D4",
            "ticks": 37536,
            "time": 41.013945,
            "velocity": 0.3937007874015748
          },
          {
            "duration": 0.10489499999999907,
            "durationTicks": 96,
            "midi": 70,
            "name": "A#4",
            "ticks": 37536,
            "time": 41.013945,
            "velocity": 0.3937007874015748
          },
          {
            "duration": 0.10489499999999907,
            "durationTicks": 96,
            "midi": 61,
            "name": "C#4",
            "ticks": 37632,
            "time": 41.11884,
            "velocity": 0.3937007874015748
          },
          {
            "duration": 0.10489499999999907,
            "durationTicks": 96,
            "midi": 69,
            "name": "A4",
            "ticks": 37632,
            "time": 41.11884,
            "velocity": 0.3937007874015748
          },
          {
            "duration": 0.10489499999999907,
            "durationTicks": 96,
            "midi": 73,
            "name": "C#5",
            "ticks": 37824,
            "time": 41.328630000000004,
            "velocity": 0.3937007874015748
          },
          {
            "duration": 0.10489499999999907,
            "durationTicks": 96,
            "midi": 69,
            "name": "A4",
            "ticks": 37824,
            "time": 41.328630000000004,
            "velocity": 0.3937007874015748
          },
          {
            "duration": 0.10489499999999907,
            "durationTicks": 96,
            "midi": 62,
            "name": "D4",
            "ticks": 38016,
            "time": 41.53842,
            "velocity": 0.3937007874015748
          },
          {
            "duration": 0.10489499999999907,
            "durationTicks": 96,
            "midi": 74,
            "name": "D5",
            "ticks": 38016,
            "time": 41.53842,
            "velocity": 0.3937007874015748
          },
          {
            "duration": 0.10489499999999907,
            "durationTicks": 96,
            "midi": 84,
            "name": "C6",
            "ticks": 51072,
            "time": 55.804140000000004,
            "velocity": 0.3937007874015748
          },
          {
            "duration": 0.10489499999999907,
            "durationTicks": 96,
            "midi": 82,
            "name": "A#5",
            "ticks": 51168,
            "time": 55.909035,
            "velocity": 0.3937007874015748
          },
          {
            "duration": 0.10489499999999907,
            "durationTicks": 96,
            "midi": 81,
            "name": "A5",
            "ticks": 51264,
            "time": 56.01393,
            "velocity": 0.3937007874015748
          },
          {
            "duration": 0.10489499999999907,
            "durationTicks": 96,
            "midi": 79,
            "name": "G5",
            "ticks": 51360,
            "time": 56.118825,
            "velocity": 0.3937007874015748
          },
          {
            "duration": 0.10489499999999907,
            "durationTicks": 96,
            "midi": 77,
            "name": "F5",
            "ticks": 51456,
            "time": 56.22372,
            "velocity": 0.3937007874015748
          },
          {
            "duration": 0.10489499999999907,
            "durationTicks": 96,
            "midi": 84,
            "name": "C6",
            "ticks": 51840,
            "time": 56.6433,
            "velocity": 0.3937007874015748
          },
          {
            "duration": 0.10489499999999907,
            "durationTicks": 96,
            "midi": 82,
            "name": "A#5",
            "ticks": 51936,
            "time": 56.748195,
            "velocity": 0.3937007874015748
          },
          {
            "duration": 0.10489499999999907,
            "durationTicks": 96,
            "midi": 81,
            "name": "A5",
            "ticks": 52032,
            "time": 56.85309,
            "velocity": 0.3937007874015748
          },
          {
            "duration": 0.10489499999999907,
            "durationTicks": 96,
            "midi": 79,
            "name": "G5",
            "ticks": 52128,
            "time": 56.957985,
            "velocity": 0.3937007874015748
          },
          {
            "duration": 0.10489499999999907,
            "durationTicks": 96,
            "midi": 77,
            "name": "F5",
            "ticks": 52224,
            "time": 57.06288,
            "velocity": 0.3937007874015748
          },
          {
            "duration": 0.10489499999999907,
            "durationTicks": 96,
            "midi": 77,
            "name": "F5",
            "ticks": 52608,
            "time": 57.48246,
            "velocity": 0.3937007874015748
          },
          {
            "duration": 0.10489499999999907,
            "durationTicks": 96,
            "midi": 76,
            "name": "E5",
            "ticks": 52704,
            "time": 57.587355,
            "velocity": 0.3937007874015748
          },
          {
            "duration": 0.10489499999999907,
            "durationTicks": 96,
            "midi": 74,
            "name": "D5",
            "ticks": 52800,
            "time": 57.69225,
            "velocity": 0.3937007874015748
          },
          {
            "duration": 0.10489499999999907,
            "durationTicks": 96,
            "midi": 72,
            "name": "C5",
            "ticks": 52896,
            "time": 57.797145,
            "velocity": 0.3937007874015748
          },
          {
            "duration": 0.10489499999999907,
            "durationTicks": 96,
            "midi": 69,
            "name": "A4",
            "ticks": 52992,
            "time": 57.90204,
            "velocity": 0.3937007874015748
          },
          {
            "duration": 0.10489499999999907,
            "durationTicks": 96,
            "midi": 77,
            "name": "F5",
            "ticks": 53376,
            "time": 58.32162,
            "velocity": 0.3937007874015748
          },
          {
            "duration": 0.10489499999999907,
            "durationTicks": 96,
            "midi": 76,
            "name": "E5",
            "ticks": 53472,
            "time": 58.426515,
            "velocity": 0.3937007874015748
          },
          {
            "duration": 0.10489499999999907,
            "durationTicks": 96,
            "midi": 74,
            "name": "D5",
            "ticks": 53568,
            "time": 58.53141,
            "velocity": 0.3937007874015748
          },
          {
            "duration": 0.10489499999999907,
            "durationTicks": 96,
            "midi": 72,
            "name": "C5",
            "ticks": 53664,
            "time": 58.636305,
            "velocity": 0.3937007874015748
          },
          {
            "duration": 0.10489499999999907,
            "durationTicks": 96,
            "midi": 69,
            "name": "A4",
            "ticks": 53760,
            "time": 58.7412,
            "velocity": 0.3937007874015748
          },
          {
            "duration": 0.10489499999999907,
            "durationTicks": 96,
            "midi": 84,
            "name": "C6",
            "ticks": 57216,
            "time": 62.51742,
            "velocity": 0.3937007874015748
          },
          {
            "duration": 0.10489499999999907,
            "durationTicks": 96,
            "midi": 82,
            "name": "A#5",
            "ticks": 57312,
            "time": 62.622315,
            "velocity": 0.3937007874015748
          },
          {
            "duration": 0.10489499999999907,
            "durationTicks": 96,
            "midi": 81,
            "name": "A5",
            "ticks": 57408,
            "time": 62.72721,
            "velocity": 0.3937007874015748
          },
          {
            "duration": 0.10489500000000618,
            "durationTicks": 96,
            "midi": 79,
            "name": "G5",
            "ticks": 57504,
            "time": 62.832105,
            "velocity": 0.3937007874015748
          },
          {
            "duration": 0.10489499999999907,
            "durationTicks": 96,
            "midi": 77,
            "name": "F5",
            "ticks": 57600,
            "time": 62.937000000000005,
            "velocity": 0.3937007874015748
          },
          {
            "duration": 0.10489499999999907,
            "durationTicks": 96,
            "midi": 84,
            "name": "C6",
            "ticks": 57984,
            "time": 63.35658,
            "velocity": 0.3937007874015748
          },
          {
            "duration": 0.10489499999999907,
            "durationTicks": 96,
            "midi": 82,
            "name": "A#5",
            "ticks": 58080,
            "time": 63.461475,
            "velocity": 0.3937007874015748
          },
          {
            "duration": 0.10489499999999907,
            "durationTicks": 96,
            "midi": 81,
            "name": "A5",
            "ticks": 58176,
            "time": 63.56637,
            "velocity": 0.3937007874015748
          },
          {
            "duration": 0.10489500000000618,
            "durationTicks": 96,
            "midi": 79,
            "name": "G5",
            "ticks": 58272,
            "time": 63.671265,
            "velocity": 0.3937007874015748
          },
          {
            "duration": 0.10489499999999907,
            "durationTicks": 96,
            "midi": 77,
            "name": "F5",
            "ticks": 58368,
            "time": 63.776160000000004,
            "velocity": 0.3937007874015748
          },
          {
            "duration": 0.10489499999999907,
            "durationTicks": 96,
            "midi": 77,
            "name": "F5",
            "ticks": 58752,
            "time": 64.19574,
            "velocity": 0.3937007874015748
          },
          {
            "duration": 0.10489499999999907,
            "durationTicks": 96,
            "midi": 76,
            "name": "E5",
            "ticks": 58848,
            "time": 64.300635,
            "velocity": 0.3937007874015748
          },
          {
            "duration": 0.10489499999999907,
            "durationTicks": 96,
            "midi": 74,
            "name": "D5",
            "ticks": 58944,
            "time": 64.40553,
            "velocity": 0.3937007874015748
          },
          {
            "duration": 0.10489499999999907,
            "durationTicks": 96,
            "midi": 72,
            "name": "C5",
            "ticks": 59040,
            "time": 64.510425,
            "velocity": 0.3937007874015748
          },
          {
            "duration": 0.10489499999999907,
            "durationTicks": 96,
            "midi": 69,
            "name": "A4",
            "ticks": 59136,
            "time": 64.61532,
            "velocity": 0.3937007874015748
          },
          {
            "duration": 0.10489499999999907,
            "durationTicks": 96,
            "midi": 77,
            "name": "F5",
            "ticks": 59520,
            "time": 65.03490000000001,
            "velocity": 0.3937007874015748
          },
          {
            "duration": 0.10489499999999907,
            "durationTicks": 96,
            "midi": 76,
            "name": "E5",
            "ticks": 59616,
            "time": 65.139795,
            "velocity": 0.3937007874015748
          },
          {
            "duration": 0.10489499999999907,
            "durationTicks": 96,
            "midi": 74,
            "name": "D5",
            "ticks": 59712,
            "time": 65.24469,
            "velocity": 0.3937007874015748
          },
          {
            "duration": 0.10489499999999907,
            "durationTicks": 96,
            "midi": 72,
            "name": "C5",
            "ticks": 59808,
            "time": 65.349585,
            "velocity": 0.3937007874015748
          },
          {
            "duration": 0.10489499999999907,
            "durationTicks": 96,
            "midi": 69,
            "name": "A4",
            "ticks": 59904,
            "time": 65.45448,
            "velocity": 0.3937007874015748
          },
          {
            "duration": 0.10489499999999907,
            "durationTicks": 96,
            "midi": 81,
            "name": "A5",
            "ticks": 60288,
            "time": 65.87406,
            "velocity": 0.3937007874015748
          },
          {
            "duration": 0.10489499999999907,
            "durationTicks": 96,
            "midi": 81,
            "name": "A5",
            "ticks": 60384,
            "time": 65.978955,
            "velocity": 0.3937007874015748
          },
          {
            "duration": 0.10489499999999907,
            "durationTicks": 96,
            "midi": 77,
            "name": "F5",
            "ticks": 60480,
            "time": 66.08385,
            "velocity": 0.3937007874015748
          },
          {
            "duration": 0.10489499999999907,
            "durationTicks": 96,
            "midi": 77,
            "name": "F5",
            "ticks": 60576,
            "time": 66.188745,
            "velocity": 0.3937007874015748
          },
          {
            "duration": 0.10489499999999907,
            "durationTicks": 96,
            "midi": 74,
            "name": "D5",
            "ticks": 60672,
            "time": 66.29364,
            "velocity": 0.3937007874015748
          },
          {
            "duration": 0.10489499999999907,
            "durationTicks": 96,
            "midi": 74,
            "name": "D5",
            "ticks": 60768,
            "time": 66.398535,
            "velocity": 0.3937007874015748
          },
          {
            "duration": 0.10489500000001328,
            "durationTicks": 96,
            "midi": 77,
            "name": "F5",
            "ticks": 60864,
            "time": 66.50343,
            "velocity": 0.3937007874015748
          },
          {
            "duration": 0.10489499999999907,
            "durationTicks": 96,
            "midi": 77,
            "name": "F5",
            "ticks": 60960,
            "time": 66.60832500000001,
            "velocity": 0.3937007874015748
          },
          {
            "duration": 0.10489499999999907,
            "durationTicks": 96,
            "midi": 81,
            "name": "A5",
            "ticks": 61056,
            "time": 66.71322,
            "velocity": 0.3937007874015748
          },
          {
            "duration": 0.10489499999999907,
            "durationTicks": 96,
            "midi": 81,
            "name": "A5",
            "ticks": 61152,
            "time": 66.818115,
            "velocity": 0.3937007874015748
          },
          {
            "duration": 0.10489499999999907,
            "durationTicks": 96,
            "midi": 84,
            "name": "C6",
            "ticks": 61248,
            "time": 66.92301,
            "velocity": 0.3937007874015748
          },
          {
            "duration": 0.10489499999999907,
            "durationTicks": 96,
            "midi": 84,
            "name": "C6",
            "ticks": 61344,
            "time": 67.027905,
            "velocity": 0.3937007874015748
          },
          {
            "duration": 0.10489499999999907,
            "durationTicks": 96,
            "midi": 81,
            "name": "A5",
            "ticks": 61440,
            "time": 67.1328,
            "velocity": 0.3937007874015748
          },
          {
            "duration": 0.10489499999999907,
            "durationTicks": 96,
            "midi": 81,
            "name": "A5",
            "ticks": 61536,
            "time": 67.237695,
            "velocity": 0.3937007874015748
          },
          {
            "duration": 0.10489499999999907,
            "durationTicks": 96,
            "midi": 80,
            "name": "G#5",
            "ticks": 61632,
            "time": 67.34259,
            "velocity": 0.3937007874015748
          },
          {
            "duration": 0.10489499999999907,
            "durationTicks": 96,
            "midi": 80,
            "name": "G#5",
            "ticks": 61728,
            "time": 67.447485,
            "velocity": 0.3937007874015748
          },
          {
            "duration": 0.10489499999999907,
            "durationTicks": 96,
            "midi": 79,
            "name": "G5",
            "ticks": 61824,
            "time": 67.55238,
            "velocity": 0.3937007874015748
          },
          {
            "duration": 0.10489499999999907,
            "durationTicks": 96,
            "midi": 79,
            "name": "G5",
            "ticks": 61920,
            "time": 67.657275,
            "velocity": 0.3937007874015748
          },
          {
            "duration": 0.10489499999999907,
            "durationTicks": 96,
            "midi": 78,
            "name": "F#5",
            "ticks": 62016,
            "time": 67.76217,
            "velocity": 0.3937007874015748
          },
          {
            "duration": 0.10489499999999907,
            "durationTicks": 96,
            "midi": 78,
            "name": "F#5",
            "ticks": 62112,
            "time": 67.867065,
            "velocity": 0.3937007874015748
          },
          {
            "duration": 0.10489499999999907,
            "durationTicks": 96,
            "midi": 81,
            "name": "A5",
            "ticks": 62208,
            "time": 67.97196,
            "velocity": 0.3937007874015748
          },
          {
            "duration": 0.10489500000001328,
            "durationTicks": 96,
            "midi": 81,
            "name": "A5",
            "ticks": 62304,
            "time": 68.076855,
            "velocity": 0.3937007874015748
          },
          {
            "duration": 0.10489499999999907,
            "durationTicks": 96,
            "midi": 84,
            "name": "C6",
            "ticks": 62400,
            "time": 68.18175000000001,
            "velocity": 0.3937007874015748
          },
          {
            "duration": 0.10489499999999907,
            "durationTicks": 96,
            "midi": 84,
            "name": "C6",
            "ticks": 62496,
            "time": 68.28664500000001,
            "velocity": 0.3937007874015748
          },
          {
            "duration": 0.10489499999999907,
            "durationTicks": 96,
            "midi": 86,
            "name": "D6",
            "ticks": 62592,
            "time": 68.39154,
            "velocity": 0.3937007874015748
          },
          {
            "duration": 0.10489499999999907,
            "durationTicks": 96,
            "midi": 86,
            "name": "D6",
            "ticks": 62688,
            "time": 68.496435,
            "velocity": 0.3937007874015748
          },
          {
            "duration": 0.10489499999999907,
            "durationTicks": 96,
            "midi": 88,
            "name": "E6",
            "ticks": 62784,
            "time": 68.60133,
            "velocity": 0.3937007874015748
          },
          {
            "duration": 0.10489499999999907,
            "durationTicks": 96,
            "midi": 88,
            "name": "E6",
            "ticks": 62880,
            "time": 68.706225,
            "velocity": 0.3937007874015748
          },
          {
            "duration": 0.10489499999999907,
            "durationTicks": 96,
            "midi": 74,
            "name": "D5",
            "ticks": 63360,
            "time": 69.2307,
            "velocity": 0.3937007874015748
          },
          {
            "duration": 0.10489499999999907,
            "durationTicks": 96,
            "midi": 74,
            "name": "D5",
            "ticks": 63552,
            "time": 69.44049,
            "velocity": 0.3937007874015748
          },
          {
            "duration": 0.10489500000001328,
            "durationTicks": 96,
            "midi": 74,
            "name": "D5",
            "ticks": 63744,
            "time": 69.65028,
            "velocity": 0.3937007874015748
          },
          {
            "duration": 0.10489499999999907,
            "durationTicks": 96,
            "midi": 74,
            "name": "D5",
            "ticks": 63936,
            "time": 69.86007000000001,
            "velocity": 0.3937007874015748
          },
          {
            "duration": 0.10489499999999907,
            "durationTicks": 96,
            "midi": 86,
            "name": "D6",
            "ticks": 63936,
            "time": 69.86007000000001,
            "velocity": 0.3937007874015748
          },
          {
            "duration": 0.10489499999999907,
            "durationTicks": 96,
            "midi": 86,
            "name": "D6",
            "ticks": 64128,
            "time": 70.06986,
            "velocity": 0.3937007874015748
          },
          {
            "duration": 0.10489499999999907,
            "durationTicks": 96,
            "midi": 86,
            "name": "D6",
            "ticks": 64320,
            "time": 70.27965,
            "velocity": 0.3937007874015748
          },
          {
            "duration": 0.10489499999999907,
            "durationTicks": 96,
            "midi": 86,
            "name": "D6",
            "ticks": 64512,
            "time": 70.48944,
            "velocity": 0.3937007874015748
          },
          {
            "duration": 0.10489499999999907,
            "durationTicks": 96,
            "midi": 73,
            "name": "C#5",
            "ticks": 64896,
            "time": 70.90902,
            "velocity": 0.3937007874015748
          },
          {
            "duration": 0.10489499999999907,
            "durationTicks": 96,
            "midi": 73,
            "name": "C#5",
            "ticks": 65088,
            "time": 71.11881,
            "velocity": 0.3937007874015748
          },
          {
            "duration": 0.10489500000001328,
            "durationTicks": 96,
            "midi": 73,
            "name": "C#5",
            "ticks": 65280,
            "time": 71.3286,
            "velocity": 0.3937007874015748
          },
          {
            "duration": 0.10489499999999907,
            "durationTicks": 96,
            "midi": 85,
            "name": "C#6",
            "ticks": 65472,
            "time": 71.53839,
            "velocity": 0.3937007874015748
          },
          {
            "duration": 0.10489499999999907,
            "durationTicks": 96,
            "midi": 73,
            "name": "C#5",
            "ticks": 65472,
            "time": 71.53839,
            "velocity": 0.3937007874015748
          },
          {
            "duration": 0.10489499999999907,
            "durationTicks": 96,
            "midi": 85,
            "name": "C#6",
            "ticks": 65664,
            "time": 71.74818,
            "velocity": 0.3937007874015748
          },
          {
            "duration": 0.10489499999999907,
            "durationTicks": 96,
            "midi": 85,
            "name": "C#6",
            "ticks": 65856,
            "time": 71.95797,
            "velocity": 0.3937007874015748
          },
          {
            "duration": 0.10489499999999907,
            "durationTicks": 96,
            "midi": 85,
            "name": "C#6",
            "ticks": 66048,
            "time": 72.16776,
            "velocity": 0.3937007874015748
          },
          {
            "duration": 0.10489499999999907,
            "durationTicks": 96,
            "midi": 74,
            "name": "D5",
            "ticks": 66432,
            "time": 72.58734,
            "velocity": 0.3937007874015748
          },
          {
            "duration": 0.10489499999999907,
            "durationTicks": 96,
            "midi": 74,
            "name": "D5",
            "ticks": 66624,
            "time": 72.79713,
            "velocity": 0.3937007874015748
          },
          {
            "duration": 0.10489499999999907,
            "durationTicks": 96,
            "midi": 74,
            "name": "D5",
            "ticks": 66816,
            "time": 73.00692000000001,
            "velocity": 0.3937007874015748
          },
          {
            "duration": 0.10489499999999907,
            "durationTicks": 96,
            "midi": 74,
            "name": "D5",
            "ticks": 67008,
            "time": 73.21671,
            "velocity": 0.3937007874015748
          },
          {
            "duration": 0.10489499999999907,
            "durationTicks": 96,
            "midi": 86,
            "name": "D6",
            "ticks": 67008,
            "time": 73.21671,
            "velocity": 0.3937007874015748
          },
          {
            "duration": 0.10489499999999907,
            "durationTicks": 96,
            "midi": 86,
            "name": "D6",
            "ticks": 67200,
            "time": 73.4265,
            "velocity": 0.3937007874015748
          },
          {
            "duration": 0.10489499999999907,
            "durationTicks": 96,
            "midi": 86,
            "name": "D6",
            "ticks": 67392,
            "time": 73.63629,
            "velocity": 0.3937007874015748
          },
          {
            "duration": 0.10489499999999907,
            "durationTicks": 96,
            "midi": 86,
            "name": "D6",
            "ticks": 67584,
            "time": 73.84608,
            "velocity": 0.3937007874015748
          },
          {
            "duration": 0.10489499999999907,
            "durationTicks": 96,
            "midi": 73,
            "name": "C#5",
            "ticks": 67968,
            "time": 74.26566,
            "velocity": 0.3937007874015748
          },
          {
            "duration": 0.10489500000001328,
            "durationTicks": 96,
            "midi": 73,
            "name": "C#5",
            "ticks": 68160,
            "time": 74.47545,
            "velocity": 0.3937007874015748
          },
          {
            "duration": 0.10489499999999907,
            "durationTicks": 96,
            "midi": 73,
            "name": "C#5",
            "ticks": 68352,
            "time": 74.68524000000001,
            "velocity": 0.3937007874015748
          },
          {
            "duration": 0.10489499999999907,
            "durationTicks": 96,
            "midi": 85,
            "name": "C#6",
            "ticks": 68544,
            "time": 74.89503,
            "velocity": 0.3937007874015748
          },
          {
            "duration": 0.10489499999999907,
            "durationTicks": 96,
            "midi": 73,
            "name": "C#5",
            "ticks": 68544,
            "time": 74.89503,
            "velocity": 0.3937007874015748
          },
          {
            "duration": 0.10489499999999907,
            "durationTicks": 96,
            "midi": 85,
            "name": "C#6",
            "ticks": 68736,
            "time": 75.10482,
            "velocity": 0.3937007874015748
          },
          {
            "duration": 0.10489499999999907,
            "durationTicks": 96,
            "midi": 85,
            "name": "C#6",
            "ticks": 68928,
            "time": 75.31461,
            "velocity": 0.3937007874015748
          },
          {
            "duration": 0.10489499999999907,
            "durationTicks": 96,
            "midi": 85,
            "name": "C#6",
            "ticks": 69120,
            "time": 75.5244,
            "velocity": 0.3937007874015748
          },
          {
            "duration": 0.10489499999999907,
            "durationTicks": 96,
            "midi": 74,
            "name": "D5",
            "ticks": 75264,
            "time": 82.23768,
            "velocity": 0.3937007874015748
          },
          {
            "duration": 0.10489499999999907,
            "durationTicks": 96,
            "midi": 69,
            "name": "A4",
            "ticks": 75456,
            "time": 82.44747,
            "velocity": 0.3937007874015748
          },
          {
            "duration": 0.10489499999999907,
            "durationTicks": 96,
            "midi": 70,
            "name": "A#4",
            "ticks": 75648,
            "time": 82.65726000000001,
            "velocity": 0.3937007874015748
          },
          {
            "duration": 0.10489499999999907,
            "durationTicks": 96,
            "midi": 67,
            "name": "G4",
            "ticks": 75840,
            "time": 82.86705,
            "velocity": 0.3937007874015748
          },
          {
            "duration": 0.10489499999999907,
            "durationTicks": 96,
            "midi": 69,
            "name": "A4",
            "ticks": 76032,
            "time": 83.07684,
            "velocity": 0.3937007874015748
          },
          {
            "duration": 0.10489499999999907,
            "durationTicks": 96,
            "midi": 74,
            "name": "D5",
            "ticks": 76224,
            "time": 83.28663,
            "velocity": 0.3937007874015748
          },
          {
            "duration": 0.10489499999999907,
            "durationTicks": 96,
            "midi": 69,
            "name": "A4",
            "ticks": 76416,
            "time": 83.49642,
            "velocity": 0.3937007874015748
          },
          {
            "duration": 0.10489499999999907,
            "durationTicks": 96,
            "midi": 67,
            "name": "G4",
            "ticks": 76512,
            "time": 83.601315,
            "velocity": 0.3937007874015748
          },
          {
            "duration": 0.20978999999999814,
            "durationTicks": 192,
            "midi": 65,
            "name": "F4",
            "ticks": 76608,
            "time": 83.70621,
            "velocity": 0.3937007874015748
          },
          {
            "duration": 0.10489499999999907,
            "durationTicks": 96,
            "midi": 64,
            "name": "E4",
            "ticks": 76800,
            "time": 83.916,
            "velocity": 0.3937007874015748
          },
          {
            "duration": 0.10489500000001328,
            "durationTicks": 96,
            "midi": 67,
            "name": "G4",
            "ticks": 76992,
            "time": 84.12579,
            "velocity": 0.3937007874015748
          },
          {
            "duration": 0.10489499999999907,
            "durationTicks": 96,
            "midi": 65,
            "name": "F4",
            "ticks": 77184,
            "time": 84.33558000000001,
            "velocity": 0.3937007874015748
          },
          {
            "duration": 0.10489499999999907,
            "durationTicks": 96,
            "midi": 64,
            "name": "E4",
            "ticks": 77280,
            "time": 84.440475,
            "velocity": 0.3937007874015748
          },
          {
            "duration": 0.20978999999999814,
            "durationTicks": 192,
            "midi": 61,
            "name": "C#4",
            "ticks": 77376,
            "time": 84.54537,
            "velocity": 0.3937007874015748
          },
          {
            "duration": 0.10489499999999907,
            "durationTicks": 96,
            "midi": 62,
            "name": "D4",
            "ticks": 77568,
            "time": 84.75516,
            "velocity": 0.3937007874015748
          },
          {
            "duration": 0.10489499999999907,
            "durationTicks": 96,
            "midi": 70,
            "name": "A#4",
            "ticks": 77760,
            "time": 84.96495,
            "velocity": 0.3937007874015748
          },
          {
            "duration": 0.10489499999999907,
            "durationTicks": 96,
            "midi": 69,
            "name": "A4",
            "ticks": 77952,
            "time": 85.17474,
            "velocity": 0.3937007874015748
          },
          {
            "duration": 0.10489499999999907,
            "durationTicks": 96,
            "midi": 67,
            "name": "G4",
            "ticks": 78048,
            "time": 85.279635,
            "velocity": 0.3937007874015748
          },
          {
            "duration": 0.20978999999999814,
            "durationTicks": 192,
            "midi": 69,
            "name": "A4",
            "ticks": 78144,
            "time": 85.38453,
            "velocity": 0.3937007874015748
          },
          {
            "duration": 0.10489499999999907,
            "durationTicks": 96,
            "midi": 64,
            "name": "E4",
            "ticks": 78336,
            "time": 85.59432,
            "velocity": 0.3937007874015748
          },
          {
            "duration": 0.10489499999999907,
            "durationTicks": 96,
            "midi": 61,
            "name": "C#4",
            "ticks": 78528,
            "time": 85.80411000000001,
            "velocity": 0.3937007874015748
          },
          {
            "duration": 0.10489499999999907,
            "durationTicks": 96,
            "midi": 70,
            "name": "A#4",
            "ticks": 78720,
            "time": 86.0139,
            "velocity": 0.3937007874015748
          },
          {
            "duration": 0.10489499999999907,
            "durationTicks": 96,
            "midi": 69,
            "name": "A4",
            "ticks": 78816,
            "time": 86.118795,
            "velocity": 0.3937007874015748
          },
          {
            "duration": 0.20978999999999814,
            "durationTicks": 192,
            "midi": 67,
            "name": "G4",
            "ticks": 78912,
            "time": 86.22369,
            "velocity": 0.3937007874015748
          },
          {
            "duration": 0.10489499999999907,
            "durationTicks": 96,
            "midi": 69,
            "name": "A4",
            "ticks": 79104,
            "time": 86.43348,
            "velocity": 0.3937007874015748
          },
          {
            "duration": 0.10489499999999907,
            "durationTicks": 96,
            "midi": 74,
            "name": "D5",
            "ticks": 79296,
            "time": 86.64327,
            "velocity": 0.3937007874015748
          },
          {
            "duration": 0.10489499999999907,
            "durationTicks": 96,
            "midi": 77,
            "name": "F5",
            "ticks": 79488,
            "time": 86.85306,
            "velocity": 0.3937007874015748
          },
          {
            "duration": 0.10489499999999907,
            "durationTicks": 96,
            "midi": 76,
            "name": "E5",
            "ticks": 79584,
            "time": 86.957955,
            "velocity": 0.3937007874015748
          },
          {
            "duration": 0.20978999999999814,
            "durationTicks": 192,
            "midi": 74,
            "name": "D5",
            "ticks": 79680,
            "time": 87.06285,
            "velocity": 0.3937007874015748
          },
          {
            "duration": 0.10489500000001328,
            "durationTicks": 96,
            "midi": 77,
            "name": "F5",
            "ticks": 79872,
            "time": 87.27264,
            "velocity": 0.3937007874015748
          },
          {
            "duration": 0.10489499999999907,
            "durationTicks": 96,
            "midi": 74,
            "name": "D5",
            "ticks": 80064,
            "time": 87.48243000000001,
            "velocity": 0.3937007874015748
          },
          {
            "duration": 0.10489499999999907,
            "durationTicks": 96,
            "midi": 70,
            "name": "A#4",
            "ticks": 80256,
            "time": 87.69222,
            "velocity": 0.3937007874015748
          },
          {
            "duration": 0.10489499999999907,
            "durationTicks": 96,
            "midi": 67,
            "name": "G4",
            "ticks": 80352,
            "time": 87.797115,
            "velocity": 0.3937007874015748
          },
          {
            "duration": 0.20978999999999814,
            "durationTicks": 192,
            "midi": 64,
            "name": "E4",
            "ticks": 80448,
            "time": 87.90201,
            "velocity": 0.3937007874015748
          },
          {
            "duration": 0.10489499999999907,
            "durationTicks": 96,
            "midi": 69,
            "name": "A4",
            "ticks": 80640,
            "time": 88.1118,
            "velocity": 0.3937007874015748
          },
          {
            "duration": 0.10489499999999907,
            "durationTicks": 96,
            "midi": 70,
            "name": "A#4",
            "ticks": 80832,
            "time": 88.32159,
            "velocity": 0.3937007874015748
          },
          {
            "duration": 0.10489499999999907,
            "durationTicks": 96,
            "midi": 69,
            "name": "A4",
            "ticks": 81024,
            "time": 88.53138,
            "velocity": 0.3937007874015748
          },
          {
            "duration": 0.10489500000001328,
            "durationTicks": 96,
            "midi": 77,
            "name": "F5",
            "ticks": 81408,
            "time": 88.95096,
            "velocity": 0.3937007874015748
          },
          {
            "duration": 0.10489500000001328,
            "durationTicks": 96,
            "midi": 74,
            "name": "D5",
            "ticks": 81408,
            "time": 88.95096,
            "velocity": 0.3937007874015748
          },
          {
            "duration": 0.10489499999999907,
            "durationTicks": 96,
            "midi": 69,
            "name": "A4",
            "ticks": 81600,
            "time": 89.16075000000001,
            "velocity": 0.3937007874015748
          },
          {
            "duration": 0.10489499999999907,
            "durationTicks": 96,
            "midi": 74,
            "name": "D5",
            "ticks": 81600,
            "time": 89.16075000000001,
            "velocity": 0.3937007874015748
          },
          {
            "duration": 0.10489499999999907,
            "durationTicks": 96,
            "midi": 76,
            "name": "E5",
            "ticks": 81792,
            "time": 89.37054,
            "velocity": 0.3937007874015748
          },
          {
            "duration": 0.10489499999999907,
            "durationTicks": 96,
            "midi": 70,
            "name": "A#4",
            "ticks": 81792,
            "time": 89.37054,
            "velocity": 0.3937007874015748
          },
          {
            "duration": 0.10489499999999907,
            "durationTicks": 96,
            "midi": 73,
            "name": "C#5",
            "ticks": 81984,
            "time": 89.58033,
            "velocity": 0.3937007874015748
          },
          {
            "duration": 0.10489499999999907,
            "durationTicks": 96,
            "midi": 67,
            "name": "G4",
            "ticks": 81984,
            "time": 89.58033,
            "velocity": 0.3937007874015748
          },
          {
            "duration": 0.10489499999999907,
            "durationTicks": 96,
            "midi": 74,
            "name": "D5",
            "ticks": 82176,
            "time": 89.79012,
            "velocity": 0.3937007874015748
          },
          {
            "duration": 0.10489499999999907,
            "durationTicks": 96,
            "midi": 69,
            "name": "A4",
            "ticks": 82176,
            "time": 89.79012,
            "velocity": 0.3937007874015748
          },
          {
            "duration": 0.10489499999999907,
            "durationTicks": 96,
            "midi": 77,
            "name": "F5",
            "ticks": 82368,
            "time": 89.99991,
            "velocity": 0.3937007874015748
          },
          {
            "duration": 0.10489499999999907,
            "durationTicks": 96,
            "midi": 74,
            "name": "D5",
            "ticks": 82368,
            "time": 89.99991,
            "velocity": 0.3937007874015748
          },
          {
            "duration": 0.10489499999999907,
            "durationTicks": 96,
            "midi": 69,
            "name": "A4",
            "ticks": 82560,
            "time": 90.2097,
            "velocity": 0.3937007874015748
          },
          {
            "duration": 0.10489499999999907,
            "durationTicks": 96,
            "midi": 74,
            "name": "D5",
            "ticks": 82560,
            "time": 90.2097,
            "velocity": 0.3937007874015748
          },
          {
            "duration": 0.10489499999999907,
            "durationTicks": 96,
            "midi": 67,
            "name": "G4",
            "ticks": 82656,
            "time": 90.314595,
            "velocity": 0.3937007874015748
          },
          {
            "duration": 0.10489499999999907,
            "durationTicks": 96,
            "midi": 73,
            "name": "C#5",
            "ticks": 82656,
            "time": 90.314595,
            "velocity": 0.3937007874015748
          },
          {
            "duration": 0.20979000000001236,
            "durationTicks": 192,
            "midi": 65,
            "name": "F4",
            "ticks": 82752,
            "time": 90.41949,
            "velocity": 0.3937007874015748
          },
          {
            "duration": 0.20979000000001236,
            "durationTicks": 192,
            "midi": 74,
            "name": "D5",
            "ticks": 82752,
            "time": 90.41949,
            "velocity": 0.3937007874015748
          },
          {
            "duration": 0.10489499999999907,
            "durationTicks": 96,
            "midi": 73,
            "name": "C#5",
            "ticks": 82944,
            "time": 90.62928000000001,
            "velocity": 0.3937007874015748
          },
          {
            "duration": 0.10489499999999907,
            "durationTicks": 96,
            "midi": 64,
            "name": "E4",
            "ticks": 82944,
            "time": 90.62928000000001,
            "velocity": 0.3937007874015748
          },
          {
            "duration": 0.10489499999999907,
            "durationTicks": 96,
            "midi": 67,
            "name": "G4",
            "ticks": 83136,
            "time": 90.83907,
            "velocity": 0.3937007874015748
          },
          {
            "duration": 0.10489499999999907,
            "durationTicks": 96,
            "midi": 76,
            "name": "E5",
            "ticks": 83136,
            "time": 90.83907,
            "velocity": 0.3937007874015748
          },
          {
            "duration": 0.10489499999999907,
            "durationTicks": 96,
            "midi": 65,
            "name": "F4",
            "ticks": 83328,
            "time": 91.04886,
            "velocity": 0.3937007874015748
          },
          {
            "duration": 0.10489499999999907,
            "durationTicks": 96,
            "midi": 73,
            "name": "C#5",
            "ticks": 83328,
            "time": 91.04886,
            "velocity": 0.3937007874015748
          },
          {
            "duration": 0.10489499999999907,
            "durationTicks": 96,
            "midi": 69,
            "name": "A4",
            "ticks": 83424,
            "time": 91.153755,
            "velocity": 0.3937007874015748
          },
          {
            "duration": 0.10489499999999907,
            "durationTicks": 96,
            "midi": 64,
            "name": "E4",
            "ticks": 83424,
            "time": 91.153755,
            "velocity": 0.3937007874015748
          },
          {
            "duration": 0.20978999999999814,
            "durationTicks": 192,
            "midi": 61,
            "name": "C#4",
            "ticks": 83520,
            "time": 91.25865,
            "velocity": 0.3937007874015748
          },
          {
            "duration": 0.20978999999999814,
            "durationTicks": 192,
            "midi": 67,
            "name": "G4",
            "ticks": 83520,
            "time": 91.25865,
            "velocity": 0.3937007874015748
          },
          {
            "duration": 0.10489499999999907,
            "durationTicks": 96,
            "midi": 62,
            "name": "D4",
            "ticks": 83712,
            "time": 91.46844,
            "velocity": 0.3937007874015748
          },
          {
            "duration": 0.10489499999999907,
            "durationTicks": 96,
            "midi": 69,
            "name": "A4",
            "ticks": 83712,
            "time": 91.46844,
            "velocity": 0.3937007874015748
          },
          {
            "duration": 0.10489499999999907,
            "durationTicks": 96,
            "midi": 70,
            "name": "A#4",
            "ticks": 83904,
            "time": 91.67823,
            "velocity": 0.3937007874015748
          },
          {
            "duration": 0.10489499999999907,
            "durationTicks": 96,
            "midi": 77,
            "name": "F5",
            "ticks": 83904,
            "time": 91.67823,
            "velocity": 0.3937007874015748
          },
          {
            "duration": 0.10489499999999907,
            "durationTicks": 96,
            "midi": 74,
            "name": "D5",
            "ticks": 84096,
            "time": 91.88802,
            "velocity": 0.3937007874015748
          },
          {
            "duration": 0.10489499999999907,
            "durationTicks": 96,
            "midi": 69,
            "name": "A4",
            "ticks": 84096,
            "time": 91.88802,
            "velocity": 0.3937007874015748
          },
          {
            "duration": 0.10489499999999907,
            "durationTicks": 96,
            "midi": 73,
            "name": "C#5",
            "ticks": 84192,
            "time": 91.992915,
            "velocity": 0.3937007874015748
          },
          {
            "duration": 0.10489499999999907,
            "durationTicks": 96,
            "midi": 67,
            "name": "G4",
            "ticks": 84192,
            "time": 91.992915,
            "velocity": 0.3937007874015748
          },
          {
            "duration": 0.20979000000001236,
            "durationTicks": 192,
            "midi": 69,
            "name": "A4",
            "ticks": 84288,
            "time": 92.09781,
            "velocity": 0.3937007874015748
          },
          {
            "duration": 0.20979000000001236,
            "durationTicks": 192,
            "midi": 74,
            "name": "D5",
            "ticks": 84288,
            "time": 92.09781,
            "velocity": 0.3937007874015748
          },
          {
            "duration": 0.10489499999999907,
            "durationTicks": 96,
            "midi": 73,
            "name": "C#5",
            "ticks": 84480,
            "time": 92.30760000000001,
            "velocity": 0.3937007874015748
          },
          {
            "duration": 0.10489499999999907,
            "durationTicks": 96,
            "midi": 64,
            "name": "E4",
            "ticks": 84480,
            "time": 92.30760000000001,
            "velocity": 0.3937007874015748
          },
          {
            "duration": 0.10489499999999907,
            "durationTicks": 96,
            "midi": 61,
            "name": "C#4",
            "ticks": 84672,
            "time": 92.51739,
            "velocity": 0.3937007874015748
          },
          {
            "duration": 0.10489499999999907,
            "durationTicks": 96,
            "midi": 69,
            "name": "A4",
            "ticks": 84672,
            "time": 92.51739,
            "velocity": 0.3937007874015748
          },
          {
            "duration": 0.10489499999999907,
            "durationTicks": 96,
            "midi": 77,
            "name": "F5",
            "ticks": 84864,
            "time": 92.72718,
            "velocity": 0.3937007874015748
          },
          {
            "duration": 0.10489499999999907,
            "durationTicks": 96,
            "midi": 70,
            "name": "A#4",
            "ticks": 84864,
            "time": 92.72718,
            "velocity": 0.3937007874015748
          },
          {
            "duration": 0.10489499999999907,
            "durationTicks": 96,
            "midi": 69,
            "name": "A4",
            "ticks": 84960,
            "time": 92.832075,
            "velocity": 0.3937007874015748
          },
          {
            "duration": 0.10489499999999907,
            "durationTicks": 96,
            "midi": 76,
            "name": "E5",
            "ticks": 84960,
            "time": 92.832075,
            "velocity": 0.3937007874015748
          },
          {
            "duration": 0.20978999999999814,
            "durationTicks": 192,
            "midi": 67,
            "name": "G4",
            "ticks": 85056,
            "time": 92.93697,
            "velocity": 0.3937007874015748
          },
          {
            "duration": 0.20978999999999814,
            "durationTicks": 192,
            "midi": 73,
            "name": "C#5",
            "ticks": 85056,
            "time": 92.93697,
            "velocity": 0.3937007874015748
          },
          {
            "duration": 0.10489499999999907,
            "durationTicks": 96,
            "midi": 74,
            "name": "D5",
            "ticks": 85248,
            "time": 93.14676,
            "velocity": 0.3937007874015748
          },
          {
            "duration": 0.10489499999999907,
            "durationTicks": 96,
            "midi": 69,
            "name": "A4",
            "ticks": 85248,
            "time": 93.14676,
            "velocity": 0.3937007874015748
          },
          {
            "duration": 0.10489499999999907,
            "durationTicks": 96,
            "midi": 74,
            "name": "D5",
            "ticks": 85440,
            "time": 93.35655,
            "velocity": 0.3937007874015748
          },
          {
            "duration": 0.10489499999999907,
            "durationTicks": 96,
            "midi": 81,
            "name": "A5",
            "ticks": 85440,
            "time": 93.35655,
            "velocity": 0.3937007874015748
          },
          {
            "duration": 0.10489499999999907,
            "durationTicks": 96,
            "midi": 84,
            "name": "C6",
            "ticks": 85632,
            "time": 93.56634,
            "velocity": 0.3937007874015748
          },
          {
            "duration": 0.10489499999999907,
            "durationTicks": 96,
            "midi": 77,
            "name": "F5",
            "ticks": 85632,
            "time": 93.56634,
            "velocity": 0.3937007874015748
          },
          {
            "duration": 0.10489499999999907,
            "durationTicks": 96,
            "midi": 82,
            "name": "A#5",
            "ticks": 85728,
            "time": 93.671235,
            "velocity": 0.3937007874015748
          },
          {
            "duration": 0.10489499999999907,
            "durationTicks": 96,
            "midi": 76,
            "name": "E5",
            "ticks": 85728,
            "time": 93.671235,
            "velocity": 0.3937007874015748
          },
          {
            "duration": 0.20979000000001236,
            "durationTicks": 192,
            "midi": 74,
            "name": "D5",
            "ticks": 85824,
            "time": 93.77613,
            "velocity": 0.3937007874015748
          },
          {
            "duration": 0.20979000000001236,
            "durationTicks": 192,
            "midi": 81,
            "name": "A5",
            "ticks": 85824,
            "time": 93.77613,
            "velocity": 0.3937007874015748
          },
          {
            "duration": 0.10489499999999907,
            "durationTicks": 96,
            "midi": 70,
            "name": "A#4",
            "ticks": 86016,
            "time": 93.98592000000001,
            "velocity": 0.3937007874015748
          },
          {
            "duration": 0.10489499999999907,
            "durationTicks": 96,
            "midi": 79,
            "name": "G5",
            "ticks": 86016,
            "time": 93.98592000000001,
            "velocity": 0.3937007874015748
          },
          {
            "duration": 0.10489499999999907,
            "durationTicks": 96,
            "midi": 77,
            "name": "F5",
            "ticks": 86112,
            "time": 94.090815,
            "velocity": 0.3937007874015748
          },
          {
            "duration": 0.10489499999999907,
            "durationTicks": 96,
            "midi": 69,
            "name": "A4",
            "ticks": 86112,
            "time": 94.090815,
            "velocity": 0.3937007874015748
          },
          {
            "duration": 0.10489499999999907,
            "durationTicks": 96,
            "midi": 79,
            "name": "G5",
            "ticks": 86160,
            "time": 94.1432625,
            "velocity": 0.3937007874015748
          },
          {
            "duration": 0.10489499999999907,
            "durationTicks": 96,
            "midi": 70,
            "name": "A#4",
            "ticks": 86160,
            "time": 94.1432625,
            "velocity": 0.3937007874015748
          },
          {
            "duration": 0.20978999999999814,
            "durationTicks": 192,
            "midi": 69,
            "name": "A4",
            "ticks": 86208,
            "time": 94.19571,
            "velocity": 0.3937007874015748
          },
          {
            "duration": 0.20978999999999814,
            "durationTicks": 192,
            "midi": 77,
            "name": "F5",
            "ticks": 86208,
            "time": 94.19571,
            "velocity": 0.3937007874015748
          },
          {
            "duration": 0.10489499999999907,
            "durationTicks": 96,
            "midi": 76,
            "name": "E5",
            "ticks": 86400,
            "time": 94.4055,
            "velocity": 0.3937007874015748
          },
          {
            "duration": 0.10489499999999907,
            "durationTicks": 96,
            "midi": 67,
            "name": "G4",
            "ticks": 86400,
            "time": 94.4055,
            "velocity": 0.3937007874015748
          },
          {
            "duration": 0.10489499999999907,
            "durationTicks": 96,
            "midi": 65,
            "name": "F4",
            "ticks": 86496,
            "time": 94.510395,
            "velocity": 0.3937007874015748
          },
          {
            "duration": 0.10489499999999907,
            "durationTicks": 96,
            "midi": 74,
            "name": "D5",
            "ticks": 86496,
            "time": 94.510395,
            "velocity": 0.3937007874015748
          },
          {
            "duration": 0.10489499999999907,
            "durationTicks": 96,
            "midi": 73,
            "name": "C#5",
            "ticks": 86592,
            "time": 94.61529,
            "velocity": 0.3937007874015748
          },
          {
            "duration": 0.10489499999999907,
            "durationTicks": 96,
            "midi": 64,
            "name": "E4",
            "ticks": 86592,
            "time": 94.61529,
            "velocity": 0.3937007874015748
          },
          {
            "duration": 0.10489499999999907,
            "durationTicks": 96,
            "midi": 70,
            "name": "A#4",
            "ticks": 86688,
            "time": 94.720185,
            "velocity": 0.3937007874015748
          },
          {
            "duration": 0.10489499999999907,
            "durationTicks": 96,
            "midi": 62,
            "name": "D4",
            "ticks": 86688,
            "time": 94.720185,
            "velocity": 0.3937007874015748
          },
          {
            "duration": 0.10489499999999907,
            "durationTicks": 96,
            "midi": 61,
            "name": "C#4",
            "ticks": 86784,
            "time": 94.82508,
            "velocity": 0.3937007874015748
          },
          {
            "duration": 0.10489499999999907,
            "durationTicks": 96,
            "midi": 69,
            "name": "A4",
            "ticks": 86784,
            "time": 94.82508,
            "velocity": 0.3937007874015748
          },
          {
            "duration": 0.10489499999999907,
            "durationTicks": 96,
            "midi": 73,
            "name": "C#5",
            "ticks": 86976,
            "time": 95.03487,
            "velocity": 0.3937007874015748
          },
          {
            "duration": 0.10489499999999907,
            "durationTicks": 96,
            "midi": 69,
            "name": "A4",
            "ticks": 86976,
            "time": 95.03487,
            "velocity": 0.3937007874015748
          },
          {
            "duration": 0.10489499999999907,
            "durationTicks": 96,
            "midi": 62,
            "name": "D4",
            "ticks": 87168,
            "time": 95.24466,
            "velocity": 0.3937007874015748
          },
          {
            "duration": 0.10489499999999907,
            "durationTicks": 96,
            "midi": 74,
            "name": "D5",
            "ticks": 87168,
            "time": 95.24466,
            "velocity": 0.3937007874015748
          }
        ],
        "endOfTrackTicks": 87264
      }
    ]
  }