{
    "header": {
      "keySignatures": [],
      "meta": [],
      "name": "",
      "ppq": 384,
      "tempos": [
        {
          "bpm": 175.00007291669704,
          "ticks": 0
        }
      ],
      "timeSignatures": [
        {
          "ticks": 0,
          "timeSignature": [
            1,
            4
          ],
          "measures": 0
        }
      ]
    },
    "tracks": [
      {
        "channel": 0,
        "controlChanges": {},
        "pitchBends": [],
        "instrument": {
          "family": "guitar",
          "number": 24,
          "name": "acoustic guitar (nylon)"
        },
        "name": "Acoustic Guitar",
        "notes": [
          {
            "duration": 0.08571425,
            "durationTicks": 96,
            "midi": 38,
            "name": "D2",
            "ticks": 0,
            "time": 0,
            "velocity": 0.3937007874015748
          },
          {
            "duration": 0.08571425,
            "durationTicks": 96,
            "midi": 50,
            "name": "D3",
            "ticks": 0,
            "time": 0,
            "velocity": 0.3937007874015748
          },
          {
            "duration": 0.08571425000000002,
            "durationTicks": 96,
            "midi": 45,
            "name": "A2",
            "ticks": 192,
            "time": 0.1714285,
            "velocity": 0.3937007874015748
          },
          {
            "duration": 0.08571425000000002,
            "durationTicks": 96,
            "midi": 57,
            "name": "A3",
            "ticks": 192,
            "time": 0.1714285,
            "velocity": 0.3937007874015748
          },
          {
            "duration": 0.08571425000000002,
            "durationTicks": 96,
            "midi": 53,
            "name": "F3",
            "ticks": 192,
            "time": 0.1714285,
            "velocity": 0.3937007874015748
          },
          {
            "duration": 0.08571425000000002,
            "durationTicks": 96,
            "midi": 41,
            "name": "F2",
            "ticks": 192,
            "time": 0.1714285,
            "velocity": 0.3937007874015748
          },
          {
            "duration": 0.08571424999999999,
            "durationTicks": 96,
            "midi": 45,
            "name": "A2",
            "ticks": 576,
            "time": 0.5142855000000001,
            "velocity": 0.3937007874015748
          },
          {
            "duration": 0.08571424999999999,
            "durationTicks": 96,
            "midi": 41,
            "name": "F2",
            "ticks": 576,
            "time": 0.5142855000000001,
            "velocity": 0.3937007874015748
          },
          {
            "duration": 0.08571424999999999,
            "durationTicks": 96,
            "midi": 53,
            "name": "F3",
            "ticks": 576,
            "time": 0.5142855000000001,
            "velocity": 0.3937007874015748
          },
          {
            "duration": 0.08571424999999999,
            "durationTicks": 96,
            "midi": 57,
            "name": "A3",
            "ticks": 576,
            "time": 0.5142855000000001,
            "velocity": 0.3937007874015748
          },
          {
            "duration": 0.08571424999999999,
            "durationTicks": 96,
            "midi": 38,
            "name": "D2",
            "ticks": 768,
            "time": 0.685714,
            "velocity": 0.3937007874015748
          },
          {
            "duration": 0.08571424999999999,
            "durationTicks": 96,
            "midi": 50,
            "name": "D3",
            "ticks": 768,
            "time": 0.685714,
            "velocity": 0.3937007874015748
          },
          {
            "duration": 0.08571424999999999,
            "durationTicks": 96,
            "midi": 57,
            "name": "A3",
            "ticks": 960,
            "time": 0.8571425,
            "velocity": 0.3937007874015748
          },
          {
            "duration": 0.08571424999999999,
            "durationTicks": 96,
            "midi": 41,
            "name": "F2",
            "ticks": 960,
            "time": 0.8571425,
            "velocity": 0.3937007874015748
          },
          {
            "duration": 0.08571424999999999,
            "durationTicks": 96,
            "midi": 45,
            "name": "A2",
            "ticks": 960,
            "time": 0.8571425,
            "velocity": 0.3937007874015748
          },
          {
            "duration": 0.08571424999999999,
            "durationTicks": 96,
            "midi": 53,
            "name": "F3",
            "ticks": 960,
            "time": 0.8571425,
            "velocity": 0.3937007874015748
          },
          {
            "duration": 0.08571424999999988,
            "durationTicks": 96,
            "midi": 57,
            "name": "A3",
            "ticks": 1344,
            "time": 1.1999995,
            "velocity": 0.3937007874015748
          },
          {
            "duration": 0.08571424999999988,
            "durationTicks": 96,
            "midi": 41,
            "name": "F2",
            "ticks": 1344,
            "time": 1.1999995,
            "velocity": 0.3937007874015748
          },
          {
            "duration": 0.08571424999999988,
            "durationTicks": 96,
            "midi": 45,
            "name": "A2",
            "ticks": 1344,
            "time": 1.1999995,
            "velocity": 0.3937007874015748
          },
          {
            "duration": 0.08571424999999988,
            "durationTicks": 96,
            "midi": 53,
            "name": "F3",
            "ticks": 1344,
            "time": 1.1999995,
            "velocity": 0.3937007874015748
          },
          {
            "duration": 0.0857142500000001,
            "durationTicks": 96,
            "midi": 38,
            "name": "D2",
            "ticks": 1536,
            "time": 1.371428,
            "velocity": 0.3937007874015748
          },
          {
            "duration": 0.0857142500000001,
            "durationTicks": 96,
            "midi": 50,
            "name": "D3",
            "ticks": 1536,
            "time": 1.371428,
            "velocity": 0.3937007874015748
          },
          {
            "duration": 0.0857142500000001,
            "durationTicks": 96,
            "midi": 53,
            "name": "F3",
            "ticks": 1728,
            "time": 1.5428565,
            "velocity": 0.3937007874015748
          },
          {
            "duration": 0.0857142500000001,
            "durationTicks": 96,
            "midi": 45,
            "name": "A2",
            "ticks": 1728,
            "time": 1.5428565,
            "velocity": 0.3937007874015748
          },
          {
            "duration": 0.0857142500000001,
            "durationTicks": 96,
            "midi": 57,
            "name": "A3",
            "ticks": 1728,
            "time": 1.5428565,
            "velocity": 0.3937007874015748
          },
          {
            "duration": 0.0857142500000001,
            "durationTicks": 96,
            "midi": 41,
            "name": "F2",
            "ticks": 1728,
            "time": 1.5428565,
            "velocity": 0.3937007874015748
          },
          {
            "duration": 0.0857142500000001,
            "durationTicks": 96,
            "midi": 57,
            "name": "A3",
            "ticks": 2112,
            "time": 1.8857135,
            "velocity": 0.3937007874015748
          },
          {
            "duration": 0.0857142500000001,
            "durationTicks": 96,
            "midi": 41,
            "name": "F2",
            "ticks": 2112,
            "time": 1.8857135,
            "velocity": 0.3937007874015748
          },
          {
            "duration": 0.0857142500000001,
            "durationTicks": 96,
            "midi": 45,
            "name": "A2",
            "ticks": 2112,
            "time": 1.8857135,
            "velocity": 0.3937007874015748
          },
          {
            "duration": 0.0857142500000001,
            "durationTicks": 96,
            "midi": 53,
            "name": "F3",
            "ticks": 2112,
            "time": 1.8857135,
            "velocity": 0.3937007874015748
          },
          {
            "duration": 0.0857142500000001,
            "durationTicks": 96,
            "midi": 50,
            "name": "D3",
            "ticks": 2304,
            "time": 2.0571420000000002,
            "velocity": 0.3937007874015748
          },
          {
            "duration": 0.0857142500000001,
            "durationTicks": 96,
            "midi": 38,
            "name": "D2",
            "ticks": 2304,
            "time": 2.0571420000000002,
            "velocity": 0.3937007874015748
          },
          {
            "duration": 0.0857142500000001,
            "durationTicks": 96,
            "midi": 53,
            "name": "F3",
            "ticks": 2496,
            "time": 2.2285705,
            "velocity": 0.3937007874015748
          },
          {
            "duration": 0.0857142500000001,
            "durationTicks": 96,
            "midi": 45,
            "name": "A2",
            "ticks": 2496,
            "time": 2.2285705,
            "velocity": 0.3937007874015748
          },
          {
            "duration": 0.0857142500000001,
            "durationTicks": 96,
            "midi": 41,
            "name": "F2",
            "ticks": 2496,
            "time": 2.2285705,
            "velocity": 0.3937007874015748
          },
          {
            "duration": 0.0857142500000001,
            "durationTicks": 96,
            "midi": 57,
            "name": "A3",
            "ticks": 2496,
            "time": 2.2285705,
            "velocity": 0.3937007874015748
          },
          {
            "duration": 0.0857142500000001,
            "durationTicks": 96,
            "midi": 53,
            "name": "F3",
            "ticks": 2880,
            "time": 2.5714275,
            "velocity": 0.3937007874015748
          },
          {
            "duration": 0.0857142500000001,
            "durationTicks": 96,
            "midi": 45,
            "name": "A2",
            "ticks": 2880,
            "time": 2.5714275,
            "velocity": 0.3937007874015748
          },
          {
            "duration": 0.0857142500000001,
            "durationTicks": 96,
            "midi": 41,
            "name": "F2",
            "ticks": 2880,
            "time": 2.5714275,
            "velocity": 0.3937007874015748
          },
          {
            "duration": 0.0857142500000001,
            "durationTicks": 96,
            "midi": 57,
            "name": "A3",
            "ticks": 2880,
            "time": 2.5714275,
            "velocity": 0.3937007874015748
          },
          {
            "duration": 0.0857142500000001,
            "durationTicks": 96,
            "midi": 50,
            "name": "D3",
            "ticks": 3072,
            "time": 2.742856,
            "velocity": 0.3937007874015748
          },
          {
            "duration": 0.0857142500000001,
            "durationTicks": 96,
            "midi": 38,
            "name": "D2",
            "ticks": 3072,
            "time": 2.742856,
            "velocity": 0.3937007874015748
          },
          {
            "duration": 0.08571424999999966,
            "durationTicks": 96,
            "midi": 57,
            "name": "A3",
            "ticks": 3264,
            "time": 2.9142845000000004,
            "velocity": 0.3937007874015748
          },
          {
            "duration": 0.08571424999999966,
            "durationTicks": 96,
            "midi": 45,
            "name": "A2",
            "ticks": 3264,
            "time": 2.9142845000000004,
            "velocity": 0.3937007874015748
          },
          {
            "duration": 0.08571424999999966,
            "durationTicks": 96,
            "midi": 41,
            "name": "F2",
            "ticks": 3264,
            "time": 2.9142845000000004,
            "velocity": 0.3937007874015748
          },
          {
            "duration": 0.08571424999999966,
            "durationTicks": 96,
            "midi": 53,
            "name": "F3",
            "ticks": 3264,
            "time": 2.9142845000000004,
            "velocity": 0.3937007874015748
          },
          {
            "duration": 0.08571424999999966,
            "durationTicks": 96,
            "midi": 41,
            "name": "F2",
            "ticks": 3648,
            "time": 3.2571415000000004,
            "velocity": 0.3937007874015748
          },
          {
            "duration": 0.08571424999999966,
            "durationTicks": 96,
            "midi": 45,
            "name": "A2",
            "ticks": 3648,
            "time": 3.2571415000000004,
            "velocity": 0.3937007874015748
          },
          {
            "duration": 0.08571424999999966,
            "durationTicks": 96,
            "midi": 57,
            "name": "A3",
            "ticks": 3648,
            "time": 3.2571415000000004,
            "velocity": 0.3937007874015748
          },
          {
            "duration": 0.08571424999999966,
            "durationTicks": 96,
            "midi": 53,
            "name": "F3",
            "ticks": 3648,
            "time": 3.2571415000000004,
            "velocity": 0.3937007874015748
          },
          {
            "duration": 0.0857142500000001,
            "durationTicks": 96,
            "midi": 38,
            "name": "D2",
            "ticks": 3840,
            "time": 3.42857,
            "velocity": 0.3937007874015748
          },
          {
            "duration": 0.0857142500000001,
            "durationTicks": 96,
            "midi": 50,
            "name": "D3",
            "ticks": 3840,
            "time": 3.42857,
            "velocity": 0.3937007874015748
          },
          {
            "duration": 0.0857142500000001,
            "durationTicks": 96,
            "midi": 57,
            "name": "A3",
            "ticks": 4032,
            "time": 3.5999985000000003,
            "velocity": 0.3937007874015748
          },
          {
            "duration": 0.0857142500000001,
            "durationTicks": 96,
            "midi": 41,
            "name": "F2",
            "ticks": 4032,
            "time": 3.5999985000000003,
            "velocity": 0.3937007874015748
          },
          {
            "duration": 0.0857142500000001,
            "durationTicks": 96,
            "midi": 45,
            "name": "A2",
            "ticks": 4032,
            "time": 3.5999985000000003,
            "velocity": 0.3937007874015748
          },
          {
            "duration": 0.0857142500000001,
            "durationTicks": 96,
            "midi": 53,
            "name": "F3",
            "ticks": 4032,
            "time": 3.5999985000000003,
            "velocity": 0.3937007874015748
          },
          {
            "duration": 0.08571424999999966,
            "durationTicks": 96,
            "midi": 53,
            "name": "F3",
            "ticks": 4416,
            "time": 3.9428555000000003,
            "velocity": 0.3937007874015748
          },
          {
            "duration": 0.08571424999999966,
            "durationTicks": 96,
            "midi": 57,
            "name": "A3",
            "ticks": 4416,
            "time": 3.9428555000000003,
            "velocity": 0.3937007874015748
          },
          {
            "duration": 0.08571424999999966,
            "durationTicks": 96,
            "midi": 45,
            "name": "A2",
            "ticks": 4416,
            "time": 3.9428555000000003,
            "velocity": 0.3937007874015748
          },
          {
            "duration": 0.08571424999999966,
            "durationTicks": 96,
            "midi": 41,
            "name": "F2",
            "ticks": 4416,
            "time": 3.9428555000000003,
            "velocity": 0.3937007874015748
          },
          {
            "duration": 0.08571424999999966,
            "durationTicks": 96,
            "midi": 38,
            "name": "D2",
            "ticks": 4608,
            "time": 4.1142840000000005,
            "velocity": 0.3937007874015748
          },
          {
            "duration": 0.08571424999999966,
            "durationTicks": 96,
            "midi": 50,
            "name": "D3",
            "ticks": 4608,
            "time": 4.1142840000000005,
            "velocity": 0.3937007874015748
          },
          {
            "duration": 0.08571424999999966,
            "durationTicks": 96,
            "midi": 45,
            "name": "A2",
            "ticks": 4800,
            "time": 4.285712500000001,
            "velocity": 0.3937007874015748
          },
          {
            "duration": 0.08571424999999966,
            "durationTicks": 96,
            "midi": 53,
            "name": "F3",
            "ticks": 4800,
            "time": 4.285712500000001,
            "velocity": 0.3937007874015748
          },
          {
            "duration": 0.08571424999999966,
            "durationTicks": 96,
            "midi": 57,
            "name": "A3",
            "ticks": 4800,
            "time": 4.285712500000001,
            "velocity": 0.3937007874015748
          },
          {
            "duration": 0.08571424999999966,
            "durationTicks": 96,
            "midi": 41,
            "name": "F2",
            "ticks": 4800,
            "time": 4.285712500000001,
            "velocity": 0.3937007874015748
          },
          {
            "duration": 0.08571424999999966,
            "durationTicks": 96,
            "midi": 45,
            "name": "A2",
            "ticks": 5184,
            "time": 4.6285695,
            "velocity": 0.3937007874015748
          },
          {
            "duration": 0.08571424999999966,
            "durationTicks": 96,
            "midi": 41,
            "name": "F2",
            "ticks": 5184,
            "time": 4.6285695,
            "velocity": 0.3937007874015748
          },
          {
            "duration": 0.08571424999999966,
            "durationTicks": 96,
            "midi": 53,
            "name": "F3",
            "ticks": 5184,
            "time": 4.6285695,
            "velocity": 0.3937007874015748
          },
          {
            "duration": 0.08571424999999966,
            "durationTicks": 96,
            "midi": 57,
            "name": "A3",
            "ticks": 5184,
            "time": 4.6285695,
            "velocity": 0.3937007874015748
          },
          {
            "duration": 0.08571424999999966,
            "durationTicks": 96,
            "midi": 50,
            "name": "D3",
            "ticks": 5376,
            "time": 4.799998,
            "velocity": 0.3937007874015748
          },
          {
            "duration": 0.08571424999999966,
            "durationTicks": 96,
            "midi": 38,
            "name": "D2",
            "ticks": 5376,
            "time": 4.799998,
            "velocity": 0.3937007874015748
          },
          {
            "duration": 0.08571424999999966,
            "durationTicks": 96,
            "midi": 45,
            "name": "A2",
            "ticks": 5568,
            "time": 4.971426500000001,
            "velocity": 0.3937007874015748
          },
          {
            "duration": 0.08571424999999966,
            "durationTicks": 96,
            "midi": 41,
            "name": "F2",
            "ticks": 5568,
            "time": 4.971426500000001,
            "velocity": 0.3937007874015748
          },
          {
            "duration": 0.08571424999999966,
            "durationTicks": 96,
            "midi": 57,
            "name": "A3",
            "ticks": 5568,
            "time": 4.971426500000001,
            "velocity": 0.3937007874015748
          },
          {
            "duration": 0.08571424999999966,
            "durationTicks": 96,
            "midi": 53,
            "name": "F3",
            "ticks": 5568,
            "time": 4.971426500000001,
            "velocity": 0.3937007874015748
          },
          {
            "duration": 0.08571425000000055,
            "durationTicks": 96,
            "midi": 41,
            "name": "F2",
            "ticks": 5952,
            "time": 5.3142835,
            "velocity": 0.3937007874015748
          },
          {
            "duration": 0.08571425000000055,
            "durationTicks": 96,
            "midi": 53,
            "name": "F3",
            "ticks": 5952,
            "time": 5.3142835,
            "velocity": 0.3937007874015748
          },
          {
            "duration": 0.08571425000000055,
            "durationTicks": 96,
            "midi": 45,
            "name": "A2",
            "ticks": 5952,
            "time": 5.3142835,
            "velocity": 0.3937007874015748
          },
          {
            "duration": 0.08571425000000055,
            "durationTicks": 96,
            "midi": 57,
            "name": "A3",
            "ticks": 5952,
            "time": 5.3142835,
            "velocity": 0.3937007874015748
          },
          {
            "duration": 0.08571424999999966,
            "durationTicks": 96,
            "midi": 50,
            "name": "D3",
            "ticks": 6144,
            "time": 5.485712,
            "velocity": 0.3937007874015748
          },
          {
            "duration": 0.08571424999999966,
            "durationTicks": 96,
            "midi": 38,
            "name": "D2",
            "ticks": 6144,
            "time": 5.485712,
            "velocity": 0.3937007874015748
          },
          {
            "duration": 0.08571424999999966,
            "durationTicks": 96,
            "midi": 45,
            "name": "A2",
            "ticks": 6336,
            "time": 5.657140500000001,
            "velocity": 0.3937007874015748
          },
          {
            "duration": 0.08571424999999966,
            "durationTicks": 96,
            "midi": 57,
            "name": "A3",
            "ticks": 6336,
            "time": 5.657140500000001,
            "velocity": 0.3937007874015748
          },
          {
            "duration": 0.08571424999999966,
            "durationTicks": 96,
            "midi": 53,
            "name": "F3",
            "ticks": 6336,
            "time": 5.657140500000001,
            "velocity": 0.3937007874015748
          },
          {
            "duration": 0.08571424999999966,
            "durationTicks": 96,
            "midi": 41,
            "name": "F2",
            "ticks": 6336,
            "time": 5.657140500000001,
            "velocity": 0.3937007874015748
          },
          {
            "duration": 0.08571425000000055,
            "durationTicks": 96,
            "midi": 41,
            "name": "F2",
            "ticks": 6720,
            "time": 5.9999975,
            "velocity": 0.3937007874015748
          },
          {
            "duration": 0.08571425000000055,
            "durationTicks": 96,
            "midi": 53,
            "name": "F3",
            "ticks": 6720,
            "time": 5.9999975,
            "velocity": 0.3937007874015748
          },
          {
            "duration": 0.08571425000000055,
            "durationTicks": 96,
            "midi": 57,
            "name": "A3",
            "ticks": 6720,
            "time": 5.9999975,
            "velocity": 0.3937007874015748
          },
          {
            "duration": 0.08571425000000055,
            "durationTicks": 96,
            "midi": 45,
            "name": "A2",
            "ticks": 6720,
            "time": 5.9999975,
            "velocity": 0.3937007874015748
          },
          {
            "duration": 0.08571425000000055,
            "durationTicks": 96,
            "midi": 38,
            "name": "D2",
            "ticks": 6912,
            "time": 6.171426,
            "velocity": 0.3937007874015748
          },
          {
            "duration": 0.08571425000000055,
            "durationTicks": 96,
            "midi": 50,
            "name": "D3",
            "ticks": 6912,
            "time": 6.171426,
            "velocity": 0.3937007874015748
          },
          {
            "duration": 0.08571424999999966,
            "durationTicks": 96,
            "midi": 41,
            "name": "F2",
            "ticks": 7104,
            "time": 6.3428545000000005,
            "velocity": 0.3937007874015748
          },
          {
            "duration": 0.08571424999999966,
            "durationTicks": 96,
            "midi": 57,
            "name": "A3",
            "ticks": 7104,
            "time": 6.3428545000000005,
            "velocity": 0.3937007874015748
          },
          {
            "duration": 0.08571424999999966,
            "durationTicks": 96,
            "midi": 45,
            "name": "A2",
            "ticks": 7104,
            "time": 6.3428545000000005,
            "velocity": 0.3937007874015748
          },
          {
            "duration": 0.08571424999999966,
            "durationTicks": 96,
            "midi": 53,
            "name": "F3",
            "ticks": 7104,
            "time": 6.3428545000000005,
            "velocity": 0.3937007874015748
          },
          {
            "duration": 0.08571425000000055,
            "durationTicks": 96,
            "midi": 53,
            "name": "F3",
            "ticks": 7488,
            "time": 6.6857115,
            "velocity": 0.3937007874015748
          },
          {
            "duration": 0.08571425000000055,
            "durationTicks": 96,
            "midi": 41,
            "name": "F2",
            "ticks": 7488,
            "time": 6.6857115,
            "velocity": 0.3937007874015748
          },
          {
            "duration": 0.08571425000000055,
            "durationTicks": 96,
            "midi": 45,
            "name": "A2",
            "ticks": 7488,
            "time": 6.6857115,
            "velocity": 0.3937007874015748
          },
          {
            "duration": 0.08571425000000055,
            "durationTicks": 96,
            "midi": 57,
            "name": "A3",
            "ticks": 7488,
            "time": 6.6857115,
            "velocity": 0.3937007874015748
          },
          {
            "duration": 0.08571425000000055,
            "durationTicks": 96,
            "midi": 38,
            "name": "D2",
            "ticks": 7680,
            "time": 6.85714,
            "velocity": 0.3937007874015748
          },
          {
            "duration": 0.08571425000000055,
            "durationTicks": 96,
            "midi": 50,
            "name": "D3",
            "ticks": 7680,
            "time": 6.85714,
            "velocity": 0.3937007874015748
          },
          {
            "duration": 0.08571424999999966,
            "durationTicks": 96,
            "midi": 41,
            "name": "F2",
            "ticks": 7872,
            "time": 7.0285685,
            "velocity": 0.3937007874015748
          },
          {
            "duration": 0.08571424999999966,
            "durationTicks": 96,
            "midi": 57,
            "name": "A3",
            "ticks": 7872,
            "time": 7.0285685,
            "velocity": 0.3937007874015748
          },
          {
            "duration": 0.08571424999999966,
            "durationTicks": 96,
            "midi": 53,
            "name": "F3",
            "ticks": 7872,
            "time": 7.0285685,
            "velocity": 0.3937007874015748
          },
          {
            "duration": 0.08571424999999966,
            "durationTicks": 96,
            "midi": 45,
            "name": "A2",
            "ticks": 7872,
            "time": 7.0285685,
            "velocity": 0.3937007874015748
          },
          {
            "duration": 0.08571424999999966,
            "durationTicks": 96,
            "midi": 41,
            "name": "F2",
            "ticks": 8256,
            "time": 7.371425500000001,
            "velocity": 0.3937007874015748
          },
          {
            "duration": 0.08571424999999966,
            "durationTicks": 96,
            "midi": 57,
            "name": "A3",
            "ticks": 8256,
            "time": 7.371425500000001,
            "velocity": 0.3937007874015748
          },
          {
            "duration": 0.08571424999999966,
            "durationTicks": 96,
            "midi": 45,
            "name": "A2",
            "ticks": 8256,
            "time": 7.371425500000001,
            "velocity": 0.3937007874015748
          },
          {
            "duration": 0.08571424999999966,
            "durationTicks": 96,
            "midi": 53,
            "name": "F3",
            "ticks": 8256,
            "time": 7.371425500000001,
            "velocity": 0.3937007874015748
          },
          {
            "duration": 0.08571425000000055,
            "durationTicks": 96,
            "midi": 50,
            "name": "D3",
            "ticks": 8448,
            "time": 7.542854,
            "velocity": 0.3937007874015748
          },
          {
            "duration": 0.08571425000000055,
            "durationTicks": 96,
            "midi": 38,
            "name": "D2",
            "ticks": 8448,
            "time": 7.542854,
            "velocity": 0.3937007874015748
          },
          {
            "duration": 0.08571425000000055,
            "durationTicks": 96,
            "midi": 53,
            "name": "F3",
            "ticks": 8640,
            "time": 7.7142825,
            "velocity": 0.3937007874015748
          },
          {
            "duration": 0.08571425000000055,
            "durationTicks": 96,
            "midi": 57,
            "name": "A3",
            "ticks": 8640,
            "time": 7.7142825,
            "velocity": 0.3937007874015748
          },
          {
            "duration": 0.08571425000000055,
            "durationTicks": 96,
            "midi": 41,
            "name": "F2",
            "ticks": 8640,
            "time": 7.7142825,
            "velocity": 0.3937007874015748
          },
          {
            "duration": 0.08571425000000055,
            "durationTicks": 96,
            "midi": 45,
            "name": "A2",
            "ticks": 8640,
            "time": 7.7142825,
            "velocity": 0.3937007874015748
          },
          {
            "duration": 0.08571425000000055,
            "durationTicks": 96,
            "midi": 41,
            "name": "F2",
            "ticks": 9024,
            "time": 8.0571395,
            "velocity": 0.3937007874015748
          },
          {
            "duration": 0.08571425000000055,
            "durationTicks": 96,
            "midi": 57,
            "name": "A3",
            "ticks": 9024,
            "time": 8.0571395,
            "velocity": 0.3937007874015748
          },
          {
            "duration": 0.08571425000000055,
            "durationTicks": 96,
            "midi": 53,
            "name": "F3",
            "ticks": 9024,
            "time": 8.0571395,
            "velocity": 0.3937007874015748
          },
          {
            "duration": 0.08571425000000055,
            "durationTicks": 96,
            "midi": 45,
            "name": "A2",
            "ticks": 9024,
            "time": 8.0571395,
            "velocity": 0.3937007874015748
          },
          {
            "duration": 0.08571424999999877,
            "durationTicks": 96,
            "midi": 38,
            "name": "D2",
            "ticks": 9216,
            "time": 8.228568000000001,
            "velocity": 0.3937007874015748
          },
          {
            "duration": 0.08571424999999877,
            "durationTicks": 96,
            "midi": 50,
            "name": "D3",
            "ticks": 9216,
            "time": 8.228568000000001,
            "velocity": 0.3937007874015748
          },
          {
            "duration": 0.08571425000000055,
            "durationTicks": 96,
            "midi": 57,
            "name": "A3",
            "ticks": 9408,
            "time": 8.3999965,
            "velocity": 0.3937007874015748
          },
          {
            "duration": 0.08571425000000055,
            "durationTicks": 96,
            "midi": 41,
            "name": "F2",
            "ticks": 9408,
            "time": 8.3999965,
            "velocity": 0.3937007874015748
          },
          {
            "duration": 0.08571425000000055,
            "durationTicks": 96,
            "midi": 53,
            "name": "F3",
            "ticks": 9408,
            "time": 8.3999965,
            "velocity": 0.3937007874015748
          },
          {
            "duration": 0.08571425000000055,
            "durationTicks": 96,
            "midi": 45,
            "name": "A2",
            "ticks": 9408,
            "time": 8.3999965,
            "velocity": 0.3937007874015748
          },
          {
            "duration": 0.08571425000000055,
            "durationTicks": 96,
            "midi": 53,
            "name": "F3",
            "ticks": 9792,
            "time": 8.7428535,
            "velocity": 0.3937007874015748
          },
          {
            "duration": 0.08571425000000055,
            "durationTicks": 96,
            "midi": 57,
            "name": "A3",
            "ticks": 9792,
            "time": 8.7428535,
            "velocity": 0.3937007874015748
          },
          {
            "duration": 0.08571425000000055,
            "durationTicks": 96,
            "midi": 41,
            "name": "F2",
            "ticks": 9792,
            "time": 8.7428535,
            "velocity": 0.3937007874015748
          },
          {
            "duration": 0.08571425000000055,
            "durationTicks": 96,
            "midi": 45,
            "name": "A2",
            "ticks": 9792,
            "time": 8.7428535,
            "velocity": 0.3937007874015748
          },
          {
            "duration": 0.08571425000000055,
            "durationTicks": 96,
            "midi": 38,
            "name": "D2",
            "ticks": 9984,
            "time": 8.914282,
            "velocity": 0.3937007874015748
          },
          {
            "duration": 0.08571425000000055,
            "durationTicks": 96,
            "midi": 50,
            "name": "D3",
            "ticks": 9984,
            "time": 8.914282,
            "velocity": 0.3937007874015748
          },
          {
            "duration": 0.08571424999999877,
            "durationTicks": 96,
            "midi": 53,
            "name": "F3",
            "ticks": 10176,
            "time": 9.085710500000001,
            "velocity": 0.3937007874015748
          },
          {
            "duration": 0.08571424999999877,
            "durationTicks": 96,
            "midi": 45,
            "name": "A2",
            "ticks": 10176,
            "time": 9.085710500000001,
            "velocity": 0.3937007874015748
          },
          {
            "duration": 0.08571424999999877,
            "durationTicks": 96,
            "midi": 57,
            "name": "A3",
            "ticks": 10176,
            "time": 9.085710500000001,
            "velocity": 0.3937007874015748
          },
          {
            "duration": 0.08571424999999877,
            "durationTicks": 96,
            "midi": 41,
            "name": "F2",
            "ticks": 10176,
            "time": 9.085710500000001,
            "velocity": 0.3937007874015748
          },
          {
            "duration": 0.08571425000000055,
            "durationTicks": 96,
            "midi": 53,
            "name": "F3",
            "ticks": 10560,
            "time": 9.4285675,
            "velocity": 0.3937007874015748
          },
          {
            "duration": 0.08571425000000055,
            "durationTicks": 96,
            "midi": 45,
            "name": "A2",
            "ticks": 10560,
            "time": 9.4285675,
            "velocity": 0.3937007874015748
          },
          {
            "duration": 0.08571425000000055,
            "durationTicks": 96,
            "midi": 41,
            "name": "F2",
            "ticks": 10560,
            "time": 9.4285675,
            "velocity": 0.3937007874015748
          },
          {
            "duration": 0.08571425000000055,
            "durationTicks": 96,
            "midi": 57,
            "name": "A3",
            "ticks": 10560,
            "time": 9.4285675,
            "velocity": 0.3937007874015748
          },
          {
            "duration": 0.08571425000000055,
            "durationTicks": 96,
            "midi": 50,
            "name": "D3",
            "ticks": 10752,
            "time": 9.599996,
            "velocity": 0.3937007874015748
          },
          {
            "duration": 0.08571425000000055,
            "durationTicks": 96,
            "midi": 38,
            "name": "D2",
            "ticks": 10752,
            "time": 9.599996,
            "velocity": 0.3937007874015748
          },
          {
            "duration": 0.08571425000000055,
            "durationTicks": 96,
            "midi": 57,
            "name": "A3",
            "ticks": 10944,
            "time": 9.7714245,
            "velocity": 0.3937007874015748
          },
          {
            "duration": 0.08571425000000055,
            "durationTicks": 96,
            "midi": 41,
            "name": "F2",
            "ticks": 10944,
            "time": 9.7714245,
            "velocity": 0.3937007874015748
          },
          {
            "duration": 0.08571425000000055,
            "durationTicks": 96,
            "midi": 45,
            "name": "A2",
            "ticks": 10944,
            "time": 9.7714245,
            "velocity": 0.3937007874015748
          },
          {
            "duration": 0.08571425000000055,
            "durationTicks": 96,
            "midi": 53,
            "name": "F3",
            "ticks": 10944,
            "time": 9.7714245,
            "velocity": 0.3937007874015748
          },
          {
            "duration": 0.08571425000000055,
            "durationTicks": 96,
            "midi": 45,
            "name": "A2",
            "ticks": 11328,
            "time": 10.1142815,
            "velocity": 0.3937007874015748
          },
          {
            "duration": 0.08571425000000055,
            "durationTicks": 96,
            "midi": 53,
            "name": "F3",
            "ticks": 11328,
            "time": 10.1142815,
            "velocity": 0.3937007874015748
          },
          {
            "duration": 0.08571425000000055,
            "durationTicks": 96,
            "midi": 57,
            "name": "A3",
            "ticks": 11328,
            "time": 10.1142815,
            "velocity": 0.3937007874015748
          },
          {
            "duration": 0.08571425000000055,
            "durationTicks": 96,
            "midi": 41,
            "name": "F2",
            "ticks": 11328,
            "time": 10.1142815,
            "velocity": 0.3937007874015748
          },
          {
            "duration": 0.08571425000000055,
            "durationTicks": 96,
            "midi": 50,
            "name": "D3",
            "ticks": 11520,
            "time": 10.28571,
            "velocity": 0.3937007874015748
          },
          {
            "duration": 0.08571425000000055,
            "durationTicks": 96,
            "midi": 38,
            "name": "D2",
            "ticks": 11520,
            "time": 10.28571,
            "velocity": 0.3937007874015748
          },
          {
            "duration": 0.08571425000000055,
            "durationTicks": 96,
            "midi": 57,
            "name": "A3",
            "ticks": 11712,
            "time": 10.457138500000001,
            "velocity": 0.3937007874015748
          },
          {
            "duration": 0.08571425000000055,
            "durationTicks": 96,
            "midi": 53,
            "name": "F3",
            "ticks": 11712,
            "time": 10.457138500000001,
            "velocity": 0.3937007874015748
          },
          {
            "duration": 0.08571425000000055,
            "durationTicks": 96,
            "midi": 45,
            "name": "A2",
            "ticks": 11712,
            "time": 10.457138500000001,
            "velocity": 0.3937007874015748
          },
          {
            "duration": 0.08571425000000055,
            "durationTicks": 96,
            "midi": 41,
            "name": "F2",
            "ticks": 11712,
            "time": 10.457138500000001,
            "velocity": 0.3937007874015748
          },
          {
            "duration": 0.08571424999999877,
            "durationTicks": 96,
            "midi": 43,
            "name": "G2",
            "ticks": 12096,
            "time": 10.799995500000001,
            "velocity": 0.3937007874015748
          },
          {
            "duration": 0.08571424999999877,
            "durationTicks": 96,
            "midi": 55,
            "name": "G3",
            "ticks": 12096,
            "time": 10.799995500000001,
            "velocity": 0.3937007874015748
          },
          {
            "duration": 0.08571424999999877,
            "durationTicks": 96,
            "midi": 48,
            "name": "C3",
            "ticks": 12096,
            "time": 10.799995500000001,
            "velocity": 0.3937007874015748
          },
          {
            "duration": 0.08571424999999877,
            "durationTicks": 96,
            "midi": 60,
            "name": "C4",
            "ticks": 12096,
            "time": 10.799995500000001,
            "velocity": 0.3937007874015748
          },
          {
            "duration": 0.08571425000000055,
            "durationTicks": 96,
            "midi": 50,
            "name": "D3",
            "ticks": 12288,
            "time": 10.971424,
            "velocity": 0.3937007874015748
          },
          {
            "duration": 0.08571425000000055,
            "durationTicks": 96,
            "midi": 62,
            "name": "D4",
            "ticks": 12288,
            "time": 10.971424,
            "velocity": 0.3937007874015748
          },
          {
            "duration": 0.08571425000000055,
            "durationTicks": 96,
            "midi": 69,
            "name": "A4",
            "ticks": 12480,
            "time": 11.1428525,
            "velocity": 0.3937007874015748
          },
          {
            "duration": 0.08571425000000055,
            "durationTicks": 96,
            "midi": 53,
            "name": "F3",
            "ticks": 12480,
            "time": 11.1428525,
            "velocity": 0.3937007874015748
          },
          {
            "duration": 0.08571425000000055,
            "durationTicks": 96,
            "midi": 65,
            "name": "F4",
            "ticks": 12480,
            "time": 11.1428525,
            "velocity": 0.3937007874015748
          },
          {
            "duration": 0.08571425000000055,
            "durationTicks": 96,
            "midi": 57,
            "name": "A3",
            "ticks": 12480,
            "time": 11.1428525,
            "velocity": 0.3937007874015748
          },
          {
            "duration": 0.08571425000000055,
            "durationTicks": 96,
            "midi": 69,
            "name": "A4",
            "ticks": 12864,
            "time": 11.4857095,
            "velocity": 0.3937007874015748
          },
          {
            "duration": 0.08571425000000055,
            "durationTicks": 96,
            "midi": 53,
            "name": "F3",
            "ticks": 12864,
            "time": 11.4857095,
            "velocity": 0.3937007874015748
          },
          {
            "duration": 0.08571425000000055,
            "durationTicks": 96,
            "midi": 57,
            "name": "A3",
            "ticks": 12864,
            "time": 11.4857095,
            "velocity": 0.3937007874015748
          },
          {
            "duration": 0.08571425000000055,
            "durationTicks": 96,
            "midi": 65,
            "name": "F4",
            "ticks": 12864,
            "time": 11.4857095,
            "velocity": 0.3937007874015748
          },
          {
            "duration": 0.08571424999999877,
            "durationTicks": 96,
            "midi": 50,
            "name": "D3",
            "ticks": 13056,
            "time": 11.657138000000002,
            "velocity": 0.3937007874015748
          },
          {
            "duration": 0.08571424999999877,
            "durationTicks": 96,
            "midi": 62,
            "name": "D4",
            "ticks": 13056,
            "time": 11.657138000000002,
            "velocity": 0.3937007874015748
          },
          {
            "duration": 0.08571425000000055,
            "durationTicks": 96,
            "midi": 69,
            "name": "A4",
            "ticks": 13248,
            "time": 11.8285665,
            "velocity": 0.3937007874015748
          },
          {
            "duration": 0.08571425000000055,
            "durationTicks": 96,
            "midi": 65,
            "name": "F4",
            "ticks": 13248,
            "time": 11.8285665,
            "velocity": 0.3937007874015748
          },
          {
            "duration": 0.08571425000000055,
            "durationTicks": 96,
            "midi": 53,
            "name": "F3",
            "ticks": 13248,
            "time": 11.8285665,
            "velocity": 0.3937007874015748
          },
          {
            "duration": 0.08571425000000055,
            "durationTicks": 96,
            "midi": 57,
            "name": "A3",
            "ticks": 13248,
            "time": 11.8285665,
            "velocity": 0.3937007874015748
          },
          {
            "duration": 0.08571424999999877,
            "durationTicks": 96,
            "midi": 53,
            "name": "F3",
            "ticks": 13632,
            "time": 12.171423500000001,
            "velocity": 0.3937007874015748
          },
          {
            "duration": 0.08571424999999877,
            "durationTicks": 96,
            "midi": 65,
            "name": "F4",
            "ticks": 13632,
            "time": 12.171423500000001,
            "velocity": 0.3937007874015748
          },
          {
            "duration": 0.08571424999999877,
            "durationTicks": 96,
            "midi": 57,
            "name": "A3",
            "ticks": 13632,
            "time": 12.171423500000001,
            "velocity": 0.3937007874015748
          },
          {
            "duration": 0.08571424999999877,
            "durationTicks": 96,
            "midi": 69,
            "name": "A4",
            "ticks": 13632,
            "time": 12.171423500000001,
            "velocity": 0.3937007874015748
          },
          {
            "duration": 0.08571425000000055,
            "durationTicks": 96,
            "midi": 62,
            "name": "D4",
            "ticks": 13824,
            "time": 12.342852,
            "velocity": 0.3937007874015748
          },
          {
            "duration": 0.08571425000000055,
            "durationTicks": 96,
            "midi": 50,
            "name": "D3",
            "ticks": 13824,
            "time": 12.342852,
            "velocity": 0.3937007874015748
          },
          {
            "duration": 0.08571424999999877,
            "durationTicks": 96,
            "midi": 69,
            "name": "A4",
            "ticks": 14016,
            "time": 12.514280500000002,
            "velocity": 0.3937007874015748
          },
          {
            "duration": 0.08571424999999877,
            "durationTicks": 96,
            "midi": 65,
            "name": "F4",
            "ticks": 14016,
            "time": 12.514280500000002,
            "velocity": 0.3937007874015748
          },
          {
            "duration": 0.08571424999999877,
            "durationTicks": 96,
            "midi": 53,
            "name": "F3",
            "ticks": 14016,
            "time": 12.514280500000002,
            "velocity": 0.3937007874015748
          },
          {
            "duration": 0.08571424999999877,
            "durationTicks": 96,
            "midi": 57,
            "name": "A3",
            "ticks": 14016,
            "time": 12.514280500000002,
            "velocity": 0.3937007874015748
          },
          {
            "duration": 0.08571425000000055,
            "durationTicks": 96,
            "midi": 69,
            "name": "A4",
            "ticks": 14400,
            "time": 12.8571375,
            "velocity": 0.3937007874015748
          },
          {
            "duration": 0.08571425000000055,
            "durationTicks": 96,
            "midi": 53,
            "name": "F3",
            "ticks": 14400,
            "time": 12.8571375,
            "velocity": 0.3937007874015748
          },
          {
            "duration": 0.08571425000000055,
            "durationTicks": 96,
            "midi": 57,
            "name": "A3",
            "ticks": 14400,
            "time": 12.8571375,
            "velocity": 0.3937007874015748
          },
          {
            "duration": 0.08571425000000055,
            "durationTicks": 96,
            "midi": 65,
            "name": "F4",
            "ticks": 14400,
            "time": 12.8571375,
            "velocity": 0.3937007874015748
          },
          {
            "duration": 0.08571424999999877,
            "durationTicks": 96,
            "midi": 62,
            "name": "D4",
            "ticks": 14592,
            "time": 13.028566000000001,
            "velocity": 0.3937007874015748
          },
          {
            "duration": 0.08571424999999877,
            "durationTicks": 96,
            "midi": 50,
            "name": "D3",
            "ticks": 14592,
            "time": 13.028566000000001,
            "velocity": 0.3937007874015748
          },
          {
            "duration": 0.08571425000000055,
            "durationTicks": 96,
            "midi": 65,
            "name": "F4",
            "ticks": 14784,
            "time": 13.1999945,
            "velocity": 0.3937007874015748
          },
          {
            "duration": 0.08571425000000055,
            "durationTicks": 96,
            "midi": 69,
            "name": "A4",
            "ticks": 14784,
            "time": 13.1999945,
            "velocity": 0.3937007874015748
          },
          {
            "duration": 0.08571425000000055,
            "durationTicks": 96,
            "midi": 57,
            "name": "A3",
            "ticks": 14784,
            "time": 13.1999945,
            "velocity": 0.3937007874015748
          },
          {
            "duration": 0.08571425000000055,
            "durationTicks": 96,
            "midi": 53,
            "name": "F3",
            "ticks": 14784,
            "time": 13.1999945,
            "velocity": 0.3937007874015748
          },
          {
            "duration": 0.08571425000000055,
            "durationTicks": 96,
            "midi": 69,
            "name": "A4",
            "ticks": 15168,
            "time": 13.542851500000001,
            "velocity": 0.3937007874015748
          },
          {
            "duration": 0.08571425000000055,
            "durationTicks": 96,
            "midi": 57,
            "name": "A3",
            "ticks": 15168,
            "time": 13.542851500000001,
            "velocity": 0.3937007874015748
          },
          {
            "duration": 0.08571425000000055,
            "durationTicks": 96,
            "midi": 65,
            "name": "F4",
            "ticks": 15168,
            "time": 13.542851500000001,
            "velocity": 0.3937007874015748
          },
          {
            "duration": 0.08571425000000055,
            "durationTicks": 96,
            "midi": 53,
            "name": "F3",
            "ticks": 15168,
            "time": 13.542851500000001,
            "velocity": 0.3937007874015748
          },
          {
            "duration": 0.08571425000000055,
            "durationTicks": 96,
            "midi": 50,
            "name": "D3",
            "ticks": 15360,
            "time": 13.71428,
            "velocity": 0.3937007874015748
          },
          {
            "duration": 0.08571425000000055,
            "durationTicks": 96,
            "midi": 62,
            "name": "D4",
            "ticks": 15360,
            "time": 13.71428,
            "velocity": 0.3937007874015748
          },
          {
            "duration": 0.08571424999999877,
            "durationTicks": 96,
            "midi": 53,
            "name": "F3",
            "ticks": 15552,
            "time": 13.885708500000002,
            "velocity": 0.3937007874015748
          },
          {
            "duration": 0.08571424999999877,
            "durationTicks": 96,
            "midi": 57,
            "name": "A3",
            "ticks": 15552,
            "time": 13.885708500000002,
            "velocity": 0.3937007874015748
          },
          {
            "duration": 0.08571424999999877,
            "durationTicks": 96,
            "midi": 69,
            "name": "A4",
            "ticks": 15552,
            "time": 13.885708500000002,
            "velocity": 0.3937007874015748
          },
          {
            "duration": 0.08571424999999877,
            "durationTicks": 96,
            "midi": 65,
            "name": "F4",
            "ticks": 15552,
            "time": 13.885708500000002,
            "velocity": 0.3937007874015748
          },
          {
            "duration": 0.08571425000000055,
            "durationTicks": 96,
            "midi": 65,
            "name": "F4",
            "ticks": 15936,
            "time": 14.2285655,
            "velocity": 0.3937007874015748
          },
          {
            "duration": 0.08571425000000055,
            "durationTicks": 96,
            "midi": 57,
            "name": "A3",
            "ticks": 15936,
            "time": 14.2285655,
            "velocity": 0.3937007874015748
          },
          {
            "duration": 0.08571425000000055,
            "durationTicks": 96,
            "midi": 53,
            "name": "F3",
            "ticks": 15936,
            "time": 14.2285655,
            "velocity": 0.3937007874015748
          },
          {
            "duration": 0.08571425000000055,
            "durationTicks": 96,
            "midi": 69,
            "name": "A4",
            "ticks": 15936,
            "time": 14.2285655,
            "velocity": 0.3937007874015748
          },
          {
            "duration": 0.08571425000000055,
            "durationTicks": 96,
            "midi": 50,
            "name": "D3",
            "ticks": 16128,
            "time": 14.399994000000001,
            "velocity": 0.3937007874015748
          },
          {
            "duration": 0.08571425000000055,
            "durationTicks": 96,
            "midi": 62,
            "name": "D4",
            "ticks": 16128,
            "time": 14.399994000000001,
            "velocity": 0.3937007874015748
          },
          {
            "duration": 0.08571425000000055,
            "durationTicks": 96,
            "midi": 57,
            "name": "A3",
            "ticks": 16320,
            "time": 14.5714225,
            "velocity": 0.3937007874015748
          },
          {
            "duration": 0.08571425000000055,
            "durationTicks": 96,
            "midi": 69,
            "name": "A4",
            "ticks": 16320,
            "time": 14.5714225,
            "velocity": 0.3937007874015748
          },
          {
            "duration": 0.08571425000000055,
            "durationTicks": 96,
            "midi": 53,
            "name": "F3",
            "ticks": 16320,
            "time": 14.5714225,
            "velocity": 0.3937007874015748
          },
          {
            "duration": 0.08571425000000055,
            "durationTicks": 96,
            "midi": 65,
            "name": "F4",
            "ticks": 16320,
            "time": 14.5714225,
            "velocity": 0.3937007874015748
          },
          {
            "duration": 0.08571425000000055,
            "durationTicks": 96,
            "midi": 65,
            "name": "F4",
            "ticks": 16704,
            "time": 14.914279500000001,
            "velocity": 0.3937007874015748
          },
          {
            "duration": 0.08571425000000055,
            "durationTicks": 96,
            "midi": 53,
            "name": "F3",
            "ticks": 16704,
            "time": 14.914279500000001,
            "velocity": 0.3937007874015748
          },
          {
            "duration": 0.08571425000000055,
            "durationTicks": 96,
            "midi": 57,
            "name": "A3",
            "ticks": 16704,
            "time": 14.914279500000001,
            "velocity": 0.3937007874015748
          },
          {
            "duration": 0.08571425000000055,
            "durationTicks": 96,
            "midi": 69,
            "name": "A4",
            "ticks": 16704,
            "time": 14.914279500000001,
            "velocity": 0.3937007874015748
          },
          {
            "duration": 0.08571425000000055,
            "durationTicks": 96,
            "midi": 50,
            "name": "D3",
            "ticks": 16896,
            "time": 15.085708,
            "velocity": 0.3937007874015748
          },
          {
            "duration": 0.08571425000000055,
            "durationTicks": 96,
            "midi": 62,
            "name": "D4",
            "ticks": 16896,
            "time": 15.085708,
            "velocity": 0.3937007874015748
          },
          {
            "duration": 0.08571424999999877,
            "durationTicks": 96,
            "midi": 65,
            "name": "F4",
            "ticks": 17088,
            "time": 15.257136500000001,
            "velocity": 0.3937007874015748
          },
          {
            "duration": 0.08571424999999877,
            "durationTicks": 96,
            "midi": 69,
            "name": "A4",
            "ticks": 17088,
            "time": 15.257136500000001,
            "velocity": 0.3937007874015748
          },
          {
            "duration": 0.08571424999999877,
            "durationTicks": 96,
            "midi": 57,
            "name": "A3",
            "ticks": 17088,
            "time": 15.257136500000001,
            "velocity": 0.3937007874015748
          },
          {
            "duration": 0.08571424999999877,
            "durationTicks": 96,
            "midi": 53,
            "name": "F3",
            "ticks": 17088,
            "time": 15.257136500000001,
            "velocity": 0.3937007874015748
          },
          {
            "duration": 0.08571424999999877,
            "durationTicks": 96,
            "midi": 57,
            "name": "A3",
            "ticks": 17472,
            "time": 15.599993500000002,
            "velocity": 0.3937007874015748
          },
          {
            "duration": 0.08571424999999877,
            "durationTicks": 96,
            "midi": 53,
            "name": "F3",
            "ticks": 17472,
            "time": 15.599993500000002,
            "velocity": 0.3937007874015748
          },
          {
            "duration": 0.08571424999999877,
            "durationTicks": 96,
            "midi": 65,
            "name": "F4",
            "ticks": 17472,
            "time": 15.599993500000002,
            "velocity": 0.3937007874015748
          },
          {
            "duration": 0.08571424999999877,
            "durationTicks": 96,
            "midi": 69,
            "name": "A4",
            "ticks": 17472,
            "time": 15.599993500000002,
            "velocity": 0.3937007874015748
          },
          {
            "duration": 0.08571425000000055,
            "durationTicks": 96,
            "midi": 62,
            "name": "D4",
            "ticks": 17664,
            "time": 15.771422000000001,
            "velocity": 0.3937007874015748
          },
          {
            "duration": 0.08571425000000055,
            "durationTicks": 96,
            "midi": 50,
            "name": "D3",
            "ticks": 17664,
            "time": 15.771422000000001,
            "velocity": 0.3937007874015748
          },
          {
            "duration": 0.08571425000000055,
            "durationTicks": 96,
            "midi": 53,
            "name": "F3",
            "ticks": 17856,
            "time": 15.9428505,
            "velocity": 0.3937007874015748
          },
          {
            "duration": 0.08571425000000055,
            "durationTicks": 96,
            "midi": 65,
            "name": "F4",
            "ticks": 17856,
            "time": 15.9428505,
            "velocity": 0.3937007874015748
          },
          {
            "duration": 0.08571425000000055,
            "durationTicks": 96,
            "midi": 57,
            "name": "A3",
            "ticks": 17856,
            "time": 15.9428505,
            "velocity": 0.3937007874015748
          },
          {
            "duration": 0.08571425000000055,
            "durationTicks": 96,
            "midi": 69,
            "name": "A4",
            "ticks": 17856,
            "time": 15.9428505,
            "velocity": 0.3937007874015748
          },
          {
            "duration": 0.08571424999999877,
            "durationTicks": 96,
            "midi": 57,
            "name": "A3",
            "ticks": 18240,
            "time": 16.2857075,
            "velocity": 0.3937007874015748
          },
          {
            "duration": 0.08571424999999877,
            "durationTicks": 96,
            "midi": 53,
            "name": "F3",
            "ticks": 18240,
            "time": 16.2857075,
            "velocity": 0.3937007874015748
          },
          {
            "duration": 0.08571424999999877,
            "durationTicks": 96,
            "midi": 69,
            "name": "A4",
            "ticks": 18240,
            "time": 16.2857075,
            "velocity": 0.3937007874015748
          },
          {
            "duration": 0.08571424999999877,
            "durationTicks": 96,
            "midi": 65,
            "name": "F4",
            "ticks": 18240,
            "time": 16.2857075,
            "velocity": 0.3937007874015748
          },
          {
            "duration": 0.08571424999999877,
            "durationTicks": 96,
            "midi": 62,
            "name": "D4",
            "ticks": 18432,
            "time": 16.457136000000002,
            "velocity": 0.3937007874015748
          },
          {
            "duration": 0.08571424999999877,
            "durationTicks": 96,
            "midi": 50,
            "name": "D3",
            "ticks": 18432,
            "time": 16.457136000000002,
            "velocity": 0.3937007874015748
          },
          {
            "duration": 0.08571425000000232,
            "durationTicks": 96,
            "midi": 57,
            "name": "A3",
            "ticks": 18624,
            "time": 16.6285645,
            "velocity": 0.3937007874015748
          },
          {
            "duration": 0.08571425000000232,
            "durationTicks": 96,
            "midi": 69,
            "name": "A4",
            "ticks": 18624,
            "time": 16.6285645,
            "velocity": 0.3937007874015748
          },
          {
            "duration": 0.08571425000000232,
            "durationTicks": 96,
            "midi": 65,
            "name": "F4",
            "ticks": 18624,
            "time": 16.6285645,
            "velocity": 0.3937007874015748
          },
          {
            "duration": 0.08571425000000232,
            "durationTicks": 96,
            "midi": 53,
            "name": "F3",
            "ticks": 18624,
            "time": 16.6285645,
            "velocity": 0.3937007874015748
          },
          {
            "duration": 0.08571424999999877,
            "durationTicks": 96,
            "midi": 53,
            "name": "F3",
            "ticks": 19008,
            "time": 16.9714215,
            "velocity": 0.3937007874015748
          },
          {
            "duration": 0.08571424999999877,
            "durationTicks": 96,
            "midi": 69,
            "name": "A4",
            "ticks": 19008,
            "time": 16.9714215,
            "velocity": 0.3937007874015748
          },
          {
            "duration": 0.08571424999999877,
            "durationTicks": 96,
            "midi": 57,
            "name": "A3",
            "ticks": 19008,
            "time": 16.9714215,
            "velocity": 0.3937007874015748
          },
          {
            "duration": 0.08571424999999877,
            "durationTicks": 96,
            "midi": 65,
            "name": "F4",
            "ticks": 19008,
            "time": 16.9714215,
            "velocity": 0.3937007874015748
          },
          {
            "duration": 0.08571424999999877,
            "durationTicks": 96,
            "midi": 50,
            "name": "D3",
            "ticks": 19200,
            "time": 17.142850000000003,
            "velocity": 0.3937007874015748
          },
          {
            "duration": 0.08571424999999877,
            "durationTicks": 96,
            "midi": 62,
            "name": "D4",
            "ticks": 19200,
            "time": 17.142850000000003,
            "velocity": 0.3937007874015748
          },
          {
            "duration": 0.08571425000000232,
            "durationTicks": 96,
            "midi": 65,
            "name": "F4",
            "ticks": 19392,
            "time": 17.3142785,
            "velocity": 0.3937007874015748
          },
          {
            "duration": 0.08571425000000232,
            "durationTicks": 96,
            "midi": 57,
            "name": "A3",
            "ticks": 19392,
            "time": 17.3142785,
            "velocity": 0.3937007874015748
          },
          {
            "duration": 0.08571425000000232,
            "durationTicks": 96,
            "midi": 53,
            "name": "F3",
            "ticks": 19392,
            "time": 17.3142785,
            "velocity": 0.3937007874015748
          },
          {
            "duration": 0.08571425000000232,
            "durationTicks": 96,
            "midi": 69,
            "name": "A4",
            "ticks": 19392,
            "time": 17.3142785,
            "velocity": 0.3937007874015748
          },
          {
            "duration": 0.08571424999999877,
            "durationTicks": 96,
            "midi": 57,
            "name": "A3",
            "ticks": 19776,
            "time": 17.657135500000003,
            "velocity": 0.3937007874015748
          },
          {
            "duration": 0.08571424999999877,
            "durationTicks": 96,
            "midi": 53,
            "name": "F3",
            "ticks": 19776,
            "time": 17.657135500000003,
            "velocity": 0.3937007874015748
          },
          {
            "duration": 0.08571424999999877,
            "durationTicks": 96,
            "midi": 65,
            "name": "F4",
            "ticks": 19776,
            "time": 17.657135500000003,
            "velocity": 0.3937007874015748
          },
          {
            "duration": 0.08571424999999877,
            "durationTicks": 96,
            "midi": 69,
            "name": "A4",
            "ticks": 19776,
            "time": 17.657135500000003,
            "velocity": 0.3937007874015748
          },
          {
            "duration": 0.08571425000000232,
            "durationTicks": 96,
            "midi": 62,
            "name": "D4",
            "ticks": 19968,
            "time": 17.828564,
            "velocity": 0.3937007874015748
          },
          {
            "duration": 0.08571425000000232,
            "durationTicks": 96,
            "midi": 50,
            "name": "D3",
            "ticks": 19968,
            "time": 17.828564,
            "velocity": 0.3937007874015748
          },
          {
            "duration": 0.08571424999999877,
            "durationTicks": 96,
            "midi": 57,
            "name": "A3",
            "ticks": 20160,
            "time": 17.9999925,
            "velocity": 0.3937007874015748
          },
          {
            "duration": 0.08571424999999877,
            "durationTicks": 96,
            "midi": 53,
            "name": "F3",
            "ticks": 20160,
            "time": 17.9999925,
            "velocity": 0.3937007874015748
          },
          {
            "duration": 0.08571424999999877,
            "durationTicks": 96,
            "midi": 65,
            "name": "F4",
            "ticks": 20160,
            "time": 17.9999925,
            "velocity": 0.3937007874015748
          },
          {
            "duration": 0.08571424999999877,
            "durationTicks": 96,
            "midi": 69,
            "name": "A4",
            "ticks": 20160,
            "time": 17.9999925,
            "velocity": 0.3937007874015748
          },
          {
            "duration": 0.08571425000000232,
            "durationTicks": 96,
            "midi": 69,
            "name": "A4",
            "ticks": 20544,
            "time": 18.3428495,
            "velocity": 0.3937007874015748
          },
          {
            "duration": 0.08571425000000232,
            "durationTicks": 96,
            "midi": 65,
            "name": "F4",
            "ticks": 20544,
            "time": 18.3428495,
            "velocity": 0.3937007874015748
          },
          {
            "duration": 0.08571425000000232,
            "durationTicks": 96,
            "midi": 53,
            "name": "F3",
            "ticks": 20544,
            "time": 18.3428495,
            "velocity": 0.3937007874015748
          },
          {
            "duration": 0.08571425000000232,
            "durationTicks": 96,
            "midi": 57,
            "name": "A3",
            "ticks": 20544,
            "time": 18.3428495,
            "velocity": 0.3937007874015748
          },
          {
            "duration": 0.08571424999999877,
            "durationTicks": 96,
            "midi": 62,
            "name": "D4",
            "ticks": 20736,
            "time": 18.514278,
            "velocity": 0.3937007874015748
          },
          {
            "duration": 0.08571424999999877,
            "durationTicks": 96,
            "midi": 50,
            "name": "D3",
            "ticks": 20736,
            "time": 18.514278,
            "velocity": 0.3937007874015748
          },
          {
            "duration": 0.08571424999999877,
            "durationTicks": 96,
            "midi": 53,
            "name": "F3",
            "ticks": 20928,
            "time": 18.685706500000002,
            "velocity": 0.3937007874015748
          },
          {
            "duration": 0.08571424999999877,
            "durationTicks": 96,
            "midi": 69,
            "name": "A4",
            "ticks": 20928,
            "time": 18.685706500000002,
            "velocity": 0.3937007874015748
          },
          {
            "duration": 0.08571424999999877,
            "durationTicks": 96,
            "midi": 57,
            "name": "A3",
            "ticks": 20928,
            "time": 18.685706500000002,
            "velocity": 0.3937007874015748
          },
          {
            "duration": 0.08571424999999877,
            "durationTicks": 96,
            "midi": 65,
            "name": "F4",
            "ticks": 20928,
            "time": 18.685706500000002,
            "velocity": 0.3937007874015748
          },
          {
            "duration": 0.08571425000000232,
            "durationTicks": 96,
            "midi": 57,
            "name": "A3",
            "ticks": 21312,
            "time": 19.0285635,
            "velocity": 0.3937007874015748
          },
          {
            "duration": 0.08571425000000232,
            "durationTicks": 96,
            "midi": 65,
            "name": "F4",
            "ticks": 21312,
            "time": 19.0285635,
            "velocity": 0.3937007874015748
          },
          {
            "duration": 0.08571425000000232,
            "durationTicks": 96,
            "midi": 53,
            "name": "F3",
            "ticks": 21312,
            "time": 19.0285635,
            "velocity": 0.3937007874015748
          },
          {
            "duration": 0.08571425000000232,
            "durationTicks": 96,
            "midi": 69,
            "name": "A4",
            "ticks": 21312,
            "time": 19.0285635,
            "velocity": 0.3937007874015748
          },
          {
            "duration": 0.08571424999999877,
            "durationTicks": 96,
            "midi": 50,
            "name": "D3",
            "ticks": 21504,
            "time": 19.199992,
            "velocity": 0.3937007874015748
          },
          {
            "duration": 0.08571424999999877,
            "durationTicks": 96,
            "midi": 62,
            "name": "D4",
            "ticks": 21504,
            "time": 19.199992,
            "velocity": 0.3937007874015748
          },
          {
            "duration": 0.08571424999999877,
            "durationTicks": 96,
            "midi": 65,
            "name": "F4",
            "ticks": 21696,
            "time": 19.371420500000003,
            "velocity": 0.3937007874015748
          },
          {
            "duration": 0.08571424999999877,
            "durationTicks": 96,
            "midi": 53,
            "name": "F3",
            "ticks": 21696,
            "time": 19.371420500000003,
            "velocity": 0.3937007874015748
          },
          {
            "duration": 0.08571424999999877,
            "durationTicks": 96,
            "midi": 57,
            "name": "A3",
            "ticks": 21696,
            "time": 19.371420500000003,
            "velocity": 0.3937007874015748
          },
          {
            "duration": 0.08571424999999877,
            "durationTicks": 96,
            "midi": 69,
            "name": "A4",
            "ticks": 21696,
            "time": 19.371420500000003,
            "velocity": 0.3937007874015748
          },
          {
            "duration": 0.08571424999999877,
            "durationTicks": 96,
            "midi": 57,
            "name": "A3",
            "ticks": 22080,
            "time": 19.7142775,
            "velocity": 0.3937007874015748
          },
          {
            "duration": 0.08571424999999877,
            "durationTicks": 96,
            "midi": 53,
            "name": "F3",
            "ticks": 22080,
            "time": 19.7142775,
            "velocity": 0.3937007874015748
          },
          {
            "duration": 0.08571424999999877,
            "durationTicks": 96,
            "midi": 69,
            "name": "A4",
            "ticks": 22080,
            "time": 19.7142775,
            "velocity": 0.3937007874015748
          },
          {
            "duration": 0.08571424999999877,
            "durationTicks": 96,
            "midi": 65,
            "name": "F4",
            "ticks": 22080,
            "time": 19.7142775,
            "velocity": 0.3937007874015748
          },
          {
            "duration": 0.08571424999999877,
            "durationTicks": 96,
            "midi": 62,
            "name": "D4",
            "ticks": 22272,
            "time": 19.885706000000003,
            "velocity": 0.3937007874015748
          },
          {
            "duration": 0.08571424999999877,
            "durationTicks": 96,
            "midi": 50,
            "name": "D3",
            "ticks": 22272,
            "time": 19.885706000000003,
            "velocity": 0.3937007874015748
          },
          {
            "duration": 0.08571425000000232,
            "durationTicks": 96,
            "midi": 53,
            "name": "F3",
            "ticks": 22464,
            "time": 20.0571345,
            "velocity": 0.3937007874015748
          },
          {
            "duration": 0.08571425000000232,
            "durationTicks": 96,
            "midi": 65,
            "name": "F4",
            "ticks": 22464,
            "time": 20.0571345,
            "velocity": 0.3937007874015748
          },
          {
            "duration": 0.08571425000000232,
            "durationTicks": 96,
            "midi": 69,
            "name": "A4",
            "ticks": 22464,
            "time": 20.0571345,
            "velocity": 0.3937007874015748
          },
          {
            "duration": 0.08571425000000232,
            "durationTicks": 96,
            "midi": 57,
            "name": "A3",
            "ticks": 22464,
            "time": 20.0571345,
            "velocity": 0.3937007874015748
          },
          {
            "duration": 0.08571424999999877,
            "durationTicks": 96,
            "midi": 53,
            "name": "F3",
            "ticks": 22848,
            "time": 20.399991500000002,
            "velocity": 0.3937007874015748
          },
          {
            "duration": 0.08571424999999877,
            "durationTicks": 96,
            "midi": 69,
            "name": "A4",
            "ticks": 22848,
            "time": 20.399991500000002,
            "velocity": 0.3937007874015748
          },
          {
            "duration": 0.08571424999999877,
            "durationTicks": 96,
            "midi": 57,
            "name": "A3",
            "ticks": 22848,
            "time": 20.399991500000002,
            "velocity": 0.3937007874015748
          },
          {
            "duration": 0.08571424999999877,
            "durationTicks": 96,
            "midi": 65,
            "name": "F4",
            "ticks": 22848,
            "time": 20.399991500000002,
            "velocity": 0.3937007874015748
          },
          {
            "duration": 0.08571425000000232,
            "durationTicks": 96,
            "midi": 62,
            "name": "D4",
            "ticks": 23040,
            "time": 20.57142,
            "velocity": 0.3937007874015748
          },
          {
            "duration": 0.08571425000000232,
            "durationTicks": 96,
            "midi": 50,
            "name": "D3",
            "ticks": 23040,
            "time": 20.57142,
            "velocity": 0.3937007874015748
          },
          {
            "duration": 0.08571424999999877,
            "durationTicks": 96,
            "midi": 65,
            "name": "F4",
            "ticks": 23232,
            "time": 20.7428485,
            "velocity": 0.3937007874015748
          },
          {
            "duration": 0.08571424999999877,
            "durationTicks": 96,
            "midi": 57,
            "name": "A3",
            "ticks": 23232,
            "time": 20.7428485,
            "velocity": 0.3937007874015748
          },
          {
            "duration": 0.08571424999999877,
            "durationTicks": 96,
            "midi": 69,
            "name": "A4",
            "ticks": 23232,
            "time": 20.7428485,
            "velocity": 0.3937007874015748
          },
          {
            "duration": 0.08571424999999877,
            "durationTicks": 96,
            "midi": 53,
            "name": "F3",
            "ticks": 23232,
            "time": 20.7428485,
            "velocity": 0.3937007874015748
          },
          {
            "duration": 0.08571424999999877,
            "durationTicks": 96,
            "midi": 57,
            "name": "A3",
            "ticks": 23616,
            "time": 21.085705500000003,
            "velocity": 0.3937007874015748
          },
          {
            "duration": 0.08571424999999877,
            "durationTicks": 96,
            "midi": 65,
            "name": "F4",
            "ticks": 23616,
            "time": 21.085705500000003,
            "velocity": 0.3937007874015748
          },
          {
            "duration": 0.08571424999999877,
            "durationTicks": 96,
            "midi": 53,
            "name": "F3",
            "ticks": 23616,
            "time": 21.085705500000003,
            "velocity": 0.3937007874015748
          },
          {
            "duration": 0.08571424999999877,
            "durationTicks": 96,
            "midi": 69,
            "name": "A4",
            "ticks": 23616,
            "time": 21.085705500000003,
            "velocity": 0.3937007874015748
          },
          {
            "duration": 0.08571425000000232,
            "durationTicks": 96,
            "midi": 62,
            "name": "D4",
            "ticks": 23808,
            "time": 21.257134,
            "velocity": 0.3937007874015748
          },
          {
            "duration": 0.08571425000000232,
            "durationTicks": 96,
            "midi": 50,
            "name": "D3",
            "ticks": 23808,
            "time": 21.257134,
            "velocity": 0.3937007874015748
          },
          {
            "duration": 0.08571424999999877,
            "durationTicks": 96,
            "midi": 69,
            "name": "A4",
            "ticks": 24000,
            "time": 21.4285625,
            "velocity": 0.3937007874015748
          },
          {
            "duration": 0.08571424999999877,
            "durationTicks": 96,
            "midi": 53,
            "name": "F3",
            "ticks": 24000,
            "time": 21.4285625,
            "velocity": 0.3937007874015748
          },
          {
            "duration": 0.08571424999999877,
            "durationTicks": 96,
            "midi": 57,
            "name": "A3",
            "ticks": 24000,
            "time": 21.4285625,
            "velocity": 0.3937007874015748
          },
          {
            "duration": 0.08571424999999877,
            "durationTicks": 96,
            "midi": 65,
            "name": "F4",
            "ticks": 24000,
            "time": 21.4285625,
            "velocity": 0.3937007874015748
          },
          {
            "duration": 0.08571425000000232,
            "durationTicks": 96,
            "midi": 55,
            "name": "G3",
            "ticks": 24384,
            "time": 21.7714195,
            "velocity": 0.3937007874015748
          },
          {
            "duration": 0.08571425000000232,
            "durationTicks": 96,
            "midi": 67,
            "name": "G4",
            "ticks": 24384,
            "time": 21.7714195,
            "velocity": 0.3937007874015748
          },
          {
            "duration": 0.08571425000000232,
            "durationTicks": 96,
            "midi": 64,
            "name": "E4",
            "ticks": 24384,
            "time": 21.7714195,
            "velocity": 0.3937007874015748
          },
          {
            "duration": 0.08571425000000232,
            "durationTicks": 96,
            "midi": 52,
            "name": "E3",
            "ticks": 24384,
            "time": 21.7714195,
            "velocity": 0.3937007874015748
          },
          {
            "duration": 0.08571424999999877,
            "durationTicks": 96,
            "midi": 46,
            "name": "A#2",
            "ticks": 24576,
            "time": 21.942848,
            "velocity": 0.3937007874015748
          },
          {
            "duration": 0.08571424999999877,
            "durationTicks": 96,
            "midi": 58,
            "name": "A#3",
            "ticks": 24576,
            "time": 21.942848,
            "velocity": 0.3937007874015748
          },
          {
            "duration": 0.08571424999999877,
            "durationTicks": 96,
            "midi": 62,
            "name": "D4",
            "ticks": 24768,
            "time": 22.114276500000003,
            "velocity": 0.3937007874015748
          },
          {
            "duration": 0.08571424999999877,
            "durationTicks": 96,
            "midi": 50,
            "name": "D3",
            "ticks": 24768,
            "time": 22.114276500000003,
            "velocity": 0.3937007874015748
          },
          {
            "duration": 0.08571424999999877,
            "durationTicks": 96,
            "midi": 53,
            "name": "F3",
            "ticks": 24768,
            "time": 22.114276500000003,
            "velocity": 0.3937007874015748
          },
          {
            "duration": 0.08571424999999877,
            "durationTicks": 96,
            "midi": 65,
            "name": "F4",
            "ticks": 24768,
            "time": 22.114276500000003,
            "velocity": 0.3937007874015748
          },
          {
            "duration": 0.08571424999999877,
            "durationTicks": 96,
            "midi": 50,
            "name": "D3",
            "ticks": 25152,
            "time": 22.4571335,
            "velocity": 0.3937007874015748
          },
          {
            "duration": 0.08571424999999877,
            "durationTicks": 96,
            "midi": 65,
            "name": "F4",
            "ticks": 25152,
            "time": 22.4571335,
            "velocity": 0.3937007874015748
          },
          {
            "duration": 0.08571424999999877,
            "durationTicks": 96,
            "midi": 53,
            "name": "F3",
            "ticks": 25152,
            "time": 22.4571335,
            "velocity": 0.3937007874015748
          },
          {
            "duration": 0.08571424999999877,
            "durationTicks": 96,
            "midi": 62,
            "name": "D4",
            "ticks": 25152,
            "time": 22.4571335,
            "velocity": 0.3937007874015748
          },
          {
            "duration": 0.08571424999999877,
            "durationTicks": 96,
            "midi": 48,
            "name": "C3",
            "ticks": 25344,
            "time": 22.628562000000002,
            "velocity": 0.3937007874015748
          },
          {
            "duration": 0.08571424999999877,
            "durationTicks": 96,
            "midi": 60,
            "name": "C4",
            "ticks": 25344,
            "time": 22.628562000000002,
            "velocity": 0.3937007874015748
          },
          {
            "duration": 0.08571425000000232,
            "durationTicks": 96,
            "midi": 67,
            "name": "G4",
            "ticks": 25536,
            "time": 22.7999905,
            "velocity": 0.3937007874015748
          },
          {
            "duration": 0.08571425000000232,
            "durationTicks": 96,
            "midi": 52,
            "name": "E3",
            "ticks": 25536,
            "time": 22.7999905,
            "velocity": 0.3937007874015748
          },
          {
            "duration": 0.08571425000000232,
            "durationTicks": 96,
            "midi": 55,
            "name": "G3",
            "ticks": 25536,
            "time": 22.7999905,
            "velocity": 0.3937007874015748
          },
          {
            "duration": 0.08571425000000232,
            "durationTicks": 96,
            "midi": 64,
            "name": "E4",
            "ticks": 25536,
            "time": 22.7999905,
            "velocity": 0.3937007874015748
          },
          {
            "duration": 0.08571424999999877,
            "durationTicks": 96,
            "midi": 55,
            "name": "G3",
            "ticks": 25920,
            "time": 23.142847500000002,
            "velocity": 0.3937007874015748
          },
          {
            "duration": 0.08571424999999877,
            "durationTicks": 96,
            "midi": 67,
            "name": "G4",
            "ticks": 25920,
            "time": 23.142847500000002,
            "velocity": 0.3937007874015748
          },
          {
            "duration": 0.08571424999999877,
            "durationTicks": 96,
            "midi": 52,
            "name": "E3",
            "ticks": 25920,
            "time": 23.142847500000002,
            "velocity": 0.3937007874015748
          },
          {
            "duration": 0.08571424999999877,
            "durationTicks": 96,
            "midi": 64,
            "name": "E4",
            "ticks": 25920,
            "time": 23.142847500000002,
            "velocity": 0.3937007874015748
          },
          {
            "duration": 0.08571424999999877,
            "durationTicks": 96,
            "midi": 62,
            "name": "D4",
            "ticks": 26112,
            "time": 23.314276000000003,
            "velocity": 0.3937007874015748
          },
          {
            "duration": 0.08571424999999877,
            "durationTicks": 96,
            "midi": 50,
            "name": "D3",
            "ticks": 26112,
            "time": 23.314276000000003,
            "velocity": 0.3937007874015748
          },
          {
            "duration": 0.08571425000000232,
            "durationTicks": 96,
            "midi": 53,
            "name": "F3",
            "ticks": 26304,
            "time": 23.4857045,
            "velocity": 0.3937007874015748
          },
          {
            "duration": 0.08571425000000232,
            "durationTicks": 96,
            "midi": 57,
            "name": "A3",
            "ticks": 26304,
            "time": 23.4857045,
            "velocity": 0.3937007874015748
          },
          {
            "duration": 0.08571425000000232,
            "durationTicks": 96,
            "midi": 65,
            "name": "F4",
            "ticks": 26304,
            "time": 23.4857045,
            "velocity": 0.3937007874015748
          },
          {
            "duration": 0.08571425000000232,
            "durationTicks": 96,
            "midi": 69,
            "name": "A4",
            "ticks": 26304,
            "time": 23.4857045,
            "velocity": 0.3937007874015748
          },
          {
            "duration": 0.08571424999999877,
            "durationTicks": 96,
            "midi": 65,
            "name": "F4",
            "ticks": 26688,
            "time": 23.828561500000003,
            "velocity": 0.3937007874015748
          },
          {
            "duration": 0.08571424999999877,
            "durationTicks": 96,
            "midi": 69,
            "name": "A4",
            "ticks": 26688,
            "time": 23.828561500000003,
            "velocity": 0.3937007874015748
          },
          {
            "duration": 0.08571424999999877,
            "durationTicks": 96,
            "midi": 57,
            "name": "A3",
            "ticks": 26688,
            "time": 23.828561500000003,
            "velocity": 0.3937007874015748
          },
          {
            "duration": 0.08571424999999877,
            "durationTicks": 96,
            "midi": 53,
            "name": "F3",
            "ticks": 26688,
            "time": 23.828561500000003,
            "velocity": 0.3937007874015748
          },
          {
            "duration": 0.08571425000000232,
            "durationTicks": 96,
            "midi": 50,
            "name": "D3",
            "ticks": 26880,
            "time": 23.99999,
            "velocity": 0.3937007874015748
          },
          {
            "duration": 0.08571425000000232,
            "durationTicks": 96,
            "midi": 62,
            "name": "D4",
            "ticks": 26880,
            "time": 23.99999,
            "velocity": 0.3937007874015748
          },
          {
            "duration": 0.08571424999999877,
            "durationTicks": 96,
            "midi": 57,
            "name": "A3",
            "ticks": 27072,
            "time": 24.1714185,
            "velocity": 0.3937007874015748
          },
          {
            "duration": 0.08571424999999877,
            "durationTicks": 96,
            "midi": 69,
            "name": "A4",
            "ticks": 27072,
            "time": 24.1714185,
            "velocity": 0.3937007874015748
          },
          {
            "duration": 0.08571424999999877,
            "durationTicks": 96,
            "midi": 53,
            "name": "F3",
            "ticks": 27072,
            "time": 24.1714185,
            "velocity": 0.3937007874015748
          },
          {
            "duration": 0.08571424999999877,
            "durationTicks": 96,
            "midi": 65,
            "name": "F4",
            "ticks": 27072,
            "time": 24.1714185,
            "velocity": 0.3937007874015748
          },
          {
            "duration": 0.08571425000000232,
            "durationTicks": 96,
            "midi": 57,
            "name": "A3",
            "ticks": 27456,
            "time": 24.5142755,
            "velocity": 0.3937007874015748
          },
          {
            "duration": 0.08571425000000232,
            "durationTicks": 96,
            "midi": 65,
            "name": "F4",
            "ticks": 27456,
            "time": 24.5142755,
            "velocity": 0.3937007874015748
          },
          {
            "duration": 0.08571425000000232,
            "durationTicks": 96,
            "midi": 53,
            "name": "F3",
            "ticks": 27456,
            "time": 24.5142755,
            "velocity": 0.3937007874015748
          },
          {
            "duration": 0.08571425000000232,
            "durationTicks": 96,
            "midi": 69,
            "name": "A4",
            "ticks": 27456,
            "time": 24.5142755,
            "velocity": 0.3937007874015748
          },
          {
            "duration": 0.08571424999999877,
            "durationTicks": 96,
            "midi": 46,
            "name": "A#2",
            "ticks": 27648,
            "time": 24.685704,
            "velocity": 0.3937007874015748
          },
          {
            "duration": 0.08571424999999877,
            "durationTicks": 96,
            "midi": 58,
            "name": "A#3",
            "ticks": 27648,
            "time": 24.685704,
            "velocity": 0.3937007874015748
          },
          {
            "duration": 0.08571424999999877,
            "durationTicks": 96,
            "midi": 50,
            "name": "D3",
            "ticks": 27840,
            "time": 24.857132500000002,
            "velocity": 0.3937007874015748
          },
          {
            "duration": 0.08571424999999877,
            "durationTicks": 96,
            "midi": 65,
            "name": "F4",
            "ticks": 27840,
            "time": 24.857132500000002,
            "velocity": 0.3937007874015748
          },
          {
            "duration": 0.08571424999999877,
            "durationTicks": 96,
            "midi": 53,
            "name": "F3",
            "ticks": 27840,
            "time": 24.857132500000002,
            "velocity": 0.3937007874015748
          },
          {
            "duration": 0.08571424999999877,
            "durationTicks": 96,
            "midi": 62,
            "name": "D4",
            "ticks": 27840,
            "time": 24.857132500000002,
            "velocity": 0.3937007874015748
          },
          {
            "duration": 0.08571425000000232,
            "durationTicks": 96,
            "midi": 53,
            "name": "F3",
            "ticks": 28224,
            "time": 25.1999895,
            "velocity": 0.3937007874015748
          },
          {
            "duration": 0.08571425000000232,
            "durationTicks": 96,
            "midi": 65,
            "name": "F4",
            "ticks": 28224,
            "time": 25.1999895,
            "velocity": 0.3937007874015748
          },
          {
            "duration": 0.08571425000000232,
            "durationTicks": 96,
            "midi": 62,
            "name": "D4",
            "ticks": 28224,
            "time": 25.1999895,
            "velocity": 0.3937007874015748
          },
          {
            "duration": 0.08571425000000232,
            "durationTicks": 96,
            "midi": 50,
            "name": "D3",
            "ticks": 28224,
            "time": 25.1999895,
            "velocity": 0.3937007874015748
          },
          {
            "duration": 0.08571424999999877,
            "durationTicks": 96,
            "midi": 60,
            "name": "C4",
            "ticks": 28416,
            "time": 25.371418000000002,
            "velocity": 0.3937007874015748
          },
          {
            "duration": 0.08571424999999877,
            "durationTicks": 96,
            "midi": 48,
            "name": "C3",
            "ticks": 28416,
            "time": 25.371418000000002,
            "velocity": 0.3937007874015748
          },
          {
            "duration": 0.08571424999999877,
            "durationTicks": 96,
            "midi": 52,
            "name": "E3",
            "ticks": 28608,
            "time": 25.542846500000003,
            "velocity": 0.3937007874015748
          },
          {
            "duration": 0.08571424999999877,
            "durationTicks": 96,
            "midi": 64,
            "name": "E4",
            "ticks": 28608,
            "time": 25.542846500000003,
            "velocity": 0.3937007874015748
          },
          {
            "duration": 0.08571424999999877,
            "durationTicks": 96,
            "midi": 67,
            "name": "G4",
            "ticks": 28608,
            "time": 25.542846500000003,
            "velocity": 0.3937007874015748
          },
          {
            "duration": 0.08571424999999877,
            "durationTicks": 96,
            "midi": 55,
            "name": "G3",
            "ticks": 28608,
            "time": 25.542846500000003,
            "velocity": 0.3937007874015748
          },
          {
            "duration": 0.08571424999999877,
            "durationTicks": 96,
            "midi": 52,
            "name": "E3",
            "ticks": 28992,
            "time": 25.8857035,
            "velocity": 0.3937007874015748
          },
          {
            "duration": 0.08571424999999877,
            "durationTicks": 96,
            "midi": 67,
            "name": "G4",
            "ticks": 28992,
            "time": 25.8857035,
            "velocity": 0.3937007874015748
          },
          {
            "duration": 0.08571424999999877,
            "durationTicks": 96,
            "midi": 64,
            "name": "E4",
            "ticks": 28992,
            "time": 25.8857035,
            "velocity": 0.3937007874015748
          },
          {
            "duration": 0.08571424999999877,
            "durationTicks": 96,
            "midi": 55,
            "name": "G3",
            "ticks": 28992,
            "time": 25.8857035,
            "velocity": 0.3937007874015748
          },
          {
            "duration": 0.08571424999999877,
            "durationTicks": 96,
            "midi": 62,
            "name": "D4",
            "ticks": 29184,
            "time": 26.057132000000003,
            "velocity": 0.3937007874015748
          },
          {
            "duration": 0.08571424999999877,
            "durationTicks": 96,
            "midi": 50,
            "name": "D3",
            "ticks": 29184,
            "time": 26.057132000000003,
            "velocity": 0.3937007874015748
          },
          {
            "duration": 0.08571425000000232,
            "durationTicks": 96,
            "midi": 57,
            "name": "A3",
            "ticks": 29376,
            "time": 26.2285605,
            "velocity": 0.3937007874015748
          },
          {
            "duration": 0.08571425000000232,
            "durationTicks": 96,
            "midi": 69,
            "name": "A4",
            "ticks": 29376,
            "time": 26.2285605,
            "velocity": 0.3937007874015748
          },
          {
            "duration": 0.08571425000000232,
            "durationTicks": 96,
            "midi": 65,
            "name": "F4",
            "ticks": 29376,
            "time": 26.2285605,
            "velocity": 0.3937007874015748
          },
          {
            "duration": 0.08571425000000232,
            "durationTicks": 96,
            "midi": 53,
            "name": "F3",
            "ticks": 29376,
            "time": 26.2285605,
            "velocity": 0.3937007874015748
          },
          {
            "duration": 0.08571424999999877,
            "durationTicks": 96,
            "midi": 50,
            "name": "D3",
            "ticks": 29568,
            "time": 26.399989,
            "velocity": 0.3937007874015748
          },
          {
            "duration": 0.08571424999999877,
            "durationTicks": 96,
            "midi": 62,
            "name": "D4",
            "ticks": 29568,
            "time": 26.399989,
            "velocity": 0.3937007874015748
          },
          {
            "duration": 0.08571424999999877,
            "durationTicks": 96,
            "midi": 72,
            "name": "C5",
            "ticks": 29760,
            "time": 26.571417500000003,
            "velocity": 0.3937007874015748
          },
          {
            "duration": 0.08571424999999877,
            "durationTicks": 96,
            "midi": 67,
            "name": "G4",
            "ticks": 29760,
            "time": 26.571417500000003,
            "velocity": 0.3937007874015748
          },
          {
            "duration": 0.08571424999999877,
            "durationTicks": 96,
            "midi": 60,
            "name": "C4",
            "ticks": 29760,
            "time": 26.571417500000003,
            "velocity": 0.3937007874015748
          },
          {
            "duration": 0.08571424999999877,
            "durationTicks": 96,
            "midi": 55,
            "name": "G3",
            "ticks": 29760,
            "time": 26.571417500000003,
            "velocity": 0.3937007874015748
          },
          {
            "duration": 0.08571425000000232,
            "durationTicks": 96,
            "midi": 62,
            "name": "D4",
            "ticks": 29952,
            "time": 26.742846,
            "velocity": 0.3937007874015748
          },
          {
            "duration": 0.08571425000000232,
            "durationTicks": 96,
            "midi": 50,
            "name": "D3",
            "ticks": 29952,
            "time": 26.742846,
            "velocity": 0.3937007874015748
          },
          {
            "duration": 0.08571425000000232,
            "durationTicks": 96,
            "midi": 57,
            "name": "A3",
            "ticks": 30144,
            "time": 26.9142745,
            "velocity": 0.3937007874015748
          },
          {
            "duration": 0.08571425000000232,
            "durationTicks": 96,
            "midi": 62,
            "name": "D4",
            "ticks": 30144,
            "time": 26.9142745,
            "velocity": 0.3937007874015748
          },
          {
            "duration": 0.08571425000000232,
            "durationTicks": 96,
            "midi": 74,
            "name": "D5",
            "ticks": 30144,
            "time": 26.9142745,
            "velocity": 0.3937007874015748
          },
          {
            "duration": 0.08571425000000232,
            "durationTicks": 96,
            "midi": 69,
            "name": "A4",
            "ticks": 30144,
            "time": 26.9142745,
            "velocity": 0.3937007874015748
          },
          {
            "duration": 0.08571424999999877,
            "durationTicks": 96,
            "midi": 62,
            "name": "D4",
            "ticks": 30336,
            "time": 27.085703000000002,
            "velocity": 0.3937007874015748
          },
          {
            "duration": 0.08571424999999877,
            "durationTicks": 96,
            "midi": 50,
            "name": "D3",
            "ticks": 30336,
            "time": 27.085703000000002,
            "velocity": 0.3937007874015748
          },
          {
            "duration": 0.08571424999999877,
            "durationTicks": 96,
            "midi": 57,
            "name": "A3",
            "ticks": 30528,
            "time": 27.257131500000003,
            "velocity": 0.3937007874015748
          },
          {
            "duration": 0.08571424999999877,
            "durationTicks": 96,
            "midi": 69,
            "name": "A4",
            "ticks": 30528,
            "time": 27.257131500000003,
            "velocity": 0.3937007874015748
          },
          {
            "duration": 0.08571424999999877,
            "durationTicks": 96,
            "midi": 53,
            "name": "F3",
            "ticks": 30528,
            "time": 27.257131500000003,
            "velocity": 0.3937007874015748
          },
          {
            "duration": 0.08571424999999877,
            "durationTicks": 96,
            "midi": 65,
            "name": "F4",
            "ticks": 30528,
            "time": 27.257131500000003,
            "velocity": 0.3937007874015748
          },
          {
            "duration": 0.08571425000000232,
            "durationTicks": 96,
            "midi": 58,
            "name": "A#3",
            "ticks": 30720,
            "time": 27.42856,
            "velocity": 0.3937007874015748
          },
          {
            "duration": 0.08571425000000232,
            "durationTicks": 96,
            "midi": 46,
            "name": "A#2",
            "ticks": 30720,
            "time": 27.42856,
            "velocity": 0.3937007874015748
          },
          {
            "duration": 0.08571424999999877,
            "durationTicks": 96,
            "midi": 62,
            "name": "D4",
            "ticks": 30912,
            "time": 27.599988500000002,
            "velocity": 0.3937007874015748
          },
          {
            "duration": 0.08571424999999877,
            "durationTicks": 96,
            "midi": 65,
            "name": "F4",
            "ticks": 30912,
            "time": 27.599988500000002,
            "velocity": 0.3937007874015748
          },
          {
            "duration": 0.08571424999999877,
            "durationTicks": 96,
            "midi": 50,
            "name": "D3",
            "ticks": 30912,
            "time": 27.599988500000002,
            "velocity": 0.3937007874015748
          },
          {
            "duration": 0.08571424999999877,
            "durationTicks": 96,
            "midi": 53,
            "name": "F3",
            "ticks": 30912,
            "time": 27.599988500000002,
            "velocity": 0.3937007874015748
          },
          {
            "duration": 0.08571425000000232,
            "durationTicks": 96,
            "midi": 65,
            "name": "F4",
            "ticks": 31296,
            "time": 27.9428455,
            "velocity": 0.3937007874015748
          },
          {
            "duration": 0.08571425000000232,
            "durationTicks": 96,
            "midi": 50,
            "name": "D3",
            "ticks": 31296,
            "time": 27.9428455,
            "velocity": 0.3937007874015748
          },
          {
            "duration": 0.08571425000000232,
            "durationTicks": 96,
            "midi": 62,
            "name": "D4",
            "ticks": 31296,
            "time": 27.9428455,
            "velocity": 0.3937007874015748
          },
          {
            "duration": 0.08571425000000232,
            "durationTicks": 96,
            "midi": 53,
            "name": "F3",
            "ticks": 31296,
            "time": 27.9428455,
            "velocity": 0.3937007874015748
          },
          {
            "duration": 0.08571424999999877,
            "durationTicks": 96,
            "midi": 60,
            "name": "C4",
            "ticks": 31488,
            "time": 28.114274,
            "velocity": 0.3937007874015748
          },
          {
            "duration": 0.08571424999999877,
            "durationTicks": 96,
            "midi": 48,
            "name": "C3",
            "ticks": 31488,
            "time": 28.114274,
            "velocity": 0.3937007874015748
          },
          {
            "duration": 0.08571424999999877,
            "durationTicks": 96,
            "midi": 52,
            "name": "E3",
            "ticks": 31680,
            "time": 28.285702500000003,
            "velocity": 0.3937007874015748
          },
          {
            "duration": 0.08571424999999877,
            "durationTicks": 96,
            "midi": 64,
            "name": "E4",
            "ticks": 31680,
            "time": 28.285702500000003,
            "velocity": 0.3937007874015748
          },
          {
            "duration": 0.08571424999999877,
            "durationTicks": 96,
            "midi": 67,
            "name": "G4",
            "ticks": 31680,
            "time": 28.285702500000003,
            "velocity": 0.3937007874015748
          },
          {
            "duration": 0.08571424999999877,
            "durationTicks": 96,
            "midi": 55,
            "name": "G3",
            "ticks": 31680,
            "time": 28.285702500000003,
            "velocity": 0.3937007874015748
          },
          {
            "duration": 0.08571424999999877,
            "durationTicks": 96,
            "midi": 52,
            "name": "E3",
            "ticks": 32064,
            "time": 28.6285595,
            "velocity": 0.3937007874015748
          },
          {
            "duration": 0.08571424999999877,
            "durationTicks": 96,
            "midi": 64,
            "name": "E4",
            "ticks": 32064,
            "time": 28.6285595,
            "velocity": 0.3937007874015748
          },
          {
            "duration": 0.08571424999999877,
            "durationTicks": 96,
            "midi": 55,
            "name": "G3",
            "ticks": 32064,
            "time": 28.6285595,
            "velocity": 0.3937007874015748
          },
          {
            "duration": 0.08571424999999877,
            "durationTicks": 96,
            "midi": 67,
            "name": "G4",
            "ticks": 32064,
            "time": 28.6285595,
            "velocity": 0.3937007874015748
          },
          {
            "duration": 0.08571424999999877,
            "durationTicks": 96,
            "midi": 62,
            "name": "D4",
            "ticks": 32256,
            "time": 28.799988000000003,
            "velocity": 0.3937007874015748
          },
          {
            "duration": 0.08571424999999877,
            "durationTicks": 96,
            "midi": 50,
            "name": "D3",
            "ticks": 32256,
            "time": 28.799988000000003,
            "velocity": 0.3937007874015748
          },
          {
            "duration": 0.08571424999999877,
            "durationTicks": 96,
            "midi": 53,
            "name": "F3",
            "ticks": 32448,
            "time": 28.971416500000004,
            "velocity": 0.3937007874015748
          },
          {
            "duration": 0.08571424999999877,
            "durationTicks": 96,
            "midi": 57,
            "name": "A3",
            "ticks": 32448,
            "time": 28.971416500000004,
            "velocity": 0.3937007874015748
          },
          {
            "duration": 0.08571424999999877,
            "durationTicks": 96,
            "midi": 69,
            "name": "A4",
            "ticks": 32448,
            "time": 28.971416500000004,
            "velocity": 0.3937007874015748
          },
          {
            "duration": 0.08571424999999877,
            "durationTicks": 96,
            "midi": 65,
            "name": "F4",
            "ticks": 32448,
            "time": 28.971416500000004,
            "velocity": 0.3937007874015748
          },
          {
            "duration": 0.08571424999999877,
            "durationTicks": 96,
            "midi": 57,
            "name": "A3",
            "ticks": 32832,
            "time": 29.314273500000002,
            "velocity": 0.3937007874015748
          },
          {
            "duration": 0.08571424999999877,
            "durationTicks": 96,
            "midi": 69,
            "name": "A4",
            "ticks": 32832,
            "time": 29.314273500000002,
            "velocity": 0.3937007874015748
          },
          {
            "duration": 0.08571424999999877,
            "durationTicks": 96,
            "midi": 53,
            "name": "F3",
            "ticks": 32832,
            "time": 29.314273500000002,
            "velocity": 0.3937007874015748
          },
          {
            "duration": 0.08571424999999877,
            "durationTicks": 96,
            "midi": 65,
            "name": "F4",
            "ticks": 32832,
            "time": 29.314273500000002,
            "velocity": 0.3937007874015748
          },
          {
            "duration": 0.08571424999999877,
            "durationTicks": 96,
            "midi": 50,
            "name": "D3",
            "ticks": 33024,
            "time": 29.485702000000003,
            "velocity": 0.3937007874015748
          },
          {
            "duration": 0.08571424999999877,
            "durationTicks": 96,
            "midi": 62,
            "name": "D4",
            "ticks": 33024,
            "time": 29.485702000000003,
            "velocity": 0.3937007874015748
          },
          {
            "duration": 0.08571425000000232,
            "durationTicks": 96,
            "midi": 65,
            "name": "F4",
            "ticks": 33216,
            "time": 29.6571305,
            "velocity": 0.3937007874015748
          },
          {
            "duration": 0.08571425000000232,
            "durationTicks": 96,
            "midi": 69,
            "name": "A4",
            "ticks": 33216,
            "time": 29.6571305,
            "velocity": 0.3937007874015748
          },
          {
            "duration": 0.08571425000000232,
            "durationTicks": 96,
            "midi": 57,
            "name": "A3",
            "ticks": 33216,
            "time": 29.6571305,
            "velocity": 0.3937007874015748
          },
          {
            "duration": 0.08571425000000232,
            "durationTicks": 96,
            "midi": 53,
            "name": "F3",
            "ticks": 33216,
            "time": 29.6571305,
            "velocity": 0.3937007874015748
          },
          {
            "duration": 0.08571424999999877,
            "durationTicks": 96,
            "midi": 57,
            "name": "A3",
            "ticks": 33600,
            "time": 29.999987500000003,
            "velocity": 0.3937007874015748
          },
          {
            "duration": 0.08571424999999877,
            "durationTicks": 96,
            "midi": 65,
            "name": "F4",
            "ticks": 33600,
            "time": 29.999987500000003,
            "velocity": 0.3937007874015748
          },
          {
            "duration": 0.08571424999999877,
            "durationTicks": 96,
            "midi": 69,
            "name": "A4",
            "ticks": 33600,
            "time": 29.999987500000003,
            "velocity": 0.3937007874015748
          },
          {
            "duration": 0.08571424999999877,
            "durationTicks": 96,
            "midi": 53,
            "name": "F3",
            "ticks": 33600,
            "time": 29.999987500000003,
            "velocity": 0.3937007874015748
          },
          {
            "duration": 0.08571425000000232,
            "durationTicks": 96,
            "midi": 46,
            "name": "A#2",
            "ticks": 33792,
            "time": 30.171416,
            "velocity": 0.3937007874015748
          },
          {
            "duration": 0.08571425000000232,
            "durationTicks": 96,
            "midi": 58,
            "name": "A#3",
            "ticks": 33792,
            "time": 30.171416,
            "velocity": 0.3937007874015748
          },
          {
            "duration": 0.08571424999999877,
            "durationTicks": 96,
            "midi": 62,
            "name": "D4",
            "ticks": 33984,
            "time": 30.3428445,
            "velocity": 0.3937007874015748
          },
          {
            "duration": 0.08571424999999877,
            "durationTicks": 96,
            "midi": 67,
            "name": "G4",
            "ticks": 33984,
            "time": 30.3428445,
            "velocity": 0.3937007874015748
          },
          {
            "duration": 0.08571424999999877,
            "durationTicks": 96,
            "midi": 50,
            "name": "D3",
            "ticks": 33984,
            "time": 30.3428445,
            "velocity": 0.3937007874015748
          },
          {
            "duration": 0.08571424999999877,
            "durationTicks": 96,
            "midi": 55,
            "name": "G3",
            "ticks": 33984,
            "time": 30.3428445,
            "velocity": 0.3937007874015748
          },
          {
            "duration": 0.08571425000000232,
            "durationTicks": 96,
            "midi": 62,
            "name": "D4",
            "ticks": 34368,
            "time": 30.6857015,
            "velocity": 0.3937007874015748
          },
          {
            "duration": 0.08571425000000232,
            "durationTicks": 96,
            "midi": 55,
            "name": "G3",
            "ticks": 34368,
            "time": 30.6857015,
            "velocity": 0.3937007874015748
          },
          {
            "duration": 0.08571425000000232,
            "durationTicks": 96,
            "midi": 50,
            "name": "D3",
            "ticks": 34368,
            "time": 30.6857015,
            "velocity": 0.3937007874015748
          },
          {
            "duration": 0.08571425000000232,
            "durationTicks": 96,
            "midi": 67,
            "name": "G4",
            "ticks": 34368,
            "time": 30.6857015,
            "velocity": 0.3937007874015748
          },
          {
            "duration": 0.08571425000000232,
            "durationTicks": 96,
            "midi": 48,
            "name": "C3",
            "ticks": 34560,
            "time": 30.85713,
            "velocity": 0.3937007874015748
          },
          {
            "duration": 0.08571425000000232,
            "durationTicks": 96,
            "midi": 60,
            "name": "C4",
            "ticks": 34560,
            "time": 30.85713,
            "velocity": 0.3937007874015748
          },
          {
            "duration": 0.08571424999999877,
            "durationTicks": 96,
            "midi": 57,
            "name": "A3",
            "ticks": 34752,
            "time": 31.028558500000003,
            "velocity": 0.3937007874015748
          },
          {
            "duration": 0.08571424999999877,
            "durationTicks": 96,
            "midi": 52,
            "name": "E3",
            "ticks": 34752,
            "time": 31.028558500000003,
            "velocity": 0.3937007874015748
          },
          {
            "duration": 0.08571424999999877,
            "durationTicks": 96,
            "midi": 69,
            "name": "A4",
            "ticks": 34752,
            "time": 31.028558500000003,
            "velocity": 0.3937007874015748
          },
          {
            "duration": 0.08571424999999877,
            "durationTicks": 96,
            "midi": 64,
            "name": "E4",
            "ticks": 34752,
            "time": 31.028558500000003,
            "velocity": 0.3937007874015748
          },
          {
            "duration": 0.08571425000000232,
            "durationTicks": 96,
            "midi": 52,
            "name": "E3",
            "ticks": 35136,
            "time": 31.3714155,
            "velocity": 0.3937007874015748
          },
          {
            "duration": 0.08571425000000232,
            "durationTicks": 96,
            "midi": 69,
            "name": "A4",
            "ticks": 35136,
            "time": 31.3714155,
            "velocity": 0.3937007874015748
          },
          {
            "duration": 0.08571425000000232,
            "durationTicks": 96,
            "midi": 57,
            "name": "A3",
            "ticks": 35136,
            "time": 31.3714155,
            "velocity": 0.3937007874015748
          },
          {
            "duration": 0.08571425000000232,
            "durationTicks": 96,
            "midi": 64,
            "name": "E4",
            "ticks": 35136,
            "time": 31.3714155,
            "velocity": 0.3937007874015748
          },
          {
            "duration": 0.08571424999999877,
            "durationTicks": 96,
            "midi": 50,
            "name": "D3",
            "ticks": 35328,
            "time": 31.542844000000002,
            "velocity": 0.3937007874015748
          },
          {
            "duration": 0.08571424999999877,
            "durationTicks": 96,
            "midi": 62,
            "name": "D4",
            "ticks": 35328,
            "time": 31.542844000000002,
            "velocity": 0.3937007874015748
          },
          {
            "duration": 0.08571424999999877,
            "durationTicks": 96,
            "midi": 70,
            "name": "A#4",
            "ticks": 35520,
            "time": 31.714272500000003,
            "velocity": 0.3937007874015748
          },
          {
            "duration": 0.08571424999999877,
            "durationTicks": 96,
            "midi": 58,
            "name": "A#3",
            "ticks": 35520,
            "time": 31.714272500000003,
            "velocity": 0.3937007874015748
          },
          {
            "duration": 0.08571424999999877,
            "durationTicks": 96,
            "midi": 65,
            "name": "F4",
            "ticks": 35520,
            "time": 31.714272500000003,
            "velocity": 0.3937007874015748
          },
          {
            "duration": 0.08571424999999877,
            "durationTicks": 96,
            "midi": 53,
            "name": "F3",
            "ticks": 35520,
            "time": 31.714272500000003,
            "velocity": 0.3937007874015748
          },
          {
            "duration": 0.08571425000000232,
            "durationTicks": 96,
            "midi": 67,
            "name": "G4",
            "ticks": 35904,
            "time": 32.0571295,
            "velocity": 0.3937007874015748
          },
          {
            "duration": 0.08571425000000232,
            "durationTicks": 96,
            "midi": 55,
            "name": "G3",
            "ticks": 35904,
            "time": 32.0571295,
            "velocity": 0.3937007874015748
          },
          {
            "duration": 0.08571425000000232,
            "durationTicks": 96,
            "midi": 59,
            "name": "B3",
            "ticks": 35904,
            "time": 32.0571295,
            "velocity": 0.3937007874015748
          },
          {
            "duration": 0.08571425000000232,
            "durationTicks": 96,
            "midi": 71,
            "name": "B4",
            "ticks": 35904,
            "time": 32.0571295,
            "velocity": 0.3937007874015748
          },
          {
            "duration": 0.08571425000000232,
            "durationTicks": 96,
            "midi": 69,
            "name": "A4",
            "ticks": 36096,
            "time": 32.228558,
            "velocity": 0.3937007874015748
          },
          {
            "duration": 0.08571425000000232,
            "durationTicks": 96,
            "midi": 57,
            "name": "A3",
            "ticks": 36096,
            "time": 32.228558,
            "velocity": 0.3937007874015748
          },
          {
            "duration": 0.08571425000000232,
            "durationTicks": 96,
            "midi": 60,
            "name": "C4",
            "ticks": 36096,
            "time": 32.228558,
            "velocity": 0.3937007874015748
          },
          {
            "duration": 0.08571425000000232,
            "durationTicks": 96,
            "midi": 72,
            "name": "C5",
            "ticks": 36096,
            "time": 32.228558,
            "velocity": 0.3937007874015748
          },
          {
            "duration": 0.08571425000000232,
            "durationTicks": 96,
            "midi": 72,
            "name": "C5",
            "ticks": 36384,
            "time": 32.48570075,
            "velocity": 0.3937007874015748
          },
          {
            "duration": 0.08571425000000232,
            "durationTicks": 96,
            "midi": 69,
            "name": "A4",
            "ticks": 36384,
            "time": 32.48570075,
            "velocity": 0.3937007874015748
          },
          {
            "duration": 0.08571425000000232,
            "durationTicks": 96,
            "midi": 60,
            "name": "C4",
            "ticks": 36384,
            "time": 32.48570075,
            "velocity": 0.3937007874015748
          },
          {
            "duration": 0.08571425000000232,
            "durationTicks": 96,
            "midi": 57,
            "name": "A3",
            "ticks": 36384,
            "time": 32.48570075,
            "velocity": 0.3937007874015748
          },
          {
            "duration": 0.08571425000000232,
            "durationTicks": 96,
            "midi": 57,
            "name": "A3",
            "ticks": 36672,
            "time": 32.7428435,
            "velocity": 0.3937007874015748
          },
          {
            "duration": 0.08571425000000232,
            "durationTicks": 96,
            "midi": 72,
            "name": "C5",
            "ticks": 36672,
            "time": 32.7428435,
            "velocity": 0.3937007874015748
          },
          {
            "duration": 0.08571425000000232,
            "durationTicks": 96,
            "midi": 69,
            "name": "A4",
            "ticks": 36672,
            "time": 32.7428435,
            "velocity": 0.3937007874015748
          },
          {
            "duration": 0.08571425000000232,
            "durationTicks": 96,
            "midi": 60,
            "name": "C4",
            "ticks": 36672,
            "time": 32.7428435,
            "velocity": 0.3937007874015748
          },
          {
            "duration": 0.08571424999999522,
            "durationTicks": 96,
            "midi": 46,
            "name": "A#2",
            "ticks": 36864,
            "time": 32.914272000000004,
            "velocity": 0.3937007874015748
          },
          {
            "duration": 0.08571424999999522,
            "durationTicks": 96,
            "midi": 58,
            "name": "A#3",
            "ticks": 36864,
            "time": 32.914272000000004,
            "velocity": 0.3937007874015748
          },
          {
            "duration": 0.08571425000000232,
            "durationTicks": 96,
            "midi": 53,
            "name": "F3",
            "ticks": 37056,
            "time": 33.0857005,
            "velocity": 0.3937007874015748
          },
          {
            "duration": 0.08571425000000232,
            "durationTicks": 96,
            "midi": 65,
            "name": "F4",
            "ticks": 37056,
            "time": 33.0857005,
            "velocity": 0.3937007874015748
          },
          {
            "duration": 0.08571425000000232,
            "durationTicks": 96,
            "midi": 50,
            "name": "D3",
            "ticks": 37056,
            "time": 33.0857005,
            "velocity": 0.3937007874015748
          },
          {
            "duration": 0.08571425000000232,
            "durationTicks": 96,
            "midi": 62,
            "name": "D4",
            "ticks": 37056,
            "time": 33.0857005,
            "velocity": 0.3937007874015748
          },
          {
            "duration": 0.08571424999999522,
            "durationTicks": 96,
            "midi": 65,
            "name": "F4",
            "ticks": 37440,
            "time": 33.428557500000004,
            "velocity": 0.3937007874015748
          },
          {
            "duration": 0.08571424999999522,
            "durationTicks": 96,
            "midi": 53,
            "name": "F3",
            "ticks": 37440,
            "time": 33.428557500000004,
            "velocity": 0.3937007874015748
          },
          {
            "duration": 0.08571424999999522,
            "durationTicks": 96,
            "midi": 62,
            "name": "D4",
            "ticks": 37440,
            "time": 33.428557500000004,
            "velocity": 0.3937007874015748
          },
          {
            "duration": 0.08571424999999522,
            "durationTicks": 96,
            "midi": 50,
            "name": "D3",
            "ticks": 37440,
            "time": 33.428557500000004,
            "velocity": 0.3937007874015748
          },
          {
            "duration": 0.08571425000000232,
            "durationTicks": 96,
            "midi": 48,
            "name": "C3",
            "ticks": 37632,
            "time": 33.599986,
            "velocity": 0.3937007874015748
          },
          {
            "duration": 0.08571425000000232,
            "durationTicks": 96,
            "midi": 60,
            "name": "C4",
            "ticks": 37632,
            "time": 33.599986,
            "velocity": 0.3937007874015748
          },
          {
            "duration": 0.08571425000000232,
            "durationTicks": 96,
            "midi": 52,
            "name": "E3",
            "ticks": 37824,
            "time": 33.7714145,
            "velocity": 0.3937007874015748
          },
          {
            "duration": 0.08571425000000232,
            "durationTicks": 96,
            "midi": 67,
            "name": "G4",
            "ticks": 37824,
            "time": 33.7714145,
            "velocity": 0.3937007874015748
          },
          {
            "duration": 0.08571425000000232,
            "durationTicks": 96,
            "midi": 55,
            "name": "G3",
            "ticks": 37824,
            "time": 33.7714145,
            "velocity": 0.3937007874015748
          },
          {
            "duration": 0.08571425000000232,
            "durationTicks": 96,
            "midi": 64,
            "name": "E4",
            "ticks": 37824,
            "time": 33.7714145,
            "velocity": 0.3937007874015748
          },
          {
            "duration": 0.08571425000000232,
            "durationTicks": 96,
            "midi": 64,
            "name": "E4",
            "ticks": 38208,
            "time": 34.1142715,
            "velocity": 0.3937007874015748
          },
          {
            "duration": 0.08571425000000232,
            "durationTicks": 96,
            "midi": 52,
            "name": "E3",
            "ticks": 38208,
            "time": 34.1142715,
            "velocity": 0.3937007874015748
          },
          {
            "duration": 0.08571425000000232,
            "durationTicks": 96,
            "midi": 55,
            "name": "G3",
            "ticks": 38208,
            "time": 34.1142715,
            "velocity": 0.3937007874015748
          },
          {
            "duration": 0.08571425000000232,
            "durationTicks": 96,
            "midi": 67,
            "name": "G4",
            "ticks": 38208,
            "time": 34.1142715,
            "velocity": 0.3937007874015748
          },
          {
            "duration": 0.08571424999999522,
            "durationTicks": 96,
            "midi": 62,
            "name": "D4",
            "ticks": 38400,
            "time": 34.285700000000006,
            "velocity": 0.3937007874015748
          },
          {
            "duration": 0.08571424999999522,
            "durationTicks": 96,
            "midi": 50,
            "name": "D3",
            "ticks": 38400,
            "time": 34.285700000000006,
            "velocity": 0.3937007874015748
          },
          {
            "duration": 0.08571425000000232,
            "durationTicks": 96,
            "midi": 53,
            "name": "F3",
            "ticks": 38592,
            "time": 34.4571285,
            "velocity": 0.3937007874015748
          },
          {
            "duration": 0.08571425000000232,
            "durationTicks": 96,
            "midi": 69,
            "name": "A4",
            "ticks": 38592,
            "time": 34.4571285,
            "velocity": 0.3937007874015748
          },
          {
            "duration": 0.08571425000000232,
            "durationTicks": 96,
            "midi": 57,
            "name": "A3",
            "ticks": 38592,
            "time": 34.4571285,
            "velocity": 0.3937007874015748
          },
          {
            "duration": 0.08571425000000232,
            "durationTicks": 96,
            "midi": 65,
            "name": "F4",
            "ticks": 38592,
            "time": 34.4571285,
            "velocity": 0.3937007874015748
          },
          {
            "duration": 0.08571424999999522,
            "durationTicks": 96,
            "midi": 65,
            "name": "F4",
            "ticks": 38976,
            "time": 34.799985500000005,
            "velocity": 0.3937007874015748
          },
          {
            "duration": 0.08571424999999522,
            "durationTicks": 96,
            "midi": 53,
            "name": "F3",
            "ticks": 38976,
            "time": 34.799985500000005,
            "velocity": 0.3937007874015748
          },
          {
            "duration": 0.08571424999999522,
            "durationTicks": 96,
            "midi": 69,
            "name": "A4",
            "ticks": 38976,
            "time": 34.799985500000005,
            "velocity": 0.3937007874015748
          },
          {
            "duration": 0.08571424999999522,
            "durationTicks": 96,
            "midi": 57,
            "name": "A3",
            "ticks": 38976,
            "time": 34.799985500000005,
            "velocity": 0.3937007874015748
          },
          {
            "duration": 0.08571425000000232,
            "durationTicks": 96,
            "midi": 50,
            "name": "D3",
            "ticks": 39168,
            "time": 34.971414,
            "velocity": 0.3937007874015748
          },
          {
            "duration": 0.08571425000000232,
            "durationTicks": 96,
            "midi": 62,
            "name": "D4",
            "ticks": 39168,
            "time": 34.971414,
            "velocity": 0.3937007874015748
          },
          {
            "duration": 0.08571425000000232,
            "durationTicks": 96,
            "midi": 69,
            "name": "A4",
            "ticks": 39360,
            "time": 35.1428425,
            "velocity": 0.3937007874015748
          },
          {
            "duration": 0.08571425000000232,
            "durationTicks": 96,
            "midi": 65,
            "name": "F4",
            "ticks": 39360,
            "time": 35.1428425,
            "velocity": 0.3937007874015748
          },
          {
            "duration": 0.08571425000000232,
            "durationTicks": 96,
            "midi": 53,
            "name": "F3",
            "ticks": 39360,
            "time": 35.1428425,
            "velocity": 0.3937007874015748
          },
          {
            "duration": 0.08571425000000232,
            "durationTicks": 96,
            "midi": 57,
            "name": "A3",
            "ticks": 39360,
            "time": 35.1428425,
            "velocity": 0.3937007874015748
          },
          {
            "duration": 0.08571425000000232,
            "durationTicks": 96,
            "midi": 57,
            "name": "A3",
            "ticks": 39744,
            "time": 35.4856995,
            "velocity": 0.3937007874015748
          },
          {
            "duration": 0.08571425000000232,
            "durationTicks": 96,
            "midi": 65,
            "name": "F4",
            "ticks": 39744,
            "time": 35.4856995,
            "velocity": 0.3937007874015748
          },
          {
            "duration": 0.08571425000000232,
            "durationTicks": 96,
            "midi": 53,
            "name": "F3",
            "ticks": 39744,
            "time": 35.4856995,
            "velocity": 0.3937007874015748
          },
          {
            "duration": 0.08571425000000232,
            "durationTicks": 96,
            "midi": 69,
            "name": "A4",
            "ticks": 39744,
            "time": 35.4856995,
            "velocity": 0.3937007874015748
          },
          {
            "duration": 0.08571425000000232,
            "durationTicks": 96,
            "midi": 58,
            "name": "A#3",
            "ticks": 39936,
            "time": 35.657128,
            "velocity": 0.3937007874015748
          },
          {
            "duration": 0.08571425000000232,
            "durationTicks": 96,
            "midi": 46,
            "name": "A#2",
            "ticks": 39936,
            "time": 35.657128,
            "velocity": 0.3937007874015748
          },
          {
            "duration": 0.08571424999999522,
            "durationTicks": 96,
            "midi": 53,
            "name": "F3",
            "ticks": 40128,
            "time": 35.828556500000005,
            "velocity": 0.3937007874015748
          },
          {
            "duration": 0.08571424999999522,
            "durationTicks": 96,
            "midi": 65,
            "name": "F4",
            "ticks": 40128,
            "time": 35.828556500000005,
            "velocity": 0.3937007874015748
          },
          {
            "duration": 0.08571424999999522,
            "durationTicks": 96,
            "midi": 50,
            "name": "D3",
            "ticks": 40128,
            "time": 35.828556500000005,
            "velocity": 0.3937007874015748
          },
          {
            "duration": 0.08571424999999522,
            "durationTicks": 96,
            "midi": 62,
            "name": "D4",
            "ticks": 40128,
            "time": 35.828556500000005,
            "velocity": 0.3937007874015748
          },
          {
            "duration": 0.08571425000000232,
            "durationTicks": 96,
            "midi": 62,
            "name": "D4",
            "ticks": 40512,
            "time": 36.1714135,
            "velocity": 0.3937007874015748
          },
          {
            "duration": 0.08571425000000232,
            "durationTicks": 96,
            "midi": 65,
            "name": "F4",
            "ticks": 40512,
            "time": 36.1714135,
            "velocity": 0.3937007874015748
          },
          {
            "duration": 0.08571425000000232,
            "durationTicks": 96,
            "midi": 53,
            "name": "F3",
            "ticks": 40512,
            "time": 36.1714135,
            "velocity": 0.3937007874015748
          },
          {
            "duration": 0.08571425000000232,
            "durationTicks": 96,
            "midi": 50,
            "name": "D3",
            "ticks": 40512,
            "time": 36.1714135,
            "velocity": 0.3937007874015748
          },
          {
            "duration": 0.08571424999999522,
            "durationTicks": 96,
            "midi": 60,
            "name": "C4",
            "ticks": 40704,
            "time": 36.342842000000005,
            "velocity": 0.3937007874015748
          },
          {
            "duration": 0.08571424999999522,
            "durationTicks": 96,
            "midi": 48,
            "name": "C3",
            "ticks": 40704,
            "time": 36.342842000000005,
            "velocity": 0.3937007874015748
          },
          {
            "duration": 0.08571425000000232,
            "durationTicks": 96,
            "midi": 52,
            "name": "E3",
            "ticks": 40896,
            "time": 36.5142705,
            "velocity": 0.3937007874015748
          },
          {
            "duration": 0.08571425000000232,
            "durationTicks": 96,
            "midi": 55,
            "name": "G3",
            "ticks": 40896,
            "time": 36.5142705,
            "velocity": 0.3937007874015748
          },
          {
            "duration": 0.08571425000000232,
            "durationTicks": 96,
            "midi": 67,
            "name": "G4",
            "ticks": 40896,
            "time": 36.5142705,
            "velocity": 0.3937007874015748
          },
          {
            "duration": 0.08571425000000232,
            "durationTicks": 96,
            "midi": 64,
            "name": "E4",
            "ticks": 40896,
            "time": 36.5142705,
            "velocity": 0.3937007874015748
          },
          {
            "duration": 0.08571424999999522,
            "durationTicks": 96,
            "midi": 52,
            "name": "E3",
            "ticks": 41280,
            "time": 36.857127500000004,
            "velocity": 0.3937007874015748
          },
          {
            "duration": 0.08571424999999522,
            "durationTicks": 96,
            "midi": 55,
            "name": "G3",
            "ticks": 41280,
            "time": 36.857127500000004,
            "velocity": 0.3937007874015748
          },
          {
            "duration": 0.08571424999999522,
            "durationTicks": 96,
            "midi": 67,
            "name": "G4",
            "ticks": 41280,
            "time": 36.857127500000004,
            "velocity": 0.3937007874015748
          },
          {
            "duration": 0.08571424999999522,
            "durationTicks": 96,
            "midi": 64,
            "name": "E4",
            "ticks": 41280,
            "time": 36.857127500000004,
            "velocity": 0.3937007874015748
          },
          {
            "duration": 0.08571425000000232,
            "durationTicks": 96,
            "midi": 50,
            "name": "D3",
            "ticks": 41472,
            "time": 37.028556,
            "velocity": 0.3937007874015748
          },
          {
            "duration": 0.08571425000000232,
            "durationTicks": 96,
            "midi": 62,
            "name": "D4",
            "ticks": 41472,
            "time": 37.028556,
            "velocity": 0.3937007874015748
          },
          {
            "duration": 0.08571425000000232,
            "durationTicks": 96,
            "midi": 65,
            "name": "F4",
            "ticks": 41664,
            "time": 37.1999845,
            "velocity": 0.3937007874015748
          },
          {
            "duration": 0.08571425000000232,
            "durationTicks": 96,
            "midi": 57,
            "name": "A3",
            "ticks": 41664,
            "time": 37.1999845,
            "velocity": 0.3937007874015748
          },
          {
            "duration": 0.08571425000000232,
            "durationTicks": 96,
            "midi": 53,
            "name": "F3",
            "ticks": 41664,
            "time": 37.1999845,
            "velocity": 0.3937007874015748
          },
          {
            "duration": 0.08571425000000232,
            "durationTicks": 96,
            "midi": 69,
            "name": "A4",
            "ticks": 41664,
            "time": 37.1999845,
            "velocity": 0.3937007874015748
          },
          {
            "duration": 0.08571424999999522,
            "durationTicks": 96,
            "midi": 62,
            "name": "D4",
            "ticks": 41856,
            "time": 37.371413000000004,
            "velocity": 0.3937007874015748
          },
          {
            "duration": 0.08571424999999522,
            "durationTicks": 96,
            "midi": 50,
            "name": "D3",
            "ticks": 41856,
            "time": 37.371413000000004,
            "velocity": 0.3937007874015748
          },
          {
            "duration": 0.08571425000000232,
            "durationTicks": 96,
            "midi": 55,
            "name": "G3",
            "ticks": 42048,
            "time": 37.5428415,
            "velocity": 0.3937007874015748
          },
          {
            "duration": 0.08571425000000232,
            "durationTicks": 96,
            "midi": 60,
            "name": "C4",
            "ticks": 42048,
            "time": 37.5428415,
            "velocity": 0.3937007874015748
          },
          {
            "duration": 0.08571425000000232,
            "durationTicks": 96,
            "midi": 67,
            "name": "G4",
            "ticks": 42048,
            "time": 37.5428415,
            "velocity": 0.3937007874015748
          },
          {
            "duration": 0.08571425000000232,
            "durationTicks": 96,
            "midi": 72,
            "name": "C5",
            "ticks": 42048,
            "time": 37.5428415,
            "velocity": 0.3937007874015748
          },
          {
            "duration": 0.08571425000000232,
            "durationTicks": 96,
            "midi": 50,
            "name": "D3",
            "ticks": 42240,
            "time": 37.71427,
            "velocity": 0.3937007874015748
          },
          {
            "duration": 0.08571425000000232,
            "durationTicks": 96,
            "midi": 62,
            "name": "D4",
            "ticks": 42240,
            "time": 37.71427,
            "velocity": 0.3937007874015748
          },
          {
            "duration": 0.08571425000000232,
            "durationTicks": 96,
            "midi": 57,
            "name": "A3",
            "ticks": 42432,
            "time": 37.885698500000004,
            "velocity": 0.3937007874015748
          },
          {
            "duration": 0.08571425000000232,
            "durationTicks": 96,
            "midi": 69,
            "name": "A4",
            "ticks": 42432,
            "time": 37.885698500000004,
            "velocity": 0.3937007874015748
          },
          {
            "duration": 0.08571425000000232,
            "durationTicks": 96,
            "midi": 74,
            "name": "D5",
            "ticks": 42432,
            "time": 37.885698500000004,
            "velocity": 0.3937007874015748
          },
          {
            "duration": 0.08571425000000232,
            "durationTicks": 96,
            "midi": 62,
            "name": "D4",
            "ticks": 42432,
            "time": 37.885698500000004,
            "velocity": 0.3937007874015748
          },
          {
            "duration": 0.08571425000000232,
            "durationTicks": 96,
            "midi": 50,
            "name": "D3",
            "ticks": 42624,
            "time": 38.057127,
            "velocity": 0.3937007874015748
          },
          {
            "duration": 0.08571425000000232,
            "durationTicks": 96,
            "midi": 62,
            "name": "D4",
            "ticks": 42624,
            "time": 38.057127,
            "velocity": 0.3937007874015748
          },
          {
            "duration": 0.08571424999999522,
            "durationTicks": 96,
            "midi": 69,
            "name": "A4",
            "ticks": 42816,
            "time": 38.228555500000006,
            "velocity": 0.3937007874015748
          },
          {
            "duration": 0.08571424999999522,
            "durationTicks": 96,
            "midi": 57,
            "name": "A3",
            "ticks": 42816,
            "time": 38.228555500000006,
            "velocity": 0.3937007874015748
          },
          {
            "duration": 0.08571424999999522,
            "durationTicks": 96,
            "midi": 53,
            "name": "F3",
            "ticks": 42816,
            "time": 38.228555500000006,
            "velocity": 0.3937007874015748
          },
          {
            "duration": 0.08571424999999522,
            "durationTicks": 96,
            "midi": 65,
            "name": "F4",
            "ticks": 42816,
            "time": 38.228555500000006,
            "velocity": 0.3937007874015748
          },
          {
            "duration": 0.08571425000000232,
            "durationTicks": 96,
            "midi": 46,
            "name": "A#2",
            "ticks": 43008,
            "time": 38.399984,
            "velocity": 0.3937007874015748
          },
          {
            "duration": 0.08571425000000232,
            "durationTicks": 96,
            "midi": 58,
            "name": "A#3",
            "ticks": 43008,
            "time": 38.399984,
            "velocity": 0.3937007874015748
          },
          {
            "duration": 0.08571425000000232,
            "durationTicks": 96,
            "midi": 53,
            "name": "F3",
            "ticks": 43200,
            "time": 38.5714125,
            "velocity": 0.3937007874015748
          },
          {
            "duration": 0.08571425000000232,
            "durationTicks": 96,
            "midi": 50,
            "name": "D3",
            "ticks": 43200,
            "time": 38.5714125,
            "velocity": 0.3937007874015748
          },
          {
            "duration": 0.08571425000000232,
            "durationTicks": 96,
            "midi": 62,
            "name": "D4",
            "ticks": 43200,
            "time": 38.5714125,
            "velocity": 0.3937007874015748
          },
          {
            "duration": 0.08571425000000232,
            "durationTicks": 96,
            "midi": 65,
            "name": "F4",
            "ticks": 43200,
            "time": 38.5714125,
            "velocity": 0.3937007874015748
          },
          {
            "duration": 0.08571425000000232,
            "durationTicks": 96,
            "midi": 50,
            "name": "D3",
            "ticks": 43584,
            "time": 38.9142695,
            "velocity": 0.3937007874015748
          },
          {
            "duration": 0.08571425000000232,
            "durationTicks": 96,
            "midi": 62,
            "name": "D4",
            "ticks": 43584,
            "time": 38.9142695,
            "velocity": 0.3937007874015748
          },
          {
            "duration": 0.08571425000000232,
            "durationTicks": 96,
            "midi": 65,
            "name": "F4",
            "ticks": 43584,
            "time": 38.9142695,
            "velocity": 0.3937007874015748
          },
          {
            "duration": 0.08571425000000232,
            "durationTicks": 96,
            "midi": 53,
            "name": "F3",
            "ticks": 43584,
            "time": 38.9142695,
            "velocity": 0.3937007874015748
          },
          {
            "duration": 0.08571425000000232,
            "durationTicks": 96,
            "midi": 60,
            "name": "C4",
            "ticks": 43776,
            "time": 39.085698,
            "velocity": 0.3937007874015748
          },
          {
            "duration": 0.08571425000000232,
            "durationTicks": 96,
            "midi": 48,
            "name": "C3",
            "ticks": 43776,
            "time": 39.085698,
            "velocity": 0.3937007874015748
          },
          {
            "duration": 0.08571424999999522,
            "durationTicks": 96,
            "midi": 55,
            "name": "G3",
            "ticks": 43968,
            "time": 39.257126500000005,
            "velocity": 0.3937007874015748
          },
          {
            "duration": 0.08571424999999522,
            "durationTicks": 96,
            "midi": 64,
            "name": "E4",
            "ticks": 43968,
            "time": 39.257126500000005,
            "velocity": 0.3937007874015748
          },
          {
            "duration": 0.08571424999999522,
            "durationTicks": 96,
            "midi": 67,
            "name": "G4",
            "ticks": 43968,
            "time": 39.257126500000005,
            "velocity": 0.3937007874015748
          },
          {
            "duration": 0.08571424999999522,
            "durationTicks": 96,
            "midi": 52,
            "name": "E3",
            "ticks": 43968,
            "time": 39.257126500000005,
            "velocity": 0.3937007874015748
          },
          {
            "duration": 0.08571425000000232,
            "durationTicks": 96,
            "midi": 67,
            "name": "G4",
            "ticks": 44352,
            "time": 39.5999835,
            "velocity": 0.3937007874015748
          },
          {
            "duration": 0.08571425000000232,
            "durationTicks": 96,
            "midi": 55,
            "name": "G3",
            "ticks": 44352,
            "time": 39.5999835,
            "velocity": 0.3937007874015748
          },
          {
            "duration": 0.08571425000000232,
            "durationTicks": 96,
            "midi": 52,
            "name": "E3",
            "ticks": 44352,
            "time": 39.5999835,
            "velocity": 0.3937007874015748
          },
          {
            "duration": 0.08571425000000232,
            "durationTicks": 96,
            "midi": 64,
            "name": "E4",
            "ticks": 44352,
            "time": 39.5999835,
            "velocity": 0.3937007874015748
          },
          {
            "duration": 0.08571424999999522,
            "durationTicks": 96,
            "midi": 62,
            "name": "D4",
            "ticks": 44544,
            "time": 39.771412000000005,
            "velocity": 0.3937007874015748
          },
          {
            "duration": 0.08571424999999522,
            "durationTicks": 96,
            "midi": 50,
            "name": "D3",
            "ticks": 44544,
            "time": 39.771412000000005,
            "velocity": 0.3937007874015748
          },
          {
            "duration": 0.08571425000000232,
            "durationTicks": 96,
            "midi": 65,
            "name": "F4",
            "ticks": 44736,
            "time": 39.9428405,
            "velocity": 0.3937007874015748
          },
          {
            "duration": 0.08571425000000232,
            "durationTicks": 96,
            "midi": 53,
            "name": "F3",
            "ticks": 44736,
            "time": 39.9428405,
            "velocity": 0.3937007874015748
          },
          {
            "duration": 0.08571425000000232,
            "durationTicks": 96,
            "midi": 69,
            "name": "A4",
            "ticks": 44736,
            "time": 39.9428405,
            "velocity": 0.3937007874015748
          },
          {
            "duration": 0.08571425000000232,
            "durationTicks": 96,
            "midi": 57,
            "name": "A3",
            "ticks": 44736,
            "time": 39.9428405,
            "velocity": 0.3937007874015748
          },
          {
            "duration": 0.08571424999999522,
            "durationTicks": 96,
            "midi": 69,
            "name": "A4",
            "ticks": 45120,
            "time": 40.285697500000005,
            "velocity": 0.3937007874015748
          },
          {
            "duration": 0.08571424999999522,
            "durationTicks": 96,
            "midi": 57,
            "name": "A3",
            "ticks": 45120,
            "time": 40.285697500000005,
            "velocity": 0.3937007874015748
          },
          {
            "duration": 0.08571424999999522,
            "durationTicks": 96,
            "midi": 65,
            "name": "F4",
            "ticks": 45120,
            "time": 40.285697500000005,
            "velocity": 0.3937007874015748
          },
          {
            "duration": 0.08571424999999522,
            "durationTicks": 96,
            "midi": 53,
            "name": "F3",
            "ticks": 45120,
            "time": 40.285697500000005,
            "velocity": 0.3937007874015748
          },
          {
            "duration": 0.08571425000000232,
            "durationTicks": 96,
            "midi": 50,
            "name": "D3",
            "ticks": 45312,
            "time": 40.457126,
            "velocity": 0.3937007874015748
          },
          {
            "duration": 0.08571425000000232,
            "durationTicks": 96,
            "midi": 62,
            "name": "D4",
            "ticks": 45312,
            "time": 40.457126,
            "velocity": 0.3937007874015748
          },
          {
            "duration": 0.08571425000000232,
            "durationTicks": 96,
            "midi": 57,
            "name": "A3",
            "ticks": 45504,
            "time": 40.6285545,
            "velocity": 0.3937007874015748
          },
          {
            "duration": 0.08571425000000232,
            "durationTicks": 96,
            "midi": 69,
            "name": "A4",
            "ticks": 45504,
            "time": 40.6285545,
            "velocity": 0.3937007874015748
          },
          {
            "duration": 0.08571425000000232,
            "durationTicks": 96,
            "midi": 53,
            "name": "F3",
            "ticks": 45504,
            "time": 40.6285545,
            "velocity": 0.3937007874015748
          },
          {
            "duration": 0.08571425000000232,
            "durationTicks": 96,
            "midi": 65,
            "name": "F4",
            "ticks": 45504,
            "time": 40.6285545,
            "velocity": 0.3937007874015748
          },
          {
            "duration": 0.08571425000000232,
            "durationTicks": 96,
            "midi": 57,
            "name": "A3",
            "ticks": 45888,
            "time": 40.9714115,
            "velocity": 0.3937007874015748
          },
          {
            "duration": 0.08571425000000232,
            "durationTicks": 96,
            "midi": 69,
            "name": "A4",
            "ticks": 45888,
            "time": 40.9714115,
            "velocity": 0.3937007874015748
          },
          {
            "duration": 0.08571425000000232,
            "durationTicks": 96,
            "midi": 65,
            "name": "F4",
            "ticks": 45888,
            "time": 40.9714115,
            "velocity": 0.3937007874015748
          },
          {
            "duration": 0.08571425000000232,
            "durationTicks": 96,
            "midi": 53,
            "name": "F3",
            "ticks": 45888,
            "time": 40.9714115,
            "velocity": 0.3937007874015748
          },
          {
            "duration": 0.08571425000000232,
            "durationTicks": 96,
            "midi": 46,
            "name": "A#2",
            "ticks": 46080,
            "time": 41.14284,
            "velocity": 0.3937007874015748
          },
          {
            "duration": 0.08571425000000232,
            "durationTicks": 96,
            "midi": 58,
            "name": "A#3",
            "ticks": 46080,
            "time": 41.14284,
            "velocity": 0.3937007874015748
          },
          {
            "duration": 0.08571424999999522,
            "durationTicks": 96,
            "midi": 50,
            "name": "D3",
            "ticks": 46272,
            "time": 41.314268500000004,
            "velocity": 0.3937007874015748
          },
          {
            "duration": 0.08571424999999522,
            "durationTicks": 96,
            "midi": 62,
            "name": "D4",
            "ticks": 46272,
            "time": 41.314268500000004,
            "velocity": 0.3937007874015748
          },
          {
            "duration": 0.08571424999999522,
            "durationTicks": 96,
            "midi": 55,
            "name": "G3",
            "ticks": 46272,
            "time": 41.314268500000004,
            "velocity": 0.3937007874015748
          },
          {
            "duration": 0.08571424999999522,
            "durationTicks": 96,
            "midi": 67,
            "name": "G4",
            "ticks": 46272,
            "time": 41.314268500000004,
            "velocity": 0.3937007874015748
          },
          {
            "duration": 0.08571425000000232,
            "durationTicks": 96,
            "midi": 50,
            "name": "D3",
            "ticks": 46656,
            "time": 41.6571255,
            "velocity": 0.3937007874015748
          },
          {
            "duration": 0.08571425000000232,
            "durationTicks": 96,
            "midi": 67,
            "name": "G4",
            "ticks": 46656,
            "time": 41.6571255,
            "velocity": 0.3937007874015748
          },
          {
            "duration": 0.08571425000000232,
            "durationTicks": 96,
            "midi": 62,
            "name": "D4",
            "ticks": 46656,
            "time": 41.6571255,
            "velocity": 0.3937007874015748
          },
          {
            "duration": 0.08571425000000232,
            "durationTicks": 96,
            "midi": 55,
            "name": "G3",
            "ticks": 46656,
            "time": 41.6571255,
            "velocity": 0.3937007874015748
          },
          {
            "duration": 0.08571425000000232,
            "durationTicks": 96,
            "midi": 65,
            "name": "F4",
            "ticks": 46848,
            "time": 41.828554000000004,
            "velocity": 0.3937007874015748
          },
          {
            "duration": 0.08571425000000232,
            "durationTicks": 96,
            "midi": 57,
            "name": "A3",
            "ticks": 46848,
            "time": 41.828554000000004,
            "velocity": 0.3937007874015748
          },
          {
            "duration": 0.08571425000000232,
            "durationTicks": 96,
            "midi": 53,
            "name": "F3",
            "ticks": 46848,
            "time": 41.828554000000004,
            "velocity": 0.3937007874015748
          },
          {
            "duration": 0.08571425000000232,
            "durationTicks": 96,
            "midi": 69,
            "name": "A4",
            "ticks": 46848,
            "time": 41.828554000000004,
            "velocity": 0.3937007874015748
          },
          {
            "duration": 0.08571425000000232,
            "durationTicks": 96,
            "midi": 52,
            "name": "E3",
            "ticks": 47040,
            "time": 41.9999825,
            "velocity": 0.3937007874015748
          },
          {
            "duration": 0.08571425000000232,
            "durationTicks": 96,
            "midi": 67,
            "name": "G4",
            "ticks": 47040,
            "time": 41.9999825,
            "velocity": 0.3937007874015748
          },
          {
            "duration": 0.08571425000000232,
            "durationTicks": 96,
            "midi": 55,
            "name": "G3",
            "ticks": 47040,
            "time": 41.9999825,
            "velocity": 0.3937007874015748
          },
          {
            "duration": 0.08571425000000232,
            "durationTicks": 96,
            "midi": 64,
            "name": "E4",
            "ticks": 47040,
            "time": 41.9999825,
            "velocity": 0.3937007874015748
          },
          {
            "duration": 0.08571424999999522,
            "durationTicks": 96,
            "midi": 65,
            "name": "F4",
            "ticks": 47232,
            "time": 42.171411000000006,
            "velocity": 0.3937007874015748
          },
          {
            "duration": 0.08571424999999522,
            "durationTicks": 96,
            "midi": 50,
            "name": "D3",
            "ticks": 47232,
            "time": 42.171411000000006,
            "velocity": 0.3937007874015748
          },
          {
            "duration": 0.08571424999999522,
            "durationTicks": 96,
            "midi": 53,
            "name": "F3",
            "ticks": 47232,
            "time": 42.171411000000006,
            "velocity": 0.3937007874015748
          },
          {
            "duration": 0.08571424999999522,
            "durationTicks": 96,
            "midi": 62,
            "name": "D4",
            "ticks": 47232,
            "time": 42.171411000000006,
            "velocity": 0.3937007874015748
          },
          {
            "duration": 0.08571425000000232,
            "durationTicks": 96,
            "midi": 60,
            "name": "C4",
            "ticks": 47424,
            "time": 42.342839500000004,
            "velocity": 0.3937007874015748
          },
          {
            "duration": 0.08571425000000232,
            "durationTicks": 96,
            "midi": 48,
            "name": "C3",
            "ticks": 47424,
            "time": 42.342839500000004,
            "velocity": 0.3937007874015748
          },
          {
            "duration": 0.08571425000000232,
            "durationTicks": 96,
            "midi": 52,
            "name": "E3",
            "ticks": 47424,
            "time": 42.342839500000004,
            "velocity": 0.3937007874015748
          },
          {
            "duration": 0.08571425000000232,
            "durationTicks": 96,
            "midi": 64,
            "name": "E4",
            "ticks": 47424,
            "time": 42.342839500000004,
            "velocity": 0.3937007874015748
          },
          {
            "duration": 0.08571425000000232,
            "durationTicks": 96,
            "midi": 62,
            "name": "D4",
            "ticks": 47616,
            "time": 42.514268,
            "velocity": 0.3937007874015748
          },
          {
            "duration": 0.08571425000000232,
            "durationTicks": 96,
            "midi": 57,
            "name": "A3",
            "ticks": 47616,
            "time": 42.514268,
            "velocity": 0.3937007874015748
          },
          {
            "duration": 0.08571425000000232,
            "durationTicks": 96,
            "midi": 50,
            "name": "D3",
            "ticks": 47616,
            "time": 42.514268,
            "velocity": 0.3937007874015748
          },
          {
            "duration": 0.08571425000000232,
            "durationTicks": 96,
            "midi": 45,
            "name": "A2",
            "ticks": 47616,
            "time": 42.514268,
            "velocity": 0.3937007874015748
          },
          {
            "duration": 0.08571424999999522,
            "durationTicks": 96,
            "midi": 38,
            "name": "D2",
            "ticks": 47808,
            "time": 42.685696500000006,
            "velocity": 0.3937007874015748
          },
          {
            "duration": 0.08571424999999522,
            "durationTicks": 96,
            "midi": 50,
            "name": "D3",
            "ticks": 47808,
            "time": 42.685696500000006,
            "velocity": 0.3937007874015748
          },
          {
            "duration": 0.08571425000000232,
            "durationTicks": 96,
            "midi": 50,
            "name": "D3",
            "ticks": 48000,
            "time": 42.857125,
            "velocity": 0.3937007874015748
          },
          {
            "duration": 0.08571425000000232,
            "durationTicks": 96,
            "midi": 57,
            "name": "A3",
            "ticks": 48000,
            "time": 42.857125,
            "velocity": 0.3937007874015748
          },
          {
            "duration": 0.08571425000000232,
            "durationTicks": 96,
            "midi": 45,
            "name": "A2",
            "ticks": 48000,
            "time": 42.857125,
            "velocity": 0.3937007874015748
          },
          {
            "duration": 0.08571425000000232,
            "durationTicks": 96,
            "midi": 62,
            "name": "D4",
            "ticks": 48000,
            "time": 42.857125,
            "velocity": 0.3937007874015748
          },
          {
            "duration": 0.08571425000000232,
            "durationTicks": 96,
            "midi": 50,
            "name": "D3",
            "ticks": 48192,
            "time": 43.0285535,
            "velocity": 0.3937007874015748
          },
          {
            "duration": 0.08571425000000232,
            "durationTicks": 96,
            "midi": 38,
            "name": "D2",
            "ticks": 48192,
            "time": 43.0285535,
            "velocity": 0.3937007874015748
          },
          {
            "duration": 0.08571424999999522,
            "durationTicks": 96,
            "midi": 45,
            "name": "A2",
            "ticks": 48384,
            "time": 43.199982000000006,
            "velocity": 0.3937007874015748
          },
          {
            "duration": 0.08571424999999522,
            "durationTicks": 96,
            "midi": 62,
            "name": "D4",
            "ticks": 48384,
            "time": 43.199982000000006,
            "velocity": 0.3937007874015748
          },
          {
            "duration": 0.08571424999999522,
            "durationTicks": 96,
            "midi": 57,
            "name": "A3",
            "ticks": 48384,
            "time": 43.199982000000006,
            "velocity": 0.3937007874015748
          },
          {
            "duration": 0.08571424999999522,
            "durationTicks": 96,
            "midi": 50,
            "name": "D3",
            "ticks": 48384,
            "time": 43.199982000000006,
            "velocity": 0.3937007874015748
          },
          {
            "duration": 0.08571425000000232,
            "durationTicks": 96,
            "midi": 57,
            "name": "A3",
            "ticks": 48576,
            "time": 43.3714105,
            "velocity": 0.3937007874015748
          },
          {
            "duration": 0.08571425000000232,
            "durationTicks": 96,
            "midi": 62,
            "name": "D4",
            "ticks": 48576,
            "time": 43.3714105,
            "velocity": 0.3937007874015748
          },
          {
            "duration": 0.08571425000000232,
            "durationTicks": 96,
            "midi": 50,
            "name": "D3",
            "ticks": 48576,
            "time": 43.3714105,
            "velocity": 0.3937007874015748
          },
          {
            "duration": 0.08571425000000232,
            "durationTicks": 96,
            "midi": 45,
            "name": "A2",
            "ticks": 48576,
            "time": 43.3714105,
            "velocity": 0.3937007874015748
          },
          {
            "duration": 0.08571425000000232,
            "durationTicks": 96,
            "midi": 50,
            "name": "D3",
            "ticks": 48768,
            "time": 43.542839,
            "velocity": 0.3937007874015748
          },
          {
            "duration": 0.08571425000000232,
            "durationTicks": 96,
            "midi": 57,
            "name": "A3",
            "ticks": 48768,
            "time": 43.542839,
            "velocity": 0.3937007874015748
          },
          {
            "duration": 0.08571425000000232,
            "durationTicks": 96,
            "midi": 62,
            "name": "D4",
            "ticks": 48768,
            "time": 43.542839,
            "velocity": 0.3937007874015748
          },
          {
            "duration": 0.08571425000000232,
            "durationTicks": 96,
            "midi": 45,
            "name": "A2",
            "ticks": 48768,
            "time": 43.542839,
            "velocity": 0.3937007874015748
          },
          {
            "duration": 0.08571424999999522,
            "durationTicks": 96,
            "midi": 50,
            "name": "D3",
            "ticks": 48960,
            "time": 43.714267500000005,
            "velocity": 0.3937007874015748
          },
          {
            "duration": 0.08571424999999522,
            "durationTicks": 96,
            "midi": 57,
            "name": "A3",
            "ticks": 48960,
            "time": 43.714267500000005,
            "velocity": 0.3937007874015748
          },
          {
            "duration": 0.08571424999999522,
            "durationTicks": 96,
            "midi": 62,
            "name": "D4",
            "ticks": 48960,
            "time": 43.714267500000005,
            "velocity": 0.3937007874015748
          },
          {
            "duration": 0.08571424999999522,
            "durationTicks": 96,
            "midi": 45,
            "name": "A2",
            "ticks": 48960,
            "time": 43.714267500000005,
            "velocity": 0.3937007874015748
          },
          {
            "duration": 0.08571425000000232,
            "durationTicks": 96,
            "midi": 45,
            "name": "A2",
            "ticks": 49152,
            "time": 43.885696,
            "velocity": 0.3937007874015748
          },
          {
            "duration": 0.08571425000000232,
            "durationTicks": 96,
            "midi": 33,
            "name": "A1",
            "ticks": 49152,
            "time": 43.885696,
            "velocity": 0.3937007874015748
          },
          {
            "duration": 0.08571425000000232,
            "durationTicks": 96,
            "midi": 53,
            "name": "F3",
            "ticks": 49344,
            "time": 44.0571245,
            "velocity": 0.3937007874015748
          },
          {
            "duration": 0.08571425000000232,
            "durationTicks": 96,
            "midi": 38,
            "name": "D2",
            "ticks": 49344,
            "time": 44.0571245,
            "velocity": 0.3937007874015748
          },
          {
            "duration": 0.08571425000000232,
            "durationTicks": 96,
            "midi": 50,
            "name": "D3",
            "ticks": 49344,
            "time": 44.0571245,
            "velocity": 0.3937007874015748
          },
          {
            "duration": 0.08571425000000232,
            "durationTicks": 96,
            "midi": 41,
            "name": "F2",
            "ticks": 49344,
            "time": 44.0571245,
            "velocity": 0.3937007874015748
          },
          {
            "duration": 0.08571425000000232,
            "durationTicks": 96,
            "midi": 53,
            "name": "F3",
            "ticks": 49728,
            "time": 44.3999815,
            "velocity": 0.3937007874015748
          },
          {
            "duration": 0.08571425000000232,
            "durationTicks": 96,
            "midi": 38,
            "name": "D2",
            "ticks": 49728,
            "time": 44.3999815,
            "velocity": 0.3937007874015748
          },
          {
            "duration": 0.08571425000000232,
            "durationTicks": 96,
            "midi": 41,
            "name": "F2",
            "ticks": 49728,
            "time": 44.3999815,
            "velocity": 0.3937007874015748
          },
          {
            "duration": 0.08571425000000232,
            "durationTicks": 96,
            "midi": 50,
            "name": "D3",
            "ticks": 49728,
            "time": 44.3999815,
            "velocity": 0.3937007874015748
          },
          {
            "duration": 0.08571425000000232,
            "durationTicks": 96,
            "midi": 36,
            "name": "C2",
            "ticks": 49920,
            "time": 44.57141,
            "velocity": 0.3937007874015748
          },
          {
            "duration": 0.08571425000000232,
            "durationTicks": 96,
            "midi": 48,
            "name": "C3",
            "ticks": 49920,
            "time": 44.57141,
            "velocity": 0.3937007874015748
          },
          {
            "duration": 0.08571424999999522,
            "durationTicks": 96,
            "midi": 40,
            "name": "E2",
            "ticks": 50112,
            "time": 44.742838500000005,
            "velocity": 0.3937007874015748
          },
          {
            "duration": 0.08571424999999522,
            "durationTicks": 96,
            "midi": 43,
            "name": "G2",
            "ticks": 50112,
            "time": 44.742838500000005,
            "velocity": 0.3937007874015748
          },
          {
            "duration": 0.08571424999999522,
            "durationTicks": 96,
            "midi": 52,
            "name": "E3",
            "ticks": 50112,
            "time": 44.742838500000005,
            "velocity": 0.3937007874015748
          },
          {
            "duration": 0.08571424999999522,
            "durationTicks": 96,
            "midi": 55,
            "name": "G3",
            "ticks": 50112,
            "time": 44.742838500000005,
            "velocity": 0.3937007874015748
          },
          {
            "duration": 0.08571425000000232,
            "durationTicks": 96,
            "midi": 55,
            "name": "G3",
            "ticks": 50496,
            "time": 45.0856955,
            "velocity": 0.3937007874015748
          },
          {
            "duration": 0.08571425000000232,
            "durationTicks": 96,
            "midi": 52,
            "name": "E3",
            "ticks": 50496,
            "time": 45.0856955,
            "velocity": 0.3937007874015748
          },
          {
            "duration": 0.08571425000000232,
            "durationTicks": 96,
            "midi": 40,
            "name": "E2",
            "ticks": 50496,
            "time": 45.0856955,
            "velocity": 0.3937007874015748
          },
          {
            "duration": 0.08571425000000232,
            "durationTicks": 96,
            "midi": 43,
            "name": "G2",
            "ticks": 50496,
            "time": 45.0856955,
            "velocity": 0.3937007874015748
          },
          {
            "duration": 0.08571424999999522,
            "durationTicks": 96,
            "midi": 50,
            "name": "D3",
            "ticks": 50688,
            "time": 45.257124000000005,
            "velocity": 0.3937007874015748
          },
          {
            "duration": 0.08571424999999522,
            "durationTicks": 96,
            "midi": 38,
            "name": "D2",
            "ticks": 50688,
            "time": 45.257124000000005,
            "velocity": 0.3937007874015748
          },
          {
            "duration": 0.08571425000000232,
            "durationTicks": 96,
            "midi": 53,
            "name": "F3",
            "ticks": 50880,
            "time": 45.4285525,
            "velocity": 0.3937007874015748
          },
          {
            "duration": 0.08571425000000232,
            "durationTicks": 96,
            "midi": 41,
            "name": "F2",
            "ticks": 50880,
            "time": 45.4285525,
            "velocity": 0.3937007874015748
          },
          {
            "duration": 0.08571425000000232,
            "durationTicks": 96,
            "midi": 57,
            "name": "A3",
            "ticks": 50880,
            "time": 45.4285525,
            "velocity": 0.3937007874015748
          },
          {
            "duration": 0.08571425000000232,
            "durationTicks": 96,
            "midi": 45,
            "name": "A2",
            "ticks": 50880,
            "time": 45.4285525,
            "velocity": 0.3937007874015748
          },
          {
            "duration": 0.08571424999999522,
            "durationTicks": 96,
            "midi": 41,
            "name": "F2",
            "ticks": 51264,
            "time": 45.771409500000004,
            "velocity": 0.3937007874015748
          },
          {
            "duration": 0.08571424999999522,
            "durationTicks": 96,
            "midi": 45,
            "name": "A2",
            "ticks": 51264,
            "time": 45.771409500000004,
            "velocity": 0.3937007874015748
          },
          {
            "duration": 0.08571424999999522,
            "durationTicks": 96,
            "midi": 53,
            "name": "F3",
            "ticks": 51264,
            "time": 45.771409500000004,
            "velocity": 0.3937007874015748
          },
          {
            "duration": 0.08571424999999522,
            "durationTicks": 96,
            "midi": 57,
            "name": "A3",
            "ticks": 51264,
            "time": 45.771409500000004,
            "velocity": 0.3937007874015748
          },
          {
            "duration": 0.08571425000000232,
            "durationTicks": 96,
            "midi": 38,
            "name": "D2",
            "ticks": 51456,
            "time": 45.942838,
            "velocity": 0.3937007874015748
          },
          {
            "duration": 0.08571425000000232,
            "durationTicks": 96,
            "midi": 50,
            "name": "D3",
            "ticks": 51456,
            "time": 45.942838,
            "velocity": 0.3937007874015748
          },
          {
            "duration": 0.08571424999999522,
            "durationTicks": 96,
            "midi": 41,
            "name": "F2",
            "ticks": 51648,
            "time": 46.11426650000001,
            "velocity": 0.3937007874015748
          },
          {
            "duration": 0.08571424999999522,
            "durationTicks": 96,
            "midi": 57,
            "name": "A3",
            "ticks": 51648,
            "time": 46.11426650000001,
            "velocity": 0.3937007874015748
          },
          {
            "duration": 0.08571424999999522,
            "durationTicks": 96,
            "midi": 53,
            "name": "F3",
            "ticks": 51648,
            "time": 46.11426650000001,
            "velocity": 0.3937007874015748
          },
          {
            "duration": 0.08571424999999522,
            "durationTicks": 96,
            "midi": 45,
            "name": "A2",
            "ticks": 51648,
            "time": 46.11426650000001,
            "velocity": 0.3937007874015748
          },
          {
            "duration": 0.08571425000000232,
            "durationTicks": 96,
            "midi": 41,
            "name": "F2",
            "ticks": 52032,
            "time": 46.4571235,
            "velocity": 0.3937007874015748
          },
          {
            "duration": 0.08571425000000232,
            "durationTicks": 96,
            "midi": 57,
            "name": "A3",
            "ticks": 52032,
            "time": 46.4571235,
            "velocity": 0.3937007874015748
          },
          {
            "duration": 0.08571425000000232,
            "durationTicks": 96,
            "midi": 53,
            "name": "F3",
            "ticks": 52032,
            "time": 46.4571235,
            "velocity": 0.3937007874015748
          },
          {
            "duration": 0.08571425000000232,
            "durationTicks": 96,
            "midi": 45,
            "name": "A2",
            "ticks": 52032,
            "time": 46.4571235,
            "velocity": 0.3937007874015748
          },
          {
            "duration": 0.08571424999999522,
            "durationTicks": 96,
            "midi": 34,
            "name": "A#1",
            "ticks": 52224,
            "time": 46.628552000000006,
            "velocity": 0.3937007874015748
          },
          {
            "duration": 0.08571424999999522,
            "durationTicks": 96,
            "midi": 46,
            "name": "A#2",
            "ticks": 52224,
            "time": 46.628552000000006,
            "velocity": 0.3937007874015748
          },
          {
            "duration": 0.08571425000000232,
            "durationTicks": 96,
            "midi": 53,
            "name": "F3",
            "ticks": 52416,
            "time": 46.799980500000004,
            "velocity": 0.3937007874015748
          },
          {
            "duration": 0.08571425000000232,
            "durationTicks": 96,
            "midi": 50,
            "name": "D3",
            "ticks": 52416,
            "time": 46.799980500000004,
            "velocity": 0.3937007874015748
          },
          {
            "duration": 0.08571425000000232,
            "durationTicks": 96,
            "midi": 38,
            "name": "D2",
            "ticks": 52416,
            "time": 46.799980500000004,
            "velocity": 0.3937007874015748
          },
          {
            "duration": 0.08571425000000232,
            "durationTicks": 96,
            "midi": 41,
            "name": "F2",
            "ticks": 52416,
            "time": 46.799980500000004,
            "velocity": 0.3937007874015748
          },
          {
            "duration": 0.08571424999999522,
            "durationTicks": 96,
            "midi": 41,
            "name": "F2",
            "ticks": 52800,
            "time": 47.142837500000006,
            "velocity": 0.3937007874015748
          },
          {
            "duration": 0.08571424999999522,
            "durationTicks": 96,
            "midi": 38,
            "name": "D2",
            "ticks": 52800,
            "time": 47.142837500000006,
            "velocity": 0.3937007874015748
          },
          {
            "duration": 0.08571424999999522,
            "durationTicks": 96,
            "midi": 53,
            "name": "F3",
            "ticks": 52800,
            "time": 47.142837500000006,
            "velocity": 0.3937007874015748
          },
          {
            "duration": 0.08571424999999522,
            "durationTicks": 96,
            "midi": 50,
            "name": "D3",
            "ticks": 52800,
            "time": 47.142837500000006,
            "velocity": 0.3937007874015748
          },
          {
            "duration": 0.08571425000000232,
            "durationTicks": 96,
            "midi": 36,
            "name": "C2",
            "ticks": 52992,
            "time": 47.314266,
            "velocity": 0.3937007874015748
          },
          {
            "duration": 0.08571425000000232,
            "durationTicks": 96,
            "midi": 48,
            "name": "C3",
            "ticks": 52992,
            "time": 47.314266,
            "velocity": 0.3937007874015748
          },
          {
            "duration": 0.08571425000000232,
            "durationTicks": 96,
            "midi": 52,
            "name": "E3",
            "ticks": 53184,
            "time": 47.4856945,
            "velocity": 0.3937007874015748
          },
          {
            "duration": 0.08571425000000232,
            "durationTicks": 96,
            "midi": 43,
            "name": "G2",
            "ticks": 53184,
            "time": 47.4856945,
            "velocity": 0.3937007874015748
          },
          {
            "duration": 0.08571425000000232,
            "durationTicks": 96,
            "midi": 55,
            "name": "G3",
            "ticks": 53184,
            "time": 47.4856945,
            "velocity": 0.3937007874015748
          },
          {
            "duration": 0.08571425000000232,
            "durationTicks": 96,
            "midi": 40,
            "name": "E2",
            "ticks": 53184,
            "time": 47.4856945,
            "velocity": 0.3937007874015748
          },
          {
            "duration": 0.08571425000000232,
            "durationTicks": 96,
            "midi": 43,
            "name": "G2",
            "ticks": 53568,
            "time": 47.8285515,
            "velocity": 0.3937007874015748
          },
          {
            "duration": 0.08571425000000232,
            "durationTicks": 96,
            "midi": 40,
            "name": "E2",
            "ticks": 53568,
            "time": 47.8285515,
            "velocity": 0.3937007874015748
          },
          {
            "duration": 0.08571425000000232,
            "durationTicks": 96,
            "midi": 55,
            "name": "G3",
            "ticks": 53568,
            "time": 47.8285515,
            "velocity": 0.3937007874015748
          },
          {
            "duration": 0.08571425000000232,
            "durationTicks": 96,
            "midi": 52,
            "name": "E3",
            "ticks": 53568,
            "time": 47.8285515,
            "velocity": 0.3937007874015748
          },
          {
            "duration": 0.08571425000000232,
            "durationTicks": 96,
            "midi": 38,
            "name": "D2",
            "ticks": 53760,
            "time": 47.99998,
            "velocity": 0.3937007874015748
          },
          {
            "duration": 0.08571425000000232,
            "durationTicks": 96,
            "midi": 50,
            "name": "D3",
            "ticks": 53760,
            "time": 47.99998,
            "velocity": 0.3937007874015748
          },
          {
            "duration": 0.08571424999999522,
            "durationTicks": 96,
            "midi": 45,
            "name": "A2",
            "ticks": 53952,
            "time": 48.171408500000005,
            "velocity": 0.3937007874015748
          },
          {
            "duration": 0.08571424999999522,
            "durationTicks": 96,
            "midi": 41,
            "name": "F2",
            "ticks": 53952,
            "time": 48.171408500000005,
            "velocity": 0.3937007874015748
          },
          {
            "duration": 0.08571424999999522,
            "durationTicks": 96,
            "midi": 57,
            "name": "A3",
            "ticks": 53952,
            "time": 48.171408500000005,
            "velocity": 0.3937007874015748
          },
          {
            "duration": 0.08571424999999522,
            "durationTicks": 96,
            "midi": 53,
            "name": "F3",
            "ticks": 53952,
            "time": 48.171408500000005,
            "velocity": 0.3937007874015748
          },
          {
            "duration": 0.08571425000000232,
            "durationTicks": 96,
            "midi": 52,
            "name": "E3",
            "ticks": 54144,
            "time": 48.342837,
            "velocity": 0.3937007874015748
          },
          {
            "duration": 0.08571425000000232,
            "durationTicks": 96,
            "midi": 40,
            "name": "E2",
            "ticks": 54144,
            "time": 48.342837,
            "velocity": 0.3937007874015748
          },
          {
            "duration": 0.08571425000000232,
            "durationTicks": 96,
            "midi": 48,
            "name": "C3",
            "ticks": 54336,
            "time": 48.5142655,
            "velocity": 0.3937007874015748
          },
          {
            "duration": 0.08571425000000232,
            "durationTicks": 96,
            "midi": 60,
            "name": "C4",
            "ticks": 54336,
            "time": 48.5142655,
            "velocity": 0.3937007874015748
          },
          {
            "duration": 0.08571425000000232,
            "durationTicks": 96,
            "midi": 55,
            "name": "G3",
            "ticks": 54336,
            "time": 48.5142655,
            "velocity": 0.3937007874015748
          },
          {
            "duration": 0.08571425000000232,
            "durationTicks": 96,
            "midi": 43,
            "name": "G2",
            "ticks": 54336,
            "time": 48.5142655,
            "velocity": 0.3937007874015748
          },
          {
            "duration": 0.08571424999999522,
            "durationTicks": 96,
            "midi": 41,
            "name": "F2",
            "ticks": 54528,
            "time": 48.685694000000005,
            "velocity": 0.3937007874015748
          },
          {
            "duration": 0.08571424999999522,
            "durationTicks": 96,
            "midi": 53,
            "name": "F3",
            "ticks": 54528,
            "time": 48.685694000000005,
            "velocity": 0.3937007874015748
          },
          {
            "duration": 0.08571425000000232,
            "durationTicks": 96,
            "midi": 57,
            "name": "A3",
            "ticks": 54720,
            "time": 48.8571225,
            "velocity": 0.3937007874015748
          },
          {
            "duration": 0.08571425000000232,
            "durationTicks": 96,
            "midi": 62,
            "name": "D4",
            "ticks": 54720,
            "time": 48.8571225,
            "velocity": 0.3937007874015748
          },
          {
            "duration": 0.08571425000000232,
            "durationTicks": 96,
            "midi": 45,
            "name": "A2",
            "ticks": 54720,
            "time": 48.8571225,
            "velocity": 0.3937007874015748
          },
          {
            "duration": 0.08571425000000232,
            "durationTicks": 96,
            "midi": 50,
            "name": "D3",
            "ticks": 54720,
            "time": 48.8571225,
            "velocity": 0.3937007874015748
          },
          {
            "duration": 0.08571425000000232,
            "durationTicks": 96,
            "midi": 38,
            "name": "D2",
            "ticks": 54912,
            "time": 49.028551,
            "velocity": 0.3937007874015748
          },
          {
            "duration": 0.08571425000000232,
            "durationTicks": 96,
            "midi": 50,
            "name": "D3",
            "ticks": 54912,
            "time": 49.028551,
            "velocity": 0.3937007874015748
          },
          {
            "duration": 0.08571424999999522,
            "durationTicks": 96,
            "midi": 57,
            "name": "A3",
            "ticks": 55104,
            "time": 49.199979500000005,
            "velocity": 0.3937007874015748
          },
          {
            "duration": 0.08571424999999522,
            "durationTicks": 96,
            "midi": 40,
            "name": "E2",
            "ticks": 55104,
            "time": 49.199979500000005,
            "velocity": 0.3937007874015748
          },
          {
            "duration": 0.08571424999999522,
            "durationTicks": 96,
            "midi": 45,
            "name": "A2",
            "ticks": 55104,
            "time": 49.199979500000005,
            "velocity": 0.3937007874015748
          },
          {
            "duration": 0.08571424999999522,
            "durationTicks": 96,
            "midi": 52,
            "name": "E3",
            "ticks": 55104,
            "time": 49.199979500000005,
            "velocity": 0.3937007874015748
          },
          {
            "duration": 0.08571425000000232,
            "durationTicks": 96,
            "midi": 45,
            "name": "A2",
            "ticks": 55296,
            "time": 49.371408,
            "velocity": 0.3937007874015748
          },
          {
            "duration": 0.08571425000000232,
            "durationTicks": 96,
            "midi": 33,
            "name": "A1",
            "ticks": 55296,
            "time": 49.371408,
            "velocity": 0.3937007874015748
          },
          {
            "duration": 0.08571425000000232,
            "durationTicks": 96,
            "midi": 40,
            "name": "E2",
            "ticks": 55488,
            "time": 49.5428365,
            "velocity": 0.3937007874015748
          },
          {
            "duration": 0.08571425000000232,
            "durationTicks": 96,
            "midi": 52,
            "name": "E3",
            "ticks": 55488,
            "time": 49.5428365,
            "velocity": 0.3937007874015748
          },
          {
            "duration": 0.08571425000000232,
            "durationTicks": 96,
            "midi": 43,
            "name": "G2",
            "ticks": 55488,
            "time": 49.5428365,
            "velocity": 0.3937007874015748
          },
          {
            "duration": 0.08571425000000232,
            "durationTicks": 96,
            "midi": 55,
            "name": "G3",
            "ticks": 55488,
            "time": 49.5428365,
            "velocity": 0.3937007874015748
          },
          {
            "duration": 0.08571425000000232,
            "durationTicks": 96,
            "midi": 43,
            "name": "G2",
            "ticks": 55872,
            "time": 49.8856935,
            "velocity": 0.3937007874015748
          },
          {
            "duration": 0.08571425000000232,
            "durationTicks": 96,
            "midi": 55,
            "name": "G3",
            "ticks": 55872,
            "time": 49.8856935,
            "velocity": 0.3937007874015748
          },
          {
            "duration": 0.08571425000000232,
            "durationTicks": 96,
            "midi": 52,
            "name": "E3",
            "ticks": 55872,
            "time": 49.8856935,
            "velocity": 0.3937007874015748
          },
          {
            "duration": 0.08571425000000232,
            "durationTicks": 96,
            "midi": 40,
            "name": "E2",
            "ticks": 55872,
            "time": 49.8856935,
            "velocity": 0.3937007874015748
          },
          {
            "duration": 0.08571424999999522,
            "durationTicks": 96,
            "midi": 43,
            "name": "G2",
            "ticks": 56064,
            "time": 50.05712200000001,
            "velocity": 0.3937007874015748
          },
          {
            "duration": 0.08571424999999522,
            "durationTicks": 96,
            "midi": 31,
            "name": "G1",
            "ticks": 56064,
            "time": 50.05712200000001,
            "velocity": 0.3937007874015748
          },
          {
            "duration": 0.08571425000000232,
            "durationTicks": 96,
            "midi": 48,
            "name": "C3",
            "ticks": 56256,
            "time": 50.228550500000004,
            "velocity": 0.3937007874015748
          },
          {
            "duration": 0.08571425000000232,
            "durationTicks": 96,
            "midi": 36,
            "name": "C2",
            "ticks": 56256,
            "time": 50.228550500000004,
            "velocity": 0.3937007874015748
          },
          {
            "duration": 0.08571425000000232,
            "durationTicks": 96,
            "midi": 52,
            "name": "E3",
            "ticks": 56256,
            "time": 50.228550500000004,
            "velocity": 0.3937007874015748
          },
          {
            "duration": 0.08571425000000232,
            "durationTicks": 96,
            "midi": 40,
            "name": "E2",
            "ticks": 56256,
            "time": 50.228550500000004,
            "velocity": 0.3937007874015748
          },
          {
            "duration": 0.08571424999999522,
            "durationTicks": 96,
            "midi": 48,
            "name": "C3",
            "ticks": 56640,
            "time": 50.57140750000001,
            "velocity": 0.3937007874015748
          },
          {
            "duration": 0.08571424999999522,
            "durationTicks": 96,
            "midi": 36,
            "name": "C2",
            "ticks": 56640,
            "time": 50.57140750000001,
            "velocity": 0.3937007874015748
          },
          {
            "duration": 0.08571424999999522,
            "durationTicks": 96,
            "midi": 52,
            "name": "E3",
            "ticks": 56640,
            "time": 50.57140750000001,
            "velocity": 0.3937007874015748
          },
          {
            "duration": 0.08571424999999522,
            "durationTicks": 96,
            "midi": 40,
            "name": "E2",
            "ticks": 56640,
            "time": 50.57140750000001,
            "velocity": 0.3937007874015748
          },
          {
            "duration": 0.08571425000000232,
            "durationTicks": 96,
            "midi": 29,
            "name": "F1",
            "ticks": 56832,
            "time": 50.742836000000004,
            "velocity": 0.3937007874015748
          },
          {
            "duration": 0.08571425000000232,
            "durationTicks": 96,
            "midi": 41,
            "name": "F2",
            "ticks": 56832,
            "time": 50.742836000000004,
            "velocity": 0.3937007874015748
          },
          {
            "duration": 0.08571425000000232,
            "durationTicks": 96,
            "midi": 50,
            "name": "D3",
            "ticks": 57024,
            "time": 50.9142645,
            "velocity": 0.3937007874015748
          },
          {
            "duration": 0.08571425000000232,
            "durationTicks": 96,
            "midi": 38,
            "name": "D2",
            "ticks": 57024,
            "time": 50.9142645,
            "velocity": 0.3937007874015748
          },
          {
            "duration": 0.08571425000000232,
            "durationTicks": 96,
            "midi": 46,
            "name": "A#2",
            "ticks": 57024,
            "time": 50.9142645,
            "velocity": 0.3937007874015748
          },
          {
            "duration": 0.08571425000000232,
            "durationTicks": 96,
            "midi": 34,
            "name": "A#1",
            "ticks": 57024,
            "time": 50.9142645,
            "velocity": 0.3937007874015748
          },
          {
            "duration": 0.08571425000000232,
            "durationTicks": 96,
            "midi": 38,
            "name": "D2",
            "ticks": 57408,
            "time": 51.257121500000004,
            "velocity": 0.3937007874015748
          },
          {
            "duration": 0.08571425000000232,
            "durationTicks": 96,
            "midi": 50,
            "name": "D3",
            "ticks": 57408,
            "time": 51.257121500000004,
            "velocity": 0.3937007874015748
          },
          {
            "duration": 0.08571425000000232,
            "durationTicks": 96,
            "midi": 34,
            "name": "A#1",
            "ticks": 57408,
            "time": 51.257121500000004,
            "velocity": 0.3937007874015748
          },
          {
            "duration": 0.08571425000000232,
            "durationTicks": 96,
            "midi": 46,
            "name": "A#2",
            "ticks": 57408,
            "time": 51.257121500000004,
            "velocity": 0.3937007874015748
          },
          {
            "duration": 0.08571425000000232,
            "durationTicks": 96,
            "midi": 46,
            "name": "A#2",
            "ticks": 57600,
            "time": 51.42855,
            "velocity": 0.3937007874015748
          },
          {
            "duration": 0.08571425000000232,
            "durationTicks": 96,
            "midi": 34,
            "name": "A#1",
            "ticks": 57600,
            "time": 51.42855,
            "velocity": 0.3937007874015748
          },
          {
            "duration": 0.08571424999999522,
            "durationTicks": 96,
            "midi": 55,
            "name": "G3",
            "ticks": 57792,
            "time": 51.599978500000006,
            "velocity": 0.3937007874015748
          },
          {
            "duration": 0.08571424999999522,
            "durationTicks": 96,
            "midi": 52,
            "name": "E3",
            "ticks": 57792,
            "time": 51.599978500000006,
            "velocity": 0.3937007874015748
          },
          {
            "duration": 0.08571424999999522,
            "durationTicks": 96,
            "midi": 40,
            "name": "E2",
            "ticks": 57792,
            "time": 51.599978500000006,
            "velocity": 0.3937007874015748
          },
          {
            "duration": 0.08571424999999522,
            "durationTicks": 96,
            "midi": 43,
            "name": "G2",
            "ticks": 57792,
            "time": 51.599978500000006,
            "velocity": 0.3937007874015748
          },
          {
            "duration": 0.08571425000000232,
            "durationTicks": 96,
            "midi": 40,
            "name": "E2",
            "ticks": 58176,
            "time": 51.9428355,
            "velocity": 0.3937007874015748
          },
          {
            "duration": 0.08571425000000232,
            "durationTicks": 96,
            "midi": 55,
            "name": "G3",
            "ticks": 58176,
            "time": 51.9428355,
            "velocity": 0.3937007874015748
          },
          {
            "duration": 0.08571425000000232,
            "durationTicks": 96,
            "midi": 52,
            "name": "E3",
            "ticks": 58176,
            "time": 51.9428355,
            "velocity": 0.3937007874015748
          },
          {
            "duration": 0.08571425000000232,
            "durationTicks": 96,
            "midi": 43,
            "name": "G2",
            "ticks": 58176,
            "time": 51.9428355,
            "velocity": 0.3937007874015748
          },
          {
            "duration": 0.08571424999999522,
            "durationTicks": 96,
            "midi": 49,
            "name": "C#3",
            "ticks": 58368,
            "time": 52.114264000000006,
            "velocity": 0.3937007874015748
          },
          {
            "duration": 0.08571424999999522,
            "durationTicks": 96,
            "midi": 37,
            "name": "C#2",
            "ticks": 58368,
            "time": 52.114264000000006,
            "velocity": 0.3937007874015748
          },
          {
            "duration": 0.08571425000000232,
            "durationTicks": 96,
            "midi": 53,
            "name": "F3",
            "ticks": 58560,
            "time": 52.2856925,
            "velocity": 0.3937007874015748
          },
          {
            "duration": 0.08571425000000232,
            "durationTicks": 96,
            "midi": 45,
            "name": "A2",
            "ticks": 58560,
            "time": 52.2856925,
            "velocity": 0.3937007874015748
          },
          {
            "duration": 0.08571425000000232,
            "durationTicks": 96,
            "midi": 57,
            "name": "A3",
            "ticks": 58560,
            "time": 52.2856925,
            "velocity": 0.3937007874015748
          },
          {
            "duration": 0.08571425000000232,
            "durationTicks": 96,
            "midi": 41,
            "name": "F2",
            "ticks": 58560,
            "time": 52.2856925,
            "velocity": 0.3937007874015748
          },
          {
            "duration": 0.08571424999999522,
            "durationTicks": 96,
            "midi": 53,
            "name": "F3",
            "ticks": 58944,
            "time": 52.628549500000005,
            "velocity": 0.3937007874015748
          },
          {
            "duration": 0.08571424999999522,
            "durationTicks": 96,
            "midi": 41,
            "name": "F2",
            "ticks": 58944,
            "time": 52.628549500000005,
            "velocity": 0.3937007874015748
          },
          {
            "duration": 0.08571424999999522,
            "durationTicks": 96,
            "midi": 57,
            "name": "A3",
            "ticks": 58944,
            "time": 52.628549500000005,
            "velocity": 0.3937007874015748
          },
          {
            "duration": 0.08571424999999522,
            "durationTicks": 96,
            "midi": 45,
            "name": "A2",
            "ticks": 58944,
            "time": 52.628549500000005,
            "velocity": 0.3937007874015748
          },
          {
            "duration": 0.08571425000000232,
            "durationTicks": 96,
            "midi": 37,
            "name": "C#2",
            "ticks": 59136,
            "time": 52.799978,
            "velocity": 0.3937007874015748
          },
          {
            "duration": 0.08571425000000232,
            "durationTicks": 96,
            "midi": 49,
            "name": "C#3",
            "ticks": 59136,
            "time": 52.799978,
            "velocity": 0.3937007874015748
          },
          {
            "duration": 0.08571425000000232,
            "durationTicks": 96,
            "midi": 57,
            "name": "A3",
            "ticks": 59328,
            "time": 52.9714065,
            "velocity": 0.3937007874015748
          },
          {
            "duration": 0.08571425000000232,
            "durationTicks": 96,
            "midi": 49,
            "name": "C#3",
            "ticks": 59328,
            "time": 52.9714065,
            "velocity": 0.3937007874015748
          },
          {
            "duration": 0.08571425000000232,
            "durationTicks": 96,
            "midi": 45,
            "name": "A2",
            "ticks": 59328,
            "time": 52.9714065,
            "velocity": 0.3937007874015748
          },
          {
            "duration": 0.08571425000000232,
            "durationTicks": 96,
            "midi": 61,
            "name": "C#4",
            "ticks": 59328,
            "time": 52.9714065,
            "velocity": 0.3937007874015748
          },
          {
            "duration": 0.08571425000000232,
            "durationTicks": 96,
            "midi": 57,
            "name": "A3",
            "ticks": 59712,
            "time": 53.3142635,
            "velocity": 0.3937007874015748
          },
          {
            "duration": 0.08571425000000232,
            "durationTicks": 96,
            "midi": 61,
            "name": "C#4",
            "ticks": 59712,
            "time": 53.3142635,
            "velocity": 0.3937007874015748
          },
          {
            "duration": 0.08571425000000232,
            "durationTicks": 96,
            "midi": 49,
            "name": "C#3",
            "ticks": 59712,
            "time": 53.3142635,
            "velocity": 0.3937007874015748
          },
          {
            "duration": 0.08571425000000232,
            "durationTicks": 96,
            "midi": 45,
            "name": "A2",
            "ticks": 59712,
            "time": 53.3142635,
            "velocity": 0.3937007874015748
          },
          {
            "duration": 0.08571425000000232,
            "durationTicks": 96,
            "midi": 37,
            "name": "C#2",
            "ticks": 59904,
            "time": 53.485692,
            "velocity": 0.3937007874015748
          },
          {
            "duration": 0.08571425000000232,
            "durationTicks": 96,
            "midi": 49,
            "name": "C#3",
            "ticks": 59904,
            "time": 53.485692,
            "velocity": 0.3937007874015748
          },
          {
            "duration": 0.08571424999999522,
            "durationTicks": 96,
            "midi": 41,
            "name": "F2",
            "ticks": 60096,
            "time": 53.657120500000005,
            "velocity": 0.3937007874015748
          },
          {
            "duration": 0.08571424999999522,
            "durationTicks": 96,
            "midi": 45,
            "name": "A2",
            "ticks": 60096,
            "time": 53.657120500000005,
            "velocity": 0.3937007874015748
          },
          {
            "duration": 0.08571424999999522,
            "durationTicks": 96,
            "midi": 53,
            "name": "F3",
            "ticks": 60096,
            "time": 53.657120500000005,
            "velocity": 0.3937007874015748
          },
          {
            "duration": 0.08571424999999522,
            "durationTicks": 96,
            "midi": 57,
            "name": "A3",
            "ticks": 60096,
            "time": 53.657120500000005,
            "velocity": 0.3937007874015748
          },
          {
            "duration": 0.08571425000000232,
            "durationTicks": 96,
            "midi": 37,
            "name": "C#2",
            "ticks": 60288,
            "time": 53.828549,
            "velocity": 0.3937007874015748
          },
          {
            "duration": 0.08571425000000232,
            "durationTicks": 96,
            "midi": 49,
            "name": "C#3",
            "ticks": 60288,
            "time": 53.828549,
            "velocity": 0.3937007874015748
          },
          {
            "duration": 0.08571424999999522,
            "durationTicks": 96,
            "midi": 45,
            "name": "A2",
            "ticks": 60480,
            "time": 53.99997750000001,
            "velocity": 0.3937007874015748
          },
          {
            "duration": 0.08571424999999522,
            "durationTicks": 96,
            "midi": 57,
            "name": "A3",
            "ticks": 60480,
            "time": 53.99997750000001,
            "velocity": 0.3937007874015748
          },
          {
            "duration": 0.08571424999999522,
            "durationTicks": 96,
            "midi": 61,
            "name": "C#4",
            "ticks": 60480,
            "time": 53.99997750000001,
            "velocity": 0.3937007874015748
          },
          {
            "duration": 0.08571424999999522,
            "durationTicks": 96,
            "midi": 49,
            "name": "C#3",
            "ticks": 60480,
            "time": 53.99997750000001,
            "velocity": 0.3937007874015748
          },
          {
            "duration": 0.08571425000000232,
            "durationTicks": 96,
            "midi": 37,
            "name": "C#2",
            "ticks": 60672,
            "time": 54.171406000000005,
            "velocity": 0.3937007874015748
          },
          {
            "duration": 0.08571425000000232,
            "durationTicks": 96,
            "midi": 49,
            "name": "C#3",
            "ticks": 60672,
            "time": 54.171406000000005,
            "velocity": 0.3937007874015748
          },
          {
            "duration": 0.08571425000000232,
            "durationTicks": 96,
            "midi": 64,
            "name": "E4",
            "ticks": 60864,
            "time": 54.3428345,
            "velocity": 0.3937007874015748
          },
          {
            "duration": 0.08571425000000232,
            "durationTicks": 96,
            "midi": 57,
            "name": "A3",
            "ticks": 60864,
            "time": 54.3428345,
            "velocity": 0.3937007874015748
          },
          {
            "duration": 0.08571425000000232,
            "durationTicks": 96,
            "midi": 45,
            "name": "A2",
            "ticks": 60864,
            "time": 54.3428345,
            "velocity": 0.3937007874015748
          },
          {
            "duration": 0.08571425000000232,
            "durationTicks": 96,
            "midi": 52,
            "name": "E3",
            "ticks": 60864,
            "time": 54.3428345,
            "velocity": 0.3937007874015748
          },
          {
            "duration": 0.08571425000000232,
            "durationTicks": 96,
            "midi": 52,
            "name": "E3",
            "ticks": 61248,
            "time": 54.685691500000004,
            "velocity": 0.3937007874015748
          },
          {
            "duration": 0.08571425000000232,
            "durationTicks": 96,
            "midi": 69,
            "name": "A4",
            "ticks": 61248,
            "time": 54.685691500000004,
            "velocity": 0.3937007874015748
          },
          {
            "duration": 0.08571425000000232,
            "durationTicks": 96,
            "midi": 57,
            "name": "A3",
            "ticks": 61248,
            "time": 54.685691500000004,
            "velocity": 0.3937007874015748
          },
          {
            "duration": 0.08571425000000232,
            "durationTicks": 96,
            "midi": 64,
            "name": "E4",
            "ticks": 61248,
            "time": 54.685691500000004,
            "velocity": 0.3937007874015748
          },
          {
            "duration": 0.08571425000000232,
            "durationTicks": 96,
            "midi": 45,
            "name": "A2",
            "ticks": 61440,
            "time": 54.85712,
            "velocity": 0.3937007874015748
          },
          {
            "duration": 0.08571425000000232,
            "durationTicks": 96,
            "midi": 33,
            "name": "A1",
            "ticks": 61440,
            "time": 54.85712,
            "velocity": 0.3937007874015748
          },
          {
            "duration": 0.08571424999999522,
            "durationTicks": 96,
            "midi": 53,
            "name": "F3",
            "ticks": 61632,
            "time": 55.02854850000001,
            "velocity": 0.3937007874015748
          },
          {
            "duration": 0.08571424999999522,
            "durationTicks": 96,
            "midi": 41,
            "name": "F2",
            "ticks": 61632,
            "time": 55.02854850000001,
            "velocity": 0.3937007874015748
          },
          {
            "duration": 0.08571424999999522,
            "durationTicks": 96,
            "midi": 38,
            "name": "D2",
            "ticks": 61632,
            "time": 55.02854850000001,
            "velocity": 0.3937007874015748
          },
          {
            "duration": 0.08571424999999522,
            "durationTicks": 96,
            "midi": 50,
            "name": "D3",
            "ticks": 61632,
            "time": 55.02854850000001,
            "velocity": 0.3937007874015748
          },
          {
            "duration": 0.08571425000000232,
            "durationTicks": 96,
            "midi": 38,
            "name": "D2",
            "ticks": 62016,
            "time": 55.3714055,
            "velocity": 0.3937007874015748
          },
          {
            "duration": 0.08571425000000232,
            "durationTicks": 96,
            "midi": 53,
            "name": "F3",
            "ticks": 62016,
            "time": 55.3714055,
            "velocity": 0.3937007874015748
          },
          {
            "duration": 0.08571425000000232,
            "durationTicks": 96,
            "midi": 41,
            "name": "F2",
            "ticks": 62016,
            "time": 55.3714055,
            "velocity": 0.3937007874015748
          },
          {
            "duration": 0.08571425000000232,
            "durationTicks": 96,
            "midi": 50,
            "name": "D3",
            "ticks": 62016,
            "time": 55.3714055,
            "velocity": 0.3937007874015748
          },
          {
            "duration": 0.08571424999999522,
            "durationTicks": 96,
            "midi": 48,
            "name": "C3",
            "ticks": 62208,
            "time": 55.542834000000006,
            "velocity": 0.3937007874015748
          },
          {
            "duration": 0.08571424999999522,
            "durationTicks": 96,
            "midi": 36,
            "name": "C2",
            "ticks": 62208,
            "time": 55.542834000000006,
            "velocity": 0.3937007874015748
          },
          {
            "duration": 0.08571425000000232,
            "durationTicks": 96,
            "midi": 43,
            "name": "G2",
            "ticks": 62400,
            "time": 55.714262500000004,
            "velocity": 0.3937007874015748
          },
          {
            "duration": 0.08571425000000232,
            "durationTicks": 96,
            "midi": 55,
            "name": "G3",
            "ticks": 62400,
            "time": 55.714262500000004,
            "velocity": 0.3937007874015748
          },
          {
            "duration": 0.08571425000000232,
            "durationTicks": 96,
            "midi": 40,
            "name": "E2",
            "ticks": 62400,
            "time": 55.714262500000004,
            "velocity": 0.3937007874015748
          },
          {
            "duration": 0.08571425000000232,
            "durationTicks": 96,
            "midi": 52,
            "name": "E3",
            "ticks": 62400,
            "time": 55.714262500000004,
            "velocity": 0.3937007874015748
          },
          {
            "duration": 0.08571424999999522,
            "durationTicks": 96,
            "midi": 55,
            "name": "G3",
            "ticks": 62784,
            "time": 56.057119500000006,
            "velocity": 0.3937007874015748
          },
          {
            "duration": 0.08571424999999522,
            "durationTicks": 96,
            "midi": 52,
            "name": "E3",
            "ticks": 62784,
            "time": 56.057119500000006,
            "velocity": 0.3937007874015748
          },
          {
            "duration": 0.08571424999999522,
            "durationTicks": 96,
            "midi": 43,
            "name": "G2",
            "ticks": 62784,
            "time": 56.057119500000006,
            "velocity": 0.3937007874015748
          },
          {
            "duration": 0.08571424999999522,
            "durationTicks": 96,
            "midi": 40,
            "name": "E2",
            "ticks": 62784,
            "time": 56.057119500000006,
            "velocity": 0.3937007874015748
          },
          {
            "duration": 0.08571425000000232,
            "durationTicks": 96,
            "midi": 38,
            "name": "D2",
            "ticks": 62976,
            "time": 56.228548,
            "velocity": 0.3937007874015748
          },
          {
            "duration": 0.08571425000000232,
            "durationTicks": 96,
            "midi": 50,
            "name": "D3",
            "ticks": 62976,
            "time": 56.228548,
            "velocity": 0.3937007874015748
          },
          {
            "duration": 0.08571425000000232,
            "durationTicks": 96,
            "midi": 57,
            "name": "A3",
            "ticks": 63168,
            "time": 56.3999765,
            "velocity": 0.3937007874015748
          },
          {
            "duration": 0.08571425000000232,
            "durationTicks": 96,
            "midi": 41,
            "name": "F2",
            "ticks": 63168,
            "time": 56.3999765,
            "velocity": 0.3937007874015748
          },
          {
            "duration": 0.08571425000000232,
            "durationTicks": 96,
            "midi": 45,
            "name": "A2",
            "ticks": 63168,
            "time": 56.3999765,
            "velocity": 0.3937007874015748
          },
          {
            "duration": 0.08571425000000232,
            "durationTicks": 96,
            "midi": 53,
            "name": "F3",
            "ticks": 63168,
            "time": 56.3999765,
            "velocity": 0.3937007874015748
          },
          {
            "duration": 0.08571425000000232,
            "durationTicks": 96,
            "midi": 57,
            "name": "A3",
            "ticks": 63552,
            "time": 56.7428335,
            "velocity": 0.3937007874015748
          },
          {
            "duration": 0.08571425000000232,
            "durationTicks": 96,
            "midi": 53,
            "name": "F3",
            "ticks": 63552,
            "time": 56.7428335,
            "velocity": 0.3937007874015748
          },
          {
            "duration": 0.08571425000000232,
            "durationTicks": 96,
            "midi": 41,
            "name": "F2",
            "ticks": 63552,
            "time": 56.7428335,
            "velocity": 0.3937007874015748
          },
          {
            "duration": 0.08571425000000232,
            "durationTicks": 96,
            "midi": 45,
            "name": "A2",
            "ticks": 63552,
            "time": 56.7428335,
            "velocity": 0.3937007874015748
          },
          {
            "duration": 0.08571425000000232,
            "durationTicks": 96,
            "midi": 38,
            "name": "D2",
            "ticks": 63744,
            "time": 56.914262,
            "velocity": 0.3937007874015748
          },
          {
            "duration": 0.08571425000000232,
            "durationTicks": 96,
            "midi": 50,
            "name": "D3",
            "ticks": 63744,
            "time": 56.914262,
            "velocity": 0.3937007874015748
          },
          {
            "duration": 0.08571424999999522,
            "durationTicks": 96,
            "midi": 41,
            "name": "F2",
            "ticks": 63936,
            "time": 57.085690500000005,
            "velocity": 0.3937007874015748
          },
          {
            "duration": 0.08571424999999522,
            "durationTicks": 96,
            "midi": 45,
            "name": "A2",
            "ticks": 63936,
            "time": 57.085690500000005,
            "velocity": 0.3937007874015748
          },
          {
            "duration": 0.08571424999999522,
            "durationTicks": 96,
            "midi": 57,
            "name": "A3",
            "ticks": 63936,
            "time": 57.085690500000005,
            "velocity": 0.3937007874015748
          },
          {
            "duration": 0.08571424999999522,
            "durationTicks": 96,
            "midi": 53,
            "name": "F3",
            "ticks": 63936,
            "time": 57.085690500000005,
            "velocity": 0.3937007874015748
          },
          {
            "duration": 0.08571425000000232,
            "durationTicks": 96,
            "midi": 53,
            "name": "F3",
            "ticks": 64320,
            "time": 57.4285475,
            "velocity": 0.3937007874015748
          },
          {
            "duration": 0.08571425000000232,
            "durationTicks": 96,
            "midi": 57,
            "name": "A3",
            "ticks": 64320,
            "time": 57.4285475,
            "velocity": 0.3937007874015748
          },
          {
            "duration": 0.08571425000000232,
            "durationTicks": 96,
            "midi": 45,
            "name": "A2",
            "ticks": 64320,
            "time": 57.4285475,
            "velocity": 0.3937007874015748
          },
          {
            "duration": 0.08571425000000232,
            "durationTicks": 96,
            "midi": 41,
            "name": "F2",
            "ticks": 64320,
            "time": 57.4285475,
            "velocity": 0.3937007874015748
          },
          {
            "duration": 0.08571424999999522,
            "durationTicks": 96,
            "midi": 34,
            "name": "A#1",
            "ticks": 64512,
            "time": 57.599976000000005,
            "velocity": 0.3937007874015748
          },
          {
            "duration": 0.08571424999999522,
            "durationTicks": 96,
            "midi": 46,
            "name": "A#2",
            "ticks": 64512,
            "time": 57.599976000000005,
            "velocity": 0.3937007874015748
          },
          {
            "duration": 0.08571425000000232,
            "durationTicks": 96,
            "midi": 50,
            "name": "D3",
            "ticks": 64704,
            "time": 57.7714045,
            "velocity": 0.3937007874015748
          },
          {
            "duration": 0.08571425000000232,
            "durationTicks": 96,
            "midi": 53,
            "name": "F3",
            "ticks": 64704,
            "time": 57.7714045,
            "velocity": 0.3937007874015748
          },
          {
            "duration": 0.08571425000000232,
            "durationTicks": 96,
            "midi": 41,
            "name": "F2",
            "ticks": 64704,
            "time": 57.7714045,
            "velocity": 0.3937007874015748
          },
          {
            "duration": 0.08571425000000232,
            "durationTicks": 96,
            "midi": 38,
            "name": "D2",
            "ticks": 64704,
            "time": 57.7714045,
            "velocity": 0.3937007874015748
          },
          {
            "duration": 0.08571425000000232,
            "durationTicks": 96,
            "midi": 41,
            "name": "F2",
            "ticks": 65088,
            "time": 58.114261500000005,
            "velocity": 0.3937007874015748
          },
          {
            "duration": 0.08571425000000232,
            "durationTicks": 96,
            "midi": 38,
            "name": "D2",
            "ticks": 65088,
            "time": 58.114261500000005,
            "velocity": 0.3937007874015748
          },
          {
            "duration": 0.08571425000000232,
            "durationTicks": 96,
            "midi": 50,
            "name": "D3",
            "ticks": 65088,
            "time": 58.114261500000005,
            "velocity": 0.3937007874015748
          },
          {
            "duration": 0.08571425000000232,
            "durationTicks": 96,
            "midi": 53,
            "name": "F3",
            "ticks": 65088,
            "time": 58.114261500000005,
            "velocity": 0.3937007874015748
          },
          {
            "duration": 0.08571425000000232,
            "durationTicks": 96,
            "midi": 36,
            "name": "C2",
            "ticks": 65280,
            "time": 58.28569,
            "velocity": 0.3937007874015748
          },
          {
            "duration": 0.08571425000000232,
            "durationTicks": 96,
            "midi": 48,
            "name": "C3",
            "ticks": 65280,
            "time": 58.28569,
            "velocity": 0.3937007874015748
          },
          {
            "duration": 0.08571424999999522,
            "durationTicks": 96,
            "midi": 52,
            "name": "E3",
            "ticks": 65472,
            "time": 58.45711850000001,
            "velocity": 0.3937007874015748
          },
          {
            "duration": 0.08571424999999522,
            "durationTicks": 96,
            "midi": 40,
            "name": "E2",
            "ticks": 65472,
            "time": 58.45711850000001,
            "velocity": 0.3937007874015748
          },
          {
            "duration": 0.08571424999999522,
            "durationTicks": 96,
            "midi": 43,
            "name": "G2",
            "ticks": 65472,
            "time": 58.45711850000001,
            "velocity": 0.3937007874015748
          },
          {
            "duration": 0.08571424999999522,
            "durationTicks": 96,
            "midi": 55,
            "name": "G3",
            "ticks": 65472,
            "time": 58.45711850000001,
            "velocity": 0.3937007874015748
          },
          {
            "duration": 0.08571425000000232,
            "durationTicks": 96,
            "midi": 43,
            "name": "G2",
            "ticks": 65856,
            "time": 58.7999755,
            "velocity": 0.3937007874015748
          },
          {
            "duration": 0.08571425000000232,
            "durationTicks": 96,
            "midi": 52,
            "name": "E3",
            "ticks": 65856,
            "time": 58.7999755,
            "velocity": 0.3937007874015748
          },
          {
            "duration": 0.08571425000000232,
            "durationTicks": 96,
            "midi": 55,
            "name": "G3",
            "ticks": 65856,
            "time": 58.7999755,
            "velocity": 0.3937007874015748
          },
          {
            "duration": 0.08571425000000232,
            "durationTicks": 96,
            "midi": 40,
            "name": "E2",
            "ticks": 65856,
            "time": 58.7999755,
            "velocity": 0.3937007874015748
          },
          {
            "duration": 0.08571424999999522,
            "durationTicks": 96,
            "midi": 50,
            "name": "D3",
            "ticks": 66048,
            "time": 58.97140400000001,
            "velocity": 0.3937007874015748
          },
          {
            "duration": 0.08571424999999522,
            "durationTicks": 96,
            "midi": 38,
            "name": "D2",
            "ticks": 66048,
            "time": 58.97140400000001,
            "velocity": 0.3937007874015748
          },
          {
            "duration": 0.08571425000000232,
            "durationTicks": 96,
            "midi": 41,
            "name": "F2",
            "ticks": 66240,
            "time": 59.142832500000004,
            "velocity": 0.3937007874015748
          },
          {
            "duration": 0.08571425000000232,
            "durationTicks": 96,
            "midi": 57,
            "name": "A3",
            "ticks": 66240,
            "time": 59.142832500000004,
            "velocity": 0.3937007874015748
          },
          {
            "duration": 0.08571425000000232,
            "durationTicks": 96,
            "midi": 53,
            "name": "F3",
            "ticks": 66240,
            "time": 59.142832500000004,
            "velocity": 0.3937007874015748
          },
          {
            "duration": 0.08571425000000232,
            "durationTicks": 96,
            "midi": 45,
            "name": "A2",
            "ticks": 66240,
            "time": 59.142832500000004,
            "velocity": 0.3937007874015748
          },
          {
            "duration": 0.08571425000000232,
            "durationTicks": 96,
            "midi": 40,
            "name": "E2",
            "ticks": 66432,
            "time": 59.314261,
            "velocity": 0.3937007874015748
          },
          {
            "duration": 0.08571425000000232,
            "durationTicks": 96,
            "midi": 52,
            "name": "E3",
            "ticks": 66432,
            "time": 59.314261,
            "velocity": 0.3937007874015748
          },
          {
            "duration": 0.08571424999999522,
            "durationTicks": 96,
            "midi": 43,
            "name": "G2",
            "ticks": 66624,
            "time": 59.48568950000001,
            "velocity": 0.3937007874015748
          },
          {
            "duration": 0.08571424999999522,
            "durationTicks": 96,
            "midi": 55,
            "name": "G3",
            "ticks": 66624,
            "time": 59.48568950000001,
            "velocity": 0.3937007874015748
          },
          {
            "duration": 0.08571424999999522,
            "durationTicks": 96,
            "midi": 60,
            "name": "C4",
            "ticks": 66624,
            "time": 59.48568950000001,
            "velocity": 0.3937007874015748
          },
          {
            "duration": 0.08571424999999522,
            "durationTicks": 96,
            "midi": 48,
            "name": "C3",
            "ticks": 66624,
            "time": 59.48568950000001,
            "velocity": 0.3937007874015748
          },
          {
            "duration": 0.08571425000000232,
            "durationTicks": 96,
            "midi": 41,
            "name": "F2",
            "ticks": 66816,
            "time": 59.657118000000004,
            "velocity": 0.3937007874015748
          },
          {
            "duration": 0.08571425000000232,
            "durationTicks": 96,
            "midi": 53,
            "name": "F3",
            "ticks": 66816,
            "time": 59.657118000000004,
            "velocity": 0.3937007874015748
          },
          {
            "duration": 0.08571425000000232,
            "durationTicks": 96,
            "midi": 45,
            "name": "A2",
            "ticks": 67008,
            "time": 59.8285465,
            "velocity": 0.3937007874015748
          },
          {
            "duration": 0.08571425000000232,
            "durationTicks": 96,
            "midi": 62,
            "name": "D4",
            "ticks": 67008,
            "time": 59.8285465,
            "velocity": 0.3937007874015748
          },
          {
            "duration": 0.08571425000000232,
            "durationTicks": 96,
            "midi": 57,
            "name": "A3",
            "ticks": 67008,
            "time": 59.8285465,
            "velocity": 0.3937007874015748
          },
          {
            "duration": 0.08571425000000232,
            "durationTicks": 96,
            "midi": 50,
            "name": "D3",
            "ticks": 67008,
            "time": 59.8285465,
            "velocity": 0.3937007874015748
          },
          {
            "duration": 0.08571424999999522,
            "durationTicks": 96,
            "midi": 50,
            "name": "D3",
            "ticks": 67200,
            "time": 59.999975000000006,
            "velocity": 0.3937007874015748
          },
          {
            "duration": 0.08571424999999522,
            "durationTicks": 96,
            "midi": 38,
            "name": "D2",
            "ticks": 67200,
            "time": 59.999975000000006,
            "velocity": 0.3937007874015748
          },
          {
            "duration": 0.08571425000000232,
            "durationTicks": 96,
            "midi": 45,
            "name": "A2",
            "ticks": 67392,
            "time": 60.171403500000004,
            "velocity": 0.3937007874015748
          },
          {
            "duration": 0.08571425000000232,
            "durationTicks": 96,
            "midi": 57,
            "name": "A3",
            "ticks": 67392,
            "time": 60.171403500000004,
            "velocity": 0.3937007874015748
          },
          {
            "duration": 0.08571425000000232,
            "durationTicks": 96,
            "midi": 52,
            "name": "E3",
            "ticks": 67392,
            "time": 60.171403500000004,
            "velocity": 0.3937007874015748
          },
          {
            "duration": 0.08571425000000232,
            "durationTicks": 96,
            "midi": 40,
            "name": "E2",
            "ticks": 67392,
            "time": 60.171403500000004,
            "velocity": 0.3937007874015748
          },
          {
            "duration": 0.08571425000000232,
            "durationTicks": 96,
            "midi": 33,
            "name": "A1",
            "ticks": 67584,
            "time": 60.342832,
            "velocity": 0.3937007874015748
          },
          {
            "duration": 0.08571425000000232,
            "durationTicks": 96,
            "midi": 45,
            "name": "A2",
            "ticks": 67584,
            "time": 60.342832,
            "velocity": 0.3937007874015748
          },
          {
            "duration": 0.08571424999999522,
            "durationTicks": 96,
            "midi": 52,
            "name": "E3",
            "ticks": 67776,
            "time": 60.514260500000006,
            "velocity": 0.3937007874015748
          },
          {
            "duration": 0.08571424999999522,
            "durationTicks": 96,
            "midi": 55,
            "name": "G3",
            "ticks": 67776,
            "time": 60.514260500000006,
            "velocity": 0.3937007874015748
          },
          {
            "duration": 0.08571424999999522,
            "durationTicks": 96,
            "midi": 40,
            "name": "E2",
            "ticks": 67776,
            "time": 60.514260500000006,
            "velocity": 0.3937007874015748
          },
          {
            "duration": 0.08571424999999522,
            "durationTicks": 96,
            "midi": 43,
            "name": "G2",
            "ticks": 67776,
            "time": 60.514260500000006,
            "velocity": 0.3937007874015748
          },
          {
            "duration": 0.08571425000000232,
            "durationTicks": 96,
            "midi": 43,
            "name": "G2",
            "ticks": 68160,
            "time": 60.8571175,
            "velocity": 0.3937007874015748
          },
          {
            "duration": 0.08571425000000232,
            "durationTicks": 96,
            "midi": 55,
            "name": "G3",
            "ticks": 68160,
            "time": 60.8571175,
            "velocity": 0.3937007874015748
          },
          {
            "duration": 0.08571425000000232,
            "durationTicks": 96,
            "midi": 40,
            "name": "E2",
            "ticks": 68160,
            "time": 60.8571175,
            "velocity": 0.3937007874015748
          },
          {
            "duration": 0.08571425000000232,
            "durationTicks": 96,
            "midi": 52,
            "name": "E3",
            "ticks": 68160,
            "time": 60.8571175,
            "velocity": 0.3937007874015748
          },
          {
            "duration": 0.08571424999999522,
            "durationTicks": 96,
            "midi": 43,
            "name": "G2",
            "ticks": 68352,
            "time": 61.028546000000006,
            "velocity": 0.3937007874015748
          },
          {
            "duration": 0.08571424999999522,
            "durationTicks": 96,
            "midi": 31,
            "name": "G1",
            "ticks": 68352,
            "time": 61.028546000000006,
            "velocity": 0.3937007874015748
          },
          {
            "duration": 0.08571425000000232,
            "durationTicks": 96,
            "midi": 36,
            "name": "C2",
            "ticks": 68544,
            "time": 61.1999745,
            "velocity": 0.3937007874015748
          },
          {
            "duration": 0.08571425000000232,
            "durationTicks": 96,
            "midi": 48,
            "name": "C3",
            "ticks": 68544,
            "time": 61.1999745,
            "velocity": 0.3937007874015748
          },
          {
            "duration": 0.08571425000000232,
            "durationTicks": 96,
            "midi": 40,
            "name": "E2",
            "ticks": 68544,
            "time": 61.1999745,
            "velocity": 0.3937007874015748
          },
          {
            "duration": 0.08571425000000232,
            "durationTicks": 96,
            "midi": 52,
            "name": "E3",
            "ticks": 68544,
            "time": 61.1999745,
            "velocity": 0.3937007874015748
          },
          {
            "duration": 0.08571424999999522,
            "durationTicks": 96,
            "midi": 48,
            "name": "C3",
            "ticks": 68928,
            "time": 61.542831500000005,
            "velocity": 0.3937007874015748
          },
          {
            "duration": 0.08571424999999522,
            "durationTicks": 96,
            "midi": 52,
            "name": "E3",
            "ticks": 68928,
            "time": 61.542831500000005,
            "velocity": 0.3937007874015748
          },
          {
            "duration": 0.08571424999999522,
            "durationTicks": 96,
            "midi": 36,
            "name": "C2",
            "ticks": 68928,
            "time": 61.542831500000005,
            "velocity": 0.3937007874015748
          },
          {
            "duration": 0.08571424999999522,
            "durationTicks": 96,
            "midi": 40,
            "name": "E2",
            "ticks": 68928,
            "time": 61.542831500000005,
            "velocity": 0.3937007874015748
          },
          {
            "duration": 0.08571425000000232,
            "durationTicks": 96,
            "midi": 29,
            "name": "F1",
            "ticks": 69120,
            "time": 61.71426,
            "velocity": 0.3937007874015748
          },
          {
            "duration": 0.08571425000000232,
            "durationTicks": 96,
            "midi": 41,
            "name": "F2",
            "ticks": 69120,
            "time": 61.71426,
            "velocity": 0.3937007874015748
          },
          {
            "duration": 0.08571424999999522,
            "durationTicks": 96,
            "midi": 38,
            "name": "D2",
            "ticks": 69312,
            "time": 61.88568850000001,
            "velocity": 0.3937007874015748
          },
          {
            "duration": 0.08571424999999522,
            "durationTicks": 96,
            "midi": 50,
            "name": "D3",
            "ticks": 69312,
            "time": 61.88568850000001,
            "velocity": 0.3937007874015748
          },
          {
            "duration": 0.08571424999999522,
            "durationTicks": 96,
            "midi": 46,
            "name": "A#2",
            "ticks": 69312,
            "time": 61.88568850000001,
            "velocity": 0.3937007874015748
          },
          {
            "duration": 0.08571424999999522,
            "durationTicks": 96,
            "midi": 34,
            "name": "A#1",
            "ticks": 69312,
            "time": 61.88568850000001,
            "velocity": 0.3937007874015748
          },
          {
            "duration": 0.08571425000000232,
            "durationTicks": 96,
            "midi": 50,
            "name": "D3",
            "ticks": 69696,
            "time": 62.2285455,
            "velocity": 0.3937007874015748
          },
          {
            "duration": 0.08571425000000232,
            "durationTicks": 96,
            "midi": 38,
            "name": "D2",
            "ticks": 69696,
            "time": 62.2285455,
            "velocity": 0.3937007874015748
          },
          {
            "duration": 0.08571425000000232,
            "durationTicks": 96,
            "midi": 34,
            "name": "A#1",
            "ticks": 69696,
            "time": 62.2285455,
            "velocity": 0.3937007874015748
          },
          {
            "duration": 0.08571425000000232,
            "durationTicks": 96,
            "midi": 46,
            "name": "A#2",
            "ticks": 69696,
            "time": 62.2285455,
            "velocity": 0.3937007874015748
          },
          {
            "duration": 0.08571424999999522,
            "durationTicks": 96,
            "midi": 46,
            "name": "A#2",
            "ticks": 69888,
            "time": 62.39997400000001,
            "velocity": 0.3937007874015748
          },
          {
            "duration": 0.08571424999999522,
            "durationTicks": 96,
            "midi": 34,
            "name": "A#1",
            "ticks": 69888,
            "time": 62.39997400000001,
            "velocity": 0.3937007874015748
          },
          {
            "duration": 0.08571425000000232,
            "durationTicks": 96,
            "midi": 52,
            "name": "E3",
            "ticks": 70080,
            "time": 62.571402500000005,
            "velocity": 0.3937007874015748
          },
          {
            "duration": 0.08571425000000232,
            "durationTicks": 96,
            "midi": 43,
            "name": "G2",
            "ticks": 70080,
            "time": 62.571402500000005,
            "velocity": 0.3937007874015748
          },
          {
            "duration": 0.08571425000000232,
            "durationTicks": 96,
            "midi": 55,
            "name": "G3",
            "ticks": 70080,
            "time": 62.571402500000005,
            "velocity": 0.3937007874015748
          },
          {
            "duration": 0.08571425000000232,
            "durationTicks": 96,
            "midi": 40,
            "name": "E2",
            "ticks": 70080,
            "time": 62.571402500000005,
            "velocity": 0.3937007874015748
          },
          {
            "duration": 0.08571424999999522,
            "durationTicks": 96,
            "midi": 52,
            "name": "E3",
            "ticks": 70464,
            "time": 62.91425950000001,
            "velocity": 0.3937007874015748
          },
          {
            "duration": 0.08571424999999522,
            "durationTicks": 96,
            "midi": 55,
            "name": "G3",
            "ticks": 70464,
            "time": 62.91425950000001,
            "velocity": 0.3937007874015748
          },
          {
            "duration": 0.08571424999999522,
            "durationTicks": 96,
            "midi": 43,
            "name": "G2",
            "ticks": 70464,
            "time": 62.91425950000001,
            "velocity": 0.3937007874015748
          },
          {
            "duration": 0.08571424999999522,
            "durationTicks": 96,
            "midi": 40,
            "name": "E2",
            "ticks": 70464,
            "time": 62.91425950000001,
            "velocity": 0.3937007874015748
          },
          {
            "duration": 0.08571425000000232,
            "durationTicks": 96,
            "midi": 37,
            "name": "C#2",
            "ticks": 70656,
            "time": 63.085688000000005,
            "velocity": 0.3937007874015748
          },
          {
            "duration": 0.08571425000000232,
            "durationTicks": 96,
            "midi": 49,
            "name": "C#3",
            "ticks": 70656,
            "time": 63.085688000000005,
            "velocity": 0.3937007874015748
          },
          {
            "duration": 0.08571425000000232,
            "durationTicks": 96,
            "midi": 45,
            "name": "A2",
            "ticks": 70848,
            "time": 63.2571165,
            "velocity": 0.3937007874015748
          },
          {
            "duration": 0.08571425000000232,
            "durationTicks": 96,
            "midi": 57,
            "name": "A3",
            "ticks": 70848,
            "time": 63.2571165,
            "velocity": 0.3937007874015748
          },
          {
            "duration": 0.08571425000000232,
            "durationTicks": 96,
            "midi": 41,
            "name": "F2",
            "ticks": 70848,
            "time": 63.2571165,
            "velocity": 0.3937007874015748
          },
          {
            "duration": 0.08571425000000232,
            "durationTicks": 96,
            "midi": 53,
            "name": "F3",
            "ticks": 70848,
            "time": 63.2571165,
            "velocity": 0.3937007874015748
          },
          {
            "duration": 0.08571425000000232,
            "durationTicks": 96,
            "midi": 53,
            "name": "F3",
            "ticks": 71232,
            "time": 63.599973500000004,
            "velocity": 0.3937007874015748
          },
          {
            "duration": 0.08571425000000232,
            "durationTicks": 96,
            "midi": 57,
            "name": "A3",
            "ticks": 71232,
            "time": 63.599973500000004,
            "velocity": 0.3937007874015748
          },
          {
            "duration": 0.08571425000000232,
            "durationTicks": 96,
            "midi": 41,
            "name": "F2",
            "ticks": 71232,
            "time": 63.599973500000004,
            "velocity": 0.3937007874015748
          },
          {
            "duration": 0.08571425000000232,
            "durationTicks": 96,
            "midi": 45,
            "name": "A2",
            "ticks": 71232,
            "time": 63.599973500000004,
            "velocity": 0.3937007874015748
          },
          {
            "duration": 0.08571425000000232,
            "durationTicks": 96,
            "midi": 37,
            "name": "C#2",
            "ticks": 71424,
            "time": 63.771402,
            "velocity": 0.3937007874015748
          },
          {
            "duration": 0.08571425000000232,
            "durationTicks": 96,
            "midi": 49,
            "name": "C#3",
            "ticks": 71424,
            "time": 63.771402,
            "velocity": 0.3937007874015748
          },
          {
            "duration": 0.08571425000000232,
            "durationTicks": 96,
            "midi": 49,
            "name": "C#3",
            "ticks": 71616,
            "time": 63.94283050000001,
            "velocity": 0.3937007874015748
          },
          {
            "duration": 0.08571425000000232,
            "durationTicks": 96,
            "midi": 57,
            "name": "A3",
            "ticks": 71616,
            "time": 63.94283050000001,
            "velocity": 0.3937007874015748
          },
          {
            "duration": 0.08571425000000232,
            "durationTicks": 96,
            "midi": 61,
            "name": "C#4",
            "ticks": 71616,
            "time": 63.94283050000001,
            "velocity": 0.3937007874015748
          },
          {
            "duration": 0.08571425000000232,
            "durationTicks": 96,
            "midi": 45,
            "name": "A2",
            "ticks": 71616,
            "time": 63.94283050000001,
            "velocity": 0.3937007874015748
          },
          {
            "duration": 0.08571424999999522,
            "durationTicks": 96,
            "midi": 57,
            "name": "A3",
            "ticks": 72000,
            "time": 64.28568750000001,
            "velocity": 0.3937007874015748
          },
          {
            "duration": 0.08571424999999522,
            "durationTicks": 96,
            "midi": 49,
            "name": "C#3",
            "ticks": 72000,
            "time": 64.28568750000001,
            "velocity": 0.3937007874015748
          },
          {
            "duration": 0.08571424999999522,
            "durationTicks": 96,
            "midi": 45,
            "name": "A2",
            "ticks": 72000,
            "time": 64.28568750000001,
            "velocity": 0.3937007874015748
          },
          {
            "duration": 0.08571424999999522,
            "durationTicks": 96,
            "midi": 61,
            "name": "C#4",
            "ticks": 72000,
            "time": 64.28568750000001,
            "velocity": 0.3937007874015748
          },
          {
            "duration": 0.08571425000000943,
            "durationTicks": 96,
            "midi": 49,
            "name": "C#3",
            "ticks": 72192,
            "time": 64.457116,
            "velocity": 0.3937007874015748
          },
          {
            "duration": 0.08571425000000943,
            "durationTicks": 96,
            "midi": 37,
            "name": "C#2",
            "ticks": 72192,
            "time": 64.457116,
            "velocity": 0.3937007874015748
          },
          {
            "duration": 0.08571424999999522,
            "durationTicks": 96,
            "midi": 45,
            "name": "A2",
            "ticks": 72384,
            "time": 64.6285445,
            "velocity": 0.3937007874015748
          },
          {
            "duration": 0.08571424999999522,
            "durationTicks": 96,
            "midi": 41,
            "name": "F2",
            "ticks": 72384,
            "time": 64.6285445,
            "velocity": 0.3937007874015748
          },
          {
            "duration": 0.08571424999999522,
            "durationTicks": 96,
            "midi": 57,
            "name": "A3",
            "ticks": 72384,
            "time": 64.6285445,
            "velocity": 0.3937007874015748
          },
          {
            "duration": 0.08571424999999522,
            "durationTicks": 96,
            "midi": 53,
            "name": "F3",
            "ticks": 72384,
            "time": 64.6285445,
            "velocity": 0.3937007874015748
          },
          {
            "duration": 0.08571424999999522,
            "durationTicks": 96,
            "midi": 49,
            "name": "C#3",
            "ticks": 72576,
            "time": 64.79997300000001,
            "velocity": 0.3937007874015748
          },
          {
            "duration": 0.08571424999999522,
            "durationTicks": 96,
            "midi": 37,
            "name": "C#2",
            "ticks": 72576,
            "time": 64.79997300000001,
            "velocity": 0.3937007874015748
          },
          {
            "duration": 0.08571425000000943,
            "durationTicks": 96,
            "midi": 49,
            "name": "C#3",
            "ticks": 72768,
            "time": 64.9714015,
            "velocity": 0.3937007874015748
          },
          {
            "duration": 0.08571425000000943,
            "durationTicks": 96,
            "midi": 45,
            "name": "A2",
            "ticks": 72768,
            "time": 64.9714015,
            "velocity": 0.3937007874015748
          },
          {
            "duration": 0.08571425000000943,
            "durationTicks": 96,
            "midi": 57,
            "name": "A3",
            "ticks": 72768,
            "time": 64.9714015,
            "velocity": 0.3937007874015748
          },
          {
            "duration": 0.08571425000000943,
            "durationTicks": 96,
            "midi": 61,
            "name": "C#4",
            "ticks": 72768,
            "time": 64.9714015,
            "velocity": 0.3937007874015748
          },
          {
            "duration": 0.08571424999999522,
            "durationTicks": 96,
            "midi": 37,
            "name": "C#2",
            "ticks": 72960,
            "time": 65.14283,
            "velocity": 0.3937007874015748
          },
          {
            "duration": 0.08571424999999522,
            "durationTicks": 96,
            "midi": 49,
            "name": "C#3",
            "ticks": 72960,
            "time": 65.14283,
            "velocity": 0.3937007874015748
          },
          {
            "duration": 0.08571424999999522,
            "durationTicks": 96,
            "midi": 57,
            "name": "A3",
            "ticks": 73152,
            "time": 65.31425850000001,
            "velocity": 0.3937007874015748
          },
          {
            "duration": 0.08571424999999522,
            "durationTicks": 96,
            "midi": 52,
            "name": "E3",
            "ticks": 73152,
            "time": 65.31425850000001,
            "velocity": 0.3937007874015748
          },
          {
            "duration": 0.08571424999999522,
            "durationTicks": 96,
            "midi": 45,
            "name": "A2",
            "ticks": 73152,
            "time": 65.31425850000001,
            "velocity": 0.3937007874015748
          },
          {
            "duration": 0.08571424999999522,
            "durationTicks": 96,
            "midi": 64,
            "name": "E4",
            "ticks": 73152,
            "time": 65.31425850000001,
            "velocity": 0.3937007874015748
          },
          {
            "duration": 0.08571424999999522,
            "durationTicks": 96,
            "midi": 52,
            "name": "E3",
            "ticks": 73536,
            "time": 65.6571155,
            "velocity": 0.3937007874015748
          },
          {
            "duration": 0.08571424999999522,
            "durationTicks": 96,
            "midi": 57,
            "name": "A3",
            "ticks": 73536,
            "time": 65.6571155,
            "velocity": 0.3937007874015748
          },
          {
            "duration": 0.08571424999999522,
            "durationTicks": 96,
            "midi": 64,
            "name": "E4",
            "ticks": 73536,
            "time": 65.6571155,
            "velocity": 0.3937007874015748
          },
          {
            "duration": 0.08571424999999522,
            "durationTicks": 96,
            "midi": 69,
            "name": "A4",
            "ticks": 73536,
            "time": 65.6571155,
            "velocity": 0.3937007874015748
          },
          {
            "duration": 0.08571424999999522,
            "durationTicks": 96,
            "midi": 58,
            "name": "A#3",
            "ticks": 73728,
            "time": 65.82854400000001,
            "velocity": 0.3937007874015748
          },
          {
            "duration": 0.08571424999999522,
            "durationTicks": 96,
            "midi": 46,
            "name": "A#2",
            "ticks": 73728,
            "time": 65.82854400000001,
            "velocity": 0.3937007874015748
          },
          {
            "duration": 0.08571425000000943,
            "durationTicks": 96,
            "midi": 62,
            "name": "D4",
            "ticks": 73920,
            "time": 65.9999725,
            "velocity": 0.3937007874015748
          },
          {
            "duration": 0.08571425000000943,
            "durationTicks": 96,
            "midi": 50,
            "name": "D3",
            "ticks": 73920,
            "time": 65.9999725,
            "velocity": 0.3937007874015748
          },
          {
            "duration": 0.08571425000000943,
            "durationTicks": 96,
            "midi": 65,
            "name": "F4",
            "ticks": 73920,
            "time": 65.9999725,
            "velocity": 0.3937007874015748
          },
          {
            "duration": 0.08571425000000943,
            "durationTicks": 96,
            "midi": 53,
            "name": "F3",
            "ticks": 73920,
            "time": 65.9999725,
            "velocity": 0.3937007874015748
          },
          {
            "duration": 0.08571424999999522,
            "durationTicks": 96,
            "midi": 50,
            "name": "D3",
            "ticks": 74304,
            "time": 66.34282950000001,
            "velocity": 0.3937007874015748
          },
          {
            "duration": 0.08571424999999522,
            "durationTicks": 96,
            "midi": 62,
            "name": "D4",
            "ticks": 74304,
            "time": 66.34282950000001,
            "velocity": 0.3937007874015748
          },
          {
            "duration": 0.08571424999999522,
            "durationTicks": 96,
            "midi": 65,
            "name": "F4",
            "ticks": 74304,
            "time": 66.34282950000001,
            "velocity": 0.3937007874015748
          },
          {
            "duration": 0.08571424999999522,
            "durationTicks": 96,
            "midi": 53,
            "name": "F3",
            "ticks": 74304,
            "time": 66.34282950000001,
            "velocity": 0.3937007874015748
          },
          {
            "duration": 0.08571425000000943,
            "durationTicks": 96,
            "midi": 48,
            "name": "C3",
            "ticks": 74496,
            "time": 66.514258,
            "velocity": 0.3937007874015748
          },
          {
            "duration": 0.08571425000000943,
            "durationTicks": 96,
            "midi": 60,
            "name": "C4",
            "ticks": 74496,
            "time": 66.514258,
            "velocity": 0.3937007874015748
          },
          {
            "duration": 0.08571424999999522,
            "durationTicks": 96,
            "midi": 67,
            "name": "G4",
            "ticks": 74688,
            "time": 66.6856865,
            "velocity": 0.3937007874015748
          },
          {
            "duration": 0.08571424999999522,
            "durationTicks": 96,
            "midi": 52,
            "name": "E3",
            "ticks": 74688,
            "time": 66.6856865,
            "velocity": 0.3937007874015748
          },
          {
            "duration": 0.08571424999999522,
            "durationTicks": 96,
            "midi": 55,
            "name": "G3",
            "ticks": 74688,
            "time": 66.6856865,
            "velocity": 0.3937007874015748
          },
          {
            "duration": 0.08571424999999522,
            "durationTicks": 96,
            "midi": 64,
            "name": "E4",
            "ticks": 74688,
            "time": 66.6856865,
            "velocity": 0.3937007874015748
          },
          {
            "duration": 0.08571425000000943,
            "durationTicks": 96,
            "midi": 64,
            "name": "E4",
            "ticks": 75072,
            "time": 67.0285435,
            "velocity": 0.3937007874015748
          },
          {
            "duration": 0.08571425000000943,
            "durationTicks": 96,
            "midi": 52,
            "name": "E3",
            "ticks": 75072,
            "time": 67.0285435,
            "velocity": 0.3937007874015748
          },
          {
            "duration": 0.08571425000000943,
            "durationTicks": 96,
            "midi": 55,
            "name": "G3",
            "ticks": 75072,
            "time": 67.0285435,
            "velocity": 0.3937007874015748
          },
          {
            "duration": 0.08571425000000943,
            "durationTicks": 96,
            "midi": 67,
            "name": "G4",
            "ticks": 75072,
            "time": 67.0285435,
            "velocity": 0.3937007874015748
          },
          {
            "duration": 0.08571424999999522,
            "durationTicks": 96,
            "midi": 62,
            "name": "D4",
            "ticks": 75264,
            "time": 67.199972,
            "velocity": 0.3937007874015748
          },
          {
            "duration": 0.08571424999999522,
            "durationTicks": 96,
            "midi": 50,
            "name": "D3",
            "ticks": 75264,
            "time": 67.199972,
            "velocity": 0.3937007874015748
          },
          {
            "duration": 0.08571424999999522,
            "durationTicks": 96,
            "midi": 69,
            "name": "A4",
            "ticks": 75456,
            "time": 67.37140050000001,
            "velocity": 0.3937007874015748
          },
          {
            "duration": 0.08571424999999522,
            "durationTicks": 96,
            "midi": 65,
            "name": "F4",
            "ticks": 75456,
            "time": 67.37140050000001,
            "velocity": 0.3937007874015748
          },
          {
            "duration": 0.08571424999999522,
            "durationTicks": 96,
            "midi": 57,
            "name": "A3",
            "ticks": 75456,
            "time": 67.37140050000001,
            "velocity": 0.3937007874015748
          },
          {
            "duration": 0.08571424999999522,
            "durationTicks": 96,
            "midi": 53,
            "name": "F3",
            "ticks": 75456,
            "time": 67.37140050000001,
            "velocity": 0.3937007874015748
          },
          {
            "duration": 0.08571424999999522,
            "durationTicks": 96,
            "midi": 65,
            "name": "F4",
            "ticks": 75840,
            "time": 67.7142575,
            "velocity": 0.3937007874015748
          },
          {
            "duration": 0.08571424999999522,
            "durationTicks": 96,
            "midi": 69,
            "name": "A4",
            "ticks": 75840,
            "time": 67.7142575,
            "velocity": 0.3937007874015748
          },
          {
            "duration": 0.08571424999999522,
            "durationTicks": 96,
            "midi": 53,
            "name": "F3",
            "ticks": 75840,
            "time": 67.7142575,
            "velocity": 0.3937007874015748
          },
          {
            "duration": 0.08571424999999522,
            "durationTicks": 96,
            "midi": 57,
            "name": "A3",
            "ticks": 75840,
            "time": 67.7142575,
            "velocity": 0.3937007874015748
          },
          {
            "duration": 0.08571424999999522,
            "durationTicks": 96,
            "midi": 50,
            "name": "D3",
            "ticks": 76032,
            "time": 67.885686,
            "velocity": 0.3937007874015748
          },
          {
            "duration": 0.08571424999999522,
            "durationTicks": 96,
            "midi": 62,
            "name": "D4",
            "ticks": 76032,
            "time": 67.885686,
            "velocity": 0.3937007874015748
          },
          {
            "duration": 0.08571424999999522,
            "durationTicks": 96,
            "midi": 53,
            "name": "F3",
            "ticks": 76224,
            "time": 68.05711450000001,
            "velocity": 0.3937007874015748
          },
          {
            "duration": 0.08571424999999522,
            "durationTicks": 96,
            "midi": 65,
            "name": "F4",
            "ticks": 76224,
            "time": 68.05711450000001,
            "velocity": 0.3937007874015748
          },
          {
            "duration": 0.08571424999999522,
            "durationTicks": 96,
            "midi": 57,
            "name": "A3",
            "ticks": 76224,
            "time": 68.05711450000001,
            "velocity": 0.3937007874015748
          },
          {
            "duration": 0.08571424999999522,
            "durationTicks": 96,
            "midi": 69,
            "name": "A4",
            "ticks": 76224,
            "time": 68.05711450000001,
            "velocity": 0.3937007874015748
          },
          {
            "duration": 0.08571424999999522,
            "durationTicks": 96,
            "midi": 69,
            "name": "A4",
            "ticks": 76608,
            "time": 68.3999715,
            "velocity": 0.3937007874015748
          },
          {
            "duration": 0.08571424999999522,
            "durationTicks": 96,
            "midi": 57,
            "name": "A3",
            "ticks": 76608,
            "time": 68.3999715,
            "velocity": 0.3937007874015748
          },
          {
            "duration": 0.08571424999999522,
            "durationTicks": 96,
            "midi": 65,
            "name": "F4",
            "ticks": 76608,
            "time": 68.3999715,
            "velocity": 0.3937007874015748
          },
          {
            "duration": 0.08571424999999522,
            "durationTicks": 96,
            "midi": 53,
            "name": "F3",
            "ticks": 76608,
            "time": 68.3999715,
            "velocity": 0.3937007874015748
          },
          {
            "duration": 0.08571424999999522,
            "durationTicks": 96,
            "midi": 46,
            "name": "A#2",
            "ticks": 76800,
            "time": 68.57140000000001,
            "velocity": 0.3937007874015748
          },
          {
            "duration": 0.08571424999999522,
            "durationTicks": 96,
            "midi": 58,
            "name": "A#3",
            "ticks": 76800,
            "time": 68.57140000000001,
            "velocity": 0.3937007874015748
          },
          {
            "duration": 0.08571425000000943,
            "durationTicks": 96,
            "midi": 53,
            "name": "F3",
            "ticks": 76992,
            "time": 68.7428285,
            "velocity": 0.3937007874015748
          },
          {
            "duration": 0.08571425000000943,
            "durationTicks": 96,
            "midi": 50,
            "name": "D3",
            "ticks": 76992,
            "time": 68.7428285,
            "velocity": 0.3937007874015748
          },
          {
            "duration": 0.08571425000000943,
            "durationTicks": 96,
            "midi": 65,
            "name": "F4",
            "ticks": 76992,
            "time": 68.7428285,
            "velocity": 0.3937007874015748
          },
          {
            "duration": 0.08571425000000943,
            "durationTicks": 96,
            "midi": 62,
            "name": "D4",
            "ticks": 76992,
            "time": 68.7428285,
            "velocity": 0.3937007874015748
          },
          {
            "duration": 0.08571424999999522,
            "durationTicks": 96,
            "midi": 53,
            "name": "F3",
            "ticks": 77376,
            "time": 69.08568550000001,
            "velocity": 0.3937007874015748
          },
          {
            "duration": 0.08571424999999522,
            "durationTicks": 96,
            "midi": 50,
            "name": "D3",
            "ticks": 77376,
            "time": 69.08568550000001,
            "velocity": 0.3937007874015748
          },
          {
            "duration": 0.08571424999999522,
            "durationTicks": 96,
            "midi": 62,
            "name": "D4",
            "ticks": 77376,
            "time": 69.08568550000001,
            "velocity": 0.3937007874015748
          },
          {
            "duration": 0.08571424999999522,
            "durationTicks": 96,
            "midi": 65,
            "name": "F4",
            "ticks": 77376,
            "time": 69.08568550000001,
            "velocity": 0.3937007874015748
          },
          {
            "duration": 0.08571425000000943,
            "durationTicks": 96,
            "midi": 60,
            "name": "C4",
            "ticks": 77568,
            "time": 69.257114,
            "velocity": 0.3937007874015748
          },
          {
            "duration": 0.08571425000000943,
            "durationTicks": 96,
            "midi": 48,
            "name": "C3",
            "ticks": 77568,
            "time": 69.257114,
            "velocity": 0.3937007874015748
          },
          {
            "duration": 0.08571424999999522,
            "durationTicks": 96,
            "midi": 64,
            "name": "E4",
            "ticks": 77760,
            "time": 69.4285425,
            "velocity": 0.3937007874015748
          },
          {
            "duration": 0.08571424999999522,
            "durationTicks": 96,
            "midi": 55,
            "name": "G3",
            "ticks": 77760,
            "time": 69.4285425,
            "velocity": 0.3937007874015748
          },
          {
            "duration": 0.08571424999999522,
            "durationTicks": 96,
            "midi": 52,
            "name": "E3",
            "ticks": 77760,
            "time": 69.4285425,
            "velocity": 0.3937007874015748
          },
          {
            "duration": 0.08571424999999522,
            "durationTicks": 96,
            "midi": 67,
            "name": "G4",
            "ticks": 77760,
            "time": 69.4285425,
            "velocity": 0.3937007874015748
          },
          {
            "duration": 0.08571425000000943,
            "durationTicks": 96,
            "midi": 52,
            "name": "E3",
            "ticks": 78144,
            "time": 69.7713995,
            "velocity": 0.3937007874015748
          },
          {
            "duration": 0.08571425000000943,
            "durationTicks": 96,
            "midi": 64,
            "name": "E4",
            "ticks": 78144,
            "time": 69.7713995,
            "velocity": 0.3937007874015748
          },
          {
            "duration": 0.08571425000000943,
            "durationTicks": 96,
            "midi": 67,
            "name": "G4",
            "ticks": 78144,
            "time": 69.7713995,
            "velocity": 0.3937007874015748
          },
          {
            "duration": 0.08571425000000943,
            "durationTicks": 96,
            "midi": 55,
            "name": "G3",
            "ticks": 78144,
            "time": 69.7713995,
            "velocity": 0.3937007874015748
          },
          {
            "duration": 0.08571424999999522,
            "durationTicks": 96,
            "midi": 50,
            "name": "D3",
            "ticks": 78336,
            "time": 69.942828,
            "velocity": 0.3937007874015748
          },
          {
            "duration": 0.08571424999999522,
            "durationTicks": 96,
            "midi": 62,
            "name": "D4",
            "ticks": 78336,
            "time": 69.942828,
            "velocity": 0.3937007874015748
          },
          {
            "duration": 0.08571424999999522,
            "durationTicks": 96,
            "midi": 65,
            "name": "F4",
            "ticks": 78528,
            "time": 70.11425650000001,
            "velocity": 0.3937007874015748
          },
          {
            "duration": 0.08571424999999522,
            "durationTicks": 96,
            "midi": 53,
            "name": "F3",
            "ticks": 78528,
            "time": 70.11425650000001,
            "velocity": 0.3937007874015748
          },
          {
            "duration": 0.08571424999999522,
            "durationTicks": 96,
            "midi": 57,
            "name": "A3",
            "ticks": 78528,
            "time": 70.11425650000001,
            "velocity": 0.3937007874015748
          },
          {
            "duration": 0.08571424999999522,
            "durationTicks": 96,
            "midi": 69,
            "name": "A4",
            "ticks": 78528,
            "time": 70.11425650000001,
            "velocity": 0.3937007874015748
          },
          {
            "duration": 0.08571425000000943,
            "durationTicks": 96,
            "midi": 62,
            "name": "D4",
            "ticks": 78720,
            "time": 70.285685,
            "velocity": 0.3937007874015748
          },
          {
            "duration": 0.08571425000000943,
            "durationTicks": 96,
            "midi": 50,
            "name": "D3",
            "ticks": 78720,
            "time": 70.285685,
            "velocity": 0.3937007874015748
          },
          {
            "duration": 0.08571424999999522,
            "durationTicks": 96,
            "midi": 67,
            "name": "G4",
            "ticks": 78912,
            "time": 70.4571135,
            "velocity": 0.3937007874015748
          },
          {
            "duration": 0.08571424999999522,
            "durationTicks": 96,
            "midi": 55,
            "name": "G3",
            "ticks": 78912,
            "time": 70.4571135,
            "velocity": 0.3937007874015748
          },
          {
            "duration": 0.08571424999999522,
            "durationTicks": 96,
            "midi": 60,
            "name": "C4",
            "ticks": 78912,
            "time": 70.4571135,
            "velocity": 0.3937007874015748
          },
          {
            "duration": 0.08571424999999522,
            "durationTicks": 96,
            "midi": 72,
            "name": "C5",
            "ticks": 78912,
            "time": 70.4571135,
            "velocity": 0.3937007874015748
          },
          {
            "duration": 0.08571424999999522,
            "durationTicks": 96,
            "midi": 62,
            "name": "D4",
            "ticks": 79104,
            "time": 70.62854200000001,
            "velocity": 0.3937007874015748
          },
          {
            "duration": 0.08571424999999522,
            "durationTicks": 96,
            "midi": 50,
            "name": "D3",
            "ticks": 79104,
            "time": 70.62854200000001,
            "velocity": 0.3937007874015748
          },
          {
            "duration": 0.08571425000000943,
            "durationTicks": 96,
            "midi": 69,
            "name": "A4",
            "ticks": 79296,
            "time": 70.7999705,
            "velocity": 0.3937007874015748
          },
          {
            "duration": 0.08571425000000943,
            "durationTicks": 96,
            "midi": 57,
            "name": "A3",
            "ticks": 79296,
            "time": 70.7999705,
            "velocity": 0.3937007874015748
          },
          {
            "duration": 0.08571425000000943,
            "durationTicks": 96,
            "midi": 62,
            "name": "D4",
            "ticks": 79296,
            "time": 70.7999705,
            "velocity": 0.3937007874015748
          },
          {
            "duration": 0.08571425000000943,
            "durationTicks": 96,
            "midi": 74,
            "name": "D5",
            "ticks": 79296,
            "time": 70.7999705,
            "velocity": 0.3937007874015748
          },
          {
            "duration": 0.08571424999999522,
            "durationTicks": 96,
            "midi": 50,
            "name": "D3",
            "ticks": 79488,
            "time": 70.971399,
            "velocity": 0.3937007874015748
          },
          {
            "duration": 0.08571424999999522,
            "durationTicks": 96,
            "midi": 62,
            "name": "D4",
            "ticks": 79488,
            "time": 70.971399,
            "velocity": 0.3937007874015748
          },
          {
            "duration": 0.08571424999999522,
            "durationTicks": 96,
            "midi": 53,
            "name": "F3",
            "ticks": 79680,
            "time": 71.14282750000001,
            "velocity": 0.3937007874015748
          },
          {
            "duration": 0.08571424999999522,
            "durationTicks": 96,
            "midi": 57,
            "name": "A3",
            "ticks": 79680,
            "time": 71.14282750000001,
            "velocity": 0.3937007874015748
          },
          {
            "duration": 0.08571424999999522,
            "durationTicks": 96,
            "midi": 65,
            "name": "F4",
            "ticks": 79680,
            "time": 71.14282750000001,
            "velocity": 0.3937007874015748
          },
          {
            "duration": 0.08571424999999522,
            "durationTicks": 96,
            "midi": 69,
            "name": "A4",
            "ticks": 79680,
            "time": 71.14282750000001,
            "velocity": 0.3937007874015748
          },
          {
            "duration": 0.08571425000000943,
            "durationTicks": 96,
            "midi": 46,
            "name": "A#2",
            "ticks": 79872,
            "time": 71.314256,
            "velocity": 0.3937007874015748
          },
          {
            "duration": 0.08571425000000943,
            "durationTicks": 96,
            "midi": 58,
            "name": "A#3",
            "ticks": 79872,
            "time": 71.314256,
            "velocity": 0.3937007874015748
          },
          {
            "duration": 0.08571424999999522,
            "durationTicks": 96,
            "midi": 62,
            "name": "D4",
            "ticks": 80064,
            "time": 71.4856845,
            "velocity": 0.3937007874015748
          },
          {
            "duration": 0.08571424999999522,
            "durationTicks": 96,
            "midi": 65,
            "name": "F4",
            "ticks": 80064,
            "time": 71.4856845,
            "velocity": 0.3937007874015748
          },
          {
            "duration": 0.08571424999999522,
            "durationTicks": 96,
            "midi": 50,
            "name": "D3",
            "ticks": 80064,
            "time": 71.4856845,
            "velocity": 0.3937007874015748
          },
          {
            "duration": 0.08571424999999522,
            "durationTicks": 96,
            "midi": 53,
            "name": "F3",
            "ticks": 80064,
            "time": 71.4856845,
            "velocity": 0.3937007874015748
          },
          {
            "duration": 0.08571425000000943,
            "durationTicks": 96,
            "midi": 53,
            "name": "F3",
            "ticks": 80448,
            "time": 71.8285415,
            "velocity": 0.3937007874015748
          },
          {
            "duration": 0.08571425000000943,
            "durationTicks": 96,
            "midi": 65,
            "name": "F4",
            "ticks": 80448,
            "time": 71.8285415,
            "velocity": 0.3937007874015748
          },
          {
            "duration": 0.08571425000000943,
            "durationTicks": 96,
            "midi": 62,
            "name": "D4",
            "ticks": 80448,
            "time": 71.8285415,
            "velocity": 0.3937007874015748
          },
          {
            "duration": 0.08571425000000943,
            "durationTicks": 96,
            "midi": 50,
            "name": "D3",
            "ticks": 80448,
            "time": 71.8285415,
            "velocity": 0.3937007874015748
          },
          {
            "duration": 0.08571424999999522,
            "durationTicks": 96,
            "midi": 60,
            "name": "C4",
            "ticks": 80640,
            "time": 71.99997,
            "velocity": 0.3937007874015748
          },
          {
            "duration": 0.08571424999999522,
            "durationTicks": 96,
            "midi": 48,
            "name": "C3",
            "ticks": 80640,
            "time": 71.99997,
            "velocity": 0.3937007874015748
          },
          {
            "duration": 0.08571424999999522,
            "durationTicks": 96,
            "midi": 55,
            "name": "G3",
            "ticks": 80832,
            "time": 72.17139850000001,
            "velocity": 0.3937007874015748
          },
          {
            "duration": 0.08571424999999522,
            "durationTicks": 96,
            "midi": 67,
            "name": "G4",
            "ticks": 80832,
            "time": 72.17139850000001,
            "velocity": 0.3937007874015748
          },
          {
            "duration": 0.08571424999999522,
            "durationTicks": 96,
            "midi": 52,
            "name": "E3",
            "ticks": 80832,
            "time": 72.17139850000001,
            "velocity": 0.3937007874015748
          },
          {
            "duration": 0.08571424999999522,
            "durationTicks": 96,
            "midi": 64,
            "name": "E4",
            "ticks": 80832,
            "time": 72.17139850000001,
            "velocity": 0.3937007874015748
          },
          {
            "duration": 0.08571424999999522,
            "durationTicks": 96,
            "midi": 67,
            "name": "G4",
            "ticks": 81216,
            "time": 72.5142555,
            "velocity": 0.3937007874015748
          },
          {
            "duration": 0.08571424999999522,
            "durationTicks": 96,
            "midi": 64,
            "name": "E4",
            "ticks": 81216,
            "time": 72.5142555,
            "velocity": 0.3937007874015748
          },
          {
            "duration": 0.08571424999999522,
            "durationTicks": 96,
            "midi": 52,
            "name": "E3",
            "ticks": 81216,
            "time": 72.5142555,
            "velocity": 0.3937007874015748
          },
          {
            "duration": 0.08571424999999522,
            "durationTicks": 96,
            "midi": 55,
            "name": "G3",
            "ticks": 81216,
            "time": 72.5142555,
            "velocity": 0.3937007874015748
          },
          {
            "duration": 0.08571424999999522,
            "durationTicks": 96,
            "midi": 50,
            "name": "D3",
            "ticks": 81408,
            "time": 72.68568400000001,
            "velocity": 0.3937007874015748
          },
          {
            "duration": 0.08571424999999522,
            "durationTicks": 96,
            "midi": 62,
            "name": "D4",
            "ticks": 81408,
            "time": 72.68568400000001,
            "velocity": 0.3937007874015748
          },
          {
            "duration": 0.08571425000000943,
            "durationTicks": 96,
            "midi": 57,
            "name": "A3",
            "ticks": 81600,
            "time": 72.8571125,
            "velocity": 0.3937007874015748
          },
          {
            "duration": 0.08571425000000943,
            "durationTicks": 96,
            "midi": 69,
            "name": "A4",
            "ticks": 81600,
            "time": 72.8571125,
            "velocity": 0.3937007874015748
          },
          {
            "duration": 0.08571425000000943,
            "durationTicks": 96,
            "midi": 65,
            "name": "F4",
            "ticks": 81600,
            "time": 72.8571125,
            "velocity": 0.3937007874015748
          },
          {
            "duration": 0.08571425000000943,
            "durationTicks": 96,
            "midi": 53,
            "name": "F3",
            "ticks": 81600,
            "time": 72.8571125,
            "velocity": 0.3937007874015748
          },
          {
            "duration": 0.08571424999999522,
            "durationTicks": 96,
            "midi": 65,
            "name": "F4",
            "ticks": 81984,
            "time": 73.19996950000001,
            "velocity": 0.3937007874015748
          },
          {
            "duration": 0.08571424999999522,
            "durationTicks": 96,
            "midi": 57,
            "name": "A3",
            "ticks": 81984,
            "time": 73.19996950000001,
            "velocity": 0.3937007874015748
          },
          {
            "duration": 0.08571424999999522,
            "durationTicks": 96,
            "midi": 69,
            "name": "A4",
            "ticks": 81984,
            "time": 73.19996950000001,
            "velocity": 0.3937007874015748
          },
          {
            "duration": 0.08571424999999522,
            "durationTicks": 96,
            "midi": 53,
            "name": "F3",
            "ticks": 81984,
            "time": 73.19996950000001,
            "velocity": 0.3937007874015748
          },
          {
            "duration": 0.08571425000000943,
            "durationTicks": 96,
            "midi": 62,
            "name": "D4",
            "ticks": 82176,
            "time": 73.371398,
            "velocity": 0.3937007874015748
          },
          {
            "duration": 0.08571425000000943,
            "durationTicks": 96,
            "midi": 50,
            "name": "D3",
            "ticks": 82176,
            "time": 73.371398,
            "velocity": 0.3937007874015748
          },
          {
            "duration": 0.08571424999999522,
            "durationTicks": 96,
            "midi": 69,
            "name": "A4",
            "ticks": 82368,
            "time": 73.5428265,
            "velocity": 0.3937007874015748
          },
          {
            "duration": 0.08571424999999522,
            "durationTicks": 96,
            "midi": 65,
            "name": "F4",
            "ticks": 82368,
            "time": 73.5428265,
            "velocity": 0.3937007874015748
          },
          {
            "duration": 0.08571424999999522,
            "durationTicks": 96,
            "midi": 53,
            "name": "F3",
            "ticks": 82368,
            "time": 73.5428265,
            "velocity": 0.3937007874015748
          },
          {
            "duration": 0.08571424999999522,
            "durationTicks": 96,
            "midi": 57,
            "name": "A3",
            "ticks": 82368,
            "time": 73.5428265,
            "velocity": 0.3937007874015748
          },
          {
            "duration": 0.08571425000000943,
            "durationTicks": 96,
            "midi": 57,
            "name": "A3",
            "ticks": 82752,
            "time": 73.8856835,
            "velocity": 0.3937007874015748
          },
          {
            "duration": 0.08571425000000943,
            "durationTicks": 96,
            "midi": 53,
            "name": "F3",
            "ticks": 82752,
            "time": 73.8856835,
            "velocity": 0.3937007874015748
          },
          {
            "duration": 0.08571425000000943,
            "durationTicks": 96,
            "midi": 69,
            "name": "A4",
            "ticks": 82752,
            "time": 73.8856835,
            "velocity": 0.3937007874015748
          },
          {
            "duration": 0.08571425000000943,
            "durationTicks": 96,
            "midi": 65,
            "name": "F4",
            "ticks": 82752,
            "time": 73.8856835,
            "velocity": 0.3937007874015748
          },
          {
            "duration": 0.08571424999999522,
            "durationTicks": 96,
            "midi": 58,
            "name": "A#3",
            "ticks": 82944,
            "time": 74.057112,
            "velocity": 0.3937007874015748
          },
          {
            "duration": 0.08571424999999522,
            "durationTicks": 96,
            "midi": 46,
            "name": "A#2",
            "ticks": 82944,
            "time": 74.057112,
            "velocity": 0.3937007874015748
          },
          {
            "duration": 0.08571424999999522,
            "durationTicks": 96,
            "midi": 50,
            "name": "D3",
            "ticks": 83136,
            "time": 74.22854050000001,
            "velocity": 0.3937007874015748
          },
          {
            "duration": 0.08571424999999522,
            "durationTicks": 96,
            "midi": 55,
            "name": "G3",
            "ticks": 83136,
            "time": 74.22854050000001,
            "velocity": 0.3937007874015748
          },
          {
            "duration": 0.08571424999999522,
            "durationTicks": 96,
            "midi": 62,
            "name": "D4",
            "ticks": 83136,
            "time": 74.22854050000001,
            "velocity": 0.3937007874015748
          },
          {
            "duration": 0.08571424999999522,
            "durationTicks": 96,
            "midi": 67,
            "name": "G4",
            "ticks": 83136,
            "time": 74.22854050000001,
            "velocity": 0.3937007874015748
          },
          {
            "duration": 0.08571424999999522,
            "durationTicks": 96,
            "midi": 62,
            "name": "D4",
            "ticks": 83520,
            "time": 74.5713975,
            "velocity": 0.3937007874015748
          },
          {
            "duration": 0.08571424999999522,
            "durationTicks": 96,
            "midi": 67,
            "name": "G4",
            "ticks": 83520,
            "time": 74.5713975,
            "velocity": 0.3937007874015748
          },
          {
            "duration": 0.08571424999999522,
            "durationTicks": 96,
            "midi": 50,
            "name": "D3",
            "ticks": 83520,
            "time": 74.5713975,
            "velocity": 0.3937007874015748
          },
          {
            "duration": 0.08571424999999522,
            "durationTicks": 96,
            "midi": 55,
            "name": "G3",
            "ticks": 83520,
            "time": 74.5713975,
            "velocity": 0.3937007874015748
          },
          {
            "duration": 0.08571424999999522,
            "durationTicks": 96,
            "midi": 48,
            "name": "C3",
            "ticks": 83712,
            "time": 74.74282600000001,
            "velocity": 0.3937007874015748
          },
          {
            "duration": 0.08571424999999522,
            "durationTicks": 96,
            "midi": 60,
            "name": "C4",
            "ticks": 83712,
            "time": 74.74282600000001,
            "velocity": 0.3937007874015748
          },
          {
            "duration": 0.08571425000000943,
            "durationTicks": 96,
            "midi": 69,
            "name": "A4",
            "ticks": 83904,
            "time": 74.9142545,
            "velocity": 0.3937007874015748
          },
          {
            "duration": 0.08571425000000943,
            "durationTicks": 96,
            "midi": 57,
            "name": "A3",
            "ticks": 83904,
            "time": 74.9142545,
            "velocity": 0.3937007874015748
          },
          {
            "duration": 0.08571425000000943,
            "durationTicks": 96,
            "midi": 64,
            "name": "E4",
            "ticks": 83904,
            "time": 74.9142545,
            "velocity": 0.3937007874015748
          },
          {
            "duration": 0.08571425000000943,
            "durationTicks": 96,
            "midi": 52,
            "name": "E3",
            "ticks": 83904,
            "time": 74.9142545,
            "velocity": 0.3937007874015748
          },
          {
            "duration": 0.08571424999999522,
            "durationTicks": 96,
            "midi": 52,
            "name": "E3",
            "ticks": 84288,
            "time": 75.25711150000001,
            "velocity": 0.3937007874015748
          },
          {
            "duration": 0.08571424999999522,
            "durationTicks": 96,
            "midi": 57,
            "name": "A3",
            "ticks": 84288,
            "time": 75.25711150000001,
            "velocity": 0.3937007874015748
          },
          {
            "duration": 0.08571424999999522,
            "durationTicks": 96,
            "midi": 64,
            "name": "E4",
            "ticks": 84288,
            "time": 75.25711150000001,
            "velocity": 0.3937007874015748
          },
          {
            "duration": 0.08571424999999522,
            "durationTicks": 96,
            "midi": 69,
            "name": "A4",
            "ticks": 84288,
            "time": 75.25711150000001,
            "velocity": 0.3937007874015748
          },
          {
            "duration": 0.08571425000000943,
            "durationTicks": 96,
            "midi": 62,
            "name": "D4",
            "ticks": 84480,
            "time": 75.42854,
            "velocity": 0.3937007874015748
          },
          {
            "duration": 0.08571425000000943,
            "durationTicks": 96,
            "midi": 50,
            "name": "D3",
            "ticks": 84480,
            "time": 75.42854,
            "velocity": 0.3937007874015748
          },
          {
            "duration": 0.08571424999999522,
            "durationTicks": 96,
            "midi": 70,
            "name": "A#4",
            "ticks": 84672,
            "time": 75.5999685,
            "velocity": 0.3937007874015748
          },
          {
            "duration": 0.08571424999999522,
            "durationTicks": 96,
            "midi": 65,
            "name": "F4",
            "ticks": 84672,
            "time": 75.5999685,
            "velocity": 0.3937007874015748
          },
          {
            "duration": 0.08571424999999522,
            "durationTicks": 96,
            "midi": 53,
            "name": "F3",
            "ticks": 84672,
            "time": 75.5999685,
            "velocity": 0.3937007874015748
          },
          {
            "duration": 0.08571424999999522,
            "durationTicks": 96,
            "midi": 58,
            "name": "A#3",
            "ticks": 84672,
            "time": 75.5999685,
            "velocity": 0.3937007874015748
          },
          {
            "duration": 0.08571424999999522,
            "durationTicks": 96,
            "midi": 55,
            "name": "G3",
            "ticks": 85056,
            "time": 75.94282550000001,
            "velocity": 0.3937007874015748
          },
          {
            "duration": 0.08571424999999522,
            "durationTicks": 96,
            "midi": 71,
            "name": "B4",
            "ticks": 85056,
            "time": 75.94282550000001,
            "velocity": 0.3937007874015748
          },
          {
            "duration": 0.08571424999999522,
            "durationTicks": 96,
            "midi": 67,
            "name": "G4",
            "ticks": 85056,
            "time": 75.94282550000001,
            "velocity": 0.3937007874015748
          },
          {
            "duration": 0.08571424999999522,
            "durationTicks": 96,
            "midi": 59,
            "name": "B3",
            "ticks": 85056,
            "time": 75.94282550000001,
            "velocity": 0.3937007874015748
          },
          {
            "duration": 0.08571425000000943,
            "durationTicks": 96,
            "midi": 60,
            "name": "C4",
            "ticks": 85248,
            "time": 76.114254,
            "velocity": 0.3937007874015748
          },
          {
            "duration": 0.08571425000000943,
            "durationTicks": 96,
            "midi": 57,
            "name": "A3",
            "ticks": 85248,
            "time": 76.114254,
            "velocity": 0.3937007874015748
          },
          {
            "duration": 0.08571425000000943,
            "durationTicks": 96,
            "midi": 69,
            "name": "A4",
            "ticks": 85248,
            "time": 76.114254,
            "velocity": 0.3937007874015748
          },
          {
            "duration": 0.08571425000000943,
            "durationTicks": 96,
            "midi": 72,
            "name": "C5",
            "ticks": 85248,
            "time": 76.114254,
            "velocity": 0.3937007874015748
          },
          {
            "duration": 0.08571425000000943,
            "durationTicks": 96,
            "midi": 60,
            "name": "C4",
            "ticks": 85536,
            "time": 76.37139675,
            "velocity": 0.3937007874015748
          },
          {
            "duration": 0.08571425000000943,
            "durationTicks": 96,
            "midi": 57,
            "name": "A3",
            "ticks": 85536,
            "time": 76.37139675,
            "velocity": 0.3937007874015748
          },
          {
            "duration": 0.08571425000000943,
            "durationTicks": 96,
            "midi": 72,
            "name": "C5",
            "ticks": 85536,
            "time": 76.37139675,
            "velocity": 0.3937007874015748
          },
          {
            "duration": 0.08571425000000943,
            "durationTicks": 96,
            "midi": 69,
            "name": "A4",
            "ticks": 85536,
            "time": 76.37139675,
            "velocity": 0.3937007874015748
          },
          {
            "duration": 0.08571425000000943,
            "durationTicks": 96,
            "midi": 60,
            "name": "C4",
            "ticks": 85824,
            "time": 76.6285395,
            "velocity": 0.3937007874015748
          },
          {
            "duration": 0.08571425000000943,
            "durationTicks": 96,
            "midi": 69,
            "name": "A4",
            "ticks": 85824,
            "time": 76.6285395,
            "velocity": 0.3937007874015748
          },
          {
            "duration": 0.08571425000000943,
            "durationTicks": 96,
            "midi": 72,
            "name": "C5",
            "ticks": 85824,
            "time": 76.6285395,
            "velocity": 0.3937007874015748
          },
          {
            "duration": 0.08571425000000943,
            "durationTicks": 96,
            "midi": 57,
            "name": "A3",
            "ticks": 85824,
            "time": 76.6285395,
            "velocity": 0.3937007874015748
          },
          {
            "duration": 0.08571424999999522,
            "durationTicks": 96,
            "midi": 47,
            "name": "B2",
            "ticks": 86016,
            "time": 76.799968,
            "velocity": 0.3937007874015748
          },
          {
            "duration": 0.08571424999999522,
            "durationTicks": 96,
            "midi": 59,
            "name": "B3",
            "ticks": 86016,
            "time": 76.799968,
            "velocity": 0.3937007874015748
          },
          {
            "duration": 0.08571424999999522,
            "durationTicks": 96,
            "midi": 54,
            "name": "F#3",
            "ticks": 86208,
            "time": 76.97139650000001,
            "velocity": 0.3937007874015748
          },
          {
            "duration": 0.08571424999999522,
            "durationTicks": 96,
            "midi": 63,
            "name": "D#4",
            "ticks": 86208,
            "time": 76.97139650000001,
            "velocity": 0.3937007874015748
          },
          {
            "duration": 0.08571424999999522,
            "durationTicks": 96,
            "midi": 51,
            "name": "D#3",
            "ticks": 86208,
            "time": 76.97139650000001,
            "velocity": 0.3937007874015748
          },
          {
            "duration": 0.08571424999999522,
            "durationTicks": 96,
            "midi": 66,
            "name": "F#4",
            "ticks": 86208,
            "time": 76.97139650000001,
            "velocity": 0.3937007874015748
          },
          {
            "duration": 0.08571424999999522,
            "durationTicks": 96,
            "midi": 66,
            "name": "F#4",
            "ticks": 86592,
            "time": 77.3142535,
            "velocity": 0.3937007874015748
          },
          {
            "duration": 0.08571424999999522,
            "durationTicks": 96,
            "midi": 51,
            "name": "D#3",
            "ticks": 86592,
            "time": 77.3142535,
            "velocity": 0.3937007874015748
          },
          {
            "duration": 0.08571424999999522,
            "durationTicks": 96,
            "midi": 63,
            "name": "D#4",
            "ticks": 86592,
            "time": 77.3142535,
            "velocity": 0.3937007874015748
          },
          {
            "duration": 0.08571424999999522,
            "durationTicks": 96,
            "midi": 54,
            "name": "F#3",
            "ticks": 86592,
            "time": 77.3142535,
            "velocity": 0.3937007874015748
          },
          {
            "duration": 0.08571424999999522,
            "durationTicks": 96,
            "midi": 49,
            "name": "C#3",
            "ticks": 86784,
            "time": 77.48568200000001,
            "velocity": 0.3937007874015748
          },
          {
            "duration": 0.08571424999999522,
            "durationTicks": 96,
            "midi": 61,
            "name": "C#4",
            "ticks": 86784,
            "time": 77.48568200000001,
            "velocity": 0.3937007874015748
          },
          {
            "duration": 0.08571425000000943,
            "durationTicks": 96,
            "midi": 53,
            "name": "F3",
            "ticks": 86976,
            "time": 77.6571105,
            "velocity": 0.3937007874015748
          },
          {
            "duration": 0.08571425000000943,
            "durationTicks": 96,
            "midi": 65,
            "name": "F4",
            "ticks": 86976,
            "time": 77.6571105,
            "velocity": 0.3937007874015748
          },
          {
            "duration": 0.08571425000000943,
            "durationTicks": 96,
            "midi": 56,
            "name": "G#3",
            "ticks": 86976,
            "time": 77.6571105,
            "velocity": 0.3937007874015748
          },
          {
            "duration": 0.08571425000000943,
            "durationTicks": 96,
            "midi": 68,
            "name": "G#4",
            "ticks": 86976,
            "time": 77.6571105,
            "velocity": 0.3937007874015748
          },
          {
            "duration": 0.08571424999999522,
            "durationTicks": 96,
            "midi": 53,
            "name": "F3",
            "ticks": 87360,
            "time": 77.99996750000001,
            "velocity": 0.3937007874015748
          },
          {
            "duration": 0.08571424999999522,
            "durationTicks": 96,
            "midi": 65,
            "name": "F4",
            "ticks": 87360,
            "time": 77.99996750000001,
            "velocity": 0.3937007874015748
          },
          {
            "duration": 0.08571424999999522,
            "durationTicks": 96,
            "midi": 56,
            "name": "G#3",
            "ticks": 87360,
            "time": 77.99996750000001,
            "velocity": 0.3937007874015748
          },
          {
            "duration": 0.08571424999999522,
            "durationTicks": 96,
            "midi": 68,
            "name": "G#4",
            "ticks": 87360,
            "time": 77.99996750000001,
            "velocity": 0.3937007874015748
          },
          {
            "duration": 0.08571425000000943,
            "durationTicks": 96,
            "midi": 63,
            "name": "D#4",
            "ticks": 87552,
            "time": 78.171396,
            "velocity": 0.3937007874015748
          },
          {
            "duration": 0.08571425000000943,
            "durationTicks": 96,
            "midi": 51,
            "name": "D#3",
            "ticks": 87552,
            "time": 78.171396,
            "velocity": 0.3937007874015748
          },
          {
            "duration": 0.08571424999999522,
            "durationTicks": 96,
            "midi": 66,
            "name": "F#4",
            "ticks": 87744,
            "time": 78.3428245,
            "velocity": 0.3937007874015748
          },
          {
            "duration": 0.08571424999999522,
            "durationTicks": 96,
            "midi": 70,
            "name": "A#4",
            "ticks": 87744,
            "time": 78.3428245,
            "velocity": 0.3937007874015748
          },
          {
            "duration": 0.08571424999999522,
            "durationTicks": 96,
            "midi": 54,
            "name": "F#3",
            "ticks": 87744,
            "time": 78.3428245,
            "velocity": 0.3937007874015748
          },
          {
            "duration": 0.08571424999999522,
            "durationTicks": 96,
            "midi": 58,
            "name": "A#3",
            "ticks": 87744,
            "time": 78.3428245,
            "velocity": 0.3937007874015748
          },
          {
            "duration": 0.08571425000000943,
            "durationTicks": 96,
            "midi": 70,
            "name": "A#4",
            "ticks": 88128,
            "time": 78.6856815,
            "velocity": 0.3937007874015748
          },
          {
            "duration": 0.08571425000000943,
            "durationTicks": 96,
            "midi": 66,
            "name": "F#4",
            "ticks": 88128,
            "time": 78.6856815,
            "velocity": 0.3937007874015748
          },
          {
            "duration": 0.08571425000000943,
            "durationTicks": 96,
            "midi": 58,
            "name": "A#3",
            "ticks": 88128,
            "time": 78.6856815,
            "velocity": 0.3937007874015748
          },
          {
            "duration": 0.08571425000000943,
            "durationTicks": 96,
            "midi": 54,
            "name": "F#3",
            "ticks": 88128,
            "time": 78.6856815,
            "velocity": 0.3937007874015748
          },
          {
            "duration": 0.08571424999999522,
            "durationTicks": 96,
            "midi": 63,
            "name": "D#4",
            "ticks": 88320,
            "time": 78.85711,
            "velocity": 0.3937007874015748
          },
          {
            "duration": 0.08571424999999522,
            "durationTicks": 96,
            "midi": 51,
            "name": "D#3",
            "ticks": 88320,
            "time": 78.85711,
            "velocity": 0.3937007874015748
          },
          {
            "duration": 0.08571424999999522,
            "durationTicks": 96,
            "midi": 58,
            "name": "A#3",
            "ticks": 88512,
            "time": 79.02853850000001,
            "velocity": 0.3937007874015748
          },
          {
            "duration": 0.08571424999999522,
            "durationTicks": 96,
            "midi": 66,
            "name": "F#4",
            "ticks": 88512,
            "time": 79.02853850000001,
            "velocity": 0.3937007874015748
          },
          {
            "duration": 0.08571424999999522,
            "durationTicks": 96,
            "midi": 70,
            "name": "A#4",
            "ticks": 88512,
            "time": 79.02853850000001,
            "velocity": 0.3937007874015748
          },
          {
            "duration": 0.08571424999999522,
            "durationTicks": 96,
            "midi": 54,
            "name": "F#3",
            "ticks": 88512,
            "time": 79.02853850000001,
            "velocity": 0.3937007874015748
          },
          {
            "duration": 0.08571424999999522,
            "durationTicks": 96,
            "midi": 66,
            "name": "F#4",
            "ticks": 88896,
            "time": 79.3713955,
            "velocity": 0.3937007874015748
          },
          {
            "duration": 0.08571424999999522,
            "durationTicks": 96,
            "midi": 54,
            "name": "F#3",
            "ticks": 88896,
            "time": 79.3713955,
            "velocity": 0.3937007874015748
          },
          {
            "duration": 0.08571424999999522,
            "durationTicks": 96,
            "midi": 70,
            "name": "A#4",
            "ticks": 88896,
            "time": 79.3713955,
            "velocity": 0.3937007874015748
          },
          {
            "duration": 0.08571424999999522,
            "durationTicks": 96,
            "midi": 58,
            "name": "A#3",
            "ticks": 88896,
            "time": 79.3713955,
            "velocity": 0.3937007874015748
          },
          {
            "duration": 0.08571424999999522,
            "durationTicks": 96,
            "midi": 59,
            "name": "B3",
            "ticks": 89088,
            "time": 79.54282400000001,
            "velocity": 0.3937007874015748
          },
          {
            "duration": 0.08571424999999522,
            "durationTicks": 96,
            "midi": 47,
            "name": "B2",
            "ticks": 89088,
            "time": 79.54282400000001,
            "velocity": 0.3937007874015748
          },
          {
            "duration": 0.08571425000000943,
            "durationTicks": 96,
            "midi": 51,
            "name": "D#3",
            "ticks": 89280,
            "time": 79.7142525,
            "velocity": 0.3937007874015748
          },
          {
            "duration": 0.08571425000000943,
            "durationTicks": 96,
            "midi": 54,
            "name": "F#3",
            "ticks": 89280,
            "time": 79.7142525,
            "velocity": 0.3937007874015748
          },
          {
            "duration": 0.08571425000000943,
            "durationTicks": 96,
            "midi": 66,
            "name": "F#4",
            "ticks": 89280,
            "time": 79.7142525,
            "velocity": 0.3937007874015748
          },
          {
            "duration": 0.08571425000000943,
            "durationTicks": 96,
            "midi": 63,
            "name": "D#4",
            "ticks": 89280,
            "time": 79.7142525,
            "velocity": 0.3937007874015748
          },
          {
            "duration": 0.08571424999999522,
            "durationTicks": 96,
            "midi": 51,
            "name": "D#3",
            "ticks": 89664,
            "time": 80.05710950000001,
            "velocity": 0.3937007874015748
          },
          {
            "duration": 0.08571424999999522,
            "durationTicks": 96,
            "midi": 63,
            "name": "D#4",
            "ticks": 89664,
            "time": 80.05710950000001,
            "velocity": 0.3937007874015748
          },
          {
            "duration": 0.08571424999999522,
            "durationTicks": 96,
            "midi": 54,
            "name": "F#3",
            "ticks": 89664,
            "time": 80.05710950000001,
            "velocity": 0.3937007874015748
          },
          {
            "duration": 0.08571424999999522,
            "durationTicks": 96,
            "midi": 66,
            "name": "F#4",
            "ticks": 89664,
            "time": 80.05710950000001,
            "velocity": 0.3937007874015748
          },
          {
            "duration": 0.08571425000000943,
            "durationTicks": 96,
            "midi": 49,
            "name": "C#3",
            "ticks": 89856,
            "time": 80.228538,
            "velocity": 0.3937007874015748
          },
          {
            "duration": 0.08571425000000943,
            "durationTicks": 96,
            "midi": 61,
            "name": "C#4",
            "ticks": 89856,
            "time": 80.228538,
            "velocity": 0.3937007874015748
          },
          {
            "duration": 0.08571424999999522,
            "durationTicks": 96,
            "midi": 68,
            "name": "G#4",
            "ticks": 90048,
            "time": 80.3999665,
            "velocity": 0.3937007874015748
          },
          {
            "duration": 0.08571424999999522,
            "durationTicks": 96,
            "midi": 65,
            "name": "F4",
            "ticks": 90048,
            "time": 80.3999665,
            "velocity": 0.3937007874015748
          },
          {
            "duration": 0.08571424999999522,
            "durationTicks": 96,
            "midi": 53,
            "name": "F3",
            "ticks": 90048,
            "time": 80.3999665,
            "velocity": 0.3937007874015748
          },
          {
            "duration": 0.08571424999999522,
            "durationTicks": 96,
            "midi": 56,
            "name": "G#3",
            "ticks": 90048,
            "time": 80.3999665,
            "velocity": 0.3937007874015748
          },
          {
            "duration": 0.08571425000000943,
            "durationTicks": 96,
            "midi": 68,
            "name": "G#4",
            "ticks": 90432,
            "time": 80.7428235,
            "velocity": 0.3937007874015748
          },
          {
            "duration": 0.08571425000000943,
            "durationTicks": 96,
            "midi": 65,
            "name": "F4",
            "ticks": 90432,
            "time": 80.7428235,
            "velocity": 0.3937007874015748
          },
          {
            "duration": 0.08571425000000943,
            "durationTicks": 96,
            "midi": 56,
            "name": "G#3",
            "ticks": 90432,
            "time": 80.7428235,
            "velocity": 0.3937007874015748
          },
          {
            "duration": 0.08571425000000943,
            "durationTicks": 96,
            "midi": 53,
            "name": "F3",
            "ticks": 90432,
            "time": 80.7428235,
            "velocity": 0.3937007874015748
          },
          {
            "duration": 0.08571424999999522,
            "durationTicks": 96,
            "midi": 51,
            "name": "D#3",
            "ticks": 90624,
            "time": 80.914252,
            "velocity": 0.3937007874015748
          },
          {
            "duration": 0.08571424999999522,
            "durationTicks": 96,
            "midi": 63,
            "name": "D#4",
            "ticks": 90624,
            "time": 80.914252,
            "velocity": 0.3937007874015748
          },
          {
            "duration": 0.08571424999999522,
            "durationTicks": 96,
            "midi": 54,
            "name": "F#3",
            "ticks": 90816,
            "time": 81.08568050000001,
            "velocity": 0.3937007874015748
          },
          {
            "duration": 0.08571424999999522,
            "durationTicks": 96,
            "midi": 70,
            "name": "A#4",
            "ticks": 90816,
            "time": 81.08568050000001,
            "velocity": 0.3937007874015748
          },
          {
            "duration": 0.08571424999999522,
            "durationTicks": 96,
            "midi": 58,
            "name": "A#3",
            "ticks": 90816,
            "time": 81.08568050000001,
            "velocity": 0.3937007874015748
          },
          {
            "duration": 0.08571424999999522,
            "durationTicks": 96,
            "midi": 66,
            "name": "F#4",
            "ticks": 90816,
            "time": 81.08568050000001,
            "velocity": 0.3937007874015748
          },
          {
            "duration": 0.08571425000000943,
            "durationTicks": 96,
            "midi": 63,
            "name": "D#4",
            "ticks": 91008,
            "time": 81.257109,
            "velocity": 0.3937007874015748
          },
          {
            "duration": 0.08571425000000943,
            "durationTicks": 96,
            "midi": 51,
            "name": "D#3",
            "ticks": 91008,
            "time": 81.257109,
            "velocity": 0.3937007874015748
          },
          {
            "duration": 0.08571424999999522,
            "durationTicks": 96,
            "midi": 61,
            "name": "C#4",
            "ticks": 91200,
            "time": 81.4285375,
            "velocity": 0.3937007874015748
          },
          {
            "duration": 0.08571424999999522,
            "durationTicks": 96,
            "midi": 68,
            "name": "G#4",
            "ticks": 91200,
            "time": 81.4285375,
            "velocity": 0.3937007874015748
          },
          {
            "duration": 0.08571424999999522,
            "durationTicks": 96,
            "midi": 73,
            "name": "C#5",
            "ticks": 91200,
            "time": 81.4285375,
            "velocity": 0.3937007874015748
          },
          {
            "duration": 0.08571424999999522,
            "durationTicks": 96,
            "midi": 56,
            "name": "G#3",
            "ticks": 91200,
            "time": 81.4285375,
            "velocity": 0.3937007874015748
          },
          {
            "duration": 0.08571424999999522,
            "durationTicks": 96,
            "midi": 51,
            "name": "D#3",
            "ticks": 91392,
            "time": 81.59996600000001,
            "velocity": 0.3937007874015748
          },
          {
            "duration": 0.08571424999999522,
            "durationTicks": 96,
            "midi": 63,
            "name": "D#4",
            "ticks": 91392,
            "time": 81.59996600000001,
            "velocity": 0.3937007874015748
          },
          {
            "duration": 0.08571425000000943,
            "durationTicks": 96,
            "midi": 70,
            "name": "A#4",
            "ticks": 91584,
            "time": 81.7713945,
            "velocity": 0.3937007874015748
          },
          {
            "duration": 0.08571425000000943,
            "durationTicks": 96,
            "midi": 75,
            "name": "D#5",
            "ticks": 91584,
            "time": 81.7713945,
            "velocity": 0.3937007874015748
          },
          {
            "duration": 0.08571425000000943,
            "durationTicks": 96,
            "midi": 58,
            "name": "A#3",
            "ticks": 91584,
            "time": 81.7713945,
            "velocity": 0.3937007874015748
          },
          {
            "duration": 0.08571425000000943,
            "durationTicks": 96,
            "midi": 63,
            "name": "D#4",
            "ticks": 91584,
            "time": 81.7713945,
            "velocity": 0.3937007874015748
          },
          {
            "duration": 0.08571424999999522,
            "durationTicks": 96,
            "midi": 51,
            "name": "D#3",
            "ticks": 91776,
            "time": 81.942823,
            "velocity": 0.3937007874015748
          },
          {
            "duration": 0.08571424999999522,
            "durationTicks": 96,
            "midi": 63,
            "name": "D#4",
            "ticks": 91776,
            "time": 81.942823,
            "velocity": 0.3937007874015748
          },
          {
            "duration": 0.08571424999999522,
            "durationTicks": 96,
            "midi": 54,
            "name": "F#3",
            "ticks": 91968,
            "time": 82.11425150000001,
            "velocity": 0.3937007874015748
          },
          {
            "duration": 0.08571424999999522,
            "durationTicks": 96,
            "midi": 66,
            "name": "F#4",
            "ticks": 91968,
            "time": 82.11425150000001,
            "velocity": 0.3937007874015748
          },
          {
            "duration": 0.08571424999999522,
            "durationTicks": 96,
            "midi": 70,
            "name": "A#4",
            "ticks": 91968,
            "time": 82.11425150000001,
            "velocity": 0.3937007874015748
          },
          {
            "duration": 0.08571424999999522,
            "durationTicks": 96,
            "midi": 58,
            "name": "A#3",
            "ticks": 91968,
            "time": 82.11425150000001,
            "velocity": 0.3937007874015748
          },
          {
            "duration": 0.08571425000000943,
            "durationTicks": 96,
            "midi": 47,
            "name": "B2",
            "ticks": 92160,
            "time": 82.28568,
            "velocity": 0.3937007874015748
          },
          {
            "duration": 0.08571425000000943,
            "durationTicks": 96,
            "midi": 59,
            "name": "B3",
            "ticks": 92160,
            "time": 82.28568,
            "velocity": 0.3937007874015748
          },
          {
            "duration": 0.08571424999999522,
            "durationTicks": 96,
            "midi": 63,
            "name": "D#4",
            "ticks": 92352,
            "time": 82.4571085,
            "velocity": 0.3937007874015748
          },
          {
            "duration": 0.08571424999999522,
            "durationTicks": 96,
            "midi": 66,
            "name": "F#4",
            "ticks": 92352,
            "time": 82.4571085,
            "velocity": 0.3937007874015748
          },
          {
            "duration": 0.08571424999999522,
            "durationTicks": 96,
            "midi": 51,
            "name": "D#3",
            "ticks": 92352,
            "time": 82.4571085,
            "velocity": 0.3937007874015748
          },
          {
            "duration": 0.08571424999999522,
            "durationTicks": 96,
            "midi": 54,
            "name": "F#3",
            "ticks": 92352,
            "time": 82.4571085,
            "velocity": 0.3937007874015748
          },
          {
            "duration": 0.08571425000000943,
            "durationTicks": 96,
            "midi": 54,
            "name": "F#3",
            "ticks": 92736,
            "time": 82.7999655,
            "velocity": 0.3937007874015748
          },
          {
            "duration": 0.08571425000000943,
            "durationTicks": 96,
            "midi": 66,
            "name": "F#4",
            "ticks": 92736,
            "time": 82.7999655,
            "velocity": 0.3937007874015748
          },
          {
            "duration": 0.08571425000000943,
            "durationTicks": 96,
            "midi": 51,
            "name": "D#3",
            "ticks": 92736,
            "time": 82.7999655,
            "velocity": 0.3937007874015748
          },
          {
            "duration": 0.08571425000000943,
            "durationTicks": 96,
            "midi": 63,
            "name": "D#4",
            "ticks": 92736,
            "time": 82.7999655,
            "velocity": 0.3937007874015748
          },
          {
            "duration": 0.08571424999999522,
            "durationTicks": 96,
            "midi": 61,
            "name": "C#4",
            "ticks": 92928,
            "time": 82.971394,
            "velocity": 0.3937007874015748
          },
          {
            "duration": 0.08571424999999522,
            "durationTicks": 96,
            "midi": 49,
            "name": "C#3",
            "ticks": 92928,
            "time": 82.971394,
            "velocity": 0.3937007874015748
          },
          {
            "duration": 0.08571424999999522,
            "durationTicks": 96,
            "midi": 65,
            "name": "F4",
            "ticks": 93120,
            "time": 83.14282250000001,
            "velocity": 0.3937007874015748
          },
          {
            "duration": 0.08571424999999522,
            "durationTicks": 96,
            "midi": 56,
            "name": "G#3",
            "ticks": 93120,
            "time": 83.14282250000001,
            "velocity": 0.3937007874015748
          },
          {
            "duration": 0.08571424999999522,
            "durationTicks": 96,
            "midi": 68,
            "name": "G#4",
            "ticks": 93120,
            "time": 83.14282250000001,
            "velocity": 0.3937007874015748
          },
          {
            "duration": 0.08571424999999522,
            "durationTicks": 96,
            "midi": 53,
            "name": "F3",
            "ticks": 93120,
            "time": 83.14282250000001,
            "velocity": 0.3937007874015748
          },
          {
            "duration": 0.08571424999999522,
            "durationTicks": 96,
            "midi": 53,
            "name": "F3",
            "ticks": 93504,
            "time": 83.4856795,
            "velocity": 0.3937007874015748
          },
          {
            "duration": 0.08571424999999522,
            "durationTicks": 96,
            "midi": 68,
            "name": "G#4",
            "ticks": 93504,
            "time": 83.4856795,
            "velocity": 0.3937007874015748
          },
          {
            "duration": 0.08571424999999522,
            "durationTicks": 96,
            "midi": 65,
            "name": "F4",
            "ticks": 93504,
            "time": 83.4856795,
            "velocity": 0.3937007874015748
          },
          {
            "duration": 0.08571424999999522,
            "durationTicks": 96,
            "midi": 56,
            "name": "G#3",
            "ticks": 93504,
            "time": 83.4856795,
            "velocity": 0.3937007874015748
          },
          {
            "duration": 0.08571424999999522,
            "durationTicks": 96,
            "midi": 63,
            "name": "D#4",
            "ticks": 93696,
            "time": 83.65710800000001,
            "velocity": 0.3937007874015748
          },
          {
            "duration": 0.08571424999999522,
            "durationTicks": 96,
            "midi": 51,
            "name": "D#3",
            "ticks": 93696,
            "time": 83.65710800000001,
            "velocity": 0.3937007874015748
          },
          {
            "duration": 0.08571424999999522,
            "durationTicks": 96,
            "midi": 66,
            "name": "F#4",
            "ticks": 93888,
            "time": 83.82853650000001,
            "velocity": 0.3937007874015748
          },
          {
            "duration": 0.08571424999999522,
            "durationTicks": 96,
            "midi": 58,
            "name": "A#3",
            "ticks": 93888,
            "time": 83.82853650000001,
            "velocity": 0.3937007874015748
          },
          {
            "duration": 0.08571424999999522,
            "durationTicks": 96,
            "midi": 54,
            "name": "F#3",
            "ticks": 93888,
            "time": 83.82853650000001,
            "velocity": 0.3937007874015748
          },
          {
            "duration": 0.08571424999999522,
            "durationTicks": 96,
            "midi": 70,
            "name": "A#4",
            "ticks": 93888,
            "time": 83.82853650000001,
            "velocity": 0.3937007874015748
          },
          {
            "duration": 0.08571424999999522,
            "durationTicks": 96,
            "midi": 70,
            "name": "A#4",
            "ticks": 94272,
            "time": 84.17139350000001,
            "velocity": 0.3937007874015748
          },
          {
            "duration": 0.08571424999999522,
            "durationTicks": 96,
            "midi": 58,
            "name": "A#3",
            "ticks": 94272,
            "time": 84.17139350000001,
            "velocity": 0.3937007874015748
          },
          {
            "duration": 0.08571424999999522,
            "durationTicks": 96,
            "midi": 66,
            "name": "F#4",
            "ticks": 94272,
            "time": 84.17139350000001,
            "velocity": 0.3937007874015748
          },
          {
            "duration": 0.08571424999999522,
            "durationTicks": 96,
            "midi": 54,
            "name": "F#3",
            "ticks": 94272,
            "time": 84.17139350000001,
            "velocity": 0.3937007874015748
          },
          {
            "duration": 0.08571424999999522,
            "durationTicks": 96,
            "midi": 51,
            "name": "D#3",
            "ticks": 94464,
            "time": 84.34282200000001,
            "velocity": 0.3937007874015748
          },
          {
            "duration": 0.08571424999999522,
            "durationTicks": 96,
            "midi": 63,
            "name": "D#4",
            "ticks": 94464,
            "time": 84.34282200000001,
            "velocity": 0.3937007874015748
          },
          {
            "duration": 0.08571425000000943,
            "durationTicks": 96,
            "midi": 54,
            "name": "F#3",
            "ticks": 94656,
            "time": 84.5142505,
            "velocity": 0.3937007874015748
          },
          {
            "duration": 0.08571425000000943,
            "durationTicks": 96,
            "midi": 66,
            "name": "F#4",
            "ticks": 94656,
            "time": 84.5142505,
            "velocity": 0.3937007874015748
          },
          {
            "duration": 0.08571425000000943,
            "durationTicks": 96,
            "midi": 58,
            "name": "A#3",
            "ticks": 94656,
            "time": 84.5142505,
            "velocity": 0.3937007874015748
          },
          {
            "duration": 0.08571425000000943,
            "durationTicks": 96,
            "midi": 70,
            "name": "A#4",
            "ticks": 94656,
            "time": 84.5142505,
            "velocity": 0.3937007874015748
          },
          {
            "duration": 0.08571424999999522,
            "durationTicks": 96,
            "midi": 70,
            "name": "A#4",
            "ticks": 95040,
            "time": 84.85710750000001,
            "velocity": 0.3937007874015748
          },
          {
            "duration": 0.08571424999999522,
            "durationTicks": 96,
            "midi": 58,
            "name": "A#3",
            "ticks": 95040,
            "time": 84.85710750000001,
            "velocity": 0.3937007874015748
          },
          {
            "duration": 0.08571424999999522,
            "durationTicks": 96,
            "midi": 54,
            "name": "F#3",
            "ticks": 95040,
            "time": 84.85710750000001,
            "velocity": 0.3937007874015748
          },
          {
            "duration": 0.08571424999999522,
            "durationTicks": 96,
            "midi": 66,
            "name": "F#4",
            "ticks": 95040,
            "time": 84.85710750000001,
            "velocity": 0.3937007874015748
          },
          {
            "duration": 0.08571425000000943,
            "durationTicks": 96,
            "midi": 59,
            "name": "B3",
            "ticks": 95232,
            "time": 85.028536,
            "velocity": 0.3937007874015748
          },
          {
            "duration": 0.08571425000000943,
            "durationTicks": 96,
            "midi": 47,
            "name": "B2",
            "ticks": 95232,
            "time": 85.028536,
            "velocity": 0.3937007874015748
          },
          {
            "duration": 0.08571424999999522,
            "durationTicks": 96,
            "midi": 63,
            "name": "D#4",
            "ticks": 95424,
            "time": 85.19996450000001,
            "velocity": 0.3937007874015748
          },
          {
            "duration": 0.08571424999999522,
            "durationTicks": 96,
            "midi": 68,
            "name": "G#4",
            "ticks": 95424,
            "time": 85.19996450000001,
            "velocity": 0.3937007874015748
          },
          {
            "duration": 0.08571424999999522,
            "durationTicks": 96,
            "midi": 51,
            "name": "D#3",
            "ticks": 95424,
            "time": 85.19996450000001,
            "velocity": 0.3937007874015748
          },
          {
            "duration": 0.08571424999999522,
            "durationTicks": 96,
            "midi": 56,
            "name": "G#3",
            "ticks": 95424,
            "time": 85.19996450000001,
            "velocity": 0.3937007874015748
          },
          {
            "duration": 0.08571425000000943,
            "durationTicks": 96,
            "midi": 56,
            "name": "G#3",
            "ticks": 95808,
            "time": 85.5428215,
            "velocity": 0.3937007874015748
          },
          {
            "duration": 0.08571425000000943,
            "durationTicks": 96,
            "midi": 51,
            "name": "D#3",
            "ticks": 95808,
            "time": 85.5428215,
            "velocity": 0.3937007874015748
          },
          {
            "duration": 0.08571425000000943,
            "durationTicks": 96,
            "midi": 68,
            "name": "G#4",
            "ticks": 95808,
            "time": 85.5428215,
            "velocity": 0.3937007874015748
          },
          {
            "duration": 0.08571425000000943,
            "durationTicks": 96,
            "midi": 63,
            "name": "D#4",
            "ticks": 95808,
            "time": 85.5428215,
            "velocity": 0.3937007874015748
          },
          {
            "duration": 0.08571424999999522,
            "durationTicks": 96,
            "midi": 61,
            "name": "C#4",
            "ticks": 96000,
            "time": 85.71425,
            "velocity": 0.3937007874015748
          },
          {
            "duration": 0.08571424999999522,
            "durationTicks": 96,
            "midi": 49,
            "name": "C#3",
            "ticks": 96000,
            "time": 85.71425,
            "velocity": 0.3937007874015748
          },
          {
            "duration": 0.08571424999999522,
            "durationTicks": 96,
            "midi": 58,
            "name": "A#3",
            "ticks": 96192,
            "time": 85.88567850000001,
            "velocity": 0.3937007874015748
          },
          {
            "duration": 0.08571424999999522,
            "durationTicks": 96,
            "midi": 65,
            "name": "F4",
            "ticks": 96192,
            "time": 85.88567850000001,
            "velocity": 0.3937007874015748
          },
          {
            "duration": 0.08571424999999522,
            "durationTicks": 96,
            "midi": 53,
            "name": "F3",
            "ticks": 96192,
            "time": 85.88567850000001,
            "velocity": 0.3937007874015748
          },
          {
            "duration": 0.08571424999999522,
            "durationTicks": 96,
            "midi": 70,
            "name": "A#4",
            "ticks": 96192,
            "time": 85.88567850000001,
            "velocity": 0.3937007874015748
          },
          {
            "duration": 0.08571424999999522,
            "durationTicks": 96,
            "midi": 53,
            "name": "F3",
            "ticks": 96576,
            "time": 86.2285355,
            "velocity": 0.3937007874015748
          },
          {
            "duration": 0.08571424999999522,
            "durationTicks": 96,
            "midi": 65,
            "name": "F4",
            "ticks": 96576,
            "time": 86.2285355,
            "velocity": 0.3937007874015748
          },
          {
            "duration": 0.08571424999999522,
            "durationTicks": 96,
            "midi": 58,
            "name": "A#3",
            "ticks": 96576,
            "time": 86.2285355,
            "velocity": 0.3937007874015748
          },
          {
            "duration": 0.08571424999999522,
            "durationTicks": 96,
            "midi": 70,
            "name": "A#4",
            "ticks": 96576,
            "time": 86.2285355,
            "velocity": 0.3937007874015748
          },
          {
            "duration": 0.08571424999999522,
            "durationTicks": 96,
            "midi": 63,
            "name": "D#4",
            "ticks": 96768,
            "time": 86.39996400000001,
            "velocity": 0.3937007874015748
          },
          {
            "duration": 0.08571424999999522,
            "durationTicks": 96,
            "midi": 51,
            "name": "D#3",
            "ticks": 96768,
            "time": 86.39996400000001,
            "velocity": 0.3937007874015748
          },
          {
            "duration": 0.08571425000000943,
            "durationTicks": 96,
            "midi": 71,
            "name": "B4",
            "ticks": 96960,
            "time": 86.5713925,
            "velocity": 0.3937007874015748
          },
          {
            "duration": 0.08571425000000943,
            "durationTicks": 96,
            "midi": 66,
            "name": "F#4",
            "ticks": 96960,
            "time": 86.5713925,
            "velocity": 0.3937007874015748
          },
          {
            "duration": 0.08571425000000943,
            "durationTicks": 96,
            "midi": 59,
            "name": "B3",
            "ticks": 96960,
            "time": 86.5713925,
            "velocity": 0.3937007874015748
          },
          {
            "duration": 0.08571425000000943,
            "durationTicks": 96,
            "midi": 54,
            "name": "F#3",
            "ticks": 96960,
            "time": 86.5713925,
            "velocity": 0.3937007874015748
          },
          {
            "duration": 0.08571424999999522,
            "durationTicks": 96,
            "midi": 68,
            "name": "G#4",
            "ticks": 97344,
            "time": 86.91424950000001,
            "velocity": 0.3937007874015748
          },
          {
            "duration": 0.08571424999999522,
            "durationTicks": 96,
            "midi": 56,
            "name": "G#3",
            "ticks": 97344,
            "time": 86.91424950000001,
            "velocity": 0.3937007874015748
          },
          {
            "duration": 0.08571424999999522,
            "durationTicks": 96,
            "midi": 72,
            "name": "C5",
            "ticks": 97344,
            "time": 86.91424950000001,
            "velocity": 0.3937007874015748
          },
          {
            "duration": 0.08571424999999522,
            "durationTicks": 96,
            "midi": 60,
            "name": "C4",
            "ticks": 97344,
            "time": 86.91424950000001,
            "velocity": 0.3937007874015748
          },
          {
            "duration": 0.08571425000000943,
            "durationTicks": 96,
            "midi": 73,
            "name": "C#5",
            "ticks": 97536,
            "time": 87.085678,
            "velocity": 0.3937007874015748
          },
          {
            "duration": 0.08571425000000943,
            "durationTicks": 96,
            "midi": 58,
            "name": "A#3",
            "ticks": 97536,
            "time": 87.085678,
            "velocity": 0.3937007874015748
          },
          {
            "duration": 0.08571425000000943,
            "durationTicks": 96,
            "midi": 70,
            "name": "A#4",
            "ticks": 97536,
            "time": 87.085678,
            "velocity": 0.3937007874015748
          },
          {
            "duration": 0.08571425000000943,
            "durationTicks": 96,
            "midi": 61,
            "name": "C#4",
            "ticks": 97536,
            "time": 87.085678,
            "velocity": 0.3937007874015748
          },
          {
            "duration": 0.08571425000000943,
            "durationTicks": 96,
            "midi": 70,
            "name": "A#4",
            "ticks": 97824,
            "time": 87.34282075,
            "velocity": 0.3937007874015748
          },
          {
            "duration": 0.08571425000000943,
            "durationTicks": 96,
            "midi": 73,
            "name": "C#5",
            "ticks": 97824,
            "time": 87.34282075,
            "velocity": 0.3937007874015748
          },
          {
            "duration": 0.08571425000000943,
            "durationTicks": 96,
            "midi": 61,
            "name": "C#4",
            "ticks": 97824,
            "time": 87.34282075,
            "velocity": 0.3937007874015748
          },
          {
            "duration": 0.08571425000000943,
            "durationTicks": 96,
            "midi": 58,
            "name": "A#3",
            "ticks": 97824,
            "time": 87.34282075,
            "velocity": 0.3937007874015748
          },
          {
            "duration": 0.08571425000000943,
            "durationTicks": 96,
            "midi": 70,
            "name": "A#4",
            "ticks": 98112,
            "time": 87.5999635,
            "velocity": 0.3937007874015748
          },
          {
            "duration": 0.08571425000000943,
            "durationTicks": 96,
            "midi": 61,
            "name": "C#4",
            "ticks": 98112,
            "time": 87.5999635,
            "velocity": 0.3937007874015748
          },
          {
            "duration": 0.08571425000000943,
            "durationTicks": 96,
            "midi": 58,
            "name": "A#3",
            "ticks": 98112,
            "time": 87.5999635,
            "velocity": 0.3937007874015748
          },
          {
            "duration": 0.08571425000000943,
            "durationTicks": 96,
            "midi": 73,
            "name": "C#5",
            "ticks": 98112,
            "time": 87.5999635,
            "velocity": 0.3937007874015748
          },
          {
            "duration": 0.08571424999999522,
            "durationTicks": 96,
            "midi": 47,
            "name": "B2",
            "ticks": 98304,
            "time": 87.771392,
            "velocity": 0.3937007874015748
          },
          {
            "duration": 0.08571424999999522,
            "durationTicks": 96,
            "midi": 59,
            "name": "B3",
            "ticks": 98304,
            "time": 87.771392,
            "velocity": 0.3937007874015748
          },
          {
            "duration": 0.08571424999999522,
            "durationTicks": 96,
            "midi": 51,
            "name": "D#3",
            "ticks": 98496,
            "time": 87.94282050000001,
            "velocity": 0.3937007874015748
          },
          {
            "duration": 0.08571424999999522,
            "durationTicks": 96,
            "midi": 54,
            "name": "F#3",
            "ticks": 98496,
            "time": 87.94282050000001,
            "velocity": 0.3937007874015748
          },
          {
            "duration": 0.08571424999999522,
            "durationTicks": 96,
            "midi": 63,
            "name": "D#4",
            "ticks": 98496,
            "time": 87.94282050000001,
            "velocity": 0.3937007874015748
          },
          {
            "duration": 0.08571424999999522,
            "durationTicks": 96,
            "midi": 66,
            "name": "F#4",
            "ticks": 98496,
            "time": 87.94282050000001,
            "velocity": 0.3937007874015748
          },
          {
            "duration": 0.08571424999999522,
            "durationTicks": 96,
            "midi": 63,
            "name": "D#4",
            "ticks": 98880,
            "time": 88.2856775,
            "velocity": 0.3937007874015748
          },
          {
            "duration": 0.08571424999999522,
            "durationTicks": 96,
            "midi": 66,
            "name": "F#4",
            "ticks": 98880,
            "time": 88.2856775,
            "velocity": 0.3937007874015748
          },
          {
            "duration": 0.08571424999999522,
            "durationTicks": 96,
            "midi": 51,
            "name": "D#3",
            "ticks": 98880,
            "time": 88.2856775,
            "velocity": 0.3937007874015748
          },
          {
            "duration": 0.08571424999999522,
            "durationTicks": 96,
            "midi": 54,
            "name": "F#3",
            "ticks": 98880,
            "time": 88.2856775,
            "velocity": 0.3937007874015748
          },
          {
            "duration": 0.08571424999999522,
            "durationTicks": 96,
            "midi": 49,
            "name": "C#3",
            "ticks": 99072,
            "time": 88.45710600000001,
            "velocity": 0.3937007874015748
          },
          {
            "duration": 0.08571424999999522,
            "durationTicks": 96,
            "midi": 61,
            "name": "C#4",
            "ticks": 99072,
            "time": 88.45710600000001,
            "velocity": 0.3937007874015748
          },
          {
            "duration": 0.08571425000000943,
            "durationTicks": 96,
            "midi": 68,
            "name": "G#4",
            "ticks": 99264,
            "time": 88.6285345,
            "velocity": 0.3937007874015748
          },
          {
            "duration": 0.08571425000000943,
            "durationTicks": 96,
            "midi": 53,
            "name": "F3",
            "ticks": 99264,
            "time": 88.6285345,
            "velocity": 0.3937007874015748
          },
          {
            "duration": 0.08571425000000943,
            "durationTicks": 96,
            "midi": 56,
            "name": "G#3",
            "ticks": 99264,
            "time": 88.6285345,
            "velocity": 0.3937007874015748
          },
          {
            "duration": 0.08571425000000943,
            "durationTicks": 96,
            "midi": 65,
            "name": "F4",
            "ticks": 99264,
            "time": 88.6285345,
            "velocity": 0.3937007874015748
          },
          {
            "duration": 0.08571424999999522,
            "durationTicks": 96,
            "midi": 65,
            "name": "F4",
            "ticks": 99648,
            "time": 88.97139150000001,
            "velocity": 0.3937007874015748
          },
          {
            "duration": 0.08571424999999522,
            "durationTicks": 96,
            "midi": 53,
            "name": "F3",
            "ticks": 99648,
            "time": 88.97139150000001,
            "velocity": 0.3937007874015748
          },
          {
            "duration": 0.08571424999999522,
            "durationTicks": 96,
            "midi": 56,
            "name": "G#3",
            "ticks": 99648,
            "time": 88.97139150000001,
            "velocity": 0.3937007874015748
          },
          {
            "duration": 0.08571424999999522,
            "durationTicks": 96,
            "midi": 68,
            "name": "G#4",
            "ticks": 99648,
            "time": 88.97139150000001,
            "velocity": 0.3937007874015748
          },
          {
            "duration": 0.08571425000000943,
            "durationTicks": 96,
            "midi": 51,
            "name": "D#3",
            "ticks": 99840,
            "time": 89.14282,
            "velocity": 0.3937007874015748
          },
          {
            "duration": 0.08571425000000943,
            "durationTicks": 96,
            "midi": 63,
            "name": "D#4",
            "ticks": 99840,
            "time": 89.14282,
            "velocity": 0.3937007874015748
          },
          {
            "duration": 0.08571424999999522,
            "durationTicks": 96,
            "midi": 70,
            "name": "A#4",
            "ticks": 100032,
            "time": 89.3142485,
            "velocity": 0.3937007874015748
          },
          {
            "duration": 0.08571424999999522,
            "durationTicks": 96,
            "midi": 66,
            "name": "F#4",
            "ticks": 100032,
            "time": 89.3142485,
            "velocity": 0.3937007874015748
          },
          {
            "duration": 0.08571424999999522,
            "durationTicks": 96,
            "midi": 54,
            "name": "F#3",
            "ticks": 100032,
            "time": 89.3142485,
            "velocity": 0.3937007874015748
          },
          {
            "duration": 0.08571424999999522,
            "durationTicks": 96,
            "midi": 58,
            "name": "A#3",
            "ticks": 100032,
            "time": 89.3142485,
            "velocity": 0.3937007874015748
          },
          {
            "duration": 0.08571425000000943,
            "durationTicks": 96,
            "midi": 66,
            "name": "F#4",
            "ticks": 100416,
            "time": 89.6571055,
            "velocity": 0.3937007874015748
          },
          {
            "duration": 0.08571425000000943,
            "durationTicks": 96,
            "midi": 70,
            "name": "A#4",
            "ticks": 100416,
            "time": 89.6571055,
            "velocity": 0.3937007874015748
          },
          {
            "duration": 0.08571425000000943,
            "durationTicks": 96,
            "midi": 58,
            "name": "A#3",
            "ticks": 100416,
            "time": 89.6571055,
            "velocity": 0.3937007874015748
          },
          {
            "duration": 0.08571425000000943,
            "durationTicks": 96,
            "midi": 54,
            "name": "F#3",
            "ticks": 100416,
            "time": 89.6571055,
            "velocity": 0.3937007874015748
          },
          {
            "duration": 0.08571424999999522,
            "durationTicks": 96,
            "midi": 51,
            "name": "D#3",
            "ticks": 100608,
            "time": 89.828534,
            "velocity": 0.3937007874015748
          },
          {
            "duration": 0.08571424999999522,
            "durationTicks": 96,
            "midi": 63,
            "name": "D#4",
            "ticks": 100608,
            "time": 89.828534,
            "velocity": 0.3937007874015748
          },
          {
            "duration": 0.08571424999999522,
            "durationTicks": 96,
            "midi": 70,
            "name": "A#4",
            "ticks": 100800,
            "time": 89.99996250000001,
            "velocity": 0.3937007874015748
          },
          {
            "duration": 0.08571424999999522,
            "durationTicks": 96,
            "midi": 54,
            "name": "F#3",
            "ticks": 100800,
            "time": 89.99996250000001,
            "velocity": 0.3937007874015748
          },
          {
            "duration": 0.08571424999999522,
            "durationTicks": 96,
            "midi": 66,
            "name": "F#4",
            "ticks": 100800,
            "time": 89.99996250000001,
            "velocity": 0.3937007874015748
          },
          {
            "duration": 0.08571424999999522,
            "durationTicks": 96,
            "midi": 58,
            "name": "A#3",
            "ticks": 100800,
            "time": 89.99996250000001,
            "velocity": 0.3937007874015748
          },
          {
            "duration": 0.08571424999999522,
            "durationTicks": 96,
            "midi": 70,
            "name": "A#4",
            "ticks": 101184,
            "time": 90.3428195,
            "velocity": 0.3937007874015748
          },
          {
            "duration": 0.08571424999999522,
            "durationTicks": 96,
            "midi": 66,
            "name": "F#4",
            "ticks": 101184,
            "time": 90.3428195,
            "velocity": 0.3937007874015748
          },
          {
            "duration": 0.08571424999999522,
            "durationTicks": 96,
            "midi": 54,
            "name": "F#3",
            "ticks": 101184,
            "time": 90.3428195,
            "velocity": 0.3937007874015748
          },
          {
            "duration": 0.08571424999999522,
            "durationTicks": 96,
            "midi": 58,
            "name": "A#3",
            "ticks": 101184,
            "time": 90.3428195,
            "velocity": 0.3937007874015748
          },
          {
            "duration": 0.08571424999999522,
            "durationTicks": 96,
            "midi": 59,
            "name": "B3",
            "ticks": 101376,
            "time": 90.51424800000001,
            "velocity": 0.3937007874015748
          },
          {
            "duration": 0.08571424999999522,
            "durationTicks": 96,
            "midi": 47,
            "name": "B2",
            "ticks": 101376,
            "time": 90.51424800000001,
            "velocity": 0.3937007874015748
          },
          {
            "duration": 0.08571425000000943,
            "durationTicks": 96,
            "midi": 51,
            "name": "D#3",
            "ticks": 101568,
            "time": 90.6856765,
            "velocity": 0.3937007874015748
          },
          {
            "duration": 0.08571425000000943,
            "durationTicks": 96,
            "midi": 54,
            "name": "F#3",
            "ticks": 101568,
            "time": 90.6856765,
            "velocity": 0.3937007874015748
          },
          {
            "duration": 0.08571425000000943,
            "durationTicks": 96,
            "midi": 66,
            "name": "F#4",
            "ticks": 101568,
            "time": 90.6856765,
            "velocity": 0.3937007874015748
          },
          {
            "duration": 0.08571425000000943,
            "durationTicks": 96,
            "midi": 63,
            "name": "D#4",
            "ticks": 101568,
            "time": 90.6856765,
            "velocity": 0.3937007874015748
          },
          {
            "duration": 0.08571424999999522,
            "durationTicks": 96,
            "midi": 51,
            "name": "D#3",
            "ticks": 101952,
            "time": 91.02853350000001,
            "velocity": 0.3937007874015748
          },
          {
            "duration": 0.08571424999999522,
            "durationTicks": 96,
            "midi": 63,
            "name": "D#4",
            "ticks": 101952,
            "time": 91.02853350000001,
            "velocity": 0.3937007874015748
          },
          {
            "duration": 0.08571424999999522,
            "durationTicks": 96,
            "midi": 66,
            "name": "F#4",
            "ticks": 101952,
            "time": 91.02853350000001,
            "velocity": 0.3937007874015748
          },
          {
            "duration": 0.08571424999999522,
            "durationTicks": 96,
            "midi": 54,
            "name": "F#3",
            "ticks": 101952,
            "time": 91.02853350000001,
            "velocity": 0.3937007874015748
          },
          {
            "duration": 0.08571425000000943,
            "durationTicks": 96,
            "midi": 49,
            "name": "C#3",
            "ticks": 102144,
            "time": 91.199962,
            "velocity": 0.3937007874015748
          },
          {
            "duration": 0.08571425000000943,
            "durationTicks": 96,
            "midi": 61,
            "name": "C#4",
            "ticks": 102144,
            "time": 91.199962,
            "velocity": 0.3937007874015748
          },
          {
            "duration": 0.08571424999999522,
            "durationTicks": 96,
            "midi": 53,
            "name": "F3",
            "ticks": 102336,
            "time": 91.3713905,
            "velocity": 0.3937007874015748
          },
          {
            "duration": 0.08571424999999522,
            "durationTicks": 96,
            "midi": 56,
            "name": "G#3",
            "ticks": 102336,
            "time": 91.3713905,
            "velocity": 0.3937007874015748
          },
          {
            "duration": 0.08571424999999522,
            "durationTicks": 96,
            "midi": 65,
            "name": "F4",
            "ticks": 102336,
            "time": 91.3713905,
            "velocity": 0.3937007874015748
          },
          {
            "duration": 0.08571424999999522,
            "durationTicks": 96,
            "midi": 68,
            "name": "G#4",
            "ticks": 102336,
            "time": 91.3713905,
            "velocity": 0.3937007874015748
          },
          {
            "duration": 0.08571425000000943,
            "durationTicks": 96,
            "midi": 53,
            "name": "F3",
            "ticks": 102720,
            "time": 91.7142475,
            "velocity": 0.3937007874015748
          },
          {
            "duration": 0.08571425000000943,
            "durationTicks": 96,
            "midi": 68,
            "name": "G#4",
            "ticks": 102720,
            "time": 91.7142475,
            "velocity": 0.3937007874015748
          },
          {
            "duration": 0.08571425000000943,
            "durationTicks": 96,
            "midi": 56,
            "name": "G#3",
            "ticks": 102720,
            "time": 91.7142475,
            "velocity": 0.3937007874015748
          },
          {
            "duration": 0.08571425000000943,
            "durationTicks": 96,
            "midi": 65,
            "name": "F4",
            "ticks": 102720,
            "time": 91.7142475,
            "velocity": 0.3937007874015748
          },
          {
            "duration": 0.08571425000000943,
            "durationTicks": 96,
            "midi": 63,
            "name": "D#4",
            "ticks": 102912,
            "time": 91.885676,
            "velocity": 0.3937007874015748
          },
          {
            "duration": 0.08571425000000943,
            "durationTicks": 96,
            "midi": 51,
            "name": "D#3",
            "ticks": 102912,
            "time": 91.885676,
            "velocity": 0.3937007874015748
          },
          {
            "duration": 0.08571424999999522,
            "durationTicks": 96,
            "midi": 70,
            "name": "A#4",
            "ticks": 103104,
            "time": 92.05710450000001,
            "velocity": 0.3937007874015748
          },
          {
            "duration": 0.08571424999999522,
            "durationTicks": 96,
            "midi": 54,
            "name": "F#3",
            "ticks": 103104,
            "time": 92.05710450000001,
            "velocity": 0.3937007874015748
          },
          {
            "duration": 0.08571424999999522,
            "durationTicks": 96,
            "midi": 66,
            "name": "F#4",
            "ticks": 103104,
            "time": 92.05710450000001,
            "velocity": 0.3937007874015748
          },
          {
            "duration": 0.08571424999999522,
            "durationTicks": 96,
            "midi": 58,
            "name": "A#3",
            "ticks": 103104,
            "time": 92.05710450000001,
            "velocity": 0.3937007874015748
          },
          {
            "duration": 0.08571424999999522,
            "durationTicks": 96,
            "midi": 51,
            "name": "D#3",
            "ticks": 103296,
            "time": 92.22853300000001,
            "velocity": 0.3937007874015748
          },
          {
            "duration": 0.08571424999999522,
            "durationTicks": 96,
            "midi": 63,
            "name": "D#4",
            "ticks": 103296,
            "time": 92.22853300000001,
            "velocity": 0.3937007874015748
          },
          {
            "duration": 0.08571425000000943,
            "durationTicks": 96,
            "midi": 73,
            "name": "C#5",
            "ticks": 103488,
            "time": 92.3999615,
            "velocity": 0.3937007874015748
          },
          {
            "duration": 0.08571425000000943,
            "durationTicks": 96,
            "midi": 61,
            "name": "C#4",
            "ticks": 103488,
            "time": 92.3999615,
            "velocity": 0.3937007874015748
          },
          {
            "duration": 0.08571425000000943,
            "durationTicks": 96,
            "midi": 56,
            "name": "G#3",
            "ticks": 103488,
            "time": 92.3999615,
            "velocity": 0.3937007874015748
          },
          {
            "duration": 0.08571425000000943,
            "durationTicks": 96,
            "midi": 68,
            "name": "G#4",
            "ticks": 103488,
            "time": 92.3999615,
            "velocity": 0.3937007874015748
          },
          {
            "duration": 0.08571424999999522,
            "durationTicks": 96,
            "midi": 63,
            "name": "D#4",
            "ticks": 103680,
            "time": 92.57139000000001,
            "velocity": 0.3937007874015748
          },
          {
            "duration": 0.08571424999999522,
            "durationTicks": 96,
            "midi": 51,
            "name": "D#3",
            "ticks": 103680,
            "time": 92.57139000000001,
            "velocity": 0.3937007874015748
          },
          {
            "duration": 0.08571424999999522,
            "durationTicks": 96,
            "midi": 63,
            "name": "D#4",
            "ticks": 103872,
            "time": 92.74281850000001,
            "velocity": 0.3937007874015748
          },
          {
            "duration": 0.08571424999999522,
            "durationTicks": 96,
            "midi": 70,
            "name": "A#4",
            "ticks": 103872,
            "time": 92.74281850000001,
            "velocity": 0.3937007874015748
          },
          {
            "duration": 0.08571424999999522,
            "durationTicks": 96,
            "midi": 58,
            "name": "A#3",
            "ticks": 103872,
            "time": 92.74281850000001,
            "velocity": 0.3937007874015748
          },
          {
            "duration": 0.08571424999999522,
            "durationTicks": 96,
            "midi": 75,
            "name": "D#5",
            "ticks": 103872,
            "time": 92.74281850000001,
            "velocity": 0.3937007874015748
          },
          {
            "duration": 0.08571425000000943,
            "durationTicks": 96,
            "midi": 51,
            "name": "D#3",
            "ticks": 104064,
            "time": 92.914247,
            "velocity": 0.3937007874015748
          },
          {
            "duration": 0.08571425000000943,
            "durationTicks": 96,
            "midi": 63,
            "name": "D#4",
            "ticks": 104064,
            "time": 92.914247,
            "velocity": 0.3937007874015748
          },
          {
            "duration": 0.08571424999999522,
            "durationTicks": 96,
            "midi": 60,
            "name": "C4",
            "ticks": 104256,
            "time": 93.08567550000001,
            "velocity": 0.3937007874015748
          },
          {
            "duration": 0.08571424999999522,
            "durationTicks": 96,
            "midi": 77,
            "name": "F5",
            "ticks": 104256,
            "time": 93.08567550000001,
            "velocity": 0.3937007874015748
          },
          {
            "duration": 0.08571424999999522,
            "durationTicks": 96,
            "midi": 72,
            "name": "C5",
            "ticks": 104256,
            "time": 93.08567550000001,
            "velocity": 0.3937007874015748
          },
          {
            "duration": 0.08571424999999522,
            "durationTicks": 96,
            "midi": 65,
            "name": "F4",
            "ticks": 104256,
            "time": 93.08567550000001,
            "velocity": 0.3937007874015748
          },
          {
            "duration": 0.08571424999999522,
            "durationTicks": 96,
            "midi": 70,
            "name": "A#4",
            "ticks": 104448,
            "time": 93.25710400000001,
            "velocity": 0.3937007874015748
          },
          {
            "duration": 0.08571424999999522,
            "durationTicks": 96,
            "midi": 75,
            "name": "D#5",
            "ticks": 104448,
            "time": 93.25710400000001,
            "velocity": 0.3937007874015748
          },
          {
            "duration": 0.08571424999999522,
            "durationTicks": 96,
            "midi": 63,
            "name": "D#4",
            "ticks": 104448,
            "time": 93.25710400000001,
            "velocity": 0.3937007874015748
          },
          {
            "duration": 0.08571424999999522,
            "durationTicks": 96,
            "midi": 58,
            "name": "A#3",
            "ticks": 104448,
            "time": 93.25710400000001,
            "velocity": 0.3937007874015748
          },
          {
            "duration": 0.08571424999999522,
            "durationTicks": 96,
            "midi": 63,
            "name": "D#4",
            "ticks": 104832,
            "time": 93.59996100000001,
            "velocity": 0.3937007874015748
          },
          {
            "duration": 0.08571424999999522,
            "durationTicks": 96,
            "midi": 51,
            "name": "D#3",
            "ticks": 104832,
            "time": 93.59996100000001,
            "velocity": 0.3937007874015748
          },
          {
            "duration": 0.08571424999999522,
            "durationTicks": 96,
            "midi": 70,
            "name": "A#4",
            "ticks": 105024,
            "time": 93.77138950000001,
            "velocity": 0.3937007874015748
          },
          {
            "duration": 0.08571424999999522,
            "durationTicks": 96,
            "midi": 75,
            "name": "D#5",
            "ticks": 105024,
            "time": 93.77138950000001,
            "velocity": 0.3937007874015748
          },
          {
            "duration": 0.08571424999999522,
            "durationTicks": 96,
            "midi": 63,
            "name": "D#4",
            "ticks": 105024,
            "time": 93.77138950000001,
            "velocity": 0.3937007874015748
          },
          {
            "duration": 0.08571424999999522,
            "durationTicks": 96,
            "midi": 58,
            "name": "A#3",
            "ticks": 105024,
            "time": 93.77138950000001,
            "velocity": 0.3937007874015748
          },
          {
            "duration": 0.08571425000000943,
            "durationTicks": 96,
            "midi": 75,
            "name": "D#5",
            "ticks": 105216,
            "time": 93.942818,
            "velocity": 0.3937007874015748
          },
          {
            "duration": 0.08571425000000943,
            "durationTicks": 96,
            "midi": 63,
            "name": "D#4",
            "ticks": 105216,
            "time": 93.942818,
            "velocity": 0.3937007874015748
          },
          {
            "duration": 0.08571425000000943,
            "durationTicks": 96,
            "midi": 70,
            "name": "A#4",
            "ticks": 105216,
            "time": 93.942818,
            "velocity": 0.3937007874015748
          },
          {
            "duration": 0.08571425000000943,
            "durationTicks": 96,
            "midi": 58,
            "name": "A#3",
            "ticks": 105216,
            "time": 93.942818,
            "velocity": 0.3937007874015748
          },
          {
            "duration": 0.08571424999999522,
            "durationTicks": 96,
            "midi": 61,
            "name": "C#4",
            "ticks": 105408,
            "time": 94.11424650000001,
            "velocity": 0.3937007874015748
          },
          {
            "duration": 0.08571424999999522,
            "durationTicks": 96,
            "midi": 73,
            "name": "C#5",
            "ticks": 105408,
            "time": 94.11424650000001,
            "velocity": 0.3937007874015748
          },
          {
            "duration": 0.08571424999999522,
            "durationTicks": 96,
            "midi": 68,
            "name": "G#4",
            "ticks": 105408,
            "time": 94.11424650000001,
            "velocity": 0.3937007874015748
          },
          {
            "duration": 0.08571424999999522,
            "durationTicks": 96,
            "midi": 56,
            "name": "G#3",
            "ticks": 105408,
            "time": 94.11424650000001,
            "velocity": 0.3937007874015748
          },
          {
            "duration": 0.08571425000000943,
            "durationTicks": 96,
            "midi": 70,
            "name": "A#4",
            "ticks": 105792,
            "time": 94.4571035,
            "velocity": 0.3937007874015748
          },
          {
            "duration": 0.08571425000000943,
            "durationTicks": 96,
            "midi": 58,
            "name": "A#3",
            "ticks": 105792,
            "time": 94.4571035,
            "velocity": 0.3937007874015748
          },
          {
            "duration": 0.08571425000000943,
            "durationTicks": 96,
            "midi": 63,
            "name": "D#4",
            "ticks": 105792,
            "time": 94.4571035,
            "velocity": 0.3937007874015748
          },
          {
            "duration": 0.08571425000000943,
            "durationTicks": 96,
            "midi": 75,
            "name": "D#5",
            "ticks": 105792,
            "time": 94.4571035,
            "velocity": 0.3937007874015748
          },
          {
            "duration": 0.08571424999999522,
            "durationTicks": 96,
            "midi": 75,
            "name": "D#5",
            "ticks": 106176,
            "time": 94.79996050000001,
            "velocity": 0.3937007874015748
          },
          {
            "duration": 0.08571424999999522,
            "durationTicks": 96,
            "midi": 63,
            "name": "D#4",
            "ticks": 106176,
            "time": 94.79996050000001,
            "velocity": 0.3937007874015748
          },
          {
            "duration": 0.08571424999999522,
            "durationTicks": 96,
            "midi": 70,
            "name": "A#4",
            "ticks": 106176,
            "time": 94.79996050000001,
            "velocity": 0.3937007874015748
          },
          {
            "duration": 0.08571424999999522,
            "durationTicks": 96,
            "midi": 58,
            "name": "A#3",
            "ticks": 106176,
            "time": 94.79996050000001,
            "velocity": 0.3937007874015748
          },
          {
            "duration": 0.08571425000000943,
            "durationTicks": 96,
            "midi": 51,
            "name": "D#3",
            "ticks": 106368,
            "time": 94.971389,
            "velocity": 0.3937007874015748
          },
          {
            "duration": 0.08571425000000943,
            "durationTicks": 96,
            "midi": 63,
            "name": "D#4",
            "ticks": 106368,
            "time": 94.971389,
            "velocity": 0.3937007874015748
          },
          {
            "duration": 0.08571424999999522,
            "durationTicks": 96,
            "midi": 70,
            "name": "A#4",
            "ticks": 106560,
            "time": 95.1428175,
            "velocity": 0.3937007874015748
          },
          {
            "duration": 0.08571424999999522,
            "durationTicks": 96,
            "midi": 63,
            "name": "D#4",
            "ticks": 106560,
            "time": 95.1428175,
            "velocity": 0.3937007874015748
          },
          {
            "duration": 0.08571424999999522,
            "durationTicks": 96,
            "midi": 75,
            "name": "D#5",
            "ticks": 106560,
            "time": 95.1428175,
            "velocity": 0.3937007874015748
          },
          {
            "duration": 0.08571424999999522,
            "durationTicks": 96,
            "midi": 58,
            "name": "A#3",
            "ticks": 106560,
            "time": 95.1428175,
            "velocity": 0.3937007874015748
          },
          {
            "duration": 0.08571424999999522,
            "durationTicks": 96,
            "midi": 58,
            "name": "A#3",
            "ticks": 106752,
            "time": 95.31424600000001,
            "velocity": 0.3937007874015748
          },
          {
            "duration": 0.08571424999999522,
            "durationTicks": 96,
            "midi": 63,
            "name": "D#4",
            "ticks": 106752,
            "time": 95.31424600000001,
            "velocity": 0.3937007874015748
          },
          {
            "duration": 0.08571424999999522,
            "durationTicks": 96,
            "midi": 75,
            "name": "D#5",
            "ticks": 106752,
            "time": 95.31424600000001,
            "velocity": 0.3937007874015748
          },
          {
            "duration": 0.08571424999999522,
            "durationTicks": 96,
            "midi": 70,
            "name": "A#4",
            "ticks": 106752,
            "time": 95.31424600000001,
            "velocity": 0.3937007874015748
          },
          {
            "duration": 0.08571424999999522,
            "durationTicks": 96,
            "midi": 68,
            "name": "G#4",
            "ticks": 106848,
            "time": 95.39996025,
            "velocity": 0.3937007874015748
          },
          {
            "duration": 0.08571424999999522,
            "durationTicks": 96,
            "midi": 73,
            "name": "C#5",
            "ticks": 106848,
            "time": 95.39996025,
            "velocity": 0.3937007874015748
          },
          {
            "duration": 0.08571424999999522,
            "durationTicks": 96,
            "midi": 61,
            "name": "C#4",
            "ticks": 106848,
            "time": 95.39996025,
            "velocity": 0.3937007874015748
          },
          {
            "duration": 0.08571424999999522,
            "durationTicks": 96,
            "midi": 56,
            "name": "G#3",
            "ticks": 106848,
            "time": 95.39996025,
            "velocity": 0.3937007874015748
          },
          {
            "duration": 0.08571425000000943,
            "durationTicks": 96,
            "midi": 70,
            "name": "A#4",
            "ticks": 106944,
            "time": 95.4856745,
            "velocity": 0.3937007874015748
          },
          {
            "duration": 0.08571425000000943,
            "durationTicks": 96,
            "midi": 58,
            "name": "A#3",
            "ticks": 106944,
            "time": 95.4856745,
            "velocity": 0.3937007874015748
          },
          {
            "duration": 0.08571425000000943,
            "durationTicks": 96,
            "midi": 54,
            "name": "F#3",
            "ticks": 106944,
            "time": 95.4856745,
            "velocity": 0.3937007874015748
          },
          {
            "duration": 0.08571425000000943,
            "durationTicks": 96,
            "midi": 66,
            "name": "F#4",
            "ticks": 106944,
            "time": 95.4856745,
            "velocity": 0.3937007874015748
          },
          {
            "duration": 0.08571424999999522,
            "durationTicks": 96,
            "midi": 49,
            "name": "C#3",
            "ticks": 107136,
            "time": 95.657103,
            "velocity": 0.3937007874015748
          },
          {
            "duration": 0.08571424999999522,
            "durationTicks": 96,
            "midi": 61,
            "name": "C#4",
            "ticks": 107136,
            "time": 95.657103,
            "velocity": 0.3937007874015748
          },
          {
            "duration": 0.08571424999999522,
            "durationTicks": 96,
            "midi": 66,
            "name": "F#4",
            "ticks": 107136,
            "time": 95.657103,
            "velocity": 0.3937007874015748
          },
          {
            "duration": 0.08571424999999522,
            "durationTicks": 96,
            "midi": 54,
            "name": "F#3",
            "ticks": 107136,
            "time": 95.657103,
            "velocity": 0.3937007874015748
          },
          {
            "duration": 0.08571424999999522,
            "durationTicks": 96,
            "midi": 50,
            "name": "D3",
            "ticks": 107328,
            "time": 95.82853150000001,
            "velocity": 0.3937007874015748
          },
          {
            "duration": 0.08571424999999522,
            "durationTicks": 96,
            "midi": 67,
            "name": "G4",
            "ticks": 107328,
            "time": 95.82853150000001,
            "velocity": 0.3937007874015748
          },
          {
            "duration": 0.08571424999999522,
            "durationTicks": 96,
            "midi": 55,
            "name": "G3",
            "ticks": 107328,
            "time": 95.82853150000001,
            "velocity": 0.3937007874015748
          },
          {
            "duration": 0.08571424999999522,
            "durationTicks": 96,
            "midi": 62,
            "name": "D4",
            "ticks": 107328,
            "time": 95.82853150000001,
            "velocity": 0.3937007874015748
          },
          {
            "duration": 0.08571425000000943,
            "durationTicks": 96,
            "midi": 56,
            "name": "G#3",
            "ticks": 107520,
            "time": 95.99996,
            "velocity": 0.3937007874015748
          },
          {
            "duration": 0.08571425000000943,
            "durationTicks": 96,
            "midi": 68,
            "name": "G#4",
            "ticks": 107520,
            "time": 95.99996,
            "velocity": 0.3937007874015748
          },
          {
            "duration": 0.08571424999999522,
            "durationTicks": 96,
            "midi": 63,
            "name": "D#4",
            "ticks": 107712,
            "time": 96.1713885,
            "velocity": 0.3937007874015748
          },
          {
            "duration": 0.08571424999999522,
            "durationTicks": 96,
            "midi": 51,
            "name": "D#3",
            "ticks": 107712,
            "time": 96.1713885,
            "velocity": 0.3937007874015748
          },
          {
            "duration": 0.08571425000000943,
            "durationTicks": 96,
            "midi": 68,
            "name": "G#4",
            "ticks": 107808,
            "time": 96.25710275,
            "velocity": 0.3937007874015748
          },
          {
            "duration": 0.08571425000000943,
            "durationTicks": 96,
            "midi": 56,
            "name": "G#3",
            "ticks": 107808,
            "time": 96.25710275,
            "velocity": 0.3937007874015748
          },
          {
            "duration": 0.08571424999999522,
            "durationTicks": 96,
            "midi": 63,
            "name": "D#4",
            "ticks": 108000,
            "time": 96.42853125,
            "velocity": 0.3937007874015748
          },
          {
            "duration": 0.08571424999999522,
            "durationTicks": 96,
            "midi": 51,
            "name": "D#3",
            "ticks": 108000,
            "time": 96.42853125,
            "velocity": 0.3937007874015748
          },
          {
            "duration": 0.08571425000000943,
            "durationTicks": 96,
            "midi": 68,
            "name": "G#4",
            "ticks": 108096,
            "time": 96.5142455,
            "velocity": 0.3937007874015748
          },
          {
            "duration": 0.08571425000000943,
            "durationTicks": 96,
            "midi": 56,
            "name": "G#3",
            "ticks": 108096,
            "time": 96.5142455,
            "velocity": 0.3937007874015748
          },
          {
            "duration": 0.08571424999999522,
            "durationTicks": 96,
            "midi": 70,
            "name": "A#4",
            "ticks": 108288,
            "time": 96.685674,
            "velocity": 0.3937007874015748
          },
          {
            "duration": 0.08571424999999522,
            "durationTicks": 96,
            "midi": 58,
            "name": "A#3",
            "ticks": 108288,
            "time": 96.685674,
            "velocity": 0.3937007874015748
          },
          {
            "duration": 0.08571424999999522,
            "durationTicks": 96,
            "midi": 65,
            "name": "F4",
            "ticks": 108288,
            "time": 96.685674,
            "velocity": 0.3937007874015748
          },
          {
            "duration": 0.08571424999999522,
            "durationTicks": 96,
            "midi": 53,
            "name": "F3",
            "ticks": 108288,
            "time": 96.685674,
            "velocity": 0.3937007874015748
          },
          {
            "duration": 0.08571424999999522,
            "durationTicks": 96,
            "midi": 73,
            "name": "C#5",
            "ticks": 108480,
            "time": 96.85710250000001,
            "velocity": 0.3937007874015748
          },
          {
            "duration": 0.08571424999999522,
            "durationTicks": 96,
            "midi": 66,
            "name": "F#4",
            "ticks": 108480,
            "time": 96.85710250000001,
            "velocity": 0.3937007874015748
          },
          {
            "duration": 0.08571424999999522,
            "durationTicks": 96,
            "midi": 61,
            "name": "C#4",
            "ticks": 108480,
            "time": 96.85710250000001,
            "velocity": 0.3937007874015748
          },
          {
            "duration": 0.08571424999999522,
            "durationTicks": 96,
            "midi": 78,
            "name": "F#5",
            "ticks": 108480,
            "time": 96.85710250000001,
            "velocity": 0.3937007874015748
          },
          {
            "duration": 0.08571425000000943,
            "durationTicks": 96,
            "midi": 71,
            "name": "B4",
            "ticks": 108672,
            "time": 97.028531,
            "velocity": 0.3937007874015748
          },
          {
            "duration": 0.08571425000000943,
            "durationTicks": 96,
            "midi": 77,
            "name": "F5",
            "ticks": 108672,
            "time": 97.028531,
            "velocity": 0.3937007874015748
          },
          {
            "duration": 0.08571425000000943,
            "durationTicks": 96,
            "midi": 65,
            "name": "F4",
            "ticks": 108672,
            "time": 97.028531,
            "velocity": 0.3937007874015748
          },
          {
            "duration": 0.08571425000000943,
            "durationTicks": 96,
            "midi": 59,
            "name": "B3",
            "ticks": 108672,
            "time": 97.028531,
            "velocity": 0.3937007874015748
          },
          {
            "duration": 0.08571424999999522,
            "durationTicks": 96,
            "midi": 73,
            "name": "C#5",
            "ticks": 108864,
            "time": 97.1999595,
            "velocity": 0.3937007874015748
          },
          {
            "duration": 0.08571424999999522,
            "durationTicks": 96,
            "midi": 56,
            "name": "G#3",
            "ticks": 108864,
            "time": 97.1999595,
            "velocity": 0.3937007874015748
          },
          {
            "duration": 0.08571424999999522,
            "durationTicks": 96,
            "midi": 68,
            "name": "G#4",
            "ticks": 108864,
            "time": 97.1999595,
            "velocity": 0.3937007874015748
          },
          {
            "duration": 0.08571424999999522,
            "durationTicks": 96,
            "midi": 61,
            "name": "C#4",
            "ticks": 108864,
            "time": 97.1999595,
            "velocity": 0.3937007874015748
          },
          {
            "duration": 0.08571424999999522,
            "durationTicks": 96,
            "midi": 75,
            "name": "D#5",
            "ticks": 109056,
            "time": 97.37138800000001,
            "velocity": 0.3937007874015748
          },
          {
            "duration": 0.08571424999999522,
            "durationTicks": 96,
            "midi": 58,
            "name": "A#3",
            "ticks": 109056,
            "time": 97.37138800000001,
            "velocity": 0.3937007874015748
          },
          {
            "duration": 0.08571424999999522,
            "durationTicks": 96,
            "midi": 51,
            "name": "D#3",
            "ticks": 109056,
            "time": 97.37138800000001,
            "velocity": 0.3937007874015748
          },
          {
            "duration": 0.08571424999999522,
            "durationTicks": 96,
            "midi": 70,
            "name": "A#4",
            "ticks": 109056,
            "time": 97.37138800000001,
            "velocity": 0.3937007874015748
          },
          {
            "duration": 0.08571424999999522,
            "durationTicks": 96,
            "midi": 63,
            "name": "D#4",
            "ticks": 109056,
            "time": 97.37138800000001,
            "velocity": 0.3937007874015748
          },
          {
            "duration": 0.08571424999999522,
            "durationTicks": 96,
            "midi": 63,
            "name": "D#4",
            "ticks": 109056,
            "time": 97.37138800000001,
            "velocity": 0.3937007874015748
          },
          {
            "duration": 0.08571424999999522,
            "durationTicks": 96,
            "midi": 63,
            "name": "D#4",
            "ticks": 109344,
            "time": 97.62853075000001,
            "velocity": 0.3937007874015748
          },
          {
            "duration": 0.08571424999999522,
            "durationTicks": 96,
            "midi": 63,
            "name": "D#4",
            "ticks": 109344,
            "time": 97.62853075000001,
            "velocity": 0.3937007874015748
          },
          {
            "duration": 0.08571424999999522,
            "durationTicks": 96,
            "midi": 51,
            "name": "D#3",
            "ticks": 109344,
            "time": 97.62853075000001,
            "velocity": 0.3937007874015748
          },
          {
            "duration": 0.08571424999999522,
            "durationTicks": 96,
            "midi": 75,
            "name": "D#5",
            "ticks": 109344,
            "time": 97.62853075000001,
            "velocity": 0.3937007874015748
          },
          {
            "duration": 0.08571424999999522,
            "durationTicks": 96,
            "midi": 70,
            "name": "A#4",
            "ticks": 109344,
            "time": 97.62853075000001,
            "velocity": 0.3937007874015748
          },
          {
            "duration": 0.08571424999999522,
            "durationTicks": 96,
            "midi": 58,
            "name": "A#3",
            "ticks": 109344,
            "time": 97.62853075000001,
            "velocity": 0.3937007874015748
          },
          {
            "duration": 0.08571424999999522,
            "durationTicks": 96,
            "midi": 51,
            "name": "D#3",
            "ticks": 109632,
            "time": 97.88567350000001,
            "velocity": 0.3937007874015748
          },
          {
            "duration": 0.08571424999999522,
            "durationTicks": 96,
            "midi": 58,
            "name": "A#3",
            "ticks": 109632,
            "time": 97.88567350000001,
            "velocity": 0.3937007874015748
          },
          {
            "duration": 0.08571424999999522,
            "durationTicks": 96,
            "midi": 75,
            "name": "D#5",
            "ticks": 109632,
            "time": 97.88567350000001,
            "velocity": 0.3937007874015748
          },
          {
            "duration": 0.08571424999999522,
            "durationTicks": 96,
            "midi": 63,
            "name": "D#4",
            "ticks": 109632,
            "time": 97.88567350000001,
            "velocity": 0.3937007874015748
          },
          {
            "duration": 0.08571424999999522,
            "durationTicks": 96,
            "midi": 63,
            "name": "D#4",
            "ticks": 109632,
            "time": 97.88567350000001,
            "velocity": 0.3937007874015748
          },
          {
            "duration": 0.08571424999999522,
            "durationTicks": 96,
            "midi": 70,
            "name": "A#4",
            "ticks": 109632,
            "time": 97.88567350000001,
            "velocity": 0.3937007874015748
          },
          {
            "duration": 0.08571425000000943,
            "durationTicks": 96,
            "midi": 63,
            "name": "D#4",
            "ticks": 109824,
            "time": 98.057102,
            "velocity": 0.3937007874015748
          },
          {
            "duration": 0.08571425000000943,
            "durationTicks": 96,
            "midi": 51,
            "name": "D#3",
            "ticks": 109824,
            "time": 98.057102,
            "velocity": 0.3937007874015748
          },
          {
            "duration": 0.08571425000000943,
            "durationTicks": 96,
            "midi": 63,
            "name": "D#4",
            "ticks": 109824,
            "time": 98.057102,
            "velocity": 0.3937007874015748
          },
          {
            "duration": 0.08571425000000943,
            "durationTicks": 96,
            "midi": 75,
            "name": "D#5",
            "ticks": 109824,
            "time": 98.057102,
            "velocity": 0.3937007874015748
          },
          {
            "duration": 0.08571425000000943,
            "durationTicks": 96,
            "midi": 70,
            "name": "A#4",
            "ticks": 109824,
            "time": 98.057102,
            "velocity": 0.3937007874015748
          },
          {
            "duration": 0.08571425000000943,
            "durationTicks": 96,
            "midi": 58,
            "name": "A#3",
            "ticks": 109824,
            "time": 98.057102,
            "velocity": 0.3937007874015748
          }
        ],
        "endOfTrackTicks": 109920
      },
      {
        "channel": 1,
        "controlChanges": {},
        "pitchBends": [],
        "instrument": {
          "family": "chromatic percussion",
          "number": 10,
          "name": "music box"
        },
        "name": "Music Box",
        "notes": [
          {
            "duration": 0.08571425,
            "durationTicks": 96,
            "midi": 57,
            "name": "A3",
            "ticks": 0,
            "time": 0,
            "velocity": 0.23622047244094488
          },
          {
            "duration": 0.08571425,
            "durationTicks": 96,
            "midi": 74,
            "name": "D5",
            "ticks": 0,
            "time": 0,
            "velocity": 0.23622047244094488
          },
          {
            "duration": 0.08571425,
            "durationTicks": 96,
            "midi": 62,
            "name": "D4",
            "ticks": 0,
            "time": 0,
            "velocity": 0.23622047244094488
          },
          {
            "duration": 0.08571425,
            "durationTicks": 96,
            "midi": 39,
            "name": "D#2",
            "ticks": 0,
            "time": 0,
            "velocity": 0.23622047244094488
          },
          {
            "duration": 0.08571425000000002,
            "durationTicks": 96,
            "midi": 69,
            "name": "A4",
            "ticks": 192,
            "time": 0.1714285,
            "velocity": 0.23622047244094488
          },
          {
            "duration": 0.08571425000000002,
            "durationTicks": 96,
            "midi": 65,
            "name": "F4",
            "ticks": 192,
            "time": 0.1714285,
            "velocity": 0.23622047244094488
          },
          {
            "duration": 0.08571425000000002,
            "durationTicks": 96,
            "midi": 81,
            "name": "A5",
            "ticks": 192,
            "time": 0.1714285,
            "velocity": 0.23622047244094488
          },
          {
            "duration": 0.08571425000000002,
            "durationTicks": 96,
            "midi": 41,
            "name": "F2",
            "ticks": 192,
            "time": 0.1714285,
            "velocity": 0.23622047244094488
          },
          {
            "duration": 0.08571424999999999,
            "durationTicks": 96,
            "midi": 79,
            "name": "G5",
            "ticks": 384,
            "time": 0.342857,
            "velocity": 0.23622047244094488
          },
          {
            "duration": 0.08571424999999999,
            "durationTicks": 96,
            "midi": 44,
            "name": "G#2",
            "ticks": 384,
            "time": 0.342857,
            "velocity": 0.23622047244094488
          },
          {
            "duration": 0.08571425000000005,
            "durationTicks": 96,
            "midi": 81,
            "name": "A5",
            "ticks": 480,
            "time": 0.42857125,
            "velocity": 0.23622047244094488
          },
          {
            "duration": 0.08571424999999999,
            "durationTicks": 96,
            "midi": 65,
            "name": "F4",
            "ticks": 576,
            "time": 0.5142855000000001,
            "velocity": 0.23622047244094488
          },
          {
            "duration": 0.08571424999999999,
            "durationTicks": 96,
            "midi": 69,
            "name": "A4",
            "ticks": 576,
            "time": 0.5142855000000001,
            "velocity": 0.23622047244094488
          },
          {
            "duration": 0.08571424999999999,
            "durationTicks": 96,
            "midi": 39,
            "name": "D#2",
            "ticks": 576,
            "time": 0.5142855000000001,
            "velocity": 0.23622047244094488
          },
          {
            "duration": 0.08571424999999999,
            "durationTicks": 96,
            "midi": 76,
            "name": "E5",
            "ticks": 672,
            "time": 0.59999975,
            "velocity": 0.23622047244094488
          },
          {
            "duration": 0.08571424999999999,
            "durationTicks": 96,
            "midi": 62,
            "name": "D4",
            "ticks": 768,
            "time": 0.685714,
            "velocity": 0.23622047244094488
          },
          {
            "duration": 0.08571424999999999,
            "durationTicks": 96,
            "midi": 77,
            "name": "F5",
            "ticks": 864,
            "time": 0.77142825,
            "velocity": 0.23622047244094488
          },
          {
            "duration": 0.08571424999999999,
            "durationTicks": 96,
            "midi": 69,
            "name": "A4",
            "ticks": 960,
            "time": 0.8571425,
            "velocity": 0.23622047244094488
          },
          {
            "duration": 0.08571424999999999,
            "durationTicks": 96,
            "midi": 39,
            "name": "D#2",
            "ticks": 960,
            "time": 0.8571425,
            "velocity": 0.23622047244094488
          },
          {
            "duration": 0.08571424999999999,
            "durationTicks": 96,
            "midi": 65,
            "name": "F4",
            "ticks": 960,
            "time": 0.8571425,
            "velocity": 0.23622047244094488
          },
          {
            "duration": 0.0857142500000001,
            "durationTicks": 96,
            "midi": 81,
            "name": "A5",
            "ticks": 1056,
            "time": 0.94285675,
            "velocity": 0.23622047244094488
          },
          {
            "duration": 0.08571424999999988,
            "durationTicks": 96,
            "midi": 44,
            "name": "G#2",
            "ticks": 1152,
            "time": 1.0285710000000001,
            "velocity": 0.23622047244094488
          },
          {
            "duration": 0.08571424999999988,
            "durationTicks": 96,
            "midi": 79,
            "name": "G5",
            "ticks": 1152,
            "time": 1.0285710000000001,
            "velocity": 0.23622047244094488
          },
          {
            "duration": 0.0857142500000001,
            "durationTicks": 96,
            "midi": 77,
            "name": "F5",
            "ticks": 1248,
            "time": 1.11428525,
            "velocity": 0.23622047244094488
          },
          {
            "duration": 0.08571424999999988,
            "durationTicks": 96,
            "midi": 69,
            "name": "A4",
            "ticks": 1344,
            "time": 1.1999995,
            "velocity": 0.23622047244094488
          },
          {
            "duration": 0.08571424999999988,
            "durationTicks": 96,
            "midi": 76,
            "name": "E5",
            "ticks": 1344,
            "time": 1.1999995,
            "velocity": 0.23622047244094488
          },
          {
            "duration": 0.08571424999999988,
            "durationTicks": 96,
            "midi": 41,
            "name": "F2",
            "ticks": 1344,
            "time": 1.1999995,
            "velocity": 0.23622047244094488
          },
          {
            "duration": 0.08571424999999988,
            "durationTicks": 96,
            "midi": 65,
            "name": "F4",
            "ticks": 1344,
            "time": 1.1999995,
            "velocity": 0.23622047244094488
          },
          {
            "duration": 0.0857142500000001,
            "durationTicks": 96,
            "midi": 74,
            "name": "D5",
            "ticks": 1440,
            "time": 1.28571375,
            "velocity": 0.23622047244094488
          },
          {
            "duration": 0.0857142500000001,
            "durationTicks": 96,
            "midi": 39,
            "name": "D#2",
            "ticks": 1536,
            "time": 1.371428,
            "velocity": 0.23622047244094488
          },
          {
            "duration": 0.0857142500000001,
            "durationTicks": 96,
            "midi": 62,
            "name": "D4",
            "ticks": 1536,
            "time": 1.371428,
            "velocity": 0.23622047244094488
          },
          {
            "duration": 0.08571424999999988,
            "durationTicks": 96,
            "midi": 74,
            "name": "D5",
            "ticks": 1632,
            "time": 1.4571422500000002,
            "velocity": 0.23622047244094488
          },
          {
            "duration": 0.0857142500000001,
            "durationTicks": 96,
            "midi": 41,
            "name": "F2",
            "ticks": 1728,
            "time": 1.5428565,
            "velocity": 0.23622047244094488
          },
          {
            "duration": 0.0857142500000001,
            "durationTicks": 96,
            "midi": 69,
            "name": "A4",
            "ticks": 1728,
            "time": 1.5428565,
            "velocity": 0.23622047244094488
          },
          {
            "duration": 0.0857142500000001,
            "durationTicks": 96,
            "midi": 65,
            "name": "F4",
            "ticks": 1728,
            "time": 1.5428565,
            "velocity": 0.23622047244094488
          },
          {
            "duration": 0.0857142500000001,
            "durationTicks": 96,
            "midi": 81,
            "name": "A5",
            "ticks": 1728,
            "time": 1.5428565,
            "velocity": 0.23622047244094488
          },
          {
            "duration": 0.0857142500000001,
            "durationTicks": 96,
            "midi": 44,
            "name": "G#2",
            "ticks": 1920,
            "time": 1.714285,
            "velocity": 0.23622047244094488
          },
          {
            "duration": 0.0857142500000001,
            "durationTicks": 96,
            "midi": 79,
            "name": "G5",
            "ticks": 1920,
            "time": 1.714285,
            "velocity": 0.23622047244094488
          },
          {
            "duration": 0.08571424999999988,
            "durationTicks": 96,
            "midi": 81,
            "name": "A5",
            "ticks": 2016,
            "time": 1.7999992500000002,
            "velocity": 0.23622047244094488
          },
          {
            "duration": 0.0857142500000001,
            "durationTicks": 96,
            "midi": 69,
            "name": "A4",
            "ticks": 2112,
            "time": 1.8857135,
            "velocity": 0.23622047244094488
          },
          {
            "duration": 0.0857142500000001,
            "durationTicks": 96,
            "midi": 65,
            "name": "F4",
            "ticks": 2112,
            "time": 1.8857135,
            "velocity": 0.23622047244094488
          },
          {
            "duration": 0.0857142500000001,
            "durationTicks": 96,
            "midi": 39,
            "name": "D#2",
            "ticks": 2112,
            "time": 1.8857135,
            "velocity": 0.23622047244094488
          },
          {
            "duration": 0.0857142500000001,
            "durationTicks": 96,
            "midi": 76,
            "name": "E5",
            "ticks": 2208,
            "time": 1.9714277500000001,
            "velocity": 0.23622047244094488
          },
          {
            "duration": 0.0857142500000001,
            "durationTicks": 96,
            "midi": 62,
            "name": "D4",
            "ticks": 2304,
            "time": 2.0571420000000002,
            "velocity": 0.23622047244094488
          },
          {
            "duration": 0.08571424999999966,
            "durationTicks": 96,
            "midi": 77,
            "name": "F5",
            "ticks": 2400,
            "time": 2.1428562500000004,
            "velocity": 0.23622047244094488
          },
          {
            "duration": 0.0857142500000001,
            "durationTicks": 96,
            "midi": 69,
            "name": "A4",
            "ticks": 2496,
            "time": 2.2285705,
            "velocity": 0.23622047244094488
          },
          {
            "duration": 0.0857142500000001,
            "durationTicks": 96,
            "midi": 39,
            "name": "D#2",
            "ticks": 2496,
            "time": 2.2285705,
            "velocity": 0.23622047244094488
          },
          {
            "duration": 0.0857142500000001,
            "durationTicks": 96,
            "midi": 65,
            "name": "F4",
            "ticks": 2496,
            "time": 2.2285705,
            "velocity": 0.23622047244094488
          },
          {
            "duration": 0.0857142500000001,
            "durationTicks": 96,
            "midi": 81,
            "name": "A5",
            "ticks": 2592,
            "time": 2.31428475,
            "velocity": 0.23622047244094488
          },
          {
            "duration": 0.0857142500000001,
            "durationTicks": 96,
            "midi": 44,
            "name": "G#2",
            "ticks": 2688,
            "time": 2.399999,
            "velocity": 0.23622047244094488
          },
          {
            "duration": 0.0857142500000001,
            "durationTicks": 96,
            "midi": 72,
            "name": "C5",
            "ticks": 2688,
            "time": 2.399999,
            "velocity": 0.23622047244094488
          },
          {
            "duration": 0.0857142500000001,
            "durationTicks": 96,
            "midi": 41,
            "name": "F2",
            "ticks": 2880,
            "time": 2.5714275,
            "velocity": 0.23622047244094488
          },
          {
            "duration": 0.0857142500000001,
            "durationTicks": 96,
            "midi": 69,
            "name": "A4",
            "ticks": 2880,
            "time": 2.5714275,
            "velocity": 0.23622047244094488
          },
          {
            "duration": 0.0857142500000001,
            "durationTicks": 96,
            "midi": 65,
            "name": "F4",
            "ticks": 2880,
            "time": 2.5714275,
            "velocity": 0.23622047244094488
          },
          {
            "duration": 0.0857142500000001,
            "durationTicks": 96,
            "midi": 73,
            "name": "C#5",
            "ticks": 2880,
            "time": 2.5714275,
            "velocity": 0.23622047244094488
          },
          {
            "duration": 0.0857142500000001,
            "durationTicks": 96,
            "midi": 74,
            "name": "D5",
            "ticks": 3072,
            "time": 2.742856,
            "velocity": 0.23622047244094488
          },
          {
            "duration": 0.0857142500000001,
            "durationTicks": 96,
            "midi": 62,
            "name": "D4",
            "ticks": 3072,
            "time": 2.742856,
            "velocity": 0.23622047244094488
          },
          {
            "duration": 0.0857142500000001,
            "durationTicks": 96,
            "midi": 39,
            "name": "D#2",
            "ticks": 3072,
            "time": 2.742856,
            "velocity": 0.23622047244094488
          },
          {
            "duration": 0.08571424999999966,
            "durationTicks": 96,
            "midi": 65,
            "name": "F4",
            "ticks": 3264,
            "time": 2.9142845000000004,
            "velocity": 0.23622047244094488
          },
          {
            "duration": 0.08571424999999966,
            "durationTicks": 96,
            "midi": 69,
            "name": "A4",
            "ticks": 3264,
            "time": 2.9142845000000004,
            "velocity": 0.23622047244094488
          },
          {
            "duration": 0.08571424999999966,
            "durationTicks": 96,
            "midi": 81,
            "name": "A5",
            "ticks": 3264,
            "time": 2.9142845000000004,
            "velocity": 0.23622047244094488
          },
          {
            "duration": 0.08571424999999966,
            "durationTicks": 96,
            "midi": 41,
            "name": "F2",
            "ticks": 3264,
            "time": 2.9142845000000004,
            "velocity": 0.23622047244094488
          },
          {
            "duration": 0.0857142500000001,
            "durationTicks": 96,
            "midi": 44,
            "name": "G#2",
            "ticks": 3456,
            "time": 3.085713,
            "velocity": 0.23622047244094488
          },
          {
            "duration": 0.0857142500000001,
            "durationTicks": 96,
            "midi": 79,
            "name": "G5",
            "ticks": 3456,
            "time": 3.085713,
            "velocity": 0.23622047244094488
          },
          {
            "duration": 0.0857142500000001,
            "durationTicks": 96,
            "midi": 81,
            "name": "A5",
            "ticks": 3552,
            "time": 3.1714272500000003,
            "velocity": 0.23622047244094488
          },
          {
            "duration": 0.08571424999999966,
            "durationTicks": 96,
            "midi": 69,
            "name": "A4",
            "ticks": 3648,
            "time": 3.2571415000000004,
            "velocity": 0.23622047244094488
          },
          {
            "duration": 0.08571424999999966,
            "durationTicks": 96,
            "midi": 39,
            "name": "D#2",
            "ticks": 3648,
            "time": 3.2571415000000004,
            "velocity": 0.23622047244094488
          },
          {
            "duration": 0.08571424999999966,
            "durationTicks": 96,
            "midi": 65,
            "name": "F4",
            "ticks": 3648,
            "time": 3.2571415000000004,
            "velocity": 0.23622047244094488
          },
          {
            "duration": 0.0857142500000001,
            "durationTicks": 96,
            "midi": 76,
            "name": "E5",
            "ticks": 3744,
            "time": 3.34285575,
            "velocity": 0.23622047244094488
          },
          {
            "duration": 0.0857142500000001,
            "durationTicks": 96,
            "midi": 62,
            "name": "D4",
            "ticks": 3840,
            "time": 3.42857,
            "velocity": 0.23622047244094488
          },
          {
            "duration": 0.0857142500000001,
            "durationTicks": 96,
            "midi": 77,
            "name": "F5",
            "ticks": 3936,
            "time": 3.51428425,
            "velocity": 0.23622047244094488
          },
          {
            "duration": 0.0857142500000001,
            "durationTicks": 96,
            "midi": 69,
            "name": "A4",
            "ticks": 4032,
            "time": 3.5999985000000003,
            "velocity": 0.23622047244094488
          },
          {
            "duration": 0.0857142500000001,
            "durationTicks": 96,
            "midi": 65,
            "name": "F4",
            "ticks": 4032,
            "time": 3.5999985000000003,
            "velocity": 0.23622047244094488
          },
          {
            "duration": 0.0857142500000001,
            "durationTicks": 96,
            "midi": 39,
            "name": "D#2",
            "ticks": 4032,
            "time": 3.5999985000000003,
            "velocity": 0.23622047244094488
          },
          {
            "duration": 0.08571424999999966,
            "durationTicks": 96,
            "midi": 81,
            "name": "A5",
            "ticks": 4128,
            "time": 3.6857127500000004,
            "velocity": 0.23622047244094488
          },
          {
            "duration": 0.0857142500000001,
            "durationTicks": 96,
            "midi": 79,
            "name": "G5",
            "ticks": 4224,
            "time": 3.771427,
            "velocity": 0.23622047244094488
          },
          {
            "duration": 0.0857142500000001,
            "durationTicks": 96,
            "midi": 44,
            "name": "G#2",
            "ticks": 4224,
            "time": 3.771427,
            "velocity": 0.23622047244094488
          },
          {
            "duration": 0.0857142500000001,
            "durationTicks": 96,
            "midi": 77,
            "name": "F5",
            "ticks": 4320,
            "time": 3.85714125,
            "velocity": 0.23622047244094488
          },
          {
            "duration": 0.08571424999999966,
            "durationTicks": 96,
            "midi": 65,
            "name": "F4",
            "ticks": 4416,
            "time": 3.9428555000000003,
            "velocity": 0.23622047244094488
          },
          {
            "duration": 0.08571424999999966,
            "durationTicks": 96,
            "midi": 41,
            "name": "F2",
            "ticks": 4416,
            "time": 3.9428555000000003,
            "velocity": 0.23622047244094488
          },
          {
            "duration": 0.08571424999999966,
            "durationTicks": 96,
            "midi": 69,
            "name": "A4",
            "ticks": 4416,
            "time": 3.9428555000000003,
            "velocity": 0.23622047244094488
          },
          {
            "duration": 0.08571424999999966,
            "durationTicks": 96,
            "midi": 76,
            "name": "E5",
            "ticks": 4416,
            "time": 3.9428555000000003,
            "velocity": 0.23622047244094488
          },
          {
            "duration": 0.08571425000000055,
            "durationTicks": 96,
            "midi": 74,
            "name": "D5",
            "ticks": 4512,
            "time": 4.02856975,
            "velocity": 0.23622047244094488
          },
          {
            "duration": 0.08571424999999966,
            "durationTicks": 96,
            "midi": 39,
            "name": "D#2",
            "ticks": 4608,
            "time": 4.1142840000000005,
            "velocity": 0.23622047244094488
          },
          {
            "duration": 0.08571424999999966,
            "durationTicks": 96,
            "midi": 62,
            "name": "D4",
            "ticks": 4608,
            "time": 4.1142840000000005,
            "velocity": 0.23622047244094488
          },
          {
            "duration": 0.08571425000000055,
            "durationTicks": 96,
            "midi": 74,
            "name": "D5",
            "ticks": 4704,
            "time": 4.19999825,
            "velocity": 0.23622047244094488
          },
          {
            "duration": 0.08571424999999966,
            "durationTicks": 96,
            "midi": 69,
            "name": "A4",
            "ticks": 4800,
            "time": 4.285712500000001,
            "velocity": 0.23622047244094488
          },
          {
            "duration": 0.08571424999999966,
            "durationTicks": 96,
            "midi": 65,
            "name": "F4",
            "ticks": 4800,
            "time": 4.285712500000001,
            "velocity": 0.23622047244094488
          },
          {
            "duration": 0.08571424999999966,
            "durationTicks": 96,
            "midi": 41,
            "name": "F2",
            "ticks": 4800,
            "time": 4.285712500000001,
            "velocity": 0.23622047244094488
          },
          {
            "duration": 0.08571424999999966,
            "durationTicks": 96,
            "midi": 81,
            "name": "A5",
            "ticks": 4800,
            "time": 4.285712500000001,
            "velocity": 0.23622047244094488
          },
          {
            "duration": 0.08571425000000055,
            "durationTicks": 96,
            "midi": 44,
            "name": "G#2",
            "ticks": 4992,
            "time": 4.457141,
            "velocity": 0.23622047244094488
          },
          {
            "duration": 0.08571425000000055,
            "durationTicks": 96,
            "midi": 79,
            "name": "G5",
            "ticks": 4992,
            "time": 4.457141,
            "velocity": 0.23622047244094488
          },
          {
            "duration": 0.08571424999999966,
            "durationTicks": 96,
            "midi": 81,
            "name": "A5",
            "ticks": 5088,
            "time": 4.542855250000001,
            "velocity": 0.23622047244094488
          },
          {
            "duration": 0.08571424999999966,
            "durationTicks": 96,
            "midi": 65,
            "name": "F4",
            "ticks": 5184,
            "time": 4.6285695,
            "velocity": 0.23622047244094488
          },
          {
            "duration": 0.08571424999999966,
            "durationTicks": 96,
            "midi": 39,
            "name": "D#2",
            "ticks": 5184,
            "time": 4.6285695,
            "velocity": 0.23622047244094488
          },
          {
            "duration": 0.08571424999999966,
            "durationTicks": 96,
            "midi": 69,
            "name": "A4",
            "ticks": 5184,
            "time": 4.6285695,
            "velocity": 0.23622047244094488
          },
          {
            "duration": 0.08571425000000055,
            "durationTicks": 96,
            "midi": 76,
            "name": "E5",
            "ticks": 5280,
            "time": 4.71428375,
            "velocity": 0.23622047244094488
          },
          {
            "duration": 0.08571424999999966,
            "durationTicks": 96,
            "midi": 62,
            "name": "D4",
            "ticks": 5376,
            "time": 4.799998,
            "velocity": 0.23622047244094488
          },
          {
            "duration": 0.08571425000000055,
            "durationTicks": 96,
            "midi": 77,
            "name": "F5",
            "ticks": 5472,
            "time": 4.88571225,
            "velocity": 0.23622047244094488
          },
          {
            "duration": 0.08571424999999966,
            "durationTicks": 96,
            "midi": 39,
            "name": "D#2",
            "ticks": 5568,
            "time": 4.971426500000001,
            "velocity": 0.23622047244094488
          },
          {
            "duration": 0.08571424999999966,
            "durationTicks": 96,
            "midi": 65,
            "name": "F4",
            "ticks": 5568,
            "time": 4.971426500000001,
            "velocity": 0.23622047244094488
          },
          {
            "duration": 0.08571424999999966,
            "durationTicks": 96,
            "midi": 69,
            "name": "A4",
            "ticks": 5568,
            "time": 4.971426500000001,
            "velocity": 0.23622047244094488
          },
          {
            "duration": 0.08571424999999966,
            "durationTicks": 96,
            "midi": 81,
            "name": "A5",
            "ticks": 5664,
            "time": 5.05714075,
            "velocity": 0.23622047244094488
          },
          {
            "duration": 0.08571425000000055,
            "durationTicks": 96,
            "midi": 72,
            "name": "C5",
            "ticks": 5760,
            "time": 5.142855,
            "velocity": 0.23622047244094488
          },
          {
            "duration": 0.08571425000000055,
            "durationTicks": 96,
            "midi": 44,
            "name": "G#2",
            "ticks": 5760,
            "time": 5.142855,
            "velocity": 0.23622047244094488
          },
          {
            "duration": 0.08571425000000055,
            "durationTicks": 96,
            "midi": 73,
            "name": "C#5",
            "ticks": 5952,
            "time": 5.3142835,
            "velocity": 0.23622047244094488
          },
          {
            "duration": 0.08571425000000055,
            "durationTicks": 96,
            "midi": 69,
            "name": "A4",
            "ticks": 5952,
            "time": 5.3142835,
            "velocity": 0.23622047244094488
          },
          {
            "duration": 0.08571425000000055,
            "durationTicks": 96,
            "midi": 65,
            "name": "F4",
            "ticks": 5952,
            "time": 5.3142835,
            "velocity": 0.23622047244094488
          },
          {
            "duration": 0.08571425000000055,
            "durationTicks": 96,
            "midi": 41,
            "name": "F2",
            "ticks": 5952,
            "time": 5.3142835,
            "velocity": 0.23622047244094488
          },
          {
            "duration": 0.08571424999999966,
            "durationTicks": 96,
            "midi": 39,
            "name": "D#2",
            "ticks": 6144,
            "time": 5.485712,
            "velocity": 0.23622047244094488
          },
          {
            "duration": 0.08571424999999966,
            "durationTicks": 96,
            "midi": 62,
            "name": "D4",
            "ticks": 6144,
            "time": 5.485712,
            "velocity": 0.23622047244094488
          },
          {
            "duration": 0.08571424999999966,
            "durationTicks": 96,
            "midi": 57,
            "name": "A3",
            "ticks": 6144,
            "time": 5.485712,
            "velocity": 0.23622047244094488
          },
          {
            "duration": 0.08571424999999966,
            "durationTicks": 96,
            "midi": 74,
            "name": "D5",
            "ticks": 6144,
            "time": 5.485712,
            "velocity": 0.23622047244094488
          },
          {
            "duration": 0.08571424999999966,
            "durationTicks": 96,
            "midi": 41,
            "name": "F2",
            "ticks": 6336,
            "time": 5.657140500000001,
            "velocity": 0.23622047244094488
          },
          {
            "duration": 0.08571424999999966,
            "durationTicks": 96,
            "midi": 69,
            "name": "A4",
            "ticks": 6336,
            "time": 5.657140500000001,
            "velocity": 0.23622047244094488
          },
          {
            "duration": 0.08571424999999966,
            "durationTicks": 96,
            "midi": 65,
            "name": "F4",
            "ticks": 6336,
            "time": 5.657140500000001,
            "velocity": 0.23622047244094488
          },
          {
            "duration": 0.08571424999999966,
            "durationTicks": 96,
            "midi": 81,
            "name": "A5",
            "ticks": 6336,
            "time": 5.657140500000001,
            "velocity": 0.23622047244094488
          },
          {
            "duration": 0.08571424999999966,
            "durationTicks": 96,
            "midi": 44,
            "name": "G#2",
            "ticks": 6528,
            "time": 5.828569000000001,
            "velocity": 0.23622047244094488
          },
          {
            "duration": 0.08571424999999966,
            "durationTicks": 96,
            "midi": 79,
            "name": "G5",
            "ticks": 6528,
            "time": 5.828569000000001,
            "velocity": 0.23622047244094488
          },
          {
            "duration": 0.08571424999999966,
            "durationTicks": 96,
            "midi": 81,
            "name": "A5",
            "ticks": 6624,
            "time": 5.91428325,
            "velocity": 0.23622047244094488
          },
          {
            "duration": 0.08571425000000055,
            "durationTicks": 96,
            "midi": 39,
            "name": "D#2",
            "ticks": 6720,
            "time": 5.9999975,
            "velocity": 0.23622047244094488
          },
          {
            "duration": 0.08571425000000055,
            "durationTicks": 96,
            "midi": 65,
            "name": "F4",
            "ticks": 6720,
            "time": 5.9999975,
            "velocity": 0.23622047244094488
          },
          {
            "duration": 0.08571425000000055,
            "durationTicks": 96,
            "midi": 69,
            "name": "A4",
            "ticks": 6720,
            "time": 5.9999975,
            "velocity": 0.23622047244094488
          },
          {
            "duration": 0.08571424999999966,
            "durationTicks": 96,
            "midi": 76,
            "name": "E5",
            "ticks": 6816,
            "time": 6.085711750000001,
            "velocity": 0.23622047244094488
          },
          {
            "duration": 0.08571425000000055,
            "durationTicks": 96,
            "midi": 62,
            "name": "D4",
            "ticks": 6912,
            "time": 6.171426,
            "velocity": 0.23622047244094488
          },
          {
            "duration": 0.08571424999999966,
            "durationTicks": 96,
            "midi": 77,
            "name": "F5",
            "ticks": 7008,
            "time": 6.257140250000001,
            "velocity": 0.23622047244094488
          },
          {
            "duration": 0.08571424999999966,
            "durationTicks": 96,
            "midi": 69,
            "name": "A4",
            "ticks": 7104,
            "time": 6.3428545000000005,
            "velocity": 0.23622047244094488
          },
          {
            "duration": 0.08571424999999966,
            "durationTicks": 96,
            "midi": 65,
            "name": "F4",
            "ticks": 7104,
            "time": 6.3428545000000005,
            "velocity": 0.23622047244094488
          },
          {
            "duration": 0.08571424999999966,
            "durationTicks": 96,
            "midi": 39,
            "name": "D#2",
            "ticks": 7104,
            "time": 6.3428545000000005,
            "velocity": 0.23622047244094488
          },
          {
            "duration": 0.08571425000000055,
            "durationTicks": 96,
            "midi": 81,
            "name": "A5",
            "ticks": 7200,
            "time": 6.42856875,
            "velocity": 0.23622047244094488
          },
          {
            "duration": 0.08571424999999966,
            "durationTicks": 96,
            "midi": 44,
            "name": "G#2",
            "ticks": 7296,
            "time": 6.514283000000001,
            "velocity": 0.23622047244094488
          },
          {
            "duration": 0.08571424999999966,
            "durationTicks": 96,
            "midi": 79,
            "name": "G5",
            "ticks": 7296,
            "time": 6.514283000000001,
            "velocity": 0.23622047244094488
          },
          {
            "duration": 0.08571424999999966,
            "durationTicks": 96,
            "midi": 77,
            "name": "F5",
            "ticks": 7392,
            "time": 6.59999725,
            "velocity": 0.23622047244094488
          },
          {
            "duration": 0.08571425000000055,
            "durationTicks": 96,
            "midi": 41,
            "name": "F2",
            "ticks": 7488,
            "time": 6.6857115,
            "velocity": 0.23622047244094488
          },
          {
            "duration": 0.08571425000000055,
            "durationTicks": 96,
            "midi": 76,
            "name": "E5",
            "ticks": 7488,
            "time": 6.6857115,
            "velocity": 0.23622047244094488
          },
          {
            "duration": 0.08571425000000055,
            "durationTicks": 96,
            "midi": 69,
            "name": "A4",
            "ticks": 7488,
            "time": 6.6857115,
            "velocity": 0.23622047244094488
          },
          {
            "duration": 0.08571425000000055,
            "durationTicks": 96,
            "midi": 65,
            "name": "F4",
            "ticks": 7488,
            "time": 6.6857115,
            "velocity": 0.23622047244094488
          },
          {
            "duration": 0.08571424999999966,
            "durationTicks": 96,
            "midi": 74,
            "name": "D5",
            "ticks": 7584,
            "time": 6.771425750000001,
            "velocity": 0.23622047244094488
          },
          {
            "duration": 0.08571425000000055,
            "durationTicks": 96,
            "midi": 39,
            "name": "D#2",
            "ticks": 7680,
            "time": 6.85714,
            "velocity": 0.23622047244094488
          },
          {
            "duration": 0.08571425000000055,
            "durationTicks": 96,
            "midi": 62,
            "name": "D4",
            "ticks": 7680,
            "time": 6.85714,
            "velocity": 0.23622047244094488
          },
          {
            "duration": 0.08571424999999966,
            "durationTicks": 96,
            "midi": 74,
            "name": "D5",
            "ticks": 7776,
            "time": 6.942854250000001,
            "velocity": 0.23622047244094488
          },
          {
            "duration": 0.08571424999999966,
            "durationTicks": 96,
            "midi": 81,
            "name": "A5",
            "ticks": 7872,
            "time": 7.0285685,
            "velocity": 0.23622047244094488
          },
          {
            "duration": 0.08571424999999966,
            "durationTicks": 96,
            "midi": 41,
            "name": "F2",
            "ticks": 7872,
            "time": 7.0285685,
            "velocity": 0.23622047244094488
          },
          {
            "duration": 0.08571424999999966,
            "durationTicks": 96,
            "midi": 65,
            "name": "F4",
            "ticks": 7872,
            "time": 7.0285685,
            "velocity": 0.23622047244094488
          },
          {
            "duration": 0.08571424999999966,
            "durationTicks": 96,
            "midi": 69,
            "name": "A4",
            "ticks": 7872,
            "time": 7.0285685,
            "velocity": 0.23622047244094488
          },
          {
            "duration": 0.08571424999999966,
            "durationTicks": 96,
            "midi": 44,
            "name": "G#2",
            "ticks": 8064,
            "time": 7.199997000000001,
            "velocity": 0.23622047244094488
          },
          {
            "duration": 0.08571424999999966,
            "durationTicks": 96,
            "midi": 79,
            "name": "G5",
            "ticks": 8064,
            "time": 7.199997000000001,
            "velocity": 0.23622047244094488
          },
          {
            "duration": 0.08571425000000055,
            "durationTicks": 96,
            "midi": 81,
            "name": "A5",
            "ticks": 8160,
            "time": 7.28571125,
            "velocity": 0.23622047244094488
          },
          {
            "duration": 0.08571424999999966,
            "durationTicks": 96,
            "midi": 69,
            "name": "A4",
            "ticks": 8256,
            "time": 7.371425500000001,
            "velocity": 0.23622047244094488
          },
          {
            "duration": 0.08571424999999966,
            "durationTicks": 96,
            "midi": 39,
            "name": "D#2",
            "ticks": 8256,
            "time": 7.371425500000001,
            "velocity": 0.23622047244094488
          },
          {
            "duration": 0.08571424999999966,
            "durationTicks": 96,
            "midi": 65,
            "name": "F4",
            "ticks": 8256,
            "time": 7.371425500000001,
            "velocity": 0.23622047244094488
          },
          {
            "duration": 0.08571424999999966,
            "durationTicks": 96,
            "midi": 76,
            "name": "E5",
            "ticks": 8352,
            "time": 7.4571397500000005,
            "velocity": 0.23622047244094488
          },
          {
            "duration": 0.08571425000000055,
            "durationTicks": 96,
            "midi": 62,
            "name": "D4",
            "ticks": 8448,
            "time": 7.542854,
            "velocity": 0.23622047244094488
          },
          {
            "duration": 0.08571424999999966,
            "durationTicks": 96,
            "midi": 77,
            "name": "F5",
            "ticks": 8544,
            "time": 7.628568250000001,
            "velocity": 0.23622047244094488
          },
          {
            "duration": 0.08571425000000055,
            "durationTicks": 96,
            "midi": 39,
            "name": "D#2",
            "ticks": 8640,
            "time": 7.7142825,
            "velocity": 0.23622047244094488
          },
          {
            "duration": 0.08571425000000055,
            "durationTicks": 96,
            "midi": 65,
            "name": "F4",
            "ticks": 8640,
            "time": 7.7142825,
            "velocity": 0.23622047244094488
          },
          {
            "duration": 0.08571425000000055,
            "durationTicks": 96,
            "midi": 69,
            "name": "A4",
            "ticks": 8640,
            "time": 7.7142825,
            "velocity": 0.23622047244094488
          },
          {
            "duration": 0.08571424999999966,
            "durationTicks": 96,
            "midi": 81,
            "name": "A5",
            "ticks": 8736,
            "time": 7.799996750000001,
            "velocity": 0.23622047244094488
          },
          {
            "duration": 0.08571424999999966,
            "durationTicks": 96,
            "midi": 44,
            "name": "G#2",
            "ticks": 8832,
            "time": 7.885711000000001,
            "velocity": 0.23622047244094488
          },
          {
            "duration": 0.08571424999999966,
            "durationTicks": 96,
            "midi": 72,
            "name": "C5",
            "ticks": 8832,
            "time": 7.885711000000001,
            "velocity": 0.23622047244094488
          },
          {
            "duration": 0.08571425000000055,
            "durationTicks": 96,
            "midi": 41,
            "name": "F2",
            "ticks": 9024,
            "time": 8.0571395,
            "velocity": 0.23622047244094488
          },
          {
            "duration": 0.08571425000000055,
            "durationTicks": 96,
            "midi": 69,
            "name": "A4",
            "ticks": 9024,
            "time": 8.0571395,
            "velocity": 0.23622047244094488
          },
          {
            "duration": 0.08571425000000055,
            "durationTicks": 96,
            "midi": 73,
            "name": "C#5",
            "ticks": 9024,
            "time": 8.0571395,
            "velocity": 0.23622047244094488
          },
          {
            "duration": 0.08571425000000055,
            "durationTicks": 96,
            "midi": 65,
            "name": "F4",
            "ticks": 9024,
            "time": 8.0571395,
            "velocity": 0.23622047244094488
          },
          {
            "duration": 0.08571424999999877,
            "durationTicks": 96,
            "midi": 74,
            "name": "D5",
            "ticks": 9216,
            "time": 8.228568000000001,
            "velocity": 0.23622047244094488
          },
          {
            "duration": 0.08571424999999877,
            "durationTicks": 96,
            "midi": 39,
            "name": "D#2",
            "ticks": 9216,
            "time": 8.228568000000001,
            "velocity": 0.23622047244094488
          },
          {
            "duration": 0.08571424999999877,
            "durationTicks": 96,
            "midi": 62,
            "name": "D4",
            "ticks": 9216,
            "time": 8.228568000000001,
            "velocity": 0.23622047244094488
          },
          {
            "duration": 0.08571425000000055,
            "durationTicks": 96,
            "midi": 69,
            "name": "A4",
            "ticks": 9408,
            "time": 8.3999965,
            "velocity": 0.23622047244094488
          },
          {
            "duration": 0.08571425000000055,
            "durationTicks": 96,
            "midi": 41,
            "name": "F2",
            "ticks": 9408,
            "time": 8.3999965,
            "velocity": 0.23622047244094488
          },
          {
            "duration": 0.08571425000000055,
            "durationTicks": 96,
            "midi": 81,
            "name": "A5",
            "ticks": 9408,
            "time": 8.3999965,
            "velocity": 0.23622047244094488
          },
          {
            "duration": 0.08571425000000055,
            "durationTicks": 96,
            "midi": 65,
            "name": "F4",
            "ticks": 9408,
            "time": 8.3999965,
            "velocity": 0.23622047244094488
          },
          {
            "duration": 0.08571424999999877,
            "durationTicks": 96,
            "midi": 44,
            "name": "G#2",
            "ticks": 9600,
            "time": 8.571425000000001,
            "velocity": 0.23622047244094488
          },
          {
            "duration": 0.08571424999999877,
            "durationTicks": 96,
            "midi": 79,
            "name": "G5",
            "ticks": 9600,
            "time": 8.571425000000001,
            "velocity": 0.23622047244094488
          },
          {
            "duration": 0.08571425000000055,
            "durationTicks": 96,
            "midi": 81,
            "name": "A5",
            "ticks": 9696,
            "time": 8.65713925,
            "velocity": 0.23622047244094488
          },
          {
            "duration": 0.08571425000000055,
            "durationTicks": 96,
            "midi": 69,
            "name": "A4",
            "ticks": 9792,
            "time": 8.7428535,
            "velocity": 0.23622047244094488
          },
          {
            "duration": 0.08571425000000055,
            "durationTicks": 96,
            "midi": 65,
            "name": "F4",
            "ticks": 9792,
            "time": 8.7428535,
            "velocity": 0.23622047244094488
          },
          {
            "duration": 0.08571425000000055,
            "durationTicks": 96,
            "midi": 39,
            "name": "D#2",
            "ticks": 9792,
            "time": 8.7428535,
            "velocity": 0.23622047244094488
          },
          {
            "duration": 0.08571424999999877,
            "durationTicks": 96,
            "midi": 76,
            "name": "E5",
            "ticks": 9888,
            "time": 8.828567750000001,
            "velocity": 0.23622047244094488
          },
          {
            "duration": 0.08571425000000055,
            "durationTicks": 96,
            "midi": 62,
            "name": "D4",
            "ticks": 9984,
            "time": 8.914282,
            "velocity": 0.23622047244094488
          },
          {
            "duration": 0.08571425000000055,
            "durationTicks": 96,
            "midi": 77,
            "name": "F5",
            "ticks": 10080,
            "time": 8.99999625,
            "velocity": 0.23622047244094488
          },
          {
            "duration": 0.08571424999999877,
            "durationTicks": 96,
            "midi": 39,
            "name": "D#2",
            "ticks": 10176,
            "time": 9.085710500000001,
            "velocity": 0.23622047244094488
          },
          {
            "duration": 0.08571424999999877,
            "durationTicks": 96,
            "midi": 65,
            "name": "F4",
            "ticks": 10176,
            "time": 9.085710500000001,
            "velocity": 0.23622047244094488
          },
          {
            "duration": 0.08571424999999877,
            "durationTicks": 96,
            "midi": 69,
            "name": "A4",
            "ticks": 10176,
            "time": 9.085710500000001,
            "velocity": 0.23622047244094488
          },
          {
            "duration": 0.08571425000000055,
            "durationTicks": 96,
            "midi": 81,
            "name": "A5",
            "ticks": 10272,
            "time": 9.17142475,
            "velocity": 0.23622047244094488
          },
          {
            "duration": 0.08571425000000055,
            "durationTicks": 96,
            "midi": 79,
            "name": "G5",
            "ticks": 10368,
            "time": 9.257139,
            "velocity": 0.23622047244094488
          },
          {
            "duration": 0.08571425000000055,
            "durationTicks": 96,
            "midi": 44,
            "name": "G#2",
            "ticks": 10368,
            "time": 9.257139,
            "velocity": 0.23622047244094488
          },
          {
            "duration": 0.08571424999999877,
            "durationTicks": 96,
            "midi": 77,
            "name": "F5",
            "ticks": 10464,
            "time": 9.342853250000001,
            "velocity": 0.23622047244094488
          },
          {
            "duration": 0.08571425000000055,
            "durationTicks": 96,
            "midi": 65,
            "name": "F4",
            "ticks": 10560,
            "time": 9.4285675,
            "velocity": 0.23622047244094488
          },
          {
            "duration": 0.08571425000000055,
            "durationTicks": 96,
            "midi": 76,
            "name": "E5",
            "ticks": 10560,
            "time": 9.4285675,
            "velocity": 0.23622047244094488
          },
          {
            "duration": 0.08571425000000055,
            "durationTicks": 96,
            "midi": 69,
            "name": "A4",
            "ticks": 10560,
            "time": 9.4285675,
            "velocity": 0.23622047244094488
          },
          {
            "duration": 0.08571425000000055,
            "durationTicks": 96,
            "midi": 41,
            "name": "F2",
            "ticks": 10560,
            "time": 9.4285675,
            "velocity": 0.23622047244094488
          },
          {
            "duration": 0.08571425000000055,
            "durationTicks": 96,
            "midi": 74,
            "name": "D5",
            "ticks": 10656,
            "time": 9.51428175,
            "velocity": 0.23622047244094488
          },
          {
            "duration": 0.08571425000000055,
            "durationTicks": 96,
            "midi": 39,
            "name": "D#2",
            "ticks": 10752,
            "time": 9.599996,
            "velocity": 0.23622047244094488
          },
          {
            "duration": 0.08571425000000055,
            "durationTicks": 96,
            "midi": 62,
            "name": "D4",
            "ticks": 10752,
            "time": 9.599996,
            "velocity": 0.23622047244094488
          },
          {
            "duration": 0.08571424999999877,
            "durationTicks": 96,
            "midi": 74,
            "name": "D5",
            "ticks": 10848,
            "time": 9.685710250000001,
            "velocity": 0.23622047244094488
          },
          {
            "duration": 0.08571425000000055,
            "durationTicks": 96,
            "midi": 65,
            "name": "F4",
            "ticks": 10944,
            "time": 9.7714245,
            "velocity": 0.23622047244094488
          },
          {
            "duration": 0.08571425000000055,
            "durationTicks": 96,
            "midi": 69,
            "name": "A4",
            "ticks": 10944,
            "time": 9.7714245,
            "velocity": 0.23622047244094488
          },
          {
            "duration": 0.08571425000000055,
            "durationTicks": 96,
            "midi": 41,
            "name": "F2",
            "ticks": 10944,
            "time": 9.7714245,
            "velocity": 0.23622047244094488
          },
          {
            "duration": 0.08571425000000055,
            "durationTicks": 96,
            "midi": 81,
            "name": "A5",
            "ticks": 10944,
            "time": 9.7714245,
            "velocity": 0.23622047244094488
          },
          {
            "duration": 0.08571424999999877,
            "durationTicks": 96,
            "midi": 79,
            "name": "G5",
            "ticks": 11136,
            "time": 9.942853000000001,
            "velocity": 0.23622047244094488
          },
          {
            "duration": 0.08571424999999877,
            "durationTicks": 96,
            "midi": 44,
            "name": "G#2",
            "ticks": 11136,
            "time": 9.942853000000001,
            "velocity": 0.23622047244094488
          },
          {
            "duration": 0.08571425000000055,
            "durationTicks": 96,
            "midi": 81,
            "name": "A5",
            "ticks": 11232,
            "time": 10.02856725,
            "velocity": 0.23622047244094488
          },
          {
            "duration": 0.08571425000000055,
            "durationTicks": 96,
            "midi": 39,
            "name": "D#2",
            "ticks": 11328,
            "time": 10.1142815,
            "velocity": 0.23622047244094488
          },
          {
            "duration": 0.08571425000000055,
            "durationTicks": 96,
            "midi": 65,
            "name": "F4",
            "ticks": 11328,
            "time": 10.1142815,
            "velocity": 0.23622047244094488
          },
          {
            "duration": 0.08571425000000055,
            "durationTicks": 96,
            "midi": 69,
            "name": "A4",
            "ticks": 11328,
            "time": 10.1142815,
            "velocity": 0.23622047244094488
          },
          {
            "duration": 0.08571424999999877,
            "durationTicks": 96,
            "midi": 84,
            "name": "C6",
            "ticks": 11424,
            "time": 10.199995750000001,
            "velocity": 0.23622047244094488
          },
          {
            "duration": 0.08571425000000055,
            "durationTicks": 96,
            "midi": 44,
            "name": "G#2",
            "ticks": 11520,
            "time": 10.28571,
            "velocity": 0.23622047244094488
          },
          {
            "duration": 0.08571425000000055,
            "durationTicks": 96,
            "midi": 62,
            "name": "D4",
            "ticks": 11520,
            "time": 10.28571,
            "velocity": 0.23622047244094488
          },
          {
            "duration": 0.08571425000000055,
            "durationTicks": 96,
            "midi": 84,
            "name": "C6",
            "ticks": 11616,
            "time": 10.37142425,
            "velocity": 0.23622047244094488
          },
          {
            "duration": 0.08571425000000055,
            "durationTicks": 96,
            "midi": 81,
            "name": "A5",
            "ticks": 11712,
            "time": 10.457138500000001,
            "velocity": 0.23622047244094488
          },
          {
            "duration": 0.08571425000000055,
            "durationTicks": 96,
            "midi": 69,
            "name": "A4",
            "ticks": 11712,
            "time": 10.457138500000001,
            "velocity": 0.23622047244094488
          },
          {
            "duration": 0.08571425000000055,
            "durationTicks": 96,
            "midi": 65,
            "name": "F4",
            "ticks": 11712,
            "time": 10.457138500000001,
            "velocity": 0.23622047244094488
          },
          {
            "duration": 0.08571425000000055,
            "durationTicks": 96,
            "midi": 39,
            "name": "D#2",
            "ticks": 11712,
            "time": 10.457138500000001,
            "velocity": 0.23622047244094488
          },
          {
            "duration": 0.08571425000000055,
            "durationTicks": 96,
            "midi": 44,
            "name": "G#2",
            "ticks": 11904,
            "time": 10.628567,
            "velocity": 0.23622047244094488
          },
          {
            "duration": 0.08571425000000055,
            "durationTicks": 96,
            "midi": 88,
            "name": "E6",
            "ticks": 11904,
            "time": 10.628567,
            "velocity": 0.23622047244094488
          },
          {
            "duration": 0.08571424999999877,
            "durationTicks": 96,
            "midi": 84,
            "name": "C6",
            "ticks": 12096,
            "time": 10.799995500000001,
            "velocity": 0.23622047244094488
          },
          {
            "duration": 0.08571424999999877,
            "durationTicks": 96,
            "midi": 67,
            "name": "G4",
            "ticks": 12096,
            "time": 10.799995500000001,
            "velocity": 0.23622047244094488
          },
          {
            "duration": 0.08571424999999877,
            "durationTicks": 96,
            "midi": 41,
            "name": "F2",
            "ticks": 12096,
            "time": 10.799995500000001,
            "velocity": 0.23622047244094488
          },
          {
            "duration": 0.08571424999999877,
            "durationTicks": 96,
            "midi": 72,
            "name": "C5",
            "ticks": 12096,
            "time": 10.799995500000001,
            "velocity": 0.23622047244094488
          },
          {
            "duration": 0.08571425000000055,
            "durationTicks": 96,
            "midi": 85,
            "name": "C#6",
            "ticks": 12192,
            "time": 10.88570975,
            "velocity": 0.23622047244094488
          },
          {
            "duration": 0.08571425000000055,
            "durationTicks": 96,
            "midi": 57,
            "name": "A3",
            "ticks": 12288,
            "time": 10.971424,
            "velocity": 0.23622047244094488
          },
          {
            "duration": 0.08571425000000055,
            "durationTicks": 96,
            "midi": 86,
            "name": "D6",
            "ticks": 12288,
            "time": 10.971424,
            "velocity": 0.23622047244094488
          },
          {
            "duration": 0.08571425000000055,
            "durationTicks": 96,
            "midi": 74,
            "name": "D5",
            "ticks": 12288,
            "time": 10.971424,
            "velocity": 0.23622047244094488
          },
          {
            "duration": 0.08571425000000055,
            "durationTicks": 96,
            "midi": 39,
            "name": "D#2",
            "ticks": 12288,
            "time": 10.971424,
            "velocity": 0.23622047244094488
          },
          {
            "duration": 0.08571425000000055,
            "durationTicks": 96,
            "midi": 41,
            "name": "F2",
            "ticks": 12480,
            "time": 11.1428525,
            "velocity": 0.23622047244094488
          },
          {
            "duration": 0.08571425000000055,
            "durationTicks": 96,
            "midi": 93,
            "name": "A6",
            "ticks": 12480,
            "time": 11.1428525,
            "velocity": 0.23622047244094488
          },
          {
            "duration": 0.08571425000000055,
            "durationTicks": 96,
            "midi": 77,
            "name": "F5",
            "ticks": 12480,
            "time": 11.1428525,
            "velocity": 0.23622047244094488
          },
          {
            "duration": 0.08571425000000055,
            "durationTicks": 96,
            "midi": 81,
            "name": "A5",
            "ticks": 12480,
            "time": 11.1428525,
            "velocity": 0.23622047244094488
          },
          {
            "duration": 0.08571424999999877,
            "durationTicks": 96,
            "midi": 44,
            "name": "G#2",
            "ticks": 12672,
            "time": 11.314281000000001,
            "velocity": 0.23622047244094488
          },
          {
            "duration": 0.08571424999999877,
            "durationTicks": 96,
            "midi": 91,
            "name": "G6",
            "ticks": 12672,
            "time": 11.314281000000001,
            "velocity": 0.23622047244094488
          },
          {
            "duration": 0.08571425000000055,
            "durationTicks": 96,
            "midi": 93,
            "name": "A6",
            "ticks": 12768,
            "time": 11.39999525,
            "velocity": 0.23622047244094488
          },
          {
            "duration": 0.08571425000000055,
            "durationTicks": 96,
            "midi": 77,
            "name": "F5",
            "ticks": 12864,
            "time": 11.4857095,
            "velocity": 0.23622047244094488
          },
          {
            "duration": 0.08571425000000055,
            "durationTicks": 96,
            "midi": 81,
            "name": "A5",
            "ticks": 12864,
            "time": 11.4857095,
            "velocity": 0.23622047244094488
          },
          {
            "duration": 0.08571425000000055,
            "durationTicks": 96,
            "midi": 39,
            "name": "D#2",
            "ticks": 12864,
            "time": 11.4857095,
            "velocity": 0.23622047244094488
          },
          {
            "duration": 0.08571425000000055,
            "durationTicks": 96,
            "midi": 88,
            "name": "E6",
            "ticks": 12960,
            "time": 11.571423750000001,
            "velocity": 0.23622047244094488
          },
          {
            "duration": 0.08571424999999877,
            "durationTicks": 96,
            "midi": 74,
            "name": "D5",
            "ticks": 13056,
            "time": 11.657138000000002,
            "velocity": 0.23622047244094488
          },
          {
            "duration": 0.08571425000000055,
            "durationTicks": 96,
            "midi": 89,
            "name": "F6",
            "ticks": 13152,
            "time": 11.74285225,
            "velocity": 0.23622047244094488
          },
          {
            "duration": 0.08571425000000055,
            "durationTicks": 96,
            "midi": 39,
            "name": "D#2",
            "ticks": 13248,
            "time": 11.8285665,
            "velocity": 0.23622047244094488
          },
          {
            "duration": 0.08571425000000055,
            "durationTicks": 96,
            "midi": 81,
            "name": "A5",
            "ticks": 13248,
            "time": 11.8285665,
            "velocity": 0.23622047244094488
          },
          {
            "duration": 0.08571425000000055,
            "durationTicks": 96,
            "midi": 77,
            "name": "F5",
            "ticks": 13248,
            "time": 11.8285665,
            "velocity": 0.23622047244094488
          },
          {
            "duration": 0.08571424999999877,
            "durationTicks": 96,
            "midi": 93,
            "name": "A6",
            "ticks": 13344,
            "time": 11.914280750000001,
            "velocity": 0.23622047244094488
          },
          {
            "duration": 0.08571425000000055,
            "durationTicks": 96,
            "midi": 44,
            "name": "G#2",
            "ticks": 13440,
            "time": 11.999995,
            "velocity": 0.23622047244094488
          },
          {
            "duration": 0.08571425000000055,
            "durationTicks": 96,
            "midi": 91,
            "name": "G6",
            "ticks": 13440,
            "time": 11.999995,
            "velocity": 0.23622047244094488
          },
          {
            "duration": 0.08571425000000055,
            "durationTicks": 96,
            "midi": 89,
            "name": "F6",
            "ticks": 13536,
            "time": 12.08570925,
            "velocity": 0.23622047244094488
          },
          {
            "duration": 0.08571424999999877,
            "durationTicks": 96,
            "midi": 88,
            "name": "E6",
            "ticks": 13632,
            "time": 12.171423500000001,
            "velocity": 0.23622047244094488
          },
          {
            "duration": 0.08571424999999877,
            "durationTicks": 96,
            "midi": 77,
            "name": "F5",
            "ticks": 13632,
            "time": 12.171423500000001,
            "velocity": 0.23622047244094488
          },
          {
            "duration": 0.08571424999999877,
            "durationTicks": 96,
            "midi": 41,
            "name": "F2",
            "ticks": 13632,
            "time": 12.171423500000001,
            "velocity": 0.23622047244094488
          },
          {
            "duration": 0.08571424999999877,
            "durationTicks": 96,
            "midi": 81,
            "name": "A5",
            "ticks": 13632,
            "time": 12.171423500000001,
            "velocity": 0.23622047244094488
          },
          {
            "duration": 0.08571425000000055,
            "durationTicks": 96,
            "midi": 86,
            "name": "D6",
            "ticks": 13728,
            "time": 12.25713775,
            "velocity": 0.23622047244094488
          },
          {
            "duration": 0.08571425000000055,
            "durationTicks": 96,
            "midi": 39,
            "name": "D#2",
            "ticks": 13824,
            "time": 12.342852,
            "velocity": 0.23622047244094488
          },
          {
            "duration": 0.08571425000000055,
            "durationTicks": 96,
            "midi": 74,
            "name": "D5",
            "ticks": 13824,
            "time": 12.342852,
            "velocity": 0.23622047244094488
          },
          {
            "duration": 0.08571425000000055,
            "durationTicks": 96,
            "midi": 86,
            "name": "D6",
            "ticks": 13920,
            "time": 12.428566250000001,
            "velocity": 0.23622047244094488
          },
          {
            "duration": 0.08571424999999877,
            "durationTicks": 96,
            "midi": 77,
            "name": "F5",
            "ticks": 14016,
            "time": 12.514280500000002,
            "velocity": 0.23622047244094488
          },
          {
            "duration": 0.08571424999999877,
            "durationTicks": 96,
            "midi": 93,
            "name": "A6",
            "ticks": 14016,
            "time": 12.514280500000002,
            "velocity": 0.23622047244094488
          },
          {
            "duration": 0.08571424999999877,
            "durationTicks": 96,
            "midi": 41,
            "name": "F2",
            "ticks": 14016,
            "time": 12.514280500000002,
            "velocity": 0.23622047244094488
          },
          {
            "duration": 0.08571424999999877,
            "durationTicks": 96,
            "midi": 81,
            "name": "A5",
            "ticks": 14016,
            "time": 12.514280500000002,
            "velocity": 0.23622047244094488
          },
          {
            "duration": 0.08571425000000055,
            "durationTicks": 96,
            "midi": 44,
            "name": "G#2",
            "ticks": 14208,
            "time": 12.685709000000001,
            "velocity": 0.23622047244094488
          },
          {
            "duration": 0.08571425000000055,
            "durationTicks": 96,
            "midi": 91,
            "name": "G6",
            "ticks": 14208,
            "time": 12.685709000000001,
            "velocity": 0.23622047244094488
          },
          {
            "duration": 0.08571424999999877,
            "durationTicks": 96,
            "midi": 93,
            "name": "A6",
            "ticks": 14304,
            "time": 12.771423250000002,
            "velocity": 0.23622047244094488
          },
          {
            "duration": 0.08571425000000055,
            "durationTicks": 96,
            "midi": 81,
            "name": "A5",
            "ticks": 14400,
            "time": 12.8571375,
            "velocity": 0.23622047244094488
          },
          {
            "duration": 0.08571425000000055,
            "durationTicks": 96,
            "midi": 39,
            "name": "D#2",
            "ticks": 14400,
            "time": 12.8571375,
            "velocity": 0.23622047244094488
          },
          {
            "duration": 0.08571425000000055,
            "durationTicks": 96,
            "midi": 77,
            "name": "F5",
            "ticks": 14400,
            "time": 12.8571375,
            "velocity": 0.23622047244094488
          },
          {
            "duration": 0.08571425000000055,
            "durationTicks": 96,
            "midi": 88,
            "name": "E6",
            "ticks": 14496,
            "time": 12.94285175,
            "velocity": 0.23622047244094488
          },
          {
            "duration": 0.08571424999999877,
            "durationTicks": 96,
            "midi": 74,
            "name": "D5",
            "ticks": 14592,
            "time": 13.028566000000001,
            "velocity": 0.23622047244094488
          },
          {
            "duration": 0.08571425000000055,
            "durationTicks": 96,
            "midi": 89,
            "name": "F6",
            "ticks": 14688,
            "time": 13.11428025,
            "velocity": 0.23622047244094488
          },
          {
            "duration": 0.08571425000000055,
            "durationTicks": 96,
            "midi": 81,
            "name": "A5",
            "ticks": 14784,
            "time": 13.1999945,
            "velocity": 0.23622047244094488
          },
          {
            "duration": 0.08571425000000055,
            "durationTicks": 96,
            "midi": 39,
            "name": "D#2",
            "ticks": 14784,
            "time": 13.1999945,
            "velocity": 0.23622047244094488
          },
          {
            "duration": 0.08571425000000055,
            "durationTicks": 96,
            "midi": 77,
            "name": "F5",
            "ticks": 14784,
            "time": 13.1999945,
            "velocity": 0.23622047244094488
          },
          {
            "duration": 0.08571424999999877,
            "durationTicks": 96,
            "midi": 93,
            "name": "A6",
            "ticks": 14880,
            "time": 13.285708750000001,
            "velocity": 0.23622047244094488
          },
          {
            "duration": 0.08571425000000055,
            "durationTicks": 96,
            "midi": 84,
            "name": "C6",
            "ticks": 14976,
            "time": 13.371423,
            "velocity": 0.23622047244094488
          },
          {
            "duration": 0.08571425000000055,
            "durationTicks": 96,
            "midi": 44,
            "name": "G#2",
            "ticks": 14976,
            "time": 13.371423,
            "velocity": 0.23622047244094488
          },
          {
            "duration": 0.08571425000000055,
            "durationTicks": 96,
            "midi": 77,
            "name": "F5",
            "ticks": 15168,
            "time": 13.542851500000001,
            "velocity": 0.23622047244094488
          },
          {
            "duration": 0.08571425000000055,
            "durationTicks": 96,
            "midi": 41,
            "name": "F2",
            "ticks": 15168,
            "time": 13.542851500000001,
            "velocity": 0.23622047244094488
          },
          {
            "duration": 0.08571425000000055,
            "durationTicks": 96,
            "midi": 81,
            "name": "A5",
            "ticks": 15168,
            "time": 13.542851500000001,
            "velocity": 0.23622047244094488
          },
          {
            "duration": 0.08571425000000055,
            "durationTicks": 96,
            "midi": 85,
            "name": "C#6",
            "ticks": 15168,
            "time": 13.542851500000001,
            "velocity": 0.23622047244094488
          },
          {
            "duration": 0.08571425000000055,
            "durationTicks": 96,
            "midi": 39,
            "name": "D#2",
            "ticks": 15360,
            "time": 13.71428,
            "velocity": 0.23622047244094488
          },
          {
            "duration": 0.08571425000000055,
            "durationTicks": 96,
            "midi": 86,
            "name": "D6",
            "ticks": 15360,
            "time": 13.71428,
            "velocity": 0.23622047244094488
          },
          {
            "duration": 0.08571425000000055,
            "durationTicks": 96,
            "midi": 74,
            "name": "D5",
            "ticks": 15360,
            "time": 13.71428,
            "velocity": 0.23622047244094488
          },
          {
            "duration": 0.08571424999999877,
            "durationTicks": 96,
            "midi": 41,
            "name": "F2",
            "ticks": 15552,
            "time": 13.885708500000002,
            "velocity": 0.23622047244094488
          },
          {
            "duration": 0.08571424999999877,
            "durationTicks": 96,
            "midi": 77,
            "name": "F5",
            "ticks": 15552,
            "time": 13.885708500000002,
            "velocity": 0.23622047244094488
          },
          {
            "duration": 0.08571424999999877,
            "durationTicks": 96,
            "midi": 93,
            "name": "A6",
            "ticks": 15552,
            "time": 13.885708500000002,
            "velocity": 0.23622047244094488
          },
          {
            "duration": 0.08571424999999877,
            "durationTicks": 96,
            "midi": 81,
            "name": "A5",
            "ticks": 15552,
            "time": 13.885708500000002,
            "velocity": 0.23622047244094488
          },
          {
            "duration": 0.08571425000000055,
            "durationTicks": 96,
            "midi": 44,
            "name": "G#2",
            "ticks": 15744,
            "time": 14.057137,
            "velocity": 0.23622047244094488
          },
          {
            "duration": 0.08571425000000055,
            "durationTicks": 96,
            "midi": 91,
            "name": "G6",
            "ticks": 15744,
            "time": 14.057137,
            "velocity": 0.23622047244094488
          },
          {
            "duration": 0.08571424999999877,
            "durationTicks": 96,
            "midi": 93,
            "name": "A6",
            "ticks": 15840,
            "time": 14.142851250000001,
            "velocity": 0.23622047244094488
          },
          {
            "duration": 0.08571425000000055,
            "durationTicks": 96,
            "midi": 39,
            "name": "D#2",
            "ticks": 15936,
            "time": 14.2285655,
            "velocity": 0.23622047244094488
          },
          {
            "duration": 0.08571425000000055,
            "durationTicks": 96,
            "midi": 81,
            "name": "A5",
            "ticks": 15936,
            "time": 14.2285655,
            "velocity": 0.23622047244094488
          },
          {
            "duration": 0.08571425000000055,
            "durationTicks": 96,
            "midi": 77,
            "name": "F5",
            "ticks": 15936,
            "time": 14.2285655,
            "velocity": 0.23622047244094488
          },
          {
            "duration": 0.08571425000000055,
            "durationTicks": 96,
            "midi": 88,
            "name": "E6",
            "ticks": 16032,
            "time": 14.31427975,
            "velocity": 0.23622047244094488
          },
          {
            "duration": 0.08571425000000055,
            "durationTicks": 96,
            "midi": 74,
            "name": "D5",
            "ticks": 16128,
            "time": 14.399994000000001,
            "velocity": 0.23622047244094488
          },
          {
            "duration": 0.08571424999999877,
            "durationTicks": 96,
            "midi": 89,
            "name": "F6",
            "ticks": 16224,
            "time": 14.485708250000002,
            "velocity": 0.23622047244094488
          },
          {
            "duration": 0.08571425000000055,
            "durationTicks": 96,
            "midi": 39,
            "name": "D#2",
            "ticks": 16320,
            "time": 14.5714225,
            "velocity": 0.23622047244094488
          },
          {
            "duration": 0.08571425000000055,
            "durationTicks": 96,
            "midi": 77,
            "name": "F5",
            "ticks": 16320,
            "time": 14.5714225,
            "velocity": 0.23622047244094488
          },
          {
            "duration": 0.08571425000000055,
            "durationTicks": 96,
            "midi": 81,
            "name": "A5",
            "ticks": 16320,
            "time": 14.5714225,
            "velocity": 0.23622047244094488
          },
          {
            "duration": 0.08571425000000055,
            "durationTicks": 96,
            "midi": 93,
            "name": "A6",
            "ticks": 16416,
            "time": 14.657136750000001,
            "velocity": 0.23622047244094488
          },
          {
            "duration": 0.08571424999999877,
            "durationTicks": 96,
            "midi": 91,
            "name": "G6",
            "ticks": 16512,
            "time": 14.742851000000002,
            "velocity": 0.23622047244094488
          },
          {
            "duration": 0.08571424999999877,
            "durationTicks": 96,
            "midi": 44,
            "name": "G#2",
            "ticks": 16512,
            "time": 14.742851000000002,
            "velocity": 0.23622047244094488
          },
          {
            "duration": 0.08571425000000055,
            "durationTicks": 96,
            "midi": 89,
            "name": "F6",
            "ticks": 16608,
            "time": 14.82856525,
            "velocity": 0.23622047244094488
          },
          {
            "duration": 0.08571425000000055,
            "durationTicks": 96,
            "midi": 41,
            "name": "F2",
            "ticks": 16704,
            "time": 14.914279500000001,
            "velocity": 0.23622047244094488
          },
          {
            "duration": 0.08571425000000055,
            "durationTicks": 96,
            "midi": 88,
            "name": "E6",
            "ticks": 16704,
            "time": 14.914279500000001,
            "velocity": 0.23622047244094488
          },
          {
            "duration": 0.08571425000000055,
            "durationTicks": 96,
            "midi": 77,
            "name": "F5",
            "ticks": 16704,
            "time": 14.914279500000001,
            "velocity": 0.23622047244094488
          },
          {
            "duration": 0.08571425000000055,
            "durationTicks": 96,
            "midi": 81,
            "name": "A5",
            "ticks": 16704,
            "time": 14.914279500000001,
            "velocity": 0.23622047244094488
          },
          {
            "duration": 0.08571424999999877,
            "durationTicks": 96,
            "midi": 86,
            "name": "D6",
            "ticks": 16800,
            "time": 14.999993750000002,
            "velocity": 0.23622047244094488
          },
          {
            "duration": 0.08571425000000055,
            "durationTicks": 96,
            "midi": 39,
            "name": "D#2",
            "ticks": 16896,
            "time": 15.085708,
            "velocity": 0.23622047244094488
          },
          {
            "duration": 0.08571425000000055,
            "durationTicks": 96,
            "midi": 74,
            "name": "D5",
            "ticks": 16896,
            "time": 15.085708,
            "velocity": 0.23622047244094488
          },
          {
            "duration": 0.08571425000000055,
            "durationTicks": 96,
            "midi": 86,
            "name": "D6",
            "ticks": 16992,
            "time": 15.17142225,
            "velocity": 0.23622047244094488
          },
          {
            "duration": 0.08571424999999877,
            "durationTicks": 96,
            "midi": 41,
            "name": "F2",
            "ticks": 17088,
            "time": 15.257136500000001,
            "velocity": 0.23622047244094488
          },
          {
            "duration": 0.08571424999999877,
            "durationTicks": 96,
            "midi": 81,
            "name": "A5",
            "ticks": 17088,
            "time": 15.257136500000001,
            "velocity": 0.23622047244094488
          },
          {
            "duration": 0.08571424999999877,
            "durationTicks": 96,
            "midi": 93,
            "name": "A6",
            "ticks": 17088,
            "time": 15.257136500000001,
            "velocity": 0.23622047244094488
          },
          {
            "duration": 0.08571424999999877,
            "durationTicks": 96,
            "midi": 77,
            "name": "F5",
            "ticks": 17088,
            "time": 15.257136500000001,
            "velocity": 0.23622047244094488
          },
          {
            "duration": 0.08571425000000055,
            "durationTicks": 96,
            "midi": 44,
            "name": "G#2",
            "ticks": 17280,
            "time": 15.428565,
            "velocity": 0.23622047244094488
          },
          {
            "duration": 0.08571425000000055,
            "durationTicks": 96,
            "midi": 91,
            "name": "G6",
            "ticks": 17280,
            "time": 15.428565,
            "velocity": 0.23622047244094488
          },
          {
            "duration": 0.08571425000000055,
            "durationTicks": 96,
            "midi": 93,
            "name": "A6",
            "ticks": 17376,
            "time": 15.514279250000001,
            "velocity": 0.23622047244094488
          },
          {
            "duration": 0.08571424999999877,
            "durationTicks": 96,
            "midi": 39,
            "name": "D#2",
            "ticks": 17472,
            "time": 15.599993500000002,
            "velocity": 0.23622047244094488
          },
          {
            "duration": 0.08571424999999877,
            "durationTicks": 96,
            "midi": 77,
            "name": "F5",
            "ticks": 17472,
            "time": 15.599993500000002,
            "velocity": 0.23622047244094488
          },
          {
            "duration": 0.08571424999999877,
            "durationTicks": 96,
            "midi": 81,
            "name": "A5",
            "ticks": 17472,
            "time": 15.599993500000002,
            "velocity": 0.23622047244094488
          },
          {
            "duration": 0.08571425000000055,
            "durationTicks": 96,
            "midi": 88,
            "name": "E6",
            "ticks": 17568,
            "time": 15.68570775,
            "velocity": 0.23622047244094488
          },
          {
            "duration": 0.08571425000000055,
            "durationTicks": 96,
            "midi": 44,
            "name": "G#2",
            "ticks": 17664,
            "time": 15.771422000000001,
            "velocity": 0.23622047244094488
          },
          {
            "duration": 0.08571425000000055,
            "durationTicks": 96,
            "midi": 74,
            "name": "D5",
            "ticks": 17664,
            "time": 15.771422000000001,
            "velocity": 0.23622047244094488
          },
          {
            "duration": 0.08571424999999877,
            "durationTicks": 96,
            "midi": 89,
            "name": "F6",
            "ticks": 17760,
            "time": 15.857136250000002,
            "velocity": 0.23622047244094488
          },
          {
            "duration": 0.08571425000000055,
            "durationTicks": 96,
            "midi": 39,
            "name": "D#2",
            "ticks": 17856,
            "time": 15.9428505,
            "velocity": 0.23622047244094488
          },
          {
            "duration": 0.08571425000000055,
            "durationTicks": 96,
            "midi": 81,
            "name": "A5",
            "ticks": 17856,
            "time": 15.9428505,
            "velocity": 0.23622047244094488
          },
          {
            "duration": 0.08571425000000055,
            "durationTicks": 96,
            "midi": 77,
            "name": "F5",
            "ticks": 17856,
            "time": 15.9428505,
            "velocity": 0.23622047244094488
          },
          {
            "duration": 0.08571424999999877,
            "durationTicks": 96,
            "midi": 93,
            "name": "A6",
            "ticks": 17952,
            "time": 16.02856475,
            "velocity": 0.23622047244094488
          },
          {
            "duration": 0.08571425000000232,
            "durationTicks": 96,
            "midi": 84,
            "name": "C6",
            "ticks": 18048,
            "time": 16.114279,
            "velocity": 0.23622047244094488
          },
          {
            "duration": 0.08571425000000232,
            "durationTicks": 96,
            "midi": 44,
            "name": "G#2",
            "ticks": 18048,
            "time": 16.114279,
            "velocity": 0.23622047244094488
          },
          {
            "duration": 0.08571424999999877,
            "durationTicks": 96,
            "midi": 41,
            "name": "F2",
            "ticks": 18240,
            "time": 16.2857075,
            "velocity": 0.23622047244094488
          },
          {
            "duration": 0.08571424999999877,
            "durationTicks": 96,
            "midi": 85,
            "name": "C#6",
            "ticks": 18240,
            "time": 16.2857075,
            "velocity": 0.23622047244094488
          },
          {
            "duration": 0.08571424999999877,
            "durationTicks": 96,
            "midi": 81,
            "name": "A5",
            "ticks": 18240,
            "time": 16.2857075,
            "velocity": 0.23622047244094488
          },
          {
            "duration": 0.08571424999999877,
            "durationTicks": 96,
            "midi": 77,
            "name": "F5",
            "ticks": 18240,
            "time": 16.2857075,
            "velocity": 0.23622047244094488
          },
          {
            "duration": 0.08571424999999877,
            "durationTicks": 96,
            "midi": 57,
            "name": "A3",
            "ticks": 18432,
            "time": 16.457136000000002,
            "velocity": 0.23622047244094488
          },
          {
            "duration": 0.08571424999999877,
            "durationTicks": 96,
            "midi": 74,
            "name": "D5",
            "ticks": 18432,
            "time": 16.457136000000002,
            "velocity": 0.23622047244094488
          },
          {
            "duration": 0.08571424999999877,
            "durationTicks": 96,
            "midi": 39,
            "name": "D#2",
            "ticks": 18432,
            "time": 16.457136000000002,
            "velocity": 0.23622047244094488
          },
          {
            "duration": 0.08571424999999877,
            "durationTicks": 96,
            "midi": 86,
            "name": "D6",
            "ticks": 18432,
            "time": 16.457136000000002,
            "velocity": 0.23622047244094488
          },
          {
            "duration": 0.08571425000000232,
            "durationTicks": 96,
            "midi": 93,
            "name": "A6",
            "ticks": 18624,
            "time": 16.6285645,
            "velocity": 0.23622047244094488
          },
          {
            "duration": 0.08571425000000232,
            "durationTicks": 96,
            "midi": 41,
            "name": "F2",
            "ticks": 18624,
            "time": 16.6285645,
            "velocity": 0.23622047244094488
          },
          {
            "duration": 0.08571425000000232,
            "durationTicks": 96,
            "midi": 81,
            "name": "A5",
            "ticks": 18624,
            "time": 16.6285645,
            "velocity": 0.23622047244094488
          },
          {
            "duration": 0.08571425000000232,
            "durationTicks": 96,
            "midi": 77,
            "name": "F5",
            "ticks": 18624,
            "time": 16.6285645,
            "velocity": 0.23622047244094488
          },
          {
            "duration": 0.08571424999999877,
            "durationTicks": 96,
            "midi": 44,
            "name": "G#2",
            "ticks": 18816,
            "time": 16.799993,
            "velocity": 0.23622047244094488
          },
          {
            "duration": 0.08571424999999877,
            "durationTicks": 96,
            "midi": 91,
            "name": "G6",
            "ticks": 18816,
            "time": 16.799993,
            "velocity": 0.23622047244094488
          },
          {
            "duration": 0.08571425000000232,
            "durationTicks": 96,
            "midi": 93,
            "name": "A6",
            "ticks": 18912,
            "time": 16.88570725,
            "velocity": 0.23622047244094488
          },
          {
            "duration": 0.08571424999999877,
            "durationTicks": 96,
            "midi": 77,
            "name": "F5",
            "ticks": 19008,
            "time": 16.9714215,
            "velocity": 0.23622047244094488
          },
          {
            "duration": 0.08571424999999877,
            "durationTicks": 96,
            "midi": 39,
            "name": "D#2",
            "ticks": 19008,
            "time": 16.9714215,
            "velocity": 0.23622047244094488
          },
          {
            "duration": 0.08571424999999877,
            "durationTicks": 96,
            "midi": 81,
            "name": "A5",
            "ticks": 19008,
            "time": 16.9714215,
            "velocity": 0.23622047244094488
          },
          {
            "duration": 0.08571425000000232,
            "durationTicks": 96,
            "midi": 88,
            "name": "E6",
            "ticks": 19104,
            "time": 17.05713575,
            "velocity": 0.23622047244094488
          },
          {
            "duration": 0.08571424999999877,
            "durationTicks": 96,
            "midi": 74,
            "name": "D5",
            "ticks": 19200,
            "time": 17.142850000000003,
            "velocity": 0.23622047244094488
          },
          {
            "duration": 0.08571424999999877,
            "durationTicks": 96,
            "midi": 89,
            "name": "F6",
            "ticks": 19296,
            "time": 17.22856425,
            "velocity": 0.23622047244094488
          },
          {
            "duration": 0.08571425000000232,
            "durationTicks": 96,
            "midi": 77,
            "name": "F5",
            "ticks": 19392,
            "time": 17.3142785,
            "velocity": 0.23622047244094488
          },
          {
            "duration": 0.08571425000000232,
            "durationTicks": 96,
            "midi": 39,
            "name": "D#2",
            "ticks": 19392,
            "time": 17.3142785,
            "velocity": 0.23622047244094488
          },
          {
            "duration": 0.08571425000000232,
            "durationTicks": 96,
            "midi": 81,
            "name": "A5",
            "ticks": 19392,
            "time": 17.3142785,
            "velocity": 0.23622047244094488
          },
          {
            "duration": 0.08571424999999877,
            "durationTicks": 96,
            "midi": 93,
            "name": "A6",
            "ticks": 19488,
            "time": 17.399992750000003,
            "velocity": 0.23622047244094488
          },
          {
            "duration": 0.08571424999999877,
            "durationTicks": 96,
            "midi": 44,
            "name": "G#2",
            "ticks": 19584,
            "time": 17.485707,
            "velocity": 0.23622047244094488
          },
          {
            "duration": 0.08571424999999877,
            "durationTicks": 96,
            "midi": 91,
            "name": "G6",
            "ticks": 19584,
            "time": 17.485707,
            "velocity": 0.23622047244094488
          },
          {
            "duration": 0.08571425000000232,
            "durationTicks": 96,
            "midi": 89,
            "name": "F6",
            "ticks": 19680,
            "time": 17.57142125,
            "velocity": 0.23622047244094488
          },
          {
            "duration": 0.08571424999999877,
            "durationTicks": 96,
            "midi": 41,
            "name": "F2",
            "ticks": 19776,
            "time": 17.657135500000003,
            "velocity": 0.23622047244094488
          },
          {
            "duration": 0.08571424999999877,
            "durationTicks": 96,
            "midi": 77,
            "name": "F5",
            "ticks": 19776,
            "time": 17.657135500000003,
            "velocity": 0.23622047244094488
          },
          {
            "duration": 0.08571424999999877,
            "durationTicks": 96,
            "midi": 88,
            "name": "E6",
            "ticks": 19776,
            "time": 17.657135500000003,
            "velocity": 0.23622047244094488
          },
          {
            "duration": 0.08571424999999877,
            "durationTicks": 96,
            "midi": 81,
            "name": "A5",
            "ticks": 19776,
            "time": 17.657135500000003,
            "velocity": 0.23622047244094488
          },
          {
            "duration": 0.08571424999999877,
            "durationTicks": 96,
            "midi": 86,
            "name": "D6",
            "ticks": 19872,
            "time": 17.74284975,
            "velocity": 0.23622047244094488
          },
          {
            "duration": 0.08571425000000232,
            "durationTicks": 96,
            "midi": 74,
            "name": "D5",
            "ticks": 19968,
            "time": 17.828564,
            "velocity": 0.23622047244094488
          },
          {
            "duration": 0.08571425000000232,
            "durationTicks": 96,
            "midi": 39,
            "name": "D#2",
            "ticks": 19968,
            "time": 17.828564,
            "velocity": 0.23622047244094488
          },
          {
            "duration": 0.08571424999999877,
            "durationTicks": 96,
            "midi": 86,
            "name": "D6",
            "ticks": 20064,
            "time": 17.914278250000002,
            "velocity": 0.23622047244094488
          },
          {
            "duration": 0.08571424999999877,
            "durationTicks": 96,
            "midi": 81,
            "name": "A5",
            "ticks": 20160,
            "time": 17.9999925,
            "velocity": 0.23622047244094488
          },
          {
            "duration": 0.08571424999999877,
            "durationTicks": 96,
            "midi": 93,
            "name": "A6",
            "ticks": 20160,
            "time": 17.9999925,
            "velocity": 0.23622047244094488
          },
          {
            "duration": 0.08571424999999877,
            "durationTicks": 96,
            "midi": 41,
            "name": "F2",
            "ticks": 20160,
            "time": 17.9999925,
            "velocity": 0.23622047244094488
          },
          {
            "duration": 0.08571424999999877,
            "durationTicks": 96,
            "midi": 77,
            "name": "F5",
            "ticks": 20160,
            "time": 17.9999925,
            "velocity": 0.23622047244094488
          },
          {
            "duration": 0.08571424999999877,
            "durationTicks": 96,
            "midi": 91,
            "name": "G6",
            "ticks": 20352,
            "time": 18.171421000000002,
            "velocity": 0.23622047244094488
          },
          {
            "duration": 0.08571424999999877,
            "durationTicks": 96,
            "midi": 44,
            "name": "G#2",
            "ticks": 20352,
            "time": 18.171421000000002,
            "velocity": 0.23622047244094488
          },
          {
            "duration": 0.08571424999999877,
            "durationTicks": 96,
            "midi": 93,
            "name": "A6",
            "ticks": 20448,
            "time": 18.25713525,
            "velocity": 0.23622047244094488
          },
          {
            "duration": 0.08571425000000232,
            "durationTicks": 96,
            "midi": 77,
            "name": "F5",
            "ticks": 20544,
            "time": 18.3428495,
            "velocity": 0.23622047244094488
          },
          {
            "duration": 0.08571425000000232,
            "durationTicks": 96,
            "midi": 39,
            "name": "D#2",
            "ticks": 20544,
            "time": 18.3428495,
            "velocity": 0.23622047244094488
          },
          {
            "duration": 0.08571425000000232,
            "durationTicks": 96,
            "midi": 81,
            "name": "A5",
            "ticks": 20544,
            "time": 18.3428495,
            "velocity": 0.23622047244094488
          },
          {
            "duration": 0.08571424999999877,
            "durationTicks": 96,
            "midi": 88,
            "name": "E6",
            "ticks": 20640,
            "time": 18.428563750000002,
            "velocity": 0.23622047244094488
          },
          {
            "duration": 0.08571424999999877,
            "durationTicks": 96,
            "midi": 74,
            "name": "D5",
            "ticks": 20736,
            "time": 18.514278,
            "velocity": 0.23622047244094488
          },
          {
            "duration": 0.08571425000000232,
            "durationTicks": 96,
            "midi": 89,
            "name": "F6",
            "ticks": 20832,
            "time": 18.59999225,
            "velocity": 0.23622047244094488
          },
          {
            "duration": 0.08571424999999877,
            "durationTicks": 96,
            "midi": 77,
            "name": "F5",
            "ticks": 20928,
            "time": 18.685706500000002,
            "velocity": 0.23622047244094488
          },
          {
            "duration": 0.08571424999999877,
            "durationTicks": 96,
            "midi": 39,
            "name": "D#2",
            "ticks": 20928,
            "time": 18.685706500000002,
            "velocity": 0.23622047244094488
          },
          {
            "duration": 0.08571424999999877,
            "durationTicks": 96,
            "midi": 81,
            "name": "A5",
            "ticks": 20928,
            "time": 18.685706500000002,
            "velocity": 0.23622047244094488
          },
          {
            "duration": 0.08571424999999877,
            "durationTicks": 96,
            "midi": 93,
            "name": "A6",
            "ticks": 21024,
            "time": 18.77142075,
            "velocity": 0.23622047244094488
          },
          {
            "duration": 0.08571425000000232,
            "durationTicks": 96,
            "midi": 44,
            "name": "G#2",
            "ticks": 21120,
            "time": 18.857135,
            "velocity": 0.23622047244094488
          },
          {
            "duration": 0.08571425000000232,
            "durationTicks": 96,
            "midi": 84,
            "name": "C6",
            "ticks": 21120,
            "time": 18.857135,
            "velocity": 0.23622047244094488
          },
          {
            "duration": 0.08571425000000232,
            "durationTicks": 96,
            "midi": 81,
            "name": "A5",
            "ticks": 21312,
            "time": 19.0285635,
            "velocity": 0.23622047244094488
          },
          {
            "duration": 0.08571425000000232,
            "durationTicks": 96,
            "midi": 77,
            "name": "F5",
            "ticks": 21312,
            "time": 19.0285635,
            "velocity": 0.23622047244094488
          },
          {
            "duration": 0.08571425000000232,
            "durationTicks": 96,
            "midi": 85,
            "name": "C#6",
            "ticks": 21312,
            "time": 19.0285635,
            "velocity": 0.23622047244094488
          },
          {
            "duration": 0.08571425000000232,
            "durationTicks": 96,
            "midi": 41,
            "name": "F2",
            "ticks": 21312,
            "time": 19.0285635,
            "velocity": 0.23622047244094488
          },
          {
            "duration": 0.08571424999999877,
            "durationTicks": 96,
            "midi": 57,
            "name": "A3",
            "ticks": 21504,
            "time": 19.199992,
            "velocity": 0.23622047244094488
          },
          {
            "duration": 0.08571424999999877,
            "durationTicks": 96,
            "midi": 74,
            "name": "D5",
            "ticks": 21504,
            "time": 19.199992,
            "velocity": 0.23622047244094488
          },
          {
            "duration": 0.08571424999999877,
            "durationTicks": 96,
            "midi": 86,
            "name": "D6",
            "ticks": 21504,
            "time": 19.199992,
            "velocity": 0.23622047244094488
          },
          {
            "duration": 0.08571424999999877,
            "durationTicks": 96,
            "midi": 39,
            "name": "D#2",
            "ticks": 21504,
            "time": 19.199992,
            "velocity": 0.23622047244094488
          },
          {
            "duration": 0.08571424999999877,
            "durationTicks": 96,
            "midi": 77,
            "name": "F5",
            "ticks": 21696,
            "time": 19.371420500000003,
            "velocity": 0.23622047244094488
          },
          {
            "duration": 0.08571424999999877,
            "durationTicks": 96,
            "midi": 93,
            "name": "A6",
            "ticks": 21696,
            "time": 19.371420500000003,
            "velocity": 0.23622047244094488
          },
          {
            "duration": 0.08571424999999877,
            "durationTicks": 96,
            "midi": 81,
            "name": "A5",
            "ticks": 21696,
            "time": 19.371420500000003,
            "velocity": 0.23622047244094488
          },
          {
            "duration": 0.08571424999999877,
            "durationTicks": 96,
            "midi": 41,
            "name": "F2",
            "ticks": 21696,
            "time": 19.371420500000003,
            "velocity": 0.23622047244094488
          },
          {
            "duration": 0.08571425000000232,
            "durationTicks": 96,
            "midi": 44,
            "name": "G#2",
            "ticks": 21888,
            "time": 19.542849,
            "velocity": 0.23622047244094488
          },
          {
            "duration": 0.08571425000000232,
            "durationTicks": 96,
            "midi": 91,
            "name": "G6",
            "ticks": 21888,
            "time": 19.542849,
            "velocity": 0.23622047244094488
          },
          {
            "duration": 0.08571424999999877,
            "durationTicks": 96,
            "midi": 93,
            "name": "A6",
            "ticks": 21984,
            "time": 19.628563250000003,
            "velocity": 0.23622047244094488
          },
          {
            "duration": 0.08571424999999877,
            "durationTicks": 96,
            "midi": 81,
            "name": "A5",
            "ticks": 22080,
            "time": 19.7142775,
            "velocity": 0.23622047244094488
          },
          {
            "duration": 0.08571424999999877,
            "durationTicks": 96,
            "midi": 39,
            "name": "D#2",
            "ticks": 22080,
            "time": 19.7142775,
            "velocity": 0.23622047244094488
          },
          {
            "duration": 0.08571424999999877,
            "durationTicks": 96,
            "midi": 77,
            "name": "F5",
            "ticks": 22080,
            "time": 19.7142775,
            "velocity": 0.23622047244094488
          },
          {
            "duration": 0.08571425000000232,
            "durationTicks": 96,
            "midi": 88,
            "name": "E6",
            "ticks": 22176,
            "time": 19.79999175,
            "velocity": 0.23622047244094488
          },
          {
            "duration": 0.08571424999999877,
            "durationTicks": 96,
            "midi": 74,
            "name": "D5",
            "ticks": 22272,
            "time": 19.885706000000003,
            "velocity": 0.23622047244094488
          },
          {
            "duration": 0.08571424999999877,
            "durationTicks": 96,
            "midi": 89,
            "name": "F6",
            "ticks": 22368,
            "time": 19.97142025,
            "velocity": 0.23622047244094488
          },
          {
            "duration": 0.08571425000000232,
            "durationTicks": 96,
            "midi": 77,
            "name": "F5",
            "ticks": 22464,
            "time": 20.0571345,
            "velocity": 0.23622047244094488
          },
          {
            "duration": 0.08571425000000232,
            "durationTicks": 96,
            "midi": 39,
            "name": "D#2",
            "ticks": 22464,
            "time": 20.0571345,
            "velocity": 0.23622047244094488
          },
          {
            "duration": 0.08571425000000232,
            "durationTicks": 96,
            "midi": 81,
            "name": "A5",
            "ticks": 22464,
            "time": 20.0571345,
            "velocity": 0.23622047244094488
          },
          {
            "duration": 0.08571424999999877,
            "durationTicks": 96,
            "midi": 93,
            "name": "A6",
            "ticks": 22560,
            "time": 20.142848750000002,
            "velocity": 0.23622047244094488
          },
          {
            "duration": 0.08571424999999877,
            "durationTicks": 96,
            "midi": 91,
            "name": "G6",
            "ticks": 22656,
            "time": 20.228563,
            "velocity": 0.23622047244094488
          },
          {
            "duration": 0.08571424999999877,
            "durationTicks": 96,
            "midi": 44,
            "name": "G#2",
            "ticks": 22656,
            "time": 20.228563,
            "velocity": 0.23622047244094488
          },
          {
            "duration": 0.08571425000000232,
            "durationTicks": 96,
            "midi": 89,
            "name": "F6",
            "ticks": 22752,
            "time": 20.31427725,
            "velocity": 0.23622047244094488
          },
          {
            "duration": 0.08571424999999877,
            "durationTicks": 96,
            "midi": 41,
            "name": "F2",
            "ticks": 22848,
            "time": 20.399991500000002,
            "velocity": 0.23622047244094488
          },
          {
            "duration": 0.08571424999999877,
            "durationTicks": 96,
            "midi": 88,
            "name": "E6",
            "ticks": 22848,
            "time": 20.399991500000002,
            "velocity": 0.23622047244094488
          },
          {
            "duration": 0.08571424999999877,
            "durationTicks": 96,
            "midi": 77,
            "name": "F5",
            "ticks": 22848,
            "time": 20.399991500000002,
            "velocity": 0.23622047244094488
          },
          {
            "duration": 0.08571424999999877,
            "durationTicks": 96,
            "midi": 81,
            "name": "A5",
            "ticks": 22848,
            "time": 20.399991500000002,
            "velocity": 0.23622047244094488
          },
          {
            "duration": 0.08571424999999877,
            "durationTicks": 96,
            "midi": 86,
            "name": "D6",
            "ticks": 22944,
            "time": 20.48570575,
            "velocity": 0.23622047244094488
          },
          {
            "duration": 0.08571425000000232,
            "durationTicks": 96,
            "midi": 39,
            "name": "D#2",
            "ticks": 23040,
            "time": 20.57142,
            "velocity": 0.23622047244094488
          },
          {
            "duration": 0.08571425000000232,
            "durationTicks": 96,
            "midi": 74,
            "name": "D5",
            "ticks": 23040,
            "time": 20.57142,
            "velocity": 0.23622047244094488
          },
          {
            "duration": 0.08571425000000232,
            "durationTicks": 96,
            "midi": 57,
            "name": "A3",
            "ticks": 23040,
            "time": 20.57142,
            "velocity": 0.23622047244094488
          },
          {
            "duration": 0.08571425000000232,
            "durationTicks": 96,
            "midi": 44,
            "name": "G#2",
            "ticks": 23040,
            "time": 20.57142,
            "velocity": 0.23622047244094488
          },
          {
            "duration": 0.08571424999999877,
            "durationTicks": 96,
            "midi": 86,
            "name": "D6",
            "ticks": 23136,
            "time": 20.657134250000002,
            "velocity": 0.23622047244094488
          },
          {
            "duration": 0.08571424999999877,
            "durationTicks": 96,
            "midi": 93,
            "name": "A6",
            "ticks": 23232,
            "time": 20.7428485,
            "velocity": 0.23622047244094488
          },
          {
            "duration": 0.08571424999999877,
            "durationTicks": 96,
            "midi": 41,
            "name": "F2",
            "ticks": 23232,
            "time": 20.7428485,
            "velocity": 0.23622047244094488
          },
          {
            "duration": 0.08571424999999877,
            "durationTicks": 96,
            "midi": 77,
            "name": "F5",
            "ticks": 23232,
            "time": 20.7428485,
            "velocity": 0.23622047244094488
          },
          {
            "duration": 0.08571424999999877,
            "durationTicks": 96,
            "midi": 81,
            "name": "A5",
            "ticks": 23232,
            "time": 20.7428485,
            "velocity": 0.23622047244094488
          },
          {
            "duration": 0.08571424999999877,
            "durationTicks": 96,
            "midi": 44,
            "name": "G#2",
            "ticks": 23424,
            "time": 20.914277000000002,
            "velocity": 0.23622047244094488
          },
          {
            "duration": 0.08571424999999877,
            "durationTicks": 96,
            "midi": 91,
            "name": "G6",
            "ticks": 23424,
            "time": 20.914277000000002,
            "velocity": 0.23622047244094488
          },
          {
            "duration": 0.08571425000000232,
            "durationTicks": 96,
            "midi": 93,
            "name": "A6",
            "ticks": 23520,
            "time": 20.99999125,
            "velocity": 0.23622047244094488
          },
          {
            "duration": 0.08571424999999877,
            "durationTicks": 96,
            "midi": 77,
            "name": "F5",
            "ticks": 23616,
            "time": 21.085705500000003,
            "velocity": 0.23622047244094488
          },
          {
            "duration": 0.08571424999999877,
            "durationTicks": 96,
            "midi": 39,
            "name": "D#2",
            "ticks": 23616,
            "time": 21.085705500000003,
            "velocity": 0.23622047244094488
          },
          {
            "duration": 0.08571424999999877,
            "durationTicks": 96,
            "midi": 81,
            "name": "A5",
            "ticks": 23616,
            "time": 21.085705500000003,
            "velocity": 0.23622047244094488
          },
          {
            "duration": 0.08571424999999877,
            "durationTicks": 96,
            "midi": 84,
            "name": "C6",
            "ticks": 23712,
            "time": 21.171419750000002,
            "velocity": 0.23622047244094488
          },
          {
            "duration": 0.08571425000000232,
            "durationTicks": 96,
            "midi": 57,
            "name": "A3",
            "ticks": 23808,
            "time": 21.257134,
            "velocity": 0.23622047244094488
          },
          {
            "duration": 0.08571425000000232,
            "durationTicks": 96,
            "midi": 74,
            "name": "D5",
            "ticks": 23808,
            "time": 21.257134,
            "velocity": 0.23622047244094488
          },
          {
            "duration": 0.08571425000000232,
            "durationTicks": 96,
            "midi": 44,
            "name": "G#2",
            "ticks": 23808,
            "time": 21.257134,
            "velocity": 0.23622047244094488
          },
          {
            "duration": 0.08571424999999877,
            "durationTicks": 96,
            "midi": 84,
            "name": "C6",
            "ticks": 23904,
            "time": 21.342848250000003,
            "velocity": 0.23622047244094488
          },
          {
            "duration": 0.08571424999999877,
            "durationTicks": 96,
            "midi": 93,
            "name": "A6",
            "ticks": 24000,
            "time": 21.4285625,
            "velocity": 0.23622047244094488
          },
          {
            "duration": 0.08571424999999877,
            "durationTicks": 96,
            "midi": 39,
            "name": "D#2",
            "ticks": 24000,
            "time": 21.4285625,
            "velocity": 0.23622047244094488
          },
          {
            "duration": 0.08571424999999877,
            "durationTicks": 96,
            "midi": 81,
            "name": "A5",
            "ticks": 24000,
            "time": 21.4285625,
            "velocity": 0.23622047244094488
          },
          {
            "duration": 0.08571424999999877,
            "durationTicks": 96,
            "midi": 77,
            "name": "F5",
            "ticks": 24000,
            "time": 21.4285625,
            "velocity": 0.23622047244094488
          },
          {
            "duration": 0.08571424999999877,
            "durationTicks": 96,
            "midi": 57,
            "name": "A3",
            "ticks": 24192,
            "time": 21.599991000000003,
            "velocity": 0.23622047244094488
          },
          {
            "duration": 0.08571424999999877,
            "durationTicks": 96,
            "midi": 89,
            "name": "F6",
            "ticks": 24192,
            "time": 21.599991000000003,
            "velocity": 0.23622047244094488
          },
          {
            "duration": 0.08571424999999877,
            "durationTicks": 96,
            "midi": 44,
            "name": "G#2",
            "ticks": 24192,
            "time": 21.599991000000003,
            "velocity": 0.23622047244094488
          },
          {
            "duration": 0.08571424999999877,
            "durationTicks": 96,
            "midi": 88,
            "name": "E6",
            "ticks": 24288,
            "time": 21.68570525,
            "velocity": 0.23622047244094488
          },
          {
            "duration": 0.08571425000000232,
            "durationTicks": 96,
            "midi": 41,
            "name": "F2",
            "ticks": 24384,
            "time": 21.7714195,
            "velocity": 0.23622047244094488
          },
          {
            "duration": 0.08571425000000232,
            "durationTicks": 96,
            "midi": 57,
            "name": "A3",
            "ticks": 24384,
            "time": 21.7714195,
            "velocity": 0.23622047244094488
          },
          {
            "duration": 0.08571425000000232,
            "durationTicks": 96,
            "midi": 79,
            "name": "G5",
            "ticks": 24384,
            "time": 21.7714195,
            "velocity": 0.23622047244094488
          },
          {
            "duration": 0.08571425000000232,
            "durationTicks": 96,
            "midi": 86,
            "name": "D6",
            "ticks": 24384,
            "time": 21.7714195,
            "velocity": 0.23622047244094488
          },
          {
            "duration": 0.08571425000000232,
            "durationTicks": 96,
            "midi": 76,
            "name": "E5",
            "ticks": 24384,
            "time": 21.7714195,
            "velocity": 0.23622047244094488
          },
          {
            "duration": 0.08571424999999877,
            "durationTicks": 96,
            "midi": 84,
            "name": "C6",
            "ticks": 24480,
            "time": 21.857133750000003,
            "velocity": 0.23622047244094488
          },
          {
            "duration": 0.08571424999999877,
            "durationTicks": 96,
            "midi": 70,
            "name": "A#4",
            "ticks": 24576,
            "time": 21.942848,
            "velocity": 0.23622047244094488
          },
          {
            "duration": 0.08571424999999877,
            "durationTicks": 96,
            "midi": 39,
            "name": "D#2",
            "ticks": 24576,
            "time": 21.942848,
            "velocity": 0.23622047244094488
          },
          {
            "duration": 0.08571424999999877,
            "durationTicks": 96,
            "midi": 81,
            "name": "A5",
            "ticks": 24576,
            "time": 21.942848,
            "velocity": 0.23622047244094488
          },
          {
            "duration": 0.08571424999999877,
            "durationTicks": 96,
            "midi": 57,
            "name": "A3",
            "ticks": 24576,
            "time": 21.942848,
            "velocity": 0.23622047244094488
          },
          {
            "duration": 0.08571424999999877,
            "durationTicks": 96,
            "midi": 74,
            "name": "D5",
            "ticks": 24768,
            "time": 22.114276500000003,
            "velocity": 0.23622047244094488
          },
          {
            "duration": 0.08571424999999877,
            "durationTicks": 96,
            "midi": 41,
            "name": "F2",
            "ticks": 24768,
            "time": 22.114276500000003,
            "velocity": 0.23622047244094488
          },
          {
            "duration": 0.08571424999999877,
            "durationTicks": 96,
            "midi": 89,
            "name": "F6",
            "ticks": 24768,
            "time": 22.114276500000003,
            "velocity": 0.23622047244094488
          },
          {
            "duration": 0.08571424999999877,
            "durationTicks": 96,
            "midi": 77,
            "name": "F5",
            "ticks": 24768,
            "time": 22.114276500000003,
            "velocity": 0.23622047244094488
          },
          {
            "duration": 0.08571425000000232,
            "durationTicks": 96,
            "midi": 44,
            "name": "G#2",
            "ticks": 24960,
            "time": 22.285705,
            "velocity": 0.23622047244094488
          },
          {
            "duration": 0.08571425000000232,
            "durationTicks": 96,
            "midi": 88,
            "name": "E6",
            "ticks": 24960,
            "time": 22.285705,
            "velocity": 0.23622047244094488
          },
          {
            "duration": 0.08571424999999877,
            "durationTicks": 96,
            "midi": 89,
            "name": "F6",
            "ticks": 25056,
            "time": 22.371419250000002,
            "velocity": 0.23622047244094488
          },
          {
            "duration": 0.08571424999999877,
            "durationTicks": 96,
            "midi": 39,
            "name": "D#2",
            "ticks": 25152,
            "time": 22.4571335,
            "velocity": 0.23622047244094488
          },
          {
            "duration": 0.08571424999999877,
            "durationTicks": 96,
            "midi": 88,
            "name": "E6",
            "ticks": 25152,
            "time": 22.4571335,
            "velocity": 0.23622047244094488
          },
          {
            "duration": 0.08571424999999877,
            "durationTicks": 96,
            "midi": 74,
            "name": "D5",
            "ticks": 25152,
            "time": 22.4571335,
            "velocity": 0.23622047244094488
          },
          {
            "duration": 0.08571424999999877,
            "durationTicks": 96,
            "midi": 77,
            "name": "F5",
            "ticks": 25152,
            "time": 22.4571335,
            "velocity": 0.23622047244094488
          },
          {
            "duration": 0.08571424999999877,
            "durationTicks": 96,
            "midi": 91,
            "name": "G6",
            "ticks": 25344,
            "time": 22.628562000000002,
            "velocity": 0.23622047244094488
          },
          {
            "duration": 0.08571424999999877,
            "durationTicks": 96,
            "midi": 72,
            "name": "C5",
            "ticks": 25344,
            "time": 22.628562000000002,
            "velocity": 0.23622047244094488
          },
          {
            "duration": 0.08571425000000232,
            "durationTicks": 96,
            "midi": 89,
            "name": "F6",
            "ticks": 25536,
            "time": 22.7999905,
            "velocity": 0.23622047244094488
          },
          {
            "duration": 0.08571425000000232,
            "durationTicks": 96,
            "midi": 39,
            "name": "D#2",
            "ticks": 25536,
            "time": 22.7999905,
            "velocity": 0.23622047244094488
          },
          {
            "duration": 0.08571425000000232,
            "durationTicks": 96,
            "midi": 79,
            "name": "G5",
            "ticks": 25536,
            "time": 22.7999905,
            "velocity": 0.23622047244094488
          },
          {
            "duration": 0.08571425000000232,
            "durationTicks": 96,
            "midi": 76,
            "name": "E5",
            "ticks": 25536,
            "time": 22.7999905,
            "velocity": 0.23622047244094488
          },
          {
            "duration": 0.08571425000000232,
            "durationTicks": 96,
            "midi": 44,
            "name": "G#2",
            "ticks": 25728,
            "time": 22.971419,
            "velocity": 0.23622047244094488
          },
          {
            "duration": 0.08571425000000232,
            "durationTicks": 96,
            "midi": 88,
            "name": "E6",
            "ticks": 25728,
            "time": 22.971419,
            "velocity": 0.23622047244094488
          },
          {
            "duration": 0.08571424999999877,
            "durationTicks": 96,
            "midi": 89,
            "name": "F6",
            "ticks": 25824,
            "time": 23.057133250000003,
            "velocity": 0.23622047244094488
          },
          {
            "duration": 0.08571424999999877,
            "durationTicks": 96,
            "midi": 88,
            "name": "E6",
            "ticks": 25920,
            "time": 23.142847500000002,
            "velocity": 0.23622047244094488
          },
          {
            "duration": 0.08571424999999877,
            "durationTicks": 96,
            "midi": 41,
            "name": "F2",
            "ticks": 25920,
            "time": 23.142847500000002,
            "velocity": 0.23622047244094488
          },
          {
            "duration": 0.08571424999999877,
            "durationTicks": 96,
            "midi": 76,
            "name": "E5",
            "ticks": 25920,
            "time": 23.142847500000002,
            "velocity": 0.23622047244094488
          },
          {
            "duration": 0.08571424999999877,
            "durationTicks": 96,
            "midi": 79,
            "name": "G5",
            "ticks": 25920,
            "time": 23.142847500000002,
            "velocity": 0.23622047244094488
          },
          {
            "duration": 0.08571425000000232,
            "durationTicks": 96,
            "midi": 84,
            "name": "C6",
            "ticks": 26016,
            "time": 23.22856175,
            "velocity": 0.23622047244094488
          },
          {
            "duration": 0.08571424999999877,
            "durationTicks": 96,
            "midi": 74,
            "name": "D5",
            "ticks": 26112,
            "time": 23.314276000000003,
            "velocity": 0.23622047244094488
          },
          {
            "duration": 0.08571424999999877,
            "durationTicks": 96,
            "midi": 86,
            "name": "D6",
            "ticks": 26112,
            "time": 23.314276000000003,
            "velocity": 0.23622047244094488
          },
          {
            "duration": 0.08571424999999877,
            "durationTicks": 96,
            "midi": 39,
            "name": "D#2",
            "ticks": 26112,
            "time": 23.314276000000003,
            "velocity": 0.23622047244094488
          },
          {
            "duration": 0.08571425000000232,
            "durationTicks": 96,
            "midi": 41,
            "name": "F2",
            "ticks": 26304,
            "time": 23.4857045,
            "velocity": 0.23622047244094488
          },
          {
            "duration": 0.08571425000000232,
            "durationTicks": 96,
            "midi": 77,
            "name": "F5",
            "ticks": 26304,
            "time": 23.4857045,
            "velocity": 0.23622047244094488
          },
          {
            "duration": 0.08571425000000232,
            "durationTicks": 96,
            "midi": 93,
            "name": "A6",
            "ticks": 26304,
            "time": 23.4857045,
            "velocity": 0.23622047244094488
          },
          {
            "duration": 0.08571425000000232,
            "durationTicks": 96,
            "midi": 81,
            "name": "A5",
            "ticks": 26304,
            "time": 23.4857045,
            "velocity": 0.23622047244094488
          },
          {
            "duration": 0.08571424999999877,
            "durationTicks": 96,
            "midi": 91,
            "name": "G6",
            "ticks": 26496,
            "time": 23.657133,
            "velocity": 0.23622047244094488
          },
          {
            "duration": 0.08571424999999877,
            "durationTicks": 96,
            "midi": 44,
            "name": "G#2",
            "ticks": 26496,
            "time": 23.657133,
            "velocity": 0.23622047244094488
          },
          {
            "duration": 0.08571425000000232,
            "durationTicks": 96,
            "midi": 93,
            "name": "A6",
            "ticks": 26592,
            "time": 23.74284725,
            "velocity": 0.23622047244094488
          },
          {
            "duration": 0.08571424999999877,
            "durationTicks": 96,
            "midi": 77,
            "name": "F5",
            "ticks": 26688,
            "time": 23.828561500000003,
            "velocity": 0.23622047244094488
          },
          {
            "duration": 0.08571424999999877,
            "durationTicks": 96,
            "midi": 81,
            "name": "A5",
            "ticks": 26688,
            "time": 23.828561500000003,
            "velocity": 0.23622047244094488
          },
          {
            "duration": 0.08571424999999877,
            "durationTicks": 96,
            "midi": 39,
            "name": "D#2",
            "ticks": 26688,
            "time": 23.828561500000003,
            "velocity": 0.23622047244094488
          },
          {
            "duration": 0.08571424999999877,
            "durationTicks": 96,
            "midi": 91,
            "name": "G6",
            "ticks": 26688,
            "time": 23.828561500000003,
            "velocity": 0.23622047244094488
          },
          {
            "duration": 0.08571424999999877,
            "durationTicks": 96,
            "midi": 93,
            "name": "A6",
            "ticks": 26784,
            "time": 23.91427575,
            "velocity": 0.23622047244094488
          },
          {
            "duration": 0.08571425000000232,
            "durationTicks": 96,
            "midi": 84,
            "name": "C6",
            "ticks": 26880,
            "time": 23.99999,
            "velocity": 0.23622047244094488
          },
          {
            "duration": 0.08571425000000232,
            "durationTicks": 96,
            "midi": 74,
            "name": "D5",
            "ticks": 26880,
            "time": 23.99999,
            "velocity": 0.23622047244094488
          },
          {
            "duration": 0.08571424999999877,
            "durationTicks": 96,
            "midi": 81,
            "name": "A5",
            "ticks": 27072,
            "time": 24.1714185,
            "velocity": 0.23622047244094488
          },
          {
            "duration": 0.08571424999999877,
            "durationTicks": 96,
            "midi": 77,
            "name": "F5",
            "ticks": 27072,
            "time": 24.1714185,
            "velocity": 0.23622047244094488
          },
          {
            "duration": 0.08571424999999877,
            "durationTicks": 96,
            "midi": 93,
            "name": "A6",
            "ticks": 27072,
            "time": 24.1714185,
            "velocity": 0.23622047244094488
          },
          {
            "duration": 0.08571424999999877,
            "durationTicks": 96,
            "midi": 39,
            "name": "D#2",
            "ticks": 27072,
            "time": 24.1714185,
            "velocity": 0.23622047244094488
          },
          {
            "duration": 0.08571424999999877,
            "durationTicks": 96,
            "midi": 91,
            "name": "G6",
            "ticks": 27264,
            "time": 24.342847000000003,
            "velocity": 0.23622047244094488
          },
          {
            "duration": 0.08571424999999877,
            "durationTicks": 96,
            "midi": 44,
            "name": "G#2",
            "ticks": 27264,
            "time": 24.342847000000003,
            "velocity": 0.23622047244094488
          },
          {
            "duration": 0.08571425000000232,
            "durationTicks": 96,
            "midi": 81,
            "name": "A5",
            "ticks": 27456,
            "time": 24.5142755,
            "velocity": 0.23622047244094488
          },
          {
            "duration": 0.08571425000000232,
            "durationTicks": 96,
            "midi": 41,
            "name": "F2",
            "ticks": 27456,
            "time": 24.5142755,
            "velocity": 0.23622047244094488
          },
          {
            "duration": 0.08571425000000232,
            "durationTicks": 96,
            "midi": 77,
            "name": "F5",
            "ticks": 27456,
            "time": 24.5142755,
            "velocity": 0.23622047244094488
          },
          {
            "duration": 0.08571425000000232,
            "durationTicks": 96,
            "midi": 93,
            "name": "A6",
            "ticks": 27456,
            "time": 24.5142755,
            "velocity": 0.23622047244094488
          },
          {
            "duration": 0.08571424999999877,
            "durationTicks": 96,
            "midi": 70,
            "name": "A#4",
            "ticks": 27648,
            "time": 24.685704,
            "velocity": 0.23622047244094488
          },
          {
            "duration": 0.08571424999999877,
            "durationTicks": 96,
            "midi": 57,
            "name": "A3",
            "ticks": 27648,
            "time": 24.685704,
            "velocity": 0.23622047244094488
          },
          {
            "duration": 0.08571424999999877,
            "durationTicks": 96,
            "midi": 39,
            "name": "D#2",
            "ticks": 27648,
            "time": 24.685704,
            "velocity": 0.23622047244094488
          },
          {
            "duration": 0.08571424999999877,
            "durationTicks": 96,
            "midi": 82,
            "name": "A#5",
            "ticks": 27648,
            "time": 24.685704,
            "velocity": 0.23622047244094488
          },
          {
            "duration": 0.08571424999999877,
            "durationTicks": 96,
            "midi": 77,
            "name": "F5",
            "ticks": 27840,
            "time": 24.857132500000002,
            "velocity": 0.23622047244094488
          },
          {
            "duration": 0.08571424999999877,
            "durationTicks": 96,
            "midi": 41,
            "name": "F2",
            "ticks": 27840,
            "time": 24.857132500000002,
            "velocity": 0.23622047244094488
          },
          {
            "duration": 0.08571424999999877,
            "durationTicks": 96,
            "midi": 89,
            "name": "F6",
            "ticks": 27840,
            "time": 24.857132500000002,
            "velocity": 0.23622047244094488
          },
          {
            "duration": 0.08571424999999877,
            "durationTicks": 96,
            "midi": 74,
            "name": "D5",
            "ticks": 27840,
            "time": 24.857132500000002,
            "velocity": 0.23622047244094488
          },
          {
            "duration": 0.08571424999999877,
            "durationTicks": 96,
            "midi": 88,
            "name": "E6",
            "ticks": 28032,
            "time": 25.028561000000003,
            "velocity": 0.23622047244094488
          },
          {
            "duration": 0.08571424999999877,
            "durationTicks": 96,
            "midi": 44,
            "name": "G#2",
            "ticks": 28032,
            "time": 25.028561000000003,
            "velocity": 0.23622047244094488
          },
          {
            "duration": 0.08571424999999877,
            "durationTicks": 96,
            "midi": 89,
            "name": "F6",
            "ticks": 28128,
            "time": 25.114275250000002,
            "velocity": 0.23622047244094488
          },
          {
            "duration": 0.08571425000000232,
            "durationTicks": 96,
            "midi": 77,
            "name": "F5",
            "ticks": 28224,
            "time": 25.1999895,
            "velocity": 0.23622047244094488
          },
          {
            "duration": 0.08571425000000232,
            "durationTicks": 96,
            "midi": 88,
            "name": "E6",
            "ticks": 28224,
            "time": 25.1999895,
            "velocity": 0.23622047244094488
          },
          {
            "duration": 0.08571425000000232,
            "durationTicks": 96,
            "midi": 39,
            "name": "D#2",
            "ticks": 28224,
            "time": 25.1999895,
            "velocity": 0.23622047244094488
          },
          {
            "duration": 0.08571425000000232,
            "durationTicks": 96,
            "midi": 74,
            "name": "D5",
            "ticks": 28224,
            "time": 25.1999895,
            "velocity": 0.23622047244094488
          },
          {
            "duration": 0.08571424999999877,
            "durationTicks": 96,
            "midi": 72,
            "name": "C5",
            "ticks": 28416,
            "time": 25.371418000000002,
            "velocity": 0.23622047244094488
          },
          {
            "duration": 0.08571424999999877,
            "durationTicks": 96,
            "midi": 91,
            "name": "G6",
            "ticks": 28416,
            "time": 25.371418000000002,
            "velocity": 0.23622047244094488
          },
          {
            "duration": 0.08571424999999877,
            "durationTicks": 96,
            "midi": 89,
            "name": "F6",
            "ticks": 28608,
            "time": 25.542846500000003,
            "velocity": 0.23622047244094488
          },
          {
            "duration": 0.08571424999999877,
            "durationTicks": 96,
            "midi": 79,
            "name": "G5",
            "ticks": 28608,
            "time": 25.542846500000003,
            "velocity": 0.23622047244094488
          },
          {
            "duration": 0.08571424999999877,
            "durationTicks": 96,
            "midi": 76,
            "name": "E5",
            "ticks": 28608,
            "time": 25.542846500000003,
            "velocity": 0.23622047244094488
          },
          {
            "duration": 0.08571424999999877,
            "durationTicks": 96,
            "midi": 39,
            "name": "D#2",
            "ticks": 28608,
            "time": 25.542846500000003,
            "velocity": 0.23622047244094488
          },
          {
            "duration": 0.08571425000000232,
            "durationTicks": 96,
            "midi": 44,
            "name": "G#2",
            "ticks": 28800,
            "time": 25.714275,
            "velocity": 0.23622047244094488
          },
          {
            "duration": 0.08571425000000232,
            "durationTicks": 96,
            "midi": 88,
            "name": "E6",
            "ticks": 28800,
            "time": 25.714275,
            "velocity": 0.23622047244094488
          },
          {
            "duration": 0.08571424999999877,
            "durationTicks": 96,
            "midi": 89,
            "name": "F6",
            "ticks": 28896,
            "time": 25.799989250000003,
            "velocity": 0.23622047244094488
          },
          {
            "duration": 0.08571424999999877,
            "durationTicks": 96,
            "midi": 79,
            "name": "G5",
            "ticks": 28992,
            "time": 25.8857035,
            "velocity": 0.23622047244094488
          },
          {
            "duration": 0.08571424999999877,
            "durationTicks": 96,
            "midi": 41,
            "name": "F2",
            "ticks": 28992,
            "time": 25.8857035,
            "velocity": 0.23622047244094488
          },
          {
            "duration": 0.08571424999999877,
            "durationTicks": 96,
            "midi": 76,
            "name": "E5",
            "ticks": 28992,
            "time": 25.8857035,
            "velocity": 0.23622047244094488
          },
          {
            "duration": 0.08571424999999877,
            "durationTicks": 96,
            "midi": 88,
            "name": "E6",
            "ticks": 28992,
            "time": 25.8857035,
            "velocity": 0.23622047244094488
          },
          {
            "duration": 0.08571425000000232,
            "durationTicks": 96,
            "midi": 84,
            "name": "C6",
            "ticks": 29088,
            "time": 25.97141775,
            "velocity": 0.23622047244094488
          },
          {
            "duration": 0.08571424999999877,
            "durationTicks": 96,
            "midi": 57,
            "name": "A3",
            "ticks": 29184,
            "time": 26.057132000000003,
            "velocity": 0.23622047244094488
          },
          {
            "duration": 0.08571424999999877,
            "durationTicks": 96,
            "midi": 39,
            "name": "D#2",
            "ticks": 29184,
            "time": 26.057132000000003,
            "velocity": 0.23622047244094488
          },
          {
            "duration": 0.08571424999999877,
            "durationTicks": 96,
            "midi": 86,
            "name": "D6",
            "ticks": 29184,
            "time": 26.057132000000003,
            "velocity": 0.23622047244094488
          },
          {
            "duration": 0.08571424999999877,
            "durationTicks": 96,
            "midi": 74,
            "name": "D5",
            "ticks": 29184,
            "time": 26.057132000000003,
            "velocity": 0.23622047244094488
          },
          {
            "duration": 0.08571425000000232,
            "durationTicks": 96,
            "midi": 41,
            "name": "F2",
            "ticks": 29376,
            "time": 26.2285605,
            "velocity": 0.23622047244094488
          },
          {
            "duration": 0.08571425000000232,
            "durationTicks": 96,
            "midi": 93,
            "name": "A6",
            "ticks": 29376,
            "time": 26.2285605,
            "velocity": 0.23622047244094488
          },
          {
            "duration": 0.08571425000000232,
            "durationTicks": 96,
            "midi": 81,
            "name": "A5",
            "ticks": 29376,
            "time": 26.2285605,
            "velocity": 0.23622047244094488
          },
          {
            "duration": 0.08571425000000232,
            "durationTicks": 96,
            "midi": 77,
            "name": "F5",
            "ticks": 29376,
            "time": 26.2285605,
            "velocity": 0.23622047244094488
          },
          {
            "duration": 0.08571424999999877,
            "durationTicks": 96,
            "midi": 91,
            "name": "G6",
            "ticks": 29568,
            "time": 26.399989,
            "velocity": 0.23622047244094488
          },
          {
            "duration": 0.08571424999999877,
            "durationTicks": 96,
            "midi": 74,
            "name": "D5",
            "ticks": 29568,
            "time": 26.399989,
            "velocity": 0.23622047244094488
          },
          {
            "duration": 0.08571424999999877,
            "durationTicks": 96,
            "midi": 44,
            "name": "G#2",
            "ticks": 29568,
            "time": 26.399989,
            "velocity": 0.23622047244094488
          },
          {
            "duration": 0.08571425000000232,
            "durationTicks": 96,
            "midi": 93,
            "name": "A6",
            "ticks": 29664,
            "time": 26.48570325,
            "velocity": 0.23622047244094488
          },
          {
            "duration": 0.08571424999999877,
            "durationTicks": 96,
            "midi": 39,
            "name": "D#2",
            "ticks": 29760,
            "time": 26.571417500000003,
            "velocity": 0.23622047244094488
          },
          {
            "duration": 0.08571424999999877,
            "durationTicks": 96,
            "midi": 84,
            "name": "C6",
            "ticks": 29760,
            "time": 26.571417500000003,
            "velocity": 0.23622047244094488
          },
          {
            "duration": 0.08571424999999877,
            "durationTicks": 96,
            "midi": 91,
            "name": "G6",
            "ticks": 29760,
            "time": 26.571417500000003,
            "velocity": 0.23622047244094488
          },
          {
            "duration": 0.08571424999999877,
            "durationTicks": 96,
            "midi": 79,
            "name": "G5",
            "ticks": 29760,
            "time": 26.571417500000003,
            "velocity": 0.23622047244094488
          },
          {
            "duration": 0.08571424999999877,
            "durationTicks": 96,
            "midi": 93,
            "name": "A6",
            "ticks": 29856,
            "time": 26.65713175,
            "velocity": 0.23622047244094488
          },
          {
            "duration": 0.08571425000000232,
            "durationTicks": 96,
            "midi": 57,
            "name": "A3",
            "ticks": 29952,
            "time": 26.742846,
            "velocity": 0.23622047244094488
          },
          {
            "duration": 0.08571425000000232,
            "durationTicks": 96,
            "midi": 74,
            "name": "D5",
            "ticks": 29952,
            "time": 26.742846,
            "velocity": 0.23622047244094488
          },
          {
            "duration": 0.08571425000000232,
            "durationTicks": 96,
            "midi": 44,
            "name": "G#2",
            "ticks": 29952,
            "time": 26.742846,
            "velocity": 0.23622047244094488
          },
          {
            "duration": 0.08571425000000232,
            "durationTicks": 96,
            "midi": 85,
            "name": "C#6",
            "ticks": 29952,
            "time": 26.742846,
            "velocity": 0.23622047244094488
          },
          {
            "duration": 0.08571425000000232,
            "durationTicks": 96,
            "midi": 81,
            "name": "A5",
            "ticks": 30144,
            "time": 26.9142745,
            "velocity": 0.23622047244094488
          },
          {
            "duration": 0.08571425000000232,
            "durationTicks": 96,
            "midi": 93,
            "name": "A6",
            "ticks": 30144,
            "time": 26.9142745,
            "velocity": 0.23622047244094488
          },
          {
            "duration": 0.08571425000000232,
            "durationTicks": 96,
            "midi": 39,
            "name": "D#2",
            "ticks": 30144,
            "time": 26.9142745,
            "velocity": 0.23622047244094488
          },
          {
            "duration": 0.08571425000000232,
            "durationTicks": 96,
            "midi": 86,
            "name": "D6",
            "ticks": 30144,
            "time": 26.9142745,
            "velocity": 0.23622047244094488
          },
          {
            "duration": 0.08571424999999877,
            "durationTicks": 96,
            "midi": 91,
            "name": "G6",
            "ticks": 30336,
            "time": 27.085703000000002,
            "velocity": 0.23622047244094488
          },
          {
            "duration": 0.08571424999999877,
            "durationTicks": 96,
            "midi": 44,
            "name": "G#2",
            "ticks": 30336,
            "time": 27.085703000000002,
            "velocity": 0.23622047244094488
          },
          {
            "duration": 0.08571424999999877,
            "durationTicks": 96,
            "midi": 74,
            "name": "D5",
            "ticks": 30336,
            "time": 27.085703000000002,
            "velocity": 0.23622047244094488
          },
          {
            "duration": 0.08571424999999877,
            "durationTicks": 96,
            "midi": 81,
            "name": "A5",
            "ticks": 30528,
            "time": 27.257131500000003,
            "velocity": 0.23622047244094488
          },
          {
            "duration": 0.08571424999999877,
            "durationTicks": 96,
            "midi": 93,
            "name": "A6",
            "ticks": 30528,
            "time": 27.257131500000003,
            "velocity": 0.23622047244094488
          },
          {
            "duration": 0.08571424999999877,
            "durationTicks": 96,
            "midi": 41,
            "name": "F2",
            "ticks": 30528,
            "time": 27.257131500000003,
            "velocity": 0.23622047244094488
          },
          {
            "duration": 0.08571424999999877,
            "durationTicks": 96,
            "midi": 77,
            "name": "F5",
            "ticks": 30528,
            "time": 27.257131500000003,
            "velocity": 0.23622047244094488
          },
          {
            "duration": 0.08571425000000232,
            "durationTicks": 96,
            "midi": 81,
            "name": "A5",
            "ticks": 30720,
            "time": 27.42856,
            "velocity": 0.23622047244094488
          },
          {
            "duration": 0.08571425000000232,
            "durationTicks": 96,
            "midi": 57,
            "name": "A3",
            "ticks": 30720,
            "time": 27.42856,
            "velocity": 0.23622047244094488
          },
          {
            "duration": 0.08571425000000232,
            "durationTicks": 96,
            "midi": 39,
            "name": "D#2",
            "ticks": 30720,
            "time": 27.42856,
            "velocity": 0.23622047244094488
          },
          {
            "duration": 0.08571425000000232,
            "durationTicks": 96,
            "midi": 70,
            "name": "A#4",
            "ticks": 30720,
            "time": 27.42856,
            "velocity": 0.23622047244094488
          },
          {
            "duration": 0.08571424999999877,
            "durationTicks": 96,
            "midi": 74,
            "name": "D5",
            "ticks": 30912,
            "time": 27.599988500000002,
            "velocity": 0.23622047244094488
          },
          {
            "duration": 0.08571424999999877,
            "durationTicks": 96,
            "midi": 41,
            "name": "F2",
            "ticks": 30912,
            "time": 27.599988500000002,
            "velocity": 0.23622047244094488
          },
          {
            "duration": 0.08571424999999877,
            "durationTicks": 96,
            "midi": 89,
            "name": "F6",
            "ticks": 30912,
            "time": 27.599988500000002,
            "velocity": 0.23622047244094488
          },
          {
            "duration": 0.08571424999999877,
            "durationTicks": 96,
            "midi": 77,
            "name": "F5",
            "ticks": 30912,
            "time": 27.599988500000002,
            "velocity": 0.23622047244094488
          },
          {
            "duration": 0.08571424999999877,
            "durationTicks": 96,
            "midi": 44,
            "name": "G#2",
            "ticks": 31104,
            "time": 27.771417000000003,
            "velocity": 0.23622047244094488
          },
          {
            "duration": 0.08571424999999877,
            "durationTicks": 96,
            "midi": 88,
            "name": "E6",
            "ticks": 31104,
            "time": 27.771417000000003,
            "velocity": 0.23622047244094488
          },
          {
            "duration": 0.08571424999999877,
            "durationTicks": 96,
            "midi": 89,
            "name": "F6",
            "ticks": 31200,
            "time": 27.857131250000002,
            "velocity": 0.23622047244094488
          },
          {
            "duration": 0.08571425000000232,
            "durationTicks": 96,
            "midi": 39,
            "name": "D#2",
            "ticks": 31296,
            "time": 27.9428455,
            "velocity": 0.23622047244094488
          },
          {
            "duration": 0.08571425000000232,
            "durationTicks": 96,
            "midi": 74,
            "name": "D5",
            "ticks": 31296,
            "time": 27.9428455,
            "velocity": 0.23622047244094488
          },
          {
            "duration": 0.08571425000000232,
            "durationTicks": 96,
            "midi": 77,
            "name": "F5",
            "ticks": 31296,
            "time": 27.9428455,
            "velocity": 0.23622047244094488
          },
          {
            "duration": 0.08571425000000232,
            "durationTicks": 96,
            "midi": 88,
            "name": "E6",
            "ticks": 31296,
            "time": 27.9428455,
            "velocity": 0.23622047244094488
          },
          {
            "duration": 0.08571424999999877,
            "durationTicks": 96,
            "midi": 91,
            "name": "G6",
            "ticks": 31488,
            "time": 28.114274,
            "velocity": 0.23622047244094488
          },
          {
            "duration": 0.08571424999999877,
            "durationTicks": 96,
            "midi": 72,
            "name": "C5",
            "ticks": 31488,
            "time": 28.114274,
            "velocity": 0.23622047244094488
          },
          {
            "duration": 0.08571424999999877,
            "durationTicks": 96,
            "midi": 89,
            "name": "F6",
            "ticks": 31680,
            "time": 28.285702500000003,
            "velocity": 0.23622047244094488
          },
          {
            "duration": 0.08571424999999877,
            "durationTicks": 96,
            "midi": 39,
            "name": "D#2",
            "ticks": 31680,
            "time": 28.285702500000003,
            "velocity": 0.23622047244094488
          },
          {
            "duration": 0.08571424999999877,
            "durationTicks": 96,
            "midi": 76,
            "name": "E5",
            "ticks": 31680,
            "time": 28.285702500000003,
            "velocity": 0.23622047244094488
          },
          {
            "duration": 0.08571424999999877,
            "durationTicks": 96,
            "midi": 79,
            "name": "G5",
            "ticks": 31680,
            "time": 28.285702500000003,
            "velocity": 0.23622047244094488
          },
          {
            "duration": 0.08571425000000232,
            "durationTicks": 96,
            "midi": 44,
            "name": "G#2",
            "ticks": 31872,
            "time": 28.457131,
            "velocity": 0.23622047244094488
          },
          {
            "duration": 0.08571425000000232,
            "durationTicks": 96,
            "midi": 88,
            "name": "E6",
            "ticks": 31872,
            "time": 28.457131,
            "velocity": 0.23622047244094488
          },
          {
            "duration": 0.08571424999999877,
            "durationTicks": 96,
            "midi": 89,
            "name": "F6",
            "ticks": 31968,
            "time": 28.542845250000003,
            "velocity": 0.23622047244094488
          },
          {
            "duration": 0.08571424999999877,
            "durationTicks": 96,
            "midi": 79,
            "name": "G5",
            "ticks": 32064,
            "time": 28.6285595,
            "velocity": 0.23622047244094488
          },
          {
            "duration": 0.08571424999999877,
            "durationTicks": 96,
            "midi": 76,
            "name": "E5",
            "ticks": 32064,
            "time": 28.6285595,
            "velocity": 0.23622047244094488
          },
          {
            "duration": 0.08571424999999877,
            "durationTicks": 96,
            "midi": 41,
            "name": "F2",
            "ticks": 32064,
            "time": 28.6285595,
            "velocity": 0.23622047244094488
          },
          {
            "duration": 0.08571424999999877,
            "durationTicks": 96,
            "midi": 88,
            "name": "E6",
            "ticks": 32064,
            "time": 28.6285595,
            "velocity": 0.23622047244094488
          },
          {
            "duration": 0.08571425000000232,
            "durationTicks": 96,
            "midi": 84,
            "name": "C6",
            "ticks": 32160,
            "time": 28.71427375,
            "velocity": 0.23622047244094488
          },
          {
            "duration": 0.08571424999999877,
            "durationTicks": 96,
            "midi": 39,
            "name": "D#2",
            "ticks": 32256,
            "time": 28.799988000000003,
            "velocity": 0.23622047244094488
          },
          {
            "duration": 0.08571424999999877,
            "durationTicks": 96,
            "midi": 86,
            "name": "D6",
            "ticks": 32256,
            "time": 28.799988000000003,
            "velocity": 0.23622047244094488
          },
          {
            "duration": 0.08571424999999877,
            "durationTicks": 96,
            "midi": 74,
            "name": "D5",
            "ticks": 32256,
            "time": 28.799988000000003,
            "velocity": 0.23622047244094488
          },
          {
            "duration": 0.08571424999999877,
            "durationTicks": 96,
            "midi": 41,
            "name": "F2",
            "ticks": 32448,
            "time": 28.971416500000004,
            "velocity": 0.23622047244094488
          },
          {
            "duration": 0.08571424999999877,
            "durationTicks": 96,
            "midi": 93,
            "name": "A6",
            "ticks": 32448,
            "time": 28.971416500000004,
            "velocity": 0.23622047244094488
          },
          {
            "duration": 0.08571424999999877,
            "durationTicks": 96,
            "midi": 81,
            "name": "A5",
            "ticks": 32448,
            "time": 28.971416500000004,
            "velocity": 0.23622047244094488
          },
          {
            "duration": 0.08571424999999877,
            "durationTicks": 96,
            "midi": 77,
            "name": "F5",
            "ticks": 32448,
            "time": 28.971416500000004,
            "velocity": 0.23622047244094488
          },
          {
            "duration": 0.08571425000000232,
            "durationTicks": 96,
            "midi": 44,
            "name": "G#2",
            "ticks": 32640,
            "time": 29.142845,
            "velocity": 0.23622047244094488
          },
          {
            "duration": 0.08571425000000232,
            "durationTicks": 96,
            "midi": 91,
            "name": "G6",
            "ticks": 32640,
            "time": 29.142845,
            "velocity": 0.23622047244094488
          },
          {
            "duration": 0.08571424999999877,
            "durationTicks": 96,
            "midi": 93,
            "name": "A6",
            "ticks": 32736,
            "time": 29.228559250000004,
            "velocity": 0.23622047244094488
          },
          {
            "duration": 0.08571424999999877,
            "durationTicks": 96,
            "midi": 81,
            "name": "A5",
            "ticks": 32832,
            "time": 29.314273500000002,
            "velocity": 0.23622047244094488
          },
          {
            "duration": 0.08571424999999877,
            "durationTicks": 96,
            "midi": 77,
            "name": "F5",
            "ticks": 32832,
            "time": 29.314273500000002,
            "velocity": 0.23622047244094488
          },
          {
            "duration": 0.08571424999999877,
            "durationTicks": 96,
            "midi": 39,
            "name": "D#2",
            "ticks": 32832,
            "time": 29.314273500000002,
            "velocity": 0.23622047244094488
          },
          {
            "duration": 0.08571424999999877,
            "durationTicks": 96,
            "midi": 91,
            "name": "G6",
            "ticks": 32832,
            "time": 29.314273500000002,
            "velocity": 0.23622047244094488
          },
          {
            "duration": 0.08571425000000232,
            "durationTicks": 96,
            "midi": 93,
            "name": "A6",
            "ticks": 32928,
            "time": 29.39998775,
            "velocity": 0.23622047244094488
          },
          {
            "duration": 0.08571424999999877,
            "durationTicks": 96,
            "midi": 84,
            "name": "C6",
            "ticks": 33024,
            "time": 29.485702000000003,
            "velocity": 0.23622047244094488
          },
          {
            "duration": 0.08571424999999877,
            "durationTicks": 96,
            "midi": 74,
            "name": "D5",
            "ticks": 33024,
            "time": 29.485702000000003,
            "velocity": 0.23622047244094488
          },
          {
            "duration": 0.08571425000000232,
            "durationTicks": 96,
            "midi": 93,
            "name": "A6",
            "ticks": 33216,
            "time": 29.6571305,
            "velocity": 0.23622047244094488
          },
          {
            "duration": 0.08571425000000232,
            "durationTicks": 96,
            "midi": 81,
            "name": "A5",
            "ticks": 33216,
            "time": 29.6571305,
            "velocity": 0.23622047244094488
          },
          {
            "duration": 0.08571425000000232,
            "durationTicks": 96,
            "midi": 39,
            "name": "D#2",
            "ticks": 33216,
            "time": 29.6571305,
            "velocity": 0.23622047244094488
          },
          {
            "duration": 0.08571425000000232,
            "durationTicks": 96,
            "midi": 77,
            "name": "F5",
            "ticks": 33216,
            "time": 29.6571305,
            "velocity": 0.23622047244094488
          },
          {
            "duration": 0.08571424999999877,
            "durationTicks": 96,
            "midi": 84,
            "name": "C6",
            "ticks": 33312,
            "time": 29.742844750000003,
            "velocity": 0.23622047244094488
          },
          {
            "duration": 0.08571424999999877,
            "durationTicks": 96,
            "midi": 88,
            "name": "E6",
            "ticks": 33408,
            "time": 29.828559000000002,
            "velocity": 0.23622047244094488
          },
          {
            "duration": 0.08571424999999877,
            "durationTicks": 96,
            "midi": 44,
            "name": "G#2",
            "ticks": 33408,
            "time": 29.828559000000002,
            "velocity": 0.23622047244094488
          },
          {
            "duration": 0.08571424999999877,
            "durationTicks": 96,
            "midi": 41,
            "name": "F2",
            "ticks": 33600,
            "time": 29.999987500000003,
            "velocity": 0.23622047244094488
          },
          {
            "duration": 0.08571424999999877,
            "durationTicks": 96,
            "midi": 81,
            "name": "A5",
            "ticks": 33600,
            "time": 29.999987500000003,
            "velocity": 0.23622047244094488
          },
          {
            "duration": 0.08571424999999877,
            "durationTicks": 96,
            "midi": 89,
            "name": "F6",
            "ticks": 33600,
            "time": 29.999987500000003,
            "velocity": 0.23622047244094488
          },
          {
            "duration": 0.08571424999999877,
            "durationTicks": 96,
            "midi": 77,
            "name": "F5",
            "ticks": 33600,
            "time": 29.999987500000003,
            "velocity": 0.23622047244094488
          },
          {
            "duration": 0.08571425000000232,
            "durationTicks": 96,
            "midi": 91,
            "name": "G6",
            "ticks": 33792,
            "time": 30.171416,
            "velocity": 0.23622047244094488
          },
          {
            "duration": 0.08571425000000232,
            "durationTicks": 96,
            "midi": 70,
            "name": "A#4",
            "ticks": 33792,
            "time": 30.171416,
            "velocity": 0.23622047244094488
          },
          {
            "duration": 0.08571425000000232,
            "durationTicks": 96,
            "midi": 57,
            "name": "A3",
            "ticks": 33792,
            "time": 30.171416,
            "velocity": 0.23622047244094488
          },
          {
            "duration": 0.08571425000000232,
            "durationTicks": 96,
            "midi": 39,
            "name": "D#2",
            "ticks": 33792,
            "time": 30.171416,
            "velocity": 0.23622047244094488
          },
          {
            "duration": 0.08571424999999877,
            "durationTicks": 96,
            "midi": 74,
            "name": "D5",
            "ticks": 33984,
            "time": 30.3428445,
            "velocity": 0.23622047244094488
          },
          {
            "duration": 0.08571424999999877,
            "durationTicks": 96,
            "midi": 41,
            "name": "F2",
            "ticks": 33984,
            "time": 30.3428445,
            "velocity": 0.23622047244094488
          },
          {
            "duration": 0.08571424999999877,
            "durationTicks": 96,
            "midi": 79,
            "name": "G5",
            "ticks": 33984,
            "time": 30.3428445,
            "velocity": 0.23622047244094488
          },
          {
            "duration": 0.08571424999999877,
            "durationTicks": 96,
            "midi": 86,
            "name": "D6",
            "ticks": 33984,
            "time": 30.3428445,
            "velocity": 0.23622047244094488
          },
          {
            "duration": 0.08571425000000232,
            "durationTicks": 96,
            "midi": 91,
            "name": "G6",
            "ticks": 34080,
            "time": 30.42855875,
            "velocity": 0.23622047244094488
          },
          {
            "duration": 0.08571424999999877,
            "durationTicks": 96,
            "midi": 44,
            "name": "G#2",
            "ticks": 34176,
            "time": 30.514273000000003,
            "velocity": 0.23622047244094488
          },
          {
            "duration": 0.08571424999999877,
            "durationTicks": 96,
            "midi": 86,
            "name": "D6",
            "ticks": 34272,
            "time": 30.59998725,
            "velocity": 0.23622047244094488
          },
          {
            "duration": 0.08571425000000232,
            "durationTicks": 96,
            "midi": 91,
            "name": "G6",
            "ticks": 34368,
            "time": 30.6857015,
            "velocity": 0.23622047244094488
          },
          {
            "duration": 0.08571425000000232,
            "durationTicks": 96,
            "midi": 39,
            "name": "D#2",
            "ticks": 34368,
            "time": 30.6857015,
            "velocity": 0.23622047244094488
          },
          {
            "duration": 0.08571425000000232,
            "durationTicks": 96,
            "midi": 74,
            "name": "D5",
            "ticks": 34368,
            "time": 30.6857015,
            "velocity": 0.23622047244094488
          },
          {
            "duration": 0.08571425000000232,
            "durationTicks": 96,
            "midi": 79,
            "name": "G5",
            "ticks": 34368,
            "time": 30.6857015,
            "velocity": 0.23622047244094488
          },
          {
            "duration": 0.08571425000000232,
            "durationTicks": 96,
            "midi": 93,
            "name": "A6",
            "ticks": 34560,
            "time": 30.85713,
            "velocity": 0.23622047244094488
          },
          {
            "duration": 0.08571425000000232,
            "durationTicks": 96,
            "midi": 72,
            "name": "C5",
            "ticks": 34560,
            "time": 30.85713,
            "velocity": 0.23622047244094488
          },
          {
            "duration": 0.08571425000000232,
            "durationTicks": 96,
            "midi": 57,
            "name": "A3",
            "ticks": 34560,
            "time": 30.85713,
            "velocity": 0.23622047244094488
          },
          {
            "duration": 0.08571424999999877,
            "durationTicks": 96,
            "midi": 88,
            "name": "E6",
            "ticks": 34752,
            "time": 31.028558500000003,
            "velocity": 0.23622047244094488
          },
          {
            "duration": 0.08571424999999877,
            "durationTicks": 96,
            "midi": 81,
            "name": "A5",
            "ticks": 34752,
            "time": 31.028558500000003,
            "velocity": 0.23622047244094488
          },
          {
            "duration": 0.08571424999999877,
            "durationTicks": 96,
            "midi": 39,
            "name": "D#2",
            "ticks": 34752,
            "time": 31.028558500000003,
            "velocity": 0.23622047244094488
          },
          {
            "duration": 0.08571424999999877,
            "durationTicks": 96,
            "midi": 76,
            "name": "E5",
            "ticks": 34752,
            "time": 31.028558500000003,
            "velocity": 0.23622047244094488
          },
          {
            "duration": 0.08571425000000232,
            "durationTicks": 96,
            "midi": 93,
            "name": "A6",
            "ticks": 34848,
            "time": 31.11427275,
            "velocity": 0.23622047244094488
          },
          {
            "duration": 0.08571424999999877,
            "durationTicks": 96,
            "midi": 44,
            "name": "G#2",
            "ticks": 34944,
            "time": 31.199987000000004,
            "velocity": 0.23622047244094488
          },
          {
            "duration": 0.08571424999999877,
            "durationTicks": 96,
            "midi": 88,
            "name": "E6",
            "ticks": 35040,
            "time": 31.285701250000002,
            "velocity": 0.23622047244094488
          },
          {
            "duration": 0.08571425000000232,
            "durationTicks": 96,
            "midi": 93,
            "name": "A6",
            "ticks": 35136,
            "time": 31.3714155,
            "velocity": 0.23622047244094488
          },
          {
            "duration": 0.08571425000000232,
            "durationTicks": 96,
            "midi": 81,
            "name": "A5",
            "ticks": 35136,
            "time": 31.3714155,
            "velocity": 0.23622047244094488
          },
          {
            "duration": 0.08571425000000232,
            "durationTicks": 96,
            "midi": 41,
            "name": "F2",
            "ticks": 35136,
            "time": 31.3714155,
            "velocity": 0.23622047244094488
          },
          {
            "duration": 0.08571425000000232,
            "durationTicks": 96,
            "midi": 76,
            "name": "E5",
            "ticks": 35136,
            "time": 31.3714155,
            "velocity": 0.23622047244094488
          },
          {
            "duration": 0.08571424999999877,
            "durationTicks": 96,
            "midi": 74,
            "name": "D5",
            "ticks": 35328,
            "time": 31.542844000000002,
            "velocity": 0.23622047244094488
          },
          {
            "duration": 0.08571424999999877,
            "durationTicks": 96,
            "midi": 94,
            "name": "A#6",
            "ticks": 35328,
            "time": 31.542844000000002,
            "velocity": 0.23622047244094488
          },
          {
            "duration": 0.08571424999999877,
            "durationTicks": 96,
            "midi": 57,
            "name": "A3",
            "ticks": 35328,
            "time": 31.542844000000002,
            "velocity": 0.23622047244094488
          },
          {
            "duration": 0.08571424999999877,
            "durationTicks": 96,
            "midi": 39,
            "name": "D#2",
            "ticks": 35328,
            "time": 31.542844000000002,
            "velocity": 0.23622047244094488
          },
          {
            "duration": 0.08571425000000232,
            "durationTicks": 96,
            "midi": 89,
            "name": "F6",
            "ticks": 35424,
            "time": 31.62855825,
            "velocity": 0.23622047244094488
          },
          {
            "duration": 0.08571424999999877,
            "durationTicks": 96,
            "midi": 94,
            "name": "A#6",
            "ticks": 35520,
            "time": 31.714272500000003,
            "velocity": 0.23622047244094488
          },
          {
            "duration": 0.08571424999999877,
            "durationTicks": 96,
            "midi": 82,
            "name": "A#5",
            "ticks": 35520,
            "time": 31.714272500000003,
            "velocity": 0.23622047244094488
          },
          {
            "duration": 0.08571424999999877,
            "durationTicks": 96,
            "midi": 77,
            "name": "F5",
            "ticks": 35520,
            "time": 31.714272500000003,
            "velocity": 0.23622047244094488
          },
          {
            "duration": 0.08571424999999877,
            "durationTicks": 96,
            "midi": 41,
            "name": "F2",
            "ticks": 35520,
            "time": 31.714272500000003,
            "velocity": 0.23622047244094488
          },
          {
            "duration": 0.08571425000000232,
            "durationTicks": 96,
            "midi": 94,
            "name": "A#6",
            "ticks": 35712,
            "time": 31.885701,
            "velocity": 0.23622047244094488
          },
          {
            "duration": 0.08571425000000232,
            "durationTicks": 96,
            "midi": 57,
            "name": "A3",
            "ticks": 35712,
            "time": 31.885701,
            "velocity": 0.23622047244094488
          },
          {
            "duration": 0.08571425000000232,
            "durationTicks": 96,
            "midi": 44,
            "name": "G#2",
            "ticks": 35712,
            "time": 31.885701,
            "velocity": 0.23622047244094488
          },
          {
            "duration": 0.08571425000000232,
            "durationTicks": 96,
            "midi": 79,
            "name": "G5",
            "ticks": 35904,
            "time": 32.0571295,
            "velocity": 0.23622047244094488
          },
          {
            "duration": 0.08571425000000232,
            "durationTicks": 96,
            "midi": 95,
            "name": "B6",
            "ticks": 35904,
            "time": 32.0571295,
            "velocity": 0.23622047244094488
          },
          {
            "duration": 0.08571425000000232,
            "durationTicks": 96,
            "midi": 39,
            "name": "D#2",
            "ticks": 35904,
            "time": 32.0571295,
            "velocity": 0.23622047244094488
          },
          {
            "duration": 0.08571425000000232,
            "durationTicks": 96,
            "midi": 83,
            "name": "B5",
            "ticks": 35904,
            "time": 32.0571295,
            "velocity": 0.23622047244094488
          },
          {
            "duration": 0.08571425000000232,
            "durationTicks": 96,
            "midi": 81,
            "name": "A5",
            "ticks": 36096,
            "time": 32.228558,
            "velocity": 0.23622047244094488
          },
          {
            "duration": 0.08571425000000232,
            "durationTicks": 96,
            "midi": 84,
            "name": "C6",
            "ticks": 36096,
            "time": 32.228558,
            "velocity": 0.23622047244094488
          },
          {
            "duration": 0.08571425000000232,
            "durationTicks": 96,
            "midi": 57,
            "name": "A3",
            "ticks": 36096,
            "time": 32.228558,
            "velocity": 0.23622047244094488
          },
          {
            "duration": 0.08571425000000232,
            "durationTicks": 96,
            "midi": 44,
            "name": "G#2",
            "ticks": 36096,
            "time": 32.228558,
            "velocity": 0.23622047244094488
          },
          {
            "duration": 0.08571425000000232,
            "durationTicks": 96,
            "midi": 84,
            "name": "C6",
            "ticks": 36096,
            "time": 32.228558,
            "velocity": 0.23622047244094488
          },
          {
            "duration": 0.08571424999999522,
            "durationTicks": 96,
            "midi": 39,
            "name": "D#2",
            "ticks": 36288,
            "time": 32.399986500000004,
            "velocity": 0.23622047244094488
          },
          {
            "duration": 0.08571425000000232,
            "durationTicks": 96,
            "midi": 81,
            "name": "A5",
            "ticks": 36384,
            "time": 32.48570075,
            "velocity": 0.23622047244094488
          },
          {
            "duration": 0.08571425000000232,
            "durationTicks": 96,
            "midi": 84,
            "name": "C6",
            "ticks": 36384,
            "time": 32.48570075,
            "velocity": 0.23622047244094488
          },
          {
            "duration": 0.08571425000000232,
            "durationTicks": 96,
            "midi": 44,
            "name": "G#2",
            "ticks": 36480,
            "time": 32.571415,
            "velocity": 0.23622047244094488
          },
          {
            "duration": 0.08571425000000232,
            "durationTicks": 96,
            "midi": 57,
            "name": "A3",
            "ticks": 36480,
            "time": 32.571415,
            "velocity": 0.23622047244094488
          },
          {
            "duration": 0.08571425000000232,
            "durationTicks": 96,
            "midi": 84,
            "name": "C6",
            "ticks": 36672,
            "time": 32.7428435,
            "velocity": 0.23622047244094488
          },
          {
            "duration": 0.08571425000000232,
            "durationTicks": 96,
            "midi": 81,
            "name": "A5",
            "ticks": 36672,
            "time": 32.7428435,
            "velocity": 0.23622047244094488
          },
          {
            "duration": 0.08571425000000232,
            "durationTicks": 96,
            "midi": 41,
            "name": "F2",
            "ticks": 36672,
            "time": 32.7428435,
            "velocity": 0.23622047244094488
          },
          {
            "duration": 0.08571424999999522,
            "durationTicks": 96,
            "midi": 57,
            "name": "A3",
            "ticks": 36864,
            "time": 32.914272000000004,
            "velocity": 0.23622047244094488
          },
          {
            "duration": 0.08571424999999522,
            "durationTicks": 96,
            "midi": 81,
            "name": "A5",
            "ticks": 36864,
            "time": 32.914272000000004,
            "velocity": 0.23622047244094488
          },
          {
            "duration": 0.08571424999999522,
            "durationTicks": 96,
            "midi": 39,
            "name": "D#2",
            "ticks": 36864,
            "time": 32.914272000000004,
            "velocity": 0.23622047244094488
          },
          {
            "duration": 0.08571424999999522,
            "durationTicks": 96,
            "midi": 70,
            "name": "A#4",
            "ticks": 36864,
            "time": 32.914272000000004,
            "velocity": 0.23622047244094488
          },
          {
            "duration": 0.08571425000000232,
            "durationTicks": 96,
            "midi": 89,
            "name": "F6",
            "ticks": 37056,
            "time": 33.0857005,
            "velocity": 0.23622047244094488
          },
          {
            "duration": 0.08571425000000232,
            "durationTicks": 96,
            "midi": 77,
            "name": "F5",
            "ticks": 37056,
            "time": 33.0857005,
            "velocity": 0.23622047244094488
          },
          {
            "duration": 0.08571425000000232,
            "durationTicks": 96,
            "midi": 41,
            "name": "F2",
            "ticks": 37056,
            "time": 33.0857005,
            "velocity": 0.23622047244094488
          },
          {
            "duration": 0.08571425000000232,
            "durationTicks": 96,
            "midi": 74,
            "name": "D5",
            "ticks": 37056,
            "time": 33.0857005,
            "velocity": 0.23622047244094488
          },
          {
            "duration": 0.08571425000000232,
            "durationTicks": 96,
            "midi": 88,
            "name": "E6",
            "ticks": 37248,
            "time": 33.257129,
            "velocity": 0.23622047244094488
          },
          {
            "duration": 0.08571425000000232,
            "durationTicks": 96,
            "midi": 44,
            "name": "G#2",
            "ticks": 37248,
            "time": 33.257129,
            "velocity": 0.23622047244094488
          },
          {
            "duration": 0.08571425000000232,
            "durationTicks": 96,
            "midi": 89,
            "name": "F6",
            "ticks": 37344,
            "time": 33.34284325,
            "velocity": 0.23622047244094488
          },
          {
            "duration": 0.08571424999999522,
            "durationTicks": 96,
            "midi": 39,
            "name": "D#2",
            "ticks": 37440,
            "time": 33.428557500000004,
            "velocity": 0.23622047244094488
          },
          {
            "duration": 0.08571424999999522,
            "durationTicks": 96,
            "midi": 74,
            "name": "D5",
            "ticks": 37440,
            "time": 33.428557500000004,
            "velocity": 0.23622047244094488
          },
          {
            "duration": 0.08571424999999522,
            "durationTicks": 96,
            "midi": 77,
            "name": "F5",
            "ticks": 37440,
            "time": 33.428557500000004,
            "velocity": 0.23622047244094488
          },
          {
            "duration": 0.08571424999999522,
            "durationTicks": 96,
            "midi": 88,
            "name": "E6",
            "ticks": 37440,
            "time": 33.428557500000004,
            "velocity": 0.23622047244094488
          },
          {
            "duration": 0.08571425000000232,
            "durationTicks": 96,
            "midi": 72,
            "name": "C5",
            "ticks": 37632,
            "time": 33.599986,
            "velocity": 0.23622047244094488
          },
          {
            "duration": 0.08571425000000232,
            "durationTicks": 96,
            "midi": 91,
            "name": "G6",
            "ticks": 37632,
            "time": 33.599986,
            "velocity": 0.23622047244094488
          },
          {
            "duration": 0.08571425000000232,
            "durationTicks": 96,
            "midi": 76,
            "name": "E5",
            "ticks": 37824,
            "time": 33.7714145,
            "velocity": 0.23622047244094488
          },
          {
            "duration": 0.08571425000000232,
            "durationTicks": 96,
            "midi": 89,
            "name": "F6",
            "ticks": 37824,
            "time": 33.7714145,
            "velocity": 0.23622047244094488
          },
          {
            "duration": 0.08571425000000232,
            "durationTicks": 96,
            "midi": 79,
            "name": "G5",
            "ticks": 37824,
            "time": 33.7714145,
            "velocity": 0.23622047244094488
          },
          {
            "duration": 0.08571425000000232,
            "durationTicks": 96,
            "midi": 39,
            "name": "D#2",
            "ticks": 37824,
            "time": 33.7714145,
            "velocity": 0.23622047244094488
          },
          {
            "duration": 0.08571425000000232,
            "durationTicks": 96,
            "midi": 88,
            "name": "E6",
            "ticks": 38016,
            "time": 33.942843,
            "velocity": 0.23622047244094488
          },
          {
            "duration": 0.08571425000000232,
            "durationTicks": 96,
            "midi": 44,
            "name": "G#2",
            "ticks": 38016,
            "time": 33.942843,
            "velocity": 0.23622047244094488
          },
          {
            "duration": 0.08571424999999522,
            "durationTicks": 96,
            "midi": 89,
            "name": "F6",
            "ticks": 38112,
            "time": 34.028557250000006,
            "velocity": 0.23622047244094488
          },
          {
            "duration": 0.08571425000000232,
            "durationTicks": 96,
            "midi": 79,
            "name": "G5",
            "ticks": 38208,
            "time": 34.1142715,
            "velocity": 0.23622047244094488
          },
          {
            "duration": 0.08571425000000232,
            "durationTicks": 96,
            "midi": 76,
            "name": "E5",
            "ticks": 38208,
            "time": 34.1142715,
            "velocity": 0.23622047244094488
          },
          {
            "duration": 0.08571425000000232,
            "durationTicks": 96,
            "midi": 88,
            "name": "E6",
            "ticks": 38208,
            "time": 34.1142715,
            "velocity": 0.23622047244094488
          },
          {
            "duration": 0.08571425000000232,
            "durationTicks": 96,
            "midi": 41,
            "name": "F2",
            "ticks": 38208,
            "time": 34.1142715,
            "velocity": 0.23622047244094488
          },
          {
            "duration": 0.08571425000000232,
            "durationTicks": 96,
            "midi": 84,
            "name": "C6",
            "ticks": 38304,
            "time": 34.19998575,
            "velocity": 0.23622047244094488
          },
          {
            "duration": 0.08571424999999522,
            "durationTicks": 96,
            "midi": 39,
            "name": "D#2",
            "ticks": 38400,
            "time": 34.285700000000006,
            "velocity": 0.23622047244094488
          },
          {
            "duration": 0.08571424999999522,
            "durationTicks": 96,
            "midi": 74,
            "name": "D5",
            "ticks": 38400,
            "time": 34.285700000000006,
            "velocity": 0.23622047244094488
          },
          {
            "duration": 0.08571424999999522,
            "durationTicks": 96,
            "midi": 86,
            "name": "D6",
            "ticks": 38400,
            "time": 34.285700000000006,
            "velocity": 0.23622047244094488
          },
          {
            "duration": 0.08571425000000232,
            "durationTicks": 96,
            "midi": 77,
            "name": "F5",
            "ticks": 38592,
            "time": 34.4571285,
            "velocity": 0.23622047244094488
          },
          {
            "duration": 0.08571425000000232,
            "durationTicks": 96,
            "midi": 81,
            "name": "A5",
            "ticks": 38592,
            "time": 34.4571285,
            "velocity": 0.23622047244094488
          },
          {
            "duration": 0.08571425000000232,
            "durationTicks": 96,
            "midi": 41,
            "name": "F2",
            "ticks": 38592,
            "time": 34.4571285,
            "velocity": 0.23622047244094488
          },
          {
            "duration": 0.08571425000000232,
            "durationTicks": 96,
            "midi": 93,
            "name": "A6",
            "ticks": 38592,
            "time": 34.4571285,
            "velocity": 0.23622047244094488
          },
          {
            "duration": 0.08571425000000232,
            "durationTicks": 96,
            "midi": 44,
            "name": "G#2",
            "ticks": 38784,
            "time": 34.628557,
            "velocity": 0.23622047244094488
          },
          {
            "duration": 0.08571425000000232,
            "durationTicks": 96,
            "midi": 91,
            "name": "G6",
            "ticks": 38784,
            "time": 34.628557,
            "velocity": 0.23622047244094488
          },
          {
            "duration": 0.08571425000000232,
            "durationTicks": 96,
            "midi": 93,
            "name": "A6",
            "ticks": 38880,
            "time": 34.71427125,
            "velocity": 0.23622047244094488
          },
          {
            "duration": 0.08571424999999522,
            "durationTicks": 96,
            "midi": 91,
            "name": "G6",
            "ticks": 38976,
            "time": 34.799985500000005,
            "velocity": 0.23622047244094488
          },
          {
            "duration": 0.08571424999999522,
            "durationTicks": 96,
            "midi": 39,
            "name": "D#2",
            "ticks": 38976,
            "time": 34.799985500000005,
            "velocity": 0.23622047244094488
          },
          {
            "duration": 0.08571424999999522,
            "durationTicks": 96,
            "midi": 81,
            "name": "A5",
            "ticks": 38976,
            "time": 34.799985500000005,
            "velocity": 0.23622047244094488
          },
          {
            "duration": 0.08571424999999522,
            "durationTicks": 96,
            "midi": 77,
            "name": "F5",
            "ticks": 38976,
            "time": 34.799985500000005,
            "velocity": 0.23622047244094488
          },
          {
            "duration": 0.08571425000000232,
            "durationTicks": 96,
            "midi": 93,
            "name": "A6",
            "ticks": 39072,
            "time": 34.88569975,
            "velocity": 0.23622047244094488
          },
          {
            "duration": 0.08571425000000232,
            "durationTicks": 96,
            "midi": 84,
            "name": "C6",
            "ticks": 39168,
            "time": 34.971414,
            "velocity": 0.23622047244094488
          },
          {
            "duration": 0.08571425000000232,
            "durationTicks": 96,
            "midi": 74,
            "name": "D5",
            "ticks": 39168,
            "time": 34.971414,
            "velocity": 0.23622047244094488
          },
          {
            "duration": 0.08571425000000232,
            "durationTicks": 96,
            "midi": 39,
            "name": "D#2",
            "ticks": 39360,
            "time": 35.1428425,
            "velocity": 0.23622047244094488
          },
          {
            "duration": 0.08571425000000232,
            "durationTicks": 96,
            "midi": 77,
            "name": "F5",
            "ticks": 39360,
            "time": 35.1428425,
            "velocity": 0.23622047244094488
          },
          {
            "duration": 0.08571425000000232,
            "durationTicks": 96,
            "midi": 93,
            "name": "A6",
            "ticks": 39360,
            "time": 35.1428425,
            "velocity": 0.23622047244094488
          },
          {
            "duration": 0.08571425000000232,
            "durationTicks": 96,
            "midi": 81,
            "name": "A5",
            "ticks": 39360,
            "time": 35.1428425,
            "velocity": 0.23622047244094488
          },
          {
            "duration": 0.08571424999999522,
            "durationTicks": 96,
            "midi": 44,
            "name": "G#2",
            "ticks": 39552,
            "time": 35.314271000000005,
            "velocity": 0.23622047244094488
          },
          {
            "duration": 0.08571424999999522,
            "durationTicks": 96,
            "midi": 91,
            "name": "G6",
            "ticks": 39552,
            "time": 35.314271000000005,
            "velocity": 0.23622047244094488
          },
          {
            "duration": 0.08571425000000232,
            "durationTicks": 96,
            "midi": 77,
            "name": "F5",
            "ticks": 39744,
            "time": 35.4856995,
            "velocity": 0.23622047244094488
          },
          {
            "duration": 0.08571425000000232,
            "durationTicks": 96,
            "midi": 93,
            "name": "A6",
            "ticks": 39744,
            "time": 35.4856995,
            "velocity": 0.23622047244094488
          },
          {
            "duration": 0.08571425000000232,
            "durationTicks": 96,
            "midi": 41,
            "name": "F2",
            "ticks": 39744,
            "time": 35.4856995,
            "velocity": 0.23622047244094488
          },
          {
            "duration": 0.08571425000000232,
            "durationTicks": 96,
            "midi": 81,
            "name": "A5",
            "ticks": 39744,
            "time": 35.4856995,
            "velocity": 0.23622047244094488
          },
          {
            "duration": 0.08571425000000232,
            "durationTicks": 96,
            "midi": 57,
            "name": "A3",
            "ticks": 39936,
            "time": 35.657128,
            "velocity": 0.23622047244094488
          },
          {
            "duration": 0.08571425000000232,
            "durationTicks": 96,
            "midi": 82,
            "name": "A#5",
            "ticks": 39936,
            "time": 35.657128,
            "velocity": 0.23622047244094488
          },
          {
            "duration": 0.08571425000000232,
            "durationTicks": 96,
            "midi": 39,
            "name": "D#2",
            "ticks": 39936,
            "time": 35.657128,
            "velocity": 0.23622047244094488
          },
          {
            "duration": 0.08571425000000232,
            "durationTicks": 96,
            "midi": 70,
            "name": "A#4",
            "ticks": 39936,
            "time": 35.657128,
            "velocity": 0.23622047244094488
          },
          {
            "duration": 0.08571424999999522,
            "durationTicks": 96,
            "midi": 74,
            "name": "D5",
            "ticks": 40128,
            "time": 35.828556500000005,
            "velocity": 0.23622047244094488
          },
          {
            "duration": 0.08571424999999522,
            "durationTicks": 96,
            "midi": 89,
            "name": "F6",
            "ticks": 40128,
            "time": 35.828556500000005,
            "velocity": 0.23622047244094488
          },
          {
            "duration": 0.08571424999999522,
            "durationTicks": 96,
            "midi": 77,
            "name": "F5",
            "ticks": 40128,
            "time": 35.828556500000005,
            "velocity": 0.23622047244094488
          },
          {
            "duration": 0.08571424999999522,
            "durationTicks": 96,
            "midi": 41,
            "name": "F2",
            "ticks": 40128,
            "time": 35.828556500000005,
            "velocity": 0.23622047244094488
          },
          {
            "duration": 0.08571425000000232,
            "durationTicks": 96,
            "midi": 88,
            "name": "E6",
            "ticks": 40320,
            "time": 35.999985,
            "velocity": 0.23622047244094488
          },
          {
            "duration": 0.08571425000000232,
            "durationTicks": 96,
            "midi": 44,
            "name": "G#2",
            "ticks": 40320,
            "time": 35.999985,
            "velocity": 0.23622047244094488
          },
          {
            "duration": 0.08571424999999522,
            "durationTicks": 96,
            "midi": 89,
            "name": "F6",
            "ticks": 40416,
            "time": 36.085699250000005,
            "velocity": 0.23622047244094488
          },
          {
            "duration": 0.08571425000000232,
            "durationTicks": 96,
            "midi": 77,
            "name": "F5",
            "ticks": 40512,
            "time": 36.1714135,
            "velocity": 0.23622047244094488
          },
          {
            "duration": 0.08571425000000232,
            "durationTicks": 96,
            "midi": 74,
            "name": "D5",
            "ticks": 40512,
            "time": 36.1714135,
            "velocity": 0.23622047244094488
          },
          {
            "duration": 0.08571425000000232,
            "durationTicks": 96,
            "midi": 88,
            "name": "E6",
            "ticks": 40512,
            "time": 36.1714135,
            "velocity": 0.23622047244094488
          },
          {
            "duration": 0.08571425000000232,
            "durationTicks": 96,
            "midi": 39,
            "name": "D#2",
            "ticks": 40512,
            "time": 36.1714135,
            "velocity": 0.23622047244094488
          },
          {
            "duration": 0.08571424999999522,
            "durationTicks": 96,
            "midi": 91,
            "name": "G6",
            "ticks": 40704,
            "time": 36.342842000000005,
            "velocity": 0.23622047244094488
          },
          {
            "duration": 0.08571424999999522,
            "durationTicks": 96,
            "midi": 72,
            "name": "C5",
            "ticks": 40704,
            "time": 36.342842000000005,
            "velocity": 0.23622047244094488
          },
          {
            "duration": 0.08571425000000232,
            "durationTicks": 96,
            "midi": 89,
            "name": "F6",
            "ticks": 40896,
            "time": 36.5142705,
            "velocity": 0.23622047244094488
          },
          {
            "duration": 0.08571425000000232,
            "durationTicks": 96,
            "midi": 39,
            "name": "D#2",
            "ticks": 40896,
            "time": 36.5142705,
            "velocity": 0.23622047244094488
          },
          {
            "duration": 0.08571425000000232,
            "durationTicks": 96,
            "midi": 76,
            "name": "E5",
            "ticks": 40896,
            "time": 36.5142705,
            "velocity": 0.23622047244094488
          },
          {
            "duration": 0.08571425000000232,
            "durationTicks": 96,
            "midi": 79,
            "name": "G5",
            "ticks": 40896,
            "time": 36.5142705,
            "velocity": 0.23622047244094488
          },
          {
            "duration": 0.08571425000000232,
            "durationTicks": 96,
            "midi": 88,
            "name": "E6",
            "ticks": 41088,
            "time": 36.685699,
            "velocity": 0.23622047244094488
          },
          {
            "duration": 0.08571425000000232,
            "durationTicks": 96,
            "midi": 44,
            "name": "G#2",
            "ticks": 41088,
            "time": 36.685699,
            "velocity": 0.23622047244094488
          },
          {
            "duration": 0.08571425000000232,
            "durationTicks": 96,
            "midi": 89,
            "name": "F6",
            "ticks": 41184,
            "time": 36.77141325,
            "velocity": 0.23622047244094488
          },
          {
            "duration": 0.08571424999999522,
            "durationTicks": 96,
            "midi": 79,
            "name": "G5",
            "ticks": 41280,
            "time": 36.857127500000004,
            "velocity": 0.23622047244094488
          },
          {
            "duration": 0.08571424999999522,
            "durationTicks": 96,
            "midi": 41,
            "name": "F2",
            "ticks": 41280,
            "time": 36.857127500000004,
            "velocity": 0.23622047244094488
          },
          {
            "duration": 0.08571424999999522,
            "durationTicks": 96,
            "midi": 76,
            "name": "E5",
            "ticks": 41280,
            "time": 36.857127500000004,
            "velocity": 0.23622047244094488
          },
          {
            "duration": 0.08571424999999522,
            "durationTicks": 96,
            "midi": 88,
            "name": "E6",
            "ticks": 41280,
            "time": 36.857127500000004,
            "velocity": 0.23622047244094488
          },
          {
            "duration": 0.08571425000000232,
            "durationTicks": 96,
            "midi": 84,
            "name": "C6",
            "ticks": 41376,
            "time": 36.94284175,
            "velocity": 0.23622047244094488
          },
          {
            "duration": 0.08571425000000232,
            "durationTicks": 96,
            "midi": 39,
            "name": "D#2",
            "ticks": 41472,
            "time": 37.028556,
            "velocity": 0.23622047244094488
          },
          {
            "duration": 0.08571425000000232,
            "durationTicks": 96,
            "midi": 57,
            "name": "A3",
            "ticks": 41472,
            "time": 37.028556,
            "velocity": 0.23622047244094488
          },
          {
            "duration": 0.08571425000000232,
            "durationTicks": 96,
            "midi": 74,
            "name": "D5",
            "ticks": 41472,
            "time": 37.028556,
            "velocity": 0.23622047244094488
          },
          {
            "duration": 0.08571425000000232,
            "durationTicks": 96,
            "midi": 86,
            "name": "D6",
            "ticks": 41472,
            "time": 37.028556,
            "velocity": 0.23622047244094488
          },
          {
            "duration": 0.08571425000000232,
            "durationTicks": 96,
            "midi": 41,
            "name": "F2",
            "ticks": 41664,
            "time": 37.1999845,
            "velocity": 0.23622047244094488
          },
          {
            "duration": 0.08571425000000232,
            "durationTicks": 96,
            "midi": 93,
            "name": "A6",
            "ticks": 41664,
            "time": 37.1999845,
            "velocity": 0.23622047244094488
          },
          {
            "duration": 0.08571425000000232,
            "durationTicks": 96,
            "midi": 77,
            "name": "F5",
            "ticks": 41664,
            "time": 37.1999845,
            "velocity": 0.23622047244094488
          },
          {
            "duration": 0.08571425000000232,
            "durationTicks": 96,
            "midi": 81,
            "name": "A5",
            "ticks": 41664,
            "time": 37.1999845,
            "velocity": 0.23622047244094488
          },
          {
            "duration": 0.08571424999999522,
            "durationTicks": 96,
            "midi": 74,
            "name": "D5",
            "ticks": 41856,
            "time": 37.371413000000004,
            "velocity": 0.23622047244094488
          },
          {
            "duration": 0.08571424999999522,
            "durationTicks": 96,
            "midi": 44,
            "name": "G#2",
            "ticks": 41856,
            "time": 37.371413000000004,
            "velocity": 0.23622047244094488
          },
          {
            "duration": 0.08571424999999522,
            "durationTicks": 96,
            "midi": 91,
            "name": "G6",
            "ticks": 41856,
            "time": 37.371413000000004,
            "velocity": 0.23622047244094488
          },
          {
            "duration": 0.08571425000000232,
            "durationTicks": 96,
            "midi": 93,
            "name": "A6",
            "ticks": 41952,
            "time": 37.45712725,
            "velocity": 0.23622047244094488
          },
          {
            "duration": 0.08571425000000232,
            "durationTicks": 96,
            "midi": 39,
            "name": "D#2",
            "ticks": 42048,
            "time": 37.5428415,
            "velocity": 0.23622047244094488
          },
          {
            "duration": 0.08571425000000232,
            "durationTicks": 96,
            "midi": 79,
            "name": "G5",
            "ticks": 42048,
            "time": 37.5428415,
            "velocity": 0.23622047244094488
          },
          {
            "duration": 0.08571425000000232,
            "durationTicks": 96,
            "midi": 91,
            "name": "G6",
            "ticks": 42048,
            "time": 37.5428415,
            "velocity": 0.23622047244094488
          },
          {
            "duration": 0.08571425000000232,
            "durationTicks": 96,
            "midi": 84,
            "name": "C6",
            "ticks": 42048,
            "time": 37.5428415,
            "velocity": 0.23622047244094488
          },
          {
            "duration": 0.08571424999999522,
            "durationTicks": 96,
            "midi": 93,
            "name": "A6",
            "ticks": 42144,
            "time": 37.628555750000004,
            "velocity": 0.23622047244094488
          },
          {
            "duration": 0.08571425000000232,
            "durationTicks": 96,
            "midi": 57,
            "name": "A3",
            "ticks": 42240,
            "time": 37.71427,
            "velocity": 0.23622047244094488
          },
          {
            "duration": 0.08571425000000232,
            "durationTicks": 96,
            "midi": 85,
            "name": "C#6",
            "ticks": 42240,
            "time": 37.71427,
            "velocity": 0.23622047244094488
          },
          {
            "duration": 0.08571425000000232,
            "durationTicks": 96,
            "midi": 44,
            "name": "G#2",
            "ticks": 42240,
            "time": 37.71427,
            "velocity": 0.23622047244094488
          },
          {
            "duration": 0.08571425000000232,
            "durationTicks": 96,
            "midi": 74,
            "name": "D5",
            "ticks": 42240,
            "time": 37.71427,
            "velocity": 0.23622047244094488
          },
          {
            "duration": 0.08571425000000232,
            "durationTicks": 96,
            "midi": 39,
            "name": "D#2",
            "ticks": 42432,
            "time": 37.885698500000004,
            "velocity": 0.23622047244094488
          },
          {
            "duration": 0.08571425000000232,
            "durationTicks": 96,
            "midi": 81,
            "name": "A5",
            "ticks": 42432,
            "time": 37.885698500000004,
            "velocity": 0.23622047244094488
          },
          {
            "duration": 0.08571425000000232,
            "durationTicks": 96,
            "midi": 93,
            "name": "A6",
            "ticks": 42432,
            "time": 37.885698500000004,
            "velocity": 0.23622047244094488
          },
          {
            "duration": 0.08571425000000232,
            "durationTicks": 96,
            "midi": 86,
            "name": "D6",
            "ticks": 42432,
            "time": 37.885698500000004,
            "velocity": 0.23622047244094488
          },
          {
            "duration": 0.08571425000000232,
            "durationTicks": 96,
            "midi": 44,
            "name": "G#2",
            "ticks": 42624,
            "time": 38.057127,
            "velocity": 0.23622047244094488
          },
          {
            "duration": 0.08571425000000232,
            "durationTicks": 96,
            "midi": 91,
            "name": "G6",
            "ticks": 42624,
            "time": 38.057127,
            "velocity": 0.23622047244094488
          },
          {
            "duration": 0.08571425000000232,
            "durationTicks": 96,
            "midi": 74,
            "name": "D5",
            "ticks": 42624,
            "time": 38.057127,
            "velocity": 0.23622047244094488
          },
          {
            "duration": 0.08571424999999522,
            "durationTicks": 96,
            "midi": 93,
            "name": "A6",
            "ticks": 42816,
            "time": 38.228555500000006,
            "velocity": 0.23622047244094488
          },
          {
            "duration": 0.08571424999999522,
            "durationTicks": 96,
            "midi": 41,
            "name": "F2",
            "ticks": 42816,
            "time": 38.228555500000006,
            "velocity": 0.23622047244094488
          },
          {
            "duration": 0.08571424999999522,
            "durationTicks": 96,
            "midi": 81,
            "name": "A5",
            "ticks": 42816,
            "time": 38.228555500000006,
            "velocity": 0.23622047244094488
          },
          {
            "duration": 0.08571424999999522,
            "durationTicks": 96,
            "midi": 77,
            "name": "F5",
            "ticks": 42816,
            "time": 38.228555500000006,
            "velocity": 0.23622047244094488
          },
          {
            "duration": 0.08571425000000232,
            "durationTicks": 96,
            "midi": 81,
            "name": "A5",
            "ticks": 43008,
            "time": 38.399984,
            "velocity": 0.23622047244094488
          },
          {
            "duration": 0.08571425000000232,
            "durationTicks": 96,
            "midi": 57,
            "name": "A3",
            "ticks": 43008,
            "time": 38.399984,
            "velocity": 0.23622047244094488
          },
          {
            "duration": 0.08571425000000232,
            "durationTicks": 96,
            "midi": 39,
            "name": "D#2",
            "ticks": 43008,
            "time": 38.399984,
            "velocity": 0.23622047244094488
          },
          {
            "duration": 0.08571425000000232,
            "durationTicks": 96,
            "midi": 70,
            "name": "A#4",
            "ticks": 43008,
            "time": 38.399984,
            "velocity": 0.23622047244094488
          },
          {
            "duration": 0.08571425000000232,
            "durationTicks": 96,
            "midi": 89,
            "name": "F6",
            "ticks": 43200,
            "time": 38.5714125,
            "velocity": 0.23622047244094488
          },
          {
            "duration": 0.08571425000000232,
            "durationTicks": 96,
            "midi": 41,
            "name": "F2",
            "ticks": 43200,
            "time": 38.5714125,
            "velocity": 0.23622047244094488
          },
          {
            "duration": 0.08571425000000232,
            "durationTicks": 96,
            "midi": 77,
            "name": "F5",
            "ticks": 43200,
            "time": 38.5714125,
            "velocity": 0.23622047244094488
          },
          {
            "duration": 0.08571425000000232,
            "durationTicks": 96,
            "midi": 74,
            "name": "D5",
            "ticks": 43200,
            "time": 38.5714125,
            "velocity": 0.23622047244094488
          },
          {
            "duration": 0.08571424999999522,
            "durationTicks": 96,
            "midi": 44,
            "name": "G#2",
            "ticks": 43392,
            "time": 38.742841000000006,
            "velocity": 0.23622047244094488
          },
          {
            "duration": 0.08571424999999522,
            "durationTicks": 96,
            "midi": 88,
            "name": "E6",
            "ticks": 43392,
            "time": 38.742841000000006,
            "velocity": 0.23622047244094488
          },
          {
            "duration": 0.08571425000000232,
            "durationTicks": 96,
            "midi": 89,
            "name": "F6",
            "ticks": 43488,
            "time": 38.82855525,
            "velocity": 0.23622047244094488
          },
          {
            "duration": 0.08571425000000232,
            "durationTicks": 96,
            "midi": 39,
            "name": "D#2",
            "ticks": 43584,
            "time": 38.9142695,
            "velocity": 0.23622047244094488
          },
          {
            "duration": 0.08571425000000232,
            "durationTicks": 96,
            "midi": 74,
            "name": "D5",
            "ticks": 43584,
            "time": 38.9142695,
            "velocity": 0.23622047244094488
          },
          {
            "duration": 0.08571425000000232,
            "durationTicks": 96,
            "midi": 77,
            "name": "F5",
            "ticks": 43584,
            "time": 38.9142695,
            "velocity": 0.23622047244094488
          },
          {
            "duration": 0.08571425000000232,
            "durationTicks": 96,
            "midi": 88,
            "name": "E6",
            "ticks": 43584,
            "time": 38.9142695,
            "velocity": 0.23622047244094488
          },
          {
            "duration": 0.08571425000000232,
            "durationTicks": 96,
            "midi": 91,
            "name": "G6",
            "ticks": 43776,
            "time": 39.085698,
            "velocity": 0.23622047244094488
          },
          {
            "duration": 0.08571425000000232,
            "durationTicks": 96,
            "midi": 72,
            "name": "C5",
            "ticks": 43776,
            "time": 39.085698,
            "velocity": 0.23622047244094488
          },
          {
            "duration": 0.08571424999999522,
            "durationTicks": 96,
            "midi": 89,
            "name": "F6",
            "ticks": 43968,
            "time": 39.257126500000005,
            "velocity": 0.23622047244094488
          },
          {
            "duration": 0.08571424999999522,
            "durationTicks": 96,
            "midi": 79,
            "name": "G5",
            "ticks": 43968,
            "time": 39.257126500000005,
            "velocity": 0.23622047244094488
          },
          {
            "duration": 0.08571424999999522,
            "durationTicks": 96,
            "midi": 76,
            "name": "E5",
            "ticks": 43968,
            "time": 39.257126500000005,
            "velocity": 0.23622047244094488
          },
          {
            "duration": 0.08571424999999522,
            "durationTicks": 96,
            "midi": 39,
            "name": "D#2",
            "ticks": 43968,
            "time": 39.257126500000005,
            "velocity": 0.23622047244094488
          },
          {
            "duration": 0.08571425000000232,
            "durationTicks": 96,
            "midi": 88,
            "name": "E6",
            "ticks": 44160,
            "time": 39.428555,
            "velocity": 0.23622047244094488
          },
          {
            "duration": 0.08571425000000232,
            "durationTicks": 96,
            "midi": 44,
            "name": "G#2",
            "ticks": 44160,
            "time": 39.428555,
            "velocity": 0.23622047244094488
          },
          {
            "duration": 0.08571424999999522,
            "durationTicks": 96,
            "midi": 89,
            "name": "F6",
            "ticks": 44256,
            "time": 39.514269250000005,
            "velocity": 0.23622047244094488
          },
          {
            "duration": 0.08571425000000232,
            "durationTicks": 96,
            "midi": 88,
            "name": "E6",
            "ticks": 44352,
            "time": 39.5999835,
            "velocity": 0.23622047244094488
          },
          {
            "duration": 0.08571425000000232,
            "durationTicks": 96,
            "midi": 41,
            "name": "F2",
            "ticks": 44352,
            "time": 39.5999835,
            "velocity": 0.23622047244094488
          },
          {
            "duration": 0.08571425000000232,
            "durationTicks": 96,
            "midi": 79,
            "name": "G5",
            "ticks": 44352,
            "time": 39.5999835,
            "velocity": 0.23622047244094488
          },
          {
            "duration": 0.08571425000000232,
            "durationTicks": 96,
            "midi": 76,
            "name": "E5",
            "ticks": 44352,
            "time": 39.5999835,
            "velocity": 0.23622047244094488
          },
          {
            "duration": 0.08571425000000232,
            "durationTicks": 96,
            "midi": 84,
            "name": "C6",
            "ticks": 44448,
            "time": 39.68569775,
            "velocity": 0.23622047244094488
          },
          {
            "duration": 0.08571424999999522,
            "durationTicks": 96,
            "midi": 39,
            "name": "D#2",
            "ticks": 44544,
            "time": 39.771412000000005,
            "velocity": 0.23622047244094488
          },
          {
            "duration": 0.08571424999999522,
            "durationTicks": 96,
            "midi": 74,
            "name": "D5",
            "ticks": 44544,
            "time": 39.771412000000005,
            "velocity": 0.23622047244094488
          },
          {
            "duration": 0.08571424999999522,
            "durationTicks": 96,
            "midi": 86,
            "name": "D6",
            "ticks": 44544,
            "time": 39.771412000000005,
            "velocity": 0.23622047244094488
          },
          {
            "duration": 0.08571425000000232,
            "durationTicks": 96,
            "midi": 77,
            "name": "F5",
            "ticks": 44736,
            "time": 39.9428405,
            "velocity": 0.23622047244094488
          },
          {
            "duration": 0.08571425000000232,
            "durationTicks": 96,
            "midi": 81,
            "name": "A5",
            "ticks": 44736,
            "time": 39.9428405,
            "velocity": 0.23622047244094488
          },
          {
            "duration": 0.08571425000000232,
            "durationTicks": 96,
            "midi": 41,
            "name": "F2",
            "ticks": 44736,
            "time": 39.9428405,
            "velocity": 0.23622047244094488
          },
          {
            "duration": 0.08571425000000232,
            "durationTicks": 96,
            "midi": 93,
            "name": "A6",
            "ticks": 44736,
            "time": 39.9428405,
            "velocity": 0.23622047244094488
          },
          {
            "duration": 0.08571425000000232,
            "durationTicks": 96,
            "midi": 91,
            "name": "G6",
            "ticks": 44928,
            "time": 40.114269,
            "velocity": 0.23622047244094488
          },
          {
            "duration": 0.08571425000000232,
            "durationTicks": 96,
            "midi": 44,
            "name": "G#2",
            "ticks": 44928,
            "time": 40.114269,
            "velocity": 0.23622047244094488
          },
          {
            "duration": 0.08571425000000232,
            "durationTicks": 96,
            "midi": 93,
            "name": "A6",
            "ticks": 45024,
            "time": 40.19998325,
            "velocity": 0.23622047244094488
          },
          {
            "duration": 0.08571424999999522,
            "durationTicks": 96,
            "midi": 91,
            "name": "G6",
            "ticks": 45120,
            "time": 40.285697500000005,
            "velocity": 0.23622047244094488
          },
          {
            "duration": 0.08571424999999522,
            "durationTicks": 96,
            "midi": 77,
            "name": "F5",
            "ticks": 45120,
            "time": 40.285697500000005,
            "velocity": 0.23622047244094488
          },
          {
            "duration": 0.08571424999999522,
            "durationTicks": 96,
            "midi": 81,
            "name": "A5",
            "ticks": 45120,
            "time": 40.285697500000005,
            "velocity": 0.23622047244094488
          },
          {
            "duration": 0.08571424999999522,
            "durationTicks": 96,
            "midi": 39,
            "name": "D#2",
            "ticks": 45120,
            "time": 40.285697500000005,
            "velocity": 0.23622047244094488
          },
          {
            "duration": 0.08571425000000232,
            "durationTicks": 96,
            "midi": 93,
            "name": "A6",
            "ticks": 45216,
            "time": 40.37141175,
            "velocity": 0.23622047244094488
          },
          {
            "duration": 0.08571425000000232,
            "durationTicks": 96,
            "midi": 84,
            "name": "C6",
            "ticks": 45312,
            "time": 40.457126,
            "velocity": 0.23622047244094488
          },
          {
            "duration": 0.08571425000000232,
            "durationTicks": 96,
            "midi": 74,
            "name": "D5",
            "ticks": 45312,
            "time": 40.457126,
            "velocity": 0.23622047244094488
          },
          {
            "duration": 0.08571425000000232,
            "durationTicks": 96,
            "midi": 81,
            "name": "A5",
            "ticks": 45504,
            "time": 40.6285545,
            "velocity": 0.23622047244094488
          },
          {
            "duration": 0.08571425000000232,
            "durationTicks": 96,
            "midi": 39,
            "name": "D#2",
            "ticks": 45504,
            "time": 40.6285545,
            "velocity": 0.23622047244094488
          },
          {
            "duration": 0.08571425000000232,
            "durationTicks": 96,
            "midi": 93,
            "name": "A6",
            "ticks": 45504,
            "time": 40.6285545,
            "velocity": 0.23622047244094488
          },
          {
            "duration": 0.08571425000000232,
            "durationTicks": 96,
            "midi": 77,
            "name": "F5",
            "ticks": 45504,
            "time": 40.6285545,
            "velocity": 0.23622047244094488
          },
          {
            "duration": 0.08571425000000232,
            "durationTicks": 96,
            "midi": 84,
            "name": "C6",
            "ticks": 45600,
            "time": 40.71426875,
            "velocity": 0.23622047244094488
          },
          {
            "duration": 0.08571424999999522,
            "durationTicks": 96,
            "midi": 88,
            "name": "E6",
            "ticks": 45696,
            "time": 40.799983000000005,
            "velocity": 0.23622047244094488
          },
          {
            "duration": 0.08571424999999522,
            "durationTicks": 96,
            "midi": 44,
            "name": "G#2",
            "ticks": 45696,
            "time": 40.799983000000005,
            "velocity": 0.23622047244094488
          },
          {
            "duration": 0.08571425000000232,
            "durationTicks": 96,
            "midi": 81,
            "name": "A5",
            "ticks": 45888,
            "time": 40.9714115,
            "velocity": 0.23622047244094488
          },
          {
            "duration": 0.08571425000000232,
            "durationTicks": 96,
            "midi": 77,
            "name": "F5",
            "ticks": 45888,
            "time": 40.9714115,
            "velocity": 0.23622047244094488
          },
          {
            "duration": 0.08571425000000232,
            "durationTicks": 96,
            "midi": 41,
            "name": "F2",
            "ticks": 45888,
            "time": 40.9714115,
            "velocity": 0.23622047244094488
          },
          {
            "duration": 0.08571425000000232,
            "durationTicks": 96,
            "midi": 89,
            "name": "F6",
            "ticks": 45888,
            "time": 40.9714115,
            "velocity": 0.23622047244094488
          },
          {
            "duration": 0.08571425000000232,
            "durationTicks": 96,
            "midi": 70,
            "name": "A#4",
            "ticks": 46080,
            "time": 41.14284,
            "velocity": 0.23622047244094488
          },
          {
            "duration": 0.08571425000000232,
            "durationTicks": 96,
            "midi": 91,
            "name": "G6",
            "ticks": 46080,
            "time": 41.14284,
            "velocity": 0.23622047244094488
          },
          {
            "duration": 0.08571425000000232,
            "durationTicks": 96,
            "midi": 39,
            "name": "D#2",
            "ticks": 46080,
            "time": 41.14284,
            "velocity": 0.23622047244094488
          },
          {
            "duration": 0.08571425000000232,
            "durationTicks": 96,
            "midi": 57,
            "name": "A3",
            "ticks": 46080,
            "time": 41.14284,
            "velocity": 0.23622047244094488
          },
          {
            "duration": 0.08571424999999522,
            "durationTicks": 96,
            "midi": 86,
            "name": "D6",
            "ticks": 46272,
            "time": 41.314268500000004,
            "velocity": 0.23622047244094488
          },
          {
            "duration": 0.08571424999999522,
            "durationTicks": 96,
            "midi": 79,
            "name": "G5",
            "ticks": 46272,
            "time": 41.314268500000004,
            "velocity": 0.23622047244094488
          },
          {
            "duration": 0.08571424999999522,
            "durationTicks": 96,
            "midi": 41,
            "name": "F2",
            "ticks": 46272,
            "time": 41.314268500000004,
            "velocity": 0.23622047244094488
          },
          {
            "duration": 0.08571424999999522,
            "durationTicks": 96,
            "midi": 74,
            "name": "D5",
            "ticks": 46272,
            "time": 41.314268500000004,
            "velocity": 0.23622047244094488
          },
          {
            "duration": 0.08571425000000232,
            "durationTicks": 96,
            "midi": 91,
            "name": "G6",
            "ticks": 46368,
            "time": 41.39998275,
            "velocity": 0.23622047244094488
          },
          {
            "duration": 0.08571425000000232,
            "durationTicks": 96,
            "midi": 44,
            "name": "G#2",
            "ticks": 46464,
            "time": 41.485697,
            "velocity": 0.23622047244094488
          },
          {
            "duration": 0.08571424999999522,
            "durationTicks": 96,
            "midi": 86,
            "name": "D6",
            "ticks": 46560,
            "time": 41.571411250000004,
            "velocity": 0.23622047244094488
          },
          {
            "duration": 0.08571425000000232,
            "durationTicks": 96,
            "midi": 74,
            "name": "D5",
            "ticks": 46656,
            "time": 41.6571255,
            "velocity": 0.23622047244094488
          },
          {
            "duration": 0.08571425000000232,
            "durationTicks": 96,
            "midi": 79,
            "name": "G5",
            "ticks": 46656,
            "time": 41.6571255,
            "velocity": 0.23622047244094488
          },
          {
            "duration": 0.08571425000000232,
            "durationTicks": 96,
            "midi": 91,
            "name": "G6",
            "ticks": 46656,
            "time": 41.6571255,
            "velocity": 0.23622047244094488
          },
          {
            "duration": 0.08571425000000232,
            "durationTicks": 96,
            "midi": 39,
            "name": "D#2",
            "ticks": 46656,
            "time": 41.6571255,
            "velocity": 0.23622047244094488
          },
          {
            "duration": 0.08571425000000232,
            "durationTicks": 96,
            "midi": 77,
            "name": "F5",
            "ticks": 46848,
            "time": 41.828554000000004,
            "velocity": 0.23622047244094488
          },
          {
            "duration": 0.08571425000000232,
            "durationTicks": 96,
            "midi": 93,
            "name": "A6",
            "ticks": 46848,
            "time": 41.828554000000004,
            "velocity": 0.23622047244094488
          },
          {
            "duration": 0.08571425000000232,
            "durationTicks": 96,
            "midi": 81,
            "name": "A5",
            "ticks": 46848,
            "time": 41.828554000000004,
            "velocity": 0.23622047244094488
          },
          {
            "duration": 0.08571425000000232,
            "durationTicks": 96,
            "midi": 57,
            "name": "A3",
            "ticks": 46848,
            "time": 41.828554000000004,
            "velocity": 0.23622047244094488
          },
          {
            "duration": 0.08571425000000232,
            "durationTicks": 96,
            "midi": 79,
            "name": "G5",
            "ticks": 47040,
            "time": 41.9999825,
            "velocity": 0.23622047244094488
          },
          {
            "duration": 0.08571425000000232,
            "durationTicks": 96,
            "midi": 91,
            "name": "G6",
            "ticks": 47040,
            "time": 41.9999825,
            "velocity": 0.23622047244094488
          },
          {
            "duration": 0.08571425000000232,
            "durationTicks": 96,
            "midi": 76,
            "name": "E5",
            "ticks": 47040,
            "time": 41.9999825,
            "velocity": 0.23622047244094488
          },
          {
            "duration": 0.08571425000000232,
            "durationTicks": 96,
            "midi": 39,
            "name": "D#2",
            "ticks": 47040,
            "time": 41.9999825,
            "velocity": 0.23622047244094488
          },
          {
            "duration": 0.08571424999999522,
            "durationTicks": 96,
            "midi": 89,
            "name": "F6",
            "ticks": 47232,
            "time": 42.171411000000006,
            "velocity": 0.23622047244094488
          },
          {
            "duration": 0.08571424999999522,
            "durationTicks": 96,
            "midi": 77,
            "name": "F5",
            "ticks": 47232,
            "time": 42.171411000000006,
            "velocity": 0.23622047244094488
          },
          {
            "duration": 0.08571424999999522,
            "durationTicks": 96,
            "midi": 44,
            "name": "G#2",
            "ticks": 47232,
            "time": 42.171411000000006,
            "velocity": 0.23622047244094488
          },
          {
            "duration": 0.08571424999999522,
            "durationTicks": 96,
            "midi": 74,
            "name": "D5",
            "ticks": 47232,
            "time": 42.171411000000006,
            "velocity": 0.23622047244094488
          },
          {
            "duration": 0.08571425000000232,
            "durationTicks": 96,
            "midi": 88,
            "name": "E6",
            "ticks": 47424,
            "time": 42.342839500000004,
            "velocity": 0.23622047244094488
          },
          {
            "duration": 0.08571425000000232,
            "durationTicks": 96,
            "midi": 41,
            "name": "F2",
            "ticks": 47424,
            "time": 42.342839500000004,
            "velocity": 0.23622047244094488
          },
          {
            "duration": 0.08571425000000232,
            "durationTicks": 96,
            "midi": 72,
            "name": "C5",
            "ticks": 47424,
            "time": 42.342839500000004,
            "velocity": 0.23622047244094488
          },
          {
            "duration": 0.08571425000000232,
            "durationTicks": 96,
            "midi": 76,
            "name": "E5",
            "ticks": 47424,
            "time": 42.342839500000004,
            "velocity": 0.23622047244094488
          },
          {
            "duration": 0.08571425000000232,
            "durationTicks": 96,
            "midi": 74,
            "name": "D5",
            "ticks": 47616,
            "time": 42.514268,
            "velocity": 0.23622047244094488
          },
          {
            "duration": 0.08571425000000232,
            "durationTicks": 96,
            "midi": 69,
            "name": "A4",
            "ticks": 47616,
            "time": 42.514268,
            "velocity": 0.23622047244094488
          },
          {
            "duration": 0.08571425000000232,
            "durationTicks": 96,
            "midi": 86,
            "name": "D6",
            "ticks": 47616,
            "time": 42.514268,
            "velocity": 0.23622047244094488
          },
          {
            "duration": 0.08571425000000232,
            "durationTicks": 96,
            "midi": 57,
            "name": "A3",
            "ticks": 47616,
            "time": 42.514268,
            "velocity": 0.23622047244094488
          },
          {
            "duration": 0.08571425000000232,
            "durationTicks": 96,
            "midi": 39,
            "name": "D#2",
            "ticks": 47616,
            "time": 42.514268,
            "velocity": 0.23622047244094488
          },
          {
            "duration": 0.08571424999999522,
            "durationTicks": 96,
            "midi": 62,
            "name": "D4",
            "ticks": 47808,
            "time": 42.685696500000006,
            "velocity": 0.23622047244094488
          },
          {
            "duration": 0.08571424999999522,
            "durationTicks": 96,
            "midi": 41,
            "name": "F2",
            "ticks": 47808,
            "time": 42.685696500000006,
            "velocity": 0.23622047244094488
          },
          {
            "duration": 0.08571425000000232,
            "durationTicks": 96,
            "midi": 74,
            "name": "D5",
            "ticks": 48000,
            "time": 42.857125,
            "velocity": 0.23622047244094488
          },
          {
            "duration": 0.08571425000000232,
            "durationTicks": 96,
            "midi": 69,
            "name": "A4",
            "ticks": 48000,
            "time": 42.857125,
            "velocity": 0.23622047244094488
          },
          {
            "duration": 0.08571425000000232,
            "durationTicks": 96,
            "midi": 57,
            "name": "A3",
            "ticks": 48000,
            "time": 42.857125,
            "velocity": 0.23622047244094488
          },
          {
            "duration": 0.08571425000000232,
            "durationTicks": 96,
            "midi": 44,
            "name": "G#2",
            "ticks": 48000,
            "time": 42.857125,
            "velocity": 0.23622047244094488
          },
          {
            "duration": 0.08571425000000232,
            "durationTicks": 96,
            "midi": 62,
            "name": "D4",
            "ticks": 48192,
            "time": 43.0285535,
            "velocity": 0.23622047244094488
          },
          {
            "duration": 0.08571425000000232,
            "durationTicks": 96,
            "midi": 39,
            "name": "D#2",
            "ticks": 48192,
            "time": 43.0285535,
            "velocity": 0.23622047244094488
          },
          {
            "duration": 0.08571424999999522,
            "durationTicks": 96,
            "midi": 74,
            "name": "D5",
            "ticks": 48384,
            "time": 43.199982000000006,
            "velocity": 0.23622047244094488
          },
          {
            "duration": 0.08571424999999522,
            "durationTicks": 96,
            "midi": 57,
            "name": "A3",
            "ticks": 48384,
            "time": 43.199982000000006,
            "velocity": 0.23622047244094488
          },
          {
            "duration": 0.08571424999999522,
            "durationTicks": 96,
            "midi": 69,
            "name": "A4",
            "ticks": 48384,
            "time": 43.199982000000006,
            "velocity": 0.23622047244094488
          },
          {
            "duration": 0.08571424999999522,
            "durationTicks": 96,
            "midi": 44,
            "name": "G#2",
            "ticks": 48384,
            "time": 43.199982000000006,
            "velocity": 0.23622047244094488
          },
          {
            "duration": 0.08571425000000232,
            "durationTicks": 96,
            "midi": 69,
            "name": "A4",
            "ticks": 48576,
            "time": 43.3714105,
            "velocity": 0.23622047244094488
          },
          {
            "duration": 0.08571425000000232,
            "durationTicks": 96,
            "midi": 74,
            "name": "D5",
            "ticks": 48576,
            "time": 43.3714105,
            "velocity": 0.23622047244094488
          },
          {
            "duration": 0.08571425000000232,
            "durationTicks": 96,
            "midi": 39,
            "name": "D#2",
            "ticks": 48576,
            "time": 43.3714105,
            "velocity": 0.23622047244094488
          },
          {
            "duration": 0.08571425000000232,
            "durationTicks": 96,
            "midi": 57,
            "name": "A3",
            "ticks": 48768,
            "time": 43.542839,
            "velocity": 0.23622047244094488
          },
          {
            "duration": 0.08571425000000232,
            "durationTicks": 96,
            "midi": 44,
            "name": "G#2",
            "ticks": 48768,
            "time": 43.542839,
            "velocity": 0.23622047244094488
          },
          {
            "duration": 0.08571425000000232,
            "durationTicks": 96,
            "midi": 74,
            "name": "D5",
            "ticks": 48768,
            "time": 43.542839,
            "velocity": 0.23622047244094488
          },
          {
            "duration": 0.08571425000000232,
            "durationTicks": 96,
            "midi": 69,
            "name": "A4",
            "ticks": 48768,
            "time": 43.542839,
            "velocity": 0.23622047244094488
          },
          {
            "duration": 0.08571424999999522,
            "durationTicks": 96,
            "midi": 41,
            "name": "F2",
            "ticks": 48960,
            "time": 43.714267500000005,
            "velocity": 0.23622047244094488
          },
          {
            "duration": 0.08571424999999522,
            "durationTicks": 96,
            "midi": 74,
            "name": "D5",
            "ticks": 48960,
            "time": 43.714267500000005,
            "velocity": 0.23622047244094488
          },
          {
            "duration": 0.08571424999999522,
            "durationTicks": 96,
            "midi": 69,
            "name": "A4",
            "ticks": 48960,
            "time": 43.714267500000005,
            "velocity": 0.23622047244094488
          },
          {
            "duration": 0.08571425000000232,
            "durationTicks": 96,
            "midi": 57,
            "name": "A3",
            "ticks": 49152,
            "time": 43.885696,
            "velocity": 0.23622047244094488
          },
          {
            "duration": 0.08571425000000232,
            "durationTicks": 96,
            "midi": 69,
            "name": "A4",
            "ticks": 49152,
            "time": 43.885696,
            "velocity": 0.23622047244094488
          },
          {
            "duration": 0.08571425000000232,
            "durationTicks": 96,
            "midi": 39,
            "name": "D#2",
            "ticks": 49152,
            "time": 43.885696,
            "velocity": 0.23622047244094488
          },
          {
            "duration": 0.08571425000000232,
            "durationTicks": 96,
            "midi": 57,
            "name": "A3",
            "ticks": 49152,
            "time": 43.885696,
            "velocity": 0.23622047244094488
          },
          {
            "duration": 0.08571425000000232,
            "durationTicks": 96,
            "midi": 41,
            "name": "F2",
            "ticks": 49344,
            "time": 44.0571245,
            "velocity": 0.23622047244094488
          },
          {
            "duration": 0.08571425000000232,
            "durationTicks": 96,
            "midi": 77,
            "name": "F5",
            "ticks": 49344,
            "time": 44.0571245,
            "velocity": 0.23622047244094488
          },
          {
            "duration": 0.08571425000000232,
            "durationTicks": 96,
            "midi": 62,
            "name": "D4",
            "ticks": 49344,
            "time": 44.0571245,
            "velocity": 0.23622047244094488
          },
          {
            "duration": 0.08571425000000232,
            "durationTicks": 96,
            "midi": 65,
            "name": "F4",
            "ticks": 49344,
            "time": 44.0571245,
            "velocity": 0.23622047244094488
          },
          {
            "duration": 0.08571424999999522,
            "durationTicks": 96,
            "midi": 44,
            "name": "G#2",
            "ticks": 49536,
            "time": 44.228553000000005,
            "velocity": 0.23622047244094488
          },
          {
            "duration": 0.08571424999999522,
            "durationTicks": 96,
            "midi": 76,
            "name": "E5",
            "ticks": 49536,
            "time": 44.228553000000005,
            "velocity": 0.23622047244094488
          },
          {
            "duration": 0.08571425000000232,
            "durationTicks": 96,
            "midi": 77,
            "name": "F5",
            "ticks": 49632,
            "time": 44.31426725,
            "velocity": 0.23622047244094488
          },
          {
            "duration": 0.08571425000000232,
            "durationTicks": 96,
            "midi": 76,
            "name": "E5",
            "ticks": 49728,
            "time": 44.3999815,
            "velocity": 0.23622047244094488
          },
          {
            "duration": 0.08571425000000232,
            "durationTicks": 96,
            "midi": 39,
            "name": "D#2",
            "ticks": 49728,
            "time": 44.3999815,
            "velocity": 0.23622047244094488
          },
          {
            "duration": 0.08571425000000232,
            "durationTicks": 96,
            "midi": 65,
            "name": "F4",
            "ticks": 49728,
            "time": 44.3999815,
            "velocity": 0.23622047244094488
          },
          {
            "duration": 0.08571425000000232,
            "durationTicks": 96,
            "midi": 62,
            "name": "D4",
            "ticks": 49728,
            "time": 44.3999815,
            "velocity": 0.23622047244094488
          },
          {
            "duration": 0.08571425000000232,
            "durationTicks": 96,
            "midi": 60,
            "name": "C4",
            "ticks": 49920,
            "time": 44.57141,
            "velocity": 0.23622047244094488
          },
          {
            "duration": 0.08571425000000232,
            "durationTicks": 96,
            "midi": 79,
            "name": "G5",
            "ticks": 49920,
            "time": 44.57141,
            "velocity": 0.23622047244094488
          },
          {
            "duration": 0.08571424999999522,
            "durationTicks": 96,
            "midi": 67,
            "name": "G4",
            "ticks": 50112,
            "time": 44.742838500000005,
            "velocity": 0.23622047244094488
          },
          {
            "duration": 0.08571424999999522,
            "durationTicks": 96,
            "midi": 64,
            "name": "E4",
            "ticks": 50112,
            "time": 44.742838500000005,
            "velocity": 0.23622047244094488
          },
          {
            "duration": 0.08571424999999522,
            "durationTicks": 96,
            "midi": 77,
            "name": "F5",
            "ticks": 50112,
            "time": 44.742838500000005,
            "velocity": 0.23622047244094488
          },
          {
            "duration": 0.08571424999999522,
            "durationTicks": 96,
            "midi": 39,
            "name": "D#2",
            "ticks": 50112,
            "time": 44.742838500000005,
            "velocity": 0.23622047244094488
          },
          {
            "duration": 0.08571425000000232,
            "durationTicks": 96,
            "midi": 44,
            "name": "G#2",
            "ticks": 50304,
            "time": 44.914267,
            "velocity": 0.23622047244094488
          },
          {
            "duration": 0.08571425000000232,
            "durationTicks": 96,
            "midi": 76,
            "name": "E5",
            "ticks": 50304,
            "time": 44.914267,
            "velocity": 0.23622047244094488
          },
          {
            "duration": 0.08571424999999522,
            "durationTicks": 96,
            "midi": 77,
            "name": "F5",
            "ticks": 50400,
            "time": 44.999981250000005,
            "velocity": 0.23622047244094488
          },
          {
            "duration": 0.08571425000000232,
            "durationTicks": 96,
            "midi": 76,
            "name": "E5",
            "ticks": 50496,
            "time": 45.0856955,
            "velocity": 0.23622047244094488
          },
          {
            "duration": 0.08571425000000232,
            "durationTicks": 96,
            "midi": 67,
            "name": "G4",
            "ticks": 50496,
            "time": 45.0856955,
            "velocity": 0.23622047244094488
          },
          {
            "duration": 0.08571425000000232,
            "durationTicks": 96,
            "midi": 64,
            "name": "E4",
            "ticks": 50496,
            "time": 45.0856955,
            "velocity": 0.23622047244094488
          },
          {
            "duration": 0.08571425000000232,
            "durationTicks": 96,
            "midi": 41,
            "name": "F2",
            "ticks": 50496,
            "time": 45.0856955,
            "velocity": 0.23622047244094488
          },
          {
            "duration": 0.08571425000000232,
            "durationTicks": 96,
            "midi": 72,
            "name": "C5",
            "ticks": 50592,
            "time": 45.17140975,
            "velocity": 0.23622047244094488
          },
          {
            "duration": 0.08571424999999522,
            "durationTicks": 96,
            "midi": 74,
            "name": "D5",
            "ticks": 50688,
            "time": 45.257124000000005,
            "velocity": 0.23622047244094488
          },
          {
            "duration": 0.08571424999999522,
            "durationTicks": 96,
            "midi": 62,
            "name": "D4",
            "ticks": 50688,
            "time": 45.257124000000005,
            "velocity": 0.23622047244094488
          },
          {
            "duration": 0.08571424999999522,
            "durationTicks": 96,
            "midi": 39,
            "name": "D#2",
            "ticks": 50688,
            "time": 45.257124000000005,
            "velocity": 0.23622047244094488
          },
          {
            "duration": 0.08571425000000232,
            "durationTicks": 96,
            "midi": 41,
            "name": "F2",
            "ticks": 50880,
            "time": 45.4285525,
            "velocity": 0.23622047244094488
          },
          {
            "duration": 0.08571425000000232,
            "durationTicks": 96,
            "midi": 69,
            "name": "A4",
            "ticks": 50880,
            "time": 45.4285525,
            "velocity": 0.23622047244094488
          },
          {
            "duration": 0.08571425000000232,
            "durationTicks": 96,
            "midi": 65,
            "name": "F4",
            "ticks": 50880,
            "time": 45.4285525,
            "velocity": 0.23622047244094488
          },
          {
            "duration": 0.08571425000000232,
            "durationTicks": 96,
            "midi": 81,
            "name": "A5",
            "ticks": 50880,
            "time": 45.4285525,
            "velocity": 0.23622047244094488
          },
          {
            "duration": 0.08571425000000232,
            "durationTicks": 96,
            "midi": 44,
            "name": "G#2",
            "ticks": 51072,
            "time": 45.599981,
            "velocity": 0.23622047244094488
          },
          {
            "duration": 0.08571425000000232,
            "durationTicks": 96,
            "midi": 79,
            "name": "G5",
            "ticks": 51072,
            "time": 45.599981,
            "velocity": 0.23622047244094488
          },
          {
            "duration": 0.08571425000000232,
            "durationTicks": 96,
            "midi": 81,
            "name": "A5",
            "ticks": 51168,
            "time": 45.68569525,
            "velocity": 0.23622047244094488
          },
          {
            "duration": 0.08571424999999522,
            "durationTicks": 96,
            "midi": 79,
            "name": "G5",
            "ticks": 51264,
            "time": 45.771409500000004,
            "velocity": 0.23622047244094488
          },
          {
            "duration": 0.08571424999999522,
            "durationTicks": 96,
            "midi": 39,
            "name": "D#2",
            "ticks": 51264,
            "time": 45.771409500000004,
            "velocity": 0.23622047244094488
          },
          {
            "duration": 0.08571424999999522,
            "durationTicks": 96,
            "midi": 69,
            "name": "A4",
            "ticks": 51264,
            "time": 45.771409500000004,
            "velocity": 0.23622047244094488
          },
          {
            "duration": 0.08571424999999522,
            "durationTicks": 96,
            "midi": 65,
            "name": "F4",
            "ticks": 51264,
            "time": 45.771409500000004,
            "velocity": 0.23622047244094488
          },
          {
            "duration": 0.08571425000000232,
            "durationTicks": 96,
            "midi": 81,
            "name": "A5",
            "ticks": 51360,
            "time": 45.85712375,
            "velocity": 0.23622047244094488
          },
          {
            "duration": 0.08571425000000232,
            "durationTicks": 96,
            "midi": 62,
            "name": "D4",
            "ticks": 51456,
            "time": 45.942838,
            "velocity": 0.23622047244094488
          },
          {
            "duration": 0.08571425000000232,
            "durationTicks": 96,
            "midi": 84,
            "name": "C6",
            "ticks": 51456,
            "time": 45.942838,
            "velocity": 0.23622047244094488
          },
          {
            "duration": 0.08571424999999522,
            "durationTicks": 96,
            "midi": 65,
            "name": "F4",
            "ticks": 51648,
            "time": 46.11426650000001,
            "velocity": 0.23622047244094488
          },
          {
            "duration": 0.08571424999999522,
            "durationTicks": 96,
            "midi": 69,
            "name": "A4",
            "ticks": 51648,
            "time": 46.11426650000001,
            "velocity": 0.23622047244094488
          },
          {
            "duration": 0.08571424999999522,
            "durationTicks": 96,
            "midi": 39,
            "name": "D#2",
            "ticks": 51648,
            "time": 46.11426650000001,
            "velocity": 0.23622047244094488
          },
          {
            "duration": 0.08571424999999522,
            "durationTicks": 96,
            "midi": 81,
            "name": "A5",
            "ticks": 51648,
            "time": 46.11426650000001,
            "velocity": 0.23622047244094488
          },
          {
            "duration": 0.08571425000000232,
            "durationTicks": 96,
            "midi": 79,
            "name": "G5",
            "ticks": 51840,
            "time": 46.285695000000004,
            "velocity": 0.23622047244094488
          },
          {
            "duration": 0.08571425000000232,
            "durationTicks": 96,
            "midi": 44,
            "name": "G#2",
            "ticks": 51840,
            "time": 46.285695000000004,
            "velocity": 0.23622047244094488
          },
          {
            "duration": 0.08571425000000232,
            "durationTicks": 96,
            "midi": 81,
            "name": "A5",
            "ticks": 52032,
            "time": 46.4571235,
            "velocity": 0.23622047244094488
          },
          {
            "duration": 0.08571425000000232,
            "durationTicks": 96,
            "midi": 69,
            "name": "A4",
            "ticks": 52032,
            "time": 46.4571235,
            "velocity": 0.23622047244094488
          },
          {
            "duration": 0.08571425000000232,
            "durationTicks": 96,
            "midi": 65,
            "name": "F4",
            "ticks": 52032,
            "time": 46.4571235,
            "velocity": 0.23622047244094488
          },
          {
            "duration": 0.08571425000000232,
            "durationTicks": 96,
            "midi": 41,
            "name": "F2",
            "ticks": 52032,
            "time": 46.4571235,
            "velocity": 0.23622047244094488
          },
          {
            "duration": 0.08571424999999522,
            "durationTicks": 96,
            "midi": 58,
            "name": "A#3",
            "ticks": 52224,
            "time": 46.628552000000006,
            "velocity": 0.23622047244094488
          },
          {
            "duration": 0.08571424999999522,
            "durationTicks": 96,
            "midi": 70,
            "name": "A#4",
            "ticks": 52224,
            "time": 46.628552000000006,
            "velocity": 0.23622047244094488
          },
          {
            "duration": 0.08571424999999522,
            "durationTicks": 96,
            "midi": 57,
            "name": "A3",
            "ticks": 52224,
            "time": 46.628552000000006,
            "velocity": 0.23622047244094488
          },
          {
            "duration": 0.08571424999999522,
            "durationTicks": 96,
            "midi": 39,
            "name": "D#2",
            "ticks": 52224,
            "time": 46.628552000000006,
            "velocity": 0.23622047244094488
          },
          {
            "duration": 0.08571425000000232,
            "durationTicks": 96,
            "midi": 77,
            "name": "F5",
            "ticks": 52416,
            "time": 46.799980500000004,
            "velocity": 0.23622047244094488
          },
          {
            "duration": 0.08571425000000232,
            "durationTicks": 96,
            "midi": 65,
            "name": "F4",
            "ticks": 52416,
            "time": 46.799980500000004,
            "velocity": 0.23622047244094488
          },
          {
            "duration": 0.08571425000000232,
            "durationTicks": 96,
            "midi": 41,
            "name": "F2",
            "ticks": 52416,
            "time": 46.799980500000004,
            "velocity": 0.23622047244094488
          },
          {
            "duration": 0.08571425000000232,
            "durationTicks": 96,
            "midi": 62,
            "name": "D4",
            "ticks": 52416,
            "time": 46.799980500000004,
            "velocity": 0.23622047244094488
          },
          {
            "duration": 0.08571425000000232,
            "durationTicks": 96,
            "midi": 76,
            "name": "E5",
            "ticks": 52608,
            "time": 46.971409,
            "velocity": 0.23622047244094488
          },
          {
            "duration": 0.08571425000000232,
            "durationTicks": 96,
            "midi": 44,
            "name": "G#2",
            "ticks": 52608,
            "time": 46.971409,
            "velocity": 0.23622047244094488
          },
          {
            "duration": 0.08571425000000232,
            "durationTicks": 96,
            "midi": 77,
            "name": "F5",
            "ticks": 52704,
            "time": 47.057123250000004,
            "velocity": 0.23622047244094488
          },
          {
            "duration": 0.08571424999999522,
            "durationTicks": 96,
            "midi": 76,
            "name": "E5",
            "ticks": 52800,
            "time": 47.142837500000006,
            "velocity": 0.23622047244094488
          },
          {
            "duration": 0.08571424999999522,
            "durationTicks": 96,
            "midi": 65,
            "name": "F4",
            "ticks": 52800,
            "time": 47.142837500000006,
            "velocity": 0.23622047244094488
          },
          {
            "duration": 0.08571424999999522,
            "durationTicks": 96,
            "midi": 39,
            "name": "D#2",
            "ticks": 52800,
            "time": 47.142837500000006,
            "velocity": 0.23622047244094488
          },
          {
            "duration": 0.08571424999999522,
            "durationTicks": 96,
            "midi": 62,
            "name": "D4",
            "ticks": 52800,
            "time": 47.142837500000006,
            "velocity": 0.23622047244094488
          },
          {
            "duration": 0.08571425000000232,
            "durationTicks": 96,
            "midi": 60,
            "name": "C4",
            "ticks": 52992,
            "time": 47.314266,
            "velocity": 0.23622047244094488
          },
          {
            "duration": 0.08571425000000232,
            "durationTicks": 96,
            "midi": 79,
            "name": "G5",
            "ticks": 52992,
            "time": 47.314266,
            "velocity": 0.23622047244094488
          },
          {
            "duration": 0.08571425000000232,
            "durationTicks": 96,
            "midi": 67,
            "name": "G4",
            "ticks": 53184,
            "time": 47.4856945,
            "velocity": 0.23622047244094488
          },
          {
            "duration": 0.08571425000000232,
            "durationTicks": 96,
            "midi": 64,
            "name": "E4",
            "ticks": 53184,
            "time": 47.4856945,
            "velocity": 0.23622047244094488
          },
          {
            "duration": 0.08571425000000232,
            "durationTicks": 96,
            "midi": 39,
            "name": "D#2",
            "ticks": 53184,
            "time": 47.4856945,
            "velocity": 0.23622047244094488
          },
          {
            "duration": 0.08571425000000232,
            "durationTicks": 96,
            "midi": 77,
            "name": "F5",
            "ticks": 53184,
            "time": 47.4856945,
            "velocity": 0.23622047244094488
          },
          {
            "duration": 0.08571424999999522,
            "durationTicks": 96,
            "midi": 76,
            "name": "E5",
            "ticks": 53376,
            "time": 47.657123000000006,
            "velocity": 0.23622047244094488
          },
          {
            "duration": 0.08571424999999522,
            "durationTicks": 96,
            "midi": 44,
            "name": "G#2",
            "ticks": 53376,
            "time": 47.657123000000006,
            "velocity": 0.23622047244094488
          },
          {
            "duration": 0.08571425000000232,
            "durationTicks": 96,
            "midi": 77,
            "name": "F5",
            "ticks": 53472,
            "time": 47.74283725,
            "velocity": 0.23622047244094488
          },
          {
            "duration": 0.08571425000000232,
            "durationTicks": 96,
            "midi": 64,
            "name": "E4",
            "ticks": 53568,
            "time": 47.8285515,
            "velocity": 0.23622047244094488
          },
          {
            "duration": 0.08571425000000232,
            "durationTicks": 96,
            "midi": 41,
            "name": "F2",
            "ticks": 53568,
            "time": 47.8285515,
            "velocity": 0.23622047244094488
          },
          {
            "duration": 0.08571425000000232,
            "durationTicks": 96,
            "midi": 76,
            "name": "E5",
            "ticks": 53568,
            "time": 47.8285515,
            "velocity": 0.23622047244094488
          },
          {
            "duration": 0.08571425000000232,
            "durationTicks": 96,
            "midi": 67,
            "name": "G4",
            "ticks": 53568,
            "time": 47.8285515,
            "velocity": 0.23622047244094488
          },
          {
            "duration": 0.08571424999999522,
            "durationTicks": 96,
            "midi": 72,
            "name": "C5",
            "ticks": 53664,
            "time": 47.914265750000006,
            "velocity": 0.23622047244094488
          },
          {
            "duration": 0.08571425000000232,
            "durationTicks": 96,
            "midi": 57,
            "name": "A3",
            "ticks": 53760,
            "time": 47.99998,
            "velocity": 0.23622047244094488
          },
          {
            "duration": 0.08571425000000232,
            "durationTicks": 96,
            "midi": 74,
            "name": "D5",
            "ticks": 53760,
            "time": 47.99998,
            "velocity": 0.23622047244094488
          },
          {
            "duration": 0.08571425000000232,
            "durationTicks": 96,
            "midi": 62,
            "name": "D4",
            "ticks": 53760,
            "time": 47.99998,
            "velocity": 0.23622047244094488
          },
          {
            "duration": 0.08571425000000232,
            "durationTicks": 96,
            "midi": 39,
            "name": "D#2",
            "ticks": 53760,
            "time": 47.99998,
            "velocity": 0.23622047244094488
          },
          {
            "duration": 0.08571424999999522,
            "durationTicks": 96,
            "midi": 41,
            "name": "F2",
            "ticks": 53952,
            "time": 48.171408500000005,
            "velocity": 0.23622047244094488
          },
          {
            "duration": 0.08571424999999522,
            "durationTicks": 96,
            "midi": 81,
            "name": "A5",
            "ticks": 53952,
            "time": 48.171408500000005,
            "velocity": 0.23622047244094488
          },
          {
            "duration": 0.08571424999999522,
            "durationTicks": 96,
            "midi": 65,
            "name": "F4",
            "ticks": 53952,
            "time": 48.171408500000005,
            "velocity": 0.23622047244094488
          },
          {
            "duration": 0.08571424999999522,
            "durationTicks": 96,
            "midi": 69,
            "name": "A4",
            "ticks": 53952,
            "time": 48.171408500000005,
            "velocity": 0.23622047244094488
          },
          {
            "duration": 0.08571425000000232,
            "durationTicks": 96,
            "midi": 79,
            "name": "G5",
            "ticks": 54144,
            "time": 48.342837,
            "velocity": 0.23622047244094488
          },
          {
            "duration": 0.08571425000000232,
            "durationTicks": 96,
            "midi": 44,
            "name": "G#2",
            "ticks": 54144,
            "time": 48.342837,
            "velocity": 0.23622047244094488
          },
          {
            "duration": 0.08571425000000232,
            "durationTicks": 96,
            "midi": 64,
            "name": "E4",
            "ticks": 54144,
            "time": 48.342837,
            "velocity": 0.23622047244094488
          },
          {
            "duration": 0.08571424999999522,
            "durationTicks": 96,
            "midi": 81,
            "name": "A5",
            "ticks": 54240,
            "time": 48.428551250000005,
            "velocity": 0.23622047244094488
          },
          {
            "duration": 0.08571425000000232,
            "durationTicks": 96,
            "midi": 72,
            "name": "C5",
            "ticks": 54336,
            "time": 48.5142655,
            "velocity": 0.23622047244094488
          },
          {
            "duration": 0.08571425000000232,
            "durationTicks": 96,
            "midi": 39,
            "name": "D#2",
            "ticks": 54336,
            "time": 48.5142655,
            "velocity": 0.23622047244094488
          },
          {
            "duration": 0.08571425000000232,
            "durationTicks": 96,
            "midi": 79,
            "name": "G5",
            "ticks": 54336,
            "time": 48.5142655,
            "velocity": 0.23622047244094488
          },
          {
            "duration": 0.08571425000000232,
            "durationTicks": 96,
            "midi": 67,
            "name": "G4",
            "ticks": 54336,
            "time": 48.5142655,
            "velocity": 0.23622047244094488
          },
          {
            "duration": 0.08571425000000232,
            "durationTicks": 96,
            "midi": 81,
            "name": "A5",
            "ticks": 54432,
            "time": 48.59997975,
            "velocity": 0.23622047244094488
          },
          {
            "duration": 0.08571424999999522,
            "durationTicks": 96,
            "midi": 44,
            "name": "G#2",
            "ticks": 54528,
            "time": 48.685694000000005,
            "velocity": 0.23622047244094488
          },
          {
            "duration": 0.08571424999999522,
            "durationTicks": 96,
            "midi": 57,
            "name": "A3",
            "ticks": 54528,
            "time": 48.685694000000005,
            "velocity": 0.23622047244094488
          },
          {
            "duration": 0.08571424999999522,
            "durationTicks": 96,
            "midi": 65,
            "name": "F4",
            "ticks": 54528,
            "time": 48.685694000000005,
            "velocity": 0.23622047244094488
          },
          {
            "duration": 0.08571424999999522,
            "durationTicks": 96,
            "midi": 85,
            "name": "C#6",
            "ticks": 54528,
            "time": 48.685694000000005,
            "velocity": 0.23622047244094488
          },
          {
            "duration": 0.08571425000000232,
            "durationTicks": 96,
            "midi": 74,
            "name": "D5",
            "ticks": 54720,
            "time": 48.8571225,
            "velocity": 0.23622047244094488
          },
          {
            "duration": 0.08571425000000232,
            "durationTicks": 96,
            "midi": 39,
            "name": "D#2",
            "ticks": 54720,
            "time": 48.8571225,
            "velocity": 0.23622047244094488
          },
          {
            "duration": 0.08571425000000232,
            "durationTicks": 96,
            "midi": 69,
            "name": "A4",
            "ticks": 54720,
            "time": 48.8571225,
            "velocity": 0.23622047244094488
          },
          {
            "duration": 0.08571425000000232,
            "durationTicks": 96,
            "midi": 81,
            "name": "A5",
            "ticks": 54720,
            "time": 48.8571225,
            "velocity": 0.23622047244094488
          },
          {
            "duration": 0.08571425000000232,
            "durationTicks": 96,
            "midi": 62,
            "name": "D4",
            "ticks": 54912,
            "time": 49.028551,
            "velocity": 0.23622047244094488
          },
          {
            "duration": 0.08571425000000232,
            "durationTicks": 96,
            "midi": 79,
            "name": "G5",
            "ticks": 54912,
            "time": 49.028551,
            "velocity": 0.23622047244094488
          },
          {
            "duration": 0.08571425000000232,
            "durationTicks": 96,
            "midi": 44,
            "name": "G#2",
            "ticks": 54912,
            "time": 49.028551,
            "velocity": 0.23622047244094488
          },
          {
            "duration": 0.08571424999999522,
            "durationTicks": 96,
            "midi": 64,
            "name": "E4",
            "ticks": 55104,
            "time": 49.199979500000005,
            "velocity": 0.23622047244094488
          },
          {
            "duration": 0.08571424999999522,
            "durationTicks": 96,
            "midi": 41,
            "name": "F2",
            "ticks": 55104,
            "time": 49.199979500000005,
            "velocity": 0.23622047244094488
          },
          {
            "duration": 0.08571424999999522,
            "durationTicks": 96,
            "midi": 76,
            "name": "E5",
            "ticks": 55104,
            "time": 49.199979500000005,
            "velocity": 0.23622047244094488
          },
          {
            "duration": 0.08571424999999522,
            "durationTicks": 96,
            "midi": 69,
            "name": "A4",
            "ticks": 55104,
            "time": 49.199979500000005,
            "velocity": 0.23622047244094488
          },
          {
            "duration": 0.08571425000000232,
            "durationTicks": 96,
            "midi": 57,
            "name": "A3",
            "ticks": 55296,
            "time": 49.371408,
            "velocity": 0.23622047244094488
          },
          {
            "duration": 0.08571425000000232,
            "durationTicks": 96,
            "midi": 57,
            "name": "A3",
            "ticks": 55296,
            "time": 49.371408,
            "velocity": 0.23622047244094488
          },
          {
            "duration": 0.08571425000000232,
            "durationTicks": 96,
            "midi": 39,
            "name": "D#2",
            "ticks": 55296,
            "time": 49.371408,
            "velocity": 0.23622047244094488
          },
          {
            "duration": 0.08571425000000232,
            "durationTicks": 96,
            "midi": 77,
            "name": "F5",
            "ticks": 55296,
            "time": 49.371408,
            "velocity": 0.23622047244094488
          },
          {
            "duration": 0.08571425000000232,
            "durationTicks": 96,
            "midi": 41,
            "name": "F2",
            "ticks": 55488,
            "time": 49.5428365,
            "velocity": 0.23622047244094488
          },
          {
            "duration": 0.08571425000000232,
            "durationTicks": 96,
            "midi": 67,
            "name": "G4",
            "ticks": 55488,
            "time": 49.5428365,
            "velocity": 0.23622047244094488
          },
          {
            "duration": 0.08571425000000232,
            "durationTicks": 96,
            "midi": 76,
            "name": "E5",
            "ticks": 55488,
            "time": 49.5428365,
            "velocity": 0.23622047244094488
          },
          {
            "duration": 0.08571425000000232,
            "durationTicks": 96,
            "midi": 64,
            "name": "E4",
            "ticks": 55488,
            "time": 49.5428365,
            "velocity": 0.23622047244094488
          },
          {
            "duration": 0.08571425000000232,
            "durationTicks": 96,
            "midi": 77,
            "name": "F5",
            "ticks": 55584,
            "time": 49.62855075,
            "velocity": 0.23622047244094488
          },
          {
            "duration": 0.08571424999999522,
            "durationTicks": 96,
            "midi": 76,
            "name": "E5",
            "ticks": 55680,
            "time": 49.714265000000005,
            "velocity": 0.23622047244094488
          },
          {
            "duration": 0.08571424999999522,
            "durationTicks": 96,
            "midi": 44,
            "name": "G#2",
            "ticks": 55680,
            "time": 49.714265000000005,
            "velocity": 0.23622047244094488
          },
          {
            "duration": 0.08571425000000232,
            "durationTicks": 96,
            "midi": 67,
            "name": "G4",
            "ticks": 55872,
            "time": 49.8856935,
            "velocity": 0.23622047244094488
          },
          {
            "duration": 0.08571425000000232,
            "durationTicks": 96,
            "midi": 64,
            "name": "E4",
            "ticks": 55872,
            "time": 49.8856935,
            "velocity": 0.23622047244094488
          },
          {
            "duration": 0.08571425000000232,
            "durationTicks": 96,
            "midi": 39,
            "name": "D#2",
            "ticks": 55872,
            "time": 49.8856935,
            "velocity": 0.23622047244094488
          },
          {
            "duration": 0.08571425000000232,
            "durationTicks": 96,
            "midi": 72,
            "name": "C5",
            "ticks": 55872,
            "time": 49.8856935,
            "velocity": 0.23622047244094488
          },
          {
            "duration": 0.08571424999999522,
            "durationTicks": 96,
            "midi": 74,
            "name": "D5",
            "ticks": 56064,
            "time": 50.05712200000001,
            "velocity": 0.23622047244094488
          },
          {
            "duration": 0.08571424999999522,
            "durationTicks": 96,
            "midi": 55,
            "name": "G3",
            "ticks": 56064,
            "time": 50.05712200000001,
            "velocity": 0.23622047244094488
          },
          {
            "duration": 0.08571425000000232,
            "durationTicks": 96,
            "midi": 60,
            "name": "C4",
            "ticks": 56256,
            "time": 50.228550500000004,
            "velocity": 0.23622047244094488
          },
          {
            "duration": 0.08571425000000232,
            "durationTicks": 96,
            "midi": 72,
            "name": "C5",
            "ticks": 56256,
            "time": 50.228550500000004,
            "velocity": 0.23622047244094488
          },
          {
            "duration": 0.08571425000000232,
            "durationTicks": 96,
            "midi": 64,
            "name": "E4",
            "ticks": 56256,
            "time": 50.228550500000004,
            "velocity": 0.23622047244094488
          },
          {
            "duration": 0.08571425000000232,
            "durationTicks": 96,
            "midi": 39,
            "name": "D#2",
            "ticks": 56256,
            "time": 50.228550500000004,
            "velocity": 0.23622047244094488
          },
          {
            "duration": 0.08571425000000232,
            "durationTicks": 96,
            "midi": 67,
            "name": "G4",
            "ticks": 56448,
            "time": 50.399979,
            "velocity": 0.23622047244094488
          },
          {
            "duration": 0.08571425000000232,
            "durationTicks": 96,
            "midi": 44,
            "name": "G#2",
            "ticks": 56448,
            "time": 50.399979,
            "velocity": 0.23622047244094488
          },
          {
            "duration": 0.08571424999999522,
            "durationTicks": 96,
            "midi": 64,
            "name": "E4",
            "ticks": 56640,
            "time": 50.57140750000001,
            "velocity": 0.23622047244094488
          },
          {
            "duration": 0.08571424999999522,
            "durationTicks": 96,
            "midi": 41,
            "name": "F2",
            "ticks": 56640,
            "time": 50.57140750000001,
            "velocity": 0.23622047244094488
          },
          {
            "duration": 0.08571424999999522,
            "durationTicks": 96,
            "midi": 64,
            "name": "E4",
            "ticks": 56640,
            "time": 50.57140750000001,
            "velocity": 0.23622047244094488
          },
          {
            "duration": 0.08571424999999522,
            "durationTicks": 96,
            "midi": 60,
            "name": "C4",
            "ticks": 56640,
            "time": 50.57140750000001,
            "velocity": 0.23622047244094488
          },
          {
            "duration": 0.08571425000000232,
            "durationTicks": 96,
            "midi": 62,
            "name": "D4",
            "ticks": 56832,
            "time": 50.742836000000004,
            "velocity": 0.23622047244094488
          },
          {
            "duration": 0.08571425000000232,
            "durationTicks": 96,
            "midi": 53,
            "name": "F3",
            "ticks": 56832,
            "time": 50.742836000000004,
            "velocity": 0.23622047244094488
          },
          {
            "duration": 0.08571425000000232,
            "durationTicks": 96,
            "midi": 39,
            "name": "D#2",
            "ticks": 56832,
            "time": 50.742836000000004,
            "velocity": 0.23622047244094488
          },
          {
            "duration": 0.08571425000000232,
            "durationTicks": 96,
            "midi": 41,
            "name": "F2",
            "ticks": 57024,
            "time": 50.9142645,
            "velocity": 0.23622047244094488
          },
          {
            "duration": 0.08571425000000232,
            "durationTicks": 96,
            "midi": 64,
            "name": "E4",
            "ticks": 57024,
            "time": 50.9142645,
            "velocity": 0.23622047244094488
          },
          {
            "duration": 0.08571425000000232,
            "durationTicks": 96,
            "midi": 62,
            "name": "D4",
            "ticks": 57024,
            "time": 50.9142645,
            "velocity": 0.23622047244094488
          },
          {
            "duration": 0.08571425000000232,
            "durationTicks": 96,
            "midi": 58,
            "name": "A#3",
            "ticks": 57024,
            "time": 50.9142645,
            "velocity": 0.23622047244094488
          },
          {
            "duration": 0.08571424999999522,
            "durationTicks": 96,
            "midi": 65,
            "name": "F4",
            "ticks": 57216,
            "time": 51.085693000000006,
            "velocity": 0.23622047244094488
          },
          {
            "duration": 0.08571424999999522,
            "durationTicks": 96,
            "midi": 44,
            "name": "G#2",
            "ticks": 57216,
            "time": 51.085693000000006,
            "velocity": 0.23622047244094488
          },
          {
            "duration": 0.08571425000000232,
            "durationTicks": 96,
            "midi": 39,
            "name": "D#2",
            "ticks": 57408,
            "time": 51.257121500000004,
            "velocity": 0.23622047244094488
          },
          {
            "duration": 0.08571425000000232,
            "durationTicks": 96,
            "midi": 62,
            "name": "D4",
            "ticks": 57408,
            "time": 51.257121500000004,
            "velocity": 0.23622047244094488
          },
          {
            "duration": 0.08571425000000232,
            "durationTicks": 96,
            "midi": 67,
            "name": "G4",
            "ticks": 57408,
            "time": 51.257121500000004,
            "velocity": 0.23622047244094488
          },
          {
            "duration": 0.08571425000000232,
            "durationTicks": 96,
            "midi": 58,
            "name": "A#3",
            "ticks": 57408,
            "time": 51.257121500000004,
            "velocity": 0.23622047244094488
          },
          {
            "duration": 0.08571425000000232,
            "durationTicks": 96,
            "midi": 58,
            "name": "A#3",
            "ticks": 57600,
            "time": 51.42855,
            "velocity": 0.23622047244094488
          },
          {
            "duration": 0.08571425000000232,
            "durationTicks": 96,
            "midi": 69,
            "name": "A4",
            "ticks": 57600,
            "time": 51.42855,
            "velocity": 0.23622047244094488
          },
          {
            "duration": 0.08571424999999522,
            "durationTicks": 96,
            "midi": 64,
            "name": "E4",
            "ticks": 57792,
            "time": 51.599978500000006,
            "velocity": 0.23622047244094488
          },
          {
            "duration": 0.08571424999999522,
            "durationTicks": 96,
            "midi": 67,
            "name": "G4",
            "ticks": 57792,
            "time": 51.599978500000006,
            "velocity": 0.23622047244094488
          },
          {
            "duration": 0.08571424999999522,
            "durationTicks": 96,
            "midi": 73,
            "name": "C#5",
            "ticks": 57792,
            "time": 51.599978500000006,
            "velocity": 0.23622047244094488
          },
          {
            "duration": 0.08571424999999522,
            "durationTicks": 96,
            "midi": 39,
            "name": "D#2",
            "ticks": 57792,
            "time": 51.599978500000006,
            "velocity": 0.23622047244094488
          },
          {
            "duration": 0.08571425000000232,
            "durationTicks": 96,
            "midi": 44,
            "name": "G#2",
            "ticks": 57984,
            "time": 51.771407,
            "velocity": 0.23622047244094488
          },
          {
            "duration": 0.08571425000000232,
            "durationTicks": 96,
            "midi": 74,
            "name": "D5",
            "ticks": 57984,
            "time": 51.771407,
            "velocity": 0.23622047244094488
          },
          {
            "duration": 0.08571425000000232,
            "durationTicks": 96,
            "midi": 64,
            "name": "E4",
            "ticks": 58176,
            "time": 51.9428355,
            "velocity": 0.23622047244094488
          },
          {
            "duration": 0.08571425000000232,
            "durationTicks": 96,
            "midi": 41,
            "name": "F2",
            "ticks": 58176,
            "time": 51.9428355,
            "velocity": 0.23622047244094488
          },
          {
            "duration": 0.08571425000000232,
            "durationTicks": 96,
            "midi": 76,
            "name": "E5",
            "ticks": 58176,
            "time": 51.9428355,
            "velocity": 0.23622047244094488
          },
          {
            "duration": 0.08571425000000232,
            "durationTicks": 96,
            "midi": 67,
            "name": "G4",
            "ticks": 58176,
            "time": 51.9428355,
            "velocity": 0.23622047244094488
          },
          {
            "duration": 0.08571424999999522,
            "durationTicks": 96,
            "midi": 39,
            "name": "D#2",
            "ticks": 58368,
            "time": 52.114264000000006,
            "velocity": 0.23622047244094488
          },
          {
            "duration": 0.08571424999999522,
            "durationTicks": 96,
            "midi": 61,
            "name": "C#4",
            "ticks": 58368,
            "time": 52.114264000000006,
            "velocity": 0.23622047244094488
          },
          {
            "duration": 0.08571424999999522,
            "durationTicks": 96,
            "midi": 57,
            "name": "A3",
            "ticks": 58368,
            "time": 52.114264000000006,
            "velocity": 0.23622047244094488
          },
          {
            "duration": 0.08571424999999522,
            "durationTicks": 96,
            "midi": 73,
            "name": "C#5",
            "ticks": 58368,
            "time": 52.114264000000006,
            "velocity": 0.23622047244094488
          },
          {
            "duration": 0.08571425000000232,
            "durationTicks": 96,
            "midi": 41,
            "name": "F2",
            "ticks": 58560,
            "time": 52.2856925,
            "velocity": 0.23622047244094488
          },
          {
            "duration": 0.08571425000000232,
            "durationTicks": 96,
            "midi": 81,
            "name": "A5",
            "ticks": 58560,
            "time": 52.2856925,
            "velocity": 0.23622047244094488
          },
          {
            "duration": 0.08571425000000232,
            "durationTicks": 96,
            "midi": 65,
            "name": "F4",
            "ticks": 58560,
            "time": 52.2856925,
            "velocity": 0.23622047244094488
          },
          {
            "duration": 0.08571425000000232,
            "durationTicks": 96,
            "midi": 69,
            "name": "A4",
            "ticks": 58560,
            "time": 52.2856925,
            "velocity": 0.23622047244094488
          },
          {
            "duration": 0.08571425000000232,
            "durationTicks": 96,
            "midi": 79,
            "name": "G5",
            "ticks": 58752,
            "time": 52.457121,
            "velocity": 0.23622047244094488
          },
          {
            "duration": 0.08571425000000232,
            "durationTicks": 96,
            "midi": 44,
            "name": "G#2",
            "ticks": 58752,
            "time": 52.457121,
            "velocity": 0.23622047244094488
          },
          {
            "duration": 0.08571425000000232,
            "durationTicks": 96,
            "midi": 81,
            "name": "A5",
            "ticks": 58848,
            "time": 52.54283525,
            "velocity": 0.23622047244094488
          },
          {
            "duration": 0.08571424999999522,
            "durationTicks": 96,
            "midi": 69,
            "name": "A4",
            "ticks": 58944,
            "time": 52.628549500000005,
            "velocity": 0.23622047244094488
          },
          {
            "duration": 0.08571424999999522,
            "durationTicks": 96,
            "midi": 39,
            "name": "D#2",
            "ticks": 58944,
            "time": 52.628549500000005,
            "velocity": 0.23622047244094488
          },
          {
            "duration": 0.08571424999999522,
            "durationTicks": 96,
            "midi": 65,
            "name": "F4",
            "ticks": 58944,
            "time": 52.628549500000005,
            "velocity": 0.23622047244094488
          },
          {
            "duration": 0.08571424999999522,
            "durationTicks": 96,
            "midi": 79,
            "name": "G5",
            "ticks": 58944,
            "time": 52.628549500000005,
            "velocity": 0.23622047244094488
          },
          {
            "duration": 0.08571425000000232,
            "durationTicks": 96,
            "midi": 81,
            "name": "A5",
            "ticks": 59040,
            "time": 52.71426375,
            "velocity": 0.23622047244094488
          },
          {
            "duration": 0.08571425000000232,
            "durationTicks": 96,
            "midi": 61,
            "name": "C#4",
            "ticks": 59136,
            "time": 52.799978,
            "velocity": 0.23622047244094488
          },
          {
            "duration": 0.08571425000000232,
            "durationTicks": 96,
            "midi": 85,
            "name": "C#6",
            "ticks": 59136,
            "time": 52.799978,
            "velocity": 0.23622047244094488
          },
          {
            "duration": 0.08571425000000232,
            "durationTicks": 96,
            "midi": 57,
            "name": "A3",
            "ticks": 59136,
            "time": 52.799978,
            "velocity": 0.23622047244094488
          },
          {
            "duration": 0.08571425000000232,
            "durationTicks": 96,
            "midi": 39,
            "name": "D#2",
            "ticks": 59328,
            "time": 52.9714065,
            "velocity": 0.23622047244094488
          },
          {
            "duration": 0.08571425000000232,
            "durationTicks": 96,
            "midi": 81,
            "name": "A5",
            "ticks": 59328,
            "time": 52.9714065,
            "velocity": 0.23622047244094488
          },
          {
            "duration": 0.08571425000000232,
            "durationTicks": 96,
            "midi": 69,
            "name": "A4",
            "ticks": 59328,
            "time": 52.9714065,
            "velocity": 0.23622047244094488
          },
          {
            "duration": 0.08571425000000232,
            "durationTicks": 96,
            "midi": 73,
            "name": "C#5",
            "ticks": 59328,
            "time": 52.9714065,
            "velocity": 0.23622047244094488
          },
          {
            "duration": 0.08571424999999522,
            "durationTicks": 96,
            "midi": 44,
            "name": "G#2",
            "ticks": 59520,
            "time": 53.142835000000005,
            "velocity": 0.23622047244094488
          },
          {
            "duration": 0.08571424999999522,
            "durationTicks": 96,
            "midi": 79,
            "name": "G5",
            "ticks": 59520,
            "time": 53.142835000000005,
            "velocity": 0.23622047244094488
          },
          {
            "duration": 0.08571425000000232,
            "durationTicks": 96,
            "midi": 81,
            "name": "A5",
            "ticks": 59616,
            "time": 53.22854925,
            "velocity": 0.23622047244094488
          },
          {
            "duration": 0.08571425000000232,
            "durationTicks": 96,
            "midi": 69,
            "name": "A4",
            "ticks": 59712,
            "time": 53.3142635,
            "velocity": 0.23622047244094488
          },
          {
            "duration": 0.08571425000000232,
            "durationTicks": 96,
            "midi": 41,
            "name": "F2",
            "ticks": 59712,
            "time": 53.3142635,
            "velocity": 0.23622047244094488
          },
          {
            "duration": 0.08571425000000232,
            "durationTicks": 96,
            "midi": 79,
            "name": "G5",
            "ticks": 59712,
            "time": 53.3142635,
            "velocity": 0.23622047244094488
          },
          {
            "duration": 0.08571425000000232,
            "durationTicks": 96,
            "midi": 73,
            "name": "C#5",
            "ticks": 59712,
            "time": 53.3142635,
            "velocity": 0.23622047244094488
          },
          {
            "duration": 0.08571424999999522,
            "durationTicks": 96,
            "midi": 81,
            "name": "A5",
            "ticks": 59808,
            "time": 53.399977750000005,
            "velocity": 0.23622047244094488
          },
          {
            "duration": 0.08571425000000232,
            "durationTicks": 96,
            "midi": 57,
            "name": "A3",
            "ticks": 59904,
            "time": 53.485692,
            "velocity": 0.23622047244094488
          },
          {
            "duration": 0.08571425000000232,
            "durationTicks": 96,
            "midi": 61,
            "name": "C#4",
            "ticks": 59904,
            "time": 53.485692,
            "velocity": 0.23622047244094488
          },
          {
            "duration": 0.08571425000000232,
            "durationTicks": 96,
            "midi": 73,
            "name": "C#5",
            "ticks": 59904,
            "time": 53.485692,
            "velocity": 0.23622047244094488
          },
          {
            "duration": 0.08571425000000232,
            "durationTicks": 96,
            "midi": 39,
            "name": "D#2",
            "ticks": 59904,
            "time": 53.485692,
            "velocity": 0.23622047244094488
          },
          {
            "duration": 0.08571424999999522,
            "durationTicks": 96,
            "midi": 81,
            "name": "A5",
            "ticks": 60096,
            "time": 53.657120500000005,
            "velocity": 0.23622047244094488
          },
          {
            "duration": 0.08571424999999522,
            "durationTicks": 96,
            "midi": 69,
            "name": "A4",
            "ticks": 60096,
            "time": 53.657120500000005,
            "velocity": 0.23622047244094488
          },
          {
            "duration": 0.08571424999999522,
            "durationTicks": 96,
            "midi": 65,
            "name": "F4",
            "ticks": 60096,
            "time": 53.657120500000005,
            "velocity": 0.23622047244094488
          },
          {
            "duration": 0.08571424999999522,
            "durationTicks": 96,
            "midi": 41,
            "name": "F2",
            "ticks": 60096,
            "time": 53.657120500000005,
            "velocity": 0.23622047244094488
          },
          {
            "duration": 0.08571425000000232,
            "durationTicks": 96,
            "midi": 44,
            "name": "G#2",
            "ticks": 60288,
            "time": 53.828549,
            "velocity": 0.23622047244094488
          },
          {
            "duration": 0.08571425000000232,
            "durationTicks": 96,
            "midi": 79,
            "name": "G5",
            "ticks": 60288,
            "time": 53.828549,
            "velocity": 0.23622047244094488
          },
          {
            "duration": 0.08571425000000232,
            "durationTicks": 96,
            "midi": 57,
            "name": "A3",
            "ticks": 60288,
            "time": 53.828549,
            "velocity": 0.23622047244094488
          },
          {
            "duration": 0.08571425000000232,
            "durationTicks": 96,
            "midi": 61,
            "name": "C#4",
            "ticks": 60288,
            "time": 53.828549,
            "velocity": 0.23622047244094488
          },
          {
            "duration": 0.08571425000000232,
            "durationTicks": 96,
            "midi": 81,
            "name": "A5",
            "ticks": 60384,
            "time": 53.914263250000005,
            "velocity": 0.23622047244094488
          },
          {
            "duration": 0.08571424999999522,
            "durationTicks": 96,
            "midi": 73,
            "name": "C#5",
            "ticks": 60480,
            "time": 53.99997750000001,
            "velocity": 0.23622047244094488
          },
          {
            "duration": 0.08571424999999522,
            "durationTicks": 96,
            "midi": 79,
            "name": "G5",
            "ticks": 60480,
            "time": 53.99997750000001,
            "velocity": 0.23622047244094488
          },
          {
            "duration": 0.08571424999999522,
            "durationTicks": 96,
            "midi": 39,
            "name": "D#2",
            "ticks": 60480,
            "time": 53.99997750000001,
            "velocity": 0.23622047244094488
          },
          {
            "duration": 0.08571424999999522,
            "durationTicks": 96,
            "midi": 69,
            "name": "A4",
            "ticks": 60480,
            "time": 53.99997750000001,
            "velocity": 0.23622047244094488
          },
          {
            "duration": 0.08571425000000232,
            "durationTicks": 96,
            "midi": 81,
            "name": "A5",
            "ticks": 60576,
            "time": 54.08569175,
            "velocity": 0.23622047244094488
          },
          {
            "duration": 0.08571425000000232,
            "durationTicks": 96,
            "midi": 85,
            "name": "C#6",
            "ticks": 60672,
            "time": 54.171406000000005,
            "velocity": 0.23622047244094488
          },
          {
            "duration": 0.08571425000000232,
            "durationTicks": 96,
            "midi": 57,
            "name": "A3",
            "ticks": 60672,
            "time": 54.171406000000005,
            "velocity": 0.23622047244094488
          },
          {
            "duration": 0.08571425000000232,
            "durationTicks": 96,
            "midi": 61,
            "name": "C#4",
            "ticks": 60672,
            "time": 54.171406000000005,
            "velocity": 0.23622047244094488
          },
          {
            "duration": 0.08571425000000232,
            "durationTicks": 96,
            "midi": 44,
            "name": "G#2",
            "ticks": 60672,
            "time": 54.171406000000005,
            "velocity": 0.23622047244094488
          },
          {
            "duration": 0.08571425000000232,
            "durationTicks": 96,
            "midi": 69,
            "name": "A4",
            "ticks": 60864,
            "time": 54.3428345,
            "velocity": 0.23622047244094488
          },
          {
            "duration": 0.08571425000000232,
            "durationTicks": 96,
            "midi": 39,
            "name": "D#2",
            "ticks": 60864,
            "time": 54.3428345,
            "velocity": 0.23622047244094488
          },
          {
            "duration": 0.08571425000000232,
            "durationTicks": 96,
            "midi": 88,
            "name": "E6",
            "ticks": 60864,
            "time": 54.3428345,
            "velocity": 0.23622047244094488
          },
          {
            "duration": 0.08571425000000232,
            "durationTicks": 96,
            "midi": 76,
            "name": "E5",
            "ticks": 60864,
            "time": 54.3428345,
            "velocity": 0.23622047244094488
          },
          {
            "duration": 0.08571424999999522,
            "durationTicks": 96,
            "midi": 57,
            "name": "A3",
            "ticks": 61056,
            "time": 54.51426300000001,
            "velocity": 0.23622047244094488
          },
          {
            "duration": 0.08571424999999522,
            "durationTicks": 96,
            "midi": 44,
            "name": "G#2",
            "ticks": 61056,
            "time": 54.51426300000001,
            "velocity": 0.23622047244094488
          },
          {
            "duration": 0.08571424999999522,
            "durationTicks": 96,
            "midi": 85,
            "name": "C#6",
            "ticks": 61056,
            "time": 54.51426300000001,
            "velocity": 0.23622047244094488
          },
          {
            "duration": 0.08571425000000232,
            "durationTicks": 96,
            "midi": 81,
            "name": "A5",
            "ticks": 61248,
            "time": 54.685691500000004,
            "velocity": 0.23622047244094488
          },
          {
            "duration": 0.08571425000000232,
            "durationTicks": 96,
            "midi": 41,
            "name": "F2",
            "ticks": 61248,
            "time": 54.685691500000004,
            "velocity": 0.23622047244094488
          },
          {
            "duration": 0.08571425000000232,
            "durationTicks": 96,
            "midi": 76,
            "name": "E5",
            "ticks": 61248,
            "time": 54.685691500000004,
            "velocity": 0.23622047244094488
          },
          {
            "duration": 0.08571425000000232,
            "durationTicks": 96,
            "midi": 81,
            "name": "A5",
            "ticks": 61248,
            "time": 54.685691500000004,
            "velocity": 0.23622047244094488
          },
          {
            "duration": 0.08571425000000232,
            "durationTicks": 96,
            "midi": 57,
            "name": "A3",
            "ticks": 61440,
            "time": 54.85712,
            "velocity": 0.23622047244094488
          },
          {
            "duration": 0.08571425000000232,
            "durationTicks": 96,
            "midi": 69,
            "name": "A4",
            "ticks": 61440,
            "time": 54.85712,
            "velocity": 0.23622047244094488
          },
          {
            "duration": 0.08571425000000232,
            "durationTicks": 96,
            "midi": 39,
            "name": "D#2",
            "ticks": 61440,
            "time": 54.85712,
            "velocity": 0.23622047244094488
          },
          {
            "duration": 0.08571425000000232,
            "durationTicks": 96,
            "midi": 57,
            "name": "A3",
            "ticks": 61440,
            "time": 54.85712,
            "velocity": 0.23622047244094488
          },
          {
            "duration": 0.08571424999999522,
            "durationTicks": 96,
            "midi": 41,
            "name": "F2",
            "ticks": 61632,
            "time": 55.02854850000001,
            "velocity": 0.23622047244094488
          },
          {
            "duration": 0.08571424999999522,
            "durationTicks": 96,
            "midi": 65,
            "name": "F4",
            "ticks": 61632,
            "time": 55.02854850000001,
            "velocity": 0.23622047244094488
          },
          {
            "duration": 0.08571424999999522,
            "durationTicks": 96,
            "midi": 77,
            "name": "F5",
            "ticks": 61632,
            "time": 55.02854850000001,
            "velocity": 0.23622047244094488
          },
          {
            "duration": 0.08571424999999522,
            "durationTicks": 96,
            "midi": 62,
            "name": "D4",
            "ticks": 61632,
            "time": 55.02854850000001,
            "velocity": 0.23622047244094488
          },
          {
            "duration": 0.08571425000000232,
            "durationTicks": 96,
            "midi": 76,
            "name": "E5",
            "ticks": 61824,
            "time": 55.199977000000004,
            "velocity": 0.23622047244094488
          },
          {
            "duration": 0.08571425000000232,
            "durationTicks": 96,
            "midi": 44,
            "name": "G#2",
            "ticks": 61824,
            "time": 55.199977000000004,
            "velocity": 0.23622047244094488
          },
          {
            "duration": 0.08571424999999522,
            "durationTicks": 96,
            "midi": 77,
            "name": "F5",
            "ticks": 61920,
            "time": 55.285691250000006,
            "velocity": 0.23622047244094488
          },
          {
            "duration": 0.08571425000000232,
            "durationTicks": 96,
            "midi": 76,
            "name": "E5",
            "ticks": 62016,
            "time": 55.3714055,
            "velocity": 0.23622047244094488
          },
          {
            "duration": 0.08571425000000232,
            "durationTicks": 96,
            "midi": 65,
            "name": "F4",
            "ticks": 62016,
            "time": 55.3714055,
            "velocity": 0.23622047244094488
          },
          {
            "duration": 0.08571425000000232,
            "durationTicks": 96,
            "midi": 62,
            "name": "D4",
            "ticks": 62016,
            "time": 55.3714055,
            "velocity": 0.23622047244094488
          },
          {
            "duration": 0.08571425000000232,
            "durationTicks": 96,
            "midi": 39,
            "name": "D#2",
            "ticks": 62016,
            "time": 55.3714055,
            "velocity": 0.23622047244094488
          },
          {
            "duration": 0.08571424999999522,
            "durationTicks": 96,
            "midi": 60,
            "name": "C4",
            "ticks": 62208,
            "time": 55.542834000000006,
            "velocity": 0.23622047244094488
          },
          {
            "duration": 0.08571424999999522,
            "durationTicks": 96,
            "midi": 79,
            "name": "G5",
            "ticks": 62208,
            "time": 55.542834000000006,
            "velocity": 0.23622047244094488
          },
          {
            "duration": 0.08571425000000232,
            "durationTicks": 96,
            "midi": 77,
            "name": "F5",
            "ticks": 62400,
            "time": 55.714262500000004,
            "velocity": 0.23622047244094488
          },
          {
            "duration": 0.08571425000000232,
            "durationTicks": 96,
            "midi": 67,
            "name": "G4",
            "ticks": 62400,
            "time": 55.714262500000004,
            "velocity": 0.23622047244094488
          },
          {
            "duration": 0.08571425000000232,
            "durationTicks": 96,
            "midi": 39,
            "name": "D#2",
            "ticks": 62400,
            "time": 55.714262500000004,
            "velocity": 0.23622047244094488
          },
          {
            "duration": 0.08571425000000232,
            "durationTicks": 96,
            "midi": 64,
            "name": "E4",
            "ticks": 62400,
            "time": 55.714262500000004,
            "velocity": 0.23622047244094488
          },
          {
            "duration": 0.08571425000000232,
            "durationTicks": 96,
            "midi": 44,
            "name": "G#2",
            "ticks": 62592,
            "time": 55.885691,
            "velocity": 0.23622047244094488
          },
          {
            "duration": 0.08571425000000232,
            "durationTicks": 96,
            "midi": 76,
            "name": "E5",
            "ticks": 62592,
            "time": 55.885691,
            "velocity": 0.23622047244094488
          },
          {
            "duration": 0.08571425000000232,
            "durationTicks": 96,
            "midi": 77,
            "name": "F5",
            "ticks": 62688,
            "time": 55.971405250000004,
            "velocity": 0.23622047244094488
          },
          {
            "duration": 0.08571424999999522,
            "durationTicks": 96,
            "midi": 67,
            "name": "G4",
            "ticks": 62784,
            "time": 56.057119500000006,
            "velocity": 0.23622047244094488
          },
          {
            "duration": 0.08571424999999522,
            "durationTicks": 96,
            "midi": 64,
            "name": "E4",
            "ticks": 62784,
            "time": 56.057119500000006,
            "velocity": 0.23622047244094488
          },
          {
            "duration": 0.08571424999999522,
            "durationTicks": 96,
            "midi": 41,
            "name": "F2",
            "ticks": 62784,
            "time": 56.057119500000006,
            "velocity": 0.23622047244094488
          },
          {
            "duration": 0.08571424999999522,
            "durationTicks": 96,
            "midi": 76,
            "name": "E5",
            "ticks": 62784,
            "time": 56.057119500000006,
            "velocity": 0.23622047244094488
          },
          {
            "duration": 0.08571425000000232,
            "durationTicks": 96,
            "midi": 72,
            "name": "C5",
            "ticks": 62880,
            "time": 56.14283375,
            "velocity": 0.23622047244094488
          },
          {
            "duration": 0.08571425000000232,
            "durationTicks": 96,
            "midi": 39,
            "name": "D#2",
            "ticks": 62976,
            "time": 56.228548,
            "velocity": 0.23622047244094488
          },
          {
            "duration": 0.08571425000000232,
            "durationTicks": 96,
            "midi": 62,
            "name": "D4",
            "ticks": 62976,
            "time": 56.228548,
            "velocity": 0.23622047244094488
          },
          {
            "duration": 0.08571425000000232,
            "durationTicks": 96,
            "midi": 74,
            "name": "D5",
            "ticks": 62976,
            "time": 56.228548,
            "velocity": 0.23622047244094488
          },
          {
            "duration": 0.08571425000000232,
            "durationTicks": 96,
            "midi": 41,
            "name": "F2",
            "ticks": 63168,
            "time": 56.3999765,
            "velocity": 0.23622047244094488
          },
          {
            "duration": 0.08571425000000232,
            "durationTicks": 96,
            "midi": 65,
            "name": "F4",
            "ticks": 63168,
            "time": 56.3999765,
            "velocity": 0.23622047244094488
          },
          {
            "duration": 0.08571425000000232,
            "durationTicks": 96,
            "midi": 81,
            "name": "A5",
            "ticks": 63168,
            "time": 56.3999765,
            "velocity": 0.23622047244094488
          },
          {
            "duration": 0.08571425000000232,
            "durationTicks": 96,
            "midi": 69,
            "name": "A4",
            "ticks": 63168,
            "time": 56.3999765,
            "velocity": 0.23622047244094488
          },
          {
            "duration": 0.08571424999999522,
            "durationTicks": 96,
            "midi": 79,
            "name": "G5",
            "ticks": 63360,
            "time": 56.571405000000006,
            "velocity": 0.23622047244094488
          },
          {
            "duration": 0.08571424999999522,
            "durationTicks": 96,
            "midi": 44,
            "name": "G#2",
            "ticks": 63360,
            "time": 56.571405000000006,
            "velocity": 0.23622047244094488
          },
          {
            "duration": 0.08571425000000232,
            "durationTicks": 96,
            "midi": 81,
            "name": "A5",
            "ticks": 63456,
            "time": 56.65711925,
            "velocity": 0.23622047244094488
          },
          {
            "duration": 0.08571425000000232,
            "durationTicks": 96,
            "midi": 69,
            "name": "A4",
            "ticks": 63552,
            "time": 56.7428335,
            "velocity": 0.23622047244094488
          },
          {
            "duration": 0.08571425000000232,
            "durationTicks": 96,
            "midi": 65,
            "name": "F4",
            "ticks": 63552,
            "time": 56.7428335,
            "velocity": 0.23622047244094488
          },
          {
            "duration": 0.08571425000000232,
            "durationTicks": 96,
            "midi": 79,
            "name": "G5",
            "ticks": 63552,
            "time": 56.7428335,
            "velocity": 0.23622047244094488
          },
          {
            "duration": 0.08571425000000232,
            "durationTicks": 96,
            "midi": 39,
            "name": "D#2",
            "ticks": 63552,
            "time": 56.7428335,
            "velocity": 0.23622047244094488
          },
          {
            "duration": 0.08571424999999522,
            "durationTicks": 96,
            "midi": 81,
            "name": "A5",
            "ticks": 63648,
            "time": 56.828547750000006,
            "velocity": 0.23622047244094488
          },
          {
            "duration": 0.08571425000000232,
            "durationTicks": 96,
            "midi": 62,
            "name": "D4",
            "ticks": 63744,
            "time": 56.914262,
            "velocity": 0.23622047244094488
          },
          {
            "duration": 0.08571425000000232,
            "durationTicks": 96,
            "midi": 84,
            "name": "C6",
            "ticks": 63744,
            "time": 56.914262,
            "velocity": 0.23622047244094488
          },
          {
            "duration": 0.08571424999999522,
            "durationTicks": 96,
            "midi": 69,
            "name": "A4",
            "ticks": 63936,
            "time": 57.085690500000005,
            "velocity": 0.23622047244094488
          },
          {
            "duration": 0.08571424999999522,
            "durationTicks": 96,
            "midi": 81,
            "name": "A5",
            "ticks": 63936,
            "time": 57.085690500000005,
            "velocity": 0.23622047244094488
          },
          {
            "duration": 0.08571424999999522,
            "durationTicks": 96,
            "midi": 65,
            "name": "F4",
            "ticks": 63936,
            "time": 57.085690500000005,
            "velocity": 0.23622047244094488
          },
          {
            "duration": 0.08571424999999522,
            "durationTicks": 96,
            "midi": 39,
            "name": "D#2",
            "ticks": 63936,
            "time": 57.085690500000005,
            "velocity": 0.23622047244094488
          },
          {
            "duration": 0.08571425000000232,
            "durationTicks": 96,
            "midi": 44,
            "name": "G#2",
            "ticks": 64128,
            "time": 57.257119,
            "velocity": 0.23622047244094488
          },
          {
            "duration": 0.08571425000000232,
            "durationTicks": 96,
            "midi": 79,
            "name": "G5",
            "ticks": 64128,
            "time": 57.257119,
            "velocity": 0.23622047244094488
          },
          {
            "duration": 0.08571425000000232,
            "durationTicks": 96,
            "midi": 81,
            "name": "A5",
            "ticks": 64320,
            "time": 57.4285475,
            "velocity": 0.23622047244094488
          },
          {
            "duration": 0.08571425000000232,
            "durationTicks": 96,
            "midi": 65,
            "name": "F4",
            "ticks": 64320,
            "time": 57.4285475,
            "velocity": 0.23622047244094488
          },
          {
            "duration": 0.08571425000000232,
            "durationTicks": 96,
            "midi": 69,
            "name": "A4",
            "ticks": 64320,
            "time": 57.4285475,
            "velocity": 0.23622047244094488
          },
          {
            "duration": 0.08571425000000232,
            "durationTicks": 96,
            "midi": 41,
            "name": "F2",
            "ticks": 64320,
            "time": 57.4285475,
            "velocity": 0.23622047244094488
          },
          {
            "duration": 0.08571424999999522,
            "durationTicks": 96,
            "midi": 70,
            "name": "A#4",
            "ticks": 64512,
            "time": 57.599976000000005,
            "velocity": 0.23622047244094488
          },
          {
            "duration": 0.08571424999999522,
            "durationTicks": 96,
            "midi": 39,
            "name": "D#2",
            "ticks": 64512,
            "time": 57.599976000000005,
            "velocity": 0.23622047244094488
          },
          {
            "duration": 0.08571424999999522,
            "durationTicks": 96,
            "midi": 58,
            "name": "A#3",
            "ticks": 64512,
            "time": 57.599976000000005,
            "velocity": 0.23622047244094488
          },
          {
            "duration": 0.08571424999999522,
            "durationTicks": 96,
            "midi": 57,
            "name": "A3",
            "ticks": 64512,
            "time": 57.599976000000005,
            "velocity": 0.23622047244094488
          },
          {
            "duration": 0.08571425000000232,
            "durationTicks": 96,
            "midi": 77,
            "name": "F5",
            "ticks": 64704,
            "time": 57.7714045,
            "velocity": 0.23622047244094488
          },
          {
            "duration": 0.08571425000000232,
            "durationTicks": 96,
            "midi": 41,
            "name": "F2",
            "ticks": 64704,
            "time": 57.7714045,
            "velocity": 0.23622047244094488
          },
          {
            "duration": 0.08571425000000232,
            "durationTicks": 96,
            "midi": 62,
            "name": "D4",
            "ticks": 64704,
            "time": 57.7714045,
            "velocity": 0.23622047244094488
          },
          {
            "duration": 0.08571425000000232,
            "durationTicks": 96,
            "midi": 65,
            "name": "F4",
            "ticks": 64704,
            "time": 57.7714045,
            "velocity": 0.23622047244094488
          },
          {
            "duration": 0.08571424999999522,
            "durationTicks": 96,
            "midi": 76,
            "name": "E5",
            "ticks": 64896,
            "time": 57.94283300000001,
            "velocity": 0.23622047244094488
          },
          {
            "duration": 0.08571424999999522,
            "durationTicks": 96,
            "midi": 44,
            "name": "G#2",
            "ticks": 64896,
            "time": 57.94283300000001,
            "velocity": 0.23622047244094488
          },
          {
            "duration": 0.08571425000000232,
            "durationTicks": 96,
            "midi": 77,
            "name": "F5",
            "ticks": 64992,
            "time": 58.02854725,
            "velocity": 0.23622047244094488
          },
          {
            "duration": 0.08571425000000232,
            "durationTicks": 96,
            "midi": 62,
            "name": "D4",
            "ticks": 65088,
            "time": 58.114261500000005,
            "velocity": 0.23622047244094488
          },
          {
            "duration": 0.08571425000000232,
            "durationTicks": 96,
            "midi": 65,
            "name": "F4",
            "ticks": 65088,
            "time": 58.114261500000005,
            "velocity": 0.23622047244094488
          },
          {
            "duration": 0.08571425000000232,
            "durationTicks": 96,
            "midi": 39,
            "name": "D#2",
            "ticks": 65088,
            "time": 58.114261500000005,
            "velocity": 0.23622047244094488
          },
          {
            "duration": 0.08571425000000232,
            "durationTicks": 96,
            "midi": 76,
            "name": "E5",
            "ticks": 65088,
            "time": 58.114261500000005,
            "velocity": 0.23622047244094488
          },
          {
            "duration": 0.08571425000000232,
            "durationTicks": 96,
            "midi": 79,
            "name": "G5",
            "ticks": 65280,
            "time": 58.28569,
            "velocity": 0.23622047244094488
          },
          {
            "duration": 0.08571425000000232,
            "durationTicks": 96,
            "midi": 60,
            "name": "C4",
            "ticks": 65280,
            "time": 58.28569,
            "velocity": 0.23622047244094488
          },
          {
            "duration": 0.08571424999999522,
            "durationTicks": 96,
            "midi": 77,
            "name": "F5",
            "ticks": 65472,
            "time": 58.45711850000001,
            "velocity": 0.23622047244094488
          },
          {
            "duration": 0.08571424999999522,
            "durationTicks": 96,
            "midi": 67,
            "name": "G4",
            "ticks": 65472,
            "time": 58.45711850000001,
            "velocity": 0.23622047244094488
          },
          {
            "duration": 0.08571424999999522,
            "durationTicks": 96,
            "midi": 39,
            "name": "D#2",
            "ticks": 65472,
            "time": 58.45711850000001,
            "velocity": 0.23622047244094488
          },
          {
            "duration": 0.08571424999999522,
            "durationTicks": 96,
            "midi": 64,
            "name": "E4",
            "ticks": 65472,
            "time": 58.45711850000001,
            "velocity": 0.23622047244094488
          },
          {
            "duration": 0.08571425000000232,
            "durationTicks": 96,
            "midi": 44,
            "name": "G#2",
            "ticks": 65664,
            "time": 58.628547000000005,
            "velocity": 0.23622047244094488
          },
          {
            "duration": 0.08571425000000232,
            "durationTicks": 96,
            "midi": 76,
            "name": "E5",
            "ticks": 65664,
            "time": 58.628547000000005,
            "velocity": 0.23622047244094488
          },
          {
            "duration": 0.08571424999999522,
            "durationTicks": 96,
            "midi": 77,
            "name": "F5",
            "ticks": 65760,
            "time": 58.71426125000001,
            "velocity": 0.23622047244094488
          },
          {
            "duration": 0.08571425000000232,
            "durationTicks": 96,
            "midi": 41,
            "name": "F2",
            "ticks": 65856,
            "time": 58.7999755,
            "velocity": 0.23622047244094488
          },
          {
            "duration": 0.08571425000000232,
            "durationTicks": 96,
            "midi": 64,
            "name": "E4",
            "ticks": 65856,
            "time": 58.7999755,
            "velocity": 0.23622047244094488
          },
          {
            "duration": 0.08571425000000232,
            "durationTicks": 96,
            "midi": 67,
            "name": "G4",
            "ticks": 65856,
            "time": 58.7999755,
            "velocity": 0.23622047244094488
          },
          {
            "duration": 0.08571425000000232,
            "durationTicks": 96,
            "midi": 76,
            "name": "E5",
            "ticks": 65856,
            "time": 58.7999755,
            "velocity": 0.23622047244094488
          },
          {
            "duration": 0.08571425000000232,
            "durationTicks": 96,
            "midi": 72,
            "name": "C5",
            "ticks": 65952,
            "time": 58.885689750000004,
            "velocity": 0.23622047244094488
          },
          {
            "duration": 0.08571424999999522,
            "durationTicks": 96,
            "midi": 39,
            "name": "D#2",
            "ticks": 66048,
            "time": 58.97140400000001,
            "velocity": 0.23622047244094488
          },
          {
            "duration": 0.08571424999999522,
            "durationTicks": 96,
            "midi": 74,
            "name": "D5",
            "ticks": 66048,
            "time": 58.97140400000001,
            "velocity": 0.23622047244094488
          },
          {
            "duration": 0.08571424999999522,
            "durationTicks": 96,
            "midi": 62,
            "name": "D4",
            "ticks": 66048,
            "time": 58.97140400000001,
            "velocity": 0.23622047244094488
          },
          {
            "duration": 0.08571424999999522,
            "durationTicks": 96,
            "midi": 57,
            "name": "A3",
            "ticks": 66048,
            "time": 58.97140400000001,
            "velocity": 0.23622047244094488
          },
          {
            "duration": 0.08571425000000232,
            "durationTicks": 96,
            "midi": 41,
            "name": "F2",
            "ticks": 66240,
            "time": 59.142832500000004,
            "velocity": 0.23622047244094488
          },
          {
            "duration": 0.08571425000000232,
            "durationTicks": 96,
            "midi": 81,
            "name": "A5",
            "ticks": 66240,
            "time": 59.142832500000004,
            "velocity": 0.23622047244094488
          },
          {
            "duration": 0.08571425000000232,
            "durationTicks": 96,
            "midi": 69,
            "name": "A4",
            "ticks": 66240,
            "time": 59.142832500000004,
            "velocity": 0.23622047244094488
          },
          {
            "duration": 0.08571425000000232,
            "durationTicks": 96,
            "midi": 65,
            "name": "F4",
            "ticks": 66240,
            "time": 59.142832500000004,
            "velocity": 0.23622047244094488
          },
          {
            "duration": 0.08571425000000232,
            "durationTicks": 96,
            "midi": 79,
            "name": "G5",
            "ticks": 66432,
            "time": 59.314261,
            "velocity": 0.23622047244094488
          },
          {
            "duration": 0.08571425000000232,
            "durationTicks": 96,
            "midi": 64,
            "name": "E4",
            "ticks": 66432,
            "time": 59.314261,
            "velocity": 0.23622047244094488
          },
          {
            "duration": 0.08571425000000232,
            "durationTicks": 96,
            "midi": 44,
            "name": "G#2",
            "ticks": 66432,
            "time": 59.314261,
            "velocity": 0.23622047244094488
          },
          {
            "duration": 0.08571425000000232,
            "durationTicks": 96,
            "midi": 81,
            "name": "A5",
            "ticks": 66528,
            "time": 59.399975250000004,
            "velocity": 0.23622047244094488
          },
          {
            "duration": 0.08571424999999522,
            "durationTicks": 96,
            "midi": 79,
            "name": "G5",
            "ticks": 66624,
            "time": 59.48568950000001,
            "velocity": 0.23622047244094488
          },
          {
            "duration": 0.08571424999999522,
            "durationTicks": 96,
            "midi": 39,
            "name": "D#2",
            "ticks": 66624,
            "time": 59.48568950000001,
            "velocity": 0.23622047244094488
          },
          {
            "duration": 0.08571424999999522,
            "durationTicks": 96,
            "midi": 67,
            "name": "G4",
            "ticks": 66624,
            "time": 59.48568950000001,
            "velocity": 0.23622047244094488
          },
          {
            "duration": 0.08571424999999522,
            "durationTicks": 96,
            "midi": 72,
            "name": "C5",
            "ticks": 66624,
            "time": 59.48568950000001,
            "velocity": 0.23622047244094488
          },
          {
            "duration": 0.08571425000000232,
            "durationTicks": 96,
            "midi": 81,
            "name": "A5",
            "ticks": 66720,
            "time": 59.57140375,
            "velocity": 0.23622047244094488
          },
          {
            "duration": 0.08571425000000232,
            "durationTicks": 96,
            "midi": 57,
            "name": "A3",
            "ticks": 66816,
            "time": 59.657118000000004,
            "velocity": 0.23622047244094488
          },
          {
            "duration": 0.08571425000000232,
            "durationTicks": 96,
            "midi": 65,
            "name": "F4",
            "ticks": 66816,
            "time": 59.657118000000004,
            "velocity": 0.23622047244094488
          },
          {
            "duration": 0.08571425000000232,
            "durationTicks": 96,
            "midi": 44,
            "name": "G#2",
            "ticks": 66816,
            "time": 59.657118000000004,
            "velocity": 0.23622047244094488
          },
          {
            "duration": 0.08571425000000232,
            "durationTicks": 96,
            "midi": 85,
            "name": "C#6",
            "ticks": 66816,
            "time": 59.657118000000004,
            "velocity": 0.23622047244094488
          },
          {
            "duration": 0.08571425000000232,
            "durationTicks": 96,
            "midi": 39,
            "name": "D#2",
            "ticks": 67008,
            "time": 59.8285465,
            "velocity": 0.23622047244094488
          },
          {
            "duration": 0.08571425000000232,
            "durationTicks": 96,
            "midi": 81,
            "name": "A5",
            "ticks": 67008,
            "time": 59.8285465,
            "velocity": 0.23622047244094488
          },
          {
            "duration": 0.08571425000000232,
            "durationTicks": 96,
            "midi": 69,
            "name": "A4",
            "ticks": 67008,
            "time": 59.8285465,
            "velocity": 0.23622047244094488
          },
          {
            "duration": 0.08571425000000232,
            "durationTicks": 96,
            "midi": 74,
            "name": "D5",
            "ticks": 67008,
            "time": 59.8285465,
            "velocity": 0.23622047244094488
          },
          {
            "duration": 0.08571424999999522,
            "durationTicks": 96,
            "midi": 44,
            "name": "G#2",
            "ticks": 67200,
            "time": 59.999975000000006,
            "velocity": 0.23622047244094488
          },
          {
            "duration": 0.08571424999999522,
            "durationTicks": 96,
            "midi": 79,
            "name": "G5",
            "ticks": 67200,
            "time": 59.999975000000006,
            "velocity": 0.23622047244094488
          },
          {
            "duration": 0.08571424999999522,
            "durationTicks": 96,
            "midi": 62,
            "name": "D4",
            "ticks": 67200,
            "time": 59.999975000000006,
            "velocity": 0.23622047244094488
          },
          {
            "duration": 0.08571425000000232,
            "durationTicks": 96,
            "midi": 41,
            "name": "F2",
            "ticks": 67392,
            "time": 60.171403500000004,
            "velocity": 0.23622047244094488
          },
          {
            "duration": 0.08571425000000232,
            "durationTicks": 96,
            "midi": 64,
            "name": "E4",
            "ticks": 67392,
            "time": 60.171403500000004,
            "velocity": 0.23622047244094488
          },
          {
            "duration": 0.08571425000000232,
            "durationTicks": 96,
            "midi": 69,
            "name": "A4",
            "ticks": 67392,
            "time": 60.171403500000004,
            "velocity": 0.23622047244094488
          },
          {
            "duration": 0.08571425000000232,
            "durationTicks": 96,
            "midi": 76,
            "name": "E5",
            "ticks": 67392,
            "time": 60.171403500000004,
            "velocity": 0.23622047244094488
          },
          {
            "duration": 0.08571425000000232,
            "durationTicks": 96,
            "midi": 57,
            "name": "A3",
            "ticks": 67584,
            "time": 60.342832,
            "velocity": 0.23622047244094488
          },
          {
            "duration": 0.08571425000000232,
            "durationTicks": 96,
            "midi": 39,
            "name": "D#2",
            "ticks": 67584,
            "time": 60.342832,
            "velocity": 0.23622047244094488
          },
          {
            "duration": 0.08571425000000232,
            "durationTicks": 96,
            "midi": 57,
            "name": "A3",
            "ticks": 67584,
            "time": 60.342832,
            "velocity": 0.23622047244094488
          },
          {
            "duration": 0.08571425000000232,
            "durationTicks": 96,
            "midi": 77,
            "name": "F5",
            "ticks": 67584,
            "time": 60.342832,
            "velocity": 0.23622047244094488
          },
          {
            "duration": 0.08571424999999522,
            "durationTicks": 96,
            "midi": 64,
            "name": "E4",
            "ticks": 67776,
            "time": 60.514260500000006,
            "velocity": 0.23622047244094488
          },
          {
            "duration": 0.08571424999999522,
            "durationTicks": 96,
            "midi": 67,
            "name": "G4",
            "ticks": 67776,
            "time": 60.514260500000006,
            "velocity": 0.23622047244094488
          },
          {
            "duration": 0.08571424999999522,
            "durationTicks": 96,
            "midi": 76,
            "name": "E5",
            "ticks": 67776,
            "time": 60.514260500000006,
            "velocity": 0.23622047244094488
          },
          {
            "duration": 0.08571424999999522,
            "durationTicks": 96,
            "midi": 41,
            "name": "F2",
            "ticks": 67776,
            "time": 60.514260500000006,
            "velocity": 0.23622047244094488
          },
          {
            "duration": 0.08571425000000232,
            "durationTicks": 96,
            "midi": 77,
            "name": "F5",
            "ticks": 67872,
            "time": 60.59997475,
            "velocity": 0.23622047244094488
          },
          {
            "duration": 0.08571425000000232,
            "durationTicks": 96,
            "midi": 76,
            "name": "E5",
            "ticks": 67968,
            "time": 60.685689,
            "velocity": 0.23622047244094488
          },
          {
            "duration": 0.08571425000000232,
            "durationTicks": 96,
            "midi": 44,
            "name": "G#2",
            "ticks": 67968,
            "time": 60.685689,
            "velocity": 0.23622047244094488
          },
          {
            "duration": 0.08571425000000232,
            "durationTicks": 96,
            "midi": 67,
            "name": "G4",
            "ticks": 68160,
            "time": 60.8571175,
            "velocity": 0.23622047244094488
          },
          {
            "duration": 0.08571425000000232,
            "durationTicks": 96,
            "midi": 39,
            "name": "D#2",
            "ticks": 68160,
            "time": 60.8571175,
            "velocity": 0.23622047244094488
          },
          {
            "duration": 0.08571425000000232,
            "durationTicks": 96,
            "midi": 72,
            "name": "C5",
            "ticks": 68160,
            "time": 60.8571175,
            "velocity": 0.23622047244094488
          },
          {
            "duration": 0.08571425000000232,
            "durationTicks": 96,
            "midi": 64,
            "name": "E4",
            "ticks": 68160,
            "time": 60.8571175,
            "velocity": 0.23622047244094488
          },
          {
            "duration": 0.08571424999999522,
            "durationTicks": 96,
            "midi": 55,
            "name": "G3",
            "ticks": 68352,
            "time": 61.028546000000006,
            "velocity": 0.23622047244094488
          },
          {
            "duration": 0.08571424999999522,
            "durationTicks": 96,
            "midi": 74,
            "name": "D5",
            "ticks": 68352,
            "time": 61.028546000000006,
            "velocity": 0.23622047244094488
          },
          {
            "duration": 0.08571425000000232,
            "durationTicks": 96,
            "midi": 72,
            "name": "C5",
            "ticks": 68544,
            "time": 61.1999745,
            "velocity": 0.23622047244094488
          },
          {
            "duration": 0.08571425000000232,
            "durationTicks": 96,
            "midi": 60,
            "name": "C4",
            "ticks": 68544,
            "time": 61.1999745,
            "velocity": 0.23622047244094488
          },
          {
            "duration": 0.08571425000000232,
            "durationTicks": 96,
            "midi": 39,
            "name": "D#2",
            "ticks": 68544,
            "time": 61.1999745,
            "velocity": 0.23622047244094488
          },
          {
            "duration": 0.08571425000000232,
            "durationTicks": 96,
            "midi": 64,
            "name": "E4",
            "ticks": 68544,
            "time": 61.1999745,
            "velocity": 0.23622047244094488
          },
          {
            "duration": 0.08571425000000232,
            "durationTicks": 96,
            "midi": 67,
            "name": "G4",
            "ticks": 68736,
            "time": 61.371403,
            "velocity": 0.23622047244094488
          },
          {
            "duration": 0.08571425000000232,
            "durationTicks": 96,
            "midi": 44,
            "name": "G#2",
            "ticks": 68736,
            "time": 61.371403,
            "velocity": 0.23622047244094488
          },
          {
            "duration": 0.08571424999999522,
            "durationTicks": 96,
            "midi": 64,
            "name": "E4",
            "ticks": 68928,
            "time": 61.542831500000005,
            "velocity": 0.23622047244094488
          },
          {
            "duration": 0.08571424999999522,
            "durationTicks": 96,
            "midi": 60,
            "name": "C4",
            "ticks": 68928,
            "time": 61.542831500000005,
            "velocity": 0.23622047244094488
          },
          {
            "duration": 0.08571424999999522,
            "durationTicks": 96,
            "midi": 41,
            "name": "F2",
            "ticks": 68928,
            "time": 61.542831500000005,
            "velocity": 0.23622047244094488
          },
          {
            "duration": 0.08571424999999522,
            "durationTicks": 96,
            "midi": 64,
            "name": "E4",
            "ticks": 68928,
            "time": 61.542831500000005,
            "velocity": 0.23622047244094488
          },
          {
            "duration": 0.08571425000000232,
            "durationTicks": 96,
            "midi": 62,
            "name": "D4",
            "ticks": 69120,
            "time": 61.71426,
            "velocity": 0.23622047244094488
          },
          {
            "duration": 0.08571425000000232,
            "durationTicks": 96,
            "midi": 53,
            "name": "F3",
            "ticks": 69120,
            "time": 61.71426,
            "velocity": 0.23622047244094488
          },
          {
            "duration": 0.08571425000000232,
            "durationTicks": 96,
            "midi": 39,
            "name": "D#2",
            "ticks": 69120,
            "time": 61.71426,
            "velocity": 0.23622047244094488
          },
          {
            "duration": 0.08571424999999522,
            "durationTicks": 96,
            "midi": 62,
            "name": "D4",
            "ticks": 69312,
            "time": 61.88568850000001,
            "velocity": 0.23622047244094488
          },
          {
            "duration": 0.08571424999999522,
            "durationTicks": 96,
            "midi": 58,
            "name": "A#3",
            "ticks": 69312,
            "time": 61.88568850000001,
            "velocity": 0.23622047244094488
          },
          {
            "duration": 0.08571424999999522,
            "durationTicks": 96,
            "midi": 64,
            "name": "E4",
            "ticks": 69312,
            "time": 61.88568850000001,
            "velocity": 0.23622047244094488
          },
          {
            "duration": 0.08571424999999522,
            "durationTicks": 96,
            "midi": 41,
            "name": "F2",
            "ticks": 69312,
            "time": 61.88568850000001,
            "velocity": 0.23622047244094488
          },
          {
            "duration": 0.08571425000000232,
            "durationTicks": 96,
            "midi": 44,
            "name": "G#2",
            "ticks": 69504,
            "time": 62.057117000000005,
            "velocity": 0.23622047244094488
          },
          {
            "duration": 0.08571425000000232,
            "durationTicks": 96,
            "midi": 65,
            "name": "F4",
            "ticks": 69504,
            "time": 62.057117000000005,
            "velocity": 0.23622047244094488
          },
          {
            "duration": 0.08571425000000232,
            "durationTicks": 96,
            "midi": 62,
            "name": "D4",
            "ticks": 69696,
            "time": 62.2285455,
            "velocity": 0.23622047244094488
          },
          {
            "duration": 0.08571425000000232,
            "durationTicks": 96,
            "midi": 58,
            "name": "A#3",
            "ticks": 69696,
            "time": 62.2285455,
            "velocity": 0.23622047244094488
          },
          {
            "duration": 0.08571425000000232,
            "durationTicks": 96,
            "midi": 39,
            "name": "D#2",
            "ticks": 69696,
            "time": 62.2285455,
            "velocity": 0.23622047244094488
          },
          {
            "duration": 0.08571425000000232,
            "durationTicks": 96,
            "midi": 67,
            "name": "G4",
            "ticks": 69696,
            "time": 62.2285455,
            "velocity": 0.23622047244094488
          },
          {
            "duration": 0.08571424999999522,
            "durationTicks": 96,
            "midi": 58,
            "name": "A#3",
            "ticks": 69888,
            "time": 62.39997400000001,
            "velocity": 0.23622047244094488
          },
          {
            "duration": 0.08571424999999522,
            "durationTicks": 96,
            "midi": 69,
            "name": "A4",
            "ticks": 69888,
            "time": 62.39997400000001,
            "velocity": 0.23622047244094488
          },
          {
            "duration": 0.08571425000000232,
            "durationTicks": 96,
            "midi": 64,
            "name": "E4",
            "ticks": 70080,
            "time": 62.571402500000005,
            "velocity": 0.23622047244094488
          },
          {
            "duration": 0.08571425000000232,
            "durationTicks": 96,
            "midi": 39,
            "name": "D#2",
            "ticks": 70080,
            "time": 62.571402500000005,
            "velocity": 0.23622047244094488
          },
          {
            "duration": 0.08571425000000232,
            "durationTicks": 96,
            "midi": 73,
            "name": "C#5",
            "ticks": 70080,
            "time": 62.571402500000005,
            "velocity": 0.23622047244094488
          },
          {
            "duration": 0.08571425000000232,
            "durationTicks": 96,
            "midi": 67,
            "name": "G4",
            "ticks": 70080,
            "time": 62.571402500000005,
            "velocity": 0.23622047244094488
          },
          {
            "duration": 0.08571425000000232,
            "durationTicks": 96,
            "midi": 74,
            "name": "D5",
            "ticks": 70272,
            "time": 62.742831,
            "velocity": 0.23622047244094488
          },
          {
            "duration": 0.08571425000000232,
            "durationTicks": 96,
            "midi": 44,
            "name": "G#2",
            "ticks": 70272,
            "time": 62.742831,
            "velocity": 0.23622047244094488
          },
          {
            "duration": 0.08571424999999522,
            "durationTicks": 96,
            "midi": 67,
            "name": "G4",
            "ticks": 70464,
            "time": 62.91425950000001,
            "velocity": 0.23622047244094488
          },
          {
            "duration": 0.08571424999999522,
            "durationTicks": 96,
            "midi": 41,
            "name": "F2",
            "ticks": 70464,
            "time": 62.91425950000001,
            "velocity": 0.23622047244094488
          },
          {
            "duration": 0.08571424999999522,
            "durationTicks": 96,
            "midi": 64,
            "name": "E4",
            "ticks": 70464,
            "time": 62.91425950000001,
            "velocity": 0.23622047244094488
          },
          {
            "duration": 0.08571424999999522,
            "durationTicks": 96,
            "midi": 76,
            "name": "E5",
            "ticks": 70464,
            "time": 62.91425950000001,
            "velocity": 0.23622047244094488
          },
          {
            "duration": 0.08571425000000232,
            "durationTicks": 96,
            "midi": 57,
            "name": "A3",
            "ticks": 70656,
            "time": 63.085688000000005,
            "velocity": 0.23622047244094488
          },
          {
            "duration": 0.08571425000000232,
            "durationTicks": 96,
            "midi": 39,
            "name": "D#2",
            "ticks": 70656,
            "time": 63.085688000000005,
            "velocity": 0.23622047244094488
          },
          {
            "duration": 0.08571425000000232,
            "durationTicks": 96,
            "midi": 61,
            "name": "C#4",
            "ticks": 70656,
            "time": 63.085688000000005,
            "velocity": 0.23622047244094488
          },
          {
            "duration": 0.08571425000000232,
            "durationTicks": 96,
            "midi": 73,
            "name": "C#5",
            "ticks": 70656,
            "time": 63.085688000000005,
            "velocity": 0.23622047244094488
          },
          {
            "duration": 0.08571425000000232,
            "durationTicks": 96,
            "midi": 41,
            "name": "F2",
            "ticks": 70848,
            "time": 63.2571165,
            "velocity": 0.23622047244094488
          },
          {
            "duration": 0.08571425000000232,
            "durationTicks": 96,
            "midi": 65,
            "name": "F4",
            "ticks": 70848,
            "time": 63.2571165,
            "velocity": 0.23622047244094488
          },
          {
            "duration": 0.08571425000000232,
            "durationTicks": 96,
            "midi": 81,
            "name": "A5",
            "ticks": 70848,
            "time": 63.2571165,
            "velocity": 0.23622047244094488
          },
          {
            "duration": 0.08571425000000232,
            "durationTicks": 96,
            "midi": 69,
            "name": "A4",
            "ticks": 70848,
            "time": 63.2571165,
            "velocity": 0.23622047244094488
          },
          {
            "duration": 0.08571424999999522,
            "durationTicks": 96,
            "midi": 44,
            "name": "G#2",
            "ticks": 71040,
            "time": 63.42854500000001,
            "velocity": 0.23622047244094488
          },
          {
            "duration": 0.08571424999999522,
            "durationTicks": 96,
            "midi": 79,
            "name": "G5",
            "ticks": 71040,
            "time": 63.42854500000001,
            "velocity": 0.23622047244094488
          },
          {
            "duration": 0.08571425000000232,
            "durationTicks": 96,
            "midi": 81,
            "name": "A5",
            "ticks": 71136,
            "time": 63.51425925,
            "velocity": 0.23622047244094488
          },
          {
            "duration": 0.08571425000000232,
            "durationTicks": 96,
            "midi": 69,
            "name": "A4",
            "ticks": 71232,
            "time": 63.599973500000004,
            "velocity": 0.23622047244094488
          },
          {
            "duration": 0.08571425000000232,
            "durationTicks": 96,
            "midi": 79,
            "name": "G5",
            "ticks": 71232,
            "time": 63.599973500000004,
            "velocity": 0.23622047244094488
          },
          {
            "duration": 0.08571425000000232,
            "durationTicks": 96,
            "midi": 39,
            "name": "D#2",
            "ticks": 71232,
            "time": 63.599973500000004,
            "velocity": 0.23622047244094488
          },
          {
            "duration": 0.08571425000000232,
            "durationTicks": 96,
            "midi": 65,
            "name": "F4",
            "ticks": 71232,
            "time": 63.599973500000004,
            "velocity": 0.23622047244094488
          },
          {
            "duration": 0.08571424999999522,
            "durationTicks": 96,
            "midi": 81,
            "name": "A5",
            "ticks": 71328,
            "time": 63.68568775000001,
            "velocity": 0.23622047244094488
          },
          {
            "duration": 0.08571425000000232,
            "durationTicks": 96,
            "midi": 57,
            "name": "A3",
            "ticks": 71424,
            "time": 63.771402,
            "velocity": 0.23622047244094488
          },
          {
            "duration": 0.08571425000000232,
            "durationTicks": 96,
            "midi": 85,
            "name": "C#6",
            "ticks": 71424,
            "time": 63.771402,
            "velocity": 0.23622047244094488
          },
          {
            "duration": 0.08571425000000232,
            "durationTicks": 96,
            "midi": 61,
            "name": "C#4",
            "ticks": 71424,
            "time": 63.771402,
            "velocity": 0.23622047244094488
          },
          {
            "duration": 0.08571425000000232,
            "durationTicks": 96,
            "midi": 69,
            "name": "A4",
            "ticks": 71616,
            "time": 63.94283050000001,
            "velocity": 0.23622047244094488
          },
          {
            "duration": 0.08571425000000232,
            "durationTicks": 96,
            "midi": 39,
            "name": "D#2",
            "ticks": 71616,
            "time": 63.94283050000001,
            "velocity": 0.23622047244094488
          },
          {
            "duration": 0.08571425000000232,
            "durationTicks": 96,
            "midi": 73,
            "name": "C#5",
            "ticks": 71616,
            "time": 63.94283050000001,
            "velocity": 0.23622047244094488
          },
          {
            "duration": 0.08571425000000232,
            "durationTicks": 96,
            "midi": 81,
            "name": "A5",
            "ticks": 71616,
            "time": 63.94283050000001,
            "velocity": 0.23622047244094488
          },
          {
            "duration": 0.08571424999999522,
            "durationTicks": 96,
            "midi": 79,
            "name": "G5",
            "ticks": 71808,
            "time": 64.114259,
            "velocity": 0.23622047244094488
          },
          {
            "duration": 0.08571424999999522,
            "durationTicks": 96,
            "midi": 44,
            "name": "G#2",
            "ticks": 71808,
            "time": 64.114259,
            "velocity": 0.23622047244094488
          },
          {
            "duration": 0.08571425000000943,
            "durationTicks": 96,
            "midi": 81,
            "name": "A5",
            "ticks": 71904,
            "time": 64.19997325,
            "velocity": 0.23622047244094488
          },
          {
            "duration": 0.08571424999999522,
            "durationTicks": 96,
            "midi": 41,
            "name": "F2",
            "ticks": 72000,
            "time": 64.28568750000001,
            "velocity": 0.23622047244094488
          },
          {
            "duration": 0.08571424999999522,
            "durationTicks": 96,
            "midi": 73,
            "name": "C#5",
            "ticks": 72000,
            "time": 64.28568750000001,
            "velocity": 0.23622047244094488
          },
          {
            "duration": 0.08571424999999522,
            "durationTicks": 96,
            "midi": 69,
            "name": "A4",
            "ticks": 72000,
            "time": 64.28568750000001,
            "velocity": 0.23622047244094488
          },
          {
            "duration": 0.08571424999999522,
            "durationTicks": 96,
            "midi": 79,
            "name": "G5",
            "ticks": 72000,
            "time": 64.28568750000001,
            "velocity": 0.23622047244094488
          },
          {
            "duration": 0.08571424999999522,
            "durationTicks": 96,
            "midi": 81,
            "name": "A5",
            "ticks": 72096,
            "time": 64.37140175,
            "velocity": 0.23622047244094488
          },
          {
            "duration": 0.08571425000000943,
            "durationTicks": 96,
            "midi": 39,
            "name": "D#2",
            "ticks": 72192,
            "time": 64.457116,
            "velocity": 0.23622047244094488
          },
          {
            "duration": 0.08571425000000943,
            "durationTicks": 96,
            "midi": 73,
            "name": "C#5",
            "ticks": 72192,
            "time": 64.457116,
            "velocity": 0.23622047244094488
          },
          {
            "duration": 0.08571425000000943,
            "durationTicks": 96,
            "midi": 57,
            "name": "A3",
            "ticks": 72192,
            "time": 64.457116,
            "velocity": 0.23622047244094488
          },
          {
            "duration": 0.08571425000000943,
            "durationTicks": 96,
            "midi": 61,
            "name": "C#4",
            "ticks": 72192,
            "time": 64.457116,
            "velocity": 0.23622047244094488
          },
          {
            "duration": 0.08571424999999522,
            "durationTicks": 96,
            "midi": 41,
            "name": "F2",
            "ticks": 72384,
            "time": 64.6285445,
            "velocity": 0.23622047244094488
          },
          {
            "duration": 0.08571424999999522,
            "durationTicks": 96,
            "midi": 65,
            "name": "F4",
            "ticks": 72384,
            "time": 64.6285445,
            "velocity": 0.23622047244094488
          },
          {
            "duration": 0.08571424999999522,
            "durationTicks": 96,
            "midi": 81,
            "name": "A5",
            "ticks": 72384,
            "time": 64.6285445,
            "velocity": 0.23622047244094488
          },
          {
            "duration": 0.08571424999999522,
            "durationTicks": 96,
            "midi": 69,
            "name": "A4",
            "ticks": 72384,
            "time": 64.6285445,
            "velocity": 0.23622047244094488
          },
          {
            "duration": 0.08571424999999522,
            "durationTicks": 96,
            "midi": 79,
            "name": "G5",
            "ticks": 72576,
            "time": 64.79997300000001,
            "velocity": 0.23622047244094488
          },
          {
            "duration": 0.08571424999999522,
            "durationTicks": 96,
            "midi": 44,
            "name": "G#2",
            "ticks": 72576,
            "time": 64.79997300000001,
            "velocity": 0.23622047244094488
          },
          {
            "duration": 0.08571424999999522,
            "durationTicks": 96,
            "midi": 57,
            "name": "A3",
            "ticks": 72576,
            "time": 64.79997300000001,
            "velocity": 0.23622047244094488
          },
          {
            "duration": 0.08571424999999522,
            "durationTicks": 96,
            "midi": 61,
            "name": "C#4",
            "ticks": 72576,
            "time": 64.79997300000001,
            "velocity": 0.23622047244094488
          },
          {
            "duration": 0.08571424999999522,
            "durationTicks": 96,
            "midi": 81,
            "name": "A5",
            "ticks": 72672,
            "time": 64.88568725,
            "velocity": 0.23622047244094488
          },
          {
            "duration": 0.08571425000000943,
            "durationTicks": 96,
            "midi": 39,
            "name": "D#2",
            "ticks": 72768,
            "time": 64.9714015,
            "velocity": 0.23622047244094488
          },
          {
            "duration": 0.08571425000000943,
            "durationTicks": 96,
            "midi": 69,
            "name": "A4",
            "ticks": 72768,
            "time": 64.9714015,
            "velocity": 0.23622047244094488
          },
          {
            "duration": 0.08571425000000943,
            "durationTicks": 96,
            "midi": 73,
            "name": "C#5",
            "ticks": 72768,
            "time": 64.9714015,
            "velocity": 0.23622047244094488
          },
          {
            "duration": 0.08571425000000943,
            "durationTicks": 96,
            "midi": 79,
            "name": "G5",
            "ticks": 72768,
            "time": 64.9714015,
            "velocity": 0.23622047244094488
          },
          {
            "duration": 0.08571424999999522,
            "durationTicks": 96,
            "midi": 81,
            "name": "A5",
            "ticks": 72864,
            "time": 65.05711575000001,
            "velocity": 0.23622047244094488
          },
          {
            "duration": 0.08571424999999522,
            "durationTicks": 96,
            "midi": 44,
            "name": "G#2",
            "ticks": 72960,
            "time": 65.14283,
            "velocity": 0.23622047244094488
          },
          {
            "duration": 0.08571424999999522,
            "durationTicks": 96,
            "midi": 61,
            "name": "C#4",
            "ticks": 72960,
            "time": 65.14283,
            "velocity": 0.23622047244094488
          },
          {
            "duration": 0.08571424999999522,
            "durationTicks": 96,
            "midi": 85,
            "name": "C#6",
            "ticks": 72960,
            "time": 65.14283,
            "velocity": 0.23622047244094488
          },
          {
            "duration": 0.08571424999999522,
            "durationTicks": 96,
            "midi": 57,
            "name": "A3",
            "ticks": 72960,
            "time": 65.14283,
            "velocity": 0.23622047244094488
          },
          {
            "duration": 0.08571424999999522,
            "durationTicks": 96,
            "midi": 76,
            "name": "E5",
            "ticks": 73152,
            "time": 65.31425850000001,
            "velocity": 0.23622047244094488
          },
          {
            "duration": 0.08571424999999522,
            "durationTicks": 96,
            "midi": 69,
            "name": "A4",
            "ticks": 73152,
            "time": 65.31425850000001,
            "velocity": 0.23622047244094488
          },
          {
            "duration": 0.08571424999999522,
            "durationTicks": 96,
            "midi": 39,
            "name": "D#2",
            "ticks": 73152,
            "time": 65.31425850000001,
            "velocity": 0.23622047244094488
          },
          {
            "duration": 0.08571424999999522,
            "durationTicks": 96,
            "midi": 88,
            "name": "E6",
            "ticks": 73152,
            "time": 65.31425850000001,
            "velocity": 0.23622047244094488
          },
          {
            "duration": 0.08571425000000943,
            "durationTicks": 96,
            "midi": 57,
            "name": "A3",
            "ticks": 73344,
            "time": 65.485687,
            "velocity": 0.23622047244094488
          },
          {
            "duration": 0.08571425000000943,
            "durationTicks": 96,
            "midi": 93,
            "name": "A6",
            "ticks": 73344,
            "time": 65.485687,
            "velocity": 0.23622047244094488
          },
          {
            "duration": 0.08571425000000943,
            "durationTicks": 96,
            "midi": 44,
            "name": "G#2",
            "ticks": 73344,
            "time": 65.485687,
            "velocity": 0.23622047244094488
          },
          {
            "duration": 0.08571424999999522,
            "durationTicks": 96,
            "midi": 76,
            "name": "E5",
            "ticks": 73536,
            "time": 65.6571155,
            "velocity": 0.23622047244094488
          },
          {
            "duration": 0.08571424999999522,
            "durationTicks": 96,
            "midi": 41,
            "name": "F2",
            "ticks": 73536,
            "time": 65.6571155,
            "velocity": 0.23622047244094488
          },
          {
            "duration": 0.08571424999999522,
            "durationTicks": 96,
            "midi": 81,
            "name": "A5",
            "ticks": 73536,
            "time": 65.6571155,
            "velocity": 0.23622047244094488
          },
          {
            "duration": 0.08571424999999522,
            "durationTicks": 96,
            "midi": 70,
            "name": "A#4",
            "ticks": 73728,
            "time": 65.82854400000001,
            "velocity": 0.23622047244094488
          },
          {
            "duration": 0.08571424999999522,
            "durationTicks": 96,
            "midi": 81,
            "name": "A5",
            "ticks": 73728,
            "time": 65.82854400000001,
            "velocity": 0.23622047244094488
          },
          {
            "duration": 0.08571424999999522,
            "durationTicks": 96,
            "midi": 39,
            "name": "D#2",
            "ticks": 73728,
            "time": 65.82854400000001,
            "velocity": 0.23622047244094488
          },
          {
            "duration": 0.08571424999999522,
            "durationTicks": 96,
            "midi": 57,
            "name": "A3",
            "ticks": 73728,
            "time": 65.82854400000001,
            "velocity": 0.23622047244094488
          },
          {
            "duration": 0.08571425000000943,
            "durationTicks": 96,
            "midi": 41,
            "name": "F2",
            "ticks": 73920,
            "time": 65.9999725,
            "velocity": 0.23622047244094488
          },
          {
            "duration": 0.08571425000000943,
            "durationTicks": 96,
            "midi": 77,
            "name": "F5",
            "ticks": 73920,
            "time": 65.9999725,
            "velocity": 0.23622047244094488
          },
          {
            "duration": 0.08571425000000943,
            "durationTicks": 96,
            "midi": 74,
            "name": "D5",
            "ticks": 73920,
            "time": 65.9999725,
            "velocity": 0.23622047244094488
          },
          {
            "duration": 0.08571425000000943,
            "durationTicks": 96,
            "midi": 89,
            "name": "F6",
            "ticks": 73920,
            "time": 65.9999725,
            "velocity": 0.23622047244094488
          },
          {
            "duration": 0.08571424999999522,
            "durationTicks": 96,
            "midi": 88,
            "name": "E6",
            "ticks": 74112,
            "time": 66.171401,
            "velocity": 0.23622047244094488
          },
          {
            "duration": 0.08571424999999522,
            "durationTicks": 96,
            "midi": 44,
            "name": "G#2",
            "ticks": 74112,
            "time": 66.171401,
            "velocity": 0.23622047244094488
          },
          {
            "duration": 0.08571425000000943,
            "durationTicks": 96,
            "midi": 89,
            "name": "F6",
            "ticks": 74208,
            "time": 66.25711525,
            "velocity": 0.23622047244094488
          },
          {
            "duration": 0.08571424999999522,
            "durationTicks": 96,
            "midi": 74,
            "name": "D5",
            "ticks": 74304,
            "time": 66.34282950000001,
            "velocity": 0.23622047244094488
          },
          {
            "duration": 0.08571424999999522,
            "durationTicks": 96,
            "midi": 77,
            "name": "F5",
            "ticks": 74304,
            "time": 66.34282950000001,
            "velocity": 0.23622047244094488
          },
          {
            "duration": 0.08571424999999522,
            "durationTicks": 96,
            "midi": 88,
            "name": "E6",
            "ticks": 74304,
            "time": 66.34282950000001,
            "velocity": 0.23622047244094488
          },
          {
            "duration": 0.08571424999999522,
            "durationTicks": 96,
            "midi": 39,
            "name": "D#2",
            "ticks": 74304,
            "time": 66.34282950000001,
            "velocity": 0.23622047244094488
          },
          {
            "duration": 0.08571425000000943,
            "durationTicks": 96,
            "midi": 72,
            "name": "C5",
            "ticks": 74496,
            "time": 66.514258,
            "velocity": 0.23622047244094488
          },
          {
            "duration": 0.08571425000000943,
            "durationTicks": 96,
            "midi": 91,
            "name": "G6",
            "ticks": 74496,
            "time": 66.514258,
            "velocity": 0.23622047244094488
          },
          {
            "duration": 0.08571424999999522,
            "durationTicks": 96,
            "midi": 89,
            "name": "F6",
            "ticks": 74688,
            "time": 66.6856865,
            "velocity": 0.23622047244094488
          },
          {
            "duration": 0.08571424999999522,
            "durationTicks": 96,
            "midi": 79,
            "name": "G5",
            "ticks": 74688,
            "time": 66.6856865,
            "velocity": 0.23622047244094488
          },
          {
            "duration": 0.08571424999999522,
            "durationTicks": 96,
            "midi": 76,
            "name": "E5",
            "ticks": 74688,
            "time": 66.6856865,
            "velocity": 0.23622047244094488
          },
          {
            "duration": 0.08571424999999522,
            "durationTicks": 96,
            "midi": 39,
            "name": "D#2",
            "ticks": 74688,
            "time": 66.6856865,
            "velocity": 0.23622047244094488
          },
          {
            "duration": 0.08571424999999522,
            "durationTicks": 96,
            "midi": 88,
            "name": "E6",
            "ticks": 74880,
            "time": 66.85711500000001,
            "velocity": 0.23622047244094488
          },
          {
            "duration": 0.08571424999999522,
            "durationTicks": 96,
            "midi": 44,
            "name": "G#2",
            "ticks": 74880,
            "time": 66.85711500000001,
            "velocity": 0.23622047244094488
          },
          {
            "duration": 0.08571424999999522,
            "durationTicks": 96,
            "midi": 89,
            "name": "F6",
            "ticks": 74976,
            "time": 66.94282925,
            "velocity": 0.23622047244094488
          },
          {
            "duration": 0.08571425000000943,
            "durationTicks": 96,
            "midi": 79,
            "name": "G5",
            "ticks": 75072,
            "time": 67.0285435,
            "velocity": 0.23622047244094488
          },
          {
            "duration": 0.08571425000000943,
            "durationTicks": 96,
            "midi": 88,
            "name": "E6",
            "ticks": 75072,
            "time": 67.0285435,
            "velocity": 0.23622047244094488
          },
          {
            "duration": 0.08571425000000943,
            "durationTicks": 96,
            "midi": 76,
            "name": "E5",
            "ticks": 75072,
            "time": 67.0285435,
            "velocity": 0.23622047244094488
          },
          {
            "duration": 0.08571425000000943,
            "durationTicks": 96,
            "midi": 41,
            "name": "F2",
            "ticks": 75072,
            "time": 67.0285435,
            "velocity": 0.23622047244094488
          },
          {
            "duration": 0.08571424999999522,
            "durationTicks": 96,
            "midi": 84,
            "name": "C6",
            "ticks": 75168,
            "time": 67.11425775000001,
            "velocity": 0.23622047244094488
          },
          {
            "duration": 0.08571424999999522,
            "durationTicks": 96,
            "midi": 39,
            "name": "D#2",
            "ticks": 75264,
            "time": 67.199972,
            "velocity": 0.23622047244094488
          },
          {
            "duration": 0.08571424999999522,
            "durationTicks": 96,
            "midi": 74,
            "name": "D5",
            "ticks": 75264,
            "time": 67.199972,
            "velocity": 0.23622047244094488
          },
          {
            "duration": 0.08571424999999522,
            "durationTicks": 96,
            "midi": 86,
            "name": "D6",
            "ticks": 75264,
            "time": 67.199972,
            "velocity": 0.23622047244094488
          },
          {
            "duration": 0.08571424999999522,
            "durationTicks": 96,
            "midi": 77,
            "name": "F5",
            "ticks": 75456,
            "time": 67.37140050000001,
            "velocity": 0.23622047244094488
          },
          {
            "duration": 0.08571424999999522,
            "durationTicks": 96,
            "midi": 81,
            "name": "A5",
            "ticks": 75456,
            "time": 67.37140050000001,
            "velocity": 0.23622047244094488
          },
          {
            "duration": 0.08571424999999522,
            "durationTicks": 96,
            "midi": 93,
            "name": "A6",
            "ticks": 75456,
            "time": 67.37140050000001,
            "velocity": 0.23622047244094488
          },
          {
            "duration": 0.08571424999999522,
            "durationTicks": 96,
            "midi": 41,
            "name": "F2",
            "ticks": 75456,
            "time": 67.37140050000001,
            "velocity": 0.23622047244094488
          },
          {
            "duration": 0.08571425000000943,
            "durationTicks": 96,
            "midi": 44,
            "name": "G#2",
            "ticks": 75648,
            "time": 67.542829,
            "velocity": 0.23622047244094488
          },
          {
            "duration": 0.08571425000000943,
            "durationTicks": 96,
            "midi": 91,
            "name": "G6",
            "ticks": 75648,
            "time": 67.542829,
            "velocity": 0.23622047244094488
          },
          {
            "duration": 0.08571424999999522,
            "durationTicks": 96,
            "midi": 93,
            "name": "A6",
            "ticks": 75744,
            "time": 67.62854325,
            "velocity": 0.23622047244094488
          },
          {
            "duration": 0.08571424999999522,
            "durationTicks": 96,
            "midi": 39,
            "name": "D#2",
            "ticks": 75840,
            "time": 67.7142575,
            "velocity": 0.23622047244094488
          },
          {
            "duration": 0.08571424999999522,
            "durationTicks": 96,
            "midi": 91,
            "name": "G6",
            "ticks": 75840,
            "time": 67.7142575,
            "velocity": 0.23622047244094488
          },
          {
            "duration": 0.08571424999999522,
            "durationTicks": 96,
            "midi": 81,
            "name": "A5",
            "ticks": 75840,
            "time": 67.7142575,
            "velocity": 0.23622047244094488
          },
          {
            "duration": 0.08571424999999522,
            "durationTicks": 96,
            "midi": 77,
            "name": "F5",
            "ticks": 75840,
            "time": 67.7142575,
            "velocity": 0.23622047244094488
          },
          {
            "duration": 0.08571425000000943,
            "durationTicks": 96,
            "midi": 93,
            "name": "A6",
            "ticks": 75936,
            "time": 67.79997175,
            "velocity": 0.23622047244094488
          },
          {
            "duration": 0.08571424999999522,
            "durationTicks": 96,
            "midi": 74,
            "name": "D5",
            "ticks": 76032,
            "time": 67.885686,
            "velocity": 0.23622047244094488
          },
          {
            "duration": 0.08571424999999522,
            "durationTicks": 96,
            "midi": 84,
            "name": "C6",
            "ticks": 76032,
            "time": 67.885686,
            "velocity": 0.23622047244094488
          },
          {
            "duration": 0.08571424999999522,
            "durationTicks": 96,
            "midi": 39,
            "name": "D#2",
            "ticks": 76224,
            "time": 68.05711450000001,
            "velocity": 0.23622047244094488
          },
          {
            "duration": 0.08571424999999522,
            "durationTicks": 96,
            "midi": 93,
            "name": "A6",
            "ticks": 76224,
            "time": 68.05711450000001,
            "velocity": 0.23622047244094488
          },
          {
            "duration": 0.08571424999999522,
            "durationTicks": 96,
            "midi": 81,
            "name": "A5",
            "ticks": 76224,
            "time": 68.05711450000001,
            "velocity": 0.23622047244094488
          },
          {
            "duration": 0.08571424999999522,
            "durationTicks": 96,
            "midi": 77,
            "name": "F5",
            "ticks": 76224,
            "time": 68.05711450000001,
            "velocity": 0.23622047244094488
          },
          {
            "duration": 0.08571425000000943,
            "durationTicks": 96,
            "midi": 44,
            "name": "G#2",
            "ticks": 76416,
            "time": 68.228543,
            "velocity": 0.23622047244094488
          },
          {
            "duration": 0.08571425000000943,
            "durationTicks": 96,
            "midi": 91,
            "name": "G6",
            "ticks": 76416,
            "time": 68.228543,
            "velocity": 0.23622047244094488
          },
          {
            "duration": 0.08571424999999522,
            "durationTicks": 96,
            "midi": 41,
            "name": "F2",
            "ticks": 76608,
            "time": 68.3999715,
            "velocity": 0.23622047244094488
          },
          {
            "duration": 0.08571424999999522,
            "durationTicks": 96,
            "midi": 77,
            "name": "F5",
            "ticks": 76608,
            "time": 68.3999715,
            "velocity": 0.23622047244094488
          },
          {
            "duration": 0.08571424999999522,
            "durationTicks": 96,
            "midi": 81,
            "name": "A5",
            "ticks": 76608,
            "time": 68.3999715,
            "velocity": 0.23622047244094488
          },
          {
            "duration": 0.08571424999999522,
            "durationTicks": 96,
            "midi": 93,
            "name": "A6",
            "ticks": 76608,
            "time": 68.3999715,
            "velocity": 0.23622047244094488
          },
          {
            "duration": 0.08571424999999522,
            "durationTicks": 96,
            "midi": 82,
            "name": "A#5",
            "ticks": 76800,
            "time": 68.57140000000001,
            "velocity": 0.23622047244094488
          },
          {
            "duration": 0.08571424999999522,
            "durationTicks": 96,
            "midi": 57,
            "name": "A3",
            "ticks": 76800,
            "time": 68.57140000000001,
            "velocity": 0.23622047244094488
          },
          {
            "duration": 0.08571424999999522,
            "durationTicks": 96,
            "midi": 70,
            "name": "A#4",
            "ticks": 76800,
            "time": 68.57140000000001,
            "velocity": 0.23622047244094488
          },
          {
            "duration": 0.08571424999999522,
            "durationTicks": 96,
            "midi": 39,
            "name": "D#2",
            "ticks": 76800,
            "time": 68.57140000000001,
            "velocity": 0.23622047244094488
          },
          {
            "duration": 0.08571425000000943,
            "durationTicks": 96,
            "midi": 74,
            "name": "D5",
            "ticks": 76992,
            "time": 68.7428285,
            "velocity": 0.23622047244094488
          },
          {
            "duration": 0.08571425000000943,
            "durationTicks": 96,
            "midi": 89,
            "name": "F6",
            "ticks": 76992,
            "time": 68.7428285,
            "velocity": 0.23622047244094488
          },
          {
            "duration": 0.08571425000000943,
            "durationTicks": 96,
            "midi": 41,
            "name": "F2",
            "ticks": 76992,
            "time": 68.7428285,
            "velocity": 0.23622047244094488
          },
          {
            "duration": 0.08571425000000943,
            "durationTicks": 96,
            "midi": 77,
            "name": "F5",
            "ticks": 76992,
            "time": 68.7428285,
            "velocity": 0.23622047244094488
          },
          {
            "duration": 0.08571424999999522,
            "durationTicks": 96,
            "midi": 44,
            "name": "G#2",
            "ticks": 77184,
            "time": 68.914257,
            "velocity": 0.23622047244094488
          },
          {
            "duration": 0.08571424999999522,
            "durationTicks": 96,
            "midi": 88,
            "name": "E6",
            "ticks": 77184,
            "time": 68.914257,
            "velocity": 0.23622047244094488
          },
          {
            "duration": 0.08571425000000943,
            "durationTicks": 96,
            "midi": 89,
            "name": "F6",
            "ticks": 77280,
            "time": 68.99997125,
            "velocity": 0.23622047244094488
          },
          {
            "duration": 0.08571424999999522,
            "durationTicks": 96,
            "midi": 39,
            "name": "D#2",
            "ticks": 77376,
            "time": 69.08568550000001,
            "velocity": 0.23622047244094488
          },
          {
            "duration": 0.08571424999999522,
            "durationTicks": 96,
            "midi": 74,
            "name": "D5",
            "ticks": 77376,
            "time": 69.08568550000001,
            "velocity": 0.23622047244094488
          },
          {
            "duration": 0.08571424999999522,
            "durationTicks": 96,
            "midi": 88,
            "name": "E6",
            "ticks": 77376,
            "time": 69.08568550000001,
            "velocity": 0.23622047244094488
          },
          {
            "duration": 0.08571424999999522,
            "durationTicks": 96,
            "midi": 77,
            "name": "F5",
            "ticks": 77376,
            "time": 69.08568550000001,
            "velocity": 0.23622047244094488
          },
          {
            "duration": 0.08571425000000943,
            "durationTicks": 96,
            "midi": 91,
            "name": "G6",
            "ticks": 77568,
            "time": 69.257114,
            "velocity": 0.23622047244094488
          },
          {
            "duration": 0.08571425000000943,
            "durationTicks": 96,
            "midi": 72,
            "name": "C5",
            "ticks": 77568,
            "time": 69.257114,
            "velocity": 0.23622047244094488
          },
          {
            "duration": 0.08571424999999522,
            "durationTicks": 96,
            "midi": 76,
            "name": "E5",
            "ticks": 77760,
            "time": 69.4285425,
            "velocity": 0.23622047244094488
          },
          {
            "duration": 0.08571424999999522,
            "durationTicks": 96,
            "midi": 39,
            "name": "D#2",
            "ticks": 77760,
            "time": 69.4285425,
            "velocity": 0.23622047244094488
          },
          {
            "duration": 0.08571424999999522,
            "durationTicks": 96,
            "midi": 79,
            "name": "G5",
            "ticks": 77760,
            "time": 69.4285425,
            "velocity": 0.23622047244094488
          },
          {
            "duration": 0.08571424999999522,
            "durationTicks": 96,
            "midi": 89,
            "name": "F6",
            "ticks": 77760,
            "time": 69.4285425,
            "velocity": 0.23622047244094488
          },
          {
            "duration": 0.08571424999999522,
            "durationTicks": 96,
            "midi": 44,
            "name": "G#2",
            "ticks": 77952,
            "time": 69.59997100000001,
            "velocity": 0.23622047244094488
          },
          {
            "duration": 0.08571424999999522,
            "durationTicks": 96,
            "midi": 88,
            "name": "E6",
            "ticks": 77952,
            "time": 69.59997100000001,
            "velocity": 0.23622047244094488
          },
          {
            "duration": 0.08571424999999522,
            "durationTicks": 96,
            "midi": 89,
            "name": "F6",
            "ticks": 78048,
            "time": 69.68568525,
            "velocity": 0.23622047244094488
          },
          {
            "duration": 0.08571425000000943,
            "durationTicks": 96,
            "midi": 41,
            "name": "F2",
            "ticks": 78144,
            "time": 69.7713995,
            "velocity": 0.23622047244094488
          },
          {
            "duration": 0.08571425000000943,
            "durationTicks": 96,
            "midi": 79,
            "name": "G5",
            "ticks": 78144,
            "time": 69.7713995,
            "velocity": 0.23622047244094488
          },
          {
            "duration": 0.08571425000000943,
            "durationTicks": 96,
            "midi": 76,
            "name": "E5",
            "ticks": 78144,
            "time": 69.7713995,
            "velocity": 0.23622047244094488
          },
          {
            "duration": 0.08571425000000943,
            "durationTicks": 96,
            "midi": 88,
            "name": "E6",
            "ticks": 78144,
            "time": 69.7713995,
            "velocity": 0.23622047244094488
          },
          {
            "duration": 0.08571424999999522,
            "durationTicks": 96,
            "midi": 84,
            "name": "C6",
            "ticks": 78240,
            "time": 69.85711375000001,
            "velocity": 0.23622047244094488
          },
          {
            "duration": 0.08571424999999522,
            "durationTicks": 96,
            "midi": 86,
            "name": "D6",
            "ticks": 78336,
            "time": 69.942828,
            "velocity": 0.23622047244094488
          },
          {
            "duration": 0.08571424999999522,
            "durationTicks": 96,
            "midi": 57,
            "name": "A3",
            "ticks": 78336,
            "time": 69.942828,
            "velocity": 0.23622047244094488
          },
          {
            "duration": 0.08571424999999522,
            "durationTicks": 96,
            "midi": 39,
            "name": "D#2",
            "ticks": 78336,
            "time": 69.942828,
            "velocity": 0.23622047244094488
          },
          {
            "duration": 0.08571424999999522,
            "durationTicks": 96,
            "midi": 74,
            "name": "D5",
            "ticks": 78336,
            "time": 69.942828,
            "velocity": 0.23622047244094488
          },
          {
            "duration": 0.08571424999999522,
            "durationTicks": 96,
            "midi": 41,
            "name": "F2",
            "ticks": 78528,
            "time": 70.11425650000001,
            "velocity": 0.23622047244094488
          },
          {
            "duration": 0.08571424999999522,
            "durationTicks": 96,
            "midi": 77,
            "name": "F5",
            "ticks": 78528,
            "time": 70.11425650000001,
            "velocity": 0.23622047244094488
          },
          {
            "duration": 0.08571424999999522,
            "durationTicks": 96,
            "midi": 81,
            "name": "A5",
            "ticks": 78528,
            "time": 70.11425650000001,
            "velocity": 0.23622047244094488
          },
          {
            "duration": 0.08571424999999522,
            "durationTicks": 96,
            "midi": 93,
            "name": "A6",
            "ticks": 78528,
            "time": 70.11425650000001,
            "velocity": 0.23622047244094488
          },
          {
            "duration": 0.08571425000000943,
            "durationTicks": 96,
            "midi": 74,
            "name": "D5",
            "ticks": 78720,
            "time": 70.285685,
            "velocity": 0.23622047244094488
          },
          {
            "duration": 0.08571425000000943,
            "durationTicks": 96,
            "midi": 91,
            "name": "G6",
            "ticks": 78720,
            "time": 70.285685,
            "velocity": 0.23622047244094488
          },
          {
            "duration": 0.08571425000000943,
            "durationTicks": 96,
            "midi": 44,
            "name": "G#2",
            "ticks": 78720,
            "time": 70.285685,
            "velocity": 0.23622047244094488
          },
          {
            "duration": 0.08571424999999522,
            "durationTicks": 96,
            "midi": 93,
            "name": "A6",
            "ticks": 78816,
            "time": 70.37139925000001,
            "velocity": 0.23622047244094488
          },
          {
            "duration": 0.08571424999999522,
            "durationTicks": 96,
            "midi": 84,
            "name": "C6",
            "ticks": 78912,
            "time": 70.4571135,
            "velocity": 0.23622047244094488
          },
          {
            "duration": 0.08571424999999522,
            "durationTicks": 96,
            "midi": 91,
            "name": "G6",
            "ticks": 78912,
            "time": 70.4571135,
            "velocity": 0.23622047244094488
          },
          {
            "duration": 0.08571424999999522,
            "durationTicks": 96,
            "midi": 79,
            "name": "G5",
            "ticks": 78912,
            "time": 70.4571135,
            "velocity": 0.23622047244094488
          },
          {
            "duration": 0.08571424999999522,
            "durationTicks": 96,
            "midi": 39,
            "name": "D#2",
            "ticks": 78912,
            "time": 70.4571135,
            "velocity": 0.23622047244094488
          },
          {
            "duration": 0.08571425000000943,
            "durationTicks": 96,
            "midi": 93,
            "name": "A6",
            "ticks": 79008,
            "time": 70.54282775,
            "velocity": 0.23622047244094488
          },
          {
            "duration": 0.08571424999999522,
            "durationTicks": 96,
            "midi": 44,
            "name": "G#2",
            "ticks": 79104,
            "time": 70.62854200000001,
            "velocity": 0.23622047244094488
          },
          {
            "duration": 0.08571424999999522,
            "durationTicks": 96,
            "midi": 57,
            "name": "A3",
            "ticks": 79104,
            "time": 70.62854200000001,
            "velocity": 0.23622047244094488
          },
          {
            "duration": 0.08571424999999522,
            "durationTicks": 96,
            "midi": 85,
            "name": "C#6",
            "ticks": 79104,
            "time": 70.62854200000001,
            "velocity": 0.23622047244094488
          },
          {
            "duration": 0.08571424999999522,
            "durationTicks": 96,
            "midi": 74,
            "name": "D5",
            "ticks": 79104,
            "time": 70.62854200000001,
            "velocity": 0.23622047244094488
          },
          {
            "duration": 0.08571425000000943,
            "durationTicks": 96,
            "midi": 86,
            "name": "D6",
            "ticks": 79296,
            "time": 70.7999705,
            "velocity": 0.23622047244094488
          },
          {
            "duration": 0.08571425000000943,
            "durationTicks": 96,
            "midi": 39,
            "name": "D#2",
            "ticks": 79296,
            "time": 70.7999705,
            "velocity": 0.23622047244094488
          },
          {
            "duration": 0.08571425000000943,
            "durationTicks": 96,
            "midi": 93,
            "name": "A6",
            "ticks": 79296,
            "time": 70.7999705,
            "velocity": 0.23622047244094488
          },
          {
            "duration": 0.08571425000000943,
            "durationTicks": 96,
            "midi": 81,
            "name": "A5",
            "ticks": 79296,
            "time": 70.7999705,
            "velocity": 0.23622047244094488
          },
          {
            "duration": 0.08571424999999522,
            "durationTicks": 96,
            "midi": 44,
            "name": "G#2",
            "ticks": 79488,
            "time": 70.971399,
            "velocity": 0.23622047244094488
          },
          {
            "duration": 0.08571424999999522,
            "durationTicks": 96,
            "midi": 91,
            "name": "G6",
            "ticks": 79488,
            "time": 70.971399,
            "velocity": 0.23622047244094488
          },
          {
            "duration": 0.08571424999999522,
            "durationTicks": 96,
            "midi": 74,
            "name": "D5",
            "ticks": 79488,
            "time": 70.971399,
            "velocity": 0.23622047244094488
          },
          {
            "duration": 0.08571424999999522,
            "durationTicks": 96,
            "midi": 81,
            "name": "A5",
            "ticks": 79680,
            "time": 71.14282750000001,
            "velocity": 0.23622047244094488
          },
          {
            "duration": 0.08571424999999522,
            "durationTicks": 96,
            "midi": 77,
            "name": "F5",
            "ticks": 79680,
            "time": 71.14282750000001,
            "velocity": 0.23622047244094488
          },
          {
            "duration": 0.08571424999999522,
            "durationTicks": 96,
            "midi": 93,
            "name": "A6",
            "ticks": 79680,
            "time": 71.14282750000001,
            "velocity": 0.23622047244094488
          },
          {
            "duration": 0.08571424999999522,
            "durationTicks": 96,
            "midi": 41,
            "name": "F2",
            "ticks": 79680,
            "time": 71.14282750000001,
            "velocity": 0.23622047244094488
          },
          {
            "duration": 0.08571425000000943,
            "durationTicks": 96,
            "midi": 81,
            "name": "A5",
            "ticks": 79872,
            "time": 71.314256,
            "velocity": 0.23622047244094488
          },
          {
            "duration": 0.08571425000000943,
            "durationTicks": 96,
            "midi": 70,
            "name": "A#4",
            "ticks": 79872,
            "time": 71.314256,
            "velocity": 0.23622047244094488
          },
          {
            "duration": 0.08571425000000943,
            "durationTicks": 96,
            "midi": 57,
            "name": "A3",
            "ticks": 79872,
            "time": 71.314256,
            "velocity": 0.23622047244094488
          },
          {
            "duration": 0.08571425000000943,
            "durationTicks": 96,
            "midi": 39,
            "name": "D#2",
            "ticks": 79872,
            "time": 71.314256,
            "velocity": 0.23622047244094488
          },
          {
            "duration": 0.08571424999999522,
            "durationTicks": 96,
            "midi": 74,
            "name": "D5",
            "ticks": 80064,
            "time": 71.4856845,
            "velocity": 0.23622047244094488
          },
          {
            "duration": 0.08571424999999522,
            "durationTicks": 96,
            "midi": 41,
            "name": "F2",
            "ticks": 80064,
            "time": 71.4856845,
            "velocity": 0.23622047244094488
          },
          {
            "duration": 0.08571424999999522,
            "durationTicks": 96,
            "midi": 89,
            "name": "F6",
            "ticks": 80064,
            "time": 71.4856845,
            "velocity": 0.23622047244094488
          },
          {
            "duration": 0.08571424999999522,
            "durationTicks": 96,
            "midi": 77,
            "name": "F5",
            "ticks": 80064,
            "time": 71.4856845,
            "velocity": 0.23622047244094488
          },
          {
            "duration": 0.08571424999999522,
            "durationTicks": 96,
            "midi": 88,
            "name": "E6",
            "ticks": 80256,
            "time": 71.65711300000001,
            "velocity": 0.23622047244094488
          },
          {
            "duration": 0.08571424999999522,
            "durationTicks": 96,
            "midi": 44,
            "name": "G#2",
            "ticks": 80256,
            "time": 71.65711300000001,
            "velocity": 0.23622047244094488
          },
          {
            "duration": 0.08571424999999522,
            "durationTicks": 96,
            "midi": 89,
            "name": "F6",
            "ticks": 80352,
            "time": 71.74282725,
            "velocity": 0.23622047244094488
          },
          {
            "duration": 0.08571425000000943,
            "durationTicks": 96,
            "midi": 88,
            "name": "E6",
            "ticks": 80448,
            "time": 71.8285415,
            "velocity": 0.23622047244094488
          },
          {
            "duration": 0.08571425000000943,
            "durationTicks": 96,
            "midi": 77,
            "name": "F5",
            "ticks": 80448,
            "time": 71.8285415,
            "velocity": 0.23622047244094488
          },
          {
            "duration": 0.08571425000000943,
            "durationTicks": 96,
            "midi": 39,
            "name": "D#2",
            "ticks": 80448,
            "time": 71.8285415,
            "velocity": 0.23622047244094488
          },
          {
            "duration": 0.08571425000000943,
            "durationTicks": 96,
            "midi": 74,
            "name": "D5",
            "ticks": 80448,
            "time": 71.8285415,
            "velocity": 0.23622047244094488
          },
          {
            "duration": 0.08571424999999522,
            "durationTicks": 96,
            "midi": 72,
            "name": "C5",
            "ticks": 80640,
            "time": 71.99997,
            "velocity": 0.23622047244094488
          },
          {
            "duration": 0.08571424999999522,
            "durationTicks": 96,
            "midi": 91,
            "name": "G6",
            "ticks": 80640,
            "time": 71.99997,
            "velocity": 0.23622047244094488
          },
          {
            "duration": 0.08571424999999522,
            "durationTicks": 96,
            "midi": 76,
            "name": "E5",
            "ticks": 80832,
            "time": 72.17139850000001,
            "velocity": 0.23622047244094488
          },
          {
            "duration": 0.08571424999999522,
            "durationTicks": 96,
            "midi": 79,
            "name": "G5",
            "ticks": 80832,
            "time": 72.17139850000001,
            "velocity": 0.23622047244094488
          },
          {
            "duration": 0.08571424999999522,
            "durationTicks": 96,
            "midi": 89,
            "name": "F6",
            "ticks": 80832,
            "time": 72.17139850000001,
            "velocity": 0.23622047244094488
          },
          {
            "duration": 0.08571424999999522,
            "durationTicks": 96,
            "midi": 39,
            "name": "D#2",
            "ticks": 80832,
            "time": 72.17139850000001,
            "velocity": 0.23622047244094488
          },
          {
            "duration": 0.08571425000000943,
            "durationTicks": 96,
            "midi": 44,
            "name": "G#2",
            "ticks": 81024,
            "time": 72.342827,
            "velocity": 0.23622047244094488
          },
          {
            "duration": 0.08571425000000943,
            "durationTicks": 96,
            "midi": 88,
            "name": "E6",
            "ticks": 81024,
            "time": 72.342827,
            "velocity": 0.23622047244094488
          },
          {
            "duration": 0.08571424999999522,
            "durationTicks": 96,
            "midi": 89,
            "name": "F6",
            "ticks": 81120,
            "time": 72.42854125000001,
            "velocity": 0.23622047244094488
          },
          {
            "duration": 0.08571424999999522,
            "durationTicks": 96,
            "midi": 88,
            "name": "E6",
            "ticks": 81216,
            "time": 72.5142555,
            "velocity": 0.23622047244094488
          },
          {
            "duration": 0.08571424999999522,
            "durationTicks": 96,
            "midi": 79,
            "name": "G5",
            "ticks": 81216,
            "time": 72.5142555,
            "velocity": 0.23622047244094488
          },
          {
            "duration": 0.08571424999999522,
            "durationTicks": 96,
            "midi": 76,
            "name": "E5",
            "ticks": 81216,
            "time": 72.5142555,
            "velocity": 0.23622047244094488
          },
          {
            "duration": 0.08571424999999522,
            "durationTicks": 96,
            "midi": 41,
            "name": "F2",
            "ticks": 81216,
            "time": 72.5142555,
            "velocity": 0.23622047244094488
          },
          {
            "duration": 0.08571425000000943,
            "durationTicks": 96,
            "midi": 84,
            "name": "C6",
            "ticks": 81312,
            "time": 72.59996975,
            "velocity": 0.23622047244094488
          },
          {
            "duration": 0.08571424999999522,
            "durationTicks": 96,
            "midi": 86,
            "name": "D6",
            "ticks": 81408,
            "time": 72.68568400000001,
            "velocity": 0.23622047244094488
          },
          {
            "duration": 0.08571424999999522,
            "durationTicks": 96,
            "midi": 39,
            "name": "D#2",
            "ticks": 81408,
            "time": 72.68568400000001,
            "velocity": 0.23622047244094488
          },
          {
            "duration": 0.08571424999999522,
            "durationTicks": 96,
            "midi": 74,
            "name": "D5",
            "ticks": 81408,
            "time": 72.68568400000001,
            "velocity": 0.23622047244094488
          },
          {
            "duration": 0.08571425000000943,
            "durationTicks": 96,
            "midi": 81,
            "name": "A5",
            "ticks": 81600,
            "time": 72.8571125,
            "velocity": 0.23622047244094488
          },
          {
            "duration": 0.08571425000000943,
            "durationTicks": 96,
            "midi": 93,
            "name": "A6",
            "ticks": 81600,
            "time": 72.8571125,
            "velocity": 0.23622047244094488
          },
          {
            "duration": 0.08571425000000943,
            "durationTicks": 96,
            "midi": 41,
            "name": "F2",
            "ticks": 81600,
            "time": 72.8571125,
            "velocity": 0.23622047244094488
          },
          {
            "duration": 0.08571425000000943,
            "durationTicks": 96,
            "midi": 77,
            "name": "F5",
            "ticks": 81600,
            "time": 72.8571125,
            "velocity": 0.23622047244094488
          },
          {
            "duration": 0.08571424999999522,
            "durationTicks": 96,
            "midi": 44,
            "name": "G#2",
            "ticks": 81792,
            "time": 73.028541,
            "velocity": 0.23622047244094488
          },
          {
            "duration": 0.08571424999999522,
            "durationTicks": 96,
            "midi": 91,
            "name": "G6",
            "ticks": 81792,
            "time": 73.028541,
            "velocity": 0.23622047244094488
          },
          {
            "duration": 0.08571425000000943,
            "durationTicks": 96,
            "midi": 93,
            "name": "A6",
            "ticks": 81888,
            "time": 73.11425525,
            "velocity": 0.23622047244094488
          },
          {
            "duration": 0.08571424999999522,
            "durationTicks": 96,
            "midi": 39,
            "name": "D#2",
            "ticks": 81984,
            "time": 73.19996950000001,
            "velocity": 0.23622047244094488
          },
          {
            "duration": 0.08571424999999522,
            "durationTicks": 96,
            "midi": 81,
            "name": "A5",
            "ticks": 81984,
            "time": 73.19996950000001,
            "velocity": 0.23622047244094488
          },
          {
            "duration": 0.08571424999999522,
            "durationTicks": 96,
            "midi": 91,
            "name": "G6",
            "ticks": 81984,
            "time": 73.19996950000001,
            "velocity": 0.23622047244094488
          },
          {
            "duration": 0.08571424999999522,
            "durationTicks": 96,
            "midi": 77,
            "name": "F5",
            "ticks": 81984,
            "time": 73.19996950000001,
            "velocity": 0.23622047244094488
          },
          {
            "duration": 0.08571424999999522,
            "durationTicks": 96,
            "midi": 93,
            "name": "A6",
            "ticks": 82080,
            "time": 73.28568375,
            "velocity": 0.23622047244094488
          },
          {
            "duration": 0.08571425000000943,
            "durationTicks": 96,
            "midi": 74,
            "name": "D5",
            "ticks": 82176,
            "time": 73.371398,
            "velocity": 0.23622047244094488
          },
          {
            "duration": 0.08571425000000943,
            "durationTicks": 96,
            "midi": 84,
            "name": "C6",
            "ticks": 82176,
            "time": 73.371398,
            "velocity": 0.23622047244094488
          },
          {
            "duration": 0.08571424999999522,
            "durationTicks": 96,
            "midi": 39,
            "name": "D#2",
            "ticks": 82368,
            "time": 73.5428265,
            "velocity": 0.23622047244094488
          },
          {
            "duration": 0.08571424999999522,
            "durationTicks": 96,
            "midi": 77,
            "name": "F5",
            "ticks": 82368,
            "time": 73.5428265,
            "velocity": 0.23622047244094488
          },
          {
            "duration": 0.08571424999999522,
            "durationTicks": 96,
            "midi": 81,
            "name": "A5",
            "ticks": 82368,
            "time": 73.5428265,
            "velocity": 0.23622047244094488
          },
          {
            "duration": 0.08571424999999522,
            "durationTicks": 96,
            "midi": 93,
            "name": "A6",
            "ticks": 82368,
            "time": 73.5428265,
            "velocity": 0.23622047244094488
          },
          {
            "duration": 0.08571425000000943,
            "durationTicks": 96,
            "midi": 84,
            "name": "C6",
            "ticks": 82464,
            "time": 73.62854075,
            "velocity": 0.23622047244094488
          },
          {
            "duration": 0.08571424999999522,
            "durationTicks": 96,
            "midi": 44,
            "name": "G#2",
            "ticks": 82560,
            "time": 73.71425500000001,
            "velocity": 0.23622047244094488
          },
          {
            "duration": 0.08571424999999522,
            "durationTicks": 96,
            "midi": 88,
            "name": "E6",
            "ticks": 82560,
            "time": 73.71425500000001,
            "velocity": 0.23622047244094488
          },
          {
            "duration": 0.08571425000000943,
            "durationTicks": 96,
            "midi": 41,
            "name": "F2",
            "ticks": 82752,
            "time": 73.8856835,
            "velocity": 0.23622047244094488
          },
          {
            "duration": 0.08571425000000943,
            "durationTicks": 96,
            "midi": 81,
            "name": "A5",
            "ticks": 82752,
            "time": 73.8856835,
            "velocity": 0.23622047244094488
          },
          {
            "duration": 0.08571425000000943,
            "durationTicks": 96,
            "midi": 77,
            "name": "F5",
            "ticks": 82752,
            "time": 73.8856835,
            "velocity": 0.23622047244094488
          },
          {
            "duration": 0.08571425000000943,
            "durationTicks": 96,
            "midi": 89,
            "name": "F6",
            "ticks": 82752,
            "time": 73.8856835,
            "velocity": 0.23622047244094488
          },
          {
            "duration": 0.08571424999999522,
            "durationTicks": 96,
            "midi": 39,
            "name": "D#2",
            "ticks": 82944,
            "time": 74.057112,
            "velocity": 0.23622047244094488
          },
          {
            "duration": 0.08571424999999522,
            "durationTicks": 96,
            "midi": 70,
            "name": "A#4",
            "ticks": 82944,
            "time": 74.057112,
            "velocity": 0.23622047244094488
          },
          {
            "duration": 0.08571424999999522,
            "durationTicks": 96,
            "midi": 57,
            "name": "A3",
            "ticks": 82944,
            "time": 74.057112,
            "velocity": 0.23622047244094488
          },
          {
            "duration": 0.08571424999999522,
            "durationTicks": 96,
            "midi": 91,
            "name": "G6",
            "ticks": 82944,
            "time": 74.057112,
            "velocity": 0.23622047244094488
          },
          {
            "duration": 0.08571424999999522,
            "durationTicks": 96,
            "midi": 79,
            "name": "G5",
            "ticks": 83136,
            "time": 74.22854050000001,
            "velocity": 0.23622047244094488
          },
          {
            "duration": 0.08571424999999522,
            "durationTicks": 96,
            "midi": 41,
            "name": "F2",
            "ticks": 83136,
            "time": 74.22854050000001,
            "velocity": 0.23622047244094488
          },
          {
            "duration": 0.08571424999999522,
            "durationTicks": 96,
            "midi": 74,
            "name": "D5",
            "ticks": 83136,
            "time": 74.22854050000001,
            "velocity": 0.23622047244094488
          },
          {
            "duration": 0.08571424999999522,
            "durationTicks": 96,
            "midi": 86,
            "name": "D6",
            "ticks": 83136,
            "time": 74.22854050000001,
            "velocity": 0.23622047244094488
          },
          {
            "duration": 0.08571424999999522,
            "durationTicks": 96,
            "midi": 91,
            "name": "G6",
            "ticks": 83232,
            "time": 74.31425475,
            "velocity": 0.23622047244094488
          },
          {
            "duration": 0.08571425000000943,
            "durationTicks": 96,
            "midi": 44,
            "name": "G#2",
            "ticks": 83328,
            "time": 74.399969,
            "velocity": 0.23622047244094488
          },
          {
            "duration": 0.08571424999999522,
            "durationTicks": 96,
            "midi": 86,
            "name": "D6",
            "ticks": 83424,
            "time": 74.48568325000001,
            "velocity": 0.23622047244094488
          },
          {
            "duration": 0.08571424999999522,
            "durationTicks": 96,
            "midi": 74,
            "name": "D5",
            "ticks": 83520,
            "time": 74.5713975,
            "velocity": 0.23622047244094488
          },
          {
            "duration": 0.08571424999999522,
            "durationTicks": 96,
            "midi": 39,
            "name": "D#2",
            "ticks": 83520,
            "time": 74.5713975,
            "velocity": 0.23622047244094488
          },
          {
            "duration": 0.08571424999999522,
            "durationTicks": 96,
            "midi": 91,
            "name": "G6",
            "ticks": 83520,
            "time": 74.5713975,
            "velocity": 0.23622047244094488
          },
          {
            "duration": 0.08571424999999522,
            "durationTicks": 96,
            "midi": 79,
            "name": "G5",
            "ticks": 83520,
            "time": 74.5713975,
            "velocity": 0.23622047244094488
          },
          {
            "duration": 0.08571424999999522,
            "durationTicks": 96,
            "midi": 72,
            "name": "C5",
            "ticks": 83712,
            "time": 74.74282600000001,
            "velocity": 0.23622047244094488
          },
          {
            "duration": 0.08571424999999522,
            "durationTicks": 96,
            "midi": 93,
            "name": "A6",
            "ticks": 83712,
            "time": 74.74282600000001,
            "velocity": 0.23622047244094488
          },
          {
            "duration": 0.08571424999999522,
            "durationTicks": 96,
            "midi": 57,
            "name": "A3",
            "ticks": 83712,
            "time": 74.74282600000001,
            "velocity": 0.23622047244094488
          },
          {
            "duration": 0.08571425000000943,
            "durationTicks": 96,
            "midi": 76,
            "name": "E5",
            "ticks": 83904,
            "time": 74.9142545,
            "velocity": 0.23622047244094488
          },
          {
            "duration": 0.08571425000000943,
            "durationTicks": 96,
            "midi": 88,
            "name": "E6",
            "ticks": 83904,
            "time": 74.9142545,
            "velocity": 0.23622047244094488
          },
          {
            "duration": 0.08571425000000943,
            "durationTicks": 96,
            "midi": 81,
            "name": "A5",
            "ticks": 83904,
            "time": 74.9142545,
            "velocity": 0.23622047244094488
          },
          {
            "duration": 0.08571425000000943,
            "durationTicks": 96,
            "midi": 39,
            "name": "D#2",
            "ticks": 83904,
            "time": 74.9142545,
            "velocity": 0.23622047244094488
          },
          {
            "duration": 0.08571424999999522,
            "durationTicks": 96,
            "midi": 93,
            "name": "A6",
            "ticks": 84000,
            "time": 74.99996875000001,
            "velocity": 0.23622047244094488
          },
          {
            "duration": 0.08571424999999522,
            "durationTicks": 96,
            "midi": 44,
            "name": "G#2",
            "ticks": 84096,
            "time": 75.085683,
            "velocity": 0.23622047244094488
          },
          {
            "duration": 0.08571425000000943,
            "durationTicks": 96,
            "midi": 88,
            "name": "E6",
            "ticks": 84192,
            "time": 75.17139725,
            "velocity": 0.23622047244094488
          },
          {
            "duration": 0.08571424999999522,
            "durationTicks": 96,
            "midi": 41,
            "name": "F2",
            "ticks": 84288,
            "time": 75.25711150000001,
            "velocity": 0.23622047244094488
          },
          {
            "duration": 0.08571424999999522,
            "durationTicks": 96,
            "midi": 93,
            "name": "A6",
            "ticks": 84288,
            "time": 75.25711150000001,
            "velocity": 0.23622047244094488
          },
          {
            "duration": 0.08571424999999522,
            "durationTicks": 96,
            "midi": 76,
            "name": "E5",
            "ticks": 84288,
            "time": 75.25711150000001,
            "velocity": 0.23622047244094488
          },
          {
            "duration": 0.08571424999999522,
            "durationTicks": 96,
            "midi": 81,
            "name": "A5",
            "ticks": 84288,
            "time": 75.25711150000001,
            "velocity": 0.23622047244094488
          },
          {
            "duration": 0.08571425000000943,
            "durationTicks": 96,
            "midi": 74,
            "name": "D5",
            "ticks": 84480,
            "time": 75.42854,
            "velocity": 0.23622047244094488
          },
          {
            "duration": 0.08571425000000943,
            "durationTicks": 96,
            "midi": 39,
            "name": "D#2",
            "ticks": 84480,
            "time": 75.42854,
            "velocity": 0.23622047244094488
          },
          {
            "duration": 0.08571425000000943,
            "durationTicks": 96,
            "midi": 57,
            "name": "A3",
            "ticks": 84480,
            "time": 75.42854,
            "velocity": 0.23622047244094488
          },
          {
            "duration": 0.08571425000000943,
            "durationTicks": 96,
            "midi": 94,
            "name": "A#6",
            "ticks": 84480,
            "time": 75.42854,
            "velocity": 0.23622047244094488
          },
          {
            "duration": 0.08571424999999522,
            "durationTicks": 96,
            "midi": 82,
            "name": "A#5",
            "ticks": 84672,
            "time": 75.5999685,
            "velocity": 0.23622047244094488
          },
          {
            "duration": 0.08571424999999522,
            "durationTicks": 96,
            "midi": 89,
            "name": "F6",
            "ticks": 84672,
            "time": 75.5999685,
            "velocity": 0.23622047244094488
          },
          {
            "duration": 0.08571424999999522,
            "durationTicks": 96,
            "midi": 41,
            "name": "F2",
            "ticks": 84672,
            "time": 75.5999685,
            "velocity": 0.23622047244094488
          },
          {
            "duration": 0.08571424999999522,
            "durationTicks": 96,
            "midi": 77,
            "name": "F5",
            "ticks": 84672,
            "time": 75.5999685,
            "velocity": 0.23622047244094488
          },
          {
            "duration": 0.08571424999999522,
            "durationTicks": 96,
            "midi": 57,
            "name": "A3",
            "ticks": 84864,
            "time": 75.77139700000001,
            "velocity": 0.23622047244094488
          },
          {
            "duration": 0.08571424999999522,
            "durationTicks": 96,
            "midi": 44,
            "name": "G#2",
            "ticks": 84864,
            "time": 75.77139700000001,
            "velocity": 0.23622047244094488
          },
          {
            "duration": 0.08571424999999522,
            "durationTicks": 96,
            "midi": 88,
            "name": "E6",
            "ticks": 84864,
            "time": 75.77139700000001,
            "velocity": 0.23622047244094488
          },
          {
            "duration": 0.08571424999999522,
            "durationTicks": 96,
            "midi": 83,
            "name": "B5",
            "ticks": 85056,
            "time": 75.94282550000001,
            "velocity": 0.23622047244094488
          },
          {
            "duration": 0.08571424999999522,
            "durationTicks": 96,
            "midi": 79,
            "name": "G5",
            "ticks": 85056,
            "time": 75.94282550000001,
            "velocity": 0.23622047244094488
          },
          {
            "duration": 0.08571424999999522,
            "durationTicks": 96,
            "midi": 39,
            "name": "D#2",
            "ticks": 85056,
            "time": 75.94282550000001,
            "velocity": 0.23622047244094488
          },
          {
            "duration": 0.08571424999999522,
            "durationTicks": 96,
            "midi": 86,
            "name": "D6",
            "ticks": 85056,
            "time": 75.94282550000001,
            "velocity": 0.23622047244094488
          },
          {
            "duration": 0.08571425000000943,
            "durationTicks": 96,
            "midi": 81,
            "name": "A5",
            "ticks": 85248,
            "time": 76.114254,
            "velocity": 0.23622047244094488
          },
          {
            "duration": 0.08571425000000943,
            "durationTicks": 96,
            "midi": 88,
            "name": "E6",
            "ticks": 85248,
            "time": 76.114254,
            "velocity": 0.23622047244094488
          },
          {
            "duration": 0.08571425000000943,
            "durationTicks": 96,
            "midi": 84,
            "name": "C6",
            "ticks": 85248,
            "time": 76.114254,
            "velocity": 0.23622047244094488
          },
          {
            "duration": 0.08571425000000943,
            "durationTicks": 96,
            "midi": 57,
            "name": "A3",
            "ticks": 85248,
            "time": 76.114254,
            "velocity": 0.23622047244094488
          },
          {
            "duration": 0.08571425000000943,
            "durationTicks": 96,
            "midi": 44,
            "name": "G#2",
            "ticks": 85248,
            "time": 76.114254,
            "velocity": 0.23622047244094488
          },
          {
            "duration": 0.08571424999999522,
            "durationTicks": 96,
            "midi": 39,
            "name": "D#2",
            "ticks": 85440,
            "time": 76.28568250000001,
            "velocity": 0.23622047244094488
          },
          {
            "duration": 0.08571425000000943,
            "durationTicks": 96,
            "midi": 84,
            "name": "C6",
            "ticks": 85536,
            "time": 76.37139675,
            "velocity": 0.23622047244094488
          },
          {
            "duration": 0.08571425000000943,
            "durationTicks": 96,
            "midi": 81,
            "name": "A5",
            "ticks": 85536,
            "time": 76.37139675,
            "velocity": 0.23622047244094488
          },
          {
            "duration": 0.08571424999999522,
            "durationTicks": 96,
            "midi": 44,
            "name": "G#2",
            "ticks": 85632,
            "time": 76.45711100000001,
            "velocity": 0.23622047244094488
          },
          {
            "duration": 0.08571424999999522,
            "durationTicks": 96,
            "midi": 57,
            "name": "A3",
            "ticks": 85632,
            "time": 76.45711100000001,
            "velocity": 0.23622047244094488
          },
          {
            "duration": 0.08571425000000943,
            "durationTicks": 96,
            "midi": 41,
            "name": "F2",
            "ticks": 85824,
            "time": 76.6285395,
            "velocity": 0.23622047244094488
          },
          {
            "duration": 0.08571425000000943,
            "durationTicks": 96,
            "midi": 84,
            "name": "C6",
            "ticks": 85824,
            "time": 76.6285395,
            "velocity": 0.23622047244094488
          },
          {
            "duration": 0.08571425000000943,
            "durationTicks": 96,
            "midi": 81,
            "name": "A5",
            "ticks": 85824,
            "time": 76.6285395,
            "velocity": 0.23622047244094488
          },
          {
            "duration": 0.08571424999999522,
            "durationTicks": 96,
            "midi": 57,
            "name": "A3",
            "ticks": 86016,
            "time": 76.799968,
            "velocity": 0.23622047244094488
          },
          {
            "duration": 0.08571424999999522,
            "durationTicks": 96,
            "midi": 82,
            "name": "A#5",
            "ticks": 86016,
            "time": 76.799968,
            "velocity": 0.23622047244094488
          },
          {
            "duration": 0.08571424999999522,
            "durationTicks": 96,
            "midi": 71,
            "name": "B4",
            "ticks": 86016,
            "time": 76.799968,
            "velocity": 0.23622047244094488
          },
          {
            "duration": 0.08571424999999522,
            "durationTicks": 96,
            "midi": 39,
            "name": "D#2",
            "ticks": 86016,
            "time": 76.799968,
            "velocity": 0.23622047244094488
          },
          {
            "duration": 0.08571424999999522,
            "durationTicks": 96,
            "midi": 90,
            "name": "F#6",
            "ticks": 86208,
            "time": 76.97139650000001,
            "velocity": 0.23622047244094488
          },
          {
            "duration": 0.08571424999999522,
            "durationTicks": 96,
            "midi": 78,
            "name": "F#5",
            "ticks": 86208,
            "time": 76.97139650000001,
            "velocity": 0.23622047244094488
          },
          {
            "duration": 0.08571424999999522,
            "durationTicks": 96,
            "midi": 75,
            "name": "D#5",
            "ticks": 86208,
            "time": 76.97139650000001,
            "velocity": 0.23622047244094488
          },
          {
            "duration": 0.08571424999999522,
            "durationTicks": 96,
            "midi": 41,
            "name": "F2",
            "ticks": 86208,
            "time": 76.97139650000001,
            "velocity": 0.23622047244094488
          },
          {
            "duration": 0.08571425000000943,
            "durationTicks": 96,
            "midi": 89,
            "name": "F6",
            "ticks": 86400,
            "time": 77.142825,
            "velocity": 0.23622047244094488
          },
          {
            "duration": 0.08571425000000943,
            "durationTicks": 96,
            "midi": 44,
            "name": "G#2",
            "ticks": 86400,
            "time": 77.142825,
            "velocity": 0.23622047244094488
          },
          {
            "duration": 0.08571424999999522,
            "durationTicks": 96,
            "midi": 90,
            "name": "F#6",
            "ticks": 86496,
            "time": 77.22853925000001,
            "velocity": 0.23622047244094488
          },
          {
            "duration": 0.08571424999999522,
            "durationTicks": 96,
            "midi": 78,
            "name": "F#5",
            "ticks": 86592,
            "time": 77.3142535,
            "velocity": 0.23622047244094488
          },
          {
            "duration": 0.08571424999999522,
            "durationTicks": 96,
            "midi": 75,
            "name": "D#5",
            "ticks": 86592,
            "time": 77.3142535,
            "velocity": 0.23622047244094488
          },
          {
            "duration": 0.08571424999999522,
            "durationTicks": 96,
            "midi": 39,
            "name": "D#2",
            "ticks": 86592,
            "time": 77.3142535,
            "velocity": 0.23622047244094488
          },
          {
            "duration": 0.08571424999999522,
            "durationTicks": 96,
            "midi": 89,
            "name": "F6",
            "ticks": 86592,
            "time": 77.3142535,
            "velocity": 0.23622047244094488
          },
          {
            "duration": 0.08571424999999522,
            "durationTicks": 96,
            "midi": 73,
            "name": "C#5",
            "ticks": 86784,
            "time": 77.48568200000001,
            "velocity": 0.23622047244094488
          },
          {
            "duration": 0.08571424999999522,
            "durationTicks": 96,
            "midi": 92,
            "name": "G#6",
            "ticks": 86784,
            "time": 77.48568200000001,
            "velocity": 0.23622047244094488
          },
          {
            "duration": 0.08571425000000943,
            "durationTicks": 96,
            "midi": 39,
            "name": "D#2",
            "ticks": 86976,
            "time": 77.6571105,
            "velocity": 0.23622047244094488
          },
          {
            "duration": 0.08571425000000943,
            "durationTicks": 96,
            "midi": 90,
            "name": "F#6",
            "ticks": 86976,
            "time": 77.6571105,
            "velocity": 0.23622047244094488
          },
          {
            "duration": 0.08571425000000943,
            "durationTicks": 96,
            "midi": 80,
            "name": "G#5",
            "ticks": 86976,
            "time": 77.6571105,
            "velocity": 0.23622047244094488
          },
          {
            "duration": 0.08571425000000943,
            "durationTicks": 96,
            "midi": 77,
            "name": "F5",
            "ticks": 86976,
            "time": 77.6571105,
            "velocity": 0.23622047244094488
          },
          {
            "duration": 0.08571424999999522,
            "durationTicks": 96,
            "midi": 89,
            "name": "F6",
            "ticks": 87168,
            "time": 77.828539,
            "velocity": 0.23622047244094488
          },
          {
            "duration": 0.08571424999999522,
            "durationTicks": 96,
            "midi": 44,
            "name": "G#2",
            "ticks": 87168,
            "time": 77.828539,
            "velocity": 0.23622047244094488
          },
          {
            "duration": 0.08571425000000943,
            "durationTicks": 96,
            "midi": 90,
            "name": "F#6",
            "ticks": 87264,
            "time": 77.91425325,
            "velocity": 0.23622047244094488
          },
          {
            "duration": 0.08571424999999522,
            "durationTicks": 96,
            "midi": 89,
            "name": "F6",
            "ticks": 87360,
            "time": 77.99996750000001,
            "velocity": 0.23622047244094488
          },
          {
            "duration": 0.08571424999999522,
            "durationTicks": 96,
            "midi": 41,
            "name": "F2",
            "ticks": 87360,
            "time": 77.99996750000001,
            "velocity": 0.23622047244094488
          },
          {
            "duration": 0.08571424999999522,
            "durationTicks": 96,
            "midi": 80,
            "name": "G#5",
            "ticks": 87360,
            "time": 77.99996750000001,
            "velocity": 0.23622047244094488
          },
          {
            "duration": 0.08571424999999522,
            "durationTicks": 96,
            "midi": 77,
            "name": "F5",
            "ticks": 87360,
            "time": 77.99996750000001,
            "velocity": 0.23622047244094488
          },
          {
            "duration": 0.08571424999999522,
            "durationTicks": 96,
            "midi": 85,
            "name": "C#6",
            "ticks": 87456,
            "time": 78.08568175,
            "velocity": 0.23622047244094488
          },
          {
            "duration": 0.08571425000000943,
            "durationTicks": 96,
            "midi": 75,
            "name": "D#5",
            "ticks": 87552,
            "time": 78.171396,
            "velocity": 0.23622047244094488
          },
          {
            "duration": 0.08571425000000943,
            "durationTicks": 96,
            "midi": 39,
            "name": "D#2",
            "ticks": 87552,
            "time": 78.171396,
            "velocity": 0.23622047244094488
          },
          {
            "duration": 0.08571425000000943,
            "durationTicks": 96,
            "midi": 87,
            "name": "D#6",
            "ticks": 87552,
            "time": 78.171396,
            "velocity": 0.23622047244094488
          },
          {
            "duration": 0.08571424999999522,
            "durationTicks": 96,
            "midi": 41,
            "name": "F2",
            "ticks": 87744,
            "time": 78.3428245,
            "velocity": 0.23622047244094488
          },
          {
            "duration": 0.08571424999999522,
            "durationTicks": 96,
            "midi": 78,
            "name": "F#5",
            "ticks": 87744,
            "time": 78.3428245,
            "velocity": 0.23622047244094488
          },
          {
            "duration": 0.08571424999999522,
            "durationTicks": 96,
            "midi": 82,
            "name": "A#5",
            "ticks": 87744,
            "time": 78.3428245,
            "velocity": 0.23622047244094488
          },
          {
            "duration": 0.08571424999999522,
            "durationTicks": 96,
            "midi": 94,
            "name": "A#6",
            "ticks": 87744,
            "time": 78.3428245,
            "velocity": 0.23622047244094488
          },
          {
            "duration": 0.08571424999999522,
            "durationTicks": 96,
            "midi": 44,
            "name": "G#2",
            "ticks": 87936,
            "time": 78.51425300000001,
            "velocity": 0.23622047244094488
          },
          {
            "duration": 0.08571424999999522,
            "durationTicks": 96,
            "midi": 92,
            "name": "G#6",
            "ticks": 87936,
            "time": 78.51425300000001,
            "velocity": 0.23622047244094488
          },
          {
            "duration": 0.08571424999999522,
            "durationTicks": 96,
            "midi": 94,
            "name": "A#6",
            "ticks": 88032,
            "time": 78.59996725,
            "velocity": 0.23622047244094488
          },
          {
            "duration": 0.08571425000000943,
            "durationTicks": 96,
            "midi": 39,
            "name": "D#2",
            "ticks": 88128,
            "time": 78.6856815,
            "velocity": 0.23622047244094488
          },
          {
            "duration": 0.08571425000000943,
            "durationTicks": 96,
            "midi": 82,
            "name": "A#5",
            "ticks": 88128,
            "time": 78.6856815,
            "velocity": 0.23622047244094488
          },
          {
            "duration": 0.08571425000000943,
            "durationTicks": 96,
            "midi": 92,
            "name": "G#6",
            "ticks": 88128,
            "time": 78.6856815,
            "velocity": 0.23622047244094488
          },
          {
            "duration": 0.08571425000000943,
            "durationTicks": 96,
            "midi": 78,
            "name": "F#5",
            "ticks": 88128,
            "time": 78.6856815,
            "velocity": 0.23622047244094488
          },
          {
            "duration": 0.08571424999999522,
            "durationTicks": 96,
            "midi": 94,
            "name": "A#6",
            "ticks": 88224,
            "time": 78.77139575000001,
            "velocity": 0.23622047244094488
          },
          {
            "duration": 0.08571424999999522,
            "durationTicks": 96,
            "midi": 85,
            "name": "C#6",
            "ticks": 88320,
            "time": 78.85711,
            "velocity": 0.23622047244094488
          },
          {
            "duration": 0.08571424999999522,
            "durationTicks": 96,
            "midi": 75,
            "name": "D#5",
            "ticks": 88320,
            "time": 78.85711,
            "velocity": 0.23622047244094488
          },
          {
            "duration": 0.08571424999999522,
            "durationTicks": 96,
            "midi": 39,
            "name": "D#2",
            "ticks": 88512,
            "time": 79.02853850000001,
            "velocity": 0.23622047244094488
          },
          {
            "duration": 0.08571424999999522,
            "durationTicks": 96,
            "midi": 82,
            "name": "A#5",
            "ticks": 88512,
            "time": 79.02853850000001,
            "velocity": 0.23622047244094488
          },
          {
            "duration": 0.08571424999999522,
            "durationTicks": 96,
            "midi": 94,
            "name": "A#6",
            "ticks": 88512,
            "time": 79.02853850000001,
            "velocity": 0.23622047244094488
          },
          {
            "duration": 0.08571424999999522,
            "durationTicks": 96,
            "midi": 78,
            "name": "F#5",
            "ticks": 88512,
            "time": 79.02853850000001,
            "velocity": 0.23622047244094488
          },
          {
            "duration": 0.08571425000000943,
            "durationTicks": 96,
            "midi": 44,
            "name": "G#2",
            "ticks": 88704,
            "time": 79.199967,
            "velocity": 0.23622047244094488
          },
          {
            "duration": 0.08571425000000943,
            "durationTicks": 96,
            "midi": 92,
            "name": "G#6",
            "ticks": 88704,
            "time": 79.199967,
            "velocity": 0.23622047244094488
          },
          {
            "duration": 0.08571424999999522,
            "durationTicks": 96,
            "midi": 94,
            "name": "A#6",
            "ticks": 88896,
            "time": 79.3713955,
            "velocity": 0.23622047244094488
          },
          {
            "duration": 0.08571424999999522,
            "durationTicks": 96,
            "midi": 41,
            "name": "F2",
            "ticks": 88896,
            "time": 79.3713955,
            "velocity": 0.23622047244094488
          },
          {
            "duration": 0.08571424999999522,
            "durationTicks": 96,
            "midi": 78,
            "name": "F#5",
            "ticks": 88896,
            "time": 79.3713955,
            "velocity": 0.23622047244094488
          },
          {
            "duration": 0.08571424999999522,
            "durationTicks": 96,
            "midi": 82,
            "name": "A#5",
            "ticks": 88896,
            "time": 79.3713955,
            "velocity": 0.23622047244094488
          },
          {
            "duration": 0.08571424999999522,
            "durationTicks": 96,
            "midi": 39,
            "name": "D#2",
            "ticks": 89088,
            "time": 79.54282400000001,
            "velocity": 0.23622047244094488
          },
          {
            "duration": 0.08571424999999522,
            "durationTicks": 96,
            "midi": 71,
            "name": "B4",
            "ticks": 89088,
            "time": 79.54282400000001,
            "velocity": 0.23622047244094488
          },
          {
            "duration": 0.08571424999999522,
            "durationTicks": 96,
            "midi": 83,
            "name": "B5",
            "ticks": 89088,
            "time": 79.54282400000001,
            "velocity": 0.23622047244094488
          },
          {
            "duration": 0.08571424999999522,
            "durationTicks": 96,
            "midi": 57,
            "name": "A3",
            "ticks": 89088,
            "time": 79.54282400000001,
            "velocity": 0.23622047244094488
          },
          {
            "duration": 0.08571425000000943,
            "durationTicks": 96,
            "midi": 41,
            "name": "F2",
            "ticks": 89280,
            "time": 79.7142525,
            "velocity": 0.23622047244094488
          },
          {
            "duration": 0.08571425000000943,
            "durationTicks": 96,
            "midi": 75,
            "name": "D#5",
            "ticks": 89280,
            "time": 79.7142525,
            "velocity": 0.23622047244094488
          },
          {
            "duration": 0.08571425000000943,
            "durationTicks": 96,
            "midi": 78,
            "name": "F#5",
            "ticks": 89280,
            "time": 79.7142525,
            "velocity": 0.23622047244094488
          },
          {
            "duration": 0.08571425000000943,
            "durationTicks": 96,
            "midi": 90,
            "name": "F#6",
            "ticks": 89280,
            "time": 79.7142525,
            "velocity": 0.23622047244094488
          },
          {
            "duration": 0.08571424999999522,
            "durationTicks": 96,
            "midi": 44,
            "name": "G#2",
            "ticks": 89472,
            "time": 79.885681,
            "velocity": 0.23622047244094488
          },
          {
            "duration": 0.08571424999999522,
            "durationTicks": 96,
            "midi": 89,
            "name": "F6",
            "ticks": 89472,
            "time": 79.885681,
            "velocity": 0.23622047244094488
          },
          {
            "duration": 0.08571425000000943,
            "durationTicks": 96,
            "midi": 90,
            "name": "F#6",
            "ticks": 89568,
            "time": 79.97139525,
            "velocity": 0.23622047244094488
          },
          {
            "duration": 0.08571424999999522,
            "durationTicks": 96,
            "midi": 39,
            "name": "D#2",
            "ticks": 89664,
            "time": 80.05710950000001,
            "velocity": 0.23622047244094488
          },
          {
            "duration": 0.08571424999999522,
            "durationTicks": 96,
            "midi": 78,
            "name": "F#5",
            "ticks": 89664,
            "time": 80.05710950000001,
            "velocity": 0.23622047244094488
          },
          {
            "duration": 0.08571424999999522,
            "durationTicks": 96,
            "midi": 75,
            "name": "D#5",
            "ticks": 89664,
            "time": 80.05710950000001,
            "velocity": 0.23622047244094488
          },
          {
            "duration": 0.08571424999999522,
            "durationTicks": 96,
            "midi": 89,
            "name": "F6",
            "ticks": 89664,
            "time": 80.05710950000001,
            "velocity": 0.23622047244094488
          },
          {
            "duration": 0.08571425000000943,
            "durationTicks": 96,
            "midi": 92,
            "name": "G#6",
            "ticks": 89856,
            "time": 80.228538,
            "velocity": 0.23622047244094488
          },
          {
            "duration": 0.08571425000000943,
            "durationTicks": 96,
            "midi": 73,
            "name": "C#5",
            "ticks": 89856,
            "time": 80.228538,
            "velocity": 0.23622047244094488
          },
          {
            "duration": 0.08571424999999522,
            "durationTicks": 96,
            "midi": 39,
            "name": "D#2",
            "ticks": 90048,
            "time": 80.3999665,
            "velocity": 0.23622047244094488
          },
          {
            "duration": 0.08571424999999522,
            "durationTicks": 96,
            "midi": 80,
            "name": "G#5",
            "ticks": 90048,
            "time": 80.3999665,
            "velocity": 0.23622047244094488
          },
          {
            "duration": 0.08571424999999522,
            "durationTicks": 96,
            "midi": 90,
            "name": "F#6",
            "ticks": 90048,
            "time": 80.3999665,
            "velocity": 0.23622047244094488
          },
          {
            "duration": 0.08571424999999522,
            "durationTicks": 96,
            "midi": 77,
            "name": "F5",
            "ticks": 90048,
            "time": 80.3999665,
            "velocity": 0.23622047244094488
          },
          {
            "duration": 0.08571424999999522,
            "durationTicks": 96,
            "midi": 44,
            "name": "G#2",
            "ticks": 90240,
            "time": 80.57139500000001,
            "velocity": 0.23622047244094488
          },
          {
            "duration": 0.08571424999999522,
            "durationTicks": 96,
            "midi": 89,
            "name": "F6",
            "ticks": 90240,
            "time": 80.57139500000001,
            "velocity": 0.23622047244094488
          },
          {
            "duration": 0.08571424999999522,
            "durationTicks": 96,
            "midi": 90,
            "name": "F#6",
            "ticks": 90336,
            "time": 80.65710925,
            "velocity": 0.23622047244094488
          },
          {
            "duration": 0.08571425000000943,
            "durationTicks": 96,
            "midi": 77,
            "name": "F5",
            "ticks": 90432,
            "time": 80.7428235,
            "velocity": 0.23622047244094488
          },
          {
            "duration": 0.08571425000000943,
            "durationTicks": 96,
            "midi": 89,
            "name": "F6",
            "ticks": 90432,
            "time": 80.7428235,
            "velocity": 0.23622047244094488
          },
          {
            "duration": 0.08571425000000943,
            "durationTicks": 96,
            "midi": 41,
            "name": "F2",
            "ticks": 90432,
            "time": 80.7428235,
            "velocity": 0.23622047244094488
          },
          {
            "duration": 0.08571425000000943,
            "durationTicks": 96,
            "midi": 80,
            "name": "G#5",
            "ticks": 90432,
            "time": 80.7428235,
            "velocity": 0.23622047244094488
          },
          {
            "duration": 0.08571424999999522,
            "durationTicks": 96,
            "midi": 85,
            "name": "C#6",
            "ticks": 90528,
            "time": 80.82853775000001,
            "velocity": 0.23622047244094488
          },
          {
            "duration": 0.08571424999999522,
            "durationTicks": 96,
            "midi": 75,
            "name": "D#5",
            "ticks": 90624,
            "time": 80.914252,
            "velocity": 0.23622047244094488
          },
          {
            "duration": 0.08571424999999522,
            "durationTicks": 96,
            "midi": 39,
            "name": "D#2",
            "ticks": 90624,
            "time": 80.914252,
            "velocity": 0.23622047244094488
          },
          {
            "duration": 0.08571424999999522,
            "durationTicks": 96,
            "midi": 57,
            "name": "A3",
            "ticks": 90624,
            "time": 80.914252,
            "velocity": 0.23622047244094488
          },
          {
            "duration": 0.08571424999999522,
            "durationTicks": 96,
            "midi": 87,
            "name": "D#6",
            "ticks": 90624,
            "time": 80.914252,
            "velocity": 0.23622047244094488
          },
          {
            "duration": 0.08571424999999522,
            "durationTicks": 96,
            "midi": 78,
            "name": "F#5",
            "ticks": 90816,
            "time": 81.08568050000001,
            "velocity": 0.23622047244094488
          },
          {
            "duration": 0.08571424999999522,
            "durationTicks": 96,
            "midi": 82,
            "name": "A#5",
            "ticks": 90816,
            "time": 81.08568050000001,
            "velocity": 0.23622047244094488
          },
          {
            "duration": 0.08571424999999522,
            "durationTicks": 96,
            "midi": 94,
            "name": "A#6",
            "ticks": 90816,
            "time": 81.08568050000001,
            "velocity": 0.23622047244094488
          },
          {
            "duration": 0.08571424999999522,
            "durationTicks": 96,
            "midi": 41,
            "name": "F2",
            "ticks": 90816,
            "time": 81.08568050000001,
            "velocity": 0.23622047244094488
          },
          {
            "duration": 0.08571425000000943,
            "durationTicks": 96,
            "midi": 92,
            "name": "G#6",
            "ticks": 91008,
            "time": 81.257109,
            "velocity": 0.23622047244094488
          },
          {
            "duration": 0.08571425000000943,
            "durationTicks": 96,
            "midi": 75,
            "name": "D#5",
            "ticks": 91008,
            "time": 81.257109,
            "velocity": 0.23622047244094488
          },
          {
            "duration": 0.08571425000000943,
            "durationTicks": 96,
            "midi": 44,
            "name": "G#2",
            "ticks": 91008,
            "time": 81.257109,
            "velocity": 0.23622047244094488
          },
          {
            "duration": 0.08571424999999522,
            "durationTicks": 96,
            "midi": 94,
            "name": "A#6",
            "ticks": 91104,
            "time": 81.34282325000001,
            "velocity": 0.23622047244094488
          },
          {
            "duration": 0.08571424999999522,
            "durationTicks": 96,
            "midi": 39,
            "name": "D#2",
            "ticks": 91200,
            "time": 81.4285375,
            "velocity": 0.23622047244094488
          },
          {
            "duration": 0.08571424999999522,
            "durationTicks": 96,
            "midi": 80,
            "name": "G#5",
            "ticks": 91200,
            "time": 81.4285375,
            "velocity": 0.23622047244094488
          },
          {
            "duration": 0.08571424999999522,
            "durationTicks": 96,
            "midi": 92,
            "name": "G#6",
            "ticks": 91200,
            "time": 81.4285375,
            "velocity": 0.23622047244094488
          },
          {
            "duration": 0.08571424999999522,
            "durationTicks": 96,
            "midi": 85,
            "name": "C#6",
            "ticks": 91200,
            "time": 81.4285375,
            "velocity": 0.23622047244094488
          },
          {
            "duration": 0.08571425000000943,
            "durationTicks": 96,
            "midi": 94,
            "name": "A#6",
            "ticks": 91296,
            "time": 81.51425175,
            "velocity": 0.23622047244094488
          },
          {
            "duration": 0.08571424999999522,
            "durationTicks": 96,
            "midi": 75,
            "name": "D#5",
            "ticks": 91392,
            "time": 81.59996600000001,
            "velocity": 0.23622047244094488
          },
          {
            "duration": 0.08571424999999522,
            "durationTicks": 96,
            "midi": 86,
            "name": "D6",
            "ticks": 91392,
            "time": 81.59996600000001,
            "velocity": 0.23622047244094488
          },
          {
            "duration": 0.08571424999999522,
            "durationTicks": 96,
            "midi": 57,
            "name": "A3",
            "ticks": 91392,
            "time": 81.59996600000001,
            "velocity": 0.23622047244094488
          },
          {
            "duration": 0.08571424999999522,
            "durationTicks": 96,
            "midi": 44,
            "name": "G#2",
            "ticks": 91392,
            "time": 81.59996600000001,
            "velocity": 0.23622047244094488
          },
          {
            "duration": 0.08571425000000943,
            "durationTicks": 96,
            "midi": 39,
            "name": "D#2",
            "ticks": 91584,
            "time": 81.7713945,
            "velocity": 0.23622047244094488
          },
          {
            "duration": 0.08571425000000943,
            "durationTicks": 96,
            "midi": 94,
            "name": "A#6",
            "ticks": 91584,
            "time": 81.7713945,
            "velocity": 0.23622047244094488
          },
          {
            "duration": 0.08571425000000943,
            "durationTicks": 96,
            "midi": 87,
            "name": "D#6",
            "ticks": 91584,
            "time": 81.7713945,
            "velocity": 0.23622047244094488
          },
          {
            "duration": 0.08571425000000943,
            "durationTicks": 96,
            "midi": 82,
            "name": "A#5",
            "ticks": 91584,
            "time": 81.7713945,
            "velocity": 0.23622047244094488
          },
          {
            "duration": 0.08571424999999522,
            "durationTicks": 96,
            "midi": 75,
            "name": "D#5",
            "ticks": 91776,
            "time": 81.942823,
            "velocity": 0.23622047244094488
          },
          {
            "duration": 0.08571424999999522,
            "durationTicks": 96,
            "midi": 92,
            "name": "G#6",
            "ticks": 91776,
            "time": 81.942823,
            "velocity": 0.23622047244094488
          },
          {
            "duration": 0.08571424999999522,
            "durationTicks": 96,
            "midi": 44,
            "name": "G#2",
            "ticks": 91776,
            "time": 81.942823,
            "velocity": 0.23622047244094488
          },
          {
            "duration": 0.08571424999999522,
            "durationTicks": 96,
            "midi": 82,
            "name": "A#5",
            "ticks": 91968,
            "time": 82.11425150000001,
            "velocity": 0.23622047244094488
          },
          {
            "duration": 0.08571424999999522,
            "durationTicks": 96,
            "midi": 78,
            "name": "F#5",
            "ticks": 91968,
            "time": 82.11425150000001,
            "velocity": 0.23622047244094488
          },
          {
            "duration": 0.08571424999999522,
            "durationTicks": 96,
            "midi": 41,
            "name": "F2",
            "ticks": 91968,
            "time": 82.11425150000001,
            "velocity": 0.23622047244094488
          },
          {
            "duration": 0.08571424999999522,
            "durationTicks": 96,
            "midi": 94,
            "name": "A#6",
            "ticks": 91968,
            "time": 82.11425150000001,
            "velocity": 0.23622047244094488
          },
          {
            "duration": 0.08571425000000943,
            "durationTicks": 96,
            "midi": 71,
            "name": "B4",
            "ticks": 92160,
            "time": 82.28568,
            "velocity": 0.23622047244094488
          },
          {
            "duration": 0.08571425000000943,
            "durationTicks": 96,
            "midi": 39,
            "name": "D#2",
            "ticks": 92160,
            "time": 82.28568,
            "velocity": 0.23622047244094488
          },
          {
            "duration": 0.08571425000000943,
            "durationTicks": 96,
            "midi": 82,
            "name": "A#5",
            "ticks": 92160,
            "time": 82.28568,
            "velocity": 0.23622047244094488
          },
          {
            "duration": 0.08571425000000943,
            "durationTicks": 96,
            "midi": 57,
            "name": "A3",
            "ticks": 92160,
            "time": 82.28568,
            "velocity": 0.23622047244094488
          },
          {
            "duration": 0.08571424999999522,
            "durationTicks": 96,
            "midi": 75,
            "name": "D#5",
            "ticks": 92352,
            "time": 82.4571085,
            "velocity": 0.23622047244094488
          },
          {
            "duration": 0.08571424999999522,
            "durationTicks": 96,
            "midi": 41,
            "name": "F2",
            "ticks": 92352,
            "time": 82.4571085,
            "velocity": 0.23622047244094488
          },
          {
            "duration": 0.08571424999999522,
            "durationTicks": 96,
            "midi": 78,
            "name": "F#5",
            "ticks": 92352,
            "time": 82.4571085,
            "velocity": 0.23622047244094488
          },
          {
            "duration": 0.08571424999999522,
            "durationTicks": 96,
            "midi": 90,
            "name": "F#6",
            "ticks": 92352,
            "time": 82.4571085,
            "velocity": 0.23622047244094488
          },
          {
            "duration": 0.08571424999999522,
            "durationTicks": 96,
            "midi": 89,
            "name": "F6",
            "ticks": 92544,
            "time": 82.62853700000001,
            "velocity": 0.23622047244094488
          },
          {
            "duration": 0.08571424999999522,
            "durationTicks": 96,
            "midi": 44,
            "name": "G#2",
            "ticks": 92544,
            "time": 82.62853700000001,
            "velocity": 0.23622047244094488
          },
          {
            "duration": 0.08571424999999522,
            "durationTicks": 96,
            "midi": 90,
            "name": "F#6",
            "ticks": 92640,
            "time": 82.71425125,
            "velocity": 0.23622047244094488
          },
          {
            "duration": 0.08571425000000943,
            "durationTicks": 96,
            "midi": 89,
            "name": "F6",
            "ticks": 92736,
            "time": 82.7999655,
            "velocity": 0.23622047244094488
          },
          {
            "duration": 0.08571425000000943,
            "durationTicks": 96,
            "midi": 75,
            "name": "D#5",
            "ticks": 92736,
            "time": 82.7999655,
            "velocity": 0.23622047244094488
          },
          {
            "duration": 0.08571425000000943,
            "durationTicks": 96,
            "midi": 39,
            "name": "D#2",
            "ticks": 92736,
            "time": 82.7999655,
            "velocity": 0.23622047244094488
          },
          {
            "duration": 0.08571425000000943,
            "durationTicks": 96,
            "midi": 78,
            "name": "F#5",
            "ticks": 92736,
            "time": 82.7999655,
            "velocity": 0.23622047244094488
          },
          {
            "duration": 0.08571424999999522,
            "durationTicks": 96,
            "midi": 73,
            "name": "C#5",
            "ticks": 92928,
            "time": 82.971394,
            "velocity": 0.23622047244094488
          },
          {
            "duration": 0.08571424999999522,
            "durationTicks": 96,
            "midi": 92,
            "name": "G#6",
            "ticks": 92928,
            "time": 82.971394,
            "velocity": 0.23622047244094488
          },
          {
            "duration": 0.08571424999999522,
            "durationTicks": 96,
            "midi": 77,
            "name": "F5",
            "ticks": 93120,
            "time": 83.14282250000001,
            "velocity": 0.23622047244094488
          },
          {
            "duration": 0.08571424999999522,
            "durationTicks": 96,
            "midi": 90,
            "name": "F#6",
            "ticks": 93120,
            "time": 83.14282250000001,
            "velocity": 0.23622047244094488
          },
          {
            "duration": 0.08571424999999522,
            "durationTicks": 96,
            "midi": 80,
            "name": "G#5",
            "ticks": 93120,
            "time": 83.14282250000001,
            "velocity": 0.23622047244094488
          },
          {
            "duration": 0.08571424999999522,
            "durationTicks": 96,
            "midi": 39,
            "name": "D#2",
            "ticks": 93120,
            "time": 83.14282250000001,
            "velocity": 0.23622047244094488
          },
          {
            "duration": 0.08571425000000943,
            "durationTicks": 96,
            "midi": 44,
            "name": "G#2",
            "ticks": 93312,
            "time": 83.314251,
            "velocity": 0.23622047244094488
          },
          {
            "duration": 0.08571425000000943,
            "durationTicks": 96,
            "midi": 89,
            "name": "F6",
            "ticks": 93312,
            "time": 83.314251,
            "velocity": 0.23622047244094488
          },
          {
            "duration": 0.08571424999999522,
            "durationTicks": 96,
            "midi": 90,
            "name": "F#6",
            "ticks": 93408,
            "time": 83.39996525000001,
            "velocity": 0.23622047244094488
          },
          {
            "duration": 0.08571424999999522,
            "durationTicks": 96,
            "midi": 80,
            "name": "G#5",
            "ticks": 93504,
            "time": 83.4856795,
            "velocity": 0.23622047244094488
          },
          {
            "duration": 0.08571424999999522,
            "durationTicks": 96,
            "midi": 77,
            "name": "F5",
            "ticks": 93504,
            "time": 83.4856795,
            "velocity": 0.23622047244094488
          },
          {
            "duration": 0.08571424999999522,
            "durationTicks": 96,
            "midi": 41,
            "name": "F2",
            "ticks": 93504,
            "time": 83.4856795,
            "velocity": 0.23622047244094488
          },
          {
            "duration": 0.08571424999999522,
            "durationTicks": 96,
            "midi": 89,
            "name": "F6",
            "ticks": 93504,
            "time": 83.4856795,
            "velocity": 0.23622047244094488
          },
          {
            "duration": 0.08571425000000943,
            "durationTicks": 96,
            "midi": 85,
            "name": "C#6",
            "ticks": 93600,
            "time": 83.57139375,
            "velocity": 0.23622047244094488
          },
          {
            "duration": 0.08571424999999522,
            "durationTicks": 96,
            "midi": 39,
            "name": "D#2",
            "ticks": 93696,
            "time": 83.65710800000001,
            "velocity": 0.23622047244094488
          },
          {
            "duration": 0.08571424999999522,
            "durationTicks": 96,
            "midi": 87,
            "name": "D#6",
            "ticks": 93696,
            "time": 83.65710800000001,
            "velocity": 0.23622047244094488
          },
          {
            "duration": 0.08571424999999522,
            "durationTicks": 96,
            "midi": 75,
            "name": "D#5",
            "ticks": 93696,
            "time": 83.65710800000001,
            "velocity": 0.23622047244094488
          },
          {
            "duration": 0.08571424999999522,
            "durationTicks": 96,
            "midi": 94,
            "name": "A#6",
            "ticks": 93888,
            "time": 83.82853650000001,
            "velocity": 0.23622047244094488
          },
          {
            "duration": 0.08571424999999522,
            "durationTicks": 96,
            "midi": 82,
            "name": "A#5",
            "ticks": 93888,
            "time": 83.82853650000001,
            "velocity": 0.23622047244094488
          },
          {
            "duration": 0.08571424999999522,
            "durationTicks": 96,
            "midi": 41,
            "name": "F2",
            "ticks": 93888,
            "time": 83.82853650000001,
            "velocity": 0.23622047244094488
          },
          {
            "duration": 0.08571424999999522,
            "durationTicks": 96,
            "midi": 78,
            "name": "F#5",
            "ticks": 93888,
            "time": 83.82853650000001,
            "velocity": 0.23622047244094488
          },
          {
            "duration": 0.08571425000000943,
            "durationTicks": 96,
            "midi": 44,
            "name": "G#2",
            "ticks": 94080,
            "time": 83.999965,
            "velocity": 0.23622047244094488
          },
          {
            "duration": 0.08571425000000943,
            "durationTicks": 96,
            "midi": 92,
            "name": "G#6",
            "ticks": 94080,
            "time": 83.999965,
            "velocity": 0.23622047244094488
          },
          {
            "duration": 0.08571424999999522,
            "durationTicks": 96,
            "midi": 94,
            "name": "A#6",
            "ticks": 94176,
            "time": 84.08567925000001,
            "velocity": 0.23622047244094488
          },
          {
            "duration": 0.08571424999999522,
            "durationTicks": 96,
            "midi": 39,
            "name": "D#2",
            "ticks": 94272,
            "time": 84.17139350000001,
            "velocity": 0.23622047244094488
          },
          {
            "duration": 0.08571424999999522,
            "durationTicks": 96,
            "midi": 78,
            "name": "F#5",
            "ticks": 94272,
            "time": 84.17139350000001,
            "velocity": 0.23622047244094488
          },
          {
            "duration": 0.08571424999999522,
            "durationTicks": 96,
            "midi": 82,
            "name": "A#5",
            "ticks": 94272,
            "time": 84.17139350000001,
            "velocity": 0.23622047244094488
          },
          {
            "duration": 0.08571424999999522,
            "durationTicks": 96,
            "midi": 92,
            "name": "G#6",
            "ticks": 94272,
            "time": 84.17139350000001,
            "velocity": 0.23622047244094488
          },
          {
            "duration": 0.08571425000000943,
            "durationTicks": 96,
            "midi": 94,
            "name": "A#6",
            "ticks": 94368,
            "time": 84.25710775,
            "velocity": 0.23622047244094488
          },
          {
            "duration": 0.08571424999999522,
            "durationTicks": 96,
            "midi": 75,
            "name": "D#5",
            "ticks": 94464,
            "time": 84.34282200000001,
            "velocity": 0.23622047244094488
          },
          {
            "duration": 0.08571424999999522,
            "durationTicks": 96,
            "midi": 85,
            "name": "C#6",
            "ticks": 94464,
            "time": 84.34282200000001,
            "velocity": 0.23622047244094488
          },
          {
            "duration": 0.08571425000000943,
            "durationTicks": 96,
            "midi": 82,
            "name": "A#5",
            "ticks": 94656,
            "time": 84.5142505,
            "velocity": 0.23622047244094488
          },
          {
            "duration": 0.08571425000000943,
            "durationTicks": 96,
            "midi": 78,
            "name": "F#5",
            "ticks": 94656,
            "time": 84.5142505,
            "velocity": 0.23622047244094488
          },
          {
            "duration": 0.08571425000000943,
            "durationTicks": 96,
            "midi": 94,
            "name": "A#6",
            "ticks": 94656,
            "time": 84.5142505,
            "velocity": 0.23622047244094488
          },
          {
            "duration": 0.08571425000000943,
            "durationTicks": 96,
            "midi": 39,
            "name": "D#2",
            "ticks": 94656,
            "time": 84.5142505,
            "velocity": 0.23622047244094488
          },
          {
            "duration": 0.08571424999999522,
            "durationTicks": 96,
            "midi": 85,
            "name": "C#6",
            "ticks": 94752,
            "time": 84.59996475000001,
            "velocity": 0.23622047244094488
          },
          {
            "duration": 0.08571424999999522,
            "durationTicks": 96,
            "midi": 44,
            "name": "G#2",
            "ticks": 94848,
            "time": 84.68567900000001,
            "velocity": 0.23622047244094488
          },
          {
            "duration": 0.08571424999999522,
            "durationTicks": 96,
            "midi": 89,
            "name": "F6",
            "ticks": 94848,
            "time": 84.68567900000001,
            "velocity": 0.23622047244094488
          },
          {
            "duration": 0.08571424999999522,
            "durationTicks": 96,
            "midi": 78,
            "name": "F#5",
            "ticks": 95040,
            "time": 84.85710750000001,
            "velocity": 0.23622047244094488
          },
          {
            "duration": 0.08571424999999522,
            "durationTicks": 96,
            "midi": 82,
            "name": "A#5",
            "ticks": 95040,
            "time": 84.85710750000001,
            "velocity": 0.23622047244094488
          },
          {
            "duration": 0.08571424999999522,
            "durationTicks": 96,
            "midi": 41,
            "name": "F2",
            "ticks": 95040,
            "time": 84.85710750000001,
            "velocity": 0.23622047244094488
          },
          {
            "duration": 0.08571424999999522,
            "durationTicks": 96,
            "midi": 90,
            "name": "F#6",
            "ticks": 95040,
            "time": 84.85710750000001,
            "velocity": 0.23622047244094488
          },
          {
            "duration": 0.08571425000000943,
            "durationTicks": 96,
            "midi": 39,
            "name": "D#2",
            "ticks": 95232,
            "time": 85.028536,
            "velocity": 0.23622047244094488
          },
          {
            "duration": 0.08571425000000943,
            "durationTicks": 96,
            "midi": 57,
            "name": "A3",
            "ticks": 95232,
            "time": 85.028536,
            "velocity": 0.23622047244094488
          },
          {
            "duration": 0.08571425000000943,
            "durationTicks": 96,
            "midi": 71,
            "name": "B4",
            "ticks": 95232,
            "time": 85.028536,
            "velocity": 0.23622047244094488
          },
          {
            "duration": 0.08571425000000943,
            "durationTicks": 96,
            "midi": 92,
            "name": "G#6",
            "ticks": 95232,
            "time": 85.028536,
            "velocity": 0.23622047244094488
          },
          {
            "duration": 0.08571424999999522,
            "durationTicks": 96,
            "midi": 41,
            "name": "F2",
            "ticks": 95424,
            "time": 85.19996450000001,
            "velocity": 0.23622047244094488
          },
          {
            "duration": 0.08571424999999522,
            "durationTicks": 96,
            "midi": 75,
            "name": "D#5",
            "ticks": 95424,
            "time": 85.19996450000001,
            "velocity": 0.23622047244094488
          },
          {
            "duration": 0.08571424999999522,
            "durationTicks": 96,
            "midi": 80,
            "name": "G#5",
            "ticks": 95424,
            "time": 85.19996450000001,
            "velocity": 0.23622047244094488
          },
          {
            "duration": 0.08571424999999522,
            "durationTicks": 96,
            "midi": 87,
            "name": "D#6",
            "ticks": 95424,
            "time": 85.19996450000001,
            "velocity": 0.23622047244094488
          },
          {
            "duration": 0.08571425000000943,
            "durationTicks": 96,
            "midi": 92,
            "name": "G#6",
            "ticks": 95520,
            "time": 85.28567875,
            "velocity": 0.23622047244094488
          },
          {
            "duration": 0.08571424999999522,
            "durationTicks": 96,
            "midi": 44,
            "name": "G#2",
            "ticks": 95616,
            "time": 85.37139300000001,
            "velocity": 0.23622047244094488
          },
          {
            "duration": 0.08571424999999522,
            "durationTicks": 96,
            "midi": 87,
            "name": "D#6",
            "ticks": 95712,
            "time": 85.45710725,
            "velocity": 0.23622047244094488
          },
          {
            "duration": 0.08571425000000943,
            "durationTicks": 96,
            "midi": 75,
            "name": "D#5",
            "ticks": 95808,
            "time": 85.5428215,
            "velocity": 0.23622047244094488
          },
          {
            "duration": 0.08571425000000943,
            "durationTicks": 96,
            "midi": 80,
            "name": "G#5",
            "ticks": 95808,
            "time": 85.5428215,
            "velocity": 0.23622047244094488
          },
          {
            "duration": 0.08571425000000943,
            "durationTicks": 96,
            "midi": 92,
            "name": "G#6",
            "ticks": 95808,
            "time": 85.5428215,
            "velocity": 0.23622047244094488
          },
          {
            "duration": 0.08571425000000943,
            "durationTicks": 96,
            "midi": 39,
            "name": "D#2",
            "ticks": 95808,
            "time": 85.5428215,
            "velocity": 0.23622047244094488
          },
          {
            "duration": 0.08571424999999522,
            "durationTicks": 96,
            "midi": 73,
            "name": "C#5",
            "ticks": 96000,
            "time": 85.71425,
            "velocity": 0.23622047244094488
          },
          {
            "duration": 0.08571424999999522,
            "durationTicks": 96,
            "midi": 94,
            "name": "A#6",
            "ticks": 96000,
            "time": 85.71425,
            "velocity": 0.23622047244094488
          },
          {
            "duration": 0.08571424999999522,
            "durationTicks": 96,
            "midi": 57,
            "name": "A3",
            "ticks": 96000,
            "time": 85.71425,
            "velocity": 0.23622047244094488
          },
          {
            "duration": 0.08571424999999522,
            "durationTicks": 96,
            "midi": 39,
            "name": "D#2",
            "ticks": 96192,
            "time": 85.88567850000001,
            "velocity": 0.23622047244094488
          },
          {
            "duration": 0.08571424999999522,
            "durationTicks": 96,
            "midi": 77,
            "name": "F5",
            "ticks": 96192,
            "time": 85.88567850000001,
            "velocity": 0.23622047244094488
          },
          {
            "duration": 0.08571424999999522,
            "durationTicks": 96,
            "midi": 89,
            "name": "F6",
            "ticks": 96192,
            "time": 85.88567850000001,
            "velocity": 0.23622047244094488
          },
          {
            "duration": 0.08571424999999522,
            "durationTicks": 96,
            "midi": 82,
            "name": "A#5",
            "ticks": 96192,
            "time": 85.88567850000001,
            "velocity": 0.23622047244094488
          },
          {
            "duration": 0.08571424999999522,
            "durationTicks": 96,
            "midi": 94,
            "name": "A#6",
            "ticks": 96288,
            "time": 85.97139275,
            "velocity": 0.23622047244094488
          },
          {
            "duration": 0.08571425000000943,
            "durationTicks": 96,
            "midi": 44,
            "name": "G#2",
            "ticks": 96384,
            "time": 86.057107,
            "velocity": 0.23622047244094488
          },
          {
            "duration": 0.08571424999999522,
            "durationTicks": 96,
            "midi": 89,
            "name": "F6",
            "ticks": 96480,
            "time": 86.14282125000001,
            "velocity": 0.23622047244094488
          },
          {
            "duration": 0.08571424999999522,
            "durationTicks": 96,
            "midi": 77,
            "name": "F5",
            "ticks": 96576,
            "time": 86.2285355,
            "velocity": 0.23622047244094488
          },
          {
            "duration": 0.08571424999999522,
            "durationTicks": 96,
            "midi": 41,
            "name": "F2",
            "ticks": 96576,
            "time": 86.2285355,
            "velocity": 0.23622047244094488
          },
          {
            "duration": 0.08571424999999522,
            "durationTicks": 96,
            "midi": 82,
            "name": "A#5",
            "ticks": 96576,
            "time": 86.2285355,
            "velocity": 0.23622047244094488
          },
          {
            "duration": 0.08571424999999522,
            "durationTicks": 96,
            "midi": 94,
            "name": "A#6",
            "ticks": 96576,
            "time": 86.2285355,
            "velocity": 0.23622047244094488
          },
          {
            "duration": 0.08571424999999522,
            "durationTicks": 96,
            "midi": 39,
            "name": "D#2",
            "ticks": 96768,
            "time": 86.39996400000001,
            "velocity": 0.23622047244094488
          },
          {
            "duration": 0.08571424999999522,
            "durationTicks": 96,
            "midi": 95,
            "name": "B6",
            "ticks": 96768,
            "time": 86.39996400000001,
            "velocity": 0.23622047244094488
          },
          {
            "duration": 0.08571424999999522,
            "durationTicks": 96,
            "midi": 57,
            "name": "A3",
            "ticks": 96768,
            "time": 86.39996400000001,
            "velocity": 0.23622047244094488
          },
          {
            "duration": 0.08571424999999522,
            "durationTicks": 96,
            "midi": 75,
            "name": "D#5",
            "ticks": 96768,
            "time": 86.39996400000001,
            "velocity": 0.23622047244094488
          },
          {
            "duration": 0.08571424999999522,
            "durationTicks": 96,
            "midi": 90,
            "name": "F#6",
            "ticks": 96864,
            "time": 86.48567825,
            "velocity": 0.23622047244094488
          },
          {
            "duration": 0.08571425000000943,
            "durationTicks": 96,
            "midi": 95,
            "name": "B6",
            "ticks": 96960,
            "time": 86.5713925,
            "velocity": 0.23622047244094488
          },
          {
            "duration": 0.08571425000000943,
            "durationTicks": 96,
            "midi": 41,
            "name": "F2",
            "ticks": 96960,
            "time": 86.5713925,
            "velocity": 0.23622047244094488
          },
          {
            "duration": 0.08571425000000943,
            "durationTicks": 96,
            "midi": 78,
            "name": "F#5",
            "ticks": 96960,
            "time": 86.5713925,
            "velocity": 0.23622047244094488
          },
          {
            "duration": 0.08571425000000943,
            "durationTicks": 96,
            "midi": 83,
            "name": "B5",
            "ticks": 96960,
            "time": 86.5713925,
            "velocity": 0.23622047244094488
          },
          {
            "duration": 0.08571424999999522,
            "durationTicks": 96,
            "midi": 95,
            "name": "B6",
            "ticks": 97056,
            "time": 86.65710675000001,
            "velocity": 0.23622047244094488
          },
          {
            "duration": 0.08571424999999522,
            "durationTicks": 96,
            "midi": 95,
            "name": "B6",
            "ticks": 97152,
            "time": 86.742821,
            "velocity": 0.23622047244094488
          },
          {
            "duration": 0.08571424999999522,
            "durationTicks": 96,
            "midi": 44,
            "name": "G#2",
            "ticks": 97152,
            "time": 86.742821,
            "velocity": 0.23622047244094488
          },
          {
            "duration": 0.08571424999999522,
            "durationTicks": 96,
            "midi": 57,
            "name": "A3",
            "ticks": 97152,
            "time": 86.742821,
            "velocity": 0.23622047244094488
          },
          {
            "duration": 0.08571424999999522,
            "durationTicks": 96,
            "midi": 80,
            "name": "G#5",
            "ticks": 97344,
            "time": 86.91424950000001,
            "velocity": 0.23622047244094488
          },
          {
            "duration": 0.08571424999999522,
            "durationTicks": 96,
            "midi": 84,
            "name": "C6",
            "ticks": 97344,
            "time": 86.91424950000001,
            "velocity": 0.23622047244094488
          },
          {
            "duration": 0.08571424999999522,
            "durationTicks": 96,
            "midi": 39,
            "name": "D#2",
            "ticks": 97344,
            "time": 86.91424950000001,
            "velocity": 0.23622047244094488
          },
          {
            "duration": 0.08571424999999522,
            "durationTicks": 96,
            "midi": 84,
            "name": "C6",
            "ticks": 97344,
            "time": 86.91424950000001,
            "velocity": 0.23622047244094488
          },
          {
            "duration": 0.08571425000000943,
            "durationTicks": 96,
            "midi": 44,
            "name": "G#2",
            "ticks": 97536,
            "time": 87.085678,
            "velocity": 0.23622047244094488
          },
          {
            "duration": 0.08571425000000943,
            "durationTicks": 96,
            "midi": 82,
            "name": "A#5",
            "ticks": 97536,
            "time": 87.085678,
            "velocity": 0.23622047244094488
          },
          {
            "duration": 0.08571425000000943,
            "durationTicks": 96,
            "midi": 85,
            "name": "C#6",
            "ticks": 97536,
            "time": 87.085678,
            "velocity": 0.23622047244094488
          },
          {
            "duration": 0.08571425000000943,
            "durationTicks": 96,
            "midi": 85,
            "name": "C#6",
            "ticks": 97536,
            "time": 87.085678,
            "velocity": 0.23622047244094488
          },
          {
            "duration": 0.08571425000000943,
            "durationTicks": 96,
            "midi": 57,
            "name": "A3",
            "ticks": 97536,
            "time": 87.085678,
            "velocity": 0.23622047244094488
          },
          {
            "duration": 0.08571424999999522,
            "durationTicks": 96,
            "midi": 39,
            "name": "D#2",
            "ticks": 97728,
            "time": 87.2571065,
            "velocity": 0.23622047244094488
          },
          {
            "duration": 0.08571425000000943,
            "durationTicks": 96,
            "midi": 82,
            "name": "A#5",
            "ticks": 97824,
            "time": 87.34282075,
            "velocity": 0.23622047244094488
          },
          {
            "duration": 0.08571425000000943,
            "durationTicks": 96,
            "midi": 85,
            "name": "C#6",
            "ticks": 97824,
            "time": 87.34282075,
            "velocity": 0.23622047244094488
          },
          {
            "duration": 0.08571424999999522,
            "durationTicks": 96,
            "midi": 44,
            "name": "G#2",
            "ticks": 97920,
            "time": 87.42853500000001,
            "velocity": 0.23622047244094488
          },
          {
            "duration": 0.08571424999999522,
            "durationTicks": 96,
            "midi": 57,
            "name": "A3",
            "ticks": 97920,
            "time": 87.42853500000001,
            "velocity": 0.23622047244094488
          },
          {
            "duration": 0.08571425000000943,
            "durationTicks": 96,
            "midi": 41,
            "name": "F2",
            "ticks": 98112,
            "time": 87.5999635,
            "velocity": 0.23622047244094488
          },
          {
            "duration": 0.08571425000000943,
            "durationTicks": 96,
            "midi": 85,
            "name": "C#6",
            "ticks": 98112,
            "time": 87.5999635,
            "velocity": 0.23622047244094488
          },
          {
            "duration": 0.08571425000000943,
            "durationTicks": 96,
            "midi": 82,
            "name": "A#5",
            "ticks": 98112,
            "time": 87.5999635,
            "velocity": 0.23622047244094488
          },
          {
            "duration": 0.08571424999999522,
            "durationTicks": 96,
            "midi": 39,
            "name": "D#2",
            "ticks": 98304,
            "time": 87.771392,
            "velocity": 0.23622047244094488
          },
          {
            "duration": 0.08571424999999522,
            "durationTicks": 96,
            "midi": 57,
            "name": "A3",
            "ticks": 98304,
            "time": 87.771392,
            "velocity": 0.23622047244094488
          },
          {
            "duration": 0.08571424999999522,
            "durationTicks": 96,
            "midi": 71,
            "name": "B4",
            "ticks": 98304,
            "time": 87.771392,
            "velocity": 0.23622047244094488
          },
          {
            "duration": 0.08571424999999522,
            "durationTicks": 96,
            "midi": 82,
            "name": "A#5",
            "ticks": 98304,
            "time": 87.771392,
            "velocity": 0.23622047244094488
          },
          {
            "duration": 0.08571424999999522,
            "durationTicks": 96,
            "midi": 75,
            "name": "D#5",
            "ticks": 98496,
            "time": 87.94282050000001,
            "velocity": 0.23622047244094488
          },
          {
            "duration": 0.08571424999999522,
            "durationTicks": 96,
            "midi": 78,
            "name": "F#5",
            "ticks": 98496,
            "time": 87.94282050000001,
            "velocity": 0.23622047244094488
          },
          {
            "duration": 0.08571424999999522,
            "durationTicks": 96,
            "midi": 41,
            "name": "F2",
            "ticks": 98496,
            "time": 87.94282050000001,
            "velocity": 0.23622047244094488
          },
          {
            "duration": 0.08571424999999522,
            "durationTicks": 96,
            "midi": 90,
            "name": "F#6",
            "ticks": 98496,
            "time": 87.94282050000001,
            "velocity": 0.23622047244094488
          },
          {
            "duration": 0.08571425000000943,
            "durationTicks": 96,
            "midi": 44,
            "name": "G#2",
            "ticks": 98688,
            "time": 88.114249,
            "velocity": 0.23622047244094488
          },
          {
            "duration": 0.08571425000000943,
            "durationTicks": 96,
            "midi": 89,
            "name": "F6",
            "ticks": 98688,
            "time": 88.114249,
            "velocity": 0.23622047244094488
          },
          {
            "duration": 0.08571424999999522,
            "durationTicks": 96,
            "midi": 90,
            "name": "F#6",
            "ticks": 98784,
            "time": 88.19996325000001,
            "velocity": 0.23622047244094488
          },
          {
            "duration": 0.08571424999999522,
            "durationTicks": 96,
            "midi": 78,
            "name": "F#5",
            "ticks": 98880,
            "time": 88.2856775,
            "velocity": 0.23622047244094488
          },
          {
            "duration": 0.08571424999999522,
            "durationTicks": 96,
            "midi": 39,
            "name": "D#2",
            "ticks": 98880,
            "time": 88.2856775,
            "velocity": 0.23622047244094488
          },
          {
            "duration": 0.08571424999999522,
            "durationTicks": 96,
            "midi": 75,
            "name": "D#5",
            "ticks": 98880,
            "time": 88.2856775,
            "velocity": 0.23622047244094488
          },
          {
            "duration": 0.08571424999999522,
            "durationTicks": 96,
            "midi": 89,
            "name": "F6",
            "ticks": 98880,
            "time": 88.2856775,
            "velocity": 0.23622047244094488
          },
          {
            "duration": 0.08571424999999522,
            "durationTicks": 96,
            "midi": 92,
            "name": "G#6",
            "ticks": 99072,
            "time": 88.45710600000001,
            "velocity": 0.23622047244094488
          },
          {
            "duration": 0.08571424999999522,
            "durationTicks": 96,
            "midi": 73,
            "name": "C#5",
            "ticks": 99072,
            "time": 88.45710600000001,
            "velocity": 0.23622047244094488
          },
          {
            "duration": 0.08571425000000943,
            "durationTicks": 96,
            "midi": 39,
            "name": "D#2",
            "ticks": 99264,
            "time": 88.6285345,
            "velocity": 0.23622047244094488
          },
          {
            "duration": 0.08571425000000943,
            "durationTicks": 96,
            "midi": 77,
            "name": "F5",
            "ticks": 99264,
            "time": 88.6285345,
            "velocity": 0.23622047244094488
          },
          {
            "duration": 0.08571425000000943,
            "durationTicks": 96,
            "midi": 90,
            "name": "F#6",
            "ticks": 99264,
            "time": 88.6285345,
            "velocity": 0.23622047244094488
          },
          {
            "duration": 0.08571425000000943,
            "durationTicks": 96,
            "midi": 80,
            "name": "G#5",
            "ticks": 99264,
            "time": 88.6285345,
            "velocity": 0.23622047244094488
          },
          {
            "duration": 0.08571424999999522,
            "durationTicks": 96,
            "midi": 44,
            "name": "G#2",
            "ticks": 99456,
            "time": 88.799963,
            "velocity": 0.23622047244094488
          },
          {
            "duration": 0.08571424999999522,
            "durationTicks": 96,
            "midi": 89,
            "name": "F6",
            "ticks": 99456,
            "time": 88.799963,
            "velocity": 0.23622047244094488
          },
          {
            "duration": 0.08571425000000943,
            "durationTicks": 96,
            "midi": 90,
            "name": "F#6",
            "ticks": 99552,
            "time": 88.88567725,
            "velocity": 0.23622047244094488
          },
          {
            "duration": 0.08571424999999522,
            "durationTicks": 96,
            "midi": 80,
            "name": "G#5",
            "ticks": 99648,
            "time": 88.97139150000001,
            "velocity": 0.23622047244094488
          },
          {
            "duration": 0.08571424999999522,
            "durationTicks": 96,
            "midi": 89,
            "name": "F6",
            "ticks": 99648,
            "time": 88.97139150000001,
            "velocity": 0.23622047244094488
          },
          {
            "duration": 0.08571424999999522,
            "durationTicks": 96,
            "midi": 41,
            "name": "F2",
            "ticks": 99648,
            "time": 88.97139150000001,
            "velocity": 0.23622047244094488
          },
          {
            "duration": 0.08571424999999522,
            "durationTicks": 96,
            "midi": 77,
            "name": "F5",
            "ticks": 99648,
            "time": 88.97139150000001,
            "velocity": 0.23622047244094488
          },
          {
            "duration": 0.08571424999999522,
            "durationTicks": 96,
            "midi": 85,
            "name": "C#6",
            "ticks": 99744,
            "time": 89.05710575,
            "velocity": 0.23622047244094488
          },
          {
            "duration": 0.08571425000000943,
            "durationTicks": 96,
            "midi": 75,
            "name": "D#5",
            "ticks": 99840,
            "time": 89.14282,
            "velocity": 0.23622047244094488
          },
          {
            "duration": 0.08571425000000943,
            "durationTicks": 96,
            "midi": 39,
            "name": "D#2",
            "ticks": 99840,
            "time": 89.14282,
            "velocity": 0.23622047244094488
          },
          {
            "duration": 0.08571425000000943,
            "durationTicks": 96,
            "midi": 87,
            "name": "D#6",
            "ticks": 99840,
            "time": 89.14282,
            "velocity": 0.23622047244094488
          },
          {
            "duration": 0.08571424999999522,
            "durationTicks": 96,
            "midi": 41,
            "name": "F2",
            "ticks": 100032,
            "time": 89.3142485,
            "velocity": 0.23622047244094488
          },
          {
            "duration": 0.08571424999999522,
            "durationTicks": 96,
            "midi": 94,
            "name": "A#6",
            "ticks": 100032,
            "time": 89.3142485,
            "velocity": 0.23622047244094488
          },
          {
            "duration": 0.08571424999999522,
            "durationTicks": 96,
            "midi": 78,
            "name": "F#5",
            "ticks": 100032,
            "time": 89.3142485,
            "velocity": 0.23622047244094488
          },
          {
            "duration": 0.08571424999999522,
            "durationTicks": 96,
            "midi": 82,
            "name": "A#5",
            "ticks": 100032,
            "time": 89.3142485,
            "velocity": 0.23622047244094488
          },
          {
            "duration": 0.08571424999999522,
            "durationTicks": 96,
            "midi": 92,
            "name": "G#6",
            "ticks": 100224,
            "time": 89.48567700000001,
            "velocity": 0.23622047244094488
          },
          {
            "duration": 0.08571424999999522,
            "durationTicks": 96,
            "midi": 44,
            "name": "G#2",
            "ticks": 100224,
            "time": 89.48567700000001,
            "velocity": 0.23622047244094488
          },
          {
            "duration": 0.08571424999999522,
            "durationTicks": 96,
            "midi": 94,
            "name": "A#6",
            "ticks": 100320,
            "time": 89.57139125,
            "velocity": 0.23622047244094488
          },
          {
            "duration": 0.08571425000000943,
            "durationTicks": 96,
            "midi": 78,
            "name": "F#5",
            "ticks": 100416,
            "time": 89.6571055,
            "velocity": 0.23622047244094488
          },
          {
            "duration": 0.08571425000000943,
            "durationTicks": 96,
            "midi": 39,
            "name": "D#2",
            "ticks": 100416,
            "time": 89.6571055,
            "velocity": 0.23622047244094488
          },
          {
            "duration": 0.08571425000000943,
            "durationTicks": 96,
            "midi": 82,
            "name": "A#5",
            "ticks": 100416,
            "time": 89.6571055,
            "velocity": 0.23622047244094488
          },
          {
            "duration": 0.08571425000000943,
            "durationTicks": 96,
            "midi": 92,
            "name": "G#6",
            "ticks": 100416,
            "time": 89.6571055,
            "velocity": 0.23622047244094488
          },
          {
            "duration": 0.08571424999999522,
            "durationTicks": 96,
            "midi": 94,
            "name": "A#6",
            "ticks": 100512,
            "time": 89.74281975000001,
            "velocity": 0.23622047244094488
          },
          {
            "duration": 0.08571424999999522,
            "durationTicks": 96,
            "midi": 75,
            "name": "D#5",
            "ticks": 100608,
            "time": 89.828534,
            "velocity": 0.23622047244094488
          },
          {
            "duration": 0.08571424999999522,
            "durationTicks": 96,
            "midi": 85,
            "name": "C#6",
            "ticks": 100608,
            "time": 89.828534,
            "velocity": 0.23622047244094488
          },
          {
            "duration": 0.08571424999999522,
            "durationTicks": 96,
            "midi": 82,
            "name": "A#5",
            "ticks": 100800,
            "time": 89.99996250000001,
            "velocity": 0.23622047244094488
          },
          {
            "duration": 0.08571424999999522,
            "durationTicks": 96,
            "midi": 39,
            "name": "D#2",
            "ticks": 100800,
            "time": 89.99996250000001,
            "velocity": 0.23622047244094488
          },
          {
            "duration": 0.08571424999999522,
            "durationTicks": 96,
            "midi": 78,
            "name": "F#5",
            "ticks": 100800,
            "time": 89.99996250000001,
            "velocity": 0.23622047244094488
          },
          {
            "duration": 0.08571424999999522,
            "durationTicks": 96,
            "midi": 94,
            "name": "A#6",
            "ticks": 100800,
            "time": 89.99996250000001,
            "velocity": 0.23622047244094488
          },
          {
            "duration": 0.08571425000000943,
            "durationTicks": 96,
            "midi": 92,
            "name": "G#6",
            "ticks": 100992,
            "time": 90.171391,
            "velocity": 0.23622047244094488
          },
          {
            "duration": 0.08571425000000943,
            "durationTicks": 96,
            "midi": 44,
            "name": "G#2",
            "ticks": 100992,
            "time": 90.171391,
            "velocity": 0.23622047244094488
          },
          {
            "duration": 0.08571424999999522,
            "durationTicks": 96,
            "midi": 78,
            "name": "F#5",
            "ticks": 101184,
            "time": 90.3428195,
            "velocity": 0.23622047244094488
          },
          {
            "duration": 0.08571424999999522,
            "durationTicks": 96,
            "midi": 94,
            "name": "A#6",
            "ticks": 101184,
            "time": 90.3428195,
            "velocity": 0.23622047244094488
          },
          {
            "duration": 0.08571424999999522,
            "durationTicks": 96,
            "midi": 41,
            "name": "F2",
            "ticks": 101184,
            "time": 90.3428195,
            "velocity": 0.23622047244094488
          },
          {
            "duration": 0.08571424999999522,
            "durationTicks": 96,
            "midi": 82,
            "name": "A#5",
            "ticks": 101184,
            "time": 90.3428195,
            "velocity": 0.23622047244094488
          },
          {
            "duration": 0.08571424999999522,
            "durationTicks": 96,
            "midi": 83,
            "name": "B5",
            "ticks": 101376,
            "time": 90.51424800000001,
            "velocity": 0.23622047244094488
          },
          {
            "duration": 0.08571424999999522,
            "durationTicks": 96,
            "midi": 71,
            "name": "B4",
            "ticks": 101376,
            "time": 90.51424800000001,
            "velocity": 0.23622047244094488
          },
          {
            "duration": 0.08571424999999522,
            "durationTicks": 96,
            "midi": 57,
            "name": "A3",
            "ticks": 101376,
            "time": 90.51424800000001,
            "velocity": 0.23622047244094488
          },
          {
            "duration": 0.08571424999999522,
            "durationTicks": 96,
            "midi": 39,
            "name": "D#2",
            "ticks": 101376,
            "time": 90.51424800000001,
            "velocity": 0.23622047244094488
          },
          {
            "duration": 0.08571425000000943,
            "durationTicks": 96,
            "midi": 90,
            "name": "F#6",
            "ticks": 101568,
            "time": 90.6856765,
            "velocity": 0.23622047244094488
          },
          {
            "duration": 0.08571425000000943,
            "durationTicks": 96,
            "midi": 41,
            "name": "F2",
            "ticks": 101568,
            "time": 90.6856765,
            "velocity": 0.23622047244094488
          },
          {
            "duration": 0.08571425000000943,
            "durationTicks": 96,
            "midi": 75,
            "name": "D#5",
            "ticks": 101568,
            "time": 90.6856765,
            "velocity": 0.23622047244094488
          },
          {
            "duration": 0.08571425000000943,
            "durationTicks": 96,
            "midi": 78,
            "name": "F#5",
            "ticks": 101568,
            "time": 90.6856765,
            "velocity": 0.23622047244094488
          },
          {
            "duration": 0.08571424999999522,
            "durationTicks": 96,
            "midi": 89,
            "name": "F6",
            "ticks": 101760,
            "time": 90.857105,
            "velocity": 0.23622047244094488
          },
          {
            "duration": 0.08571424999999522,
            "durationTicks": 96,
            "midi": 44,
            "name": "G#2",
            "ticks": 101760,
            "time": 90.857105,
            "velocity": 0.23622047244094488
          },
          {
            "duration": 0.08571425000000943,
            "durationTicks": 96,
            "midi": 90,
            "name": "F#6",
            "ticks": 101856,
            "time": 90.94281925,
            "velocity": 0.23622047244094488
          },
          {
            "duration": 0.08571424999999522,
            "durationTicks": 96,
            "midi": 89,
            "name": "F6",
            "ticks": 101952,
            "time": 91.02853350000001,
            "velocity": 0.23622047244094488
          },
          {
            "duration": 0.08571424999999522,
            "durationTicks": 96,
            "midi": 39,
            "name": "D#2",
            "ticks": 101952,
            "time": 91.02853350000001,
            "velocity": 0.23622047244094488
          },
          {
            "duration": 0.08571424999999522,
            "durationTicks": 96,
            "midi": 75,
            "name": "D#5",
            "ticks": 101952,
            "time": 91.02853350000001,
            "velocity": 0.23622047244094488
          },
          {
            "duration": 0.08571424999999522,
            "durationTicks": 96,
            "midi": 78,
            "name": "F#5",
            "ticks": 101952,
            "time": 91.02853350000001,
            "velocity": 0.23622047244094488
          },
          {
            "duration": 0.08571425000000943,
            "durationTicks": 96,
            "midi": 73,
            "name": "C#5",
            "ticks": 102144,
            "time": 91.199962,
            "velocity": 0.23622047244094488
          },
          {
            "duration": 0.08571425000000943,
            "durationTicks": 96,
            "midi": 92,
            "name": "G#6",
            "ticks": 102144,
            "time": 91.199962,
            "velocity": 0.23622047244094488
          },
          {
            "duration": 0.08571424999999522,
            "durationTicks": 96,
            "midi": 90,
            "name": "F#6",
            "ticks": 102336,
            "time": 91.3713905,
            "velocity": 0.23622047244094488
          },
          {
            "duration": 0.08571424999999522,
            "durationTicks": 96,
            "midi": 80,
            "name": "G#5",
            "ticks": 102336,
            "time": 91.3713905,
            "velocity": 0.23622047244094488
          },
          {
            "duration": 0.08571424999999522,
            "durationTicks": 96,
            "midi": 77,
            "name": "F5",
            "ticks": 102336,
            "time": 91.3713905,
            "velocity": 0.23622047244094488
          },
          {
            "duration": 0.08571424999999522,
            "durationTicks": 96,
            "midi": 39,
            "name": "D#2",
            "ticks": 102336,
            "time": 91.3713905,
            "velocity": 0.23622047244094488
          },
          {
            "duration": 0.08571424999999522,
            "durationTicks": 96,
            "midi": 44,
            "name": "G#2",
            "ticks": 102528,
            "time": 91.54281900000001,
            "velocity": 0.23622047244094488
          },
          {
            "duration": 0.08571424999999522,
            "durationTicks": 96,
            "midi": 89,
            "name": "F6",
            "ticks": 102528,
            "time": 91.54281900000001,
            "velocity": 0.23622047244094488
          },
          {
            "duration": 0.08571424999999522,
            "durationTicks": 96,
            "midi": 90,
            "name": "F#6",
            "ticks": 102624,
            "time": 91.62853325,
            "velocity": 0.23622047244094488
          },
          {
            "duration": 0.08571425000000943,
            "durationTicks": 96,
            "midi": 41,
            "name": "F2",
            "ticks": 102720,
            "time": 91.7142475,
            "velocity": 0.23622047244094488
          },
          {
            "duration": 0.08571425000000943,
            "durationTicks": 96,
            "midi": 80,
            "name": "G#5",
            "ticks": 102720,
            "time": 91.7142475,
            "velocity": 0.23622047244094488
          },
          {
            "duration": 0.08571425000000943,
            "durationTicks": 96,
            "midi": 89,
            "name": "F6",
            "ticks": 102720,
            "time": 91.7142475,
            "velocity": 0.23622047244094488
          },
          {
            "duration": 0.08571425000000943,
            "durationTicks": 96,
            "midi": 77,
            "name": "F5",
            "ticks": 102720,
            "time": 91.7142475,
            "velocity": 0.23622047244094488
          },
          {
            "duration": 0.08571424999999522,
            "durationTicks": 96,
            "midi": 85,
            "name": "C#6",
            "ticks": 102816,
            "time": 91.79996175000001,
            "velocity": 0.23622047244094488
          },
          {
            "duration": 0.08571425000000943,
            "durationTicks": 96,
            "midi": 57,
            "name": "A3",
            "ticks": 102912,
            "time": 91.885676,
            "velocity": 0.23622047244094488
          },
          {
            "duration": 0.08571425000000943,
            "durationTicks": 96,
            "midi": 39,
            "name": "D#2",
            "ticks": 102912,
            "time": 91.885676,
            "velocity": 0.23622047244094488
          },
          {
            "duration": 0.08571425000000943,
            "durationTicks": 96,
            "midi": 87,
            "name": "D#6",
            "ticks": 102912,
            "time": 91.885676,
            "velocity": 0.23622047244094488
          },
          {
            "duration": 0.08571425000000943,
            "durationTicks": 96,
            "midi": 75,
            "name": "D#5",
            "ticks": 102912,
            "time": 91.885676,
            "velocity": 0.23622047244094488
          },
          {
            "duration": 0.08571424999999522,
            "durationTicks": 96,
            "midi": 41,
            "name": "F2",
            "ticks": 103104,
            "time": 92.05710450000001,
            "velocity": 0.23622047244094488
          },
          {
            "duration": 0.08571424999999522,
            "durationTicks": 96,
            "midi": 82,
            "name": "A#5",
            "ticks": 103104,
            "time": 92.05710450000001,
            "velocity": 0.23622047244094488
          },
          {
            "duration": 0.08571424999999522,
            "durationTicks": 96,
            "midi": 78,
            "name": "F#5",
            "ticks": 103104,
            "time": 92.05710450000001,
            "velocity": 0.23622047244094488
          },
          {
            "duration": 0.08571424999999522,
            "durationTicks": 96,
            "midi": 94,
            "name": "A#6",
            "ticks": 103104,
            "time": 92.05710450000001,
            "velocity": 0.23622047244094488
          },
          {
            "duration": 0.08571424999999522,
            "durationTicks": 96,
            "midi": 75,
            "name": "D#5",
            "ticks": 103296,
            "time": 92.22853300000001,
            "velocity": 0.23622047244094488
          },
          {
            "duration": 0.08571424999999522,
            "durationTicks": 96,
            "midi": 92,
            "name": "G#6",
            "ticks": 103296,
            "time": 92.22853300000001,
            "velocity": 0.23622047244094488
          },
          {
            "duration": 0.08571424999999522,
            "durationTicks": 96,
            "midi": 44,
            "name": "G#2",
            "ticks": 103296,
            "time": 92.22853300000001,
            "velocity": 0.23622047244094488
          },
          {
            "duration": 0.08571424999999522,
            "durationTicks": 96,
            "midi": 94,
            "name": "A#6",
            "ticks": 103392,
            "time": 92.31424725000001,
            "velocity": 0.23622047244094488
          },
          {
            "duration": 0.08571425000000943,
            "durationTicks": 96,
            "midi": 39,
            "name": "D#2",
            "ticks": 103488,
            "time": 92.3999615,
            "velocity": 0.23622047244094488
          },
          {
            "duration": 0.08571425000000943,
            "durationTicks": 96,
            "midi": 85,
            "name": "C#6",
            "ticks": 103488,
            "time": 92.3999615,
            "velocity": 0.23622047244094488
          },
          {
            "duration": 0.08571425000000943,
            "durationTicks": 96,
            "midi": 80,
            "name": "G#5",
            "ticks": 103488,
            "time": 92.3999615,
            "velocity": 0.23622047244094488
          },
          {
            "duration": 0.08571425000000943,
            "durationTicks": 96,
            "midi": 92,
            "name": "G#6",
            "ticks": 103488,
            "time": 92.3999615,
            "velocity": 0.23622047244094488
          },
          {
            "duration": 0.08571424999999522,
            "durationTicks": 96,
            "midi": 94,
            "name": "A#6",
            "ticks": 103584,
            "time": 92.48567575000001,
            "velocity": 0.23622047244094488
          },
          {
            "duration": 0.08571424999999522,
            "durationTicks": 96,
            "midi": 75,
            "name": "D#5",
            "ticks": 103680,
            "time": 92.57139000000001,
            "velocity": 0.23622047244094488
          },
          {
            "duration": 0.08571424999999522,
            "durationTicks": 96,
            "midi": 86,
            "name": "D6",
            "ticks": 103680,
            "time": 92.57139000000001,
            "velocity": 0.23622047244094488
          },
          {
            "duration": 0.08571424999999522,
            "durationTicks": 96,
            "midi": 44,
            "name": "G#2",
            "ticks": 103680,
            "time": 92.57139000000001,
            "velocity": 0.23622047244094488
          },
          {
            "duration": 0.08571424999999522,
            "durationTicks": 96,
            "midi": 57,
            "name": "A3",
            "ticks": 103680,
            "time": 92.57139000000001,
            "velocity": 0.23622047244094488
          },
          {
            "duration": 0.08571424999999522,
            "durationTicks": 96,
            "midi": 87,
            "name": "D#6",
            "ticks": 103872,
            "time": 92.74281850000001,
            "velocity": 0.23622047244094488
          },
          {
            "duration": 0.08571424999999522,
            "durationTicks": 96,
            "midi": 82,
            "name": "A#5",
            "ticks": 103872,
            "time": 92.74281850000001,
            "velocity": 0.23622047244094488
          },
          {
            "duration": 0.08571424999999522,
            "durationTicks": 96,
            "midi": 94,
            "name": "A#6",
            "ticks": 103872,
            "time": 92.74281850000001,
            "velocity": 0.23622047244094488
          },
          {
            "duration": 0.08571424999999522,
            "durationTicks": 96,
            "midi": 39,
            "name": "D#2",
            "ticks": 103872,
            "time": 92.74281850000001,
            "velocity": 0.23622047244094488
          },
          {
            "duration": 0.08571425000000943,
            "durationTicks": 96,
            "midi": 75,
            "name": "D#5",
            "ticks": 104064,
            "time": 92.914247,
            "velocity": 0.23622047244094488
          },
          {
            "duration": 0.08571425000000943,
            "durationTicks": 96,
            "midi": 86,
            "name": "D6",
            "ticks": 104064,
            "time": 92.914247,
            "velocity": 0.23622047244094488
          },
          {
            "duration": 0.08571425000000943,
            "durationTicks": 96,
            "midi": 44,
            "name": "G#2",
            "ticks": 104064,
            "time": 92.914247,
            "velocity": 0.23622047244094488
          },
          {
            "duration": 0.08571424999999522,
            "durationTicks": 96,
            "midi": 89,
            "name": "F6",
            "ticks": 104256,
            "time": 93.08567550000001,
            "velocity": 0.23622047244094488
          },
          {
            "duration": 0.08571424999999522,
            "durationTicks": 96,
            "midi": 41,
            "name": "F2",
            "ticks": 104256,
            "time": 93.08567550000001,
            "velocity": 0.23622047244094488
          },
          {
            "duration": 0.08571424999999522,
            "durationTicks": 96,
            "midi": 89,
            "name": "F6",
            "ticks": 104256,
            "time": 93.08567550000001,
            "velocity": 0.23622047244094488
          },
          {
            "duration": 0.08571424999999522,
            "durationTicks": 96,
            "midi": 84,
            "name": "C6",
            "ticks": 104256,
            "time": 93.08567550000001,
            "velocity": 0.23622047244094488
          },
          {
            "duration": 0.08571424999999522,
            "durationTicks": 96,
            "midi": 87,
            "name": "D#6",
            "ticks": 104448,
            "time": 93.25710400000001,
            "velocity": 0.23622047244094488
          },
          {
            "duration": 0.08571424999999522,
            "durationTicks": 96,
            "midi": 39,
            "name": "D#2",
            "ticks": 104448,
            "time": 93.25710400000001,
            "velocity": 0.23622047244094488
          },
          {
            "duration": 0.08571424999999522,
            "durationTicks": 96,
            "midi": 82,
            "name": "A#5",
            "ticks": 104448,
            "time": 93.25710400000001,
            "velocity": 0.23622047244094488
          },
          {
            "duration": 0.08571424999999522,
            "durationTicks": 96,
            "midi": 87,
            "name": "D#6",
            "ticks": 104448,
            "time": 93.25710400000001,
            "velocity": 0.23622047244094488
          },
          {
            "duration": 0.08571424999999522,
            "durationTicks": 96,
            "midi": 57,
            "name": "A3",
            "ticks": 104448,
            "time": 93.25710400000001,
            "velocity": 0.23622047244094488
          },
          {
            "duration": 0.08571425000000943,
            "durationTicks": 96,
            "midi": 41,
            "name": "F2",
            "ticks": 104640,
            "time": 93.4285325,
            "velocity": 0.23622047244094488
          },
          {
            "duration": 0.08571424999999522,
            "durationTicks": 96,
            "midi": 44,
            "name": "G#2",
            "ticks": 104832,
            "time": 93.59996100000001,
            "velocity": 0.23622047244094488
          },
          {
            "duration": 0.08571424999999522,
            "durationTicks": 96,
            "midi": 75,
            "name": "D#5",
            "ticks": 104832,
            "time": 93.59996100000001,
            "velocity": 0.23622047244094488
          },
          {
            "duration": 0.08571424999999522,
            "durationTicks": 96,
            "midi": 87,
            "name": "D#6",
            "ticks": 105024,
            "time": 93.77138950000001,
            "velocity": 0.23622047244094488
          },
          {
            "duration": 0.08571424999999522,
            "durationTicks": 96,
            "midi": 87,
            "name": "D#6",
            "ticks": 105024,
            "time": 93.77138950000001,
            "velocity": 0.23622047244094488
          },
          {
            "duration": 0.08571424999999522,
            "durationTicks": 96,
            "midi": 39,
            "name": "D#2",
            "ticks": 105024,
            "time": 93.77138950000001,
            "velocity": 0.23622047244094488
          },
          {
            "duration": 0.08571424999999522,
            "durationTicks": 96,
            "midi": 82,
            "name": "A#5",
            "ticks": 105024,
            "time": 93.77138950000001,
            "velocity": 0.23622047244094488
          },
          {
            "duration": 0.08571425000000943,
            "durationTicks": 96,
            "midi": 87,
            "name": "D#6",
            "ticks": 105216,
            "time": 93.942818,
            "velocity": 0.23622047244094488
          },
          {
            "duration": 0.08571425000000943,
            "durationTicks": 96,
            "midi": 82,
            "name": "A#5",
            "ticks": 105216,
            "time": 93.942818,
            "velocity": 0.23622047244094488
          },
          {
            "duration": 0.08571425000000943,
            "durationTicks": 96,
            "midi": 87,
            "name": "D#6",
            "ticks": 105216,
            "time": 93.942818,
            "velocity": 0.23622047244094488
          },
          {
            "duration": 0.08571424999999522,
            "durationTicks": 96,
            "midi": 85,
            "name": "C#6",
            "ticks": 105408,
            "time": 94.11424650000001,
            "velocity": 0.23622047244094488
          },
          {
            "duration": 0.08571424999999522,
            "durationTicks": 96,
            "midi": 80,
            "name": "G#5",
            "ticks": 105408,
            "time": 94.11424650000001,
            "velocity": 0.23622047244094488
          },
          {
            "duration": 0.08571424999999522,
            "durationTicks": 96,
            "midi": 85,
            "name": "C#6",
            "ticks": 105408,
            "time": 94.11424650000001,
            "velocity": 0.23622047244094488
          },
          {
            "duration": 0.08571424999999522,
            "durationTicks": 96,
            "midi": 39,
            "name": "D#2",
            "ticks": 105408,
            "time": 94.11424650000001,
            "velocity": 0.23622047244094488
          },
          {
            "duration": 0.08571424999999522,
            "durationTicks": 96,
            "midi": 44,
            "name": "G#2",
            "ticks": 105600,
            "time": 94.28567500000001,
            "velocity": 0.23622047244094488
          },
          {
            "duration": 0.08571425000000943,
            "durationTicks": 96,
            "midi": 82,
            "name": "A#5",
            "ticks": 105792,
            "time": 94.4571035,
            "velocity": 0.23622047244094488
          },
          {
            "duration": 0.08571425000000943,
            "durationTicks": 96,
            "midi": 87,
            "name": "D#6",
            "ticks": 105792,
            "time": 94.4571035,
            "velocity": 0.23622047244094488
          },
          {
            "duration": 0.08571425000000943,
            "durationTicks": 96,
            "midi": 41,
            "name": "F2",
            "ticks": 105792,
            "time": 94.4571035,
            "velocity": 0.23622047244094488
          },
          {
            "duration": 0.08571425000000943,
            "durationTicks": 96,
            "midi": 87,
            "name": "D#6",
            "ticks": 105792,
            "time": 94.4571035,
            "velocity": 0.23622047244094488
          },
          {
            "duration": 0.08571424999999522,
            "durationTicks": 96,
            "midi": 39,
            "name": "D#2",
            "ticks": 105984,
            "time": 94.628532,
            "velocity": 0.23622047244094488
          },
          {
            "duration": 0.08571424999999522,
            "durationTicks": 96,
            "midi": 82,
            "name": "A#5",
            "ticks": 106176,
            "time": 94.79996050000001,
            "velocity": 0.23622047244094488
          },
          {
            "duration": 0.08571424999999522,
            "durationTicks": 96,
            "midi": 87,
            "name": "D#6",
            "ticks": 106176,
            "time": 94.79996050000001,
            "velocity": 0.23622047244094488
          },
          {
            "duration": 0.08571424999999522,
            "durationTicks": 96,
            "midi": 41,
            "name": "F2",
            "ticks": 106176,
            "time": 94.79996050000001,
            "velocity": 0.23622047244094488
          },
          {
            "duration": 0.08571424999999522,
            "durationTicks": 96,
            "midi": 87,
            "name": "D#6",
            "ticks": 106176,
            "time": 94.79996050000001,
            "velocity": 0.23622047244094488
          },
          {
            "duration": 0.08571425000000943,
            "durationTicks": 96,
            "midi": 75,
            "name": "D#5",
            "ticks": 106368,
            "time": 94.971389,
            "velocity": 0.23622047244094488
          },
          {
            "duration": 0.08571425000000943,
            "durationTicks": 96,
            "midi": 85,
            "name": "C#6",
            "ticks": 106368,
            "time": 94.971389,
            "velocity": 0.23622047244094488
          },
          {
            "duration": 0.08571425000000943,
            "durationTicks": 96,
            "midi": 44,
            "name": "G#2",
            "ticks": 106368,
            "time": 94.971389,
            "velocity": 0.23622047244094488
          },
          {
            "duration": 0.08571424999999522,
            "durationTicks": 96,
            "midi": 87,
            "name": "D#6",
            "ticks": 106560,
            "time": 95.1428175,
            "velocity": 0.23622047244094488
          },
          {
            "duration": 0.08571424999999522,
            "durationTicks": 96,
            "midi": 82,
            "name": "A#5",
            "ticks": 106560,
            "time": 95.1428175,
            "velocity": 0.23622047244094488
          },
          {
            "duration": 0.08571424999999522,
            "durationTicks": 96,
            "midi": 87,
            "name": "D#6",
            "ticks": 106560,
            "time": 95.1428175,
            "velocity": 0.23622047244094488
          },
          {
            "duration": 0.08571424999999522,
            "durationTicks": 96,
            "midi": 39,
            "name": "D#2",
            "ticks": 106560,
            "time": 95.1428175,
            "velocity": 0.23622047244094488
          },
          {
            "duration": 0.08571424999999522,
            "durationTicks": 96,
            "midi": 82,
            "name": "A#5",
            "ticks": 106752,
            "time": 95.31424600000001,
            "velocity": 0.23622047244094488
          },
          {
            "duration": 0.08571424999999522,
            "durationTicks": 96,
            "midi": 87,
            "name": "D#6",
            "ticks": 106752,
            "time": 95.31424600000001,
            "velocity": 0.23622047244094488
          },
          {
            "duration": 0.08571424999999522,
            "durationTicks": 96,
            "midi": 87,
            "name": "D#6",
            "ticks": 106752,
            "time": 95.31424600000001,
            "velocity": 0.23622047244094488
          },
          {
            "duration": 0.08571424999999522,
            "durationTicks": 96,
            "midi": 80,
            "name": "G#5",
            "ticks": 106848,
            "time": 95.39996025,
            "velocity": 0.23622047244094488
          },
          {
            "duration": 0.08571424999999522,
            "durationTicks": 96,
            "midi": 85,
            "name": "C#6",
            "ticks": 106848,
            "time": 95.39996025,
            "velocity": 0.23622047244094488
          },
          {
            "duration": 0.08571424999999522,
            "durationTicks": 96,
            "midi": 85,
            "name": "C#6",
            "ticks": 106848,
            "time": 95.39996025,
            "velocity": 0.23622047244094488
          },
          {
            "duration": 0.08571425000000943,
            "durationTicks": 96,
            "midi": 39,
            "name": "D#2",
            "ticks": 106944,
            "time": 95.4856745,
            "velocity": 0.23622047244094488
          },
          {
            "duration": 0.08571425000000943,
            "durationTicks": 96,
            "midi": 78,
            "name": "F#5",
            "ticks": 106944,
            "time": 95.4856745,
            "velocity": 0.23622047244094488
          },
          {
            "duration": 0.08571425000000943,
            "durationTicks": 96,
            "midi": 82,
            "name": "A#5",
            "ticks": 106944,
            "time": 95.4856745,
            "velocity": 0.23622047244094488
          },
          {
            "duration": 0.08571425000000943,
            "durationTicks": 96,
            "midi": 94,
            "name": "A#6",
            "ticks": 106944,
            "time": 95.4856745,
            "velocity": 0.23622047244094488
          },
          {
            "duration": 0.08571424999999522,
            "durationTicks": 96,
            "midi": 73,
            "name": "C#5",
            "ticks": 107136,
            "time": 95.657103,
            "velocity": 0.23622047244094488
          },
          {
            "duration": 0.08571424999999522,
            "durationTicks": 96,
            "midi": 90,
            "name": "F#6",
            "ticks": 107136,
            "time": 95.657103,
            "velocity": 0.23622047244094488
          },
          {
            "duration": 0.08571424999999522,
            "durationTicks": 96,
            "midi": 78,
            "name": "F#5",
            "ticks": 107136,
            "time": 95.657103,
            "velocity": 0.23622047244094488
          },
          {
            "duration": 0.08571424999999522,
            "durationTicks": 96,
            "midi": 44,
            "name": "G#2",
            "ticks": 107136,
            "time": 95.657103,
            "velocity": 0.23622047244094488
          },
          {
            "duration": 0.08571424999999522,
            "durationTicks": 96,
            "midi": 79,
            "name": "G5",
            "ticks": 107328,
            "time": 95.82853150000001,
            "velocity": 0.23622047244094488
          },
          {
            "duration": 0.08571424999999522,
            "durationTicks": 96,
            "midi": 91,
            "name": "G6",
            "ticks": 107328,
            "time": 95.82853150000001,
            "velocity": 0.23622047244094488
          },
          {
            "duration": 0.08571424999999522,
            "durationTicks": 96,
            "midi": 74,
            "name": "D5",
            "ticks": 107328,
            "time": 95.82853150000001,
            "velocity": 0.23622047244094488
          },
          {
            "duration": 0.08571424999999522,
            "durationTicks": 96,
            "midi": 41,
            "name": "F2",
            "ticks": 107328,
            "time": 95.82853150000001,
            "velocity": 0.23622047244094488
          },
          {
            "duration": 0.08571425000000943,
            "durationTicks": 96,
            "midi": 39,
            "name": "D#2",
            "ticks": 107520,
            "time": 95.99996,
            "velocity": 0.23622047244094488
          },
          {
            "duration": 0.08571425000000943,
            "durationTicks": 96,
            "midi": 92,
            "name": "G#6",
            "ticks": 107520,
            "time": 95.99996,
            "velocity": 0.23622047244094488
          },
          {
            "duration": 0.08571425000000943,
            "durationTicks": 96,
            "midi": 57,
            "name": "A3",
            "ticks": 107520,
            "time": 95.99996,
            "velocity": 0.23622047244094488
          },
          {
            "duration": 0.08571425000000943,
            "durationTicks": 96,
            "midi": 80,
            "name": "G#5",
            "ticks": 107520,
            "time": 95.99996,
            "velocity": 0.23622047244094488
          },
          {
            "duration": 0.08571424999999522,
            "durationTicks": 96,
            "midi": 41,
            "name": "F2",
            "ticks": 107712,
            "time": 96.1713885,
            "velocity": 0.23622047244094488
          },
          {
            "duration": 0.08571424999999522,
            "durationTicks": 96,
            "midi": 87,
            "name": "D#6",
            "ticks": 107712,
            "time": 96.1713885,
            "velocity": 0.23622047244094488
          },
          {
            "duration": 0.08571424999999522,
            "durationTicks": 96,
            "midi": 75,
            "name": "D#5",
            "ticks": 107712,
            "time": 96.1713885,
            "velocity": 0.23622047244094488
          },
          {
            "duration": 0.08571425000000943,
            "durationTicks": 96,
            "midi": 92,
            "name": "G#6",
            "ticks": 107808,
            "time": 96.25710275,
            "velocity": 0.23622047244094488
          },
          {
            "duration": 0.08571425000000943,
            "durationTicks": 96,
            "midi": 80,
            "name": "G#5",
            "ticks": 107808,
            "time": 96.25710275,
            "velocity": 0.23622047244094488
          },
          {
            "duration": 0.08571424999999522,
            "durationTicks": 96,
            "midi": 44,
            "name": "G#2",
            "ticks": 107904,
            "time": 96.34281700000001,
            "velocity": 0.23622047244094488
          },
          {
            "duration": 0.08571424999999522,
            "durationTicks": 96,
            "midi": 75,
            "name": "D#5",
            "ticks": 108000,
            "time": 96.42853125,
            "velocity": 0.23622047244094488
          },
          {
            "duration": 0.08571424999999522,
            "durationTicks": 96,
            "midi": 87,
            "name": "D#6",
            "ticks": 108000,
            "time": 96.42853125,
            "velocity": 0.23622047244094488
          },
          {
            "duration": 0.08571425000000943,
            "durationTicks": 96,
            "midi": 39,
            "name": "D#2",
            "ticks": 108096,
            "time": 96.5142455,
            "velocity": 0.23622047244094488
          },
          {
            "duration": 0.08571425000000943,
            "durationTicks": 96,
            "midi": 92,
            "name": "G#6",
            "ticks": 108096,
            "time": 96.5142455,
            "velocity": 0.23622047244094488
          },
          {
            "duration": 0.08571425000000943,
            "durationTicks": 96,
            "midi": 80,
            "name": "G#5",
            "ticks": 108096,
            "time": 96.5142455,
            "velocity": 0.23622047244094488
          },
          {
            "duration": 0.08571424999999522,
            "durationTicks": 96,
            "midi": 94,
            "name": "A#6",
            "ticks": 108288,
            "time": 96.685674,
            "velocity": 0.23622047244094488
          },
          {
            "duration": 0.08571424999999522,
            "durationTicks": 96,
            "midi": 57,
            "name": "A3",
            "ticks": 108288,
            "time": 96.685674,
            "velocity": 0.23622047244094488
          },
          {
            "duration": 0.08571424999999522,
            "durationTicks": 96,
            "midi": 77,
            "name": "F5",
            "ticks": 108288,
            "time": 96.685674,
            "velocity": 0.23622047244094488
          },
          {
            "duration": 0.08571424999999522,
            "durationTicks": 96,
            "midi": 82,
            "name": "A#5",
            "ticks": 108288,
            "time": 96.685674,
            "velocity": 0.23622047244094488
          },
          {
            "duration": 0.08571424999999522,
            "durationTicks": 96,
            "midi": 90,
            "name": "F#6",
            "ticks": 108480,
            "time": 96.85710250000001,
            "velocity": 0.23622047244094488
          },
          {
            "duration": 0.08571424999999522,
            "durationTicks": 96,
            "midi": 90,
            "name": "F#6",
            "ticks": 108480,
            "time": 96.85710250000001,
            "velocity": 0.23622047244094488
          },
          {
            "duration": 0.08571424999999522,
            "durationTicks": 96,
            "midi": 85,
            "name": "C#6",
            "ticks": 108480,
            "time": 96.85710250000001,
            "velocity": 0.23622047244094488
          },
          {
            "duration": 0.08571424999999522,
            "durationTicks": 96,
            "midi": 39,
            "name": "D#2",
            "ticks": 108480,
            "time": 96.85710250000001,
            "velocity": 0.23622047244094488
          },
          {
            "duration": 0.08571425000000943,
            "durationTicks": 96,
            "midi": 83,
            "name": "B5",
            "ticks": 108672,
            "time": 97.028531,
            "velocity": 0.23622047244094488
          },
          {
            "duration": 0.08571425000000943,
            "durationTicks": 96,
            "midi": 44,
            "name": "G#2",
            "ticks": 108672,
            "time": 97.028531,
            "velocity": 0.23622047244094488
          },
          {
            "duration": 0.08571425000000943,
            "durationTicks": 96,
            "midi": 89,
            "name": "F6",
            "ticks": 108672,
            "time": 97.028531,
            "velocity": 0.23622047244094488
          },
          {
            "duration": 0.08571425000000943,
            "durationTicks": 96,
            "midi": 89,
            "name": "F6",
            "ticks": 108672,
            "time": 97.028531,
            "velocity": 0.23622047244094488
          },
          {
            "duration": 0.08571424999999522,
            "durationTicks": 96,
            "midi": 85,
            "name": "C#6",
            "ticks": 108864,
            "time": 97.1999595,
            "velocity": 0.23622047244094488
          },
          {
            "duration": 0.08571424999999522,
            "durationTicks": 96,
            "midi": 41,
            "name": "F2",
            "ticks": 108864,
            "time": 97.1999595,
            "velocity": 0.23622047244094488
          },
          {
            "duration": 0.08571424999999522,
            "durationTicks": 96,
            "midi": 80,
            "name": "G#5",
            "ticks": 108864,
            "time": 97.1999595,
            "velocity": 0.23622047244094488
          },
          {
            "duration": 0.08571424999999522,
            "durationTicks": 96,
            "midi": 85,
            "name": "C#6",
            "ticks": 108864,
            "time": 97.1999595,
            "velocity": 0.23622047244094488
          },
          {
            "duration": 0.08571424999999522,
            "durationTicks": 96,
            "midi": 57,
            "name": "A3",
            "ticks": 109056,
            "time": 97.37138800000001,
            "velocity": 0.23622047244094488
          },
          {
            "duration": 0.08571424999999522,
            "durationTicks": 96,
            "midi": 39,
            "name": "D#2",
            "ticks": 109056,
            "time": 97.37138800000001,
            "velocity": 0.23622047244094488
          },
          {
            "duration": 0.08571424999999522,
            "durationTicks": 96,
            "midi": 87,
            "name": "D#6",
            "ticks": 109056,
            "time": 97.37138800000001,
            "velocity": 0.23622047244094488
          },
          {
            "duration": 0.08571424999999522,
            "durationTicks": 96,
            "midi": 75,
            "name": "D#5",
            "ticks": 109056,
            "time": 97.37138800000001,
            "velocity": 0.23622047244094488
          },
          {
            "duration": 0.08571424999999522,
            "durationTicks": 96,
            "midi": 87,
            "name": "D#6",
            "ticks": 109056,
            "time": 97.37138800000001,
            "velocity": 0.23622047244094488
          },
          {
            "duration": 0.08571424999999522,
            "durationTicks": 96,
            "midi": 82,
            "name": "A#5",
            "ticks": 109056,
            "time": 97.37138800000001,
            "velocity": 0.23622047244094488
          },
          {
            "duration": 0.08571425000000943,
            "durationTicks": 96,
            "midi": 41,
            "name": "F2",
            "ticks": 109248,
            "time": 97.5428165,
            "velocity": 0.23622047244094488
          },
          {
            "duration": 0.08571424999999522,
            "durationTicks": 96,
            "midi": 82,
            "name": "A#5",
            "ticks": 109344,
            "time": 97.62853075000001,
            "velocity": 0.23622047244094488
          },
          {
            "duration": 0.08571424999999522,
            "durationTicks": 96,
            "midi": 87,
            "name": "D#6",
            "ticks": 109344,
            "time": 97.62853075000001,
            "velocity": 0.23622047244094488
          },
          {
            "duration": 0.08571424999999522,
            "durationTicks": 96,
            "midi": 75,
            "name": "D#5",
            "ticks": 109344,
            "time": 97.62853075000001,
            "velocity": 0.23622047244094488
          },
          {
            "duration": 0.08571424999999522,
            "durationTicks": 96,
            "midi": 57,
            "name": "A3",
            "ticks": 109440,
            "time": 97.714245,
            "velocity": 0.23622047244094488
          },
          {
            "duration": 0.08571424999999522,
            "durationTicks": 96,
            "midi": 44,
            "name": "G#2",
            "ticks": 109440,
            "time": 97.714245,
            "velocity": 0.23622047244094488
          },
          {
            "duration": 0.08571424999999522,
            "durationTicks": 96,
            "midi": 82,
            "name": "A#5",
            "ticks": 109632,
            "time": 97.88567350000001,
            "velocity": 0.23622047244094488
          },
          {
            "duration": 0.08571424999999522,
            "durationTicks": 96,
            "midi": 39,
            "name": "D#2",
            "ticks": 109632,
            "time": 97.88567350000001,
            "velocity": 0.23622047244094488
          },
          {
            "duration": 0.08571424999999522,
            "durationTicks": 96,
            "midi": 75,
            "name": "D#5",
            "ticks": 109632,
            "time": 97.88567350000001,
            "velocity": 0.23622047244094488
          },
          {
            "duration": 0.08571424999999522,
            "durationTicks": 96,
            "midi": 87,
            "name": "D#6",
            "ticks": 109632,
            "time": 97.88567350000001,
            "velocity": 0.23622047244094488
          },
          {
            "duration": 0.08571425000000943,
            "durationTicks": 96,
            "midi": 82,
            "name": "A#5",
            "ticks": 109824,
            "time": 98.057102,
            "velocity": 0.23622047244094488
          },
          {
            "duration": 0.08571425000000943,
            "durationTicks": 96,
            "midi": 75,
            "name": "D#5",
            "ticks": 109824,
            "time": 98.057102,
            "velocity": 0.23622047244094488
          },
          {
            "duration": 0.08571425000000943,
            "durationTicks": 96,
            "midi": 87,
            "name": "D#6",
            "ticks": 109824,
            "time": 98.057102,
            "velocity": 0.23622047244094488
          },
          {
            "duration": 0.08571425000000943,
            "durationTicks": 96,
            "midi": 57,
            "name": "A3",
            "ticks": 109824,
            "time": 98.057102,
            "velocity": 0.23622047244094488
          },
          {
            "duration": 0.08571425000000943,
            "durationTicks": 96,
            "midi": 44,
            "name": "G#2",
            "ticks": 109824,
            "time": 98.057102,
            "velocity": 0.23622047244094488
          }
        ],
        "endOfTrackTicks": 109920
      },
      {
        "channel": 2,
        "controlChanges": {},
        "pitchBends": [],
        "instrument": {
          "family": "world",
          "number": 107,
          "name": "koto"
        },
        "name": "Koto",
        "notes": [
          {
            "duration": 0.08571425,
            "durationTicks": 96,
            "midi": 50,
            "name": "D3",
            "ticks": 0,
            "time": 0,
            "velocity": 0.3937007874015748
          },
          {
            "duration": 0.08571425,
            "durationTicks": 96,
            "midi": 62,
            "name": "D4",
            "ticks": 0,
            "time": 0,
            "velocity": 0.3937007874015748
          },
          {
            "duration": 0.08571425000000002,
            "durationTicks": 96,
            "midi": 69,
            "name": "A4",
            "ticks": 192,
            "time": 0.1714285,
            "velocity": 0.3937007874015748
          },
          {
            "duration": 0.08571425000000002,
            "durationTicks": 96,
            "midi": 57,
            "name": "A3",
            "ticks": 192,
            "time": 0.1714285,
            "velocity": 0.3937007874015748
          },
          {
            "duration": 0.08571424999999999,
            "durationTicks": 96,
            "midi": 67,
            "name": "G4",
            "ticks": 384,
            "time": 0.342857,
            "velocity": 0.3937007874015748
          },
          {
            "duration": 0.08571424999999999,
            "durationTicks": 96,
            "midi": 55,
            "name": "G3",
            "ticks": 384,
            "time": 0.342857,
            "velocity": 0.3937007874015748
          },
          {
            "duration": 0.08571425000000005,
            "durationTicks": 96,
            "midi": 69,
            "name": "A4",
            "ticks": 480,
            "time": 0.42857125,
            "velocity": 0.3937007874015748
          },
          {
            "duration": 0.08571425000000005,
            "durationTicks": 96,
            "midi": 57,
            "name": "A3",
            "ticks": 480,
            "time": 0.42857125,
            "velocity": 0.3937007874015748
          },
          {
            "duration": 0.08571424999999999,
            "durationTicks": 96,
            "midi": 64,
            "name": "E4",
            "ticks": 672,
            "time": 0.59999975,
            "velocity": 0.3937007874015748
          },
          {
            "duration": 0.08571424999999999,
            "durationTicks": 96,
            "midi": 52,
            "name": "E3",
            "ticks": 672,
            "time": 0.59999975,
            "velocity": 0.3937007874015748
          },
          {
            "duration": 0.08571424999999999,
            "durationTicks": 96,
            "midi": 65,
            "name": "F4",
            "ticks": 864,
            "time": 0.77142825,
            "velocity": 0.3937007874015748
          },
          {
            "duration": 0.08571424999999999,
            "durationTicks": 96,
            "midi": 53,
            "name": "F3",
            "ticks": 864,
            "time": 0.77142825,
            "velocity": 0.3937007874015748
          },
          {
            "duration": 0.0857142500000001,
            "durationTicks": 96,
            "midi": 57,
            "name": "A3",
            "ticks": 1056,
            "time": 0.94285675,
            "velocity": 0.3937007874015748
          },
          {
            "duration": 0.0857142500000001,
            "durationTicks": 96,
            "midi": 69,
            "name": "A4",
            "ticks": 1056,
            "time": 0.94285675,
            "velocity": 0.3937007874015748
          },
          {
            "duration": 0.08571424999999988,
            "durationTicks": 96,
            "midi": 55,
            "name": "G3",
            "ticks": 1152,
            "time": 1.0285710000000001,
            "velocity": 0.3937007874015748
          },
          {
            "duration": 0.08571424999999988,
            "durationTicks": 96,
            "midi": 67,
            "name": "G4",
            "ticks": 1152,
            "time": 1.0285710000000001,
            "velocity": 0.3937007874015748
          },
          {
            "duration": 0.0857142500000001,
            "durationTicks": 96,
            "midi": 53,
            "name": "F3",
            "ticks": 1248,
            "time": 1.11428525,
            "velocity": 0.3937007874015748
          },
          {
            "duration": 0.0857142500000001,
            "durationTicks": 96,
            "midi": 65,
            "name": "F4",
            "ticks": 1248,
            "time": 1.11428525,
            "velocity": 0.3937007874015748
          },
          {
            "duration": 0.08571424999999988,
            "durationTicks": 96,
            "midi": 52,
            "name": "E3",
            "ticks": 1344,
            "time": 1.1999995,
            "velocity": 0.3937007874015748
          },
          {
            "duration": 0.08571424999999988,
            "durationTicks": 96,
            "midi": 64,
            "name": "E4",
            "ticks": 1344,
            "time": 1.1999995,
            "velocity": 0.3937007874015748
          },
          {
            "duration": 0.0857142500000001,
            "durationTicks": 96,
            "midi": 62,
            "name": "D4",
            "ticks": 1440,
            "time": 1.28571375,
            "velocity": 0.3937007874015748
          },
          {
            "duration": 0.0857142500000001,
            "durationTicks": 96,
            "midi": 50,
            "name": "D3",
            "ticks": 1440,
            "time": 1.28571375,
            "velocity": 0.3937007874015748
          },
          {
            "duration": 0.08571424999999988,
            "durationTicks": 96,
            "midi": 50,
            "name": "D3",
            "ticks": 1632,
            "time": 1.4571422500000002,
            "velocity": 0.3937007874015748
          },
          {
            "duration": 0.08571424999999988,
            "durationTicks": 96,
            "midi": 62,
            "name": "D4",
            "ticks": 1632,
            "time": 1.4571422500000002,
            "velocity": 0.3937007874015748
          },
          {
            "duration": 0.0857142500000001,
            "durationTicks": 96,
            "midi": 69,
            "name": "A4",
            "ticks": 1728,
            "time": 1.5428565,
            "velocity": 0.3937007874015748
          },
          {
            "duration": 0.0857142500000001,
            "durationTicks": 96,
            "midi": 57,
            "name": "A3",
            "ticks": 1728,
            "time": 1.5428565,
            "velocity": 0.3937007874015748
          },
          {
            "duration": 0.0857142500000001,
            "durationTicks": 96,
            "midi": 55,
            "name": "G3",
            "ticks": 1920,
            "time": 1.714285,
            "velocity": 0.3937007874015748
          },
          {
            "duration": 0.0857142500000001,
            "durationTicks": 96,
            "midi": 67,
            "name": "G4",
            "ticks": 1920,
            "time": 1.714285,
            "velocity": 0.3937007874015748
          },
          {
            "duration": 0.08571424999999988,
            "durationTicks": 96,
            "midi": 69,
            "name": "A4",
            "ticks": 2016,
            "time": 1.7999992500000002,
            "velocity": 0.3937007874015748
          },
          {
            "duration": 0.08571424999999988,
            "durationTicks": 96,
            "midi": 57,
            "name": "A3",
            "ticks": 2016,
            "time": 1.7999992500000002,
            "velocity": 0.3937007874015748
          },
          {
            "duration": 0.0857142500000001,
            "durationTicks": 96,
            "midi": 52,
            "name": "E3",
            "ticks": 2208,
            "time": 1.9714277500000001,
            "velocity": 0.3937007874015748
          },
          {
            "duration": 0.0857142500000001,
            "durationTicks": 96,
            "midi": 64,
            "name": "E4",
            "ticks": 2208,
            "time": 1.9714277500000001,
            "velocity": 0.3937007874015748
          },
          {
            "duration": 0.08571424999999966,
            "durationTicks": 96,
            "midi": 53,
            "name": "F3",
            "ticks": 2400,
            "time": 2.1428562500000004,
            "velocity": 0.3937007874015748
          },
          {
            "duration": 0.08571424999999966,
            "durationTicks": 96,
            "midi": 65,
            "name": "F4",
            "ticks": 2400,
            "time": 2.1428562500000004,
            "velocity": 0.3937007874015748
          },
          {
            "duration": 0.0857142500000001,
            "durationTicks": 96,
            "midi": 57,
            "name": "A3",
            "ticks": 2592,
            "time": 2.31428475,
            "velocity": 0.3937007874015748
          },
          {
            "duration": 0.0857142500000001,
            "durationTicks": 96,
            "midi": 69,
            "name": "A4",
            "ticks": 2592,
            "time": 2.31428475,
            "velocity": 0.3937007874015748
          },
          {
            "duration": 0.0857142500000001,
            "durationTicks": 96,
            "midi": 60,
            "name": "C4",
            "ticks": 2688,
            "time": 2.399999,
            "velocity": 0.3937007874015748
          },
          {
            "duration": 0.0857142500000001,
            "durationTicks": 96,
            "midi": 48,
            "name": "C3",
            "ticks": 2688,
            "time": 2.399999,
            "velocity": 0.3937007874015748
          },
          {
            "duration": 0.0857142500000001,
            "durationTicks": 96,
            "midi": 49,
            "name": "C#3",
            "ticks": 2880,
            "time": 2.5714275,
            "velocity": 0.3937007874015748
          },
          {
            "duration": 0.0857142500000001,
            "durationTicks": 96,
            "midi": 61,
            "name": "C#4",
            "ticks": 2880,
            "time": 2.5714275,
            "velocity": 0.3937007874015748
          },
          {
            "duration": 0.0857142500000001,
            "durationTicks": 96,
            "midi": 50,
            "name": "D3",
            "ticks": 3072,
            "time": 2.742856,
            "velocity": 0.3937007874015748
          },
          {
            "duration": 0.0857142500000001,
            "durationTicks": 96,
            "midi": 62,
            "name": "D4",
            "ticks": 3072,
            "time": 2.742856,
            "velocity": 0.3937007874015748
          },
          {
            "duration": 0.08571424999999966,
            "durationTicks": 96,
            "midi": 57,
            "name": "A3",
            "ticks": 3264,
            "time": 2.9142845000000004,
            "velocity": 0.3937007874015748
          },
          {
            "duration": 0.08571424999999966,
            "durationTicks": 96,
            "midi": 69,
            "name": "A4",
            "ticks": 3264,
            "time": 2.9142845000000004,
            "velocity": 0.3937007874015748
          },
          {
            "duration": 0.0857142500000001,
            "durationTicks": 96,
            "midi": 67,
            "name": "G4",
            "ticks": 3456,
            "time": 3.085713,
            "velocity": 0.3937007874015748
          },
          {
            "duration": 0.0857142500000001,
            "durationTicks": 96,
            "midi": 55,
            "name": "G3",
            "ticks": 3456,
            "time": 3.085713,
            "velocity": 0.3937007874015748
          },
          {
            "duration": 0.0857142500000001,
            "durationTicks": 96,
            "midi": 57,
            "name": "A3",
            "ticks": 3552,
            "time": 3.1714272500000003,
            "velocity": 0.3937007874015748
          },
          {
            "duration": 0.0857142500000001,
            "durationTicks": 96,
            "midi": 69,
            "name": "A4",
            "ticks": 3552,
            "time": 3.1714272500000003,
            "velocity": 0.3937007874015748
          },
          {
            "duration": 0.0857142500000001,
            "durationTicks": 96,
            "midi": 52,
            "name": "E3",
            "ticks": 3744,
            "time": 3.34285575,
            "velocity": 0.3937007874015748
          },
          {
            "duration": 0.0857142500000001,
            "durationTicks": 96,
            "midi": 64,
            "name": "E4",
            "ticks": 3744,
            "time": 3.34285575,
            "velocity": 0.3937007874015748
          },
          {
            "duration": 0.0857142500000001,
            "durationTicks": 96,
            "midi": 65,
            "name": "F4",
            "ticks": 3936,
            "time": 3.51428425,
            "velocity": 0.3937007874015748
          },
          {
            "duration": 0.0857142500000001,
            "durationTicks": 96,
            "midi": 53,
            "name": "F3",
            "ticks": 3936,
            "time": 3.51428425,
            "velocity": 0.3937007874015748
          },
          {
            "duration": 0.08571424999999966,
            "durationTicks": 96,
            "midi": 57,
            "name": "A3",
            "ticks": 4128,
            "time": 3.6857127500000004,
            "velocity": 0.3937007874015748
          },
          {
            "duration": 0.08571424999999966,
            "durationTicks": 96,
            "midi": 69,
            "name": "A4",
            "ticks": 4128,
            "time": 3.6857127500000004,
            "velocity": 0.3937007874015748
          },
          {
            "duration": 0.0857142500000001,
            "durationTicks": 96,
            "midi": 67,
            "name": "G4",
            "ticks": 4224,
            "time": 3.771427,
            "velocity": 0.3937007874015748
          },
          {
            "duration": 0.0857142500000001,
            "durationTicks": 96,
            "midi": 55,
            "name": "G3",
            "ticks": 4224,
            "time": 3.771427,
            "velocity": 0.3937007874015748
          },
          {
            "duration": 0.0857142500000001,
            "durationTicks": 96,
            "midi": 53,
            "name": "F3",
            "ticks": 4320,
            "time": 3.85714125,
            "velocity": 0.3937007874015748
          },
          {
            "duration": 0.0857142500000001,
            "durationTicks": 96,
            "midi": 65,
            "name": "F4",
            "ticks": 4320,
            "time": 3.85714125,
            "velocity": 0.3937007874015748
          },
          {
            "duration": 0.08571424999999966,
            "durationTicks": 96,
            "midi": 64,
            "name": "E4",
            "ticks": 4416,
            "time": 3.9428555000000003,
            "velocity": 0.3937007874015748
          },
          {
            "duration": 0.08571424999999966,
            "durationTicks": 96,
            "midi": 52,
            "name": "E3",
            "ticks": 4416,
            "time": 3.9428555000000003,
            "velocity": 0.3937007874015748
          },
          {
            "duration": 0.08571425000000055,
            "durationTicks": 96,
            "midi": 50,
            "name": "D3",
            "ticks": 4512,
            "time": 4.02856975,
            "velocity": 0.3937007874015748
          },
          {
            "duration": 0.08571425000000055,
            "durationTicks": 96,
            "midi": 62,
            "name": "D4",
            "ticks": 4512,
            "time": 4.02856975,
            "velocity": 0.3937007874015748
          },
          {
            "duration": 0.08571425000000055,
            "durationTicks": 96,
            "midi": 62,
            "name": "D4",
            "ticks": 4704,
            "time": 4.19999825,
            "velocity": 0.3937007874015748
          },
          {
            "duration": 0.08571425000000055,
            "durationTicks": 96,
            "midi": 50,
            "name": "D3",
            "ticks": 4704,
            "time": 4.19999825,
            "velocity": 0.3937007874015748
          },
          {
            "duration": 0.08571424999999966,
            "durationTicks": 96,
            "midi": 57,
            "name": "A3",
            "ticks": 4800,
            "time": 4.285712500000001,
            "velocity": 0.3937007874015748
          },
          {
            "duration": 0.08571424999999966,
            "durationTicks": 96,
            "midi": 69,
            "name": "A4",
            "ticks": 4800,
            "time": 4.285712500000001,
            "velocity": 0.3937007874015748
          },
          {
            "duration": 0.08571425000000055,
            "durationTicks": 96,
            "midi": 67,
            "name": "G4",
            "ticks": 4992,
            "time": 4.457141,
            "velocity": 0.3937007874015748
          },
          {
            "duration": 0.08571425000000055,
            "durationTicks": 96,
            "midi": 55,
            "name": "G3",
            "ticks": 4992,
            "time": 4.457141,
            "velocity": 0.3937007874015748
          },
          {
            "duration": 0.08571424999999966,
            "durationTicks": 96,
            "midi": 57,
            "name": "A3",
            "ticks": 5088,
            "time": 4.542855250000001,
            "velocity": 0.3937007874015748
          },
          {
            "duration": 0.08571424999999966,
            "durationTicks": 96,
            "midi": 69,
            "name": "A4",
            "ticks": 5088,
            "time": 4.542855250000001,
            "velocity": 0.3937007874015748
          },
          {
            "duration": 0.08571425000000055,
            "durationTicks": 96,
            "midi": 52,
            "name": "E3",
            "ticks": 5280,
            "time": 4.71428375,
            "velocity": 0.3937007874015748
          },
          {
            "duration": 0.08571425000000055,
            "durationTicks": 96,
            "midi": 64,
            "name": "E4",
            "ticks": 5280,
            "time": 4.71428375,
            "velocity": 0.3937007874015748
          },
          {
            "duration": 0.08571425000000055,
            "durationTicks": 96,
            "midi": 53,
            "name": "F3",
            "ticks": 5472,
            "time": 4.88571225,
            "velocity": 0.3937007874015748
          },
          {
            "duration": 0.08571425000000055,
            "durationTicks": 96,
            "midi": 65,
            "name": "F4",
            "ticks": 5472,
            "time": 4.88571225,
            "velocity": 0.3937007874015748
          },
          {
            "duration": 0.08571424999999966,
            "durationTicks": 96,
            "midi": 57,
            "name": "A3",
            "ticks": 5664,
            "time": 5.05714075,
            "velocity": 0.3937007874015748
          },
          {
            "duration": 0.08571424999999966,
            "durationTicks": 96,
            "midi": 69,
            "name": "A4",
            "ticks": 5664,
            "time": 5.05714075,
            "velocity": 0.3937007874015748
          },
          {
            "duration": 0.08571425000000055,
            "durationTicks": 96,
            "midi": 48,
            "name": "C3",
            "ticks": 5760,
            "time": 5.142855,
            "velocity": 0.3937007874015748
          },
          {
            "duration": 0.08571425000000055,
            "durationTicks": 96,
            "midi": 60,
            "name": "C4",
            "ticks": 5760,
            "time": 5.142855,
            "velocity": 0.3937007874015748
          },
          {
            "duration": 0.08571425000000055,
            "durationTicks": 96,
            "midi": 61,
            "name": "C#4",
            "ticks": 5952,
            "time": 5.3142835,
            "velocity": 0.3937007874015748
          },
          {
            "duration": 0.08571425000000055,
            "durationTicks": 96,
            "midi": 49,
            "name": "C#3",
            "ticks": 5952,
            "time": 5.3142835,
            "velocity": 0.3937007874015748
          },
          {
            "duration": 0.08571424999999966,
            "durationTicks": 96,
            "midi": 62,
            "name": "D4",
            "ticks": 6144,
            "time": 5.485712,
            "velocity": 0.3937007874015748
          },
          {
            "duration": 0.08571424999999966,
            "durationTicks": 96,
            "midi": 50,
            "name": "D3",
            "ticks": 6144,
            "time": 5.485712,
            "velocity": 0.3937007874015748
          },
          {
            "duration": 0.08571424999999966,
            "durationTicks": 96,
            "midi": 69,
            "name": "A4",
            "ticks": 6336,
            "time": 5.657140500000001,
            "velocity": 0.3937007874015748
          },
          {
            "duration": 0.08571424999999966,
            "durationTicks": 96,
            "midi": 57,
            "name": "A3",
            "ticks": 6336,
            "time": 5.657140500000001,
            "velocity": 0.3937007874015748
          },
          {
            "duration": 0.08571424999999966,
            "durationTicks": 96,
            "midi": 55,
            "name": "G3",
            "ticks": 6528,
            "time": 5.828569000000001,
            "velocity": 0.3937007874015748
          },
          {
            "duration": 0.08571424999999966,
            "durationTicks": 96,
            "midi": 67,
            "name": "G4",
            "ticks": 6528,
            "time": 5.828569000000001,
            "velocity": 0.3937007874015748
          },
          {
            "duration": 0.08571424999999966,
            "durationTicks": 96,
            "midi": 69,
            "name": "A4",
            "ticks": 6624,
            "time": 5.91428325,
            "velocity": 0.3937007874015748
          },
          {
            "duration": 0.08571424999999966,
            "durationTicks": 96,
            "midi": 57,
            "name": "A3",
            "ticks": 6624,
            "time": 5.91428325,
            "velocity": 0.3937007874015748
          },
          {
            "duration": 0.08571424999999966,
            "durationTicks": 96,
            "midi": 52,
            "name": "E3",
            "ticks": 6816,
            "time": 6.085711750000001,
            "velocity": 0.3937007874015748
          },
          {
            "duration": 0.08571424999999966,
            "durationTicks": 96,
            "midi": 64,
            "name": "E4",
            "ticks": 6816,
            "time": 6.085711750000001,
            "velocity": 0.3937007874015748
          },
          {
            "duration": 0.08571424999999966,
            "durationTicks": 96,
            "midi": 53,
            "name": "F3",
            "ticks": 7008,
            "time": 6.257140250000001,
            "velocity": 0.3937007874015748
          },
          {
            "duration": 0.08571424999999966,
            "durationTicks": 96,
            "midi": 65,
            "name": "F4",
            "ticks": 7008,
            "time": 6.257140250000001,
            "velocity": 0.3937007874015748
          },
          {
            "duration": 0.08571425000000055,
            "durationTicks": 96,
            "midi": 69,
            "name": "A4",
            "ticks": 7200,
            "time": 6.42856875,
            "velocity": 0.3937007874015748
          },
          {
            "duration": 0.08571425000000055,
            "durationTicks": 96,
            "midi": 57,
            "name": "A3",
            "ticks": 7200,
            "time": 6.42856875,
            "velocity": 0.3937007874015748
          },
          {
            "duration": 0.08571424999999966,
            "durationTicks": 96,
            "midi": 55,
            "name": "G3",
            "ticks": 7296,
            "time": 6.514283000000001,
            "velocity": 0.3937007874015748
          },
          {
            "duration": 0.08571424999999966,
            "durationTicks": 96,
            "midi": 67,
            "name": "G4",
            "ticks": 7296,
            "time": 6.514283000000001,
            "velocity": 0.3937007874015748
          },
          {
            "duration": 0.08571424999999966,
            "durationTicks": 96,
            "midi": 53,
            "name": "F3",
            "ticks": 7392,
            "time": 6.59999725,
            "velocity": 0.3937007874015748
          },
          {
            "duration": 0.08571424999999966,
            "durationTicks": 96,
            "midi": 65,
            "name": "F4",
            "ticks": 7392,
            "time": 6.59999725,
            "velocity": 0.3937007874015748
          },
          {
            "duration": 0.08571425000000055,
            "durationTicks": 96,
            "midi": 52,
            "name": "E3",
            "ticks": 7488,
            "time": 6.6857115,
            "velocity": 0.3937007874015748
          },
          {
            "duration": 0.08571425000000055,
            "durationTicks": 96,
            "midi": 64,
            "name": "E4",
            "ticks": 7488,
            "time": 6.6857115,
            "velocity": 0.3937007874015748
          },
          {
            "duration": 0.08571424999999966,
            "durationTicks": 96,
            "midi": 50,
            "name": "D3",
            "ticks": 7584,
            "time": 6.771425750000001,
            "velocity": 0.3937007874015748
          },
          {
            "duration": 0.08571424999999966,
            "durationTicks": 96,
            "midi": 62,
            "name": "D4",
            "ticks": 7584,
            "time": 6.771425750000001,
            "velocity": 0.3937007874015748
          },
          {
            "duration": 0.08571424999999966,
            "durationTicks": 96,
            "midi": 50,
            "name": "D3",
            "ticks": 7776,
            "time": 6.942854250000001,
            "velocity": 0.3937007874015748
          },
          {
            "duration": 0.08571424999999966,
            "durationTicks": 96,
            "midi": 62,
            "name": "D4",
            "ticks": 7776,
            "time": 6.942854250000001,
            "velocity": 0.3937007874015748
          },
          {
            "duration": 0.08571424999999966,
            "durationTicks": 96,
            "midi": 57,
            "name": "A3",
            "ticks": 7872,
            "time": 7.0285685,
            "velocity": 0.3937007874015748
          },
          {
            "duration": 0.08571424999999966,
            "durationTicks": 96,
            "midi": 69,
            "name": "A4",
            "ticks": 7872,
            "time": 7.0285685,
            "velocity": 0.3937007874015748
          },
          {
            "duration": 0.08571424999999966,
            "durationTicks": 96,
            "midi": 67,
            "name": "G4",
            "ticks": 8064,
            "time": 7.199997000000001,
            "velocity": 0.3937007874015748
          },
          {
            "duration": 0.08571424999999966,
            "durationTicks": 96,
            "midi": 55,
            "name": "G3",
            "ticks": 8064,
            "time": 7.199997000000001,
            "velocity": 0.3937007874015748
          },
          {
            "duration": 0.08571425000000055,
            "durationTicks": 96,
            "midi": 57,
            "name": "A3",
            "ticks": 8160,
            "time": 7.28571125,
            "velocity": 0.3937007874015748
          },
          {
            "duration": 0.08571425000000055,
            "durationTicks": 96,
            "midi": 69,
            "name": "A4",
            "ticks": 8160,
            "time": 7.28571125,
            "velocity": 0.3937007874015748
          },
          {
            "duration": 0.08571424999999966,
            "durationTicks": 96,
            "midi": 64,
            "name": "E4",
            "ticks": 8352,
            "time": 7.4571397500000005,
            "velocity": 0.3937007874015748
          },
          {
            "duration": 0.08571424999999966,
            "durationTicks": 96,
            "midi": 52,
            "name": "E3",
            "ticks": 8352,
            "time": 7.4571397500000005,
            "velocity": 0.3937007874015748
          },
          {
            "duration": 0.08571424999999966,
            "durationTicks": 96,
            "midi": 53,
            "name": "F3",
            "ticks": 8544,
            "time": 7.628568250000001,
            "velocity": 0.3937007874015748
          },
          {
            "duration": 0.08571424999999966,
            "durationTicks": 96,
            "midi": 65,
            "name": "F4",
            "ticks": 8544,
            "time": 7.628568250000001,
            "velocity": 0.3937007874015748
          },
          {
            "duration": 0.08571424999999966,
            "durationTicks": 96,
            "midi": 69,
            "name": "A4",
            "ticks": 8736,
            "time": 7.799996750000001,
            "velocity": 0.3937007874015748
          },
          {
            "duration": 0.08571424999999966,
            "durationTicks": 96,
            "midi": 57,
            "name": "A3",
            "ticks": 8736,
            "time": 7.799996750000001,
            "velocity": 0.3937007874015748
          },
          {
            "duration": 0.08571424999999966,
            "durationTicks": 96,
            "midi": 60,
            "name": "C4",
            "ticks": 8832,
            "time": 7.885711000000001,
            "velocity": 0.3937007874015748
          },
          {
            "duration": 0.08571424999999966,
            "durationTicks": 96,
            "midi": 48,
            "name": "C3",
            "ticks": 8832,
            "time": 7.885711000000001,
            "velocity": 0.3937007874015748
          },
          {
            "duration": 0.08571425000000055,
            "durationTicks": 96,
            "midi": 49,
            "name": "C#3",
            "ticks": 9024,
            "time": 8.0571395,
            "velocity": 0.3937007874015748
          },
          {
            "duration": 0.08571425000000055,
            "durationTicks": 96,
            "midi": 61,
            "name": "C#4",
            "ticks": 9024,
            "time": 8.0571395,
            "velocity": 0.3937007874015748
          },
          {
            "duration": 0.08571424999999877,
            "durationTicks": 96,
            "midi": 62,
            "name": "D4",
            "ticks": 9216,
            "time": 8.228568000000001,
            "velocity": 0.3937007874015748
          },
          {
            "duration": 0.08571424999999877,
            "durationTicks": 96,
            "midi": 50,
            "name": "D3",
            "ticks": 9216,
            "time": 8.228568000000001,
            "velocity": 0.3937007874015748
          },
          {
            "duration": 0.08571425000000055,
            "durationTicks": 96,
            "midi": 57,
            "name": "A3",
            "ticks": 9408,
            "time": 8.3999965,
            "velocity": 0.3937007874015748
          },
          {
            "duration": 0.08571425000000055,
            "durationTicks": 96,
            "midi": 69,
            "name": "A4",
            "ticks": 9408,
            "time": 8.3999965,
            "velocity": 0.3937007874015748
          },
          {
            "duration": 0.08571424999999877,
            "durationTicks": 96,
            "midi": 55,
            "name": "G3",
            "ticks": 9600,
            "time": 8.571425000000001,
            "velocity": 0.3937007874015748
          },
          {
            "duration": 0.08571424999999877,
            "durationTicks": 96,
            "midi": 67,
            "name": "G4",
            "ticks": 9600,
            "time": 8.571425000000001,
            "velocity": 0.3937007874015748
          },
          {
            "duration": 0.08571425000000055,
            "durationTicks": 96,
            "midi": 57,
            "name": "A3",
            "ticks": 9696,
            "time": 8.65713925,
            "velocity": 0.3937007874015748
          },
          {
            "duration": 0.08571425000000055,
            "durationTicks": 96,
            "midi": 69,
            "name": "A4",
            "ticks": 9696,
            "time": 8.65713925,
            "velocity": 0.3937007874015748
          },
          {
            "duration": 0.08571424999999877,
            "durationTicks": 96,
            "midi": 52,
            "name": "E3",
            "ticks": 9888,
            "time": 8.828567750000001,
            "velocity": 0.3937007874015748
          },
          {
            "duration": 0.08571424999999877,
            "durationTicks": 96,
            "midi": 64,
            "name": "E4",
            "ticks": 9888,
            "time": 8.828567750000001,
            "velocity": 0.3937007874015748
          },
          {
            "duration": 0.08571425000000055,
            "durationTicks": 96,
            "midi": 53,
            "name": "F3",
            "ticks": 10080,
            "time": 8.99999625,
            "velocity": 0.3937007874015748
          },
          {
            "duration": 0.08571425000000055,
            "durationTicks": 96,
            "midi": 65,
            "name": "F4",
            "ticks": 10080,
            "time": 8.99999625,
            "velocity": 0.3937007874015748
          },
          {
            "duration": 0.08571425000000055,
            "durationTicks": 96,
            "midi": 69,
            "name": "A4",
            "ticks": 10272,
            "time": 9.17142475,
            "velocity": 0.3937007874015748
          },
          {
            "duration": 0.08571425000000055,
            "durationTicks": 96,
            "midi": 57,
            "name": "A3",
            "ticks": 10272,
            "time": 9.17142475,
            "velocity": 0.3937007874015748
          },
          {
            "duration": 0.08571425000000055,
            "durationTicks": 96,
            "midi": 55,
            "name": "G3",
            "ticks": 10368,
            "time": 9.257139,
            "velocity": 0.3937007874015748
          },
          {
            "duration": 0.08571425000000055,
            "durationTicks": 96,
            "midi": 67,
            "name": "G4",
            "ticks": 10368,
            "time": 9.257139,
            "velocity": 0.3937007874015748
          },
          {
            "duration": 0.08571424999999877,
            "durationTicks": 96,
            "midi": 65,
            "name": "F4",
            "ticks": 10464,
            "time": 9.342853250000001,
            "velocity": 0.3937007874015748
          },
          {
            "duration": 0.08571424999999877,
            "durationTicks": 96,
            "midi": 53,
            "name": "F3",
            "ticks": 10464,
            "time": 9.342853250000001,
            "velocity": 0.3937007874015748
          },
          {
            "duration": 0.08571425000000055,
            "durationTicks": 96,
            "midi": 64,
            "name": "E4",
            "ticks": 10560,
            "time": 9.4285675,
            "velocity": 0.3937007874015748
          },
          {
            "duration": 0.08571425000000055,
            "durationTicks": 96,
            "midi": 52,
            "name": "E3",
            "ticks": 10560,
            "time": 9.4285675,
            "velocity": 0.3937007874015748
          },
          {
            "duration": 0.08571425000000055,
            "durationTicks": 96,
            "midi": 62,
            "name": "D4",
            "ticks": 10656,
            "time": 9.51428175,
            "velocity": 0.3937007874015748
          },
          {
            "duration": 0.08571425000000055,
            "durationTicks": 96,
            "midi": 50,
            "name": "D3",
            "ticks": 10656,
            "time": 9.51428175,
            "velocity": 0.3937007874015748
          },
          {
            "duration": 0.08571424999999877,
            "durationTicks": 96,
            "midi": 50,
            "name": "D3",
            "ticks": 10848,
            "time": 9.685710250000001,
            "velocity": 0.3937007874015748
          },
          {
            "duration": 0.08571424999999877,
            "durationTicks": 96,
            "midi": 62,
            "name": "D4",
            "ticks": 10848,
            "time": 9.685710250000001,
            "velocity": 0.3937007874015748
          },
          {
            "duration": 0.08571425000000055,
            "durationTicks": 96,
            "midi": 69,
            "name": "A4",
            "ticks": 10944,
            "time": 9.7714245,
            "velocity": 0.3937007874015748
          },
          {
            "duration": 0.08571425000000055,
            "durationTicks": 96,
            "midi": 57,
            "name": "A3",
            "ticks": 10944,
            "time": 9.7714245,
            "velocity": 0.3937007874015748
          },
          {
            "duration": 0.08571424999999877,
            "durationTicks": 96,
            "midi": 67,
            "name": "G4",
            "ticks": 11136,
            "time": 9.942853000000001,
            "velocity": 0.3937007874015748
          },
          {
            "duration": 0.08571424999999877,
            "durationTicks": 96,
            "midi": 55,
            "name": "G3",
            "ticks": 11136,
            "time": 9.942853000000001,
            "velocity": 0.3937007874015748
          },
          {
            "duration": 0.08571425000000055,
            "durationTicks": 96,
            "midi": 69,
            "name": "A4",
            "ticks": 11232,
            "time": 10.02856725,
            "velocity": 0.3937007874015748
          },
          {
            "duration": 0.08571425000000055,
            "durationTicks": 96,
            "midi": 57,
            "name": "A3",
            "ticks": 11232,
            "time": 10.02856725,
            "velocity": 0.3937007874015748
          },
          {
            "duration": 0.08571424999999877,
            "durationTicks": 96,
            "midi": 72,
            "name": "C5",
            "ticks": 11424,
            "time": 10.199995750000001,
            "velocity": 0.3937007874015748
          },
          {
            "duration": 0.08571424999999877,
            "durationTicks": 96,
            "midi": 60,
            "name": "C4",
            "ticks": 11424,
            "time": 10.199995750000001,
            "velocity": 0.3937007874015748
          },
          {
            "duration": 0.08571425000000055,
            "durationTicks": 96,
            "midi": 72,
            "name": "C5",
            "ticks": 11616,
            "time": 10.37142425,
            "velocity": 0.3937007874015748
          },
          {
            "duration": 0.08571425000000055,
            "durationTicks": 96,
            "midi": 60,
            "name": "C4",
            "ticks": 11616,
            "time": 10.37142425,
            "velocity": 0.3937007874015748
          },
          {
            "duration": 0.08571425000000055,
            "durationTicks": 96,
            "midi": 57,
            "name": "A3",
            "ticks": 11712,
            "time": 10.457138500000001,
            "velocity": 0.3937007874015748
          },
          {
            "duration": 0.08571425000000055,
            "durationTicks": 96,
            "midi": 69,
            "name": "A4",
            "ticks": 11712,
            "time": 10.457138500000001,
            "velocity": 0.3937007874015748
          },
          {
            "duration": 0.08571425000000055,
            "durationTicks": 96,
            "midi": 64,
            "name": "E4",
            "ticks": 11904,
            "time": 10.628567,
            "velocity": 0.3937007874015748
          },
          {
            "duration": 0.08571425000000055,
            "durationTicks": 96,
            "midi": 76,
            "name": "E5",
            "ticks": 11904,
            "time": 10.628567,
            "velocity": 0.3937007874015748
          },
          {
            "duration": 0.08571424999999877,
            "durationTicks": 96,
            "midi": 72,
            "name": "C5",
            "ticks": 12096,
            "time": 10.799995500000001,
            "velocity": 0.3937007874015748
          },
          {
            "duration": 0.08571424999999877,
            "durationTicks": 96,
            "midi": 60,
            "name": "C4",
            "ticks": 12096,
            "time": 10.799995500000001,
            "velocity": 0.3937007874015748
          },
          {
            "duration": 0.08571425000000055,
            "durationTicks": 96,
            "midi": 73,
            "name": "C#5",
            "ticks": 12192,
            "time": 10.88570975,
            "velocity": 0.3937007874015748
          },
          {
            "duration": 0.08571425000000055,
            "durationTicks": 96,
            "midi": 61,
            "name": "C#4",
            "ticks": 12192,
            "time": 10.88570975,
            "velocity": 0.3937007874015748
          },
          {
            "duration": 0.08571425000000055,
            "durationTicks": 96,
            "midi": 74,
            "name": "D5",
            "ticks": 12288,
            "time": 10.971424,
            "velocity": 0.3937007874015748
          },
          {
            "duration": 0.08571425000000055,
            "durationTicks": 96,
            "midi": 62,
            "name": "D4",
            "ticks": 12288,
            "time": 10.971424,
            "velocity": 0.3937007874015748
          },
          {
            "duration": 0.08571425000000055,
            "durationTicks": 96,
            "midi": 69,
            "name": "A4",
            "ticks": 12480,
            "time": 11.1428525,
            "velocity": 0.3937007874015748
          },
          {
            "duration": 0.08571425000000055,
            "durationTicks": 96,
            "midi": 81,
            "name": "A5",
            "ticks": 12480,
            "time": 11.1428525,
            "velocity": 0.3937007874015748
          },
          {
            "duration": 0.08571424999999877,
            "durationTicks": 96,
            "midi": 79,
            "name": "G5",
            "ticks": 12672,
            "time": 11.314281000000001,
            "velocity": 0.3937007874015748
          },
          {
            "duration": 0.08571424999999877,
            "durationTicks": 96,
            "midi": 67,
            "name": "G4",
            "ticks": 12672,
            "time": 11.314281000000001,
            "velocity": 0.3937007874015748
          },
          {
            "duration": 0.08571425000000055,
            "durationTicks": 96,
            "midi": 69,
            "name": "A4",
            "ticks": 12768,
            "time": 11.39999525,
            "velocity": 0.3937007874015748
          },
          {
            "duration": 0.08571425000000055,
            "durationTicks": 96,
            "midi": 81,
            "name": "A5",
            "ticks": 12768,
            "time": 11.39999525,
            "velocity": 0.3937007874015748
          },
          {
            "duration": 0.08571425000000055,
            "durationTicks": 96,
            "midi": 64,
            "name": "E4",
            "ticks": 12960,
            "time": 11.571423750000001,
            "velocity": 0.3937007874015748
          },
          {
            "duration": 0.08571425000000055,
            "durationTicks": 96,
            "midi": 76,
            "name": "E5",
            "ticks": 12960,
            "time": 11.571423750000001,
            "velocity": 0.3937007874015748
          },
          {
            "duration": 0.08571425000000055,
            "durationTicks": 96,
            "midi": 65,
            "name": "F4",
            "ticks": 13152,
            "time": 11.74285225,
            "velocity": 0.3937007874015748
          },
          {
            "duration": 0.08571425000000055,
            "durationTicks": 96,
            "midi": 77,
            "name": "F5",
            "ticks": 13152,
            "time": 11.74285225,
            "velocity": 0.3937007874015748
          },
          {
            "duration": 0.08571424999999877,
            "durationTicks": 96,
            "midi": 69,
            "name": "A4",
            "ticks": 13344,
            "time": 11.914280750000001,
            "velocity": 0.3937007874015748
          },
          {
            "duration": 0.08571424999999877,
            "durationTicks": 96,
            "midi": 81,
            "name": "A5",
            "ticks": 13344,
            "time": 11.914280750000001,
            "velocity": 0.3937007874015748
          },
          {
            "duration": 0.08571425000000055,
            "durationTicks": 96,
            "midi": 79,
            "name": "G5",
            "ticks": 13440,
            "time": 11.999995,
            "velocity": 0.3937007874015748
          },
          {
            "duration": 0.08571425000000055,
            "durationTicks": 96,
            "midi": 67,
            "name": "G4",
            "ticks": 13440,
            "time": 11.999995,
            "velocity": 0.3937007874015748
          },
          {
            "duration": 0.08571425000000055,
            "durationTicks": 96,
            "midi": 65,
            "name": "F4",
            "ticks": 13536,
            "time": 12.08570925,
            "velocity": 0.3937007874015748
          },
          {
            "duration": 0.08571425000000055,
            "durationTicks": 96,
            "midi": 77,
            "name": "F5",
            "ticks": 13536,
            "time": 12.08570925,
            "velocity": 0.3937007874015748
          },
          {
            "duration": 0.08571424999999877,
            "durationTicks": 96,
            "midi": 64,
            "name": "E4",
            "ticks": 13632,
            "time": 12.171423500000001,
            "velocity": 0.3937007874015748
          },
          {
            "duration": 0.08571424999999877,
            "durationTicks": 96,
            "midi": 76,
            "name": "E5",
            "ticks": 13632,
            "time": 12.171423500000001,
            "velocity": 0.3937007874015748
          },
          {
            "duration": 0.08571425000000055,
            "durationTicks": 96,
            "midi": 62,
            "name": "D4",
            "ticks": 13728,
            "time": 12.25713775,
            "velocity": 0.3937007874015748
          },
          {
            "duration": 0.08571425000000055,
            "durationTicks": 96,
            "midi": 74,
            "name": "D5",
            "ticks": 13728,
            "time": 12.25713775,
            "velocity": 0.3937007874015748
          },
          {
            "duration": 0.08571425000000055,
            "durationTicks": 96,
            "midi": 62,
            "name": "D4",
            "ticks": 13920,
            "time": 12.428566250000001,
            "velocity": 0.3937007874015748
          },
          {
            "duration": 0.08571425000000055,
            "durationTicks": 96,
            "midi": 74,
            "name": "D5",
            "ticks": 13920,
            "time": 12.428566250000001,
            "velocity": 0.3937007874015748
          },
          {
            "duration": 0.08571424999999877,
            "durationTicks": 96,
            "midi": 69,
            "name": "A4",
            "ticks": 14016,
            "time": 12.514280500000002,
            "velocity": 0.3937007874015748
          },
          {
            "duration": 0.08571424999999877,
            "durationTicks": 96,
            "midi": 81,
            "name": "A5",
            "ticks": 14016,
            "time": 12.514280500000002,
            "velocity": 0.3937007874015748
          },
          {
            "duration": 0.08571425000000055,
            "durationTicks": 96,
            "midi": 67,
            "name": "G4",
            "ticks": 14208,
            "time": 12.685709000000001,
            "velocity": 0.3937007874015748
          },
          {
            "duration": 0.08571425000000055,
            "durationTicks": 96,
            "midi": 79,
            "name": "G5",
            "ticks": 14208,
            "time": 12.685709000000001,
            "velocity": 0.3937007874015748
          },
          {
            "duration": 0.08571424999999877,
            "durationTicks": 96,
            "midi": 81,
            "name": "A5",
            "ticks": 14304,
            "time": 12.771423250000002,
            "velocity": 0.3937007874015748
          },
          {
            "duration": 0.08571424999999877,
            "durationTicks": 96,
            "midi": 69,
            "name": "A4",
            "ticks": 14304,
            "time": 12.771423250000002,
            "velocity": 0.3937007874015748
          },
          {
            "duration": 0.08571425000000055,
            "durationTicks": 96,
            "midi": 64,
            "name": "E4",
            "ticks": 14496,
            "time": 12.94285175,
            "velocity": 0.3937007874015748
          },
          {
            "duration": 0.08571425000000055,
            "durationTicks": 96,
            "midi": 76,
            "name": "E5",
            "ticks": 14496,
            "time": 12.94285175,
            "velocity": 0.3937007874015748
          },
          {
            "duration": 0.08571425000000055,
            "durationTicks": 96,
            "midi": 65,
            "name": "F4",
            "ticks": 14688,
            "time": 13.11428025,
            "velocity": 0.3937007874015748
          },
          {
            "duration": 0.08571425000000055,
            "durationTicks": 96,
            "midi": 77,
            "name": "F5",
            "ticks": 14688,
            "time": 13.11428025,
            "velocity": 0.3937007874015748
          },
          {
            "duration": 0.08571424999999877,
            "durationTicks": 96,
            "midi": 81,
            "name": "A5",
            "ticks": 14880,
            "time": 13.285708750000001,
            "velocity": 0.3937007874015748
          },
          {
            "duration": 0.08571424999999877,
            "durationTicks": 96,
            "midi": 69,
            "name": "A4",
            "ticks": 14880,
            "time": 13.285708750000001,
            "velocity": 0.3937007874015748
          },
          {
            "duration": 0.08571425000000055,
            "durationTicks": 96,
            "midi": 60,
            "name": "C4",
            "ticks": 14976,
            "time": 13.371423,
            "velocity": 0.3937007874015748
          },
          {
            "duration": 0.08571425000000055,
            "durationTicks": 96,
            "midi": 72,
            "name": "C5",
            "ticks": 14976,
            "time": 13.371423,
            "velocity": 0.3937007874015748
          },
          {
            "duration": 0.08571425000000055,
            "durationTicks": 96,
            "midi": 61,
            "name": "C#4",
            "ticks": 15168,
            "time": 13.542851500000001,
            "velocity": 0.3937007874015748
          },
          {
            "duration": 0.08571425000000055,
            "durationTicks": 96,
            "midi": 73,
            "name": "C#5",
            "ticks": 15168,
            "time": 13.542851500000001,
            "velocity": 0.3937007874015748
          },
          {
            "duration": 0.08571425000000055,
            "durationTicks": 96,
            "midi": 62,
            "name": "D4",
            "ticks": 15360,
            "time": 13.71428,
            "velocity": 0.3937007874015748
          },
          {
            "duration": 0.08571425000000055,
            "durationTicks": 96,
            "midi": 74,
            "name": "D5",
            "ticks": 15360,
            "time": 13.71428,
            "velocity": 0.3937007874015748
          },
          {
            "duration": 0.08571424999999877,
            "durationTicks": 96,
            "midi": 81,
            "name": "A5",
            "ticks": 15552,
            "time": 13.885708500000002,
            "velocity": 0.3937007874015748
          },
          {
            "duration": 0.08571424999999877,
            "durationTicks": 96,
            "midi": 69,
            "name": "A4",
            "ticks": 15552,
            "time": 13.885708500000002,
            "velocity": 0.3937007874015748
          },
          {
            "duration": 0.08571425000000055,
            "durationTicks": 96,
            "midi": 67,
            "name": "G4",
            "ticks": 15744,
            "time": 14.057137,
            "velocity": 0.3937007874015748
          },
          {
            "duration": 0.08571425000000055,
            "durationTicks": 96,
            "midi": 79,
            "name": "G5",
            "ticks": 15744,
            "time": 14.057137,
            "velocity": 0.3937007874015748
          },
          {
            "duration": 0.08571424999999877,
            "durationTicks": 96,
            "midi": 81,
            "name": "A5",
            "ticks": 15840,
            "time": 14.142851250000001,
            "velocity": 0.3937007874015748
          },
          {
            "duration": 0.08571424999999877,
            "durationTicks": 96,
            "midi": 69,
            "name": "A4",
            "ticks": 15840,
            "time": 14.142851250000001,
            "velocity": 0.3937007874015748
          },
          {
            "duration": 0.08571425000000055,
            "durationTicks": 96,
            "midi": 76,
            "name": "E5",
            "ticks": 16032,
            "time": 14.31427975,
            "velocity": 0.3937007874015748
          },
          {
            "duration": 0.08571425000000055,
            "durationTicks": 96,
            "midi": 64,
            "name": "E4",
            "ticks": 16032,
            "time": 14.31427975,
            "velocity": 0.3937007874015748
          },
          {
            "duration": 0.08571424999999877,
            "durationTicks": 96,
            "midi": 65,
            "name": "F4",
            "ticks": 16224,
            "time": 14.485708250000002,
            "velocity": 0.3937007874015748
          },
          {
            "duration": 0.08571424999999877,
            "durationTicks": 96,
            "midi": 77,
            "name": "F5",
            "ticks": 16224,
            "time": 14.485708250000002,
            "velocity": 0.3937007874015748
          },
          {
            "duration": 0.08571425000000055,
            "durationTicks": 96,
            "midi": 69,
            "name": "A4",
            "ticks": 16416,
            "time": 14.657136750000001,
            "velocity": 0.3937007874015748
          },
          {
            "duration": 0.08571425000000055,
            "durationTicks": 96,
            "midi": 81,
            "name": "A5",
            "ticks": 16416,
            "time": 14.657136750000001,
            "velocity": 0.3937007874015748
          },
          {
            "duration": 0.08571424999999877,
            "durationTicks": 96,
            "midi": 79,
            "name": "G5",
            "ticks": 16512,
            "time": 14.742851000000002,
            "velocity": 0.3937007874015748
          },
          {
            "duration": 0.08571424999999877,
            "durationTicks": 96,
            "midi": 67,
            "name": "G4",
            "ticks": 16512,
            "time": 14.742851000000002,
            "velocity": 0.3937007874015748
          },
          {
            "duration": 0.08571425000000055,
            "durationTicks": 96,
            "midi": 65,
            "name": "F4",
            "ticks": 16608,
            "time": 14.82856525,
            "velocity": 0.3937007874015748
          },
          {
            "duration": 0.08571425000000055,
            "durationTicks": 96,
            "midi": 77,
            "name": "F5",
            "ticks": 16608,
            "time": 14.82856525,
            "velocity": 0.3937007874015748
          },
          {
            "duration": 0.08571425000000055,
            "durationTicks": 96,
            "midi": 64,
            "name": "E4",
            "ticks": 16704,
            "time": 14.914279500000001,
            "velocity": 0.3937007874015748
          },
          {
            "duration": 0.08571425000000055,
            "durationTicks": 96,
            "midi": 76,
            "name": "E5",
            "ticks": 16704,
            "time": 14.914279500000001,
            "velocity": 0.3937007874015748
          },
          {
            "duration": 0.08571424999999877,
            "durationTicks": 96,
            "midi": 62,
            "name": "D4",
            "ticks": 16800,
            "time": 14.999993750000002,
            "velocity": 0.3937007874015748
          },
          {
            "duration": 0.08571424999999877,
            "durationTicks": 96,
            "midi": 74,
            "name": "D5",
            "ticks": 16800,
            "time": 14.999993750000002,
            "velocity": 0.3937007874015748
          },
          {
            "duration": 0.08571425000000055,
            "durationTicks": 96,
            "midi": 74,
            "name": "D5",
            "ticks": 16992,
            "time": 15.17142225,
            "velocity": 0.3937007874015748
          },
          {
            "duration": 0.08571425000000055,
            "durationTicks": 96,
            "midi": 62,
            "name": "D4",
            "ticks": 16992,
            "time": 15.17142225,
            "velocity": 0.3937007874015748
          },
          {
            "duration": 0.08571424999999877,
            "durationTicks": 96,
            "midi": 69,
            "name": "A4",
            "ticks": 17088,
            "time": 15.257136500000001,
            "velocity": 0.3937007874015748
          },
          {
            "duration": 0.08571424999999877,
            "durationTicks": 96,
            "midi": 81,
            "name": "A5",
            "ticks": 17088,
            "time": 15.257136500000001,
            "velocity": 0.3937007874015748
          },
          {
            "duration": 0.08571425000000055,
            "durationTicks": 96,
            "midi": 79,
            "name": "G5",
            "ticks": 17280,
            "time": 15.428565,
            "velocity": 0.3937007874015748
          },
          {
            "duration": 0.08571425000000055,
            "durationTicks": 96,
            "midi": 67,
            "name": "G4",
            "ticks": 17280,
            "time": 15.428565,
            "velocity": 0.3937007874015748
          },
          {
            "duration": 0.08571425000000055,
            "durationTicks": 96,
            "midi": 69,
            "name": "A4",
            "ticks": 17376,
            "time": 15.514279250000001,
            "velocity": 0.3937007874015748
          },
          {
            "duration": 0.08571425000000055,
            "durationTicks": 96,
            "midi": 81,
            "name": "A5",
            "ticks": 17376,
            "time": 15.514279250000001,
            "velocity": 0.3937007874015748
          },
          {
            "duration": 0.08571425000000055,
            "durationTicks": 96,
            "midi": 64,
            "name": "E4",
            "ticks": 17568,
            "time": 15.68570775,
            "velocity": 0.3937007874015748
          },
          {
            "duration": 0.08571425000000055,
            "durationTicks": 96,
            "midi": 76,
            "name": "E5",
            "ticks": 17568,
            "time": 15.68570775,
            "velocity": 0.3937007874015748
          },
          {
            "duration": 0.08571424999999877,
            "durationTicks": 96,
            "midi": 77,
            "name": "F5",
            "ticks": 17760,
            "time": 15.857136250000002,
            "velocity": 0.3937007874015748
          },
          {
            "duration": 0.08571424999999877,
            "durationTicks": 96,
            "midi": 65,
            "name": "F4",
            "ticks": 17760,
            "time": 15.857136250000002,
            "velocity": 0.3937007874015748
          },
          {
            "duration": 0.08571424999999877,
            "durationTicks": 96,
            "midi": 81,
            "name": "A5",
            "ticks": 17952,
            "time": 16.02856475,
            "velocity": 0.3937007874015748
          },
          {
            "duration": 0.08571424999999877,
            "durationTicks": 96,
            "midi": 69,
            "name": "A4",
            "ticks": 17952,
            "time": 16.02856475,
            "velocity": 0.3937007874015748
          },
          {
            "duration": 0.08571425000000232,
            "durationTicks": 96,
            "midi": 72,
            "name": "C5",
            "ticks": 18048,
            "time": 16.114279,
            "velocity": 0.3937007874015748
          },
          {
            "duration": 0.08571425000000232,
            "durationTicks": 96,
            "midi": 60,
            "name": "C4",
            "ticks": 18048,
            "time": 16.114279,
            "velocity": 0.3937007874015748
          },
          {
            "duration": 0.08571424999999877,
            "durationTicks": 96,
            "midi": 73,
            "name": "C#5",
            "ticks": 18240,
            "time": 16.2857075,
            "velocity": 0.3937007874015748
          },
          {
            "duration": 0.08571424999999877,
            "durationTicks": 96,
            "midi": 61,
            "name": "C#4",
            "ticks": 18240,
            "time": 16.2857075,
            "velocity": 0.3937007874015748
          },
          {
            "duration": 0.08571424999999877,
            "durationTicks": 96,
            "midi": 62,
            "name": "D4",
            "ticks": 18432,
            "time": 16.457136000000002,
            "velocity": 0.3937007874015748
          },
          {
            "duration": 0.08571424999999877,
            "durationTicks": 96,
            "midi": 74,
            "name": "D5",
            "ticks": 18432,
            "time": 16.457136000000002,
            "velocity": 0.3937007874015748
          },
          {
            "duration": 0.08571425000000232,
            "durationTicks": 96,
            "midi": 81,
            "name": "A5",
            "ticks": 18624,
            "time": 16.6285645,
            "velocity": 0.3937007874015748
          },
          {
            "duration": 0.08571425000000232,
            "durationTicks": 96,
            "midi": 69,
            "name": "A4",
            "ticks": 18624,
            "time": 16.6285645,
            "velocity": 0.3937007874015748
          },
          {
            "duration": 0.08571424999999877,
            "durationTicks": 96,
            "midi": 67,
            "name": "G4",
            "ticks": 18816,
            "time": 16.799993,
            "velocity": 0.3937007874015748
          },
          {
            "duration": 0.08571424999999877,
            "durationTicks": 96,
            "midi": 79,
            "name": "G5",
            "ticks": 18816,
            "time": 16.799993,
            "velocity": 0.3937007874015748
          },
          {
            "duration": 0.08571425000000232,
            "durationTicks": 96,
            "midi": 69,
            "name": "A4",
            "ticks": 18912,
            "time": 16.88570725,
            "velocity": 0.3937007874015748
          },
          {
            "duration": 0.08571425000000232,
            "durationTicks": 96,
            "midi": 81,
            "name": "A5",
            "ticks": 18912,
            "time": 16.88570725,
            "velocity": 0.3937007874015748
          },
          {
            "duration": 0.08571425000000232,
            "durationTicks": 96,
            "midi": 76,
            "name": "E5",
            "ticks": 19104,
            "time": 17.05713575,
            "velocity": 0.3937007874015748
          },
          {
            "duration": 0.08571425000000232,
            "durationTicks": 96,
            "midi": 64,
            "name": "E4",
            "ticks": 19104,
            "time": 17.05713575,
            "velocity": 0.3937007874015748
          },
          {
            "duration": 0.08571424999999877,
            "durationTicks": 96,
            "midi": 77,
            "name": "F5",
            "ticks": 19296,
            "time": 17.22856425,
            "velocity": 0.3937007874015748
          },
          {
            "duration": 0.08571424999999877,
            "durationTicks": 96,
            "midi": 65,
            "name": "F4",
            "ticks": 19296,
            "time": 17.22856425,
            "velocity": 0.3937007874015748
          },
          {
            "duration": 0.08571424999999877,
            "durationTicks": 96,
            "midi": 81,
            "name": "A5",
            "ticks": 19488,
            "time": 17.399992750000003,
            "velocity": 0.3937007874015748
          },
          {
            "duration": 0.08571424999999877,
            "durationTicks": 96,
            "midi": 69,
            "name": "A4",
            "ticks": 19488,
            "time": 17.399992750000003,
            "velocity": 0.3937007874015748
          },
          {
            "duration": 0.08571424999999877,
            "durationTicks": 96,
            "midi": 67,
            "name": "G4",
            "ticks": 19584,
            "time": 17.485707,
            "velocity": 0.3937007874015748
          },
          {
            "duration": 0.08571424999999877,
            "durationTicks": 96,
            "midi": 79,
            "name": "G5",
            "ticks": 19584,
            "time": 17.485707,
            "velocity": 0.3937007874015748
          },
          {
            "duration": 0.08571425000000232,
            "durationTicks": 96,
            "midi": 77,
            "name": "F5",
            "ticks": 19680,
            "time": 17.57142125,
            "velocity": 0.3937007874015748
          },
          {
            "duration": 0.08571425000000232,
            "durationTicks": 96,
            "midi": 65,
            "name": "F4",
            "ticks": 19680,
            "time": 17.57142125,
            "velocity": 0.3937007874015748
          },
          {
            "duration": 0.08571424999999877,
            "durationTicks": 96,
            "midi": 76,
            "name": "E5",
            "ticks": 19776,
            "time": 17.657135500000003,
            "velocity": 0.3937007874015748
          },
          {
            "duration": 0.08571424999999877,
            "durationTicks": 96,
            "midi": 64,
            "name": "E4",
            "ticks": 19776,
            "time": 17.657135500000003,
            "velocity": 0.3937007874015748
          },
          {
            "duration": 0.08571424999999877,
            "durationTicks": 96,
            "midi": 74,
            "name": "D5",
            "ticks": 19872,
            "time": 17.74284975,
            "velocity": 0.3937007874015748
          },
          {
            "duration": 0.08571424999999877,
            "durationTicks": 96,
            "midi": 62,
            "name": "D4",
            "ticks": 19872,
            "time": 17.74284975,
            "velocity": 0.3937007874015748
          },
          {
            "duration": 0.08571424999999877,
            "durationTicks": 96,
            "midi": 62,
            "name": "D4",
            "ticks": 20064,
            "time": 17.914278250000002,
            "velocity": 0.3937007874015748
          },
          {
            "duration": 0.08571424999999877,
            "durationTicks": 96,
            "midi": 74,
            "name": "D5",
            "ticks": 20064,
            "time": 17.914278250000002,
            "velocity": 0.3937007874015748
          },
          {
            "duration": 0.08571424999999877,
            "durationTicks": 96,
            "midi": 81,
            "name": "A5",
            "ticks": 20160,
            "time": 17.9999925,
            "velocity": 0.3937007874015748
          },
          {
            "duration": 0.08571424999999877,
            "durationTicks": 96,
            "midi": 69,
            "name": "A4",
            "ticks": 20160,
            "time": 17.9999925,
            "velocity": 0.3937007874015748
          },
          {
            "duration": 0.08571424999999877,
            "durationTicks": 96,
            "midi": 67,
            "name": "G4",
            "ticks": 20352,
            "time": 18.171421000000002,
            "velocity": 0.3937007874015748
          },
          {
            "duration": 0.08571424999999877,
            "durationTicks": 96,
            "midi": 79,
            "name": "G5",
            "ticks": 20352,
            "time": 18.171421000000002,
            "velocity": 0.3937007874015748
          },
          {
            "duration": 0.08571424999999877,
            "durationTicks": 96,
            "midi": 69,
            "name": "A4",
            "ticks": 20448,
            "time": 18.25713525,
            "velocity": 0.3937007874015748
          },
          {
            "duration": 0.08571424999999877,
            "durationTicks": 96,
            "midi": 81,
            "name": "A5",
            "ticks": 20448,
            "time": 18.25713525,
            "velocity": 0.3937007874015748
          },
          {
            "duration": 0.08571424999999877,
            "durationTicks": 96,
            "midi": 76,
            "name": "E5",
            "ticks": 20640,
            "time": 18.428563750000002,
            "velocity": 0.3937007874015748
          },
          {
            "duration": 0.08571424999999877,
            "durationTicks": 96,
            "midi": 64,
            "name": "E4",
            "ticks": 20640,
            "time": 18.428563750000002,
            "velocity": 0.3937007874015748
          },
          {
            "duration": 0.08571425000000232,
            "durationTicks": 96,
            "midi": 65,
            "name": "F4",
            "ticks": 20832,
            "time": 18.59999225,
            "velocity": 0.3937007874015748
          },
          {
            "duration": 0.08571425000000232,
            "durationTicks": 96,
            "midi": 77,
            "name": "F5",
            "ticks": 20832,
            "time": 18.59999225,
            "velocity": 0.3937007874015748
          },
          {
            "duration": 0.08571424999999877,
            "durationTicks": 96,
            "midi": 69,
            "name": "A4",
            "ticks": 21024,
            "time": 18.77142075,
            "velocity": 0.3937007874015748
          },
          {
            "duration": 0.08571424999999877,
            "durationTicks": 96,
            "midi": 81,
            "name": "A5",
            "ticks": 21024,
            "time": 18.77142075,
            "velocity": 0.3937007874015748
          },
          {
            "duration": 0.08571425000000232,
            "durationTicks": 96,
            "midi": 60,
            "name": "C4",
            "ticks": 21120,
            "time": 18.857135,
            "velocity": 0.3937007874015748
          },
          {
            "duration": 0.08571425000000232,
            "durationTicks": 96,
            "midi": 72,
            "name": "C5",
            "ticks": 21120,
            "time": 18.857135,
            "velocity": 0.3937007874015748
          },
          {
            "duration": 0.08571425000000232,
            "durationTicks": 96,
            "midi": 73,
            "name": "C#5",
            "ticks": 21312,
            "time": 19.0285635,
            "velocity": 0.3937007874015748
          },
          {
            "duration": 0.08571425000000232,
            "durationTicks": 96,
            "midi": 61,
            "name": "C#4",
            "ticks": 21312,
            "time": 19.0285635,
            "velocity": 0.3937007874015748
          },
          {
            "duration": 0.08571424999999877,
            "durationTicks": 96,
            "midi": 74,
            "name": "D5",
            "ticks": 21504,
            "time": 19.199992,
            "velocity": 0.3937007874015748
          },
          {
            "duration": 0.08571424999999877,
            "durationTicks": 96,
            "midi": 62,
            "name": "D4",
            "ticks": 21504,
            "time": 19.199992,
            "velocity": 0.3937007874015748
          },
          {
            "duration": 0.08571424999999877,
            "durationTicks": 96,
            "midi": 81,
            "name": "A5",
            "ticks": 21696,
            "time": 19.371420500000003,
            "velocity": 0.3937007874015748
          },
          {
            "duration": 0.08571424999999877,
            "durationTicks": 96,
            "midi": 69,
            "name": "A4",
            "ticks": 21696,
            "time": 19.371420500000003,
            "velocity": 0.3937007874015748
          },
          {
            "duration": 0.08571425000000232,
            "durationTicks": 96,
            "midi": 79,
            "name": "G5",
            "ticks": 21888,
            "time": 19.542849,
            "velocity": 0.3937007874015748
          },
          {
            "duration": 0.08571425000000232,
            "durationTicks": 96,
            "midi": 67,
            "name": "G4",
            "ticks": 21888,
            "time": 19.542849,
            "velocity": 0.3937007874015748
          },
          {
            "duration": 0.08571424999999877,
            "durationTicks": 96,
            "midi": 69,
            "name": "A4",
            "ticks": 21984,
            "time": 19.628563250000003,
            "velocity": 0.3937007874015748
          },
          {
            "duration": 0.08571424999999877,
            "durationTicks": 96,
            "midi": 81,
            "name": "A5",
            "ticks": 21984,
            "time": 19.628563250000003,
            "velocity": 0.3937007874015748
          },
          {
            "duration": 0.08571425000000232,
            "durationTicks": 96,
            "midi": 76,
            "name": "E5",
            "ticks": 22176,
            "time": 19.79999175,
            "velocity": 0.3937007874015748
          },
          {
            "duration": 0.08571425000000232,
            "durationTicks": 96,
            "midi": 64,
            "name": "E4",
            "ticks": 22176,
            "time": 19.79999175,
            "velocity": 0.3937007874015748
          },
          {
            "duration": 0.08571424999999877,
            "durationTicks": 96,
            "midi": 65,
            "name": "F4",
            "ticks": 22368,
            "time": 19.97142025,
            "velocity": 0.3937007874015748
          },
          {
            "duration": 0.08571424999999877,
            "durationTicks": 96,
            "midi": 77,
            "name": "F5",
            "ticks": 22368,
            "time": 19.97142025,
            "velocity": 0.3937007874015748
          },
          {
            "duration": 0.08571424999999877,
            "durationTicks": 96,
            "midi": 69,
            "name": "A4",
            "ticks": 22560,
            "time": 20.142848750000002,
            "velocity": 0.3937007874015748
          },
          {
            "duration": 0.08571424999999877,
            "durationTicks": 96,
            "midi": 81,
            "name": "A5",
            "ticks": 22560,
            "time": 20.142848750000002,
            "velocity": 0.3937007874015748
          },
          {
            "duration": 0.08571424999999877,
            "durationTicks": 96,
            "midi": 67,
            "name": "G4",
            "ticks": 22656,
            "time": 20.228563,
            "velocity": 0.3937007874015748
          },
          {
            "duration": 0.08571424999999877,
            "durationTicks": 96,
            "midi": 79,
            "name": "G5",
            "ticks": 22656,
            "time": 20.228563,
            "velocity": 0.3937007874015748
          },
          {
            "duration": 0.08571425000000232,
            "durationTicks": 96,
            "midi": 77,
            "name": "F5",
            "ticks": 22752,
            "time": 20.31427725,
            "velocity": 0.3937007874015748
          },
          {
            "duration": 0.08571425000000232,
            "durationTicks": 96,
            "midi": 65,
            "name": "F4",
            "ticks": 22752,
            "time": 20.31427725,
            "velocity": 0.3937007874015748
          },
          {
            "duration": 0.08571424999999877,
            "durationTicks": 96,
            "midi": 64,
            "name": "E4",
            "ticks": 22848,
            "time": 20.399991500000002,
            "velocity": 0.3937007874015748
          },
          {
            "duration": 0.08571424999999877,
            "durationTicks": 96,
            "midi": 76,
            "name": "E5",
            "ticks": 22848,
            "time": 20.399991500000002,
            "velocity": 0.3937007874015748
          },
          {
            "duration": 0.08571424999999877,
            "durationTicks": 96,
            "midi": 62,
            "name": "D4",
            "ticks": 22944,
            "time": 20.48570575,
            "velocity": 0.3937007874015748
          },
          {
            "duration": 0.08571424999999877,
            "durationTicks": 96,
            "midi": 74,
            "name": "D5",
            "ticks": 22944,
            "time": 20.48570575,
            "velocity": 0.3937007874015748
          },
          {
            "duration": 0.08571424999999877,
            "durationTicks": 96,
            "midi": 74,
            "name": "D5",
            "ticks": 23136,
            "time": 20.657134250000002,
            "velocity": 0.3937007874015748
          },
          {
            "duration": 0.08571424999999877,
            "durationTicks": 96,
            "midi": 62,
            "name": "D4",
            "ticks": 23136,
            "time": 20.657134250000002,
            "velocity": 0.3937007874015748
          },
          {
            "duration": 0.08571424999999877,
            "durationTicks": 96,
            "midi": 81,
            "name": "A5",
            "ticks": 23232,
            "time": 20.7428485,
            "velocity": 0.3937007874015748
          },
          {
            "duration": 0.08571424999999877,
            "durationTicks": 96,
            "midi": 69,
            "name": "A4",
            "ticks": 23232,
            "time": 20.7428485,
            "velocity": 0.3937007874015748
          },
          {
            "duration": 0.08571424999999877,
            "durationTicks": 96,
            "midi": 67,
            "name": "G4",
            "ticks": 23424,
            "time": 20.914277000000002,
            "velocity": 0.3937007874015748
          },
          {
            "duration": 0.08571424999999877,
            "durationTicks": 96,
            "midi": 79,
            "name": "G5",
            "ticks": 23424,
            "time": 20.914277000000002,
            "velocity": 0.3937007874015748
          },
          {
            "duration": 0.08571425000000232,
            "durationTicks": 96,
            "midi": 81,
            "name": "A5",
            "ticks": 23520,
            "time": 20.99999125,
            "velocity": 0.3937007874015748
          },
          {
            "duration": 0.08571425000000232,
            "durationTicks": 96,
            "midi": 69,
            "name": "A4",
            "ticks": 23520,
            "time": 20.99999125,
            "velocity": 0.3937007874015748
          },
          {
            "duration": 0.08571424999999877,
            "durationTicks": 96,
            "midi": 84,
            "name": "C6",
            "ticks": 23712,
            "time": 21.171419750000002,
            "velocity": 0.3937007874015748
          },
          {
            "duration": 0.08571424999999877,
            "durationTicks": 96,
            "midi": 72,
            "name": "C5",
            "ticks": 23712,
            "time": 21.171419750000002,
            "velocity": 0.3937007874015748
          },
          {
            "duration": 0.08571424999999877,
            "durationTicks": 96,
            "midi": 84,
            "name": "C6",
            "ticks": 23904,
            "time": 21.342848250000003,
            "velocity": 0.3937007874015748
          },
          {
            "duration": 0.08571424999999877,
            "durationTicks": 96,
            "midi": 72,
            "name": "C5",
            "ticks": 23904,
            "time": 21.342848250000003,
            "velocity": 0.3937007874015748
          },
          {
            "duration": 0.08571424999999877,
            "durationTicks": 96,
            "midi": 69,
            "name": "A4",
            "ticks": 24000,
            "time": 21.4285625,
            "velocity": 0.3937007874015748
          },
          {
            "duration": 0.08571424999999877,
            "durationTicks": 96,
            "midi": 81,
            "name": "A5",
            "ticks": 24000,
            "time": 21.4285625,
            "velocity": 0.3937007874015748
          },
          {
            "duration": 0.08571424999999877,
            "durationTicks": 96,
            "midi": 77,
            "name": "F5",
            "ticks": 24192,
            "time": 21.599991000000003,
            "velocity": 0.3937007874015748
          },
          {
            "duration": 0.08571424999999877,
            "durationTicks": 96,
            "midi": 89,
            "name": "F6",
            "ticks": 24192,
            "time": 21.599991000000003,
            "velocity": 0.3937007874015748
          },
          {
            "duration": 0.08571424999999877,
            "durationTicks": 96,
            "midi": 88,
            "name": "E6",
            "ticks": 24288,
            "time": 21.68570525,
            "velocity": 0.3937007874015748
          },
          {
            "duration": 0.08571424999999877,
            "durationTicks": 96,
            "midi": 76,
            "name": "E5",
            "ticks": 24288,
            "time": 21.68570525,
            "velocity": 0.3937007874015748
          },
          {
            "duration": 0.08571425000000232,
            "durationTicks": 96,
            "midi": 74,
            "name": "D5",
            "ticks": 24384,
            "time": 21.7714195,
            "velocity": 0.3937007874015748
          },
          {
            "duration": 0.08571425000000232,
            "durationTicks": 96,
            "midi": 86,
            "name": "D6",
            "ticks": 24384,
            "time": 21.7714195,
            "velocity": 0.3937007874015748
          },
          {
            "duration": 0.08571424999999877,
            "durationTicks": 96,
            "midi": 72,
            "name": "C5",
            "ticks": 24480,
            "time": 21.857133750000003,
            "velocity": 0.3937007874015748
          },
          {
            "duration": 0.08571424999999877,
            "durationTicks": 96,
            "midi": 84,
            "name": "C6",
            "ticks": 24480,
            "time": 21.857133750000003,
            "velocity": 0.3937007874015748
          },
          {
            "duration": 0.08571424999999877,
            "durationTicks": 96,
            "midi": 57,
            "name": "A3",
            "ticks": 24576,
            "time": 21.942848,
            "velocity": 0.3937007874015748
          },
          {
            "duration": 0.08571424999999877,
            "durationTicks": 96,
            "midi": 69,
            "name": "A4",
            "ticks": 24576,
            "time": 21.942848,
            "velocity": 0.3937007874015748
          },
          {
            "duration": 0.08571424999999877,
            "durationTicks": 96,
            "midi": 65,
            "name": "F4",
            "ticks": 24768,
            "time": 22.114276500000003,
            "velocity": 0.3937007874015748
          },
          {
            "duration": 0.08571424999999877,
            "durationTicks": 96,
            "midi": 77,
            "name": "F5",
            "ticks": 24768,
            "time": 22.114276500000003,
            "velocity": 0.3937007874015748
          },
          {
            "duration": 0.08571425000000232,
            "durationTicks": 96,
            "midi": 76,
            "name": "E5",
            "ticks": 24960,
            "time": 22.285705,
            "velocity": 0.3937007874015748
          },
          {
            "duration": 0.08571425000000232,
            "durationTicks": 96,
            "midi": 64,
            "name": "E4",
            "ticks": 24960,
            "time": 22.285705,
            "velocity": 0.3937007874015748
          },
          {
            "duration": 0.08571424999999877,
            "durationTicks": 96,
            "midi": 65,
            "name": "F4",
            "ticks": 25056,
            "time": 22.371419250000002,
            "velocity": 0.3937007874015748
          },
          {
            "duration": 0.08571424999999877,
            "durationTicks": 96,
            "midi": 77,
            "name": "F5",
            "ticks": 25056,
            "time": 22.371419250000002,
            "velocity": 0.3937007874015748
          },
          {
            "duration": 0.08571424999999877,
            "durationTicks": 96,
            "midi": 76,
            "name": "E5",
            "ticks": 25152,
            "time": 22.4571335,
            "velocity": 0.3937007874015748
          },
          {
            "duration": 0.08571424999999877,
            "durationTicks": 96,
            "midi": 64,
            "name": "E4",
            "ticks": 25152,
            "time": 22.4571335,
            "velocity": 0.3937007874015748
          },
          {
            "duration": 0.08571424999999877,
            "durationTicks": 96,
            "midi": 67,
            "name": "G4",
            "ticks": 25344,
            "time": 22.628562000000002,
            "velocity": 0.3937007874015748
          },
          {
            "duration": 0.08571424999999877,
            "durationTicks": 96,
            "midi": 79,
            "name": "G5",
            "ticks": 25344,
            "time": 22.628562000000002,
            "velocity": 0.3937007874015748
          },
          {
            "duration": 0.08571425000000232,
            "durationTicks": 96,
            "midi": 65,
            "name": "F4",
            "ticks": 25536,
            "time": 22.7999905,
            "velocity": 0.3937007874015748
          },
          {
            "duration": 0.08571425000000232,
            "durationTicks": 96,
            "midi": 77,
            "name": "F5",
            "ticks": 25536,
            "time": 22.7999905,
            "velocity": 0.3937007874015748
          },
          {
            "duration": 0.08571425000000232,
            "durationTicks": 96,
            "midi": 76,
            "name": "E5",
            "ticks": 25728,
            "time": 22.971419,
            "velocity": 0.3937007874015748
          },
          {
            "duration": 0.08571425000000232,
            "durationTicks": 96,
            "midi": 64,
            "name": "E4",
            "ticks": 25728,
            "time": 22.971419,
            "velocity": 0.3937007874015748
          },
          {
            "duration": 0.08571424999999877,
            "durationTicks": 96,
            "midi": 65,
            "name": "F4",
            "ticks": 25824,
            "time": 23.057133250000003,
            "velocity": 0.3937007874015748
          },
          {
            "duration": 0.08571424999999877,
            "durationTicks": 96,
            "midi": 77,
            "name": "F5",
            "ticks": 25824,
            "time": 23.057133250000003,
            "velocity": 0.3937007874015748
          },
          {
            "duration": 0.08571424999999877,
            "durationTicks": 96,
            "midi": 76,
            "name": "E5",
            "ticks": 25920,
            "time": 23.142847500000002,
            "velocity": 0.3937007874015748
          },
          {
            "duration": 0.08571424999999877,
            "durationTicks": 96,
            "midi": 64,
            "name": "E4",
            "ticks": 25920,
            "time": 23.142847500000002,
            "velocity": 0.3937007874015748
          },
          {
            "duration": 0.08571425000000232,
            "durationTicks": 96,
            "midi": 60,
            "name": "C4",
            "ticks": 26016,
            "time": 23.22856175,
            "velocity": 0.3937007874015748
          },
          {
            "duration": 0.08571425000000232,
            "durationTicks": 96,
            "midi": 72,
            "name": "C5",
            "ticks": 26016,
            "time": 23.22856175,
            "velocity": 0.3937007874015748
          },
          {
            "duration": 0.08571424999999877,
            "durationTicks": 96,
            "midi": 62,
            "name": "D4",
            "ticks": 26112,
            "time": 23.314276000000003,
            "velocity": 0.3937007874015748
          },
          {
            "duration": 0.08571424999999877,
            "durationTicks": 96,
            "midi": 74,
            "name": "D5",
            "ticks": 26112,
            "time": 23.314276000000003,
            "velocity": 0.3937007874015748
          },
          {
            "duration": 0.08571425000000232,
            "durationTicks": 96,
            "midi": 81,
            "name": "A5",
            "ticks": 26304,
            "time": 23.4857045,
            "velocity": 0.3937007874015748
          },
          {
            "duration": 0.08571425000000232,
            "durationTicks": 96,
            "midi": 69,
            "name": "A4",
            "ticks": 26304,
            "time": 23.4857045,
            "velocity": 0.3937007874015748
          },
          {
            "duration": 0.08571424999999877,
            "durationTicks": 96,
            "midi": 67,
            "name": "G4",
            "ticks": 26496,
            "time": 23.657133,
            "velocity": 0.3937007874015748
          },
          {
            "duration": 0.08571424999999877,
            "durationTicks": 96,
            "midi": 79,
            "name": "G5",
            "ticks": 26496,
            "time": 23.657133,
            "velocity": 0.3937007874015748
          },
          {
            "duration": 0.08571425000000232,
            "durationTicks": 96,
            "midi": 69,
            "name": "A4",
            "ticks": 26592,
            "time": 23.74284725,
            "velocity": 0.3937007874015748
          },
          {
            "duration": 0.08571425000000232,
            "durationTicks": 96,
            "midi": 81,
            "name": "A5",
            "ticks": 26592,
            "time": 23.74284725,
            "velocity": 0.3937007874015748
          },
          {
            "duration": 0.08571424999999877,
            "durationTicks": 96,
            "midi": 67,
            "name": "G4",
            "ticks": 26688,
            "time": 23.828561500000003,
            "velocity": 0.3937007874015748
          },
          {
            "duration": 0.08571424999999877,
            "durationTicks": 96,
            "midi": 79,
            "name": "G5",
            "ticks": 26688,
            "time": 23.828561500000003,
            "velocity": 0.3937007874015748
          },
          {
            "duration": 0.08571424999999877,
            "durationTicks": 96,
            "midi": 81,
            "name": "A5",
            "ticks": 26784,
            "time": 23.91427575,
            "velocity": 0.3937007874015748
          },
          {
            "duration": 0.08571424999999877,
            "durationTicks": 96,
            "midi": 69,
            "name": "A4",
            "ticks": 26784,
            "time": 23.91427575,
            "velocity": 0.3937007874015748
          },
          {
            "duration": 0.08571425000000232,
            "durationTicks": 96,
            "midi": 84,
            "name": "C6",
            "ticks": 26880,
            "time": 23.99999,
            "velocity": 0.3937007874015748
          },
          {
            "duration": 0.08571425000000232,
            "durationTicks": 96,
            "midi": 72,
            "name": "C5",
            "ticks": 26880,
            "time": 23.99999,
            "velocity": 0.3937007874015748
          },
          {
            "duration": 0.08571424999999877,
            "durationTicks": 96,
            "midi": 81,
            "name": "A5",
            "ticks": 27072,
            "time": 24.1714185,
            "velocity": 0.3937007874015748
          },
          {
            "duration": 0.08571424999999877,
            "durationTicks": 96,
            "midi": 69,
            "name": "A4",
            "ticks": 27072,
            "time": 24.1714185,
            "velocity": 0.3937007874015748
          },
          {
            "duration": 0.08571424999999877,
            "durationTicks": 96,
            "midi": 67,
            "name": "G4",
            "ticks": 27264,
            "time": 24.342847000000003,
            "velocity": 0.3937007874015748
          },
          {
            "duration": 0.08571424999999877,
            "durationTicks": 96,
            "midi": 79,
            "name": "G5",
            "ticks": 27264,
            "time": 24.342847000000003,
            "velocity": 0.3937007874015748
          },
          {
            "duration": 0.08571425000000232,
            "durationTicks": 96,
            "midi": 81,
            "name": "A5",
            "ticks": 27456,
            "time": 24.5142755,
            "velocity": 0.3937007874015748
          },
          {
            "duration": 0.08571425000000232,
            "durationTicks": 96,
            "midi": 69,
            "name": "A4",
            "ticks": 27456,
            "time": 24.5142755,
            "velocity": 0.3937007874015748
          },
          {
            "duration": 0.08571424999999877,
            "durationTicks": 96,
            "midi": 58,
            "name": "A#3",
            "ticks": 27648,
            "time": 24.685704,
            "velocity": 0.3937007874015748
          },
          {
            "duration": 0.08571424999999877,
            "durationTicks": 96,
            "midi": 70,
            "name": "A#4",
            "ticks": 27648,
            "time": 24.685704,
            "velocity": 0.3937007874015748
          },
          {
            "duration": 0.08571424999999877,
            "durationTicks": 96,
            "midi": 65,
            "name": "F4",
            "ticks": 27840,
            "time": 24.857132500000002,
            "velocity": 0.3937007874015748
          },
          {
            "duration": 0.08571424999999877,
            "durationTicks": 96,
            "midi": 77,
            "name": "F5",
            "ticks": 27840,
            "time": 24.857132500000002,
            "velocity": 0.3937007874015748
          },
          {
            "duration": 0.08571424999999877,
            "durationTicks": 96,
            "midi": 76,
            "name": "E5",
            "ticks": 28032,
            "time": 25.028561000000003,
            "velocity": 0.3937007874015748
          },
          {
            "duration": 0.08571424999999877,
            "durationTicks": 96,
            "midi": 64,
            "name": "E4",
            "ticks": 28032,
            "time": 25.028561000000003,
            "velocity": 0.3937007874015748
          },
          {
            "duration": 0.08571424999999877,
            "durationTicks": 96,
            "midi": 65,
            "name": "F4",
            "ticks": 28128,
            "time": 25.114275250000002,
            "velocity": 0.3937007874015748
          },
          {
            "duration": 0.08571424999999877,
            "durationTicks": 96,
            "midi": 77,
            "name": "F5",
            "ticks": 28128,
            "time": 25.114275250000002,
            "velocity": 0.3937007874015748
          },
          {
            "duration": 0.08571425000000232,
            "durationTicks": 96,
            "midi": 76,
            "name": "E5",
            "ticks": 28224,
            "time": 25.1999895,
            "velocity": 0.3937007874015748
          },
          {
            "duration": 0.08571425000000232,
            "durationTicks": 96,
            "midi": 64,
            "name": "E4",
            "ticks": 28224,
            "time": 25.1999895,
            "velocity": 0.3937007874015748
          },
          {
            "duration": 0.08571424999999877,
            "durationTicks": 96,
            "midi": 67,
            "name": "G4",
            "ticks": 28416,
            "time": 25.371418000000002,
            "velocity": 0.3937007874015748
          },
          {
            "duration": 0.08571424999999877,
            "durationTicks": 96,
            "midi": 79,
            "name": "G5",
            "ticks": 28416,
            "time": 25.371418000000002,
            "velocity": 0.3937007874015748
          },
          {
            "duration": 0.08571424999999877,
            "durationTicks": 96,
            "midi": 77,
            "name": "F5",
            "ticks": 28608,
            "time": 25.542846500000003,
            "velocity": 0.3937007874015748
          },
          {
            "duration": 0.08571424999999877,
            "durationTicks": 96,
            "midi": 65,
            "name": "F4",
            "ticks": 28608,
            "time": 25.542846500000003,
            "velocity": 0.3937007874015748
          },
          {
            "duration": 0.08571425000000232,
            "durationTicks": 96,
            "midi": 64,
            "name": "E4",
            "ticks": 28800,
            "time": 25.714275,
            "velocity": 0.3937007874015748
          },
          {
            "duration": 0.08571425000000232,
            "durationTicks": 96,
            "midi": 76,
            "name": "E5",
            "ticks": 28800,
            "time": 25.714275,
            "velocity": 0.3937007874015748
          },
          {
            "duration": 0.08571424999999877,
            "durationTicks": 96,
            "midi": 65,
            "name": "F4",
            "ticks": 28896,
            "time": 25.799989250000003,
            "velocity": 0.3937007874015748
          },
          {
            "duration": 0.08571424999999877,
            "durationTicks": 96,
            "midi": 77,
            "name": "F5",
            "ticks": 28896,
            "time": 25.799989250000003,
            "velocity": 0.3937007874015748
          },
          {
            "duration": 0.08571424999999877,
            "durationTicks": 96,
            "midi": 76,
            "name": "E5",
            "ticks": 28992,
            "time": 25.8857035,
            "velocity": 0.3937007874015748
          },
          {
            "duration": 0.08571424999999877,
            "durationTicks": 96,
            "midi": 64,
            "name": "E4",
            "ticks": 28992,
            "time": 25.8857035,
            "velocity": 0.3937007874015748
          },
          {
            "duration": 0.08571425000000232,
            "durationTicks": 96,
            "midi": 72,
            "name": "C5",
            "ticks": 29088,
            "time": 25.97141775,
            "velocity": 0.3937007874015748
          },
          {
            "duration": 0.08571425000000232,
            "durationTicks": 96,
            "midi": 60,
            "name": "C4",
            "ticks": 29088,
            "time": 25.97141775,
            "velocity": 0.3937007874015748
          },
          {
            "duration": 0.08571424999999877,
            "durationTicks": 96,
            "midi": 62,
            "name": "D4",
            "ticks": 29184,
            "time": 26.057132000000003,
            "velocity": 0.3937007874015748
          },
          {
            "duration": 0.08571424999999877,
            "durationTicks": 96,
            "midi": 74,
            "name": "D5",
            "ticks": 29184,
            "time": 26.057132000000003,
            "velocity": 0.3937007874015748
          },
          {
            "duration": 0.08571425000000232,
            "durationTicks": 96,
            "midi": 81,
            "name": "A5",
            "ticks": 29376,
            "time": 26.2285605,
            "velocity": 0.3937007874015748
          },
          {
            "duration": 0.08571425000000232,
            "durationTicks": 96,
            "midi": 69,
            "name": "A4",
            "ticks": 29376,
            "time": 26.2285605,
            "velocity": 0.3937007874015748
          },
          {
            "duration": 0.08571424999999877,
            "durationTicks": 96,
            "midi": 67,
            "name": "G4",
            "ticks": 29568,
            "time": 26.399989,
            "velocity": 0.3937007874015748
          },
          {
            "duration": 0.08571424999999877,
            "durationTicks": 96,
            "midi": 79,
            "name": "G5",
            "ticks": 29568,
            "time": 26.399989,
            "velocity": 0.3937007874015748
          },
          {
            "duration": 0.08571425000000232,
            "durationTicks": 96,
            "midi": 81,
            "name": "A5",
            "ticks": 29664,
            "time": 26.48570325,
            "velocity": 0.3937007874015748
          },
          {
            "duration": 0.08571425000000232,
            "durationTicks": 96,
            "midi": 69,
            "name": "A4",
            "ticks": 29664,
            "time": 26.48570325,
            "velocity": 0.3937007874015748
          },
          {
            "duration": 0.08571424999999877,
            "durationTicks": 96,
            "midi": 67,
            "name": "G4",
            "ticks": 29760,
            "time": 26.571417500000003,
            "velocity": 0.3937007874015748
          },
          {
            "duration": 0.08571424999999877,
            "durationTicks": 96,
            "midi": 79,
            "name": "G5",
            "ticks": 29760,
            "time": 26.571417500000003,
            "velocity": 0.3937007874015748
          },
          {
            "duration": 0.08571424999999877,
            "durationTicks": 96,
            "midi": 81,
            "name": "A5",
            "ticks": 29856,
            "time": 26.65713175,
            "velocity": 0.3937007874015748
          },
          {
            "duration": 0.08571424999999877,
            "durationTicks": 96,
            "midi": 69,
            "name": "A4",
            "ticks": 29856,
            "time": 26.65713175,
            "velocity": 0.3937007874015748
          },
          {
            "duration": 0.08571425000000232,
            "durationTicks": 96,
            "midi": 85,
            "name": "C#6",
            "ticks": 29952,
            "time": 26.742846,
            "velocity": 0.3937007874015748
          },
          {
            "duration": 0.08571425000000232,
            "durationTicks": 96,
            "midi": 73,
            "name": "C#5",
            "ticks": 29952,
            "time": 26.742846,
            "velocity": 0.3937007874015748
          },
          {
            "duration": 0.08571425000000232,
            "durationTicks": 96,
            "midi": 81,
            "name": "A5",
            "ticks": 30144,
            "time": 26.9142745,
            "velocity": 0.3937007874015748
          },
          {
            "duration": 0.08571425000000232,
            "durationTicks": 96,
            "midi": 69,
            "name": "A4",
            "ticks": 30144,
            "time": 26.9142745,
            "velocity": 0.3937007874015748
          },
          {
            "duration": 0.08571424999999877,
            "durationTicks": 96,
            "midi": 79,
            "name": "G5",
            "ticks": 30336,
            "time": 27.085703000000002,
            "velocity": 0.3937007874015748
          },
          {
            "duration": 0.08571424999999877,
            "durationTicks": 96,
            "midi": 67,
            "name": "G4",
            "ticks": 30336,
            "time": 27.085703000000002,
            "velocity": 0.3937007874015748
          },
          {
            "duration": 0.08571424999999877,
            "durationTicks": 96,
            "midi": 81,
            "name": "A5",
            "ticks": 30528,
            "time": 27.257131500000003,
            "velocity": 0.3937007874015748
          },
          {
            "duration": 0.08571424999999877,
            "durationTicks": 96,
            "midi": 69,
            "name": "A4",
            "ticks": 30528,
            "time": 27.257131500000003,
            "velocity": 0.3937007874015748
          },
          {
            "duration": 0.08571425000000232,
            "durationTicks": 96,
            "midi": 69,
            "name": "A4",
            "ticks": 30720,
            "time": 27.42856,
            "velocity": 0.3937007874015748
          },
          {
            "duration": 0.08571425000000232,
            "durationTicks": 96,
            "midi": 57,
            "name": "A3",
            "ticks": 30720,
            "time": 27.42856,
            "velocity": 0.3937007874015748
          },
          {
            "duration": 0.08571424999999877,
            "durationTicks": 96,
            "midi": 77,
            "name": "F5",
            "ticks": 30912,
            "time": 27.599988500000002,
            "velocity": 0.3937007874015748
          },
          {
            "duration": 0.08571424999999877,
            "durationTicks": 96,
            "midi": 65,
            "name": "F4",
            "ticks": 30912,
            "time": 27.599988500000002,
            "velocity": 0.3937007874015748
          },
          {
            "duration": 0.08571424999999877,
            "durationTicks": 96,
            "midi": 64,
            "name": "E4",
            "ticks": 31104,
            "time": 27.771417000000003,
            "velocity": 0.3937007874015748
          },
          {
            "duration": 0.08571424999999877,
            "durationTicks": 96,
            "midi": 76,
            "name": "E5",
            "ticks": 31104,
            "time": 27.771417000000003,
            "velocity": 0.3937007874015748
          },
          {
            "duration": 0.08571424999999877,
            "durationTicks": 96,
            "midi": 77,
            "name": "F5",
            "ticks": 31200,
            "time": 27.857131250000002,
            "velocity": 0.3937007874015748
          },
          {
            "duration": 0.08571424999999877,
            "durationTicks": 96,
            "midi": 65,
            "name": "F4",
            "ticks": 31200,
            "time": 27.857131250000002,
            "velocity": 0.3937007874015748
          },
          {
            "duration": 0.08571425000000232,
            "durationTicks": 96,
            "midi": 76,
            "name": "E5",
            "ticks": 31296,
            "time": 27.9428455,
            "velocity": 0.3937007874015748
          },
          {
            "duration": 0.08571425000000232,
            "durationTicks": 96,
            "midi": 64,
            "name": "E4",
            "ticks": 31296,
            "time": 27.9428455,
            "velocity": 0.3937007874015748
          },
          {
            "duration": 0.08571424999999877,
            "durationTicks": 96,
            "midi": 79,
            "name": "G5",
            "ticks": 31488,
            "time": 28.114274,
            "velocity": 0.3937007874015748
          },
          {
            "duration": 0.08571424999999877,
            "durationTicks": 96,
            "midi": 67,
            "name": "G4",
            "ticks": 31488,
            "time": 28.114274,
            "velocity": 0.3937007874015748
          },
          {
            "duration": 0.08571424999999877,
            "durationTicks": 96,
            "midi": 65,
            "name": "F4",
            "ticks": 31680,
            "time": 28.285702500000003,
            "velocity": 0.3937007874015748
          },
          {
            "duration": 0.08571424999999877,
            "durationTicks": 96,
            "midi": 77,
            "name": "F5",
            "ticks": 31680,
            "time": 28.285702500000003,
            "velocity": 0.3937007874015748
          },
          {
            "duration": 0.08571425000000232,
            "durationTicks": 96,
            "midi": 64,
            "name": "E4",
            "ticks": 31872,
            "time": 28.457131,
            "velocity": 0.3937007874015748
          },
          {
            "duration": 0.08571425000000232,
            "durationTicks": 96,
            "midi": 76,
            "name": "E5",
            "ticks": 31872,
            "time": 28.457131,
            "velocity": 0.3937007874015748
          },
          {
            "duration": 0.08571424999999877,
            "durationTicks": 96,
            "midi": 77,
            "name": "F5",
            "ticks": 31968,
            "time": 28.542845250000003,
            "velocity": 0.3937007874015748
          },
          {
            "duration": 0.08571424999999877,
            "durationTicks": 96,
            "midi": 65,
            "name": "F4",
            "ticks": 31968,
            "time": 28.542845250000003,
            "velocity": 0.3937007874015748
          },
          {
            "duration": 0.08571424999999877,
            "durationTicks": 96,
            "midi": 64,
            "name": "E4",
            "ticks": 32064,
            "time": 28.6285595,
            "velocity": 0.3937007874015748
          },
          {
            "duration": 0.08571424999999877,
            "durationTicks": 96,
            "midi": 76,
            "name": "E5",
            "ticks": 32064,
            "time": 28.6285595,
            "velocity": 0.3937007874015748
          },
          {
            "duration": 0.08571425000000232,
            "durationTicks": 96,
            "midi": 72,
            "name": "C5",
            "ticks": 32160,
            "time": 28.71427375,
            "velocity": 0.3937007874015748
          },
          {
            "duration": 0.08571425000000232,
            "durationTicks": 96,
            "midi": 60,
            "name": "C4",
            "ticks": 32160,
            "time": 28.71427375,
            "velocity": 0.3937007874015748
          },
          {
            "duration": 0.08571424999999877,
            "durationTicks": 96,
            "midi": 74,
            "name": "D5",
            "ticks": 32256,
            "time": 28.799988000000003,
            "velocity": 0.3937007874015748
          },
          {
            "duration": 0.08571424999999877,
            "durationTicks": 96,
            "midi": 62,
            "name": "D4",
            "ticks": 32256,
            "time": 28.799988000000003,
            "velocity": 0.3937007874015748
          },
          {
            "duration": 0.08571424999999877,
            "durationTicks": 96,
            "midi": 69,
            "name": "A4",
            "ticks": 32448,
            "time": 28.971416500000004,
            "velocity": 0.3937007874015748
          },
          {
            "duration": 0.08571424999999877,
            "durationTicks": 96,
            "midi": 81,
            "name": "A5",
            "ticks": 32448,
            "time": 28.971416500000004,
            "velocity": 0.3937007874015748
          },
          {
            "duration": 0.08571425000000232,
            "durationTicks": 96,
            "midi": 67,
            "name": "G4",
            "ticks": 32640,
            "time": 29.142845,
            "velocity": 0.3937007874015748
          },
          {
            "duration": 0.08571425000000232,
            "durationTicks": 96,
            "midi": 79,
            "name": "G5",
            "ticks": 32640,
            "time": 29.142845,
            "velocity": 0.3937007874015748
          },
          {
            "duration": 0.08571424999999877,
            "durationTicks": 96,
            "midi": 81,
            "name": "A5",
            "ticks": 32736,
            "time": 29.228559250000004,
            "velocity": 0.3937007874015748
          },
          {
            "duration": 0.08571424999999877,
            "durationTicks": 96,
            "midi": 69,
            "name": "A4",
            "ticks": 32736,
            "time": 29.228559250000004,
            "velocity": 0.3937007874015748
          },
          {
            "duration": 0.08571424999999877,
            "durationTicks": 96,
            "midi": 67,
            "name": "G4",
            "ticks": 32832,
            "time": 29.314273500000002,
            "velocity": 0.3937007874015748
          },
          {
            "duration": 0.08571424999999877,
            "durationTicks": 96,
            "midi": 79,
            "name": "G5",
            "ticks": 32832,
            "time": 29.314273500000002,
            "velocity": 0.3937007874015748
          },
          {
            "duration": 0.08571425000000232,
            "durationTicks": 96,
            "midi": 69,
            "name": "A4",
            "ticks": 32928,
            "time": 29.39998775,
            "velocity": 0.3937007874015748
          },
          {
            "duration": 0.08571425000000232,
            "durationTicks": 96,
            "midi": 81,
            "name": "A5",
            "ticks": 32928,
            "time": 29.39998775,
            "velocity": 0.3937007874015748
          },
          {
            "duration": 0.08571424999999877,
            "durationTicks": 96,
            "midi": 84,
            "name": "C6",
            "ticks": 33024,
            "time": 29.485702000000003,
            "velocity": 0.3937007874015748
          },
          {
            "duration": 0.08571424999999877,
            "durationTicks": 96,
            "midi": 72,
            "name": "C5",
            "ticks": 33024,
            "time": 29.485702000000003,
            "velocity": 0.3937007874015748
          },
          {
            "duration": 0.08571425000000232,
            "durationTicks": 96,
            "midi": 81,
            "name": "A5",
            "ticks": 33216,
            "time": 29.6571305,
            "velocity": 0.3937007874015748
          },
          {
            "duration": 0.08571425000000232,
            "durationTicks": 96,
            "midi": 69,
            "name": "A4",
            "ticks": 33216,
            "time": 29.6571305,
            "velocity": 0.3937007874015748
          },
          {
            "duration": 0.08571424999999877,
            "durationTicks": 96,
            "midi": 84,
            "name": "C6",
            "ticks": 33312,
            "time": 29.742844750000003,
            "velocity": 0.3937007874015748
          },
          {
            "duration": 0.08571424999999877,
            "durationTicks": 96,
            "midi": 72,
            "name": "C5",
            "ticks": 33312,
            "time": 29.742844750000003,
            "velocity": 0.3937007874015748
          },
          {
            "duration": 0.08571424999999877,
            "durationTicks": 96,
            "midi": 64,
            "name": "E4",
            "ticks": 33408,
            "time": 29.828559000000002,
            "velocity": 0.3937007874015748
          },
          {
            "duration": 0.08571424999999877,
            "durationTicks": 96,
            "midi": 76,
            "name": "E5",
            "ticks": 33408,
            "time": 29.828559000000002,
            "velocity": 0.3937007874015748
          },
          {
            "duration": 0.08571424999999877,
            "durationTicks": 96,
            "midi": 65,
            "name": "F4",
            "ticks": 33600,
            "time": 29.999987500000003,
            "velocity": 0.3937007874015748
          },
          {
            "duration": 0.08571424999999877,
            "durationTicks": 96,
            "midi": 77,
            "name": "F5",
            "ticks": 33600,
            "time": 29.999987500000003,
            "velocity": 0.3937007874015748
          },
          {
            "duration": 0.08571425000000232,
            "durationTicks": 96,
            "midi": 67,
            "name": "G4",
            "ticks": 33792,
            "time": 30.171416,
            "velocity": 0.3937007874015748
          },
          {
            "duration": 0.08571425000000232,
            "durationTicks": 96,
            "midi": 79,
            "name": "G5",
            "ticks": 33792,
            "time": 30.171416,
            "velocity": 0.3937007874015748
          },
          {
            "duration": 0.08571424999999877,
            "durationTicks": 96,
            "midi": 74,
            "name": "D5",
            "ticks": 33984,
            "time": 30.3428445,
            "velocity": 0.3937007874015748
          },
          {
            "duration": 0.08571424999999877,
            "durationTicks": 96,
            "midi": 62,
            "name": "D4",
            "ticks": 33984,
            "time": 30.3428445,
            "velocity": 0.3937007874015748
          },
          {
            "duration": 0.08571425000000232,
            "durationTicks": 96,
            "midi": 67,
            "name": "G4",
            "ticks": 34080,
            "time": 30.42855875,
            "velocity": 0.3937007874015748
          },
          {
            "duration": 0.08571425000000232,
            "durationTicks": 96,
            "midi": 79,
            "name": "G5",
            "ticks": 34080,
            "time": 30.42855875,
            "velocity": 0.3937007874015748
          },
          {
            "duration": 0.08571424999999877,
            "durationTicks": 96,
            "midi": 74,
            "name": "D5",
            "ticks": 34272,
            "time": 30.59998725,
            "velocity": 0.3937007874015748
          },
          {
            "duration": 0.08571424999999877,
            "durationTicks": 96,
            "midi": 62,
            "name": "D4",
            "ticks": 34272,
            "time": 30.59998725,
            "velocity": 0.3937007874015748
          },
          {
            "duration": 0.08571425000000232,
            "durationTicks": 96,
            "midi": 67,
            "name": "G4",
            "ticks": 34368,
            "time": 30.6857015,
            "velocity": 0.3937007874015748
          },
          {
            "duration": 0.08571425000000232,
            "durationTicks": 96,
            "midi": 79,
            "name": "G5",
            "ticks": 34368,
            "time": 30.6857015,
            "velocity": 0.3937007874015748
          },
          {
            "duration": 0.08571425000000232,
            "durationTicks": 96,
            "midi": 81,
            "name": "A5",
            "ticks": 34560,
            "time": 30.85713,
            "velocity": 0.3937007874015748
          },
          {
            "duration": 0.08571425000000232,
            "durationTicks": 96,
            "midi": 69,
            "name": "A4",
            "ticks": 34560,
            "time": 30.85713,
            "velocity": 0.3937007874015748
          },
          {
            "duration": 0.08571424999999877,
            "durationTicks": 96,
            "midi": 64,
            "name": "E4",
            "ticks": 34752,
            "time": 31.028558500000003,
            "velocity": 0.3937007874015748
          },
          {
            "duration": 0.08571424999999877,
            "durationTicks": 96,
            "midi": 76,
            "name": "E5",
            "ticks": 34752,
            "time": 31.028558500000003,
            "velocity": 0.3937007874015748
          },
          {
            "duration": 0.08571425000000232,
            "durationTicks": 96,
            "midi": 69,
            "name": "A4",
            "ticks": 34848,
            "time": 31.11427275,
            "velocity": 0.3937007874015748
          },
          {
            "duration": 0.08571425000000232,
            "durationTicks": 96,
            "midi": 81,
            "name": "A5",
            "ticks": 34848,
            "time": 31.11427275,
            "velocity": 0.3937007874015748
          },
          {
            "duration": 0.08571424999999877,
            "durationTicks": 96,
            "midi": 76,
            "name": "E5",
            "ticks": 35040,
            "time": 31.285701250000002,
            "velocity": 0.3937007874015748
          },
          {
            "duration": 0.08571424999999877,
            "durationTicks": 96,
            "midi": 64,
            "name": "E4",
            "ticks": 35040,
            "time": 31.285701250000002,
            "velocity": 0.3937007874015748
          },
          {
            "duration": 0.08571425000000232,
            "durationTicks": 96,
            "midi": 69,
            "name": "A4",
            "ticks": 35136,
            "time": 31.3714155,
            "velocity": 0.3937007874015748
          },
          {
            "duration": 0.08571425000000232,
            "durationTicks": 96,
            "midi": 81,
            "name": "A5",
            "ticks": 35136,
            "time": 31.3714155,
            "velocity": 0.3937007874015748
          },
          {
            "duration": 0.08571424999999877,
            "durationTicks": 96,
            "midi": 82,
            "name": "A#5",
            "ticks": 35328,
            "time": 31.542844000000002,
            "velocity": 0.3937007874015748
          },
          {
            "duration": 0.08571424999999877,
            "durationTicks": 96,
            "midi": 70,
            "name": "A#4",
            "ticks": 35328,
            "time": 31.542844000000002,
            "velocity": 0.3937007874015748
          },
          {
            "duration": 0.08571425000000232,
            "durationTicks": 96,
            "midi": 65,
            "name": "F4",
            "ticks": 35424,
            "time": 31.62855825,
            "velocity": 0.3937007874015748
          },
          {
            "duration": 0.08571425000000232,
            "durationTicks": 96,
            "midi": 77,
            "name": "F5",
            "ticks": 35424,
            "time": 31.62855825,
            "velocity": 0.3937007874015748
          },
          {
            "duration": 0.08571424999999877,
            "durationTicks": 96,
            "midi": 82,
            "name": "A#5",
            "ticks": 35520,
            "time": 31.714272500000003,
            "velocity": 0.3937007874015748
          },
          {
            "duration": 0.08571424999999877,
            "durationTicks": 96,
            "midi": 70,
            "name": "A#4",
            "ticks": 35520,
            "time": 31.714272500000003,
            "velocity": 0.3937007874015748
          },
          {
            "duration": 0.08571425000000232,
            "durationTicks": 96,
            "midi": 70,
            "name": "A#4",
            "ticks": 35712,
            "time": 31.885701,
            "velocity": 0.3937007874015748
          },
          {
            "duration": 0.08571425000000232,
            "durationTicks": 96,
            "midi": 82,
            "name": "A#5",
            "ticks": 35712,
            "time": 31.885701,
            "velocity": 0.3937007874015748
          },
          {
            "duration": 0.08571425000000232,
            "durationTicks": 96,
            "midi": 71,
            "name": "B4",
            "ticks": 35904,
            "time": 32.0571295,
            "velocity": 0.3937007874015748
          },
          {
            "duration": 0.08571425000000232,
            "durationTicks": 96,
            "midi": 83,
            "name": "B5",
            "ticks": 35904,
            "time": 32.0571295,
            "velocity": 0.3937007874015748
          },
          {
            "duration": 0.08571425000000232,
            "durationTicks": 96,
            "midi": 84,
            "name": "C6",
            "ticks": 36096,
            "time": 32.228558,
            "velocity": 0.3937007874015748
          },
          {
            "duration": 0.08571425000000232,
            "durationTicks": 96,
            "midi": 72,
            "name": "C5",
            "ticks": 36096,
            "time": 32.228558,
            "velocity": 0.3937007874015748
          },
          {
            "duration": 0.08571424999999522,
            "durationTicks": 96,
            "midi": 69,
            "name": "A4",
            "ticks": 36864,
            "time": 32.914272000000004,
            "velocity": 0.3937007874015748
          },
          {
            "duration": 0.08571424999999522,
            "durationTicks": 96,
            "midi": 57,
            "name": "A3",
            "ticks": 36864,
            "time": 32.914272000000004,
            "velocity": 0.3937007874015748
          },
          {
            "duration": 0.08571425000000232,
            "durationTicks": 96,
            "midi": 65,
            "name": "F4",
            "ticks": 37056,
            "time": 33.0857005,
            "velocity": 0.3937007874015748
          },
          {
            "duration": 0.08571425000000232,
            "durationTicks": 96,
            "midi": 77,
            "name": "F5",
            "ticks": 37056,
            "time": 33.0857005,
            "velocity": 0.3937007874015748
          },
          {
            "duration": 0.08571425000000232,
            "durationTicks": 96,
            "midi": 64,
            "name": "E4",
            "ticks": 37248,
            "time": 33.257129,
            "velocity": 0.3937007874015748
          },
          {
            "duration": 0.08571425000000232,
            "durationTicks": 96,
            "midi": 76,
            "name": "E5",
            "ticks": 37248,
            "time": 33.257129,
            "velocity": 0.3937007874015748
          },
          {
            "duration": 0.08571425000000232,
            "durationTicks": 96,
            "midi": 65,
            "name": "F4",
            "ticks": 37344,
            "time": 33.34284325,
            "velocity": 0.3937007874015748
          },
          {
            "duration": 0.08571425000000232,
            "durationTicks": 96,
            "midi": 77,
            "name": "F5",
            "ticks": 37344,
            "time": 33.34284325,
            "velocity": 0.3937007874015748
          },
          {
            "duration": 0.08571424999999522,
            "durationTicks": 96,
            "midi": 76,
            "name": "E5",
            "ticks": 37440,
            "time": 33.428557500000004,
            "velocity": 0.3937007874015748
          },
          {
            "duration": 0.08571424999999522,
            "durationTicks": 96,
            "midi": 64,
            "name": "E4",
            "ticks": 37440,
            "time": 33.428557500000004,
            "velocity": 0.3937007874015748
          },
          {
            "duration": 0.08571425000000232,
            "durationTicks": 96,
            "midi": 67,
            "name": "G4",
            "ticks": 37632,
            "time": 33.599986,
            "velocity": 0.3937007874015748
          },
          {
            "duration": 0.08571425000000232,
            "durationTicks": 96,
            "midi": 79,
            "name": "G5",
            "ticks": 37632,
            "time": 33.599986,
            "velocity": 0.3937007874015748
          },
          {
            "duration": 0.08571425000000232,
            "durationTicks": 96,
            "midi": 65,
            "name": "F4",
            "ticks": 37824,
            "time": 33.7714145,
            "velocity": 0.3937007874015748
          },
          {
            "duration": 0.08571425000000232,
            "durationTicks": 96,
            "midi": 77,
            "name": "F5",
            "ticks": 37824,
            "time": 33.7714145,
            "velocity": 0.3937007874015748
          },
          {
            "duration": 0.08571425000000232,
            "durationTicks": 96,
            "midi": 64,
            "name": "E4",
            "ticks": 38016,
            "time": 33.942843,
            "velocity": 0.3937007874015748
          },
          {
            "duration": 0.08571425000000232,
            "durationTicks": 96,
            "midi": 76,
            "name": "E5",
            "ticks": 38016,
            "time": 33.942843,
            "velocity": 0.3937007874015748
          },
          {
            "duration": 0.08571424999999522,
            "durationTicks": 96,
            "midi": 65,
            "name": "F4",
            "ticks": 38112,
            "time": 34.028557250000006,
            "velocity": 0.3937007874015748
          },
          {
            "duration": 0.08571424999999522,
            "durationTicks": 96,
            "midi": 77,
            "name": "F5",
            "ticks": 38112,
            "time": 34.028557250000006,
            "velocity": 0.3937007874015748
          },
          {
            "duration": 0.08571425000000232,
            "durationTicks": 96,
            "midi": 76,
            "name": "E5",
            "ticks": 38208,
            "time": 34.1142715,
            "velocity": 0.3937007874015748
          },
          {
            "duration": 0.08571425000000232,
            "durationTicks": 96,
            "midi": 64,
            "name": "E4",
            "ticks": 38208,
            "time": 34.1142715,
            "velocity": 0.3937007874015748
          },
          {
            "duration": 0.08571425000000232,
            "durationTicks": 96,
            "midi": 72,
            "name": "C5",
            "ticks": 38304,
            "time": 34.19998575,
            "velocity": 0.3937007874015748
          },
          {
            "duration": 0.08571425000000232,
            "durationTicks": 96,
            "midi": 60,
            "name": "C4",
            "ticks": 38304,
            "time": 34.19998575,
            "velocity": 0.3937007874015748
          },
          {
            "duration": 0.08571424999999522,
            "durationTicks": 96,
            "midi": 74,
            "name": "D5",
            "ticks": 38400,
            "time": 34.285700000000006,
            "velocity": 0.3937007874015748
          },
          {
            "duration": 0.08571424999999522,
            "durationTicks": 96,
            "midi": 62,
            "name": "D4",
            "ticks": 38400,
            "time": 34.285700000000006,
            "velocity": 0.3937007874015748
          },
          {
            "duration": 0.08571425000000232,
            "durationTicks": 96,
            "midi": 81,
            "name": "A5",
            "ticks": 38592,
            "time": 34.4571285,
            "velocity": 0.3937007874015748
          },
          {
            "duration": 0.08571425000000232,
            "durationTicks": 96,
            "midi": 69,
            "name": "A4",
            "ticks": 38592,
            "time": 34.4571285,
            "velocity": 0.3937007874015748
          },
          {
            "duration": 0.08571425000000232,
            "durationTicks": 96,
            "midi": 67,
            "name": "G4",
            "ticks": 38784,
            "time": 34.628557,
            "velocity": 0.3937007874015748
          },
          {
            "duration": 0.08571425000000232,
            "durationTicks": 96,
            "midi": 79,
            "name": "G5",
            "ticks": 38784,
            "time": 34.628557,
            "velocity": 0.3937007874015748
          },
          {
            "duration": 0.08571425000000232,
            "durationTicks": 96,
            "midi": 69,
            "name": "A4",
            "ticks": 38880,
            "time": 34.71427125,
            "velocity": 0.3937007874015748
          },
          {
            "duration": 0.08571425000000232,
            "durationTicks": 96,
            "midi": 81,
            "name": "A5",
            "ticks": 38880,
            "time": 34.71427125,
            "velocity": 0.3937007874015748
          },
          {
            "duration": 0.08571424999999522,
            "durationTicks": 96,
            "midi": 79,
            "name": "G5",
            "ticks": 38976,
            "time": 34.799985500000005,
            "velocity": 0.3937007874015748
          },
          {
            "duration": 0.08571424999999522,
            "durationTicks": 96,
            "midi": 67,
            "name": "G4",
            "ticks": 38976,
            "time": 34.799985500000005,
            "velocity": 0.3937007874015748
          },
          {
            "duration": 0.08571425000000232,
            "durationTicks": 96,
            "midi": 69,
            "name": "A4",
            "ticks": 39072,
            "time": 34.88569975,
            "velocity": 0.3937007874015748
          },
          {
            "duration": 0.08571425000000232,
            "durationTicks": 96,
            "midi": 81,
            "name": "A5",
            "ticks": 39072,
            "time": 34.88569975,
            "velocity": 0.3937007874015748
          },
          {
            "duration": 0.08571425000000232,
            "durationTicks": 96,
            "midi": 84,
            "name": "C6",
            "ticks": 39168,
            "time": 34.971414,
            "velocity": 0.3937007874015748
          },
          {
            "duration": 0.08571425000000232,
            "durationTicks": 96,
            "midi": 72,
            "name": "C5",
            "ticks": 39168,
            "time": 34.971414,
            "velocity": 0.3937007874015748
          },
          {
            "duration": 0.08571425000000232,
            "durationTicks": 96,
            "midi": 69,
            "name": "A4",
            "ticks": 39360,
            "time": 35.1428425,
            "velocity": 0.3937007874015748
          },
          {
            "duration": 0.08571425000000232,
            "durationTicks": 96,
            "midi": 81,
            "name": "A5",
            "ticks": 39360,
            "time": 35.1428425,
            "velocity": 0.3937007874015748
          },
          {
            "duration": 0.08571424999999522,
            "durationTicks": 96,
            "midi": 67,
            "name": "G4",
            "ticks": 39552,
            "time": 35.314271000000005,
            "velocity": 0.3937007874015748
          },
          {
            "duration": 0.08571424999999522,
            "durationTicks": 96,
            "midi": 79,
            "name": "G5",
            "ticks": 39552,
            "time": 35.314271000000005,
            "velocity": 0.3937007874015748
          },
          {
            "duration": 0.08571425000000232,
            "durationTicks": 96,
            "midi": 81,
            "name": "A5",
            "ticks": 39744,
            "time": 35.4856995,
            "velocity": 0.3937007874015748
          },
          {
            "duration": 0.08571425000000232,
            "durationTicks": 96,
            "midi": 69,
            "name": "A4",
            "ticks": 39744,
            "time": 35.4856995,
            "velocity": 0.3937007874015748
          },
          {
            "duration": 0.08571425000000232,
            "durationTicks": 96,
            "midi": 58,
            "name": "A#3",
            "ticks": 39936,
            "time": 35.657128,
            "velocity": 0.3937007874015748
          },
          {
            "duration": 0.08571425000000232,
            "durationTicks": 96,
            "midi": 70,
            "name": "A#4",
            "ticks": 39936,
            "time": 35.657128,
            "velocity": 0.3937007874015748
          },
          {
            "duration": 0.08571424999999522,
            "durationTicks": 96,
            "midi": 65,
            "name": "F4",
            "ticks": 40128,
            "time": 35.828556500000005,
            "velocity": 0.3937007874015748
          },
          {
            "duration": 0.08571424999999522,
            "durationTicks": 96,
            "midi": 77,
            "name": "F5",
            "ticks": 40128,
            "time": 35.828556500000005,
            "velocity": 0.3937007874015748
          },
          {
            "duration": 0.08571425000000232,
            "durationTicks": 96,
            "midi": 76,
            "name": "E5",
            "ticks": 40320,
            "time": 35.999985,
            "velocity": 0.3937007874015748
          },
          {
            "duration": 0.08571425000000232,
            "durationTicks": 96,
            "midi": 64,
            "name": "E4",
            "ticks": 40320,
            "time": 35.999985,
            "velocity": 0.3937007874015748
          },
          {
            "duration": 0.08571424999999522,
            "durationTicks": 96,
            "midi": 77,
            "name": "F5",
            "ticks": 40416,
            "time": 36.085699250000005,
            "velocity": 0.3937007874015748
          },
          {
            "duration": 0.08571424999999522,
            "durationTicks": 96,
            "midi": 65,
            "name": "F4",
            "ticks": 40416,
            "time": 36.085699250000005,
            "velocity": 0.3937007874015748
          },
          {
            "duration": 0.08571425000000232,
            "durationTicks": 96,
            "midi": 76,
            "name": "E5",
            "ticks": 40512,
            "time": 36.1714135,
            "velocity": 0.3937007874015748
          },
          {
            "duration": 0.08571425000000232,
            "durationTicks": 96,
            "midi": 64,
            "name": "E4",
            "ticks": 40512,
            "time": 36.1714135,
            "velocity": 0.3937007874015748
          },
          {
            "duration": 0.08571424999999522,
            "durationTicks": 96,
            "midi": 67,
            "name": "G4",
            "ticks": 40704,
            "time": 36.342842000000005,
            "velocity": 0.3937007874015748
          },
          {
            "duration": 0.08571424999999522,
            "durationTicks": 96,
            "midi": 79,
            "name": "G5",
            "ticks": 40704,
            "time": 36.342842000000005,
            "velocity": 0.3937007874015748
          },
          {
            "duration": 0.08571425000000232,
            "durationTicks": 96,
            "midi": 77,
            "name": "F5",
            "ticks": 40896,
            "time": 36.5142705,
            "velocity": 0.3937007874015748
          },
          {
            "duration": 0.08571425000000232,
            "durationTicks": 96,
            "midi": 65,
            "name": "F4",
            "ticks": 40896,
            "time": 36.5142705,
            "velocity": 0.3937007874015748
          },
          {
            "duration": 0.08571425000000232,
            "durationTicks": 96,
            "midi": 64,
            "name": "E4",
            "ticks": 41088,
            "time": 36.685699,
            "velocity": 0.3937007874015748
          },
          {
            "duration": 0.08571425000000232,
            "durationTicks": 96,
            "midi": 76,
            "name": "E5",
            "ticks": 41088,
            "time": 36.685699,
            "velocity": 0.3937007874015748
          },
          {
            "duration": 0.08571425000000232,
            "durationTicks": 96,
            "midi": 65,
            "name": "F4",
            "ticks": 41184,
            "time": 36.77141325,
            "velocity": 0.3937007874015748
          },
          {
            "duration": 0.08571425000000232,
            "durationTicks": 96,
            "midi": 77,
            "name": "F5",
            "ticks": 41184,
            "time": 36.77141325,
            "velocity": 0.3937007874015748
          },
          {
            "duration": 0.08571424999999522,
            "durationTicks": 96,
            "midi": 76,
            "name": "E5",
            "ticks": 41280,
            "time": 36.857127500000004,
            "velocity": 0.3937007874015748
          },
          {
            "duration": 0.08571424999999522,
            "durationTicks": 96,
            "midi": 64,
            "name": "E4",
            "ticks": 41280,
            "time": 36.857127500000004,
            "velocity": 0.3937007874015748
          },
          {
            "duration": 0.08571425000000232,
            "durationTicks": 96,
            "midi": 72,
            "name": "C5",
            "ticks": 41376,
            "time": 36.94284175,
            "velocity": 0.3937007874015748
          },
          {
            "duration": 0.08571425000000232,
            "durationTicks": 96,
            "midi": 60,
            "name": "C4",
            "ticks": 41376,
            "time": 36.94284175,
            "velocity": 0.3937007874015748
          },
          {
            "duration": 0.08571425000000232,
            "durationTicks": 96,
            "midi": 62,
            "name": "D4",
            "ticks": 41472,
            "time": 37.028556,
            "velocity": 0.3937007874015748
          },
          {
            "duration": 0.08571425000000232,
            "durationTicks": 96,
            "midi": 74,
            "name": "D5",
            "ticks": 41472,
            "time": 37.028556,
            "velocity": 0.3937007874015748
          },
          {
            "duration": 0.08571425000000232,
            "durationTicks": 96,
            "midi": 81,
            "name": "A5",
            "ticks": 41664,
            "time": 37.1999845,
            "velocity": 0.3937007874015748
          },
          {
            "duration": 0.08571425000000232,
            "durationTicks": 96,
            "midi": 69,
            "name": "A4",
            "ticks": 41664,
            "time": 37.1999845,
            "velocity": 0.3937007874015748
          },
          {
            "duration": 0.08571424999999522,
            "durationTicks": 96,
            "midi": 79,
            "name": "G5",
            "ticks": 41856,
            "time": 37.371413000000004,
            "velocity": 0.3937007874015748
          },
          {
            "duration": 0.08571424999999522,
            "durationTicks": 96,
            "midi": 67,
            "name": "G4",
            "ticks": 41856,
            "time": 37.371413000000004,
            "velocity": 0.3937007874015748
          },
          {
            "duration": 0.08571425000000232,
            "durationTicks": 96,
            "midi": 81,
            "name": "A5",
            "ticks": 41952,
            "time": 37.45712725,
            "velocity": 0.3937007874015748
          },
          {
            "duration": 0.08571425000000232,
            "durationTicks": 96,
            "midi": 69,
            "name": "A4",
            "ticks": 41952,
            "time": 37.45712725,
            "velocity": 0.3937007874015748
          },
          {
            "duration": 0.08571425000000232,
            "durationTicks": 96,
            "midi": 67,
            "name": "G4",
            "ticks": 42048,
            "time": 37.5428415,
            "velocity": 0.3937007874015748
          },
          {
            "duration": 0.08571425000000232,
            "durationTicks": 96,
            "midi": 79,
            "name": "G5",
            "ticks": 42048,
            "time": 37.5428415,
            "velocity": 0.3937007874015748
          },
          {
            "duration": 0.08571424999999522,
            "durationTicks": 96,
            "midi": 81,
            "name": "A5",
            "ticks": 42144,
            "time": 37.628555750000004,
            "velocity": 0.3937007874015748
          },
          {
            "duration": 0.08571424999999522,
            "durationTicks": 96,
            "midi": 69,
            "name": "A4",
            "ticks": 42144,
            "time": 37.628555750000004,
            "velocity": 0.3937007874015748
          },
          {
            "duration": 0.08571425000000232,
            "durationTicks": 96,
            "midi": 73,
            "name": "C#5",
            "ticks": 42240,
            "time": 37.71427,
            "velocity": 0.3937007874015748
          },
          {
            "duration": 0.08571425000000232,
            "durationTicks": 96,
            "midi": 85,
            "name": "C#6",
            "ticks": 42240,
            "time": 37.71427,
            "velocity": 0.3937007874015748
          },
          {
            "duration": 0.08571425000000232,
            "durationTicks": 96,
            "midi": 69,
            "name": "A4",
            "ticks": 42432,
            "time": 37.885698500000004,
            "velocity": 0.3937007874015748
          },
          {
            "duration": 0.08571425000000232,
            "durationTicks": 96,
            "midi": 81,
            "name": "A5",
            "ticks": 42432,
            "time": 37.885698500000004,
            "velocity": 0.3937007874015748
          },
          {
            "duration": 0.08571425000000232,
            "durationTicks": 96,
            "midi": 79,
            "name": "G5",
            "ticks": 42624,
            "time": 38.057127,
            "velocity": 0.3937007874015748
          },
          {
            "duration": 0.08571425000000232,
            "durationTicks": 96,
            "midi": 67,
            "name": "G4",
            "ticks": 42624,
            "time": 38.057127,
            "velocity": 0.3937007874015748
          },
          {
            "duration": 0.08571424999999522,
            "durationTicks": 96,
            "midi": 81,
            "name": "A5",
            "ticks": 42816,
            "time": 38.228555500000006,
            "velocity": 0.3937007874015748
          },
          {
            "duration": 0.08571424999999522,
            "durationTicks": 96,
            "midi": 69,
            "name": "A4",
            "ticks": 42816,
            "time": 38.228555500000006,
            "velocity": 0.3937007874015748
          },
          {
            "duration": 0.08571425000000232,
            "durationTicks": 96,
            "midi": 57,
            "name": "A3",
            "ticks": 43008,
            "time": 38.399984,
            "velocity": 0.3937007874015748
          },
          {
            "duration": 0.08571425000000232,
            "durationTicks": 96,
            "midi": 69,
            "name": "A4",
            "ticks": 43008,
            "time": 38.399984,
            "velocity": 0.3937007874015748
          },
          {
            "duration": 0.08571425000000232,
            "durationTicks": 96,
            "midi": 77,
            "name": "F5",
            "ticks": 43200,
            "time": 38.5714125,
            "velocity": 0.3937007874015748
          },
          {
            "duration": 0.08571425000000232,
            "durationTicks": 96,
            "midi": 65,
            "name": "F4",
            "ticks": 43200,
            "time": 38.5714125,
            "velocity": 0.3937007874015748
          },
          {
            "duration": 0.08571424999999522,
            "durationTicks": 96,
            "midi": 76,
            "name": "E5",
            "ticks": 43392,
            "time": 38.742841000000006,
            "velocity": 0.3937007874015748
          },
          {
            "duration": 0.08571424999999522,
            "durationTicks": 96,
            "midi": 64,
            "name": "E4",
            "ticks": 43392,
            "time": 38.742841000000006,
            "velocity": 0.3937007874015748
          },
          {
            "duration": 0.08571425000000232,
            "durationTicks": 96,
            "midi": 77,
            "name": "F5",
            "ticks": 43488,
            "time": 38.82855525,
            "velocity": 0.3937007874015748
          },
          {
            "duration": 0.08571425000000232,
            "durationTicks": 96,
            "midi": 65,
            "name": "F4",
            "ticks": 43488,
            "time": 38.82855525,
            "velocity": 0.3937007874015748
          },
          {
            "duration": 0.08571425000000232,
            "durationTicks": 96,
            "midi": 76,
            "name": "E5",
            "ticks": 43584,
            "time": 38.9142695,
            "velocity": 0.3937007874015748
          },
          {
            "duration": 0.08571425000000232,
            "durationTicks": 96,
            "midi": 64,
            "name": "E4",
            "ticks": 43584,
            "time": 38.9142695,
            "velocity": 0.3937007874015748
          },
          {
            "duration": 0.08571425000000232,
            "durationTicks": 96,
            "midi": 67,
            "name": "G4",
            "ticks": 43776,
            "time": 39.085698,
            "velocity": 0.3937007874015748
          },
          {
            "duration": 0.08571425000000232,
            "durationTicks": 96,
            "midi": 79,
            "name": "G5",
            "ticks": 43776,
            "time": 39.085698,
            "velocity": 0.3937007874015748
          },
          {
            "duration": 0.08571424999999522,
            "durationTicks": 96,
            "midi": 65,
            "name": "F4",
            "ticks": 43968,
            "time": 39.257126500000005,
            "velocity": 0.3937007874015748
          },
          {
            "duration": 0.08571424999999522,
            "durationTicks": 96,
            "midi": 77,
            "name": "F5",
            "ticks": 43968,
            "time": 39.257126500000005,
            "velocity": 0.3937007874015748
          },
          {
            "duration": 0.08571425000000232,
            "durationTicks": 96,
            "midi": 76,
            "name": "E5",
            "ticks": 44160,
            "time": 39.428555,
            "velocity": 0.3937007874015748
          },
          {
            "duration": 0.08571425000000232,
            "durationTicks": 96,
            "midi": 64,
            "name": "E4",
            "ticks": 44160,
            "time": 39.428555,
            "velocity": 0.3937007874015748
          },
          {
            "duration": 0.08571424999999522,
            "durationTicks": 96,
            "midi": 65,
            "name": "F4",
            "ticks": 44256,
            "time": 39.514269250000005,
            "velocity": 0.3937007874015748
          },
          {
            "duration": 0.08571424999999522,
            "durationTicks": 96,
            "midi": 77,
            "name": "F5",
            "ticks": 44256,
            "time": 39.514269250000005,
            "velocity": 0.3937007874015748
          },
          {
            "duration": 0.08571425000000232,
            "durationTicks": 96,
            "midi": 76,
            "name": "E5",
            "ticks": 44352,
            "time": 39.5999835,
            "velocity": 0.3937007874015748
          },
          {
            "duration": 0.08571425000000232,
            "durationTicks": 96,
            "midi": 64,
            "name": "E4",
            "ticks": 44352,
            "time": 39.5999835,
            "velocity": 0.3937007874015748
          },
          {
            "duration": 0.08571425000000232,
            "durationTicks": 96,
            "midi": 72,
            "name": "C5",
            "ticks": 44448,
            "time": 39.68569775,
            "velocity": 0.3937007874015748
          },
          {
            "duration": 0.08571425000000232,
            "durationTicks": 96,
            "midi": 60,
            "name": "C4",
            "ticks": 44448,
            "time": 39.68569775,
            "velocity": 0.3937007874015748
          },
          {
            "duration": 0.08571424999999522,
            "durationTicks": 96,
            "midi": 74,
            "name": "D5",
            "ticks": 44544,
            "time": 39.771412000000005,
            "velocity": 0.3937007874015748
          },
          {
            "duration": 0.08571424999999522,
            "durationTicks": 96,
            "midi": 62,
            "name": "D4",
            "ticks": 44544,
            "time": 39.771412000000005,
            "velocity": 0.3937007874015748
          },
          {
            "duration": 0.08571425000000232,
            "durationTicks": 96,
            "midi": 69,
            "name": "A4",
            "ticks": 44736,
            "time": 39.9428405,
            "velocity": 0.3937007874015748
          },
          {
            "duration": 0.08571425000000232,
            "durationTicks": 96,
            "midi": 81,
            "name": "A5",
            "ticks": 44736,
            "time": 39.9428405,
            "velocity": 0.3937007874015748
          },
          {
            "duration": 0.08571425000000232,
            "durationTicks": 96,
            "midi": 79,
            "name": "G5",
            "ticks": 44928,
            "time": 40.114269,
            "velocity": 0.3937007874015748
          },
          {
            "duration": 0.08571425000000232,
            "durationTicks": 96,
            "midi": 67,
            "name": "G4",
            "ticks": 44928,
            "time": 40.114269,
            "velocity": 0.3937007874015748
          },
          {
            "duration": 0.08571425000000232,
            "durationTicks": 96,
            "midi": 69,
            "name": "A4",
            "ticks": 45024,
            "time": 40.19998325,
            "velocity": 0.3937007874015748
          },
          {
            "duration": 0.08571425000000232,
            "durationTicks": 96,
            "midi": 81,
            "name": "A5",
            "ticks": 45024,
            "time": 40.19998325,
            "velocity": 0.3937007874015748
          },
          {
            "duration": 0.08571424999999522,
            "durationTicks": 96,
            "midi": 79,
            "name": "G5",
            "ticks": 45120,
            "time": 40.285697500000005,
            "velocity": 0.3937007874015748
          },
          {
            "duration": 0.08571424999999522,
            "durationTicks": 96,
            "midi": 67,
            "name": "G4",
            "ticks": 45120,
            "time": 40.285697500000005,
            "velocity": 0.3937007874015748
          },
          {
            "duration": 0.08571425000000232,
            "durationTicks": 96,
            "midi": 81,
            "name": "A5",
            "ticks": 45216,
            "time": 40.37141175,
            "velocity": 0.3937007874015748
          },
          {
            "duration": 0.08571425000000232,
            "durationTicks": 96,
            "midi": 69,
            "name": "A4",
            "ticks": 45216,
            "time": 40.37141175,
            "velocity": 0.3937007874015748
          },
          {
            "duration": 0.08571425000000232,
            "durationTicks": 96,
            "midi": 84,
            "name": "C6",
            "ticks": 45312,
            "time": 40.457126,
            "velocity": 0.3937007874015748
          },
          {
            "duration": 0.08571425000000232,
            "durationTicks": 96,
            "midi": 72,
            "name": "C5",
            "ticks": 45312,
            "time": 40.457126,
            "velocity": 0.3937007874015748
          },
          {
            "duration": 0.08571425000000232,
            "durationTicks": 96,
            "midi": 81,
            "name": "A5",
            "ticks": 45504,
            "time": 40.6285545,
            "velocity": 0.3937007874015748
          },
          {
            "duration": 0.08571425000000232,
            "durationTicks": 96,
            "midi": 69,
            "name": "A4",
            "ticks": 45504,
            "time": 40.6285545,
            "velocity": 0.3937007874015748
          },
          {
            "duration": 0.08571425000000232,
            "durationTicks": 96,
            "midi": 84,
            "name": "C6",
            "ticks": 45600,
            "time": 40.71426875,
            "velocity": 0.3937007874015748
          },
          {
            "duration": 0.08571425000000232,
            "durationTicks": 96,
            "midi": 72,
            "name": "C5",
            "ticks": 45600,
            "time": 40.71426875,
            "velocity": 0.3937007874015748
          },
          {
            "duration": 0.08571424999999522,
            "durationTicks": 96,
            "midi": 76,
            "name": "E5",
            "ticks": 45696,
            "time": 40.799983000000005,
            "velocity": 0.3937007874015748
          },
          {
            "duration": 0.08571424999999522,
            "durationTicks": 96,
            "midi": 64,
            "name": "E4",
            "ticks": 45696,
            "time": 40.799983000000005,
            "velocity": 0.3937007874015748
          },
          {
            "duration": 0.08571425000000232,
            "durationTicks": 96,
            "midi": 65,
            "name": "F4",
            "ticks": 45888,
            "time": 40.9714115,
            "velocity": 0.3937007874015748
          },
          {
            "duration": 0.08571425000000232,
            "durationTicks": 96,
            "midi": 77,
            "name": "F5",
            "ticks": 45888,
            "time": 40.9714115,
            "velocity": 0.3937007874015748
          },
          {
            "duration": 0.08571425000000232,
            "durationTicks": 96,
            "midi": 67,
            "name": "G4",
            "ticks": 46080,
            "time": 41.14284,
            "velocity": 0.3937007874015748
          },
          {
            "duration": 0.08571425000000232,
            "durationTicks": 96,
            "midi": 79,
            "name": "G5",
            "ticks": 46080,
            "time": 41.14284,
            "velocity": 0.3937007874015748
          },
          {
            "duration": 0.08571424999999522,
            "durationTicks": 96,
            "midi": 74,
            "name": "D5",
            "ticks": 46272,
            "time": 41.314268500000004,
            "velocity": 0.3937007874015748
          },
          {
            "duration": 0.08571424999999522,
            "durationTicks": 96,
            "midi": 62,
            "name": "D4",
            "ticks": 46272,
            "time": 41.314268500000004,
            "velocity": 0.3937007874015748
          },
          {
            "duration": 0.08571425000000232,
            "durationTicks": 96,
            "midi": 79,
            "name": "G5",
            "ticks": 46368,
            "time": 41.39998275,
            "velocity": 0.3937007874015748
          },
          {
            "duration": 0.08571425000000232,
            "durationTicks": 96,
            "midi": 67,
            "name": "G4",
            "ticks": 46368,
            "time": 41.39998275,
            "velocity": 0.3937007874015748
          },
          {
            "duration": 0.08571424999999522,
            "durationTicks": 96,
            "midi": 74,
            "name": "D5",
            "ticks": 46560,
            "time": 41.571411250000004,
            "velocity": 0.3937007874015748
          },
          {
            "duration": 0.08571424999999522,
            "durationTicks": 96,
            "midi": 62,
            "name": "D4",
            "ticks": 46560,
            "time": 41.571411250000004,
            "velocity": 0.3937007874015748
          },
          {
            "duration": 0.08571425000000232,
            "durationTicks": 96,
            "midi": 79,
            "name": "G5",
            "ticks": 46656,
            "time": 41.6571255,
            "velocity": 0.3937007874015748
          },
          {
            "duration": 0.08571425000000232,
            "durationTicks": 96,
            "midi": 67,
            "name": "G4",
            "ticks": 46656,
            "time": 41.6571255,
            "velocity": 0.3937007874015748
          },
          {
            "duration": 0.08571425000000232,
            "durationTicks": 96,
            "midi": 81,
            "name": "A5",
            "ticks": 46848,
            "time": 41.828554000000004,
            "velocity": 0.3937007874015748
          },
          {
            "duration": 0.08571425000000232,
            "durationTicks": 96,
            "midi": 69,
            "name": "A4",
            "ticks": 46848,
            "time": 41.828554000000004,
            "velocity": 0.3937007874015748
          },
          {
            "duration": 0.08571425000000232,
            "durationTicks": 96,
            "midi": 79,
            "name": "G5",
            "ticks": 47040,
            "time": 41.9999825,
            "velocity": 0.3937007874015748
          },
          {
            "duration": 0.08571425000000232,
            "durationTicks": 96,
            "midi": 67,
            "name": "G4",
            "ticks": 47040,
            "time": 41.9999825,
            "velocity": 0.3937007874015748
          },
          {
            "duration": 0.08571424999999522,
            "durationTicks": 96,
            "midi": 77,
            "name": "F5",
            "ticks": 47232,
            "time": 42.171411000000006,
            "velocity": 0.3937007874015748
          },
          {
            "duration": 0.08571424999999522,
            "durationTicks": 96,
            "midi": 65,
            "name": "F4",
            "ticks": 47232,
            "time": 42.171411000000006,
            "velocity": 0.3937007874015748
          },
          {
            "duration": 0.08571425000000232,
            "durationTicks": 96,
            "midi": 76,
            "name": "E5",
            "ticks": 47424,
            "time": 42.342839500000004,
            "velocity": 0.3937007874015748
          },
          {
            "duration": 0.08571425000000232,
            "durationTicks": 96,
            "midi": 64,
            "name": "E4",
            "ticks": 47424,
            "time": 42.342839500000004,
            "velocity": 0.3937007874015748
          },
          {
            "duration": 0.08571425000000232,
            "durationTicks": 96,
            "midi": 74,
            "name": "D5",
            "ticks": 47616,
            "time": 42.514268,
            "velocity": 0.3937007874015748
          },
          {
            "duration": 0.08571425000000232,
            "durationTicks": 96,
            "midi": 62,
            "name": "D4",
            "ticks": 47616,
            "time": 42.514268,
            "velocity": 0.3937007874015748
          },
          {
            "duration": 0.08571425000000232,
            "durationTicks": 96,
            "midi": 45,
            "name": "A2",
            "ticks": 49152,
            "time": 43.885696,
            "velocity": 0.3937007874015748
          },
          {
            "duration": 0.08571425000000232,
            "durationTicks": 96,
            "midi": 57,
            "name": "A3",
            "ticks": 49152,
            "time": 43.885696,
            "velocity": 0.3937007874015748
          },
          {
            "duration": 0.08571425000000232,
            "durationTicks": 96,
            "midi": 65,
            "name": "F4",
            "ticks": 49344,
            "time": 44.0571245,
            "velocity": 0.3937007874015748
          },
          {
            "duration": 0.08571425000000232,
            "durationTicks": 96,
            "midi": 53,
            "name": "F3",
            "ticks": 49344,
            "time": 44.0571245,
            "velocity": 0.3937007874015748
          },
          {
            "duration": 0.08571424999999522,
            "durationTicks": 96,
            "midi": 64,
            "name": "E4",
            "ticks": 49536,
            "time": 44.228553000000005,
            "velocity": 0.3937007874015748
          },
          {
            "duration": 0.08571424999999522,
            "durationTicks": 96,
            "midi": 52,
            "name": "E3",
            "ticks": 49536,
            "time": 44.228553000000005,
            "velocity": 0.3937007874015748
          },
          {
            "duration": 0.08571425000000232,
            "durationTicks": 96,
            "midi": 65,
            "name": "F4",
            "ticks": 49632,
            "time": 44.31426725,
            "velocity": 0.3937007874015748
          },
          {
            "duration": 0.08571425000000232,
            "durationTicks": 96,
            "midi": 53,
            "name": "F3",
            "ticks": 49632,
            "time": 44.31426725,
            "velocity": 0.3937007874015748
          },
          {
            "duration": 0.08571425000000232,
            "durationTicks": 96,
            "midi": 52,
            "name": "E3",
            "ticks": 49728,
            "time": 44.3999815,
            "velocity": 0.3937007874015748
          },
          {
            "duration": 0.08571425000000232,
            "durationTicks": 96,
            "midi": 64,
            "name": "E4",
            "ticks": 49728,
            "time": 44.3999815,
            "velocity": 0.3937007874015748
          },
          {
            "duration": 0.08571425000000232,
            "durationTicks": 96,
            "midi": 67,
            "name": "G4",
            "ticks": 49920,
            "time": 44.57141,
            "velocity": 0.3937007874015748
          },
          {
            "duration": 0.08571425000000232,
            "durationTicks": 96,
            "midi": 55,
            "name": "G3",
            "ticks": 49920,
            "time": 44.57141,
            "velocity": 0.3937007874015748
          },
          {
            "duration": 0.08571424999999522,
            "durationTicks": 96,
            "midi": 53,
            "name": "F3",
            "ticks": 50112,
            "time": 44.742838500000005,
            "velocity": 0.3937007874015748
          },
          {
            "duration": 0.08571424999999522,
            "durationTicks": 96,
            "midi": 65,
            "name": "F4",
            "ticks": 50112,
            "time": 44.742838500000005,
            "velocity": 0.3937007874015748
          },
          {
            "duration": 0.08571425000000232,
            "durationTicks": 96,
            "midi": 52,
            "name": "E3",
            "ticks": 50304,
            "time": 44.914267,
            "velocity": 0.3937007874015748
          },
          {
            "duration": 0.08571425000000232,
            "durationTicks": 96,
            "midi": 64,
            "name": "E4",
            "ticks": 50304,
            "time": 44.914267,
            "velocity": 0.3937007874015748
          },
          {
            "duration": 0.08571424999999522,
            "durationTicks": 96,
            "midi": 53,
            "name": "F3",
            "ticks": 50400,
            "time": 44.999981250000005,
            "velocity": 0.3937007874015748
          },
          {
            "duration": 0.08571424999999522,
            "durationTicks": 96,
            "midi": 65,
            "name": "F4",
            "ticks": 50400,
            "time": 44.999981250000005,
            "velocity": 0.3937007874015748
          },
          {
            "duration": 0.08571425000000232,
            "durationTicks": 96,
            "midi": 52,
            "name": "E3",
            "ticks": 50496,
            "time": 45.0856955,
            "velocity": 0.3937007874015748
          },
          {
            "duration": 0.08571425000000232,
            "durationTicks": 96,
            "midi": 64,
            "name": "E4",
            "ticks": 50496,
            "time": 45.0856955,
            "velocity": 0.3937007874015748
          },
          {
            "duration": 0.08571425000000232,
            "durationTicks": 96,
            "midi": 48,
            "name": "C3",
            "ticks": 50592,
            "time": 45.17140975,
            "velocity": 0.3937007874015748
          },
          {
            "duration": 0.08571425000000232,
            "durationTicks": 96,
            "midi": 60,
            "name": "C4",
            "ticks": 50592,
            "time": 45.17140975,
            "velocity": 0.3937007874015748
          },
          {
            "duration": 0.08571424999999522,
            "durationTicks": 96,
            "midi": 62,
            "name": "D4",
            "ticks": 50688,
            "time": 45.257124000000005,
            "velocity": 0.3937007874015748
          },
          {
            "duration": 0.08571424999999522,
            "durationTicks": 96,
            "midi": 50,
            "name": "D3",
            "ticks": 50688,
            "time": 45.257124000000005,
            "velocity": 0.3937007874015748
          },
          {
            "duration": 0.08571425000000232,
            "durationTicks": 96,
            "midi": 69,
            "name": "A4",
            "ticks": 50880,
            "time": 45.4285525,
            "velocity": 0.3937007874015748
          },
          {
            "duration": 0.08571425000000232,
            "durationTicks": 96,
            "midi": 57,
            "name": "A3",
            "ticks": 50880,
            "time": 45.4285525,
            "velocity": 0.3937007874015748
          },
          {
            "duration": 0.08571425000000232,
            "durationTicks": 96,
            "midi": 55,
            "name": "G3",
            "ticks": 51072,
            "time": 45.599981,
            "velocity": 0.3937007874015748
          },
          {
            "duration": 0.08571425000000232,
            "durationTicks": 96,
            "midi": 67,
            "name": "G4",
            "ticks": 51072,
            "time": 45.599981,
            "velocity": 0.3937007874015748
          },
          {
            "duration": 0.08571425000000232,
            "durationTicks": 96,
            "midi": 57,
            "name": "A3",
            "ticks": 51168,
            "time": 45.68569525,
            "velocity": 0.3937007874015748
          },
          {
            "duration": 0.08571425000000232,
            "durationTicks": 96,
            "midi": 69,
            "name": "A4",
            "ticks": 51168,
            "time": 45.68569525,
            "velocity": 0.3937007874015748
          },
          {
            "duration": 0.08571424999999522,
            "durationTicks": 96,
            "midi": 55,
            "name": "G3",
            "ticks": 51264,
            "time": 45.771409500000004,
            "velocity": 0.3937007874015748
          },
          {
            "duration": 0.08571424999999522,
            "durationTicks": 96,
            "midi": 67,
            "name": "G4",
            "ticks": 51264,
            "time": 45.771409500000004,
            "velocity": 0.3937007874015748
          },
          {
            "duration": 0.08571425000000232,
            "durationTicks": 96,
            "midi": 57,
            "name": "A3",
            "ticks": 51360,
            "time": 45.85712375,
            "velocity": 0.3937007874015748
          },
          {
            "duration": 0.08571425000000232,
            "durationTicks": 96,
            "midi": 69,
            "name": "A4",
            "ticks": 51360,
            "time": 45.85712375,
            "velocity": 0.3937007874015748
          },
          {
            "duration": 0.08571425000000232,
            "durationTicks": 96,
            "midi": 72,
            "name": "C5",
            "ticks": 51456,
            "time": 45.942838,
            "velocity": 0.3937007874015748
          },
          {
            "duration": 0.08571425000000232,
            "durationTicks": 96,
            "midi": 60,
            "name": "C4",
            "ticks": 51456,
            "time": 45.942838,
            "velocity": 0.3937007874015748
          },
          {
            "duration": 0.08571424999999522,
            "durationTicks": 96,
            "midi": 69,
            "name": "A4",
            "ticks": 51648,
            "time": 46.11426650000001,
            "velocity": 0.3937007874015748
          },
          {
            "duration": 0.08571424999999522,
            "durationTicks": 96,
            "midi": 57,
            "name": "A3",
            "ticks": 51648,
            "time": 46.11426650000001,
            "velocity": 0.3937007874015748
          },
          {
            "duration": 0.08571425000000232,
            "durationTicks": 96,
            "midi": 67,
            "name": "G4",
            "ticks": 51840,
            "time": 46.285695000000004,
            "velocity": 0.3937007874015748
          },
          {
            "duration": 0.08571425000000232,
            "durationTicks": 96,
            "midi": 55,
            "name": "G3",
            "ticks": 51840,
            "time": 46.285695000000004,
            "velocity": 0.3937007874015748
          },
          {
            "duration": 0.08571425000000232,
            "durationTicks": 96,
            "midi": 57,
            "name": "A3",
            "ticks": 52032,
            "time": 46.4571235,
            "velocity": 0.3937007874015748
          },
          {
            "duration": 0.08571425000000232,
            "durationTicks": 96,
            "midi": 69,
            "name": "A4",
            "ticks": 52032,
            "time": 46.4571235,
            "velocity": 0.3937007874015748
          },
          {
            "duration": 0.08571424999999522,
            "durationTicks": 96,
            "midi": 58,
            "name": "A#3",
            "ticks": 52224,
            "time": 46.628552000000006,
            "velocity": 0.3937007874015748
          },
          {
            "duration": 0.08571424999999522,
            "durationTicks": 96,
            "midi": 46,
            "name": "A#2",
            "ticks": 52224,
            "time": 46.628552000000006,
            "velocity": 0.3937007874015748
          },
          {
            "duration": 0.08571425000000232,
            "durationTicks": 96,
            "midi": 53,
            "name": "F3",
            "ticks": 52416,
            "time": 46.799980500000004,
            "velocity": 0.3937007874015748
          },
          {
            "duration": 0.08571425000000232,
            "durationTicks": 96,
            "midi": 65,
            "name": "F4",
            "ticks": 52416,
            "time": 46.799980500000004,
            "velocity": 0.3937007874015748
          },
          {
            "duration": 0.08571425000000232,
            "durationTicks": 96,
            "midi": 64,
            "name": "E4",
            "ticks": 52608,
            "time": 46.971409,
            "velocity": 0.3937007874015748
          },
          {
            "duration": 0.08571425000000232,
            "durationTicks": 96,
            "midi": 52,
            "name": "E3",
            "ticks": 52608,
            "time": 46.971409,
            "velocity": 0.3937007874015748
          },
          {
            "duration": 0.08571425000000232,
            "durationTicks": 96,
            "midi": 53,
            "name": "F3",
            "ticks": 52704,
            "time": 47.057123250000004,
            "velocity": 0.3937007874015748
          },
          {
            "duration": 0.08571425000000232,
            "durationTicks": 96,
            "midi": 65,
            "name": "F4",
            "ticks": 52704,
            "time": 47.057123250000004,
            "velocity": 0.3937007874015748
          },
          {
            "duration": 0.08571424999999522,
            "durationTicks": 96,
            "midi": 52,
            "name": "E3",
            "ticks": 52800,
            "time": 47.142837500000006,
            "velocity": 0.3937007874015748
          },
          {
            "duration": 0.08571424999999522,
            "durationTicks": 96,
            "midi": 64,
            "name": "E4",
            "ticks": 52800,
            "time": 47.142837500000006,
            "velocity": 0.3937007874015748
          },
          {
            "duration": 0.08571425000000232,
            "durationTicks": 96,
            "midi": 67,
            "name": "G4",
            "ticks": 52992,
            "time": 47.314266,
            "velocity": 0.3937007874015748
          },
          {
            "duration": 0.08571425000000232,
            "durationTicks": 96,
            "midi": 55,
            "name": "G3",
            "ticks": 52992,
            "time": 47.314266,
            "velocity": 0.3937007874015748
          },
          {
            "duration": 0.08571425000000232,
            "durationTicks": 96,
            "midi": 65,
            "name": "F4",
            "ticks": 53184,
            "time": 47.4856945,
            "velocity": 0.3937007874015748
          },
          {
            "duration": 0.08571425000000232,
            "durationTicks": 96,
            "midi": 53,
            "name": "F3",
            "ticks": 53184,
            "time": 47.4856945,
            "velocity": 0.3937007874015748
          },
          {
            "duration": 0.08571424999999522,
            "durationTicks": 96,
            "midi": 52,
            "name": "E3",
            "ticks": 53376,
            "time": 47.657123000000006,
            "velocity": 0.3937007874015748
          },
          {
            "duration": 0.08571424999999522,
            "durationTicks": 96,
            "midi": 64,
            "name": "E4",
            "ticks": 53376,
            "time": 47.657123000000006,
            "velocity": 0.3937007874015748
          },
          {
            "duration": 0.08571425000000232,
            "durationTicks": 96,
            "midi": 65,
            "name": "F4",
            "ticks": 53472,
            "time": 47.74283725,
            "velocity": 0.3937007874015748
          },
          {
            "duration": 0.08571425000000232,
            "durationTicks": 96,
            "midi": 53,
            "name": "F3",
            "ticks": 53472,
            "time": 47.74283725,
            "velocity": 0.3937007874015748
          },
          {
            "duration": 0.08571425000000232,
            "durationTicks": 96,
            "midi": 64,
            "name": "E4",
            "ticks": 53568,
            "time": 47.8285515,
            "velocity": 0.3937007874015748
          },
          {
            "duration": 0.08571425000000232,
            "durationTicks": 96,
            "midi": 52,
            "name": "E3",
            "ticks": 53568,
            "time": 47.8285515,
            "velocity": 0.3937007874015748
          },
          {
            "duration": 0.08571424999999522,
            "durationTicks": 96,
            "midi": 60,
            "name": "C4",
            "ticks": 53664,
            "time": 47.914265750000006,
            "velocity": 0.3937007874015748
          },
          {
            "duration": 0.08571424999999522,
            "durationTicks": 96,
            "midi": 48,
            "name": "C3",
            "ticks": 53664,
            "time": 47.914265750000006,
            "velocity": 0.3937007874015748
          },
          {
            "duration": 0.08571425000000232,
            "durationTicks": 96,
            "midi": 62,
            "name": "D4",
            "ticks": 53760,
            "time": 47.99998,
            "velocity": 0.3937007874015748
          },
          {
            "duration": 0.08571425000000232,
            "durationTicks": 96,
            "midi": 50,
            "name": "D3",
            "ticks": 53760,
            "time": 47.99998,
            "velocity": 0.3937007874015748
          },
          {
            "duration": 0.08571424999999522,
            "durationTicks": 96,
            "midi": 69,
            "name": "A4",
            "ticks": 53952,
            "time": 48.171408500000005,
            "velocity": 0.3937007874015748
          },
          {
            "duration": 0.08571424999999522,
            "durationTicks": 96,
            "midi": 57,
            "name": "A3",
            "ticks": 53952,
            "time": 48.171408500000005,
            "velocity": 0.3937007874015748
          },
          {
            "duration": 0.08571425000000232,
            "durationTicks": 96,
            "midi": 55,
            "name": "G3",
            "ticks": 54144,
            "time": 48.342837,
            "velocity": 0.3937007874015748
          },
          {
            "duration": 0.08571425000000232,
            "durationTicks": 96,
            "midi": 67,
            "name": "G4",
            "ticks": 54144,
            "time": 48.342837,
            "velocity": 0.3937007874015748
          },
          {
            "duration": 0.08571424999999522,
            "durationTicks": 96,
            "midi": 57,
            "name": "A3",
            "ticks": 54240,
            "time": 48.428551250000005,
            "velocity": 0.3937007874015748
          },
          {
            "duration": 0.08571424999999522,
            "durationTicks": 96,
            "midi": 69,
            "name": "A4",
            "ticks": 54240,
            "time": 48.428551250000005,
            "velocity": 0.3937007874015748
          },
          {
            "duration": 0.08571425000000232,
            "durationTicks": 96,
            "midi": 67,
            "name": "G4",
            "ticks": 54336,
            "time": 48.5142655,
            "velocity": 0.3937007874015748
          },
          {
            "duration": 0.08571425000000232,
            "durationTicks": 96,
            "midi": 55,
            "name": "G3",
            "ticks": 54336,
            "time": 48.5142655,
            "velocity": 0.3937007874015748
          },
          {
            "duration": 0.08571425000000232,
            "durationTicks": 96,
            "midi": 57,
            "name": "A3",
            "ticks": 54432,
            "time": 48.59997975,
            "velocity": 0.3937007874015748
          },
          {
            "duration": 0.08571425000000232,
            "durationTicks": 96,
            "midi": 69,
            "name": "A4",
            "ticks": 54432,
            "time": 48.59997975,
            "velocity": 0.3937007874015748
          },
          {
            "duration": 0.08571424999999522,
            "durationTicks": 96,
            "midi": 73,
            "name": "C#5",
            "ticks": 54528,
            "time": 48.685694000000005,
            "velocity": 0.3937007874015748
          },
          {
            "duration": 0.08571424999999522,
            "durationTicks": 96,
            "midi": 61,
            "name": "C#4",
            "ticks": 54528,
            "time": 48.685694000000005,
            "velocity": 0.3937007874015748
          },
          {
            "duration": 0.08571425000000232,
            "durationTicks": 96,
            "midi": 69,
            "name": "A4",
            "ticks": 54720,
            "time": 48.8571225,
            "velocity": 0.3937007874015748
          },
          {
            "duration": 0.08571425000000232,
            "durationTicks": 96,
            "midi": 57,
            "name": "A3",
            "ticks": 54720,
            "time": 48.8571225,
            "velocity": 0.3937007874015748
          },
          {
            "duration": 0.08571425000000232,
            "durationTicks": 96,
            "midi": 55,
            "name": "G3",
            "ticks": 54912,
            "time": 49.028551,
            "velocity": 0.3937007874015748
          },
          {
            "duration": 0.08571425000000232,
            "durationTicks": 96,
            "midi": 67,
            "name": "G4",
            "ticks": 54912,
            "time": 49.028551,
            "velocity": 0.3937007874015748
          },
          {
            "duration": 0.08571424999999522,
            "durationTicks": 96,
            "midi": 64,
            "name": "E4",
            "ticks": 55104,
            "time": 49.199979500000005,
            "velocity": 0.3937007874015748
          },
          {
            "duration": 0.08571424999999522,
            "durationTicks": 96,
            "midi": 52,
            "name": "E3",
            "ticks": 55104,
            "time": 49.199979500000005,
            "velocity": 0.3937007874015748
          },
          {
            "duration": 0.08571425000000232,
            "durationTicks": 96,
            "midi": 53,
            "name": "F3",
            "ticks": 55296,
            "time": 49.371408,
            "velocity": 0.3937007874015748
          },
          {
            "duration": 0.08571425000000232,
            "durationTicks": 96,
            "midi": 65,
            "name": "F4",
            "ticks": 55296,
            "time": 49.371408,
            "velocity": 0.3937007874015748
          },
          {
            "duration": 0.08571425000000232,
            "durationTicks": 96,
            "midi": 64,
            "name": "E4",
            "ticks": 55488,
            "time": 49.5428365,
            "velocity": 0.3937007874015748
          },
          {
            "duration": 0.08571425000000232,
            "durationTicks": 96,
            "midi": 52,
            "name": "E3",
            "ticks": 55488,
            "time": 49.5428365,
            "velocity": 0.3937007874015748
          },
          {
            "duration": 0.08571425000000232,
            "durationTicks": 96,
            "midi": 65,
            "name": "F4",
            "ticks": 55584,
            "time": 49.62855075,
            "velocity": 0.3937007874015748
          },
          {
            "duration": 0.08571425000000232,
            "durationTicks": 96,
            "midi": 53,
            "name": "F3",
            "ticks": 55584,
            "time": 49.62855075,
            "velocity": 0.3937007874015748
          },
          {
            "duration": 0.08571424999999522,
            "durationTicks": 96,
            "midi": 52,
            "name": "E3",
            "ticks": 55680,
            "time": 49.714265000000005,
            "velocity": 0.3937007874015748
          },
          {
            "duration": 0.08571424999999522,
            "durationTicks": 96,
            "midi": 64,
            "name": "E4",
            "ticks": 55680,
            "time": 49.714265000000005,
            "velocity": 0.3937007874015748
          },
          {
            "duration": 0.08571425000000232,
            "durationTicks": 96,
            "midi": 48,
            "name": "C3",
            "ticks": 55872,
            "time": 49.8856935,
            "velocity": 0.3937007874015748
          },
          {
            "duration": 0.08571425000000232,
            "durationTicks": 96,
            "midi": 60,
            "name": "C4",
            "ticks": 55872,
            "time": 49.8856935,
            "velocity": 0.3937007874015748
          },
          {
            "duration": 0.08571424999999522,
            "durationTicks": 96,
            "midi": 50,
            "name": "D3",
            "ticks": 56064,
            "time": 50.05712200000001,
            "velocity": 0.3937007874015748
          },
          {
            "duration": 0.08571424999999522,
            "durationTicks": 96,
            "midi": 62,
            "name": "D4",
            "ticks": 56064,
            "time": 50.05712200000001,
            "velocity": 0.3937007874015748
          },
          {
            "duration": 0.08571425000000232,
            "durationTicks": 96,
            "midi": 60,
            "name": "C4",
            "ticks": 56256,
            "time": 50.228550500000004,
            "velocity": 0.3937007874015748
          },
          {
            "duration": 0.08571425000000232,
            "durationTicks": 96,
            "midi": 48,
            "name": "C3",
            "ticks": 56256,
            "time": 50.228550500000004,
            "velocity": 0.3937007874015748
          },
          {
            "duration": 0.08571425000000232,
            "durationTicks": 96,
            "midi": 43,
            "name": "G2",
            "ticks": 56448,
            "time": 50.399979,
            "velocity": 0.3937007874015748
          },
          {
            "duration": 0.08571425000000232,
            "durationTicks": 96,
            "midi": 55,
            "name": "G3",
            "ticks": 56448,
            "time": 50.399979,
            "velocity": 0.3937007874015748
          },
          {
            "duration": 0.08571424999999522,
            "durationTicks": 96,
            "midi": 52,
            "name": "E3",
            "ticks": 56640,
            "time": 50.57140750000001,
            "velocity": 0.3937007874015748
          },
          {
            "duration": 0.08571424999999522,
            "durationTicks": 96,
            "midi": 40,
            "name": "E2",
            "ticks": 56640,
            "time": 50.57140750000001,
            "velocity": 0.3937007874015748
          },
          {
            "duration": 0.08571425000000232,
            "durationTicks": 96,
            "midi": 38,
            "name": "D2",
            "ticks": 56832,
            "time": 50.742836000000004,
            "velocity": 0.3937007874015748
          },
          {
            "duration": 0.08571425000000232,
            "durationTicks": 96,
            "midi": 50,
            "name": "D3",
            "ticks": 56832,
            "time": 50.742836000000004,
            "velocity": 0.3937007874015748
          },
          {
            "duration": 0.08571425000000232,
            "durationTicks": 96,
            "midi": 52,
            "name": "E3",
            "ticks": 57024,
            "time": 50.9142645,
            "velocity": 0.3937007874015748
          },
          {
            "duration": 0.08571425000000232,
            "durationTicks": 96,
            "midi": 40,
            "name": "E2",
            "ticks": 57024,
            "time": 50.9142645,
            "velocity": 0.3937007874015748
          },
          {
            "duration": 0.08571424999999522,
            "durationTicks": 96,
            "midi": 53,
            "name": "F3",
            "ticks": 57216,
            "time": 51.085693000000006,
            "velocity": 0.3937007874015748
          },
          {
            "duration": 0.08571424999999522,
            "durationTicks": 96,
            "midi": 41,
            "name": "F2",
            "ticks": 57216,
            "time": 51.085693000000006,
            "velocity": 0.3937007874015748
          },
          {
            "duration": 0.08571425000000232,
            "durationTicks": 96,
            "midi": 55,
            "name": "G3",
            "ticks": 57408,
            "time": 51.257121500000004,
            "velocity": 0.3937007874015748
          },
          {
            "duration": 0.08571425000000232,
            "durationTicks": 96,
            "midi": 43,
            "name": "G2",
            "ticks": 57408,
            "time": 51.257121500000004,
            "velocity": 0.3937007874015748
          },
          {
            "duration": 0.08571425000000232,
            "durationTicks": 96,
            "midi": 57,
            "name": "A3",
            "ticks": 57600,
            "time": 51.42855,
            "velocity": 0.3937007874015748
          },
          {
            "duration": 0.08571425000000232,
            "durationTicks": 96,
            "midi": 45,
            "name": "A2",
            "ticks": 57600,
            "time": 51.42855,
            "velocity": 0.3937007874015748
          },
          {
            "duration": 0.08571424999999522,
            "durationTicks": 96,
            "midi": 49,
            "name": "C#3",
            "ticks": 57792,
            "time": 51.599978500000006,
            "velocity": 0.3937007874015748
          },
          {
            "duration": 0.08571424999999522,
            "durationTicks": 96,
            "midi": 61,
            "name": "C#4",
            "ticks": 57792,
            "time": 51.599978500000006,
            "velocity": 0.3937007874015748
          },
          {
            "duration": 0.08571425000000232,
            "durationTicks": 96,
            "midi": 50,
            "name": "D3",
            "ticks": 57984,
            "time": 51.771407,
            "velocity": 0.3937007874015748
          },
          {
            "duration": 0.08571425000000232,
            "durationTicks": 96,
            "midi": 62,
            "name": "D4",
            "ticks": 57984,
            "time": 51.771407,
            "velocity": 0.3937007874015748
          },
          {
            "duration": 0.08571425000000232,
            "durationTicks": 96,
            "midi": 52,
            "name": "E3",
            "ticks": 58176,
            "time": 51.9428355,
            "velocity": 0.3937007874015748
          },
          {
            "duration": 0.08571425000000232,
            "durationTicks": 96,
            "midi": 64,
            "name": "E4",
            "ticks": 58176,
            "time": 51.9428355,
            "velocity": 0.3937007874015748
          },
          {
            "duration": 0.08571424999999522,
            "durationTicks": 96,
            "midi": 49,
            "name": "C#3",
            "ticks": 58368,
            "time": 52.114264000000006,
            "velocity": 0.3937007874015748
          },
          {
            "duration": 0.08571424999999522,
            "durationTicks": 96,
            "midi": 61,
            "name": "C#4",
            "ticks": 58368,
            "time": 52.114264000000006,
            "velocity": 0.3937007874015748
          },
          {
            "duration": 0.08571425000000232,
            "durationTicks": 96,
            "midi": 57,
            "name": "A3",
            "ticks": 58560,
            "time": 52.2856925,
            "velocity": 0.3937007874015748
          },
          {
            "duration": 0.08571425000000232,
            "durationTicks": 96,
            "midi": 69,
            "name": "A4",
            "ticks": 58560,
            "time": 52.2856925,
            "velocity": 0.3937007874015748
          },
          {
            "duration": 0.08571425000000232,
            "durationTicks": 96,
            "midi": 67,
            "name": "G4",
            "ticks": 58752,
            "time": 52.457121,
            "velocity": 0.3937007874015748
          },
          {
            "duration": 0.08571425000000232,
            "durationTicks": 96,
            "midi": 55,
            "name": "G3",
            "ticks": 58752,
            "time": 52.457121,
            "velocity": 0.3937007874015748
          },
          {
            "duration": 0.08571425000000232,
            "durationTicks": 96,
            "midi": 57,
            "name": "A3",
            "ticks": 58848,
            "time": 52.54283525,
            "velocity": 0.3937007874015748
          },
          {
            "duration": 0.08571425000000232,
            "durationTicks": 96,
            "midi": 69,
            "name": "A4",
            "ticks": 58848,
            "time": 52.54283525,
            "velocity": 0.3937007874015748
          },
          {
            "duration": 0.08571424999999522,
            "durationTicks": 96,
            "midi": 67,
            "name": "G4",
            "ticks": 58944,
            "time": 52.628549500000005,
            "velocity": 0.3937007874015748
          },
          {
            "duration": 0.08571424999999522,
            "durationTicks": 96,
            "midi": 55,
            "name": "G3",
            "ticks": 58944,
            "time": 52.628549500000005,
            "velocity": 0.3937007874015748
          },
          {
            "duration": 0.08571425000000232,
            "durationTicks": 96,
            "midi": 57,
            "name": "A3",
            "ticks": 59040,
            "time": 52.71426375,
            "velocity": 0.3937007874015748
          },
          {
            "duration": 0.08571425000000232,
            "durationTicks": 96,
            "midi": 69,
            "name": "A4",
            "ticks": 59040,
            "time": 52.71426375,
            "velocity": 0.3937007874015748
          },
          {
            "duration": 0.08571425000000232,
            "durationTicks": 96,
            "midi": 73,
            "name": "C#5",
            "ticks": 59136,
            "time": 52.799978,
            "velocity": 0.3937007874015748
          },
          {
            "duration": 0.08571425000000232,
            "durationTicks": 96,
            "midi": 61,
            "name": "C#4",
            "ticks": 59136,
            "time": 52.799978,
            "velocity": 0.3937007874015748
          },
          {
            "duration": 0.08571425000000232,
            "durationTicks": 96,
            "midi": 57,
            "name": "A3",
            "ticks": 59328,
            "time": 52.9714065,
            "velocity": 0.3937007874015748
          },
          {
            "duration": 0.08571425000000232,
            "durationTicks": 96,
            "midi": 69,
            "name": "A4",
            "ticks": 59328,
            "time": 52.9714065,
            "velocity": 0.3937007874015748
          },
          {
            "duration": 0.08571424999999522,
            "durationTicks": 96,
            "midi": 67,
            "name": "G4",
            "ticks": 59520,
            "time": 53.142835000000005,
            "velocity": 0.3937007874015748
          },
          {
            "duration": 0.08571424999999522,
            "durationTicks": 96,
            "midi": 55,
            "name": "G3",
            "ticks": 59520,
            "time": 53.142835000000005,
            "velocity": 0.3937007874015748
          },
          {
            "duration": 0.08571425000000232,
            "durationTicks": 96,
            "midi": 57,
            "name": "A3",
            "ticks": 59616,
            "time": 53.22854925,
            "velocity": 0.3937007874015748
          },
          {
            "duration": 0.08571425000000232,
            "durationTicks": 96,
            "midi": 69,
            "name": "A4",
            "ticks": 59616,
            "time": 53.22854925,
            "velocity": 0.3937007874015748
          },
          {
            "duration": 0.08571425000000232,
            "durationTicks": 96,
            "midi": 55,
            "name": "G3",
            "ticks": 59712,
            "time": 53.3142635,
            "velocity": 0.3937007874015748
          },
          {
            "duration": 0.08571425000000232,
            "durationTicks": 96,
            "midi": 67,
            "name": "G4",
            "ticks": 59712,
            "time": 53.3142635,
            "velocity": 0.3937007874015748
          },
          {
            "duration": 0.08571424999999522,
            "durationTicks": 96,
            "midi": 57,
            "name": "A3",
            "ticks": 59808,
            "time": 53.399977750000005,
            "velocity": 0.3937007874015748
          },
          {
            "duration": 0.08571424999999522,
            "durationTicks": 96,
            "midi": 69,
            "name": "A4",
            "ticks": 59808,
            "time": 53.399977750000005,
            "velocity": 0.3937007874015748
          },
          {
            "duration": 0.08571425000000232,
            "durationTicks": 96,
            "midi": 49,
            "name": "C#3",
            "ticks": 59904,
            "time": 53.485692,
            "velocity": 0.3937007874015748
          },
          {
            "duration": 0.08571425000000232,
            "durationTicks": 96,
            "midi": 61,
            "name": "C#4",
            "ticks": 59904,
            "time": 53.485692,
            "velocity": 0.3937007874015748
          },
          {
            "duration": 0.08571424999999522,
            "durationTicks": 96,
            "midi": 57,
            "name": "A3",
            "ticks": 60096,
            "time": 53.657120500000005,
            "velocity": 0.3937007874015748
          },
          {
            "duration": 0.08571424999999522,
            "durationTicks": 96,
            "midi": 69,
            "name": "A4",
            "ticks": 60096,
            "time": 53.657120500000005,
            "velocity": 0.3937007874015748
          },
          {
            "duration": 0.08571425000000232,
            "durationTicks": 96,
            "midi": 67,
            "name": "G4",
            "ticks": 60288,
            "time": 53.828549,
            "velocity": 0.3937007874015748
          },
          {
            "duration": 0.08571425000000232,
            "durationTicks": 96,
            "midi": 55,
            "name": "G3",
            "ticks": 60288,
            "time": 53.828549,
            "velocity": 0.3937007874015748
          },
          {
            "duration": 0.08571425000000232,
            "durationTicks": 96,
            "midi": 57,
            "name": "A3",
            "ticks": 60384,
            "time": 53.914263250000005,
            "velocity": 0.3937007874015748
          },
          {
            "duration": 0.08571425000000232,
            "durationTicks": 96,
            "midi": 69,
            "name": "A4",
            "ticks": 60384,
            "time": 53.914263250000005,
            "velocity": 0.3937007874015748
          },
          {
            "duration": 0.08571424999999522,
            "durationTicks": 96,
            "midi": 67,
            "name": "G4",
            "ticks": 60480,
            "time": 53.99997750000001,
            "velocity": 0.3937007874015748
          },
          {
            "duration": 0.08571424999999522,
            "durationTicks": 96,
            "midi": 55,
            "name": "G3",
            "ticks": 60480,
            "time": 53.99997750000001,
            "velocity": 0.3937007874015748
          },
          {
            "duration": 0.08571425000000232,
            "durationTicks": 96,
            "midi": 57,
            "name": "A3",
            "ticks": 60576,
            "time": 54.08569175,
            "velocity": 0.3937007874015748
          },
          {
            "duration": 0.08571425000000232,
            "durationTicks": 96,
            "midi": 69,
            "name": "A4",
            "ticks": 60576,
            "time": 54.08569175,
            "velocity": 0.3937007874015748
          },
          {
            "duration": 0.08571425000000232,
            "durationTicks": 96,
            "midi": 73,
            "name": "C#5",
            "ticks": 60672,
            "time": 54.171406000000005,
            "velocity": 0.3937007874015748
          },
          {
            "duration": 0.08571425000000232,
            "durationTicks": 96,
            "midi": 61,
            "name": "C#4",
            "ticks": 60672,
            "time": 54.171406000000005,
            "velocity": 0.3937007874015748
          },
          {
            "duration": 0.08571425000000232,
            "durationTicks": 96,
            "midi": 76,
            "name": "E5",
            "ticks": 60864,
            "time": 54.3428345,
            "velocity": 0.3937007874015748
          },
          {
            "duration": 0.08571425000000232,
            "durationTicks": 96,
            "midi": 64,
            "name": "E4",
            "ticks": 60864,
            "time": 54.3428345,
            "velocity": 0.3937007874015748
          },
          {
            "duration": 0.08571424999999522,
            "durationTicks": 96,
            "midi": 61,
            "name": "C#4",
            "ticks": 61056,
            "time": 54.51426300000001,
            "velocity": 0.3937007874015748
          },
          {
            "duration": 0.08571424999999522,
            "durationTicks": 96,
            "midi": 73,
            "name": "C#5",
            "ticks": 61056,
            "time": 54.51426300000001,
            "velocity": 0.3937007874015748
          },
          {
            "duration": 0.08571425000000232,
            "durationTicks": 96,
            "midi": 69,
            "name": "A4",
            "ticks": 61248,
            "time": 54.685691500000004,
            "velocity": 0.3937007874015748
          },
          {
            "duration": 0.08571425000000232,
            "durationTicks": 96,
            "midi": 57,
            "name": "A3",
            "ticks": 61248,
            "time": 54.685691500000004,
            "velocity": 0.3937007874015748
          },
          {
            "duration": 0.08571425000000232,
            "durationTicks": 96,
            "midi": 57,
            "name": "A3",
            "ticks": 61440,
            "time": 54.85712,
            "velocity": 0.3937007874015748
          },
          {
            "duration": 0.08571425000000232,
            "durationTicks": 96,
            "midi": 45,
            "name": "A2",
            "ticks": 61440,
            "time": 54.85712,
            "velocity": 0.3937007874015748
          },
          {
            "duration": 0.08571424999999522,
            "durationTicks": 96,
            "midi": 65,
            "name": "F4",
            "ticks": 61632,
            "time": 55.02854850000001,
            "velocity": 0.3937007874015748
          },
          {
            "duration": 0.08571424999999522,
            "durationTicks": 96,
            "midi": 53,
            "name": "F3",
            "ticks": 61632,
            "time": 55.02854850000001,
            "velocity": 0.3937007874015748
          },
          {
            "duration": 0.08571425000000232,
            "durationTicks": 96,
            "midi": 52,
            "name": "E3",
            "ticks": 61824,
            "time": 55.199977000000004,
            "velocity": 0.3937007874015748
          },
          {
            "duration": 0.08571425000000232,
            "durationTicks": 96,
            "midi": 64,
            "name": "E4",
            "ticks": 61824,
            "time": 55.199977000000004,
            "velocity": 0.3937007874015748
          },
          {
            "duration": 0.08571424999999522,
            "durationTicks": 96,
            "midi": 65,
            "name": "F4",
            "ticks": 61920,
            "time": 55.285691250000006,
            "velocity": 0.3937007874015748
          },
          {
            "duration": 0.08571424999999522,
            "durationTicks": 96,
            "midi": 53,
            "name": "F3",
            "ticks": 61920,
            "time": 55.285691250000006,
            "velocity": 0.3937007874015748
          },
          {
            "duration": 0.08571425000000232,
            "durationTicks": 96,
            "midi": 52,
            "name": "E3",
            "ticks": 62016,
            "time": 55.3714055,
            "velocity": 0.3937007874015748
          },
          {
            "duration": 0.08571425000000232,
            "durationTicks": 96,
            "midi": 64,
            "name": "E4",
            "ticks": 62016,
            "time": 55.3714055,
            "velocity": 0.3937007874015748
          },
          {
            "duration": 0.08571424999999522,
            "durationTicks": 96,
            "midi": 55,
            "name": "G3",
            "ticks": 62208,
            "time": 55.542834000000006,
            "velocity": 0.3937007874015748
          },
          {
            "duration": 0.08571424999999522,
            "durationTicks": 96,
            "midi": 67,
            "name": "G4",
            "ticks": 62208,
            "time": 55.542834000000006,
            "velocity": 0.3937007874015748
          },
          {
            "duration": 0.08571425000000232,
            "durationTicks": 96,
            "midi": 65,
            "name": "F4",
            "ticks": 62400,
            "time": 55.714262500000004,
            "velocity": 0.3937007874015748
          },
          {
            "duration": 0.08571425000000232,
            "durationTicks": 96,
            "midi": 53,
            "name": "F3",
            "ticks": 62400,
            "time": 55.714262500000004,
            "velocity": 0.3937007874015748
          },
          {
            "duration": 0.08571425000000232,
            "durationTicks": 96,
            "midi": 64,
            "name": "E4",
            "ticks": 62592,
            "time": 55.885691,
            "velocity": 0.3937007874015748
          },
          {
            "duration": 0.08571425000000232,
            "durationTicks": 96,
            "midi": 52,
            "name": "E3",
            "ticks": 62592,
            "time": 55.885691,
            "velocity": 0.3937007874015748
          },
          {
            "duration": 0.08571425000000232,
            "durationTicks": 96,
            "midi": 65,
            "name": "F4",
            "ticks": 62688,
            "time": 55.971405250000004,
            "velocity": 0.3937007874015748
          },
          {
            "duration": 0.08571425000000232,
            "durationTicks": 96,
            "midi": 53,
            "name": "F3",
            "ticks": 62688,
            "time": 55.971405250000004,
            "velocity": 0.3937007874015748
          },
          {
            "duration": 0.08571424999999522,
            "durationTicks": 96,
            "midi": 52,
            "name": "E3",
            "ticks": 62784,
            "time": 56.057119500000006,
            "velocity": 0.3937007874015748
          },
          {
            "duration": 0.08571424999999522,
            "durationTicks": 96,
            "midi": 64,
            "name": "E4",
            "ticks": 62784,
            "time": 56.057119500000006,
            "velocity": 0.3937007874015748
          },
          {
            "duration": 0.08571425000000232,
            "durationTicks": 96,
            "midi": 48,
            "name": "C3",
            "ticks": 62880,
            "time": 56.14283375,
            "velocity": 0.3937007874015748
          },
          {
            "duration": 0.08571425000000232,
            "durationTicks": 96,
            "midi": 60,
            "name": "C4",
            "ticks": 62880,
            "time": 56.14283375,
            "velocity": 0.3937007874015748
          },
          {
            "duration": 0.08571425000000232,
            "durationTicks": 96,
            "midi": 50,
            "name": "D3",
            "ticks": 62976,
            "time": 56.228548,
            "velocity": 0.3937007874015748
          },
          {
            "duration": 0.08571425000000232,
            "durationTicks": 96,
            "midi": 62,
            "name": "D4",
            "ticks": 62976,
            "time": 56.228548,
            "velocity": 0.3937007874015748
          },
          {
            "duration": 0.08571425000000232,
            "durationTicks": 96,
            "midi": 57,
            "name": "A3",
            "ticks": 63168,
            "time": 56.3999765,
            "velocity": 0.3937007874015748
          },
          {
            "duration": 0.08571425000000232,
            "durationTicks": 96,
            "midi": 69,
            "name": "A4",
            "ticks": 63168,
            "time": 56.3999765,
            "velocity": 0.3937007874015748
          },
          {
            "duration": 0.08571424999999522,
            "durationTicks": 96,
            "midi": 55,
            "name": "G3",
            "ticks": 63360,
            "time": 56.571405000000006,
            "velocity": 0.3937007874015748
          },
          {
            "duration": 0.08571424999999522,
            "durationTicks": 96,
            "midi": 67,
            "name": "G4",
            "ticks": 63360,
            "time": 56.571405000000006,
            "velocity": 0.3937007874015748
          },
          {
            "duration": 0.08571425000000232,
            "durationTicks": 96,
            "midi": 69,
            "name": "A4",
            "ticks": 63456,
            "time": 56.65711925,
            "velocity": 0.3937007874015748
          },
          {
            "duration": 0.08571425000000232,
            "durationTicks": 96,
            "midi": 57,
            "name": "A3",
            "ticks": 63456,
            "time": 56.65711925,
            "velocity": 0.3937007874015748
          },
          {
            "duration": 0.08571425000000232,
            "durationTicks": 96,
            "midi": 55,
            "name": "G3",
            "ticks": 63552,
            "time": 56.7428335,
            "velocity": 0.3937007874015748
          },
          {
            "duration": 0.08571425000000232,
            "durationTicks": 96,
            "midi": 67,
            "name": "G4",
            "ticks": 63552,
            "time": 56.7428335,
            "velocity": 0.3937007874015748
          },
          {
            "duration": 0.08571424999999522,
            "durationTicks": 96,
            "midi": 69,
            "name": "A4",
            "ticks": 63648,
            "time": 56.828547750000006,
            "velocity": 0.3937007874015748
          },
          {
            "duration": 0.08571424999999522,
            "durationTicks": 96,
            "midi": 57,
            "name": "A3",
            "ticks": 63648,
            "time": 56.828547750000006,
            "velocity": 0.3937007874015748
          },
          {
            "duration": 0.08571425000000232,
            "durationTicks": 96,
            "midi": 72,
            "name": "C5",
            "ticks": 63744,
            "time": 56.914262,
            "velocity": 0.3937007874015748
          },
          {
            "duration": 0.08571425000000232,
            "durationTicks": 96,
            "midi": 60,
            "name": "C4",
            "ticks": 63744,
            "time": 56.914262,
            "velocity": 0.3937007874015748
          },
          {
            "duration": 0.08571424999999522,
            "durationTicks": 96,
            "midi": 69,
            "name": "A4",
            "ticks": 63936,
            "time": 57.085690500000005,
            "velocity": 0.3937007874015748
          },
          {
            "duration": 0.08571424999999522,
            "durationTicks": 96,
            "midi": 57,
            "name": "A3",
            "ticks": 63936,
            "time": 57.085690500000005,
            "velocity": 0.3937007874015748
          },
          {
            "duration": 0.08571425000000232,
            "durationTicks": 96,
            "midi": 67,
            "name": "G4",
            "ticks": 64128,
            "time": 57.257119,
            "velocity": 0.3937007874015748
          },
          {
            "duration": 0.08571425000000232,
            "durationTicks": 96,
            "midi": 55,
            "name": "G3",
            "ticks": 64128,
            "time": 57.257119,
            "velocity": 0.3937007874015748
          },
          {
            "duration": 0.08571425000000232,
            "durationTicks": 96,
            "midi": 69,
            "name": "A4",
            "ticks": 64320,
            "time": 57.4285475,
            "velocity": 0.3937007874015748
          },
          {
            "duration": 0.08571425000000232,
            "durationTicks": 96,
            "midi": 57,
            "name": "A3",
            "ticks": 64320,
            "time": 57.4285475,
            "velocity": 0.3937007874015748
          },
          {
            "duration": 0.08571424999999522,
            "durationTicks": 96,
            "midi": 58,
            "name": "A#3",
            "ticks": 64512,
            "time": 57.599976000000005,
            "velocity": 0.3937007874015748
          },
          {
            "duration": 0.08571424999999522,
            "durationTicks": 96,
            "midi": 46,
            "name": "A#2",
            "ticks": 64512,
            "time": 57.599976000000005,
            "velocity": 0.3937007874015748
          },
          {
            "duration": 0.08571425000000232,
            "durationTicks": 96,
            "midi": 65,
            "name": "F4",
            "ticks": 64704,
            "time": 57.7714045,
            "velocity": 0.3937007874015748
          },
          {
            "duration": 0.08571425000000232,
            "durationTicks": 96,
            "midi": 53,
            "name": "F3",
            "ticks": 64704,
            "time": 57.7714045,
            "velocity": 0.3937007874015748
          },
          {
            "duration": 0.08571424999999522,
            "durationTicks": 96,
            "midi": 52,
            "name": "E3",
            "ticks": 64896,
            "time": 57.94283300000001,
            "velocity": 0.3937007874015748
          },
          {
            "duration": 0.08571424999999522,
            "durationTicks": 96,
            "midi": 64,
            "name": "E4",
            "ticks": 64896,
            "time": 57.94283300000001,
            "velocity": 0.3937007874015748
          },
          {
            "duration": 0.08571425000000232,
            "durationTicks": 96,
            "midi": 53,
            "name": "F3",
            "ticks": 64992,
            "time": 58.02854725,
            "velocity": 0.3937007874015748
          },
          {
            "duration": 0.08571425000000232,
            "durationTicks": 96,
            "midi": 65,
            "name": "F4",
            "ticks": 64992,
            "time": 58.02854725,
            "velocity": 0.3937007874015748
          },
          {
            "duration": 0.08571425000000232,
            "durationTicks": 96,
            "midi": 52,
            "name": "E3",
            "ticks": 65088,
            "time": 58.114261500000005,
            "velocity": 0.3937007874015748
          },
          {
            "duration": 0.08571425000000232,
            "durationTicks": 96,
            "midi": 64,
            "name": "E4",
            "ticks": 65088,
            "time": 58.114261500000005,
            "velocity": 0.3937007874015748
          },
          {
            "duration": 0.08571425000000232,
            "durationTicks": 96,
            "midi": 55,
            "name": "G3",
            "ticks": 65280,
            "time": 58.28569,
            "velocity": 0.3937007874015748
          },
          {
            "duration": 0.08571425000000232,
            "durationTicks": 96,
            "midi": 67,
            "name": "G4",
            "ticks": 65280,
            "time": 58.28569,
            "velocity": 0.3937007874015748
          },
          {
            "duration": 0.08571424999999522,
            "durationTicks": 96,
            "midi": 53,
            "name": "F3",
            "ticks": 65472,
            "time": 58.45711850000001,
            "velocity": 0.3937007874015748
          },
          {
            "duration": 0.08571424999999522,
            "durationTicks": 96,
            "midi": 65,
            "name": "F4",
            "ticks": 65472,
            "time": 58.45711850000001,
            "velocity": 0.3937007874015748
          },
          {
            "duration": 0.08571425000000232,
            "durationTicks": 96,
            "midi": 52,
            "name": "E3",
            "ticks": 65664,
            "time": 58.628547000000005,
            "velocity": 0.3937007874015748
          },
          {
            "duration": 0.08571425000000232,
            "durationTicks": 96,
            "midi": 64,
            "name": "E4",
            "ticks": 65664,
            "time": 58.628547000000005,
            "velocity": 0.3937007874015748
          },
          {
            "duration": 0.08571424999999522,
            "durationTicks": 96,
            "midi": 53,
            "name": "F3",
            "ticks": 65760,
            "time": 58.71426125000001,
            "velocity": 0.3937007874015748
          },
          {
            "duration": 0.08571424999999522,
            "durationTicks": 96,
            "midi": 65,
            "name": "F4",
            "ticks": 65760,
            "time": 58.71426125000001,
            "velocity": 0.3937007874015748
          },
          {
            "duration": 0.08571425000000232,
            "durationTicks": 96,
            "midi": 64,
            "name": "E4",
            "ticks": 65856,
            "time": 58.7999755,
            "velocity": 0.3937007874015748
          },
          {
            "duration": 0.08571425000000232,
            "durationTicks": 96,
            "midi": 52,
            "name": "E3",
            "ticks": 65856,
            "time": 58.7999755,
            "velocity": 0.3937007874015748
          },
          {
            "duration": 0.08571425000000232,
            "durationTicks": 96,
            "midi": 48,
            "name": "C3",
            "ticks": 65952,
            "time": 58.885689750000004,
            "velocity": 0.3937007874015748
          },
          {
            "duration": 0.08571425000000232,
            "durationTicks": 96,
            "midi": 60,
            "name": "C4",
            "ticks": 65952,
            "time": 58.885689750000004,
            "velocity": 0.3937007874015748
          },
          {
            "duration": 0.08571424999999522,
            "durationTicks": 96,
            "midi": 50,
            "name": "D3",
            "ticks": 66048,
            "time": 58.97140400000001,
            "velocity": 0.3937007874015748
          },
          {
            "duration": 0.08571424999999522,
            "durationTicks": 96,
            "midi": 62,
            "name": "D4",
            "ticks": 66048,
            "time": 58.97140400000001,
            "velocity": 0.3937007874015748
          },
          {
            "duration": 0.08571425000000232,
            "durationTicks": 96,
            "midi": 69,
            "name": "A4",
            "ticks": 66240,
            "time": 59.142832500000004,
            "velocity": 0.3937007874015748
          },
          {
            "duration": 0.08571425000000232,
            "durationTicks": 96,
            "midi": 57,
            "name": "A3",
            "ticks": 66240,
            "time": 59.142832500000004,
            "velocity": 0.3937007874015748
          },
          {
            "duration": 0.08571425000000232,
            "durationTicks": 96,
            "midi": 67,
            "name": "G4",
            "ticks": 66432,
            "time": 59.314261,
            "velocity": 0.3937007874015748
          },
          {
            "duration": 0.08571425000000232,
            "durationTicks": 96,
            "midi": 55,
            "name": "G3",
            "ticks": 66432,
            "time": 59.314261,
            "velocity": 0.3937007874015748
          },
          {
            "duration": 0.08571425000000232,
            "durationTicks": 96,
            "midi": 69,
            "name": "A4",
            "ticks": 66528,
            "time": 59.399975250000004,
            "velocity": 0.3937007874015748
          },
          {
            "duration": 0.08571425000000232,
            "durationTicks": 96,
            "midi": 57,
            "name": "A3",
            "ticks": 66528,
            "time": 59.399975250000004,
            "velocity": 0.3937007874015748
          },
          {
            "duration": 0.08571424999999522,
            "durationTicks": 96,
            "midi": 55,
            "name": "G3",
            "ticks": 66624,
            "time": 59.48568950000001,
            "velocity": 0.3937007874015748
          },
          {
            "duration": 0.08571424999999522,
            "durationTicks": 96,
            "midi": 67,
            "name": "G4",
            "ticks": 66624,
            "time": 59.48568950000001,
            "velocity": 0.3937007874015748
          },
          {
            "duration": 0.08571425000000232,
            "durationTicks": 96,
            "midi": 57,
            "name": "A3",
            "ticks": 66720,
            "time": 59.57140375,
            "velocity": 0.3937007874015748
          },
          {
            "duration": 0.08571425000000232,
            "durationTicks": 96,
            "midi": 69,
            "name": "A4",
            "ticks": 66720,
            "time": 59.57140375,
            "velocity": 0.3937007874015748
          },
          {
            "duration": 0.08571425000000232,
            "durationTicks": 96,
            "midi": 61,
            "name": "C#4",
            "ticks": 66816,
            "time": 59.657118000000004,
            "velocity": 0.3937007874015748
          },
          {
            "duration": 0.08571425000000232,
            "durationTicks": 96,
            "midi": 73,
            "name": "C#5",
            "ticks": 66816,
            "time": 59.657118000000004,
            "velocity": 0.3937007874015748
          },
          {
            "duration": 0.08571425000000232,
            "durationTicks": 96,
            "midi": 69,
            "name": "A4",
            "ticks": 67008,
            "time": 59.8285465,
            "velocity": 0.3937007874015748
          },
          {
            "duration": 0.08571425000000232,
            "durationTicks": 96,
            "midi": 57,
            "name": "A3",
            "ticks": 67008,
            "time": 59.8285465,
            "velocity": 0.3937007874015748
          },
          {
            "duration": 0.08571424999999522,
            "durationTicks": 96,
            "midi": 67,
            "name": "G4",
            "ticks": 67200,
            "time": 59.999975000000006,
            "velocity": 0.3937007874015748
          },
          {
            "duration": 0.08571424999999522,
            "durationTicks": 96,
            "midi": 55,
            "name": "G3",
            "ticks": 67200,
            "time": 59.999975000000006,
            "velocity": 0.3937007874015748
          },
          {
            "duration": 0.08571425000000232,
            "durationTicks": 96,
            "midi": 64,
            "name": "E4",
            "ticks": 67392,
            "time": 60.171403500000004,
            "velocity": 0.3937007874015748
          },
          {
            "duration": 0.08571425000000232,
            "durationTicks": 96,
            "midi": 52,
            "name": "E3",
            "ticks": 67392,
            "time": 60.171403500000004,
            "velocity": 0.3937007874015748
          },
          {
            "duration": 0.08571425000000232,
            "durationTicks": 96,
            "midi": 65,
            "name": "F4",
            "ticks": 67584,
            "time": 60.342832,
            "velocity": 0.3937007874015748
          },
          {
            "duration": 0.08571425000000232,
            "durationTicks": 96,
            "midi": 53,
            "name": "F3",
            "ticks": 67584,
            "time": 60.342832,
            "velocity": 0.3937007874015748
          },
          {
            "duration": 0.08571424999999522,
            "durationTicks": 96,
            "midi": 64,
            "name": "E4",
            "ticks": 67776,
            "time": 60.514260500000006,
            "velocity": 0.3937007874015748
          },
          {
            "duration": 0.08571424999999522,
            "durationTicks": 96,
            "midi": 52,
            "name": "E3",
            "ticks": 67776,
            "time": 60.514260500000006,
            "velocity": 0.3937007874015748
          },
          {
            "duration": 0.08571425000000232,
            "durationTicks": 96,
            "midi": 53,
            "name": "F3",
            "ticks": 67872,
            "time": 60.59997475,
            "velocity": 0.3937007874015748
          },
          {
            "duration": 0.08571425000000232,
            "durationTicks": 96,
            "midi": 65,
            "name": "F4",
            "ticks": 67872,
            "time": 60.59997475,
            "velocity": 0.3937007874015748
          },
          {
            "duration": 0.08571425000000232,
            "durationTicks": 96,
            "midi": 52,
            "name": "E3",
            "ticks": 67968,
            "time": 60.685689,
            "velocity": 0.3937007874015748
          },
          {
            "duration": 0.08571425000000232,
            "durationTicks": 96,
            "midi": 64,
            "name": "E4",
            "ticks": 67968,
            "time": 60.685689,
            "velocity": 0.3937007874015748
          },
          {
            "duration": 0.08571425000000232,
            "durationTicks": 96,
            "midi": 60,
            "name": "C4",
            "ticks": 68160,
            "time": 60.8571175,
            "velocity": 0.3937007874015748
          },
          {
            "duration": 0.08571425000000232,
            "durationTicks": 96,
            "midi": 48,
            "name": "C3",
            "ticks": 68160,
            "time": 60.8571175,
            "velocity": 0.3937007874015748
          },
          {
            "duration": 0.08571424999999522,
            "durationTicks": 96,
            "midi": 62,
            "name": "D4",
            "ticks": 68352,
            "time": 61.028546000000006,
            "velocity": 0.3937007874015748
          },
          {
            "duration": 0.08571424999999522,
            "durationTicks": 96,
            "midi": 50,
            "name": "D3",
            "ticks": 68352,
            "time": 61.028546000000006,
            "velocity": 0.3937007874015748
          },
          {
            "duration": 0.08571425000000232,
            "durationTicks": 96,
            "midi": 48,
            "name": "C3",
            "ticks": 68544,
            "time": 61.1999745,
            "velocity": 0.3937007874015748
          },
          {
            "duration": 0.08571425000000232,
            "durationTicks": 96,
            "midi": 60,
            "name": "C4",
            "ticks": 68544,
            "time": 61.1999745,
            "velocity": 0.3937007874015748
          },
          {
            "duration": 0.08571425000000232,
            "durationTicks": 96,
            "midi": 55,
            "name": "G3",
            "ticks": 68736,
            "time": 61.371403,
            "velocity": 0.3937007874015748
          },
          {
            "duration": 0.08571425000000232,
            "durationTicks": 96,
            "midi": 43,
            "name": "G2",
            "ticks": 68736,
            "time": 61.371403,
            "velocity": 0.3937007874015748
          },
          {
            "duration": 0.08571424999999522,
            "durationTicks": 96,
            "midi": 40,
            "name": "E2",
            "ticks": 68928,
            "time": 61.542831500000005,
            "velocity": 0.3937007874015748
          },
          {
            "duration": 0.08571424999999522,
            "durationTicks": 96,
            "midi": 52,
            "name": "E3",
            "ticks": 68928,
            "time": 61.542831500000005,
            "velocity": 0.3937007874015748
          },
          {
            "duration": 0.08571425000000232,
            "durationTicks": 96,
            "midi": 50,
            "name": "D3",
            "ticks": 69120,
            "time": 61.71426,
            "velocity": 0.3937007874015748
          },
          {
            "duration": 0.08571425000000232,
            "durationTicks": 96,
            "midi": 38,
            "name": "D2",
            "ticks": 69120,
            "time": 61.71426,
            "velocity": 0.3937007874015748
          },
          {
            "duration": 0.08571424999999522,
            "durationTicks": 96,
            "midi": 52,
            "name": "E3",
            "ticks": 69312,
            "time": 61.88568850000001,
            "velocity": 0.3937007874015748
          },
          {
            "duration": 0.08571424999999522,
            "durationTicks": 96,
            "midi": 40,
            "name": "E2",
            "ticks": 69312,
            "time": 61.88568850000001,
            "velocity": 0.3937007874015748
          },
          {
            "duration": 0.08571425000000232,
            "durationTicks": 96,
            "midi": 41,
            "name": "F2",
            "ticks": 69504,
            "time": 62.057117000000005,
            "velocity": 0.3937007874015748
          },
          {
            "duration": 0.08571425000000232,
            "durationTicks": 96,
            "midi": 53,
            "name": "F3",
            "ticks": 69504,
            "time": 62.057117000000005,
            "velocity": 0.3937007874015748
          },
          {
            "duration": 0.08571425000000232,
            "durationTicks": 96,
            "midi": 55,
            "name": "G3",
            "ticks": 69696,
            "time": 62.2285455,
            "velocity": 0.3937007874015748
          },
          {
            "duration": 0.08571425000000232,
            "durationTicks": 96,
            "midi": 43,
            "name": "G2",
            "ticks": 69696,
            "time": 62.2285455,
            "velocity": 0.3937007874015748
          },
          {
            "duration": 0.08571424999999522,
            "durationTicks": 96,
            "midi": 45,
            "name": "A2",
            "ticks": 69888,
            "time": 62.39997400000001,
            "velocity": 0.3937007874015748
          },
          {
            "duration": 0.08571424999999522,
            "durationTicks": 96,
            "midi": 57,
            "name": "A3",
            "ticks": 69888,
            "time": 62.39997400000001,
            "velocity": 0.3937007874015748
          },
          {
            "duration": 0.08571425000000232,
            "durationTicks": 96,
            "midi": 61,
            "name": "C#4",
            "ticks": 70080,
            "time": 62.571402500000005,
            "velocity": 0.3937007874015748
          },
          {
            "duration": 0.08571425000000232,
            "durationTicks": 96,
            "midi": 49,
            "name": "C#3",
            "ticks": 70080,
            "time": 62.571402500000005,
            "velocity": 0.3937007874015748
          },
          {
            "duration": 0.08571425000000232,
            "durationTicks": 96,
            "midi": 62,
            "name": "D4",
            "ticks": 70272,
            "time": 62.742831,
            "velocity": 0.3937007874015748
          },
          {
            "duration": 0.08571425000000232,
            "durationTicks": 96,
            "midi": 50,
            "name": "D3",
            "ticks": 70272,
            "time": 62.742831,
            "velocity": 0.3937007874015748
          },
          {
            "duration": 0.08571424999999522,
            "durationTicks": 96,
            "midi": 64,
            "name": "E4",
            "ticks": 70464,
            "time": 62.91425950000001,
            "velocity": 0.3937007874015748
          },
          {
            "duration": 0.08571424999999522,
            "durationTicks": 96,
            "midi": 52,
            "name": "E3",
            "ticks": 70464,
            "time": 62.91425950000001,
            "velocity": 0.3937007874015748
          },
          {
            "duration": 0.08571425000000232,
            "durationTicks": 96,
            "midi": 61,
            "name": "C#4",
            "ticks": 70656,
            "time": 63.085688000000005,
            "velocity": 0.3937007874015748
          },
          {
            "duration": 0.08571425000000232,
            "durationTicks": 96,
            "midi": 49,
            "name": "C#3",
            "ticks": 70656,
            "time": 63.085688000000005,
            "velocity": 0.3937007874015748
          },
          {
            "duration": 0.08571425000000232,
            "durationTicks": 96,
            "midi": 69,
            "name": "A4",
            "ticks": 70848,
            "time": 63.2571165,
            "velocity": 0.3937007874015748
          },
          {
            "duration": 0.08571425000000232,
            "durationTicks": 96,
            "midi": 57,
            "name": "A3",
            "ticks": 70848,
            "time": 63.2571165,
            "velocity": 0.3937007874015748
          },
          {
            "duration": 0.08571424999999522,
            "durationTicks": 96,
            "midi": 67,
            "name": "G4",
            "ticks": 71040,
            "time": 63.42854500000001,
            "velocity": 0.3937007874015748
          },
          {
            "duration": 0.08571424999999522,
            "durationTicks": 96,
            "midi": 55,
            "name": "G3",
            "ticks": 71040,
            "time": 63.42854500000001,
            "velocity": 0.3937007874015748
          },
          {
            "duration": 0.08571425000000232,
            "durationTicks": 96,
            "midi": 69,
            "name": "A4",
            "ticks": 71136,
            "time": 63.51425925,
            "velocity": 0.3937007874015748
          },
          {
            "duration": 0.08571425000000232,
            "durationTicks": 96,
            "midi": 57,
            "name": "A3",
            "ticks": 71136,
            "time": 63.51425925,
            "velocity": 0.3937007874015748
          },
          {
            "duration": 0.08571425000000232,
            "durationTicks": 96,
            "midi": 67,
            "name": "G4",
            "ticks": 71232,
            "time": 63.599973500000004,
            "velocity": 0.3937007874015748
          },
          {
            "duration": 0.08571425000000232,
            "durationTicks": 96,
            "midi": 55,
            "name": "G3",
            "ticks": 71232,
            "time": 63.599973500000004,
            "velocity": 0.3937007874015748
          },
          {
            "duration": 0.08571424999999522,
            "durationTicks": 96,
            "midi": 69,
            "name": "A4",
            "ticks": 71328,
            "time": 63.68568775000001,
            "velocity": 0.3937007874015748
          },
          {
            "duration": 0.08571424999999522,
            "durationTicks": 96,
            "midi": 57,
            "name": "A3",
            "ticks": 71328,
            "time": 63.68568775000001,
            "velocity": 0.3937007874015748
          },
          {
            "duration": 0.08571425000000232,
            "durationTicks": 96,
            "midi": 73,
            "name": "C#5",
            "ticks": 71424,
            "time": 63.771402,
            "velocity": 0.3937007874015748
          },
          {
            "duration": 0.08571425000000232,
            "durationTicks": 96,
            "midi": 61,
            "name": "C#4",
            "ticks": 71424,
            "time": 63.771402,
            "velocity": 0.3937007874015748
          },
          {
            "duration": 0.08571425000000232,
            "durationTicks": 96,
            "midi": 69,
            "name": "A4",
            "ticks": 71616,
            "time": 63.94283050000001,
            "velocity": 0.3937007874015748
          },
          {
            "duration": 0.08571425000000232,
            "durationTicks": 96,
            "midi": 57,
            "name": "A3",
            "ticks": 71616,
            "time": 63.94283050000001,
            "velocity": 0.3937007874015748
          },
          {
            "duration": 0.08571424999999522,
            "durationTicks": 96,
            "midi": 55,
            "name": "G3",
            "ticks": 71808,
            "time": 64.114259,
            "velocity": 0.3937007874015748
          },
          {
            "duration": 0.08571424999999522,
            "durationTicks": 96,
            "midi": 67,
            "name": "G4",
            "ticks": 71808,
            "time": 64.114259,
            "velocity": 0.3937007874015748
          },
          {
            "duration": 0.08571425000000943,
            "durationTicks": 96,
            "midi": 57,
            "name": "A3",
            "ticks": 71904,
            "time": 64.19997325,
            "velocity": 0.3937007874015748
          },
          {
            "duration": 0.08571425000000943,
            "durationTicks": 96,
            "midi": 69,
            "name": "A4",
            "ticks": 71904,
            "time": 64.19997325,
            "velocity": 0.3937007874015748
          },
          {
            "duration": 0.08571424999999522,
            "durationTicks": 96,
            "midi": 55,
            "name": "G3",
            "ticks": 72000,
            "time": 64.28568750000001,
            "velocity": 0.3937007874015748
          },
          {
            "duration": 0.08571424999999522,
            "durationTicks": 96,
            "midi": 67,
            "name": "G4",
            "ticks": 72000,
            "time": 64.28568750000001,
            "velocity": 0.3937007874015748
          },
          {
            "duration": 0.08571424999999522,
            "durationTicks": 96,
            "midi": 57,
            "name": "A3",
            "ticks": 72096,
            "time": 64.37140175,
            "velocity": 0.3937007874015748
          },
          {
            "duration": 0.08571424999999522,
            "durationTicks": 96,
            "midi": 69,
            "name": "A4",
            "ticks": 72096,
            "time": 64.37140175,
            "velocity": 0.3937007874015748
          },
          {
            "duration": 0.08571425000000943,
            "durationTicks": 96,
            "midi": 49,
            "name": "C#3",
            "ticks": 72192,
            "time": 64.457116,
            "velocity": 0.3937007874015748
          },
          {
            "duration": 0.08571425000000943,
            "durationTicks": 96,
            "midi": 61,
            "name": "C#4",
            "ticks": 72192,
            "time": 64.457116,
            "velocity": 0.3937007874015748
          },
          {
            "duration": 0.08571424999999522,
            "durationTicks": 96,
            "midi": 57,
            "name": "A3",
            "ticks": 72384,
            "time": 64.6285445,
            "velocity": 0.3937007874015748
          },
          {
            "duration": 0.08571424999999522,
            "durationTicks": 96,
            "midi": 69,
            "name": "A4",
            "ticks": 72384,
            "time": 64.6285445,
            "velocity": 0.3937007874015748
          },
          {
            "duration": 0.08571424999999522,
            "durationTicks": 96,
            "midi": 55,
            "name": "G3",
            "ticks": 72576,
            "time": 64.79997300000001,
            "velocity": 0.3937007874015748
          },
          {
            "duration": 0.08571424999999522,
            "durationTicks": 96,
            "midi": 67,
            "name": "G4",
            "ticks": 72576,
            "time": 64.79997300000001,
            "velocity": 0.3937007874015748
          },
          {
            "duration": 0.08571424999999522,
            "durationTicks": 96,
            "midi": 69,
            "name": "A4",
            "ticks": 72672,
            "time": 64.88568725,
            "velocity": 0.3937007874015748
          },
          {
            "duration": 0.08571424999999522,
            "durationTicks": 96,
            "midi": 57,
            "name": "A3",
            "ticks": 72672,
            "time": 64.88568725,
            "velocity": 0.3937007874015748
          },
          {
            "duration": 0.08571425000000943,
            "durationTicks": 96,
            "midi": 67,
            "name": "G4",
            "ticks": 72768,
            "time": 64.9714015,
            "velocity": 0.3937007874015748
          },
          {
            "duration": 0.08571425000000943,
            "durationTicks": 96,
            "midi": 55,
            "name": "G3",
            "ticks": 72768,
            "time": 64.9714015,
            "velocity": 0.3937007874015748
          },
          {
            "duration": 0.08571424999999522,
            "durationTicks": 96,
            "midi": 69,
            "name": "A4",
            "ticks": 72864,
            "time": 65.05711575000001,
            "velocity": 0.3937007874015748
          },
          {
            "duration": 0.08571424999999522,
            "durationTicks": 96,
            "midi": 57,
            "name": "A3",
            "ticks": 72864,
            "time": 65.05711575000001,
            "velocity": 0.3937007874015748
          },
          {
            "duration": 0.08571424999999522,
            "durationTicks": 96,
            "midi": 73,
            "name": "C#5",
            "ticks": 72960,
            "time": 65.14283,
            "velocity": 0.3937007874015748
          },
          {
            "duration": 0.08571424999999522,
            "durationTicks": 96,
            "midi": 61,
            "name": "C#4",
            "ticks": 72960,
            "time": 65.14283,
            "velocity": 0.3937007874015748
          },
          {
            "duration": 0.08571424999999522,
            "durationTicks": 96,
            "midi": 76,
            "name": "E5",
            "ticks": 73152,
            "time": 65.31425850000001,
            "velocity": 0.3937007874015748
          },
          {
            "duration": 0.08571424999999522,
            "durationTicks": 96,
            "midi": 64,
            "name": "E4",
            "ticks": 73152,
            "time": 65.31425850000001,
            "velocity": 0.3937007874015748
          },
          {
            "duration": 0.08571425000000943,
            "durationTicks": 96,
            "midi": 69,
            "name": "A4",
            "ticks": 73344,
            "time": 65.485687,
            "velocity": 0.3937007874015748
          },
          {
            "duration": 0.08571425000000943,
            "durationTicks": 96,
            "midi": 81,
            "name": "A5",
            "ticks": 73344,
            "time": 65.485687,
            "velocity": 0.3937007874015748
          },
          {
            "duration": 0.08571424999999522,
            "durationTicks": 96,
            "midi": 57,
            "name": "A3",
            "ticks": 73728,
            "time": 65.82854400000001,
            "velocity": 0.3937007874015748
          },
          {
            "duration": 0.08571424999999522,
            "durationTicks": 96,
            "midi": 69,
            "name": "A4",
            "ticks": 73728,
            "time": 65.82854400000001,
            "velocity": 0.3937007874015748
          },
          {
            "duration": 0.08571425000000943,
            "durationTicks": 96,
            "midi": 77,
            "name": "F5",
            "ticks": 73920,
            "time": 65.9999725,
            "velocity": 0.3937007874015748
          },
          {
            "duration": 0.08571425000000943,
            "durationTicks": 96,
            "midi": 65,
            "name": "F4",
            "ticks": 73920,
            "time": 65.9999725,
            "velocity": 0.3937007874015748
          },
          {
            "duration": 0.08571424999999522,
            "durationTicks": 96,
            "midi": 64,
            "name": "E4",
            "ticks": 74112,
            "time": 66.171401,
            "velocity": 0.3937007874015748
          },
          {
            "duration": 0.08571424999999522,
            "durationTicks": 96,
            "midi": 76,
            "name": "E5",
            "ticks": 74112,
            "time": 66.171401,
            "velocity": 0.3937007874015748
          },
          {
            "duration": 0.08571425000000943,
            "durationTicks": 96,
            "midi": 77,
            "name": "F5",
            "ticks": 74208,
            "time": 66.25711525,
            "velocity": 0.3937007874015748
          },
          {
            "duration": 0.08571425000000943,
            "durationTicks": 96,
            "midi": 65,
            "name": "F4",
            "ticks": 74208,
            "time": 66.25711525,
            "velocity": 0.3937007874015748
          },
          {
            "duration": 0.08571424999999522,
            "durationTicks": 96,
            "midi": 64,
            "name": "E4",
            "ticks": 74304,
            "time": 66.34282950000001,
            "velocity": 0.3937007874015748
          },
          {
            "duration": 0.08571424999999522,
            "durationTicks": 96,
            "midi": 76,
            "name": "E5",
            "ticks": 74304,
            "time": 66.34282950000001,
            "velocity": 0.3937007874015748
          },
          {
            "duration": 0.08571425000000943,
            "durationTicks": 96,
            "midi": 79,
            "name": "G5",
            "ticks": 74496,
            "time": 66.514258,
            "velocity": 0.3937007874015748
          },
          {
            "duration": 0.08571425000000943,
            "durationTicks": 96,
            "midi": 67,
            "name": "G4",
            "ticks": 74496,
            "time": 66.514258,
            "velocity": 0.3937007874015748
          },
          {
            "duration": 0.08571424999999522,
            "durationTicks": 96,
            "midi": 65,
            "name": "F4",
            "ticks": 74688,
            "time": 66.6856865,
            "velocity": 0.3937007874015748
          },
          {
            "duration": 0.08571424999999522,
            "durationTicks": 96,
            "midi": 77,
            "name": "F5",
            "ticks": 74688,
            "time": 66.6856865,
            "velocity": 0.3937007874015748
          },
          {
            "duration": 0.08571424999999522,
            "durationTicks": 96,
            "midi": 64,
            "name": "E4",
            "ticks": 74880,
            "time": 66.85711500000001,
            "velocity": 0.3937007874015748
          },
          {
            "duration": 0.08571424999999522,
            "durationTicks": 96,
            "midi": 76,
            "name": "E5",
            "ticks": 74880,
            "time": 66.85711500000001,
            "velocity": 0.3937007874015748
          },
          {
            "duration": 0.08571424999999522,
            "durationTicks": 96,
            "midi": 77,
            "name": "F5",
            "ticks": 74976,
            "time": 66.94282925,
            "velocity": 0.3937007874015748
          },
          {
            "duration": 0.08571424999999522,
            "durationTicks": 96,
            "midi": 65,
            "name": "F4",
            "ticks": 74976,
            "time": 66.94282925,
            "velocity": 0.3937007874015748
          },
          {
            "duration": 0.08571425000000943,
            "durationTicks": 96,
            "midi": 76,
            "name": "E5",
            "ticks": 75072,
            "time": 67.0285435,
            "velocity": 0.3937007874015748
          },
          {
            "duration": 0.08571425000000943,
            "durationTicks": 96,
            "midi": 64,
            "name": "E4",
            "ticks": 75072,
            "time": 67.0285435,
            "velocity": 0.3937007874015748
          },
          {
            "duration": 0.08571424999999522,
            "durationTicks": 96,
            "midi": 60,
            "name": "C4",
            "ticks": 75168,
            "time": 67.11425775000001,
            "velocity": 0.3937007874015748
          },
          {
            "duration": 0.08571424999999522,
            "durationTicks": 96,
            "midi": 72,
            "name": "C5",
            "ticks": 75168,
            "time": 67.11425775000001,
            "velocity": 0.3937007874015748
          },
          {
            "duration": 0.08571424999999522,
            "durationTicks": 96,
            "midi": 74,
            "name": "D5",
            "ticks": 75264,
            "time": 67.199972,
            "velocity": 0.3937007874015748
          },
          {
            "duration": 0.08571424999999522,
            "durationTicks": 96,
            "midi": 62,
            "name": "D4",
            "ticks": 75264,
            "time": 67.199972,
            "velocity": 0.3937007874015748
          },
          {
            "duration": 0.08571424999999522,
            "durationTicks": 96,
            "midi": 69,
            "name": "A4",
            "ticks": 75456,
            "time": 67.37140050000001,
            "velocity": 0.3937007874015748
          },
          {
            "duration": 0.08571424999999522,
            "durationTicks": 96,
            "midi": 81,
            "name": "A5",
            "ticks": 75456,
            "time": 67.37140050000001,
            "velocity": 0.3937007874015748
          },
          {
            "duration": 0.08571425000000943,
            "durationTicks": 96,
            "midi": 79,
            "name": "G5",
            "ticks": 75648,
            "time": 67.542829,
            "velocity": 0.3937007874015748
          },
          {
            "duration": 0.08571425000000943,
            "durationTicks": 96,
            "midi": 67,
            "name": "G4",
            "ticks": 75648,
            "time": 67.542829,
            "velocity": 0.3937007874015748
          },
          {
            "duration": 0.08571424999999522,
            "durationTicks": 96,
            "midi": 81,
            "name": "A5",
            "ticks": 75744,
            "time": 67.62854325,
            "velocity": 0.3937007874015748
          },
          {
            "duration": 0.08571424999999522,
            "durationTicks": 96,
            "midi": 69,
            "name": "A4",
            "ticks": 75744,
            "time": 67.62854325,
            "velocity": 0.3937007874015748
          },
          {
            "duration": 0.08571424999999522,
            "durationTicks": 96,
            "midi": 79,
            "name": "G5",
            "ticks": 75840,
            "time": 67.7142575,
            "velocity": 0.3937007874015748
          },
          {
            "duration": 0.08571424999999522,
            "durationTicks": 96,
            "midi": 67,
            "name": "G4",
            "ticks": 75840,
            "time": 67.7142575,
            "velocity": 0.3937007874015748
          },
          {
            "duration": 0.08571425000000943,
            "durationTicks": 96,
            "midi": 81,
            "name": "A5",
            "ticks": 75936,
            "time": 67.79997175,
            "velocity": 0.3937007874015748
          },
          {
            "duration": 0.08571425000000943,
            "durationTicks": 96,
            "midi": 69,
            "name": "A4",
            "ticks": 75936,
            "time": 67.79997175,
            "velocity": 0.3937007874015748
          },
          {
            "duration": 0.08571424999999522,
            "durationTicks": 96,
            "midi": 84,
            "name": "C6",
            "ticks": 76032,
            "time": 67.885686,
            "velocity": 0.3937007874015748
          },
          {
            "duration": 0.08571424999999522,
            "durationTicks": 96,
            "midi": 72,
            "name": "C5",
            "ticks": 76032,
            "time": 67.885686,
            "velocity": 0.3937007874015748
          },
          {
            "duration": 0.08571424999999522,
            "durationTicks": 96,
            "midi": 81,
            "name": "A5",
            "ticks": 76224,
            "time": 68.05711450000001,
            "velocity": 0.3937007874015748
          },
          {
            "duration": 0.08571424999999522,
            "durationTicks": 96,
            "midi": 69,
            "name": "A4",
            "ticks": 76224,
            "time": 68.05711450000001,
            "velocity": 0.3937007874015748
          },
          {
            "duration": 0.08571425000000943,
            "durationTicks": 96,
            "midi": 79,
            "name": "G5",
            "ticks": 76416,
            "time": 68.228543,
            "velocity": 0.3937007874015748
          },
          {
            "duration": 0.08571425000000943,
            "durationTicks": 96,
            "midi": 67,
            "name": "G4",
            "ticks": 76416,
            "time": 68.228543,
            "velocity": 0.3937007874015748
          },
          {
            "duration": 0.08571424999999522,
            "durationTicks": 96,
            "midi": 81,
            "name": "A5",
            "ticks": 76608,
            "time": 68.3999715,
            "velocity": 0.3937007874015748
          },
          {
            "duration": 0.08571424999999522,
            "durationTicks": 96,
            "midi": 69,
            "name": "A4",
            "ticks": 76608,
            "time": 68.3999715,
            "velocity": 0.3937007874015748
          },
          {
            "duration": 0.08571424999999522,
            "durationTicks": 96,
            "midi": 70,
            "name": "A#4",
            "ticks": 76800,
            "time": 68.57140000000001,
            "velocity": 0.3937007874015748
          },
          {
            "duration": 0.08571424999999522,
            "durationTicks": 96,
            "midi": 58,
            "name": "A#3",
            "ticks": 76800,
            "time": 68.57140000000001,
            "velocity": 0.3937007874015748
          },
          {
            "duration": 0.08571425000000943,
            "durationTicks": 96,
            "midi": 77,
            "name": "F5",
            "ticks": 76992,
            "time": 68.7428285,
            "velocity": 0.3937007874015748
          },
          {
            "duration": 0.08571425000000943,
            "durationTicks": 96,
            "midi": 65,
            "name": "F4",
            "ticks": 76992,
            "time": 68.7428285,
            "velocity": 0.3937007874015748
          },
          {
            "duration": 0.08571424999999522,
            "durationTicks": 96,
            "midi": 64,
            "name": "E4",
            "ticks": 77184,
            "time": 68.914257,
            "velocity": 0.3937007874015748
          },
          {
            "duration": 0.08571424999999522,
            "durationTicks": 96,
            "midi": 76,
            "name": "E5",
            "ticks": 77184,
            "time": 68.914257,
            "velocity": 0.3937007874015748
          },
          {
            "duration": 0.08571425000000943,
            "durationTicks": 96,
            "midi": 65,
            "name": "F4",
            "ticks": 77280,
            "time": 68.99997125,
            "velocity": 0.3937007874015748
          },
          {
            "duration": 0.08571425000000943,
            "durationTicks": 96,
            "midi": 77,
            "name": "F5",
            "ticks": 77280,
            "time": 68.99997125,
            "velocity": 0.3937007874015748
          },
          {
            "duration": 0.08571424999999522,
            "durationTicks": 96,
            "midi": 64,
            "name": "E4",
            "ticks": 77376,
            "time": 69.08568550000001,
            "velocity": 0.3937007874015748
          },
          {
            "duration": 0.08571424999999522,
            "durationTicks": 96,
            "midi": 76,
            "name": "E5",
            "ticks": 77376,
            "time": 69.08568550000001,
            "velocity": 0.3937007874015748
          },
          {
            "duration": 0.08571425000000943,
            "durationTicks": 96,
            "midi": 79,
            "name": "G5",
            "ticks": 77568,
            "time": 69.257114,
            "velocity": 0.3937007874015748
          },
          {
            "duration": 0.08571425000000943,
            "durationTicks": 96,
            "midi": 67,
            "name": "G4",
            "ticks": 77568,
            "time": 69.257114,
            "velocity": 0.3937007874015748
          },
          {
            "duration": 0.08571424999999522,
            "durationTicks": 96,
            "midi": 65,
            "name": "F4",
            "ticks": 77760,
            "time": 69.4285425,
            "velocity": 0.3937007874015748
          },
          {
            "duration": 0.08571424999999522,
            "durationTicks": 96,
            "midi": 77,
            "name": "F5",
            "ticks": 77760,
            "time": 69.4285425,
            "velocity": 0.3937007874015748
          },
          {
            "duration": 0.08571424999999522,
            "durationTicks": 96,
            "midi": 64,
            "name": "E4",
            "ticks": 77952,
            "time": 69.59997100000001,
            "velocity": 0.3937007874015748
          },
          {
            "duration": 0.08571424999999522,
            "durationTicks": 96,
            "midi": 76,
            "name": "E5",
            "ticks": 77952,
            "time": 69.59997100000001,
            "velocity": 0.3937007874015748
          },
          {
            "duration": 0.08571424999999522,
            "durationTicks": 96,
            "midi": 65,
            "name": "F4",
            "ticks": 78048,
            "time": 69.68568525,
            "velocity": 0.3937007874015748
          },
          {
            "duration": 0.08571424999999522,
            "durationTicks": 96,
            "midi": 77,
            "name": "F5",
            "ticks": 78048,
            "time": 69.68568525,
            "velocity": 0.3937007874015748
          },
          {
            "duration": 0.08571425000000943,
            "durationTicks": 96,
            "midi": 64,
            "name": "E4",
            "ticks": 78144,
            "time": 69.7713995,
            "velocity": 0.3937007874015748
          },
          {
            "duration": 0.08571425000000943,
            "durationTicks": 96,
            "midi": 76,
            "name": "E5",
            "ticks": 78144,
            "time": 69.7713995,
            "velocity": 0.3937007874015748
          },
          {
            "duration": 0.08571424999999522,
            "durationTicks": 96,
            "midi": 60,
            "name": "C4",
            "ticks": 78240,
            "time": 69.85711375000001,
            "velocity": 0.3937007874015748
          },
          {
            "duration": 0.08571424999999522,
            "durationTicks": 96,
            "midi": 72,
            "name": "C5",
            "ticks": 78240,
            "time": 69.85711375000001,
            "velocity": 0.3937007874015748
          },
          {
            "duration": 0.08571424999999522,
            "durationTicks": 96,
            "midi": 74,
            "name": "D5",
            "ticks": 78336,
            "time": 69.942828,
            "velocity": 0.3937007874015748
          },
          {
            "duration": 0.08571424999999522,
            "durationTicks": 96,
            "midi": 62,
            "name": "D4",
            "ticks": 78336,
            "time": 69.942828,
            "velocity": 0.3937007874015748
          },
          {
            "duration": 0.08571424999999522,
            "durationTicks": 96,
            "midi": 69,
            "name": "A4",
            "ticks": 78528,
            "time": 70.11425650000001,
            "velocity": 0.3937007874015748
          },
          {
            "duration": 0.08571424999999522,
            "durationTicks": 96,
            "midi": 81,
            "name": "A5",
            "ticks": 78528,
            "time": 70.11425650000001,
            "velocity": 0.3937007874015748
          },
          {
            "duration": 0.08571425000000943,
            "durationTicks": 96,
            "midi": 67,
            "name": "G4",
            "ticks": 78720,
            "time": 70.285685,
            "velocity": 0.3937007874015748
          },
          {
            "duration": 0.08571425000000943,
            "durationTicks": 96,
            "midi": 79,
            "name": "G5",
            "ticks": 78720,
            "time": 70.285685,
            "velocity": 0.3937007874015748
          },
          {
            "duration": 0.08571424999999522,
            "durationTicks": 96,
            "midi": 69,
            "name": "A4",
            "ticks": 78816,
            "time": 70.37139925000001,
            "velocity": 0.3937007874015748
          },
          {
            "duration": 0.08571424999999522,
            "durationTicks": 96,
            "midi": 81,
            "name": "A5",
            "ticks": 78816,
            "time": 70.37139925000001,
            "velocity": 0.3937007874015748
          },
          {
            "duration": 0.08571424999999522,
            "durationTicks": 96,
            "midi": 79,
            "name": "G5",
            "ticks": 78912,
            "time": 70.4571135,
            "velocity": 0.3937007874015748
          },
          {
            "duration": 0.08571424999999522,
            "durationTicks": 96,
            "midi": 67,
            "name": "G4",
            "ticks": 78912,
            "time": 70.4571135,
            "velocity": 0.3937007874015748
          },
          {
            "duration": 0.08571425000000943,
            "durationTicks": 96,
            "midi": 69,
            "name": "A4",
            "ticks": 79008,
            "time": 70.54282775,
            "velocity": 0.3937007874015748
          },
          {
            "duration": 0.08571425000000943,
            "durationTicks": 96,
            "midi": 81,
            "name": "A5",
            "ticks": 79008,
            "time": 70.54282775,
            "velocity": 0.3937007874015748
          },
          {
            "duration": 0.08571424999999522,
            "durationTicks": 96,
            "midi": 73,
            "name": "C#5",
            "ticks": 79104,
            "time": 70.62854200000001,
            "velocity": 0.3937007874015748
          },
          {
            "duration": 0.08571424999999522,
            "durationTicks": 96,
            "midi": 85,
            "name": "C#6",
            "ticks": 79104,
            "time": 70.62854200000001,
            "velocity": 0.3937007874015748
          },
          {
            "duration": 0.08571425000000943,
            "durationTicks": 96,
            "midi": 69,
            "name": "A4",
            "ticks": 79296,
            "time": 70.7999705,
            "velocity": 0.3937007874015748
          },
          {
            "duration": 0.08571425000000943,
            "durationTicks": 96,
            "midi": 81,
            "name": "A5",
            "ticks": 79296,
            "time": 70.7999705,
            "velocity": 0.3937007874015748
          },
          {
            "duration": 0.08571424999999522,
            "durationTicks": 96,
            "midi": 79,
            "name": "G5",
            "ticks": 79488,
            "time": 70.971399,
            "velocity": 0.3937007874015748
          },
          {
            "duration": 0.08571424999999522,
            "durationTicks": 96,
            "midi": 67,
            "name": "G4",
            "ticks": 79488,
            "time": 70.971399,
            "velocity": 0.3937007874015748
          },
          {
            "duration": 0.08571424999999522,
            "durationTicks": 96,
            "midi": 69,
            "name": "A4",
            "ticks": 79680,
            "time": 71.14282750000001,
            "velocity": 0.3937007874015748
          },
          {
            "duration": 0.08571424999999522,
            "durationTicks": 96,
            "midi": 81,
            "name": "A5",
            "ticks": 79680,
            "time": 71.14282750000001,
            "velocity": 0.3937007874015748
          },
          {
            "duration": 0.08571425000000943,
            "durationTicks": 96,
            "midi": 57,
            "name": "A3",
            "ticks": 79872,
            "time": 71.314256,
            "velocity": 0.3937007874015748
          },
          {
            "duration": 0.08571425000000943,
            "durationTicks": 96,
            "midi": 69,
            "name": "A4",
            "ticks": 79872,
            "time": 71.314256,
            "velocity": 0.3937007874015748
          },
          {
            "duration": 0.08571424999999522,
            "durationTicks": 96,
            "midi": 77,
            "name": "F5",
            "ticks": 80064,
            "time": 71.4856845,
            "velocity": 0.3937007874015748
          },
          {
            "duration": 0.08571424999999522,
            "durationTicks": 96,
            "midi": 65,
            "name": "F4",
            "ticks": 80064,
            "time": 71.4856845,
            "velocity": 0.3937007874015748
          },
          {
            "duration": 0.08571424999999522,
            "durationTicks": 96,
            "midi": 64,
            "name": "E4",
            "ticks": 80256,
            "time": 71.65711300000001,
            "velocity": 0.3937007874015748
          },
          {
            "duration": 0.08571424999999522,
            "durationTicks": 96,
            "midi": 76,
            "name": "E5",
            "ticks": 80256,
            "time": 71.65711300000001,
            "velocity": 0.3937007874015748
          },
          {
            "duration": 0.08571424999999522,
            "durationTicks": 96,
            "midi": 77,
            "name": "F5",
            "ticks": 80352,
            "time": 71.74282725,
            "velocity": 0.3937007874015748
          },
          {
            "duration": 0.08571424999999522,
            "durationTicks": 96,
            "midi": 65,
            "name": "F4",
            "ticks": 80352,
            "time": 71.74282725,
            "velocity": 0.3937007874015748
          },
          {
            "duration": 0.08571425000000943,
            "durationTicks": 96,
            "midi": 76,
            "name": "E5",
            "ticks": 80448,
            "time": 71.8285415,
            "velocity": 0.3937007874015748
          },
          {
            "duration": 0.08571425000000943,
            "durationTicks": 96,
            "midi": 64,
            "name": "E4",
            "ticks": 80448,
            "time": 71.8285415,
            "velocity": 0.3937007874015748
          },
          {
            "duration": 0.08571424999999522,
            "durationTicks": 96,
            "midi": 67,
            "name": "G4",
            "ticks": 80640,
            "time": 71.99997,
            "velocity": 0.3937007874015748
          },
          {
            "duration": 0.08571424999999522,
            "durationTicks": 96,
            "midi": 79,
            "name": "G5",
            "ticks": 80640,
            "time": 71.99997,
            "velocity": 0.3937007874015748
          },
          {
            "duration": 0.08571424999999522,
            "durationTicks": 96,
            "midi": 65,
            "name": "F4",
            "ticks": 80832,
            "time": 72.17139850000001,
            "velocity": 0.3937007874015748
          },
          {
            "duration": 0.08571424999999522,
            "durationTicks": 96,
            "midi": 77,
            "name": "F5",
            "ticks": 80832,
            "time": 72.17139850000001,
            "velocity": 0.3937007874015748
          },
          {
            "duration": 0.08571425000000943,
            "durationTicks": 96,
            "midi": 64,
            "name": "E4",
            "ticks": 81024,
            "time": 72.342827,
            "velocity": 0.3937007874015748
          },
          {
            "duration": 0.08571425000000943,
            "durationTicks": 96,
            "midi": 76,
            "name": "E5",
            "ticks": 81024,
            "time": 72.342827,
            "velocity": 0.3937007874015748
          },
          {
            "duration": 0.08571424999999522,
            "durationTicks": 96,
            "midi": 65,
            "name": "F4",
            "ticks": 81120,
            "time": 72.42854125000001,
            "velocity": 0.3937007874015748
          },
          {
            "duration": 0.08571424999999522,
            "durationTicks": 96,
            "midi": 77,
            "name": "F5",
            "ticks": 81120,
            "time": 72.42854125000001,
            "velocity": 0.3937007874015748
          },
          {
            "duration": 0.08571424999999522,
            "durationTicks": 96,
            "midi": 64,
            "name": "E4",
            "ticks": 81216,
            "time": 72.5142555,
            "velocity": 0.3937007874015748
          },
          {
            "duration": 0.08571424999999522,
            "durationTicks": 96,
            "midi": 76,
            "name": "E5",
            "ticks": 81216,
            "time": 72.5142555,
            "velocity": 0.3937007874015748
          },
          {
            "duration": 0.08571425000000943,
            "durationTicks": 96,
            "midi": 72,
            "name": "C5",
            "ticks": 81312,
            "time": 72.59996975,
            "velocity": 0.3937007874015748
          },
          {
            "duration": 0.08571425000000943,
            "durationTicks": 96,
            "midi": 60,
            "name": "C4",
            "ticks": 81312,
            "time": 72.59996975,
            "velocity": 0.3937007874015748
          },
          {
            "duration": 0.08571424999999522,
            "durationTicks": 96,
            "midi": 74,
            "name": "D5",
            "ticks": 81408,
            "time": 72.68568400000001,
            "velocity": 0.3937007874015748
          },
          {
            "duration": 0.08571424999999522,
            "durationTicks": 96,
            "midi": 62,
            "name": "D4",
            "ticks": 81408,
            "time": 72.68568400000001,
            "velocity": 0.3937007874015748
          },
          {
            "duration": 0.08571425000000943,
            "durationTicks": 96,
            "midi": 81,
            "name": "A5",
            "ticks": 81600,
            "time": 72.8571125,
            "velocity": 0.3937007874015748
          },
          {
            "duration": 0.08571425000000943,
            "durationTicks": 96,
            "midi": 69,
            "name": "A4",
            "ticks": 81600,
            "time": 72.8571125,
            "velocity": 0.3937007874015748
          },
          {
            "duration": 0.08571424999999522,
            "durationTicks": 96,
            "midi": 79,
            "name": "G5",
            "ticks": 81792,
            "time": 73.028541,
            "velocity": 0.3937007874015748
          },
          {
            "duration": 0.08571424999999522,
            "durationTicks": 96,
            "midi": 67,
            "name": "G4",
            "ticks": 81792,
            "time": 73.028541,
            "velocity": 0.3937007874015748
          },
          {
            "duration": 0.08571425000000943,
            "durationTicks": 96,
            "midi": 81,
            "name": "A5",
            "ticks": 81888,
            "time": 73.11425525,
            "velocity": 0.3937007874015748
          },
          {
            "duration": 0.08571425000000943,
            "durationTicks": 96,
            "midi": 69,
            "name": "A4",
            "ticks": 81888,
            "time": 73.11425525,
            "velocity": 0.3937007874015748
          },
          {
            "duration": 0.08571424999999522,
            "durationTicks": 96,
            "midi": 79,
            "name": "G5",
            "ticks": 81984,
            "time": 73.19996950000001,
            "velocity": 0.3937007874015748
          },
          {
            "duration": 0.08571424999999522,
            "durationTicks": 96,
            "midi": 67,
            "name": "G4",
            "ticks": 81984,
            "time": 73.19996950000001,
            "velocity": 0.3937007874015748
          },
          {
            "duration": 0.08571424999999522,
            "durationTicks": 96,
            "midi": 81,
            "name": "A5",
            "ticks": 82080,
            "time": 73.28568375,
            "velocity": 0.3937007874015748
          },
          {
            "duration": 0.08571424999999522,
            "durationTicks": 96,
            "midi": 69,
            "name": "A4",
            "ticks": 82080,
            "time": 73.28568375,
            "velocity": 0.3937007874015748
          },
          {
            "duration": 0.08571425000000943,
            "durationTicks": 96,
            "midi": 84,
            "name": "C6",
            "ticks": 82176,
            "time": 73.371398,
            "velocity": 0.3937007874015748
          },
          {
            "duration": 0.08571425000000943,
            "durationTicks": 96,
            "midi": 72,
            "name": "C5",
            "ticks": 82176,
            "time": 73.371398,
            "velocity": 0.3937007874015748
          },
          {
            "duration": 0.08571424999999522,
            "durationTicks": 96,
            "midi": 69,
            "name": "A4",
            "ticks": 82368,
            "time": 73.5428265,
            "velocity": 0.3937007874015748
          },
          {
            "duration": 0.08571424999999522,
            "durationTicks": 96,
            "midi": 81,
            "name": "A5",
            "ticks": 82368,
            "time": 73.5428265,
            "velocity": 0.3937007874015748
          },
          {
            "duration": 0.08571425000000943,
            "durationTicks": 96,
            "midi": 84,
            "name": "C6",
            "ticks": 82464,
            "time": 73.62854075,
            "velocity": 0.3937007874015748
          },
          {
            "duration": 0.08571425000000943,
            "durationTicks": 96,
            "midi": 72,
            "name": "C5",
            "ticks": 82464,
            "time": 73.62854075,
            "velocity": 0.3937007874015748
          },
          {
            "duration": 0.08571424999999522,
            "durationTicks": 96,
            "midi": 64,
            "name": "E4",
            "ticks": 82560,
            "time": 73.71425500000001,
            "velocity": 0.3937007874015748
          },
          {
            "duration": 0.08571424999999522,
            "durationTicks": 96,
            "midi": 76,
            "name": "E5",
            "ticks": 82560,
            "time": 73.71425500000001,
            "velocity": 0.3937007874015748
          },
          {
            "duration": 0.08571425000000943,
            "durationTicks": 96,
            "midi": 77,
            "name": "F5",
            "ticks": 82752,
            "time": 73.8856835,
            "velocity": 0.3937007874015748
          },
          {
            "duration": 0.08571425000000943,
            "durationTicks": 96,
            "midi": 65,
            "name": "F4",
            "ticks": 82752,
            "time": 73.8856835,
            "velocity": 0.3937007874015748
          },
          {
            "duration": 0.08571424999999522,
            "durationTicks": 96,
            "midi": 67,
            "name": "G4",
            "ticks": 82944,
            "time": 74.057112,
            "velocity": 0.3937007874015748
          },
          {
            "duration": 0.08571424999999522,
            "durationTicks": 96,
            "midi": 79,
            "name": "G5",
            "ticks": 82944,
            "time": 74.057112,
            "velocity": 0.3937007874015748
          },
          {
            "duration": 0.08571424999999522,
            "durationTicks": 96,
            "midi": 62,
            "name": "D4",
            "ticks": 83136,
            "time": 74.22854050000001,
            "velocity": 0.3937007874015748
          },
          {
            "duration": 0.08571424999999522,
            "durationTicks": 96,
            "midi": 74,
            "name": "D5",
            "ticks": 83136,
            "time": 74.22854050000001,
            "velocity": 0.3937007874015748
          },
          {
            "duration": 0.08571424999999522,
            "durationTicks": 96,
            "midi": 79,
            "name": "G5",
            "ticks": 83232,
            "time": 74.31425475,
            "velocity": 0.3937007874015748
          },
          {
            "duration": 0.08571424999999522,
            "durationTicks": 96,
            "midi": 67,
            "name": "G4",
            "ticks": 83232,
            "time": 74.31425475,
            "velocity": 0.3937007874015748
          },
          {
            "duration": 0.08571424999999522,
            "durationTicks": 96,
            "midi": 74,
            "name": "D5",
            "ticks": 83424,
            "time": 74.48568325000001,
            "velocity": 0.3937007874015748
          },
          {
            "duration": 0.08571424999999522,
            "durationTicks": 96,
            "midi": 62,
            "name": "D4",
            "ticks": 83424,
            "time": 74.48568325000001,
            "velocity": 0.3937007874015748
          },
          {
            "duration": 0.08571424999999522,
            "durationTicks": 96,
            "midi": 67,
            "name": "G4",
            "ticks": 83520,
            "time": 74.5713975,
            "velocity": 0.3937007874015748
          },
          {
            "duration": 0.08571424999999522,
            "durationTicks": 96,
            "midi": 79,
            "name": "G5",
            "ticks": 83520,
            "time": 74.5713975,
            "velocity": 0.3937007874015748
          },
          {
            "duration": 0.08571424999999522,
            "durationTicks": 96,
            "midi": 81,
            "name": "A5",
            "ticks": 83712,
            "time": 74.74282600000001,
            "velocity": 0.3937007874015748
          },
          {
            "duration": 0.08571424999999522,
            "durationTicks": 96,
            "midi": 69,
            "name": "A4",
            "ticks": 83712,
            "time": 74.74282600000001,
            "velocity": 0.3937007874015748
          },
          {
            "duration": 0.08571425000000943,
            "durationTicks": 96,
            "midi": 64,
            "name": "E4",
            "ticks": 83904,
            "time": 74.9142545,
            "velocity": 0.3937007874015748
          },
          {
            "duration": 0.08571425000000943,
            "durationTicks": 96,
            "midi": 76,
            "name": "E5",
            "ticks": 83904,
            "time": 74.9142545,
            "velocity": 0.3937007874015748
          },
          {
            "duration": 0.08571424999999522,
            "durationTicks": 96,
            "midi": 81,
            "name": "A5",
            "ticks": 84000,
            "time": 74.99996875000001,
            "velocity": 0.3937007874015748
          },
          {
            "duration": 0.08571424999999522,
            "durationTicks": 96,
            "midi": 69,
            "name": "A4",
            "ticks": 84000,
            "time": 74.99996875000001,
            "velocity": 0.3937007874015748
          },
          {
            "duration": 0.08571425000000943,
            "durationTicks": 96,
            "midi": 64,
            "name": "E4",
            "ticks": 84192,
            "time": 75.17139725,
            "velocity": 0.3937007874015748
          },
          {
            "duration": 0.08571425000000943,
            "durationTicks": 96,
            "midi": 76,
            "name": "E5",
            "ticks": 84192,
            "time": 75.17139725,
            "velocity": 0.3937007874015748
          },
          {
            "duration": 0.08571424999999522,
            "durationTicks": 96,
            "midi": 81,
            "name": "A5",
            "ticks": 84288,
            "time": 75.25711150000001,
            "velocity": 0.3937007874015748
          },
          {
            "duration": 0.08571424999999522,
            "durationTicks": 96,
            "midi": 69,
            "name": "A4",
            "ticks": 84288,
            "time": 75.25711150000001,
            "velocity": 0.3937007874015748
          },
          {
            "duration": 0.08571425000000943,
            "durationTicks": 96,
            "midi": 82,
            "name": "A#5",
            "ticks": 84480,
            "time": 75.42854,
            "velocity": 0.3937007874015748
          },
          {
            "duration": 0.08571425000000943,
            "durationTicks": 96,
            "midi": 70,
            "name": "A#4",
            "ticks": 84480,
            "time": 75.42854,
            "velocity": 0.3937007874015748
          },
          {
            "duration": 0.08571424999999522,
            "durationTicks": 96,
            "midi": 89,
            "name": "F6",
            "ticks": 84672,
            "time": 75.5999685,
            "velocity": 0.3937007874015748
          },
          {
            "duration": 0.08571424999999522,
            "durationTicks": 96,
            "midi": 77,
            "name": "F5",
            "ticks": 84672,
            "time": 75.5999685,
            "velocity": 0.3937007874015748
          },
          {
            "duration": 0.08571424999999522,
            "durationTicks": 96,
            "midi": 88,
            "name": "E6",
            "ticks": 84864,
            "time": 75.77139700000001,
            "velocity": 0.3937007874015748
          },
          {
            "duration": 0.08571424999999522,
            "durationTicks": 96,
            "midi": 76,
            "name": "E5",
            "ticks": 84864,
            "time": 75.77139700000001,
            "velocity": 0.3937007874015748
          },
          {
            "duration": 0.08571424999999522,
            "durationTicks": 96,
            "midi": 86,
            "name": "D6",
            "ticks": 85056,
            "time": 75.94282550000001,
            "velocity": 0.3937007874015748
          },
          {
            "duration": 0.08571424999999522,
            "durationTicks": 96,
            "midi": 74,
            "name": "D5",
            "ticks": 85056,
            "time": 75.94282550000001,
            "velocity": 0.3937007874015748
          },
          {
            "duration": 0.08571425000000943,
            "durationTicks": 96,
            "midi": 88,
            "name": "E6",
            "ticks": 85248,
            "time": 76.114254,
            "velocity": 0.3937007874015748
          },
          {
            "duration": 0.08571425000000943,
            "durationTicks": 96,
            "midi": 76,
            "name": "E5",
            "ticks": 85248,
            "time": 76.114254,
            "velocity": 0.3937007874015748
          },
          {
            "duration": 0.08571424999999522,
            "durationTicks": 96,
            "midi": 58,
            "name": "A#3",
            "ticks": 86016,
            "time": 76.799968,
            "velocity": 0.3937007874015748
          },
          {
            "duration": 0.08571424999999522,
            "durationTicks": 96,
            "midi": 70,
            "name": "A#4",
            "ticks": 86016,
            "time": 76.799968,
            "velocity": 0.3937007874015748
          },
          {
            "duration": 0.08571424999999522,
            "durationTicks": 96,
            "midi": 66,
            "name": "F#4",
            "ticks": 86208,
            "time": 76.97139650000001,
            "velocity": 0.3937007874015748
          },
          {
            "duration": 0.08571424999999522,
            "durationTicks": 96,
            "midi": 78,
            "name": "F#5",
            "ticks": 86208,
            "time": 76.97139650000001,
            "velocity": 0.3937007874015748
          },
          {
            "duration": 0.08571425000000943,
            "durationTicks": 96,
            "midi": 77,
            "name": "F5",
            "ticks": 86400,
            "time": 77.142825,
            "velocity": 0.3937007874015748
          },
          {
            "duration": 0.08571425000000943,
            "durationTicks": 96,
            "midi": 65,
            "name": "F4",
            "ticks": 86400,
            "time": 77.142825,
            "velocity": 0.3937007874015748
          },
          {
            "duration": 0.08571424999999522,
            "durationTicks": 96,
            "midi": 66,
            "name": "F#4",
            "ticks": 86496,
            "time": 77.22853925000001,
            "velocity": 0.3937007874015748
          },
          {
            "duration": 0.08571424999999522,
            "durationTicks": 96,
            "midi": 78,
            "name": "F#5",
            "ticks": 86496,
            "time": 77.22853925000001,
            "velocity": 0.3937007874015748
          },
          {
            "duration": 0.08571424999999522,
            "durationTicks": 96,
            "midi": 65,
            "name": "F4",
            "ticks": 86592,
            "time": 77.3142535,
            "velocity": 0.3937007874015748
          },
          {
            "duration": 0.08571424999999522,
            "durationTicks": 96,
            "midi": 77,
            "name": "F5",
            "ticks": 86592,
            "time": 77.3142535,
            "velocity": 0.3937007874015748
          },
          {
            "duration": 0.08571424999999522,
            "durationTicks": 96,
            "midi": 68,
            "name": "G#4",
            "ticks": 86784,
            "time": 77.48568200000001,
            "velocity": 0.3937007874015748
          },
          {
            "duration": 0.08571424999999522,
            "durationTicks": 96,
            "midi": 80,
            "name": "G#5",
            "ticks": 86784,
            "time": 77.48568200000001,
            "velocity": 0.3937007874015748
          },
          {
            "duration": 0.08571425000000943,
            "durationTicks": 96,
            "midi": 78,
            "name": "F#5",
            "ticks": 86976,
            "time": 77.6571105,
            "velocity": 0.3937007874015748
          },
          {
            "duration": 0.08571425000000943,
            "durationTicks": 96,
            "midi": 66,
            "name": "F#4",
            "ticks": 86976,
            "time": 77.6571105,
            "velocity": 0.3937007874015748
          },
          {
            "duration": 0.08571424999999522,
            "durationTicks": 96,
            "midi": 65,
            "name": "F4",
            "ticks": 87168,
            "time": 77.828539,
            "velocity": 0.3937007874015748
          },
          {
            "duration": 0.08571424999999522,
            "durationTicks": 96,
            "midi": 77,
            "name": "F5",
            "ticks": 87168,
            "time": 77.828539,
            "velocity": 0.3937007874015748
          },
          {
            "duration": 0.08571425000000943,
            "durationTicks": 96,
            "midi": 66,
            "name": "F#4",
            "ticks": 87264,
            "time": 77.91425325,
            "velocity": 0.3937007874015748
          },
          {
            "duration": 0.08571425000000943,
            "durationTicks": 96,
            "midi": 78,
            "name": "F#5",
            "ticks": 87264,
            "time": 77.91425325,
            "velocity": 0.3937007874015748
          },
          {
            "duration": 0.08571424999999522,
            "durationTicks": 96,
            "midi": 65,
            "name": "F4",
            "ticks": 87360,
            "time": 77.99996750000001,
            "velocity": 0.3937007874015748
          },
          {
            "duration": 0.08571424999999522,
            "durationTicks": 96,
            "midi": 77,
            "name": "F5",
            "ticks": 87360,
            "time": 77.99996750000001,
            "velocity": 0.3937007874015748
          },
          {
            "duration": 0.08571424999999522,
            "durationTicks": 96,
            "midi": 61,
            "name": "C#4",
            "ticks": 87456,
            "time": 78.08568175,
            "velocity": 0.3937007874015748
          },
          {
            "duration": 0.08571424999999522,
            "durationTicks": 96,
            "midi": 73,
            "name": "C#5",
            "ticks": 87456,
            "time": 78.08568175,
            "velocity": 0.3937007874015748
          },
          {
            "duration": 0.08571425000000943,
            "durationTicks": 96,
            "midi": 63,
            "name": "D#4",
            "ticks": 87552,
            "time": 78.171396,
            "velocity": 0.3937007874015748
          },
          {
            "duration": 0.08571425000000943,
            "durationTicks": 96,
            "midi": 75,
            "name": "D#5",
            "ticks": 87552,
            "time": 78.171396,
            "velocity": 0.3937007874015748
          },
          {
            "duration": 0.08571424999999522,
            "durationTicks": 96,
            "midi": 70,
            "name": "A#4",
            "ticks": 87744,
            "time": 78.3428245,
            "velocity": 0.3937007874015748
          },
          {
            "duration": 0.08571424999999522,
            "durationTicks": 96,
            "midi": 82,
            "name": "A#5",
            "ticks": 87744,
            "time": 78.3428245,
            "velocity": 0.3937007874015748
          },
          {
            "duration": 0.08571424999999522,
            "durationTicks": 96,
            "midi": 68,
            "name": "G#4",
            "ticks": 87936,
            "time": 78.51425300000001,
            "velocity": 0.3937007874015748
          },
          {
            "duration": 0.08571424999999522,
            "durationTicks": 96,
            "midi": 80,
            "name": "G#5",
            "ticks": 87936,
            "time": 78.51425300000001,
            "velocity": 0.3937007874015748
          },
          {
            "duration": 0.08571424999999522,
            "durationTicks": 96,
            "midi": 82,
            "name": "A#5",
            "ticks": 88032,
            "time": 78.59996725,
            "velocity": 0.3937007874015748
          },
          {
            "duration": 0.08571424999999522,
            "durationTicks": 96,
            "midi": 70,
            "name": "A#4",
            "ticks": 88032,
            "time": 78.59996725,
            "velocity": 0.3937007874015748
          },
          {
            "duration": 0.08571425000000943,
            "durationTicks": 96,
            "midi": 80,
            "name": "G#5",
            "ticks": 88128,
            "time": 78.6856815,
            "velocity": 0.3937007874015748
          },
          {
            "duration": 0.08571425000000943,
            "durationTicks": 96,
            "midi": 68,
            "name": "G#4",
            "ticks": 88128,
            "time": 78.6856815,
            "velocity": 0.3937007874015748
          },
          {
            "duration": 0.08571424999999522,
            "durationTicks": 96,
            "midi": 82,
            "name": "A#5",
            "ticks": 88224,
            "time": 78.77139575000001,
            "velocity": 0.3937007874015748
          },
          {
            "duration": 0.08571424999999522,
            "durationTicks": 96,
            "midi": 70,
            "name": "A#4",
            "ticks": 88224,
            "time": 78.77139575000001,
            "velocity": 0.3937007874015748
          },
          {
            "duration": 0.08571424999999522,
            "durationTicks": 96,
            "midi": 73,
            "name": "C#5",
            "ticks": 88320,
            "time": 78.85711,
            "velocity": 0.3937007874015748
          },
          {
            "duration": 0.08571424999999522,
            "durationTicks": 96,
            "midi": 85,
            "name": "C#6",
            "ticks": 88320,
            "time": 78.85711,
            "velocity": 0.3937007874015748
          },
          {
            "duration": 0.08571424999999522,
            "durationTicks": 96,
            "midi": 82,
            "name": "A#5",
            "ticks": 88512,
            "time": 79.02853850000001,
            "velocity": 0.3937007874015748
          },
          {
            "duration": 0.08571424999999522,
            "durationTicks": 96,
            "midi": 70,
            "name": "A#4",
            "ticks": 88512,
            "time": 79.02853850000001,
            "velocity": 0.3937007874015748
          },
          {
            "duration": 0.08571425000000943,
            "durationTicks": 96,
            "midi": 68,
            "name": "G#4",
            "ticks": 88704,
            "time": 79.199967,
            "velocity": 0.3937007874015748
          },
          {
            "duration": 0.08571425000000943,
            "durationTicks": 96,
            "midi": 80,
            "name": "G#5",
            "ticks": 88704,
            "time": 79.199967,
            "velocity": 0.3937007874015748
          },
          {
            "duration": 0.08571424999999522,
            "durationTicks": 96,
            "midi": 82,
            "name": "A#5",
            "ticks": 88896,
            "time": 79.3713955,
            "velocity": 0.3937007874015748
          },
          {
            "duration": 0.08571424999999522,
            "durationTicks": 96,
            "midi": 70,
            "name": "A#4",
            "ticks": 88896,
            "time": 79.3713955,
            "velocity": 0.3937007874015748
          },
          {
            "duration": 0.08571424999999522,
            "durationTicks": 96,
            "midi": 71,
            "name": "B4",
            "ticks": 89088,
            "time": 79.54282400000001,
            "velocity": 0.3937007874015748
          },
          {
            "duration": 0.08571424999999522,
            "durationTicks": 96,
            "midi": 59,
            "name": "B3",
            "ticks": 89088,
            "time": 79.54282400000001,
            "velocity": 0.3937007874015748
          },
          {
            "duration": 0.08571425000000943,
            "durationTicks": 96,
            "midi": 66,
            "name": "F#4",
            "ticks": 89280,
            "time": 79.7142525,
            "velocity": 0.3937007874015748
          },
          {
            "duration": 0.08571425000000943,
            "durationTicks": 96,
            "midi": 78,
            "name": "F#5",
            "ticks": 89280,
            "time": 79.7142525,
            "velocity": 0.3937007874015748
          },
          {
            "duration": 0.08571424999999522,
            "durationTicks": 96,
            "midi": 77,
            "name": "F5",
            "ticks": 89472,
            "time": 79.885681,
            "velocity": 0.3937007874015748
          },
          {
            "duration": 0.08571424999999522,
            "durationTicks": 96,
            "midi": 65,
            "name": "F4",
            "ticks": 89472,
            "time": 79.885681,
            "velocity": 0.3937007874015748
          },
          {
            "duration": 0.08571425000000943,
            "durationTicks": 96,
            "midi": 66,
            "name": "F#4",
            "ticks": 89568,
            "time": 79.97139525,
            "velocity": 0.3937007874015748
          },
          {
            "duration": 0.08571425000000943,
            "durationTicks": 96,
            "midi": 78,
            "name": "F#5",
            "ticks": 89568,
            "time": 79.97139525,
            "velocity": 0.3937007874015748
          },
          {
            "duration": 0.08571424999999522,
            "durationTicks": 96,
            "midi": 77,
            "name": "F5",
            "ticks": 89664,
            "time": 80.05710950000001,
            "velocity": 0.3937007874015748
          },
          {
            "duration": 0.08571424999999522,
            "durationTicks": 96,
            "midi": 65,
            "name": "F4",
            "ticks": 89664,
            "time": 80.05710950000001,
            "velocity": 0.3937007874015748
          },
          {
            "duration": 0.08571425000000943,
            "durationTicks": 96,
            "midi": 68,
            "name": "G#4",
            "ticks": 89856,
            "time": 80.228538,
            "velocity": 0.3937007874015748
          },
          {
            "duration": 0.08571425000000943,
            "durationTicks": 96,
            "midi": 80,
            "name": "G#5",
            "ticks": 89856,
            "time": 80.228538,
            "velocity": 0.3937007874015748
          },
          {
            "duration": 0.08571424999999522,
            "durationTicks": 96,
            "midi": 78,
            "name": "F#5",
            "ticks": 90048,
            "time": 80.3999665,
            "velocity": 0.3937007874015748
          },
          {
            "duration": 0.08571424999999522,
            "durationTicks": 96,
            "midi": 66,
            "name": "F#4",
            "ticks": 90048,
            "time": 80.3999665,
            "velocity": 0.3937007874015748
          },
          {
            "duration": 0.08571424999999522,
            "durationTicks": 96,
            "midi": 77,
            "name": "F5",
            "ticks": 90240,
            "time": 80.57139500000001,
            "velocity": 0.3937007874015748
          },
          {
            "duration": 0.08571424999999522,
            "durationTicks": 96,
            "midi": 65,
            "name": "F4",
            "ticks": 90240,
            "time": 80.57139500000001,
            "velocity": 0.3937007874015748
          },
          {
            "duration": 0.08571424999999522,
            "durationTicks": 96,
            "midi": 78,
            "name": "F#5",
            "ticks": 90336,
            "time": 80.65710925,
            "velocity": 0.3937007874015748
          },
          {
            "duration": 0.08571424999999522,
            "durationTicks": 96,
            "midi": 66,
            "name": "F#4",
            "ticks": 90336,
            "time": 80.65710925,
            "velocity": 0.3937007874015748
          },
          {
            "duration": 0.08571425000000943,
            "durationTicks": 96,
            "midi": 65,
            "name": "F4",
            "ticks": 90432,
            "time": 80.7428235,
            "velocity": 0.3937007874015748
          },
          {
            "duration": 0.08571425000000943,
            "durationTicks": 96,
            "midi": 77,
            "name": "F5",
            "ticks": 90432,
            "time": 80.7428235,
            "velocity": 0.3937007874015748
          },
          {
            "duration": 0.08571424999999522,
            "durationTicks": 96,
            "midi": 61,
            "name": "C#4",
            "ticks": 90528,
            "time": 80.82853775000001,
            "velocity": 0.3937007874015748
          },
          {
            "duration": 0.08571424999999522,
            "durationTicks": 96,
            "midi": 73,
            "name": "C#5",
            "ticks": 90528,
            "time": 80.82853775000001,
            "velocity": 0.3937007874015748
          },
          {
            "duration": 0.08571424999999522,
            "durationTicks": 96,
            "midi": 63,
            "name": "D#4",
            "ticks": 90624,
            "time": 80.914252,
            "velocity": 0.3937007874015748
          },
          {
            "duration": 0.08571424999999522,
            "durationTicks": 96,
            "midi": 75,
            "name": "D#5",
            "ticks": 90624,
            "time": 80.914252,
            "velocity": 0.3937007874015748
          },
          {
            "duration": 0.08571424999999522,
            "durationTicks": 96,
            "midi": 70,
            "name": "A#4",
            "ticks": 90816,
            "time": 81.08568050000001,
            "velocity": 0.3937007874015748
          },
          {
            "duration": 0.08571424999999522,
            "durationTicks": 96,
            "midi": 82,
            "name": "A#5",
            "ticks": 90816,
            "time": 81.08568050000001,
            "velocity": 0.3937007874015748
          },
          {
            "duration": 0.08571425000000943,
            "durationTicks": 96,
            "midi": 80,
            "name": "G#5",
            "ticks": 91008,
            "time": 81.257109,
            "velocity": 0.3937007874015748
          },
          {
            "duration": 0.08571425000000943,
            "durationTicks": 96,
            "midi": 68,
            "name": "G#4",
            "ticks": 91008,
            "time": 81.257109,
            "velocity": 0.3937007874015748
          },
          {
            "duration": 0.08571424999999522,
            "durationTicks": 96,
            "midi": 82,
            "name": "A#5",
            "ticks": 91104,
            "time": 81.34282325000001,
            "velocity": 0.3937007874015748
          },
          {
            "duration": 0.08571424999999522,
            "durationTicks": 96,
            "midi": 70,
            "name": "A#4",
            "ticks": 91104,
            "time": 81.34282325000001,
            "velocity": 0.3937007874015748
          },
          {
            "duration": 0.08571424999999522,
            "durationTicks": 96,
            "midi": 68,
            "name": "G#4",
            "ticks": 91200,
            "time": 81.4285375,
            "velocity": 0.3937007874015748
          },
          {
            "duration": 0.08571424999999522,
            "durationTicks": 96,
            "midi": 80,
            "name": "G#5",
            "ticks": 91200,
            "time": 81.4285375,
            "velocity": 0.3937007874015748
          },
          {
            "duration": 0.08571425000000943,
            "durationTicks": 96,
            "midi": 82,
            "name": "A#5",
            "ticks": 91296,
            "time": 81.51425175,
            "velocity": 0.3937007874015748
          },
          {
            "duration": 0.08571425000000943,
            "durationTicks": 96,
            "midi": 70,
            "name": "A#4",
            "ticks": 91296,
            "time": 81.51425175,
            "velocity": 0.3937007874015748
          },
          {
            "duration": 0.08571424999999522,
            "durationTicks": 96,
            "midi": 74,
            "name": "D5",
            "ticks": 91392,
            "time": 81.59996600000001,
            "velocity": 0.3937007874015748
          },
          {
            "duration": 0.08571424999999522,
            "durationTicks": 96,
            "midi": 86,
            "name": "D6",
            "ticks": 91392,
            "time": 81.59996600000001,
            "velocity": 0.3937007874015748
          },
          {
            "duration": 0.08571425000000943,
            "durationTicks": 96,
            "midi": 82,
            "name": "A#5",
            "ticks": 91584,
            "time": 81.7713945,
            "velocity": 0.3937007874015748
          },
          {
            "duration": 0.08571425000000943,
            "durationTicks": 96,
            "midi": 70,
            "name": "A#4",
            "ticks": 91584,
            "time": 81.7713945,
            "velocity": 0.3937007874015748
          },
          {
            "duration": 0.08571424999999522,
            "durationTicks": 96,
            "midi": 68,
            "name": "G#4",
            "ticks": 91776,
            "time": 81.942823,
            "velocity": 0.3937007874015748
          },
          {
            "duration": 0.08571424999999522,
            "durationTicks": 96,
            "midi": 80,
            "name": "G#5",
            "ticks": 91776,
            "time": 81.942823,
            "velocity": 0.3937007874015748
          },
          {
            "duration": 0.08571424999999522,
            "durationTicks": 96,
            "midi": 82,
            "name": "A#5",
            "ticks": 91968,
            "time": 82.11425150000001,
            "velocity": 0.3937007874015748
          },
          {
            "duration": 0.08571424999999522,
            "durationTicks": 96,
            "midi": 70,
            "name": "A#4",
            "ticks": 91968,
            "time": 82.11425150000001,
            "velocity": 0.3937007874015748
          },
          {
            "duration": 0.08571425000000943,
            "durationTicks": 96,
            "midi": 70,
            "name": "A#4",
            "ticks": 92160,
            "time": 82.28568,
            "velocity": 0.3937007874015748
          },
          {
            "duration": 0.08571425000000943,
            "durationTicks": 96,
            "midi": 58,
            "name": "A#3",
            "ticks": 92160,
            "time": 82.28568,
            "velocity": 0.3937007874015748
          },
          {
            "duration": 0.08571424999999522,
            "durationTicks": 96,
            "midi": 78,
            "name": "F#5",
            "ticks": 92352,
            "time": 82.4571085,
            "velocity": 0.3937007874015748
          },
          {
            "duration": 0.08571424999999522,
            "durationTicks": 96,
            "midi": 66,
            "name": "F#4",
            "ticks": 92352,
            "time": 82.4571085,
            "velocity": 0.3937007874015748
          },
          {
            "duration": 0.08571424999999522,
            "durationTicks": 96,
            "midi": 77,
            "name": "F5",
            "ticks": 92544,
            "time": 82.62853700000001,
            "velocity": 0.3937007874015748
          },
          {
            "duration": 0.08571424999999522,
            "durationTicks": 96,
            "midi": 65,
            "name": "F4",
            "ticks": 92544,
            "time": 82.62853700000001,
            "velocity": 0.3937007874015748
          },
          {
            "duration": 0.08571424999999522,
            "durationTicks": 96,
            "midi": 66,
            "name": "F#4",
            "ticks": 92640,
            "time": 82.71425125,
            "velocity": 0.3937007874015748
          },
          {
            "duration": 0.08571424999999522,
            "durationTicks": 96,
            "midi": 78,
            "name": "F#5",
            "ticks": 92640,
            "time": 82.71425125,
            "velocity": 0.3937007874015748
          },
          {
            "duration": 0.08571425000000943,
            "durationTicks": 96,
            "midi": 77,
            "name": "F5",
            "ticks": 92736,
            "time": 82.7999655,
            "velocity": 0.3937007874015748
          },
          {
            "duration": 0.08571425000000943,
            "durationTicks": 96,
            "midi": 65,
            "name": "F4",
            "ticks": 92736,
            "time": 82.7999655,
            "velocity": 0.3937007874015748
          },
          {
            "duration": 0.08571424999999522,
            "durationTicks": 96,
            "midi": 68,
            "name": "G#4",
            "ticks": 92928,
            "time": 82.971394,
            "velocity": 0.3937007874015748
          },
          {
            "duration": 0.08571424999999522,
            "durationTicks": 96,
            "midi": 80,
            "name": "G#5",
            "ticks": 92928,
            "time": 82.971394,
            "velocity": 0.3937007874015748
          },
          {
            "duration": 0.08571424999999522,
            "durationTicks": 96,
            "midi": 66,
            "name": "F#4",
            "ticks": 93120,
            "time": 83.14282250000001,
            "velocity": 0.3937007874015748
          },
          {
            "duration": 0.08571424999999522,
            "durationTicks": 96,
            "midi": 78,
            "name": "F#5",
            "ticks": 93120,
            "time": 83.14282250000001,
            "velocity": 0.3937007874015748
          },
          {
            "duration": 0.08571425000000943,
            "durationTicks": 96,
            "midi": 77,
            "name": "F5",
            "ticks": 93312,
            "time": 83.314251,
            "velocity": 0.3937007874015748
          },
          {
            "duration": 0.08571425000000943,
            "durationTicks": 96,
            "midi": 65,
            "name": "F4",
            "ticks": 93312,
            "time": 83.314251,
            "velocity": 0.3937007874015748
          },
          {
            "duration": 0.08571424999999522,
            "durationTicks": 96,
            "midi": 78,
            "name": "F#5",
            "ticks": 93408,
            "time": 83.39996525000001,
            "velocity": 0.3937007874015748
          },
          {
            "duration": 0.08571424999999522,
            "durationTicks": 96,
            "midi": 66,
            "name": "F#4",
            "ticks": 93408,
            "time": 83.39996525000001,
            "velocity": 0.3937007874015748
          },
          {
            "duration": 0.08571424999999522,
            "durationTicks": 96,
            "midi": 77,
            "name": "F5",
            "ticks": 93504,
            "time": 83.4856795,
            "velocity": 0.3937007874015748
          },
          {
            "duration": 0.08571424999999522,
            "durationTicks": 96,
            "midi": 65,
            "name": "F4",
            "ticks": 93504,
            "time": 83.4856795,
            "velocity": 0.3937007874015748
          },
          {
            "duration": 0.08571425000000943,
            "durationTicks": 96,
            "midi": 61,
            "name": "C#4",
            "ticks": 93600,
            "time": 83.57139375,
            "velocity": 0.3937007874015748
          },
          {
            "duration": 0.08571425000000943,
            "durationTicks": 96,
            "midi": 73,
            "name": "C#5",
            "ticks": 93600,
            "time": 83.57139375,
            "velocity": 0.3937007874015748
          },
          {
            "duration": 0.08571424999999522,
            "durationTicks": 96,
            "midi": 63,
            "name": "D#4",
            "ticks": 93696,
            "time": 83.65710800000001,
            "velocity": 0.3937007874015748
          },
          {
            "duration": 0.08571424999999522,
            "durationTicks": 96,
            "midi": 75,
            "name": "D#5",
            "ticks": 93696,
            "time": 83.65710800000001,
            "velocity": 0.3937007874015748
          },
          {
            "duration": 0.08571424999999522,
            "durationTicks": 96,
            "midi": 82,
            "name": "A#5",
            "ticks": 93888,
            "time": 83.82853650000001,
            "velocity": 0.3937007874015748
          },
          {
            "duration": 0.08571424999999522,
            "durationTicks": 96,
            "midi": 70,
            "name": "A#4",
            "ticks": 93888,
            "time": 83.82853650000001,
            "velocity": 0.3937007874015748
          },
          {
            "duration": 0.08571425000000943,
            "durationTicks": 96,
            "midi": 68,
            "name": "G#4",
            "ticks": 94080,
            "time": 83.999965,
            "velocity": 0.3937007874015748
          },
          {
            "duration": 0.08571425000000943,
            "durationTicks": 96,
            "midi": 80,
            "name": "G#5",
            "ticks": 94080,
            "time": 83.999965,
            "velocity": 0.3937007874015748
          },
          {
            "duration": 0.08571424999999522,
            "durationTicks": 96,
            "midi": 82,
            "name": "A#5",
            "ticks": 94176,
            "time": 84.08567925000001,
            "velocity": 0.3937007874015748
          },
          {
            "duration": 0.08571424999999522,
            "durationTicks": 96,
            "midi": 70,
            "name": "A#4",
            "ticks": 94176,
            "time": 84.08567925000001,
            "velocity": 0.3937007874015748
          },
          {
            "duration": 0.08571424999999522,
            "durationTicks": 96,
            "midi": 80,
            "name": "G#5",
            "ticks": 94272,
            "time": 84.17139350000001,
            "velocity": 0.3937007874015748
          },
          {
            "duration": 0.08571424999999522,
            "durationTicks": 96,
            "midi": 68,
            "name": "G#4",
            "ticks": 94272,
            "time": 84.17139350000001,
            "velocity": 0.3937007874015748
          },
          {
            "duration": 0.08571425000000943,
            "durationTicks": 96,
            "midi": 82,
            "name": "A#5",
            "ticks": 94368,
            "time": 84.25710775,
            "velocity": 0.3937007874015748
          },
          {
            "duration": 0.08571425000000943,
            "durationTicks": 96,
            "midi": 70,
            "name": "A#4",
            "ticks": 94368,
            "time": 84.25710775,
            "velocity": 0.3937007874015748
          },
          {
            "duration": 0.08571424999999522,
            "durationTicks": 96,
            "midi": 73,
            "name": "C#5",
            "ticks": 94464,
            "time": 84.34282200000001,
            "velocity": 0.3937007874015748
          },
          {
            "duration": 0.08571424999999522,
            "durationTicks": 96,
            "midi": 85,
            "name": "C#6",
            "ticks": 94464,
            "time": 84.34282200000001,
            "velocity": 0.3937007874015748
          },
          {
            "duration": 0.08571425000000943,
            "durationTicks": 96,
            "midi": 82,
            "name": "A#5",
            "ticks": 94656,
            "time": 84.5142505,
            "velocity": 0.3937007874015748
          },
          {
            "duration": 0.08571425000000943,
            "durationTicks": 96,
            "midi": 70,
            "name": "A#4",
            "ticks": 94656,
            "time": 84.5142505,
            "velocity": 0.3937007874015748
          },
          {
            "duration": 0.08571424999999522,
            "durationTicks": 96,
            "midi": 85,
            "name": "C#6",
            "ticks": 94752,
            "time": 84.59996475000001,
            "velocity": 0.3937007874015748
          },
          {
            "duration": 0.08571424999999522,
            "durationTicks": 96,
            "midi": 73,
            "name": "C#5",
            "ticks": 94752,
            "time": 84.59996475000001,
            "velocity": 0.3937007874015748
          },
          {
            "duration": 0.08571424999999522,
            "durationTicks": 96,
            "midi": 65,
            "name": "F4",
            "ticks": 94848,
            "time": 84.68567900000001,
            "velocity": 0.3937007874015748
          },
          {
            "duration": 0.08571424999999522,
            "durationTicks": 96,
            "midi": 77,
            "name": "F5",
            "ticks": 94848,
            "time": 84.68567900000001,
            "velocity": 0.3937007874015748
          },
          {
            "duration": 0.08571424999999522,
            "durationTicks": 96,
            "midi": 66,
            "name": "F#4",
            "ticks": 95040,
            "time": 84.85710750000001,
            "velocity": 0.3937007874015748
          },
          {
            "duration": 0.08571424999999522,
            "durationTicks": 96,
            "midi": 78,
            "name": "F#5",
            "ticks": 95040,
            "time": 84.85710750000001,
            "velocity": 0.3937007874015748
          },
          {
            "duration": 0.08571425000000943,
            "durationTicks": 96,
            "midi": 80,
            "name": "G#5",
            "ticks": 95232,
            "time": 85.028536,
            "velocity": 0.3937007874015748
          },
          {
            "duration": 0.08571425000000943,
            "durationTicks": 96,
            "midi": 68,
            "name": "G#4",
            "ticks": 95232,
            "time": 85.028536,
            "velocity": 0.3937007874015748
          },
          {
            "duration": 0.08571424999999522,
            "durationTicks": 96,
            "midi": 63,
            "name": "D#4",
            "ticks": 95424,
            "time": 85.19996450000001,
            "velocity": 0.3937007874015748
          },
          {
            "duration": 0.08571424999999522,
            "durationTicks": 96,
            "midi": 75,
            "name": "D#5",
            "ticks": 95424,
            "time": 85.19996450000001,
            "velocity": 0.3937007874015748
          },
          {
            "duration": 0.08571425000000943,
            "durationTicks": 96,
            "midi": 80,
            "name": "G#5",
            "ticks": 95520,
            "time": 85.28567875,
            "velocity": 0.3937007874015748
          },
          {
            "duration": 0.08571425000000943,
            "durationTicks": 96,
            "midi": 68,
            "name": "G#4",
            "ticks": 95520,
            "time": 85.28567875,
            "velocity": 0.3937007874015748
          },
          {
            "duration": 0.08571424999999522,
            "durationTicks": 96,
            "midi": 63,
            "name": "D#4",
            "ticks": 95712,
            "time": 85.45710725,
            "velocity": 0.3937007874015748
          },
          {
            "duration": 0.08571424999999522,
            "durationTicks": 96,
            "midi": 75,
            "name": "D#5",
            "ticks": 95712,
            "time": 85.45710725,
            "velocity": 0.3937007874015748
          },
          {
            "duration": 0.08571425000000943,
            "durationTicks": 96,
            "midi": 80,
            "name": "G#5",
            "ticks": 95808,
            "time": 85.5428215,
            "velocity": 0.3937007874015748
          },
          {
            "duration": 0.08571425000000943,
            "durationTicks": 96,
            "midi": 68,
            "name": "G#4",
            "ticks": 95808,
            "time": 85.5428215,
            "velocity": 0.3937007874015748
          },
          {
            "duration": 0.08571424999999522,
            "durationTicks": 96,
            "midi": 70,
            "name": "A#4",
            "ticks": 96000,
            "time": 85.71425,
            "velocity": 0.3937007874015748
          },
          {
            "duration": 0.08571424999999522,
            "durationTicks": 96,
            "midi": 82,
            "name": "A#5",
            "ticks": 96000,
            "time": 85.71425,
            "velocity": 0.3937007874015748
          },
          {
            "duration": 0.08571424999999522,
            "durationTicks": 96,
            "midi": 65,
            "name": "F4",
            "ticks": 96192,
            "time": 85.88567850000001,
            "velocity": 0.3937007874015748
          },
          {
            "duration": 0.08571424999999522,
            "durationTicks": 96,
            "midi": 77,
            "name": "F5",
            "ticks": 96192,
            "time": 85.88567850000001,
            "velocity": 0.3937007874015748
          },
          {
            "duration": 0.08571424999999522,
            "durationTicks": 96,
            "midi": 82,
            "name": "A#5",
            "ticks": 96288,
            "time": 85.97139275,
            "velocity": 0.3937007874015748
          },
          {
            "duration": 0.08571424999999522,
            "durationTicks": 96,
            "midi": 70,
            "name": "A#4",
            "ticks": 96288,
            "time": 85.97139275,
            "velocity": 0.3937007874015748
          },
          {
            "duration": 0.08571424999999522,
            "durationTicks": 96,
            "midi": 65,
            "name": "F4",
            "ticks": 96480,
            "time": 86.14282125000001,
            "velocity": 0.3937007874015748
          },
          {
            "duration": 0.08571424999999522,
            "durationTicks": 96,
            "midi": 77,
            "name": "F5",
            "ticks": 96480,
            "time": 86.14282125000001,
            "velocity": 0.3937007874015748
          },
          {
            "duration": 0.08571424999999522,
            "durationTicks": 96,
            "midi": 70,
            "name": "A#4",
            "ticks": 96576,
            "time": 86.2285355,
            "velocity": 0.3937007874015748
          },
          {
            "duration": 0.08571424999999522,
            "durationTicks": 96,
            "midi": 82,
            "name": "A#5",
            "ticks": 96576,
            "time": 86.2285355,
            "velocity": 0.3937007874015748
          },
          {
            "duration": 0.08571424999999522,
            "durationTicks": 96,
            "midi": 71,
            "name": "B4",
            "ticks": 96768,
            "time": 86.39996400000001,
            "velocity": 0.3937007874015748
          },
          {
            "duration": 0.08571424999999522,
            "durationTicks": 96,
            "midi": 83,
            "name": "B5",
            "ticks": 96768,
            "time": 86.39996400000001,
            "velocity": 0.3937007874015748
          },
          {
            "duration": 0.08571424999999522,
            "durationTicks": 96,
            "midi": 78,
            "name": "F#5",
            "ticks": 96864,
            "time": 86.48567825,
            "velocity": 0.3937007874015748
          },
          {
            "duration": 0.08571424999999522,
            "durationTicks": 96,
            "midi": 66,
            "name": "F#4",
            "ticks": 96864,
            "time": 86.48567825,
            "velocity": 0.3937007874015748
          },
          {
            "duration": 0.08571425000000943,
            "durationTicks": 96,
            "midi": 71,
            "name": "B4",
            "ticks": 96960,
            "time": 86.5713925,
            "velocity": 0.3937007874015748
          },
          {
            "duration": 0.08571425000000943,
            "durationTicks": 96,
            "midi": 83,
            "name": "B5",
            "ticks": 96960,
            "time": 86.5713925,
            "velocity": 0.3937007874015748
          },
          {
            "duration": 0.08571424999999522,
            "durationTicks": 96,
            "midi": 83,
            "name": "B5",
            "ticks": 97056,
            "time": 86.65710675000001,
            "velocity": 0.3937007874015748
          },
          {
            "duration": 0.08571424999999522,
            "durationTicks": 96,
            "midi": 71,
            "name": "B4",
            "ticks": 97056,
            "time": 86.65710675000001,
            "velocity": 0.3937007874015748
          },
          {
            "duration": 0.08571424999999522,
            "durationTicks": 96,
            "midi": 83,
            "name": "B5",
            "ticks": 97152,
            "time": 86.742821,
            "velocity": 0.3937007874015748
          },
          {
            "duration": 0.08571424999999522,
            "durationTicks": 96,
            "midi": 71,
            "name": "B4",
            "ticks": 97152,
            "time": 86.742821,
            "velocity": 0.3937007874015748
          },
          {
            "duration": 0.08571424999999522,
            "durationTicks": 96,
            "midi": 72,
            "name": "C5",
            "ticks": 97344,
            "time": 86.91424950000001,
            "velocity": 0.3937007874015748
          },
          {
            "duration": 0.08571424999999522,
            "durationTicks": 96,
            "midi": 84,
            "name": "C6",
            "ticks": 97344,
            "time": 86.91424950000001,
            "velocity": 0.3937007874015748
          },
          {
            "duration": 0.08571425000000943,
            "durationTicks": 96,
            "midi": 73,
            "name": "C#5",
            "ticks": 97536,
            "time": 87.085678,
            "velocity": 0.3937007874015748
          },
          {
            "duration": 0.08571425000000943,
            "durationTicks": 96,
            "midi": 85,
            "name": "C#6",
            "ticks": 97536,
            "time": 87.085678,
            "velocity": 0.3937007874015748
          },
          {
            "duration": 0.08571424999999522,
            "durationTicks": 96,
            "midi": 70,
            "name": "A#4",
            "ticks": 98304,
            "time": 87.771392,
            "velocity": 0.3937007874015748
          },
          {
            "duration": 0.08571424999999522,
            "durationTicks": 96,
            "midi": 58,
            "name": "A#3",
            "ticks": 98304,
            "time": 87.771392,
            "velocity": 0.3937007874015748
          },
          {
            "duration": 0.08571424999999522,
            "durationTicks": 96,
            "midi": 66,
            "name": "F#4",
            "ticks": 98496,
            "time": 87.94282050000001,
            "velocity": 0.3937007874015748
          },
          {
            "duration": 0.08571424999999522,
            "durationTicks": 96,
            "midi": 78,
            "name": "F#5",
            "ticks": 98496,
            "time": 87.94282050000001,
            "velocity": 0.3937007874015748
          },
          {
            "duration": 0.08571425000000943,
            "durationTicks": 96,
            "midi": 77,
            "name": "F5",
            "ticks": 98688,
            "time": 88.114249,
            "velocity": 0.3937007874015748
          },
          {
            "duration": 0.08571425000000943,
            "durationTicks": 96,
            "midi": 65,
            "name": "F4",
            "ticks": 98688,
            "time": 88.114249,
            "velocity": 0.3937007874015748
          },
          {
            "duration": 0.08571424999999522,
            "durationTicks": 96,
            "midi": 66,
            "name": "F#4",
            "ticks": 98784,
            "time": 88.19996325000001,
            "velocity": 0.3937007874015748
          },
          {
            "duration": 0.08571424999999522,
            "durationTicks": 96,
            "midi": 78,
            "name": "F#5",
            "ticks": 98784,
            "time": 88.19996325000001,
            "velocity": 0.3937007874015748
          },
          {
            "duration": 0.08571424999999522,
            "durationTicks": 96,
            "midi": 65,
            "name": "F4",
            "ticks": 98880,
            "time": 88.2856775,
            "velocity": 0.3937007874015748
          },
          {
            "duration": 0.08571424999999522,
            "durationTicks": 96,
            "midi": 77,
            "name": "F5",
            "ticks": 98880,
            "time": 88.2856775,
            "velocity": 0.3937007874015748
          },
          {
            "duration": 0.08571424999999522,
            "durationTicks": 96,
            "midi": 80,
            "name": "G#5",
            "ticks": 99072,
            "time": 88.45710600000001,
            "velocity": 0.3937007874015748
          },
          {
            "duration": 0.08571424999999522,
            "durationTicks": 96,
            "midi": 68,
            "name": "G#4",
            "ticks": 99072,
            "time": 88.45710600000001,
            "velocity": 0.3937007874015748
          },
          {
            "duration": 0.08571425000000943,
            "durationTicks": 96,
            "midi": 78,
            "name": "F#5",
            "ticks": 99264,
            "time": 88.6285345,
            "velocity": 0.3937007874015748
          },
          {
            "duration": 0.08571425000000943,
            "durationTicks": 96,
            "midi": 66,
            "name": "F#4",
            "ticks": 99264,
            "time": 88.6285345,
            "velocity": 0.3937007874015748
          },
          {
            "duration": 0.08571424999999522,
            "durationTicks": 96,
            "midi": 77,
            "name": "F5",
            "ticks": 99456,
            "time": 88.799963,
            "velocity": 0.3937007874015748
          },
          {
            "duration": 0.08571424999999522,
            "durationTicks": 96,
            "midi": 65,
            "name": "F4",
            "ticks": 99456,
            "time": 88.799963,
            "velocity": 0.3937007874015748
          },
          {
            "duration": 0.08571425000000943,
            "durationTicks": 96,
            "midi": 66,
            "name": "F#4",
            "ticks": 99552,
            "time": 88.88567725,
            "velocity": 0.3937007874015748
          },
          {
            "duration": 0.08571425000000943,
            "durationTicks": 96,
            "midi": 78,
            "name": "F#5",
            "ticks": 99552,
            "time": 88.88567725,
            "velocity": 0.3937007874015748
          },
          {
            "duration": 0.08571424999999522,
            "durationTicks": 96,
            "midi": 77,
            "name": "F5",
            "ticks": 99648,
            "time": 88.97139150000001,
            "velocity": 0.3937007874015748
          },
          {
            "duration": 0.08571424999999522,
            "durationTicks": 96,
            "midi": 65,
            "name": "F4",
            "ticks": 99648,
            "time": 88.97139150000001,
            "velocity": 0.3937007874015748
          },
          {
            "duration": 0.08571424999999522,
            "durationTicks": 96,
            "midi": 61,
            "name": "C#4",
            "ticks": 99744,
            "time": 89.05710575,
            "velocity": 0.3937007874015748
          },
          {
            "duration": 0.08571424999999522,
            "durationTicks": 96,
            "midi": 73,
            "name": "C#5",
            "ticks": 99744,
            "time": 89.05710575,
            "velocity": 0.3937007874015748
          },
          {
            "duration": 0.08571425000000943,
            "durationTicks": 96,
            "midi": 75,
            "name": "D#5",
            "ticks": 99840,
            "time": 89.14282,
            "velocity": 0.3937007874015748
          },
          {
            "duration": 0.08571425000000943,
            "durationTicks": 96,
            "midi": 63,
            "name": "D#4",
            "ticks": 99840,
            "time": 89.14282,
            "velocity": 0.3937007874015748
          },
          {
            "duration": 0.08571424999999522,
            "durationTicks": 96,
            "midi": 82,
            "name": "A#5",
            "ticks": 100032,
            "time": 89.3142485,
            "velocity": 0.3937007874015748
          },
          {
            "duration": 0.08571424999999522,
            "durationTicks": 96,
            "midi": 70,
            "name": "A#4",
            "ticks": 100032,
            "time": 89.3142485,
            "velocity": 0.3937007874015748
          },
          {
            "duration": 0.08571424999999522,
            "durationTicks": 96,
            "midi": 68,
            "name": "G#4",
            "ticks": 100224,
            "time": 89.48567700000001,
            "velocity": 0.3937007874015748
          },
          {
            "duration": 0.08571424999999522,
            "durationTicks": 96,
            "midi": 80,
            "name": "G#5",
            "ticks": 100224,
            "time": 89.48567700000001,
            "velocity": 0.3937007874015748
          },
          {
            "duration": 0.08571424999999522,
            "durationTicks": 96,
            "midi": 82,
            "name": "A#5",
            "ticks": 100320,
            "time": 89.57139125,
            "velocity": 0.3937007874015748
          },
          {
            "duration": 0.08571424999999522,
            "durationTicks": 96,
            "midi": 70,
            "name": "A#4",
            "ticks": 100320,
            "time": 89.57139125,
            "velocity": 0.3937007874015748
          },
          {
            "duration": 0.08571425000000943,
            "durationTicks": 96,
            "midi": 68,
            "name": "G#4",
            "ticks": 100416,
            "time": 89.6571055,
            "velocity": 0.3937007874015748
          },
          {
            "duration": 0.08571425000000943,
            "durationTicks": 96,
            "midi": 80,
            "name": "G#5",
            "ticks": 100416,
            "time": 89.6571055,
            "velocity": 0.3937007874015748
          },
          {
            "duration": 0.08571424999999522,
            "durationTicks": 96,
            "midi": 82,
            "name": "A#5",
            "ticks": 100512,
            "time": 89.74281975000001,
            "velocity": 0.3937007874015748
          },
          {
            "duration": 0.08571424999999522,
            "durationTicks": 96,
            "midi": 70,
            "name": "A#4",
            "ticks": 100512,
            "time": 89.74281975000001,
            "velocity": 0.3937007874015748
          },
          {
            "duration": 0.08571424999999522,
            "durationTicks": 96,
            "midi": 73,
            "name": "C#5",
            "ticks": 100608,
            "time": 89.828534,
            "velocity": 0.3937007874015748
          },
          {
            "duration": 0.08571424999999522,
            "durationTicks": 96,
            "midi": 85,
            "name": "C#6",
            "ticks": 100608,
            "time": 89.828534,
            "velocity": 0.3937007874015748
          },
          {
            "duration": 0.08571424999999522,
            "durationTicks": 96,
            "midi": 82,
            "name": "A#5",
            "ticks": 100800,
            "time": 89.99996250000001,
            "velocity": 0.3937007874015748
          },
          {
            "duration": 0.08571424999999522,
            "durationTicks": 96,
            "midi": 70,
            "name": "A#4",
            "ticks": 100800,
            "time": 89.99996250000001,
            "velocity": 0.3937007874015748
          },
          {
            "duration": 0.08571425000000943,
            "durationTicks": 96,
            "midi": 68,
            "name": "G#4",
            "ticks": 100992,
            "time": 90.171391,
            "velocity": 0.3937007874015748
          },
          {
            "duration": 0.08571425000000943,
            "durationTicks": 96,
            "midi": 80,
            "name": "G#5",
            "ticks": 100992,
            "time": 90.171391,
            "velocity": 0.3937007874015748
          },
          {
            "duration": 0.08571424999999522,
            "durationTicks": 96,
            "midi": 70,
            "name": "A#4",
            "ticks": 101184,
            "time": 90.3428195,
            "velocity": 0.3937007874015748
          },
          {
            "duration": 0.08571424999999522,
            "durationTicks": 96,
            "midi": 82,
            "name": "A#5",
            "ticks": 101184,
            "time": 90.3428195,
            "velocity": 0.3937007874015748
          },
          {
            "duration": 0.08571424999999522,
            "durationTicks": 96,
            "midi": 71,
            "name": "B4",
            "ticks": 101376,
            "time": 90.51424800000001,
            "velocity": 0.3937007874015748
          },
          {
            "duration": 0.08571424999999522,
            "durationTicks": 96,
            "midi": 59,
            "name": "B3",
            "ticks": 101376,
            "time": 90.51424800000001,
            "velocity": 0.3937007874015748
          },
          {
            "duration": 0.08571425000000943,
            "durationTicks": 96,
            "midi": 66,
            "name": "F#4",
            "ticks": 101568,
            "time": 90.6856765,
            "velocity": 0.3937007874015748
          },
          {
            "duration": 0.08571425000000943,
            "durationTicks": 96,
            "midi": 78,
            "name": "F#5",
            "ticks": 101568,
            "time": 90.6856765,
            "velocity": 0.3937007874015748
          },
          {
            "duration": 0.08571424999999522,
            "durationTicks": 96,
            "midi": 65,
            "name": "F4",
            "ticks": 101760,
            "time": 90.857105,
            "velocity": 0.3937007874015748
          },
          {
            "duration": 0.08571424999999522,
            "durationTicks": 96,
            "midi": 77,
            "name": "F5",
            "ticks": 101760,
            "time": 90.857105,
            "velocity": 0.3937007874015748
          },
          {
            "duration": 0.08571425000000943,
            "durationTicks": 96,
            "midi": 66,
            "name": "F#4",
            "ticks": 101856,
            "time": 90.94281925,
            "velocity": 0.3937007874015748
          },
          {
            "duration": 0.08571425000000943,
            "durationTicks": 96,
            "midi": 78,
            "name": "F#5",
            "ticks": 101856,
            "time": 90.94281925,
            "velocity": 0.3937007874015748
          },
          {
            "duration": 0.08571424999999522,
            "durationTicks": 96,
            "midi": 77,
            "name": "F5",
            "ticks": 101952,
            "time": 91.02853350000001,
            "velocity": 0.3937007874015748
          },
          {
            "duration": 0.08571424999999522,
            "durationTicks": 96,
            "midi": 65,
            "name": "F4",
            "ticks": 101952,
            "time": 91.02853350000001,
            "velocity": 0.3937007874015748
          },
          {
            "duration": 0.08571425000000943,
            "durationTicks": 96,
            "midi": 68,
            "name": "G#4",
            "ticks": 102144,
            "time": 91.199962,
            "velocity": 0.3937007874015748
          },
          {
            "duration": 0.08571425000000943,
            "durationTicks": 96,
            "midi": 80,
            "name": "G#5",
            "ticks": 102144,
            "time": 91.199962,
            "velocity": 0.3937007874015748
          },
          {
            "duration": 0.08571424999999522,
            "durationTicks": 96,
            "midi": 78,
            "name": "F#5",
            "ticks": 102336,
            "time": 91.3713905,
            "velocity": 0.3937007874015748
          },
          {
            "duration": 0.08571424999999522,
            "durationTicks": 96,
            "midi": 66,
            "name": "F#4",
            "ticks": 102336,
            "time": 91.3713905,
            "velocity": 0.3937007874015748
          },
          {
            "duration": 0.08571424999999522,
            "durationTicks": 96,
            "midi": 77,
            "name": "F5",
            "ticks": 102528,
            "time": 91.54281900000001,
            "velocity": 0.3937007874015748
          },
          {
            "duration": 0.08571424999999522,
            "durationTicks": 96,
            "midi": 65,
            "name": "F4",
            "ticks": 102528,
            "time": 91.54281900000001,
            "velocity": 0.3937007874015748
          },
          {
            "duration": 0.08571424999999522,
            "durationTicks": 96,
            "midi": 78,
            "name": "F#5",
            "ticks": 102624,
            "time": 91.62853325,
            "velocity": 0.3937007874015748
          },
          {
            "duration": 0.08571424999999522,
            "durationTicks": 96,
            "midi": 66,
            "name": "F#4",
            "ticks": 102624,
            "time": 91.62853325,
            "velocity": 0.3937007874015748
          },
          {
            "duration": 0.08571425000000943,
            "durationTicks": 96,
            "midi": 65,
            "name": "F4",
            "ticks": 102720,
            "time": 91.7142475,
            "velocity": 0.3937007874015748
          },
          {
            "duration": 0.08571425000000943,
            "durationTicks": 96,
            "midi": 77,
            "name": "F5",
            "ticks": 102720,
            "time": 91.7142475,
            "velocity": 0.3937007874015748
          },
          {
            "duration": 0.08571424999999522,
            "durationTicks": 96,
            "midi": 61,
            "name": "C#4",
            "ticks": 102816,
            "time": 91.79996175000001,
            "velocity": 0.3937007874015748
          },
          {
            "duration": 0.08571424999999522,
            "durationTicks": 96,
            "midi": 73,
            "name": "C#5",
            "ticks": 102816,
            "time": 91.79996175000001,
            "velocity": 0.3937007874015748
          },
          {
            "duration": 0.08571425000000943,
            "durationTicks": 96,
            "midi": 75,
            "name": "D#5",
            "ticks": 102912,
            "time": 91.885676,
            "velocity": 0.3937007874015748
          },
          {
            "duration": 0.08571425000000943,
            "durationTicks": 96,
            "midi": 63,
            "name": "D#4",
            "ticks": 102912,
            "time": 91.885676,
            "velocity": 0.3937007874015748
          },
          {
            "duration": 0.08571424999999522,
            "durationTicks": 96,
            "midi": 70,
            "name": "A#4",
            "ticks": 103104,
            "time": 92.05710450000001,
            "velocity": 0.3937007874015748
          },
          {
            "duration": 0.08571424999999522,
            "durationTicks": 96,
            "midi": 82,
            "name": "A#5",
            "ticks": 103104,
            "time": 92.05710450000001,
            "velocity": 0.3937007874015748
          },
          {
            "duration": 0.08571424999999522,
            "durationTicks": 96,
            "midi": 80,
            "name": "G#5",
            "ticks": 103296,
            "time": 92.22853300000001,
            "velocity": 0.3937007874015748
          },
          {
            "duration": 0.08571424999999522,
            "durationTicks": 96,
            "midi": 68,
            "name": "G#4",
            "ticks": 103296,
            "time": 92.22853300000001,
            "velocity": 0.3937007874015748
          },
          {
            "duration": 0.08571424999999522,
            "durationTicks": 96,
            "midi": 70,
            "name": "A#4",
            "ticks": 103392,
            "time": 92.31424725000001,
            "velocity": 0.3937007874015748
          },
          {
            "duration": 0.08571424999999522,
            "durationTicks": 96,
            "midi": 82,
            "name": "A#5",
            "ticks": 103392,
            "time": 92.31424725000001,
            "velocity": 0.3937007874015748
          },
          {
            "duration": 0.08571425000000943,
            "durationTicks": 96,
            "midi": 80,
            "name": "G#5",
            "ticks": 103488,
            "time": 92.3999615,
            "velocity": 0.3937007874015748
          },
          {
            "duration": 0.08571425000000943,
            "durationTicks": 96,
            "midi": 68,
            "name": "G#4",
            "ticks": 103488,
            "time": 92.3999615,
            "velocity": 0.3937007874015748
          },
          {
            "duration": 0.08571424999999522,
            "durationTicks": 96,
            "midi": 70,
            "name": "A#4",
            "ticks": 103584,
            "time": 92.48567575000001,
            "velocity": 0.3937007874015748
          },
          {
            "duration": 0.08571424999999522,
            "durationTicks": 96,
            "midi": 82,
            "name": "A#5",
            "ticks": 103584,
            "time": 92.48567575000001,
            "velocity": 0.3937007874015748
          },
          {
            "duration": 0.08571424999999522,
            "durationTicks": 96,
            "midi": 74,
            "name": "D5",
            "ticks": 103680,
            "time": 92.57139000000001,
            "velocity": 0.3937007874015748
          },
          {
            "duration": 0.08571424999999522,
            "durationTicks": 96,
            "midi": 86,
            "name": "D6",
            "ticks": 103680,
            "time": 92.57139000000001,
            "velocity": 0.3937007874015748
          },
          {
            "duration": 0.08571424999999522,
            "durationTicks": 96,
            "midi": 82,
            "name": "A#5",
            "ticks": 103872,
            "time": 92.74281850000001,
            "velocity": 0.3937007874015748
          },
          {
            "duration": 0.08571424999999522,
            "durationTicks": 96,
            "midi": 70,
            "name": "A#4",
            "ticks": 103872,
            "time": 92.74281850000001,
            "velocity": 0.3937007874015748
          },
          {
            "duration": 0.08571425000000943,
            "durationTicks": 96,
            "midi": 74,
            "name": "D5",
            "ticks": 104064,
            "time": 92.914247,
            "velocity": 0.3937007874015748
          },
          {
            "duration": 0.08571425000000943,
            "durationTicks": 96,
            "midi": 86,
            "name": "D6",
            "ticks": 104064,
            "time": 92.914247,
            "velocity": 0.3937007874015748
          },
          {
            "duration": 0.08571424999999522,
            "durationTicks": 96,
            "midi": 77,
            "name": "F5",
            "ticks": 104256,
            "time": 93.08567550000001,
            "velocity": 0.3937007874015748
          },
          {
            "duration": 0.08571424999999522,
            "durationTicks": 96,
            "midi": 89,
            "name": "F6",
            "ticks": 104256,
            "time": 93.08567550000001,
            "velocity": 0.3937007874015748
          },
          {
            "duration": 0.08571424999999522,
            "durationTicks": 96,
            "midi": 75,
            "name": "D#5",
            "ticks": 104448,
            "time": 93.25710400000001,
            "velocity": 0.3937007874015748
          },
          {
            "duration": 0.08571424999999522,
            "durationTicks": 96,
            "midi": 87,
            "name": "D#6",
            "ticks": 104448,
            "time": 93.25710400000001,
            "velocity": 0.3937007874015748
          },
          {
            "duration": 0.08571424999999522,
            "durationTicks": 96,
            "midi": 75,
            "name": "D#5",
            "ticks": 105024,
            "time": 93.77138950000001,
            "velocity": 0.3937007874015748
          },
          {
            "duration": 0.08571424999999522,
            "durationTicks": 96,
            "midi": 87,
            "name": "D#6",
            "ticks": 105024,
            "time": 93.77138950000001,
            "velocity": 0.3937007874015748
          },
          {
            "duration": 0.08571425000000943,
            "durationTicks": 96,
            "midi": 75,
            "name": "D#5",
            "ticks": 105216,
            "time": 93.942818,
            "velocity": 0.3937007874015748
          },
          {
            "duration": 0.08571425000000943,
            "durationTicks": 96,
            "midi": 87,
            "name": "D#6",
            "ticks": 105216,
            "time": 93.942818,
            "velocity": 0.3937007874015748
          },
          {
            "duration": 0.08571424999999522,
            "durationTicks": 96,
            "midi": 85,
            "name": "C#6",
            "ticks": 105408,
            "time": 94.11424650000001,
            "velocity": 0.3937007874015748
          },
          {
            "duration": 0.08571424999999522,
            "durationTicks": 96,
            "midi": 73,
            "name": "C#5",
            "ticks": 105408,
            "time": 94.11424650000001,
            "velocity": 0.3937007874015748
          },
          {
            "duration": 0.08571425000000943,
            "durationTicks": 96,
            "midi": 75,
            "name": "D#5",
            "ticks": 105792,
            "time": 94.4571035,
            "velocity": 0.3937007874015748
          },
          {
            "duration": 0.08571425000000943,
            "durationTicks": 96,
            "midi": 87,
            "name": "D#6",
            "ticks": 105792,
            "time": 94.4571035,
            "velocity": 0.3937007874015748
          },
          {
            "duration": 0.08571424999999522,
            "durationTicks": 96,
            "midi": 87,
            "name": "D#6",
            "ticks": 106176,
            "time": 94.79996050000001,
            "velocity": 0.3937007874015748
          },
          {
            "duration": 0.08571424999999522,
            "durationTicks": 96,
            "midi": 75,
            "name": "D#5",
            "ticks": 106176,
            "time": 94.79996050000001,
            "velocity": 0.3937007874015748
          },
          {
            "duration": 0.08571425000000943,
            "durationTicks": 96,
            "midi": 73,
            "name": "C#5",
            "ticks": 106368,
            "time": 94.971389,
            "velocity": 0.3937007874015748
          },
          {
            "duration": 0.08571425000000943,
            "durationTicks": 96,
            "midi": 85,
            "name": "C#6",
            "ticks": 106368,
            "time": 94.971389,
            "velocity": 0.3937007874015748
          },
          {
            "duration": 0.08571424999999522,
            "durationTicks": 96,
            "midi": 87,
            "name": "D#6",
            "ticks": 106560,
            "time": 95.1428175,
            "velocity": 0.3937007874015748
          },
          {
            "duration": 0.08571424999999522,
            "durationTicks": 96,
            "midi": 75,
            "name": "D#5",
            "ticks": 106560,
            "time": 95.1428175,
            "velocity": 0.3937007874015748
          },
          {
            "duration": 0.08571424999999522,
            "durationTicks": 96,
            "midi": 87,
            "name": "D#6",
            "ticks": 106752,
            "time": 95.31424600000001,
            "velocity": 0.3937007874015748
          },
          {
            "duration": 0.08571424999999522,
            "durationTicks": 96,
            "midi": 75,
            "name": "D#5",
            "ticks": 106752,
            "time": 95.31424600000001,
            "velocity": 0.3937007874015748
          },
          {
            "duration": 0.08571424999999522,
            "durationTicks": 96,
            "midi": 85,
            "name": "C#6",
            "ticks": 106848,
            "time": 95.39996025,
            "velocity": 0.3937007874015748
          },
          {
            "duration": 0.08571424999999522,
            "durationTicks": 96,
            "midi": 73,
            "name": "C#5",
            "ticks": 106848,
            "time": 95.39996025,
            "velocity": 0.3937007874015748
          },
          {
            "duration": 0.08571425000000943,
            "durationTicks": 96,
            "midi": 70,
            "name": "A#4",
            "ticks": 106944,
            "time": 95.4856745,
            "velocity": 0.3937007874015748
          },
          {
            "duration": 0.08571425000000943,
            "durationTicks": 96,
            "midi": 82,
            "name": "A#5",
            "ticks": 106944,
            "time": 95.4856745,
            "velocity": 0.3937007874015748
          },
          {
            "duration": 0.08571424999999522,
            "durationTicks": 96,
            "midi": 66,
            "name": "F#4",
            "ticks": 107136,
            "time": 95.657103,
            "velocity": 0.3937007874015748
          },
          {
            "duration": 0.08571424999999522,
            "durationTicks": 96,
            "midi": 78,
            "name": "F#5",
            "ticks": 107136,
            "time": 95.657103,
            "velocity": 0.3937007874015748
          },
          {
            "duration": 0.08571424999999522,
            "durationTicks": 96,
            "midi": 79,
            "name": "G5",
            "ticks": 107328,
            "time": 95.82853150000001,
            "velocity": 0.3937007874015748
          },
          {
            "duration": 0.08571424999999522,
            "durationTicks": 96,
            "midi": 67,
            "name": "G4",
            "ticks": 107328,
            "time": 95.82853150000001,
            "velocity": 0.3937007874015748
          },
          {
            "duration": 0.08571425000000943,
            "durationTicks": 96,
            "midi": 80,
            "name": "G#5",
            "ticks": 107520,
            "time": 95.99996,
            "velocity": 0.3937007874015748
          },
          {
            "duration": 0.08571425000000943,
            "durationTicks": 96,
            "midi": 68,
            "name": "G#4",
            "ticks": 107520,
            "time": 95.99996,
            "velocity": 0.3937007874015748
          },
          {
            "duration": 0.08571424999999522,
            "durationTicks": 96,
            "midi": 75,
            "name": "D#5",
            "ticks": 107712,
            "time": 96.1713885,
            "velocity": 0.3937007874015748
          },
          {
            "duration": 0.08571424999999522,
            "durationTicks": 96,
            "midi": 63,
            "name": "D#4",
            "ticks": 107712,
            "time": 96.1713885,
            "velocity": 0.3937007874015748
          },
          {
            "duration": 0.08571425000000943,
            "durationTicks": 96,
            "midi": 80,
            "name": "G#5",
            "ticks": 107808,
            "time": 96.25710275,
            "velocity": 0.3937007874015748
          },
          {
            "duration": 0.08571425000000943,
            "durationTicks": 96,
            "midi": 68,
            "name": "G#4",
            "ticks": 107808,
            "time": 96.25710275,
            "velocity": 0.3937007874015748
          },
          {
            "duration": 0.08571424999999522,
            "durationTicks": 96,
            "midi": 75,
            "name": "D#5",
            "ticks": 108000,
            "time": 96.42853125,
            "velocity": 0.3937007874015748
          },
          {
            "duration": 0.08571424999999522,
            "durationTicks": 96,
            "midi": 63,
            "name": "D#4",
            "ticks": 108000,
            "time": 96.42853125,
            "velocity": 0.3937007874015748
          },
          {
            "duration": 0.08571425000000943,
            "durationTicks": 96,
            "midi": 68,
            "name": "G#4",
            "ticks": 108096,
            "time": 96.5142455,
            "velocity": 0.3937007874015748
          },
          {
            "duration": 0.08571425000000943,
            "durationTicks": 96,
            "midi": 80,
            "name": "G#5",
            "ticks": 108096,
            "time": 96.5142455,
            "velocity": 0.3937007874015748
          },
          {
            "duration": 0.08571424999999522,
            "durationTicks": 96,
            "midi": 82,
            "name": "A#5",
            "ticks": 108288,
            "time": 96.685674,
            "velocity": 0.3937007874015748
          },
          {
            "duration": 0.08571424999999522,
            "durationTicks": 96,
            "midi": 70,
            "name": "A#4",
            "ticks": 108288,
            "time": 96.685674,
            "velocity": 0.3937007874015748
          },
          {
            "duration": 0.08571424999999522,
            "durationTicks": 96,
            "midi": 78,
            "name": "F#5",
            "ticks": 108480,
            "time": 96.85710250000001,
            "velocity": 0.3937007874015748
          },
          {
            "duration": 0.08571424999999522,
            "durationTicks": 96,
            "midi": 90,
            "name": "F#6",
            "ticks": 108480,
            "time": 96.85710250000001,
            "velocity": 0.3937007874015748
          },
          {
            "duration": 0.08571425000000943,
            "durationTicks": 96,
            "midi": 77,
            "name": "F5",
            "ticks": 108672,
            "time": 97.028531,
            "velocity": 0.3937007874015748
          },
          {
            "duration": 0.08571425000000943,
            "durationTicks": 96,
            "midi": 89,
            "name": "F6",
            "ticks": 108672,
            "time": 97.028531,
            "velocity": 0.3937007874015748
          },
          {
            "duration": 0.08571424999999522,
            "durationTicks": 96,
            "midi": 85,
            "name": "C#6",
            "ticks": 108864,
            "time": 97.1999595,
            "velocity": 0.3937007874015748
          },
          {
            "duration": 0.08571424999999522,
            "durationTicks": 96,
            "midi": 73,
            "name": "C#5",
            "ticks": 108864,
            "time": 97.1999595,
            "velocity": 0.3937007874015748
          },
          {
            "duration": 0.08571424999999522,
            "durationTicks": 96,
            "midi": 75,
            "name": "D#5",
            "ticks": 109056,
            "time": 97.37138800000001,
            "velocity": 0.3937007874015748
          },
          {
            "duration": 0.08571424999999522,
            "durationTicks": 96,
            "midi": 87,
            "name": "D#6",
            "ticks": 109056,
            "time": 97.37138800000001,
            "velocity": 0.3937007874015748
          }
        ],
        "endOfTrackTicks": 109152
      },
      {
        "channel": 9,
        "controlChanges": {},
        "pitchBends": [],
        "instrument": {
          "family": "drums",
          "number": 0,
          "name": "standard kit"
        },
        "name": "909 Drum Kit",
        "notes": [
          {
            "duration": 0.08571425,
            "durationTicks": 96,
            "midi": 0,
            "name": "C-1",
            "ticks": 0,
            "time": 0,
            "velocity": 0.1732283464566929
          },
          {
            "duration": 0.08571425,
            "durationTicks": 96,
            "midi": 0,
            "name": "C-1",
            "ticks": 0,
            "time": 0,
            "velocity": 0.1732283464566929
          },
          {
            "duration": 0.08571425,
            "durationTicks": 96,
            "midi": 0,
            "name": "C-1",
            "ticks": 0,
            "time": 0,
            "velocity": 0.1732283464566929
          },
          {
            "duration": 0.08571425,
            "durationTicks": 96,
            "midi": 0,
            "name": "C-1",
            "ticks": 0,
            "time": 0,
            "velocity": 0.1732283464566929
          },
          {
            "duration": 0.08571425,
            "durationTicks": 96,
            "midi": 0,
            "name": "C-1",
            "ticks": 0,
            "time": 0,
            "velocity": 0.1732283464566929
          },
          {
            "duration": 0.08571425,
            "durationTicks": 96,
            "midi": 0,
            "name": "C-1",
            "ticks": 96,
            "time": 0.08571425,
            "velocity": 0.1732283464566929
          },
          {
            "duration": 0.08571425000000002,
            "durationTicks": 96,
            "midi": 0,
            "name": "C-1",
            "ticks": 192,
            "time": 0.1714285,
            "velocity": 0.1732283464566929
          },
          {
            "duration": 0.08571425000000002,
            "durationTicks": 96,
            "midi": 0,
            "name": "C-1",
            "ticks": 192,
            "time": 0.1714285,
            "velocity": 0.1732283464566929
          },
          {
            "duration": 0.08571425000000002,
            "durationTicks": 96,
            "midi": 0,
            "name": "C-1",
            "ticks": 192,
            "time": 0.1714285,
            "velocity": 0.1732283464566929
          },
          {
            "duration": 0.08571424999999999,
            "durationTicks": 96,
            "midi": 0,
            "name": "C-1",
            "ticks": 288,
            "time": 0.25714275000000003,
            "velocity": 0.1732283464566929
          },
          {
            "duration": 0.08571424999999999,
            "durationTicks": 96,
            "midi": 0,
            "name": "C-1",
            "ticks": 384,
            "time": 0.342857,
            "velocity": 0.1732283464566929
          },
          {
            "duration": 0.08571424999999999,
            "durationTicks": 96,
            "midi": 0,
            "name": "C-1",
            "ticks": 384,
            "time": 0.342857,
            "velocity": 0.1732283464566929
          },
          {
            "duration": 0.08571424999999999,
            "durationTicks": 96,
            "midi": 0,
            "name": "C-1",
            "ticks": 384,
            "time": 0.342857,
            "velocity": 0.1732283464566929
          },
          {
            "duration": 0.08571425000000005,
            "durationTicks": 96,
            "midi": 0,
            "name": "C-1",
            "ticks": 480,
            "time": 0.42857125,
            "velocity": 0.1732283464566929
          },
          {
            "duration": 0.08571424999999999,
            "durationTicks": 96,
            "midi": 0,
            "name": "C-1",
            "ticks": 576,
            "time": 0.5142855000000001,
            "velocity": 0.1732283464566929
          },
          {
            "duration": 0.08571424999999999,
            "durationTicks": 96,
            "midi": 0,
            "name": "C-1",
            "ticks": 576,
            "time": 0.5142855000000001,
            "velocity": 0.1732283464566929
          },
          {
            "duration": 0.08571424999999999,
            "durationTicks": 96,
            "midi": 0,
            "name": "C-1",
            "ticks": 576,
            "time": 0.5142855000000001,
            "velocity": 0.1732283464566929
          },
          {
            "duration": 0.08571424999999999,
            "durationTicks": 96,
            "midi": 0,
            "name": "C-1",
            "ticks": 672,
            "time": 0.59999975,
            "velocity": 0.1732283464566929
          },
          {
            "duration": 0.08571424999999999,
            "durationTicks": 96,
            "midi": 0,
            "name": "C-1",
            "ticks": 768,
            "time": 0.685714,
            "velocity": 0.1732283464566929
          },
          {
            "duration": 0.08571424999999999,
            "durationTicks": 96,
            "midi": 0,
            "name": "C-1",
            "ticks": 864,
            "time": 0.77142825,
            "velocity": 0.1732283464566929
          },
          {
            "duration": 0.08571424999999999,
            "durationTicks": 96,
            "midi": 0,
            "name": "C-1",
            "ticks": 960,
            "time": 0.8571425,
            "velocity": 0.1732283464566929
          },
          {
            "duration": 0.08571424999999999,
            "durationTicks": 96,
            "midi": 0,
            "name": "C-1",
            "ticks": 960,
            "time": 0.8571425,
            "velocity": 0.1732283464566929
          },
          {
            "duration": 0.08571424999999999,
            "durationTicks": 96,
            "midi": 0,
            "name": "C-1",
            "ticks": 960,
            "time": 0.8571425,
            "velocity": 0.1732283464566929
          },
          {
            "duration": 0.0857142500000001,
            "durationTicks": 96,
            "midi": 0,
            "name": "C-1",
            "ticks": 1056,
            "time": 0.94285675,
            "velocity": 0.1732283464566929
          },
          {
            "duration": 0.08571424999999988,
            "durationTicks": 96,
            "midi": 0,
            "name": "C-1",
            "ticks": 1152,
            "time": 1.0285710000000001,
            "velocity": 0.1732283464566929
          },
          {
            "duration": 0.08571424999999988,
            "durationTicks": 96,
            "midi": 0,
            "name": "C-1",
            "ticks": 1152,
            "time": 1.0285710000000001,
            "velocity": 0.1732283464566929
          },
          {
            "duration": 0.08571424999999988,
            "durationTicks": 96,
            "midi": 0,
            "name": "C-1",
            "ticks": 1152,
            "time": 1.0285710000000001,
            "velocity": 0.1732283464566929
          },
          {
            "duration": 0.0857142500000001,
            "durationTicks": 96,
            "midi": 0,
            "name": "C-1",
            "ticks": 1248,
            "time": 1.11428525,
            "velocity": 0.1732283464566929
          },
          {
            "duration": 0.08571424999999988,
            "durationTicks": 96,
            "midi": 0,
            "name": "C-1",
            "ticks": 1344,
            "time": 1.1999995,
            "velocity": 0.1732283464566929
          },
          {
            "duration": 0.08571424999999988,
            "durationTicks": 96,
            "midi": 0,
            "name": "C-1",
            "ticks": 1344,
            "time": 1.1999995,
            "velocity": 0.1732283464566929
          },
          {
            "duration": 0.08571424999999988,
            "durationTicks": 96,
            "midi": 0,
            "name": "C-1",
            "ticks": 1344,
            "time": 1.1999995,
            "velocity": 0.1732283464566929
          },
          {
            "duration": 0.0857142500000001,
            "durationTicks": 96,
            "midi": 0,
            "name": "C-1",
            "ticks": 1440,
            "time": 1.28571375,
            "velocity": 0.1732283464566929
          },
          {
            "duration": 0.0857142500000001,
            "durationTicks": 96,
            "midi": 0,
            "name": "C-1",
            "ticks": 1536,
            "time": 1.371428,
            "velocity": 0.1732283464566929
          },
          {
            "duration": 0.0857142500000001,
            "durationTicks": 96,
            "midi": 0,
            "name": "C-1",
            "ticks": 1536,
            "time": 1.371428,
            "velocity": 0.1732283464566929
          },
          {
            "duration": 0.0857142500000001,
            "durationTicks": 96,
            "midi": 0,
            "name": "C-1",
            "ticks": 1536,
            "time": 1.371428,
            "velocity": 0.1732283464566929
          },
          {
            "duration": 0.08571424999999988,
            "durationTicks": 96,
            "midi": 0,
            "name": "C-1",
            "ticks": 1632,
            "time": 1.4571422500000002,
            "velocity": 0.1732283464566929
          },
          {
            "duration": 0.0857142500000001,
            "durationTicks": 96,
            "midi": 0,
            "name": "C-1",
            "ticks": 1728,
            "time": 1.5428565,
            "velocity": 0.1732283464566929
          },
          {
            "duration": 0.0857142500000001,
            "durationTicks": 96,
            "midi": 0,
            "name": "C-1",
            "ticks": 1728,
            "time": 1.5428565,
            "velocity": 0.1732283464566929
          },
          {
            "duration": 0.0857142500000001,
            "durationTicks": 96,
            "midi": 0,
            "name": "C-1",
            "ticks": 1728,
            "time": 1.5428565,
            "velocity": 0.1732283464566929
          },
          {
            "duration": 0.08571424999999988,
            "durationTicks": 96,
            "midi": 0,
            "name": "C-1",
            "ticks": 1824,
            "time": 1.6285707500000002,
            "velocity": 0.1732283464566929
          },
          {
            "duration": 0.0857142500000001,
            "durationTicks": 96,
            "midi": 0,
            "name": "C-1",
            "ticks": 1920,
            "time": 1.714285,
            "velocity": 0.1732283464566929
          },
          {
            "duration": 0.0857142500000001,
            "durationTicks": 96,
            "midi": 0,
            "name": "C-1",
            "ticks": 1920,
            "time": 1.714285,
            "velocity": 0.1732283464566929
          },
          {
            "duration": 0.0857142500000001,
            "durationTicks": 96,
            "midi": 0,
            "name": "C-1",
            "ticks": 1920,
            "time": 1.714285,
            "velocity": 0.1732283464566929
          },
          {
            "duration": 0.08571424999999988,
            "durationTicks": 96,
            "midi": 0,
            "name": "C-1",
            "ticks": 2016,
            "time": 1.7999992500000002,
            "velocity": 0.1732283464566929
          },
          {
            "duration": 0.0857142500000001,
            "durationTicks": 96,
            "midi": 0,
            "name": "C-1",
            "ticks": 2112,
            "time": 1.8857135,
            "velocity": 0.1732283464566929
          },
          {
            "duration": 0.0857142500000001,
            "durationTicks": 96,
            "midi": 0,
            "name": "C-1",
            "ticks": 2112,
            "time": 1.8857135,
            "velocity": 0.1732283464566929
          },
          {
            "duration": 0.0857142500000001,
            "durationTicks": 96,
            "midi": 0,
            "name": "C-1",
            "ticks": 2112,
            "time": 1.8857135,
            "velocity": 0.1732283464566929
          },
          {
            "duration": 0.0857142500000001,
            "durationTicks": 96,
            "midi": 0,
            "name": "C-1",
            "ticks": 2208,
            "time": 1.9714277500000001,
            "velocity": 0.1732283464566929
          },
          {
            "duration": 0.0857142500000001,
            "durationTicks": 96,
            "midi": 0,
            "name": "C-1",
            "ticks": 2304,
            "time": 2.0571420000000002,
            "velocity": 0.1732283464566929
          },
          {
            "duration": 0.08571424999999966,
            "durationTicks": 96,
            "midi": 0,
            "name": "C-1",
            "ticks": 2400,
            "time": 2.1428562500000004,
            "velocity": 0.1732283464566929
          },
          {
            "duration": 0.0857142500000001,
            "durationTicks": 96,
            "midi": 0,
            "name": "C-1",
            "ticks": 2496,
            "time": 2.2285705,
            "velocity": 0.1732283464566929
          },
          {
            "duration": 0.0857142500000001,
            "durationTicks": 96,
            "midi": 0,
            "name": "C-1",
            "ticks": 2496,
            "time": 2.2285705,
            "velocity": 0.1732283464566929
          },
          {
            "duration": 0.0857142500000001,
            "durationTicks": 96,
            "midi": 0,
            "name": "C-1",
            "ticks": 2496,
            "time": 2.2285705,
            "velocity": 0.1732283464566929
          },
          {
            "duration": 0.0857142500000001,
            "durationTicks": 96,
            "midi": 0,
            "name": "C-1",
            "ticks": 2592,
            "time": 2.31428475,
            "velocity": 0.1732283464566929
          },
          {
            "duration": 0.0857142500000001,
            "durationTicks": 96,
            "midi": 0,
            "name": "C-1",
            "ticks": 2688,
            "time": 2.399999,
            "velocity": 0.1732283464566929
          },
          {
            "duration": 0.0857142500000001,
            "durationTicks": 96,
            "midi": 0,
            "name": "C-1",
            "ticks": 2688,
            "time": 2.399999,
            "velocity": 0.1732283464566929
          },
          {
            "duration": 0.0857142500000001,
            "durationTicks": 96,
            "midi": 0,
            "name": "C-1",
            "ticks": 2688,
            "time": 2.399999,
            "velocity": 0.1732283464566929
          },
          {
            "duration": 0.08571424999999966,
            "durationTicks": 96,
            "midi": 0,
            "name": "C-1",
            "ticks": 2784,
            "time": 2.4857132500000003,
            "velocity": 0.1732283464566929
          },
          {
            "duration": 0.0857142500000001,
            "durationTicks": 96,
            "midi": 0,
            "name": "C-1",
            "ticks": 2880,
            "time": 2.5714275,
            "velocity": 0.1732283464566929
          },
          {
            "duration": 0.0857142500000001,
            "durationTicks": 96,
            "midi": 0,
            "name": "C-1",
            "ticks": 2880,
            "time": 2.5714275,
            "velocity": 0.1732283464566929
          },
          {
            "duration": 0.0857142500000001,
            "durationTicks": 96,
            "midi": 0,
            "name": "C-1",
            "ticks": 2880,
            "time": 2.5714275,
            "velocity": 0.1732283464566929
          },
          {
            "duration": 0.0857142500000001,
            "durationTicks": 96,
            "midi": 0,
            "name": "C-1",
            "ticks": 2976,
            "time": 2.65714175,
            "velocity": 0.1732283464566929
          },
          {
            "duration": 0.0857142500000001,
            "durationTicks": 96,
            "midi": 0,
            "name": "C-1",
            "ticks": 3072,
            "time": 2.742856,
            "velocity": 0.1732283464566929
          },
          {
            "duration": 0.0857142500000001,
            "durationTicks": 96,
            "midi": 0,
            "name": "C-1",
            "ticks": 3072,
            "time": 2.742856,
            "velocity": 0.1732283464566929
          },
          {
            "duration": 0.0857142500000001,
            "durationTicks": 96,
            "midi": 0,
            "name": "C-1",
            "ticks": 3072,
            "time": 2.742856,
            "velocity": 0.1732283464566929
          },
          {
            "duration": 0.0857142500000001,
            "durationTicks": 96,
            "midi": 0,
            "name": "C-1",
            "ticks": 3168,
            "time": 2.8285702500000003,
            "velocity": 0.1732283464566929
          },
          {
            "duration": 0.08571424999999966,
            "durationTicks": 96,
            "midi": 0,
            "name": "C-1",
            "ticks": 3264,
            "time": 2.9142845000000004,
            "velocity": 0.1732283464566929
          },
          {
            "duration": 0.08571424999999966,
            "durationTicks": 96,
            "midi": 0,
            "name": "C-1",
            "ticks": 3264,
            "time": 2.9142845000000004,
            "velocity": 0.1732283464566929
          },
          {
            "duration": 0.08571424999999966,
            "durationTicks": 96,
            "midi": 0,
            "name": "C-1",
            "ticks": 3264,
            "time": 2.9142845000000004,
            "velocity": 0.1732283464566929
          },
          {
            "duration": 0.0857142500000001,
            "durationTicks": 96,
            "midi": 0,
            "name": "C-1",
            "ticks": 3360,
            "time": 2.99999875,
            "velocity": 0.1732283464566929
          },
          {
            "duration": 0.0857142500000001,
            "durationTicks": 96,
            "midi": 0,
            "name": "C-1",
            "ticks": 3456,
            "time": 3.085713,
            "velocity": 0.1732283464566929
          },
          {
            "duration": 0.0857142500000001,
            "durationTicks": 96,
            "midi": 0,
            "name": "C-1",
            "ticks": 3456,
            "time": 3.085713,
            "velocity": 0.1732283464566929
          },
          {
            "duration": 0.0857142500000001,
            "durationTicks": 96,
            "midi": 0,
            "name": "C-1",
            "ticks": 3456,
            "time": 3.085713,
            "velocity": 0.1732283464566929
          },
          {
            "duration": 0.0857142500000001,
            "durationTicks": 96,
            "midi": 0,
            "name": "C-1",
            "ticks": 3552,
            "time": 3.1714272500000003,
            "velocity": 0.1732283464566929
          },
          {
            "duration": 0.08571424999999966,
            "durationTicks": 96,
            "midi": 0,
            "name": "C-1",
            "ticks": 3648,
            "time": 3.2571415000000004,
            "velocity": 0.1732283464566929
          },
          {
            "duration": 0.08571424999999966,
            "durationTicks": 96,
            "midi": 0,
            "name": "C-1",
            "ticks": 3648,
            "time": 3.2571415000000004,
            "velocity": 0.1732283464566929
          },
          {
            "duration": 0.08571424999999966,
            "durationTicks": 96,
            "midi": 0,
            "name": "C-1",
            "ticks": 3648,
            "time": 3.2571415000000004,
            "velocity": 0.1732283464566929
          },
          {
            "duration": 0.0857142500000001,
            "durationTicks": 96,
            "midi": 0,
            "name": "C-1",
            "ticks": 3744,
            "time": 3.34285575,
            "velocity": 0.1732283464566929
          },
          {
            "duration": 0.0857142500000001,
            "durationTicks": 96,
            "midi": 0,
            "name": "C-1",
            "ticks": 3840,
            "time": 3.42857,
            "velocity": 0.1732283464566929
          },
          {
            "duration": 0.0857142500000001,
            "durationTicks": 96,
            "midi": 0,
            "name": "C-1",
            "ticks": 3936,
            "time": 3.51428425,
            "velocity": 0.1732283464566929
          },
          {
            "duration": 0.0857142500000001,
            "durationTicks": 96,
            "midi": 0,
            "name": "C-1",
            "ticks": 4032,
            "time": 3.5999985000000003,
            "velocity": 0.1732283464566929
          },
          {
            "duration": 0.0857142500000001,
            "durationTicks": 96,
            "midi": 0,
            "name": "C-1",
            "ticks": 4032,
            "time": 3.5999985000000003,
            "velocity": 0.1732283464566929
          },
          {
            "duration": 0.0857142500000001,
            "durationTicks": 96,
            "midi": 0,
            "name": "C-1",
            "ticks": 4032,
            "time": 3.5999985000000003,
            "velocity": 0.1732283464566929
          },
          {
            "duration": 0.08571424999999966,
            "durationTicks": 96,
            "midi": 0,
            "name": "C-1",
            "ticks": 4128,
            "time": 3.6857127500000004,
            "velocity": 0.1732283464566929
          },
          {
            "duration": 0.0857142500000001,
            "durationTicks": 96,
            "midi": 0,
            "name": "C-1",
            "ticks": 4224,
            "time": 3.771427,
            "velocity": 0.1732283464566929
          },
          {
            "duration": 0.0857142500000001,
            "durationTicks": 96,
            "midi": 0,
            "name": "C-1",
            "ticks": 4224,
            "time": 3.771427,
            "velocity": 0.1732283464566929
          },
          {
            "duration": 0.0857142500000001,
            "durationTicks": 96,
            "midi": 0,
            "name": "C-1",
            "ticks": 4224,
            "time": 3.771427,
            "velocity": 0.1732283464566929
          },
          {
            "duration": 0.0857142500000001,
            "durationTicks": 96,
            "midi": 0,
            "name": "C-1",
            "ticks": 4320,
            "time": 3.85714125,
            "velocity": 0.1732283464566929
          },
          {
            "duration": 0.08571424999999966,
            "durationTicks": 96,
            "midi": 0,
            "name": "C-1",
            "ticks": 4416,
            "time": 3.9428555000000003,
            "velocity": 0.1732283464566929
          },
          {
            "duration": 0.08571424999999966,
            "durationTicks": 96,
            "midi": 0,
            "name": "C-1",
            "ticks": 4416,
            "time": 3.9428555000000003,
            "velocity": 0.1732283464566929
          },
          {
            "duration": 0.08571424999999966,
            "durationTicks": 96,
            "midi": 0,
            "name": "C-1",
            "ticks": 4416,
            "time": 3.9428555000000003,
            "velocity": 0.1732283464566929
          },
          {
            "duration": 0.08571425000000055,
            "durationTicks": 96,
            "midi": 0,
            "name": "C-1",
            "ticks": 4512,
            "time": 4.02856975,
            "velocity": 0.1732283464566929
          },
          {
            "duration": 0.08571424999999966,
            "durationTicks": 96,
            "midi": 0,
            "name": "C-1",
            "ticks": 4608,
            "time": 4.1142840000000005,
            "velocity": 0.1732283464566929
          },
          {
            "duration": 0.08571424999999966,
            "durationTicks": 96,
            "midi": 0,
            "name": "C-1",
            "ticks": 4608,
            "time": 4.1142840000000005,
            "velocity": 0.1732283464566929
          },
          {
            "duration": 0.08571424999999966,
            "durationTicks": 96,
            "midi": 0,
            "name": "C-1",
            "ticks": 4608,
            "time": 4.1142840000000005,
            "velocity": 0.1732283464566929
          },
          {
            "duration": 0.08571425000000055,
            "durationTicks": 96,
            "midi": 0,
            "name": "C-1",
            "ticks": 4704,
            "time": 4.19999825,
            "velocity": 0.1732283464566929
          },
          {
            "duration": 0.08571424999999966,
            "durationTicks": 96,
            "midi": 0,
            "name": "C-1",
            "ticks": 4800,
            "time": 4.285712500000001,
            "velocity": 0.1732283464566929
          },
          {
            "duration": 0.08571424999999966,
            "durationTicks": 96,
            "midi": 0,
            "name": "C-1",
            "ticks": 4800,
            "time": 4.285712500000001,
            "velocity": 0.1732283464566929
          },
          {
            "duration": 0.08571424999999966,
            "durationTicks": 96,
            "midi": 0,
            "name": "C-1",
            "ticks": 4800,
            "time": 4.285712500000001,
            "velocity": 0.1732283464566929
          },
          {
            "duration": 0.08571424999999966,
            "durationTicks": 96,
            "midi": 0,
            "name": "C-1",
            "ticks": 4896,
            "time": 4.37142675,
            "velocity": 0.1732283464566929
          },
          {
            "duration": 0.08571425000000055,
            "durationTicks": 96,
            "midi": 0,
            "name": "C-1",
            "ticks": 4992,
            "time": 4.457141,
            "velocity": 0.1732283464566929
          },
          {
            "duration": 0.08571425000000055,
            "durationTicks": 96,
            "midi": 0,
            "name": "C-1",
            "ticks": 4992,
            "time": 4.457141,
            "velocity": 0.1732283464566929
          },
          {
            "duration": 0.08571425000000055,
            "durationTicks": 96,
            "midi": 0,
            "name": "C-1",
            "ticks": 4992,
            "time": 4.457141,
            "velocity": 0.1732283464566929
          },
          {
            "duration": 0.08571424999999966,
            "durationTicks": 96,
            "midi": 0,
            "name": "C-1",
            "ticks": 5088,
            "time": 4.542855250000001,
            "velocity": 0.1732283464566929
          },
          {
            "duration": 0.08571424999999966,
            "durationTicks": 96,
            "midi": 0,
            "name": "C-1",
            "ticks": 5184,
            "time": 4.6285695,
            "velocity": 0.1732283464566929
          },
          {
            "duration": 0.08571424999999966,
            "durationTicks": 96,
            "midi": 0,
            "name": "C-1",
            "ticks": 5184,
            "time": 4.6285695,
            "velocity": 0.1732283464566929
          },
          {
            "duration": 0.08571424999999966,
            "durationTicks": 96,
            "midi": 0,
            "name": "C-1",
            "ticks": 5184,
            "time": 4.6285695,
            "velocity": 0.1732283464566929
          },
          {
            "duration": 0.08571425000000055,
            "durationTicks": 96,
            "midi": 0,
            "name": "C-1",
            "ticks": 5280,
            "time": 4.71428375,
            "velocity": 0.1732283464566929
          },
          {
            "duration": 0.08571424999999966,
            "durationTicks": 96,
            "midi": 0,
            "name": "C-1",
            "ticks": 5376,
            "time": 4.799998,
            "velocity": 0.1732283464566929
          },
          {
            "duration": 0.08571425000000055,
            "durationTicks": 96,
            "midi": 0,
            "name": "C-1",
            "ticks": 5472,
            "time": 4.88571225,
            "velocity": 0.1732283464566929
          },
          {
            "duration": 0.08571424999999966,
            "durationTicks": 96,
            "midi": 0,
            "name": "C-1",
            "ticks": 5568,
            "time": 4.971426500000001,
            "velocity": 0.1732283464566929
          },
          {
            "duration": 0.08571424999999966,
            "durationTicks": 96,
            "midi": 0,
            "name": "C-1",
            "ticks": 5568,
            "time": 4.971426500000001,
            "velocity": 0.1732283464566929
          },
          {
            "duration": 0.08571424999999966,
            "durationTicks": 96,
            "midi": 0,
            "name": "C-1",
            "ticks": 5568,
            "time": 4.971426500000001,
            "velocity": 0.1732283464566929
          },
          {
            "duration": 0.08571424999999966,
            "durationTicks": 96,
            "midi": 0,
            "name": "C-1",
            "ticks": 5664,
            "time": 5.05714075,
            "velocity": 0.1732283464566929
          },
          {
            "duration": 0.08571425000000055,
            "durationTicks": 96,
            "midi": 0,
            "name": "C-1",
            "ticks": 5760,
            "time": 5.142855,
            "velocity": 0.1732283464566929
          },
          {
            "duration": 0.08571425000000055,
            "durationTicks": 96,
            "midi": 0,
            "name": "C-1",
            "ticks": 5760,
            "time": 5.142855,
            "velocity": 0.1732283464566929
          },
          {
            "duration": 0.08571425000000055,
            "durationTicks": 96,
            "midi": 0,
            "name": "C-1",
            "ticks": 5760,
            "time": 5.142855,
            "velocity": 0.1732283464566929
          },
          {
            "duration": 0.08571424999999966,
            "durationTicks": 96,
            "midi": 0,
            "name": "C-1",
            "ticks": 5856,
            "time": 5.2285692500000005,
            "velocity": 0.1732283464566929
          },
          {
            "duration": 0.08571425000000055,
            "durationTicks": 96,
            "midi": 0,
            "name": "C-1",
            "ticks": 5952,
            "time": 5.3142835,
            "velocity": 0.1732283464566929
          },
          {
            "duration": 0.08571425000000055,
            "durationTicks": 96,
            "midi": 0,
            "name": "C-1",
            "ticks": 5952,
            "time": 5.3142835,
            "velocity": 0.1732283464566929
          },
          {
            "duration": 0.08571425000000055,
            "durationTicks": 96,
            "midi": 0,
            "name": "C-1",
            "ticks": 5952,
            "time": 5.3142835,
            "velocity": 0.1732283464566929
          },
          {
            "duration": 0.08571424999999966,
            "durationTicks": 96,
            "midi": 0,
            "name": "C-1",
            "ticks": 6048,
            "time": 5.399997750000001,
            "velocity": 0.1732283464566929
          },
          {
            "duration": 0.08571424999999966,
            "durationTicks": 96,
            "midi": 0,
            "name": "C-1",
            "ticks": 6144,
            "time": 5.485712,
            "velocity": 0.1732283464566929
          },
          {
            "duration": 0.08571424999999966,
            "durationTicks": 96,
            "midi": 0,
            "name": "C-1",
            "ticks": 6144,
            "time": 5.485712,
            "velocity": 0.1732283464566929
          },
          {
            "duration": 0.08571424999999966,
            "durationTicks": 96,
            "midi": 0,
            "name": "C-1",
            "ticks": 6144,
            "time": 5.485712,
            "velocity": 0.1732283464566929
          },
          {
            "duration": 0.08571424999999966,
            "durationTicks": 96,
            "midi": 0,
            "name": "C-1",
            "ticks": 6144,
            "time": 5.485712,
            "velocity": 0.1732283464566929
          },
          {
            "duration": 0.08571424999999966,
            "durationTicks": 96,
            "midi": 0,
            "name": "C-1",
            "ticks": 6144,
            "time": 5.485712,
            "velocity": 0.1732283464566929
          },
          {
            "duration": 0.08571425000000055,
            "durationTicks": 96,
            "midi": 0,
            "name": "C-1",
            "ticks": 6240,
            "time": 5.57142625,
            "velocity": 0.1732283464566929
          },
          {
            "duration": 0.08571424999999966,
            "durationTicks": 96,
            "midi": 0,
            "name": "C-1",
            "ticks": 6336,
            "time": 5.657140500000001,
            "velocity": 0.1732283464566929
          },
          {
            "duration": 0.08571424999999966,
            "durationTicks": 96,
            "midi": 0,
            "name": "C-1",
            "ticks": 6336,
            "time": 5.657140500000001,
            "velocity": 0.1732283464566929
          },
          {
            "duration": 0.08571424999999966,
            "durationTicks": 96,
            "midi": 0,
            "name": "C-1",
            "ticks": 6336,
            "time": 5.657140500000001,
            "velocity": 0.1732283464566929
          },
          {
            "duration": 0.08571425000000055,
            "durationTicks": 96,
            "midi": 0,
            "name": "C-1",
            "ticks": 6432,
            "time": 5.74285475,
            "velocity": 0.1732283464566929
          },
          {
            "duration": 0.08571424999999966,
            "durationTicks": 96,
            "midi": 0,
            "name": "C-1",
            "ticks": 6528,
            "time": 5.828569000000001,
            "velocity": 0.1732283464566929
          },
          {
            "duration": 0.08571424999999966,
            "durationTicks": 96,
            "midi": 0,
            "name": "C-1",
            "ticks": 6528,
            "time": 5.828569000000001,
            "velocity": 0.1732283464566929
          },
          {
            "duration": 0.08571424999999966,
            "durationTicks": 96,
            "midi": 0,
            "name": "C-1",
            "ticks": 6528,
            "time": 5.828569000000001,
            "velocity": 0.1732283464566929
          },
          {
            "duration": 0.08571424999999966,
            "durationTicks": 96,
            "midi": 0,
            "name": "C-1",
            "ticks": 6624,
            "time": 5.91428325,
            "velocity": 0.1732283464566929
          },
          {
            "duration": 0.08571425000000055,
            "durationTicks": 96,
            "midi": 0,
            "name": "C-1",
            "ticks": 6720,
            "time": 5.9999975,
            "velocity": 0.1732283464566929
          },
          {
            "duration": 0.08571425000000055,
            "durationTicks": 96,
            "midi": 0,
            "name": "C-1",
            "ticks": 6720,
            "time": 5.9999975,
            "velocity": 0.1732283464566929
          },
          {
            "duration": 0.08571425000000055,
            "durationTicks": 96,
            "midi": 0,
            "name": "C-1",
            "ticks": 6720,
            "time": 5.9999975,
            "velocity": 0.1732283464566929
          },
          {
            "duration": 0.08571424999999966,
            "durationTicks": 96,
            "midi": 0,
            "name": "C-1",
            "ticks": 6816,
            "time": 6.085711750000001,
            "velocity": 0.1732283464566929
          },
          {
            "duration": 0.08571425000000055,
            "durationTicks": 96,
            "midi": 0,
            "name": "C-1",
            "ticks": 6912,
            "time": 6.171426,
            "velocity": 0.1732283464566929
          },
          {
            "duration": 0.08571424999999966,
            "durationTicks": 96,
            "midi": 0,
            "name": "C-1",
            "ticks": 7008,
            "time": 6.257140250000001,
            "velocity": 0.1732283464566929
          },
          {
            "duration": 0.08571424999999966,
            "durationTicks": 96,
            "midi": 0,
            "name": "C-1",
            "ticks": 7104,
            "time": 6.3428545000000005,
            "velocity": 0.1732283464566929
          },
          {
            "duration": 0.08571424999999966,
            "durationTicks": 96,
            "midi": 0,
            "name": "C-1",
            "ticks": 7104,
            "time": 6.3428545000000005,
            "velocity": 0.1732283464566929
          },
          {
            "duration": 0.08571424999999966,
            "durationTicks": 96,
            "midi": 0,
            "name": "C-1",
            "ticks": 7104,
            "time": 6.3428545000000005,
            "velocity": 0.1732283464566929
          },
          {
            "duration": 0.08571425000000055,
            "durationTicks": 96,
            "midi": 0,
            "name": "C-1",
            "ticks": 7200,
            "time": 6.42856875,
            "velocity": 0.1732283464566929
          },
          {
            "duration": 0.08571424999999966,
            "durationTicks": 96,
            "midi": 0,
            "name": "C-1",
            "ticks": 7296,
            "time": 6.514283000000001,
            "velocity": 0.1732283464566929
          },
          {
            "duration": 0.08571424999999966,
            "durationTicks": 96,
            "midi": 0,
            "name": "C-1",
            "ticks": 7296,
            "time": 6.514283000000001,
            "velocity": 0.1732283464566929
          },
          {
            "duration": 0.08571424999999966,
            "durationTicks": 96,
            "midi": 0,
            "name": "C-1",
            "ticks": 7296,
            "time": 6.514283000000001,
            "velocity": 0.1732283464566929
          },
          {
            "duration": 0.08571424999999966,
            "durationTicks": 96,
            "midi": 0,
            "name": "C-1",
            "ticks": 7392,
            "time": 6.59999725,
            "velocity": 0.1732283464566929
          },
          {
            "duration": 0.08571425000000055,
            "durationTicks": 96,
            "midi": 0,
            "name": "C-1",
            "ticks": 7488,
            "time": 6.6857115,
            "velocity": 0.1732283464566929
          },
          {
            "duration": 0.08571425000000055,
            "durationTicks": 96,
            "midi": 0,
            "name": "C-1",
            "ticks": 7488,
            "time": 6.6857115,
            "velocity": 0.1732283464566929
          },
          {
            "duration": 0.08571425000000055,
            "durationTicks": 96,
            "midi": 0,
            "name": "C-1",
            "ticks": 7488,
            "time": 6.6857115,
            "velocity": 0.1732283464566929
          },
          {
            "duration": 0.08571424999999966,
            "durationTicks": 96,
            "midi": 0,
            "name": "C-1",
            "ticks": 7584,
            "time": 6.771425750000001,
            "velocity": 0.1732283464566929
          },
          {
            "duration": 0.08571425000000055,
            "durationTicks": 96,
            "midi": 0,
            "name": "C-1",
            "ticks": 7680,
            "time": 6.85714,
            "velocity": 0.1732283464566929
          },
          {
            "duration": 0.08571425000000055,
            "durationTicks": 96,
            "midi": 0,
            "name": "C-1",
            "ticks": 7680,
            "time": 6.85714,
            "velocity": 0.1732283464566929
          },
          {
            "duration": 0.08571425000000055,
            "durationTicks": 96,
            "midi": 0,
            "name": "C-1",
            "ticks": 7680,
            "time": 6.85714,
            "velocity": 0.1732283464566929
          },
          {
            "duration": 0.08571424999999966,
            "durationTicks": 96,
            "midi": 0,
            "name": "C-1",
            "ticks": 7776,
            "time": 6.942854250000001,
            "velocity": 0.1732283464566929
          },
          {
            "duration": 0.08571424999999966,
            "durationTicks": 96,
            "midi": 0,
            "name": "C-1",
            "ticks": 7872,
            "time": 7.0285685,
            "velocity": 0.1732283464566929
          },
          {
            "duration": 0.08571424999999966,
            "durationTicks": 96,
            "midi": 0,
            "name": "C-1",
            "ticks": 7872,
            "time": 7.0285685,
            "velocity": 0.1732283464566929
          },
          {
            "duration": 0.08571424999999966,
            "durationTicks": 96,
            "midi": 0,
            "name": "C-1",
            "ticks": 7872,
            "time": 7.0285685,
            "velocity": 0.1732283464566929
          },
          {
            "duration": 0.08571425000000055,
            "durationTicks": 96,
            "midi": 0,
            "name": "C-1",
            "ticks": 7968,
            "time": 7.11428275,
            "velocity": 0.1732283464566929
          },
          {
            "duration": 0.08571424999999966,
            "durationTicks": 96,
            "midi": 0,
            "name": "C-1",
            "ticks": 8064,
            "time": 7.199997000000001,
            "velocity": 0.1732283464566929
          },
          {
            "duration": 0.08571424999999966,
            "durationTicks": 96,
            "midi": 0,
            "name": "C-1",
            "ticks": 8064,
            "time": 7.199997000000001,
            "velocity": 0.1732283464566929
          },
          {
            "duration": 0.08571424999999966,
            "durationTicks": 96,
            "midi": 0,
            "name": "C-1",
            "ticks": 8064,
            "time": 7.199997000000001,
            "velocity": 0.1732283464566929
          },
          {
            "duration": 0.08571425000000055,
            "durationTicks": 96,
            "midi": 0,
            "name": "C-1",
            "ticks": 8160,
            "time": 7.28571125,
            "velocity": 0.1732283464566929
          },
          {
            "duration": 0.08571424999999966,
            "durationTicks": 96,
            "midi": 0,
            "name": "C-1",
            "ticks": 8256,
            "time": 7.371425500000001,
            "velocity": 0.1732283464566929
          },
          {
            "duration": 0.08571424999999966,
            "durationTicks": 96,
            "midi": 0,
            "name": "C-1",
            "ticks": 8256,
            "time": 7.371425500000001,
            "velocity": 0.1732283464566929
          },
          {
            "duration": 0.08571424999999966,
            "durationTicks": 96,
            "midi": 0,
            "name": "C-1",
            "ticks": 8256,
            "time": 7.371425500000001,
            "velocity": 0.1732283464566929
          },
          {
            "duration": 0.08571424999999966,
            "durationTicks": 96,
            "midi": 0,
            "name": "C-1",
            "ticks": 8352,
            "time": 7.4571397500000005,
            "velocity": 0.1732283464566929
          },
          {
            "duration": 0.08571425000000055,
            "durationTicks": 96,
            "midi": 0,
            "name": "C-1",
            "ticks": 8448,
            "time": 7.542854,
            "velocity": 0.1732283464566929
          },
          {
            "duration": 0.08571424999999966,
            "durationTicks": 96,
            "midi": 0,
            "name": "C-1",
            "ticks": 8544,
            "time": 7.628568250000001,
            "velocity": 0.1732283464566929
          },
          {
            "duration": 0.08571425000000055,
            "durationTicks": 96,
            "midi": 0,
            "name": "C-1",
            "ticks": 8640,
            "time": 7.7142825,
            "velocity": 0.1732283464566929
          },
          {
            "duration": 0.08571425000000055,
            "durationTicks": 96,
            "midi": 0,
            "name": "C-1",
            "ticks": 8640,
            "time": 7.7142825,
            "velocity": 0.1732283464566929
          },
          {
            "duration": 0.08571425000000055,
            "durationTicks": 96,
            "midi": 0,
            "name": "C-1",
            "ticks": 8640,
            "time": 7.7142825,
            "velocity": 0.1732283464566929
          },
          {
            "duration": 0.08571424999999966,
            "durationTicks": 96,
            "midi": 0,
            "name": "C-1",
            "ticks": 8736,
            "time": 7.799996750000001,
            "velocity": 0.1732283464566929
          },
          {
            "duration": 0.08571424999999966,
            "durationTicks": 96,
            "midi": 0,
            "name": "C-1",
            "ticks": 8832,
            "time": 7.885711000000001,
            "velocity": 0.1732283464566929
          },
          {
            "duration": 0.08571424999999966,
            "durationTicks": 96,
            "midi": 0,
            "name": "C-1",
            "ticks": 8832,
            "time": 7.885711000000001,
            "velocity": 0.1732283464566929
          },
          {
            "duration": 0.08571424999999966,
            "durationTicks": 96,
            "midi": 0,
            "name": "C-1",
            "ticks": 8832,
            "time": 7.885711000000001,
            "velocity": 0.1732283464566929
          },
          {
            "duration": 0.08571424999999966,
            "durationTicks": 96,
            "midi": 0,
            "name": "C-1",
            "ticks": 8928,
            "time": 7.97142525,
            "velocity": 0.1732283464566929
          },
          {
            "duration": 0.08571425000000055,
            "durationTicks": 96,
            "midi": 0,
            "name": "C-1",
            "ticks": 9024,
            "time": 8.0571395,
            "velocity": 0.1732283464566929
          },
          {
            "duration": 0.08571425000000055,
            "durationTicks": 96,
            "midi": 0,
            "name": "C-1",
            "ticks": 9024,
            "time": 8.0571395,
            "velocity": 0.1732283464566929
          },
          {
            "duration": 0.08571425000000055,
            "durationTicks": 96,
            "midi": 0,
            "name": "C-1",
            "ticks": 9024,
            "time": 8.0571395,
            "velocity": 0.1732283464566929
          },
          {
            "duration": 0.08571425000000055,
            "durationTicks": 96,
            "midi": 0,
            "name": "C-1",
            "ticks": 9120,
            "time": 8.14285375,
            "velocity": 0.1732283464566929
          },
          {
            "duration": 0.08571424999999877,
            "durationTicks": 96,
            "midi": 0,
            "name": "C-1",
            "ticks": 9216,
            "time": 8.228568000000001,
            "velocity": 0.1732283464566929
          },
          {
            "duration": 0.08571424999999877,
            "durationTicks": 96,
            "midi": 0,
            "name": "C-1",
            "ticks": 9216,
            "time": 8.228568000000001,
            "velocity": 0.1732283464566929
          },
          {
            "duration": 0.08571424999999877,
            "durationTicks": 96,
            "midi": 0,
            "name": "C-1",
            "ticks": 9216,
            "time": 8.228568000000001,
            "velocity": 0.1732283464566929
          },
          {
            "duration": 0.08571425000000055,
            "durationTicks": 96,
            "midi": 0,
            "name": "C-1",
            "ticks": 9312,
            "time": 8.31428225,
            "velocity": 0.1732283464566929
          },
          {
            "duration": 0.08571425000000055,
            "durationTicks": 96,
            "midi": 0,
            "name": "C-1",
            "ticks": 9408,
            "time": 8.3999965,
            "velocity": 0.1732283464566929
          },
          {
            "duration": 0.08571425000000055,
            "durationTicks": 96,
            "midi": 0,
            "name": "C-1",
            "ticks": 9408,
            "time": 8.3999965,
            "velocity": 0.1732283464566929
          },
          {
            "duration": 0.08571425000000055,
            "durationTicks": 96,
            "midi": 0,
            "name": "C-1",
            "ticks": 9408,
            "time": 8.3999965,
            "velocity": 0.1732283464566929
          },
          {
            "duration": 0.08571425000000055,
            "durationTicks": 96,
            "midi": 0,
            "name": "C-1",
            "ticks": 9504,
            "time": 8.48571075,
            "velocity": 0.1732283464566929
          },
          {
            "duration": 0.08571424999999877,
            "durationTicks": 96,
            "midi": 0,
            "name": "C-1",
            "ticks": 9600,
            "time": 8.571425000000001,
            "velocity": 0.1732283464566929
          },
          {
            "duration": 0.08571424999999877,
            "durationTicks": 96,
            "midi": 0,
            "name": "C-1",
            "ticks": 9600,
            "time": 8.571425000000001,
            "velocity": 0.1732283464566929
          },
          {
            "duration": 0.08571424999999877,
            "durationTicks": 96,
            "midi": 0,
            "name": "C-1",
            "ticks": 9600,
            "time": 8.571425000000001,
            "velocity": 0.1732283464566929
          },
          {
            "duration": 0.08571425000000055,
            "durationTicks": 96,
            "midi": 0,
            "name": "C-1",
            "ticks": 9696,
            "time": 8.65713925,
            "velocity": 0.1732283464566929
          },
          {
            "duration": 0.08571425000000055,
            "durationTicks": 96,
            "midi": 0,
            "name": "C-1",
            "ticks": 9792,
            "time": 8.7428535,
            "velocity": 0.1732283464566929
          },
          {
            "duration": 0.08571425000000055,
            "durationTicks": 96,
            "midi": 0,
            "name": "C-1",
            "ticks": 9792,
            "time": 8.7428535,
            "velocity": 0.1732283464566929
          },
          {
            "duration": 0.08571425000000055,
            "durationTicks": 96,
            "midi": 0,
            "name": "C-1",
            "ticks": 9792,
            "time": 8.7428535,
            "velocity": 0.1732283464566929
          },
          {
            "duration": 0.08571424999999877,
            "durationTicks": 96,
            "midi": 0,
            "name": "C-1",
            "ticks": 9888,
            "time": 8.828567750000001,
            "velocity": 0.1732283464566929
          },
          {
            "duration": 0.08571425000000055,
            "durationTicks": 96,
            "midi": 0,
            "name": "C-1",
            "ticks": 9984,
            "time": 8.914282,
            "velocity": 0.1732283464566929
          },
          {
            "duration": 0.08571425000000055,
            "durationTicks": 96,
            "midi": 0,
            "name": "C-1",
            "ticks": 10080,
            "time": 8.99999625,
            "velocity": 0.1732283464566929
          },
          {
            "duration": 0.08571424999999877,
            "durationTicks": 96,
            "midi": 0,
            "name": "C-1",
            "ticks": 10176,
            "time": 9.085710500000001,
            "velocity": 0.1732283464566929
          },
          {
            "duration": 0.08571424999999877,
            "durationTicks": 96,
            "midi": 0,
            "name": "C-1",
            "ticks": 10176,
            "time": 9.085710500000001,
            "velocity": 0.1732283464566929
          },
          {
            "duration": 0.08571424999999877,
            "durationTicks": 96,
            "midi": 0,
            "name": "C-1",
            "ticks": 10176,
            "time": 9.085710500000001,
            "velocity": 0.1732283464566929
          },
          {
            "duration": 0.08571425000000055,
            "durationTicks": 96,
            "midi": 0,
            "name": "C-1",
            "ticks": 10272,
            "time": 9.17142475,
            "velocity": 0.1732283464566929
          },
          {
            "duration": 0.08571425000000055,
            "durationTicks": 96,
            "midi": 0,
            "name": "C-1",
            "ticks": 10368,
            "time": 9.257139,
            "velocity": 0.1732283464566929
          },
          {
            "duration": 0.08571425000000055,
            "durationTicks": 96,
            "midi": 0,
            "name": "C-1",
            "ticks": 10368,
            "time": 9.257139,
            "velocity": 0.1732283464566929
          },
          {
            "duration": 0.08571425000000055,
            "durationTicks": 96,
            "midi": 0,
            "name": "C-1",
            "ticks": 10368,
            "time": 9.257139,
            "velocity": 0.1732283464566929
          },
          {
            "duration": 0.08571424999999877,
            "durationTicks": 96,
            "midi": 0,
            "name": "C-1",
            "ticks": 10464,
            "time": 9.342853250000001,
            "velocity": 0.1732283464566929
          },
          {
            "duration": 0.08571425000000055,
            "durationTicks": 96,
            "midi": 0,
            "name": "C-1",
            "ticks": 10560,
            "time": 9.4285675,
            "velocity": 0.1732283464566929
          },
          {
            "duration": 0.08571425000000055,
            "durationTicks": 96,
            "midi": 0,
            "name": "C-1",
            "ticks": 10560,
            "time": 9.4285675,
            "velocity": 0.1732283464566929
          },
          {
            "duration": 0.08571425000000055,
            "durationTicks": 96,
            "midi": 0,
            "name": "C-1",
            "ticks": 10560,
            "time": 9.4285675,
            "velocity": 0.1732283464566929
          },
          {
            "duration": 0.08571425000000055,
            "durationTicks": 96,
            "midi": 0,
            "name": "C-1",
            "ticks": 10656,
            "time": 9.51428175,
            "velocity": 0.1732283464566929
          },
          {
            "duration": 0.08571425000000055,
            "durationTicks": 96,
            "midi": 0,
            "name": "C-1",
            "ticks": 10752,
            "time": 9.599996,
            "velocity": 0.1732283464566929
          },
          {
            "duration": 0.08571425000000055,
            "durationTicks": 96,
            "midi": 0,
            "name": "C-1",
            "ticks": 10752,
            "time": 9.599996,
            "velocity": 0.1732283464566929
          },
          {
            "duration": 0.08571425000000055,
            "durationTicks": 96,
            "midi": 0,
            "name": "C-1",
            "ticks": 10752,
            "time": 9.599996,
            "velocity": 0.1732283464566929
          },
          {
            "duration": 0.08571424999999877,
            "durationTicks": 96,
            "midi": 0,
            "name": "C-1",
            "ticks": 10848,
            "time": 9.685710250000001,
            "velocity": 0.1732283464566929
          },
          {
            "duration": 0.08571425000000055,
            "durationTicks": 96,
            "midi": 0,
            "name": "C-1",
            "ticks": 10944,
            "time": 9.7714245,
            "velocity": 0.1732283464566929
          },
          {
            "duration": 0.08571425000000055,
            "durationTicks": 96,
            "midi": 0,
            "name": "C-1",
            "ticks": 10944,
            "time": 9.7714245,
            "velocity": 0.1732283464566929
          },
          {
            "duration": 0.08571425000000055,
            "durationTicks": 96,
            "midi": 0,
            "name": "C-1",
            "ticks": 10944,
            "time": 9.7714245,
            "velocity": 0.1732283464566929
          },
          {
            "duration": 0.08571425000000055,
            "durationTicks": 96,
            "midi": 0,
            "name": "C-1",
            "ticks": 11040,
            "time": 9.85713875,
            "velocity": 0.1732283464566929
          },
          {
            "duration": 0.08571424999999877,
            "durationTicks": 96,
            "midi": 0,
            "name": "C-1",
            "ticks": 11136,
            "time": 9.942853000000001,
            "velocity": 0.1732283464566929
          },
          {
            "duration": 0.08571424999999877,
            "durationTicks": 96,
            "midi": 0,
            "name": "C-1",
            "ticks": 11136,
            "time": 9.942853000000001,
            "velocity": 0.1732283464566929
          },
          {
            "duration": 0.08571424999999877,
            "durationTicks": 96,
            "midi": 0,
            "name": "C-1",
            "ticks": 11136,
            "time": 9.942853000000001,
            "velocity": 0.1732283464566929
          },
          {
            "duration": 0.08571425000000055,
            "durationTicks": 96,
            "midi": 0,
            "name": "C-1",
            "ticks": 11232,
            "time": 10.02856725,
            "velocity": 0.1732283464566929
          },
          {
            "duration": 0.08571425000000055,
            "durationTicks": 96,
            "midi": 0,
            "name": "C-1",
            "ticks": 11328,
            "time": 10.1142815,
            "velocity": 0.1732283464566929
          },
          {
            "duration": 0.08571425000000055,
            "durationTicks": 96,
            "midi": 0,
            "name": "C-1",
            "ticks": 11328,
            "time": 10.1142815,
            "velocity": 0.1732283464566929
          },
          {
            "duration": 0.08571425000000055,
            "durationTicks": 96,
            "midi": 0,
            "name": "C-1",
            "ticks": 11328,
            "time": 10.1142815,
            "velocity": 0.1732283464566929
          },
          {
            "duration": 0.08571424999999877,
            "durationTicks": 96,
            "midi": 0,
            "name": "C-1",
            "ticks": 11424,
            "time": 10.199995750000001,
            "velocity": 0.1732283464566929
          },
          {
            "duration": 0.08571425000000055,
            "durationTicks": 96,
            "midi": 0,
            "name": "C-1",
            "ticks": 11520,
            "time": 10.28571,
            "velocity": 0.1732283464566929
          },
          {
            "duration": 0.08571425000000055,
            "durationTicks": 96,
            "midi": 0,
            "name": "C-1",
            "ticks": 11520,
            "time": 10.28571,
            "velocity": 0.1732283464566929
          },
          {
            "duration": 0.08571425000000055,
            "durationTicks": 96,
            "midi": 0,
            "name": "C-1",
            "ticks": 11520,
            "time": 10.28571,
            "velocity": 0.1732283464566929
          },
          {
            "duration": 0.08571425000000055,
            "durationTicks": 96,
            "midi": 0,
            "name": "C-1",
            "ticks": 11616,
            "time": 10.37142425,
            "velocity": 0.1732283464566929
          },
          {
            "duration": 0.08571425000000055,
            "durationTicks": 96,
            "midi": 0,
            "name": "C-1",
            "ticks": 11712,
            "time": 10.457138500000001,
            "velocity": 0.1732283464566929
          },
          {
            "duration": 0.08571425000000055,
            "durationTicks": 96,
            "midi": 0,
            "name": "C-1",
            "ticks": 11712,
            "time": 10.457138500000001,
            "velocity": 0.1732283464566929
          },
          {
            "duration": 0.08571425000000055,
            "durationTicks": 96,
            "midi": 0,
            "name": "C-1",
            "ticks": 11712,
            "time": 10.457138500000001,
            "velocity": 0.1732283464566929
          },
          {
            "duration": 0.08571424999999877,
            "durationTicks": 96,
            "midi": 0,
            "name": "C-1",
            "ticks": 11808,
            "time": 10.542852750000002,
            "velocity": 0.1732283464566929
          },
          {
            "duration": 0.08571425000000055,
            "durationTicks": 96,
            "midi": 0,
            "name": "C-1",
            "ticks": 11904,
            "time": 10.628567,
            "velocity": 0.1732283464566929
          },
          {
            "duration": 0.08571425000000055,
            "durationTicks": 96,
            "midi": 0,
            "name": "C-1",
            "ticks": 11904,
            "time": 10.628567,
            "velocity": 0.1732283464566929
          },
          {
            "duration": 0.08571425000000055,
            "durationTicks": 96,
            "midi": 0,
            "name": "C-1",
            "ticks": 11904,
            "time": 10.628567,
            "velocity": 0.1732283464566929
          },
          {
            "duration": 0.08571425000000055,
            "durationTicks": 96,
            "midi": 0,
            "name": "C-1",
            "ticks": 12000,
            "time": 10.71428125,
            "velocity": 0.1732283464566929
          },
          {
            "duration": 0.08571424999999877,
            "durationTicks": 96,
            "midi": 0,
            "name": "C-1",
            "ticks": 12096,
            "time": 10.799995500000001,
            "velocity": 0.1732283464566929
          },
          {
            "duration": 0.08571424999999877,
            "durationTicks": 96,
            "midi": 0,
            "name": "C-1",
            "ticks": 12096,
            "time": 10.799995500000001,
            "velocity": 0.1732283464566929
          },
          {
            "duration": 0.08571424999999877,
            "durationTicks": 96,
            "midi": 0,
            "name": "C-1",
            "ticks": 12096,
            "time": 10.799995500000001,
            "velocity": 0.1732283464566929
          },
          {
            "duration": 0.08571425000000055,
            "durationTicks": 96,
            "midi": 0,
            "name": "C-1",
            "ticks": 12192,
            "time": 10.88570975,
            "velocity": 0.1732283464566929
          },
          {
            "duration": 0.08571425000000055,
            "durationTicks": 96,
            "midi": 0,
            "name": "C-1",
            "ticks": 12288,
            "time": 10.971424,
            "velocity": 0.1732283464566929
          },
          {
            "duration": 0.08571425000000055,
            "durationTicks": 96,
            "midi": 0,
            "name": "C-1",
            "ticks": 12288,
            "time": 10.971424,
            "velocity": 0.1732283464566929
          },
          {
            "duration": 0.08571425000000055,
            "durationTicks": 96,
            "midi": 0,
            "name": "C-1",
            "ticks": 12288,
            "time": 10.971424,
            "velocity": 0.1732283464566929
          },
          {
            "duration": 0.08571425000000055,
            "durationTicks": 96,
            "midi": 0,
            "name": "C-1",
            "ticks": 12288,
            "time": 10.971424,
            "velocity": 0.1732283464566929
          },
          {
            "duration": 0.08571425000000055,
            "durationTicks": 96,
            "midi": 0,
            "name": "C-1",
            "ticks": 12288,
            "time": 10.971424,
            "velocity": 0.1732283464566929
          },
          {
            "duration": 0.08571424999999877,
            "durationTicks": 96,
            "midi": 0,
            "name": "C-1",
            "ticks": 12384,
            "time": 11.057138250000001,
            "velocity": 0.1732283464566929
          },
          {
            "duration": 0.08571425000000055,
            "durationTicks": 96,
            "midi": 0,
            "name": "C-1",
            "ticks": 12480,
            "time": 11.1428525,
            "velocity": 0.1732283464566929
          },
          {
            "duration": 0.08571425000000055,
            "durationTicks": 96,
            "midi": 0,
            "name": "C-1",
            "ticks": 12480,
            "time": 11.1428525,
            "velocity": 0.1732283464566929
          },
          {
            "duration": 0.08571425000000055,
            "durationTicks": 96,
            "midi": 0,
            "name": "C-1",
            "ticks": 12480,
            "time": 11.1428525,
            "velocity": 0.1732283464566929
          },
          {
            "duration": 0.08571425000000055,
            "durationTicks": 96,
            "midi": 0,
            "name": "C-1",
            "ticks": 12576,
            "time": 11.22856675,
            "velocity": 0.1732283464566929
          },
          {
            "duration": 0.08571424999999877,
            "durationTicks": 96,
            "midi": 0,
            "name": "C-1",
            "ticks": 12672,
            "time": 11.314281000000001,
            "velocity": 0.1732283464566929
          },
          {
            "duration": 0.08571424999999877,
            "durationTicks": 96,
            "midi": 0,
            "name": "C-1",
            "ticks": 12672,
            "time": 11.314281000000001,
            "velocity": 0.1732283464566929
          },
          {
            "duration": 0.08571424999999877,
            "durationTicks": 96,
            "midi": 0,
            "name": "C-1",
            "ticks": 12672,
            "time": 11.314281000000001,
            "velocity": 0.1732283464566929
          },
          {
            "duration": 0.08571425000000055,
            "durationTicks": 96,
            "midi": 0,
            "name": "C-1",
            "ticks": 12768,
            "time": 11.39999525,
            "velocity": 0.1732283464566929
          },
          {
            "duration": 0.08571425000000055,
            "durationTicks": 96,
            "midi": 0,
            "name": "C-1",
            "ticks": 12864,
            "time": 11.4857095,
            "velocity": 0.1732283464566929
          },
          {
            "duration": 0.08571425000000055,
            "durationTicks": 96,
            "midi": 0,
            "name": "C-1",
            "ticks": 12864,
            "time": 11.4857095,
            "velocity": 0.1732283464566929
          },
          {
            "duration": 0.08571425000000055,
            "durationTicks": 96,
            "midi": 0,
            "name": "C-1",
            "ticks": 12864,
            "time": 11.4857095,
            "velocity": 0.1732283464566929
          },
          {
            "duration": 0.08571425000000055,
            "durationTicks": 96,
            "midi": 0,
            "name": "C-1",
            "ticks": 12960,
            "time": 11.571423750000001,
            "velocity": 0.1732283464566929
          },
          {
            "duration": 0.08571424999999877,
            "durationTicks": 96,
            "midi": 0,
            "name": "C-1",
            "ticks": 13056,
            "time": 11.657138000000002,
            "velocity": 0.1732283464566929
          },
          {
            "duration": 0.08571425000000055,
            "durationTicks": 96,
            "midi": 0,
            "name": "C-1",
            "ticks": 13152,
            "time": 11.74285225,
            "velocity": 0.1732283464566929
          },
          {
            "duration": 0.08571425000000055,
            "durationTicks": 96,
            "midi": 0,
            "name": "C-1",
            "ticks": 13248,
            "time": 11.8285665,
            "velocity": 0.1732283464566929
          },
          {
            "duration": 0.08571425000000055,
            "durationTicks": 96,
            "midi": 0,
            "name": "C-1",
            "ticks": 13248,
            "time": 11.8285665,
            "velocity": 0.1732283464566929
          },
          {
            "duration": 0.08571425000000055,
            "durationTicks": 96,
            "midi": 0,
            "name": "C-1",
            "ticks": 13248,
            "time": 11.8285665,
            "velocity": 0.1732283464566929
          },
          {
            "duration": 0.08571424999999877,
            "durationTicks": 96,
            "midi": 0,
            "name": "C-1",
            "ticks": 13344,
            "time": 11.914280750000001,
            "velocity": 0.1732283464566929
          },
          {
            "duration": 0.08571425000000055,
            "durationTicks": 96,
            "midi": 0,
            "name": "C-1",
            "ticks": 13440,
            "time": 11.999995,
            "velocity": 0.1732283464566929
          },
          {
            "duration": 0.08571425000000055,
            "durationTicks": 96,
            "midi": 0,
            "name": "C-1",
            "ticks": 13440,
            "time": 11.999995,
            "velocity": 0.1732283464566929
          },
          {
            "duration": 0.08571425000000055,
            "durationTicks": 96,
            "midi": 0,
            "name": "C-1",
            "ticks": 13440,
            "time": 11.999995,
            "velocity": 0.1732283464566929
          },
          {
            "duration": 0.08571425000000055,
            "durationTicks": 96,
            "midi": 0,
            "name": "C-1",
            "ticks": 13536,
            "time": 12.08570925,
            "velocity": 0.1732283464566929
          },
          {
            "duration": 0.08571424999999877,
            "durationTicks": 96,
            "midi": 0,
            "name": "C-1",
            "ticks": 13632,
            "time": 12.171423500000001,
            "velocity": 0.1732283464566929
          },
          {
            "duration": 0.08571424999999877,
            "durationTicks": 96,
            "midi": 0,
            "name": "C-1",
            "ticks": 13632,
            "time": 12.171423500000001,
            "velocity": 0.1732283464566929
          },
          {
            "duration": 0.08571424999999877,
            "durationTicks": 96,
            "midi": 0,
            "name": "C-1",
            "ticks": 13632,
            "time": 12.171423500000001,
            "velocity": 0.1732283464566929
          },
          {
            "duration": 0.08571425000000055,
            "durationTicks": 96,
            "midi": 0,
            "name": "C-1",
            "ticks": 13728,
            "time": 12.25713775,
            "velocity": 0.1732283464566929
          },
          {
            "duration": 0.08571425000000055,
            "durationTicks": 96,
            "midi": 0,
            "name": "C-1",
            "ticks": 13824,
            "time": 12.342852,
            "velocity": 0.1732283464566929
          },
          {
            "duration": 0.08571425000000055,
            "durationTicks": 96,
            "midi": 0,
            "name": "C-1",
            "ticks": 13824,
            "time": 12.342852,
            "velocity": 0.1732283464566929
          },
          {
            "duration": 0.08571425000000055,
            "durationTicks": 96,
            "midi": 0,
            "name": "C-1",
            "ticks": 13824,
            "time": 12.342852,
            "velocity": 0.1732283464566929
          },
          {
            "duration": 0.08571425000000055,
            "durationTicks": 96,
            "midi": 0,
            "name": "C-1",
            "ticks": 13920,
            "time": 12.428566250000001,
            "velocity": 0.1732283464566929
          },
          {
            "duration": 0.08571424999999877,
            "durationTicks": 96,
            "midi": 0,
            "name": "C-1",
            "ticks": 14016,
            "time": 12.514280500000002,
            "velocity": 0.1732283464566929
          },
          {
            "duration": 0.08571424999999877,
            "durationTicks": 96,
            "midi": 0,
            "name": "C-1",
            "ticks": 14016,
            "time": 12.514280500000002,
            "velocity": 0.1732283464566929
          },
          {
            "duration": 0.08571424999999877,
            "durationTicks": 96,
            "midi": 0,
            "name": "C-1",
            "ticks": 14016,
            "time": 12.514280500000002,
            "velocity": 0.1732283464566929
          },
          {
            "duration": 0.08571425000000055,
            "durationTicks": 96,
            "midi": 0,
            "name": "C-1",
            "ticks": 14112,
            "time": 12.59999475,
            "velocity": 0.1732283464566929
          },
          {
            "duration": 0.08571425000000055,
            "durationTicks": 96,
            "midi": 0,
            "name": "C-1",
            "ticks": 14208,
            "time": 12.685709000000001,
            "velocity": 0.1732283464566929
          },
          {
            "duration": 0.08571425000000055,
            "durationTicks": 96,
            "midi": 0,
            "name": "C-1",
            "ticks": 14208,
            "time": 12.685709000000001,
            "velocity": 0.1732283464566929
          },
          {
            "duration": 0.08571425000000055,
            "durationTicks": 96,
            "midi": 0,
            "name": "C-1",
            "ticks": 14208,
            "time": 12.685709000000001,
            "velocity": 0.1732283464566929
          },
          {
            "duration": 0.08571424999999877,
            "durationTicks": 96,
            "midi": 0,
            "name": "C-1",
            "ticks": 14304,
            "time": 12.771423250000002,
            "velocity": 0.1732283464566929
          },
          {
            "duration": 0.08571425000000055,
            "durationTicks": 96,
            "midi": 0,
            "name": "C-1",
            "ticks": 14400,
            "time": 12.8571375,
            "velocity": 0.1732283464566929
          },
          {
            "duration": 0.08571425000000055,
            "durationTicks": 96,
            "midi": 0,
            "name": "C-1",
            "ticks": 14400,
            "time": 12.8571375,
            "velocity": 0.1732283464566929
          },
          {
            "duration": 0.08571425000000055,
            "durationTicks": 96,
            "midi": 0,
            "name": "C-1",
            "ticks": 14400,
            "time": 12.8571375,
            "velocity": 0.1732283464566929
          },
          {
            "duration": 0.08571425000000055,
            "durationTicks": 96,
            "midi": 0,
            "name": "C-1",
            "ticks": 14496,
            "time": 12.94285175,
            "velocity": 0.1732283464566929
          },
          {
            "duration": 0.08571424999999877,
            "durationTicks": 96,
            "midi": 0,
            "name": "C-1",
            "ticks": 14592,
            "time": 13.028566000000001,
            "velocity": 0.1732283464566929
          },
          {
            "duration": 0.08571425000000055,
            "durationTicks": 96,
            "midi": 0,
            "name": "C-1",
            "ticks": 14688,
            "time": 13.11428025,
            "velocity": 0.1732283464566929
          },
          {
            "duration": 0.08571425000000055,
            "durationTicks": 96,
            "midi": 0,
            "name": "C-1",
            "ticks": 14784,
            "time": 13.1999945,
            "velocity": 0.1732283464566929
          },
          {
            "duration": 0.08571425000000055,
            "durationTicks": 96,
            "midi": 0,
            "name": "C-1",
            "ticks": 14784,
            "time": 13.1999945,
            "velocity": 0.1732283464566929
          },
          {
            "duration": 0.08571425000000055,
            "durationTicks": 96,
            "midi": 0,
            "name": "C-1",
            "ticks": 14784,
            "time": 13.1999945,
            "velocity": 0.1732283464566929
          },
          {
            "duration": 0.08571424999999877,
            "durationTicks": 96,
            "midi": 0,
            "name": "C-1",
            "ticks": 14880,
            "time": 13.285708750000001,
            "velocity": 0.1732283464566929
          },
          {
            "duration": 0.08571425000000055,
            "durationTicks": 96,
            "midi": 0,
            "name": "C-1",
            "ticks": 14976,
            "time": 13.371423,
            "velocity": 0.1732283464566929
          },
          {
            "duration": 0.08571425000000055,
            "durationTicks": 96,
            "midi": 0,
            "name": "C-1",
            "ticks": 14976,
            "time": 13.371423,
            "velocity": 0.1732283464566929
          },
          {
            "duration": 0.08571425000000055,
            "durationTicks": 96,
            "midi": 0,
            "name": "C-1",
            "ticks": 14976,
            "time": 13.371423,
            "velocity": 0.1732283464566929
          },
          {
            "duration": 0.08571425000000055,
            "durationTicks": 96,
            "midi": 0,
            "name": "C-1",
            "ticks": 15072,
            "time": 13.45713725,
            "velocity": 0.1732283464566929
          },
          {
            "duration": 0.08571425000000055,
            "durationTicks": 96,
            "midi": 0,
            "name": "C-1",
            "ticks": 15168,
            "time": 13.542851500000001,
            "velocity": 0.1732283464566929
          },
          {
            "duration": 0.08571425000000055,
            "durationTicks": 96,
            "midi": 0,
            "name": "C-1",
            "ticks": 15168,
            "time": 13.542851500000001,
            "velocity": 0.1732283464566929
          },
          {
            "duration": 0.08571425000000055,
            "durationTicks": 96,
            "midi": 0,
            "name": "C-1",
            "ticks": 15168,
            "time": 13.542851500000001,
            "velocity": 0.1732283464566929
          },
          {
            "duration": 0.08571424999999877,
            "durationTicks": 96,
            "midi": 0,
            "name": "C-1",
            "ticks": 15264,
            "time": 13.628565750000002,
            "velocity": 0.1732283464566929
          },
          {
            "duration": 0.08571425000000055,
            "durationTicks": 96,
            "midi": 0,
            "name": "C-1",
            "ticks": 15360,
            "time": 13.71428,
            "velocity": 0.1732283464566929
          },
          {
            "duration": 0.08571425000000055,
            "durationTicks": 96,
            "midi": 0,
            "name": "C-1",
            "ticks": 15360,
            "time": 13.71428,
            "velocity": 0.1732283464566929
          },
          {
            "duration": 0.08571425000000055,
            "durationTicks": 96,
            "midi": 0,
            "name": "C-1",
            "ticks": 15360,
            "time": 13.71428,
            "velocity": 0.1732283464566929
          },
          {
            "duration": 0.08571425000000055,
            "durationTicks": 96,
            "midi": 0,
            "name": "C-1",
            "ticks": 15456,
            "time": 13.799994250000001,
            "velocity": 0.1732283464566929
          },
          {
            "duration": 0.08571424999999877,
            "durationTicks": 96,
            "midi": 0,
            "name": "C-1",
            "ticks": 15552,
            "time": 13.885708500000002,
            "velocity": 0.1732283464566929
          },
          {
            "duration": 0.08571424999999877,
            "durationTicks": 96,
            "midi": 0,
            "name": "C-1",
            "ticks": 15552,
            "time": 13.885708500000002,
            "velocity": 0.1732283464566929
          },
          {
            "duration": 0.08571424999999877,
            "durationTicks": 96,
            "midi": 0,
            "name": "C-1",
            "ticks": 15552,
            "time": 13.885708500000002,
            "velocity": 0.1732283464566929
          },
          {
            "duration": 0.08571425000000055,
            "durationTicks": 96,
            "midi": 0,
            "name": "C-1",
            "ticks": 15648,
            "time": 13.97142275,
            "velocity": 0.1732283464566929
          },
          {
            "duration": 0.08571425000000055,
            "durationTicks": 96,
            "midi": 0,
            "name": "C-1",
            "ticks": 15744,
            "time": 14.057137,
            "velocity": 0.1732283464566929
          },
          {
            "duration": 0.08571425000000055,
            "durationTicks": 96,
            "midi": 0,
            "name": "C-1",
            "ticks": 15744,
            "time": 14.057137,
            "velocity": 0.1732283464566929
          },
          {
            "duration": 0.08571425000000055,
            "durationTicks": 96,
            "midi": 0,
            "name": "C-1",
            "ticks": 15744,
            "time": 14.057137,
            "velocity": 0.1732283464566929
          },
          {
            "duration": 0.08571424999999877,
            "durationTicks": 96,
            "midi": 0,
            "name": "C-1",
            "ticks": 15840,
            "time": 14.142851250000001,
            "velocity": 0.1732283464566929
          },
          {
            "duration": 0.08571425000000055,
            "durationTicks": 96,
            "midi": 0,
            "name": "C-1",
            "ticks": 15936,
            "time": 14.2285655,
            "velocity": 0.1732283464566929
          },
          {
            "duration": 0.08571425000000055,
            "durationTicks": 96,
            "midi": 0,
            "name": "C-1",
            "ticks": 15936,
            "time": 14.2285655,
            "velocity": 0.1732283464566929
          },
          {
            "duration": 0.08571425000000055,
            "durationTicks": 96,
            "midi": 0,
            "name": "C-1",
            "ticks": 15936,
            "time": 14.2285655,
            "velocity": 0.1732283464566929
          },
          {
            "duration": 0.08571425000000055,
            "durationTicks": 96,
            "midi": 0,
            "name": "C-1",
            "ticks": 16032,
            "time": 14.31427975,
            "velocity": 0.1732283464566929
          },
          {
            "duration": 0.08571425000000055,
            "durationTicks": 96,
            "midi": 0,
            "name": "C-1",
            "ticks": 16128,
            "time": 14.399994000000001,
            "velocity": 0.1732283464566929
          },
          {
            "duration": 0.08571424999999877,
            "durationTicks": 96,
            "midi": 0,
            "name": "C-1",
            "ticks": 16224,
            "time": 14.485708250000002,
            "velocity": 0.1732283464566929
          },
          {
            "duration": 0.08571425000000055,
            "durationTicks": 96,
            "midi": 0,
            "name": "C-1",
            "ticks": 16320,
            "time": 14.5714225,
            "velocity": 0.1732283464566929
          },
          {
            "duration": 0.08571425000000055,
            "durationTicks": 96,
            "midi": 0,
            "name": "C-1",
            "ticks": 16320,
            "time": 14.5714225,
            "velocity": 0.1732283464566929
          },
          {
            "duration": 0.08571425000000055,
            "durationTicks": 96,
            "midi": 0,
            "name": "C-1",
            "ticks": 16320,
            "time": 14.5714225,
            "velocity": 0.1732283464566929
          },
          {
            "duration": 0.08571425000000055,
            "durationTicks": 96,
            "midi": 0,
            "name": "C-1",
            "ticks": 16416,
            "time": 14.657136750000001,
            "velocity": 0.1732283464566929
          },
          {
            "duration": 0.08571424999999877,
            "durationTicks": 96,
            "midi": 0,
            "name": "C-1",
            "ticks": 16512,
            "time": 14.742851000000002,
            "velocity": 0.1732283464566929
          },
          {
            "duration": 0.08571424999999877,
            "durationTicks": 96,
            "midi": 0,
            "name": "C-1",
            "ticks": 16512,
            "time": 14.742851000000002,
            "velocity": 0.1732283464566929
          },
          {
            "duration": 0.08571424999999877,
            "durationTicks": 96,
            "midi": 0,
            "name": "C-1",
            "ticks": 16512,
            "time": 14.742851000000002,
            "velocity": 0.1732283464566929
          },
          {
            "duration": 0.08571425000000055,
            "durationTicks": 96,
            "midi": 0,
            "name": "C-1",
            "ticks": 16608,
            "time": 14.82856525,
            "velocity": 0.1732283464566929
          },
          {
            "duration": 0.08571425000000055,
            "durationTicks": 96,
            "midi": 0,
            "name": "C-1",
            "ticks": 16704,
            "time": 14.914279500000001,
            "velocity": 0.1732283464566929
          },
          {
            "duration": 0.08571425000000055,
            "durationTicks": 96,
            "midi": 0,
            "name": "C-1",
            "ticks": 16704,
            "time": 14.914279500000001,
            "velocity": 0.1732283464566929
          },
          {
            "duration": 0.08571425000000055,
            "durationTicks": 96,
            "midi": 0,
            "name": "C-1",
            "ticks": 16704,
            "time": 14.914279500000001,
            "velocity": 0.1732283464566929
          },
          {
            "duration": 0.08571424999999877,
            "durationTicks": 96,
            "midi": 0,
            "name": "C-1",
            "ticks": 16800,
            "time": 14.999993750000002,
            "velocity": 0.1732283464566929
          },
          {
            "duration": 0.08571425000000055,
            "durationTicks": 96,
            "midi": 0,
            "name": "C-1",
            "ticks": 16896,
            "time": 15.085708,
            "velocity": 0.1732283464566929
          },
          {
            "duration": 0.08571425000000055,
            "durationTicks": 96,
            "midi": 0,
            "name": "C-1",
            "ticks": 16896,
            "time": 15.085708,
            "velocity": 0.1732283464566929
          },
          {
            "duration": 0.08571425000000055,
            "durationTicks": 96,
            "midi": 0,
            "name": "C-1",
            "ticks": 16896,
            "time": 15.085708,
            "velocity": 0.1732283464566929
          },
          {
            "duration": 0.08571425000000055,
            "durationTicks": 96,
            "midi": 0,
            "name": "C-1",
            "ticks": 16992,
            "time": 15.17142225,
            "velocity": 0.1732283464566929
          },
          {
            "duration": 0.08571424999999877,
            "durationTicks": 96,
            "midi": 0,
            "name": "C-1",
            "ticks": 17088,
            "time": 15.257136500000001,
            "velocity": 0.1732283464566929
          },
          {
            "duration": 0.08571424999999877,
            "durationTicks": 96,
            "midi": 0,
            "name": "C-1",
            "ticks": 17088,
            "time": 15.257136500000001,
            "velocity": 0.1732283464566929
          },
          {
            "duration": 0.08571424999999877,
            "durationTicks": 96,
            "midi": 0,
            "name": "C-1",
            "ticks": 17088,
            "time": 15.257136500000001,
            "velocity": 0.1732283464566929
          },
          {
            "duration": 0.08571425000000055,
            "durationTicks": 96,
            "midi": 0,
            "name": "C-1",
            "ticks": 17184,
            "time": 15.34285075,
            "velocity": 0.1732283464566929
          },
          {
            "duration": 0.08571425000000055,
            "durationTicks": 96,
            "midi": 0,
            "name": "C-1",
            "ticks": 17280,
            "time": 15.428565,
            "velocity": 0.1732283464566929
          },
          {
            "duration": 0.08571425000000055,
            "durationTicks": 96,
            "midi": 0,
            "name": "C-1",
            "ticks": 17280,
            "time": 15.428565,
            "velocity": 0.1732283464566929
          },
          {
            "duration": 0.08571425000000055,
            "durationTicks": 96,
            "midi": 0,
            "name": "C-1",
            "ticks": 17280,
            "time": 15.428565,
            "velocity": 0.1732283464566929
          },
          {
            "duration": 0.08571425000000055,
            "durationTicks": 96,
            "midi": 0,
            "name": "C-1",
            "ticks": 17376,
            "time": 15.514279250000001,
            "velocity": 0.1732283464566929
          },
          {
            "duration": 0.08571424999999877,
            "durationTicks": 96,
            "midi": 0,
            "name": "C-1",
            "ticks": 17472,
            "time": 15.599993500000002,
            "velocity": 0.1732283464566929
          },
          {
            "duration": 0.08571424999999877,
            "durationTicks": 96,
            "midi": 0,
            "name": "C-1",
            "ticks": 17472,
            "time": 15.599993500000002,
            "velocity": 0.1732283464566929
          },
          {
            "duration": 0.08571424999999877,
            "durationTicks": 96,
            "midi": 0,
            "name": "C-1",
            "ticks": 17472,
            "time": 15.599993500000002,
            "velocity": 0.1732283464566929
          },
          {
            "duration": 0.08571425000000055,
            "durationTicks": 96,
            "midi": 0,
            "name": "C-1",
            "ticks": 17568,
            "time": 15.68570775,
            "velocity": 0.1732283464566929
          },
          {
            "duration": 0.08571425000000055,
            "durationTicks": 96,
            "midi": 0,
            "name": "C-1",
            "ticks": 17664,
            "time": 15.771422000000001,
            "velocity": 0.1732283464566929
          },
          {
            "duration": 0.08571425000000055,
            "durationTicks": 96,
            "midi": 0,
            "name": "C-1",
            "ticks": 17664,
            "time": 15.771422000000001,
            "velocity": 0.1732283464566929
          },
          {
            "duration": 0.08571425000000055,
            "durationTicks": 96,
            "midi": 0,
            "name": "C-1",
            "ticks": 17664,
            "time": 15.771422000000001,
            "velocity": 0.1732283464566929
          },
          {
            "duration": 0.08571424999999877,
            "durationTicks": 96,
            "midi": 0,
            "name": "C-1",
            "ticks": 17760,
            "time": 15.857136250000002,
            "velocity": 0.1732283464566929
          },
          {
            "duration": 0.08571425000000055,
            "durationTicks": 96,
            "midi": 0,
            "name": "C-1",
            "ticks": 17856,
            "time": 15.9428505,
            "velocity": 0.1732283464566929
          },
          {
            "duration": 0.08571425000000055,
            "durationTicks": 96,
            "midi": 0,
            "name": "C-1",
            "ticks": 17856,
            "time": 15.9428505,
            "velocity": 0.1732283464566929
          },
          {
            "duration": 0.08571425000000055,
            "durationTicks": 96,
            "midi": 0,
            "name": "C-1",
            "ticks": 17856,
            "time": 15.9428505,
            "velocity": 0.1732283464566929
          },
          {
            "duration": 0.08571424999999877,
            "durationTicks": 96,
            "midi": 0,
            "name": "C-1",
            "ticks": 17952,
            "time": 16.02856475,
            "velocity": 0.1732283464566929
          },
          {
            "duration": 0.08571425000000232,
            "durationTicks": 96,
            "midi": 0,
            "name": "C-1",
            "ticks": 18048,
            "time": 16.114279,
            "velocity": 0.1732283464566929
          },
          {
            "duration": 0.08571425000000232,
            "durationTicks": 96,
            "midi": 0,
            "name": "C-1",
            "ticks": 18048,
            "time": 16.114279,
            "velocity": 0.1732283464566929
          },
          {
            "duration": 0.08571425000000232,
            "durationTicks": 96,
            "midi": 0,
            "name": "C-1",
            "ticks": 18048,
            "time": 16.114279,
            "velocity": 0.1732283464566929
          },
          {
            "duration": 0.08571424999999877,
            "durationTicks": 96,
            "midi": 0,
            "name": "C-1",
            "ticks": 18144,
            "time": 16.199993250000002,
            "velocity": 0.1732283464566929
          },
          {
            "duration": 0.08571424999999877,
            "durationTicks": 96,
            "midi": 0,
            "name": "C-1",
            "ticks": 18240,
            "time": 16.2857075,
            "velocity": 0.1732283464566929
          },
          {
            "duration": 0.08571424999999877,
            "durationTicks": 96,
            "midi": 0,
            "name": "C-1",
            "ticks": 18240,
            "time": 16.2857075,
            "velocity": 0.1732283464566929
          },
          {
            "duration": 0.08571424999999877,
            "durationTicks": 96,
            "midi": 0,
            "name": "C-1",
            "ticks": 18240,
            "time": 16.2857075,
            "velocity": 0.1732283464566929
          },
          {
            "duration": 0.08571425000000232,
            "durationTicks": 96,
            "midi": 0,
            "name": "C-1",
            "ticks": 18336,
            "time": 16.37142175,
            "velocity": 0.1732283464566929
          },
          {
            "duration": 0.08571424999999877,
            "durationTicks": 96,
            "midi": 0,
            "name": "C-1",
            "ticks": 18432,
            "time": 16.457136000000002,
            "velocity": 0.1732283464566929
          },
          {
            "duration": 0.08571424999999877,
            "durationTicks": 96,
            "midi": 0,
            "name": "C-1",
            "ticks": 18432,
            "time": 16.457136000000002,
            "velocity": 0.1732283464566929
          },
          {
            "duration": 0.08571424999999877,
            "durationTicks": 96,
            "midi": 0,
            "name": "C-1",
            "ticks": 18432,
            "time": 16.457136000000002,
            "velocity": 0.1732283464566929
          },
          {
            "duration": 0.08571424999999877,
            "durationTicks": 96,
            "midi": 0,
            "name": "C-1",
            "ticks": 18432,
            "time": 16.457136000000002,
            "velocity": 0.1732283464566929
          },
          {
            "duration": 0.08571424999999877,
            "durationTicks": 96,
            "midi": 0,
            "name": "C-1",
            "ticks": 18432,
            "time": 16.457136000000002,
            "velocity": 0.1732283464566929
          },
          {
            "duration": 0.08571424999999877,
            "durationTicks": 96,
            "midi": 0,
            "name": "C-1",
            "ticks": 18528,
            "time": 16.54285025,
            "velocity": 0.1732283464566929
          },
          {
            "duration": 0.08571425000000232,
            "durationTicks": 96,
            "midi": 0,
            "name": "C-1",
            "ticks": 18624,
            "time": 16.6285645,
            "velocity": 0.1732283464566929
          },
          {
            "duration": 0.08571425000000232,
            "durationTicks": 96,
            "midi": 0,
            "name": "C-1",
            "ticks": 18624,
            "time": 16.6285645,
            "velocity": 0.1732283464566929
          },
          {
            "duration": 0.08571425000000232,
            "durationTicks": 96,
            "midi": 0,
            "name": "C-1",
            "ticks": 18624,
            "time": 16.6285645,
            "velocity": 0.1732283464566929
          },
          {
            "duration": 0.08571424999999877,
            "durationTicks": 96,
            "midi": 0,
            "name": "C-1",
            "ticks": 18720,
            "time": 16.714278750000002,
            "velocity": 0.1732283464566929
          },
          {
            "duration": 0.08571424999999877,
            "durationTicks": 96,
            "midi": 0,
            "name": "C-1",
            "ticks": 18816,
            "time": 16.799993,
            "velocity": 0.1732283464566929
          },
          {
            "duration": 0.08571424999999877,
            "durationTicks": 96,
            "midi": 0,
            "name": "C-1",
            "ticks": 18816,
            "time": 16.799993,
            "velocity": 0.1732283464566929
          },
          {
            "duration": 0.08571424999999877,
            "durationTicks": 96,
            "midi": 0,
            "name": "C-1",
            "ticks": 18816,
            "time": 16.799993,
            "velocity": 0.1732283464566929
          },
          {
            "duration": 0.08571425000000232,
            "durationTicks": 96,
            "midi": 0,
            "name": "C-1",
            "ticks": 18912,
            "time": 16.88570725,
            "velocity": 0.1732283464566929
          },
          {
            "duration": 0.08571424999999877,
            "durationTicks": 96,
            "midi": 0,
            "name": "C-1",
            "ticks": 19008,
            "time": 16.9714215,
            "velocity": 0.1732283464566929
          },
          {
            "duration": 0.08571424999999877,
            "durationTicks": 96,
            "midi": 0,
            "name": "C-1",
            "ticks": 19008,
            "time": 16.9714215,
            "velocity": 0.1732283464566929
          },
          {
            "duration": 0.08571424999999877,
            "durationTicks": 96,
            "midi": 0,
            "name": "C-1",
            "ticks": 19008,
            "time": 16.9714215,
            "velocity": 0.1732283464566929
          },
          {
            "duration": 0.08571425000000232,
            "durationTicks": 96,
            "midi": 0,
            "name": "C-1",
            "ticks": 19104,
            "time": 17.05713575,
            "velocity": 0.1732283464566929
          },
          {
            "duration": 0.08571424999999877,
            "durationTicks": 96,
            "midi": 0,
            "name": "C-1",
            "ticks": 19200,
            "time": 17.142850000000003,
            "velocity": 0.1732283464566929
          },
          {
            "duration": 0.08571424999999877,
            "durationTicks": 96,
            "midi": 0,
            "name": "C-1",
            "ticks": 19296,
            "time": 17.22856425,
            "velocity": 0.1732283464566929
          },
          {
            "duration": 0.08571425000000232,
            "durationTicks": 96,
            "midi": 0,
            "name": "C-1",
            "ticks": 19392,
            "time": 17.3142785,
            "velocity": 0.1732283464566929
          },
          {
            "duration": 0.08571425000000232,
            "durationTicks": 96,
            "midi": 0,
            "name": "C-1",
            "ticks": 19392,
            "time": 17.3142785,
            "velocity": 0.1732283464566929
          },
          {
            "duration": 0.08571425000000232,
            "durationTicks": 96,
            "midi": 0,
            "name": "C-1",
            "ticks": 19392,
            "time": 17.3142785,
            "velocity": 0.1732283464566929
          },
          {
            "duration": 0.08571424999999877,
            "durationTicks": 96,
            "midi": 0,
            "name": "C-1",
            "ticks": 19488,
            "time": 17.399992750000003,
            "velocity": 0.1732283464566929
          },
          {
            "duration": 0.08571424999999877,
            "durationTicks": 96,
            "midi": 0,
            "name": "C-1",
            "ticks": 19584,
            "time": 17.485707,
            "velocity": 0.1732283464566929
          },
          {
            "duration": 0.08571424999999877,
            "durationTicks": 96,
            "midi": 0,
            "name": "C-1",
            "ticks": 19584,
            "time": 17.485707,
            "velocity": 0.1732283464566929
          },
          {
            "duration": 0.08571424999999877,
            "durationTicks": 96,
            "midi": 0,
            "name": "C-1",
            "ticks": 19584,
            "time": 17.485707,
            "velocity": 0.1732283464566929
          },
          {
            "duration": 0.08571425000000232,
            "durationTicks": 96,
            "midi": 0,
            "name": "C-1",
            "ticks": 19680,
            "time": 17.57142125,
            "velocity": 0.1732283464566929
          },
          {
            "duration": 0.08571424999999877,
            "durationTicks": 96,
            "midi": 0,
            "name": "C-1",
            "ticks": 19776,
            "time": 17.657135500000003,
            "velocity": 0.1732283464566929
          },
          {
            "duration": 0.08571424999999877,
            "durationTicks": 96,
            "midi": 0,
            "name": "C-1",
            "ticks": 19776,
            "time": 17.657135500000003,
            "velocity": 0.1732283464566929
          },
          {
            "duration": 0.08571424999999877,
            "durationTicks": 96,
            "midi": 0,
            "name": "C-1",
            "ticks": 19776,
            "time": 17.657135500000003,
            "velocity": 0.1732283464566929
          },
          {
            "duration": 0.08571424999999877,
            "durationTicks": 96,
            "midi": 0,
            "name": "C-1",
            "ticks": 19872,
            "time": 17.74284975,
            "velocity": 0.1732283464566929
          },
          {
            "duration": 0.08571425000000232,
            "durationTicks": 96,
            "midi": 0,
            "name": "C-1",
            "ticks": 19968,
            "time": 17.828564,
            "velocity": 0.1732283464566929
          },
          {
            "duration": 0.08571425000000232,
            "durationTicks": 96,
            "midi": 0,
            "name": "C-1",
            "ticks": 19968,
            "time": 17.828564,
            "velocity": 0.1732283464566929
          },
          {
            "duration": 0.08571425000000232,
            "durationTicks": 96,
            "midi": 0,
            "name": "C-1",
            "ticks": 19968,
            "time": 17.828564,
            "velocity": 0.1732283464566929
          },
          {
            "duration": 0.08571424999999877,
            "durationTicks": 96,
            "midi": 0,
            "name": "C-1",
            "ticks": 20064,
            "time": 17.914278250000002,
            "velocity": 0.1732283464566929
          },
          {
            "duration": 0.08571424999999877,
            "durationTicks": 96,
            "midi": 0,
            "name": "C-1",
            "ticks": 20160,
            "time": 17.9999925,
            "velocity": 0.1732283464566929
          },
          {
            "duration": 0.08571424999999877,
            "durationTicks": 96,
            "midi": 0,
            "name": "C-1",
            "ticks": 20160,
            "time": 17.9999925,
            "velocity": 0.1732283464566929
          },
          {
            "duration": 0.08571424999999877,
            "durationTicks": 96,
            "midi": 0,
            "name": "C-1",
            "ticks": 20160,
            "time": 17.9999925,
            "velocity": 0.1732283464566929
          },
          {
            "duration": 0.08571425000000232,
            "durationTicks": 96,
            "midi": 0,
            "name": "C-1",
            "ticks": 20256,
            "time": 18.08570675,
            "velocity": 0.1732283464566929
          },
          {
            "duration": 0.08571424999999877,
            "durationTicks": 96,
            "midi": 0,
            "name": "C-1",
            "ticks": 20352,
            "time": 18.171421000000002,
            "velocity": 0.1732283464566929
          },
          {
            "duration": 0.08571424999999877,
            "durationTicks": 96,
            "midi": 0,
            "name": "C-1",
            "ticks": 20352,
            "time": 18.171421000000002,
            "velocity": 0.1732283464566929
          },
          {
            "duration": 0.08571424999999877,
            "durationTicks": 96,
            "midi": 0,
            "name": "C-1",
            "ticks": 20352,
            "time": 18.171421000000002,
            "velocity": 0.1732283464566929
          },
          {
            "duration": 0.08571424999999877,
            "durationTicks": 96,
            "midi": 0,
            "name": "C-1",
            "ticks": 20448,
            "time": 18.25713525,
            "velocity": 0.1732283464566929
          },
          {
            "duration": 0.08571425000000232,
            "durationTicks": 96,
            "midi": 0,
            "name": "C-1",
            "ticks": 20544,
            "time": 18.3428495,
            "velocity": 0.1732283464566929
          },
          {
            "duration": 0.08571425000000232,
            "durationTicks": 96,
            "midi": 0,
            "name": "C-1",
            "ticks": 20544,
            "time": 18.3428495,
            "velocity": 0.1732283464566929
          },
          {
            "duration": 0.08571425000000232,
            "durationTicks": 96,
            "midi": 0,
            "name": "C-1",
            "ticks": 20544,
            "time": 18.3428495,
            "velocity": 0.1732283464566929
          },
          {
            "duration": 0.08571424999999877,
            "durationTicks": 96,
            "midi": 0,
            "name": "C-1",
            "ticks": 20640,
            "time": 18.428563750000002,
            "velocity": 0.1732283464566929
          },
          {
            "duration": 0.08571424999999877,
            "durationTicks": 96,
            "midi": 0,
            "name": "C-1",
            "ticks": 20736,
            "time": 18.514278,
            "velocity": 0.1732283464566929
          },
          {
            "duration": 0.08571425000000232,
            "durationTicks": 96,
            "midi": 0,
            "name": "C-1",
            "ticks": 20832,
            "time": 18.59999225,
            "velocity": 0.1732283464566929
          },
          {
            "duration": 0.08571424999999877,
            "durationTicks": 96,
            "midi": 0,
            "name": "C-1",
            "ticks": 20928,
            "time": 18.685706500000002,
            "velocity": 0.1732283464566929
          },
          {
            "duration": 0.08571424999999877,
            "durationTicks": 96,
            "midi": 0,
            "name": "C-1",
            "ticks": 20928,
            "time": 18.685706500000002,
            "velocity": 0.1732283464566929
          },
          {
            "duration": 0.08571424999999877,
            "durationTicks": 96,
            "midi": 0,
            "name": "C-1",
            "ticks": 20928,
            "time": 18.685706500000002,
            "velocity": 0.1732283464566929
          },
          {
            "duration": 0.08571424999999877,
            "durationTicks": 96,
            "midi": 0,
            "name": "C-1",
            "ticks": 21024,
            "time": 18.77142075,
            "velocity": 0.1732283464566929
          },
          {
            "duration": 0.08571425000000232,
            "durationTicks": 96,
            "midi": 0,
            "name": "C-1",
            "ticks": 21120,
            "time": 18.857135,
            "velocity": 0.1732283464566929
          },
          {
            "duration": 0.08571425000000232,
            "durationTicks": 96,
            "midi": 0,
            "name": "C-1",
            "ticks": 21120,
            "time": 18.857135,
            "velocity": 0.1732283464566929
          },
          {
            "duration": 0.08571425000000232,
            "durationTicks": 96,
            "midi": 0,
            "name": "C-1",
            "ticks": 21120,
            "time": 18.857135,
            "velocity": 0.1732283464566929
          },
          {
            "duration": 0.08571424999999877,
            "durationTicks": 96,
            "midi": 0,
            "name": "C-1",
            "ticks": 21216,
            "time": 18.942849250000002,
            "velocity": 0.1732283464566929
          },
          {
            "duration": 0.08571425000000232,
            "durationTicks": 96,
            "midi": 0,
            "name": "C-1",
            "ticks": 21312,
            "time": 19.0285635,
            "velocity": 0.1732283464566929
          },
          {
            "duration": 0.08571425000000232,
            "durationTicks": 96,
            "midi": 0,
            "name": "C-1",
            "ticks": 21312,
            "time": 19.0285635,
            "velocity": 0.1732283464566929
          },
          {
            "duration": 0.08571425000000232,
            "durationTicks": 96,
            "midi": 0,
            "name": "C-1",
            "ticks": 21312,
            "time": 19.0285635,
            "velocity": 0.1732283464566929
          },
          {
            "duration": 0.08571424999999877,
            "durationTicks": 96,
            "midi": 0,
            "name": "C-1",
            "ticks": 21408,
            "time": 19.114277750000003,
            "velocity": 0.1732283464566929
          },
          {
            "duration": 0.08571424999999877,
            "durationTicks": 96,
            "midi": 0,
            "name": "C-1",
            "ticks": 21504,
            "time": 19.199992,
            "velocity": 0.1732283464566929
          },
          {
            "duration": 0.08571424999999877,
            "durationTicks": 96,
            "midi": 0,
            "name": "C-1",
            "ticks": 21504,
            "time": 19.199992,
            "velocity": 0.1732283464566929
          },
          {
            "duration": 0.08571424999999877,
            "durationTicks": 96,
            "midi": 0,
            "name": "C-1",
            "ticks": 21504,
            "time": 19.199992,
            "velocity": 0.1732283464566929
          },
          {
            "duration": 0.08571424999999877,
            "durationTicks": 96,
            "midi": 0,
            "name": "C-1",
            "ticks": 21504,
            "time": 19.199992,
            "velocity": 0.1732283464566929
          },
          {
            "duration": 0.08571424999999877,
            "durationTicks": 96,
            "midi": 0,
            "name": "C-1",
            "ticks": 21504,
            "time": 19.199992,
            "velocity": 0.1732283464566929
          },
          {
            "duration": 0.08571425000000232,
            "durationTicks": 96,
            "midi": 0,
            "name": "C-1",
            "ticks": 21600,
            "time": 19.28570625,
            "velocity": 0.1732283464566929
          },
          {
            "duration": 0.08571424999999877,
            "durationTicks": 96,
            "midi": 0,
            "name": "C-1",
            "ticks": 21696,
            "time": 19.371420500000003,
            "velocity": 0.1732283464566929
          },
          {
            "duration": 0.08571424999999877,
            "durationTicks": 96,
            "midi": 0,
            "name": "C-1",
            "ticks": 21696,
            "time": 19.371420500000003,
            "velocity": 0.1732283464566929
          },
          {
            "duration": 0.08571424999999877,
            "durationTicks": 96,
            "midi": 0,
            "name": "C-1",
            "ticks": 21696,
            "time": 19.371420500000003,
            "velocity": 0.1732283464566929
          },
          {
            "duration": 0.08571424999999877,
            "durationTicks": 96,
            "midi": 0,
            "name": "C-1",
            "ticks": 21792,
            "time": 19.45713475,
            "velocity": 0.1732283464566929
          },
          {
            "duration": 0.08571425000000232,
            "durationTicks": 96,
            "midi": 0,
            "name": "C-1",
            "ticks": 21888,
            "time": 19.542849,
            "velocity": 0.1732283464566929
          },
          {
            "duration": 0.08571425000000232,
            "durationTicks": 96,
            "midi": 0,
            "name": "C-1",
            "ticks": 21888,
            "time": 19.542849,
            "velocity": 0.1732283464566929
          },
          {
            "duration": 0.08571425000000232,
            "durationTicks": 96,
            "midi": 0,
            "name": "C-1",
            "ticks": 21888,
            "time": 19.542849,
            "velocity": 0.1732283464566929
          },
          {
            "duration": 0.08571424999999877,
            "durationTicks": 96,
            "midi": 0,
            "name": "C-1",
            "ticks": 21984,
            "time": 19.628563250000003,
            "velocity": 0.1732283464566929
          },
          {
            "duration": 0.08571424999999877,
            "durationTicks": 96,
            "midi": 0,
            "name": "C-1",
            "ticks": 22080,
            "time": 19.7142775,
            "velocity": 0.1732283464566929
          },
          {
            "duration": 0.08571424999999877,
            "durationTicks": 96,
            "midi": 0,
            "name": "C-1",
            "ticks": 22080,
            "time": 19.7142775,
            "velocity": 0.1732283464566929
          },
          {
            "duration": 0.08571424999999877,
            "durationTicks": 96,
            "midi": 0,
            "name": "C-1",
            "ticks": 22080,
            "time": 19.7142775,
            "velocity": 0.1732283464566929
          },
          {
            "duration": 0.08571425000000232,
            "durationTicks": 96,
            "midi": 0,
            "name": "C-1",
            "ticks": 22176,
            "time": 19.79999175,
            "velocity": 0.1732283464566929
          },
          {
            "duration": 0.08571424999999877,
            "durationTicks": 96,
            "midi": 0,
            "name": "C-1",
            "ticks": 22272,
            "time": 19.885706000000003,
            "velocity": 0.1732283464566929
          },
          {
            "duration": 0.08571424999999877,
            "durationTicks": 96,
            "midi": 0,
            "name": "C-1",
            "ticks": 22368,
            "time": 19.97142025,
            "velocity": 0.1732283464566929
          },
          {
            "duration": 0.08571425000000232,
            "durationTicks": 96,
            "midi": 0,
            "name": "C-1",
            "ticks": 22464,
            "time": 20.0571345,
            "velocity": 0.1732283464566929
          },
          {
            "duration": 0.08571425000000232,
            "durationTicks": 96,
            "midi": 0,
            "name": "C-1",
            "ticks": 22464,
            "time": 20.0571345,
            "velocity": 0.1732283464566929
          },
          {
            "duration": 0.08571425000000232,
            "durationTicks": 96,
            "midi": 0,
            "name": "C-1",
            "ticks": 22464,
            "time": 20.0571345,
            "velocity": 0.1732283464566929
          },
          {
            "duration": 0.08571424999999877,
            "durationTicks": 96,
            "midi": 0,
            "name": "C-1",
            "ticks": 22560,
            "time": 20.142848750000002,
            "velocity": 0.1732283464566929
          },
          {
            "duration": 0.08571424999999877,
            "durationTicks": 96,
            "midi": 0,
            "name": "C-1",
            "ticks": 22656,
            "time": 20.228563,
            "velocity": 0.1732283464566929
          },
          {
            "duration": 0.08571424999999877,
            "durationTicks": 96,
            "midi": 0,
            "name": "C-1",
            "ticks": 22656,
            "time": 20.228563,
            "velocity": 0.1732283464566929
          },
          {
            "duration": 0.08571424999999877,
            "durationTicks": 96,
            "midi": 0,
            "name": "C-1",
            "ticks": 22656,
            "time": 20.228563,
            "velocity": 0.1732283464566929
          },
          {
            "duration": 0.08571425000000232,
            "durationTicks": 96,
            "midi": 0,
            "name": "C-1",
            "ticks": 22752,
            "time": 20.31427725,
            "velocity": 0.1732283464566929
          },
          {
            "duration": 0.08571424999999877,
            "durationTicks": 96,
            "midi": 0,
            "name": "C-1",
            "ticks": 22848,
            "time": 20.399991500000002,
            "velocity": 0.1732283464566929
          },
          {
            "duration": 0.08571424999999877,
            "durationTicks": 96,
            "midi": 0,
            "name": "C-1",
            "ticks": 22848,
            "time": 20.399991500000002,
            "velocity": 0.1732283464566929
          },
          {
            "duration": 0.08571424999999877,
            "durationTicks": 96,
            "midi": 0,
            "name": "C-1",
            "ticks": 22848,
            "time": 20.399991500000002,
            "velocity": 0.1732283464566929
          },
          {
            "duration": 0.08571424999999877,
            "durationTicks": 96,
            "midi": 0,
            "name": "C-1",
            "ticks": 22944,
            "time": 20.48570575,
            "velocity": 0.1732283464566929
          },
          {
            "duration": 0.08571425000000232,
            "durationTicks": 96,
            "midi": 0,
            "name": "C-1",
            "ticks": 23040,
            "time": 20.57142,
            "velocity": 0.1732283464566929
          },
          {
            "duration": 0.08571425000000232,
            "durationTicks": 96,
            "midi": 0,
            "name": "C-1",
            "ticks": 23040,
            "time": 20.57142,
            "velocity": 0.1732283464566929
          },
          {
            "duration": 0.08571425000000232,
            "durationTicks": 96,
            "midi": 0,
            "name": "C-1",
            "ticks": 23040,
            "time": 20.57142,
            "velocity": 0.1732283464566929
          },
          {
            "duration": 0.08571425000000232,
            "durationTicks": 96,
            "midi": 0,
            "name": "C-1",
            "ticks": 23040,
            "time": 20.57142,
            "velocity": 0.1732283464566929
          },
          {
            "duration": 0.08571425000000232,
            "durationTicks": 96,
            "midi": 0,
            "name": "C-1",
            "ticks": 23040,
            "time": 20.57142,
            "velocity": 0.1732283464566929
          },
          {
            "duration": 0.08571425000000232,
            "durationTicks": 96,
            "midi": 0,
            "name": "C-1",
            "ticks": 23040,
            "time": 20.57142,
            "velocity": 0.1732283464566929
          },
          {
            "duration": 0.08571425000000232,
            "durationTicks": 96,
            "midi": 0,
            "name": "C-1",
            "ticks": 23040,
            "time": 20.57142,
            "velocity": 0.1732283464566929
          },
          {
            "duration": 0.08571424999999877,
            "durationTicks": 96,
            "midi": 0,
            "name": "C-1",
            "ticks": 23136,
            "time": 20.657134250000002,
            "velocity": 0.1732283464566929
          },
          {
            "duration": 0.08571424999999877,
            "durationTicks": 96,
            "midi": 0,
            "name": "C-1",
            "ticks": 23232,
            "time": 20.7428485,
            "velocity": 0.1732283464566929
          },
          {
            "duration": 0.08571424999999877,
            "durationTicks": 96,
            "midi": 0,
            "name": "C-1",
            "ticks": 23232,
            "time": 20.7428485,
            "velocity": 0.1732283464566929
          },
          {
            "duration": 0.08571424999999877,
            "durationTicks": 96,
            "midi": 0,
            "name": "C-1",
            "ticks": 23232,
            "time": 20.7428485,
            "velocity": 0.1732283464566929
          },
          {
            "duration": 0.08571425000000232,
            "durationTicks": 96,
            "midi": 0,
            "name": "C-1",
            "ticks": 23328,
            "time": 20.82856275,
            "velocity": 0.1732283464566929
          },
          {
            "duration": 0.08571424999999877,
            "durationTicks": 96,
            "midi": 0,
            "name": "C-1",
            "ticks": 23424,
            "time": 20.914277000000002,
            "velocity": 0.1732283464566929
          },
          {
            "duration": 0.08571424999999877,
            "durationTicks": 96,
            "midi": 0,
            "name": "C-1",
            "ticks": 23424,
            "time": 20.914277000000002,
            "velocity": 0.1732283464566929
          },
          {
            "duration": 0.08571424999999877,
            "durationTicks": 96,
            "midi": 0,
            "name": "C-1",
            "ticks": 23424,
            "time": 20.914277000000002,
            "velocity": 0.1732283464566929
          },
          {
            "duration": 0.08571425000000232,
            "durationTicks": 96,
            "midi": 0,
            "name": "C-1",
            "ticks": 23520,
            "time": 20.99999125,
            "velocity": 0.1732283464566929
          },
          {
            "duration": 0.08571424999999877,
            "durationTicks": 96,
            "midi": 0,
            "name": "C-1",
            "ticks": 23616,
            "time": 21.085705500000003,
            "velocity": 0.1732283464566929
          },
          {
            "duration": 0.08571424999999877,
            "durationTicks": 96,
            "midi": 0,
            "name": "C-1",
            "ticks": 23616,
            "time": 21.085705500000003,
            "velocity": 0.1732283464566929
          },
          {
            "duration": 0.08571424999999877,
            "durationTicks": 96,
            "midi": 0,
            "name": "C-1",
            "ticks": 23616,
            "time": 21.085705500000003,
            "velocity": 0.1732283464566929
          },
          {
            "duration": 0.08571424999999877,
            "durationTicks": 96,
            "midi": 0,
            "name": "C-1",
            "ticks": 23712,
            "time": 21.171419750000002,
            "velocity": 0.1732283464566929
          },
          {
            "duration": 0.08571425000000232,
            "durationTicks": 96,
            "midi": 0,
            "name": "C-1",
            "ticks": 23808,
            "time": 21.257134,
            "velocity": 0.1732283464566929
          },
          {
            "duration": 0.08571425000000232,
            "durationTicks": 96,
            "midi": 0,
            "name": "C-1",
            "ticks": 23808,
            "time": 21.257134,
            "velocity": 0.1732283464566929
          },
          {
            "duration": 0.08571425000000232,
            "durationTicks": 96,
            "midi": 0,
            "name": "C-1",
            "ticks": 23808,
            "time": 21.257134,
            "velocity": 0.1732283464566929
          },
          {
            "duration": 0.08571425000000232,
            "durationTicks": 96,
            "midi": 0,
            "name": "C-1",
            "ticks": 23808,
            "time": 21.257134,
            "velocity": 0.1732283464566929
          },
          {
            "duration": 0.08571425000000232,
            "durationTicks": 96,
            "midi": 0,
            "name": "C-1",
            "ticks": 23808,
            "time": 21.257134,
            "velocity": 0.1732283464566929
          },
          {
            "duration": 0.08571424999999877,
            "durationTicks": 96,
            "midi": 0,
            "name": "C-1",
            "ticks": 23904,
            "time": 21.342848250000003,
            "velocity": 0.1732283464566929
          },
          {
            "duration": 0.08571424999999877,
            "durationTicks": 96,
            "midi": 0,
            "name": "C-1",
            "ticks": 24000,
            "time": 21.4285625,
            "velocity": 0.1732283464566929
          },
          {
            "duration": 0.08571424999999877,
            "durationTicks": 96,
            "midi": 0,
            "name": "C-1",
            "ticks": 24000,
            "time": 21.4285625,
            "velocity": 0.1732283464566929
          },
          {
            "duration": 0.08571424999999877,
            "durationTicks": 96,
            "midi": 0,
            "name": "C-1",
            "ticks": 24000,
            "time": 21.4285625,
            "velocity": 0.1732283464566929
          },
          {
            "duration": 0.08571425000000232,
            "durationTicks": 96,
            "midi": 0,
            "name": "C-1",
            "ticks": 24096,
            "time": 21.51427675,
            "velocity": 0.1732283464566929
          },
          {
            "duration": 0.08571424999999877,
            "durationTicks": 96,
            "midi": 0,
            "name": "C-1",
            "ticks": 24192,
            "time": 21.599991000000003,
            "velocity": 0.1732283464566929
          },
          {
            "duration": 0.08571424999999877,
            "durationTicks": 96,
            "midi": 0,
            "name": "C-1",
            "ticks": 24192,
            "time": 21.599991000000003,
            "velocity": 0.1732283464566929
          },
          {
            "duration": 0.08571424999999877,
            "durationTicks": 96,
            "midi": 0,
            "name": "C-1",
            "ticks": 24192,
            "time": 21.599991000000003,
            "velocity": 0.1732283464566929
          },
          {
            "duration": 0.08571424999999877,
            "durationTicks": 96,
            "midi": 0,
            "name": "C-1",
            "ticks": 24192,
            "time": 21.599991000000003,
            "velocity": 0.1732283464566929
          },
          {
            "duration": 0.08571424999999877,
            "durationTicks": 96,
            "midi": 0,
            "name": "C-1",
            "ticks": 24192,
            "time": 21.599991000000003,
            "velocity": 0.1732283464566929
          },
          {
            "duration": 0.08571424999999877,
            "durationTicks": 96,
            "midi": 0,
            "name": "C-1",
            "ticks": 24288,
            "time": 21.68570525,
            "velocity": 0.1732283464566929
          },
          {
            "duration": 0.08571425000000232,
            "durationTicks": 96,
            "midi": 0,
            "name": "C-1",
            "ticks": 24384,
            "time": 21.7714195,
            "velocity": 0.1732283464566929
          },
          {
            "duration": 0.08571425000000232,
            "durationTicks": 96,
            "midi": 0,
            "name": "C-1",
            "ticks": 24384,
            "time": 21.7714195,
            "velocity": 0.1732283464566929
          },
          {
            "duration": 0.08571425000000232,
            "durationTicks": 96,
            "midi": 0,
            "name": "C-1",
            "ticks": 24384,
            "time": 21.7714195,
            "velocity": 0.1732283464566929
          },
          {
            "duration": 0.08571425000000232,
            "durationTicks": 96,
            "midi": 0,
            "name": "C-1",
            "ticks": 24384,
            "time": 21.7714195,
            "velocity": 0.1732283464566929
          },
          {
            "duration": 0.08571425000000232,
            "durationTicks": 96,
            "midi": 0,
            "name": "C-1",
            "ticks": 24384,
            "time": 21.7714195,
            "velocity": 0.1732283464566929
          },
          {
            "duration": 0.08571424999999877,
            "durationTicks": 96,
            "midi": 0,
            "name": "C-1",
            "ticks": 24480,
            "time": 21.857133750000003,
            "velocity": 0.1732283464566929
          },
          {
            "duration": 0.08571424999999877,
            "durationTicks": 96,
            "midi": 0,
            "name": "C-1",
            "ticks": 24576,
            "time": 21.942848,
            "velocity": 0.1732283464566929
          },
          {
            "duration": 0.08571424999999877,
            "durationTicks": 96,
            "midi": 0,
            "name": "C-1",
            "ticks": 24576,
            "time": 21.942848,
            "velocity": 0.1732283464566929
          },
          {
            "duration": 0.08571424999999877,
            "durationTicks": 96,
            "midi": 0,
            "name": "C-1",
            "ticks": 24576,
            "time": 21.942848,
            "velocity": 0.1732283464566929
          },
          {
            "duration": 0.08571424999999877,
            "durationTicks": 96,
            "midi": 0,
            "name": "C-1",
            "ticks": 24576,
            "time": 21.942848,
            "velocity": 0.1732283464566929
          },
          {
            "duration": 0.08571424999999877,
            "durationTicks": 96,
            "midi": 0,
            "name": "C-1",
            "ticks": 24576,
            "time": 21.942848,
            "velocity": 0.1732283464566929
          },
          {
            "duration": 0.08571425000000232,
            "durationTicks": 96,
            "midi": 0,
            "name": "C-1",
            "ticks": 24672,
            "time": 22.02856225,
            "velocity": 0.1732283464566929
          },
          {
            "duration": 0.08571424999999877,
            "durationTicks": 96,
            "midi": 0,
            "name": "C-1",
            "ticks": 24768,
            "time": 22.114276500000003,
            "velocity": 0.1732283464566929
          },
          {
            "duration": 0.08571424999999877,
            "durationTicks": 96,
            "midi": 0,
            "name": "C-1",
            "ticks": 24768,
            "time": 22.114276500000003,
            "velocity": 0.1732283464566929
          },
          {
            "duration": 0.08571424999999877,
            "durationTicks": 96,
            "midi": 0,
            "name": "C-1",
            "ticks": 24768,
            "time": 22.114276500000003,
            "velocity": 0.1732283464566929
          },
          {
            "duration": 0.08571424999999877,
            "durationTicks": 96,
            "midi": 0,
            "name": "C-1",
            "ticks": 24864,
            "time": 22.19999075,
            "velocity": 0.1732283464566929
          },
          {
            "duration": 0.08571425000000232,
            "durationTicks": 96,
            "midi": 0,
            "name": "C-1",
            "ticks": 24960,
            "time": 22.285705,
            "velocity": 0.1732283464566929
          },
          {
            "duration": 0.08571425000000232,
            "durationTicks": 96,
            "midi": 0,
            "name": "C-1",
            "ticks": 24960,
            "time": 22.285705,
            "velocity": 0.1732283464566929
          },
          {
            "duration": 0.08571425000000232,
            "durationTicks": 96,
            "midi": 0,
            "name": "C-1",
            "ticks": 24960,
            "time": 22.285705,
            "velocity": 0.1732283464566929
          },
          {
            "duration": 0.08571424999999877,
            "durationTicks": 96,
            "midi": 0,
            "name": "C-1",
            "ticks": 25056,
            "time": 22.371419250000002,
            "velocity": 0.1732283464566929
          },
          {
            "duration": 0.08571424999999877,
            "durationTicks": 96,
            "midi": 0,
            "name": "C-1",
            "ticks": 25152,
            "time": 22.4571335,
            "velocity": 0.1732283464566929
          },
          {
            "duration": 0.08571424999999877,
            "durationTicks": 96,
            "midi": 0,
            "name": "C-1",
            "ticks": 25152,
            "time": 22.4571335,
            "velocity": 0.1732283464566929
          },
          {
            "duration": 0.08571424999999877,
            "durationTicks": 96,
            "midi": 0,
            "name": "C-1",
            "ticks": 25152,
            "time": 22.4571335,
            "velocity": 0.1732283464566929
          },
          {
            "duration": 0.08571425000000232,
            "durationTicks": 96,
            "midi": 0,
            "name": "C-1",
            "ticks": 25248,
            "time": 22.54284775,
            "velocity": 0.1732283464566929
          },
          {
            "duration": 0.08571424999999877,
            "durationTicks": 96,
            "midi": 0,
            "name": "C-1",
            "ticks": 25344,
            "time": 22.628562000000002,
            "velocity": 0.1732283464566929
          },
          {
            "duration": 0.08571424999999877,
            "durationTicks": 96,
            "midi": 0,
            "name": "C-1",
            "ticks": 25440,
            "time": 22.71427625,
            "velocity": 0.1732283464566929
          },
          {
            "duration": 0.08571425000000232,
            "durationTicks": 96,
            "midi": 0,
            "name": "C-1",
            "ticks": 25536,
            "time": 22.7999905,
            "velocity": 0.1732283464566929
          },
          {
            "duration": 0.08571425000000232,
            "durationTicks": 96,
            "midi": 0,
            "name": "C-1",
            "ticks": 25536,
            "time": 22.7999905,
            "velocity": 0.1732283464566929
          },
          {
            "duration": 0.08571425000000232,
            "durationTicks": 96,
            "midi": 0,
            "name": "C-1",
            "ticks": 25536,
            "time": 22.7999905,
            "velocity": 0.1732283464566929
          },
          {
            "duration": 0.08571424999999877,
            "durationTicks": 96,
            "midi": 0,
            "name": "C-1",
            "ticks": 25632,
            "time": 22.885704750000002,
            "velocity": 0.1732283464566929
          },
          {
            "duration": 0.08571425000000232,
            "durationTicks": 96,
            "midi": 0,
            "name": "C-1",
            "ticks": 25728,
            "time": 22.971419,
            "velocity": 0.1732283464566929
          },
          {
            "duration": 0.08571425000000232,
            "durationTicks": 96,
            "midi": 0,
            "name": "C-1",
            "ticks": 25728,
            "time": 22.971419,
            "velocity": 0.1732283464566929
          },
          {
            "duration": 0.08571425000000232,
            "durationTicks": 96,
            "midi": 0,
            "name": "C-1",
            "ticks": 25728,
            "time": 22.971419,
            "velocity": 0.1732283464566929
          },
          {
            "duration": 0.08571424999999877,
            "durationTicks": 96,
            "midi": 0,
            "name": "C-1",
            "ticks": 25824,
            "time": 23.057133250000003,
            "velocity": 0.1732283464566929
          },
          {
            "duration": 0.08571424999999877,
            "durationTicks": 96,
            "midi": 0,
            "name": "C-1",
            "ticks": 25920,
            "time": 23.142847500000002,
            "velocity": 0.1732283464566929
          },
          {
            "duration": 0.08571424999999877,
            "durationTicks": 96,
            "midi": 0,
            "name": "C-1",
            "ticks": 25920,
            "time": 23.142847500000002,
            "velocity": 0.1732283464566929
          },
          {
            "duration": 0.08571424999999877,
            "durationTicks": 96,
            "midi": 0,
            "name": "C-1",
            "ticks": 25920,
            "time": 23.142847500000002,
            "velocity": 0.1732283464566929
          },
          {
            "duration": 0.08571425000000232,
            "durationTicks": 96,
            "midi": 0,
            "name": "C-1",
            "ticks": 26016,
            "time": 23.22856175,
            "velocity": 0.1732283464566929
          },
          {
            "duration": 0.08571424999999877,
            "durationTicks": 96,
            "midi": 0,
            "name": "C-1",
            "ticks": 26112,
            "time": 23.314276000000003,
            "velocity": 0.1732283464566929
          },
          {
            "duration": 0.08571424999999877,
            "durationTicks": 96,
            "midi": 0,
            "name": "C-1",
            "ticks": 26112,
            "time": 23.314276000000003,
            "velocity": 0.1732283464566929
          },
          {
            "duration": 0.08571424999999877,
            "durationTicks": 96,
            "midi": 0,
            "name": "C-1",
            "ticks": 26112,
            "time": 23.314276000000003,
            "velocity": 0.1732283464566929
          },
          {
            "duration": 0.08571424999999877,
            "durationTicks": 96,
            "midi": 0,
            "name": "C-1",
            "ticks": 26208,
            "time": 23.399990250000002,
            "velocity": 0.1732283464566929
          },
          {
            "duration": 0.08571425000000232,
            "durationTicks": 96,
            "midi": 0,
            "name": "C-1",
            "ticks": 26304,
            "time": 23.4857045,
            "velocity": 0.1732283464566929
          },
          {
            "duration": 0.08571425000000232,
            "durationTicks": 96,
            "midi": 0,
            "name": "C-1",
            "ticks": 26304,
            "time": 23.4857045,
            "velocity": 0.1732283464566929
          },
          {
            "duration": 0.08571425000000232,
            "durationTicks": 96,
            "midi": 0,
            "name": "C-1",
            "ticks": 26304,
            "time": 23.4857045,
            "velocity": 0.1732283464566929
          },
          {
            "duration": 0.08571424999999877,
            "durationTicks": 96,
            "midi": 0,
            "name": "C-1",
            "ticks": 26400,
            "time": 23.571418750000003,
            "velocity": 0.1732283464566929
          },
          {
            "duration": 0.08571424999999877,
            "durationTicks": 96,
            "midi": 0,
            "name": "C-1",
            "ticks": 26496,
            "time": 23.657133,
            "velocity": 0.1732283464566929
          },
          {
            "duration": 0.08571424999999877,
            "durationTicks": 96,
            "midi": 0,
            "name": "C-1",
            "ticks": 26496,
            "time": 23.657133,
            "velocity": 0.1732283464566929
          },
          {
            "duration": 0.08571424999999877,
            "durationTicks": 96,
            "midi": 0,
            "name": "C-1",
            "ticks": 26496,
            "time": 23.657133,
            "velocity": 0.1732283464566929
          },
          {
            "duration": 0.08571425000000232,
            "durationTicks": 96,
            "midi": 0,
            "name": "C-1",
            "ticks": 26592,
            "time": 23.74284725,
            "velocity": 0.1732283464566929
          },
          {
            "duration": 0.08571424999999877,
            "durationTicks": 96,
            "midi": 0,
            "name": "C-1",
            "ticks": 26688,
            "time": 23.828561500000003,
            "velocity": 0.1732283464566929
          },
          {
            "duration": 0.08571424999999877,
            "durationTicks": 96,
            "midi": 0,
            "name": "C-1",
            "ticks": 26688,
            "time": 23.828561500000003,
            "velocity": 0.1732283464566929
          },
          {
            "duration": 0.08571424999999877,
            "durationTicks": 96,
            "midi": 0,
            "name": "C-1",
            "ticks": 26688,
            "time": 23.828561500000003,
            "velocity": 0.1732283464566929
          },
          {
            "duration": 0.08571424999999877,
            "durationTicks": 96,
            "midi": 0,
            "name": "C-1",
            "ticks": 26784,
            "time": 23.91427575,
            "velocity": 0.1732283464566929
          },
          {
            "duration": 0.08571425000000232,
            "durationTicks": 96,
            "midi": 0,
            "name": "C-1",
            "ticks": 26880,
            "time": 23.99999,
            "velocity": 0.1732283464566929
          },
          {
            "duration": 0.08571424999999877,
            "durationTicks": 96,
            "midi": 0,
            "name": "C-1",
            "ticks": 26976,
            "time": 24.085704250000003,
            "velocity": 0.1732283464566929
          },
          {
            "duration": 0.08571424999999877,
            "durationTicks": 96,
            "midi": 0,
            "name": "C-1",
            "ticks": 27072,
            "time": 24.1714185,
            "velocity": 0.1732283464566929
          },
          {
            "duration": 0.08571424999999877,
            "durationTicks": 96,
            "midi": 0,
            "name": "C-1",
            "ticks": 27072,
            "time": 24.1714185,
            "velocity": 0.1732283464566929
          },
          {
            "duration": 0.08571424999999877,
            "durationTicks": 96,
            "midi": 0,
            "name": "C-1",
            "ticks": 27072,
            "time": 24.1714185,
            "velocity": 0.1732283464566929
          },
          {
            "duration": 0.08571425000000232,
            "durationTicks": 96,
            "midi": 0,
            "name": "C-1",
            "ticks": 27168,
            "time": 24.25713275,
            "velocity": 0.1732283464566929
          },
          {
            "duration": 0.08571424999999877,
            "durationTicks": 96,
            "midi": 0,
            "name": "C-1",
            "ticks": 27264,
            "time": 24.342847000000003,
            "velocity": 0.1732283464566929
          },
          {
            "duration": 0.08571424999999877,
            "durationTicks": 96,
            "midi": 0,
            "name": "C-1",
            "ticks": 27264,
            "time": 24.342847000000003,
            "velocity": 0.1732283464566929
          },
          {
            "duration": 0.08571424999999877,
            "durationTicks": 96,
            "midi": 0,
            "name": "C-1",
            "ticks": 27264,
            "time": 24.342847000000003,
            "velocity": 0.1732283464566929
          },
          {
            "duration": 0.08571424999999877,
            "durationTicks": 96,
            "midi": 0,
            "name": "C-1",
            "ticks": 27360,
            "time": 24.42856125,
            "velocity": 0.1732283464566929
          },
          {
            "duration": 0.08571425000000232,
            "durationTicks": 96,
            "midi": 0,
            "name": "C-1",
            "ticks": 27456,
            "time": 24.5142755,
            "velocity": 0.1732283464566929
          },
          {
            "duration": 0.08571425000000232,
            "durationTicks": 96,
            "midi": 0,
            "name": "C-1",
            "ticks": 27456,
            "time": 24.5142755,
            "velocity": 0.1732283464566929
          },
          {
            "duration": 0.08571425000000232,
            "durationTicks": 96,
            "midi": 0,
            "name": "C-1",
            "ticks": 27456,
            "time": 24.5142755,
            "velocity": 0.1732283464566929
          },
          {
            "duration": 0.08571424999999877,
            "durationTicks": 96,
            "midi": 0,
            "name": "C-1",
            "ticks": 27552,
            "time": 24.599989750000002,
            "velocity": 0.1732283464566929
          },
          {
            "duration": 0.08571424999999877,
            "durationTicks": 96,
            "midi": 0,
            "name": "C-1",
            "ticks": 27648,
            "time": 24.685704,
            "velocity": 0.1732283464566929
          },
          {
            "duration": 0.08571424999999877,
            "durationTicks": 96,
            "midi": 0,
            "name": "C-1",
            "ticks": 27648,
            "time": 24.685704,
            "velocity": 0.1732283464566929
          },
          {
            "duration": 0.08571424999999877,
            "durationTicks": 96,
            "midi": 0,
            "name": "C-1",
            "ticks": 27648,
            "time": 24.685704,
            "velocity": 0.1732283464566929
          },
          {
            "duration": 0.08571424999999877,
            "durationTicks": 96,
            "midi": 0,
            "name": "C-1",
            "ticks": 27648,
            "time": 24.685704,
            "velocity": 0.1732283464566929
          },
          {
            "duration": 0.08571424999999877,
            "durationTicks": 96,
            "midi": 0,
            "name": "C-1",
            "ticks": 27648,
            "time": 24.685704,
            "velocity": 0.1732283464566929
          },
          {
            "duration": 0.08571425000000232,
            "durationTicks": 96,
            "midi": 0,
            "name": "C-1",
            "ticks": 27744,
            "time": 24.77141825,
            "velocity": 0.1732283464566929
          },
          {
            "duration": 0.08571424999999877,
            "durationTicks": 96,
            "midi": 0,
            "name": "C-1",
            "ticks": 27840,
            "time": 24.857132500000002,
            "velocity": 0.1732283464566929
          },
          {
            "duration": 0.08571424999999877,
            "durationTicks": 96,
            "midi": 0,
            "name": "C-1",
            "ticks": 27840,
            "time": 24.857132500000002,
            "velocity": 0.1732283464566929
          },
          {
            "duration": 0.08571424999999877,
            "durationTicks": 96,
            "midi": 0,
            "name": "C-1",
            "ticks": 27840,
            "time": 24.857132500000002,
            "velocity": 0.1732283464566929
          },
          {
            "duration": 0.08571425000000232,
            "durationTicks": 96,
            "midi": 0,
            "name": "C-1",
            "ticks": 27936,
            "time": 24.94284675,
            "velocity": 0.1732283464566929
          },
          {
            "duration": 0.08571424999999877,
            "durationTicks": 96,
            "midi": 0,
            "name": "C-1",
            "ticks": 28032,
            "time": 25.028561000000003,
            "velocity": 0.1732283464566929
          },
          {
            "duration": 0.08571424999999877,
            "durationTicks": 96,
            "midi": 0,
            "name": "C-1",
            "ticks": 28032,
            "time": 25.028561000000003,
            "velocity": 0.1732283464566929
          },
          {
            "duration": 0.08571424999999877,
            "durationTicks": 96,
            "midi": 0,
            "name": "C-1",
            "ticks": 28032,
            "time": 25.028561000000003,
            "velocity": 0.1732283464566929
          },
          {
            "duration": 0.08571424999999877,
            "durationTicks": 96,
            "midi": 0,
            "name": "C-1",
            "ticks": 28128,
            "time": 25.114275250000002,
            "velocity": 0.1732283464566929
          },
          {
            "duration": 0.08571425000000232,
            "durationTicks": 96,
            "midi": 0,
            "name": "C-1",
            "ticks": 28224,
            "time": 25.1999895,
            "velocity": 0.1732283464566929
          },
          {
            "duration": 0.08571425000000232,
            "durationTicks": 96,
            "midi": 0,
            "name": "C-1",
            "ticks": 28224,
            "time": 25.1999895,
            "velocity": 0.1732283464566929
          },
          {
            "duration": 0.08571425000000232,
            "durationTicks": 96,
            "midi": 0,
            "name": "C-1",
            "ticks": 28224,
            "time": 25.1999895,
            "velocity": 0.1732283464566929
          },
          {
            "duration": 0.08571424999999877,
            "durationTicks": 96,
            "midi": 0,
            "name": "C-1",
            "ticks": 28320,
            "time": 25.285703750000003,
            "velocity": 0.1732283464566929
          },
          {
            "duration": 0.08571424999999877,
            "durationTicks": 96,
            "midi": 0,
            "name": "C-1",
            "ticks": 28416,
            "time": 25.371418000000002,
            "velocity": 0.1732283464566929
          },
          {
            "duration": 0.08571425000000232,
            "durationTicks": 96,
            "midi": 0,
            "name": "C-1",
            "ticks": 28512,
            "time": 25.45713225,
            "velocity": 0.1732283464566929
          },
          {
            "duration": 0.08571424999999877,
            "durationTicks": 96,
            "midi": 0,
            "name": "C-1",
            "ticks": 28608,
            "time": 25.542846500000003,
            "velocity": 0.1732283464566929
          },
          {
            "duration": 0.08571424999999877,
            "durationTicks": 96,
            "midi": 0,
            "name": "C-1",
            "ticks": 28608,
            "time": 25.542846500000003,
            "velocity": 0.1732283464566929
          },
          {
            "duration": 0.08571424999999877,
            "durationTicks": 96,
            "midi": 0,
            "name": "C-1",
            "ticks": 28608,
            "time": 25.542846500000003,
            "velocity": 0.1732283464566929
          },
          {
            "duration": 0.08571424999999877,
            "durationTicks": 96,
            "midi": 0,
            "name": "C-1",
            "ticks": 28704,
            "time": 25.628560750000002,
            "velocity": 0.1732283464566929
          },
          {
            "duration": 0.08571425000000232,
            "durationTicks": 96,
            "midi": 0,
            "name": "C-1",
            "ticks": 28800,
            "time": 25.714275,
            "velocity": 0.1732283464566929
          },
          {
            "duration": 0.08571425000000232,
            "durationTicks": 96,
            "midi": 0,
            "name": "C-1",
            "ticks": 28800,
            "time": 25.714275,
            "velocity": 0.1732283464566929
          },
          {
            "duration": 0.08571425000000232,
            "durationTicks": 96,
            "midi": 0,
            "name": "C-1",
            "ticks": 28800,
            "time": 25.714275,
            "velocity": 0.1732283464566929
          },
          {
            "duration": 0.08571424999999877,
            "durationTicks": 96,
            "midi": 0,
            "name": "C-1",
            "ticks": 28896,
            "time": 25.799989250000003,
            "velocity": 0.1732283464566929
          },
          {
            "duration": 0.08571424999999877,
            "durationTicks": 96,
            "midi": 0,
            "name": "C-1",
            "ticks": 28992,
            "time": 25.8857035,
            "velocity": 0.1732283464566929
          },
          {
            "duration": 0.08571424999999877,
            "durationTicks": 96,
            "midi": 0,
            "name": "C-1",
            "ticks": 28992,
            "time": 25.8857035,
            "velocity": 0.1732283464566929
          },
          {
            "duration": 0.08571424999999877,
            "durationTicks": 96,
            "midi": 0,
            "name": "C-1",
            "ticks": 28992,
            "time": 25.8857035,
            "velocity": 0.1732283464566929
          },
          {
            "duration": 0.08571425000000232,
            "durationTicks": 96,
            "midi": 0,
            "name": "C-1",
            "ticks": 29088,
            "time": 25.97141775,
            "velocity": 0.1732283464566929
          },
          {
            "duration": 0.08571424999999877,
            "durationTicks": 96,
            "midi": 0,
            "name": "C-1",
            "ticks": 29184,
            "time": 26.057132000000003,
            "velocity": 0.1732283464566929
          },
          {
            "duration": 0.08571424999999877,
            "durationTicks": 96,
            "midi": 0,
            "name": "C-1",
            "ticks": 29184,
            "time": 26.057132000000003,
            "velocity": 0.1732283464566929
          },
          {
            "duration": 0.08571424999999877,
            "durationTicks": 96,
            "midi": 0,
            "name": "C-1",
            "ticks": 29184,
            "time": 26.057132000000003,
            "velocity": 0.1732283464566929
          },
          {
            "duration": 0.08571424999999877,
            "durationTicks": 96,
            "midi": 0,
            "name": "C-1",
            "ticks": 29184,
            "time": 26.057132000000003,
            "velocity": 0.1732283464566929
          },
          {
            "duration": 0.08571424999999877,
            "durationTicks": 96,
            "midi": 0,
            "name": "C-1",
            "ticks": 29184,
            "time": 26.057132000000003,
            "velocity": 0.1732283464566929
          },
          {
            "duration": 0.08571424999999877,
            "durationTicks": 96,
            "midi": 0,
            "name": "C-1",
            "ticks": 29280,
            "time": 26.14284625,
            "velocity": 0.1732283464566929
          },
          {
            "duration": 0.08571425000000232,
            "durationTicks": 96,
            "midi": 0,
            "name": "C-1",
            "ticks": 29376,
            "time": 26.2285605,
            "velocity": 0.1732283464566929
          },
          {
            "duration": 0.08571425000000232,
            "durationTicks": 96,
            "midi": 0,
            "name": "C-1",
            "ticks": 29376,
            "time": 26.2285605,
            "velocity": 0.1732283464566929
          },
          {
            "duration": 0.08571425000000232,
            "durationTicks": 96,
            "midi": 0,
            "name": "C-1",
            "ticks": 29376,
            "time": 26.2285605,
            "velocity": 0.1732283464566929
          },
          {
            "duration": 0.08571424999999877,
            "durationTicks": 96,
            "midi": 0,
            "name": "C-1",
            "ticks": 29472,
            "time": 26.314274750000003,
            "velocity": 0.1732283464566929
          },
          {
            "duration": 0.08571424999999877,
            "durationTicks": 96,
            "midi": 0,
            "name": "C-1",
            "ticks": 29568,
            "time": 26.399989,
            "velocity": 0.1732283464566929
          },
          {
            "duration": 0.08571424999999877,
            "durationTicks": 96,
            "midi": 0,
            "name": "C-1",
            "ticks": 29568,
            "time": 26.399989,
            "velocity": 0.1732283464566929
          },
          {
            "duration": 0.08571424999999877,
            "durationTicks": 96,
            "midi": 0,
            "name": "C-1",
            "ticks": 29568,
            "time": 26.399989,
            "velocity": 0.1732283464566929
          },
          {
            "duration": 0.08571425000000232,
            "durationTicks": 96,
            "midi": 0,
            "name": "C-1",
            "ticks": 29664,
            "time": 26.48570325,
            "velocity": 0.1732283464566929
          },
          {
            "duration": 0.08571424999999877,
            "durationTicks": 96,
            "midi": 0,
            "name": "C-1",
            "ticks": 29760,
            "time": 26.571417500000003,
            "velocity": 0.1732283464566929
          },
          {
            "duration": 0.08571424999999877,
            "durationTicks": 96,
            "midi": 0,
            "name": "C-1",
            "ticks": 29760,
            "time": 26.571417500000003,
            "velocity": 0.1732283464566929
          },
          {
            "duration": 0.08571424999999877,
            "durationTicks": 96,
            "midi": 0,
            "name": "C-1",
            "ticks": 29760,
            "time": 26.571417500000003,
            "velocity": 0.1732283464566929
          },
          {
            "duration": 0.08571424999999877,
            "durationTicks": 96,
            "midi": 0,
            "name": "C-1",
            "ticks": 29856,
            "time": 26.65713175,
            "velocity": 0.1732283464566929
          },
          {
            "duration": 0.08571425000000232,
            "durationTicks": 96,
            "midi": 0,
            "name": "C-1",
            "ticks": 29952,
            "time": 26.742846,
            "velocity": 0.1732283464566929
          },
          {
            "duration": 0.08571425000000232,
            "durationTicks": 96,
            "midi": 0,
            "name": "C-1",
            "ticks": 29952,
            "time": 26.742846,
            "velocity": 0.1732283464566929
          },
          {
            "duration": 0.08571425000000232,
            "durationTicks": 96,
            "midi": 0,
            "name": "C-1",
            "ticks": 29952,
            "time": 26.742846,
            "velocity": 0.1732283464566929
          },
          {
            "duration": 0.08571425000000232,
            "durationTicks": 96,
            "midi": 0,
            "name": "C-1",
            "ticks": 29952,
            "time": 26.742846,
            "velocity": 0.1732283464566929
          },
          {
            "duration": 0.08571425000000232,
            "durationTicks": 96,
            "midi": 0,
            "name": "C-1",
            "ticks": 29952,
            "time": 26.742846,
            "velocity": 0.1732283464566929
          },
          {
            "duration": 0.08571424999999877,
            "durationTicks": 96,
            "midi": 0,
            "name": "C-1",
            "ticks": 30048,
            "time": 26.828560250000002,
            "velocity": 0.1732283464566929
          },
          {
            "duration": 0.08571425000000232,
            "durationTicks": 96,
            "midi": 0,
            "name": "C-1",
            "ticks": 30144,
            "time": 26.9142745,
            "velocity": 0.1732283464566929
          },
          {
            "duration": 0.08571425000000232,
            "durationTicks": 96,
            "midi": 0,
            "name": "C-1",
            "ticks": 30144,
            "time": 26.9142745,
            "velocity": 0.1732283464566929
          },
          {
            "duration": 0.08571425000000232,
            "durationTicks": 96,
            "midi": 0,
            "name": "C-1",
            "ticks": 30144,
            "time": 26.9142745,
            "velocity": 0.1732283464566929
          },
          {
            "duration": 0.08571424999999877,
            "durationTicks": 96,
            "midi": 0,
            "name": "C-1",
            "ticks": 30240,
            "time": 26.999988750000004,
            "velocity": 0.1732283464566929
          },
          {
            "duration": 0.08571424999999877,
            "durationTicks": 96,
            "midi": 0,
            "name": "C-1",
            "ticks": 30336,
            "time": 27.085703000000002,
            "velocity": 0.1732283464566929
          },
          {
            "duration": 0.08571424999999877,
            "durationTicks": 96,
            "midi": 0,
            "name": "C-1",
            "ticks": 30336,
            "time": 27.085703000000002,
            "velocity": 0.1732283464566929
          },
          {
            "duration": 0.08571424999999877,
            "durationTicks": 96,
            "midi": 0,
            "name": "C-1",
            "ticks": 30336,
            "time": 27.085703000000002,
            "velocity": 0.1732283464566929
          },
          {
            "duration": 0.08571425000000232,
            "durationTicks": 96,
            "midi": 0,
            "name": "C-1",
            "ticks": 30432,
            "time": 27.17141725,
            "velocity": 0.1732283464566929
          },
          {
            "duration": 0.08571424999999877,
            "durationTicks": 96,
            "midi": 0,
            "name": "C-1",
            "ticks": 30528,
            "time": 27.257131500000003,
            "velocity": 0.1732283464566929
          },
          {
            "duration": 0.08571424999999877,
            "durationTicks": 96,
            "midi": 0,
            "name": "C-1",
            "ticks": 30528,
            "time": 27.257131500000003,
            "velocity": 0.1732283464566929
          },
          {
            "duration": 0.08571424999999877,
            "durationTicks": 96,
            "midi": 0,
            "name": "C-1",
            "ticks": 30528,
            "time": 27.257131500000003,
            "velocity": 0.1732283464566929
          },
          {
            "duration": 0.08571424999999877,
            "durationTicks": 96,
            "midi": 0,
            "name": "C-1",
            "ticks": 30624,
            "time": 27.342845750000002,
            "velocity": 0.1732283464566929
          },
          {
            "duration": 0.08571425000000232,
            "durationTicks": 96,
            "midi": 0,
            "name": "C-1",
            "ticks": 30720,
            "time": 27.42856,
            "velocity": 0.1732283464566929
          },
          {
            "duration": 0.08571425000000232,
            "durationTicks": 96,
            "midi": 0,
            "name": "C-1",
            "ticks": 30720,
            "time": 27.42856,
            "velocity": 0.1732283464566929
          },
          {
            "duration": 0.08571425000000232,
            "durationTicks": 96,
            "midi": 0,
            "name": "C-1",
            "ticks": 30720,
            "time": 27.42856,
            "velocity": 0.1732283464566929
          },
          {
            "duration": 0.08571425000000232,
            "durationTicks": 96,
            "midi": 0,
            "name": "C-1",
            "ticks": 30720,
            "time": 27.42856,
            "velocity": 0.1732283464566929
          },
          {
            "duration": 0.08571425000000232,
            "durationTicks": 96,
            "midi": 0,
            "name": "C-1",
            "ticks": 30720,
            "time": 27.42856,
            "velocity": 0.1732283464566929
          },
          {
            "duration": 0.08571424999999877,
            "durationTicks": 96,
            "midi": 0,
            "name": "C-1",
            "ticks": 30816,
            "time": 27.514274250000003,
            "velocity": 0.1732283464566929
          },
          {
            "duration": 0.08571424999999877,
            "durationTicks": 96,
            "midi": 0,
            "name": "C-1",
            "ticks": 30912,
            "time": 27.599988500000002,
            "velocity": 0.1732283464566929
          },
          {
            "duration": 0.08571424999999877,
            "durationTicks": 96,
            "midi": 0,
            "name": "C-1",
            "ticks": 30912,
            "time": 27.599988500000002,
            "velocity": 0.1732283464566929
          },
          {
            "duration": 0.08571424999999877,
            "durationTicks": 96,
            "midi": 0,
            "name": "C-1",
            "ticks": 30912,
            "time": 27.599988500000002,
            "velocity": 0.1732283464566929
          },
          {
            "duration": 0.08571425000000232,
            "durationTicks": 96,
            "midi": 0,
            "name": "C-1",
            "ticks": 31008,
            "time": 27.68570275,
            "velocity": 0.1732283464566929
          },
          {
            "duration": 0.08571424999999877,
            "durationTicks": 96,
            "midi": 0,
            "name": "C-1",
            "ticks": 31104,
            "time": 27.771417000000003,
            "velocity": 0.1732283464566929
          },
          {
            "duration": 0.08571424999999877,
            "durationTicks": 96,
            "midi": 0,
            "name": "C-1",
            "ticks": 31104,
            "time": 27.771417000000003,
            "velocity": 0.1732283464566929
          },
          {
            "duration": 0.08571424999999877,
            "durationTicks": 96,
            "midi": 0,
            "name": "C-1",
            "ticks": 31104,
            "time": 27.771417000000003,
            "velocity": 0.1732283464566929
          },
          {
            "duration": 0.08571424999999877,
            "durationTicks": 96,
            "midi": 0,
            "name": "C-1",
            "ticks": 31200,
            "time": 27.857131250000002,
            "velocity": 0.1732283464566929
          },
          {
            "duration": 0.08571425000000232,
            "durationTicks": 96,
            "midi": 0,
            "name": "C-1",
            "ticks": 31296,
            "time": 27.9428455,
            "velocity": 0.1732283464566929
          },
          {
            "duration": 0.08571425000000232,
            "durationTicks": 96,
            "midi": 0,
            "name": "C-1",
            "ticks": 31296,
            "time": 27.9428455,
            "velocity": 0.1732283464566929
          },
          {
            "duration": 0.08571425000000232,
            "durationTicks": 96,
            "midi": 0,
            "name": "C-1",
            "ticks": 31296,
            "time": 27.9428455,
            "velocity": 0.1732283464566929
          },
          {
            "duration": 0.08571424999999877,
            "durationTicks": 96,
            "midi": 0,
            "name": "C-1",
            "ticks": 31392,
            "time": 28.028559750000003,
            "velocity": 0.1732283464566929
          },
          {
            "duration": 0.08571424999999877,
            "durationTicks": 96,
            "midi": 0,
            "name": "C-1",
            "ticks": 31488,
            "time": 28.114274,
            "velocity": 0.1732283464566929
          },
          {
            "duration": 0.08571425000000232,
            "durationTicks": 96,
            "midi": 0,
            "name": "C-1",
            "ticks": 31584,
            "time": 28.19998825,
            "velocity": 0.1732283464566929
          },
          {
            "duration": 0.08571424999999877,
            "durationTicks": 96,
            "midi": 0,
            "name": "C-1",
            "ticks": 31680,
            "time": 28.285702500000003,
            "velocity": 0.1732283464566929
          },
          {
            "duration": 0.08571424999999877,
            "durationTicks": 96,
            "midi": 0,
            "name": "C-1",
            "ticks": 31680,
            "time": 28.285702500000003,
            "velocity": 0.1732283464566929
          },
          {
            "duration": 0.08571424999999877,
            "durationTicks": 96,
            "midi": 0,
            "name": "C-1",
            "ticks": 31680,
            "time": 28.285702500000003,
            "velocity": 0.1732283464566929
          },
          {
            "duration": 0.08571424999999877,
            "durationTicks": 96,
            "midi": 0,
            "name": "C-1",
            "ticks": 31776,
            "time": 28.37141675,
            "velocity": 0.1732283464566929
          },
          {
            "duration": 0.08571425000000232,
            "durationTicks": 96,
            "midi": 0,
            "name": "C-1",
            "ticks": 31872,
            "time": 28.457131,
            "velocity": 0.1732283464566929
          },
          {
            "duration": 0.08571425000000232,
            "durationTicks": 96,
            "midi": 0,
            "name": "C-1",
            "ticks": 31872,
            "time": 28.457131,
            "velocity": 0.1732283464566929
          },
          {
            "duration": 0.08571425000000232,
            "durationTicks": 96,
            "midi": 0,
            "name": "C-1",
            "ticks": 31872,
            "time": 28.457131,
            "velocity": 0.1732283464566929
          },
          {
            "duration": 0.08571424999999877,
            "durationTicks": 96,
            "midi": 0,
            "name": "C-1",
            "ticks": 31968,
            "time": 28.542845250000003,
            "velocity": 0.1732283464566929
          },
          {
            "duration": 0.08571424999999877,
            "durationTicks": 96,
            "midi": 0,
            "name": "C-1",
            "ticks": 32064,
            "time": 28.6285595,
            "velocity": 0.1732283464566929
          },
          {
            "duration": 0.08571424999999877,
            "durationTicks": 96,
            "midi": 0,
            "name": "C-1",
            "ticks": 32064,
            "time": 28.6285595,
            "velocity": 0.1732283464566929
          },
          {
            "duration": 0.08571424999999877,
            "durationTicks": 96,
            "midi": 0,
            "name": "C-1",
            "ticks": 32064,
            "time": 28.6285595,
            "velocity": 0.1732283464566929
          },
          {
            "duration": 0.08571425000000232,
            "durationTicks": 96,
            "midi": 0,
            "name": "C-1",
            "ticks": 32160,
            "time": 28.71427375,
            "velocity": 0.1732283464566929
          },
          {
            "duration": 0.08571424999999877,
            "durationTicks": 96,
            "midi": 0,
            "name": "C-1",
            "ticks": 32256,
            "time": 28.799988000000003,
            "velocity": 0.1732283464566929
          },
          {
            "duration": 0.08571424999999877,
            "durationTicks": 96,
            "midi": 0,
            "name": "C-1",
            "ticks": 32256,
            "time": 28.799988000000003,
            "velocity": 0.1732283464566929
          },
          {
            "duration": 0.08571424999999877,
            "durationTicks": 96,
            "midi": 0,
            "name": "C-1",
            "ticks": 32256,
            "time": 28.799988000000003,
            "velocity": 0.1732283464566929
          },
          {
            "duration": 0.08571425000000232,
            "durationTicks": 96,
            "midi": 0,
            "name": "C-1",
            "ticks": 32352,
            "time": 28.88570225,
            "velocity": 0.1732283464566929
          },
          {
            "duration": 0.08571424999999877,
            "durationTicks": 96,
            "midi": 0,
            "name": "C-1",
            "ticks": 32448,
            "time": 28.971416500000004,
            "velocity": 0.1732283464566929
          },
          {
            "duration": 0.08571424999999877,
            "durationTicks": 96,
            "midi": 0,
            "name": "C-1",
            "ticks": 32448,
            "time": 28.971416500000004,
            "velocity": 0.1732283464566929
          },
          {
            "duration": 0.08571424999999877,
            "durationTicks": 96,
            "midi": 0,
            "name": "C-1",
            "ticks": 32448,
            "time": 28.971416500000004,
            "velocity": 0.1732283464566929
          },
          {
            "duration": 0.08571424999999877,
            "durationTicks": 96,
            "midi": 0,
            "name": "C-1",
            "ticks": 32544,
            "time": 29.057130750000002,
            "velocity": 0.1732283464566929
          },
          {
            "duration": 0.08571425000000232,
            "durationTicks": 96,
            "midi": 0,
            "name": "C-1",
            "ticks": 32640,
            "time": 29.142845,
            "velocity": 0.1732283464566929
          },
          {
            "duration": 0.08571425000000232,
            "durationTicks": 96,
            "midi": 0,
            "name": "C-1",
            "ticks": 32640,
            "time": 29.142845,
            "velocity": 0.1732283464566929
          },
          {
            "duration": 0.08571425000000232,
            "durationTicks": 96,
            "midi": 0,
            "name": "C-1",
            "ticks": 32640,
            "time": 29.142845,
            "velocity": 0.1732283464566929
          },
          {
            "duration": 0.08571424999999877,
            "durationTicks": 96,
            "midi": 0,
            "name": "C-1",
            "ticks": 32736,
            "time": 29.228559250000004,
            "velocity": 0.1732283464566929
          },
          {
            "duration": 0.08571424999999877,
            "durationTicks": 96,
            "midi": 0,
            "name": "C-1",
            "ticks": 32832,
            "time": 29.314273500000002,
            "velocity": 0.1732283464566929
          },
          {
            "duration": 0.08571424999999877,
            "durationTicks": 96,
            "midi": 0,
            "name": "C-1",
            "ticks": 32832,
            "time": 29.314273500000002,
            "velocity": 0.1732283464566929
          },
          {
            "duration": 0.08571424999999877,
            "durationTicks": 96,
            "midi": 0,
            "name": "C-1",
            "ticks": 32832,
            "time": 29.314273500000002,
            "velocity": 0.1732283464566929
          },
          {
            "duration": 0.08571425000000232,
            "durationTicks": 96,
            "midi": 0,
            "name": "C-1",
            "ticks": 32928,
            "time": 29.39998775,
            "velocity": 0.1732283464566929
          },
          {
            "duration": 0.08571424999999877,
            "durationTicks": 96,
            "midi": 0,
            "name": "C-1",
            "ticks": 33024,
            "time": 29.485702000000003,
            "velocity": 0.1732283464566929
          },
          {
            "duration": 0.08571424999999877,
            "durationTicks": 96,
            "midi": 0,
            "name": "C-1",
            "ticks": 33120,
            "time": 29.571416250000002,
            "velocity": 0.1732283464566929
          },
          {
            "duration": 0.08571425000000232,
            "durationTicks": 96,
            "midi": 0,
            "name": "C-1",
            "ticks": 33216,
            "time": 29.6571305,
            "velocity": 0.1732283464566929
          },
          {
            "duration": 0.08571425000000232,
            "durationTicks": 96,
            "midi": 0,
            "name": "C-1",
            "ticks": 33216,
            "time": 29.6571305,
            "velocity": 0.1732283464566929
          },
          {
            "duration": 0.08571425000000232,
            "durationTicks": 96,
            "midi": 0,
            "name": "C-1",
            "ticks": 33216,
            "time": 29.6571305,
            "velocity": 0.1732283464566929
          },
          {
            "duration": 0.08571424999999877,
            "durationTicks": 96,
            "midi": 0,
            "name": "C-1",
            "ticks": 33312,
            "time": 29.742844750000003,
            "velocity": 0.1732283464566929
          },
          {
            "duration": 0.08571424999999877,
            "durationTicks": 96,
            "midi": 0,
            "name": "C-1",
            "ticks": 33408,
            "time": 29.828559000000002,
            "velocity": 0.1732283464566929
          },
          {
            "duration": 0.08571424999999877,
            "durationTicks": 96,
            "midi": 0,
            "name": "C-1",
            "ticks": 33408,
            "time": 29.828559000000002,
            "velocity": 0.1732283464566929
          },
          {
            "duration": 0.08571424999999877,
            "durationTicks": 96,
            "midi": 0,
            "name": "C-1",
            "ticks": 33408,
            "time": 29.828559000000002,
            "velocity": 0.1732283464566929
          },
          {
            "duration": 0.08571425000000232,
            "durationTicks": 96,
            "midi": 0,
            "name": "C-1",
            "ticks": 33504,
            "time": 29.91427325,
            "velocity": 0.1732283464566929
          },
          {
            "duration": 0.08571424999999877,
            "durationTicks": 96,
            "midi": 0,
            "name": "C-1",
            "ticks": 33600,
            "time": 29.999987500000003,
            "velocity": 0.1732283464566929
          },
          {
            "duration": 0.08571424999999877,
            "durationTicks": 96,
            "midi": 0,
            "name": "C-1",
            "ticks": 33600,
            "time": 29.999987500000003,
            "velocity": 0.1732283464566929
          },
          {
            "duration": 0.08571424999999877,
            "durationTicks": 96,
            "midi": 0,
            "name": "C-1",
            "ticks": 33600,
            "time": 29.999987500000003,
            "velocity": 0.1732283464566929
          },
          {
            "duration": 0.08571424999999877,
            "durationTicks": 96,
            "midi": 0,
            "name": "C-1",
            "ticks": 33696,
            "time": 30.085701750000002,
            "velocity": 0.1732283464566929
          },
          {
            "duration": 0.08571425000000232,
            "durationTicks": 96,
            "midi": 0,
            "name": "C-1",
            "ticks": 33792,
            "time": 30.171416,
            "velocity": 0.1732283464566929
          },
          {
            "duration": 0.08571425000000232,
            "durationTicks": 96,
            "midi": 0,
            "name": "C-1",
            "ticks": 33792,
            "time": 30.171416,
            "velocity": 0.1732283464566929
          },
          {
            "duration": 0.08571425000000232,
            "durationTicks": 96,
            "midi": 0,
            "name": "C-1",
            "ticks": 33792,
            "time": 30.171416,
            "velocity": 0.1732283464566929
          },
          {
            "duration": 0.08571425000000232,
            "durationTicks": 96,
            "midi": 0,
            "name": "C-1",
            "ticks": 33792,
            "time": 30.171416,
            "velocity": 0.1732283464566929
          },
          {
            "duration": 0.08571425000000232,
            "durationTicks": 96,
            "midi": 0,
            "name": "C-1",
            "ticks": 33792,
            "time": 30.171416,
            "velocity": 0.1732283464566929
          },
          {
            "duration": 0.08571424999999877,
            "durationTicks": 96,
            "midi": 0,
            "name": "C-1",
            "ticks": 33888,
            "time": 30.257130250000003,
            "velocity": 0.1732283464566929
          },
          {
            "duration": 0.08571424999999877,
            "durationTicks": 96,
            "midi": 0,
            "name": "C-1",
            "ticks": 33984,
            "time": 30.3428445,
            "velocity": 0.1732283464566929
          },
          {
            "duration": 0.08571424999999877,
            "durationTicks": 96,
            "midi": 0,
            "name": "C-1",
            "ticks": 33984,
            "time": 30.3428445,
            "velocity": 0.1732283464566929
          },
          {
            "duration": 0.08571424999999877,
            "durationTicks": 96,
            "midi": 0,
            "name": "C-1",
            "ticks": 33984,
            "time": 30.3428445,
            "velocity": 0.1732283464566929
          },
          {
            "duration": 0.08571425000000232,
            "durationTicks": 96,
            "midi": 0,
            "name": "C-1",
            "ticks": 34080,
            "time": 30.42855875,
            "velocity": 0.1732283464566929
          },
          {
            "duration": 0.08571424999999877,
            "durationTicks": 96,
            "midi": 0,
            "name": "C-1",
            "ticks": 34176,
            "time": 30.514273000000003,
            "velocity": 0.1732283464566929
          },
          {
            "duration": 0.08571424999999877,
            "durationTicks": 96,
            "midi": 0,
            "name": "C-1",
            "ticks": 34176,
            "time": 30.514273000000003,
            "velocity": 0.1732283464566929
          },
          {
            "duration": 0.08571424999999877,
            "durationTicks": 96,
            "midi": 0,
            "name": "C-1",
            "ticks": 34176,
            "time": 30.514273000000003,
            "velocity": 0.1732283464566929
          },
          {
            "duration": 0.08571424999999877,
            "durationTicks": 96,
            "midi": 0,
            "name": "C-1",
            "ticks": 34272,
            "time": 30.59998725,
            "velocity": 0.1732283464566929
          },
          {
            "duration": 0.08571425000000232,
            "durationTicks": 96,
            "midi": 0,
            "name": "C-1",
            "ticks": 34368,
            "time": 30.6857015,
            "velocity": 0.1732283464566929
          },
          {
            "duration": 0.08571425000000232,
            "durationTicks": 96,
            "midi": 0,
            "name": "C-1",
            "ticks": 34368,
            "time": 30.6857015,
            "velocity": 0.1732283464566929
          },
          {
            "duration": 0.08571425000000232,
            "durationTicks": 96,
            "midi": 0,
            "name": "C-1",
            "ticks": 34368,
            "time": 30.6857015,
            "velocity": 0.1732283464566929
          },
          {
            "duration": 0.08571424999999877,
            "durationTicks": 96,
            "midi": 0,
            "name": "C-1",
            "ticks": 34464,
            "time": 30.771415750000003,
            "velocity": 0.1732283464566929
          },
          {
            "duration": 0.08571425000000232,
            "durationTicks": 96,
            "midi": 0,
            "name": "C-1",
            "ticks": 34560,
            "time": 30.85713,
            "velocity": 0.1732283464566929
          },
          {
            "duration": 0.08571425000000232,
            "durationTicks": 96,
            "midi": 0,
            "name": "C-1",
            "ticks": 34560,
            "time": 30.85713,
            "velocity": 0.1732283464566929
          },
          {
            "duration": 0.08571425000000232,
            "durationTicks": 96,
            "midi": 0,
            "name": "C-1",
            "ticks": 34560,
            "time": 30.85713,
            "velocity": 0.1732283464566929
          },
          {
            "duration": 0.08571424999999877,
            "durationTicks": 96,
            "midi": 0,
            "name": "C-1",
            "ticks": 34656,
            "time": 30.942844250000004,
            "velocity": 0.1732283464566929
          },
          {
            "duration": 0.08571424999999877,
            "durationTicks": 96,
            "midi": 0,
            "name": "C-1",
            "ticks": 34752,
            "time": 31.028558500000003,
            "velocity": 0.1732283464566929
          },
          {
            "duration": 0.08571424999999877,
            "durationTicks": 96,
            "midi": 0,
            "name": "C-1",
            "ticks": 34752,
            "time": 31.028558500000003,
            "velocity": 0.1732283464566929
          },
          {
            "duration": 0.08571424999999877,
            "durationTicks": 96,
            "midi": 0,
            "name": "C-1",
            "ticks": 34752,
            "time": 31.028558500000003,
            "velocity": 0.1732283464566929
          },
          {
            "duration": 0.08571425000000232,
            "durationTicks": 96,
            "midi": 0,
            "name": "C-1",
            "ticks": 34848,
            "time": 31.11427275,
            "velocity": 0.1732283464566929
          },
          {
            "duration": 0.08571424999999877,
            "durationTicks": 96,
            "midi": 0,
            "name": "C-1",
            "ticks": 34944,
            "time": 31.199987000000004,
            "velocity": 0.1732283464566929
          },
          {
            "duration": 0.08571424999999877,
            "durationTicks": 96,
            "midi": 0,
            "name": "C-1",
            "ticks": 34944,
            "time": 31.199987000000004,
            "velocity": 0.1732283464566929
          },
          {
            "duration": 0.08571424999999877,
            "durationTicks": 96,
            "midi": 0,
            "name": "C-1",
            "ticks": 34944,
            "time": 31.199987000000004,
            "velocity": 0.1732283464566929
          },
          {
            "duration": 0.08571424999999877,
            "durationTicks": 96,
            "midi": 0,
            "name": "C-1",
            "ticks": 35040,
            "time": 31.285701250000002,
            "velocity": 0.1732283464566929
          },
          {
            "duration": 0.08571425000000232,
            "durationTicks": 96,
            "midi": 0,
            "name": "C-1",
            "ticks": 35136,
            "time": 31.3714155,
            "velocity": 0.1732283464566929
          },
          {
            "duration": 0.08571425000000232,
            "durationTicks": 96,
            "midi": 0,
            "name": "C-1",
            "ticks": 35136,
            "time": 31.3714155,
            "velocity": 0.1732283464566929
          },
          {
            "duration": 0.08571425000000232,
            "durationTicks": 96,
            "midi": 0,
            "name": "C-1",
            "ticks": 35136,
            "time": 31.3714155,
            "velocity": 0.1732283464566929
          },
          {
            "duration": 0.08571424999999877,
            "durationTicks": 96,
            "midi": 0,
            "name": "C-1",
            "ticks": 35232,
            "time": 31.457129750000004,
            "velocity": 0.1732283464566929
          },
          {
            "duration": 0.08571424999999877,
            "durationTicks": 96,
            "midi": 0,
            "name": "C-1",
            "ticks": 35328,
            "time": 31.542844000000002,
            "velocity": 0.1732283464566929
          },
          {
            "duration": 0.08571424999999877,
            "durationTicks": 96,
            "midi": 0,
            "name": "C-1",
            "ticks": 35328,
            "time": 31.542844000000002,
            "velocity": 0.1732283464566929
          },
          {
            "duration": 0.08571424999999877,
            "durationTicks": 96,
            "midi": 0,
            "name": "C-1",
            "ticks": 35328,
            "time": 31.542844000000002,
            "velocity": 0.1732283464566929
          },
          {
            "duration": 0.08571424999999877,
            "durationTicks": 96,
            "midi": 0,
            "name": "C-1",
            "ticks": 35328,
            "time": 31.542844000000002,
            "velocity": 0.1732283464566929
          },
          {
            "duration": 0.08571424999999877,
            "durationTicks": 96,
            "midi": 0,
            "name": "C-1",
            "ticks": 35328,
            "time": 31.542844000000002,
            "velocity": 0.1732283464566929
          },
          {
            "duration": 0.08571425000000232,
            "durationTicks": 96,
            "midi": 0,
            "name": "C-1",
            "ticks": 35424,
            "time": 31.62855825,
            "velocity": 0.1732283464566929
          },
          {
            "duration": 0.08571424999999877,
            "durationTicks": 96,
            "midi": 0,
            "name": "C-1",
            "ticks": 35520,
            "time": 31.714272500000003,
            "velocity": 0.1732283464566929
          },
          {
            "duration": 0.08571424999999877,
            "durationTicks": 96,
            "midi": 0,
            "name": "C-1",
            "ticks": 35520,
            "time": 31.714272500000003,
            "velocity": 0.1732283464566929
          },
          {
            "duration": 0.08571424999999877,
            "durationTicks": 96,
            "midi": 0,
            "name": "C-1",
            "ticks": 35520,
            "time": 31.714272500000003,
            "velocity": 0.1732283464566929
          },
          {
            "duration": 0.08571424999999877,
            "durationTicks": 96,
            "midi": 0,
            "name": "C-1",
            "ticks": 35616,
            "time": 31.799986750000002,
            "velocity": 0.1732283464566929
          },
          {
            "duration": 0.08571425000000232,
            "durationTicks": 96,
            "midi": 0,
            "name": "C-1",
            "ticks": 35712,
            "time": 31.885701,
            "velocity": 0.1732283464566929
          },
          {
            "duration": 0.08571425000000232,
            "durationTicks": 96,
            "midi": 0,
            "name": "C-1",
            "ticks": 35712,
            "time": 31.885701,
            "velocity": 0.1732283464566929
          },
          {
            "duration": 0.08571425000000232,
            "durationTicks": 96,
            "midi": 0,
            "name": "C-1",
            "ticks": 35712,
            "time": 31.885701,
            "velocity": 0.1732283464566929
          },
          {
            "duration": 0.08571425000000232,
            "durationTicks": 96,
            "midi": 0,
            "name": "C-1",
            "ticks": 35712,
            "time": 31.885701,
            "velocity": 0.1732283464566929
          },
          {
            "duration": 0.08571425000000232,
            "durationTicks": 96,
            "midi": 0,
            "name": "C-1",
            "ticks": 35712,
            "time": 31.885701,
            "velocity": 0.1732283464566929
          },
          {
            "duration": 0.08571424999999877,
            "durationTicks": 96,
            "midi": 0,
            "name": "C-1",
            "ticks": 35808,
            "time": 31.971415250000003,
            "velocity": 0.1732283464566929
          },
          {
            "duration": 0.08571425000000232,
            "durationTicks": 96,
            "midi": 0,
            "name": "C-1",
            "ticks": 35904,
            "time": 32.0571295,
            "velocity": 0.1732283464566929
          },
          {
            "duration": 0.08571425000000232,
            "durationTicks": 96,
            "midi": 0,
            "name": "C-1",
            "ticks": 35904,
            "time": 32.0571295,
            "velocity": 0.1732283464566929
          },
          {
            "duration": 0.08571425000000232,
            "durationTicks": 96,
            "midi": 0,
            "name": "C-1",
            "ticks": 35904,
            "time": 32.0571295,
            "velocity": 0.1732283464566929
          },
          {
            "duration": 0.08571424999999522,
            "durationTicks": 96,
            "midi": 0,
            "name": "C-1",
            "ticks": 36000,
            "time": 32.142843750000004,
            "velocity": 0.1732283464566929
          },
          {
            "duration": 0.08571425000000232,
            "durationTicks": 96,
            "midi": 0,
            "name": "C-1",
            "ticks": 36096,
            "time": 32.228558,
            "velocity": 0.1732283464566929
          },
          {
            "duration": 0.08571425000000232,
            "durationTicks": 96,
            "midi": 0,
            "name": "C-1",
            "ticks": 36096,
            "time": 32.228558,
            "velocity": 0.1732283464566929
          },
          {
            "duration": 0.08571425000000232,
            "durationTicks": 96,
            "midi": 0,
            "name": "C-1",
            "ticks": 36096,
            "time": 32.228558,
            "velocity": 0.1732283464566929
          },
          {
            "duration": 0.08571425000000232,
            "durationTicks": 96,
            "midi": 0,
            "name": "C-1",
            "ticks": 36096,
            "time": 32.228558,
            "velocity": 0.1732283464566929
          },
          {
            "duration": 0.08571425000000232,
            "durationTicks": 96,
            "midi": 0,
            "name": "C-1",
            "ticks": 36096,
            "time": 32.228558,
            "velocity": 0.1732283464566929
          },
          {
            "duration": 0.08571425000000232,
            "durationTicks": 96,
            "midi": 0,
            "name": "C-1",
            "ticks": 36192,
            "time": 32.31427225,
            "velocity": 0.1732283464566929
          },
          {
            "duration": 0.08571424999999522,
            "durationTicks": 96,
            "midi": 0,
            "name": "C-1",
            "ticks": 36288,
            "time": 32.399986500000004,
            "velocity": 0.1732283464566929
          },
          {
            "duration": 0.08571424999999522,
            "durationTicks": 96,
            "midi": 0,
            "name": "C-1",
            "ticks": 36288,
            "time": 32.399986500000004,
            "velocity": 0.1732283464566929
          },
          {
            "duration": 0.08571424999999522,
            "durationTicks": 96,
            "midi": 0,
            "name": "C-1",
            "ticks": 36288,
            "time": 32.399986500000004,
            "velocity": 0.1732283464566929
          },
          {
            "duration": 0.08571425000000232,
            "durationTicks": 96,
            "midi": 0,
            "name": "C-1",
            "ticks": 36384,
            "time": 32.48570075,
            "velocity": 0.1732283464566929
          },
          {
            "duration": 0.08571425000000232,
            "durationTicks": 96,
            "midi": 0,
            "name": "C-1",
            "ticks": 36480,
            "time": 32.571415,
            "velocity": 0.1732283464566929
          },
          {
            "duration": 0.08571425000000232,
            "durationTicks": 96,
            "midi": 0,
            "name": "C-1",
            "ticks": 36480,
            "time": 32.571415,
            "velocity": 0.1732283464566929
          },
          {
            "duration": 0.08571425000000232,
            "durationTicks": 96,
            "midi": 0,
            "name": "C-1",
            "ticks": 36480,
            "time": 32.571415,
            "velocity": 0.1732283464566929
          },
          {
            "duration": 0.08571425000000232,
            "durationTicks": 96,
            "midi": 0,
            "name": "C-1",
            "ticks": 36480,
            "time": 32.571415,
            "velocity": 0.1732283464566929
          },
          {
            "duration": 0.08571425000000232,
            "durationTicks": 96,
            "midi": 0,
            "name": "C-1",
            "ticks": 36480,
            "time": 32.571415,
            "velocity": 0.1732283464566929
          },
          {
            "duration": 0.08571424999999522,
            "durationTicks": 96,
            "midi": 0,
            "name": "C-1",
            "ticks": 36576,
            "time": 32.657129250000004,
            "velocity": 0.1732283464566929
          },
          {
            "duration": 0.08571425000000232,
            "durationTicks": 96,
            "midi": 0,
            "name": "C-1",
            "ticks": 36672,
            "time": 32.7428435,
            "velocity": 0.1732283464566929
          },
          {
            "duration": 0.08571425000000232,
            "durationTicks": 96,
            "midi": 0,
            "name": "C-1",
            "ticks": 36672,
            "time": 32.7428435,
            "velocity": 0.1732283464566929
          },
          {
            "duration": 0.08571425000000232,
            "durationTicks": 96,
            "midi": 0,
            "name": "C-1",
            "ticks": 36672,
            "time": 32.7428435,
            "velocity": 0.1732283464566929
          },
          {
            "duration": 0.08571425000000232,
            "durationTicks": 96,
            "midi": 0,
            "name": "C-1",
            "ticks": 36768,
            "time": 32.82855775,
            "velocity": 0.1732283464566929
          },
          {
            "duration": 0.08571424999999522,
            "durationTicks": 96,
            "midi": 0,
            "name": "C-1",
            "ticks": 36864,
            "time": 32.914272000000004,
            "velocity": 0.1732283464566929
          },
          {
            "duration": 0.08571424999999522,
            "durationTicks": 96,
            "midi": 0,
            "name": "C-1",
            "ticks": 36864,
            "time": 32.914272000000004,
            "velocity": 0.1732283464566929
          },
          {
            "duration": 0.08571424999999522,
            "durationTicks": 96,
            "midi": 0,
            "name": "C-1",
            "ticks": 36864,
            "time": 32.914272000000004,
            "velocity": 0.1732283464566929
          },
          {
            "duration": 0.08571424999999522,
            "durationTicks": 96,
            "midi": 0,
            "name": "C-1",
            "ticks": 36864,
            "time": 32.914272000000004,
            "velocity": 0.1732283464566929
          },
          {
            "duration": 0.08571424999999522,
            "durationTicks": 96,
            "midi": 0,
            "name": "C-1",
            "ticks": 36864,
            "time": 32.914272000000004,
            "velocity": 0.1732283464566929
          },
          {
            "duration": 0.08571425000000232,
            "durationTicks": 96,
            "midi": 0,
            "name": "C-1",
            "ticks": 36960,
            "time": 32.99998625,
            "velocity": 0.1732283464566929
          },
          {
            "duration": 0.08571425000000232,
            "durationTicks": 96,
            "midi": 0,
            "name": "C-1",
            "ticks": 37056,
            "time": 33.0857005,
            "velocity": 0.1732283464566929
          },
          {
            "duration": 0.08571425000000232,
            "durationTicks": 96,
            "midi": 0,
            "name": "C-1",
            "ticks": 37056,
            "time": 33.0857005,
            "velocity": 0.1732283464566929
          },
          {
            "duration": 0.08571425000000232,
            "durationTicks": 96,
            "midi": 0,
            "name": "C-1",
            "ticks": 37056,
            "time": 33.0857005,
            "velocity": 0.1732283464566929
          },
          {
            "duration": 0.08571424999999522,
            "durationTicks": 96,
            "midi": 0,
            "name": "C-1",
            "ticks": 37152,
            "time": 33.171414750000004,
            "velocity": 0.1732283464566929
          },
          {
            "duration": 0.08571425000000232,
            "durationTicks": 96,
            "midi": 0,
            "name": "C-1",
            "ticks": 37248,
            "time": 33.257129,
            "velocity": 0.1732283464566929
          },
          {
            "duration": 0.08571425000000232,
            "durationTicks": 96,
            "midi": 0,
            "name": "C-1",
            "ticks": 37248,
            "time": 33.257129,
            "velocity": 0.1732283464566929
          },
          {
            "duration": 0.08571425000000232,
            "durationTicks": 96,
            "midi": 0,
            "name": "C-1",
            "ticks": 37248,
            "time": 33.257129,
            "velocity": 0.1732283464566929
          },
          {
            "duration": 0.08571425000000232,
            "durationTicks": 96,
            "midi": 0,
            "name": "C-1",
            "ticks": 37344,
            "time": 33.34284325,
            "velocity": 0.1732283464566929
          },
          {
            "duration": 0.08571424999999522,
            "durationTicks": 96,
            "midi": 0,
            "name": "C-1",
            "ticks": 37440,
            "time": 33.428557500000004,
            "velocity": 0.1732283464566929
          },
          {
            "duration": 0.08571424999999522,
            "durationTicks": 96,
            "midi": 0,
            "name": "C-1",
            "ticks": 37440,
            "time": 33.428557500000004,
            "velocity": 0.1732283464566929
          },
          {
            "duration": 0.08571424999999522,
            "durationTicks": 96,
            "midi": 0,
            "name": "C-1",
            "ticks": 37440,
            "time": 33.428557500000004,
            "velocity": 0.1732283464566929
          },
          {
            "duration": 0.08571425000000232,
            "durationTicks": 96,
            "midi": 0,
            "name": "C-1",
            "ticks": 37536,
            "time": 33.51427175,
            "velocity": 0.1732283464566929
          },
          {
            "duration": 0.08571425000000232,
            "durationTicks": 96,
            "midi": 0,
            "name": "C-1",
            "ticks": 37632,
            "time": 33.599986,
            "velocity": 0.1732283464566929
          },
          {
            "duration": 0.08571424999999522,
            "durationTicks": 96,
            "midi": 0,
            "name": "C-1",
            "ticks": 37728,
            "time": 33.685700250000004,
            "velocity": 0.1732283464566929
          },
          {
            "duration": 0.08571425000000232,
            "durationTicks": 96,
            "midi": 0,
            "name": "C-1",
            "ticks": 37824,
            "time": 33.7714145,
            "velocity": 0.1732283464566929
          },
          {
            "duration": 0.08571425000000232,
            "durationTicks": 96,
            "midi": 0,
            "name": "C-1",
            "ticks": 37824,
            "time": 33.7714145,
            "velocity": 0.1732283464566929
          },
          {
            "duration": 0.08571425000000232,
            "durationTicks": 96,
            "midi": 0,
            "name": "C-1",
            "ticks": 37824,
            "time": 33.7714145,
            "velocity": 0.1732283464566929
          },
          {
            "duration": 0.08571425000000232,
            "durationTicks": 96,
            "midi": 0,
            "name": "C-1",
            "ticks": 37920,
            "time": 33.85712875,
            "velocity": 0.1732283464566929
          },
          {
            "duration": 0.08571425000000232,
            "durationTicks": 96,
            "midi": 0,
            "name": "C-1",
            "ticks": 38016,
            "time": 33.942843,
            "velocity": 0.1732283464566929
          },
          {
            "duration": 0.08571425000000232,
            "durationTicks": 96,
            "midi": 0,
            "name": "C-1",
            "ticks": 38016,
            "time": 33.942843,
            "velocity": 0.1732283464566929
          },
          {
            "duration": 0.08571425000000232,
            "durationTicks": 96,
            "midi": 0,
            "name": "C-1",
            "ticks": 38016,
            "time": 33.942843,
            "velocity": 0.1732283464566929
          },
          {
            "duration": 0.08571424999999522,
            "durationTicks": 96,
            "midi": 0,
            "name": "C-1",
            "ticks": 38112,
            "time": 34.028557250000006,
            "velocity": 0.1732283464566929
          },
          {
            "duration": 0.08571425000000232,
            "durationTicks": 96,
            "midi": 0,
            "name": "C-1",
            "ticks": 38208,
            "time": 34.1142715,
            "velocity": 0.1732283464566929
          },
          {
            "duration": 0.08571425000000232,
            "durationTicks": 96,
            "midi": 0,
            "name": "C-1",
            "ticks": 38208,
            "time": 34.1142715,
            "velocity": 0.1732283464566929
          },
          {
            "duration": 0.08571425000000232,
            "durationTicks": 96,
            "midi": 0,
            "name": "C-1",
            "ticks": 38208,
            "time": 34.1142715,
            "velocity": 0.1732283464566929
          },
          {
            "duration": 0.08571425000000232,
            "durationTicks": 96,
            "midi": 0,
            "name": "C-1",
            "ticks": 38304,
            "time": 34.19998575,
            "velocity": 0.1732283464566929
          },
          {
            "duration": 0.08571424999999522,
            "durationTicks": 96,
            "midi": 0,
            "name": "C-1",
            "ticks": 38400,
            "time": 34.285700000000006,
            "velocity": 0.1732283464566929
          },
          {
            "duration": 0.08571424999999522,
            "durationTicks": 96,
            "midi": 0,
            "name": "C-1",
            "ticks": 38400,
            "time": 34.285700000000006,
            "velocity": 0.1732283464566929
          },
          {
            "duration": 0.08571424999999522,
            "durationTicks": 96,
            "midi": 0,
            "name": "C-1",
            "ticks": 38400,
            "time": 34.285700000000006,
            "velocity": 0.1732283464566929
          },
          {
            "duration": 0.08571425000000232,
            "durationTicks": 96,
            "midi": 0,
            "name": "C-1",
            "ticks": 38496,
            "time": 34.37141425,
            "velocity": 0.1732283464566929
          },
          {
            "duration": 0.08571425000000232,
            "durationTicks": 96,
            "midi": 0,
            "name": "C-1",
            "ticks": 38592,
            "time": 34.4571285,
            "velocity": 0.1732283464566929
          },
          {
            "duration": 0.08571425000000232,
            "durationTicks": 96,
            "midi": 0,
            "name": "C-1",
            "ticks": 38592,
            "time": 34.4571285,
            "velocity": 0.1732283464566929
          },
          {
            "duration": 0.08571425000000232,
            "durationTicks": 96,
            "midi": 0,
            "name": "C-1",
            "ticks": 38592,
            "time": 34.4571285,
            "velocity": 0.1732283464566929
          },
          {
            "duration": 0.08571424999999522,
            "durationTicks": 96,
            "midi": 0,
            "name": "C-1",
            "ticks": 38688,
            "time": 34.542842750000005,
            "velocity": 0.1732283464566929
          },
          {
            "duration": 0.08571425000000232,
            "durationTicks": 96,
            "midi": 0,
            "name": "C-1",
            "ticks": 38784,
            "time": 34.628557,
            "velocity": 0.1732283464566929
          },
          {
            "duration": 0.08571425000000232,
            "durationTicks": 96,
            "midi": 0,
            "name": "C-1",
            "ticks": 38784,
            "time": 34.628557,
            "velocity": 0.1732283464566929
          },
          {
            "duration": 0.08571425000000232,
            "durationTicks": 96,
            "midi": 0,
            "name": "C-1",
            "ticks": 38784,
            "time": 34.628557,
            "velocity": 0.1732283464566929
          },
          {
            "duration": 0.08571425000000232,
            "durationTicks": 96,
            "midi": 0,
            "name": "C-1",
            "ticks": 38880,
            "time": 34.71427125,
            "velocity": 0.1732283464566929
          },
          {
            "duration": 0.08571424999999522,
            "durationTicks": 96,
            "midi": 0,
            "name": "C-1",
            "ticks": 38976,
            "time": 34.799985500000005,
            "velocity": 0.1732283464566929
          },
          {
            "duration": 0.08571424999999522,
            "durationTicks": 96,
            "midi": 0,
            "name": "C-1",
            "ticks": 38976,
            "time": 34.799985500000005,
            "velocity": 0.1732283464566929
          },
          {
            "duration": 0.08571424999999522,
            "durationTicks": 96,
            "midi": 0,
            "name": "C-1",
            "ticks": 38976,
            "time": 34.799985500000005,
            "velocity": 0.1732283464566929
          },
          {
            "duration": 0.08571425000000232,
            "durationTicks": 96,
            "midi": 0,
            "name": "C-1",
            "ticks": 39072,
            "time": 34.88569975,
            "velocity": 0.1732283464566929
          },
          {
            "duration": 0.08571425000000232,
            "durationTicks": 96,
            "midi": 0,
            "name": "C-1",
            "ticks": 39168,
            "time": 34.971414,
            "velocity": 0.1732283464566929
          },
          {
            "duration": 0.08571424999999522,
            "durationTicks": 96,
            "midi": 0,
            "name": "C-1",
            "ticks": 39264,
            "time": 35.057128250000005,
            "velocity": 0.1732283464566929
          },
          {
            "duration": 0.08571425000000232,
            "durationTicks": 96,
            "midi": 0,
            "name": "C-1",
            "ticks": 39360,
            "time": 35.1428425,
            "velocity": 0.1732283464566929
          },
          {
            "duration": 0.08571425000000232,
            "durationTicks": 96,
            "midi": 0,
            "name": "C-1",
            "ticks": 39360,
            "time": 35.1428425,
            "velocity": 0.1732283464566929
          },
          {
            "duration": 0.08571425000000232,
            "durationTicks": 96,
            "midi": 0,
            "name": "C-1",
            "ticks": 39360,
            "time": 35.1428425,
            "velocity": 0.1732283464566929
          },
          {
            "duration": 0.08571425000000232,
            "durationTicks": 96,
            "midi": 0,
            "name": "C-1",
            "ticks": 39456,
            "time": 35.22855675,
            "velocity": 0.1732283464566929
          },
          {
            "duration": 0.08571424999999522,
            "durationTicks": 96,
            "midi": 0,
            "name": "C-1",
            "ticks": 39552,
            "time": 35.314271000000005,
            "velocity": 0.1732283464566929
          },
          {
            "duration": 0.08571424999999522,
            "durationTicks": 96,
            "midi": 0,
            "name": "C-1",
            "ticks": 39552,
            "time": 35.314271000000005,
            "velocity": 0.1732283464566929
          },
          {
            "duration": 0.08571424999999522,
            "durationTicks": 96,
            "midi": 0,
            "name": "C-1",
            "ticks": 39552,
            "time": 35.314271000000005,
            "velocity": 0.1732283464566929
          },
          {
            "duration": 0.08571425000000232,
            "durationTicks": 96,
            "midi": 0,
            "name": "C-1",
            "ticks": 39648,
            "time": 35.39998525,
            "velocity": 0.1732283464566929
          },
          {
            "duration": 0.08571425000000232,
            "durationTicks": 96,
            "midi": 0,
            "name": "C-1",
            "ticks": 39744,
            "time": 35.4856995,
            "velocity": 0.1732283464566929
          },
          {
            "duration": 0.08571425000000232,
            "durationTicks": 96,
            "midi": 0,
            "name": "C-1",
            "ticks": 39744,
            "time": 35.4856995,
            "velocity": 0.1732283464566929
          },
          {
            "duration": 0.08571425000000232,
            "durationTicks": 96,
            "midi": 0,
            "name": "C-1",
            "ticks": 39744,
            "time": 35.4856995,
            "velocity": 0.1732283464566929
          },
          {
            "duration": 0.08571424999999522,
            "durationTicks": 96,
            "midi": 0,
            "name": "C-1",
            "ticks": 39840,
            "time": 35.571413750000005,
            "velocity": 0.1732283464566929
          },
          {
            "duration": 0.08571425000000232,
            "durationTicks": 96,
            "midi": 0,
            "name": "C-1",
            "ticks": 39936,
            "time": 35.657128,
            "velocity": 0.1732283464566929
          },
          {
            "duration": 0.08571425000000232,
            "durationTicks": 96,
            "midi": 0,
            "name": "C-1",
            "ticks": 39936,
            "time": 35.657128,
            "velocity": 0.1732283464566929
          },
          {
            "duration": 0.08571425000000232,
            "durationTicks": 96,
            "midi": 0,
            "name": "C-1",
            "ticks": 39936,
            "time": 35.657128,
            "velocity": 0.1732283464566929
          },
          {
            "duration": 0.08571425000000232,
            "durationTicks": 96,
            "midi": 0,
            "name": "C-1",
            "ticks": 39936,
            "time": 35.657128,
            "velocity": 0.1732283464566929
          },
          {
            "duration": 0.08571425000000232,
            "durationTicks": 96,
            "midi": 0,
            "name": "C-1",
            "ticks": 39936,
            "time": 35.657128,
            "velocity": 0.1732283464566929
          },
          {
            "duration": 0.08571425000000232,
            "durationTicks": 96,
            "midi": 0,
            "name": "C-1",
            "ticks": 40032,
            "time": 35.74284225,
            "velocity": 0.1732283464566929
          },
          {
            "duration": 0.08571424999999522,
            "durationTicks": 96,
            "midi": 0,
            "name": "C-1",
            "ticks": 40128,
            "time": 35.828556500000005,
            "velocity": 0.1732283464566929
          },
          {
            "duration": 0.08571424999999522,
            "durationTicks": 96,
            "midi": 0,
            "name": "C-1",
            "ticks": 40128,
            "time": 35.828556500000005,
            "velocity": 0.1732283464566929
          },
          {
            "duration": 0.08571424999999522,
            "durationTicks": 96,
            "midi": 0,
            "name": "C-1",
            "ticks": 40128,
            "time": 35.828556500000005,
            "velocity": 0.1732283464566929
          },
          {
            "duration": 0.08571425000000232,
            "durationTicks": 96,
            "midi": 0,
            "name": "C-1",
            "ticks": 40224,
            "time": 35.91427075,
            "velocity": 0.1732283464566929
          },
          {
            "duration": 0.08571425000000232,
            "durationTicks": 96,
            "midi": 0,
            "name": "C-1",
            "ticks": 40320,
            "time": 35.999985,
            "velocity": 0.1732283464566929
          },
          {
            "duration": 0.08571425000000232,
            "durationTicks": 96,
            "midi": 0,
            "name": "C-1",
            "ticks": 40320,
            "time": 35.999985,
            "velocity": 0.1732283464566929
          },
          {
            "duration": 0.08571425000000232,
            "durationTicks": 96,
            "midi": 0,
            "name": "C-1",
            "ticks": 40320,
            "time": 35.999985,
            "velocity": 0.1732283464566929
          },
          {
            "duration": 0.08571424999999522,
            "durationTicks": 96,
            "midi": 0,
            "name": "C-1",
            "ticks": 40416,
            "time": 36.085699250000005,
            "velocity": 0.1732283464566929
          },
          {
            "duration": 0.08571425000000232,
            "durationTicks": 96,
            "midi": 0,
            "name": "C-1",
            "ticks": 40512,
            "time": 36.1714135,
            "velocity": 0.1732283464566929
          },
          {
            "duration": 0.08571425000000232,
            "durationTicks": 96,
            "midi": 0,
            "name": "C-1",
            "ticks": 40512,
            "time": 36.1714135,
            "velocity": 0.1732283464566929
          },
          {
            "duration": 0.08571425000000232,
            "durationTicks": 96,
            "midi": 0,
            "name": "C-1",
            "ticks": 40512,
            "time": 36.1714135,
            "velocity": 0.1732283464566929
          },
          {
            "duration": 0.08571425000000232,
            "durationTicks": 96,
            "midi": 0,
            "name": "C-1",
            "ticks": 40608,
            "time": 36.25712775,
            "velocity": 0.1732283464566929
          },
          {
            "duration": 0.08571424999999522,
            "durationTicks": 96,
            "midi": 0,
            "name": "C-1",
            "ticks": 40704,
            "time": 36.342842000000005,
            "velocity": 0.1732283464566929
          },
          {
            "duration": 0.08571425000000232,
            "durationTicks": 96,
            "midi": 0,
            "name": "C-1",
            "ticks": 40800,
            "time": 36.42855625,
            "velocity": 0.1732283464566929
          },
          {
            "duration": 0.08571425000000232,
            "durationTicks": 96,
            "midi": 0,
            "name": "C-1",
            "ticks": 40896,
            "time": 36.5142705,
            "velocity": 0.1732283464566929
          },
          {
            "duration": 0.08571425000000232,
            "durationTicks": 96,
            "midi": 0,
            "name": "C-1",
            "ticks": 40896,
            "time": 36.5142705,
            "velocity": 0.1732283464566929
          },
          {
            "duration": 0.08571425000000232,
            "durationTicks": 96,
            "midi": 0,
            "name": "C-1",
            "ticks": 40896,
            "time": 36.5142705,
            "velocity": 0.1732283464566929
          },
          {
            "duration": 0.08571424999999522,
            "durationTicks": 96,
            "midi": 0,
            "name": "C-1",
            "ticks": 40992,
            "time": 36.599984750000004,
            "velocity": 0.1732283464566929
          },
          {
            "duration": 0.08571425000000232,
            "durationTicks": 96,
            "midi": 0,
            "name": "C-1",
            "ticks": 41088,
            "time": 36.685699,
            "velocity": 0.1732283464566929
          },
          {
            "duration": 0.08571425000000232,
            "durationTicks": 96,
            "midi": 0,
            "name": "C-1",
            "ticks": 41088,
            "time": 36.685699,
            "velocity": 0.1732283464566929
          },
          {
            "duration": 0.08571425000000232,
            "durationTicks": 96,
            "midi": 0,
            "name": "C-1",
            "ticks": 41088,
            "time": 36.685699,
            "velocity": 0.1732283464566929
          },
          {
            "duration": 0.08571425000000232,
            "durationTicks": 96,
            "midi": 0,
            "name": "C-1",
            "ticks": 41184,
            "time": 36.77141325,
            "velocity": 0.1732283464566929
          },
          {
            "duration": 0.08571424999999522,
            "durationTicks": 96,
            "midi": 0,
            "name": "C-1",
            "ticks": 41280,
            "time": 36.857127500000004,
            "velocity": 0.1732283464566929
          },
          {
            "duration": 0.08571424999999522,
            "durationTicks": 96,
            "midi": 0,
            "name": "C-1",
            "ticks": 41280,
            "time": 36.857127500000004,
            "velocity": 0.1732283464566929
          },
          {
            "duration": 0.08571424999999522,
            "durationTicks": 96,
            "midi": 0,
            "name": "C-1",
            "ticks": 41280,
            "time": 36.857127500000004,
            "velocity": 0.1732283464566929
          },
          {
            "duration": 0.08571425000000232,
            "durationTicks": 96,
            "midi": 0,
            "name": "C-1",
            "ticks": 41376,
            "time": 36.94284175,
            "velocity": 0.1732283464566929
          },
          {
            "duration": 0.08571425000000232,
            "durationTicks": 96,
            "midi": 0,
            "name": "C-1",
            "ticks": 41472,
            "time": 37.028556,
            "velocity": 0.1732283464566929
          },
          {
            "duration": 0.08571425000000232,
            "durationTicks": 96,
            "midi": 0,
            "name": "C-1",
            "ticks": 41472,
            "time": 37.028556,
            "velocity": 0.1732283464566929
          },
          {
            "duration": 0.08571425000000232,
            "durationTicks": 96,
            "midi": 0,
            "name": "C-1",
            "ticks": 41472,
            "time": 37.028556,
            "velocity": 0.1732283464566929
          },
          {
            "duration": 0.08571425000000232,
            "durationTicks": 96,
            "midi": 0,
            "name": "C-1",
            "ticks": 41472,
            "time": 37.028556,
            "velocity": 0.1732283464566929
          },
          {
            "duration": 0.08571425000000232,
            "durationTicks": 96,
            "midi": 0,
            "name": "C-1",
            "ticks": 41472,
            "time": 37.028556,
            "velocity": 0.1732283464566929
          },
          {
            "duration": 0.08571424999999522,
            "durationTicks": 96,
            "midi": 0,
            "name": "C-1",
            "ticks": 41568,
            "time": 37.114270250000004,
            "velocity": 0.1732283464566929
          },
          {
            "duration": 0.08571425000000232,
            "durationTicks": 96,
            "midi": 0,
            "name": "C-1",
            "ticks": 41664,
            "time": 37.1999845,
            "velocity": 0.1732283464566929
          },
          {
            "duration": 0.08571425000000232,
            "durationTicks": 96,
            "midi": 0,
            "name": "C-1",
            "ticks": 41664,
            "time": 37.1999845,
            "velocity": 0.1732283464566929
          },
          {
            "duration": 0.08571425000000232,
            "durationTicks": 96,
            "midi": 0,
            "name": "C-1",
            "ticks": 41664,
            "time": 37.1999845,
            "velocity": 0.1732283464566929
          },
          {
            "duration": 0.08571425000000232,
            "durationTicks": 96,
            "midi": 0,
            "name": "C-1",
            "ticks": 41760,
            "time": 37.28569875,
            "velocity": 0.1732283464566929
          },
          {
            "duration": 0.08571424999999522,
            "durationTicks": 96,
            "midi": 0,
            "name": "C-1",
            "ticks": 41856,
            "time": 37.371413000000004,
            "velocity": 0.1732283464566929
          },
          {
            "duration": 0.08571424999999522,
            "durationTicks": 96,
            "midi": 0,
            "name": "C-1",
            "ticks": 41856,
            "time": 37.371413000000004,
            "velocity": 0.1732283464566929
          },
          {
            "duration": 0.08571424999999522,
            "durationTicks": 96,
            "midi": 0,
            "name": "C-1",
            "ticks": 41856,
            "time": 37.371413000000004,
            "velocity": 0.1732283464566929
          },
          {
            "duration": 0.08571425000000232,
            "durationTicks": 96,
            "midi": 0,
            "name": "C-1",
            "ticks": 41952,
            "time": 37.45712725,
            "velocity": 0.1732283464566929
          },
          {
            "duration": 0.08571425000000232,
            "durationTicks": 96,
            "midi": 0,
            "name": "C-1",
            "ticks": 42048,
            "time": 37.5428415,
            "velocity": 0.1732283464566929
          },
          {
            "duration": 0.08571425000000232,
            "durationTicks": 96,
            "midi": 0,
            "name": "C-1",
            "ticks": 42048,
            "time": 37.5428415,
            "velocity": 0.1732283464566929
          },
          {
            "duration": 0.08571425000000232,
            "durationTicks": 96,
            "midi": 0,
            "name": "C-1",
            "ticks": 42048,
            "time": 37.5428415,
            "velocity": 0.1732283464566929
          },
          {
            "duration": 0.08571424999999522,
            "durationTicks": 96,
            "midi": 0,
            "name": "C-1",
            "ticks": 42144,
            "time": 37.628555750000004,
            "velocity": 0.1732283464566929
          },
          {
            "duration": 0.08571425000000232,
            "durationTicks": 96,
            "midi": 0,
            "name": "C-1",
            "ticks": 42240,
            "time": 37.71427,
            "velocity": 0.1732283464566929
          },
          {
            "duration": 0.08571425000000232,
            "durationTicks": 96,
            "midi": 0,
            "name": "C-1",
            "ticks": 42240,
            "time": 37.71427,
            "velocity": 0.1732283464566929
          },
          {
            "duration": 0.08571425000000232,
            "durationTicks": 96,
            "midi": 0,
            "name": "C-1",
            "ticks": 42240,
            "time": 37.71427,
            "velocity": 0.1732283464566929
          },
          {
            "duration": 0.08571425000000232,
            "durationTicks": 96,
            "midi": 0,
            "name": "C-1",
            "ticks": 42240,
            "time": 37.71427,
            "velocity": 0.1732283464566929
          },
          {
            "duration": 0.08571425000000232,
            "durationTicks": 96,
            "midi": 0,
            "name": "C-1",
            "ticks": 42240,
            "time": 37.71427,
            "velocity": 0.1732283464566929
          },
          {
            "duration": 0.08571425000000232,
            "durationTicks": 96,
            "midi": 0,
            "name": "C-1",
            "ticks": 42336,
            "time": 37.79998425,
            "velocity": 0.1732283464566929
          },
          {
            "duration": 0.08571425000000232,
            "durationTicks": 96,
            "midi": 0,
            "name": "C-1",
            "ticks": 42432,
            "time": 37.885698500000004,
            "velocity": 0.1732283464566929
          },
          {
            "duration": 0.08571425000000232,
            "durationTicks": 96,
            "midi": 0,
            "name": "C-1",
            "ticks": 42432,
            "time": 37.885698500000004,
            "velocity": 0.1732283464566929
          },
          {
            "duration": 0.08571425000000232,
            "durationTicks": 96,
            "midi": 0,
            "name": "C-1",
            "ticks": 42432,
            "time": 37.885698500000004,
            "velocity": 0.1732283464566929
          },
          {
            "duration": 0.08571424999999522,
            "durationTicks": 96,
            "midi": 0,
            "name": "C-1",
            "ticks": 42528,
            "time": 37.971412750000006,
            "velocity": 0.1732283464566929
          },
          {
            "duration": 0.08571425000000232,
            "durationTicks": 96,
            "midi": 0,
            "name": "C-1",
            "ticks": 42624,
            "time": 38.057127,
            "velocity": 0.1732283464566929
          },
          {
            "duration": 0.08571425000000232,
            "durationTicks": 96,
            "midi": 0,
            "name": "C-1",
            "ticks": 42624,
            "time": 38.057127,
            "velocity": 0.1732283464566929
          },
          {
            "duration": 0.08571425000000232,
            "durationTicks": 96,
            "midi": 0,
            "name": "C-1",
            "ticks": 42624,
            "time": 38.057127,
            "velocity": 0.1732283464566929
          },
          {
            "duration": 0.08571425000000232,
            "durationTicks": 96,
            "midi": 0,
            "name": "C-1",
            "ticks": 42720,
            "time": 38.142841250000004,
            "velocity": 0.1732283464566929
          },
          {
            "duration": 0.08571424999999522,
            "durationTicks": 96,
            "midi": 0,
            "name": "C-1",
            "ticks": 42816,
            "time": 38.228555500000006,
            "velocity": 0.1732283464566929
          },
          {
            "duration": 0.08571424999999522,
            "durationTicks": 96,
            "midi": 0,
            "name": "C-1",
            "ticks": 42816,
            "time": 38.228555500000006,
            "velocity": 0.1732283464566929
          },
          {
            "duration": 0.08571424999999522,
            "durationTicks": 96,
            "midi": 0,
            "name": "C-1",
            "ticks": 42816,
            "time": 38.228555500000006,
            "velocity": 0.1732283464566929
          },
          {
            "duration": 0.08571425000000232,
            "durationTicks": 96,
            "midi": 0,
            "name": "C-1",
            "ticks": 42912,
            "time": 38.31426975,
            "velocity": 0.1732283464566929
          },
          {
            "duration": 0.08571425000000232,
            "durationTicks": 96,
            "midi": 0,
            "name": "C-1",
            "ticks": 43008,
            "time": 38.399984,
            "velocity": 0.1732283464566929
          },
          {
            "duration": 0.08571425000000232,
            "durationTicks": 96,
            "midi": 0,
            "name": "C-1",
            "ticks": 43008,
            "time": 38.399984,
            "velocity": 0.1732283464566929
          },
          {
            "duration": 0.08571425000000232,
            "durationTicks": 96,
            "midi": 0,
            "name": "C-1",
            "ticks": 43008,
            "time": 38.399984,
            "velocity": 0.1732283464566929
          },
          {
            "duration": 0.08571425000000232,
            "durationTicks": 96,
            "midi": 0,
            "name": "C-1",
            "ticks": 43008,
            "time": 38.399984,
            "velocity": 0.1732283464566929
          },
          {
            "duration": 0.08571425000000232,
            "durationTicks": 96,
            "midi": 0,
            "name": "C-1",
            "ticks": 43008,
            "time": 38.399984,
            "velocity": 0.1732283464566929
          },
          {
            "duration": 0.08571424999999522,
            "durationTicks": 96,
            "midi": 0,
            "name": "C-1",
            "ticks": 43104,
            "time": 38.485698250000006,
            "velocity": 0.1732283464566929
          },
          {
            "duration": 0.08571425000000232,
            "durationTicks": 96,
            "midi": 0,
            "name": "C-1",
            "ticks": 43200,
            "time": 38.5714125,
            "velocity": 0.1732283464566929
          },
          {
            "duration": 0.08571425000000232,
            "durationTicks": 96,
            "midi": 0,
            "name": "C-1",
            "ticks": 43200,
            "time": 38.5714125,
            "velocity": 0.1732283464566929
          },
          {
            "duration": 0.08571425000000232,
            "durationTicks": 96,
            "midi": 0,
            "name": "C-1",
            "ticks": 43200,
            "time": 38.5714125,
            "velocity": 0.1732283464566929
          },
          {
            "duration": 0.08571425000000232,
            "durationTicks": 96,
            "midi": 0,
            "name": "C-1",
            "ticks": 43296,
            "time": 38.65712675,
            "velocity": 0.1732283464566929
          },
          {
            "duration": 0.08571424999999522,
            "durationTicks": 96,
            "midi": 0,
            "name": "C-1",
            "ticks": 43392,
            "time": 38.742841000000006,
            "velocity": 0.1732283464566929
          },
          {
            "duration": 0.08571424999999522,
            "durationTicks": 96,
            "midi": 0,
            "name": "C-1",
            "ticks": 43392,
            "time": 38.742841000000006,
            "velocity": 0.1732283464566929
          },
          {
            "duration": 0.08571424999999522,
            "durationTicks": 96,
            "midi": 0,
            "name": "C-1",
            "ticks": 43392,
            "time": 38.742841000000006,
            "velocity": 0.1732283464566929
          },
          {
            "duration": 0.08571425000000232,
            "durationTicks": 96,
            "midi": 0,
            "name": "C-1",
            "ticks": 43488,
            "time": 38.82855525,
            "velocity": 0.1732283464566929
          },
          {
            "duration": 0.08571425000000232,
            "durationTicks": 96,
            "midi": 0,
            "name": "C-1",
            "ticks": 43584,
            "time": 38.9142695,
            "velocity": 0.1732283464566929
          },
          {
            "duration": 0.08571425000000232,
            "durationTicks": 96,
            "midi": 0,
            "name": "C-1",
            "ticks": 43584,
            "time": 38.9142695,
            "velocity": 0.1732283464566929
          },
          {
            "duration": 0.08571425000000232,
            "durationTicks": 96,
            "midi": 0,
            "name": "C-1",
            "ticks": 43584,
            "time": 38.9142695,
            "velocity": 0.1732283464566929
          },
          {
            "duration": 0.08571424999999522,
            "durationTicks": 96,
            "midi": 0,
            "name": "C-1",
            "ticks": 43680,
            "time": 38.999983750000006,
            "velocity": 0.1732283464566929
          },
          {
            "duration": 0.08571425000000232,
            "durationTicks": 96,
            "midi": 0,
            "name": "C-1",
            "ticks": 43776,
            "time": 39.085698,
            "velocity": 0.1732283464566929
          },
          {
            "duration": 0.08571425000000232,
            "durationTicks": 96,
            "midi": 0,
            "name": "C-1",
            "ticks": 43872,
            "time": 39.17141225,
            "velocity": 0.1732283464566929
          },
          {
            "duration": 0.08571424999999522,
            "durationTicks": 96,
            "midi": 0,
            "name": "C-1",
            "ticks": 43968,
            "time": 39.257126500000005,
            "velocity": 0.1732283464566929
          },
          {
            "duration": 0.08571424999999522,
            "durationTicks": 96,
            "midi": 0,
            "name": "C-1",
            "ticks": 43968,
            "time": 39.257126500000005,
            "velocity": 0.1732283464566929
          },
          {
            "duration": 0.08571424999999522,
            "durationTicks": 96,
            "midi": 0,
            "name": "C-1",
            "ticks": 43968,
            "time": 39.257126500000005,
            "velocity": 0.1732283464566929
          },
          {
            "duration": 0.08571425000000232,
            "durationTicks": 96,
            "midi": 0,
            "name": "C-1",
            "ticks": 44064,
            "time": 39.34284075,
            "velocity": 0.1732283464566929
          },
          {
            "duration": 0.08571425000000232,
            "durationTicks": 96,
            "midi": 0,
            "name": "C-1",
            "ticks": 44160,
            "time": 39.428555,
            "velocity": 0.1732283464566929
          },
          {
            "duration": 0.08571425000000232,
            "durationTicks": 96,
            "midi": 0,
            "name": "C-1",
            "ticks": 44160,
            "time": 39.428555,
            "velocity": 0.1732283464566929
          },
          {
            "duration": 0.08571425000000232,
            "durationTicks": 96,
            "midi": 0,
            "name": "C-1",
            "ticks": 44160,
            "time": 39.428555,
            "velocity": 0.1732283464566929
          },
          {
            "duration": 0.08571424999999522,
            "durationTicks": 96,
            "midi": 0,
            "name": "C-1",
            "ticks": 44256,
            "time": 39.514269250000005,
            "velocity": 0.1732283464566929
          },
          {
            "duration": 0.08571425000000232,
            "durationTicks": 96,
            "midi": 0,
            "name": "C-1",
            "ticks": 44352,
            "time": 39.5999835,
            "velocity": 0.1732283464566929
          },
          {
            "duration": 0.08571425000000232,
            "durationTicks": 96,
            "midi": 0,
            "name": "C-1",
            "ticks": 44352,
            "time": 39.5999835,
            "velocity": 0.1732283464566929
          },
          {
            "duration": 0.08571425000000232,
            "durationTicks": 96,
            "midi": 0,
            "name": "C-1",
            "ticks": 44352,
            "time": 39.5999835,
            "velocity": 0.1732283464566929
          },
          {
            "duration": 0.08571425000000232,
            "durationTicks": 96,
            "midi": 0,
            "name": "C-1",
            "ticks": 44448,
            "time": 39.68569775,
            "velocity": 0.1732283464566929
          },
          {
            "duration": 0.08571424999999522,
            "durationTicks": 96,
            "midi": 0,
            "name": "C-1",
            "ticks": 44544,
            "time": 39.771412000000005,
            "velocity": 0.1732283464566929
          },
          {
            "duration": 0.08571424999999522,
            "durationTicks": 96,
            "midi": 0,
            "name": "C-1",
            "ticks": 44544,
            "time": 39.771412000000005,
            "velocity": 0.1732283464566929
          },
          {
            "duration": 0.08571424999999522,
            "durationTicks": 96,
            "midi": 0,
            "name": "C-1",
            "ticks": 44544,
            "time": 39.771412000000005,
            "velocity": 0.1732283464566929
          },
          {
            "duration": 0.08571425000000232,
            "durationTicks": 96,
            "midi": 0,
            "name": "C-1",
            "ticks": 44640,
            "time": 39.85712625,
            "velocity": 0.1732283464566929
          },
          {
            "duration": 0.08571425000000232,
            "durationTicks": 96,
            "midi": 0,
            "name": "C-1",
            "ticks": 44736,
            "time": 39.9428405,
            "velocity": 0.1732283464566929
          },
          {
            "duration": 0.08571425000000232,
            "durationTicks": 96,
            "midi": 0,
            "name": "C-1",
            "ticks": 44736,
            "time": 39.9428405,
            "velocity": 0.1732283464566929
          },
          {
            "duration": 0.08571425000000232,
            "durationTicks": 96,
            "midi": 0,
            "name": "C-1",
            "ticks": 44736,
            "time": 39.9428405,
            "velocity": 0.1732283464566929
          },
          {
            "duration": 0.08571424999999522,
            "durationTicks": 96,
            "midi": 0,
            "name": "C-1",
            "ticks": 44832,
            "time": 40.028554750000005,
            "velocity": 0.1732283464566929
          },
          {
            "duration": 0.08571425000000232,
            "durationTicks": 96,
            "midi": 0,
            "name": "C-1",
            "ticks": 44928,
            "time": 40.114269,
            "velocity": 0.1732283464566929
          },
          {
            "duration": 0.08571425000000232,
            "durationTicks": 96,
            "midi": 0,
            "name": "C-1",
            "ticks": 44928,
            "time": 40.114269,
            "velocity": 0.1732283464566929
          },
          {
            "duration": 0.08571425000000232,
            "durationTicks": 96,
            "midi": 0,
            "name": "C-1",
            "ticks": 44928,
            "time": 40.114269,
            "velocity": 0.1732283464566929
          },
          {
            "duration": 0.08571425000000232,
            "durationTicks": 96,
            "midi": 0,
            "name": "C-1",
            "ticks": 45024,
            "time": 40.19998325,
            "velocity": 0.1732283464566929
          },
          {
            "duration": 0.08571424999999522,
            "durationTicks": 96,
            "midi": 0,
            "name": "C-1",
            "ticks": 45120,
            "time": 40.285697500000005,
            "velocity": 0.1732283464566929
          },
          {
            "duration": 0.08571424999999522,
            "durationTicks": 96,
            "midi": 0,
            "name": "C-1",
            "ticks": 45120,
            "time": 40.285697500000005,
            "velocity": 0.1732283464566929
          },
          {
            "duration": 0.08571424999999522,
            "durationTicks": 96,
            "midi": 0,
            "name": "C-1",
            "ticks": 45120,
            "time": 40.285697500000005,
            "velocity": 0.1732283464566929
          },
          {
            "duration": 0.08571425000000232,
            "durationTicks": 96,
            "midi": 0,
            "name": "C-1",
            "ticks": 45216,
            "time": 40.37141175,
            "velocity": 0.1732283464566929
          },
          {
            "duration": 0.08571425000000232,
            "durationTicks": 96,
            "midi": 0,
            "name": "C-1",
            "ticks": 45312,
            "time": 40.457126,
            "velocity": 0.1732283464566929
          },
          {
            "duration": 0.08571424999999522,
            "durationTicks": 96,
            "midi": 0,
            "name": "C-1",
            "ticks": 45408,
            "time": 40.542840250000005,
            "velocity": 0.1732283464566929
          },
          {
            "duration": 0.08571425000000232,
            "durationTicks": 96,
            "midi": 0,
            "name": "C-1",
            "ticks": 45504,
            "time": 40.6285545,
            "velocity": 0.1732283464566929
          },
          {
            "duration": 0.08571425000000232,
            "durationTicks": 96,
            "midi": 0,
            "name": "C-1",
            "ticks": 45504,
            "time": 40.6285545,
            "velocity": 0.1732283464566929
          },
          {
            "duration": 0.08571425000000232,
            "durationTicks": 96,
            "midi": 0,
            "name": "C-1",
            "ticks": 45504,
            "time": 40.6285545,
            "velocity": 0.1732283464566929
          },
          {
            "duration": 0.08571425000000232,
            "durationTicks": 96,
            "midi": 0,
            "name": "C-1",
            "ticks": 45600,
            "time": 40.71426875,
            "velocity": 0.1732283464566929
          },
          {
            "duration": 0.08571424999999522,
            "durationTicks": 96,
            "midi": 0,
            "name": "C-1",
            "ticks": 45696,
            "time": 40.799983000000005,
            "velocity": 0.1732283464566929
          },
          {
            "duration": 0.08571424999999522,
            "durationTicks": 96,
            "midi": 0,
            "name": "C-1",
            "ticks": 45696,
            "time": 40.799983000000005,
            "velocity": 0.1732283464566929
          },
          {
            "duration": 0.08571424999999522,
            "durationTicks": 96,
            "midi": 0,
            "name": "C-1",
            "ticks": 45696,
            "time": 40.799983000000005,
            "velocity": 0.1732283464566929
          },
          {
            "duration": 0.08571425000000232,
            "durationTicks": 96,
            "midi": 0,
            "name": "C-1",
            "ticks": 45792,
            "time": 40.88569725,
            "velocity": 0.1732283464566929
          },
          {
            "duration": 0.08571425000000232,
            "durationTicks": 96,
            "midi": 0,
            "name": "C-1",
            "ticks": 45888,
            "time": 40.9714115,
            "velocity": 0.1732283464566929
          },
          {
            "duration": 0.08571425000000232,
            "durationTicks": 96,
            "midi": 0,
            "name": "C-1",
            "ticks": 45888,
            "time": 40.9714115,
            "velocity": 0.1732283464566929
          },
          {
            "duration": 0.08571425000000232,
            "durationTicks": 96,
            "midi": 0,
            "name": "C-1",
            "ticks": 45888,
            "time": 40.9714115,
            "velocity": 0.1732283464566929
          },
          {
            "duration": 0.08571424999999522,
            "durationTicks": 96,
            "midi": 0,
            "name": "C-1",
            "ticks": 45984,
            "time": 41.057125750000004,
            "velocity": 0.1732283464566929
          },
          {
            "duration": 0.08571425000000232,
            "durationTicks": 96,
            "midi": 0,
            "name": "C-1",
            "ticks": 46080,
            "time": 41.14284,
            "velocity": 0.1732283464566929
          },
          {
            "duration": 0.08571425000000232,
            "durationTicks": 96,
            "midi": 0,
            "name": "C-1",
            "ticks": 46080,
            "time": 41.14284,
            "velocity": 0.1732283464566929
          },
          {
            "duration": 0.08571425000000232,
            "durationTicks": 96,
            "midi": 0,
            "name": "C-1",
            "ticks": 46080,
            "time": 41.14284,
            "velocity": 0.1732283464566929
          },
          {
            "duration": 0.08571425000000232,
            "durationTicks": 96,
            "midi": 0,
            "name": "C-1",
            "ticks": 46080,
            "time": 41.14284,
            "velocity": 0.1732283464566929
          },
          {
            "duration": 0.08571425000000232,
            "durationTicks": 96,
            "midi": 0,
            "name": "C-1",
            "ticks": 46080,
            "time": 41.14284,
            "velocity": 0.1732283464566929
          },
          {
            "duration": 0.08571425000000232,
            "durationTicks": 96,
            "midi": 0,
            "name": "C-1",
            "ticks": 46176,
            "time": 41.22855425,
            "velocity": 0.1732283464566929
          },
          {
            "duration": 0.08571424999999522,
            "durationTicks": 96,
            "midi": 0,
            "name": "C-1",
            "ticks": 46272,
            "time": 41.314268500000004,
            "velocity": 0.1732283464566929
          },
          {
            "duration": 0.08571424999999522,
            "durationTicks": 96,
            "midi": 0,
            "name": "C-1",
            "ticks": 46272,
            "time": 41.314268500000004,
            "velocity": 0.1732283464566929
          },
          {
            "duration": 0.08571424999999522,
            "durationTicks": 96,
            "midi": 0,
            "name": "C-1",
            "ticks": 46272,
            "time": 41.314268500000004,
            "velocity": 0.1732283464566929
          },
          {
            "duration": 0.08571425000000232,
            "durationTicks": 96,
            "midi": 0,
            "name": "C-1",
            "ticks": 46368,
            "time": 41.39998275,
            "velocity": 0.1732283464566929
          },
          {
            "duration": 0.08571425000000232,
            "durationTicks": 96,
            "midi": 0,
            "name": "C-1",
            "ticks": 46464,
            "time": 41.485697,
            "velocity": 0.1732283464566929
          },
          {
            "duration": 0.08571425000000232,
            "durationTicks": 96,
            "midi": 0,
            "name": "C-1",
            "ticks": 46464,
            "time": 41.485697,
            "velocity": 0.1732283464566929
          },
          {
            "duration": 0.08571425000000232,
            "durationTicks": 96,
            "midi": 0,
            "name": "C-1",
            "ticks": 46464,
            "time": 41.485697,
            "velocity": 0.1732283464566929
          },
          {
            "duration": 0.08571424999999522,
            "durationTicks": 96,
            "midi": 0,
            "name": "C-1",
            "ticks": 46560,
            "time": 41.571411250000004,
            "velocity": 0.1732283464566929
          },
          {
            "duration": 0.08571425000000232,
            "durationTicks": 96,
            "midi": 0,
            "name": "C-1",
            "ticks": 46656,
            "time": 41.6571255,
            "velocity": 0.1732283464566929
          },
          {
            "duration": 0.08571425000000232,
            "durationTicks": 96,
            "midi": 0,
            "name": "C-1",
            "ticks": 46656,
            "time": 41.6571255,
            "velocity": 0.1732283464566929
          },
          {
            "duration": 0.08571425000000232,
            "durationTicks": 96,
            "midi": 0,
            "name": "C-1",
            "ticks": 46656,
            "time": 41.6571255,
            "velocity": 0.1732283464566929
          },
          {
            "duration": 0.08571425000000232,
            "durationTicks": 96,
            "midi": 0,
            "name": "C-1",
            "ticks": 46752,
            "time": 41.74283975,
            "velocity": 0.1732283464566929
          },
          {
            "duration": 0.08571425000000232,
            "durationTicks": 96,
            "midi": 0,
            "name": "C-1",
            "ticks": 46848,
            "time": 41.828554000000004,
            "velocity": 0.1732283464566929
          },
          {
            "duration": 0.08571425000000232,
            "durationTicks": 96,
            "midi": 0,
            "name": "C-1",
            "ticks": 46848,
            "time": 41.828554000000004,
            "velocity": 0.1732283464566929
          },
          {
            "duration": 0.08571425000000232,
            "durationTicks": 96,
            "midi": 0,
            "name": "C-1",
            "ticks": 46848,
            "time": 41.828554000000004,
            "velocity": 0.1732283464566929
          },
          {
            "duration": 0.08571424999999522,
            "durationTicks": 96,
            "midi": 0,
            "name": "C-1",
            "ticks": 46944,
            "time": 41.914268250000006,
            "velocity": 0.1732283464566929
          },
          {
            "duration": 0.08571425000000232,
            "durationTicks": 96,
            "midi": 0,
            "name": "C-1",
            "ticks": 47040,
            "time": 41.9999825,
            "velocity": 0.1732283464566929
          },
          {
            "duration": 0.08571425000000232,
            "durationTicks": 96,
            "midi": 0,
            "name": "C-1",
            "ticks": 47040,
            "time": 41.9999825,
            "velocity": 0.1732283464566929
          },
          {
            "duration": 0.08571425000000232,
            "durationTicks": 96,
            "midi": 0,
            "name": "C-1",
            "ticks": 47040,
            "time": 41.9999825,
            "velocity": 0.1732283464566929
          },
          {
            "duration": 0.08571425000000232,
            "durationTicks": 96,
            "midi": 0,
            "name": "C-1",
            "ticks": 47136,
            "time": 42.085696750000004,
            "velocity": 0.1732283464566929
          },
          {
            "duration": 0.08571424999999522,
            "durationTicks": 96,
            "midi": 0,
            "name": "C-1",
            "ticks": 47232,
            "time": 42.171411000000006,
            "velocity": 0.1732283464566929
          },
          {
            "duration": 0.08571424999999522,
            "durationTicks": 96,
            "midi": 0,
            "name": "C-1",
            "ticks": 47232,
            "time": 42.171411000000006,
            "velocity": 0.1732283464566929
          },
          {
            "duration": 0.08571424999999522,
            "durationTicks": 96,
            "midi": 0,
            "name": "C-1",
            "ticks": 47232,
            "time": 42.171411000000006,
            "velocity": 0.1732283464566929
          },
          {
            "duration": 0.08571425000000232,
            "durationTicks": 96,
            "midi": 0,
            "name": "C-1",
            "ticks": 47328,
            "time": 42.25712525,
            "velocity": 0.1732283464566929
          },
          {
            "duration": 0.08571425000000232,
            "durationTicks": 96,
            "midi": 0,
            "name": "C-1",
            "ticks": 47424,
            "time": 42.342839500000004,
            "velocity": 0.1732283464566929
          },
          {
            "duration": 0.08571425000000232,
            "durationTicks": 96,
            "midi": 0,
            "name": "C-1",
            "ticks": 47424,
            "time": 42.342839500000004,
            "velocity": 0.1732283464566929
          },
          {
            "duration": 0.08571425000000232,
            "durationTicks": 96,
            "midi": 0,
            "name": "C-1",
            "ticks": 47424,
            "time": 42.342839500000004,
            "velocity": 0.1732283464566929
          },
          {
            "duration": 0.08571424999999522,
            "durationTicks": 96,
            "midi": 0,
            "name": "C-1",
            "ticks": 47520,
            "time": 42.428553750000006,
            "velocity": 0.1732283464566929
          },
          {
            "duration": 0.08571425000000232,
            "durationTicks": 96,
            "midi": 0,
            "name": "C-1",
            "ticks": 47616,
            "time": 42.514268,
            "velocity": 0.1732283464566929
          },
          {
            "duration": 0.08571425000000232,
            "durationTicks": 96,
            "midi": 0,
            "name": "C-1",
            "ticks": 47616,
            "time": 42.514268,
            "velocity": 0.1732283464566929
          },
          {
            "duration": 0.08571425000000232,
            "durationTicks": 96,
            "midi": 0,
            "name": "C-1",
            "ticks": 47616,
            "time": 42.514268,
            "velocity": 0.1732283464566929
          },
          {
            "duration": 0.08571425000000232,
            "durationTicks": 96,
            "midi": 0,
            "name": "C-1",
            "ticks": 47616,
            "time": 42.514268,
            "velocity": 0.1732283464566929
          },
          {
            "duration": 0.08571425000000232,
            "durationTicks": 96,
            "midi": 0,
            "name": "C-1",
            "ticks": 47616,
            "time": 42.514268,
            "velocity": 0.1732283464566929
          },
          {
            "duration": 0.08571425000000232,
            "durationTicks": 96,
            "midi": 0,
            "name": "C-1",
            "ticks": 47712,
            "time": 42.599982250000004,
            "velocity": 0.1732283464566929
          },
          {
            "duration": 0.08571424999999522,
            "durationTicks": 96,
            "midi": 0,
            "name": "C-1",
            "ticks": 47808,
            "time": 42.685696500000006,
            "velocity": 0.1732283464566929
          },
          {
            "duration": 0.08571424999999522,
            "durationTicks": 96,
            "midi": 0,
            "name": "C-1",
            "ticks": 47808,
            "time": 42.685696500000006,
            "velocity": 0.1732283464566929
          },
          {
            "duration": 0.08571424999999522,
            "durationTicks": 96,
            "midi": 0,
            "name": "C-1",
            "ticks": 47808,
            "time": 42.685696500000006,
            "velocity": 0.1732283464566929
          },
          {
            "duration": 0.08571425000000232,
            "durationTicks": 96,
            "midi": 0,
            "name": "C-1",
            "ticks": 47904,
            "time": 42.77141075,
            "velocity": 0.1732283464566929
          },
          {
            "duration": 0.08571425000000232,
            "durationTicks": 96,
            "midi": 0,
            "name": "C-1",
            "ticks": 48000,
            "time": 42.857125,
            "velocity": 0.1732283464566929
          },
          {
            "duration": 0.08571425000000232,
            "durationTicks": 96,
            "midi": 0,
            "name": "C-1",
            "ticks": 48000,
            "time": 42.857125,
            "velocity": 0.1732283464566929
          },
          {
            "duration": 0.08571425000000232,
            "durationTicks": 96,
            "midi": 0,
            "name": "C-1",
            "ticks": 48000,
            "time": 42.857125,
            "velocity": 0.1732283464566929
          },
          {
            "duration": 0.08571425000000232,
            "durationTicks": 96,
            "midi": 0,
            "name": "C-1",
            "ticks": 48000,
            "time": 42.857125,
            "velocity": 0.1732283464566929
          },
          {
            "duration": 0.08571425000000232,
            "durationTicks": 96,
            "midi": 0,
            "name": "C-1",
            "ticks": 48000,
            "time": 42.857125,
            "velocity": 0.1732283464566929
          },
          {
            "duration": 0.08571424999999522,
            "durationTicks": 96,
            "midi": 0,
            "name": "C-1",
            "ticks": 48096,
            "time": 42.942839250000006,
            "velocity": 0.1732283464566929
          },
          {
            "duration": 0.08571425000000232,
            "durationTicks": 96,
            "midi": 0,
            "name": "C-1",
            "ticks": 48192,
            "time": 43.0285535,
            "velocity": 0.1732283464566929
          },
          {
            "duration": 0.08571425000000232,
            "durationTicks": 96,
            "midi": 0,
            "name": "C-1",
            "ticks": 48192,
            "time": 43.0285535,
            "velocity": 0.1732283464566929
          },
          {
            "duration": 0.08571425000000232,
            "durationTicks": 96,
            "midi": 0,
            "name": "C-1",
            "ticks": 48192,
            "time": 43.0285535,
            "velocity": 0.1732283464566929
          },
          {
            "duration": 0.08571425000000232,
            "durationTicks": 96,
            "midi": 0,
            "name": "C-1",
            "ticks": 48288,
            "time": 43.11426775,
            "velocity": 0.1732283464566929
          },
          {
            "duration": 0.08571424999999522,
            "durationTicks": 96,
            "midi": 0,
            "name": "C-1",
            "ticks": 48384,
            "time": 43.199982000000006,
            "velocity": 0.1732283464566929
          },
          {
            "duration": 0.08571424999999522,
            "durationTicks": 96,
            "midi": 0,
            "name": "C-1",
            "ticks": 48384,
            "time": 43.199982000000006,
            "velocity": 0.1732283464566929
          },
          {
            "duration": 0.08571424999999522,
            "durationTicks": 96,
            "midi": 0,
            "name": "C-1",
            "ticks": 48384,
            "time": 43.199982000000006,
            "velocity": 0.1732283464566929
          },
          {
            "duration": 0.08571424999999522,
            "durationTicks": 96,
            "midi": 0,
            "name": "C-1",
            "ticks": 48384,
            "time": 43.199982000000006,
            "velocity": 0.1732283464566929
          },
          {
            "duration": 0.08571424999999522,
            "durationTicks": 96,
            "midi": 0,
            "name": "C-1",
            "ticks": 48384,
            "time": 43.199982000000006,
            "velocity": 0.1732283464566929
          },
          {
            "duration": 0.08571425000000232,
            "durationTicks": 96,
            "midi": 0,
            "name": "C-1",
            "ticks": 48480,
            "time": 43.28569625,
            "velocity": 0.1732283464566929
          },
          {
            "duration": 0.08571425000000232,
            "durationTicks": 96,
            "midi": 0,
            "name": "C-1",
            "ticks": 48576,
            "time": 43.3714105,
            "velocity": 0.1732283464566929
          },
          {
            "duration": 0.08571425000000232,
            "durationTicks": 96,
            "midi": 0,
            "name": "C-1",
            "ticks": 48576,
            "time": 43.3714105,
            "velocity": 0.1732283464566929
          },
          {
            "duration": 0.08571425000000232,
            "durationTicks": 96,
            "midi": 0,
            "name": "C-1",
            "ticks": 48576,
            "time": 43.3714105,
            "velocity": 0.1732283464566929
          },
          {
            "duration": 0.08571424999999522,
            "durationTicks": 96,
            "midi": 0,
            "name": "C-1",
            "ticks": 48672,
            "time": 43.457124750000006,
            "velocity": 0.1732283464566929
          },
          {
            "duration": 0.08571425000000232,
            "durationTicks": 96,
            "midi": 0,
            "name": "C-1",
            "ticks": 48768,
            "time": 43.542839,
            "velocity": 0.1732283464566929
          },
          {
            "duration": 0.08571425000000232,
            "durationTicks": 96,
            "midi": 0,
            "name": "C-1",
            "ticks": 48768,
            "time": 43.542839,
            "velocity": 0.1732283464566929
          },
          {
            "duration": 0.08571425000000232,
            "durationTicks": 96,
            "midi": 0,
            "name": "C-1",
            "ticks": 48768,
            "time": 43.542839,
            "velocity": 0.1732283464566929
          },
          {
            "duration": 0.08571425000000232,
            "durationTicks": 96,
            "midi": 0,
            "name": "C-1",
            "ticks": 48768,
            "time": 43.542839,
            "velocity": 0.1732283464566929
          },
          {
            "duration": 0.08571425000000232,
            "durationTicks": 96,
            "midi": 0,
            "name": "C-1",
            "ticks": 48768,
            "time": 43.542839,
            "velocity": 0.1732283464566929
          },
          {
            "duration": 0.08571425000000232,
            "durationTicks": 96,
            "midi": 0,
            "name": "C-1",
            "ticks": 48864,
            "time": 43.62855325,
            "velocity": 0.1732283464566929
          },
          {
            "duration": 0.08571424999999522,
            "durationTicks": 96,
            "midi": 0,
            "name": "C-1",
            "ticks": 48960,
            "time": 43.714267500000005,
            "velocity": 0.1732283464566929
          },
          {
            "duration": 0.08571424999999522,
            "durationTicks": 96,
            "midi": 0,
            "name": "C-1",
            "ticks": 48960,
            "time": 43.714267500000005,
            "velocity": 0.1732283464566929
          },
          {
            "duration": 0.08571424999999522,
            "durationTicks": 96,
            "midi": 0,
            "name": "C-1",
            "ticks": 48960,
            "time": 43.714267500000005,
            "velocity": 0.1732283464566929
          },
          {
            "duration": 0.08571425000000232,
            "durationTicks": 96,
            "midi": 0,
            "name": "C-1",
            "ticks": 49056,
            "time": 43.79998175,
            "velocity": 0.1732283464566929
          },
          {
            "duration": 0.08571425000000232,
            "durationTicks": 96,
            "midi": 0,
            "name": "C-1",
            "ticks": 49152,
            "time": 43.885696,
            "velocity": 0.1732283464566929
          },
          {
            "duration": 0.08571425000000232,
            "durationTicks": 96,
            "midi": 0,
            "name": "C-1",
            "ticks": 49152,
            "time": 43.885696,
            "velocity": 0.1732283464566929
          },
          {
            "duration": 0.08571425000000232,
            "durationTicks": 96,
            "midi": 0,
            "name": "C-1",
            "ticks": 49152,
            "time": 43.885696,
            "velocity": 0.1732283464566929
          },
          {
            "duration": 0.08571425000000232,
            "durationTicks": 96,
            "midi": 0,
            "name": "C-1",
            "ticks": 49152,
            "time": 43.885696,
            "velocity": 0.1732283464566929
          },
          {
            "duration": 0.08571425000000232,
            "durationTicks": 96,
            "midi": 0,
            "name": "C-1",
            "ticks": 49152,
            "time": 43.885696,
            "velocity": 0.1732283464566929
          },
          {
            "duration": 0.08571424999999522,
            "durationTicks": 96,
            "midi": 0,
            "name": "C-1",
            "ticks": 49248,
            "time": 43.971410250000005,
            "velocity": 0.1732283464566929
          },
          {
            "duration": 0.08571425000000232,
            "durationTicks": 96,
            "midi": 0,
            "name": "C-1",
            "ticks": 49344,
            "time": 44.0571245,
            "velocity": 0.1732283464566929
          },
          {
            "duration": 0.08571425000000232,
            "durationTicks": 96,
            "midi": 0,
            "name": "C-1",
            "ticks": 49344,
            "time": 44.0571245,
            "velocity": 0.1732283464566929
          },
          {
            "duration": 0.08571425000000232,
            "durationTicks": 96,
            "midi": 0,
            "name": "C-1",
            "ticks": 49344,
            "time": 44.0571245,
            "velocity": 0.1732283464566929
          },
          {
            "duration": 0.08571425000000232,
            "durationTicks": 96,
            "midi": 0,
            "name": "C-1",
            "ticks": 49440,
            "time": 44.14283875,
            "velocity": 0.1732283464566929
          },
          {
            "duration": 0.08571424999999522,
            "durationTicks": 96,
            "midi": 0,
            "name": "C-1",
            "ticks": 49536,
            "time": 44.228553000000005,
            "velocity": 0.1732283464566929
          },
          {
            "duration": 0.08571424999999522,
            "durationTicks": 96,
            "midi": 0,
            "name": "C-1",
            "ticks": 49536,
            "time": 44.228553000000005,
            "velocity": 0.1732283464566929
          },
          {
            "duration": 0.08571424999999522,
            "durationTicks": 96,
            "midi": 0,
            "name": "C-1",
            "ticks": 49536,
            "time": 44.228553000000005,
            "velocity": 0.1732283464566929
          },
          {
            "duration": 0.08571425000000232,
            "durationTicks": 96,
            "midi": 0,
            "name": "C-1",
            "ticks": 49632,
            "time": 44.31426725,
            "velocity": 0.1732283464566929
          },
          {
            "duration": 0.08571425000000232,
            "durationTicks": 96,
            "midi": 0,
            "name": "C-1",
            "ticks": 49728,
            "time": 44.3999815,
            "velocity": 0.1732283464566929
          },
          {
            "duration": 0.08571425000000232,
            "durationTicks": 96,
            "midi": 0,
            "name": "C-1",
            "ticks": 49728,
            "time": 44.3999815,
            "velocity": 0.1732283464566929
          },
          {
            "duration": 0.08571425000000232,
            "durationTicks": 96,
            "midi": 0,
            "name": "C-1",
            "ticks": 49728,
            "time": 44.3999815,
            "velocity": 0.1732283464566929
          },
          {
            "duration": 0.08571424999999522,
            "durationTicks": 96,
            "midi": 0,
            "name": "C-1",
            "ticks": 49824,
            "time": 44.485695750000005,
            "velocity": 0.1732283464566929
          },
          {
            "duration": 0.08571425000000232,
            "durationTicks": 96,
            "midi": 0,
            "name": "C-1",
            "ticks": 49920,
            "time": 44.57141,
            "velocity": 0.1732283464566929
          },
          {
            "duration": 0.08571425000000232,
            "durationTicks": 96,
            "midi": 0,
            "name": "C-1",
            "ticks": 50016,
            "time": 44.65712425,
            "velocity": 0.1732283464566929
          },
          {
            "duration": 0.08571424999999522,
            "durationTicks": 96,
            "midi": 0,
            "name": "C-1",
            "ticks": 50112,
            "time": 44.742838500000005,
            "velocity": 0.1732283464566929
          },
          {
            "duration": 0.08571424999999522,
            "durationTicks": 96,
            "midi": 0,
            "name": "C-1",
            "ticks": 50112,
            "time": 44.742838500000005,
            "velocity": 0.1732283464566929
          },
          {
            "duration": 0.08571424999999522,
            "durationTicks": 96,
            "midi": 0,
            "name": "C-1",
            "ticks": 50112,
            "time": 44.742838500000005,
            "velocity": 0.1732283464566929
          },
          {
            "duration": 0.08571425000000232,
            "durationTicks": 96,
            "midi": 0,
            "name": "C-1",
            "ticks": 50208,
            "time": 44.82855275,
            "velocity": 0.1732283464566929
          },
          {
            "duration": 0.08571425000000232,
            "durationTicks": 96,
            "midi": 0,
            "name": "C-1",
            "ticks": 50304,
            "time": 44.914267,
            "velocity": 0.1732283464566929
          },
          {
            "duration": 0.08571425000000232,
            "durationTicks": 96,
            "midi": 0,
            "name": "C-1",
            "ticks": 50304,
            "time": 44.914267,
            "velocity": 0.1732283464566929
          },
          {
            "duration": 0.08571425000000232,
            "durationTicks": 96,
            "midi": 0,
            "name": "C-1",
            "ticks": 50304,
            "time": 44.914267,
            "velocity": 0.1732283464566929
          },
          {
            "duration": 0.08571424999999522,
            "durationTicks": 96,
            "midi": 0,
            "name": "C-1",
            "ticks": 50400,
            "time": 44.999981250000005,
            "velocity": 0.1732283464566929
          },
          {
            "duration": 0.08571425000000232,
            "durationTicks": 96,
            "midi": 0,
            "name": "C-1",
            "ticks": 50496,
            "time": 45.0856955,
            "velocity": 0.1732283464566929
          },
          {
            "duration": 0.08571425000000232,
            "durationTicks": 96,
            "midi": 0,
            "name": "C-1",
            "ticks": 50496,
            "time": 45.0856955,
            "velocity": 0.1732283464566929
          },
          {
            "duration": 0.08571425000000232,
            "durationTicks": 96,
            "midi": 0,
            "name": "C-1",
            "ticks": 50496,
            "time": 45.0856955,
            "velocity": 0.1732283464566929
          },
          {
            "duration": 0.08571425000000232,
            "durationTicks": 96,
            "midi": 0,
            "name": "C-1",
            "ticks": 50592,
            "time": 45.17140975,
            "velocity": 0.1732283464566929
          },
          {
            "duration": 0.08571424999999522,
            "durationTicks": 96,
            "midi": 0,
            "name": "C-1",
            "ticks": 50688,
            "time": 45.257124000000005,
            "velocity": 0.1732283464566929
          },
          {
            "duration": 0.08571424999999522,
            "durationTicks": 96,
            "midi": 0,
            "name": "C-1",
            "ticks": 50688,
            "time": 45.257124000000005,
            "velocity": 0.1732283464566929
          },
          {
            "duration": 0.08571424999999522,
            "durationTicks": 96,
            "midi": 0,
            "name": "C-1",
            "ticks": 50688,
            "time": 45.257124000000005,
            "velocity": 0.1732283464566929
          },
          {
            "duration": 0.08571425000000232,
            "durationTicks": 96,
            "midi": 0,
            "name": "C-1",
            "ticks": 50784,
            "time": 45.34283825,
            "velocity": 0.1732283464566929
          },
          {
            "duration": 0.08571425000000232,
            "durationTicks": 96,
            "midi": 0,
            "name": "C-1",
            "ticks": 50880,
            "time": 45.4285525,
            "velocity": 0.1732283464566929
          },
          {
            "duration": 0.08571425000000232,
            "durationTicks": 96,
            "midi": 0,
            "name": "C-1",
            "ticks": 50880,
            "time": 45.4285525,
            "velocity": 0.1732283464566929
          },
          {
            "duration": 0.08571425000000232,
            "durationTicks": 96,
            "midi": 0,
            "name": "C-1",
            "ticks": 50880,
            "time": 45.4285525,
            "velocity": 0.1732283464566929
          },
          {
            "duration": 0.08571424999999522,
            "durationTicks": 96,
            "midi": 0,
            "name": "C-1",
            "ticks": 50976,
            "time": 45.514266750000004,
            "velocity": 0.1732283464566929
          },
          {
            "duration": 0.08571425000000232,
            "durationTicks": 96,
            "midi": 0,
            "name": "C-1",
            "ticks": 51072,
            "time": 45.599981,
            "velocity": 0.1732283464566929
          },
          {
            "duration": 0.08571425000000232,
            "durationTicks": 96,
            "midi": 0,
            "name": "C-1",
            "ticks": 51072,
            "time": 45.599981,
            "velocity": 0.1732283464566929
          },
          {
            "duration": 0.08571425000000232,
            "durationTicks": 96,
            "midi": 0,
            "name": "C-1",
            "ticks": 51072,
            "time": 45.599981,
            "velocity": 0.1732283464566929
          },
          {
            "duration": 0.08571425000000232,
            "durationTicks": 96,
            "midi": 0,
            "name": "C-1",
            "ticks": 51168,
            "time": 45.68569525,
            "velocity": 0.1732283464566929
          },
          {
            "duration": 0.08571424999999522,
            "durationTicks": 96,
            "midi": 0,
            "name": "C-1",
            "ticks": 51264,
            "time": 45.771409500000004,
            "velocity": 0.1732283464566929
          },
          {
            "duration": 0.08571424999999522,
            "durationTicks": 96,
            "midi": 0,
            "name": "C-1",
            "ticks": 51264,
            "time": 45.771409500000004,
            "velocity": 0.1732283464566929
          },
          {
            "duration": 0.08571424999999522,
            "durationTicks": 96,
            "midi": 0,
            "name": "C-1",
            "ticks": 51264,
            "time": 45.771409500000004,
            "velocity": 0.1732283464566929
          },
          {
            "duration": 0.08571425000000232,
            "durationTicks": 96,
            "midi": 0,
            "name": "C-1",
            "ticks": 51360,
            "time": 45.85712375,
            "velocity": 0.1732283464566929
          },
          {
            "duration": 0.08571425000000232,
            "durationTicks": 96,
            "midi": 0,
            "name": "C-1",
            "ticks": 51456,
            "time": 45.942838,
            "velocity": 0.1732283464566929
          },
          {
            "duration": 0.08571425000000232,
            "durationTicks": 96,
            "midi": 0,
            "name": "C-1",
            "ticks": 51552,
            "time": 46.028552250000004,
            "velocity": 0.1732283464566929
          },
          {
            "duration": 0.08571424999999522,
            "durationTicks": 96,
            "midi": 0,
            "name": "C-1",
            "ticks": 51648,
            "time": 46.11426650000001,
            "velocity": 0.1732283464566929
          },
          {
            "duration": 0.08571424999999522,
            "durationTicks": 96,
            "midi": 0,
            "name": "C-1",
            "ticks": 51648,
            "time": 46.11426650000001,
            "velocity": 0.1732283464566929
          },
          {
            "duration": 0.08571424999999522,
            "durationTicks": 96,
            "midi": 0,
            "name": "C-1",
            "ticks": 51648,
            "time": 46.11426650000001,
            "velocity": 0.1732283464566929
          },
          {
            "duration": 0.08571425000000232,
            "durationTicks": 96,
            "midi": 0,
            "name": "C-1",
            "ticks": 51744,
            "time": 46.19998075,
            "velocity": 0.1732283464566929
          },
          {
            "duration": 0.08571425000000232,
            "durationTicks": 96,
            "midi": 0,
            "name": "C-1",
            "ticks": 51840,
            "time": 46.285695000000004,
            "velocity": 0.1732283464566929
          },
          {
            "duration": 0.08571425000000232,
            "durationTicks": 96,
            "midi": 0,
            "name": "C-1",
            "ticks": 51840,
            "time": 46.285695000000004,
            "velocity": 0.1732283464566929
          },
          {
            "duration": 0.08571425000000232,
            "durationTicks": 96,
            "midi": 0,
            "name": "C-1",
            "ticks": 51840,
            "time": 46.285695000000004,
            "velocity": 0.1732283464566929
          },
          {
            "duration": 0.08571424999999522,
            "durationTicks": 96,
            "midi": 0,
            "name": "C-1",
            "ticks": 51936,
            "time": 46.371409250000006,
            "velocity": 0.1732283464566929
          },
          {
            "duration": 0.08571425000000232,
            "durationTicks": 96,
            "midi": 0,
            "name": "C-1",
            "ticks": 52032,
            "time": 46.4571235,
            "velocity": 0.1732283464566929
          },
          {
            "duration": 0.08571425000000232,
            "durationTicks": 96,
            "midi": 0,
            "name": "C-1",
            "ticks": 52032,
            "time": 46.4571235,
            "velocity": 0.1732283464566929
          },
          {
            "duration": 0.08571425000000232,
            "durationTicks": 96,
            "midi": 0,
            "name": "C-1",
            "ticks": 52032,
            "time": 46.4571235,
            "velocity": 0.1732283464566929
          },
          {
            "duration": 0.08571425000000232,
            "durationTicks": 96,
            "midi": 0,
            "name": "C-1",
            "ticks": 52128,
            "time": 46.542837750000004,
            "velocity": 0.1732283464566929
          },
          {
            "duration": 0.08571424999999522,
            "durationTicks": 96,
            "midi": 0,
            "name": "C-1",
            "ticks": 52224,
            "time": 46.628552000000006,
            "velocity": 0.1732283464566929
          },
          {
            "duration": 0.08571424999999522,
            "durationTicks": 96,
            "midi": 0,
            "name": "C-1",
            "ticks": 52224,
            "time": 46.628552000000006,
            "velocity": 0.1732283464566929
          },
          {
            "duration": 0.08571424999999522,
            "durationTicks": 96,
            "midi": 0,
            "name": "C-1",
            "ticks": 52224,
            "time": 46.628552000000006,
            "velocity": 0.1732283464566929
          },
          {
            "duration": 0.08571424999999522,
            "durationTicks": 96,
            "midi": 0,
            "name": "C-1",
            "ticks": 52224,
            "time": 46.628552000000006,
            "velocity": 0.1732283464566929
          },
          {
            "duration": 0.08571424999999522,
            "durationTicks": 96,
            "midi": 0,
            "name": "C-1",
            "ticks": 52224,
            "time": 46.628552000000006,
            "velocity": 0.1732283464566929
          },
          {
            "duration": 0.08571425000000232,
            "durationTicks": 96,
            "midi": 0,
            "name": "C-1",
            "ticks": 52320,
            "time": 46.71426625,
            "velocity": 0.1732283464566929
          },
          {
            "duration": 0.08571425000000232,
            "durationTicks": 96,
            "midi": 0,
            "name": "C-1",
            "ticks": 52416,
            "time": 46.799980500000004,
            "velocity": 0.1732283464566929
          },
          {
            "duration": 0.08571425000000232,
            "durationTicks": 96,
            "midi": 0,
            "name": "C-1",
            "ticks": 52416,
            "time": 46.799980500000004,
            "velocity": 0.1732283464566929
          },
          {
            "duration": 0.08571425000000232,
            "durationTicks": 96,
            "midi": 0,
            "name": "C-1",
            "ticks": 52416,
            "time": 46.799980500000004,
            "velocity": 0.1732283464566929
          },
          {
            "duration": 0.08571424999999522,
            "durationTicks": 96,
            "midi": 0,
            "name": "C-1",
            "ticks": 52512,
            "time": 46.885694750000006,
            "velocity": 0.1732283464566929
          },
          {
            "duration": 0.08571425000000232,
            "durationTicks": 96,
            "midi": 0,
            "name": "C-1",
            "ticks": 52608,
            "time": 46.971409,
            "velocity": 0.1732283464566929
          },
          {
            "duration": 0.08571425000000232,
            "durationTicks": 96,
            "midi": 0,
            "name": "C-1",
            "ticks": 52608,
            "time": 46.971409,
            "velocity": 0.1732283464566929
          },
          {
            "duration": 0.08571425000000232,
            "durationTicks": 96,
            "midi": 0,
            "name": "C-1",
            "ticks": 52608,
            "time": 46.971409,
            "velocity": 0.1732283464566929
          },
          {
            "duration": 0.08571425000000232,
            "durationTicks": 96,
            "midi": 0,
            "name": "C-1",
            "ticks": 52704,
            "time": 47.057123250000004,
            "velocity": 0.1732283464566929
          },
          {
            "duration": 0.08571424999999522,
            "durationTicks": 96,
            "midi": 0,
            "name": "C-1",
            "ticks": 52800,
            "time": 47.142837500000006,
            "velocity": 0.1732283464566929
          },
          {
            "duration": 0.08571424999999522,
            "durationTicks": 96,
            "midi": 0,
            "name": "C-1",
            "ticks": 52800,
            "time": 47.142837500000006,
            "velocity": 0.1732283464566929
          },
          {
            "duration": 0.08571424999999522,
            "durationTicks": 96,
            "midi": 0,
            "name": "C-1",
            "ticks": 52800,
            "time": 47.142837500000006,
            "velocity": 0.1732283464566929
          },
          {
            "duration": 0.08571425000000232,
            "durationTicks": 96,
            "midi": 0,
            "name": "C-1",
            "ticks": 52896,
            "time": 47.22855175,
            "velocity": 0.1732283464566929
          },
          {
            "duration": 0.08571425000000232,
            "durationTicks": 96,
            "midi": 0,
            "name": "C-1",
            "ticks": 52992,
            "time": 47.314266,
            "velocity": 0.1732283464566929
          },
          {
            "duration": 0.08571424999999522,
            "durationTicks": 96,
            "midi": 0,
            "name": "C-1",
            "ticks": 53088,
            "time": 47.399980250000006,
            "velocity": 0.1732283464566929
          },
          {
            "duration": 0.08571425000000232,
            "durationTicks": 96,
            "midi": 0,
            "name": "C-1",
            "ticks": 53184,
            "time": 47.4856945,
            "velocity": 0.1732283464566929
          },
          {
            "duration": 0.08571425000000232,
            "durationTicks": 96,
            "midi": 0,
            "name": "C-1",
            "ticks": 53184,
            "time": 47.4856945,
            "velocity": 0.1732283464566929
          },
          {
            "duration": 0.08571425000000232,
            "durationTicks": 96,
            "midi": 0,
            "name": "C-1",
            "ticks": 53184,
            "time": 47.4856945,
            "velocity": 0.1732283464566929
          },
          {
            "duration": 0.08571425000000232,
            "durationTicks": 96,
            "midi": 0,
            "name": "C-1",
            "ticks": 53280,
            "time": 47.57140875,
            "velocity": 0.1732283464566929
          },
          {
            "duration": 0.08571424999999522,
            "durationTicks": 96,
            "midi": 0,
            "name": "C-1",
            "ticks": 53376,
            "time": 47.657123000000006,
            "velocity": 0.1732283464566929
          },
          {
            "duration": 0.08571424999999522,
            "durationTicks": 96,
            "midi": 0,
            "name": "C-1",
            "ticks": 53376,
            "time": 47.657123000000006,
            "velocity": 0.1732283464566929
          },
          {
            "duration": 0.08571424999999522,
            "durationTicks": 96,
            "midi": 0,
            "name": "C-1",
            "ticks": 53376,
            "time": 47.657123000000006,
            "velocity": 0.1732283464566929
          },
          {
            "duration": 0.08571425000000232,
            "durationTicks": 96,
            "midi": 0,
            "name": "C-1",
            "ticks": 53472,
            "time": 47.74283725,
            "velocity": 0.1732283464566929
          },
          {
            "duration": 0.08571425000000232,
            "durationTicks": 96,
            "midi": 0,
            "name": "C-1",
            "ticks": 53568,
            "time": 47.8285515,
            "velocity": 0.1732283464566929
          },
          {
            "duration": 0.08571425000000232,
            "durationTicks": 96,
            "midi": 0,
            "name": "C-1",
            "ticks": 53568,
            "time": 47.8285515,
            "velocity": 0.1732283464566929
          },
          {
            "duration": 0.08571425000000232,
            "durationTicks": 96,
            "midi": 0,
            "name": "C-1",
            "ticks": 53568,
            "time": 47.8285515,
            "velocity": 0.1732283464566929
          },
          {
            "duration": 0.08571424999999522,
            "durationTicks": 96,
            "midi": 0,
            "name": "C-1",
            "ticks": 53664,
            "time": 47.914265750000006,
            "velocity": 0.1732283464566929
          },
          {
            "duration": 0.08571425000000232,
            "durationTicks": 96,
            "midi": 0,
            "name": "C-1",
            "ticks": 53760,
            "time": 47.99998,
            "velocity": 0.1732283464566929
          },
          {
            "duration": 0.08571425000000232,
            "durationTicks": 96,
            "midi": 0,
            "name": "C-1",
            "ticks": 53760,
            "time": 47.99998,
            "velocity": 0.1732283464566929
          },
          {
            "duration": 0.08571425000000232,
            "durationTicks": 96,
            "midi": 0,
            "name": "C-1",
            "ticks": 53760,
            "time": 47.99998,
            "velocity": 0.1732283464566929
          },
          {
            "duration": 0.08571425000000232,
            "durationTicks": 96,
            "midi": 0,
            "name": "C-1",
            "ticks": 53760,
            "time": 47.99998,
            "velocity": 0.1732283464566929
          },
          {
            "duration": 0.08571425000000232,
            "durationTicks": 96,
            "midi": 0,
            "name": "C-1",
            "ticks": 53760,
            "time": 47.99998,
            "velocity": 0.1732283464566929
          },
          {
            "duration": 0.08571425000000232,
            "durationTicks": 96,
            "midi": 0,
            "name": "C-1",
            "ticks": 53856,
            "time": 48.08569425,
            "velocity": 0.1732283464566929
          },
          {
            "duration": 0.08571424999999522,
            "durationTicks": 96,
            "midi": 0,
            "name": "C-1",
            "ticks": 53952,
            "time": 48.171408500000005,
            "velocity": 0.1732283464566929
          },
          {
            "duration": 0.08571424999999522,
            "durationTicks": 96,
            "midi": 0,
            "name": "C-1",
            "ticks": 53952,
            "time": 48.171408500000005,
            "velocity": 0.1732283464566929
          },
          {
            "duration": 0.08571424999999522,
            "durationTicks": 96,
            "midi": 0,
            "name": "C-1",
            "ticks": 53952,
            "time": 48.171408500000005,
            "velocity": 0.1732283464566929
          },
          {
            "duration": 0.08571425000000232,
            "durationTicks": 96,
            "midi": 0,
            "name": "C-1",
            "ticks": 54048,
            "time": 48.25712275,
            "velocity": 0.1732283464566929
          },
          {
            "duration": 0.08571425000000232,
            "durationTicks": 96,
            "midi": 0,
            "name": "C-1",
            "ticks": 54144,
            "time": 48.342837,
            "velocity": 0.1732283464566929
          },
          {
            "duration": 0.08571425000000232,
            "durationTicks": 96,
            "midi": 0,
            "name": "C-1",
            "ticks": 54144,
            "time": 48.342837,
            "velocity": 0.1732283464566929
          },
          {
            "duration": 0.08571425000000232,
            "durationTicks": 96,
            "midi": 0,
            "name": "C-1",
            "ticks": 54144,
            "time": 48.342837,
            "velocity": 0.1732283464566929
          },
          {
            "duration": 0.08571424999999522,
            "durationTicks": 96,
            "midi": 0,
            "name": "C-1",
            "ticks": 54240,
            "time": 48.428551250000005,
            "velocity": 0.1732283464566929
          },
          {
            "duration": 0.08571425000000232,
            "durationTicks": 96,
            "midi": 0,
            "name": "C-1",
            "ticks": 54336,
            "time": 48.5142655,
            "velocity": 0.1732283464566929
          },
          {
            "duration": 0.08571425000000232,
            "durationTicks": 96,
            "midi": 0,
            "name": "C-1",
            "ticks": 54336,
            "time": 48.5142655,
            "velocity": 0.1732283464566929
          },
          {
            "duration": 0.08571425000000232,
            "durationTicks": 96,
            "midi": 0,
            "name": "C-1",
            "ticks": 54336,
            "time": 48.5142655,
            "velocity": 0.1732283464566929
          },
          {
            "duration": 0.08571425000000232,
            "durationTicks": 96,
            "midi": 0,
            "name": "C-1",
            "ticks": 54432,
            "time": 48.59997975,
            "velocity": 0.1732283464566929
          },
          {
            "duration": 0.08571424999999522,
            "durationTicks": 96,
            "midi": 0,
            "name": "C-1",
            "ticks": 54528,
            "time": 48.685694000000005,
            "velocity": 0.1732283464566929
          },
          {
            "duration": 0.08571424999999522,
            "durationTicks": 96,
            "midi": 0,
            "name": "C-1",
            "ticks": 54528,
            "time": 48.685694000000005,
            "velocity": 0.1732283464566929
          },
          {
            "duration": 0.08571424999999522,
            "durationTicks": 96,
            "midi": 0,
            "name": "C-1",
            "ticks": 54528,
            "time": 48.685694000000005,
            "velocity": 0.1732283464566929
          },
          {
            "duration": 0.08571424999999522,
            "durationTicks": 96,
            "midi": 0,
            "name": "C-1",
            "ticks": 54528,
            "time": 48.685694000000005,
            "velocity": 0.1732283464566929
          },
          {
            "duration": 0.08571424999999522,
            "durationTicks": 96,
            "midi": 0,
            "name": "C-1",
            "ticks": 54528,
            "time": 48.685694000000005,
            "velocity": 0.1732283464566929
          },
          {
            "duration": 0.08571425000000232,
            "durationTicks": 96,
            "midi": 0,
            "name": "C-1",
            "ticks": 54624,
            "time": 48.77140825,
            "velocity": 0.1732283464566929
          },
          {
            "duration": 0.08571425000000232,
            "durationTicks": 96,
            "midi": 0,
            "name": "C-1",
            "ticks": 54720,
            "time": 48.8571225,
            "velocity": 0.1732283464566929
          },
          {
            "duration": 0.08571425000000232,
            "durationTicks": 96,
            "midi": 0,
            "name": "C-1",
            "ticks": 54720,
            "time": 48.8571225,
            "velocity": 0.1732283464566929
          },
          {
            "duration": 0.08571425000000232,
            "durationTicks": 96,
            "midi": 0,
            "name": "C-1",
            "ticks": 54720,
            "time": 48.8571225,
            "velocity": 0.1732283464566929
          },
          {
            "duration": 0.08571424999999522,
            "durationTicks": 96,
            "midi": 0,
            "name": "C-1",
            "ticks": 54816,
            "time": 48.942836750000005,
            "velocity": 0.1732283464566929
          },
          {
            "duration": 0.08571425000000232,
            "durationTicks": 96,
            "midi": 0,
            "name": "C-1",
            "ticks": 54912,
            "time": 49.028551,
            "velocity": 0.1732283464566929
          },
          {
            "duration": 0.08571425000000232,
            "durationTicks": 96,
            "midi": 0,
            "name": "C-1",
            "ticks": 54912,
            "time": 49.028551,
            "velocity": 0.1732283464566929
          },
          {
            "duration": 0.08571425000000232,
            "durationTicks": 96,
            "midi": 0,
            "name": "C-1",
            "ticks": 54912,
            "time": 49.028551,
            "velocity": 0.1732283464566929
          },
          {
            "duration": 0.08571425000000232,
            "durationTicks": 96,
            "midi": 0,
            "name": "C-1",
            "ticks": 55008,
            "time": 49.11426525,
            "velocity": 0.1732283464566929
          },
          {
            "duration": 0.08571424999999522,
            "durationTicks": 96,
            "midi": 0,
            "name": "C-1",
            "ticks": 55104,
            "time": 49.199979500000005,
            "velocity": 0.1732283464566929
          },
          {
            "duration": 0.08571424999999522,
            "durationTicks": 96,
            "midi": 0,
            "name": "C-1",
            "ticks": 55104,
            "time": 49.199979500000005,
            "velocity": 0.1732283464566929
          },
          {
            "duration": 0.08571424999999522,
            "durationTicks": 96,
            "midi": 0,
            "name": "C-1",
            "ticks": 55104,
            "time": 49.199979500000005,
            "velocity": 0.1732283464566929
          },
          {
            "duration": 0.08571425000000232,
            "durationTicks": 96,
            "midi": 0,
            "name": "C-1",
            "ticks": 55200,
            "time": 49.28569375,
            "velocity": 0.1732283464566929
          },
          {
            "duration": 0.08571425000000232,
            "durationTicks": 96,
            "midi": 0,
            "name": "C-1",
            "ticks": 55296,
            "time": 49.371408,
            "velocity": 0.1732283464566929
          },
          {
            "duration": 0.08571425000000232,
            "durationTicks": 96,
            "midi": 0,
            "name": "C-1",
            "ticks": 55296,
            "time": 49.371408,
            "velocity": 0.1732283464566929
          },
          {
            "duration": 0.08571425000000232,
            "durationTicks": 96,
            "midi": 0,
            "name": "C-1",
            "ticks": 55296,
            "time": 49.371408,
            "velocity": 0.1732283464566929
          },
          {
            "duration": 0.08571425000000232,
            "durationTicks": 96,
            "midi": 0,
            "name": "C-1",
            "ticks": 55296,
            "time": 49.371408,
            "velocity": 0.1732283464566929
          },
          {
            "duration": 0.08571425000000232,
            "durationTicks": 96,
            "midi": 0,
            "name": "C-1",
            "ticks": 55296,
            "time": 49.371408,
            "velocity": 0.1732283464566929
          },
          {
            "duration": 0.08571424999999522,
            "durationTicks": 96,
            "midi": 0,
            "name": "C-1",
            "ticks": 55392,
            "time": 49.457122250000005,
            "velocity": 0.1732283464566929
          },
          {
            "duration": 0.08571425000000232,
            "durationTicks": 96,
            "midi": 0,
            "name": "C-1",
            "ticks": 55488,
            "time": 49.5428365,
            "velocity": 0.1732283464566929
          },
          {
            "duration": 0.08571425000000232,
            "durationTicks": 96,
            "midi": 0,
            "name": "C-1",
            "ticks": 55488,
            "time": 49.5428365,
            "velocity": 0.1732283464566929
          },
          {
            "duration": 0.08571425000000232,
            "durationTicks": 96,
            "midi": 0,
            "name": "C-1",
            "ticks": 55488,
            "time": 49.5428365,
            "velocity": 0.1732283464566929
          },
          {
            "duration": 0.08571425000000232,
            "durationTicks": 96,
            "midi": 0,
            "name": "C-1",
            "ticks": 55584,
            "time": 49.62855075,
            "velocity": 0.1732283464566929
          },
          {
            "duration": 0.08571424999999522,
            "durationTicks": 96,
            "midi": 0,
            "name": "C-1",
            "ticks": 55680,
            "time": 49.714265000000005,
            "velocity": 0.1732283464566929
          },
          {
            "duration": 0.08571424999999522,
            "durationTicks": 96,
            "midi": 0,
            "name": "C-1",
            "ticks": 55680,
            "time": 49.714265000000005,
            "velocity": 0.1732283464566929
          },
          {
            "duration": 0.08571424999999522,
            "durationTicks": 96,
            "midi": 0,
            "name": "C-1",
            "ticks": 55680,
            "time": 49.714265000000005,
            "velocity": 0.1732283464566929
          },
          {
            "duration": 0.08571425000000232,
            "durationTicks": 96,
            "midi": 0,
            "name": "C-1",
            "ticks": 55776,
            "time": 49.79997925,
            "velocity": 0.1732283464566929
          },
          {
            "duration": 0.08571425000000232,
            "durationTicks": 96,
            "midi": 0,
            "name": "C-1",
            "ticks": 55872,
            "time": 49.8856935,
            "velocity": 0.1732283464566929
          },
          {
            "duration": 0.08571425000000232,
            "durationTicks": 96,
            "midi": 0,
            "name": "C-1",
            "ticks": 55872,
            "time": 49.8856935,
            "velocity": 0.1732283464566929
          },
          {
            "duration": 0.08571425000000232,
            "durationTicks": 96,
            "midi": 0,
            "name": "C-1",
            "ticks": 55872,
            "time": 49.8856935,
            "velocity": 0.1732283464566929
          },
          {
            "duration": 0.08571425000000232,
            "durationTicks": 96,
            "midi": 0,
            "name": "C-1",
            "ticks": 55968,
            "time": 49.971407750000004,
            "velocity": 0.1732283464566929
          },
          {
            "duration": 0.08571424999999522,
            "durationTicks": 96,
            "midi": 0,
            "name": "C-1",
            "ticks": 56064,
            "time": 50.05712200000001,
            "velocity": 0.1732283464566929
          },
          {
            "duration": 0.08571425000000232,
            "durationTicks": 96,
            "midi": 0,
            "name": "C-1",
            "ticks": 56160,
            "time": 50.14283625,
            "velocity": 0.1732283464566929
          },
          {
            "duration": 0.08571425000000232,
            "durationTicks": 96,
            "midi": 0,
            "name": "C-1",
            "ticks": 56256,
            "time": 50.228550500000004,
            "velocity": 0.1732283464566929
          },
          {
            "duration": 0.08571425000000232,
            "durationTicks": 96,
            "midi": 0,
            "name": "C-1",
            "ticks": 56256,
            "time": 50.228550500000004,
            "velocity": 0.1732283464566929
          },
          {
            "duration": 0.08571425000000232,
            "durationTicks": 96,
            "midi": 0,
            "name": "C-1",
            "ticks": 56256,
            "time": 50.228550500000004,
            "velocity": 0.1732283464566929
          },
          {
            "duration": 0.08571424999999522,
            "durationTicks": 96,
            "midi": 0,
            "name": "C-1",
            "ticks": 56352,
            "time": 50.31426475000001,
            "velocity": 0.1732283464566929
          },
          {
            "duration": 0.08571425000000232,
            "durationTicks": 96,
            "midi": 0,
            "name": "C-1",
            "ticks": 56448,
            "time": 50.399979,
            "velocity": 0.1732283464566929
          },
          {
            "duration": 0.08571425000000232,
            "durationTicks": 96,
            "midi": 0,
            "name": "C-1",
            "ticks": 56448,
            "time": 50.399979,
            "velocity": 0.1732283464566929
          },
          {
            "duration": 0.08571425000000232,
            "durationTicks": 96,
            "midi": 0,
            "name": "C-1",
            "ticks": 56448,
            "time": 50.399979,
            "velocity": 0.1732283464566929
          },
          {
            "duration": 0.08571425000000232,
            "durationTicks": 96,
            "midi": 0,
            "name": "C-1",
            "ticks": 56544,
            "time": 50.485693250000004,
            "velocity": 0.1732283464566929
          },
          {
            "duration": 0.08571424999999522,
            "durationTicks": 96,
            "midi": 0,
            "name": "C-1",
            "ticks": 56640,
            "time": 50.57140750000001,
            "velocity": 0.1732283464566929
          },
          {
            "duration": 0.08571424999999522,
            "durationTicks": 96,
            "midi": 0,
            "name": "C-1",
            "ticks": 56640,
            "time": 50.57140750000001,
            "velocity": 0.1732283464566929
          },
          {
            "duration": 0.08571424999999522,
            "durationTicks": 96,
            "midi": 0,
            "name": "C-1",
            "ticks": 56640,
            "time": 50.57140750000001,
            "velocity": 0.1732283464566929
          },
          {
            "duration": 0.08571425000000232,
            "durationTicks": 96,
            "midi": 0,
            "name": "C-1",
            "ticks": 56736,
            "time": 50.65712175,
            "velocity": 0.1732283464566929
          },
          {
            "duration": 0.08571425000000232,
            "durationTicks": 96,
            "midi": 0,
            "name": "C-1",
            "ticks": 56832,
            "time": 50.742836000000004,
            "velocity": 0.1732283464566929
          },
          {
            "duration": 0.08571425000000232,
            "durationTicks": 96,
            "midi": 0,
            "name": "C-1",
            "ticks": 56832,
            "time": 50.742836000000004,
            "velocity": 0.1732283464566929
          },
          {
            "duration": 0.08571425000000232,
            "durationTicks": 96,
            "midi": 0,
            "name": "C-1",
            "ticks": 56832,
            "time": 50.742836000000004,
            "velocity": 0.1732283464566929
          },
          {
            "duration": 0.08571424999999522,
            "durationTicks": 96,
            "midi": 0,
            "name": "C-1",
            "ticks": 56928,
            "time": 50.828550250000006,
            "velocity": 0.1732283464566929
          },
          {
            "duration": 0.08571425000000232,
            "durationTicks": 96,
            "midi": 0,
            "name": "C-1",
            "ticks": 57024,
            "time": 50.9142645,
            "velocity": 0.1732283464566929
          },
          {
            "duration": 0.08571425000000232,
            "durationTicks": 96,
            "midi": 0,
            "name": "C-1",
            "ticks": 57024,
            "time": 50.9142645,
            "velocity": 0.1732283464566929
          },
          {
            "duration": 0.08571425000000232,
            "durationTicks": 96,
            "midi": 0,
            "name": "C-1",
            "ticks": 57024,
            "time": 50.9142645,
            "velocity": 0.1732283464566929
          },
          {
            "duration": 0.08571425000000232,
            "durationTicks": 96,
            "midi": 0,
            "name": "C-1",
            "ticks": 57120,
            "time": 50.999978750000004,
            "velocity": 0.1732283464566929
          },
          {
            "duration": 0.08571424999999522,
            "durationTicks": 96,
            "midi": 0,
            "name": "C-1",
            "ticks": 57216,
            "time": 51.085693000000006,
            "velocity": 0.1732283464566929
          },
          {
            "duration": 0.08571424999999522,
            "durationTicks": 96,
            "midi": 0,
            "name": "C-1",
            "ticks": 57216,
            "time": 51.085693000000006,
            "velocity": 0.1732283464566929
          },
          {
            "duration": 0.08571424999999522,
            "durationTicks": 96,
            "midi": 0,
            "name": "C-1",
            "ticks": 57216,
            "time": 51.085693000000006,
            "velocity": 0.1732283464566929
          },
          {
            "duration": 0.08571425000000232,
            "durationTicks": 96,
            "midi": 0,
            "name": "C-1",
            "ticks": 57312,
            "time": 51.17140725,
            "velocity": 0.1732283464566929
          },
          {
            "duration": 0.08571425000000232,
            "durationTicks": 96,
            "midi": 0,
            "name": "C-1",
            "ticks": 57408,
            "time": 51.257121500000004,
            "velocity": 0.1732283464566929
          },
          {
            "duration": 0.08571425000000232,
            "durationTicks": 96,
            "midi": 0,
            "name": "C-1",
            "ticks": 57408,
            "time": 51.257121500000004,
            "velocity": 0.1732283464566929
          },
          {
            "duration": 0.08571425000000232,
            "durationTicks": 96,
            "midi": 0,
            "name": "C-1",
            "ticks": 57408,
            "time": 51.257121500000004,
            "velocity": 0.1732283464566929
          },
          {
            "duration": 0.08571424999999522,
            "durationTicks": 96,
            "midi": 0,
            "name": "C-1",
            "ticks": 57504,
            "time": 51.342835750000006,
            "velocity": 0.1732283464566929
          },
          {
            "duration": 0.08571425000000232,
            "durationTicks": 96,
            "midi": 0,
            "name": "C-1",
            "ticks": 57600,
            "time": 51.42855,
            "velocity": 0.1732283464566929
          },
          {
            "duration": 0.08571425000000232,
            "durationTicks": 96,
            "midi": 0,
            "name": "C-1",
            "ticks": 57696,
            "time": 51.514264250000004,
            "velocity": 0.1732283464566929
          },
          {
            "duration": 0.08571424999999522,
            "durationTicks": 96,
            "midi": 0,
            "name": "C-1",
            "ticks": 57792,
            "time": 51.599978500000006,
            "velocity": 0.1732283464566929
          },
          {
            "duration": 0.08571424999999522,
            "durationTicks": 96,
            "midi": 0,
            "name": "C-1",
            "ticks": 57792,
            "time": 51.599978500000006,
            "velocity": 0.1732283464566929
          },
          {
            "duration": 0.08571424999999522,
            "durationTicks": 96,
            "midi": 0,
            "name": "C-1",
            "ticks": 57792,
            "time": 51.599978500000006,
            "velocity": 0.1732283464566929
          },
          {
            "duration": 0.08571425000000232,
            "durationTicks": 96,
            "midi": 0,
            "name": "C-1",
            "ticks": 57888,
            "time": 51.68569275,
            "velocity": 0.1732283464566929
          },
          {
            "duration": 0.08571425000000232,
            "durationTicks": 96,
            "midi": 0,
            "name": "C-1",
            "ticks": 57984,
            "time": 51.771407,
            "velocity": 0.1732283464566929
          },
          {
            "duration": 0.08571425000000232,
            "durationTicks": 96,
            "midi": 0,
            "name": "C-1",
            "ticks": 57984,
            "time": 51.771407,
            "velocity": 0.1732283464566929
          },
          {
            "duration": 0.08571425000000232,
            "durationTicks": 96,
            "midi": 0,
            "name": "C-1",
            "ticks": 57984,
            "time": 51.771407,
            "velocity": 0.1732283464566929
          },
          {
            "duration": 0.08571424999999522,
            "durationTicks": 96,
            "midi": 0,
            "name": "C-1",
            "ticks": 58080,
            "time": 51.857121250000006,
            "velocity": 0.1732283464566929
          },
          {
            "duration": 0.08571425000000232,
            "durationTicks": 96,
            "midi": 0,
            "name": "C-1",
            "ticks": 58176,
            "time": 51.9428355,
            "velocity": 0.1732283464566929
          },
          {
            "duration": 0.08571425000000232,
            "durationTicks": 96,
            "midi": 0,
            "name": "C-1",
            "ticks": 58176,
            "time": 51.9428355,
            "velocity": 0.1732283464566929
          },
          {
            "duration": 0.08571425000000232,
            "durationTicks": 96,
            "midi": 0,
            "name": "C-1",
            "ticks": 58176,
            "time": 51.9428355,
            "velocity": 0.1732283464566929
          },
          {
            "duration": 0.08571425000000232,
            "durationTicks": 96,
            "midi": 0,
            "name": "C-1",
            "ticks": 58272,
            "time": 52.02854975,
            "velocity": 0.1732283464566929
          },
          {
            "duration": 0.08571424999999522,
            "durationTicks": 96,
            "midi": 0,
            "name": "C-1",
            "ticks": 58368,
            "time": 52.114264000000006,
            "velocity": 0.1732283464566929
          },
          {
            "duration": 0.08571424999999522,
            "durationTicks": 96,
            "midi": 0,
            "name": "C-1",
            "ticks": 58368,
            "time": 52.114264000000006,
            "velocity": 0.1732283464566929
          },
          {
            "duration": 0.08571424999999522,
            "durationTicks": 96,
            "midi": 0,
            "name": "C-1",
            "ticks": 58368,
            "time": 52.114264000000006,
            "velocity": 0.1732283464566929
          },
          {
            "duration": 0.08571424999999522,
            "durationTicks": 96,
            "midi": 0,
            "name": "C-1",
            "ticks": 58368,
            "time": 52.114264000000006,
            "velocity": 0.1732283464566929
          },
          {
            "duration": 0.08571424999999522,
            "durationTicks": 96,
            "midi": 0,
            "name": "C-1",
            "ticks": 58368,
            "time": 52.114264000000006,
            "velocity": 0.1732283464566929
          },
          {
            "duration": 0.08571425000000232,
            "durationTicks": 96,
            "midi": 0,
            "name": "C-1",
            "ticks": 58464,
            "time": 52.19997825,
            "velocity": 0.1732283464566929
          },
          {
            "duration": 0.08571425000000232,
            "durationTicks": 96,
            "midi": 0,
            "name": "C-1",
            "ticks": 58560,
            "time": 52.2856925,
            "velocity": 0.1732283464566929
          },
          {
            "duration": 0.08571425000000232,
            "durationTicks": 96,
            "midi": 0,
            "name": "C-1",
            "ticks": 58560,
            "time": 52.2856925,
            "velocity": 0.1732283464566929
          },
          {
            "duration": 0.08571425000000232,
            "durationTicks": 96,
            "midi": 0,
            "name": "C-1",
            "ticks": 58560,
            "time": 52.2856925,
            "velocity": 0.1732283464566929
          },
          {
            "duration": 0.08571424999999522,
            "durationTicks": 96,
            "midi": 0,
            "name": "C-1",
            "ticks": 58656,
            "time": 52.371406750000006,
            "velocity": 0.1732283464566929
          },
          {
            "duration": 0.08571425000000232,
            "durationTicks": 96,
            "midi": 0,
            "name": "C-1",
            "ticks": 58752,
            "time": 52.457121,
            "velocity": 0.1732283464566929
          },
          {
            "duration": 0.08571425000000232,
            "durationTicks": 96,
            "midi": 0,
            "name": "C-1",
            "ticks": 58752,
            "time": 52.457121,
            "velocity": 0.1732283464566929
          },
          {
            "duration": 0.08571425000000232,
            "durationTicks": 96,
            "midi": 0,
            "name": "C-1",
            "ticks": 58752,
            "time": 52.457121,
            "velocity": 0.1732283464566929
          },
          {
            "duration": 0.08571425000000232,
            "durationTicks": 96,
            "midi": 0,
            "name": "C-1",
            "ticks": 58848,
            "time": 52.54283525,
            "velocity": 0.1732283464566929
          },
          {
            "duration": 0.08571424999999522,
            "durationTicks": 96,
            "midi": 0,
            "name": "C-1",
            "ticks": 58944,
            "time": 52.628549500000005,
            "velocity": 0.1732283464566929
          },
          {
            "duration": 0.08571424999999522,
            "durationTicks": 96,
            "midi": 0,
            "name": "C-1",
            "ticks": 58944,
            "time": 52.628549500000005,
            "velocity": 0.1732283464566929
          },
          {
            "duration": 0.08571424999999522,
            "durationTicks": 96,
            "midi": 0,
            "name": "C-1",
            "ticks": 58944,
            "time": 52.628549500000005,
            "velocity": 0.1732283464566929
          },
          {
            "duration": 0.08571425000000232,
            "durationTicks": 96,
            "midi": 0,
            "name": "C-1",
            "ticks": 59040,
            "time": 52.71426375,
            "velocity": 0.1732283464566929
          },
          {
            "duration": 0.08571425000000232,
            "durationTicks": 96,
            "midi": 0,
            "name": "C-1",
            "ticks": 59136,
            "time": 52.799978,
            "velocity": 0.1732283464566929
          },
          {
            "duration": 0.08571425000000232,
            "durationTicks": 96,
            "midi": 0,
            "name": "C-1",
            "ticks": 59136,
            "time": 52.799978,
            "velocity": 0.1732283464566929
          },
          {
            "duration": 0.08571425000000232,
            "durationTicks": 96,
            "midi": 0,
            "name": "C-1",
            "ticks": 59136,
            "time": 52.799978,
            "velocity": 0.1732283464566929
          },
          {
            "duration": 0.08571424999999522,
            "durationTicks": 96,
            "midi": 0,
            "name": "C-1",
            "ticks": 59232,
            "time": 52.885692250000005,
            "velocity": 0.1732283464566929
          },
          {
            "duration": 0.08571425000000232,
            "durationTicks": 96,
            "midi": 0,
            "name": "C-1",
            "ticks": 59328,
            "time": 52.9714065,
            "velocity": 0.1732283464566929
          },
          {
            "duration": 0.08571425000000232,
            "durationTicks": 96,
            "midi": 0,
            "name": "C-1",
            "ticks": 59328,
            "time": 52.9714065,
            "velocity": 0.1732283464566929
          },
          {
            "duration": 0.08571425000000232,
            "durationTicks": 96,
            "midi": 0,
            "name": "C-1",
            "ticks": 59328,
            "time": 52.9714065,
            "velocity": 0.1732283464566929
          },
          {
            "duration": 0.08571425000000232,
            "durationTicks": 96,
            "midi": 0,
            "name": "C-1",
            "ticks": 59424,
            "time": 53.05712075,
            "velocity": 0.1732283464566929
          },
          {
            "duration": 0.08571424999999522,
            "durationTicks": 96,
            "midi": 0,
            "name": "C-1",
            "ticks": 59520,
            "time": 53.142835000000005,
            "velocity": 0.1732283464566929
          },
          {
            "duration": 0.08571424999999522,
            "durationTicks": 96,
            "midi": 0,
            "name": "C-1",
            "ticks": 59520,
            "time": 53.142835000000005,
            "velocity": 0.1732283464566929
          },
          {
            "duration": 0.08571424999999522,
            "durationTicks": 96,
            "midi": 0,
            "name": "C-1",
            "ticks": 59520,
            "time": 53.142835000000005,
            "velocity": 0.1732283464566929
          },
          {
            "duration": 0.08571425000000232,
            "durationTicks": 96,
            "midi": 0,
            "name": "C-1",
            "ticks": 59616,
            "time": 53.22854925,
            "velocity": 0.1732283464566929
          },
          {
            "duration": 0.08571425000000232,
            "durationTicks": 96,
            "midi": 0,
            "name": "C-1",
            "ticks": 59712,
            "time": 53.3142635,
            "velocity": 0.1732283464566929
          },
          {
            "duration": 0.08571425000000232,
            "durationTicks": 96,
            "midi": 0,
            "name": "C-1",
            "ticks": 59712,
            "time": 53.3142635,
            "velocity": 0.1732283464566929
          },
          {
            "duration": 0.08571425000000232,
            "durationTicks": 96,
            "midi": 0,
            "name": "C-1",
            "ticks": 59712,
            "time": 53.3142635,
            "velocity": 0.1732283464566929
          },
          {
            "duration": 0.08571424999999522,
            "durationTicks": 96,
            "midi": 0,
            "name": "C-1",
            "ticks": 59808,
            "time": 53.399977750000005,
            "velocity": 0.1732283464566929
          },
          {
            "duration": 0.08571425000000232,
            "durationTicks": 96,
            "midi": 0,
            "name": "C-1",
            "ticks": 59904,
            "time": 53.485692,
            "velocity": 0.1732283464566929
          },
          {
            "duration": 0.08571425000000232,
            "durationTicks": 96,
            "midi": 0,
            "name": "C-1",
            "ticks": 59904,
            "time": 53.485692,
            "velocity": 0.1732283464566929
          },
          {
            "duration": 0.08571425000000232,
            "durationTicks": 96,
            "midi": 0,
            "name": "C-1",
            "ticks": 59904,
            "time": 53.485692,
            "velocity": 0.1732283464566929
          },
          {
            "duration": 0.08571425000000232,
            "durationTicks": 96,
            "midi": 0,
            "name": "C-1",
            "ticks": 59904,
            "time": 53.485692,
            "velocity": 0.1732283464566929
          },
          {
            "duration": 0.08571425000000232,
            "durationTicks": 96,
            "midi": 0,
            "name": "C-1",
            "ticks": 59904,
            "time": 53.485692,
            "velocity": 0.1732283464566929
          },
          {
            "duration": 0.08571425000000232,
            "durationTicks": 96,
            "midi": 0,
            "name": "C-1",
            "ticks": 60000,
            "time": 53.57140625,
            "velocity": 0.1732283464566929
          },
          {
            "duration": 0.08571424999999522,
            "durationTicks": 96,
            "midi": 0,
            "name": "C-1",
            "ticks": 60096,
            "time": 53.657120500000005,
            "velocity": 0.1732283464566929
          },
          {
            "duration": 0.08571424999999522,
            "durationTicks": 96,
            "midi": 0,
            "name": "C-1",
            "ticks": 60096,
            "time": 53.657120500000005,
            "velocity": 0.1732283464566929
          },
          {
            "duration": 0.08571424999999522,
            "durationTicks": 96,
            "midi": 0,
            "name": "C-1",
            "ticks": 60096,
            "time": 53.657120500000005,
            "velocity": 0.1732283464566929
          },
          {
            "duration": 0.08571425000000232,
            "durationTicks": 96,
            "midi": 0,
            "name": "C-1",
            "ticks": 60192,
            "time": 53.74283475,
            "velocity": 0.1732283464566929
          },
          {
            "duration": 0.08571425000000232,
            "durationTicks": 96,
            "midi": 0,
            "name": "C-1",
            "ticks": 60288,
            "time": 53.828549,
            "velocity": 0.1732283464566929
          },
          {
            "duration": 0.08571425000000232,
            "durationTicks": 96,
            "midi": 0,
            "name": "C-1",
            "ticks": 60288,
            "time": 53.828549,
            "velocity": 0.1732283464566929
          },
          {
            "duration": 0.08571425000000232,
            "durationTicks": 96,
            "midi": 0,
            "name": "C-1",
            "ticks": 60288,
            "time": 53.828549,
            "velocity": 0.1732283464566929
          },
          {
            "duration": 0.08571425000000232,
            "durationTicks": 96,
            "midi": 0,
            "name": "C-1",
            "ticks": 60288,
            "time": 53.828549,
            "velocity": 0.1732283464566929
          },
          {
            "duration": 0.08571425000000232,
            "durationTicks": 96,
            "midi": 0,
            "name": "C-1",
            "ticks": 60288,
            "time": 53.828549,
            "velocity": 0.1732283464566929
          },
          {
            "duration": 0.08571425000000232,
            "durationTicks": 96,
            "midi": 0,
            "name": "C-1",
            "ticks": 60384,
            "time": 53.914263250000005,
            "velocity": 0.1732283464566929
          },
          {
            "duration": 0.08571424999999522,
            "durationTicks": 96,
            "midi": 0,
            "name": "C-1",
            "ticks": 60480,
            "time": 53.99997750000001,
            "velocity": 0.1732283464566929
          },
          {
            "duration": 0.08571424999999522,
            "durationTicks": 96,
            "midi": 0,
            "name": "C-1",
            "ticks": 60480,
            "time": 53.99997750000001,
            "velocity": 0.1732283464566929
          },
          {
            "duration": 0.08571424999999522,
            "durationTicks": 96,
            "midi": 0,
            "name": "C-1",
            "ticks": 60480,
            "time": 53.99997750000001,
            "velocity": 0.1732283464566929
          },
          {
            "duration": 0.08571425000000232,
            "durationTicks": 96,
            "midi": 0,
            "name": "C-1",
            "ticks": 60576,
            "time": 54.08569175,
            "velocity": 0.1732283464566929
          },
          {
            "duration": 0.08571425000000232,
            "durationTicks": 96,
            "midi": 0,
            "name": "C-1",
            "ticks": 60672,
            "time": 54.171406000000005,
            "velocity": 0.1732283464566929
          },
          {
            "duration": 0.08571425000000232,
            "durationTicks": 96,
            "midi": 0,
            "name": "C-1",
            "ticks": 60672,
            "time": 54.171406000000005,
            "velocity": 0.1732283464566929
          },
          {
            "duration": 0.08571425000000232,
            "durationTicks": 96,
            "midi": 0,
            "name": "C-1",
            "ticks": 60672,
            "time": 54.171406000000005,
            "velocity": 0.1732283464566929
          },
          {
            "duration": 0.08571425000000232,
            "durationTicks": 96,
            "midi": 0,
            "name": "C-1",
            "ticks": 60672,
            "time": 54.171406000000005,
            "velocity": 0.1732283464566929
          },
          {
            "duration": 0.08571425000000232,
            "durationTicks": 96,
            "midi": 0,
            "name": "C-1",
            "ticks": 60672,
            "time": 54.171406000000005,
            "velocity": 0.1732283464566929
          },
          {
            "duration": 0.08571424999999522,
            "durationTicks": 96,
            "midi": 0,
            "name": "C-1",
            "ticks": 60768,
            "time": 54.25712025000001,
            "velocity": 0.1732283464566929
          },
          {
            "duration": 0.08571425000000232,
            "durationTicks": 96,
            "midi": 0,
            "name": "C-1",
            "ticks": 60864,
            "time": 54.3428345,
            "velocity": 0.1732283464566929
          },
          {
            "duration": 0.08571425000000232,
            "durationTicks": 96,
            "midi": 0,
            "name": "C-1",
            "ticks": 60864,
            "time": 54.3428345,
            "velocity": 0.1732283464566929
          },
          {
            "duration": 0.08571425000000232,
            "durationTicks": 96,
            "midi": 0,
            "name": "C-1",
            "ticks": 60864,
            "time": 54.3428345,
            "velocity": 0.1732283464566929
          },
          {
            "duration": 0.08571425000000232,
            "durationTicks": 96,
            "midi": 0,
            "name": "C-1",
            "ticks": 60960,
            "time": 54.428548750000004,
            "velocity": 0.1732283464566929
          },
          {
            "duration": 0.08571424999999522,
            "durationTicks": 96,
            "midi": 0,
            "name": "C-1",
            "ticks": 61056,
            "time": 54.51426300000001,
            "velocity": 0.1732283464566929
          },
          {
            "duration": 0.08571424999999522,
            "durationTicks": 96,
            "midi": 0,
            "name": "C-1",
            "ticks": 61056,
            "time": 54.51426300000001,
            "velocity": 0.1732283464566929
          },
          {
            "duration": 0.08571424999999522,
            "durationTicks": 96,
            "midi": 0,
            "name": "C-1",
            "ticks": 61056,
            "time": 54.51426300000001,
            "velocity": 0.1732283464566929
          },
          {
            "duration": 0.08571424999999522,
            "durationTicks": 96,
            "midi": 0,
            "name": "C-1",
            "ticks": 61056,
            "time": 54.51426300000001,
            "velocity": 0.1732283464566929
          },
          {
            "duration": 0.08571424999999522,
            "durationTicks": 96,
            "midi": 0,
            "name": "C-1",
            "ticks": 61056,
            "time": 54.51426300000001,
            "velocity": 0.1732283464566929
          },
          {
            "duration": 0.08571425000000232,
            "durationTicks": 96,
            "midi": 0,
            "name": "C-1",
            "ticks": 61152,
            "time": 54.59997725,
            "velocity": 0.1732283464566929
          },
          {
            "duration": 0.08571425000000232,
            "durationTicks": 96,
            "midi": 0,
            "name": "C-1",
            "ticks": 61248,
            "time": 54.685691500000004,
            "velocity": 0.1732283464566929
          },
          {
            "duration": 0.08571425000000232,
            "durationTicks": 96,
            "midi": 0,
            "name": "C-1",
            "ticks": 61248,
            "time": 54.685691500000004,
            "velocity": 0.1732283464566929
          },
          {
            "duration": 0.08571425000000232,
            "durationTicks": 96,
            "midi": 0,
            "name": "C-1",
            "ticks": 61248,
            "time": 54.685691500000004,
            "velocity": 0.1732283464566929
          },
          {
            "duration": 0.08571424999999522,
            "durationTicks": 96,
            "midi": 0,
            "name": "C-1",
            "ticks": 61344,
            "time": 54.77140575000001,
            "velocity": 0.1732283464566929
          },
          {
            "duration": 0.08571425000000232,
            "durationTicks": 96,
            "midi": 0,
            "name": "C-1",
            "ticks": 61440,
            "time": 54.85712,
            "velocity": 0.1732283464566929
          },
          {
            "duration": 0.08571425000000232,
            "durationTicks": 96,
            "midi": 0,
            "name": "C-1",
            "ticks": 61440,
            "time": 54.85712,
            "velocity": 0.1732283464566929
          },
          {
            "duration": 0.08571425000000232,
            "durationTicks": 96,
            "midi": 0,
            "name": "C-1",
            "ticks": 61440,
            "time": 54.85712,
            "velocity": 0.1732283464566929
          },
          {
            "duration": 0.08571425000000232,
            "durationTicks": 96,
            "midi": 0,
            "name": "C-1",
            "ticks": 61440,
            "time": 54.85712,
            "velocity": 0.1732283464566929
          },
          {
            "duration": 0.08571425000000232,
            "durationTicks": 96,
            "midi": 0,
            "name": "C-1",
            "ticks": 61440,
            "time": 54.85712,
            "velocity": 0.1732283464566929
          },
          {
            "duration": 0.08571425000000232,
            "durationTicks": 96,
            "midi": 0,
            "name": "C-1",
            "ticks": 61536,
            "time": 54.942834250000004,
            "velocity": 0.1732283464566929
          },
          {
            "duration": 0.08571424999999522,
            "durationTicks": 96,
            "midi": 0,
            "name": "C-1",
            "ticks": 61632,
            "time": 55.02854850000001,
            "velocity": 0.1732283464566929
          },
          {
            "duration": 0.08571424999999522,
            "durationTicks": 96,
            "midi": 0,
            "name": "C-1",
            "ticks": 61632,
            "time": 55.02854850000001,
            "velocity": 0.1732283464566929
          },
          {
            "duration": 0.08571424999999522,
            "durationTicks": 96,
            "midi": 0,
            "name": "C-1",
            "ticks": 61632,
            "time": 55.02854850000001,
            "velocity": 0.1732283464566929
          },
          {
            "duration": 0.08571425000000232,
            "durationTicks": 96,
            "midi": 0,
            "name": "C-1",
            "ticks": 61728,
            "time": 55.11426275,
            "velocity": 0.1732283464566929
          },
          {
            "duration": 0.08571425000000232,
            "durationTicks": 96,
            "midi": 0,
            "name": "C-1",
            "ticks": 61824,
            "time": 55.199977000000004,
            "velocity": 0.1732283464566929
          },
          {
            "duration": 0.08571425000000232,
            "durationTicks": 96,
            "midi": 0,
            "name": "C-1",
            "ticks": 61824,
            "time": 55.199977000000004,
            "velocity": 0.1732283464566929
          },
          {
            "duration": 0.08571425000000232,
            "durationTicks": 96,
            "midi": 0,
            "name": "C-1",
            "ticks": 61824,
            "time": 55.199977000000004,
            "velocity": 0.1732283464566929
          },
          {
            "duration": 0.08571424999999522,
            "durationTicks": 96,
            "midi": 0,
            "name": "C-1",
            "ticks": 61920,
            "time": 55.285691250000006,
            "velocity": 0.1732283464566929
          },
          {
            "duration": 0.08571425000000232,
            "durationTicks": 96,
            "midi": 0,
            "name": "C-1",
            "ticks": 62016,
            "time": 55.3714055,
            "velocity": 0.1732283464566929
          },
          {
            "duration": 0.08571425000000232,
            "durationTicks": 96,
            "midi": 0,
            "name": "C-1",
            "ticks": 62016,
            "time": 55.3714055,
            "velocity": 0.1732283464566929
          },
          {
            "duration": 0.08571425000000232,
            "durationTicks": 96,
            "midi": 0,
            "name": "C-1",
            "ticks": 62016,
            "time": 55.3714055,
            "velocity": 0.1732283464566929
          },
          {
            "duration": 0.08571425000000232,
            "durationTicks": 96,
            "midi": 0,
            "name": "C-1",
            "ticks": 62112,
            "time": 55.457119750000004,
            "velocity": 0.1732283464566929
          },
          {
            "duration": 0.08571424999999522,
            "durationTicks": 96,
            "midi": 0,
            "name": "C-1",
            "ticks": 62208,
            "time": 55.542834000000006,
            "velocity": 0.1732283464566929
          },
          {
            "duration": 0.08571425000000232,
            "durationTicks": 96,
            "midi": 0,
            "name": "C-1",
            "ticks": 62304,
            "time": 55.62854825,
            "velocity": 0.1732283464566929
          },
          {
            "duration": 0.08571425000000232,
            "durationTicks": 96,
            "midi": 0,
            "name": "C-1",
            "ticks": 62400,
            "time": 55.714262500000004,
            "velocity": 0.1732283464566929
          },
          {
            "duration": 0.08571425000000232,
            "durationTicks": 96,
            "midi": 0,
            "name": "C-1",
            "ticks": 62400,
            "time": 55.714262500000004,
            "velocity": 0.1732283464566929
          },
          {
            "duration": 0.08571425000000232,
            "durationTicks": 96,
            "midi": 0,
            "name": "C-1",
            "ticks": 62400,
            "time": 55.714262500000004,
            "velocity": 0.1732283464566929
          },
          {
            "duration": 0.08571424999999522,
            "durationTicks": 96,
            "midi": 0,
            "name": "C-1",
            "ticks": 62496,
            "time": 55.799976750000006,
            "velocity": 0.1732283464566929
          },
          {
            "duration": 0.08571425000000232,
            "durationTicks": 96,
            "midi": 0,
            "name": "C-1",
            "ticks": 62592,
            "time": 55.885691,
            "velocity": 0.1732283464566929
          },
          {
            "duration": 0.08571425000000232,
            "durationTicks": 96,
            "midi": 0,
            "name": "C-1",
            "ticks": 62592,
            "time": 55.885691,
            "velocity": 0.1732283464566929
          },
          {
            "duration": 0.08571425000000232,
            "durationTicks": 96,
            "midi": 0,
            "name": "C-1",
            "ticks": 62592,
            "time": 55.885691,
            "velocity": 0.1732283464566929
          },
          {
            "duration": 0.08571425000000232,
            "durationTicks": 96,
            "midi": 0,
            "name": "C-1",
            "ticks": 62688,
            "time": 55.971405250000004,
            "velocity": 0.1732283464566929
          },
          {
            "duration": 0.08571424999999522,
            "durationTicks": 96,
            "midi": 0,
            "name": "C-1",
            "ticks": 62784,
            "time": 56.057119500000006,
            "velocity": 0.1732283464566929
          },
          {
            "duration": 0.08571424999999522,
            "durationTicks": 96,
            "midi": 0,
            "name": "C-1",
            "ticks": 62784,
            "time": 56.057119500000006,
            "velocity": 0.1732283464566929
          },
          {
            "duration": 0.08571424999999522,
            "durationTicks": 96,
            "midi": 0,
            "name": "C-1",
            "ticks": 62784,
            "time": 56.057119500000006,
            "velocity": 0.1732283464566929
          },
          {
            "duration": 0.08571425000000232,
            "durationTicks": 96,
            "midi": 0,
            "name": "C-1",
            "ticks": 62880,
            "time": 56.14283375,
            "velocity": 0.1732283464566929
          },
          {
            "duration": 0.08571425000000232,
            "durationTicks": 96,
            "midi": 0,
            "name": "C-1",
            "ticks": 62976,
            "time": 56.228548,
            "velocity": 0.1732283464566929
          },
          {
            "duration": 0.08571425000000232,
            "durationTicks": 96,
            "midi": 0,
            "name": "C-1",
            "ticks": 62976,
            "time": 56.228548,
            "velocity": 0.1732283464566929
          },
          {
            "duration": 0.08571425000000232,
            "durationTicks": 96,
            "midi": 0,
            "name": "C-1",
            "ticks": 62976,
            "time": 56.228548,
            "velocity": 0.1732283464566929
          },
          {
            "duration": 0.08571424999999522,
            "durationTicks": 96,
            "midi": 0,
            "name": "C-1",
            "ticks": 63072,
            "time": 56.314262250000006,
            "velocity": 0.1732283464566929
          },
          {
            "duration": 0.08571425000000232,
            "durationTicks": 96,
            "midi": 0,
            "name": "C-1",
            "ticks": 63168,
            "time": 56.3999765,
            "velocity": 0.1732283464566929
          },
          {
            "duration": 0.08571425000000232,
            "durationTicks": 96,
            "midi": 0,
            "name": "C-1",
            "ticks": 63168,
            "time": 56.3999765,
            "velocity": 0.1732283464566929
          },
          {
            "duration": 0.08571425000000232,
            "durationTicks": 96,
            "midi": 0,
            "name": "C-1",
            "ticks": 63168,
            "time": 56.3999765,
            "velocity": 0.1732283464566929
          },
          {
            "duration": 0.08571425000000232,
            "durationTicks": 96,
            "midi": 0,
            "name": "C-1",
            "ticks": 63264,
            "time": 56.48569075,
            "velocity": 0.1732283464566929
          },
          {
            "duration": 0.08571424999999522,
            "durationTicks": 96,
            "midi": 0,
            "name": "C-1",
            "ticks": 63360,
            "time": 56.571405000000006,
            "velocity": 0.1732283464566929
          },
          {
            "duration": 0.08571424999999522,
            "durationTicks": 96,
            "midi": 0,
            "name": "C-1",
            "ticks": 63360,
            "time": 56.571405000000006,
            "velocity": 0.1732283464566929
          },
          {
            "duration": 0.08571424999999522,
            "durationTicks": 96,
            "midi": 0,
            "name": "C-1",
            "ticks": 63360,
            "time": 56.571405000000006,
            "velocity": 0.1732283464566929
          },
          {
            "duration": 0.08571425000000232,
            "durationTicks": 96,
            "midi": 0,
            "name": "C-1",
            "ticks": 63456,
            "time": 56.65711925,
            "velocity": 0.1732283464566929
          },
          {
            "duration": 0.08571425000000232,
            "durationTicks": 96,
            "midi": 0,
            "name": "C-1",
            "ticks": 63552,
            "time": 56.7428335,
            "velocity": 0.1732283464566929
          },
          {
            "duration": 0.08571425000000232,
            "durationTicks": 96,
            "midi": 0,
            "name": "C-1",
            "ticks": 63552,
            "time": 56.7428335,
            "velocity": 0.1732283464566929
          },
          {
            "duration": 0.08571425000000232,
            "durationTicks": 96,
            "midi": 0,
            "name": "C-1",
            "ticks": 63552,
            "time": 56.7428335,
            "velocity": 0.1732283464566929
          },
          {
            "duration": 0.08571424999999522,
            "durationTicks": 96,
            "midi": 0,
            "name": "C-1",
            "ticks": 63648,
            "time": 56.828547750000006,
            "velocity": 0.1732283464566929
          },
          {
            "duration": 0.08571425000000232,
            "durationTicks": 96,
            "midi": 0,
            "name": "C-1",
            "ticks": 63744,
            "time": 56.914262,
            "velocity": 0.1732283464566929
          },
          {
            "duration": 0.08571425000000232,
            "durationTicks": 96,
            "midi": 0,
            "name": "C-1",
            "ticks": 63840,
            "time": 56.99997625,
            "velocity": 0.1732283464566929
          },
          {
            "duration": 0.08571424999999522,
            "durationTicks": 96,
            "midi": 0,
            "name": "C-1",
            "ticks": 63936,
            "time": 57.085690500000005,
            "velocity": 0.1732283464566929
          },
          {
            "duration": 0.08571424999999522,
            "durationTicks": 96,
            "midi": 0,
            "name": "C-1",
            "ticks": 63936,
            "time": 57.085690500000005,
            "velocity": 0.1732283464566929
          },
          {
            "duration": 0.08571424999999522,
            "durationTicks": 96,
            "midi": 0,
            "name": "C-1",
            "ticks": 63936,
            "time": 57.085690500000005,
            "velocity": 0.1732283464566929
          },
          {
            "duration": 0.08571425000000232,
            "durationTicks": 96,
            "midi": 0,
            "name": "C-1",
            "ticks": 64032,
            "time": 57.17140475,
            "velocity": 0.1732283464566929
          },
          {
            "duration": 0.08571425000000232,
            "durationTicks": 96,
            "midi": 0,
            "name": "C-1",
            "ticks": 64128,
            "time": 57.257119,
            "velocity": 0.1732283464566929
          },
          {
            "duration": 0.08571425000000232,
            "durationTicks": 96,
            "midi": 0,
            "name": "C-1",
            "ticks": 64128,
            "time": 57.257119,
            "velocity": 0.1732283464566929
          },
          {
            "duration": 0.08571425000000232,
            "durationTicks": 96,
            "midi": 0,
            "name": "C-1",
            "ticks": 64128,
            "time": 57.257119,
            "velocity": 0.1732283464566929
          },
          {
            "duration": 0.08571424999999522,
            "durationTicks": 96,
            "midi": 0,
            "name": "C-1",
            "ticks": 64224,
            "time": 57.342833250000005,
            "velocity": 0.1732283464566929
          },
          {
            "duration": 0.08571425000000232,
            "durationTicks": 96,
            "midi": 0,
            "name": "C-1",
            "ticks": 64320,
            "time": 57.4285475,
            "velocity": 0.1732283464566929
          },
          {
            "duration": 0.08571425000000232,
            "durationTicks": 96,
            "midi": 0,
            "name": "C-1",
            "ticks": 64320,
            "time": 57.4285475,
            "velocity": 0.1732283464566929
          },
          {
            "duration": 0.08571425000000232,
            "durationTicks": 96,
            "midi": 0,
            "name": "C-1",
            "ticks": 64320,
            "time": 57.4285475,
            "velocity": 0.1732283464566929
          },
          {
            "duration": 0.08571425000000232,
            "durationTicks": 96,
            "midi": 0,
            "name": "C-1",
            "ticks": 64416,
            "time": 57.51426175,
            "velocity": 0.1732283464566929
          },
          {
            "duration": 0.08571424999999522,
            "durationTicks": 96,
            "midi": 0,
            "name": "C-1",
            "ticks": 64512,
            "time": 57.599976000000005,
            "velocity": 0.1732283464566929
          },
          {
            "duration": 0.08571424999999522,
            "durationTicks": 96,
            "midi": 0,
            "name": "C-1",
            "ticks": 64512,
            "time": 57.599976000000005,
            "velocity": 0.1732283464566929
          },
          {
            "duration": 0.08571424999999522,
            "durationTicks": 96,
            "midi": 0,
            "name": "C-1",
            "ticks": 64512,
            "time": 57.599976000000005,
            "velocity": 0.1732283464566929
          },
          {
            "duration": 0.08571424999999522,
            "durationTicks": 96,
            "midi": 0,
            "name": "C-1",
            "ticks": 64512,
            "time": 57.599976000000005,
            "velocity": 0.1732283464566929
          },
          {
            "duration": 0.08571424999999522,
            "durationTicks": 96,
            "midi": 0,
            "name": "C-1",
            "ticks": 64512,
            "time": 57.599976000000005,
            "velocity": 0.1732283464566929
          },
          {
            "duration": 0.08571425000000232,
            "durationTicks": 96,
            "midi": 0,
            "name": "C-1",
            "ticks": 64608,
            "time": 57.68569025,
            "velocity": 0.1732283464566929
          },
          {
            "duration": 0.08571425000000232,
            "durationTicks": 96,
            "midi": 0,
            "name": "C-1",
            "ticks": 64704,
            "time": 57.7714045,
            "velocity": 0.1732283464566929
          },
          {
            "duration": 0.08571425000000232,
            "durationTicks": 96,
            "midi": 0,
            "name": "C-1",
            "ticks": 64704,
            "time": 57.7714045,
            "velocity": 0.1732283464566929
          },
          {
            "duration": 0.08571425000000232,
            "durationTicks": 96,
            "midi": 0,
            "name": "C-1",
            "ticks": 64704,
            "time": 57.7714045,
            "velocity": 0.1732283464566929
          },
          {
            "duration": 0.08571425000000232,
            "durationTicks": 96,
            "midi": 0,
            "name": "C-1",
            "ticks": 64800,
            "time": 57.857118750000005,
            "velocity": 0.1732283464566929
          },
          {
            "duration": 0.08571424999999522,
            "durationTicks": 96,
            "midi": 0,
            "name": "C-1",
            "ticks": 64896,
            "time": 57.94283300000001,
            "velocity": 0.1732283464566929
          },
          {
            "duration": 0.08571424999999522,
            "durationTicks": 96,
            "midi": 0,
            "name": "C-1",
            "ticks": 64896,
            "time": 57.94283300000001,
            "velocity": 0.1732283464566929
          },
          {
            "duration": 0.08571424999999522,
            "durationTicks": 96,
            "midi": 0,
            "name": "C-1",
            "ticks": 64896,
            "time": 57.94283300000001,
            "velocity": 0.1732283464566929
          },
          {
            "duration": 0.08571425000000232,
            "durationTicks": 96,
            "midi": 0,
            "name": "C-1",
            "ticks": 64992,
            "time": 58.02854725,
            "velocity": 0.1732283464566929
          },
          {
            "duration": 0.08571425000000232,
            "durationTicks": 96,
            "midi": 0,
            "name": "C-1",
            "ticks": 65088,
            "time": 58.114261500000005,
            "velocity": 0.1732283464566929
          },
          {
            "duration": 0.08571425000000232,
            "durationTicks": 96,
            "midi": 0,
            "name": "C-1",
            "ticks": 65088,
            "time": 58.114261500000005,
            "velocity": 0.1732283464566929
          },
          {
            "duration": 0.08571425000000232,
            "durationTicks": 96,
            "midi": 0,
            "name": "C-1",
            "ticks": 65088,
            "time": 58.114261500000005,
            "velocity": 0.1732283464566929
          },
          {
            "duration": 0.08571424999999522,
            "durationTicks": 96,
            "midi": 0,
            "name": "C-1",
            "ticks": 65184,
            "time": 58.19997575000001,
            "velocity": 0.1732283464566929
          },
          {
            "duration": 0.08571425000000232,
            "durationTicks": 96,
            "midi": 0,
            "name": "C-1",
            "ticks": 65280,
            "time": 58.28569,
            "velocity": 0.1732283464566929
          },
          {
            "duration": 0.08571425000000232,
            "durationTicks": 96,
            "midi": 0,
            "name": "C-1",
            "ticks": 65376,
            "time": 58.371404250000005,
            "velocity": 0.1732283464566929
          },
          {
            "duration": 0.08571424999999522,
            "durationTicks": 96,
            "midi": 0,
            "name": "C-1",
            "ticks": 65472,
            "time": 58.45711850000001,
            "velocity": 0.1732283464566929
          },
          {
            "duration": 0.08571424999999522,
            "durationTicks": 96,
            "midi": 0,
            "name": "C-1",
            "ticks": 65472,
            "time": 58.45711850000001,
            "velocity": 0.1732283464566929
          },
          {
            "duration": 0.08571424999999522,
            "durationTicks": 96,
            "midi": 0,
            "name": "C-1",
            "ticks": 65472,
            "time": 58.45711850000001,
            "velocity": 0.1732283464566929
          },
          {
            "duration": 0.08571425000000232,
            "durationTicks": 96,
            "midi": 0,
            "name": "C-1",
            "ticks": 65568,
            "time": 58.54283275,
            "velocity": 0.1732283464566929
          },
          {
            "duration": 0.08571425000000232,
            "durationTicks": 96,
            "midi": 0,
            "name": "C-1",
            "ticks": 65664,
            "time": 58.628547000000005,
            "velocity": 0.1732283464566929
          },
          {
            "duration": 0.08571425000000232,
            "durationTicks": 96,
            "midi": 0,
            "name": "C-1",
            "ticks": 65664,
            "time": 58.628547000000005,
            "velocity": 0.1732283464566929
          },
          {
            "duration": 0.08571425000000232,
            "durationTicks": 96,
            "midi": 0,
            "name": "C-1",
            "ticks": 65664,
            "time": 58.628547000000005,
            "velocity": 0.1732283464566929
          },
          {
            "duration": 0.08571424999999522,
            "durationTicks": 96,
            "midi": 0,
            "name": "C-1",
            "ticks": 65760,
            "time": 58.71426125000001,
            "velocity": 0.1732283464566929
          },
          {
            "duration": 0.08571425000000232,
            "durationTicks": 96,
            "midi": 0,
            "name": "C-1",
            "ticks": 65856,
            "time": 58.7999755,
            "velocity": 0.1732283464566929
          },
          {
            "duration": 0.08571425000000232,
            "durationTicks": 96,
            "midi": 0,
            "name": "C-1",
            "ticks": 65856,
            "time": 58.7999755,
            "velocity": 0.1732283464566929
          },
          {
            "duration": 0.08571425000000232,
            "durationTicks": 96,
            "midi": 0,
            "name": "C-1",
            "ticks": 65856,
            "time": 58.7999755,
            "velocity": 0.1732283464566929
          },
          {
            "duration": 0.08571425000000232,
            "durationTicks": 96,
            "midi": 0,
            "name": "C-1",
            "ticks": 65952,
            "time": 58.885689750000004,
            "velocity": 0.1732283464566929
          },
          {
            "duration": 0.08571424999999522,
            "durationTicks": 96,
            "midi": 0,
            "name": "C-1",
            "ticks": 66048,
            "time": 58.97140400000001,
            "velocity": 0.1732283464566929
          },
          {
            "duration": 0.08571424999999522,
            "durationTicks": 96,
            "midi": 0,
            "name": "C-1",
            "ticks": 66048,
            "time": 58.97140400000001,
            "velocity": 0.1732283464566929
          },
          {
            "duration": 0.08571424999999522,
            "durationTicks": 96,
            "midi": 0,
            "name": "C-1",
            "ticks": 66048,
            "time": 58.97140400000001,
            "velocity": 0.1732283464566929
          },
          {
            "duration": 0.08571424999999522,
            "durationTicks": 96,
            "midi": 0,
            "name": "C-1",
            "ticks": 66048,
            "time": 58.97140400000001,
            "velocity": 0.1732283464566929
          },
          {
            "duration": 0.08571424999999522,
            "durationTicks": 96,
            "midi": 0,
            "name": "C-1",
            "ticks": 66048,
            "time": 58.97140400000001,
            "velocity": 0.1732283464566929
          },
          {
            "duration": 0.08571425000000232,
            "durationTicks": 96,
            "midi": 0,
            "name": "C-1",
            "ticks": 66144,
            "time": 59.05711825,
            "velocity": 0.1732283464566929
          },
          {
            "duration": 0.08571425000000232,
            "durationTicks": 96,
            "midi": 0,
            "name": "C-1",
            "ticks": 66240,
            "time": 59.142832500000004,
            "velocity": 0.1732283464566929
          },
          {
            "duration": 0.08571425000000232,
            "durationTicks": 96,
            "midi": 0,
            "name": "C-1",
            "ticks": 66240,
            "time": 59.142832500000004,
            "velocity": 0.1732283464566929
          },
          {
            "duration": 0.08571425000000232,
            "durationTicks": 96,
            "midi": 0,
            "name": "C-1",
            "ticks": 66240,
            "time": 59.142832500000004,
            "velocity": 0.1732283464566929
          },
          {
            "duration": 0.08571424999999522,
            "durationTicks": 96,
            "midi": 0,
            "name": "C-1",
            "ticks": 66336,
            "time": 59.22854675000001,
            "velocity": 0.1732283464566929
          },
          {
            "duration": 0.08571425000000232,
            "durationTicks": 96,
            "midi": 0,
            "name": "C-1",
            "ticks": 66432,
            "time": 59.314261,
            "velocity": 0.1732283464566929
          },
          {
            "duration": 0.08571425000000232,
            "durationTicks": 96,
            "midi": 0,
            "name": "C-1",
            "ticks": 66432,
            "time": 59.314261,
            "velocity": 0.1732283464566929
          },
          {
            "duration": 0.08571425000000232,
            "durationTicks": 96,
            "midi": 0,
            "name": "C-1",
            "ticks": 66432,
            "time": 59.314261,
            "velocity": 0.1732283464566929
          },
          {
            "duration": 0.08571425000000232,
            "durationTicks": 96,
            "midi": 0,
            "name": "C-1",
            "ticks": 66528,
            "time": 59.399975250000004,
            "velocity": 0.1732283464566929
          },
          {
            "duration": 0.08571424999999522,
            "durationTicks": 96,
            "midi": 0,
            "name": "C-1",
            "ticks": 66624,
            "time": 59.48568950000001,
            "velocity": 0.1732283464566929
          },
          {
            "duration": 0.08571424999999522,
            "durationTicks": 96,
            "midi": 0,
            "name": "C-1",
            "ticks": 66624,
            "time": 59.48568950000001,
            "velocity": 0.1732283464566929
          },
          {
            "duration": 0.08571424999999522,
            "durationTicks": 96,
            "midi": 0,
            "name": "C-1",
            "ticks": 66624,
            "time": 59.48568950000001,
            "velocity": 0.1732283464566929
          },
          {
            "duration": 0.08571425000000232,
            "durationTicks": 96,
            "midi": 0,
            "name": "C-1",
            "ticks": 66720,
            "time": 59.57140375,
            "velocity": 0.1732283464566929
          },
          {
            "duration": 0.08571425000000232,
            "durationTicks": 96,
            "midi": 0,
            "name": "C-1",
            "ticks": 66816,
            "time": 59.657118000000004,
            "velocity": 0.1732283464566929
          },
          {
            "duration": 0.08571425000000232,
            "durationTicks": 96,
            "midi": 0,
            "name": "C-1",
            "ticks": 66816,
            "time": 59.657118000000004,
            "velocity": 0.1732283464566929
          },
          {
            "duration": 0.08571425000000232,
            "durationTicks": 96,
            "midi": 0,
            "name": "C-1",
            "ticks": 66816,
            "time": 59.657118000000004,
            "velocity": 0.1732283464566929
          },
          {
            "duration": 0.08571425000000232,
            "durationTicks": 96,
            "midi": 0,
            "name": "C-1",
            "ticks": 66816,
            "time": 59.657118000000004,
            "velocity": 0.1732283464566929
          },
          {
            "duration": 0.08571425000000232,
            "durationTicks": 96,
            "midi": 0,
            "name": "C-1",
            "ticks": 66816,
            "time": 59.657118000000004,
            "velocity": 0.1732283464566929
          },
          {
            "duration": 0.08571424999999522,
            "durationTicks": 96,
            "midi": 0,
            "name": "C-1",
            "ticks": 66912,
            "time": 59.742832250000006,
            "velocity": 0.1732283464566929
          },
          {
            "duration": 0.08571425000000232,
            "durationTicks": 96,
            "midi": 0,
            "name": "C-1",
            "ticks": 67008,
            "time": 59.8285465,
            "velocity": 0.1732283464566929
          },
          {
            "duration": 0.08571425000000232,
            "durationTicks": 96,
            "midi": 0,
            "name": "C-1",
            "ticks": 67008,
            "time": 59.8285465,
            "velocity": 0.1732283464566929
          },
          {
            "duration": 0.08571425000000232,
            "durationTicks": 96,
            "midi": 0,
            "name": "C-1",
            "ticks": 67008,
            "time": 59.8285465,
            "velocity": 0.1732283464566929
          },
          {
            "duration": 0.08571425000000232,
            "durationTicks": 96,
            "midi": 0,
            "name": "C-1",
            "ticks": 67104,
            "time": 59.914260750000004,
            "velocity": 0.1732283464566929
          },
          {
            "duration": 0.08571424999999522,
            "durationTicks": 96,
            "midi": 0,
            "name": "C-1",
            "ticks": 67200,
            "time": 59.999975000000006,
            "velocity": 0.1732283464566929
          },
          {
            "duration": 0.08571424999999522,
            "durationTicks": 96,
            "midi": 0,
            "name": "C-1",
            "ticks": 67200,
            "time": 59.999975000000006,
            "velocity": 0.1732283464566929
          },
          {
            "duration": 0.08571424999999522,
            "durationTicks": 96,
            "midi": 0,
            "name": "C-1",
            "ticks": 67200,
            "time": 59.999975000000006,
            "velocity": 0.1732283464566929
          },
          {
            "duration": 0.08571425000000232,
            "durationTicks": 96,
            "midi": 0,
            "name": "C-1",
            "ticks": 67296,
            "time": 60.08568925,
            "velocity": 0.1732283464566929
          },
          {
            "duration": 0.08571425000000232,
            "durationTicks": 96,
            "midi": 0,
            "name": "C-1",
            "ticks": 67392,
            "time": 60.171403500000004,
            "velocity": 0.1732283464566929
          },
          {
            "duration": 0.08571425000000232,
            "durationTicks": 96,
            "midi": 0,
            "name": "C-1",
            "ticks": 67392,
            "time": 60.171403500000004,
            "velocity": 0.1732283464566929
          },
          {
            "duration": 0.08571425000000232,
            "durationTicks": 96,
            "midi": 0,
            "name": "C-1",
            "ticks": 67392,
            "time": 60.171403500000004,
            "velocity": 0.1732283464566929
          },
          {
            "duration": 0.08571424999999522,
            "durationTicks": 96,
            "midi": 0,
            "name": "C-1",
            "ticks": 67488,
            "time": 60.257117750000006,
            "velocity": 0.1732283464566929
          },
          {
            "duration": 0.08571425000000232,
            "durationTicks": 96,
            "midi": 0,
            "name": "C-1",
            "ticks": 67584,
            "time": 60.342832,
            "velocity": 0.1732283464566929
          },
          {
            "duration": 0.08571425000000232,
            "durationTicks": 96,
            "midi": 0,
            "name": "C-1",
            "ticks": 67584,
            "time": 60.342832,
            "velocity": 0.1732283464566929
          },
          {
            "duration": 0.08571425000000232,
            "durationTicks": 96,
            "midi": 0,
            "name": "C-1",
            "ticks": 67584,
            "time": 60.342832,
            "velocity": 0.1732283464566929
          },
          {
            "duration": 0.08571425000000232,
            "durationTicks": 96,
            "midi": 0,
            "name": "C-1",
            "ticks": 67584,
            "time": 60.342832,
            "velocity": 0.1732283464566929
          },
          {
            "duration": 0.08571425000000232,
            "durationTicks": 96,
            "midi": 0,
            "name": "C-1",
            "ticks": 67584,
            "time": 60.342832,
            "velocity": 0.1732283464566929
          },
          {
            "duration": 0.08571425000000232,
            "durationTicks": 96,
            "midi": 0,
            "name": "C-1",
            "ticks": 67680,
            "time": 60.428546250000004,
            "velocity": 0.1732283464566929
          },
          {
            "duration": 0.08571424999999522,
            "durationTicks": 96,
            "midi": 0,
            "name": "C-1",
            "ticks": 67776,
            "time": 60.514260500000006,
            "velocity": 0.1732283464566929
          },
          {
            "duration": 0.08571424999999522,
            "durationTicks": 96,
            "midi": 0,
            "name": "C-1",
            "ticks": 67776,
            "time": 60.514260500000006,
            "velocity": 0.1732283464566929
          },
          {
            "duration": 0.08571424999999522,
            "durationTicks": 96,
            "midi": 0,
            "name": "C-1",
            "ticks": 67776,
            "time": 60.514260500000006,
            "velocity": 0.1732283464566929
          },
          {
            "duration": 0.08571425000000232,
            "durationTicks": 96,
            "midi": 0,
            "name": "C-1",
            "ticks": 67872,
            "time": 60.59997475,
            "velocity": 0.1732283464566929
          },
          {
            "duration": 0.08571425000000232,
            "durationTicks": 96,
            "midi": 0,
            "name": "C-1",
            "ticks": 67968,
            "time": 60.685689,
            "velocity": 0.1732283464566929
          },
          {
            "duration": 0.08571425000000232,
            "durationTicks": 96,
            "midi": 0,
            "name": "C-1",
            "ticks": 67968,
            "time": 60.685689,
            "velocity": 0.1732283464566929
          },
          {
            "duration": 0.08571425000000232,
            "durationTicks": 96,
            "midi": 0,
            "name": "C-1",
            "ticks": 67968,
            "time": 60.685689,
            "velocity": 0.1732283464566929
          },
          {
            "duration": 0.08571424999999522,
            "durationTicks": 96,
            "midi": 0,
            "name": "C-1",
            "ticks": 68064,
            "time": 60.771403250000006,
            "velocity": 0.1732283464566929
          },
          {
            "duration": 0.08571425000000232,
            "durationTicks": 96,
            "midi": 0,
            "name": "C-1",
            "ticks": 68160,
            "time": 60.8571175,
            "velocity": 0.1732283464566929
          },
          {
            "duration": 0.08571425000000232,
            "durationTicks": 96,
            "midi": 0,
            "name": "C-1",
            "ticks": 68160,
            "time": 60.8571175,
            "velocity": 0.1732283464566929
          },
          {
            "duration": 0.08571425000000232,
            "durationTicks": 96,
            "midi": 0,
            "name": "C-1",
            "ticks": 68160,
            "time": 60.8571175,
            "velocity": 0.1732283464566929
          },
          {
            "duration": 0.08571425000000232,
            "durationTicks": 96,
            "midi": 0,
            "name": "C-1",
            "ticks": 68256,
            "time": 60.94283175,
            "velocity": 0.1732283464566929
          },
          {
            "duration": 0.08571424999999522,
            "durationTicks": 96,
            "midi": 0,
            "name": "C-1",
            "ticks": 68352,
            "time": 61.028546000000006,
            "velocity": 0.1732283464566929
          },
          {
            "duration": 0.08571425000000232,
            "durationTicks": 96,
            "midi": 0,
            "name": "C-1",
            "ticks": 68448,
            "time": 61.11426025,
            "velocity": 0.1732283464566929
          },
          {
            "duration": 0.08571425000000232,
            "durationTicks": 96,
            "midi": 0,
            "name": "C-1",
            "ticks": 68544,
            "time": 61.1999745,
            "velocity": 0.1732283464566929
          },
          {
            "duration": 0.08571425000000232,
            "durationTicks": 96,
            "midi": 0,
            "name": "C-1",
            "ticks": 68544,
            "time": 61.1999745,
            "velocity": 0.1732283464566929
          },
          {
            "duration": 0.08571425000000232,
            "durationTicks": 96,
            "midi": 0,
            "name": "C-1",
            "ticks": 68544,
            "time": 61.1999745,
            "velocity": 0.1732283464566929
          },
          {
            "duration": 0.08571424999999522,
            "durationTicks": 96,
            "midi": 0,
            "name": "C-1",
            "ticks": 68640,
            "time": 61.285688750000006,
            "velocity": 0.1732283464566929
          },
          {
            "duration": 0.08571425000000232,
            "durationTicks": 96,
            "midi": 0,
            "name": "C-1",
            "ticks": 68736,
            "time": 61.371403,
            "velocity": 0.1732283464566929
          },
          {
            "duration": 0.08571425000000232,
            "durationTicks": 96,
            "midi": 0,
            "name": "C-1",
            "ticks": 68736,
            "time": 61.371403,
            "velocity": 0.1732283464566929
          },
          {
            "duration": 0.08571425000000232,
            "durationTicks": 96,
            "midi": 0,
            "name": "C-1",
            "ticks": 68736,
            "time": 61.371403,
            "velocity": 0.1732283464566929
          },
          {
            "duration": 0.08571425000000232,
            "durationTicks": 96,
            "midi": 0,
            "name": "C-1",
            "ticks": 68832,
            "time": 61.45711725,
            "velocity": 0.1732283464566929
          },
          {
            "duration": 0.08571424999999522,
            "durationTicks": 96,
            "midi": 0,
            "name": "C-1",
            "ticks": 68928,
            "time": 61.542831500000005,
            "velocity": 0.1732283464566929
          },
          {
            "duration": 0.08571424999999522,
            "durationTicks": 96,
            "midi": 0,
            "name": "C-1",
            "ticks": 68928,
            "time": 61.542831500000005,
            "velocity": 0.1732283464566929
          },
          {
            "duration": 0.08571424999999522,
            "durationTicks": 96,
            "midi": 0,
            "name": "C-1",
            "ticks": 68928,
            "time": 61.542831500000005,
            "velocity": 0.1732283464566929
          },
          {
            "duration": 0.08571425000000232,
            "durationTicks": 96,
            "midi": 0,
            "name": "C-1",
            "ticks": 69024,
            "time": 61.62854575,
            "velocity": 0.1732283464566929
          },
          {
            "duration": 0.08571425000000232,
            "durationTicks": 96,
            "midi": 0,
            "name": "C-1",
            "ticks": 69120,
            "time": 61.71426,
            "velocity": 0.1732283464566929
          },
          {
            "duration": 0.08571425000000232,
            "durationTicks": 96,
            "midi": 0,
            "name": "C-1",
            "ticks": 69120,
            "time": 61.71426,
            "velocity": 0.1732283464566929
          },
          {
            "duration": 0.08571425000000232,
            "durationTicks": 96,
            "midi": 0,
            "name": "C-1",
            "ticks": 69120,
            "time": 61.71426,
            "velocity": 0.1732283464566929
          },
          {
            "duration": 0.08571425000000232,
            "durationTicks": 96,
            "midi": 0,
            "name": "C-1",
            "ticks": 69216,
            "time": 61.799974250000005,
            "velocity": 0.1732283464566929
          },
          {
            "duration": 0.08571424999999522,
            "durationTicks": 96,
            "midi": 0,
            "name": "C-1",
            "ticks": 69312,
            "time": 61.88568850000001,
            "velocity": 0.1732283464566929
          },
          {
            "duration": 0.08571424999999522,
            "durationTicks": 96,
            "midi": 0,
            "name": "C-1",
            "ticks": 69312,
            "time": 61.88568850000001,
            "velocity": 0.1732283464566929
          },
          {
            "duration": 0.08571424999999522,
            "durationTicks": 96,
            "midi": 0,
            "name": "C-1",
            "ticks": 69312,
            "time": 61.88568850000001,
            "velocity": 0.1732283464566929
          },
          {
            "duration": 0.08571425000000232,
            "durationTicks": 96,
            "midi": 0,
            "name": "C-1",
            "ticks": 69408,
            "time": 61.97140275,
            "velocity": 0.1732283464566929
          },
          {
            "duration": 0.08571425000000232,
            "durationTicks": 96,
            "midi": 0,
            "name": "C-1",
            "ticks": 69504,
            "time": 62.057117000000005,
            "velocity": 0.1732283464566929
          },
          {
            "duration": 0.08571425000000232,
            "durationTicks": 96,
            "midi": 0,
            "name": "C-1",
            "ticks": 69504,
            "time": 62.057117000000005,
            "velocity": 0.1732283464566929
          },
          {
            "duration": 0.08571425000000232,
            "durationTicks": 96,
            "midi": 0,
            "name": "C-1",
            "ticks": 69504,
            "time": 62.057117000000005,
            "velocity": 0.1732283464566929
          },
          {
            "duration": 0.08571424999999522,
            "durationTicks": 96,
            "midi": 0,
            "name": "C-1",
            "ticks": 69600,
            "time": 62.14283125000001,
            "velocity": 0.1732283464566929
          },
          {
            "duration": 0.08571425000000232,
            "durationTicks": 96,
            "midi": 0,
            "name": "C-1",
            "ticks": 69696,
            "time": 62.2285455,
            "velocity": 0.1732283464566929
          },
          {
            "duration": 0.08571425000000232,
            "durationTicks": 96,
            "midi": 0,
            "name": "C-1",
            "ticks": 69696,
            "time": 62.2285455,
            "velocity": 0.1732283464566929
          },
          {
            "duration": 0.08571425000000232,
            "durationTicks": 96,
            "midi": 0,
            "name": "C-1",
            "ticks": 69696,
            "time": 62.2285455,
            "velocity": 0.1732283464566929
          },
          {
            "duration": 0.08571425000000232,
            "durationTicks": 96,
            "midi": 0,
            "name": "C-1",
            "ticks": 69792,
            "time": 62.314259750000005,
            "velocity": 0.1732283464566929
          },
          {
            "duration": 0.08571424999999522,
            "durationTicks": 96,
            "midi": 0,
            "name": "C-1",
            "ticks": 69888,
            "time": 62.39997400000001,
            "velocity": 0.1732283464566929
          },
          {
            "duration": 0.08571425000000232,
            "durationTicks": 96,
            "midi": 0,
            "name": "C-1",
            "ticks": 69984,
            "time": 62.48568825,
            "velocity": 0.1732283464566929
          },
          {
            "duration": 0.08571425000000232,
            "durationTicks": 96,
            "midi": 0,
            "name": "C-1",
            "ticks": 70080,
            "time": 62.571402500000005,
            "velocity": 0.1732283464566929
          },
          {
            "duration": 0.08571425000000232,
            "durationTicks": 96,
            "midi": 0,
            "name": "C-1",
            "ticks": 70080,
            "time": 62.571402500000005,
            "velocity": 0.1732283464566929
          },
          {
            "duration": 0.08571425000000232,
            "durationTicks": 96,
            "midi": 0,
            "name": "C-1",
            "ticks": 70080,
            "time": 62.571402500000005,
            "velocity": 0.1732283464566929
          },
          {
            "duration": 0.08571424999999522,
            "durationTicks": 96,
            "midi": 0,
            "name": "C-1",
            "ticks": 70176,
            "time": 62.65711675000001,
            "velocity": 0.1732283464566929
          },
          {
            "duration": 0.08571425000000232,
            "durationTicks": 96,
            "midi": 0,
            "name": "C-1",
            "ticks": 70272,
            "time": 62.742831,
            "velocity": 0.1732283464566929
          },
          {
            "duration": 0.08571425000000232,
            "durationTicks": 96,
            "midi": 0,
            "name": "C-1",
            "ticks": 70272,
            "time": 62.742831,
            "velocity": 0.1732283464566929
          },
          {
            "duration": 0.08571425000000232,
            "durationTicks": 96,
            "midi": 0,
            "name": "C-1",
            "ticks": 70272,
            "time": 62.742831,
            "velocity": 0.1732283464566929
          },
          {
            "duration": 0.08571425000000232,
            "durationTicks": 96,
            "midi": 0,
            "name": "C-1",
            "ticks": 70368,
            "time": 62.828545250000005,
            "velocity": 0.1732283464566929
          },
          {
            "duration": 0.08571424999999522,
            "durationTicks": 96,
            "midi": 0,
            "name": "C-1",
            "ticks": 70464,
            "time": 62.91425950000001,
            "velocity": 0.1732283464566929
          },
          {
            "duration": 0.08571424999999522,
            "durationTicks": 96,
            "midi": 0,
            "name": "C-1",
            "ticks": 70464,
            "time": 62.91425950000001,
            "velocity": 0.1732283464566929
          },
          {
            "duration": 0.08571424999999522,
            "durationTicks": 96,
            "midi": 0,
            "name": "C-1",
            "ticks": 70464,
            "time": 62.91425950000001,
            "velocity": 0.1732283464566929
          },
          {
            "duration": 0.08571425000000232,
            "durationTicks": 96,
            "midi": 0,
            "name": "C-1",
            "ticks": 70560,
            "time": 62.99997375,
            "velocity": 0.1732283464566929
          },
          {
            "duration": 0.08571425000000232,
            "durationTicks": 96,
            "midi": 0,
            "name": "C-1",
            "ticks": 70656,
            "time": 63.085688000000005,
            "velocity": 0.1732283464566929
          },
          {
            "duration": 0.08571425000000232,
            "durationTicks": 96,
            "midi": 0,
            "name": "C-1",
            "ticks": 70656,
            "time": 63.085688000000005,
            "velocity": 0.1732283464566929
          },
          {
            "duration": 0.08571425000000232,
            "durationTicks": 96,
            "midi": 0,
            "name": "C-1",
            "ticks": 70656,
            "time": 63.085688000000005,
            "velocity": 0.1732283464566929
          },
          {
            "duration": 0.08571425000000232,
            "durationTicks": 96,
            "midi": 0,
            "name": "C-1",
            "ticks": 70656,
            "time": 63.085688000000005,
            "velocity": 0.1732283464566929
          },
          {
            "duration": 0.08571425000000232,
            "durationTicks": 96,
            "midi": 0,
            "name": "C-1",
            "ticks": 70656,
            "time": 63.085688000000005,
            "velocity": 0.1732283464566929
          },
          {
            "duration": 0.08571424999999522,
            "durationTicks": 96,
            "midi": 0,
            "name": "C-1",
            "ticks": 70752,
            "time": 63.17140225000001,
            "velocity": 0.1732283464566929
          },
          {
            "duration": 0.08571425000000232,
            "durationTicks": 96,
            "midi": 0,
            "name": "C-1",
            "ticks": 70848,
            "time": 63.2571165,
            "velocity": 0.1732283464566929
          },
          {
            "duration": 0.08571425000000232,
            "durationTicks": 96,
            "midi": 0,
            "name": "C-1",
            "ticks": 70848,
            "time": 63.2571165,
            "velocity": 0.1732283464566929
          },
          {
            "duration": 0.08571425000000232,
            "durationTicks": 96,
            "midi": 0,
            "name": "C-1",
            "ticks": 70848,
            "time": 63.2571165,
            "velocity": 0.1732283464566929
          },
          {
            "duration": 0.08571425000000232,
            "durationTicks": 96,
            "midi": 0,
            "name": "C-1",
            "ticks": 70944,
            "time": 63.342830750000005,
            "velocity": 0.1732283464566929
          },
          {
            "duration": 0.08571424999999522,
            "durationTicks": 96,
            "midi": 0,
            "name": "C-1",
            "ticks": 71040,
            "time": 63.42854500000001,
            "velocity": 0.1732283464566929
          },
          {
            "duration": 0.08571424999999522,
            "durationTicks": 96,
            "midi": 0,
            "name": "C-1",
            "ticks": 71040,
            "time": 63.42854500000001,
            "velocity": 0.1732283464566929
          },
          {
            "duration": 0.08571424999999522,
            "durationTicks": 96,
            "midi": 0,
            "name": "C-1",
            "ticks": 71040,
            "time": 63.42854500000001,
            "velocity": 0.1732283464566929
          },
          {
            "duration": 0.08571425000000232,
            "durationTicks": 96,
            "midi": 0,
            "name": "C-1",
            "ticks": 71136,
            "time": 63.51425925,
            "velocity": 0.1732283464566929
          },
          {
            "duration": 0.08571425000000232,
            "durationTicks": 96,
            "midi": 0,
            "name": "C-1",
            "ticks": 71232,
            "time": 63.599973500000004,
            "velocity": 0.1732283464566929
          },
          {
            "duration": 0.08571425000000232,
            "durationTicks": 96,
            "midi": 0,
            "name": "C-1",
            "ticks": 71232,
            "time": 63.599973500000004,
            "velocity": 0.1732283464566929
          },
          {
            "duration": 0.08571425000000232,
            "durationTicks": 96,
            "midi": 0,
            "name": "C-1",
            "ticks": 71232,
            "time": 63.599973500000004,
            "velocity": 0.1732283464566929
          },
          {
            "duration": 0.08571424999999522,
            "durationTicks": 96,
            "midi": 0,
            "name": "C-1",
            "ticks": 71328,
            "time": 63.68568775000001,
            "velocity": 0.1732283464566929
          },
          {
            "duration": 0.08571425000000232,
            "durationTicks": 96,
            "midi": 0,
            "name": "C-1",
            "ticks": 71424,
            "time": 63.771402,
            "velocity": 0.1732283464566929
          },
          {
            "duration": 0.08571425000000232,
            "durationTicks": 96,
            "midi": 0,
            "name": "C-1",
            "ticks": 71424,
            "time": 63.771402,
            "velocity": 0.1732283464566929
          },
          {
            "duration": 0.08571425000000232,
            "durationTicks": 96,
            "midi": 0,
            "name": "C-1",
            "ticks": 71424,
            "time": 63.771402,
            "velocity": 0.1732283464566929
          },
          {
            "duration": 0.08571425000000232,
            "durationTicks": 96,
            "midi": 0,
            "name": "C-1",
            "ticks": 71520,
            "time": 63.857116250000004,
            "velocity": 0.1732283464566929
          },
          {
            "duration": 0.08571425000000232,
            "durationTicks": 96,
            "midi": 0,
            "name": "C-1",
            "ticks": 71616,
            "time": 63.94283050000001,
            "velocity": 0.1732283464566929
          },
          {
            "duration": 0.08571425000000232,
            "durationTicks": 96,
            "midi": 0,
            "name": "C-1",
            "ticks": 71616,
            "time": 63.94283050000001,
            "velocity": 0.1732283464566929
          },
          {
            "duration": 0.08571425000000232,
            "durationTicks": 96,
            "midi": 0,
            "name": "C-1",
            "ticks": 71616,
            "time": 63.94283050000001,
            "velocity": 0.1732283464566929
          },
          {
            "duration": 0.08571424999999522,
            "durationTicks": 96,
            "midi": 0,
            "name": "C-1",
            "ticks": 71712,
            "time": 64.02854475000001,
            "velocity": 0.1732283464566929
          },
          {
            "duration": 0.08571424999999522,
            "durationTicks": 96,
            "midi": 0,
            "name": "C-1",
            "ticks": 71808,
            "time": 64.114259,
            "velocity": 0.1732283464566929
          },
          {
            "duration": 0.08571424999999522,
            "durationTicks": 96,
            "midi": 0,
            "name": "C-1",
            "ticks": 71808,
            "time": 64.114259,
            "velocity": 0.1732283464566929
          },
          {
            "duration": 0.08571424999999522,
            "durationTicks": 96,
            "midi": 0,
            "name": "C-1",
            "ticks": 71808,
            "time": 64.114259,
            "velocity": 0.1732283464566929
          },
          {
            "duration": 0.08571425000000943,
            "durationTicks": 96,
            "midi": 0,
            "name": "C-1",
            "ticks": 71904,
            "time": 64.19997325,
            "velocity": 0.1732283464566929
          },
          {
            "duration": 0.08571424999999522,
            "durationTicks": 96,
            "midi": 0,
            "name": "C-1",
            "ticks": 72000,
            "time": 64.28568750000001,
            "velocity": 0.1732283464566929
          },
          {
            "duration": 0.08571424999999522,
            "durationTicks": 96,
            "midi": 0,
            "name": "C-1",
            "ticks": 72000,
            "time": 64.28568750000001,
            "velocity": 0.1732283464566929
          },
          {
            "duration": 0.08571424999999522,
            "durationTicks": 96,
            "midi": 0,
            "name": "C-1",
            "ticks": 72000,
            "time": 64.28568750000001,
            "velocity": 0.1732283464566929
          },
          {
            "duration": 0.08571424999999522,
            "durationTicks": 96,
            "midi": 0,
            "name": "C-1",
            "ticks": 72096,
            "time": 64.37140175,
            "velocity": 0.1732283464566929
          },
          {
            "duration": 0.08571425000000943,
            "durationTicks": 96,
            "midi": 0,
            "name": "C-1",
            "ticks": 72192,
            "time": 64.457116,
            "velocity": 0.1732283464566929
          },
          {
            "duration": 0.08571425000000943,
            "durationTicks": 96,
            "midi": 0,
            "name": "C-1",
            "ticks": 72192,
            "time": 64.457116,
            "velocity": 0.1732283464566929
          },
          {
            "duration": 0.08571425000000943,
            "durationTicks": 96,
            "midi": 0,
            "name": "C-1",
            "ticks": 72192,
            "time": 64.457116,
            "velocity": 0.1732283464566929
          },
          {
            "duration": 0.08571425000000943,
            "durationTicks": 96,
            "midi": 0,
            "name": "C-1",
            "ticks": 72192,
            "time": 64.457116,
            "velocity": 0.1732283464566929
          },
          {
            "duration": 0.08571425000000943,
            "durationTicks": 96,
            "midi": 0,
            "name": "C-1",
            "ticks": 72192,
            "time": 64.457116,
            "velocity": 0.1732283464566929
          },
          {
            "duration": 0.08571424999999522,
            "durationTicks": 96,
            "midi": 0,
            "name": "C-1",
            "ticks": 72288,
            "time": 64.54283025000001,
            "velocity": 0.1732283464566929
          },
          {
            "duration": 0.08571424999999522,
            "durationTicks": 96,
            "midi": 0,
            "name": "C-1",
            "ticks": 72384,
            "time": 64.6285445,
            "velocity": 0.1732283464566929
          },
          {
            "duration": 0.08571424999999522,
            "durationTicks": 96,
            "midi": 0,
            "name": "C-1",
            "ticks": 72384,
            "time": 64.6285445,
            "velocity": 0.1732283464566929
          },
          {
            "duration": 0.08571424999999522,
            "durationTicks": 96,
            "midi": 0,
            "name": "C-1",
            "ticks": 72384,
            "time": 64.6285445,
            "velocity": 0.1732283464566929
          },
          {
            "duration": 0.08571425000000943,
            "durationTicks": 96,
            "midi": 0,
            "name": "C-1",
            "ticks": 72480,
            "time": 64.71425875,
            "velocity": 0.1732283464566929
          },
          {
            "duration": 0.08571424999999522,
            "durationTicks": 96,
            "midi": 0,
            "name": "C-1",
            "ticks": 72576,
            "time": 64.79997300000001,
            "velocity": 0.1732283464566929
          },
          {
            "duration": 0.08571424999999522,
            "durationTicks": 96,
            "midi": 0,
            "name": "C-1",
            "ticks": 72576,
            "time": 64.79997300000001,
            "velocity": 0.1732283464566929
          },
          {
            "duration": 0.08571424999999522,
            "durationTicks": 96,
            "midi": 0,
            "name": "C-1",
            "ticks": 72576,
            "time": 64.79997300000001,
            "velocity": 0.1732283464566929
          },
          {
            "duration": 0.08571424999999522,
            "durationTicks": 96,
            "midi": 0,
            "name": "C-1",
            "ticks": 72576,
            "time": 64.79997300000001,
            "velocity": 0.1732283464566929
          },
          {
            "duration": 0.08571424999999522,
            "durationTicks": 96,
            "midi": 0,
            "name": "C-1",
            "ticks": 72576,
            "time": 64.79997300000001,
            "velocity": 0.1732283464566929
          },
          {
            "duration": 0.08571424999999522,
            "durationTicks": 96,
            "midi": 0,
            "name": "C-1",
            "ticks": 72672,
            "time": 64.88568725,
            "velocity": 0.1732283464566929
          },
          {
            "duration": 0.08571425000000943,
            "durationTicks": 96,
            "midi": 0,
            "name": "C-1",
            "ticks": 72768,
            "time": 64.9714015,
            "velocity": 0.1732283464566929
          },
          {
            "duration": 0.08571425000000943,
            "durationTicks": 96,
            "midi": 0,
            "name": "C-1",
            "ticks": 72768,
            "time": 64.9714015,
            "velocity": 0.1732283464566929
          },
          {
            "duration": 0.08571425000000943,
            "durationTicks": 96,
            "midi": 0,
            "name": "C-1",
            "ticks": 72768,
            "time": 64.9714015,
            "velocity": 0.1732283464566929
          },
          {
            "duration": 0.08571424999999522,
            "durationTicks": 96,
            "midi": 0,
            "name": "C-1",
            "ticks": 72864,
            "time": 65.05711575000001,
            "velocity": 0.1732283464566929
          },
          {
            "duration": 0.08571424999999522,
            "durationTicks": 96,
            "midi": 0,
            "name": "C-1",
            "ticks": 72960,
            "time": 65.14283,
            "velocity": 0.1732283464566929
          },
          {
            "duration": 0.08571424999999522,
            "durationTicks": 96,
            "midi": 0,
            "name": "C-1",
            "ticks": 72960,
            "time": 65.14283,
            "velocity": 0.1732283464566929
          },
          {
            "duration": 0.08571424999999522,
            "durationTicks": 96,
            "midi": 0,
            "name": "C-1",
            "ticks": 72960,
            "time": 65.14283,
            "velocity": 0.1732283464566929
          },
          {
            "duration": 0.08571424999999522,
            "durationTicks": 96,
            "midi": 0,
            "name": "C-1",
            "ticks": 72960,
            "time": 65.14283,
            "velocity": 0.1732283464566929
          },
          {
            "duration": 0.08571424999999522,
            "durationTicks": 96,
            "midi": 0,
            "name": "C-1",
            "ticks": 72960,
            "time": 65.14283,
            "velocity": 0.1732283464566929
          },
          {
            "duration": 0.08571425000000943,
            "durationTicks": 96,
            "midi": 0,
            "name": "C-1",
            "ticks": 73056,
            "time": 65.22854425,
            "velocity": 0.1732283464566929
          },
          {
            "duration": 0.08571424999999522,
            "durationTicks": 96,
            "midi": 0,
            "name": "C-1",
            "ticks": 73152,
            "time": 65.31425850000001,
            "velocity": 0.1732283464566929
          },
          {
            "duration": 0.08571424999999522,
            "durationTicks": 96,
            "midi": 0,
            "name": "C-1",
            "ticks": 73152,
            "time": 65.31425850000001,
            "velocity": 0.1732283464566929
          },
          {
            "duration": 0.08571424999999522,
            "durationTicks": 96,
            "midi": 0,
            "name": "C-1",
            "ticks": 73152,
            "time": 65.31425850000001,
            "velocity": 0.1732283464566929
          },
          {
            "duration": 0.08571424999999522,
            "durationTicks": 96,
            "midi": 0,
            "name": "C-1",
            "ticks": 73248,
            "time": 65.39997275,
            "velocity": 0.1732283464566929
          },
          {
            "duration": 0.08571425000000943,
            "durationTicks": 96,
            "midi": 0,
            "name": "C-1",
            "ticks": 73344,
            "time": 65.485687,
            "velocity": 0.1732283464566929
          },
          {
            "duration": 0.08571425000000943,
            "durationTicks": 96,
            "midi": 0,
            "name": "C-1",
            "ticks": 73344,
            "time": 65.485687,
            "velocity": 0.1732283464566929
          },
          {
            "duration": 0.08571425000000943,
            "durationTicks": 96,
            "midi": 0,
            "name": "C-1",
            "ticks": 73344,
            "time": 65.485687,
            "velocity": 0.1732283464566929
          },
          {
            "duration": 0.08571425000000943,
            "durationTicks": 96,
            "midi": 0,
            "name": "C-1",
            "ticks": 73344,
            "time": 65.485687,
            "velocity": 0.1732283464566929
          },
          {
            "duration": 0.08571425000000943,
            "durationTicks": 96,
            "midi": 0,
            "name": "C-1",
            "ticks": 73344,
            "time": 65.485687,
            "velocity": 0.1732283464566929
          },
          {
            "duration": 0.08571424999999522,
            "durationTicks": 96,
            "midi": 0,
            "name": "C-1",
            "ticks": 73440,
            "time": 65.57140125000001,
            "velocity": 0.1732283464566929
          },
          {
            "duration": 0.08571424999999522,
            "durationTicks": 96,
            "midi": 0,
            "name": "C-1",
            "ticks": 73536,
            "time": 65.6571155,
            "velocity": 0.1732283464566929
          },
          {
            "duration": 0.08571424999999522,
            "durationTicks": 96,
            "midi": 0,
            "name": "C-1",
            "ticks": 73536,
            "time": 65.6571155,
            "velocity": 0.1732283464566929
          },
          {
            "duration": 0.08571424999999522,
            "durationTicks": 96,
            "midi": 0,
            "name": "C-1",
            "ticks": 73536,
            "time": 65.6571155,
            "velocity": 0.1732283464566929
          },
          {
            "duration": 0.08571425000000943,
            "durationTicks": 96,
            "midi": 0,
            "name": "C-1",
            "ticks": 73632,
            "time": 65.74282975,
            "velocity": 0.1732283464566929
          },
          {
            "duration": 0.08571424999999522,
            "durationTicks": 96,
            "midi": 0,
            "name": "C-1",
            "ticks": 73728,
            "time": 65.82854400000001,
            "velocity": 0.1732283464566929
          },
          {
            "duration": 0.08571424999999522,
            "durationTicks": 96,
            "midi": 0,
            "name": "C-1",
            "ticks": 73728,
            "time": 65.82854400000001,
            "velocity": 0.1732283464566929
          },
          {
            "duration": 0.08571424999999522,
            "durationTicks": 96,
            "midi": 0,
            "name": "C-1",
            "ticks": 73728,
            "time": 65.82854400000001,
            "velocity": 0.1732283464566929
          },
          {
            "duration": 0.08571424999999522,
            "durationTicks": 96,
            "midi": 0,
            "name": "C-1",
            "ticks": 73728,
            "time": 65.82854400000001,
            "velocity": 0.1732283464566929
          },
          {
            "duration": 0.08571424999999522,
            "durationTicks": 96,
            "midi": 0,
            "name": "C-1",
            "ticks": 73728,
            "time": 65.82854400000001,
            "velocity": 0.1732283464566929
          },
          {
            "duration": 0.08571424999999522,
            "durationTicks": 96,
            "midi": 0,
            "name": "C-1",
            "ticks": 73824,
            "time": 65.91425825,
            "velocity": 0.1732283464566929
          },
          {
            "duration": 0.08571425000000943,
            "durationTicks": 96,
            "midi": 0,
            "name": "C-1",
            "ticks": 73920,
            "time": 65.9999725,
            "velocity": 0.1732283464566929
          },
          {
            "duration": 0.08571425000000943,
            "durationTicks": 96,
            "midi": 0,
            "name": "C-1",
            "ticks": 73920,
            "time": 65.9999725,
            "velocity": 0.1732283464566929
          },
          {
            "duration": 0.08571425000000943,
            "durationTicks": 96,
            "midi": 0,
            "name": "C-1",
            "ticks": 73920,
            "time": 65.9999725,
            "velocity": 0.1732283464566929
          },
          {
            "duration": 0.08571424999999522,
            "durationTicks": 96,
            "midi": 0,
            "name": "C-1",
            "ticks": 74016,
            "time": 66.08568675000001,
            "velocity": 0.1732283464566929
          },
          {
            "duration": 0.08571424999999522,
            "durationTicks": 96,
            "midi": 0,
            "name": "C-1",
            "ticks": 74112,
            "time": 66.171401,
            "velocity": 0.1732283464566929
          },
          {
            "duration": 0.08571424999999522,
            "durationTicks": 96,
            "midi": 0,
            "name": "C-1",
            "ticks": 74112,
            "time": 66.171401,
            "velocity": 0.1732283464566929
          },
          {
            "duration": 0.08571424999999522,
            "durationTicks": 96,
            "midi": 0,
            "name": "C-1",
            "ticks": 74112,
            "time": 66.171401,
            "velocity": 0.1732283464566929
          },
          {
            "duration": 0.08571425000000943,
            "durationTicks": 96,
            "midi": 0,
            "name": "C-1",
            "ticks": 74208,
            "time": 66.25711525,
            "velocity": 0.1732283464566929
          },
          {
            "duration": 0.08571424999999522,
            "durationTicks": 96,
            "midi": 0,
            "name": "C-1",
            "ticks": 74304,
            "time": 66.34282950000001,
            "velocity": 0.1732283464566929
          },
          {
            "duration": 0.08571424999999522,
            "durationTicks": 96,
            "midi": 0,
            "name": "C-1",
            "ticks": 74304,
            "time": 66.34282950000001,
            "velocity": 0.1732283464566929
          },
          {
            "duration": 0.08571424999999522,
            "durationTicks": 96,
            "midi": 0,
            "name": "C-1",
            "ticks": 74304,
            "time": 66.34282950000001,
            "velocity": 0.1732283464566929
          },
          {
            "duration": 0.08571424999999522,
            "durationTicks": 96,
            "midi": 0,
            "name": "C-1",
            "ticks": 74400,
            "time": 66.42854375,
            "velocity": 0.1732283464566929
          },
          {
            "duration": 0.08571425000000943,
            "durationTicks": 96,
            "midi": 0,
            "name": "C-1",
            "ticks": 74496,
            "time": 66.514258,
            "velocity": 0.1732283464566929
          },
          {
            "duration": 0.08571424999999522,
            "durationTicks": 96,
            "midi": 0,
            "name": "C-1",
            "ticks": 74592,
            "time": 66.59997225000001,
            "velocity": 0.1732283464566929
          },
          {
            "duration": 0.08571424999999522,
            "durationTicks": 96,
            "midi": 0,
            "name": "C-1",
            "ticks": 74688,
            "time": 66.6856865,
            "velocity": 0.1732283464566929
          },
          {
            "duration": 0.08571424999999522,
            "durationTicks": 96,
            "midi": 0,
            "name": "C-1",
            "ticks": 74688,
            "time": 66.6856865,
            "velocity": 0.1732283464566929
          },
          {
            "duration": 0.08571424999999522,
            "durationTicks": 96,
            "midi": 0,
            "name": "C-1",
            "ticks": 74688,
            "time": 66.6856865,
            "velocity": 0.1732283464566929
          },
          {
            "duration": 0.08571425000000943,
            "durationTicks": 96,
            "midi": 0,
            "name": "C-1",
            "ticks": 74784,
            "time": 66.77140075,
            "velocity": 0.1732283464566929
          },
          {
            "duration": 0.08571424999999522,
            "durationTicks": 96,
            "midi": 0,
            "name": "C-1",
            "ticks": 74880,
            "time": 66.85711500000001,
            "velocity": 0.1732283464566929
          },
          {
            "duration": 0.08571424999999522,
            "durationTicks": 96,
            "midi": 0,
            "name": "C-1",
            "ticks": 74880,
            "time": 66.85711500000001,
            "velocity": 0.1732283464566929
          },
          {
            "duration": 0.08571424999999522,
            "durationTicks": 96,
            "midi": 0,
            "name": "C-1",
            "ticks": 74880,
            "time": 66.85711500000001,
            "velocity": 0.1732283464566929
          },
          {
            "duration": 0.08571424999999522,
            "durationTicks": 96,
            "midi": 0,
            "name": "C-1",
            "ticks": 74976,
            "time": 66.94282925,
            "velocity": 0.1732283464566929
          },
          {
            "duration": 0.08571425000000943,
            "durationTicks": 96,
            "midi": 0,
            "name": "C-1",
            "ticks": 75072,
            "time": 67.0285435,
            "velocity": 0.1732283464566929
          },
          {
            "duration": 0.08571425000000943,
            "durationTicks": 96,
            "midi": 0,
            "name": "C-1",
            "ticks": 75072,
            "time": 67.0285435,
            "velocity": 0.1732283464566929
          },
          {
            "duration": 0.08571425000000943,
            "durationTicks": 96,
            "midi": 0,
            "name": "C-1",
            "ticks": 75072,
            "time": 67.0285435,
            "velocity": 0.1732283464566929
          },
          {
            "duration": 0.08571424999999522,
            "durationTicks": 96,
            "midi": 0,
            "name": "C-1",
            "ticks": 75168,
            "time": 67.11425775000001,
            "velocity": 0.1732283464566929
          },
          {
            "duration": 0.08571424999999522,
            "durationTicks": 96,
            "midi": 0,
            "name": "C-1",
            "ticks": 75264,
            "time": 67.199972,
            "velocity": 0.1732283464566929
          },
          {
            "duration": 0.08571424999999522,
            "durationTicks": 96,
            "midi": 0,
            "name": "C-1",
            "ticks": 75264,
            "time": 67.199972,
            "velocity": 0.1732283464566929
          },
          {
            "duration": 0.08571424999999522,
            "durationTicks": 96,
            "midi": 0,
            "name": "C-1",
            "ticks": 75264,
            "time": 67.199972,
            "velocity": 0.1732283464566929
          },
          {
            "duration": 0.08571425000000943,
            "durationTicks": 96,
            "midi": 0,
            "name": "C-1",
            "ticks": 75360,
            "time": 67.28568625,
            "velocity": 0.1732283464566929
          },
          {
            "duration": 0.08571424999999522,
            "durationTicks": 96,
            "midi": 0,
            "name": "C-1",
            "ticks": 75456,
            "time": 67.37140050000001,
            "velocity": 0.1732283464566929
          },
          {
            "duration": 0.08571424999999522,
            "durationTicks": 96,
            "midi": 0,
            "name": "C-1",
            "ticks": 75456,
            "time": 67.37140050000001,
            "velocity": 0.1732283464566929
          },
          {
            "duration": 0.08571424999999522,
            "durationTicks": 96,
            "midi": 0,
            "name": "C-1",
            "ticks": 75456,
            "time": 67.37140050000001,
            "velocity": 0.1732283464566929
          },
          {
            "duration": 0.08571424999999522,
            "durationTicks": 96,
            "midi": 0,
            "name": "C-1",
            "ticks": 75552,
            "time": 67.45711475,
            "velocity": 0.1732283464566929
          },
          {
            "duration": 0.08571425000000943,
            "durationTicks": 96,
            "midi": 0,
            "name": "C-1",
            "ticks": 75648,
            "time": 67.542829,
            "velocity": 0.1732283464566929
          },
          {
            "duration": 0.08571425000000943,
            "durationTicks": 96,
            "midi": 0,
            "name": "C-1",
            "ticks": 75648,
            "time": 67.542829,
            "velocity": 0.1732283464566929
          },
          {
            "duration": 0.08571425000000943,
            "durationTicks": 96,
            "midi": 0,
            "name": "C-1",
            "ticks": 75648,
            "time": 67.542829,
            "velocity": 0.1732283464566929
          },
          {
            "duration": 0.08571424999999522,
            "durationTicks": 96,
            "midi": 0,
            "name": "C-1",
            "ticks": 75744,
            "time": 67.62854325,
            "velocity": 0.1732283464566929
          },
          {
            "duration": 0.08571424999999522,
            "durationTicks": 96,
            "midi": 0,
            "name": "C-1",
            "ticks": 75840,
            "time": 67.7142575,
            "velocity": 0.1732283464566929
          },
          {
            "duration": 0.08571424999999522,
            "durationTicks": 96,
            "midi": 0,
            "name": "C-1",
            "ticks": 75840,
            "time": 67.7142575,
            "velocity": 0.1732283464566929
          },
          {
            "duration": 0.08571424999999522,
            "durationTicks": 96,
            "midi": 0,
            "name": "C-1",
            "ticks": 75840,
            "time": 67.7142575,
            "velocity": 0.1732283464566929
          },
          {
            "duration": 0.08571425000000943,
            "durationTicks": 96,
            "midi": 0,
            "name": "C-1",
            "ticks": 75936,
            "time": 67.79997175,
            "velocity": 0.1732283464566929
          },
          {
            "duration": 0.08571424999999522,
            "durationTicks": 96,
            "midi": 0,
            "name": "C-1",
            "ticks": 76032,
            "time": 67.885686,
            "velocity": 0.1732283464566929
          },
          {
            "duration": 0.08571425000000943,
            "durationTicks": 96,
            "midi": 0,
            "name": "C-1",
            "ticks": 76128,
            "time": 67.97140025,
            "velocity": 0.1732283464566929
          },
          {
            "duration": 0.08571424999999522,
            "durationTicks": 96,
            "midi": 0,
            "name": "C-1",
            "ticks": 76224,
            "time": 68.05711450000001,
            "velocity": 0.1732283464566929
          },
          {
            "duration": 0.08571424999999522,
            "durationTicks": 96,
            "midi": 0,
            "name": "C-1",
            "ticks": 76224,
            "time": 68.05711450000001,
            "velocity": 0.1732283464566929
          },
          {
            "duration": 0.08571424999999522,
            "durationTicks": 96,
            "midi": 0,
            "name": "C-1",
            "ticks": 76224,
            "time": 68.05711450000001,
            "velocity": 0.1732283464566929
          },
          {
            "duration": 0.08571424999999522,
            "durationTicks": 96,
            "midi": 0,
            "name": "C-1",
            "ticks": 76320,
            "time": 68.14282875,
            "velocity": 0.1732283464566929
          },
          {
            "duration": 0.08571425000000943,
            "durationTicks": 96,
            "midi": 0,
            "name": "C-1",
            "ticks": 76416,
            "time": 68.228543,
            "velocity": 0.1732283464566929
          },
          {
            "duration": 0.08571425000000943,
            "durationTicks": 96,
            "midi": 0,
            "name": "C-1",
            "ticks": 76416,
            "time": 68.228543,
            "velocity": 0.1732283464566929
          },
          {
            "duration": 0.08571425000000943,
            "durationTicks": 96,
            "midi": 0,
            "name": "C-1",
            "ticks": 76416,
            "time": 68.228543,
            "velocity": 0.1732283464566929
          },
          {
            "duration": 0.08571424999999522,
            "durationTicks": 96,
            "midi": 0,
            "name": "C-1",
            "ticks": 76512,
            "time": 68.31425725000001,
            "velocity": 0.1732283464566929
          },
          {
            "duration": 0.08571424999999522,
            "durationTicks": 96,
            "midi": 0,
            "name": "C-1",
            "ticks": 76608,
            "time": 68.3999715,
            "velocity": 0.1732283464566929
          },
          {
            "duration": 0.08571424999999522,
            "durationTicks": 96,
            "midi": 0,
            "name": "C-1",
            "ticks": 76608,
            "time": 68.3999715,
            "velocity": 0.1732283464566929
          },
          {
            "duration": 0.08571424999999522,
            "durationTicks": 96,
            "midi": 0,
            "name": "C-1",
            "ticks": 76608,
            "time": 68.3999715,
            "velocity": 0.1732283464566929
          },
          {
            "duration": 0.08571425000000943,
            "durationTicks": 96,
            "midi": 0,
            "name": "C-1",
            "ticks": 76704,
            "time": 68.48568575,
            "velocity": 0.1732283464566929
          },
          {
            "duration": 0.08571424999999522,
            "durationTicks": 96,
            "midi": 0,
            "name": "C-1",
            "ticks": 76800,
            "time": 68.57140000000001,
            "velocity": 0.1732283464566929
          },
          {
            "duration": 0.08571424999999522,
            "durationTicks": 96,
            "midi": 0,
            "name": "C-1",
            "ticks": 76800,
            "time": 68.57140000000001,
            "velocity": 0.1732283464566929
          },
          {
            "duration": 0.08571424999999522,
            "durationTicks": 96,
            "midi": 0,
            "name": "C-1",
            "ticks": 76800,
            "time": 68.57140000000001,
            "velocity": 0.1732283464566929
          },
          {
            "duration": 0.08571424999999522,
            "durationTicks": 96,
            "midi": 0,
            "name": "C-1",
            "ticks": 76800,
            "time": 68.57140000000001,
            "velocity": 0.1732283464566929
          },
          {
            "duration": 0.08571424999999522,
            "durationTicks": 96,
            "midi": 0,
            "name": "C-1",
            "ticks": 76800,
            "time": 68.57140000000001,
            "velocity": 0.1732283464566929
          },
          {
            "duration": 0.08571424999999522,
            "durationTicks": 96,
            "midi": 0,
            "name": "C-1",
            "ticks": 76896,
            "time": 68.65711425,
            "velocity": 0.1732283464566929
          },
          {
            "duration": 0.08571425000000943,
            "durationTicks": 96,
            "midi": 0,
            "name": "C-1",
            "ticks": 76992,
            "time": 68.7428285,
            "velocity": 0.1732283464566929
          },
          {
            "duration": 0.08571425000000943,
            "durationTicks": 96,
            "midi": 0,
            "name": "C-1",
            "ticks": 76992,
            "time": 68.7428285,
            "velocity": 0.1732283464566929
          },
          {
            "duration": 0.08571425000000943,
            "durationTicks": 96,
            "midi": 0,
            "name": "C-1",
            "ticks": 76992,
            "time": 68.7428285,
            "velocity": 0.1732283464566929
          },
          {
            "duration": 0.08571424999999522,
            "durationTicks": 96,
            "midi": 0,
            "name": "C-1",
            "ticks": 77088,
            "time": 68.82854275000001,
            "velocity": 0.1732283464566929
          },
          {
            "duration": 0.08571424999999522,
            "durationTicks": 96,
            "midi": 0,
            "name": "C-1",
            "ticks": 77184,
            "time": 68.914257,
            "velocity": 0.1732283464566929
          },
          {
            "duration": 0.08571424999999522,
            "durationTicks": 96,
            "midi": 0,
            "name": "C-1",
            "ticks": 77184,
            "time": 68.914257,
            "velocity": 0.1732283464566929
          },
          {
            "duration": 0.08571424999999522,
            "durationTicks": 96,
            "midi": 0,
            "name": "C-1",
            "ticks": 77184,
            "time": 68.914257,
            "velocity": 0.1732283464566929
          },
          {
            "duration": 0.08571425000000943,
            "durationTicks": 96,
            "midi": 0,
            "name": "C-1",
            "ticks": 77280,
            "time": 68.99997125,
            "velocity": 0.1732283464566929
          },
          {
            "duration": 0.08571424999999522,
            "durationTicks": 96,
            "midi": 0,
            "name": "C-1",
            "ticks": 77376,
            "time": 69.08568550000001,
            "velocity": 0.1732283464566929
          },
          {
            "duration": 0.08571424999999522,
            "durationTicks": 96,
            "midi": 0,
            "name": "C-1",
            "ticks": 77376,
            "time": 69.08568550000001,
            "velocity": 0.1732283464566929
          },
          {
            "duration": 0.08571424999999522,
            "durationTicks": 96,
            "midi": 0,
            "name": "C-1",
            "ticks": 77376,
            "time": 69.08568550000001,
            "velocity": 0.1732283464566929
          },
          {
            "duration": 0.08571424999999522,
            "durationTicks": 96,
            "midi": 0,
            "name": "C-1",
            "ticks": 77472,
            "time": 69.17139975,
            "velocity": 0.1732283464566929
          },
          {
            "duration": 0.08571425000000943,
            "durationTicks": 96,
            "midi": 0,
            "name": "C-1",
            "ticks": 77568,
            "time": 69.257114,
            "velocity": 0.1732283464566929
          },
          {
            "duration": 0.08571424999999522,
            "durationTicks": 96,
            "midi": 0,
            "name": "C-1",
            "ticks": 77664,
            "time": 69.34282825000001,
            "velocity": 0.1732283464566929
          },
          {
            "duration": 0.08571424999999522,
            "durationTicks": 96,
            "midi": 0,
            "name": "C-1",
            "ticks": 77760,
            "time": 69.4285425,
            "velocity": 0.1732283464566929
          },
          {
            "duration": 0.08571424999999522,
            "durationTicks": 96,
            "midi": 0,
            "name": "C-1",
            "ticks": 77760,
            "time": 69.4285425,
            "velocity": 0.1732283464566929
          },
          {
            "duration": 0.08571424999999522,
            "durationTicks": 96,
            "midi": 0,
            "name": "C-1",
            "ticks": 77760,
            "time": 69.4285425,
            "velocity": 0.1732283464566929
          },
          {
            "duration": 0.08571425000000943,
            "durationTicks": 96,
            "midi": 0,
            "name": "C-1",
            "ticks": 77856,
            "time": 69.51425675,
            "velocity": 0.1732283464566929
          },
          {
            "duration": 0.08571424999999522,
            "durationTicks": 96,
            "midi": 0,
            "name": "C-1",
            "ticks": 77952,
            "time": 69.59997100000001,
            "velocity": 0.1732283464566929
          },
          {
            "duration": 0.08571424999999522,
            "durationTicks": 96,
            "midi": 0,
            "name": "C-1",
            "ticks": 77952,
            "time": 69.59997100000001,
            "velocity": 0.1732283464566929
          },
          {
            "duration": 0.08571424999999522,
            "durationTicks": 96,
            "midi": 0,
            "name": "C-1",
            "ticks": 77952,
            "time": 69.59997100000001,
            "velocity": 0.1732283464566929
          },
          {
            "duration": 0.08571424999999522,
            "durationTicks": 96,
            "midi": 0,
            "name": "C-1",
            "ticks": 78048,
            "time": 69.68568525,
            "velocity": 0.1732283464566929
          },
          {
            "duration": 0.08571425000000943,
            "durationTicks": 96,
            "midi": 0,
            "name": "C-1",
            "ticks": 78144,
            "time": 69.7713995,
            "velocity": 0.1732283464566929
          },
          {
            "duration": 0.08571425000000943,
            "durationTicks": 96,
            "midi": 0,
            "name": "C-1",
            "ticks": 78144,
            "time": 69.7713995,
            "velocity": 0.1732283464566929
          },
          {
            "duration": 0.08571425000000943,
            "durationTicks": 96,
            "midi": 0,
            "name": "C-1",
            "ticks": 78144,
            "time": 69.7713995,
            "velocity": 0.1732283464566929
          },
          {
            "duration": 0.08571424999999522,
            "durationTicks": 96,
            "midi": 0,
            "name": "C-1",
            "ticks": 78240,
            "time": 69.85711375000001,
            "velocity": 0.1732283464566929
          },
          {
            "duration": 0.08571424999999522,
            "durationTicks": 96,
            "midi": 0,
            "name": "C-1",
            "ticks": 78336,
            "time": 69.942828,
            "velocity": 0.1732283464566929
          },
          {
            "duration": 0.08571424999999522,
            "durationTicks": 96,
            "midi": 0,
            "name": "C-1",
            "ticks": 78336,
            "time": 69.942828,
            "velocity": 0.1732283464566929
          },
          {
            "duration": 0.08571424999999522,
            "durationTicks": 96,
            "midi": 0,
            "name": "C-1",
            "ticks": 78336,
            "time": 69.942828,
            "velocity": 0.1732283464566929
          },
          {
            "duration": 0.08571424999999522,
            "durationTicks": 96,
            "midi": 0,
            "name": "C-1",
            "ticks": 78336,
            "time": 69.942828,
            "velocity": 0.1732283464566929
          },
          {
            "duration": 0.08571424999999522,
            "durationTicks": 96,
            "midi": 0,
            "name": "C-1",
            "ticks": 78336,
            "time": 69.942828,
            "velocity": 0.1732283464566929
          },
          {
            "duration": 0.08571425000000943,
            "durationTicks": 96,
            "midi": 0,
            "name": "C-1",
            "ticks": 78432,
            "time": 70.02854225,
            "velocity": 0.1732283464566929
          },
          {
            "duration": 0.08571424999999522,
            "durationTicks": 96,
            "midi": 0,
            "name": "C-1",
            "ticks": 78528,
            "time": 70.11425650000001,
            "velocity": 0.1732283464566929
          },
          {
            "duration": 0.08571424999999522,
            "durationTicks": 96,
            "midi": 0,
            "name": "C-1",
            "ticks": 78528,
            "time": 70.11425650000001,
            "velocity": 0.1732283464566929
          },
          {
            "duration": 0.08571424999999522,
            "durationTicks": 96,
            "midi": 0,
            "name": "C-1",
            "ticks": 78528,
            "time": 70.11425650000001,
            "velocity": 0.1732283464566929
          },
          {
            "duration": 0.08571424999999522,
            "durationTicks": 96,
            "midi": 0,
            "name": "C-1",
            "ticks": 78624,
            "time": 70.19997075,
            "velocity": 0.1732283464566929
          },
          {
            "duration": 0.08571425000000943,
            "durationTicks": 96,
            "midi": 0,
            "name": "C-1",
            "ticks": 78720,
            "time": 70.285685,
            "velocity": 0.1732283464566929
          },
          {
            "duration": 0.08571425000000943,
            "durationTicks": 96,
            "midi": 0,
            "name": "C-1",
            "ticks": 78720,
            "time": 70.285685,
            "velocity": 0.1732283464566929
          },
          {
            "duration": 0.08571425000000943,
            "durationTicks": 96,
            "midi": 0,
            "name": "C-1",
            "ticks": 78720,
            "time": 70.285685,
            "velocity": 0.1732283464566929
          },
          {
            "duration": 0.08571424999999522,
            "durationTicks": 96,
            "midi": 0,
            "name": "C-1",
            "ticks": 78816,
            "time": 70.37139925000001,
            "velocity": 0.1732283464566929
          },
          {
            "duration": 0.08571424999999522,
            "durationTicks": 96,
            "midi": 0,
            "name": "C-1",
            "ticks": 78912,
            "time": 70.4571135,
            "velocity": 0.1732283464566929
          },
          {
            "duration": 0.08571424999999522,
            "durationTicks": 96,
            "midi": 0,
            "name": "C-1",
            "ticks": 78912,
            "time": 70.4571135,
            "velocity": 0.1732283464566929
          },
          {
            "duration": 0.08571424999999522,
            "durationTicks": 96,
            "midi": 0,
            "name": "C-1",
            "ticks": 78912,
            "time": 70.4571135,
            "velocity": 0.1732283464566929
          },
          {
            "duration": 0.08571425000000943,
            "durationTicks": 96,
            "midi": 0,
            "name": "C-1",
            "ticks": 79008,
            "time": 70.54282775,
            "velocity": 0.1732283464566929
          },
          {
            "duration": 0.08571424999999522,
            "durationTicks": 96,
            "midi": 0,
            "name": "C-1",
            "ticks": 79104,
            "time": 70.62854200000001,
            "velocity": 0.1732283464566929
          },
          {
            "duration": 0.08571424999999522,
            "durationTicks": 96,
            "midi": 0,
            "name": "C-1",
            "ticks": 79104,
            "time": 70.62854200000001,
            "velocity": 0.1732283464566929
          },
          {
            "duration": 0.08571424999999522,
            "durationTicks": 96,
            "midi": 0,
            "name": "C-1",
            "ticks": 79104,
            "time": 70.62854200000001,
            "velocity": 0.1732283464566929
          },
          {
            "duration": 0.08571424999999522,
            "durationTicks": 96,
            "midi": 0,
            "name": "C-1",
            "ticks": 79104,
            "time": 70.62854200000001,
            "velocity": 0.1732283464566929
          },
          {
            "duration": 0.08571424999999522,
            "durationTicks": 96,
            "midi": 0,
            "name": "C-1",
            "ticks": 79104,
            "time": 70.62854200000001,
            "velocity": 0.1732283464566929
          },
          {
            "duration": 0.08571424999999522,
            "durationTicks": 96,
            "midi": 0,
            "name": "C-1",
            "ticks": 79200,
            "time": 70.71425625,
            "velocity": 0.1732283464566929
          },
          {
            "duration": 0.08571425000000943,
            "durationTicks": 96,
            "midi": 0,
            "name": "C-1",
            "ticks": 79296,
            "time": 70.7999705,
            "velocity": 0.1732283464566929
          },
          {
            "duration": 0.08571425000000943,
            "durationTicks": 96,
            "midi": 0,
            "name": "C-1",
            "ticks": 79296,
            "time": 70.7999705,
            "velocity": 0.1732283464566929
          },
          {
            "duration": 0.08571425000000943,
            "durationTicks": 96,
            "midi": 0,
            "name": "C-1",
            "ticks": 79296,
            "time": 70.7999705,
            "velocity": 0.1732283464566929
          },
          {
            "duration": 0.08571424999999522,
            "durationTicks": 96,
            "midi": 0,
            "name": "C-1",
            "ticks": 79392,
            "time": 70.88568475000001,
            "velocity": 0.1732283464566929
          },
          {
            "duration": 0.08571424999999522,
            "durationTicks": 96,
            "midi": 0,
            "name": "C-1",
            "ticks": 79488,
            "time": 70.971399,
            "velocity": 0.1732283464566929
          },
          {
            "duration": 0.08571424999999522,
            "durationTicks": 96,
            "midi": 0,
            "name": "C-1",
            "ticks": 79488,
            "time": 70.971399,
            "velocity": 0.1732283464566929
          },
          {
            "duration": 0.08571424999999522,
            "durationTicks": 96,
            "midi": 0,
            "name": "C-1",
            "ticks": 79488,
            "time": 70.971399,
            "velocity": 0.1732283464566929
          },
          {
            "duration": 0.08571425000000943,
            "durationTicks": 96,
            "midi": 0,
            "name": "C-1",
            "ticks": 79584,
            "time": 71.05711325,
            "velocity": 0.1732283464566929
          },
          {
            "duration": 0.08571424999999522,
            "durationTicks": 96,
            "midi": 0,
            "name": "C-1",
            "ticks": 79680,
            "time": 71.14282750000001,
            "velocity": 0.1732283464566929
          },
          {
            "duration": 0.08571424999999522,
            "durationTicks": 96,
            "midi": 0,
            "name": "C-1",
            "ticks": 79680,
            "time": 71.14282750000001,
            "velocity": 0.1732283464566929
          },
          {
            "duration": 0.08571424999999522,
            "durationTicks": 96,
            "midi": 0,
            "name": "C-1",
            "ticks": 79680,
            "time": 71.14282750000001,
            "velocity": 0.1732283464566929
          },
          {
            "duration": 0.08571424999999522,
            "durationTicks": 96,
            "midi": 0,
            "name": "C-1",
            "ticks": 79776,
            "time": 71.22854175,
            "velocity": 0.1732283464566929
          },
          {
            "duration": 0.08571425000000943,
            "durationTicks": 96,
            "midi": 0,
            "name": "C-1",
            "ticks": 79872,
            "time": 71.314256,
            "velocity": 0.1732283464566929
          },
          {
            "duration": 0.08571425000000943,
            "durationTicks": 96,
            "midi": 0,
            "name": "C-1",
            "ticks": 79872,
            "time": 71.314256,
            "velocity": 0.1732283464566929
          },
          {
            "duration": 0.08571425000000943,
            "durationTicks": 96,
            "midi": 0,
            "name": "C-1",
            "ticks": 79872,
            "time": 71.314256,
            "velocity": 0.1732283464566929
          },
          {
            "duration": 0.08571425000000943,
            "durationTicks": 96,
            "midi": 0,
            "name": "C-1",
            "ticks": 79872,
            "time": 71.314256,
            "velocity": 0.1732283464566929
          },
          {
            "duration": 0.08571425000000943,
            "durationTicks": 96,
            "midi": 0,
            "name": "C-1",
            "ticks": 79872,
            "time": 71.314256,
            "velocity": 0.1732283464566929
          },
          {
            "duration": 0.08571424999999522,
            "durationTicks": 96,
            "midi": 0,
            "name": "C-1",
            "ticks": 79968,
            "time": 71.39997025000001,
            "velocity": 0.1732283464566929
          },
          {
            "duration": 0.08571424999999522,
            "durationTicks": 96,
            "midi": 0,
            "name": "C-1",
            "ticks": 80064,
            "time": 71.4856845,
            "velocity": 0.1732283464566929
          },
          {
            "duration": 0.08571424999999522,
            "durationTicks": 96,
            "midi": 0,
            "name": "C-1",
            "ticks": 80064,
            "time": 71.4856845,
            "velocity": 0.1732283464566929
          },
          {
            "duration": 0.08571424999999522,
            "durationTicks": 96,
            "midi": 0,
            "name": "C-1",
            "ticks": 80064,
            "time": 71.4856845,
            "velocity": 0.1732283464566929
          },
          {
            "duration": 0.08571425000000943,
            "durationTicks": 96,
            "midi": 0,
            "name": "C-1",
            "ticks": 80160,
            "time": 71.57139875,
            "velocity": 0.1732283464566929
          },
          {
            "duration": 0.08571424999999522,
            "durationTicks": 96,
            "midi": 0,
            "name": "C-1",
            "ticks": 80256,
            "time": 71.65711300000001,
            "velocity": 0.1732283464566929
          },
          {
            "duration": 0.08571424999999522,
            "durationTicks": 96,
            "midi": 0,
            "name": "C-1",
            "ticks": 80256,
            "time": 71.65711300000001,
            "velocity": 0.1732283464566929
          },
          {
            "duration": 0.08571424999999522,
            "durationTicks": 96,
            "midi": 0,
            "name": "C-1",
            "ticks": 80256,
            "time": 71.65711300000001,
            "velocity": 0.1732283464566929
          },
          {
            "duration": 0.08571424999999522,
            "durationTicks": 96,
            "midi": 0,
            "name": "C-1",
            "ticks": 80352,
            "time": 71.74282725,
            "velocity": 0.1732283464566929
          },
          {
            "duration": 0.08571425000000943,
            "durationTicks": 96,
            "midi": 0,
            "name": "C-1",
            "ticks": 80448,
            "time": 71.8285415,
            "velocity": 0.1732283464566929
          },
          {
            "duration": 0.08571425000000943,
            "durationTicks": 96,
            "midi": 0,
            "name": "C-1",
            "ticks": 80448,
            "time": 71.8285415,
            "velocity": 0.1732283464566929
          },
          {
            "duration": 0.08571425000000943,
            "durationTicks": 96,
            "midi": 0,
            "name": "C-1",
            "ticks": 80448,
            "time": 71.8285415,
            "velocity": 0.1732283464566929
          },
          {
            "duration": 0.08571424999999522,
            "durationTicks": 96,
            "midi": 0,
            "name": "C-1",
            "ticks": 80544,
            "time": 71.91425575000001,
            "velocity": 0.1732283464566929
          },
          {
            "duration": 0.08571424999999522,
            "durationTicks": 96,
            "midi": 0,
            "name": "C-1",
            "ticks": 80640,
            "time": 71.99997,
            "velocity": 0.1732283464566929
          },
          {
            "duration": 0.08571425000000943,
            "durationTicks": 96,
            "midi": 0,
            "name": "C-1",
            "ticks": 80736,
            "time": 72.08568425,
            "velocity": 0.1732283464566929
          },
          {
            "duration": 0.08571424999999522,
            "durationTicks": 96,
            "midi": 0,
            "name": "C-1",
            "ticks": 80832,
            "time": 72.17139850000001,
            "velocity": 0.1732283464566929
          },
          {
            "duration": 0.08571424999999522,
            "durationTicks": 96,
            "midi": 0,
            "name": "C-1",
            "ticks": 80832,
            "time": 72.17139850000001,
            "velocity": 0.1732283464566929
          },
          {
            "duration": 0.08571424999999522,
            "durationTicks": 96,
            "midi": 0,
            "name": "C-1",
            "ticks": 80832,
            "time": 72.17139850000001,
            "velocity": 0.1732283464566929
          },
          {
            "duration": 0.08571424999999522,
            "durationTicks": 96,
            "midi": 0,
            "name": "C-1",
            "ticks": 80928,
            "time": 72.25711275,
            "velocity": 0.1732283464566929
          },
          {
            "duration": 0.08571425000000943,
            "durationTicks": 96,
            "midi": 0,
            "name": "C-1",
            "ticks": 81024,
            "time": 72.342827,
            "velocity": 0.1732283464566929
          },
          {
            "duration": 0.08571425000000943,
            "durationTicks": 96,
            "midi": 0,
            "name": "C-1",
            "ticks": 81024,
            "time": 72.342827,
            "velocity": 0.1732283464566929
          },
          {
            "duration": 0.08571425000000943,
            "durationTicks": 96,
            "midi": 0,
            "name": "C-1",
            "ticks": 81024,
            "time": 72.342827,
            "velocity": 0.1732283464566929
          },
          {
            "duration": 0.08571424999999522,
            "durationTicks": 96,
            "midi": 0,
            "name": "C-1",
            "ticks": 81120,
            "time": 72.42854125000001,
            "velocity": 0.1732283464566929
          },
          {
            "duration": 0.08571424999999522,
            "durationTicks": 96,
            "midi": 0,
            "name": "C-1",
            "ticks": 81216,
            "time": 72.5142555,
            "velocity": 0.1732283464566929
          },
          {
            "duration": 0.08571424999999522,
            "durationTicks": 96,
            "midi": 0,
            "name": "C-1",
            "ticks": 81216,
            "time": 72.5142555,
            "velocity": 0.1732283464566929
          },
          {
            "duration": 0.08571424999999522,
            "durationTicks": 96,
            "midi": 0,
            "name": "C-1",
            "ticks": 81216,
            "time": 72.5142555,
            "velocity": 0.1732283464566929
          },
          {
            "duration": 0.08571425000000943,
            "durationTicks": 96,
            "midi": 0,
            "name": "C-1",
            "ticks": 81312,
            "time": 72.59996975,
            "velocity": 0.1732283464566929
          },
          {
            "duration": 0.08571424999999522,
            "durationTicks": 96,
            "midi": 0,
            "name": "C-1",
            "ticks": 81408,
            "time": 72.68568400000001,
            "velocity": 0.1732283464566929
          },
          {
            "duration": 0.08571424999999522,
            "durationTicks": 96,
            "midi": 0,
            "name": "C-1",
            "ticks": 81408,
            "time": 72.68568400000001,
            "velocity": 0.1732283464566929
          },
          {
            "duration": 0.08571424999999522,
            "durationTicks": 96,
            "midi": 0,
            "name": "C-1",
            "ticks": 81408,
            "time": 72.68568400000001,
            "velocity": 0.1732283464566929
          },
          {
            "duration": 0.08571424999999522,
            "durationTicks": 96,
            "midi": 0,
            "name": "C-1",
            "ticks": 81504,
            "time": 72.77139825,
            "velocity": 0.1732283464566929
          },
          {
            "duration": 0.08571425000000943,
            "durationTicks": 96,
            "midi": 0,
            "name": "C-1",
            "ticks": 81600,
            "time": 72.8571125,
            "velocity": 0.1732283464566929
          },
          {
            "duration": 0.08571425000000943,
            "durationTicks": 96,
            "midi": 0,
            "name": "C-1",
            "ticks": 81600,
            "time": 72.8571125,
            "velocity": 0.1732283464566929
          },
          {
            "duration": 0.08571425000000943,
            "durationTicks": 96,
            "midi": 0,
            "name": "C-1",
            "ticks": 81600,
            "time": 72.8571125,
            "velocity": 0.1732283464566929
          },
          {
            "duration": 0.08571424999999522,
            "durationTicks": 96,
            "midi": 0,
            "name": "C-1",
            "ticks": 81696,
            "time": 72.94282675000001,
            "velocity": 0.1732283464566929
          },
          {
            "duration": 0.08571424999999522,
            "durationTicks": 96,
            "midi": 0,
            "name": "C-1",
            "ticks": 81792,
            "time": 73.028541,
            "velocity": 0.1732283464566929
          },
          {
            "duration": 0.08571424999999522,
            "durationTicks": 96,
            "midi": 0,
            "name": "C-1",
            "ticks": 81792,
            "time": 73.028541,
            "velocity": 0.1732283464566929
          },
          {
            "duration": 0.08571424999999522,
            "durationTicks": 96,
            "midi": 0,
            "name": "C-1",
            "ticks": 81792,
            "time": 73.028541,
            "velocity": 0.1732283464566929
          },
          {
            "duration": 0.08571425000000943,
            "durationTicks": 96,
            "midi": 0,
            "name": "C-1",
            "ticks": 81888,
            "time": 73.11425525,
            "velocity": 0.1732283464566929
          },
          {
            "duration": 0.08571424999999522,
            "durationTicks": 96,
            "midi": 0,
            "name": "C-1",
            "ticks": 81984,
            "time": 73.19996950000001,
            "velocity": 0.1732283464566929
          },
          {
            "duration": 0.08571424999999522,
            "durationTicks": 96,
            "midi": 0,
            "name": "C-1",
            "ticks": 81984,
            "time": 73.19996950000001,
            "velocity": 0.1732283464566929
          },
          {
            "duration": 0.08571424999999522,
            "durationTicks": 96,
            "midi": 0,
            "name": "C-1",
            "ticks": 81984,
            "time": 73.19996950000001,
            "velocity": 0.1732283464566929
          },
          {
            "duration": 0.08571424999999522,
            "durationTicks": 96,
            "midi": 0,
            "name": "C-1",
            "ticks": 82080,
            "time": 73.28568375,
            "velocity": 0.1732283464566929
          },
          {
            "duration": 0.08571425000000943,
            "durationTicks": 96,
            "midi": 0,
            "name": "C-1",
            "ticks": 82176,
            "time": 73.371398,
            "velocity": 0.1732283464566929
          },
          {
            "duration": 0.08571424999999522,
            "durationTicks": 96,
            "midi": 0,
            "name": "C-1",
            "ticks": 82272,
            "time": 73.45711225000001,
            "velocity": 0.1732283464566929
          },
          {
            "duration": 0.08571424999999522,
            "durationTicks": 96,
            "midi": 0,
            "name": "C-1",
            "ticks": 82368,
            "time": 73.5428265,
            "velocity": 0.1732283464566929
          },
          {
            "duration": 0.08571424999999522,
            "durationTicks": 96,
            "midi": 0,
            "name": "C-1",
            "ticks": 82368,
            "time": 73.5428265,
            "velocity": 0.1732283464566929
          },
          {
            "duration": 0.08571424999999522,
            "durationTicks": 96,
            "midi": 0,
            "name": "C-1",
            "ticks": 82368,
            "time": 73.5428265,
            "velocity": 0.1732283464566929
          },
          {
            "duration": 0.08571425000000943,
            "durationTicks": 96,
            "midi": 0,
            "name": "C-1",
            "ticks": 82464,
            "time": 73.62854075,
            "velocity": 0.1732283464566929
          },
          {
            "duration": 0.08571424999999522,
            "durationTicks": 96,
            "midi": 0,
            "name": "C-1",
            "ticks": 82560,
            "time": 73.71425500000001,
            "velocity": 0.1732283464566929
          },
          {
            "duration": 0.08571424999999522,
            "durationTicks": 96,
            "midi": 0,
            "name": "C-1",
            "ticks": 82560,
            "time": 73.71425500000001,
            "velocity": 0.1732283464566929
          },
          {
            "duration": 0.08571424999999522,
            "durationTicks": 96,
            "midi": 0,
            "name": "C-1",
            "ticks": 82560,
            "time": 73.71425500000001,
            "velocity": 0.1732283464566929
          },
          {
            "duration": 0.08571424999999522,
            "durationTicks": 96,
            "midi": 0,
            "name": "C-1",
            "ticks": 82656,
            "time": 73.79996925,
            "velocity": 0.1732283464566929
          },
          {
            "duration": 0.08571425000000943,
            "durationTicks": 96,
            "midi": 0,
            "name": "C-1",
            "ticks": 82752,
            "time": 73.8856835,
            "velocity": 0.1732283464566929
          },
          {
            "duration": 0.08571425000000943,
            "durationTicks": 96,
            "midi": 0,
            "name": "C-1",
            "ticks": 82752,
            "time": 73.8856835,
            "velocity": 0.1732283464566929
          },
          {
            "duration": 0.08571425000000943,
            "durationTicks": 96,
            "midi": 0,
            "name": "C-1",
            "ticks": 82752,
            "time": 73.8856835,
            "velocity": 0.1732283464566929
          },
          {
            "duration": 0.08571424999999522,
            "durationTicks": 96,
            "midi": 0,
            "name": "C-1",
            "ticks": 82848,
            "time": 73.97139775000001,
            "velocity": 0.1732283464566929
          },
          {
            "duration": 0.08571424999999522,
            "durationTicks": 96,
            "midi": 0,
            "name": "C-1",
            "ticks": 82944,
            "time": 74.057112,
            "velocity": 0.1732283464566929
          },
          {
            "duration": 0.08571424999999522,
            "durationTicks": 96,
            "midi": 0,
            "name": "C-1",
            "ticks": 82944,
            "time": 74.057112,
            "velocity": 0.1732283464566929
          },
          {
            "duration": 0.08571424999999522,
            "durationTicks": 96,
            "midi": 0,
            "name": "C-1",
            "ticks": 82944,
            "time": 74.057112,
            "velocity": 0.1732283464566929
          },
          {
            "duration": 0.08571424999999522,
            "durationTicks": 96,
            "midi": 0,
            "name": "C-1",
            "ticks": 82944,
            "time": 74.057112,
            "velocity": 0.1732283464566929
          },
          {
            "duration": 0.08571424999999522,
            "durationTicks": 96,
            "midi": 0,
            "name": "C-1",
            "ticks": 82944,
            "time": 74.057112,
            "velocity": 0.1732283464566929
          },
          {
            "duration": 0.08571425000000943,
            "durationTicks": 96,
            "midi": 0,
            "name": "C-1",
            "ticks": 83040,
            "time": 74.14282625,
            "velocity": 0.1732283464566929
          },
          {
            "duration": 0.08571424999999522,
            "durationTicks": 96,
            "midi": 0,
            "name": "C-1",
            "ticks": 83136,
            "time": 74.22854050000001,
            "velocity": 0.1732283464566929
          },
          {
            "duration": 0.08571424999999522,
            "durationTicks": 96,
            "midi": 0,
            "name": "C-1",
            "ticks": 83136,
            "time": 74.22854050000001,
            "velocity": 0.1732283464566929
          },
          {
            "duration": 0.08571424999999522,
            "durationTicks": 96,
            "midi": 0,
            "name": "C-1",
            "ticks": 83136,
            "time": 74.22854050000001,
            "velocity": 0.1732283464566929
          },
          {
            "duration": 0.08571424999999522,
            "durationTicks": 96,
            "midi": 0,
            "name": "C-1",
            "ticks": 83232,
            "time": 74.31425475,
            "velocity": 0.1732283464566929
          },
          {
            "duration": 0.08571425000000943,
            "durationTicks": 96,
            "midi": 0,
            "name": "C-1",
            "ticks": 83328,
            "time": 74.399969,
            "velocity": 0.1732283464566929
          },
          {
            "duration": 0.08571425000000943,
            "durationTicks": 96,
            "midi": 0,
            "name": "C-1",
            "ticks": 83328,
            "time": 74.399969,
            "velocity": 0.1732283464566929
          },
          {
            "duration": 0.08571425000000943,
            "durationTicks": 96,
            "midi": 0,
            "name": "C-1",
            "ticks": 83328,
            "time": 74.399969,
            "velocity": 0.1732283464566929
          },
          {
            "duration": 0.08571424999999522,
            "durationTicks": 96,
            "midi": 0,
            "name": "C-1",
            "ticks": 83424,
            "time": 74.48568325000001,
            "velocity": 0.1732283464566929
          },
          {
            "duration": 0.08571424999999522,
            "durationTicks": 96,
            "midi": 0,
            "name": "C-1",
            "ticks": 83520,
            "time": 74.5713975,
            "velocity": 0.1732283464566929
          },
          {
            "duration": 0.08571424999999522,
            "durationTicks": 96,
            "midi": 0,
            "name": "C-1",
            "ticks": 83520,
            "time": 74.5713975,
            "velocity": 0.1732283464566929
          },
          {
            "duration": 0.08571424999999522,
            "durationTicks": 96,
            "midi": 0,
            "name": "C-1",
            "ticks": 83520,
            "time": 74.5713975,
            "velocity": 0.1732283464566929
          },
          {
            "duration": 0.08571425000000943,
            "durationTicks": 96,
            "midi": 0,
            "name": "C-1",
            "ticks": 83616,
            "time": 74.65711175,
            "velocity": 0.1732283464566929
          },
          {
            "duration": 0.08571424999999522,
            "durationTicks": 96,
            "midi": 0,
            "name": "C-1",
            "ticks": 83712,
            "time": 74.74282600000001,
            "velocity": 0.1732283464566929
          },
          {
            "duration": 0.08571424999999522,
            "durationTicks": 96,
            "midi": 0,
            "name": "C-1",
            "ticks": 83712,
            "time": 74.74282600000001,
            "velocity": 0.1732283464566929
          },
          {
            "duration": 0.08571424999999522,
            "durationTicks": 96,
            "midi": 0,
            "name": "C-1",
            "ticks": 83712,
            "time": 74.74282600000001,
            "velocity": 0.1732283464566929
          },
          {
            "duration": 0.08571424999999522,
            "durationTicks": 96,
            "midi": 0,
            "name": "C-1",
            "ticks": 83808,
            "time": 74.82854025,
            "velocity": 0.1732283464566929
          },
          {
            "duration": 0.08571425000000943,
            "durationTicks": 96,
            "midi": 0,
            "name": "C-1",
            "ticks": 83904,
            "time": 74.9142545,
            "velocity": 0.1732283464566929
          },
          {
            "duration": 0.08571425000000943,
            "durationTicks": 96,
            "midi": 0,
            "name": "C-1",
            "ticks": 83904,
            "time": 74.9142545,
            "velocity": 0.1732283464566929
          },
          {
            "duration": 0.08571425000000943,
            "durationTicks": 96,
            "midi": 0,
            "name": "C-1",
            "ticks": 83904,
            "time": 74.9142545,
            "velocity": 0.1732283464566929
          },
          {
            "duration": 0.08571424999999522,
            "durationTicks": 96,
            "midi": 0,
            "name": "C-1",
            "ticks": 84000,
            "time": 74.99996875000001,
            "velocity": 0.1732283464566929
          },
          {
            "duration": 0.08571424999999522,
            "durationTicks": 96,
            "midi": 0,
            "name": "C-1",
            "ticks": 84096,
            "time": 75.085683,
            "velocity": 0.1732283464566929
          },
          {
            "duration": 0.08571424999999522,
            "durationTicks": 96,
            "midi": 0,
            "name": "C-1",
            "ticks": 84096,
            "time": 75.085683,
            "velocity": 0.1732283464566929
          },
          {
            "duration": 0.08571424999999522,
            "durationTicks": 96,
            "midi": 0,
            "name": "C-1",
            "ticks": 84096,
            "time": 75.085683,
            "velocity": 0.1732283464566929
          },
          {
            "duration": 0.08571425000000943,
            "durationTicks": 96,
            "midi": 0,
            "name": "C-1",
            "ticks": 84192,
            "time": 75.17139725,
            "velocity": 0.1732283464566929
          },
          {
            "duration": 0.08571424999999522,
            "durationTicks": 96,
            "midi": 0,
            "name": "C-1",
            "ticks": 84288,
            "time": 75.25711150000001,
            "velocity": 0.1732283464566929
          },
          {
            "duration": 0.08571424999999522,
            "durationTicks": 96,
            "midi": 0,
            "name": "C-1",
            "ticks": 84288,
            "time": 75.25711150000001,
            "velocity": 0.1732283464566929
          },
          {
            "duration": 0.08571424999999522,
            "durationTicks": 96,
            "midi": 0,
            "name": "C-1",
            "ticks": 84288,
            "time": 75.25711150000001,
            "velocity": 0.1732283464566929
          },
          {
            "duration": 0.08571424999999522,
            "durationTicks": 96,
            "midi": 0,
            "name": "C-1",
            "ticks": 84384,
            "time": 75.34282575,
            "velocity": 0.1732283464566929
          },
          {
            "duration": 0.08571425000000943,
            "durationTicks": 96,
            "midi": 0,
            "name": "C-1",
            "ticks": 84480,
            "time": 75.42854,
            "velocity": 0.1732283464566929
          },
          {
            "duration": 0.08571425000000943,
            "durationTicks": 96,
            "midi": 0,
            "name": "C-1",
            "ticks": 84480,
            "time": 75.42854,
            "velocity": 0.1732283464566929
          },
          {
            "duration": 0.08571425000000943,
            "durationTicks": 96,
            "midi": 0,
            "name": "C-1",
            "ticks": 84480,
            "time": 75.42854,
            "velocity": 0.1732283464566929
          },
          {
            "duration": 0.08571425000000943,
            "durationTicks": 96,
            "midi": 0,
            "name": "C-1",
            "ticks": 84480,
            "time": 75.42854,
            "velocity": 0.1732283464566929
          },
          {
            "duration": 0.08571425000000943,
            "durationTicks": 96,
            "midi": 0,
            "name": "C-1",
            "ticks": 84480,
            "time": 75.42854,
            "velocity": 0.1732283464566929
          },
          {
            "duration": 0.08571424999999522,
            "durationTicks": 96,
            "midi": 0,
            "name": "C-1",
            "ticks": 84576,
            "time": 75.51425425000001,
            "velocity": 0.1732283464566929
          },
          {
            "duration": 0.08571424999999522,
            "durationTicks": 96,
            "midi": 0,
            "name": "C-1",
            "ticks": 84672,
            "time": 75.5999685,
            "velocity": 0.1732283464566929
          },
          {
            "duration": 0.08571424999999522,
            "durationTicks": 96,
            "midi": 0,
            "name": "C-1",
            "ticks": 84672,
            "time": 75.5999685,
            "velocity": 0.1732283464566929
          },
          {
            "duration": 0.08571424999999522,
            "durationTicks": 96,
            "midi": 0,
            "name": "C-1",
            "ticks": 84672,
            "time": 75.5999685,
            "velocity": 0.1732283464566929
          },
          {
            "duration": 0.08571425000000943,
            "durationTicks": 96,
            "midi": 0,
            "name": "C-1",
            "ticks": 84768,
            "time": 75.68568275,
            "velocity": 0.1732283464566929
          },
          {
            "duration": 0.08571424999999522,
            "durationTicks": 96,
            "midi": 0,
            "name": "C-1",
            "ticks": 84864,
            "time": 75.77139700000001,
            "velocity": 0.1732283464566929
          },
          {
            "duration": 0.08571424999999522,
            "durationTicks": 96,
            "midi": 0,
            "name": "C-1",
            "ticks": 84864,
            "time": 75.77139700000001,
            "velocity": 0.1732283464566929
          },
          {
            "duration": 0.08571424999999522,
            "durationTicks": 96,
            "midi": 0,
            "name": "C-1",
            "ticks": 84864,
            "time": 75.77139700000001,
            "velocity": 0.1732283464566929
          },
          {
            "duration": 0.08571424999999522,
            "durationTicks": 96,
            "midi": 0,
            "name": "C-1",
            "ticks": 84864,
            "time": 75.77139700000001,
            "velocity": 0.1732283464566929
          },
          {
            "duration": 0.08571424999999522,
            "durationTicks": 96,
            "midi": 0,
            "name": "C-1",
            "ticks": 84864,
            "time": 75.77139700000001,
            "velocity": 0.1732283464566929
          },
          {
            "duration": 0.08571425000000943,
            "durationTicks": 96,
            "midi": 0,
            "name": "C-1",
            "ticks": 84960,
            "time": 75.85711125,
            "velocity": 0.1732283464566929
          },
          {
            "duration": 0.08571424999999522,
            "durationTicks": 96,
            "midi": 0,
            "name": "C-1",
            "ticks": 85056,
            "time": 75.94282550000001,
            "velocity": 0.1732283464566929
          },
          {
            "duration": 0.08571424999999522,
            "durationTicks": 96,
            "midi": 0,
            "name": "C-1",
            "ticks": 85056,
            "time": 75.94282550000001,
            "velocity": 0.1732283464566929
          },
          {
            "duration": 0.08571424999999522,
            "durationTicks": 96,
            "midi": 0,
            "name": "C-1",
            "ticks": 85056,
            "time": 75.94282550000001,
            "velocity": 0.1732283464566929
          },
          {
            "duration": 0.08571424999999522,
            "durationTicks": 96,
            "midi": 0,
            "name": "C-1",
            "ticks": 85152,
            "time": 76.02853975000001,
            "velocity": 0.1732283464566929
          },
          {
            "duration": 0.08571425000000943,
            "durationTicks": 96,
            "midi": 0,
            "name": "C-1",
            "ticks": 85248,
            "time": 76.114254,
            "velocity": 0.1732283464566929
          },
          {
            "duration": 0.08571425000000943,
            "durationTicks": 96,
            "midi": 0,
            "name": "C-1",
            "ticks": 85248,
            "time": 76.114254,
            "velocity": 0.1732283464566929
          },
          {
            "duration": 0.08571425000000943,
            "durationTicks": 96,
            "midi": 0,
            "name": "C-1",
            "ticks": 85248,
            "time": 76.114254,
            "velocity": 0.1732283464566929
          },
          {
            "duration": 0.08571425000000943,
            "durationTicks": 96,
            "midi": 0,
            "name": "C-1",
            "ticks": 85248,
            "time": 76.114254,
            "velocity": 0.1732283464566929
          },
          {
            "duration": 0.08571425000000943,
            "durationTicks": 96,
            "midi": 0,
            "name": "C-1",
            "ticks": 85248,
            "time": 76.114254,
            "velocity": 0.1732283464566929
          },
          {
            "duration": 0.08571424999999522,
            "durationTicks": 96,
            "midi": 0,
            "name": "C-1",
            "ticks": 85344,
            "time": 76.19996825000001,
            "velocity": 0.1732283464566929
          },
          {
            "duration": 0.08571424999999522,
            "durationTicks": 96,
            "midi": 0,
            "name": "C-1",
            "ticks": 85440,
            "time": 76.28568250000001,
            "velocity": 0.1732283464566929
          },
          {
            "duration": 0.08571424999999522,
            "durationTicks": 96,
            "midi": 0,
            "name": "C-1",
            "ticks": 85440,
            "time": 76.28568250000001,
            "velocity": 0.1732283464566929
          },
          {
            "duration": 0.08571424999999522,
            "durationTicks": 96,
            "midi": 0,
            "name": "C-1",
            "ticks": 85440,
            "time": 76.28568250000001,
            "velocity": 0.1732283464566929
          },
          {
            "duration": 0.08571425000000943,
            "durationTicks": 96,
            "midi": 0,
            "name": "C-1",
            "ticks": 85536,
            "time": 76.37139675,
            "velocity": 0.1732283464566929
          },
          {
            "duration": 0.08571424999999522,
            "durationTicks": 96,
            "midi": 0,
            "name": "C-1",
            "ticks": 85632,
            "time": 76.45711100000001,
            "velocity": 0.1732283464566929
          },
          {
            "duration": 0.08571424999999522,
            "durationTicks": 96,
            "midi": 0,
            "name": "C-1",
            "ticks": 85632,
            "time": 76.45711100000001,
            "velocity": 0.1732283464566929
          },
          {
            "duration": 0.08571424999999522,
            "durationTicks": 96,
            "midi": 0,
            "name": "C-1",
            "ticks": 85632,
            "time": 76.45711100000001,
            "velocity": 0.1732283464566929
          },
          {
            "duration": 0.08571424999999522,
            "durationTicks": 96,
            "midi": 0,
            "name": "C-1",
            "ticks": 85632,
            "time": 76.45711100000001,
            "velocity": 0.1732283464566929
          },
          {
            "duration": 0.08571424999999522,
            "durationTicks": 96,
            "midi": 0,
            "name": "C-1",
            "ticks": 85632,
            "time": 76.45711100000001,
            "velocity": 0.1732283464566929
          },
          {
            "duration": 0.08571424999999522,
            "durationTicks": 96,
            "midi": 0,
            "name": "C-1",
            "ticks": 85728,
            "time": 76.54282525,
            "velocity": 0.1732283464566929
          },
          {
            "duration": 0.08571425000000943,
            "durationTicks": 96,
            "midi": 0,
            "name": "C-1",
            "ticks": 85824,
            "time": 76.6285395,
            "velocity": 0.1732283464566929
          },
          {
            "duration": 0.08571425000000943,
            "durationTicks": 96,
            "midi": 0,
            "name": "C-1",
            "ticks": 85824,
            "time": 76.6285395,
            "velocity": 0.1732283464566929
          },
          {
            "duration": 0.08571425000000943,
            "durationTicks": 96,
            "midi": 0,
            "name": "C-1",
            "ticks": 85824,
            "time": 76.6285395,
            "velocity": 0.1732283464566929
          },
          {
            "duration": 0.08571424999999522,
            "durationTicks": 96,
            "midi": 0,
            "name": "C-1",
            "ticks": 85920,
            "time": 76.71425375000001,
            "velocity": 0.1732283464566929
          },
          {
            "duration": 0.08571424999999522,
            "durationTicks": 96,
            "midi": 0,
            "name": "C-1",
            "ticks": 86016,
            "time": 76.799968,
            "velocity": 0.1732283464566929
          },
          {
            "duration": 0.08571424999999522,
            "durationTicks": 96,
            "midi": 0,
            "name": "C-1",
            "ticks": 86016,
            "time": 76.799968,
            "velocity": 0.1732283464566929
          },
          {
            "duration": 0.08571424999999522,
            "durationTicks": 96,
            "midi": 0,
            "name": "C-1",
            "ticks": 86016,
            "time": 76.799968,
            "velocity": 0.1732283464566929
          },
          {
            "duration": 0.08571424999999522,
            "durationTicks": 96,
            "midi": 0,
            "name": "C-1",
            "ticks": 86016,
            "time": 76.799968,
            "velocity": 0.1732283464566929
          },
          {
            "duration": 0.08571424999999522,
            "durationTicks": 96,
            "midi": 0,
            "name": "C-1",
            "ticks": 86016,
            "time": 76.799968,
            "velocity": 0.1732283464566929
          },
          {
            "duration": 0.08571425000000943,
            "durationTicks": 96,
            "midi": 0,
            "name": "C-1",
            "ticks": 86112,
            "time": 76.88568225,
            "velocity": 0.1732283464566929
          },
          {
            "duration": 0.08571424999999522,
            "durationTicks": 96,
            "midi": 0,
            "name": "C-1",
            "ticks": 86208,
            "time": 76.97139650000001,
            "velocity": 0.1732283464566929
          },
          {
            "duration": 0.08571424999999522,
            "durationTicks": 96,
            "midi": 0,
            "name": "C-1",
            "ticks": 86208,
            "time": 76.97139650000001,
            "velocity": 0.1732283464566929
          },
          {
            "duration": 0.08571424999999522,
            "durationTicks": 96,
            "midi": 0,
            "name": "C-1",
            "ticks": 86208,
            "time": 76.97139650000001,
            "velocity": 0.1732283464566929
          },
          {
            "duration": 0.08571424999999522,
            "durationTicks": 96,
            "midi": 0,
            "name": "C-1",
            "ticks": 86304,
            "time": 77.05711075,
            "velocity": 0.1732283464566929
          },
          {
            "duration": 0.08571425000000943,
            "durationTicks": 96,
            "midi": 0,
            "name": "C-1",
            "ticks": 86400,
            "time": 77.142825,
            "velocity": 0.1732283464566929
          },
          {
            "duration": 0.08571425000000943,
            "durationTicks": 96,
            "midi": 0,
            "name": "C-1",
            "ticks": 86400,
            "time": 77.142825,
            "velocity": 0.1732283464566929
          },
          {
            "duration": 0.08571425000000943,
            "durationTicks": 96,
            "midi": 0,
            "name": "C-1",
            "ticks": 86400,
            "time": 77.142825,
            "velocity": 0.1732283464566929
          },
          {
            "duration": 0.08571424999999522,
            "durationTicks": 96,
            "midi": 0,
            "name": "C-1",
            "ticks": 86496,
            "time": 77.22853925000001,
            "velocity": 0.1732283464566929
          },
          {
            "duration": 0.08571424999999522,
            "durationTicks": 96,
            "midi": 0,
            "name": "C-1",
            "ticks": 86592,
            "time": 77.3142535,
            "velocity": 0.1732283464566929
          },
          {
            "duration": 0.08571424999999522,
            "durationTicks": 96,
            "midi": 0,
            "name": "C-1",
            "ticks": 86592,
            "time": 77.3142535,
            "velocity": 0.1732283464566929
          },
          {
            "duration": 0.08571424999999522,
            "durationTicks": 96,
            "midi": 0,
            "name": "C-1",
            "ticks": 86592,
            "time": 77.3142535,
            "velocity": 0.1732283464566929
          },
          {
            "duration": 0.08571425000000943,
            "durationTicks": 96,
            "midi": 0,
            "name": "C-1",
            "ticks": 86688,
            "time": 77.39996775,
            "velocity": 0.1732283464566929
          },
          {
            "duration": 0.08571424999999522,
            "durationTicks": 96,
            "midi": 0,
            "name": "C-1",
            "ticks": 86784,
            "time": 77.48568200000001,
            "velocity": 0.1732283464566929
          },
          {
            "duration": 0.08571424999999522,
            "durationTicks": 96,
            "midi": 0,
            "name": "C-1",
            "ticks": 86880,
            "time": 77.57139625,
            "velocity": 0.1732283464566929
          },
          {
            "duration": 0.08571425000000943,
            "durationTicks": 96,
            "midi": 0,
            "name": "C-1",
            "ticks": 86976,
            "time": 77.6571105,
            "velocity": 0.1732283464566929
          },
          {
            "duration": 0.08571425000000943,
            "durationTicks": 96,
            "midi": 0,
            "name": "C-1",
            "ticks": 86976,
            "time": 77.6571105,
            "velocity": 0.1732283464566929
          },
          {
            "duration": 0.08571425000000943,
            "durationTicks": 96,
            "midi": 0,
            "name": "C-1",
            "ticks": 86976,
            "time": 77.6571105,
            "velocity": 0.1732283464566929
          },
          {
            "duration": 0.08571424999999522,
            "durationTicks": 96,
            "midi": 0,
            "name": "C-1",
            "ticks": 87072,
            "time": 77.74282475000001,
            "velocity": 0.1732283464566929
          },
          {
            "duration": 0.08571424999999522,
            "durationTicks": 96,
            "midi": 0,
            "name": "C-1",
            "ticks": 87168,
            "time": 77.828539,
            "velocity": 0.1732283464566929
          },
          {
            "duration": 0.08571424999999522,
            "durationTicks": 96,
            "midi": 0,
            "name": "C-1",
            "ticks": 87168,
            "time": 77.828539,
            "velocity": 0.1732283464566929
          },
          {
            "duration": 0.08571424999999522,
            "durationTicks": 96,
            "midi": 0,
            "name": "C-1",
            "ticks": 87168,
            "time": 77.828539,
            "velocity": 0.1732283464566929
          },
          {
            "duration": 0.08571425000000943,
            "durationTicks": 96,
            "midi": 0,
            "name": "C-1",
            "ticks": 87264,
            "time": 77.91425325,
            "velocity": 0.1732283464566929
          },
          {
            "duration": 0.08571424999999522,
            "durationTicks": 96,
            "midi": 0,
            "name": "C-1",
            "ticks": 87360,
            "time": 77.99996750000001,
            "velocity": 0.1732283464566929
          },
          {
            "duration": 0.08571424999999522,
            "durationTicks": 96,
            "midi": 0,
            "name": "C-1",
            "ticks": 87360,
            "time": 77.99996750000001,
            "velocity": 0.1732283464566929
          },
          {
            "duration": 0.08571424999999522,
            "durationTicks": 96,
            "midi": 0,
            "name": "C-1",
            "ticks": 87360,
            "time": 77.99996750000001,
            "velocity": 0.1732283464566929
          },
          {
            "duration": 0.08571424999999522,
            "durationTicks": 96,
            "midi": 0,
            "name": "C-1",
            "ticks": 87456,
            "time": 78.08568175,
            "velocity": 0.1732283464566929
          },
          {
            "duration": 0.08571425000000943,
            "durationTicks": 96,
            "midi": 0,
            "name": "C-1",
            "ticks": 87552,
            "time": 78.171396,
            "velocity": 0.1732283464566929
          },
          {
            "duration": 0.08571425000000943,
            "durationTicks": 96,
            "midi": 0,
            "name": "C-1",
            "ticks": 87552,
            "time": 78.171396,
            "velocity": 0.1732283464566929
          },
          {
            "duration": 0.08571425000000943,
            "durationTicks": 96,
            "midi": 0,
            "name": "C-1",
            "ticks": 87552,
            "time": 78.171396,
            "velocity": 0.1732283464566929
          },
          {
            "duration": 0.08571424999999522,
            "durationTicks": 96,
            "midi": 0,
            "name": "C-1",
            "ticks": 87648,
            "time": 78.25711025000001,
            "velocity": 0.1732283464566929
          },
          {
            "duration": 0.08571424999999522,
            "durationTicks": 96,
            "midi": 0,
            "name": "C-1",
            "ticks": 87744,
            "time": 78.3428245,
            "velocity": 0.1732283464566929
          },
          {
            "duration": 0.08571424999999522,
            "durationTicks": 96,
            "midi": 0,
            "name": "C-1",
            "ticks": 87744,
            "time": 78.3428245,
            "velocity": 0.1732283464566929
          },
          {
            "duration": 0.08571424999999522,
            "durationTicks": 96,
            "midi": 0,
            "name": "C-1",
            "ticks": 87744,
            "time": 78.3428245,
            "velocity": 0.1732283464566929
          },
          {
            "duration": 0.08571425000000943,
            "durationTicks": 96,
            "midi": 0,
            "name": "C-1",
            "ticks": 87840,
            "time": 78.42853875,
            "velocity": 0.1732283464566929
          },
          {
            "duration": 0.08571424999999522,
            "durationTicks": 96,
            "midi": 0,
            "name": "C-1",
            "ticks": 87936,
            "time": 78.51425300000001,
            "velocity": 0.1732283464566929
          },
          {
            "duration": 0.08571424999999522,
            "durationTicks": 96,
            "midi": 0,
            "name": "C-1",
            "ticks": 87936,
            "time": 78.51425300000001,
            "velocity": 0.1732283464566929
          },
          {
            "duration": 0.08571424999999522,
            "durationTicks": 96,
            "midi": 0,
            "name": "C-1",
            "ticks": 87936,
            "time": 78.51425300000001,
            "velocity": 0.1732283464566929
          },
          {
            "duration": 0.08571424999999522,
            "durationTicks": 96,
            "midi": 0,
            "name": "C-1",
            "ticks": 88032,
            "time": 78.59996725,
            "velocity": 0.1732283464566929
          },
          {
            "duration": 0.08571425000000943,
            "durationTicks": 96,
            "midi": 0,
            "name": "C-1",
            "ticks": 88128,
            "time": 78.6856815,
            "velocity": 0.1732283464566929
          },
          {
            "duration": 0.08571425000000943,
            "durationTicks": 96,
            "midi": 0,
            "name": "C-1",
            "ticks": 88128,
            "time": 78.6856815,
            "velocity": 0.1732283464566929
          },
          {
            "duration": 0.08571425000000943,
            "durationTicks": 96,
            "midi": 0,
            "name": "C-1",
            "ticks": 88128,
            "time": 78.6856815,
            "velocity": 0.1732283464566929
          },
          {
            "duration": 0.08571424999999522,
            "durationTicks": 96,
            "midi": 0,
            "name": "C-1",
            "ticks": 88224,
            "time": 78.77139575000001,
            "velocity": 0.1732283464566929
          },
          {
            "duration": 0.08571424999999522,
            "durationTicks": 96,
            "midi": 0,
            "name": "C-1",
            "ticks": 88320,
            "time": 78.85711,
            "velocity": 0.1732283464566929
          },
          {
            "duration": 0.08571425000000943,
            "durationTicks": 96,
            "midi": 0,
            "name": "C-1",
            "ticks": 88416,
            "time": 78.94282425,
            "velocity": 0.1732283464566929
          },
          {
            "duration": 0.08571424999999522,
            "durationTicks": 96,
            "midi": 0,
            "name": "C-1",
            "ticks": 88512,
            "time": 79.02853850000001,
            "velocity": 0.1732283464566929
          },
          {
            "duration": 0.08571424999999522,
            "durationTicks": 96,
            "midi": 0,
            "name": "C-1",
            "ticks": 88512,
            "time": 79.02853850000001,
            "velocity": 0.1732283464566929
          },
          {
            "duration": 0.08571424999999522,
            "durationTicks": 96,
            "midi": 0,
            "name": "C-1",
            "ticks": 88512,
            "time": 79.02853850000001,
            "velocity": 0.1732283464566929
          },
          {
            "duration": 0.08571424999999522,
            "durationTicks": 96,
            "midi": 0,
            "name": "C-1",
            "ticks": 88608,
            "time": 79.11425275,
            "velocity": 0.1732283464566929
          },
          {
            "duration": 0.08571425000000943,
            "durationTicks": 96,
            "midi": 0,
            "name": "C-1",
            "ticks": 88704,
            "time": 79.199967,
            "velocity": 0.1732283464566929
          },
          {
            "duration": 0.08571425000000943,
            "durationTicks": 96,
            "midi": 0,
            "name": "C-1",
            "ticks": 88704,
            "time": 79.199967,
            "velocity": 0.1732283464566929
          },
          {
            "duration": 0.08571425000000943,
            "durationTicks": 96,
            "midi": 0,
            "name": "C-1",
            "ticks": 88704,
            "time": 79.199967,
            "velocity": 0.1732283464566929
          },
          {
            "duration": 0.08571424999999522,
            "durationTicks": 96,
            "midi": 0,
            "name": "C-1",
            "ticks": 88800,
            "time": 79.28568125000001,
            "velocity": 0.1732283464566929
          },
          {
            "duration": 0.08571424999999522,
            "durationTicks": 96,
            "midi": 0,
            "name": "C-1",
            "ticks": 88896,
            "time": 79.3713955,
            "velocity": 0.1732283464566929
          },
          {
            "duration": 0.08571424999999522,
            "durationTicks": 96,
            "midi": 0,
            "name": "C-1",
            "ticks": 88896,
            "time": 79.3713955,
            "velocity": 0.1732283464566929
          },
          {
            "duration": 0.08571424999999522,
            "durationTicks": 96,
            "midi": 0,
            "name": "C-1",
            "ticks": 88896,
            "time": 79.3713955,
            "velocity": 0.1732283464566929
          },
          {
            "duration": 0.08571425000000943,
            "durationTicks": 96,
            "midi": 0,
            "name": "C-1",
            "ticks": 88992,
            "time": 79.45710975,
            "velocity": 0.1732283464566929
          },
          {
            "duration": 0.08571424999999522,
            "durationTicks": 96,
            "midi": 0,
            "name": "C-1",
            "ticks": 89088,
            "time": 79.54282400000001,
            "velocity": 0.1732283464566929
          },
          {
            "duration": 0.08571424999999522,
            "durationTicks": 96,
            "midi": 0,
            "name": "C-1",
            "ticks": 89088,
            "time": 79.54282400000001,
            "velocity": 0.1732283464566929
          },
          {
            "duration": 0.08571424999999522,
            "durationTicks": 96,
            "midi": 0,
            "name": "C-1",
            "ticks": 89088,
            "time": 79.54282400000001,
            "velocity": 0.1732283464566929
          },
          {
            "duration": 0.08571424999999522,
            "durationTicks": 96,
            "midi": 0,
            "name": "C-1",
            "ticks": 89088,
            "time": 79.54282400000001,
            "velocity": 0.1732283464566929
          },
          {
            "duration": 0.08571424999999522,
            "durationTicks": 96,
            "midi": 0,
            "name": "C-1",
            "ticks": 89088,
            "time": 79.54282400000001,
            "velocity": 0.1732283464566929
          },
          {
            "duration": 0.08571424999999522,
            "durationTicks": 96,
            "midi": 0,
            "name": "C-1",
            "ticks": 89184,
            "time": 79.62853825,
            "velocity": 0.1732283464566929
          },
          {
            "duration": 0.08571425000000943,
            "durationTicks": 96,
            "midi": 0,
            "name": "C-1",
            "ticks": 89280,
            "time": 79.7142525,
            "velocity": 0.1732283464566929
          },
          {
            "duration": 0.08571425000000943,
            "durationTicks": 96,
            "midi": 0,
            "name": "C-1",
            "ticks": 89280,
            "time": 79.7142525,
            "velocity": 0.1732283464566929
          },
          {
            "duration": 0.08571425000000943,
            "durationTicks": 96,
            "midi": 0,
            "name": "C-1",
            "ticks": 89280,
            "time": 79.7142525,
            "velocity": 0.1732283464566929
          },
          {
            "duration": 0.08571424999999522,
            "durationTicks": 96,
            "midi": 0,
            "name": "C-1",
            "ticks": 89376,
            "time": 79.79996675000001,
            "velocity": 0.1732283464566929
          },
          {
            "duration": 0.08571424999999522,
            "durationTicks": 96,
            "midi": 0,
            "name": "C-1",
            "ticks": 89472,
            "time": 79.885681,
            "velocity": 0.1732283464566929
          },
          {
            "duration": 0.08571424999999522,
            "durationTicks": 96,
            "midi": 0,
            "name": "C-1",
            "ticks": 89472,
            "time": 79.885681,
            "velocity": 0.1732283464566929
          },
          {
            "duration": 0.08571424999999522,
            "durationTicks": 96,
            "midi": 0,
            "name": "C-1",
            "ticks": 89472,
            "time": 79.885681,
            "velocity": 0.1732283464566929
          },
          {
            "duration": 0.08571425000000943,
            "durationTicks": 96,
            "midi": 0,
            "name": "C-1",
            "ticks": 89568,
            "time": 79.97139525,
            "velocity": 0.1732283464566929
          },
          {
            "duration": 0.08571424999999522,
            "durationTicks": 96,
            "midi": 0,
            "name": "C-1",
            "ticks": 89664,
            "time": 80.05710950000001,
            "velocity": 0.1732283464566929
          },
          {
            "duration": 0.08571424999999522,
            "durationTicks": 96,
            "midi": 0,
            "name": "C-1",
            "ticks": 89664,
            "time": 80.05710950000001,
            "velocity": 0.1732283464566929
          },
          {
            "duration": 0.08571424999999522,
            "durationTicks": 96,
            "midi": 0,
            "name": "C-1",
            "ticks": 89664,
            "time": 80.05710950000001,
            "velocity": 0.1732283464566929
          },
          {
            "duration": 0.08571424999999522,
            "durationTicks": 96,
            "midi": 0,
            "name": "C-1",
            "ticks": 89760,
            "time": 80.14282375,
            "velocity": 0.1732283464566929
          },
          {
            "duration": 0.08571425000000943,
            "durationTicks": 96,
            "midi": 0,
            "name": "C-1",
            "ticks": 89856,
            "time": 80.228538,
            "velocity": 0.1732283464566929
          },
          {
            "duration": 0.08571424999999522,
            "durationTicks": 96,
            "midi": 0,
            "name": "C-1",
            "ticks": 89952,
            "time": 80.31425225000001,
            "velocity": 0.1732283464566929
          },
          {
            "duration": 0.08571424999999522,
            "durationTicks": 96,
            "midi": 0,
            "name": "C-1",
            "ticks": 90048,
            "time": 80.3999665,
            "velocity": 0.1732283464566929
          },
          {
            "duration": 0.08571424999999522,
            "durationTicks": 96,
            "midi": 0,
            "name": "C-1",
            "ticks": 90048,
            "time": 80.3999665,
            "velocity": 0.1732283464566929
          },
          {
            "duration": 0.08571424999999522,
            "durationTicks": 96,
            "midi": 0,
            "name": "C-1",
            "ticks": 90048,
            "time": 80.3999665,
            "velocity": 0.1732283464566929
          },
          {
            "duration": 0.08571425000000943,
            "durationTicks": 96,
            "midi": 0,
            "name": "C-1",
            "ticks": 90144,
            "time": 80.48568075,
            "velocity": 0.1732283464566929
          },
          {
            "duration": 0.08571424999999522,
            "durationTicks": 96,
            "midi": 0,
            "name": "C-1",
            "ticks": 90240,
            "time": 80.57139500000001,
            "velocity": 0.1732283464566929
          },
          {
            "duration": 0.08571424999999522,
            "durationTicks": 96,
            "midi": 0,
            "name": "C-1",
            "ticks": 90240,
            "time": 80.57139500000001,
            "velocity": 0.1732283464566929
          },
          {
            "duration": 0.08571424999999522,
            "durationTicks": 96,
            "midi": 0,
            "name": "C-1",
            "ticks": 90240,
            "time": 80.57139500000001,
            "velocity": 0.1732283464566929
          },
          {
            "duration": 0.08571424999999522,
            "durationTicks": 96,
            "midi": 0,
            "name": "C-1",
            "ticks": 90336,
            "time": 80.65710925,
            "velocity": 0.1732283464566929
          },
          {
            "duration": 0.08571425000000943,
            "durationTicks": 96,
            "midi": 0,
            "name": "C-1",
            "ticks": 90432,
            "time": 80.7428235,
            "velocity": 0.1732283464566929
          },
          {
            "duration": 0.08571425000000943,
            "durationTicks": 96,
            "midi": 0,
            "name": "C-1",
            "ticks": 90432,
            "time": 80.7428235,
            "velocity": 0.1732283464566929
          },
          {
            "duration": 0.08571425000000943,
            "durationTicks": 96,
            "midi": 0,
            "name": "C-1",
            "ticks": 90432,
            "time": 80.7428235,
            "velocity": 0.1732283464566929
          },
          {
            "duration": 0.08571424999999522,
            "durationTicks": 96,
            "midi": 0,
            "name": "C-1",
            "ticks": 90528,
            "time": 80.82853775000001,
            "velocity": 0.1732283464566929
          },
          {
            "duration": 0.08571424999999522,
            "durationTicks": 96,
            "midi": 0,
            "name": "C-1",
            "ticks": 90624,
            "time": 80.914252,
            "velocity": 0.1732283464566929
          },
          {
            "duration": 0.08571424999999522,
            "durationTicks": 96,
            "midi": 0,
            "name": "C-1",
            "ticks": 90624,
            "time": 80.914252,
            "velocity": 0.1732283464566929
          },
          {
            "duration": 0.08571424999999522,
            "durationTicks": 96,
            "midi": 0,
            "name": "C-1",
            "ticks": 90624,
            "time": 80.914252,
            "velocity": 0.1732283464566929
          },
          {
            "duration": 0.08571424999999522,
            "durationTicks": 96,
            "midi": 0,
            "name": "C-1",
            "ticks": 90624,
            "time": 80.914252,
            "velocity": 0.1732283464566929
          },
          {
            "duration": 0.08571424999999522,
            "durationTicks": 96,
            "midi": 0,
            "name": "C-1",
            "ticks": 90624,
            "time": 80.914252,
            "velocity": 0.1732283464566929
          },
          {
            "duration": 0.08571425000000943,
            "durationTicks": 96,
            "midi": 0,
            "name": "C-1",
            "ticks": 90720,
            "time": 80.99996625,
            "velocity": 0.1732283464566929
          },
          {
            "duration": 0.08571424999999522,
            "durationTicks": 96,
            "midi": 0,
            "name": "C-1",
            "ticks": 90816,
            "time": 81.08568050000001,
            "velocity": 0.1732283464566929
          },
          {
            "duration": 0.08571424999999522,
            "durationTicks": 96,
            "midi": 0,
            "name": "C-1",
            "ticks": 90816,
            "time": 81.08568050000001,
            "velocity": 0.1732283464566929
          },
          {
            "duration": 0.08571424999999522,
            "durationTicks": 96,
            "midi": 0,
            "name": "C-1",
            "ticks": 90816,
            "time": 81.08568050000001,
            "velocity": 0.1732283464566929
          },
          {
            "duration": 0.08571424999999522,
            "durationTicks": 96,
            "midi": 0,
            "name": "C-1",
            "ticks": 90912,
            "time": 81.17139475,
            "velocity": 0.1732283464566929
          },
          {
            "duration": 0.08571425000000943,
            "durationTicks": 96,
            "midi": 0,
            "name": "C-1",
            "ticks": 91008,
            "time": 81.257109,
            "velocity": 0.1732283464566929
          },
          {
            "duration": 0.08571425000000943,
            "durationTicks": 96,
            "midi": 0,
            "name": "C-1",
            "ticks": 91008,
            "time": 81.257109,
            "velocity": 0.1732283464566929
          },
          {
            "duration": 0.08571425000000943,
            "durationTicks": 96,
            "midi": 0,
            "name": "C-1",
            "ticks": 91008,
            "time": 81.257109,
            "velocity": 0.1732283464566929
          },
          {
            "duration": 0.08571424999999522,
            "durationTicks": 96,
            "midi": 0,
            "name": "C-1",
            "ticks": 91104,
            "time": 81.34282325000001,
            "velocity": 0.1732283464566929
          },
          {
            "duration": 0.08571424999999522,
            "durationTicks": 96,
            "midi": 0,
            "name": "C-1",
            "ticks": 91200,
            "time": 81.4285375,
            "velocity": 0.1732283464566929
          },
          {
            "duration": 0.08571424999999522,
            "durationTicks": 96,
            "midi": 0,
            "name": "C-1",
            "ticks": 91200,
            "time": 81.4285375,
            "velocity": 0.1732283464566929
          },
          {
            "duration": 0.08571424999999522,
            "durationTicks": 96,
            "midi": 0,
            "name": "C-1",
            "ticks": 91200,
            "time": 81.4285375,
            "velocity": 0.1732283464566929
          },
          {
            "duration": 0.08571425000000943,
            "durationTicks": 96,
            "midi": 0,
            "name": "C-1",
            "ticks": 91296,
            "time": 81.51425175,
            "velocity": 0.1732283464566929
          },
          {
            "duration": 0.08571424999999522,
            "durationTicks": 96,
            "midi": 0,
            "name": "C-1",
            "ticks": 91392,
            "time": 81.59996600000001,
            "velocity": 0.1732283464566929
          },
          {
            "duration": 0.08571424999999522,
            "durationTicks": 96,
            "midi": 0,
            "name": "C-1",
            "ticks": 91392,
            "time": 81.59996600000001,
            "velocity": 0.1732283464566929
          },
          {
            "duration": 0.08571424999999522,
            "durationTicks": 96,
            "midi": 0,
            "name": "C-1",
            "ticks": 91392,
            "time": 81.59996600000001,
            "velocity": 0.1732283464566929
          },
          {
            "duration": 0.08571424999999522,
            "durationTicks": 96,
            "midi": 0,
            "name": "C-1",
            "ticks": 91392,
            "time": 81.59996600000001,
            "velocity": 0.1732283464566929
          },
          {
            "duration": 0.08571424999999522,
            "durationTicks": 96,
            "midi": 0,
            "name": "C-1",
            "ticks": 91392,
            "time": 81.59996600000001,
            "velocity": 0.1732283464566929
          },
          {
            "duration": 0.08571424999999522,
            "durationTicks": 96,
            "midi": 0,
            "name": "C-1",
            "ticks": 91488,
            "time": 81.68568025,
            "velocity": 0.1732283464566929
          },
          {
            "duration": 0.08571425000000943,
            "durationTicks": 96,
            "midi": 0,
            "name": "C-1",
            "ticks": 91584,
            "time": 81.7713945,
            "velocity": 0.1732283464566929
          },
          {
            "duration": 0.08571425000000943,
            "durationTicks": 96,
            "midi": 0,
            "name": "C-1",
            "ticks": 91584,
            "time": 81.7713945,
            "velocity": 0.1732283464566929
          },
          {
            "duration": 0.08571425000000943,
            "durationTicks": 96,
            "midi": 0,
            "name": "C-1",
            "ticks": 91584,
            "time": 81.7713945,
            "velocity": 0.1732283464566929
          },
          {
            "duration": 0.08571424999999522,
            "durationTicks": 96,
            "midi": 0,
            "name": "C-1",
            "ticks": 91680,
            "time": 81.85710875000001,
            "velocity": 0.1732283464566929
          },
          {
            "duration": 0.08571424999999522,
            "durationTicks": 96,
            "midi": 0,
            "name": "C-1",
            "ticks": 91776,
            "time": 81.942823,
            "velocity": 0.1732283464566929
          },
          {
            "duration": 0.08571424999999522,
            "durationTicks": 96,
            "midi": 0,
            "name": "C-1",
            "ticks": 91776,
            "time": 81.942823,
            "velocity": 0.1732283464566929
          },
          {
            "duration": 0.08571424999999522,
            "durationTicks": 96,
            "midi": 0,
            "name": "C-1",
            "ticks": 91776,
            "time": 81.942823,
            "velocity": 0.1732283464566929
          },
          {
            "duration": 0.08571425000000943,
            "durationTicks": 96,
            "midi": 0,
            "name": "C-1",
            "ticks": 91872,
            "time": 82.02853725,
            "velocity": 0.1732283464566929
          },
          {
            "duration": 0.08571424999999522,
            "durationTicks": 96,
            "midi": 0,
            "name": "C-1",
            "ticks": 91968,
            "time": 82.11425150000001,
            "velocity": 0.1732283464566929
          },
          {
            "duration": 0.08571424999999522,
            "durationTicks": 96,
            "midi": 0,
            "name": "C-1",
            "ticks": 91968,
            "time": 82.11425150000001,
            "velocity": 0.1732283464566929
          },
          {
            "duration": 0.08571424999999522,
            "durationTicks": 96,
            "midi": 0,
            "name": "C-1",
            "ticks": 91968,
            "time": 82.11425150000001,
            "velocity": 0.1732283464566929
          },
          {
            "duration": 0.08571424999999522,
            "durationTicks": 96,
            "midi": 0,
            "name": "C-1",
            "ticks": 92064,
            "time": 82.19996575,
            "velocity": 0.1732283464566929
          },
          {
            "duration": 0.08571425000000943,
            "durationTicks": 96,
            "midi": 0,
            "name": "C-1",
            "ticks": 92160,
            "time": 82.28568,
            "velocity": 0.1732283464566929
          },
          {
            "duration": 0.08571425000000943,
            "durationTicks": 96,
            "midi": 0,
            "name": "C-1",
            "ticks": 92160,
            "time": 82.28568,
            "velocity": 0.1732283464566929
          },
          {
            "duration": 0.08571425000000943,
            "durationTicks": 96,
            "midi": 0,
            "name": "C-1",
            "ticks": 92160,
            "time": 82.28568,
            "velocity": 0.1732283464566929
          },
          {
            "duration": 0.08571425000000943,
            "durationTicks": 96,
            "midi": 0,
            "name": "C-1",
            "ticks": 92160,
            "time": 82.28568,
            "velocity": 0.1732283464566929
          },
          {
            "duration": 0.08571425000000943,
            "durationTicks": 96,
            "midi": 0,
            "name": "C-1",
            "ticks": 92160,
            "time": 82.28568,
            "velocity": 0.1732283464566929
          },
          {
            "duration": 0.08571424999999522,
            "durationTicks": 96,
            "midi": 0,
            "name": "C-1",
            "ticks": 92256,
            "time": 82.37139425000001,
            "velocity": 0.1732283464566929
          },
          {
            "duration": 0.08571424999999522,
            "durationTicks": 96,
            "midi": 0,
            "name": "C-1",
            "ticks": 92352,
            "time": 82.4571085,
            "velocity": 0.1732283464566929
          },
          {
            "duration": 0.08571424999999522,
            "durationTicks": 96,
            "midi": 0,
            "name": "C-1",
            "ticks": 92352,
            "time": 82.4571085,
            "velocity": 0.1732283464566929
          },
          {
            "duration": 0.08571424999999522,
            "durationTicks": 96,
            "midi": 0,
            "name": "C-1",
            "ticks": 92352,
            "time": 82.4571085,
            "velocity": 0.1732283464566929
          },
          {
            "duration": 0.08571425000000943,
            "durationTicks": 96,
            "midi": 0,
            "name": "C-1",
            "ticks": 92448,
            "time": 82.54282275,
            "velocity": 0.1732283464566929
          },
          {
            "duration": 0.08571424999999522,
            "durationTicks": 96,
            "midi": 0,
            "name": "C-1",
            "ticks": 92544,
            "time": 82.62853700000001,
            "velocity": 0.1732283464566929
          },
          {
            "duration": 0.08571424999999522,
            "durationTicks": 96,
            "midi": 0,
            "name": "C-1",
            "ticks": 92544,
            "time": 82.62853700000001,
            "velocity": 0.1732283464566929
          },
          {
            "duration": 0.08571424999999522,
            "durationTicks": 96,
            "midi": 0,
            "name": "C-1",
            "ticks": 92544,
            "time": 82.62853700000001,
            "velocity": 0.1732283464566929
          },
          {
            "duration": 0.08571424999999522,
            "durationTicks": 96,
            "midi": 0,
            "name": "C-1",
            "ticks": 92640,
            "time": 82.71425125,
            "velocity": 0.1732283464566929
          },
          {
            "duration": 0.08571425000000943,
            "durationTicks": 96,
            "midi": 0,
            "name": "C-1",
            "ticks": 92736,
            "time": 82.7999655,
            "velocity": 0.1732283464566929
          },
          {
            "duration": 0.08571425000000943,
            "durationTicks": 96,
            "midi": 0,
            "name": "C-1",
            "ticks": 92736,
            "time": 82.7999655,
            "velocity": 0.1732283464566929
          },
          {
            "duration": 0.08571425000000943,
            "durationTicks": 96,
            "midi": 0,
            "name": "C-1",
            "ticks": 92736,
            "time": 82.7999655,
            "velocity": 0.1732283464566929
          },
          {
            "duration": 0.08571424999999522,
            "durationTicks": 96,
            "midi": 0,
            "name": "C-1",
            "ticks": 92832,
            "time": 82.88567975000001,
            "velocity": 0.1732283464566929
          },
          {
            "duration": 0.08571424999999522,
            "durationTicks": 96,
            "midi": 0,
            "name": "C-1",
            "ticks": 92928,
            "time": 82.971394,
            "velocity": 0.1732283464566929
          },
          {
            "duration": 0.08571425000000943,
            "durationTicks": 96,
            "midi": 0,
            "name": "C-1",
            "ticks": 93024,
            "time": 83.05710825,
            "velocity": 0.1732283464566929
          },
          {
            "duration": 0.08571424999999522,
            "durationTicks": 96,
            "midi": 0,
            "name": "C-1",
            "ticks": 93120,
            "time": 83.14282250000001,
            "velocity": 0.1732283464566929
          },
          {
            "duration": 0.08571424999999522,
            "durationTicks": 96,
            "midi": 0,
            "name": "C-1",
            "ticks": 93120,
            "time": 83.14282250000001,
            "velocity": 0.1732283464566929
          },
          {
            "duration": 0.08571424999999522,
            "durationTicks": 96,
            "midi": 0,
            "name": "C-1",
            "ticks": 93120,
            "time": 83.14282250000001,
            "velocity": 0.1732283464566929
          },
          {
            "duration": 0.08571424999999522,
            "durationTicks": 96,
            "midi": 0,
            "name": "C-1",
            "ticks": 93216,
            "time": 83.22853675,
            "velocity": 0.1732283464566929
          },
          {
            "duration": 0.08571425000000943,
            "durationTicks": 96,
            "midi": 0,
            "name": "C-1",
            "ticks": 93312,
            "time": 83.314251,
            "velocity": 0.1732283464566929
          },
          {
            "duration": 0.08571425000000943,
            "durationTicks": 96,
            "midi": 0,
            "name": "C-1",
            "ticks": 93312,
            "time": 83.314251,
            "velocity": 0.1732283464566929
          },
          {
            "duration": 0.08571425000000943,
            "durationTicks": 96,
            "midi": 0,
            "name": "C-1",
            "ticks": 93312,
            "time": 83.314251,
            "velocity": 0.1732283464566929
          },
          {
            "duration": 0.08571424999999522,
            "durationTicks": 96,
            "midi": 0,
            "name": "C-1",
            "ticks": 93408,
            "time": 83.39996525000001,
            "velocity": 0.1732283464566929
          },
          {
            "duration": 0.08571424999999522,
            "durationTicks": 96,
            "midi": 0,
            "name": "C-1",
            "ticks": 93504,
            "time": 83.4856795,
            "velocity": 0.1732283464566929
          },
          {
            "duration": 0.08571424999999522,
            "durationTicks": 96,
            "midi": 0,
            "name": "C-1",
            "ticks": 93504,
            "time": 83.4856795,
            "velocity": 0.1732283464566929
          },
          {
            "duration": 0.08571424999999522,
            "durationTicks": 96,
            "midi": 0,
            "name": "C-1",
            "ticks": 93504,
            "time": 83.4856795,
            "velocity": 0.1732283464566929
          },
          {
            "duration": 0.08571425000000943,
            "durationTicks": 96,
            "midi": 0,
            "name": "C-1",
            "ticks": 93600,
            "time": 83.57139375,
            "velocity": 0.1732283464566929
          },
          {
            "duration": 0.08571424999999522,
            "durationTicks": 96,
            "midi": 0,
            "name": "C-1",
            "ticks": 93696,
            "time": 83.65710800000001,
            "velocity": 0.1732283464566929
          },
          {
            "duration": 0.08571424999999522,
            "durationTicks": 96,
            "midi": 0,
            "name": "C-1",
            "ticks": 93696,
            "time": 83.65710800000001,
            "velocity": 0.1732283464566929
          },
          {
            "duration": 0.08571424999999522,
            "durationTicks": 96,
            "midi": 0,
            "name": "C-1",
            "ticks": 93696,
            "time": 83.65710800000001,
            "velocity": 0.1732283464566929
          },
          {
            "duration": 0.08571425000000943,
            "durationTicks": 96,
            "midi": 0,
            "name": "C-1",
            "ticks": 93792,
            "time": 83.74282225,
            "velocity": 0.1732283464566929
          },
          {
            "duration": 0.08571424999999522,
            "durationTicks": 96,
            "midi": 0,
            "name": "C-1",
            "ticks": 93888,
            "time": 83.82853650000001,
            "velocity": 0.1732283464566929
          },
          {
            "duration": 0.08571424999999522,
            "durationTicks": 96,
            "midi": 0,
            "name": "C-1",
            "ticks": 93888,
            "time": 83.82853650000001,
            "velocity": 0.1732283464566929
          },
          {
            "duration": 0.08571424999999522,
            "durationTicks": 96,
            "midi": 0,
            "name": "C-1",
            "ticks": 93888,
            "time": 83.82853650000001,
            "velocity": 0.1732283464566929
          },
          {
            "duration": 0.08571424999999522,
            "durationTicks": 96,
            "midi": 0,
            "name": "C-1",
            "ticks": 93984,
            "time": 83.91425075000001,
            "velocity": 0.1732283464566929
          },
          {
            "duration": 0.08571425000000943,
            "durationTicks": 96,
            "midi": 0,
            "name": "C-1",
            "ticks": 94080,
            "time": 83.999965,
            "velocity": 0.1732283464566929
          },
          {
            "duration": 0.08571425000000943,
            "durationTicks": 96,
            "midi": 0,
            "name": "C-1",
            "ticks": 94080,
            "time": 83.999965,
            "velocity": 0.1732283464566929
          },
          {
            "duration": 0.08571425000000943,
            "durationTicks": 96,
            "midi": 0,
            "name": "C-1",
            "ticks": 94080,
            "time": 83.999965,
            "velocity": 0.1732283464566929
          },
          {
            "duration": 0.08571424999999522,
            "durationTicks": 96,
            "midi": 0,
            "name": "C-1",
            "ticks": 94176,
            "time": 84.08567925000001,
            "velocity": 0.1732283464566929
          },
          {
            "duration": 0.08571424999999522,
            "durationTicks": 96,
            "midi": 0,
            "name": "C-1",
            "ticks": 94272,
            "time": 84.17139350000001,
            "velocity": 0.1732283464566929
          },
          {
            "duration": 0.08571424999999522,
            "durationTicks": 96,
            "midi": 0,
            "name": "C-1",
            "ticks": 94272,
            "time": 84.17139350000001,
            "velocity": 0.1732283464566929
          },
          {
            "duration": 0.08571424999999522,
            "durationTicks": 96,
            "midi": 0,
            "name": "C-1",
            "ticks": 94272,
            "time": 84.17139350000001,
            "velocity": 0.1732283464566929
          },
          {
            "duration": 0.08571425000000943,
            "durationTicks": 96,
            "midi": 0,
            "name": "C-1",
            "ticks": 94368,
            "time": 84.25710775,
            "velocity": 0.1732283464566929
          },
          {
            "duration": 0.08571424999999522,
            "durationTicks": 96,
            "midi": 0,
            "name": "C-1",
            "ticks": 94464,
            "time": 84.34282200000001,
            "velocity": 0.1732283464566929
          },
          {
            "duration": 0.08571424999999522,
            "durationTicks": 96,
            "midi": 0,
            "name": "C-1",
            "ticks": 94560,
            "time": 84.42853625000001,
            "velocity": 0.1732283464566929
          },
          {
            "duration": 0.08571425000000943,
            "durationTicks": 96,
            "midi": 0,
            "name": "C-1",
            "ticks": 94656,
            "time": 84.5142505,
            "velocity": 0.1732283464566929
          },
          {
            "duration": 0.08571425000000943,
            "durationTicks": 96,
            "midi": 0,
            "name": "C-1",
            "ticks": 94656,
            "time": 84.5142505,
            "velocity": 0.1732283464566929
          },
          {
            "duration": 0.08571425000000943,
            "durationTicks": 96,
            "midi": 0,
            "name": "C-1",
            "ticks": 94656,
            "time": 84.5142505,
            "velocity": 0.1732283464566929
          },
          {
            "duration": 0.08571424999999522,
            "durationTicks": 96,
            "midi": 0,
            "name": "C-1",
            "ticks": 94752,
            "time": 84.59996475000001,
            "velocity": 0.1732283464566929
          },
          {
            "duration": 0.08571424999999522,
            "durationTicks": 96,
            "midi": 0,
            "name": "C-1",
            "ticks": 94848,
            "time": 84.68567900000001,
            "velocity": 0.1732283464566929
          },
          {
            "duration": 0.08571424999999522,
            "durationTicks": 96,
            "midi": 0,
            "name": "C-1",
            "ticks": 94848,
            "time": 84.68567900000001,
            "velocity": 0.1732283464566929
          },
          {
            "duration": 0.08571424999999522,
            "durationTicks": 96,
            "midi": 0,
            "name": "C-1",
            "ticks": 94848,
            "time": 84.68567900000001,
            "velocity": 0.1732283464566929
          },
          {
            "duration": 0.08571425000000943,
            "durationTicks": 96,
            "midi": 0,
            "name": "C-1",
            "ticks": 94944,
            "time": 84.77139325,
            "velocity": 0.1732283464566929
          },
          {
            "duration": 0.08571424999999522,
            "durationTicks": 96,
            "midi": 0,
            "name": "C-1",
            "ticks": 95040,
            "time": 84.85710750000001,
            "velocity": 0.1732283464566929
          },
          {
            "duration": 0.08571424999999522,
            "durationTicks": 96,
            "midi": 0,
            "name": "C-1",
            "ticks": 95040,
            "time": 84.85710750000001,
            "velocity": 0.1732283464566929
          },
          {
            "duration": 0.08571424999999522,
            "durationTicks": 96,
            "midi": 0,
            "name": "C-1",
            "ticks": 95040,
            "time": 84.85710750000001,
            "velocity": 0.1732283464566929
          },
          {
            "duration": 0.08571424999999522,
            "durationTicks": 96,
            "midi": 0,
            "name": "C-1",
            "ticks": 95136,
            "time": 84.94282175000001,
            "velocity": 0.1732283464566929
          },
          {
            "duration": 0.08571425000000943,
            "durationTicks": 96,
            "midi": 0,
            "name": "C-1",
            "ticks": 95232,
            "time": 85.028536,
            "velocity": 0.1732283464566929
          },
          {
            "duration": 0.08571425000000943,
            "durationTicks": 96,
            "midi": 0,
            "name": "C-1",
            "ticks": 95232,
            "time": 85.028536,
            "velocity": 0.1732283464566929
          },
          {
            "duration": 0.08571425000000943,
            "durationTicks": 96,
            "midi": 0,
            "name": "C-1",
            "ticks": 95232,
            "time": 85.028536,
            "velocity": 0.1732283464566929
          },
          {
            "duration": 0.08571425000000943,
            "durationTicks": 96,
            "midi": 0,
            "name": "C-1",
            "ticks": 95232,
            "time": 85.028536,
            "velocity": 0.1732283464566929
          },
          {
            "duration": 0.08571425000000943,
            "durationTicks": 96,
            "midi": 0,
            "name": "C-1",
            "ticks": 95232,
            "time": 85.028536,
            "velocity": 0.1732283464566929
          },
          {
            "duration": 0.08571424999999522,
            "durationTicks": 96,
            "midi": 0,
            "name": "C-1",
            "ticks": 95328,
            "time": 85.11425025000001,
            "velocity": 0.1732283464566929
          },
          {
            "duration": 0.08571424999999522,
            "durationTicks": 96,
            "midi": 0,
            "name": "C-1",
            "ticks": 95424,
            "time": 85.19996450000001,
            "velocity": 0.1732283464566929
          },
          {
            "duration": 0.08571424999999522,
            "durationTicks": 96,
            "midi": 0,
            "name": "C-1",
            "ticks": 95424,
            "time": 85.19996450000001,
            "velocity": 0.1732283464566929
          },
          {
            "duration": 0.08571424999999522,
            "durationTicks": 96,
            "midi": 0,
            "name": "C-1",
            "ticks": 95424,
            "time": 85.19996450000001,
            "velocity": 0.1732283464566929
          },
          {
            "duration": 0.08571425000000943,
            "durationTicks": 96,
            "midi": 0,
            "name": "C-1",
            "ticks": 95520,
            "time": 85.28567875,
            "velocity": 0.1732283464566929
          },
          {
            "duration": 0.08571424999999522,
            "durationTicks": 96,
            "midi": 0,
            "name": "C-1",
            "ticks": 95616,
            "time": 85.37139300000001,
            "velocity": 0.1732283464566929
          },
          {
            "duration": 0.08571424999999522,
            "durationTicks": 96,
            "midi": 0,
            "name": "C-1",
            "ticks": 95616,
            "time": 85.37139300000001,
            "velocity": 0.1732283464566929
          },
          {
            "duration": 0.08571424999999522,
            "durationTicks": 96,
            "midi": 0,
            "name": "C-1",
            "ticks": 95616,
            "time": 85.37139300000001,
            "velocity": 0.1732283464566929
          },
          {
            "duration": 0.08571424999999522,
            "durationTicks": 96,
            "midi": 0,
            "name": "C-1",
            "ticks": 95712,
            "time": 85.45710725,
            "velocity": 0.1732283464566929
          },
          {
            "duration": 0.08571425000000943,
            "durationTicks": 96,
            "midi": 0,
            "name": "C-1",
            "ticks": 95808,
            "time": 85.5428215,
            "velocity": 0.1732283464566929
          },
          {
            "duration": 0.08571425000000943,
            "durationTicks": 96,
            "midi": 0,
            "name": "C-1",
            "ticks": 95808,
            "time": 85.5428215,
            "velocity": 0.1732283464566929
          },
          {
            "duration": 0.08571425000000943,
            "durationTicks": 96,
            "midi": 0,
            "name": "C-1",
            "ticks": 95808,
            "time": 85.5428215,
            "velocity": 0.1732283464566929
          },
          {
            "duration": 0.08571424999999522,
            "durationTicks": 96,
            "midi": 0,
            "name": "C-1",
            "ticks": 95904,
            "time": 85.62853575000001,
            "velocity": 0.1732283464566929
          },
          {
            "duration": 0.08571424999999522,
            "durationTicks": 96,
            "midi": 0,
            "name": "C-1",
            "ticks": 96000,
            "time": 85.71425,
            "velocity": 0.1732283464566929
          },
          {
            "duration": 0.08571424999999522,
            "durationTicks": 96,
            "midi": 0,
            "name": "C-1",
            "ticks": 96000,
            "time": 85.71425,
            "velocity": 0.1732283464566929
          },
          {
            "duration": 0.08571424999999522,
            "durationTicks": 96,
            "midi": 0,
            "name": "C-1",
            "ticks": 96000,
            "time": 85.71425,
            "velocity": 0.1732283464566929
          },
          {
            "duration": 0.08571425000000943,
            "durationTicks": 96,
            "midi": 0,
            "name": "C-1",
            "ticks": 96096,
            "time": 85.79996425,
            "velocity": 0.1732283464566929
          },
          {
            "duration": 0.08571424999999522,
            "durationTicks": 96,
            "midi": 0,
            "name": "C-1",
            "ticks": 96192,
            "time": 85.88567850000001,
            "velocity": 0.1732283464566929
          },
          {
            "duration": 0.08571424999999522,
            "durationTicks": 96,
            "midi": 0,
            "name": "C-1",
            "ticks": 96192,
            "time": 85.88567850000001,
            "velocity": 0.1732283464566929
          },
          {
            "duration": 0.08571424999999522,
            "durationTicks": 96,
            "midi": 0,
            "name": "C-1",
            "ticks": 96192,
            "time": 85.88567850000001,
            "velocity": 0.1732283464566929
          },
          {
            "duration": 0.08571424999999522,
            "durationTicks": 96,
            "midi": 0,
            "name": "C-1",
            "ticks": 96288,
            "time": 85.97139275,
            "velocity": 0.1732283464566929
          },
          {
            "duration": 0.08571425000000943,
            "durationTicks": 96,
            "midi": 0,
            "name": "C-1",
            "ticks": 96384,
            "time": 86.057107,
            "velocity": 0.1732283464566929
          },
          {
            "duration": 0.08571425000000943,
            "durationTicks": 96,
            "midi": 0,
            "name": "C-1",
            "ticks": 96384,
            "time": 86.057107,
            "velocity": 0.1732283464566929
          },
          {
            "duration": 0.08571425000000943,
            "durationTicks": 96,
            "midi": 0,
            "name": "C-1",
            "ticks": 96384,
            "time": 86.057107,
            "velocity": 0.1732283464566929
          },
          {
            "duration": 0.08571424999999522,
            "durationTicks": 96,
            "midi": 0,
            "name": "C-1",
            "ticks": 96480,
            "time": 86.14282125000001,
            "velocity": 0.1732283464566929
          },
          {
            "duration": 0.08571424999999522,
            "durationTicks": 96,
            "midi": 0,
            "name": "C-1",
            "ticks": 96576,
            "time": 86.2285355,
            "velocity": 0.1732283464566929
          },
          {
            "duration": 0.08571424999999522,
            "durationTicks": 96,
            "midi": 0,
            "name": "C-1",
            "ticks": 96576,
            "time": 86.2285355,
            "velocity": 0.1732283464566929
          },
          {
            "duration": 0.08571424999999522,
            "durationTicks": 96,
            "midi": 0,
            "name": "C-1",
            "ticks": 96576,
            "time": 86.2285355,
            "velocity": 0.1732283464566929
          },
          {
            "duration": 0.08571425000000943,
            "durationTicks": 96,
            "midi": 0,
            "name": "C-1",
            "ticks": 96672,
            "time": 86.31424975,
            "velocity": 0.1732283464566929
          },
          {
            "duration": 0.08571424999999522,
            "durationTicks": 96,
            "midi": 0,
            "name": "C-1",
            "ticks": 96768,
            "time": 86.39996400000001,
            "velocity": 0.1732283464566929
          },
          {
            "duration": 0.08571424999999522,
            "durationTicks": 96,
            "midi": 0,
            "name": "C-1",
            "ticks": 96768,
            "time": 86.39996400000001,
            "velocity": 0.1732283464566929
          },
          {
            "duration": 0.08571424999999522,
            "durationTicks": 96,
            "midi": 0,
            "name": "C-1",
            "ticks": 96768,
            "time": 86.39996400000001,
            "velocity": 0.1732283464566929
          },
          {
            "duration": 0.08571424999999522,
            "durationTicks": 96,
            "midi": 0,
            "name": "C-1",
            "ticks": 96768,
            "time": 86.39996400000001,
            "velocity": 0.1732283464566929
          },
          {
            "duration": 0.08571424999999522,
            "durationTicks": 96,
            "midi": 0,
            "name": "C-1",
            "ticks": 96768,
            "time": 86.39996400000001,
            "velocity": 0.1732283464566929
          },
          {
            "duration": 0.08571424999999522,
            "durationTicks": 96,
            "midi": 0,
            "name": "C-1",
            "ticks": 96864,
            "time": 86.48567825,
            "velocity": 0.1732283464566929
          },
          {
            "duration": 0.08571425000000943,
            "durationTicks": 96,
            "midi": 0,
            "name": "C-1",
            "ticks": 96960,
            "time": 86.5713925,
            "velocity": 0.1732283464566929
          },
          {
            "duration": 0.08571425000000943,
            "durationTicks": 96,
            "midi": 0,
            "name": "C-1",
            "ticks": 96960,
            "time": 86.5713925,
            "velocity": 0.1732283464566929
          },
          {
            "duration": 0.08571425000000943,
            "durationTicks": 96,
            "midi": 0,
            "name": "C-1",
            "ticks": 96960,
            "time": 86.5713925,
            "velocity": 0.1732283464566929
          },
          {
            "duration": 0.08571424999999522,
            "durationTicks": 96,
            "midi": 0,
            "name": "C-1",
            "ticks": 97056,
            "time": 86.65710675000001,
            "velocity": 0.1732283464566929
          },
          {
            "duration": 0.08571424999999522,
            "durationTicks": 96,
            "midi": 0,
            "name": "C-1",
            "ticks": 97152,
            "time": 86.742821,
            "velocity": 0.1732283464566929
          },
          {
            "duration": 0.08571424999999522,
            "durationTicks": 96,
            "midi": 0,
            "name": "C-1",
            "ticks": 97152,
            "time": 86.742821,
            "velocity": 0.1732283464566929
          },
          {
            "duration": 0.08571424999999522,
            "durationTicks": 96,
            "midi": 0,
            "name": "C-1",
            "ticks": 97152,
            "time": 86.742821,
            "velocity": 0.1732283464566929
          },
          {
            "duration": 0.08571424999999522,
            "durationTicks": 96,
            "midi": 0,
            "name": "C-1",
            "ticks": 97152,
            "time": 86.742821,
            "velocity": 0.1732283464566929
          },
          {
            "duration": 0.08571424999999522,
            "durationTicks": 96,
            "midi": 0,
            "name": "C-1",
            "ticks": 97152,
            "time": 86.742821,
            "velocity": 0.1732283464566929
          },
          {
            "duration": 0.08571425000000943,
            "durationTicks": 96,
            "midi": 0,
            "name": "C-1",
            "ticks": 97248,
            "time": 86.82853525,
            "velocity": 0.1732283464566929
          },
          {
            "duration": 0.08571424999999522,
            "durationTicks": 96,
            "midi": 0,
            "name": "C-1",
            "ticks": 97344,
            "time": 86.91424950000001,
            "velocity": 0.1732283464566929
          },
          {
            "duration": 0.08571424999999522,
            "durationTicks": 96,
            "midi": 0,
            "name": "C-1",
            "ticks": 97344,
            "time": 86.91424950000001,
            "velocity": 0.1732283464566929
          },
          {
            "duration": 0.08571424999999522,
            "durationTicks": 96,
            "midi": 0,
            "name": "C-1",
            "ticks": 97344,
            "time": 86.91424950000001,
            "velocity": 0.1732283464566929
          },
          {
            "duration": 0.08571424999999522,
            "durationTicks": 96,
            "midi": 0,
            "name": "C-1",
            "ticks": 97440,
            "time": 86.99996375,
            "velocity": 0.1732283464566929
          },
          {
            "duration": 0.08571425000000943,
            "durationTicks": 96,
            "midi": 0,
            "name": "C-1",
            "ticks": 97536,
            "time": 87.085678,
            "velocity": 0.1732283464566929
          },
          {
            "duration": 0.08571425000000943,
            "durationTicks": 96,
            "midi": 0,
            "name": "C-1",
            "ticks": 97536,
            "time": 87.085678,
            "velocity": 0.1732283464566929
          },
          {
            "duration": 0.08571425000000943,
            "durationTicks": 96,
            "midi": 0,
            "name": "C-1",
            "ticks": 97536,
            "time": 87.085678,
            "velocity": 0.1732283464566929
          },
          {
            "duration": 0.08571425000000943,
            "durationTicks": 96,
            "midi": 0,
            "name": "C-1",
            "ticks": 97536,
            "time": 87.085678,
            "velocity": 0.1732283464566929
          },
          {
            "duration": 0.08571425000000943,
            "durationTicks": 96,
            "midi": 0,
            "name": "C-1",
            "ticks": 97536,
            "time": 87.085678,
            "velocity": 0.1732283464566929
          },
          {
            "duration": 0.08571424999999522,
            "durationTicks": 96,
            "midi": 0,
            "name": "C-1",
            "ticks": 97632,
            "time": 87.17139225000001,
            "velocity": 0.1732283464566929
          },
          {
            "duration": 0.08571424999999522,
            "durationTicks": 96,
            "midi": 0,
            "name": "C-1",
            "ticks": 97728,
            "time": 87.2571065,
            "velocity": 0.1732283464566929
          },
          {
            "duration": 0.08571424999999522,
            "durationTicks": 96,
            "midi": 0,
            "name": "C-1",
            "ticks": 97728,
            "time": 87.2571065,
            "velocity": 0.1732283464566929
          },
          {
            "duration": 0.08571424999999522,
            "durationTicks": 96,
            "midi": 0,
            "name": "C-1",
            "ticks": 97728,
            "time": 87.2571065,
            "velocity": 0.1732283464566929
          },
          {
            "duration": 0.08571425000000943,
            "durationTicks": 96,
            "midi": 0,
            "name": "C-1",
            "ticks": 97824,
            "time": 87.34282075,
            "velocity": 0.1732283464566929
          },
          {
            "duration": 0.08571424999999522,
            "durationTicks": 96,
            "midi": 0,
            "name": "C-1",
            "ticks": 97920,
            "time": 87.42853500000001,
            "velocity": 0.1732283464566929
          },
          {
            "duration": 0.08571424999999522,
            "durationTicks": 96,
            "midi": 0,
            "name": "C-1",
            "ticks": 97920,
            "time": 87.42853500000001,
            "velocity": 0.1732283464566929
          },
          {
            "duration": 0.08571424999999522,
            "durationTicks": 96,
            "midi": 0,
            "name": "C-1",
            "ticks": 97920,
            "time": 87.42853500000001,
            "velocity": 0.1732283464566929
          },
          {
            "duration": 0.08571424999999522,
            "durationTicks": 96,
            "midi": 0,
            "name": "C-1",
            "ticks": 97920,
            "time": 87.42853500000001,
            "velocity": 0.1732283464566929
          },
          {
            "duration": 0.08571424999999522,
            "durationTicks": 96,
            "midi": 0,
            "name": "C-1",
            "ticks": 97920,
            "time": 87.42853500000001,
            "velocity": 0.1732283464566929
          },
          {
            "duration": 0.08571424999999522,
            "durationTicks": 96,
            "midi": 0,
            "name": "C-1",
            "ticks": 98016,
            "time": 87.51424925,
            "velocity": 0.1732283464566929
          },
          {
            "duration": 0.08571425000000943,
            "durationTicks": 96,
            "midi": 0,
            "name": "C-1",
            "ticks": 98112,
            "time": 87.5999635,
            "velocity": 0.1732283464566929
          },
          {
            "duration": 0.08571425000000943,
            "durationTicks": 96,
            "midi": 0,
            "name": "C-1",
            "ticks": 98112,
            "time": 87.5999635,
            "velocity": 0.1732283464566929
          },
          {
            "duration": 0.08571425000000943,
            "durationTicks": 96,
            "midi": 0,
            "name": "C-1",
            "ticks": 98112,
            "time": 87.5999635,
            "velocity": 0.1732283464566929
          },
          {
            "duration": 0.08571424999999522,
            "durationTicks": 96,
            "midi": 0,
            "name": "C-1",
            "ticks": 98208,
            "time": 87.68567775000001,
            "velocity": 0.1732283464566929
          },
          {
            "duration": 0.08571424999999522,
            "durationTicks": 96,
            "midi": 0,
            "name": "C-1",
            "ticks": 98304,
            "time": 87.771392,
            "velocity": 0.1732283464566929
          },
          {
            "duration": 0.08571424999999522,
            "durationTicks": 96,
            "midi": 0,
            "name": "C-1",
            "ticks": 98304,
            "time": 87.771392,
            "velocity": 0.1732283464566929
          },
          {
            "duration": 0.08571424999999522,
            "durationTicks": 96,
            "midi": 0,
            "name": "C-1",
            "ticks": 98304,
            "time": 87.771392,
            "velocity": 0.1732283464566929
          },
          {
            "duration": 0.08571424999999522,
            "durationTicks": 96,
            "midi": 0,
            "name": "C-1",
            "ticks": 98304,
            "time": 87.771392,
            "velocity": 0.1732283464566929
          },
          {
            "duration": 0.08571424999999522,
            "durationTicks": 96,
            "midi": 0,
            "name": "C-1",
            "ticks": 98304,
            "time": 87.771392,
            "velocity": 0.1732283464566929
          },
          {
            "duration": 0.08571425000000943,
            "durationTicks": 96,
            "midi": 0,
            "name": "C-1",
            "ticks": 98400,
            "time": 87.85710625,
            "velocity": 0.1732283464566929
          },
          {
            "duration": 0.08571424999999522,
            "durationTicks": 96,
            "midi": 0,
            "name": "C-1",
            "ticks": 98496,
            "time": 87.94282050000001,
            "velocity": 0.1732283464566929
          },
          {
            "duration": 0.08571424999999522,
            "durationTicks": 96,
            "midi": 0,
            "name": "C-1",
            "ticks": 98496,
            "time": 87.94282050000001,
            "velocity": 0.1732283464566929
          },
          {
            "duration": 0.08571424999999522,
            "durationTicks": 96,
            "midi": 0,
            "name": "C-1",
            "ticks": 98496,
            "time": 87.94282050000001,
            "velocity": 0.1732283464566929
          },
          {
            "duration": 0.08571424999999522,
            "durationTicks": 96,
            "midi": 0,
            "name": "C-1",
            "ticks": 98592,
            "time": 88.02853475,
            "velocity": 0.1732283464566929
          },
          {
            "duration": 0.08571425000000943,
            "durationTicks": 96,
            "midi": 0,
            "name": "C-1",
            "ticks": 98688,
            "time": 88.114249,
            "velocity": 0.1732283464566929
          },
          {
            "duration": 0.08571425000000943,
            "durationTicks": 96,
            "midi": 0,
            "name": "C-1",
            "ticks": 98688,
            "time": 88.114249,
            "velocity": 0.1732283464566929
          },
          {
            "duration": 0.08571425000000943,
            "durationTicks": 96,
            "midi": 0,
            "name": "C-1",
            "ticks": 98688,
            "time": 88.114249,
            "velocity": 0.1732283464566929
          },
          {
            "duration": 0.08571424999999522,
            "durationTicks": 96,
            "midi": 0,
            "name": "C-1",
            "ticks": 98784,
            "time": 88.19996325000001,
            "velocity": 0.1732283464566929
          },
          {
            "duration": 0.08571424999999522,
            "durationTicks": 96,
            "midi": 0,
            "name": "C-1",
            "ticks": 98880,
            "time": 88.2856775,
            "velocity": 0.1732283464566929
          },
          {
            "duration": 0.08571424999999522,
            "durationTicks": 96,
            "midi": 0,
            "name": "C-1",
            "ticks": 98880,
            "time": 88.2856775,
            "velocity": 0.1732283464566929
          },
          {
            "duration": 0.08571424999999522,
            "durationTicks": 96,
            "midi": 0,
            "name": "C-1",
            "ticks": 98880,
            "time": 88.2856775,
            "velocity": 0.1732283464566929
          },
          {
            "duration": 0.08571425000000943,
            "durationTicks": 96,
            "midi": 0,
            "name": "C-1",
            "ticks": 98976,
            "time": 88.37139175,
            "velocity": 0.1732283464566929
          },
          {
            "duration": 0.08571424999999522,
            "durationTicks": 96,
            "midi": 0,
            "name": "C-1",
            "ticks": 99072,
            "time": 88.45710600000001,
            "velocity": 0.1732283464566929
          },
          {
            "duration": 0.08571424999999522,
            "durationTicks": 96,
            "midi": 0,
            "name": "C-1",
            "ticks": 99168,
            "time": 88.54282025,
            "velocity": 0.1732283464566929
          },
          {
            "duration": 0.08571425000000943,
            "durationTicks": 96,
            "midi": 0,
            "name": "C-1",
            "ticks": 99264,
            "time": 88.6285345,
            "velocity": 0.1732283464566929
          },
          {
            "duration": 0.08571425000000943,
            "durationTicks": 96,
            "midi": 0,
            "name": "C-1",
            "ticks": 99264,
            "time": 88.6285345,
            "velocity": 0.1732283464566929
          },
          {
            "duration": 0.08571425000000943,
            "durationTicks": 96,
            "midi": 0,
            "name": "C-1",
            "ticks": 99264,
            "time": 88.6285345,
            "velocity": 0.1732283464566929
          },
          {
            "duration": 0.08571424999999522,
            "durationTicks": 96,
            "midi": 0,
            "name": "C-1",
            "ticks": 99360,
            "time": 88.71424875000001,
            "velocity": 0.1732283464566929
          },
          {
            "duration": 0.08571424999999522,
            "durationTicks": 96,
            "midi": 0,
            "name": "C-1",
            "ticks": 99456,
            "time": 88.799963,
            "velocity": 0.1732283464566929
          },
          {
            "duration": 0.08571424999999522,
            "durationTicks": 96,
            "midi": 0,
            "name": "C-1",
            "ticks": 99456,
            "time": 88.799963,
            "velocity": 0.1732283464566929
          },
          {
            "duration": 0.08571424999999522,
            "durationTicks": 96,
            "midi": 0,
            "name": "C-1",
            "ticks": 99456,
            "time": 88.799963,
            "velocity": 0.1732283464566929
          },
          {
            "duration": 0.08571425000000943,
            "durationTicks": 96,
            "midi": 0,
            "name": "C-1",
            "ticks": 99552,
            "time": 88.88567725,
            "velocity": 0.1732283464566929
          },
          {
            "duration": 0.08571424999999522,
            "durationTicks": 96,
            "midi": 0,
            "name": "C-1",
            "ticks": 99648,
            "time": 88.97139150000001,
            "velocity": 0.1732283464566929
          },
          {
            "duration": 0.08571424999999522,
            "durationTicks": 96,
            "midi": 0,
            "name": "C-1",
            "ticks": 99648,
            "time": 88.97139150000001,
            "velocity": 0.1732283464566929
          },
          {
            "duration": 0.08571424999999522,
            "durationTicks": 96,
            "midi": 0,
            "name": "C-1",
            "ticks": 99648,
            "time": 88.97139150000001,
            "velocity": 0.1732283464566929
          },
          {
            "duration": 0.08571424999999522,
            "durationTicks": 96,
            "midi": 0,
            "name": "C-1",
            "ticks": 99744,
            "time": 89.05710575,
            "velocity": 0.1732283464566929
          },
          {
            "duration": 0.08571425000000943,
            "durationTicks": 96,
            "midi": 0,
            "name": "C-1",
            "ticks": 99840,
            "time": 89.14282,
            "velocity": 0.1732283464566929
          },
          {
            "duration": 0.08571425000000943,
            "durationTicks": 96,
            "midi": 0,
            "name": "C-1",
            "ticks": 99840,
            "time": 89.14282,
            "velocity": 0.1732283464566929
          },
          {
            "duration": 0.08571425000000943,
            "durationTicks": 96,
            "midi": 0,
            "name": "C-1",
            "ticks": 99840,
            "time": 89.14282,
            "velocity": 0.1732283464566929
          },
          {
            "duration": 0.08571424999999522,
            "durationTicks": 96,
            "midi": 0,
            "name": "C-1",
            "ticks": 99936,
            "time": 89.22853425000001,
            "velocity": 0.1732283464566929
          },
          {
            "duration": 0.08571424999999522,
            "durationTicks": 96,
            "midi": 0,
            "name": "C-1",
            "ticks": 100032,
            "time": 89.3142485,
            "velocity": 0.1732283464566929
          },
          {
            "duration": 0.08571424999999522,
            "durationTicks": 96,
            "midi": 0,
            "name": "C-1",
            "ticks": 100032,
            "time": 89.3142485,
            "velocity": 0.1732283464566929
          },
          {
            "duration": 0.08571424999999522,
            "durationTicks": 96,
            "midi": 0,
            "name": "C-1",
            "ticks": 100032,
            "time": 89.3142485,
            "velocity": 0.1732283464566929
          },
          {
            "duration": 0.08571425000000943,
            "durationTicks": 96,
            "midi": 0,
            "name": "C-1",
            "ticks": 100128,
            "time": 89.39996275,
            "velocity": 0.1732283464566929
          },
          {
            "duration": 0.08571424999999522,
            "durationTicks": 96,
            "midi": 0,
            "name": "C-1",
            "ticks": 100224,
            "time": 89.48567700000001,
            "velocity": 0.1732283464566929
          },
          {
            "duration": 0.08571424999999522,
            "durationTicks": 96,
            "midi": 0,
            "name": "C-1",
            "ticks": 100224,
            "time": 89.48567700000001,
            "velocity": 0.1732283464566929
          },
          {
            "duration": 0.08571424999999522,
            "durationTicks": 96,
            "midi": 0,
            "name": "C-1",
            "ticks": 100224,
            "time": 89.48567700000001,
            "velocity": 0.1732283464566929
          },
          {
            "duration": 0.08571424999999522,
            "durationTicks": 96,
            "midi": 0,
            "name": "C-1",
            "ticks": 100320,
            "time": 89.57139125,
            "velocity": 0.1732283464566929
          },
          {
            "duration": 0.08571425000000943,
            "durationTicks": 96,
            "midi": 0,
            "name": "C-1",
            "ticks": 100416,
            "time": 89.6571055,
            "velocity": 0.1732283464566929
          },
          {
            "duration": 0.08571425000000943,
            "durationTicks": 96,
            "midi": 0,
            "name": "C-1",
            "ticks": 100416,
            "time": 89.6571055,
            "velocity": 0.1732283464566929
          },
          {
            "duration": 0.08571425000000943,
            "durationTicks": 96,
            "midi": 0,
            "name": "C-1",
            "ticks": 100416,
            "time": 89.6571055,
            "velocity": 0.1732283464566929
          },
          {
            "duration": 0.08571424999999522,
            "durationTicks": 96,
            "midi": 0,
            "name": "C-1",
            "ticks": 100512,
            "time": 89.74281975000001,
            "velocity": 0.1732283464566929
          },
          {
            "duration": 0.08571424999999522,
            "durationTicks": 96,
            "midi": 0,
            "name": "C-1",
            "ticks": 100608,
            "time": 89.828534,
            "velocity": 0.1732283464566929
          },
          {
            "duration": 0.08571425000000943,
            "durationTicks": 96,
            "midi": 0,
            "name": "C-1",
            "ticks": 100704,
            "time": 89.91424825,
            "velocity": 0.1732283464566929
          },
          {
            "duration": 0.08571424999999522,
            "durationTicks": 96,
            "midi": 0,
            "name": "C-1",
            "ticks": 100800,
            "time": 89.99996250000001,
            "velocity": 0.1732283464566929
          },
          {
            "duration": 0.08571424999999522,
            "durationTicks": 96,
            "midi": 0,
            "name": "C-1",
            "ticks": 100800,
            "time": 89.99996250000001,
            "velocity": 0.1732283464566929
          },
          {
            "duration": 0.08571424999999522,
            "durationTicks": 96,
            "midi": 0,
            "name": "C-1",
            "ticks": 100800,
            "time": 89.99996250000001,
            "velocity": 0.1732283464566929
          },
          {
            "duration": 0.08571424999999522,
            "durationTicks": 96,
            "midi": 0,
            "name": "C-1",
            "ticks": 100896,
            "time": 90.08567675,
            "velocity": 0.1732283464566929
          },
          {
            "duration": 0.08571425000000943,
            "durationTicks": 96,
            "midi": 0,
            "name": "C-1",
            "ticks": 100992,
            "time": 90.171391,
            "velocity": 0.1732283464566929
          },
          {
            "duration": 0.08571425000000943,
            "durationTicks": 96,
            "midi": 0,
            "name": "C-1",
            "ticks": 100992,
            "time": 90.171391,
            "velocity": 0.1732283464566929
          },
          {
            "duration": 0.08571425000000943,
            "durationTicks": 96,
            "midi": 0,
            "name": "C-1",
            "ticks": 100992,
            "time": 90.171391,
            "velocity": 0.1732283464566929
          },
          {
            "duration": 0.08571424999999522,
            "durationTicks": 96,
            "midi": 0,
            "name": "C-1",
            "ticks": 101088,
            "time": 90.25710525000001,
            "velocity": 0.1732283464566929
          },
          {
            "duration": 0.08571424999999522,
            "durationTicks": 96,
            "midi": 0,
            "name": "C-1",
            "ticks": 101184,
            "time": 90.3428195,
            "velocity": 0.1732283464566929
          },
          {
            "duration": 0.08571424999999522,
            "durationTicks": 96,
            "midi": 0,
            "name": "C-1",
            "ticks": 101184,
            "time": 90.3428195,
            "velocity": 0.1732283464566929
          },
          {
            "duration": 0.08571424999999522,
            "durationTicks": 96,
            "midi": 0,
            "name": "C-1",
            "ticks": 101184,
            "time": 90.3428195,
            "velocity": 0.1732283464566929
          },
          {
            "duration": 0.08571425000000943,
            "durationTicks": 96,
            "midi": 0,
            "name": "C-1",
            "ticks": 101280,
            "time": 90.42853375,
            "velocity": 0.1732283464566929
          },
          {
            "duration": 0.08571424999999522,
            "durationTicks": 96,
            "midi": 0,
            "name": "C-1",
            "ticks": 101376,
            "time": 90.51424800000001,
            "velocity": 0.1732283464566929
          },
          {
            "duration": 0.08571424999999522,
            "durationTicks": 96,
            "midi": 0,
            "name": "C-1",
            "ticks": 101376,
            "time": 90.51424800000001,
            "velocity": 0.1732283464566929
          },
          {
            "duration": 0.08571424999999522,
            "durationTicks": 96,
            "midi": 0,
            "name": "C-1",
            "ticks": 101376,
            "time": 90.51424800000001,
            "velocity": 0.1732283464566929
          },
          {
            "duration": 0.08571424999999522,
            "durationTicks": 96,
            "midi": 0,
            "name": "C-1",
            "ticks": 101376,
            "time": 90.51424800000001,
            "velocity": 0.1732283464566929
          },
          {
            "duration": 0.08571424999999522,
            "durationTicks": 96,
            "midi": 0,
            "name": "C-1",
            "ticks": 101376,
            "time": 90.51424800000001,
            "velocity": 0.1732283464566929
          },
          {
            "duration": 0.08571424999999522,
            "durationTicks": 96,
            "midi": 0,
            "name": "C-1",
            "ticks": 101472,
            "time": 90.59996225,
            "velocity": 0.1732283464566929
          },
          {
            "duration": 0.08571425000000943,
            "durationTicks": 96,
            "midi": 0,
            "name": "C-1",
            "ticks": 101568,
            "time": 90.6856765,
            "velocity": 0.1732283464566929
          },
          {
            "duration": 0.08571425000000943,
            "durationTicks": 96,
            "midi": 0,
            "name": "C-1",
            "ticks": 101568,
            "time": 90.6856765,
            "velocity": 0.1732283464566929
          },
          {
            "duration": 0.08571425000000943,
            "durationTicks": 96,
            "midi": 0,
            "name": "C-1",
            "ticks": 101568,
            "time": 90.6856765,
            "velocity": 0.1732283464566929
          },
          {
            "duration": 0.08571424999999522,
            "durationTicks": 96,
            "midi": 0,
            "name": "C-1",
            "ticks": 101664,
            "time": 90.77139075000001,
            "velocity": 0.1732283464566929
          },
          {
            "duration": 0.08571424999999522,
            "durationTicks": 96,
            "midi": 0,
            "name": "C-1",
            "ticks": 101760,
            "time": 90.857105,
            "velocity": 0.1732283464566929
          },
          {
            "duration": 0.08571424999999522,
            "durationTicks": 96,
            "midi": 0,
            "name": "C-1",
            "ticks": 101760,
            "time": 90.857105,
            "velocity": 0.1732283464566929
          },
          {
            "duration": 0.08571424999999522,
            "durationTicks": 96,
            "midi": 0,
            "name": "C-1",
            "ticks": 101760,
            "time": 90.857105,
            "velocity": 0.1732283464566929
          },
          {
            "duration": 0.08571425000000943,
            "durationTicks": 96,
            "midi": 0,
            "name": "C-1",
            "ticks": 101856,
            "time": 90.94281925,
            "velocity": 0.1732283464566929
          },
          {
            "duration": 0.08571424999999522,
            "durationTicks": 96,
            "midi": 0,
            "name": "C-1",
            "ticks": 101952,
            "time": 91.02853350000001,
            "velocity": 0.1732283464566929
          },
          {
            "duration": 0.08571424999999522,
            "durationTicks": 96,
            "midi": 0,
            "name": "C-1",
            "ticks": 101952,
            "time": 91.02853350000001,
            "velocity": 0.1732283464566929
          },
          {
            "duration": 0.08571424999999522,
            "durationTicks": 96,
            "midi": 0,
            "name": "C-1",
            "ticks": 101952,
            "time": 91.02853350000001,
            "velocity": 0.1732283464566929
          },
          {
            "duration": 0.08571424999999522,
            "durationTicks": 96,
            "midi": 0,
            "name": "C-1",
            "ticks": 102048,
            "time": 91.11424775,
            "velocity": 0.1732283464566929
          },
          {
            "duration": 0.08571425000000943,
            "durationTicks": 96,
            "midi": 0,
            "name": "C-1",
            "ticks": 102144,
            "time": 91.199962,
            "velocity": 0.1732283464566929
          },
          {
            "duration": 0.08571424999999522,
            "durationTicks": 96,
            "midi": 0,
            "name": "C-1",
            "ticks": 102240,
            "time": 91.28567625000001,
            "velocity": 0.1732283464566929
          },
          {
            "duration": 0.08571424999999522,
            "durationTicks": 96,
            "midi": 0,
            "name": "C-1",
            "ticks": 102336,
            "time": 91.3713905,
            "velocity": 0.1732283464566929
          },
          {
            "duration": 0.08571424999999522,
            "durationTicks": 96,
            "midi": 0,
            "name": "C-1",
            "ticks": 102336,
            "time": 91.3713905,
            "velocity": 0.1732283464566929
          },
          {
            "duration": 0.08571424999999522,
            "durationTicks": 96,
            "midi": 0,
            "name": "C-1",
            "ticks": 102336,
            "time": 91.3713905,
            "velocity": 0.1732283464566929
          },
          {
            "duration": 0.08571425000000943,
            "durationTicks": 96,
            "midi": 0,
            "name": "C-1",
            "ticks": 102432,
            "time": 91.45710475,
            "velocity": 0.1732283464566929
          },
          {
            "duration": 0.08571424999999522,
            "durationTicks": 96,
            "midi": 0,
            "name": "C-1",
            "ticks": 102528,
            "time": 91.54281900000001,
            "velocity": 0.1732283464566929
          },
          {
            "duration": 0.08571424999999522,
            "durationTicks": 96,
            "midi": 0,
            "name": "C-1",
            "ticks": 102528,
            "time": 91.54281900000001,
            "velocity": 0.1732283464566929
          },
          {
            "duration": 0.08571424999999522,
            "durationTicks": 96,
            "midi": 0,
            "name": "C-1",
            "ticks": 102528,
            "time": 91.54281900000001,
            "velocity": 0.1732283464566929
          },
          {
            "duration": 0.08571424999999522,
            "durationTicks": 96,
            "midi": 0,
            "name": "C-1",
            "ticks": 102624,
            "time": 91.62853325,
            "velocity": 0.1732283464566929
          },
          {
            "duration": 0.08571425000000943,
            "durationTicks": 96,
            "midi": 0,
            "name": "C-1",
            "ticks": 102720,
            "time": 91.7142475,
            "velocity": 0.1732283464566929
          },
          {
            "duration": 0.08571425000000943,
            "durationTicks": 96,
            "midi": 0,
            "name": "C-1",
            "ticks": 102720,
            "time": 91.7142475,
            "velocity": 0.1732283464566929
          },
          {
            "duration": 0.08571425000000943,
            "durationTicks": 96,
            "midi": 0,
            "name": "C-1",
            "ticks": 102720,
            "time": 91.7142475,
            "velocity": 0.1732283464566929
          },
          {
            "duration": 0.08571424999999522,
            "durationTicks": 96,
            "midi": 0,
            "name": "C-1",
            "ticks": 102816,
            "time": 91.79996175000001,
            "velocity": 0.1732283464566929
          },
          {
            "duration": 0.08571425000000943,
            "durationTicks": 96,
            "midi": 0,
            "name": "C-1",
            "ticks": 102912,
            "time": 91.885676,
            "velocity": 0.1732283464566929
          },
          {
            "duration": 0.08571425000000943,
            "durationTicks": 96,
            "midi": 0,
            "name": "C-1",
            "ticks": 102912,
            "time": 91.885676,
            "velocity": 0.1732283464566929
          },
          {
            "duration": 0.08571425000000943,
            "durationTicks": 96,
            "midi": 0,
            "name": "C-1",
            "ticks": 102912,
            "time": 91.885676,
            "velocity": 0.1732283464566929
          },
          {
            "duration": 0.08571425000000943,
            "durationTicks": 96,
            "midi": 0,
            "name": "C-1",
            "ticks": 102912,
            "time": 91.885676,
            "velocity": 0.1732283464566929
          },
          {
            "duration": 0.08571425000000943,
            "durationTicks": 96,
            "midi": 0,
            "name": "C-1",
            "ticks": 102912,
            "time": 91.885676,
            "velocity": 0.1732283464566929
          },
          {
            "duration": 0.08571424999999522,
            "durationTicks": 96,
            "midi": 0,
            "name": "C-1",
            "ticks": 103008,
            "time": 91.97139025000001,
            "velocity": 0.1732283464566929
          },
          {
            "duration": 0.08571424999999522,
            "durationTicks": 96,
            "midi": 0,
            "name": "C-1",
            "ticks": 103104,
            "time": 92.05710450000001,
            "velocity": 0.1732283464566929
          },
          {
            "duration": 0.08571424999999522,
            "durationTicks": 96,
            "midi": 0,
            "name": "C-1",
            "ticks": 103104,
            "time": 92.05710450000001,
            "velocity": 0.1732283464566929
          },
          {
            "duration": 0.08571424999999522,
            "durationTicks": 96,
            "midi": 0,
            "name": "C-1",
            "ticks": 103104,
            "time": 92.05710450000001,
            "velocity": 0.1732283464566929
          },
          {
            "duration": 0.08571425000000943,
            "durationTicks": 96,
            "midi": 0,
            "name": "C-1",
            "ticks": 103200,
            "time": 92.14281875,
            "velocity": 0.1732283464566929
          },
          {
            "duration": 0.08571424999999522,
            "durationTicks": 96,
            "midi": 0,
            "name": "C-1",
            "ticks": 103296,
            "time": 92.22853300000001,
            "velocity": 0.1732283464566929
          },
          {
            "duration": 0.08571424999999522,
            "durationTicks": 96,
            "midi": 0,
            "name": "C-1",
            "ticks": 103296,
            "time": 92.22853300000001,
            "velocity": 0.1732283464566929
          },
          {
            "duration": 0.08571424999999522,
            "durationTicks": 96,
            "midi": 0,
            "name": "C-1",
            "ticks": 103296,
            "time": 92.22853300000001,
            "velocity": 0.1732283464566929
          },
          {
            "duration": 0.08571424999999522,
            "durationTicks": 96,
            "midi": 0,
            "name": "C-1",
            "ticks": 103392,
            "time": 92.31424725000001,
            "velocity": 0.1732283464566929
          },
          {
            "duration": 0.08571425000000943,
            "durationTicks": 96,
            "midi": 0,
            "name": "C-1",
            "ticks": 103488,
            "time": 92.3999615,
            "velocity": 0.1732283464566929
          },
          {
            "duration": 0.08571425000000943,
            "durationTicks": 96,
            "midi": 0,
            "name": "C-1",
            "ticks": 103488,
            "time": 92.3999615,
            "velocity": 0.1732283464566929
          },
          {
            "duration": 0.08571425000000943,
            "durationTicks": 96,
            "midi": 0,
            "name": "C-1",
            "ticks": 103488,
            "time": 92.3999615,
            "velocity": 0.1732283464566929
          },
          {
            "duration": 0.08571424999999522,
            "durationTicks": 96,
            "midi": 0,
            "name": "C-1",
            "ticks": 103584,
            "time": 92.48567575000001,
            "velocity": 0.1732283464566929
          },
          {
            "duration": 0.08571424999999522,
            "durationTicks": 96,
            "midi": 0,
            "name": "C-1",
            "ticks": 103680,
            "time": 92.57139000000001,
            "velocity": 0.1732283464566929
          },
          {
            "duration": 0.08571424999999522,
            "durationTicks": 96,
            "midi": 0,
            "name": "C-1",
            "ticks": 103680,
            "time": 92.57139000000001,
            "velocity": 0.1732283464566929
          },
          {
            "duration": 0.08571424999999522,
            "durationTicks": 96,
            "midi": 0,
            "name": "C-1",
            "ticks": 103680,
            "time": 92.57139000000001,
            "velocity": 0.1732283464566929
          },
          {
            "duration": 0.08571424999999522,
            "durationTicks": 96,
            "midi": 0,
            "name": "C-1",
            "ticks": 103680,
            "time": 92.57139000000001,
            "velocity": 0.1732283464566929
          },
          {
            "duration": 0.08571424999999522,
            "durationTicks": 96,
            "midi": 0,
            "name": "C-1",
            "ticks": 103680,
            "time": 92.57139000000001,
            "velocity": 0.1732283464566929
          },
          {
            "duration": 0.08571425000000943,
            "durationTicks": 96,
            "midi": 0,
            "name": "C-1",
            "ticks": 103776,
            "time": 92.65710425,
            "velocity": 0.1732283464566929
          },
          {
            "duration": 0.08571424999999522,
            "durationTicks": 96,
            "midi": 0,
            "name": "C-1",
            "ticks": 103872,
            "time": 92.74281850000001,
            "velocity": 0.1732283464566929
          },
          {
            "duration": 0.08571424999999522,
            "durationTicks": 96,
            "midi": 0,
            "name": "C-1",
            "ticks": 103872,
            "time": 92.74281850000001,
            "velocity": 0.1732283464566929
          },
          {
            "duration": 0.08571424999999522,
            "durationTicks": 96,
            "midi": 0,
            "name": "C-1",
            "ticks": 103872,
            "time": 92.74281850000001,
            "velocity": 0.1732283464566929
          },
          {
            "duration": 0.08571424999999522,
            "durationTicks": 96,
            "midi": 0,
            "name": "C-1",
            "ticks": 103968,
            "time": 92.82853275000001,
            "velocity": 0.1732283464566929
          },
          {
            "duration": 0.08571425000000943,
            "durationTicks": 96,
            "midi": 0,
            "name": "C-1",
            "ticks": 104064,
            "time": 92.914247,
            "velocity": 0.1732283464566929
          },
          {
            "duration": 0.08571425000000943,
            "durationTicks": 96,
            "midi": 0,
            "name": "C-1",
            "ticks": 104064,
            "time": 92.914247,
            "velocity": 0.1732283464566929
          },
          {
            "duration": 0.08571425000000943,
            "durationTicks": 96,
            "midi": 0,
            "name": "C-1",
            "ticks": 104064,
            "time": 92.914247,
            "velocity": 0.1732283464566929
          },
          {
            "duration": 0.08571424999999522,
            "durationTicks": 96,
            "midi": 0,
            "name": "C-1",
            "ticks": 104160,
            "time": 92.99996125000001,
            "velocity": 0.1732283464566929
          },
          {
            "duration": 0.08571424999999522,
            "durationTicks": 96,
            "midi": 0,
            "name": "C-1",
            "ticks": 104256,
            "time": 93.08567550000001,
            "velocity": 0.1732283464566929
          },
          {
            "duration": 0.08571424999999522,
            "durationTicks": 96,
            "midi": 0,
            "name": "C-1",
            "ticks": 104256,
            "time": 93.08567550000001,
            "velocity": 0.1732283464566929
          },
          {
            "duration": 0.08571424999999522,
            "durationTicks": 96,
            "midi": 0,
            "name": "C-1",
            "ticks": 104256,
            "time": 93.08567550000001,
            "velocity": 0.1732283464566929
          },
          {
            "duration": 0.08571425000000943,
            "durationTicks": 96,
            "midi": 0,
            "name": "C-1",
            "ticks": 104352,
            "time": 93.17138975,
            "velocity": 0.1732283464566929
          },
          {
            "duration": 0.08571424999999522,
            "durationTicks": 96,
            "midi": 0,
            "name": "C-1",
            "ticks": 104448,
            "time": 93.25710400000001,
            "velocity": 0.1732283464566929
          },
          {
            "duration": 0.08571424999999522,
            "durationTicks": 96,
            "midi": 0,
            "name": "C-1",
            "ticks": 104448,
            "time": 93.25710400000001,
            "velocity": 0.1732283464566929
          },
          {
            "duration": 0.08571424999999522,
            "durationTicks": 96,
            "midi": 0,
            "name": "C-1",
            "ticks": 104448,
            "time": 93.25710400000001,
            "velocity": 0.1732283464566929
          },
          {
            "duration": 0.08571424999999522,
            "durationTicks": 96,
            "midi": 0,
            "name": "C-1",
            "ticks": 104448,
            "time": 93.25710400000001,
            "velocity": 0.1732283464566929
          },
          {
            "duration": 0.08571424999999522,
            "durationTicks": 96,
            "midi": 0,
            "name": "C-1",
            "ticks": 104448,
            "time": 93.25710400000001,
            "velocity": 0.1732283464566929
          },
          {
            "duration": 0.08571424999999522,
            "durationTicks": 96,
            "midi": 0,
            "name": "C-1",
            "ticks": 104544,
            "time": 93.34281825000001,
            "velocity": 0.1732283464566929
          },
          {
            "duration": 0.08571425000000943,
            "durationTicks": 96,
            "midi": 0,
            "name": "C-1",
            "ticks": 104640,
            "time": 93.4285325,
            "velocity": 0.1732283464566929
          },
          {
            "duration": 0.08571425000000943,
            "durationTicks": 96,
            "midi": 0,
            "name": "C-1",
            "ticks": 104640,
            "time": 93.4285325,
            "velocity": 0.1732283464566929
          },
          {
            "duration": 0.08571425000000943,
            "durationTicks": 96,
            "midi": 0,
            "name": "C-1",
            "ticks": 104640,
            "time": 93.4285325,
            "velocity": 0.1732283464566929
          },
          {
            "duration": 0.08571424999999522,
            "durationTicks": 96,
            "midi": 0,
            "name": "C-1",
            "ticks": 104736,
            "time": 93.51424675000001,
            "velocity": 0.1732283464566929
          },
          {
            "duration": 0.08571424999999522,
            "durationTicks": 96,
            "midi": 0,
            "name": "C-1",
            "ticks": 104832,
            "time": 93.59996100000001,
            "velocity": 0.1732283464566929
          },
          {
            "duration": 0.08571424999999522,
            "durationTicks": 96,
            "midi": 0,
            "name": "C-1",
            "ticks": 104832,
            "time": 93.59996100000001,
            "velocity": 0.1732283464566929
          },
          {
            "duration": 0.08571424999999522,
            "durationTicks": 96,
            "midi": 0,
            "name": "C-1",
            "ticks": 104832,
            "time": 93.59996100000001,
            "velocity": 0.1732283464566929
          },
          {
            "duration": 0.08571425000000943,
            "durationTicks": 96,
            "midi": 0,
            "name": "C-1",
            "ticks": 104928,
            "time": 93.68567525,
            "velocity": 0.1732283464566929
          },
          {
            "duration": 0.08571424999999522,
            "durationTicks": 96,
            "midi": 0,
            "name": "C-1",
            "ticks": 105024,
            "time": 93.77138950000001,
            "velocity": 0.1732283464566929
          },
          {
            "duration": 0.08571424999999522,
            "durationTicks": 96,
            "midi": 0,
            "name": "C-1",
            "ticks": 105024,
            "time": 93.77138950000001,
            "velocity": 0.1732283464566929
          },
          {
            "duration": 0.08571424999999522,
            "durationTicks": 96,
            "midi": 0,
            "name": "C-1",
            "ticks": 105024,
            "time": 93.77138950000001,
            "velocity": 0.1732283464566929
          },
          {
            "duration": 0.08571424999999522,
            "durationTicks": 96,
            "midi": 0,
            "name": "C-1",
            "ticks": 105120,
            "time": 93.85710375000001,
            "velocity": 0.1732283464566929
          },
          {
            "duration": 0.08571425000000943,
            "durationTicks": 96,
            "midi": 0,
            "name": "C-1",
            "ticks": 105216,
            "time": 93.942818,
            "velocity": 0.1732283464566929
          },
          {
            "duration": 0.08571424999999522,
            "durationTicks": 96,
            "midi": 0,
            "name": "C-1",
            "ticks": 105312,
            "time": 94.02853225000001,
            "velocity": 0.1732283464566929
          },
          {
            "duration": 0.08571424999999522,
            "durationTicks": 96,
            "midi": 0,
            "name": "C-1",
            "ticks": 105408,
            "time": 94.11424650000001,
            "velocity": 0.1732283464566929
          },
          {
            "duration": 0.08571424999999522,
            "durationTicks": 96,
            "midi": 0,
            "name": "C-1",
            "ticks": 105408,
            "time": 94.11424650000001,
            "velocity": 0.1732283464566929
          },
          {
            "duration": 0.08571424999999522,
            "durationTicks": 96,
            "midi": 0,
            "name": "C-1",
            "ticks": 105408,
            "time": 94.11424650000001,
            "velocity": 0.1732283464566929
          },
          {
            "duration": 0.08571425000000943,
            "durationTicks": 96,
            "midi": 0,
            "name": "C-1",
            "ticks": 105504,
            "time": 94.19996075,
            "velocity": 0.1732283464566929
          },
          {
            "duration": 0.08571424999999522,
            "durationTicks": 96,
            "midi": 0,
            "name": "C-1",
            "ticks": 105600,
            "time": 94.28567500000001,
            "velocity": 0.1732283464566929
          },
          {
            "duration": 0.08571424999999522,
            "durationTicks": 96,
            "midi": 0,
            "name": "C-1",
            "ticks": 105600,
            "time": 94.28567500000001,
            "velocity": 0.1732283464566929
          },
          {
            "duration": 0.08571424999999522,
            "durationTicks": 96,
            "midi": 0,
            "name": "C-1",
            "ticks": 105600,
            "time": 94.28567500000001,
            "velocity": 0.1732283464566929
          },
          {
            "duration": 0.08571424999999522,
            "durationTicks": 96,
            "midi": 0,
            "name": "C-1",
            "ticks": 105696,
            "time": 94.37138925000001,
            "velocity": 0.1732283464566929
          },
          {
            "duration": 0.08571425000000943,
            "durationTicks": 96,
            "midi": 0,
            "name": "C-1",
            "ticks": 105792,
            "time": 94.4571035,
            "velocity": 0.1732283464566929
          },
          {
            "duration": 0.08571425000000943,
            "durationTicks": 96,
            "midi": 0,
            "name": "C-1",
            "ticks": 105792,
            "time": 94.4571035,
            "velocity": 0.1732283464566929
          },
          {
            "duration": 0.08571425000000943,
            "durationTicks": 96,
            "midi": 0,
            "name": "C-1",
            "ticks": 105792,
            "time": 94.4571035,
            "velocity": 0.1732283464566929
          },
          {
            "duration": 0.08571424999999522,
            "durationTicks": 96,
            "midi": 0,
            "name": "C-1",
            "ticks": 105888,
            "time": 94.54281775000001,
            "velocity": 0.1732283464566929
          },
          {
            "duration": 0.08571424999999522,
            "durationTicks": 96,
            "midi": 0,
            "name": "C-1",
            "ticks": 105984,
            "time": 94.628532,
            "velocity": 0.1732283464566929
          },
          {
            "duration": 0.08571424999999522,
            "durationTicks": 96,
            "midi": 0,
            "name": "C-1",
            "ticks": 105984,
            "time": 94.628532,
            "velocity": 0.1732283464566929
          },
          {
            "duration": 0.08571424999999522,
            "durationTicks": 96,
            "midi": 0,
            "name": "C-1",
            "ticks": 105984,
            "time": 94.628532,
            "velocity": 0.1732283464566929
          },
          {
            "duration": 0.08571425000000943,
            "durationTicks": 96,
            "midi": 0,
            "name": "C-1",
            "ticks": 106080,
            "time": 94.71424625,
            "velocity": 0.1732283464566929
          },
          {
            "duration": 0.08571424999999522,
            "durationTicks": 96,
            "midi": 0,
            "name": "C-1",
            "ticks": 106176,
            "time": 94.79996050000001,
            "velocity": 0.1732283464566929
          },
          {
            "duration": 0.08571424999999522,
            "durationTicks": 96,
            "midi": 0,
            "name": "C-1",
            "ticks": 106176,
            "time": 94.79996050000001,
            "velocity": 0.1732283464566929
          },
          {
            "duration": 0.08571424999999522,
            "durationTicks": 96,
            "midi": 0,
            "name": "C-1",
            "ticks": 106176,
            "time": 94.79996050000001,
            "velocity": 0.1732283464566929
          },
          {
            "duration": 0.08571424999999522,
            "durationTicks": 96,
            "midi": 0,
            "name": "C-1",
            "ticks": 106272,
            "time": 94.88567475,
            "velocity": 0.1732283464566929
          },
          {
            "duration": 0.08571425000000943,
            "durationTicks": 96,
            "midi": 0,
            "name": "C-1",
            "ticks": 106368,
            "time": 94.971389,
            "velocity": 0.1732283464566929
          },
          {
            "duration": 0.08571425000000943,
            "durationTicks": 96,
            "midi": 0,
            "name": "C-1",
            "ticks": 106368,
            "time": 94.971389,
            "velocity": 0.1732283464566929
          },
          {
            "duration": 0.08571425000000943,
            "durationTicks": 96,
            "midi": 0,
            "name": "C-1",
            "ticks": 106368,
            "time": 94.971389,
            "velocity": 0.1732283464566929
          },
          {
            "duration": 0.08571424999999522,
            "durationTicks": 96,
            "midi": 0,
            "name": "C-1",
            "ticks": 106464,
            "time": 95.05710325000001,
            "velocity": 0.1732283464566929
          },
          {
            "duration": 0.08571424999999522,
            "durationTicks": 96,
            "midi": 0,
            "name": "C-1",
            "ticks": 106560,
            "time": 95.1428175,
            "velocity": 0.1732283464566929
          },
          {
            "duration": 0.08571424999999522,
            "durationTicks": 96,
            "midi": 0,
            "name": "C-1",
            "ticks": 106560,
            "time": 95.1428175,
            "velocity": 0.1732283464566929
          },
          {
            "duration": 0.08571424999999522,
            "durationTicks": 96,
            "midi": 0,
            "name": "C-1",
            "ticks": 106560,
            "time": 95.1428175,
            "velocity": 0.1732283464566929
          },
          {
            "duration": 0.08571425000000943,
            "durationTicks": 96,
            "midi": 0,
            "name": "C-1",
            "ticks": 106656,
            "time": 95.22853175,
            "velocity": 0.1732283464566929
          },
          {
            "duration": 0.08571424999999522,
            "durationTicks": 96,
            "midi": 0,
            "name": "C-1",
            "ticks": 106752,
            "time": 95.31424600000001,
            "velocity": 0.1732283464566929
          },
          {
            "duration": 0.08571424999999522,
            "durationTicks": 96,
            "midi": 0,
            "name": "C-1",
            "ticks": 106848,
            "time": 95.39996025,
            "velocity": 0.1732283464566929
          },
          {
            "duration": 0.08571425000000943,
            "durationTicks": 96,
            "midi": 0,
            "name": "C-1",
            "ticks": 106944,
            "time": 95.4856745,
            "velocity": 0.1732283464566929
          },
          {
            "duration": 0.08571425000000943,
            "durationTicks": 96,
            "midi": 0,
            "name": "C-1",
            "ticks": 106944,
            "time": 95.4856745,
            "velocity": 0.1732283464566929
          },
          {
            "duration": 0.08571425000000943,
            "durationTicks": 96,
            "midi": 0,
            "name": "C-1",
            "ticks": 106944,
            "time": 95.4856745,
            "velocity": 0.1732283464566929
          },
          {
            "duration": 0.08571424999999522,
            "durationTicks": 96,
            "midi": 0,
            "name": "C-1",
            "ticks": 107040,
            "time": 95.57138875000001,
            "velocity": 0.1732283464566929
          },
          {
            "duration": 0.08571424999999522,
            "durationTicks": 96,
            "midi": 0,
            "name": "C-1",
            "ticks": 107136,
            "time": 95.657103,
            "velocity": 0.1732283464566929
          },
          {
            "duration": 0.08571424999999522,
            "durationTicks": 96,
            "midi": 0,
            "name": "C-1",
            "ticks": 107136,
            "time": 95.657103,
            "velocity": 0.1732283464566929
          },
          {
            "duration": 0.08571424999999522,
            "durationTicks": 96,
            "midi": 0,
            "name": "C-1",
            "ticks": 107136,
            "time": 95.657103,
            "velocity": 0.1732283464566929
          },
          {
            "duration": 0.08571425000000943,
            "durationTicks": 96,
            "midi": 0,
            "name": "C-1",
            "ticks": 107232,
            "time": 95.74281725,
            "velocity": 0.1732283464566929
          },
          {
            "duration": 0.08571424999999522,
            "durationTicks": 96,
            "midi": 0,
            "name": "C-1",
            "ticks": 107328,
            "time": 95.82853150000001,
            "velocity": 0.1732283464566929
          },
          {
            "duration": 0.08571424999999522,
            "durationTicks": 96,
            "midi": 0,
            "name": "C-1",
            "ticks": 107328,
            "time": 95.82853150000001,
            "velocity": 0.1732283464566929
          },
          {
            "duration": 0.08571424999999522,
            "durationTicks": 96,
            "midi": 0,
            "name": "C-1",
            "ticks": 107328,
            "time": 95.82853150000001,
            "velocity": 0.1732283464566929
          },
          {
            "duration": 0.08571424999999522,
            "durationTicks": 96,
            "midi": 0,
            "name": "C-1",
            "ticks": 107424,
            "time": 95.91424575,
            "velocity": 0.1732283464566929
          },
          {
            "duration": 0.08571425000000943,
            "durationTicks": 96,
            "midi": 0,
            "name": "C-1",
            "ticks": 107520,
            "time": 95.99996,
            "velocity": 0.1732283464566929
          },
          {
            "duration": 0.08571425000000943,
            "durationTicks": 96,
            "midi": 0,
            "name": "C-1",
            "ticks": 107520,
            "time": 95.99996,
            "velocity": 0.1732283464566929
          },
          {
            "duration": 0.08571425000000943,
            "durationTicks": 96,
            "midi": 0,
            "name": "C-1",
            "ticks": 107520,
            "time": 95.99996,
            "velocity": 0.1732283464566929
          },
          {
            "duration": 0.08571425000000943,
            "durationTicks": 96,
            "midi": 0,
            "name": "C-1",
            "ticks": 107520,
            "time": 95.99996,
            "velocity": 0.1732283464566929
          },
          {
            "duration": 0.08571425000000943,
            "durationTicks": 96,
            "midi": 0,
            "name": "C-1",
            "ticks": 107520,
            "time": 95.99996,
            "velocity": 0.1732283464566929
          },
          {
            "duration": 0.08571424999999522,
            "durationTicks": 96,
            "midi": 0,
            "name": "C-1",
            "ticks": 107616,
            "time": 96.08567425000001,
            "velocity": 0.1732283464566929
          },
          {
            "duration": 0.08571424999999522,
            "durationTicks": 96,
            "midi": 0,
            "name": "C-1",
            "ticks": 107712,
            "time": 96.1713885,
            "velocity": 0.1732283464566929
          },
          {
            "duration": 0.08571424999999522,
            "durationTicks": 96,
            "midi": 0,
            "name": "C-1",
            "ticks": 107712,
            "time": 96.1713885,
            "velocity": 0.1732283464566929
          },
          {
            "duration": 0.08571424999999522,
            "durationTicks": 96,
            "midi": 0,
            "name": "C-1",
            "ticks": 107712,
            "time": 96.1713885,
            "velocity": 0.1732283464566929
          },
          {
            "duration": 0.08571425000000943,
            "durationTicks": 96,
            "midi": 0,
            "name": "C-1",
            "ticks": 107808,
            "time": 96.25710275,
            "velocity": 0.1732283464566929
          },
          {
            "duration": 0.08571424999999522,
            "durationTicks": 96,
            "midi": 0,
            "name": "C-1",
            "ticks": 107904,
            "time": 96.34281700000001,
            "velocity": 0.1732283464566929
          },
          {
            "duration": 0.08571424999999522,
            "durationTicks": 96,
            "midi": 0,
            "name": "C-1",
            "ticks": 107904,
            "time": 96.34281700000001,
            "velocity": 0.1732283464566929
          },
          {
            "duration": 0.08571424999999522,
            "durationTicks": 96,
            "midi": 0,
            "name": "C-1",
            "ticks": 107904,
            "time": 96.34281700000001,
            "velocity": 0.1732283464566929
          },
          {
            "duration": 0.08571424999999522,
            "durationTicks": 96,
            "midi": 0,
            "name": "C-1",
            "ticks": 108000,
            "time": 96.42853125,
            "velocity": 0.1732283464566929
          },
          {
            "duration": 0.08571425000000943,
            "durationTicks": 96,
            "midi": 0,
            "name": "C-1",
            "ticks": 108096,
            "time": 96.5142455,
            "velocity": 0.1732283464566929
          },
          {
            "duration": 0.08571425000000943,
            "durationTicks": 96,
            "midi": 0,
            "name": "C-1",
            "ticks": 108096,
            "time": 96.5142455,
            "velocity": 0.1732283464566929
          },
          {
            "duration": 0.08571425000000943,
            "durationTicks": 96,
            "midi": 0,
            "name": "C-1",
            "ticks": 108096,
            "time": 96.5142455,
            "velocity": 0.1732283464566929
          },
          {
            "duration": 0.08571424999999522,
            "durationTicks": 96,
            "midi": 0,
            "name": "C-1",
            "ticks": 108192,
            "time": 96.59995975000001,
            "velocity": 0.1732283464566929
          },
          {
            "duration": 0.08571424999999522,
            "durationTicks": 96,
            "midi": 0,
            "name": "C-1",
            "ticks": 108288,
            "time": 96.685674,
            "velocity": 0.1732283464566929
          },
          {
            "duration": 0.08571424999999522,
            "durationTicks": 96,
            "midi": 0,
            "name": "C-1",
            "ticks": 108288,
            "time": 96.685674,
            "velocity": 0.1732283464566929
          },
          {
            "duration": 0.08571424999999522,
            "durationTicks": 96,
            "midi": 0,
            "name": "C-1",
            "ticks": 108288,
            "time": 96.685674,
            "velocity": 0.1732283464566929
          },
          {
            "duration": 0.08571425000000943,
            "durationTicks": 96,
            "midi": 0,
            "name": "C-1",
            "ticks": 108384,
            "time": 96.77138825,
            "velocity": 0.1732283464566929
          },
          {
            "duration": 0.08571424999999522,
            "durationTicks": 96,
            "midi": 0,
            "name": "C-1",
            "ticks": 108480,
            "time": 96.85710250000001,
            "velocity": 0.1732283464566929
          },
          {
            "duration": 0.08571424999999522,
            "durationTicks": 96,
            "midi": 0,
            "name": "C-1",
            "ticks": 108480,
            "time": 96.85710250000001,
            "velocity": 0.1732283464566929
          },
          {
            "duration": 0.08571424999999522,
            "durationTicks": 96,
            "midi": 0,
            "name": "C-1",
            "ticks": 108480,
            "time": 96.85710250000001,
            "velocity": 0.1732283464566929
          },
          {
            "duration": 0.08571424999999522,
            "durationTicks": 96,
            "midi": 0,
            "name": "C-1",
            "ticks": 108576,
            "time": 96.94281675,
            "velocity": 0.1732283464566929
          },
          {
            "duration": 0.08571425000000943,
            "durationTicks": 96,
            "midi": 0,
            "name": "C-1",
            "ticks": 108672,
            "time": 97.028531,
            "velocity": 0.1732283464566929
          },
          {
            "duration": 0.08571425000000943,
            "durationTicks": 96,
            "midi": 0,
            "name": "C-1",
            "ticks": 108672,
            "time": 97.028531,
            "velocity": 0.1732283464566929
          },
          {
            "duration": 0.08571425000000943,
            "durationTicks": 96,
            "midi": 0,
            "name": "C-1",
            "ticks": 108672,
            "time": 97.028531,
            "velocity": 0.1732283464566929
          },
          {
            "duration": 0.08571424999999522,
            "durationTicks": 96,
            "midi": 0,
            "name": "C-1",
            "ticks": 108768,
            "time": 97.11424525000001,
            "velocity": 0.1732283464566929
          },
          {
            "duration": 0.08571424999999522,
            "durationTicks": 96,
            "midi": 0,
            "name": "C-1",
            "ticks": 108864,
            "time": 97.1999595,
            "velocity": 0.1732283464566929
          },
          {
            "duration": 0.08571424999999522,
            "durationTicks": 96,
            "midi": 0,
            "name": "C-1",
            "ticks": 108864,
            "time": 97.1999595,
            "velocity": 0.1732283464566929
          },
          {
            "duration": 0.08571424999999522,
            "durationTicks": 96,
            "midi": 0,
            "name": "C-1",
            "ticks": 108864,
            "time": 97.1999595,
            "velocity": 0.1732283464566929
          },
          {
            "duration": 0.08571425000000943,
            "durationTicks": 96,
            "midi": 0,
            "name": "C-1",
            "ticks": 108960,
            "time": 97.28567375,
            "velocity": 0.1732283464566929
          },
          {
            "duration": 0.08571424999999522,
            "durationTicks": 96,
            "midi": 0,
            "name": "C-1",
            "ticks": 109056,
            "time": 97.37138800000001,
            "velocity": 0.1732283464566929
          },
          {
            "duration": 0.08571424999999522,
            "durationTicks": 96,
            "midi": 0,
            "name": "C-1",
            "ticks": 109056,
            "time": 97.37138800000001,
            "velocity": 0.1732283464566929
          },
          {
            "duration": 0.08571424999999522,
            "durationTicks": 96,
            "midi": 0,
            "name": "C-1",
            "ticks": 109056,
            "time": 97.37138800000001,
            "velocity": 0.1732283464566929
          },
          {
            "duration": 0.08571424999999522,
            "durationTicks": 96,
            "midi": 0,
            "name": "C-1",
            "ticks": 109056,
            "time": 97.37138800000001,
            "velocity": 0.1732283464566929
          },
          {
            "duration": 0.08571424999999522,
            "durationTicks": 96,
            "midi": 0,
            "name": "C-1",
            "ticks": 109056,
            "time": 97.37138800000001,
            "velocity": 0.1732283464566929
          },
          {
            "duration": 0.08571424999999522,
            "durationTicks": 96,
            "midi": 0,
            "name": "C-1",
            "ticks": 109152,
            "time": 97.45710225,
            "velocity": 0.1732283464566929
          },
          {
            "duration": 0.08571425000000943,
            "durationTicks": 96,
            "midi": 0,
            "name": "C-1",
            "ticks": 109248,
            "time": 97.5428165,
            "velocity": 0.1732283464566929
          },
          {
            "duration": 0.08571425000000943,
            "durationTicks": 96,
            "midi": 0,
            "name": "C-1",
            "ticks": 109248,
            "time": 97.5428165,
            "velocity": 0.1732283464566929
          },
          {
            "duration": 0.08571425000000943,
            "durationTicks": 96,
            "midi": 0,
            "name": "C-1",
            "ticks": 109248,
            "time": 97.5428165,
            "velocity": 0.1732283464566929
          },
          {
            "duration": 0.08571424999999522,
            "durationTicks": 96,
            "midi": 0,
            "name": "C-1",
            "ticks": 109344,
            "time": 97.62853075000001,
            "velocity": 0.1732283464566929
          },
          {
            "duration": 0.08571424999999522,
            "durationTicks": 96,
            "midi": 0,
            "name": "C-1",
            "ticks": 109440,
            "time": 97.714245,
            "velocity": 0.1732283464566929
          },
          {
            "duration": 0.08571424999999522,
            "durationTicks": 96,
            "midi": 0,
            "name": "C-1",
            "ticks": 109440,
            "time": 97.714245,
            "velocity": 0.1732283464566929
          },
          {
            "duration": 0.08571424999999522,
            "durationTicks": 96,
            "midi": 0,
            "name": "C-1",
            "ticks": 109440,
            "time": 97.714245,
            "velocity": 0.1732283464566929
          },
          {
            "duration": 0.08571424999999522,
            "durationTicks": 96,
            "midi": 0,
            "name": "C-1",
            "ticks": 109440,
            "time": 97.714245,
            "velocity": 0.1732283464566929
          },
          {
            "duration": 0.08571424999999522,
            "durationTicks": 96,
            "midi": 0,
            "name": "C-1",
            "ticks": 109440,
            "time": 97.714245,
            "velocity": 0.1732283464566929
          },
          {
            "duration": 0.08571425000000943,
            "durationTicks": 96,
            "midi": 0,
            "name": "C-1",
            "ticks": 109536,
            "time": 97.79995925,
            "velocity": 0.1732283464566929
          },
          {
            "duration": 0.08571424999999522,
            "durationTicks": 96,
            "midi": 0,
            "name": "C-1",
            "ticks": 109632,
            "time": 97.88567350000001,
            "velocity": 0.1732283464566929
          },
          {
            "duration": 0.08571424999999522,
            "durationTicks": 96,
            "midi": 0,
            "name": "C-1",
            "ticks": 109632,
            "time": 97.88567350000001,
            "velocity": 0.1732283464566929
          },
          {
            "duration": 0.08571424999999522,
            "durationTicks": 96,
            "midi": 0,
            "name": "C-1",
            "ticks": 109632,
            "time": 97.88567350000001,
            "velocity": 0.1732283464566929
          },
          {
            "duration": 0.08571424999999522,
            "durationTicks": 96,
            "midi": 0,
            "name": "C-1",
            "ticks": 109728,
            "time": 97.97138775,
            "velocity": 0.1732283464566929
          },
          {
            "duration": 0.08571425000000943,
            "durationTicks": 96,
            "midi": 0,
            "name": "C-1",
            "ticks": 109824,
            "time": 98.057102,
            "velocity": 0.1732283464566929
          },
          {
            "duration": 0.08571425000000943,
            "durationTicks": 96,
            "midi": 0,
            "name": "C-1",
            "ticks": 109824,
            "time": 98.057102,
            "velocity": 0.1732283464566929
          },
          {
            "duration": 0.08571425000000943,
            "durationTicks": 96,
            "midi": 0,
            "name": "C-1",
            "ticks": 109824,
            "time": 98.057102,
            "velocity": 0.1732283464566929
          },
          {
            "duration": 0.08571425000000943,
            "durationTicks": 96,
            "midi": 0,
            "name": "C-1",
            "ticks": 109824,
            "time": 98.057102,
            "velocity": 0.1732283464566929
          },
          {
            "duration": 0.08571425000000943,
            "durationTicks": 96,
            "midi": 0,
            "name": "C-1",
            "ticks": 109824,
            "time": 98.057102,
            "velocity": 0.1732283464566929
          }
        ],
        "endOfTrackTicks": 109920
      }
    ]
  }