{
    "header": {
      "keySignatures": [],
      "meta": [],
      "name": "",
      "ppq": 384,
      "tempos": [
        {
          "bpm": 350.00116667055556,
          "ticks": 0
        }
      ],
      "timeSignatures": [
        {
          "ticks": 0,
          "timeSignature": [
            1,
            4
          ],
          "measures": 0
        }
      ]
    },
    "tracks": [
      {
        "channel": 0,
        "controlChanges": {},
        "pitchBends": [],
        "instrument": {
          "family": "piano",
          "number": 0,
          "name": "acoustic grand piano"
        },
        "name": "Elec. Piano (Classic)",
        "notes": [
          {
            "duration": 0.04285700000000148,
            "durationTicks": 96,
            "midi": 45,
            "name": "A2",
            "ticks": 53952,
            "time": 24.085634,
            "velocity": 0.3937007874015748
          },
          {
            "duration": 0.04285700000000148,
            "durationTicks": 96,
            "midi": 57,
            "name": "A3",
            "ticks": 53952,
            "time": 24.085634,
            "velocity": 0.3937007874015748
          },
          {
            "duration": 0.042856999999997925,
            "durationTicks": 96,
            "midi": 64,
            "name": "E4",
            "ticks": 54720,
            "time": 24.42849,
            "velocity": 0.3937007874015748
          },
          {
            "duration": 0.042856999999997925,
            "durationTicks": 96,
            "midi": 60,
            "name": "C4",
            "ticks": 54720,
            "time": 24.42849,
            "velocity": 0.3937007874015748
          },
          {
            "duration": 0.042856999999997925,
            "durationTicks": 96,
            "midi": 57,
            "name": "A3",
            "ticks": 54720,
            "time": 24.42849,
            "velocity": 0.3937007874015748
          },
          {
            "duration": 0.042856999999997925,
            "durationTicks": 96,
            "midi": 65,
            "name": "F4",
            "ticks": 55488,
            "time": 24.771346,
            "velocity": 0.3937007874015748
          },
          {
            "duration": 0.042856999999997925,
            "durationTicks": 96,
            "midi": 57,
            "name": "A3",
            "ticks": 55488,
            "time": 24.771346,
            "velocity": 0.3937007874015748
          },
          {
            "duration": 0.042856999999997925,
            "durationTicks": 96,
            "midi": 62,
            "name": "D4",
            "ticks": 55488,
            "time": 24.771346,
            "velocity": 0.3937007874015748
          },
          {
            "duration": 0.04285700000000148,
            "durationTicks": 96,
            "midi": 57,
            "name": "A3",
            "ticks": 56256,
            "time": 25.114202,
            "velocity": 0.3937007874015748
          },
          {
            "duration": 0.04285700000000148,
            "durationTicks": 96,
            "midi": 62,
            "name": "D4",
            "ticks": 56256,
            "time": 25.114202,
            "velocity": 0.3937007874015748
          },
          {
            "duration": 0.042856999999997925,
            "durationTicks": 96,
            "midi": 64,
            "name": "E4",
            "ticks": 57024,
            "time": 25.457058,
            "velocity": 0.3937007874015748
          },
          {
            "duration": 0.042856999999997925,
            "durationTicks": 96,
            "midi": 56,
            "name": "G#3",
            "ticks": 57024,
            "time": 25.457058,
            "velocity": 0.3937007874015748
          },
          {
            "duration": 0.042856999999997925,
            "durationTicks": 96,
            "midi": 59,
            "name": "B3",
            "ticks": 57024,
            "time": 25.457058,
            "velocity": 0.3937007874015748
          },
          {
            "duration": 0.042856999999997925,
            "durationTicks": 96,
            "midi": 45,
            "name": "A2",
            "ticks": 60096,
            "time": 26.828482,
            "velocity": 0.3937007874015748
          },
          {
            "duration": 0.042856999999997925,
            "durationTicks": 96,
            "midi": 57,
            "name": "A3",
            "ticks": 60096,
            "time": 26.828482,
            "velocity": 0.3937007874015748
          },
          {
            "duration": 0.04285700000000148,
            "durationTicks": 96,
            "midi": 64,
            "name": "E4",
            "ticks": 60864,
            "time": 27.171338,
            "velocity": 0.3937007874015748
          },
          {
            "duration": 0.04285700000000148,
            "durationTicks": 96,
            "midi": 61,
            "name": "C#4",
            "ticks": 60864,
            "time": 27.171338,
            "velocity": 0.3937007874015748
          },
          {
            "duration": 0.04285700000000148,
            "durationTicks": 96,
            "midi": 57,
            "name": "A3",
            "ticks": 60864,
            "time": 27.171338,
            "velocity": 0.3937007874015748
          },
          {
            "duration": 0.04285700000000148,
            "durationTicks": 96,
            "midi": 57,
            "name": "A3",
            "ticks": 61632,
            "time": 27.514194,
            "velocity": 0.3937007874015748
          },
          {
            "duration": 0.04285700000000148,
            "durationTicks": 96,
            "midi": 64,
            "name": "E4",
            "ticks": 61632,
            "time": 27.514194,
            "velocity": 0.3937007874015748
          },
          {
            "duration": 0.04285700000000148,
            "durationTicks": 96,
            "midi": 67,
            "name": "G4",
            "ticks": 61632,
            "time": 27.514194,
            "velocity": 0.3937007874015748
          },
          {
            "duration": 0.04285700000000148,
            "durationTicks": 96,
            "midi": 57,
            "name": "A3",
            "ticks": 62784,
            "time": 28.028478,
            "velocity": 0.3937007874015748
          },
          {
            "duration": 0.04285700000000148,
            "durationTicks": 96,
            "midi": 64,
            "name": "E4",
            "ticks": 62784,
            "time": 28.028478,
            "velocity": 0.3937007874015748
          },
          {
            "duration": 0.04285700000000148,
            "durationTicks": 96,
            "midi": 61,
            "name": "C#4",
            "ticks": 62784,
            "time": 28.028478,
            "velocity": 0.3937007874015748
          },
          {
            "duration": 0.04285700000000148,
            "durationTicks": 96,
            "midi": 65,
            "name": "F4",
            "ticks": 63168,
            "time": 28.199906,
            "velocity": 0.3937007874015748
          },
          {
            "duration": 0.04285700000000148,
            "durationTicks": 96,
            "midi": 57,
            "name": "A3",
            "ticks": 63168,
            "time": 28.199906,
            "velocity": 0.3937007874015748
          },
          {
            "duration": 0.04285700000000148,
            "durationTicks": 96,
            "midi": 62,
            "name": "D4",
            "ticks": 63168,
            "time": 28.199906,
            "velocity": 0.3937007874015748
          },
          {
            "duration": 0.04285700000000148,
            "durationTicks": 96,
            "midi": 53,
            "name": "F3",
            "ticks": 66240,
            "time": 29.57133,
            "velocity": 0.3937007874015748
          },
          {
            "duration": 0.04285700000000148,
            "durationTicks": 96,
            "midi": 65,
            "name": "F4",
            "ticks": 66240,
            "time": 29.57133,
            "velocity": 0.3937007874015748
          },
          {
            "duration": 0.042856999999997925,
            "durationTicks": 96,
            "midi": 60,
            "name": "C4",
            "ticks": 67008,
            "time": 29.914186,
            "velocity": 0.3937007874015748
          },
          {
            "duration": 0.042856999999997925,
            "durationTicks": 96,
            "midi": 65,
            "name": "F4",
            "ticks": 67008,
            "time": 29.914186,
            "velocity": 0.3937007874015748
          },
          {
            "duration": 0.042856999999997925,
            "durationTicks": 96,
            "midi": 69,
            "name": "A4",
            "ticks": 67008,
            "time": 29.914186,
            "velocity": 0.3937007874015748
          },
          {
            "duration": 0.04285700000000148,
            "durationTicks": 96,
            "midi": 68,
            "name": "G#4",
            "ticks": 67776,
            "time": 30.257042,
            "velocity": 0.3937007874015748
          },
          {
            "duration": 0.04285700000000148,
            "durationTicks": 96,
            "midi": 59,
            "name": "B3",
            "ticks": 67776,
            "time": 30.257042,
            "velocity": 0.3937007874015748
          },
          {
            "duration": 0.04285700000000148,
            "durationTicks": 96,
            "midi": 64,
            "name": "E4",
            "ticks": 67776,
            "time": 30.257042,
            "velocity": 0.3937007874015748
          },
          {
            "duration": 0.04285700000000148,
            "durationTicks": 96,
            "midi": 64,
            "name": "E4",
            "ticks": 68544,
            "time": 30.599898,
            "velocity": 0.3937007874015748
          },
          {
            "duration": 0.04285700000000148,
            "durationTicks": 96,
            "midi": 68,
            "name": "G#4",
            "ticks": 68544,
            "time": 30.599898,
            "velocity": 0.3937007874015748
          },
          {
            "duration": 0.04285700000000148,
            "durationTicks": 96,
            "midi": 71,
            "name": "B4",
            "ticks": 68544,
            "time": 30.599898,
            "velocity": 0.3937007874015748
          },
          {
            "duration": 0.042856999999997925,
            "durationTicks": 96,
            "midi": 69,
            "name": "A4",
            "ticks": 69312,
            "time": 30.942754,
            "velocity": 0.3937007874015748
          },
          {
            "duration": 0.042856999999997925,
            "durationTicks": 96,
            "midi": 57,
            "name": "A3",
            "ticks": 69312,
            "time": 30.942754,
            "velocity": 0.3937007874015748
          },
          {
            "duration": 0.042856999999997925,
            "durationTicks": 96,
            "midi": 64,
            "name": "E4",
            "ticks": 69312,
            "time": 30.942754,
            "velocity": 0.3937007874015748
          },
          {
            "duration": 0.042856999999997925,
            "durationTicks": 96,
            "midi": 60,
            "name": "C4",
            "ticks": 69312,
            "time": 30.942754,
            "velocity": 0.3937007874015748
          },
          {
            "duration": 0.04285700000000148,
            "durationTicks": 96,
            "midi": 55,
            "name": "G3",
            "ticks": 70080,
            "time": 31.28561,
            "velocity": 0.3937007874015748
          },
          {
            "duration": 0.04285700000000148,
            "durationTicks": 96,
            "midi": 59,
            "name": "B3",
            "ticks": 70080,
            "time": 31.28561,
            "velocity": 0.3937007874015748
          },
          {
            "duration": 0.04285700000000148,
            "durationTicks": 96,
            "midi": 62,
            "name": "D4",
            "ticks": 70080,
            "time": 31.28561,
            "velocity": 0.3937007874015748
          },
          {
            "duration": 0.04285700000000148,
            "durationTicks": 96,
            "midi": 67,
            "name": "G4",
            "ticks": 70080,
            "time": 31.28561,
            "velocity": 0.3937007874015748
          },
          {
            "duration": 0.04285700000000148,
            "durationTicks": 96,
            "midi": 57,
            "name": "A3",
            "ticks": 70848,
            "time": 31.628466,
            "velocity": 0.3937007874015748
          },
          {
            "duration": 0.04285700000000148,
            "durationTicks": 96,
            "midi": 54,
            "name": "F#3",
            "ticks": 70848,
            "time": 31.628466,
            "velocity": 0.3937007874015748
          },
          {
            "duration": 0.04285700000000148,
            "durationTicks": 96,
            "midi": 60,
            "name": "C4",
            "ticks": 70848,
            "time": 31.628466,
            "velocity": 0.3937007874015748
          },
          {
            "duration": 0.04285700000000148,
            "durationTicks": 96,
            "midi": 66,
            "name": "F#4",
            "ticks": 70848,
            "time": 31.628466,
            "velocity": 0.3937007874015748
          },
          {
            "duration": 0.042856999999997925,
            "durationTicks": 96,
            "midi": 53,
            "name": "F3",
            "ticks": 72384,
            "time": 32.314178,
            "velocity": 0.3937007874015748
          },
          {
            "duration": 0.042856999999997925,
            "durationTicks": 96,
            "midi": 65,
            "name": "F4",
            "ticks": 72384,
            "time": 32.314178,
            "velocity": 0.3937007874015748
          },
          {
            "duration": 0.042856999999997925,
            "durationTicks": 96,
            "midi": 60,
            "name": "C4",
            "ticks": 72384,
            "time": 32.314178,
            "velocity": 0.3937007874015748
          },
          {
            "duration": 0.042856999999997925,
            "durationTicks": 96,
            "midi": 57,
            "name": "A3",
            "ticks": 72384,
            "time": 32.314178,
            "velocity": 0.3937007874015748
          },
          {
            "duration": 0.042856999999997925,
            "durationTicks": 96,
            "midi": 65,
            "name": "F4",
            "ticks": 73920,
            "time": 32.99989,
            "velocity": 0.3937007874015748
          },
          {
            "duration": 0.042856999999997925,
            "durationTicks": 96,
            "midi": 59,
            "name": "B3",
            "ticks": 73920,
            "time": 32.99989,
            "velocity": 0.3937007874015748
          },
          {
            "duration": 0.042856999999997925,
            "durationTicks": 96,
            "midi": 53,
            "name": "F3",
            "ticks": 73920,
            "time": 32.99989,
            "velocity": 0.3937007874015748
          },
          {
            "duration": 0.042856999999997925,
            "durationTicks": 96,
            "midi": 62,
            "name": "D4",
            "ticks": 73920,
            "time": 32.99989,
            "velocity": 0.3937007874015748
          },
          {
            "duration": 0.042856999999997925,
            "durationTicks": 96,
            "midi": 51,
            "name": "D#3",
            "ticks": 75456,
            "time": 33.685602,
            "velocity": 0.3937007874015748
          },
          {
            "duration": 0.042856999999997925,
            "durationTicks": 96,
            "midi": 57,
            "name": "A3",
            "ticks": 75456,
            "time": 33.685602,
            "velocity": 0.3937007874015748
          },
          {
            "duration": 0.042856999999997925,
            "durationTicks": 96,
            "midi": 54,
            "name": "F#3",
            "ticks": 75456,
            "time": 33.685602,
            "velocity": 0.3937007874015748
          },
          {
            "duration": 0.042856999999997925,
            "durationTicks": 96,
            "midi": 60,
            "name": "C4",
            "ticks": 75456,
            "time": 33.685602,
            "velocity": 0.3937007874015748
          },
          {
            "duration": 0.042856999999997925,
            "durationTicks": 96,
            "midi": 64,
            "name": "E4",
            "ticks": 76224,
            "time": 34.028458,
            "velocity": 0.3937007874015748
          },
          {
            "duration": 0.042856999999997925,
            "durationTicks": 96,
            "midi": 56,
            "name": "G#3",
            "ticks": 76224,
            "time": 34.028458,
            "velocity": 0.3937007874015748
          },
          {
            "duration": 0.042856999999997925,
            "durationTicks": 96,
            "midi": 52,
            "name": "E3",
            "ticks": 76224,
            "time": 34.028458,
            "velocity": 0.3937007874015748
          },
          {
            "duration": 0.042856999999997925,
            "durationTicks": 96,
            "midi": 59,
            "name": "B3",
            "ticks": 76224,
            "time": 34.028458,
            "velocity": 0.3937007874015748
          },
          {
            "duration": 0.042856999999997925,
            "durationTicks": 96,
            "midi": 45,
            "name": "A2",
            "ticks": 78528,
            "time": 35.057026,
            "velocity": 0.3937007874015748
          },
          {
            "duration": 0.042856999999997925,
            "durationTicks": 96,
            "midi": 57,
            "name": "A3",
            "ticks": 78528,
            "time": 35.057026,
            "velocity": 0.3937007874015748
          },
          {
            "duration": 0.042856999999997925,
            "durationTicks": 96,
            "midi": 64,
            "name": "E4",
            "ticks": 79296,
            "time": 35.399882,
            "velocity": 0.3937007874015748
          },
          {
            "duration": 0.042856999999997925,
            "durationTicks": 96,
            "midi": 60,
            "name": "C4",
            "ticks": 79296,
            "time": 35.399882,
            "velocity": 0.3937007874015748
          },
          {
            "duration": 0.042856999999997925,
            "durationTicks": 96,
            "midi": 57,
            "name": "A3",
            "ticks": 79296,
            "time": 35.399882,
            "velocity": 0.3937007874015748
          },
          {
            "duration": 0.042856999999997925,
            "durationTicks": 96,
            "midi": 65,
            "name": "F4",
            "ticks": 80064,
            "time": 35.742738,
            "velocity": 0.3937007874015748
          },
          {
            "duration": 0.042856999999997925,
            "durationTicks": 96,
            "midi": 62,
            "name": "D4",
            "ticks": 80064,
            "time": 35.742738,
            "velocity": 0.3937007874015748
          },
          {
            "duration": 0.042856999999997925,
            "durationTicks": 96,
            "midi": 57,
            "name": "A3",
            "ticks": 80064,
            "time": 35.742738,
            "velocity": 0.3937007874015748
          },
          {
            "duration": 0.042856999999997925,
            "durationTicks": 96,
            "midi": 57,
            "name": "A3",
            "ticks": 80832,
            "time": 36.085594,
            "velocity": 0.3937007874015748
          },
          {
            "duration": 0.042856999999997925,
            "durationTicks": 96,
            "midi": 62,
            "name": "D4",
            "ticks": 80832,
            "time": 36.085594,
            "velocity": 0.3937007874015748
          },
          {
            "duration": 0.042856999999997925,
            "durationTicks": 96,
            "midi": 64,
            "name": "E4",
            "ticks": 81600,
            "time": 36.42845,
            "velocity": 0.3937007874015748
          },
          {
            "duration": 0.042856999999997925,
            "durationTicks": 96,
            "midi": 59,
            "name": "B3",
            "ticks": 81600,
            "time": 36.42845,
            "velocity": 0.3937007874015748
          },
          {
            "duration": 0.042856999999997925,
            "durationTicks": 96,
            "midi": 56,
            "name": "G#3",
            "ticks": 81600,
            "time": 36.42845,
            "velocity": 0.3937007874015748
          },
          {
            "duration": 0.042856999999997925,
            "durationTicks": 96,
            "midi": 45,
            "name": "A2",
            "ticks": 84672,
            "time": 37.799874,
            "velocity": 0.3937007874015748
          },
          {
            "duration": 0.042856999999997925,
            "durationTicks": 96,
            "midi": 57,
            "name": "A3",
            "ticks": 84672,
            "time": 37.799874,
            "velocity": 0.3937007874015748
          },
          {
            "duration": 0.042856999999997925,
            "durationTicks": 96,
            "midi": 61,
            "name": "C#4",
            "ticks": 85440,
            "time": 38.14273,
            "velocity": 0.3937007874015748
          },
          {
            "duration": 0.042856999999997925,
            "durationTicks": 96,
            "midi": 64,
            "name": "E4",
            "ticks": 85440,
            "time": 38.14273,
            "velocity": 0.3937007874015748
          },
          {
            "duration": 0.042856999999997925,
            "durationTicks": 96,
            "midi": 57,
            "name": "A3",
            "ticks": 85440,
            "time": 38.14273,
            "velocity": 0.3937007874015748
          },
          {
            "duration": 0.04285700000000503,
            "durationTicks": 96,
            "midi": 57,
            "name": "A3",
            "ticks": 86208,
            "time": 38.485586,
            "velocity": 0.3937007874015748
          },
          {
            "duration": 0.04285700000000503,
            "durationTicks": 96,
            "midi": 64,
            "name": "E4",
            "ticks": 86208,
            "time": 38.485586,
            "velocity": 0.3937007874015748
          },
          {
            "duration": 0.04285700000000503,
            "durationTicks": 96,
            "midi": 67,
            "name": "G4",
            "ticks": 86208,
            "time": 38.485586,
            "velocity": 0.3937007874015748
          },
          {
            "duration": 0.042856999999997925,
            "durationTicks": 96,
            "midi": 61,
            "name": "C#4",
            "ticks": 87360,
            "time": 38.99987,
            "velocity": 0.3937007874015748
          },
          {
            "duration": 0.042856999999997925,
            "durationTicks": 96,
            "midi": 64,
            "name": "E4",
            "ticks": 87360,
            "time": 38.99987,
            "velocity": 0.3937007874015748
          },
          {
            "duration": 0.042856999999997925,
            "durationTicks": 96,
            "midi": 57,
            "name": "A3",
            "ticks": 87360,
            "time": 38.99987,
            "velocity": 0.3937007874015748
          },
          {
            "duration": 0.042856999999997925,
            "durationTicks": 96,
            "midi": 65,
            "name": "F4",
            "ticks": 87744,
            "time": 39.171298,
            "velocity": 0.3937007874015748
          },
          {
            "duration": 0.042856999999997925,
            "durationTicks": 96,
            "midi": 57,
            "name": "A3",
            "ticks": 87744,
            "time": 39.171298,
            "velocity": 0.3937007874015748
          },
          {
            "duration": 0.042856999999997925,
            "durationTicks": 96,
            "midi": 62,
            "name": "D4",
            "ticks": 87744,
            "time": 39.171298,
            "velocity": 0.3937007874015748
          },
          {
            "duration": 0.04285700000000503,
            "durationTicks": 96,
            "midi": 53,
            "name": "F3",
            "ticks": 90816,
            "time": 40.542722,
            "velocity": 0.3937007874015748
          },
          {
            "duration": 0.04285700000000503,
            "durationTicks": 96,
            "midi": 65,
            "name": "F4",
            "ticks": 90816,
            "time": 40.542722,
            "velocity": 0.3937007874015748
          },
          {
            "duration": 0.042856999999997925,
            "durationTicks": 96,
            "midi": 65,
            "name": "F4",
            "ticks": 91584,
            "time": 40.885578,
            "velocity": 0.3937007874015748
          },
          {
            "duration": 0.042856999999997925,
            "durationTicks": 96,
            "midi": 69,
            "name": "A4",
            "ticks": 91584,
            "time": 40.885578,
            "velocity": 0.3937007874015748
          },
          {
            "duration": 0.042856999999997925,
            "durationTicks": 96,
            "midi": 60,
            "name": "C4",
            "ticks": 91584,
            "time": 40.885578,
            "velocity": 0.3937007874015748
          },
          {
            "duration": 0.042856999999997925,
            "durationTicks": 96,
            "midi": 59,
            "name": "B3",
            "ticks": 92352,
            "time": 41.228434,
            "velocity": 0.3937007874015748
          },
          {
            "duration": 0.042856999999997925,
            "durationTicks": 96,
            "midi": 64,
            "name": "E4",
            "ticks": 92352,
            "time": 41.228434,
            "velocity": 0.3937007874015748
          },
          {
            "duration": 0.042856999999997925,
            "durationTicks": 96,
            "midi": 68,
            "name": "G#4",
            "ticks": 92352,
            "time": 41.228434,
            "velocity": 0.3937007874015748
          },
          {
            "duration": 0.04285700000000503,
            "durationTicks": 96,
            "midi": 71,
            "name": "B4",
            "ticks": 93120,
            "time": 41.57129,
            "velocity": 0.3937007874015748
          },
          {
            "duration": 0.04285700000000503,
            "durationTicks": 96,
            "midi": 64,
            "name": "E4",
            "ticks": 93120,
            "time": 41.57129,
            "velocity": 0.3937007874015748
          },
          {
            "duration": 0.04285700000000503,
            "durationTicks": 96,
            "midi": 68,
            "name": "G#4",
            "ticks": 93120,
            "time": 41.57129,
            "velocity": 0.3937007874015748
          },
          {
            "duration": 0.042856999999997925,
            "durationTicks": 96,
            "midi": 64,
            "name": "E4",
            "ticks": 93888,
            "time": 41.914146,
            "velocity": 0.3937007874015748
          },
          {
            "duration": 0.042856999999997925,
            "durationTicks": 96,
            "midi": 60,
            "name": "C4",
            "ticks": 93888,
            "time": 41.914146,
            "velocity": 0.3937007874015748
          },
          {
            "duration": 0.042856999999997925,
            "durationTicks": 96,
            "midi": 69,
            "name": "A4",
            "ticks": 93888,
            "time": 41.914146,
            "velocity": 0.3937007874015748
          },
          {
            "duration": 0.042856999999997925,
            "durationTicks": 96,
            "midi": 57,
            "name": "A3",
            "ticks": 93888,
            "time": 41.914146,
            "velocity": 0.3937007874015748
          },
          {
            "duration": 0.042856999999997925,
            "durationTicks": 96,
            "midi": 67,
            "name": "G4",
            "ticks": 94656,
            "time": 42.257002,
            "velocity": 0.3937007874015748
          },
          {
            "duration": 0.042856999999997925,
            "durationTicks": 96,
            "midi": 55,
            "name": "G3",
            "ticks": 94656,
            "time": 42.257002,
            "velocity": 0.3937007874015748
          },
          {
            "duration": 0.042856999999997925,
            "durationTicks": 96,
            "midi": 59,
            "name": "B3",
            "ticks": 94656,
            "time": 42.257002,
            "velocity": 0.3937007874015748
          },
          {
            "duration": 0.042856999999997925,
            "durationTicks": 96,
            "midi": 62,
            "name": "D4",
            "ticks": 94656,
            "time": 42.257002,
            "velocity": 0.3937007874015748
          },
          {
            "duration": 0.04285700000000503,
            "durationTicks": 96,
            "midi": 57,
            "name": "A3",
            "ticks": 95424,
            "time": 42.599858,
            "velocity": 0.3937007874015748
          },
          {
            "duration": 0.04285700000000503,
            "durationTicks": 96,
            "midi": 60,
            "name": "C4",
            "ticks": 95424,
            "time": 42.599858,
            "velocity": 0.3937007874015748
          },
          {
            "duration": 0.04285700000000503,
            "durationTicks": 96,
            "midi": 66,
            "name": "F#4",
            "ticks": 95424,
            "time": 42.599858,
            "velocity": 0.3937007874015748
          },
          {
            "duration": 0.04285700000000503,
            "durationTicks": 96,
            "midi": 54,
            "name": "F#3",
            "ticks": 95424,
            "time": 42.599858,
            "velocity": 0.3937007874015748
          },
          {
            "duration": 0.042856999999997925,
            "durationTicks": 96,
            "midi": 62,
            "name": "D4",
            "ticks": 96192,
            "time": 42.942714,
            "velocity": 0.3937007874015748
          },
          {
            "duration": 0.042856999999997925,
            "durationTicks": 96,
            "midi": 51,
            "name": "D#3",
            "ticks": 96960,
            "time": 43.28557,
            "velocity": 0.3937007874015748
          },
          {
            "duration": 0.042856999999997925,
            "durationTicks": 96,
            "midi": 60,
            "name": "C4",
            "ticks": 96960,
            "time": 43.28557,
            "velocity": 0.3937007874015748
          },
          {
            "duration": 0.042856999999997925,
            "durationTicks": 96,
            "midi": 57,
            "name": "A3",
            "ticks": 96960,
            "time": 43.28557,
            "velocity": 0.3937007874015748
          },
          {
            "duration": 0.042856999999997925,
            "durationTicks": 96,
            "midi": 54,
            "name": "F#3",
            "ticks": 96960,
            "time": 43.28557,
            "velocity": 0.3937007874015748
          },
          {
            "duration": 0.042856999999997925,
            "durationTicks": 96,
            "midi": 52,
            "name": "E3",
            "ticks": 98496,
            "time": 43.971282,
            "velocity": 0.3937007874015748
          },
          {
            "duration": 0.042856999999997925,
            "durationTicks": 96,
            "midi": 59,
            "name": "B3",
            "ticks": 98496,
            "time": 43.971282,
            "velocity": 0.3937007874015748
          },
          {
            "duration": 0.042856999999997925,
            "durationTicks": 96,
            "midi": 64,
            "name": "E4",
            "ticks": 98496,
            "time": 43.971282,
            "velocity": 0.3937007874015748
          },
          {
            "duration": 0.042856999999997925,
            "durationTicks": 96,
            "midi": 56,
            "name": "G#3",
            "ticks": 98496,
            "time": 43.971282,
            "velocity": 0.3937007874015748
          },
          {
            "duration": 0.042856999999997925,
            "durationTicks": 96,
            "midi": 40,
            "name": "E2",
            "ticks": 100800,
            "time": 44.99985,
            "velocity": 0.3937007874015748
          },
          {
            "duration": 0.042856999999997925,
            "durationTicks": 96,
            "midi": 52,
            "name": "E3",
            "ticks": 100800,
            "time": 44.99985,
            "velocity": 0.3937007874015748
          },
          {
            "duration": 0.042856999999997925,
            "durationTicks": 96,
            "midi": 45,
            "name": "A2",
            "ticks": 101568,
            "time": 45.342706,
            "velocity": 0.3937007874015748
          },
          {
            "duration": 0.042856999999997925,
            "durationTicks": 96,
            "midi": 57,
            "name": "A3",
            "ticks": 101568,
            "time": 45.342706,
            "velocity": 0.3937007874015748
          }
        ],
        "endOfTrackTicks": 101664
      },
      {
        "channel": 1,
        "controlChanges": {},
        "pitchBends": [],
        "instrument": {
          "family": "guitar",
          "number": 24,
          "name": "acoustic guitar (nylon)"
        },
        "name": "Acoustic Guitar",
        "notes": [
          {
            "duration": 0.042856999999997925,
            "durationTicks": 96,
            "midi": 32,
            "name": "G#1",
            "ticks": 57792,
            "time": 25.799914,
            "velocity": 0.3937007874015748
          },
          {
            "duration": 0.042856999999997925,
            "durationTicks": 96,
            "midi": 44,
            "name": "G#2",
            "ticks": 57792,
            "time": 25.799914,
            "velocity": 0.3937007874015748
          },
          {
            "duration": 0.042856999999997925,
            "durationTicks": 96,
            "midi": 32,
            "name": "G#1",
            "ticks": 57792,
            "time": 25.799914,
            "velocity": 0.3937007874015748
          },
          {
            "duration": 0.042856999999997925,
            "durationTicks": 96,
            "midi": 44,
            "name": "G#2",
            "ticks": 57792,
            "time": 25.799914,
            "velocity": 0.3937007874015748
          },
          {
            "duration": 0.04285700000000148,
            "durationTicks": 96,
            "midi": 33,
            "name": "A1",
            "ticks": 58560,
            "time": 26.14277,
            "velocity": 0.3937007874015748
          },
          {
            "duration": 0.04285700000000148,
            "durationTicks": 96,
            "midi": 45,
            "name": "A2",
            "ticks": 58560,
            "time": 26.14277,
            "velocity": 0.3937007874015748
          },
          {
            "duration": 0.04285700000000148,
            "durationTicks": 96,
            "midi": 33,
            "name": "A1",
            "ticks": 58560,
            "time": 26.14277,
            "velocity": 0.3937007874015748
          },
          {
            "duration": 0.04285700000000148,
            "durationTicks": 96,
            "midi": 45,
            "name": "A2",
            "ticks": 58560,
            "time": 26.14277,
            "velocity": 0.3937007874015748
          },
          {
            "duration": 0.042856999999997925,
            "durationTicks": 96,
            "midi": 35,
            "name": "B1",
            "ticks": 59328,
            "time": 26.485626,
            "velocity": 0.3937007874015748
          },
          {
            "duration": 0.042856999999997925,
            "durationTicks": 96,
            "midi": 47,
            "name": "B2",
            "ticks": 59328,
            "time": 26.485626,
            "velocity": 0.3937007874015748
          },
          {
            "duration": 0.042856999999997925,
            "durationTicks": 96,
            "midi": 47,
            "name": "B2",
            "ticks": 59328,
            "time": 26.485626,
            "velocity": 0.3937007874015748
          },
          {
            "duration": 0.042856999999997925,
            "durationTicks": 96,
            "midi": 35,
            "name": "B1",
            "ticks": 59328,
            "time": 26.485626,
            "velocity": 0.3937007874015748
          },
          {
            "duration": 0.04285700000000148,
            "durationTicks": 96,
            "midi": 37,
            "name": "C#2",
            "ticks": 63936,
            "time": 28.542762,
            "velocity": 0.3937007874015748
          },
          {
            "duration": 0.04285700000000148,
            "durationTicks": 96,
            "midi": 49,
            "name": "C#3",
            "ticks": 63936,
            "time": 28.542762,
            "velocity": 0.3937007874015748
          },
          {
            "duration": 0.04285700000000148,
            "durationTicks": 96,
            "midi": 37,
            "name": "C#2",
            "ticks": 63936,
            "time": 28.542762,
            "velocity": 0.3937007874015748
          },
          {
            "duration": 0.04285700000000148,
            "durationTicks": 96,
            "midi": 49,
            "name": "C#3",
            "ticks": 63936,
            "time": 28.542762,
            "velocity": 0.3937007874015748
          },
          {
            "duration": 0.042856999999997925,
            "durationTicks": 96,
            "midi": 50,
            "name": "D3",
            "ticks": 64704,
            "time": 28.885618,
            "velocity": 0.3937007874015748
          },
          {
            "duration": 0.042856999999997925,
            "durationTicks": 96,
            "midi": 38,
            "name": "D2",
            "ticks": 64704,
            "time": 28.885618,
            "velocity": 0.3937007874015748
          },
          {
            "duration": 0.042856999999997925,
            "durationTicks": 96,
            "midi": 38,
            "name": "D2",
            "ticks": 64704,
            "time": 28.885618,
            "velocity": 0.3937007874015748
          },
          {
            "duration": 0.042856999999997925,
            "durationTicks": 96,
            "midi": 50,
            "name": "D3",
            "ticks": 64704,
            "time": 28.885618,
            "velocity": 0.3937007874015748
          },
          {
            "duration": 0.04285700000000148,
            "durationTicks": 96,
            "midi": 40,
            "name": "E2",
            "ticks": 65472,
            "time": 29.228474,
            "velocity": 0.3937007874015748
          },
          {
            "duration": 0.04285700000000148,
            "durationTicks": 96,
            "midi": 52,
            "name": "E3",
            "ticks": 65472,
            "time": 29.228474,
            "velocity": 0.3937007874015748
          },
          {
            "duration": 0.04285700000000148,
            "durationTicks": 96,
            "midi": 40,
            "name": "E2",
            "ticks": 65472,
            "time": 29.228474,
            "velocity": 0.3937007874015748
          },
          {
            "duration": 0.04285700000000148,
            "durationTicks": 96,
            "midi": 52,
            "name": "E3",
            "ticks": 65472,
            "time": 29.228474,
            "velocity": 0.3937007874015748
          },
          {
            "duration": 0.042856999999997925,
            "durationTicks": 96,
            "midi": 32,
            "name": "G#1",
            "ticks": 82368,
            "time": 36.771306,
            "velocity": 0.3937007874015748
          },
          {
            "duration": 0.042856999999997925,
            "durationTicks": 96,
            "midi": 44,
            "name": "G#2",
            "ticks": 82368,
            "time": 36.771306,
            "velocity": 0.3937007874015748
          },
          {
            "duration": 0.042856999999997925,
            "durationTicks": 96,
            "midi": 32,
            "name": "G#1",
            "ticks": 82368,
            "time": 36.771306,
            "velocity": 0.3937007874015748
          },
          {
            "duration": 0.042856999999997925,
            "durationTicks": 96,
            "midi": 44,
            "name": "G#2",
            "ticks": 82368,
            "time": 36.771306,
            "velocity": 0.3937007874015748
          },
          {
            "duration": 0.042856999999997925,
            "durationTicks": 96,
            "midi": 45,
            "name": "A2",
            "ticks": 83136,
            "time": 37.114162,
            "velocity": 0.3937007874015748
          },
          {
            "duration": 0.042856999999997925,
            "durationTicks": 96,
            "midi": 33,
            "name": "A1",
            "ticks": 83136,
            "time": 37.114162,
            "velocity": 0.3937007874015748
          },
          {
            "duration": 0.042856999999997925,
            "durationTicks": 96,
            "midi": 45,
            "name": "A2",
            "ticks": 83136,
            "time": 37.114162,
            "velocity": 0.3937007874015748
          },
          {
            "duration": 0.042856999999997925,
            "durationTicks": 96,
            "midi": 33,
            "name": "A1",
            "ticks": 83136,
            "time": 37.114162,
            "velocity": 0.3937007874015748
          },
          {
            "duration": 0.042856999999997925,
            "durationTicks": 96,
            "midi": 47,
            "name": "B2",
            "ticks": 83904,
            "time": 37.457018,
            "velocity": 0.3937007874015748
          },
          {
            "duration": 0.042856999999997925,
            "durationTicks": 96,
            "midi": 47,
            "name": "B2",
            "ticks": 83904,
            "time": 37.457018,
            "velocity": 0.3937007874015748
          },
          {
            "duration": 0.042856999999997925,
            "durationTicks": 96,
            "midi": 35,
            "name": "B1",
            "ticks": 83904,
            "time": 37.457018,
            "velocity": 0.3937007874015748
          },
          {
            "duration": 0.042856999999997925,
            "durationTicks": 96,
            "midi": 35,
            "name": "B1",
            "ticks": 83904,
            "time": 37.457018,
            "velocity": 0.3937007874015748
          },
          {
            "duration": 0.04285700000000503,
            "durationTicks": 96,
            "midi": 37,
            "name": "C#2",
            "ticks": 88512,
            "time": 39.514154,
            "velocity": 0.3937007874015748
          },
          {
            "duration": 0.04285700000000503,
            "durationTicks": 96,
            "midi": 49,
            "name": "C#3",
            "ticks": 88512,
            "time": 39.514154,
            "velocity": 0.3937007874015748
          },
          {
            "duration": 0.04285700000000503,
            "durationTicks": 96,
            "midi": 37,
            "name": "C#2",
            "ticks": 88512,
            "time": 39.514154,
            "velocity": 0.3937007874015748
          },
          {
            "duration": 0.04285700000000503,
            "durationTicks": 96,
            "midi": 49,
            "name": "C#3",
            "ticks": 88512,
            "time": 39.514154,
            "velocity": 0.3937007874015748
          },
          {
            "duration": 0.042856999999997925,
            "durationTicks": 96,
            "midi": 38,
            "name": "D2",
            "ticks": 89280,
            "time": 39.85701,
            "velocity": 0.3937007874015748
          },
          {
            "duration": 0.042856999999997925,
            "durationTicks": 96,
            "midi": 50,
            "name": "D3",
            "ticks": 89280,
            "time": 39.85701,
            "velocity": 0.3937007874015748
          },
          {
            "duration": 0.042856999999997925,
            "durationTicks": 96,
            "midi": 38,
            "name": "D2",
            "ticks": 89280,
            "time": 39.85701,
            "velocity": 0.3937007874015748
          },
          {
            "duration": 0.042856999999997925,
            "durationTicks": 96,
            "midi": 50,
            "name": "D3",
            "ticks": 89280,
            "time": 39.85701,
            "velocity": 0.3937007874015748
          },
          {
            "duration": 0.042856999999997925,
            "durationTicks": 96,
            "midi": 52,
            "name": "E3",
            "ticks": 90048,
            "time": 40.199866,
            "velocity": 0.3937007874015748
          },
          {
            "duration": 0.042856999999997925,
            "durationTicks": 96,
            "midi": 40,
            "name": "E2",
            "ticks": 90048,
            "time": 40.199866,
            "velocity": 0.3937007874015748
          },
          {
            "duration": 0.042856999999997925,
            "durationTicks": 96,
            "midi": 52,
            "name": "E3",
            "ticks": 90048,
            "time": 40.199866,
            "velocity": 0.3937007874015748
          },
          {
            "duration": 0.042856999999997925,
            "durationTicks": 96,
            "midi": 40,
            "name": "E2",
            "ticks": 90048,
            "time": 40.199866,
            "velocity": 0.3937007874015748
          },
          {
            "duration": 0.042856999999997925,
            "durationTicks": 96,
            "midi": 24,
            "name": "C1",
            "ticks": 103104,
            "time": 46.028418,
            "velocity": 0.3937007874015748
          },
          {
            "duration": 0.042856999999997925,
            "durationTicks": 96,
            "midi": 57,
            "name": "A3",
            "ticks": 103104,
            "time": 46.028418,
            "velocity": 0.3937007874015748
          },
          {
            "duration": 0.042856999999997925,
            "durationTicks": 96,
            "midi": 26,
            "name": "D1",
            "ticks": 103104,
            "time": 46.028418,
            "velocity": 0.3937007874015748
          },
          {
            "duration": 0.042856999999997925,
            "durationTicks": 96,
            "midi": 26,
            "name": "D1",
            "ticks": 103104,
            "time": 46.028418,
            "velocity": 0.3937007874015748
          },
          {
            "duration": 0.042856999999997925,
            "durationTicks": 96,
            "midi": 60,
            "name": "C4",
            "ticks": 103104,
            "time": 46.028418,
            "velocity": 0.3937007874015748
          },
          {
            "duration": 0.042856999999997925,
            "durationTicks": 96,
            "midi": 33,
            "name": "A1",
            "ticks": 103104,
            "time": 46.028418,
            "velocity": 0.3937007874015748
          },
          {
            "duration": 0.042856999999997925,
            "durationTicks": 96,
            "midi": 28,
            "name": "E1",
            "ticks": 103104,
            "time": 46.028418,
            "velocity": 0.3937007874015748
          },
          {
            "duration": 0.042856999999997925,
            "durationTicks": 96,
            "midi": 28,
            "name": "E1",
            "ticks": 103104,
            "time": 46.028418,
            "velocity": 0.3937007874015748
          },
          {
            "duration": 0.042856999999997925,
            "durationTicks": 96,
            "midi": 52,
            "name": "E3",
            "ticks": 103104,
            "time": 46.028418,
            "velocity": 0.3937007874015748
          },
          {
            "duration": 0.042856999999997925,
            "durationTicks": 96,
            "midi": 24,
            "name": "C1",
            "ticks": 103104,
            "time": 46.028418,
            "velocity": 0.3937007874015748
          },
          {
            "duration": 0.042856999999997925,
            "durationTicks": 96,
            "midi": 60,
            "name": "C4",
            "ticks": 103104,
            "time": 46.028418,
            "velocity": 0.3937007874015748
          },
          {
            "duration": 0.042856999999997925,
            "durationTicks": 96,
            "midi": 33,
            "name": "A1",
            "ticks": 103104,
            "time": 46.028418,
            "velocity": 0.3937007874015748
          },
          {
            "duration": 0.042856999999997925,
            "durationTicks": 96,
            "midi": 57,
            "name": "A3",
            "ticks": 103104,
            "time": 46.028418,
            "velocity": 0.3937007874015748
          },
          {
            "duration": 0.042856999999997925,
            "durationTicks": 96,
            "midi": 52,
            "name": "E3",
            "ticks": 103104,
            "time": 46.028418,
            "velocity": 0.3937007874015748
          },
          {
            "duration": 0.042856999999997925,
            "durationTicks": 96,
            "midi": 24,
            "name": "C1",
            "ticks": 103872,
            "time": 46.371274,
            "velocity": 0.3937007874015748
          },
          {
            "duration": 0.042856999999997925,
            "durationTicks": 96,
            "midi": 45,
            "name": "A2",
            "ticks": 103872,
            "time": 46.371274,
            "velocity": 0.3937007874015748
          },
          {
            "duration": 0.042856999999997925,
            "durationTicks": 96,
            "midi": 45,
            "name": "A2",
            "ticks": 103872,
            "time": 46.371274,
            "velocity": 0.3937007874015748
          },
          {
            "duration": 0.042856999999997925,
            "durationTicks": 96,
            "midi": 24,
            "name": "C1",
            "ticks": 103872,
            "time": 46.371274,
            "velocity": 0.3937007874015748
          },
          {
            "duration": 0.042856999999997925,
            "durationTicks": 96,
            "midi": 33,
            "name": "A1",
            "ticks": 104256,
            "time": 46.542702,
            "velocity": 0.3937007874015748
          },
          {
            "duration": 0.042856999999997925,
            "durationTicks": 96,
            "midi": 33,
            "name": "A1",
            "ticks": 104256,
            "time": 46.542702,
            "velocity": 0.3937007874015748
          },
          {
            "duration": 0.04285700000000503,
            "durationTicks": 96,
            "midi": 33,
            "name": "A1",
            "ticks": 104640,
            "time": 46.71413,
            "velocity": 0.3937007874015748
          },
          {
            "duration": 0.04285700000000503,
            "durationTicks": 96,
            "midi": 33,
            "name": "A1",
            "ticks": 104640,
            "time": 46.71413,
            "velocity": 0.3937007874015748
          },
          {
            "duration": 0.04285700000000503,
            "durationTicks": 96,
            "midi": 57,
            "name": "A3",
            "ticks": 104640,
            "time": 46.71413,
            "velocity": 0.3937007874015748
          },
          {
            "duration": 0.04285700000000503,
            "durationTicks": 96,
            "midi": 57,
            "name": "A3",
            "ticks": 104640,
            "time": 46.71413,
            "velocity": 0.3937007874015748
          },
          {
            "duration": 0.04285700000000503,
            "durationTicks": 96,
            "midi": 57,
            "name": "A3",
            "ticks": 105024,
            "time": 46.885557999999996,
            "velocity": 0.3937007874015748
          },
          {
            "duration": 0.04285700000000503,
            "durationTicks": 96,
            "midi": 33,
            "name": "A1",
            "ticks": 105024,
            "time": 46.885557999999996,
            "velocity": 0.3937007874015748
          },
          {
            "duration": 0.04285700000000503,
            "durationTicks": 96,
            "midi": 33,
            "name": "A1",
            "ticks": 105024,
            "time": 46.885557999999996,
            "velocity": 0.3937007874015748
          },
          {
            "duration": 0.04285700000000503,
            "durationTicks": 96,
            "midi": 57,
            "name": "A3",
            "ticks": 105024,
            "time": 46.885557999999996,
            "velocity": 0.3937007874015748
          },
          {
            "duration": 0.042856999999997925,
            "durationTicks": 96,
            "midi": 24,
            "name": "C1",
            "ticks": 105408,
            "time": 47.056986,
            "velocity": 0.3937007874015748
          },
          {
            "duration": 0.042856999999997925,
            "durationTicks": 96,
            "midi": 60,
            "name": "C4",
            "ticks": 105408,
            "time": 47.056986,
            "velocity": 0.3937007874015748
          },
          {
            "duration": 0.042856999999997925,
            "durationTicks": 96,
            "midi": 52,
            "name": "E3",
            "ticks": 105408,
            "time": 47.056986,
            "velocity": 0.3937007874015748
          },
          {
            "duration": 0.042856999999997925,
            "durationTicks": 96,
            "midi": 52,
            "name": "E3",
            "ticks": 105408,
            "time": 47.056986,
            "velocity": 0.3937007874015748
          },
          {
            "duration": 0.042856999999997925,
            "durationTicks": 96,
            "midi": 57,
            "name": "A3",
            "ticks": 105408,
            "time": 47.056986,
            "velocity": 0.3937007874015748
          },
          {
            "duration": 0.042856999999997925,
            "durationTicks": 96,
            "midi": 60,
            "name": "C4",
            "ticks": 105408,
            "time": 47.056986,
            "velocity": 0.3937007874015748
          },
          {
            "duration": 0.042856999999997925,
            "durationTicks": 96,
            "midi": 57,
            "name": "A3",
            "ticks": 105408,
            "time": 47.056986,
            "velocity": 0.3937007874015748
          },
          {
            "duration": 0.042856999999997925,
            "durationTicks": 96,
            "midi": 24,
            "name": "C1",
            "ticks": 105408,
            "time": 47.056986,
            "velocity": 0.3937007874015748
          },
          {
            "duration": 0.042856999999997925,
            "durationTicks": 96,
            "midi": 33,
            "name": "A1",
            "ticks": 105792,
            "time": 47.228414,
            "velocity": 0.3937007874015748
          },
          {
            "duration": 0.042856999999997925,
            "durationTicks": 96,
            "midi": 33,
            "name": "A1",
            "ticks": 105792,
            "time": 47.228414,
            "velocity": 0.3937007874015748
          },
          {
            "duration": 0.042856999999997925,
            "durationTicks": 96,
            "midi": 62,
            "name": "D4",
            "ticks": 106176,
            "time": 47.399842,
            "velocity": 0.3937007874015748
          },
          {
            "duration": 0.042856999999997925,
            "durationTicks": 96,
            "midi": 59,
            "name": "B3",
            "ticks": 106176,
            "time": 47.399842,
            "velocity": 0.3937007874015748
          },
          {
            "duration": 0.042856999999997925,
            "durationTicks": 96,
            "midi": 53,
            "name": "F3",
            "ticks": 106176,
            "time": 47.399842,
            "velocity": 0.3937007874015748
          },
          {
            "duration": 0.042856999999997925,
            "durationTicks": 96,
            "midi": 24,
            "name": "C1",
            "ticks": 106176,
            "time": 47.399842,
            "velocity": 0.3937007874015748
          },
          {
            "duration": 0.042856999999997925,
            "durationTicks": 96,
            "midi": 59,
            "name": "B3",
            "ticks": 106176,
            "time": 47.399842,
            "velocity": 0.3937007874015748
          },
          {
            "duration": 0.042856999999997925,
            "durationTicks": 96,
            "midi": 53,
            "name": "F3",
            "ticks": 106176,
            "time": 47.399842,
            "velocity": 0.3937007874015748
          },
          {
            "duration": 0.042856999999997925,
            "durationTicks": 96,
            "midi": 56,
            "name": "G#3",
            "ticks": 106176,
            "time": 47.399842,
            "velocity": 0.3937007874015748
          },
          {
            "duration": 0.042856999999997925,
            "durationTicks": 96,
            "midi": 62,
            "name": "D4",
            "ticks": 106176,
            "time": 47.399842,
            "velocity": 0.3937007874015748
          },
          {
            "duration": 0.042856999999997925,
            "durationTicks": 96,
            "midi": 24,
            "name": "C1",
            "ticks": 106176,
            "time": 47.399842,
            "velocity": 0.3937007874015748
          },
          {
            "duration": 0.042856999999997925,
            "durationTicks": 96,
            "midi": 56,
            "name": "G#3",
            "ticks": 106176,
            "time": 47.399842,
            "velocity": 0.3937007874015748
          },
          {
            "duration": 0.04285700000000503,
            "durationTicks": 96,
            "midi": 24,
            "name": "C1",
            "ticks": 106944,
            "time": 47.742698,
            "velocity": 0.3937007874015748
          },
          {
            "duration": 0.04285700000000503,
            "durationTicks": 96,
            "midi": 24,
            "name": "C1",
            "ticks": 106944,
            "time": 47.742698,
            "velocity": 0.3937007874015748
          },
          {
            "duration": 0.04285700000000503,
            "durationTicks": 96,
            "midi": 33,
            "name": "A1",
            "ticks": 107328,
            "time": 47.914125999999996,
            "velocity": 0.3937007874015748
          },
          {
            "duration": 0.04285700000000503,
            "durationTicks": 96,
            "midi": 33,
            "name": "A1",
            "ticks": 107328,
            "time": 47.914125999999996,
            "velocity": 0.3937007874015748
          },
          {
            "duration": 0.042856999999997925,
            "durationTicks": 96,
            "midi": 24,
            "name": "C1",
            "ticks": 108096,
            "time": 48.256982,
            "velocity": 0.3937007874015748
          },
          {
            "duration": 0.042856999999997925,
            "durationTicks": 96,
            "midi": 24,
            "name": "C1",
            "ticks": 108096,
            "time": 48.256982,
            "velocity": 0.3937007874015748
          },
          {
            "duration": 0.042856999999997925,
            "durationTicks": 96,
            "midi": 33,
            "name": "A1",
            "ticks": 108480,
            "time": 48.42841,
            "velocity": 0.3937007874015748
          },
          {
            "duration": 0.042856999999997925,
            "durationTicks": 96,
            "midi": 33,
            "name": "A1",
            "ticks": 108480,
            "time": 48.42841,
            "velocity": 0.3937007874015748
          },
          {
            "duration": 0.042856999999997925,
            "durationTicks": 96,
            "midi": 24,
            "name": "C1",
            "ticks": 108864,
            "time": 48.599838,
            "velocity": 0.3937007874015748
          },
          {
            "duration": 0.042856999999997925,
            "durationTicks": 96,
            "midi": 24,
            "name": "C1",
            "ticks": 108864,
            "time": 48.599838,
            "velocity": 0.3937007874015748
          },
          {
            "duration": 0.04285700000000503,
            "durationTicks": 96,
            "midi": 24,
            "name": "C1",
            "ticks": 109248,
            "time": 48.771266,
            "velocity": 0.3937007874015748
          },
          {
            "duration": 0.04285700000000503,
            "durationTicks": 96,
            "midi": 50,
            "name": "D3",
            "ticks": 109248,
            "time": 48.771266,
            "velocity": 0.3937007874015748
          },
          {
            "duration": 0.04285700000000503,
            "durationTicks": 96,
            "midi": 53,
            "name": "F3",
            "ticks": 109248,
            "time": 48.771266,
            "velocity": 0.3937007874015748
          },
          {
            "duration": 0.04285700000000503,
            "durationTicks": 96,
            "midi": 24,
            "name": "C1",
            "ticks": 109248,
            "time": 48.771266,
            "velocity": 0.3937007874015748
          },
          {
            "duration": 0.04285700000000503,
            "durationTicks": 96,
            "midi": 56,
            "name": "G#3",
            "ticks": 109248,
            "time": 48.771266,
            "velocity": 0.3937007874015748
          },
          {
            "duration": 0.04285700000000503,
            "durationTicks": 96,
            "midi": 59,
            "name": "B3",
            "ticks": 109248,
            "time": 48.771266,
            "velocity": 0.3937007874015748
          },
          {
            "duration": 0.04285700000000503,
            "durationTicks": 96,
            "midi": 59,
            "name": "B3",
            "ticks": 109248,
            "time": 48.771266,
            "velocity": 0.3937007874015748
          },
          {
            "duration": 0.04285700000000503,
            "durationTicks": 96,
            "midi": 53,
            "name": "F3",
            "ticks": 109248,
            "time": 48.771266,
            "velocity": 0.3937007874015748
          },
          {
            "duration": 0.04285700000000503,
            "durationTicks": 96,
            "midi": 56,
            "name": "G#3",
            "ticks": 109248,
            "time": 48.771266,
            "velocity": 0.3937007874015748
          },
          {
            "duration": 0.04285700000000503,
            "durationTicks": 96,
            "midi": 50,
            "name": "D3",
            "ticks": 109248,
            "time": 48.771266,
            "velocity": 0.3937007874015748
          },
          {
            "duration": 0.042856999999997925,
            "durationTicks": 96,
            "midi": 24,
            "name": "C1",
            "ticks": 110016,
            "time": 49.114122,
            "velocity": 0.3937007874015748
          },
          {
            "duration": 0.042856999999997925,
            "durationTicks": 96,
            "midi": 33,
            "name": "A1",
            "ticks": 110016,
            "time": 49.114122,
            "velocity": 0.3937007874015748
          },
          {
            "duration": 0.042856999999997925,
            "durationTicks": 96,
            "midi": 33,
            "name": "A1",
            "ticks": 110016,
            "time": 49.114122,
            "velocity": 0.3937007874015748
          },
          {
            "duration": 0.042856999999997925,
            "durationTicks": 96,
            "midi": 24,
            "name": "C1",
            "ticks": 110016,
            "time": 49.114122,
            "velocity": 0.3937007874015748
          },
          {
            "duration": 0.042856999999997925,
            "durationTicks": 96,
            "midi": 45,
            "name": "A2",
            "ticks": 110016,
            "time": 49.114122,
            "velocity": 0.3937007874015748
          },
          {
            "duration": 0.042856999999997925,
            "durationTicks": 96,
            "midi": 45,
            "name": "A2",
            "ticks": 110016,
            "time": 49.114122,
            "velocity": 0.3937007874015748
          },
          {
            "duration": 0.042856999999997925,
            "durationTicks": 96,
            "midi": 24,
            "name": "C1",
            "ticks": 110400,
            "time": 49.28555,
            "velocity": 0.3937007874015748
          },
          {
            "duration": 0.042856999999997925,
            "durationTicks": 96,
            "midi": 33,
            "name": "A1",
            "ticks": 110400,
            "time": 49.28555,
            "velocity": 0.3937007874015748
          },
          {
            "duration": 0.042856999999997925,
            "durationTicks": 96,
            "midi": 45,
            "name": "A2",
            "ticks": 110400,
            "time": 49.28555,
            "velocity": 0.3937007874015748
          },
          {
            "duration": 0.042856999999997925,
            "durationTicks": 96,
            "midi": 33,
            "name": "A1",
            "ticks": 110400,
            "time": 49.28555,
            "velocity": 0.3937007874015748
          },
          {
            "duration": 0.042856999999997925,
            "durationTicks": 96,
            "midi": 24,
            "name": "C1",
            "ticks": 110400,
            "time": 49.28555,
            "velocity": 0.3937007874015748
          },
          {
            "duration": 0.042856999999997925,
            "durationTicks": 96,
            "midi": 45,
            "name": "A2",
            "ticks": 110400,
            "time": 49.28555,
            "velocity": 0.3937007874015748
          },
          {
            "duration": 0.042856999999997925,
            "durationTicks": 96,
            "midi": 45,
            "name": "A2",
            "ticks": 110784,
            "time": 49.456978,
            "velocity": 0.3937007874015748
          },
          {
            "duration": 0.042856999999997925,
            "durationTicks": 96,
            "midi": 33,
            "name": "A1",
            "ticks": 110784,
            "time": 49.456978,
            "velocity": 0.3937007874015748
          },
          {
            "duration": 0.042856999999997925,
            "durationTicks": 96,
            "midi": 24,
            "name": "C1",
            "ticks": 110784,
            "time": 49.456978,
            "velocity": 0.3937007874015748
          },
          {
            "duration": 0.042856999999997925,
            "durationTicks": 96,
            "midi": 24,
            "name": "C1",
            "ticks": 110784,
            "time": 49.456978,
            "velocity": 0.3937007874015748
          },
          {
            "duration": 0.042856999999997925,
            "durationTicks": 96,
            "midi": 33,
            "name": "A1",
            "ticks": 110784,
            "time": 49.456978,
            "velocity": 0.3937007874015748
          },
          {
            "duration": 0.042856999999997925,
            "durationTicks": 96,
            "midi": 45,
            "name": "A2",
            "ticks": 110784,
            "time": 49.456978,
            "velocity": 0.3937007874015748
          },
          {
            "duration": 0.042856999999997925,
            "durationTicks": 96,
            "midi": 45,
            "name": "A2",
            "ticks": 111168,
            "time": 49.628406,
            "velocity": 0.3937007874015748
          },
          {
            "duration": 0.042856999999997925,
            "durationTicks": 96,
            "midi": 24,
            "name": "C1",
            "ticks": 111168,
            "time": 49.628406,
            "velocity": 0.3937007874015748
          },
          {
            "duration": 0.042856999999997925,
            "durationTicks": 96,
            "midi": 45,
            "name": "A2",
            "ticks": 111168,
            "time": 49.628406,
            "velocity": 0.3937007874015748
          },
          {
            "duration": 0.042856999999997925,
            "durationTicks": 96,
            "midi": 24,
            "name": "C1",
            "ticks": 111168,
            "time": 49.628406,
            "velocity": 0.3937007874015748
          },
          {
            "duration": 0.042856999999997925,
            "durationTicks": 96,
            "midi": 33,
            "name": "A1",
            "ticks": 111168,
            "time": 49.628406,
            "velocity": 0.3937007874015748
          },
          {
            "duration": 0.042856999999997925,
            "durationTicks": 96,
            "midi": 33,
            "name": "A1",
            "ticks": 111168,
            "time": 49.628406,
            "velocity": 0.3937007874015748
          },
          {
            "duration": 0.04285700000000503,
            "durationTicks": 96,
            "midi": 24,
            "name": "C1",
            "ticks": 111552,
            "time": 49.799834,
            "velocity": 0.3937007874015748
          },
          {
            "duration": 0.04285700000000503,
            "durationTicks": 96,
            "midi": 33,
            "name": "A1",
            "ticks": 111552,
            "time": 49.799834,
            "velocity": 0.3937007874015748
          },
          {
            "duration": 0.04285700000000503,
            "durationTicks": 96,
            "midi": 45,
            "name": "A2",
            "ticks": 111552,
            "time": 49.799834,
            "velocity": 0.3937007874015748
          },
          {
            "duration": 0.04285700000000503,
            "durationTicks": 96,
            "midi": 24,
            "name": "C1",
            "ticks": 111552,
            "time": 49.799834,
            "velocity": 0.3937007874015748
          },
          {
            "duration": 0.04285700000000503,
            "durationTicks": 96,
            "midi": 33,
            "name": "A1",
            "ticks": 111552,
            "time": 49.799834,
            "velocity": 0.3937007874015748
          },
          {
            "duration": 0.04285700000000503,
            "durationTicks": 96,
            "midi": 45,
            "name": "A2",
            "ticks": 111552,
            "time": 49.799834,
            "velocity": 0.3937007874015748
          },
          {
            "duration": 0.04285700000000503,
            "durationTicks": 96,
            "midi": 33,
            "name": "A1",
            "ticks": 111936,
            "time": 49.971261999999996,
            "velocity": 0.3937007874015748
          },
          {
            "duration": 0.04285700000000503,
            "durationTicks": 96,
            "midi": 24,
            "name": "C1",
            "ticks": 111936,
            "time": 49.971261999999996,
            "velocity": 0.3937007874015748
          },
          {
            "duration": 0.04285700000000503,
            "durationTicks": 96,
            "midi": 45,
            "name": "A2",
            "ticks": 111936,
            "time": 49.971261999999996,
            "velocity": 0.3937007874015748
          },
          {
            "duration": 0.04285700000000503,
            "durationTicks": 96,
            "midi": 33,
            "name": "A1",
            "ticks": 111936,
            "time": 49.971261999999996,
            "velocity": 0.3937007874015748
          },
          {
            "duration": 0.04285700000000503,
            "durationTicks": 96,
            "midi": 24,
            "name": "C1",
            "ticks": 111936,
            "time": 49.971261999999996,
            "velocity": 0.3937007874015748
          },
          {
            "duration": 0.04285700000000503,
            "durationTicks": 96,
            "midi": 45,
            "name": "A2",
            "ticks": 111936,
            "time": 49.971261999999996,
            "velocity": 0.3937007874015748
          },
          {
            "duration": 0.042856999999997925,
            "durationTicks": 96,
            "midi": 60,
            "name": "C4",
            "ticks": 112320,
            "time": 50.14269,
            "velocity": 0.3937007874015748
          },
          {
            "duration": 0.042856999999997925,
            "durationTicks": 96,
            "midi": 36,
            "name": "C2",
            "ticks": 112320,
            "time": 50.14269,
            "velocity": 0.3937007874015748
          },
          {
            "duration": 0.042856999999997925,
            "durationTicks": 96,
            "midi": 36,
            "name": "C2",
            "ticks": 112320,
            "time": 50.14269,
            "velocity": 0.3937007874015748
          },
          {
            "duration": 0.042856999999997925,
            "durationTicks": 96,
            "midi": 60,
            "name": "C4",
            "ticks": 112320,
            "time": 50.14269,
            "velocity": 0.3937007874015748
          },
          {
            "duration": 0.042856999999997925,
            "durationTicks": 96,
            "midi": 52,
            "name": "E3",
            "ticks": 112704,
            "time": 50.314118,
            "velocity": 0.3937007874015748
          },
          {
            "duration": 0.042856999999997925,
            "durationTicks": 96,
            "midi": 52,
            "name": "E3",
            "ticks": 112704,
            "time": 50.314118,
            "velocity": 0.3937007874015748
          },
          {
            "duration": 0.042856999999997925,
            "durationTicks": 96,
            "midi": 28,
            "name": "E1",
            "ticks": 112704,
            "time": 50.314118,
            "velocity": 0.3937007874015748
          },
          {
            "duration": 0.042856999999997925,
            "durationTicks": 96,
            "midi": 28,
            "name": "E1",
            "ticks": 112704,
            "time": 50.314118,
            "velocity": 0.3937007874015748
          },
          {
            "duration": 0.042856999999997925,
            "durationTicks": 96,
            "midi": 59,
            "name": "B3",
            "ticks": 113088,
            "time": 50.485546,
            "velocity": 0.3937007874015748
          },
          {
            "duration": 0.042856999999997925,
            "durationTicks": 96,
            "midi": 35,
            "name": "B1",
            "ticks": 113088,
            "time": 50.485546,
            "velocity": 0.3937007874015748
          },
          {
            "duration": 0.042856999999997925,
            "durationTicks": 96,
            "midi": 59,
            "name": "B3",
            "ticks": 113088,
            "time": 50.485546,
            "velocity": 0.3937007874015748
          },
          {
            "duration": 0.042856999999997925,
            "durationTicks": 96,
            "midi": 35,
            "name": "B1",
            "ticks": 113088,
            "time": 50.485546,
            "velocity": 0.3937007874015748
          },
          {
            "duration": 0.042856999999997925,
            "durationTicks": 96,
            "midi": 52,
            "name": "E3",
            "ticks": 113472,
            "time": 50.656974,
            "velocity": 0.3937007874015748
          },
          {
            "duration": 0.042856999999997925,
            "durationTicks": 96,
            "midi": 28,
            "name": "E1",
            "ticks": 113472,
            "time": 50.656974,
            "velocity": 0.3937007874015748
          },
          {
            "duration": 0.042856999999997925,
            "durationTicks": 96,
            "midi": 28,
            "name": "E1",
            "ticks": 113472,
            "time": 50.656974,
            "velocity": 0.3937007874015748
          },
          {
            "duration": 0.042856999999997925,
            "durationTicks": 96,
            "midi": 52,
            "name": "E3",
            "ticks": 113472,
            "time": 50.656974,
            "velocity": 0.3937007874015748
          },
          {
            "duration": 0.04285700000000503,
            "durationTicks": 96,
            "midi": 57,
            "name": "A3",
            "ticks": 113856,
            "time": 50.828402,
            "velocity": 0.3937007874015748
          },
          {
            "duration": 0.04285700000000503,
            "durationTicks": 96,
            "midi": 33,
            "name": "A1",
            "ticks": 113856,
            "time": 50.828402,
            "velocity": 0.3937007874015748
          },
          {
            "duration": 0.04285700000000503,
            "durationTicks": 96,
            "midi": 57,
            "name": "A3",
            "ticks": 113856,
            "time": 50.828402,
            "velocity": 0.3937007874015748
          },
          {
            "duration": 0.04285700000000503,
            "durationTicks": 96,
            "midi": 33,
            "name": "A1",
            "ticks": 113856,
            "time": 50.828402,
            "velocity": 0.3937007874015748
          },
          {
            "duration": 0.04285700000000503,
            "durationTicks": 96,
            "midi": 33,
            "name": "A1",
            "ticks": 114240,
            "time": 50.999829999999996,
            "velocity": 0.3937007874015748
          },
          {
            "duration": 0.04285700000000503,
            "durationTicks": 96,
            "midi": 33,
            "name": "A1",
            "ticks": 114240,
            "time": 50.999829999999996,
            "velocity": 0.3937007874015748
          },
          {
            "duration": 0.042856999999997925,
            "durationTicks": 96,
            "midi": 33,
            "name": "A1",
            "ticks": 114624,
            "time": 51.171258,
            "velocity": 0.3937007874015748
          },
          {
            "duration": 0.042856999999997925,
            "durationTicks": 96,
            "midi": 33,
            "name": "A1",
            "ticks": 114624,
            "time": 51.171258,
            "velocity": 0.3937007874015748
          },
          {
            "duration": 0.042856999999997925,
            "durationTicks": 96,
            "midi": 45,
            "name": "A2",
            "ticks": 115008,
            "time": 51.342686,
            "velocity": 0.3937007874015748
          },
          {
            "duration": 0.042856999999997925,
            "durationTicks": 96,
            "midi": 45,
            "name": "A2",
            "ticks": 115008,
            "time": 51.342686,
            "velocity": 0.3937007874015748
          },
          {
            "duration": 0.042856999999997925,
            "durationTicks": 96,
            "midi": 60,
            "name": "C4",
            "ticks": 115392,
            "time": 51.514114,
            "velocity": 0.3937007874015748
          },
          {
            "duration": 0.042856999999997925,
            "durationTicks": 96,
            "midi": 64,
            "name": "E4",
            "ticks": 115392,
            "time": 51.514114,
            "velocity": 0.3937007874015748
          },
          {
            "duration": 0.042856999999997925,
            "durationTicks": 96,
            "midi": 57,
            "name": "A3",
            "ticks": 115392,
            "time": 51.514114,
            "velocity": 0.3937007874015748
          },
          {
            "duration": 0.042856999999997925,
            "durationTicks": 96,
            "midi": 60,
            "name": "C4",
            "ticks": 115392,
            "time": 51.514114,
            "velocity": 0.3937007874015748
          },
          {
            "duration": 0.042856999999997925,
            "durationTicks": 96,
            "midi": 57,
            "name": "A3",
            "ticks": 115392,
            "time": 51.514114,
            "velocity": 0.3937007874015748
          },
          {
            "duration": 0.042856999999997925,
            "durationTicks": 96,
            "midi": 33,
            "name": "A1",
            "ticks": 115392,
            "time": 51.514114,
            "velocity": 0.3937007874015748
          },
          {
            "duration": 0.042856999999997925,
            "durationTicks": 96,
            "midi": 64,
            "name": "E4",
            "ticks": 115392,
            "time": 51.514114,
            "velocity": 0.3937007874015748
          },
          {
            "duration": 0.042856999999997925,
            "durationTicks": 96,
            "midi": 33,
            "name": "A1",
            "ticks": 115392,
            "time": 51.514114,
            "velocity": 0.3937007874015748
          },
          {
            "duration": 0.04285700000000503,
            "durationTicks": 96,
            "midi": 33,
            "name": "A1",
            "ticks": 116160,
            "time": 51.85697,
            "velocity": 0.3937007874015748
          },
          {
            "duration": 0.04285700000000503,
            "durationTicks": 96,
            "midi": 33,
            "name": "A1",
            "ticks": 116160,
            "time": 51.85697,
            "velocity": 0.3937007874015748
          },
          {
            "duration": 0.04285700000000503,
            "durationTicks": 96,
            "midi": 45,
            "name": "A2",
            "ticks": 116544,
            "time": 52.028397999999996,
            "velocity": 0.3937007874015748
          },
          {
            "duration": 0.04285700000000503,
            "durationTicks": 96,
            "midi": 45,
            "name": "A2",
            "ticks": 116544,
            "time": 52.028397999999996,
            "velocity": 0.3937007874015748
          },
          {
            "duration": 0.042856999999997925,
            "durationTicks": 96,
            "midi": 57,
            "name": "A3",
            "ticks": 116928,
            "time": 52.199826,
            "velocity": 0.3937007874015748
          },
          {
            "duration": 0.042856999999997925,
            "durationTicks": 96,
            "midi": 57,
            "name": "A3",
            "ticks": 116928,
            "time": 52.199826,
            "velocity": 0.3937007874015748
          },
          {
            "duration": 0.04285700000000503,
            "durationTicks": 96,
            "midi": 45,
            "name": "A2",
            "ticks": 117120,
            "time": 52.28554,
            "velocity": 0.3937007874015748
          },
          {
            "duration": 0.04285700000000503,
            "durationTicks": 96,
            "midi": 45,
            "name": "A2",
            "ticks": 117120,
            "time": 52.28554,
            "velocity": 0.3937007874015748
          },
          {
            "duration": 0.042856999999997925,
            "durationTicks": 96,
            "midi": 57,
            "name": "A3",
            "ticks": 117312,
            "time": 52.371254,
            "velocity": 0.3937007874015748
          },
          {
            "duration": 0.042856999999997925,
            "durationTicks": 96,
            "midi": 57,
            "name": "A3",
            "ticks": 117312,
            "time": 52.371254,
            "velocity": 0.3937007874015748
          },
          {
            "duration": 0.042856999999997925,
            "durationTicks": 96,
            "midi": 45,
            "name": "A2",
            "ticks": 117696,
            "time": 52.542682,
            "velocity": 0.3937007874015748
          },
          {
            "duration": 0.042856999999997925,
            "durationTicks": 96,
            "midi": 45,
            "name": "A2",
            "ticks": 117696,
            "time": 52.542682,
            "velocity": 0.3937007874015748
          },
          {
            "duration": 0.042856999999997925,
            "durationTicks": 96,
            "midi": 57,
            "name": "A3",
            "ticks": 118080,
            "time": 52.71411,
            "velocity": 0.3937007874015748
          },
          {
            "duration": 0.042856999999997925,
            "durationTicks": 96,
            "midi": 57,
            "name": "A3",
            "ticks": 118080,
            "time": 52.71411,
            "velocity": 0.3937007874015748
          },
          {
            "duration": 0.04285700000000503,
            "durationTicks": 96,
            "midi": 33,
            "name": "A1",
            "ticks": 118464,
            "time": 52.885538,
            "velocity": 0.3937007874015748
          },
          {
            "duration": 0.04285700000000503,
            "durationTicks": 96,
            "midi": 57,
            "name": "A3",
            "ticks": 118464,
            "time": 52.885538,
            "velocity": 0.3937007874015748
          },
          {
            "duration": 0.04285700000000503,
            "durationTicks": 96,
            "midi": 33,
            "name": "A1",
            "ticks": 118464,
            "time": 52.885538,
            "velocity": 0.3937007874015748
          },
          {
            "duration": 0.04285700000000503,
            "durationTicks": 96,
            "midi": 60,
            "name": "C4",
            "ticks": 118464,
            "time": 52.885538,
            "velocity": 0.3937007874015748
          },
          {
            "duration": 0.04285700000000503,
            "durationTicks": 96,
            "midi": 63,
            "name": "D#4",
            "ticks": 118464,
            "time": 52.885538,
            "velocity": 0.3937007874015748
          },
          {
            "duration": 0.04285700000000503,
            "durationTicks": 96,
            "midi": 63,
            "name": "D#4",
            "ticks": 118464,
            "time": 52.885538,
            "velocity": 0.3937007874015748
          },
          {
            "duration": 0.04285700000000503,
            "durationTicks": 96,
            "midi": 60,
            "name": "C4",
            "ticks": 118464,
            "time": 52.885538,
            "velocity": 0.3937007874015748
          },
          {
            "duration": 0.04285700000000503,
            "durationTicks": 96,
            "midi": 57,
            "name": "A3",
            "ticks": 118464,
            "time": 52.885538,
            "velocity": 0.3937007874015748
          },
          {
            "duration": 0.042856999999997925,
            "durationTicks": 96,
            "midi": 33,
            "name": "A1",
            "ticks": 119232,
            "time": 53.228394,
            "velocity": 0.3937007874015748
          },
          {
            "duration": 0.042856999999997925,
            "durationTicks": 96,
            "midi": 33,
            "name": "A1",
            "ticks": 119232,
            "time": 53.228394,
            "velocity": 0.3937007874015748
          },
          {
            "duration": 0.042856999999997925,
            "durationTicks": 96,
            "midi": 45,
            "name": "A2",
            "ticks": 119616,
            "time": 53.399822,
            "velocity": 0.3937007874015748
          },
          {
            "duration": 0.042856999999997925,
            "durationTicks": 96,
            "midi": 45,
            "name": "A2",
            "ticks": 119616,
            "time": 53.399822,
            "velocity": 0.3937007874015748
          },
          {
            "duration": 0.042856999999997925,
            "durationTicks": 96,
            "midi": 33,
            "name": "A1",
            "ticks": 120384,
            "time": 53.742678,
            "velocity": 0.3937007874015748
          },
          {
            "duration": 0.042856999999997925,
            "durationTicks": 96,
            "midi": 33,
            "name": "A1",
            "ticks": 120384,
            "time": 53.742678,
            "velocity": 0.3937007874015748
          },
          {
            "duration": 0.04285700000000503,
            "durationTicks": 96,
            "midi": 45,
            "name": "A2",
            "ticks": 120768,
            "time": 53.914106,
            "velocity": 0.3937007874015748
          },
          {
            "duration": 0.04285700000000503,
            "durationTicks": 96,
            "midi": 45,
            "name": "A2",
            "ticks": 120768,
            "time": 53.914106,
            "velocity": 0.3937007874015748
          },
          {
            "duration": 0.04285700000000503,
            "durationTicks": 96,
            "midi": 33,
            "name": "A1",
            "ticks": 121152,
            "time": 54.085533999999996,
            "velocity": 0.3937007874015748
          },
          {
            "duration": 0.04285700000000503,
            "durationTicks": 96,
            "midi": 33,
            "name": "A1",
            "ticks": 121152,
            "time": 54.085533999999996,
            "velocity": 0.3937007874015748
          },
          {
            "duration": 0.042856999999997925,
            "durationTicks": 96,
            "midi": 62,
            "name": "D4",
            "ticks": 121536,
            "time": 54.256962,
            "velocity": 0.3937007874015748
          },
          {
            "duration": 0.042856999999997925,
            "durationTicks": 96,
            "midi": 59,
            "name": "B3",
            "ticks": 121536,
            "time": 54.256962,
            "velocity": 0.3937007874015748
          },
          {
            "duration": 0.042856999999997925,
            "durationTicks": 96,
            "midi": 33,
            "name": "A1",
            "ticks": 121536,
            "time": 54.256962,
            "velocity": 0.3937007874015748
          },
          {
            "duration": 0.042856999999997925,
            "durationTicks": 96,
            "midi": 53,
            "name": "F3",
            "ticks": 121536,
            "time": 54.256962,
            "velocity": 0.3937007874015748
          },
          {
            "duration": 0.042856999999997925,
            "durationTicks": 96,
            "midi": 33,
            "name": "A1",
            "ticks": 121536,
            "time": 54.256962,
            "velocity": 0.3937007874015748
          },
          {
            "duration": 0.042856999999997925,
            "durationTicks": 96,
            "midi": 62,
            "name": "D4",
            "ticks": 121536,
            "time": 54.256962,
            "velocity": 0.3937007874015748
          },
          {
            "duration": 0.042856999999997925,
            "durationTicks": 96,
            "midi": 53,
            "name": "F3",
            "ticks": 121536,
            "time": 54.256962,
            "velocity": 0.3937007874015748
          },
          {
            "duration": 0.042856999999997925,
            "durationTicks": 96,
            "midi": 59,
            "name": "B3",
            "ticks": 121536,
            "time": 54.256962,
            "velocity": 0.3937007874015748
          },
          {
            "duration": 0.042856999999997925,
            "durationTicks": 96,
            "midi": 24,
            "name": "C1",
            "ticks": 122304,
            "time": 54.599818,
            "velocity": 0.3937007874015748
          },
          {
            "duration": 0.042856999999997925,
            "durationTicks": 96,
            "midi": 24,
            "name": "C1",
            "ticks": 122304,
            "time": 54.599818,
            "velocity": 0.3937007874015748
          },
          {
            "duration": 0.042856999999997925,
            "durationTicks": 96,
            "midi": 33,
            "name": "A1",
            "ticks": 122496,
            "time": 54.685532,
            "velocity": 0.3937007874015748
          },
          {
            "duration": 0.042856999999997925,
            "durationTicks": 96,
            "midi": 33,
            "name": "A1",
            "ticks": 122496,
            "time": 54.685532,
            "velocity": 0.3937007874015748
          },
          {
            "duration": 0.042856999999997925,
            "durationTicks": 96,
            "midi": 45,
            "name": "A2",
            "ticks": 122688,
            "time": 54.771246,
            "velocity": 0.3937007874015748
          },
          {
            "duration": 0.042856999999997925,
            "durationTicks": 96,
            "midi": 45,
            "name": "A2",
            "ticks": 122688,
            "time": 54.771246,
            "velocity": 0.3937007874015748
          },
          {
            "duration": 0.042856999999997925,
            "durationTicks": 96,
            "midi": 57,
            "name": "A3",
            "ticks": 122880,
            "time": 54.85696,
            "velocity": 0.3937007874015748
          },
          {
            "duration": 0.042856999999997925,
            "durationTicks": 96,
            "midi": 57,
            "name": "A3",
            "ticks": 122880,
            "time": 54.85696,
            "velocity": 0.3937007874015748
          },
          {
            "duration": 0.04285700000000503,
            "durationTicks": 96,
            "midi": 24,
            "name": "C1",
            "ticks": 123072,
            "time": 54.942674,
            "velocity": 0.3937007874015748
          },
          {
            "duration": 0.04285700000000503,
            "durationTicks": 96,
            "midi": 45,
            "name": "A2",
            "ticks": 123072,
            "time": 54.942674,
            "velocity": 0.3937007874015748
          },
          {
            "duration": 0.04285700000000503,
            "durationTicks": 96,
            "midi": 24,
            "name": "C1",
            "ticks": 123072,
            "time": 54.942674,
            "velocity": 0.3937007874015748
          },
          {
            "duration": 0.04285700000000503,
            "durationTicks": 96,
            "midi": 33,
            "name": "A1",
            "ticks": 123072,
            "time": 54.942674,
            "velocity": 0.3937007874015748
          },
          {
            "duration": 0.04285700000000503,
            "durationTicks": 96,
            "midi": 33,
            "name": "A1",
            "ticks": 123072,
            "time": 54.942674,
            "velocity": 0.3937007874015748
          },
          {
            "duration": 0.04285700000000503,
            "durationTicks": 96,
            "midi": 45,
            "name": "A2",
            "ticks": 123072,
            "time": 54.942674,
            "velocity": 0.3937007874015748
          },
          {
            "duration": 0.042856999999997925,
            "durationTicks": 96,
            "midi": 45,
            "name": "A2",
            "ticks": 123456,
            "time": 55.114102,
            "velocity": 0.3937007874015748
          },
          {
            "duration": 0.042856999999997925,
            "durationTicks": 96,
            "midi": 24,
            "name": "C1",
            "ticks": 123456,
            "time": 55.114102,
            "velocity": 0.3937007874015748
          },
          {
            "duration": 0.042856999999997925,
            "durationTicks": 96,
            "midi": 33,
            "name": "A1",
            "ticks": 123456,
            "time": 55.114102,
            "velocity": 0.3937007874015748
          },
          {
            "duration": 0.042856999999997925,
            "durationTicks": 96,
            "midi": 45,
            "name": "A2",
            "ticks": 123456,
            "time": 55.114102,
            "velocity": 0.3937007874015748
          },
          {
            "duration": 0.042856999999997925,
            "durationTicks": 96,
            "midi": 24,
            "name": "C1",
            "ticks": 123456,
            "time": 55.114102,
            "velocity": 0.3937007874015748
          },
          {
            "duration": 0.042856999999997925,
            "durationTicks": 96,
            "midi": 33,
            "name": "A1",
            "ticks": 123456,
            "time": 55.114102,
            "velocity": 0.3937007874015748
          },
          {
            "duration": 0.042856999999997925,
            "durationTicks": 96,
            "midi": 24,
            "name": "C1",
            "ticks": 123840,
            "time": 55.28553,
            "velocity": 0.3937007874015748
          },
          {
            "duration": 0.042856999999997925,
            "durationTicks": 96,
            "midi": 33,
            "name": "A1",
            "ticks": 123840,
            "time": 55.28553,
            "velocity": 0.3937007874015748
          },
          {
            "duration": 0.042856999999997925,
            "durationTicks": 96,
            "midi": 45,
            "name": "A2",
            "ticks": 123840,
            "time": 55.28553,
            "velocity": 0.3937007874015748
          },
          {
            "duration": 0.042856999999997925,
            "durationTicks": 96,
            "midi": 24,
            "name": "C1",
            "ticks": 123840,
            "time": 55.28553,
            "velocity": 0.3937007874015748
          },
          {
            "duration": 0.042856999999997925,
            "durationTicks": 96,
            "midi": 33,
            "name": "A1",
            "ticks": 123840,
            "time": 55.28553,
            "velocity": 0.3937007874015748
          },
          {
            "duration": 0.042856999999997925,
            "durationTicks": 96,
            "midi": 45,
            "name": "A2",
            "ticks": 123840,
            "time": 55.28553,
            "velocity": 0.3937007874015748
          },
          {
            "duration": 0.042856999999997925,
            "durationTicks": 96,
            "midi": 33,
            "name": "A1",
            "ticks": 124224,
            "time": 55.456958,
            "velocity": 0.3937007874015748
          },
          {
            "duration": 0.042856999999997925,
            "durationTicks": 96,
            "midi": 24,
            "name": "C1",
            "ticks": 124224,
            "time": 55.456958,
            "velocity": 0.3937007874015748
          },
          {
            "duration": 0.042856999999997925,
            "durationTicks": 96,
            "midi": 45,
            "name": "A2",
            "ticks": 124224,
            "time": 55.456958,
            "velocity": 0.3937007874015748
          },
          {
            "duration": 0.042856999999997925,
            "durationTicks": 96,
            "midi": 24,
            "name": "C1",
            "ticks": 124224,
            "time": 55.456958,
            "velocity": 0.3937007874015748
          },
          {
            "duration": 0.042856999999997925,
            "durationTicks": 96,
            "midi": 45,
            "name": "A2",
            "ticks": 124224,
            "time": 55.456958,
            "velocity": 0.3937007874015748
          },
          {
            "duration": 0.042856999999997925,
            "durationTicks": 96,
            "midi": 33,
            "name": "A1",
            "ticks": 124224,
            "time": 55.456958,
            "velocity": 0.3937007874015748
          },
          {
            "duration": 0.042856999999997925,
            "durationTicks": 96,
            "midi": 36,
            "name": "C2",
            "ticks": 124608,
            "time": 55.628386,
            "velocity": 0.3937007874015748
          },
          {
            "duration": 0.042856999999997925,
            "durationTicks": 96,
            "midi": 36,
            "name": "C2",
            "ticks": 124608,
            "time": 55.628386,
            "velocity": 0.3937007874015748
          },
          {
            "duration": 0.042856999999997925,
            "durationTicks": 96,
            "midi": 40,
            "name": "E2",
            "ticks": 124608,
            "time": 55.628386,
            "velocity": 0.3937007874015748
          },
          {
            "duration": 0.042856999999997925,
            "durationTicks": 96,
            "midi": 52,
            "name": "E3",
            "ticks": 124608,
            "time": 55.628386,
            "velocity": 0.3937007874015748
          },
          {
            "duration": 0.042856999999997925,
            "durationTicks": 96,
            "midi": 40,
            "name": "E2",
            "ticks": 124608,
            "time": 55.628386,
            "velocity": 0.3937007874015748
          },
          {
            "duration": 0.042856999999997925,
            "durationTicks": 96,
            "midi": 52,
            "name": "E3",
            "ticks": 124608,
            "time": 55.628386,
            "velocity": 0.3937007874015748
          },
          {
            "duration": 0.042856999999997925,
            "durationTicks": 96,
            "midi": 57,
            "name": "A3",
            "ticks": 124608,
            "time": 55.628386,
            "velocity": 0.3937007874015748
          },
          {
            "duration": 0.042856999999997925,
            "durationTicks": 96,
            "midi": 57,
            "name": "A3",
            "ticks": 124608,
            "time": 55.628386,
            "velocity": 0.3937007874015748
          },
          {
            "duration": 0.042856999999997925,
            "durationTicks": 96,
            "midi": 60,
            "name": "C4",
            "ticks": 124608,
            "time": 55.628386,
            "velocity": 0.3937007874015748
          },
          {
            "duration": 0.042856999999997925,
            "durationTicks": 96,
            "midi": 60,
            "name": "C4",
            "ticks": 124608,
            "time": 55.628386,
            "velocity": 0.3937007874015748
          },
          {
            "duration": 0.04285700000000503,
            "durationTicks": 96,
            "midi": 35,
            "name": "B1",
            "ticks": 125376,
            "time": 55.971242,
            "velocity": 0.3937007874015748
          },
          {
            "duration": 0.04285700000000503,
            "durationTicks": 96,
            "midi": 38,
            "name": "D2",
            "ticks": 125376,
            "time": 55.971242,
            "velocity": 0.3937007874015748
          },
          {
            "duration": 0.04285700000000503,
            "durationTicks": 96,
            "midi": 53,
            "name": "F3",
            "ticks": 125376,
            "time": 55.971242,
            "velocity": 0.3937007874015748
          },
          {
            "duration": 0.04285700000000503,
            "durationTicks": 96,
            "midi": 53,
            "name": "F3",
            "ticks": 125376,
            "time": 55.971242,
            "velocity": 0.3937007874015748
          },
          {
            "duration": 0.04285700000000503,
            "durationTicks": 96,
            "midi": 59,
            "name": "B3",
            "ticks": 125376,
            "time": 55.971242,
            "velocity": 0.3937007874015748
          },
          {
            "duration": 0.04285700000000503,
            "durationTicks": 96,
            "midi": 50,
            "name": "D3",
            "ticks": 125376,
            "time": 55.971242,
            "velocity": 0.3937007874015748
          },
          {
            "duration": 0.04285700000000503,
            "durationTicks": 96,
            "midi": 50,
            "name": "D3",
            "ticks": 125376,
            "time": 55.971242,
            "velocity": 0.3937007874015748
          },
          {
            "duration": 0.04285700000000503,
            "durationTicks": 96,
            "midi": 59,
            "name": "B3",
            "ticks": 125376,
            "time": 55.971242,
            "velocity": 0.3937007874015748
          },
          {
            "duration": 0.04285700000000503,
            "durationTicks": 96,
            "midi": 38,
            "name": "D2",
            "ticks": 125376,
            "time": 55.971242,
            "velocity": 0.3937007874015748
          },
          {
            "duration": 0.04285700000000503,
            "durationTicks": 96,
            "midi": 35,
            "name": "B1",
            "ticks": 125376,
            "time": 55.971242,
            "velocity": 0.3937007874015748
          },
          {
            "duration": 0.042856999999997925,
            "durationTicks": 96,
            "midi": 48,
            "name": "C3",
            "ticks": 126144,
            "time": 56.314098,
            "velocity": 0.3937007874015748
          },
          {
            "duration": 0.042856999999997925,
            "durationTicks": 96,
            "midi": 33,
            "name": "A1",
            "ticks": 126144,
            "time": 56.314098,
            "velocity": 0.3937007874015748
          },
          {
            "duration": 0.042856999999997925,
            "durationTicks": 96,
            "midi": 57,
            "name": "A3",
            "ticks": 126144,
            "time": 56.314098,
            "velocity": 0.3937007874015748
          },
          {
            "duration": 0.042856999999997925,
            "durationTicks": 96,
            "midi": 57,
            "name": "A3",
            "ticks": 126144,
            "time": 56.314098,
            "velocity": 0.3937007874015748
          },
          {
            "duration": 0.042856999999997925,
            "durationTicks": 96,
            "midi": 52,
            "name": "E3",
            "ticks": 126144,
            "time": 56.314098,
            "velocity": 0.3937007874015748
          },
          {
            "duration": 0.042856999999997925,
            "durationTicks": 96,
            "midi": 48,
            "name": "C3",
            "ticks": 126144,
            "time": 56.314098,
            "velocity": 0.3937007874015748
          },
          {
            "duration": 0.042856999999997925,
            "durationTicks": 96,
            "midi": 52,
            "name": "E3",
            "ticks": 126144,
            "time": 56.314098,
            "velocity": 0.3937007874015748
          },
          {
            "duration": 0.042856999999997925,
            "durationTicks": 96,
            "midi": 36,
            "name": "C2",
            "ticks": 126144,
            "time": 56.314098,
            "velocity": 0.3937007874015748
          },
          {
            "duration": 0.042856999999997925,
            "durationTicks": 96,
            "midi": 36,
            "name": "C2",
            "ticks": 126144,
            "time": 56.314098,
            "velocity": 0.3937007874015748
          },
          {
            "duration": 0.042856999999997925,
            "durationTicks": 96,
            "midi": 33,
            "name": "A1",
            "ticks": 126144,
            "time": 56.314098,
            "velocity": 0.3937007874015748
          },
          {
            "duration": 0.042856999999997925,
            "durationTicks": 96,
            "midi": 28,
            "name": "E1",
            "ticks": 126912,
            "time": 56.656954,
            "velocity": 0.3937007874015748
          },
          {
            "duration": 0.042856999999997925,
            "durationTicks": 96,
            "midi": 40,
            "name": "E2",
            "ticks": 126912,
            "time": 56.656954,
            "velocity": 0.3937007874015748
          },
          {
            "duration": 0.042856999999997925,
            "durationTicks": 96,
            "midi": 40,
            "name": "E2",
            "ticks": 126912,
            "time": 56.656954,
            "velocity": 0.3937007874015748
          },
          {
            "duration": 0.042856999999997925,
            "durationTicks": 96,
            "midi": 28,
            "name": "E1",
            "ticks": 126912,
            "time": 56.656954,
            "velocity": 0.3937007874015748
          },
          {
            "duration": 0.042856999999997925,
            "durationTicks": 96,
            "midi": 72,
            "name": "C5",
            "ticks": 176832,
            "time": 78.942594,
            "velocity": 0.3937007874015748
          },
          {
            "duration": 0.042856999999997925,
            "durationTicks": 96,
            "midi": 65,
            "name": "F4",
            "ticks": 176832,
            "time": 78.942594,
            "velocity": 0.3937007874015748
          },
          {
            "duration": 0.042856999999997925,
            "durationTicks": 96,
            "midi": 65,
            "name": "F4",
            "ticks": 176832,
            "time": 78.942594,
            "velocity": 0.3937007874015748
          },
          {
            "duration": 0.042856999999997925,
            "durationTicks": 96,
            "midi": 72,
            "name": "C5",
            "ticks": 176832,
            "time": 78.942594,
            "velocity": 0.3937007874015748
          },
          {
            "duration": 0.042856999999997925,
            "durationTicks": 96,
            "midi": 69,
            "name": "A4",
            "ticks": 176832,
            "time": 78.942594,
            "velocity": 0.3937007874015748
          },
          {
            "duration": 0.042856999999997925,
            "durationTicks": 96,
            "midi": 69,
            "name": "A4",
            "ticks": 176832,
            "time": 78.942594,
            "velocity": 0.3937007874015748
          },
          {
            "duration": 0.042856999999997925,
            "durationTicks": 96,
            "midi": 74,
            "name": "D5",
            "ticks": 177984,
            "time": 79.456878,
            "velocity": 0.3937007874015748
          },
          {
            "duration": 0.042856999999997925,
            "durationTicks": 96,
            "midi": 74,
            "name": "D5",
            "ticks": 177984,
            "time": 79.456878,
            "velocity": 0.3937007874015748
          },
          {
            "duration": 0.042856999999997925,
            "durationTicks": 96,
            "midi": 65,
            "name": "F4",
            "ticks": 178368,
            "time": 79.628306,
            "velocity": 0.3937007874015748
          },
          {
            "duration": 0.042856999999997925,
            "durationTicks": 96,
            "midi": 65,
            "name": "F4",
            "ticks": 178368,
            "time": 79.628306,
            "velocity": 0.3937007874015748
          },
          {
            "duration": 0.042856999999997925,
            "durationTicks": 96,
            "midi": 72,
            "name": "C5",
            "ticks": 178368,
            "time": 79.628306,
            "velocity": 0.3937007874015748
          },
          {
            "duration": 0.042856999999997925,
            "durationTicks": 96,
            "midi": 69,
            "name": "A4",
            "ticks": 178368,
            "time": 79.628306,
            "velocity": 0.3937007874015748
          },
          {
            "duration": 0.042856999999997925,
            "durationTicks": 96,
            "midi": 72,
            "name": "C5",
            "ticks": 178368,
            "time": 79.628306,
            "velocity": 0.3937007874015748
          },
          {
            "duration": 0.042856999999997925,
            "durationTicks": 96,
            "midi": 69,
            "name": "A4",
            "ticks": 178368,
            "time": 79.628306,
            "velocity": 0.3937007874015748
          },
          {
            "duration": 0.042856999999997925,
            "durationTicks": 96,
            "midi": 71,
            "name": "B4",
            "ticks": 179520,
            "time": 80.14259,
            "velocity": 0.3937007874015748
          },
          {
            "duration": 0.042856999999997925,
            "durationTicks": 96,
            "midi": 71,
            "name": "B4",
            "ticks": 179520,
            "time": 80.14259,
            "velocity": 0.3937007874015748
          },
          {
            "duration": 0.042856999999997925,
            "durationTicks": 96,
            "midi": 65,
            "name": "F4",
            "ticks": 179904,
            "time": 80.314018,
            "velocity": 0.3937007874015748
          },
          {
            "duration": 0.042856999999997925,
            "durationTicks": 96,
            "midi": 65,
            "name": "F4",
            "ticks": 179904,
            "time": 80.314018,
            "velocity": 0.3937007874015748
          },
          {
            "duration": 0.042856999999997925,
            "durationTicks": 96,
            "midi": 69,
            "name": "A4",
            "ticks": 179904,
            "time": 80.314018,
            "velocity": 0.3937007874015748
          },
          {
            "duration": 0.042856999999997925,
            "durationTicks": 96,
            "midi": 69,
            "name": "A4",
            "ticks": 179904,
            "time": 80.314018,
            "velocity": 0.3937007874015748
          },
          {
            "duration": 0.042856999999997925,
            "durationTicks": 96,
            "midi": 62,
            "name": "D4",
            "ticks": 180672,
            "time": 80.656874,
            "velocity": 0.3937007874015748
          },
          {
            "duration": 0.042856999999997925,
            "durationTicks": 96,
            "midi": 62,
            "name": "D4",
            "ticks": 180672,
            "time": 80.656874,
            "velocity": 0.3937007874015748
          },
          {
            "duration": 0.042856999999997925,
            "durationTicks": 96,
            "midi": 64,
            "name": "E4",
            "ticks": 181440,
            "time": 80.99973,
            "velocity": 0.3937007874015748
          },
          {
            "duration": 0.042856999999997925,
            "durationTicks": 96,
            "midi": 64,
            "name": "E4",
            "ticks": 181440,
            "time": 80.99973,
            "velocity": 0.3937007874015748
          },
          {
            "duration": 0.042856999999997925,
            "durationTicks": 96,
            "midi": 68,
            "name": "G#4",
            "ticks": 182208,
            "time": 81.342586,
            "velocity": 0.3937007874015748
          },
          {
            "duration": 0.042856999999997925,
            "durationTicks": 96,
            "midi": 68,
            "name": "G#4",
            "ticks": 182208,
            "time": 81.342586,
            "velocity": 0.3937007874015748
          },
          {
            "duration": 0.042856999999997925,
            "durationTicks": 96,
            "midi": 68,
            "name": "G#4",
            "ticks": 182976,
            "time": 81.685442,
            "velocity": 0.3937007874015748
          },
          {
            "duration": 0.042856999999997925,
            "durationTicks": 96,
            "midi": 71,
            "name": "B4",
            "ticks": 182976,
            "time": 81.685442,
            "velocity": 0.3937007874015748
          },
          {
            "duration": 0.042856999999997925,
            "durationTicks": 96,
            "midi": 68,
            "name": "G#4",
            "ticks": 182976,
            "time": 81.685442,
            "velocity": 0.3937007874015748
          },
          {
            "duration": 0.042856999999997925,
            "durationTicks": 96,
            "midi": 71,
            "name": "B4",
            "ticks": 182976,
            "time": 81.685442,
            "velocity": 0.3937007874015748
          },
          {
            "duration": 0.042856999999997925,
            "durationTicks": 96,
            "midi": 69,
            "name": "A4",
            "ticks": 184128,
            "time": 82.199726,
            "velocity": 0.3937007874015748
          },
          {
            "duration": 0.042856999999997925,
            "durationTicks": 96,
            "midi": 69,
            "name": "A4",
            "ticks": 184128,
            "time": 82.199726,
            "velocity": 0.3937007874015748
          },
          {
            "duration": 0.042856999999997925,
            "durationTicks": 96,
            "midi": 68,
            "name": "G#4",
            "ticks": 184512,
            "time": 82.371154,
            "velocity": 0.3937007874015748
          },
          {
            "duration": 0.042856999999997925,
            "durationTicks": 96,
            "midi": 64,
            "name": "E4",
            "ticks": 184512,
            "time": 82.371154,
            "velocity": 0.3937007874015748
          },
          {
            "duration": 0.042856999999997925,
            "durationTicks": 96,
            "midi": 64,
            "name": "E4",
            "ticks": 184512,
            "time": 82.371154,
            "velocity": 0.3937007874015748
          },
          {
            "duration": 0.042856999999997925,
            "durationTicks": 96,
            "midi": 68,
            "name": "G#4",
            "ticks": 184512,
            "time": 82.371154,
            "velocity": 0.3937007874015748
          },
          {
            "duration": 0.042857000000012135,
            "durationTicks": 96,
            "midi": 69,
            "name": "A4",
            "ticks": 185664,
            "time": 82.885438,
            "velocity": 0.3937007874015748
          },
          {
            "duration": 0.042857000000012135,
            "durationTicks": 96,
            "midi": 69,
            "name": "A4",
            "ticks": 185664,
            "time": 82.885438,
            "velocity": 0.3937007874015748
          },
          {
            "duration": 0.042856999999997925,
            "durationTicks": 96,
            "midi": 64,
            "name": "E4",
            "ticks": 186048,
            "time": 83.056866,
            "velocity": 0.3937007874015748
          },
          {
            "duration": 0.042856999999997925,
            "durationTicks": 96,
            "midi": 64,
            "name": "E4",
            "ticks": 186048,
            "time": 83.056866,
            "velocity": 0.3937007874015748
          },
          {
            "duration": 0.042856999999997925,
            "durationTicks": 96,
            "midi": 71,
            "name": "B4",
            "ticks": 187968,
            "time": 83.914006,
            "velocity": 0.3937007874015748
          },
          {
            "duration": 0.042856999999997925,
            "durationTicks": 96,
            "midi": 71,
            "name": "B4",
            "ticks": 187968,
            "time": 83.914006,
            "velocity": 0.3937007874015748
          },
          {
            "duration": 0.042857000000012135,
            "durationTicks": 96,
            "midi": 72,
            "name": "C5",
            "ticks": 188352,
            "time": 84.08543399999999,
            "velocity": 0.3937007874015748
          },
          {
            "duration": 0.042857000000012135,
            "durationTicks": 96,
            "midi": 72,
            "name": "C5",
            "ticks": 188352,
            "time": 84.08543399999999,
            "velocity": 0.3937007874015748
          },
          {
            "duration": 0.042856999999997925,
            "durationTicks": 96,
            "midi": 74,
            "name": "D5",
            "ticks": 188736,
            "time": 84.256862,
            "velocity": 0.3937007874015748
          },
          {
            "duration": 0.042856999999997925,
            "durationTicks": 96,
            "midi": 74,
            "name": "D5",
            "ticks": 188736,
            "time": 84.256862,
            "velocity": 0.3937007874015748
          },
          {
            "duration": 0.042856999999997925,
            "durationTicks": 96,
            "midi": 76,
            "name": "E5",
            "ticks": 189120,
            "time": 84.42829,
            "velocity": 0.3937007874015748
          },
          {
            "duration": 0.042856999999997925,
            "durationTicks": 96,
            "midi": 76,
            "name": "E5",
            "ticks": 189120,
            "time": 84.42829,
            "velocity": 0.3937007874015748
          },
          {
            "duration": 0.042856999999997925,
            "durationTicks": 96,
            "midi": 74,
            "name": "D5",
            "ticks": 189888,
            "time": 84.771146,
            "velocity": 0.3937007874015748
          },
          {
            "duration": 0.042856999999997925,
            "durationTicks": 96,
            "midi": 74,
            "name": "D5",
            "ticks": 189888,
            "time": 84.771146,
            "velocity": 0.3937007874015748
          },
          {
            "duration": 0.042856999999997925,
            "durationTicks": 96,
            "midi": 69,
            "name": "A4",
            "ticks": 190656,
            "time": 85.114002,
            "velocity": 0.3937007874015748
          },
          {
            "duration": 0.042856999999997925,
            "durationTicks": 96,
            "midi": 69,
            "name": "A4",
            "ticks": 190656,
            "time": 85.114002,
            "velocity": 0.3937007874015748
          },
          {
            "duration": 0.042856999999997925,
            "durationTicks": 96,
            "midi": 76,
            "name": "E5",
            "ticks": 191424,
            "time": 85.456858,
            "velocity": 0.3937007874015748
          },
          {
            "duration": 0.042856999999997925,
            "durationTicks": 96,
            "midi": 76,
            "name": "E5",
            "ticks": 191424,
            "time": 85.456858,
            "velocity": 0.3937007874015748
          },
          {
            "duration": 0.042856999999997925,
            "durationTicks": 96,
            "midi": 74,
            "name": "D5",
            "ticks": 192192,
            "time": 85.799714,
            "velocity": 0.3937007874015748
          },
          {
            "duration": 0.042856999999997925,
            "durationTicks": 96,
            "midi": 74,
            "name": "D5",
            "ticks": 192192,
            "time": 85.799714,
            "velocity": 0.3937007874015748
          },
          {
            "duration": 0.042857000000012135,
            "durationTicks": 96,
            "midi": 69,
            "name": "A4",
            "ticks": 192960,
            "time": 86.14256999999999,
            "velocity": 0.3937007874015748
          },
          {
            "duration": 0.042857000000012135,
            "durationTicks": 96,
            "midi": 69,
            "name": "A4",
            "ticks": 192960,
            "time": 86.14256999999999,
            "velocity": 0.3937007874015748
          },
          {
            "duration": 0.042856999999997925,
            "durationTicks": 96,
            "midi": 72,
            "name": "C5",
            "ticks": 193728,
            "time": 86.485426,
            "velocity": 0.3937007874015748
          },
          {
            "duration": 0.042856999999997925,
            "durationTicks": 96,
            "midi": 72,
            "name": "C5",
            "ticks": 193728,
            "time": 86.485426,
            "velocity": 0.3937007874015748
          },
          {
            "duration": 0.042856999999997925,
            "durationTicks": 96,
            "midi": 71,
            "name": "B4",
            "ticks": 194112,
            "time": 86.656854,
            "velocity": 0.3937007874015748
          },
          {
            "duration": 0.042856999999997925,
            "durationTicks": 96,
            "midi": 71,
            "name": "B4",
            "ticks": 194112,
            "time": 86.656854,
            "velocity": 0.3937007874015748
          },
          {
            "duration": 0.042856999999997925,
            "durationTicks": 96,
            "midi": 69,
            "name": "A4",
            "ticks": 194496,
            "time": 86.828282,
            "velocity": 0.3937007874015748
          },
          {
            "duration": 0.042856999999997925,
            "durationTicks": 96,
            "midi": 69,
            "name": "A4",
            "ticks": 194496,
            "time": 86.828282,
            "velocity": 0.3937007874015748
          },
          {
            "duration": 0.042857000000012135,
            "durationTicks": 96,
            "midi": 71,
            "name": "B4",
            "ticks": 194880,
            "time": 86.99971,
            "velocity": 0.3937007874015748
          },
          {
            "duration": 0.042857000000012135,
            "durationTicks": 96,
            "midi": 71,
            "name": "B4",
            "ticks": 194880,
            "time": 86.99971,
            "velocity": 0.3937007874015748
          },
          {
            "duration": 0.042856999999997925,
            "durationTicks": 96,
            "midi": 64,
            "name": "E4",
            "ticks": 195264,
            "time": 87.171138,
            "velocity": 0.3937007874015748
          },
          {
            "duration": 0.042856999999997925,
            "durationTicks": 96,
            "midi": 69,
            "name": "A4",
            "ticks": 195264,
            "time": 87.171138,
            "velocity": 0.3937007874015748
          },
          {
            "duration": 0.042856999999997925,
            "durationTicks": 96,
            "midi": 69,
            "name": "A4",
            "ticks": 195264,
            "time": 87.171138,
            "velocity": 0.3937007874015748
          },
          {
            "duration": 0.042856999999997925,
            "durationTicks": 96,
            "midi": 64,
            "name": "E4",
            "ticks": 195264,
            "time": 87.171138,
            "velocity": 0.3937007874015748
          },
          {
            "duration": 0.042856999999997925,
            "durationTicks": 96,
            "midi": 62,
            "name": "D4",
            "ticks": 196800,
            "time": 87.85685,
            "velocity": 0.3937007874015748
          },
          {
            "duration": 0.042856999999997925,
            "durationTicks": 96,
            "midi": 68,
            "name": "G#4",
            "ticks": 196800,
            "time": 87.85685,
            "velocity": 0.3937007874015748
          },
          {
            "duration": 0.042856999999997925,
            "durationTicks": 96,
            "midi": 62,
            "name": "D4",
            "ticks": 196800,
            "time": 87.85685,
            "velocity": 0.3937007874015748
          },
          {
            "duration": 0.042856999999997925,
            "durationTicks": 96,
            "midi": 68,
            "name": "G#4",
            "ticks": 196800,
            "time": 87.85685,
            "velocity": 0.3937007874015748
          },
          {
            "duration": 0.042856999999997925,
            "durationTicks": 96,
            "midi": 60,
            "name": "C4",
            "ticks": 198336,
            "time": 88.542562,
            "velocity": 0.3937007874015748
          },
          {
            "duration": 0.042856999999997925,
            "durationTicks": 96,
            "midi": 64,
            "name": "E4",
            "ticks": 198336,
            "time": 88.542562,
            "velocity": 0.3937007874015748
          },
          {
            "duration": 0.042856999999997925,
            "durationTicks": 96,
            "midi": 69,
            "name": "A4",
            "ticks": 198336,
            "time": 88.542562,
            "velocity": 0.3937007874015748
          },
          {
            "duration": 0.042856999999997925,
            "durationTicks": 96,
            "midi": 69,
            "name": "A4",
            "ticks": 198336,
            "time": 88.542562,
            "velocity": 0.3937007874015748
          },
          {
            "duration": 0.042856999999997925,
            "durationTicks": 96,
            "midi": 64,
            "name": "E4",
            "ticks": 198336,
            "time": 88.542562,
            "velocity": 0.3937007874015748
          },
          {
            "duration": 0.042856999999997925,
            "durationTicks": 96,
            "midi": 60,
            "name": "C4",
            "ticks": 198336,
            "time": 88.542562,
            "velocity": 0.3937007874015748
          },
          {
            "duration": 0.042856999999997925,
            "durationTicks": 96,
            "midi": 62,
            "name": "D4",
            "ticks": 199872,
            "time": 89.228274,
            "velocity": 0.3937007874015748
          },
          {
            "duration": 0.042856999999997925,
            "durationTicks": 96,
            "midi": 65,
            "name": "F4",
            "ticks": 199872,
            "time": 89.228274,
            "velocity": 0.3937007874015748
          },
          {
            "duration": 0.042856999999997925,
            "durationTicks": 96,
            "midi": 71,
            "name": "B4",
            "ticks": 199872,
            "time": 89.228274,
            "velocity": 0.3937007874015748
          },
          {
            "duration": 0.042856999999997925,
            "durationTicks": 96,
            "midi": 62,
            "name": "D4",
            "ticks": 199872,
            "time": 89.228274,
            "velocity": 0.3937007874015748
          },
          {
            "duration": 0.042856999999997925,
            "durationTicks": 96,
            "midi": 65,
            "name": "F4",
            "ticks": 199872,
            "time": 89.228274,
            "velocity": 0.3937007874015748
          },
          {
            "duration": 0.042856999999997925,
            "durationTicks": 96,
            "midi": 71,
            "name": "B4",
            "ticks": 199872,
            "time": 89.228274,
            "velocity": 0.3937007874015748
          },
          {
            "duration": 0.042856999999997925,
            "durationTicks": 96,
            "midi": 38,
            "name": "D2",
            "ticks": 324288,
            "time": 144.770946,
            "velocity": 0.3937007874015748
          },
          {
            "duration": 0.042856999999997925,
            "durationTicks": 96,
            "midi": 60,
            "name": "C4",
            "ticks": 325056,
            "time": 145.113802,
            "velocity": 0.3937007874015748
          },
          {
            "duration": 0.042856999999997925,
            "durationTicks": 96,
            "midi": 57,
            "name": "A3",
            "ticks": 325056,
            "time": 145.113802,
            "velocity": 0.3937007874015748
          },
          {
            "duration": 0.042856999999997925,
            "durationTicks": 96,
            "midi": 69,
            "name": "A4",
            "ticks": 325056,
            "time": 145.113802,
            "velocity": 0.3937007874015748
          },
          {
            "duration": 0.042856999999997925,
            "durationTicks": 96,
            "midi": 64,
            "name": "E4",
            "ticks": 325056,
            "time": 145.113802,
            "velocity": 0.3937007874015748
          },
          {
            "duration": 0.042856999999997925,
            "durationTicks": 96,
            "midi": 40,
            "name": "E2",
            "ticks": 325824,
            "time": 145.456658,
            "velocity": 0.3937007874015748
          },
          {
            "duration": 0.042856999999997925,
            "durationTicks": 96,
            "midi": 59,
            "name": "B3",
            "ticks": 325824,
            "time": 145.456658,
            "velocity": 0.3937007874015748
          },
          {
            "duration": 0.042856999999997925,
            "durationTicks": 96,
            "midi": 62,
            "name": "D4",
            "ticks": 325824,
            "time": 145.456658,
            "velocity": 0.3937007874015748
          },
          {
            "duration": 0.042856999999997925,
            "durationTicks": 96,
            "midi": 56,
            "name": "G#3",
            "ticks": 325824,
            "time": 145.456658,
            "velocity": 0.3937007874015748
          },
          {
            "duration": 0.042856999999997925,
            "durationTicks": 96,
            "midi": 68,
            "name": "G#4",
            "ticks": 325824,
            "time": 145.456658,
            "velocity": 0.3937007874015748
          },
          {
            "duration": 0.042856999999997925,
            "durationTicks": 96,
            "midi": 71,
            "name": "B4",
            "ticks": 326592,
            "time": 145.799514,
            "velocity": 0.3937007874015748
          },
          {
            "duration": 0.042856999999997925,
            "durationTicks": 96,
            "midi": 60,
            "name": "C4",
            "ticks": 327360,
            "time": 146.14237,
            "velocity": 0.3937007874015748
          },
          {
            "duration": 0.042856999999997925,
            "durationTicks": 96,
            "midi": 69,
            "name": "A4",
            "ticks": 327360,
            "time": 146.14237,
            "velocity": 0.3937007874015748
          },
          {
            "duration": 0.042856999999997925,
            "durationTicks": 96,
            "midi": 36,
            "name": "C2",
            "ticks": 327360,
            "time": 146.14237,
            "velocity": 0.3937007874015748
          },
          {
            "duration": 0.042856999999997925,
            "durationTicks": 96,
            "midi": 64,
            "name": "E4",
            "ticks": 327360,
            "time": 146.14237,
            "velocity": 0.3937007874015748
          },
          {
            "duration": 0.042856999999997925,
            "durationTicks": 96,
            "midi": 35,
            "name": "B1",
            "ticks": 328128,
            "time": 146.485226,
            "velocity": 0.3937007874015748
          },
          {
            "duration": 0.042856999999997925,
            "durationTicks": 96,
            "midi": 64,
            "name": "E4",
            "ticks": 328512,
            "time": 146.656654,
            "velocity": 0.3937007874015748
          },
          {
            "duration": 0.042856999999997925,
            "durationTicks": 96,
            "midi": 57,
            "name": "A3",
            "ticks": 328896,
            "time": 146.828082,
            "velocity": 0.3937007874015748
          },
          {
            "duration": 0.042856999999997925,
            "durationTicks": 96,
            "midi": 60,
            "name": "C4",
            "ticks": 328896,
            "time": 146.828082,
            "velocity": 0.3937007874015748
          },
          {
            "duration": 0.042856999999997925,
            "durationTicks": 96,
            "midi": 64,
            "name": "E4",
            "ticks": 328896,
            "time": 146.828082,
            "velocity": 0.3937007874015748
          },
          {
            "duration": 0.042856999999997925,
            "durationTicks": 96,
            "midi": 45,
            "name": "A2",
            "ticks": 328896,
            "time": 146.828082,
            "velocity": 0.3937007874015748
          },
          {
            "duration": 0.042856999999997925,
            "durationTicks": 96,
            "midi": 62,
            "name": "D4",
            "ticks": 329664,
            "time": 147.170938,
            "velocity": 0.3937007874015748
          },
          {
            "duration": 0.042856999999997925,
            "durationTicks": 96,
            "midi": 38,
            "name": "D2",
            "ticks": 330432,
            "time": 147.513794,
            "velocity": 0.3937007874015748
          },
          {
            "duration": 0.042856999999997925,
            "durationTicks": 96,
            "midi": 60,
            "name": "C4",
            "ticks": 330432,
            "time": 147.513794,
            "velocity": 0.3937007874015748
          },
          {
            "duration": 0.042856999999997925,
            "durationTicks": 96,
            "midi": 50,
            "name": "D3",
            "ticks": 330432,
            "time": 147.513794,
            "velocity": 0.3937007874015748
          },
          {
            "duration": 0.042857000000026346,
            "durationTicks": 96,
            "midi": 56,
            "name": "G#3",
            "ticks": 331968,
            "time": 148.19950599999999,
            "velocity": 0.3937007874015748
          },
          {
            "duration": 0.042857000000026346,
            "durationTicks": 96,
            "midi": 64,
            "name": "E4",
            "ticks": 331968,
            "time": 148.19950599999999,
            "velocity": 0.3937007874015748
          },
          {
            "duration": 0.042857000000026346,
            "durationTicks": 96,
            "midi": 52,
            "name": "E3",
            "ticks": 331968,
            "time": 148.19950599999999,
            "velocity": 0.3937007874015748
          },
          {
            "duration": 0.042857000000026346,
            "durationTicks": 96,
            "midi": 40,
            "name": "E2",
            "ticks": 331968,
            "time": 148.19950599999999,
            "velocity": 0.3937007874015748
          },
          {
            "duration": 0.042857000000026346,
            "durationTicks": 96,
            "midi": 59,
            "name": "B3",
            "ticks": 331968,
            "time": 148.19950599999999,
            "velocity": 0.3937007874015748
          },
          {
            "duration": 0.042856999999997925,
            "durationTicks": 96,
            "midi": 57,
            "name": "A3",
            "ticks": 333504,
            "time": 148.885218,
            "velocity": 0.3937007874015748
          },
          {
            "duration": 0.042856999999997925,
            "durationTicks": 96,
            "midi": 52,
            "name": "E3",
            "ticks": 333504,
            "time": 148.885218,
            "velocity": 0.3937007874015748
          },
          {
            "duration": 0.042856999999997925,
            "durationTicks": 96,
            "midi": 48,
            "name": "C3",
            "ticks": 333504,
            "time": 148.885218,
            "velocity": 0.3937007874015748
          },
          {
            "duration": 0.042856999999997925,
            "durationTicks": 96,
            "midi": 45,
            "name": "A2",
            "ticks": 333504,
            "time": 148.885218,
            "velocity": 0.3937007874015748
          }
        ],
        "endOfTrackTicks": 333600
      },
      {
        "channel": 9,
        "controlChanges": {},
        "pitchBends": [],
        "instrument": {
          "family": "drums",
          "number": 0,
          "name": "standard kit"
        },
        "name": "Drum Kit",
        "notes": [
          {
            "duration": 0.0428569999999997,
            "durationTicks": 96,
            "midi": 33,
            "name": "A1",
            "ticks": 4800,
            "time": 2.14285,
            "velocity": 0.4881889763779528
          },
          {
            "duration": 0.0428569999999997,
            "durationTicks": 96,
            "midi": 46,
            "name": "A#2",
            "ticks": 4800,
            "time": 2.14285,
            "velocity": 0.4881889763779528
          },
          {
            "duration": 0.0428569999999997,
            "durationTicks": 96,
            "midi": 54,
            "name": "F#3",
            "ticks": 4800,
            "time": 2.14285,
            "velocity": 0.4881889763779528
          },
          {
            "duration": 0.0428569999999997,
            "durationTicks": 96,
            "midi": 46,
            "name": "A#2",
            "ticks": 4800,
            "time": 2.14285,
            "velocity": 0.4881889763779528
          },
          {
            "duration": 0.0428569999999997,
            "durationTicks": 96,
            "midi": 52,
            "name": "E3",
            "ticks": 4800,
            "time": 2.14285,
            "velocity": 0.4881889763779528
          },
          {
            "duration": 0.0428569999999997,
            "durationTicks": 96,
            "midi": 33,
            "name": "A1",
            "ticks": 4800,
            "time": 2.14285,
            "velocity": 0.4881889763779528
          },
          {
            "duration": 0.0428569999999997,
            "durationTicks": 96,
            "midi": 32,
            "name": "G#1",
            "ticks": 4800,
            "time": 2.14285,
            "velocity": 0.4881889763779528
          },
          {
            "duration": 0.0428569999999997,
            "durationTicks": 96,
            "midi": 33,
            "name": "A1",
            "ticks": 4800,
            "time": 2.14285,
            "velocity": 0.4881889763779528
          },
          {
            "duration": 0.0428569999999997,
            "durationTicks": 96,
            "midi": 54,
            "name": "F#3",
            "ticks": 4800,
            "time": 2.14285,
            "velocity": 0.4881889763779528
          },
          {
            "duration": 0.0428569999999997,
            "durationTicks": 96,
            "midi": 49,
            "name": "C#3",
            "ticks": 4800,
            "time": 2.14285,
            "velocity": 0.4881889763779528
          },
          {
            "duration": 0.0428569999999997,
            "durationTicks": 96,
            "midi": 32,
            "name": "G#1",
            "ticks": 4800,
            "time": 2.14285,
            "velocity": 0.4881889763779528
          },
          {
            "duration": 0.0428569999999997,
            "durationTicks": 96,
            "midi": 32,
            "name": "G#1",
            "ticks": 4800,
            "time": 2.14285,
            "velocity": 0.4881889763779528
          },
          {
            "duration": 0.0428569999999997,
            "durationTicks": 96,
            "midi": 32,
            "name": "G#1",
            "ticks": 4800,
            "time": 2.14285,
            "velocity": 0.4881889763779528
          },
          {
            "duration": 0.0428569999999997,
            "durationTicks": 96,
            "midi": 32,
            "name": "G#1",
            "ticks": 4800,
            "time": 2.14285,
            "velocity": 0.4881889763779528
          },
          {
            "duration": 0.0428569999999997,
            "durationTicks": 96,
            "midi": 49,
            "name": "C#3",
            "ticks": 4800,
            "time": 2.14285,
            "velocity": 0.4881889763779528
          },
          {
            "duration": 0.0428569999999997,
            "durationTicks": 96,
            "midi": 33,
            "name": "A1",
            "ticks": 4800,
            "time": 2.14285,
            "velocity": 0.4881889763779528
          },
          {
            "duration": 0.0428569999999997,
            "durationTicks": 96,
            "midi": 33,
            "name": "A1",
            "ticks": 4800,
            "time": 2.14285,
            "velocity": 0.4881889763779528
          },
          {
            "duration": 0.0428569999999997,
            "durationTicks": 96,
            "midi": 52,
            "name": "E3",
            "ticks": 4800,
            "time": 2.14285,
            "velocity": 0.4881889763779528
          },
          {
            "duration": 0.04285700000000148,
            "durationTicks": 96,
            "midi": 33,
            "name": "A1",
            "ticks": 29376,
            "time": 13.114241999999999,
            "velocity": 0.4881889763779528
          },
          {
            "duration": 0.04285700000000148,
            "durationTicks": 96,
            "midi": 32,
            "name": "G#1",
            "ticks": 29376,
            "time": 13.114241999999999,
            "velocity": 0.4881889763779528
          },
          {
            "duration": 0.04285700000000148,
            "durationTicks": 96,
            "midi": 49,
            "name": "C#3",
            "ticks": 29376,
            "time": 13.114241999999999,
            "velocity": 0.4881889763779528
          },
          {
            "duration": 0.04285700000000148,
            "durationTicks": 96,
            "midi": 32,
            "name": "G#1",
            "ticks": 29376,
            "time": 13.114241999999999,
            "velocity": 0.4881889763779528
          },
          {
            "duration": 0.04285700000000148,
            "durationTicks": 96,
            "midi": 33,
            "name": "A1",
            "ticks": 29376,
            "time": 13.114241999999999,
            "velocity": 0.4881889763779528
          },
          {
            "duration": 0.04285700000000148,
            "durationTicks": 96,
            "midi": 38,
            "name": "D2",
            "ticks": 29376,
            "time": 13.114241999999999,
            "velocity": 0.4881889763779528
          },
          {
            "duration": 0.04285700000000148,
            "durationTicks": 96,
            "midi": 33,
            "name": "A1",
            "ticks": 29376,
            "time": 13.114241999999999,
            "velocity": 0.4881889763779528
          },
          {
            "duration": 0.04285700000000148,
            "durationTicks": 96,
            "midi": 33,
            "name": "A1",
            "ticks": 29376,
            "time": 13.114241999999999,
            "velocity": 0.4881889763779528
          },
          {
            "duration": 0.04285700000000148,
            "durationTicks": 96,
            "midi": 32,
            "name": "G#1",
            "ticks": 29376,
            "time": 13.114241999999999,
            "velocity": 0.4881889763779528
          },
          {
            "duration": 0.04285700000000148,
            "durationTicks": 96,
            "midi": 38,
            "name": "D2",
            "ticks": 29376,
            "time": 13.114241999999999,
            "velocity": 0.4881889763779528
          },
          {
            "duration": 0.04285700000000148,
            "durationTicks": 96,
            "midi": 40,
            "name": "E2",
            "ticks": 29376,
            "time": 13.114241999999999,
            "velocity": 0.4881889763779528
          },
          {
            "duration": 0.04285700000000148,
            "durationTicks": 96,
            "midi": 33,
            "name": "A1",
            "ticks": 29376,
            "time": 13.114241999999999,
            "velocity": 0.4881889763779528
          },
          {
            "duration": 0.04285700000000148,
            "durationTicks": 96,
            "midi": 33,
            "name": "A1",
            "ticks": 29376,
            "time": 13.114241999999999,
            "velocity": 0.4881889763779528
          },
          {
            "duration": 0.04285700000000148,
            "durationTicks": 96,
            "midi": 40,
            "name": "E2",
            "ticks": 29376,
            "time": 13.114241999999999,
            "velocity": 0.4881889763779528
          },
          {
            "duration": 0.04285700000000148,
            "durationTicks": 96,
            "midi": 52,
            "name": "E3",
            "ticks": 29376,
            "time": 13.114241999999999,
            "velocity": 0.4881889763779528
          },
          {
            "duration": 0.04285700000000148,
            "durationTicks": 96,
            "midi": 32,
            "name": "G#1",
            "ticks": 29376,
            "time": 13.114241999999999,
            "velocity": 0.4881889763779528
          },
          {
            "duration": 0.04285700000000148,
            "durationTicks": 96,
            "midi": 46,
            "name": "A#2",
            "ticks": 29376,
            "time": 13.114241999999999,
            "velocity": 0.4881889763779528
          },
          {
            "duration": 0.04285700000000148,
            "durationTicks": 96,
            "midi": 33,
            "name": "A1",
            "ticks": 29376,
            "time": 13.114241999999999,
            "velocity": 0.4881889763779528
          },
          {
            "duration": 0.04285700000000148,
            "durationTicks": 96,
            "midi": 32,
            "name": "G#1",
            "ticks": 29376,
            "time": 13.114241999999999,
            "velocity": 0.4881889763779528
          },
          {
            "duration": 0.04285700000000148,
            "durationTicks": 96,
            "midi": 46,
            "name": "A#2",
            "ticks": 29376,
            "time": 13.114241999999999,
            "velocity": 0.4881889763779528
          },
          {
            "duration": 0.04285700000000148,
            "durationTicks": 96,
            "midi": 33,
            "name": "A1",
            "ticks": 29376,
            "time": 13.114241999999999,
            "velocity": 0.4881889763779528
          },
          {
            "duration": 0.04285700000000148,
            "durationTicks": 96,
            "midi": 40,
            "name": "E2",
            "ticks": 29376,
            "time": 13.114241999999999,
            "velocity": 0.4881889763779528
          },
          {
            "duration": 0.04285700000000148,
            "durationTicks": 96,
            "midi": 32,
            "name": "G#1",
            "ticks": 29376,
            "time": 13.114241999999999,
            "velocity": 0.4881889763779528
          },
          {
            "duration": 0.04285700000000148,
            "durationTicks": 96,
            "midi": 38,
            "name": "D2",
            "ticks": 29376,
            "time": 13.114241999999999,
            "velocity": 0.4881889763779528
          },
          {
            "duration": 0.04285700000000148,
            "durationTicks": 96,
            "midi": 40,
            "name": "E2",
            "ticks": 29376,
            "time": 13.114241999999999,
            "velocity": 0.4881889763779528
          },
          {
            "duration": 0.04285700000000148,
            "durationTicks": 96,
            "midi": 54,
            "name": "F#3",
            "ticks": 29376,
            "time": 13.114241999999999,
            "velocity": 0.4881889763779528
          },
          {
            "duration": 0.04285700000000148,
            "durationTicks": 96,
            "midi": 52,
            "name": "E3",
            "ticks": 29376,
            "time": 13.114241999999999,
            "velocity": 0.4881889763779528
          },
          {
            "duration": 0.04285700000000148,
            "durationTicks": 96,
            "midi": 38,
            "name": "D2",
            "ticks": 29376,
            "time": 13.114241999999999,
            "velocity": 0.4881889763779528
          },
          {
            "duration": 0.04285700000000148,
            "durationTicks": 96,
            "midi": 32,
            "name": "G#1",
            "ticks": 29376,
            "time": 13.114241999999999,
            "velocity": 0.4881889763779528
          },
          {
            "duration": 0.04285700000000148,
            "durationTicks": 96,
            "midi": 33,
            "name": "A1",
            "ticks": 29376,
            "time": 13.114241999999999,
            "velocity": 0.4881889763779528
          },
          {
            "duration": 0.04285700000000148,
            "durationTicks": 96,
            "midi": 32,
            "name": "G#1",
            "ticks": 29376,
            "time": 13.114241999999999,
            "velocity": 0.4881889763779528
          },
          {
            "duration": 0.04285700000000148,
            "durationTicks": 96,
            "midi": 38,
            "name": "D2",
            "ticks": 29376,
            "time": 13.114241999999999,
            "velocity": 0.4881889763779528
          },
          {
            "duration": 0.04285700000000148,
            "durationTicks": 96,
            "midi": 40,
            "name": "E2",
            "ticks": 29376,
            "time": 13.114241999999999,
            "velocity": 0.4881889763779528
          },
          {
            "duration": 0.04285700000000148,
            "durationTicks": 96,
            "midi": 33,
            "name": "A1",
            "ticks": 29376,
            "time": 13.114241999999999,
            "velocity": 0.4881889763779528
          },
          {
            "duration": 0.04285700000000148,
            "durationTicks": 96,
            "midi": 32,
            "name": "G#1",
            "ticks": 29376,
            "time": 13.114241999999999,
            "velocity": 0.4881889763779528
          },
          {
            "duration": 0.04285700000000148,
            "durationTicks": 96,
            "midi": 32,
            "name": "G#1",
            "ticks": 29376,
            "time": 13.114241999999999,
            "velocity": 0.4881889763779528
          },
          {
            "duration": 0.0428569999999997,
            "durationTicks": 96,
            "midi": 37,
            "name": "C#2",
            "ticks": 30912,
            "time": 13.799954,
            "velocity": 0.4881889763779528
          },
          {
            "duration": 0.0428569999999997,
            "durationTicks": 96,
            "midi": 35,
            "name": "B1",
            "ticks": 30912,
            "time": 13.799954,
            "velocity": 0.4881889763779528
          },
          {
            "duration": 0.0428569999999997,
            "durationTicks": 96,
            "midi": 35,
            "name": "B1",
            "ticks": 30912,
            "time": 13.799954,
            "velocity": 0.4881889763779528
          },
          {
            "duration": 0.0428569999999997,
            "durationTicks": 96,
            "midi": 37,
            "name": "C#2",
            "ticks": 30912,
            "time": 13.799954,
            "velocity": 0.4881889763779528
          },
          {
            "duration": 0.0428569999999997,
            "durationTicks": 96,
            "midi": 35,
            "name": "B1",
            "ticks": 30912,
            "time": 13.799954,
            "velocity": 0.4881889763779528
          },
          {
            "duration": 0.0428569999999997,
            "durationTicks": 96,
            "midi": 37,
            "name": "C#2",
            "ticks": 30912,
            "time": 13.799954,
            "velocity": 0.4881889763779528
          },
          {
            "duration": 0.0428569999999997,
            "durationTicks": 96,
            "midi": 37,
            "name": "C#2",
            "ticks": 30912,
            "time": 13.799954,
            "velocity": 0.4881889763779528
          },
          {
            "duration": 0.0428569999999997,
            "durationTicks": 96,
            "midi": 35,
            "name": "B1",
            "ticks": 30912,
            "time": 13.799954,
            "velocity": 0.4881889763779528
          },
          {
            "duration": 0.0428569999999997,
            "durationTicks": 96,
            "midi": 35,
            "name": "B1",
            "ticks": 30912,
            "time": 13.799954,
            "velocity": 0.4881889763779528
          },
          {
            "duration": 0.0428569999999997,
            "durationTicks": 96,
            "midi": 37,
            "name": "C#2",
            "ticks": 30912,
            "time": 13.799954,
            "velocity": 0.4881889763779528
          },
          {
            "duration": 0.0428569999999997,
            "durationTicks": 96,
            "midi": 37,
            "name": "C#2",
            "ticks": 30912,
            "time": 13.799954,
            "velocity": 0.4881889763779528
          },
          {
            "duration": 0.0428569999999997,
            "durationTicks": 96,
            "midi": 35,
            "name": "B1",
            "ticks": 30912,
            "time": 13.799954,
            "velocity": 0.4881889763779528
          },
          {
            "duration": 0.04285700000000148,
            "durationTicks": 96,
            "midi": 33,
            "name": "A1",
            "ticks": 32832,
            "time": 14.657093999999999,
            "velocity": 0.4881889763779528
          },
          {
            "duration": 0.04285700000000148,
            "durationTicks": 96,
            "midi": 32,
            "name": "G#1",
            "ticks": 32832,
            "time": 14.657093999999999,
            "velocity": 0.4881889763779528
          },
          {
            "duration": 0.04285700000000148,
            "durationTicks": 96,
            "midi": 32,
            "name": "G#1",
            "ticks": 32832,
            "time": 14.657093999999999,
            "velocity": 0.4881889763779528
          },
          {
            "duration": 0.04285700000000148,
            "durationTicks": 96,
            "midi": 38,
            "name": "D2",
            "ticks": 32832,
            "time": 14.657093999999999,
            "velocity": 0.4881889763779528
          },
          {
            "duration": 0.04285700000000148,
            "durationTicks": 96,
            "midi": 32,
            "name": "G#1",
            "ticks": 32832,
            "time": 14.657093999999999,
            "velocity": 0.4881889763779528
          },
          {
            "duration": 0.04285700000000148,
            "durationTicks": 96,
            "midi": 32,
            "name": "G#1",
            "ticks": 32832,
            "time": 14.657093999999999,
            "velocity": 0.4881889763779528
          },
          {
            "duration": 0.04285700000000148,
            "durationTicks": 96,
            "midi": 33,
            "name": "A1",
            "ticks": 32832,
            "time": 14.657093999999999,
            "velocity": 0.4881889763779528
          },
          {
            "duration": 0.04285700000000148,
            "durationTicks": 96,
            "midi": 33,
            "name": "A1",
            "ticks": 32832,
            "time": 14.657093999999999,
            "velocity": 0.4881889763779528
          },
          {
            "duration": 0.04285700000000148,
            "durationTicks": 96,
            "midi": 38,
            "name": "D2",
            "ticks": 32832,
            "time": 14.657093999999999,
            "velocity": 0.4881889763779528
          },
          {
            "duration": 0.04285700000000148,
            "durationTicks": 96,
            "midi": 33,
            "name": "A1",
            "ticks": 32832,
            "time": 14.657093999999999,
            "velocity": 0.4881889763779528
          },
          {
            "duration": 0.04285700000000148,
            "durationTicks": 96,
            "midi": 33,
            "name": "A1",
            "ticks": 32832,
            "time": 14.657093999999999,
            "velocity": 0.4881889763779528
          },
          {
            "duration": 0.04285700000000148,
            "durationTicks": 96,
            "midi": 40,
            "name": "E2",
            "ticks": 32832,
            "time": 14.657093999999999,
            "velocity": 0.4881889763779528
          },
          {
            "duration": 0.04285700000000148,
            "durationTicks": 96,
            "midi": 32,
            "name": "G#1",
            "ticks": 32832,
            "time": 14.657093999999999,
            "velocity": 0.4881889763779528
          },
          {
            "duration": 0.04285700000000148,
            "durationTicks": 96,
            "midi": 32,
            "name": "G#1",
            "ticks": 32832,
            "time": 14.657093999999999,
            "velocity": 0.4881889763779528
          },
          {
            "duration": 0.04285700000000148,
            "durationTicks": 96,
            "midi": 38,
            "name": "D2",
            "ticks": 32832,
            "time": 14.657093999999999,
            "velocity": 0.4881889763779528
          },
          {
            "duration": 0.04285700000000148,
            "durationTicks": 96,
            "midi": 40,
            "name": "E2",
            "ticks": 32832,
            "time": 14.657093999999999,
            "velocity": 0.4881889763779528
          },
          {
            "duration": 0.04285700000000148,
            "durationTicks": 96,
            "midi": 38,
            "name": "D2",
            "ticks": 32832,
            "time": 14.657093999999999,
            "velocity": 0.4881889763779528
          },
          {
            "duration": 0.04285700000000148,
            "durationTicks": 96,
            "midi": 32,
            "name": "G#1",
            "ticks": 32832,
            "time": 14.657093999999999,
            "velocity": 0.4881889763779528
          },
          {
            "duration": 0.04285700000000148,
            "durationTicks": 96,
            "midi": 40,
            "name": "E2",
            "ticks": 32832,
            "time": 14.657093999999999,
            "velocity": 0.4881889763779528
          },
          {
            "duration": 0.04285700000000148,
            "durationTicks": 96,
            "midi": 33,
            "name": "A1",
            "ticks": 32832,
            "time": 14.657093999999999,
            "velocity": 0.4881889763779528
          },
          {
            "duration": 0.04285700000000148,
            "durationTicks": 96,
            "midi": 33,
            "name": "A1",
            "ticks": 32832,
            "time": 14.657093999999999,
            "velocity": 0.4881889763779528
          },
          {
            "duration": 0.04285700000000148,
            "durationTicks": 96,
            "midi": 40,
            "name": "E2",
            "ticks": 32832,
            "time": 14.657093999999999,
            "velocity": 0.4881889763779528
          },
          {
            "duration": 0.04285700000000148,
            "durationTicks": 96,
            "midi": 32,
            "name": "G#1",
            "ticks": 32832,
            "time": 14.657093999999999,
            "velocity": 0.4881889763779528
          },
          {
            "duration": 0.04285700000000148,
            "durationTicks": 96,
            "midi": 40,
            "name": "E2",
            "ticks": 32832,
            "time": 14.657093999999999,
            "velocity": 0.4881889763779528
          },
          {
            "duration": 0.04285700000000148,
            "durationTicks": 96,
            "midi": 32,
            "name": "G#1",
            "ticks": 32832,
            "time": 14.657093999999999,
            "velocity": 0.4881889763779528
          },
          {
            "duration": 0.04285700000000148,
            "durationTicks": 96,
            "midi": 32,
            "name": "G#1",
            "ticks": 32832,
            "time": 14.657093999999999,
            "velocity": 0.4881889763779528
          },
          {
            "duration": 0.04285700000000148,
            "durationTicks": 96,
            "midi": 33,
            "name": "A1",
            "ticks": 32832,
            "time": 14.657093999999999,
            "velocity": 0.4881889763779528
          },
          {
            "duration": 0.04285700000000148,
            "durationTicks": 96,
            "midi": 38,
            "name": "D2",
            "ticks": 32832,
            "time": 14.657093999999999,
            "velocity": 0.4881889763779528
          },
          {
            "duration": 0.04285700000000148,
            "durationTicks": 96,
            "midi": 33,
            "name": "A1",
            "ticks": 32832,
            "time": 14.657093999999999,
            "velocity": 0.4881889763779528
          },
          {
            "duration": 0.04285700000000148,
            "durationTicks": 96,
            "midi": 33,
            "name": "A1",
            "ticks": 32832,
            "time": 14.657093999999999,
            "velocity": 0.4881889763779528
          },
          {
            "duration": 0.0428569999999997,
            "durationTicks": 96,
            "midi": 33,
            "name": "A1",
            "ticks": 33216,
            "time": 14.828522,
            "velocity": 0.4881889763779528
          },
          {
            "duration": 0.0428569999999997,
            "durationTicks": 96,
            "midi": 32,
            "name": "G#1",
            "ticks": 33216,
            "time": 14.828522,
            "velocity": 0.4881889763779528
          },
          {
            "duration": 0.0428569999999997,
            "durationTicks": 96,
            "midi": 33,
            "name": "A1",
            "ticks": 33216,
            "time": 14.828522,
            "velocity": 0.4881889763779528
          },
          {
            "duration": 0.0428569999999997,
            "durationTicks": 96,
            "midi": 33,
            "name": "A1",
            "ticks": 33216,
            "time": 14.828522,
            "velocity": 0.4881889763779528
          },
          {
            "duration": 0.0428569999999997,
            "durationTicks": 96,
            "midi": 33,
            "name": "A1",
            "ticks": 33216,
            "time": 14.828522,
            "velocity": 0.4881889763779528
          },
          {
            "duration": 0.0428569999999997,
            "durationTicks": 96,
            "midi": 32,
            "name": "G#1",
            "ticks": 33216,
            "time": 14.828522,
            "velocity": 0.4881889763779528
          },
          {
            "duration": 0.0428569999999997,
            "durationTicks": 96,
            "midi": 38,
            "name": "D2",
            "ticks": 33216,
            "time": 14.828522,
            "velocity": 0.4881889763779528
          },
          {
            "duration": 0.0428569999999997,
            "durationTicks": 96,
            "midi": 32,
            "name": "G#1",
            "ticks": 33216,
            "time": 14.828522,
            "velocity": 0.4881889763779528
          },
          {
            "duration": 0.0428569999999997,
            "durationTicks": 96,
            "midi": 32,
            "name": "G#1",
            "ticks": 33216,
            "time": 14.828522,
            "velocity": 0.4881889763779528
          },
          {
            "duration": 0.0428569999999997,
            "durationTicks": 96,
            "midi": 38,
            "name": "D2",
            "ticks": 33216,
            "time": 14.828522,
            "velocity": 0.4881889763779528
          },
          {
            "duration": 0.0428569999999997,
            "durationTicks": 96,
            "midi": 40,
            "name": "E2",
            "ticks": 33216,
            "time": 14.828522,
            "velocity": 0.4881889763779528
          },
          {
            "duration": 0.0428569999999997,
            "durationTicks": 96,
            "midi": 32,
            "name": "G#1",
            "ticks": 33216,
            "time": 14.828522,
            "velocity": 0.4881889763779528
          },
          {
            "duration": 0.0428569999999997,
            "durationTicks": 96,
            "midi": 32,
            "name": "G#1",
            "ticks": 33216,
            "time": 14.828522,
            "velocity": 0.4881889763779528
          },
          {
            "duration": 0.0428569999999997,
            "durationTicks": 96,
            "midi": 40,
            "name": "E2",
            "ticks": 33216,
            "time": 14.828522,
            "velocity": 0.4881889763779528
          },
          {
            "duration": 0.0428569999999997,
            "durationTicks": 96,
            "midi": 33,
            "name": "A1",
            "ticks": 33216,
            "time": 14.828522,
            "velocity": 0.4881889763779528
          },
          {
            "duration": 0.0428569999999997,
            "durationTicks": 96,
            "midi": 32,
            "name": "G#1",
            "ticks": 33216,
            "time": 14.828522,
            "velocity": 0.4881889763779528
          },
          {
            "duration": 0.0428569999999997,
            "durationTicks": 96,
            "midi": 32,
            "name": "G#1",
            "ticks": 33216,
            "time": 14.828522,
            "velocity": 0.4881889763779528
          },
          {
            "duration": 0.0428569999999997,
            "durationTicks": 96,
            "midi": 38,
            "name": "D2",
            "ticks": 33216,
            "time": 14.828522,
            "velocity": 0.4881889763779528
          },
          {
            "duration": 0.0428569999999997,
            "durationTicks": 96,
            "midi": 33,
            "name": "A1",
            "ticks": 33216,
            "time": 14.828522,
            "velocity": 0.4881889763779528
          },
          {
            "duration": 0.0428569999999997,
            "durationTicks": 96,
            "midi": 40,
            "name": "E2",
            "ticks": 33216,
            "time": 14.828522,
            "velocity": 0.4881889763779528
          },
          {
            "duration": 0.0428569999999997,
            "durationTicks": 96,
            "midi": 33,
            "name": "A1",
            "ticks": 33216,
            "time": 14.828522,
            "velocity": 0.4881889763779528
          },
          {
            "duration": 0.0428569999999997,
            "durationTicks": 96,
            "midi": 40,
            "name": "E2",
            "ticks": 33216,
            "time": 14.828522,
            "velocity": 0.4881889763779528
          },
          {
            "duration": 0.0428569999999997,
            "durationTicks": 96,
            "midi": 32,
            "name": "G#1",
            "ticks": 33216,
            "time": 14.828522,
            "velocity": 0.4881889763779528
          },
          {
            "duration": 0.0428569999999997,
            "durationTicks": 96,
            "midi": 40,
            "name": "E2",
            "ticks": 33216,
            "time": 14.828522,
            "velocity": 0.4881889763779528
          },
          {
            "duration": 0.0428569999999997,
            "durationTicks": 96,
            "midi": 33,
            "name": "A1",
            "ticks": 33216,
            "time": 14.828522,
            "velocity": 0.4881889763779528
          },
          {
            "duration": 0.0428569999999997,
            "durationTicks": 96,
            "midi": 38,
            "name": "D2",
            "ticks": 33216,
            "time": 14.828522,
            "velocity": 0.4881889763779528
          },
          {
            "duration": 0.0428569999999997,
            "durationTicks": 96,
            "midi": 38,
            "name": "D2",
            "ticks": 33216,
            "time": 14.828522,
            "velocity": 0.4881889763779528
          },
          {
            "duration": 0.0428569999999997,
            "durationTicks": 96,
            "midi": 33,
            "name": "A1",
            "ticks": 33216,
            "time": 14.828522,
            "velocity": 0.4881889763779528
          },
          {
            "duration": 0.0428569999999997,
            "durationTicks": 96,
            "midi": 33,
            "name": "A1",
            "ticks": 33216,
            "time": 14.828522,
            "velocity": 0.4881889763779528
          },
          {
            "duration": 0.0428569999999997,
            "durationTicks": 96,
            "midi": 32,
            "name": "G#1",
            "ticks": 33216,
            "time": 14.828522,
            "velocity": 0.4881889763779528
          },
          {
            "duration": 0.04285700000000148,
            "durationTicks": 96,
            "midi": 37,
            "name": "C#2",
            "ticks": 33984,
            "time": 15.171377999999999,
            "velocity": 0.4881889763779528
          },
          {
            "duration": 0.04285700000000148,
            "durationTicks": 96,
            "midi": 35,
            "name": "B1",
            "ticks": 33984,
            "time": 15.171377999999999,
            "velocity": 0.4881889763779528
          },
          {
            "duration": 0.04285700000000148,
            "durationTicks": 96,
            "midi": 35,
            "name": "B1",
            "ticks": 33984,
            "time": 15.171377999999999,
            "velocity": 0.4881889763779528
          },
          {
            "duration": 0.04285700000000148,
            "durationTicks": 96,
            "midi": 35,
            "name": "B1",
            "ticks": 33984,
            "time": 15.171377999999999,
            "velocity": 0.4881889763779528
          },
          {
            "duration": 0.04285700000000148,
            "durationTicks": 96,
            "midi": 37,
            "name": "C#2",
            "ticks": 33984,
            "time": 15.171377999999999,
            "velocity": 0.4881889763779528
          },
          {
            "duration": 0.04285700000000148,
            "durationTicks": 96,
            "midi": 37,
            "name": "C#2",
            "ticks": 33984,
            "time": 15.171377999999999,
            "velocity": 0.4881889763779528
          },
          {
            "duration": 0.04285700000000148,
            "durationTicks": 96,
            "midi": 35,
            "name": "B1",
            "ticks": 33984,
            "time": 15.171377999999999,
            "velocity": 0.4881889763779528
          },
          {
            "duration": 0.04285700000000148,
            "durationTicks": 96,
            "midi": 35,
            "name": "B1",
            "ticks": 33984,
            "time": 15.171377999999999,
            "velocity": 0.4881889763779528
          },
          {
            "duration": 0.04285700000000148,
            "durationTicks": 96,
            "midi": 37,
            "name": "C#2",
            "ticks": 33984,
            "time": 15.171377999999999,
            "velocity": 0.4881889763779528
          },
          {
            "duration": 0.04285700000000148,
            "durationTicks": 96,
            "midi": 37,
            "name": "C#2",
            "ticks": 33984,
            "time": 15.171377999999999,
            "velocity": 0.4881889763779528
          },
          {
            "duration": 0.04285700000000148,
            "durationTicks": 96,
            "midi": 35,
            "name": "B1",
            "ticks": 33984,
            "time": 15.171377999999999,
            "velocity": 0.4881889763779528
          },
          {
            "duration": 0.04285700000000148,
            "durationTicks": 96,
            "midi": 37,
            "name": "C#2",
            "ticks": 33984,
            "time": 15.171377999999999,
            "velocity": 0.4881889763779528
          },
          {
            "duration": 0.0428569999999997,
            "durationTicks": 96,
            "midi": 40,
            "name": "E2",
            "ticks": 35520,
            "time": 15.85709,
            "velocity": 0.4881889763779528
          },
          {
            "duration": 0.0428569999999997,
            "durationTicks": 96,
            "midi": 38,
            "name": "D2",
            "ticks": 35520,
            "time": 15.85709,
            "velocity": 0.4881889763779528
          },
          {
            "duration": 0.0428569999999997,
            "durationTicks": 96,
            "midi": 33,
            "name": "A1",
            "ticks": 35520,
            "time": 15.85709,
            "velocity": 0.4881889763779528
          },
          {
            "duration": 0.0428569999999997,
            "durationTicks": 96,
            "midi": 33,
            "name": "A1",
            "ticks": 35520,
            "time": 15.85709,
            "velocity": 0.4881889763779528
          },
          {
            "duration": 0.0428569999999997,
            "durationTicks": 96,
            "midi": 33,
            "name": "A1",
            "ticks": 35520,
            "time": 15.85709,
            "velocity": 0.4881889763779528
          },
          {
            "duration": 0.0428569999999997,
            "durationTicks": 96,
            "midi": 33,
            "name": "A1",
            "ticks": 35520,
            "time": 15.85709,
            "velocity": 0.4881889763779528
          },
          {
            "duration": 0.0428569999999997,
            "durationTicks": 96,
            "midi": 33,
            "name": "A1",
            "ticks": 35520,
            "time": 15.85709,
            "velocity": 0.4881889763779528
          },
          {
            "duration": 0.0428569999999997,
            "durationTicks": 96,
            "midi": 33,
            "name": "A1",
            "ticks": 35520,
            "time": 15.85709,
            "velocity": 0.4881889763779528
          },
          {
            "duration": 0.0428569999999997,
            "durationTicks": 96,
            "midi": 38,
            "name": "D2",
            "ticks": 35520,
            "time": 15.85709,
            "velocity": 0.4881889763779528
          },
          {
            "duration": 0.0428569999999997,
            "durationTicks": 96,
            "midi": 40,
            "name": "E2",
            "ticks": 35520,
            "time": 15.85709,
            "velocity": 0.4881889763779528
          },
          {
            "duration": 0.0428569999999997,
            "durationTicks": 96,
            "midi": 32,
            "name": "G#1",
            "ticks": 35520,
            "time": 15.85709,
            "velocity": 0.4881889763779528
          },
          {
            "duration": 0.0428569999999997,
            "durationTicks": 96,
            "midi": 33,
            "name": "A1",
            "ticks": 35520,
            "time": 15.85709,
            "velocity": 0.4881889763779528
          },
          {
            "duration": 0.0428569999999997,
            "durationTicks": 96,
            "midi": 38,
            "name": "D2",
            "ticks": 35520,
            "time": 15.85709,
            "velocity": 0.4881889763779528
          },
          {
            "duration": 0.0428569999999997,
            "durationTicks": 96,
            "midi": 40,
            "name": "E2",
            "ticks": 35520,
            "time": 15.85709,
            "velocity": 0.4881889763779528
          },
          {
            "duration": 0.0428569999999997,
            "durationTicks": 96,
            "midi": 32,
            "name": "G#1",
            "ticks": 35520,
            "time": 15.85709,
            "velocity": 0.4881889763779528
          },
          {
            "duration": 0.0428569999999997,
            "durationTicks": 96,
            "midi": 40,
            "name": "E2",
            "ticks": 35520,
            "time": 15.85709,
            "velocity": 0.4881889763779528
          },
          {
            "duration": 0.0428569999999997,
            "durationTicks": 96,
            "midi": 40,
            "name": "E2",
            "ticks": 35520,
            "time": 15.85709,
            "velocity": 0.4881889763779528
          },
          {
            "duration": 0.0428569999999997,
            "durationTicks": 96,
            "midi": 32,
            "name": "G#1",
            "ticks": 35520,
            "time": 15.85709,
            "velocity": 0.4881889763779528
          },
          {
            "duration": 0.0428569999999997,
            "durationTicks": 96,
            "midi": 32,
            "name": "G#1",
            "ticks": 35520,
            "time": 15.85709,
            "velocity": 0.4881889763779528
          },
          {
            "duration": 0.0428569999999997,
            "durationTicks": 96,
            "midi": 32,
            "name": "G#1",
            "ticks": 35520,
            "time": 15.85709,
            "velocity": 0.4881889763779528
          },
          {
            "duration": 0.0428569999999997,
            "durationTicks": 96,
            "midi": 38,
            "name": "D2",
            "ticks": 35520,
            "time": 15.85709,
            "velocity": 0.4881889763779528
          },
          {
            "duration": 0.0428569999999997,
            "durationTicks": 96,
            "midi": 33,
            "name": "A1",
            "ticks": 35520,
            "time": 15.85709,
            "velocity": 0.4881889763779528
          },
          {
            "duration": 0.0428569999999997,
            "durationTicks": 96,
            "midi": 32,
            "name": "G#1",
            "ticks": 35520,
            "time": 15.85709,
            "velocity": 0.4881889763779528
          },
          {
            "duration": 0.0428569999999997,
            "durationTicks": 96,
            "midi": 32,
            "name": "G#1",
            "ticks": 35520,
            "time": 15.85709,
            "velocity": 0.4881889763779528
          },
          {
            "duration": 0.0428569999999997,
            "durationTicks": 96,
            "midi": 33,
            "name": "A1",
            "ticks": 35520,
            "time": 15.85709,
            "velocity": 0.4881889763779528
          },
          {
            "duration": 0.0428569999999997,
            "durationTicks": 96,
            "midi": 32,
            "name": "G#1",
            "ticks": 35520,
            "time": 15.85709,
            "velocity": 0.4881889763779528
          },
          {
            "duration": 0.0428569999999997,
            "durationTicks": 96,
            "midi": 32,
            "name": "G#1",
            "ticks": 35520,
            "time": 15.85709,
            "velocity": 0.4881889763779528
          },
          {
            "duration": 0.0428569999999997,
            "durationTicks": 96,
            "midi": 32,
            "name": "G#1",
            "ticks": 35520,
            "time": 15.85709,
            "velocity": 0.4881889763779528
          },
          {
            "duration": 0.0428569999999997,
            "durationTicks": 96,
            "midi": 38,
            "name": "D2",
            "ticks": 35520,
            "time": 15.85709,
            "velocity": 0.4881889763779528
          },
          {
            "duration": 0.0428569999999997,
            "durationTicks": 96,
            "midi": 33,
            "name": "A1",
            "ticks": 35520,
            "time": 15.85709,
            "velocity": 0.4881889763779528
          },
          {
            "duration": 0.04285700000000148,
            "durationTicks": 96,
            "midi": 35,
            "name": "B1",
            "ticks": 37056,
            "time": 16.542802,
            "velocity": 0.4881889763779528
          },
          {
            "duration": 0.04285700000000148,
            "durationTicks": 96,
            "midi": 35,
            "name": "B1",
            "ticks": 37056,
            "time": 16.542802,
            "velocity": 0.4881889763779528
          },
          {
            "duration": 0.04285700000000148,
            "durationTicks": 96,
            "midi": 37,
            "name": "C#2",
            "ticks": 37056,
            "time": 16.542802,
            "velocity": 0.4881889763779528
          },
          {
            "duration": 0.04285700000000148,
            "durationTicks": 96,
            "midi": 37,
            "name": "C#2",
            "ticks": 37056,
            "time": 16.542802,
            "velocity": 0.4881889763779528
          },
          {
            "duration": 0.04285700000000148,
            "durationTicks": 96,
            "midi": 37,
            "name": "C#2",
            "ticks": 37056,
            "time": 16.542802,
            "velocity": 0.4881889763779528
          },
          {
            "duration": 0.04285700000000148,
            "durationTicks": 96,
            "midi": 35,
            "name": "B1",
            "ticks": 37056,
            "time": 16.542802,
            "velocity": 0.4881889763779528
          },
          {
            "duration": 0.04285700000000148,
            "durationTicks": 96,
            "midi": 35,
            "name": "B1",
            "ticks": 37056,
            "time": 16.542802,
            "velocity": 0.4881889763779528
          },
          {
            "duration": 0.04285700000000148,
            "durationTicks": 96,
            "midi": 35,
            "name": "B1",
            "ticks": 37056,
            "time": 16.542802,
            "velocity": 0.4881889763779528
          },
          {
            "duration": 0.04285700000000148,
            "durationTicks": 96,
            "midi": 35,
            "name": "B1",
            "ticks": 37056,
            "time": 16.542802,
            "velocity": 0.4881889763779528
          },
          {
            "duration": 0.04285700000000148,
            "durationTicks": 96,
            "midi": 37,
            "name": "C#2",
            "ticks": 37056,
            "time": 16.542802,
            "velocity": 0.4881889763779528
          },
          {
            "duration": 0.04285700000000148,
            "durationTicks": 96,
            "midi": 37,
            "name": "C#2",
            "ticks": 37056,
            "time": 16.542802,
            "velocity": 0.4881889763779528
          },
          {
            "duration": 0.04285700000000148,
            "durationTicks": 96,
            "midi": 37,
            "name": "C#2",
            "ticks": 37056,
            "time": 16.542802,
            "velocity": 0.4881889763779528
          },
          {
            "duration": 0.04285700000000148,
            "durationTicks": 96,
            "midi": 40,
            "name": "E2",
            "ticks": 38976,
            "time": 17.399942,
            "velocity": 0.4881889763779528
          },
          {
            "duration": 0.04285700000000148,
            "durationTicks": 96,
            "midi": 40,
            "name": "E2",
            "ticks": 38976,
            "time": 17.399942,
            "velocity": 0.4881889763779528
          },
          {
            "duration": 0.04285700000000148,
            "durationTicks": 96,
            "midi": 32,
            "name": "G#1",
            "ticks": 38976,
            "time": 17.399942,
            "velocity": 0.4881889763779528
          },
          {
            "duration": 0.04285700000000148,
            "durationTicks": 96,
            "midi": 32,
            "name": "G#1",
            "ticks": 38976,
            "time": 17.399942,
            "velocity": 0.4881889763779528
          },
          {
            "duration": 0.04285700000000148,
            "durationTicks": 96,
            "midi": 40,
            "name": "E2",
            "ticks": 38976,
            "time": 17.399942,
            "velocity": 0.4881889763779528
          },
          {
            "duration": 0.04285700000000148,
            "durationTicks": 96,
            "midi": 33,
            "name": "A1",
            "ticks": 38976,
            "time": 17.399942,
            "velocity": 0.4881889763779528
          },
          {
            "duration": 0.04285700000000148,
            "durationTicks": 96,
            "midi": 40,
            "name": "E2",
            "ticks": 38976,
            "time": 17.399942,
            "velocity": 0.4881889763779528
          },
          {
            "duration": 0.04285700000000148,
            "durationTicks": 96,
            "midi": 33,
            "name": "A1",
            "ticks": 38976,
            "time": 17.399942,
            "velocity": 0.4881889763779528
          },
          {
            "duration": 0.04285700000000148,
            "durationTicks": 96,
            "midi": 33,
            "name": "A1",
            "ticks": 38976,
            "time": 17.399942,
            "velocity": 0.4881889763779528
          },
          {
            "duration": 0.04285700000000148,
            "durationTicks": 96,
            "midi": 40,
            "name": "E2",
            "ticks": 38976,
            "time": 17.399942,
            "velocity": 0.4881889763779528
          },
          {
            "duration": 0.04285700000000148,
            "durationTicks": 96,
            "midi": 32,
            "name": "G#1",
            "ticks": 38976,
            "time": 17.399942,
            "velocity": 0.4881889763779528
          },
          {
            "duration": 0.04285700000000148,
            "durationTicks": 96,
            "midi": 38,
            "name": "D2",
            "ticks": 38976,
            "time": 17.399942,
            "velocity": 0.4881889763779528
          },
          {
            "duration": 0.04285700000000148,
            "durationTicks": 96,
            "midi": 32,
            "name": "G#1",
            "ticks": 38976,
            "time": 17.399942,
            "velocity": 0.4881889763779528
          },
          {
            "duration": 0.04285700000000148,
            "durationTicks": 96,
            "midi": 32,
            "name": "G#1",
            "ticks": 38976,
            "time": 17.399942,
            "velocity": 0.4881889763779528
          },
          {
            "duration": 0.04285700000000148,
            "durationTicks": 96,
            "midi": 33,
            "name": "A1",
            "ticks": 38976,
            "time": 17.399942,
            "velocity": 0.4881889763779528
          },
          {
            "duration": 0.04285700000000148,
            "durationTicks": 96,
            "midi": 38,
            "name": "D2",
            "ticks": 38976,
            "time": 17.399942,
            "velocity": 0.4881889763779528
          },
          {
            "duration": 0.04285700000000148,
            "durationTicks": 96,
            "midi": 33,
            "name": "A1",
            "ticks": 38976,
            "time": 17.399942,
            "velocity": 0.4881889763779528
          },
          {
            "duration": 0.04285700000000148,
            "durationTicks": 96,
            "midi": 33,
            "name": "A1",
            "ticks": 38976,
            "time": 17.399942,
            "velocity": 0.4881889763779528
          },
          {
            "duration": 0.04285700000000148,
            "durationTicks": 96,
            "midi": 38,
            "name": "D2",
            "ticks": 38976,
            "time": 17.399942,
            "velocity": 0.4881889763779528
          },
          {
            "duration": 0.04285700000000148,
            "durationTicks": 96,
            "midi": 32,
            "name": "G#1",
            "ticks": 38976,
            "time": 17.399942,
            "velocity": 0.4881889763779528
          },
          {
            "duration": 0.04285700000000148,
            "durationTicks": 96,
            "midi": 38,
            "name": "D2",
            "ticks": 38976,
            "time": 17.399942,
            "velocity": 0.4881889763779528
          },
          {
            "duration": 0.04285700000000148,
            "durationTicks": 96,
            "midi": 33,
            "name": "A1",
            "ticks": 38976,
            "time": 17.399942,
            "velocity": 0.4881889763779528
          },
          {
            "duration": 0.04285700000000148,
            "durationTicks": 96,
            "midi": 32,
            "name": "G#1",
            "ticks": 38976,
            "time": 17.399942,
            "velocity": 0.4881889763779528
          },
          {
            "duration": 0.04285700000000148,
            "durationTicks": 96,
            "midi": 33,
            "name": "A1",
            "ticks": 38976,
            "time": 17.399942,
            "velocity": 0.4881889763779528
          },
          {
            "duration": 0.04285700000000148,
            "durationTicks": 96,
            "midi": 33,
            "name": "A1",
            "ticks": 38976,
            "time": 17.399942,
            "velocity": 0.4881889763779528
          },
          {
            "duration": 0.04285700000000148,
            "durationTicks": 96,
            "midi": 33,
            "name": "A1",
            "ticks": 38976,
            "time": 17.399942,
            "velocity": 0.4881889763779528
          },
          {
            "duration": 0.04285700000000148,
            "durationTicks": 96,
            "midi": 32,
            "name": "G#1",
            "ticks": 38976,
            "time": 17.399942,
            "velocity": 0.4881889763779528
          },
          {
            "duration": 0.04285700000000148,
            "durationTicks": 96,
            "midi": 32,
            "name": "G#1",
            "ticks": 38976,
            "time": 17.399942,
            "velocity": 0.4881889763779528
          },
          {
            "duration": 0.04285700000000148,
            "durationTicks": 96,
            "midi": 38,
            "name": "D2",
            "ticks": 38976,
            "time": 17.399942,
            "velocity": 0.4881889763779528
          },
          {
            "duration": 0.04285700000000148,
            "durationTicks": 96,
            "midi": 32,
            "name": "G#1",
            "ticks": 38976,
            "time": 17.399942,
            "velocity": 0.4881889763779528
          },
          {
            "duration": 0.04285700000000148,
            "durationTicks": 96,
            "midi": 32,
            "name": "G#1",
            "ticks": 39360,
            "time": 17.571369999999998,
            "velocity": 0.4881889763779528
          },
          {
            "duration": 0.04285700000000148,
            "durationTicks": 96,
            "midi": 33,
            "name": "A1",
            "ticks": 39360,
            "time": 17.571369999999998,
            "velocity": 0.4881889763779528
          },
          {
            "duration": 0.04285700000000148,
            "durationTicks": 96,
            "midi": 32,
            "name": "G#1",
            "ticks": 39360,
            "time": 17.571369999999998,
            "velocity": 0.4881889763779528
          },
          {
            "duration": 0.04285700000000148,
            "durationTicks": 96,
            "midi": 32,
            "name": "G#1",
            "ticks": 39360,
            "time": 17.571369999999998,
            "velocity": 0.4881889763779528
          },
          {
            "duration": 0.04285700000000148,
            "durationTicks": 96,
            "midi": 32,
            "name": "G#1",
            "ticks": 39360,
            "time": 17.571369999999998,
            "velocity": 0.4881889763779528
          },
          {
            "duration": 0.04285700000000148,
            "durationTicks": 96,
            "midi": 40,
            "name": "E2",
            "ticks": 39360,
            "time": 17.571369999999998,
            "velocity": 0.4881889763779528
          },
          {
            "duration": 0.04285700000000148,
            "durationTicks": 96,
            "midi": 40,
            "name": "E2",
            "ticks": 39360,
            "time": 17.571369999999998,
            "velocity": 0.4881889763779528
          },
          {
            "duration": 0.04285700000000148,
            "durationTicks": 96,
            "midi": 33,
            "name": "A1",
            "ticks": 39360,
            "time": 17.571369999999998,
            "velocity": 0.4881889763779528
          },
          {
            "duration": 0.04285700000000148,
            "durationTicks": 96,
            "midi": 40,
            "name": "E2",
            "ticks": 39360,
            "time": 17.571369999999998,
            "velocity": 0.4881889763779528
          },
          {
            "duration": 0.04285700000000148,
            "durationTicks": 96,
            "midi": 33,
            "name": "A1",
            "ticks": 39360,
            "time": 17.571369999999998,
            "velocity": 0.4881889763779528
          },
          {
            "duration": 0.04285700000000148,
            "durationTicks": 96,
            "midi": 33,
            "name": "A1",
            "ticks": 39360,
            "time": 17.571369999999998,
            "velocity": 0.4881889763779528
          },
          {
            "duration": 0.04285700000000148,
            "durationTicks": 96,
            "midi": 32,
            "name": "G#1",
            "ticks": 39360,
            "time": 17.571369999999998,
            "velocity": 0.4881889763779528
          },
          {
            "duration": 0.04285700000000148,
            "durationTicks": 96,
            "midi": 33,
            "name": "A1",
            "ticks": 39360,
            "time": 17.571369999999998,
            "velocity": 0.4881889763779528
          },
          {
            "duration": 0.04285700000000148,
            "durationTicks": 96,
            "midi": 33,
            "name": "A1",
            "ticks": 39360,
            "time": 17.571369999999998,
            "velocity": 0.4881889763779528
          },
          {
            "duration": 0.04285700000000148,
            "durationTicks": 96,
            "midi": 40,
            "name": "E2",
            "ticks": 39360,
            "time": 17.571369999999998,
            "velocity": 0.4881889763779528
          },
          {
            "duration": 0.04285700000000148,
            "durationTicks": 96,
            "midi": 32,
            "name": "G#1",
            "ticks": 39360,
            "time": 17.571369999999998,
            "velocity": 0.4881889763779528
          },
          {
            "duration": 0.04285700000000148,
            "durationTicks": 96,
            "midi": 38,
            "name": "D2",
            "ticks": 39360,
            "time": 17.571369999999998,
            "velocity": 0.4881889763779528
          },
          {
            "duration": 0.04285700000000148,
            "durationTicks": 96,
            "midi": 38,
            "name": "D2",
            "ticks": 39360,
            "time": 17.571369999999998,
            "velocity": 0.4881889763779528
          },
          {
            "duration": 0.04285700000000148,
            "durationTicks": 96,
            "midi": 38,
            "name": "D2",
            "ticks": 39360,
            "time": 17.571369999999998,
            "velocity": 0.4881889763779528
          },
          {
            "duration": 0.04285700000000148,
            "durationTicks": 96,
            "midi": 32,
            "name": "G#1",
            "ticks": 39360,
            "time": 17.571369999999998,
            "velocity": 0.4881889763779528
          },
          {
            "duration": 0.04285700000000148,
            "durationTicks": 96,
            "midi": 33,
            "name": "A1",
            "ticks": 39360,
            "time": 17.571369999999998,
            "velocity": 0.4881889763779528
          },
          {
            "duration": 0.04285700000000148,
            "durationTicks": 96,
            "midi": 32,
            "name": "G#1",
            "ticks": 39360,
            "time": 17.571369999999998,
            "velocity": 0.4881889763779528
          },
          {
            "duration": 0.04285700000000148,
            "durationTicks": 96,
            "midi": 38,
            "name": "D2",
            "ticks": 39360,
            "time": 17.571369999999998,
            "velocity": 0.4881889763779528
          },
          {
            "duration": 0.04285700000000148,
            "durationTicks": 96,
            "midi": 38,
            "name": "D2",
            "ticks": 39360,
            "time": 17.571369999999998,
            "velocity": 0.4881889763779528
          },
          {
            "duration": 0.04285700000000148,
            "durationTicks": 96,
            "midi": 33,
            "name": "A1",
            "ticks": 39360,
            "time": 17.571369999999998,
            "velocity": 0.4881889763779528
          },
          {
            "duration": 0.04285700000000148,
            "durationTicks": 96,
            "midi": 40,
            "name": "E2",
            "ticks": 39360,
            "time": 17.571369999999998,
            "velocity": 0.4881889763779528
          },
          {
            "duration": 0.04285700000000148,
            "durationTicks": 96,
            "midi": 32,
            "name": "G#1",
            "ticks": 39360,
            "time": 17.571369999999998,
            "velocity": 0.4881889763779528
          },
          {
            "duration": 0.04285700000000148,
            "durationTicks": 96,
            "midi": 33,
            "name": "A1",
            "ticks": 39360,
            "time": 17.571369999999998,
            "velocity": 0.4881889763779528
          },
          {
            "duration": 0.04285700000000148,
            "durationTicks": 96,
            "midi": 33,
            "name": "A1",
            "ticks": 39360,
            "time": 17.571369999999998,
            "velocity": 0.4881889763779528
          },
          {
            "duration": 0.04285700000000148,
            "durationTicks": 96,
            "midi": 32,
            "name": "G#1",
            "ticks": 39360,
            "time": 17.571369999999998,
            "velocity": 0.4881889763779528
          },
          {
            "duration": 0.04285700000000148,
            "durationTicks": 96,
            "midi": 35,
            "name": "B1",
            "ticks": 40128,
            "time": 17.914226,
            "velocity": 0.4881889763779528
          },
          {
            "duration": 0.04285700000000148,
            "durationTicks": 96,
            "midi": 37,
            "name": "C#2",
            "ticks": 40128,
            "time": 17.914226,
            "velocity": 0.4881889763779528
          },
          {
            "duration": 0.04285700000000148,
            "durationTicks": 96,
            "midi": 35,
            "name": "B1",
            "ticks": 40128,
            "time": 17.914226,
            "velocity": 0.4881889763779528
          },
          {
            "duration": 0.04285700000000148,
            "durationTicks": 96,
            "midi": 37,
            "name": "C#2",
            "ticks": 40128,
            "time": 17.914226,
            "velocity": 0.4881889763779528
          },
          {
            "duration": 0.04285700000000148,
            "durationTicks": 96,
            "midi": 37,
            "name": "C#2",
            "ticks": 40128,
            "time": 17.914226,
            "velocity": 0.4881889763779528
          },
          {
            "duration": 0.04285700000000148,
            "durationTicks": 96,
            "midi": 35,
            "name": "B1",
            "ticks": 40128,
            "time": 17.914226,
            "velocity": 0.4881889763779528
          },
          {
            "duration": 0.04285700000000148,
            "durationTicks": 96,
            "midi": 35,
            "name": "B1",
            "ticks": 40128,
            "time": 17.914226,
            "velocity": 0.4881889763779528
          },
          {
            "duration": 0.04285700000000148,
            "durationTicks": 96,
            "midi": 37,
            "name": "C#2",
            "ticks": 40128,
            "time": 17.914226,
            "velocity": 0.4881889763779528
          },
          {
            "duration": 0.04285700000000148,
            "durationTicks": 96,
            "midi": 35,
            "name": "B1",
            "ticks": 40128,
            "time": 17.914226,
            "velocity": 0.4881889763779528
          },
          {
            "duration": 0.04285700000000148,
            "durationTicks": 96,
            "midi": 35,
            "name": "B1",
            "ticks": 40128,
            "time": 17.914226,
            "velocity": 0.4881889763779528
          },
          {
            "duration": 0.04285700000000148,
            "durationTicks": 96,
            "midi": 37,
            "name": "C#2",
            "ticks": 40128,
            "time": 17.914226,
            "velocity": 0.4881889763779528
          },
          {
            "duration": 0.04285700000000148,
            "durationTicks": 96,
            "midi": 37,
            "name": "C#2",
            "ticks": 40128,
            "time": 17.914226,
            "velocity": 0.4881889763779528
          },
          {
            "duration": 0.04285700000000148,
            "durationTicks": 96,
            "midi": 33,
            "name": "A1",
            "ticks": 41664,
            "time": 18.599937999999998,
            "velocity": 0.4881889763779528
          },
          {
            "duration": 0.04285700000000148,
            "durationTicks": 96,
            "midi": 38,
            "name": "D2",
            "ticks": 41664,
            "time": 18.599937999999998,
            "velocity": 0.4881889763779528
          },
          {
            "duration": 0.04285700000000148,
            "durationTicks": 96,
            "midi": 32,
            "name": "G#1",
            "ticks": 41664,
            "time": 18.599937999999998,
            "velocity": 0.4881889763779528
          },
          {
            "duration": 0.04285700000000148,
            "durationTicks": 96,
            "midi": 33,
            "name": "A1",
            "ticks": 41664,
            "time": 18.599937999999998,
            "velocity": 0.4881889763779528
          },
          {
            "duration": 0.04285700000000148,
            "durationTicks": 96,
            "midi": 32,
            "name": "G#1",
            "ticks": 41664,
            "time": 18.599937999999998,
            "velocity": 0.4881889763779528
          },
          {
            "duration": 0.04285700000000148,
            "durationTicks": 96,
            "midi": 33,
            "name": "A1",
            "ticks": 41664,
            "time": 18.599937999999998,
            "velocity": 0.4881889763779528
          },
          {
            "duration": 0.04285700000000148,
            "durationTicks": 96,
            "midi": 33,
            "name": "A1",
            "ticks": 41664,
            "time": 18.599937999999998,
            "velocity": 0.4881889763779528
          },
          {
            "duration": 0.04285700000000148,
            "durationTicks": 96,
            "midi": 33,
            "name": "A1",
            "ticks": 41664,
            "time": 18.599937999999998,
            "velocity": 0.4881889763779528
          },
          {
            "duration": 0.04285700000000148,
            "durationTicks": 96,
            "midi": 40,
            "name": "E2",
            "ticks": 41664,
            "time": 18.599937999999998,
            "velocity": 0.4881889763779528
          },
          {
            "duration": 0.04285700000000148,
            "durationTicks": 96,
            "midi": 32,
            "name": "G#1",
            "ticks": 41664,
            "time": 18.599937999999998,
            "velocity": 0.4881889763779528
          },
          {
            "duration": 0.04285700000000148,
            "durationTicks": 96,
            "midi": 38,
            "name": "D2",
            "ticks": 41664,
            "time": 18.599937999999998,
            "velocity": 0.4881889763779528
          },
          {
            "duration": 0.04285700000000148,
            "durationTicks": 96,
            "midi": 40,
            "name": "E2",
            "ticks": 41664,
            "time": 18.599937999999998,
            "velocity": 0.4881889763779528
          },
          {
            "duration": 0.04285700000000148,
            "durationTicks": 96,
            "midi": 32,
            "name": "G#1",
            "ticks": 41664,
            "time": 18.599937999999998,
            "velocity": 0.4881889763779528
          },
          {
            "duration": 0.04285700000000148,
            "durationTicks": 96,
            "midi": 40,
            "name": "E2",
            "ticks": 41664,
            "time": 18.599937999999998,
            "velocity": 0.4881889763779528
          },
          {
            "duration": 0.04285700000000148,
            "durationTicks": 96,
            "midi": 40,
            "name": "E2",
            "ticks": 41664,
            "time": 18.599937999999998,
            "velocity": 0.4881889763779528
          },
          {
            "duration": 0.04285700000000148,
            "durationTicks": 96,
            "midi": 33,
            "name": "A1",
            "ticks": 41664,
            "time": 18.599937999999998,
            "velocity": 0.4881889763779528
          },
          {
            "duration": 0.04285700000000148,
            "durationTicks": 96,
            "midi": 32,
            "name": "G#1",
            "ticks": 41664,
            "time": 18.599937999999998,
            "velocity": 0.4881889763779528
          },
          {
            "duration": 0.04285700000000148,
            "durationTicks": 96,
            "midi": 33,
            "name": "A1",
            "ticks": 41664,
            "time": 18.599937999999998,
            "velocity": 0.4881889763779528
          },
          {
            "duration": 0.04285700000000148,
            "durationTicks": 96,
            "midi": 38,
            "name": "D2",
            "ticks": 41664,
            "time": 18.599937999999998,
            "velocity": 0.4881889763779528
          },
          {
            "duration": 0.04285700000000148,
            "durationTicks": 96,
            "midi": 33,
            "name": "A1",
            "ticks": 41664,
            "time": 18.599937999999998,
            "velocity": 0.4881889763779528
          },
          {
            "duration": 0.04285700000000148,
            "durationTicks": 96,
            "midi": 40,
            "name": "E2",
            "ticks": 41664,
            "time": 18.599937999999998,
            "velocity": 0.4881889763779528
          },
          {
            "duration": 0.04285700000000148,
            "durationTicks": 96,
            "midi": 32,
            "name": "G#1",
            "ticks": 41664,
            "time": 18.599937999999998,
            "velocity": 0.4881889763779528
          },
          {
            "duration": 0.04285700000000148,
            "durationTicks": 96,
            "midi": 33,
            "name": "A1",
            "ticks": 41664,
            "time": 18.599937999999998,
            "velocity": 0.4881889763779528
          },
          {
            "duration": 0.04285700000000148,
            "durationTicks": 96,
            "midi": 32,
            "name": "G#1",
            "ticks": 41664,
            "time": 18.599937999999998,
            "velocity": 0.4881889763779528
          },
          {
            "duration": 0.04285700000000148,
            "durationTicks": 96,
            "midi": 32,
            "name": "G#1",
            "ticks": 41664,
            "time": 18.599937999999998,
            "velocity": 0.4881889763779528
          },
          {
            "duration": 0.04285700000000148,
            "durationTicks": 96,
            "midi": 33,
            "name": "A1",
            "ticks": 41664,
            "time": 18.599937999999998,
            "velocity": 0.4881889763779528
          },
          {
            "duration": 0.04285700000000148,
            "durationTicks": 96,
            "midi": 38,
            "name": "D2",
            "ticks": 41664,
            "time": 18.599937999999998,
            "velocity": 0.4881889763779528
          },
          {
            "duration": 0.04285700000000148,
            "durationTicks": 96,
            "midi": 38,
            "name": "D2",
            "ticks": 41664,
            "time": 18.599937999999998,
            "velocity": 0.4881889763779528
          },
          {
            "duration": 0.04285700000000148,
            "durationTicks": 96,
            "midi": 32,
            "name": "G#1",
            "ticks": 41664,
            "time": 18.599937999999998,
            "velocity": 0.4881889763779528
          },
          {
            "duration": 0.04285700000000148,
            "durationTicks": 96,
            "midi": 32,
            "name": "G#1",
            "ticks": 41664,
            "time": 18.599937999999998,
            "velocity": 0.4881889763779528
          },
          {
            "duration": 0.042856999999997925,
            "durationTicks": 96,
            "midi": 35,
            "name": "B1",
            "ticks": 43200,
            "time": 19.28565,
            "velocity": 0.4881889763779528
          },
          {
            "duration": 0.042856999999997925,
            "durationTicks": 96,
            "midi": 37,
            "name": "C#2",
            "ticks": 43200,
            "time": 19.28565,
            "velocity": 0.4881889763779528
          },
          {
            "duration": 0.042856999999997925,
            "durationTicks": 96,
            "midi": 35,
            "name": "B1",
            "ticks": 43200,
            "time": 19.28565,
            "velocity": 0.4881889763779528
          },
          {
            "duration": 0.042856999999997925,
            "durationTicks": 96,
            "midi": 37,
            "name": "C#2",
            "ticks": 43200,
            "time": 19.28565,
            "velocity": 0.4881889763779528
          },
          {
            "duration": 0.042856999999997925,
            "durationTicks": 96,
            "midi": 35,
            "name": "B1",
            "ticks": 43200,
            "time": 19.28565,
            "velocity": 0.4881889763779528
          },
          {
            "duration": 0.042856999999997925,
            "durationTicks": 96,
            "midi": 37,
            "name": "C#2",
            "ticks": 43200,
            "time": 19.28565,
            "velocity": 0.4881889763779528
          },
          {
            "duration": 0.042856999999997925,
            "durationTicks": 96,
            "midi": 37,
            "name": "C#2",
            "ticks": 43200,
            "time": 19.28565,
            "velocity": 0.4881889763779528
          },
          {
            "duration": 0.042856999999997925,
            "durationTicks": 96,
            "midi": 37,
            "name": "C#2",
            "ticks": 43200,
            "time": 19.28565,
            "velocity": 0.4881889763779528
          },
          {
            "duration": 0.042856999999997925,
            "durationTicks": 96,
            "midi": 35,
            "name": "B1",
            "ticks": 43200,
            "time": 19.28565,
            "velocity": 0.4881889763779528
          },
          {
            "duration": 0.042856999999997925,
            "durationTicks": 96,
            "midi": 37,
            "name": "C#2",
            "ticks": 43200,
            "time": 19.28565,
            "velocity": 0.4881889763779528
          },
          {
            "duration": 0.042856999999997925,
            "durationTicks": 96,
            "midi": 35,
            "name": "B1",
            "ticks": 43200,
            "time": 19.28565,
            "velocity": 0.4881889763779528
          },
          {
            "duration": 0.042856999999997925,
            "durationTicks": 96,
            "midi": 35,
            "name": "B1",
            "ticks": 43200,
            "time": 19.28565,
            "velocity": 0.4881889763779528
          },
          {
            "duration": 0.04285700000000148,
            "durationTicks": 96,
            "midi": 38,
            "name": "D2",
            "ticks": 45120,
            "time": 20.142789999999998,
            "velocity": 0.4881889763779528
          },
          {
            "duration": 0.04285700000000148,
            "durationTicks": 96,
            "midi": 33,
            "name": "A1",
            "ticks": 45120,
            "time": 20.142789999999998,
            "velocity": 0.4881889763779528
          },
          {
            "duration": 0.04285700000000148,
            "durationTicks": 96,
            "midi": 33,
            "name": "A1",
            "ticks": 45120,
            "time": 20.142789999999998,
            "velocity": 0.4881889763779528
          },
          {
            "duration": 0.04285700000000148,
            "durationTicks": 96,
            "midi": 32,
            "name": "G#1",
            "ticks": 45120,
            "time": 20.142789999999998,
            "velocity": 0.4881889763779528
          },
          {
            "duration": 0.04285700000000148,
            "durationTicks": 96,
            "midi": 33,
            "name": "A1",
            "ticks": 45120,
            "time": 20.142789999999998,
            "velocity": 0.4881889763779528
          },
          {
            "duration": 0.04285700000000148,
            "durationTicks": 96,
            "midi": 40,
            "name": "E2",
            "ticks": 45120,
            "time": 20.142789999999998,
            "velocity": 0.4881889763779528
          },
          {
            "duration": 0.04285700000000148,
            "durationTicks": 96,
            "midi": 33,
            "name": "A1",
            "ticks": 45120,
            "time": 20.142789999999998,
            "velocity": 0.4881889763779528
          },
          {
            "duration": 0.04285700000000148,
            "durationTicks": 96,
            "midi": 32,
            "name": "G#1",
            "ticks": 45120,
            "time": 20.142789999999998,
            "velocity": 0.4881889763779528
          },
          {
            "duration": 0.04285700000000148,
            "durationTicks": 96,
            "midi": 40,
            "name": "E2",
            "ticks": 45120,
            "time": 20.142789999999998,
            "velocity": 0.4881889763779528
          },
          {
            "duration": 0.04285700000000148,
            "durationTicks": 96,
            "midi": 33,
            "name": "A1",
            "ticks": 45120,
            "time": 20.142789999999998,
            "velocity": 0.4881889763779528
          },
          {
            "duration": 0.04285700000000148,
            "durationTicks": 96,
            "midi": 40,
            "name": "E2",
            "ticks": 45120,
            "time": 20.142789999999998,
            "velocity": 0.4881889763779528
          },
          {
            "duration": 0.04285700000000148,
            "durationTicks": 96,
            "midi": 32,
            "name": "G#1",
            "ticks": 45120,
            "time": 20.142789999999998,
            "velocity": 0.4881889763779528
          },
          {
            "duration": 0.04285700000000148,
            "durationTicks": 96,
            "midi": 32,
            "name": "G#1",
            "ticks": 45120,
            "time": 20.142789999999998,
            "velocity": 0.4881889763779528
          },
          {
            "duration": 0.04285700000000148,
            "durationTicks": 96,
            "midi": 38,
            "name": "D2",
            "ticks": 45120,
            "time": 20.142789999999998,
            "velocity": 0.4881889763779528
          },
          {
            "duration": 0.04285700000000148,
            "durationTicks": 96,
            "midi": 32,
            "name": "G#1",
            "ticks": 45120,
            "time": 20.142789999999998,
            "velocity": 0.4881889763779528
          },
          {
            "duration": 0.04285700000000148,
            "durationTicks": 96,
            "midi": 33,
            "name": "A1",
            "ticks": 45120,
            "time": 20.142789999999998,
            "velocity": 0.4881889763779528
          },
          {
            "duration": 0.04285700000000148,
            "durationTicks": 96,
            "midi": 40,
            "name": "E2",
            "ticks": 45120,
            "time": 20.142789999999998,
            "velocity": 0.4881889763779528
          },
          {
            "duration": 0.04285700000000148,
            "durationTicks": 96,
            "midi": 32,
            "name": "G#1",
            "ticks": 45120,
            "time": 20.142789999999998,
            "velocity": 0.4881889763779528
          },
          {
            "duration": 0.04285700000000148,
            "durationTicks": 96,
            "midi": 32,
            "name": "G#1",
            "ticks": 45120,
            "time": 20.142789999999998,
            "velocity": 0.4881889763779528
          },
          {
            "duration": 0.04285700000000148,
            "durationTicks": 96,
            "midi": 38,
            "name": "D2",
            "ticks": 45120,
            "time": 20.142789999999998,
            "velocity": 0.4881889763779528
          },
          {
            "duration": 0.04285700000000148,
            "durationTicks": 96,
            "midi": 33,
            "name": "A1",
            "ticks": 45120,
            "time": 20.142789999999998,
            "velocity": 0.4881889763779528
          },
          {
            "duration": 0.04285700000000148,
            "durationTicks": 96,
            "midi": 33,
            "name": "A1",
            "ticks": 45120,
            "time": 20.142789999999998,
            "velocity": 0.4881889763779528
          },
          {
            "duration": 0.04285700000000148,
            "durationTicks": 96,
            "midi": 40,
            "name": "E2",
            "ticks": 45120,
            "time": 20.142789999999998,
            "velocity": 0.4881889763779528
          },
          {
            "duration": 0.04285700000000148,
            "durationTicks": 96,
            "midi": 33,
            "name": "A1",
            "ticks": 45120,
            "time": 20.142789999999998,
            "velocity": 0.4881889763779528
          },
          {
            "duration": 0.04285700000000148,
            "durationTicks": 96,
            "midi": 38,
            "name": "D2",
            "ticks": 45120,
            "time": 20.142789999999998,
            "velocity": 0.4881889763779528
          },
          {
            "duration": 0.04285700000000148,
            "durationTicks": 96,
            "midi": 33,
            "name": "A1",
            "ticks": 45120,
            "time": 20.142789999999998,
            "velocity": 0.4881889763779528
          },
          {
            "duration": 0.04285700000000148,
            "durationTicks": 96,
            "midi": 32,
            "name": "G#1",
            "ticks": 45120,
            "time": 20.142789999999998,
            "velocity": 0.4881889763779528
          },
          {
            "duration": 0.04285700000000148,
            "durationTicks": 96,
            "midi": 32,
            "name": "G#1",
            "ticks": 45120,
            "time": 20.142789999999998,
            "velocity": 0.4881889763779528
          },
          {
            "duration": 0.04285700000000148,
            "durationTicks": 96,
            "midi": 32,
            "name": "G#1",
            "ticks": 45120,
            "time": 20.142789999999998,
            "velocity": 0.4881889763779528
          },
          {
            "duration": 0.04285700000000148,
            "durationTicks": 96,
            "midi": 38,
            "name": "D2",
            "ticks": 45120,
            "time": 20.142789999999998,
            "velocity": 0.4881889763779528
          },
          {
            "duration": 0.042856999999997925,
            "durationTicks": 96,
            "midi": 32,
            "name": "G#1",
            "ticks": 45504,
            "time": 20.314218,
            "velocity": 0.4881889763779528
          },
          {
            "duration": 0.042856999999997925,
            "durationTicks": 96,
            "midi": 32,
            "name": "G#1",
            "ticks": 45504,
            "time": 20.314218,
            "velocity": 0.4881889763779528
          },
          {
            "duration": 0.042856999999997925,
            "durationTicks": 96,
            "midi": 32,
            "name": "G#1",
            "ticks": 45504,
            "time": 20.314218,
            "velocity": 0.4881889763779528
          },
          {
            "duration": 0.042856999999997925,
            "durationTicks": 96,
            "midi": 32,
            "name": "G#1",
            "ticks": 45504,
            "time": 20.314218,
            "velocity": 0.4881889763779528
          },
          {
            "duration": 0.042856999999997925,
            "durationTicks": 96,
            "midi": 33,
            "name": "A1",
            "ticks": 45504,
            "time": 20.314218,
            "velocity": 0.4881889763779528
          },
          {
            "duration": 0.042856999999997925,
            "durationTicks": 96,
            "midi": 40,
            "name": "E2",
            "ticks": 45504,
            "time": 20.314218,
            "velocity": 0.4881889763779528
          },
          {
            "duration": 0.042856999999997925,
            "durationTicks": 96,
            "midi": 38,
            "name": "D2",
            "ticks": 45504,
            "time": 20.314218,
            "velocity": 0.4881889763779528
          },
          {
            "duration": 0.042856999999997925,
            "durationTicks": 96,
            "midi": 33,
            "name": "A1",
            "ticks": 45504,
            "time": 20.314218,
            "velocity": 0.4881889763779528
          },
          {
            "duration": 0.042856999999997925,
            "durationTicks": 96,
            "midi": 32,
            "name": "G#1",
            "ticks": 45504,
            "time": 20.314218,
            "velocity": 0.4881889763779528
          },
          {
            "duration": 0.042856999999997925,
            "durationTicks": 96,
            "midi": 38,
            "name": "D2",
            "ticks": 45504,
            "time": 20.314218,
            "velocity": 0.4881889763779528
          },
          {
            "duration": 0.042856999999997925,
            "durationTicks": 96,
            "midi": 32,
            "name": "G#1",
            "ticks": 45504,
            "time": 20.314218,
            "velocity": 0.4881889763779528
          },
          {
            "duration": 0.042856999999997925,
            "durationTicks": 96,
            "midi": 40,
            "name": "E2",
            "ticks": 45504,
            "time": 20.314218,
            "velocity": 0.4881889763779528
          },
          {
            "duration": 0.042856999999997925,
            "durationTicks": 96,
            "midi": 32,
            "name": "G#1",
            "ticks": 45504,
            "time": 20.314218,
            "velocity": 0.4881889763779528
          },
          {
            "duration": 0.042856999999997925,
            "durationTicks": 96,
            "midi": 33,
            "name": "A1",
            "ticks": 45504,
            "time": 20.314218,
            "velocity": 0.4881889763779528
          },
          {
            "duration": 0.042856999999997925,
            "durationTicks": 96,
            "midi": 40,
            "name": "E2",
            "ticks": 45504,
            "time": 20.314218,
            "velocity": 0.4881889763779528
          },
          {
            "duration": 0.042856999999997925,
            "durationTicks": 96,
            "midi": 38,
            "name": "D2",
            "ticks": 45504,
            "time": 20.314218,
            "velocity": 0.4881889763779528
          },
          {
            "duration": 0.042856999999997925,
            "durationTicks": 96,
            "midi": 33,
            "name": "A1",
            "ticks": 45504,
            "time": 20.314218,
            "velocity": 0.4881889763779528
          },
          {
            "duration": 0.042856999999997925,
            "durationTicks": 96,
            "midi": 33,
            "name": "A1",
            "ticks": 45504,
            "time": 20.314218,
            "velocity": 0.4881889763779528
          },
          {
            "duration": 0.042856999999997925,
            "durationTicks": 96,
            "midi": 40,
            "name": "E2",
            "ticks": 45504,
            "time": 20.314218,
            "velocity": 0.4881889763779528
          },
          {
            "duration": 0.042856999999997925,
            "durationTicks": 96,
            "midi": 32,
            "name": "G#1",
            "ticks": 45504,
            "time": 20.314218,
            "velocity": 0.4881889763779528
          },
          {
            "duration": 0.042856999999997925,
            "durationTicks": 96,
            "midi": 40,
            "name": "E2",
            "ticks": 45504,
            "time": 20.314218,
            "velocity": 0.4881889763779528
          },
          {
            "duration": 0.042856999999997925,
            "durationTicks": 96,
            "midi": 33,
            "name": "A1",
            "ticks": 45504,
            "time": 20.314218,
            "velocity": 0.4881889763779528
          },
          {
            "duration": 0.042856999999997925,
            "durationTicks": 96,
            "midi": 32,
            "name": "G#1",
            "ticks": 45504,
            "time": 20.314218,
            "velocity": 0.4881889763779528
          },
          {
            "duration": 0.042856999999997925,
            "durationTicks": 96,
            "midi": 33,
            "name": "A1",
            "ticks": 45504,
            "time": 20.314218,
            "velocity": 0.4881889763779528
          },
          {
            "duration": 0.042856999999997925,
            "durationTicks": 96,
            "midi": 38,
            "name": "D2",
            "ticks": 45504,
            "time": 20.314218,
            "velocity": 0.4881889763779528
          },
          {
            "duration": 0.042856999999997925,
            "durationTicks": 96,
            "midi": 33,
            "name": "A1",
            "ticks": 45504,
            "time": 20.314218,
            "velocity": 0.4881889763779528
          },
          {
            "duration": 0.042856999999997925,
            "durationTicks": 96,
            "midi": 32,
            "name": "G#1",
            "ticks": 45504,
            "time": 20.314218,
            "velocity": 0.4881889763779528
          },
          {
            "duration": 0.042856999999997925,
            "durationTicks": 96,
            "midi": 38,
            "name": "D2",
            "ticks": 45504,
            "time": 20.314218,
            "velocity": 0.4881889763779528
          },
          {
            "duration": 0.042856999999997925,
            "durationTicks": 96,
            "midi": 33,
            "name": "A1",
            "ticks": 45504,
            "time": 20.314218,
            "velocity": 0.4881889763779528
          },
          {
            "duration": 0.042856999999997925,
            "durationTicks": 96,
            "midi": 33,
            "name": "A1",
            "ticks": 45504,
            "time": 20.314218,
            "velocity": 0.4881889763779528
          },
          {
            "duration": 0.04285700000000148,
            "durationTicks": 96,
            "midi": 37,
            "name": "C#2",
            "ticks": 46272,
            "time": 20.657073999999998,
            "velocity": 0.4881889763779528
          },
          {
            "duration": 0.04285700000000148,
            "durationTicks": 96,
            "midi": 35,
            "name": "B1",
            "ticks": 46272,
            "time": 20.657073999999998,
            "velocity": 0.4881889763779528
          },
          {
            "duration": 0.04285700000000148,
            "durationTicks": 96,
            "midi": 37,
            "name": "C#2",
            "ticks": 46272,
            "time": 20.657073999999998,
            "velocity": 0.4881889763779528
          },
          {
            "duration": 0.04285700000000148,
            "durationTicks": 96,
            "midi": 35,
            "name": "B1",
            "ticks": 46272,
            "time": 20.657073999999998,
            "velocity": 0.4881889763779528
          },
          {
            "duration": 0.04285700000000148,
            "durationTicks": 96,
            "midi": 35,
            "name": "B1",
            "ticks": 46272,
            "time": 20.657073999999998,
            "velocity": 0.4881889763779528
          },
          {
            "duration": 0.04285700000000148,
            "durationTicks": 96,
            "midi": 35,
            "name": "B1",
            "ticks": 46272,
            "time": 20.657073999999998,
            "velocity": 0.4881889763779528
          },
          {
            "duration": 0.04285700000000148,
            "durationTicks": 96,
            "midi": 37,
            "name": "C#2",
            "ticks": 46272,
            "time": 20.657073999999998,
            "velocity": 0.4881889763779528
          },
          {
            "duration": 0.04285700000000148,
            "durationTicks": 96,
            "midi": 37,
            "name": "C#2",
            "ticks": 46272,
            "time": 20.657073999999998,
            "velocity": 0.4881889763779528
          },
          {
            "duration": 0.04285700000000148,
            "durationTicks": 96,
            "midi": 37,
            "name": "C#2",
            "ticks": 46272,
            "time": 20.657073999999998,
            "velocity": 0.4881889763779528
          },
          {
            "duration": 0.04285700000000148,
            "durationTicks": 96,
            "midi": 35,
            "name": "B1",
            "ticks": 46272,
            "time": 20.657073999999998,
            "velocity": 0.4881889763779528
          },
          {
            "duration": 0.04285700000000148,
            "durationTicks": 96,
            "midi": 37,
            "name": "C#2",
            "ticks": 46272,
            "time": 20.657073999999998,
            "velocity": 0.4881889763779528
          },
          {
            "duration": 0.04285700000000148,
            "durationTicks": 96,
            "midi": 35,
            "name": "B1",
            "ticks": 46272,
            "time": 20.657073999999998,
            "velocity": 0.4881889763779528
          },
          {
            "duration": 0.042856999999997925,
            "durationTicks": 96,
            "midi": 32,
            "name": "G#1",
            "ticks": 47808,
            "time": 21.342786,
            "velocity": 0.4881889763779528
          },
          {
            "duration": 0.042856999999997925,
            "durationTicks": 96,
            "midi": 38,
            "name": "D2",
            "ticks": 47808,
            "time": 21.342786,
            "velocity": 0.4881889763779528
          },
          {
            "duration": 0.042856999999997925,
            "durationTicks": 96,
            "midi": 32,
            "name": "G#1",
            "ticks": 47808,
            "time": 21.342786,
            "velocity": 0.4881889763779528
          },
          {
            "duration": 0.042856999999997925,
            "durationTicks": 96,
            "midi": 33,
            "name": "A1",
            "ticks": 47808,
            "time": 21.342786,
            "velocity": 0.4881889763779528
          },
          {
            "duration": 0.042856999999997925,
            "durationTicks": 96,
            "midi": 33,
            "name": "A1",
            "ticks": 47808,
            "time": 21.342786,
            "velocity": 0.4881889763779528
          },
          {
            "duration": 0.042856999999997925,
            "durationTicks": 96,
            "midi": 32,
            "name": "G#1",
            "ticks": 47808,
            "time": 21.342786,
            "velocity": 0.4881889763779528
          },
          {
            "duration": 0.042856999999997925,
            "durationTicks": 96,
            "midi": 33,
            "name": "A1",
            "ticks": 47808,
            "time": 21.342786,
            "velocity": 0.4881889763779528
          },
          {
            "duration": 0.042856999999997925,
            "durationTicks": 96,
            "midi": 32,
            "name": "G#1",
            "ticks": 47808,
            "time": 21.342786,
            "velocity": 0.4881889763779528
          },
          {
            "duration": 0.042856999999997925,
            "durationTicks": 96,
            "midi": 33,
            "name": "A1",
            "ticks": 47808,
            "time": 21.342786,
            "velocity": 0.4881889763779528
          },
          {
            "duration": 0.042856999999997925,
            "durationTicks": 96,
            "midi": 40,
            "name": "E2",
            "ticks": 47808,
            "time": 21.342786,
            "velocity": 0.4881889763779528
          },
          {
            "duration": 0.042856999999997925,
            "durationTicks": 96,
            "midi": 33,
            "name": "A1",
            "ticks": 47808,
            "time": 21.342786,
            "velocity": 0.4881889763779528
          },
          {
            "duration": 0.042856999999997925,
            "durationTicks": 96,
            "midi": 40,
            "name": "E2",
            "ticks": 47808,
            "time": 21.342786,
            "velocity": 0.4881889763779528
          },
          {
            "duration": 0.042856999999997925,
            "durationTicks": 96,
            "midi": 32,
            "name": "G#1",
            "ticks": 47808,
            "time": 21.342786,
            "velocity": 0.4881889763779528
          },
          {
            "duration": 0.042856999999997925,
            "durationTicks": 96,
            "midi": 38,
            "name": "D2",
            "ticks": 47808,
            "time": 21.342786,
            "velocity": 0.4881889763779528
          },
          {
            "duration": 0.042856999999997925,
            "durationTicks": 96,
            "midi": 40,
            "name": "E2",
            "ticks": 47808,
            "time": 21.342786,
            "velocity": 0.4881889763779528
          },
          {
            "duration": 0.042856999999997925,
            "durationTicks": 96,
            "midi": 32,
            "name": "G#1",
            "ticks": 47808,
            "time": 21.342786,
            "velocity": 0.4881889763779528
          },
          {
            "duration": 0.042856999999997925,
            "durationTicks": 96,
            "midi": 38,
            "name": "D2",
            "ticks": 47808,
            "time": 21.342786,
            "velocity": 0.4881889763779528
          },
          {
            "duration": 0.042856999999997925,
            "durationTicks": 96,
            "midi": 32,
            "name": "G#1",
            "ticks": 47808,
            "time": 21.342786,
            "velocity": 0.4881889763779528
          },
          {
            "duration": 0.042856999999997925,
            "durationTicks": 96,
            "midi": 32,
            "name": "G#1",
            "ticks": 47808,
            "time": 21.342786,
            "velocity": 0.4881889763779528
          },
          {
            "duration": 0.042856999999997925,
            "durationTicks": 96,
            "midi": 33,
            "name": "A1",
            "ticks": 47808,
            "time": 21.342786,
            "velocity": 0.4881889763779528
          },
          {
            "duration": 0.042856999999997925,
            "durationTicks": 96,
            "midi": 33,
            "name": "A1",
            "ticks": 47808,
            "time": 21.342786,
            "velocity": 0.4881889763779528
          },
          {
            "duration": 0.042856999999997925,
            "durationTicks": 96,
            "midi": 32,
            "name": "G#1",
            "ticks": 47808,
            "time": 21.342786,
            "velocity": 0.4881889763779528
          },
          {
            "duration": 0.042856999999997925,
            "durationTicks": 96,
            "midi": 33,
            "name": "A1",
            "ticks": 47808,
            "time": 21.342786,
            "velocity": 0.4881889763779528
          },
          {
            "duration": 0.042856999999997925,
            "durationTicks": 96,
            "midi": 40,
            "name": "E2",
            "ticks": 47808,
            "time": 21.342786,
            "velocity": 0.4881889763779528
          },
          {
            "duration": 0.042856999999997925,
            "durationTicks": 96,
            "midi": 32,
            "name": "G#1",
            "ticks": 47808,
            "time": 21.342786,
            "velocity": 0.4881889763779528
          },
          {
            "duration": 0.042856999999997925,
            "durationTicks": 96,
            "midi": 38,
            "name": "D2",
            "ticks": 47808,
            "time": 21.342786,
            "velocity": 0.4881889763779528
          },
          {
            "duration": 0.042856999999997925,
            "durationTicks": 96,
            "midi": 33,
            "name": "A1",
            "ticks": 47808,
            "time": 21.342786,
            "velocity": 0.4881889763779528
          },
          {
            "duration": 0.042856999999997925,
            "durationTicks": 96,
            "midi": 40,
            "name": "E2",
            "ticks": 47808,
            "time": 21.342786,
            "velocity": 0.4881889763779528
          },
          {
            "duration": 0.042856999999997925,
            "durationTicks": 96,
            "midi": 38,
            "name": "D2",
            "ticks": 47808,
            "time": 21.342786,
            "velocity": 0.4881889763779528
          },
          {
            "duration": 0.042856999999997925,
            "durationTicks": 96,
            "midi": 33,
            "name": "A1",
            "ticks": 47808,
            "time": 21.342786,
            "velocity": 0.4881889763779528
          },
          {
            "duration": 0.04285700000000148,
            "durationTicks": 96,
            "midi": 37,
            "name": "C#2",
            "ticks": 49344,
            "time": 22.028498,
            "velocity": 0.4881889763779528
          },
          {
            "duration": 0.04285700000000148,
            "durationTicks": 96,
            "midi": 37,
            "name": "C#2",
            "ticks": 49344,
            "time": 22.028498,
            "velocity": 0.4881889763779528
          },
          {
            "duration": 0.04285700000000148,
            "durationTicks": 96,
            "midi": 35,
            "name": "B1",
            "ticks": 49344,
            "time": 22.028498,
            "velocity": 0.4881889763779528
          },
          {
            "duration": 0.04285700000000148,
            "durationTicks": 96,
            "midi": 37,
            "name": "C#2",
            "ticks": 49344,
            "time": 22.028498,
            "velocity": 0.4881889763779528
          },
          {
            "duration": 0.04285700000000148,
            "durationTicks": 96,
            "midi": 35,
            "name": "B1",
            "ticks": 49344,
            "time": 22.028498,
            "velocity": 0.4881889763779528
          },
          {
            "duration": 0.04285700000000148,
            "durationTicks": 96,
            "midi": 35,
            "name": "B1",
            "ticks": 49344,
            "time": 22.028498,
            "velocity": 0.4881889763779528
          },
          {
            "duration": 0.04285700000000148,
            "durationTicks": 96,
            "midi": 37,
            "name": "C#2",
            "ticks": 49344,
            "time": 22.028498,
            "velocity": 0.4881889763779528
          },
          {
            "duration": 0.04285700000000148,
            "durationTicks": 96,
            "midi": 37,
            "name": "C#2",
            "ticks": 49344,
            "time": 22.028498,
            "velocity": 0.4881889763779528
          },
          {
            "duration": 0.04285700000000148,
            "durationTicks": 96,
            "midi": 35,
            "name": "B1",
            "ticks": 49344,
            "time": 22.028498,
            "velocity": 0.4881889763779528
          },
          {
            "duration": 0.04285700000000148,
            "durationTicks": 96,
            "midi": 35,
            "name": "B1",
            "ticks": 49344,
            "time": 22.028498,
            "velocity": 0.4881889763779528
          },
          {
            "duration": 0.04285700000000148,
            "durationTicks": 96,
            "midi": 35,
            "name": "B1",
            "ticks": 49344,
            "time": 22.028498,
            "velocity": 0.4881889763779528
          },
          {
            "duration": 0.04285700000000148,
            "durationTicks": 96,
            "midi": 37,
            "name": "C#2",
            "ticks": 49344,
            "time": 22.028498,
            "velocity": 0.4881889763779528
          },
          {
            "duration": 0.042856999999997925,
            "durationTicks": 96,
            "midi": 33,
            "name": "A1",
            "ticks": 51264,
            "time": 22.885638,
            "velocity": 0.4881889763779528
          },
          {
            "duration": 0.042856999999997925,
            "durationTicks": 96,
            "midi": 38,
            "name": "D2",
            "ticks": 51264,
            "time": 22.885638,
            "velocity": 0.4881889763779528
          },
          {
            "duration": 0.042856999999997925,
            "durationTicks": 96,
            "midi": 33,
            "name": "A1",
            "ticks": 51264,
            "time": 22.885638,
            "velocity": 0.4881889763779528
          },
          {
            "duration": 0.042856999999997925,
            "durationTicks": 96,
            "midi": 32,
            "name": "G#1",
            "ticks": 51264,
            "time": 22.885638,
            "velocity": 0.4881889763779528
          },
          {
            "duration": 0.042856999999997925,
            "durationTicks": 96,
            "midi": 32,
            "name": "G#1",
            "ticks": 51264,
            "time": 22.885638,
            "velocity": 0.4881889763779528
          },
          {
            "duration": 0.042856999999997925,
            "durationTicks": 96,
            "midi": 32,
            "name": "G#1",
            "ticks": 51264,
            "time": 22.885638,
            "velocity": 0.4881889763779528
          },
          {
            "duration": 0.042856999999997925,
            "durationTicks": 96,
            "midi": 33,
            "name": "A1",
            "ticks": 51264,
            "time": 22.885638,
            "velocity": 0.4881889763779528
          },
          {
            "duration": 0.042856999999997925,
            "durationTicks": 96,
            "midi": 32,
            "name": "G#1",
            "ticks": 51264,
            "time": 22.885638,
            "velocity": 0.4881889763779528
          },
          {
            "duration": 0.042856999999997925,
            "durationTicks": 96,
            "midi": 33,
            "name": "A1",
            "ticks": 51264,
            "time": 22.885638,
            "velocity": 0.4881889763779528
          },
          {
            "duration": 0.042856999999997925,
            "durationTicks": 96,
            "midi": 32,
            "name": "G#1",
            "ticks": 51264,
            "time": 22.885638,
            "velocity": 0.4881889763779528
          },
          {
            "duration": 0.042856999999997925,
            "durationTicks": 96,
            "midi": 40,
            "name": "E2",
            "ticks": 51264,
            "time": 22.885638,
            "velocity": 0.4881889763779528
          },
          {
            "duration": 0.042856999999997925,
            "durationTicks": 96,
            "midi": 38,
            "name": "D2",
            "ticks": 51264,
            "time": 22.885638,
            "velocity": 0.4881889763779528
          },
          {
            "duration": 0.042856999999997925,
            "durationTicks": 96,
            "midi": 33,
            "name": "A1",
            "ticks": 51264,
            "time": 22.885638,
            "velocity": 0.4881889763779528
          },
          {
            "duration": 0.042856999999997925,
            "durationTicks": 96,
            "midi": 40,
            "name": "E2",
            "ticks": 51264,
            "time": 22.885638,
            "velocity": 0.4881889763779528
          },
          {
            "duration": 0.042856999999997925,
            "durationTicks": 96,
            "midi": 38,
            "name": "D2",
            "ticks": 51264,
            "time": 22.885638,
            "velocity": 0.4881889763779528
          },
          {
            "duration": 0.042856999999997925,
            "durationTicks": 96,
            "midi": 32,
            "name": "G#1",
            "ticks": 51264,
            "time": 22.885638,
            "velocity": 0.4881889763779528
          },
          {
            "duration": 0.042856999999997925,
            "durationTicks": 96,
            "midi": 40,
            "name": "E2",
            "ticks": 51264,
            "time": 22.885638,
            "velocity": 0.4881889763779528
          },
          {
            "duration": 0.042856999999997925,
            "durationTicks": 96,
            "midi": 33,
            "name": "A1",
            "ticks": 51264,
            "time": 22.885638,
            "velocity": 0.4881889763779528
          },
          {
            "duration": 0.042856999999997925,
            "durationTicks": 96,
            "midi": 40,
            "name": "E2",
            "ticks": 51264,
            "time": 22.885638,
            "velocity": 0.4881889763779528
          },
          {
            "duration": 0.042856999999997925,
            "durationTicks": 96,
            "midi": 33,
            "name": "A1",
            "ticks": 51264,
            "time": 22.885638,
            "velocity": 0.4881889763779528
          },
          {
            "duration": 0.042856999999997925,
            "durationTicks": 96,
            "midi": 33,
            "name": "A1",
            "ticks": 51264,
            "time": 22.885638,
            "velocity": 0.4881889763779528
          },
          {
            "duration": 0.042856999999997925,
            "durationTicks": 96,
            "midi": 38,
            "name": "D2",
            "ticks": 51264,
            "time": 22.885638,
            "velocity": 0.4881889763779528
          },
          {
            "duration": 0.042856999999997925,
            "durationTicks": 96,
            "midi": 33,
            "name": "A1",
            "ticks": 51264,
            "time": 22.885638,
            "velocity": 0.4881889763779528
          },
          {
            "duration": 0.042856999999997925,
            "durationTicks": 96,
            "midi": 33,
            "name": "A1",
            "ticks": 51264,
            "time": 22.885638,
            "velocity": 0.4881889763779528
          },
          {
            "duration": 0.042856999999997925,
            "durationTicks": 96,
            "midi": 32,
            "name": "G#1",
            "ticks": 51264,
            "time": 22.885638,
            "velocity": 0.4881889763779528
          },
          {
            "duration": 0.042856999999997925,
            "durationTicks": 96,
            "midi": 32,
            "name": "G#1",
            "ticks": 51264,
            "time": 22.885638,
            "velocity": 0.4881889763779528
          },
          {
            "duration": 0.042856999999997925,
            "durationTicks": 96,
            "midi": 40,
            "name": "E2",
            "ticks": 51264,
            "time": 22.885638,
            "velocity": 0.4881889763779528
          },
          {
            "duration": 0.042856999999997925,
            "durationTicks": 96,
            "midi": 38,
            "name": "D2",
            "ticks": 51264,
            "time": 22.885638,
            "velocity": 0.4881889763779528
          },
          {
            "duration": 0.042856999999997925,
            "durationTicks": 96,
            "midi": 32,
            "name": "G#1",
            "ticks": 51264,
            "time": 22.885638,
            "velocity": 0.4881889763779528
          },
          {
            "duration": 0.042856999999997925,
            "durationTicks": 96,
            "midi": 32,
            "name": "G#1",
            "ticks": 51264,
            "time": 22.885638,
            "velocity": 0.4881889763779528
          },
          {
            "duration": 0.04285700000000148,
            "durationTicks": 96,
            "midi": 32,
            "name": "G#1",
            "ticks": 51648,
            "time": 23.057066,
            "velocity": 0.4881889763779528
          },
          {
            "duration": 0.04285700000000148,
            "durationTicks": 96,
            "midi": 38,
            "name": "D2",
            "ticks": 51648,
            "time": 23.057066,
            "velocity": 0.4881889763779528
          },
          {
            "duration": 0.04285700000000148,
            "durationTicks": 96,
            "midi": 32,
            "name": "G#1",
            "ticks": 51648,
            "time": 23.057066,
            "velocity": 0.4881889763779528
          },
          {
            "duration": 0.04285700000000148,
            "durationTicks": 96,
            "midi": 40,
            "name": "E2",
            "ticks": 51648,
            "time": 23.057066,
            "velocity": 0.4881889763779528
          },
          {
            "duration": 0.04285700000000148,
            "durationTicks": 96,
            "midi": 32,
            "name": "G#1",
            "ticks": 51648,
            "time": 23.057066,
            "velocity": 0.4881889763779528
          },
          {
            "duration": 0.04285700000000148,
            "durationTicks": 96,
            "midi": 40,
            "name": "E2",
            "ticks": 51648,
            "time": 23.057066,
            "velocity": 0.4881889763779528
          },
          {
            "duration": 0.04285700000000148,
            "durationTicks": 96,
            "midi": 33,
            "name": "A1",
            "ticks": 51648,
            "time": 23.057066,
            "velocity": 0.4881889763779528
          },
          {
            "duration": 0.04285700000000148,
            "durationTicks": 96,
            "midi": 32,
            "name": "G#1",
            "ticks": 51648,
            "time": 23.057066,
            "velocity": 0.4881889763779528
          },
          {
            "duration": 0.04285700000000148,
            "durationTicks": 96,
            "midi": 38,
            "name": "D2",
            "ticks": 51648,
            "time": 23.057066,
            "velocity": 0.4881889763779528
          },
          {
            "duration": 0.04285700000000148,
            "durationTicks": 96,
            "midi": 40,
            "name": "E2",
            "ticks": 51648,
            "time": 23.057066,
            "velocity": 0.4881889763779528
          },
          {
            "duration": 0.04285700000000148,
            "durationTicks": 96,
            "midi": 32,
            "name": "G#1",
            "ticks": 51648,
            "time": 23.057066,
            "velocity": 0.4881889763779528
          },
          {
            "duration": 0.04285700000000148,
            "durationTicks": 96,
            "midi": 32,
            "name": "G#1",
            "ticks": 51648,
            "time": 23.057066,
            "velocity": 0.4881889763779528
          },
          {
            "duration": 0.04285700000000148,
            "durationTicks": 96,
            "midi": 33,
            "name": "A1",
            "ticks": 51648,
            "time": 23.057066,
            "velocity": 0.4881889763779528
          },
          {
            "duration": 0.04285700000000148,
            "durationTicks": 96,
            "midi": 32,
            "name": "G#1",
            "ticks": 51648,
            "time": 23.057066,
            "velocity": 0.4881889763779528
          },
          {
            "duration": 0.04285700000000148,
            "durationTicks": 96,
            "midi": 40,
            "name": "E2",
            "ticks": 51648,
            "time": 23.057066,
            "velocity": 0.4881889763779528
          },
          {
            "duration": 0.04285700000000148,
            "durationTicks": 96,
            "midi": 38,
            "name": "D2",
            "ticks": 51648,
            "time": 23.057066,
            "velocity": 0.4881889763779528
          },
          {
            "duration": 0.04285700000000148,
            "durationTicks": 96,
            "midi": 33,
            "name": "A1",
            "ticks": 51648,
            "time": 23.057066,
            "velocity": 0.4881889763779528
          },
          {
            "duration": 0.04285700000000148,
            "durationTicks": 96,
            "midi": 40,
            "name": "E2",
            "ticks": 51648,
            "time": 23.057066,
            "velocity": 0.4881889763779528
          },
          {
            "duration": 0.04285700000000148,
            "durationTicks": 96,
            "midi": 33,
            "name": "A1",
            "ticks": 51648,
            "time": 23.057066,
            "velocity": 0.4881889763779528
          },
          {
            "duration": 0.04285700000000148,
            "durationTicks": 96,
            "midi": 38,
            "name": "D2",
            "ticks": 51648,
            "time": 23.057066,
            "velocity": 0.4881889763779528
          },
          {
            "duration": 0.04285700000000148,
            "durationTicks": 96,
            "midi": 33,
            "name": "A1",
            "ticks": 51648,
            "time": 23.057066,
            "velocity": 0.4881889763779528
          },
          {
            "duration": 0.04285700000000148,
            "durationTicks": 96,
            "midi": 38,
            "name": "D2",
            "ticks": 51648,
            "time": 23.057066,
            "velocity": 0.4881889763779528
          },
          {
            "duration": 0.04285700000000148,
            "durationTicks": 96,
            "midi": 32,
            "name": "G#1",
            "ticks": 51648,
            "time": 23.057066,
            "velocity": 0.4881889763779528
          },
          {
            "duration": 0.04285700000000148,
            "durationTicks": 96,
            "midi": 32,
            "name": "G#1",
            "ticks": 51648,
            "time": 23.057066,
            "velocity": 0.4881889763779528
          },
          {
            "duration": 0.04285700000000148,
            "durationTicks": 96,
            "midi": 33,
            "name": "A1",
            "ticks": 51648,
            "time": 23.057066,
            "velocity": 0.4881889763779528
          },
          {
            "duration": 0.04285700000000148,
            "durationTicks": 96,
            "midi": 33,
            "name": "A1",
            "ticks": 51648,
            "time": 23.057066,
            "velocity": 0.4881889763779528
          },
          {
            "duration": 0.04285700000000148,
            "durationTicks": 96,
            "midi": 33,
            "name": "A1",
            "ticks": 51648,
            "time": 23.057066,
            "velocity": 0.4881889763779528
          },
          {
            "duration": 0.04285700000000148,
            "durationTicks": 96,
            "midi": 32,
            "name": "G#1",
            "ticks": 51648,
            "time": 23.057066,
            "velocity": 0.4881889763779528
          },
          {
            "duration": 0.04285700000000148,
            "durationTicks": 96,
            "midi": 33,
            "name": "A1",
            "ticks": 51648,
            "time": 23.057066,
            "velocity": 0.4881889763779528
          },
          {
            "duration": 0.04285700000000148,
            "durationTicks": 96,
            "midi": 33,
            "name": "A1",
            "ticks": 51648,
            "time": 23.057066,
            "velocity": 0.4881889763779528
          },
          {
            "duration": 0.042856999999997925,
            "durationTicks": 96,
            "midi": 37,
            "name": "C#2",
            "ticks": 52416,
            "time": 23.399922,
            "velocity": 0.4881889763779528
          },
          {
            "duration": 0.042856999999997925,
            "durationTicks": 96,
            "midi": 35,
            "name": "B1",
            "ticks": 52416,
            "time": 23.399922,
            "velocity": 0.4881889763779528
          },
          {
            "duration": 0.042856999999997925,
            "durationTicks": 96,
            "midi": 35,
            "name": "B1",
            "ticks": 52416,
            "time": 23.399922,
            "velocity": 0.4881889763779528
          },
          {
            "duration": 0.042856999999997925,
            "durationTicks": 96,
            "midi": 35,
            "name": "B1",
            "ticks": 52416,
            "time": 23.399922,
            "velocity": 0.4881889763779528
          },
          {
            "duration": 0.042856999999997925,
            "durationTicks": 96,
            "midi": 35,
            "name": "B1",
            "ticks": 52416,
            "time": 23.399922,
            "velocity": 0.4881889763779528
          },
          {
            "duration": 0.042856999999997925,
            "durationTicks": 96,
            "midi": 35,
            "name": "B1",
            "ticks": 52416,
            "time": 23.399922,
            "velocity": 0.4881889763779528
          },
          {
            "duration": 0.042856999999997925,
            "durationTicks": 96,
            "midi": 37,
            "name": "C#2",
            "ticks": 52416,
            "time": 23.399922,
            "velocity": 0.4881889763779528
          },
          {
            "duration": 0.042856999999997925,
            "durationTicks": 96,
            "midi": 37,
            "name": "C#2",
            "ticks": 52416,
            "time": 23.399922,
            "velocity": 0.4881889763779528
          },
          {
            "duration": 0.042856999999997925,
            "durationTicks": 96,
            "midi": 37,
            "name": "C#2",
            "ticks": 52416,
            "time": 23.399922,
            "velocity": 0.4881889763779528
          },
          {
            "duration": 0.042856999999997925,
            "durationTicks": 96,
            "midi": 37,
            "name": "C#2",
            "ticks": 52416,
            "time": 23.399922,
            "velocity": 0.4881889763779528
          },
          {
            "duration": 0.042856999999997925,
            "durationTicks": 96,
            "midi": 37,
            "name": "C#2",
            "ticks": 52416,
            "time": 23.399922,
            "velocity": 0.4881889763779528
          },
          {
            "duration": 0.042856999999997925,
            "durationTicks": 96,
            "midi": 35,
            "name": "B1",
            "ticks": 52416,
            "time": 23.399922,
            "velocity": 0.4881889763779528
          },
          {
            "duration": 0.04285700000000148,
            "durationTicks": 96,
            "midi": 38,
            "name": "D2",
            "ticks": 53952,
            "time": 24.085634,
            "velocity": 0.4881889763779528
          },
          {
            "duration": 0.04285700000000148,
            "durationTicks": 96,
            "midi": 33,
            "name": "A1",
            "ticks": 53952,
            "time": 24.085634,
            "velocity": 0.4881889763779528
          },
          {
            "duration": 0.04285700000000148,
            "durationTicks": 96,
            "midi": 33,
            "name": "A1",
            "ticks": 53952,
            "time": 24.085634,
            "velocity": 0.4881889763779528
          },
          {
            "duration": 0.04285700000000148,
            "durationTicks": 96,
            "midi": 32,
            "name": "G#1",
            "ticks": 53952,
            "time": 24.085634,
            "velocity": 0.4881889763779528
          },
          {
            "duration": 0.04285700000000148,
            "durationTicks": 96,
            "midi": 40,
            "name": "E2",
            "ticks": 53952,
            "time": 24.085634,
            "velocity": 0.4881889763779528
          },
          {
            "duration": 0.04285700000000148,
            "durationTicks": 96,
            "midi": 40,
            "name": "E2",
            "ticks": 53952,
            "time": 24.085634,
            "velocity": 0.4881889763779528
          },
          {
            "duration": 0.04285700000000148,
            "durationTicks": 96,
            "midi": 33,
            "name": "A1",
            "ticks": 53952,
            "time": 24.085634,
            "velocity": 0.4881889763779528
          },
          {
            "duration": 0.04285700000000148,
            "durationTicks": 96,
            "midi": 33,
            "name": "A1",
            "ticks": 53952,
            "time": 24.085634,
            "velocity": 0.4881889763779528
          },
          {
            "duration": 0.04285700000000148,
            "durationTicks": 96,
            "midi": 40,
            "name": "E2",
            "ticks": 53952,
            "time": 24.085634,
            "velocity": 0.4881889763779528
          },
          {
            "duration": 0.04285700000000148,
            "durationTicks": 96,
            "midi": 32,
            "name": "G#1",
            "ticks": 53952,
            "time": 24.085634,
            "velocity": 0.4881889763779528
          },
          {
            "duration": 0.04285700000000148,
            "durationTicks": 96,
            "midi": 33,
            "name": "A1",
            "ticks": 53952,
            "time": 24.085634,
            "velocity": 0.4881889763779528
          },
          {
            "duration": 0.04285700000000148,
            "durationTicks": 96,
            "midi": 32,
            "name": "G#1",
            "ticks": 53952,
            "time": 24.085634,
            "velocity": 0.4881889763779528
          },
          {
            "duration": 0.04285700000000148,
            "durationTicks": 96,
            "midi": 38,
            "name": "D2",
            "ticks": 53952,
            "time": 24.085634,
            "velocity": 0.4881889763779528
          },
          {
            "duration": 0.04285700000000148,
            "durationTicks": 96,
            "midi": 38,
            "name": "D2",
            "ticks": 53952,
            "time": 24.085634,
            "velocity": 0.4881889763779528
          },
          {
            "duration": 0.04285700000000148,
            "durationTicks": 96,
            "midi": 33,
            "name": "A1",
            "ticks": 53952,
            "time": 24.085634,
            "velocity": 0.4881889763779528
          },
          {
            "duration": 0.04285700000000148,
            "durationTicks": 96,
            "midi": 38,
            "name": "D2",
            "ticks": 53952,
            "time": 24.085634,
            "velocity": 0.4881889763779528
          },
          {
            "duration": 0.04285700000000148,
            "durationTicks": 96,
            "midi": 40,
            "name": "E2",
            "ticks": 53952,
            "time": 24.085634,
            "velocity": 0.4881889763779528
          },
          {
            "duration": 0.04285700000000148,
            "durationTicks": 96,
            "midi": 32,
            "name": "G#1",
            "ticks": 53952,
            "time": 24.085634,
            "velocity": 0.4881889763779528
          },
          {
            "duration": 0.04285700000000148,
            "durationTicks": 96,
            "midi": 32,
            "name": "G#1",
            "ticks": 53952,
            "time": 24.085634,
            "velocity": 0.4881889763779528
          },
          {
            "duration": 0.04285700000000148,
            "durationTicks": 96,
            "midi": 33,
            "name": "A1",
            "ticks": 53952,
            "time": 24.085634,
            "velocity": 0.4881889763779528
          },
          {
            "duration": 0.04285700000000148,
            "durationTicks": 96,
            "midi": 32,
            "name": "G#1",
            "ticks": 53952,
            "time": 24.085634,
            "velocity": 0.4881889763779528
          },
          {
            "duration": 0.04285700000000148,
            "durationTicks": 96,
            "midi": 38,
            "name": "D2",
            "ticks": 53952,
            "time": 24.085634,
            "velocity": 0.4881889763779528
          },
          {
            "duration": 0.04285700000000148,
            "durationTicks": 96,
            "midi": 32,
            "name": "G#1",
            "ticks": 53952,
            "time": 24.085634,
            "velocity": 0.4881889763779528
          },
          {
            "duration": 0.04285700000000148,
            "durationTicks": 96,
            "midi": 32,
            "name": "G#1",
            "ticks": 53952,
            "time": 24.085634,
            "velocity": 0.4881889763779528
          },
          {
            "duration": 0.04285700000000148,
            "durationTicks": 96,
            "midi": 33,
            "name": "A1",
            "ticks": 53952,
            "time": 24.085634,
            "velocity": 0.4881889763779528
          },
          {
            "duration": 0.04285700000000148,
            "durationTicks": 96,
            "midi": 33,
            "name": "A1",
            "ticks": 53952,
            "time": 24.085634,
            "velocity": 0.4881889763779528
          },
          {
            "duration": 0.04285700000000148,
            "durationTicks": 96,
            "midi": 32,
            "name": "G#1",
            "ticks": 53952,
            "time": 24.085634,
            "velocity": 0.4881889763779528
          },
          {
            "duration": 0.04285700000000148,
            "durationTicks": 96,
            "midi": 32,
            "name": "G#1",
            "ticks": 53952,
            "time": 24.085634,
            "velocity": 0.4881889763779528
          },
          {
            "duration": 0.04285700000000148,
            "durationTicks": 96,
            "midi": 40,
            "name": "E2",
            "ticks": 53952,
            "time": 24.085634,
            "velocity": 0.4881889763779528
          },
          {
            "duration": 0.04285700000000148,
            "durationTicks": 96,
            "midi": 33,
            "name": "A1",
            "ticks": 53952,
            "time": 24.085634,
            "velocity": 0.4881889763779528
          },
          {
            "duration": 0.042856999999997925,
            "durationTicks": 96,
            "midi": 32,
            "name": "G#1",
            "ticks": 78528,
            "time": 35.057026,
            "velocity": 0.4881889763779528
          },
          {
            "duration": 0.042856999999997925,
            "durationTicks": 96,
            "midi": 38,
            "name": "D2",
            "ticks": 78528,
            "time": 35.057026,
            "velocity": 0.4881889763779528
          },
          {
            "duration": 0.042856999999997925,
            "durationTicks": 96,
            "midi": 40,
            "name": "E2",
            "ticks": 78528,
            "time": 35.057026,
            "velocity": 0.4881889763779528
          },
          {
            "duration": 0.042856999999997925,
            "durationTicks": 96,
            "midi": 40,
            "name": "E2",
            "ticks": 78528,
            "time": 35.057026,
            "velocity": 0.4881889763779528
          },
          {
            "duration": 0.042856999999997925,
            "durationTicks": 96,
            "midi": 40,
            "name": "E2",
            "ticks": 78528,
            "time": 35.057026,
            "velocity": 0.4881889763779528
          },
          {
            "duration": 0.042856999999997925,
            "durationTicks": 96,
            "midi": 33,
            "name": "A1",
            "ticks": 78528,
            "time": 35.057026,
            "velocity": 0.4881889763779528
          },
          {
            "duration": 0.042856999999997925,
            "durationTicks": 96,
            "midi": 32,
            "name": "G#1",
            "ticks": 78528,
            "time": 35.057026,
            "velocity": 0.4881889763779528
          },
          {
            "duration": 0.042856999999997925,
            "durationTicks": 96,
            "midi": 33,
            "name": "A1",
            "ticks": 78528,
            "time": 35.057026,
            "velocity": 0.4881889763779528
          },
          {
            "duration": 0.042856999999997925,
            "durationTicks": 96,
            "midi": 32,
            "name": "G#1",
            "ticks": 78528,
            "time": 35.057026,
            "velocity": 0.4881889763779528
          },
          {
            "duration": 0.042856999999997925,
            "durationTicks": 96,
            "midi": 38,
            "name": "D2",
            "ticks": 78528,
            "time": 35.057026,
            "velocity": 0.4881889763779528
          },
          {
            "duration": 0.042856999999997925,
            "durationTicks": 96,
            "midi": 38,
            "name": "D2",
            "ticks": 78528,
            "time": 35.057026,
            "velocity": 0.4881889763779528
          },
          {
            "duration": 0.042856999999997925,
            "durationTicks": 96,
            "midi": 38,
            "name": "D2",
            "ticks": 78528,
            "time": 35.057026,
            "velocity": 0.4881889763779528
          },
          {
            "duration": 0.042856999999997925,
            "durationTicks": 96,
            "midi": 33,
            "name": "A1",
            "ticks": 78528,
            "time": 35.057026,
            "velocity": 0.4881889763779528
          },
          {
            "duration": 0.042856999999997925,
            "durationTicks": 96,
            "midi": 32,
            "name": "G#1",
            "ticks": 78528,
            "time": 35.057026,
            "velocity": 0.4881889763779528
          },
          {
            "duration": 0.042856999999997925,
            "durationTicks": 96,
            "midi": 33,
            "name": "A1",
            "ticks": 78528,
            "time": 35.057026,
            "velocity": 0.4881889763779528
          },
          {
            "duration": 0.042856999999997925,
            "durationTicks": 96,
            "midi": 32,
            "name": "G#1",
            "ticks": 78528,
            "time": 35.057026,
            "velocity": 0.4881889763779528
          },
          {
            "duration": 0.042856999999997925,
            "durationTicks": 96,
            "midi": 33,
            "name": "A1",
            "ticks": 78528,
            "time": 35.057026,
            "velocity": 0.4881889763779528
          },
          {
            "duration": 0.042856999999997925,
            "durationTicks": 96,
            "midi": 33,
            "name": "A1",
            "ticks": 78528,
            "time": 35.057026,
            "velocity": 0.4881889763779528
          },
          {
            "duration": 0.042856999999997925,
            "durationTicks": 96,
            "midi": 32,
            "name": "G#1",
            "ticks": 78528,
            "time": 35.057026,
            "velocity": 0.4881889763779528
          },
          {
            "duration": 0.042856999999997925,
            "durationTicks": 96,
            "midi": 38,
            "name": "D2",
            "ticks": 78528,
            "time": 35.057026,
            "velocity": 0.4881889763779528
          },
          {
            "duration": 0.042856999999997925,
            "durationTicks": 96,
            "midi": 33,
            "name": "A1",
            "ticks": 78528,
            "time": 35.057026,
            "velocity": 0.4881889763779528
          },
          {
            "duration": 0.042856999999997925,
            "durationTicks": 96,
            "midi": 33,
            "name": "A1",
            "ticks": 78528,
            "time": 35.057026,
            "velocity": 0.4881889763779528
          },
          {
            "duration": 0.042856999999997925,
            "durationTicks": 96,
            "midi": 32,
            "name": "G#1",
            "ticks": 78528,
            "time": 35.057026,
            "velocity": 0.4881889763779528
          },
          {
            "duration": 0.042856999999997925,
            "durationTicks": 96,
            "midi": 32,
            "name": "G#1",
            "ticks": 78528,
            "time": 35.057026,
            "velocity": 0.4881889763779528
          },
          {
            "duration": 0.042856999999997925,
            "durationTicks": 96,
            "midi": 40,
            "name": "E2",
            "ticks": 78528,
            "time": 35.057026,
            "velocity": 0.4881889763779528
          },
          {
            "duration": 0.042856999999997925,
            "durationTicks": 96,
            "midi": 33,
            "name": "A1",
            "ticks": 78528,
            "time": 35.057026,
            "velocity": 0.4881889763779528
          },
          {
            "duration": 0.042856999999997925,
            "durationTicks": 96,
            "midi": 32,
            "name": "G#1",
            "ticks": 78528,
            "time": 35.057026,
            "velocity": 0.4881889763779528
          },
          {
            "duration": 0.042856999999997925,
            "durationTicks": 96,
            "midi": 32,
            "name": "G#1",
            "ticks": 78528,
            "time": 35.057026,
            "velocity": 0.4881889763779528
          },
          {
            "duration": 0.042856999999997925,
            "durationTicks": 96,
            "midi": 40,
            "name": "E2",
            "ticks": 78528,
            "time": 35.057026,
            "velocity": 0.4881889763779528
          },
          {
            "duration": 0.042856999999997925,
            "durationTicks": 96,
            "midi": 33,
            "name": "A1",
            "ticks": 78528,
            "time": 35.057026,
            "velocity": 0.4881889763779528
          },
          {
            "duration": 0.042856999999997925,
            "durationTicks": 96,
            "midi": 54,
            "name": "F#3",
            "ticks": 101568,
            "time": 45.342706,
            "velocity": 0.4881889763779528
          },
          {
            "duration": 0.042856999999997925,
            "durationTicks": 96,
            "midi": 56,
            "name": "G#3",
            "ticks": 101568,
            "time": 45.342706,
            "velocity": 0.4881889763779528
          },
          {
            "duration": 0.042856999999997925,
            "durationTicks": 96,
            "midi": 46,
            "name": "A#2",
            "ticks": 101568,
            "time": 45.342706,
            "velocity": 0.4881889763779528
          },
          {
            "duration": 0.042856999999997925,
            "durationTicks": 96,
            "midi": 46,
            "name": "A#2",
            "ticks": 101568,
            "time": 45.342706,
            "velocity": 0.4881889763779528
          },
          {
            "duration": 0.042856999999997925,
            "durationTicks": 96,
            "midi": 32,
            "name": "G#1",
            "ticks": 103104,
            "time": 46.028418,
            "velocity": 0.4881889763779528
          },
          {
            "duration": 0.042856999999997925,
            "durationTicks": 96,
            "midi": 32,
            "name": "G#1",
            "ticks": 103104,
            "time": 46.028418,
            "velocity": 0.4881889763779528
          },
          {
            "duration": 0.042856999999997925,
            "durationTicks": 96,
            "midi": 33,
            "name": "A1",
            "ticks": 103104,
            "time": 46.028418,
            "velocity": 0.4881889763779528
          },
          {
            "duration": 0.042856999999997925,
            "durationTicks": 96,
            "midi": 33,
            "name": "A1",
            "ticks": 103104,
            "time": 46.028418,
            "velocity": 0.4881889763779528
          },
          {
            "duration": 0.042856999999997925,
            "durationTicks": 96,
            "midi": 32,
            "name": "G#1",
            "ticks": 103104,
            "time": 46.028418,
            "velocity": 0.4881889763779528
          },
          {
            "duration": 0.042856999999997925,
            "durationTicks": 96,
            "midi": 38,
            "name": "D2",
            "ticks": 103104,
            "time": 46.028418,
            "velocity": 0.4881889763779528
          },
          {
            "duration": 0.042856999999997925,
            "durationTicks": 96,
            "midi": 33,
            "name": "A1",
            "ticks": 103104,
            "time": 46.028418,
            "velocity": 0.4881889763779528
          },
          {
            "duration": 0.042856999999997925,
            "durationTicks": 96,
            "midi": 32,
            "name": "G#1",
            "ticks": 103104,
            "time": 46.028418,
            "velocity": 0.4881889763779528
          },
          {
            "duration": 0.042856999999997925,
            "durationTicks": 96,
            "midi": 40,
            "name": "E2",
            "ticks": 103104,
            "time": 46.028418,
            "velocity": 0.4881889763779528
          },
          {
            "duration": 0.042856999999997925,
            "durationTicks": 96,
            "midi": 33,
            "name": "A1",
            "ticks": 103104,
            "time": 46.028418,
            "velocity": 0.4881889763779528
          },
          {
            "duration": 0.042856999999997925,
            "durationTicks": 96,
            "midi": 47,
            "name": "B2",
            "ticks": 103872,
            "time": 46.371274,
            "velocity": 0.4881889763779528
          },
          {
            "duration": 0.042856999999997925,
            "durationTicks": 96,
            "midi": 35,
            "name": "B1",
            "ticks": 103872,
            "time": 46.371274,
            "velocity": 0.4881889763779528
          },
          {
            "duration": 0.042856999999997925,
            "durationTicks": 96,
            "midi": 35,
            "name": "B1",
            "ticks": 103872,
            "time": 46.371274,
            "velocity": 0.4881889763779528
          },
          {
            "duration": 0.042856999999997925,
            "durationTicks": 96,
            "midi": 37,
            "name": "C#2",
            "ticks": 103872,
            "time": 46.371274,
            "velocity": 0.4881889763779528
          },
          {
            "duration": 0.042856999999997925,
            "durationTicks": 96,
            "midi": 37,
            "name": "C#2",
            "ticks": 103872,
            "time": 46.371274,
            "velocity": 0.4881889763779528
          },
          {
            "duration": 0.042856999999997925,
            "durationTicks": 96,
            "midi": 45,
            "name": "A2",
            "ticks": 103872,
            "time": 46.371274,
            "velocity": 0.4881889763779528
          },
          {
            "duration": 0.042856999999997925,
            "durationTicks": 96,
            "midi": 37,
            "name": "C#2",
            "ticks": 103872,
            "time": 46.371274,
            "velocity": 0.4881889763779528
          },
          {
            "duration": 0.042856999999997925,
            "durationTicks": 96,
            "midi": 35,
            "name": "B1",
            "ticks": 103872,
            "time": 46.371274,
            "velocity": 0.4881889763779528
          },
          {
            "duration": 0.04285700000000503,
            "durationTicks": 96,
            "midi": 33,
            "name": "A1",
            "ticks": 105024,
            "time": 46.885557999999996,
            "velocity": 0.4881889763779528
          },
          {
            "duration": 0.04285700000000503,
            "durationTicks": 96,
            "midi": 32,
            "name": "G#1",
            "ticks": 105024,
            "time": 46.885557999999996,
            "velocity": 0.4881889763779528
          },
          {
            "duration": 0.04285700000000503,
            "durationTicks": 96,
            "midi": 32,
            "name": "G#1",
            "ticks": 105024,
            "time": 46.885557999999996,
            "velocity": 0.4881889763779528
          },
          {
            "duration": 0.04285700000000503,
            "durationTicks": 96,
            "midi": 32,
            "name": "G#1",
            "ticks": 105024,
            "time": 46.885557999999996,
            "velocity": 0.4881889763779528
          },
          {
            "duration": 0.04285700000000503,
            "durationTicks": 96,
            "midi": 33,
            "name": "A1",
            "ticks": 105024,
            "time": 46.885557999999996,
            "velocity": 0.4881889763779528
          },
          {
            "duration": 0.04285700000000503,
            "durationTicks": 96,
            "midi": 40,
            "name": "E2",
            "ticks": 105024,
            "time": 46.885557999999996,
            "velocity": 0.4881889763779528
          },
          {
            "duration": 0.04285700000000503,
            "durationTicks": 96,
            "midi": 38,
            "name": "D2",
            "ticks": 105024,
            "time": 46.885557999999996,
            "velocity": 0.4881889763779528
          },
          {
            "duration": 0.04285700000000503,
            "durationTicks": 96,
            "midi": 32,
            "name": "G#1",
            "ticks": 105024,
            "time": 46.885557999999996,
            "velocity": 0.4881889763779528
          },
          {
            "duration": 0.04285700000000503,
            "durationTicks": 96,
            "midi": 33,
            "name": "A1",
            "ticks": 105024,
            "time": 46.885557999999996,
            "velocity": 0.4881889763779528
          },
          {
            "duration": 0.04285700000000503,
            "durationTicks": 96,
            "midi": 33,
            "name": "A1",
            "ticks": 105024,
            "time": 46.885557999999996,
            "velocity": 0.4881889763779528
          },
          {
            "duration": 0.042856999999997925,
            "durationTicks": 96,
            "midi": 47,
            "name": "B2",
            "ticks": 105408,
            "time": 47.056986,
            "velocity": 0.4881889763779528
          },
          {
            "duration": 0.042856999999997925,
            "durationTicks": 96,
            "midi": 45,
            "name": "A2",
            "ticks": 105408,
            "time": 47.056986,
            "velocity": 0.4881889763779528
          },
          {
            "duration": 0.042856999999997925,
            "durationTicks": 96,
            "midi": 35,
            "name": "B1",
            "ticks": 105408,
            "time": 47.056986,
            "velocity": 0.4881889763779528
          },
          {
            "duration": 0.042856999999997925,
            "durationTicks": 96,
            "midi": 35,
            "name": "B1",
            "ticks": 105408,
            "time": 47.056986,
            "velocity": 0.4881889763779528
          },
          {
            "duration": 0.042856999999997925,
            "durationTicks": 96,
            "midi": 37,
            "name": "C#2",
            "ticks": 105408,
            "time": 47.056986,
            "velocity": 0.4881889763779528
          },
          {
            "duration": 0.042856999999997925,
            "durationTicks": 96,
            "midi": 37,
            "name": "C#2",
            "ticks": 105408,
            "time": 47.056986,
            "velocity": 0.4881889763779528
          },
          {
            "duration": 0.042856999999997925,
            "durationTicks": 96,
            "midi": 35,
            "name": "B1",
            "ticks": 105408,
            "time": 47.056986,
            "velocity": 0.4881889763779528
          },
          {
            "duration": 0.042856999999997925,
            "durationTicks": 96,
            "midi": 37,
            "name": "C#2",
            "ticks": 105408,
            "time": 47.056986,
            "velocity": 0.4881889763779528
          },
          {
            "duration": 0.042856999999997925,
            "durationTicks": 96,
            "midi": 32,
            "name": "G#1",
            "ticks": 106176,
            "time": 47.399842,
            "velocity": 0.4881889763779528
          },
          {
            "duration": 0.042856999999997925,
            "durationTicks": 96,
            "midi": 33,
            "name": "A1",
            "ticks": 106176,
            "time": 47.399842,
            "velocity": 0.4881889763779528
          },
          {
            "duration": 0.042856999999997925,
            "durationTicks": 96,
            "midi": 33,
            "name": "A1",
            "ticks": 106176,
            "time": 47.399842,
            "velocity": 0.4881889763779528
          },
          {
            "duration": 0.042856999999997925,
            "durationTicks": 96,
            "midi": 33,
            "name": "A1",
            "ticks": 106176,
            "time": 47.399842,
            "velocity": 0.4881889763779528
          },
          {
            "duration": 0.042856999999997925,
            "durationTicks": 96,
            "midi": 32,
            "name": "G#1",
            "ticks": 106176,
            "time": 47.399842,
            "velocity": 0.4881889763779528
          },
          {
            "duration": 0.042856999999997925,
            "durationTicks": 96,
            "midi": 33,
            "name": "A1",
            "ticks": 106176,
            "time": 47.399842,
            "velocity": 0.4881889763779528
          },
          {
            "duration": 0.042856999999997925,
            "durationTicks": 96,
            "midi": 38,
            "name": "D2",
            "ticks": 106176,
            "time": 47.399842,
            "velocity": 0.4881889763779528
          },
          {
            "duration": 0.042856999999997925,
            "durationTicks": 96,
            "midi": 32,
            "name": "G#1",
            "ticks": 106176,
            "time": 47.399842,
            "velocity": 0.4881889763779528
          },
          {
            "duration": 0.042856999999997925,
            "durationTicks": 96,
            "midi": 40,
            "name": "E2",
            "ticks": 106176,
            "time": 47.399842,
            "velocity": 0.4881889763779528
          },
          {
            "duration": 0.042856999999997925,
            "durationTicks": 96,
            "midi": 32,
            "name": "G#1",
            "ticks": 106176,
            "time": 47.399842,
            "velocity": 0.4881889763779528
          },
          {
            "duration": 0.04285700000000503,
            "durationTicks": 96,
            "midi": 45,
            "name": "A2",
            "ticks": 106944,
            "time": 47.742698,
            "velocity": 0.4881889763779528
          },
          {
            "duration": 0.04285700000000503,
            "durationTicks": 96,
            "midi": 35,
            "name": "B1",
            "ticks": 106944,
            "time": 47.742698,
            "velocity": 0.4881889763779528
          },
          {
            "duration": 0.04285700000000503,
            "durationTicks": 96,
            "midi": 35,
            "name": "B1",
            "ticks": 106944,
            "time": 47.742698,
            "velocity": 0.4881889763779528
          },
          {
            "duration": 0.04285700000000503,
            "durationTicks": 96,
            "midi": 35,
            "name": "B1",
            "ticks": 106944,
            "time": 47.742698,
            "velocity": 0.4881889763779528
          },
          {
            "duration": 0.04285700000000503,
            "durationTicks": 96,
            "midi": 47,
            "name": "B2",
            "ticks": 106944,
            "time": 47.742698,
            "velocity": 0.4881889763779528
          },
          {
            "duration": 0.04285700000000503,
            "durationTicks": 96,
            "midi": 37,
            "name": "C#2",
            "ticks": 106944,
            "time": 47.742698,
            "velocity": 0.4881889763779528
          },
          {
            "duration": 0.04285700000000503,
            "durationTicks": 96,
            "midi": 37,
            "name": "C#2",
            "ticks": 106944,
            "time": 47.742698,
            "velocity": 0.4881889763779528
          },
          {
            "duration": 0.04285700000000503,
            "durationTicks": 96,
            "midi": 37,
            "name": "C#2",
            "ticks": 106944,
            "time": 47.742698,
            "velocity": 0.4881889763779528
          },
          {
            "duration": 0.042856999999997925,
            "durationTicks": 96,
            "midi": 33,
            "name": "A1",
            "ticks": 108096,
            "time": 48.256982,
            "velocity": 0.4881889763779528
          },
          {
            "duration": 0.042856999999997925,
            "durationTicks": 96,
            "midi": 33,
            "name": "A1",
            "ticks": 108096,
            "time": 48.256982,
            "velocity": 0.4881889763779528
          },
          {
            "duration": 0.042856999999997925,
            "durationTicks": 96,
            "midi": 32,
            "name": "G#1",
            "ticks": 108096,
            "time": 48.256982,
            "velocity": 0.4881889763779528
          },
          {
            "duration": 0.042856999999997925,
            "durationTicks": 96,
            "midi": 32,
            "name": "G#1",
            "ticks": 108096,
            "time": 48.256982,
            "velocity": 0.4881889763779528
          },
          {
            "duration": 0.042856999999997925,
            "durationTicks": 96,
            "midi": 32,
            "name": "G#1",
            "ticks": 108096,
            "time": 48.256982,
            "velocity": 0.4881889763779528
          },
          {
            "duration": 0.042856999999997925,
            "durationTicks": 96,
            "midi": 32,
            "name": "G#1",
            "ticks": 108096,
            "time": 48.256982,
            "velocity": 0.4881889763779528
          },
          {
            "duration": 0.042856999999997925,
            "durationTicks": 96,
            "midi": 38,
            "name": "D2",
            "ticks": 108096,
            "time": 48.256982,
            "velocity": 0.4881889763779528
          },
          {
            "duration": 0.042856999999997925,
            "durationTicks": 96,
            "midi": 33,
            "name": "A1",
            "ticks": 108096,
            "time": 48.256982,
            "velocity": 0.4881889763779528
          },
          {
            "duration": 0.042856999999997925,
            "durationTicks": 96,
            "midi": 40,
            "name": "E2",
            "ticks": 108096,
            "time": 48.256982,
            "velocity": 0.4881889763779528
          },
          {
            "duration": 0.042856999999997925,
            "durationTicks": 96,
            "midi": 33,
            "name": "A1",
            "ticks": 108096,
            "time": 48.256982,
            "velocity": 0.4881889763779528
          },
          {
            "duration": 0.042856999999997925,
            "durationTicks": 96,
            "midi": 37,
            "name": "C#2",
            "ticks": 108480,
            "time": 48.42841,
            "velocity": 0.4881889763779528
          },
          {
            "duration": 0.042856999999997925,
            "durationTicks": 96,
            "midi": 35,
            "name": "B1",
            "ticks": 108480,
            "time": 48.42841,
            "velocity": 0.4881889763779528
          },
          {
            "duration": 0.042856999999997925,
            "durationTicks": 96,
            "midi": 37,
            "name": "C#2",
            "ticks": 108480,
            "time": 48.42841,
            "velocity": 0.4881889763779528
          },
          {
            "duration": 0.042856999999997925,
            "durationTicks": 96,
            "midi": 37,
            "name": "C#2",
            "ticks": 108480,
            "time": 48.42841,
            "velocity": 0.4881889763779528
          },
          {
            "duration": 0.042856999999997925,
            "durationTicks": 96,
            "midi": 45,
            "name": "A2",
            "ticks": 108480,
            "time": 48.42841,
            "velocity": 0.4881889763779528
          },
          {
            "duration": 0.042856999999997925,
            "durationTicks": 96,
            "midi": 47,
            "name": "B2",
            "ticks": 108480,
            "time": 48.42841,
            "velocity": 0.4881889763779528
          },
          {
            "duration": 0.042856999999997925,
            "durationTicks": 96,
            "midi": 35,
            "name": "B1",
            "ticks": 108480,
            "time": 48.42841,
            "velocity": 0.4881889763779528
          },
          {
            "duration": 0.042856999999997925,
            "durationTicks": 96,
            "midi": 35,
            "name": "B1",
            "ticks": 108480,
            "time": 48.42841,
            "velocity": 0.4881889763779528
          },
          {
            "duration": 0.042856999999997925,
            "durationTicks": 96,
            "midi": 33,
            "name": "A1",
            "ticks": 108864,
            "time": 48.599838,
            "velocity": 0.4881889763779528
          },
          {
            "duration": 0.042856999999997925,
            "durationTicks": 96,
            "midi": 32,
            "name": "G#1",
            "ticks": 108864,
            "time": 48.599838,
            "velocity": 0.4881889763779528
          },
          {
            "duration": 0.042856999999997925,
            "durationTicks": 96,
            "midi": 32,
            "name": "G#1",
            "ticks": 108864,
            "time": 48.599838,
            "velocity": 0.4881889763779528
          },
          {
            "duration": 0.042856999999997925,
            "durationTicks": 96,
            "midi": 40,
            "name": "E2",
            "ticks": 108864,
            "time": 48.599838,
            "velocity": 0.4881889763779528
          },
          {
            "duration": 0.042856999999997925,
            "durationTicks": 96,
            "midi": 32,
            "name": "G#1",
            "ticks": 108864,
            "time": 48.599838,
            "velocity": 0.4881889763779528
          },
          {
            "duration": 0.042856999999997925,
            "durationTicks": 96,
            "midi": 33,
            "name": "A1",
            "ticks": 108864,
            "time": 48.599838,
            "velocity": 0.4881889763779528
          },
          {
            "duration": 0.042856999999997925,
            "durationTicks": 96,
            "midi": 33,
            "name": "A1",
            "ticks": 108864,
            "time": 48.599838,
            "velocity": 0.4881889763779528
          },
          {
            "duration": 0.042856999999997925,
            "durationTicks": 96,
            "midi": 38,
            "name": "D2",
            "ticks": 108864,
            "time": 48.599838,
            "velocity": 0.4881889763779528
          },
          {
            "duration": 0.042856999999997925,
            "durationTicks": 96,
            "midi": 32,
            "name": "G#1",
            "ticks": 108864,
            "time": 48.599838,
            "velocity": 0.4881889763779528
          },
          {
            "duration": 0.042856999999997925,
            "durationTicks": 96,
            "midi": 33,
            "name": "A1",
            "ticks": 108864,
            "time": 48.599838,
            "velocity": 0.4881889763779528
          },
          {
            "duration": 0.04285700000000503,
            "durationTicks": 96,
            "midi": 33,
            "name": "A1",
            "ticks": 109248,
            "time": 48.771266,
            "velocity": 0.4881889763779528
          },
          {
            "duration": 0.04285700000000503,
            "durationTicks": 96,
            "midi": 32,
            "name": "G#1",
            "ticks": 109248,
            "time": 48.771266,
            "velocity": 0.4881889763779528
          },
          {
            "duration": 0.04285700000000503,
            "durationTicks": 96,
            "midi": 38,
            "name": "D2",
            "ticks": 109248,
            "time": 48.771266,
            "velocity": 0.4881889763779528
          },
          {
            "duration": 0.04285700000000503,
            "durationTicks": 96,
            "midi": 40,
            "name": "E2",
            "ticks": 109248,
            "time": 48.771266,
            "velocity": 0.4881889763779528
          },
          {
            "duration": 0.04285700000000503,
            "durationTicks": 96,
            "midi": 32,
            "name": "G#1",
            "ticks": 109248,
            "time": 48.771266,
            "velocity": 0.4881889763779528
          },
          {
            "duration": 0.04285700000000503,
            "durationTicks": 96,
            "midi": 33,
            "name": "A1",
            "ticks": 109248,
            "time": 48.771266,
            "velocity": 0.4881889763779528
          },
          {
            "duration": 0.04285700000000503,
            "durationTicks": 96,
            "midi": 32,
            "name": "G#1",
            "ticks": 109248,
            "time": 48.771266,
            "velocity": 0.4881889763779528
          },
          {
            "duration": 0.04285700000000503,
            "durationTicks": 96,
            "midi": 33,
            "name": "A1",
            "ticks": 109248,
            "time": 48.771266,
            "velocity": 0.4881889763779528
          },
          {
            "duration": 0.04285700000000503,
            "durationTicks": 96,
            "midi": 33,
            "name": "A1",
            "ticks": 109248,
            "time": 48.771266,
            "velocity": 0.4881889763779528
          },
          {
            "duration": 0.04285700000000503,
            "durationTicks": 96,
            "midi": 32,
            "name": "G#1",
            "ticks": 109248,
            "time": 48.771266,
            "velocity": 0.4881889763779528
          },
          {
            "duration": 0.042856999999997925,
            "durationTicks": 96,
            "midi": 45,
            "name": "A2",
            "ticks": 110016,
            "time": 49.114122,
            "velocity": 0.4881889763779528
          },
          {
            "duration": 0.042856999999997925,
            "durationTicks": 96,
            "midi": 35,
            "name": "B1",
            "ticks": 110016,
            "time": 49.114122,
            "velocity": 0.4881889763779528
          },
          {
            "duration": 0.042856999999997925,
            "durationTicks": 96,
            "midi": 47,
            "name": "B2",
            "ticks": 110016,
            "time": 49.114122,
            "velocity": 0.4881889763779528
          },
          {
            "duration": 0.042856999999997925,
            "durationTicks": 96,
            "midi": 35,
            "name": "B1",
            "ticks": 110016,
            "time": 49.114122,
            "velocity": 0.4881889763779528
          },
          {
            "duration": 0.042856999999997925,
            "durationTicks": 96,
            "midi": 76,
            "name": "E5",
            "ticks": 110016,
            "time": 49.114122,
            "velocity": 0.4881889763779528
          },
          {
            "duration": 0.042856999999997925,
            "durationTicks": 96,
            "midi": 37,
            "name": "C#2",
            "ticks": 110016,
            "time": 49.114122,
            "velocity": 0.4881889763779528
          },
          {
            "duration": 0.042856999999997925,
            "durationTicks": 96,
            "midi": 76,
            "name": "E5",
            "ticks": 110016,
            "time": 49.114122,
            "velocity": 0.4881889763779528
          },
          {
            "duration": 0.042856999999997925,
            "durationTicks": 96,
            "midi": 37,
            "name": "C#2",
            "ticks": 110016,
            "time": 49.114122,
            "velocity": 0.4881889763779528
          },
          {
            "duration": 0.042856999999997925,
            "durationTicks": 96,
            "midi": 35,
            "name": "B1",
            "ticks": 110016,
            "time": 49.114122,
            "velocity": 0.4881889763779528
          },
          {
            "duration": 0.042856999999997925,
            "durationTicks": 96,
            "midi": 37,
            "name": "C#2",
            "ticks": 110016,
            "time": 49.114122,
            "velocity": 0.4881889763779528
          },
          {
            "duration": 0.042856999999997925,
            "durationTicks": 96,
            "midi": 76,
            "name": "E5",
            "ticks": 110064,
            "time": 49.1355505,
            "velocity": 0.4881889763779528
          },
          {
            "duration": 0.042856999999997925,
            "durationTicks": 96,
            "midi": 76,
            "name": "E5",
            "ticks": 110064,
            "time": 49.1355505,
            "velocity": 0.4881889763779528
          },
          {
            "duration": 0.042856999999997925,
            "durationTicks": 96,
            "midi": 76,
            "name": "E5",
            "ticks": 110112,
            "time": 49.156979,
            "velocity": 0.4881889763779528
          },
          {
            "duration": 0.042856999999997925,
            "durationTicks": 96,
            "midi": 76,
            "name": "E5",
            "ticks": 110112,
            "time": 49.156979,
            "velocity": 0.4881889763779528
          },
          {
            "duration": 0.042856999999997925,
            "durationTicks": 96,
            "midi": 76,
            "name": "E5",
            "ticks": 110160,
            "time": 49.1784075,
            "velocity": 0.4881889763779528
          },
          {
            "duration": 0.042856999999997925,
            "durationTicks": 96,
            "midi": 76,
            "name": "E5",
            "ticks": 110160,
            "time": 49.1784075,
            "velocity": 0.4881889763779528
          },
          {
            "duration": 0.042856999999997925,
            "durationTicks": 96,
            "midi": 76,
            "name": "E5",
            "ticks": 110400,
            "time": 49.28555,
            "velocity": 0.4881889763779528
          },
          {
            "duration": 0.042856999999997925,
            "durationTicks": 96,
            "midi": 76,
            "name": "E5",
            "ticks": 110400,
            "time": 49.28555,
            "velocity": 0.4881889763779528
          },
          {
            "duration": 0.042856999999997925,
            "durationTicks": 96,
            "midi": 76,
            "name": "E5",
            "ticks": 110448,
            "time": 49.3069785,
            "velocity": 0.4881889763779528
          },
          {
            "duration": 0.042856999999997925,
            "durationTicks": 96,
            "midi": 76,
            "name": "E5",
            "ticks": 110448,
            "time": 49.3069785,
            "velocity": 0.4881889763779528
          },
          {
            "duration": 0.042856999999997925,
            "durationTicks": 96,
            "midi": 76,
            "name": "E5",
            "ticks": 110496,
            "time": 49.328407,
            "velocity": 0.4881889763779528
          },
          {
            "duration": 0.042856999999997925,
            "durationTicks": 96,
            "midi": 76,
            "name": "E5",
            "ticks": 110496,
            "time": 49.328407,
            "velocity": 0.4881889763779528
          },
          {
            "duration": 0.04285700000000503,
            "durationTicks": 96,
            "midi": 76,
            "name": "E5",
            "ticks": 110544,
            "time": 49.3498355,
            "velocity": 0.4881889763779528
          },
          {
            "duration": 0.04285700000000503,
            "durationTicks": 96,
            "midi": 76,
            "name": "E5",
            "ticks": 110544,
            "time": 49.3498355,
            "velocity": 0.4881889763779528
          },
          {
            "duration": 0.042856999999997925,
            "durationTicks": 96,
            "midi": 76,
            "name": "E5",
            "ticks": 110784,
            "time": 49.456978,
            "velocity": 0.4881889763779528
          },
          {
            "duration": 0.042856999999997925,
            "durationTicks": 96,
            "midi": 76,
            "name": "E5",
            "ticks": 110784,
            "time": 49.456978,
            "velocity": 0.4881889763779528
          },
          {
            "duration": 0.042856999999997925,
            "durationTicks": 96,
            "midi": 76,
            "name": "E5",
            "ticks": 110832,
            "time": 49.4784065,
            "velocity": 0.4881889763779528
          },
          {
            "duration": 0.042856999999997925,
            "durationTicks": 96,
            "midi": 76,
            "name": "E5",
            "ticks": 110832,
            "time": 49.4784065,
            "velocity": 0.4881889763779528
          },
          {
            "duration": 0.04285700000000503,
            "durationTicks": 96,
            "midi": 76,
            "name": "E5",
            "ticks": 110880,
            "time": 49.499835,
            "velocity": 0.4881889763779528
          },
          {
            "duration": 0.04285700000000503,
            "durationTicks": 96,
            "midi": 76,
            "name": "E5",
            "ticks": 110880,
            "time": 49.499835,
            "velocity": 0.4881889763779528
          },
          {
            "duration": 0.04285700000000503,
            "durationTicks": 96,
            "midi": 76,
            "name": "E5",
            "ticks": 110928,
            "time": 49.521263499999996,
            "velocity": 0.4881889763779528
          },
          {
            "duration": 0.04285700000000503,
            "durationTicks": 96,
            "midi": 76,
            "name": "E5",
            "ticks": 110928,
            "time": 49.521263499999996,
            "velocity": 0.4881889763779528
          },
          {
            "duration": 0.042856999999997925,
            "durationTicks": 96,
            "midi": 32,
            "name": "G#1",
            "ticks": 111168,
            "time": 49.628406,
            "velocity": 0.4881889763779528
          },
          {
            "duration": 0.042856999999997925,
            "durationTicks": 96,
            "midi": 38,
            "name": "D2",
            "ticks": 111168,
            "time": 49.628406,
            "velocity": 0.4881889763779528
          },
          {
            "duration": 0.042856999999997925,
            "durationTicks": 96,
            "midi": 32,
            "name": "G#1",
            "ticks": 111168,
            "time": 49.628406,
            "velocity": 0.4881889763779528
          },
          {
            "duration": 0.042856999999997925,
            "durationTicks": 96,
            "midi": 76,
            "name": "E5",
            "ticks": 111168,
            "time": 49.628406,
            "velocity": 0.4881889763779528
          },
          {
            "duration": 0.042856999999997925,
            "durationTicks": 96,
            "midi": 33,
            "name": "A1",
            "ticks": 111168,
            "time": 49.628406,
            "velocity": 0.4881889763779528
          },
          {
            "duration": 0.042856999999997925,
            "durationTicks": 96,
            "midi": 76,
            "name": "E5",
            "ticks": 111168,
            "time": 49.628406,
            "velocity": 0.4881889763779528
          },
          {
            "duration": 0.042856999999997925,
            "durationTicks": 96,
            "midi": 40,
            "name": "E2",
            "ticks": 111168,
            "time": 49.628406,
            "velocity": 0.4881889763779528
          },
          {
            "duration": 0.042856999999997925,
            "durationTicks": 96,
            "midi": 32,
            "name": "G#1",
            "ticks": 111168,
            "time": 49.628406,
            "velocity": 0.4881889763779528
          },
          {
            "duration": 0.042856999999997925,
            "durationTicks": 96,
            "midi": 33,
            "name": "A1",
            "ticks": 111168,
            "time": 49.628406,
            "velocity": 0.4881889763779528
          },
          {
            "duration": 0.042856999999997925,
            "durationTicks": 96,
            "midi": 32,
            "name": "G#1",
            "ticks": 111168,
            "time": 49.628406,
            "velocity": 0.4881889763779528
          },
          {
            "duration": 0.042856999999997925,
            "durationTicks": 96,
            "midi": 33,
            "name": "A1",
            "ticks": 111168,
            "time": 49.628406,
            "velocity": 0.4881889763779528
          },
          {
            "duration": 0.042856999999997925,
            "durationTicks": 96,
            "midi": 33,
            "name": "A1",
            "ticks": 111168,
            "time": 49.628406,
            "velocity": 0.4881889763779528
          },
          {
            "duration": 0.04285700000000503,
            "durationTicks": 96,
            "midi": 76,
            "name": "E5",
            "ticks": 111216,
            "time": 49.6498345,
            "velocity": 0.4881889763779528
          },
          {
            "duration": 0.04285700000000503,
            "durationTicks": 96,
            "midi": 76,
            "name": "E5",
            "ticks": 111216,
            "time": 49.6498345,
            "velocity": 0.4881889763779528
          },
          {
            "duration": 0.04285700000000503,
            "durationTicks": 96,
            "midi": 76,
            "name": "E5",
            "ticks": 111264,
            "time": 49.671262999999996,
            "velocity": 0.4881889763779528
          },
          {
            "duration": 0.04285700000000503,
            "durationTicks": 96,
            "midi": 76,
            "name": "E5",
            "ticks": 111264,
            "time": 49.671262999999996,
            "velocity": 0.4881889763779528
          },
          {
            "duration": 0.042856999999997925,
            "durationTicks": 96,
            "midi": 76,
            "name": "E5",
            "ticks": 111312,
            "time": 49.6926915,
            "velocity": 0.4881889763779528
          },
          {
            "duration": 0.042856999999997925,
            "durationTicks": 96,
            "midi": 76,
            "name": "E5",
            "ticks": 111312,
            "time": 49.6926915,
            "velocity": 0.4881889763779528
          },
          {
            "duration": 0.04285700000000503,
            "durationTicks": 96,
            "midi": 35,
            "name": "B1",
            "ticks": 111552,
            "time": 49.799834,
            "velocity": 0.4881889763779528
          },
          {
            "duration": 0.04285700000000503,
            "durationTicks": 96,
            "midi": 37,
            "name": "C#2",
            "ticks": 111552,
            "time": 49.799834,
            "velocity": 0.4881889763779528
          },
          {
            "duration": 0.04285700000000503,
            "durationTicks": 96,
            "midi": 76,
            "name": "E5",
            "ticks": 111552,
            "time": 49.799834,
            "velocity": 0.4881889763779528
          },
          {
            "duration": 0.04285700000000503,
            "durationTicks": 96,
            "midi": 76,
            "name": "E5",
            "ticks": 111552,
            "time": 49.799834,
            "velocity": 0.4881889763779528
          },
          {
            "duration": 0.04285700000000503,
            "durationTicks": 96,
            "midi": 37,
            "name": "C#2",
            "ticks": 111552,
            "time": 49.799834,
            "velocity": 0.4881889763779528
          },
          {
            "duration": 0.04285700000000503,
            "durationTicks": 96,
            "midi": 37,
            "name": "C#2",
            "ticks": 111552,
            "time": 49.799834,
            "velocity": 0.4881889763779528
          },
          {
            "duration": 0.04285700000000503,
            "durationTicks": 96,
            "midi": 35,
            "name": "B1",
            "ticks": 111552,
            "time": 49.799834,
            "velocity": 0.4881889763779528
          },
          {
            "duration": 0.04285700000000503,
            "durationTicks": 96,
            "midi": 47,
            "name": "B2",
            "ticks": 111552,
            "time": 49.799834,
            "velocity": 0.4881889763779528
          },
          {
            "duration": 0.04285700000000503,
            "durationTicks": 96,
            "midi": 45,
            "name": "A2",
            "ticks": 111552,
            "time": 49.799834,
            "velocity": 0.4881889763779528
          },
          {
            "duration": 0.04285700000000503,
            "durationTicks": 96,
            "midi": 35,
            "name": "B1",
            "ticks": 111552,
            "time": 49.799834,
            "velocity": 0.4881889763779528
          },
          {
            "duration": 0.04285700000000503,
            "durationTicks": 96,
            "midi": 76,
            "name": "E5",
            "ticks": 111600,
            "time": 49.821262499999996,
            "velocity": 0.4881889763779528
          },
          {
            "duration": 0.04285700000000503,
            "durationTicks": 96,
            "midi": 76,
            "name": "E5",
            "ticks": 111600,
            "time": 49.821262499999996,
            "velocity": 0.4881889763779528
          },
          {
            "duration": 0.042856999999997925,
            "durationTicks": 96,
            "midi": 76,
            "name": "E5",
            "ticks": 111648,
            "time": 49.842691,
            "velocity": 0.4881889763779528
          },
          {
            "duration": 0.042856999999997925,
            "durationTicks": 96,
            "midi": 76,
            "name": "E5",
            "ticks": 111648,
            "time": 49.842691,
            "velocity": 0.4881889763779528
          },
          {
            "duration": 0.042856999999997925,
            "durationTicks": 96,
            "midi": 76,
            "name": "E5",
            "ticks": 111696,
            "time": 49.8641195,
            "velocity": 0.4881889763779528
          },
          {
            "duration": 0.042856999999997925,
            "durationTicks": 96,
            "midi": 76,
            "name": "E5",
            "ticks": 111696,
            "time": 49.8641195,
            "velocity": 0.4881889763779528
          },
          {
            "duration": 0.04285700000000503,
            "durationTicks": 96,
            "midi": 76,
            "name": "E5",
            "ticks": 111936,
            "time": 49.971261999999996,
            "velocity": 0.4881889763779528
          },
          {
            "duration": 0.04285700000000503,
            "durationTicks": 96,
            "midi": 76,
            "name": "E5",
            "ticks": 111936,
            "time": 49.971261999999996,
            "velocity": 0.4881889763779528
          },
          {
            "duration": 0.042856999999997925,
            "durationTicks": 96,
            "midi": 76,
            "name": "E5",
            "ticks": 111984,
            "time": 49.9926905,
            "velocity": 0.4881889763779528
          },
          {
            "duration": 0.042856999999997925,
            "durationTicks": 96,
            "midi": 76,
            "name": "E5",
            "ticks": 111984,
            "time": 49.9926905,
            "velocity": 0.4881889763779528
          },
          {
            "duration": 0.042856999999997925,
            "durationTicks": 96,
            "midi": 76,
            "name": "E5",
            "ticks": 112032,
            "time": 50.014119,
            "velocity": 0.4881889763779528
          },
          {
            "duration": 0.042856999999997925,
            "durationTicks": 96,
            "midi": 76,
            "name": "E5",
            "ticks": 112032,
            "time": 50.014119,
            "velocity": 0.4881889763779528
          },
          {
            "duration": 0.042856999999997925,
            "durationTicks": 96,
            "midi": 76,
            "name": "E5",
            "ticks": 112080,
            "time": 50.0355475,
            "velocity": 0.4881889763779528
          },
          {
            "duration": 0.042856999999997925,
            "durationTicks": 96,
            "midi": 76,
            "name": "E5",
            "ticks": 112080,
            "time": 50.0355475,
            "velocity": 0.4881889763779528
          },
          {
            "duration": 0.042856999999997925,
            "durationTicks": 96,
            "midi": 40,
            "name": "E2",
            "ticks": 112320,
            "time": 50.14269,
            "velocity": 0.4881889763779528
          },
          {
            "duration": 0.042856999999997925,
            "durationTicks": 96,
            "midi": 32,
            "name": "G#1",
            "ticks": 112320,
            "time": 50.14269,
            "velocity": 0.4881889763779528
          },
          {
            "duration": 0.042856999999997925,
            "durationTicks": 96,
            "midi": 32,
            "name": "G#1",
            "ticks": 112320,
            "time": 50.14269,
            "velocity": 0.4881889763779528
          },
          {
            "duration": 0.042856999999997925,
            "durationTicks": 96,
            "midi": 38,
            "name": "D2",
            "ticks": 112320,
            "time": 50.14269,
            "velocity": 0.4881889763779528
          },
          {
            "duration": 0.042856999999997925,
            "durationTicks": 96,
            "midi": 32,
            "name": "G#1",
            "ticks": 112320,
            "time": 50.14269,
            "velocity": 0.4881889763779528
          },
          {
            "duration": 0.042856999999997925,
            "durationTicks": 96,
            "midi": 32,
            "name": "G#1",
            "ticks": 112320,
            "time": 50.14269,
            "velocity": 0.4881889763779528
          },
          {
            "duration": 0.042856999999997925,
            "durationTicks": 96,
            "midi": 33,
            "name": "A1",
            "ticks": 112320,
            "time": 50.14269,
            "velocity": 0.4881889763779528
          },
          {
            "duration": 0.042856999999997925,
            "durationTicks": 96,
            "midi": 33,
            "name": "A1",
            "ticks": 112320,
            "time": 50.14269,
            "velocity": 0.4881889763779528
          },
          {
            "duration": 0.042856999999997925,
            "durationTicks": 96,
            "midi": 33,
            "name": "A1",
            "ticks": 112320,
            "time": 50.14269,
            "velocity": 0.4881889763779528
          },
          {
            "duration": 0.042856999999997925,
            "durationTicks": 96,
            "midi": 33,
            "name": "A1",
            "ticks": 112320,
            "time": 50.14269,
            "velocity": 0.4881889763779528
          },
          {
            "duration": 0.042856999999997925,
            "durationTicks": 96,
            "midi": 47,
            "name": "B2",
            "ticks": 113088,
            "time": 50.485546,
            "velocity": 0.4881889763779528
          },
          {
            "duration": 0.042856999999997925,
            "durationTicks": 96,
            "midi": 35,
            "name": "B1",
            "ticks": 113088,
            "time": 50.485546,
            "velocity": 0.4881889763779528
          },
          {
            "duration": 0.042856999999997925,
            "durationTicks": 96,
            "midi": 37,
            "name": "C#2",
            "ticks": 113088,
            "time": 50.485546,
            "velocity": 0.4881889763779528
          },
          {
            "duration": 0.042856999999997925,
            "durationTicks": 96,
            "midi": 35,
            "name": "B1",
            "ticks": 113088,
            "time": 50.485546,
            "velocity": 0.4881889763779528
          },
          {
            "duration": 0.042856999999997925,
            "durationTicks": 96,
            "midi": 37,
            "name": "C#2",
            "ticks": 113088,
            "time": 50.485546,
            "velocity": 0.4881889763779528
          },
          {
            "duration": 0.042856999999997925,
            "durationTicks": 96,
            "midi": 45,
            "name": "A2",
            "ticks": 113088,
            "time": 50.485546,
            "velocity": 0.4881889763779528
          },
          {
            "duration": 0.042856999999997925,
            "durationTicks": 96,
            "midi": 35,
            "name": "B1",
            "ticks": 113088,
            "time": 50.485546,
            "velocity": 0.4881889763779528
          },
          {
            "duration": 0.042856999999997925,
            "durationTicks": 96,
            "midi": 37,
            "name": "C#2",
            "ticks": 113088,
            "time": 50.485546,
            "velocity": 0.4881889763779528
          },
          {
            "duration": 0.04285700000000503,
            "durationTicks": 96,
            "midi": 33,
            "name": "A1",
            "ticks": 114240,
            "time": 50.999829999999996,
            "velocity": 0.4881889763779528
          },
          {
            "duration": 0.04285700000000503,
            "durationTicks": 96,
            "midi": 32,
            "name": "G#1",
            "ticks": 114240,
            "time": 50.999829999999996,
            "velocity": 0.4881889763779528
          },
          {
            "duration": 0.04285700000000503,
            "durationTicks": 96,
            "midi": 32,
            "name": "G#1",
            "ticks": 114240,
            "time": 50.999829999999996,
            "velocity": 0.4881889763779528
          },
          {
            "duration": 0.04285700000000503,
            "durationTicks": 96,
            "midi": 33,
            "name": "A1",
            "ticks": 114240,
            "time": 50.999829999999996,
            "velocity": 0.4881889763779528
          },
          {
            "duration": 0.04285700000000503,
            "durationTicks": 96,
            "midi": 33,
            "name": "A1",
            "ticks": 114240,
            "time": 50.999829999999996,
            "velocity": 0.4881889763779528
          },
          {
            "duration": 0.04285700000000503,
            "durationTicks": 96,
            "midi": 32,
            "name": "G#1",
            "ticks": 114240,
            "time": 50.999829999999996,
            "velocity": 0.4881889763779528
          },
          {
            "duration": 0.04285700000000503,
            "durationTicks": 96,
            "midi": 38,
            "name": "D2",
            "ticks": 114240,
            "time": 50.999829999999996,
            "velocity": 0.4881889763779528
          },
          {
            "duration": 0.04285700000000503,
            "durationTicks": 96,
            "midi": 32,
            "name": "G#1",
            "ticks": 114240,
            "time": 50.999829999999996,
            "velocity": 0.4881889763779528
          },
          {
            "duration": 0.04285700000000503,
            "durationTicks": 96,
            "midi": 40,
            "name": "E2",
            "ticks": 114240,
            "time": 50.999829999999996,
            "velocity": 0.4881889763779528
          },
          {
            "duration": 0.04285700000000503,
            "durationTicks": 96,
            "midi": 33,
            "name": "A1",
            "ticks": 114240,
            "time": 50.999829999999996,
            "velocity": 0.4881889763779528
          },
          {
            "duration": 0.042856999999997925,
            "durationTicks": 96,
            "midi": 32,
            "name": "G#1",
            "ticks": 114432,
            "time": 51.085544,
            "velocity": 0.4881889763779528
          },
          {
            "duration": 0.042856999999997925,
            "durationTicks": 96,
            "midi": 33,
            "name": "A1",
            "ticks": 114432,
            "time": 51.085544,
            "velocity": 0.4881889763779528
          },
          {
            "duration": 0.042856999999997925,
            "durationTicks": 96,
            "midi": 38,
            "name": "D2",
            "ticks": 114432,
            "time": 51.085544,
            "velocity": 0.4881889763779528
          },
          {
            "duration": 0.042856999999997925,
            "durationTicks": 96,
            "midi": 33,
            "name": "A1",
            "ticks": 114432,
            "time": 51.085544,
            "velocity": 0.4881889763779528
          },
          {
            "duration": 0.042856999999997925,
            "durationTicks": 96,
            "midi": 32,
            "name": "G#1",
            "ticks": 114432,
            "time": 51.085544,
            "velocity": 0.4881889763779528
          },
          {
            "duration": 0.042856999999997925,
            "durationTicks": 96,
            "midi": 33,
            "name": "A1",
            "ticks": 114432,
            "time": 51.085544,
            "velocity": 0.4881889763779528
          },
          {
            "duration": 0.042856999999997925,
            "durationTicks": 96,
            "midi": 32,
            "name": "G#1",
            "ticks": 114432,
            "time": 51.085544,
            "velocity": 0.4881889763779528
          },
          {
            "duration": 0.042856999999997925,
            "durationTicks": 96,
            "midi": 33,
            "name": "A1",
            "ticks": 114432,
            "time": 51.085544,
            "velocity": 0.4881889763779528
          },
          {
            "duration": 0.042856999999997925,
            "durationTicks": 96,
            "midi": 40,
            "name": "E2",
            "ticks": 114432,
            "time": 51.085544,
            "velocity": 0.4881889763779528
          },
          {
            "duration": 0.042856999999997925,
            "durationTicks": 96,
            "midi": 32,
            "name": "G#1",
            "ticks": 114432,
            "time": 51.085544,
            "velocity": 0.4881889763779528
          },
          {
            "duration": 0.042856999999997925,
            "durationTicks": 96,
            "midi": 37,
            "name": "C#2",
            "ticks": 114624,
            "time": 51.171258,
            "velocity": 0.4881889763779528
          },
          {
            "duration": 0.042856999999997925,
            "durationTicks": 96,
            "midi": 35,
            "name": "B1",
            "ticks": 114624,
            "time": 51.171258,
            "velocity": 0.4881889763779528
          },
          {
            "duration": 0.042856999999997925,
            "durationTicks": 96,
            "midi": 37,
            "name": "C#2",
            "ticks": 114624,
            "time": 51.171258,
            "velocity": 0.4881889763779528
          },
          {
            "duration": 0.042856999999997925,
            "durationTicks": 96,
            "midi": 35,
            "name": "B1",
            "ticks": 114624,
            "time": 51.171258,
            "velocity": 0.4881889763779528
          },
          {
            "duration": 0.042856999999997925,
            "durationTicks": 96,
            "midi": 37,
            "name": "C#2",
            "ticks": 114624,
            "time": 51.171258,
            "velocity": 0.4881889763779528
          },
          {
            "duration": 0.042856999999997925,
            "durationTicks": 96,
            "midi": 47,
            "name": "B2",
            "ticks": 114624,
            "time": 51.171258,
            "velocity": 0.4881889763779528
          },
          {
            "duration": 0.042856999999997925,
            "durationTicks": 96,
            "midi": 45,
            "name": "A2",
            "ticks": 114624,
            "time": 51.171258,
            "velocity": 0.4881889763779528
          },
          {
            "duration": 0.042856999999997925,
            "durationTicks": 96,
            "midi": 35,
            "name": "B1",
            "ticks": 114624,
            "time": 51.171258,
            "velocity": 0.4881889763779528
          },
          {
            "duration": 0.042856999999997925,
            "durationTicks": 96,
            "midi": 32,
            "name": "G#1",
            "ticks": 115008,
            "time": 51.342686,
            "velocity": 0.4881889763779528
          },
          {
            "duration": 0.042856999999997925,
            "durationTicks": 96,
            "midi": 38,
            "name": "D2",
            "ticks": 115008,
            "time": 51.342686,
            "velocity": 0.4881889763779528
          },
          {
            "duration": 0.042856999999997925,
            "durationTicks": 96,
            "midi": 33,
            "name": "A1",
            "ticks": 115008,
            "time": 51.342686,
            "velocity": 0.4881889763779528
          },
          {
            "duration": 0.042856999999997925,
            "durationTicks": 96,
            "midi": 32,
            "name": "G#1",
            "ticks": 115008,
            "time": 51.342686,
            "velocity": 0.4881889763779528
          },
          {
            "duration": 0.042856999999997925,
            "durationTicks": 96,
            "midi": 33,
            "name": "A1",
            "ticks": 115008,
            "time": 51.342686,
            "velocity": 0.4881889763779528
          },
          {
            "duration": 0.042856999999997925,
            "durationTicks": 96,
            "midi": 40,
            "name": "E2",
            "ticks": 115008,
            "time": 51.342686,
            "velocity": 0.4881889763779528
          },
          {
            "duration": 0.042856999999997925,
            "durationTicks": 96,
            "midi": 32,
            "name": "G#1",
            "ticks": 115008,
            "time": 51.342686,
            "velocity": 0.4881889763779528
          },
          {
            "duration": 0.042856999999997925,
            "durationTicks": 96,
            "midi": 32,
            "name": "G#1",
            "ticks": 115008,
            "time": 51.342686,
            "velocity": 0.4881889763779528
          },
          {
            "duration": 0.042856999999997925,
            "durationTicks": 96,
            "midi": 33,
            "name": "A1",
            "ticks": 115008,
            "time": 51.342686,
            "velocity": 0.4881889763779528
          },
          {
            "duration": 0.042856999999997925,
            "durationTicks": 96,
            "midi": 33,
            "name": "A1",
            "ticks": 115008,
            "time": 51.342686,
            "velocity": 0.4881889763779528
          },
          {
            "duration": 0.042856999999997925,
            "durationTicks": 96,
            "midi": 33,
            "name": "A1",
            "ticks": 115392,
            "time": 51.514114,
            "velocity": 0.4881889763779528
          },
          {
            "duration": 0.042856999999997925,
            "durationTicks": 96,
            "midi": 32,
            "name": "G#1",
            "ticks": 115392,
            "time": 51.514114,
            "velocity": 0.4881889763779528
          },
          {
            "duration": 0.042856999999997925,
            "durationTicks": 96,
            "midi": 33,
            "name": "A1",
            "ticks": 115392,
            "time": 51.514114,
            "velocity": 0.4881889763779528
          },
          {
            "duration": 0.042856999999997925,
            "durationTicks": 96,
            "midi": 32,
            "name": "G#1",
            "ticks": 115392,
            "time": 51.514114,
            "velocity": 0.4881889763779528
          },
          {
            "duration": 0.042856999999997925,
            "durationTicks": 96,
            "midi": 33,
            "name": "A1",
            "ticks": 115392,
            "time": 51.514114,
            "velocity": 0.4881889763779528
          },
          {
            "duration": 0.042856999999997925,
            "durationTicks": 96,
            "midi": 38,
            "name": "D2",
            "ticks": 115392,
            "time": 51.514114,
            "velocity": 0.4881889763779528
          },
          {
            "duration": 0.042856999999997925,
            "durationTicks": 96,
            "midi": 32,
            "name": "G#1",
            "ticks": 115392,
            "time": 51.514114,
            "velocity": 0.4881889763779528
          },
          {
            "duration": 0.042856999999997925,
            "durationTicks": 96,
            "midi": 33,
            "name": "A1",
            "ticks": 115392,
            "time": 51.514114,
            "velocity": 0.4881889763779528
          },
          {
            "duration": 0.042856999999997925,
            "durationTicks": 96,
            "midi": 40,
            "name": "E2",
            "ticks": 115392,
            "time": 51.514114,
            "velocity": 0.4881889763779528
          },
          {
            "duration": 0.042856999999997925,
            "durationTicks": 96,
            "midi": 32,
            "name": "G#1",
            "ticks": 115392,
            "time": 51.514114,
            "velocity": 0.4881889763779528
          },
          {
            "duration": 0.04285700000000503,
            "durationTicks": 96,
            "midi": 37,
            "name": "C#2",
            "ticks": 116160,
            "time": 51.85697,
            "velocity": 0.4881889763779528
          },
          {
            "duration": 0.04285700000000503,
            "durationTicks": 96,
            "midi": 37,
            "name": "C#2",
            "ticks": 116160,
            "time": 51.85697,
            "velocity": 0.4881889763779528
          },
          {
            "duration": 0.04285700000000503,
            "durationTicks": 96,
            "midi": 35,
            "name": "B1",
            "ticks": 116160,
            "time": 51.85697,
            "velocity": 0.4881889763779528
          },
          {
            "duration": 0.04285700000000503,
            "durationTicks": 96,
            "midi": 45,
            "name": "A2",
            "ticks": 116160,
            "time": 51.85697,
            "velocity": 0.4881889763779528
          },
          {
            "duration": 0.04285700000000503,
            "durationTicks": 96,
            "midi": 35,
            "name": "B1",
            "ticks": 116160,
            "time": 51.85697,
            "velocity": 0.4881889763779528
          },
          {
            "duration": 0.04285700000000503,
            "durationTicks": 96,
            "midi": 37,
            "name": "C#2",
            "ticks": 116160,
            "time": 51.85697,
            "velocity": 0.4881889763779528
          },
          {
            "duration": 0.04285700000000503,
            "durationTicks": 96,
            "midi": 35,
            "name": "B1",
            "ticks": 116160,
            "time": 51.85697,
            "velocity": 0.4881889763779528
          },
          {
            "duration": 0.04285700000000503,
            "durationTicks": 96,
            "midi": 47,
            "name": "B2",
            "ticks": 116160,
            "time": 51.85697,
            "velocity": 0.4881889763779528
          },
          {
            "duration": 0.04285700000000503,
            "durationTicks": 96,
            "midi": 47,
            "name": "B2",
            "ticks": 116832,
            "time": 52.156969,
            "velocity": 0.4881889763779528
          },
          {
            "duration": 0.042856999999997925,
            "durationTicks": 96,
            "midi": 47,
            "name": "B2",
            "ticks": 116928,
            "time": 52.199826,
            "velocity": 0.4881889763779528
          },
          {
            "duration": 0.042856999999997925,
            "durationTicks": 96,
            "midi": 47,
            "name": "B2",
            "ticks": 117024,
            "time": 52.242683,
            "velocity": 0.4881889763779528
          },
          {
            "duration": 0.04285700000000503,
            "durationTicks": 96,
            "midi": 47,
            "name": "B2",
            "ticks": 117120,
            "time": 52.28554,
            "velocity": 0.4881889763779528
          },
          {
            "duration": 0.042856999999997925,
            "durationTicks": 96,
            "midi": 42,
            "name": "F#2",
            "ticks": 117216,
            "time": 52.328397,
            "velocity": 0.4881889763779528
          },
          {
            "duration": 0.042856999999997925,
            "durationTicks": 96,
            "midi": 32,
            "name": "G#1",
            "ticks": 117312,
            "time": 52.371254,
            "velocity": 0.4881889763779528
          },
          {
            "duration": 0.042856999999997925,
            "durationTicks": 96,
            "midi": 33,
            "name": "A1",
            "ticks": 117312,
            "time": 52.371254,
            "velocity": 0.4881889763779528
          },
          {
            "duration": 0.042856999999997925,
            "durationTicks": 96,
            "midi": 33,
            "name": "A1",
            "ticks": 117312,
            "time": 52.371254,
            "velocity": 0.4881889763779528
          },
          {
            "duration": 0.042856999999997925,
            "durationTicks": 96,
            "midi": 33,
            "name": "A1",
            "ticks": 117312,
            "time": 52.371254,
            "velocity": 0.4881889763779528
          },
          {
            "duration": 0.042856999999997925,
            "durationTicks": 96,
            "midi": 32,
            "name": "G#1",
            "ticks": 117312,
            "time": 52.371254,
            "velocity": 0.4881889763779528
          },
          {
            "duration": 0.042856999999997925,
            "durationTicks": 96,
            "midi": 40,
            "name": "E2",
            "ticks": 117312,
            "time": 52.371254,
            "velocity": 0.4881889763779528
          },
          {
            "duration": 0.042856999999997925,
            "durationTicks": 96,
            "midi": 38,
            "name": "D2",
            "ticks": 117312,
            "time": 52.371254,
            "velocity": 0.4881889763779528
          },
          {
            "duration": 0.042856999999997925,
            "durationTicks": 96,
            "midi": 32,
            "name": "G#1",
            "ticks": 117312,
            "time": 52.371254,
            "velocity": 0.4881889763779528
          },
          {
            "duration": 0.042856999999997925,
            "durationTicks": 96,
            "midi": 42,
            "name": "F#2",
            "ticks": 117312,
            "time": 52.371254,
            "velocity": 0.4881889763779528
          },
          {
            "duration": 0.042856999999997925,
            "durationTicks": 96,
            "midi": 33,
            "name": "A1",
            "ticks": 117312,
            "time": 52.371254,
            "velocity": 0.4881889763779528
          },
          {
            "duration": 0.042856999999997925,
            "durationTicks": 96,
            "midi": 32,
            "name": "G#1",
            "ticks": 117312,
            "time": 52.371254,
            "velocity": 0.4881889763779528
          },
          {
            "duration": 0.042856999999997925,
            "durationTicks": 96,
            "midi": 42,
            "name": "F#2",
            "ticks": 117408,
            "time": 52.414111,
            "velocity": 0.4881889763779528
          },
          {
            "duration": 0.04285700000000503,
            "durationTicks": 96,
            "midi": 42,
            "name": "F#2",
            "ticks": 117504,
            "time": 52.456967999999996,
            "velocity": 0.4881889763779528
          },
          {
            "duration": 0.042856999999997925,
            "durationTicks": 96,
            "midi": 44,
            "name": "G#2",
            "ticks": 117600,
            "time": 52.499825,
            "velocity": 0.4881889763779528
          },
          {
            "duration": 0.042856999999997925,
            "durationTicks": 96,
            "midi": 44,
            "name": "G#2",
            "ticks": 117696,
            "time": 52.542682,
            "velocity": 0.4881889763779528
          },
          {
            "duration": 0.042856999999997925,
            "durationTicks": 96,
            "midi": 35,
            "name": "B1",
            "ticks": 117696,
            "time": 52.542682,
            "velocity": 0.4881889763779528
          },
          {
            "duration": 0.042856999999997925,
            "durationTicks": 96,
            "midi": 47,
            "name": "B2",
            "ticks": 117696,
            "time": 52.542682,
            "velocity": 0.4881889763779528
          },
          {
            "duration": 0.042856999999997925,
            "durationTicks": 96,
            "midi": 37,
            "name": "C#2",
            "ticks": 117696,
            "time": 52.542682,
            "velocity": 0.4881889763779528
          },
          {
            "duration": 0.042856999999997925,
            "durationTicks": 96,
            "midi": 37,
            "name": "C#2",
            "ticks": 117696,
            "time": 52.542682,
            "velocity": 0.4881889763779528
          },
          {
            "duration": 0.042856999999997925,
            "durationTicks": 96,
            "midi": 37,
            "name": "C#2",
            "ticks": 117696,
            "time": 52.542682,
            "velocity": 0.4881889763779528
          },
          {
            "duration": 0.042856999999997925,
            "durationTicks": 96,
            "midi": 35,
            "name": "B1",
            "ticks": 117696,
            "time": 52.542682,
            "velocity": 0.4881889763779528
          },
          {
            "duration": 0.042856999999997925,
            "durationTicks": 96,
            "midi": 35,
            "name": "B1",
            "ticks": 117696,
            "time": 52.542682,
            "velocity": 0.4881889763779528
          },
          {
            "duration": 0.04285700000000503,
            "durationTicks": 96,
            "midi": 44,
            "name": "G#2",
            "ticks": 117792,
            "time": 52.585539,
            "velocity": 0.4881889763779528
          },
          {
            "duration": 0.042856999999997925,
            "durationTicks": 96,
            "midi": 44,
            "name": "G#2",
            "ticks": 117888,
            "time": 52.628396,
            "velocity": 0.4881889763779528
          },
          {
            "duration": 0.042856999999997925,
            "durationTicks": 96,
            "midi": 40,
            "name": "E2",
            "ticks": 117984,
            "time": 52.671253,
            "velocity": 0.4881889763779528
          },
          {
            "duration": 0.042856999999997925,
            "durationTicks": 96,
            "midi": 40,
            "name": "E2",
            "ticks": 118080,
            "time": 52.71411,
            "velocity": 0.4881889763779528
          },
          {
            "duration": 0.04285700000000503,
            "durationTicks": 96,
            "midi": 40,
            "name": "E2",
            "ticks": 118176,
            "time": 52.756966999999996,
            "velocity": 0.4881889763779528
          },
          {
            "duration": 0.042856999999997925,
            "durationTicks": 96,
            "midi": 40,
            "name": "E2",
            "ticks": 118272,
            "time": 52.799824,
            "velocity": 0.4881889763779528
          },
          {
            "duration": 0.04285700000000503,
            "durationTicks": 96,
            "midi": 33,
            "name": "A1",
            "ticks": 118464,
            "time": 52.885538,
            "velocity": 0.4881889763779528
          },
          {
            "duration": 0.04285700000000503,
            "durationTicks": 96,
            "midi": 32,
            "name": "G#1",
            "ticks": 118464,
            "time": 52.885538,
            "velocity": 0.4881889763779528
          },
          {
            "duration": 0.04285700000000503,
            "durationTicks": 96,
            "midi": 38,
            "name": "D2",
            "ticks": 118464,
            "time": 52.885538,
            "velocity": 0.4881889763779528
          },
          {
            "duration": 0.04285700000000503,
            "durationTicks": 96,
            "midi": 32,
            "name": "G#1",
            "ticks": 118464,
            "time": 52.885538,
            "velocity": 0.4881889763779528
          },
          {
            "duration": 0.04285700000000503,
            "durationTicks": 96,
            "midi": 33,
            "name": "A1",
            "ticks": 118464,
            "time": 52.885538,
            "velocity": 0.4881889763779528
          },
          {
            "duration": 0.04285700000000503,
            "durationTicks": 96,
            "midi": 33,
            "name": "A1",
            "ticks": 118464,
            "time": 52.885538,
            "velocity": 0.4881889763779528
          },
          {
            "duration": 0.04285700000000503,
            "durationTicks": 96,
            "midi": 32,
            "name": "G#1",
            "ticks": 118464,
            "time": 52.885538,
            "velocity": 0.4881889763779528
          },
          {
            "duration": 0.04285700000000503,
            "durationTicks": 96,
            "midi": 32,
            "name": "G#1",
            "ticks": 118464,
            "time": 52.885538,
            "velocity": 0.4881889763779528
          },
          {
            "duration": 0.04285700000000503,
            "durationTicks": 96,
            "midi": 33,
            "name": "A1",
            "ticks": 118464,
            "time": 52.885538,
            "velocity": 0.4881889763779528
          },
          {
            "duration": 0.04285700000000503,
            "durationTicks": 96,
            "midi": 40,
            "name": "E2",
            "ticks": 118464,
            "time": 52.885538,
            "velocity": 0.4881889763779528
          },
          {
            "duration": 0.042856999999997925,
            "durationTicks": 96,
            "midi": 37,
            "name": "C#2",
            "ticks": 119232,
            "time": 53.228394,
            "velocity": 0.4881889763779528
          },
          {
            "duration": 0.042856999999997925,
            "durationTicks": 96,
            "midi": 45,
            "name": "A2",
            "ticks": 119232,
            "time": 53.228394,
            "velocity": 0.4881889763779528
          },
          {
            "duration": 0.042856999999997925,
            "durationTicks": 96,
            "midi": 47,
            "name": "B2",
            "ticks": 119232,
            "time": 53.228394,
            "velocity": 0.4881889763779528
          },
          {
            "duration": 0.042856999999997925,
            "durationTicks": 96,
            "midi": 35,
            "name": "B1",
            "ticks": 119232,
            "time": 53.228394,
            "velocity": 0.4881889763779528
          },
          {
            "duration": 0.042856999999997925,
            "durationTicks": 96,
            "midi": 37,
            "name": "C#2",
            "ticks": 119232,
            "time": 53.228394,
            "velocity": 0.4881889763779528
          },
          {
            "duration": 0.042856999999997925,
            "durationTicks": 96,
            "midi": 35,
            "name": "B1",
            "ticks": 119232,
            "time": 53.228394,
            "velocity": 0.4881889763779528
          },
          {
            "duration": 0.042856999999997925,
            "durationTicks": 96,
            "midi": 35,
            "name": "B1",
            "ticks": 119232,
            "time": 53.228394,
            "velocity": 0.4881889763779528
          },
          {
            "duration": 0.042856999999997925,
            "durationTicks": 96,
            "midi": 37,
            "name": "C#2",
            "ticks": 119232,
            "time": 53.228394,
            "velocity": 0.4881889763779528
          },
          {
            "duration": 0.042856999999997925,
            "durationTicks": 96,
            "midi": 32,
            "name": "G#1",
            "ticks": 120384,
            "time": 53.742678,
            "velocity": 0.4881889763779528
          },
          {
            "duration": 0.042856999999997925,
            "durationTicks": 96,
            "midi": 38,
            "name": "D2",
            "ticks": 120384,
            "time": 53.742678,
            "velocity": 0.4881889763779528
          },
          {
            "duration": 0.042856999999997925,
            "durationTicks": 96,
            "midi": 32,
            "name": "G#1",
            "ticks": 120384,
            "time": 53.742678,
            "velocity": 0.4881889763779528
          },
          {
            "duration": 0.042856999999997925,
            "durationTicks": 96,
            "midi": 33,
            "name": "A1",
            "ticks": 120384,
            "time": 53.742678,
            "velocity": 0.4881889763779528
          },
          {
            "duration": 0.042856999999997925,
            "durationTicks": 96,
            "midi": 32,
            "name": "G#1",
            "ticks": 120384,
            "time": 53.742678,
            "velocity": 0.4881889763779528
          },
          {
            "duration": 0.042856999999997925,
            "durationTicks": 96,
            "midi": 33,
            "name": "A1",
            "ticks": 120384,
            "time": 53.742678,
            "velocity": 0.4881889763779528
          },
          {
            "duration": 0.042856999999997925,
            "durationTicks": 96,
            "midi": 33,
            "name": "A1",
            "ticks": 120384,
            "time": 53.742678,
            "velocity": 0.4881889763779528
          },
          {
            "duration": 0.042856999999997925,
            "durationTicks": 96,
            "midi": 32,
            "name": "G#1",
            "ticks": 120384,
            "time": 53.742678,
            "velocity": 0.4881889763779528
          },
          {
            "duration": 0.042856999999997925,
            "durationTicks": 96,
            "midi": 33,
            "name": "A1",
            "ticks": 120384,
            "time": 53.742678,
            "velocity": 0.4881889763779528
          },
          {
            "duration": 0.042856999999997925,
            "durationTicks": 96,
            "midi": 40,
            "name": "E2",
            "ticks": 120384,
            "time": 53.742678,
            "velocity": 0.4881889763779528
          },
          {
            "duration": 0.04285700000000503,
            "durationTicks": 96,
            "midi": 35,
            "name": "B1",
            "ticks": 120768,
            "time": 53.914106,
            "velocity": 0.4881889763779528
          },
          {
            "duration": 0.04285700000000503,
            "durationTicks": 96,
            "midi": 37,
            "name": "C#2",
            "ticks": 120768,
            "time": 53.914106,
            "velocity": 0.4881889763779528
          },
          {
            "duration": 0.04285700000000503,
            "durationTicks": 96,
            "midi": 35,
            "name": "B1",
            "ticks": 120768,
            "time": 53.914106,
            "velocity": 0.4881889763779528
          },
          {
            "duration": 0.04285700000000503,
            "durationTicks": 96,
            "midi": 35,
            "name": "B1",
            "ticks": 120768,
            "time": 53.914106,
            "velocity": 0.4881889763779528
          },
          {
            "duration": 0.04285700000000503,
            "durationTicks": 96,
            "midi": 47,
            "name": "B2",
            "ticks": 120768,
            "time": 53.914106,
            "velocity": 0.4881889763779528
          },
          {
            "duration": 0.04285700000000503,
            "durationTicks": 96,
            "midi": 37,
            "name": "C#2",
            "ticks": 120768,
            "time": 53.914106,
            "velocity": 0.4881889763779528
          },
          {
            "duration": 0.04285700000000503,
            "durationTicks": 96,
            "midi": 45,
            "name": "A2",
            "ticks": 120768,
            "time": 53.914106,
            "velocity": 0.4881889763779528
          },
          {
            "duration": 0.04285700000000503,
            "durationTicks": 96,
            "midi": 37,
            "name": "C#2",
            "ticks": 120768,
            "time": 53.914106,
            "velocity": 0.4881889763779528
          },
          {
            "duration": 0.04285700000000503,
            "durationTicks": 96,
            "midi": 32,
            "name": "G#1",
            "ticks": 121152,
            "time": 54.085533999999996,
            "velocity": 0.4881889763779528
          },
          {
            "duration": 0.04285700000000503,
            "durationTicks": 96,
            "midi": 33,
            "name": "A1",
            "ticks": 121152,
            "time": 54.085533999999996,
            "velocity": 0.4881889763779528
          },
          {
            "duration": 0.04285700000000503,
            "durationTicks": 96,
            "midi": 33,
            "name": "A1",
            "ticks": 121152,
            "time": 54.085533999999996,
            "velocity": 0.4881889763779528
          },
          {
            "duration": 0.04285700000000503,
            "durationTicks": 96,
            "midi": 33,
            "name": "A1",
            "ticks": 121152,
            "time": 54.085533999999996,
            "velocity": 0.4881889763779528
          },
          {
            "duration": 0.04285700000000503,
            "durationTicks": 96,
            "midi": 33,
            "name": "A1",
            "ticks": 121152,
            "time": 54.085533999999996,
            "velocity": 0.4881889763779528
          },
          {
            "duration": 0.04285700000000503,
            "durationTicks": 96,
            "midi": 32,
            "name": "G#1",
            "ticks": 121152,
            "time": 54.085533999999996,
            "velocity": 0.4881889763779528
          },
          {
            "duration": 0.04285700000000503,
            "durationTicks": 96,
            "midi": 40,
            "name": "E2",
            "ticks": 121152,
            "time": 54.085533999999996,
            "velocity": 0.4881889763779528
          },
          {
            "duration": 0.04285700000000503,
            "durationTicks": 96,
            "midi": 32,
            "name": "G#1",
            "ticks": 121152,
            "time": 54.085533999999996,
            "velocity": 0.4881889763779528
          },
          {
            "duration": 0.04285700000000503,
            "durationTicks": 96,
            "midi": 38,
            "name": "D2",
            "ticks": 121152,
            "time": 54.085533999999996,
            "velocity": 0.4881889763779528
          },
          {
            "duration": 0.04285700000000503,
            "durationTicks": 96,
            "midi": 32,
            "name": "G#1",
            "ticks": 121152,
            "time": 54.085533999999996,
            "velocity": 0.4881889763779528
          },
          {
            "duration": 0.042856999999997925,
            "durationTicks": 96,
            "midi": 32,
            "name": "G#1",
            "ticks": 121536,
            "time": 54.256962,
            "velocity": 0.4881889763779528
          },
          {
            "duration": 0.042856999999997925,
            "durationTicks": 96,
            "midi": 32,
            "name": "G#1",
            "ticks": 121536,
            "time": 54.256962,
            "velocity": 0.4881889763779528
          },
          {
            "duration": 0.042856999999997925,
            "durationTicks": 96,
            "midi": 33,
            "name": "A1",
            "ticks": 121536,
            "time": 54.256962,
            "velocity": 0.4881889763779528
          },
          {
            "duration": 0.042856999999997925,
            "durationTicks": 96,
            "midi": 38,
            "name": "D2",
            "ticks": 121536,
            "time": 54.256962,
            "velocity": 0.4881889763779528
          },
          {
            "duration": 0.042856999999997925,
            "durationTicks": 96,
            "midi": 33,
            "name": "A1",
            "ticks": 121536,
            "time": 54.256962,
            "velocity": 0.4881889763779528
          },
          {
            "duration": 0.042856999999997925,
            "durationTicks": 96,
            "midi": 33,
            "name": "A1",
            "ticks": 121536,
            "time": 54.256962,
            "velocity": 0.4881889763779528
          },
          {
            "duration": 0.042856999999997925,
            "durationTicks": 96,
            "midi": 32,
            "name": "G#1",
            "ticks": 121536,
            "time": 54.256962,
            "velocity": 0.4881889763779528
          },
          {
            "duration": 0.042856999999997925,
            "durationTicks": 96,
            "midi": 33,
            "name": "A1",
            "ticks": 121536,
            "time": 54.256962,
            "velocity": 0.4881889763779528
          },
          {
            "duration": 0.042856999999997925,
            "durationTicks": 96,
            "midi": 40,
            "name": "E2",
            "ticks": 121536,
            "time": 54.256962,
            "velocity": 0.4881889763779528
          },
          {
            "duration": 0.042856999999997925,
            "durationTicks": 96,
            "midi": 32,
            "name": "G#1",
            "ticks": 121536,
            "time": 54.256962,
            "velocity": 0.4881889763779528
          },
          {
            "duration": 0.042856999999997925,
            "durationTicks": 96,
            "midi": 76,
            "name": "E5",
            "ticks": 122304,
            "time": 54.599818,
            "velocity": 0.4881889763779528
          },
          {
            "duration": 0.042856999999997925,
            "durationTicks": 96,
            "midi": 76,
            "name": "E5",
            "ticks": 122304,
            "time": 54.599818,
            "velocity": 0.4881889763779528
          },
          {
            "duration": 0.042856999999997925,
            "durationTicks": 96,
            "midi": 35,
            "name": "B1",
            "ticks": 122304,
            "time": 54.599818,
            "velocity": 0.4881889763779528
          },
          {
            "duration": 0.042856999999997925,
            "durationTicks": 96,
            "midi": 37,
            "name": "C#2",
            "ticks": 122304,
            "time": 54.599818,
            "velocity": 0.4881889763779528
          },
          {
            "duration": 0.042856999999997925,
            "durationTicks": 96,
            "midi": 35,
            "name": "B1",
            "ticks": 122304,
            "time": 54.599818,
            "velocity": 0.4881889763779528
          },
          {
            "duration": 0.042856999999997925,
            "durationTicks": 96,
            "midi": 45,
            "name": "A2",
            "ticks": 122304,
            "time": 54.599818,
            "velocity": 0.4881889763779528
          },
          {
            "duration": 0.042856999999997925,
            "durationTicks": 96,
            "midi": 37,
            "name": "C#2",
            "ticks": 122304,
            "time": 54.599818,
            "velocity": 0.4881889763779528
          },
          {
            "duration": 0.042856999999997925,
            "durationTicks": 96,
            "midi": 35,
            "name": "B1",
            "ticks": 122304,
            "time": 54.599818,
            "velocity": 0.4881889763779528
          },
          {
            "duration": 0.042856999999997925,
            "durationTicks": 96,
            "midi": 37,
            "name": "C#2",
            "ticks": 122304,
            "time": 54.599818,
            "velocity": 0.4881889763779528
          },
          {
            "duration": 0.042856999999997925,
            "durationTicks": 96,
            "midi": 47,
            "name": "B2",
            "ticks": 122304,
            "time": 54.599818,
            "velocity": 0.4881889763779528
          },
          {
            "duration": 0.042856999999997925,
            "durationTicks": 96,
            "midi": 76,
            "name": "E5",
            "ticks": 122352,
            "time": 54.6212465,
            "velocity": 0.4881889763779528
          },
          {
            "duration": 0.042856999999997925,
            "durationTicks": 96,
            "midi": 76,
            "name": "E5",
            "ticks": 122352,
            "time": 54.6212465,
            "velocity": 0.4881889763779528
          },
          {
            "duration": 0.04285700000000503,
            "durationTicks": 96,
            "midi": 76,
            "name": "E5",
            "ticks": 122400,
            "time": 54.642675,
            "velocity": 0.4881889763779528
          },
          {
            "duration": 0.04285700000000503,
            "durationTicks": 96,
            "midi": 76,
            "name": "E5",
            "ticks": 122400,
            "time": 54.642675,
            "velocity": 0.4881889763779528
          },
          {
            "duration": 0.04285700000000503,
            "durationTicks": 96,
            "midi": 76,
            "name": "E5",
            "ticks": 122448,
            "time": 54.664103499999996,
            "velocity": 0.4881889763779528
          },
          {
            "duration": 0.04285700000000503,
            "durationTicks": 96,
            "midi": 76,
            "name": "E5",
            "ticks": 122448,
            "time": 54.664103499999996,
            "velocity": 0.4881889763779528
          },
          {
            "duration": 0.042856999999997925,
            "durationTicks": 96,
            "midi": 76,
            "name": "E5",
            "ticks": 122496,
            "time": 54.685532,
            "velocity": 0.4881889763779528
          },
          {
            "duration": 0.042856999999997925,
            "durationTicks": 96,
            "midi": 76,
            "name": "E5",
            "ticks": 122496,
            "time": 54.685532,
            "velocity": 0.4881889763779528
          },
          {
            "duration": 0.042856999999997925,
            "durationTicks": 96,
            "midi": 76,
            "name": "E5",
            "ticks": 122544,
            "time": 54.7069605,
            "velocity": 0.4881889763779528
          },
          {
            "duration": 0.042856999999997925,
            "durationTicks": 96,
            "midi": 76,
            "name": "E5",
            "ticks": 122544,
            "time": 54.7069605,
            "velocity": 0.4881889763779528
          },
          {
            "duration": 0.042856999999997925,
            "durationTicks": 96,
            "midi": 76,
            "name": "E5",
            "ticks": 122592,
            "time": 54.728389,
            "velocity": 0.4881889763779528
          },
          {
            "duration": 0.042856999999997925,
            "durationTicks": 96,
            "midi": 76,
            "name": "E5",
            "ticks": 122592,
            "time": 54.728389,
            "velocity": 0.4881889763779528
          },
          {
            "duration": 0.042856999999997925,
            "durationTicks": 96,
            "midi": 76,
            "name": "E5",
            "ticks": 122640,
            "time": 54.7498175,
            "velocity": 0.4881889763779528
          },
          {
            "duration": 0.042856999999997925,
            "durationTicks": 96,
            "midi": 76,
            "name": "E5",
            "ticks": 122640,
            "time": 54.7498175,
            "velocity": 0.4881889763779528
          },
          {
            "duration": 0.042856999999997925,
            "durationTicks": 96,
            "midi": 76,
            "name": "E5",
            "ticks": 122688,
            "time": 54.771246,
            "velocity": 0.4881889763779528
          },
          {
            "duration": 0.042856999999997925,
            "durationTicks": 96,
            "midi": 76,
            "name": "E5",
            "ticks": 122688,
            "time": 54.771246,
            "velocity": 0.4881889763779528
          },
          {
            "duration": 0.04285700000000503,
            "durationTicks": 96,
            "midi": 76,
            "name": "E5",
            "ticks": 122736,
            "time": 54.7926745,
            "velocity": 0.4881889763779528
          },
          {
            "duration": 0.04285700000000503,
            "durationTicks": 96,
            "midi": 76,
            "name": "E5",
            "ticks": 122736,
            "time": 54.7926745,
            "velocity": 0.4881889763779528
          },
          {
            "duration": 0.04285700000000503,
            "durationTicks": 96,
            "midi": 76,
            "name": "E5",
            "ticks": 122784,
            "time": 54.814102999999996,
            "velocity": 0.4881889763779528
          },
          {
            "duration": 0.04285700000000503,
            "durationTicks": 96,
            "midi": 76,
            "name": "E5",
            "ticks": 122784,
            "time": 54.814102999999996,
            "velocity": 0.4881889763779528
          },
          {
            "duration": 0.042856999999997925,
            "durationTicks": 96,
            "midi": 76,
            "name": "E5",
            "ticks": 122832,
            "time": 54.8355315,
            "velocity": 0.4881889763779528
          },
          {
            "duration": 0.042856999999997925,
            "durationTicks": 96,
            "midi": 76,
            "name": "E5",
            "ticks": 122832,
            "time": 54.8355315,
            "velocity": 0.4881889763779528
          },
          {
            "duration": 0.042856999999997925,
            "durationTicks": 96,
            "midi": 76,
            "name": "E5",
            "ticks": 122880,
            "time": 54.85696,
            "velocity": 0.4881889763779528
          },
          {
            "duration": 0.042856999999997925,
            "durationTicks": 96,
            "midi": 76,
            "name": "E5",
            "ticks": 122880,
            "time": 54.85696,
            "velocity": 0.4881889763779528
          },
          {
            "duration": 0.042856999999997925,
            "durationTicks": 96,
            "midi": 76,
            "name": "E5",
            "ticks": 122928,
            "time": 54.8783885,
            "velocity": 0.4881889763779528
          },
          {
            "duration": 0.042856999999997925,
            "durationTicks": 96,
            "midi": 76,
            "name": "E5",
            "ticks": 122928,
            "time": 54.8783885,
            "velocity": 0.4881889763779528
          },
          {
            "duration": 0.042856999999997925,
            "durationTicks": 96,
            "midi": 76,
            "name": "E5",
            "ticks": 122976,
            "time": 54.899817,
            "velocity": 0.4881889763779528
          },
          {
            "duration": 0.042856999999997925,
            "durationTicks": 96,
            "midi": 76,
            "name": "E5",
            "ticks": 122976,
            "time": 54.899817,
            "velocity": 0.4881889763779528
          },
          {
            "duration": 0.042856999999997925,
            "durationTicks": 96,
            "midi": 76,
            "name": "E5",
            "ticks": 123024,
            "time": 54.9212455,
            "velocity": 0.4881889763779528
          },
          {
            "duration": 0.042856999999997925,
            "durationTicks": 96,
            "midi": 76,
            "name": "E5",
            "ticks": 123024,
            "time": 54.9212455,
            "velocity": 0.4881889763779528
          },
          {
            "duration": 0.04285700000000503,
            "durationTicks": 96,
            "midi": 76,
            "name": "E5",
            "ticks": 123072,
            "time": 54.942674,
            "velocity": 0.4881889763779528
          },
          {
            "duration": 0.04285700000000503,
            "durationTicks": 96,
            "midi": 76,
            "name": "E5",
            "ticks": 123072,
            "time": 54.942674,
            "velocity": 0.4881889763779528
          },
          {
            "duration": 0.04285700000000503,
            "durationTicks": 96,
            "midi": 76,
            "name": "E5",
            "ticks": 123120,
            "time": 54.964102499999996,
            "velocity": 0.4881889763779528
          },
          {
            "duration": 0.04285700000000503,
            "durationTicks": 96,
            "midi": 76,
            "name": "E5",
            "ticks": 123120,
            "time": 54.964102499999996,
            "velocity": 0.4881889763779528
          },
          {
            "duration": 0.042856999999997925,
            "durationTicks": 96,
            "midi": 76,
            "name": "E5",
            "ticks": 123168,
            "time": 54.985531,
            "velocity": 0.4881889763779528
          },
          {
            "duration": 0.042856999999997925,
            "durationTicks": 96,
            "midi": 76,
            "name": "E5",
            "ticks": 123168,
            "time": 54.985531,
            "velocity": 0.4881889763779528
          },
          {
            "duration": 0.042856999999997925,
            "durationTicks": 96,
            "midi": 76,
            "name": "E5",
            "ticks": 123216,
            "time": 55.0069595,
            "velocity": 0.4881889763779528
          },
          {
            "duration": 0.042856999999997925,
            "durationTicks": 96,
            "midi": 76,
            "name": "E5",
            "ticks": 123216,
            "time": 55.0069595,
            "velocity": 0.4881889763779528
          },
          {
            "duration": 0.042856999999997925,
            "durationTicks": 96,
            "midi": 76,
            "name": "E5",
            "ticks": 123456,
            "time": 55.114102,
            "velocity": 0.4881889763779528
          },
          {
            "duration": 0.042856999999997925,
            "durationTicks": 96,
            "midi": 32,
            "name": "G#1",
            "ticks": 123456,
            "time": 55.114102,
            "velocity": 0.4881889763779528
          },
          {
            "duration": 0.042856999999997925,
            "durationTicks": 96,
            "midi": 33,
            "name": "A1",
            "ticks": 123456,
            "time": 55.114102,
            "velocity": 0.4881889763779528
          },
          {
            "duration": 0.042856999999997925,
            "durationTicks": 96,
            "midi": 32,
            "name": "G#1",
            "ticks": 123456,
            "time": 55.114102,
            "velocity": 0.4881889763779528
          },
          {
            "duration": 0.042856999999997925,
            "durationTicks": 96,
            "midi": 33,
            "name": "A1",
            "ticks": 123456,
            "time": 55.114102,
            "velocity": 0.4881889763779528
          },
          {
            "duration": 0.042856999999997925,
            "durationTicks": 96,
            "midi": 76,
            "name": "E5",
            "ticks": 123456,
            "time": 55.114102,
            "velocity": 0.4881889763779528
          },
          {
            "duration": 0.042856999999997925,
            "durationTicks": 96,
            "midi": 33,
            "name": "A1",
            "ticks": 123456,
            "time": 55.114102,
            "velocity": 0.4881889763779528
          },
          {
            "duration": 0.042856999999997925,
            "durationTicks": 96,
            "midi": 33,
            "name": "A1",
            "ticks": 123456,
            "time": 55.114102,
            "velocity": 0.4881889763779528
          },
          {
            "duration": 0.042856999999997925,
            "durationTicks": 96,
            "midi": 32,
            "name": "G#1",
            "ticks": 123456,
            "time": 55.114102,
            "velocity": 0.4881889763779528
          },
          {
            "duration": 0.042856999999997925,
            "durationTicks": 96,
            "midi": 32,
            "name": "G#1",
            "ticks": 123456,
            "time": 55.114102,
            "velocity": 0.4881889763779528
          },
          {
            "duration": 0.042856999999997925,
            "durationTicks": 96,
            "midi": 40,
            "name": "E2",
            "ticks": 123456,
            "time": 55.114102,
            "velocity": 0.4881889763779528
          },
          {
            "duration": 0.042856999999997925,
            "durationTicks": 96,
            "midi": 38,
            "name": "D2",
            "ticks": 123456,
            "time": 55.114102,
            "velocity": 0.4881889763779528
          },
          {
            "duration": 0.042856999999997925,
            "durationTicks": 96,
            "midi": 76,
            "name": "E5",
            "ticks": 123504,
            "time": 55.1355305,
            "velocity": 0.4881889763779528
          },
          {
            "duration": 0.042856999999997925,
            "durationTicks": 96,
            "midi": 76,
            "name": "E5",
            "ticks": 123504,
            "time": 55.1355305,
            "velocity": 0.4881889763779528
          },
          {
            "duration": 0.042856999999997925,
            "durationTicks": 96,
            "midi": 76,
            "name": "E5",
            "ticks": 123552,
            "time": 55.156959,
            "velocity": 0.4881889763779528
          },
          {
            "duration": 0.042856999999997925,
            "durationTicks": 96,
            "midi": 76,
            "name": "E5",
            "ticks": 123552,
            "time": 55.156959,
            "velocity": 0.4881889763779528
          },
          {
            "duration": 0.042856999999997925,
            "durationTicks": 96,
            "midi": 76,
            "name": "E5",
            "ticks": 123600,
            "time": 55.1783875,
            "velocity": 0.4881889763779528
          },
          {
            "duration": 0.042856999999997925,
            "durationTicks": 96,
            "midi": 76,
            "name": "E5",
            "ticks": 123600,
            "time": 55.1783875,
            "velocity": 0.4881889763779528
          },
          {
            "duration": 0.042856999999997925,
            "durationTicks": 96,
            "midi": 37,
            "name": "C#2",
            "ticks": 123840,
            "time": 55.28553,
            "velocity": 0.4881889763779528
          },
          {
            "duration": 0.042856999999997925,
            "durationTicks": 96,
            "midi": 37,
            "name": "C#2",
            "ticks": 123840,
            "time": 55.28553,
            "velocity": 0.4881889763779528
          },
          {
            "duration": 0.042856999999997925,
            "durationTicks": 96,
            "midi": 76,
            "name": "E5",
            "ticks": 123840,
            "time": 55.28553,
            "velocity": 0.4881889763779528
          },
          {
            "duration": 0.042856999999997925,
            "durationTicks": 96,
            "midi": 47,
            "name": "B2",
            "ticks": 123840,
            "time": 55.28553,
            "velocity": 0.4881889763779528
          },
          {
            "duration": 0.042856999999997925,
            "durationTicks": 96,
            "midi": 35,
            "name": "B1",
            "ticks": 123840,
            "time": 55.28553,
            "velocity": 0.4881889763779528
          },
          {
            "duration": 0.042856999999997925,
            "durationTicks": 96,
            "midi": 45,
            "name": "A2",
            "ticks": 123840,
            "time": 55.28553,
            "velocity": 0.4881889763779528
          },
          {
            "duration": 0.042856999999997925,
            "durationTicks": 96,
            "midi": 37,
            "name": "C#2",
            "ticks": 123840,
            "time": 55.28553,
            "velocity": 0.4881889763779528
          },
          {
            "duration": 0.042856999999997925,
            "durationTicks": 96,
            "midi": 35,
            "name": "B1",
            "ticks": 123840,
            "time": 55.28553,
            "velocity": 0.4881889763779528
          },
          {
            "duration": 0.042856999999997925,
            "durationTicks": 96,
            "midi": 35,
            "name": "B1",
            "ticks": 123840,
            "time": 55.28553,
            "velocity": 0.4881889763779528
          },
          {
            "duration": 0.042856999999997925,
            "durationTicks": 96,
            "midi": 76,
            "name": "E5",
            "ticks": 123840,
            "time": 55.28553,
            "velocity": 0.4881889763779528
          },
          {
            "duration": 0.042856999999997925,
            "durationTicks": 96,
            "midi": 76,
            "name": "E5",
            "ticks": 123888,
            "time": 55.3069585,
            "velocity": 0.4881889763779528
          },
          {
            "duration": 0.042856999999997925,
            "durationTicks": 96,
            "midi": 76,
            "name": "E5",
            "ticks": 123888,
            "time": 55.3069585,
            "velocity": 0.4881889763779528
          },
          {
            "duration": 0.042856999999997925,
            "durationTicks": 96,
            "midi": 76,
            "name": "E5",
            "ticks": 123936,
            "time": 55.328387,
            "velocity": 0.4881889763779528
          },
          {
            "duration": 0.042856999999997925,
            "durationTicks": 96,
            "midi": 76,
            "name": "E5",
            "ticks": 123936,
            "time": 55.328387,
            "velocity": 0.4881889763779528
          },
          {
            "duration": 0.042856999999997925,
            "durationTicks": 96,
            "midi": 76,
            "name": "E5",
            "ticks": 123984,
            "time": 55.3498155,
            "velocity": 0.4881889763779528
          },
          {
            "duration": 0.042856999999997925,
            "durationTicks": 96,
            "midi": 76,
            "name": "E5",
            "ticks": 123984,
            "time": 55.3498155,
            "velocity": 0.4881889763779528
          },
          {
            "duration": 0.042856999999997925,
            "durationTicks": 96,
            "midi": 76,
            "name": "E5",
            "ticks": 124224,
            "time": 55.456958,
            "velocity": 0.4881889763779528
          },
          {
            "duration": 0.042856999999997925,
            "durationTicks": 96,
            "midi": 76,
            "name": "E5",
            "ticks": 124224,
            "time": 55.456958,
            "velocity": 0.4881889763779528
          },
          {
            "duration": 0.042856999999997925,
            "durationTicks": 96,
            "midi": 76,
            "name": "E5",
            "ticks": 124272,
            "time": 55.4783865,
            "velocity": 0.4881889763779528
          },
          {
            "duration": 0.042856999999997925,
            "durationTicks": 96,
            "midi": 76,
            "name": "E5",
            "ticks": 124272,
            "time": 55.4783865,
            "velocity": 0.4881889763779528
          },
          {
            "duration": 0.042856999999997925,
            "durationTicks": 96,
            "midi": 76,
            "name": "E5",
            "ticks": 124320,
            "time": 55.499815,
            "velocity": 0.4881889763779528
          },
          {
            "duration": 0.042856999999997925,
            "durationTicks": 96,
            "midi": 76,
            "name": "E5",
            "ticks": 124320,
            "time": 55.499815,
            "velocity": 0.4881889763779528
          },
          {
            "duration": 0.04285700000000503,
            "durationTicks": 96,
            "midi": 76,
            "name": "E5",
            "ticks": 124368,
            "time": 55.5212435,
            "velocity": 0.4881889763779528
          },
          {
            "duration": 0.04285700000000503,
            "durationTicks": 96,
            "midi": 76,
            "name": "E5",
            "ticks": 124368,
            "time": 55.5212435,
            "velocity": 0.4881889763779528
          },
          {
            "duration": 0.042856999999997925,
            "durationTicks": 96,
            "midi": 37,
            "name": "C#2",
            "ticks": 124608,
            "time": 55.628386,
            "velocity": 0.4881889763779528
          },
          {
            "duration": 0.042856999999997925,
            "durationTicks": 96,
            "midi": 35,
            "name": "B1",
            "ticks": 124608,
            "time": 55.628386,
            "velocity": 0.4881889763779528
          },
          {
            "duration": 0.042856999999997925,
            "durationTicks": 96,
            "midi": 37,
            "name": "C#2",
            "ticks": 124608,
            "time": 55.628386,
            "velocity": 0.4881889763779528
          },
          {
            "duration": 0.042856999999997925,
            "durationTicks": 96,
            "midi": 35,
            "name": "B1",
            "ticks": 124608,
            "time": 55.628386,
            "velocity": 0.4881889763779528
          },
          {
            "duration": 0.042856999999997925,
            "durationTicks": 96,
            "midi": 35,
            "name": "B1",
            "ticks": 124608,
            "time": 55.628386,
            "velocity": 0.4881889763779528
          },
          {
            "duration": 0.042856999999997925,
            "durationTicks": 96,
            "midi": 47,
            "name": "B2",
            "ticks": 124608,
            "time": 55.628386,
            "velocity": 0.4881889763779528
          },
          {
            "duration": 0.042856999999997925,
            "durationTicks": 96,
            "midi": 37,
            "name": "C#2",
            "ticks": 124608,
            "time": 55.628386,
            "velocity": 0.4881889763779528
          },
          {
            "duration": 0.042856999999997925,
            "durationTicks": 96,
            "midi": 45,
            "name": "A2",
            "ticks": 124608,
            "time": 55.628386,
            "velocity": 0.4881889763779528
          },
          {
            "duration": 0.042856999999997925,
            "durationTicks": 96,
            "midi": 33,
            "name": "A1",
            "ticks": 124992,
            "time": 55.799814,
            "velocity": 0.4881889763779528
          },
          {
            "duration": 0.042856999999997925,
            "durationTicks": 96,
            "midi": 32,
            "name": "G#1",
            "ticks": 124992,
            "time": 55.799814,
            "velocity": 0.4881889763779528
          },
          {
            "duration": 0.042856999999997925,
            "durationTicks": 96,
            "midi": 32,
            "name": "G#1",
            "ticks": 124992,
            "time": 55.799814,
            "velocity": 0.4881889763779528
          },
          {
            "duration": 0.042856999999997925,
            "durationTicks": 96,
            "midi": 40,
            "name": "E2",
            "ticks": 124992,
            "time": 55.799814,
            "velocity": 0.4881889763779528
          },
          {
            "duration": 0.042856999999997925,
            "durationTicks": 96,
            "midi": 33,
            "name": "A1",
            "ticks": 124992,
            "time": 55.799814,
            "velocity": 0.4881889763779528
          },
          {
            "duration": 0.042856999999997925,
            "durationTicks": 96,
            "midi": 33,
            "name": "A1",
            "ticks": 124992,
            "time": 55.799814,
            "velocity": 0.4881889763779528
          },
          {
            "duration": 0.042856999999997925,
            "durationTicks": 96,
            "midi": 32,
            "name": "G#1",
            "ticks": 124992,
            "time": 55.799814,
            "velocity": 0.4881889763779528
          },
          {
            "duration": 0.042856999999997925,
            "durationTicks": 96,
            "midi": 32,
            "name": "G#1",
            "ticks": 124992,
            "time": 55.799814,
            "velocity": 0.4881889763779528
          },
          {
            "duration": 0.042856999999997925,
            "durationTicks": 96,
            "midi": 38,
            "name": "D2",
            "ticks": 124992,
            "time": 55.799814,
            "velocity": 0.4881889763779528
          },
          {
            "duration": 0.042856999999997925,
            "durationTicks": 96,
            "midi": 33,
            "name": "A1",
            "ticks": 124992,
            "time": 55.799814,
            "velocity": 0.4881889763779528
          },
          {
            "duration": 0.04285700000000503,
            "durationTicks": 96,
            "midi": 47,
            "name": "B2",
            "ticks": 125376,
            "time": 55.971242,
            "velocity": 0.4881889763779528
          },
          {
            "duration": 0.04285700000000503,
            "durationTicks": 96,
            "midi": 45,
            "name": "A2",
            "ticks": 125376,
            "time": 55.971242,
            "velocity": 0.4881889763779528
          },
          {
            "duration": 0.04285700000000503,
            "durationTicks": 96,
            "midi": 35,
            "name": "B1",
            "ticks": 125376,
            "time": 55.971242,
            "velocity": 0.4881889763779528
          },
          {
            "duration": 0.04285700000000503,
            "durationTicks": 96,
            "midi": 37,
            "name": "C#2",
            "ticks": 125376,
            "time": 55.971242,
            "velocity": 0.4881889763779528
          },
          {
            "duration": 0.04285700000000503,
            "durationTicks": 96,
            "midi": 37,
            "name": "C#2",
            "ticks": 125376,
            "time": 55.971242,
            "velocity": 0.4881889763779528
          },
          {
            "duration": 0.04285700000000503,
            "durationTicks": 96,
            "midi": 37,
            "name": "C#2",
            "ticks": 125376,
            "time": 55.971242,
            "velocity": 0.4881889763779528
          },
          {
            "duration": 0.04285700000000503,
            "durationTicks": 96,
            "midi": 35,
            "name": "B1",
            "ticks": 125376,
            "time": 55.971242,
            "velocity": 0.4881889763779528
          },
          {
            "duration": 0.04285700000000503,
            "durationTicks": 96,
            "midi": 35,
            "name": "B1",
            "ticks": 125376,
            "time": 55.971242,
            "velocity": 0.4881889763779528
          },
          {
            "duration": 0.042856999999997925,
            "durationTicks": 96,
            "midi": 33,
            "name": "A1",
            "ticks": 125760,
            "time": 56.14267,
            "velocity": 0.4881889763779528
          },
          {
            "duration": 0.042856999999997925,
            "durationTicks": 96,
            "midi": 38,
            "name": "D2",
            "ticks": 125760,
            "time": 56.14267,
            "velocity": 0.4881889763779528
          },
          {
            "duration": 0.042856999999997925,
            "durationTicks": 96,
            "midi": 32,
            "name": "G#1",
            "ticks": 125760,
            "time": 56.14267,
            "velocity": 0.4881889763779528
          },
          {
            "duration": 0.042856999999997925,
            "durationTicks": 96,
            "midi": 32,
            "name": "G#1",
            "ticks": 125760,
            "time": 56.14267,
            "velocity": 0.4881889763779528
          },
          {
            "duration": 0.042856999999997925,
            "durationTicks": 96,
            "midi": 33,
            "name": "A1",
            "ticks": 125760,
            "time": 56.14267,
            "velocity": 0.4881889763779528
          },
          {
            "duration": 0.042856999999997925,
            "durationTicks": 96,
            "midi": 33,
            "name": "A1",
            "ticks": 125760,
            "time": 56.14267,
            "velocity": 0.4881889763779528
          },
          {
            "duration": 0.042856999999997925,
            "durationTicks": 96,
            "midi": 32,
            "name": "G#1",
            "ticks": 125760,
            "time": 56.14267,
            "velocity": 0.4881889763779528
          },
          {
            "duration": 0.042856999999997925,
            "durationTicks": 96,
            "midi": 33,
            "name": "A1",
            "ticks": 125760,
            "time": 56.14267,
            "velocity": 0.4881889763779528
          },
          {
            "duration": 0.042856999999997925,
            "durationTicks": 96,
            "midi": 40,
            "name": "E2",
            "ticks": 125760,
            "time": 56.14267,
            "velocity": 0.4881889763779528
          },
          {
            "duration": 0.042856999999997925,
            "durationTicks": 96,
            "midi": 32,
            "name": "G#1",
            "ticks": 125760,
            "time": 56.14267,
            "velocity": 0.4881889763779528
          },
          {
            "duration": 0.042856999999997925,
            "durationTicks": 96,
            "midi": 47,
            "name": "B2",
            "ticks": 126144,
            "time": 56.314098,
            "velocity": 0.4881889763779528
          },
          {
            "duration": 0.042856999999997925,
            "durationTicks": 96,
            "midi": 37,
            "name": "C#2",
            "ticks": 126144,
            "time": 56.314098,
            "velocity": 0.4881889763779528
          },
          {
            "duration": 0.042856999999997925,
            "durationTicks": 96,
            "midi": 45,
            "name": "A2",
            "ticks": 126144,
            "time": 56.314098,
            "velocity": 0.4881889763779528
          },
          {
            "duration": 0.042856999999997925,
            "durationTicks": 96,
            "midi": 35,
            "name": "B1",
            "ticks": 126144,
            "time": 56.314098,
            "velocity": 0.4881889763779528
          },
          {
            "duration": 0.042856999999997925,
            "durationTicks": 96,
            "midi": 37,
            "name": "C#2",
            "ticks": 126144,
            "time": 56.314098,
            "velocity": 0.4881889763779528
          },
          {
            "duration": 0.042856999999997925,
            "durationTicks": 96,
            "midi": 35,
            "name": "B1",
            "ticks": 126144,
            "time": 56.314098,
            "velocity": 0.4881889763779528
          },
          {
            "duration": 0.042856999999997925,
            "durationTicks": 96,
            "midi": 37,
            "name": "C#2",
            "ticks": 126144,
            "time": 56.314098,
            "velocity": 0.4881889763779528
          },
          {
            "duration": 0.042856999999997925,
            "durationTicks": 96,
            "midi": 35,
            "name": "B1",
            "ticks": 126144,
            "time": 56.314098,
            "velocity": 0.4881889763779528
          },
          {
            "duration": 0.04285700000000503,
            "durationTicks": 96,
            "midi": 47,
            "name": "B2",
            "ticks": 126336,
            "time": 56.399812,
            "velocity": 0.4881889763779528
          },
          {
            "duration": 0.04285700000000503,
            "durationTicks": 96,
            "midi": 35,
            "name": "B1",
            "ticks": 126336,
            "time": 56.399812,
            "velocity": 0.4881889763779528
          },
          {
            "duration": 0.04285700000000503,
            "durationTicks": 96,
            "midi": 35,
            "name": "B1",
            "ticks": 126336,
            "time": 56.399812,
            "velocity": 0.4881889763779528
          },
          {
            "duration": 0.04285700000000503,
            "durationTicks": 96,
            "midi": 37,
            "name": "C#2",
            "ticks": 126336,
            "time": 56.399812,
            "velocity": 0.4881889763779528
          },
          {
            "duration": 0.04285700000000503,
            "durationTicks": 96,
            "midi": 35,
            "name": "B1",
            "ticks": 126336,
            "time": 56.399812,
            "velocity": 0.4881889763779528
          },
          {
            "duration": 0.04285700000000503,
            "durationTicks": 96,
            "midi": 37,
            "name": "C#2",
            "ticks": 126336,
            "time": 56.399812,
            "velocity": 0.4881889763779528
          },
          {
            "duration": 0.04285700000000503,
            "durationTicks": 96,
            "midi": 37,
            "name": "C#2",
            "ticks": 126336,
            "time": 56.399812,
            "velocity": 0.4881889763779528
          },
          {
            "duration": 0.04285700000000503,
            "durationTicks": 96,
            "midi": 45,
            "name": "A2",
            "ticks": 126336,
            "time": 56.399812,
            "velocity": 0.4881889763779528
          },
          {
            "duration": 0.042856999999997925,
            "durationTicks": 96,
            "midi": 33,
            "name": "A1",
            "ticks": 126528,
            "time": 56.485526,
            "velocity": 0.4881889763779528
          },
          {
            "duration": 0.042856999999997925,
            "durationTicks": 96,
            "midi": 32,
            "name": "G#1",
            "ticks": 126528,
            "time": 56.485526,
            "velocity": 0.4881889763779528
          },
          {
            "duration": 0.042856999999997925,
            "durationTicks": 96,
            "midi": 33,
            "name": "A1",
            "ticks": 126528,
            "time": 56.485526,
            "velocity": 0.4881889763779528
          },
          {
            "duration": 0.042856999999997925,
            "durationTicks": 96,
            "midi": 40,
            "name": "E2",
            "ticks": 126528,
            "time": 56.485526,
            "velocity": 0.4881889763779528
          },
          {
            "duration": 0.042856999999997925,
            "durationTicks": 96,
            "midi": 33,
            "name": "A1",
            "ticks": 126528,
            "time": 56.485526,
            "velocity": 0.4881889763779528
          },
          {
            "duration": 0.042856999999997925,
            "durationTicks": 96,
            "midi": 32,
            "name": "G#1",
            "ticks": 126528,
            "time": 56.485526,
            "velocity": 0.4881889763779528
          },
          {
            "duration": 0.042856999999997925,
            "durationTicks": 96,
            "midi": 32,
            "name": "G#1",
            "ticks": 126528,
            "time": 56.485526,
            "velocity": 0.4881889763779528
          },
          {
            "duration": 0.042856999999997925,
            "durationTicks": 96,
            "midi": 33,
            "name": "A1",
            "ticks": 126528,
            "time": 56.485526,
            "velocity": 0.4881889763779528
          },
          {
            "duration": 0.042856999999997925,
            "durationTicks": 96,
            "midi": 32,
            "name": "G#1",
            "ticks": 126528,
            "time": 56.485526,
            "velocity": 0.4881889763779528
          },
          {
            "duration": 0.042856999999997925,
            "durationTicks": 96,
            "midi": 38,
            "name": "D2",
            "ticks": 126528,
            "time": 56.485526,
            "velocity": 0.4881889763779528
          },
          {
            "duration": 0.042856999999997925,
            "durationTicks": 96,
            "midi": 37,
            "name": "C#2",
            "ticks": 126912,
            "time": 56.656954,
            "velocity": 0.4881889763779528
          },
          {
            "duration": 0.042856999999997925,
            "durationTicks": 96,
            "midi": 45,
            "name": "A2",
            "ticks": 126912,
            "time": 56.656954,
            "velocity": 0.4881889763779528
          },
          {
            "duration": 0.042856999999997925,
            "durationTicks": 96,
            "midi": 37,
            "name": "C#2",
            "ticks": 126912,
            "time": 56.656954,
            "velocity": 0.4881889763779528
          },
          {
            "duration": 0.042856999999997925,
            "durationTicks": 96,
            "midi": 47,
            "name": "B2",
            "ticks": 126912,
            "time": 56.656954,
            "velocity": 0.4881889763779528
          },
          {
            "duration": 0.042856999999997925,
            "durationTicks": 96,
            "midi": 35,
            "name": "B1",
            "ticks": 126912,
            "time": 56.656954,
            "velocity": 0.4881889763779528
          },
          {
            "duration": 0.042856999999997925,
            "durationTicks": 96,
            "midi": 35,
            "name": "B1",
            "ticks": 126912,
            "time": 56.656954,
            "velocity": 0.4881889763779528
          },
          {
            "duration": 0.042856999999997925,
            "durationTicks": 96,
            "midi": 35,
            "name": "B1",
            "ticks": 126912,
            "time": 56.656954,
            "velocity": 0.4881889763779528
          },
          {
            "duration": 0.042856999999997925,
            "durationTicks": 96,
            "midi": 37,
            "name": "C#2",
            "ticks": 126912,
            "time": 56.656954,
            "velocity": 0.4881889763779528
          },
          {
            "duration": 0.04285700000000503,
            "durationTicks": 96,
            "midi": 32,
            "name": "G#1",
            "ticks": 127680,
            "time": 56.99981,
            "velocity": 0.4881889763779528
          },
          {
            "duration": 0.04285700000000503,
            "durationTicks": 96,
            "midi": 38,
            "name": "D2",
            "ticks": 127680,
            "time": 56.99981,
            "velocity": 0.4881889763779528
          },
          {
            "duration": 0.04285700000000503,
            "durationTicks": 96,
            "midi": 33,
            "name": "A1",
            "ticks": 127680,
            "time": 56.99981,
            "velocity": 0.4881889763779528
          },
          {
            "duration": 0.04285700000000503,
            "durationTicks": 96,
            "midi": 32,
            "name": "G#1",
            "ticks": 127680,
            "time": 56.99981,
            "velocity": 0.4881889763779528
          },
          {
            "duration": 0.04285700000000503,
            "durationTicks": 96,
            "midi": 33,
            "name": "A1",
            "ticks": 127680,
            "time": 56.99981,
            "velocity": 0.4881889763779528
          },
          {
            "duration": 0.04285700000000503,
            "durationTicks": 96,
            "midi": 40,
            "name": "E2",
            "ticks": 127680,
            "time": 56.99981,
            "velocity": 0.4881889763779528
          },
          {
            "duration": 0.04285700000000503,
            "durationTicks": 96,
            "midi": 33,
            "name": "A1",
            "ticks": 127680,
            "time": 56.99981,
            "velocity": 0.4881889763779528
          },
          {
            "duration": 0.04285700000000503,
            "durationTicks": 96,
            "midi": 32,
            "name": "G#1",
            "ticks": 127680,
            "time": 56.99981,
            "velocity": 0.4881889763779528
          },
          {
            "duration": 0.04285700000000503,
            "durationTicks": 96,
            "midi": 32,
            "name": "G#1",
            "ticks": 127680,
            "time": 56.99981,
            "velocity": 0.4881889763779528
          },
          {
            "duration": 0.04285700000000503,
            "durationTicks": 96,
            "midi": 33,
            "name": "A1",
            "ticks": 127680,
            "time": 56.99981,
            "velocity": 0.4881889763779528
          },
          {
            "duration": 0.042856999999997925,
            "durationTicks": 96,
            "midi": 37,
            "name": "C#2",
            "ticks": 128448,
            "time": 57.342666,
            "velocity": 0.4881889763779528
          },
          {
            "duration": 0.042856999999997925,
            "durationTicks": 96,
            "midi": 35,
            "name": "B1",
            "ticks": 128448,
            "time": 57.342666,
            "velocity": 0.4881889763779528
          },
          {
            "duration": 0.042856999999997925,
            "durationTicks": 96,
            "midi": 35,
            "name": "B1",
            "ticks": 128448,
            "time": 57.342666,
            "velocity": 0.4881889763779528
          },
          {
            "duration": 0.042856999999997925,
            "durationTicks": 96,
            "midi": 47,
            "name": "B2",
            "ticks": 128448,
            "time": 57.342666,
            "velocity": 0.4881889763779528
          },
          {
            "duration": 0.042856999999997925,
            "durationTicks": 96,
            "midi": 37,
            "name": "C#2",
            "ticks": 128448,
            "time": 57.342666,
            "velocity": 0.4881889763779528
          },
          {
            "duration": 0.042856999999997925,
            "durationTicks": 96,
            "midi": 35,
            "name": "B1",
            "ticks": 128448,
            "time": 57.342666,
            "velocity": 0.4881889763779528
          },
          {
            "duration": 0.042856999999997925,
            "durationTicks": 96,
            "midi": 45,
            "name": "A2",
            "ticks": 128448,
            "time": 57.342666,
            "velocity": 0.4881889763779528
          },
          {
            "duration": 0.042856999999997925,
            "durationTicks": 96,
            "midi": 37,
            "name": "C#2",
            "ticks": 128448,
            "time": 57.342666,
            "velocity": 0.4881889763779528
          },
          {
            "duration": 0.042856999999997925,
            "durationTicks": 96,
            "midi": 32,
            "name": "G#1",
            "ticks": 129600,
            "time": 57.85695,
            "velocity": 0.4881889763779528
          },
          {
            "duration": 0.042856999999997925,
            "durationTicks": 96,
            "midi": 38,
            "name": "D2",
            "ticks": 129600,
            "time": 57.85695,
            "velocity": 0.4881889763779528
          },
          {
            "duration": 0.042856999999997925,
            "durationTicks": 96,
            "midi": 33,
            "name": "A1",
            "ticks": 129600,
            "time": 57.85695,
            "velocity": 0.4881889763779528
          },
          {
            "duration": 0.042856999999997925,
            "durationTicks": 96,
            "midi": 32,
            "name": "G#1",
            "ticks": 129600,
            "time": 57.85695,
            "velocity": 0.4881889763779528
          },
          {
            "duration": 0.042856999999997925,
            "durationTicks": 96,
            "midi": 33,
            "name": "A1",
            "ticks": 129600,
            "time": 57.85695,
            "velocity": 0.4881889763779528
          },
          {
            "duration": 0.042856999999997925,
            "durationTicks": 96,
            "midi": 33,
            "name": "A1",
            "ticks": 129600,
            "time": 57.85695,
            "velocity": 0.4881889763779528
          },
          {
            "duration": 0.042856999999997925,
            "durationTicks": 96,
            "midi": 32,
            "name": "G#1",
            "ticks": 129600,
            "time": 57.85695,
            "velocity": 0.4881889763779528
          },
          {
            "duration": 0.042856999999997925,
            "durationTicks": 96,
            "midi": 40,
            "name": "E2",
            "ticks": 129600,
            "time": 57.85695,
            "velocity": 0.4881889763779528
          },
          {
            "duration": 0.042856999999997925,
            "durationTicks": 96,
            "midi": 32,
            "name": "G#1",
            "ticks": 129600,
            "time": 57.85695,
            "velocity": 0.4881889763779528
          },
          {
            "duration": 0.042856999999997925,
            "durationTicks": 96,
            "midi": 33,
            "name": "A1",
            "ticks": 129600,
            "time": 57.85695,
            "velocity": 0.4881889763779528
          },
          {
            "duration": 0.04285700000000503,
            "durationTicks": 96,
            "midi": 37,
            "name": "C#2",
            "ticks": 129984,
            "time": 58.028378,
            "velocity": 0.4881889763779528
          },
          {
            "duration": 0.04285700000000503,
            "durationTicks": 96,
            "midi": 35,
            "name": "B1",
            "ticks": 129984,
            "time": 58.028378,
            "velocity": 0.4881889763779528
          },
          {
            "duration": 0.04285700000000503,
            "durationTicks": 96,
            "midi": 37,
            "name": "C#2",
            "ticks": 129984,
            "time": 58.028378,
            "velocity": 0.4881889763779528
          },
          {
            "duration": 0.04285700000000503,
            "durationTicks": 96,
            "midi": 35,
            "name": "B1",
            "ticks": 129984,
            "time": 58.028378,
            "velocity": 0.4881889763779528
          },
          {
            "duration": 0.04285700000000503,
            "durationTicks": 96,
            "midi": 47,
            "name": "B2",
            "ticks": 129984,
            "time": 58.028378,
            "velocity": 0.4881889763779528
          },
          {
            "duration": 0.04285700000000503,
            "durationTicks": 96,
            "midi": 37,
            "name": "C#2",
            "ticks": 129984,
            "time": 58.028378,
            "velocity": 0.4881889763779528
          },
          {
            "duration": 0.04285700000000503,
            "durationTicks": 96,
            "midi": 45,
            "name": "A2",
            "ticks": 129984,
            "time": 58.028378,
            "velocity": 0.4881889763779528
          },
          {
            "duration": 0.04285700000000503,
            "durationTicks": 96,
            "midi": 35,
            "name": "B1",
            "ticks": 129984,
            "time": 58.028378,
            "velocity": 0.4881889763779528
          },
          {
            "duration": 0.042856999999997925,
            "durationTicks": 96,
            "midi": 33,
            "name": "A1",
            "ticks": 130752,
            "time": 58.371234,
            "velocity": 0.4881889763779528
          },
          {
            "duration": 0.042856999999997925,
            "durationTicks": 96,
            "midi": 38,
            "name": "D2",
            "ticks": 130752,
            "time": 58.371234,
            "velocity": 0.4881889763779528
          },
          {
            "duration": 0.042856999999997925,
            "durationTicks": 96,
            "midi": 32,
            "name": "G#1",
            "ticks": 130752,
            "time": 58.371234,
            "velocity": 0.4881889763779528
          },
          {
            "duration": 0.042856999999997925,
            "durationTicks": 96,
            "midi": 32,
            "name": "G#1",
            "ticks": 130752,
            "time": 58.371234,
            "velocity": 0.4881889763779528
          },
          {
            "duration": 0.042856999999997925,
            "durationTicks": 96,
            "midi": 33,
            "name": "A1",
            "ticks": 130752,
            "time": 58.371234,
            "velocity": 0.4881889763779528
          },
          {
            "duration": 0.042856999999997925,
            "durationTicks": 96,
            "midi": 33,
            "name": "A1",
            "ticks": 130752,
            "time": 58.371234,
            "velocity": 0.4881889763779528
          },
          {
            "duration": 0.042856999999997925,
            "durationTicks": 96,
            "midi": 40,
            "name": "E2",
            "ticks": 130752,
            "time": 58.371234,
            "velocity": 0.4881889763779528
          },
          {
            "duration": 0.042856999999997925,
            "durationTicks": 96,
            "midi": 32,
            "name": "G#1",
            "ticks": 130752,
            "time": 58.371234,
            "velocity": 0.4881889763779528
          },
          {
            "duration": 0.042856999999997925,
            "durationTicks": 96,
            "midi": 32,
            "name": "G#1",
            "ticks": 130752,
            "time": 58.371234,
            "velocity": 0.4881889763779528
          },
          {
            "duration": 0.042856999999997925,
            "durationTicks": 96,
            "midi": 33,
            "name": "A1",
            "ticks": 130752,
            "time": 58.371234,
            "velocity": 0.4881889763779528
          },
          {
            "duration": 0.042856999999997925,
            "durationTicks": 96,
            "midi": 35,
            "name": "B1",
            "ticks": 131520,
            "time": 58.71409,
            "velocity": 0.4881889763779528
          },
          {
            "duration": 0.042856999999997925,
            "durationTicks": 96,
            "midi": 47,
            "name": "B2",
            "ticks": 131520,
            "time": 58.71409,
            "velocity": 0.4881889763779528
          },
          {
            "duration": 0.042856999999997925,
            "durationTicks": 96,
            "midi": 37,
            "name": "C#2",
            "ticks": 131520,
            "time": 58.71409,
            "velocity": 0.4881889763779528
          },
          {
            "duration": 0.042856999999997925,
            "durationTicks": 96,
            "midi": 35,
            "name": "B1",
            "ticks": 131520,
            "time": 58.71409,
            "velocity": 0.4881889763779528
          },
          {
            "duration": 0.042856999999997925,
            "durationTicks": 96,
            "midi": 37,
            "name": "C#2",
            "ticks": 131520,
            "time": 58.71409,
            "velocity": 0.4881889763779528
          },
          {
            "duration": 0.042856999999997925,
            "durationTicks": 96,
            "midi": 45,
            "name": "A2",
            "ticks": 131520,
            "time": 58.71409,
            "velocity": 0.4881889763779528
          },
          {
            "duration": 0.042856999999997925,
            "durationTicks": 96,
            "midi": 37,
            "name": "C#2",
            "ticks": 131520,
            "time": 58.71409,
            "velocity": 0.4881889763779528
          },
          {
            "duration": 0.042856999999997925,
            "durationTicks": 96,
            "midi": 35,
            "name": "B1",
            "ticks": 131520,
            "time": 58.71409,
            "velocity": 0.4881889763779528
          },
          {
            "duration": 0.042856999999997925,
            "durationTicks": 96,
            "midi": 40,
            "name": "E2",
            "ticks": 132672,
            "time": 59.228374,
            "velocity": 0.4881889763779528
          },
          {
            "duration": 0.042856999999997925,
            "durationTicks": 96,
            "midi": 33,
            "name": "A1",
            "ticks": 132672,
            "time": 59.228374,
            "velocity": 0.4881889763779528
          },
          {
            "duration": 0.042856999999997925,
            "durationTicks": 96,
            "midi": 32,
            "name": "G#1",
            "ticks": 132672,
            "time": 59.228374,
            "velocity": 0.4881889763779528
          },
          {
            "duration": 0.042856999999997925,
            "durationTicks": 96,
            "midi": 33,
            "name": "A1",
            "ticks": 132672,
            "time": 59.228374,
            "velocity": 0.4881889763779528
          },
          {
            "duration": 0.042856999999997925,
            "durationTicks": 96,
            "midi": 33,
            "name": "A1",
            "ticks": 132672,
            "time": 59.228374,
            "velocity": 0.4881889763779528
          },
          {
            "duration": 0.042856999999997925,
            "durationTicks": 96,
            "midi": 32,
            "name": "G#1",
            "ticks": 132672,
            "time": 59.228374,
            "velocity": 0.4881889763779528
          },
          {
            "duration": 0.042856999999997925,
            "durationTicks": 96,
            "midi": 32,
            "name": "G#1",
            "ticks": 132672,
            "time": 59.228374,
            "velocity": 0.4881889763779528
          },
          {
            "duration": 0.042856999999997925,
            "durationTicks": 96,
            "midi": 38,
            "name": "D2",
            "ticks": 132672,
            "time": 59.228374,
            "velocity": 0.4881889763779528
          },
          {
            "duration": 0.042856999999997925,
            "durationTicks": 96,
            "midi": 32,
            "name": "G#1",
            "ticks": 132672,
            "time": 59.228374,
            "velocity": 0.4881889763779528
          },
          {
            "duration": 0.042856999999997925,
            "durationTicks": 96,
            "midi": 33,
            "name": "A1",
            "ticks": 132672,
            "time": 59.228374,
            "velocity": 0.4881889763779528
          },
          {
            "duration": 0.042856999999997925,
            "durationTicks": 96,
            "midi": 37,
            "name": "C#2",
            "ticks": 133056,
            "time": 59.399802,
            "velocity": 0.4881889763779528
          },
          {
            "duration": 0.042856999999997925,
            "durationTicks": 96,
            "midi": 37,
            "name": "C#2",
            "ticks": 133056,
            "time": 59.399802,
            "velocity": 0.4881889763779528
          },
          {
            "duration": 0.042856999999997925,
            "durationTicks": 96,
            "midi": 35,
            "name": "B1",
            "ticks": 133056,
            "time": 59.399802,
            "velocity": 0.4881889763779528
          },
          {
            "duration": 0.042856999999997925,
            "durationTicks": 96,
            "midi": 35,
            "name": "B1",
            "ticks": 133056,
            "time": 59.399802,
            "velocity": 0.4881889763779528
          },
          {
            "duration": 0.042856999999997925,
            "durationTicks": 96,
            "midi": 47,
            "name": "B2",
            "ticks": 133056,
            "time": 59.399802,
            "velocity": 0.4881889763779528
          },
          {
            "duration": 0.042856999999997925,
            "durationTicks": 96,
            "midi": 35,
            "name": "B1",
            "ticks": 133056,
            "time": 59.399802,
            "velocity": 0.4881889763779528
          },
          {
            "duration": 0.042856999999997925,
            "durationTicks": 96,
            "midi": 45,
            "name": "A2",
            "ticks": 133056,
            "time": 59.399802,
            "velocity": 0.4881889763779528
          },
          {
            "duration": 0.042856999999997925,
            "durationTicks": 96,
            "midi": 37,
            "name": "C#2",
            "ticks": 133056,
            "time": 59.399802,
            "velocity": 0.4881889763779528
          },
          {
            "duration": 0.042856999999997925,
            "durationTicks": 96,
            "midi": 33,
            "name": "A1",
            "ticks": 133440,
            "time": 59.57123,
            "velocity": 0.4881889763779528
          },
          {
            "duration": 0.042856999999997925,
            "durationTicks": 96,
            "midi": 32,
            "name": "G#1",
            "ticks": 133440,
            "time": 59.57123,
            "velocity": 0.4881889763779528
          },
          {
            "duration": 0.042856999999997925,
            "durationTicks": 96,
            "midi": 40,
            "name": "E2",
            "ticks": 133440,
            "time": 59.57123,
            "velocity": 0.4881889763779528
          },
          {
            "duration": 0.042856999999997925,
            "durationTicks": 96,
            "midi": 33,
            "name": "A1",
            "ticks": 133440,
            "time": 59.57123,
            "velocity": 0.4881889763779528
          },
          {
            "duration": 0.042856999999997925,
            "durationTicks": 96,
            "midi": 32,
            "name": "G#1",
            "ticks": 133440,
            "time": 59.57123,
            "velocity": 0.4881889763779528
          },
          {
            "duration": 0.042856999999997925,
            "durationTicks": 96,
            "midi": 33,
            "name": "A1",
            "ticks": 133440,
            "time": 59.57123,
            "velocity": 0.4881889763779528
          },
          {
            "duration": 0.042856999999997925,
            "durationTicks": 96,
            "midi": 33,
            "name": "A1",
            "ticks": 133440,
            "time": 59.57123,
            "velocity": 0.4881889763779528
          },
          {
            "duration": 0.042856999999997925,
            "durationTicks": 96,
            "midi": 38,
            "name": "D2",
            "ticks": 133440,
            "time": 59.57123,
            "velocity": 0.4881889763779528
          },
          {
            "duration": 0.042856999999997925,
            "durationTicks": 96,
            "midi": 32,
            "name": "G#1",
            "ticks": 133440,
            "time": 59.57123,
            "velocity": 0.4881889763779528
          },
          {
            "duration": 0.042856999999997925,
            "durationTicks": 96,
            "midi": 32,
            "name": "G#1",
            "ticks": 133440,
            "time": 59.57123,
            "velocity": 0.4881889763779528
          },
          {
            "duration": 0.042856999999997925,
            "durationTicks": 96,
            "midi": 32,
            "name": "G#1",
            "ticks": 133824,
            "time": 59.742658,
            "velocity": 0.4881889763779528
          },
          {
            "duration": 0.042856999999997925,
            "durationTicks": 96,
            "midi": 40,
            "name": "E2",
            "ticks": 133824,
            "time": 59.742658,
            "velocity": 0.4881889763779528
          },
          {
            "duration": 0.042856999999997925,
            "durationTicks": 96,
            "midi": 33,
            "name": "A1",
            "ticks": 133824,
            "time": 59.742658,
            "velocity": 0.4881889763779528
          },
          {
            "duration": 0.042856999999997925,
            "durationTicks": 96,
            "midi": 32,
            "name": "G#1",
            "ticks": 133824,
            "time": 59.742658,
            "velocity": 0.4881889763779528
          },
          {
            "duration": 0.042856999999997925,
            "durationTicks": 96,
            "midi": 32,
            "name": "G#1",
            "ticks": 133824,
            "time": 59.742658,
            "velocity": 0.4881889763779528
          },
          {
            "duration": 0.042856999999997925,
            "durationTicks": 96,
            "midi": 33,
            "name": "A1",
            "ticks": 133824,
            "time": 59.742658,
            "velocity": 0.4881889763779528
          },
          {
            "duration": 0.042856999999997925,
            "durationTicks": 96,
            "midi": 33,
            "name": "A1",
            "ticks": 133824,
            "time": 59.742658,
            "velocity": 0.4881889763779528
          },
          {
            "duration": 0.042856999999997925,
            "durationTicks": 96,
            "midi": 38,
            "name": "D2",
            "ticks": 133824,
            "time": 59.742658,
            "velocity": 0.4881889763779528
          },
          {
            "duration": 0.042856999999997925,
            "durationTicks": 96,
            "midi": 33,
            "name": "A1",
            "ticks": 133824,
            "time": 59.742658,
            "velocity": 0.4881889763779528
          },
          {
            "duration": 0.042856999999997925,
            "durationTicks": 96,
            "midi": 32,
            "name": "G#1",
            "ticks": 133824,
            "time": 59.742658,
            "velocity": 0.4881889763779528
          },
          {
            "duration": 0.04285700000000503,
            "durationTicks": 96,
            "midi": 37,
            "name": "C#2",
            "ticks": 134592,
            "time": 60.085513999999996,
            "velocity": 0.4881889763779528
          },
          {
            "duration": 0.04285700000000503,
            "durationTicks": 96,
            "midi": 45,
            "name": "A2",
            "ticks": 134592,
            "time": 60.085513999999996,
            "velocity": 0.4881889763779528
          },
          {
            "duration": 0.04285700000000503,
            "durationTicks": 96,
            "midi": 35,
            "name": "B1",
            "ticks": 134592,
            "time": 60.085513999999996,
            "velocity": 0.4881889763779528
          },
          {
            "duration": 0.04285700000000503,
            "durationTicks": 96,
            "midi": 37,
            "name": "C#2",
            "ticks": 134592,
            "time": 60.085513999999996,
            "velocity": 0.4881889763779528
          },
          {
            "duration": 0.04285700000000503,
            "durationTicks": 96,
            "midi": 47,
            "name": "B2",
            "ticks": 134592,
            "time": 60.085513999999996,
            "velocity": 0.4881889763779528
          },
          {
            "duration": 0.04285700000000503,
            "durationTicks": 96,
            "midi": 35,
            "name": "B1",
            "ticks": 134592,
            "time": 60.085513999999996,
            "velocity": 0.4881889763779528
          },
          {
            "duration": 0.04285700000000503,
            "durationTicks": 96,
            "midi": 37,
            "name": "C#2",
            "ticks": 134592,
            "time": 60.085513999999996,
            "velocity": 0.4881889763779528
          },
          {
            "duration": 0.04285700000000503,
            "durationTicks": 96,
            "midi": 35,
            "name": "B1",
            "ticks": 134592,
            "time": 60.085513999999996,
            "velocity": 0.4881889763779528
          },
          {
            "duration": 0.042856999999997925,
            "durationTicks": 96,
            "midi": 40,
            "name": "E2",
            "ticks": 135744,
            "time": 60.599798,
            "velocity": 0.4881889763779528
          },
          {
            "duration": 0.042856999999997925,
            "durationTicks": 96,
            "midi": 38,
            "name": "D2",
            "ticks": 135744,
            "time": 60.599798,
            "velocity": 0.4881889763779528
          },
          {
            "duration": 0.042856999999997925,
            "durationTicks": 96,
            "midi": 32,
            "name": "G#1",
            "ticks": 135744,
            "time": 60.599798,
            "velocity": 0.4881889763779528
          },
          {
            "duration": 0.042856999999997925,
            "durationTicks": 96,
            "midi": 33,
            "name": "A1",
            "ticks": 135744,
            "time": 60.599798,
            "velocity": 0.4881889763779528
          },
          {
            "duration": 0.042856999999997925,
            "durationTicks": 96,
            "midi": 32,
            "name": "G#1",
            "ticks": 135744,
            "time": 60.599798,
            "velocity": 0.4881889763779528
          },
          {
            "duration": 0.042856999999997925,
            "durationTicks": 96,
            "midi": 33,
            "name": "A1",
            "ticks": 135744,
            "time": 60.599798,
            "velocity": 0.4881889763779528
          },
          {
            "duration": 0.042856999999997925,
            "durationTicks": 96,
            "midi": 33,
            "name": "A1",
            "ticks": 135744,
            "time": 60.599798,
            "velocity": 0.4881889763779528
          },
          {
            "duration": 0.042856999999997925,
            "durationTicks": 96,
            "midi": 32,
            "name": "G#1",
            "ticks": 135744,
            "time": 60.599798,
            "velocity": 0.4881889763779528
          },
          {
            "duration": 0.042856999999997925,
            "durationTicks": 96,
            "midi": 32,
            "name": "G#1",
            "ticks": 135744,
            "time": 60.599798,
            "velocity": 0.4881889763779528
          },
          {
            "duration": 0.042856999999997925,
            "durationTicks": 96,
            "midi": 33,
            "name": "A1",
            "ticks": 135744,
            "time": 60.599798,
            "velocity": 0.4881889763779528
          },
          {
            "duration": 0.042856999999997925,
            "durationTicks": 96,
            "midi": 45,
            "name": "A2",
            "ticks": 136128,
            "time": 60.771226,
            "velocity": 0.4881889763779528
          },
          {
            "duration": 0.042856999999997925,
            "durationTicks": 96,
            "midi": 35,
            "name": "B1",
            "ticks": 136128,
            "time": 60.771226,
            "velocity": 0.4881889763779528
          },
          {
            "duration": 0.042856999999997925,
            "durationTicks": 96,
            "midi": 35,
            "name": "B1",
            "ticks": 136128,
            "time": 60.771226,
            "velocity": 0.4881889763779528
          },
          {
            "duration": 0.042856999999997925,
            "durationTicks": 96,
            "midi": 37,
            "name": "C#2",
            "ticks": 136128,
            "time": 60.771226,
            "velocity": 0.4881889763779528
          },
          {
            "duration": 0.042856999999997925,
            "durationTicks": 96,
            "midi": 47,
            "name": "B2",
            "ticks": 136128,
            "time": 60.771226,
            "velocity": 0.4881889763779528
          },
          {
            "duration": 0.042856999999997925,
            "durationTicks": 96,
            "midi": 37,
            "name": "C#2",
            "ticks": 136128,
            "time": 60.771226,
            "velocity": 0.4881889763779528
          },
          {
            "duration": 0.042856999999997925,
            "durationTicks": 96,
            "midi": 35,
            "name": "B1",
            "ticks": 136128,
            "time": 60.771226,
            "velocity": 0.4881889763779528
          },
          {
            "duration": 0.042856999999997925,
            "durationTicks": 96,
            "midi": 37,
            "name": "C#2",
            "ticks": 136128,
            "time": 60.771226,
            "velocity": 0.4881889763779528
          },
          {
            "duration": 0.04285700000000503,
            "durationTicks": 96,
            "midi": 40,
            "name": "E2",
            "ticks": 136896,
            "time": 61.114081999999996,
            "velocity": 0.4881889763779528
          },
          {
            "duration": 0.04285700000000503,
            "durationTicks": 96,
            "midi": 38,
            "name": "D2",
            "ticks": 136896,
            "time": 61.114081999999996,
            "velocity": 0.4881889763779528
          },
          {
            "duration": 0.04285700000000503,
            "durationTicks": 96,
            "midi": 33,
            "name": "A1",
            "ticks": 136896,
            "time": 61.114081999999996,
            "velocity": 0.4881889763779528
          },
          {
            "duration": 0.04285700000000503,
            "durationTicks": 96,
            "midi": 32,
            "name": "G#1",
            "ticks": 136896,
            "time": 61.114081999999996,
            "velocity": 0.4881889763779528
          },
          {
            "duration": 0.04285700000000503,
            "durationTicks": 96,
            "midi": 33,
            "name": "A1",
            "ticks": 136896,
            "time": 61.114081999999996,
            "velocity": 0.4881889763779528
          },
          {
            "duration": 0.04285700000000503,
            "durationTicks": 96,
            "midi": 33,
            "name": "A1",
            "ticks": 136896,
            "time": 61.114081999999996,
            "velocity": 0.4881889763779528
          },
          {
            "duration": 0.04285700000000503,
            "durationTicks": 96,
            "midi": 32,
            "name": "G#1",
            "ticks": 136896,
            "time": 61.114081999999996,
            "velocity": 0.4881889763779528
          },
          {
            "duration": 0.04285700000000503,
            "durationTicks": 96,
            "midi": 32,
            "name": "G#1",
            "ticks": 136896,
            "time": 61.114081999999996,
            "velocity": 0.4881889763779528
          },
          {
            "duration": 0.04285700000000503,
            "durationTicks": 96,
            "midi": 32,
            "name": "G#1",
            "ticks": 136896,
            "time": 61.114081999999996,
            "velocity": 0.4881889763779528
          },
          {
            "duration": 0.04285700000000503,
            "durationTicks": 96,
            "midi": 33,
            "name": "A1",
            "ticks": 136896,
            "time": 61.114081999999996,
            "velocity": 0.4881889763779528
          },
          {
            "duration": 0.042856999999997925,
            "durationTicks": 96,
            "midi": 45,
            "name": "A2",
            "ticks": 137664,
            "time": 61.456938,
            "velocity": 0.4881889763779528
          },
          {
            "duration": 0.042856999999997925,
            "durationTicks": 96,
            "midi": 37,
            "name": "C#2",
            "ticks": 137664,
            "time": 61.456938,
            "velocity": 0.4881889763779528
          },
          {
            "duration": 0.042856999999997925,
            "durationTicks": 96,
            "midi": 37,
            "name": "C#2",
            "ticks": 137664,
            "time": 61.456938,
            "velocity": 0.4881889763779528
          },
          {
            "duration": 0.042856999999997925,
            "durationTicks": 96,
            "midi": 37,
            "name": "C#2",
            "ticks": 137664,
            "time": 61.456938,
            "velocity": 0.4881889763779528
          },
          {
            "duration": 0.042856999999997925,
            "durationTicks": 96,
            "midi": 47,
            "name": "B2",
            "ticks": 137664,
            "time": 61.456938,
            "velocity": 0.4881889763779528
          },
          {
            "duration": 0.042856999999997925,
            "durationTicks": 96,
            "midi": 35,
            "name": "B1",
            "ticks": 137664,
            "time": 61.456938,
            "velocity": 0.4881889763779528
          },
          {
            "duration": 0.042856999999997925,
            "durationTicks": 96,
            "midi": 35,
            "name": "B1",
            "ticks": 137664,
            "time": 61.456938,
            "velocity": 0.4881889763779528
          },
          {
            "duration": 0.042856999999997925,
            "durationTicks": 96,
            "midi": 35,
            "name": "B1",
            "ticks": 137664,
            "time": 61.456938,
            "velocity": 0.4881889763779528
          },
          {
            "duration": 0.04285700000000503,
            "durationTicks": 96,
            "midi": 40,
            "name": "E2",
            "ticks": 138816,
            "time": 61.971222,
            "velocity": 0.4881889763779528
          },
          {
            "duration": 0.04285700000000503,
            "durationTicks": 96,
            "midi": 38,
            "name": "D2",
            "ticks": 138816,
            "time": 61.971222,
            "velocity": 0.4881889763779528
          },
          {
            "duration": 0.04285700000000503,
            "durationTicks": 96,
            "midi": 32,
            "name": "G#1",
            "ticks": 138816,
            "time": 61.971222,
            "velocity": 0.4881889763779528
          },
          {
            "duration": 0.04285700000000503,
            "durationTicks": 96,
            "midi": 33,
            "name": "A1",
            "ticks": 138816,
            "time": 61.971222,
            "velocity": 0.4881889763779528
          },
          {
            "duration": 0.04285700000000503,
            "durationTicks": 96,
            "midi": 33,
            "name": "A1",
            "ticks": 138816,
            "time": 61.971222,
            "velocity": 0.4881889763779528
          },
          {
            "duration": 0.04285700000000503,
            "durationTicks": 96,
            "midi": 32,
            "name": "G#1",
            "ticks": 138816,
            "time": 61.971222,
            "velocity": 0.4881889763779528
          },
          {
            "duration": 0.04285700000000503,
            "durationTicks": 96,
            "midi": 32,
            "name": "G#1",
            "ticks": 138816,
            "time": 61.971222,
            "velocity": 0.4881889763779528
          },
          {
            "duration": 0.04285700000000503,
            "durationTicks": 96,
            "midi": 33,
            "name": "A1",
            "ticks": 138816,
            "time": 61.971222,
            "velocity": 0.4881889763779528
          },
          {
            "duration": 0.04285700000000503,
            "durationTicks": 96,
            "midi": 33,
            "name": "A1",
            "ticks": 138816,
            "time": 61.971222,
            "velocity": 0.4881889763779528
          },
          {
            "duration": 0.04285700000000503,
            "durationTicks": 96,
            "midi": 32,
            "name": "G#1",
            "ticks": 138816,
            "time": 61.971222,
            "velocity": 0.4881889763779528
          },
          {
            "duration": 0.042856999999997925,
            "durationTicks": 96,
            "midi": 38,
            "name": "D2",
            "ticks": 139008,
            "time": 62.056936,
            "velocity": 0.4881889763779528
          },
          {
            "duration": 0.042856999999997925,
            "durationTicks": 96,
            "midi": 32,
            "name": "G#1",
            "ticks": 139008,
            "time": 62.056936,
            "velocity": 0.4881889763779528
          },
          {
            "duration": 0.042856999999997925,
            "durationTicks": 96,
            "midi": 33,
            "name": "A1",
            "ticks": 139008,
            "time": 62.056936,
            "velocity": 0.4881889763779528
          },
          {
            "duration": 0.042856999999997925,
            "durationTicks": 96,
            "midi": 33,
            "name": "A1",
            "ticks": 139008,
            "time": 62.056936,
            "velocity": 0.4881889763779528
          },
          {
            "duration": 0.042856999999997925,
            "durationTicks": 96,
            "midi": 32,
            "name": "G#1",
            "ticks": 139008,
            "time": 62.056936,
            "velocity": 0.4881889763779528
          },
          {
            "duration": 0.042856999999997925,
            "durationTicks": 96,
            "midi": 32,
            "name": "G#1",
            "ticks": 139008,
            "time": 62.056936,
            "velocity": 0.4881889763779528
          },
          {
            "duration": 0.042856999999997925,
            "durationTicks": 96,
            "midi": 33,
            "name": "A1",
            "ticks": 139008,
            "time": 62.056936,
            "velocity": 0.4881889763779528
          },
          {
            "duration": 0.042856999999997925,
            "durationTicks": 96,
            "midi": 32,
            "name": "G#1",
            "ticks": 139008,
            "time": 62.056936,
            "velocity": 0.4881889763779528
          },
          {
            "duration": 0.042856999999997925,
            "durationTicks": 96,
            "midi": 33,
            "name": "A1",
            "ticks": 139008,
            "time": 62.056936,
            "velocity": 0.4881889763779528
          },
          {
            "duration": 0.042856999999997925,
            "durationTicks": 96,
            "midi": 40,
            "name": "E2",
            "ticks": 139008,
            "time": 62.056936,
            "velocity": 0.4881889763779528
          },
          {
            "duration": 0.04285700000000503,
            "durationTicks": 96,
            "midi": 35,
            "name": "B1",
            "ticks": 139200,
            "time": 62.142649999999996,
            "velocity": 0.4881889763779528
          },
          {
            "duration": 0.04285700000000503,
            "durationTicks": 96,
            "midi": 37,
            "name": "C#2",
            "ticks": 139200,
            "time": 62.142649999999996,
            "velocity": 0.4881889763779528
          },
          {
            "duration": 0.04285700000000503,
            "durationTicks": 96,
            "midi": 35,
            "name": "B1",
            "ticks": 139200,
            "time": 62.142649999999996,
            "velocity": 0.4881889763779528
          },
          {
            "duration": 0.04285700000000503,
            "durationTicks": 96,
            "midi": 37,
            "name": "C#2",
            "ticks": 139200,
            "time": 62.142649999999996,
            "velocity": 0.4881889763779528
          },
          {
            "duration": 0.04285700000000503,
            "durationTicks": 96,
            "midi": 35,
            "name": "B1",
            "ticks": 139200,
            "time": 62.142649999999996,
            "velocity": 0.4881889763779528
          },
          {
            "duration": 0.04285700000000503,
            "durationTicks": 96,
            "midi": 37,
            "name": "C#2",
            "ticks": 139200,
            "time": 62.142649999999996,
            "velocity": 0.4881889763779528
          },
          {
            "duration": 0.04285700000000503,
            "durationTicks": 96,
            "midi": 47,
            "name": "B2",
            "ticks": 139200,
            "time": 62.142649999999996,
            "velocity": 0.4881889763779528
          },
          {
            "duration": 0.04285700000000503,
            "durationTicks": 96,
            "midi": 45,
            "name": "A2",
            "ticks": 139200,
            "time": 62.142649999999996,
            "velocity": 0.4881889763779528
          },
          {
            "duration": 0.042856999999997925,
            "durationTicks": 96,
            "midi": 33,
            "name": "A1",
            "ticks": 139584,
            "time": 62.314078,
            "velocity": 0.4881889763779528
          },
          {
            "duration": 0.042856999999997925,
            "durationTicks": 96,
            "midi": 33,
            "name": "A1",
            "ticks": 139584,
            "time": 62.314078,
            "velocity": 0.4881889763779528
          },
          {
            "duration": 0.042856999999997925,
            "durationTicks": 96,
            "midi": 32,
            "name": "G#1",
            "ticks": 139584,
            "time": 62.314078,
            "velocity": 0.4881889763779528
          },
          {
            "duration": 0.042856999999997925,
            "durationTicks": 96,
            "midi": 33,
            "name": "A1",
            "ticks": 139584,
            "time": 62.314078,
            "velocity": 0.4881889763779528
          },
          {
            "duration": 0.042856999999997925,
            "durationTicks": 96,
            "midi": 33,
            "name": "A1",
            "ticks": 139584,
            "time": 62.314078,
            "velocity": 0.4881889763779528
          },
          {
            "duration": 0.042856999999997925,
            "durationTicks": 96,
            "midi": 40,
            "name": "E2",
            "ticks": 139584,
            "time": 62.314078,
            "velocity": 0.4881889763779528
          },
          {
            "duration": 0.042856999999997925,
            "durationTicks": 96,
            "midi": 38,
            "name": "D2",
            "ticks": 139584,
            "time": 62.314078,
            "velocity": 0.4881889763779528
          },
          {
            "duration": 0.042856999999997925,
            "durationTicks": 96,
            "midi": 32,
            "name": "G#1",
            "ticks": 139584,
            "time": 62.314078,
            "velocity": 0.4881889763779528
          },
          {
            "duration": 0.042856999999997925,
            "durationTicks": 96,
            "midi": 32,
            "name": "G#1",
            "ticks": 139584,
            "time": 62.314078,
            "velocity": 0.4881889763779528
          },
          {
            "duration": 0.042856999999997925,
            "durationTicks": 96,
            "midi": 32,
            "name": "G#1",
            "ticks": 139584,
            "time": 62.314078,
            "velocity": 0.4881889763779528
          },
          {
            "duration": 0.042856999999997925,
            "durationTicks": 96,
            "midi": 33,
            "name": "A1",
            "ticks": 139968,
            "time": 62.485506,
            "velocity": 0.4881889763779528
          },
          {
            "duration": 0.042856999999997925,
            "durationTicks": 96,
            "midi": 32,
            "name": "G#1",
            "ticks": 139968,
            "time": 62.485506,
            "velocity": 0.4881889763779528
          },
          {
            "duration": 0.042856999999997925,
            "durationTicks": 96,
            "midi": 32,
            "name": "G#1",
            "ticks": 139968,
            "time": 62.485506,
            "velocity": 0.4881889763779528
          },
          {
            "duration": 0.042856999999997925,
            "durationTicks": 96,
            "midi": 32,
            "name": "G#1",
            "ticks": 139968,
            "time": 62.485506,
            "velocity": 0.4881889763779528
          },
          {
            "duration": 0.042856999999997925,
            "durationTicks": 96,
            "midi": 33,
            "name": "A1",
            "ticks": 139968,
            "time": 62.485506,
            "velocity": 0.4881889763779528
          },
          {
            "duration": 0.042856999999997925,
            "durationTicks": 96,
            "midi": 32,
            "name": "G#1",
            "ticks": 139968,
            "time": 62.485506,
            "velocity": 0.4881889763779528
          },
          {
            "duration": 0.042856999999997925,
            "durationTicks": 96,
            "midi": 40,
            "name": "E2",
            "ticks": 139968,
            "time": 62.485506,
            "velocity": 0.4881889763779528
          },
          {
            "duration": 0.042856999999997925,
            "durationTicks": 96,
            "midi": 33,
            "name": "A1",
            "ticks": 139968,
            "time": 62.485506,
            "velocity": 0.4881889763779528
          },
          {
            "duration": 0.042856999999997925,
            "durationTicks": 96,
            "midi": 38,
            "name": "D2",
            "ticks": 139968,
            "time": 62.485506,
            "velocity": 0.4881889763779528
          },
          {
            "duration": 0.042856999999997925,
            "durationTicks": 96,
            "midi": 33,
            "name": "A1",
            "ticks": 139968,
            "time": 62.485506,
            "velocity": 0.4881889763779528
          },
          {
            "duration": 0.042856999999997925,
            "durationTicks": 96,
            "midi": 37,
            "name": "C#2",
            "ticks": 140736,
            "time": 62.828362,
            "velocity": 0.4881889763779528
          },
          {
            "duration": 0.042856999999997925,
            "durationTicks": 96,
            "midi": 37,
            "name": "C#2",
            "ticks": 140736,
            "time": 62.828362,
            "velocity": 0.4881889763779528
          },
          {
            "duration": 0.042856999999997925,
            "durationTicks": 96,
            "midi": 37,
            "name": "C#2",
            "ticks": 140736,
            "time": 62.828362,
            "velocity": 0.4881889763779528
          },
          {
            "duration": 0.042856999999997925,
            "durationTicks": 96,
            "midi": 45,
            "name": "A2",
            "ticks": 140736,
            "time": 62.828362,
            "velocity": 0.4881889763779528
          },
          {
            "duration": 0.042856999999997925,
            "durationTicks": 96,
            "midi": 47,
            "name": "B2",
            "ticks": 140736,
            "time": 62.828362,
            "velocity": 0.4881889763779528
          },
          {
            "duration": 0.042856999999997925,
            "durationTicks": 96,
            "midi": 35,
            "name": "B1",
            "ticks": 140736,
            "time": 62.828362,
            "velocity": 0.4881889763779528
          },
          {
            "duration": 0.042856999999997925,
            "durationTicks": 96,
            "midi": 35,
            "name": "B1",
            "ticks": 140736,
            "time": 62.828362,
            "velocity": 0.4881889763779528
          },
          {
            "duration": 0.042856999999997925,
            "durationTicks": 96,
            "midi": 35,
            "name": "B1",
            "ticks": 140736,
            "time": 62.828362,
            "velocity": 0.4881889763779528
          },
          {
            "duration": 0.042856999999997925,
            "durationTicks": 96,
            "midi": 40,
            "name": "E2",
            "ticks": 141888,
            "time": 63.342646,
            "velocity": 0.4881889763779528
          },
          {
            "duration": 0.042856999999997925,
            "durationTicks": 96,
            "midi": 32,
            "name": "G#1",
            "ticks": 141888,
            "time": 63.342646,
            "velocity": 0.4881889763779528
          },
          {
            "duration": 0.042856999999997925,
            "durationTicks": 96,
            "midi": 32,
            "name": "G#1",
            "ticks": 141888,
            "time": 63.342646,
            "velocity": 0.4881889763779528
          },
          {
            "duration": 0.042856999999997925,
            "durationTicks": 96,
            "midi": 33,
            "name": "A1",
            "ticks": 141888,
            "time": 63.342646,
            "velocity": 0.4881889763779528
          },
          {
            "duration": 0.042856999999997925,
            "durationTicks": 96,
            "midi": 33,
            "name": "A1",
            "ticks": 141888,
            "time": 63.342646,
            "velocity": 0.4881889763779528
          },
          {
            "duration": 0.042856999999997925,
            "durationTicks": 96,
            "midi": 32,
            "name": "G#1",
            "ticks": 141888,
            "time": 63.342646,
            "velocity": 0.4881889763779528
          },
          {
            "duration": 0.042856999999997925,
            "durationTicks": 96,
            "midi": 32,
            "name": "G#1",
            "ticks": 141888,
            "time": 63.342646,
            "velocity": 0.4881889763779528
          },
          {
            "duration": 0.042856999999997925,
            "durationTicks": 96,
            "midi": 33,
            "name": "A1",
            "ticks": 141888,
            "time": 63.342646,
            "velocity": 0.4881889763779528
          },
          {
            "duration": 0.042856999999997925,
            "durationTicks": 96,
            "midi": 38,
            "name": "D2",
            "ticks": 141888,
            "time": 63.342646,
            "velocity": 0.4881889763779528
          },
          {
            "duration": 0.042856999999997925,
            "durationTicks": 96,
            "midi": 33,
            "name": "A1",
            "ticks": 141888,
            "time": 63.342646,
            "velocity": 0.4881889763779528
          },
          {
            "duration": 0.042856999999997925,
            "durationTicks": 96,
            "midi": 37,
            "name": "C#2",
            "ticks": 142272,
            "time": 63.514074,
            "velocity": 0.4881889763779528
          },
          {
            "duration": 0.042856999999997925,
            "durationTicks": 96,
            "midi": 35,
            "name": "B1",
            "ticks": 142272,
            "time": 63.514074,
            "velocity": 0.4881889763779528
          },
          {
            "duration": 0.042856999999997925,
            "durationTicks": 96,
            "midi": 37,
            "name": "C#2",
            "ticks": 142272,
            "time": 63.514074,
            "velocity": 0.4881889763779528
          },
          {
            "duration": 0.042856999999997925,
            "durationTicks": 96,
            "midi": 35,
            "name": "B1",
            "ticks": 142272,
            "time": 63.514074,
            "velocity": 0.4881889763779528
          },
          {
            "duration": 0.042856999999997925,
            "durationTicks": 96,
            "midi": 35,
            "name": "B1",
            "ticks": 142272,
            "time": 63.514074,
            "velocity": 0.4881889763779528
          },
          {
            "duration": 0.042856999999997925,
            "durationTicks": 96,
            "midi": 37,
            "name": "C#2",
            "ticks": 142272,
            "time": 63.514074,
            "velocity": 0.4881889763779528
          },
          {
            "duration": 0.042856999999997925,
            "durationTicks": 96,
            "midi": 47,
            "name": "B2",
            "ticks": 142272,
            "time": 63.514074,
            "velocity": 0.4881889763779528
          },
          {
            "duration": 0.042856999999997925,
            "durationTicks": 96,
            "midi": 33,
            "name": "A1",
            "ticks": 143040,
            "time": 63.85693,
            "velocity": 0.4881889763779528
          },
          {
            "duration": 0.042856999999997925,
            "durationTicks": 96,
            "midi": 32,
            "name": "G#1",
            "ticks": 143040,
            "time": 63.85693,
            "velocity": 0.4881889763779528
          },
          {
            "duration": 0.042856999999997925,
            "durationTicks": 96,
            "midi": 38,
            "name": "D2",
            "ticks": 143040,
            "time": 63.85693,
            "velocity": 0.4881889763779528
          },
          {
            "duration": 0.042856999999997925,
            "durationTicks": 96,
            "midi": 32,
            "name": "G#1",
            "ticks": 143040,
            "time": 63.85693,
            "velocity": 0.4881889763779528
          },
          {
            "duration": 0.042856999999997925,
            "durationTicks": 96,
            "midi": 32,
            "name": "G#1",
            "ticks": 143040,
            "time": 63.85693,
            "velocity": 0.4881889763779528
          },
          {
            "duration": 0.042856999999997925,
            "durationTicks": 96,
            "midi": 33,
            "name": "A1",
            "ticks": 143040,
            "time": 63.85693,
            "velocity": 0.4881889763779528
          },
          {
            "duration": 0.042856999999997925,
            "durationTicks": 96,
            "midi": 33,
            "name": "A1",
            "ticks": 143040,
            "time": 63.85693,
            "velocity": 0.4881889763779528
          },
          {
            "duration": 0.042856999999997925,
            "durationTicks": 96,
            "midi": 33,
            "name": "A1",
            "ticks": 143040,
            "time": 63.85693,
            "velocity": 0.4881889763779528
          },
          {
            "duration": 0.042856999999997925,
            "durationTicks": 96,
            "midi": 40,
            "name": "E2",
            "ticks": 143040,
            "time": 63.85693,
            "velocity": 0.4881889763779528
          },
          {
            "duration": 0.042856999999997925,
            "durationTicks": 96,
            "midi": 32,
            "name": "G#1",
            "ticks": 143040,
            "time": 63.85693,
            "velocity": 0.4881889763779528
          },
          {
            "duration": 0.042856999999997925,
            "durationTicks": 96,
            "midi": 35,
            "name": "B1",
            "ticks": 143808,
            "time": 64.199786,
            "velocity": 0.4881889763779528
          },
          {
            "duration": 0.042856999999997925,
            "durationTicks": 96,
            "midi": 45,
            "name": "A2",
            "ticks": 143808,
            "time": 64.199786,
            "velocity": 0.4881889763779528
          },
          {
            "duration": 0.042856999999997925,
            "durationTicks": 96,
            "midi": 37,
            "name": "C#2",
            "ticks": 143808,
            "time": 64.199786,
            "velocity": 0.4881889763779528
          },
          {
            "duration": 0.042856999999997925,
            "durationTicks": 96,
            "midi": 47,
            "name": "B2",
            "ticks": 143808,
            "time": 64.199786,
            "velocity": 0.4881889763779528
          },
          {
            "duration": 0.042856999999997925,
            "durationTicks": 96,
            "midi": 35,
            "name": "B1",
            "ticks": 143808,
            "time": 64.199786,
            "velocity": 0.4881889763779528
          },
          {
            "duration": 0.042856999999997925,
            "durationTicks": 96,
            "midi": 37,
            "name": "C#2",
            "ticks": 143808,
            "time": 64.199786,
            "velocity": 0.4881889763779528
          },
          {
            "duration": 0.042856999999997925,
            "durationTicks": 96,
            "midi": 37,
            "name": "C#2",
            "ticks": 143808,
            "time": 64.199786,
            "velocity": 0.4881889763779528
          },
          {
            "duration": 0.042856999999997925,
            "durationTicks": 96,
            "midi": 35,
            "name": "B1",
            "ticks": 143808,
            "time": 64.199786,
            "velocity": 0.4881889763779528
          },
          {
            "duration": 0.042857000000012135,
            "durationTicks": 96,
            "midi": 33,
            "name": "A1",
            "ticks": 144960,
            "time": 64.71406999999999,
            "velocity": 0.4881889763779528
          },
          {
            "duration": 0.042857000000012135,
            "durationTicks": 96,
            "midi": 32,
            "name": "G#1",
            "ticks": 144960,
            "time": 64.71406999999999,
            "velocity": 0.4881889763779528
          },
          {
            "duration": 0.042857000000012135,
            "durationTicks": 96,
            "midi": 33,
            "name": "A1",
            "ticks": 144960,
            "time": 64.71406999999999,
            "velocity": 0.4881889763779528
          },
          {
            "duration": 0.042857000000012135,
            "durationTicks": 96,
            "midi": 32,
            "name": "G#1",
            "ticks": 144960,
            "time": 64.71406999999999,
            "velocity": 0.4881889763779528
          },
          {
            "duration": 0.042857000000012135,
            "durationTicks": 96,
            "midi": 40,
            "name": "E2",
            "ticks": 144960,
            "time": 64.71406999999999,
            "velocity": 0.4881889763779528
          },
          {
            "duration": 0.042857000000012135,
            "durationTicks": 96,
            "midi": 38,
            "name": "D2",
            "ticks": 144960,
            "time": 64.71406999999999,
            "velocity": 0.4881889763779528
          },
          {
            "duration": 0.042857000000012135,
            "durationTicks": 96,
            "midi": 33,
            "name": "A1",
            "ticks": 144960,
            "time": 64.71406999999999,
            "velocity": 0.4881889763779528
          },
          {
            "duration": 0.042857000000012135,
            "durationTicks": 96,
            "midi": 33,
            "name": "A1",
            "ticks": 144960,
            "time": 64.71406999999999,
            "velocity": 0.4881889763779528
          },
          {
            "duration": 0.042857000000012135,
            "durationTicks": 96,
            "midi": 32,
            "name": "G#1",
            "ticks": 144960,
            "time": 64.71406999999999,
            "velocity": 0.4881889763779528
          },
          {
            "duration": 0.042857000000012135,
            "durationTicks": 96,
            "midi": 32,
            "name": "G#1",
            "ticks": 144960,
            "time": 64.71406999999999,
            "velocity": 0.4881889763779528
          },
          {
            "duration": 0.042856999999997925,
            "durationTicks": 96,
            "midi": 45,
            "name": "A2",
            "ticks": 145344,
            "time": 64.885498,
            "velocity": 0.4881889763779528
          },
          {
            "duration": 0.042856999999997925,
            "durationTicks": 96,
            "midi": 37,
            "name": "C#2",
            "ticks": 145344,
            "time": 64.885498,
            "velocity": 0.4881889763779528
          },
          {
            "duration": 0.042856999999997925,
            "durationTicks": 96,
            "midi": 47,
            "name": "B2",
            "ticks": 145344,
            "time": 64.885498,
            "velocity": 0.4881889763779528
          },
          {
            "duration": 0.042856999999997925,
            "durationTicks": 96,
            "midi": 37,
            "name": "C#2",
            "ticks": 145344,
            "time": 64.885498,
            "velocity": 0.4881889763779528
          },
          {
            "duration": 0.042856999999997925,
            "durationTicks": 96,
            "midi": 37,
            "name": "C#2",
            "ticks": 145344,
            "time": 64.885498,
            "velocity": 0.4881889763779528
          },
          {
            "duration": 0.042856999999997925,
            "durationTicks": 96,
            "midi": 35,
            "name": "B1",
            "ticks": 145344,
            "time": 64.885498,
            "velocity": 0.4881889763779528
          },
          {
            "duration": 0.042856999999997925,
            "durationTicks": 96,
            "midi": 35,
            "name": "B1",
            "ticks": 145344,
            "time": 64.885498,
            "velocity": 0.4881889763779528
          },
          {
            "duration": 0.042856999999997925,
            "durationTicks": 96,
            "midi": 35,
            "name": "B1",
            "ticks": 145344,
            "time": 64.885498,
            "velocity": 0.4881889763779528
          },
          {
            "duration": 0.042856999999997925,
            "durationTicks": 96,
            "midi": 38,
            "name": "D2",
            "ticks": 145728,
            "time": 65.056926,
            "velocity": 0.4881889763779528
          },
          {
            "duration": 0.042856999999997925,
            "durationTicks": 96,
            "midi": 33,
            "name": "A1",
            "ticks": 145728,
            "time": 65.056926,
            "velocity": 0.4881889763779528
          },
          {
            "duration": 0.042856999999997925,
            "durationTicks": 96,
            "midi": 33,
            "name": "A1",
            "ticks": 145728,
            "time": 65.056926,
            "velocity": 0.4881889763779528
          },
          {
            "duration": 0.042856999999997925,
            "durationTicks": 96,
            "midi": 32,
            "name": "G#1",
            "ticks": 145728,
            "time": 65.056926,
            "velocity": 0.4881889763779528
          },
          {
            "duration": 0.042856999999997925,
            "durationTicks": 96,
            "midi": 40,
            "name": "E2",
            "ticks": 145728,
            "time": 65.056926,
            "velocity": 0.4881889763779528
          },
          {
            "duration": 0.042856999999997925,
            "durationTicks": 96,
            "midi": 33,
            "name": "A1",
            "ticks": 145728,
            "time": 65.056926,
            "velocity": 0.4881889763779528
          },
          {
            "duration": 0.042856999999997925,
            "durationTicks": 96,
            "midi": 32,
            "name": "G#1",
            "ticks": 145728,
            "time": 65.056926,
            "velocity": 0.4881889763779528
          },
          {
            "duration": 0.042856999999997925,
            "durationTicks": 96,
            "midi": 32,
            "name": "G#1",
            "ticks": 145728,
            "time": 65.056926,
            "velocity": 0.4881889763779528
          },
          {
            "duration": 0.042856999999997925,
            "durationTicks": 96,
            "midi": 33,
            "name": "A1",
            "ticks": 145728,
            "time": 65.056926,
            "velocity": 0.4881889763779528
          },
          {
            "duration": 0.042856999999997925,
            "durationTicks": 96,
            "midi": 32,
            "name": "G#1",
            "ticks": 145728,
            "time": 65.056926,
            "velocity": 0.4881889763779528
          },
          {
            "duration": 0.042856999999997925,
            "durationTicks": 96,
            "midi": 40,
            "name": "E2",
            "ticks": 146112,
            "time": 65.228354,
            "velocity": 0.4881889763779528
          },
          {
            "duration": 0.042856999999997925,
            "durationTicks": 96,
            "midi": 38,
            "name": "D2",
            "ticks": 146112,
            "time": 65.228354,
            "velocity": 0.4881889763779528
          },
          {
            "duration": 0.042856999999997925,
            "durationTicks": 96,
            "midi": 32,
            "name": "G#1",
            "ticks": 146112,
            "time": 65.228354,
            "velocity": 0.4881889763779528
          },
          {
            "duration": 0.042856999999997925,
            "durationTicks": 96,
            "midi": 33,
            "name": "A1",
            "ticks": 146112,
            "time": 65.228354,
            "velocity": 0.4881889763779528
          },
          {
            "duration": 0.042856999999997925,
            "durationTicks": 96,
            "midi": 32,
            "name": "G#1",
            "ticks": 146112,
            "time": 65.228354,
            "velocity": 0.4881889763779528
          },
          {
            "duration": 0.042856999999997925,
            "durationTicks": 96,
            "midi": 33,
            "name": "A1",
            "ticks": 146112,
            "time": 65.228354,
            "velocity": 0.4881889763779528
          },
          {
            "duration": 0.042856999999997925,
            "durationTicks": 96,
            "midi": 32,
            "name": "G#1",
            "ticks": 146112,
            "time": 65.228354,
            "velocity": 0.4881889763779528
          },
          {
            "duration": 0.042856999999997925,
            "durationTicks": 96,
            "midi": 32,
            "name": "G#1",
            "ticks": 146112,
            "time": 65.228354,
            "velocity": 0.4881889763779528
          },
          {
            "duration": 0.042856999999997925,
            "durationTicks": 96,
            "midi": 33,
            "name": "A1",
            "ticks": 146112,
            "time": 65.228354,
            "velocity": 0.4881889763779528
          },
          {
            "duration": 0.042856999999997925,
            "durationTicks": 96,
            "midi": 33,
            "name": "A1",
            "ticks": 146112,
            "time": 65.228354,
            "velocity": 0.4881889763779528
          },
          {
            "duration": 0.042857000000012135,
            "durationTicks": 96,
            "midi": 45,
            "name": "A2",
            "ticks": 146880,
            "time": 65.57121,
            "velocity": 0.4881889763779528
          },
          {
            "duration": 0.042857000000012135,
            "durationTicks": 96,
            "midi": 35,
            "name": "B1",
            "ticks": 146880,
            "time": 65.57121,
            "velocity": 0.4881889763779528
          },
          {
            "duration": 0.042857000000012135,
            "durationTicks": 96,
            "midi": 37,
            "name": "C#2",
            "ticks": 146880,
            "time": 65.57121,
            "velocity": 0.4881889763779528
          },
          {
            "duration": 0.042857000000012135,
            "durationTicks": 96,
            "midi": 37,
            "name": "C#2",
            "ticks": 146880,
            "time": 65.57121,
            "velocity": 0.4881889763779528
          },
          {
            "duration": 0.042857000000012135,
            "durationTicks": 96,
            "midi": 35,
            "name": "B1",
            "ticks": 146880,
            "time": 65.57121,
            "velocity": 0.4881889763779528
          },
          {
            "duration": 0.042857000000012135,
            "durationTicks": 96,
            "midi": 47,
            "name": "B2",
            "ticks": 146880,
            "time": 65.57121,
            "velocity": 0.4881889763779528
          },
          {
            "duration": 0.042857000000012135,
            "durationTicks": 96,
            "midi": 35,
            "name": "B1",
            "ticks": 146880,
            "time": 65.57121,
            "velocity": 0.4881889763779528
          },
          {
            "duration": 0.042857000000012135,
            "durationTicks": 96,
            "midi": 37,
            "name": "C#2",
            "ticks": 146880,
            "time": 65.57121,
            "velocity": 0.4881889763779528
          },
          {
            "duration": 0.042856999999997925,
            "durationTicks": 96,
            "midi": 35,
            "name": "B1",
            "ticks": 147648,
            "time": 65.914066,
            "velocity": 0.4881889763779528
          },
          {
            "duration": 0.042856999999997925,
            "durationTicks": 96,
            "midi": 47,
            "name": "B2",
            "ticks": 147648,
            "time": 65.914066,
            "velocity": 0.4881889763779528
          },
          {
            "duration": 0.042856999999997925,
            "durationTicks": 96,
            "midi": 35,
            "name": "B1",
            "ticks": 147648,
            "time": 65.914066,
            "velocity": 0.4881889763779528
          },
          {
            "duration": 0.042856999999997925,
            "durationTicks": 96,
            "midi": 37,
            "name": "C#2",
            "ticks": 147648,
            "time": 65.914066,
            "velocity": 0.4881889763779528
          },
          {
            "duration": 0.042856999999997925,
            "durationTicks": 96,
            "midi": 35,
            "name": "B1",
            "ticks": 147648,
            "time": 65.914066,
            "velocity": 0.4881889763779528
          },
          {
            "duration": 0.042856999999997925,
            "durationTicks": 96,
            "midi": 37,
            "name": "C#2",
            "ticks": 147648,
            "time": 65.914066,
            "velocity": 0.4881889763779528
          },
          {
            "duration": 0.042856999999997925,
            "durationTicks": 96,
            "midi": 37,
            "name": "C#2",
            "ticks": 147648,
            "time": 65.914066,
            "velocity": 0.4881889763779528
          },
          {
            "duration": 0.042856999999997925,
            "durationTicks": 96,
            "midi": 45,
            "name": "A2",
            "ticks": 147648,
            "time": 65.914066,
            "velocity": 0.4881889763779528
          },
          {
            "duration": 0.042856999999997925,
            "durationTicks": 96,
            "midi": 37,
            "name": "C#2",
            "ticks": 147840,
            "time": 65.99978,
            "velocity": 0.4881889763779528
          },
          {
            "duration": 0.042856999999997925,
            "durationTicks": 96,
            "midi": 35,
            "name": "B1",
            "ticks": 147840,
            "time": 65.99978,
            "velocity": 0.4881889763779528
          },
          {
            "duration": 0.042856999999997925,
            "durationTicks": 96,
            "midi": 47,
            "name": "B2",
            "ticks": 147840,
            "time": 65.99978,
            "velocity": 0.4881889763779528
          },
          {
            "duration": 0.042856999999997925,
            "durationTicks": 96,
            "midi": 45,
            "name": "A2",
            "ticks": 147840,
            "time": 65.99978,
            "velocity": 0.4881889763779528
          },
          {
            "duration": 0.042856999999997925,
            "durationTicks": 96,
            "midi": 35,
            "name": "B1",
            "ticks": 147840,
            "time": 65.99978,
            "velocity": 0.4881889763779528
          },
          {
            "duration": 0.042856999999997925,
            "durationTicks": 96,
            "midi": 37,
            "name": "C#2",
            "ticks": 147840,
            "time": 65.99978,
            "velocity": 0.4881889763779528
          },
          {
            "duration": 0.042856999999997925,
            "durationTicks": 96,
            "midi": 37,
            "name": "C#2",
            "ticks": 147840,
            "time": 65.99978,
            "velocity": 0.4881889763779528
          },
          {
            "duration": 0.042856999999997925,
            "durationTicks": 96,
            "midi": 35,
            "name": "B1",
            "ticks": 147840,
            "time": 65.99978,
            "velocity": 0.4881889763779528
          },
          {
            "duration": 0.042856999999997925,
            "durationTicks": 96,
            "midi": 38,
            "name": "D2",
            "ticks": 148032,
            "time": 66.085494,
            "velocity": 0.4881889763779528
          },
          {
            "duration": 0.042856999999997925,
            "durationTicks": 96,
            "midi": 33,
            "name": "A1",
            "ticks": 148032,
            "time": 66.085494,
            "velocity": 0.4881889763779528
          },
          {
            "duration": 0.042856999999997925,
            "durationTicks": 96,
            "midi": 32,
            "name": "G#1",
            "ticks": 148032,
            "time": 66.085494,
            "velocity": 0.4881889763779528
          },
          {
            "duration": 0.042856999999997925,
            "durationTicks": 96,
            "midi": 40,
            "name": "E2",
            "ticks": 148032,
            "time": 66.085494,
            "velocity": 0.4881889763779528
          },
          {
            "duration": 0.042856999999997925,
            "durationTicks": 96,
            "midi": 33,
            "name": "A1",
            "ticks": 148032,
            "time": 66.085494,
            "velocity": 0.4881889763779528
          },
          {
            "duration": 0.042856999999997925,
            "durationTicks": 96,
            "midi": 33,
            "name": "A1",
            "ticks": 148032,
            "time": 66.085494,
            "velocity": 0.4881889763779528
          },
          {
            "duration": 0.042856999999997925,
            "durationTicks": 96,
            "midi": 32,
            "name": "G#1",
            "ticks": 148032,
            "time": 66.085494,
            "velocity": 0.4881889763779528
          },
          {
            "duration": 0.042856999999997925,
            "durationTicks": 96,
            "midi": 32,
            "name": "G#1",
            "ticks": 148032,
            "time": 66.085494,
            "velocity": 0.4881889763779528
          },
          {
            "duration": 0.042856999999997925,
            "durationTicks": 96,
            "midi": 33,
            "name": "A1",
            "ticks": 148032,
            "time": 66.085494,
            "velocity": 0.4881889763779528
          },
          {
            "duration": 0.042856999999997925,
            "durationTicks": 96,
            "midi": 32,
            "name": "G#1",
            "ticks": 148032,
            "time": 66.085494,
            "velocity": 0.4881889763779528
          },
          {
            "duration": 0.042856999999997925,
            "durationTicks": 96,
            "midi": 47,
            "name": "B2",
            "ticks": 148416,
            "time": 66.256922,
            "velocity": 0.4881889763779528
          },
          {
            "duration": 0.042856999999997925,
            "durationTicks": 96,
            "midi": 37,
            "name": "C#2",
            "ticks": 148416,
            "time": 66.256922,
            "velocity": 0.4881889763779528
          },
          {
            "duration": 0.042856999999997925,
            "durationTicks": 96,
            "midi": 37,
            "name": "C#2",
            "ticks": 148416,
            "time": 66.256922,
            "velocity": 0.4881889763779528
          },
          {
            "duration": 0.042856999999997925,
            "durationTicks": 96,
            "midi": 35,
            "name": "B1",
            "ticks": 148416,
            "time": 66.256922,
            "velocity": 0.4881889763779528
          },
          {
            "duration": 0.042856999999997925,
            "durationTicks": 96,
            "midi": 45,
            "name": "A2",
            "ticks": 148416,
            "time": 66.256922,
            "velocity": 0.4881889763779528
          },
          {
            "duration": 0.042856999999997925,
            "durationTicks": 96,
            "midi": 35,
            "name": "B1",
            "ticks": 148416,
            "time": 66.256922,
            "velocity": 0.4881889763779528
          },
          {
            "duration": 0.042856999999997925,
            "durationTicks": 96,
            "midi": 35,
            "name": "B1",
            "ticks": 148416,
            "time": 66.256922,
            "velocity": 0.4881889763779528
          },
          {
            "duration": 0.042856999999997925,
            "durationTicks": 96,
            "midi": 37,
            "name": "C#2",
            "ticks": 148416,
            "time": 66.256922,
            "velocity": 0.4881889763779528
          },
          {
            "duration": 0.042856999999997925,
            "durationTicks": 96,
            "midi": 40,
            "name": "E2",
            "ticks": 148800,
            "time": 66.42835,
            "velocity": 0.4881889763779528
          },
          {
            "duration": 0.042856999999997925,
            "durationTicks": 96,
            "midi": 33,
            "name": "A1",
            "ticks": 148800,
            "time": 66.42835,
            "velocity": 0.4881889763779528
          },
          {
            "duration": 0.042856999999997925,
            "durationTicks": 96,
            "midi": 32,
            "name": "G#1",
            "ticks": 148800,
            "time": 66.42835,
            "velocity": 0.4881889763779528
          },
          {
            "duration": 0.042856999999997925,
            "durationTicks": 96,
            "midi": 33,
            "name": "A1",
            "ticks": 148800,
            "time": 66.42835,
            "velocity": 0.4881889763779528
          },
          {
            "duration": 0.042856999999997925,
            "durationTicks": 96,
            "midi": 32,
            "name": "G#1",
            "ticks": 148800,
            "time": 66.42835,
            "velocity": 0.4881889763779528
          },
          {
            "duration": 0.042856999999997925,
            "durationTicks": 96,
            "midi": 33,
            "name": "A1",
            "ticks": 148800,
            "time": 66.42835,
            "velocity": 0.4881889763779528
          },
          {
            "duration": 0.042856999999997925,
            "durationTicks": 96,
            "midi": 38,
            "name": "D2",
            "ticks": 148800,
            "time": 66.42835,
            "velocity": 0.4881889763779528
          },
          {
            "duration": 0.042856999999997925,
            "durationTicks": 96,
            "midi": 32,
            "name": "G#1",
            "ticks": 148800,
            "time": 66.42835,
            "velocity": 0.4881889763779528
          },
          {
            "duration": 0.042856999999997925,
            "durationTicks": 96,
            "midi": 32,
            "name": "G#1",
            "ticks": 148800,
            "time": 66.42835,
            "velocity": 0.4881889763779528
          },
          {
            "duration": 0.042856999999997925,
            "durationTicks": 96,
            "midi": 33,
            "name": "A1",
            "ticks": 148800,
            "time": 66.42835,
            "velocity": 0.4881889763779528
          },
          {
            "duration": 0.042856999999997925,
            "durationTicks": 96,
            "midi": 49,
            "name": "C#3",
            "ticks": 149184,
            "time": 66.599778,
            "velocity": 0.4881889763779528
          },
          {
            "duration": 0.042856999999997925,
            "durationTicks": 96,
            "midi": 32,
            "name": "G#1",
            "ticks": 149184,
            "time": 66.599778,
            "velocity": 0.4881889763779528
          },
          {
            "duration": 0.042856999999997925,
            "durationTicks": 96,
            "midi": 33,
            "name": "A1",
            "ticks": 149184,
            "time": 66.599778,
            "velocity": 0.4881889763779528
          },
          {
            "duration": 0.042856999999997925,
            "durationTicks": 96,
            "midi": 40,
            "name": "E2",
            "ticks": 149184,
            "time": 66.599778,
            "velocity": 0.4881889763779528
          },
          {
            "duration": 0.042856999999997925,
            "durationTicks": 96,
            "midi": 50,
            "name": "D3",
            "ticks": 149184,
            "time": 66.599778,
            "velocity": 0.4881889763779528
          },
          {
            "duration": 0.042856999999997925,
            "durationTicks": 96,
            "midi": 33,
            "name": "A1",
            "ticks": 149184,
            "time": 66.599778,
            "velocity": 0.4881889763779528
          },
          {
            "duration": 0.042856999999997925,
            "durationTicks": 96,
            "midi": 32,
            "name": "G#1",
            "ticks": 149184,
            "time": 66.599778,
            "velocity": 0.4881889763779528
          },
          {
            "duration": 0.042856999999997925,
            "durationTicks": 96,
            "midi": 32,
            "name": "G#1",
            "ticks": 149184,
            "time": 66.599778,
            "velocity": 0.4881889763779528
          },
          {
            "duration": 0.042856999999997925,
            "durationTicks": 96,
            "midi": 38,
            "name": "D2",
            "ticks": 149184,
            "time": 66.599778,
            "velocity": 0.4881889763779528
          },
          {
            "duration": 0.042856999999997925,
            "durationTicks": 96,
            "midi": 33,
            "name": "A1",
            "ticks": 149184,
            "time": 66.599778,
            "velocity": 0.4881889763779528
          },
          {
            "duration": 0.042856999999997925,
            "durationTicks": 96,
            "midi": 32,
            "name": "G#1",
            "ticks": 149184,
            "time": 66.599778,
            "velocity": 0.4881889763779528
          },
          {
            "duration": 0.042856999999997925,
            "durationTicks": 96,
            "midi": 33,
            "name": "A1",
            "ticks": 149184,
            "time": 66.599778,
            "velocity": 0.4881889763779528
          },
          {
            "duration": 0.042856999999997925,
            "durationTicks": 96,
            "midi": 40,
            "name": "E2",
            "ticks": 152256,
            "time": 67.971202,
            "velocity": 0.4881889763779528
          },
          {
            "duration": 0.042856999999997925,
            "durationTicks": 96,
            "midi": 38,
            "name": "D2",
            "ticks": 152256,
            "time": 67.971202,
            "velocity": 0.4881889763779528
          },
          {
            "duration": 0.042856999999997925,
            "durationTicks": 96,
            "midi": 38,
            "name": "D2",
            "ticks": 152256,
            "time": 67.971202,
            "velocity": 0.4881889763779528
          },
          {
            "duration": 0.042856999999997925,
            "durationTicks": 96,
            "midi": 46,
            "name": "A#2",
            "ticks": 152256,
            "time": 67.971202,
            "velocity": 0.4881889763779528
          },
          {
            "duration": 0.042856999999997925,
            "durationTicks": 96,
            "midi": 40,
            "name": "E2",
            "ticks": 152256,
            "time": 67.971202,
            "velocity": 0.4881889763779528
          },
          {
            "duration": 0.042856999999997925,
            "durationTicks": 96,
            "midi": 33,
            "name": "A1",
            "ticks": 152256,
            "time": 67.971202,
            "velocity": 0.4881889763779528
          },
          {
            "duration": 0.042856999999997925,
            "durationTicks": 96,
            "midi": 49,
            "name": "C#3",
            "ticks": 152256,
            "time": 67.971202,
            "velocity": 0.4881889763779528
          },
          {
            "duration": 0.042856999999997925,
            "durationTicks": 96,
            "midi": 40,
            "name": "E2",
            "ticks": 152256,
            "time": 67.971202,
            "velocity": 0.4881889763779528
          },
          {
            "duration": 0.042856999999997925,
            "durationTicks": 96,
            "midi": 40,
            "name": "E2",
            "ticks": 152256,
            "time": 67.971202,
            "velocity": 0.4881889763779528
          },
          {
            "duration": 0.042856999999997925,
            "durationTicks": 96,
            "midi": 52,
            "name": "E3",
            "ticks": 152256,
            "time": 67.971202,
            "velocity": 0.4881889763779528
          },
          {
            "duration": 0.042856999999997925,
            "durationTicks": 96,
            "midi": 33,
            "name": "A1",
            "ticks": 152256,
            "time": 67.971202,
            "velocity": 0.4881889763779528
          },
          {
            "duration": 0.042856999999997925,
            "durationTicks": 96,
            "midi": 38,
            "name": "D2",
            "ticks": 152256,
            "time": 67.971202,
            "velocity": 0.4881889763779528
          },
          {
            "duration": 0.042856999999997925,
            "durationTicks": 96,
            "midi": 33,
            "name": "A1",
            "ticks": 152256,
            "time": 67.971202,
            "velocity": 0.4881889763779528
          },
          {
            "duration": 0.042856999999997925,
            "durationTicks": 96,
            "midi": 33,
            "name": "A1",
            "ticks": 152256,
            "time": 67.971202,
            "velocity": 0.4881889763779528
          },
          {
            "duration": 0.042856999999997925,
            "durationTicks": 96,
            "midi": 52,
            "name": "E3",
            "ticks": 152256,
            "time": 67.971202,
            "velocity": 0.4881889763779528
          },
          {
            "duration": 0.042856999999997925,
            "durationTicks": 96,
            "midi": 32,
            "name": "G#1",
            "ticks": 152256,
            "time": 67.971202,
            "velocity": 0.4881889763779528
          },
          {
            "duration": 0.042856999999997925,
            "durationTicks": 96,
            "midi": 46,
            "name": "A#2",
            "ticks": 152256,
            "time": 67.971202,
            "velocity": 0.4881889763779528
          },
          {
            "duration": 0.042856999999997925,
            "durationTicks": 96,
            "midi": 33,
            "name": "A1",
            "ticks": 152256,
            "time": 67.971202,
            "velocity": 0.4881889763779528
          },
          {
            "duration": 0.042856999999997925,
            "durationTicks": 96,
            "midi": 38,
            "name": "D2",
            "ticks": 152256,
            "time": 67.971202,
            "velocity": 0.4881889763779528
          },
          {
            "duration": 0.042856999999997925,
            "durationTicks": 96,
            "midi": 32,
            "name": "G#1",
            "ticks": 152256,
            "time": 67.971202,
            "velocity": 0.4881889763779528
          },
          {
            "duration": 0.042856999999997925,
            "durationTicks": 96,
            "midi": 33,
            "name": "A1",
            "ticks": 152256,
            "time": 67.971202,
            "velocity": 0.4881889763779528
          },
          {
            "duration": 0.042856999999997925,
            "durationTicks": 96,
            "midi": 33,
            "name": "A1",
            "ticks": 152256,
            "time": 67.971202,
            "velocity": 0.4881889763779528
          },
          {
            "duration": 0.042856999999997925,
            "durationTicks": 96,
            "midi": 32,
            "name": "G#1",
            "ticks": 152256,
            "time": 67.971202,
            "velocity": 0.4881889763779528
          },
          {
            "duration": 0.042856999999997925,
            "durationTicks": 96,
            "midi": 32,
            "name": "G#1",
            "ticks": 152256,
            "time": 67.971202,
            "velocity": 0.4881889763779528
          },
          {
            "duration": 0.042856999999997925,
            "durationTicks": 96,
            "midi": 38,
            "name": "D2",
            "ticks": 152256,
            "time": 67.971202,
            "velocity": 0.4881889763779528
          },
          {
            "duration": 0.042856999999997925,
            "durationTicks": 96,
            "midi": 32,
            "name": "G#1",
            "ticks": 152256,
            "time": 67.971202,
            "velocity": 0.4881889763779528
          },
          {
            "duration": 0.042856999999997925,
            "durationTicks": 96,
            "midi": 32,
            "name": "G#1",
            "ticks": 152256,
            "time": 67.971202,
            "velocity": 0.4881889763779528
          },
          {
            "duration": 0.042856999999997925,
            "durationTicks": 96,
            "midi": 54,
            "name": "F#3",
            "ticks": 152256,
            "time": 67.971202,
            "velocity": 0.4881889763779528
          },
          {
            "duration": 0.042856999999997925,
            "durationTicks": 96,
            "midi": 32,
            "name": "G#1",
            "ticks": 152256,
            "time": 67.971202,
            "velocity": 0.4881889763779528
          },
          {
            "duration": 0.042856999999997925,
            "durationTicks": 96,
            "midi": 40,
            "name": "E2",
            "ticks": 152256,
            "time": 67.971202,
            "velocity": 0.4881889763779528
          },
          {
            "duration": 0.042856999999997925,
            "durationTicks": 96,
            "midi": 33,
            "name": "A1",
            "ticks": 152256,
            "time": 67.971202,
            "velocity": 0.4881889763779528
          },
          {
            "duration": 0.042856999999997925,
            "durationTicks": 96,
            "midi": 32,
            "name": "G#1",
            "ticks": 152256,
            "time": 67.971202,
            "velocity": 0.4881889763779528
          },
          {
            "duration": 0.042856999999997925,
            "durationTicks": 96,
            "midi": 33,
            "name": "A1",
            "ticks": 152256,
            "time": 67.971202,
            "velocity": 0.4881889763779528
          },
          {
            "duration": 0.042856999999997925,
            "durationTicks": 96,
            "midi": 32,
            "name": "G#1",
            "ticks": 152256,
            "time": 67.971202,
            "velocity": 0.4881889763779528
          },
          {
            "duration": 0.042856999999997925,
            "durationTicks": 96,
            "midi": 32,
            "name": "G#1",
            "ticks": 152256,
            "time": 67.971202,
            "velocity": 0.4881889763779528
          },
          {
            "duration": 0.042856999999997925,
            "durationTicks": 96,
            "midi": 33,
            "name": "A1",
            "ticks": 152256,
            "time": 67.971202,
            "velocity": 0.4881889763779528
          },
          {
            "duration": 0.042856999999997925,
            "durationTicks": 96,
            "midi": 37,
            "name": "C#2",
            "ticks": 153792,
            "time": 68.656914,
            "velocity": 0.4881889763779528
          },
          {
            "duration": 0.042856999999997925,
            "durationTicks": 96,
            "midi": 35,
            "name": "B1",
            "ticks": 153792,
            "time": 68.656914,
            "velocity": 0.4881889763779528
          },
          {
            "duration": 0.042856999999997925,
            "durationTicks": 96,
            "midi": 35,
            "name": "B1",
            "ticks": 153792,
            "time": 68.656914,
            "velocity": 0.4881889763779528
          },
          {
            "duration": 0.042856999999997925,
            "durationTicks": 96,
            "midi": 35,
            "name": "B1",
            "ticks": 153792,
            "time": 68.656914,
            "velocity": 0.4881889763779528
          },
          {
            "duration": 0.042856999999997925,
            "durationTicks": 96,
            "midi": 35,
            "name": "B1",
            "ticks": 153792,
            "time": 68.656914,
            "velocity": 0.4881889763779528
          },
          {
            "duration": 0.042856999999997925,
            "durationTicks": 96,
            "midi": 37,
            "name": "C#2",
            "ticks": 153792,
            "time": 68.656914,
            "velocity": 0.4881889763779528
          },
          {
            "duration": 0.042856999999997925,
            "durationTicks": 96,
            "midi": 35,
            "name": "B1",
            "ticks": 153792,
            "time": 68.656914,
            "velocity": 0.4881889763779528
          },
          {
            "duration": 0.042856999999997925,
            "durationTicks": 96,
            "midi": 37,
            "name": "C#2",
            "ticks": 153792,
            "time": 68.656914,
            "velocity": 0.4881889763779528
          },
          {
            "duration": 0.042856999999997925,
            "durationTicks": 96,
            "midi": 35,
            "name": "B1",
            "ticks": 153792,
            "time": 68.656914,
            "velocity": 0.4881889763779528
          },
          {
            "duration": 0.042856999999997925,
            "durationTicks": 96,
            "midi": 37,
            "name": "C#2",
            "ticks": 153792,
            "time": 68.656914,
            "velocity": 0.4881889763779528
          },
          {
            "duration": 0.042856999999997925,
            "durationTicks": 96,
            "midi": 37,
            "name": "C#2",
            "ticks": 153792,
            "time": 68.656914,
            "velocity": 0.4881889763779528
          },
          {
            "duration": 0.042856999999997925,
            "durationTicks": 96,
            "midi": 37,
            "name": "C#2",
            "ticks": 153792,
            "time": 68.656914,
            "velocity": 0.4881889763779528
          },
          {
            "duration": 0.042856999999997925,
            "durationTicks": 96,
            "midi": 32,
            "name": "G#1",
            "ticks": 155712,
            "time": 69.514054,
            "velocity": 0.4881889763779528
          },
          {
            "duration": 0.042856999999997925,
            "durationTicks": 96,
            "midi": 40,
            "name": "E2",
            "ticks": 155712,
            "time": 69.514054,
            "velocity": 0.4881889763779528
          },
          {
            "duration": 0.042856999999997925,
            "durationTicks": 96,
            "midi": 32,
            "name": "G#1",
            "ticks": 155712,
            "time": 69.514054,
            "velocity": 0.4881889763779528
          },
          {
            "duration": 0.042856999999997925,
            "durationTicks": 96,
            "midi": 38,
            "name": "D2",
            "ticks": 155712,
            "time": 69.514054,
            "velocity": 0.4881889763779528
          },
          {
            "duration": 0.042856999999997925,
            "durationTicks": 96,
            "midi": 32,
            "name": "G#1",
            "ticks": 155712,
            "time": 69.514054,
            "velocity": 0.4881889763779528
          },
          {
            "duration": 0.042856999999997925,
            "durationTicks": 96,
            "midi": 33,
            "name": "A1",
            "ticks": 155712,
            "time": 69.514054,
            "velocity": 0.4881889763779528
          },
          {
            "duration": 0.042856999999997925,
            "durationTicks": 96,
            "midi": 33,
            "name": "A1",
            "ticks": 155712,
            "time": 69.514054,
            "velocity": 0.4881889763779528
          },
          {
            "duration": 0.042856999999997925,
            "durationTicks": 96,
            "midi": 38,
            "name": "D2",
            "ticks": 155712,
            "time": 69.514054,
            "velocity": 0.4881889763779528
          },
          {
            "duration": 0.042856999999997925,
            "durationTicks": 96,
            "midi": 33,
            "name": "A1",
            "ticks": 155712,
            "time": 69.514054,
            "velocity": 0.4881889763779528
          },
          {
            "duration": 0.042856999999997925,
            "durationTicks": 96,
            "midi": 32,
            "name": "G#1",
            "ticks": 155712,
            "time": 69.514054,
            "velocity": 0.4881889763779528
          },
          {
            "duration": 0.042856999999997925,
            "durationTicks": 96,
            "midi": 38,
            "name": "D2",
            "ticks": 155712,
            "time": 69.514054,
            "velocity": 0.4881889763779528
          },
          {
            "duration": 0.042856999999997925,
            "durationTicks": 96,
            "midi": 33,
            "name": "A1",
            "ticks": 155712,
            "time": 69.514054,
            "velocity": 0.4881889763779528
          },
          {
            "duration": 0.042856999999997925,
            "durationTicks": 96,
            "midi": 38,
            "name": "D2",
            "ticks": 155712,
            "time": 69.514054,
            "velocity": 0.4881889763779528
          },
          {
            "duration": 0.042856999999997925,
            "durationTicks": 96,
            "midi": 32,
            "name": "G#1",
            "ticks": 155712,
            "time": 69.514054,
            "velocity": 0.4881889763779528
          },
          {
            "duration": 0.042856999999997925,
            "durationTicks": 96,
            "midi": 40,
            "name": "E2",
            "ticks": 155712,
            "time": 69.514054,
            "velocity": 0.4881889763779528
          },
          {
            "duration": 0.042856999999997925,
            "durationTicks": 96,
            "midi": 33,
            "name": "A1",
            "ticks": 155712,
            "time": 69.514054,
            "velocity": 0.4881889763779528
          },
          {
            "duration": 0.042856999999997925,
            "durationTicks": 96,
            "midi": 32,
            "name": "G#1",
            "ticks": 155712,
            "time": 69.514054,
            "velocity": 0.4881889763779528
          },
          {
            "duration": 0.042856999999997925,
            "durationTicks": 96,
            "midi": 40,
            "name": "E2",
            "ticks": 155712,
            "time": 69.514054,
            "velocity": 0.4881889763779528
          },
          {
            "duration": 0.042856999999997925,
            "durationTicks": 96,
            "midi": 32,
            "name": "G#1",
            "ticks": 155712,
            "time": 69.514054,
            "velocity": 0.4881889763779528
          },
          {
            "duration": 0.042856999999997925,
            "durationTicks": 96,
            "midi": 33,
            "name": "A1",
            "ticks": 155712,
            "time": 69.514054,
            "velocity": 0.4881889763779528
          },
          {
            "duration": 0.042856999999997925,
            "durationTicks": 96,
            "midi": 40,
            "name": "E2",
            "ticks": 155712,
            "time": 69.514054,
            "velocity": 0.4881889763779528
          },
          {
            "duration": 0.042856999999997925,
            "durationTicks": 96,
            "midi": 38,
            "name": "D2",
            "ticks": 155712,
            "time": 69.514054,
            "velocity": 0.4881889763779528
          },
          {
            "duration": 0.042856999999997925,
            "durationTicks": 96,
            "midi": 33,
            "name": "A1",
            "ticks": 155712,
            "time": 69.514054,
            "velocity": 0.4881889763779528
          },
          {
            "duration": 0.042856999999997925,
            "durationTicks": 96,
            "midi": 32,
            "name": "G#1",
            "ticks": 155712,
            "time": 69.514054,
            "velocity": 0.4881889763779528
          },
          {
            "duration": 0.042856999999997925,
            "durationTicks": 96,
            "midi": 33,
            "name": "A1",
            "ticks": 155712,
            "time": 69.514054,
            "velocity": 0.4881889763779528
          },
          {
            "duration": 0.042856999999997925,
            "durationTicks": 96,
            "midi": 32,
            "name": "G#1",
            "ticks": 155712,
            "time": 69.514054,
            "velocity": 0.4881889763779528
          },
          {
            "duration": 0.042856999999997925,
            "durationTicks": 96,
            "midi": 33,
            "name": "A1",
            "ticks": 155712,
            "time": 69.514054,
            "velocity": 0.4881889763779528
          },
          {
            "duration": 0.042856999999997925,
            "durationTicks": 96,
            "midi": 32,
            "name": "G#1",
            "ticks": 155712,
            "time": 69.514054,
            "velocity": 0.4881889763779528
          },
          {
            "duration": 0.042856999999997925,
            "durationTicks": 96,
            "midi": 40,
            "name": "E2",
            "ticks": 155712,
            "time": 69.514054,
            "velocity": 0.4881889763779528
          },
          {
            "duration": 0.042856999999997925,
            "durationTicks": 96,
            "midi": 33,
            "name": "A1",
            "ticks": 155712,
            "time": 69.514054,
            "velocity": 0.4881889763779528
          },
          {
            "duration": 0.042857000000012135,
            "durationTicks": 96,
            "midi": 33,
            "name": "A1",
            "ticks": 156096,
            "time": 69.685482,
            "velocity": 0.4881889763779528
          },
          {
            "duration": 0.042857000000012135,
            "durationTicks": 96,
            "midi": 32,
            "name": "G#1",
            "ticks": 156096,
            "time": 69.685482,
            "velocity": 0.4881889763779528
          },
          {
            "duration": 0.042857000000012135,
            "durationTicks": 96,
            "midi": 40,
            "name": "E2",
            "ticks": 156096,
            "time": 69.685482,
            "velocity": 0.4881889763779528
          },
          {
            "duration": 0.042857000000012135,
            "durationTicks": 96,
            "midi": 32,
            "name": "G#1",
            "ticks": 156096,
            "time": 69.685482,
            "velocity": 0.4881889763779528
          },
          {
            "duration": 0.042857000000012135,
            "durationTicks": 96,
            "midi": 32,
            "name": "G#1",
            "ticks": 156096,
            "time": 69.685482,
            "velocity": 0.4881889763779528
          },
          {
            "duration": 0.042857000000012135,
            "durationTicks": 96,
            "midi": 33,
            "name": "A1",
            "ticks": 156096,
            "time": 69.685482,
            "velocity": 0.4881889763779528
          },
          {
            "duration": 0.042857000000012135,
            "durationTicks": 96,
            "midi": 38,
            "name": "D2",
            "ticks": 156096,
            "time": 69.685482,
            "velocity": 0.4881889763779528
          },
          {
            "duration": 0.042857000000012135,
            "durationTicks": 96,
            "midi": 33,
            "name": "A1",
            "ticks": 156096,
            "time": 69.685482,
            "velocity": 0.4881889763779528
          },
          {
            "duration": 0.042857000000012135,
            "durationTicks": 96,
            "midi": 38,
            "name": "D2",
            "ticks": 156096,
            "time": 69.685482,
            "velocity": 0.4881889763779528
          },
          {
            "duration": 0.042857000000012135,
            "durationTicks": 96,
            "midi": 33,
            "name": "A1",
            "ticks": 156096,
            "time": 69.685482,
            "velocity": 0.4881889763779528
          },
          {
            "duration": 0.042857000000012135,
            "durationTicks": 96,
            "midi": 32,
            "name": "G#1",
            "ticks": 156096,
            "time": 69.685482,
            "velocity": 0.4881889763779528
          },
          {
            "duration": 0.042857000000012135,
            "durationTicks": 96,
            "midi": 33,
            "name": "A1",
            "ticks": 156096,
            "time": 69.685482,
            "velocity": 0.4881889763779528
          },
          {
            "duration": 0.042857000000012135,
            "durationTicks": 96,
            "midi": 40,
            "name": "E2",
            "ticks": 156096,
            "time": 69.685482,
            "velocity": 0.4881889763779528
          },
          {
            "duration": 0.042857000000012135,
            "durationTicks": 96,
            "midi": 33,
            "name": "A1",
            "ticks": 156096,
            "time": 69.685482,
            "velocity": 0.4881889763779528
          },
          {
            "duration": 0.042857000000012135,
            "durationTicks": 96,
            "midi": 40,
            "name": "E2",
            "ticks": 156096,
            "time": 69.685482,
            "velocity": 0.4881889763779528
          },
          {
            "duration": 0.042857000000012135,
            "durationTicks": 96,
            "midi": 32,
            "name": "G#1",
            "ticks": 156096,
            "time": 69.685482,
            "velocity": 0.4881889763779528
          },
          {
            "duration": 0.042857000000012135,
            "durationTicks": 96,
            "midi": 32,
            "name": "G#1",
            "ticks": 156096,
            "time": 69.685482,
            "velocity": 0.4881889763779528
          },
          {
            "duration": 0.042857000000012135,
            "durationTicks": 96,
            "midi": 33,
            "name": "A1",
            "ticks": 156096,
            "time": 69.685482,
            "velocity": 0.4881889763779528
          },
          {
            "duration": 0.042857000000012135,
            "durationTicks": 96,
            "midi": 32,
            "name": "G#1",
            "ticks": 156096,
            "time": 69.685482,
            "velocity": 0.4881889763779528
          },
          {
            "duration": 0.042857000000012135,
            "durationTicks": 96,
            "midi": 38,
            "name": "D2",
            "ticks": 156096,
            "time": 69.685482,
            "velocity": 0.4881889763779528
          },
          {
            "duration": 0.042857000000012135,
            "durationTicks": 96,
            "midi": 32,
            "name": "G#1",
            "ticks": 156096,
            "time": 69.685482,
            "velocity": 0.4881889763779528
          },
          {
            "duration": 0.042857000000012135,
            "durationTicks": 96,
            "midi": 33,
            "name": "A1",
            "ticks": 156096,
            "time": 69.685482,
            "velocity": 0.4881889763779528
          },
          {
            "duration": 0.042857000000012135,
            "durationTicks": 96,
            "midi": 32,
            "name": "G#1",
            "ticks": 156096,
            "time": 69.685482,
            "velocity": 0.4881889763779528
          },
          {
            "duration": 0.042857000000012135,
            "durationTicks": 96,
            "midi": 38,
            "name": "D2",
            "ticks": 156096,
            "time": 69.685482,
            "velocity": 0.4881889763779528
          },
          {
            "duration": 0.042857000000012135,
            "durationTicks": 96,
            "midi": 38,
            "name": "D2",
            "ticks": 156096,
            "time": 69.685482,
            "velocity": 0.4881889763779528
          },
          {
            "duration": 0.042857000000012135,
            "durationTicks": 96,
            "midi": 33,
            "name": "A1",
            "ticks": 156096,
            "time": 69.685482,
            "velocity": 0.4881889763779528
          },
          {
            "duration": 0.042857000000012135,
            "durationTicks": 96,
            "midi": 40,
            "name": "E2",
            "ticks": 156096,
            "time": 69.685482,
            "velocity": 0.4881889763779528
          },
          {
            "duration": 0.042857000000012135,
            "durationTicks": 96,
            "midi": 32,
            "name": "G#1",
            "ticks": 156096,
            "time": 69.685482,
            "velocity": 0.4881889763779528
          },
          {
            "duration": 0.042857000000012135,
            "durationTicks": 96,
            "midi": 40,
            "name": "E2",
            "ticks": 156096,
            "time": 69.685482,
            "velocity": 0.4881889763779528
          },
          {
            "duration": 0.042857000000012135,
            "durationTicks": 96,
            "midi": 33,
            "name": "A1",
            "ticks": 156096,
            "time": 69.685482,
            "velocity": 0.4881889763779528
          },
          {
            "duration": 0.042856999999997925,
            "durationTicks": 96,
            "midi": 37,
            "name": "C#2",
            "ticks": 156864,
            "time": 70.028338,
            "velocity": 0.4881889763779528
          },
          {
            "duration": 0.042856999999997925,
            "durationTicks": 96,
            "midi": 37,
            "name": "C#2",
            "ticks": 156864,
            "time": 70.028338,
            "velocity": 0.4881889763779528
          },
          {
            "duration": 0.042856999999997925,
            "durationTicks": 96,
            "midi": 35,
            "name": "B1",
            "ticks": 156864,
            "time": 70.028338,
            "velocity": 0.4881889763779528
          },
          {
            "duration": 0.042856999999997925,
            "durationTicks": 96,
            "midi": 35,
            "name": "B1",
            "ticks": 156864,
            "time": 70.028338,
            "velocity": 0.4881889763779528
          },
          {
            "duration": 0.042856999999997925,
            "durationTicks": 96,
            "midi": 37,
            "name": "C#2",
            "ticks": 156864,
            "time": 70.028338,
            "velocity": 0.4881889763779528
          },
          {
            "duration": 0.042856999999997925,
            "durationTicks": 96,
            "midi": 35,
            "name": "B1",
            "ticks": 156864,
            "time": 70.028338,
            "velocity": 0.4881889763779528
          },
          {
            "duration": 0.042856999999997925,
            "durationTicks": 96,
            "midi": 35,
            "name": "B1",
            "ticks": 156864,
            "time": 70.028338,
            "velocity": 0.4881889763779528
          },
          {
            "duration": 0.042856999999997925,
            "durationTicks": 96,
            "midi": 35,
            "name": "B1",
            "ticks": 156864,
            "time": 70.028338,
            "velocity": 0.4881889763779528
          },
          {
            "duration": 0.042856999999997925,
            "durationTicks": 96,
            "midi": 37,
            "name": "C#2",
            "ticks": 156864,
            "time": 70.028338,
            "velocity": 0.4881889763779528
          },
          {
            "duration": 0.042856999999997925,
            "durationTicks": 96,
            "midi": 35,
            "name": "B1",
            "ticks": 156864,
            "time": 70.028338,
            "velocity": 0.4881889763779528
          },
          {
            "duration": 0.042856999999997925,
            "durationTicks": 96,
            "midi": 37,
            "name": "C#2",
            "ticks": 156864,
            "time": 70.028338,
            "velocity": 0.4881889763779528
          },
          {
            "duration": 0.042856999999997925,
            "durationTicks": 96,
            "midi": 37,
            "name": "C#2",
            "ticks": 156864,
            "time": 70.028338,
            "velocity": 0.4881889763779528
          },
          {
            "duration": 0.042856999999997925,
            "durationTicks": 96,
            "midi": 33,
            "name": "A1",
            "ticks": 158400,
            "time": 70.71405,
            "velocity": 0.4881889763779528
          },
          {
            "duration": 0.042856999999997925,
            "durationTicks": 96,
            "midi": 38,
            "name": "D2",
            "ticks": 158400,
            "time": 70.71405,
            "velocity": 0.4881889763779528
          },
          {
            "duration": 0.042856999999997925,
            "durationTicks": 96,
            "midi": 32,
            "name": "G#1",
            "ticks": 158400,
            "time": 70.71405,
            "velocity": 0.4881889763779528
          },
          {
            "duration": 0.042856999999997925,
            "durationTicks": 96,
            "midi": 33,
            "name": "A1",
            "ticks": 158400,
            "time": 70.71405,
            "velocity": 0.4881889763779528
          },
          {
            "duration": 0.042856999999997925,
            "durationTicks": 96,
            "midi": 32,
            "name": "G#1",
            "ticks": 158400,
            "time": 70.71405,
            "velocity": 0.4881889763779528
          },
          {
            "duration": 0.042856999999997925,
            "durationTicks": 96,
            "midi": 32,
            "name": "G#1",
            "ticks": 158400,
            "time": 70.71405,
            "velocity": 0.4881889763779528
          },
          {
            "duration": 0.042856999999997925,
            "durationTicks": 96,
            "midi": 32,
            "name": "G#1",
            "ticks": 158400,
            "time": 70.71405,
            "velocity": 0.4881889763779528
          },
          {
            "duration": 0.042856999999997925,
            "durationTicks": 96,
            "midi": 33,
            "name": "A1",
            "ticks": 158400,
            "time": 70.71405,
            "velocity": 0.4881889763779528
          },
          {
            "duration": 0.042856999999997925,
            "durationTicks": 96,
            "midi": 33,
            "name": "A1",
            "ticks": 158400,
            "time": 70.71405,
            "velocity": 0.4881889763779528
          },
          {
            "duration": 0.042856999999997925,
            "durationTicks": 96,
            "midi": 32,
            "name": "G#1",
            "ticks": 158400,
            "time": 70.71405,
            "velocity": 0.4881889763779528
          },
          {
            "duration": 0.042856999999997925,
            "durationTicks": 96,
            "midi": 40,
            "name": "E2",
            "ticks": 158400,
            "time": 70.71405,
            "velocity": 0.4881889763779528
          },
          {
            "duration": 0.042856999999997925,
            "durationTicks": 96,
            "midi": 38,
            "name": "D2",
            "ticks": 158400,
            "time": 70.71405,
            "velocity": 0.4881889763779528
          },
          {
            "duration": 0.042856999999997925,
            "durationTicks": 96,
            "midi": 40,
            "name": "E2",
            "ticks": 158400,
            "time": 70.71405,
            "velocity": 0.4881889763779528
          },
          {
            "duration": 0.042856999999997925,
            "durationTicks": 96,
            "midi": 33,
            "name": "A1",
            "ticks": 158400,
            "time": 70.71405,
            "velocity": 0.4881889763779528
          },
          {
            "duration": 0.042856999999997925,
            "durationTicks": 96,
            "midi": 40,
            "name": "E2",
            "ticks": 158400,
            "time": 70.71405,
            "velocity": 0.4881889763779528
          },
          {
            "duration": 0.042856999999997925,
            "durationTicks": 96,
            "midi": 40,
            "name": "E2",
            "ticks": 158400,
            "time": 70.71405,
            "velocity": 0.4881889763779528
          },
          {
            "duration": 0.042856999999997925,
            "durationTicks": 96,
            "midi": 32,
            "name": "G#1",
            "ticks": 158400,
            "time": 70.71405,
            "velocity": 0.4881889763779528
          },
          {
            "duration": 0.042856999999997925,
            "durationTicks": 96,
            "midi": 32,
            "name": "G#1",
            "ticks": 158400,
            "time": 70.71405,
            "velocity": 0.4881889763779528
          },
          {
            "duration": 0.042856999999997925,
            "durationTicks": 96,
            "midi": 33,
            "name": "A1",
            "ticks": 158400,
            "time": 70.71405,
            "velocity": 0.4881889763779528
          },
          {
            "duration": 0.042856999999997925,
            "durationTicks": 96,
            "midi": 38,
            "name": "D2",
            "ticks": 158400,
            "time": 70.71405,
            "velocity": 0.4881889763779528
          },
          {
            "duration": 0.042856999999997925,
            "durationTicks": 96,
            "midi": 33,
            "name": "A1",
            "ticks": 158400,
            "time": 70.71405,
            "velocity": 0.4881889763779528
          },
          {
            "duration": 0.042856999999997925,
            "durationTicks": 96,
            "midi": 33,
            "name": "A1",
            "ticks": 158400,
            "time": 70.71405,
            "velocity": 0.4881889763779528
          },
          {
            "duration": 0.042856999999997925,
            "durationTicks": 96,
            "midi": 32,
            "name": "G#1",
            "ticks": 158400,
            "time": 70.71405,
            "velocity": 0.4881889763779528
          },
          {
            "duration": 0.042856999999997925,
            "durationTicks": 96,
            "midi": 40,
            "name": "E2",
            "ticks": 158400,
            "time": 70.71405,
            "velocity": 0.4881889763779528
          },
          {
            "duration": 0.042856999999997925,
            "durationTicks": 96,
            "midi": 33,
            "name": "A1",
            "ticks": 158400,
            "time": 70.71405,
            "velocity": 0.4881889763779528
          },
          {
            "duration": 0.042856999999997925,
            "durationTicks": 96,
            "midi": 33,
            "name": "A1",
            "ticks": 158400,
            "time": 70.71405,
            "velocity": 0.4881889763779528
          },
          {
            "duration": 0.042856999999997925,
            "durationTicks": 96,
            "midi": 32,
            "name": "G#1",
            "ticks": 158400,
            "time": 70.71405,
            "velocity": 0.4881889763779528
          },
          {
            "duration": 0.042856999999997925,
            "durationTicks": 96,
            "midi": 38,
            "name": "D2",
            "ticks": 158400,
            "time": 70.71405,
            "velocity": 0.4881889763779528
          },
          {
            "duration": 0.042856999999997925,
            "durationTicks": 96,
            "midi": 38,
            "name": "D2",
            "ticks": 158400,
            "time": 70.71405,
            "velocity": 0.4881889763779528
          },
          {
            "duration": 0.042856999999997925,
            "durationTicks": 96,
            "midi": 32,
            "name": "G#1",
            "ticks": 158400,
            "time": 70.71405,
            "velocity": 0.4881889763779528
          },
          {
            "duration": 0.042856999999997925,
            "durationTicks": 96,
            "midi": 37,
            "name": "C#2",
            "ticks": 159936,
            "time": 71.399762,
            "velocity": 0.4881889763779528
          },
          {
            "duration": 0.042856999999997925,
            "durationTicks": 96,
            "midi": 35,
            "name": "B1",
            "ticks": 159936,
            "time": 71.399762,
            "velocity": 0.4881889763779528
          },
          {
            "duration": 0.042856999999997925,
            "durationTicks": 96,
            "midi": 37,
            "name": "C#2",
            "ticks": 159936,
            "time": 71.399762,
            "velocity": 0.4881889763779528
          },
          {
            "duration": 0.042856999999997925,
            "durationTicks": 96,
            "midi": 37,
            "name": "C#2",
            "ticks": 159936,
            "time": 71.399762,
            "velocity": 0.4881889763779528
          },
          {
            "duration": 0.042856999999997925,
            "durationTicks": 96,
            "midi": 35,
            "name": "B1",
            "ticks": 159936,
            "time": 71.399762,
            "velocity": 0.4881889763779528
          },
          {
            "duration": 0.042856999999997925,
            "durationTicks": 96,
            "midi": 35,
            "name": "B1",
            "ticks": 159936,
            "time": 71.399762,
            "velocity": 0.4881889763779528
          },
          {
            "duration": 0.042856999999997925,
            "durationTicks": 96,
            "midi": 37,
            "name": "C#2",
            "ticks": 159936,
            "time": 71.399762,
            "velocity": 0.4881889763779528
          },
          {
            "duration": 0.042856999999997925,
            "durationTicks": 96,
            "midi": 35,
            "name": "B1",
            "ticks": 159936,
            "time": 71.399762,
            "velocity": 0.4881889763779528
          },
          {
            "duration": 0.042856999999997925,
            "durationTicks": 96,
            "midi": 35,
            "name": "B1",
            "ticks": 159936,
            "time": 71.399762,
            "velocity": 0.4881889763779528
          },
          {
            "duration": 0.042856999999997925,
            "durationTicks": 96,
            "midi": 37,
            "name": "C#2",
            "ticks": 159936,
            "time": 71.399762,
            "velocity": 0.4881889763779528
          },
          {
            "duration": 0.042856999999997925,
            "durationTicks": 96,
            "midi": 37,
            "name": "C#2",
            "ticks": 159936,
            "time": 71.399762,
            "velocity": 0.4881889763779528
          },
          {
            "duration": 0.042856999999997925,
            "durationTicks": 96,
            "midi": 35,
            "name": "B1",
            "ticks": 159936,
            "time": 71.399762,
            "velocity": 0.4881889763779528
          },
          {
            "duration": 0.042856999999997925,
            "durationTicks": 96,
            "midi": 40,
            "name": "E2",
            "ticks": 161856,
            "time": 72.256902,
            "velocity": 0.4881889763779528
          },
          {
            "duration": 0.042856999999997925,
            "durationTicks": 96,
            "midi": 38,
            "name": "D2",
            "ticks": 161856,
            "time": 72.256902,
            "velocity": 0.4881889763779528
          },
          {
            "duration": 0.042856999999997925,
            "durationTicks": 96,
            "midi": 33,
            "name": "A1",
            "ticks": 161856,
            "time": 72.256902,
            "velocity": 0.4881889763779528
          },
          {
            "duration": 0.042856999999997925,
            "durationTicks": 96,
            "midi": 32,
            "name": "G#1",
            "ticks": 161856,
            "time": 72.256902,
            "velocity": 0.4881889763779528
          },
          {
            "duration": 0.042856999999997925,
            "durationTicks": 96,
            "midi": 40,
            "name": "E2",
            "ticks": 161856,
            "time": 72.256902,
            "velocity": 0.4881889763779528
          },
          {
            "duration": 0.042856999999997925,
            "durationTicks": 96,
            "midi": 32,
            "name": "G#1",
            "ticks": 161856,
            "time": 72.256902,
            "velocity": 0.4881889763779528
          },
          {
            "duration": 0.042856999999997925,
            "durationTicks": 96,
            "midi": 32,
            "name": "G#1",
            "ticks": 161856,
            "time": 72.256902,
            "velocity": 0.4881889763779528
          },
          {
            "duration": 0.042856999999997925,
            "durationTicks": 96,
            "midi": 32,
            "name": "G#1",
            "ticks": 161856,
            "time": 72.256902,
            "velocity": 0.4881889763779528
          },
          {
            "duration": 0.042856999999997925,
            "durationTicks": 96,
            "midi": 40,
            "name": "E2",
            "ticks": 161856,
            "time": 72.256902,
            "velocity": 0.4881889763779528
          },
          {
            "duration": 0.042856999999997925,
            "durationTicks": 96,
            "midi": 32,
            "name": "G#1",
            "ticks": 161856,
            "time": 72.256902,
            "velocity": 0.4881889763779528
          },
          {
            "duration": 0.042856999999997925,
            "durationTicks": 96,
            "midi": 33,
            "name": "A1",
            "ticks": 161856,
            "time": 72.256902,
            "velocity": 0.4881889763779528
          },
          {
            "duration": 0.042856999999997925,
            "durationTicks": 96,
            "midi": 38,
            "name": "D2",
            "ticks": 161856,
            "time": 72.256902,
            "velocity": 0.4881889763779528
          },
          {
            "duration": 0.042856999999997925,
            "durationTicks": 96,
            "midi": 32,
            "name": "G#1",
            "ticks": 161856,
            "time": 72.256902,
            "velocity": 0.4881889763779528
          },
          {
            "duration": 0.042856999999997925,
            "durationTicks": 96,
            "midi": 33,
            "name": "A1",
            "ticks": 161856,
            "time": 72.256902,
            "velocity": 0.4881889763779528
          },
          {
            "duration": 0.042856999999997925,
            "durationTicks": 96,
            "midi": 40,
            "name": "E2",
            "ticks": 161856,
            "time": 72.256902,
            "velocity": 0.4881889763779528
          },
          {
            "duration": 0.042856999999997925,
            "durationTicks": 96,
            "midi": 33,
            "name": "A1",
            "ticks": 161856,
            "time": 72.256902,
            "velocity": 0.4881889763779528
          },
          {
            "duration": 0.042856999999997925,
            "durationTicks": 96,
            "midi": 33,
            "name": "A1",
            "ticks": 161856,
            "time": 72.256902,
            "velocity": 0.4881889763779528
          },
          {
            "duration": 0.042856999999997925,
            "durationTicks": 96,
            "midi": 33,
            "name": "A1",
            "ticks": 161856,
            "time": 72.256902,
            "velocity": 0.4881889763779528
          },
          {
            "duration": 0.042856999999997925,
            "durationTicks": 96,
            "midi": 33,
            "name": "A1",
            "ticks": 161856,
            "time": 72.256902,
            "velocity": 0.4881889763779528
          },
          {
            "duration": 0.042856999999997925,
            "durationTicks": 96,
            "midi": 33,
            "name": "A1",
            "ticks": 161856,
            "time": 72.256902,
            "velocity": 0.4881889763779528
          },
          {
            "duration": 0.042856999999997925,
            "durationTicks": 96,
            "midi": 40,
            "name": "E2",
            "ticks": 161856,
            "time": 72.256902,
            "velocity": 0.4881889763779528
          },
          {
            "duration": 0.042856999999997925,
            "durationTicks": 96,
            "midi": 32,
            "name": "G#1",
            "ticks": 161856,
            "time": 72.256902,
            "velocity": 0.4881889763779528
          },
          {
            "duration": 0.042856999999997925,
            "durationTicks": 96,
            "midi": 38,
            "name": "D2",
            "ticks": 161856,
            "time": 72.256902,
            "velocity": 0.4881889763779528
          },
          {
            "duration": 0.042856999999997925,
            "durationTicks": 96,
            "midi": 33,
            "name": "A1",
            "ticks": 161856,
            "time": 72.256902,
            "velocity": 0.4881889763779528
          },
          {
            "duration": 0.042856999999997925,
            "durationTicks": 96,
            "midi": 32,
            "name": "G#1",
            "ticks": 161856,
            "time": 72.256902,
            "velocity": 0.4881889763779528
          },
          {
            "duration": 0.042856999999997925,
            "durationTicks": 96,
            "midi": 33,
            "name": "A1",
            "ticks": 161856,
            "time": 72.256902,
            "velocity": 0.4881889763779528
          },
          {
            "duration": 0.042856999999997925,
            "durationTicks": 96,
            "midi": 32,
            "name": "G#1",
            "ticks": 161856,
            "time": 72.256902,
            "velocity": 0.4881889763779528
          },
          {
            "duration": 0.042856999999997925,
            "durationTicks": 96,
            "midi": 38,
            "name": "D2",
            "ticks": 161856,
            "time": 72.256902,
            "velocity": 0.4881889763779528
          },
          {
            "duration": 0.042856999999997925,
            "durationTicks": 96,
            "midi": 38,
            "name": "D2",
            "ticks": 161856,
            "time": 72.256902,
            "velocity": 0.4881889763779528
          },
          {
            "duration": 0.042856999999997925,
            "durationTicks": 96,
            "midi": 32,
            "name": "G#1",
            "ticks": 161856,
            "time": 72.256902,
            "velocity": 0.4881889763779528
          },
          {
            "duration": 0.042856999999997925,
            "durationTicks": 96,
            "midi": 33,
            "name": "A1",
            "ticks": 162240,
            "time": 72.42833,
            "velocity": 0.4881889763779528
          },
          {
            "duration": 0.042856999999997925,
            "durationTicks": 96,
            "midi": 32,
            "name": "G#1",
            "ticks": 162240,
            "time": 72.42833,
            "velocity": 0.4881889763779528
          },
          {
            "duration": 0.042856999999997925,
            "durationTicks": 96,
            "midi": 40,
            "name": "E2",
            "ticks": 162240,
            "time": 72.42833,
            "velocity": 0.4881889763779528
          },
          {
            "duration": 0.042856999999997925,
            "durationTicks": 96,
            "midi": 32,
            "name": "G#1",
            "ticks": 162240,
            "time": 72.42833,
            "velocity": 0.4881889763779528
          },
          {
            "duration": 0.042856999999997925,
            "durationTicks": 96,
            "midi": 33,
            "name": "A1",
            "ticks": 162240,
            "time": 72.42833,
            "velocity": 0.4881889763779528
          },
          {
            "duration": 0.042856999999997925,
            "durationTicks": 96,
            "midi": 40,
            "name": "E2",
            "ticks": 162240,
            "time": 72.42833,
            "velocity": 0.4881889763779528
          },
          {
            "duration": 0.042856999999997925,
            "durationTicks": 96,
            "midi": 38,
            "name": "D2",
            "ticks": 162240,
            "time": 72.42833,
            "velocity": 0.4881889763779528
          },
          {
            "duration": 0.042856999999997925,
            "durationTicks": 96,
            "midi": 32,
            "name": "G#1",
            "ticks": 162240,
            "time": 72.42833,
            "velocity": 0.4881889763779528
          },
          {
            "duration": 0.042856999999997925,
            "durationTicks": 96,
            "midi": 38,
            "name": "D2",
            "ticks": 162240,
            "time": 72.42833,
            "velocity": 0.4881889763779528
          },
          {
            "duration": 0.042856999999997925,
            "durationTicks": 96,
            "midi": 33,
            "name": "A1",
            "ticks": 162240,
            "time": 72.42833,
            "velocity": 0.4881889763779528
          },
          {
            "duration": 0.042856999999997925,
            "durationTicks": 96,
            "midi": 33,
            "name": "A1",
            "ticks": 162240,
            "time": 72.42833,
            "velocity": 0.4881889763779528
          },
          {
            "duration": 0.042856999999997925,
            "durationTicks": 96,
            "midi": 32,
            "name": "G#1",
            "ticks": 162240,
            "time": 72.42833,
            "velocity": 0.4881889763779528
          },
          {
            "duration": 0.042856999999997925,
            "durationTicks": 96,
            "midi": 32,
            "name": "G#1",
            "ticks": 162240,
            "time": 72.42833,
            "velocity": 0.4881889763779528
          },
          {
            "duration": 0.042856999999997925,
            "durationTicks": 96,
            "midi": 32,
            "name": "G#1",
            "ticks": 162240,
            "time": 72.42833,
            "velocity": 0.4881889763779528
          },
          {
            "duration": 0.042856999999997925,
            "durationTicks": 96,
            "midi": 33,
            "name": "A1",
            "ticks": 162240,
            "time": 72.42833,
            "velocity": 0.4881889763779528
          },
          {
            "duration": 0.042856999999997925,
            "durationTicks": 96,
            "midi": 33,
            "name": "A1",
            "ticks": 162240,
            "time": 72.42833,
            "velocity": 0.4881889763779528
          },
          {
            "duration": 0.042856999999997925,
            "durationTicks": 96,
            "midi": 38,
            "name": "D2",
            "ticks": 162240,
            "time": 72.42833,
            "velocity": 0.4881889763779528
          },
          {
            "duration": 0.042856999999997925,
            "durationTicks": 96,
            "midi": 32,
            "name": "G#1",
            "ticks": 162240,
            "time": 72.42833,
            "velocity": 0.4881889763779528
          },
          {
            "duration": 0.042856999999997925,
            "durationTicks": 96,
            "midi": 33,
            "name": "A1",
            "ticks": 162240,
            "time": 72.42833,
            "velocity": 0.4881889763779528
          },
          {
            "duration": 0.042856999999997925,
            "durationTicks": 96,
            "midi": 33,
            "name": "A1",
            "ticks": 162240,
            "time": 72.42833,
            "velocity": 0.4881889763779528
          },
          {
            "duration": 0.042856999999997925,
            "durationTicks": 96,
            "midi": 38,
            "name": "D2",
            "ticks": 162240,
            "time": 72.42833,
            "velocity": 0.4881889763779528
          },
          {
            "duration": 0.042856999999997925,
            "durationTicks": 96,
            "midi": 38,
            "name": "D2",
            "ticks": 162240,
            "time": 72.42833,
            "velocity": 0.4881889763779528
          },
          {
            "duration": 0.042856999999997925,
            "durationTicks": 96,
            "midi": 32,
            "name": "G#1",
            "ticks": 162240,
            "time": 72.42833,
            "velocity": 0.4881889763779528
          },
          {
            "duration": 0.042856999999997925,
            "durationTicks": 96,
            "midi": 40,
            "name": "E2",
            "ticks": 162240,
            "time": 72.42833,
            "velocity": 0.4881889763779528
          },
          {
            "duration": 0.042856999999997925,
            "durationTicks": 96,
            "midi": 33,
            "name": "A1",
            "ticks": 162240,
            "time": 72.42833,
            "velocity": 0.4881889763779528
          },
          {
            "duration": 0.042856999999997925,
            "durationTicks": 96,
            "midi": 33,
            "name": "A1",
            "ticks": 162240,
            "time": 72.42833,
            "velocity": 0.4881889763779528
          },
          {
            "duration": 0.042856999999997925,
            "durationTicks": 96,
            "midi": 32,
            "name": "G#1",
            "ticks": 162240,
            "time": 72.42833,
            "velocity": 0.4881889763779528
          },
          {
            "duration": 0.042856999999997925,
            "durationTicks": 96,
            "midi": 40,
            "name": "E2",
            "ticks": 162240,
            "time": 72.42833,
            "velocity": 0.4881889763779528
          },
          {
            "duration": 0.042856999999997925,
            "durationTicks": 96,
            "midi": 40,
            "name": "E2",
            "ticks": 162240,
            "time": 72.42833,
            "velocity": 0.4881889763779528
          },
          {
            "duration": 0.042856999999997925,
            "durationTicks": 96,
            "midi": 32,
            "name": "G#1",
            "ticks": 162240,
            "time": 72.42833,
            "velocity": 0.4881889763779528
          },
          {
            "duration": 0.042856999999997925,
            "durationTicks": 96,
            "midi": 37,
            "name": "C#2",
            "ticks": 163008,
            "time": 72.771186,
            "velocity": 0.4881889763779528
          },
          {
            "duration": 0.042856999999997925,
            "durationTicks": 96,
            "midi": 37,
            "name": "C#2",
            "ticks": 163008,
            "time": 72.771186,
            "velocity": 0.4881889763779528
          },
          {
            "duration": 0.042856999999997925,
            "durationTicks": 96,
            "midi": 35,
            "name": "B1",
            "ticks": 163008,
            "time": 72.771186,
            "velocity": 0.4881889763779528
          },
          {
            "duration": 0.042856999999997925,
            "durationTicks": 96,
            "midi": 35,
            "name": "B1",
            "ticks": 163008,
            "time": 72.771186,
            "velocity": 0.4881889763779528
          },
          {
            "duration": 0.042856999999997925,
            "durationTicks": 96,
            "midi": 37,
            "name": "C#2",
            "ticks": 163008,
            "time": 72.771186,
            "velocity": 0.4881889763779528
          },
          {
            "duration": 0.042856999999997925,
            "durationTicks": 96,
            "midi": 35,
            "name": "B1",
            "ticks": 163008,
            "time": 72.771186,
            "velocity": 0.4881889763779528
          },
          {
            "duration": 0.042856999999997925,
            "durationTicks": 96,
            "midi": 35,
            "name": "B1",
            "ticks": 163008,
            "time": 72.771186,
            "velocity": 0.4881889763779528
          },
          {
            "duration": 0.042856999999997925,
            "durationTicks": 96,
            "midi": 35,
            "name": "B1",
            "ticks": 163008,
            "time": 72.771186,
            "velocity": 0.4881889763779528
          },
          {
            "duration": 0.042856999999997925,
            "durationTicks": 96,
            "midi": 37,
            "name": "C#2",
            "ticks": 163008,
            "time": 72.771186,
            "velocity": 0.4881889763779528
          },
          {
            "duration": 0.042856999999997925,
            "durationTicks": 96,
            "midi": 37,
            "name": "C#2",
            "ticks": 163008,
            "time": 72.771186,
            "velocity": 0.4881889763779528
          },
          {
            "duration": 0.042856999999997925,
            "durationTicks": 96,
            "midi": 37,
            "name": "C#2",
            "ticks": 163008,
            "time": 72.771186,
            "velocity": 0.4881889763779528
          },
          {
            "duration": 0.042856999999997925,
            "durationTicks": 96,
            "midi": 35,
            "name": "B1",
            "ticks": 163008,
            "time": 72.771186,
            "velocity": 0.4881889763779528
          },
          {
            "duration": 0.042856999999997925,
            "durationTicks": 96,
            "midi": 33,
            "name": "A1",
            "ticks": 164544,
            "time": 73.456898,
            "velocity": 0.4881889763779528
          },
          {
            "duration": 0.042856999999997925,
            "durationTicks": 96,
            "midi": 38,
            "name": "D2",
            "ticks": 164544,
            "time": 73.456898,
            "velocity": 0.4881889763779528
          },
          {
            "duration": 0.042856999999997925,
            "durationTicks": 96,
            "midi": 33,
            "name": "A1",
            "ticks": 164544,
            "time": 73.456898,
            "velocity": 0.4881889763779528
          },
          {
            "duration": 0.042856999999997925,
            "durationTicks": 96,
            "midi": 38,
            "name": "D2",
            "ticks": 164544,
            "time": 73.456898,
            "velocity": 0.4881889763779528
          },
          {
            "duration": 0.042856999999997925,
            "durationTicks": 96,
            "midi": 32,
            "name": "G#1",
            "ticks": 164544,
            "time": 73.456898,
            "velocity": 0.4881889763779528
          },
          {
            "duration": 0.042856999999997925,
            "durationTicks": 96,
            "midi": 40,
            "name": "E2",
            "ticks": 164544,
            "time": 73.456898,
            "velocity": 0.4881889763779528
          },
          {
            "duration": 0.042856999999997925,
            "durationTicks": 96,
            "midi": 33,
            "name": "A1",
            "ticks": 164544,
            "time": 73.456898,
            "velocity": 0.4881889763779528
          },
          {
            "duration": 0.042856999999997925,
            "durationTicks": 96,
            "midi": 40,
            "name": "E2",
            "ticks": 164544,
            "time": 73.456898,
            "velocity": 0.4881889763779528
          },
          {
            "duration": 0.042856999999997925,
            "durationTicks": 96,
            "midi": 40,
            "name": "E2",
            "ticks": 164544,
            "time": 73.456898,
            "velocity": 0.4881889763779528
          },
          {
            "duration": 0.042856999999997925,
            "durationTicks": 96,
            "midi": 32,
            "name": "G#1",
            "ticks": 164544,
            "time": 73.456898,
            "velocity": 0.4881889763779528
          },
          {
            "duration": 0.042856999999997925,
            "durationTicks": 96,
            "midi": 33,
            "name": "A1",
            "ticks": 164544,
            "time": 73.456898,
            "velocity": 0.4881889763779528
          },
          {
            "duration": 0.042856999999997925,
            "durationTicks": 96,
            "midi": 32,
            "name": "G#1",
            "ticks": 164544,
            "time": 73.456898,
            "velocity": 0.4881889763779528
          },
          {
            "duration": 0.042856999999997925,
            "durationTicks": 96,
            "midi": 32,
            "name": "G#1",
            "ticks": 164544,
            "time": 73.456898,
            "velocity": 0.4881889763779528
          },
          {
            "duration": 0.042856999999997925,
            "durationTicks": 96,
            "midi": 40,
            "name": "E2",
            "ticks": 164544,
            "time": 73.456898,
            "velocity": 0.4881889763779528
          },
          {
            "duration": 0.042856999999997925,
            "durationTicks": 96,
            "midi": 33,
            "name": "A1",
            "ticks": 164544,
            "time": 73.456898,
            "velocity": 0.4881889763779528
          },
          {
            "duration": 0.042856999999997925,
            "durationTicks": 96,
            "midi": 32,
            "name": "G#1",
            "ticks": 164544,
            "time": 73.456898,
            "velocity": 0.4881889763779528
          },
          {
            "duration": 0.042856999999997925,
            "durationTicks": 96,
            "midi": 33,
            "name": "A1",
            "ticks": 164544,
            "time": 73.456898,
            "velocity": 0.4881889763779528
          },
          {
            "duration": 0.042856999999997925,
            "durationTicks": 96,
            "midi": 33,
            "name": "A1",
            "ticks": 164544,
            "time": 73.456898,
            "velocity": 0.4881889763779528
          },
          {
            "duration": 0.042856999999997925,
            "durationTicks": 96,
            "midi": 38,
            "name": "D2",
            "ticks": 164544,
            "time": 73.456898,
            "velocity": 0.4881889763779528
          },
          {
            "duration": 0.042856999999997925,
            "durationTicks": 96,
            "midi": 38,
            "name": "D2",
            "ticks": 164544,
            "time": 73.456898,
            "velocity": 0.4881889763779528
          },
          {
            "duration": 0.042856999999997925,
            "durationTicks": 96,
            "midi": 33,
            "name": "A1",
            "ticks": 164544,
            "time": 73.456898,
            "velocity": 0.4881889763779528
          },
          {
            "duration": 0.042856999999997925,
            "durationTicks": 96,
            "midi": 33,
            "name": "A1",
            "ticks": 164544,
            "time": 73.456898,
            "velocity": 0.4881889763779528
          },
          {
            "duration": 0.042856999999997925,
            "durationTicks": 96,
            "midi": 32,
            "name": "G#1",
            "ticks": 164544,
            "time": 73.456898,
            "velocity": 0.4881889763779528
          },
          {
            "duration": 0.042856999999997925,
            "durationTicks": 96,
            "midi": 32,
            "name": "G#1",
            "ticks": 164544,
            "time": 73.456898,
            "velocity": 0.4881889763779528
          },
          {
            "duration": 0.042856999999997925,
            "durationTicks": 96,
            "midi": 33,
            "name": "A1",
            "ticks": 164544,
            "time": 73.456898,
            "velocity": 0.4881889763779528
          },
          {
            "duration": 0.042856999999997925,
            "durationTicks": 96,
            "midi": 32,
            "name": "G#1",
            "ticks": 164544,
            "time": 73.456898,
            "velocity": 0.4881889763779528
          },
          {
            "duration": 0.042856999999997925,
            "durationTicks": 96,
            "midi": 38,
            "name": "D2",
            "ticks": 164544,
            "time": 73.456898,
            "velocity": 0.4881889763779528
          },
          {
            "duration": 0.042856999999997925,
            "durationTicks": 96,
            "midi": 32,
            "name": "G#1",
            "ticks": 164544,
            "time": 73.456898,
            "velocity": 0.4881889763779528
          },
          {
            "duration": 0.042856999999997925,
            "durationTicks": 96,
            "midi": 32,
            "name": "G#1",
            "ticks": 164544,
            "time": 73.456898,
            "velocity": 0.4881889763779528
          },
          {
            "duration": 0.042856999999997925,
            "durationTicks": 96,
            "midi": 40,
            "name": "E2",
            "ticks": 164544,
            "time": 73.456898,
            "velocity": 0.4881889763779528
          },
          {
            "duration": 0.042856999999997925,
            "durationTicks": 96,
            "midi": 37,
            "name": "C#2",
            "ticks": 166080,
            "time": 74.14261,
            "velocity": 0.4881889763779528
          },
          {
            "duration": 0.042856999999997925,
            "durationTicks": 96,
            "midi": 37,
            "name": "C#2",
            "ticks": 166080,
            "time": 74.14261,
            "velocity": 0.4881889763779528
          },
          {
            "duration": 0.042856999999997925,
            "durationTicks": 96,
            "midi": 37,
            "name": "C#2",
            "ticks": 166080,
            "time": 74.14261,
            "velocity": 0.4881889763779528
          },
          {
            "duration": 0.042856999999997925,
            "durationTicks": 96,
            "midi": 35,
            "name": "B1",
            "ticks": 166080,
            "time": 74.14261,
            "velocity": 0.4881889763779528
          },
          {
            "duration": 0.042856999999997925,
            "durationTicks": 96,
            "midi": 37,
            "name": "C#2",
            "ticks": 166080,
            "time": 74.14261,
            "velocity": 0.4881889763779528
          },
          {
            "duration": 0.042856999999997925,
            "durationTicks": 96,
            "midi": 35,
            "name": "B1",
            "ticks": 166080,
            "time": 74.14261,
            "velocity": 0.4881889763779528
          },
          {
            "duration": 0.042856999999997925,
            "durationTicks": 96,
            "midi": 35,
            "name": "B1",
            "ticks": 166080,
            "time": 74.14261,
            "velocity": 0.4881889763779528
          },
          {
            "duration": 0.042856999999997925,
            "durationTicks": 96,
            "midi": 35,
            "name": "B1",
            "ticks": 166080,
            "time": 74.14261,
            "velocity": 0.4881889763779528
          },
          {
            "duration": 0.042856999999997925,
            "durationTicks": 96,
            "midi": 37,
            "name": "C#2",
            "ticks": 166080,
            "time": 74.14261,
            "velocity": 0.4881889763779528
          },
          {
            "duration": 0.042856999999997925,
            "durationTicks": 96,
            "midi": 37,
            "name": "C#2",
            "ticks": 166080,
            "time": 74.14261,
            "velocity": 0.4881889763779528
          },
          {
            "duration": 0.042856999999997925,
            "durationTicks": 96,
            "midi": 35,
            "name": "B1",
            "ticks": 166080,
            "time": 74.14261,
            "velocity": 0.4881889763779528
          },
          {
            "duration": 0.042856999999997925,
            "durationTicks": 96,
            "midi": 35,
            "name": "B1",
            "ticks": 166080,
            "time": 74.14261,
            "velocity": 0.4881889763779528
          },
          {
            "duration": 0.042857000000012135,
            "durationTicks": 96,
            "midi": 40,
            "name": "E2",
            "ticks": 168000,
            "time": 74.99974999999999,
            "velocity": 0.4881889763779528
          },
          {
            "duration": 0.042857000000012135,
            "durationTicks": 96,
            "midi": 38,
            "name": "D2",
            "ticks": 168000,
            "time": 74.99974999999999,
            "velocity": 0.4881889763779528
          },
          {
            "duration": 0.042857000000012135,
            "durationTicks": 96,
            "midi": 32,
            "name": "G#1",
            "ticks": 168000,
            "time": 74.99974999999999,
            "velocity": 0.4881889763779528
          },
          {
            "duration": 0.042857000000012135,
            "durationTicks": 96,
            "midi": 33,
            "name": "A1",
            "ticks": 168000,
            "time": 74.99974999999999,
            "velocity": 0.4881889763779528
          },
          {
            "duration": 0.042857000000012135,
            "durationTicks": 96,
            "midi": 32,
            "name": "G#1",
            "ticks": 168000,
            "time": 74.99974999999999,
            "velocity": 0.4881889763779528
          },
          {
            "duration": 0.042857000000012135,
            "durationTicks": 96,
            "midi": 38,
            "name": "D2",
            "ticks": 168000,
            "time": 74.99974999999999,
            "velocity": 0.4881889763779528
          },
          {
            "duration": 0.042857000000012135,
            "durationTicks": 96,
            "midi": 38,
            "name": "D2",
            "ticks": 168000,
            "time": 74.99974999999999,
            "velocity": 0.4881889763779528
          },
          {
            "duration": 0.042857000000012135,
            "durationTicks": 96,
            "midi": 40,
            "name": "E2",
            "ticks": 168000,
            "time": 74.99974999999999,
            "velocity": 0.4881889763779528
          },
          {
            "duration": 0.042857000000012135,
            "durationTicks": 96,
            "midi": 38,
            "name": "D2",
            "ticks": 168000,
            "time": 74.99974999999999,
            "velocity": 0.4881889763779528
          },
          {
            "duration": 0.042857000000012135,
            "durationTicks": 96,
            "midi": 33,
            "name": "A1",
            "ticks": 168000,
            "time": 74.99974999999999,
            "velocity": 0.4881889763779528
          },
          {
            "duration": 0.042857000000012135,
            "durationTicks": 96,
            "midi": 33,
            "name": "A1",
            "ticks": 168000,
            "time": 74.99974999999999,
            "velocity": 0.4881889763779528
          },
          {
            "duration": 0.042857000000012135,
            "durationTicks": 96,
            "midi": 32,
            "name": "G#1",
            "ticks": 168000,
            "time": 74.99974999999999,
            "velocity": 0.4881889763779528
          },
          {
            "duration": 0.042857000000012135,
            "durationTicks": 96,
            "midi": 40,
            "name": "E2",
            "ticks": 168000,
            "time": 74.99974999999999,
            "velocity": 0.4881889763779528
          },
          {
            "duration": 0.042857000000012135,
            "durationTicks": 96,
            "midi": 32,
            "name": "G#1",
            "ticks": 168000,
            "time": 74.99974999999999,
            "velocity": 0.4881889763779528
          },
          {
            "duration": 0.042857000000012135,
            "durationTicks": 96,
            "midi": 32,
            "name": "G#1",
            "ticks": 168000,
            "time": 74.99974999999999,
            "velocity": 0.4881889763779528
          },
          {
            "duration": 0.042857000000012135,
            "durationTicks": 96,
            "midi": 32,
            "name": "G#1",
            "ticks": 168000,
            "time": 74.99974999999999,
            "velocity": 0.4881889763779528
          },
          {
            "duration": 0.042857000000012135,
            "durationTicks": 96,
            "midi": 40,
            "name": "E2",
            "ticks": 168000,
            "time": 74.99974999999999,
            "velocity": 0.4881889763779528
          },
          {
            "duration": 0.042857000000012135,
            "durationTicks": 96,
            "midi": 32,
            "name": "G#1",
            "ticks": 168000,
            "time": 74.99974999999999,
            "velocity": 0.4881889763779528
          },
          {
            "duration": 0.042857000000012135,
            "durationTicks": 96,
            "midi": 40,
            "name": "E2",
            "ticks": 168000,
            "time": 74.99974999999999,
            "velocity": 0.4881889763779528
          },
          {
            "duration": 0.042857000000012135,
            "durationTicks": 96,
            "midi": 32,
            "name": "G#1",
            "ticks": 168000,
            "time": 74.99974999999999,
            "velocity": 0.4881889763779528
          },
          {
            "duration": 0.042857000000012135,
            "durationTicks": 96,
            "midi": 32,
            "name": "G#1",
            "ticks": 168000,
            "time": 74.99974999999999,
            "velocity": 0.4881889763779528
          },
          {
            "duration": 0.042857000000012135,
            "durationTicks": 96,
            "midi": 33,
            "name": "A1",
            "ticks": 168000,
            "time": 74.99974999999999,
            "velocity": 0.4881889763779528
          },
          {
            "duration": 0.042857000000012135,
            "durationTicks": 96,
            "midi": 33,
            "name": "A1",
            "ticks": 168000,
            "time": 74.99974999999999,
            "velocity": 0.4881889763779528
          },
          {
            "duration": 0.042857000000012135,
            "durationTicks": 96,
            "midi": 33,
            "name": "A1",
            "ticks": 168000,
            "time": 74.99974999999999,
            "velocity": 0.4881889763779528
          },
          {
            "duration": 0.042857000000012135,
            "durationTicks": 96,
            "midi": 33,
            "name": "A1",
            "ticks": 168000,
            "time": 74.99974999999999,
            "velocity": 0.4881889763779528
          },
          {
            "duration": 0.042857000000012135,
            "durationTicks": 96,
            "midi": 33,
            "name": "A1",
            "ticks": 168000,
            "time": 74.99974999999999,
            "velocity": 0.4881889763779528
          },
          {
            "duration": 0.042857000000012135,
            "durationTicks": 96,
            "midi": 32,
            "name": "G#1",
            "ticks": 168000,
            "time": 74.99974999999999,
            "velocity": 0.4881889763779528
          },
          {
            "duration": 0.042857000000012135,
            "durationTicks": 96,
            "midi": 33,
            "name": "A1",
            "ticks": 168000,
            "time": 74.99974999999999,
            "velocity": 0.4881889763779528
          },
          {
            "duration": 0.042857000000012135,
            "durationTicks": 96,
            "midi": 33,
            "name": "A1",
            "ticks": 168000,
            "time": 74.99974999999999,
            "velocity": 0.4881889763779528
          },
          {
            "duration": 0.042857000000012135,
            "durationTicks": 96,
            "midi": 38,
            "name": "D2",
            "ticks": 168000,
            "time": 74.99974999999999,
            "velocity": 0.4881889763779528
          },
          {
            "duration": 0.042856999999997925,
            "durationTicks": 96,
            "midi": 33,
            "name": "A1",
            "ticks": 168384,
            "time": 75.171178,
            "velocity": 0.4881889763779528
          },
          {
            "duration": 0.042856999999997925,
            "durationTicks": 96,
            "midi": 32,
            "name": "G#1",
            "ticks": 168384,
            "time": 75.171178,
            "velocity": 0.4881889763779528
          },
          {
            "duration": 0.042856999999997925,
            "durationTicks": 96,
            "midi": 33,
            "name": "A1",
            "ticks": 168384,
            "time": 75.171178,
            "velocity": 0.4881889763779528
          },
          {
            "duration": 0.042856999999997925,
            "durationTicks": 96,
            "midi": 32,
            "name": "G#1",
            "ticks": 168384,
            "time": 75.171178,
            "velocity": 0.4881889763779528
          },
          {
            "duration": 0.042856999999997925,
            "durationTicks": 96,
            "midi": 32,
            "name": "G#1",
            "ticks": 168384,
            "time": 75.171178,
            "velocity": 0.4881889763779528
          },
          {
            "duration": 0.042856999999997925,
            "durationTicks": 96,
            "midi": 33,
            "name": "A1",
            "ticks": 168384,
            "time": 75.171178,
            "velocity": 0.4881889763779528
          },
          {
            "duration": 0.042856999999997925,
            "durationTicks": 96,
            "midi": 33,
            "name": "A1",
            "ticks": 168384,
            "time": 75.171178,
            "velocity": 0.4881889763779528
          },
          {
            "duration": 0.042856999999997925,
            "durationTicks": 96,
            "midi": 38,
            "name": "D2",
            "ticks": 168384,
            "time": 75.171178,
            "velocity": 0.4881889763779528
          },
          {
            "duration": 0.042856999999997925,
            "durationTicks": 96,
            "midi": 32,
            "name": "G#1",
            "ticks": 168384,
            "time": 75.171178,
            "velocity": 0.4881889763779528
          },
          {
            "duration": 0.042856999999997925,
            "durationTicks": 96,
            "midi": 33,
            "name": "A1",
            "ticks": 168384,
            "time": 75.171178,
            "velocity": 0.4881889763779528
          },
          {
            "duration": 0.042856999999997925,
            "durationTicks": 96,
            "midi": 40,
            "name": "E2",
            "ticks": 168384,
            "time": 75.171178,
            "velocity": 0.4881889763779528
          },
          {
            "duration": 0.042856999999997925,
            "durationTicks": 96,
            "midi": 32,
            "name": "G#1",
            "ticks": 168384,
            "time": 75.171178,
            "velocity": 0.4881889763779528
          },
          {
            "duration": 0.042856999999997925,
            "durationTicks": 96,
            "midi": 40,
            "name": "E2",
            "ticks": 168384,
            "time": 75.171178,
            "velocity": 0.4881889763779528
          },
          {
            "duration": 0.042856999999997925,
            "durationTicks": 96,
            "midi": 33,
            "name": "A1",
            "ticks": 168384,
            "time": 75.171178,
            "velocity": 0.4881889763779528
          },
          {
            "duration": 0.042856999999997925,
            "durationTicks": 96,
            "midi": 32,
            "name": "G#1",
            "ticks": 168384,
            "time": 75.171178,
            "velocity": 0.4881889763779528
          },
          {
            "duration": 0.042856999999997925,
            "durationTicks": 96,
            "midi": 32,
            "name": "G#1",
            "ticks": 168384,
            "time": 75.171178,
            "velocity": 0.4881889763779528
          },
          {
            "duration": 0.042856999999997925,
            "durationTicks": 96,
            "midi": 40,
            "name": "E2",
            "ticks": 168384,
            "time": 75.171178,
            "velocity": 0.4881889763779528
          },
          {
            "duration": 0.042856999999997925,
            "durationTicks": 96,
            "midi": 38,
            "name": "D2",
            "ticks": 168384,
            "time": 75.171178,
            "velocity": 0.4881889763779528
          },
          {
            "duration": 0.042856999999997925,
            "durationTicks": 96,
            "midi": 33,
            "name": "A1",
            "ticks": 168384,
            "time": 75.171178,
            "velocity": 0.4881889763779528
          },
          {
            "duration": 0.042856999999997925,
            "durationTicks": 96,
            "midi": 38,
            "name": "D2",
            "ticks": 168384,
            "time": 75.171178,
            "velocity": 0.4881889763779528
          },
          {
            "duration": 0.042856999999997925,
            "durationTicks": 96,
            "midi": 33,
            "name": "A1",
            "ticks": 168384,
            "time": 75.171178,
            "velocity": 0.4881889763779528
          },
          {
            "duration": 0.042856999999997925,
            "durationTicks": 96,
            "midi": 33,
            "name": "A1",
            "ticks": 168384,
            "time": 75.171178,
            "velocity": 0.4881889763779528
          },
          {
            "duration": 0.042856999999997925,
            "durationTicks": 96,
            "midi": 32,
            "name": "G#1",
            "ticks": 168384,
            "time": 75.171178,
            "velocity": 0.4881889763779528
          },
          {
            "duration": 0.042856999999997925,
            "durationTicks": 96,
            "midi": 32,
            "name": "G#1",
            "ticks": 168384,
            "time": 75.171178,
            "velocity": 0.4881889763779528
          },
          {
            "duration": 0.042856999999997925,
            "durationTicks": 96,
            "midi": 32,
            "name": "G#1",
            "ticks": 168384,
            "time": 75.171178,
            "velocity": 0.4881889763779528
          },
          {
            "duration": 0.042856999999997925,
            "durationTicks": 96,
            "midi": 38,
            "name": "D2",
            "ticks": 168384,
            "time": 75.171178,
            "velocity": 0.4881889763779528
          },
          {
            "duration": 0.042856999999997925,
            "durationTicks": 96,
            "midi": 40,
            "name": "E2",
            "ticks": 168384,
            "time": 75.171178,
            "velocity": 0.4881889763779528
          },
          {
            "duration": 0.042856999999997925,
            "durationTicks": 96,
            "midi": 33,
            "name": "A1",
            "ticks": 168384,
            "time": 75.171178,
            "velocity": 0.4881889763779528
          },
          {
            "duration": 0.042856999999997925,
            "durationTicks": 96,
            "midi": 38,
            "name": "D2",
            "ticks": 168384,
            "time": 75.171178,
            "velocity": 0.4881889763779528
          },
          {
            "duration": 0.042856999999997925,
            "durationTicks": 96,
            "midi": 40,
            "name": "E2",
            "ticks": 168384,
            "time": 75.171178,
            "velocity": 0.4881889763779528
          },
          {
            "duration": 0.042856999999997925,
            "durationTicks": 96,
            "midi": 35,
            "name": "B1",
            "ticks": 169152,
            "time": 75.514034,
            "velocity": 0.4881889763779528
          },
          {
            "duration": 0.042856999999997925,
            "durationTicks": 96,
            "midi": 37,
            "name": "C#2",
            "ticks": 169152,
            "time": 75.514034,
            "velocity": 0.4881889763779528
          },
          {
            "duration": 0.042856999999997925,
            "durationTicks": 96,
            "midi": 35,
            "name": "B1",
            "ticks": 169152,
            "time": 75.514034,
            "velocity": 0.4881889763779528
          },
          {
            "duration": 0.042856999999997925,
            "durationTicks": 96,
            "midi": 35,
            "name": "B1",
            "ticks": 169152,
            "time": 75.514034,
            "velocity": 0.4881889763779528
          },
          {
            "duration": 0.042856999999997925,
            "durationTicks": 96,
            "midi": 37,
            "name": "C#2",
            "ticks": 169152,
            "time": 75.514034,
            "velocity": 0.4881889763779528
          },
          {
            "duration": 0.042856999999997925,
            "durationTicks": 96,
            "midi": 35,
            "name": "B1",
            "ticks": 169152,
            "time": 75.514034,
            "velocity": 0.4881889763779528
          },
          {
            "duration": 0.042856999999997925,
            "durationTicks": 96,
            "midi": 35,
            "name": "B1",
            "ticks": 169152,
            "time": 75.514034,
            "velocity": 0.4881889763779528
          },
          {
            "duration": 0.042856999999997925,
            "durationTicks": 96,
            "midi": 35,
            "name": "B1",
            "ticks": 169152,
            "time": 75.514034,
            "velocity": 0.4881889763779528
          },
          {
            "duration": 0.042856999999997925,
            "durationTicks": 96,
            "midi": 37,
            "name": "C#2",
            "ticks": 169152,
            "time": 75.514034,
            "velocity": 0.4881889763779528
          },
          {
            "duration": 0.042856999999997925,
            "durationTicks": 96,
            "midi": 37,
            "name": "C#2",
            "ticks": 169152,
            "time": 75.514034,
            "velocity": 0.4881889763779528
          },
          {
            "duration": 0.042856999999997925,
            "durationTicks": 96,
            "midi": 37,
            "name": "C#2",
            "ticks": 169152,
            "time": 75.514034,
            "velocity": 0.4881889763779528
          },
          {
            "duration": 0.042856999999997925,
            "durationTicks": 96,
            "midi": 37,
            "name": "C#2",
            "ticks": 169152,
            "time": 75.514034,
            "velocity": 0.4881889763779528
          },
          {
            "duration": 0.042856999999997925,
            "durationTicks": 96,
            "midi": 33,
            "name": "A1",
            "ticks": 170688,
            "time": 76.199746,
            "velocity": 0.4881889763779528
          },
          {
            "duration": 0.042856999999997925,
            "durationTicks": 96,
            "midi": 32,
            "name": "G#1",
            "ticks": 170688,
            "time": 76.199746,
            "velocity": 0.4881889763779528
          },
          {
            "duration": 0.042856999999997925,
            "durationTicks": 96,
            "midi": 32,
            "name": "G#1",
            "ticks": 170688,
            "time": 76.199746,
            "velocity": 0.4881889763779528
          },
          {
            "duration": 0.042856999999997925,
            "durationTicks": 96,
            "midi": 38,
            "name": "D2",
            "ticks": 170688,
            "time": 76.199746,
            "velocity": 0.4881889763779528
          },
          {
            "duration": 0.042856999999997925,
            "durationTicks": 96,
            "midi": 33,
            "name": "A1",
            "ticks": 170688,
            "time": 76.199746,
            "velocity": 0.4881889763779528
          },
          {
            "duration": 0.042856999999997925,
            "durationTicks": 96,
            "midi": 33,
            "name": "A1",
            "ticks": 170688,
            "time": 76.199746,
            "velocity": 0.4881889763779528
          },
          {
            "duration": 0.042856999999997925,
            "durationTicks": 96,
            "midi": 32,
            "name": "G#1",
            "ticks": 170688,
            "time": 76.199746,
            "velocity": 0.4881889763779528
          },
          {
            "duration": 0.042856999999997925,
            "durationTicks": 96,
            "midi": 33,
            "name": "A1",
            "ticks": 170688,
            "time": 76.199746,
            "velocity": 0.4881889763779528
          },
          {
            "duration": 0.042856999999997925,
            "durationTicks": 96,
            "midi": 32,
            "name": "G#1",
            "ticks": 170688,
            "time": 76.199746,
            "velocity": 0.4881889763779528
          },
          {
            "duration": 0.042856999999997925,
            "durationTicks": 96,
            "midi": 38,
            "name": "D2",
            "ticks": 170688,
            "time": 76.199746,
            "velocity": 0.4881889763779528
          },
          {
            "duration": 0.042856999999997925,
            "durationTicks": 96,
            "midi": 40,
            "name": "E2",
            "ticks": 170688,
            "time": 76.199746,
            "velocity": 0.4881889763779528
          },
          {
            "duration": 0.042856999999997925,
            "durationTicks": 96,
            "midi": 38,
            "name": "D2",
            "ticks": 170688,
            "time": 76.199746,
            "velocity": 0.4881889763779528
          },
          {
            "duration": 0.042856999999997925,
            "durationTicks": 96,
            "midi": 32,
            "name": "G#1",
            "ticks": 170688,
            "time": 76.199746,
            "velocity": 0.4881889763779528
          },
          {
            "duration": 0.042856999999997925,
            "durationTicks": 96,
            "midi": 40,
            "name": "E2",
            "ticks": 170688,
            "time": 76.199746,
            "velocity": 0.4881889763779528
          },
          {
            "duration": 0.042856999999997925,
            "durationTicks": 96,
            "midi": 38,
            "name": "D2",
            "ticks": 170688,
            "time": 76.199746,
            "velocity": 0.4881889763779528
          },
          {
            "duration": 0.042856999999997925,
            "durationTicks": 96,
            "midi": 33,
            "name": "A1",
            "ticks": 170688,
            "time": 76.199746,
            "velocity": 0.4881889763779528
          },
          {
            "duration": 0.042856999999997925,
            "durationTicks": 96,
            "midi": 38,
            "name": "D2",
            "ticks": 170688,
            "time": 76.199746,
            "velocity": 0.4881889763779528
          },
          {
            "duration": 0.042856999999997925,
            "durationTicks": 96,
            "midi": 32,
            "name": "G#1",
            "ticks": 170688,
            "time": 76.199746,
            "velocity": 0.4881889763779528
          },
          {
            "duration": 0.042856999999997925,
            "durationTicks": 96,
            "midi": 33,
            "name": "A1",
            "ticks": 170688,
            "time": 76.199746,
            "velocity": 0.4881889763779528
          },
          {
            "duration": 0.042856999999997925,
            "durationTicks": 96,
            "midi": 32,
            "name": "G#1",
            "ticks": 170688,
            "time": 76.199746,
            "velocity": 0.4881889763779528
          },
          {
            "duration": 0.042856999999997925,
            "durationTicks": 96,
            "midi": 32,
            "name": "G#1",
            "ticks": 170688,
            "time": 76.199746,
            "velocity": 0.4881889763779528
          },
          {
            "duration": 0.042856999999997925,
            "durationTicks": 96,
            "midi": 40,
            "name": "E2",
            "ticks": 170688,
            "time": 76.199746,
            "velocity": 0.4881889763779528
          },
          {
            "duration": 0.042856999999997925,
            "durationTicks": 96,
            "midi": 32,
            "name": "G#1",
            "ticks": 170688,
            "time": 76.199746,
            "velocity": 0.4881889763779528
          },
          {
            "duration": 0.042856999999997925,
            "durationTicks": 96,
            "midi": 32,
            "name": "G#1",
            "ticks": 170688,
            "time": 76.199746,
            "velocity": 0.4881889763779528
          },
          {
            "duration": 0.042856999999997925,
            "durationTicks": 96,
            "midi": 33,
            "name": "A1",
            "ticks": 170688,
            "time": 76.199746,
            "velocity": 0.4881889763779528
          },
          {
            "duration": 0.042856999999997925,
            "durationTicks": 96,
            "midi": 33,
            "name": "A1",
            "ticks": 170688,
            "time": 76.199746,
            "velocity": 0.4881889763779528
          },
          {
            "duration": 0.042856999999997925,
            "durationTicks": 96,
            "midi": 40,
            "name": "E2",
            "ticks": 170688,
            "time": 76.199746,
            "velocity": 0.4881889763779528
          },
          {
            "duration": 0.042856999999997925,
            "durationTicks": 96,
            "midi": 40,
            "name": "E2",
            "ticks": 170688,
            "time": 76.199746,
            "velocity": 0.4881889763779528
          },
          {
            "duration": 0.042856999999997925,
            "durationTicks": 96,
            "midi": 33,
            "name": "A1",
            "ticks": 170688,
            "time": 76.199746,
            "velocity": 0.4881889763779528
          },
          {
            "duration": 0.042856999999997925,
            "durationTicks": 96,
            "midi": 33,
            "name": "A1",
            "ticks": 170688,
            "time": 76.199746,
            "velocity": 0.4881889763779528
          },
          {
            "duration": 0.042856999999997925,
            "durationTicks": 96,
            "midi": 84,
            "name": "C6",
            "ticks": 176832,
            "time": 78.942594,
            "velocity": 0.4881889763779528
          },
          {
            "duration": 0.042856999999997925,
            "durationTicks": 96,
            "midi": 52,
            "name": "E3",
            "ticks": 176832,
            "time": 78.942594,
            "velocity": 0.4881889763779528
          },
          {
            "duration": 0.042856999999997925,
            "durationTicks": 96,
            "midi": 84,
            "name": "C6",
            "ticks": 176832,
            "time": 78.942594,
            "velocity": 0.4881889763779528
          },
          {
            "duration": 0.042856999999997925,
            "durationTicks": 96,
            "midi": 48,
            "name": "C3",
            "ticks": 176832,
            "time": 78.942594,
            "velocity": 0.4881889763779528
          },
          {
            "duration": 0.042856999999997925,
            "durationTicks": 96,
            "midi": 84,
            "name": "C6",
            "ticks": 176832,
            "time": 78.942594,
            "velocity": 0.4881889763779528
          },
          {
            "duration": 0.042856999999997925,
            "durationTicks": 96,
            "midi": 83,
            "name": "B5",
            "ticks": 176832,
            "time": 78.942594,
            "velocity": 0.4881889763779528
          },
          {
            "duration": 0.042856999999997925,
            "durationTicks": 96,
            "midi": 84,
            "name": "C6",
            "ticks": 176832,
            "time": 78.942594,
            "velocity": 0.4881889763779528
          },
          {
            "duration": 0.042856999999997925,
            "durationTicks": 96,
            "midi": 84,
            "name": "C6",
            "ticks": 176832,
            "time": 78.942594,
            "velocity": 0.4881889763779528
          },
          {
            "duration": 0.042856999999997925,
            "durationTicks": 96,
            "midi": 84,
            "name": "C6",
            "ticks": 176832,
            "time": 78.942594,
            "velocity": 0.4881889763779528
          },
          {
            "duration": 0.042856999999997925,
            "durationTicks": 96,
            "midi": 84,
            "name": "C6",
            "ticks": 180288,
            "time": 80.485446,
            "velocity": 0.4881889763779528
          },
          {
            "duration": 0.042856999999997925,
            "durationTicks": 96,
            "midi": 84,
            "name": "C6",
            "ticks": 180288,
            "time": 80.485446,
            "velocity": 0.4881889763779528
          },
          {
            "duration": 0.042856999999997925,
            "durationTicks": 96,
            "midi": 83,
            "name": "B5",
            "ticks": 180288,
            "time": 80.485446,
            "velocity": 0.4881889763779528
          },
          {
            "duration": 0.042856999999997925,
            "durationTicks": 96,
            "midi": 84,
            "name": "C6",
            "ticks": 180288,
            "time": 80.485446,
            "velocity": 0.4881889763779528
          },
          {
            "duration": 0.042856999999997925,
            "durationTicks": 96,
            "midi": 84,
            "name": "C6",
            "ticks": 180672,
            "time": 80.656874,
            "velocity": 0.4881889763779528
          },
          {
            "duration": 0.042856999999997925,
            "durationTicks": 96,
            "midi": 84,
            "name": "C6",
            "ticks": 180672,
            "time": 80.656874,
            "velocity": 0.4881889763779528
          },
          {
            "duration": 0.042856999999997925,
            "durationTicks": 96,
            "midi": 83,
            "name": "B5",
            "ticks": 180672,
            "time": 80.656874,
            "velocity": 0.4881889763779528
          },
          {
            "duration": 0.042856999999997925,
            "durationTicks": 96,
            "midi": 83,
            "name": "B5",
            "ticks": 182976,
            "time": 81.685442,
            "velocity": 0.4881889763779528
          },
          {
            "duration": 0.042856999999997925,
            "durationTicks": 96,
            "midi": 84,
            "name": "C6",
            "ticks": 182976,
            "time": 81.685442,
            "velocity": 0.4881889763779528
          },
          {
            "duration": 0.042856999999997925,
            "durationTicks": 96,
            "midi": 84,
            "name": "C6",
            "ticks": 182976,
            "time": 81.685442,
            "velocity": 0.4881889763779528
          },
          {
            "duration": 0.042856999999997925,
            "durationTicks": 96,
            "midi": 48,
            "name": "C3",
            "ticks": 182976,
            "time": 81.685442,
            "velocity": 0.4881889763779528
          },
          {
            "duration": 0.042856999999997925,
            "durationTicks": 96,
            "midi": 84,
            "name": "C6",
            "ticks": 182976,
            "time": 81.685442,
            "velocity": 0.4881889763779528
          },
          {
            "duration": 0.042856999999997925,
            "durationTicks": 96,
            "midi": 84,
            "name": "C6",
            "ticks": 182976,
            "time": 81.685442,
            "velocity": 0.4881889763779528
          },
          {
            "duration": 0.042856999999997925,
            "durationTicks": 96,
            "midi": 52,
            "name": "E3",
            "ticks": 182976,
            "time": 81.685442,
            "velocity": 0.4881889763779528
          },
          {
            "duration": 0.042856999999997925,
            "durationTicks": 96,
            "midi": 84,
            "name": "C6",
            "ticks": 182976,
            "time": 81.685442,
            "velocity": 0.4881889763779528
          },
          {
            "duration": 0.042856999999997925,
            "durationTicks": 96,
            "midi": 84,
            "name": "C6",
            "ticks": 182976,
            "time": 81.685442,
            "velocity": 0.4881889763779528
          },
          {
            "duration": 0.042856999999997925,
            "durationTicks": 96,
            "midi": 84,
            "name": "C6",
            "ticks": 186432,
            "time": 83.228294,
            "velocity": 0.4881889763779528
          },
          {
            "duration": 0.042856999999997925,
            "durationTicks": 96,
            "midi": 83,
            "name": "B5",
            "ticks": 186432,
            "time": 83.228294,
            "velocity": 0.4881889763779528
          },
          {
            "duration": 0.042856999999997925,
            "durationTicks": 96,
            "midi": 84,
            "name": "C6",
            "ticks": 186432,
            "time": 83.228294,
            "velocity": 0.4881889763779528
          },
          {
            "duration": 0.042856999999997925,
            "durationTicks": 96,
            "midi": 84,
            "name": "C6",
            "ticks": 186432,
            "time": 83.228294,
            "velocity": 0.4881889763779528
          },
          {
            "duration": 0.042856999999997925,
            "durationTicks": 96,
            "midi": 84,
            "name": "C6",
            "ticks": 186816,
            "time": 83.399722,
            "velocity": 0.4881889763779528
          },
          {
            "duration": 0.042856999999997925,
            "durationTicks": 96,
            "midi": 84,
            "name": "C6",
            "ticks": 186816,
            "time": 83.399722,
            "velocity": 0.4881889763779528
          },
          {
            "duration": 0.042856999999997925,
            "durationTicks": 96,
            "midi": 83,
            "name": "B5",
            "ticks": 186816,
            "time": 83.399722,
            "velocity": 0.4881889763779528
          },
          {
            "duration": 0.042856999999997925,
            "durationTicks": 96,
            "midi": 84,
            "name": "C6",
            "ticks": 189120,
            "time": 84.42829,
            "velocity": 0.4881889763779528
          },
          {
            "duration": 0.042856999999997925,
            "durationTicks": 96,
            "midi": 84,
            "name": "C6",
            "ticks": 189120,
            "time": 84.42829,
            "velocity": 0.4881889763779528
          },
          {
            "duration": 0.042856999999997925,
            "durationTicks": 96,
            "midi": 83,
            "name": "B5",
            "ticks": 189120,
            "time": 84.42829,
            "velocity": 0.4881889763779528
          },
          {
            "duration": 0.042856999999997925,
            "durationTicks": 96,
            "midi": 84,
            "name": "C6",
            "ticks": 189120,
            "time": 84.42829,
            "velocity": 0.4881889763779528
          },
          {
            "duration": 0.042856999999997925,
            "durationTicks": 96,
            "midi": 84,
            "name": "C6",
            "ticks": 189120,
            "time": 84.42829,
            "velocity": 0.4881889763779528
          },
          {
            "duration": 0.042856999999997925,
            "durationTicks": 96,
            "midi": 48,
            "name": "C3",
            "ticks": 189120,
            "time": 84.42829,
            "velocity": 0.4881889763779528
          },
          {
            "duration": 0.042856999999997925,
            "durationTicks": 96,
            "midi": 52,
            "name": "E3",
            "ticks": 189120,
            "time": 84.42829,
            "velocity": 0.4881889763779528
          },
          {
            "duration": 0.042856999999997925,
            "durationTicks": 96,
            "midi": 84,
            "name": "C6",
            "ticks": 189120,
            "time": 84.42829,
            "velocity": 0.4881889763779528
          },
          {
            "duration": 0.042856999999997925,
            "durationTicks": 96,
            "midi": 84,
            "name": "C6",
            "ticks": 189120,
            "time": 84.42829,
            "velocity": 0.4881889763779528
          },
          {
            "duration": 0.042856999999997925,
            "durationTicks": 96,
            "midi": 84,
            "name": "C6",
            "ticks": 192576,
            "time": 85.971142,
            "velocity": 0.4881889763779528
          },
          {
            "duration": 0.042856999999997925,
            "durationTicks": 96,
            "midi": 84,
            "name": "C6",
            "ticks": 192576,
            "time": 85.971142,
            "velocity": 0.4881889763779528
          },
          {
            "duration": 0.042856999999997925,
            "durationTicks": 96,
            "midi": 84,
            "name": "C6",
            "ticks": 192576,
            "time": 85.971142,
            "velocity": 0.4881889763779528
          },
          {
            "duration": 0.042856999999997925,
            "durationTicks": 96,
            "midi": 83,
            "name": "B5",
            "ticks": 192576,
            "time": 85.971142,
            "velocity": 0.4881889763779528
          },
          {
            "duration": 0.042857000000012135,
            "durationTicks": 96,
            "midi": 84,
            "name": "C6",
            "ticks": 192960,
            "time": 86.14256999999999,
            "velocity": 0.4881889763779528
          },
          {
            "duration": 0.042857000000012135,
            "durationTicks": 96,
            "midi": 83,
            "name": "B5",
            "ticks": 192960,
            "time": 86.14256999999999,
            "velocity": 0.4881889763779528
          },
          {
            "duration": 0.042857000000012135,
            "durationTicks": 96,
            "midi": 84,
            "name": "C6",
            "ticks": 192960,
            "time": 86.14256999999999,
            "velocity": 0.4881889763779528
          },
          {
            "duration": 0.042856999999997925,
            "durationTicks": 96,
            "midi": 84,
            "name": "C6",
            "ticks": 195264,
            "time": 87.171138,
            "velocity": 0.4881889763779528
          },
          {
            "duration": 0.042856999999997925,
            "durationTicks": 96,
            "midi": 83,
            "name": "B5",
            "ticks": 195264,
            "time": 87.171138,
            "velocity": 0.4881889763779528
          },
          {
            "duration": 0.042856999999997925,
            "durationTicks": 96,
            "midi": 48,
            "name": "C3",
            "ticks": 195264,
            "time": 87.171138,
            "velocity": 0.4881889763779528
          },
          {
            "duration": 0.042856999999997925,
            "durationTicks": 96,
            "midi": 84,
            "name": "C6",
            "ticks": 195264,
            "time": 87.171138,
            "velocity": 0.4881889763779528
          },
          {
            "duration": 0.042856999999997925,
            "durationTicks": 96,
            "midi": 52,
            "name": "E3",
            "ticks": 195264,
            "time": 87.171138,
            "velocity": 0.4881889763779528
          },
          {
            "duration": 0.042856999999997925,
            "durationTicks": 96,
            "midi": 84,
            "name": "C6",
            "ticks": 195264,
            "time": 87.171138,
            "velocity": 0.4881889763779528
          },
          {
            "duration": 0.042856999999997925,
            "durationTicks": 96,
            "midi": 84,
            "name": "C6",
            "ticks": 195264,
            "time": 87.171138,
            "velocity": 0.4881889763779528
          },
          {
            "duration": 0.042856999999997925,
            "durationTicks": 96,
            "midi": 84,
            "name": "C6",
            "ticks": 195264,
            "time": 87.171138,
            "velocity": 0.4881889763779528
          },
          {
            "duration": 0.042856999999997925,
            "durationTicks": 96,
            "midi": 84,
            "name": "C6",
            "ticks": 195264,
            "time": 87.171138,
            "velocity": 0.4881889763779528
          },
          {
            "duration": 0.042856999999997925,
            "durationTicks": 96,
            "midi": 84,
            "name": "C6",
            "ticks": 198720,
            "time": 88.71399,
            "velocity": 0.4881889763779528
          },
          {
            "duration": 0.042856999999997925,
            "durationTicks": 96,
            "midi": 83,
            "name": "B5",
            "ticks": 198720,
            "time": 88.71399,
            "velocity": 0.4881889763779528
          },
          {
            "duration": 0.042856999999997925,
            "durationTicks": 96,
            "midi": 84,
            "name": "C6",
            "ticks": 198720,
            "time": 88.71399,
            "velocity": 0.4881889763779528
          },
          {
            "duration": 0.042856999999997925,
            "durationTicks": 96,
            "midi": 84,
            "name": "C6",
            "ticks": 198720,
            "time": 88.71399,
            "velocity": 0.4881889763779528
          },
          {
            "duration": 0.042856999999997925,
            "durationTicks": 96,
            "midi": 84,
            "name": "C6",
            "ticks": 199104,
            "time": 88.885418,
            "velocity": 0.4881889763779528
          },
          {
            "duration": 0.042856999999997925,
            "durationTicks": 96,
            "midi": 84,
            "name": "C6",
            "ticks": 199104,
            "time": 88.885418,
            "velocity": 0.4881889763779528
          },
          {
            "duration": 0.042856999999997925,
            "durationTicks": 96,
            "midi": 83,
            "name": "B5",
            "ticks": 199104,
            "time": 88.885418,
            "velocity": 0.4881889763779528
          },
          {
            "duration": 0.042856999999997925,
            "durationTicks": 96,
            "midi": 40,
            "name": "E2",
            "ticks": 201408,
            "time": 89.913986,
            "velocity": 0.4881889763779528
          },
          {
            "duration": 0.042856999999997925,
            "durationTicks": 96,
            "midi": 33,
            "name": "A1",
            "ticks": 201408,
            "time": 89.913986,
            "velocity": 0.4881889763779528
          },
          {
            "duration": 0.042856999999997925,
            "durationTicks": 96,
            "midi": 33,
            "name": "A1",
            "ticks": 201408,
            "time": 89.913986,
            "velocity": 0.4881889763779528
          },
          {
            "duration": 0.042856999999997925,
            "durationTicks": 96,
            "midi": 32,
            "name": "G#1",
            "ticks": 201408,
            "time": 89.913986,
            "velocity": 0.4881889763779528
          },
          {
            "duration": 0.042856999999997925,
            "durationTicks": 96,
            "midi": 32,
            "name": "G#1",
            "ticks": 201408,
            "time": 89.913986,
            "velocity": 0.4881889763779528
          },
          {
            "duration": 0.042856999999997925,
            "durationTicks": 96,
            "midi": 32,
            "name": "G#1",
            "ticks": 201408,
            "time": 89.913986,
            "velocity": 0.4881889763779528
          },
          {
            "duration": 0.042856999999997925,
            "durationTicks": 96,
            "midi": 32,
            "name": "G#1",
            "ticks": 201408,
            "time": 89.913986,
            "velocity": 0.4881889763779528
          },
          {
            "duration": 0.042856999999997925,
            "durationTicks": 96,
            "midi": 32,
            "name": "G#1",
            "ticks": 201408,
            "time": 89.913986,
            "velocity": 0.4881889763779528
          },
          {
            "duration": 0.042856999999997925,
            "durationTicks": 96,
            "midi": 33,
            "name": "A1",
            "ticks": 201408,
            "time": 89.913986,
            "velocity": 0.4881889763779528
          },
          {
            "duration": 0.042856999999997925,
            "durationTicks": 96,
            "midi": 33,
            "name": "A1",
            "ticks": 201408,
            "time": 89.913986,
            "velocity": 0.4881889763779528
          },
          {
            "duration": 0.042856999999997925,
            "durationTicks": 96,
            "midi": 38,
            "name": "D2",
            "ticks": 201408,
            "time": 89.913986,
            "velocity": 0.4881889763779528
          },
          {
            "duration": 0.042856999999997925,
            "durationTicks": 96,
            "midi": 38,
            "name": "D2",
            "ticks": 201408,
            "time": 89.913986,
            "velocity": 0.4881889763779528
          },
          {
            "duration": 0.042856999999997925,
            "durationTicks": 96,
            "midi": 38,
            "name": "D2",
            "ticks": 201408,
            "time": 89.913986,
            "velocity": 0.4881889763779528
          },
          {
            "duration": 0.042856999999997925,
            "durationTicks": 96,
            "midi": 32,
            "name": "G#1",
            "ticks": 201408,
            "time": 89.913986,
            "velocity": 0.4881889763779528
          },
          {
            "duration": 0.042856999999997925,
            "durationTicks": 96,
            "midi": 40,
            "name": "E2",
            "ticks": 201408,
            "time": 89.913986,
            "velocity": 0.4881889763779528
          },
          {
            "duration": 0.042856999999997925,
            "durationTicks": 96,
            "midi": 48,
            "name": "C3",
            "ticks": 201408,
            "time": 89.913986,
            "velocity": 0.4881889763779528
          },
          {
            "duration": 0.042856999999997925,
            "durationTicks": 96,
            "midi": 33,
            "name": "A1",
            "ticks": 201408,
            "time": 89.913986,
            "velocity": 0.4881889763779528
          },
          {
            "duration": 0.042856999999997925,
            "durationTicks": 96,
            "midi": 54,
            "name": "F#3",
            "ticks": 201408,
            "time": 89.913986,
            "velocity": 0.4881889763779528
          },
          {
            "duration": 0.042856999999997925,
            "durationTicks": 96,
            "midi": 38,
            "name": "D2",
            "ticks": 201408,
            "time": 89.913986,
            "velocity": 0.4881889763779528
          },
          {
            "duration": 0.042856999999997925,
            "durationTicks": 96,
            "midi": 40,
            "name": "E2",
            "ticks": 201408,
            "time": 89.913986,
            "velocity": 0.4881889763779528
          },
          {
            "duration": 0.042856999999997925,
            "durationTicks": 96,
            "midi": 40,
            "name": "E2",
            "ticks": 201408,
            "time": 89.913986,
            "velocity": 0.4881889763779528
          },
          {
            "duration": 0.042856999999997925,
            "durationTicks": 96,
            "midi": 52,
            "name": "E3",
            "ticks": 201408,
            "time": 89.913986,
            "velocity": 0.4881889763779528
          },
          {
            "duration": 0.042856999999997925,
            "durationTicks": 96,
            "midi": 33,
            "name": "A1",
            "ticks": 201408,
            "time": 89.913986,
            "velocity": 0.4881889763779528
          },
          {
            "duration": 0.042856999999997925,
            "durationTicks": 96,
            "midi": 32,
            "name": "G#1",
            "ticks": 201408,
            "time": 89.913986,
            "velocity": 0.4881889763779528
          },
          {
            "duration": 0.042856999999997925,
            "durationTicks": 96,
            "midi": 32,
            "name": "G#1",
            "ticks": 201408,
            "time": 89.913986,
            "velocity": 0.4881889763779528
          },
          {
            "duration": 0.042856999999997925,
            "durationTicks": 96,
            "midi": 32,
            "name": "G#1",
            "ticks": 201408,
            "time": 89.913986,
            "velocity": 0.4881889763779528
          },
          {
            "duration": 0.042856999999997925,
            "durationTicks": 96,
            "midi": 33,
            "name": "A1",
            "ticks": 201408,
            "time": 89.913986,
            "velocity": 0.4881889763779528
          },
          {
            "duration": 0.042856999999997925,
            "durationTicks": 96,
            "midi": 33,
            "name": "A1",
            "ticks": 201408,
            "time": 89.913986,
            "velocity": 0.4881889763779528
          },
          {
            "duration": 0.042856999999997925,
            "durationTicks": 96,
            "midi": 46,
            "name": "A#2",
            "ticks": 201408,
            "time": 89.913986,
            "velocity": 0.4881889763779528
          },
          {
            "duration": 0.042856999999997925,
            "durationTicks": 96,
            "midi": 32,
            "name": "G#1",
            "ticks": 201408,
            "time": 89.913986,
            "velocity": 0.4881889763779528
          },
          {
            "duration": 0.042856999999997925,
            "durationTicks": 96,
            "midi": 33,
            "name": "A1",
            "ticks": 201408,
            "time": 89.913986,
            "velocity": 0.4881889763779528
          },
          {
            "duration": 0.042856999999997925,
            "durationTicks": 96,
            "midi": 38,
            "name": "D2",
            "ticks": 201408,
            "time": 89.913986,
            "velocity": 0.4881889763779528
          },
          {
            "duration": 0.042856999999997925,
            "durationTicks": 96,
            "midi": 40,
            "name": "E2",
            "ticks": 201408,
            "time": 89.913986,
            "velocity": 0.4881889763779528
          },
          {
            "duration": 0.042856999999997925,
            "durationTicks": 96,
            "midi": 33,
            "name": "A1",
            "ticks": 201408,
            "time": 89.913986,
            "velocity": 0.4881889763779528
          },
          {
            "duration": 0.042856999999997925,
            "durationTicks": 96,
            "midi": 37,
            "name": "C#2",
            "ticks": 202944,
            "time": 90.599698,
            "velocity": 0.4881889763779528
          },
          {
            "duration": 0.042856999999997925,
            "durationTicks": 96,
            "midi": 35,
            "name": "B1",
            "ticks": 202944,
            "time": 90.599698,
            "velocity": 0.4881889763779528
          },
          {
            "duration": 0.042856999999997925,
            "durationTicks": 96,
            "midi": 37,
            "name": "C#2",
            "ticks": 202944,
            "time": 90.599698,
            "velocity": 0.4881889763779528
          },
          {
            "duration": 0.042856999999997925,
            "durationTicks": 96,
            "midi": 35,
            "name": "B1",
            "ticks": 202944,
            "time": 90.599698,
            "velocity": 0.4881889763779528
          },
          {
            "duration": 0.042856999999997925,
            "durationTicks": 96,
            "midi": 37,
            "name": "C#2",
            "ticks": 202944,
            "time": 90.599698,
            "velocity": 0.4881889763779528
          },
          {
            "duration": 0.042856999999997925,
            "durationTicks": 96,
            "midi": 37,
            "name": "C#2",
            "ticks": 202944,
            "time": 90.599698,
            "velocity": 0.4881889763779528
          },
          {
            "duration": 0.042856999999997925,
            "durationTicks": 96,
            "midi": 35,
            "name": "B1",
            "ticks": 202944,
            "time": 90.599698,
            "velocity": 0.4881889763779528
          },
          {
            "duration": 0.042856999999997925,
            "durationTicks": 96,
            "midi": 37,
            "name": "C#2",
            "ticks": 202944,
            "time": 90.599698,
            "velocity": 0.4881889763779528
          },
          {
            "duration": 0.042856999999997925,
            "durationTicks": 96,
            "midi": 35,
            "name": "B1",
            "ticks": 202944,
            "time": 90.599698,
            "velocity": 0.4881889763779528
          },
          {
            "duration": 0.042856999999997925,
            "durationTicks": 96,
            "midi": 35,
            "name": "B1",
            "ticks": 202944,
            "time": 90.599698,
            "velocity": 0.4881889763779528
          },
          {
            "duration": 0.042856999999997925,
            "durationTicks": 96,
            "midi": 37,
            "name": "C#2",
            "ticks": 202944,
            "time": 90.599698,
            "velocity": 0.4881889763779528
          },
          {
            "duration": 0.042856999999997925,
            "durationTicks": 96,
            "midi": 35,
            "name": "B1",
            "ticks": 202944,
            "time": 90.599698,
            "velocity": 0.4881889763779528
          },
          {
            "duration": 0.042856999999997925,
            "durationTicks": 96,
            "midi": 32,
            "name": "G#1",
            "ticks": 204864,
            "time": 91.456838,
            "velocity": 0.4881889763779528
          },
          {
            "duration": 0.042856999999997925,
            "durationTicks": 96,
            "midi": 38,
            "name": "D2",
            "ticks": 204864,
            "time": 91.456838,
            "velocity": 0.4881889763779528
          },
          {
            "duration": 0.042856999999997925,
            "durationTicks": 96,
            "midi": 32,
            "name": "G#1",
            "ticks": 204864,
            "time": 91.456838,
            "velocity": 0.4881889763779528
          },
          {
            "duration": 0.042856999999997925,
            "durationTicks": 96,
            "midi": 33,
            "name": "A1",
            "ticks": 204864,
            "time": 91.456838,
            "velocity": 0.4881889763779528
          },
          {
            "duration": 0.042856999999997925,
            "durationTicks": 96,
            "midi": 40,
            "name": "E2",
            "ticks": 204864,
            "time": 91.456838,
            "velocity": 0.4881889763779528
          },
          {
            "duration": 0.042856999999997925,
            "durationTicks": 96,
            "midi": 40,
            "name": "E2",
            "ticks": 204864,
            "time": 91.456838,
            "velocity": 0.4881889763779528
          },
          {
            "duration": 0.042856999999997925,
            "durationTicks": 96,
            "midi": 32,
            "name": "G#1",
            "ticks": 204864,
            "time": 91.456838,
            "velocity": 0.4881889763779528
          },
          {
            "duration": 0.042856999999997925,
            "durationTicks": 96,
            "midi": 40,
            "name": "E2",
            "ticks": 204864,
            "time": 91.456838,
            "velocity": 0.4881889763779528
          },
          {
            "duration": 0.042856999999997925,
            "durationTicks": 96,
            "midi": 33,
            "name": "A1",
            "ticks": 204864,
            "time": 91.456838,
            "velocity": 0.4881889763779528
          },
          {
            "duration": 0.042856999999997925,
            "durationTicks": 96,
            "midi": 33,
            "name": "A1",
            "ticks": 204864,
            "time": 91.456838,
            "velocity": 0.4881889763779528
          },
          {
            "duration": 0.042856999999997925,
            "durationTicks": 96,
            "midi": 32,
            "name": "G#1",
            "ticks": 204864,
            "time": 91.456838,
            "velocity": 0.4881889763779528
          },
          {
            "duration": 0.042856999999997925,
            "durationTicks": 96,
            "midi": 33,
            "name": "A1",
            "ticks": 204864,
            "time": 91.456838,
            "velocity": 0.4881889763779528
          },
          {
            "duration": 0.042856999999997925,
            "durationTicks": 96,
            "midi": 38,
            "name": "D2",
            "ticks": 204864,
            "time": 91.456838,
            "velocity": 0.4881889763779528
          },
          {
            "duration": 0.042856999999997925,
            "durationTicks": 96,
            "midi": 32,
            "name": "G#1",
            "ticks": 204864,
            "time": 91.456838,
            "velocity": 0.4881889763779528
          },
          {
            "duration": 0.042856999999997925,
            "durationTicks": 96,
            "midi": 32,
            "name": "G#1",
            "ticks": 204864,
            "time": 91.456838,
            "velocity": 0.4881889763779528
          },
          {
            "duration": 0.042856999999997925,
            "durationTicks": 96,
            "midi": 38,
            "name": "D2",
            "ticks": 204864,
            "time": 91.456838,
            "velocity": 0.4881889763779528
          },
          {
            "duration": 0.042856999999997925,
            "durationTicks": 96,
            "midi": 33,
            "name": "A1",
            "ticks": 204864,
            "time": 91.456838,
            "velocity": 0.4881889763779528
          },
          {
            "duration": 0.042856999999997925,
            "durationTicks": 96,
            "midi": 32,
            "name": "G#1",
            "ticks": 204864,
            "time": 91.456838,
            "velocity": 0.4881889763779528
          },
          {
            "duration": 0.042856999999997925,
            "durationTicks": 96,
            "midi": 33,
            "name": "A1",
            "ticks": 204864,
            "time": 91.456838,
            "velocity": 0.4881889763779528
          },
          {
            "duration": 0.042856999999997925,
            "durationTicks": 96,
            "midi": 32,
            "name": "G#1",
            "ticks": 204864,
            "time": 91.456838,
            "velocity": 0.4881889763779528
          },
          {
            "duration": 0.042856999999997925,
            "durationTicks": 96,
            "midi": 32,
            "name": "G#1",
            "ticks": 204864,
            "time": 91.456838,
            "velocity": 0.4881889763779528
          },
          {
            "duration": 0.042856999999997925,
            "durationTicks": 96,
            "midi": 33,
            "name": "A1",
            "ticks": 204864,
            "time": 91.456838,
            "velocity": 0.4881889763779528
          },
          {
            "duration": 0.042856999999997925,
            "durationTicks": 96,
            "midi": 38,
            "name": "D2",
            "ticks": 204864,
            "time": 91.456838,
            "velocity": 0.4881889763779528
          },
          {
            "duration": 0.042856999999997925,
            "durationTicks": 96,
            "midi": 40,
            "name": "E2",
            "ticks": 204864,
            "time": 91.456838,
            "velocity": 0.4881889763779528
          },
          {
            "duration": 0.042856999999997925,
            "durationTicks": 96,
            "midi": 33,
            "name": "A1",
            "ticks": 204864,
            "time": 91.456838,
            "velocity": 0.4881889763779528
          },
          {
            "duration": 0.042856999999997925,
            "durationTicks": 96,
            "midi": 33,
            "name": "A1",
            "ticks": 204864,
            "time": 91.456838,
            "velocity": 0.4881889763779528
          },
          {
            "duration": 0.042856999999997925,
            "durationTicks": 96,
            "midi": 32,
            "name": "G#1",
            "ticks": 204864,
            "time": 91.456838,
            "velocity": 0.4881889763779528
          },
          {
            "duration": 0.042856999999997925,
            "durationTicks": 96,
            "midi": 33,
            "name": "A1",
            "ticks": 204864,
            "time": 91.456838,
            "velocity": 0.4881889763779528
          },
          {
            "duration": 0.042856999999997925,
            "durationTicks": 96,
            "midi": 38,
            "name": "D2",
            "ticks": 204864,
            "time": 91.456838,
            "velocity": 0.4881889763779528
          },
          {
            "duration": 0.042856999999997925,
            "durationTicks": 96,
            "midi": 40,
            "name": "E2",
            "ticks": 204864,
            "time": 91.456838,
            "velocity": 0.4881889763779528
          },
          {
            "duration": 0.042856999999997925,
            "durationTicks": 96,
            "midi": 32,
            "name": "G#1",
            "ticks": 205248,
            "time": 91.628266,
            "velocity": 0.4881889763779528
          },
          {
            "duration": 0.042856999999997925,
            "durationTicks": 96,
            "midi": 32,
            "name": "G#1",
            "ticks": 205248,
            "time": 91.628266,
            "velocity": 0.4881889763779528
          },
          {
            "duration": 0.042856999999997925,
            "durationTicks": 96,
            "midi": 33,
            "name": "A1",
            "ticks": 205248,
            "time": 91.628266,
            "velocity": 0.4881889763779528
          },
          {
            "duration": 0.042856999999997925,
            "durationTicks": 96,
            "midi": 32,
            "name": "G#1",
            "ticks": 205248,
            "time": 91.628266,
            "velocity": 0.4881889763779528
          },
          {
            "duration": 0.042856999999997925,
            "durationTicks": 96,
            "midi": 32,
            "name": "G#1",
            "ticks": 205248,
            "time": 91.628266,
            "velocity": 0.4881889763779528
          },
          {
            "duration": 0.042856999999997925,
            "durationTicks": 96,
            "midi": 33,
            "name": "A1",
            "ticks": 205248,
            "time": 91.628266,
            "velocity": 0.4881889763779528
          },
          {
            "duration": 0.042856999999997925,
            "durationTicks": 96,
            "midi": 40,
            "name": "E2",
            "ticks": 205248,
            "time": 91.628266,
            "velocity": 0.4881889763779528
          },
          {
            "duration": 0.042856999999997925,
            "durationTicks": 96,
            "midi": 33,
            "name": "A1",
            "ticks": 205248,
            "time": 91.628266,
            "velocity": 0.4881889763779528
          },
          {
            "duration": 0.042856999999997925,
            "durationTicks": 96,
            "midi": 40,
            "name": "E2",
            "ticks": 205248,
            "time": 91.628266,
            "velocity": 0.4881889763779528
          },
          {
            "duration": 0.042856999999997925,
            "durationTicks": 96,
            "midi": 32,
            "name": "G#1",
            "ticks": 205248,
            "time": 91.628266,
            "velocity": 0.4881889763779528
          },
          {
            "duration": 0.042856999999997925,
            "durationTicks": 96,
            "midi": 40,
            "name": "E2",
            "ticks": 205248,
            "time": 91.628266,
            "velocity": 0.4881889763779528
          },
          {
            "duration": 0.042856999999997925,
            "durationTicks": 96,
            "midi": 32,
            "name": "G#1",
            "ticks": 205248,
            "time": 91.628266,
            "velocity": 0.4881889763779528
          },
          {
            "duration": 0.042856999999997925,
            "durationTicks": 96,
            "midi": 40,
            "name": "E2",
            "ticks": 205248,
            "time": 91.628266,
            "velocity": 0.4881889763779528
          },
          {
            "duration": 0.042856999999997925,
            "durationTicks": 96,
            "midi": 32,
            "name": "G#1",
            "ticks": 205248,
            "time": 91.628266,
            "velocity": 0.4881889763779528
          },
          {
            "duration": 0.042856999999997925,
            "durationTicks": 96,
            "midi": 38,
            "name": "D2",
            "ticks": 205248,
            "time": 91.628266,
            "velocity": 0.4881889763779528
          },
          {
            "duration": 0.042856999999997925,
            "durationTicks": 96,
            "midi": 33,
            "name": "A1",
            "ticks": 205248,
            "time": 91.628266,
            "velocity": 0.4881889763779528
          },
          {
            "duration": 0.042856999999997925,
            "durationTicks": 96,
            "midi": 33,
            "name": "A1",
            "ticks": 205248,
            "time": 91.628266,
            "velocity": 0.4881889763779528
          },
          {
            "duration": 0.042856999999997925,
            "durationTicks": 96,
            "midi": 32,
            "name": "G#1",
            "ticks": 205248,
            "time": 91.628266,
            "velocity": 0.4881889763779528
          },
          {
            "duration": 0.042856999999997925,
            "durationTicks": 96,
            "midi": 40,
            "name": "E2",
            "ticks": 205248,
            "time": 91.628266,
            "velocity": 0.4881889763779528
          },
          {
            "duration": 0.042856999999997925,
            "durationTicks": 96,
            "midi": 38,
            "name": "D2",
            "ticks": 205248,
            "time": 91.628266,
            "velocity": 0.4881889763779528
          },
          {
            "duration": 0.042856999999997925,
            "durationTicks": 96,
            "midi": 33,
            "name": "A1",
            "ticks": 205248,
            "time": 91.628266,
            "velocity": 0.4881889763779528
          },
          {
            "duration": 0.042856999999997925,
            "durationTicks": 96,
            "midi": 33,
            "name": "A1",
            "ticks": 205248,
            "time": 91.628266,
            "velocity": 0.4881889763779528
          },
          {
            "duration": 0.042856999999997925,
            "durationTicks": 96,
            "midi": 33,
            "name": "A1",
            "ticks": 205248,
            "time": 91.628266,
            "velocity": 0.4881889763779528
          },
          {
            "duration": 0.042856999999997925,
            "durationTicks": 96,
            "midi": 38,
            "name": "D2",
            "ticks": 205248,
            "time": 91.628266,
            "velocity": 0.4881889763779528
          },
          {
            "duration": 0.042856999999997925,
            "durationTicks": 96,
            "midi": 32,
            "name": "G#1",
            "ticks": 205248,
            "time": 91.628266,
            "velocity": 0.4881889763779528
          },
          {
            "duration": 0.042856999999997925,
            "durationTicks": 96,
            "midi": 32,
            "name": "G#1",
            "ticks": 205248,
            "time": 91.628266,
            "velocity": 0.4881889763779528
          },
          {
            "duration": 0.042856999999997925,
            "durationTicks": 96,
            "midi": 38,
            "name": "D2",
            "ticks": 205248,
            "time": 91.628266,
            "velocity": 0.4881889763779528
          },
          {
            "duration": 0.042856999999997925,
            "durationTicks": 96,
            "midi": 33,
            "name": "A1",
            "ticks": 205248,
            "time": 91.628266,
            "velocity": 0.4881889763779528
          },
          {
            "duration": 0.042856999999997925,
            "durationTicks": 96,
            "midi": 38,
            "name": "D2",
            "ticks": 205248,
            "time": 91.628266,
            "velocity": 0.4881889763779528
          },
          {
            "duration": 0.042856999999997925,
            "durationTicks": 96,
            "midi": 33,
            "name": "A1",
            "ticks": 205248,
            "time": 91.628266,
            "velocity": 0.4881889763779528
          },
          {
            "duration": 0.042856999999997925,
            "durationTicks": 96,
            "midi": 35,
            "name": "B1",
            "ticks": 206016,
            "time": 91.971122,
            "velocity": 0.4881889763779528
          },
          {
            "duration": 0.042856999999997925,
            "durationTicks": 96,
            "midi": 37,
            "name": "C#2",
            "ticks": 206016,
            "time": 91.971122,
            "velocity": 0.4881889763779528
          },
          {
            "duration": 0.042856999999997925,
            "durationTicks": 96,
            "midi": 37,
            "name": "C#2",
            "ticks": 206016,
            "time": 91.971122,
            "velocity": 0.4881889763779528
          },
          {
            "duration": 0.042856999999997925,
            "durationTicks": 96,
            "midi": 35,
            "name": "B1",
            "ticks": 206016,
            "time": 91.971122,
            "velocity": 0.4881889763779528
          },
          {
            "duration": 0.042856999999997925,
            "durationTicks": 96,
            "midi": 35,
            "name": "B1",
            "ticks": 206016,
            "time": 91.971122,
            "velocity": 0.4881889763779528
          },
          {
            "duration": 0.042856999999997925,
            "durationTicks": 96,
            "midi": 37,
            "name": "C#2",
            "ticks": 206016,
            "time": 91.971122,
            "velocity": 0.4881889763779528
          },
          {
            "duration": 0.042856999999997925,
            "durationTicks": 96,
            "midi": 35,
            "name": "B1",
            "ticks": 206016,
            "time": 91.971122,
            "velocity": 0.4881889763779528
          },
          {
            "duration": 0.042856999999997925,
            "durationTicks": 96,
            "midi": 37,
            "name": "C#2",
            "ticks": 206016,
            "time": 91.971122,
            "velocity": 0.4881889763779528
          },
          {
            "duration": 0.042856999999997925,
            "durationTicks": 96,
            "midi": 37,
            "name": "C#2",
            "ticks": 206016,
            "time": 91.971122,
            "velocity": 0.4881889763779528
          },
          {
            "duration": 0.042856999999997925,
            "durationTicks": 96,
            "midi": 35,
            "name": "B1",
            "ticks": 206016,
            "time": 91.971122,
            "velocity": 0.4881889763779528
          },
          {
            "duration": 0.042856999999997925,
            "durationTicks": 96,
            "midi": 37,
            "name": "C#2",
            "ticks": 206016,
            "time": 91.971122,
            "velocity": 0.4881889763779528
          },
          {
            "duration": 0.042856999999997925,
            "durationTicks": 96,
            "midi": 35,
            "name": "B1",
            "ticks": 206016,
            "time": 91.971122,
            "velocity": 0.4881889763779528
          },
          {
            "duration": 0.042856999999997925,
            "durationTicks": 96,
            "midi": 33,
            "name": "A1",
            "ticks": 207552,
            "time": 92.656834,
            "velocity": 0.4881889763779528
          },
          {
            "duration": 0.042856999999997925,
            "durationTicks": 96,
            "midi": 32,
            "name": "G#1",
            "ticks": 207552,
            "time": 92.656834,
            "velocity": 0.4881889763779528
          },
          {
            "duration": 0.042856999999997925,
            "durationTicks": 96,
            "midi": 38,
            "name": "D2",
            "ticks": 207552,
            "time": 92.656834,
            "velocity": 0.4881889763779528
          },
          {
            "duration": 0.042856999999997925,
            "durationTicks": 96,
            "midi": 33,
            "name": "A1",
            "ticks": 207552,
            "time": 92.656834,
            "velocity": 0.4881889763779528
          },
          {
            "duration": 0.042856999999997925,
            "durationTicks": 96,
            "midi": 33,
            "name": "A1",
            "ticks": 207552,
            "time": 92.656834,
            "velocity": 0.4881889763779528
          },
          {
            "duration": 0.042856999999997925,
            "durationTicks": 96,
            "midi": 33,
            "name": "A1",
            "ticks": 207552,
            "time": 92.656834,
            "velocity": 0.4881889763779528
          },
          {
            "duration": 0.042856999999997925,
            "durationTicks": 96,
            "midi": 33,
            "name": "A1",
            "ticks": 207552,
            "time": 92.656834,
            "velocity": 0.4881889763779528
          },
          {
            "duration": 0.042856999999997925,
            "durationTicks": 96,
            "midi": 40,
            "name": "E2",
            "ticks": 207552,
            "time": 92.656834,
            "velocity": 0.4881889763779528
          },
          {
            "duration": 0.042856999999997925,
            "durationTicks": 96,
            "midi": 32,
            "name": "G#1",
            "ticks": 207552,
            "time": 92.656834,
            "velocity": 0.4881889763779528
          },
          {
            "duration": 0.042856999999997925,
            "durationTicks": 96,
            "midi": 40,
            "name": "E2",
            "ticks": 207552,
            "time": 92.656834,
            "velocity": 0.4881889763779528
          },
          {
            "duration": 0.042856999999997925,
            "durationTicks": 96,
            "midi": 38,
            "name": "D2",
            "ticks": 207552,
            "time": 92.656834,
            "velocity": 0.4881889763779528
          },
          {
            "duration": 0.042856999999997925,
            "durationTicks": 96,
            "midi": 40,
            "name": "E2",
            "ticks": 207552,
            "time": 92.656834,
            "velocity": 0.4881889763779528
          },
          {
            "duration": 0.042856999999997925,
            "durationTicks": 96,
            "midi": 40,
            "name": "E2",
            "ticks": 207552,
            "time": 92.656834,
            "velocity": 0.4881889763779528
          },
          {
            "duration": 0.042856999999997925,
            "durationTicks": 96,
            "midi": 32,
            "name": "G#1",
            "ticks": 207552,
            "time": 92.656834,
            "velocity": 0.4881889763779528
          },
          {
            "duration": 0.042856999999997925,
            "durationTicks": 96,
            "midi": 32,
            "name": "G#1",
            "ticks": 207552,
            "time": 92.656834,
            "velocity": 0.4881889763779528
          },
          {
            "duration": 0.042856999999997925,
            "durationTicks": 96,
            "midi": 32,
            "name": "G#1",
            "ticks": 207552,
            "time": 92.656834,
            "velocity": 0.4881889763779528
          },
          {
            "duration": 0.042856999999997925,
            "durationTicks": 96,
            "midi": 48,
            "name": "C3",
            "ticks": 207552,
            "time": 92.656834,
            "velocity": 0.4881889763779528
          },
          {
            "duration": 0.042856999999997925,
            "durationTicks": 96,
            "midi": 33,
            "name": "A1",
            "ticks": 207552,
            "time": 92.656834,
            "velocity": 0.4881889763779528
          },
          {
            "duration": 0.042856999999997925,
            "durationTicks": 96,
            "midi": 40,
            "name": "E2",
            "ticks": 207552,
            "time": 92.656834,
            "velocity": 0.4881889763779528
          },
          {
            "duration": 0.042856999999997925,
            "durationTicks": 96,
            "midi": 33,
            "name": "A1",
            "ticks": 207552,
            "time": 92.656834,
            "velocity": 0.4881889763779528
          },
          {
            "duration": 0.042856999999997925,
            "durationTicks": 96,
            "midi": 32,
            "name": "G#1",
            "ticks": 207552,
            "time": 92.656834,
            "velocity": 0.4881889763779528
          },
          {
            "duration": 0.042856999999997925,
            "durationTicks": 96,
            "midi": 33,
            "name": "A1",
            "ticks": 207552,
            "time": 92.656834,
            "velocity": 0.4881889763779528
          },
          {
            "duration": 0.042856999999997925,
            "durationTicks": 96,
            "midi": 33,
            "name": "A1",
            "ticks": 207552,
            "time": 92.656834,
            "velocity": 0.4881889763779528
          },
          {
            "duration": 0.042856999999997925,
            "durationTicks": 96,
            "midi": 32,
            "name": "G#1",
            "ticks": 207552,
            "time": 92.656834,
            "velocity": 0.4881889763779528
          },
          {
            "duration": 0.042856999999997925,
            "durationTicks": 96,
            "midi": 33,
            "name": "A1",
            "ticks": 207552,
            "time": 92.656834,
            "velocity": 0.4881889763779528
          },
          {
            "duration": 0.042856999999997925,
            "durationTicks": 96,
            "midi": 38,
            "name": "D2",
            "ticks": 207552,
            "time": 92.656834,
            "velocity": 0.4881889763779528
          },
          {
            "duration": 0.042856999999997925,
            "durationTicks": 96,
            "midi": 38,
            "name": "D2",
            "ticks": 207552,
            "time": 92.656834,
            "velocity": 0.4881889763779528
          },
          {
            "duration": 0.042856999999997925,
            "durationTicks": 96,
            "midi": 52,
            "name": "E3",
            "ticks": 207552,
            "time": 92.656834,
            "velocity": 0.4881889763779528
          },
          {
            "duration": 0.042856999999997925,
            "durationTicks": 96,
            "midi": 38,
            "name": "D2",
            "ticks": 207552,
            "time": 92.656834,
            "velocity": 0.4881889763779528
          },
          {
            "duration": 0.042856999999997925,
            "durationTicks": 96,
            "midi": 32,
            "name": "G#1",
            "ticks": 207552,
            "time": 92.656834,
            "velocity": 0.4881889763779528
          },
          {
            "duration": 0.042856999999997925,
            "durationTicks": 96,
            "midi": 32,
            "name": "G#1",
            "ticks": 207552,
            "time": 92.656834,
            "velocity": 0.4881889763779528
          },
          {
            "duration": 0.042856999999997925,
            "durationTicks": 96,
            "midi": 32,
            "name": "G#1",
            "ticks": 207552,
            "time": 92.656834,
            "velocity": 0.4881889763779528
          },
          {
            "duration": 0.042856999999997925,
            "durationTicks": 96,
            "midi": 35,
            "name": "B1",
            "ticks": 209088,
            "time": 93.342546,
            "velocity": 0.4881889763779528
          },
          {
            "duration": 0.042856999999997925,
            "durationTicks": 96,
            "midi": 37,
            "name": "C#2",
            "ticks": 209088,
            "time": 93.342546,
            "velocity": 0.4881889763779528
          },
          {
            "duration": 0.042856999999997925,
            "durationTicks": 96,
            "midi": 35,
            "name": "B1",
            "ticks": 209088,
            "time": 93.342546,
            "velocity": 0.4881889763779528
          },
          {
            "duration": 0.042856999999997925,
            "durationTicks": 96,
            "midi": 35,
            "name": "B1",
            "ticks": 209088,
            "time": 93.342546,
            "velocity": 0.4881889763779528
          },
          {
            "duration": 0.042856999999997925,
            "durationTicks": 96,
            "midi": 37,
            "name": "C#2",
            "ticks": 209088,
            "time": 93.342546,
            "velocity": 0.4881889763779528
          },
          {
            "duration": 0.042856999999997925,
            "durationTicks": 96,
            "midi": 37,
            "name": "C#2",
            "ticks": 209088,
            "time": 93.342546,
            "velocity": 0.4881889763779528
          },
          {
            "duration": 0.042856999999997925,
            "durationTicks": 96,
            "midi": 35,
            "name": "B1",
            "ticks": 209088,
            "time": 93.342546,
            "velocity": 0.4881889763779528
          },
          {
            "duration": 0.042856999999997925,
            "durationTicks": 96,
            "midi": 37,
            "name": "C#2",
            "ticks": 209088,
            "time": 93.342546,
            "velocity": 0.4881889763779528
          },
          {
            "duration": 0.042856999999997925,
            "durationTicks": 96,
            "midi": 37,
            "name": "C#2",
            "ticks": 209088,
            "time": 93.342546,
            "velocity": 0.4881889763779528
          },
          {
            "duration": 0.042856999999997925,
            "durationTicks": 96,
            "midi": 35,
            "name": "B1",
            "ticks": 209088,
            "time": 93.342546,
            "velocity": 0.4881889763779528
          },
          {
            "duration": 0.042856999999997925,
            "durationTicks": 96,
            "midi": 37,
            "name": "C#2",
            "ticks": 209088,
            "time": 93.342546,
            "velocity": 0.4881889763779528
          },
          {
            "duration": 0.042856999999997925,
            "durationTicks": 96,
            "midi": 35,
            "name": "B1",
            "ticks": 209088,
            "time": 93.342546,
            "velocity": 0.4881889763779528
          },
          {
            "duration": 0.042856999999997925,
            "durationTicks": 96,
            "midi": 33,
            "name": "A1",
            "ticks": 211008,
            "time": 94.199686,
            "velocity": 0.4881889763779528
          },
          {
            "duration": 0.042856999999997925,
            "durationTicks": 96,
            "midi": 33,
            "name": "A1",
            "ticks": 211008,
            "time": 94.199686,
            "velocity": 0.4881889763779528
          },
          {
            "duration": 0.042856999999997925,
            "durationTicks": 96,
            "midi": 33,
            "name": "A1",
            "ticks": 211008,
            "time": 94.199686,
            "velocity": 0.4881889763779528
          },
          {
            "duration": 0.042856999999997925,
            "durationTicks": 96,
            "midi": 33,
            "name": "A1",
            "ticks": 211008,
            "time": 94.199686,
            "velocity": 0.4881889763779528
          },
          {
            "duration": 0.042856999999997925,
            "durationTicks": 96,
            "midi": 32,
            "name": "G#1",
            "ticks": 211008,
            "time": 94.199686,
            "velocity": 0.4881889763779528
          },
          {
            "duration": 0.042856999999997925,
            "durationTicks": 96,
            "midi": 40,
            "name": "E2",
            "ticks": 211008,
            "time": 94.199686,
            "velocity": 0.4881889763779528
          },
          {
            "duration": 0.042856999999997925,
            "durationTicks": 96,
            "midi": 32,
            "name": "G#1",
            "ticks": 211008,
            "time": 94.199686,
            "velocity": 0.4881889763779528
          },
          {
            "duration": 0.042856999999997925,
            "durationTicks": 96,
            "midi": 32,
            "name": "G#1",
            "ticks": 211008,
            "time": 94.199686,
            "velocity": 0.4881889763779528
          },
          {
            "duration": 0.042856999999997925,
            "durationTicks": 96,
            "midi": 38,
            "name": "D2",
            "ticks": 211008,
            "time": 94.199686,
            "velocity": 0.4881889763779528
          },
          {
            "duration": 0.042856999999997925,
            "durationTicks": 96,
            "midi": 38,
            "name": "D2",
            "ticks": 211008,
            "time": 94.199686,
            "velocity": 0.4881889763779528
          },
          {
            "duration": 0.042856999999997925,
            "durationTicks": 96,
            "midi": 40,
            "name": "E2",
            "ticks": 211008,
            "time": 94.199686,
            "velocity": 0.4881889763779528
          },
          {
            "duration": 0.042856999999997925,
            "durationTicks": 96,
            "midi": 33,
            "name": "A1",
            "ticks": 211008,
            "time": 94.199686,
            "velocity": 0.4881889763779528
          },
          {
            "duration": 0.042856999999997925,
            "durationTicks": 96,
            "midi": 33,
            "name": "A1",
            "ticks": 211008,
            "time": 94.199686,
            "velocity": 0.4881889763779528
          },
          {
            "duration": 0.042856999999997925,
            "durationTicks": 96,
            "midi": 38,
            "name": "D2",
            "ticks": 211008,
            "time": 94.199686,
            "velocity": 0.4881889763779528
          },
          {
            "duration": 0.042856999999997925,
            "durationTicks": 96,
            "midi": 32,
            "name": "G#1",
            "ticks": 211008,
            "time": 94.199686,
            "velocity": 0.4881889763779528
          },
          {
            "duration": 0.042856999999997925,
            "durationTicks": 96,
            "midi": 33,
            "name": "A1",
            "ticks": 211008,
            "time": 94.199686,
            "velocity": 0.4881889763779528
          },
          {
            "duration": 0.042856999999997925,
            "durationTicks": 96,
            "midi": 33,
            "name": "A1",
            "ticks": 211008,
            "time": 94.199686,
            "velocity": 0.4881889763779528
          },
          {
            "duration": 0.042856999999997925,
            "durationTicks": 96,
            "midi": 32,
            "name": "G#1",
            "ticks": 211008,
            "time": 94.199686,
            "velocity": 0.4881889763779528
          },
          {
            "duration": 0.042856999999997925,
            "durationTicks": 96,
            "midi": 38,
            "name": "D2",
            "ticks": 211008,
            "time": 94.199686,
            "velocity": 0.4881889763779528
          },
          {
            "duration": 0.042856999999997925,
            "durationTicks": 96,
            "midi": 32,
            "name": "G#1",
            "ticks": 211008,
            "time": 94.199686,
            "velocity": 0.4881889763779528
          },
          {
            "duration": 0.042856999999997925,
            "durationTicks": 96,
            "midi": 40,
            "name": "E2",
            "ticks": 211008,
            "time": 94.199686,
            "velocity": 0.4881889763779528
          },
          {
            "duration": 0.042856999999997925,
            "durationTicks": 96,
            "midi": 32,
            "name": "G#1",
            "ticks": 211008,
            "time": 94.199686,
            "velocity": 0.4881889763779528
          },
          {
            "duration": 0.042856999999997925,
            "durationTicks": 96,
            "midi": 33,
            "name": "A1",
            "ticks": 211008,
            "time": 94.199686,
            "velocity": 0.4881889763779528
          },
          {
            "duration": 0.042856999999997925,
            "durationTicks": 96,
            "midi": 33,
            "name": "A1",
            "ticks": 211008,
            "time": 94.199686,
            "velocity": 0.4881889763779528
          },
          {
            "duration": 0.042856999999997925,
            "durationTicks": 96,
            "midi": 40,
            "name": "E2",
            "ticks": 211008,
            "time": 94.199686,
            "velocity": 0.4881889763779528
          },
          {
            "duration": 0.042856999999997925,
            "durationTicks": 96,
            "midi": 32,
            "name": "G#1",
            "ticks": 211008,
            "time": 94.199686,
            "velocity": 0.4881889763779528
          },
          {
            "duration": 0.042856999999997925,
            "durationTicks": 96,
            "midi": 32,
            "name": "G#1",
            "ticks": 211008,
            "time": 94.199686,
            "velocity": 0.4881889763779528
          },
          {
            "duration": 0.042856999999997925,
            "durationTicks": 96,
            "midi": 38,
            "name": "D2",
            "ticks": 211008,
            "time": 94.199686,
            "velocity": 0.4881889763779528
          },
          {
            "duration": 0.042856999999997925,
            "durationTicks": 96,
            "midi": 32,
            "name": "G#1",
            "ticks": 211008,
            "time": 94.199686,
            "velocity": 0.4881889763779528
          },
          {
            "duration": 0.042856999999997925,
            "durationTicks": 96,
            "midi": 40,
            "name": "E2",
            "ticks": 211008,
            "time": 94.199686,
            "velocity": 0.4881889763779528
          },
          {
            "duration": 0.042857000000012135,
            "durationTicks": 96,
            "midi": 32,
            "name": "G#1",
            "ticks": 211392,
            "time": 94.37111399999999,
            "velocity": 0.4881889763779528
          },
          {
            "duration": 0.042857000000012135,
            "durationTicks": 96,
            "midi": 32,
            "name": "G#1",
            "ticks": 211392,
            "time": 94.37111399999999,
            "velocity": 0.4881889763779528
          },
          {
            "duration": 0.042857000000012135,
            "durationTicks": 96,
            "midi": 33,
            "name": "A1",
            "ticks": 211392,
            "time": 94.37111399999999,
            "velocity": 0.4881889763779528
          },
          {
            "duration": 0.042857000000012135,
            "durationTicks": 96,
            "midi": 40,
            "name": "E2",
            "ticks": 211392,
            "time": 94.37111399999999,
            "velocity": 0.4881889763779528
          },
          {
            "duration": 0.042857000000012135,
            "durationTicks": 96,
            "midi": 40,
            "name": "E2",
            "ticks": 211392,
            "time": 94.37111399999999,
            "velocity": 0.4881889763779528
          },
          {
            "duration": 0.042857000000012135,
            "durationTicks": 96,
            "midi": 32,
            "name": "G#1",
            "ticks": 211392,
            "time": 94.37111399999999,
            "velocity": 0.4881889763779528
          },
          {
            "duration": 0.042857000000012135,
            "durationTicks": 96,
            "midi": 38,
            "name": "D2",
            "ticks": 211392,
            "time": 94.37111399999999,
            "velocity": 0.4881889763779528
          },
          {
            "duration": 0.042857000000012135,
            "durationTicks": 96,
            "midi": 38,
            "name": "D2",
            "ticks": 211392,
            "time": 94.37111399999999,
            "velocity": 0.4881889763779528
          },
          {
            "duration": 0.042857000000012135,
            "durationTicks": 96,
            "midi": 38,
            "name": "D2",
            "ticks": 211392,
            "time": 94.37111399999999,
            "velocity": 0.4881889763779528
          },
          {
            "duration": 0.042857000000012135,
            "durationTicks": 96,
            "midi": 32,
            "name": "G#1",
            "ticks": 211392,
            "time": 94.37111399999999,
            "velocity": 0.4881889763779528
          },
          {
            "duration": 0.042857000000012135,
            "durationTicks": 96,
            "midi": 40,
            "name": "E2",
            "ticks": 211392,
            "time": 94.37111399999999,
            "velocity": 0.4881889763779528
          },
          {
            "duration": 0.042857000000012135,
            "durationTicks": 96,
            "midi": 33,
            "name": "A1",
            "ticks": 211392,
            "time": 94.37111399999999,
            "velocity": 0.4881889763779528
          },
          {
            "duration": 0.042857000000012135,
            "durationTicks": 96,
            "midi": 33,
            "name": "A1",
            "ticks": 211392,
            "time": 94.37111399999999,
            "velocity": 0.4881889763779528
          },
          {
            "duration": 0.042857000000012135,
            "durationTicks": 96,
            "midi": 40,
            "name": "E2",
            "ticks": 211392,
            "time": 94.37111399999999,
            "velocity": 0.4881889763779528
          },
          {
            "duration": 0.042857000000012135,
            "durationTicks": 96,
            "midi": 32,
            "name": "G#1",
            "ticks": 211392,
            "time": 94.37111399999999,
            "velocity": 0.4881889763779528
          },
          {
            "duration": 0.042857000000012135,
            "durationTicks": 96,
            "midi": 38,
            "name": "D2",
            "ticks": 211392,
            "time": 94.37111399999999,
            "velocity": 0.4881889763779528
          },
          {
            "duration": 0.042857000000012135,
            "durationTicks": 96,
            "midi": 32,
            "name": "G#1",
            "ticks": 211392,
            "time": 94.37111399999999,
            "velocity": 0.4881889763779528
          },
          {
            "duration": 0.042857000000012135,
            "durationTicks": 96,
            "midi": 33,
            "name": "A1",
            "ticks": 211392,
            "time": 94.37111399999999,
            "velocity": 0.4881889763779528
          },
          {
            "duration": 0.042857000000012135,
            "durationTicks": 96,
            "midi": 33,
            "name": "A1",
            "ticks": 211392,
            "time": 94.37111399999999,
            "velocity": 0.4881889763779528
          },
          {
            "duration": 0.042857000000012135,
            "durationTicks": 96,
            "midi": 33,
            "name": "A1",
            "ticks": 211392,
            "time": 94.37111399999999,
            "velocity": 0.4881889763779528
          },
          {
            "duration": 0.042857000000012135,
            "durationTicks": 96,
            "midi": 33,
            "name": "A1",
            "ticks": 211392,
            "time": 94.37111399999999,
            "velocity": 0.4881889763779528
          },
          {
            "duration": 0.042857000000012135,
            "durationTicks": 96,
            "midi": 40,
            "name": "E2",
            "ticks": 211392,
            "time": 94.37111399999999,
            "velocity": 0.4881889763779528
          },
          {
            "duration": 0.042857000000012135,
            "durationTicks": 96,
            "midi": 32,
            "name": "G#1",
            "ticks": 211392,
            "time": 94.37111399999999,
            "velocity": 0.4881889763779528
          },
          {
            "duration": 0.042857000000012135,
            "durationTicks": 96,
            "midi": 32,
            "name": "G#1",
            "ticks": 211392,
            "time": 94.37111399999999,
            "velocity": 0.4881889763779528
          },
          {
            "duration": 0.042857000000012135,
            "durationTicks": 96,
            "midi": 33,
            "name": "A1",
            "ticks": 211392,
            "time": 94.37111399999999,
            "velocity": 0.4881889763779528
          },
          {
            "duration": 0.042857000000012135,
            "durationTicks": 96,
            "midi": 32,
            "name": "G#1",
            "ticks": 211392,
            "time": 94.37111399999999,
            "velocity": 0.4881889763779528
          },
          {
            "duration": 0.042857000000012135,
            "durationTicks": 96,
            "midi": 33,
            "name": "A1",
            "ticks": 211392,
            "time": 94.37111399999999,
            "velocity": 0.4881889763779528
          },
          {
            "duration": 0.042857000000012135,
            "durationTicks": 96,
            "midi": 33,
            "name": "A1",
            "ticks": 211392,
            "time": 94.37111399999999,
            "velocity": 0.4881889763779528
          },
          {
            "duration": 0.042857000000012135,
            "durationTicks": 96,
            "midi": 38,
            "name": "D2",
            "ticks": 211392,
            "time": 94.37111399999999,
            "velocity": 0.4881889763779528
          },
          {
            "duration": 0.042857000000012135,
            "durationTicks": 96,
            "midi": 32,
            "name": "G#1",
            "ticks": 211392,
            "time": 94.37111399999999,
            "velocity": 0.4881889763779528
          },
          {
            "duration": 0.042856999999997925,
            "durationTicks": 96,
            "midi": 35,
            "name": "B1",
            "ticks": 212160,
            "time": 94.71397,
            "velocity": 0.4881889763779528
          },
          {
            "duration": 0.042856999999997925,
            "durationTicks": 96,
            "midi": 35,
            "name": "B1",
            "ticks": 212160,
            "time": 94.71397,
            "velocity": 0.4881889763779528
          },
          {
            "duration": 0.042856999999997925,
            "durationTicks": 96,
            "midi": 35,
            "name": "B1",
            "ticks": 212160,
            "time": 94.71397,
            "velocity": 0.4881889763779528
          },
          {
            "duration": 0.042856999999997925,
            "durationTicks": 96,
            "midi": 37,
            "name": "C#2",
            "ticks": 212160,
            "time": 94.71397,
            "velocity": 0.4881889763779528
          },
          {
            "duration": 0.042856999999997925,
            "durationTicks": 96,
            "midi": 37,
            "name": "C#2",
            "ticks": 212160,
            "time": 94.71397,
            "velocity": 0.4881889763779528
          },
          {
            "duration": 0.042856999999997925,
            "durationTicks": 96,
            "midi": 37,
            "name": "C#2",
            "ticks": 212160,
            "time": 94.71397,
            "velocity": 0.4881889763779528
          },
          {
            "duration": 0.042856999999997925,
            "durationTicks": 96,
            "midi": 35,
            "name": "B1",
            "ticks": 212160,
            "time": 94.71397,
            "velocity": 0.4881889763779528
          },
          {
            "duration": 0.042856999999997925,
            "durationTicks": 96,
            "midi": 35,
            "name": "B1",
            "ticks": 212160,
            "time": 94.71397,
            "velocity": 0.4881889763779528
          },
          {
            "duration": 0.042856999999997925,
            "durationTicks": 96,
            "midi": 35,
            "name": "B1",
            "ticks": 212160,
            "time": 94.71397,
            "velocity": 0.4881889763779528
          },
          {
            "duration": 0.042856999999997925,
            "durationTicks": 96,
            "midi": 37,
            "name": "C#2",
            "ticks": 212160,
            "time": 94.71397,
            "velocity": 0.4881889763779528
          },
          {
            "duration": 0.042856999999997925,
            "durationTicks": 96,
            "midi": 37,
            "name": "C#2",
            "ticks": 212160,
            "time": 94.71397,
            "velocity": 0.4881889763779528
          },
          {
            "duration": 0.042856999999997925,
            "durationTicks": 96,
            "midi": 37,
            "name": "C#2",
            "ticks": 212160,
            "time": 94.71397,
            "velocity": 0.4881889763779528
          },
          {
            "duration": 0.042856999999997925,
            "durationTicks": 96,
            "midi": 33,
            "name": "A1",
            "ticks": 213696,
            "time": 95.399682,
            "velocity": 0.4881889763779528
          },
          {
            "duration": 0.042856999999997925,
            "durationTicks": 96,
            "midi": 38,
            "name": "D2",
            "ticks": 213696,
            "time": 95.399682,
            "velocity": 0.4881889763779528
          },
          {
            "duration": 0.042856999999997925,
            "durationTicks": 96,
            "midi": 33,
            "name": "A1",
            "ticks": 213696,
            "time": 95.399682,
            "velocity": 0.4881889763779528
          },
          {
            "duration": 0.042856999999997925,
            "durationTicks": 96,
            "midi": 33,
            "name": "A1",
            "ticks": 213696,
            "time": 95.399682,
            "velocity": 0.4881889763779528
          },
          {
            "duration": 0.042856999999997925,
            "durationTicks": 96,
            "midi": 32,
            "name": "G#1",
            "ticks": 213696,
            "time": 95.399682,
            "velocity": 0.4881889763779528
          },
          {
            "duration": 0.042856999999997925,
            "durationTicks": 96,
            "midi": 40,
            "name": "E2",
            "ticks": 213696,
            "time": 95.399682,
            "velocity": 0.4881889763779528
          },
          {
            "duration": 0.042856999999997925,
            "durationTicks": 96,
            "midi": 33,
            "name": "A1",
            "ticks": 213696,
            "time": 95.399682,
            "velocity": 0.4881889763779528
          },
          {
            "duration": 0.042856999999997925,
            "durationTicks": 96,
            "midi": 40,
            "name": "E2",
            "ticks": 213696,
            "time": 95.399682,
            "velocity": 0.4881889763779528
          },
          {
            "duration": 0.042856999999997925,
            "durationTicks": 96,
            "midi": 48,
            "name": "C3",
            "ticks": 213696,
            "time": 95.399682,
            "velocity": 0.4881889763779528
          },
          {
            "duration": 0.042856999999997925,
            "durationTicks": 96,
            "midi": 52,
            "name": "E3",
            "ticks": 213696,
            "time": 95.399682,
            "velocity": 0.4881889763779528
          },
          {
            "duration": 0.042856999999997925,
            "durationTicks": 96,
            "midi": 32,
            "name": "G#1",
            "ticks": 213696,
            "time": 95.399682,
            "velocity": 0.4881889763779528
          },
          {
            "duration": 0.042856999999997925,
            "durationTicks": 96,
            "midi": 32,
            "name": "G#1",
            "ticks": 213696,
            "time": 95.399682,
            "velocity": 0.4881889763779528
          },
          {
            "duration": 0.042856999999997925,
            "durationTicks": 96,
            "midi": 38,
            "name": "D2",
            "ticks": 213696,
            "time": 95.399682,
            "velocity": 0.4881889763779528
          },
          {
            "duration": 0.042856999999997925,
            "durationTicks": 96,
            "midi": 32,
            "name": "G#1",
            "ticks": 213696,
            "time": 95.399682,
            "velocity": 0.4881889763779528
          },
          {
            "duration": 0.042856999999997925,
            "durationTicks": 96,
            "midi": 40,
            "name": "E2",
            "ticks": 213696,
            "time": 95.399682,
            "velocity": 0.4881889763779528
          },
          {
            "duration": 0.042856999999997925,
            "durationTicks": 96,
            "midi": 38,
            "name": "D2",
            "ticks": 213696,
            "time": 95.399682,
            "velocity": 0.4881889763779528
          },
          {
            "duration": 0.042856999999997925,
            "durationTicks": 96,
            "midi": 32,
            "name": "G#1",
            "ticks": 213696,
            "time": 95.399682,
            "velocity": 0.4881889763779528
          },
          {
            "duration": 0.042856999999997925,
            "durationTicks": 96,
            "midi": 33,
            "name": "A1",
            "ticks": 213696,
            "time": 95.399682,
            "velocity": 0.4881889763779528
          },
          {
            "duration": 0.042856999999997925,
            "durationTicks": 96,
            "midi": 38,
            "name": "D2",
            "ticks": 213696,
            "time": 95.399682,
            "velocity": 0.4881889763779528
          },
          {
            "duration": 0.042856999999997925,
            "durationTicks": 96,
            "midi": 38,
            "name": "D2",
            "ticks": 213696,
            "time": 95.399682,
            "velocity": 0.4881889763779528
          },
          {
            "duration": 0.042856999999997925,
            "durationTicks": 96,
            "midi": 32,
            "name": "G#1",
            "ticks": 213696,
            "time": 95.399682,
            "velocity": 0.4881889763779528
          },
          {
            "duration": 0.042856999999997925,
            "durationTicks": 96,
            "midi": 32,
            "name": "G#1",
            "ticks": 213696,
            "time": 95.399682,
            "velocity": 0.4881889763779528
          },
          {
            "duration": 0.042856999999997925,
            "durationTicks": 96,
            "midi": 32,
            "name": "G#1",
            "ticks": 213696,
            "time": 95.399682,
            "velocity": 0.4881889763779528
          },
          {
            "duration": 0.042856999999997925,
            "durationTicks": 96,
            "midi": 33,
            "name": "A1",
            "ticks": 213696,
            "time": 95.399682,
            "velocity": 0.4881889763779528
          },
          {
            "duration": 0.042856999999997925,
            "durationTicks": 96,
            "midi": 40,
            "name": "E2",
            "ticks": 213696,
            "time": 95.399682,
            "velocity": 0.4881889763779528
          },
          {
            "duration": 0.042856999999997925,
            "durationTicks": 96,
            "midi": 40,
            "name": "E2",
            "ticks": 213696,
            "time": 95.399682,
            "velocity": 0.4881889763779528
          },
          {
            "duration": 0.042856999999997925,
            "durationTicks": 96,
            "midi": 32,
            "name": "G#1",
            "ticks": 213696,
            "time": 95.399682,
            "velocity": 0.4881889763779528
          },
          {
            "duration": 0.042856999999997925,
            "durationTicks": 96,
            "midi": 32,
            "name": "G#1",
            "ticks": 213696,
            "time": 95.399682,
            "velocity": 0.4881889763779528
          },
          {
            "duration": 0.042856999999997925,
            "durationTicks": 96,
            "midi": 33,
            "name": "A1",
            "ticks": 213696,
            "time": 95.399682,
            "velocity": 0.4881889763779528
          },
          {
            "duration": 0.042856999999997925,
            "durationTicks": 96,
            "midi": 33,
            "name": "A1",
            "ticks": 213696,
            "time": 95.399682,
            "velocity": 0.4881889763779528
          },
          {
            "duration": 0.042856999999997925,
            "durationTicks": 96,
            "midi": 33,
            "name": "A1",
            "ticks": 213696,
            "time": 95.399682,
            "velocity": 0.4881889763779528
          },
          {
            "duration": 0.042856999999997925,
            "durationTicks": 96,
            "midi": 33,
            "name": "A1",
            "ticks": 213696,
            "time": 95.399682,
            "velocity": 0.4881889763779528
          },
          {
            "duration": 0.042856999999997925,
            "durationTicks": 96,
            "midi": 37,
            "name": "C#2",
            "ticks": 215232,
            "time": 96.085394,
            "velocity": 0.4881889763779528
          },
          {
            "duration": 0.042856999999997925,
            "durationTicks": 96,
            "midi": 35,
            "name": "B1",
            "ticks": 215232,
            "time": 96.085394,
            "velocity": 0.4881889763779528
          },
          {
            "duration": 0.042856999999997925,
            "durationTicks": 96,
            "midi": 37,
            "name": "C#2",
            "ticks": 215232,
            "time": 96.085394,
            "velocity": 0.4881889763779528
          },
          {
            "duration": 0.042856999999997925,
            "durationTicks": 96,
            "midi": 37,
            "name": "C#2",
            "ticks": 215232,
            "time": 96.085394,
            "velocity": 0.4881889763779528
          },
          {
            "duration": 0.042856999999997925,
            "durationTicks": 96,
            "midi": 35,
            "name": "B1",
            "ticks": 215232,
            "time": 96.085394,
            "velocity": 0.4881889763779528
          },
          {
            "duration": 0.042856999999997925,
            "durationTicks": 96,
            "midi": 35,
            "name": "B1",
            "ticks": 215232,
            "time": 96.085394,
            "velocity": 0.4881889763779528
          },
          {
            "duration": 0.042856999999997925,
            "durationTicks": 96,
            "midi": 37,
            "name": "C#2",
            "ticks": 215232,
            "time": 96.085394,
            "velocity": 0.4881889763779528
          },
          {
            "duration": 0.042856999999997925,
            "durationTicks": 96,
            "midi": 35,
            "name": "B1",
            "ticks": 215232,
            "time": 96.085394,
            "velocity": 0.4881889763779528
          },
          {
            "duration": 0.042856999999997925,
            "durationTicks": 96,
            "midi": 37,
            "name": "C#2",
            "ticks": 215232,
            "time": 96.085394,
            "velocity": 0.4881889763779528
          },
          {
            "duration": 0.042856999999997925,
            "durationTicks": 96,
            "midi": 35,
            "name": "B1",
            "ticks": 215232,
            "time": 96.085394,
            "velocity": 0.4881889763779528
          },
          {
            "duration": 0.042856999999997925,
            "durationTicks": 96,
            "midi": 37,
            "name": "C#2",
            "ticks": 215232,
            "time": 96.085394,
            "velocity": 0.4881889763779528
          },
          {
            "duration": 0.042856999999997925,
            "durationTicks": 96,
            "midi": 35,
            "name": "B1",
            "ticks": 215232,
            "time": 96.085394,
            "velocity": 0.4881889763779528
          },
          {
            "duration": 0.042856999999997925,
            "durationTicks": 96,
            "midi": 40,
            "name": "E2",
            "ticks": 217152,
            "time": 96.942534,
            "velocity": 0.4881889763779528
          },
          {
            "duration": 0.042856999999997925,
            "durationTicks": 96,
            "midi": 38,
            "name": "D2",
            "ticks": 217152,
            "time": 96.942534,
            "velocity": 0.4881889763779528
          },
          {
            "duration": 0.042856999999997925,
            "durationTicks": 96,
            "midi": 33,
            "name": "A1",
            "ticks": 217152,
            "time": 96.942534,
            "velocity": 0.4881889763779528
          },
          {
            "duration": 0.042856999999997925,
            "durationTicks": 96,
            "midi": 32,
            "name": "G#1",
            "ticks": 217152,
            "time": 96.942534,
            "velocity": 0.4881889763779528
          },
          {
            "duration": 0.042856999999997925,
            "durationTicks": 96,
            "midi": 32,
            "name": "G#1",
            "ticks": 217152,
            "time": 96.942534,
            "velocity": 0.4881889763779528
          },
          {
            "duration": 0.042856999999997925,
            "durationTicks": 96,
            "midi": 33,
            "name": "A1",
            "ticks": 217152,
            "time": 96.942534,
            "velocity": 0.4881889763779528
          },
          {
            "duration": 0.042856999999997925,
            "durationTicks": 96,
            "midi": 33,
            "name": "A1",
            "ticks": 217152,
            "time": 96.942534,
            "velocity": 0.4881889763779528
          },
          {
            "duration": 0.042856999999997925,
            "durationTicks": 96,
            "midi": 32,
            "name": "G#1",
            "ticks": 217152,
            "time": 96.942534,
            "velocity": 0.4881889763779528
          },
          {
            "duration": 0.042856999999997925,
            "durationTicks": 96,
            "midi": 33,
            "name": "A1",
            "ticks": 217152,
            "time": 96.942534,
            "velocity": 0.4881889763779528
          },
          {
            "duration": 0.042856999999997925,
            "durationTicks": 96,
            "midi": 40,
            "name": "E2",
            "ticks": 217152,
            "time": 96.942534,
            "velocity": 0.4881889763779528
          },
          {
            "duration": 0.042856999999997925,
            "durationTicks": 96,
            "midi": 33,
            "name": "A1",
            "ticks": 217152,
            "time": 96.942534,
            "velocity": 0.4881889763779528
          },
          {
            "duration": 0.042856999999997925,
            "durationTicks": 96,
            "midi": 38,
            "name": "D2",
            "ticks": 217152,
            "time": 96.942534,
            "velocity": 0.4881889763779528
          },
          {
            "duration": 0.042856999999997925,
            "durationTicks": 96,
            "midi": 38,
            "name": "D2",
            "ticks": 217152,
            "time": 96.942534,
            "velocity": 0.4881889763779528
          },
          {
            "duration": 0.042856999999997925,
            "durationTicks": 96,
            "midi": 33,
            "name": "A1",
            "ticks": 217152,
            "time": 96.942534,
            "velocity": 0.4881889763779528
          },
          {
            "duration": 0.042856999999997925,
            "durationTicks": 96,
            "midi": 38,
            "name": "D2",
            "ticks": 217152,
            "time": 96.942534,
            "velocity": 0.4881889763779528
          },
          {
            "duration": 0.042856999999997925,
            "durationTicks": 96,
            "midi": 32,
            "name": "G#1",
            "ticks": 217152,
            "time": 96.942534,
            "velocity": 0.4881889763779528
          },
          {
            "duration": 0.042856999999997925,
            "durationTicks": 96,
            "midi": 32,
            "name": "G#1",
            "ticks": 217152,
            "time": 96.942534,
            "velocity": 0.4881889763779528
          },
          {
            "duration": 0.042856999999997925,
            "durationTicks": 96,
            "midi": 38,
            "name": "D2",
            "ticks": 217152,
            "time": 96.942534,
            "velocity": 0.4881889763779528
          },
          {
            "duration": 0.042856999999997925,
            "durationTicks": 96,
            "midi": 32,
            "name": "G#1",
            "ticks": 217152,
            "time": 96.942534,
            "velocity": 0.4881889763779528
          },
          {
            "duration": 0.042856999999997925,
            "durationTicks": 96,
            "midi": 32,
            "name": "G#1",
            "ticks": 217152,
            "time": 96.942534,
            "velocity": 0.4881889763779528
          },
          {
            "duration": 0.042856999999997925,
            "durationTicks": 96,
            "midi": 40,
            "name": "E2",
            "ticks": 217152,
            "time": 96.942534,
            "velocity": 0.4881889763779528
          },
          {
            "duration": 0.042856999999997925,
            "durationTicks": 96,
            "midi": 40,
            "name": "E2",
            "ticks": 217152,
            "time": 96.942534,
            "velocity": 0.4881889763779528
          },
          {
            "duration": 0.042856999999997925,
            "durationTicks": 96,
            "midi": 40,
            "name": "E2",
            "ticks": 217152,
            "time": 96.942534,
            "velocity": 0.4881889763779528
          },
          {
            "duration": 0.042856999999997925,
            "durationTicks": 96,
            "midi": 33,
            "name": "A1",
            "ticks": 217152,
            "time": 96.942534,
            "velocity": 0.4881889763779528
          },
          {
            "duration": 0.042856999999997925,
            "durationTicks": 96,
            "midi": 33,
            "name": "A1",
            "ticks": 217152,
            "time": 96.942534,
            "velocity": 0.4881889763779528
          },
          {
            "duration": 0.042856999999997925,
            "durationTicks": 96,
            "midi": 33,
            "name": "A1",
            "ticks": 217152,
            "time": 96.942534,
            "velocity": 0.4881889763779528
          },
          {
            "duration": 0.042856999999997925,
            "durationTicks": 96,
            "midi": 32,
            "name": "G#1",
            "ticks": 217152,
            "time": 96.942534,
            "velocity": 0.4881889763779528
          },
          {
            "duration": 0.042856999999997925,
            "durationTicks": 96,
            "midi": 33,
            "name": "A1",
            "ticks": 217152,
            "time": 96.942534,
            "velocity": 0.4881889763779528
          },
          {
            "duration": 0.042856999999997925,
            "durationTicks": 96,
            "midi": 32,
            "name": "G#1",
            "ticks": 217152,
            "time": 96.942534,
            "velocity": 0.4881889763779528
          },
          {
            "duration": 0.042856999999997925,
            "durationTicks": 96,
            "midi": 32,
            "name": "G#1",
            "ticks": 217152,
            "time": 96.942534,
            "velocity": 0.4881889763779528
          },
          {
            "duration": 0.042856999999997925,
            "durationTicks": 96,
            "midi": 38,
            "name": "D2",
            "ticks": 217536,
            "time": 97.113962,
            "velocity": 0.4881889763779528
          },
          {
            "duration": 0.042856999999997925,
            "durationTicks": 96,
            "midi": 40,
            "name": "E2",
            "ticks": 217536,
            "time": 97.113962,
            "velocity": 0.4881889763779528
          },
          {
            "duration": 0.042856999999997925,
            "durationTicks": 96,
            "midi": 32,
            "name": "G#1",
            "ticks": 217536,
            "time": 97.113962,
            "velocity": 0.4881889763779528
          },
          {
            "duration": 0.042856999999997925,
            "durationTicks": 96,
            "midi": 32,
            "name": "G#1",
            "ticks": 217536,
            "time": 97.113962,
            "velocity": 0.4881889763779528
          },
          {
            "duration": 0.042856999999997925,
            "durationTicks": 96,
            "midi": 40,
            "name": "E2",
            "ticks": 217536,
            "time": 97.113962,
            "velocity": 0.4881889763779528
          },
          {
            "duration": 0.042856999999997925,
            "durationTicks": 96,
            "midi": 33,
            "name": "A1",
            "ticks": 217536,
            "time": 97.113962,
            "velocity": 0.4881889763779528
          },
          {
            "duration": 0.042856999999997925,
            "durationTicks": 96,
            "midi": 38,
            "name": "D2",
            "ticks": 217536,
            "time": 97.113962,
            "velocity": 0.4881889763779528
          },
          {
            "duration": 0.042856999999997925,
            "durationTicks": 96,
            "midi": 33,
            "name": "A1",
            "ticks": 217536,
            "time": 97.113962,
            "velocity": 0.4881889763779528
          },
          {
            "duration": 0.042856999999997925,
            "durationTicks": 96,
            "midi": 33,
            "name": "A1",
            "ticks": 217536,
            "time": 97.113962,
            "velocity": 0.4881889763779528
          },
          {
            "duration": 0.042856999999997925,
            "durationTicks": 96,
            "midi": 38,
            "name": "D2",
            "ticks": 217536,
            "time": 97.113962,
            "velocity": 0.4881889763779528
          },
          {
            "duration": 0.042856999999997925,
            "durationTicks": 96,
            "midi": 40,
            "name": "E2",
            "ticks": 217536,
            "time": 97.113962,
            "velocity": 0.4881889763779528
          },
          {
            "duration": 0.042856999999997925,
            "durationTicks": 96,
            "midi": 32,
            "name": "G#1",
            "ticks": 217536,
            "time": 97.113962,
            "velocity": 0.4881889763779528
          },
          {
            "duration": 0.042856999999997925,
            "durationTicks": 96,
            "midi": 33,
            "name": "A1",
            "ticks": 217536,
            "time": 97.113962,
            "velocity": 0.4881889763779528
          },
          {
            "duration": 0.042856999999997925,
            "durationTicks": 96,
            "midi": 32,
            "name": "G#1",
            "ticks": 217536,
            "time": 97.113962,
            "velocity": 0.4881889763779528
          },
          {
            "duration": 0.042856999999997925,
            "durationTicks": 96,
            "midi": 38,
            "name": "D2",
            "ticks": 217536,
            "time": 97.113962,
            "velocity": 0.4881889763779528
          },
          {
            "duration": 0.042856999999997925,
            "durationTicks": 96,
            "midi": 32,
            "name": "G#1",
            "ticks": 217536,
            "time": 97.113962,
            "velocity": 0.4881889763779528
          },
          {
            "duration": 0.042856999999997925,
            "durationTicks": 96,
            "midi": 33,
            "name": "A1",
            "ticks": 217536,
            "time": 97.113962,
            "velocity": 0.4881889763779528
          },
          {
            "duration": 0.042856999999997925,
            "durationTicks": 96,
            "midi": 33,
            "name": "A1",
            "ticks": 217536,
            "time": 97.113962,
            "velocity": 0.4881889763779528
          },
          {
            "duration": 0.042856999999997925,
            "durationTicks": 96,
            "midi": 32,
            "name": "G#1",
            "ticks": 217536,
            "time": 97.113962,
            "velocity": 0.4881889763779528
          },
          {
            "duration": 0.042856999999997925,
            "durationTicks": 96,
            "midi": 32,
            "name": "G#1",
            "ticks": 217536,
            "time": 97.113962,
            "velocity": 0.4881889763779528
          },
          {
            "duration": 0.042856999999997925,
            "durationTicks": 96,
            "midi": 40,
            "name": "E2",
            "ticks": 217536,
            "time": 97.113962,
            "velocity": 0.4881889763779528
          },
          {
            "duration": 0.042856999999997925,
            "durationTicks": 96,
            "midi": 33,
            "name": "A1",
            "ticks": 217536,
            "time": 97.113962,
            "velocity": 0.4881889763779528
          },
          {
            "duration": 0.042856999999997925,
            "durationTicks": 96,
            "midi": 33,
            "name": "A1",
            "ticks": 217536,
            "time": 97.113962,
            "velocity": 0.4881889763779528
          },
          {
            "duration": 0.042856999999997925,
            "durationTicks": 96,
            "midi": 32,
            "name": "G#1",
            "ticks": 217536,
            "time": 97.113962,
            "velocity": 0.4881889763779528
          },
          {
            "duration": 0.042856999999997925,
            "durationTicks": 96,
            "midi": 40,
            "name": "E2",
            "ticks": 217536,
            "time": 97.113962,
            "velocity": 0.4881889763779528
          },
          {
            "duration": 0.042856999999997925,
            "durationTicks": 96,
            "midi": 33,
            "name": "A1",
            "ticks": 217536,
            "time": 97.113962,
            "velocity": 0.4881889763779528
          },
          {
            "duration": 0.042856999999997925,
            "durationTicks": 96,
            "midi": 32,
            "name": "G#1",
            "ticks": 217536,
            "time": 97.113962,
            "velocity": 0.4881889763779528
          },
          {
            "duration": 0.042856999999997925,
            "durationTicks": 96,
            "midi": 38,
            "name": "D2",
            "ticks": 217536,
            "time": 97.113962,
            "velocity": 0.4881889763779528
          },
          {
            "duration": 0.042856999999997925,
            "durationTicks": 96,
            "midi": 32,
            "name": "G#1",
            "ticks": 217536,
            "time": 97.113962,
            "velocity": 0.4881889763779528
          },
          {
            "duration": 0.042856999999997925,
            "durationTicks": 96,
            "midi": 33,
            "name": "A1",
            "ticks": 217536,
            "time": 97.113962,
            "velocity": 0.4881889763779528
          },
          {
            "duration": 0.042856999999997925,
            "durationTicks": 96,
            "midi": 35,
            "name": "B1",
            "ticks": 218304,
            "time": 97.456818,
            "velocity": 0.4881889763779528
          },
          {
            "duration": 0.042856999999997925,
            "durationTicks": 96,
            "midi": 35,
            "name": "B1",
            "ticks": 218304,
            "time": 97.456818,
            "velocity": 0.4881889763779528
          },
          {
            "duration": 0.042856999999997925,
            "durationTicks": 96,
            "midi": 35,
            "name": "B1",
            "ticks": 218304,
            "time": 97.456818,
            "velocity": 0.4881889763779528
          },
          {
            "duration": 0.042856999999997925,
            "durationTicks": 96,
            "midi": 37,
            "name": "C#2",
            "ticks": 218304,
            "time": 97.456818,
            "velocity": 0.4881889763779528
          },
          {
            "duration": 0.042856999999997925,
            "durationTicks": 96,
            "midi": 37,
            "name": "C#2",
            "ticks": 218304,
            "time": 97.456818,
            "velocity": 0.4881889763779528
          },
          {
            "duration": 0.042856999999997925,
            "durationTicks": 96,
            "midi": 35,
            "name": "B1",
            "ticks": 218304,
            "time": 97.456818,
            "velocity": 0.4881889763779528
          },
          {
            "duration": 0.042856999999997925,
            "durationTicks": 96,
            "midi": 37,
            "name": "C#2",
            "ticks": 218304,
            "time": 97.456818,
            "velocity": 0.4881889763779528
          },
          {
            "duration": 0.042856999999997925,
            "durationTicks": 96,
            "midi": 35,
            "name": "B1",
            "ticks": 218304,
            "time": 97.456818,
            "velocity": 0.4881889763779528
          },
          {
            "duration": 0.042856999999997925,
            "durationTicks": 96,
            "midi": 37,
            "name": "C#2",
            "ticks": 218304,
            "time": 97.456818,
            "velocity": 0.4881889763779528
          },
          {
            "duration": 0.042856999999997925,
            "durationTicks": 96,
            "midi": 35,
            "name": "B1",
            "ticks": 218304,
            "time": 97.456818,
            "velocity": 0.4881889763779528
          },
          {
            "duration": 0.042856999999997925,
            "durationTicks": 96,
            "midi": 37,
            "name": "C#2",
            "ticks": 218304,
            "time": 97.456818,
            "velocity": 0.4881889763779528
          },
          {
            "duration": 0.042856999999997925,
            "durationTicks": 96,
            "midi": 37,
            "name": "C#2",
            "ticks": 218304,
            "time": 97.456818,
            "velocity": 0.4881889763779528
          },
          {
            "duration": 0.042856999999997925,
            "durationTicks": 96,
            "midi": 38,
            "name": "D2",
            "ticks": 219840,
            "time": 98.14253,
            "velocity": 0.4881889763779528
          },
          {
            "duration": 0.042856999999997925,
            "durationTicks": 96,
            "midi": 46,
            "name": "A#2",
            "ticks": 219840,
            "time": 98.14253,
            "velocity": 0.4881889763779528
          },
          {
            "duration": 0.042856999999997925,
            "durationTicks": 96,
            "midi": 32,
            "name": "G#1",
            "ticks": 219840,
            "time": 98.14253,
            "velocity": 0.4881889763779528
          },
          {
            "duration": 0.042856999999997925,
            "durationTicks": 96,
            "midi": 38,
            "name": "D2",
            "ticks": 219840,
            "time": 98.14253,
            "velocity": 0.4881889763779528
          },
          {
            "duration": 0.042856999999997925,
            "durationTicks": 96,
            "midi": 48,
            "name": "C3",
            "ticks": 219840,
            "time": 98.14253,
            "velocity": 0.4881889763779528
          },
          {
            "duration": 0.042856999999997925,
            "durationTicks": 96,
            "midi": 40,
            "name": "E2",
            "ticks": 219840,
            "time": 98.14253,
            "velocity": 0.4881889763779528
          },
          {
            "duration": 0.042856999999997925,
            "durationTicks": 96,
            "midi": 40,
            "name": "E2",
            "ticks": 219840,
            "time": 98.14253,
            "velocity": 0.4881889763779528
          },
          {
            "duration": 0.042856999999997925,
            "durationTicks": 96,
            "midi": 40,
            "name": "E2",
            "ticks": 219840,
            "time": 98.14253,
            "velocity": 0.4881889763779528
          },
          {
            "duration": 0.042856999999997925,
            "durationTicks": 96,
            "midi": 33,
            "name": "A1",
            "ticks": 219840,
            "time": 98.14253,
            "velocity": 0.4881889763779528
          },
          {
            "duration": 0.042856999999997925,
            "durationTicks": 96,
            "midi": 33,
            "name": "A1",
            "ticks": 219840,
            "time": 98.14253,
            "velocity": 0.4881889763779528
          },
          {
            "duration": 0.042856999999997925,
            "durationTicks": 96,
            "midi": 38,
            "name": "D2",
            "ticks": 219840,
            "time": 98.14253,
            "velocity": 0.4881889763779528
          },
          {
            "duration": 0.042856999999997925,
            "durationTicks": 96,
            "midi": 33,
            "name": "A1",
            "ticks": 219840,
            "time": 98.14253,
            "velocity": 0.4881889763779528
          },
          {
            "duration": 0.042856999999997925,
            "durationTicks": 96,
            "midi": 33,
            "name": "A1",
            "ticks": 219840,
            "time": 98.14253,
            "velocity": 0.4881889763779528
          },
          {
            "duration": 0.042856999999997925,
            "durationTicks": 96,
            "midi": 32,
            "name": "G#1",
            "ticks": 219840,
            "time": 98.14253,
            "velocity": 0.4881889763779528
          },
          {
            "duration": 0.042856999999997925,
            "durationTicks": 96,
            "midi": 33,
            "name": "A1",
            "ticks": 219840,
            "time": 98.14253,
            "velocity": 0.4881889763779528
          },
          {
            "duration": 0.042856999999997925,
            "durationTicks": 96,
            "midi": 40,
            "name": "E2",
            "ticks": 219840,
            "time": 98.14253,
            "velocity": 0.4881889763779528
          },
          {
            "duration": 0.042856999999997925,
            "durationTicks": 96,
            "midi": 38,
            "name": "D2",
            "ticks": 219840,
            "time": 98.14253,
            "velocity": 0.4881889763779528
          },
          {
            "duration": 0.042856999999997925,
            "durationTicks": 96,
            "midi": 33,
            "name": "A1",
            "ticks": 219840,
            "time": 98.14253,
            "velocity": 0.4881889763779528
          },
          {
            "duration": 0.042856999999997925,
            "durationTicks": 96,
            "midi": 32,
            "name": "G#1",
            "ticks": 219840,
            "time": 98.14253,
            "velocity": 0.4881889763779528
          },
          {
            "duration": 0.042856999999997925,
            "durationTicks": 96,
            "midi": 32,
            "name": "G#1",
            "ticks": 219840,
            "time": 98.14253,
            "velocity": 0.4881889763779528
          },
          {
            "duration": 0.042856999999997925,
            "durationTicks": 96,
            "midi": 32,
            "name": "G#1",
            "ticks": 219840,
            "time": 98.14253,
            "velocity": 0.4881889763779528
          },
          {
            "duration": 0.042856999999997925,
            "durationTicks": 96,
            "midi": 33,
            "name": "A1",
            "ticks": 219840,
            "time": 98.14253,
            "velocity": 0.4881889763779528
          },
          {
            "duration": 0.042856999999997925,
            "durationTicks": 96,
            "midi": 32,
            "name": "G#1",
            "ticks": 219840,
            "time": 98.14253,
            "velocity": 0.4881889763779528
          },
          {
            "duration": 0.042856999999997925,
            "durationTicks": 96,
            "midi": 33,
            "name": "A1",
            "ticks": 219840,
            "time": 98.14253,
            "velocity": 0.4881889763779528
          },
          {
            "duration": 0.042856999999997925,
            "durationTicks": 96,
            "midi": 40,
            "name": "E2",
            "ticks": 219840,
            "time": 98.14253,
            "velocity": 0.4881889763779528
          },
          {
            "duration": 0.042856999999997925,
            "durationTicks": 96,
            "midi": 32,
            "name": "G#1",
            "ticks": 219840,
            "time": 98.14253,
            "velocity": 0.4881889763779528
          },
          {
            "duration": 0.042856999999997925,
            "durationTicks": 96,
            "midi": 33,
            "name": "A1",
            "ticks": 219840,
            "time": 98.14253,
            "velocity": 0.4881889763779528
          },
          {
            "duration": 0.042856999999997925,
            "durationTicks": 96,
            "midi": 54,
            "name": "F#3",
            "ticks": 219840,
            "time": 98.14253,
            "velocity": 0.4881889763779528
          },
          {
            "duration": 0.042856999999997925,
            "durationTicks": 96,
            "midi": 38,
            "name": "D2",
            "ticks": 219840,
            "time": 98.14253,
            "velocity": 0.4881889763779528
          },
          {
            "duration": 0.042856999999997925,
            "durationTicks": 96,
            "midi": 32,
            "name": "G#1",
            "ticks": 219840,
            "time": 98.14253,
            "velocity": 0.4881889763779528
          },
          {
            "duration": 0.042856999999997925,
            "durationTicks": 96,
            "midi": 52,
            "name": "E3",
            "ticks": 219840,
            "time": 98.14253,
            "velocity": 0.4881889763779528
          },
          {
            "duration": 0.042856999999997925,
            "durationTicks": 96,
            "midi": 32,
            "name": "G#1",
            "ticks": 219840,
            "time": 98.14253,
            "velocity": 0.4881889763779528
          },
          {
            "duration": 0.042856999999997925,
            "durationTicks": 96,
            "midi": 32,
            "name": "G#1",
            "ticks": 219840,
            "time": 98.14253,
            "velocity": 0.4881889763779528
          },
          {
            "duration": 0.042856999999997925,
            "durationTicks": 96,
            "midi": 33,
            "name": "A1",
            "ticks": 219840,
            "time": 98.14253,
            "velocity": 0.4881889763779528
          },
          {
            "duration": 0.042857000000012135,
            "durationTicks": 96,
            "midi": 52,
            "name": "E3",
            "ticks": 247488,
            "time": 110.48534599999999,
            "velocity": 0.4881889763779528
          },
          {
            "duration": 0.042857000000012135,
            "durationTicks": 96,
            "midi": 48,
            "name": "C3",
            "ticks": 247488,
            "time": 110.48534599999999,
            "velocity": 0.4881889763779528
          },
          {
            "duration": 0.042856999999997925,
            "durationTicks": 96,
            "midi": 32,
            "name": "G#1",
            "ticks": 262848,
            "time": 117.342466,
            "velocity": 0.4881889763779528
          },
          {
            "duration": 0.042856999999997925,
            "durationTicks": 96,
            "midi": 33,
            "name": "A1",
            "ticks": 262848,
            "time": 117.342466,
            "velocity": 0.4881889763779528
          },
          {
            "duration": 0.042856999999997925,
            "durationTicks": 96,
            "midi": 33,
            "name": "A1",
            "ticks": 262848,
            "time": 117.342466,
            "velocity": 0.4881889763779528
          },
          {
            "duration": 0.042856999999997925,
            "durationTicks": 96,
            "midi": 40,
            "name": "E2",
            "ticks": 262848,
            "time": 117.342466,
            "velocity": 0.4881889763779528
          },
          {
            "duration": 0.042856999999997925,
            "durationTicks": 96,
            "midi": 32,
            "name": "G#1",
            "ticks": 262848,
            "time": 117.342466,
            "velocity": 0.4881889763779528
          },
          {
            "duration": 0.042856999999997925,
            "durationTicks": 96,
            "midi": 46,
            "name": "A#2",
            "ticks": 262848,
            "time": 117.342466,
            "velocity": 0.4881889763779528
          },
          {
            "duration": 0.042856999999997925,
            "durationTicks": 96,
            "midi": 52,
            "name": "E3",
            "ticks": 262848,
            "time": 117.342466,
            "velocity": 0.4881889763779528
          },
          {
            "duration": 0.042856999999997925,
            "durationTicks": 96,
            "midi": 32,
            "name": "G#1",
            "ticks": 262848,
            "time": 117.342466,
            "velocity": 0.4881889763779528
          },
          {
            "duration": 0.042856999999997925,
            "durationTicks": 96,
            "midi": 33,
            "name": "A1",
            "ticks": 262848,
            "time": 117.342466,
            "velocity": 0.4881889763779528
          },
          {
            "duration": 0.042856999999997925,
            "durationTicks": 96,
            "midi": 38,
            "name": "D2",
            "ticks": 262848,
            "time": 117.342466,
            "velocity": 0.4881889763779528
          },
          {
            "duration": 0.042856999999997925,
            "durationTicks": 96,
            "midi": 33,
            "name": "A1",
            "ticks": 262848,
            "time": 117.342466,
            "velocity": 0.4881889763779528
          },
          {
            "duration": 0.042856999999997925,
            "durationTicks": 96,
            "midi": 54,
            "name": "F#3",
            "ticks": 262848,
            "time": 117.342466,
            "velocity": 0.4881889763779528
          },
          {
            "duration": 0.042856999999997925,
            "durationTicks": 96,
            "midi": 32,
            "name": "G#1",
            "ticks": 262848,
            "time": 117.342466,
            "velocity": 0.4881889763779528
          },
          {
            "duration": 0.042856999999997925,
            "durationTicks": 96,
            "midi": 48,
            "name": "C3",
            "ticks": 262848,
            "time": 117.342466,
            "velocity": 0.4881889763779528
          },
          {
            "duration": 0.042856999999997925,
            "durationTicks": 96,
            "midi": 35,
            "name": "B1",
            "ticks": 263616,
            "time": 117.685322,
            "velocity": 0.4881889763779528
          },
          {
            "duration": 0.042856999999997925,
            "durationTicks": 96,
            "midi": 37,
            "name": "C#2",
            "ticks": 263616,
            "time": 117.685322,
            "velocity": 0.4881889763779528
          },
          {
            "duration": 0.042856999999997925,
            "durationTicks": 96,
            "midi": 35,
            "name": "B1",
            "ticks": 263616,
            "time": 117.685322,
            "velocity": 0.4881889763779528
          },
          {
            "duration": 0.042856999999997925,
            "durationTicks": 96,
            "midi": 37,
            "name": "C#2",
            "ticks": 263616,
            "time": 117.685322,
            "velocity": 0.4881889763779528
          },
          {
            "duration": 0.042856999999997925,
            "durationTicks": 96,
            "midi": 45,
            "name": "A2",
            "ticks": 263616,
            "time": 117.685322,
            "velocity": 0.4881889763779528
          },
          {
            "duration": 0.042856999999997925,
            "durationTicks": 96,
            "midi": 47,
            "name": "B2",
            "ticks": 263616,
            "time": 117.685322,
            "velocity": 0.4881889763779528
          },
          {
            "duration": 0.042856999999997925,
            "durationTicks": 96,
            "midi": 35,
            "name": "B1",
            "ticks": 263616,
            "time": 117.685322,
            "velocity": 0.4881889763779528
          },
          {
            "duration": 0.042856999999997925,
            "durationTicks": 96,
            "midi": 37,
            "name": "C#2",
            "ticks": 263616,
            "time": 117.685322,
            "velocity": 0.4881889763779528
          },
          {
            "duration": 0.042856999999997925,
            "durationTicks": 96,
            "midi": 33,
            "name": "A1",
            "ticks": 264768,
            "time": 118.199606,
            "velocity": 0.4881889763779528
          },
          {
            "duration": 0.042856999999997925,
            "durationTicks": 96,
            "midi": 32,
            "name": "G#1",
            "ticks": 264768,
            "time": 118.199606,
            "velocity": 0.4881889763779528
          },
          {
            "duration": 0.042856999999997925,
            "durationTicks": 96,
            "midi": 32,
            "name": "G#1",
            "ticks": 264768,
            "time": 118.199606,
            "velocity": 0.4881889763779528
          },
          {
            "duration": 0.042856999999997925,
            "durationTicks": 96,
            "midi": 32,
            "name": "G#1",
            "ticks": 264768,
            "time": 118.199606,
            "velocity": 0.4881889763779528
          },
          {
            "duration": 0.042856999999997925,
            "durationTicks": 96,
            "midi": 33,
            "name": "A1",
            "ticks": 264768,
            "time": 118.199606,
            "velocity": 0.4881889763779528
          },
          {
            "duration": 0.042856999999997925,
            "durationTicks": 96,
            "midi": 33,
            "name": "A1",
            "ticks": 264768,
            "time": 118.199606,
            "velocity": 0.4881889763779528
          },
          {
            "duration": 0.042856999999997925,
            "durationTicks": 96,
            "midi": 32,
            "name": "G#1",
            "ticks": 264768,
            "time": 118.199606,
            "velocity": 0.4881889763779528
          },
          {
            "duration": 0.042856999999997925,
            "durationTicks": 96,
            "midi": 40,
            "name": "E2",
            "ticks": 264768,
            "time": 118.199606,
            "velocity": 0.4881889763779528
          },
          {
            "duration": 0.042856999999997925,
            "durationTicks": 96,
            "midi": 33,
            "name": "A1",
            "ticks": 264768,
            "time": 118.199606,
            "velocity": 0.4881889763779528
          },
          {
            "duration": 0.042856999999997925,
            "durationTicks": 96,
            "midi": 38,
            "name": "D2",
            "ticks": 264768,
            "time": 118.199606,
            "velocity": 0.4881889763779528
          },
          {
            "duration": 0.042856999999997925,
            "durationTicks": 96,
            "midi": 37,
            "name": "C#2",
            "ticks": 265152,
            "time": 118.371034,
            "velocity": 0.4881889763779528
          },
          {
            "duration": 0.042856999999997925,
            "durationTicks": 96,
            "midi": 37,
            "name": "C#2",
            "ticks": 265152,
            "time": 118.371034,
            "velocity": 0.4881889763779528
          },
          {
            "duration": 0.042856999999997925,
            "durationTicks": 96,
            "midi": 45,
            "name": "A2",
            "ticks": 265152,
            "time": 118.371034,
            "velocity": 0.4881889763779528
          },
          {
            "duration": 0.042856999999997925,
            "durationTicks": 96,
            "midi": 35,
            "name": "B1",
            "ticks": 265152,
            "time": 118.371034,
            "velocity": 0.4881889763779528
          },
          {
            "duration": 0.042856999999997925,
            "durationTicks": 96,
            "midi": 35,
            "name": "B1",
            "ticks": 265152,
            "time": 118.371034,
            "velocity": 0.4881889763779528
          },
          {
            "duration": 0.042856999999997925,
            "durationTicks": 96,
            "midi": 35,
            "name": "B1",
            "ticks": 265152,
            "time": 118.371034,
            "velocity": 0.4881889763779528
          },
          {
            "duration": 0.042856999999997925,
            "durationTicks": 96,
            "midi": 37,
            "name": "C#2",
            "ticks": 265152,
            "time": 118.371034,
            "velocity": 0.4881889763779528
          },
          {
            "duration": 0.042856999999997925,
            "durationTicks": 96,
            "midi": 47,
            "name": "B2",
            "ticks": 265152,
            "time": 118.371034,
            "velocity": 0.4881889763779528
          },
          {
            "duration": 0.042857000000012135,
            "durationTicks": 96,
            "midi": 33,
            "name": "A1",
            "ticks": 265920,
            "time": 118.71388999999999,
            "velocity": 0.4881889763779528
          },
          {
            "duration": 0.042857000000012135,
            "durationTicks": 96,
            "midi": 32,
            "name": "G#1",
            "ticks": 265920,
            "time": 118.71388999999999,
            "velocity": 0.4881889763779528
          },
          {
            "duration": 0.042857000000012135,
            "durationTicks": 96,
            "midi": 33,
            "name": "A1",
            "ticks": 265920,
            "time": 118.71388999999999,
            "velocity": 0.4881889763779528
          },
          {
            "duration": 0.042857000000012135,
            "durationTicks": 96,
            "midi": 32,
            "name": "G#1",
            "ticks": 265920,
            "time": 118.71388999999999,
            "velocity": 0.4881889763779528
          },
          {
            "duration": 0.042857000000012135,
            "durationTicks": 96,
            "midi": 38,
            "name": "D2",
            "ticks": 265920,
            "time": 118.71388999999999,
            "velocity": 0.4881889763779528
          },
          {
            "duration": 0.042857000000012135,
            "durationTicks": 96,
            "midi": 33,
            "name": "A1",
            "ticks": 265920,
            "time": 118.71388999999999,
            "velocity": 0.4881889763779528
          },
          {
            "duration": 0.042857000000012135,
            "durationTicks": 96,
            "midi": 40,
            "name": "E2",
            "ticks": 265920,
            "time": 118.71388999999999,
            "velocity": 0.4881889763779528
          },
          {
            "duration": 0.042857000000012135,
            "durationTicks": 96,
            "midi": 32,
            "name": "G#1",
            "ticks": 265920,
            "time": 118.71388999999999,
            "velocity": 0.4881889763779528
          },
          {
            "duration": 0.042857000000012135,
            "durationTicks": 96,
            "midi": 32,
            "name": "G#1",
            "ticks": 265920,
            "time": 118.71388999999999,
            "velocity": 0.4881889763779528
          },
          {
            "duration": 0.042857000000012135,
            "durationTicks": 96,
            "midi": 33,
            "name": "A1",
            "ticks": 265920,
            "time": 118.71388999999999,
            "velocity": 0.4881889763779528
          },
          {
            "duration": 0.042856999999997925,
            "durationTicks": 96,
            "midi": 37,
            "name": "C#2",
            "ticks": 266688,
            "time": 119.056746,
            "velocity": 0.4881889763779528
          },
          {
            "duration": 0.042856999999997925,
            "durationTicks": 96,
            "midi": 37,
            "name": "C#2",
            "ticks": 266688,
            "time": 119.056746,
            "velocity": 0.4881889763779528
          },
          {
            "duration": 0.042856999999997925,
            "durationTicks": 96,
            "midi": 45,
            "name": "A2",
            "ticks": 266688,
            "time": 119.056746,
            "velocity": 0.4881889763779528
          },
          {
            "duration": 0.042856999999997925,
            "durationTicks": 96,
            "midi": 35,
            "name": "B1",
            "ticks": 266688,
            "time": 119.056746,
            "velocity": 0.4881889763779528
          },
          {
            "duration": 0.042856999999997925,
            "durationTicks": 96,
            "midi": 35,
            "name": "B1",
            "ticks": 266688,
            "time": 119.056746,
            "velocity": 0.4881889763779528
          },
          {
            "duration": 0.042856999999997925,
            "durationTicks": 96,
            "midi": 37,
            "name": "C#2",
            "ticks": 266688,
            "time": 119.056746,
            "velocity": 0.4881889763779528
          },
          {
            "duration": 0.042856999999997925,
            "durationTicks": 96,
            "midi": 35,
            "name": "B1",
            "ticks": 266688,
            "time": 119.056746,
            "velocity": 0.4881889763779528
          },
          {
            "duration": 0.042856999999997925,
            "durationTicks": 96,
            "midi": 47,
            "name": "B2",
            "ticks": 266688,
            "time": 119.056746,
            "velocity": 0.4881889763779528
          },
          {
            "duration": 0.042856999999997925,
            "durationTicks": 96,
            "midi": 33,
            "name": "A1",
            "ticks": 267840,
            "time": 119.57103,
            "velocity": 0.4881889763779528
          },
          {
            "duration": 0.042856999999997925,
            "durationTicks": 96,
            "midi": 32,
            "name": "G#1",
            "ticks": 267840,
            "time": 119.57103,
            "velocity": 0.4881889763779528
          },
          {
            "duration": 0.042856999999997925,
            "durationTicks": 96,
            "midi": 40,
            "name": "E2",
            "ticks": 267840,
            "time": 119.57103,
            "velocity": 0.4881889763779528
          },
          {
            "duration": 0.042856999999997925,
            "durationTicks": 96,
            "midi": 32,
            "name": "G#1",
            "ticks": 267840,
            "time": 119.57103,
            "velocity": 0.4881889763779528
          },
          {
            "duration": 0.042856999999997925,
            "durationTicks": 96,
            "midi": 33,
            "name": "A1",
            "ticks": 267840,
            "time": 119.57103,
            "velocity": 0.4881889763779528
          },
          {
            "duration": 0.042856999999997925,
            "durationTicks": 96,
            "midi": 32,
            "name": "G#1",
            "ticks": 267840,
            "time": 119.57103,
            "velocity": 0.4881889763779528
          },
          {
            "duration": 0.042856999999997925,
            "durationTicks": 96,
            "midi": 32,
            "name": "G#1",
            "ticks": 267840,
            "time": 119.57103,
            "velocity": 0.4881889763779528
          },
          {
            "duration": 0.042856999999997925,
            "durationTicks": 96,
            "midi": 38,
            "name": "D2",
            "ticks": 267840,
            "time": 119.57103,
            "velocity": 0.4881889763779528
          },
          {
            "duration": 0.042856999999997925,
            "durationTicks": 96,
            "midi": 33,
            "name": "A1",
            "ticks": 267840,
            "time": 119.57103,
            "velocity": 0.4881889763779528
          },
          {
            "duration": 0.042856999999997925,
            "durationTicks": 96,
            "midi": 33,
            "name": "A1",
            "ticks": 267840,
            "time": 119.57103,
            "velocity": 0.4881889763779528
          },
          {
            "duration": 0.042856999999997925,
            "durationTicks": 96,
            "midi": 37,
            "name": "C#2",
            "ticks": 268224,
            "time": 119.742458,
            "velocity": 0.4881889763779528
          },
          {
            "duration": 0.042856999999997925,
            "durationTicks": 96,
            "midi": 47,
            "name": "B2",
            "ticks": 268224,
            "time": 119.742458,
            "velocity": 0.4881889763779528
          },
          {
            "duration": 0.042856999999997925,
            "durationTicks": 96,
            "midi": 37,
            "name": "C#2",
            "ticks": 268224,
            "time": 119.742458,
            "velocity": 0.4881889763779528
          },
          {
            "duration": 0.042856999999997925,
            "durationTicks": 96,
            "midi": 35,
            "name": "B1",
            "ticks": 268224,
            "time": 119.742458,
            "velocity": 0.4881889763779528
          },
          {
            "duration": 0.042856999999997925,
            "durationTicks": 96,
            "midi": 35,
            "name": "B1",
            "ticks": 268224,
            "time": 119.742458,
            "velocity": 0.4881889763779528
          },
          {
            "duration": 0.042856999999997925,
            "durationTicks": 96,
            "midi": 37,
            "name": "C#2",
            "ticks": 268224,
            "time": 119.742458,
            "velocity": 0.4881889763779528
          },
          {
            "duration": 0.042856999999997925,
            "durationTicks": 96,
            "midi": 35,
            "name": "B1",
            "ticks": 268224,
            "time": 119.742458,
            "velocity": 0.4881889763779528
          },
          {
            "duration": 0.042856999999997925,
            "durationTicks": 96,
            "midi": 45,
            "name": "A2",
            "ticks": 268224,
            "time": 119.742458,
            "velocity": 0.4881889763779528
          },
          {
            "duration": 0.042857000000012135,
            "durationTicks": 96,
            "midi": 33,
            "name": "A1",
            "ticks": 268608,
            "time": 119.91388599999999,
            "velocity": 0.4881889763779528
          },
          {
            "duration": 0.042857000000012135,
            "durationTicks": 96,
            "midi": 32,
            "name": "G#1",
            "ticks": 268608,
            "time": 119.91388599999999,
            "velocity": 0.4881889763779528
          },
          {
            "duration": 0.042857000000012135,
            "durationTicks": 96,
            "midi": 40,
            "name": "E2",
            "ticks": 268608,
            "time": 119.91388599999999,
            "velocity": 0.4881889763779528
          },
          {
            "duration": 0.042857000000012135,
            "durationTicks": 96,
            "midi": 32,
            "name": "G#1",
            "ticks": 268608,
            "time": 119.91388599999999,
            "velocity": 0.4881889763779528
          },
          {
            "duration": 0.042857000000012135,
            "durationTicks": 96,
            "midi": 32,
            "name": "G#1",
            "ticks": 268608,
            "time": 119.91388599999999,
            "velocity": 0.4881889763779528
          },
          {
            "duration": 0.042857000000012135,
            "durationTicks": 96,
            "midi": 33,
            "name": "A1",
            "ticks": 268608,
            "time": 119.91388599999999,
            "velocity": 0.4881889763779528
          },
          {
            "duration": 0.042857000000012135,
            "durationTicks": 96,
            "midi": 32,
            "name": "G#1",
            "ticks": 268608,
            "time": 119.91388599999999,
            "velocity": 0.4881889763779528
          },
          {
            "duration": 0.042857000000012135,
            "durationTicks": 96,
            "midi": 33,
            "name": "A1",
            "ticks": 268608,
            "time": 119.91388599999999,
            "velocity": 0.4881889763779528
          },
          {
            "duration": 0.042857000000012135,
            "durationTicks": 96,
            "midi": 33,
            "name": "A1",
            "ticks": 268608,
            "time": 119.91388599999999,
            "velocity": 0.4881889763779528
          },
          {
            "duration": 0.042857000000012135,
            "durationTicks": 96,
            "midi": 38,
            "name": "D2",
            "ticks": 268608,
            "time": 119.91388599999999,
            "velocity": 0.4881889763779528
          },
          {
            "duration": 0.042856999999997925,
            "durationTicks": 96,
            "midi": 38,
            "name": "D2",
            "ticks": 268992,
            "time": 120.085314,
            "velocity": 0.4881889763779528
          },
          {
            "duration": 0.042856999999997925,
            "durationTicks": 96,
            "midi": 40,
            "name": "E2",
            "ticks": 268992,
            "time": 120.085314,
            "velocity": 0.4881889763779528
          },
          {
            "duration": 0.042856999999997925,
            "durationTicks": 96,
            "midi": 33,
            "name": "A1",
            "ticks": 268992,
            "time": 120.085314,
            "velocity": 0.4881889763779528
          },
          {
            "duration": 0.042856999999997925,
            "durationTicks": 96,
            "midi": 33,
            "name": "A1",
            "ticks": 268992,
            "time": 120.085314,
            "velocity": 0.4881889763779528
          },
          {
            "duration": 0.042856999999997925,
            "durationTicks": 96,
            "midi": 32,
            "name": "G#1",
            "ticks": 268992,
            "time": 120.085314,
            "velocity": 0.4881889763779528
          },
          {
            "duration": 0.042856999999997925,
            "durationTicks": 96,
            "midi": 33,
            "name": "A1",
            "ticks": 268992,
            "time": 120.085314,
            "velocity": 0.4881889763779528
          },
          {
            "duration": 0.042856999999997925,
            "durationTicks": 96,
            "midi": 33,
            "name": "A1",
            "ticks": 268992,
            "time": 120.085314,
            "velocity": 0.4881889763779528
          },
          {
            "duration": 0.042856999999997925,
            "durationTicks": 96,
            "midi": 32,
            "name": "G#1",
            "ticks": 268992,
            "time": 120.085314,
            "velocity": 0.4881889763779528
          },
          {
            "duration": 0.042856999999997925,
            "durationTicks": 96,
            "midi": 32,
            "name": "G#1",
            "ticks": 268992,
            "time": 120.085314,
            "velocity": 0.4881889763779528
          },
          {
            "duration": 0.042856999999997925,
            "durationTicks": 96,
            "midi": 32,
            "name": "G#1",
            "ticks": 268992,
            "time": 120.085314,
            "velocity": 0.4881889763779528
          },
          {
            "duration": 0.042856999999997925,
            "durationTicks": 96,
            "midi": 35,
            "name": "B1",
            "ticks": 269760,
            "time": 120.42817,
            "velocity": 0.4881889763779528
          },
          {
            "duration": 0.042856999999997925,
            "durationTicks": 96,
            "midi": 35,
            "name": "B1",
            "ticks": 269760,
            "time": 120.42817,
            "velocity": 0.4881889763779528
          },
          {
            "duration": 0.042856999999997925,
            "durationTicks": 96,
            "midi": 47,
            "name": "B2",
            "ticks": 269760,
            "time": 120.42817,
            "velocity": 0.4881889763779528
          },
          {
            "duration": 0.042856999999997925,
            "durationTicks": 96,
            "midi": 37,
            "name": "C#2",
            "ticks": 269760,
            "time": 120.42817,
            "velocity": 0.4881889763779528
          },
          {
            "duration": 0.042856999999997925,
            "durationTicks": 96,
            "midi": 35,
            "name": "B1",
            "ticks": 269760,
            "time": 120.42817,
            "velocity": 0.4881889763779528
          },
          {
            "duration": 0.042856999999997925,
            "durationTicks": 96,
            "midi": 37,
            "name": "C#2",
            "ticks": 269760,
            "time": 120.42817,
            "velocity": 0.4881889763779528
          },
          {
            "duration": 0.042856999999997925,
            "durationTicks": 96,
            "midi": 37,
            "name": "C#2",
            "ticks": 269760,
            "time": 120.42817,
            "velocity": 0.4881889763779528
          },
          {
            "duration": 0.042856999999997925,
            "durationTicks": 96,
            "midi": 45,
            "name": "A2",
            "ticks": 269760,
            "time": 120.42817,
            "velocity": 0.4881889763779528
          },
          {
            "duration": 0.042856999999997925,
            "durationTicks": 96,
            "midi": 33,
            "name": "A1",
            "ticks": 270912,
            "time": 120.942454,
            "velocity": 0.4881889763779528
          },
          {
            "duration": 0.042856999999997925,
            "durationTicks": 96,
            "midi": 33,
            "name": "A1",
            "ticks": 270912,
            "time": 120.942454,
            "velocity": 0.4881889763779528
          },
          {
            "duration": 0.042856999999997925,
            "durationTicks": 96,
            "midi": 32,
            "name": "G#1",
            "ticks": 270912,
            "time": 120.942454,
            "velocity": 0.4881889763779528
          },
          {
            "duration": 0.042856999999997925,
            "durationTicks": 96,
            "midi": 33,
            "name": "A1",
            "ticks": 270912,
            "time": 120.942454,
            "velocity": 0.4881889763779528
          },
          {
            "duration": 0.042856999999997925,
            "durationTicks": 96,
            "midi": 40,
            "name": "E2",
            "ticks": 270912,
            "time": 120.942454,
            "velocity": 0.4881889763779528
          },
          {
            "duration": 0.042856999999997925,
            "durationTicks": 96,
            "midi": 32,
            "name": "G#1",
            "ticks": 270912,
            "time": 120.942454,
            "velocity": 0.4881889763779528
          },
          {
            "duration": 0.042856999999997925,
            "durationTicks": 96,
            "midi": 38,
            "name": "D2",
            "ticks": 270912,
            "time": 120.942454,
            "velocity": 0.4881889763779528
          },
          {
            "duration": 0.042856999999997925,
            "durationTicks": 96,
            "midi": 33,
            "name": "A1",
            "ticks": 270912,
            "time": 120.942454,
            "velocity": 0.4881889763779528
          },
          {
            "duration": 0.042856999999997925,
            "durationTicks": 96,
            "midi": 32,
            "name": "G#1",
            "ticks": 270912,
            "time": 120.942454,
            "velocity": 0.4881889763779528
          },
          {
            "duration": 0.042856999999997925,
            "durationTicks": 96,
            "midi": 32,
            "name": "G#1",
            "ticks": 270912,
            "time": 120.942454,
            "velocity": 0.4881889763779528
          },
          {
            "duration": 0.042856999999997925,
            "durationTicks": 96,
            "midi": 35,
            "name": "B1",
            "ticks": 271296,
            "time": 121.113882,
            "velocity": 0.4881889763779528
          },
          {
            "duration": 0.042856999999997925,
            "durationTicks": 96,
            "midi": 37,
            "name": "C#2",
            "ticks": 271296,
            "time": 121.113882,
            "velocity": 0.4881889763779528
          },
          {
            "duration": 0.042856999999997925,
            "durationTicks": 96,
            "midi": 37,
            "name": "C#2",
            "ticks": 271296,
            "time": 121.113882,
            "velocity": 0.4881889763779528
          },
          {
            "duration": 0.042856999999997925,
            "durationTicks": 96,
            "midi": 47,
            "name": "B2",
            "ticks": 271296,
            "time": 121.113882,
            "velocity": 0.4881889763779528
          },
          {
            "duration": 0.042856999999997925,
            "durationTicks": 96,
            "midi": 35,
            "name": "B1",
            "ticks": 271296,
            "time": 121.113882,
            "velocity": 0.4881889763779528
          },
          {
            "duration": 0.042856999999997925,
            "durationTicks": 96,
            "midi": 45,
            "name": "A2",
            "ticks": 271296,
            "time": 121.113882,
            "velocity": 0.4881889763779528
          },
          {
            "duration": 0.042856999999997925,
            "durationTicks": 96,
            "midi": 37,
            "name": "C#2",
            "ticks": 271296,
            "time": 121.113882,
            "velocity": 0.4881889763779528
          },
          {
            "duration": 0.042856999999997925,
            "durationTicks": 96,
            "midi": 35,
            "name": "B1",
            "ticks": 271296,
            "time": 121.113882,
            "velocity": 0.4881889763779528
          },
          {
            "duration": 0.042856999999997925,
            "durationTicks": 96,
            "midi": 40,
            "name": "E2",
            "ticks": 272064,
            "time": 121.456738,
            "velocity": 0.4881889763779528
          },
          {
            "duration": 0.042856999999997925,
            "durationTicks": 96,
            "midi": 38,
            "name": "D2",
            "ticks": 272064,
            "time": 121.456738,
            "velocity": 0.4881889763779528
          },
          {
            "duration": 0.042856999999997925,
            "durationTicks": 96,
            "midi": 33,
            "name": "A1",
            "ticks": 272064,
            "time": 121.456738,
            "velocity": 0.4881889763779528
          },
          {
            "duration": 0.042856999999997925,
            "durationTicks": 96,
            "midi": 32,
            "name": "G#1",
            "ticks": 272064,
            "time": 121.456738,
            "velocity": 0.4881889763779528
          },
          {
            "duration": 0.042856999999997925,
            "durationTicks": 96,
            "midi": 33,
            "name": "A1",
            "ticks": 272064,
            "time": 121.456738,
            "velocity": 0.4881889763779528
          },
          {
            "duration": 0.042856999999997925,
            "durationTicks": 96,
            "midi": 32,
            "name": "G#1",
            "ticks": 272064,
            "time": 121.456738,
            "velocity": 0.4881889763779528
          },
          {
            "duration": 0.042856999999997925,
            "durationTicks": 96,
            "midi": 32,
            "name": "G#1",
            "ticks": 272064,
            "time": 121.456738,
            "velocity": 0.4881889763779528
          },
          {
            "duration": 0.042856999999997925,
            "durationTicks": 96,
            "midi": 33,
            "name": "A1",
            "ticks": 272064,
            "time": 121.456738,
            "velocity": 0.4881889763779528
          },
          {
            "duration": 0.042856999999997925,
            "durationTicks": 96,
            "midi": 33,
            "name": "A1",
            "ticks": 272064,
            "time": 121.456738,
            "velocity": 0.4881889763779528
          },
          {
            "duration": 0.042856999999997925,
            "durationTicks": 96,
            "midi": 32,
            "name": "G#1",
            "ticks": 272064,
            "time": 121.456738,
            "velocity": 0.4881889763779528
          },
          {
            "duration": 0.042856999999997925,
            "durationTicks": 96,
            "midi": 37,
            "name": "C#2",
            "ticks": 272832,
            "time": 121.799594,
            "velocity": 0.4881889763779528
          },
          {
            "duration": 0.042856999999997925,
            "durationTicks": 96,
            "midi": 45,
            "name": "A2",
            "ticks": 272832,
            "time": 121.799594,
            "velocity": 0.4881889763779528
          },
          {
            "duration": 0.042856999999997925,
            "durationTicks": 96,
            "midi": 37,
            "name": "C#2",
            "ticks": 272832,
            "time": 121.799594,
            "velocity": 0.4881889763779528
          },
          {
            "duration": 0.042856999999997925,
            "durationTicks": 96,
            "midi": 35,
            "name": "B1",
            "ticks": 272832,
            "time": 121.799594,
            "velocity": 0.4881889763779528
          },
          {
            "duration": 0.042856999999997925,
            "durationTicks": 96,
            "midi": 47,
            "name": "B2",
            "ticks": 272832,
            "time": 121.799594,
            "velocity": 0.4881889763779528
          },
          {
            "duration": 0.042856999999997925,
            "durationTicks": 96,
            "midi": 37,
            "name": "C#2",
            "ticks": 272832,
            "time": 121.799594,
            "velocity": 0.4881889763779528
          },
          {
            "duration": 0.042856999999997925,
            "durationTicks": 96,
            "midi": 35,
            "name": "B1",
            "ticks": 272832,
            "time": 121.799594,
            "velocity": 0.4881889763779528
          },
          {
            "duration": 0.042856999999997925,
            "durationTicks": 96,
            "midi": 35,
            "name": "B1",
            "ticks": 272832,
            "time": 121.799594,
            "velocity": 0.4881889763779528
          },
          {
            "duration": 0.042856999999997925,
            "durationTicks": 96,
            "midi": 33,
            "name": "A1",
            "ticks": 273984,
            "time": 122.313878,
            "velocity": 0.4881889763779528
          },
          {
            "duration": 0.042856999999997925,
            "durationTicks": 96,
            "midi": 40,
            "name": "E2",
            "ticks": 273984,
            "time": 122.313878,
            "velocity": 0.4881889763779528
          },
          {
            "duration": 0.042856999999997925,
            "durationTicks": 96,
            "midi": 32,
            "name": "G#1",
            "ticks": 273984,
            "time": 122.313878,
            "velocity": 0.4881889763779528
          },
          {
            "duration": 0.042856999999997925,
            "durationTicks": 96,
            "midi": 38,
            "name": "D2",
            "ticks": 273984,
            "time": 122.313878,
            "velocity": 0.4881889763779528
          },
          {
            "duration": 0.042856999999997925,
            "durationTicks": 96,
            "midi": 32,
            "name": "G#1",
            "ticks": 273984,
            "time": 122.313878,
            "velocity": 0.4881889763779528
          },
          {
            "duration": 0.042856999999997925,
            "durationTicks": 96,
            "midi": 33,
            "name": "A1",
            "ticks": 273984,
            "time": 122.313878,
            "velocity": 0.4881889763779528
          },
          {
            "duration": 0.042856999999997925,
            "durationTicks": 96,
            "midi": 33,
            "name": "A1",
            "ticks": 273984,
            "time": 122.313878,
            "velocity": 0.4881889763779528
          },
          {
            "duration": 0.042856999999997925,
            "durationTicks": 96,
            "midi": 32,
            "name": "G#1",
            "ticks": 273984,
            "time": 122.313878,
            "velocity": 0.4881889763779528
          },
          {
            "duration": 0.042856999999997925,
            "durationTicks": 96,
            "midi": 33,
            "name": "A1",
            "ticks": 273984,
            "time": 122.313878,
            "velocity": 0.4881889763779528
          },
          {
            "duration": 0.042856999999997925,
            "durationTicks": 96,
            "midi": 32,
            "name": "G#1",
            "ticks": 273984,
            "time": 122.313878,
            "velocity": 0.4881889763779528
          },
          {
            "duration": 0.042856999999997925,
            "durationTicks": 96,
            "midi": 33,
            "name": "A1",
            "ticks": 274176,
            "time": 122.399592,
            "velocity": 0.4881889763779528
          },
          {
            "duration": 0.042856999999997925,
            "durationTicks": 96,
            "midi": 32,
            "name": "G#1",
            "ticks": 274176,
            "time": 122.399592,
            "velocity": 0.4881889763779528
          },
          {
            "duration": 0.042856999999997925,
            "durationTicks": 96,
            "midi": 33,
            "name": "A1",
            "ticks": 274176,
            "time": 122.399592,
            "velocity": 0.4881889763779528
          },
          {
            "duration": 0.042856999999997925,
            "durationTicks": 96,
            "midi": 33,
            "name": "A1",
            "ticks": 274176,
            "time": 122.399592,
            "velocity": 0.4881889763779528
          },
          {
            "duration": 0.042856999999997925,
            "durationTicks": 96,
            "midi": 32,
            "name": "G#1",
            "ticks": 274176,
            "time": 122.399592,
            "velocity": 0.4881889763779528
          },
          {
            "duration": 0.042856999999997925,
            "durationTicks": 96,
            "midi": 38,
            "name": "D2",
            "ticks": 274176,
            "time": 122.399592,
            "velocity": 0.4881889763779528
          },
          {
            "duration": 0.042856999999997925,
            "durationTicks": 96,
            "midi": 32,
            "name": "G#1",
            "ticks": 274176,
            "time": 122.399592,
            "velocity": 0.4881889763779528
          },
          {
            "duration": 0.042856999999997925,
            "durationTicks": 96,
            "midi": 40,
            "name": "E2",
            "ticks": 274176,
            "time": 122.399592,
            "velocity": 0.4881889763779528
          },
          {
            "duration": 0.042856999999997925,
            "durationTicks": 96,
            "midi": 33,
            "name": "A1",
            "ticks": 274176,
            "time": 122.399592,
            "velocity": 0.4881889763779528
          },
          {
            "duration": 0.042856999999997925,
            "durationTicks": 96,
            "midi": 32,
            "name": "G#1",
            "ticks": 274176,
            "time": 122.399592,
            "velocity": 0.4881889763779528
          },
          {
            "duration": 0.042856999999997925,
            "durationTicks": 96,
            "midi": 47,
            "name": "B2",
            "ticks": 274368,
            "time": 122.485306,
            "velocity": 0.4881889763779528
          },
          {
            "duration": 0.042856999999997925,
            "durationTicks": 96,
            "midi": 37,
            "name": "C#2",
            "ticks": 274368,
            "time": 122.485306,
            "velocity": 0.4881889763779528
          },
          {
            "duration": 0.042856999999997925,
            "durationTicks": 96,
            "midi": 45,
            "name": "A2",
            "ticks": 274368,
            "time": 122.485306,
            "velocity": 0.4881889763779528
          },
          {
            "duration": 0.042856999999997925,
            "durationTicks": 96,
            "midi": 35,
            "name": "B1",
            "ticks": 274368,
            "time": 122.485306,
            "velocity": 0.4881889763779528
          },
          {
            "duration": 0.042856999999997925,
            "durationTicks": 96,
            "midi": 35,
            "name": "B1",
            "ticks": 274368,
            "time": 122.485306,
            "velocity": 0.4881889763779528
          },
          {
            "duration": 0.042856999999997925,
            "durationTicks": 96,
            "midi": 35,
            "name": "B1",
            "ticks": 274368,
            "time": 122.485306,
            "velocity": 0.4881889763779528
          },
          {
            "duration": 0.042856999999997925,
            "durationTicks": 96,
            "midi": 37,
            "name": "C#2",
            "ticks": 274368,
            "time": 122.485306,
            "velocity": 0.4881889763779528
          },
          {
            "duration": 0.042856999999997925,
            "durationTicks": 96,
            "midi": 37,
            "name": "C#2",
            "ticks": 274368,
            "time": 122.485306,
            "velocity": 0.4881889763779528
          },
          {
            "duration": 0.042856999999997925,
            "durationTicks": 96,
            "midi": 40,
            "name": "E2",
            "ticks": 274752,
            "time": 122.656734,
            "velocity": 0.4881889763779528
          },
          {
            "duration": 0.042856999999997925,
            "durationTicks": 96,
            "midi": 32,
            "name": "G#1",
            "ticks": 274752,
            "time": 122.656734,
            "velocity": 0.4881889763779528
          },
          {
            "duration": 0.042856999999997925,
            "durationTicks": 96,
            "midi": 33,
            "name": "A1",
            "ticks": 274752,
            "time": 122.656734,
            "velocity": 0.4881889763779528
          },
          {
            "duration": 0.042856999999997925,
            "durationTicks": 96,
            "midi": 33,
            "name": "A1",
            "ticks": 274752,
            "time": 122.656734,
            "velocity": 0.4881889763779528
          },
          {
            "duration": 0.042856999999997925,
            "durationTicks": 96,
            "midi": 32,
            "name": "G#1",
            "ticks": 274752,
            "time": 122.656734,
            "velocity": 0.4881889763779528
          },
          {
            "duration": 0.042856999999997925,
            "durationTicks": 96,
            "midi": 32,
            "name": "G#1",
            "ticks": 274752,
            "time": 122.656734,
            "velocity": 0.4881889763779528
          },
          {
            "duration": 0.042856999999997925,
            "durationTicks": 96,
            "midi": 33,
            "name": "A1",
            "ticks": 274752,
            "time": 122.656734,
            "velocity": 0.4881889763779528
          },
          {
            "duration": 0.042856999999997925,
            "durationTicks": 96,
            "midi": 32,
            "name": "G#1",
            "ticks": 274752,
            "time": 122.656734,
            "velocity": 0.4881889763779528
          },
          {
            "duration": 0.042856999999997925,
            "durationTicks": 96,
            "midi": 33,
            "name": "A1",
            "ticks": 274752,
            "time": 122.656734,
            "velocity": 0.4881889763779528
          },
          {
            "duration": 0.042856999999997925,
            "durationTicks": 96,
            "midi": 38,
            "name": "D2",
            "ticks": 274752,
            "time": 122.656734,
            "velocity": 0.4881889763779528
          },
          {
            "duration": 0.042857000000012135,
            "durationTicks": 96,
            "midi": 33,
            "name": "A1",
            "ticks": 275136,
            "time": 122.82816199999999,
            "velocity": 0.4881889763779528
          },
          {
            "duration": 0.042857000000012135,
            "durationTicks": 96,
            "midi": 32,
            "name": "G#1",
            "ticks": 275136,
            "time": 122.82816199999999,
            "velocity": 0.4881889763779528
          },
          {
            "duration": 0.042857000000012135,
            "durationTicks": 96,
            "midi": 32,
            "name": "G#1",
            "ticks": 275136,
            "time": 122.82816199999999,
            "velocity": 0.4881889763779528
          },
          {
            "duration": 0.042857000000012135,
            "durationTicks": 96,
            "midi": 32,
            "name": "G#1",
            "ticks": 275136,
            "time": 122.82816199999999,
            "velocity": 0.4881889763779528
          },
          {
            "duration": 0.042857000000012135,
            "durationTicks": 96,
            "midi": 33,
            "name": "A1",
            "ticks": 275136,
            "time": 122.82816199999999,
            "velocity": 0.4881889763779528
          },
          {
            "duration": 0.042857000000012135,
            "durationTicks": 96,
            "midi": 33,
            "name": "A1",
            "ticks": 275136,
            "time": 122.82816199999999,
            "velocity": 0.4881889763779528
          },
          {
            "duration": 0.042857000000012135,
            "durationTicks": 96,
            "midi": 40,
            "name": "E2",
            "ticks": 275136,
            "time": 122.82816199999999,
            "velocity": 0.4881889763779528
          },
          {
            "duration": 0.042857000000012135,
            "durationTicks": 96,
            "midi": 33,
            "name": "A1",
            "ticks": 275136,
            "time": 122.82816199999999,
            "velocity": 0.4881889763779528
          },
          {
            "duration": 0.042857000000012135,
            "durationTicks": 96,
            "midi": 38,
            "name": "D2",
            "ticks": 275136,
            "time": 122.82816199999999,
            "velocity": 0.4881889763779528
          },
          {
            "duration": 0.042857000000012135,
            "durationTicks": 96,
            "midi": 32,
            "name": "G#1",
            "ticks": 275136,
            "time": 122.82816199999999,
            "velocity": 0.4881889763779528
          },
          {
            "duration": 0.042856999999997925,
            "durationTicks": 96,
            "midi": 35,
            "name": "B1",
            "ticks": 275904,
            "time": 123.171018,
            "velocity": 0.4881889763779528
          },
          {
            "duration": 0.042856999999997925,
            "durationTicks": 96,
            "midi": 45,
            "name": "A2",
            "ticks": 275904,
            "time": 123.171018,
            "velocity": 0.4881889763779528
          },
          {
            "duration": 0.042856999999997925,
            "durationTicks": 96,
            "midi": 37,
            "name": "C#2",
            "ticks": 275904,
            "time": 123.171018,
            "velocity": 0.4881889763779528
          },
          {
            "duration": 0.042856999999997925,
            "durationTicks": 96,
            "midi": 47,
            "name": "B2",
            "ticks": 275904,
            "time": 123.171018,
            "velocity": 0.4881889763779528
          },
          {
            "duration": 0.042856999999997925,
            "durationTicks": 96,
            "midi": 37,
            "name": "C#2",
            "ticks": 275904,
            "time": 123.171018,
            "velocity": 0.4881889763779528
          },
          {
            "duration": 0.042856999999997925,
            "durationTicks": 96,
            "midi": 35,
            "name": "B1",
            "ticks": 275904,
            "time": 123.171018,
            "velocity": 0.4881889763779528
          },
          {
            "duration": 0.042856999999997925,
            "durationTicks": 96,
            "midi": 37,
            "name": "C#2",
            "ticks": 275904,
            "time": 123.171018,
            "velocity": 0.4881889763779528
          },
          {
            "duration": 0.042856999999997925,
            "durationTicks": 96,
            "midi": 35,
            "name": "B1",
            "ticks": 275904,
            "time": 123.171018,
            "velocity": 0.4881889763779528
          },
          {
            "duration": 0.042856999999997925,
            "durationTicks": 96,
            "midi": 33,
            "name": "A1",
            "ticks": 277056,
            "time": 123.685302,
            "velocity": 0.4881889763779528
          },
          {
            "duration": 0.042856999999997925,
            "durationTicks": 96,
            "midi": 32,
            "name": "G#1",
            "ticks": 277056,
            "time": 123.685302,
            "velocity": 0.4881889763779528
          },
          {
            "duration": 0.042856999999997925,
            "durationTicks": 96,
            "midi": 32,
            "name": "G#1",
            "ticks": 277056,
            "time": 123.685302,
            "velocity": 0.4881889763779528
          },
          {
            "duration": 0.042856999999997925,
            "durationTicks": 96,
            "midi": 32,
            "name": "G#1",
            "ticks": 277056,
            "time": 123.685302,
            "velocity": 0.4881889763779528
          },
          {
            "duration": 0.042856999999997925,
            "durationTicks": 96,
            "midi": 33,
            "name": "A1",
            "ticks": 277056,
            "time": 123.685302,
            "velocity": 0.4881889763779528
          },
          {
            "duration": 0.042856999999997925,
            "durationTicks": 96,
            "midi": 40,
            "name": "E2",
            "ticks": 277056,
            "time": 123.685302,
            "velocity": 0.4881889763779528
          },
          {
            "duration": 0.042856999999997925,
            "durationTicks": 96,
            "midi": 33,
            "name": "A1",
            "ticks": 277056,
            "time": 123.685302,
            "velocity": 0.4881889763779528
          },
          {
            "duration": 0.042856999999997925,
            "durationTicks": 96,
            "midi": 32,
            "name": "G#1",
            "ticks": 277056,
            "time": 123.685302,
            "velocity": 0.4881889763779528
          },
          {
            "duration": 0.042856999999997925,
            "durationTicks": 96,
            "midi": 33,
            "name": "A1",
            "ticks": 277056,
            "time": 123.685302,
            "velocity": 0.4881889763779528
          },
          {
            "duration": 0.042856999999997925,
            "durationTicks": 96,
            "midi": 38,
            "name": "D2",
            "ticks": 277056,
            "time": 123.685302,
            "velocity": 0.4881889763779528
          },
          {
            "duration": 0.042856999999997925,
            "durationTicks": 96,
            "midi": 37,
            "name": "C#2",
            "ticks": 277440,
            "time": 123.85673,
            "velocity": 0.4881889763779528
          },
          {
            "duration": 0.042856999999997925,
            "durationTicks": 96,
            "midi": 47,
            "name": "B2",
            "ticks": 277440,
            "time": 123.85673,
            "velocity": 0.4881889763779528
          },
          {
            "duration": 0.042856999999997925,
            "durationTicks": 96,
            "midi": 35,
            "name": "B1",
            "ticks": 277440,
            "time": 123.85673,
            "velocity": 0.4881889763779528
          },
          {
            "duration": 0.042856999999997925,
            "durationTicks": 96,
            "midi": 35,
            "name": "B1",
            "ticks": 277440,
            "time": 123.85673,
            "velocity": 0.4881889763779528
          },
          {
            "duration": 0.042856999999997925,
            "durationTicks": 96,
            "midi": 37,
            "name": "C#2",
            "ticks": 277440,
            "time": 123.85673,
            "velocity": 0.4881889763779528
          },
          {
            "duration": 0.042856999999997925,
            "durationTicks": 96,
            "midi": 37,
            "name": "C#2",
            "ticks": 277440,
            "time": 123.85673,
            "velocity": 0.4881889763779528
          },
          {
            "duration": 0.042856999999997925,
            "durationTicks": 96,
            "midi": 35,
            "name": "B1",
            "ticks": 277440,
            "time": 123.85673,
            "velocity": 0.4881889763779528
          },
          {
            "duration": 0.042856999999997925,
            "durationTicks": 96,
            "midi": 40,
            "name": "E2",
            "ticks": 278208,
            "time": 124.199586,
            "velocity": 0.4881889763779528
          },
          {
            "duration": 0.042856999999997925,
            "durationTicks": 96,
            "midi": 32,
            "name": "G#1",
            "ticks": 278208,
            "time": 124.199586,
            "velocity": 0.4881889763779528
          },
          {
            "duration": 0.042856999999997925,
            "durationTicks": 96,
            "midi": 33,
            "name": "A1",
            "ticks": 278208,
            "time": 124.199586,
            "velocity": 0.4881889763779528
          },
          {
            "duration": 0.042856999999997925,
            "durationTicks": 96,
            "midi": 38,
            "name": "D2",
            "ticks": 278208,
            "time": 124.199586,
            "velocity": 0.4881889763779528
          },
          {
            "duration": 0.042856999999997925,
            "durationTicks": 96,
            "midi": 33,
            "name": "A1",
            "ticks": 278208,
            "time": 124.199586,
            "velocity": 0.4881889763779528
          },
          {
            "duration": 0.042856999999997925,
            "durationTicks": 96,
            "midi": 33,
            "name": "A1",
            "ticks": 278208,
            "time": 124.199586,
            "velocity": 0.4881889763779528
          },
          {
            "duration": 0.042856999999997925,
            "durationTicks": 96,
            "midi": 33,
            "name": "A1",
            "ticks": 278208,
            "time": 124.199586,
            "velocity": 0.4881889763779528
          },
          {
            "duration": 0.042856999999997925,
            "durationTicks": 96,
            "midi": 32,
            "name": "G#1",
            "ticks": 278208,
            "time": 124.199586,
            "velocity": 0.4881889763779528
          },
          {
            "duration": 0.042856999999997925,
            "durationTicks": 96,
            "midi": 32,
            "name": "G#1",
            "ticks": 278208,
            "time": 124.199586,
            "velocity": 0.4881889763779528
          },
          {
            "duration": 0.042856999999997925,
            "durationTicks": 96,
            "midi": 32,
            "name": "G#1",
            "ticks": 278208,
            "time": 124.199586,
            "velocity": 0.4881889763779528
          },
          {
            "duration": 0.042856999999997925,
            "durationTicks": 96,
            "midi": 37,
            "name": "C#2",
            "ticks": 278976,
            "time": 124.542442,
            "velocity": 0.4881889763779528
          },
          {
            "duration": 0.042856999999997925,
            "durationTicks": 96,
            "midi": 35,
            "name": "B1",
            "ticks": 278976,
            "time": 124.542442,
            "velocity": 0.4881889763779528
          },
          {
            "duration": 0.042856999999997925,
            "durationTicks": 96,
            "midi": 45,
            "name": "A2",
            "ticks": 278976,
            "time": 124.542442,
            "velocity": 0.4881889763779528
          },
          {
            "duration": 0.042856999999997925,
            "durationTicks": 96,
            "midi": 35,
            "name": "B1",
            "ticks": 278976,
            "time": 124.542442,
            "velocity": 0.4881889763779528
          },
          {
            "duration": 0.042856999999997925,
            "durationTicks": 96,
            "midi": 47,
            "name": "B2",
            "ticks": 278976,
            "time": 124.542442,
            "velocity": 0.4881889763779528
          },
          {
            "duration": 0.042856999999997925,
            "durationTicks": 96,
            "midi": 37,
            "name": "C#2",
            "ticks": 278976,
            "time": 124.542442,
            "velocity": 0.4881889763779528
          },
          {
            "duration": 0.042856999999997925,
            "durationTicks": 96,
            "midi": 37,
            "name": "C#2",
            "ticks": 278976,
            "time": 124.542442,
            "velocity": 0.4881889763779528
          },
          {
            "duration": 0.042856999999997925,
            "durationTicks": 96,
            "midi": 35,
            "name": "B1",
            "ticks": 278976,
            "time": 124.542442,
            "velocity": 0.4881889763779528
          },
          {
            "duration": 0.042856999999997925,
            "durationTicks": 96,
            "midi": 32,
            "name": "G#1",
            "ticks": 280128,
            "time": 125.056726,
            "velocity": 0.4881889763779528
          },
          {
            "duration": 0.042856999999997925,
            "durationTicks": 96,
            "midi": 33,
            "name": "A1",
            "ticks": 280128,
            "time": 125.056726,
            "velocity": 0.4881889763779528
          },
          {
            "duration": 0.042856999999997925,
            "durationTicks": 96,
            "midi": 33,
            "name": "A1",
            "ticks": 280128,
            "time": 125.056726,
            "velocity": 0.4881889763779528
          },
          {
            "duration": 0.042856999999997925,
            "durationTicks": 96,
            "midi": 33,
            "name": "A1",
            "ticks": 280128,
            "time": 125.056726,
            "velocity": 0.4881889763779528
          },
          {
            "duration": 0.042856999999997925,
            "durationTicks": 96,
            "midi": 32,
            "name": "G#1",
            "ticks": 280128,
            "time": 125.056726,
            "velocity": 0.4881889763779528
          },
          {
            "duration": 0.042856999999997925,
            "durationTicks": 96,
            "midi": 38,
            "name": "D2",
            "ticks": 280128,
            "time": 125.056726,
            "velocity": 0.4881889763779528
          },
          {
            "duration": 0.042856999999997925,
            "durationTicks": 96,
            "midi": 40,
            "name": "E2",
            "ticks": 280128,
            "time": 125.056726,
            "velocity": 0.4881889763779528
          },
          {
            "duration": 0.042856999999997925,
            "durationTicks": 96,
            "midi": 32,
            "name": "G#1",
            "ticks": 280128,
            "time": 125.056726,
            "velocity": 0.4881889763779528
          },
          {
            "duration": 0.042856999999997925,
            "durationTicks": 96,
            "midi": 32,
            "name": "G#1",
            "ticks": 280128,
            "time": 125.056726,
            "velocity": 0.4881889763779528
          },
          {
            "duration": 0.042856999999997925,
            "durationTicks": 96,
            "midi": 33,
            "name": "A1",
            "ticks": 280128,
            "time": 125.056726,
            "velocity": 0.4881889763779528
          },
          {
            "duration": 0.042856999999997925,
            "durationTicks": 96,
            "midi": 47,
            "name": "B2",
            "ticks": 280512,
            "time": 125.228154,
            "velocity": 0.4881889763779528
          },
          {
            "duration": 0.042856999999997925,
            "durationTicks": 96,
            "midi": 37,
            "name": "C#2",
            "ticks": 280512,
            "time": 125.228154,
            "velocity": 0.4881889763779528
          },
          {
            "duration": 0.042856999999997925,
            "durationTicks": 96,
            "midi": 45,
            "name": "A2",
            "ticks": 280512,
            "time": 125.228154,
            "velocity": 0.4881889763779528
          },
          {
            "duration": 0.042856999999997925,
            "durationTicks": 96,
            "midi": 37,
            "name": "C#2",
            "ticks": 280512,
            "time": 125.228154,
            "velocity": 0.4881889763779528
          },
          {
            "duration": 0.042856999999997925,
            "durationTicks": 96,
            "midi": 35,
            "name": "B1",
            "ticks": 280512,
            "time": 125.228154,
            "velocity": 0.4881889763779528
          },
          {
            "duration": 0.042856999999997925,
            "durationTicks": 96,
            "midi": 35,
            "name": "B1",
            "ticks": 280512,
            "time": 125.228154,
            "velocity": 0.4881889763779528
          },
          {
            "duration": 0.042856999999997925,
            "durationTicks": 96,
            "midi": 35,
            "name": "B1",
            "ticks": 280512,
            "time": 125.228154,
            "velocity": 0.4881889763779528
          },
          {
            "duration": 0.042856999999997925,
            "durationTicks": 96,
            "midi": 37,
            "name": "C#2",
            "ticks": 280512,
            "time": 125.228154,
            "velocity": 0.4881889763779528
          },
          {
            "duration": 0.042856999999997925,
            "durationTicks": 96,
            "midi": 32,
            "name": "G#1",
            "ticks": 280896,
            "time": 125.399582,
            "velocity": 0.4881889763779528
          },
          {
            "duration": 0.042856999999997925,
            "durationTicks": 96,
            "midi": 33,
            "name": "A1",
            "ticks": 280896,
            "time": 125.399582,
            "velocity": 0.4881889763779528
          },
          {
            "duration": 0.042856999999997925,
            "durationTicks": 96,
            "midi": 40,
            "name": "E2",
            "ticks": 280896,
            "time": 125.399582,
            "velocity": 0.4881889763779528
          },
          {
            "duration": 0.042856999999997925,
            "durationTicks": 96,
            "midi": 38,
            "name": "D2",
            "ticks": 280896,
            "time": 125.399582,
            "velocity": 0.4881889763779528
          },
          {
            "duration": 0.042856999999997925,
            "durationTicks": 96,
            "midi": 32,
            "name": "G#1",
            "ticks": 280896,
            "time": 125.399582,
            "velocity": 0.4881889763779528
          },
          {
            "duration": 0.042856999999997925,
            "durationTicks": 96,
            "midi": 33,
            "name": "A1",
            "ticks": 280896,
            "time": 125.399582,
            "velocity": 0.4881889763779528
          },
          {
            "duration": 0.042856999999997925,
            "durationTicks": 96,
            "midi": 33,
            "name": "A1",
            "ticks": 280896,
            "time": 125.399582,
            "velocity": 0.4881889763779528
          },
          {
            "duration": 0.042856999999997925,
            "durationTicks": 96,
            "midi": 32,
            "name": "G#1",
            "ticks": 280896,
            "time": 125.399582,
            "velocity": 0.4881889763779528
          },
          {
            "duration": 0.042856999999997925,
            "durationTicks": 96,
            "midi": 33,
            "name": "A1",
            "ticks": 280896,
            "time": 125.399582,
            "velocity": 0.4881889763779528
          },
          {
            "duration": 0.042856999999997925,
            "durationTicks": 96,
            "midi": 32,
            "name": "G#1",
            "ticks": 280896,
            "time": 125.399582,
            "velocity": 0.4881889763779528
          },
          {
            "duration": 0.042856999999997925,
            "durationTicks": 96,
            "midi": 40,
            "name": "E2",
            "ticks": 281280,
            "time": 125.57101,
            "velocity": 0.4881889763779528
          },
          {
            "duration": 0.042856999999997925,
            "durationTicks": 96,
            "midi": 32,
            "name": "G#1",
            "ticks": 281280,
            "time": 125.57101,
            "velocity": 0.4881889763779528
          },
          {
            "duration": 0.042856999999997925,
            "durationTicks": 96,
            "midi": 32,
            "name": "G#1",
            "ticks": 281280,
            "time": 125.57101,
            "velocity": 0.4881889763779528
          },
          {
            "duration": 0.042856999999997925,
            "durationTicks": 96,
            "midi": 33,
            "name": "A1",
            "ticks": 281280,
            "time": 125.57101,
            "velocity": 0.4881889763779528
          },
          {
            "duration": 0.042856999999997925,
            "durationTicks": 96,
            "midi": 33,
            "name": "A1",
            "ticks": 281280,
            "time": 125.57101,
            "velocity": 0.4881889763779528
          },
          {
            "duration": 0.042856999999997925,
            "durationTicks": 96,
            "midi": 32,
            "name": "G#1",
            "ticks": 281280,
            "time": 125.57101,
            "velocity": 0.4881889763779528
          },
          {
            "duration": 0.042856999999997925,
            "durationTicks": 96,
            "midi": 33,
            "name": "A1",
            "ticks": 281280,
            "time": 125.57101,
            "velocity": 0.4881889763779528
          },
          {
            "duration": 0.042856999999997925,
            "durationTicks": 96,
            "midi": 32,
            "name": "G#1",
            "ticks": 281280,
            "time": 125.57101,
            "velocity": 0.4881889763779528
          },
          {
            "duration": 0.042856999999997925,
            "durationTicks": 96,
            "midi": 38,
            "name": "D2",
            "ticks": 281280,
            "time": 125.57101,
            "velocity": 0.4881889763779528
          },
          {
            "duration": 0.042856999999997925,
            "durationTicks": 96,
            "midi": 33,
            "name": "A1",
            "ticks": 281280,
            "time": 125.57101,
            "velocity": 0.4881889763779528
          },
          {
            "duration": 0.042856999999997925,
            "durationTicks": 96,
            "midi": 45,
            "name": "A2",
            "ticks": 282048,
            "time": 125.913866,
            "velocity": 0.4881889763779528
          },
          {
            "duration": 0.042856999999997925,
            "durationTicks": 96,
            "midi": 35,
            "name": "B1",
            "ticks": 282048,
            "time": 125.913866,
            "velocity": 0.4881889763779528
          },
          {
            "duration": 0.042856999999997925,
            "durationTicks": 96,
            "midi": 35,
            "name": "B1",
            "ticks": 282048,
            "time": 125.913866,
            "velocity": 0.4881889763779528
          },
          {
            "duration": 0.042856999999997925,
            "durationTicks": 96,
            "midi": 47,
            "name": "B2",
            "ticks": 282048,
            "time": 125.913866,
            "velocity": 0.4881889763779528
          },
          {
            "duration": 0.042856999999997925,
            "durationTicks": 96,
            "midi": 35,
            "name": "B1",
            "ticks": 282048,
            "time": 125.913866,
            "velocity": 0.4881889763779528
          },
          {
            "duration": 0.042856999999997925,
            "durationTicks": 96,
            "midi": 37,
            "name": "C#2",
            "ticks": 282048,
            "time": 125.913866,
            "velocity": 0.4881889763779528
          },
          {
            "duration": 0.042856999999997925,
            "durationTicks": 96,
            "midi": 37,
            "name": "C#2",
            "ticks": 282048,
            "time": 125.913866,
            "velocity": 0.4881889763779528
          },
          {
            "duration": 0.042856999999997925,
            "durationTicks": 96,
            "midi": 37,
            "name": "C#2",
            "ticks": 282048,
            "time": 125.913866,
            "velocity": 0.4881889763779528
          },
          {
            "duration": 0.042856999999997925,
            "durationTicks": 96,
            "midi": 33,
            "name": "A1",
            "ticks": 282816,
            "time": 126.256722,
            "velocity": 0.4881889763779528
          },
          {
            "duration": 0.042856999999997925,
            "durationTicks": 96,
            "midi": 38,
            "name": "D2",
            "ticks": 282816,
            "time": 126.256722,
            "velocity": 0.4881889763779528
          },
          {
            "duration": 0.042856999999997925,
            "durationTicks": 96,
            "midi": 32,
            "name": "G#1",
            "ticks": 282816,
            "time": 126.256722,
            "velocity": 0.4881889763779528
          },
          {
            "duration": 0.042856999999997925,
            "durationTicks": 96,
            "midi": 33,
            "name": "A1",
            "ticks": 282816,
            "time": 126.256722,
            "velocity": 0.4881889763779528
          },
          {
            "duration": 0.042856999999997925,
            "durationTicks": 96,
            "midi": 32,
            "name": "G#1",
            "ticks": 282816,
            "time": 126.256722,
            "velocity": 0.4881889763779528
          },
          {
            "duration": 0.042856999999997925,
            "durationTicks": 96,
            "midi": 33,
            "name": "A1",
            "ticks": 282816,
            "time": 126.256722,
            "velocity": 0.4881889763779528
          },
          {
            "duration": 0.042856999999997925,
            "durationTicks": 96,
            "midi": 40,
            "name": "E2",
            "ticks": 282816,
            "time": 126.256722,
            "velocity": 0.4881889763779528
          },
          {
            "duration": 0.042856999999997925,
            "durationTicks": 96,
            "midi": 32,
            "name": "G#1",
            "ticks": 282816,
            "time": 126.256722,
            "velocity": 0.4881889763779528
          },
          {
            "duration": 0.042856999999997925,
            "durationTicks": 96,
            "midi": 33,
            "name": "A1",
            "ticks": 282816,
            "time": 126.256722,
            "velocity": 0.4881889763779528
          },
          {
            "duration": 0.042856999999997925,
            "durationTicks": 96,
            "midi": 32,
            "name": "G#1",
            "ticks": 282816,
            "time": 126.256722,
            "velocity": 0.4881889763779528
          },
          {
            "duration": 0.042857000000012135,
            "durationTicks": 96,
            "midi": 33,
            "name": "A1",
            "ticks": 283008,
            "time": 126.34243599999999,
            "velocity": 0.4881889763779528
          },
          {
            "duration": 0.042857000000012135,
            "durationTicks": 96,
            "midi": 33,
            "name": "A1",
            "ticks": 283008,
            "time": 126.34243599999999,
            "velocity": 0.4881889763779528
          },
          {
            "duration": 0.042857000000012135,
            "durationTicks": 96,
            "midi": 32,
            "name": "G#1",
            "ticks": 283008,
            "time": 126.34243599999999,
            "velocity": 0.4881889763779528
          },
          {
            "duration": 0.042857000000012135,
            "durationTicks": 96,
            "midi": 32,
            "name": "G#1",
            "ticks": 283008,
            "time": 126.34243599999999,
            "velocity": 0.4881889763779528
          },
          {
            "duration": 0.042857000000012135,
            "durationTicks": 96,
            "midi": 33,
            "name": "A1",
            "ticks": 283008,
            "time": 126.34243599999999,
            "velocity": 0.4881889763779528
          },
          {
            "duration": 0.042857000000012135,
            "durationTicks": 96,
            "midi": 32,
            "name": "G#1",
            "ticks": 283008,
            "time": 126.34243599999999,
            "velocity": 0.4881889763779528
          },
          {
            "duration": 0.042857000000012135,
            "durationTicks": 96,
            "midi": 40,
            "name": "E2",
            "ticks": 283008,
            "time": 126.34243599999999,
            "velocity": 0.4881889763779528
          },
          {
            "duration": 0.042857000000012135,
            "durationTicks": 96,
            "midi": 38,
            "name": "D2",
            "ticks": 283008,
            "time": 126.34243599999999,
            "velocity": 0.4881889763779528
          },
          {
            "duration": 0.042857000000012135,
            "durationTicks": 96,
            "midi": 32,
            "name": "G#1",
            "ticks": 283008,
            "time": 126.34243599999999,
            "velocity": 0.4881889763779528
          },
          {
            "duration": 0.042857000000012135,
            "durationTicks": 96,
            "midi": 33,
            "name": "A1",
            "ticks": 283008,
            "time": 126.34243599999999,
            "velocity": 0.4881889763779528
          },
          {
            "duration": 0.042856999999997925,
            "durationTicks": 96,
            "midi": 33,
            "name": "A1",
            "ticks": 283200,
            "time": 126.42815,
            "velocity": 0.4881889763779528
          },
          {
            "duration": 0.042856999999997925,
            "durationTicks": 96,
            "midi": 40,
            "name": "E2",
            "ticks": 283200,
            "time": 126.42815,
            "velocity": 0.4881889763779528
          },
          {
            "duration": 0.042856999999997925,
            "durationTicks": 96,
            "midi": 33,
            "name": "A1",
            "ticks": 283200,
            "time": 126.42815,
            "velocity": 0.4881889763779528
          },
          {
            "duration": 0.042856999999997925,
            "durationTicks": 96,
            "midi": 33,
            "name": "A1",
            "ticks": 283200,
            "time": 126.42815,
            "velocity": 0.4881889763779528
          },
          {
            "duration": 0.042856999999997925,
            "durationTicks": 96,
            "midi": 32,
            "name": "G#1",
            "ticks": 283200,
            "time": 126.42815,
            "velocity": 0.4881889763779528
          },
          {
            "duration": 0.042856999999997925,
            "durationTicks": 96,
            "midi": 38,
            "name": "D2",
            "ticks": 283200,
            "time": 126.42815,
            "velocity": 0.4881889763779528
          },
          {
            "duration": 0.042856999999997925,
            "durationTicks": 96,
            "midi": 32,
            "name": "G#1",
            "ticks": 283200,
            "time": 126.42815,
            "velocity": 0.4881889763779528
          },
          {
            "duration": 0.042856999999997925,
            "durationTicks": 96,
            "midi": 32,
            "name": "G#1",
            "ticks": 283200,
            "time": 126.42815,
            "velocity": 0.4881889763779528
          },
          {
            "duration": 0.042856999999997925,
            "durationTicks": 96,
            "midi": 32,
            "name": "G#1",
            "ticks": 283200,
            "time": 126.42815,
            "velocity": 0.4881889763779528
          },
          {
            "duration": 0.042856999999997925,
            "durationTicks": 96,
            "midi": 33,
            "name": "A1",
            "ticks": 283200,
            "time": 126.42815,
            "velocity": 0.4881889763779528
          },
          {
            "duration": 0.042856999999997925,
            "durationTicks": 96,
            "midi": 35,
            "name": "B1",
            "ticks": 283584,
            "time": 126.599578,
            "velocity": 0.4881889763779528
          },
          {
            "duration": 0.042856999999997925,
            "durationTicks": 96,
            "midi": 35,
            "name": "B1",
            "ticks": 283584,
            "time": 126.599578,
            "velocity": 0.4881889763779528
          },
          {
            "duration": 0.042856999999997925,
            "durationTicks": 96,
            "midi": 37,
            "name": "C#2",
            "ticks": 283584,
            "time": 126.599578,
            "velocity": 0.4881889763779528
          },
          {
            "duration": 0.042856999999997925,
            "durationTicks": 96,
            "midi": 47,
            "name": "B2",
            "ticks": 283584,
            "time": 126.599578,
            "velocity": 0.4881889763779528
          },
          {
            "duration": 0.042856999999997925,
            "durationTicks": 96,
            "midi": 45,
            "name": "A2",
            "ticks": 283584,
            "time": 126.599578,
            "velocity": 0.4881889763779528
          },
          {
            "duration": 0.042856999999997925,
            "durationTicks": 96,
            "midi": 37,
            "name": "C#2",
            "ticks": 283584,
            "time": 126.599578,
            "velocity": 0.4881889763779528
          },
          {
            "duration": 0.042856999999997925,
            "durationTicks": 96,
            "midi": 35,
            "name": "B1",
            "ticks": 283584,
            "time": 126.599578,
            "velocity": 0.4881889763779528
          },
          {
            "duration": 0.042856999999997925,
            "durationTicks": 96,
            "midi": 37,
            "name": "C#2",
            "ticks": 283584,
            "time": 126.599578,
            "velocity": 0.4881889763779528
          },
          {
            "duration": 0.042856999999997925,
            "durationTicks": 96,
            "midi": 33,
            "name": "A1",
            "ticks": 283968,
            "time": 126.771006,
            "velocity": 0.4881889763779528
          },
          {
            "duration": 0.042856999999997925,
            "durationTicks": 96,
            "midi": 38,
            "name": "D2",
            "ticks": 283968,
            "time": 126.771006,
            "velocity": 0.4881889763779528
          },
          {
            "duration": 0.042856999999997925,
            "durationTicks": 96,
            "midi": 32,
            "name": "G#1",
            "ticks": 283968,
            "time": 126.771006,
            "velocity": 0.4881889763779528
          },
          {
            "duration": 0.042856999999997925,
            "durationTicks": 96,
            "midi": 33,
            "name": "A1",
            "ticks": 283968,
            "time": 126.771006,
            "velocity": 0.4881889763779528
          },
          {
            "duration": 0.042856999999997925,
            "durationTicks": 96,
            "midi": 33,
            "name": "A1",
            "ticks": 283968,
            "time": 126.771006,
            "velocity": 0.4881889763779528
          },
          {
            "duration": 0.042856999999997925,
            "durationTicks": 96,
            "midi": 33,
            "name": "A1",
            "ticks": 283968,
            "time": 126.771006,
            "velocity": 0.4881889763779528
          },
          {
            "duration": 0.042856999999997925,
            "durationTicks": 96,
            "midi": 32,
            "name": "G#1",
            "ticks": 283968,
            "time": 126.771006,
            "velocity": 0.4881889763779528
          },
          {
            "duration": 0.042856999999997925,
            "durationTicks": 96,
            "midi": 32,
            "name": "G#1",
            "ticks": 283968,
            "time": 126.771006,
            "velocity": 0.4881889763779528
          },
          {
            "duration": 0.042856999999997925,
            "durationTicks": 96,
            "midi": 40,
            "name": "E2",
            "ticks": 283968,
            "time": 126.771006,
            "velocity": 0.4881889763779528
          },
          {
            "duration": 0.042856999999997925,
            "durationTicks": 96,
            "midi": 32,
            "name": "G#1",
            "ticks": 283968,
            "time": 126.771006,
            "velocity": 0.4881889763779528
          },
          {
            "duration": 0.042857000000012135,
            "durationTicks": 96,
            "midi": 45,
            "name": "A2",
            "ticks": 284352,
            "time": 126.94243399999999,
            "velocity": 0.4881889763779528
          },
          {
            "duration": 0.042857000000012135,
            "durationTicks": 96,
            "midi": 47,
            "name": "B2",
            "ticks": 284352,
            "time": 126.94243399999999,
            "velocity": 0.4881889763779528
          },
          {
            "duration": 0.042857000000012135,
            "durationTicks": 96,
            "midi": 37,
            "name": "C#2",
            "ticks": 284352,
            "time": 126.94243399999999,
            "velocity": 0.4881889763779528
          },
          {
            "duration": 0.042857000000012135,
            "durationTicks": 96,
            "midi": 35,
            "name": "B1",
            "ticks": 284352,
            "time": 126.94243399999999,
            "velocity": 0.4881889763779528
          },
          {
            "duration": 0.042857000000012135,
            "durationTicks": 96,
            "midi": 35,
            "name": "B1",
            "ticks": 284352,
            "time": 126.94243399999999,
            "velocity": 0.4881889763779528
          },
          {
            "duration": 0.042857000000012135,
            "durationTicks": 96,
            "midi": 37,
            "name": "C#2",
            "ticks": 284352,
            "time": 126.94243399999999,
            "velocity": 0.4881889763779528
          },
          {
            "duration": 0.042857000000012135,
            "durationTicks": 96,
            "midi": 37,
            "name": "C#2",
            "ticks": 284352,
            "time": 126.94243399999999,
            "velocity": 0.4881889763779528
          },
          {
            "duration": 0.042857000000012135,
            "durationTicks": 96,
            "midi": 35,
            "name": "B1",
            "ticks": 284352,
            "time": 126.94243399999999,
            "velocity": 0.4881889763779528
          },
          {
            "duration": 0.042856999999997925,
            "durationTicks": 96,
            "midi": 32,
            "name": "G#1",
            "ticks": 284736,
            "time": 127.113862,
            "velocity": 0.4881889763779528
          },
          {
            "duration": 0.042856999999997925,
            "durationTicks": 96,
            "midi": 33,
            "name": "A1",
            "ticks": 284736,
            "time": 127.113862,
            "velocity": 0.4881889763779528
          },
          {
            "duration": 0.042856999999997925,
            "durationTicks": 96,
            "midi": 32,
            "name": "G#1",
            "ticks": 284736,
            "time": 127.113862,
            "velocity": 0.4881889763779528
          },
          {
            "duration": 0.042856999999997925,
            "durationTicks": 96,
            "midi": 38,
            "name": "D2",
            "ticks": 284736,
            "time": 127.113862,
            "velocity": 0.4881889763779528
          },
          {
            "duration": 0.042856999999997925,
            "durationTicks": 96,
            "midi": 40,
            "name": "E2",
            "ticks": 284736,
            "time": 127.113862,
            "velocity": 0.4881889763779528
          },
          {
            "duration": 0.042856999999997925,
            "durationTicks": 96,
            "midi": 32,
            "name": "G#1",
            "ticks": 284736,
            "time": 127.113862,
            "velocity": 0.4881889763779528
          },
          {
            "duration": 0.042856999999997925,
            "durationTicks": 96,
            "midi": 33,
            "name": "A1",
            "ticks": 284736,
            "time": 127.113862,
            "velocity": 0.4881889763779528
          },
          {
            "duration": 0.042856999999997925,
            "durationTicks": 96,
            "midi": 33,
            "name": "A1",
            "ticks": 284736,
            "time": 127.113862,
            "velocity": 0.4881889763779528
          },
          {
            "duration": 0.042856999999997925,
            "durationTicks": 96,
            "midi": 32,
            "name": "G#1",
            "ticks": 284736,
            "time": 127.113862,
            "velocity": 0.4881889763779528
          },
          {
            "duration": 0.042856999999997925,
            "durationTicks": 96,
            "midi": 33,
            "name": "A1",
            "ticks": 284736,
            "time": 127.113862,
            "velocity": 0.4881889763779528
          },
          {
            "duration": 0.042856999999997925,
            "durationTicks": 96,
            "midi": 37,
            "name": "C#2",
            "ticks": 285120,
            "time": 127.28529,
            "velocity": 0.4881889763779528
          },
          {
            "duration": 0.042856999999997925,
            "durationTicks": 96,
            "midi": 45,
            "name": "A2",
            "ticks": 285120,
            "time": 127.28529,
            "velocity": 0.4881889763779528
          },
          {
            "duration": 0.042856999999997925,
            "durationTicks": 96,
            "midi": 35,
            "name": "B1",
            "ticks": 285120,
            "time": 127.28529,
            "velocity": 0.4881889763779528
          },
          {
            "duration": 0.042856999999997925,
            "durationTicks": 96,
            "midi": 37,
            "name": "C#2",
            "ticks": 285120,
            "time": 127.28529,
            "velocity": 0.4881889763779528
          },
          {
            "duration": 0.042856999999997925,
            "durationTicks": 96,
            "midi": 35,
            "name": "B1",
            "ticks": 285120,
            "time": 127.28529,
            "velocity": 0.4881889763779528
          },
          {
            "duration": 0.042856999999997925,
            "durationTicks": 96,
            "midi": 35,
            "name": "B1",
            "ticks": 285120,
            "time": 127.28529,
            "velocity": 0.4881889763779528
          },
          {
            "duration": 0.042856999999997925,
            "durationTicks": 96,
            "midi": 37,
            "name": "C#2",
            "ticks": 285120,
            "time": 127.28529,
            "velocity": 0.4881889763779528
          },
          {
            "duration": 0.042856999999997925,
            "durationTicks": 96,
            "midi": 47,
            "name": "B2",
            "ticks": 285120,
            "time": 127.28529,
            "velocity": 0.4881889763779528
          },
          {
            "duration": 0.042856999999997925,
            "durationTicks": 96,
            "midi": 33,
            "name": "A1",
            "ticks": 285504,
            "time": 127.456718,
            "velocity": 0.4881889763779528
          },
          {
            "duration": 0.042856999999997925,
            "durationTicks": 96,
            "midi": 33,
            "name": "A1",
            "ticks": 285504,
            "time": 127.456718,
            "velocity": 0.4881889763779528
          },
          {
            "duration": 0.042856999999997925,
            "durationTicks": 96,
            "midi": 33,
            "name": "A1",
            "ticks": 285504,
            "time": 127.456718,
            "velocity": 0.4881889763779528
          },
          {
            "duration": 0.042856999999997925,
            "durationTicks": 96,
            "midi": 32,
            "name": "G#1",
            "ticks": 285504,
            "time": 127.456718,
            "velocity": 0.4881889763779528
          },
          {
            "duration": 0.042856999999997925,
            "durationTicks": 96,
            "midi": 32,
            "name": "G#1",
            "ticks": 285504,
            "time": 127.456718,
            "velocity": 0.4881889763779528
          },
          {
            "duration": 0.042856999999997925,
            "durationTicks": 96,
            "midi": 33,
            "name": "A1",
            "ticks": 285504,
            "time": 127.456718,
            "velocity": 0.4881889763779528
          },
          {
            "duration": 0.042856999999997925,
            "durationTicks": 96,
            "midi": 38,
            "name": "D2",
            "ticks": 285504,
            "time": 127.456718,
            "velocity": 0.4881889763779528
          },
          {
            "duration": 0.042856999999997925,
            "durationTicks": 96,
            "midi": 32,
            "name": "G#1",
            "ticks": 285504,
            "time": 127.456718,
            "velocity": 0.4881889763779528
          },
          {
            "duration": 0.042856999999997925,
            "durationTicks": 96,
            "midi": 40,
            "name": "E2",
            "ticks": 285504,
            "time": 127.456718,
            "velocity": 0.4881889763779528
          },
          {
            "duration": 0.042856999999997925,
            "durationTicks": 96,
            "midi": 32,
            "name": "G#1",
            "ticks": 285504,
            "time": 127.456718,
            "velocity": 0.4881889763779528
          },
          {
            "duration": 0.042856999999997925,
            "durationTicks": 96,
            "midi": 37,
            "name": "C#2",
            "ticks": 285888,
            "time": 127.628146,
            "velocity": 0.4881889763779528
          },
          {
            "duration": 0.042856999999997925,
            "durationTicks": 96,
            "midi": 37,
            "name": "C#2",
            "ticks": 285888,
            "time": 127.628146,
            "velocity": 0.4881889763779528
          },
          {
            "duration": 0.042856999999997925,
            "durationTicks": 96,
            "midi": 35,
            "name": "B1",
            "ticks": 285888,
            "time": 127.628146,
            "velocity": 0.4881889763779528
          },
          {
            "duration": 0.042856999999997925,
            "durationTicks": 96,
            "midi": 35,
            "name": "B1",
            "ticks": 285888,
            "time": 127.628146,
            "velocity": 0.4881889763779528
          },
          {
            "duration": 0.042856999999997925,
            "durationTicks": 96,
            "midi": 47,
            "name": "B2",
            "ticks": 285888,
            "time": 127.628146,
            "velocity": 0.4881889763779528
          },
          {
            "duration": 0.042856999999997925,
            "durationTicks": 96,
            "midi": 37,
            "name": "C#2",
            "ticks": 285888,
            "time": 127.628146,
            "velocity": 0.4881889763779528
          },
          {
            "duration": 0.042856999999997925,
            "durationTicks": 96,
            "midi": 45,
            "name": "A2",
            "ticks": 285888,
            "time": 127.628146,
            "velocity": 0.4881889763779528
          },
          {
            "duration": 0.042856999999997925,
            "durationTicks": 96,
            "midi": 35,
            "name": "B1",
            "ticks": 285888,
            "time": 127.628146,
            "velocity": 0.4881889763779528
          },
          {
            "duration": 0.042856999999997925,
            "durationTicks": 96,
            "midi": 35,
            "name": "B1",
            "ticks": 286080,
            "time": 127.71386,
            "velocity": 0.4881889763779528
          },
          {
            "duration": 0.042856999999997925,
            "durationTicks": 96,
            "midi": 35,
            "name": "B1",
            "ticks": 286080,
            "time": 127.71386,
            "velocity": 0.4881889763779528
          },
          {
            "duration": 0.042856999999997925,
            "durationTicks": 96,
            "midi": 47,
            "name": "B2",
            "ticks": 286080,
            "time": 127.71386,
            "velocity": 0.4881889763779528
          },
          {
            "duration": 0.042856999999997925,
            "durationTicks": 96,
            "midi": 37,
            "name": "C#2",
            "ticks": 286080,
            "time": 127.71386,
            "velocity": 0.4881889763779528
          },
          {
            "duration": 0.042856999999997925,
            "durationTicks": 96,
            "midi": 37,
            "name": "C#2",
            "ticks": 286080,
            "time": 127.71386,
            "velocity": 0.4881889763779528
          },
          {
            "duration": 0.042856999999997925,
            "durationTicks": 96,
            "midi": 45,
            "name": "A2",
            "ticks": 286080,
            "time": 127.71386,
            "velocity": 0.4881889763779528
          },
          {
            "duration": 0.042856999999997925,
            "durationTicks": 96,
            "midi": 37,
            "name": "C#2",
            "ticks": 286080,
            "time": 127.71386,
            "velocity": 0.4881889763779528
          },
          {
            "duration": 0.042856999999997925,
            "durationTicks": 96,
            "midi": 35,
            "name": "B1",
            "ticks": 286080,
            "time": 127.71386,
            "velocity": 0.4881889763779528
          },
          {
            "duration": 0.042857000000012135,
            "durationTicks": 96,
            "midi": 32,
            "name": "G#1",
            "ticks": 286272,
            "time": 127.79957399999999,
            "velocity": 0.4881889763779528
          },
          {
            "duration": 0.042857000000012135,
            "durationTicks": 96,
            "midi": 40,
            "name": "E2",
            "ticks": 286272,
            "time": 127.79957399999999,
            "velocity": 0.4881889763779528
          },
          {
            "duration": 0.042857000000012135,
            "durationTicks": 96,
            "midi": 32,
            "name": "G#1",
            "ticks": 286272,
            "time": 127.79957399999999,
            "velocity": 0.4881889763779528
          },
          {
            "duration": 0.042857000000012135,
            "durationTicks": 96,
            "midi": 38,
            "name": "D2",
            "ticks": 286272,
            "time": 127.79957399999999,
            "velocity": 0.4881889763779528
          },
          {
            "duration": 0.042857000000012135,
            "durationTicks": 96,
            "midi": 33,
            "name": "A1",
            "ticks": 286272,
            "time": 127.79957399999999,
            "velocity": 0.4881889763779528
          },
          {
            "duration": 0.042857000000012135,
            "durationTicks": 96,
            "midi": 33,
            "name": "A1",
            "ticks": 286272,
            "time": 127.79957399999999,
            "velocity": 0.4881889763779528
          },
          {
            "duration": 0.042857000000012135,
            "durationTicks": 96,
            "midi": 32,
            "name": "G#1",
            "ticks": 286272,
            "time": 127.79957399999999,
            "velocity": 0.4881889763779528
          },
          {
            "duration": 0.042857000000012135,
            "durationTicks": 96,
            "midi": 32,
            "name": "G#1",
            "ticks": 286272,
            "time": 127.79957399999999,
            "velocity": 0.4881889763779528
          },
          {
            "duration": 0.042857000000012135,
            "durationTicks": 96,
            "midi": 33,
            "name": "A1",
            "ticks": 286272,
            "time": 127.79957399999999,
            "velocity": 0.4881889763779528
          },
          {
            "duration": 0.042857000000012135,
            "durationTicks": 96,
            "midi": 33,
            "name": "A1",
            "ticks": 286272,
            "time": 127.79957399999999,
            "velocity": 0.4881889763779528
          },
          {
            "duration": 0.042856999999997925,
            "durationTicks": 96,
            "midi": 35,
            "name": "B1",
            "ticks": 286656,
            "time": 127.971002,
            "velocity": 0.4881889763779528
          },
          {
            "duration": 0.042856999999997925,
            "durationTicks": 96,
            "midi": 45,
            "name": "A2",
            "ticks": 286656,
            "time": 127.971002,
            "velocity": 0.4881889763779528
          },
          {
            "duration": 0.042856999999997925,
            "durationTicks": 96,
            "midi": 37,
            "name": "C#2",
            "ticks": 286656,
            "time": 127.971002,
            "velocity": 0.4881889763779528
          },
          {
            "duration": 0.042856999999997925,
            "durationTicks": 96,
            "midi": 47,
            "name": "B2",
            "ticks": 286656,
            "time": 127.971002,
            "velocity": 0.4881889763779528
          },
          {
            "duration": 0.042856999999997925,
            "durationTicks": 96,
            "midi": 37,
            "name": "C#2",
            "ticks": 286656,
            "time": 127.971002,
            "velocity": 0.4881889763779528
          },
          {
            "duration": 0.042856999999997925,
            "durationTicks": 96,
            "midi": 37,
            "name": "C#2",
            "ticks": 286656,
            "time": 127.971002,
            "velocity": 0.4881889763779528
          },
          {
            "duration": 0.042856999999997925,
            "durationTicks": 96,
            "midi": 35,
            "name": "B1",
            "ticks": 286656,
            "time": 127.971002,
            "velocity": 0.4881889763779528
          },
          {
            "duration": 0.042856999999997925,
            "durationTicks": 96,
            "midi": 35,
            "name": "B1",
            "ticks": 286656,
            "time": 127.971002,
            "velocity": 0.4881889763779528
          },
          {
            "duration": 0.042856999999997925,
            "durationTicks": 96,
            "midi": 32,
            "name": "G#1",
            "ticks": 287424,
            "time": 128.313858,
            "velocity": 0.4881889763779528
          },
          {
            "duration": 0.042856999999997925,
            "durationTicks": 96,
            "midi": 33,
            "name": "A1",
            "ticks": 287424,
            "time": 128.313858,
            "velocity": 0.4881889763779528
          },
          {
            "duration": 0.042856999999997925,
            "durationTicks": 96,
            "midi": 33,
            "name": "A1",
            "ticks": 287424,
            "time": 128.313858,
            "velocity": 0.4881889763779528
          },
          {
            "duration": 0.042856999999997925,
            "durationTicks": 96,
            "midi": 32,
            "name": "G#1",
            "ticks": 287424,
            "time": 128.313858,
            "velocity": 0.4881889763779528
          },
          {
            "duration": 0.042856999999997925,
            "durationTicks": 96,
            "midi": 54,
            "name": "F#3",
            "ticks": 287424,
            "time": 128.313858,
            "velocity": 0.4881889763779528
          },
          {
            "duration": 0.042856999999997925,
            "durationTicks": 96,
            "midi": 48,
            "name": "C3",
            "ticks": 287424,
            "time": 128.313858,
            "velocity": 0.4881889763779528
          },
          {
            "duration": 0.042856999999997925,
            "durationTicks": 96,
            "midi": 46,
            "name": "A#2",
            "ticks": 287424,
            "time": 128.313858,
            "velocity": 0.4881889763779528
          },
          {
            "duration": 0.042856999999997925,
            "durationTicks": 96,
            "midi": 32,
            "name": "G#1",
            "ticks": 287424,
            "time": 128.313858,
            "velocity": 0.4881889763779528
          },
          {
            "duration": 0.042856999999997925,
            "durationTicks": 96,
            "midi": 38,
            "name": "D2",
            "ticks": 287424,
            "time": 128.313858,
            "velocity": 0.4881889763779528
          },
          {
            "duration": 0.042856999999997925,
            "durationTicks": 96,
            "midi": 33,
            "name": "A1",
            "ticks": 287424,
            "time": 128.313858,
            "velocity": 0.4881889763779528
          },
          {
            "duration": 0.042856999999997925,
            "durationTicks": 96,
            "midi": 52,
            "name": "E3",
            "ticks": 287424,
            "time": 128.313858,
            "velocity": 0.4881889763779528
          },
          {
            "duration": 0.042856999999997925,
            "durationTicks": 96,
            "midi": 32,
            "name": "G#1",
            "ticks": 287424,
            "time": 128.313858,
            "velocity": 0.4881889763779528
          },
          {
            "duration": 0.042856999999997925,
            "durationTicks": 96,
            "midi": 40,
            "name": "E2",
            "ticks": 287424,
            "time": 128.313858,
            "velocity": 0.4881889763779528
          },
          {
            "duration": 0.042856999999997925,
            "durationTicks": 96,
            "midi": 33,
            "name": "A1",
            "ticks": 287424,
            "time": 128.313858,
            "velocity": 0.4881889763779528
          },
          {
            "duration": 0.042856999999997925,
            "durationTicks": 96,
            "midi": 47,
            "name": "B2",
            "ticks": 288192,
            "time": 128.656714,
            "velocity": 0.4881889763779528
          },
          {
            "duration": 0.042856999999997925,
            "durationTicks": 96,
            "midi": 45,
            "name": "A2",
            "ticks": 288192,
            "time": 128.656714,
            "velocity": 0.4881889763779528
          },
          {
            "duration": 0.042856999999997925,
            "durationTicks": 96,
            "midi": 35,
            "name": "B1",
            "ticks": 288192,
            "time": 128.656714,
            "velocity": 0.4881889763779528
          },
          {
            "duration": 0.042856999999997925,
            "durationTicks": 96,
            "midi": 37,
            "name": "C#2",
            "ticks": 288192,
            "time": 128.656714,
            "velocity": 0.4881889763779528
          },
          {
            "duration": 0.042856999999997925,
            "durationTicks": 96,
            "midi": 35,
            "name": "B1",
            "ticks": 288192,
            "time": 128.656714,
            "velocity": 0.4881889763779528
          },
          {
            "duration": 0.042856999999997925,
            "durationTicks": 96,
            "midi": 35,
            "name": "B1",
            "ticks": 288192,
            "time": 128.656714,
            "velocity": 0.4881889763779528
          },
          {
            "duration": 0.042856999999997925,
            "durationTicks": 96,
            "midi": 37,
            "name": "C#2",
            "ticks": 288192,
            "time": 128.656714,
            "velocity": 0.4881889763779528
          },
          {
            "duration": 0.042856999999997925,
            "durationTicks": 96,
            "midi": 37,
            "name": "C#2",
            "ticks": 288192,
            "time": 128.656714,
            "velocity": 0.4881889763779528
          },
          {
            "duration": 0.042856999999997925,
            "durationTicks": 96,
            "midi": 33,
            "name": "A1",
            "ticks": 289344,
            "time": 129.170998,
            "velocity": 0.4881889763779528
          },
          {
            "duration": 0.042856999999997925,
            "durationTicks": 96,
            "midi": 32,
            "name": "G#1",
            "ticks": 289344,
            "time": 129.170998,
            "velocity": 0.4881889763779528
          },
          {
            "duration": 0.042856999999997925,
            "durationTicks": 96,
            "midi": 38,
            "name": "D2",
            "ticks": 289344,
            "time": 129.170998,
            "velocity": 0.4881889763779528
          },
          {
            "duration": 0.042856999999997925,
            "durationTicks": 96,
            "midi": 33,
            "name": "A1",
            "ticks": 289344,
            "time": 129.170998,
            "velocity": 0.4881889763779528
          },
          {
            "duration": 0.042856999999997925,
            "durationTicks": 96,
            "midi": 40,
            "name": "E2",
            "ticks": 289344,
            "time": 129.170998,
            "velocity": 0.4881889763779528
          },
          {
            "duration": 0.042856999999997925,
            "durationTicks": 96,
            "midi": 32,
            "name": "G#1",
            "ticks": 289344,
            "time": 129.170998,
            "velocity": 0.4881889763779528
          },
          {
            "duration": 0.042856999999997925,
            "durationTicks": 96,
            "midi": 32,
            "name": "G#1",
            "ticks": 289344,
            "time": 129.170998,
            "velocity": 0.4881889763779528
          },
          {
            "duration": 0.042856999999997925,
            "durationTicks": 96,
            "midi": 33,
            "name": "A1",
            "ticks": 289344,
            "time": 129.170998,
            "velocity": 0.4881889763779528
          },
          {
            "duration": 0.042856999999997925,
            "durationTicks": 96,
            "midi": 32,
            "name": "G#1",
            "ticks": 289344,
            "time": 129.170998,
            "velocity": 0.4881889763779528
          },
          {
            "duration": 0.042856999999997925,
            "durationTicks": 96,
            "midi": 33,
            "name": "A1",
            "ticks": 289344,
            "time": 129.170998,
            "velocity": 0.4881889763779528
          },
          {
            "duration": 0.042856999999997925,
            "durationTicks": 96,
            "midi": 35,
            "name": "B1",
            "ticks": 289728,
            "time": 129.342426,
            "velocity": 0.4881889763779528
          },
          {
            "duration": 0.042856999999997925,
            "durationTicks": 96,
            "midi": 37,
            "name": "C#2",
            "ticks": 289728,
            "time": 129.342426,
            "velocity": 0.4881889763779528
          },
          {
            "duration": 0.042856999999997925,
            "durationTicks": 96,
            "midi": 37,
            "name": "C#2",
            "ticks": 289728,
            "time": 129.342426,
            "velocity": 0.4881889763779528
          },
          {
            "duration": 0.042856999999997925,
            "durationTicks": 96,
            "midi": 47,
            "name": "B2",
            "ticks": 289728,
            "time": 129.342426,
            "velocity": 0.4881889763779528
          },
          {
            "duration": 0.042856999999997925,
            "durationTicks": 96,
            "midi": 35,
            "name": "B1",
            "ticks": 289728,
            "time": 129.342426,
            "velocity": 0.4881889763779528
          },
          {
            "duration": 0.042856999999997925,
            "durationTicks": 96,
            "midi": 35,
            "name": "B1",
            "ticks": 289728,
            "time": 129.342426,
            "velocity": 0.4881889763779528
          },
          {
            "duration": 0.042856999999997925,
            "durationTicks": 96,
            "midi": 45,
            "name": "A2",
            "ticks": 289728,
            "time": 129.342426,
            "velocity": 0.4881889763779528
          },
          {
            "duration": 0.042856999999997925,
            "durationTicks": 96,
            "midi": 37,
            "name": "C#2",
            "ticks": 289728,
            "time": 129.342426,
            "velocity": 0.4881889763779528
          },
          {
            "duration": 0.042856999999997925,
            "durationTicks": 96,
            "midi": 32,
            "name": "G#1",
            "ticks": 290496,
            "time": 129.685282,
            "velocity": 0.4881889763779528
          },
          {
            "duration": 0.042856999999997925,
            "durationTicks": 96,
            "midi": 33,
            "name": "A1",
            "ticks": 290496,
            "time": 129.685282,
            "velocity": 0.4881889763779528
          },
          {
            "duration": 0.042856999999997925,
            "durationTicks": 96,
            "midi": 32,
            "name": "G#1",
            "ticks": 290496,
            "time": 129.685282,
            "velocity": 0.4881889763779528
          },
          {
            "duration": 0.042856999999997925,
            "durationTicks": 96,
            "midi": 40,
            "name": "E2",
            "ticks": 290496,
            "time": 129.685282,
            "velocity": 0.4881889763779528
          },
          {
            "duration": 0.042856999999997925,
            "durationTicks": 96,
            "midi": 32,
            "name": "G#1",
            "ticks": 290496,
            "time": 129.685282,
            "velocity": 0.4881889763779528
          },
          {
            "duration": 0.042856999999997925,
            "durationTicks": 96,
            "midi": 33,
            "name": "A1",
            "ticks": 290496,
            "time": 129.685282,
            "velocity": 0.4881889763779528
          },
          {
            "duration": 0.042856999999997925,
            "durationTicks": 96,
            "midi": 32,
            "name": "G#1",
            "ticks": 290496,
            "time": 129.685282,
            "velocity": 0.4881889763779528
          },
          {
            "duration": 0.042856999999997925,
            "durationTicks": 96,
            "midi": 38,
            "name": "D2",
            "ticks": 290496,
            "time": 129.685282,
            "velocity": 0.4881889763779528
          },
          {
            "duration": 0.042856999999997925,
            "durationTicks": 96,
            "midi": 33,
            "name": "A1",
            "ticks": 290496,
            "time": 129.685282,
            "velocity": 0.4881889763779528
          },
          {
            "duration": 0.042856999999997925,
            "durationTicks": 96,
            "midi": 33,
            "name": "A1",
            "ticks": 290496,
            "time": 129.685282,
            "velocity": 0.4881889763779528
          },
          {
            "duration": 0.042857000000026346,
            "durationTicks": 96,
            "midi": 47,
            "name": "B2",
            "ticks": 291264,
            "time": 130.02813799999998,
            "velocity": 0.4881889763779528
          },
          {
            "duration": 0.042857000000026346,
            "durationTicks": 96,
            "midi": 35,
            "name": "B1",
            "ticks": 291264,
            "time": 130.02813799999998,
            "velocity": 0.4881889763779528
          },
          {
            "duration": 0.042857000000026346,
            "durationTicks": 96,
            "midi": 35,
            "name": "B1",
            "ticks": 291264,
            "time": 130.02813799999998,
            "velocity": 0.4881889763779528
          },
          {
            "duration": 0.042857000000026346,
            "durationTicks": 96,
            "midi": 35,
            "name": "B1",
            "ticks": 291264,
            "time": 130.02813799999998,
            "velocity": 0.4881889763779528
          },
          {
            "duration": 0.042857000000026346,
            "durationTicks": 96,
            "midi": 37,
            "name": "C#2",
            "ticks": 291264,
            "time": 130.02813799999998,
            "velocity": 0.4881889763779528
          },
          {
            "duration": 0.042857000000026346,
            "durationTicks": 96,
            "midi": 37,
            "name": "C#2",
            "ticks": 291264,
            "time": 130.02813799999998,
            "velocity": 0.4881889763779528
          },
          {
            "duration": 0.042857000000026346,
            "durationTicks": 96,
            "midi": 45,
            "name": "A2",
            "ticks": 291264,
            "time": 130.02813799999998,
            "velocity": 0.4881889763779528
          },
          {
            "duration": 0.042857000000026346,
            "durationTicks": 96,
            "midi": 37,
            "name": "C#2",
            "ticks": 291264,
            "time": 130.02813799999998,
            "velocity": 0.4881889763779528
          },
          {
            "duration": 0.042856999999997925,
            "durationTicks": 96,
            "midi": 32,
            "name": "G#1",
            "ticks": 292416,
            "time": 130.542422,
            "velocity": 0.4881889763779528
          },
          {
            "duration": 0.042856999999997925,
            "durationTicks": 96,
            "midi": 32,
            "name": "G#1",
            "ticks": 292416,
            "time": 130.542422,
            "velocity": 0.4881889763779528
          },
          {
            "duration": 0.042856999999997925,
            "durationTicks": 96,
            "midi": 33,
            "name": "A1",
            "ticks": 292416,
            "time": 130.542422,
            "velocity": 0.4881889763779528
          },
          {
            "duration": 0.042856999999997925,
            "durationTicks": 96,
            "midi": 40,
            "name": "E2",
            "ticks": 292416,
            "time": 130.542422,
            "velocity": 0.4881889763779528
          },
          {
            "duration": 0.042856999999997925,
            "durationTicks": 96,
            "midi": 32,
            "name": "G#1",
            "ticks": 292416,
            "time": 130.542422,
            "velocity": 0.4881889763779528
          },
          {
            "duration": 0.042856999999997925,
            "durationTicks": 96,
            "midi": 33,
            "name": "A1",
            "ticks": 292416,
            "time": 130.542422,
            "velocity": 0.4881889763779528
          },
          {
            "duration": 0.042856999999997925,
            "durationTicks": 96,
            "midi": 32,
            "name": "G#1",
            "ticks": 292416,
            "time": 130.542422,
            "velocity": 0.4881889763779528
          },
          {
            "duration": 0.042856999999997925,
            "durationTicks": 96,
            "midi": 33,
            "name": "A1",
            "ticks": 292416,
            "time": 130.542422,
            "velocity": 0.4881889763779528
          },
          {
            "duration": 0.042856999999997925,
            "durationTicks": 96,
            "midi": 33,
            "name": "A1",
            "ticks": 292416,
            "time": 130.542422,
            "velocity": 0.4881889763779528
          },
          {
            "duration": 0.042856999999997925,
            "durationTicks": 96,
            "midi": 38,
            "name": "D2",
            "ticks": 292416,
            "time": 130.542422,
            "velocity": 0.4881889763779528
          },
          {
            "duration": 0.042856999999997925,
            "durationTicks": 96,
            "midi": 47,
            "name": "B2",
            "ticks": 292800,
            "time": 130.71385,
            "velocity": 0.4881889763779528
          },
          {
            "duration": 0.042856999999997925,
            "durationTicks": 96,
            "midi": 37,
            "name": "C#2",
            "ticks": 292800,
            "time": 130.71385,
            "velocity": 0.4881889763779528
          },
          {
            "duration": 0.042856999999997925,
            "durationTicks": 96,
            "midi": 35,
            "name": "B1",
            "ticks": 292800,
            "time": 130.71385,
            "velocity": 0.4881889763779528
          },
          {
            "duration": 0.042856999999997925,
            "durationTicks": 96,
            "midi": 37,
            "name": "C#2",
            "ticks": 292800,
            "time": 130.71385,
            "velocity": 0.4881889763779528
          },
          {
            "duration": 0.042856999999997925,
            "durationTicks": 96,
            "midi": 35,
            "name": "B1",
            "ticks": 292800,
            "time": 130.71385,
            "velocity": 0.4881889763779528
          },
          {
            "duration": 0.042856999999997925,
            "durationTicks": 96,
            "midi": 45,
            "name": "A2",
            "ticks": 292800,
            "time": 130.71385,
            "velocity": 0.4881889763779528
          },
          {
            "duration": 0.042856999999997925,
            "durationTicks": 96,
            "midi": 35,
            "name": "B1",
            "ticks": 292800,
            "time": 130.71385,
            "velocity": 0.4881889763779528
          },
          {
            "duration": 0.042856999999997925,
            "durationTicks": 96,
            "midi": 37,
            "name": "C#2",
            "ticks": 292800,
            "time": 130.71385,
            "velocity": 0.4881889763779528
          },
          {
            "duration": 0.042856999999997925,
            "durationTicks": 96,
            "midi": 33,
            "name": "A1",
            "ticks": 293184,
            "time": 130.885278,
            "velocity": 0.4881889763779528
          },
          {
            "duration": 0.042856999999997925,
            "durationTicks": 96,
            "midi": 33,
            "name": "A1",
            "ticks": 293184,
            "time": 130.885278,
            "velocity": 0.4881889763779528
          },
          {
            "duration": 0.042856999999997925,
            "durationTicks": 96,
            "midi": 32,
            "name": "G#1",
            "ticks": 293184,
            "time": 130.885278,
            "velocity": 0.4881889763779528
          },
          {
            "duration": 0.042856999999997925,
            "durationTicks": 96,
            "midi": 32,
            "name": "G#1",
            "ticks": 293184,
            "time": 130.885278,
            "velocity": 0.4881889763779528
          },
          {
            "duration": 0.042856999999997925,
            "durationTicks": 96,
            "midi": 33,
            "name": "A1",
            "ticks": 293184,
            "time": 130.885278,
            "velocity": 0.4881889763779528
          },
          {
            "duration": 0.042856999999997925,
            "durationTicks": 96,
            "midi": 32,
            "name": "G#1",
            "ticks": 293184,
            "time": 130.885278,
            "velocity": 0.4881889763779528
          },
          {
            "duration": 0.042856999999997925,
            "durationTicks": 96,
            "midi": 33,
            "name": "A1",
            "ticks": 293184,
            "time": 130.885278,
            "velocity": 0.4881889763779528
          },
          {
            "duration": 0.042856999999997925,
            "durationTicks": 96,
            "midi": 40,
            "name": "E2",
            "ticks": 293184,
            "time": 130.885278,
            "velocity": 0.4881889763779528
          },
          {
            "duration": 0.042856999999997925,
            "durationTicks": 96,
            "midi": 32,
            "name": "G#1",
            "ticks": 293184,
            "time": 130.885278,
            "velocity": 0.4881889763779528
          },
          {
            "duration": 0.042856999999997925,
            "durationTicks": 96,
            "midi": 38,
            "name": "D2",
            "ticks": 293184,
            "time": 130.885278,
            "velocity": 0.4881889763779528
          },
          {
            "duration": 0.042856999999997925,
            "durationTicks": 96,
            "midi": 40,
            "name": "E2",
            "ticks": 293568,
            "time": 131.056706,
            "velocity": 0.4881889763779528
          },
          {
            "duration": 0.042856999999997925,
            "durationTicks": 96,
            "midi": 38,
            "name": "D2",
            "ticks": 293568,
            "time": 131.056706,
            "velocity": 0.4881889763779528
          },
          {
            "duration": 0.042856999999997925,
            "durationTicks": 96,
            "midi": 32,
            "name": "G#1",
            "ticks": 293568,
            "time": 131.056706,
            "velocity": 0.4881889763779528
          },
          {
            "duration": 0.042856999999997925,
            "durationTicks": 96,
            "midi": 33,
            "name": "A1",
            "ticks": 293568,
            "time": 131.056706,
            "velocity": 0.4881889763779528
          },
          {
            "duration": 0.042856999999997925,
            "durationTicks": 96,
            "midi": 32,
            "name": "G#1",
            "ticks": 293568,
            "time": 131.056706,
            "velocity": 0.4881889763779528
          },
          {
            "duration": 0.042856999999997925,
            "durationTicks": 96,
            "midi": 33,
            "name": "A1",
            "ticks": 293568,
            "time": 131.056706,
            "velocity": 0.4881889763779528
          },
          {
            "duration": 0.042856999999997925,
            "durationTicks": 96,
            "midi": 33,
            "name": "A1",
            "ticks": 293568,
            "time": 131.056706,
            "velocity": 0.4881889763779528
          },
          {
            "duration": 0.042856999999997925,
            "durationTicks": 96,
            "midi": 32,
            "name": "G#1",
            "ticks": 293568,
            "time": 131.056706,
            "velocity": 0.4881889763779528
          },
          {
            "duration": 0.042856999999997925,
            "durationTicks": 96,
            "midi": 32,
            "name": "G#1",
            "ticks": 293568,
            "time": 131.056706,
            "velocity": 0.4881889763779528
          },
          {
            "duration": 0.042856999999997925,
            "durationTicks": 96,
            "midi": 33,
            "name": "A1",
            "ticks": 293568,
            "time": 131.056706,
            "velocity": 0.4881889763779528
          },
          {
            "duration": 0.042856999999997925,
            "durationTicks": 96,
            "midi": 37,
            "name": "C#2",
            "ticks": 294336,
            "time": 131.399562,
            "velocity": 0.4881889763779528
          },
          {
            "duration": 0.042856999999997925,
            "durationTicks": 96,
            "midi": 35,
            "name": "B1",
            "ticks": 294336,
            "time": 131.399562,
            "velocity": 0.4881889763779528
          },
          {
            "duration": 0.042856999999997925,
            "durationTicks": 96,
            "midi": 37,
            "name": "C#2",
            "ticks": 294336,
            "time": 131.399562,
            "velocity": 0.4881889763779528
          },
          {
            "duration": 0.042856999999997925,
            "durationTicks": 96,
            "midi": 47,
            "name": "B2",
            "ticks": 294336,
            "time": 131.399562,
            "velocity": 0.4881889763779528
          },
          {
            "duration": 0.042856999999997925,
            "durationTicks": 96,
            "midi": 35,
            "name": "B1",
            "ticks": 294336,
            "time": 131.399562,
            "velocity": 0.4881889763779528
          },
          {
            "duration": 0.042856999999997925,
            "durationTicks": 96,
            "midi": 45,
            "name": "A2",
            "ticks": 294336,
            "time": 131.399562,
            "velocity": 0.4881889763779528
          },
          {
            "duration": 0.042856999999997925,
            "durationTicks": 96,
            "midi": 37,
            "name": "C#2",
            "ticks": 294336,
            "time": 131.399562,
            "velocity": 0.4881889763779528
          },
          {
            "duration": 0.042856999999997925,
            "durationTicks": 96,
            "midi": 35,
            "name": "B1",
            "ticks": 294336,
            "time": 131.399562,
            "velocity": 0.4881889763779528
          },
          {
            "duration": 0.042856999999997925,
            "durationTicks": 96,
            "midi": 32,
            "name": "G#1",
            "ticks": 295488,
            "time": 131.913846,
            "velocity": 0.4881889763779528
          },
          {
            "duration": 0.042856999999997925,
            "durationTicks": 96,
            "midi": 32,
            "name": "G#1",
            "ticks": 295488,
            "time": 131.913846,
            "velocity": 0.4881889763779528
          },
          {
            "duration": 0.042856999999997925,
            "durationTicks": 96,
            "midi": 32,
            "name": "G#1",
            "ticks": 295488,
            "time": 131.913846,
            "velocity": 0.4881889763779528
          },
          {
            "duration": 0.042856999999997925,
            "durationTicks": 96,
            "midi": 33,
            "name": "A1",
            "ticks": 295488,
            "time": 131.913846,
            "velocity": 0.4881889763779528
          },
          {
            "duration": 0.042856999999997925,
            "durationTicks": 96,
            "midi": 33,
            "name": "A1",
            "ticks": 295488,
            "time": 131.913846,
            "velocity": 0.4881889763779528
          },
          {
            "duration": 0.042856999999997925,
            "durationTicks": 96,
            "midi": 33,
            "name": "A1",
            "ticks": 295488,
            "time": 131.913846,
            "velocity": 0.4881889763779528
          },
          {
            "duration": 0.042856999999997925,
            "durationTicks": 96,
            "midi": 33,
            "name": "A1",
            "ticks": 295488,
            "time": 131.913846,
            "velocity": 0.4881889763779528
          },
          {
            "duration": 0.042856999999997925,
            "durationTicks": 96,
            "midi": 40,
            "name": "E2",
            "ticks": 295488,
            "time": 131.913846,
            "velocity": 0.4881889763779528
          },
          {
            "duration": 0.042856999999997925,
            "durationTicks": 96,
            "midi": 32,
            "name": "G#1",
            "ticks": 295488,
            "time": 131.913846,
            "velocity": 0.4881889763779528
          },
          {
            "duration": 0.042856999999997925,
            "durationTicks": 96,
            "midi": 38,
            "name": "D2",
            "ticks": 295488,
            "time": 131.913846,
            "velocity": 0.4881889763779528
          },
          {
            "duration": 0.042856999999997925,
            "durationTicks": 96,
            "midi": 35,
            "name": "B1",
            "ticks": 295872,
            "time": 132.085274,
            "velocity": 0.4881889763779528
          },
          {
            "duration": 0.042856999999997925,
            "durationTicks": 96,
            "midi": 35,
            "name": "B1",
            "ticks": 295872,
            "time": 132.085274,
            "velocity": 0.4881889763779528
          },
          {
            "duration": 0.042856999999997925,
            "durationTicks": 96,
            "midi": 37,
            "name": "C#2",
            "ticks": 295872,
            "time": 132.085274,
            "velocity": 0.4881889763779528
          },
          {
            "duration": 0.042856999999997925,
            "durationTicks": 96,
            "midi": 45,
            "name": "A2",
            "ticks": 295872,
            "time": 132.085274,
            "velocity": 0.4881889763779528
          },
          {
            "duration": 0.042856999999997925,
            "durationTicks": 96,
            "midi": 37,
            "name": "C#2",
            "ticks": 295872,
            "time": 132.085274,
            "velocity": 0.4881889763779528
          },
          {
            "duration": 0.042856999999997925,
            "durationTicks": 96,
            "midi": 35,
            "name": "B1",
            "ticks": 295872,
            "time": 132.085274,
            "velocity": 0.4881889763779528
          },
          {
            "duration": 0.042856999999997925,
            "durationTicks": 96,
            "midi": 47,
            "name": "B2",
            "ticks": 295872,
            "time": 132.085274,
            "velocity": 0.4881889763779528
          },
          {
            "duration": 0.042856999999997925,
            "durationTicks": 96,
            "midi": 37,
            "name": "C#2",
            "ticks": 295872,
            "time": 132.085274,
            "velocity": 0.4881889763779528
          },
          {
            "duration": 0.042856999999997925,
            "durationTicks": 96,
            "midi": 40,
            "name": "E2",
            "ticks": 296640,
            "time": 132.42813,
            "velocity": 0.4881889763779528
          },
          {
            "duration": 0.042856999999997925,
            "durationTicks": 96,
            "midi": 38,
            "name": "D2",
            "ticks": 296640,
            "time": 132.42813,
            "velocity": 0.4881889763779528
          },
          {
            "duration": 0.042856999999997925,
            "durationTicks": 96,
            "midi": 32,
            "name": "G#1",
            "ticks": 296640,
            "time": 132.42813,
            "velocity": 0.4881889763779528
          },
          {
            "duration": 0.042856999999997925,
            "durationTicks": 96,
            "midi": 33,
            "name": "A1",
            "ticks": 296640,
            "time": 132.42813,
            "velocity": 0.4881889763779528
          },
          {
            "duration": 0.042856999999997925,
            "durationTicks": 96,
            "midi": 33,
            "name": "A1",
            "ticks": 296640,
            "time": 132.42813,
            "velocity": 0.4881889763779528
          },
          {
            "duration": 0.042856999999997925,
            "durationTicks": 96,
            "midi": 33,
            "name": "A1",
            "ticks": 296640,
            "time": 132.42813,
            "velocity": 0.4881889763779528
          },
          {
            "duration": 0.042856999999997925,
            "durationTicks": 96,
            "midi": 33,
            "name": "A1",
            "ticks": 296640,
            "time": 132.42813,
            "velocity": 0.4881889763779528
          },
          {
            "duration": 0.042856999999997925,
            "durationTicks": 96,
            "midi": 32,
            "name": "G#1",
            "ticks": 296640,
            "time": 132.42813,
            "velocity": 0.4881889763779528
          },
          {
            "duration": 0.042856999999997925,
            "durationTicks": 96,
            "midi": 32,
            "name": "G#1",
            "ticks": 296640,
            "time": 132.42813,
            "velocity": 0.4881889763779528
          },
          {
            "duration": 0.042856999999997925,
            "durationTicks": 96,
            "midi": 32,
            "name": "G#1",
            "ticks": 296640,
            "time": 132.42813,
            "velocity": 0.4881889763779528
          },
          {
            "duration": 0.042856999999997925,
            "durationTicks": 96,
            "midi": 35,
            "name": "B1",
            "ticks": 297408,
            "time": 132.770986,
            "velocity": 0.4881889763779528
          },
          {
            "duration": 0.042856999999997925,
            "durationTicks": 96,
            "midi": 47,
            "name": "B2",
            "ticks": 297408,
            "time": 132.770986,
            "velocity": 0.4881889763779528
          },
          {
            "duration": 0.042856999999997925,
            "durationTicks": 96,
            "midi": 35,
            "name": "B1",
            "ticks": 297408,
            "time": 132.770986,
            "velocity": 0.4881889763779528
          },
          {
            "duration": 0.042856999999997925,
            "durationTicks": 96,
            "midi": 37,
            "name": "C#2",
            "ticks": 297408,
            "time": 132.770986,
            "velocity": 0.4881889763779528
          },
          {
            "duration": 0.042856999999997925,
            "durationTicks": 96,
            "midi": 37,
            "name": "C#2",
            "ticks": 297408,
            "time": 132.770986,
            "velocity": 0.4881889763779528
          },
          {
            "duration": 0.042856999999997925,
            "durationTicks": 96,
            "midi": 37,
            "name": "C#2",
            "ticks": 297408,
            "time": 132.770986,
            "velocity": 0.4881889763779528
          },
          {
            "duration": 0.042856999999997925,
            "durationTicks": 96,
            "midi": 35,
            "name": "B1",
            "ticks": 297408,
            "time": 132.770986,
            "velocity": 0.4881889763779528
          },
          {
            "duration": 0.042856999999997925,
            "durationTicks": 96,
            "midi": 45,
            "name": "A2",
            "ticks": 297408,
            "time": 132.770986,
            "velocity": 0.4881889763779528
          },
          {
            "duration": 0.042856999999997925,
            "durationTicks": 96,
            "midi": 33,
            "name": "A1",
            "ticks": 298560,
            "time": 133.28527,
            "velocity": 0.4881889763779528
          },
          {
            "duration": 0.042856999999997925,
            "durationTicks": 96,
            "midi": 33,
            "name": "A1",
            "ticks": 298560,
            "time": 133.28527,
            "velocity": 0.4881889763779528
          },
          {
            "duration": 0.042856999999997925,
            "durationTicks": 96,
            "midi": 32,
            "name": "G#1",
            "ticks": 298560,
            "time": 133.28527,
            "velocity": 0.4881889763779528
          },
          {
            "duration": 0.042856999999997925,
            "durationTicks": 96,
            "midi": 33,
            "name": "A1",
            "ticks": 298560,
            "time": 133.28527,
            "velocity": 0.4881889763779528
          },
          {
            "duration": 0.042856999999997925,
            "durationTicks": 96,
            "midi": 32,
            "name": "G#1",
            "ticks": 298560,
            "time": 133.28527,
            "velocity": 0.4881889763779528
          },
          {
            "duration": 0.042856999999997925,
            "durationTicks": 96,
            "midi": 38,
            "name": "D2",
            "ticks": 298560,
            "time": 133.28527,
            "velocity": 0.4881889763779528
          },
          {
            "duration": 0.042856999999997925,
            "durationTicks": 96,
            "midi": 32,
            "name": "G#1",
            "ticks": 298560,
            "time": 133.28527,
            "velocity": 0.4881889763779528
          },
          {
            "duration": 0.042856999999997925,
            "durationTicks": 96,
            "midi": 33,
            "name": "A1",
            "ticks": 298560,
            "time": 133.28527,
            "velocity": 0.4881889763779528
          },
          {
            "duration": 0.042856999999997925,
            "durationTicks": 96,
            "midi": 32,
            "name": "G#1",
            "ticks": 298560,
            "time": 133.28527,
            "velocity": 0.4881889763779528
          },
          {
            "duration": 0.042856999999997925,
            "durationTicks": 96,
            "midi": 40,
            "name": "E2",
            "ticks": 298560,
            "time": 133.28527,
            "velocity": 0.4881889763779528
          },
          {
            "duration": 0.042856999999997925,
            "durationTicks": 96,
            "midi": 32,
            "name": "G#1",
            "ticks": 298752,
            "time": 133.370984,
            "velocity": 0.4881889763779528
          },
          {
            "duration": 0.042856999999997925,
            "durationTicks": 96,
            "midi": 38,
            "name": "D2",
            "ticks": 298752,
            "time": 133.370984,
            "velocity": 0.4881889763779528
          },
          {
            "duration": 0.042856999999997925,
            "durationTicks": 96,
            "midi": 33,
            "name": "A1",
            "ticks": 298752,
            "time": 133.370984,
            "velocity": 0.4881889763779528
          },
          {
            "duration": 0.042856999999997925,
            "durationTicks": 96,
            "midi": 32,
            "name": "G#1",
            "ticks": 298752,
            "time": 133.370984,
            "velocity": 0.4881889763779528
          },
          {
            "duration": 0.042856999999997925,
            "durationTicks": 96,
            "midi": 32,
            "name": "G#1",
            "ticks": 298752,
            "time": 133.370984,
            "velocity": 0.4881889763779528
          },
          {
            "duration": 0.042856999999997925,
            "durationTicks": 96,
            "midi": 33,
            "name": "A1",
            "ticks": 298752,
            "time": 133.370984,
            "velocity": 0.4881889763779528
          },
          {
            "duration": 0.042856999999997925,
            "durationTicks": 96,
            "midi": 40,
            "name": "E2",
            "ticks": 298752,
            "time": 133.370984,
            "velocity": 0.4881889763779528
          },
          {
            "duration": 0.042856999999997925,
            "durationTicks": 96,
            "midi": 33,
            "name": "A1",
            "ticks": 298752,
            "time": 133.370984,
            "velocity": 0.4881889763779528
          },
          {
            "duration": 0.042856999999997925,
            "durationTicks": 96,
            "midi": 33,
            "name": "A1",
            "ticks": 298752,
            "time": 133.370984,
            "velocity": 0.4881889763779528
          },
          {
            "duration": 0.042856999999997925,
            "durationTicks": 96,
            "midi": 32,
            "name": "G#1",
            "ticks": 298752,
            "time": 133.370984,
            "velocity": 0.4881889763779528
          },
          {
            "duration": 0.042856999999997925,
            "durationTicks": 96,
            "midi": 37,
            "name": "C#2",
            "ticks": 298944,
            "time": 133.456698,
            "velocity": 0.4881889763779528
          },
          {
            "duration": 0.042856999999997925,
            "durationTicks": 96,
            "midi": 35,
            "name": "B1",
            "ticks": 298944,
            "time": 133.456698,
            "velocity": 0.4881889763779528
          },
          {
            "duration": 0.042856999999997925,
            "durationTicks": 96,
            "midi": 35,
            "name": "B1",
            "ticks": 298944,
            "time": 133.456698,
            "velocity": 0.4881889763779528
          },
          {
            "duration": 0.042856999999997925,
            "durationTicks": 96,
            "midi": 47,
            "name": "B2",
            "ticks": 298944,
            "time": 133.456698,
            "velocity": 0.4881889763779528
          },
          {
            "duration": 0.042856999999997925,
            "durationTicks": 96,
            "midi": 35,
            "name": "B1",
            "ticks": 298944,
            "time": 133.456698,
            "velocity": 0.4881889763779528
          },
          {
            "duration": 0.042856999999997925,
            "durationTicks": 96,
            "midi": 45,
            "name": "A2",
            "ticks": 298944,
            "time": 133.456698,
            "velocity": 0.4881889763779528
          },
          {
            "duration": 0.042856999999997925,
            "durationTicks": 96,
            "midi": 37,
            "name": "C#2",
            "ticks": 298944,
            "time": 133.456698,
            "velocity": 0.4881889763779528
          },
          {
            "duration": 0.042856999999997925,
            "durationTicks": 96,
            "midi": 37,
            "name": "C#2",
            "ticks": 298944,
            "time": 133.456698,
            "velocity": 0.4881889763779528
          },
          {
            "duration": 0.042856999999997925,
            "durationTicks": 96,
            "midi": 33,
            "name": "A1",
            "ticks": 299328,
            "time": 133.628126,
            "velocity": 0.4881889763779528
          },
          {
            "duration": 0.042856999999997925,
            "durationTicks": 96,
            "midi": 32,
            "name": "G#1",
            "ticks": 299328,
            "time": 133.628126,
            "velocity": 0.4881889763779528
          },
          {
            "duration": 0.042856999999997925,
            "durationTicks": 96,
            "midi": 32,
            "name": "G#1",
            "ticks": 299328,
            "time": 133.628126,
            "velocity": 0.4881889763779528
          },
          {
            "duration": 0.042856999999997925,
            "durationTicks": 96,
            "midi": 33,
            "name": "A1",
            "ticks": 299328,
            "time": 133.628126,
            "velocity": 0.4881889763779528
          },
          {
            "duration": 0.042856999999997925,
            "durationTicks": 96,
            "midi": 40,
            "name": "E2",
            "ticks": 299328,
            "time": 133.628126,
            "velocity": 0.4881889763779528
          },
          {
            "duration": 0.042856999999997925,
            "durationTicks": 96,
            "midi": 33,
            "name": "A1",
            "ticks": 299328,
            "time": 133.628126,
            "velocity": 0.4881889763779528
          },
          {
            "duration": 0.042856999999997925,
            "durationTicks": 96,
            "midi": 33,
            "name": "A1",
            "ticks": 299328,
            "time": 133.628126,
            "velocity": 0.4881889763779528
          },
          {
            "duration": 0.042856999999997925,
            "durationTicks": 96,
            "midi": 32,
            "name": "G#1",
            "ticks": 299328,
            "time": 133.628126,
            "velocity": 0.4881889763779528
          },
          {
            "duration": 0.042856999999997925,
            "durationTicks": 96,
            "midi": 38,
            "name": "D2",
            "ticks": 299328,
            "time": 133.628126,
            "velocity": 0.4881889763779528
          },
          {
            "duration": 0.042856999999997925,
            "durationTicks": 96,
            "midi": 32,
            "name": "G#1",
            "ticks": 299328,
            "time": 133.628126,
            "velocity": 0.4881889763779528
          },
          {
            "duration": 0.042856999999997925,
            "durationTicks": 96,
            "midi": 32,
            "name": "G#1",
            "ticks": 299712,
            "time": 133.799554,
            "velocity": 0.4881889763779528
          },
          {
            "duration": 0.042856999999997925,
            "durationTicks": 96,
            "midi": 33,
            "name": "A1",
            "ticks": 299712,
            "time": 133.799554,
            "velocity": 0.4881889763779528
          },
          {
            "duration": 0.042856999999997925,
            "durationTicks": 96,
            "midi": 32,
            "name": "G#1",
            "ticks": 299712,
            "time": 133.799554,
            "velocity": 0.4881889763779528
          },
          {
            "duration": 0.042856999999997925,
            "durationTicks": 96,
            "midi": 38,
            "name": "D2",
            "ticks": 299712,
            "time": 133.799554,
            "velocity": 0.4881889763779528
          },
          {
            "duration": 0.042856999999997925,
            "durationTicks": 96,
            "midi": 40,
            "name": "E2",
            "ticks": 299712,
            "time": 133.799554,
            "velocity": 0.4881889763779528
          },
          {
            "duration": 0.042856999999997925,
            "durationTicks": 96,
            "midi": 33,
            "name": "A1",
            "ticks": 299712,
            "time": 133.799554,
            "velocity": 0.4881889763779528
          },
          {
            "duration": 0.042856999999997925,
            "durationTicks": 96,
            "midi": 33,
            "name": "A1",
            "ticks": 299712,
            "time": 133.799554,
            "velocity": 0.4881889763779528
          },
          {
            "duration": 0.042856999999997925,
            "durationTicks": 96,
            "midi": 32,
            "name": "G#1",
            "ticks": 299712,
            "time": 133.799554,
            "velocity": 0.4881889763779528
          },
          {
            "duration": 0.042856999999997925,
            "durationTicks": 96,
            "midi": 32,
            "name": "G#1",
            "ticks": 299712,
            "time": 133.799554,
            "velocity": 0.4881889763779528
          },
          {
            "duration": 0.042856999999997925,
            "durationTicks": 96,
            "midi": 33,
            "name": "A1",
            "ticks": 299712,
            "time": 133.799554,
            "velocity": 0.4881889763779528
          },
          {
            "duration": 0.042857000000026346,
            "durationTicks": 96,
            "midi": 45,
            "name": "A2",
            "ticks": 300480,
            "time": 134.14240999999998,
            "velocity": 0.4881889763779528
          },
          {
            "duration": 0.042857000000026346,
            "durationTicks": 96,
            "midi": 35,
            "name": "B1",
            "ticks": 300480,
            "time": 134.14240999999998,
            "velocity": 0.4881889763779528
          },
          {
            "duration": 0.042857000000026346,
            "durationTicks": 96,
            "midi": 35,
            "name": "B1",
            "ticks": 300480,
            "time": 134.14240999999998,
            "velocity": 0.4881889763779528
          },
          {
            "duration": 0.042857000000026346,
            "durationTicks": 96,
            "midi": 37,
            "name": "C#2",
            "ticks": 300480,
            "time": 134.14240999999998,
            "velocity": 0.4881889763779528
          },
          {
            "duration": 0.042857000000026346,
            "durationTicks": 96,
            "midi": 37,
            "name": "C#2",
            "ticks": 300480,
            "time": 134.14240999999998,
            "velocity": 0.4881889763779528
          },
          {
            "duration": 0.042857000000026346,
            "durationTicks": 96,
            "midi": 35,
            "name": "B1",
            "ticks": 300480,
            "time": 134.14240999999998,
            "velocity": 0.4881889763779528
          },
          {
            "duration": 0.042857000000026346,
            "durationTicks": 96,
            "midi": 37,
            "name": "C#2",
            "ticks": 300480,
            "time": 134.14240999999998,
            "velocity": 0.4881889763779528
          },
          {
            "duration": 0.042857000000026346,
            "durationTicks": 96,
            "midi": 47,
            "name": "B2",
            "ticks": 300480,
            "time": 134.14240999999998,
            "velocity": 0.4881889763779528
          },
          {
            "duration": 0.042856999999997925,
            "durationTicks": 96,
            "midi": 32,
            "name": "G#1",
            "ticks": 301632,
            "time": 134.656694,
            "velocity": 0.4881889763779528
          },
          {
            "duration": 0.042856999999997925,
            "durationTicks": 96,
            "midi": 32,
            "name": "G#1",
            "ticks": 301632,
            "time": 134.656694,
            "velocity": 0.4881889763779528
          },
          {
            "duration": 0.042856999999997925,
            "durationTicks": 96,
            "midi": 33,
            "name": "A1",
            "ticks": 301632,
            "time": 134.656694,
            "velocity": 0.4881889763779528
          },
          {
            "duration": 0.042856999999997925,
            "durationTicks": 96,
            "midi": 32,
            "name": "G#1",
            "ticks": 301632,
            "time": 134.656694,
            "velocity": 0.4881889763779528
          },
          {
            "duration": 0.042856999999997925,
            "durationTicks": 96,
            "midi": 33,
            "name": "A1",
            "ticks": 301632,
            "time": 134.656694,
            "velocity": 0.4881889763779528
          },
          {
            "duration": 0.042856999999997925,
            "durationTicks": 96,
            "midi": 33,
            "name": "A1",
            "ticks": 301632,
            "time": 134.656694,
            "velocity": 0.4881889763779528
          },
          {
            "duration": 0.042856999999997925,
            "durationTicks": 96,
            "midi": 38,
            "name": "D2",
            "ticks": 301632,
            "time": 134.656694,
            "velocity": 0.4881889763779528
          },
          {
            "duration": 0.042856999999997925,
            "durationTicks": 96,
            "midi": 32,
            "name": "G#1",
            "ticks": 301632,
            "time": 134.656694,
            "velocity": 0.4881889763779528
          },
          {
            "duration": 0.042856999999997925,
            "durationTicks": 96,
            "midi": 40,
            "name": "E2",
            "ticks": 301632,
            "time": 134.656694,
            "velocity": 0.4881889763779528
          },
          {
            "duration": 0.042856999999997925,
            "durationTicks": 96,
            "midi": 33,
            "name": "A1",
            "ticks": 301632,
            "time": 134.656694,
            "velocity": 0.4881889763779528
          },
          {
            "duration": 0.042856999999997925,
            "durationTicks": 96,
            "midi": 47,
            "name": "B2",
            "ticks": 302016,
            "time": 134.828122,
            "velocity": 0.4881889763779528
          },
          {
            "duration": 0.042856999999997925,
            "durationTicks": 96,
            "midi": 37,
            "name": "C#2",
            "ticks": 302016,
            "time": 134.828122,
            "velocity": 0.4881889763779528
          },
          {
            "duration": 0.042856999999997925,
            "durationTicks": 96,
            "midi": 35,
            "name": "B1",
            "ticks": 302016,
            "time": 134.828122,
            "velocity": 0.4881889763779528
          },
          {
            "duration": 0.042856999999997925,
            "durationTicks": 96,
            "midi": 35,
            "name": "B1",
            "ticks": 302016,
            "time": 134.828122,
            "velocity": 0.4881889763779528
          },
          {
            "duration": 0.042856999999997925,
            "durationTicks": 96,
            "midi": 37,
            "name": "C#2",
            "ticks": 302016,
            "time": 134.828122,
            "velocity": 0.4881889763779528
          },
          {
            "duration": 0.042856999999997925,
            "durationTicks": 96,
            "midi": 35,
            "name": "B1",
            "ticks": 302016,
            "time": 134.828122,
            "velocity": 0.4881889763779528
          },
          {
            "duration": 0.042856999999997925,
            "durationTicks": 96,
            "midi": 37,
            "name": "C#2",
            "ticks": 302016,
            "time": 134.828122,
            "velocity": 0.4881889763779528
          },
          {
            "duration": 0.042856999999997925,
            "durationTicks": 96,
            "midi": 33,
            "name": "A1",
            "ticks": 302784,
            "time": 135.170978,
            "velocity": 0.4881889763779528
          },
          {
            "duration": 0.042856999999997925,
            "durationTicks": 96,
            "midi": 32,
            "name": "G#1",
            "ticks": 302784,
            "time": 135.170978,
            "velocity": 0.4881889763779528
          },
          {
            "duration": 0.042856999999997925,
            "durationTicks": 96,
            "midi": 40,
            "name": "E2",
            "ticks": 302784,
            "time": 135.170978,
            "velocity": 0.4881889763779528
          },
          {
            "duration": 0.042856999999997925,
            "durationTicks": 96,
            "midi": 33,
            "name": "A1",
            "ticks": 302784,
            "time": 135.170978,
            "velocity": 0.4881889763779528
          },
          {
            "duration": 0.042856999999997925,
            "durationTicks": 96,
            "midi": 38,
            "name": "D2",
            "ticks": 302784,
            "time": 135.170978,
            "velocity": 0.4881889763779528
          },
          {
            "duration": 0.042856999999997925,
            "durationTicks": 96,
            "midi": 32,
            "name": "G#1",
            "ticks": 302784,
            "time": 135.170978,
            "velocity": 0.4881889763779528
          },
          {
            "duration": 0.042856999999997925,
            "durationTicks": 96,
            "midi": 33,
            "name": "A1",
            "ticks": 302784,
            "time": 135.170978,
            "velocity": 0.4881889763779528
          },
          {
            "duration": 0.042856999999997925,
            "durationTicks": 96,
            "midi": 32,
            "name": "G#1",
            "ticks": 302784,
            "time": 135.170978,
            "velocity": 0.4881889763779528
          },
          {
            "duration": 0.042856999999997925,
            "durationTicks": 96,
            "midi": 33,
            "name": "A1",
            "ticks": 302784,
            "time": 135.170978,
            "velocity": 0.4881889763779528
          },
          {
            "duration": 0.042856999999997925,
            "durationTicks": 96,
            "midi": 32,
            "name": "G#1",
            "ticks": 302784,
            "time": 135.170978,
            "velocity": 0.4881889763779528
          },
          {
            "duration": 0.042856999999997925,
            "durationTicks": 96,
            "midi": 37,
            "name": "C#2",
            "ticks": 303552,
            "time": 135.513834,
            "velocity": 0.4881889763779528
          },
          {
            "duration": 0.042856999999997925,
            "durationTicks": 96,
            "midi": 35,
            "name": "B1",
            "ticks": 303552,
            "time": 135.513834,
            "velocity": 0.4881889763779528
          },
          {
            "duration": 0.042856999999997925,
            "durationTicks": 96,
            "midi": 47,
            "name": "B2",
            "ticks": 303552,
            "time": 135.513834,
            "velocity": 0.4881889763779528
          },
          {
            "duration": 0.042856999999997925,
            "durationTicks": 96,
            "midi": 37,
            "name": "C#2",
            "ticks": 303552,
            "time": 135.513834,
            "velocity": 0.4881889763779528
          },
          {
            "duration": 0.042856999999997925,
            "durationTicks": 96,
            "midi": 45,
            "name": "A2",
            "ticks": 303552,
            "time": 135.513834,
            "velocity": 0.4881889763779528
          },
          {
            "duration": 0.042856999999997925,
            "durationTicks": 96,
            "midi": 35,
            "name": "B1",
            "ticks": 303552,
            "time": 135.513834,
            "velocity": 0.4881889763779528
          },
          {
            "duration": 0.042856999999997925,
            "durationTicks": 96,
            "midi": 37,
            "name": "C#2",
            "ticks": 303552,
            "time": 135.513834,
            "velocity": 0.4881889763779528
          },
          {
            "duration": 0.042856999999997925,
            "durationTicks": 96,
            "midi": 35,
            "name": "B1",
            "ticks": 303552,
            "time": 135.513834,
            "velocity": 0.4881889763779528
          },
          {
            "duration": 0.042856999999997925,
            "durationTicks": 96,
            "midi": 32,
            "name": "G#1",
            "ticks": 304704,
            "time": 136.028118,
            "velocity": 0.4881889763779528
          },
          {
            "duration": 0.042856999999997925,
            "durationTicks": 96,
            "midi": 33,
            "name": "A1",
            "ticks": 304704,
            "time": 136.028118,
            "velocity": 0.4881889763779528
          },
          {
            "duration": 0.042856999999997925,
            "durationTicks": 96,
            "midi": 40,
            "name": "E2",
            "ticks": 304704,
            "time": 136.028118,
            "velocity": 0.4881889763779528
          },
          {
            "duration": 0.042856999999997925,
            "durationTicks": 96,
            "midi": 32,
            "name": "G#1",
            "ticks": 304704,
            "time": 136.028118,
            "velocity": 0.4881889763779528
          },
          {
            "duration": 0.042856999999997925,
            "durationTicks": 96,
            "midi": 32,
            "name": "G#1",
            "ticks": 304704,
            "time": 136.028118,
            "velocity": 0.4881889763779528
          },
          {
            "duration": 0.042856999999997925,
            "durationTicks": 96,
            "midi": 32,
            "name": "G#1",
            "ticks": 304704,
            "time": 136.028118,
            "velocity": 0.4881889763779528
          },
          {
            "duration": 0.042856999999997925,
            "durationTicks": 96,
            "midi": 33,
            "name": "A1",
            "ticks": 304704,
            "time": 136.028118,
            "velocity": 0.4881889763779528
          },
          {
            "duration": 0.042856999999997925,
            "durationTicks": 96,
            "midi": 33,
            "name": "A1",
            "ticks": 304704,
            "time": 136.028118,
            "velocity": 0.4881889763779528
          },
          {
            "duration": 0.042856999999997925,
            "durationTicks": 96,
            "midi": 33,
            "name": "A1",
            "ticks": 304704,
            "time": 136.028118,
            "velocity": 0.4881889763779528
          },
          {
            "duration": 0.042856999999997925,
            "durationTicks": 96,
            "midi": 38,
            "name": "D2",
            "ticks": 304704,
            "time": 136.028118,
            "velocity": 0.4881889763779528
          },
          {
            "duration": 0.042856999999997925,
            "durationTicks": 96,
            "midi": 35,
            "name": "B1",
            "ticks": 305088,
            "time": 136.199546,
            "velocity": 0.4881889763779528
          },
          {
            "duration": 0.042856999999997925,
            "durationTicks": 96,
            "midi": 47,
            "name": "B2",
            "ticks": 305088,
            "time": 136.199546,
            "velocity": 0.4881889763779528
          },
          {
            "duration": 0.042856999999997925,
            "durationTicks": 96,
            "midi": 35,
            "name": "B1",
            "ticks": 305088,
            "time": 136.199546,
            "velocity": 0.4881889763779528
          },
          {
            "duration": 0.042856999999997925,
            "durationTicks": 96,
            "midi": 37,
            "name": "C#2",
            "ticks": 305088,
            "time": 136.199546,
            "velocity": 0.4881889763779528
          },
          {
            "duration": 0.042856999999997925,
            "durationTicks": 96,
            "midi": 37,
            "name": "C#2",
            "ticks": 305088,
            "time": 136.199546,
            "velocity": 0.4881889763779528
          },
          {
            "duration": 0.042856999999997925,
            "durationTicks": 96,
            "midi": 35,
            "name": "B1",
            "ticks": 305088,
            "time": 136.199546,
            "velocity": 0.4881889763779528
          },
          {
            "duration": 0.042856999999997925,
            "durationTicks": 96,
            "midi": 37,
            "name": "C#2",
            "ticks": 305088,
            "time": 136.199546,
            "velocity": 0.4881889763779528
          },
          {
            "duration": 0.042856999999997925,
            "durationTicks": 96,
            "midi": 45,
            "name": "A2",
            "ticks": 305088,
            "time": 136.199546,
            "velocity": 0.4881889763779528
          },
          {
            "duration": 0.042856999999997925,
            "durationTicks": 96,
            "midi": 32,
            "name": "G#1",
            "ticks": 305472,
            "time": 136.370974,
            "velocity": 0.4881889763779528
          },
          {
            "duration": 0.042856999999997925,
            "durationTicks": 96,
            "midi": 38,
            "name": "D2",
            "ticks": 305472,
            "time": 136.370974,
            "velocity": 0.4881889763779528
          },
          {
            "duration": 0.042856999999997925,
            "durationTicks": 96,
            "midi": 33,
            "name": "A1",
            "ticks": 305472,
            "time": 136.370974,
            "velocity": 0.4881889763779528
          },
          {
            "duration": 0.042856999999997925,
            "durationTicks": 96,
            "midi": 33,
            "name": "A1",
            "ticks": 305472,
            "time": 136.370974,
            "velocity": 0.4881889763779528
          },
          {
            "duration": 0.042856999999997925,
            "durationTicks": 96,
            "midi": 32,
            "name": "G#1",
            "ticks": 305472,
            "time": 136.370974,
            "velocity": 0.4881889763779528
          },
          {
            "duration": 0.042856999999997925,
            "durationTicks": 96,
            "midi": 33,
            "name": "A1",
            "ticks": 305472,
            "time": 136.370974,
            "velocity": 0.4881889763779528
          },
          {
            "duration": 0.042856999999997925,
            "durationTicks": 96,
            "midi": 32,
            "name": "G#1",
            "ticks": 305472,
            "time": 136.370974,
            "velocity": 0.4881889763779528
          },
          {
            "duration": 0.042856999999997925,
            "durationTicks": 96,
            "midi": 32,
            "name": "G#1",
            "ticks": 305472,
            "time": 136.370974,
            "velocity": 0.4881889763779528
          },
          {
            "duration": 0.042856999999997925,
            "durationTicks": 96,
            "midi": 40,
            "name": "E2",
            "ticks": 305472,
            "time": 136.370974,
            "velocity": 0.4881889763779528
          },
          {
            "duration": 0.042856999999997925,
            "durationTicks": 96,
            "midi": 33,
            "name": "A1",
            "ticks": 305472,
            "time": 136.370974,
            "velocity": 0.4881889763779528
          },
          {
            "duration": 0.042856999999997925,
            "durationTicks": 96,
            "midi": 40,
            "name": "E2",
            "ticks": 305856,
            "time": 136.542402,
            "velocity": 0.4881889763779528
          },
          {
            "duration": 0.042856999999997925,
            "durationTicks": 96,
            "midi": 38,
            "name": "D2",
            "ticks": 305856,
            "time": 136.542402,
            "velocity": 0.4881889763779528
          },
          {
            "duration": 0.042856999999997925,
            "durationTicks": 96,
            "midi": 32,
            "name": "G#1",
            "ticks": 305856,
            "time": 136.542402,
            "velocity": 0.4881889763779528
          },
          {
            "duration": 0.042856999999997925,
            "durationTicks": 96,
            "midi": 32,
            "name": "G#1",
            "ticks": 305856,
            "time": 136.542402,
            "velocity": 0.4881889763779528
          },
          {
            "duration": 0.042856999999997925,
            "durationTicks": 96,
            "midi": 32,
            "name": "G#1",
            "ticks": 305856,
            "time": 136.542402,
            "velocity": 0.4881889763779528
          },
          {
            "duration": 0.042856999999997925,
            "durationTicks": 96,
            "midi": 33,
            "name": "A1",
            "ticks": 305856,
            "time": 136.542402,
            "velocity": 0.4881889763779528
          },
          {
            "duration": 0.042856999999997925,
            "durationTicks": 96,
            "midi": 33,
            "name": "A1",
            "ticks": 305856,
            "time": 136.542402,
            "velocity": 0.4881889763779528
          },
          {
            "duration": 0.042856999999997925,
            "durationTicks": 96,
            "midi": 33,
            "name": "A1",
            "ticks": 305856,
            "time": 136.542402,
            "velocity": 0.4881889763779528
          },
          {
            "duration": 0.042856999999997925,
            "durationTicks": 96,
            "midi": 32,
            "name": "G#1",
            "ticks": 305856,
            "time": 136.542402,
            "velocity": 0.4881889763779528
          },
          {
            "duration": 0.042856999999997925,
            "durationTicks": 96,
            "midi": 33,
            "name": "A1",
            "ticks": 305856,
            "time": 136.542402,
            "velocity": 0.4881889763779528
          },
          {
            "duration": 0.042856999999997925,
            "durationTicks": 96,
            "midi": 37,
            "name": "C#2",
            "ticks": 306624,
            "time": 136.885258,
            "velocity": 0.4881889763779528
          },
          {
            "duration": 0.042856999999997925,
            "durationTicks": 96,
            "midi": 35,
            "name": "B1",
            "ticks": 306624,
            "time": 136.885258,
            "velocity": 0.4881889763779528
          },
          {
            "duration": 0.042856999999997925,
            "durationTicks": 96,
            "midi": 35,
            "name": "B1",
            "ticks": 306624,
            "time": 136.885258,
            "velocity": 0.4881889763779528
          },
          {
            "duration": 0.042856999999997925,
            "durationTicks": 96,
            "midi": 45,
            "name": "A2",
            "ticks": 306624,
            "time": 136.885258,
            "velocity": 0.4881889763779528
          },
          {
            "duration": 0.042856999999997925,
            "durationTicks": 96,
            "midi": 47,
            "name": "B2",
            "ticks": 306624,
            "time": 136.885258,
            "velocity": 0.4881889763779528
          },
          {
            "duration": 0.042856999999997925,
            "durationTicks": 96,
            "midi": 37,
            "name": "C#2",
            "ticks": 306624,
            "time": 136.885258,
            "velocity": 0.4881889763779528
          },
          {
            "duration": 0.042856999999997925,
            "durationTicks": 96,
            "midi": 37,
            "name": "C#2",
            "ticks": 306624,
            "time": 136.885258,
            "velocity": 0.4881889763779528
          },
          {
            "duration": 0.042856999999997925,
            "durationTicks": 96,
            "midi": 35,
            "name": "B1",
            "ticks": 306624,
            "time": 136.885258,
            "velocity": 0.4881889763779528
          },
          {
            "duration": 0.042856999999997925,
            "durationTicks": 96,
            "midi": 35,
            "name": "B1",
            "ticks": 307392,
            "time": 137.228114,
            "velocity": 0.4881889763779528
          },
          {
            "duration": 0.042856999999997925,
            "durationTicks": 96,
            "midi": 37,
            "name": "C#2",
            "ticks": 307392,
            "time": 137.228114,
            "velocity": 0.4881889763779528
          },
          {
            "duration": 0.042856999999997925,
            "durationTicks": 96,
            "midi": 47,
            "name": "B2",
            "ticks": 307392,
            "time": 137.228114,
            "velocity": 0.4881889763779528
          },
          {
            "duration": 0.042856999999997925,
            "durationTicks": 96,
            "midi": 37,
            "name": "C#2",
            "ticks": 307392,
            "time": 137.228114,
            "velocity": 0.4881889763779528
          },
          {
            "duration": 0.042856999999997925,
            "durationTicks": 96,
            "midi": 37,
            "name": "C#2",
            "ticks": 307392,
            "time": 137.228114,
            "velocity": 0.4881889763779528
          },
          {
            "duration": 0.042856999999997925,
            "durationTicks": 96,
            "midi": 35,
            "name": "B1",
            "ticks": 307392,
            "time": 137.228114,
            "velocity": 0.4881889763779528
          },
          {
            "duration": 0.042856999999997925,
            "durationTicks": 96,
            "midi": 35,
            "name": "B1",
            "ticks": 307392,
            "time": 137.228114,
            "velocity": 0.4881889763779528
          },
          {
            "duration": 0.042856999999997925,
            "durationTicks": 96,
            "midi": 45,
            "name": "A2",
            "ticks": 307392,
            "time": 137.228114,
            "velocity": 0.4881889763779528
          },
          {
            "duration": 0.042856999999997925,
            "durationTicks": 96,
            "midi": 37,
            "name": "C#2",
            "ticks": 307584,
            "time": 137.313828,
            "velocity": 0.4881889763779528
          },
          {
            "duration": 0.042856999999997925,
            "durationTicks": 96,
            "midi": 35,
            "name": "B1",
            "ticks": 307584,
            "time": 137.313828,
            "velocity": 0.4881889763779528
          },
          {
            "duration": 0.042856999999997925,
            "durationTicks": 96,
            "midi": 45,
            "name": "A2",
            "ticks": 307584,
            "time": 137.313828,
            "velocity": 0.4881889763779528
          },
          {
            "duration": 0.042856999999997925,
            "durationTicks": 96,
            "midi": 35,
            "name": "B1",
            "ticks": 307584,
            "time": 137.313828,
            "velocity": 0.4881889763779528
          },
          {
            "duration": 0.042856999999997925,
            "durationTicks": 96,
            "midi": 37,
            "name": "C#2",
            "ticks": 307584,
            "time": 137.313828,
            "velocity": 0.4881889763779528
          },
          {
            "duration": 0.042856999999997925,
            "durationTicks": 96,
            "midi": 47,
            "name": "B2",
            "ticks": 307584,
            "time": 137.313828,
            "velocity": 0.4881889763779528
          },
          {
            "duration": 0.042856999999997925,
            "durationTicks": 96,
            "midi": 37,
            "name": "C#2",
            "ticks": 307584,
            "time": 137.313828,
            "velocity": 0.4881889763779528
          },
          {
            "duration": 0.042856999999997925,
            "durationTicks": 96,
            "midi": 35,
            "name": "B1",
            "ticks": 307584,
            "time": 137.313828,
            "velocity": 0.4881889763779528
          },
          {
            "duration": 0.042856999999997925,
            "durationTicks": 96,
            "midi": 32,
            "name": "G#1",
            "ticks": 307776,
            "time": 137.399542,
            "velocity": 0.4881889763779528
          },
          {
            "duration": 0.042856999999997925,
            "durationTicks": 96,
            "midi": 33,
            "name": "A1",
            "ticks": 307776,
            "time": 137.399542,
            "velocity": 0.4881889763779528
          },
          {
            "duration": 0.042856999999997925,
            "durationTicks": 96,
            "midi": 38,
            "name": "D2",
            "ticks": 307776,
            "time": 137.399542,
            "velocity": 0.4881889763779528
          },
          {
            "duration": 0.042856999999997925,
            "durationTicks": 96,
            "midi": 32,
            "name": "G#1",
            "ticks": 307776,
            "time": 137.399542,
            "velocity": 0.4881889763779528
          },
          {
            "duration": 0.042856999999997925,
            "durationTicks": 96,
            "midi": 33,
            "name": "A1",
            "ticks": 307776,
            "time": 137.399542,
            "velocity": 0.4881889763779528
          },
          {
            "duration": 0.042856999999997925,
            "durationTicks": 96,
            "midi": 40,
            "name": "E2",
            "ticks": 307776,
            "time": 137.399542,
            "velocity": 0.4881889763779528
          },
          {
            "duration": 0.042856999999997925,
            "durationTicks": 96,
            "midi": 33,
            "name": "A1",
            "ticks": 307776,
            "time": 137.399542,
            "velocity": 0.4881889763779528
          },
          {
            "duration": 0.042856999999997925,
            "durationTicks": 96,
            "midi": 33,
            "name": "A1",
            "ticks": 307776,
            "time": 137.399542,
            "velocity": 0.4881889763779528
          },
          {
            "duration": 0.042856999999997925,
            "durationTicks": 96,
            "midi": 32,
            "name": "G#1",
            "ticks": 307776,
            "time": 137.399542,
            "velocity": 0.4881889763779528
          },
          {
            "duration": 0.042856999999997925,
            "durationTicks": 96,
            "midi": 32,
            "name": "G#1",
            "ticks": 307776,
            "time": 137.399542,
            "velocity": 0.4881889763779528
          },
          {
            "duration": 0.042856999999997925,
            "durationTicks": 96,
            "midi": 45,
            "name": "A2",
            "ticks": 308160,
            "time": 137.57097,
            "velocity": 0.4881889763779528
          },
          {
            "duration": 0.042856999999997925,
            "durationTicks": 96,
            "midi": 35,
            "name": "B1",
            "ticks": 308160,
            "time": 137.57097,
            "velocity": 0.4881889763779528
          },
          {
            "duration": 0.042856999999997925,
            "durationTicks": 96,
            "midi": 47,
            "name": "B2",
            "ticks": 308160,
            "time": 137.57097,
            "velocity": 0.4881889763779528
          },
          {
            "duration": 0.042856999999997925,
            "durationTicks": 96,
            "midi": 35,
            "name": "B1",
            "ticks": 308160,
            "time": 137.57097,
            "velocity": 0.4881889763779528
          },
          {
            "duration": 0.042856999999997925,
            "durationTicks": 96,
            "midi": 37,
            "name": "C#2",
            "ticks": 308160,
            "time": 137.57097,
            "velocity": 0.4881889763779528
          },
          {
            "duration": 0.042856999999997925,
            "durationTicks": 96,
            "midi": 35,
            "name": "B1",
            "ticks": 308160,
            "time": 137.57097,
            "velocity": 0.4881889763779528
          },
          {
            "duration": 0.042856999999997925,
            "durationTicks": 96,
            "midi": 37,
            "name": "C#2",
            "ticks": 308160,
            "time": 137.57097,
            "velocity": 0.4881889763779528
          },
          {
            "duration": 0.042856999999997925,
            "durationTicks": 96,
            "midi": 37,
            "name": "C#2",
            "ticks": 308160,
            "time": 137.57097,
            "velocity": 0.4881889763779528
          },
          {
            "duration": 0.042856999999997925,
            "durationTicks": 96,
            "midi": 33,
            "name": "A1",
            "ticks": 308544,
            "time": 137.742398,
            "velocity": 0.4881889763779528
          },
          {
            "duration": 0.042856999999997925,
            "durationTicks": 96,
            "midi": 32,
            "name": "G#1",
            "ticks": 308544,
            "time": 137.742398,
            "velocity": 0.4881889763779528
          },
          {
            "duration": 0.042856999999997925,
            "durationTicks": 96,
            "midi": 32,
            "name": "G#1",
            "ticks": 308544,
            "time": 137.742398,
            "velocity": 0.4881889763779528
          },
          {
            "duration": 0.042856999999997925,
            "durationTicks": 96,
            "midi": 33,
            "name": "A1",
            "ticks": 308544,
            "time": 137.742398,
            "velocity": 0.4881889763779528
          },
          {
            "duration": 0.042856999999997925,
            "durationTicks": 96,
            "midi": 33,
            "name": "A1",
            "ticks": 308544,
            "time": 137.742398,
            "velocity": 0.4881889763779528
          },
          {
            "duration": 0.042856999999997925,
            "durationTicks": 96,
            "midi": 33,
            "name": "A1",
            "ticks": 308544,
            "time": 137.742398,
            "velocity": 0.4881889763779528
          },
          {
            "duration": 0.042856999999997925,
            "durationTicks": 96,
            "midi": 32,
            "name": "G#1",
            "ticks": 308544,
            "time": 137.742398,
            "velocity": 0.4881889763779528
          },
          {
            "duration": 0.042856999999997925,
            "durationTicks": 96,
            "midi": 40,
            "name": "E2",
            "ticks": 308544,
            "time": 137.742398,
            "velocity": 0.4881889763779528
          },
          {
            "duration": 0.042856999999997925,
            "durationTicks": 96,
            "midi": 38,
            "name": "D2",
            "ticks": 308544,
            "time": 137.742398,
            "velocity": 0.4881889763779528
          },
          {
            "duration": 0.042856999999997925,
            "durationTicks": 96,
            "midi": 32,
            "name": "G#1",
            "ticks": 308544,
            "time": 137.742398,
            "velocity": 0.4881889763779528
          },
          {
            "duration": 0.042856999999997925,
            "durationTicks": 96,
            "midi": 48,
            "name": "C3",
            "ticks": 308928,
            "time": 137.913826,
            "velocity": 0.4881889763779528
          },
          {
            "duration": 0.042856999999997925,
            "durationTicks": 96,
            "midi": 52,
            "name": "E3",
            "ticks": 308928,
            "time": 137.913826,
            "velocity": 0.4881889763779528
          },
          {
            "duration": 0.042856999999997925,
            "durationTicks": 96,
            "midi": 40,
            "name": "E2",
            "ticks": 308928,
            "time": 137.913826,
            "velocity": 0.4881889763779528
          },
          {
            "duration": 0.042856999999997925,
            "durationTicks": 96,
            "midi": 33,
            "name": "A1",
            "ticks": 308928,
            "time": 137.913826,
            "velocity": 0.4881889763779528
          },
          {
            "duration": 0.042856999999997925,
            "durationTicks": 96,
            "midi": 32,
            "name": "G#1",
            "ticks": 308928,
            "time": 137.913826,
            "velocity": 0.4881889763779528
          },
          {
            "duration": 0.042856999999997925,
            "durationTicks": 96,
            "midi": 50,
            "name": "D3",
            "ticks": 308928,
            "time": 137.913826,
            "velocity": 0.4881889763779528
          },
          {
            "duration": 0.042856999999997925,
            "durationTicks": 96,
            "midi": 33,
            "name": "A1",
            "ticks": 308928,
            "time": 137.913826,
            "velocity": 0.4881889763779528
          },
          {
            "duration": 0.042856999999997925,
            "durationTicks": 96,
            "midi": 32,
            "name": "G#1",
            "ticks": 308928,
            "time": 137.913826,
            "velocity": 0.4881889763779528
          },
          {
            "duration": 0.042856999999997925,
            "durationTicks": 96,
            "midi": 33,
            "name": "A1",
            "ticks": 308928,
            "time": 137.913826,
            "velocity": 0.4881889763779528
          },
          {
            "duration": 0.042856999999997925,
            "durationTicks": 96,
            "midi": 32,
            "name": "G#1",
            "ticks": 308928,
            "time": 137.913826,
            "velocity": 0.4881889763779528
          },
          {
            "duration": 0.042856999999997925,
            "durationTicks": 96,
            "midi": 49,
            "name": "C#3",
            "ticks": 308928,
            "time": 137.913826,
            "velocity": 0.4881889763779528
          },
          {
            "duration": 0.042856999999997925,
            "durationTicks": 96,
            "midi": 38,
            "name": "D2",
            "ticks": 308928,
            "time": 137.913826,
            "velocity": 0.4881889763779528
          },
          {
            "duration": 0.042856999999997925,
            "durationTicks": 96,
            "midi": 33,
            "name": "A1",
            "ticks": 308928,
            "time": 137.913826,
            "velocity": 0.4881889763779528
          },
          {
            "duration": 0.042856999999997925,
            "durationTicks": 96,
            "midi": 32,
            "name": "G#1",
            "ticks": 308928,
            "time": 137.913826,
            "velocity": 0.4881889763779528
          },
          {
            "duration": 0.042856999999997925,
            "durationTicks": 96,
            "midi": 32,
            "name": "G#1",
            "ticks": 312000,
            "time": 139.28525,
            "velocity": 0.4881889763779528
          },
          {
            "duration": 0.042856999999997925,
            "durationTicks": 96,
            "midi": 32,
            "name": "G#1",
            "ticks": 312000,
            "time": 139.28525,
            "velocity": 0.4881889763779528
          },
          {
            "duration": 0.042856999999997925,
            "durationTicks": 96,
            "midi": 50,
            "name": "D3",
            "ticks": 312000,
            "time": 139.28525,
            "velocity": 0.4881889763779528
          },
          {
            "duration": 0.042856999999997925,
            "durationTicks": 96,
            "midi": 32,
            "name": "G#1",
            "ticks": 312000,
            "time": 139.28525,
            "velocity": 0.4881889763779528
          },
          {
            "duration": 0.042856999999997925,
            "durationTicks": 96,
            "midi": 33,
            "name": "A1",
            "ticks": 312000,
            "time": 139.28525,
            "velocity": 0.4881889763779528
          },
          {
            "duration": 0.042856999999997925,
            "durationTicks": 96,
            "midi": 48,
            "name": "C3",
            "ticks": 312000,
            "time": 139.28525,
            "velocity": 0.4881889763779528
          },
          {
            "duration": 0.042856999999997925,
            "durationTicks": 96,
            "midi": 33,
            "name": "A1",
            "ticks": 312000,
            "time": 139.28525,
            "velocity": 0.4881889763779528
          },
          {
            "duration": 0.042856999999997925,
            "durationTicks": 96,
            "midi": 52,
            "name": "E3",
            "ticks": 312000,
            "time": 139.28525,
            "velocity": 0.4881889763779528
          },
          {
            "duration": 0.042856999999997925,
            "durationTicks": 96,
            "midi": 33,
            "name": "A1",
            "ticks": 312000,
            "time": 139.28525,
            "velocity": 0.4881889763779528
          },
          {
            "duration": 0.042856999999997925,
            "durationTicks": 96,
            "midi": 33,
            "name": "A1",
            "ticks": 312000,
            "time": 139.28525,
            "velocity": 0.4881889763779528
          },
          {
            "duration": 0.042856999999997925,
            "durationTicks": 96,
            "midi": 32,
            "name": "G#1",
            "ticks": 312000,
            "time": 139.28525,
            "velocity": 0.4881889763779528
          },
          {
            "duration": 0.042856999999997925,
            "durationTicks": 96,
            "midi": 49,
            "name": "C#3",
            "ticks": 312000,
            "time": 139.28525,
            "velocity": 0.4881889763779528
          },
          {
            "duration": 0.042856999999997925,
            "durationTicks": 96,
            "midi": 33,
            "name": "A1",
            "ticks": 315072,
            "time": 140.656674,
            "velocity": 0.4881889763779528
          },
          {
            "duration": 0.042856999999997925,
            "durationTicks": 96,
            "midi": 32,
            "name": "G#1",
            "ticks": 315072,
            "time": 140.656674,
            "velocity": 0.4881889763779528
          },
          {
            "duration": 0.042856999999997925,
            "durationTicks": 96,
            "midi": 32,
            "name": "G#1",
            "ticks": 315072,
            "time": 140.656674,
            "velocity": 0.4881889763779528
          },
          {
            "duration": 0.042856999999997925,
            "durationTicks": 96,
            "midi": 33,
            "name": "A1",
            "ticks": 315072,
            "time": 140.656674,
            "velocity": 0.4881889763779528
          },
          {
            "duration": 0.042856999999997925,
            "durationTicks": 96,
            "midi": 49,
            "name": "C#3",
            "ticks": 315072,
            "time": 140.656674,
            "velocity": 0.4881889763779528
          },
          {
            "duration": 0.042856999999997925,
            "durationTicks": 96,
            "midi": 33,
            "name": "A1",
            "ticks": 315072,
            "time": 140.656674,
            "velocity": 0.4881889763779528
          },
          {
            "duration": 0.042856999999997925,
            "durationTicks": 96,
            "midi": 52,
            "name": "E3",
            "ticks": 315072,
            "time": 140.656674,
            "velocity": 0.4881889763779528
          },
          {
            "duration": 0.042856999999997925,
            "durationTicks": 96,
            "midi": 50,
            "name": "D3",
            "ticks": 315072,
            "time": 140.656674,
            "velocity": 0.4881889763779528
          },
          {
            "duration": 0.042856999999997925,
            "durationTicks": 96,
            "midi": 33,
            "name": "A1",
            "ticks": 315072,
            "time": 140.656674,
            "velocity": 0.4881889763779528
          },
          {
            "duration": 0.042856999999997925,
            "durationTicks": 96,
            "midi": 32,
            "name": "G#1",
            "ticks": 315072,
            "time": 140.656674,
            "velocity": 0.4881889763779528
          },
          {
            "duration": 0.042856999999997925,
            "durationTicks": 96,
            "midi": 48,
            "name": "C3",
            "ticks": 315072,
            "time": 140.656674,
            "velocity": 0.4881889763779528
          },
          {
            "duration": 0.042856999999997925,
            "durationTicks": 96,
            "midi": 32,
            "name": "G#1",
            "ticks": 315072,
            "time": 140.656674,
            "velocity": 0.4881889763779528
          },
          {
            "duration": 0.042856999999997925,
            "durationTicks": 96,
            "midi": 52,
            "name": "E3",
            "ticks": 318144,
            "time": 142.028098,
            "velocity": 0.4881889763779528
          },
          {
            "duration": 0.042856999999997925,
            "durationTicks": 96,
            "midi": 32,
            "name": "G#1",
            "ticks": 318144,
            "time": 142.028098,
            "velocity": 0.4881889763779528
          },
          {
            "duration": 0.042856999999997925,
            "durationTicks": 96,
            "midi": 32,
            "name": "G#1",
            "ticks": 318144,
            "time": 142.028098,
            "velocity": 0.4881889763779528
          },
          {
            "duration": 0.042856999999997925,
            "durationTicks": 96,
            "midi": 33,
            "name": "A1",
            "ticks": 318144,
            "time": 142.028098,
            "velocity": 0.4881889763779528
          },
          {
            "duration": 0.042856999999997925,
            "durationTicks": 96,
            "midi": 33,
            "name": "A1",
            "ticks": 318144,
            "time": 142.028098,
            "velocity": 0.4881889763779528
          },
          {
            "duration": 0.042856999999997925,
            "durationTicks": 96,
            "midi": 32,
            "name": "G#1",
            "ticks": 318144,
            "time": 142.028098,
            "velocity": 0.4881889763779528
          },
          {
            "duration": 0.042856999999997925,
            "durationTicks": 96,
            "midi": 33,
            "name": "A1",
            "ticks": 318144,
            "time": 142.028098,
            "velocity": 0.4881889763779528
          },
          {
            "duration": 0.042856999999997925,
            "durationTicks": 96,
            "midi": 50,
            "name": "D3",
            "ticks": 318144,
            "time": 142.028098,
            "velocity": 0.4881889763779528
          },
          {
            "duration": 0.042856999999997925,
            "durationTicks": 96,
            "midi": 33,
            "name": "A1",
            "ticks": 318144,
            "time": 142.028098,
            "velocity": 0.4881889763779528
          },
          {
            "duration": 0.042856999999997925,
            "durationTicks": 96,
            "midi": 32,
            "name": "G#1",
            "ticks": 318144,
            "time": 142.028098,
            "velocity": 0.4881889763779528
          },
          {
            "duration": 0.042856999999997925,
            "durationTicks": 96,
            "midi": 49,
            "name": "C#3",
            "ticks": 318144,
            "time": 142.028098,
            "velocity": 0.4881889763779528
          },
          {
            "duration": 0.042856999999997925,
            "durationTicks": 96,
            "midi": 48,
            "name": "C3",
            "ticks": 318144,
            "time": 142.028098,
            "velocity": 0.4881889763779528
          },
          {
            "duration": 0.042856999999997925,
            "durationTicks": 96,
            "midi": 33,
            "name": "A1",
            "ticks": 319680,
            "time": 142.71381,
            "velocity": 0.4881889763779528
          },
          {
            "duration": 0.042856999999997925,
            "durationTicks": 96,
            "midi": 33,
            "name": "A1",
            "ticks": 319680,
            "time": 142.71381,
            "velocity": 0.4881889763779528
          },
          {
            "duration": 0.042856999999997925,
            "durationTicks": 96,
            "midi": 52,
            "name": "E3",
            "ticks": 319680,
            "time": 142.71381,
            "velocity": 0.4881889763779528
          },
          {
            "duration": 0.042856999999997925,
            "durationTicks": 96,
            "midi": 50,
            "name": "D3",
            "ticks": 319680,
            "time": 142.71381,
            "velocity": 0.4881889763779528
          },
          {
            "duration": 0.042856999999997925,
            "durationTicks": 96,
            "midi": 33,
            "name": "A1",
            "ticks": 319680,
            "time": 142.71381,
            "velocity": 0.4881889763779528
          },
          {
            "duration": 0.042856999999997925,
            "durationTicks": 96,
            "midi": 32,
            "name": "G#1",
            "ticks": 319680,
            "time": 142.71381,
            "velocity": 0.4881889763779528
          },
          {
            "duration": 0.042856999999997925,
            "durationTicks": 96,
            "midi": 48,
            "name": "C3",
            "ticks": 319680,
            "time": 142.71381,
            "velocity": 0.4881889763779528
          },
          {
            "duration": 0.042856999999997925,
            "durationTicks": 96,
            "midi": 32,
            "name": "G#1",
            "ticks": 319680,
            "time": 142.71381,
            "velocity": 0.4881889763779528
          },
          {
            "duration": 0.042856999999997925,
            "durationTicks": 96,
            "midi": 49,
            "name": "C#3",
            "ticks": 319680,
            "time": 142.71381,
            "velocity": 0.4881889763779528
          },
          {
            "duration": 0.042856999999997925,
            "durationTicks": 96,
            "midi": 32,
            "name": "G#1",
            "ticks": 319680,
            "time": 142.71381,
            "velocity": 0.4881889763779528
          },
          {
            "duration": 0.042856999999997925,
            "durationTicks": 96,
            "midi": 32,
            "name": "G#1",
            "ticks": 319680,
            "time": 142.71381,
            "velocity": 0.4881889763779528
          },
          {
            "duration": 0.042856999999997925,
            "durationTicks": 96,
            "midi": 33,
            "name": "A1",
            "ticks": 319680,
            "time": 142.71381,
            "velocity": 0.4881889763779528
          },
          {
            "duration": 0.042856999999997925,
            "durationTicks": 96,
            "midi": 33,
            "name": "A1",
            "ticks": 322752,
            "time": 144.08523399999999,
            "velocity": 0.4881889763779528
          },
          {
            "duration": 0.042856999999997925,
            "durationTicks": 96,
            "midi": 50,
            "name": "D3",
            "ticks": 322752,
            "time": 144.08523399999999,
            "velocity": 0.4881889763779528
          },
          {
            "duration": 0.042856999999997925,
            "durationTicks": 96,
            "midi": 49,
            "name": "C#3",
            "ticks": 322752,
            "time": 144.08523399999999,
            "velocity": 0.4881889763779528
          },
          {
            "duration": 0.042856999999997925,
            "durationTicks": 96,
            "midi": 33,
            "name": "A1",
            "ticks": 322752,
            "time": 144.08523399999999,
            "velocity": 0.4881889763779528
          },
          {
            "duration": 0.042856999999997925,
            "durationTicks": 96,
            "midi": 52,
            "name": "E3",
            "ticks": 322752,
            "time": 144.08523399999999,
            "velocity": 0.4881889763779528
          },
          {
            "duration": 0.042856999999997925,
            "durationTicks": 96,
            "midi": 32,
            "name": "G#1",
            "ticks": 322752,
            "time": 144.08523399999999,
            "velocity": 0.4881889763779528
          },
          {
            "duration": 0.042856999999997925,
            "durationTicks": 96,
            "midi": 33,
            "name": "A1",
            "ticks": 322752,
            "time": 144.08523399999999,
            "velocity": 0.4881889763779528
          },
          {
            "duration": 0.042856999999997925,
            "durationTicks": 96,
            "midi": 32,
            "name": "G#1",
            "ticks": 322752,
            "time": 144.08523399999999,
            "velocity": 0.4881889763779528
          },
          {
            "duration": 0.042856999999997925,
            "durationTicks": 96,
            "midi": 32,
            "name": "G#1",
            "ticks": 322752,
            "time": 144.08523399999999,
            "velocity": 0.4881889763779528
          },
          {
            "duration": 0.042856999999997925,
            "durationTicks": 96,
            "midi": 48,
            "name": "C3",
            "ticks": 322752,
            "time": 144.08523399999999,
            "velocity": 0.4881889763779528
          },
          {
            "duration": 0.042856999999997925,
            "durationTicks": 96,
            "midi": 33,
            "name": "A1",
            "ticks": 322752,
            "time": 144.08523399999999,
            "velocity": 0.4881889763779528
          },
          {
            "duration": 0.042856999999997925,
            "durationTicks": 96,
            "midi": 32,
            "name": "G#1",
            "ticks": 322752,
            "time": 144.08523399999999,
            "velocity": 0.4881889763779528
          },
          {
            "duration": 0.042856999999997925,
            "durationTicks": 96,
            "midi": 24,
            "name": "C1",
            "ticks": 336576,
            "time": 150.256642,
            "velocity": 0.4881889763779528
          },
          {
            "duration": 0.042856999999997925,
            "durationTicks": 96,
            "midi": 24,
            "name": "C1",
            "ticks": 338112,
            "time": 150.942354,
            "velocity": 0.4881889763779528
          },
          {
            "duration": 0.042856999999997925,
            "durationTicks": 96,
            "midi": 24,
            "name": "C1",
            "ticks": 339648,
            "time": 151.628066,
            "velocity": 0.4881889763779528
          },
          {
            "duration": 0.042857000000026346,
            "durationTicks": 96,
            "midi": 24,
            "name": "C1",
            "ticks": 341184,
            "time": 152.31377799999999,
            "velocity": 0.4881889763779528
          }
        ],
        "endOfTrackTicks": 341280
      },
      {
        "channel": 2,
        "controlChanges": {},
        "pitchBends": [],
        "instrument": {
          "family": "synth lead",
          "number": 80,
          "name": "lead 1 (square)"
        },
        "name": "Smooth Synth",
        "notes": [
          {
            "duration": 0.042857000000000145,
            "durationTicks": 96,
            "midi": 33,
            "name": "A1",
            "ticks": 4704,
            "time": 2.099993,
            "velocity": 0.3937007874015748
          },
          {
            "duration": 0.042857000000000145,
            "durationTicks": 96,
            "midi": 33,
            "name": "A1",
            "ticks": 4896,
            "time": 2.185707,
            "velocity": 0.3937007874015748
          },
          {
            "duration": 0.042857000000000145,
            "durationTicks": 96,
            "midi": 65,
            "name": "F4",
            "ticks": 4992,
            "time": 2.228564,
            "velocity": 0.3937007874015748
          },
          {
            "duration": 0.0428569999999997,
            "durationTicks": 96,
            "midi": 33,
            "name": "A1",
            "ticks": 5088,
            "time": 2.271421,
            "velocity": 0.3937007874015748
          },
          {
            "duration": 0.042857000000000145,
            "durationTicks": 96,
            "midi": 64,
            "name": "E4",
            "ticks": 5184,
            "time": 2.314278,
            "velocity": 0.3937007874015748
          },
          {
            "duration": 0.042857000000000145,
            "durationTicks": 96,
            "midi": 33,
            "name": "A1",
            "ticks": 5280,
            "time": 2.357135,
            "velocity": 0.3937007874015748
          },
          {
            "duration": 0.0428569999999997,
            "durationTicks": 96,
            "midi": 63,
            "name": "D#4",
            "ticks": 5376,
            "time": 2.399992,
            "velocity": 0.3937007874015748
          },
          {
            "duration": 0.042857000000000145,
            "durationTicks": 96,
            "midi": 33,
            "name": "A1",
            "ticks": 5472,
            "time": 2.442849,
            "velocity": 0.3937007874015748
          },
          {
            "duration": 0.042857000000000145,
            "durationTicks": 96,
            "midi": 64,
            "name": "E4",
            "ticks": 5568,
            "time": 2.485706,
            "velocity": 0.3937007874015748
          },
          {
            "duration": 0.0428569999999997,
            "durationTicks": 96,
            "midi": 33,
            "name": "A1",
            "ticks": 5664,
            "time": 2.528563,
            "velocity": 0.3937007874015748
          },
          {
            "duration": 0.042857000000000145,
            "durationTicks": 96,
            "midi": 33,
            "name": "A1",
            "ticks": 5856,
            "time": 2.614277,
            "velocity": 0.3937007874015748
          },
          {
            "duration": 0.0428569999999997,
            "durationTicks": 96,
            "midi": 57,
            "name": "A3",
            "ticks": 5952,
            "time": 2.657134,
            "velocity": 0.3937007874015748
          },
          {
            "duration": 0.042857000000000145,
            "durationTicks": 96,
            "midi": 33,
            "name": "A1",
            "ticks": 6048,
            "time": 2.699991,
            "velocity": 0.3937007874015748
          },
          {
            "duration": 0.0428569999999997,
            "durationTicks": 96,
            "midi": 33,
            "name": "A1",
            "ticks": 6240,
            "time": 2.785705,
            "velocity": 0.3937007874015748
          },
          {
            "duration": 0.042857000000000145,
            "durationTicks": 96,
            "midi": 60,
            "name": "C4",
            "ticks": 6336,
            "time": 2.828562,
            "velocity": 0.3937007874015748
          },
          {
            "duration": 0.042857000000000145,
            "durationTicks": 96,
            "midi": 33,
            "name": "A1",
            "ticks": 6432,
            "time": 2.871419,
            "velocity": 0.3937007874015748
          },
          {
            "duration": 0.042857000000000145,
            "durationTicks": 96,
            "midi": 33,
            "name": "A1",
            "ticks": 6624,
            "time": 2.957133,
            "velocity": 0.3937007874015748
          },
          {
            "duration": 0.0428569999999997,
            "durationTicks": 96,
            "midi": 33,
            "name": "A1",
            "ticks": 6816,
            "time": 3.042847,
            "velocity": 0.3937007874015748
          },
          {
            "duration": 0.042857000000000145,
            "durationTicks": 96,
            "midi": 33,
            "name": "A1",
            "ticks": 7008,
            "time": 3.128561,
            "velocity": 0.3937007874015748
          },
          {
            "duration": 0.0428569999999997,
            "durationTicks": 96,
            "midi": 59,
            "name": "B3",
            "ticks": 7104,
            "time": 3.171418,
            "velocity": 0.3937007874015748
          },
          {
            "duration": 0.042857000000000145,
            "durationTicks": 96,
            "midi": 33,
            "name": "A1",
            "ticks": 7200,
            "time": 3.2142749999999998,
            "velocity": 0.3937007874015748
          },
          {
            "duration": 0.042857000000000145,
            "durationTicks": 96,
            "midi": 60,
            "name": "C4",
            "ticks": 7296,
            "time": 3.257132,
            "velocity": 0.3937007874015748
          },
          {
            "duration": 0.0428569999999997,
            "durationTicks": 96,
            "midi": 33,
            "name": "A1",
            "ticks": 7392,
            "time": 3.299989,
            "velocity": 0.3937007874015748
          },
          {
            "duration": 0.042857000000000145,
            "durationTicks": 96,
            "midi": 59,
            "name": "B3",
            "ticks": 7488,
            "time": 3.3428459999999998,
            "velocity": 0.3937007874015748
          },
          {
            "duration": 0.042857000000000145,
            "durationTicks": 96,
            "midi": 33,
            "name": "A1",
            "ticks": 7584,
            "time": 3.385703,
            "velocity": 0.3937007874015748
          },
          {
            "duration": 0.0428569999999997,
            "durationTicks": 96,
            "midi": 57,
            "name": "A3",
            "ticks": 7680,
            "time": 3.42856,
            "velocity": 0.3937007874015748
          },
          {
            "duration": 0.042857000000000145,
            "durationTicks": 96,
            "midi": 32,
            "name": "G#1",
            "ticks": 7776,
            "time": 3.4714169999999998,
            "velocity": 0.3937007874015748
          },
          {
            "duration": 0.042857000000000145,
            "durationTicks": 96,
            "midi": 59,
            "name": "B3",
            "ticks": 7872,
            "time": 3.514274,
            "velocity": 0.3937007874015748
          },
          {
            "duration": 0.0428569999999997,
            "durationTicks": 96,
            "midi": 32,
            "name": "G#1",
            "ticks": 7968,
            "time": 3.557131,
            "velocity": 0.3937007874015748
          },
          {
            "duration": 0.042857000000000145,
            "durationTicks": 96,
            "midi": 32,
            "name": "G#1",
            "ticks": 8160,
            "time": 3.642845,
            "velocity": 0.3937007874015748
          },
          {
            "duration": 0.0428569999999997,
            "durationTicks": 96,
            "midi": 56,
            "name": "G#3",
            "ticks": 8256,
            "time": 3.685702,
            "velocity": 0.3937007874015748
          },
          {
            "duration": 0.042857000000000145,
            "durationTicks": 96,
            "midi": 32,
            "name": "G#1",
            "ticks": 8352,
            "time": 3.7285589999999997,
            "velocity": 0.3937007874015748
          },
          {
            "duration": 0.0428569999999997,
            "durationTicks": 96,
            "midi": 32,
            "name": "G#1",
            "ticks": 8544,
            "time": 3.814273,
            "velocity": 0.3937007874015748
          },
          {
            "duration": 0.042857000000000145,
            "durationTicks": 96,
            "midi": 52,
            "name": "E3",
            "ticks": 8640,
            "time": 3.8571299999999997,
            "velocity": 0.3937007874015748
          },
          {
            "duration": 0.042857000000000145,
            "durationTicks": 96,
            "midi": 32,
            "name": "G#1",
            "ticks": 8736,
            "time": 3.899987,
            "velocity": 0.3937007874015748
          },
          {
            "duration": 0.04285700000000059,
            "durationTicks": 96,
            "midi": 32,
            "name": "G#1",
            "ticks": 8928,
            "time": 3.9857009999999997,
            "velocity": 0.3937007874015748
          },
          {
            "duration": 0.0428569999999997,
            "durationTicks": 96,
            "midi": 32,
            "name": "G#1",
            "ticks": 9120,
            "time": 4.071415,
            "velocity": 0.3937007874015748
          },
          {
            "duration": 0.0428569999999997,
            "durationTicks": 96,
            "midi": 32,
            "name": "G#1",
            "ticks": 9312,
            "time": 4.157129,
            "velocity": 0.3937007874015748
          },
          {
            "duration": 0.0428569999999997,
            "durationTicks": 96,
            "midi": 47,
            "name": "B2",
            "ticks": 9408,
            "time": 4.199986,
            "velocity": 0.3937007874015748
          },
          {
            "duration": 0.04285700000000059,
            "durationTicks": 96,
            "midi": 32,
            "name": "G#1",
            "ticks": 9504,
            "time": 4.242843,
            "velocity": 0.3937007874015748
          },
          {
            "duration": 0.0428569999999997,
            "durationTicks": 96,
            "midi": 32,
            "name": "G#1",
            "ticks": 9696,
            "time": 4.328557,
            "velocity": 0.3937007874015748
          },
          {
            "duration": 0.04285700000000059,
            "durationTicks": 96,
            "midi": 44,
            "name": "G#2",
            "ticks": 9792,
            "time": 4.371414,
            "velocity": 0.3937007874015748
          },
          {
            "duration": 0.0428569999999997,
            "durationTicks": 96,
            "midi": 32,
            "name": "G#1",
            "ticks": 9888,
            "time": 4.414271,
            "velocity": 0.3937007874015748
          },
          {
            "duration": 0.04285700000000059,
            "durationTicks": 96,
            "midi": 32,
            "name": "G#1",
            "ticks": 10080,
            "time": 4.499985,
            "velocity": 0.3937007874015748
          },
          {
            "duration": 0.0428569999999997,
            "durationTicks": 96,
            "midi": 40,
            "name": "E2",
            "ticks": 10176,
            "time": 4.542842,
            "velocity": 0.3937007874015748
          },
          {
            "duration": 0.0428569999999997,
            "durationTicks": 96,
            "midi": 32,
            "name": "G#1",
            "ticks": 10272,
            "time": 4.585699,
            "velocity": 0.3937007874015748
          },
          {
            "duration": 0.0428569999999997,
            "durationTicks": 96,
            "midi": 32,
            "name": "G#1",
            "ticks": 10464,
            "time": 4.671413,
            "velocity": 0.3937007874015748
          },
          {
            "duration": 0.04285700000000059,
            "durationTicks": 96,
            "midi": 32,
            "name": "G#1",
            "ticks": 10656,
            "time": 4.757127,
            "velocity": 0.3937007874015748
          },
          {
            "duration": 0.0428569999999997,
            "durationTicks": 96,
            "midi": 33,
            "name": "A1",
            "ticks": 10848,
            "time": 4.842841,
            "velocity": 0.3937007874015748
          },
          {
            "duration": 0.04285700000000059,
            "durationTicks": 96,
            "midi": 57,
            "name": "A3",
            "ticks": 10944,
            "time": 4.885698,
            "velocity": 0.3937007874015748
          },
          {
            "duration": 0.0428569999999997,
            "durationTicks": 96,
            "midi": 33,
            "name": "A1",
            "ticks": 11040,
            "time": 4.928555,
            "velocity": 0.3937007874015748
          },
          {
            "duration": 0.0428569999999997,
            "durationTicks": 96,
            "midi": 58,
            "name": "A#3",
            "ticks": 11136,
            "time": 4.971412,
            "velocity": 0.3937007874015748
          },
          {
            "duration": 0.04285700000000059,
            "durationTicks": 96,
            "midi": 33,
            "name": "A1",
            "ticks": 11232,
            "time": 5.014269,
            "velocity": 0.3937007874015748
          },
          {
            "duration": 0.0428569999999997,
            "durationTicks": 96,
            "midi": 57,
            "name": "A3",
            "ticks": 11328,
            "time": 5.057126,
            "velocity": 0.3937007874015748
          },
          {
            "duration": 0.0428569999999997,
            "durationTicks": 96,
            "midi": 33,
            "name": "A1",
            "ticks": 11424,
            "time": 5.099983,
            "velocity": 0.3937007874015748
          },
          {
            "duration": 0.04285700000000059,
            "durationTicks": 96,
            "midi": 56,
            "name": "G#3",
            "ticks": 11520,
            "time": 5.14284,
            "velocity": 0.3937007874015748
          },
          {
            "duration": 0.0428569999999997,
            "durationTicks": 96,
            "midi": 33,
            "name": "A1",
            "ticks": 11616,
            "time": 5.185697,
            "velocity": 0.3937007874015748
          },
          {
            "duration": 0.0428569999999997,
            "durationTicks": 96,
            "midi": 57,
            "name": "A3",
            "ticks": 11712,
            "time": 5.228554,
            "velocity": 0.3937007874015748
          },
          {
            "duration": 0.04285700000000059,
            "durationTicks": 96,
            "midi": 33,
            "name": "A1",
            "ticks": 11808,
            "time": 5.271411,
            "velocity": 0.3937007874015748
          },
          {
            "duration": 0.0428569999999997,
            "durationTicks": 96,
            "midi": 33,
            "name": "A1",
            "ticks": 12000,
            "time": 5.357125,
            "velocity": 0.3937007874015748
          },
          {
            "duration": 0.04285700000000059,
            "durationTicks": 96,
            "midi": 61,
            "name": "C#4",
            "ticks": 12096,
            "time": 5.399982,
            "velocity": 0.3937007874015748
          },
          {
            "duration": 0.0428569999999997,
            "durationTicks": 96,
            "midi": 33,
            "name": "A1",
            "ticks": 12192,
            "time": 5.442839,
            "velocity": 0.3937007874015748
          },
          {
            "duration": 0.04285700000000059,
            "durationTicks": 96,
            "midi": 37,
            "name": "C#2",
            "ticks": 12384,
            "time": 5.528553,
            "velocity": 0.3937007874015748
          },
          {
            "duration": 0.0428569999999997,
            "durationTicks": 96,
            "midi": 64,
            "name": "E4",
            "ticks": 12480,
            "time": 5.57141,
            "velocity": 0.3937007874015748
          },
          {
            "duration": 0.0428569999999997,
            "durationTicks": 96,
            "midi": 37,
            "name": "C#2",
            "ticks": 12576,
            "time": 5.614267,
            "velocity": 0.3937007874015748
          },
          {
            "duration": 0.0428569999999997,
            "durationTicks": 96,
            "midi": 37,
            "name": "C#2",
            "ticks": 12768,
            "time": 5.699981,
            "velocity": 0.3937007874015748
          },
          {
            "duration": 0.04285700000000059,
            "durationTicks": 96,
            "midi": 37,
            "name": "C#2",
            "ticks": 12960,
            "time": 5.785695,
            "velocity": 0.3937007874015748
          },
          {
            "duration": 0.0428569999999997,
            "durationTicks": 96,
            "midi": 37,
            "name": "C#2",
            "ticks": 13152,
            "time": 5.871409,
            "velocity": 0.3937007874015748
          },
          {
            "duration": 0.04285700000000059,
            "durationTicks": 96,
            "midi": 57,
            "name": "A3",
            "ticks": 13248,
            "time": 5.914266,
            "velocity": 0.3937007874015748
          },
          {
            "duration": 0.0428569999999997,
            "durationTicks": 96,
            "midi": 37,
            "name": "C#2",
            "ticks": 13344,
            "time": 5.957123,
            "velocity": 0.3937007874015748
          },
          {
            "duration": 0.04285700000000059,
            "durationTicks": 96,
            "midi": 37,
            "name": "C#2",
            "ticks": 13536,
            "time": 6.042837,
            "velocity": 0.3937007874015748
          },
          {
            "duration": 0.0428569999999997,
            "durationTicks": 96,
            "midi": 67,
            "name": "G4",
            "ticks": 13632,
            "time": 6.085694,
            "velocity": 0.3937007874015748
          },
          {
            "duration": 0.0428569999999997,
            "durationTicks": 96,
            "midi": 37,
            "name": "C#2",
            "ticks": 13728,
            "time": 6.128551,
            "velocity": 0.3937007874015748
          },
          {
            "duration": 0.0428569999999997,
            "durationTicks": 96,
            "midi": 38,
            "name": "D2",
            "ticks": 13920,
            "time": 6.214265,
            "velocity": 0.3937007874015748
          },
          {
            "duration": 0.0428569999999997,
            "durationTicks": 96,
            "midi": 65,
            "name": "F4",
            "ticks": 14016,
            "time": 6.257122,
            "velocity": 0.3937007874015748
          },
          {
            "duration": 0.04285700000000059,
            "durationTicks": 96,
            "midi": 38,
            "name": "D2",
            "ticks": 14112,
            "time": 6.2999789999999996,
            "velocity": 0.3937007874015748
          },
          {
            "duration": 0.0428569999999997,
            "durationTicks": 96,
            "midi": 38,
            "name": "D2",
            "ticks": 14304,
            "time": 6.385693,
            "velocity": 0.3937007874015748
          },
          {
            "duration": 0.0428569999999997,
            "durationTicks": 96,
            "midi": 38,
            "name": "D2",
            "ticks": 14496,
            "time": 6.471407,
            "velocity": 0.3937007874015748
          },
          {
            "duration": 0.0428569999999997,
            "durationTicks": 96,
            "midi": 64,
            "name": "E4",
            "ticks": 14592,
            "time": 6.514264,
            "velocity": 0.3937007874015748
          },
          {
            "duration": 0.04285700000000059,
            "durationTicks": 96,
            "midi": 38,
            "name": "D2",
            "ticks": 14688,
            "time": 6.5571209999999995,
            "velocity": 0.3937007874015748
          },
          {
            "duration": 0.0428569999999997,
            "durationTicks": 96,
            "midi": 62,
            "name": "D4",
            "ticks": 14784,
            "time": 6.599978,
            "velocity": 0.3937007874015748
          },
          {
            "duration": 0.0428569999999997,
            "durationTicks": 96,
            "midi": 38,
            "name": "D2",
            "ticks": 14880,
            "time": 6.642835,
            "velocity": 0.3937007874015748
          },
          {
            "duration": 0.0428569999999997,
            "durationTicks": 96,
            "midi": 38,
            "name": "D2",
            "ticks": 15072,
            "time": 6.728549,
            "velocity": 0.3937007874015748
          },
          {
            "duration": 0.04285700000000059,
            "durationTicks": 96,
            "midi": 38,
            "name": "D2",
            "ticks": 15264,
            "time": 6.8142629999999995,
            "velocity": 0.3937007874015748
          },
          {
            "duration": 0.0428569999999997,
            "durationTicks": 96,
            "midi": 38,
            "name": "D2",
            "ticks": 15456,
            "time": 6.899977,
            "velocity": 0.3937007874015748
          },
          {
            "duration": 0.04285700000000059,
            "durationTicks": 96,
            "midi": 53,
            "name": "F3",
            "ticks": 15552,
            "time": 6.9428339999999995,
            "velocity": 0.3937007874015748
          },
          {
            "duration": 0.0428569999999997,
            "durationTicks": 96,
            "midi": 38,
            "name": "D2",
            "ticks": 15648,
            "time": 6.985691,
            "velocity": 0.3937007874015748
          },
          {
            "duration": 0.04285700000000059,
            "durationTicks": 96,
            "midi": 38,
            "name": "D2",
            "ticks": 15840,
            "time": 7.0714049999999995,
            "velocity": 0.3937007874015748
          },
          {
            "duration": 0.0428569999999997,
            "durationTicks": 96,
            "midi": 38,
            "name": "D2",
            "ticks": 16032,
            "time": 7.157119,
            "velocity": 0.3937007874015748
          },
          {
            "duration": 0.04285700000000059,
            "durationTicks": 96,
            "midi": 52,
            "name": "E3",
            "ticks": 16128,
            "time": 7.1999759999999995,
            "velocity": 0.3937007874015748
          },
          {
            "duration": 0.0428569999999997,
            "durationTicks": 96,
            "midi": 38,
            "name": "D2",
            "ticks": 16224,
            "time": 7.242833,
            "velocity": 0.3937007874015748
          },
          {
            "duration": 0.0428569999999997,
            "durationTicks": 96,
            "midi": 50,
            "name": "D3",
            "ticks": 16320,
            "time": 7.28569,
            "velocity": 0.3937007874015748
          },
          {
            "duration": 0.04285700000000059,
            "durationTicks": 96,
            "midi": 38,
            "name": "D2",
            "ticks": 16416,
            "time": 7.3285469999999995,
            "velocity": 0.3937007874015748
          },
          {
            "duration": 0.0428569999999997,
            "durationTicks": 96,
            "midi": 38,
            "name": "D2",
            "ticks": 16608,
            "time": 7.414261,
            "velocity": 0.3937007874015748
          },
          {
            "duration": 0.0428569999999997,
            "durationTicks": 96,
            "midi": 38,
            "name": "D2",
            "ticks": 16800,
            "time": 7.499975,
            "velocity": 0.3937007874015748
          },
          {
            "duration": 0.04285700000000059,
            "durationTicks": 96,
            "midi": 35,
            "name": "B1",
            "ticks": 16992,
            "time": 7.5856889999999995,
            "velocity": 0.3937007874015748
          },
          {
            "duration": 0.0428569999999997,
            "durationTicks": 96,
            "midi": 62,
            "name": "D4",
            "ticks": 17088,
            "time": 7.628546,
            "velocity": 0.3937007874015748
          },
          {
            "duration": 0.0428569999999997,
            "durationTicks": 96,
            "midi": 35,
            "name": "B1",
            "ticks": 17184,
            "time": 7.671403,
            "velocity": 0.3937007874015748
          },
          {
            "duration": 0.04285700000000059,
            "durationTicks": 96,
            "midi": 64,
            "name": "E4",
            "ticks": 17280,
            "time": 7.7142599999999995,
            "velocity": 0.3937007874015748
          },
          {
            "duration": 0.0428569999999997,
            "durationTicks": 96,
            "midi": 35,
            "name": "B1",
            "ticks": 17376,
            "time": 7.757117,
            "velocity": 0.3937007874015748
          },
          {
            "duration": 0.0428569999999997,
            "durationTicks": 96,
            "midi": 62,
            "name": "D4",
            "ticks": 17472,
            "time": 7.799974,
            "velocity": 0.3937007874015748
          },
          {
            "duration": 0.04285700000000059,
            "durationTicks": 96,
            "midi": 35,
            "name": "B1",
            "ticks": 17568,
            "time": 7.842830999999999,
            "velocity": 0.3937007874015748
          },
          {
            "duration": 0.0428569999999997,
            "durationTicks": 96,
            "midi": 61,
            "name": "C#4",
            "ticks": 17664,
            "time": 7.885688,
            "velocity": 0.3937007874015748
          },
          {
            "duration": 0.0428569999999997,
            "durationTicks": 96,
            "midi": 35,
            "name": "B1",
            "ticks": 17760,
            "time": 7.928545,
            "velocity": 0.3937007874015748
          },
          {
            "duration": 0.0428569999999997,
            "durationTicks": 96,
            "midi": 62,
            "name": "D4",
            "ticks": 17856,
            "time": 7.971401999999999,
            "velocity": 0.3937007874015748
          },
          {
            "duration": 0.04285700000000148,
            "durationTicks": 96,
            "midi": 35,
            "name": "B1",
            "ticks": 17952,
            "time": 8.014259,
            "velocity": 0.3937007874015748
          },
          {
            "duration": 0.0428569999999997,
            "durationTicks": 96,
            "midi": 35,
            "name": "B1",
            "ticks": 18144,
            "time": 8.099973,
            "velocity": 0.3937007874015748
          },
          {
            "duration": 0.0428569999999997,
            "durationTicks": 96,
            "midi": 65,
            "name": "F4",
            "ticks": 18240,
            "time": 8.14283,
            "velocity": 0.3937007874015748
          },
          {
            "duration": 0.0428569999999997,
            "durationTicks": 96,
            "midi": 35,
            "name": "B1",
            "ticks": 18336,
            "time": 8.185687,
            "velocity": 0.3937007874015748
          },
          {
            "duration": 0.04285700000000148,
            "durationTicks": 96,
            "midi": 32,
            "name": "G#1",
            "ticks": 18528,
            "time": 8.271401,
            "velocity": 0.3937007874015748
          },
          {
            "duration": 0.0428569999999997,
            "durationTicks": 96,
            "midi": 64,
            "name": "E4",
            "ticks": 18624,
            "time": 8.314258,
            "velocity": 0.3937007874015748
          },
          {
            "duration": 0.0428569999999997,
            "durationTicks": 96,
            "midi": 32,
            "name": "G#1",
            "ticks": 18720,
            "time": 8.357115,
            "velocity": 0.3937007874015748
          },
          {
            "duration": 0.0428569999999997,
            "durationTicks": 96,
            "midi": 32,
            "name": "G#1",
            "ticks": 18912,
            "time": 8.442829,
            "velocity": 0.3937007874015748
          },
          {
            "duration": 0.04285700000000148,
            "durationTicks": 96,
            "midi": 32,
            "name": "G#1",
            "ticks": 19104,
            "time": 8.528542999999999,
            "velocity": 0.3937007874015748
          },
          {
            "duration": 0.0428569999999997,
            "durationTicks": 96,
            "midi": 32,
            "name": "G#1",
            "ticks": 19296,
            "time": 8.614257,
            "velocity": 0.3937007874015748
          },
          {
            "duration": 0.0428569999999997,
            "durationTicks": 96,
            "midi": 59,
            "name": "B3",
            "ticks": 19392,
            "time": 8.657114,
            "velocity": 0.3937007874015748
          },
          {
            "duration": 0.0428569999999997,
            "durationTicks": 96,
            "midi": 32,
            "name": "G#1",
            "ticks": 19488,
            "time": 8.699971,
            "velocity": 0.3937007874015748
          },
          {
            "duration": 0.04285700000000148,
            "durationTicks": 96,
            "midi": 32,
            "name": "G#1",
            "ticks": 19680,
            "time": 8.785684999999999,
            "velocity": 0.3937007874015748
          },
          {
            "duration": 0.0428569999999997,
            "durationTicks": 96,
            "midi": 62,
            "name": "D4",
            "ticks": 19776,
            "time": 8.828542,
            "velocity": 0.3937007874015748
          },
          {
            "duration": 0.0428569999999997,
            "durationTicks": 96,
            "midi": 32,
            "name": "G#1",
            "ticks": 19872,
            "time": 8.871399,
            "velocity": 0.3937007874015748
          },
          {
            "duration": 0.0428569999999997,
            "durationTicks": 96,
            "midi": 33,
            "name": "A1",
            "ticks": 20064,
            "time": 8.957113,
            "velocity": 0.3937007874015748
          },
          {
            "duration": 0.0428569999999997,
            "durationTicks": 96,
            "midi": 60,
            "name": "C4",
            "ticks": 20160,
            "time": 8.99997,
            "velocity": 0.3937007874015748
          },
          {
            "duration": 0.04285700000000148,
            "durationTicks": 96,
            "midi": 33,
            "name": "A1",
            "ticks": 20256,
            "time": 9.042826999999999,
            "velocity": 0.3937007874015748
          },
          {
            "duration": 0.0428569999999997,
            "durationTicks": 96,
            "midi": 33,
            "name": "A1",
            "ticks": 20448,
            "time": 9.128541,
            "velocity": 0.3937007874015748
          },
          {
            "duration": 0.0428569999999997,
            "durationTicks": 96,
            "midi": 60,
            "name": "C4",
            "ticks": 20544,
            "time": 9.171398,
            "velocity": 0.3937007874015748
          },
          {
            "duration": 0.0428569999999997,
            "durationTicks": 96,
            "midi": 33,
            "name": "A1",
            "ticks": 20640,
            "time": 9.214255,
            "velocity": 0.3937007874015748
          },
          {
            "duration": 0.0428569999999997,
            "durationTicks": 96,
            "midi": 59,
            "name": "B3",
            "ticks": 20736,
            "time": 9.257112,
            "velocity": 0.3937007874015748
          },
          {
            "duration": 0.04285700000000148,
            "durationTicks": 96,
            "midi": 31,
            "name": "G1",
            "ticks": 20832,
            "time": 9.299968999999999,
            "velocity": 0.3937007874015748
          },
          {
            "duration": 0.0428569999999997,
            "durationTicks": 96,
            "midi": 57,
            "name": "A3",
            "ticks": 20928,
            "time": 9.342826,
            "velocity": 0.3937007874015748
          },
          {
            "duration": 0.0428569999999997,
            "durationTicks": 96,
            "midi": 31,
            "name": "G1",
            "ticks": 21024,
            "time": 9.385683,
            "velocity": 0.3937007874015748
          },
          {
            "duration": 0.0428569999999997,
            "durationTicks": 96,
            "midi": 59,
            "name": "B3",
            "ticks": 21120,
            "time": 9.42854,
            "velocity": 0.3937007874015748
          },
          {
            "duration": 0.0428569999999997,
            "durationTicks": 96,
            "midi": 31,
            "name": "G1",
            "ticks": 21216,
            "time": 9.471397,
            "velocity": 0.3937007874015748
          },
          {
            "duration": 0.0428569999999997,
            "durationTicks": 96,
            "midi": 60,
            "name": "C4",
            "ticks": 21312,
            "time": 9.514254,
            "velocity": 0.3937007874015748
          },
          {
            "duration": 0.04285700000000148,
            "durationTicks": 96,
            "midi": 31,
            "name": "G1",
            "ticks": 21408,
            "time": 9.557110999999999,
            "velocity": 0.3937007874015748
          },
          {
            "duration": 0.0428569999999997,
            "durationTicks": 96,
            "midi": 64,
            "name": "E4",
            "ticks": 21504,
            "time": 9.599968,
            "velocity": 0.3937007874015748
          },
          {
            "duration": 0.0428569999999997,
            "durationTicks": 96,
            "midi": 30,
            "name": "F#1",
            "ticks": 21600,
            "time": 9.642825,
            "velocity": 0.3937007874015748
          },
          {
            "duration": 0.0428569999999997,
            "durationTicks": 96,
            "midi": 69,
            "name": "A4",
            "ticks": 21696,
            "time": 9.685682,
            "velocity": 0.3937007874015748
          },
          {
            "duration": 0.0428569999999997,
            "durationTicks": 96,
            "midi": 30,
            "name": "F#1",
            "ticks": 21792,
            "time": 9.728539,
            "velocity": 0.3937007874015748
          },
          {
            "duration": 0.04285700000000148,
            "durationTicks": 96,
            "midi": 30,
            "name": "F#1",
            "ticks": 21984,
            "time": 9.814252999999999,
            "velocity": 0.3937007874015748
          },
          {
            "duration": 0.0428569999999997,
            "durationTicks": 96,
            "midi": 30,
            "name": "F#1",
            "ticks": 22176,
            "time": 9.899967,
            "velocity": 0.3937007874015748
          },
          {
            "duration": 0.0428569999999997,
            "durationTicks": 96,
            "midi": 30,
            "name": "F#1",
            "ticks": 22368,
            "time": 9.985681,
            "velocity": 0.3937007874015748
          },
          {
            "duration": 0.04285700000000148,
            "durationTicks": 96,
            "midi": 30,
            "name": "F#1",
            "ticks": 22560,
            "time": 10.071394999999999,
            "velocity": 0.3937007874015748
          },
          {
            "duration": 0.0428569999999997,
            "durationTicks": 96,
            "midi": 30,
            "name": "F#1",
            "ticks": 22752,
            "time": 10.157109,
            "velocity": 0.3937007874015748
          },
          {
            "duration": 0.0428569999999997,
            "durationTicks": 96,
            "midi": 71,
            "name": "B4",
            "ticks": 22848,
            "time": 10.199966,
            "velocity": 0.3937007874015748
          },
          {
            "duration": 0.0428569999999997,
            "durationTicks": 96,
            "midi": 30,
            "name": "F#1",
            "ticks": 22944,
            "time": 10.242823,
            "velocity": 0.3937007874015748
          },
          {
            "duration": 0.0428569999999997,
            "durationTicks": 96,
            "midi": 72,
            "name": "C5",
            "ticks": 23040,
            "time": 10.28568,
            "velocity": 0.3937007874015748
          },
          {
            "duration": 0.04285700000000148,
            "durationTicks": 96,
            "midi": 35,
            "name": "B1",
            "ticks": 23136,
            "time": 10.328536999999999,
            "velocity": 0.3937007874015748
          },
          {
            "duration": 0.0428569999999997,
            "durationTicks": 96,
            "midi": 71,
            "name": "B4",
            "ticks": 23232,
            "time": 10.371394,
            "velocity": 0.3937007874015748
          },
          {
            "duration": 0.0428569999999997,
            "durationTicks": 96,
            "midi": 35,
            "name": "B1",
            "ticks": 23328,
            "time": 10.414251,
            "velocity": 0.3937007874015748
          },
          {
            "duration": 0.0428569999999997,
            "durationTicks": 96,
            "midi": 35,
            "name": "B1",
            "ticks": 23520,
            "time": 10.499965,
            "velocity": 0.3937007874015748
          },
          {
            "duration": 0.04285700000000148,
            "durationTicks": 96,
            "midi": 35,
            "name": "B1",
            "ticks": 23712,
            "time": 10.585678999999999,
            "velocity": 0.3937007874015748
          },
          {
            "duration": 0.0428569999999997,
            "durationTicks": 96,
            "midi": 69,
            "name": "A4",
            "ticks": 23808,
            "time": 10.628536,
            "velocity": 0.3937007874015748
          },
          {
            "duration": 0.0428569999999997,
            "durationTicks": 96,
            "midi": 35,
            "name": "B1",
            "ticks": 23904,
            "time": 10.671393,
            "velocity": 0.3937007874015748
          },
          {
            "duration": 0.0428569999999997,
            "durationTicks": 96,
            "midi": 69,
            "name": "A4",
            "ticks": 24000,
            "time": 10.71425,
            "velocity": 0.3937007874015748
          },
          {
            "duration": 0.0428569999999997,
            "durationTicks": 96,
            "midi": 35,
            "name": "B1",
            "ticks": 24096,
            "time": 10.757107,
            "velocity": 0.3937007874015748
          },
          {
            "duration": 0.04285700000000148,
            "durationTicks": 96,
            "midi": 35,
            "name": "B1",
            "ticks": 24288,
            "time": 10.842820999999999,
            "velocity": 0.3937007874015748
          },
          {
            "duration": 0.0428569999999997,
            "durationTicks": 96,
            "midi": 35,
            "name": "B1",
            "ticks": 24480,
            "time": 10.928535,
            "velocity": 0.3937007874015748
          },
          {
            "duration": 0.0428569999999997,
            "durationTicks": 96,
            "midi": 67,
            "name": "G4",
            "ticks": 24576,
            "time": 10.971392,
            "velocity": 0.3937007874015748
          },
          {
            "duration": 0.0428569999999997,
            "durationTicks": 96,
            "midi": 29,
            "name": "F1",
            "ticks": 24672,
            "time": 11.014249,
            "velocity": 0.3937007874015748
          },
          {
            "duration": 0.04285700000000148,
            "durationTicks": 96,
            "midi": 67,
            "name": "G4",
            "ticks": 24768,
            "time": 11.057106,
            "velocity": 0.3937007874015748
          },
          {
            "duration": 0.0428569999999997,
            "durationTicks": 96,
            "midi": 29,
            "name": "F1",
            "ticks": 24864,
            "time": 11.099963,
            "velocity": 0.3937007874015748
          },
          {
            "duration": 0.0428569999999997,
            "durationTicks": 96,
            "midi": 29,
            "name": "F1",
            "ticks": 25056,
            "time": 11.185677,
            "velocity": 0.3937007874015748
          },
          {
            "duration": 0.0428569999999997,
            "durationTicks": 96,
            "midi": 29,
            "name": "F1",
            "ticks": 25248,
            "time": 11.271391,
            "velocity": 0.3937007874015748
          },
          {
            "duration": 0.04285700000000148,
            "durationTicks": 96,
            "midi": 65,
            "name": "F4",
            "ticks": 25344,
            "time": 11.314248,
            "velocity": 0.3937007874015748
          },
          {
            "duration": 0.0428569999999997,
            "durationTicks": 96,
            "midi": 29,
            "name": "F1",
            "ticks": 25440,
            "time": 11.357105,
            "velocity": 0.3937007874015748
          },
          {
            "duration": 0.0428569999999997,
            "durationTicks": 96,
            "midi": 65,
            "name": "F4",
            "ticks": 25536,
            "time": 11.399962,
            "velocity": 0.3937007874015748
          },
          {
            "duration": 0.0428569999999997,
            "durationTicks": 96,
            "midi": 29,
            "name": "F1",
            "ticks": 25632,
            "time": 11.442819,
            "velocity": 0.3937007874015748
          },
          {
            "duration": 0.0428569999999997,
            "durationTicks": 96,
            "midi": 29,
            "name": "F1",
            "ticks": 25824,
            "time": 11.528533,
            "velocity": 0.3937007874015748
          },
          {
            "duration": 0.0428569999999997,
            "durationTicks": 96,
            "midi": 29,
            "name": "F1",
            "ticks": 26016,
            "time": 11.614247,
            "velocity": 0.3937007874015748
          },
          {
            "duration": 0.0428569999999997,
            "durationTicks": 96,
            "midi": 63,
            "name": "D#4",
            "ticks": 26112,
            "time": 11.657104,
            "velocity": 0.3937007874015748
          },
          {
            "duration": 0.0428569999999997,
            "durationTicks": 96,
            "midi": 27,
            "name": "D#1",
            "ticks": 26208,
            "time": 11.699961,
            "velocity": 0.3937007874015748
          },
          {
            "duration": 0.0428569999999997,
            "durationTicks": 96,
            "midi": 64,
            "name": "E4",
            "ticks": 26304,
            "time": 11.742818,
            "velocity": 0.3937007874015748
          },
          {
            "duration": 0.0428569999999997,
            "durationTicks": 96,
            "midi": 27,
            "name": "D#1",
            "ticks": 26400,
            "time": 11.785675,
            "velocity": 0.3937007874015748
          },
          {
            "duration": 0.0428569999999997,
            "durationTicks": 96,
            "midi": 27,
            "name": "D#1",
            "ticks": 26592,
            "time": 11.871389,
            "velocity": 0.3937007874015748
          },
          {
            "duration": 0.0428569999999997,
            "durationTicks": 96,
            "midi": 64,
            "name": "E4",
            "ticks": 26688,
            "time": 11.914246,
            "velocity": 0.3937007874015748
          },
          {
            "duration": 0.0428569999999997,
            "durationTicks": 96,
            "midi": 27,
            "name": "D#1",
            "ticks": 26784,
            "time": 11.957103,
            "velocity": 0.3937007874015748
          },
          {
            "duration": 0.0428569999999997,
            "durationTicks": 96,
            "midi": 65,
            "name": "F4",
            "ticks": 26880,
            "time": 11.99996,
            "velocity": 0.3937007874015748
          },
          {
            "duration": 0.0428569999999997,
            "durationTicks": 96,
            "midi": 28,
            "name": "E1",
            "ticks": 26976,
            "time": 12.042817,
            "velocity": 0.3937007874015748
          },
          {
            "duration": 0.04285700000000148,
            "durationTicks": 96,
            "midi": 64,
            "name": "E4",
            "ticks": 27072,
            "time": 12.085674,
            "velocity": 0.3937007874015748
          },
          {
            "duration": 0.0428569999999997,
            "durationTicks": 96,
            "midi": 28,
            "name": "E1",
            "ticks": 27168,
            "time": 12.128531,
            "velocity": 0.3937007874015748
          },
          {
            "duration": 0.0428569999999997,
            "durationTicks": 96,
            "midi": 28,
            "name": "E1",
            "ticks": 27360,
            "time": 12.214245,
            "velocity": 0.3937007874015748
          },
          {
            "duration": 0.0428569999999997,
            "durationTicks": 96,
            "midi": 28,
            "name": "E1",
            "ticks": 27552,
            "time": 12.299959,
            "velocity": 0.3937007874015748
          },
          {
            "duration": 0.0428569999999997,
            "durationTicks": 96,
            "midi": 28,
            "name": "E1",
            "ticks": 27744,
            "time": 12.385673,
            "velocity": 0.3937007874015748
          },
          {
            "duration": 0.0428569999999997,
            "durationTicks": 96,
            "midi": 28,
            "name": "E1",
            "ticks": 27936,
            "time": 12.471387,
            "velocity": 0.3937007874015748
          },
          {
            "duration": 0.0428569999999997,
            "durationTicks": 96,
            "midi": 28,
            "name": "E1",
            "ticks": 28128,
            "time": 12.557101,
            "velocity": 0.3937007874015748
          },
          {
            "duration": 0.0428569999999997,
            "durationTicks": 96,
            "midi": 28,
            "name": "E1",
            "ticks": 28320,
            "time": 12.642815,
            "velocity": 0.3937007874015748
          },
          {
            "duration": 0.0428569999999997,
            "durationTicks": 96,
            "midi": 28,
            "name": "E1",
            "ticks": 28512,
            "time": 12.728529,
            "velocity": 0.3937007874015748
          },
          {
            "duration": 0.0428569999999997,
            "durationTicks": 96,
            "midi": 28,
            "name": "E1",
            "ticks": 28704,
            "time": 12.814243,
            "velocity": 0.3937007874015748
          },
          {
            "duration": 0.0428569999999997,
            "durationTicks": 96,
            "midi": 28,
            "name": "E1",
            "ticks": 28896,
            "time": 12.899957,
            "velocity": 0.3937007874015748
          },
          {
            "duration": 0.0428569999999997,
            "durationTicks": 96,
            "midi": 28,
            "name": "E1",
            "ticks": 29088,
            "time": 12.985671,
            "velocity": 0.3937007874015748
          },
          {
            "duration": 0.0428569999999997,
            "durationTicks": 96,
            "midi": 33,
            "name": "A1",
            "ticks": 29280,
            "time": 13.071385,
            "velocity": 0.3937007874015748
          },
          {
            "duration": 0.04285700000000148,
            "durationTicks": 96,
            "midi": 33,
            "name": "A1",
            "ticks": 29376,
            "time": 13.114241999999999,
            "velocity": 0.3937007874015748
          },
          {
            "duration": 0.04285700000000148,
            "durationTicks": 96,
            "midi": 64,
            "name": "E4",
            "ticks": 29376,
            "time": 13.114241999999999,
            "velocity": 0.3937007874015748
          },
          {
            "duration": 0.0428569999999997,
            "durationTicks": 96,
            "midi": 33,
            "name": "A1",
            "ticks": 29472,
            "time": 13.157099,
            "velocity": 0.3937007874015748
          },
          {
            "duration": 0.0428569999999997,
            "durationTicks": 96,
            "midi": 31,
            "name": "G1",
            "ticks": 29568,
            "time": 13.199956,
            "velocity": 0.3937007874015748
          },
          {
            "duration": 0.0428569999999997,
            "durationTicks": 96,
            "midi": 65,
            "name": "F4",
            "ticks": 29568,
            "time": 13.199956,
            "velocity": 0.3937007874015748
          },
          {
            "duration": 0.0428569999999997,
            "durationTicks": 96,
            "midi": 33,
            "name": "A1",
            "ticks": 29664,
            "time": 13.242813,
            "velocity": 0.3937007874015748
          },
          {
            "duration": 0.0428569999999997,
            "durationTicks": 96,
            "midi": 29,
            "name": "F1",
            "ticks": 29760,
            "time": 13.28567,
            "velocity": 0.3937007874015748
          },
          {
            "duration": 0.0428569999999997,
            "durationTicks": 96,
            "midi": 64,
            "name": "E4",
            "ticks": 29760,
            "time": 13.28567,
            "velocity": 0.3937007874015748
          },
          {
            "duration": 0.0428569999999997,
            "durationTicks": 96,
            "midi": 33,
            "name": "A1",
            "ticks": 29856,
            "time": 13.328527,
            "velocity": 0.3937007874015748
          },
          {
            "duration": 0.04285700000000148,
            "durationTicks": 96,
            "midi": 27,
            "name": "D#1",
            "ticks": 29952,
            "time": 13.371383999999999,
            "velocity": 0.3937007874015748
          },
          {
            "duration": 0.04285700000000148,
            "durationTicks": 96,
            "midi": 63,
            "name": "D#4",
            "ticks": 29952,
            "time": 13.371383999999999,
            "velocity": 0.3937007874015748
          },
          {
            "duration": 0.0428569999999997,
            "durationTicks": 96,
            "midi": 33,
            "name": "A1",
            "ticks": 30048,
            "time": 13.414241,
            "velocity": 0.3937007874015748
          },
          {
            "duration": 0.0428569999999997,
            "durationTicks": 96,
            "midi": 25,
            "name": "C#1",
            "ticks": 30144,
            "time": 13.457098,
            "velocity": 0.3937007874015748
          },
          {
            "duration": 0.0428569999999997,
            "durationTicks": 96,
            "midi": 64,
            "name": "E4",
            "ticks": 30144,
            "time": 13.457098,
            "velocity": 0.3937007874015748
          },
          {
            "duration": 0.0428569999999997,
            "durationTicks": 96,
            "midi": 33,
            "name": "A1",
            "ticks": 30240,
            "time": 13.499955,
            "velocity": 0.3937007874015748
          },
          {
            "duration": 0.0428569999999997,
            "durationTicks": 96,
            "midi": 26,
            "name": "D1",
            "ticks": 30336,
            "time": 13.542812,
            "velocity": 0.3937007874015748
          },
          {
            "duration": 0.0428569999999997,
            "durationTicks": 96,
            "midi": 33,
            "name": "A1",
            "ticks": 30432,
            "time": 13.585669,
            "velocity": 0.3937007874015748
          },
          {
            "duration": 0.04285700000000148,
            "durationTicks": 96,
            "midi": 57,
            "name": "A3",
            "ticks": 30528,
            "time": 13.628525999999999,
            "velocity": 0.3937007874015748
          },
          {
            "duration": 0.04285700000000148,
            "durationTicks": 96,
            "midi": 24,
            "name": "C1",
            "ticks": 30528,
            "time": 13.628525999999999,
            "velocity": 0.3937007874015748
          },
          {
            "duration": 0.0428569999999997,
            "durationTicks": 96,
            "midi": 33,
            "name": "A1",
            "ticks": 30624,
            "time": 13.671383,
            "velocity": 0.3937007874015748
          },
          {
            "duration": 0.0428569999999997,
            "durationTicks": 96,
            "midi": 33,
            "name": "A1",
            "ticks": 30816,
            "time": 13.757097,
            "velocity": 0.3937007874015748
          },
          {
            "duration": 0.0428569999999997,
            "durationTicks": 96,
            "midi": 60,
            "name": "C4",
            "ticks": 30912,
            "time": 13.799954,
            "velocity": 0.3937007874015748
          },
          {
            "duration": 0.0428569999999997,
            "durationTicks": 96,
            "midi": 33,
            "name": "A1",
            "ticks": 31008,
            "time": 13.842811,
            "velocity": 0.3937007874015748
          },
          {
            "duration": 0.0428569999999997,
            "durationTicks": 96,
            "midi": 33,
            "name": "A1",
            "ticks": 31200,
            "time": 13.928525,
            "velocity": 0.3937007874015748
          },
          {
            "duration": 0.0428569999999997,
            "durationTicks": 96,
            "midi": 33,
            "name": "A1",
            "ticks": 31392,
            "time": 14.014239,
            "velocity": 0.3937007874015748
          },
          {
            "duration": 0.0428569999999997,
            "durationTicks": 96,
            "midi": 33,
            "name": "A1",
            "ticks": 31584,
            "time": 14.099953,
            "velocity": 0.3937007874015748
          },
          {
            "duration": 0.04285700000000148,
            "durationTicks": 96,
            "midi": 59,
            "name": "B3",
            "ticks": 31680,
            "time": 14.142809999999999,
            "velocity": 0.3937007874015748
          },
          {
            "duration": 0.0428569999999997,
            "durationTicks": 96,
            "midi": 33,
            "name": "A1",
            "ticks": 31776,
            "time": 14.185667,
            "velocity": 0.3937007874015748
          },
          {
            "duration": 0.0428569999999997,
            "durationTicks": 96,
            "midi": 60,
            "name": "C4",
            "ticks": 31872,
            "time": 14.228524,
            "velocity": 0.3937007874015748
          },
          {
            "duration": 0.0428569999999997,
            "durationTicks": 96,
            "midi": 33,
            "name": "A1",
            "ticks": 31968,
            "time": 14.271381,
            "velocity": 0.3937007874015748
          },
          {
            "duration": 0.0428569999999997,
            "durationTicks": 96,
            "midi": 59,
            "name": "B3",
            "ticks": 32064,
            "time": 14.314238,
            "velocity": 0.3937007874015748
          },
          {
            "duration": 0.0428569999999997,
            "durationTicks": 96,
            "midi": 33,
            "name": "A1",
            "ticks": 32160,
            "time": 14.357095,
            "velocity": 0.3937007874015748
          },
          {
            "duration": 0.04285700000000148,
            "durationTicks": 96,
            "midi": 57,
            "name": "A3",
            "ticks": 32256,
            "time": 14.399951999999999,
            "velocity": 0.3937007874015748
          },
          {
            "duration": 0.0428569999999997,
            "durationTicks": 96,
            "midi": 32,
            "name": "G#1",
            "ticks": 32352,
            "time": 14.442809,
            "velocity": 0.3937007874015748
          },
          {
            "duration": 0.0428569999999997,
            "durationTicks": 96,
            "midi": 59,
            "name": "B3",
            "ticks": 32448,
            "time": 14.485666,
            "velocity": 0.3937007874015748
          },
          {
            "duration": 0.0428569999999997,
            "durationTicks": 96,
            "midi": 32,
            "name": "G#1",
            "ticks": 32544,
            "time": 14.528523,
            "velocity": 0.3937007874015748
          },
          {
            "duration": 0.0428569999999997,
            "durationTicks": 96,
            "midi": 32,
            "name": "G#1",
            "ticks": 32736,
            "time": 14.614237,
            "velocity": 0.3937007874015748
          },
          {
            "duration": 0.04285700000000148,
            "durationTicks": 96,
            "midi": 56,
            "name": "G#3",
            "ticks": 32832,
            "time": 14.657093999999999,
            "velocity": 0.3937007874015748
          },
          {
            "duration": 0.0428569999999997,
            "durationTicks": 96,
            "midi": 32,
            "name": "G#1",
            "ticks": 32928,
            "time": 14.699951,
            "velocity": 0.3937007874015748
          },
          {
            "duration": 0.0428569999999997,
            "durationTicks": 96,
            "midi": 32,
            "name": "G#1",
            "ticks": 33120,
            "time": 14.785665,
            "velocity": 0.3937007874015748
          },
          {
            "duration": 0.0428569999999997,
            "durationTicks": 96,
            "midi": 52,
            "name": "E3",
            "ticks": 33216,
            "time": 14.828522,
            "velocity": 0.3937007874015748
          },
          {
            "duration": 0.0428569999999997,
            "durationTicks": 96,
            "midi": 32,
            "name": "G#1",
            "ticks": 33312,
            "time": 14.871379,
            "velocity": 0.3937007874015748
          },
          {
            "duration": 0.0428569999999997,
            "durationTicks": 96,
            "midi": 32,
            "name": "G#1",
            "ticks": 33504,
            "time": 14.957093,
            "velocity": 0.3937007874015748
          },
          {
            "duration": 0.0428569999999997,
            "durationTicks": 96,
            "midi": 32,
            "name": "G#1",
            "ticks": 33696,
            "time": 15.042807,
            "velocity": 0.3937007874015748
          },
          {
            "duration": 0.0428569999999997,
            "durationTicks": 96,
            "midi": 32,
            "name": "G#1",
            "ticks": 33888,
            "time": 15.128521,
            "velocity": 0.3937007874015748
          },
          {
            "duration": 0.04285700000000148,
            "durationTicks": 96,
            "midi": 47,
            "name": "B2",
            "ticks": 33984,
            "time": 15.171377999999999,
            "velocity": 0.3937007874015748
          },
          {
            "duration": 0.0428569999999997,
            "durationTicks": 96,
            "midi": 32,
            "name": "G#1",
            "ticks": 34080,
            "time": 15.214235,
            "velocity": 0.3937007874015748
          },
          {
            "duration": 0.0428569999999997,
            "durationTicks": 96,
            "midi": 32,
            "name": "G#1",
            "ticks": 34272,
            "time": 15.299949,
            "velocity": 0.3937007874015748
          },
          {
            "duration": 0.0428569999999997,
            "durationTicks": 96,
            "midi": 44,
            "name": "G#2",
            "ticks": 34368,
            "time": 15.342806,
            "velocity": 0.3937007874015748
          },
          {
            "duration": 0.0428569999999997,
            "durationTicks": 96,
            "midi": 32,
            "name": "G#1",
            "ticks": 34464,
            "time": 15.385663,
            "velocity": 0.3937007874015748
          },
          {
            "duration": 0.0428569999999997,
            "durationTicks": 96,
            "midi": 32,
            "name": "G#1",
            "ticks": 34656,
            "time": 15.471377,
            "velocity": 0.3937007874015748
          },
          {
            "duration": 0.0428569999999997,
            "durationTicks": 96,
            "midi": 40,
            "name": "E2",
            "ticks": 34752,
            "time": 15.514234,
            "velocity": 0.3937007874015748
          },
          {
            "duration": 0.0428569999999997,
            "durationTicks": 96,
            "midi": 32,
            "name": "G#1",
            "ticks": 34848,
            "time": 15.557091,
            "velocity": 0.3937007874015748
          },
          {
            "duration": 0.0428569999999997,
            "durationTicks": 96,
            "midi": 32,
            "name": "G#1",
            "ticks": 35040,
            "time": 15.642805,
            "velocity": 0.3937007874015748
          },
          {
            "duration": 0.0428569999999997,
            "durationTicks": 96,
            "midi": 32,
            "name": "G#1",
            "ticks": 35232,
            "time": 15.728519,
            "velocity": 0.3937007874015748
          },
          {
            "duration": 0.0428569999999997,
            "durationTicks": 96,
            "midi": 33,
            "name": "A1",
            "ticks": 35424,
            "time": 15.814233,
            "velocity": 0.3937007874015748
          },
          {
            "duration": 0.0428569999999997,
            "durationTicks": 96,
            "midi": 37,
            "name": "C#2",
            "ticks": 35520,
            "time": 15.85709,
            "velocity": 0.3937007874015748
          },
          {
            "duration": 0.0428569999999997,
            "durationTicks": 96,
            "midi": 57,
            "name": "A3",
            "ticks": 35520,
            "time": 15.85709,
            "velocity": 0.3937007874015748
          },
          {
            "duration": 0.0428569999999997,
            "durationTicks": 96,
            "midi": 33,
            "name": "A1",
            "ticks": 35616,
            "time": 15.899947,
            "velocity": 0.3937007874015748
          },
          {
            "duration": 0.04285700000000148,
            "durationTicks": 96,
            "midi": 58,
            "name": "A#3",
            "ticks": 35712,
            "time": 15.942803999999999,
            "velocity": 0.3937007874015748
          },
          {
            "duration": 0.04285700000000148,
            "durationTicks": 96,
            "midi": 35,
            "name": "B1",
            "ticks": 35712,
            "time": 15.942803999999999,
            "velocity": 0.3937007874015748
          },
          {
            "duration": 0.042856999999997925,
            "durationTicks": 96,
            "midi": 33,
            "name": "A1",
            "ticks": 35808,
            "time": 15.985661,
            "velocity": 0.3937007874015748
          },
          {
            "duration": 0.04285700000000148,
            "durationTicks": 96,
            "midi": 33,
            "name": "A1",
            "ticks": 35904,
            "time": 16.028518,
            "velocity": 0.3937007874015748
          },
          {
            "duration": 0.04285700000000148,
            "durationTicks": 96,
            "midi": 57,
            "name": "A3",
            "ticks": 35904,
            "time": 16.028518,
            "velocity": 0.3937007874015748
          },
          {
            "duration": 0.04285700000000148,
            "durationTicks": 96,
            "midi": 33,
            "name": "A1",
            "ticks": 36000,
            "time": 16.071375,
            "velocity": 0.3937007874015748
          },
          {
            "duration": 0.042856999999997925,
            "durationTicks": 96,
            "midi": 56,
            "name": "G#3",
            "ticks": 36096,
            "time": 16.114232,
            "velocity": 0.3937007874015748
          },
          {
            "duration": 0.042856999999997925,
            "durationTicks": 96,
            "midi": 31,
            "name": "G1",
            "ticks": 36096,
            "time": 16.114232,
            "velocity": 0.3937007874015748
          },
          {
            "duration": 0.04285700000000148,
            "durationTicks": 96,
            "midi": 33,
            "name": "A1",
            "ticks": 36192,
            "time": 16.157089,
            "velocity": 0.3937007874015748
          },
          {
            "duration": 0.042856999999997925,
            "durationTicks": 96,
            "midi": 29,
            "name": "F1",
            "ticks": 36288,
            "time": 16.199946,
            "velocity": 0.3937007874015748
          },
          {
            "duration": 0.042856999999997925,
            "durationTicks": 96,
            "midi": 57,
            "name": "A3",
            "ticks": 36288,
            "time": 16.199946,
            "velocity": 0.3937007874015748
          },
          {
            "duration": 0.04285700000000148,
            "durationTicks": 96,
            "midi": 33,
            "name": "A1",
            "ticks": 36384,
            "time": 16.242803,
            "velocity": 0.3937007874015748
          },
          {
            "duration": 0.042856999999997925,
            "durationTicks": 96,
            "midi": 27,
            "name": "D#1",
            "ticks": 36480,
            "time": 16.28566,
            "velocity": 0.3937007874015748
          },
          {
            "duration": 0.04285700000000148,
            "durationTicks": 96,
            "midi": 33,
            "name": "A1",
            "ticks": 36576,
            "time": 16.328516999999998,
            "velocity": 0.3937007874015748
          },
          {
            "duration": 0.04285700000000148,
            "durationTicks": 96,
            "midi": 61,
            "name": "C#4",
            "ticks": 36672,
            "time": 16.371374,
            "velocity": 0.3937007874015748
          },
          {
            "duration": 0.04285700000000148,
            "durationTicks": 96,
            "midi": 25,
            "name": "C#1",
            "ticks": 36672,
            "time": 16.371374,
            "velocity": 0.3937007874015748
          },
          {
            "duration": 0.042856999999997925,
            "durationTicks": 96,
            "midi": 33,
            "name": "A1",
            "ticks": 36768,
            "time": 16.414231,
            "velocity": 0.3937007874015748
          },
          {
            "duration": 0.042856999999997925,
            "durationTicks": 96,
            "midi": 37,
            "name": "C#2",
            "ticks": 36960,
            "time": 16.499945,
            "velocity": 0.3937007874015748
          },
          {
            "duration": 0.04285700000000148,
            "durationTicks": 96,
            "midi": 64,
            "name": "E4",
            "ticks": 37056,
            "time": 16.542802,
            "velocity": 0.3937007874015748
          },
          {
            "duration": 0.04285700000000148,
            "durationTicks": 96,
            "midi": 37,
            "name": "C#2",
            "ticks": 37152,
            "time": 16.585659,
            "velocity": 0.3937007874015748
          },
          {
            "duration": 0.04285700000000148,
            "durationTicks": 96,
            "midi": 37,
            "name": "C#2",
            "ticks": 37344,
            "time": 16.671373,
            "velocity": 0.3937007874015748
          },
          {
            "duration": 0.04285700000000148,
            "durationTicks": 96,
            "midi": 37,
            "name": "C#2",
            "ticks": 37536,
            "time": 16.757087,
            "velocity": 0.3937007874015748
          },
          {
            "duration": 0.042856999999997925,
            "durationTicks": 96,
            "midi": 37,
            "name": "C#2",
            "ticks": 37728,
            "time": 16.842801,
            "velocity": 0.3937007874015748
          },
          {
            "duration": 0.04285700000000148,
            "durationTicks": 96,
            "midi": 57,
            "name": "A3",
            "ticks": 37824,
            "time": 16.885658,
            "velocity": 0.3937007874015748
          },
          {
            "duration": 0.042856999999997925,
            "durationTicks": 96,
            "midi": 37,
            "name": "C#2",
            "ticks": 37920,
            "time": 16.928515,
            "velocity": 0.3937007874015748
          },
          {
            "duration": 0.042856999999997925,
            "durationTicks": 96,
            "midi": 37,
            "name": "C#2",
            "ticks": 38112,
            "time": 17.014229,
            "velocity": 0.3937007874015748
          },
          {
            "duration": 0.04285700000000148,
            "durationTicks": 96,
            "midi": 67,
            "name": "G4",
            "ticks": 38208,
            "time": 17.057085999999998,
            "velocity": 0.3937007874015748
          },
          {
            "duration": 0.04285700000000148,
            "durationTicks": 96,
            "midi": 37,
            "name": "C#2",
            "ticks": 38304,
            "time": 17.099943,
            "velocity": 0.3937007874015748
          },
          {
            "duration": 0.04285700000000148,
            "durationTicks": 96,
            "midi": 38,
            "name": "D2",
            "ticks": 38496,
            "time": 17.185657,
            "velocity": 0.3937007874015748
          },
          {
            "duration": 0.042856999999997925,
            "durationTicks": 96,
            "midi": 65,
            "name": "F4",
            "ticks": 38592,
            "time": 17.228514,
            "velocity": 0.3937007874015748
          },
          {
            "duration": 0.04285700000000148,
            "durationTicks": 96,
            "midi": 38,
            "name": "D2",
            "ticks": 38688,
            "time": 17.271371,
            "velocity": 0.3937007874015748
          },
          {
            "duration": 0.042856999999997925,
            "durationTicks": 96,
            "midi": 38,
            "name": "D2",
            "ticks": 38880,
            "time": 17.357085,
            "velocity": 0.3937007874015748
          },
          {
            "duration": 0.042856999999997925,
            "durationTicks": 96,
            "midi": 38,
            "name": "D2",
            "ticks": 39072,
            "time": 17.442799,
            "velocity": 0.3937007874015748
          },
          {
            "duration": 0.04285700000000148,
            "durationTicks": 96,
            "midi": 64,
            "name": "E4",
            "ticks": 39168,
            "time": 17.485656,
            "velocity": 0.3937007874015748
          },
          {
            "duration": 0.042856999999997925,
            "durationTicks": 96,
            "midi": 38,
            "name": "D2",
            "ticks": 39264,
            "time": 17.528513,
            "velocity": 0.3937007874015748
          },
          {
            "duration": 0.04285700000000148,
            "durationTicks": 96,
            "midi": 62,
            "name": "D4",
            "ticks": 39360,
            "time": 17.571369999999998,
            "velocity": 0.3937007874015748
          },
          {
            "duration": 0.04285700000000148,
            "durationTicks": 96,
            "midi": 38,
            "name": "D2",
            "ticks": 39456,
            "time": 17.614227,
            "velocity": 0.3937007874015748
          },
          {
            "duration": 0.04285700000000148,
            "durationTicks": 96,
            "midi": 38,
            "name": "D2",
            "ticks": 39648,
            "time": 17.699941,
            "velocity": 0.3937007874015748
          },
          {
            "duration": 0.04285700000000148,
            "durationTicks": 96,
            "midi": 38,
            "name": "D2",
            "ticks": 39840,
            "time": 17.785655,
            "velocity": 0.3937007874015748
          },
          {
            "duration": 0.042856999999997925,
            "durationTicks": 96,
            "midi": 38,
            "name": "D2",
            "ticks": 40032,
            "time": 17.871369,
            "velocity": 0.3937007874015748
          },
          {
            "duration": 0.04285700000000148,
            "durationTicks": 96,
            "midi": 53,
            "name": "F3",
            "ticks": 40128,
            "time": 17.914226,
            "velocity": 0.3937007874015748
          },
          {
            "duration": 0.042856999999997925,
            "durationTicks": 96,
            "midi": 38,
            "name": "D2",
            "ticks": 40224,
            "time": 17.957083,
            "velocity": 0.3937007874015748
          },
          {
            "duration": 0.042856999999997925,
            "durationTicks": 96,
            "midi": 38,
            "name": "D2",
            "ticks": 40416,
            "time": 18.042797,
            "velocity": 0.3937007874015748
          },
          {
            "duration": 0.04285700000000148,
            "durationTicks": 96,
            "midi": 38,
            "name": "D2",
            "ticks": 40608,
            "time": 18.128511,
            "velocity": 0.3937007874015748
          },
          {
            "duration": 0.042856999999997925,
            "durationTicks": 96,
            "midi": 52,
            "name": "E3",
            "ticks": 40704,
            "time": 18.171368,
            "velocity": 0.3937007874015748
          },
          {
            "duration": 0.04285700000000148,
            "durationTicks": 96,
            "midi": 38,
            "name": "D2",
            "ticks": 40800,
            "time": 18.214225,
            "velocity": 0.3937007874015748
          },
          {
            "duration": 0.042856999999997925,
            "durationTicks": 96,
            "midi": 50,
            "name": "D3",
            "ticks": 40896,
            "time": 18.257082,
            "velocity": 0.3937007874015748
          },
          {
            "duration": 0.04285700000000148,
            "durationTicks": 96,
            "midi": 38,
            "name": "D2",
            "ticks": 40992,
            "time": 18.299939,
            "velocity": 0.3937007874015748
          },
          {
            "duration": 0.042856999999997925,
            "durationTicks": 96,
            "midi": 38,
            "name": "D2",
            "ticks": 41184,
            "time": 18.385653,
            "velocity": 0.3937007874015748
          },
          {
            "duration": 0.042856999999997925,
            "durationTicks": 96,
            "midi": 38,
            "name": "D2",
            "ticks": 41376,
            "time": 18.471367,
            "velocity": 0.3937007874015748
          },
          {
            "duration": 0.042856999999997925,
            "durationTicks": 96,
            "midi": 35,
            "name": "B1",
            "ticks": 41568,
            "time": 18.557081,
            "velocity": 0.3937007874015748
          },
          {
            "duration": 0.04285700000000148,
            "durationTicks": 96,
            "midi": 35,
            "name": "B1",
            "ticks": 41664,
            "time": 18.599937999999998,
            "velocity": 0.3937007874015748
          },
          {
            "duration": 0.04285700000000148,
            "durationTicks": 96,
            "midi": 62,
            "name": "D4",
            "ticks": 41664,
            "time": 18.599937999999998,
            "velocity": 0.3937007874015748
          },
          {
            "duration": 0.04285700000000148,
            "durationTicks": 96,
            "midi": 35,
            "name": "B1",
            "ticks": 41760,
            "time": 18.642795,
            "velocity": 0.3937007874015748
          },
          {
            "duration": 0.042856999999997925,
            "durationTicks": 96,
            "midi": 33,
            "name": "A1",
            "ticks": 41856,
            "time": 18.685652,
            "velocity": 0.3937007874015748
          },
          {
            "duration": 0.042856999999997925,
            "durationTicks": 96,
            "midi": 64,
            "name": "E4",
            "ticks": 41856,
            "time": 18.685652,
            "velocity": 0.3937007874015748
          },
          {
            "duration": 0.04285700000000148,
            "durationTicks": 96,
            "midi": 35,
            "name": "B1",
            "ticks": 41952,
            "time": 18.728509,
            "velocity": 0.3937007874015748
          },
          {
            "duration": 0.042856999999997925,
            "durationTicks": 96,
            "midi": 62,
            "name": "D4",
            "ticks": 42048,
            "time": 18.771366,
            "velocity": 0.3937007874015748
          },
          {
            "duration": 0.042856999999997925,
            "durationTicks": 96,
            "midi": 31,
            "name": "G1",
            "ticks": 42048,
            "time": 18.771366,
            "velocity": 0.3937007874015748
          },
          {
            "duration": 0.04285700000000148,
            "durationTicks": 96,
            "midi": 35,
            "name": "B1",
            "ticks": 42144,
            "time": 18.814223,
            "velocity": 0.3937007874015748
          },
          {
            "duration": 0.04285700000000148,
            "durationTicks": 96,
            "midi": 61,
            "name": "C#4",
            "ticks": 42240,
            "time": 18.85708,
            "velocity": 0.3937007874015748
          },
          {
            "duration": 0.04285700000000148,
            "durationTicks": 96,
            "midi": 29,
            "name": "F1",
            "ticks": 42240,
            "time": 18.85708,
            "velocity": 0.3937007874015748
          },
          {
            "duration": 0.042856999999997925,
            "durationTicks": 96,
            "midi": 35,
            "name": "B1",
            "ticks": 42336,
            "time": 18.899937,
            "velocity": 0.3937007874015748
          },
          {
            "duration": 0.04285700000000148,
            "durationTicks": 96,
            "midi": 27,
            "name": "D#1",
            "ticks": 42432,
            "time": 18.942794,
            "velocity": 0.3937007874015748
          },
          {
            "duration": 0.04285700000000148,
            "durationTicks": 96,
            "midi": 62,
            "name": "D4",
            "ticks": 42432,
            "time": 18.942794,
            "velocity": 0.3937007874015748
          },
          {
            "duration": 0.042856999999997925,
            "durationTicks": 96,
            "midi": 35,
            "name": "B1",
            "ticks": 42528,
            "time": 18.985651,
            "velocity": 0.3937007874015748
          },
          {
            "duration": 0.04285700000000148,
            "durationTicks": 96,
            "midi": 25,
            "name": "C#1",
            "ticks": 42624,
            "time": 19.028508,
            "velocity": 0.3937007874015748
          },
          {
            "duration": 0.042856999999997925,
            "durationTicks": 96,
            "midi": 35,
            "name": "B1",
            "ticks": 42720,
            "time": 19.071365,
            "velocity": 0.3937007874015748
          },
          {
            "duration": 0.04285700000000148,
            "durationTicks": 96,
            "midi": 26,
            "name": "D1",
            "ticks": 42816,
            "time": 19.114221999999998,
            "velocity": 0.3937007874015748
          },
          {
            "duration": 0.04285700000000148,
            "durationTicks": 96,
            "midi": 65,
            "name": "F4",
            "ticks": 42816,
            "time": 19.114221999999998,
            "velocity": 0.3937007874015748
          },
          {
            "duration": 0.04285700000000148,
            "durationTicks": 96,
            "midi": 35,
            "name": "B1",
            "ticks": 42912,
            "time": 19.157079,
            "velocity": 0.3937007874015748
          },
          {
            "duration": 0.04285700000000148,
            "durationTicks": 96,
            "midi": 32,
            "name": "G#1",
            "ticks": 43104,
            "time": 19.242793,
            "velocity": 0.3937007874015748
          },
          {
            "duration": 0.042856999999997925,
            "durationTicks": 96,
            "midi": 64,
            "name": "E4",
            "ticks": 43200,
            "time": 19.28565,
            "velocity": 0.3937007874015748
          },
          {
            "duration": 0.04285700000000148,
            "durationTicks": 96,
            "midi": 32,
            "name": "G#1",
            "ticks": 43296,
            "time": 19.328507,
            "velocity": 0.3937007874015748
          },
          {
            "duration": 0.042856999999997925,
            "durationTicks": 96,
            "midi": 32,
            "name": "G#1",
            "ticks": 43488,
            "time": 19.414221,
            "velocity": 0.3937007874015748
          },
          {
            "duration": 0.042856999999997925,
            "durationTicks": 96,
            "midi": 32,
            "name": "G#1",
            "ticks": 43680,
            "time": 19.499935,
            "velocity": 0.3937007874015748
          },
          {
            "duration": 0.042856999999997925,
            "durationTicks": 96,
            "midi": 32,
            "name": "G#1",
            "ticks": 43872,
            "time": 19.585649,
            "velocity": 0.3937007874015748
          },
          {
            "duration": 0.04285700000000148,
            "durationTicks": 96,
            "midi": 59,
            "name": "B3",
            "ticks": 43968,
            "time": 19.628505999999998,
            "velocity": 0.3937007874015748
          },
          {
            "duration": 0.04285700000000148,
            "durationTicks": 96,
            "midi": 32,
            "name": "G#1",
            "ticks": 44064,
            "time": 19.671363,
            "velocity": 0.3937007874015748
          },
          {
            "duration": 0.04285700000000148,
            "durationTicks": 96,
            "midi": 32,
            "name": "G#1",
            "ticks": 44256,
            "time": 19.757077,
            "velocity": 0.3937007874015748
          },
          {
            "duration": 0.042856999999997925,
            "durationTicks": 96,
            "midi": 62,
            "name": "D4",
            "ticks": 44352,
            "time": 19.799934,
            "velocity": 0.3937007874015748
          },
          {
            "duration": 0.04285700000000148,
            "durationTicks": 96,
            "midi": 32,
            "name": "G#1",
            "ticks": 44448,
            "time": 19.842791,
            "velocity": 0.3937007874015748
          },
          {
            "duration": 0.042856999999997925,
            "durationTicks": 96,
            "midi": 33,
            "name": "A1",
            "ticks": 44640,
            "time": 19.928505,
            "velocity": 0.3937007874015748
          },
          {
            "duration": 0.04285700000000148,
            "durationTicks": 96,
            "midi": 60,
            "name": "C4",
            "ticks": 44736,
            "time": 19.971362,
            "velocity": 0.3937007874015748
          },
          {
            "duration": 0.042856999999997925,
            "durationTicks": 96,
            "midi": 33,
            "name": "A1",
            "ticks": 44832,
            "time": 20.014219,
            "velocity": 0.3937007874015748
          },
          {
            "duration": 0.042856999999997925,
            "durationTicks": 96,
            "midi": 33,
            "name": "A1",
            "ticks": 45024,
            "time": 20.099933,
            "velocity": 0.3937007874015748
          },
          {
            "duration": 0.04285700000000148,
            "durationTicks": 96,
            "midi": 60,
            "name": "C4",
            "ticks": 45120,
            "time": 20.142789999999998,
            "velocity": 0.3937007874015748
          },
          {
            "duration": 0.04285700000000148,
            "durationTicks": 96,
            "midi": 33,
            "name": "A1",
            "ticks": 45216,
            "time": 20.185647,
            "velocity": 0.3937007874015748
          },
          {
            "duration": 0.042856999999997925,
            "durationTicks": 96,
            "midi": 59,
            "name": "B3",
            "ticks": 45312,
            "time": 20.228504,
            "velocity": 0.3937007874015748
          },
          {
            "duration": 0.04285700000000148,
            "durationTicks": 96,
            "midi": 31,
            "name": "G1",
            "ticks": 45408,
            "time": 20.271361,
            "velocity": 0.3937007874015748
          },
          {
            "duration": 0.042856999999997925,
            "durationTicks": 96,
            "midi": 57,
            "name": "A3",
            "ticks": 45504,
            "time": 20.314218,
            "velocity": 0.3937007874015748
          },
          {
            "duration": 0.04285700000000148,
            "durationTicks": 96,
            "midi": 31,
            "name": "G1",
            "ticks": 45600,
            "time": 20.357075,
            "velocity": 0.3937007874015748
          },
          {
            "duration": 0.04285700000000148,
            "durationTicks": 96,
            "midi": 59,
            "name": "B3",
            "ticks": 45696,
            "time": 20.399932,
            "velocity": 0.3937007874015748
          },
          {
            "duration": 0.042856999999997925,
            "durationTicks": 96,
            "midi": 31,
            "name": "G1",
            "ticks": 45792,
            "time": 20.442789,
            "velocity": 0.3937007874015748
          },
          {
            "duration": 0.04285700000000148,
            "durationTicks": 96,
            "midi": 60,
            "name": "C4",
            "ticks": 45888,
            "time": 20.485646,
            "velocity": 0.3937007874015748
          },
          {
            "duration": 0.042856999999997925,
            "durationTicks": 96,
            "midi": 31,
            "name": "G1",
            "ticks": 45984,
            "time": 20.528503,
            "velocity": 0.3937007874015748
          },
          {
            "duration": 0.04285700000000148,
            "durationTicks": 96,
            "midi": 64,
            "name": "E4",
            "ticks": 46080,
            "time": 20.57136,
            "velocity": 0.3937007874015748
          },
          {
            "duration": 0.042856999999997925,
            "durationTicks": 96,
            "midi": 30,
            "name": "F#1",
            "ticks": 46176,
            "time": 20.614217,
            "velocity": 0.3937007874015748
          },
          {
            "duration": 0.04285700000000148,
            "durationTicks": 96,
            "midi": 69,
            "name": "A4",
            "ticks": 46272,
            "time": 20.657073999999998,
            "velocity": 0.3937007874015748
          },
          {
            "duration": 0.04285700000000148,
            "durationTicks": 96,
            "midi": 30,
            "name": "F#1",
            "ticks": 46368,
            "time": 20.699931,
            "velocity": 0.3937007874015748
          },
          {
            "duration": 0.04285700000000148,
            "durationTicks": 96,
            "midi": 30,
            "name": "F#1",
            "ticks": 46560,
            "time": 20.785645,
            "velocity": 0.3937007874015748
          },
          {
            "duration": 0.04285700000000148,
            "durationTicks": 96,
            "midi": 30,
            "name": "F#1",
            "ticks": 46752,
            "time": 20.871358999999998,
            "velocity": 0.3937007874015748
          },
          {
            "duration": 0.042856999999997925,
            "durationTicks": 96,
            "midi": 30,
            "name": "F#1",
            "ticks": 46944,
            "time": 20.957073,
            "velocity": 0.3937007874015748
          },
          {
            "duration": 0.042856999999997925,
            "durationTicks": 96,
            "midi": 30,
            "name": "F#1",
            "ticks": 47136,
            "time": 21.042787,
            "velocity": 0.3937007874015748
          },
          {
            "duration": 0.042856999999997925,
            "durationTicks": 96,
            "midi": 30,
            "name": "F#1",
            "ticks": 47328,
            "time": 21.128501,
            "velocity": 0.3937007874015748
          },
          {
            "duration": 0.04285700000000148,
            "durationTicks": 96,
            "midi": 71,
            "name": "B4",
            "ticks": 47424,
            "time": 21.171357999999998,
            "velocity": 0.3937007874015748
          },
          {
            "duration": 0.04285700000000148,
            "durationTicks": 96,
            "midi": 30,
            "name": "F#1",
            "ticks": 47520,
            "time": 21.214215,
            "velocity": 0.3937007874015748
          },
          {
            "duration": 0.042856999999997925,
            "durationTicks": 96,
            "midi": 72,
            "name": "C5",
            "ticks": 47616,
            "time": 21.257072,
            "velocity": 0.3937007874015748
          },
          {
            "duration": 0.042856999999997925,
            "durationTicks": 96,
            "midi": 59,
            "name": "B3",
            "ticks": 47808,
            "time": 21.342786,
            "velocity": 0.3937007874015748
          },
          {
            "duration": 0.042856999999997925,
            "durationTicks": 96,
            "midi": 71,
            "name": "B4",
            "ticks": 47808,
            "time": 21.342786,
            "velocity": 0.3937007874015748
          },
          {
            "duration": 0.042856999999997925,
            "durationTicks": 96,
            "midi": 38,
            "name": "D2",
            "ticks": 47808,
            "time": 21.342786,
            "velocity": 0.3937007874015748
          },
          {
            "duration": 0.04285700000000148,
            "durationTicks": 96,
            "midi": 36,
            "name": "C2",
            "ticks": 48000,
            "time": 21.4285,
            "velocity": 0.3937007874015748
          },
          {
            "duration": 0.04285700000000148,
            "durationTicks": 96,
            "midi": 57,
            "name": "A3",
            "ticks": 48192,
            "time": 21.514214,
            "velocity": 0.3937007874015748
          },
          {
            "duration": 0.04285700000000148,
            "durationTicks": 96,
            "midi": 69,
            "name": "A4",
            "ticks": 48192,
            "time": 21.514214,
            "velocity": 0.3937007874015748
          },
          {
            "duration": 0.04285700000000148,
            "durationTicks": 96,
            "midi": 34,
            "name": "A#1",
            "ticks": 48192,
            "time": 21.514214,
            "velocity": 0.3937007874015748
          },
          {
            "duration": 0.04285700000000148,
            "durationTicks": 96,
            "midi": 32,
            "name": "G#1",
            "ticks": 48384,
            "time": 21.599928,
            "velocity": 0.3937007874015748
          },
          {
            "duration": 0.04285700000000148,
            "durationTicks": 96,
            "midi": 54,
            "name": "F#3",
            "ticks": 48384,
            "time": 21.599928,
            "velocity": 0.3937007874015748
          },
          {
            "duration": 0.04285700000000148,
            "durationTicks": 96,
            "midi": 66,
            "name": "F#4",
            "ticks": 48384,
            "time": 21.599928,
            "velocity": 0.3937007874015748
          },
          {
            "duration": 0.04285700000000148,
            "durationTicks": 96,
            "midi": 51,
            "name": "D#3",
            "ticks": 48576,
            "time": 21.685641999999998,
            "velocity": 0.3937007874015748
          },
          {
            "duration": 0.04285700000000148,
            "durationTicks": 96,
            "midi": 63,
            "name": "D#4",
            "ticks": 48576,
            "time": 21.685641999999998,
            "velocity": 0.3937007874015748
          },
          {
            "duration": 0.04285700000000148,
            "durationTicks": 96,
            "midi": 30,
            "name": "F#1",
            "ticks": 48576,
            "time": 21.685641999999998,
            "velocity": 0.3937007874015748
          },
          {
            "duration": 0.042856999999997925,
            "durationTicks": 96,
            "midi": 60,
            "name": "C4",
            "ticks": 48768,
            "time": 21.771356,
            "velocity": 0.3937007874015748
          },
          {
            "duration": 0.042856999999997925,
            "durationTicks": 96,
            "midi": 28,
            "name": "E1",
            "ticks": 48768,
            "time": 21.771356,
            "velocity": 0.3937007874015748
          },
          {
            "duration": 0.042856999999997925,
            "durationTicks": 96,
            "midi": 48,
            "name": "C3",
            "ticks": 48768,
            "time": 21.771356,
            "velocity": 0.3937007874015748
          },
          {
            "duration": 0.042856999999997925,
            "durationTicks": 96,
            "midi": 26,
            "name": "D1",
            "ticks": 48960,
            "time": 21.85707,
            "velocity": 0.3937007874015748
          },
          {
            "duration": 0.042856999999997925,
            "durationTicks": 96,
            "midi": 45,
            "name": "A2",
            "ticks": 48960,
            "time": 21.85707,
            "velocity": 0.3937007874015748
          },
          {
            "duration": 0.042856999999997925,
            "durationTicks": 96,
            "midi": 57,
            "name": "A3",
            "ticks": 48960,
            "time": 21.85707,
            "velocity": 0.3937007874015748
          },
          {
            "duration": 0.04285700000000148,
            "durationTicks": 96,
            "midi": 42,
            "name": "F#2",
            "ticks": 49152,
            "time": 21.942784,
            "velocity": 0.3937007874015748
          },
          {
            "duration": 0.04285700000000148,
            "durationTicks": 96,
            "midi": 54,
            "name": "F#3",
            "ticks": 49152,
            "time": 21.942784,
            "velocity": 0.3937007874015748
          },
          {
            "duration": 0.042856999999997925,
            "durationTicks": 96,
            "midi": 28,
            "name": "E1",
            "ticks": 49248,
            "time": 21.985641,
            "velocity": 0.3937007874015748
          },
          {
            "duration": 0.04285700000000148,
            "durationTicks": 96,
            "midi": 44,
            "name": "G#2",
            "ticks": 49344,
            "time": 22.028498,
            "velocity": 0.3937007874015748
          },
          {
            "duration": 0.04285700000000148,
            "durationTicks": 96,
            "midi": 56,
            "name": "G#3",
            "ticks": 49344,
            "time": 22.028498,
            "velocity": 0.3937007874015748
          },
          {
            "duration": 0.042856999999997925,
            "durationTicks": 96,
            "midi": 28,
            "name": "E1",
            "ticks": 49440,
            "time": 22.071355,
            "velocity": 0.3937007874015748
          },
          {
            "duration": 0.04285700000000148,
            "durationTicks": 96,
            "midi": 28,
            "name": "E1",
            "ticks": 49632,
            "time": 22.157069,
            "velocity": 0.3937007874015748
          },
          {
            "duration": 0.04285700000000148,
            "durationTicks": 96,
            "midi": 28,
            "name": "E1",
            "ticks": 49824,
            "time": 22.242783,
            "velocity": 0.3937007874015748
          },
          {
            "duration": 0.04285700000000148,
            "durationTicks": 96,
            "midi": 28,
            "name": "E1",
            "ticks": 50016,
            "time": 22.328497,
            "velocity": 0.3937007874015748
          },
          {
            "duration": 0.04285700000000148,
            "durationTicks": 96,
            "midi": 28,
            "name": "E1",
            "ticks": 50208,
            "time": 22.414210999999998,
            "velocity": 0.3937007874015748
          },
          {
            "duration": 0.042856999999997925,
            "durationTicks": 96,
            "midi": 28,
            "name": "E1",
            "ticks": 50400,
            "time": 22.499925,
            "velocity": 0.3937007874015748
          },
          {
            "duration": 0.04285700000000148,
            "durationTicks": 96,
            "midi": 57,
            "name": "A3",
            "ticks": 50496,
            "time": 22.542782,
            "velocity": 0.3937007874015748
          },
          {
            "duration": 0.04285700000000148,
            "durationTicks": 96,
            "midi": 45,
            "name": "A2",
            "ticks": 50496,
            "time": 22.542782,
            "velocity": 0.3937007874015748
          },
          {
            "duration": 0.042856999999997925,
            "durationTicks": 96,
            "midi": 28,
            "name": "E1",
            "ticks": 50592,
            "time": 22.585639,
            "velocity": 0.3937007874015748
          },
          {
            "duration": 0.04285700000000148,
            "durationTicks": 96,
            "midi": 33,
            "name": "A1",
            "ticks": 50784,
            "time": 22.671353,
            "velocity": 0.3937007874015748
          },
          {
            "duration": 0.042856999999997925,
            "durationTicks": 96,
            "midi": 45,
            "name": "A2",
            "ticks": 50880,
            "time": 22.71421,
            "velocity": 0.3937007874015748
          },
          {
            "duration": 0.042856999999997925,
            "durationTicks": 96,
            "midi": 57,
            "name": "A3",
            "ticks": 50880,
            "time": 22.71421,
            "velocity": 0.3937007874015748
          },
          {
            "duration": 0.04285700000000148,
            "durationTicks": 96,
            "midi": 33,
            "name": "A1",
            "ticks": 50976,
            "time": 22.757067,
            "velocity": 0.3937007874015748
          },
          {
            "duration": 0.04285700000000148,
            "durationTicks": 96,
            "midi": 33,
            "name": "A1",
            "ticks": 51168,
            "time": 22.842781,
            "velocity": 0.3937007874015748
          },
          {
            "duration": 0.04285700000000148,
            "durationTicks": 96,
            "midi": 33,
            "name": "A1",
            "ticks": 51360,
            "time": 22.928494999999998,
            "velocity": 0.3937007874015748
          },
          {
            "duration": 0.042856999999997925,
            "durationTicks": 96,
            "midi": 33,
            "name": "A1",
            "ticks": 51552,
            "time": 23.014209,
            "velocity": 0.3937007874015748
          },
          {
            "duration": 0.042856999999997925,
            "durationTicks": 96,
            "midi": 33,
            "name": "A1",
            "ticks": 51744,
            "time": 23.099923,
            "velocity": 0.3937007874015748
          },
          {
            "duration": 0.04285700000000148,
            "durationTicks": 96,
            "midi": 33,
            "name": "A1",
            "ticks": 51936,
            "time": 23.185637,
            "velocity": 0.3937007874015748
          },
          {
            "duration": 0.04285700000000148,
            "durationTicks": 96,
            "midi": 33,
            "name": "A1",
            "ticks": 52128,
            "time": 23.271351,
            "velocity": 0.3937007874015748
          },
          {
            "duration": 0.04285700000000148,
            "durationTicks": 96,
            "midi": 33,
            "name": "A1",
            "ticks": 52320,
            "time": 23.357065,
            "velocity": 0.3937007874015748
          },
          {
            "duration": 0.04285700000000148,
            "durationTicks": 96,
            "midi": 33,
            "name": "A1",
            "ticks": 52512,
            "time": 23.442778999999998,
            "velocity": 0.3937007874015748
          },
          {
            "duration": 0.042856999999997925,
            "durationTicks": 96,
            "midi": 33,
            "name": "A1",
            "ticks": 52704,
            "time": 23.528493,
            "velocity": 0.3937007874015748
          },
          {
            "duration": 0.042856999999997925,
            "durationTicks": 96,
            "midi": 33,
            "name": "A1",
            "ticks": 52896,
            "time": 23.614207,
            "velocity": 0.3937007874015748
          },
          {
            "duration": 0.04285700000000148,
            "durationTicks": 96,
            "midi": 33,
            "name": "A1",
            "ticks": 53088,
            "time": 23.699921,
            "velocity": 0.3937007874015748
          },
          {
            "duration": 0.04285700000000148,
            "durationTicks": 96,
            "midi": 33,
            "name": "A1",
            "ticks": 53280,
            "time": 23.785635,
            "velocity": 0.3937007874015748
          },
          {
            "duration": 0.04285700000000148,
            "durationTicks": 96,
            "midi": 33,
            "name": "A1",
            "ticks": 53472,
            "time": 23.871349,
            "velocity": 0.3937007874015748
          },
          {
            "duration": 0.04285700000000148,
            "durationTicks": 96,
            "midi": 33,
            "name": "A1",
            "ticks": 53664,
            "time": 23.957062999999998,
            "velocity": 0.3937007874015748
          },
          {
            "duration": 0.042856999999997925,
            "durationTicks": 96,
            "midi": 33,
            "name": "A1",
            "ticks": 78432,
            "time": 35.014169,
            "velocity": 0.3937007874015748
          },
          {
            "duration": 0.042856999999997925,
            "durationTicks": 96,
            "midi": 45,
            "name": "A2",
            "ticks": 78528,
            "time": 35.057026,
            "velocity": 0.3937007874015748
          },
          {
            "duration": 0.042856999999997925,
            "durationTicks": 96,
            "midi": 53,
            "name": "F3",
            "ticks": 78528,
            "time": 35.057026,
            "velocity": 0.3937007874015748
          },
          {
            "duration": 0.042856999999997925,
            "durationTicks": 96,
            "midi": 33,
            "name": "A1",
            "ticks": 78624,
            "time": 35.099883,
            "velocity": 0.3937007874015748
          },
          {
            "duration": 0.04285700000000503,
            "durationTicks": 96,
            "midi": 53,
            "name": "F3",
            "ticks": 78720,
            "time": 35.142739999999996,
            "velocity": 0.3937007874015748
          },
          {
            "duration": 0.042856999999997925,
            "durationTicks": 96,
            "midi": 33,
            "name": "A1",
            "ticks": 78816,
            "time": 35.185597,
            "velocity": 0.3937007874015748
          },
          {
            "duration": 0.042856999999997925,
            "durationTicks": 96,
            "midi": 53,
            "name": "F3",
            "ticks": 78912,
            "time": 35.228454,
            "velocity": 0.3937007874015748
          },
          {
            "duration": 0.042856999999997925,
            "durationTicks": 96,
            "midi": 45,
            "name": "A2",
            "ticks": 78912,
            "time": 35.228454,
            "velocity": 0.3937007874015748
          },
          {
            "duration": 0.04285700000000503,
            "durationTicks": 96,
            "midi": 33,
            "name": "A1",
            "ticks": 79008,
            "time": 35.271311,
            "velocity": 0.3937007874015748
          },
          {
            "duration": 0.042856999999997925,
            "durationTicks": 96,
            "midi": 53,
            "name": "F3",
            "ticks": 79104,
            "time": 35.314168,
            "velocity": 0.3937007874015748
          },
          {
            "duration": 0.042856999999997925,
            "durationTicks": 96,
            "midi": 33,
            "name": "A1",
            "ticks": 79200,
            "time": 35.357025,
            "velocity": 0.3937007874015748
          },
          {
            "duration": 0.042856999999997925,
            "durationTicks": 96,
            "midi": 45,
            "name": "A2",
            "ticks": 79296,
            "time": 35.399882,
            "velocity": 0.3937007874015748
          },
          {
            "duration": 0.042856999999997925,
            "durationTicks": 96,
            "midi": 54,
            "name": "F#3",
            "ticks": 79296,
            "time": 35.399882,
            "velocity": 0.3937007874015748
          },
          {
            "duration": 0.04285700000000503,
            "durationTicks": 96,
            "midi": 33,
            "name": "A1",
            "ticks": 79392,
            "time": 35.442738999999996,
            "velocity": 0.3937007874015748
          },
          {
            "duration": 0.042856999999997925,
            "durationTicks": 96,
            "midi": 54,
            "name": "F#3",
            "ticks": 79488,
            "time": 35.485596,
            "velocity": 0.3937007874015748
          },
          {
            "duration": 0.042856999999997925,
            "durationTicks": 96,
            "midi": 33,
            "name": "A1",
            "ticks": 79584,
            "time": 35.528453,
            "velocity": 0.3937007874015748
          },
          {
            "duration": 0.04285700000000503,
            "durationTicks": 96,
            "midi": 54,
            "name": "F#3",
            "ticks": 79680,
            "time": 35.57131,
            "velocity": 0.3937007874015748
          },
          {
            "duration": 0.04285700000000503,
            "durationTicks": 96,
            "midi": 45,
            "name": "A2",
            "ticks": 79680,
            "time": 35.57131,
            "velocity": 0.3937007874015748
          },
          {
            "duration": 0.042856999999997925,
            "durationTicks": 96,
            "midi": 33,
            "name": "A1",
            "ticks": 79776,
            "time": 35.614167,
            "velocity": 0.3937007874015748
          },
          {
            "duration": 0.042856999999997925,
            "durationTicks": 96,
            "midi": 54,
            "name": "F#3",
            "ticks": 79872,
            "time": 35.657024,
            "velocity": 0.3937007874015748
          },
          {
            "duration": 0.04285700000000503,
            "durationTicks": 96,
            "midi": 33,
            "name": "A1",
            "ticks": 79968,
            "time": 35.699881,
            "velocity": 0.3937007874015748
          },
          {
            "duration": 0.042856999999997925,
            "durationTicks": 96,
            "midi": 55,
            "name": "G3",
            "ticks": 80064,
            "time": 35.742738,
            "velocity": 0.3937007874015748
          },
          {
            "duration": 0.042856999999997925,
            "durationTicks": 96,
            "midi": 45,
            "name": "A2",
            "ticks": 80064,
            "time": 35.742738,
            "velocity": 0.3937007874015748
          },
          {
            "duration": 0.042856999999997925,
            "durationTicks": 96,
            "midi": 33,
            "name": "A1",
            "ticks": 80160,
            "time": 35.785595,
            "velocity": 0.3937007874015748
          },
          {
            "duration": 0.042856999999997925,
            "durationTicks": 96,
            "midi": 55,
            "name": "G3",
            "ticks": 80256,
            "time": 35.828452,
            "velocity": 0.3937007874015748
          },
          {
            "duration": 0.04285700000000503,
            "durationTicks": 96,
            "midi": 33,
            "name": "A1",
            "ticks": 80352,
            "time": 35.871309,
            "velocity": 0.3937007874015748
          },
          {
            "duration": 0.042856999999997925,
            "durationTicks": 96,
            "midi": 45,
            "name": "A2",
            "ticks": 80448,
            "time": 35.914166,
            "velocity": 0.3937007874015748
          },
          {
            "duration": 0.042856999999997925,
            "durationTicks": 96,
            "midi": 55,
            "name": "G3",
            "ticks": 80448,
            "time": 35.914166,
            "velocity": 0.3937007874015748
          },
          {
            "duration": 0.042856999999997925,
            "durationTicks": 96,
            "midi": 33,
            "name": "A1",
            "ticks": 80544,
            "time": 35.957023,
            "velocity": 0.3937007874015748
          },
          {
            "duration": 0.04285700000000503,
            "durationTicks": 96,
            "midi": 55,
            "name": "G3",
            "ticks": 80640,
            "time": 35.99988,
            "velocity": 0.3937007874015748
          },
          {
            "duration": 0.042856999999997925,
            "durationTicks": 96,
            "midi": 33,
            "name": "A1",
            "ticks": 80736,
            "time": 36.042737,
            "velocity": 0.3937007874015748
          },
          {
            "duration": 0.042856999999997925,
            "durationTicks": 96,
            "midi": 56,
            "name": "G#3",
            "ticks": 80832,
            "time": 36.085594,
            "velocity": 0.3937007874015748
          },
          {
            "duration": 0.042856999999997925,
            "durationTicks": 96,
            "midi": 45,
            "name": "A2",
            "ticks": 80832,
            "time": 36.085594,
            "velocity": 0.3937007874015748
          },
          {
            "duration": 0.042856999999997925,
            "durationTicks": 96,
            "midi": 33,
            "name": "A1",
            "ticks": 80928,
            "time": 36.128451,
            "velocity": 0.3937007874015748
          },
          {
            "duration": 0.04285700000000503,
            "durationTicks": 96,
            "midi": 56,
            "name": "G#3",
            "ticks": 81024,
            "time": 36.171307999999996,
            "velocity": 0.3937007874015748
          },
          {
            "duration": 0.042856999999997925,
            "durationTicks": 96,
            "midi": 33,
            "name": "A1",
            "ticks": 81120,
            "time": 36.214165,
            "velocity": 0.3937007874015748
          },
          {
            "duration": 0.042856999999997925,
            "durationTicks": 96,
            "midi": 45,
            "name": "A2",
            "ticks": 81216,
            "time": 36.257022,
            "velocity": 0.3937007874015748
          },
          {
            "duration": 0.042856999999997925,
            "durationTicks": 96,
            "midi": 56,
            "name": "G#3",
            "ticks": 81216,
            "time": 36.257022,
            "velocity": 0.3937007874015748
          },
          {
            "duration": 0.04285700000000503,
            "durationTicks": 96,
            "midi": 33,
            "name": "A1",
            "ticks": 81312,
            "time": 36.299879,
            "velocity": 0.3937007874015748
          },
          {
            "duration": 0.042856999999997925,
            "durationTicks": 96,
            "midi": 56,
            "name": "G#3",
            "ticks": 81408,
            "time": 36.342736,
            "velocity": 0.3937007874015748
          },
          {
            "duration": 0.042856999999997925,
            "durationTicks": 96,
            "midi": 32,
            "name": "G#1",
            "ticks": 81504,
            "time": 36.385593,
            "velocity": 0.3937007874015748
          },
          {
            "duration": 0.042856999999997925,
            "durationTicks": 96,
            "midi": 44,
            "name": "G#2",
            "ticks": 81600,
            "time": 36.42845,
            "velocity": 0.3937007874015748
          },
          {
            "duration": 0.042856999999997925,
            "durationTicks": 96,
            "midi": 57,
            "name": "A3",
            "ticks": 81600,
            "time": 36.42845,
            "velocity": 0.3937007874015748
          },
          {
            "duration": 0.04285700000000503,
            "durationTicks": 96,
            "midi": 32,
            "name": "G#1",
            "ticks": 81696,
            "time": 36.471306999999996,
            "velocity": 0.3937007874015748
          },
          {
            "duration": 0.042856999999997925,
            "durationTicks": 96,
            "midi": 57,
            "name": "A3",
            "ticks": 81792,
            "time": 36.514164,
            "velocity": 0.3937007874015748
          },
          {
            "duration": 0.042856999999997925,
            "durationTicks": 96,
            "midi": 32,
            "name": "G#1",
            "ticks": 81888,
            "time": 36.557021,
            "velocity": 0.3937007874015748
          },
          {
            "duration": 0.04285700000000503,
            "durationTicks": 96,
            "midi": 57,
            "name": "A3",
            "ticks": 81984,
            "time": 36.599878,
            "velocity": 0.3937007874015748
          },
          {
            "duration": 0.04285700000000503,
            "durationTicks": 96,
            "midi": 44,
            "name": "G#2",
            "ticks": 81984,
            "time": 36.599878,
            "velocity": 0.3937007874015748
          },
          {
            "duration": 0.042856999999997925,
            "durationTicks": 96,
            "midi": 32,
            "name": "G#1",
            "ticks": 82080,
            "time": 36.642735,
            "velocity": 0.3937007874015748
          },
          {
            "duration": 0.042856999999997925,
            "durationTicks": 96,
            "midi": 57,
            "name": "A3",
            "ticks": 82176,
            "time": 36.685592,
            "velocity": 0.3937007874015748
          },
          {
            "duration": 0.04285700000000503,
            "durationTicks": 96,
            "midi": 32,
            "name": "G#1",
            "ticks": 82272,
            "time": 36.728449,
            "velocity": 0.3937007874015748
          },
          {
            "duration": 0.042856999999997925,
            "durationTicks": 96,
            "midi": 44,
            "name": "G#2",
            "ticks": 82368,
            "time": 36.771306,
            "velocity": 0.3937007874015748
          },
          {
            "duration": 0.042856999999997925,
            "durationTicks": 96,
            "midi": 58,
            "name": "A#3",
            "ticks": 82368,
            "time": 36.771306,
            "velocity": 0.3937007874015748
          },
          {
            "duration": 0.042856999999997925,
            "durationTicks": 96,
            "midi": 32,
            "name": "G#1",
            "ticks": 82464,
            "time": 36.814163,
            "velocity": 0.3937007874015748
          },
          {
            "duration": 0.042856999999997925,
            "durationTicks": 96,
            "midi": 58,
            "name": "A#3",
            "ticks": 82560,
            "time": 36.85702,
            "velocity": 0.3937007874015748
          },
          {
            "duration": 0.04285700000000503,
            "durationTicks": 96,
            "midi": 32,
            "name": "G#1",
            "ticks": 82656,
            "time": 36.899877,
            "velocity": 0.3937007874015748
          },
          {
            "duration": 0.042856999999997925,
            "durationTicks": 96,
            "midi": 44,
            "name": "G#2",
            "ticks": 82752,
            "time": 36.942734,
            "velocity": 0.3937007874015748
          },
          {
            "duration": 0.042856999999997925,
            "durationTicks": 96,
            "midi": 58,
            "name": "A#3",
            "ticks": 82752,
            "time": 36.942734,
            "velocity": 0.3937007874015748
          },
          {
            "duration": 0.042856999999997925,
            "durationTicks": 96,
            "midi": 32,
            "name": "G#1",
            "ticks": 82848,
            "time": 36.985591,
            "velocity": 0.3937007874015748
          },
          {
            "duration": 0.04285700000000503,
            "durationTicks": 96,
            "midi": 58,
            "name": "A#3",
            "ticks": 82944,
            "time": 37.028448,
            "velocity": 0.3937007874015748
          },
          {
            "duration": 0.042856999999997925,
            "durationTicks": 96,
            "midi": 32,
            "name": "G#1",
            "ticks": 83040,
            "time": 37.071305,
            "velocity": 0.3937007874015748
          },
          {
            "duration": 0.042856999999997925,
            "durationTicks": 96,
            "midi": 59,
            "name": "B3",
            "ticks": 83136,
            "time": 37.114162,
            "velocity": 0.3937007874015748
          },
          {
            "duration": 0.042856999999997925,
            "durationTicks": 96,
            "midi": 44,
            "name": "G#2",
            "ticks": 83136,
            "time": 37.114162,
            "velocity": 0.3937007874015748
          },
          {
            "duration": 0.042856999999997925,
            "durationTicks": 96,
            "midi": 32,
            "name": "G#1",
            "ticks": 83232,
            "time": 37.157019,
            "velocity": 0.3937007874015748
          },
          {
            "duration": 0.04285700000000503,
            "durationTicks": 96,
            "midi": 59,
            "name": "B3",
            "ticks": 83328,
            "time": 37.199875999999996,
            "velocity": 0.3937007874015748
          },
          {
            "duration": 0.042856999999997925,
            "durationTicks": 96,
            "midi": 32,
            "name": "G#1",
            "ticks": 83424,
            "time": 37.242733,
            "velocity": 0.3937007874015748
          },
          {
            "duration": 0.042856999999997925,
            "durationTicks": 96,
            "midi": 44,
            "name": "G#2",
            "ticks": 83520,
            "time": 37.28559,
            "velocity": 0.3937007874015748
          },
          {
            "duration": 0.042856999999997925,
            "durationTicks": 96,
            "midi": 59,
            "name": "B3",
            "ticks": 83520,
            "time": 37.28559,
            "velocity": 0.3937007874015748
          },
          {
            "duration": 0.04285700000000503,
            "durationTicks": 96,
            "midi": 32,
            "name": "G#1",
            "ticks": 83616,
            "time": 37.328447,
            "velocity": 0.3937007874015748
          },
          {
            "duration": 0.042856999999997925,
            "durationTicks": 96,
            "midi": 59,
            "name": "B3",
            "ticks": 83712,
            "time": 37.371304,
            "velocity": 0.3937007874015748
          },
          {
            "duration": 0.042856999999997925,
            "durationTicks": 96,
            "midi": 32,
            "name": "G#1",
            "ticks": 83808,
            "time": 37.414161,
            "velocity": 0.3937007874015748
          },
          {
            "duration": 0.042856999999997925,
            "durationTicks": 96,
            "midi": 44,
            "name": "G#2",
            "ticks": 83904,
            "time": 37.457018,
            "velocity": 0.3937007874015748
          },
          {
            "duration": 0.042856999999997925,
            "durationTicks": 96,
            "midi": 60,
            "name": "C4",
            "ticks": 83904,
            "time": 37.457018,
            "velocity": 0.3937007874015748
          },
          {
            "duration": 0.04285700000000503,
            "durationTicks": 96,
            "midi": 32,
            "name": "G#1",
            "ticks": 84000,
            "time": 37.499874999999996,
            "velocity": 0.3937007874015748
          },
          {
            "duration": 0.042856999999997925,
            "durationTicks": 96,
            "midi": 60,
            "name": "C4",
            "ticks": 84096,
            "time": 37.542732,
            "velocity": 0.3937007874015748
          },
          {
            "duration": 0.042856999999997925,
            "durationTicks": 96,
            "midi": 32,
            "name": "G#1",
            "ticks": 84192,
            "time": 37.585589,
            "velocity": 0.3937007874015748
          },
          {
            "duration": 0.04285700000000503,
            "durationTicks": 96,
            "midi": 44,
            "name": "G#2",
            "ticks": 84288,
            "time": 37.628446,
            "velocity": 0.3937007874015748
          },
          {
            "duration": 0.04285700000000503,
            "durationTicks": 96,
            "midi": 60,
            "name": "C4",
            "ticks": 84288,
            "time": 37.628446,
            "velocity": 0.3937007874015748
          },
          {
            "duration": 0.042856999999997925,
            "durationTicks": 96,
            "midi": 32,
            "name": "G#1",
            "ticks": 84384,
            "time": 37.671303,
            "velocity": 0.3937007874015748
          },
          {
            "duration": 0.042856999999997925,
            "durationTicks": 96,
            "midi": 60,
            "name": "C4",
            "ticks": 84480,
            "time": 37.71416,
            "velocity": 0.3937007874015748
          },
          {
            "duration": 0.04285700000000503,
            "durationTicks": 96,
            "midi": 33,
            "name": "A1",
            "ticks": 84576,
            "time": 37.757017,
            "velocity": 0.3937007874015748
          },
          {
            "duration": 0.042856999999997925,
            "durationTicks": 96,
            "midi": 45,
            "name": "A2",
            "ticks": 84672,
            "time": 37.799874,
            "velocity": 0.3937007874015748
          },
          {
            "duration": 0.042856999999997925,
            "durationTicks": 96,
            "midi": 61,
            "name": "C#4",
            "ticks": 84672,
            "time": 37.799874,
            "velocity": 0.3937007874015748
          },
          {
            "duration": 0.042856999999997925,
            "durationTicks": 96,
            "midi": 33,
            "name": "A1",
            "ticks": 84768,
            "time": 37.842731,
            "velocity": 0.3937007874015748
          },
          {
            "duration": 0.042856999999997925,
            "durationTicks": 96,
            "midi": 61,
            "name": "C#4",
            "ticks": 84864,
            "time": 37.885588,
            "velocity": 0.3937007874015748
          },
          {
            "duration": 0.04285700000000503,
            "durationTicks": 96,
            "midi": 33,
            "name": "A1",
            "ticks": 84960,
            "time": 37.928444999999996,
            "velocity": 0.3937007874015748
          },
          {
            "duration": 0.042856999999997925,
            "durationTicks": 96,
            "midi": 61,
            "name": "C#4",
            "ticks": 85056,
            "time": 37.971302,
            "velocity": 0.3937007874015748
          },
          {
            "duration": 0.042856999999997925,
            "durationTicks": 96,
            "midi": 45,
            "name": "A2",
            "ticks": 85056,
            "time": 37.971302,
            "velocity": 0.3937007874015748
          },
          {
            "duration": 0.042856999999997925,
            "durationTicks": 96,
            "midi": 33,
            "name": "A1",
            "ticks": 85152,
            "time": 38.014159,
            "velocity": 0.3937007874015748
          },
          {
            "duration": 0.04285700000000503,
            "durationTicks": 96,
            "midi": 61,
            "name": "C#4",
            "ticks": 85248,
            "time": 38.057016,
            "velocity": 0.3937007874015748
          },
          {
            "duration": 0.042856999999997925,
            "durationTicks": 96,
            "midi": 33,
            "name": "A1",
            "ticks": 85344,
            "time": 38.099873,
            "velocity": 0.3937007874015748
          },
          {
            "duration": 0.042856999999997925,
            "durationTicks": 96,
            "midi": 45,
            "name": "A2",
            "ticks": 85440,
            "time": 38.14273,
            "velocity": 0.3937007874015748
          },
          {
            "duration": 0.042856999999997925,
            "durationTicks": 96,
            "midi": 62,
            "name": "D4",
            "ticks": 85440,
            "time": 38.14273,
            "velocity": 0.3937007874015748
          },
          {
            "duration": 0.042856999999997925,
            "durationTicks": 96,
            "midi": 33,
            "name": "A1",
            "ticks": 85536,
            "time": 38.185587,
            "velocity": 0.3937007874015748
          },
          {
            "duration": 0.04285700000000503,
            "durationTicks": 96,
            "midi": 62,
            "name": "D4",
            "ticks": 85632,
            "time": 38.228443999999996,
            "velocity": 0.3937007874015748
          },
          {
            "duration": 0.042856999999997925,
            "durationTicks": 96,
            "midi": 33,
            "name": "A1",
            "ticks": 85728,
            "time": 38.271301,
            "velocity": 0.3937007874015748
          },
          {
            "duration": 0.042856999999997925,
            "durationTicks": 96,
            "midi": 45,
            "name": "A2",
            "ticks": 85824,
            "time": 38.314158,
            "velocity": 0.3937007874015748
          },
          {
            "duration": 0.042856999999997925,
            "durationTicks": 96,
            "midi": 62,
            "name": "D4",
            "ticks": 85824,
            "time": 38.314158,
            "velocity": 0.3937007874015748
          },
          {
            "duration": 0.04285700000000503,
            "durationTicks": 96,
            "midi": 33,
            "name": "A1",
            "ticks": 85920,
            "time": 38.357015,
            "velocity": 0.3937007874015748
          },
          {
            "duration": 0.042856999999997925,
            "durationTicks": 96,
            "midi": 62,
            "name": "D4",
            "ticks": 86016,
            "time": 38.399872,
            "velocity": 0.3937007874015748
          },
          {
            "duration": 0.042856999999997925,
            "durationTicks": 96,
            "midi": 33,
            "name": "A1",
            "ticks": 86112,
            "time": 38.442729,
            "velocity": 0.3937007874015748
          },
          {
            "duration": 0.04285700000000503,
            "durationTicks": 96,
            "midi": 45,
            "name": "A2",
            "ticks": 86208,
            "time": 38.485586,
            "velocity": 0.3937007874015748
          },
          {
            "duration": 0.04285700000000503,
            "durationTicks": 96,
            "midi": 63,
            "name": "D#4",
            "ticks": 86208,
            "time": 38.485586,
            "velocity": 0.3937007874015748
          },
          {
            "duration": 0.042856999999997925,
            "durationTicks": 96,
            "midi": 33,
            "name": "A1",
            "ticks": 86304,
            "time": 38.528443,
            "velocity": 0.3937007874015748
          },
          {
            "duration": 0.042856999999997925,
            "durationTicks": 96,
            "midi": 63,
            "name": "D#4",
            "ticks": 86400,
            "time": 38.5713,
            "velocity": 0.3937007874015748
          },
          {
            "duration": 0.042856999999997925,
            "durationTicks": 96,
            "midi": 33,
            "name": "A1",
            "ticks": 86496,
            "time": 38.614157,
            "velocity": 0.3937007874015748
          },
          {
            "duration": 0.04285700000000503,
            "durationTicks": 96,
            "midi": 45,
            "name": "A2",
            "ticks": 86592,
            "time": 38.657014,
            "velocity": 0.3937007874015748
          },
          {
            "duration": 0.04285700000000503,
            "durationTicks": 96,
            "midi": 63,
            "name": "D#4",
            "ticks": 86592,
            "time": 38.657014,
            "velocity": 0.3937007874015748
          },
          {
            "duration": 0.042856999999997925,
            "durationTicks": 96,
            "midi": 33,
            "name": "A1",
            "ticks": 86688,
            "time": 38.699871,
            "velocity": 0.3937007874015748
          },
          {
            "duration": 0.042856999999997925,
            "durationTicks": 96,
            "midi": 63,
            "name": "D#4",
            "ticks": 86784,
            "time": 38.742728,
            "velocity": 0.3937007874015748
          },
          {
            "duration": 0.04285700000000503,
            "durationTicks": 96,
            "midi": 33,
            "name": "A1",
            "ticks": 86880,
            "time": 38.785585,
            "velocity": 0.3937007874015748
          },
          {
            "duration": 0.042856999999997925,
            "durationTicks": 96,
            "midi": 45,
            "name": "A2",
            "ticks": 86976,
            "time": 38.828442,
            "velocity": 0.3937007874015748
          },
          {
            "duration": 0.042856999999997925,
            "durationTicks": 96,
            "midi": 64,
            "name": "E4",
            "ticks": 86976,
            "time": 38.828442,
            "velocity": 0.3937007874015748
          },
          {
            "duration": 0.042856999999997925,
            "durationTicks": 96,
            "midi": 33,
            "name": "A1",
            "ticks": 87072,
            "time": 38.871299,
            "velocity": 0.3937007874015748
          },
          {
            "duration": 0.042856999999997925,
            "durationTicks": 96,
            "midi": 64,
            "name": "E4",
            "ticks": 87168,
            "time": 38.914156,
            "velocity": 0.3937007874015748
          },
          {
            "duration": 0.04285700000000503,
            "durationTicks": 96,
            "midi": 33,
            "name": "A1",
            "ticks": 87264,
            "time": 38.957012999999996,
            "velocity": 0.3937007874015748
          },
          {
            "duration": 0.042856999999997925,
            "durationTicks": 96,
            "midi": 45,
            "name": "A2",
            "ticks": 87360,
            "time": 38.99987,
            "velocity": 0.3937007874015748
          },
          {
            "duration": 0.042856999999997925,
            "durationTicks": 96,
            "midi": 64,
            "name": "E4",
            "ticks": 87360,
            "time": 38.99987,
            "velocity": 0.3937007874015748
          },
          {
            "duration": 0.042856999999997925,
            "durationTicks": 96,
            "midi": 33,
            "name": "A1",
            "ticks": 87456,
            "time": 39.042727,
            "velocity": 0.3937007874015748
          },
          {
            "duration": 0.04285700000000503,
            "durationTicks": 96,
            "midi": 64,
            "name": "E4",
            "ticks": 87552,
            "time": 39.085584,
            "velocity": 0.3937007874015748
          },
          {
            "duration": 0.042856999999997925,
            "durationTicks": 96,
            "midi": 38,
            "name": "D2",
            "ticks": 87648,
            "time": 39.128441,
            "velocity": 0.3937007874015748
          },
          {
            "duration": 0.042856999999997925,
            "durationTicks": 96,
            "midi": 65,
            "name": "F4",
            "ticks": 87744,
            "time": 39.171298,
            "velocity": 0.3937007874015748
          },
          {
            "duration": 0.042856999999997925,
            "durationTicks": 96,
            "midi": 50,
            "name": "D3",
            "ticks": 87744,
            "time": 39.171298,
            "velocity": 0.3937007874015748
          },
          {
            "duration": 0.042856999999997925,
            "durationTicks": 96,
            "midi": 38,
            "name": "D2",
            "ticks": 87840,
            "time": 39.214155,
            "velocity": 0.3937007874015748
          },
          {
            "duration": 0.04285700000000503,
            "durationTicks": 96,
            "midi": 65,
            "name": "F4",
            "ticks": 87936,
            "time": 39.257011999999996,
            "velocity": 0.3937007874015748
          },
          {
            "duration": 0.042856999999997925,
            "durationTicks": 96,
            "midi": 38,
            "name": "D2",
            "ticks": 88032,
            "time": 39.299869,
            "velocity": 0.3937007874015748
          },
          {
            "duration": 0.042856999999997925,
            "durationTicks": 96,
            "midi": 50,
            "name": "D3",
            "ticks": 88128,
            "time": 39.342726,
            "velocity": 0.3937007874015748
          },
          {
            "duration": 0.042856999999997925,
            "durationTicks": 96,
            "midi": 65,
            "name": "F4",
            "ticks": 88128,
            "time": 39.342726,
            "velocity": 0.3937007874015748
          },
          {
            "duration": 0.04285700000000503,
            "durationTicks": 96,
            "midi": 38,
            "name": "D2",
            "ticks": 88224,
            "time": 39.385583,
            "velocity": 0.3937007874015748
          },
          {
            "duration": 0.042856999999997925,
            "durationTicks": 96,
            "midi": 65,
            "name": "F4",
            "ticks": 88320,
            "time": 39.42844,
            "velocity": 0.3937007874015748
          },
          {
            "duration": 0.042856999999997925,
            "durationTicks": 96,
            "midi": 38,
            "name": "D2",
            "ticks": 88416,
            "time": 39.471297,
            "velocity": 0.3937007874015748
          },
          {
            "duration": 0.04285700000000503,
            "durationTicks": 96,
            "midi": 50,
            "name": "D3",
            "ticks": 88512,
            "time": 39.514154,
            "velocity": 0.3937007874015748
          },
          {
            "duration": 0.04285700000000503,
            "durationTicks": 96,
            "midi": 66,
            "name": "F#4",
            "ticks": 88512,
            "time": 39.514154,
            "velocity": 0.3937007874015748
          },
          {
            "duration": 0.042856999999997925,
            "durationTicks": 96,
            "midi": 38,
            "name": "D2",
            "ticks": 88608,
            "time": 39.557011,
            "velocity": 0.3937007874015748
          },
          {
            "duration": 0.042856999999997925,
            "durationTicks": 96,
            "midi": 66,
            "name": "F#4",
            "ticks": 88704,
            "time": 39.599868,
            "velocity": 0.3937007874015748
          },
          {
            "duration": 0.042856999999997925,
            "durationTicks": 96,
            "midi": 38,
            "name": "D2",
            "ticks": 88800,
            "time": 39.642725,
            "velocity": 0.3937007874015748
          },
          {
            "duration": 0.04285700000000503,
            "durationTicks": 96,
            "midi": 50,
            "name": "D3",
            "ticks": 88896,
            "time": 39.685582,
            "velocity": 0.3937007874015748
          },
          {
            "duration": 0.04285700000000503,
            "durationTicks": 96,
            "midi": 66,
            "name": "F#4",
            "ticks": 88896,
            "time": 39.685582,
            "velocity": 0.3937007874015748
          },
          {
            "duration": 0.042856999999997925,
            "durationTicks": 96,
            "midi": 38,
            "name": "D2",
            "ticks": 88992,
            "time": 39.728439,
            "velocity": 0.3937007874015748
          },
          {
            "duration": 0.042856999999997925,
            "durationTicks": 96,
            "midi": 66,
            "name": "F#4",
            "ticks": 89088,
            "time": 39.771296,
            "velocity": 0.3937007874015748
          },
          {
            "duration": 0.04285700000000503,
            "durationTicks": 96,
            "midi": 38,
            "name": "D2",
            "ticks": 89184,
            "time": 39.814153,
            "velocity": 0.3937007874015748
          },
          {
            "duration": 0.042856999999997925,
            "durationTicks": 96,
            "midi": 67,
            "name": "G4",
            "ticks": 89280,
            "time": 39.85701,
            "velocity": 0.3937007874015748
          },
          {
            "duration": 0.042856999999997925,
            "durationTicks": 96,
            "midi": 50,
            "name": "D3",
            "ticks": 89280,
            "time": 39.85701,
            "velocity": 0.3937007874015748
          },
          {
            "duration": 0.042856999999997925,
            "durationTicks": 96,
            "midi": 38,
            "name": "D2",
            "ticks": 89376,
            "time": 39.899867,
            "velocity": 0.3937007874015748
          },
          {
            "duration": 0.042856999999997925,
            "durationTicks": 96,
            "midi": 67,
            "name": "G4",
            "ticks": 89472,
            "time": 39.942724,
            "velocity": 0.3937007874015748
          },
          {
            "duration": 0.04285700000000503,
            "durationTicks": 96,
            "midi": 38,
            "name": "D2",
            "ticks": 89568,
            "time": 39.985580999999996,
            "velocity": 0.3937007874015748
          },
          {
            "duration": 0.042856999999997925,
            "durationTicks": 96,
            "midi": 67,
            "name": "G4",
            "ticks": 89664,
            "time": 40.028438,
            "velocity": 0.3937007874015748
          },
          {
            "duration": 0.042856999999997925,
            "durationTicks": 96,
            "midi": 50,
            "name": "D3",
            "ticks": 89664,
            "time": 40.028438,
            "velocity": 0.3937007874015748
          },
          {
            "duration": 0.042856999999997925,
            "durationTicks": 96,
            "midi": 38,
            "name": "D2",
            "ticks": 89760,
            "time": 40.071295,
            "velocity": 0.3937007874015748
          },
          {
            "duration": 0.04285700000000503,
            "durationTicks": 96,
            "midi": 67,
            "name": "G4",
            "ticks": 89856,
            "time": 40.114152,
            "velocity": 0.3937007874015748
          },
          {
            "duration": 0.042856999999997925,
            "durationTicks": 96,
            "midi": 38,
            "name": "D2",
            "ticks": 89952,
            "time": 40.157009,
            "velocity": 0.3937007874015748
          },
          {
            "duration": 0.042856999999997925,
            "durationTicks": 96,
            "midi": 68,
            "name": "G#4",
            "ticks": 90048,
            "time": 40.199866,
            "velocity": 0.3937007874015748
          },
          {
            "duration": 0.042856999999997925,
            "durationTicks": 96,
            "midi": 50,
            "name": "D3",
            "ticks": 90048,
            "time": 40.199866,
            "velocity": 0.3937007874015748
          },
          {
            "duration": 0.042856999999997925,
            "durationTicks": 96,
            "midi": 38,
            "name": "D2",
            "ticks": 90144,
            "time": 40.242723,
            "velocity": 0.3937007874015748
          },
          {
            "duration": 0.04285700000000503,
            "durationTicks": 96,
            "midi": 68,
            "name": "G#4",
            "ticks": 90240,
            "time": 40.285579999999996,
            "velocity": 0.3937007874015748
          },
          {
            "duration": 0.042856999999997925,
            "durationTicks": 96,
            "midi": 38,
            "name": "D2",
            "ticks": 90336,
            "time": 40.328437,
            "velocity": 0.3937007874015748
          },
          {
            "duration": 0.042856999999997925,
            "durationTicks": 96,
            "midi": 68,
            "name": "G#4",
            "ticks": 90432,
            "time": 40.371294,
            "velocity": 0.3937007874015748
          },
          {
            "duration": 0.042856999999997925,
            "durationTicks": 96,
            "midi": 50,
            "name": "D3",
            "ticks": 90432,
            "time": 40.371294,
            "velocity": 0.3937007874015748
          },
          {
            "duration": 0.04285700000000503,
            "durationTicks": 96,
            "midi": 38,
            "name": "D2",
            "ticks": 90528,
            "time": 40.414151,
            "velocity": 0.3937007874015748
          },
          {
            "duration": 0.042856999999997925,
            "durationTicks": 96,
            "midi": 68,
            "name": "G#4",
            "ticks": 90624,
            "time": 40.457008,
            "velocity": 0.3937007874015748
          },
          {
            "duration": 0.042856999999997925,
            "durationTicks": 96,
            "midi": 29,
            "name": "F1",
            "ticks": 90720,
            "time": 40.499865,
            "velocity": 0.3937007874015748
          },
          {
            "duration": 0.04285700000000503,
            "durationTicks": 96,
            "midi": 41,
            "name": "F2",
            "ticks": 90816,
            "time": 40.542722,
            "velocity": 0.3937007874015748
          },
          {
            "duration": 0.04285700000000503,
            "durationTicks": 96,
            "midi": 69,
            "name": "A4",
            "ticks": 90816,
            "time": 40.542722,
            "velocity": 0.3937007874015748
          },
          {
            "duration": 0.042856999999997925,
            "durationTicks": 96,
            "midi": 29,
            "name": "F1",
            "ticks": 90912,
            "time": 40.585579,
            "velocity": 0.3937007874015748
          },
          {
            "duration": 0.042856999999997925,
            "durationTicks": 96,
            "midi": 69,
            "name": "A4",
            "ticks": 91008,
            "time": 40.628436,
            "velocity": 0.3937007874015748
          },
          {
            "duration": 0.042856999999997925,
            "durationTicks": 96,
            "midi": 29,
            "name": "F1",
            "ticks": 91104,
            "time": 40.671293,
            "velocity": 0.3937007874015748
          },
          {
            "duration": 0.04285700000000503,
            "durationTicks": 96,
            "midi": 41,
            "name": "F2",
            "ticks": 91200,
            "time": 40.71415,
            "velocity": 0.3937007874015748
          },
          {
            "duration": 0.04285700000000503,
            "durationTicks": 96,
            "midi": 69,
            "name": "A4",
            "ticks": 91200,
            "time": 40.71415,
            "velocity": 0.3937007874015748
          },
          {
            "duration": 0.042856999999997925,
            "durationTicks": 96,
            "midi": 29,
            "name": "F1",
            "ticks": 91296,
            "time": 40.757007,
            "velocity": 0.3937007874015748
          },
          {
            "duration": 0.042856999999997925,
            "durationTicks": 96,
            "midi": 69,
            "name": "A4",
            "ticks": 91392,
            "time": 40.799864,
            "velocity": 0.3937007874015748
          },
          {
            "duration": 0.04285700000000503,
            "durationTicks": 96,
            "midi": 29,
            "name": "F1",
            "ticks": 91488,
            "time": 40.842721,
            "velocity": 0.3937007874015748
          },
          {
            "duration": 0.042856999999997925,
            "durationTicks": 96,
            "midi": 70,
            "name": "A#4",
            "ticks": 91584,
            "time": 40.885578,
            "velocity": 0.3937007874015748
          },
          {
            "duration": 0.042856999999997925,
            "durationTicks": 96,
            "midi": 41,
            "name": "F2",
            "ticks": 91584,
            "time": 40.885578,
            "velocity": 0.3937007874015748
          },
          {
            "duration": 0.042856999999997925,
            "durationTicks": 96,
            "midi": 29,
            "name": "F1",
            "ticks": 91680,
            "time": 40.928435,
            "velocity": 0.3937007874015748
          },
          {
            "duration": 0.042856999999997925,
            "durationTicks": 96,
            "midi": 70,
            "name": "A#4",
            "ticks": 91776,
            "time": 40.971292,
            "velocity": 0.3937007874015748
          },
          {
            "duration": 0.04285700000000503,
            "durationTicks": 96,
            "midi": 29,
            "name": "F1",
            "ticks": 91872,
            "time": 41.014148999999996,
            "velocity": 0.3937007874015748
          },
          {
            "duration": 0.042856999999997925,
            "durationTicks": 96,
            "midi": 41,
            "name": "F2",
            "ticks": 91968,
            "time": 41.057006,
            "velocity": 0.3937007874015748
          },
          {
            "duration": 0.042856999999997925,
            "durationTicks": 96,
            "midi": 70,
            "name": "A#4",
            "ticks": 91968,
            "time": 41.057006,
            "velocity": 0.3937007874015748
          },
          {
            "duration": 0.042856999999997925,
            "durationTicks": 96,
            "midi": 29,
            "name": "F1",
            "ticks": 92064,
            "time": 41.099863,
            "velocity": 0.3937007874015748
          },
          {
            "duration": 0.04285700000000503,
            "durationTicks": 96,
            "midi": 70,
            "name": "A#4",
            "ticks": 92160,
            "time": 41.14272,
            "velocity": 0.3937007874015748
          },
          {
            "duration": 0.042856999999997925,
            "durationTicks": 96,
            "midi": 29,
            "name": "F1",
            "ticks": 92256,
            "time": 41.185577,
            "velocity": 0.3937007874015748
          },
          {
            "duration": 0.042856999999997925,
            "durationTicks": 96,
            "midi": 71,
            "name": "B4",
            "ticks": 92352,
            "time": 41.228434,
            "velocity": 0.3937007874015748
          },
          {
            "duration": 0.042856999999997925,
            "durationTicks": 96,
            "midi": 41,
            "name": "F2",
            "ticks": 92352,
            "time": 41.228434,
            "velocity": 0.3937007874015748
          },
          {
            "duration": 0.042856999999997925,
            "durationTicks": 96,
            "midi": 29,
            "name": "F1",
            "ticks": 92448,
            "time": 41.271291,
            "velocity": 0.3937007874015748
          },
          {
            "duration": 0.04285700000000503,
            "durationTicks": 96,
            "midi": 71,
            "name": "B4",
            "ticks": 92544,
            "time": 41.314147999999996,
            "velocity": 0.3937007874015748
          },
          {
            "duration": 0.042856999999997925,
            "durationTicks": 96,
            "midi": 29,
            "name": "F1",
            "ticks": 92640,
            "time": 41.357005,
            "velocity": 0.3937007874015748
          },
          {
            "duration": 0.042856999999997925,
            "durationTicks": 96,
            "midi": 71,
            "name": "B4",
            "ticks": 92736,
            "time": 41.399862,
            "velocity": 0.3937007874015748
          },
          {
            "duration": 0.042856999999997925,
            "durationTicks": 96,
            "midi": 41,
            "name": "F2",
            "ticks": 92736,
            "time": 41.399862,
            "velocity": 0.3937007874015748
          },
          {
            "duration": 0.04285700000000503,
            "durationTicks": 96,
            "midi": 29,
            "name": "F1",
            "ticks": 92832,
            "time": 41.442719,
            "velocity": 0.3937007874015748
          },
          {
            "duration": 0.042856999999997925,
            "durationTicks": 96,
            "midi": 71,
            "name": "B4",
            "ticks": 92928,
            "time": 41.485576,
            "velocity": 0.3937007874015748
          },
          {
            "duration": 0.042856999999997925,
            "durationTicks": 96,
            "midi": 29,
            "name": "F1",
            "ticks": 93024,
            "time": 41.528433,
            "velocity": 0.3937007874015748
          },
          {
            "duration": 0.04285700000000503,
            "durationTicks": 96,
            "midi": 72,
            "name": "C5",
            "ticks": 93120,
            "time": 41.57129,
            "velocity": 0.3937007874015748
          },
          {
            "duration": 0.04285700000000503,
            "durationTicks": 96,
            "midi": 41,
            "name": "F2",
            "ticks": 93120,
            "time": 41.57129,
            "velocity": 0.3937007874015748
          },
          {
            "duration": 0.042856999999997925,
            "durationTicks": 96,
            "midi": 29,
            "name": "F1",
            "ticks": 93216,
            "time": 41.614147,
            "velocity": 0.3937007874015748
          },
          {
            "duration": 0.042856999999997925,
            "durationTicks": 96,
            "midi": 72,
            "name": "C5",
            "ticks": 93312,
            "time": 41.657004,
            "velocity": 0.3937007874015748
          },
          {
            "duration": 0.042856999999997925,
            "durationTicks": 96,
            "midi": 29,
            "name": "F1",
            "ticks": 93408,
            "time": 41.699861,
            "velocity": 0.3937007874015748
          },
          {
            "duration": 0.04285700000000503,
            "durationTicks": 96,
            "midi": 41,
            "name": "F2",
            "ticks": 93504,
            "time": 41.742717999999996,
            "velocity": 0.3937007874015748
          },
          {
            "duration": 0.04285700000000503,
            "durationTicks": 96,
            "midi": 72,
            "name": "C5",
            "ticks": 93504,
            "time": 41.742717999999996,
            "velocity": 0.3937007874015748
          },
          {
            "duration": 0.042856999999997925,
            "durationTicks": 96,
            "midi": 29,
            "name": "F1",
            "ticks": 93600,
            "time": 41.785575,
            "velocity": 0.3937007874015748
          },
          {
            "duration": 0.042856999999997925,
            "durationTicks": 96,
            "midi": 72,
            "name": "C5",
            "ticks": 93696,
            "time": 41.828432,
            "velocity": 0.3937007874015748
          },
          {
            "duration": 0.04285700000000503,
            "durationTicks": 96,
            "midi": 33,
            "name": "A1",
            "ticks": 93792,
            "time": 41.871289,
            "velocity": 0.3937007874015748
          },
          {
            "duration": 0.042856999999997925,
            "durationTicks": 96,
            "midi": 73,
            "name": "C#5",
            "ticks": 93888,
            "time": 41.914146,
            "velocity": 0.3937007874015748
          },
          {
            "duration": 0.042856999999997925,
            "durationTicks": 96,
            "midi": 45,
            "name": "A2",
            "ticks": 93888,
            "time": 41.914146,
            "velocity": 0.3937007874015748
          },
          {
            "duration": 0.042856999999997925,
            "durationTicks": 96,
            "midi": 33,
            "name": "A1",
            "ticks": 93984,
            "time": 41.957003,
            "velocity": 0.3937007874015748
          },
          {
            "duration": 0.042856999999997925,
            "durationTicks": 96,
            "midi": 73,
            "name": "C#5",
            "ticks": 94080,
            "time": 41.99986,
            "velocity": 0.3937007874015748
          },
          {
            "duration": 0.04285700000000503,
            "durationTicks": 96,
            "midi": 33,
            "name": "A1",
            "ticks": 94176,
            "time": 42.042716999999996,
            "velocity": 0.3937007874015748
          },
          {
            "duration": 0.042856999999997925,
            "durationTicks": 96,
            "midi": 45,
            "name": "A2",
            "ticks": 94272,
            "time": 42.085574,
            "velocity": 0.3937007874015748
          },
          {
            "duration": 0.042856999999997925,
            "durationTicks": 96,
            "midi": 73,
            "name": "C#5",
            "ticks": 94272,
            "time": 42.085574,
            "velocity": 0.3937007874015748
          },
          {
            "duration": 0.042856999999997925,
            "durationTicks": 96,
            "midi": 33,
            "name": "A1",
            "ticks": 94368,
            "time": 42.128431,
            "velocity": 0.3937007874015748
          },
          {
            "duration": 0.04285700000000503,
            "durationTicks": 96,
            "midi": 73,
            "name": "C#5",
            "ticks": 94464,
            "time": 42.171288,
            "velocity": 0.3937007874015748
          },
          {
            "duration": 0.042856999999997925,
            "durationTicks": 96,
            "midi": 33,
            "name": "A1",
            "ticks": 94560,
            "time": 42.214145,
            "velocity": 0.3937007874015748
          },
          {
            "duration": 0.042856999999997925,
            "durationTicks": 96,
            "midi": 45,
            "name": "A2",
            "ticks": 94656,
            "time": 42.257002,
            "velocity": 0.3937007874015748
          },
          {
            "duration": 0.042856999999997925,
            "durationTicks": 96,
            "midi": 74,
            "name": "D5",
            "ticks": 94656,
            "time": 42.257002,
            "velocity": 0.3937007874015748
          },
          {
            "duration": 0.042856999999997925,
            "durationTicks": 96,
            "midi": 33,
            "name": "A1",
            "ticks": 94752,
            "time": 42.299859,
            "velocity": 0.3937007874015748
          },
          {
            "duration": 0.04285700000000503,
            "durationTicks": 96,
            "midi": 74,
            "name": "D5",
            "ticks": 94848,
            "time": 42.342715999999996,
            "velocity": 0.3937007874015748
          },
          {
            "duration": 0.042856999999997925,
            "durationTicks": 96,
            "midi": 33,
            "name": "A1",
            "ticks": 94944,
            "time": 42.385573,
            "velocity": 0.3937007874015748
          },
          {
            "duration": 0.042856999999997925,
            "durationTicks": 96,
            "midi": 74,
            "name": "D5",
            "ticks": 95040,
            "time": 42.42843,
            "velocity": 0.3937007874015748
          },
          {
            "duration": 0.042856999999997925,
            "durationTicks": 96,
            "midi": 45,
            "name": "A2",
            "ticks": 95040,
            "time": 42.42843,
            "velocity": 0.3937007874015748
          },
          {
            "duration": 0.04285700000000503,
            "durationTicks": 96,
            "midi": 33,
            "name": "A1",
            "ticks": 95136,
            "time": 42.471287,
            "velocity": 0.3937007874015748
          },
          {
            "duration": 0.042856999999997925,
            "durationTicks": 96,
            "midi": 74,
            "name": "D5",
            "ticks": 95232,
            "time": 42.514144,
            "velocity": 0.3937007874015748
          },
          {
            "duration": 0.042856999999997925,
            "durationTicks": 96,
            "midi": 33,
            "name": "A1",
            "ticks": 95328,
            "time": 42.557001,
            "velocity": 0.3937007874015748
          },
          {
            "duration": 0.04285700000000503,
            "durationTicks": 96,
            "midi": 45,
            "name": "A2",
            "ticks": 95424,
            "time": 42.599858,
            "velocity": 0.3937007874015748
          },
          {
            "duration": 0.04285700000000503,
            "durationTicks": 96,
            "midi": 75,
            "name": "D#5",
            "ticks": 95424,
            "time": 42.599858,
            "velocity": 0.3937007874015748
          },
          {
            "duration": 0.042856999999997925,
            "durationTicks": 96,
            "midi": 33,
            "name": "A1",
            "ticks": 95520,
            "time": 42.642715,
            "velocity": 0.3937007874015748
          },
          {
            "duration": 0.042856999999997925,
            "durationTicks": 96,
            "midi": 75,
            "name": "D#5",
            "ticks": 95616,
            "time": 42.685572,
            "velocity": 0.3937007874015748
          },
          {
            "duration": 0.042856999999997925,
            "durationTicks": 96,
            "midi": 33,
            "name": "A1",
            "ticks": 95712,
            "time": 42.728429,
            "velocity": 0.3937007874015748
          },
          {
            "duration": 0.04285700000000503,
            "durationTicks": 96,
            "midi": 75,
            "name": "D#5",
            "ticks": 95808,
            "time": 42.771285999999996,
            "velocity": 0.3937007874015748
          },
          {
            "duration": 0.04285700000000503,
            "durationTicks": 96,
            "midi": 45,
            "name": "A2",
            "ticks": 95808,
            "time": 42.771285999999996,
            "velocity": 0.3937007874015748
          },
          {
            "duration": 0.042856999999997925,
            "durationTicks": 96,
            "midi": 33,
            "name": "A1",
            "ticks": 95904,
            "time": 42.814143,
            "velocity": 0.3937007874015748
          },
          {
            "duration": 0.042856999999997925,
            "durationTicks": 96,
            "midi": 75,
            "name": "D#5",
            "ticks": 96000,
            "time": 42.857,
            "velocity": 0.3937007874015748
          },
          {
            "duration": 0.04285700000000503,
            "durationTicks": 96,
            "midi": 33,
            "name": "A1",
            "ticks": 96096,
            "time": 42.899857,
            "velocity": 0.3937007874015748
          },
          {
            "duration": 0.042856999999997925,
            "durationTicks": 96,
            "midi": 45,
            "name": "A2",
            "ticks": 96192,
            "time": 42.942714,
            "velocity": 0.3937007874015748
          },
          {
            "duration": 0.042856999999997925,
            "durationTicks": 96,
            "midi": 76,
            "name": "E5",
            "ticks": 96192,
            "time": 42.942714,
            "velocity": 0.3937007874015748
          },
          {
            "duration": 0.042856999999997925,
            "durationTicks": 96,
            "midi": 33,
            "name": "A1",
            "ticks": 96288,
            "time": 42.985571,
            "velocity": 0.3937007874015748
          },
          {
            "duration": 0.042856999999997925,
            "durationTicks": 96,
            "midi": 76,
            "name": "E5",
            "ticks": 96384,
            "time": 43.028428,
            "velocity": 0.3937007874015748
          },
          {
            "duration": 0.04285700000000503,
            "durationTicks": 96,
            "midi": 33,
            "name": "A1",
            "ticks": 96480,
            "time": 43.071284999999996,
            "velocity": 0.3937007874015748
          },
          {
            "duration": 0.042856999999997925,
            "durationTicks": 96,
            "midi": 45,
            "name": "A2",
            "ticks": 96576,
            "time": 43.114142,
            "velocity": 0.3937007874015748
          },
          {
            "duration": 0.042856999999997925,
            "durationTicks": 96,
            "midi": 76,
            "name": "E5",
            "ticks": 96576,
            "time": 43.114142,
            "velocity": 0.3937007874015748
          },
          {
            "duration": 0.042856999999997925,
            "durationTicks": 96,
            "midi": 33,
            "name": "A1",
            "ticks": 96672,
            "time": 43.156999,
            "velocity": 0.3937007874015748
          },
          {
            "duration": 0.04285700000000503,
            "durationTicks": 96,
            "midi": 76,
            "name": "E5",
            "ticks": 96768,
            "time": 43.199856,
            "velocity": 0.3937007874015748
          },
          {
            "duration": 0.042856999999997925,
            "durationTicks": 96,
            "midi": 36,
            "name": "C2",
            "ticks": 96864,
            "time": 43.242713,
            "velocity": 0.3937007874015748
          },
          {
            "duration": 0.042856999999997925,
            "durationTicks": 96,
            "midi": 77,
            "name": "F5",
            "ticks": 96960,
            "time": 43.28557,
            "velocity": 0.3937007874015748
          },
          {
            "duration": 0.042856999999997925,
            "durationTicks": 96,
            "midi": 48,
            "name": "C3",
            "ticks": 96960,
            "time": 43.28557,
            "velocity": 0.3937007874015748
          },
          {
            "duration": 0.042856999999997925,
            "durationTicks": 96,
            "midi": 36,
            "name": "C2",
            "ticks": 97056,
            "time": 43.328427,
            "velocity": 0.3937007874015748
          },
          {
            "duration": 0.04285700000000503,
            "durationTicks": 96,
            "midi": 77,
            "name": "F5",
            "ticks": 97152,
            "time": 43.371283999999996,
            "velocity": 0.3937007874015748
          },
          {
            "duration": 0.042856999999997925,
            "durationTicks": 96,
            "midi": 36,
            "name": "C2",
            "ticks": 97248,
            "time": 43.414141,
            "velocity": 0.3937007874015748
          },
          {
            "duration": 0.042856999999997925,
            "durationTicks": 96,
            "midi": 77,
            "name": "F5",
            "ticks": 97344,
            "time": 43.456998,
            "velocity": 0.3937007874015748
          },
          {
            "duration": 0.042856999999997925,
            "durationTicks": 96,
            "midi": 48,
            "name": "C3",
            "ticks": 97344,
            "time": 43.456998,
            "velocity": 0.3937007874015748
          },
          {
            "duration": 0.04285700000000503,
            "durationTicks": 96,
            "midi": 36,
            "name": "C2",
            "ticks": 97440,
            "time": 43.499855,
            "velocity": 0.3937007874015748
          },
          {
            "duration": 0.042856999999997925,
            "durationTicks": 96,
            "midi": 77,
            "name": "F5",
            "ticks": 97536,
            "time": 43.542712,
            "velocity": 0.3937007874015748
          },
          {
            "duration": 0.042856999999997925,
            "durationTicks": 96,
            "midi": 36,
            "name": "C2",
            "ticks": 97632,
            "time": 43.585569,
            "velocity": 0.3937007874015748
          },
          {
            "duration": 0.04285700000000503,
            "durationTicks": 96,
            "midi": 48,
            "name": "C3",
            "ticks": 97728,
            "time": 43.628426,
            "velocity": 0.3937007874015748
          },
          {
            "duration": 0.04285700000000503,
            "durationTicks": 96,
            "midi": 78,
            "name": "F#5",
            "ticks": 97728,
            "time": 43.628426,
            "velocity": 0.3937007874015748
          },
          {
            "duration": 0.042856999999997925,
            "durationTicks": 96,
            "midi": 36,
            "name": "C2",
            "ticks": 97824,
            "time": 43.671283,
            "velocity": 0.3937007874015748
          },
          {
            "duration": 0.042856999999997925,
            "durationTicks": 96,
            "midi": 78,
            "name": "F#5",
            "ticks": 97920,
            "time": 43.71414,
            "velocity": 0.3937007874015748
          },
          {
            "duration": 0.042856999999997925,
            "durationTicks": 96,
            "midi": 36,
            "name": "C2",
            "ticks": 98016,
            "time": 43.756997,
            "velocity": 0.3937007874015748
          },
          {
            "duration": 0.04285700000000503,
            "durationTicks": 96,
            "midi": 78,
            "name": "F#5",
            "ticks": 98112,
            "time": 43.799853999999996,
            "velocity": 0.3937007874015748
          },
          {
            "duration": 0.04285700000000503,
            "durationTicks": 96,
            "midi": 48,
            "name": "C3",
            "ticks": 98112,
            "time": 43.799853999999996,
            "velocity": 0.3937007874015748
          },
          {
            "duration": 0.042856999999997925,
            "durationTicks": 96,
            "midi": 36,
            "name": "C2",
            "ticks": 98208,
            "time": 43.842711,
            "velocity": 0.3937007874015748
          },
          {
            "duration": 0.042856999999997925,
            "durationTicks": 96,
            "midi": 78,
            "name": "F#5",
            "ticks": 98304,
            "time": 43.885568,
            "velocity": 0.3937007874015748
          },
          {
            "duration": 0.04285700000000503,
            "durationTicks": 96,
            "midi": 35,
            "name": "B1",
            "ticks": 98400,
            "time": 43.928425,
            "velocity": 0.3937007874015748
          },
          {
            "duration": 0.042856999999997925,
            "durationTicks": 96,
            "midi": 79,
            "name": "G5",
            "ticks": 98496,
            "time": 43.971282,
            "velocity": 0.3937007874015748
          },
          {
            "duration": 0.042856999999997925,
            "durationTicks": 96,
            "midi": 47,
            "name": "B2",
            "ticks": 98496,
            "time": 43.971282,
            "velocity": 0.3937007874015748
          },
          {
            "duration": 0.042856999999997925,
            "durationTicks": 96,
            "midi": 35,
            "name": "B1",
            "ticks": 98592,
            "time": 44.014139,
            "velocity": 0.3937007874015748
          },
          {
            "duration": 0.042856999999997925,
            "durationTicks": 96,
            "midi": 79,
            "name": "G5",
            "ticks": 98688,
            "time": 44.056996,
            "velocity": 0.3937007874015748
          },
          {
            "duration": 0.04285700000000503,
            "durationTicks": 96,
            "midi": 35,
            "name": "B1",
            "ticks": 98784,
            "time": 44.099852999999996,
            "velocity": 0.3937007874015748
          },
          {
            "duration": 0.042856999999997925,
            "durationTicks": 96,
            "midi": 79,
            "name": "G5",
            "ticks": 98880,
            "time": 44.14271,
            "velocity": 0.3937007874015748
          },
          {
            "duration": 0.042856999999997925,
            "durationTicks": 96,
            "midi": 47,
            "name": "B2",
            "ticks": 98880,
            "time": 44.14271,
            "velocity": 0.3937007874015748
          },
          {
            "duration": 0.042856999999997925,
            "durationTicks": 96,
            "midi": 35,
            "name": "B1",
            "ticks": 98976,
            "time": 44.185567,
            "velocity": 0.3937007874015748
          },
          {
            "duration": 0.04285700000000503,
            "durationTicks": 96,
            "midi": 79,
            "name": "G5",
            "ticks": 99072,
            "time": 44.228424,
            "velocity": 0.3937007874015748
          },
          {
            "duration": 0.042856999999997925,
            "durationTicks": 96,
            "midi": 35,
            "name": "B1",
            "ticks": 99168,
            "time": 44.271281,
            "velocity": 0.3937007874015748
          },
          {
            "duration": 0.042856999999997925,
            "durationTicks": 96,
            "midi": 47,
            "name": "B2",
            "ticks": 99264,
            "time": 44.314138,
            "velocity": 0.3937007874015748
          },
          {
            "duration": 0.042856999999997925,
            "durationTicks": 96,
            "midi": 80,
            "name": "G#5",
            "ticks": 99264,
            "time": 44.314138,
            "velocity": 0.3937007874015748
          },
          {
            "duration": 0.04285700000000503,
            "durationTicks": 96,
            "midi": 35,
            "name": "B1",
            "ticks": 99360,
            "time": 44.356995,
            "velocity": 0.3937007874015748
          },
          {
            "duration": 0.042856999999997925,
            "durationTicks": 96,
            "midi": 80,
            "name": "G#5",
            "ticks": 99456,
            "time": 44.399852,
            "velocity": 0.3937007874015748
          },
          {
            "duration": 0.042856999999997925,
            "durationTicks": 96,
            "midi": 35,
            "name": "B1",
            "ticks": 99552,
            "time": 44.442709,
            "velocity": 0.3937007874015748
          },
          {
            "duration": 0.042856999999997925,
            "durationTicks": 96,
            "midi": 80,
            "name": "G#5",
            "ticks": 99648,
            "time": 44.485566,
            "velocity": 0.3937007874015748
          },
          {
            "duration": 0.042856999999997925,
            "durationTicks": 96,
            "midi": 47,
            "name": "B2",
            "ticks": 99648,
            "time": 44.485566,
            "velocity": 0.3937007874015748
          },
          {
            "duration": 0.04285700000000503,
            "durationTicks": 96,
            "midi": 35,
            "name": "B1",
            "ticks": 99744,
            "time": 44.528423,
            "velocity": 0.3937007874015748
          },
          {
            "duration": 0.042856999999997925,
            "durationTicks": 96,
            "midi": 80,
            "name": "G#5",
            "ticks": 99840,
            "time": 44.57128,
            "velocity": 0.3937007874015748
          },
          {
            "duration": 0.042856999999997925,
            "durationTicks": 96,
            "midi": 33,
            "name": "A1",
            "ticks": 99936,
            "time": 44.614137,
            "velocity": 0.3937007874015748
          },
          {
            "duration": 0.04285700000000503,
            "durationTicks": 96,
            "midi": 45,
            "name": "A2",
            "ticks": 100032,
            "time": 44.656994,
            "velocity": 0.3937007874015748
          },
          {
            "duration": 0.042856999999997925,
            "durationTicks": 96,
            "midi": 33,
            "name": "A1",
            "ticks": 100128,
            "time": 44.699851,
            "velocity": 0.3937007874015748
          },
          {
            "duration": 0.042856999999997925,
            "durationTicks": 96,
            "midi": 33,
            "name": "A1",
            "ticks": 100320,
            "time": 44.785565,
            "velocity": 0.3937007874015748
          },
          {
            "duration": 0.04285700000000503,
            "durationTicks": 96,
            "midi": 45,
            "name": "A2",
            "ticks": 100416,
            "time": 44.828421999999996,
            "velocity": 0.3937007874015748
          },
          {
            "duration": 0.042856999999997925,
            "durationTicks": 96,
            "midi": 33,
            "name": "A1",
            "ticks": 100512,
            "time": 44.871279,
            "velocity": 0.3937007874015748
          },
          {
            "duration": 0.04285700000000503,
            "durationTicks": 96,
            "midi": 33,
            "name": "A1",
            "ticks": 100704,
            "time": 44.956993,
            "velocity": 0.3937007874015748
          },
          {
            "duration": 0.042856999999997925,
            "durationTicks": 96,
            "midi": 45,
            "name": "A2",
            "ticks": 100800,
            "time": 44.99985,
            "velocity": 0.3937007874015748
          },
          {
            "duration": 0.042856999999997925,
            "durationTicks": 96,
            "midi": 33,
            "name": "A1",
            "ticks": 100896,
            "time": 45.042707,
            "velocity": 0.3937007874015748
          },
          {
            "duration": 0.04285700000000503,
            "durationTicks": 96,
            "midi": 33,
            "name": "A1",
            "ticks": 101088,
            "time": 45.128420999999996,
            "velocity": 0.3937007874015748
          },
          {
            "duration": 0.042856999999997925,
            "durationTicks": 96,
            "midi": 45,
            "name": "A2",
            "ticks": 101184,
            "time": 45.171278,
            "velocity": 0.3937007874015748
          },
          {
            "duration": 0.042856999999997925,
            "durationTicks": 96,
            "midi": 33,
            "name": "A1",
            "ticks": 101280,
            "time": 45.214135,
            "velocity": 0.3937007874015748
          },
          {
            "duration": 0.042856999999997925,
            "durationTicks": 96,
            "midi": 33,
            "name": "A1",
            "ticks": 101472,
            "time": 45.299849,
            "velocity": 0.3937007874015748
          },
          {
            "duration": 0.042856999999997925,
            "durationTicks": 96,
            "midi": 45,
            "name": "A2",
            "ticks": 101568,
            "time": 45.342706,
            "velocity": 0.3937007874015748
          },
          {
            "duration": 0.04285700000000503,
            "durationTicks": 96,
            "midi": 33,
            "name": "A1",
            "ticks": 101664,
            "time": 45.385563,
            "velocity": 0.3937007874015748
          },
          {
            "duration": 0.042856999999997925,
            "durationTicks": 96,
            "midi": 33,
            "name": "A1",
            "ticks": 101856,
            "time": 45.471277,
            "velocity": 0.3937007874015748
          },
          {
            "duration": 0.042856999999997925,
            "durationTicks": 96,
            "midi": 45,
            "name": "A2",
            "ticks": 101952,
            "time": 45.514134,
            "velocity": 0.3937007874015748
          },
          {
            "duration": 0.04285700000000503,
            "durationTicks": 96,
            "midi": 33,
            "name": "A1",
            "ticks": 102048,
            "time": 45.556991,
            "velocity": 0.3937007874015748
          },
          {
            "duration": 0.042856999999997925,
            "durationTicks": 96,
            "midi": 33,
            "name": "A1",
            "ticks": 102240,
            "time": 45.642705,
            "velocity": 0.3937007874015748
          },
          {
            "duration": 0.04285700000000503,
            "durationTicks": 96,
            "midi": 45,
            "name": "A2",
            "ticks": 102336,
            "time": 45.685562,
            "velocity": 0.3937007874015748
          },
          {
            "duration": 0.042856999999997925,
            "durationTicks": 96,
            "midi": 33,
            "name": "A1",
            "ticks": 102432,
            "time": 45.728419,
            "velocity": 0.3937007874015748
          },
          {
            "duration": 0.042856999999997925,
            "durationTicks": 96,
            "midi": 33,
            "name": "A1",
            "ticks": 102624,
            "time": 45.814133,
            "velocity": 0.3937007874015748
          },
          {
            "duration": 0.04285700000000503,
            "durationTicks": 96,
            "midi": 45,
            "name": "A2",
            "ticks": 102720,
            "time": 45.856989999999996,
            "velocity": 0.3937007874015748
          },
          {
            "duration": 0.042856999999997925,
            "durationTicks": 96,
            "midi": 33,
            "name": "A1",
            "ticks": 102816,
            "time": 45.899847,
            "velocity": 0.3937007874015748
          },
          {
            "duration": 0.042856999999997925,
            "durationTicks": 96,
            "midi": 55,
            "name": "G3",
            "ticks": 107520,
            "time": 47.99984,
            "velocity": 0.3937007874015748
          },
          {
            "duration": 0.042856999999997925,
            "durationTicks": 96,
            "midi": 61,
            "name": "C#4",
            "ticks": 107520,
            "time": 47.99984,
            "velocity": 0.3937007874015748
          },
          {
            "duration": 0.042856999999997925,
            "durationTicks": 96,
            "midi": 67,
            "name": "G4",
            "ticks": 107520,
            "time": 47.99984,
            "velocity": 0.3937007874015748
          },
          {
            "duration": 0.04285700000000503,
            "durationTicks": 96,
            "midi": 56,
            "name": "G#3",
            "ticks": 107616,
            "time": 48.042697,
            "velocity": 0.3937007874015748
          },
          {
            "duration": 0.04285700000000503,
            "durationTicks": 96,
            "midi": 68,
            "name": "G#4",
            "ticks": 107616,
            "time": 48.042697,
            "velocity": 0.3937007874015748
          },
          {
            "duration": 0.04285700000000503,
            "durationTicks": 96,
            "midi": 62,
            "name": "D4",
            "ticks": 107616,
            "time": 48.042697,
            "velocity": 0.3937007874015748
          },
          {
            "duration": 0.042856999999997925,
            "durationTicks": 96,
            "midi": 63,
            "name": "D#4",
            "ticks": 107712,
            "time": 48.085554,
            "velocity": 0.3937007874015748
          },
          {
            "duration": 0.042856999999997925,
            "durationTicks": 96,
            "midi": 57,
            "name": "A3",
            "ticks": 107712,
            "time": 48.085554,
            "velocity": 0.3937007874015748
          },
          {
            "duration": 0.042856999999997925,
            "durationTicks": 96,
            "midi": 69,
            "name": "A4",
            "ticks": 107712,
            "time": 48.085554,
            "velocity": 0.3937007874015748
          },
          {
            "duration": 0.042856999999997925,
            "durationTicks": 96,
            "midi": 64,
            "name": "E4",
            "ticks": 107808,
            "time": 48.128411,
            "velocity": 0.3937007874015748
          },
          {
            "duration": 0.042856999999997925,
            "durationTicks": 96,
            "midi": 58,
            "name": "A#3",
            "ticks": 107808,
            "time": 48.128411,
            "velocity": 0.3937007874015748
          },
          {
            "duration": 0.042856999999997925,
            "durationTicks": 96,
            "midi": 70,
            "name": "A#4",
            "ticks": 107808,
            "time": 48.128411,
            "velocity": 0.3937007874015748
          },
          {
            "duration": 0.042856999999997925,
            "durationTicks": 96,
            "midi": 71,
            "name": "B4",
            "ticks": 107904,
            "time": 48.171268,
            "velocity": 0.3937007874015748
          },
          {
            "duration": 0.042856999999997925,
            "durationTicks": 96,
            "midi": 59,
            "name": "B3",
            "ticks": 107904,
            "time": 48.171268,
            "velocity": 0.3937007874015748
          },
          {
            "duration": 0.042856999999997925,
            "durationTicks": 96,
            "midi": 65,
            "name": "F4",
            "ticks": 107904,
            "time": 48.171268,
            "velocity": 0.3937007874015748
          },
          {
            "duration": 0.04285700000000503,
            "durationTicks": 96,
            "midi": 60,
            "name": "C4",
            "ticks": 108000,
            "time": 48.214124999999996,
            "velocity": 0.3937007874015748
          },
          {
            "duration": 0.04285700000000503,
            "durationTicks": 96,
            "midi": 66,
            "name": "F#4",
            "ticks": 108000,
            "time": 48.214124999999996,
            "velocity": 0.3937007874015748
          },
          {
            "duration": 0.04285700000000503,
            "durationTicks": 96,
            "midi": 72,
            "name": "C5",
            "ticks": 108000,
            "time": 48.214124999999996,
            "velocity": 0.3937007874015748
          },
          {
            "duration": 0.042856999999997925,
            "durationTicks": 96,
            "midi": 61,
            "name": "C#4",
            "ticks": 108096,
            "time": 48.256982,
            "velocity": 0.3937007874015748
          },
          {
            "duration": 0.042856999999997925,
            "durationTicks": 96,
            "midi": 67,
            "name": "G4",
            "ticks": 108096,
            "time": 48.256982,
            "velocity": 0.3937007874015748
          },
          {
            "duration": 0.042856999999997925,
            "durationTicks": 96,
            "midi": 73,
            "name": "C#5",
            "ticks": 108096,
            "time": 48.256982,
            "velocity": 0.3937007874015748
          },
          {
            "duration": 0.042856999999997925,
            "durationTicks": 96,
            "midi": 62,
            "name": "D4",
            "ticks": 108192,
            "time": 48.299839,
            "velocity": 0.3937007874015748
          },
          {
            "duration": 0.042856999999997925,
            "durationTicks": 96,
            "midi": 74,
            "name": "D5",
            "ticks": 108192,
            "time": 48.299839,
            "velocity": 0.3937007874015748
          },
          {
            "duration": 0.042856999999997925,
            "durationTicks": 96,
            "midi": 68,
            "name": "G#4",
            "ticks": 108192,
            "time": 48.299839,
            "velocity": 0.3937007874015748
          },
          {
            "duration": 0.04285700000000503,
            "durationTicks": 96,
            "midi": 63,
            "name": "D#4",
            "ticks": 108288,
            "time": 48.342696,
            "velocity": 0.3937007874015748
          },
          {
            "duration": 0.04285700000000503,
            "durationTicks": 96,
            "midi": 69,
            "name": "A4",
            "ticks": 108288,
            "time": 48.342696,
            "velocity": 0.3937007874015748
          },
          {
            "duration": 0.04285700000000503,
            "durationTicks": 96,
            "midi": 75,
            "name": "D#5",
            "ticks": 108288,
            "time": 48.342696,
            "velocity": 0.3937007874015748
          },
          {
            "duration": 0.042856999999997925,
            "durationTicks": 96,
            "midi": 70,
            "name": "A#4",
            "ticks": 108384,
            "time": 48.385553,
            "velocity": 0.3937007874015748
          },
          {
            "duration": 0.042856999999997925,
            "durationTicks": 96,
            "midi": 64,
            "name": "E4",
            "ticks": 108384,
            "time": 48.385553,
            "velocity": 0.3937007874015748
          },
          {
            "duration": 0.042856999999997925,
            "durationTicks": 96,
            "midi": 76,
            "name": "E5",
            "ticks": 108384,
            "time": 48.385553,
            "velocity": 0.3937007874015748
          },
          {
            "duration": 0.042856999999997925,
            "durationTicks": 96,
            "midi": 71,
            "name": "B4",
            "ticks": 108480,
            "time": 48.42841,
            "velocity": 0.3937007874015748
          },
          {
            "duration": 0.042856999999997925,
            "durationTicks": 96,
            "midi": 77,
            "name": "F5",
            "ticks": 108480,
            "time": 48.42841,
            "velocity": 0.3937007874015748
          },
          {
            "duration": 0.042856999999997925,
            "durationTicks": 96,
            "midi": 65,
            "name": "F4",
            "ticks": 108480,
            "time": 48.42841,
            "velocity": 0.3937007874015748
          },
          {
            "duration": 0.04285700000000503,
            "durationTicks": 96,
            "midi": 78,
            "name": "F#5",
            "ticks": 108576,
            "time": 48.471267,
            "velocity": 0.3937007874015748
          },
          {
            "duration": 0.04285700000000503,
            "durationTicks": 96,
            "midi": 66,
            "name": "F#4",
            "ticks": 108576,
            "time": 48.471267,
            "velocity": 0.3937007874015748
          },
          {
            "duration": 0.04285700000000503,
            "durationTicks": 96,
            "midi": 72,
            "name": "C5",
            "ticks": 108576,
            "time": 48.471267,
            "velocity": 0.3937007874015748
          },
          {
            "duration": 0.042856999999997925,
            "durationTicks": 96,
            "midi": 73,
            "name": "C#5",
            "ticks": 108672,
            "time": 48.514124,
            "velocity": 0.3937007874015748
          },
          {
            "duration": 0.042856999999997925,
            "durationTicks": 96,
            "midi": 79,
            "name": "G5",
            "ticks": 108672,
            "time": 48.514124,
            "velocity": 0.3937007874015748
          },
          {
            "duration": 0.042856999999997925,
            "durationTicks": 96,
            "midi": 67,
            "name": "G4",
            "ticks": 108672,
            "time": 48.514124,
            "velocity": 0.3937007874015748
          },
          {
            "duration": 0.042856999999997925,
            "durationTicks": 96,
            "midi": 68,
            "name": "G#4",
            "ticks": 108768,
            "time": 48.556981,
            "velocity": 0.3937007874015748
          },
          {
            "duration": 0.042856999999997925,
            "durationTicks": 96,
            "midi": 80,
            "name": "G#5",
            "ticks": 108768,
            "time": 48.556981,
            "velocity": 0.3937007874015748
          },
          {
            "duration": 0.042856999999997925,
            "durationTicks": 96,
            "midi": 74,
            "name": "D5",
            "ticks": 108768,
            "time": 48.556981,
            "velocity": 0.3937007874015748
          },
          {
            "duration": 0.04285700000000503,
            "durationTicks": 96,
            "midi": 67,
            "name": "G4",
            "ticks": 119808,
            "time": 53.485535999999996,
            "velocity": 0.3937007874015748
          },
          {
            "duration": 0.04285700000000503,
            "durationTicks": 96,
            "midi": 61,
            "name": "C#4",
            "ticks": 119808,
            "time": 53.485535999999996,
            "velocity": 0.3937007874015748
          },
          {
            "duration": 0.04285700000000503,
            "durationTicks": 96,
            "midi": 55,
            "name": "G3",
            "ticks": 119808,
            "time": 53.485535999999996,
            "velocity": 0.3937007874015748
          },
          {
            "duration": 0.042856999999997925,
            "durationTicks": 96,
            "midi": 56,
            "name": "G#3",
            "ticks": 119904,
            "time": 53.528393,
            "velocity": 0.3937007874015748
          },
          {
            "duration": 0.042856999999997925,
            "durationTicks": 96,
            "midi": 62,
            "name": "D4",
            "ticks": 119904,
            "time": 53.528393,
            "velocity": 0.3937007874015748
          },
          {
            "duration": 0.042856999999997925,
            "durationTicks": 96,
            "midi": 68,
            "name": "G#4",
            "ticks": 119904,
            "time": 53.528393,
            "velocity": 0.3937007874015748
          },
          {
            "duration": 0.042856999999997925,
            "durationTicks": 96,
            "midi": 57,
            "name": "A3",
            "ticks": 120000,
            "time": 53.57125,
            "velocity": 0.3937007874015748
          },
          {
            "duration": 0.042856999999997925,
            "durationTicks": 96,
            "midi": 63,
            "name": "D#4",
            "ticks": 120000,
            "time": 53.57125,
            "velocity": 0.3937007874015748
          },
          {
            "duration": 0.042856999999997925,
            "durationTicks": 96,
            "midi": 69,
            "name": "A4",
            "ticks": 120000,
            "time": 53.57125,
            "velocity": 0.3937007874015748
          },
          {
            "duration": 0.04285700000000503,
            "durationTicks": 96,
            "midi": 70,
            "name": "A#4",
            "ticks": 120096,
            "time": 53.614107,
            "velocity": 0.3937007874015748
          },
          {
            "duration": 0.04285700000000503,
            "durationTicks": 96,
            "midi": 58,
            "name": "A#3",
            "ticks": 120096,
            "time": 53.614107,
            "velocity": 0.3937007874015748
          },
          {
            "duration": 0.04285700000000503,
            "durationTicks": 96,
            "midi": 64,
            "name": "E4",
            "ticks": 120096,
            "time": 53.614107,
            "velocity": 0.3937007874015748
          },
          {
            "duration": 0.042856999999997925,
            "durationTicks": 96,
            "midi": 59,
            "name": "B3",
            "ticks": 120192,
            "time": 53.656964,
            "velocity": 0.3937007874015748
          },
          {
            "duration": 0.042856999999997925,
            "durationTicks": 96,
            "midi": 65,
            "name": "F4",
            "ticks": 120192,
            "time": 53.656964,
            "velocity": 0.3937007874015748
          },
          {
            "duration": 0.042856999999997925,
            "durationTicks": 96,
            "midi": 71,
            "name": "B4",
            "ticks": 120192,
            "time": 53.656964,
            "velocity": 0.3937007874015748
          },
          {
            "duration": 0.042856999999997925,
            "durationTicks": 96,
            "midi": 72,
            "name": "C5",
            "ticks": 120288,
            "time": 53.699821,
            "velocity": 0.3937007874015748
          },
          {
            "duration": 0.042856999999997925,
            "durationTicks": 96,
            "midi": 60,
            "name": "C4",
            "ticks": 120288,
            "time": 53.699821,
            "velocity": 0.3937007874015748
          },
          {
            "duration": 0.042856999999997925,
            "durationTicks": 96,
            "midi": 66,
            "name": "F#4",
            "ticks": 120288,
            "time": 53.699821,
            "velocity": 0.3937007874015748
          },
          {
            "duration": 0.042856999999997925,
            "durationTicks": 96,
            "midi": 61,
            "name": "C#4",
            "ticks": 120384,
            "time": 53.742678,
            "velocity": 0.3937007874015748
          },
          {
            "duration": 0.042856999999997925,
            "durationTicks": 96,
            "midi": 67,
            "name": "G4",
            "ticks": 120384,
            "time": 53.742678,
            "velocity": 0.3937007874015748
          },
          {
            "duration": 0.042856999999997925,
            "durationTicks": 96,
            "midi": 73,
            "name": "C#5",
            "ticks": 120384,
            "time": 53.742678,
            "velocity": 0.3937007874015748
          },
          {
            "duration": 0.04285700000000503,
            "durationTicks": 96,
            "midi": 68,
            "name": "G#4",
            "ticks": 120480,
            "time": 53.785534999999996,
            "velocity": 0.3937007874015748
          },
          {
            "duration": 0.04285700000000503,
            "durationTicks": 96,
            "midi": 62,
            "name": "D4",
            "ticks": 120480,
            "time": 53.785534999999996,
            "velocity": 0.3937007874015748
          },
          {
            "duration": 0.04285700000000503,
            "durationTicks": 96,
            "midi": 74,
            "name": "D5",
            "ticks": 120480,
            "time": 53.785534999999996,
            "velocity": 0.3937007874015748
          },
          {
            "duration": 0.042856999999997925,
            "durationTicks": 96,
            "midi": 63,
            "name": "D#4",
            "ticks": 120576,
            "time": 53.828392,
            "velocity": 0.3937007874015748
          },
          {
            "duration": 0.042856999999997925,
            "durationTicks": 96,
            "midi": 75,
            "name": "D#5",
            "ticks": 120576,
            "time": 53.828392,
            "velocity": 0.3937007874015748
          },
          {
            "duration": 0.042856999999997925,
            "durationTicks": 96,
            "midi": 69,
            "name": "A4",
            "ticks": 120576,
            "time": 53.828392,
            "velocity": 0.3937007874015748
          },
          {
            "duration": 0.042856999999997925,
            "durationTicks": 96,
            "midi": 70,
            "name": "A#4",
            "ticks": 120672,
            "time": 53.871249,
            "velocity": 0.3937007874015748
          },
          {
            "duration": 0.042856999999997925,
            "durationTicks": 96,
            "midi": 76,
            "name": "E5",
            "ticks": 120672,
            "time": 53.871249,
            "velocity": 0.3937007874015748
          },
          {
            "duration": 0.042856999999997925,
            "durationTicks": 96,
            "midi": 64,
            "name": "E4",
            "ticks": 120672,
            "time": 53.871249,
            "velocity": 0.3937007874015748
          },
          {
            "duration": 0.04285700000000503,
            "durationTicks": 96,
            "midi": 71,
            "name": "B4",
            "ticks": 120768,
            "time": 53.914106,
            "velocity": 0.3937007874015748
          },
          {
            "duration": 0.04285700000000503,
            "durationTicks": 96,
            "midi": 77,
            "name": "F5",
            "ticks": 120768,
            "time": 53.914106,
            "velocity": 0.3937007874015748
          },
          {
            "duration": 0.04285700000000503,
            "durationTicks": 96,
            "midi": 65,
            "name": "F4",
            "ticks": 120768,
            "time": 53.914106,
            "velocity": 0.3937007874015748
          },
          {
            "duration": 0.042856999999997925,
            "durationTicks": 96,
            "midi": 66,
            "name": "F#4",
            "ticks": 120864,
            "time": 53.956963,
            "velocity": 0.3937007874015748
          },
          {
            "duration": 0.042856999999997925,
            "durationTicks": 96,
            "midi": 78,
            "name": "F#5",
            "ticks": 120864,
            "time": 53.956963,
            "velocity": 0.3937007874015748
          },
          {
            "duration": 0.042856999999997925,
            "durationTicks": 96,
            "midi": 72,
            "name": "C5",
            "ticks": 120864,
            "time": 53.956963,
            "velocity": 0.3937007874015748
          },
          {
            "duration": 0.042856999999997925,
            "durationTicks": 96,
            "midi": 67,
            "name": "G4",
            "ticks": 120960,
            "time": 53.99982,
            "velocity": 0.3937007874015748
          },
          {
            "duration": 0.042856999999997925,
            "durationTicks": 96,
            "midi": 79,
            "name": "G5",
            "ticks": 120960,
            "time": 53.99982,
            "velocity": 0.3937007874015748
          },
          {
            "duration": 0.042856999999997925,
            "durationTicks": 96,
            "midi": 73,
            "name": "C#5",
            "ticks": 120960,
            "time": 53.99982,
            "velocity": 0.3937007874015748
          },
          {
            "duration": 0.042856999999997925,
            "durationTicks": 96,
            "midi": 74,
            "name": "D5",
            "ticks": 121056,
            "time": 54.042677,
            "velocity": 0.3937007874015748
          },
          {
            "duration": 0.042856999999997925,
            "durationTicks": 96,
            "midi": 80,
            "name": "G#5",
            "ticks": 121056,
            "time": 54.042677,
            "velocity": 0.3937007874015748
          },
          {
            "duration": 0.042856999999997925,
            "durationTicks": 96,
            "midi": 68,
            "name": "G#4",
            "ticks": 121056,
            "time": 54.042677,
            "velocity": 0.3937007874015748
          },
          {
            "duration": 0.042856999999997925,
            "durationTicks": 96,
            "midi": 33,
            "name": "A1",
            "ticks": 127584,
            "time": 56.956953,
            "velocity": 0.3937007874015748
          },
          {
            "duration": 0.042856999999997925,
            "durationTicks": 96,
            "midi": 33,
            "name": "A1",
            "ticks": 127776,
            "time": 57.042667,
            "velocity": 0.3937007874015748
          },
          {
            "duration": 0.04285700000000503,
            "durationTicks": 96,
            "midi": 33,
            "name": "A1",
            "ticks": 127968,
            "time": 57.128381,
            "velocity": 0.3937007874015748
          },
          {
            "duration": 0.042856999999997925,
            "durationTicks": 96,
            "midi": 33,
            "name": "A1",
            "ticks": 128160,
            "time": 57.214095,
            "velocity": 0.3937007874015748
          },
          {
            "duration": 0.04285700000000503,
            "durationTicks": 96,
            "midi": 33,
            "name": "A1",
            "ticks": 128352,
            "time": 57.299808999999996,
            "velocity": 0.3937007874015748
          },
          {
            "duration": 0.042856999999997925,
            "durationTicks": 96,
            "midi": 33,
            "name": "A1",
            "ticks": 128544,
            "time": 57.385523,
            "velocity": 0.3937007874015748
          },
          {
            "duration": 0.042856999999997925,
            "durationTicks": 96,
            "midi": 33,
            "name": "A1",
            "ticks": 128736,
            "time": 57.471237,
            "velocity": 0.3937007874015748
          },
          {
            "duration": 0.042856999999997925,
            "durationTicks": 96,
            "midi": 33,
            "name": "A1",
            "ticks": 128928,
            "time": 57.556951,
            "velocity": 0.3937007874015748
          },
          {
            "duration": 0.042856999999997925,
            "durationTicks": 96,
            "midi": 33,
            "name": "A1",
            "ticks": 129120,
            "time": 57.642665,
            "velocity": 0.3937007874015748
          },
          {
            "duration": 0.04285700000000503,
            "durationTicks": 96,
            "midi": 33,
            "name": "A1",
            "ticks": 129312,
            "time": 57.728379,
            "velocity": 0.3937007874015748
          },
          {
            "duration": 0.042856999999997925,
            "durationTicks": 96,
            "midi": 33,
            "name": "A1",
            "ticks": 129504,
            "time": 57.814093,
            "velocity": 0.3937007874015748
          },
          {
            "duration": 0.04285700000000503,
            "durationTicks": 96,
            "midi": 33,
            "name": "A1",
            "ticks": 129696,
            "time": 57.899806999999996,
            "velocity": 0.3937007874015748
          },
          {
            "duration": 0.042856999999997925,
            "durationTicks": 96,
            "midi": 33,
            "name": "A1",
            "ticks": 129888,
            "time": 57.985521,
            "velocity": 0.3937007874015748
          },
          {
            "duration": 0.042856999999997925,
            "durationTicks": 96,
            "midi": 33,
            "name": "A1",
            "ticks": 130080,
            "time": 58.071235,
            "velocity": 0.3937007874015748
          },
          {
            "duration": 0.04285700000000503,
            "durationTicks": 96,
            "midi": 33,
            "name": "A1",
            "ticks": 130272,
            "time": 58.156949,
            "velocity": 0.3937007874015748
          },
          {
            "duration": 0.042856999999997925,
            "durationTicks": 96,
            "midi": 33,
            "name": "A1",
            "ticks": 130464,
            "time": 58.242663,
            "velocity": 0.3937007874015748
          },
          {
            "duration": 0.04285700000000503,
            "durationTicks": 96,
            "midi": 36,
            "name": "C2",
            "ticks": 130656,
            "time": 58.328376999999996,
            "velocity": 0.3937007874015748
          },
          {
            "duration": 0.042856999999997925,
            "durationTicks": 96,
            "midi": 36,
            "name": "C2",
            "ticks": 130848,
            "time": 58.414091,
            "velocity": 0.3937007874015748
          },
          {
            "duration": 0.042856999999997925,
            "durationTicks": 96,
            "midi": 36,
            "name": "C2",
            "ticks": 131040,
            "time": 58.499805,
            "velocity": 0.3937007874015748
          },
          {
            "duration": 0.042856999999997925,
            "durationTicks": 96,
            "midi": 36,
            "name": "C2",
            "ticks": 131232,
            "time": 58.585519,
            "velocity": 0.3937007874015748
          },
          {
            "duration": 0.042856999999997925,
            "durationTicks": 96,
            "midi": 36,
            "name": "C2",
            "ticks": 131424,
            "time": 58.671233,
            "velocity": 0.3937007874015748
          },
          {
            "duration": 0.04285700000000503,
            "durationTicks": 96,
            "midi": 36,
            "name": "C2",
            "ticks": 131616,
            "time": 58.756947,
            "velocity": 0.3937007874015748
          },
          {
            "duration": 0.042856999999997925,
            "durationTicks": 96,
            "midi": 36,
            "name": "C2",
            "ticks": 131808,
            "time": 58.842661,
            "velocity": 0.3937007874015748
          },
          {
            "duration": 0.04285700000000503,
            "durationTicks": 96,
            "midi": 36,
            "name": "C2",
            "ticks": 132000,
            "time": 58.928374999999996,
            "velocity": 0.3937007874015748
          },
          {
            "duration": 0.042856999999997925,
            "durationTicks": 96,
            "midi": 36,
            "name": "C2",
            "ticks": 132192,
            "time": 59.014089,
            "velocity": 0.3937007874015748
          },
          {
            "duration": 0.042856999999997925,
            "durationTicks": 96,
            "midi": 36,
            "name": "C2",
            "ticks": 132384,
            "time": 59.099803,
            "velocity": 0.3937007874015748
          },
          {
            "duration": 0.04285700000000503,
            "durationTicks": 96,
            "midi": 36,
            "name": "C2",
            "ticks": 132576,
            "time": 59.185517,
            "velocity": 0.3937007874015748
          },
          {
            "duration": 0.042856999999997925,
            "durationTicks": 96,
            "midi": 36,
            "name": "C2",
            "ticks": 132768,
            "time": 59.271231,
            "velocity": 0.3937007874015748
          },
          {
            "duration": 0.04285700000000503,
            "durationTicks": 96,
            "midi": 36,
            "name": "C2",
            "ticks": 132960,
            "time": 59.356944999999996,
            "velocity": 0.3937007874015748
          },
          {
            "duration": 0.042856999999997925,
            "durationTicks": 96,
            "midi": 36,
            "name": "C2",
            "ticks": 133152,
            "time": 59.442659,
            "velocity": 0.3937007874015748
          },
          {
            "duration": 0.042856999999997925,
            "durationTicks": 96,
            "midi": 36,
            "name": "C2",
            "ticks": 133344,
            "time": 59.528373,
            "velocity": 0.3937007874015748
          },
          {
            "duration": 0.042856999999997925,
            "durationTicks": 96,
            "midi": 36,
            "name": "C2",
            "ticks": 133536,
            "time": 59.614087,
            "velocity": 0.3937007874015748
          },
          {
            "duration": 0.042856999999997925,
            "durationTicks": 96,
            "midi": 35,
            "name": "B1",
            "ticks": 133728,
            "time": 59.699801,
            "velocity": 0.3937007874015748
          },
          {
            "duration": 0.04285700000000503,
            "durationTicks": 96,
            "midi": 35,
            "name": "B1",
            "ticks": 133920,
            "time": 59.785515,
            "velocity": 0.3937007874015748
          },
          {
            "duration": 0.042856999999997925,
            "durationTicks": 96,
            "midi": 35,
            "name": "B1",
            "ticks": 134112,
            "time": 59.871229,
            "velocity": 0.3937007874015748
          },
          {
            "duration": 0.04285700000000503,
            "durationTicks": 96,
            "midi": 35,
            "name": "B1",
            "ticks": 134304,
            "time": 59.956942999999995,
            "velocity": 0.3937007874015748
          },
          {
            "duration": 0.042856999999997925,
            "durationTicks": 96,
            "midi": 35,
            "name": "B1",
            "ticks": 134496,
            "time": 60.042657,
            "velocity": 0.3937007874015748
          },
          {
            "duration": 0.042856999999997925,
            "durationTicks": 96,
            "midi": 35,
            "name": "B1",
            "ticks": 134688,
            "time": 60.128371,
            "velocity": 0.3937007874015748
          },
          {
            "duration": 0.04285700000000503,
            "durationTicks": 96,
            "midi": 35,
            "name": "B1",
            "ticks": 134880,
            "time": 60.214085,
            "velocity": 0.3937007874015748
          },
          {
            "duration": 0.042856999999997925,
            "durationTicks": 96,
            "midi": 35,
            "name": "B1",
            "ticks": 135072,
            "time": 60.299799,
            "velocity": 0.3937007874015748
          },
          {
            "duration": 0.04285700000000503,
            "durationTicks": 96,
            "midi": 35,
            "name": "B1",
            "ticks": 135264,
            "time": 60.385512999999996,
            "velocity": 0.3937007874015748
          },
          {
            "duration": 0.042856999999997925,
            "durationTicks": 96,
            "midi": 35,
            "name": "B1",
            "ticks": 135456,
            "time": 60.471227,
            "velocity": 0.3937007874015748
          },
          {
            "duration": 0.042856999999997925,
            "durationTicks": 96,
            "midi": 35,
            "name": "B1",
            "ticks": 135648,
            "time": 60.556941,
            "velocity": 0.3937007874015748
          },
          {
            "duration": 0.042856999999997925,
            "durationTicks": 96,
            "midi": 35,
            "name": "B1",
            "ticks": 135840,
            "time": 60.642655,
            "velocity": 0.3937007874015748
          },
          {
            "duration": 0.042856999999997925,
            "durationTicks": 96,
            "midi": 35,
            "name": "B1",
            "ticks": 136032,
            "time": 60.728369,
            "velocity": 0.3937007874015748
          },
          {
            "duration": 0.04285700000000503,
            "durationTicks": 96,
            "midi": 35,
            "name": "B1",
            "ticks": 136224,
            "time": 60.814083,
            "velocity": 0.3937007874015748
          },
          {
            "duration": 0.042856999999997925,
            "durationTicks": 96,
            "midi": 35,
            "name": "B1",
            "ticks": 136416,
            "time": 60.899797,
            "velocity": 0.3937007874015748
          },
          {
            "duration": 0.042856999999997925,
            "durationTicks": 96,
            "midi": 35,
            "name": "B1",
            "ticks": 136608,
            "time": 60.985511,
            "velocity": 0.3937007874015748
          },
          {
            "duration": 0.042856999999997925,
            "durationTicks": 96,
            "midi": 40,
            "name": "E2",
            "ticks": 136800,
            "time": 61.071225,
            "velocity": 0.3937007874015748
          },
          {
            "duration": 0.042856999999997925,
            "durationTicks": 96,
            "midi": 40,
            "name": "E2",
            "ticks": 136992,
            "time": 61.156939,
            "velocity": 0.3937007874015748
          },
          {
            "duration": 0.04285700000000503,
            "durationTicks": 96,
            "midi": 40,
            "name": "E2",
            "ticks": 137184,
            "time": 61.242653,
            "velocity": 0.3937007874015748
          },
          {
            "duration": 0.042856999999997925,
            "durationTicks": 96,
            "midi": 40,
            "name": "E2",
            "ticks": 137376,
            "time": 61.328367,
            "velocity": 0.3937007874015748
          },
          {
            "duration": 0.04285700000000503,
            "durationTicks": 96,
            "midi": 38,
            "name": "D2",
            "ticks": 137568,
            "time": 61.414080999999996,
            "velocity": 0.3937007874015748
          },
          {
            "duration": 0.042856999999997925,
            "durationTicks": 96,
            "midi": 38,
            "name": "D2",
            "ticks": 137760,
            "time": 61.499795,
            "velocity": 0.3937007874015748
          },
          {
            "duration": 0.042856999999997925,
            "durationTicks": 96,
            "midi": 38,
            "name": "D2",
            "ticks": 137952,
            "time": 61.585509,
            "velocity": 0.3937007874015748
          },
          {
            "duration": 0.042856999999997925,
            "durationTicks": 96,
            "midi": 38,
            "name": "D2",
            "ticks": 138144,
            "time": 61.671223,
            "velocity": 0.3937007874015748
          },
          {
            "duration": 0.042856999999997925,
            "durationTicks": 96,
            "midi": 36,
            "name": "C2",
            "ticks": 138336,
            "time": 61.756937,
            "velocity": 0.3937007874015748
          },
          {
            "duration": 0.04285700000000503,
            "durationTicks": 96,
            "midi": 36,
            "name": "C2",
            "ticks": 138528,
            "time": 61.842651,
            "velocity": 0.3937007874015748
          },
          {
            "duration": 0.042856999999997925,
            "durationTicks": 96,
            "midi": 36,
            "name": "C2",
            "ticks": 138720,
            "time": 61.928365,
            "velocity": 0.3937007874015748
          },
          {
            "duration": 0.042856999999997925,
            "durationTicks": 96,
            "midi": 36,
            "name": "C2",
            "ticks": 138912,
            "time": 62.014079,
            "velocity": 0.3937007874015748
          },
          {
            "duration": 0.042856999999997925,
            "durationTicks": 96,
            "midi": 35,
            "name": "B1",
            "ticks": 139104,
            "time": 62.099793,
            "velocity": 0.3937007874015748
          },
          {
            "duration": 0.042856999999997925,
            "durationTicks": 96,
            "midi": 35,
            "name": "B1",
            "ticks": 139296,
            "time": 62.185507,
            "velocity": 0.3937007874015748
          },
          {
            "duration": 0.04285700000000503,
            "durationTicks": 96,
            "midi": 35,
            "name": "B1",
            "ticks": 139488,
            "time": 62.271221,
            "velocity": 0.3937007874015748
          },
          {
            "duration": 0.042856999999997925,
            "durationTicks": 96,
            "midi": 35,
            "name": "B1",
            "ticks": 139680,
            "time": 62.356935,
            "velocity": 0.3937007874015748
          },
          {
            "duration": 0.04285700000000503,
            "durationTicks": 96,
            "midi": 33,
            "name": "A1",
            "ticks": 139872,
            "time": 62.442648999999996,
            "velocity": 0.3937007874015748
          },
          {
            "duration": 0.042856999999997925,
            "durationTicks": 96,
            "midi": 33,
            "name": "A1",
            "ticks": 140064,
            "time": 62.528363,
            "velocity": 0.3937007874015748
          },
          {
            "duration": 0.042856999999997925,
            "durationTicks": 96,
            "midi": 33,
            "name": "A1",
            "ticks": 140256,
            "time": 62.614077,
            "velocity": 0.3937007874015748
          },
          {
            "duration": 0.042856999999997925,
            "durationTicks": 96,
            "midi": 33,
            "name": "A1",
            "ticks": 140448,
            "time": 62.699791,
            "velocity": 0.3937007874015748
          },
          {
            "duration": 0.042856999999997925,
            "durationTicks": 96,
            "midi": 33,
            "name": "A1",
            "ticks": 140640,
            "time": 62.785505,
            "velocity": 0.3937007874015748
          },
          {
            "duration": 0.04285700000000503,
            "durationTicks": 96,
            "midi": 33,
            "name": "A1",
            "ticks": 140832,
            "time": 62.871218999999996,
            "velocity": 0.3937007874015748
          },
          {
            "duration": 0.042856999999997925,
            "durationTicks": 96,
            "midi": 33,
            "name": "A1",
            "ticks": 141024,
            "time": 62.956933,
            "velocity": 0.3937007874015748
          },
          {
            "duration": 0.042856999999997925,
            "durationTicks": 96,
            "midi": 33,
            "name": "A1",
            "ticks": 141216,
            "time": 63.042647,
            "velocity": 0.3937007874015748
          },
          {
            "duration": 0.042856999999997925,
            "durationTicks": 96,
            "midi": 33,
            "name": "A1",
            "ticks": 141408,
            "time": 63.128361,
            "velocity": 0.3937007874015748
          },
          {
            "duration": 0.042856999999997925,
            "durationTicks": 96,
            "midi": 33,
            "name": "A1",
            "ticks": 141600,
            "time": 63.214075,
            "velocity": 0.3937007874015748
          },
          {
            "duration": 0.04285700000000503,
            "durationTicks": 96,
            "midi": 33,
            "name": "A1",
            "ticks": 141792,
            "time": 63.299789,
            "velocity": 0.3937007874015748
          },
          {
            "duration": 0.042856999999997925,
            "durationTicks": 96,
            "midi": 33,
            "name": "A1",
            "ticks": 141984,
            "time": 63.385503,
            "velocity": 0.3937007874015748
          },
          {
            "duration": 0.04285700000000503,
            "durationTicks": 96,
            "midi": 33,
            "name": "A1",
            "ticks": 142176,
            "time": 63.471216999999996,
            "velocity": 0.3937007874015748
          },
          {
            "duration": 0.042856999999997925,
            "durationTicks": 96,
            "midi": 33,
            "name": "A1",
            "ticks": 142368,
            "time": 63.556931,
            "velocity": 0.3937007874015748
          },
          {
            "duration": 0.042856999999997925,
            "durationTicks": 96,
            "midi": 33,
            "name": "A1",
            "ticks": 142560,
            "time": 63.642645,
            "velocity": 0.3937007874015748
          },
          {
            "duration": 0.042856999999997925,
            "durationTicks": 96,
            "midi": 33,
            "name": "A1",
            "ticks": 142752,
            "time": 63.728359,
            "velocity": 0.3937007874015748
          },
          {
            "duration": 0.042856999999997925,
            "durationTicks": 96,
            "midi": 36,
            "name": "C2",
            "ticks": 142944,
            "time": 63.814073,
            "velocity": 0.3937007874015748
          },
          {
            "duration": 0.04285700000000503,
            "durationTicks": 96,
            "midi": 36,
            "name": "C2",
            "ticks": 143136,
            "time": 63.899786999999996,
            "velocity": 0.3937007874015748
          },
          {
            "duration": 0.042856999999997925,
            "durationTicks": 96,
            "midi": 36,
            "name": "C2",
            "ticks": 143328,
            "time": 63.985501,
            "velocity": 0.3937007874015748
          },
          {
            "duration": 0.042856999999997925,
            "durationTicks": 96,
            "midi": 36,
            "name": "C2",
            "ticks": 143520,
            "time": 64.071215,
            "velocity": 0.3937007874015748
          },
          {
            "duration": 0.042856999999997925,
            "durationTicks": 96,
            "midi": 36,
            "name": "C2",
            "ticks": 143712,
            "time": 64.156929,
            "velocity": 0.3937007874015748
          },
          {
            "duration": 0.042856999999997925,
            "durationTicks": 96,
            "midi": 36,
            "name": "C2",
            "ticks": 143904,
            "time": 64.242643,
            "velocity": 0.3937007874015748
          },
          {
            "duration": 0.042856999999997925,
            "durationTicks": 96,
            "midi": 36,
            "name": "C2",
            "ticks": 144096,
            "time": 64.328357,
            "velocity": 0.3937007874015748
          },
          {
            "duration": 0.042857000000012135,
            "durationTicks": 96,
            "midi": 36,
            "name": "C2",
            "ticks": 144288,
            "time": 64.41407099999999,
            "velocity": 0.3937007874015748
          },
          {
            "duration": 0.042856999999997925,
            "durationTicks": 96,
            "midi": 36,
            "name": "C2",
            "ticks": 144480,
            "time": 64.499785,
            "velocity": 0.3937007874015748
          },
          {
            "duration": 0.042856999999997925,
            "durationTicks": 96,
            "midi": 36,
            "name": "C2",
            "ticks": 144672,
            "time": 64.585499,
            "velocity": 0.3937007874015748
          },
          {
            "duration": 0.042856999999997925,
            "durationTicks": 96,
            "midi": 36,
            "name": "C2",
            "ticks": 144864,
            "time": 64.671213,
            "velocity": 0.3937007874015748
          },
          {
            "duration": 0.042856999999997925,
            "durationTicks": 96,
            "midi": 36,
            "name": "C2",
            "ticks": 145056,
            "time": 64.756927,
            "velocity": 0.3937007874015748
          },
          {
            "duration": 0.042856999999997925,
            "durationTicks": 96,
            "midi": 36,
            "name": "C2",
            "ticks": 145248,
            "time": 64.842641,
            "velocity": 0.3937007874015748
          },
          {
            "duration": 0.042856999999997925,
            "durationTicks": 96,
            "midi": 36,
            "name": "C2",
            "ticks": 145440,
            "time": 64.928355,
            "velocity": 0.3937007874015748
          },
          {
            "duration": 0.042857000000012135,
            "durationTicks": 96,
            "midi": 36,
            "name": "C2",
            "ticks": 145632,
            "time": 65.01406899999999,
            "velocity": 0.3937007874015748
          },
          {
            "duration": 0.042856999999997925,
            "durationTicks": 96,
            "midi": 36,
            "name": "C2",
            "ticks": 145824,
            "time": 65.099783,
            "velocity": 0.3937007874015748
          },
          {
            "duration": 0.042856999999997925,
            "durationTicks": 96,
            "midi": 41,
            "name": "F2",
            "ticks": 146016,
            "time": 65.185497,
            "velocity": 0.3937007874015748
          },
          {
            "duration": 0.042856999999997925,
            "durationTicks": 96,
            "midi": 41,
            "name": "F2",
            "ticks": 146208,
            "time": 65.271211,
            "velocity": 0.3937007874015748
          },
          {
            "duration": 0.042856999999997925,
            "durationTicks": 96,
            "midi": 41,
            "name": "F2",
            "ticks": 146400,
            "time": 65.356925,
            "velocity": 0.3937007874015748
          },
          {
            "duration": 0.042856999999997925,
            "durationTicks": 96,
            "midi": 41,
            "name": "F2",
            "ticks": 146592,
            "time": 65.442639,
            "velocity": 0.3937007874015748
          },
          {
            "duration": 0.042856999999997925,
            "durationTicks": 96,
            "midi": 41,
            "name": "F2",
            "ticks": 146784,
            "time": 65.528353,
            "velocity": 0.3937007874015748
          },
          {
            "duration": 0.042856999999997925,
            "durationTicks": 96,
            "midi": 41,
            "name": "F2",
            "ticks": 146976,
            "time": 65.614067,
            "velocity": 0.3937007874015748
          },
          {
            "duration": 0.042856999999997925,
            "durationTicks": 96,
            "midi": 41,
            "name": "F2",
            "ticks": 147168,
            "time": 65.699781,
            "velocity": 0.3937007874015748
          },
          {
            "duration": 0.042856999999997925,
            "durationTicks": 96,
            "midi": 41,
            "name": "F2",
            "ticks": 147360,
            "time": 65.785495,
            "velocity": 0.3937007874015748
          },
          {
            "duration": 0.042857000000012135,
            "durationTicks": 96,
            "midi": 41,
            "name": "F2",
            "ticks": 147552,
            "time": 65.871209,
            "velocity": 0.3937007874015748
          },
          {
            "duration": 0.042856999999997925,
            "durationTicks": 96,
            "midi": 41,
            "name": "F2",
            "ticks": 147744,
            "time": 65.956923,
            "velocity": 0.3937007874015748
          },
          {
            "duration": 0.042856999999997925,
            "durationTicks": 96,
            "midi": 41,
            "name": "F2",
            "ticks": 147936,
            "time": 66.042637,
            "velocity": 0.3937007874015748
          },
          {
            "duration": 0.042856999999997925,
            "durationTicks": 96,
            "midi": 41,
            "name": "F2",
            "ticks": 148128,
            "time": 66.128351,
            "velocity": 0.3937007874015748
          },
          {
            "duration": 0.042856999999997925,
            "durationTicks": 96,
            "midi": 41,
            "name": "F2",
            "ticks": 148320,
            "time": 66.214065,
            "velocity": 0.3937007874015748
          },
          {
            "duration": 0.042856999999997925,
            "durationTicks": 96,
            "midi": 41,
            "name": "F2",
            "ticks": 148512,
            "time": 66.299779,
            "velocity": 0.3937007874015748
          },
          {
            "duration": 0.042856999999997925,
            "durationTicks": 96,
            "midi": 41,
            "name": "F2",
            "ticks": 148704,
            "time": 66.385493,
            "velocity": 0.3937007874015748
          },
          {
            "duration": 0.042857000000012135,
            "durationTicks": 96,
            "midi": 41,
            "name": "F2",
            "ticks": 148896,
            "time": 66.47120699999999,
            "velocity": 0.3937007874015748
          },
          {
            "duration": 0.042856999999997925,
            "durationTicks": 96,
            "midi": 40,
            "name": "E2",
            "ticks": 149088,
            "time": 66.556921,
            "velocity": 0.3937007874015748
          },
          {
            "duration": 0.042856999999997925,
            "durationTicks": 96,
            "midi": 40,
            "name": "E2",
            "ticks": 149280,
            "time": 66.642635,
            "velocity": 0.3937007874015748
          },
          {
            "duration": 0.042856999999997925,
            "durationTicks": 96,
            "midi": 40,
            "name": "E2",
            "ticks": 149472,
            "time": 66.728349,
            "velocity": 0.3937007874015748
          },
          {
            "duration": 0.042856999999997925,
            "durationTicks": 96,
            "midi": 40,
            "name": "E2",
            "ticks": 149664,
            "time": 66.814063,
            "velocity": 0.3937007874015748
          },
          {
            "duration": 0.042856999999997925,
            "durationTicks": 96,
            "midi": 40,
            "name": "E2",
            "ticks": 149856,
            "time": 66.899777,
            "velocity": 0.3937007874015748
          },
          {
            "duration": 0.042856999999997925,
            "durationTicks": 96,
            "midi": 40,
            "name": "E2",
            "ticks": 150048,
            "time": 66.985491,
            "velocity": 0.3937007874015748
          },
          {
            "duration": 0.042857000000012135,
            "durationTicks": 96,
            "midi": 40,
            "name": "E2",
            "ticks": 150240,
            "time": 67.07120499999999,
            "velocity": 0.3937007874015748
          },
          {
            "duration": 0.042856999999997925,
            "durationTicks": 96,
            "midi": 40,
            "name": "E2",
            "ticks": 150432,
            "time": 67.156919,
            "velocity": 0.3937007874015748
          },
          {
            "duration": 0.042856999999997925,
            "durationTicks": 96,
            "midi": 40,
            "name": "E2",
            "ticks": 150624,
            "time": 67.242633,
            "velocity": 0.3937007874015748
          },
          {
            "duration": 0.042857000000012135,
            "durationTicks": 96,
            "midi": 40,
            "name": "E2",
            "ticks": 150816,
            "time": 67.328347,
            "velocity": 0.3937007874015748
          },
          {
            "duration": 0.042856999999997925,
            "durationTicks": 96,
            "midi": 40,
            "name": "E2",
            "ticks": 151008,
            "time": 67.414061,
            "velocity": 0.3937007874015748
          },
          {
            "duration": 0.042856999999997925,
            "durationTicks": 96,
            "midi": 40,
            "name": "E2",
            "ticks": 151200,
            "time": 67.499775,
            "velocity": 0.3937007874015748
          },
          {
            "duration": 0.042856999999997925,
            "durationTicks": 96,
            "midi": 40,
            "name": "E2",
            "ticks": 151392,
            "time": 67.585489,
            "velocity": 0.3937007874015748
          },
          {
            "duration": 0.042856999999997925,
            "durationTicks": 96,
            "midi": 40,
            "name": "E2",
            "ticks": 151584,
            "time": 67.671203,
            "velocity": 0.3937007874015748
          },
          {
            "duration": 0.042856999999997925,
            "durationTicks": 96,
            "midi": 40,
            "name": "E2",
            "ticks": 151776,
            "time": 67.756917,
            "velocity": 0.3937007874015748
          },
          {
            "duration": 0.042856999999997925,
            "durationTicks": 96,
            "midi": 40,
            "name": "E2",
            "ticks": 151968,
            "time": 67.842631,
            "velocity": 0.3937007874015748
          },
          {
            "duration": 0.042857000000012135,
            "durationTicks": 96,
            "midi": 33,
            "name": "A1",
            "ticks": 152160,
            "time": 67.928345,
            "velocity": 0.3937007874015748
          },
          {
            "duration": 0.042856999999997925,
            "durationTicks": 96,
            "midi": 33,
            "name": "A1",
            "ticks": 152352,
            "time": 68.014059,
            "velocity": 0.3937007874015748
          },
          {
            "duration": 0.042856999999997925,
            "durationTicks": 96,
            "midi": 33,
            "name": "A1",
            "ticks": 152544,
            "time": 68.099773,
            "velocity": 0.3937007874015748
          },
          {
            "duration": 0.042856999999997925,
            "durationTicks": 96,
            "midi": 33,
            "name": "A1",
            "ticks": 152736,
            "time": 68.185487,
            "velocity": 0.3937007874015748
          },
          {
            "duration": 0.042856999999997925,
            "durationTicks": 96,
            "midi": 33,
            "name": "A1",
            "ticks": 152928,
            "time": 68.271201,
            "velocity": 0.3937007874015748
          },
          {
            "duration": 0.042856999999997925,
            "durationTicks": 96,
            "midi": 33,
            "name": "A1",
            "ticks": 153120,
            "time": 68.356915,
            "velocity": 0.3937007874015748
          },
          {
            "duration": 0.042856999999997925,
            "durationTicks": 96,
            "midi": 33,
            "name": "A1",
            "ticks": 153312,
            "time": 68.442629,
            "velocity": 0.3937007874015748
          },
          {
            "duration": 0.042857000000012135,
            "durationTicks": 96,
            "midi": 33,
            "name": "A1",
            "ticks": 153504,
            "time": 68.52834299999999,
            "velocity": 0.3937007874015748
          },
          {
            "duration": 0.042856999999997925,
            "durationTicks": 96,
            "midi": 33,
            "name": "A1",
            "ticks": 153696,
            "time": 68.614057,
            "velocity": 0.3937007874015748
          },
          {
            "duration": 0.042856999999997925,
            "durationTicks": 96,
            "midi": 33,
            "name": "A1",
            "ticks": 153888,
            "time": 68.699771,
            "velocity": 0.3937007874015748
          },
          {
            "duration": 0.042856999999997925,
            "durationTicks": 96,
            "midi": 33,
            "name": "A1",
            "ticks": 154080,
            "time": 68.785485,
            "velocity": 0.3937007874015748
          },
          {
            "duration": 0.042856999999997925,
            "durationTicks": 96,
            "midi": 33,
            "name": "A1",
            "ticks": 154272,
            "time": 68.871199,
            "velocity": 0.3937007874015748
          },
          {
            "duration": 0.042856999999997925,
            "durationTicks": 96,
            "midi": 33,
            "name": "A1",
            "ticks": 154464,
            "time": 68.956913,
            "velocity": 0.3937007874015748
          },
          {
            "duration": 0.042856999999997925,
            "durationTicks": 96,
            "midi": 33,
            "name": "A1",
            "ticks": 154656,
            "time": 69.042627,
            "velocity": 0.3937007874015748
          },
          {
            "duration": 0.042857000000012135,
            "durationTicks": 96,
            "midi": 33,
            "name": "A1",
            "ticks": 154848,
            "time": 69.12834099999999,
            "velocity": 0.3937007874015748
          },
          {
            "duration": 0.042856999999997925,
            "durationTicks": 96,
            "midi": 33,
            "name": "A1",
            "ticks": 155040,
            "time": 69.214055,
            "velocity": 0.3937007874015748
          },
          {
            "duration": 0.042856999999997925,
            "durationTicks": 96,
            "midi": 48,
            "name": "C3",
            "ticks": 155232,
            "time": 69.299769,
            "velocity": 0.3937007874015748
          },
          {
            "duration": 0.042856999999997925,
            "durationTicks": 96,
            "midi": 36,
            "name": "C2",
            "ticks": 155232,
            "time": 69.299769,
            "velocity": 0.3937007874015748
          },
          {
            "duration": 0.042857000000012135,
            "durationTicks": 96,
            "midi": 48,
            "name": "C3",
            "ticks": 155424,
            "time": 69.385483,
            "velocity": 0.3937007874015748
          },
          {
            "duration": 0.042857000000012135,
            "durationTicks": 96,
            "midi": 36,
            "name": "C2",
            "ticks": 155424,
            "time": 69.385483,
            "velocity": 0.3937007874015748
          },
          {
            "duration": 0.042856999999997925,
            "durationTicks": 96,
            "midi": 36,
            "name": "C2",
            "ticks": 155616,
            "time": 69.471197,
            "velocity": 0.3937007874015748
          },
          {
            "duration": 0.042856999999997925,
            "durationTicks": 96,
            "midi": 48,
            "name": "C3",
            "ticks": 155616,
            "time": 69.471197,
            "velocity": 0.3937007874015748
          },
          {
            "duration": 0.042856999999997925,
            "durationTicks": 96,
            "midi": 36,
            "name": "C2",
            "ticks": 155808,
            "time": 69.556911,
            "velocity": 0.3937007874015748
          },
          {
            "duration": 0.042856999999997925,
            "durationTicks": 96,
            "midi": 48,
            "name": "C3",
            "ticks": 155808,
            "time": 69.556911,
            "velocity": 0.3937007874015748
          },
          {
            "duration": 0.042856999999997925,
            "durationTicks": 96,
            "midi": 48,
            "name": "C3",
            "ticks": 156000,
            "time": 69.642625,
            "velocity": 0.3937007874015748
          },
          {
            "duration": 0.042856999999997925,
            "durationTicks": 96,
            "midi": 36,
            "name": "C2",
            "ticks": 156000,
            "time": 69.642625,
            "velocity": 0.3937007874015748
          },
          {
            "duration": 0.042856999999997925,
            "durationTicks": 96,
            "midi": 36,
            "name": "C2",
            "ticks": 156192,
            "time": 69.728339,
            "velocity": 0.3937007874015748
          },
          {
            "duration": 0.042856999999997925,
            "durationTicks": 96,
            "midi": 48,
            "name": "C3",
            "ticks": 156192,
            "time": 69.728339,
            "velocity": 0.3937007874015748
          },
          {
            "duration": 0.042856999999997925,
            "durationTicks": 96,
            "midi": 48,
            "name": "C3",
            "ticks": 156384,
            "time": 69.814053,
            "velocity": 0.3937007874015748
          },
          {
            "duration": 0.042856999999997925,
            "durationTicks": 96,
            "midi": 36,
            "name": "C2",
            "ticks": 156384,
            "time": 69.814053,
            "velocity": 0.3937007874015748
          },
          {
            "duration": 0.042856999999997925,
            "durationTicks": 96,
            "midi": 48,
            "name": "C3",
            "ticks": 156576,
            "time": 69.899767,
            "velocity": 0.3937007874015748
          },
          {
            "duration": 0.042856999999997925,
            "durationTicks": 96,
            "midi": 36,
            "name": "C2",
            "ticks": 156576,
            "time": 69.899767,
            "velocity": 0.3937007874015748
          },
          {
            "duration": 0.042857000000012135,
            "durationTicks": 96,
            "midi": 36,
            "name": "C2",
            "ticks": 156768,
            "time": 69.985481,
            "velocity": 0.3937007874015748
          },
          {
            "duration": 0.042857000000012135,
            "durationTicks": 96,
            "midi": 48,
            "name": "C3",
            "ticks": 156768,
            "time": 69.985481,
            "velocity": 0.3937007874015748
          },
          {
            "duration": 0.042856999999997925,
            "durationTicks": 96,
            "midi": 36,
            "name": "C2",
            "ticks": 156960,
            "time": 70.071195,
            "velocity": 0.3937007874015748
          },
          {
            "duration": 0.042856999999997925,
            "durationTicks": 96,
            "midi": 48,
            "name": "C3",
            "ticks": 156960,
            "time": 70.071195,
            "velocity": 0.3937007874015748
          },
          {
            "duration": 0.042856999999997925,
            "durationTicks": 96,
            "midi": 48,
            "name": "C3",
            "ticks": 157152,
            "time": 70.156909,
            "velocity": 0.3937007874015748
          },
          {
            "duration": 0.042856999999997925,
            "durationTicks": 96,
            "midi": 36,
            "name": "C2",
            "ticks": 157152,
            "time": 70.156909,
            "velocity": 0.3937007874015748
          },
          {
            "duration": 0.042856999999997925,
            "durationTicks": 96,
            "midi": 36,
            "name": "C2",
            "ticks": 157344,
            "time": 70.242623,
            "velocity": 0.3937007874015748
          },
          {
            "duration": 0.042856999999997925,
            "durationTicks": 96,
            "midi": 48,
            "name": "C3",
            "ticks": 157344,
            "time": 70.242623,
            "velocity": 0.3937007874015748
          },
          {
            "duration": 0.042856999999997925,
            "durationTicks": 96,
            "midi": 36,
            "name": "C2",
            "ticks": 157536,
            "time": 70.328337,
            "velocity": 0.3937007874015748
          },
          {
            "duration": 0.042856999999997925,
            "durationTicks": 96,
            "midi": 48,
            "name": "C3",
            "ticks": 157536,
            "time": 70.328337,
            "velocity": 0.3937007874015748
          },
          {
            "duration": 0.042856999999997925,
            "durationTicks": 96,
            "midi": 48,
            "name": "C3",
            "ticks": 157728,
            "time": 70.414051,
            "velocity": 0.3937007874015748
          },
          {
            "duration": 0.042856999999997925,
            "durationTicks": 96,
            "midi": 36,
            "name": "C2",
            "ticks": 157728,
            "time": 70.414051,
            "velocity": 0.3937007874015748
          },
          {
            "duration": 0.042856999999997925,
            "durationTicks": 96,
            "midi": 48,
            "name": "C3",
            "ticks": 157920,
            "time": 70.499765,
            "velocity": 0.3937007874015748
          },
          {
            "duration": 0.042856999999997925,
            "durationTicks": 96,
            "midi": 36,
            "name": "C2",
            "ticks": 157920,
            "time": 70.499765,
            "velocity": 0.3937007874015748
          },
          {
            "duration": 0.042857000000012135,
            "durationTicks": 96,
            "midi": 36,
            "name": "C2",
            "ticks": 158112,
            "time": 70.58547899999999,
            "velocity": 0.3937007874015748
          },
          {
            "duration": 0.042857000000012135,
            "durationTicks": 96,
            "midi": 48,
            "name": "C3",
            "ticks": 158112,
            "time": 70.58547899999999,
            "velocity": 0.3937007874015748
          },
          {
            "duration": 0.042856999999997925,
            "durationTicks": 96,
            "midi": 47,
            "name": "B2",
            "ticks": 158304,
            "time": 70.671193,
            "velocity": 0.3937007874015748
          },
          {
            "duration": 0.042856999999997925,
            "durationTicks": 96,
            "midi": 35,
            "name": "B1",
            "ticks": 158304,
            "time": 70.671193,
            "velocity": 0.3937007874015748
          },
          {
            "duration": 0.042856999999997925,
            "durationTicks": 96,
            "midi": 47,
            "name": "B2",
            "ticks": 158496,
            "time": 70.756907,
            "velocity": 0.3937007874015748
          },
          {
            "duration": 0.042856999999997925,
            "durationTicks": 96,
            "midi": 35,
            "name": "B1",
            "ticks": 158496,
            "time": 70.756907,
            "velocity": 0.3937007874015748
          },
          {
            "duration": 0.042856999999997925,
            "durationTicks": 96,
            "midi": 35,
            "name": "B1",
            "ticks": 158688,
            "time": 70.842621,
            "velocity": 0.3937007874015748
          },
          {
            "duration": 0.042856999999997925,
            "durationTicks": 96,
            "midi": 47,
            "name": "B2",
            "ticks": 158688,
            "time": 70.842621,
            "velocity": 0.3937007874015748
          },
          {
            "duration": 0.042856999999997925,
            "durationTicks": 96,
            "midi": 47,
            "name": "B2",
            "ticks": 158880,
            "time": 70.928335,
            "velocity": 0.3937007874015748
          },
          {
            "duration": 0.042856999999997925,
            "durationTicks": 96,
            "midi": 35,
            "name": "B1",
            "ticks": 158880,
            "time": 70.928335,
            "velocity": 0.3937007874015748
          },
          {
            "duration": 0.042856999999997925,
            "durationTicks": 96,
            "midi": 47,
            "name": "B2",
            "ticks": 159072,
            "time": 71.014049,
            "velocity": 0.3937007874015748
          },
          {
            "duration": 0.042856999999997925,
            "durationTicks": 96,
            "midi": 35,
            "name": "B1",
            "ticks": 159072,
            "time": 71.014049,
            "velocity": 0.3937007874015748
          },
          {
            "duration": 0.042856999999997925,
            "durationTicks": 96,
            "midi": 47,
            "name": "B2",
            "ticks": 159264,
            "time": 71.099763,
            "velocity": 0.3937007874015748
          },
          {
            "duration": 0.042856999999997925,
            "durationTicks": 96,
            "midi": 35,
            "name": "B1",
            "ticks": 159264,
            "time": 71.099763,
            "velocity": 0.3937007874015748
          },
          {
            "duration": 0.042857000000012135,
            "durationTicks": 96,
            "midi": 35,
            "name": "B1",
            "ticks": 159456,
            "time": 71.18547699999999,
            "velocity": 0.3937007874015748
          },
          {
            "duration": 0.042857000000012135,
            "durationTicks": 96,
            "midi": 47,
            "name": "B2",
            "ticks": 159456,
            "time": 71.18547699999999,
            "velocity": 0.3937007874015748
          },
          {
            "duration": 0.042856999999997925,
            "durationTicks": 96,
            "midi": 47,
            "name": "B2",
            "ticks": 159648,
            "time": 71.271191,
            "velocity": 0.3937007874015748
          },
          {
            "duration": 0.042856999999997925,
            "durationTicks": 96,
            "midi": 35,
            "name": "B1",
            "ticks": 159648,
            "time": 71.271191,
            "velocity": 0.3937007874015748
          },
          {
            "duration": 0.042856999999997925,
            "durationTicks": 96,
            "midi": 35,
            "name": "B1",
            "ticks": 159840,
            "time": 71.356905,
            "velocity": 0.3937007874015748
          },
          {
            "duration": 0.042856999999997925,
            "durationTicks": 96,
            "midi": 47,
            "name": "B2",
            "ticks": 159840,
            "time": 71.356905,
            "velocity": 0.3937007874015748
          },
          {
            "duration": 0.042857000000012135,
            "durationTicks": 96,
            "midi": 47,
            "name": "B2",
            "ticks": 160032,
            "time": 71.442619,
            "velocity": 0.3937007874015748
          },
          {
            "duration": 0.042857000000012135,
            "durationTicks": 96,
            "midi": 35,
            "name": "B1",
            "ticks": 160032,
            "time": 71.442619,
            "velocity": 0.3937007874015748
          },
          {
            "duration": 0.042856999999997925,
            "durationTicks": 96,
            "midi": 47,
            "name": "B2",
            "ticks": 160224,
            "time": 71.528333,
            "velocity": 0.3937007874015748
          },
          {
            "duration": 0.042856999999997925,
            "durationTicks": 96,
            "midi": 35,
            "name": "B1",
            "ticks": 160224,
            "time": 71.528333,
            "velocity": 0.3937007874015748
          },
          {
            "duration": 0.042856999999997925,
            "durationTicks": 96,
            "midi": 35,
            "name": "B1",
            "ticks": 160416,
            "time": 71.614047,
            "velocity": 0.3937007874015748
          },
          {
            "duration": 0.042856999999997925,
            "durationTicks": 96,
            "midi": 47,
            "name": "B2",
            "ticks": 160416,
            "time": 71.614047,
            "velocity": 0.3937007874015748
          },
          {
            "duration": 0.042856999999997925,
            "durationTicks": 96,
            "midi": 35,
            "name": "B1",
            "ticks": 160608,
            "time": 71.699761,
            "velocity": 0.3937007874015748
          },
          {
            "duration": 0.042856999999997925,
            "durationTicks": 96,
            "midi": 47,
            "name": "B2",
            "ticks": 160608,
            "time": 71.699761,
            "velocity": 0.3937007874015748
          },
          {
            "duration": 0.042856999999997925,
            "durationTicks": 96,
            "midi": 47,
            "name": "B2",
            "ticks": 160800,
            "time": 71.785475,
            "velocity": 0.3937007874015748
          },
          {
            "duration": 0.042856999999997925,
            "durationTicks": 96,
            "midi": 35,
            "name": "B1",
            "ticks": 160800,
            "time": 71.785475,
            "velocity": 0.3937007874015748
          },
          {
            "duration": 0.042856999999997925,
            "durationTicks": 96,
            "midi": 35,
            "name": "B1",
            "ticks": 160992,
            "time": 71.871189,
            "velocity": 0.3937007874015748
          },
          {
            "duration": 0.042856999999997925,
            "durationTicks": 96,
            "midi": 47,
            "name": "B2",
            "ticks": 160992,
            "time": 71.871189,
            "velocity": 0.3937007874015748
          },
          {
            "duration": 0.042856999999997925,
            "durationTicks": 96,
            "midi": 47,
            "name": "B2",
            "ticks": 161184,
            "time": 71.956903,
            "velocity": 0.3937007874015748
          },
          {
            "duration": 0.042856999999997925,
            "durationTicks": 96,
            "midi": 35,
            "name": "B1",
            "ticks": 161184,
            "time": 71.956903,
            "velocity": 0.3937007874015748
          },
          {
            "duration": 0.042857000000012135,
            "durationTicks": 96,
            "midi": 52,
            "name": "E3",
            "ticks": 161376,
            "time": 72.04261699999999,
            "velocity": 0.3937007874015748
          },
          {
            "duration": 0.042857000000012135,
            "durationTicks": 96,
            "midi": 40,
            "name": "E2",
            "ticks": 161376,
            "time": 72.04261699999999,
            "velocity": 0.3937007874015748
          },
          {
            "duration": 0.042856999999997925,
            "durationTicks": 96,
            "midi": 40,
            "name": "E2",
            "ticks": 161568,
            "time": 72.128331,
            "velocity": 0.3937007874015748
          },
          {
            "duration": 0.042856999999997925,
            "durationTicks": 96,
            "midi": 52,
            "name": "E3",
            "ticks": 161568,
            "time": 72.128331,
            "velocity": 0.3937007874015748
          },
          {
            "duration": 0.042856999999997925,
            "durationTicks": 96,
            "midi": 52,
            "name": "E3",
            "ticks": 161760,
            "time": 72.214045,
            "velocity": 0.3937007874015748
          },
          {
            "duration": 0.042856999999997925,
            "durationTicks": 96,
            "midi": 40,
            "name": "E2",
            "ticks": 161760,
            "time": 72.214045,
            "velocity": 0.3937007874015748
          },
          {
            "duration": 0.042856999999997925,
            "durationTicks": 96,
            "midi": 40,
            "name": "E2",
            "ticks": 161952,
            "time": 72.299759,
            "velocity": 0.3937007874015748
          },
          {
            "duration": 0.042856999999997925,
            "durationTicks": 96,
            "midi": 52,
            "name": "E3",
            "ticks": 161952,
            "time": 72.299759,
            "velocity": 0.3937007874015748
          },
          {
            "duration": 0.042856999999997925,
            "durationTicks": 96,
            "midi": 38,
            "name": "D2",
            "ticks": 162144,
            "time": 72.385473,
            "velocity": 0.3937007874015748
          },
          {
            "duration": 0.042856999999997925,
            "durationTicks": 96,
            "midi": 50,
            "name": "D3",
            "ticks": 162144,
            "time": 72.385473,
            "velocity": 0.3937007874015748
          },
          {
            "duration": 0.042856999999997925,
            "durationTicks": 96,
            "midi": 50,
            "name": "D3",
            "ticks": 162336,
            "time": 72.471187,
            "velocity": 0.3937007874015748
          },
          {
            "duration": 0.042856999999997925,
            "durationTicks": 96,
            "midi": 38,
            "name": "D2",
            "ticks": 162336,
            "time": 72.471187,
            "velocity": 0.3937007874015748
          },
          {
            "duration": 0.042856999999997925,
            "durationTicks": 96,
            "midi": 50,
            "name": "D3",
            "ticks": 162528,
            "time": 72.556901,
            "velocity": 0.3937007874015748
          },
          {
            "duration": 0.042856999999997925,
            "durationTicks": 96,
            "midi": 38,
            "name": "D2",
            "ticks": 162528,
            "time": 72.556901,
            "velocity": 0.3937007874015748
          },
          {
            "duration": 0.042857000000012135,
            "durationTicks": 96,
            "midi": 38,
            "name": "D2",
            "ticks": 162720,
            "time": 72.64261499999999,
            "velocity": 0.3937007874015748
          },
          {
            "duration": 0.042857000000012135,
            "durationTicks": 96,
            "midi": 50,
            "name": "D3",
            "ticks": 162720,
            "time": 72.64261499999999,
            "velocity": 0.3937007874015748
          },
          {
            "duration": 0.042856999999997925,
            "durationTicks": 96,
            "midi": 36,
            "name": "C2",
            "ticks": 162912,
            "time": 72.728329,
            "velocity": 0.3937007874015748
          },
          {
            "duration": 0.042856999999997925,
            "durationTicks": 96,
            "midi": 48,
            "name": "C3",
            "ticks": 162912,
            "time": 72.728329,
            "velocity": 0.3937007874015748
          },
          {
            "duration": 0.042856999999997925,
            "durationTicks": 96,
            "midi": 48,
            "name": "C3",
            "ticks": 163104,
            "time": 72.814043,
            "velocity": 0.3937007874015748
          },
          {
            "duration": 0.042856999999997925,
            "durationTicks": 96,
            "midi": 36,
            "name": "C2",
            "ticks": 163104,
            "time": 72.814043,
            "velocity": 0.3937007874015748
          },
          {
            "duration": 0.042856999999997925,
            "durationTicks": 96,
            "midi": 36,
            "name": "C2",
            "ticks": 163296,
            "time": 72.899757,
            "velocity": 0.3937007874015748
          },
          {
            "duration": 0.042856999999997925,
            "durationTicks": 96,
            "midi": 48,
            "name": "C3",
            "ticks": 163296,
            "time": 72.899757,
            "velocity": 0.3937007874015748
          },
          {
            "duration": 0.042856999999997925,
            "durationTicks": 96,
            "midi": 36,
            "name": "C2",
            "ticks": 163488,
            "time": 72.985471,
            "velocity": 0.3937007874015748
          },
          {
            "duration": 0.042856999999997925,
            "durationTicks": 96,
            "midi": 48,
            "name": "C3",
            "ticks": 163488,
            "time": 72.985471,
            "velocity": 0.3937007874015748
          },
          {
            "duration": 0.042856999999997925,
            "durationTicks": 96,
            "midi": 35,
            "name": "B1",
            "ticks": 163680,
            "time": 73.071185,
            "velocity": 0.3937007874015748
          },
          {
            "duration": 0.042856999999997925,
            "durationTicks": 96,
            "midi": 47,
            "name": "B2",
            "ticks": 163680,
            "time": 73.071185,
            "velocity": 0.3937007874015748
          },
          {
            "duration": 0.042856999999997925,
            "durationTicks": 96,
            "midi": 47,
            "name": "B2",
            "ticks": 163872,
            "time": 73.156899,
            "velocity": 0.3937007874015748
          },
          {
            "duration": 0.042856999999997925,
            "durationTicks": 96,
            "midi": 35,
            "name": "B1",
            "ticks": 163872,
            "time": 73.156899,
            "velocity": 0.3937007874015748
          },
          {
            "duration": 0.042856999999997925,
            "durationTicks": 96,
            "midi": 35,
            "name": "B1",
            "ticks": 164064,
            "time": 73.242613,
            "velocity": 0.3937007874015748
          },
          {
            "duration": 0.042856999999997925,
            "durationTicks": 96,
            "midi": 47,
            "name": "B2",
            "ticks": 164064,
            "time": 73.242613,
            "velocity": 0.3937007874015748
          },
          {
            "duration": 0.042856999999997925,
            "durationTicks": 96,
            "midi": 35,
            "name": "B1",
            "ticks": 164256,
            "time": 73.328327,
            "velocity": 0.3937007874015748
          },
          {
            "duration": 0.042856999999997925,
            "durationTicks": 96,
            "midi": 47,
            "name": "B2",
            "ticks": 164256,
            "time": 73.328327,
            "velocity": 0.3937007874015748
          },
          {
            "duration": 0.042856999999997925,
            "durationTicks": 96,
            "midi": 33,
            "name": "A1",
            "ticks": 164448,
            "time": 73.414041,
            "velocity": 0.3937007874015748
          },
          {
            "duration": 0.042857000000012135,
            "durationTicks": 96,
            "midi": 33,
            "name": "A1",
            "ticks": 164640,
            "time": 73.499755,
            "velocity": 0.3937007874015748
          },
          {
            "duration": 0.042856999999997925,
            "durationTicks": 96,
            "midi": 33,
            "name": "A1",
            "ticks": 164832,
            "time": 73.585469,
            "velocity": 0.3937007874015748
          },
          {
            "duration": 0.042856999999997925,
            "durationTicks": 96,
            "midi": 33,
            "name": "A1",
            "ticks": 165024,
            "time": 73.671183,
            "velocity": 0.3937007874015748
          },
          {
            "duration": 0.042856999999997925,
            "durationTicks": 96,
            "midi": 33,
            "name": "A1",
            "ticks": 165216,
            "time": 73.756897,
            "velocity": 0.3937007874015748
          },
          {
            "duration": 0.042856999999997925,
            "durationTicks": 96,
            "midi": 33,
            "name": "A1",
            "ticks": 165408,
            "time": 73.842611,
            "velocity": 0.3937007874015748
          },
          {
            "duration": 0.042856999999997925,
            "durationTicks": 96,
            "midi": 33,
            "name": "A1",
            "ticks": 165600,
            "time": 73.928325,
            "velocity": 0.3937007874015748
          },
          {
            "duration": 0.042856999999997925,
            "durationTicks": 96,
            "midi": 33,
            "name": "A1",
            "ticks": 165792,
            "time": 74.014039,
            "velocity": 0.3937007874015748
          },
          {
            "duration": 0.042857000000012135,
            "durationTicks": 96,
            "midi": 33,
            "name": "A1",
            "ticks": 165984,
            "time": 74.09975299999999,
            "velocity": 0.3937007874015748
          },
          {
            "duration": 0.042856999999997925,
            "durationTicks": 96,
            "midi": 33,
            "name": "A1",
            "ticks": 166176,
            "time": 74.185467,
            "velocity": 0.3937007874015748
          },
          {
            "duration": 0.042856999999997925,
            "durationTicks": 96,
            "midi": 33,
            "name": "A1",
            "ticks": 166368,
            "time": 74.271181,
            "velocity": 0.3937007874015748
          },
          {
            "duration": 0.042856999999997925,
            "durationTicks": 96,
            "midi": 33,
            "name": "A1",
            "ticks": 166560,
            "time": 74.356895,
            "velocity": 0.3937007874015748
          },
          {
            "duration": 0.042856999999997925,
            "durationTicks": 96,
            "midi": 33,
            "name": "A1",
            "ticks": 166752,
            "time": 74.442609,
            "velocity": 0.3937007874015748
          },
          {
            "duration": 0.042856999999997925,
            "durationTicks": 96,
            "midi": 33,
            "name": "A1",
            "ticks": 166944,
            "time": 74.528323,
            "velocity": 0.3937007874015748
          },
          {
            "duration": 0.042856999999997925,
            "durationTicks": 96,
            "midi": 33,
            "name": "A1",
            "ticks": 167136,
            "time": 74.614037,
            "velocity": 0.3937007874015748
          },
          {
            "duration": 0.042857000000012135,
            "durationTicks": 96,
            "midi": 33,
            "name": "A1",
            "ticks": 167328,
            "time": 74.69975099999999,
            "velocity": 0.3937007874015748
          },
          {
            "duration": 0.042856999999997925,
            "durationTicks": 96,
            "midi": 36,
            "name": "C2",
            "ticks": 167520,
            "time": 74.785465,
            "velocity": 0.3937007874015748
          },
          {
            "duration": 0.042856999999997925,
            "durationTicks": 96,
            "midi": 48,
            "name": "C3",
            "ticks": 167520,
            "time": 74.785465,
            "velocity": 0.3937007874015748
          },
          {
            "duration": 0.042856999999997925,
            "durationTicks": 96,
            "midi": 48,
            "name": "C3",
            "ticks": 167712,
            "time": 74.871179,
            "velocity": 0.3937007874015748
          },
          {
            "duration": 0.042856999999997925,
            "durationTicks": 96,
            "midi": 36,
            "name": "C2",
            "ticks": 167712,
            "time": 74.871179,
            "velocity": 0.3937007874015748
          },
          {
            "duration": 0.042856999999997925,
            "durationTicks": 96,
            "midi": 48,
            "name": "C3",
            "ticks": 167904,
            "time": 74.956893,
            "velocity": 0.3937007874015748
          },
          {
            "duration": 0.042856999999997925,
            "durationTicks": 96,
            "midi": 36,
            "name": "C2",
            "ticks": 167904,
            "time": 74.956893,
            "velocity": 0.3937007874015748
          },
          {
            "duration": 0.042856999999997925,
            "durationTicks": 96,
            "midi": 36,
            "name": "C2",
            "ticks": 168096,
            "time": 75.042607,
            "velocity": 0.3937007874015748
          },
          {
            "duration": 0.042856999999997925,
            "durationTicks": 96,
            "midi": 48,
            "name": "C3",
            "ticks": 168096,
            "time": 75.042607,
            "velocity": 0.3937007874015748
          },
          {
            "duration": 0.042856999999997925,
            "durationTicks": 96,
            "midi": 48,
            "name": "C3",
            "ticks": 168288,
            "time": 75.128321,
            "velocity": 0.3937007874015748
          },
          {
            "duration": 0.042856999999997925,
            "durationTicks": 96,
            "midi": 36,
            "name": "C2",
            "ticks": 168288,
            "time": 75.128321,
            "velocity": 0.3937007874015748
          },
          {
            "duration": 0.042856999999997925,
            "durationTicks": 96,
            "midi": 48,
            "name": "C3",
            "ticks": 168480,
            "time": 75.214035,
            "velocity": 0.3937007874015748
          },
          {
            "duration": 0.042856999999997925,
            "durationTicks": 96,
            "midi": 36,
            "name": "C2",
            "ticks": 168480,
            "time": 75.214035,
            "velocity": 0.3937007874015748
          },
          {
            "duration": 0.042856999999997925,
            "durationTicks": 96,
            "midi": 36,
            "name": "C2",
            "ticks": 168672,
            "time": 75.299749,
            "velocity": 0.3937007874015748
          },
          {
            "duration": 0.042856999999997925,
            "durationTicks": 96,
            "midi": 48,
            "name": "C3",
            "ticks": 168672,
            "time": 75.299749,
            "velocity": 0.3937007874015748
          },
          {
            "duration": 0.042856999999997925,
            "durationTicks": 96,
            "midi": 48,
            "name": "C3",
            "ticks": 168864,
            "time": 75.385463,
            "velocity": 0.3937007874015748
          },
          {
            "duration": 0.042856999999997925,
            "durationTicks": 96,
            "midi": 36,
            "name": "C2",
            "ticks": 168864,
            "time": 75.385463,
            "velocity": 0.3937007874015748
          },
          {
            "duration": 0.042856999999997925,
            "durationTicks": 96,
            "midi": 36,
            "name": "C2",
            "ticks": 169056,
            "time": 75.471177,
            "velocity": 0.3937007874015748
          },
          {
            "duration": 0.042856999999997925,
            "durationTicks": 96,
            "midi": 48,
            "name": "C3",
            "ticks": 169056,
            "time": 75.471177,
            "velocity": 0.3937007874015748
          },
          {
            "duration": 0.042857000000012135,
            "durationTicks": 96,
            "midi": 48,
            "name": "C3",
            "ticks": 169248,
            "time": 75.556891,
            "velocity": 0.3937007874015748
          },
          {
            "duration": 0.042857000000012135,
            "durationTicks": 96,
            "midi": 36,
            "name": "C2",
            "ticks": 169248,
            "time": 75.556891,
            "velocity": 0.3937007874015748
          },
          {
            "duration": 0.042856999999997925,
            "durationTicks": 96,
            "midi": 48,
            "name": "C3",
            "ticks": 169440,
            "time": 75.642605,
            "velocity": 0.3937007874015748
          },
          {
            "duration": 0.042856999999997925,
            "durationTicks": 96,
            "midi": 36,
            "name": "C2",
            "ticks": 169440,
            "time": 75.642605,
            "velocity": 0.3937007874015748
          },
          {
            "duration": 0.042856999999997925,
            "durationTicks": 96,
            "midi": 36,
            "name": "C2",
            "ticks": 169632,
            "time": 75.728319,
            "velocity": 0.3937007874015748
          },
          {
            "duration": 0.042856999999997925,
            "durationTicks": 96,
            "midi": 48,
            "name": "C3",
            "ticks": 169632,
            "time": 75.728319,
            "velocity": 0.3937007874015748
          },
          {
            "duration": 0.042856999999997925,
            "durationTicks": 96,
            "midi": 48,
            "name": "C3",
            "ticks": 169824,
            "time": 75.814033,
            "velocity": 0.3937007874015748
          },
          {
            "duration": 0.042856999999997925,
            "durationTicks": 96,
            "midi": 36,
            "name": "C2",
            "ticks": 169824,
            "time": 75.814033,
            "velocity": 0.3937007874015748
          },
          {
            "duration": 0.042856999999997925,
            "durationTicks": 96,
            "midi": 48,
            "name": "C3",
            "ticks": 170016,
            "time": 75.899747,
            "velocity": 0.3937007874015748
          },
          {
            "duration": 0.042856999999997925,
            "durationTicks": 96,
            "midi": 36,
            "name": "C2",
            "ticks": 170016,
            "time": 75.899747,
            "velocity": 0.3937007874015748
          },
          {
            "duration": 0.042856999999997925,
            "durationTicks": 96,
            "midi": 48,
            "name": "C3",
            "ticks": 170208,
            "time": 75.985461,
            "velocity": 0.3937007874015748
          },
          {
            "duration": 0.042856999999997925,
            "durationTicks": 96,
            "midi": 36,
            "name": "C2",
            "ticks": 170208,
            "time": 75.985461,
            "velocity": 0.3937007874015748
          },
          {
            "duration": 0.042856999999997925,
            "durationTicks": 96,
            "midi": 48,
            "name": "C3",
            "ticks": 170400,
            "time": 76.071175,
            "velocity": 0.3937007874015748
          },
          {
            "duration": 0.042856999999997925,
            "durationTicks": 96,
            "midi": 36,
            "name": "C2",
            "ticks": 170400,
            "time": 76.071175,
            "velocity": 0.3937007874015748
          },
          {
            "duration": 0.042857000000012135,
            "durationTicks": 96,
            "midi": 53,
            "name": "F3",
            "ticks": 170592,
            "time": 76.15688899999999,
            "velocity": 0.3937007874015748
          },
          {
            "duration": 0.042857000000012135,
            "durationTicks": 96,
            "midi": 41,
            "name": "F2",
            "ticks": 170592,
            "time": 76.15688899999999,
            "velocity": 0.3937007874015748
          },
          {
            "duration": 0.042856999999997925,
            "durationTicks": 96,
            "midi": 41,
            "name": "F2",
            "ticks": 170784,
            "time": 76.242603,
            "velocity": 0.3937007874015748
          },
          {
            "duration": 0.042856999999997925,
            "durationTicks": 96,
            "midi": 53,
            "name": "F3",
            "ticks": 170784,
            "time": 76.242603,
            "velocity": 0.3937007874015748
          },
          {
            "duration": 0.042856999999997925,
            "durationTicks": 96,
            "midi": 53,
            "name": "F3",
            "ticks": 170976,
            "time": 76.328317,
            "velocity": 0.3937007874015748
          },
          {
            "duration": 0.042856999999997925,
            "durationTicks": 96,
            "midi": 41,
            "name": "F2",
            "ticks": 170976,
            "time": 76.328317,
            "velocity": 0.3937007874015748
          },
          {
            "duration": 0.042856999999997925,
            "durationTicks": 96,
            "midi": 53,
            "name": "F3",
            "ticks": 171168,
            "time": 76.414031,
            "velocity": 0.3937007874015748
          },
          {
            "duration": 0.042856999999997925,
            "durationTicks": 96,
            "midi": 41,
            "name": "F2",
            "ticks": 171168,
            "time": 76.414031,
            "velocity": 0.3937007874015748
          },
          {
            "duration": 0.042856999999997925,
            "durationTicks": 96,
            "midi": 41,
            "name": "F2",
            "ticks": 171360,
            "time": 76.499745,
            "velocity": 0.3937007874015748
          },
          {
            "duration": 0.042856999999997925,
            "durationTicks": 96,
            "midi": 53,
            "name": "F3",
            "ticks": 171360,
            "time": 76.499745,
            "velocity": 0.3937007874015748
          },
          {
            "duration": 0.042856999999997925,
            "durationTicks": 96,
            "midi": 53,
            "name": "F3",
            "ticks": 171552,
            "time": 76.585459,
            "velocity": 0.3937007874015748
          },
          {
            "duration": 0.042856999999997925,
            "durationTicks": 96,
            "midi": 41,
            "name": "F2",
            "ticks": 171552,
            "time": 76.585459,
            "velocity": 0.3937007874015748
          },
          {
            "duration": 0.042856999999997925,
            "durationTicks": 96,
            "midi": 41,
            "name": "F2",
            "ticks": 171744,
            "time": 76.671173,
            "velocity": 0.3937007874015748
          },
          {
            "duration": 0.042856999999997925,
            "durationTicks": 96,
            "midi": 53,
            "name": "F3",
            "ticks": 171744,
            "time": 76.671173,
            "velocity": 0.3937007874015748
          },
          {
            "duration": 0.042857000000012135,
            "durationTicks": 96,
            "midi": 53,
            "name": "F3",
            "ticks": 171936,
            "time": 76.75688699999999,
            "velocity": 0.3937007874015748
          },
          {
            "duration": 0.042857000000012135,
            "durationTicks": 96,
            "midi": 41,
            "name": "F2",
            "ticks": 171936,
            "time": 76.75688699999999,
            "velocity": 0.3937007874015748
          },
          {
            "duration": 0.042856999999997925,
            "durationTicks": 96,
            "midi": 41,
            "name": "F2",
            "ticks": 172128,
            "time": 76.842601,
            "velocity": 0.3937007874015748
          },
          {
            "duration": 0.042856999999997925,
            "durationTicks": 96,
            "midi": 53,
            "name": "F3",
            "ticks": 172128,
            "time": 76.842601,
            "velocity": 0.3937007874015748
          },
          {
            "duration": 0.042856999999997925,
            "durationTicks": 96,
            "midi": 53,
            "name": "F3",
            "ticks": 172320,
            "time": 76.928315,
            "velocity": 0.3937007874015748
          },
          {
            "duration": 0.042856999999997925,
            "durationTicks": 96,
            "midi": 41,
            "name": "F2",
            "ticks": 172320,
            "time": 76.928315,
            "velocity": 0.3937007874015748
          },
          {
            "duration": 0.042857000000012135,
            "durationTicks": 96,
            "midi": 53,
            "name": "F3",
            "ticks": 172512,
            "time": 77.014029,
            "velocity": 0.3937007874015748
          },
          {
            "duration": 0.042857000000012135,
            "durationTicks": 96,
            "midi": 41,
            "name": "F2",
            "ticks": 172512,
            "time": 77.014029,
            "velocity": 0.3937007874015748
          },
          {
            "duration": 0.042856999999997925,
            "durationTicks": 96,
            "midi": 41,
            "name": "F2",
            "ticks": 172704,
            "time": 77.099743,
            "velocity": 0.3937007874015748
          },
          {
            "duration": 0.042856999999997925,
            "durationTicks": 96,
            "midi": 53,
            "name": "F3",
            "ticks": 172704,
            "time": 77.099743,
            "velocity": 0.3937007874015748
          },
          {
            "duration": 0.042856999999997925,
            "durationTicks": 96,
            "midi": 53,
            "name": "F3",
            "ticks": 172896,
            "time": 77.185457,
            "velocity": 0.3937007874015748
          },
          {
            "duration": 0.042856999999997925,
            "durationTicks": 96,
            "midi": 41,
            "name": "F2",
            "ticks": 172896,
            "time": 77.185457,
            "velocity": 0.3937007874015748
          },
          {
            "duration": 0.042856999999997925,
            "durationTicks": 96,
            "midi": 41,
            "name": "F2",
            "ticks": 173088,
            "time": 77.271171,
            "velocity": 0.3937007874015748
          },
          {
            "duration": 0.042856999999997925,
            "durationTicks": 96,
            "midi": 53,
            "name": "F3",
            "ticks": 173088,
            "time": 77.271171,
            "velocity": 0.3937007874015748
          },
          {
            "duration": 0.042856999999997925,
            "durationTicks": 96,
            "midi": 53,
            "name": "F3",
            "ticks": 173280,
            "time": 77.356885,
            "velocity": 0.3937007874015748
          },
          {
            "duration": 0.042856999999997925,
            "durationTicks": 96,
            "midi": 41,
            "name": "F2",
            "ticks": 173280,
            "time": 77.356885,
            "velocity": 0.3937007874015748
          },
          {
            "duration": 0.042856999999997925,
            "durationTicks": 96,
            "midi": 53,
            "name": "F3",
            "ticks": 173472,
            "time": 77.442599,
            "velocity": 0.3937007874015748
          },
          {
            "duration": 0.042856999999997925,
            "durationTicks": 96,
            "midi": 41,
            "name": "F2",
            "ticks": 173472,
            "time": 77.442599,
            "velocity": 0.3937007874015748
          },
          {
            "duration": 0.042856999999997925,
            "durationTicks": 96,
            "midi": 40,
            "name": "E2",
            "ticks": 173664,
            "time": 77.528313,
            "velocity": 0.3937007874015748
          },
          {
            "duration": 0.042856999999997925,
            "durationTicks": 96,
            "midi": 52,
            "name": "E3",
            "ticks": 173664,
            "time": 77.528313,
            "velocity": 0.3937007874015748
          },
          {
            "duration": 0.042857000000012135,
            "durationTicks": 96,
            "midi": 40,
            "name": "E2",
            "ticks": 173856,
            "time": 77.614027,
            "velocity": 0.3937007874015748
          },
          {
            "duration": 0.042857000000012135,
            "durationTicks": 96,
            "midi": 52,
            "name": "E3",
            "ticks": 173856,
            "time": 77.614027,
            "velocity": 0.3937007874015748
          },
          {
            "duration": 0.042856999999997925,
            "durationTicks": 96,
            "midi": 40,
            "name": "E2",
            "ticks": 174048,
            "time": 77.699741,
            "velocity": 0.3937007874015748
          },
          {
            "duration": 0.042856999999997925,
            "durationTicks": 96,
            "midi": 52,
            "name": "E3",
            "ticks": 174048,
            "time": 77.699741,
            "velocity": 0.3937007874015748
          },
          {
            "duration": 0.042856999999997925,
            "durationTicks": 96,
            "midi": 40,
            "name": "E2",
            "ticks": 174240,
            "time": 77.785455,
            "velocity": 0.3937007874015748
          },
          {
            "duration": 0.042856999999997925,
            "durationTicks": 96,
            "midi": 52,
            "name": "E3",
            "ticks": 174240,
            "time": 77.785455,
            "velocity": 0.3937007874015748
          },
          {
            "duration": 0.042856999999997925,
            "durationTicks": 96,
            "midi": 52,
            "name": "E3",
            "ticks": 174432,
            "time": 77.871169,
            "velocity": 0.3937007874015748
          },
          {
            "duration": 0.042856999999997925,
            "durationTicks": 96,
            "midi": 40,
            "name": "E2",
            "ticks": 174432,
            "time": 77.871169,
            "velocity": 0.3937007874015748
          },
          {
            "duration": 0.042856999999997925,
            "durationTicks": 96,
            "midi": 52,
            "name": "E3",
            "ticks": 174624,
            "time": 77.956883,
            "velocity": 0.3937007874015748
          },
          {
            "duration": 0.042856999999997925,
            "durationTicks": 96,
            "midi": 40,
            "name": "E2",
            "ticks": 174624,
            "time": 77.956883,
            "velocity": 0.3937007874015748
          },
          {
            "duration": 0.042856999999997925,
            "durationTicks": 96,
            "midi": 40,
            "name": "E2",
            "ticks": 174816,
            "time": 78.042597,
            "velocity": 0.3937007874015748
          },
          {
            "duration": 0.042856999999997925,
            "durationTicks": 96,
            "midi": 52,
            "name": "E3",
            "ticks": 174816,
            "time": 78.042597,
            "velocity": 0.3937007874015748
          },
          {
            "duration": 0.042856999999997925,
            "durationTicks": 96,
            "midi": 52,
            "name": "E3",
            "ticks": 175008,
            "time": 78.128311,
            "velocity": 0.3937007874015748
          },
          {
            "duration": 0.042856999999997925,
            "durationTicks": 96,
            "midi": 40,
            "name": "E2",
            "ticks": 175008,
            "time": 78.128311,
            "velocity": 0.3937007874015748
          },
          {
            "duration": 0.042857000000012135,
            "durationTicks": 96,
            "midi": 52,
            "name": "E3",
            "ticks": 175200,
            "time": 78.21402499999999,
            "velocity": 0.3937007874015748
          },
          {
            "duration": 0.042857000000012135,
            "durationTicks": 96,
            "midi": 40,
            "name": "E2",
            "ticks": 175200,
            "time": 78.21402499999999,
            "velocity": 0.3937007874015748
          },
          {
            "duration": 0.042856999999997925,
            "durationTicks": 96,
            "midi": 52,
            "name": "E3",
            "ticks": 175392,
            "time": 78.299739,
            "velocity": 0.3937007874015748
          },
          {
            "duration": 0.042856999999997925,
            "durationTicks": 96,
            "midi": 40,
            "name": "E2",
            "ticks": 175392,
            "time": 78.299739,
            "velocity": 0.3937007874015748
          },
          {
            "duration": 0.042856999999997925,
            "durationTicks": 96,
            "midi": 40,
            "name": "E2",
            "ticks": 175584,
            "time": 78.385453,
            "velocity": 0.3937007874015748
          },
          {
            "duration": 0.042856999999997925,
            "durationTicks": 96,
            "midi": 52,
            "name": "E3",
            "ticks": 175584,
            "time": 78.385453,
            "velocity": 0.3937007874015748
          },
          {
            "duration": 0.042856999999997925,
            "durationTicks": 96,
            "midi": 40,
            "name": "E2",
            "ticks": 175776,
            "time": 78.471167,
            "velocity": 0.3937007874015748
          },
          {
            "duration": 0.042856999999997925,
            "durationTicks": 96,
            "midi": 52,
            "name": "E3",
            "ticks": 175776,
            "time": 78.471167,
            "velocity": 0.3937007874015748
          },
          {
            "duration": 0.042856999999997925,
            "durationTicks": 96,
            "midi": 52,
            "name": "E3",
            "ticks": 175968,
            "time": 78.556881,
            "velocity": 0.3937007874015748
          },
          {
            "duration": 0.042856999999997925,
            "durationTicks": 96,
            "midi": 40,
            "name": "E2",
            "ticks": 175968,
            "time": 78.556881,
            "velocity": 0.3937007874015748
          },
          {
            "duration": 0.042856999999997925,
            "durationTicks": 96,
            "midi": 40,
            "name": "E2",
            "ticks": 176160,
            "time": 78.642595,
            "velocity": 0.3937007874015748
          },
          {
            "duration": 0.042856999999997925,
            "durationTicks": 96,
            "midi": 52,
            "name": "E3",
            "ticks": 176160,
            "time": 78.642595,
            "velocity": 0.3937007874015748
          },
          {
            "duration": 0.042856999999997925,
            "durationTicks": 96,
            "midi": 52,
            "name": "E3",
            "ticks": 176352,
            "time": 78.728309,
            "velocity": 0.3937007874015748
          },
          {
            "duration": 0.042856999999997925,
            "durationTicks": 96,
            "midi": 40,
            "name": "E2",
            "ticks": 176352,
            "time": 78.728309,
            "velocity": 0.3937007874015748
          },
          {
            "duration": 0.042857000000012135,
            "durationTicks": 96,
            "midi": 40,
            "name": "E2",
            "ticks": 176544,
            "time": 78.81402299999999,
            "velocity": 0.3937007874015748
          },
          {
            "duration": 0.042857000000012135,
            "durationTicks": 96,
            "midi": 52,
            "name": "E3",
            "ticks": 176544,
            "time": 78.81402299999999,
            "velocity": 0.3937007874015748
          },
          {
            "duration": 0.042856999999997925,
            "durationTicks": 96,
            "midi": 50,
            "name": "D3",
            "ticks": 176736,
            "time": 78.899737,
            "velocity": 0.3937007874015748
          },
          {
            "duration": 0.042856999999997925,
            "durationTicks": 96,
            "midi": 50,
            "name": "D3",
            "ticks": 176928,
            "time": 78.985451,
            "velocity": 0.3937007874015748
          },
          {
            "duration": 0.042857000000012135,
            "durationTicks": 96,
            "midi": 50,
            "name": "D3",
            "ticks": 177120,
            "time": 79.071165,
            "velocity": 0.3937007874015748
          },
          {
            "duration": 0.042856999999997925,
            "durationTicks": 96,
            "midi": 50,
            "name": "D3",
            "ticks": 177312,
            "time": 79.156879,
            "velocity": 0.3937007874015748
          },
          {
            "duration": 0.042856999999997925,
            "durationTicks": 96,
            "midi": 50,
            "name": "D3",
            "ticks": 177504,
            "time": 79.242593,
            "velocity": 0.3937007874015748
          },
          {
            "duration": 0.042856999999997925,
            "durationTicks": 96,
            "midi": 50,
            "name": "D3",
            "ticks": 177696,
            "time": 79.328307,
            "velocity": 0.3937007874015748
          },
          {
            "duration": 0.042856999999997925,
            "durationTicks": 96,
            "midi": 50,
            "name": "D3",
            "ticks": 177888,
            "time": 79.414021,
            "velocity": 0.3937007874015748
          },
          {
            "duration": 0.042856999999997925,
            "durationTicks": 96,
            "midi": 50,
            "name": "D3",
            "ticks": 178080,
            "time": 79.499735,
            "velocity": 0.3937007874015748
          },
          {
            "duration": 0.042856999999997925,
            "durationTicks": 96,
            "midi": 50,
            "name": "D3",
            "ticks": 178272,
            "time": 79.585449,
            "velocity": 0.3937007874015748
          },
          {
            "duration": 0.042857000000012135,
            "durationTicks": 96,
            "midi": 50,
            "name": "D3",
            "ticks": 178464,
            "time": 79.67116299999999,
            "velocity": 0.3937007874015748
          },
          {
            "duration": 0.042856999999997925,
            "durationTicks": 96,
            "midi": 50,
            "name": "D3",
            "ticks": 178656,
            "time": 79.756877,
            "velocity": 0.3937007874015748
          },
          {
            "duration": 0.042856999999997925,
            "durationTicks": 96,
            "midi": 50,
            "name": "D3",
            "ticks": 178848,
            "time": 79.842591,
            "velocity": 0.3937007874015748
          },
          {
            "duration": 0.042856999999997925,
            "durationTicks": 96,
            "midi": 50,
            "name": "D3",
            "ticks": 179040,
            "time": 79.928305,
            "velocity": 0.3937007874015748
          },
          {
            "duration": 0.042856999999997925,
            "durationTicks": 96,
            "midi": 50,
            "name": "D3",
            "ticks": 179232,
            "time": 80.014019,
            "velocity": 0.3937007874015748
          },
          {
            "duration": 0.042856999999997925,
            "durationTicks": 96,
            "midi": 50,
            "name": "D3",
            "ticks": 179424,
            "time": 80.099733,
            "velocity": 0.3937007874015748
          },
          {
            "duration": 0.042856999999997925,
            "durationTicks": 96,
            "midi": 50,
            "name": "D3",
            "ticks": 179616,
            "time": 80.185447,
            "velocity": 0.3937007874015748
          },
          {
            "duration": 0.042857000000012135,
            "durationTicks": 96,
            "midi": 50,
            "name": "D3",
            "ticks": 179808,
            "time": 80.27116099999999,
            "velocity": 0.3937007874015748
          },
          {
            "duration": 0.042856999999997925,
            "durationTicks": 96,
            "midi": 50,
            "name": "D3",
            "ticks": 180000,
            "time": 80.356875,
            "velocity": 0.3937007874015748
          },
          {
            "duration": 0.042856999999997925,
            "durationTicks": 96,
            "midi": 50,
            "name": "D3",
            "ticks": 180192,
            "time": 80.442589,
            "velocity": 0.3937007874015748
          },
          {
            "duration": 0.042856999999997925,
            "durationTicks": 96,
            "midi": 50,
            "name": "D3",
            "ticks": 180384,
            "time": 80.528303,
            "velocity": 0.3937007874015748
          },
          {
            "duration": 0.042856999999997925,
            "durationTicks": 96,
            "midi": 50,
            "name": "D3",
            "ticks": 180576,
            "time": 80.614017,
            "velocity": 0.3937007874015748
          },
          {
            "duration": 0.042856999999997925,
            "durationTicks": 96,
            "midi": 50,
            "name": "D3",
            "ticks": 180768,
            "time": 80.699731,
            "velocity": 0.3937007874015748
          },
          {
            "duration": 0.042856999999997925,
            "durationTicks": 96,
            "midi": 50,
            "name": "D3",
            "ticks": 180960,
            "time": 80.785445,
            "velocity": 0.3937007874015748
          },
          {
            "duration": 0.042857000000012135,
            "durationTicks": 96,
            "midi": 50,
            "name": "D3",
            "ticks": 181152,
            "time": 80.87115899999999,
            "velocity": 0.3937007874015748
          },
          {
            "duration": 0.042856999999997925,
            "durationTicks": 96,
            "midi": 50,
            "name": "D3",
            "ticks": 181344,
            "time": 80.956873,
            "velocity": 0.3937007874015748
          },
          {
            "duration": 0.042856999999997925,
            "durationTicks": 96,
            "midi": 50,
            "name": "D3",
            "ticks": 181536,
            "time": 81.042587,
            "velocity": 0.3937007874015748
          },
          {
            "duration": 0.042857000000012135,
            "durationTicks": 96,
            "midi": 50,
            "name": "D3",
            "ticks": 181728,
            "time": 81.128301,
            "velocity": 0.3937007874015748
          },
          {
            "duration": 0.042856999999997925,
            "durationTicks": 96,
            "midi": 50,
            "name": "D3",
            "ticks": 181920,
            "time": 81.214015,
            "velocity": 0.3937007874015748
          },
          {
            "duration": 0.042856999999997925,
            "durationTicks": 96,
            "midi": 50,
            "name": "D3",
            "ticks": 182112,
            "time": 81.299729,
            "velocity": 0.3937007874015748
          },
          {
            "duration": 0.042856999999997925,
            "durationTicks": 96,
            "midi": 50,
            "name": "D3",
            "ticks": 182304,
            "time": 81.385443,
            "velocity": 0.3937007874015748
          },
          {
            "duration": 0.042856999999997925,
            "durationTicks": 96,
            "midi": 50,
            "name": "D3",
            "ticks": 182496,
            "time": 81.471157,
            "velocity": 0.3937007874015748
          },
          {
            "duration": 0.042856999999997925,
            "durationTicks": 96,
            "midi": 50,
            "name": "D3",
            "ticks": 182688,
            "time": 81.556871,
            "velocity": 0.3937007874015748
          },
          {
            "duration": 0.042856999999997925,
            "durationTicks": 96,
            "midi": 48,
            "name": "C3",
            "ticks": 182880,
            "time": 81.642585,
            "velocity": 0.3937007874015748
          },
          {
            "duration": 0.042857000000012135,
            "durationTicks": 96,
            "midi": 48,
            "name": "C3",
            "ticks": 183072,
            "time": 81.72829899999999,
            "velocity": 0.3937007874015748
          },
          {
            "duration": 0.042856999999997925,
            "durationTicks": 96,
            "midi": 48,
            "name": "C3",
            "ticks": 183264,
            "time": 81.814013,
            "velocity": 0.3937007874015748
          },
          {
            "duration": 0.042856999999997925,
            "durationTicks": 96,
            "midi": 48,
            "name": "C3",
            "ticks": 183456,
            "time": 81.899727,
            "velocity": 0.3937007874015748
          },
          {
            "duration": 0.042856999999997925,
            "durationTicks": 96,
            "midi": 48,
            "name": "C3",
            "ticks": 183648,
            "time": 81.985441,
            "velocity": 0.3937007874015748
          },
          {
            "duration": 0.042856999999997925,
            "durationTicks": 96,
            "midi": 48,
            "name": "C3",
            "ticks": 183840,
            "time": 82.071155,
            "velocity": 0.3937007874015748
          },
          {
            "duration": 0.042856999999997925,
            "durationTicks": 96,
            "midi": 48,
            "name": "C3",
            "ticks": 184032,
            "time": 82.156869,
            "velocity": 0.3937007874015748
          },
          {
            "duration": 0.042856999999997925,
            "durationTicks": 96,
            "midi": 48,
            "name": "C3",
            "ticks": 184224,
            "time": 82.242583,
            "velocity": 0.3937007874015748
          },
          {
            "duration": 0.042857000000012135,
            "durationTicks": 96,
            "midi": 48,
            "name": "C3",
            "ticks": 184416,
            "time": 82.32829699999999,
            "velocity": 0.3937007874015748
          },
          {
            "duration": 0.042856999999997925,
            "durationTicks": 96,
            "midi": 48,
            "name": "C3",
            "ticks": 184608,
            "time": 82.414011,
            "velocity": 0.3937007874015748
          },
          {
            "duration": 0.042856999999997925,
            "durationTicks": 96,
            "midi": 48,
            "name": "C3",
            "ticks": 184800,
            "time": 82.499725,
            "velocity": 0.3937007874015748
          },
          {
            "duration": 0.042856999999997925,
            "durationTicks": 96,
            "midi": 48,
            "name": "C3",
            "ticks": 184992,
            "time": 82.585439,
            "velocity": 0.3937007874015748
          },
          {
            "duration": 0.042856999999997925,
            "durationTicks": 96,
            "midi": 48,
            "name": "C3",
            "ticks": 185184,
            "time": 82.671153,
            "velocity": 0.3937007874015748
          },
          {
            "duration": 0.042856999999997925,
            "durationTicks": 96,
            "midi": 48,
            "name": "C3",
            "ticks": 185376,
            "time": 82.756867,
            "velocity": 0.3937007874015748
          },
          {
            "duration": 0.042856999999997925,
            "durationTicks": 96,
            "midi": 48,
            "name": "C3",
            "ticks": 185568,
            "time": 82.842581,
            "velocity": 0.3937007874015748
          },
          {
            "duration": 0.042856999999997925,
            "durationTicks": 96,
            "midi": 48,
            "name": "C3",
            "ticks": 185760,
            "time": 82.928295,
            "velocity": 0.3937007874015748
          },
          {
            "duration": 0.042856999999997925,
            "durationTicks": 96,
            "midi": 48,
            "name": "C3",
            "ticks": 185952,
            "time": 83.014009,
            "velocity": 0.3937007874015748
          },
          {
            "duration": 0.042856999999997925,
            "durationTicks": 96,
            "midi": 48,
            "name": "C3",
            "ticks": 186144,
            "time": 83.099723,
            "velocity": 0.3937007874015748
          },
          {
            "duration": 0.042857000000012135,
            "durationTicks": 96,
            "midi": 48,
            "name": "C3",
            "ticks": 186336,
            "time": 83.185437,
            "velocity": 0.3937007874015748
          },
          {
            "duration": 0.042856999999997925,
            "durationTicks": 96,
            "midi": 48,
            "name": "C3",
            "ticks": 186528,
            "time": 83.271151,
            "velocity": 0.3937007874015748
          },
          {
            "duration": 0.042856999999997925,
            "durationTicks": 96,
            "midi": 48,
            "name": "C3",
            "ticks": 186720,
            "time": 83.356865,
            "velocity": 0.3937007874015748
          },
          {
            "duration": 0.042856999999997925,
            "durationTicks": 96,
            "midi": 48,
            "name": "C3",
            "ticks": 186912,
            "time": 83.442579,
            "velocity": 0.3937007874015748
          },
          {
            "duration": 0.042856999999997925,
            "durationTicks": 96,
            "midi": 48,
            "name": "C3",
            "ticks": 187104,
            "time": 83.528293,
            "velocity": 0.3937007874015748
          },
          {
            "duration": 0.042856999999997925,
            "durationTicks": 96,
            "midi": 48,
            "name": "C3",
            "ticks": 187296,
            "time": 83.614007,
            "velocity": 0.3937007874015748
          },
          {
            "duration": 0.042856999999997925,
            "durationTicks": 96,
            "midi": 48,
            "name": "C3",
            "ticks": 187488,
            "time": 83.699721,
            "velocity": 0.3937007874015748
          },
          {
            "duration": 0.042857000000012135,
            "durationTicks": 96,
            "midi": 48,
            "name": "C3",
            "ticks": 187680,
            "time": 83.78543499999999,
            "velocity": 0.3937007874015748
          },
          {
            "duration": 0.042856999999997925,
            "durationTicks": 96,
            "midi": 48,
            "name": "C3",
            "ticks": 187872,
            "time": 83.871149,
            "velocity": 0.3937007874015748
          },
          {
            "duration": 0.042856999999997925,
            "durationTicks": 96,
            "midi": 48,
            "name": "C3",
            "ticks": 188064,
            "time": 83.956863,
            "velocity": 0.3937007874015748
          },
          {
            "duration": 0.042856999999997925,
            "durationTicks": 96,
            "midi": 48,
            "name": "C3",
            "ticks": 188256,
            "time": 84.042577,
            "velocity": 0.3937007874015748
          },
          {
            "duration": 0.042856999999997925,
            "durationTicks": 96,
            "midi": 48,
            "name": "C3",
            "ticks": 188448,
            "time": 84.128291,
            "velocity": 0.3937007874015748
          },
          {
            "duration": 0.042856999999997925,
            "durationTicks": 96,
            "midi": 48,
            "name": "C3",
            "ticks": 188640,
            "time": 84.214005,
            "velocity": 0.3937007874015748
          },
          {
            "duration": 0.042856999999997925,
            "durationTicks": 96,
            "midi": 48,
            "name": "C3",
            "ticks": 188832,
            "time": 84.299719,
            "velocity": 0.3937007874015748
          },
          {
            "duration": 0.042857000000012135,
            "durationTicks": 96,
            "midi": 50,
            "name": "D3",
            "ticks": 189024,
            "time": 84.38543299999999,
            "velocity": 0.3937007874015748
          },
          {
            "duration": 0.042856999999997925,
            "durationTicks": 96,
            "midi": 50,
            "name": "D3",
            "ticks": 189216,
            "time": 84.471147,
            "velocity": 0.3937007874015748
          },
          {
            "duration": 0.042856999999997925,
            "durationTicks": 96,
            "midi": 50,
            "name": "D3",
            "ticks": 189408,
            "time": 84.556861,
            "velocity": 0.3937007874015748
          },
          {
            "duration": 0.042856999999997925,
            "durationTicks": 96,
            "midi": 50,
            "name": "D3",
            "ticks": 189600,
            "time": 84.642575,
            "velocity": 0.3937007874015748
          },
          {
            "duration": 0.042856999999997925,
            "durationTicks": 96,
            "midi": 50,
            "name": "D3",
            "ticks": 189792,
            "time": 84.728289,
            "velocity": 0.3937007874015748
          },
          {
            "duration": 0.042856999999997925,
            "durationTicks": 96,
            "midi": 50,
            "name": "D3",
            "ticks": 189984,
            "time": 84.814003,
            "velocity": 0.3937007874015748
          },
          {
            "duration": 0.042856999999997925,
            "durationTicks": 96,
            "midi": 50,
            "name": "D3",
            "ticks": 190176,
            "time": 84.899717,
            "velocity": 0.3937007874015748
          },
          {
            "duration": 0.042856999999997925,
            "durationTicks": 96,
            "midi": 50,
            "name": "D3",
            "ticks": 190368,
            "time": 84.985431,
            "velocity": 0.3937007874015748
          },
          {
            "duration": 0.042856999999997925,
            "durationTicks": 96,
            "midi": 50,
            "name": "D3",
            "ticks": 190560,
            "time": 85.071145,
            "velocity": 0.3937007874015748
          },
          {
            "duration": 0.042856999999997925,
            "durationTicks": 96,
            "midi": 50,
            "name": "D3",
            "ticks": 190752,
            "time": 85.156859,
            "velocity": 0.3937007874015748
          },
          {
            "duration": 0.042857000000012135,
            "durationTicks": 96,
            "midi": 50,
            "name": "D3",
            "ticks": 190944,
            "time": 85.242573,
            "velocity": 0.3937007874015748
          },
          {
            "duration": 0.042856999999997925,
            "durationTicks": 96,
            "midi": 50,
            "name": "D3",
            "ticks": 191136,
            "time": 85.328287,
            "velocity": 0.3937007874015748
          },
          {
            "duration": 0.042856999999997925,
            "durationTicks": 96,
            "midi": 50,
            "name": "D3",
            "ticks": 191328,
            "time": 85.414001,
            "velocity": 0.3937007874015748
          },
          {
            "duration": 0.042856999999997925,
            "durationTicks": 96,
            "midi": 50,
            "name": "D3",
            "ticks": 191520,
            "time": 85.499715,
            "velocity": 0.3937007874015748
          },
          {
            "duration": 0.042856999999997925,
            "durationTicks": 96,
            "midi": 50,
            "name": "D3",
            "ticks": 191712,
            "time": 85.585429,
            "velocity": 0.3937007874015748
          },
          {
            "duration": 0.042856999999997925,
            "durationTicks": 96,
            "midi": 50,
            "name": "D3",
            "ticks": 191904,
            "time": 85.671143,
            "velocity": 0.3937007874015748
          },
          {
            "duration": 0.042856999999997925,
            "durationTicks": 96,
            "midi": 50,
            "name": "D3",
            "ticks": 192096,
            "time": 85.756857,
            "velocity": 0.3937007874015748
          },
          {
            "duration": 0.042857000000012135,
            "durationTicks": 96,
            "midi": 50,
            "name": "D3",
            "ticks": 192288,
            "time": 85.84257099999999,
            "velocity": 0.3937007874015748
          },
          {
            "duration": 0.042856999999997925,
            "durationTicks": 96,
            "midi": 50,
            "name": "D3",
            "ticks": 192480,
            "time": 85.928285,
            "velocity": 0.3937007874015748
          },
          {
            "duration": 0.042856999999997925,
            "durationTicks": 96,
            "midi": 50,
            "name": "D3",
            "ticks": 192672,
            "time": 86.013999,
            "velocity": 0.3937007874015748
          },
          {
            "duration": 0.042856999999997925,
            "durationTicks": 96,
            "midi": 50,
            "name": "D3",
            "ticks": 192864,
            "time": 86.099713,
            "velocity": 0.3937007874015748
          },
          {
            "duration": 0.042856999999997925,
            "durationTicks": 96,
            "midi": 50,
            "name": "D3",
            "ticks": 193056,
            "time": 86.185427,
            "velocity": 0.3937007874015748
          },
          {
            "duration": 0.042856999999997925,
            "durationTicks": 96,
            "midi": 50,
            "name": "D3",
            "ticks": 193248,
            "time": 86.271141,
            "velocity": 0.3937007874015748
          },
          {
            "duration": 0.042856999999997925,
            "durationTicks": 96,
            "midi": 50,
            "name": "D3",
            "ticks": 193440,
            "time": 86.356855,
            "velocity": 0.3937007874015748
          },
          {
            "duration": 0.042857000000012135,
            "durationTicks": 96,
            "midi": 50,
            "name": "D3",
            "ticks": 193632,
            "time": 86.44256899999999,
            "velocity": 0.3937007874015748
          },
          {
            "duration": 0.042856999999997925,
            "durationTicks": 96,
            "midi": 50,
            "name": "D3",
            "ticks": 193824,
            "time": 86.528283,
            "velocity": 0.3937007874015748
          },
          {
            "duration": 0.042856999999997925,
            "durationTicks": 96,
            "midi": 50,
            "name": "D3",
            "ticks": 194016,
            "time": 86.613997,
            "velocity": 0.3937007874015748
          },
          {
            "duration": 0.042856999999997925,
            "durationTicks": 96,
            "midi": 50,
            "name": "D3",
            "ticks": 194208,
            "time": 86.699711,
            "velocity": 0.3937007874015748
          },
          {
            "duration": 0.042856999999997925,
            "durationTicks": 96,
            "midi": 50,
            "name": "D3",
            "ticks": 194400,
            "time": 86.785425,
            "velocity": 0.3937007874015748
          },
          {
            "duration": 0.042856999999997925,
            "durationTicks": 96,
            "midi": 50,
            "name": "D3",
            "ticks": 194592,
            "time": 86.871139,
            "velocity": 0.3937007874015748
          },
          {
            "duration": 0.042856999999997925,
            "durationTicks": 96,
            "midi": 50,
            "name": "D3",
            "ticks": 194784,
            "time": 86.956853,
            "velocity": 0.3937007874015748
          },
          {
            "duration": 0.042856999999997925,
            "durationTicks": 96,
            "midi": 50,
            "name": "D3",
            "ticks": 194976,
            "time": 87.042567,
            "velocity": 0.3937007874015748
          },
          {
            "duration": 0.042856999999997925,
            "durationTicks": 96,
            "midi": 48,
            "name": "C3",
            "ticks": 195168,
            "time": 87.128281,
            "velocity": 0.3937007874015748
          },
          {
            "duration": 0.042856999999997925,
            "durationTicks": 96,
            "midi": 48,
            "name": "C3",
            "ticks": 195360,
            "time": 87.213995,
            "velocity": 0.3937007874015748
          },
          {
            "duration": 0.042857000000012135,
            "durationTicks": 96,
            "midi": 48,
            "name": "C3",
            "ticks": 195552,
            "time": 87.299709,
            "velocity": 0.3937007874015748
          },
          {
            "duration": 0.042856999999997925,
            "durationTicks": 96,
            "midi": 48,
            "name": "C3",
            "ticks": 195744,
            "time": 87.385423,
            "velocity": 0.3937007874015748
          },
          {
            "duration": 0.042856999999997925,
            "durationTicks": 96,
            "midi": 48,
            "name": "C3",
            "ticks": 195936,
            "time": 87.471137,
            "velocity": 0.3937007874015748
          },
          {
            "duration": 0.042856999999997925,
            "durationTicks": 96,
            "midi": 48,
            "name": "C3",
            "ticks": 196128,
            "time": 87.556851,
            "velocity": 0.3937007874015748
          },
          {
            "duration": 0.042856999999997925,
            "durationTicks": 96,
            "midi": 48,
            "name": "C3",
            "ticks": 196320,
            "time": 87.642565,
            "velocity": 0.3937007874015748
          },
          {
            "duration": 0.042856999999997925,
            "durationTicks": 96,
            "midi": 48,
            "name": "C3",
            "ticks": 196512,
            "time": 87.728279,
            "velocity": 0.3937007874015748
          },
          {
            "duration": 0.042856999999997925,
            "durationTicks": 96,
            "midi": 48,
            "name": "C3",
            "ticks": 196704,
            "time": 87.813993,
            "velocity": 0.3937007874015748
          },
          {
            "duration": 0.042857000000012135,
            "durationTicks": 96,
            "midi": 48,
            "name": "C3",
            "ticks": 196896,
            "time": 87.89970699999999,
            "velocity": 0.3937007874015748
          },
          {
            "duration": 0.042856999999997925,
            "durationTicks": 96,
            "midi": 48,
            "name": "C3",
            "ticks": 197088,
            "time": 87.985421,
            "velocity": 0.3937007874015748
          },
          {
            "duration": 0.042856999999997925,
            "durationTicks": 96,
            "midi": 48,
            "name": "C3",
            "ticks": 197280,
            "time": 88.071135,
            "velocity": 0.3937007874015748
          },
          {
            "duration": 0.042856999999997925,
            "durationTicks": 96,
            "midi": 48,
            "name": "C3",
            "ticks": 197472,
            "time": 88.156849,
            "velocity": 0.3937007874015748
          },
          {
            "duration": 0.042856999999997925,
            "durationTicks": 96,
            "midi": 48,
            "name": "C3",
            "ticks": 197664,
            "time": 88.242563,
            "velocity": 0.3937007874015748
          },
          {
            "duration": 0.042856999999997925,
            "durationTicks": 96,
            "midi": 48,
            "name": "C3",
            "ticks": 197856,
            "time": 88.328277,
            "velocity": 0.3937007874015748
          },
          {
            "duration": 0.042856999999997925,
            "durationTicks": 96,
            "midi": 48,
            "name": "C3",
            "ticks": 198048,
            "time": 88.413991,
            "velocity": 0.3937007874015748
          },
          {
            "duration": 0.042857000000012135,
            "durationTicks": 96,
            "midi": 48,
            "name": "C3",
            "ticks": 198240,
            "time": 88.49970499999999,
            "velocity": 0.3937007874015748
          },
          {
            "duration": 0.042856999999997925,
            "durationTicks": 96,
            "midi": 48,
            "name": "C3",
            "ticks": 198432,
            "time": 88.585419,
            "velocity": 0.3937007874015748
          },
          {
            "duration": 0.042856999999997925,
            "durationTicks": 96,
            "midi": 48,
            "name": "C3",
            "ticks": 198624,
            "time": 88.671133,
            "velocity": 0.3937007874015748
          },
          {
            "duration": 0.042857000000012135,
            "durationTicks": 96,
            "midi": 48,
            "name": "C3",
            "ticks": 198816,
            "time": 88.756847,
            "velocity": 0.3937007874015748
          },
          {
            "duration": 0.042856999999997925,
            "durationTicks": 96,
            "midi": 48,
            "name": "C3",
            "ticks": 199008,
            "time": 88.842561,
            "velocity": 0.3937007874015748
          },
          {
            "duration": 0.042856999999997925,
            "durationTicks": 96,
            "midi": 48,
            "name": "C3",
            "ticks": 199200,
            "time": 88.928275,
            "velocity": 0.3937007874015748
          },
          {
            "duration": 0.042856999999997925,
            "durationTicks": 96,
            "midi": 48,
            "name": "C3",
            "ticks": 199392,
            "time": 89.013989,
            "velocity": 0.3937007874015748
          },
          {
            "duration": 0.042856999999997925,
            "durationTicks": 96,
            "midi": 48,
            "name": "C3",
            "ticks": 199584,
            "time": 89.099703,
            "velocity": 0.3937007874015748
          },
          {
            "duration": 0.042856999999997925,
            "durationTicks": 96,
            "midi": 48,
            "name": "C3",
            "ticks": 199776,
            "time": 89.185417,
            "velocity": 0.3937007874015748
          },
          {
            "duration": 0.042856999999997925,
            "durationTicks": 96,
            "midi": 48,
            "name": "C3",
            "ticks": 199968,
            "time": 89.271131,
            "velocity": 0.3937007874015748
          },
          {
            "duration": 0.042857000000012135,
            "durationTicks": 96,
            "midi": 48,
            "name": "C3",
            "ticks": 200160,
            "time": 89.35684499999999,
            "velocity": 0.3937007874015748
          },
          {
            "duration": 0.042856999999997925,
            "durationTicks": 96,
            "midi": 48,
            "name": "C3",
            "ticks": 200352,
            "time": 89.442559,
            "velocity": 0.3937007874015748
          },
          {
            "duration": 0.042856999999997925,
            "durationTicks": 96,
            "midi": 48,
            "name": "C3",
            "ticks": 200544,
            "time": 89.528273,
            "velocity": 0.3937007874015748
          },
          {
            "duration": 0.042856999999997925,
            "durationTicks": 96,
            "midi": 48,
            "name": "C3",
            "ticks": 200736,
            "time": 89.613987,
            "velocity": 0.3937007874015748
          },
          {
            "duration": 0.042856999999997925,
            "durationTicks": 96,
            "midi": 48,
            "name": "C3",
            "ticks": 200928,
            "time": 89.699701,
            "velocity": 0.3937007874015748
          },
          {
            "duration": 0.042856999999997925,
            "durationTicks": 96,
            "midi": 48,
            "name": "C3",
            "ticks": 201120,
            "time": 89.785415,
            "velocity": 0.3937007874015748
          },
          {
            "duration": 0.042856999999997925,
            "durationTicks": 96,
            "midi": 50,
            "name": "D3",
            "ticks": 201312,
            "time": 89.871129,
            "velocity": 0.3937007874015748
          },
          {
            "duration": 0.042857000000012135,
            "durationTicks": 96,
            "midi": 50,
            "name": "D3",
            "ticks": 201504,
            "time": 89.95684299999999,
            "velocity": 0.3937007874015748
          },
          {
            "duration": 0.042856999999997925,
            "durationTicks": 96,
            "midi": 50,
            "name": "D3",
            "ticks": 201696,
            "time": 90.042557,
            "velocity": 0.3937007874015748
          },
          {
            "duration": 0.042856999999997925,
            "durationTicks": 96,
            "midi": 50,
            "name": "D3",
            "ticks": 201888,
            "time": 90.128271,
            "velocity": 0.3937007874015748
          },
          {
            "duration": 0.042856999999997925,
            "durationTicks": 96,
            "midi": 50,
            "name": "D3",
            "ticks": 202080,
            "time": 90.213985,
            "velocity": 0.3937007874015748
          },
          {
            "duration": 0.042856999999997925,
            "durationTicks": 96,
            "midi": 50,
            "name": "D3",
            "ticks": 202272,
            "time": 90.299699,
            "velocity": 0.3937007874015748
          },
          {
            "duration": 0.042856999999997925,
            "durationTicks": 96,
            "midi": 50,
            "name": "D3",
            "ticks": 202464,
            "time": 90.385413,
            "velocity": 0.3937007874015748
          },
          {
            "duration": 0.042856999999997925,
            "durationTicks": 96,
            "midi": 50,
            "name": "D3",
            "ticks": 202656,
            "time": 90.471127,
            "velocity": 0.3937007874015748
          },
          {
            "duration": 0.042857000000012135,
            "durationTicks": 96,
            "midi": 50,
            "name": "D3",
            "ticks": 202848,
            "time": 90.55684099999999,
            "velocity": 0.3937007874015748
          },
          {
            "duration": 0.042856999999997925,
            "durationTicks": 96,
            "midi": 50,
            "name": "D3",
            "ticks": 203040,
            "time": 90.642555,
            "velocity": 0.3937007874015748
          },
          {
            "duration": 0.042856999999997925,
            "durationTicks": 96,
            "midi": 50,
            "name": "D3",
            "ticks": 203232,
            "time": 90.728269,
            "velocity": 0.3937007874015748
          },
          {
            "duration": 0.042857000000012135,
            "durationTicks": 96,
            "midi": 50,
            "name": "D3",
            "ticks": 203424,
            "time": 90.813983,
            "velocity": 0.3937007874015748
          },
          {
            "duration": 0.042856999999997925,
            "durationTicks": 96,
            "midi": 50,
            "name": "D3",
            "ticks": 203616,
            "time": 90.899697,
            "velocity": 0.3937007874015748
          },
          {
            "duration": 0.042856999999997925,
            "durationTicks": 96,
            "midi": 50,
            "name": "D3",
            "ticks": 203808,
            "time": 90.985411,
            "velocity": 0.3937007874015748
          },
          {
            "duration": 0.042856999999997925,
            "durationTicks": 96,
            "midi": 50,
            "name": "D3",
            "ticks": 204000,
            "time": 91.071125,
            "velocity": 0.3937007874015748
          },
          {
            "duration": 0.042856999999997925,
            "durationTicks": 96,
            "midi": 50,
            "name": "D3",
            "ticks": 204192,
            "time": 91.156839,
            "velocity": 0.3937007874015748
          },
          {
            "duration": 0.042856999999997925,
            "durationTicks": 96,
            "midi": 50,
            "name": "D3",
            "ticks": 204384,
            "time": 91.242553,
            "velocity": 0.3937007874015748
          },
          {
            "duration": 0.042856999999997925,
            "durationTicks": 96,
            "midi": 50,
            "name": "D3",
            "ticks": 204576,
            "time": 91.328267,
            "velocity": 0.3937007874015748
          },
          {
            "duration": 0.042857000000012135,
            "durationTicks": 96,
            "midi": 50,
            "name": "D3",
            "ticks": 204768,
            "time": 91.41398099999999,
            "velocity": 0.3937007874015748
          },
          {
            "duration": 0.042856999999997925,
            "durationTicks": 96,
            "midi": 50,
            "name": "D3",
            "ticks": 204960,
            "time": 91.499695,
            "velocity": 0.3937007874015748
          },
          {
            "duration": 0.042856999999997925,
            "durationTicks": 96,
            "midi": 50,
            "name": "D3",
            "ticks": 205152,
            "time": 91.585409,
            "velocity": 0.3937007874015748
          },
          {
            "duration": 0.042856999999997925,
            "durationTicks": 96,
            "midi": 50,
            "name": "D3",
            "ticks": 205344,
            "time": 91.671123,
            "velocity": 0.3937007874015748
          },
          {
            "duration": 0.042856999999997925,
            "durationTicks": 96,
            "midi": 50,
            "name": "D3",
            "ticks": 205536,
            "time": 91.756837,
            "velocity": 0.3937007874015748
          },
          {
            "duration": 0.042856999999997925,
            "durationTicks": 96,
            "midi": 50,
            "name": "D3",
            "ticks": 205728,
            "time": 91.842551,
            "velocity": 0.3937007874015748
          },
          {
            "duration": 0.042856999999997925,
            "durationTicks": 96,
            "midi": 50,
            "name": "D3",
            "ticks": 205920,
            "time": 91.928265,
            "velocity": 0.3937007874015748
          },
          {
            "duration": 0.042857000000012135,
            "durationTicks": 96,
            "midi": 50,
            "name": "D3",
            "ticks": 206112,
            "time": 92.01397899999999,
            "velocity": 0.3937007874015748
          },
          {
            "duration": 0.042856999999997925,
            "durationTicks": 96,
            "midi": 50,
            "name": "D3",
            "ticks": 206304,
            "time": 92.099693,
            "velocity": 0.3937007874015748
          },
          {
            "duration": 0.042856999999997925,
            "durationTicks": 96,
            "midi": 50,
            "name": "D3",
            "ticks": 206496,
            "time": 92.185407,
            "velocity": 0.3937007874015748
          },
          {
            "duration": 0.042856999999997925,
            "durationTicks": 96,
            "midi": 50,
            "name": "D3",
            "ticks": 206688,
            "time": 92.271121,
            "velocity": 0.3937007874015748
          },
          {
            "duration": 0.042856999999997925,
            "durationTicks": 96,
            "midi": 50,
            "name": "D3",
            "ticks": 206880,
            "time": 92.356835,
            "velocity": 0.3937007874015748
          },
          {
            "duration": 0.042856999999997925,
            "durationTicks": 96,
            "midi": 50,
            "name": "D3",
            "ticks": 207072,
            "time": 92.442549,
            "velocity": 0.3937007874015748
          },
          {
            "duration": 0.042856999999997925,
            "durationTicks": 96,
            "midi": 50,
            "name": "D3",
            "ticks": 207264,
            "time": 92.528263,
            "velocity": 0.3937007874015748
          },
          {
            "duration": 0.042857000000012135,
            "durationTicks": 96,
            "midi": 48,
            "name": "C3",
            "ticks": 207456,
            "time": 92.61397699999999,
            "velocity": 0.3937007874015748
          },
          {
            "duration": 0.042856999999997925,
            "durationTicks": 96,
            "midi": 48,
            "name": "C3",
            "ticks": 207648,
            "time": 92.699691,
            "velocity": 0.3937007874015748
          },
          {
            "duration": 0.042856999999997925,
            "durationTicks": 96,
            "midi": 48,
            "name": "C3",
            "ticks": 207840,
            "time": 92.785405,
            "velocity": 0.3937007874015748
          },
          {
            "duration": 0.042857000000012135,
            "durationTicks": 96,
            "midi": 48,
            "name": "C3",
            "ticks": 208032,
            "time": 92.871119,
            "velocity": 0.3937007874015748
          },
          {
            "duration": 0.042856999999997925,
            "durationTicks": 96,
            "midi": 48,
            "name": "C3",
            "ticks": 208224,
            "time": 92.956833,
            "velocity": 0.3937007874015748
          },
          {
            "duration": 0.042856999999997925,
            "durationTicks": 96,
            "midi": 48,
            "name": "C3",
            "ticks": 208416,
            "time": 93.042547,
            "velocity": 0.3937007874015748
          },
          {
            "duration": 0.042856999999997925,
            "durationTicks": 96,
            "midi": 48,
            "name": "C3",
            "ticks": 208608,
            "time": 93.128261,
            "velocity": 0.3937007874015748
          },
          {
            "duration": 0.042856999999997925,
            "durationTicks": 96,
            "midi": 48,
            "name": "C3",
            "ticks": 208800,
            "time": 93.213975,
            "velocity": 0.3937007874015748
          },
          {
            "duration": 0.042856999999997925,
            "durationTicks": 96,
            "midi": 48,
            "name": "C3",
            "ticks": 208992,
            "time": 93.299689,
            "velocity": 0.3937007874015748
          },
          {
            "duration": 0.042856999999997925,
            "durationTicks": 96,
            "midi": 48,
            "name": "C3",
            "ticks": 209184,
            "time": 93.385403,
            "velocity": 0.3937007874015748
          },
          {
            "duration": 0.042857000000012135,
            "durationTicks": 96,
            "midi": 48,
            "name": "C3",
            "ticks": 209376,
            "time": 93.47111699999999,
            "velocity": 0.3937007874015748
          },
          {
            "duration": 0.042856999999997925,
            "durationTicks": 96,
            "midi": 48,
            "name": "C3",
            "ticks": 209568,
            "time": 93.556831,
            "velocity": 0.3937007874015748
          },
          {
            "duration": 0.042856999999997925,
            "durationTicks": 96,
            "midi": 48,
            "name": "C3",
            "ticks": 209760,
            "time": 93.642545,
            "velocity": 0.3937007874015748
          },
          {
            "duration": 0.042856999999997925,
            "durationTicks": 96,
            "midi": 48,
            "name": "C3",
            "ticks": 209952,
            "time": 93.728259,
            "velocity": 0.3937007874015748
          },
          {
            "duration": 0.042856999999997925,
            "durationTicks": 96,
            "midi": 48,
            "name": "C3",
            "ticks": 210144,
            "time": 93.813973,
            "velocity": 0.3937007874015748
          },
          {
            "duration": 0.042856999999997925,
            "durationTicks": 96,
            "midi": 48,
            "name": "C3",
            "ticks": 210336,
            "time": 93.899687,
            "velocity": 0.3937007874015748
          },
          {
            "duration": 0.042856999999997925,
            "durationTicks": 96,
            "midi": 48,
            "name": "C3",
            "ticks": 210528,
            "time": 93.985401,
            "velocity": 0.3937007874015748
          },
          {
            "duration": 0.042857000000012135,
            "durationTicks": 96,
            "midi": 48,
            "name": "C3",
            "ticks": 210720,
            "time": 94.07111499999999,
            "velocity": 0.3937007874015748
          },
          {
            "duration": 0.042856999999997925,
            "durationTicks": 96,
            "midi": 48,
            "name": "C3",
            "ticks": 210912,
            "time": 94.156829,
            "velocity": 0.3937007874015748
          },
          {
            "duration": 0.042856999999997925,
            "durationTicks": 96,
            "midi": 48,
            "name": "C3",
            "ticks": 211104,
            "time": 94.242543,
            "velocity": 0.3937007874015748
          },
          {
            "duration": 0.042856999999997925,
            "durationTicks": 96,
            "midi": 48,
            "name": "C3",
            "ticks": 211296,
            "time": 94.328257,
            "velocity": 0.3937007874015748
          },
          {
            "duration": 0.042856999999997925,
            "durationTicks": 96,
            "midi": 48,
            "name": "C3",
            "ticks": 211488,
            "time": 94.413971,
            "velocity": 0.3937007874015748
          },
          {
            "duration": 0.042856999999997925,
            "durationTicks": 96,
            "midi": 48,
            "name": "C3",
            "ticks": 211680,
            "time": 94.499685,
            "velocity": 0.3937007874015748
          },
          {
            "duration": 0.042856999999997925,
            "durationTicks": 96,
            "midi": 48,
            "name": "C3",
            "ticks": 211872,
            "time": 94.585399,
            "velocity": 0.3937007874015748
          },
          {
            "duration": 0.042856999999997925,
            "durationTicks": 96,
            "midi": 48,
            "name": "C3",
            "ticks": 212064,
            "time": 94.671113,
            "velocity": 0.3937007874015748
          },
          {
            "duration": 0.042856999999997925,
            "durationTicks": 96,
            "midi": 48,
            "name": "C3",
            "ticks": 212256,
            "time": 94.756827,
            "velocity": 0.3937007874015748
          },
          {
            "duration": 0.042856999999997925,
            "durationTicks": 96,
            "midi": 48,
            "name": "C3",
            "ticks": 212448,
            "time": 94.842541,
            "velocity": 0.3937007874015748
          },
          {
            "duration": 0.042857000000012135,
            "durationTicks": 96,
            "midi": 48,
            "name": "C3",
            "ticks": 212640,
            "time": 94.928255,
            "velocity": 0.3937007874015748
          },
          {
            "duration": 0.042856999999997925,
            "durationTicks": 96,
            "midi": 48,
            "name": "C3",
            "ticks": 212832,
            "time": 95.013969,
            "velocity": 0.3937007874015748
          },
          {
            "duration": 0.042856999999997925,
            "durationTicks": 96,
            "midi": 48,
            "name": "C3",
            "ticks": 213024,
            "time": 95.099683,
            "velocity": 0.3937007874015748
          },
          {
            "duration": 0.042856999999997925,
            "durationTicks": 96,
            "midi": 48,
            "name": "C3",
            "ticks": 213216,
            "time": 95.185397,
            "velocity": 0.3937007874015748
          },
          {
            "duration": 0.042856999999997925,
            "durationTicks": 96,
            "midi": 48,
            "name": "C3",
            "ticks": 213408,
            "time": 95.271111,
            "velocity": 0.3937007874015748
          },
          {
            "duration": 0.042856999999997925,
            "durationTicks": 96,
            "midi": 50,
            "name": "D3",
            "ticks": 213600,
            "time": 95.356825,
            "velocity": 0.3937007874015748
          },
          {
            "duration": 0.042856999999997925,
            "durationTicks": 96,
            "midi": 50,
            "name": "D3",
            "ticks": 213792,
            "time": 95.442539,
            "velocity": 0.3937007874015748
          },
          {
            "duration": 0.042857000000012135,
            "durationTicks": 96,
            "midi": 50,
            "name": "D3",
            "ticks": 213984,
            "time": 95.52825299999999,
            "velocity": 0.3937007874015748
          },
          {
            "duration": 0.042856999999997925,
            "durationTicks": 96,
            "midi": 50,
            "name": "D3",
            "ticks": 214176,
            "time": 95.613967,
            "velocity": 0.3937007874015748
          },
          {
            "duration": 0.042856999999997925,
            "durationTicks": 96,
            "midi": 50,
            "name": "D3",
            "ticks": 214368,
            "time": 95.699681,
            "velocity": 0.3937007874015748
          },
          {
            "duration": 0.042856999999997925,
            "durationTicks": 96,
            "midi": 50,
            "name": "D3",
            "ticks": 214560,
            "time": 95.785395,
            "velocity": 0.3937007874015748
          },
          {
            "duration": 0.042856999999997925,
            "durationTicks": 96,
            "midi": 50,
            "name": "D3",
            "ticks": 214752,
            "time": 95.871109,
            "velocity": 0.3937007874015748
          },
          {
            "duration": 0.042856999999997925,
            "durationTicks": 96,
            "midi": 50,
            "name": "D3",
            "ticks": 214944,
            "time": 95.956823,
            "velocity": 0.3937007874015748
          },
          {
            "duration": 0.042856999999997925,
            "durationTicks": 96,
            "midi": 50,
            "name": "D3",
            "ticks": 215136,
            "time": 96.042537,
            "velocity": 0.3937007874015748
          },
          {
            "duration": 0.042857000000012135,
            "durationTicks": 96,
            "midi": 50,
            "name": "D3",
            "ticks": 215328,
            "time": 96.12825099999999,
            "velocity": 0.3937007874015748
          },
          {
            "duration": 0.042856999999997925,
            "durationTicks": 96,
            "midi": 50,
            "name": "D3",
            "ticks": 215520,
            "time": 96.213965,
            "velocity": 0.3937007874015748
          },
          {
            "duration": 0.042856999999997925,
            "durationTicks": 96,
            "midi": 50,
            "name": "D3",
            "ticks": 215712,
            "time": 96.299679,
            "velocity": 0.3937007874015748
          },
          {
            "duration": 0.042856999999997925,
            "durationTicks": 96,
            "midi": 50,
            "name": "D3",
            "ticks": 215904,
            "time": 96.385393,
            "velocity": 0.3937007874015748
          },
          {
            "duration": 0.042856999999997925,
            "durationTicks": 96,
            "midi": 50,
            "name": "D3",
            "ticks": 216096,
            "time": 96.471107,
            "velocity": 0.3937007874015748
          },
          {
            "duration": 0.042856999999997925,
            "durationTicks": 96,
            "midi": 50,
            "name": "D3",
            "ticks": 216288,
            "time": 96.556821,
            "velocity": 0.3937007874015748
          },
          {
            "duration": 0.042856999999997925,
            "durationTicks": 96,
            "midi": 50,
            "name": "D3",
            "ticks": 216480,
            "time": 96.642535,
            "velocity": 0.3937007874015748
          },
          {
            "duration": 0.042856999999997925,
            "durationTicks": 96,
            "midi": 50,
            "name": "D3",
            "ticks": 216672,
            "time": 96.728249,
            "velocity": 0.3937007874015748
          },
          {
            "duration": 0.042856999999997925,
            "durationTicks": 96,
            "midi": 50,
            "name": "D3",
            "ticks": 216864,
            "time": 96.813963,
            "velocity": 0.3937007874015748
          },
          {
            "duration": 0.042856999999997925,
            "durationTicks": 96,
            "midi": 50,
            "name": "D3",
            "ticks": 217056,
            "time": 96.899677,
            "velocity": 0.3937007874015748
          },
          {
            "duration": 0.042857000000012135,
            "durationTicks": 96,
            "midi": 50,
            "name": "D3",
            "ticks": 217248,
            "time": 96.98539099999999,
            "velocity": 0.3937007874015748
          },
          {
            "duration": 0.042856999999997925,
            "durationTicks": 96,
            "midi": 50,
            "name": "D3",
            "ticks": 217440,
            "time": 97.071105,
            "velocity": 0.3937007874015748
          },
          {
            "duration": 0.042856999999997925,
            "durationTicks": 96,
            "midi": 50,
            "name": "D3",
            "ticks": 217632,
            "time": 97.156819,
            "velocity": 0.3937007874015748
          },
          {
            "duration": 0.042856999999997925,
            "durationTicks": 96,
            "midi": 50,
            "name": "D3",
            "ticks": 217824,
            "time": 97.242533,
            "velocity": 0.3937007874015748
          },
          {
            "duration": 0.042856999999997925,
            "durationTicks": 96,
            "midi": 50,
            "name": "D3",
            "ticks": 218016,
            "time": 97.328247,
            "velocity": 0.3937007874015748
          },
          {
            "duration": 0.042856999999997925,
            "durationTicks": 96,
            "midi": 50,
            "name": "D3",
            "ticks": 218208,
            "time": 97.413961,
            "velocity": 0.3937007874015748
          },
          {
            "duration": 0.042856999999997925,
            "durationTicks": 96,
            "midi": 50,
            "name": "D3",
            "ticks": 218400,
            "time": 97.499675,
            "velocity": 0.3937007874015748
          },
          {
            "duration": 0.042857000000012135,
            "durationTicks": 96,
            "midi": 50,
            "name": "D3",
            "ticks": 218592,
            "time": 97.58538899999999,
            "velocity": 0.3937007874015748
          },
          {
            "duration": 0.042856999999997925,
            "durationTicks": 96,
            "midi": 50,
            "name": "D3",
            "ticks": 218784,
            "time": 97.671103,
            "velocity": 0.3937007874015748
          },
          {
            "duration": 0.042856999999997925,
            "durationTicks": 96,
            "midi": 50,
            "name": "D3",
            "ticks": 218976,
            "time": 97.756817,
            "velocity": 0.3937007874015748
          },
          {
            "duration": 0.042856999999997925,
            "durationTicks": 96,
            "midi": 50,
            "name": "D3",
            "ticks": 219168,
            "time": 97.842531,
            "velocity": 0.3937007874015748
          },
          {
            "duration": 0.042856999999997925,
            "durationTicks": 96,
            "midi": 50,
            "name": "D3",
            "ticks": 219360,
            "time": 97.928245,
            "velocity": 0.3937007874015748
          },
          {
            "duration": 0.042856999999997925,
            "durationTicks": 96,
            "midi": 50,
            "name": "D3",
            "ticks": 219552,
            "time": 98.013959,
            "velocity": 0.3937007874015748
          },
          {
            "duration": 0.042856999999997925,
            "durationTicks": 96,
            "midi": 52,
            "name": "E3",
            "ticks": 219744,
            "time": 98.099673,
            "velocity": 0.3937007874015748
          },
          {
            "duration": 0.042857000000012135,
            "durationTicks": 96,
            "midi": 52,
            "name": "E3",
            "ticks": 219936,
            "time": 98.18538699999999,
            "velocity": 0.3937007874015748
          },
          {
            "duration": 0.042856999999997925,
            "durationTicks": 96,
            "midi": 52,
            "name": "E3",
            "ticks": 220128,
            "time": 98.271101,
            "velocity": 0.3937007874015748
          },
          {
            "duration": 0.042856999999997925,
            "durationTicks": 96,
            "midi": 52,
            "name": "E3",
            "ticks": 220320,
            "time": 98.356815,
            "velocity": 0.3937007874015748
          },
          {
            "duration": 0.042856999999997925,
            "durationTicks": 96,
            "midi": 52,
            "name": "E3",
            "ticks": 220512,
            "time": 98.442529,
            "velocity": 0.3937007874015748
          },
          {
            "duration": 0.042856999999997925,
            "durationTicks": 96,
            "midi": 52,
            "name": "E3",
            "ticks": 220704,
            "time": 98.528243,
            "velocity": 0.3937007874015748
          },
          {
            "duration": 0.042856999999997925,
            "durationTicks": 96,
            "midi": 52,
            "name": "E3",
            "ticks": 220896,
            "time": 98.613957,
            "velocity": 0.3937007874015748
          },
          {
            "duration": 0.042856999999997925,
            "durationTicks": 96,
            "midi": 52,
            "name": "E3",
            "ticks": 221088,
            "time": 98.699671,
            "velocity": 0.3937007874015748
          },
          {
            "duration": 0.042856999999997925,
            "durationTicks": 96,
            "midi": 52,
            "name": "E3",
            "ticks": 221280,
            "time": 98.785385,
            "velocity": 0.3937007874015748
          },
          {
            "duration": 0.042856999999997925,
            "durationTicks": 96,
            "midi": 52,
            "name": "E3",
            "ticks": 221472,
            "time": 98.871099,
            "velocity": 0.3937007874015748
          },
          {
            "duration": 0.042856999999997925,
            "durationTicks": 96,
            "midi": 52,
            "name": "E3",
            "ticks": 221664,
            "time": 98.956813,
            "velocity": 0.3937007874015748
          },
          {
            "duration": 0.042857000000012135,
            "durationTicks": 96,
            "midi": 52,
            "name": "E3",
            "ticks": 221856,
            "time": 99.04252699999999,
            "velocity": 0.3937007874015748
          },
          {
            "duration": 0.042856999999997925,
            "durationTicks": 96,
            "midi": 52,
            "name": "E3",
            "ticks": 222048,
            "time": 99.128241,
            "velocity": 0.3937007874015748
          },
          {
            "duration": 0.042856999999997925,
            "durationTicks": 96,
            "midi": 52,
            "name": "E3",
            "ticks": 222240,
            "time": 99.213955,
            "velocity": 0.3937007874015748
          },
          {
            "duration": 0.042856999999997925,
            "durationTicks": 96,
            "midi": 52,
            "name": "E3",
            "ticks": 222432,
            "time": 99.299669,
            "velocity": 0.3937007874015748
          },
          {
            "duration": 0.042856999999997925,
            "durationTicks": 96,
            "midi": 52,
            "name": "E3",
            "ticks": 222624,
            "time": 99.385383,
            "velocity": 0.3937007874015748
          },
          {
            "duration": 0.042856999999997925,
            "durationTicks": 96,
            "midi": 52,
            "name": "E3",
            "ticks": 222816,
            "time": 99.471097,
            "velocity": 0.3937007874015748
          },
          {
            "duration": 0.042856999999997925,
            "durationTicks": 96,
            "midi": 52,
            "name": "E3",
            "ticks": 223008,
            "time": 99.556811,
            "velocity": 0.3937007874015748
          },
          {
            "duration": 0.042857000000012135,
            "durationTicks": 96,
            "midi": 52,
            "name": "E3",
            "ticks": 223200,
            "time": 99.64252499999999,
            "velocity": 0.3937007874015748
          },
          {
            "duration": 0.042856999999997925,
            "durationTicks": 96,
            "midi": 52,
            "name": "E3",
            "ticks": 223392,
            "time": 99.728239,
            "velocity": 0.3937007874015748
          },
          {
            "duration": 0.042856999999997925,
            "durationTicks": 96,
            "midi": 50,
            "name": "D3",
            "ticks": 223584,
            "time": 99.813953,
            "velocity": 0.3937007874015748
          },
          {
            "duration": 0.042856999999997925,
            "durationTicks": 96,
            "midi": 50,
            "name": "D3",
            "ticks": 223776,
            "time": 99.899667,
            "velocity": 0.3937007874015748
          },
          {
            "duration": 0.042856999999997925,
            "durationTicks": 96,
            "midi": 50,
            "name": "D3",
            "ticks": 223968,
            "time": 99.985381,
            "velocity": 0.3937007874015748
          },
          {
            "duration": 0.042856999999997925,
            "durationTicks": 96,
            "midi": 50,
            "name": "D3",
            "ticks": 224160,
            "time": 100.071095,
            "velocity": 0.3937007874015748
          },
          {
            "duration": 0.042856999999997925,
            "durationTicks": 96,
            "midi": 48,
            "name": "C3",
            "ticks": 224352,
            "time": 100.156809,
            "velocity": 0.3937007874015748
          },
          {
            "duration": 0.042857000000012135,
            "durationTicks": 96,
            "midi": 48,
            "name": "C3",
            "ticks": 224544,
            "time": 100.24252299999999,
            "velocity": 0.3937007874015748
          },
          {
            "duration": 0.042856999999997925,
            "durationTicks": 96,
            "midi": 48,
            "name": "C3",
            "ticks": 224736,
            "time": 100.328237,
            "velocity": 0.3937007874015748
          },
          {
            "duration": 0.042856999999997925,
            "durationTicks": 96,
            "midi": 48,
            "name": "C3",
            "ticks": 224928,
            "time": 100.413951,
            "velocity": 0.3937007874015748
          },
          {
            "duration": 0.042857000000012135,
            "durationTicks": 96,
            "midi": 47,
            "name": "B2",
            "ticks": 225120,
            "time": 100.499665,
            "velocity": 0.3937007874015748
          },
          {
            "duration": 0.042856999999997925,
            "durationTicks": 96,
            "midi": 47,
            "name": "B2",
            "ticks": 225312,
            "time": 100.585379,
            "velocity": 0.3937007874015748
          },
          {
            "duration": 0.042856999999997925,
            "durationTicks": 96,
            "midi": 47,
            "name": "B2",
            "ticks": 225504,
            "time": 100.671093,
            "velocity": 0.3937007874015748
          },
          {
            "duration": 0.042856999999997925,
            "durationTicks": 96,
            "midi": 47,
            "name": "B2",
            "ticks": 225696,
            "time": 100.756807,
            "velocity": 0.3937007874015748
          },
          {
            "duration": 0.042856999999997925,
            "durationTicks": 96,
            "midi": 45,
            "name": "A2",
            "ticks": 247392,
            "time": 110.442489,
            "velocity": 0.3937007874015748
          },
          {
            "duration": 0.042856999999997925,
            "durationTicks": 96,
            "midi": 45,
            "name": "A2",
            "ticks": 247584,
            "time": 110.528203,
            "velocity": 0.3937007874015748
          },
          {
            "duration": 0.042856999999997925,
            "durationTicks": 96,
            "midi": 45,
            "name": "A2",
            "ticks": 247776,
            "time": 110.613917,
            "velocity": 0.3937007874015748
          },
          {
            "duration": 0.042856999999997925,
            "durationTicks": 96,
            "midi": 45,
            "name": "A2",
            "ticks": 247968,
            "time": 110.699631,
            "velocity": 0.3937007874015748
          },
          {
            "duration": 0.042857000000012135,
            "durationTicks": 96,
            "midi": 45,
            "name": "A2",
            "ticks": 248160,
            "time": 110.78534499999999,
            "velocity": 0.3937007874015748
          },
          {
            "duration": 0.042856999999997925,
            "durationTicks": 96,
            "midi": 45,
            "name": "A2",
            "ticks": 248352,
            "time": 110.871059,
            "velocity": 0.3937007874015748
          },
          {
            "duration": 0.042856999999997925,
            "durationTicks": 96,
            "midi": 45,
            "name": "A2",
            "ticks": 248544,
            "time": 110.956773,
            "velocity": 0.3937007874015748
          },
          {
            "duration": 0.042856999999997925,
            "durationTicks": 96,
            "midi": 45,
            "name": "A2",
            "ticks": 248736,
            "time": 111.042487,
            "velocity": 0.3937007874015748
          },
          {
            "duration": 0.042856999999997925,
            "durationTicks": 96,
            "midi": 45,
            "name": "A2",
            "ticks": 248928,
            "time": 111.128201,
            "velocity": 0.3937007874015748
          },
          {
            "duration": 0.042856999999997925,
            "durationTicks": 96,
            "midi": 45,
            "name": "A2",
            "ticks": 249120,
            "time": 111.213915,
            "velocity": 0.3937007874015748
          },
          {
            "duration": 0.042856999999997925,
            "durationTicks": 96,
            "midi": 45,
            "name": "A2",
            "ticks": 249312,
            "time": 111.299629,
            "velocity": 0.3937007874015748
          },
          {
            "duration": 0.042857000000012135,
            "durationTicks": 96,
            "midi": 45,
            "name": "A2",
            "ticks": 249504,
            "time": 111.38534299999999,
            "velocity": 0.3937007874015748
          },
          {
            "duration": 0.042856999999997925,
            "durationTicks": 96,
            "midi": 45,
            "name": "A2",
            "ticks": 249696,
            "time": 111.471057,
            "velocity": 0.3937007874015748
          },
          {
            "duration": 0.042856999999997925,
            "durationTicks": 96,
            "midi": 45,
            "name": "A2",
            "ticks": 249888,
            "time": 111.556771,
            "velocity": 0.3937007874015748
          },
          {
            "duration": 0.042856999999997925,
            "durationTicks": 96,
            "midi": 45,
            "name": "A2",
            "ticks": 250080,
            "time": 111.642485,
            "velocity": 0.3937007874015748
          },
          {
            "duration": 0.042856999999997925,
            "durationTicks": 96,
            "midi": 45,
            "name": "A2",
            "ticks": 250272,
            "time": 111.728199,
            "velocity": 0.3937007874015748
          },
          {
            "duration": 0.042856999999997925,
            "durationTicks": 96,
            "midi": 45,
            "name": "A2",
            "ticks": 250464,
            "time": 111.813913,
            "velocity": 0.3937007874015748
          },
          {
            "duration": 0.042856999999997925,
            "durationTicks": 96,
            "midi": 45,
            "name": "A2",
            "ticks": 250656,
            "time": 111.899627,
            "velocity": 0.3937007874015748
          },
          {
            "duration": 0.042857000000012135,
            "durationTicks": 96,
            "midi": 45,
            "name": "A2",
            "ticks": 250848,
            "time": 111.98534099999999,
            "velocity": 0.3937007874015748
          },
          {
            "duration": 0.042856999999997925,
            "durationTicks": 96,
            "midi": 45,
            "name": "A2",
            "ticks": 251040,
            "time": 112.071055,
            "velocity": 0.3937007874015748
          },
          {
            "duration": 0.042856999999997925,
            "durationTicks": 96,
            "midi": 45,
            "name": "A2",
            "ticks": 251232,
            "time": 112.156769,
            "velocity": 0.3937007874015748
          },
          {
            "duration": 0.042857000000012135,
            "durationTicks": 96,
            "midi": 45,
            "name": "A2",
            "ticks": 251424,
            "time": 112.242483,
            "velocity": 0.3937007874015748
          },
          {
            "duration": 0.042856999999997925,
            "durationTicks": 96,
            "midi": 45,
            "name": "A2",
            "ticks": 251616,
            "time": 112.328197,
            "velocity": 0.3937007874015748
          },
          {
            "duration": 0.042856999999997925,
            "durationTicks": 96,
            "midi": 45,
            "name": "A2",
            "ticks": 251808,
            "time": 112.413911,
            "velocity": 0.3937007874015748
          },
          {
            "duration": 0.042856999999997925,
            "durationTicks": 96,
            "midi": 45,
            "name": "A2",
            "ticks": 252000,
            "time": 112.499625,
            "velocity": 0.3937007874015748
          },
          {
            "duration": 0.042856999999997925,
            "durationTicks": 96,
            "midi": 45,
            "name": "A2",
            "ticks": 252192,
            "time": 112.585339,
            "velocity": 0.3937007874015748
          },
          {
            "duration": 0.042856999999997925,
            "durationTicks": 96,
            "midi": 45,
            "name": "A2",
            "ticks": 252384,
            "time": 112.671053,
            "velocity": 0.3937007874015748
          },
          {
            "duration": 0.042856999999997925,
            "durationTicks": 96,
            "midi": 45,
            "name": "A2",
            "ticks": 252576,
            "time": 112.756767,
            "velocity": 0.3937007874015748
          },
          {
            "duration": 0.042857000000012135,
            "durationTicks": 96,
            "midi": 45,
            "name": "A2",
            "ticks": 252768,
            "time": 112.84248099999999,
            "velocity": 0.3937007874015748
          },
          {
            "duration": 0.042856999999997925,
            "durationTicks": 96,
            "midi": 45,
            "name": "A2",
            "ticks": 252960,
            "time": 112.928195,
            "velocity": 0.3937007874015748
          },
          {
            "duration": 0.042856999999997925,
            "durationTicks": 96,
            "midi": 45,
            "name": "A2",
            "ticks": 253152,
            "time": 113.013909,
            "velocity": 0.3937007874015748
          },
          {
            "duration": 0.042856999999997925,
            "durationTicks": 96,
            "midi": 45,
            "name": "A2",
            "ticks": 253344,
            "time": 113.099623,
            "velocity": 0.3937007874015748
          },
          {
            "duration": 0.042856999999997925,
            "durationTicks": 96,
            "midi": 45,
            "name": "A2",
            "ticks": 253536,
            "time": 113.185337,
            "velocity": 0.3937007874015748
          },
          {
            "duration": 0.042856999999997925,
            "durationTicks": 96,
            "midi": 45,
            "name": "A2",
            "ticks": 253728,
            "time": 113.271051,
            "velocity": 0.3937007874015748
          },
          {
            "duration": 0.042856999999997925,
            "durationTicks": 96,
            "midi": 45,
            "name": "A2",
            "ticks": 253920,
            "time": 113.356765,
            "velocity": 0.3937007874015748
          },
          {
            "duration": 0.042857000000012135,
            "durationTicks": 96,
            "midi": 45,
            "name": "A2",
            "ticks": 254112,
            "time": 113.44247899999999,
            "velocity": 0.3937007874015748
          },
          {
            "duration": 0.042856999999997925,
            "durationTicks": 96,
            "midi": 45,
            "name": "A2",
            "ticks": 254304,
            "time": 113.528193,
            "velocity": 0.3937007874015748
          },
          {
            "duration": 0.042856999999997925,
            "durationTicks": 96,
            "midi": 45,
            "name": "A2",
            "ticks": 254496,
            "time": 113.613907,
            "velocity": 0.3937007874015748
          },
          {
            "duration": 0.042856999999997925,
            "durationTicks": 96,
            "midi": 45,
            "name": "A2",
            "ticks": 254688,
            "time": 113.699621,
            "velocity": 0.3937007874015748
          },
          {
            "duration": 0.042856999999997925,
            "durationTicks": 96,
            "midi": 45,
            "name": "A2",
            "ticks": 254880,
            "time": 113.785335,
            "velocity": 0.3937007874015748
          },
          {
            "duration": 0.042856999999997925,
            "durationTicks": 96,
            "midi": 45,
            "name": "A2",
            "ticks": 255072,
            "time": 113.871049,
            "velocity": 0.3937007874015748
          },
          {
            "duration": 0.042856999999997925,
            "durationTicks": 96,
            "midi": 45,
            "name": "A2",
            "ticks": 255264,
            "time": 113.956763,
            "velocity": 0.3937007874015748
          },
          {
            "duration": 0.042857000000012135,
            "durationTicks": 96,
            "midi": 45,
            "name": "A2",
            "ticks": 255456,
            "time": 114.04247699999999,
            "velocity": 0.3937007874015748
          },
          {
            "duration": 0.042856999999997925,
            "durationTicks": 96,
            "midi": 45,
            "name": "A2",
            "ticks": 255648,
            "time": 114.128191,
            "velocity": 0.3937007874015748
          },
          {
            "duration": 0.042856999999997925,
            "durationTicks": 96,
            "midi": 45,
            "name": "A2",
            "ticks": 255840,
            "time": 114.213905,
            "velocity": 0.3937007874015748
          },
          {
            "duration": 0.042857000000012135,
            "durationTicks": 96,
            "midi": 45,
            "name": "A2",
            "ticks": 256032,
            "time": 114.29961899999999,
            "velocity": 0.3937007874015748
          },
          {
            "duration": 0.042856999999997925,
            "durationTicks": 96,
            "midi": 45,
            "name": "A2",
            "ticks": 256224,
            "time": 114.385333,
            "velocity": 0.3937007874015748
          },
          {
            "duration": 0.042856999999997925,
            "durationTicks": 96,
            "midi": 45,
            "name": "A2",
            "ticks": 256416,
            "time": 114.471047,
            "velocity": 0.3937007874015748
          },
          {
            "duration": 0.042856999999997925,
            "durationTicks": 96,
            "midi": 45,
            "name": "A2",
            "ticks": 256608,
            "time": 114.556761,
            "velocity": 0.3937007874015748
          },
          {
            "duration": 0.042856999999997925,
            "durationTicks": 96,
            "midi": 45,
            "name": "A2",
            "ticks": 256800,
            "time": 114.642475,
            "velocity": 0.3937007874015748
          },
          {
            "duration": 0.042856999999997925,
            "durationTicks": 96,
            "midi": 45,
            "name": "A2",
            "ticks": 256992,
            "time": 114.728189,
            "velocity": 0.3937007874015748
          },
          {
            "duration": 0.042856999999997925,
            "durationTicks": 96,
            "midi": 45,
            "name": "A2",
            "ticks": 257184,
            "time": 114.813903,
            "velocity": 0.3937007874015748
          },
          {
            "duration": 0.042857000000012135,
            "durationTicks": 96,
            "midi": 45,
            "name": "A2",
            "ticks": 257376,
            "time": 114.89961699999999,
            "velocity": 0.3937007874015748
          },
          {
            "duration": 0.042856999999997925,
            "durationTicks": 96,
            "midi": 45,
            "name": "A2",
            "ticks": 257568,
            "time": 114.985331,
            "velocity": 0.3937007874015748
          },
          {
            "duration": 0.042856999999997925,
            "durationTicks": 96,
            "midi": 45,
            "name": "A2",
            "ticks": 257760,
            "time": 115.071045,
            "velocity": 0.3937007874015748
          },
          {
            "duration": 0.042856999999997925,
            "durationTicks": 96,
            "midi": 45,
            "name": "A2",
            "ticks": 257952,
            "time": 115.156759,
            "velocity": 0.3937007874015748
          },
          {
            "duration": 0.042856999999997925,
            "durationTicks": 96,
            "midi": 45,
            "name": "A2",
            "ticks": 258144,
            "time": 115.242473,
            "velocity": 0.3937007874015748
          },
          {
            "duration": 0.042856999999997925,
            "durationTicks": 96,
            "midi": 45,
            "name": "A2",
            "ticks": 258336,
            "time": 115.328187,
            "velocity": 0.3937007874015748
          },
          {
            "duration": 0.042856999999997925,
            "durationTicks": 96,
            "midi": 45,
            "name": "A2",
            "ticks": 258528,
            "time": 115.413901,
            "velocity": 0.3937007874015748
          },
          {
            "duration": 0.042857000000012135,
            "durationTicks": 96,
            "midi": 45,
            "name": "A2",
            "ticks": 258720,
            "time": 115.49961499999999,
            "velocity": 0.3937007874015748
          },
          {
            "duration": 0.042856999999997925,
            "durationTicks": 96,
            "midi": 45,
            "name": "A2",
            "ticks": 258912,
            "time": 115.585329,
            "velocity": 0.3937007874015748
          },
          {
            "duration": 0.042856999999997925,
            "durationTicks": 96,
            "midi": 45,
            "name": "A2",
            "ticks": 259104,
            "time": 115.671043,
            "velocity": 0.3937007874015748
          },
          {
            "duration": 0.042856999999997925,
            "durationTicks": 96,
            "midi": 45,
            "name": "A2",
            "ticks": 259296,
            "time": 115.756757,
            "velocity": 0.3937007874015748
          },
          {
            "duration": 0.042856999999997925,
            "durationTicks": 96,
            "midi": 45,
            "name": "A2",
            "ticks": 259488,
            "time": 115.842471,
            "velocity": 0.3937007874015748
          },
          {
            "duration": 0.042856999999997925,
            "durationTicks": 96,
            "midi": 33,
            "name": "A1",
            "ticks": 262752,
            "time": 117.299609,
            "velocity": 0.3937007874015748
          },
          {
            "duration": 0.042856999999997925,
            "durationTicks": 96,
            "midi": 33,
            "name": "A1",
            "ticks": 262944,
            "time": 117.385323,
            "velocity": 0.3937007874015748
          },
          {
            "duration": 0.042856999999997925,
            "durationTicks": 96,
            "midi": 33,
            "name": "A1",
            "ticks": 263136,
            "time": 117.471037,
            "velocity": 0.3937007874015748
          },
          {
            "duration": 0.042857000000012135,
            "durationTicks": 96,
            "midi": 33,
            "name": "A1",
            "ticks": 263328,
            "time": 117.55675099999999,
            "velocity": 0.3937007874015748
          },
          {
            "duration": 0.042856999999997925,
            "durationTicks": 96,
            "midi": 33,
            "name": "A1",
            "ticks": 263520,
            "time": 117.642465,
            "velocity": 0.3937007874015748
          },
          {
            "duration": 0.042856999999997925,
            "durationTicks": 96,
            "midi": 33,
            "name": "A1",
            "ticks": 263712,
            "time": 117.728179,
            "velocity": 0.3937007874015748
          },
          {
            "duration": 0.042856999999997925,
            "durationTicks": 96,
            "midi": 33,
            "name": "A1",
            "ticks": 263904,
            "time": 117.813893,
            "velocity": 0.3937007874015748
          },
          {
            "duration": 0.042856999999997925,
            "durationTicks": 96,
            "midi": 33,
            "name": "A1",
            "ticks": 264096,
            "time": 117.899607,
            "velocity": 0.3937007874015748
          },
          {
            "duration": 0.042856999999997925,
            "durationTicks": 96,
            "midi": 33,
            "name": "A1",
            "ticks": 264288,
            "time": 117.985321,
            "velocity": 0.3937007874015748
          },
          {
            "duration": 0.042856999999997925,
            "durationTicks": 96,
            "midi": 33,
            "name": "A1",
            "ticks": 264480,
            "time": 118.071035,
            "velocity": 0.3937007874015748
          },
          {
            "duration": 0.042856999999997925,
            "durationTicks": 96,
            "midi": 33,
            "name": "A1",
            "ticks": 264672,
            "time": 118.156749,
            "velocity": 0.3937007874015748
          },
          {
            "duration": 0.042856999999997925,
            "durationTicks": 96,
            "midi": 33,
            "name": "A1",
            "ticks": 264864,
            "time": 118.242463,
            "velocity": 0.3937007874015748
          },
          {
            "duration": 0.042856999999997925,
            "durationTicks": 96,
            "midi": 33,
            "name": "A1",
            "ticks": 265056,
            "time": 118.328177,
            "velocity": 0.3937007874015748
          },
          {
            "duration": 0.042857000000012135,
            "durationTicks": 96,
            "midi": 33,
            "name": "A1",
            "ticks": 265248,
            "time": 118.41389099999999,
            "velocity": 0.3937007874015748
          },
          {
            "duration": 0.042856999999997925,
            "durationTicks": 96,
            "midi": 33,
            "name": "A1",
            "ticks": 265440,
            "time": 118.499605,
            "velocity": 0.3937007874015748
          },
          {
            "duration": 0.042856999999997925,
            "durationTicks": 96,
            "midi": 33,
            "name": "A1",
            "ticks": 265632,
            "time": 118.585319,
            "velocity": 0.3937007874015748
          },
          {
            "duration": 0.042856999999997925,
            "durationTicks": 96,
            "midi": 36,
            "name": "C2",
            "ticks": 265824,
            "time": 118.671033,
            "velocity": 0.3937007874015748
          },
          {
            "duration": 0.042856999999997925,
            "durationTicks": 96,
            "midi": 36,
            "name": "C2",
            "ticks": 266016,
            "time": 118.756747,
            "velocity": 0.3937007874015748
          },
          {
            "duration": 0.042856999999997925,
            "durationTicks": 96,
            "midi": 36,
            "name": "C2",
            "ticks": 266208,
            "time": 118.842461,
            "velocity": 0.3937007874015748
          },
          {
            "duration": 0.042856999999997925,
            "durationTicks": 96,
            "midi": 36,
            "name": "C2",
            "ticks": 266400,
            "time": 118.928175,
            "velocity": 0.3937007874015748
          },
          {
            "duration": 0.042857000000012135,
            "durationTicks": 96,
            "midi": 36,
            "name": "C2",
            "ticks": 266592,
            "time": 119.01388899999999,
            "velocity": 0.3937007874015748
          },
          {
            "duration": 0.042856999999997925,
            "durationTicks": 96,
            "midi": 36,
            "name": "C2",
            "ticks": 266784,
            "time": 119.099603,
            "velocity": 0.3937007874015748
          },
          {
            "duration": 0.042856999999997925,
            "durationTicks": 96,
            "midi": 36,
            "name": "C2",
            "ticks": 266976,
            "time": 119.185317,
            "velocity": 0.3937007874015748
          },
          {
            "duration": 0.042856999999997925,
            "durationTicks": 96,
            "midi": 36,
            "name": "C2",
            "ticks": 267168,
            "time": 119.271031,
            "velocity": 0.3937007874015748
          },
          {
            "duration": 0.042856999999997925,
            "durationTicks": 96,
            "midi": 36,
            "name": "C2",
            "ticks": 267360,
            "time": 119.356745,
            "velocity": 0.3937007874015748
          },
          {
            "duration": 0.042856999999997925,
            "durationTicks": 96,
            "midi": 36,
            "name": "C2",
            "ticks": 267552,
            "time": 119.442459,
            "velocity": 0.3937007874015748
          },
          {
            "duration": 0.042856999999997925,
            "durationTicks": 96,
            "midi": 36,
            "name": "C2",
            "ticks": 267744,
            "time": 119.528173,
            "velocity": 0.3937007874015748
          },
          {
            "duration": 0.042857000000012135,
            "durationTicks": 96,
            "midi": 36,
            "name": "C2",
            "ticks": 267936,
            "time": 119.61388699999999,
            "velocity": 0.3937007874015748
          },
          {
            "duration": 0.042856999999997925,
            "durationTicks": 96,
            "midi": 36,
            "name": "C2",
            "ticks": 268128,
            "time": 119.699601,
            "velocity": 0.3937007874015748
          },
          {
            "duration": 0.042856999999997925,
            "durationTicks": 96,
            "midi": 36,
            "name": "C2",
            "ticks": 268320,
            "time": 119.785315,
            "velocity": 0.3937007874015748
          },
          {
            "duration": 0.042856999999997925,
            "durationTicks": 96,
            "midi": 36,
            "name": "C2",
            "ticks": 268512,
            "time": 119.871029,
            "velocity": 0.3937007874015748
          },
          {
            "duration": 0.042856999999997925,
            "durationTicks": 96,
            "midi": 36,
            "name": "C2",
            "ticks": 268704,
            "time": 119.956743,
            "velocity": 0.3937007874015748
          },
          {
            "duration": 0.042856999999997925,
            "durationTicks": 96,
            "midi": 35,
            "name": "B1",
            "ticks": 268896,
            "time": 120.042457,
            "velocity": 0.3937007874015748
          },
          {
            "duration": 0.042856999999997925,
            "durationTicks": 96,
            "midi": 35,
            "name": "B1",
            "ticks": 269088,
            "time": 120.128171,
            "velocity": 0.3937007874015748
          },
          {
            "duration": 0.042856999999997925,
            "durationTicks": 96,
            "midi": 35,
            "name": "B1",
            "ticks": 269280,
            "time": 120.213885,
            "velocity": 0.3937007874015748
          },
          {
            "duration": 0.042856999999997925,
            "durationTicks": 96,
            "midi": 35,
            "name": "B1",
            "ticks": 269472,
            "time": 120.299599,
            "velocity": 0.3937007874015748
          },
          {
            "duration": 0.042856999999997925,
            "durationTicks": 96,
            "midi": 35,
            "name": "B1",
            "ticks": 269664,
            "time": 120.385313,
            "velocity": 0.3937007874015748
          },
          {
            "duration": 0.042857000000012135,
            "durationTicks": 96,
            "midi": 35,
            "name": "B1",
            "ticks": 269856,
            "time": 120.47102699999999,
            "velocity": 0.3937007874015748
          },
          {
            "duration": 0.042856999999997925,
            "durationTicks": 96,
            "midi": 35,
            "name": "B1",
            "ticks": 270048,
            "time": 120.556741,
            "velocity": 0.3937007874015748
          },
          {
            "duration": 0.042856999999997925,
            "durationTicks": 96,
            "midi": 35,
            "name": "B1",
            "ticks": 270240,
            "time": 120.642455,
            "velocity": 0.3937007874015748
          },
          {
            "duration": 0.042856999999997925,
            "durationTicks": 96,
            "midi": 35,
            "name": "B1",
            "ticks": 270432,
            "time": 120.728169,
            "velocity": 0.3937007874015748
          },
          {
            "duration": 0.042856999999997925,
            "durationTicks": 96,
            "midi": 35,
            "name": "B1",
            "ticks": 270624,
            "time": 120.813883,
            "velocity": 0.3937007874015748
          },
          {
            "duration": 0.042856999999997925,
            "durationTicks": 96,
            "midi": 35,
            "name": "B1",
            "ticks": 270816,
            "time": 120.899597,
            "velocity": 0.3937007874015748
          },
          {
            "duration": 0.042856999999997925,
            "durationTicks": 96,
            "midi": 35,
            "name": "B1",
            "ticks": 271008,
            "time": 120.985311,
            "velocity": 0.3937007874015748
          },
          {
            "duration": 0.042857000000012135,
            "durationTicks": 96,
            "midi": 35,
            "name": "B1",
            "ticks": 271200,
            "time": 121.07102499999999,
            "velocity": 0.3937007874015748
          },
          {
            "duration": 0.042856999999997925,
            "durationTicks": 96,
            "midi": 35,
            "name": "B1",
            "ticks": 271392,
            "time": 121.156739,
            "velocity": 0.3937007874015748
          },
          {
            "duration": 0.042856999999997925,
            "durationTicks": 96,
            "midi": 35,
            "name": "B1",
            "ticks": 271584,
            "time": 121.242453,
            "velocity": 0.3937007874015748
          },
          {
            "duration": 0.042856999999997925,
            "durationTicks": 96,
            "midi": 35,
            "name": "B1",
            "ticks": 271776,
            "time": 121.328167,
            "velocity": 0.3937007874015748
          },
          {
            "duration": 0.042856999999997925,
            "durationTicks": 96,
            "midi": 40,
            "name": "E2",
            "ticks": 271968,
            "time": 121.413881,
            "velocity": 0.3937007874015748
          },
          {
            "duration": 0.042856999999997925,
            "durationTicks": 96,
            "midi": 40,
            "name": "E2",
            "ticks": 272160,
            "time": 121.499595,
            "velocity": 0.3937007874015748
          },
          {
            "duration": 0.042856999999997925,
            "durationTicks": 96,
            "midi": 40,
            "name": "E2",
            "ticks": 272352,
            "time": 121.585309,
            "velocity": 0.3937007874015748
          },
          {
            "duration": 0.042857000000012135,
            "durationTicks": 96,
            "midi": 40,
            "name": "E2",
            "ticks": 272544,
            "time": 121.67102299999999,
            "velocity": 0.3937007874015748
          },
          {
            "duration": 0.042856999999997925,
            "durationTicks": 96,
            "midi": 38,
            "name": "D2",
            "ticks": 272736,
            "time": 121.756737,
            "velocity": 0.3937007874015748
          },
          {
            "duration": 0.042856999999997925,
            "durationTicks": 96,
            "midi": 38,
            "name": "D2",
            "ticks": 272928,
            "time": 121.842451,
            "velocity": 0.3937007874015748
          },
          {
            "duration": 0.042857000000012135,
            "durationTicks": 96,
            "midi": 38,
            "name": "D2",
            "ticks": 273120,
            "time": 121.92816499999999,
            "velocity": 0.3937007874015748
          },
          {
            "duration": 0.042856999999997925,
            "durationTicks": 96,
            "midi": 38,
            "name": "D2",
            "ticks": 273312,
            "time": 122.013879,
            "velocity": 0.3937007874015748
          },
          {
            "duration": 0.042856999999997925,
            "durationTicks": 96,
            "midi": 36,
            "name": "C2",
            "ticks": 273504,
            "time": 122.099593,
            "velocity": 0.3937007874015748
          },
          {
            "duration": 0.042856999999997925,
            "durationTicks": 96,
            "midi": 36,
            "name": "C2",
            "ticks": 273696,
            "time": 122.185307,
            "velocity": 0.3937007874015748
          },
          {
            "duration": 0.042856999999997925,
            "durationTicks": 96,
            "midi": 36,
            "name": "C2",
            "ticks": 273888,
            "time": 122.271021,
            "velocity": 0.3937007874015748
          },
          {
            "duration": 0.042856999999997925,
            "durationTicks": 96,
            "midi": 36,
            "name": "C2",
            "ticks": 274080,
            "time": 122.356735,
            "velocity": 0.3937007874015748
          },
          {
            "duration": 0.042856999999997925,
            "durationTicks": 96,
            "midi": 35,
            "name": "B1",
            "ticks": 274272,
            "time": 122.442449,
            "velocity": 0.3937007874015748
          },
          {
            "duration": 0.042857000000012135,
            "durationTicks": 96,
            "midi": 35,
            "name": "B1",
            "ticks": 274464,
            "time": 122.52816299999999,
            "velocity": 0.3937007874015748
          },
          {
            "duration": 0.042856999999997925,
            "durationTicks": 96,
            "midi": 35,
            "name": "B1",
            "ticks": 274656,
            "time": 122.613877,
            "velocity": 0.3937007874015748
          },
          {
            "duration": 0.042856999999997925,
            "durationTicks": 96,
            "midi": 35,
            "name": "B1",
            "ticks": 274848,
            "time": 122.699591,
            "velocity": 0.3937007874015748
          },
          {
            "duration": 0.042856999999997925,
            "durationTicks": 96,
            "midi": 33,
            "name": "A1",
            "ticks": 275040,
            "time": 122.785305,
            "velocity": 0.3937007874015748
          },
          {
            "duration": 0.042856999999997925,
            "durationTicks": 96,
            "midi": 33,
            "name": "A1",
            "ticks": 275232,
            "time": 122.871019,
            "velocity": 0.3937007874015748
          },
          {
            "duration": 0.042856999999997925,
            "durationTicks": 96,
            "midi": 33,
            "name": "A1",
            "ticks": 275424,
            "time": 122.956733,
            "velocity": 0.3937007874015748
          },
          {
            "duration": 0.042856999999997925,
            "durationTicks": 96,
            "midi": 33,
            "name": "A1",
            "ticks": 275616,
            "time": 123.042447,
            "velocity": 0.3937007874015748
          },
          {
            "duration": 0.042857000000012135,
            "durationTicks": 96,
            "midi": 33,
            "name": "A1",
            "ticks": 275808,
            "time": 123.12816099999999,
            "velocity": 0.3937007874015748
          },
          {
            "duration": 0.042856999999997925,
            "durationTicks": 96,
            "midi": 33,
            "name": "A1",
            "ticks": 276000,
            "time": 123.213875,
            "velocity": 0.3937007874015748
          },
          {
            "duration": 0.042856999999997925,
            "durationTicks": 96,
            "midi": 33,
            "name": "A1",
            "ticks": 276192,
            "time": 123.299589,
            "velocity": 0.3937007874015748
          },
          {
            "duration": 0.042856999999997925,
            "durationTicks": 96,
            "midi": 33,
            "name": "A1",
            "ticks": 276384,
            "time": 123.385303,
            "velocity": 0.3937007874015748
          },
          {
            "duration": 0.042856999999997925,
            "durationTicks": 96,
            "midi": 33,
            "name": "A1",
            "ticks": 276576,
            "time": 123.471017,
            "velocity": 0.3937007874015748
          },
          {
            "duration": 0.042856999999997925,
            "durationTicks": 96,
            "midi": 33,
            "name": "A1",
            "ticks": 276768,
            "time": 123.556731,
            "velocity": 0.3937007874015748
          },
          {
            "duration": 0.042856999999997925,
            "durationTicks": 96,
            "midi": 33,
            "name": "A1",
            "ticks": 276960,
            "time": 123.642445,
            "velocity": 0.3937007874015748
          },
          {
            "duration": 0.042857000000012135,
            "durationTicks": 96,
            "midi": 33,
            "name": "A1",
            "ticks": 277152,
            "time": 123.72815899999999,
            "velocity": 0.3937007874015748
          },
          {
            "duration": 0.042856999999997925,
            "durationTicks": 96,
            "midi": 33,
            "name": "A1",
            "ticks": 277344,
            "time": 123.813873,
            "velocity": 0.3937007874015748
          },
          {
            "duration": 0.042856999999997925,
            "durationTicks": 96,
            "midi": 33,
            "name": "A1",
            "ticks": 277536,
            "time": 123.899587,
            "velocity": 0.3937007874015748
          },
          {
            "duration": 0.042857000000012135,
            "durationTicks": 96,
            "midi": 33,
            "name": "A1",
            "ticks": 277728,
            "time": 123.98530099999999,
            "velocity": 0.3937007874015748
          },
          {
            "duration": 0.042856999999997925,
            "durationTicks": 96,
            "midi": 33,
            "name": "A1",
            "ticks": 277920,
            "time": 124.071015,
            "velocity": 0.3937007874015748
          },
          {
            "duration": 0.042856999999997925,
            "durationTicks": 96,
            "midi": 36,
            "name": "C2",
            "ticks": 278112,
            "time": 124.156729,
            "velocity": 0.3937007874015748
          },
          {
            "duration": 0.042856999999997925,
            "durationTicks": 96,
            "midi": 36,
            "name": "C2",
            "ticks": 278304,
            "time": 124.242443,
            "velocity": 0.3937007874015748
          },
          {
            "duration": 0.042856999999997925,
            "durationTicks": 96,
            "midi": 36,
            "name": "C2",
            "ticks": 278496,
            "time": 124.328157,
            "velocity": 0.3937007874015748
          },
          {
            "duration": 0.042856999999997925,
            "durationTicks": 96,
            "midi": 36,
            "name": "C2",
            "ticks": 278688,
            "time": 124.413871,
            "velocity": 0.3937007874015748
          },
          {
            "duration": 0.042856999999997925,
            "durationTicks": 96,
            "midi": 36,
            "name": "C2",
            "ticks": 278880,
            "time": 124.499585,
            "velocity": 0.3937007874015748
          },
          {
            "duration": 0.042857000000012135,
            "durationTicks": 96,
            "midi": 36,
            "name": "C2",
            "ticks": 279072,
            "time": 124.58529899999999,
            "velocity": 0.3937007874015748
          },
          {
            "duration": 0.042856999999997925,
            "durationTicks": 96,
            "midi": 36,
            "name": "C2",
            "ticks": 279264,
            "time": 124.671013,
            "velocity": 0.3937007874015748
          },
          {
            "duration": 0.042856999999997925,
            "durationTicks": 96,
            "midi": 36,
            "name": "C2",
            "ticks": 279456,
            "time": 124.756727,
            "velocity": 0.3937007874015748
          },
          {
            "duration": 0.042856999999997925,
            "durationTicks": 96,
            "midi": 36,
            "name": "C2",
            "ticks": 279648,
            "time": 124.842441,
            "velocity": 0.3937007874015748
          },
          {
            "duration": 0.042856999999997925,
            "durationTicks": 96,
            "midi": 36,
            "name": "C2",
            "ticks": 279840,
            "time": 124.928155,
            "velocity": 0.3937007874015748
          },
          {
            "duration": 0.042856999999997925,
            "durationTicks": 96,
            "midi": 36,
            "name": "C2",
            "ticks": 280032,
            "time": 125.013869,
            "velocity": 0.3937007874015748
          },
          {
            "duration": 0.042856999999997925,
            "durationTicks": 96,
            "midi": 36,
            "name": "C2",
            "ticks": 280224,
            "time": 125.099583,
            "velocity": 0.3937007874015748
          },
          {
            "duration": 0.042857000000012135,
            "durationTicks": 96,
            "midi": 36,
            "name": "C2",
            "ticks": 280416,
            "time": 125.18529699999999,
            "velocity": 0.3937007874015748
          },
          {
            "duration": 0.042856999999997925,
            "durationTicks": 96,
            "midi": 36,
            "name": "C2",
            "ticks": 280608,
            "time": 125.271011,
            "velocity": 0.3937007874015748
          },
          {
            "duration": 0.042856999999997925,
            "durationTicks": 96,
            "midi": 36,
            "name": "C2",
            "ticks": 280800,
            "time": 125.356725,
            "velocity": 0.3937007874015748
          },
          {
            "duration": 0.042856999999997925,
            "durationTicks": 96,
            "midi": 36,
            "name": "C2",
            "ticks": 280992,
            "time": 125.442439,
            "velocity": 0.3937007874015748
          },
          {
            "duration": 0.042856999999997925,
            "durationTicks": 96,
            "midi": 41,
            "name": "F2",
            "ticks": 281184,
            "time": 125.528153,
            "velocity": 0.3937007874015748
          },
          {
            "duration": 0.042856999999997925,
            "durationTicks": 96,
            "midi": 41,
            "name": "F2",
            "ticks": 281376,
            "time": 125.613867,
            "velocity": 0.3937007874015748
          },
          {
            "duration": 0.042856999999997925,
            "durationTicks": 96,
            "midi": 41,
            "name": "F2",
            "ticks": 281568,
            "time": 125.699581,
            "velocity": 0.3937007874015748
          },
          {
            "duration": 0.042857000000012135,
            "durationTicks": 96,
            "midi": 41,
            "name": "F2",
            "ticks": 281760,
            "time": 125.78529499999999,
            "velocity": 0.3937007874015748
          },
          {
            "duration": 0.042856999999997925,
            "durationTicks": 96,
            "midi": 41,
            "name": "F2",
            "ticks": 281952,
            "time": 125.871009,
            "velocity": 0.3937007874015748
          },
          {
            "duration": 0.042856999999997925,
            "durationTicks": 96,
            "midi": 41,
            "name": "F2",
            "ticks": 282144,
            "time": 125.956723,
            "velocity": 0.3937007874015748
          },
          {
            "duration": 0.042857000000012135,
            "durationTicks": 96,
            "midi": 41,
            "name": "F2",
            "ticks": 282336,
            "time": 126.04243699999999,
            "velocity": 0.3937007874015748
          },
          {
            "duration": 0.042856999999997925,
            "durationTicks": 96,
            "midi": 41,
            "name": "F2",
            "ticks": 282528,
            "time": 126.128151,
            "velocity": 0.3937007874015748
          },
          {
            "duration": 0.042856999999997925,
            "durationTicks": 96,
            "midi": 41,
            "name": "F2",
            "ticks": 282720,
            "time": 126.213865,
            "velocity": 0.3937007874015748
          },
          {
            "duration": 0.042856999999997925,
            "durationTicks": 96,
            "midi": 41,
            "name": "F2",
            "ticks": 282912,
            "time": 126.299579,
            "velocity": 0.3937007874015748
          },
          {
            "duration": 0.042856999999997925,
            "durationTicks": 96,
            "midi": 41,
            "name": "F2",
            "ticks": 283104,
            "time": 126.385293,
            "velocity": 0.3937007874015748
          },
          {
            "duration": 0.042856999999997925,
            "durationTicks": 96,
            "midi": 41,
            "name": "F2",
            "ticks": 283296,
            "time": 126.471007,
            "velocity": 0.3937007874015748
          },
          {
            "duration": 0.042856999999997925,
            "durationTicks": 96,
            "midi": 41,
            "name": "F2",
            "ticks": 283488,
            "time": 126.556721,
            "velocity": 0.3937007874015748
          },
          {
            "duration": 0.042857000000012135,
            "durationTicks": 96,
            "midi": 41,
            "name": "F2",
            "ticks": 283680,
            "time": 126.64243499999999,
            "velocity": 0.3937007874015748
          },
          {
            "duration": 0.042856999999997925,
            "durationTicks": 96,
            "midi": 41,
            "name": "F2",
            "ticks": 283872,
            "time": 126.728149,
            "velocity": 0.3937007874015748
          },
          {
            "duration": 0.042856999999997925,
            "durationTicks": 96,
            "midi": 41,
            "name": "F2",
            "ticks": 284064,
            "time": 126.813863,
            "velocity": 0.3937007874015748
          },
          {
            "duration": 0.042856999999997925,
            "durationTicks": 96,
            "midi": 40,
            "name": "E2",
            "ticks": 284256,
            "time": 126.899577,
            "velocity": 0.3937007874015748
          },
          {
            "duration": 0.042856999999997925,
            "durationTicks": 96,
            "midi": 40,
            "name": "E2",
            "ticks": 284448,
            "time": 126.985291,
            "velocity": 0.3937007874015748
          },
          {
            "duration": 0.042856999999997925,
            "durationTicks": 96,
            "midi": 40,
            "name": "E2",
            "ticks": 284640,
            "time": 127.071005,
            "velocity": 0.3937007874015748
          },
          {
            "duration": 0.042856999999997925,
            "durationTicks": 96,
            "midi": 40,
            "name": "E2",
            "ticks": 284832,
            "time": 127.156719,
            "velocity": 0.3937007874015748
          },
          {
            "duration": 0.042857000000012135,
            "durationTicks": 96,
            "midi": 40,
            "name": "E2",
            "ticks": 285024,
            "time": 127.24243299999999,
            "velocity": 0.3937007874015748
          },
          {
            "duration": 0.042856999999997925,
            "durationTicks": 96,
            "midi": 40,
            "name": "E2",
            "ticks": 285216,
            "time": 127.328147,
            "velocity": 0.3937007874015748
          },
          {
            "duration": 0.042856999999997925,
            "durationTicks": 96,
            "midi": 40,
            "name": "E2",
            "ticks": 285408,
            "time": 127.413861,
            "velocity": 0.3937007874015748
          },
          {
            "duration": 0.042856999999997925,
            "durationTicks": 96,
            "midi": 40,
            "name": "E2",
            "ticks": 285600,
            "time": 127.499575,
            "velocity": 0.3937007874015748
          },
          {
            "duration": 0.042856999999997925,
            "durationTicks": 96,
            "midi": 40,
            "name": "E2",
            "ticks": 285792,
            "time": 127.585289,
            "velocity": 0.3937007874015748
          },
          {
            "duration": 0.042856999999997925,
            "durationTicks": 96,
            "midi": 40,
            "name": "E2",
            "ticks": 285984,
            "time": 127.671003,
            "velocity": 0.3937007874015748
          },
          {
            "duration": 0.042856999999997925,
            "durationTicks": 96,
            "midi": 40,
            "name": "E2",
            "ticks": 286176,
            "time": 127.756717,
            "velocity": 0.3937007874015748
          },
          {
            "duration": 0.042856999999997925,
            "durationTicks": 96,
            "midi": 40,
            "name": "E2",
            "ticks": 286368,
            "time": 127.842431,
            "velocity": 0.3937007874015748
          },
          {
            "duration": 0.042856999999997925,
            "durationTicks": 96,
            "midi": 40,
            "name": "E2",
            "ticks": 286560,
            "time": 127.928145,
            "velocity": 0.3937007874015748
          },
          {
            "duration": 0.042856999999997925,
            "durationTicks": 96,
            "midi": 40,
            "name": "E2",
            "ticks": 286752,
            "time": 128.013859,
            "velocity": 0.3937007874015748
          },
          {
            "duration": 0.042856999999997925,
            "durationTicks": 96,
            "midi": 40,
            "name": "E2",
            "ticks": 286944,
            "time": 128.099573,
            "velocity": 0.3937007874015748
          },
          {
            "duration": 0.042856999999997925,
            "durationTicks": 96,
            "midi": 40,
            "name": "E2",
            "ticks": 287136,
            "time": 128.185287,
            "velocity": 0.3937007874015748
          },
          {
            "duration": 0.042857000000026346,
            "durationTicks": 96,
            "midi": 33,
            "name": "A1",
            "ticks": 287328,
            "time": 128.27100099999998,
            "velocity": 0.3937007874015748
          },
          {
            "duration": 0.042856999999997925,
            "durationTicks": 96,
            "midi": 33,
            "name": "A1",
            "ticks": 287520,
            "time": 128.356715,
            "velocity": 0.3937007874015748
          },
          {
            "duration": 0.042856999999997925,
            "durationTicks": 96,
            "midi": 33,
            "name": "A1",
            "ticks": 287712,
            "time": 128.442429,
            "velocity": 0.3937007874015748
          },
          {
            "duration": 0.042856999999997925,
            "durationTicks": 96,
            "midi": 33,
            "name": "A1",
            "ticks": 287904,
            "time": 128.528143,
            "velocity": 0.3937007874015748
          },
          {
            "duration": 0.042856999999997925,
            "durationTicks": 96,
            "midi": 33,
            "name": "A1",
            "ticks": 288096,
            "time": 128.613857,
            "velocity": 0.3937007874015748
          },
          {
            "duration": 0.042856999999997925,
            "durationTicks": 96,
            "midi": 33,
            "name": "A1",
            "ticks": 288288,
            "time": 128.699571,
            "velocity": 0.3937007874015748
          },
          {
            "duration": 0.042856999999997925,
            "durationTicks": 96,
            "midi": 33,
            "name": "A1",
            "ticks": 288480,
            "time": 128.785285,
            "velocity": 0.3937007874015748
          },
          {
            "duration": 0.042856999999997925,
            "durationTicks": 96,
            "midi": 33,
            "name": "A1",
            "ticks": 288672,
            "time": 128.870999,
            "velocity": 0.3937007874015748
          },
          {
            "duration": 0.042856999999997925,
            "durationTicks": 96,
            "midi": 33,
            "name": "A1",
            "ticks": 288864,
            "time": 128.956713,
            "velocity": 0.3937007874015748
          },
          {
            "duration": 0.042856999999997925,
            "durationTicks": 96,
            "midi": 33,
            "name": "A1",
            "ticks": 289056,
            "time": 129.042427,
            "velocity": 0.3937007874015748
          },
          {
            "duration": 0.042856999999997925,
            "durationTicks": 96,
            "midi": 33,
            "name": "A1",
            "ticks": 289248,
            "time": 129.128141,
            "velocity": 0.3937007874015748
          },
          {
            "duration": 0.042856999999997925,
            "durationTicks": 96,
            "midi": 33,
            "name": "A1",
            "ticks": 289440,
            "time": 129.213855,
            "velocity": 0.3937007874015748
          },
          {
            "duration": 0.042856999999997925,
            "durationTicks": 96,
            "midi": 33,
            "name": "A1",
            "ticks": 289632,
            "time": 129.299569,
            "velocity": 0.3937007874015748
          },
          {
            "duration": 0.042856999999997925,
            "durationTicks": 96,
            "midi": 33,
            "name": "A1",
            "ticks": 289824,
            "time": 129.385283,
            "velocity": 0.3937007874015748
          },
          {
            "duration": 0.042856999999997925,
            "durationTicks": 96,
            "midi": 33,
            "name": "A1",
            "ticks": 290016,
            "time": 129.470997,
            "velocity": 0.3937007874015748
          },
          {
            "duration": 0.042856999999997925,
            "durationTicks": 96,
            "midi": 33,
            "name": "A1",
            "ticks": 290208,
            "time": 129.556711,
            "velocity": 0.3937007874015748
          },
          {
            "duration": 0.042856999999997925,
            "durationTicks": 96,
            "midi": 48,
            "name": "C3",
            "ticks": 290400,
            "time": 129.642425,
            "velocity": 0.3937007874015748
          },
          {
            "duration": 0.042856999999997925,
            "durationTicks": 96,
            "midi": 36,
            "name": "C2",
            "ticks": 290400,
            "time": 129.642425,
            "velocity": 0.3937007874015748
          },
          {
            "duration": 0.042856999999997925,
            "durationTicks": 96,
            "midi": 36,
            "name": "C2",
            "ticks": 290592,
            "time": 129.728139,
            "velocity": 0.3937007874015748
          },
          {
            "duration": 0.042856999999997925,
            "durationTicks": 96,
            "midi": 48,
            "name": "C3",
            "ticks": 290592,
            "time": 129.728139,
            "velocity": 0.3937007874015748
          },
          {
            "duration": 0.042856999999997925,
            "durationTicks": 96,
            "midi": 36,
            "name": "C2",
            "ticks": 290784,
            "time": 129.813853,
            "velocity": 0.3937007874015748
          },
          {
            "duration": 0.042856999999997925,
            "durationTicks": 96,
            "midi": 48,
            "name": "C3",
            "ticks": 290784,
            "time": 129.813853,
            "velocity": 0.3937007874015748
          },
          {
            "duration": 0.042856999999997925,
            "durationTicks": 96,
            "midi": 36,
            "name": "C2",
            "ticks": 290976,
            "time": 129.899567,
            "velocity": 0.3937007874015748
          },
          {
            "duration": 0.042856999999997925,
            "durationTicks": 96,
            "midi": 48,
            "name": "C3",
            "ticks": 290976,
            "time": 129.899567,
            "velocity": 0.3937007874015748
          },
          {
            "duration": 0.042856999999997925,
            "durationTicks": 96,
            "midi": 36,
            "name": "C2",
            "ticks": 291168,
            "time": 129.985281,
            "velocity": 0.3937007874015748
          },
          {
            "duration": 0.042856999999997925,
            "durationTicks": 96,
            "midi": 48,
            "name": "C3",
            "ticks": 291168,
            "time": 129.985281,
            "velocity": 0.3937007874015748
          },
          {
            "duration": 0.042856999999997925,
            "durationTicks": 96,
            "midi": 48,
            "name": "C3",
            "ticks": 291360,
            "time": 130.070995,
            "velocity": 0.3937007874015748
          },
          {
            "duration": 0.042856999999997925,
            "durationTicks": 96,
            "midi": 36,
            "name": "C2",
            "ticks": 291360,
            "time": 130.070995,
            "velocity": 0.3937007874015748
          },
          {
            "duration": 0.042856999999997925,
            "durationTicks": 96,
            "midi": 36,
            "name": "C2",
            "ticks": 291552,
            "time": 130.156709,
            "velocity": 0.3937007874015748
          },
          {
            "duration": 0.042856999999997925,
            "durationTicks": 96,
            "midi": 48,
            "name": "C3",
            "ticks": 291552,
            "time": 130.156709,
            "velocity": 0.3937007874015748
          },
          {
            "duration": 0.042856999999997925,
            "durationTicks": 96,
            "midi": 48,
            "name": "C3",
            "ticks": 291744,
            "time": 130.242423,
            "velocity": 0.3937007874015748
          },
          {
            "duration": 0.042856999999997925,
            "durationTicks": 96,
            "midi": 36,
            "name": "C2",
            "ticks": 291744,
            "time": 130.242423,
            "velocity": 0.3937007874015748
          },
          {
            "duration": 0.042856999999997925,
            "durationTicks": 96,
            "midi": 36,
            "name": "C2",
            "ticks": 291936,
            "time": 130.328137,
            "velocity": 0.3937007874015748
          },
          {
            "duration": 0.042856999999997925,
            "durationTicks": 96,
            "midi": 48,
            "name": "C3",
            "ticks": 291936,
            "time": 130.328137,
            "velocity": 0.3937007874015748
          },
          {
            "duration": 0.042856999999997925,
            "durationTicks": 96,
            "midi": 48,
            "name": "C3",
            "ticks": 292128,
            "time": 130.413851,
            "velocity": 0.3937007874015748
          },
          {
            "duration": 0.042856999999997925,
            "durationTicks": 96,
            "midi": 36,
            "name": "C2",
            "ticks": 292128,
            "time": 130.413851,
            "velocity": 0.3937007874015748
          },
          {
            "duration": 0.042856999999997925,
            "durationTicks": 96,
            "midi": 48,
            "name": "C3",
            "ticks": 292320,
            "time": 130.499565,
            "velocity": 0.3937007874015748
          },
          {
            "duration": 0.042856999999997925,
            "durationTicks": 96,
            "midi": 36,
            "name": "C2",
            "ticks": 292320,
            "time": 130.499565,
            "velocity": 0.3937007874015748
          },
          {
            "duration": 0.042856999999997925,
            "durationTicks": 96,
            "midi": 48,
            "name": "C3",
            "ticks": 292512,
            "time": 130.58527899999999,
            "velocity": 0.3937007874015748
          },
          {
            "duration": 0.042856999999997925,
            "durationTicks": 96,
            "midi": 36,
            "name": "C2",
            "ticks": 292512,
            "time": 130.58527899999999,
            "velocity": 0.3937007874015748
          },
          {
            "duration": 0.042856999999997925,
            "durationTicks": 96,
            "midi": 36,
            "name": "C2",
            "ticks": 292704,
            "time": 130.670993,
            "velocity": 0.3937007874015748
          },
          {
            "duration": 0.042856999999997925,
            "durationTicks": 96,
            "midi": 48,
            "name": "C3",
            "ticks": 292704,
            "time": 130.670993,
            "velocity": 0.3937007874015748
          },
          {
            "duration": 0.042856999999997925,
            "durationTicks": 96,
            "midi": 36,
            "name": "C2",
            "ticks": 292896,
            "time": 130.756707,
            "velocity": 0.3937007874015748
          },
          {
            "duration": 0.042856999999997925,
            "durationTicks": 96,
            "midi": 48,
            "name": "C3",
            "ticks": 292896,
            "time": 130.756707,
            "velocity": 0.3937007874015748
          },
          {
            "duration": 0.042856999999997925,
            "durationTicks": 96,
            "midi": 48,
            "name": "C3",
            "ticks": 293088,
            "time": 130.842421,
            "velocity": 0.3937007874015748
          },
          {
            "duration": 0.042856999999997925,
            "durationTicks": 96,
            "midi": 36,
            "name": "C2",
            "ticks": 293088,
            "time": 130.842421,
            "velocity": 0.3937007874015748
          },
          {
            "duration": 0.042856999999997925,
            "durationTicks": 96,
            "midi": 48,
            "name": "C3",
            "ticks": 293280,
            "time": 130.928135,
            "velocity": 0.3937007874015748
          },
          {
            "duration": 0.042856999999997925,
            "durationTicks": 96,
            "midi": 36,
            "name": "C2",
            "ticks": 293280,
            "time": 130.928135,
            "velocity": 0.3937007874015748
          },
          {
            "duration": 0.042856999999997925,
            "durationTicks": 96,
            "midi": 35,
            "name": "B1",
            "ticks": 293472,
            "time": 131.013849,
            "velocity": 0.3937007874015748
          },
          {
            "duration": 0.042856999999997925,
            "durationTicks": 96,
            "midi": 47,
            "name": "B2",
            "ticks": 293472,
            "time": 131.013849,
            "velocity": 0.3937007874015748
          },
          {
            "duration": 0.042856999999997925,
            "durationTicks": 96,
            "midi": 47,
            "name": "B2",
            "ticks": 293664,
            "time": 131.099563,
            "velocity": 0.3937007874015748
          },
          {
            "duration": 0.042856999999997925,
            "durationTicks": 96,
            "midi": 35,
            "name": "B1",
            "ticks": 293664,
            "time": 131.099563,
            "velocity": 0.3937007874015748
          },
          {
            "duration": 0.042857000000026346,
            "durationTicks": 96,
            "midi": 47,
            "name": "B2",
            "ticks": 293856,
            "time": 131.18527699999999,
            "velocity": 0.3937007874015748
          },
          {
            "duration": 0.042857000000026346,
            "durationTicks": 96,
            "midi": 35,
            "name": "B1",
            "ticks": 293856,
            "time": 131.18527699999999,
            "velocity": 0.3937007874015748
          },
          {
            "duration": 0.042856999999997925,
            "durationTicks": 96,
            "midi": 35,
            "name": "B1",
            "ticks": 294048,
            "time": 131.270991,
            "velocity": 0.3937007874015748
          },
          {
            "duration": 0.042856999999997925,
            "durationTicks": 96,
            "midi": 47,
            "name": "B2",
            "ticks": 294048,
            "time": 131.270991,
            "velocity": 0.3937007874015748
          },
          {
            "duration": 0.042856999999997925,
            "durationTicks": 96,
            "midi": 35,
            "name": "B1",
            "ticks": 294240,
            "time": 131.356705,
            "velocity": 0.3937007874015748
          },
          {
            "duration": 0.042856999999997925,
            "durationTicks": 96,
            "midi": 47,
            "name": "B2",
            "ticks": 294240,
            "time": 131.356705,
            "velocity": 0.3937007874015748
          },
          {
            "duration": 0.042856999999997925,
            "durationTicks": 96,
            "midi": 47,
            "name": "B2",
            "ticks": 294432,
            "time": 131.442419,
            "velocity": 0.3937007874015748
          },
          {
            "duration": 0.042856999999997925,
            "durationTicks": 96,
            "midi": 35,
            "name": "B1",
            "ticks": 294432,
            "time": 131.442419,
            "velocity": 0.3937007874015748
          },
          {
            "duration": 0.042856999999997925,
            "durationTicks": 96,
            "midi": 47,
            "name": "B2",
            "ticks": 294624,
            "time": 131.528133,
            "velocity": 0.3937007874015748
          },
          {
            "duration": 0.042856999999997925,
            "durationTicks": 96,
            "midi": 35,
            "name": "B1",
            "ticks": 294624,
            "time": 131.528133,
            "velocity": 0.3937007874015748
          },
          {
            "duration": 0.042856999999997925,
            "durationTicks": 96,
            "midi": 47,
            "name": "B2",
            "ticks": 294816,
            "time": 131.613847,
            "velocity": 0.3937007874015748
          },
          {
            "duration": 0.042856999999997925,
            "durationTicks": 96,
            "midi": 35,
            "name": "B1",
            "ticks": 294816,
            "time": 131.613847,
            "velocity": 0.3937007874015748
          },
          {
            "duration": 0.042856999999997925,
            "durationTicks": 96,
            "midi": 35,
            "name": "B1",
            "ticks": 295008,
            "time": 131.699561,
            "velocity": 0.3937007874015748
          },
          {
            "duration": 0.042856999999997925,
            "durationTicks": 96,
            "midi": 47,
            "name": "B2",
            "ticks": 295008,
            "time": 131.699561,
            "velocity": 0.3937007874015748
          },
          {
            "duration": 0.042857000000026346,
            "durationTicks": 96,
            "midi": 35,
            "name": "B1",
            "ticks": 295200,
            "time": 131.78527499999998,
            "velocity": 0.3937007874015748
          },
          {
            "duration": 0.042857000000026346,
            "durationTicks": 96,
            "midi": 47,
            "name": "B2",
            "ticks": 295200,
            "time": 131.78527499999998,
            "velocity": 0.3937007874015748
          },
          {
            "duration": 0.042856999999997925,
            "durationTicks": 96,
            "midi": 35,
            "name": "B1",
            "ticks": 295392,
            "time": 131.870989,
            "velocity": 0.3937007874015748
          },
          {
            "duration": 0.042856999999997925,
            "durationTicks": 96,
            "midi": 47,
            "name": "B2",
            "ticks": 295392,
            "time": 131.870989,
            "velocity": 0.3937007874015748
          },
          {
            "duration": 0.042856999999997925,
            "durationTicks": 96,
            "midi": 47,
            "name": "B2",
            "ticks": 295584,
            "time": 131.956703,
            "velocity": 0.3937007874015748
          },
          {
            "duration": 0.042856999999997925,
            "durationTicks": 96,
            "midi": 35,
            "name": "B1",
            "ticks": 295584,
            "time": 131.956703,
            "velocity": 0.3937007874015748
          },
          {
            "duration": 0.042856999999997925,
            "durationTicks": 96,
            "midi": 47,
            "name": "B2",
            "ticks": 295776,
            "time": 132.042417,
            "velocity": 0.3937007874015748
          },
          {
            "duration": 0.042856999999997925,
            "durationTicks": 96,
            "midi": 35,
            "name": "B1",
            "ticks": 295776,
            "time": 132.042417,
            "velocity": 0.3937007874015748
          },
          {
            "duration": 0.042856999999997925,
            "durationTicks": 96,
            "midi": 47,
            "name": "B2",
            "ticks": 295968,
            "time": 132.128131,
            "velocity": 0.3937007874015748
          },
          {
            "duration": 0.042856999999997925,
            "durationTicks": 96,
            "midi": 35,
            "name": "B1",
            "ticks": 295968,
            "time": 132.128131,
            "velocity": 0.3937007874015748
          },
          {
            "duration": 0.042856999999997925,
            "durationTicks": 96,
            "midi": 47,
            "name": "B2",
            "ticks": 296160,
            "time": 132.213845,
            "velocity": 0.3937007874015748
          },
          {
            "duration": 0.042856999999997925,
            "durationTicks": 96,
            "midi": 35,
            "name": "B1",
            "ticks": 296160,
            "time": 132.213845,
            "velocity": 0.3937007874015748
          },
          {
            "duration": 0.042856999999997925,
            "durationTicks": 96,
            "midi": 47,
            "name": "B2",
            "ticks": 296352,
            "time": 132.299559,
            "velocity": 0.3937007874015748
          },
          {
            "duration": 0.042856999999997925,
            "durationTicks": 96,
            "midi": 35,
            "name": "B1",
            "ticks": 296352,
            "time": 132.299559,
            "velocity": 0.3937007874015748
          },
          {
            "duration": 0.042857000000026346,
            "durationTicks": 96,
            "midi": 40,
            "name": "E2",
            "ticks": 296544,
            "time": 132.38527299999998,
            "velocity": 0.3937007874015748
          },
          {
            "duration": 0.042857000000026346,
            "durationTicks": 96,
            "midi": 52,
            "name": "E3",
            "ticks": 296544,
            "time": 132.38527299999998,
            "velocity": 0.3937007874015748
          },
          {
            "duration": 0.042856999999997925,
            "durationTicks": 96,
            "midi": 40,
            "name": "E2",
            "ticks": 296736,
            "time": 132.470987,
            "velocity": 0.3937007874015748
          },
          {
            "duration": 0.042856999999997925,
            "durationTicks": 96,
            "midi": 52,
            "name": "E3",
            "ticks": 296736,
            "time": 132.470987,
            "velocity": 0.3937007874015748
          },
          {
            "duration": 0.042856999999997925,
            "durationTicks": 96,
            "midi": 40,
            "name": "E2",
            "ticks": 296928,
            "time": 132.556701,
            "velocity": 0.3937007874015748
          },
          {
            "duration": 0.042856999999997925,
            "durationTicks": 96,
            "midi": 52,
            "name": "E3",
            "ticks": 296928,
            "time": 132.556701,
            "velocity": 0.3937007874015748
          },
          {
            "duration": 0.042856999999997925,
            "durationTicks": 96,
            "midi": 40,
            "name": "E2",
            "ticks": 297120,
            "time": 132.642415,
            "velocity": 0.3937007874015748
          },
          {
            "duration": 0.042856999999997925,
            "durationTicks": 96,
            "midi": 52,
            "name": "E3",
            "ticks": 297120,
            "time": 132.642415,
            "velocity": 0.3937007874015748
          },
          {
            "duration": 0.042856999999997925,
            "durationTicks": 96,
            "midi": 50,
            "name": "D3",
            "ticks": 297312,
            "time": 132.728129,
            "velocity": 0.3937007874015748
          },
          {
            "duration": 0.042856999999997925,
            "durationTicks": 96,
            "midi": 38,
            "name": "D2",
            "ticks": 297312,
            "time": 132.728129,
            "velocity": 0.3937007874015748
          },
          {
            "duration": 0.042856999999997925,
            "durationTicks": 96,
            "midi": 50,
            "name": "D3",
            "ticks": 297504,
            "time": 132.813843,
            "velocity": 0.3937007874015748
          },
          {
            "duration": 0.042856999999997925,
            "durationTicks": 96,
            "midi": 38,
            "name": "D2",
            "ticks": 297504,
            "time": 132.813843,
            "velocity": 0.3937007874015748
          },
          {
            "duration": 0.042856999999997925,
            "durationTicks": 96,
            "midi": 50,
            "name": "D3",
            "ticks": 297696,
            "time": 132.899557,
            "velocity": 0.3937007874015748
          },
          {
            "duration": 0.042856999999997925,
            "durationTicks": 96,
            "midi": 38,
            "name": "D2",
            "ticks": 297696,
            "time": 132.899557,
            "velocity": 0.3937007874015748
          },
          {
            "duration": 0.042856999999997925,
            "durationTicks": 96,
            "midi": 50,
            "name": "D3",
            "ticks": 297888,
            "time": 132.985271,
            "velocity": 0.3937007874015748
          },
          {
            "duration": 0.042856999999997925,
            "durationTicks": 96,
            "midi": 38,
            "name": "D2",
            "ticks": 297888,
            "time": 132.985271,
            "velocity": 0.3937007874015748
          },
          {
            "duration": 0.042856999999997925,
            "durationTicks": 96,
            "midi": 36,
            "name": "C2",
            "ticks": 298080,
            "time": 133.070985,
            "velocity": 0.3937007874015748
          },
          {
            "duration": 0.042856999999997925,
            "durationTicks": 96,
            "midi": 48,
            "name": "C3",
            "ticks": 298080,
            "time": 133.070985,
            "velocity": 0.3937007874015748
          },
          {
            "duration": 0.042856999999997925,
            "durationTicks": 96,
            "midi": 36,
            "name": "C2",
            "ticks": 298272,
            "time": 133.156699,
            "velocity": 0.3937007874015748
          },
          {
            "duration": 0.042856999999997925,
            "durationTicks": 96,
            "midi": 48,
            "name": "C3",
            "ticks": 298272,
            "time": 133.156699,
            "velocity": 0.3937007874015748
          },
          {
            "duration": 0.042856999999997925,
            "durationTicks": 96,
            "midi": 36,
            "name": "C2",
            "ticks": 298464,
            "time": 133.242413,
            "velocity": 0.3937007874015748
          },
          {
            "duration": 0.042856999999997925,
            "durationTicks": 96,
            "midi": 48,
            "name": "C3",
            "ticks": 298464,
            "time": 133.242413,
            "velocity": 0.3937007874015748
          },
          {
            "duration": 0.042856999999997925,
            "durationTicks": 96,
            "midi": 48,
            "name": "C3",
            "ticks": 298656,
            "time": 133.328127,
            "velocity": 0.3937007874015748
          },
          {
            "duration": 0.042856999999997925,
            "durationTicks": 96,
            "midi": 36,
            "name": "C2",
            "ticks": 298656,
            "time": 133.328127,
            "velocity": 0.3937007874015748
          },
          {
            "duration": 0.042856999999997925,
            "durationTicks": 96,
            "midi": 35,
            "name": "B1",
            "ticks": 298848,
            "time": 133.413841,
            "velocity": 0.3937007874015748
          },
          {
            "duration": 0.042856999999997925,
            "durationTicks": 96,
            "midi": 47,
            "name": "B2",
            "ticks": 298848,
            "time": 133.413841,
            "velocity": 0.3937007874015748
          },
          {
            "duration": 0.042856999999997925,
            "durationTicks": 96,
            "midi": 47,
            "name": "B2",
            "ticks": 299040,
            "time": 133.499555,
            "velocity": 0.3937007874015748
          },
          {
            "duration": 0.042856999999997925,
            "durationTicks": 96,
            "midi": 35,
            "name": "B1",
            "ticks": 299040,
            "time": 133.499555,
            "velocity": 0.3937007874015748
          },
          {
            "duration": 0.042856999999997925,
            "durationTicks": 96,
            "midi": 47,
            "name": "B2",
            "ticks": 299232,
            "time": 133.585269,
            "velocity": 0.3937007874015748
          },
          {
            "duration": 0.042856999999997925,
            "durationTicks": 96,
            "midi": 35,
            "name": "B1",
            "ticks": 299232,
            "time": 133.585269,
            "velocity": 0.3937007874015748
          },
          {
            "duration": 0.042856999999997925,
            "durationTicks": 96,
            "midi": 47,
            "name": "B2",
            "ticks": 299424,
            "time": 133.670983,
            "velocity": 0.3937007874015748
          },
          {
            "duration": 0.042856999999997925,
            "durationTicks": 96,
            "midi": 35,
            "name": "B1",
            "ticks": 299424,
            "time": 133.670983,
            "velocity": 0.3937007874015748
          },
          {
            "duration": 0.042856999999997925,
            "durationTicks": 96,
            "midi": 33,
            "name": "A1",
            "ticks": 299616,
            "time": 133.756697,
            "velocity": 0.3937007874015748
          },
          {
            "duration": 0.042856999999997925,
            "durationTicks": 96,
            "midi": 33,
            "name": "A1",
            "ticks": 299808,
            "time": 133.842411,
            "velocity": 0.3937007874015748
          },
          {
            "duration": 0.042856999999997925,
            "durationTicks": 96,
            "midi": 33,
            "name": "A1",
            "ticks": 300000,
            "time": 133.928125,
            "velocity": 0.3937007874015748
          },
          {
            "duration": 0.042856999999997925,
            "durationTicks": 96,
            "midi": 33,
            "name": "A1",
            "ticks": 300192,
            "time": 134.013839,
            "velocity": 0.3937007874015748
          },
          {
            "duration": 0.042856999999997925,
            "durationTicks": 96,
            "midi": 33,
            "name": "A1",
            "ticks": 300384,
            "time": 134.099553,
            "velocity": 0.3937007874015748
          },
          {
            "duration": 0.042856999999997925,
            "durationTicks": 96,
            "midi": 33,
            "name": "A1",
            "ticks": 300576,
            "time": 134.185267,
            "velocity": 0.3937007874015748
          },
          {
            "duration": 0.042856999999997925,
            "durationTicks": 96,
            "midi": 33,
            "name": "A1",
            "ticks": 300768,
            "time": 134.270981,
            "velocity": 0.3937007874015748
          },
          {
            "duration": 0.042856999999997925,
            "durationTicks": 96,
            "midi": 33,
            "name": "A1",
            "ticks": 300960,
            "time": 134.356695,
            "velocity": 0.3937007874015748
          },
          {
            "duration": 0.042856999999997925,
            "durationTicks": 96,
            "midi": 33,
            "name": "A1",
            "ticks": 301152,
            "time": 134.442409,
            "velocity": 0.3937007874015748
          },
          {
            "duration": 0.042856999999997925,
            "durationTicks": 96,
            "midi": 33,
            "name": "A1",
            "ticks": 301344,
            "time": 134.528123,
            "velocity": 0.3937007874015748
          },
          {
            "duration": 0.042856999999997925,
            "durationTicks": 96,
            "midi": 33,
            "name": "A1",
            "ticks": 301536,
            "time": 134.613837,
            "velocity": 0.3937007874015748
          },
          {
            "duration": 0.042857000000026346,
            "durationTicks": 96,
            "midi": 33,
            "name": "A1",
            "ticks": 301728,
            "time": 134.69955099999999,
            "velocity": 0.3937007874015748
          },
          {
            "duration": 0.042856999999997925,
            "durationTicks": 96,
            "midi": 33,
            "name": "A1",
            "ticks": 301920,
            "time": 134.785265,
            "velocity": 0.3937007874015748
          },
          {
            "duration": 0.042856999999997925,
            "durationTicks": 96,
            "midi": 33,
            "name": "A1",
            "ticks": 302112,
            "time": 134.870979,
            "velocity": 0.3937007874015748
          },
          {
            "duration": 0.042856999999997925,
            "durationTicks": 96,
            "midi": 33,
            "name": "A1",
            "ticks": 302304,
            "time": 134.956693,
            "velocity": 0.3937007874015748
          },
          {
            "duration": 0.042856999999997925,
            "durationTicks": 96,
            "midi": 33,
            "name": "A1",
            "ticks": 302496,
            "time": 135.042407,
            "velocity": 0.3937007874015748
          },
          {
            "duration": 0.042856999999997925,
            "durationTicks": 96,
            "midi": 48,
            "name": "C3",
            "ticks": 302688,
            "time": 135.128121,
            "velocity": 0.3937007874015748
          },
          {
            "duration": 0.042856999999997925,
            "durationTicks": 96,
            "midi": 36,
            "name": "C2",
            "ticks": 302688,
            "time": 135.128121,
            "velocity": 0.3937007874015748
          },
          {
            "duration": 0.042856999999997925,
            "durationTicks": 96,
            "midi": 48,
            "name": "C3",
            "ticks": 302880,
            "time": 135.213835,
            "velocity": 0.3937007874015748
          },
          {
            "duration": 0.042856999999997925,
            "durationTicks": 96,
            "midi": 36,
            "name": "C2",
            "ticks": 302880,
            "time": 135.213835,
            "velocity": 0.3937007874015748
          },
          {
            "duration": 0.042857000000026346,
            "durationTicks": 96,
            "midi": 48,
            "name": "C3",
            "ticks": 303072,
            "time": 135.29954899999998,
            "velocity": 0.3937007874015748
          },
          {
            "duration": 0.042857000000026346,
            "durationTicks": 96,
            "midi": 36,
            "name": "C2",
            "ticks": 303072,
            "time": 135.29954899999998,
            "velocity": 0.3937007874015748
          },
          {
            "duration": 0.042856999999997925,
            "durationTicks": 96,
            "midi": 36,
            "name": "C2",
            "ticks": 303264,
            "time": 135.385263,
            "velocity": 0.3937007874015748
          },
          {
            "duration": 0.042856999999997925,
            "durationTicks": 96,
            "midi": 48,
            "name": "C3",
            "ticks": 303264,
            "time": 135.385263,
            "velocity": 0.3937007874015748
          },
          {
            "duration": 0.042856999999997925,
            "durationTicks": 96,
            "midi": 36,
            "name": "C2",
            "ticks": 303456,
            "time": 135.470977,
            "velocity": 0.3937007874015748
          },
          {
            "duration": 0.042856999999997925,
            "durationTicks": 96,
            "midi": 48,
            "name": "C3",
            "ticks": 303456,
            "time": 135.470977,
            "velocity": 0.3937007874015748
          },
          {
            "duration": 0.042856999999997925,
            "durationTicks": 96,
            "midi": 48,
            "name": "C3",
            "ticks": 303648,
            "time": 135.556691,
            "velocity": 0.3937007874015748
          },
          {
            "duration": 0.042856999999997925,
            "durationTicks": 96,
            "midi": 36,
            "name": "C2",
            "ticks": 303648,
            "time": 135.556691,
            "velocity": 0.3937007874015748
          },
          {
            "duration": 0.042856999999997925,
            "durationTicks": 96,
            "midi": 36,
            "name": "C2",
            "ticks": 303840,
            "time": 135.642405,
            "velocity": 0.3937007874015748
          },
          {
            "duration": 0.042856999999997925,
            "durationTicks": 96,
            "midi": 48,
            "name": "C3",
            "ticks": 303840,
            "time": 135.642405,
            "velocity": 0.3937007874015748
          },
          {
            "duration": 0.042856999999997925,
            "durationTicks": 96,
            "midi": 48,
            "name": "C3",
            "ticks": 304032,
            "time": 135.728119,
            "velocity": 0.3937007874015748
          },
          {
            "duration": 0.042856999999997925,
            "durationTicks": 96,
            "midi": 36,
            "name": "C2",
            "ticks": 304032,
            "time": 135.728119,
            "velocity": 0.3937007874015748
          },
          {
            "duration": 0.042856999999997925,
            "durationTicks": 96,
            "midi": 36,
            "name": "C2",
            "ticks": 304224,
            "time": 135.813833,
            "velocity": 0.3937007874015748
          },
          {
            "duration": 0.042856999999997925,
            "durationTicks": 96,
            "midi": 48,
            "name": "C3",
            "ticks": 304224,
            "time": 135.813833,
            "velocity": 0.3937007874015748
          },
          {
            "duration": 0.042857000000026346,
            "durationTicks": 96,
            "midi": 36,
            "name": "C2",
            "ticks": 304416,
            "time": 135.89954699999998,
            "velocity": 0.3937007874015748
          },
          {
            "duration": 0.042857000000026346,
            "durationTicks": 96,
            "midi": 48,
            "name": "C3",
            "ticks": 304416,
            "time": 135.89954699999998,
            "velocity": 0.3937007874015748
          },
          {
            "duration": 0.042856999999997925,
            "durationTicks": 96,
            "midi": 48,
            "name": "C3",
            "ticks": 304608,
            "time": 135.985261,
            "velocity": 0.3937007874015748
          },
          {
            "duration": 0.042856999999997925,
            "durationTicks": 96,
            "midi": 36,
            "name": "C2",
            "ticks": 304608,
            "time": 135.985261,
            "velocity": 0.3937007874015748
          },
          {
            "duration": 0.042856999999997925,
            "durationTicks": 96,
            "midi": 36,
            "name": "C2",
            "ticks": 304800,
            "time": 136.070975,
            "velocity": 0.3937007874015748
          },
          {
            "duration": 0.042856999999997925,
            "durationTicks": 96,
            "midi": 48,
            "name": "C3",
            "ticks": 304800,
            "time": 136.070975,
            "velocity": 0.3937007874015748
          },
          {
            "duration": 0.042856999999997925,
            "durationTicks": 96,
            "midi": 36,
            "name": "C2",
            "ticks": 304992,
            "time": 136.156689,
            "velocity": 0.3937007874015748
          },
          {
            "duration": 0.042856999999997925,
            "durationTicks": 96,
            "midi": 48,
            "name": "C3",
            "ticks": 304992,
            "time": 136.156689,
            "velocity": 0.3937007874015748
          },
          {
            "duration": 0.042856999999997925,
            "durationTicks": 96,
            "midi": 48,
            "name": "C3",
            "ticks": 305184,
            "time": 136.242403,
            "velocity": 0.3937007874015748
          },
          {
            "duration": 0.042856999999997925,
            "durationTicks": 96,
            "midi": 36,
            "name": "C2",
            "ticks": 305184,
            "time": 136.242403,
            "velocity": 0.3937007874015748
          },
          {
            "duration": 0.042856999999997925,
            "durationTicks": 96,
            "midi": 48,
            "name": "C3",
            "ticks": 305376,
            "time": 136.328117,
            "velocity": 0.3937007874015748
          },
          {
            "duration": 0.042856999999997925,
            "durationTicks": 96,
            "midi": 36,
            "name": "C2",
            "ticks": 305376,
            "time": 136.328117,
            "velocity": 0.3937007874015748
          },
          {
            "duration": 0.042856999999997925,
            "durationTicks": 96,
            "midi": 36,
            "name": "C2",
            "ticks": 305568,
            "time": 136.413831,
            "velocity": 0.3937007874015748
          },
          {
            "duration": 0.042856999999997925,
            "durationTicks": 96,
            "midi": 48,
            "name": "C3",
            "ticks": 305568,
            "time": 136.413831,
            "velocity": 0.3937007874015748
          },
          {
            "duration": 0.042857000000026346,
            "durationTicks": 96,
            "midi": 53,
            "name": "F3",
            "ticks": 305760,
            "time": 136.49954499999998,
            "velocity": 0.3937007874015748
          },
          {
            "duration": 0.042857000000026346,
            "durationTicks": 96,
            "midi": 41,
            "name": "F2",
            "ticks": 305760,
            "time": 136.49954499999998,
            "velocity": 0.3937007874015748
          },
          {
            "duration": 0.042856999999997925,
            "durationTicks": 96,
            "midi": 41,
            "name": "F2",
            "ticks": 305952,
            "time": 136.585259,
            "velocity": 0.3937007874015748
          },
          {
            "duration": 0.042856999999997925,
            "durationTicks": 96,
            "midi": 53,
            "name": "F3",
            "ticks": 305952,
            "time": 136.585259,
            "velocity": 0.3937007874015748
          },
          {
            "duration": 0.042856999999997925,
            "durationTicks": 96,
            "midi": 41,
            "name": "F2",
            "ticks": 306144,
            "time": 136.670973,
            "velocity": 0.3937007874015748
          },
          {
            "duration": 0.042856999999997925,
            "durationTicks": 96,
            "midi": 53,
            "name": "F3",
            "ticks": 306144,
            "time": 136.670973,
            "velocity": 0.3937007874015748
          },
          {
            "duration": 0.042856999999997925,
            "durationTicks": 96,
            "midi": 41,
            "name": "F2",
            "ticks": 306336,
            "time": 136.756687,
            "velocity": 0.3937007874015748
          },
          {
            "duration": 0.042856999999997925,
            "durationTicks": 96,
            "midi": 53,
            "name": "F3",
            "ticks": 306336,
            "time": 136.756687,
            "velocity": 0.3937007874015748
          },
          {
            "duration": 0.042856999999997925,
            "durationTicks": 96,
            "midi": 53,
            "name": "F3",
            "ticks": 306528,
            "time": 136.842401,
            "velocity": 0.3937007874015748
          },
          {
            "duration": 0.042856999999997925,
            "durationTicks": 96,
            "midi": 41,
            "name": "F2",
            "ticks": 306528,
            "time": 136.842401,
            "velocity": 0.3937007874015748
          },
          {
            "duration": 0.042856999999997925,
            "durationTicks": 96,
            "midi": 41,
            "name": "F2",
            "ticks": 306720,
            "time": 136.928115,
            "velocity": 0.3937007874015748
          },
          {
            "duration": 0.042856999999997925,
            "durationTicks": 96,
            "midi": 53,
            "name": "F3",
            "ticks": 306720,
            "time": 136.928115,
            "velocity": 0.3937007874015748
          },
          {
            "duration": 0.042856999999997925,
            "durationTicks": 96,
            "midi": 53,
            "name": "F3",
            "ticks": 306912,
            "time": 137.013829,
            "velocity": 0.3937007874015748
          },
          {
            "duration": 0.042856999999997925,
            "durationTicks": 96,
            "midi": 41,
            "name": "F2",
            "ticks": 306912,
            "time": 137.013829,
            "velocity": 0.3937007874015748
          },
          {
            "duration": 0.042856999999997925,
            "durationTicks": 96,
            "midi": 53,
            "name": "F3",
            "ticks": 307104,
            "time": 137.099543,
            "velocity": 0.3937007874015748
          },
          {
            "duration": 0.042856999999997925,
            "durationTicks": 96,
            "midi": 41,
            "name": "F2",
            "ticks": 307104,
            "time": 137.099543,
            "velocity": 0.3937007874015748
          },
          {
            "duration": 0.042856999999997925,
            "durationTicks": 96,
            "midi": 41,
            "name": "F2",
            "ticks": 307296,
            "time": 137.185257,
            "velocity": 0.3937007874015748
          },
          {
            "duration": 0.042856999999997925,
            "durationTicks": 96,
            "midi": 53,
            "name": "F3",
            "ticks": 307296,
            "time": 137.185257,
            "velocity": 0.3937007874015748
          },
          {
            "duration": 0.042856999999997925,
            "durationTicks": 96,
            "midi": 41,
            "name": "F2",
            "ticks": 307488,
            "time": 137.270971,
            "velocity": 0.3937007874015748
          },
          {
            "duration": 0.042856999999997925,
            "durationTicks": 96,
            "midi": 53,
            "name": "F3",
            "ticks": 307488,
            "time": 137.270971,
            "velocity": 0.3937007874015748
          },
          {
            "duration": 0.042856999999997925,
            "durationTicks": 96,
            "midi": 41,
            "name": "F2",
            "ticks": 307680,
            "time": 137.356685,
            "velocity": 0.3937007874015748
          },
          {
            "duration": 0.042856999999997925,
            "durationTicks": 96,
            "midi": 53,
            "name": "F3",
            "ticks": 307680,
            "time": 137.356685,
            "velocity": 0.3937007874015748
          },
          {
            "duration": 0.042856999999997925,
            "durationTicks": 96,
            "midi": 53,
            "name": "F3",
            "ticks": 307872,
            "time": 137.442399,
            "velocity": 0.3937007874015748
          },
          {
            "duration": 0.042856999999997925,
            "durationTicks": 96,
            "midi": 41,
            "name": "F2",
            "ticks": 307872,
            "time": 137.442399,
            "velocity": 0.3937007874015748
          },
          {
            "duration": 0.042856999999997925,
            "durationTicks": 96,
            "midi": 53,
            "name": "F3",
            "ticks": 308064,
            "time": 137.528113,
            "velocity": 0.3937007874015748
          },
          {
            "duration": 0.042856999999997925,
            "durationTicks": 96,
            "midi": 41,
            "name": "F2",
            "ticks": 308064,
            "time": 137.528113,
            "velocity": 0.3937007874015748
          },
          {
            "duration": 0.042856999999997925,
            "durationTicks": 96,
            "midi": 53,
            "name": "F3",
            "ticks": 308256,
            "time": 137.613827,
            "velocity": 0.3937007874015748
          },
          {
            "duration": 0.042856999999997925,
            "durationTicks": 96,
            "midi": 41,
            "name": "F2",
            "ticks": 308256,
            "time": 137.613827,
            "velocity": 0.3937007874015748
          },
          {
            "duration": 0.042856999999997925,
            "durationTicks": 96,
            "midi": 41,
            "name": "F2",
            "ticks": 308448,
            "time": 137.699541,
            "velocity": 0.3937007874015748
          },
          {
            "duration": 0.042856999999997925,
            "durationTicks": 96,
            "midi": 53,
            "name": "F3",
            "ticks": 308448,
            "time": 137.699541,
            "velocity": 0.3937007874015748
          },
          {
            "duration": 0.042856999999997925,
            "durationTicks": 96,
            "midi": 53,
            "name": "F3",
            "ticks": 308640,
            "time": 137.785255,
            "velocity": 0.3937007874015748
          },
          {
            "duration": 0.042856999999997925,
            "durationTicks": 96,
            "midi": 41,
            "name": "F2",
            "ticks": 308640,
            "time": 137.785255,
            "velocity": 0.3937007874015748
          },
          {
            "duration": 0.042856999999997925,
            "durationTicks": 96,
            "midi": 40,
            "name": "E2",
            "ticks": 308832,
            "time": 137.870969,
            "velocity": 0.3937007874015748
          },
          {
            "duration": 0.042856999999997925,
            "durationTicks": 96,
            "midi": 52,
            "name": "E3",
            "ticks": 308832,
            "time": 137.870969,
            "velocity": 0.3937007874015748
          },
          {
            "duration": 0.042856999999997925,
            "durationTicks": 96,
            "midi": 52,
            "name": "E3",
            "ticks": 309024,
            "time": 137.956683,
            "velocity": 0.3937007874015748
          },
          {
            "duration": 0.042856999999997925,
            "durationTicks": 96,
            "midi": 40,
            "name": "E2",
            "ticks": 309024,
            "time": 137.956683,
            "velocity": 0.3937007874015748
          },
          {
            "duration": 0.042856999999997925,
            "durationTicks": 96,
            "midi": 52,
            "name": "E3",
            "ticks": 309216,
            "time": 138.042397,
            "velocity": 0.3937007874015748
          },
          {
            "duration": 0.042856999999997925,
            "durationTicks": 96,
            "midi": 40,
            "name": "E2",
            "ticks": 309216,
            "time": 138.042397,
            "velocity": 0.3937007874015748
          },
          {
            "duration": 0.042856999999997925,
            "durationTicks": 96,
            "midi": 52,
            "name": "E3",
            "ticks": 309408,
            "time": 138.128111,
            "velocity": 0.3937007874015748
          },
          {
            "duration": 0.042856999999997925,
            "durationTicks": 96,
            "midi": 40,
            "name": "E2",
            "ticks": 309408,
            "time": 138.128111,
            "velocity": 0.3937007874015748
          },
          {
            "duration": 0.042856999999997925,
            "durationTicks": 96,
            "midi": 40,
            "name": "E2",
            "ticks": 309600,
            "time": 138.21382499999999,
            "velocity": 0.3937007874015748
          },
          {
            "duration": 0.042856999999997925,
            "durationTicks": 96,
            "midi": 52,
            "name": "E3",
            "ticks": 309600,
            "time": 138.21382499999999,
            "velocity": 0.3937007874015748
          },
          {
            "duration": 0.042856999999997925,
            "durationTicks": 96,
            "midi": 52,
            "name": "E3",
            "ticks": 309792,
            "time": 138.299539,
            "velocity": 0.3937007874015748
          },
          {
            "duration": 0.042856999999997925,
            "durationTicks": 96,
            "midi": 40,
            "name": "E2",
            "ticks": 309792,
            "time": 138.299539,
            "velocity": 0.3937007874015748
          },
          {
            "duration": 0.042856999999997925,
            "durationTicks": 96,
            "midi": 40,
            "name": "E2",
            "ticks": 309984,
            "time": 138.385253,
            "velocity": 0.3937007874015748
          },
          {
            "duration": 0.042856999999997925,
            "durationTicks": 96,
            "midi": 52,
            "name": "E3",
            "ticks": 309984,
            "time": 138.385253,
            "velocity": 0.3937007874015748
          },
          {
            "duration": 0.042856999999997925,
            "durationTicks": 96,
            "midi": 52,
            "name": "E3",
            "ticks": 310176,
            "time": 138.470967,
            "velocity": 0.3937007874015748
          },
          {
            "duration": 0.042856999999997925,
            "durationTicks": 96,
            "midi": 40,
            "name": "E2",
            "ticks": 310176,
            "time": 138.470967,
            "velocity": 0.3937007874015748
          },
          {
            "duration": 0.042856999999997925,
            "durationTicks": 96,
            "midi": 40,
            "name": "E2",
            "ticks": 310368,
            "time": 138.556681,
            "velocity": 0.3937007874015748
          },
          {
            "duration": 0.042856999999997925,
            "durationTicks": 96,
            "midi": 52,
            "name": "E3",
            "ticks": 310368,
            "time": 138.556681,
            "velocity": 0.3937007874015748
          },
          {
            "duration": 0.042856999999997925,
            "durationTicks": 96,
            "midi": 52,
            "name": "E3",
            "ticks": 310560,
            "time": 138.642395,
            "velocity": 0.3937007874015748
          },
          {
            "duration": 0.042856999999997925,
            "durationTicks": 96,
            "midi": 40,
            "name": "E2",
            "ticks": 310560,
            "time": 138.642395,
            "velocity": 0.3937007874015748
          },
          {
            "duration": 0.042856999999997925,
            "durationTicks": 96,
            "midi": 52,
            "name": "E3",
            "ticks": 310752,
            "time": 138.728109,
            "velocity": 0.3937007874015748
          },
          {
            "duration": 0.042856999999997925,
            "durationTicks": 96,
            "midi": 40,
            "name": "E2",
            "ticks": 310752,
            "time": 138.728109,
            "velocity": 0.3937007874015748
          },
          {
            "duration": 0.042857000000026346,
            "durationTicks": 96,
            "midi": 52,
            "name": "E3",
            "ticks": 310944,
            "time": 138.81382299999999,
            "velocity": 0.3937007874015748
          },
          {
            "duration": 0.042857000000026346,
            "durationTicks": 96,
            "midi": 40,
            "name": "E2",
            "ticks": 310944,
            "time": 138.81382299999999,
            "velocity": 0.3937007874015748
          },
          {
            "duration": 0.042856999999997925,
            "durationTicks": 96,
            "midi": 40,
            "name": "E2",
            "ticks": 311136,
            "time": 138.899537,
            "velocity": 0.3937007874015748
          },
          {
            "duration": 0.042856999999997925,
            "durationTicks": 96,
            "midi": 52,
            "name": "E3",
            "ticks": 311136,
            "time": 138.899537,
            "velocity": 0.3937007874015748
          },
          {
            "duration": 0.042856999999997925,
            "durationTicks": 96,
            "midi": 52,
            "name": "E3",
            "ticks": 311328,
            "time": 138.985251,
            "velocity": 0.3937007874015748
          },
          {
            "duration": 0.042856999999997925,
            "durationTicks": 96,
            "midi": 40,
            "name": "E2",
            "ticks": 311328,
            "time": 138.985251,
            "velocity": 0.3937007874015748
          },
          {
            "duration": 0.042856999999997925,
            "durationTicks": 96,
            "midi": 52,
            "name": "E3",
            "ticks": 311520,
            "time": 139.070965,
            "velocity": 0.3937007874015748
          },
          {
            "duration": 0.042856999999997925,
            "durationTicks": 96,
            "midi": 40,
            "name": "E2",
            "ticks": 311520,
            "time": 139.070965,
            "velocity": 0.3937007874015748
          },
          {
            "duration": 0.042856999999997925,
            "durationTicks": 96,
            "midi": 40,
            "name": "E2",
            "ticks": 311712,
            "time": 139.156679,
            "velocity": 0.3937007874015748
          },
          {
            "duration": 0.042856999999997925,
            "durationTicks": 96,
            "midi": 52,
            "name": "E3",
            "ticks": 311712,
            "time": 139.156679,
            "velocity": 0.3937007874015748
          },
          {
            "duration": 0.042856999999997925,
            "durationTicks": 96,
            "midi": 38,
            "name": "D2",
            "ticks": 311904,
            "time": 139.242393,
            "velocity": 0.3937007874015748
          },
          {
            "duration": 0.042856999999997925,
            "durationTicks": 96,
            "midi": 50,
            "name": "D3",
            "ticks": 311904,
            "time": 139.242393,
            "velocity": 0.3937007874015748
          },
          {
            "duration": 0.042856999999997925,
            "durationTicks": 96,
            "midi": 50,
            "name": "D3",
            "ticks": 312096,
            "time": 139.328107,
            "velocity": 0.3937007874015748
          },
          {
            "duration": 0.042856999999997925,
            "durationTicks": 96,
            "midi": 38,
            "name": "D2",
            "ticks": 312096,
            "time": 139.328107,
            "velocity": 0.3937007874015748
          },
          {
            "duration": 0.042857000000026346,
            "durationTicks": 96,
            "midi": 38,
            "name": "D2",
            "ticks": 312288,
            "time": 139.41382099999998,
            "velocity": 0.3937007874015748
          },
          {
            "duration": 0.042857000000026346,
            "durationTicks": 96,
            "midi": 50,
            "name": "D3",
            "ticks": 312288,
            "time": 139.41382099999998,
            "velocity": 0.3937007874015748
          },
          {
            "duration": 0.042856999999997925,
            "durationTicks": 96,
            "midi": 50,
            "name": "D3",
            "ticks": 312480,
            "time": 139.499535,
            "velocity": 0.3937007874015748
          },
          {
            "duration": 0.042856999999997925,
            "durationTicks": 96,
            "midi": 38,
            "name": "D2",
            "ticks": 312480,
            "time": 139.499535,
            "velocity": 0.3937007874015748
          },
          {
            "duration": 0.042856999999997925,
            "durationTicks": 96,
            "midi": 50,
            "name": "D3",
            "ticks": 312672,
            "time": 139.585249,
            "velocity": 0.3937007874015748
          },
          {
            "duration": 0.042856999999997925,
            "durationTicks": 96,
            "midi": 38,
            "name": "D2",
            "ticks": 312672,
            "time": 139.585249,
            "velocity": 0.3937007874015748
          },
          {
            "duration": 0.042856999999997925,
            "durationTicks": 96,
            "midi": 38,
            "name": "D2",
            "ticks": 312864,
            "time": 139.670963,
            "velocity": 0.3937007874015748
          },
          {
            "duration": 0.042856999999997925,
            "durationTicks": 96,
            "midi": 50,
            "name": "D3",
            "ticks": 312864,
            "time": 139.670963,
            "velocity": 0.3937007874015748
          },
          {
            "duration": 0.042856999999997925,
            "durationTicks": 96,
            "midi": 38,
            "name": "D2",
            "ticks": 313056,
            "time": 139.756677,
            "velocity": 0.3937007874015748
          },
          {
            "duration": 0.042856999999997925,
            "durationTicks": 96,
            "midi": 50,
            "name": "D3",
            "ticks": 313056,
            "time": 139.756677,
            "velocity": 0.3937007874015748
          },
          {
            "duration": 0.042856999999997925,
            "durationTicks": 96,
            "midi": 50,
            "name": "D3",
            "ticks": 313248,
            "time": 139.842391,
            "velocity": 0.3937007874015748
          },
          {
            "duration": 0.042856999999997925,
            "durationTicks": 96,
            "midi": 38,
            "name": "D2",
            "ticks": 313248,
            "time": 139.842391,
            "velocity": 0.3937007874015748
          },
          {
            "duration": 0.042856999999997925,
            "durationTicks": 96,
            "midi": 52,
            "name": "E3",
            "ticks": 313440,
            "time": 139.928105,
            "velocity": 0.3937007874015748
          },
          {
            "duration": 0.042856999999997925,
            "durationTicks": 96,
            "midi": 40,
            "name": "E2",
            "ticks": 313440,
            "time": 139.928105,
            "velocity": 0.3937007874015748
          },
          {
            "duration": 0.042857000000026346,
            "durationTicks": 96,
            "midi": 52,
            "name": "E3",
            "ticks": 313632,
            "time": 140.01381899999998,
            "velocity": 0.3937007874015748
          },
          {
            "duration": 0.042857000000026346,
            "durationTicks": 96,
            "midi": 40,
            "name": "E2",
            "ticks": 313632,
            "time": 140.01381899999998,
            "velocity": 0.3937007874015748
          },
          {
            "duration": 0.042856999999997925,
            "durationTicks": 96,
            "midi": 40,
            "name": "E2",
            "ticks": 313824,
            "time": 140.099533,
            "velocity": 0.3937007874015748
          },
          {
            "duration": 0.042856999999997925,
            "durationTicks": 96,
            "midi": 52,
            "name": "E3",
            "ticks": 313824,
            "time": 140.099533,
            "velocity": 0.3937007874015748
          },
          {
            "duration": 0.042856999999997925,
            "durationTicks": 96,
            "midi": 52,
            "name": "E3",
            "ticks": 314016,
            "time": 140.185247,
            "velocity": 0.3937007874015748
          },
          {
            "duration": 0.042856999999997925,
            "durationTicks": 96,
            "midi": 40,
            "name": "E2",
            "ticks": 314016,
            "time": 140.185247,
            "velocity": 0.3937007874015748
          },
          {
            "duration": 0.042856999999997925,
            "durationTicks": 96,
            "midi": 40,
            "name": "E2",
            "ticks": 314208,
            "time": 140.270961,
            "velocity": 0.3937007874015748
          },
          {
            "duration": 0.042856999999997925,
            "durationTicks": 96,
            "midi": 52,
            "name": "E3",
            "ticks": 314208,
            "time": 140.270961,
            "velocity": 0.3937007874015748
          },
          {
            "duration": 0.042856999999997925,
            "durationTicks": 96,
            "midi": 40,
            "name": "E2",
            "ticks": 314400,
            "time": 140.356675,
            "velocity": 0.3937007874015748
          },
          {
            "duration": 0.042856999999997925,
            "durationTicks": 96,
            "midi": 52,
            "name": "E3",
            "ticks": 314400,
            "time": 140.356675,
            "velocity": 0.3937007874015748
          },
          {
            "duration": 0.042856999999997925,
            "durationTicks": 96,
            "midi": 52,
            "name": "E3",
            "ticks": 314592,
            "time": 140.442389,
            "velocity": 0.3937007874015748
          },
          {
            "duration": 0.042856999999997925,
            "durationTicks": 96,
            "midi": 40,
            "name": "E2",
            "ticks": 314592,
            "time": 140.442389,
            "velocity": 0.3937007874015748
          },
          {
            "duration": 0.042856999999997925,
            "durationTicks": 96,
            "midi": 40,
            "name": "E2",
            "ticks": 314784,
            "time": 140.528103,
            "velocity": 0.3937007874015748
          },
          {
            "duration": 0.042856999999997925,
            "durationTicks": 96,
            "midi": 52,
            "name": "E3",
            "ticks": 314784,
            "time": 140.528103,
            "velocity": 0.3937007874015748
          },
          {
            "duration": 0.042856999999997925,
            "durationTicks": 96,
            "midi": 36,
            "name": "C2",
            "ticks": 314976,
            "time": 140.613817,
            "velocity": 0.3937007874015748
          },
          {
            "duration": 0.042856999999997925,
            "durationTicks": 96,
            "midi": 48,
            "name": "C3",
            "ticks": 314976,
            "time": 140.613817,
            "velocity": 0.3937007874015748
          },
          {
            "duration": 0.042856999999997925,
            "durationTicks": 96,
            "midi": 48,
            "name": "C3",
            "ticks": 315168,
            "time": 140.699531,
            "velocity": 0.3937007874015748
          },
          {
            "duration": 0.042856999999997925,
            "durationTicks": 96,
            "midi": 36,
            "name": "C2",
            "ticks": 315168,
            "time": 140.699531,
            "velocity": 0.3937007874015748
          },
          {
            "duration": 0.042856999999997925,
            "durationTicks": 96,
            "midi": 36,
            "name": "C2",
            "ticks": 315360,
            "time": 140.785245,
            "velocity": 0.3937007874015748
          },
          {
            "duration": 0.042856999999997925,
            "durationTicks": 96,
            "midi": 48,
            "name": "C3",
            "ticks": 315360,
            "time": 140.785245,
            "velocity": 0.3937007874015748
          },
          {
            "duration": 0.042856999999997925,
            "durationTicks": 96,
            "midi": 36,
            "name": "C2",
            "ticks": 315552,
            "time": 140.870959,
            "velocity": 0.3937007874015748
          },
          {
            "duration": 0.042856999999997925,
            "durationTicks": 96,
            "midi": 48,
            "name": "C3",
            "ticks": 315552,
            "time": 140.870959,
            "velocity": 0.3937007874015748
          },
          {
            "duration": 0.042856999999997925,
            "durationTicks": 96,
            "midi": 36,
            "name": "C2",
            "ticks": 315744,
            "time": 140.956673,
            "velocity": 0.3937007874015748
          },
          {
            "duration": 0.042856999999997925,
            "durationTicks": 96,
            "midi": 48,
            "name": "C3",
            "ticks": 315744,
            "time": 140.956673,
            "velocity": 0.3937007874015748
          },
          {
            "duration": 0.042856999999997925,
            "durationTicks": 96,
            "midi": 36,
            "name": "C2",
            "ticks": 315936,
            "time": 141.042387,
            "velocity": 0.3937007874015748
          },
          {
            "duration": 0.042856999999997925,
            "durationTicks": 96,
            "midi": 48,
            "name": "C3",
            "ticks": 315936,
            "time": 141.042387,
            "velocity": 0.3937007874015748
          },
          {
            "duration": 0.042856999999997925,
            "durationTicks": 96,
            "midi": 48,
            "name": "C3",
            "ticks": 316128,
            "time": 141.128101,
            "velocity": 0.3937007874015748
          },
          {
            "duration": 0.042856999999997925,
            "durationTicks": 96,
            "midi": 36,
            "name": "C2",
            "ticks": 316128,
            "time": 141.128101,
            "velocity": 0.3937007874015748
          },
          {
            "duration": 0.042856999999997925,
            "durationTicks": 96,
            "midi": 36,
            "name": "C2",
            "ticks": 316320,
            "time": 141.213815,
            "velocity": 0.3937007874015748
          },
          {
            "duration": 0.042856999999997925,
            "durationTicks": 96,
            "midi": 48,
            "name": "C3",
            "ticks": 316320,
            "time": 141.213815,
            "velocity": 0.3937007874015748
          },
          {
            "duration": 0.042856999999997925,
            "durationTicks": 96,
            "midi": 45,
            "name": "A2",
            "ticks": 316512,
            "time": 141.299529,
            "velocity": 0.3937007874015748
          },
          {
            "duration": 0.042856999999997925,
            "durationTicks": 96,
            "midi": 33,
            "name": "A1",
            "ticks": 316512,
            "time": 141.299529,
            "velocity": 0.3937007874015748
          },
          {
            "duration": 0.042856999999997925,
            "durationTicks": 96,
            "midi": 45,
            "name": "A2",
            "ticks": 316704,
            "time": 141.385243,
            "velocity": 0.3937007874015748
          },
          {
            "duration": 0.042856999999997925,
            "durationTicks": 96,
            "midi": 33,
            "name": "A1",
            "ticks": 316704,
            "time": 141.385243,
            "velocity": 0.3937007874015748
          },
          {
            "duration": 0.042856999999997925,
            "durationTicks": 96,
            "midi": 33,
            "name": "A1",
            "ticks": 316896,
            "time": 141.470957,
            "velocity": 0.3937007874015748
          },
          {
            "duration": 0.042856999999997925,
            "durationTicks": 96,
            "midi": 45,
            "name": "A2",
            "ticks": 316896,
            "time": 141.470957,
            "velocity": 0.3937007874015748
          },
          {
            "duration": 0.042856999999997925,
            "durationTicks": 96,
            "midi": 33,
            "name": "A1",
            "ticks": 317088,
            "time": 141.556671,
            "velocity": 0.3937007874015748
          },
          {
            "duration": 0.042856999999997925,
            "durationTicks": 96,
            "midi": 45,
            "name": "A2",
            "ticks": 317088,
            "time": 141.556671,
            "velocity": 0.3937007874015748
          },
          {
            "duration": 0.042856999999997925,
            "durationTicks": 96,
            "midi": 33,
            "name": "A1",
            "ticks": 317280,
            "time": 141.642385,
            "velocity": 0.3937007874015748
          },
          {
            "duration": 0.042856999999997925,
            "durationTicks": 96,
            "midi": 45,
            "name": "A2",
            "ticks": 317280,
            "time": 141.642385,
            "velocity": 0.3937007874015748
          },
          {
            "duration": 0.042856999999997925,
            "durationTicks": 96,
            "midi": 33,
            "name": "A1",
            "ticks": 317472,
            "time": 141.728099,
            "velocity": 0.3937007874015748
          },
          {
            "duration": 0.042856999999997925,
            "durationTicks": 96,
            "midi": 45,
            "name": "A2",
            "ticks": 317472,
            "time": 141.728099,
            "velocity": 0.3937007874015748
          },
          {
            "duration": 0.042856999999997925,
            "durationTicks": 96,
            "midi": 45,
            "name": "A2",
            "ticks": 317664,
            "time": 141.813813,
            "velocity": 0.3937007874015748
          },
          {
            "duration": 0.042856999999997925,
            "durationTicks": 96,
            "midi": 33,
            "name": "A1",
            "ticks": 317664,
            "time": 141.813813,
            "velocity": 0.3937007874015748
          },
          {
            "duration": 0.042856999999997925,
            "durationTicks": 96,
            "midi": 45,
            "name": "A2",
            "ticks": 317856,
            "time": 141.899527,
            "velocity": 0.3937007874015748
          },
          {
            "duration": 0.042856999999997925,
            "durationTicks": 96,
            "midi": 33,
            "name": "A1",
            "ticks": 317856,
            "time": 141.899527,
            "velocity": 0.3937007874015748
          },
          {
            "duration": 0.042856999999997925,
            "durationTicks": 96,
            "midi": 51,
            "name": "D#3",
            "ticks": 318048,
            "time": 141.985241,
            "velocity": 0.3937007874015748
          },
          {
            "duration": 0.042856999999997925,
            "durationTicks": 96,
            "midi": 39,
            "name": "D#2",
            "ticks": 318048,
            "time": 141.985241,
            "velocity": 0.3937007874015748
          },
          {
            "duration": 0.042856999999997925,
            "durationTicks": 96,
            "midi": 51,
            "name": "D#3",
            "ticks": 318240,
            "time": 142.070955,
            "velocity": 0.3937007874015748
          },
          {
            "duration": 0.042856999999997925,
            "durationTicks": 96,
            "midi": 39,
            "name": "D#2",
            "ticks": 318240,
            "time": 142.070955,
            "velocity": 0.3937007874015748
          },
          {
            "duration": 0.042856999999997925,
            "durationTicks": 96,
            "midi": 39,
            "name": "D#2",
            "ticks": 318432,
            "time": 142.156669,
            "velocity": 0.3937007874015748
          },
          {
            "duration": 0.042856999999997925,
            "durationTicks": 96,
            "midi": 51,
            "name": "D#3",
            "ticks": 318432,
            "time": 142.156669,
            "velocity": 0.3937007874015748
          },
          {
            "duration": 0.042856999999997925,
            "durationTicks": 96,
            "midi": 39,
            "name": "D#2",
            "ticks": 318624,
            "time": 142.242383,
            "velocity": 0.3937007874015748
          },
          {
            "duration": 0.042856999999997925,
            "durationTicks": 96,
            "midi": 51,
            "name": "D#3",
            "ticks": 318624,
            "time": 142.242383,
            "velocity": 0.3937007874015748
          },
          {
            "duration": 0.042856999999997925,
            "durationTicks": 96,
            "midi": 35,
            "name": "B1",
            "ticks": 318816,
            "time": 142.32809699999999,
            "velocity": 0.3937007874015748
          },
          {
            "duration": 0.042856999999997925,
            "durationTicks": 96,
            "midi": 47,
            "name": "B2",
            "ticks": 318816,
            "time": 142.32809699999999,
            "velocity": 0.3937007874015748
          },
          {
            "duration": 0.042856999999997925,
            "durationTicks": 96,
            "midi": 47,
            "name": "B2",
            "ticks": 319008,
            "time": 142.413811,
            "velocity": 0.3937007874015748
          },
          {
            "duration": 0.042856999999997925,
            "durationTicks": 96,
            "midi": 35,
            "name": "B1",
            "ticks": 319008,
            "time": 142.413811,
            "velocity": 0.3937007874015748
          },
          {
            "duration": 0.042856999999997925,
            "durationTicks": 96,
            "midi": 47,
            "name": "B2",
            "ticks": 319200,
            "time": 142.499525,
            "velocity": 0.3937007874015748
          },
          {
            "duration": 0.042856999999997925,
            "durationTicks": 96,
            "midi": 35,
            "name": "B1",
            "ticks": 319200,
            "time": 142.499525,
            "velocity": 0.3937007874015748
          },
          {
            "duration": 0.042856999999997925,
            "durationTicks": 96,
            "midi": 35,
            "name": "B1",
            "ticks": 319392,
            "time": 142.585239,
            "velocity": 0.3937007874015748
          },
          {
            "duration": 0.042856999999997925,
            "durationTicks": 96,
            "midi": 47,
            "name": "B2",
            "ticks": 319392,
            "time": 142.585239,
            "velocity": 0.3937007874015748
          },
          {
            "duration": 0.042856999999997925,
            "durationTicks": 96,
            "midi": 40,
            "name": "E2",
            "ticks": 319584,
            "time": 142.670953,
            "velocity": 0.3937007874015748
          },
          {
            "duration": 0.042856999999997925,
            "durationTicks": 96,
            "midi": 52,
            "name": "E3",
            "ticks": 319584,
            "time": 142.670953,
            "velocity": 0.3937007874015748
          },
          {
            "duration": 0.042856999999997925,
            "durationTicks": 96,
            "midi": 40,
            "name": "E2",
            "ticks": 319776,
            "time": 142.756667,
            "velocity": 0.3937007874015748
          },
          {
            "duration": 0.042856999999997925,
            "durationTicks": 96,
            "midi": 52,
            "name": "E3",
            "ticks": 319776,
            "time": 142.756667,
            "velocity": 0.3937007874015748
          },
          {
            "duration": 0.042856999999997925,
            "durationTicks": 96,
            "midi": 52,
            "name": "E3",
            "ticks": 319968,
            "time": 142.842381,
            "velocity": 0.3937007874015748
          },
          {
            "duration": 0.042856999999997925,
            "durationTicks": 96,
            "midi": 40,
            "name": "E2",
            "ticks": 319968,
            "time": 142.842381,
            "velocity": 0.3937007874015748
          },
          {
            "duration": 0.042857000000026346,
            "durationTicks": 96,
            "midi": 52,
            "name": "E3",
            "ticks": 320160,
            "time": 142.92809499999998,
            "velocity": 0.3937007874015748
          },
          {
            "duration": 0.042857000000026346,
            "durationTicks": 96,
            "midi": 40,
            "name": "E2",
            "ticks": 320160,
            "time": 142.92809499999998,
            "velocity": 0.3937007874015748
          },
          {
            "duration": 0.042856999999997925,
            "durationTicks": 96,
            "midi": 44,
            "name": "G#2",
            "ticks": 320352,
            "time": 143.013809,
            "velocity": 0.3937007874015748
          },
          {
            "duration": 0.042856999999997925,
            "durationTicks": 96,
            "midi": 56,
            "name": "G#3",
            "ticks": 320352,
            "time": 143.013809,
            "velocity": 0.3937007874015748
          },
          {
            "duration": 0.042856999999997925,
            "durationTicks": 96,
            "midi": 56,
            "name": "G#3",
            "ticks": 320544,
            "time": 143.099523,
            "velocity": 0.3937007874015748
          },
          {
            "duration": 0.042856999999997925,
            "durationTicks": 96,
            "midi": 44,
            "name": "G#2",
            "ticks": 320544,
            "time": 143.099523,
            "velocity": 0.3937007874015748
          },
          {
            "duration": 0.042856999999997925,
            "durationTicks": 96,
            "midi": 44,
            "name": "G#2",
            "ticks": 320736,
            "time": 143.185237,
            "velocity": 0.3937007874015748
          },
          {
            "duration": 0.042856999999997925,
            "durationTicks": 96,
            "midi": 56,
            "name": "G#3",
            "ticks": 320736,
            "time": 143.185237,
            "velocity": 0.3937007874015748
          },
          {
            "duration": 0.042856999999997925,
            "durationTicks": 96,
            "midi": 44,
            "name": "G#2",
            "ticks": 320928,
            "time": 143.270951,
            "velocity": 0.3937007874015748
          },
          {
            "duration": 0.042856999999997925,
            "durationTicks": 96,
            "midi": 56,
            "name": "G#3",
            "ticks": 320928,
            "time": 143.270951,
            "velocity": 0.3937007874015748
          },
          {
            "duration": 0.042856999999997925,
            "durationTicks": 96,
            "midi": 45,
            "name": "A2",
            "ticks": 321120,
            "time": 143.356665,
            "velocity": 0.3937007874015748
          },
          {
            "duration": 0.042856999999997925,
            "durationTicks": 96,
            "midi": 57,
            "name": "A3",
            "ticks": 321120,
            "time": 143.356665,
            "velocity": 0.3937007874015748
          },
          {
            "duration": 0.042856999999997925,
            "durationTicks": 96,
            "midi": 45,
            "name": "A2",
            "ticks": 321312,
            "time": 143.442379,
            "velocity": 0.3937007874015748
          },
          {
            "duration": 0.042856999999997925,
            "durationTicks": 96,
            "midi": 57,
            "name": "A3",
            "ticks": 321312,
            "time": 143.442379,
            "velocity": 0.3937007874015748
          },
          {
            "duration": 0.042857000000026346,
            "durationTicks": 96,
            "midi": 45,
            "name": "A2",
            "ticks": 321504,
            "time": 143.52809299999998,
            "velocity": 0.3937007874015748
          },
          {
            "duration": 0.042857000000026346,
            "durationTicks": 96,
            "midi": 57,
            "name": "A3",
            "ticks": 321504,
            "time": 143.52809299999998,
            "velocity": 0.3937007874015748
          },
          {
            "duration": 0.042856999999997925,
            "durationTicks": 96,
            "midi": 57,
            "name": "A3",
            "ticks": 321696,
            "time": 143.613807,
            "velocity": 0.3937007874015748
          },
          {
            "duration": 0.042856999999997925,
            "durationTicks": 96,
            "midi": 45,
            "name": "A2",
            "ticks": 321696,
            "time": 143.613807,
            "velocity": 0.3937007874015748
          },
          {
            "duration": 0.042856999999997925,
            "durationTicks": 96,
            "midi": 52,
            "name": "E3",
            "ticks": 321888,
            "time": 143.699521,
            "velocity": 0.3937007874015748
          },
          {
            "duration": 0.042856999999997925,
            "durationTicks": 96,
            "midi": 40,
            "name": "E2",
            "ticks": 321888,
            "time": 143.699521,
            "velocity": 0.3937007874015748
          },
          {
            "duration": 0.042856999999997925,
            "durationTicks": 96,
            "midi": 40,
            "name": "E2",
            "ticks": 322080,
            "time": 143.785235,
            "velocity": 0.3937007874015748
          },
          {
            "duration": 0.042856999999997925,
            "durationTicks": 96,
            "midi": 52,
            "name": "E3",
            "ticks": 322080,
            "time": 143.785235,
            "velocity": 0.3937007874015748
          },
          {
            "duration": 0.042856999999997925,
            "durationTicks": 96,
            "midi": 40,
            "name": "E2",
            "ticks": 322272,
            "time": 143.870949,
            "velocity": 0.3937007874015748
          },
          {
            "duration": 0.042856999999997925,
            "durationTicks": 96,
            "midi": 52,
            "name": "E3",
            "ticks": 322272,
            "time": 143.870949,
            "velocity": 0.3937007874015748
          },
          {
            "duration": 0.042856999999997925,
            "durationTicks": 96,
            "midi": 40,
            "name": "E2",
            "ticks": 322464,
            "time": 143.956663,
            "velocity": 0.3937007874015748
          },
          {
            "duration": 0.042856999999997925,
            "durationTicks": 96,
            "midi": 52,
            "name": "E3",
            "ticks": 322464,
            "time": 143.956663,
            "velocity": 0.3937007874015748
          },
          {
            "duration": 0.042856999999997925,
            "durationTicks": 96,
            "midi": 45,
            "name": "A2",
            "ticks": 322656,
            "time": 144.042377,
            "velocity": 0.3937007874015748
          },
          {
            "duration": 0.042857000000026346,
            "durationTicks": 96,
            "midi": 45,
            "name": "A2",
            "ticks": 322848,
            "time": 144.12809099999998,
            "velocity": 0.3937007874015748
          },
          {
            "duration": 0.042856999999997925,
            "durationTicks": 96,
            "midi": 45,
            "name": "A2",
            "ticks": 323040,
            "time": 144.213805,
            "velocity": 0.3937007874015748
          },
          {
            "duration": 0.042856999999997925,
            "durationTicks": 96,
            "midi": 45,
            "name": "A2",
            "ticks": 323232,
            "time": 144.299519,
            "velocity": 0.3937007874015748
          },
          {
            "duration": 0.042856999999997925,
            "durationTicks": 96,
            "midi": 45,
            "name": "A2",
            "ticks": 323424,
            "time": 144.385233,
            "velocity": 0.3937007874015748
          },
          {
            "duration": 0.042856999999997925,
            "durationTicks": 96,
            "midi": 45,
            "name": "A2",
            "ticks": 323616,
            "time": 144.470947,
            "velocity": 0.3937007874015748
          },
          {
            "duration": 0.042856999999997925,
            "durationTicks": 96,
            "midi": 45,
            "name": "A2",
            "ticks": 323808,
            "time": 144.556661,
            "velocity": 0.3937007874015748
          },
          {
            "duration": 0.042856999999997925,
            "durationTicks": 96,
            "midi": 45,
            "name": "A2",
            "ticks": 324000,
            "time": 144.642375,
            "velocity": 0.3937007874015748
          }
        ],
        "endOfTrackTicks": 324096
      },
      {
        "channel": 3,
        "controlChanges": {},
        "pitchBends": [],
        "instrument": {
          "family": "bass",
          "number": 32,
          "name": "acoustic bass"
        },
        "name": "Bass (Classic)",
        "notes": [
          {
            "duration": 0.0428569999999997,
            "durationTicks": 96,
            "midi": 33,
            "name": "A1",
            "ticks": 4800,
            "time": 2.14285,
            "velocity": 0.3937007874015748
          },
          {
            "duration": 0.042857000000000145,
            "durationTicks": 96,
            "midi": 33,
            "name": "A1",
            "ticks": 4992,
            "time": 2.228564,
            "velocity": 0.3937007874015748
          },
          {
            "duration": 0.042857000000000145,
            "durationTicks": 96,
            "midi": 33,
            "name": "A1",
            "ticks": 5184,
            "time": 2.314278,
            "velocity": 0.3937007874015748
          },
          {
            "duration": 0.0428569999999997,
            "durationTicks": 96,
            "midi": 33,
            "name": "A1",
            "ticks": 5376,
            "time": 2.399992,
            "velocity": 0.3937007874015748
          },
          {
            "duration": 0.042857000000000145,
            "durationTicks": 96,
            "midi": 33,
            "name": "A1",
            "ticks": 5568,
            "time": 2.485706,
            "velocity": 0.3937007874015748
          },
          {
            "duration": 0.042857000000000145,
            "durationTicks": 96,
            "midi": 33,
            "name": "A1",
            "ticks": 5760,
            "time": 2.57142,
            "velocity": 0.3937007874015748
          },
          {
            "duration": 0.0428569999999997,
            "durationTicks": 96,
            "midi": 33,
            "name": "A1",
            "ticks": 5952,
            "time": 2.657134,
            "velocity": 0.3937007874015748
          },
          {
            "duration": 0.042857000000000145,
            "durationTicks": 96,
            "midi": 33,
            "name": "A1",
            "ticks": 6144,
            "time": 2.742848,
            "velocity": 0.3937007874015748
          },
          {
            "duration": 0.042857000000000145,
            "durationTicks": 96,
            "midi": 33,
            "name": "A1",
            "ticks": 6336,
            "time": 2.828562,
            "velocity": 0.3937007874015748
          },
          {
            "duration": 0.0428569999999997,
            "durationTicks": 96,
            "midi": 33,
            "name": "A1",
            "ticks": 6528,
            "time": 2.914276,
            "velocity": 0.3937007874015748
          },
          {
            "duration": 0.042857000000000145,
            "durationTicks": 96,
            "midi": 33,
            "name": "A1",
            "ticks": 6720,
            "time": 2.99999,
            "velocity": 0.3937007874015748
          },
          {
            "duration": 0.042857000000000145,
            "durationTicks": 96,
            "midi": 33,
            "name": "A1",
            "ticks": 6912,
            "time": 3.085704,
            "velocity": 0.3937007874015748
          },
          {
            "duration": 0.0428569999999997,
            "durationTicks": 96,
            "midi": 33,
            "name": "A1",
            "ticks": 7104,
            "time": 3.171418,
            "velocity": 0.3937007874015748
          },
          {
            "duration": 0.042857000000000145,
            "durationTicks": 96,
            "midi": 33,
            "name": "A1",
            "ticks": 7296,
            "time": 3.257132,
            "velocity": 0.3937007874015748
          },
          {
            "duration": 0.042857000000000145,
            "durationTicks": 96,
            "midi": 33,
            "name": "A1",
            "ticks": 7488,
            "time": 3.3428459999999998,
            "velocity": 0.3937007874015748
          },
          {
            "duration": 0.0428569999999997,
            "durationTicks": 96,
            "midi": 33,
            "name": "A1",
            "ticks": 7680,
            "time": 3.42856,
            "velocity": 0.3937007874015748
          },
          {
            "duration": 0.042857000000000145,
            "durationTicks": 96,
            "midi": 32,
            "name": "G#1",
            "ticks": 7872,
            "time": 3.514274,
            "velocity": 0.3937007874015748
          },
          {
            "duration": 0.042857000000000145,
            "durationTicks": 96,
            "midi": 32,
            "name": "G#1",
            "ticks": 8064,
            "time": 3.5999879999999997,
            "velocity": 0.3937007874015748
          },
          {
            "duration": 0.0428569999999997,
            "durationTicks": 96,
            "midi": 32,
            "name": "G#1",
            "ticks": 8256,
            "time": 3.685702,
            "velocity": 0.3937007874015748
          },
          {
            "duration": 0.042857000000000145,
            "durationTicks": 96,
            "midi": 32,
            "name": "G#1",
            "ticks": 8448,
            "time": 3.771416,
            "velocity": 0.3937007874015748
          },
          {
            "duration": 0.042857000000000145,
            "durationTicks": 96,
            "midi": 32,
            "name": "G#1",
            "ticks": 8640,
            "time": 3.8571299999999997,
            "velocity": 0.3937007874015748
          },
          {
            "duration": 0.0428569999999997,
            "durationTicks": 96,
            "midi": 32,
            "name": "G#1",
            "ticks": 8832,
            "time": 3.942844,
            "velocity": 0.3937007874015748
          },
          {
            "duration": 0.0428569999999997,
            "durationTicks": 96,
            "midi": 32,
            "name": "G#1",
            "ticks": 9024,
            "time": 4.028558,
            "velocity": 0.3937007874015748
          },
          {
            "duration": 0.04285700000000059,
            "durationTicks": 96,
            "midi": 32,
            "name": "G#1",
            "ticks": 9216,
            "time": 4.114272,
            "velocity": 0.3937007874015748
          },
          {
            "duration": 0.0428569999999997,
            "durationTicks": 96,
            "midi": 32,
            "name": "G#1",
            "ticks": 9408,
            "time": 4.199986,
            "velocity": 0.3937007874015748
          },
          {
            "duration": 0.0428569999999997,
            "durationTicks": 96,
            "midi": 32,
            "name": "G#1",
            "ticks": 9600,
            "time": 4.2857,
            "velocity": 0.3937007874015748
          },
          {
            "duration": 0.04285700000000059,
            "durationTicks": 96,
            "midi": 32,
            "name": "G#1",
            "ticks": 9792,
            "time": 4.371414,
            "velocity": 0.3937007874015748
          },
          {
            "duration": 0.0428569999999997,
            "durationTicks": 96,
            "midi": 32,
            "name": "G#1",
            "ticks": 9984,
            "time": 4.457128,
            "velocity": 0.3937007874015748
          },
          {
            "duration": 0.0428569999999997,
            "durationTicks": 96,
            "midi": 32,
            "name": "G#1",
            "ticks": 10176,
            "time": 4.542842,
            "velocity": 0.3937007874015748
          },
          {
            "duration": 0.04285700000000059,
            "durationTicks": 96,
            "midi": 32,
            "name": "G#1",
            "ticks": 10368,
            "time": 4.628556,
            "velocity": 0.3937007874015748
          },
          {
            "duration": 0.0428569999999997,
            "durationTicks": 96,
            "midi": 32,
            "name": "G#1",
            "ticks": 10560,
            "time": 4.71427,
            "velocity": 0.3937007874015748
          },
          {
            "duration": 0.0428569999999997,
            "durationTicks": 96,
            "midi": 32,
            "name": "G#1",
            "ticks": 10752,
            "time": 4.799984,
            "velocity": 0.3937007874015748
          },
          {
            "duration": 0.04285700000000059,
            "durationTicks": 96,
            "midi": 33,
            "name": "A1",
            "ticks": 10944,
            "time": 4.885698,
            "velocity": 0.3937007874015748
          },
          {
            "duration": 0.0428569999999997,
            "durationTicks": 96,
            "midi": 33,
            "name": "A1",
            "ticks": 11136,
            "time": 4.971412,
            "velocity": 0.3937007874015748
          },
          {
            "duration": 0.0428569999999997,
            "durationTicks": 96,
            "midi": 33,
            "name": "A1",
            "ticks": 11328,
            "time": 5.057126,
            "velocity": 0.3937007874015748
          },
          {
            "duration": 0.04285700000000059,
            "durationTicks": 96,
            "midi": 33,
            "name": "A1",
            "ticks": 11520,
            "time": 5.14284,
            "velocity": 0.3937007874015748
          },
          {
            "duration": 0.0428569999999997,
            "durationTicks": 96,
            "midi": 33,
            "name": "A1",
            "ticks": 11712,
            "time": 5.228554,
            "velocity": 0.3937007874015748
          },
          {
            "duration": 0.0428569999999997,
            "durationTicks": 96,
            "midi": 33,
            "name": "A1",
            "ticks": 11904,
            "time": 5.314268,
            "velocity": 0.3937007874015748
          },
          {
            "duration": 0.04285700000000059,
            "durationTicks": 96,
            "midi": 33,
            "name": "A1",
            "ticks": 12096,
            "time": 5.399982,
            "velocity": 0.3937007874015748
          },
          {
            "duration": 0.0428569999999997,
            "durationTicks": 96,
            "midi": 33,
            "name": "A1",
            "ticks": 12288,
            "time": 5.485696,
            "velocity": 0.3937007874015748
          },
          {
            "duration": 0.0428569999999997,
            "durationTicks": 96,
            "midi": 37,
            "name": "C#2",
            "ticks": 12480,
            "time": 5.57141,
            "velocity": 0.3937007874015748
          },
          {
            "duration": 0.04285700000000059,
            "durationTicks": 96,
            "midi": 37,
            "name": "C#2",
            "ticks": 12672,
            "time": 5.657124,
            "velocity": 0.3937007874015748
          },
          {
            "duration": 0.0428569999999997,
            "durationTicks": 96,
            "midi": 37,
            "name": "C#2",
            "ticks": 12864,
            "time": 5.742838,
            "velocity": 0.3937007874015748
          },
          {
            "duration": 0.0428569999999997,
            "durationTicks": 96,
            "midi": 37,
            "name": "C#2",
            "ticks": 13056,
            "time": 5.828552,
            "velocity": 0.3937007874015748
          },
          {
            "duration": 0.04285700000000059,
            "durationTicks": 96,
            "midi": 37,
            "name": "C#2",
            "ticks": 13248,
            "time": 5.914266,
            "velocity": 0.3937007874015748
          },
          {
            "duration": 0.0428569999999997,
            "durationTicks": 96,
            "midi": 37,
            "name": "C#2",
            "ticks": 13440,
            "time": 5.99998,
            "velocity": 0.3937007874015748
          },
          {
            "duration": 0.0428569999999997,
            "durationTicks": 96,
            "midi": 37,
            "name": "C#2",
            "ticks": 13632,
            "time": 6.085694,
            "velocity": 0.3937007874015748
          },
          {
            "duration": 0.04285700000000059,
            "durationTicks": 96,
            "midi": 37,
            "name": "C#2",
            "ticks": 13824,
            "time": 6.171408,
            "velocity": 0.3937007874015748
          },
          {
            "duration": 0.0428569999999997,
            "durationTicks": 96,
            "midi": 38,
            "name": "D2",
            "ticks": 14016,
            "time": 6.257122,
            "velocity": 0.3937007874015748
          },
          {
            "duration": 0.0428569999999997,
            "durationTicks": 96,
            "midi": 38,
            "name": "D2",
            "ticks": 14208,
            "time": 6.342836,
            "velocity": 0.3937007874015748
          },
          {
            "duration": 0.04285700000000059,
            "durationTicks": 96,
            "midi": 38,
            "name": "D2",
            "ticks": 14400,
            "time": 6.4285499999999995,
            "velocity": 0.3937007874015748
          },
          {
            "duration": 0.0428569999999997,
            "durationTicks": 96,
            "midi": 38,
            "name": "D2",
            "ticks": 14592,
            "time": 6.514264,
            "velocity": 0.3937007874015748
          },
          {
            "duration": 0.0428569999999997,
            "durationTicks": 96,
            "midi": 38,
            "name": "D2",
            "ticks": 14784,
            "time": 6.599978,
            "velocity": 0.3937007874015748
          },
          {
            "duration": 0.04285700000000059,
            "durationTicks": 96,
            "midi": 38,
            "name": "D2",
            "ticks": 14976,
            "time": 6.6856919999999995,
            "velocity": 0.3937007874015748
          },
          {
            "duration": 0.0428569999999997,
            "durationTicks": 96,
            "midi": 38,
            "name": "D2",
            "ticks": 15168,
            "time": 6.771406,
            "velocity": 0.3937007874015748
          },
          {
            "duration": 0.0428569999999997,
            "durationTicks": 96,
            "midi": 38,
            "name": "D2",
            "ticks": 15360,
            "time": 6.85712,
            "velocity": 0.3937007874015748
          },
          {
            "duration": 0.04285700000000059,
            "durationTicks": 96,
            "midi": 38,
            "name": "D2",
            "ticks": 15552,
            "time": 6.9428339999999995,
            "velocity": 0.3937007874015748
          },
          {
            "duration": 0.0428569999999997,
            "durationTicks": 96,
            "midi": 38,
            "name": "D2",
            "ticks": 15744,
            "time": 7.028548,
            "velocity": 0.3937007874015748
          },
          {
            "duration": 0.0428569999999997,
            "durationTicks": 96,
            "midi": 38,
            "name": "D2",
            "ticks": 15936,
            "time": 7.114262,
            "velocity": 0.3937007874015748
          },
          {
            "duration": 0.04285700000000059,
            "durationTicks": 96,
            "midi": 38,
            "name": "D2",
            "ticks": 16128,
            "time": 7.1999759999999995,
            "velocity": 0.3937007874015748
          },
          {
            "duration": 0.0428569999999997,
            "durationTicks": 96,
            "midi": 38,
            "name": "D2",
            "ticks": 16320,
            "time": 7.28569,
            "velocity": 0.3937007874015748
          },
          {
            "duration": 0.0428569999999997,
            "durationTicks": 96,
            "midi": 38,
            "name": "D2",
            "ticks": 16512,
            "time": 7.371404,
            "velocity": 0.3937007874015748
          },
          {
            "duration": 0.04285700000000059,
            "durationTicks": 96,
            "midi": 38,
            "name": "D2",
            "ticks": 16704,
            "time": 7.4571179999999995,
            "velocity": 0.3937007874015748
          },
          {
            "duration": 0.0428569999999997,
            "durationTicks": 96,
            "midi": 38,
            "name": "D2",
            "ticks": 16896,
            "time": 7.542832,
            "velocity": 0.3937007874015748
          },
          {
            "duration": 0.0428569999999997,
            "durationTicks": 96,
            "midi": 35,
            "name": "B1",
            "ticks": 17088,
            "time": 7.628546,
            "velocity": 0.3937007874015748
          },
          {
            "duration": 0.04285700000000059,
            "durationTicks": 96,
            "midi": 35,
            "name": "B1",
            "ticks": 17280,
            "time": 7.7142599999999995,
            "velocity": 0.3937007874015748
          },
          {
            "duration": 0.0428569999999997,
            "durationTicks": 96,
            "midi": 35,
            "name": "B1",
            "ticks": 17472,
            "time": 7.799974,
            "velocity": 0.3937007874015748
          },
          {
            "duration": 0.0428569999999997,
            "durationTicks": 96,
            "midi": 35,
            "name": "B1",
            "ticks": 17664,
            "time": 7.885688,
            "velocity": 0.3937007874015748
          },
          {
            "duration": 0.0428569999999997,
            "durationTicks": 96,
            "midi": 35,
            "name": "B1",
            "ticks": 17856,
            "time": 7.971401999999999,
            "velocity": 0.3937007874015748
          },
          {
            "duration": 0.0428569999999997,
            "durationTicks": 96,
            "midi": 35,
            "name": "B1",
            "ticks": 18048,
            "time": 8.057116,
            "velocity": 0.3937007874015748
          },
          {
            "duration": 0.0428569999999997,
            "durationTicks": 96,
            "midi": 35,
            "name": "B1",
            "ticks": 18240,
            "time": 8.14283,
            "velocity": 0.3937007874015748
          },
          {
            "duration": 0.0428569999999997,
            "durationTicks": 96,
            "midi": 35,
            "name": "B1",
            "ticks": 18432,
            "time": 8.228544,
            "velocity": 0.3937007874015748
          },
          {
            "duration": 0.0428569999999997,
            "durationTicks": 96,
            "midi": 32,
            "name": "G#1",
            "ticks": 18624,
            "time": 8.314258,
            "velocity": 0.3937007874015748
          },
          {
            "duration": 0.0428569999999997,
            "durationTicks": 96,
            "midi": 32,
            "name": "G#1",
            "ticks": 18816,
            "time": 8.399972,
            "velocity": 0.3937007874015748
          },
          {
            "duration": 0.0428569999999997,
            "durationTicks": 96,
            "midi": 32,
            "name": "G#1",
            "ticks": 19008,
            "time": 8.485686,
            "velocity": 0.3937007874015748
          },
          {
            "duration": 0.0428569999999997,
            "durationTicks": 96,
            "midi": 32,
            "name": "G#1",
            "ticks": 19200,
            "time": 8.5714,
            "velocity": 0.3937007874015748
          },
          {
            "duration": 0.0428569999999997,
            "durationTicks": 96,
            "midi": 32,
            "name": "G#1",
            "ticks": 19392,
            "time": 8.657114,
            "velocity": 0.3937007874015748
          },
          {
            "duration": 0.0428569999999997,
            "durationTicks": 96,
            "midi": 32,
            "name": "G#1",
            "ticks": 19584,
            "time": 8.742828,
            "velocity": 0.3937007874015748
          },
          {
            "duration": 0.0428569999999997,
            "durationTicks": 96,
            "midi": 32,
            "name": "G#1",
            "ticks": 19776,
            "time": 8.828542,
            "velocity": 0.3937007874015748
          },
          {
            "duration": 0.0428569999999997,
            "durationTicks": 96,
            "midi": 32,
            "name": "G#1",
            "ticks": 19968,
            "time": 8.914256,
            "velocity": 0.3937007874015748
          },
          {
            "duration": 0.0428569999999997,
            "durationTicks": 96,
            "midi": 33,
            "name": "A1",
            "ticks": 20160,
            "time": 8.99997,
            "velocity": 0.3937007874015748
          },
          {
            "duration": 0.0428569999999997,
            "durationTicks": 96,
            "midi": 33,
            "name": "A1",
            "ticks": 20352,
            "time": 9.085684,
            "velocity": 0.3937007874015748
          },
          {
            "duration": 0.0428569999999997,
            "durationTicks": 96,
            "midi": 33,
            "name": "A1",
            "ticks": 20544,
            "time": 9.171398,
            "velocity": 0.3937007874015748
          },
          {
            "duration": 0.0428569999999997,
            "durationTicks": 96,
            "midi": 33,
            "name": "A1",
            "ticks": 20736,
            "time": 9.257112,
            "velocity": 0.3937007874015748
          },
          {
            "duration": 0.0428569999999997,
            "durationTicks": 96,
            "midi": 31,
            "name": "G1",
            "ticks": 20928,
            "time": 9.342826,
            "velocity": 0.3937007874015748
          },
          {
            "duration": 0.0428569999999997,
            "durationTicks": 96,
            "midi": 31,
            "name": "G1",
            "ticks": 21120,
            "time": 9.42854,
            "velocity": 0.3937007874015748
          },
          {
            "duration": 0.0428569999999997,
            "durationTicks": 96,
            "midi": 31,
            "name": "G1",
            "ticks": 21312,
            "time": 9.514254,
            "velocity": 0.3937007874015748
          },
          {
            "duration": 0.0428569999999997,
            "durationTicks": 96,
            "midi": 31,
            "name": "G1",
            "ticks": 21504,
            "time": 9.599968,
            "velocity": 0.3937007874015748
          },
          {
            "duration": 0.0428569999999997,
            "durationTicks": 96,
            "midi": 30,
            "name": "F#1",
            "ticks": 21696,
            "time": 9.685682,
            "velocity": 0.3937007874015748
          },
          {
            "duration": 0.0428569999999997,
            "durationTicks": 96,
            "midi": 30,
            "name": "F#1",
            "ticks": 21888,
            "time": 9.771396,
            "velocity": 0.3937007874015748
          },
          {
            "duration": 0.0428569999999997,
            "durationTicks": 96,
            "midi": 30,
            "name": "F#1",
            "ticks": 22080,
            "time": 9.85711,
            "velocity": 0.3937007874015748
          },
          {
            "duration": 0.0428569999999997,
            "durationTicks": 96,
            "midi": 30,
            "name": "F#1",
            "ticks": 22272,
            "time": 9.942824,
            "velocity": 0.3937007874015748
          },
          {
            "duration": 0.0428569999999997,
            "durationTicks": 96,
            "midi": 30,
            "name": "F#1",
            "ticks": 22464,
            "time": 10.028538,
            "velocity": 0.3937007874015748
          },
          {
            "duration": 0.0428569999999997,
            "durationTicks": 96,
            "midi": 30,
            "name": "F#1",
            "ticks": 22656,
            "time": 10.114252,
            "velocity": 0.3937007874015748
          },
          {
            "duration": 0.0428569999999997,
            "durationTicks": 96,
            "midi": 30,
            "name": "F#1",
            "ticks": 22848,
            "time": 10.199966,
            "velocity": 0.3937007874015748
          },
          {
            "duration": 0.0428569999999997,
            "durationTicks": 96,
            "midi": 30,
            "name": "F#1",
            "ticks": 23040,
            "time": 10.28568,
            "velocity": 0.3937007874015748
          },
          {
            "duration": 0.0428569999999997,
            "durationTicks": 96,
            "midi": 35,
            "name": "B1",
            "ticks": 23232,
            "time": 10.371394,
            "velocity": 0.3937007874015748
          },
          {
            "duration": 0.0428569999999997,
            "durationTicks": 96,
            "midi": 35,
            "name": "B1",
            "ticks": 23424,
            "time": 10.457108,
            "velocity": 0.3937007874015748
          },
          {
            "duration": 0.0428569999999997,
            "durationTicks": 96,
            "midi": 35,
            "name": "B1",
            "ticks": 23616,
            "time": 10.542822,
            "velocity": 0.3937007874015748
          },
          {
            "duration": 0.0428569999999997,
            "durationTicks": 96,
            "midi": 35,
            "name": "B1",
            "ticks": 23808,
            "time": 10.628536,
            "velocity": 0.3937007874015748
          },
          {
            "duration": 0.0428569999999997,
            "durationTicks": 96,
            "midi": 35,
            "name": "B1",
            "ticks": 24000,
            "time": 10.71425,
            "velocity": 0.3937007874015748
          },
          {
            "duration": 0.0428569999999997,
            "durationTicks": 96,
            "midi": 35,
            "name": "B1",
            "ticks": 24192,
            "time": 10.799964,
            "velocity": 0.3937007874015748
          },
          {
            "duration": 0.0428569999999997,
            "durationTicks": 96,
            "midi": 35,
            "name": "B1",
            "ticks": 24384,
            "time": 10.885678,
            "velocity": 0.3937007874015748
          },
          {
            "duration": 0.0428569999999997,
            "durationTicks": 96,
            "midi": 35,
            "name": "B1",
            "ticks": 24576,
            "time": 10.971392,
            "velocity": 0.3937007874015748
          },
          {
            "duration": 0.04285700000000148,
            "durationTicks": 96,
            "midi": 29,
            "name": "F1",
            "ticks": 24768,
            "time": 11.057106,
            "velocity": 0.3937007874015748
          },
          {
            "duration": 0.0428569999999997,
            "durationTicks": 96,
            "midi": 29,
            "name": "F1",
            "ticks": 24960,
            "time": 11.14282,
            "velocity": 0.3937007874015748
          },
          {
            "duration": 0.0428569999999997,
            "durationTicks": 96,
            "midi": 29,
            "name": "F1",
            "ticks": 25152,
            "time": 11.228534,
            "velocity": 0.3937007874015748
          },
          {
            "duration": 0.04285700000000148,
            "durationTicks": 96,
            "midi": 29,
            "name": "F1",
            "ticks": 25344,
            "time": 11.314248,
            "velocity": 0.3937007874015748
          },
          {
            "duration": 0.0428569999999997,
            "durationTicks": 96,
            "midi": 29,
            "name": "F1",
            "ticks": 25536,
            "time": 11.399962,
            "velocity": 0.3937007874015748
          },
          {
            "duration": 0.0428569999999997,
            "durationTicks": 96,
            "midi": 29,
            "name": "F1",
            "ticks": 25728,
            "time": 11.485676,
            "velocity": 0.3937007874015748
          },
          {
            "duration": 0.04285700000000148,
            "durationTicks": 96,
            "midi": 29,
            "name": "F1",
            "ticks": 25920,
            "time": 11.57139,
            "velocity": 0.3937007874015748
          },
          {
            "duration": 0.0428569999999997,
            "durationTicks": 96,
            "midi": 29,
            "name": "F1",
            "ticks": 26112,
            "time": 11.657104,
            "velocity": 0.3937007874015748
          },
          {
            "duration": 0.0428569999999997,
            "durationTicks": 96,
            "midi": 27,
            "name": "D#1",
            "ticks": 26304,
            "time": 11.742818,
            "velocity": 0.3937007874015748
          },
          {
            "duration": 0.04285700000000148,
            "durationTicks": 96,
            "midi": 27,
            "name": "D#1",
            "ticks": 26496,
            "time": 11.828532,
            "velocity": 0.3937007874015748
          },
          {
            "duration": 0.0428569999999997,
            "durationTicks": 96,
            "midi": 27,
            "name": "D#1",
            "ticks": 26688,
            "time": 11.914246,
            "velocity": 0.3937007874015748
          },
          {
            "duration": 0.0428569999999997,
            "durationTicks": 96,
            "midi": 27,
            "name": "D#1",
            "ticks": 26880,
            "time": 11.99996,
            "velocity": 0.3937007874015748
          },
          {
            "duration": 0.04285700000000148,
            "durationTicks": 96,
            "midi": 28,
            "name": "E1",
            "ticks": 27072,
            "time": 12.085674,
            "velocity": 0.3937007874015748
          },
          {
            "duration": 0.0428569999999997,
            "durationTicks": 96,
            "midi": 28,
            "name": "E1",
            "ticks": 27264,
            "time": 12.171388,
            "velocity": 0.3937007874015748
          },
          {
            "duration": 0.0428569999999997,
            "durationTicks": 96,
            "midi": 28,
            "name": "E1",
            "ticks": 27456,
            "time": 12.257102,
            "velocity": 0.3937007874015748
          },
          {
            "duration": 0.04285700000000148,
            "durationTicks": 96,
            "midi": 28,
            "name": "E1",
            "ticks": 27648,
            "time": 12.342816,
            "velocity": 0.3937007874015748
          },
          {
            "duration": 0.0428569999999997,
            "durationTicks": 96,
            "midi": 28,
            "name": "E1",
            "ticks": 27840,
            "time": 12.42853,
            "velocity": 0.3937007874015748
          },
          {
            "duration": 0.0428569999999997,
            "durationTicks": 96,
            "midi": 28,
            "name": "E1",
            "ticks": 28032,
            "time": 12.514244,
            "velocity": 0.3937007874015748
          },
          {
            "duration": 0.04285700000000148,
            "durationTicks": 96,
            "midi": 28,
            "name": "E1",
            "ticks": 28224,
            "time": 12.599957999999999,
            "velocity": 0.3937007874015748
          },
          {
            "duration": 0.0428569999999997,
            "durationTicks": 96,
            "midi": 28,
            "name": "E1",
            "ticks": 28416,
            "time": 12.685672,
            "velocity": 0.3937007874015748
          },
          {
            "duration": 0.0428569999999997,
            "durationTicks": 96,
            "midi": 28,
            "name": "E1",
            "ticks": 28608,
            "time": 12.771386,
            "velocity": 0.3937007874015748
          },
          {
            "duration": 0.04285700000000148,
            "durationTicks": 96,
            "midi": 28,
            "name": "E1",
            "ticks": 28800,
            "time": 12.857099999999999,
            "velocity": 0.3937007874015748
          },
          {
            "duration": 0.0428569999999997,
            "durationTicks": 96,
            "midi": 28,
            "name": "E1",
            "ticks": 28992,
            "time": 12.942814,
            "velocity": 0.3937007874015748
          },
          {
            "duration": 0.0428569999999997,
            "durationTicks": 96,
            "midi": 28,
            "name": "E1",
            "ticks": 29184,
            "time": 13.028528,
            "velocity": 0.3937007874015748
          },
          {
            "duration": 0.04285700000000148,
            "durationTicks": 96,
            "midi": 33,
            "name": "A1",
            "ticks": 29376,
            "time": 13.114241999999999,
            "velocity": 0.3937007874015748
          },
          {
            "duration": 0.0428569999999997,
            "durationTicks": 96,
            "midi": 33,
            "name": "A1",
            "ticks": 29568,
            "time": 13.199956,
            "velocity": 0.3937007874015748
          },
          {
            "duration": 0.0428569999999997,
            "durationTicks": 96,
            "midi": 33,
            "name": "A1",
            "ticks": 29760,
            "time": 13.28567,
            "velocity": 0.3937007874015748
          },
          {
            "duration": 0.04285700000000148,
            "durationTicks": 96,
            "midi": 33,
            "name": "A1",
            "ticks": 29952,
            "time": 13.371383999999999,
            "velocity": 0.3937007874015748
          },
          {
            "duration": 0.0428569999999997,
            "durationTicks": 96,
            "midi": 33,
            "name": "A1",
            "ticks": 30144,
            "time": 13.457098,
            "velocity": 0.3937007874015748
          },
          {
            "duration": 0.0428569999999997,
            "durationTicks": 96,
            "midi": 33,
            "name": "A1",
            "ticks": 30336,
            "time": 13.542812,
            "velocity": 0.3937007874015748
          },
          {
            "duration": 0.04285700000000148,
            "durationTicks": 96,
            "midi": 33,
            "name": "A1",
            "ticks": 30528,
            "time": 13.628525999999999,
            "velocity": 0.3937007874015748
          },
          {
            "duration": 0.0428569999999997,
            "durationTicks": 96,
            "midi": 33,
            "name": "A1",
            "ticks": 30720,
            "time": 13.71424,
            "velocity": 0.3937007874015748
          },
          {
            "duration": 0.0428569999999997,
            "durationTicks": 96,
            "midi": 33,
            "name": "A1",
            "ticks": 30912,
            "time": 13.799954,
            "velocity": 0.3937007874015748
          },
          {
            "duration": 0.04285700000000148,
            "durationTicks": 96,
            "midi": 33,
            "name": "A1",
            "ticks": 31104,
            "time": 13.885667999999999,
            "velocity": 0.3937007874015748
          },
          {
            "duration": 0.0428569999999997,
            "durationTicks": 96,
            "midi": 33,
            "name": "A1",
            "ticks": 31296,
            "time": 13.971382,
            "velocity": 0.3937007874015748
          },
          {
            "duration": 0.0428569999999997,
            "durationTicks": 96,
            "midi": 33,
            "name": "A1",
            "ticks": 31488,
            "time": 14.057096,
            "velocity": 0.3937007874015748
          },
          {
            "duration": 0.04285700000000148,
            "durationTicks": 96,
            "midi": 33,
            "name": "A1",
            "ticks": 31680,
            "time": 14.142809999999999,
            "velocity": 0.3937007874015748
          },
          {
            "duration": 0.0428569999999997,
            "durationTicks": 96,
            "midi": 33,
            "name": "A1",
            "ticks": 31872,
            "time": 14.228524,
            "velocity": 0.3937007874015748
          },
          {
            "duration": 0.0428569999999997,
            "durationTicks": 96,
            "midi": 33,
            "name": "A1",
            "ticks": 32064,
            "time": 14.314238,
            "velocity": 0.3937007874015748
          },
          {
            "duration": 0.04285700000000148,
            "durationTicks": 96,
            "midi": 33,
            "name": "A1",
            "ticks": 32256,
            "time": 14.399951999999999,
            "velocity": 0.3937007874015748
          },
          {
            "duration": 0.0428569999999997,
            "durationTicks": 96,
            "midi": 32,
            "name": "G#1",
            "ticks": 32448,
            "time": 14.485666,
            "velocity": 0.3937007874015748
          },
          {
            "duration": 0.0428569999999997,
            "durationTicks": 96,
            "midi": 32,
            "name": "G#1",
            "ticks": 32640,
            "time": 14.57138,
            "velocity": 0.3937007874015748
          },
          {
            "duration": 0.04285700000000148,
            "durationTicks": 96,
            "midi": 32,
            "name": "G#1",
            "ticks": 32832,
            "time": 14.657093999999999,
            "velocity": 0.3937007874015748
          },
          {
            "duration": 0.0428569999999997,
            "durationTicks": 96,
            "midi": 32,
            "name": "G#1",
            "ticks": 33024,
            "time": 14.742808,
            "velocity": 0.3937007874015748
          },
          {
            "duration": 0.0428569999999997,
            "durationTicks": 96,
            "midi": 32,
            "name": "G#1",
            "ticks": 33216,
            "time": 14.828522,
            "velocity": 0.3937007874015748
          },
          {
            "duration": 0.04285700000000148,
            "durationTicks": 96,
            "midi": 32,
            "name": "G#1",
            "ticks": 33408,
            "time": 14.914235999999999,
            "velocity": 0.3937007874015748
          },
          {
            "duration": 0.0428569999999997,
            "durationTicks": 96,
            "midi": 32,
            "name": "G#1",
            "ticks": 33600,
            "time": 14.99995,
            "velocity": 0.3937007874015748
          },
          {
            "duration": 0.0428569999999997,
            "durationTicks": 96,
            "midi": 32,
            "name": "G#1",
            "ticks": 33792,
            "time": 15.085664,
            "velocity": 0.3937007874015748
          },
          {
            "duration": 0.04285700000000148,
            "durationTicks": 96,
            "midi": 32,
            "name": "G#1",
            "ticks": 33984,
            "time": 15.171377999999999,
            "velocity": 0.3937007874015748
          },
          {
            "duration": 0.0428569999999997,
            "durationTicks": 96,
            "midi": 32,
            "name": "G#1",
            "ticks": 34176,
            "time": 15.257092,
            "velocity": 0.3937007874015748
          },
          {
            "duration": 0.0428569999999997,
            "durationTicks": 96,
            "midi": 32,
            "name": "G#1",
            "ticks": 34368,
            "time": 15.342806,
            "velocity": 0.3937007874015748
          },
          {
            "duration": 0.04285700000000148,
            "durationTicks": 96,
            "midi": 32,
            "name": "G#1",
            "ticks": 34560,
            "time": 15.428519999999999,
            "velocity": 0.3937007874015748
          },
          {
            "duration": 0.0428569999999997,
            "durationTicks": 96,
            "midi": 32,
            "name": "G#1",
            "ticks": 34752,
            "time": 15.514234,
            "velocity": 0.3937007874015748
          },
          {
            "duration": 0.0428569999999997,
            "durationTicks": 96,
            "midi": 32,
            "name": "G#1",
            "ticks": 34944,
            "time": 15.599948,
            "velocity": 0.3937007874015748
          },
          {
            "duration": 0.04285700000000148,
            "durationTicks": 96,
            "midi": 32,
            "name": "G#1",
            "ticks": 35136,
            "time": 15.685661999999999,
            "velocity": 0.3937007874015748
          },
          {
            "duration": 0.0428569999999997,
            "durationTicks": 96,
            "midi": 32,
            "name": "G#1",
            "ticks": 35328,
            "time": 15.771376,
            "velocity": 0.3937007874015748
          },
          {
            "duration": 0.0428569999999997,
            "durationTicks": 96,
            "midi": 33,
            "name": "A1",
            "ticks": 35520,
            "time": 15.85709,
            "velocity": 0.3937007874015748
          },
          {
            "duration": 0.04285700000000148,
            "durationTicks": 96,
            "midi": 33,
            "name": "A1",
            "ticks": 35712,
            "time": 15.942803999999999,
            "velocity": 0.3937007874015748
          },
          {
            "duration": 0.04285700000000148,
            "durationTicks": 96,
            "midi": 33,
            "name": "A1",
            "ticks": 35904,
            "time": 16.028518,
            "velocity": 0.3937007874015748
          },
          {
            "duration": 0.042856999999997925,
            "durationTicks": 96,
            "midi": 33,
            "name": "A1",
            "ticks": 36096,
            "time": 16.114232,
            "velocity": 0.3937007874015748
          },
          {
            "duration": 0.042856999999997925,
            "durationTicks": 96,
            "midi": 33,
            "name": "A1",
            "ticks": 36288,
            "time": 16.199946,
            "velocity": 0.3937007874015748
          },
          {
            "duration": 0.042856999999997925,
            "durationTicks": 96,
            "midi": 33,
            "name": "A1",
            "ticks": 36480,
            "time": 16.28566,
            "velocity": 0.3937007874015748
          },
          {
            "duration": 0.04285700000000148,
            "durationTicks": 96,
            "midi": 33,
            "name": "A1",
            "ticks": 36672,
            "time": 16.371374,
            "velocity": 0.3937007874015748
          },
          {
            "duration": 0.04285700000000148,
            "durationTicks": 96,
            "midi": 33,
            "name": "A1",
            "ticks": 36864,
            "time": 16.457088,
            "velocity": 0.3937007874015748
          },
          {
            "duration": 0.04285700000000148,
            "durationTicks": 96,
            "midi": 37,
            "name": "C#2",
            "ticks": 37056,
            "time": 16.542802,
            "velocity": 0.3937007874015748
          },
          {
            "duration": 0.042856999999997925,
            "durationTicks": 96,
            "midi": 37,
            "name": "C#2",
            "ticks": 37248,
            "time": 16.628516,
            "velocity": 0.3937007874015748
          },
          {
            "duration": 0.042856999999997925,
            "durationTicks": 96,
            "midi": 37,
            "name": "C#2",
            "ticks": 37440,
            "time": 16.71423,
            "velocity": 0.3937007874015748
          },
          {
            "duration": 0.04285700000000148,
            "durationTicks": 96,
            "midi": 37,
            "name": "C#2",
            "ticks": 37632,
            "time": 16.799944,
            "velocity": 0.3937007874015748
          },
          {
            "duration": 0.04285700000000148,
            "durationTicks": 96,
            "midi": 37,
            "name": "C#2",
            "ticks": 37824,
            "time": 16.885658,
            "velocity": 0.3937007874015748
          },
          {
            "duration": 0.04285700000000148,
            "durationTicks": 96,
            "midi": 37,
            "name": "C#2",
            "ticks": 38016,
            "time": 16.971372,
            "velocity": 0.3937007874015748
          },
          {
            "duration": 0.04285700000000148,
            "durationTicks": 96,
            "midi": 37,
            "name": "C#2",
            "ticks": 38208,
            "time": 17.057085999999998,
            "velocity": 0.3937007874015748
          },
          {
            "duration": 0.042856999999997925,
            "durationTicks": 96,
            "midi": 37,
            "name": "C#2",
            "ticks": 38400,
            "time": 17.1428,
            "velocity": 0.3937007874015748
          },
          {
            "duration": 0.042856999999997925,
            "durationTicks": 96,
            "midi": 38,
            "name": "D2",
            "ticks": 38592,
            "time": 17.228514,
            "velocity": 0.3937007874015748
          },
          {
            "duration": 0.04285700000000148,
            "durationTicks": 96,
            "midi": 38,
            "name": "D2",
            "ticks": 38784,
            "time": 17.314228,
            "velocity": 0.3937007874015748
          },
          {
            "duration": 0.04285700000000148,
            "durationTicks": 96,
            "midi": 38,
            "name": "D2",
            "ticks": 38976,
            "time": 17.399942,
            "velocity": 0.3937007874015748
          },
          {
            "duration": 0.04285700000000148,
            "durationTicks": 96,
            "midi": 38,
            "name": "D2",
            "ticks": 39168,
            "time": 17.485656,
            "velocity": 0.3937007874015748
          },
          {
            "duration": 0.04285700000000148,
            "durationTicks": 96,
            "midi": 38,
            "name": "D2",
            "ticks": 39360,
            "time": 17.571369999999998,
            "velocity": 0.3937007874015748
          },
          {
            "duration": 0.042856999999997925,
            "durationTicks": 96,
            "midi": 38,
            "name": "D2",
            "ticks": 39552,
            "time": 17.657084,
            "velocity": 0.3937007874015748
          },
          {
            "duration": 0.042856999999997925,
            "durationTicks": 96,
            "midi": 38,
            "name": "D2",
            "ticks": 39744,
            "time": 17.742798,
            "velocity": 0.3937007874015748
          },
          {
            "duration": 0.04285700000000148,
            "durationTicks": 96,
            "midi": 38,
            "name": "D2",
            "ticks": 39936,
            "time": 17.828512,
            "velocity": 0.3937007874015748
          },
          {
            "duration": 0.04285700000000148,
            "durationTicks": 96,
            "midi": 38,
            "name": "D2",
            "ticks": 40128,
            "time": 17.914226,
            "velocity": 0.3937007874015748
          },
          {
            "duration": 0.04285700000000148,
            "durationTicks": 96,
            "midi": 38,
            "name": "D2",
            "ticks": 40320,
            "time": 17.99994,
            "velocity": 0.3937007874015748
          },
          {
            "duration": 0.04285700000000148,
            "durationTicks": 96,
            "midi": 38,
            "name": "D2",
            "ticks": 40512,
            "time": 18.085653999999998,
            "velocity": 0.3937007874015748
          },
          {
            "duration": 0.042856999999997925,
            "durationTicks": 96,
            "midi": 38,
            "name": "D2",
            "ticks": 40704,
            "time": 18.171368,
            "velocity": 0.3937007874015748
          },
          {
            "duration": 0.042856999999997925,
            "durationTicks": 96,
            "midi": 38,
            "name": "D2",
            "ticks": 40896,
            "time": 18.257082,
            "velocity": 0.3937007874015748
          },
          {
            "duration": 0.04285700000000148,
            "durationTicks": 96,
            "midi": 38,
            "name": "D2",
            "ticks": 41088,
            "time": 18.342796,
            "velocity": 0.3937007874015748
          },
          {
            "duration": 0.04285700000000148,
            "durationTicks": 96,
            "midi": 38,
            "name": "D2",
            "ticks": 41280,
            "time": 18.42851,
            "velocity": 0.3937007874015748
          },
          {
            "duration": 0.04285700000000148,
            "durationTicks": 96,
            "midi": 38,
            "name": "D2",
            "ticks": 41472,
            "time": 18.514224,
            "velocity": 0.3937007874015748
          },
          {
            "duration": 0.04285700000000148,
            "durationTicks": 96,
            "midi": 35,
            "name": "B1",
            "ticks": 41664,
            "time": 18.599937999999998,
            "velocity": 0.3937007874015748
          },
          {
            "duration": 0.042856999999997925,
            "durationTicks": 96,
            "midi": 35,
            "name": "B1",
            "ticks": 41856,
            "time": 18.685652,
            "velocity": 0.3937007874015748
          },
          {
            "duration": 0.042856999999997925,
            "durationTicks": 96,
            "midi": 35,
            "name": "B1",
            "ticks": 42048,
            "time": 18.771366,
            "velocity": 0.3937007874015748
          },
          {
            "duration": 0.04285700000000148,
            "durationTicks": 96,
            "midi": 35,
            "name": "B1",
            "ticks": 42240,
            "time": 18.85708,
            "velocity": 0.3937007874015748
          },
          {
            "duration": 0.04285700000000148,
            "durationTicks": 96,
            "midi": 35,
            "name": "B1",
            "ticks": 42432,
            "time": 18.942794,
            "velocity": 0.3937007874015748
          },
          {
            "duration": 0.04285700000000148,
            "durationTicks": 96,
            "midi": 35,
            "name": "B1",
            "ticks": 42624,
            "time": 19.028508,
            "velocity": 0.3937007874015748
          },
          {
            "duration": 0.04285700000000148,
            "durationTicks": 96,
            "midi": 35,
            "name": "B1",
            "ticks": 42816,
            "time": 19.114221999999998,
            "velocity": 0.3937007874015748
          },
          {
            "duration": 0.042856999999997925,
            "durationTicks": 96,
            "midi": 35,
            "name": "B1",
            "ticks": 43008,
            "time": 19.199936,
            "velocity": 0.3937007874015748
          },
          {
            "duration": 0.042856999999997925,
            "durationTicks": 96,
            "midi": 32,
            "name": "G#1",
            "ticks": 43200,
            "time": 19.28565,
            "velocity": 0.3937007874015748
          },
          {
            "duration": 0.04285700000000148,
            "durationTicks": 96,
            "midi": 32,
            "name": "G#1",
            "ticks": 43392,
            "time": 19.371364,
            "velocity": 0.3937007874015748
          },
          {
            "duration": 0.04285700000000148,
            "durationTicks": 96,
            "midi": 32,
            "name": "G#1",
            "ticks": 43584,
            "time": 19.457078,
            "velocity": 0.3937007874015748
          },
          {
            "duration": 0.04285700000000148,
            "durationTicks": 96,
            "midi": 32,
            "name": "G#1",
            "ticks": 43776,
            "time": 19.542792,
            "velocity": 0.3937007874015748
          },
          {
            "duration": 0.04285700000000148,
            "durationTicks": 96,
            "midi": 32,
            "name": "G#1",
            "ticks": 43968,
            "time": 19.628505999999998,
            "velocity": 0.3937007874015748
          },
          {
            "duration": 0.042856999999997925,
            "durationTicks": 96,
            "midi": 32,
            "name": "G#1",
            "ticks": 44160,
            "time": 19.71422,
            "velocity": 0.3937007874015748
          },
          {
            "duration": 0.042856999999997925,
            "durationTicks": 96,
            "midi": 32,
            "name": "G#1",
            "ticks": 44352,
            "time": 19.799934,
            "velocity": 0.3937007874015748
          },
          {
            "duration": 0.04285700000000148,
            "durationTicks": 96,
            "midi": 32,
            "name": "G#1",
            "ticks": 44544,
            "time": 19.885648,
            "velocity": 0.3937007874015748
          },
          {
            "duration": 0.04285700000000148,
            "durationTicks": 96,
            "midi": 33,
            "name": "A1",
            "ticks": 44736,
            "time": 19.971362,
            "velocity": 0.3937007874015748
          },
          {
            "duration": 0.04285700000000148,
            "durationTicks": 96,
            "midi": 33,
            "name": "A1",
            "ticks": 44928,
            "time": 20.057076,
            "velocity": 0.3937007874015748
          },
          {
            "duration": 0.04285700000000148,
            "durationTicks": 96,
            "midi": 33,
            "name": "A1",
            "ticks": 45120,
            "time": 20.142789999999998,
            "velocity": 0.3937007874015748
          },
          {
            "duration": 0.042856999999997925,
            "durationTicks": 96,
            "midi": 33,
            "name": "A1",
            "ticks": 45312,
            "time": 20.228504,
            "velocity": 0.3937007874015748
          },
          {
            "duration": 0.042856999999997925,
            "durationTicks": 96,
            "midi": 31,
            "name": "G1",
            "ticks": 45504,
            "time": 20.314218,
            "velocity": 0.3937007874015748
          },
          {
            "duration": 0.04285700000000148,
            "durationTicks": 96,
            "midi": 31,
            "name": "G1",
            "ticks": 45696,
            "time": 20.399932,
            "velocity": 0.3937007874015748
          },
          {
            "duration": 0.04285700000000148,
            "durationTicks": 96,
            "midi": 31,
            "name": "G1",
            "ticks": 45888,
            "time": 20.485646,
            "velocity": 0.3937007874015748
          },
          {
            "duration": 0.04285700000000148,
            "durationTicks": 96,
            "midi": 31,
            "name": "G1",
            "ticks": 46080,
            "time": 20.57136,
            "velocity": 0.3937007874015748
          },
          {
            "duration": 0.04285700000000148,
            "durationTicks": 96,
            "midi": 30,
            "name": "F#1",
            "ticks": 46272,
            "time": 20.657073999999998,
            "velocity": 0.3937007874015748
          },
          {
            "duration": 0.042856999999997925,
            "durationTicks": 96,
            "midi": 30,
            "name": "F#1",
            "ticks": 46464,
            "time": 20.742788,
            "velocity": 0.3937007874015748
          },
          {
            "duration": 0.042856999999997925,
            "durationTicks": 96,
            "midi": 30,
            "name": "F#1",
            "ticks": 46656,
            "time": 20.828502,
            "velocity": 0.3937007874015748
          },
          {
            "duration": 0.04285700000000148,
            "durationTicks": 96,
            "midi": 30,
            "name": "F#1",
            "ticks": 46848,
            "time": 20.914216,
            "velocity": 0.3937007874015748
          },
          {
            "duration": 0.04285700000000148,
            "durationTicks": 96,
            "midi": 30,
            "name": "F#1",
            "ticks": 47040,
            "time": 20.99993,
            "velocity": 0.3937007874015748
          },
          {
            "duration": 0.04285700000000148,
            "durationTicks": 96,
            "midi": 30,
            "name": "F#1",
            "ticks": 47232,
            "time": 21.085644,
            "velocity": 0.3937007874015748
          },
          {
            "duration": 0.04285700000000148,
            "durationTicks": 96,
            "midi": 30,
            "name": "F#1",
            "ticks": 47424,
            "time": 21.171357999999998,
            "velocity": 0.3937007874015748
          },
          {
            "duration": 0.042856999999997925,
            "durationTicks": 96,
            "midi": 30,
            "name": "F#1",
            "ticks": 47616,
            "time": 21.257072,
            "velocity": 0.3937007874015748
          },
          {
            "duration": 0.042856999999997925,
            "durationTicks": 96,
            "midi": 26,
            "name": "D1",
            "ticks": 47808,
            "time": 21.342786,
            "velocity": 0.3937007874015748
          },
          {
            "duration": 0.04285700000000148,
            "durationTicks": 96,
            "midi": 26,
            "name": "D1",
            "ticks": 48000,
            "time": 21.4285,
            "velocity": 0.3937007874015748
          },
          {
            "duration": 0.04285700000000148,
            "durationTicks": 96,
            "midi": 26,
            "name": "D1",
            "ticks": 48192,
            "time": 21.514214,
            "velocity": 0.3937007874015748
          },
          {
            "duration": 0.04285700000000148,
            "durationTicks": 96,
            "midi": 26,
            "name": "D1",
            "ticks": 48384,
            "time": 21.599928,
            "velocity": 0.3937007874015748
          },
          {
            "duration": 0.04285700000000148,
            "durationTicks": 96,
            "midi": 26,
            "name": "D1",
            "ticks": 48576,
            "time": 21.685641999999998,
            "velocity": 0.3937007874015748
          },
          {
            "duration": 0.042856999999997925,
            "durationTicks": 96,
            "midi": 26,
            "name": "D1",
            "ticks": 48768,
            "time": 21.771356,
            "velocity": 0.3937007874015748
          },
          {
            "duration": 0.042856999999997925,
            "durationTicks": 96,
            "midi": 26,
            "name": "D1",
            "ticks": 48960,
            "time": 21.85707,
            "velocity": 0.3937007874015748
          },
          {
            "duration": 0.04285700000000148,
            "durationTicks": 96,
            "midi": 26,
            "name": "D1",
            "ticks": 49152,
            "time": 21.942784,
            "velocity": 0.3937007874015748
          },
          {
            "duration": 0.04285700000000148,
            "durationTicks": 96,
            "midi": 28,
            "name": "E1",
            "ticks": 49344,
            "time": 22.028498,
            "velocity": 0.3937007874015748
          },
          {
            "duration": 0.04285700000000148,
            "durationTicks": 96,
            "midi": 28,
            "name": "E1",
            "ticks": 49536,
            "time": 22.114212,
            "velocity": 0.3937007874015748
          },
          {
            "duration": 0.042856999999997925,
            "durationTicks": 96,
            "midi": 28,
            "name": "E1",
            "ticks": 49728,
            "time": 22.199926,
            "velocity": 0.3937007874015748
          },
          {
            "duration": 0.042856999999997925,
            "durationTicks": 96,
            "midi": 28,
            "name": "E1",
            "ticks": 49920,
            "time": 22.28564,
            "velocity": 0.3937007874015748
          },
          {
            "duration": 0.042856999999997925,
            "durationTicks": 96,
            "midi": 28,
            "name": "E1",
            "ticks": 50112,
            "time": 22.371354,
            "velocity": 0.3937007874015748
          },
          {
            "duration": 0.04285700000000148,
            "durationTicks": 96,
            "midi": 28,
            "name": "E1",
            "ticks": 50304,
            "time": 22.457068,
            "velocity": 0.3937007874015748
          },
          {
            "duration": 0.04285700000000148,
            "durationTicks": 96,
            "midi": 28,
            "name": "E1",
            "ticks": 50496,
            "time": 22.542782,
            "velocity": 0.3937007874015748
          },
          {
            "duration": 0.04285700000000148,
            "durationTicks": 96,
            "midi": 28,
            "name": "E1",
            "ticks": 50688,
            "time": 22.628496,
            "velocity": 0.3937007874015748
          },
          {
            "duration": 0.042856999999997925,
            "durationTicks": 96,
            "midi": 33,
            "name": "A1",
            "ticks": 50880,
            "time": 22.71421,
            "velocity": 0.3937007874015748
          },
          {
            "duration": 0.042856999999997925,
            "durationTicks": 96,
            "midi": 33,
            "name": "A1",
            "ticks": 51072,
            "time": 22.799924,
            "velocity": 0.3937007874015748
          },
          {
            "duration": 0.042856999999997925,
            "durationTicks": 96,
            "midi": 33,
            "name": "A1",
            "ticks": 51264,
            "time": 22.885638,
            "velocity": 0.3937007874015748
          },
          {
            "duration": 0.04285700000000148,
            "durationTicks": 96,
            "midi": 33,
            "name": "A1",
            "ticks": 51456,
            "time": 22.971352,
            "velocity": 0.3937007874015748
          },
          {
            "duration": 0.04285700000000148,
            "durationTicks": 96,
            "midi": 33,
            "name": "A1",
            "ticks": 51648,
            "time": 23.057066,
            "velocity": 0.3937007874015748
          },
          {
            "duration": 0.04285700000000148,
            "durationTicks": 96,
            "midi": 33,
            "name": "A1",
            "ticks": 51840,
            "time": 23.14278,
            "velocity": 0.3937007874015748
          },
          {
            "duration": 0.042856999999997925,
            "durationTicks": 96,
            "midi": 33,
            "name": "A1",
            "ticks": 52032,
            "time": 23.228494,
            "velocity": 0.3937007874015748
          },
          {
            "duration": 0.042856999999997925,
            "durationTicks": 96,
            "midi": 33,
            "name": "A1",
            "ticks": 52224,
            "time": 23.314208,
            "velocity": 0.3937007874015748
          },
          {
            "duration": 0.042856999999997925,
            "durationTicks": 96,
            "midi": 33,
            "name": "A1",
            "ticks": 52416,
            "time": 23.399922,
            "velocity": 0.3937007874015748
          },
          {
            "duration": 0.04285700000000148,
            "durationTicks": 96,
            "midi": 33,
            "name": "A1",
            "ticks": 52608,
            "time": 23.485636,
            "velocity": 0.3937007874015748
          },
          {
            "duration": 0.04285700000000148,
            "durationTicks": 96,
            "midi": 33,
            "name": "A1",
            "ticks": 52800,
            "time": 23.57135,
            "velocity": 0.3937007874015748
          },
          {
            "duration": 0.04285700000000148,
            "durationTicks": 96,
            "midi": 33,
            "name": "A1",
            "ticks": 52992,
            "time": 23.657064,
            "velocity": 0.3937007874015748
          },
          {
            "duration": 0.042856999999997925,
            "durationTicks": 96,
            "midi": 33,
            "name": "A1",
            "ticks": 53184,
            "time": 23.742778,
            "velocity": 0.3937007874015748
          },
          {
            "duration": 0.042856999999997925,
            "durationTicks": 96,
            "midi": 33,
            "name": "A1",
            "ticks": 53376,
            "time": 23.828492,
            "velocity": 0.3937007874015748
          },
          {
            "duration": 0.042856999999997925,
            "durationTicks": 96,
            "midi": 33,
            "name": "A1",
            "ticks": 53568,
            "time": 23.914206,
            "velocity": 0.3937007874015748
          },
          {
            "duration": 0.04285700000000148,
            "durationTicks": 96,
            "midi": 33,
            "name": "A1",
            "ticks": 53760,
            "time": 23.99992,
            "velocity": 0.3937007874015748
          },
          {
            "duration": 0.04285700000000148,
            "durationTicks": 96,
            "midi": 33,
            "name": "A1",
            "ticks": 53952,
            "time": 24.085634,
            "velocity": 0.3937007874015748
          },
          {
            "duration": 0.04285700000000148,
            "durationTicks": 96,
            "midi": 33,
            "name": "A1",
            "ticks": 54144,
            "time": 24.171348,
            "velocity": 0.3937007874015748
          },
          {
            "duration": 0.042856999999997925,
            "durationTicks": 96,
            "midi": 33,
            "name": "A1",
            "ticks": 54336,
            "time": 24.257062,
            "velocity": 0.3937007874015748
          },
          {
            "duration": 0.042856999999997925,
            "durationTicks": 96,
            "midi": 33,
            "name": "A1",
            "ticks": 54528,
            "time": 24.342776,
            "velocity": 0.3937007874015748
          },
          {
            "duration": 0.042856999999997925,
            "durationTicks": 96,
            "midi": 33,
            "name": "A1",
            "ticks": 54720,
            "time": 24.42849,
            "velocity": 0.3937007874015748
          },
          {
            "duration": 0.04285700000000148,
            "durationTicks": 96,
            "midi": 33,
            "name": "A1",
            "ticks": 54912,
            "time": 24.514204,
            "velocity": 0.3937007874015748
          },
          {
            "duration": 0.04285700000000148,
            "durationTicks": 96,
            "midi": 33,
            "name": "A1",
            "ticks": 55104,
            "time": 24.599918,
            "velocity": 0.3937007874015748
          },
          {
            "duration": 0.04285700000000148,
            "durationTicks": 96,
            "midi": 33,
            "name": "A1",
            "ticks": 55296,
            "time": 24.685632,
            "velocity": 0.3937007874015748
          },
          {
            "duration": 0.042856999999997925,
            "durationTicks": 96,
            "midi": 33,
            "name": "A1",
            "ticks": 55488,
            "time": 24.771346,
            "velocity": 0.3937007874015748
          },
          {
            "duration": 0.042856999999997925,
            "durationTicks": 96,
            "midi": 33,
            "name": "A1",
            "ticks": 55680,
            "time": 24.85706,
            "velocity": 0.3937007874015748
          },
          {
            "duration": 0.042856999999997925,
            "durationTicks": 96,
            "midi": 33,
            "name": "A1",
            "ticks": 55872,
            "time": 24.942774,
            "velocity": 0.3937007874015748
          },
          {
            "duration": 0.04285700000000148,
            "durationTicks": 96,
            "midi": 33,
            "name": "A1",
            "ticks": 56064,
            "time": 25.028488,
            "velocity": 0.3937007874015748
          },
          {
            "duration": 0.04285700000000148,
            "durationTicks": 96,
            "midi": 33,
            "name": "A1",
            "ticks": 56256,
            "time": 25.114202,
            "velocity": 0.3937007874015748
          },
          {
            "duration": 0.04285700000000148,
            "durationTicks": 96,
            "midi": 33,
            "name": "A1",
            "ticks": 56448,
            "time": 25.199915999999998,
            "velocity": 0.3937007874015748
          },
          {
            "duration": 0.042856999999997925,
            "durationTicks": 96,
            "midi": 33,
            "name": "A1",
            "ticks": 56640,
            "time": 25.28563,
            "velocity": 0.3937007874015748
          },
          {
            "duration": 0.042856999999997925,
            "durationTicks": 96,
            "midi": 33,
            "name": "A1",
            "ticks": 56832,
            "time": 25.371344,
            "velocity": 0.3937007874015748
          },
          {
            "duration": 0.042856999999997925,
            "durationTicks": 96,
            "midi": 32,
            "name": "G#1",
            "ticks": 57024,
            "time": 25.457058,
            "velocity": 0.3937007874015748
          },
          {
            "duration": 0.04285700000000148,
            "durationTicks": 96,
            "midi": 32,
            "name": "G#1",
            "ticks": 57216,
            "time": 25.542772,
            "velocity": 0.3937007874015748
          },
          {
            "duration": 0.04285700000000148,
            "durationTicks": 96,
            "midi": 32,
            "name": "G#1",
            "ticks": 57408,
            "time": 25.628486,
            "velocity": 0.3937007874015748
          },
          {
            "duration": 0.04285700000000148,
            "durationTicks": 96,
            "midi": 32,
            "name": "G#1",
            "ticks": 57600,
            "time": 25.714199999999998,
            "velocity": 0.3937007874015748
          },
          {
            "duration": 0.042856999999997925,
            "durationTicks": 96,
            "midi": 32,
            "name": "G#1",
            "ticks": 57792,
            "time": 25.799914,
            "velocity": 0.3937007874015748
          },
          {
            "duration": 0.042856999999997925,
            "durationTicks": 96,
            "midi": 32,
            "name": "G#1",
            "ticks": 57984,
            "time": 25.885628,
            "velocity": 0.3937007874015748
          },
          {
            "duration": 0.042856999999997925,
            "durationTicks": 96,
            "midi": 32,
            "name": "G#1",
            "ticks": 58176,
            "time": 25.971342,
            "velocity": 0.3937007874015748
          },
          {
            "duration": 0.04285700000000148,
            "durationTicks": 96,
            "midi": 32,
            "name": "G#1",
            "ticks": 58368,
            "time": 26.057056,
            "velocity": 0.3937007874015748
          },
          {
            "duration": 0.04285700000000148,
            "durationTicks": 96,
            "midi": 32,
            "name": "G#1",
            "ticks": 58560,
            "time": 26.14277,
            "velocity": 0.3937007874015748
          },
          {
            "duration": 0.04285700000000148,
            "durationTicks": 96,
            "midi": 32,
            "name": "G#1",
            "ticks": 58752,
            "time": 26.228483999999998,
            "velocity": 0.3937007874015748
          },
          {
            "duration": 0.042856999999997925,
            "durationTicks": 96,
            "midi": 32,
            "name": "G#1",
            "ticks": 58944,
            "time": 26.314198,
            "velocity": 0.3937007874015748
          },
          {
            "duration": 0.042856999999997925,
            "durationTicks": 96,
            "midi": 32,
            "name": "G#1",
            "ticks": 59136,
            "time": 26.399912,
            "velocity": 0.3937007874015748
          },
          {
            "duration": 0.042856999999997925,
            "durationTicks": 96,
            "midi": 32,
            "name": "G#1",
            "ticks": 59328,
            "time": 26.485626,
            "velocity": 0.3937007874015748
          },
          {
            "duration": 0.04285700000000148,
            "durationTicks": 96,
            "midi": 32,
            "name": "G#1",
            "ticks": 59520,
            "time": 26.57134,
            "velocity": 0.3937007874015748
          },
          {
            "duration": 0.04285700000000148,
            "durationTicks": 96,
            "midi": 32,
            "name": "G#1",
            "ticks": 59712,
            "time": 26.657054,
            "velocity": 0.3937007874015748
          },
          {
            "duration": 0.04285700000000148,
            "durationTicks": 96,
            "midi": 32,
            "name": "G#1",
            "ticks": 59904,
            "time": 26.742767999999998,
            "velocity": 0.3937007874015748
          },
          {
            "duration": 0.042856999999997925,
            "durationTicks": 96,
            "midi": 33,
            "name": "A1",
            "ticks": 60096,
            "time": 26.828482,
            "velocity": 0.3937007874015748
          },
          {
            "duration": 0.042856999999997925,
            "durationTicks": 96,
            "midi": 33,
            "name": "A1",
            "ticks": 60288,
            "time": 26.914196,
            "velocity": 0.3937007874015748
          },
          {
            "duration": 0.042856999999997925,
            "durationTicks": 96,
            "midi": 33,
            "name": "A1",
            "ticks": 60480,
            "time": 26.99991,
            "velocity": 0.3937007874015748
          },
          {
            "duration": 0.04285700000000148,
            "durationTicks": 96,
            "midi": 33,
            "name": "A1",
            "ticks": 60672,
            "time": 27.085624,
            "velocity": 0.3937007874015748
          },
          {
            "duration": 0.04285700000000148,
            "durationTicks": 96,
            "midi": 33,
            "name": "A1",
            "ticks": 60864,
            "time": 27.171338,
            "velocity": 0.3937007874015748
          },
          {
            "duration": 0.04285700000000148,
            "durationTicks": 96,
            "midi": 33,
            "name": "A1",
            "ticks": 61056,
            "time": 27.257051999999998,
            "velocity": 0.3937007874015748
          },
          {
            "duration": 0.042856999999997925,
            "durationTicks": 96,
            "midi": 33,
            "name": "A1",
            "ticks": 61248,
            "time": 27.342766,
            "velocity": 0.3937007874015748
          },
          {
            "duration": 0.042856999999997925,
            "durationTicks": 96,
            "midi": 33,
            "name": "A1",
            "ticks": 61440,
            "time": 27.42848,
            "velocity": 0.3937007874015748
          },
          {
            "duration": 0.04285700000000148,
            "durationTicks": 96,
            "midi": 33,
            "name": "A1",
            "ticks": 61632,
            "time": 27.514194,
            "velocity": 0.3937007874015748
          },
          {
            "duration": 0.04285700000000148,
            "durationTicks": 96,
            "midi": 33,
            "name": "A1",
            "ticks": 61824,
            "time": 27.599908,
            "velocity": 0.3937007874015748
          },
          {
            "duration": 0.04285700000000148,
            "durationTicks": 96,
            "midi": 33,
            "name": "A1",
            "ticks": 62016,
            "time": 27.685622,
            "velocity": 0.3937007874015748
          },
          {
            "duration": 0.04285700000000148,
            "durationTicks": 96,
            "midi": 33,
            "name": "A1",
            "ticks": 62208,
            "time": 27.771335999999998,
            "velocity": 0.3937007874015748
          },
          {
            "duration": 0.042856999999997925,
            "durationTicks": 96,
            "midi": 33,
            "name": "A1",
            "ticks": 62400,
            "time": 27.85705,
            "velocity": 0.3937007874015748
          },
          {
            "duration": 0.042856999999997925,
            "durationTicks": 96,
            "midi": 33,
            "name": "A1",
            "ticks": 62592,
            "time": 27.942764,
            "velocity": 0.3937007874015748
          },
          {
            "duration": 0.04285700000000148,
            "durationTicks": 96,
            "midi": 33,
            "name": "A1",
            "ticks": 62784,
            "time": 28.028478,
            "velocity": 0.3937007874015748
          },
          {
            "duration": 0.04285700000000148,
            "durationTicks": 96,
            "midi": 33,
            "name": "A1",
            "ticks": 62976,
            "time": 28.114192,
            "velocity": 0.3937007874015748
          },
          {
            "duration": 0.04285700000000148,
            "durationTicks": 96,
            "midi": 38,
            "name": "D2",
            "ticks": 63168,
            "time": 28.199906,
            "velocity": 0.3937007874015748
          },
          {
            "duration": 0.04285700000000148,
            "durationTicks": 96,
            "midi": 38,
            "name": "D2",
            "ticks": 63360,
            "time": 28.285619999999998,
            "velocity": 0.3937007874015748
          },
          {
            "duration": 0.042856999999997925,
            "durationTicks": 96,
            "midi": 38,
            "name": "D2",
            "ticks": 63552,
            "time": 28.371334,
            "velocity": 0.3937007874015748
          },
          {
            "duration": 0.042856999999997925,
            "durationTicks": 96,
            "midi": 38,
            "name": "D2",
            "ticks": 63744,
            "time": 28.457048,
            "velocity": 0.3937007874015748
          },
          {
            "duration": 0.04285700000000148,
            "durationTicks": 96,
            "midi": 38,
            "name": "D2",
            "ticks": 63936,
            "time": 28.542762,
            "velocity": 0.3937007874015748
          },
          {
            "duration": 0.04285700000000148,
            "durationTicks": 96,
            "midi": 38,
            "name": "D2",
            "ticks": 64128,
            "time": 28.628476,
            "velocity": 0.3937007874015748
          },
          {
            "duration": 0.04285700000000148,
            "durationTicks": 96,
            "midi": 38,
            "name": "D2",
            "ticks": 64320,
            "time": 28.71419,
            "velocity": 0.3937007874015748
          },
          {
            "duration": 0.04285700000000148,
            "durationTicks": 96,
            "midi": 38,
            "name": "D2",
            "ticks": 64512,
            "time": 28.799903999999998,
            "velocity": 0.3937007874015748
          },
          {
            "duration": 0.042856999999997925,
            "durationTicks": 96,
            "midi": 38,
            "name": "D2",
            "ticks": 64704,
            "time": 28.885618,
            "velocity": 0.3937007874015748
          },
          {
            "duration": 0.042856999999997925,
            "durationTicks": 96,
            "midi": 38,
            "name": "D2",
            "ticks": 64896,
            "time": 28.971332,
            "velocity": 0.3937007874015748
          },
          {
            "duration": 0.04285700000000148,
            "durationTicks": 96,
            "midi": 38,
            "name": "D2",
            "ticks": 65088,
            "time": 29.057046,
            "velocity": 0.3937007874015748
          },
          {
            "duration": 0.04285700000000148,
            "durationTicks": 96,
            "midi": 38,
            "name": "D2",
            "ticks": 65280,
            "time": 29.14276,
            "velocity": 0.3937007874015748
          },
          {
            "duration": 0.04285700000000148,
            "durationTicks": 96,
            "midi": 38,
            "name": "D2",
            "ticks": 65472,
            "time": 29.228474,
            "velocity": 0.3937007874015748
          },
          {
            "duration": 0.04285700000000148,
            "durationTicks": 96,
            "midi": 38,
            "name": "D2",
            "ticks": 65664,
            "time": 29.314187999999998,
            "velocity": 0.3937007874015748
          },
          {
            "duration": 0.042856999999997925,
            "durationTicks": 96,
            "midi": 38,
            "name": "D2",
            "ticks": 65856,
            "time": 29.399902,
            "velocity": 0.3937007874015748
          },
          {
            "duration": 0.042856999999997925,
            "durationTicks": 96,
            "midi": 38,
            "name": "D2",
            "ticks": 66048,
            "time": 29.485616,
            "velocity": 0.3937007874015748
          },
          {
            "duration": 0.04285700000000148,
            "durationTicks": 96,
            "midi": 29,
            "name": "F1",
            "ticks": 66240,
            "time": 29.57133,
            "velocity": 0.3937007874015748
          },
          {
            "duration": 0.04285700000000148,
            "durationTicks": 96,
            "midi": 29,
            "name": "F1",
            "ticks": 66432,
            "time": 29.657044,
            "velocity": 0.3937007874015748
          },
          {
            "duration": 0.04285700000000148,
            "durationTicks": 96,
            "midi": 29,
            "name": "F1",
            "ticks": 66624,
            "time": 29.742758,
            "velocity": 0.3937007874015748
          },
          {
            "duration": 0.04285700000000148,
            "durationTicks": 96,
            "midi": 29,
            "name": "F1",
            "ticks": 66816,
            "time": 29.828471999999998,
            "velocity": 0.3937007874015748
          },
          {
            "duration": 0.042856999999997925,
            "durationTicks": 96,
            "midi": 29,
            "name": "F1",
            "ticks": 67008,
            "time": 29.914186,
            "velocity": 0.3937007874015748
          },
          {
            "duration": 0.042856999999997925,
            "durationTicks": 96,
            "midi": 29,
            "name": "F1",
            "ticks": 67200,
            "time": 29.9999,
            "velocity": 0.3937007874015748
          },
          {
            "duration": 0.04285700000000148,
            "durationTicks": 96,
            "midi": 29,
            "name": "F1",
            "ticks": 67392,
            "time": 30.085614,
            "velocity": 0.3937007874015748
          },
          {
            "duration": 0.04285700000000148,
            "durationTicks": 96,
            "midi": 29,
            "name": "F1",
            "ticks": 67584,
            "time": 30.171328,
            "velocity": 0.3937007874015748
          },
          {
            "duration": 0.04285700000000148,
            "durationTicks": 96,
            "midi": 29,
            "name": "F1",
            "ticks": 67776,
            "time": 30.257042,
            "velocity": 0.3937007874015748
          },
          {
            "duration": 0.04285700000000148,
            "durationTicks": 96,
            "midi": 29,
            "name": "F1",
            "ticks": 67968,
            "time": 30.342755999999998,
            "velocity": 0.3937007874015748
          },
          {
            "duration": 0.042856999999997925,
            "durationTicks": 96,
            "midi": 29,
            "name": "F1",
            "ticks": 68160,
            "time": 30.42847,
            "velocity": 0.3937007874015748
          },
          {
            "duration": 0.042856999999997925,
            "durationTicks": 96,
            "midi": 29,
            "name": "F1",
            "ticks": 68352,
            "time": 30.514184,
            "velocity": 0.3937007874015748
          },
          {
            "duration": 0.04285700000000148,
            "durationTicks": 96,
            "midi": 29,
            "name": "F1",
            "ticks": 68544,
            "time": 30.599898,
            "velocity": 0.3937007874015748
          },
          {
            "duration": 0.04285700000000148,
            "durationTicks": 96,
            "midi": 29,
            "name": "F1",
            "ticks": 68736,
            "time": 30.685612,
            "velocity": 0.3937007874015748
          },
          {
            "duration": 0.04285700000000148,
            "durationTicks": 96,
            "midi": 29,
            "name": "F1",
            "ticks": 68928,
            "time": 30.771326,
            "velocity": 0.3937007874015748
          },
          {
            "duration": 0.04285700000000148,
            "durationTicks": 96,
            "midi": 29,
            "name": "F1",
            "ticks": 69120,
            "time": 30.857039999999998,
            "velocity": 0.3937007874015748
          },
          {
            "duration": 0.042856999999997925,
            "durationTicks": 96,
            "midi": 33,
            "name": "A1",
            "ticks": 69312,
            "time": 30.942754,
            "velocity": 0.3937007874015748
          },
          {
            "duration": 0.042856999999997925,
            "durationTicks": 96,
            "midi": 33,
            "name": "A1",
            "ticks": 69504,
            "time": 31.028468,
            "velocity": 0.3937007874015748
          },
          {
            "duration": 0.04285700000000148,
            "durationTicks": 96,
            "midi": 33,
            "name": "A1",
            "ticks": 69696,
            "time": 31.114182,
            "velocity": 0.3937007874015748
          },
          {
            "duration": 0.04285700000000148,
            "durationTicks": 96,
            "midi": 33,
            "name": "A1",
            "ticks": 69888,
            "time": 31.199896,
            "velocity": 0.3937007874015748
          },
          {
            "duration": 0.04285700000000148,
            "durationTicks": 96,
            "midi": 33,
            "name": "A1",
            "ticks": 70080,
            "time": 31.28561,
            "velocity": 0.3937007874015748
          },
          {
            "duration": 0.04285700000000148,
            "durationTicks": 96,
            "midi": 33,
            "name": "A1",
            "ticks": 70272,
            "time": 31.371323999999998,
            "velocity": 0.3937007874015748
          },
          {
            "duration": 0.042856999999997925,
            "durationTicks": 96,
            "midi": 33,
            "name": "A1",
            "ticks": 70464,
            "time": 31.457038,
            "velocity": 0.3937007874015748
          },
          {
            "duration": 0.042856999999997925,
            "durationTicks": 96,
            "midi": 33,
            "name": "A1",
            "ticks": 70656,
            "time": 31.542752,
            "velocity": 0.3937007874015748
          },
          {
            "duration": 0.04285700000000148,
            "durationTicks": 96,
            "midi": 33,
            "name": "A1",
            "ticks": 70848,
            "time": 31.628466,
            "velocity": 0.3937007874015748
          },
          {
            "duration": 0.04285700000000148,
            "durationTicks": 96,
            "midi": 33,
            "name": "A1",
            "ticks": 71040,
            "time": 31.71418,
            "velocity": 0.3937007874015748
          },
          {
            "duration": 0.04285700000000148,
            "durationTicks": 96,
            "midi": 33,
            "name": "A1",
            "ticks": 71232,
            "time": 31.799894,
            "velocity": 0.3937007874015748
          },
          {
            "duration": 0.04285700000000148,
            "durationTicks": 96,
            "midi": 33,
            "name": "A1",
            "ticks": 71424,
            "time": 31.885607999999998,
            "velocity": 0.3937007874015748
          },
          {
            "duration": 0.042856999999997925,
            "durationTicks": 96,
            "midi": 33,
            "name": "A1",
            "ticks": 71616,
            "time": 31.971322,
            "velocity": 0.3937007874015748
          },
          {
            "duration": 0.04285700000000503,
            "durationTicks": 96,
            "midi": 33,
            "name": "A1",
            "ticks": 71808,
            "time": 32.057036,
            "velocity": 0.3937007874015748
          },
          {
            "duration": 0.042856999999997925,
            "durationTicks": 96,
            "midi": 33,
            "name": "A1",
            "ticks": 72000,
            "time": 32.14275,
            "velocity": 0.3937007874015748
          },
          {
            "duration": 0.042856999999997925,
            "durationTicks": 96,
            "midi": 33,
            "name": "A1",
            "ticks": 72192,
            "time": 32.228464,
            "velocity": 0.3937007874015748
          },
          {
            "duration": 0.042856999999997925,
            "durationTicks": 96,
            "midi": 29,
            "name": "F1",
            "ticks": 72384,
            "time": 32.314178,
            "velocity": 0.3937007874015748
          },
          {
            "duration": 0.042856999999997925,
            "durationTicks": 96,
            "midi": 29,
            "name": "F1",
            "ticks": 72576,
            "time": 32.399892,
            "velocity": 0.3937007874015748
          },
          {
            "duration": 0.04285700000000503,
            "durationTicks": 96,
            "midi": 29,
            "name": "F1",
            "ticks": 72768,
            "time": 32.485606,
            "velocity": 0.3937007874015748
          },
          {
            "duration": 0.042856999999997925,
            "durationTicks": 96,
            "midi": 29,
            "name": "F1",
            "ticks": 72960,
            "time": 32.57132,
            "velocity": 0.3937007874015748
          },
          {
            "duration": 0.04285700000000503,
            "durationTicks": 96,
            "midi": 29,
            "name": "F1",
            "ticks": 73152,
            "time": 32.657033999999996,
            "velocity": 0.3937007874015748
          },
          {
            "duration": 0.042856999999997925,
            "durationTicks": 96,
            "midi": 29,
            "name": "F1",
            "ticks": 73344,
            "time": 32.742748,
            "velocity": 0.3937007874015748
          },
          {
            "duration": 0.042856999999997925,
            "durationTicks": 96,
            "midi": 29,
            "name": "F1",
            "ticks": 73536,
            "time": 32.828462,
            "velocity": 0.3937007874015748
          },
          {
            "duration": 0.04285700000000503,
            "durationTicks": 96,
            "midi": 29,
            "name": "F1",
            "ticks": 73728,
            "time": 32.914176,
            "velocity": 0.3937007874015748
          },
          {
            "duration": 0.042856999999997925,
            "durationTicks": 96,
            "midi": 29,
            "name": "F1",
            "ticks": 73920,
            "time": 32.99989,
            "velocity": 0.3937007874015748
          },
          {
            "duration": 0.04285700000000503,
            "durationTicks": 96,
            "midi": 29,
            "name": "F1",
            "ticks": 74112,
            "time": 33.085604,
            "velocity": 0.3937007874015748
          },
          {
            "duration": 0.042856999999997925,
            "durationTicks": 96,
            "midi": 29,
            "name": "F1",
            "ticks": 74304,
            "time": 33.171318,
            "velocity": 0.3937007874015748
          },
          {
            "duration": 0.042856999999997925,
            "durationTicks": 96,
            "midi": 29,
            "name": "F1",
            "ticks": 74496,
            "time": 33.257032,
            "velocity": 0.3937007874015748
          },
          {
            "duration": 0.042856999999997925,
            "durationTicks": 96,
            "midi": 29,
            "name": "F1",
            "ticks": 74688,
            "time": 33.342746,
            "velocity": 0.3937007874015748
          },
          {
            "duration": 0.042856999999997925,
            "durationTicks": 96,
            "midi": 29,
            "name": "F1",
            "ticks": 74880,
            "time": 33.42846,
            "velocity": 0.3937007874015748
          },
          {
            "duration": 0.04285700000000503,
            "durationTicks": 96,
            "midi": 29,
            "name": "F1",
            "ticks": 75072,
            "time": 33.514174,
            "velocity": 0.3937007874015748
          },
          {
            "duration": 0.042856999999997925,
            "durationTicks": 96,
            "midi": 29,
            "name": "F1",
            "ticks": 75264,
            "time": 33.599888,
            "velocity": 0.3937007874015748
          },
          {
            "duration": 0.042856999999997925,
            "durationTicks": 96,
            "midi": 33,
            "name": "A1",
            "ticks": 75456,
            "time": 33.685602,
            "velocity": 0.3937007874015748
          },
          {
            "duration": 0.042856999999997925,
            "durationTicks": 96,
            "midi": 33,
            "name": "A1",
            "ticks": 75648,
            "time": 33.771316,
            "velocity": 0.3937007874015748
          },
          {
            "duration": 0.042856999999997925,
            "durationTicks": 96,
            "midi": 33,
            "name": "A1",
            "ticks": 75840,
            "time": 33.85703,
            "velocity": 0.3937007874015748
          },
          {
            "duration": 0.04285700000000503,
            "durationTicks": 96,
            "midi": 33,
            "name": "A1",
            "ticks": 76032,
            "time": 33.942744,
            "velocity": 0.3937007874015748
          },
          {
            "duration": 0.042856999999997925,
            "durationTicks": 96,
            "midi": 33,
            "name": "A1",
            "ticks": 76224,
            "time": 34.028458,
            "velocity": 0.3937007874015748
          },
          {
            "duration": 0.04285700000000503,
            "durationTicks": 96,
            "midi": 33,
            "name": "A1",
            "ticks": 76416,
            "time": 34.114171999999996,
            "velocity": 0.3937007874015748
          },
          {
            "duration": 0.042856999999997925,
            "durationTicks": 96,
            "midi": 33,
            "name": "A1",
            "ticks": 76608,
            "time": 34.199886,
            "velocity": 0.3937007874015748
          },
          {
            "duration": 0.042856999999997925,
            "durationTicks": 96,
            "midi": 33,
            "name": "A1",
            "ticks": 76800,
            "time": 34.2856,
            "velocity": 0.3937007874015748
          },
          {
            "duration": 0.042856999999997925,
            "durationTicks": 96,
            "midi": 32,
            "name": "G#1",
            "ticks": 76992,
            "time": 34.371314,
            "velocity": 0.3937007874015748
          },
          {
            "duration": 0.042856999999997925,
            "durationTicks": 96,
            "midi": 32,
            "name": "G#1",
            "ticks": 77184,
            "time": 34.457028,
            "velocity": 0.3937007874015748
          },
          {
            "duration": 0.04285700000000503,
            "durationTicks": 96,
            "midi": 32,
            "name": "G#1",
            "ticks": 77376,
            "time": 34.542742,
            "velocity": 0.3937007874015748
          },
          {
            "duration": 0.042856999999997925,
            "durationTicks": 96,
            "midi": 32,
            "name": "G#1",
            "ticks": 77568,
            "time": 34.628456,
            "velocity": 0.3937007874015748
          },
          {
            "duration": 0.042856999999997925,
            "durationTicks": 96,
            "midi": 32,
            "name": "G#1",
            "ticks": 77760,
            "time": 34.71417,
            "velocity": 0.3937007874015748
          },
          {
            "duration": 0.042856999999997925,
            "durationTicks": 96,
            "midi": 32,
            "name": "G#1",
            "ticks": 77952,
            "time": 34.799884,
            "velocity": 0.3937007874015748
          },
          {
            "duration": 0.042856999999997925,
            "durationTicks": 96,
            "midi": 32,
            "name": "G#1",
            "ticks": 78144,
            "time": 34.885598,
            "velocity": 0.3937007874015748
          },
          {
            "duration": 0.04285700000000503,
            "durationTicks": 96,
            "midi": 32,
            "name": "G#1",
            "ticks": 78336,
            "time": 34.971312,
            "velocity": 0.3937007874015748
          },
          {
            "duration": 0.042856999999997925,
            "durationTicks": 96,
            "midi": 33,
            "name": "A1",
            "ticks": 78528,
            "time": 35.057026,
            "velocity": 0.3937007874015748
          },
          {
            "duration": 0.04285700000000503,
            "durationTicks": 96,
            "midi": 33,
            "name": "A1",
            "ticks": 78720,
            "time": 35.142739999999996,
            "velocity": 0.3937007874015748
          },
          {
            "duration": 0.042856999999997925,
            "durationTicks": 96,
            "midi": 33,
            "name": "A1",
            "ticks": 78912,
            "time": 35.228454,
            "velocity": 0.3937007874015748
          },
          {
            "duration": 0.042856999999997925,
            "durationTicks": 96,
            "midi": 33,
            "name": "A1",
            "ticks": 79104,
            "time": 35.314168,
            "velocity": 0.3937007874015748
          },
          {
            "duration": 0.042856999999997925,
            "durationTicks": 96,
            "midi": 33,
            "name": "A1",
            "ticks": 79296,
            "time": 35.399882,
            "velocity": 0.3937007874015748
          },
          {
            "duration": 0.042856999999997925,
            "durationTicks": 96,
            "midi": 33,
            "name": "A1",
            "ticks": 79488,
            "time": 35.485596,
            "velocity": 0.3937007874015748
          },
          {
            "duration": 0.04285700000000503,
            "durationTicks": 96,
            "midi": 33,
            "name": "A1",
            "ticks": 79680,
            "time": 35.57131,
            "velocity": 0.3937007874015748
          },
          {
            "duration": 0.042856999999997925,
            "durationTicks": 96,
            "midi": 33,
            "name": "A1",
            "ticks": 79872,
            "time": 35.657024,
            "velocity": 0.3937007874015748
          },
          {
            "duration": 0.042856999999997925,
            "durationTicks": 96,
            "midi": 33,
            "name": "A1",
            "ticks": 80064,
            "time": 35.742738,
            "velocity": 0.3937007874015748
          },
          {
            "duration": 0.042856999999997925,
            "durationTicks": 96,
            "midi": 33,
            "name": "A1",
            "ticks": 80256,
            "time": 35.828452,
            "velocity": 0.3937007874015748
          },
          {
            "duration": 0.042856999999997925,
            "durationTicks": 96,
            "midi": 33,
            "name": "A1",
            "ticks": 80448,
            "time": 35.914166,
            "velocity": 0.3937007874015748
          },
          {
            "duration": 0.04285700000000503,
            "durationTicks": 96,
            "midi": 33,
            "name": "A1",
            "ticks": 80640,
            "time": 35.99988,
            "velocity": 0.3937007874015748
          },
          {
            "duration": 0.042856999999997925,
            "durationTicks": 96,
            "midi": 33,
            "name": "A1",
            "ticks": 80832,
            "time": 36.085594,
            "velocity": 0.3937007874015748
          },
          {
            "duration": 0.04285700000000503,
            "durationTicks": 96,
            "midi": 33,
            "name": "A1",
            "ticks": 81024,
            "time": 36.171307999999996,
            "velocity": 0.3937007874015748
          },
          {
            "duration": 0.042856999999997925,
            "durationTicks": 96,
            "midi": 33,
            "name": "A1",
            "ticks": 81216,
            "time": 36.257022,
            "velocity": 0.3937007874015748
          },
          {
            "duration": 0.042856999999997925,
            "durationTicks": 96,
            "midi": 33,
            "name": "A1",
            "ticks": 81408,
            "time": 36.342736,
            "velocity": 0.3937007874015748
          },
          {
            "duration": 0.042856999999997925,
            "durationTicks": 96,
            "midi": 32,
            "name": "G#1",
            "ticks": 81600,
            "time": 36.42845,
            "velocity": 0.3937007874015748
          },
          {
            "duration": 0.042856999999997925,
            "durationTicks": 96,
            "midi": 32,
            "name": "G#1",
            "ticks": 81792,
            "time": 36.514164,
            "velocity": 0.3937007874015748
          },
          {
            "duration": 0.04285700000000503,
            "durationTicks": 96,
            "midi": 32,
            "name": "G#1",
            "ticks": 81984,
            "time": 36.599878,
            "velocity": 0.3937007874015748
          },
          {
            "duration": 0.042856999999997925,
            "durationTicks": 96,
            "midi": 32,
            "name": "G#1",
            "ticks": 82176,
            "time": 36.685592,
            "velocity": 0.3937007874015748
          },
          {
            "duration": 0.042856999999997925,
            "durationTicks": 96,
            "midi": 32,
            "name": "G#1",
            "ticks": 82368,
            "time": 36.771306,
            "velocity": 0.3937007874015748
          },
          {
            "duration": 0.042856999999997925,
            "durationTicks": 96,
            "midi": 32,
            "name": "G#1",
            "ticks": 82560,
            "time": 36.85702,
            "velocity": 0.3937007874015748
          },
          {
            "duration": 0.042856999999997925,
            "durationTicks": 96,
            "midi": 32,
            "name": "G#1",
            "ticks": 82752,
            "time": 36.942734,
            "velocity": 0.3937007874015748
          },
          {
            "duration": 0.04285700000000503,
            "durationTicks": 96,
            "midi": 32,
            "name": "G#1",
            "ticks": 82944,
            "time": 37.028448,
            "velocity": 0.3937007874015748
          },
          {
            "duration": 0.042856999999997925,
            "durationTicks": 96,
            "midi": 32,
            "name": "G#1",
            "ticks": 83136,
            "time": 37.114162,
            "velocity": 0.3937007874015748
          },
          {
            "duration": 0.04285700000000503,
            "durationTicks": 96,
            "midi": 32,
            "name": "G#1",
            "ticks": 83328,
            "time": 37.199875999999996,
            "velocity": 0.3937007874015748
          },
          {
            "duration": 0.042856999999997925,
            "durationTicks": 96,
            "midi": 32,
            "name": "G#1",
            "ticks": 83520,
            "time": 37.28559,
            "velocity": 0.3937007874015748
          },
          {
            "duration": 0.042856999999997925,
            "durationTicks": 96,
            "midi": 32,
            "name": "G#1",
            "ticks": 83712,
            "time": 37.371304,
            "velocity": 0.3937007874015748
          },
          {
            "duration": 0.042856999999997925,
            "durationTicks": 96,
            "midi": 32,
            "name": "G#1",
            "ticks": 83904,
            "time": 37.457018,
            "velocity": 0.3937007874015748
          },
          {
            "duration": 0.042856999999997925,
            "durationTicks": 96,
            "midi": 32,
            "name": "G#1",
            "ticks": 84096,
            "time": 37.542732,
            "velocity": 0.3937007874015748
          },
          {
            "duration": 0.04285700000000503,
            "durationTicks": 96,
            "midi": 32,
            "name": "G#1",
            "ticks": 84288,
            "time": 37.628446,
            "velocity": 0.3937007874015748
          },
          {
            "duration": 0.042856999999997925,
            "durationTicks": 96,
            "midi": 32,
            "name": "G#1",
            "ticks": 84480,
            "time": 37.71416,
            "velocity": 0.3937007874015748
          },
          {
            "duration": 0.042856999999997925,
            "durationTicks": 96,
            "midi": 33,
            "name": "A1",
            "ticks": 84672,
            "time": 37.799874,
            "velocity": 0.3937007874015748
          },
          {
            "duration": 0.042856999999997925,
            "durationTicks": 96,
            "midi": 33,
            "name": "A1",
            "ticks": 84864,
            "time": 37.885588,
            "velocity": 0.3937007874015748
          },
          {
            "duration": 0.042856999999997925,
            "durationTicks": 96,
            "midi": 33,
            "name": "A1",
            "ticks": 85056,
            "time": 37.971302,
            "velocity": 0.3937007874015748
          },
          {
            "duration": 0.04285700000000503,
            "durationTicks": 96,
            "midi": 33,
            "name": "A1",
            "ticks": 85248,
            "time": 38.057016,
            "velocity": 0.3937007874015748
          },
          {
            "duration": 0.042856999999997925,
            "durationTicks": 96,
            "midi": 33,
            "name": "A1",
            "ticks": 85440,
            "time": 38.14273,
            "velocity": 0.3937007874015748
          },
          {
            "duration": 0.04285700000000503,
            "durationTicks": 96,
            "midi": 33,
            "name": "A1",
            "ticks": 85632,
            "time": 38.228443999999996,
            "velocity": 0.3937007874015748
          },
          {
            "duration": 0.042856999999997925,
            "durationTicks": 96,
            "midi": 33,
            "name": "A1",
            "ticks": 85824,
            "time": 38.314158,
            "velocity": 0.3937007874015748
          },
          {
            "duration": 0.042856999999997925,
            "durationTicks": 96,
            "midi": 33,
            "name": "A1",
            "ticks": 86016,
            "time": 38.399872,
            "velocity": 0.3937007874015748
          },
          {
            "duration": 0.04285700000000503,
            "durationTicks": 96,
            "midi": 33,
            "name": "A1",
            "ticks": 86208,
            "time": 38.485586,
            "velocity": 0.3937007874015748
          },
          {
            "duration": 0.042856999999997925,
            "durationTicks": 96,
            "midi": 33,
            "name": "A1",
            "ticks": 86400,
            "time": 38.5713,
            "velocity": 0.3937007874015748
          },
          {
            "duration": 0.04285700000000503,
            "durationTicks": 96,
            "midi": 33,
            "name": "A1",
            "ticks": 86592,
            "time": 38.657014,
            "velocity": 0.3937007874015748
          },
          {
            "duration": 0.042856999999997925,
            "durationTicks": 96,
            "midi": 33,
            "name": "A1",
            "ticks": 86784,
            "time": 38.742728,
            "velocity": 0.3937007874015748
          },
          {
            "duration": 0.042856999999997925,
            "durationTicks": 96,
            "midi": 33,
            "name": "A1",
            "ticks": 86976,
            "time": 38.828442,
            "velocity": 0.3937007874015748
          },
          {
            "duration": 0.042856999999997925,
            "durationTicks": 96,
            "midi": 33,
            "name": "A1",
            "ticks": 87168,
            "time": 38.914156,
            "velocity": 0.3937007874015748
          },
          {
            "duration": 0.042856999999997925,
            "durationTicks": 96,
            "midi": 33,
            "name": "A1",
            "ticks": 87360,
            "time": 38.99987,
            "velocity": 0.3937007874015748
          },
          {
            "duration": 0.04285700000000503,
            "durationTicks": 96,
            "midi": 33,
            "name": "A1",
            "ticks": 87552,
            "time": 39.085584,
            "velocity": 0.3937007874015748
          },
          {
            "duration": 0.042856999999997925,
            "durationTicks": 96,
            "midi": 38,
            "name": "D2",
            "ticks": 87744,
            "time": 39.171298,
            "velocity": 0.3937007874015748
          },
          {
            "duration": 0.04285700000000503,
            "durationTicks": 96,
            "midi": 38,
            "name": "D2",
            "ticks": 87936,
            "time": 39.257011999999996,
            "velocity": 0.3937007874015748
          },
          {
            "duration": 0.042856999999997925,
            "durationTicks": 96,
            "midi": 38,
            "name": "D2",
            "ticks": 88128,
            "time": 39.342726,
            "velocity": 0.3937007874015748
          },
          {
            "duration": 0.042856999999997925,
            "durationTicks": 96,
            "midi": 38,
            "name": "D2",
            "ticks": 88320,
            "time": 39.42844,
            "velocity": 0.3937007874015748
          },
          {
            "duration": 0.04285700000000503,
            "durationTicks": 96,
            "midi": 38,
            "name": "D2",
            "ticks": 88512,
            "time": 39.514154,
            "velocity": 0.3937007874015748
          },
          {
            "duration": 0.042856999999997925,
            "durationTicks": 96,
            "midi": 38,
            "name": "D2",
            "ticks": 88704,
            "time": 39.599868,
            "velocity": 0.3937007874015748
          },
          {
            "duration": 0.04285700000000503,
            "durationTicks": 96,
            "midi": 38,
            "name": "D2",
            "ticks": 88896,
            "time": 39.685582,
            "velocity": 0.3937007874015748
          },
          {
            "duration": 0.042856999999997925,
            "durationTicks": 96,
            "midi": 38,
            "name": "D2",
            "ticks": 89088,
            "time": 39.771296,
            "velocity": 0.3937007874015748
          },
          {
            "duration": 0.042856999999997925,
            "durationTicks": 96,
            "midi": 38,
            "name": "D2",
            "ticks": 89280,
            "time": 39.85701,
            "velocity": 0.3937007874015748
          },
          {
            "duration": 0.042856999999997925,
            "durationTicks": 96,
            "midi": 38,
            "name": "D2",
            "ticks": 89472,
            "time": 39.942724,
            "velocity": 0.3937007874015748
          },
          {
            "duration": 0.042856999999997925,
            "durationTicks": 96,
            "midi": 38,
            "name": "D2",
            "ticks": 89664,
            "time": 40.028438,
            "velocity": 0.3937007874015748
          },
          {
            "duration": 0.04285700000000503,
            "durationTicks": 96,
            "midi": 38,
            "name": "D2",
            "ticks": 89856,
            "time": 40.114152,
            "velocity": 0.3937007874015748
          },
          {
            "duration": 0.042856999999997925,
            "durationTicks": 96,
            "midi": 38,
            "name": "D2",
            "ticks": 90048,
            "time": 40.199866,
            "velocity": 0.3937007874015748
          },
          {
            "duration": 0.04285700000000503,
            "durationTicks": 96,
            "midi": 38,
            "name": "D2",
            "ticks": 90240,
            "time": 40.285579999999996,
            "velocity": 0.3937007874015748
          },
          {
            "duration": 0.042856999999997925,
            "durationTicks": 96,
            "midi": 38,
            "name": "D2",
            "ticks": 90432,
            "time": 40.371294,
            "velocity": 0.3937007874015748
          },
          {
            "duration": 0.042856999999997925,
            "durationTicks": 96,
            "midi": 38,
            "name": "D2",
            "ticks": 90624,
            "time": 40.457008,
            "velocity": 0.3937007874015748
          },
          {
            "duration": 0.04285700000000503,
            "durationTicks": 96,
            "midi": 29,
            "name": "F1",
            "ticks": 90816,
            "time": 40.542722,
            "velocity": 0.3937007874015748
          },
          {
            "duration": 0.042856999999997925,
            "durationTicks": 96,
            "midi": 29,
            "name": "F1",
            "ticks": 91008,
            "time": 40.628436,
            "velocity": 0.3937007874015748
          },
          {
            "duration": 0.04285700000000503,
            "durationTicks": 96,
            "midi": 29,
            "name": "F1",
            "ticks": 91200,
            "time": 40.71415,
            "velocity": 0.3937007874015748
          },
          {
            "duration": 0.042856999999997925,
            "durationTicks": 96,
            "midi": 29,
            "name": "F1",
            "ticks": 91392,
            "time": 40.799864,
            "velocity": 0.3937007874015748
          },
          {
            "duration": 0.042856999999997925,
            "durationTicks": 96,
            "midi": 29,
            "name": "F1",
            "ticks": 91584,
            "time": 40.885578,
            "velocity": 0.3937007874015748
          },
          {
            "duration": 0.042856999999997925,
            "durationTicks": 96,
            "midi": 29,
            "name": "F1",
            "ticks": 91776,
            "time": 40.971292,
            "velocity": 0.3937007874015748
          },
          {
            "duration": 0.042856999999997925,
            "durationTicks": 96,
            "midi": 29,
            "name": "F1",
            "ticks": 91968,
            "time": 41.057006,
            "velocity": 0.3937007874015748
          },
          {
            "duration": 0.04285700000000503,
            "durationTicks": 96,
            "midi": 29,
            "name": "F1",
            "ticks": 92160,
            "time": 41.14272,
            "velocity": 0.3937007874015748
          },
          {
            "duration": 0.042856999999997925,
            "durationTicks": 96,
            "midi": 29,
            "name": "F1",
            "ticks": 92352,
            "time": 41.228434,
            "velocity": 0.3937007874015748
          },
          {
            "duration": 0.04285700000000503,
            "durationTicks": 96,
            "midi": 29,
            "name": "F1",
            "ticks": 92544,
            "time": 41.314147999999996,
            "velocity": 0.3937007874015748
          },
          {
            "duration": 0.042856999999997925,
            "durationTicks": 96,
            "midi": 29,
            "name": "F1",
            "ticks": 92736,
            "time": 41.399862,
            "velocity": 0.3937007874015748
          },
          {
            "duration": 0.042856999999997925,
            "durationTicks": 96,
            "midi": 29,
            "name": "F1",
            "ticks": 92928,
            "time": 41.485576,
            "velocity": 0.3937007874015748
          },
          {
            "duration": 0.04285700000000503,
            "durationTicks": 96,
            "midi": 29,
            "name": "F1",
            "ticks": 93120,
            "time": 41.57129,
            "velocity": 0.3937007874015748
          },
          {
            "duration": 0.042856999999997925,
            "durationTicks": 96,
            "midi": 29,
            "name": "F1",
            "ticks": 93312,
            "time": 41.657004,
            "velocity": 0.3937007874015748
          },
          {
            "duration": 0.04285700000000503,
            "durationTicks": 96,
            "midi": 29,
            "name": "F1",
            "ticks": 93504,
            "time": 41.742717999999996,
            "velocity": 0.3937007874015748
          },
          {
            "duration": 0.042856999999997925,
            "durationTicks": 96,
            "midi": 29,
            "name": "F1",
            "ticks": 93696,
            "time": 41.828432,
            "velocity": 0.3937007874015748
          },
          {
            "duration": 0.042856999999997925,
            "durationTicks": 96,
            "midi": 33,
            "name": "A1",
            "ticks": 93888,
            "time": 41.914146,
            "velocity": 0.3937007874015748
          },
          {
            "duration": 0.042856999999997925,
            "durationTicks": 96,
            "midi": 33,
            "name": "A1",
            "ticks": 94080,
            "time": 41.99986,
            "velocity": 0.3937007874015748
          },
          {
            "duration": 0.042856999999997925,
            "durationTicks": 96,
            "midi": 33,
            "name": "A1",
            "ticks": 94272,
            "time": 42.085574,
            "velocity": 0.3937007874015748
          },
          {
            "duration": 0.04285700000000503,
            "durationTicks": 96,
            "midi": 33,
            "name": "A1",
            "ticks": 94464,
            "time": 42.171288,
            "velocity": 0.3937007874015748
          },
          {
            "duration": 0.042856999999997925,
            "durationTicks": 96,
            "midi": 33,
            "name": "A1",
            "ticks": 94656,
            "time": 42.257002,
            "velocity": 0.3937007874015748
          },
          {
            "duration": 0.04285700000000503,
            "durationTicks": 96,
            "midi": 33,
            "name": "A1",
            "ticks": 94848,
            "time": 42.342715999999996,
            "velocity": 0.3937007874015748
          },
          {
            "duration": 0.042856999999997925,
            "durationTicks": 96,
            "midi": 33,
            "name": "A1",
            "ticks": 95040,
            "time": 42.42843,
            "velocity": 0.3937007874015748
          },
          {
            "duration": 0.042856999999997925,
            "durationTicks": 96,
            "midi": 33,
            "name": "A1",
            "ticks": 95232,
            "time": 42.514144,
            "velocity": 0.3937007874015748
          },
          {
            "duration": 0.04285700000000503,
            "durationTicks": 96,
            "midi": 33,
            "name": "A1",
            "ticks": 95424,
            "time": 42.599858,
            "velocity": 0.3937007874015748
          },
          {
            "duration": 0.042856999999997925,
            "durationTicks": 96,
            "midi": 33,
            "name": "A1",
            "ticks": 95616,
            "time": 42.685572,
            "velocity": 0.3937007874015748
          },
          {
            "duration": 0.04285700000000503,
            "durationTicks": 96,
            "midi": 33,
            "name": "A1",
            "ticks": 95808,
            "time": 42.771285999999996,
            "velocity": 0.3937007874015748
          },
          {
            "duration": 0.042856999999997925,
            "durationTicks": 96,
            "midi": 33,
            "name": "A1",
            "ticks": 96000,
            "time": 42.857,
            "velocity": 0.3937007874015748
          },
          {
            "duration": 0.042856999999997925,
            "durationTicks": 96,
            "midi": 33,
            "name": "A1",
            "ticks": 96192,
            "time": 42.942714,
            "velocity": 0.3937007874015748
          },
          {
            "duration": 0.042856999999997925,
            "durationTicks": 96,
            "midi": 33,
            "name": "A1",
            "ticks": 96384,
            "time": 43.028428,
            "velocity": 0.3937007874015748
          },
          {
            "duration": 0.042856999999997925,
            "durationTicks": 96,
            "midi": 33,
            "name": "A1",
            "ticks": 96576,
            "time": 43.114142,
            "velocity": 0.3937007874015748
          },
          {
            "duration": 0.04285700000000503,
            "durationTicks": 96,
            "midi": 33,
            "name": "A1",
            "ticks": 96768,
            "time": 43.199856,
            "velocity": 0.3937007874015748
          },
          {
            "duration": 0.042856999999997925,
            "durationTicks": 96,
            "midi": 36,
            "name": "C2",
            "ticks": 96960,
            "time": 43.28557,
            "velocity": 0.3937007874015748
          },
          {
            "duration": 0.04285700000000503,
            "durationTicks": 96,
            "midi": 36,
            "name": "C2",
            "ticks": 97152,
            "time": 43.371283999999996,
            "velocity": 0.3937007874015748
          },
          {
            "duration": 0.042856999999997925,
            "durationTicks": 96,
            "midi": 36,
            "name": "C2",
            "ticks": 97344,
            "time": 43.456998,
            "velocity": 0.3937007874015748
          },
          {
            "duration": 0.042856999999997925,
            "durationTicks": 96,
            "midi": 36,
            "name": "C2",
            "ticks": 97536,
            "time": 43.542712,
            "velocity": 0.3937007874015748
          },
          {
            "duration": 0.04285700000000503,
            "durationTicks": 96,
            "midi": 36,
            "name": "C2",
            "ticks": 97728,
            "time": 43.628426,
            "velocity": 0.3937007874015748
          },
          {
            "duration": 0.042856999999997925,
            "durationTicks": 96,
            "midi": 36,
            "name": "C2",
            "ticks": 97920,
            "time": 43.71414,
            "velocity": 0.3937007874015748
          },
          {
            "duration": 0.04285700000000503,
            "durationTicks": 96,
            "midi": 36,
            "name": "C2",
            "ticks": 98112,
            "time": 43.799853999999996,
            "velocity": 0.3937007874015748
          },
          {
            "duration": 0.042856999999997925,
            "durationTicks": 96,
            "midi": 36,
            "name": "C2",
            "ticks": 98304,
            "time": 43.885568,
            "velocity": 0.3937007874015748
          },
          {
            "duration": 0.042856999999997925,
            "durationTicks": 96,
            "midi": 35,
            "name": "B1",
            "ticks": 98496,
            "time": 43.971282,
            "velocity": 0.3937007874015748
          },
          {
            "duration": 0.042856999999997925,
            "durationTicks": 96,
            "midi": 35,
            "name": "B1",
            "ticks": 98688,
            "time": 44.056996,
            "velocity": 0.3937007874015748
          },
          {
            "duration": 0.042856999999997925,
            "durationTicks": 96,
            "midi": 35,
            "name": "B1",
            "ticks": 98880,
            "time": 44.14271,
            "velocity": 0.3937007874015748
          },
          {
            "duration": 0.04285700000000503,
            "durationTicks": 96,
            "midi": 35,
            "name": "B1",
            "ticks": 99072,
            "time": 44.228424,
            "velocity": 0.3937007874015748
          },
          {
            "duration": 0.042856999999997925,
            "durationTicks": 96,
            "midi": 35,
            "name": "B1",
            "ticks": 99264,
            "time": 44.314138,
            "velocity": 0.3937007874015748
          },
          {
            "duration": 0.042856999999997925,
            "durationTicks": 96,
            "midi": 35,
            "name": "B1",
            "ticks": 99456,
            "time": 44.399852,
            "velocity": 0.3937007874015748
          },
          {
            "duration": 0.042856999999997925,
            "durationTicks": 96,
            "midi": 35,
            "name": "B1",
            "ticks": 99648,
            "time": 44.485566,
            "velocity": 0.3937007874015748
          },
          {
            "duration": 0.042856999999997925,
            "durationTicks": 96,
            "midi": 35,
            "name": "B1",
            "ticks": 99840,
            "time": 44.57128,
            "velocity": 0.3937007874015748
          },
          {
            "duration": 0.04285700000000503,
            "durationTicks": 96,
            "midi": 33,
            "name": "A1",
            "ticks": 100032,
            "time": 44.656994,
            "velocity": 0.3937007874015748
          },
          {
            "duration": 0.042856999999997925,
            "durationTicks": 96,
            "midi": 33,
            "name": "A1",
            "ticks": 100224,
            "time": 44.742708,
            "velocity": 0.3937007874015748
          },
          {
            "duration": 0.04285700000000503,
            "durationTicks": 96,
            "midi": 33,
            "name": "A1",
            "ticks": 100416,
            "time": 44.828421999999996,
            "velocity": 0.3937007874015748
          },
          {
            "duration": 0.042856999999997925,
            "durationTicks": 96,
            "midi": 33,
            "name": "A1",
            "ticks": 100608,
            "time": 44.914136,
            "velocity": 0.3937007874015748
          },
          {
            "duration": 0.042856999999997925,
            "durationTicks": 96,
            "midi": 33,
            "name": "A1",
            "ticks": 100800,
            "time": 44.99985,
            "velocity": 0.3937007874015748
          },
          {
            "duration": 0.042856999999997925,
            "durationTicks": 96,
            "midi": 33,
            "name": "A1",
            "ticks": 100992,
            "time": 45.085564,
            "velocity": 0.3937007874015748
          },
          {
            "duration": 0.042856999999997925,
            "durationTicks": 96,
            "midi": 33,
            "name": "A1",
            "ticks": 101184,
            "time": 45.171278,
            "velocity": 0.3937007874015748
          },
          {
            "duration": 0.04285700000000503,
            "durationTicks": 96,
            "midi": 33,
            "name": "A1",
            "ticks": 101376,
            "time": 45.256992,
            "velocity": 0.3937007874015748
          },
          {
            "duration": 0.042856999999997925,
            "durationTicks": 96,
            "midi": 33,
            "name": "A1",
            "ticks": 101568,
            "time": 45.342706,
            "velocity": 0.3937007874015748
          },
          {
            "duration": 0.042856999999997925,
            "durationTicks": 96,
            "midi": 33,
            "name": "A1",
            "ticks": 101760,
            "time": 45.42842,
            "velocity": 0.3937007874015748
          },
          {
            "duration": 0.042856999999997925,
            "durationTicks": 96,
            "midi": 33,
            "name": "A1",
            "ticks": 101952,
            "time": 45.514134,
            "velocity": 0.3937007874015748
          },
          {
            "duration": 0.042856999999997925,
            "durationTicks": 96,
            "midi": 33,
            "name": "A1",
            "ticks": 102144,
            "time": 45.599848,
            "velocity": 0.3937007874015748
          },
          {
            "duration": 0.04285700000000503,
            "durationTicks": 96,
            "midi": 33,
            "name": "A1",
            "ticks": 102336,
            "time": 45.685562,
            "velocity": 0.3937007874015748
          },
          {
            "duration": 0.042856999999997925,
            "durationTicks": 96,
            "midi": 33,
            "name": "A1",
            "ticks": 102528,
            "time": 45.771276,
            "velocity": 0.3937007874015748
          },
          {
            "duration": 0.04285700000000503,
            "durationTicks": 96,
            "midi": 33,
            "name": "A1",
            "ticks": 102720,
            "time": 45.856989999999996,
            "velocity": 0.3937007874015748
          },
          {
            "duration": 0.042856999999997925,
            "durationTicks": 96,
            "midi": 33,
            "name": "A1",
            "ticks": 102912,
            "time": 45.942704,
            "velocity": 0.3937007874015748
          },
          {
            "duration": 0.04285700000000503,
            "durationTicks": 96,
            "midi": 33,
            "name": "A1",
            "ticks": 127680,
            "time": 56.99981,
            "velocity": 0.3937007874015748
          },
          {
            "duration": 0.042856999999997925,
            "durationTicks": 96,
            "midi": 33,
            "name": "A1",
            "ticks": 127872,
            "time": 57.085524,
            "velocity": 0.3937007874015748
          },
          {
            "duration": 0.042856999999997925,
            "durationTicks": 96,
            "midi": 33,
            "name": "A1",
            "ticks": 128064,
            "time": 57.171238,
            "velocity": 0.3937007874015748
          },
          {
            "duration": 0.042856999999997925,
            "durationTicks": 96,
            "midi": 33,
            "name": "A1",
            "ticks": 128256,
            "time": 57.256952,
            "velocity": 0.3937007874015748
          },
          {
            "duration": 0.042856999999997925,
            "durationTicks": 96,
            "midi": 33,
            "name": "A1",
            "ticks": 128448,
            "time": 57.342666,
            "velocity": 0.3937007874015748
          },
          {
            "duration": 0.04285700000000503,
            "durationTicks": 96,
            "midi": 33,
            "name": "A1",
            "ticks": 128640,
            "time": 57.42838,
            "velocity": 0.3937007874015748
          },
          {
            "duration": 0.042856999999997925,
            "durationTicks": 96,
            "midi": 33,
            "name": "A1",
            "ticks": 128832,
            "time": 57.514094,
            "velocity": 0.3937007874015748
          },
          {
            "duration": 0.04285700000000503,
            "durationTicks": 96,
            "midi": 33,
            "name": "A1",
            "ticks": 129024,
            "time": 57.599807999999996,
            "velocity": 0.3937007874015748
          },
          {
            "duration": 0.042856999999997925,
            "durationTicks": 96,
            "midi": 33,
            "name": "A1",
            "ticks": 129216,
            "time": 57.685522,
            "velocity": 0.3937007874015748
          },
          {
            "duration": 0.042856999999997925,
            "durationTicks": 96,
            "midi": 33,
            "name": "A1",
            "ticks": 129408,
            "time": 57.771236,
            "velocity": 0.3937007874015748
          },
          {
            "duration": 0.042856999999997925,
            "durationTicks": 96,
            "midi": 33,
            "name": "A1",
            "ticks": 129600,
            "time": 57.85695,
            "velocity": 0.3937007874015748
          },
          {
            "duration": 0.042856999999997925,
            "durationTicks": 96,
            "midi": 33,
            "name": "A1",
            "ticks": 129792,
            "time": 57.942664,
            "velocity": 0.3937007874015748
          },
          {
            "duration": 0.04285700000000503,
            "durationTicks": 96,
            "midi": 33,
            "name": "A1",
            "ticks": 129984,
            "time": 58.028378,
            "velocity": 0.3937007874015748
          },
          {
            "duration": 0.042856999999997925,
            "durationTicks": 96,
            "midi": 33,
            "name": "A1",
            "ticks": 130176,
            "time": 58.114092,
            "velocity": 0.3937007874015748
          },
          {
            "duration": 0.042856999999997925,
            "durationTicks": 96,
            "midi": 33,
            "name": "A1",
            "ticks": 130368,
            "time": 58.199806,
            "velocity": 0.3937007874015748
          },
          {
            "duration": 0.042856999999997925,
            "durationTicks": 96,
            "midi": 33,
            "name": "A1",
            "ticks": 130560,
            "time": 58.28552,
            "velocity": 0.3937007874015748
          },
          {
            "duration": 0.042856999999997925,
            "durationTicks": 96,
            "midi": 36,
            "name": "C2",
            "ticks": 130752,
            "time": 58.371234,
            "velocity": 0.3937007874015748
          },
          {
            "duration": 0.04285700000000503,
            "durationTicks": 96,
            "midi": 36,
            "name": "C2",
            "ticks": 130944,
            "time": 58.456948,
            "velocity": 0.3937007874015748
          },
          {
            "duration": 0.042856999999997925,
            "durationTicks": 96,
            "midi": 36,
            "name": "C2",
            "ticks": 131136,
            "time": 58.542662,
            "velocity": 0.3937007874015748
          },
          {
            "duration": 0.04285700000000503,
            "durationTicks": 96,
            "midi": 36,
            "name": "C2",
            "ticks": 131328,
            "time": 58.628375999999996,
            "velocity": 0.3937007874015748
          },
          {
            "duration": 0.042856999999997925,
            "durationTicks": 96,
            "midi": 36,
            "name": "C2",
            "ticks": 131520,
            "time": 58.71409,
            "velocity": 0.3937007874015748
          },
          {
            "duration": 0.042856999999997925,
            "durationTicks": 96,
            "midi": 36,
            "name": "C2",
            "ticks": 131712,
            "time": 58.799804,
            "velocity": 0.3937007874015748
          },
          {
            "duration": 0.042856999999997925,
            "durationTicks": 96,
            "midi": 36,
            "name": "C2",
            "ticks": 131904,
            "time": 58.885518,
            "velocity": 0.3937007874015748
          },
          {
            "duration": 0.042856999999997925,
            "durationTicks": 96,
            "midi": 36,
            "name": "C2",
            "ticks": 132096,
            "time": 58.971232,
            "velocity": 0.3937007874015748
          },
          {
            "duration": 0.04285700000000503,
            "durationTicks": 96,
            "midi": 36,
            "name": "C2",
            "ticks": 132288,
            "time": 59.056945999999996,
            "velocity": 0.3937007874015748
          },
          {
            "duration": 0.042856999999997925,
            "durationTicks": 96,
            "midi": 36,
            "name": "C2",
            "ticks": 132480,
            "time": 59.14266,
            "velocity": 0.3937007874015748
          },
          {
            "duration": 0.042856999999997925,
            "durationTicks": 96,
            "midi": 36,
            "name": "C2",
            "ticks": 132672,
            "time": 59.228374,
            "velocity": 0.3937007874015748
          },
          {
            "duration": 0.042856999999997925,
            "durationTicks": 96,
            "midi": 36,
            "name": "C2",
            "ticks": 132864,
            "time": 59.314088,
            "velocity": 0.3937007874015748
          },
          {
            "duration": 0.042856999999997925,
            "durationTicks": 96,
            "midi": 36,
            "name": "C2",
            "ticks": 133056,
            "time": 59.399802,
            "velocity": 0.3937007874015748
          },
          {
            "duration": 0.04285700000000503,
            "durationTicks": 96,
            "midi": 36,
            "name": "C2",
            "ticks": 133248,
            "time": 59.485516,
            "velocity": 0.3937007874015748
          },
          {
            "duration": 0.042856999999997925,
            "durationTicks": 96,
            "midi": 36,
            "name": "C2",
            "ticks": 133440,
            "time": 59.57123,
            "velocity": 0.3937007874015748
          },
          {
            "duration": 0.04285700000000503,
            "durationTicks": 96,
            "midi": 36,
            "name": "C2",
            "ticks": 133632,
            "time": 59.656943999999996,
            "velocity": 0.3937007874015748
          },
          {
            "duration": 0.042856999999997925,
            "durationTicks": 96,
            "midi": 35,
            "name": "B1",
            "ticks": 133824,
            "time": 59.742658,
            "velocity": 0.3937007874015748
          },
          {
            "duration": 0.042856999999997925,
            "durationTicks": 96,
            "midi": 35,
            "name": "B1",
            "ticks": 134016,
            "time": 59.828372,
            "velocity": 0.3937007874015748
          },
          {
            "duration": 0.042856999999997925,
            "durationTicks": 96,
            "midi": 35,
            "name": "B1",
            "ticks": 134208,
            "time": 59.914086,
            "velocity": 0.3937007874015748
          },
          {
            "duration": 0.042856999999997925,
            "durationTicks": 96,
            "midi": 35,
            "name": "B1",
            "ticks": 134400,
            "time": 59.9998,
            "velocity": 0.3937007874015748
          },
          {
            "duration": 0.04285700000000503,
            "durationTicks": 96,
            "midi": 35,
            "name": "B1",
            "ticks": 134592,
            "time": 60.085513999999996,
            "velocity": 0.3937007874015748
          },
          {
            "duration": 0.042856999999997925,
            "durationTicks": 96,
            "midi": 35,
            "name": "B1",
            "ticks": 134784,
            "time": 60.171228,
            "velocity": 0.3937007874015748
          },
          {
            "duration": 0.042856999999997925,
            "durationTicks": 96,
            "midi": 35,
            "name": "B1",
            "ticks": 134976,
            "time": 60.256942,
            "velocity": 0.3937007874015748
          },
          {
            "duration": 0.042856999999997925,
            "durationTicks": 96,
            "midi": 35,
            "name": "B1",
            "ticks": 135168,
            "time": 60.342656,
            "velocity": 0.3937007874015748
          },
          {
            "duration": 0.042856999999997925,
            "durationTicks": 96,
            "midi": 35,
            "name": "B1",
            "ticks": 135360,
            "time": 60.42837,
            "velocity": 0.3937007874015748
          },
          {
            "duration": 0.04285700000000503,
            "durationTicks": 96,
            "midi": 35,
            "name": "B1",
            "ticks": 135552,
            "time": 60.514084,
            "velocity": 0.3937007874015748
          },
          {
            "duration": 0.042856999999997925,
            "durationTicks": 96,
            "midi": 35,
            "name": "B1",
            "ticks": 135744,
            "time": 60.599798,
            "velocity": 0.3937007874015748
          },
          {
            "duration": 0.04285700000000503,
            "durationTicks": 96,
            "midi": 35,
            "name": "B1",
            "ticks": 135936,
            "time": 60.685511999999996,
            "velocity": 0.3937007874015748
          },
          {
            "duration": 0.042856999999997925,
            "durationTicks": 96,
            "midi": 35,
            "name": "B1",
            "ticks": 136128,
            "time": 60.771226,
            "velocity": 0.3937007874015748
          },
          {
            "duration": 0.042856999999997925,
            "durationTicks": 96,
            "midi": 35,
            "name": "B1",
            "ticks": 136320,
            "time": 60.85694,
            "velocity": 0.3937007874015748
          },
          {
            "duration": 0.04285700000000503,
            "durationTicks": 96,
            "midi": 35,
            "name": "B1",
            "ticks": 136512,
            "time": 60.942654,
            "velocity": 0.3937007874015748
          },
          {
            "duration": 0.042856999999997925,
            "durationTicks": 96,
            "midi": 35,
            "name": "B1",
            "ticks": 136704,
            "time": 61.028368,
            "velocity": 0.3937007874015748
          },
          {
            "duration": 0.04285700000000503,
            "durationTicks": 96,
            "midi": 40,
            "name": "E2",
            "ticks": 136896,
            "time": 61.114081999999996,
            "velocity": 0.3937007874015748
          },
          {
            "duration": 0.042856999999997925,
            "durationTicks": 96,
            "midi": 40,
            "name": "E2",
            "ticks": 137088,
            "time": 61.199796,
            "velocity": 0.3937007874015748
          },
          {
            "duration": 0.042856999999997925,
            "durationTicks": 96,
            "midi": 40,
            "name": "E2",
            "ticks": 137280,
            "time": 61.28551,
            "velocity": 0.3937007874015748
          },
          {
            "duration": 0.042856999999997925,
            "durationTicks": 96,
            "midi": 40,
            "name": "E2",
            "ticks": 137472,
            "time": 61.371224,
            "velocity": 0.3937007874015748
          },
          {
            "duration": 0.042856999999997925,
            "durationTicks": 96,
            "midi": 38,
            "name": "D2",
            "ticks": 137664,
            "time": 61.456938,
            "velocity": 0.3937007874015748
          },
          {
            "duration": 0.04285700000000503,
            "durationTicks": 96,
            "midi": 38,
            "name": "D2",
            "ticks": 137856,
            "time": 61.542652,
            "velocity": 0.3937007874015748
          },
          {
            "duration": 0.042856999999997925,
            "durationTicks": 96,
            "midi": 38,
            "name": "D2",
            "ticks": 138048,
            "time": 61.628366,
            "velocity": 0.3937007874015748
          },
          {
            "duration": 0.04285700000000503,
            "durationTicks": 96,
            "midi": 38,
            "name": "D2",
            "ticks": 138240,
            "time": 61.714079999999996,
            "velocity": 0.3937007874015748
          },
          {
            "duration": 0.042856999999997925,
            "durationTicks": 96,
            "midi": 36,
            "name": "C2",
            "ticks": 138432,
            "time": 61.799794,
            "velocity": 0.3937007874015748
          },
          {
            "duration": 0.042856999999997925,
            "durationTicks": 96,
            "midi": 36,
            "name": "C2",
            "ticks": 138624,
            "time": 61.885508,
            "velocity": 0.3937007874015748
          },
          {
            "duration": 0.04285700000000503,
            "durationTicks": 96,
            "midi": 36,
            "name": "C2",
            "ticks": 138816,
            "time": 61.971222,
            "velocity": 0.3937007874015748
          },
          {
            "duration": 0.042856999999997925,
            "durationTicks": 96,
            "midi": 36,
            "name": "C2",
            "ticks": 139008,
            "time": 62.056936,
            "velocity": 0.3937007874015748
          },
          {
            "duration": 0.04285700000000503,
            "durationTicks": 96,
            "midi": 35,
            "name": "B1",
            "ticks": 139200,
            "time": 62.142649999999996,
            "velocity": 0.3937007874015748
          },
          {
            "duration": 0.042856999999997925,
            "durationTicks": 96,
            "midi": 35,
            "name": "B1",
            "ticks": 139392,
            "time": 62.228364,
            "velocity": 0.3937007874015748
          },
          {
            "duration": 0.042856999999997925,
            "durationTicks": 96,
            "midi": 35,
            "name": "B1",
            "ticks": 139584,
            "time": 62.314078,
            "velocity": 0.3937007874015748
          },
          {
            "duration": 0.042856999999997925,
            "durationTicks": 96,
            "midi": 35,
            "name": "B1",
            "ticks": 139776,
            "time": 62.399792,
            "velocity": 0.3937007874015748
          },
          {
            "duration": 0.042856999999997925,
            "durationTicks": 96,
            "midi": 33,
            "name": "A1",
            "ticks": 139968,
            "time": 62.485506,
            "velocity": 0.3937007874015748
          },
          {
            "duration": 0.04285700000000503,
            "durationTicks": 96,
            "midi": 33,
            "name": "A1",
            "ticks": 140160,
            "time": 62.57122,
            "velocity": 0.3937007874015748
          },
          {
            "duration": 0.042856999999997925,
            "durationTicks": 96,
            "midi": 33,
            "name": "A1",
            "ticks": 140352,
            "time": 62.656934,
            "velocity": 0.3937007874015748
          },
          {
            "duration": 0.04285700000000503,
            "durationTicks": 96,
            "midi": 33,
            "name": "A1",
            "ticks": 140544,
            "time": 62.742647999999996,
            "velocity": 0.3937007874015748
          },
          {
            "duration": 0.042856999999997925,
            "durationTicks": 96,
            "midi": 33,
            "name": "A1",
            "ticks": 140736,
            "time": 62.828362,
            "velocity": 0.3937007874015748
          },
          {
            "duration": 0.042856999999997925,
            "durationTicks": 96,
            "midi": 33,
            "name": "A1",
            "ticks": 140928,
            "time": 62.914076,
            "velocity": 0.3937007874015748
          },
          {
            "duration": 0.04285700000000503,
            "durationTicks": 96,
            "midi": 33,
            "name": "A1",
            "ticks": 141120,
            "time": 62.99979,
            "velocity": 0.3937007874015748
          },
          {
            "duration": 0.042856999999997925,
            "durationTicks": 96,
            "midi": 33,
            "name": "A1",
            "ticks": 141312,
            "time": 63.085504,
            "velocity": 0.3937007874015748
          },
          {
            "duration": 0.04285700000000503,
            "durationTicks": 96,
            "midi": 33,
            "name": "A1",
            "ticks": 141504,
            "time": 63.171217999999996,
            "velocity": 0.3937007874015748
          },
          {
            "duration": 0.042856999999997925,
            "durationTicks": 96,
            "midi": 33,
            "name": "A1",
            "ticks": 141696,
            "time": 63.256932,
            "velocity": 0.3937007874015748
          },
          {
            "duration": 0.042856999999997925,
            "durationTicks": 96,
            "midi": 33,
            "name": "A1",
            "ticks": 141888,
            "time": 63.342646,
            "velocity": 0.3937007874015748
          },
          {
            "duration": 0.042856999999997925,
            "durationTicks": 96,
            "midi": 33,
            "name": "A1",
            "ticks": 142080,
            "time": 63.42836,
            "velocity": 0.3937007874015748
          },
          {
            "duration": 0.042856999999997925,
            "durationTicks": 96,
            "midi": 33,
            "name": "A1",
            "ticks": 142272,
            "time": 63.514074,
            "velocity": 0.3937007874015748
          },
          {
            "duration": 0.04285700000000503,
            "durationTicks": 96,
            "midi": 33,
            "name": "A1",
            "ticks": 142464,
            "time": 63.599788,
            "velocity": 0.3937007874015748
          },
          {
            "duration": 0.042856999999997925,
            "durationTicks": 96,
            "midi": 33,
            "name": "A1",
            "ticks": 142656,
            "time": 63.685502,
            "velocity": 0.3937007874015748
          },
          {
            "duration": 0.04285700000000503,
            "durationTicks": 96,
            "midi": 33,
            "name": "A1",
            "ticks": 142848,
            "time": 63.771215999999995,
            "velocity": 0.3937007874015748
          },
          {
            "duration": 0.042856999999997925,
            "durationTicks": 96,
            "midi": 36,
            "name": "C2",
            "ticks": 143040,
            "time": 63.85693,
            "velocity": 0.3937007874015748
          },
          {
            "duration": 0.042856999999997925,
            "durationTicks": 96,
            "midi": 36,
            "name": "C2",
            "ticks": 143232,
            "time": 63.942644,
            "velocity": 0.3937007874015748
          },
          {
            "duration": 0.042856999999997925,
            "durationTicks": 96,
            "midi": 36,
            "name": "C2",
            "ticks": 143424,
            "time": 64.028358,
            "velocity": 0.3937007874015748
          },
          {
            "duration": 0.042857000000012135,
            "durationTicks": 96,
            "midi": 36,
            "name": "C2",
            "ticks": 143616,
            "time": 64.114072,
            "velocity": 0.3937007874015748
          },
          {
            "duration": 0.042856999999997925,
            "durationTicks": 96,
            "midi": 36,
            "name": "C2",
            "ticks": 143808,
            "time": 64.199786,
            "velocity": 0.3937007874015748
          },
          {
            "duration": 0.042856999999997925,
            "durationTicks": 96,
            "midi": 36,
            "name": "C2",
            "ticks": 144000,
            "time": 64.2855,
            "velocity": 0.3937007874015748
          },
          {
            "duration": 0.042856999999997925,
            "durationTicks": 96,
            "midi": 36,
            "name": "C2",
            "ticks": 144192,
            "time": 64.371214,
            "velocity": 0.3937007874015748
          },
          {
            "duration": 0.042856999999997925,
            "durationTicks": 96,
            "midi": 36,
            "name": "C2",
            "ticks": 144384,
            "time": 64.456928,
            "velocity": 0.3937007874015748
          },
          {
            "duration": 0.042856999999997925,
            "durationTicks": 96,
            "midi": 36,
            "name": "C2",
            "ticks": 144576,
            "time": 64.542642,
            "velocity": 0.3937007874015748
          },
          {
            "duration": 0.042856999999997925,
            "durationTicks": 96,
            "midi": 36,
            "name": "C2",
            "ticks": 144768,
            "time": 64.628356,
            "velocity": 0.3937007874015748
          },
          {
            "duration": 0.042857000000012135,
            "durationTicks": 96,
            "midi": 36,
            "name": "C2",
            "ticks": 144960,
            "time": 64.71406999999999,
            "velocity": 0.3937007874015748
          },
          {
            "duration": 0.042856999999997925,
            "durationTicks": 96,
            "midi": 36,
            "name": "C2",
            "ticks": 145152,
            "time": 64.799784,
            "velocity": 0.3937007874015748
          },
          {
            "duration": 0.042856999999997925,
            "durationTicks": 96,
            "midi": 36,
            "name": "C2",
            "ticks": 145344,
            "time": 64.885498,
            "velocity": 0.3937007874015748
          },
          {
            "duration": 0.042856999999997925,
            "durationTicks": 96,
            "midi": 36,
            "name": "C2",
            "ticks": 145536,
            "time": 64.971212,
            "velocity": 0.3937007874015748
          },
          {
            "duration": 0.042856999999997925,
            "durationTicks": 96,
            "midi": 36,
            "name": "C2",
            "ticks": 145728,
            "time": 65.056926,
            "velocity": 0.3937007874015748
          },
          {
            "duration": 0.042856999999997925,
            "durationTicks": 96,
            "midi": 36,
            "name": "C2",
            "ticks": 145920,
            "time": 65.14264,
            "velocity": 0.3937007874015748
          },
          {
            "duration": 0.042856999999997925,
            "durationTicks": 96,
            "midi": 41,
            "name": "F2",
            "ticks": 146112,
            "time": 65.228354,
            "velocity": 0.3937007874015748
          },
          {
            "duration": 0.042857000000012135,
            "durationTicks": 96,
            "midi": 41,
            "name": "F2",
            "ticks": 146304,
            "time": 65.31406799999999,
            "velocity": 0.3937007874015748
          },
          {
            "duration": 0.042856999999997925,
            "durationTicks": 96,
            "midi": 41,
            "name": "F2",
            "ticks": 146496,
            "time": 65.399782,
            "velocity": 0.3937007874015748
          },
          {
            "duration": 0.042856999999997925,
            "durationTicks": 96,
            "midi": 41,
            "name": "F2",
            "ticks": 146688,
            "time": 65.485496,
            "velocity": 0.3937007874015748
          },
          {
            "duration": 0.042857000000012135,
            "durationTicks": 96,
            "midi": 41,
            "name": "F2",
            "ticks": 146880,
            "time": 65.57121,
            "velocity": 0.3937007874015748
          },
          {
            "duration": 0.042856999999997925,
            "durationTicks": 96,
            "midi": 41,
            "name": "F2",
            "ticks": 147072,
            "time": 65.656924,
            "velocity": 0.3937007874015748
          },
          {
            "duration": 0.042856999999997925,
            "durationTicks": 96,
            "midi": 41,
            "name": "F2",
            "ticks": 147264,
            "time": 65.742638,
            "velocity": 0.3937007874015748
          },
          {
            "duration": 0.042856999999997925,
            "durationTicks": 96,
            "midi": 41,
            "name": "F2",
            "ticks": 147456,
            "time": 65.828352,
            "velocity": 0.3937007874015748
          },
          {
            "duration": 0.042856999999997925,
            "durationTicks": 96,
            "midi": 41,
            "name": "F2",
            "ticks": 147648,
            "time": 65.914066,
            "velocity": 0.3937007874015748
          },
          {
            "duration": 0.042856999999997925,
            "durationTicks": 96,
            "midi": 41,
            "name": "F2",
            "ticks": 147840,
            "time": 65.99978,
            "velocity": 0.3937007874015748
          },
          {
            "duration": 0.042856999999997925,
            "durationTicks": 96,
            "midi": 41,
            "name": "F2",
            "ticks": 148032,
            "time": 66.085494,
            "velocity": 0.3937007874015748
          },
          {
            "duration": 0.042857000000012135,
            "durationTicks": 96,
            "midi": 41,
            "name": "F2",
            "ticks": 148224,
            "time": 66.171208,
            "velocity": 0.3937007874015748
          },
          {
            "duration": 0.042856999999997925,
            "durationTicks": 96,
            "midi": 41,
            "name": "F2",
            "ticks": 148416,
            "time": 66.256922,
            "velocity": 0.3937007874015748
          },
          {
            "duration": 0.042856999999997925,
            "durationTicks": 96,
            "midi": 41,
            "name": "F2",
            "ticks": 148608,
            "time": 66.342636,
            "velocity": 0.3937007874015748
          },
          {
            "duration": 0.042856999999997925,
            "durationTicks": 96,
            "midi": 41,
            "name": "F2",
            "ticks": 148800,
            "time": 66.42835,
            "velocity": 0.3937007874015748
          },
          {
            "duration": 0.042856999999997925,
            "durationTicks": 96,
            "midi": 41,
            "name": "F2",
            "ticks": 148992,
            "time": 66.514064,
            "velocity": 0.3937007874015748
          },
          {
            "duration": 0.042856999999997925,
            "durationTicks": 96,
            "midi": 40,
            "name": "E2",
            "ticks": 149184,
            "time": 66.599778,
            "velocity": 0.3937007874015748
          },
          {
            "duration": 0.042856999999997925,
            "durationTicks": 96,
            "midi": 40,
            "name": "E2",
            "ticks": 149376,
            "time": 66.685492,
            "velocity": 0.3937007874015748
          },
          {
            "duration": 0.042857000000012135,
            "durationTicks": 96,
            "midi": 40,
            "name": "E2",
            "ticks": 149568,
            "time": 66.77120599999999,
            "velocity": 0.3937007874015748
          },
          {
            "duration": 0.042856999999997925,
            "durationTicks": 96,
            "midi": 40,
            "name": "E2",
            "ticks": 149760,
            "time": 66.85692,
            "velocity": 0.3937007874015748
          },
          {
            "duration": 0.042856999999997925,
            "durationTicks": 96,
            "midi": 40,
            "name": "E2",
            "ticks": 149952,
            "time": 66.942634,
            "velocity": 0.3937007874015748
          },
          {
            "duration": 0.042856999999997925,
            "durationTicks": 96,
            "midi": 40,
            "name": "E2",
            "ticks": 150144,
            "time": 67.028348,
            "velocity": 0.3937007874015748
          },
          {
            "duration": 0.042856999999997925,
            "durationTicks": 96,
            "midi": 40,
            "name": "E2",
            "ticks": 150336,
            "time": 67.114062,
            "velocity": 0.3937007874015748
          },
          {
            "duration": 0.042856999999997925,
            "durationTicks": 96,
            "midi": 40,
            "name": "E2",
            "ticks": 150528,
            "time": 67.199776,
            "velocity": 0.3937007874015748
          },
          {
            "duration": 0.042856999999997925,
            "durationTicks": 96,
            "midi": 40,
            "name": "E2",
            "ticks": 150720,
            "time": 67.28549,
            "velocity": 0.3937007874015748
          },
          {
            "duration": 0.042856999999997925,
            "durationTicks": 96,
            "midi": 40,
            "name": "E2",
            "ticks": 150912,
            "time": 67.371204,
            "velocity": 0.3937007874015748
          },
          {
            "duration": 0.042856999999997925,
            "durationTicks": 96,
            "midi": 40,
            "name": "E2",
            "ticks": 151104,
            "time": 67.456918,
            "velocity": 0.3937007874015748
          },
          {
            "duration": 0.042856999999997925,
            "durationTicks": 96,
            "midi": 40,
            "name": "E2",
            "ticks": 151296,
            "time": 67.542632,
            "velocity": 0.3937007874015748
          },
          {
            "duration": 0.042857000000012135,
            "durationTicks": 96,
            "midi": 40,
            "name": "E2",
            "ticks": 151488,
            "time": 67.628346,
            "velocity": 0.3937007874015748
          },
          {
            "duration": 0.042856999999997925,
            "durationTicks": 96,
            "midi": 40,
            "name": "E2",
            "ticks": 151680,
            "time": 67.71406,
            "velocity": 0.3937007874015748
          },
          {
            "duration": 0.042856999999997925,
            "durationTicks": 96,
            "midi": 40,
            "name": "E2",
            "ticks": 151872,
            "time": 67.799774,
            "velocity": 0.3937007874015748
          },
          {
            "duration": 0.042856999999997925,
            "durationTicks": 96,
            "midi": 40,
            "name": "E2",
            "ticks": 152064,
            "time": 67.885488,
            "velocity": 0.3937007874015748
          },
          {
            "duration": 0.042856999999997925,
            "durationTicks": 96,
            "midi": 33,
            "name": "A1",
            "ticks": 152256,
            "time": 67.971202,
            "velocity": 0.3937007874015748
          },
          {
            "duration": 0.042856999999997925,
            "durationTicks": 96,
            "midi": 45,
            "name": "A2",
            "ticks": 152256,
            "time": 67.971202,
            "velocity": 0.3937007874015748
          },
          {
            "duration": 0.042856999999997925,
            "durationTicks": 96,
            "midi": 33,
            "name": "A1",
            "ticks": 152448,
            "time": 68.056916,
            "velocity": 0.3937007874015748
          },
          {
            "duration": 0.042856999999997925,
            "durationTicks": 96,
            "midi": 45,
            "name": "A2",
            "ticks": 152448,
            "time": 68.056916,
            "velocity": 0.3937007874015748
          },
          {
            "duration": 0.042856999999997925,
            "durationTicks": 96,
            "midi": 33,
            "name": "A1",
            "ticks": 152640,
            "time": 68.14263,
            "velocity": 0.3937007874015748
          },
          {
            "duration": 0.042856999999997925,
            "durationTicks": 96,
            "midi": 45,
            "name": "A2",
            "ticks": 152640,
            "time": 68.14263,
            "velocity": 0.3937007874015748
          },
          {
            "duration": 0.042857000000012135,
            "durationTicks": 96,
            "midi": 33,
            "name": "A1",
            "ticks": 152832,
            "time": 68.22834399999999,
            "velocity": 0.3937007874015748
          },
          {
            "duration": 0.042857000000012135,
            "durationTicks": 96,
            "midi": 45,
            "name": "A2",
            "ticks": 152832,
            "time": 68.22834399999999,
            "velocity": 0.3937007874015748
          },
          {
            "duration": 0.042856999999997925,
            "durationTicks": 96,
            "midi": 33,
            "name": "A1",
            "ticks": 153024,
            "time": 68.314058,
            "velocity": 0.3937007874015748
          },
          {
            "duration": 0.042856999999997925,
            "durationTicks": 96,
            "midi": 45,
            "name": "A2",
            "ticks": 153024,
            "time": 68.314058,
            "velocity": 0.3937007874015748
          },
          {
            "duration": 0.042856999999997925,
            "durationTicks": 96,
            "midi": 33,
            "name": "A1",
            "ticks": 153216,
            "time": 68.399772,
            "velocity": 0.3937007874015748
          },
          {
            "duration": 0.042856999999997925,
            "durationTicks": 96,
            "midi": 45,
            "name": "A2",
            "ticks": 153216,
            "time": 68.399772,
            "velocity": 0.3937007874015748
          },
          {
            "duration": 0.042856999999997925,
            "durationTicks": 96,
            "midi": 45,
            "name": "A2",
            "ticks": 153408,
            "time": 68.485486,
            "velocity": 0.3937007874015748
          },
          {
            "duration": 0.042856999999997925,
            "durationTicks": 96,
            "midi": 33,
            "name": "A1",
            "ticks": 153408,
            "time": 68.485486,
            "velocity": 0.3937007874015748
          },
          {
            "duration": 0.042856999999997925,
            "durationTicks": 96,
            "midi": 33,
            "name": "A1",
            "ticks": 153600,
            "time": 68.5712,
            "velocity": 0.3937007874015748
          },
          {
            "duration": 0.042856999999997925,
            "durationTicks": 96,
            "midi": 45,
            "name": "A2",
            "ticks": 153600,
            "time": 68.5712,
            "velocity": 0.3937007874015748
          },
          {
            "duration": 0.042856999999997925,
            "durationTicks": 96,
            "midi": 45,
            "name": "A2",
            "ticks": 153792,
            "time": 68.656914,
            "velocity": 0.3937007874015748
          },
          {
            "duration": 0.042856999999997925,
            "durationTicks": 96,
            "midi": 33,
            "name": "A1",
            "ticks": 153792,
            "time": 68.656914,
            "velocity": 0.3937007874015748
          },
          {
            "duration": 0.042856999999997925,
            "durationTicks": 96,
            "midi": 45,
            "name": "A2",
            "ticks": 153984,
            "time": 68.742628,
            "velocity": 0.3937007874015748
          },
          {
            "duration": 0.042856999999997925,
            "durationTicks": 96,
            "midi": 33,
            "name": "A1",
            "ticks": 153984,
            "time": 68.742628,
            "velocity": 0.3937007874015748
          },
          {
            "duration": 0.042857000000012135,
            "durationTicks": 96,
            "midi": 33,
            "name": "A1",
            "ticks": 154176,
            "time": 68.82834199999999,
            "velocity": 0.3937007874015748
          },
          {
            "duration": 0.042857000000012135,
            "durationTicks": 96,
            "midi": 45,
            "name": "A2",
            "ticks": 154176,
            "time": 68.82834199999999,
            "velocity": 0.3937007874015748
          },
          {
            "duration": 0.042856999999997925,
            "durationTicks": 96,
            "midi": 45,
            "name": "A2",
            "ticks": 154368,
            "time": 68.914056,
            "velocity": 0.3937007874015748
          },
          {
            "duration": 0.042856999999997925,
            "durationTicks": 96,
            "midi": 33,
            "name": "A1",
            "ticks": 154368,
            "time": 68.914056,
            "velocity": 0.3937007874015748
          },
          {
            "duration": 0.042856999999997925,
            "durationTicks": 96,
            "midi": 33,
            "name": "A1",
            "ticks": 154560,
            "time": 68.99977,
            "velocity": 0.3937007874015748
          },
          {
            "duration": 0.042856999999997925,
            "durationTicks": 96,
            "midi": 45,
            "name": "A2",
            "ticks": 154560,
            "time": 68.99977,
            "velocity": 0.3937007874015748
          },
          {
            "duration": 0.042856999999997925,
            "durationTicks": 96,
            "midi": 45,
            "name": "A2",
            "ticks": 154752,
            "time": 69.085484,
            "velocity": 0.3937007874015748
          },
          {
            "duration": 0.042856999999997925,
            "durationTicks": 96,
            "midi": 33,
            "name": "A1",
            "ticks": 154752,
            "time": 69.085484,
            "velocity": 0.3937007874015748
          },
          {
            "duration": 0.042856999999997925,
            "durationTicks": 96,
            "midi": 33,
            "name": "A1",
            "ticks": 154944,
            "time": 69.171198,
            "velocity": 0.3937007874015748
          },
          {
            "duration": 0.042856999999997925,
            "durationTicks": 96,
            "midi": 45,
            "name": "A2",
            "ticks": 154944,
            "time": 69.171198,
            "velocity": 0.3937007874015748
          },
          {
            "duration": 0.042856999999997925,
            "durationTicks": 96,
            "midi": 45,
            "name": "A2",
            "ticks": 155136,
            "time": 69.256912,
            "velocity": 0.3937007874015748
          },
          {
            "duration": 0.042856999999997925,
            "durationTicks": 96,
            "midi": 33,
            "name": "A1",
            "ticks": 155136,
            "time": 69.256912,
            "velocity": 0.3937007874015748
          },
          {
            "duration": 0.042856999999997925,
            "durationTicks": 96,
            "midi": 48,
            "name": "C3",
            "ticks": 155328,
            "time": 69.342626,
            "velocity": 0.3937007874015748
          },
          {
            "duration": 0.042856999999997925,
            "durationTicks": 96,
            "midi": 36,
            "name": "C2",
            "ticks": 155328,
            "time": 69.342626,
            "velocity": 0.3937007874015748
          },
          {
            "duration": 0.042856999999997925,
            "durationTicks": 96,
            "midi": 48,
            "name": "C3",
            "ticks": 155520,
            "time": 69.42834,
            "velocity": 0.3937007874015748
          },
          {
            "duration": 0.042856999999997925,
            "durationTicks": 96,
            "midi": 36,
            "name": "C2",
            "ticks": 155520,
            "time": 69.42834,
            "velocity": 0.3937007874015748
          },
          {
            "duration": 0.042856999999997925,
            "durationTicks": 96,
            "midi": 36,
            "name": "C2",
            "ticks": 155712,
            "time": 69.514054,
            "velocity": 0.3937007874015748
          },
          {
            "duration": 0.042856999999997925,
            "durationTicks": 96,
            "midi": 48,
            "name": "C3",
            "ticks": 155712,
            "time": 69.514054,
            "velocity": 0.3937007874015748
          },
          {
            "duration": 0.042856999999997925,
            "durationTicks": 96,
            "midi": 36,
            "name": "C2",
            "ticks": 155904,
            "time": 69.599768,
            "velocity": 0.3937007874015748
          },
          {
            "duration": 0.042856999999997925,
            "durationTicks": 96,
            "midi": 48,
            "name": "C3",
            "ticks": 155904,
            "time": 69.599768,
            "velocity": 0.3937007874015748
          },
          {
            "duration": 0.042857000000012135,
            "durationTicks": 96,
            "midi": 36,
            "name": "C2",
            "ticks": 156096,
            "time": 69.685482,
            "velocity": 0.3937007874015748
          },
          {
            "duration": 0.042857000000012135,
            "durationTicks": 96,
            "midi": 48,
            "name": "C3",
            "ticks": 156096,
            "time": 69.685482,
            "velocity": 0.3937007874015748
          },
          {
            "duration": 0.042856999999997925,
            "durationTicks": 96,
            "midi": 36,
            "name": "C2",
            "ticks": 156288,
            "time": 69.771196,
            "velocity": 0.3937007874015748
          },
          {
            "duration": 0.042856999999997925,
            "durationTicks": 96,
            "midi": 48,
            "name": "C3",
            "ticks": 156288,
            "time": 69.771196,
            "velocity": 0.3937007874015748
          },
          {
            "duration": 0.042856999999997925,
            "durationTicks": 96,
            "midi": 48,
            "name": "C3",
            "ticks": 156480,
            "time": 69.85691,
            "velocity": 0.3937007874015748
          },
          {
            "duration": 0.042856999999997925,
            "durationTicks": 96,
            "midi": 36,
            "name": "C2",
            "ticks": 156480,
            "time": 69.85691,
            "velocity": 0.3937007874015748
          },
          {
            "duration": 0.042856999999997925,
            "durationTicks": 96,
            "midi": 48,
            "name": "C3",
            "ticks": 156672,
            "time": 69.942624,
            "velocity": 0.3937007874015748
          },
          {
            "duration": 0.042856999999997925,
            "durationTicks": 96,
            "midi": 36,
            "name": "C2",
            "ticks": 156672,
            "time": 69.942624,
            "velocity": 0.3937007874015748
          },
          {
            "duration": 0.042856999999997925,
            "durationTicks": 96,
            "midi": 48,
            "name": "C3",
            "ticks": 156864,
            "time": 70.028338,
            "velocity": 0.3937007874015748
          },
          {
            "duration": 0.042856999999997925,
            "durationTicks": 96,
            "midi": 36,
            "name": "C2",
            "ticks": 156864,
            "time": 70.028338,
            "velocity": 0.3937007874015748
          },
          {
            "duration": 0.042856999999997925,
            "durationTicks": 96,
            "midi": 36,
            "name": "C2",
            "ticks": 157056,
            "time": 70.114052,
            "velocity": 0.3937007874015748
          },
          {
            "duration": 0.042856999999997925,
            "durationTicks": 96,
            "midi": 48,
            "name": "C3",
            "ticks": 157056,
            "time": 70.114052,
            "velocity": 0.3937007874015748
          },
          {
            "duration": 0.042856999999997925,
            "durationTicks": 96,
            "midi": 36,
            "name": "C2",
            "ticks": 157248,
            "time": 70.199766,
            "velocity": 0.3937007874015748
          },
          {
            "duration": 0.042856999999997925,
            "durationTicks": 96,
            "midi": 48,
            "name": "C3",
            "ticks": 157248,
            "time": 70.199766,
            "velocity": 0.3937007874015748
          },
          {
            "duration": 0.042857000000012135,
            "durationTicks": 96,
            "midi": 36,
            "name": "C2",
            "ticks": 157440,
            "time": 70.28547999999999,
            "velocity": 0.3937007874015748
          },
          {
            "duration": 0.042857000000012135,
            "durationTicks": 96,
            "midi": 48,
            "name": "C3",
            "ticks": 157440,
            "time": 70.28547999999999,
            "velocity": 0.3937007874015748
          },
          {
            "duration": 0.042856999999997925,
            "durationTicks": 96,
            "midi": 36,
            "name": "C2",
            "ticks": 157632,
            "time": 70.371194,
            "velocity": 0.3937007874015748
          },
          {
            "duration": 0.042856999999997925,
            "durationTicks": 96,
            "midi": 48,
            "name": "C3",
            "ticks": 157632,
            "time": 70.371194,
            "velocity": 0.3937007874015748
          },
          {
            "duration": 0.042856999999997925,
            "durationTicks": 96,
            "midi": 36,
            "name": "C2",
            "ticks": 157824,
            "time": 70.456908,
            "velocity": 0.3937007874015748
          },
          {
            "duration": 0.042856999999997925,
            "durationTicks": 96,
            "midi": 48,
            "name": "C3",
            "ticks": 157824,
            "time": 70.456908,
            "velocity": 0.3937007874015748
          },
          {
            "duration": 0.042856999999997925,
            "durationTicks": 96,
            "midi": 36,
            "name": "C2",
            "ticks": 158016,
            "time": 70.542622,
            "velocity": 0.3937007874015748
          },
          {
            "duration": 0.042856999999997925,
            "durationTicks": 96,
            "midi": 48,
            "name": "C3",
            "ticks": 158016,
            "time": 70.542622,
            "velocity": 0.3937007874015748
          },
          {
            "duration": 0.042856999999997925,
            "durationTicks": 96,
            "midi": 48,
            "name": "C3",
            "ticks": 158208,
            "time": 70.628336,
            "velocity": 0.3937007874015748
          },
          {
            "duration": 0.042856999999997925,
            "durationTicks": 96,
            "midi": 36,
            "name": "C2",
            "ticks": 158208,
            "time": 70.628336,
            "velocity": 0.3937007874015748
          },
          {
            "duration": 0.042856999999997925,
            "durationTicks": 96,
            "midi": 47,
            "name": "B2",
            "ticks": 158400,
            "time": 70.71405,
            "velocity": 0.3937007874015748
          },
          {
            "duration": 0.042856999999997925,
            "durationTicks": 96,
            "midi": 35,
            "name": "B1",
            "ticks": 158400,
            "time": 70.71405,
            "velocity": 0.3937007874015748
          },
          {
            "duration": 0.042856999999997925,
            "durationTicks": 96,
            "midi": 35,
            "name": "B1",
            "ticks": 158592,
            "time": 70.799764,
            "velocity": 0.3937007874015748
          },
          {
            "duration": 0.042856999999997925,
            "durationTicks": 96,
            "midi": 47,
            "name": "B2",
            "ticks": 158592,
            "time": 70.799764,
            "velocity": 0.3937007874015748
          },
          {
            "duration": 0.042857000000012135,
            "durationTicks": 96,
            "midi": 35,
            "name": "B1",
            "ticks": 158784,
            "time": 70.88547799999999,
            "velocity": 0.3937007874015748
          },
          {
            "duration": 0.042857000000012135,
            "durationTicks": 96,
            "midi": 47,
            "name": "B2",
            "ticks": 158784,
            "time": 70.88547799999999,
            "velocity": 0.3937007874015748
          },
          {
            "duration": 0.042856999999997925,
            "durationTicks": 96,
            "midi": 35,
            "name": "B1",
            "ticks": 158976,
            "time": 70.971192,
            "velocity": 0.3937007874015748
          },
          {
            "duration": 0.042856999999997925,
            "durationTicks": 96,
            "midi": 47,
            "name": "B2",
            "ticks": 158976,
            "time": 70.971192,
            "velocity": 0.3937007874015748
          },
          {
            "duration": 0.042856999999997925,
            "durationTicks": 96,
            "midi": 47,
            "name": "B2",
            "ticks": 159168,
            "time": 71.056906,
            "velocity": 0.3937007874015748
          },
          {
            "duration": 0.042856999999997925,
            "durationTicks": 96,
            "midi": 35,
            "name": "B1",
            "ticks": 159168,
            "time": 71.056906,
            "velocity": 0.3937007874015748
          },
          {
            "duration": 0.042856999999997925,
            "durationTicks": 96,
            "midi": 47,
            "name": "B2",
            "ticks": 159360,
            "time": 71.14262,
            "velocity": 0.3937007874015748
          },
          {
            "duration": 0.042856999999997925,
            "durationTicks": 96,
            "midi": 35,
            "name": "B1",
            "ticks": 159360,
            "time": 71.14262,
            "velocity": 0.3937007874015748
          },
          {
            "duration": 0.042856999999997925,
            "durationTicks": 96,
            "midi": 47,
            "name": "B2",
            "ticks": 159552,
            "time": 71.228334,
            "velocity": 0.3937007874015748
          },
          {
            "duration": 0.042856999999997925,
            "durationTicks": 96,
            "midi": 35,
            "name": "B1",
            "ticks": 159552,
            "time": 71.228334,
            "velocity": 0.3937007874015748
          },
          {
            "duration": 0.042856999999997925,
            "durationTicks": 96,
            "midi": 47,
            "name": "B2",
            "ticks": 159744,
            "time": 71.314048,
            "velocity": 0.3937007874015748
          },
          {
            "duration": 0.042856999999997925,
            "durationTicks": 96,
            "midi": 35,
            "name": "B1",
            "ticks": 159744,
            "time": 71.314048,
            "velocity": 0.3937007874015748
          },
          {
            "duration": 0.042856999999997925,
            "durationTicks": 96,
            "midi": 35,
            "name": "B1",
            "ticks": 159936,
            "time": 71.399762,
            "velocity": 0.3937007874015748
          },
          {
            "duration": 0.042856999999997925,
            "durationTicks": 96,
            "midi": 47,
            "name": "B2",
            "ticks": 159936,
            "time": 71.399762,
            "velocity": 0.3937007874015748
          },
          {
            "duration": 0.042856999999997925,
            "durationTicks": 96,
            "midi": 35,
            "name": "B1",
            "ticks": 160128,
            "time": 71.485476,
            "velocity": 0.3937007874015748
          },
          {
            "duration": 0.042856999999997925,
            "durationTicks": 96,
            "midi": 47,
            "name": "B2",
            "ticks": 160128,
            "time": 71.485476,
            "velocity": 0.3937007874015748
          },
          {
            "duration": 0.042856999999997925,
            "durationTicks": 96,
            "midi": 35,
            "name": "B1",
            "ticks": 160320,
            "time": 71.57119,
            "velocity": 0.3937007874015748
          },
          {
            "duration": 0.042856999999997925,
            "durationTicks": 96,
            "midi": 47,
            "name": "B2",
            "ticks": 160320,
            "time": 71.57119,
            "velocity": 0.3937007874015748
          },
          {
            "duration": 0.042856999999997925,
            "durationTicks": 96,
            "midi": 47,
            "name": "B2",
            "ticks": 160512,
            "time": 71.656904,
            "velocity": 0.3937007874015748
          },
          {
            "duration": 0.042856999999997925,
            "durationTicks": 96,
            "midi": 35,
            "name": "B1",
            "ticks": 160512,
            "time": 71.656904,
            "velocity": 0.3937007874015748
          },
          {
            "duration": 0.042857000000012135,
            "durationTicks": 96,
            "midi": 35,
            "name": "B1",
            "ticks": 160704,
            "time": 71.742618,
            "velocity": 0.3937007874015748
          },
          {
            "duration": 0.042857000000012135,
            "durationTicks": 96,
            "midi": 47,
            "name": "B2",
            "ticks": 160704,
            "time": 71.742618,
            "velocity": 0.3937007874015748
          },
          {
            "duration": 0.042856999999997925,
            "durationTicks": 96,
            "midi": 47,
            "name": "B2",
            "ticks": 160896,
            "time": 71.828332,
            "velocity": 0.3937007874015748
          },
          {
            "duration": 0.042856999999997925,
            "durationTicks": 96,
            "midi": 35,
            "name": "B1",
            "ticks": 160896,
            "time": 71.828332,
            "velocity": 0.3937007874015748
          },
          {
            "duration": 0.042856999999997925,
            "durationTicks": 96,
            "midi": 35,
            "name": "B1",
            "ticks": 161088,
            "time": 71.914046,
            "velocity": 0.3937007874015748
          },
          {
            "duration": 0.042856999999997925,
            "durationTicks": 96,
            "midi": 47,
            "name": "B2",
            "ticks": 161088,
            "time": 71.914046,
            "velocity": 0.3937007874015748
          },
          {
            "duration": 0.042856999999997925,
            "durationTicks": 96,
            "midi": 35,
            "name": "B1",
            "ticks": 161280,
            "time": 71.99976,
            "velocity": 0.3937007874015748
          },
          {
            "duration": 0.042856999999997925,
            "durationTicks": 96,
            "midi": 47,
            "name": "B2",
            "ticks": 161280,
            "time": 71.99976,
            "velocity": 0.3937007874015748
          },
          {
            "duration": 0.042856999999997925,
            "durationTicks": 96,
            "midi": 40,
            "name": "E2",
            "ticks": 161472,
            "time": 72.085474,
            "velocity": 0.3937007874015748
          },
          {
            "duration": 0.042856999999997925,
            "durationTicks": 96,
            "midi": 52,
            "name": "E3",
            "ticks": 161472,
            "time": 72.085474,
            "velocity": 0.3937007874015748
          },
          {
            "duration": 0.042856999999997925,
            "durationTicks": 96,
            "midi": 40,
            "name": "E2",
            "ticks": 161664,
            "time": 72.171188,
            "velocity": 0.3937007874015748
          },
          {
            "duration": 0.042856999999997925,
            "durationTicks": 96,
            "midi": 52,
            "name": "E3",
            "ticks": 161664,
            "time": 72.171188,
            "velocity": 0.3937007874015748
          },
          {
            "duration": 0.042856999999997925,
            "durationTicks": 96,
            "midi": 52,
            "name": "E3",
            "ticks": 161856,
            "time": 72.256902,
            "velocity": 0.3937007874015748
          },
          {
            "duration": 0.042856999999997925,
            "durationTicks": 96,
            "midi": 40,
            "name": "E2",
            "ticks": 161856,
            "time": 72.256902,
            "velocity": 0.3937007874015748
          },
          {
            "duration": 0.042857000000012135,
            "durationTicks": 96,
            "midi": 40,
            "name": "E2",
            "ticks": 162048,
            "time": 72.34261599999999,
            "velocity": 0.3937007874015748
          },
          {
            "duration": 0.042857000000012135,
            "durationTicks": 96,
            "midi": 52,
            "name": "E3",
            "ticks": 162048,
            "time": 72.34261599999999,
            "velocity": 0.3937007874015748
          },
          {
            "duration": 0.042856999999997925,
            "durationTicks": 96,
            "midi": 38,
            "name": "D2",
            "ticks": 162240,
            "time": 72.42833,
            "velocity": 0.3937007874015748
          },
          {
            "duration": 0.042856999999997925,
            "durationTicks": 96,
            "midi": 50,
            "name": "D3",
            "ticks": 162240,
            "time": 72.42833,
            "velocity": 0.3937007874015748
          },
          {
            "duration": 0.042856999999997925,
            "durationTicks": 96,
            "midi": 50,
            "name": "D3",
            "ticks": 162432,
            "time": 72.514044,
            "velocity": 0.3937007874015748
          },
          {
            "duration": 0.042856999999997925,
            "durationTicks": 96,
            "midi": 38,
            "name": "D2",
            "ticks": 162432,
            "time": 72.514044,
            "velocity": 0.3937007874015748
          },
          {
            "duration": 0.042856999999997925,
            "durationTicks": 96,
            "midi": 38,
            "name": "D2",
            "ticks": 162624,
            "time": 72.599758,
            "velocity": 0.3937007874015748
          },
          {
            "duration": 0.042856999999997925,
            "durationTicks": 96,
            "midi": 50,
            "name": "D3",
            "ticks": 162624,
            "time": 72.599758,
            "velocity": 0.3937007874015748
          },
          {
            "duration": 0.042856999999997925,
            "durationTicks": 96,
            "midi": 38,
            "name": "D2",
            "ticks": 162816,
            "time": 72.685472,
            "velocity": 0.3937007874015748
          },
          {
            "duration": 0.042856999999997925,
            "durationTicks": 96,
            "midi": 50,
            "name": "D3",
            "ticks": 162816,
            "time": 72.685472,
            "velocity": 0.3937007874015748
          },
          {
            "duration": 0.042856999999997925,
            "durationTicks": 96,
            "midi": 36,
            "name": "C2",
            "ticks": 163008,
            "time": 72.771186,
            "velocity": 0.3937007874015748
          },
          {
            "duration": 0.042856999999997925,
            "durationTicks": 96,
            "midi": 48,
            "name": "C3",
            "ticks": 163008,
            "time": 72.771186,
            "velocity": 0.3937007874015748
          },
          {
            "duration": 0.042856999999997925,
            "durationTicks": 96,
            "midi": 36,
            "name": "C2",
            "ticks": 163200,
            "time": 72.8569,
            "velocity": 0.3937007874015748
          },
          {
            "duration": 0.042856999999997925,
            "durationTicks": 96,
            "midi": 48,
            "name": "C3",
            "ticks": 163200,
            "time": 72.8569,
            "velocity": 0.3937007874015748
          },
          {
            "duration": 0.042857000000012135,
            "durationTicks": 96,
            "midi": 36,
            "name": "C2",
            "ticks": 163392,
            "time": 72.94261399999999,
            "velocity": 0.3937007874015748
          },
          {
            "duration": 0.042857000000012135,
            "durationTicks": 96,
            "midi": 48,
            "name": "C3",
            "ticks": 163392,
            "time": 72.94261399999999,
            "velocity": 0.3937007874015748
          },
          {
            "duration": 0.042856999999997925,
            "durationTicks": 96,
            "midi": 48,
            "name": "C3",
            "ticks": 163584,
            "time": 73.028328,
            "velocity": 0.3937007874015748
          },
          {
            "duration": 0.042856999999997925,
            "durationTicks": 96,
            "midi": 36,
            "name": "C2",
            "ticks": 163584,
            "time": 73.028328,
            "velocity": 0.3937007874015748
          },
          {
            "duration": 0.042856999999997925,
            "durationTicks": 96,
            "midi": 47,
            "name": "B2",
            "ticks": 163776,
            "time": 73.114042,
            "velocity": 0.3937007874015748
          },
          {
            "duration": 0.042856999999997925,
            "durationTicks": 96,
            "midi": 35,
            "name": "B1",
            "ticks": 163776,
            "time": 73.114042,
            "velocity": 0.3937007874015748
          },
          {
            "duration": 0.042857000000012135,
            "durationTicks": 96,
            "midi": 35,
            "name": "B1",
            "ticks": 163968,
            "time": 73.199756,
            "velocity": 0.3937007874015748
          },
          {
            "duration": 0.042857000000012135,
            "durationTicks": 96,
            "midi": 47,
            "name": "B2",
            "ticks": 163968,
            "time": 73.199756,
            "velocity": 0.3937007874015748
          },
          {
            "duration": 0.042856999999997925,
            "durationTicks": 96,
            "midi": 47,
            "name": "B2",
            "ticks": 164160,
            "time": 73.28547,
            "velocity": 0.3937007874015748
          },
          {
            "duration": 0.042856999999997925,
            "durationTicks": 96,
            "midi": 35,
            "name": "B1",
            "ticks": 164160,
            "time": 73.28547,
            "velocity": 0.3937007874015748
          },
          {
            "duration": 0.042856999999997925,
            "durationTicks": 96,
            "midi": 35,
            "name": "B1",
            "ticks": 164352,
            "time": 73.371184,
            "velocity": 0.3937007874015748
          },
          {
            "duration": 0.042856999999997925,
            "durationTicks": 96,
            "midi": 47,
            "name": "B2",
            "ticks": 164352,
            "time": 73.371184,
            "velocity": 0.3937007874015748
          },
          {
            "duration": 0.042856999999997925,
            "durationTicks": 96,
            "midi": 33,
            "name": "A1",
            "ticks": 164544,
            "time": 73.456898,
            "velocity": 0.3937007874015748
          },
          {
            "duration": 0.042856999999997925,
            "durationTicks": 96,
            "midi": 45,
            "name": "A2",
            "ticks": 164544,
            "time": 73.456898,
            "velocity": 0.3937007874015748
          },
          {
            "duration": 0.042856999999997925,
            "durationTicks": 96,
            "midi": 33,
            "name": "A1",
            "ticks": 164736,
            "time": 73.542612,
            "velocity": 0.3937007874015748
          },
          {
            "duration": 0.042856999999997925,
            "durationTicks": 96,
            "midi": 45,
            "name": "A2",
            "ticks": 164736,
            "time": 73.542612,
            "velocity": 0.3937007874015748
          },
          {
            "duration": 0.042856999999997925,
            "durationTicks": 96,
            "midi": 33,
            "name": "A1",
            "ticks": 164928,
            "time": 73.628326,
            "velocity": 0.3937007874015748
          },
          {
            "duration": 0.042856999999997925,
            "durationTicks": 96,
            "midi": 45,
            "name": "A2",
            "ticks": 164928,
            "time": 73.628326,
            "velocity": 0.3937007874015748
          },
          {
            "duration": 0.042856999999997925,
            "durationTicks": 96,
            "midi": 33,
            "name": "A1",
            "ticks": 165120,
            "time": 73.71404,
            "velocity": 0.3937007874015748
          },
          {
            "duration": 0.042856999999997925,
            "durationTicks": 96,
            "midi": 45,
            "name": "A2",
            "ticks": 165120,
            "time": 73.71404,
            "velocity": 0.3937007874015748
          },
          {
            "duration": 0.042857000000012135,
            "durationTicks": 96,
            "midi": 33,
            "name": "A1",
            "ticks": 165312,
            "time": 73.799754,
            "velocity": 0.3937007874015748
          },
          {
            "duration": 0.042857000000012135,
            "durationTicks": 96,
            "midi": 45,
            "name": "A2",
            "ticks": 165312,
            "time": 73.799754,
            "velocity": 0.3937007874015748
          },
          {
            "duration": 0.042856999999997925,
            "durationTicks": 96,
            "midi": 33,
            "name": "A1",
            "ticks": 165504,
            "time": 73.885468,
            "velocity": 0.3937007874015748
          },
          {
            "duration": 0.042856999999997925,
            "durationTicks": 96,
            "midi": 45,
            "name": "A2",
            "ticks": 165504,
            "time": 73.885468,
            "velocity": 0.3937007874015748
          },
          {
            "duration": 0.042856999999997925,
            "durationTicks": 96,
            "midi": 33,
            "name": "A1",
            "ticks": 165696,
            "time": 73.971182,
            "velocity": 0.3937007874015748
          },
          {
            "duration": 0.042856999999997925,
            "durationTicks": 96,
            "midi": 45,
            "name": "A2",
            "ticks": 165696,
            "time": 73.971182,
            "velocity": 0.3937007874015748
          },
          {
            "duration": 0.042856999999997925,
            "durationTicks": 96,
            "midi": 45,
            "name": "A2",
            "ticks": 165888,
            "time": 74.056896,
            "velocity": 0.3937007874015748
          },
          {
            "duration": 0.042856999999997925,
            "durationTicks": 96,
            "midi": 33,
            "name": "A1",
            "ticks": 165888,
            "time": 74.056896,
            "velocity": 0.3937007874015748
          },
          {
            "duration": 0.042856999999997925,
            "durationTicks": 96,
            "midi": 33,
            "name": "A1",
            "ticks": 166080,
            "time": 74.14261,
            "velocity": 0.3937007874015748
          },
          {
            "duration": 0.042856999999997925,
            "durationTicks": 96,
            "midi": 45,
            "name": "A2",
            "ticks": 166080,
            "time": 74.14261,
            "velocity": 0.3937007874015748
          },
          {
            "duration": 0.042856999999997925,
            "durationTicks": 96,
            "midi": 33,
            "name": "A1",
            "ticks": 166272,
            "time": 74.228324,
            "velocity": 0.3937007874015748
          },
          {
            "duration": 0.042856999999997925,
            "durationTicks": 96,
            "midi": 45,
            "name": "A2",
            "ticks": 166272,
            "time": 74.228324,
            "velocity": 0.3937007874015748
          },
          {
            "duration": 0.042856999999997925,
            "durationTicks": 96,
            "midi": 45,
            "name": "A2",
            "ticks": 166464,
            "time": 74.314038,
            "velocity": 0.3937007874015748
          },
          {
            "duration": 0.042856999999997925,
            "durationTicks": 96,
            "midi": 33,
            "name": "A1",
            "ticks": 166464,
            "time": 74.314038,
            "velocity": 0.3937007874015748
          },
          {
            "duration": 0.042857000000012135,
            "durationTicks": 96,
            "midi": 45,
            "name": "A2",
            "ticks": 166656,
            "time": 74.39975199999999,
            "velocity": 0.3937007874015748
          },
          {
            "duration": 0.042857000000012135,
            "durationTicks": 96,
            "midi": 33,
            "name": "A1",
            "ticks": 166656,
            "time": 74.39975199999999,
            "velocity": 0.3937007874015748
          },
          {
            "duration": 0.042856999999997925,
            "durationTicks": 96,
            "midi": 33,
            "name": "A1",
            "ticks": 166848,
            "time": 74.485466,
            "velocity": 0.3937007874015748
          },
          {
            "duration": 0.042856999999997925,
            "durationTicks": 96,
            "midi": 45,
            "name": "A2",
            "ticks": 166848,
            "time": 74.485466,
            "velocity": 0.3937007874015748
          },
          {
            "duration": 0.042856999999997925,
            "durationTicks": 96,
            "midi": 45,
            "name": "A2",
            "ticks": 167040,
            "time": 74.57118,
            "velocity": 0.3937007874015748
          },
          {
            "duration": 0.042856999999997925,
            "durationTicks": 96,
            "midi": 33,
            "name": "A1",
            "ticks": 167040,
            "time": 74.57118,
            "velocity": 0.3937007874015748
          },
          {
            "duration": 0.042856999999997925,
            "durationTicks": 96,
            "midi": 33,
            "name": "A1",
            "ticks": 167232,
            "time": 74.656894,
            "velocity": 0.3937007874015748
          },
          {
            "duration": 0.042856999999997925,
            "durationTicks": 96,
            "midi": 45,
            "name": "A2",
            "ticks": 167232,
            "time": 74.656894,
            "velocity": 0.3937007874015748
          },
          {
            "duration": 0.042856999999997925,
            "durationTicks": 96,
            "midi": 33,
            "name": "A1",
            "ticks": 167424,
            "time": 74.742608,
            "velocity": 0.3937007874015748
          },
          {
            "duration": 0.042856999999997925,
            "durationTicks": 96,
            "midi": 45,
            "name": "A2",
            "ticks": 167424,
            "time": 74.742608,
            "velocity": 0.3937007874015748
          },
          {
            "duration": 0.042856999999997925,
            "durationTicks": 96,
            "midi": 48,
            "name": "C3",
            "ticks": 167616,
            "time": 74.828322,
            "velocity": 0.3937007874015748
          },
          {
            "duration": 0.042856999999997925,
            "durationTicks": 96,
            "midi": 36,
            "name": "C2",
            "ticks": 167616,
            "time": 74.828322,
            "velocity": 0.3937007874015748
          },
          {
            "duration": 0.042856999999997925,
            "durationTicks": 96,
            "midi": 36,
            "name": "C2",
            "ticks": 167808,
            "time": 74.914036,
            "velocity": 0.3937007874015748
          },
          {
            "duration": 0.042856999999997925,
            "durationTicks": 96,
            "midi": 48,
            "name": "C3",
            "ticks": 167808,
            "time": 74.914036,
            "velocity": 0.3937007874015748
          },
          {
            "duration": 0.042857000000012135,
            "durationTicks": 96,
            "midi": 36,
            "name": "C2",
            "ticks": 168000,
            "time": 74.99974999999999,
            "velocity": 0.3937007874015748
          },
          {
            "duration": 0.042857000000012135,
            "durationTicks": 96,
            "midi": 48,
            "name": "C3",
            "ticks": 168000,
            "time": 74.99974999999999,
            "velocity": 0.3937007874015748
          },
          {
            "duration": 0.042856999999997925,
            "durationTicks": 96,
            "midi": 48,
            "name": "C3",
            "ticks": 168192,
            "time": 75.085464,
            "velocity": 0.3937007874015748
          },
          {
            "duration": 0.042856999999997925,
            "durationTicks": 96,
            "midi": 36,
            "name": "C2",
            "ticks": 168192,
            "time": 75.085464,
            "velocity": 0.3937007874015748
          },
          {
            "duration": 0.042856999999997925,
            "durationTicks": 96,
            "midi": 36,
            "name": "C2",
            "ticks": 168384,
            "time": 75.171178,
            "velocity": 0.3937007874015748
          },
          {
            "duration": 0.042856999999997925,
            "durationTicks": 96,
            "midi": 48,
            "name": "C3",
            "ticks": 168384,
            "time": 75.171178,
            "velocity": 0.3937007874015748
          },
          {
            "duration": 0.042857000000012135,
            "durationTicks": 96,
            "midi": 48,
            "name": "C3",
            "ticks": 168576,
            "time": 75.256892,
            "velocity": 0.3937007874015748
          },
          {
            "duration": 0.042857000000012135,
            "durationTicks": 96,
            "midi": 36,
            "name": "C2",
            "ticks": 168576,
            "time": 75.256892,
            "velocity": 0.3937007874015748
          },
          {
            "duration": 0.042856999999997925,
            "durationTicks": 96,
            "midi": 36,
            "name": "C2",
            "ticks": 168768,
            "time": 75.342606,
            "velocity": 0.3937007874015748
          },
          {
            "duration": 0.042856999999997925,
            "durationTicks": 96,
            "midi": 48,
            "name": "C3",
            "ticks": 168768,
            "time": 75.342606,
            "velocity": 0.3937007874015748
          },
          {
            "duration": 0.042856999999997925,
            "durationTicks": 96,
            "midi": 48,
            "name": "C3",
            "ticks": 168960,
            "time": 75.42832,
            "velocity": 0.3937007874015748
          },
          {
            "duration": 0.042856999999997925,
            "durationTicks": 96,
            "midi": 36,
            "name": "C2",
            "ticks": 168960,
            "time": 75.42832,
            "velocity": 0.3937007874015748
          },
          {
            "duration": 0.042856999999997925,
            "durationTicks": 96,
            "midi": 48,
            "name": "C3",
            "ticks": 169152,
            "time": 75.514034,
            "velocity": 0.3937007874015748
          },
          {
            "duration": 0.042856999999997925,
            "durationTicks": 96,
            "midi": 36,
            "name": "C2",
            "ticks": 169152,
            "time": 75.514034,
            "velocity": 0.3937007874015748
          },
          {
            "duration": 0.042856999999997925,
            "durationTicks": 96,
            "midi": 36,
            "name": "C2",
            "ticks": 169344,
            "time": 75.599748,
            "velocity": 0.3937007874015748
          },
          {
            "duration": 0.042856999999997925,
            "durationTicks": 96,
            "midi": 48,
            "name": "C3",
            "ticks": 169344,
            "time": 75.599748,
            "velocity": 0.3937007874015748
          },
          {
            "duration": 0.042856999999997925,
            "durationTicks": 96,
            "midi": 36,
            "name": "C2",
            "ticks": 169536,
            "time": 75.685462,
            "velocity": 0.3937007874015748
          },
          {
            "duration": 0.042856999999997925,
            "durationTicks": 96,
            "midi": 48,
            "name": "C3",
            "ticks": 169536,
            "time": 75.685462,
            "velocity": 0.3937007874015748
          },
          {
            "duration": 0.042856999999997925,
            "durationTicks": 96,
            "midi": 48,
            "name": "C3",
            "ticks": 169728,
            "time": 75.771176,
            "velocity": 0.3937007874015748
          },
          {
            "duration": 0.042856999999997925,
            "durationTicks": 96,
            "midi": 36,
            "name": "C2",
            "ticks": 169728,
            "time": 75.771176,
            "velocity": 0.3937007874015748
          },
          {
            "duration": 0.042857000000012135,
            "durationTicks": 96,
            "midi": 36,
            "name": "C2",
            "ticks": 169920,
            "time": 75.85688999999999,
            "velocity": 0.3937007874015748
          },
          {
            "duration": 0.042857000000012135,
            "durationTicks": 96,
            "midi": 48,
            "name": "C3",
            "ticks": 169920,
            "time": 75.85688999999999,
            "velocity": 0.3937007874015748
          },
          {
            "duration": 0.042856999999997925,
            "durationTicks": 96,
            "midi": 36,
            "name": "C2",
            "ticks": 170112,
            "time": 75.942604,
            "velocity": 0.3937007874015748
          },
          {
            "duration": 0.042856999999997925,
            "durationTicks": 96,
            "midi": 48,
            "name": "C3",
            "ticks": 170112,
            "time": 75.942604,
            "velocity": 0.3937007874015748
          },
          {
            "duration": 0.042856999999997925,
            "durationTicks": 96,
            "midi": 36,
            "name": "C2",
            "ticks": 170304,
            "time": 76.028318,
            "velocity": 0.3937007874015748
          },
          {
            "duration": 0.042856999999997925,
            "durationTicks": 96,
            "midi": 48,
            "name": "C3",
            "ticks": 170304,
            "time": 76.028318,
            "velocity": 0.3937007874015748
          },
          {
            "duration": 0.042856999999997925,
            "durationTicks": 96,
            "midi": 48,
            "name": "C3",
            "ticks": 170496,
            "time": 76.114032,
            "velocity": 0.3937007874015748
          },
          {
            "duration": 0.042856999999997925,
            "durationTicks": 96,
            "midi": 36,
            "name": "C2",
            "ticks": 170496,
            "time": 76.114032,
            "velocity": 0.3937007874015748
          },
          {
            "duration": 0.042856999999997925,
            "durationTicks": 96,
            "midi": 53,
            "name": "F3",
            "ticks": 170688,
            "time": 76.199746,
            "velocity": 0.3937007874015748
          },
          {
            "duration": 0.042856999999997925,
            "durationTicks": 96,
            "midi": 41,
            "name": "F2",
            "ticks": 170688,
            "time": 76.199746,
            "velocity": 0.3937007874015748
          },
          {
            "duration": 0.042856999999997925,
            "durationTicks": 96,
            "midi": 41,
            "name": "F2",
            "ticks": 170880,
            "time": 76.28546,
            "velocity": 0.3937007874015748
          },
          {
            "duration": 0.042856999999997925,
            "durationTicks": 96,
            "midi": 53,
            "name": "F3",
            "ticks": 170880,
            "time": 76.28546,
            "velocity": 0.3937007874015748
          },
          {
            "duration": 0.042856999999997925,
            "durationTicks": 96,
            "midi": 41,
            "name": "F2",
            "ticks": 171072,
            "time": 76.371174,
            "velocity": 0.3937007874015748
          },
          {
            "duration": 0.042856999999997925,
            "durationTicks": 96,
            "midi": 53,
            "name": "F3",
            "ticks": 171072,
            "time": 76.371174,
            "velocity": 0.3937007874015748
          },
          {
            "duration": 0.042857000000012135,
            "durationTicks": 96,
            "midi": 53,
            "name": "F3",
            "ticks": 171264,
            "time": 76.45688799999999,
            "velocity": 0.3937007874015748
          },
          {
            "duration": 0.042857000000012135,
            "durationTicks": 96,
            "midi": 41,
            "name": "F2",
            "ticks": 171264,
            "time": 76.45688799999999,
            "velocity": 0.3937007874015748
          },
          {
            "duration": 0.042856999999997925,
            "durationTicks": 96,
            "midi": 53,
            "name": "F3",
            "ticks": 171456,
            "time": 76.542602,
            "velocity": 0.3937007874015748
          },
          {
            "duration": 0.042856999999997925,
            "durationTicks": 96,
            "midi": 41,
            "name": "F2",
            "ticks": 171456,
            "time": 76.542602,
            "velocity": 0.3937007874015748
          },
          {
            "duration": 0.042856999999997925,
            "durationTicks": 96,
            "midi": 53,
            "name": "F3",
            "ticks": 171648,
            "time": 76.628316,
            "velocity": 0.3937007874015748
          },
          {
            "duration": 0.042856999999997925,
            "durationTicks": 96,
            "midi": 41,
            "name": "F2",
            "ticks": 171648,
            "time": 76.628316,
            "velocity": 0.3937007874015748
          },
          {
            "duration": 0.042856999999997925,
            "durationTicks": 96,
            "midi": 53,
            "name": "F3",
            "ticks": 171840,
            "time": 76.71403,
            "velocity": 0.3937007874015748
          },
          {
            "duration": 0.042856999999997925,
            "durationTicks": 96,
            "midi": 41,
            "name": "F2",
            "ticks": 171840,
            "time": 76.71403,
            "velocity": 0.3937007874015748
          },
          {
            "duration": 0.042856999999997925,
            "durationTicks": 96,
            "midi": 53,
            "name": "F3",
            "ticks": 172032,
            "time": 76.799744,
            "velocity": 0.3937007874015748
          },
          {
            "duration": 0.042856999999997925,
            "durationTicks": 96,
            "midi": 41,
            "name": "F2",
            "ticks": 172032,
            "time": 76.799744,
            "velocity": 0.3937007874015748
          },
          {
            "duration": 0.042856999999997925,
            "durationTicks": 96,
            "midi": 53,
            "name": "F3",
            "ticks": 172224,
            "time": 76.885458,
            "velocity": 0.3937007874015748
          },
          {
            "duration": 0.042856999999997925,
            "durationTicks": 96,
            "midi": 41,
            "name": "F2",
            "ticks": 172224,
            "time": 76.885458,
            "velocity": 0.3937007874015748
          },
          {
            "duration": 0.042856999999997925,
            "durationTicks": 96,
            "midi": 53,
            "name": "F3",
            "ticks": 172416,
            "time": 76.971172,
            "velocity": 0.3937007874015748
          },
          {
            "duration": 0.042856999999997925,
            "durationTicks": 96,
            "midi": 41,
            "name": "F2",
            "ticks": 172416,
            "time": 76.971172,
            "velocity": 0.3937007874015748
          },
          {
            "duration": 0.042856999999997925,
            "durationTicks": 96,
            "midi": 41,
            "name": "F2",
            "ticks": 172608,
            "time": 77.056886,
            "velocity": 0.3937007874015748
          },
          {
            "duration": 0.042856999999997925,
            "durationTicks": 96,
            "midi": 53,
            "name": "F3",
            "ticks": 172608,
            "time": 77.056886,
            "velocity": 0.3937007874015748
          },
          {
            "duration": 0.042856999999997925,
            "durationTicks": 96,
            "midi": 41,
            "name": "F2",
            "ticks": 172800,
            "time": 77.1426,
            "velocity": 0.3937007874015748
          },
          {
            "duration": 0.042856999999997925,
            "durationTicks": 96,
            "midi": 53,
            "name": "F3",
            "ticks": 172800,
            "time": 77.1426,
            "velocity": 0.3937007874015748
          },
          {
            "duration": 0.042856999999997925,
            "durationTicks": 96,
            "midi": 41,
            "name": "F2",
            "ticks": 172992,
            "time": 77.228314,
            "velocity": 0.3937007874015748
          },
          {
            "duration": 0.042856999999997925,
            "durationTicks": 96,
            "midi": 53,
            "name": "F3",
            "ticks": 172992,
            "time": 77.228314,
            "velocity": 0.3937007874015748
          },
          {
            "duration": 0.042857000000012135,
            "durationTicks": 96,
            "midi": 41,
            "name": "F2",
            "ticks": 173184,
            "time": 77.314028,
            "velocity": 0.3937007874015748
          },
          {
            "duration": 0.042857000000012135,
            "durationTicks": 96,
            "midi": 53,
            "name": "F3",
            "ticks": 173184,
            "time": 77.314028,
            "velocity": 0.3937007874015748
          },
          {
            "duration": 0.042856999999997925,
            "durationTicks": 96,
            "midi": 41,
            "name": "F2",
            "ticks": 173376,
            "time": 77.399742,
            "velocity": 0.3937007874015748
          },
          {
            "duration": 0.042856999999997925,
            "durationTicks": 96,
            "midi": 53,
            "name": "F3",
            "ticks": 173376,
            "time": 77.399742,
            "velocity": 0.3937007874015748
          },
          {
            "duration": 0.042856999999997925,
            "durationTicks": 96,
            "midi": 41,
            "name": "F2",
            "ticks": 173568,
            "time": 77.485456,
            "velocity": 0.3937007874015748
          },
          {
            "duration": 0.042856999999997925,
            "durationTicks": 96,
            "midi": 53,
            "name": "F3",
            "ticks": 173568,
            "time": 77.485456,
            "velocity": 0.3937007874015748
          },
          {
            "duration": 0.042856999999997925,
            "durationTicks": 96,
            "midi": 40,
            "name": "E2",
            "ticks": 173760,
            "time": 77.57117,
            "velocity": 0.3937007874015748
          },
          {
            "duration": 0.042856999999997925,
            "durationTicks": 96,
            "midi": 52,
            "name": "E3",
            "ticks": 173760,
            "time": 77.57117,
            "velocity": 0.3937007874015748
          },
          {
            "duration": 0.042856999999997925,
            "durationTicks": 96,
            "midi": 52,
            "name": "E3",
            "ticks": 173952,
            "time": 77.656884,
            "velocity": 0.3937007874015748
          },
          {
            "duration": 0.042856999999997925,
            "durationTicks": 96,
            "midi": 40,
            "name": "E2",
            "ticks": 173952,
            "time": 77.656884,
            "velocity": 0.3937007874015748
          },
          {
            "duration": 0.042856999999997925,
            "durationTicks": 96,
            "midi": 40,
            "name": "E2",
            "ticks": 174144,
            "time": 77.742598,
            "velocity": 0.3937007874015748
          },
          {
            "duration": 0.042856999999997925,
            "durationTicks": 96,
            "midi": 52,
            "name": "E3",
            "ticks": 174144,
            "time": 77.742598,
            "velocity": 0.3937007874015748
          },
          {
            "duration": 0.042856999999997925,
            "durationTicks": 96,
            "midi": 52,
            "name": "E3",
            "ticks": 174336,
            "time": 77.828312,
            "velocity": 0.3937007874015748
          },
          {
            "duration": 0.042856999999997925,
            "durationTicks": 96,
            "midi": 40,
            "name": "E2",
            "ticks": 174336,
            "time": 77.828312,
            "velocity": 0.3937007874015748
          },
          {
            "duration": 0.042857000000012135,
            "durationTicks": 96,
            "midi": 52,
            "name": "E3",
            "ticks": 174528,
            "time": 77.91402599999999,
            "velocity": 0.3937007874015748
          },
          {
            "duration": 0.042857000000012135,
            "durationTicks": 96,
            "midi": 40,
            "name": "E2",
            "ticks": 174528,
            "time": 77.91402599999999,
            "velocity": 0.3937007874015748
          },
          {
            "duration": 0.042856999999997925,
            "durationTicks": 96,
            "midi": 52,
            "name": "E3",
            "ticks": 174720,
            "time": 77.99974,
            "velocity": 0.3937007874015748
          },
          {
            "duration": 0.042856999999997925,
            "durationTicks": 96,
            "midi": 40,
            "name": "E2",
            "ticks": 174720,
            "time": 77.99974,
            "velocity": 0.3937007874015748
          },
          {
            "duration": 0.042856999999997925,
            "durationTicks": 96,
            "midi": 40,
            "name": "E2",
            "ticks": 174912,
            "time": 78.085454,
            "velocity": 0.3937007874015748
          },
          {
            "duration": 0.042856999999997925,
            "durationTicks": 96,
            "midi": 52,
            "name": "E3",
            "ticks": 174912,
            "time": 78.085454,
            "velocity": 0.3937007874015748
          },
          {
            "duration": 0.042856999999997925,
            "durationTicks": 96,
            "midi": 52,
            "name": "E3",
            "ticks": 175104,
            "time": 78.171168,
            "velocity": 0.3937007874015748
          },
          {
            "duration": 0.042856999999997925,
            "durationTicks": 96,
            "midi": 40,
            "name": "E2",
            "ticks": 175104,
            "time": 78.171168,
            "velocity": 0.3937007874015748
          },
          {
            "duration": 0.042856999999997925,
            "durationTicks": 96,
            "midi": 52,
            "name": "E3",
            "ticks": 175296,
            "time": 78.256882,
            "velocity": 0.3937007874015748
          },
          {
            "duration": 0.042856999999997925,
            "durationTicks": 96,
            "midi": 40,
            "name": "E2",
            "ticks": 175296,
            "time": 78.256882,
            "velocity": 0.3937007874015748
          },
          {
            "duration": 0.042856999999997925,
            "durationTicks": 96,
            "midi": 52,
            "name": "E3",
            "ticks": 175488,
            "time": 78.342596,
            "velocity": 0.3937007874015748
          },
          {
            "duration": 0.042856999999997925,
            "durationTicks": 96,
            "midi": 40,
            "name": "E2",
            "ticks": 175488,
            "time": 78.342596,
            "velocity": 0.3937007874015748
          },
          {
            "duration": 0.042856999999997925,
            "durationTicks": 96,
            "midi": 40,
            "name": "E2",
            "ticks": 175680,
            "time": 78.42831,
            "velocity": 0.3937007874015748
          },
          {
            "duration": 0.042856999999997925,
            "durationTicks": 96,
            "midi": 52,
            "name": "E3",
            "ticks": 175680,
            "time": 78.42831,
            "velocity": 0.3937007874015748
          },
          {
            "duration": 0.042857000000012135,
            "durationTicks": 96,
            "midi": 40,
            "name": "E2",
            "ticks": 175872,
            "time": 78.51402399999999,
            "velocity": 0.3937007874015748
          },
          {
            "duration": 0.042857000000012135,
            "durationTicks": 96,
            "midi": 52,
            "name": "E3",
            "ticks": 175872,
            "time": 78.51402399999999,
            "velocity": 0.3937007874015748
          },
          {
            "duration": 0.042856999999997925,
            "durationTicks": 96,
            "midi": 40,
            "name": "E2",
            "ticks": 176064,
            "time": 78.599738,
            "velocity": 0.3937007874015748
          },
          {
            "duration": 0.042856999999997925,
            "durationTicks": 96,
            "midi": 52,
            "name": "E3",
            "ticks": 176064,
            "time": 78.599738,
            "velocity": 0.3937007874015748
          },
          {
            "duration": 0.042856999999997925,
            "durationTicks": 96,
            "midi": 52,
            "name": "E3",
            "ticks": 176256,
            "time": 78.685452,
            "velocity": 0.3937007874015748
          },
          {
            "duration": 0.042856999999997925,
            "durationTicks": 96,
            "midi": 40,
            "name": "E2",
            "ticks": 176256,
            "time": 78.685452,
            "velocity": 0.3937007874015748
          },
          {
            "duration": 0.042856999999997925,
            "durationTicks": 96,
            "midi": 40,
            "name": "E2",
            "ticks": 176448,
            "time": 78.771166,
            "velocity": 0.3937007874015748
          },
          {
            "duration": 0.042856999999997925,
            "durationTicks": 96,
            "midi": 52,
            "name": "E3",
            "ticks": 176448,
            "time": 78.771166,
            "velocity": 0.3937007874015748
          },
          {
            "duration": 0.042856999999997925,
            "durationTicks": 96,
            "midi": 40,
            "name": "E2",
            "ticks": 176640,
            "time": 78.85688,
            "velocity": 0.3937007874015748
          },
          {
            "duration": 0.042856999999997925,
            "durationTicks": 96,
            "midi": 52,
            "name": "E3",
            "ticks": 176640,
            "time": 78.85688,
            "velocity": 0.3937007874015748
          },
          {
            "duration": 0.042856999999997925,
            "durationTicks": 96,
            "midi": 50,
            "name": "D3",
            "ticks": 176832,
            "time": 78.942594,
            "velocity": 0.3937007874015748
          },
          {
            "duration": 0.042856999999997925,
            "durationTicks": 96,
            "midi": 50,
            "name": "D3",
            "ticks": 177024,
            "time": 79.028308,
            "velocity": 0.3937007874015748
          },
          {
            "duration": 0.042856999999997925,
            "durationTicks": 96,
            "midi": 50,
            "name": "D3",
            "ticks": 177216,
            "time": 79.114022,
            "velocity": 0.3937007874015748
          },
          {
            "duration": 0.042856999999997925,
            "durationTicks": 96,
            "midi": 50,
            "name": "D3",
            "ticks": 177408,
            "time": 79.199736,
            "velocity": 0.3937007874015748
          },
          {
            "duration": 0.042856999999997925,
            "durationTicks": 96,
            "midi": 50,
            "name": "D3",
            "ticks": 177600,
            "time": 79.28545,
            "velocity": 0.3937007874015748
          },
          {
            "duration": 0.042857000000012135,
            "durationTicks": 96,
            "midi": 50,
            "name": "D3",
            "ticks": 177792,
            "time": 79.371164,
            "velocity": 0.3937007874015748
          },
          {
            "duration": 0.042856999999997925,
            "durationTicks": 96,
            "midi": 50,
            "name": "D3",
            "ticks": 177984,
            "time": 79.456878,
            "velocity": 0.3937007874015748
          },
          {
            "duration": 0.042856999999997925,
            "durationTicks": 96,
            "midi": 50,
            "name": "D3",
            "ticks": 178176,
            "time": 79.542592,
            "velocity": 0.3937007874015748
          },
          {
            "duration": 0.042856999999997925,
            "durationTicks": 96,
            "midi": 50,
            "name": "D3",
            "ticks": 178368,
            "time": 79.628306,
            "velocity": 0.3937007874015748
          },
          {
            "duration": 0.042856999999997925,
            "durationTicks": 96,
            "midi": 50,
            "name": "D3",
            "ticks": 178560,
            "time": 79.71402,
            "velocity": 0.3937007874015748
          },
          {
            "duration": 0.042856999999997925,
            "durationTicks": 96,
            "midi": 50,
            "name": "D3",
            "ticks": 178752,
            "time": 79.799734,
            "velocity": 0.3937007874015748
          },
          {
            "duration": 0.042856999999997925,
            "durationTicks": 96,
            "midi": 50,
            "name": "D3",
            "ticks": 178944,
            "time": 79.885448,
            "velocity": 0.3937007874015748
          },
          {
            "duration": 0.042857000000012135,
            "durationTicks": 96,
            "midi": 50,
            "name": "D3",
            "ticks": 179136,
            "time": 79.97116199999999,
            "velocity": 0.3937007874015748
          },
          {
            "duration": 0.042856999999997925,
            "durationTicks": 96,
            "midi": 50,
            "name": "D3",
            "ticks": 179328,
            "time": 80.056876,
            "velocity": 0.3937007874015748
          },
          {
            "duration": 0.042856999999997925,
            "durationTicks": 96,
            "midi": 50,
            "name": "D3",
            "ticks": 179520,
            "time": 80.14259,
            "velocity": 0.3937007874015748
          },
          {
            "duration": 0.042856999999997925,
            "durationTicks": 96,
            "midi": 50,
            "name": "D3",
            "ticks": 179712,
            "time": 80.228304,
            "velocity": 0.3937007874015748
          },
          {
            "duration": 0.042856999999997925,
            "durationTicks": 96,
            "midi": 50,
            "name": "D3",
            "ticks": 179904,
            "time": 80.314018,
            "velocity": 0.3937007874015748
          },
          {
            "duration": 0.042856999999997925,
            "durationTicks": 96,
            "midi": 50,
            "name": "D3",
            "ticks": 180096,
            "time": 80.399732,
            "velocity": 0.3937007874015748
          },
          {
            "duration": 0.042856999999997925,
            "durationTicks": 96,
            "midi": 50,
            "name": "D3",
            "ticks": 180288,
            "time": 80.485446,
            "velocity": 0.3937007874015748
          },
          {
            "duration": 0.042857000000012135,
            "durationTicks": 96,
            "midi": 50,
            "name": "D3",
            "ticks": 180480,
            "time": 80.57115999999999,
            "velocity": 0.3937007874015748
          },
          {
            "duration": 0.042856999999997925,
            "durationTicks": 96,
            "midi": 50,
            "name": "D3",
            "ticks": 180672,
            "time": 80.656874,
            "velocity": 0.3937007874015748
          },
          {
            "duration": 0.042856999999997925,
            "durationTicks": 96,
            "midi": 50,
            "name": "D3",
            "ticks": 180864,
            "time": 80.742588,
            "velocity": 0.3937007874015748
          },
          {
            "duration": 0.042856999999997925,
            "durationTicks": 96,
            "midi": 50,
            "name": "D3",
            "ticks": 181056,
            "time": 80.828302,
            "velocity": 0.3937007874015748
          },
          {
            "duration": 0.042856999999997925,
            "durationTicks": 96,
            "midi": 50,
            "name": "D3",
            "ticks": 181248,
            "time": 80.914016,
            "velocity": 0.3937007874015748
          },
          {
            "duration": 0.042856999999997925,
            "durationTicks": 96,
            "midi": 50,
            "name": "D3",
            "ticks": 181440,
            "time": 80.99973,
            "velocity": 0.3937007874015748
          },
          {
            "duration": 0.042856999999997925,
            "durationTicks": 96,
            "midi": 50,
            "name": "D3",
            "ticks": 181632,
            "time": 81.085444,
            "velocity": 0.3937007874015748
          },
          {
            "duration": 0.042856999999997925,
            "durationTicks": 96,
            "midi": 50,
            "name": "D3",
            "ticks": 181824,
            "time": 81.171158,
            "velocity": 0.3937007874015748
          },
          {
            "duration": 0.042856999999997925,
            "durationTicks": 96,
            "midi": 50,
            "name": "D3",
            "ticks": 182016,
            "time": 81.256872,
            "velocity": 0.3937007874015748
          },
          {
            "duration": 0.042856999999997925,
            "durationTicks": 96,
            "midi": 50,
            "name": "D3",
            "ticks": 182208,
            "time": 81.342586,
            "velocity": 0.3937007874015748
          },
          {
            "duration": 0.042857000000012135,
            "durationTicks": 96,
            "midi": 50,
            "name": "D3",
            "ticks": 182400,
            "time": 81.4283,
            "velocity": 0.3937007874015748
          },
          {
            "duration": 0.042856999999997925,
            "durationTicks": 96,
            "midi": 50,
            "name": "D3",
            "ticks": 182592,
            "time": 81.514014,
            "velocity": 0.3937007874015748
          },
          {
            "duration": 0.042856999999997925,
            "durationTicks": 96,
            "midi": 50,
            "name": "D3",
            "ticks": 182784,
            "time": 81.599728,
            "velocity": 0.3937007874015748
          },
          {
            "duration": 0.042856999999997925,
            "durationTicks": 96,
            "midi": 48,
            "name": "C3",
            "ticks": 182976,
            "time": 81.685442,
            "velocity": 0.3937007874015748
          },
          {
            "duration": 0.042856999999997925,
            "durationTicks": 96,
            "midi": 48,
            "name": "C3",
            "ticks": 183168,
            "time": 81.771156,
            "velocity": 0.3937007874015748
          },
          {
            "duration": 0.042856999999997925,
            "durationTicks": 96,
            "midi": 48,
            "name": "C3",
            "ticks": 183360,
            "time": 81.85687,
            "velocity": 0.3937007874015748
          },
          {
            "duration": 0.042856999999997925,
            "durationTicks": 96,
            "midi": 48,
            "name": "C3",
            "ticks": 183552,
            "time": 81.942584,
            "velocity": 0.3937007874015748
          },
          {
            "duration": 0.042857000000012135,
            "durationTicks": 96,
            "midi": 48,
            "name": "C3",
            "ticks": 183744,
            "time": 82.02829799999999,
            "velocity": 0.3937007874015748
          },
          {
            "duration": 0.042856999999997925,
            "durationTicks": 96,
            "midi": 48,
            "name": "C3",
            "ticks": 183936,
            "time": 82.114012,
            "velocity": 0.3937007874015748
          },
          {
            "duration": 0.042856999999997925,
            "durationTicks": 96,
            "midi": 48,
            "name": "C3",
            "ticks": 184128,
            "time": 82.199726,
            "velocity": 0.3937007874015748
          },
          {
            "duration": 0.042856999999997925,
            "durationTicks": 96,
            "midi": 48,
            "name": "C3",
            "ticks": 184320,
            "time": 82.28544,
            "velocity": 0.3937007874015748
          },
          {
            "duration": 0.042856999999997925,
            "durationTicks": 96,
            "midi": 48,
            "name": "C3",
            "ticks": 184512,
            "time": 82.371154,
            "velocity": 0.3937007874015748
          },
          {
            "duration": 0.042856999999997925,
            "durationTicks": 96,
            "midi": 48,
            "name": "C3",
            "ticks": 184704,
            "time": 82.456868,
            "velocity": 0.3937007874015748
          },
          {
            "duration": 0.042856999999997925,
            "durationTicks": 96,
            "midi": 48,
            "name": "C3",
            "ticks": 184896,
            "time": 82.542582,
            "velocity": 0.3937007874015748
          },
          {
            "duration": 0.042857000000012135,
            "durationTicks": 96,
            "midi": 48,
            "name": "C3",
            "ticks": 185088,
            "time": 82.62829599999999,
            "velocity": 0.3937007874015748
          },
          {
            "duration": 0.042856999999997925,
            "durationTicks": 96,
            "midi": 48,
            "name": "C3",
            "ticks": 185280,
            "time": 82.71401,
            "velocity": 0.3937007874015748
          },
          {
            "duration": 0.042856999999997925,
            "durationTicks": 96,
            "midi": 48,
            "name": "C3",
            "ticks": 185472,
            "time": 82.799724,
            "velocity": 0.3937007874015748
          },
          {
            "duration": 0.042857000000012135,
            "durationTicks": 96,
            "midi": 48,
            "name": "C3",
            "ticks": 185664,
            "time": 82.885438,
            "velocity": 0.3937007874015748
          },
          {
            "duration": 0.042856999999997925,
            "durationTicks": 96,
            "midi": 48,
            "name": "C3",
            "ticks": 185856,
            "time": 82.971152,
            "velocity": 0.3937007874015748
          },
          {
            "duration": 0.042856999999997925,
            "durationTicks": 96,
            "midi": 48,
            "name": "C3",
            "ticks": 186048,
            "time": 83.056866,
            "velocity": 0.3937007874015748
          },
          {
            "duration": 0.042856999999997925,
            "durationTicks": 96,
            "midi": 48,
            "name": "C3",
            "ticks": 186240,
            "time": 83.14258,
            "velocity": 0.3937007874015748
          },
          {
            "duration": 0.042856999999997925,
            "durationTicks": 96,
            "midi": 48,
            "name": "C3",
            "ticks": 186432,
            "time": 83.228294,
            "velocity": 0.3937007874015748
          },
          {
            "duration": 0.042856999999997925,
            "durationTicks": 96,
            "midi": 48,
            "name": "C3",
            "ticks": 186624,
            "time": 83.314008,
            "velocity": 0.3937007874015748
          },
          {
            "duration": 0.042856999999997925,
            "durationTicks": 96,
            "midi": 48,
            "name": "C3",
            "ticks": 186816,
            "time": 83.399722,
            "velocity": 0.3937007874015748
          },
          {
            "duration": 0.042857000000012135,
            "durationTicks": 96,
            "midi": 48,
            "name": "C3",
            "ticks": 187008,
            "time": 83.48543599999999,
            "velocity": 0.3937007874015748
          },
          {
            "duration": 0.042856999999997925,
            "durationTicks": 96,
            "midi": 48,
            "name": "C3",
            "ticks": 187200,
            "time": 83.57115,
            "velocity": 0.3937007874015748
          },
          {
            "duration": 0.042856999999997925,
            "durationTicks": 96,
            "midi": 48,
            "name": "C3",
            "ticks": 187392,
            "time": 83.656864,
            "velocity": 0.3937007874015748
          },
          {
            "duration": 0.042856999999997925,
            "durationTicks": 96,
            "midi": 48,
            "name": "C3",
            "ticks": 187584,
            "time": 83.742578,
            "velocity": 0.3937007874015748
          },
          {
            "duration": 0.042856999999997925,
            "durationTicks": 96,
            "midi": 48,
            "name": "C3",
            "ticks": 187776,
            "time": 83.828292,
            "velocity": 0.3937007874015748
          },
          {
            "duration": 0.042856999999997925,
            "durationTicks": 96,
            "midi": 48,
            "name": "C3",
            "ticks": 187968,
            "time": 83.914006,
            "velocity": 0.3937007874015748
          },
          {
            "duration": 0.042856999999997925,
            "durationTicks": 96,
            "midi": 48,
            "name": "C3",
            "ticks": 188160,
            "time": 83.99972,
            "velocity": 0.3937007874015748
          },
          {
            "duration": 0.042857000000012135,
            "durationTicks": 96,
            "midi": 48,
            "name": "C3",
            "ticks": 188352,
            "time": 84.08543399999999,
            "velocity": 0.3937007874015748
          },
          {
            "duration": 0.042856999999997925,
            "durationTicks": 96,
            "midi": 48,
            "name": "C3",
            "ticks": 188544,
            "time": 84.171148,
            "velocity": 0.3937007874015748
          },
          {
            "duration": 0.042856999999997925,
            "durationTicks": 96,
            "midi": 48,
            "name": "C3",
            "ticks": 188736,
            "time": 84.256862,
            "velocity": 0.3937007874015748
          },
          {
            "duration": 0.042856999999997925,
            "durationTicks": 96,
            "midi": 48,
            "name": "C3",
            "ticks": 188928,
            "time": 84.342576,
            "velocity": 0.3937007874015748
          },
          {
            "duration": 0.042856999999997925,
            "durationTicks": 96,
            "midi": 50,
            "name": "D3",
            "ticks": 189120,
            "time": 84.42829,
            "velocity": 0.3937007874015748
          },
          {
            "duration": 0.042856999999997925,
            "durationTicks": 96,
            "midi": 50,
            "name": "D3",
            "ticks": 189312,
            "time": 84.514004,
            "velocity": 0.3937007874015748
          },
          {
            "duration": 0.042856999999997925,
            "durationTicks": 96,
            "midi": 50,
            "name": "D3",
            "ticks": 189504,
            "time": 84.599718,
            "velocity": 0.3937007874015748
          },
          {
            "duration": 0.042857000000012135,
            "durationTicks": 96,
            "midi": 50,
            "name": "D3",
            "ticks": 189696,
            "time": 84.68543199999999,
            "velocity": 0.3937007874015748
          },
          {
            "duration": 0.042856999999997925,
            "durationTicks": 96,
            "midi": 50,
            "name": "D3",
            "ticks": 189888,
            "time": 84.771146,
            "velocity": 0.3937007874015748
          },
          {
            "duration": 0.042856999999997925,
            "durationTicks": 96,
            "midi": 50,
            "name": "D3",
            "ticks": 190080,
            "time": 84.85686,
            "velocity": 0.3937007874015748
          },
          {
            "duration": 0.042857000000012135,
            "durationTicks": 96,
            "midi": 50,
            "name": "D3",
            "ticks": 190272,
            "time": 84.942574,
            "velocity": 0.3937007874015748
          },
          {
            "duration": 0.042856999999997925,
            "durationTicks": 96,
            "midi": 50,
            "name": "D3",
            "ticks": 190464,
            "time": 85.028288,
            "velocity": 0.3937007874015748
          },
          {
            "duration": 0.042856999999997925,
            "durationTicks": 96,
            "midi": 50,
            "name": "D3",
            "ticks": 190656,
            "time": 85.114002,
            "velocity": 0.3937007874015748
          },
          {
            "duration": 0.042856999999997925,
            "durationTicks": 96,
            "midi": 50,
            "name": "D3",
            "ticks": 190848,
            "time": 85.199716,
            "velocity": 0.3937007874015748
          },
          {
            "duration": 0.042856999999997925,
            "durationTicks": 96,
            "midi": 50,
            "name": "D3",
            "ticks": 191040,
            "time": 85.28543,
            "velocity": 0.3937007874015748
          },
          {
            "duration": 0.042856999999997925,
            "durationTicks": 96,
            "midi": 50,
            "name": "D3",
            "ticks": 191232,
            "time": 85.371144,
            "velocity": 0.3937007874015748
          },
          {
            "duration": 0.042856999999997925,
            "durationTicks": 96,
            "midi": 50,
            "name": "D3",
            "ticks": 191424,
            "time": 85.456858,
            "velocity": 0.3937007874015748
          },
          {
            "duration": 0.042857000000012135,
            "durationTicks": 96,
            "midi": 50,
            "name": "D3",
            "ticks": 191616,
            "time": 85.54257199999999,
            "velocity": 0.3937007874015748
          },
          {
            "duration": 0.042856999999997925,
            "durationTicks": 96,
            "midi": 50,
            "name": "D3",
            "ticks": 191808,
            "time": 85.628286,
            "velocity": 0.3937007874015748
          },
          {
            "duration": 0.042856999999997925,
            "durationTicks": 96,
            "midi": 50,
            "name": "D3",
            "ticks": 192000,
            "time": 85.714,
            "velocity": 0.3937007874015748
          },
          {
            "duration": 0.042856999999997925,
            "durationTicks": 96,
            "midi": 50,
            "name": "D3",
            "ticks": 192192,
            "time": 85.799714,
            "velocity": 0.3937007874015748
          },
          {
            "duration": 0.042856999999997925,
            "durationTicks": 96,
            "midi": 50,
            "name": "D3",
            "ticks": 192384,
            "time": 85.885428,
            "velocity": 0.3937007874015748
          },
          {
            "duration": 0.042856999999997925,
            "durationTicks": 96,
            "midi": 50,
            "name": "D3",
            "ticks": 192576,
            "time": 85.971142,
            "velocity": 0.3937007874015748
          },
          {
            "duration": 0.042856999999997925,
            "durationTicks": 96,
            "midi": 50,
            "name": "D3",
            "ticks": 192768,
            "time": 86.056856,
            "velocity": 0.3937007874015748
          },
          {
            "duration": 0.042857000000012135,
            "durationTicks": 96,
            "midi": 50,
            "name": "D3",
            "ticks": 192960,
            "time": 86.14256999999999,
            "velocity": 0.3937007874015748
          },
          {
            "duration": 0.042856999999997925,
            "durationTicks": 96,
            "midi": 50,
            "name": "D3",
            "ticks": 193152,
            "time": 86.228284,
            "velocity": 0.3937007874015748
          },
          {
            "duration": 0.042856999999997925,
            "durationTicks": 96,
            "midi": 50,
            "name": "D3",
            "ticks": 193344,
            "time": 86.313998,
            "velocity": 0.3937007874015748
          },
          {
            "duration": 0.042856999999997925,
            "durationTicks": 96,
            "midi": 50,
            "name": "D3",
            "ticks": 193536,
            "time": 86.399712,
            "velocity": 0.3937007874015748
          },
          {
            "duration": 0.042856999999997925,
            "durationTicks": 96,
            "midi": 50,
            "name": "D3",
            "ticks": 193728,
            "time": 86.485426,
            "velocity": 0.3937007874015748
          },
          {
            "duration": 0.042856999999997925,
            "durationTicks": 96,
            "midi": 50,
            "name": "D3",
            "ticks": 193920,
            "time": 86.57114,
            "velocity": 0.3937007874015748
          },
          {
            "duration": 0.042856999999997925,
            "durationTicks": 96,
            "midi": 50,
            "name": "D3",
            "ticks": 194112,
            "time": 86.656854,
            "velocity": 0.3937007874015748
          },
          {
            "duration": 0.042857000000012135,
            "durationTicks": 96,
            "midi": 50,
            "name": "D3",
            "ticks": 194304,
            "time": 86.74256799999999,
            "velocity": 0.3937007874015748
          },
          {
            "duration": 0.042856999999997925,
            "durationTicks": 96,
            "midi": 50,
            "name": "D3",
            "ticks": 194496,
            "time": 86.828282,
            "velocity": 0.3937007874015748
          },
          {
            "duration": 0.042856999999997925,
            "durationTicks": 96,
            "midi": 50,
            "name": "D3",
            "ticks": 194688,
            "time": 86.913996,
            "velocity": 0.3937007874015748
          },
          {
            "duration": 0.042857000000012135,
            "durationTicks": 96,
            "midi": 50,
            "name": "D3",
            "ticks": 194880,
            "time": 86.99971,
            "velocity": 0.3937007874015748
          },
          {
            "duration": 0.042856999999997925,
            "durationTicks": 96,
            "midi": 50,
            "name": "D3",
            "ticks": 195072,
            "time": 87.085424,
            "velocity": 0.3937007874015748
          },
          {
            "duration": 0.042856999999997925,
            "durationTicks": 96,
            "midi": 48,
            "name": "C3",
            "ticks": 195264,
            "time": 87.171138,
            "velocity": 0.3937007874015748
          },
          {
            "duration": 0.042856999999997925,
            "durationTicks": 96,
            "midi": 48,
            "name": "C3",
            "ticks": 195456,
            "time": 87.256852,
            "velocity": 0.3937007874015748
          },
          {
            "duration": 0.042856999999997925,
            "durationTicks": 96,
            "midi": 48,
            "name": "C3",
            "ticks": 195648,
            "time": 87.342566,
            "velocity": 0.3937007874015748
          },
          {
            "duration": 0.042856999999997925,
            "durationTicks": 96,
            "midi": 48,
            "name": "C3",
            "ticks": 195840,
            "time": 87.42828,
            "velocity": 0.3937007874015748
          },
          {
            "duration": 0.042856999999997925,
            "durationTicks": 96,
            "midi": 48,
            "name": "C3",
            "ticks": 196032,
            "time": 87.513994,
            "velocity": 0.3937007874015748
          },
          {
            "duration": 0.042857000000012135,
            "durationTicks": 96,
            "midi": 48,
            "name": "C3",
            "ticks": 196224,
            "time": 87.59970799999999,
            "velocity": 0.3937007874015748
          },
          {
            "duration": 0.042856999999997925,
            "durationTicks": 96,
            "midi": 48,
            "name": "C3",
            "ticks": 196416,
            "time": 87.685422,
            "velocity": 0.3937007874015748
          },
          {
            "duration": 0.042856999999997925,
            "durationTicks": 96,
            "midi": 48,
            "name": "C3",
            "ticks": 196608,
            "time": 87.771136,
            "velocity": 0.3937007874015748
          },
          {
            "duration": 0.042856999999997925,
            "durationTicks": 96,
            "midi": 48,
            "name": "C3",
            "ticks": 196800,
            "time": 87.85685,
            "velocity": 0.3937007874015748
          },
          {
            "duration": 0.042856999999997925,
            "durationTicks": 96,
            "midi": 48,
            "name": "C3",
            "ticks": 196992,
            "time": 87.942564,
            "velocity": 0.3937007874015748
          },
          {
            "duration": 0.042856999999997925,
            "durationTicks": 96,
            "midi": 48,
            "name": "C3",
            "ticks": 197184,
            "time": 88.028278,
            "velocity": 0.3937007874015748
          },
          {
            "duration": 0.042856999999997925,
            "durationTicks": 96,
            "midi": 48,
            "name": "C3",
            "ticks": 197376,
            "time": 88.113992,
            "velocity": 0.3937007874015748
          },
          {
            "duration": 0.042857000000012135,
            "durationTicks": 96,
            "midi": 48,
            "name": "C3",
            "ticks": 197568,
            "time": 88.19970599999999,
            "velocity": 0.3937007874015748
          },
          {
            "duration": 0.042856999999997925,
            "durationTicks": 96,
            "midi": 48,
            "name": "C3",
            "ticks": 197760,
            "time": 88.28542,
            "velocity": 0.3937007874015748
          },
          {
            "duration": 0.042856999999997925,
            "durationTicks": 96,
            "midi": 48,
            "name": "C3",
            "ticks": 197952,
            "time": 88.371134,
            "velocity": 0.3937007874015748
          },
          {
            "duration": 0.042856999999997925,
            "durationTicks": 96,
            "midi": 48,
            "name": "C3",
            "ticks": 198144,
            "time": 88.456848,
            "velocity": 0.3937007874015748
          },
          {
            "duration": 0.042856999999997925,
            "durationTicks": 96,
            "midi": 48,
            "name": "C3",
            "ticks": 198336,
            "time": 88.542562,
            "velocity": 0.3937007874015748
          },
          {
            "duration": 0.042856999999997925,
            "durationTicks": 96,
            "midi": 48,
            "name": "C3",
            "ticks": 198528,
            "time": 88.628276,
            "velocity": 0.3937007874015748
          },
          {
            "duration": 0.042856999999997925,
            "durationTicks": 96,
            "midi": 48,
            "name": "C3",
            "ticks": 198720,
            "time": 88.71399,
            "velocity": 0.3937007874015748
          },
          {
            "duration": 0.042856999999997925,
            "durationTicks": 96,
            "midi": 48,
            "name": "C3",
            "ticks": 198912,
            "time": 88.799704,
            "velocity": 0.3937007874015748
          },
          {
            "duration": 0.042856999999997925,
            "durationTicks": 96,
            "midi": 48,
            "name": "C3",
            "ticks": 199104,
            "time": 88.885418,
            "velocity": 0.3937007874015748
          },
          {
            "duration": 0.042856999999997925,
            "durationTicks": 96,
            "midi": 48,
            "name": "C3",
            "ticks": 199296,
            "time": 88.971132,
            "velocity": 0.3937007874015748
          },
          {
            "duration": 0.042857000000012135,
            "durationTicks": 96,
            "midi": 48,
            "name": "C3",
            "ticks": 199488,
            "time": 89.056846,
            "velocity": 0.3937007874015748
          },
          {
            "duration": 0.042856999999997925,
            "durationTicks": 96,
            "midi": 48,
            "name": "C3",
            "ticks": 199680,
            "time": 89.14256,
            "velocity": 0.3937007874015748
          },
          {
            "duration": 0.042856999999997925,
            "durationTicks": 96,
            "midi": 48,
            "name": "C3",
            "ticks": 199872,
            "time": 89.228274,
            "velocity": 0.3937007874015748
          },
          {
            "duration": 0.042856999999997925,
            "durationTicks": 96,
            "midi": 48,
            "name": "C3",
            "ticks": 200064,
            "time": 89.313988,
            "velocity": 0.3937007874015748
          },
          {
            "duration": 0.042856999999997925,
            "durationTicks": 96,
            "midi": 48,
            "name": "C3",
            "ticks": 200256,
            "time": 89.399702,
            "velocity": 0.3937007874015748
          },
          {
            "duration": 0.042856999999997925,
            "durationTicks": 96,
            "midi": 48,
            "name": "C3",
            "ticks": 200448,
            "time": 89.485416,
            "velocity": 0.3937007874015748
          },
          {
            "duration": 0.042856999999997925,
            "durationTicks": 96,
            "midi": 48,
            "name": "C3",
            "ticks": 200640,
            "time": 89.57113,
            "velocity": 0.3937007874015748
          },
          {
            "duration": 0.042857000000012135,
            "durationTicks": 96,
            "midi": 48,
            "name": "C3",
            "ticks": 200832,
            "time": 89.65684399999999,
            "velocity": 0.3937007874015748
          },
          {
            "duration": 0.042856999999997925,
            "durationTicks": 96,
            "midi": 48,
            "name": "C3",
            "ticks": 201024,
            "time": 89.742558,
            "velocity": 0.3937007874015748
          },
          {
            "duration": 0.042856999999997925,
            "durationTicks": 96,
            "midi": 48,
            "name": "C3",
            "ticks": 201216,
            "time": 89.828272,
            "velocity": 0.3937007874015748
          },
          {
            "duration": 0.042856999999997925,
            "durationTicks": 96,
            "midi": 50,
            "name": "D3",
            "ticks": 201408,
            "time": 89.913986,
            "velocity": 0.3937007874015748
          },
          {
            "duration": 0.042856999999997925,
            "durationTicks": 96,
            "midi": 50,
            "name": "D3",
            "ticks": 201600,
            "time": 89.9997,
            "velocity": 0.3937007874015748
          },
          {
            "duration": 0.042856999999997925,
            "durationTicks": 96,
            "midi": 50,
            "name": "D3",
            "ticks": 201792,
            "time": 90.085414,
            "velocity": 0.3937007874015748
          },
          {
            "duration": 0.042856999999997925,
            "durationTicks": 96,
            "midi": 50,
            "name": "D3",
            "ticks": 201984,
            "time": 90.171128,
            "velocity": 0.3937007874015748
          },
          {
            "duration": 0.042857000000012135,
            "durationTicks": 96,
            "midi": 50,
            "name": "D3",
            "ticks": 202176,
            "time": 90.25684199999999,
            "velocity": 0.3937007874015748
          },
          {
            "duration": 0.042856999999997925,
            "durationTicks": 96,
            "midi": 50,
            "name": "D3",
            "ticks": 202368,
            "time": 90.342556,
            "velocity": 0.3937007874015748
          },
          {
            "duration": 0.042856999999997925,
            "durationTicks": 96,
            "midi": 50,
            "name": "D3",
            "ticks": 202560,
            "time": 90.42827,
            "velocity": 0.3937007874015748
          },
          {
            "duration": 0.042856999999997925,
            "durationTicks": 96,
            "midi": 50,
            "name": "D3",
            "ticks": 202752,
            "time": 90.513984,
            "velocity": 0.3937007874015748
          },
          {
            "duration": 0.042856999999997925,
            "durationTicks": 96,
            "midi": 50,
            "name": "D3",
            "ticks": 202944,
            "time": 90.599698,
            "velocity": 0.3937007874015748
          },
          {
            "duration": 0.042856999999997925,
            "durationTicks": 96,
            "midi": 50,
            "name": "D3",
            "ticks": 203136,
            "time": 90.685412,
            "velocity": 0.3937007874015748
          },
          {
            "duration": 0.042856999999997925,
            "durationTicks": 96,
            "midi": 50,
            "name": "D3",
            "ticks": 203328,
            "time": 90.771126,
            "velocity": 0.3937007874015748
          },
          {
            "duration": 0.042856999999997925,
            "durationTicks": 96,
            "midi": 50,
            "name": "D3",
            "ticks": 203520,
            "time": 90.85684,
            "velocity": 0.3937007874015748
          },
          {
            "duration": 0.042856999999997925,
            "durationTicks": 96,
            "midi": 50,
            "name": "D3",
            "ticks": 203712,
            "time": 90.942554,
            "velocity": 0.3937007874015748
          },
          {
            "duration": 0.042856999999997925,
            "durationTicks": 96,
            "midi": 50,
            "name": "D3",
            "ticks": 203904,
            "time": 91.028268,
            "velocity": 0.3937007874015748
          },
          {
            "duration": 0.042857000000012135,
            "durationTicks": 96,
            "midi": 50,
            "name": "D3",
            "ticks": 204096,
            "time": 91.113982,
            "velocity": 0.3937007874015748
          },
          {
            "duration": 0.042856999999997925,
            "durationTicks": 96,
            "midi": 50,
            "name": "D3",
            "ticks": 204288,
            "time": 91.199696,
            "velocity": 0.3937007874015748
          },
          {
            "duration": 0.042856999999997925,
            "durationTicks": 96,
            "midi": 50,
            "name": "D3",
            "ticks": 204480,
            "time": 91.28541,
            "velocity": 0.3937007874015748
          },
          {
            "duration": 0.042856999999997925,
            "durationTicks": 96,
            "midi": 50,
            "name": "D3",
            "ticks": 204672,
            "time": 91.371124,
            "velocity": 0.3937007874015748
          },
          {
            "duration": 0.042856999999997925,
            "durationTicks": 96,
            "midi": 50,
            "name": "D3",
            "ticks": 204864,
            "time": 91.456838,
            "velocity": 0.3937007874015748
          },
          {
            "duration": 0.042856999999997925,
            "durationTicks": 96,
            "midi": 50,
            "name": "D3",
            "ticks": 205056,
            "time": 91.542552,
            "velocity": 0.3937007874015748
          },
          {
            "duration": 0.042856999999997925,
            "durationTicks": 96,
            "midi": 50,
            "name": "D3",
            "ticks": 205248,
            "time": 91.628266,
            "velocity": 0.3937007874015748
          },
          {
            "duration": 0.042857000000012135,
            "durationTicks": 96,
            "midi": 50,
            "name": "D3",
            "ticks": 205440,
            "time": 91.71397999999999,
            "velocity": 0.3937007874015748
          },
          {
            "duration": 0.042856999999997925,
            "durationTicks": 96,
            "midi": 50,
            "name": "D3",
            "ticks": 205632,
            "time": 91.799694,
            "velocity": 0.3937007874015748
          },
          {
            "duration": 0.042856999999997925,
            "durationTicks": 96,
            "midi": 50,
            "name": "D3",
            "ticks": 205824,
            "time": 91.885408,
            "velocity": 0.3937007874015748
          },
          {
            "duration": 0.042856999999997925,
            "durationTicks": 96,
            "midi": 50,
            "name": "D3",
            "ticks": 206016,
            "time": 91.971122,
            "velocity": 0.3937007874015748
          },
          {
            "duration": 0.042856999999997925,
            "durationTicks": 96,
            "midi": 50,
            "name": "D3",
            "ticks": 206208,
            "time": 92.056836,
            "velocity": 0.3937007874015748
          },
          {
            "duration": 0.042856999999997925,
            "durationTicks": 96,
            "midi": 50,
            "name": "D3",
            "ticks": 206400,
            "time": 92.14255,
            "velocity": 0.3937007874015748
          },
          {
            "duration": 0.042856999999997925,
            "durationTicks": 96,
            "midi": 50,
            "name": "D3",
            "ticks": 206592,
            "time": 92.228264,
            "velocity": 0.3937007874015748
          },
          {
            "duration": 0.042857000000012135,
            "durationTicks": 96,
            "midi": 50,
            "name": "D3",
            "ticks": 206784,
            "time": 92.31397799999999,
            "velocity": 0.3937007874015748
          },
          {
            "duration": 0.042856999999997925,
            "durationTicks": 96,
            "midi": 50,
            "name": "D3",
            "ticks": 206976,
            "time": 92.399692,
            "velocity": 0.3937007874015748
          },
          {
            "duration": 0.042856999999997925,
            "durationTicks": 96,
            "midi": 50,
            "name": "D3",
            "ticks": 207168,
            "time": 92.485406,
            "velocity": 0.3937007874015748
          },
          {
            "duration": 0.042856999999997925,
            "durationTicks": 96,
            "midi": 50,
            "name": "D3",
            "ticks": 207360,
            "time": 92.57112,
            "velocity": 0.3937007874015748
          },
          {
            "duration": 0.042856999999997925,
            "durationTicks": 96,
            "midi": 48,
            "name": "C3",
            "ticks": 207552,
            "time": 92.656834,
            "velocity": 0.3937007874015748
          },
          {
            "duration": 0.042856999999997925,
            "durationTicks": 96,
            "midi": 48,
            "name": "C3",
            "ticks": 207744,
            "time": 92.742548,
            "velocity": 0.3937007874015748
          },
          {
            "duration": 0.042856999999997925,
            "durationTicks": 96,
            "midi": 48,
            "name": "C3",
            "ticks": 207936,
            "time": 92.828262,
            "velocity": 0.3937007874015748
          },
          {
            "duration": 0.042856999999997925,
            "durationTicks": 96,
            "midi": 48,
            "name": "C3",
            "ticks": 208128,
            "time": 92.913976,
            "velocity": 0.3937007874015748
          },
          {
            "duration": 0.042856999999997925,
            "durationTicks": 96,
            "midi": 48,
            "name": "C3",
            "ticks": 208320,
            "time": 92.99969,
            "velocity": 0.3937007874015748
          },
          {
            "duration": 0.042856999999997925,
            "durationTicks": 96,
            "midi": 48,
            "name": "C3",
            "ticks": 208512,
            "time": 93.085404,
            "velocity": 0.3937007874015748
          },
          {
            "duration": 0.042857000000012135,
            "durationTicks": 96,
            "midi": 48,
            "name": "C3",
            "ticks": 208704,
            "time": 93.17111799999999,
            "velocity": 0.3937007874015748
          },
          {
            "duration": 0.042856999999997925,
            "durationTicks": 96,
            "midi": 48,
            "name": "C3",
            "ticks": 208896,
            "time": 93.256832,
            "velocity": 0.3937007874015748
          },
          {
            "duration": 0.042856999999997925,
            "durationTicks": 96,
            "midi": 48,
            "name": "C3",
            "ticks": 209088,
            "time": 93.342546,
            "velocity": 0.3937007874015748
          },
          {
            "duration": 0.042856999999997925,
            "durationTicks": 96,
            "midi": 48,
            "name": "C3",
            "ticks": 209280,
            "time": 93.42826,
            "velocity": 0.3937007874015748
          },
          {
            "duration": 0.042856999999997925,
            "durationTicks": 96,
            "midi": 48,
            "name": "C3",
            "ticks": 209472,
            "time": 93.513974,
            "velocity": 0.3937007874015748
          },
          {
            "duration": 0.042856999999997925,
            "durationTicks": 96,
            "midi": 48,
            "name": "C3",
            "ticks": 209664,
            "time": 93.599688,
            "velocity": 0.3937007874015748
          },
          {
            "duration": 0.042856999999997925,
            "durationTicks": 96,
            "midi": 48,
            "name": "C3",
            "ticks": 209856,
            "time": 93.685402,
            "velocity": 0.3937007874015748
          },
          {
            "duration": 0.042857000000012135,
            "durationTicks": 96,
            "midi": 48,
            "name": "C3",
            "ticks": 210048,
            "time": 93.77111599999999,
            "velocity": 0.3937007874015748
          },
          {
            "duration": 0.042856999999997925,
            "durationTicks": 96,
            "midi": 48,
            "name": "C3",
            "ticks": 210240,
            "time": 93.85683,
            "velocity": 0.3937007874015748
          },
          {
            "duration": 0.042856999999997925,
            "durationTicks": 96,
            "midi": 48,
            "name": "C3",
            "ticks": 210432,
            "time": 93.942544,
            "velocity": 0.3937007874015748
          },
          {
            "duration": 0.042856999999997925,
            "durationTicks": 96,
            "midi": 48,
            "name": "C3",
            "ticks": 210624,
            "time": 94.028258,
            "velocity": 0.3937007874015748
          },
          {
            "duration": 0.042856999999997925,
            "durationTicks": 96,
            "midi": 48,
            "name": "C3",
            "ticks": 210816,
            "time": 94.113972,
            "velocity": 0.3937007874015748
          },
          {
            "duration": 0.042856999999997925,
            "durationTicks": 96,
            "midi": 48,
            "name": "C3",
            "ticks": 211008,
            "time": 94.199686,
            "velocity": 0.3937007874015748
          },
          {
            "duration": 0.042856999999997925,
            "durationTicks": 96,
            "midi": 48,
            "name": "C3",
            "ticks": 211200,
            "time": 94.2854,
            "velocity": 0.3937007874015748
          },
          {
            "duration": 0.042857000000012135,
            "durationTicks": 96,
            "midi": 48,
            "name": "C3",
            "ticks": 211392,
            "time": 94.37111399999999,
            "velocity": 0.3937007874015748
          },
          {
            "duration": 0.042856999999997925,
            "durationTicks": 96,
            "midi": 48,
            "name": "C3",
            "ticks": 211584,
            "time": 94.456828,
            "velocity": 0.3937007874015748
          },
          {
            "duration": 0.042856999999997925,
            "durationTicks": 96,
            "midi": 48,
            "name": "C3",
            "ticks": 211776,
            "time": 94.542542,
            "velocity": 0.3937007874015748
          },
          {
            "duration": 0.042857000000012135,
            "durationTicks": 96,
            "midi": 48,
            "name": "C3",
            "ticks": 211968,
            "time": 94.628256,
            "velocity": 0.3937007874015748
          },
          {
            "duration": 0.042856999999997925,
            "durationTicks": 96,
            "midi": 48,
            "name": "C3",
            "ticks": 212160,
            "time": 94.71397,
            "velocity": 0.3937007874015748
          },
          {
            "duration": 0.042856999999997925,
            "durationTicks": 96,
            "midi": 48,
            "name": "C3",
            "ticks": 212352,
            "time": 94.799684,
            "velocity": 0.3937007874015748
          },
          {
            "duration": 0.042856999999997925,
            "durationTicks": 96,
            "midi": 48,
            "name": "C3",
            "ticks": 212544,
            "time": 94.885398,
            "velocity": 0.3937007874015748
          },
          {
            "duration": 0.042856999999997925,
            "durationTicks": 96,
            "midi": 48,
            "name": "C3",
            "ticks": 212736,
            "time": 94.971112,
            "velocity": 0.3937007874015748
          },
          {
            "duration": 0.042856999999997925,
            "durationTicks": 96,
            "midi": 48,
            "name": "C3",
            "ticks": 212928,
            "time": 95.056826,
            "velocity": 0.3937007874015748
          },
          {
            "duration": 0.042856999999997925,
            "durationTicks": 96,
            "midi": 48,
            "name": "C3",
            "ticks": 213120,
            "time": 95.14254,
            "velocity": 0.3937007874015748
          },
          {
            "duration": 0.042857000000012135,
            "durationTicks": 96,
            "midi": 48,
            "name": "C3",
            "ticks": 213312,
            "time": 95.22825399999999,
            "velocity": 0.3937007874015748
          },
          {
            "duration": 0.042856999999997925,
            "durationTicks": 96,
            "midi": 48,
            "name": "C3",
            "ticks": 213504,
            "time": 95.313968,
            "velocity": 0.3937007874015748
          },
          {
            "duration": 0.042856999999997925,
            "durationTicks": 96,
            "midi": 50,
            "name": "D3",
            "ticks": 213696,
            "time": 95.399682,
            "velocity": 0.3937007874015748
          },
          {
            "duration": 0.042856999999997925,
            "durationTicks": 96,
            "midi": 50,
            "name": "D3",
            "ticks": 213888,
            "time": 95.485396,
            "velocity": 0.3937007874015748
          },
          {
            "duration": 0.042856999999997925,
            "durationTicks": 96,
            "midi": 50,
            "name": "D3",
            "ticks": 214080,
            "time": 95.57111,
            "velocity": 0.3937007874015748
          },
          {
            "duration": 0.042856999999997925,
            "durationTicks": 96,
            "midi": 50,
            "name": "D3",
            "ticks": 214272,
            "time": 95.656824,
            "velocity": 0.3937007874015748
          },
          {
            "duration": 0.042856999999997925,
            "durationTicks": 96,
            "midi": 50,
            "name": "D3",
            "ticks": 214464,
            "time": 95.742538,
            "velocity": 0.3937007874015748
          },
          {
            "duration": 0.042857000000012135,
            "durationTicks": 96,
            "midi": 50,
            "name": "D3",
            "ticks": 214656,
            "time": 95.82825199999999,
            "velocity": 0.3937007874015748
          },
          {
            "duration": 0.042856999999997925,
            "durationTicks": 96,
            "midi": 50,
            "name": "D3",
            "ticks": 214848,
            "time": 95.913966,
            "velocity": 0.3937007874015748
          },
          {
            "duration": 0.042856999999997925,
            "durationTicks": 96,
            "midi": 50,
            "name": "D3",
            "ticks": 215040,
            "time": 95.99968,
            "velocity": 0.3937007874015748
          },
          {
            "duration": 0.042856999999997925,
            "durationTicks": 96,
            "midi": 50,
            "name": "D3",
            "ticks": 215232,
            "time": 96.085394,
            "velocity": 0.3937007874015748
          },
          {
            "duration": 0.042856999999997925,
            "durationTicks": 96,
            "midi": 50,
            "name": "D3",
            "ticks": 215424,
            "time": 96.171108,
            "velocity": 0.3937007874015748
          },
          {
            "duration": 0.042856999999997925,
            "durationTicks": 96,
            "midi": 50,
            "name": "D3",
            "ticks": 215616,
            "time": 96.256822,
            "velocity": 0.3937007874015748
          },
          {
            "duration": 0.042856999999997925,
            "durationTicks": 96,
            "midi": 50,
            "name": "D3",
            "ticks": 215808,
            "time": 96.342536,
            "velocity": 0.3937007874015748
          },
          {
            "duration": 0.042857000000012135,
            "durationTicks": 96,
            "midi": 50,
            "name": "D3",
            "ticks": 216000,
            "time": 96.42824999999999,
            "velocity": 0.3937007874015748
          },
          {
            "duration": 0.042856999999997925,
            "durationTicks": 96,
            "midi": 50,
            "name": "D3",
            "ticks": 216192,
            "time": 96.513964,
            "velocity": 0.3937007874015748
          },
          {
            "duration": 0.042856999999997925,
            "durationTicks": 96,
            "midi": 50,
            "name": "D3",
            "ticks": 216384,
            "time": 96.599678,
            "velocity": 0.3937007874015748
          },
          {
            "duration": 0.042857000000012135,
            "durationTicks": 96,
            "midi": 50,
            "name": "D3",
            "ticks": 216576,
            "time": 96.685392,
            "velocity": 0.3937007874015748
          },
          {
            "duration": 0.042856999999997925,
            "durationTicks": 96,
            "midi": 50,
            "name": "D3",
            "ticks": 216768,
            "time": 96.771106,
            "velocity": 0.3937007874015748
          },
          {
            "duration": 0.042856999999997925,
            "durationTicks": 96,
            "midi": 50,
            "name": "D3",
            "ticks": 216960,
            "time": 96.85682,
            "velocity": 0.3937007874015748
          },
          {
            "duration": 0.042856999999997925,
            "durationTicks": 96,
            "midi": 50,
            "name": "D3",
            "ticks": 217152,
            "time": 96.942534,
            "velocity": 0.3937007874015748
          },
          {
            "duration": 0.042856999999997925,
            "durationTicks": 96,
            "midi": 50,
            "name": "D3",
            "ticks": 217344,
            "time": 97.028248,
            "velocity": 0.3937007874015748
          },
          {
            "duration": 0.042856999999997925,
            "durationTicks": 96,
            "midi": 50,
            "name": "D3",
            "ticks": 217536,
            "time": 97.113962,
            "velocity": 0.3937007874015748
          },
          {
            "duration": 0.042856999999997925,
            "durationTicks": 96,
            "midi": 50,
            "name": "D3",
            "ticks": 217728,
            "time": 97.199676,
            "velocity": 0.3937007874015748
          },
          {
            "duration": 0.042857000000012135,
            "durationTicks": 96,
            "midi": 50,
            "name": "D3",
            "ticks": 217920,
            "time": 97.28538999999999,
            "velocity": 0.3937007874015748
          },
          {
            "duration": 0.042856999999997925,
            "durationTicks": 96,
            "midi": 50,
            "name": "D3",
            "ticks": 218112,
            "time": 97.371104,
            "velocity": 0.3937007874015748
          },
          {
            "duration": 0.042856999999997925,
            "durationTicks": 96,
            "midi": 50,
            "name": "D3",
            "ticks": 218304,
            "time": 97.456818,
            "velocity": 0.3937007874015748
          },
          {
            "duration": 0.042856999999997925,
            "durationTicks": 96,
            "midi": 50,
            "name": "D3",
            "ticks": 218496,
            "time": 97.542532,
            "velocity": 0.3937007874015748
          },
          {
            "duration": 0.042856999999997925,
            "durationTicks": 96,
            "midi": 50,
            "name": "D3",
            "ticks": 218688,
            "time": 97.628246,
            "velocity": 0.3937007874015748
          },
          {
            "duration": 0.042856999999997925,
            "durationTicks": 96,
            "midi": 50,
            "name": "D3",
            "ticks": 218880,
            "time": 97.71396,
            "velocity": 0.3937007874015748
          },
          {
            "duration": 0.042856999999997925,
            "durationTicks": 96,
            "midi": 50,
            "name": "D3",
            "ticks": 219072,
            "time": 97.799674,
            "velocity": 0.3937007874015748
          },
          {
            "duration": 0.042857000000012135,
            "durationTicks": 96,
            "midi": 50,
            "name": "D3",
            "ticks": 219264,
            "time": 97.88538799999999,
            "velocity": 0.3937007874015748
          },
          {
            "duration": 0.042856999999997925,
            "durationTicks": 96,
            "midi": 50,
            "name": "D3",
            "ticks": 219456,
            "time": 97.971102,
            "velocity": 0.3937007874015748
          },
          {
            "duration": 0.042856999999997925,
            "durationTicks": 96,
            "midi": 50,
            "name": "D3",
            "ticks": 219648,
            "time": 98.056816,
            "velocity": 0.3937007874015748
          },
          {
            "duration": 0.042856999999997925,
            "durationTicks": 96,
            "midi": 52,
            "name": "E3",
            "ticks": 219840,
            "time": 98.14253,
            "velocity": 0.3937007874015748
          },
          {
            "duration": 0.042856999999997925,
            "durationTicks": 96,
            "midi": 52,
            "name": "E3",
            "ticks": 220032,
            "time": 98.228244,
            "velocity": 0.3937007874015748
          },
          {
            "duration": 0.042856999999997925,
            "durationTicks": 96,
            "midi": 52,
            "name": "E3",
            "ticks": 220224,
            "time": 98.313958,
            "velocity": 0.3937007874015748
          },
          {
            "duration": 0.042856999999997925,
            "durationTicks": 96,
            "midi": 52,
            "name": "E3",
            "ticks": 220416,
            "time": 98.399672,
            "velocity": 0.3937007874015748
          },
          {
            "duration": 0.042857000000012135,
            "durationTicks": 96,
            "midi": 52,
            "name": "E3",
            "ticks": 220608,
            "time": 98.48538599999999,
            "velocity": 0.3937007874015748
          },
          {
            "duration": 0.042856999999997925,
            "durationTicks": 96,
            "midi": 52,
            "name": "E3",
            "ticks": 220800,
            "time": 98.5711,
            "velocity": 0.3937007874015748
          },
          {
            "duration": 0.042856999999997925,
            "durationTicks": 96,
            "midi": 52,
            "name": "E3",
            "ticks": 220992,
            "time": 98.656814,
            "velocity": 0.3937007874015748
          },
          {
            "duration": 0.042857000000012135,
            "durationTicks": 96,
            "midi": 52,
            "name": "E3",
            "ticks": 221184,
            "time": 98.742528,
            "velocity": 0.3937007874015748
          },
          {
            "duration": 0.042856999999997925,
            "durationTicks": 96,
            "midi": 52,
            "name": "E3",
            "ticks": 221376,
            "time": 98.828242,
            "velocity": 0.3937007874015748
          },
          {
            "duration": 0.042856999999997925,
            "durationTicks": 96,
            "midi": 52,
            "name": "E3",
            "ticks": 221568,
            "time": 98.913956,
            "velocity": 0.3937007874015748
          },
          {
            "duration": 0.042856999999997925,
            "durationTicks": 96,
            "midi": 52,
            "name": "E3",
            "ticks": 221760,
            "time": 98.99967,
            "velocity": 0.3937007874015748
          },
          {
            "duration": 0.042856999999997925,
            "durationTicks": 96,
            "midi": 52,
            "name": "E3",
            "ticks": 221952,
            "time": 99.085384,
            "velocity": 0.3937007874015748
          },
          {
            "duration": 0.042856999999997925,
            "durationTicks": 96,
            "midi": 52,
            "name": "E3",
            "ticks": 222144,
            "time": 99.171098,
            "velocity": 0.3937007874015748
          },
          {
            "duration": 0.042856999999997925,
            "durationTicks": 96,
            "midi": 52,
            "name": "E3",
            "ticks": 222336,
            "time": 99.256812,
            "velocity": 0.3937007874015748
          },
          {
            "duration": 0.042857000000012135,
            "durationTicks": 96,
            "midi": 52,
            "name": "E3",
            "ticks": 222528,
            "time": 99.34252599999999,
            "velocity": 0.3937007874015748
          },
          {
            "duration": 0.042856999999997925,
            "durationTicks": 96,
            "midi": 52,
            "name": "E3",
            "ticks": 222720,
            "time": 99.42824,
            "velocity": 0.3937007874015748
          },
          {
            "duration": 0.042856999999997925,
            "durationTicks": 96,
            "midi": 52,
            "name": "E3",
            "ticks": 222912,
            "time": 99.513954,
            "velocity": 0.3937007874015748
          },
          {
            "duration": 0.042856999999997925,
            "durationTicks": 96,
            "midi": 52,
            "name": "E3",
            "ticks": 223104,
            "time": 99.599668,
            "velocity": 0.3937007874015748
          },
          {
            "duration": 0.042856999999997925,
            "durationTicks": 96,
            "midi": 52,
            "name": "E3",
            "ticks": 223296,
            "time": 99.685382,
            "velocity": 0.3937007874015748
          },
          {
            "duration": 0.042856999999997925,
            "durationTicks": 96,
            "midi": 52,
            "name": "E3",
            "ticks": 223488,
            "time": 99.771096,
            "velocity": 0.3937007874015748
          },
          {
            "duration": 0.042856999999997925,
            "durationTicks": 96,
            "midi": 50,
            "name": "D3",
            "ticks": 223680,
            "time": 99.85681,
            "velocity": 0.3937007874015748
          },
          {
            "duration": 0.042857000000012135,
            "durationTicks": 96,
            "midi": 50,
            "name": "D3",
            "ticks": 223872,
            "time": 99.94252399999999,
            "velocity": 0.3937007874015748
          },
          {
            "duration": 0.042856999999997925,
            "durationTicks": 96,
            "midi": 50,
            "name": "D3",
            "ticks": 224064,
            "time": 100.028238,
            "velocity": 0.3937007874015748
          },
          {
            "duration": 0.042856999999997925,
            "durationTicks": 96,
            "midi": 50,
            "name": "D3",
            "ticks": 224256,
            "time": 100.113952,
            "velocity": 0.3937007874015748
          },
          {
            "duration": 0.042856999999997925,
            "durationTicks": 96,
            "midi": 48,
            "name": "C3",
            "ticks": 224448,
            "time": 100.199666,
            "velocity": 0.3937007874015748
          },
          {
            "duration": 0.042856999999997925,
            "durationTicks": 96,
            "midi": 48,
            "name": "C3",
            "ticks": 224640,
            "time": 100.28538,
            "velocity": 0.3937007874015748
          },
          {
            "duration": 0.042856999999997925,
            "durationTicks": 96,
            "midi": 48,
            "name": "C3",
            "ticks": 224832,
            "time": 100.371094,
            "velocity": 0.3937007874015748
          },
          {
            "duration": 0.042856999999997925,
            "durationTicks": 96,
            "midi": 48,
            "name": "C3",
            "ticks": 225024,
            "time": 100.456808,
            "velocity": 0.3937007874015748
          },
          {
            "duration": 0.042856999999997925,
            "durationTicks": 96,
            "midi": 47,
            "name": "B2",
            "ticks": 225216,
            "time": 100.542522,
            "velocity": 0.3937007874015748
          },
          {
            "duration": 0.042856999999997925,
            "durationTicks": 96,
            "midi": 47,
            "name": "B2",
            "ticks": 225408,
            "time": 100.628236,
            "velocity": 0.3937007874015748
          },
          {
            "duration": 0.042856999999997925,
            "durationTicks": 96,
            "midi": 47,
            "name": "B2",
            "ticks": 225600,
            "time": 100.71395,
            "velocity": 0.3937007874015748
          },
          {
            "duration": 0.042857000000012135,
            "durationTicks": 96,
            "midi": 47,
            "name": "B2",
            "ticks": 225792,
            "time": 100.79966399999999,
            "velocity": 0.3937007874015748
          },
          {
            "duration": 0.042857000000012135,
            "durationTicks": 96,
            "midi": 33,
            "name": "A1",
            "ticks": 247488,
            "time": 110.48534599999999,
            "velocity": 0.3937007874015748
          },
          {
            "duration": 0.042856999999997925,
            "durationTicks": 96,
            "midi": 33,
            "name": "A1",
            "ticks": 247680,
            "time": 110.57106,
            "velocity": 0.3937007874015748
          },
          {
            "duration": 0.042856999999997925,
            "durationTicks": 96,
            "midi": 33,
            "name": "A1",
            "ticks": 247872,
            "time": 110.656774,
            "velocity": 0.3937007874015748
          },
          {
            "duration": 0.042856999999997925,
            "durationTicks": 96,
            "midi": 33,
            "name": "A1",
            "ticks": 248064,
            "time": 110.742488,
            "velocity": 0.3937007874015748
          },
          {
            "duration": 0.042856999999997925,
            "durationTicks": 96,
            "midi": 33,
            "name": "A1",
            "ticks": 248256,
            "time": 110.828202,
            "velocity": 0.3937007874015748
          },
          {
            "duration": 0.042856999999997925,
            "durationTicks": 96,
            "midi": 33,
            "name": "A1",
            "ticks": 248448,
            "time": 110.913916,
            "velocity": 0.3937007874015748
          },
          {
            "duration": 0.042856999999997925,
            "durationTicks": 96,
            "midi": 33,
            "name": "A1",
            "ticks": 248640,
            "time": 110.99963,
            "velocity": 0.3937007874015748
          },
          {
            "duration": 0.042857000000012135,
            "durationTicks": 96,
            "midi": 33,
            "name": "A1",
            "ticks": 248832,
            "time": 111.08534399999999,
            "velocity": 0.3937007874015748
          },
          {
            "duration": 0.042856999999997925,
            "durationTicks": 96,
            "midi": 33,
            "name": "A1",
            "ticks": 249024,
            "time": 111.171058,
            "velocity": 0.3937007874015748
          },
          {
            "duration": 0.042856999999997925,
            "durationTicks": 96,
            "midi": 33,
            "name": "A1",
            "ticks": 249216,
            "time": 111.256772,
            "velocity": 0.3937007874015748
          },
          {
            "duration": 0.042856999999997925,
            "durationTicks": 96,
            "midi": 33,
            "name": "A1",
            "ticks": 249408,
            "time": 111.342486,
            "velocity": 0.3937007874015748
          },
          {
            "duration": 0.042856999999997925,
            "durationTicks": 96,
            "midi": 33,
            "name": "A1",
            "ticks": 249600,
            "time": 111.4282,
            "velocity": 0.3937007874015748
          },
          {
            "duration": 0.042856999999997925,
            "durationTicks": 96,
            "midi": 33,
            "name": "A1",
            "ticks": 249792,
            "time": 111.513914,
            "velocity": 0.3937007874015748
          },
          {
            "duration": 0.042856999999997925,
            "durationTicks": 96,
            "midi": 33,
            "name": "A1",
            "ticks": 249984,
            "time": 111.599628,
            "velocity": 0.3937007874015748
          },
          {
            "duration": 0.042857000000012135,
            "durationTicks": 96,
            "midi": 33,
            "name": "A1",
            "ticks": 250176,
            "time": 111.68534199999999,
            "velocity": 0.3937007874015748
          },
          {
            "duration": 0.042856999999997925,
            "durationTicks": 96,
            "midi": 33,
            "name": "A1",
            "ticks": 250368,
            "time": 111.771056,
            "velocity": 0.3937007874015748
          },
          {
            "duration": 0.042856999999997925,
            "durationTicks": 96,
            "midi": 33,
            "name": "A1",
            "ticks": 250560,
            "time": 111.85677,
            "velocity": 0.3937007874015748
          },
          {
            "duration": 0.042856999999997925,
            "durationTicks": 96,
            "midi": 33,
            "name": "A1",
            "ticks": 250752,
            "time": 111.942484,
            "velocity": 0.3937007874015748
          },
          {
            "duration": 0.042856999999997925,
            "durationTicks": 96,
            "midi": 33,
            "name": "A1",
            "ticks": 250944,
            "time": 112.028198,
            "velocity": 0.3937007874015748
          },
          {
            "duration": 0.042856999999997925,
            "durationTicks": 96,
            "midi": 33,
            "name": "A1",
            "ticks": 251136,
            "time": 112.113912,
            "velocity": 0.3937007874015748
          },
          {
            "duration": 0.042856999999997925,
            "durationTicks": 96,
            "midi": 33,
            "name": "A1",
            "ticks": 251328,
            "time": 112.199626,
            "velocity": 0.3937007874015748
          },
          {
            "duration": 0.042856999999997925,
            "durationTicks": 96,
            "midi": 33,
            "name": "A1",
            "ticks": 251520,
            "time": 112.28534,
            "velocity": 0.3937007874015748
          },
          {
            "duration": 0.042856999999997925,
            "durationTicks": 96,
            "midi": 33,
            "name": "A1",
            "ticks": 251712,
            "time": 112.371054,
            "velocity": 0.3937007874015748
          },
          {
            "duration": 0.042856999999997925,
            "durationTicks": 96,
            "midi": 33,
            "name": "A1",
            "ticks": 251904,
            "time": 112.456768,
            "velocity": 0.3937007874015748
          },
          {
            "duration": 0.042857000000012135,
            "durationTicks": 96,
            "midi": 33,
            "name": "A1",
            "ticks": 252096,
            "time": 112.54248199999999,
            "velocity": 0.3937007874015748
          },
          {
            "duration": 0.042856999999997925,
            "durationTicks": 96,
            "midi": 33,
            "name": "A1",
            "ticks": 252288,
            "time": 112.628196,
            "velocity": 0.3937007874015748
          },
          {
            "duration": 0.042856999999997925,
            "durationTicks": 96,
            "midi": 33,
            "name": "A1",
            "ticks": 252480,
            "time": 112.71391,
            "velocity": 0.3937007874015748
          },
          {
            "duration": 0.042856999999997925,
            "durationTicks": 96,
            "midi": 33,
            "name": "A1",
            "ticks": 252672,
            "time": 112.799624,
            "velocity": 0.3937007874015748
          },
          {
            "duration": 0.042856999999997925,
            "durationTicks": 96,
            "midi": 33,
            "name": "A1",
            "ticks": 252864,
            "time": 112.885338,
            "velocity": 0.3937007874015748
          },
          {
            "duration": 0.042856999999997925,
            "durationTicks": 96,
            "midi": 33,
            "name": "A1",
            "ticks": 253056,
            "time": 112.971052,
            "velocity": 0.3937007874015748
          },
          {
            "duration": 0.042856999999997925,
            "durationTicks": 96,
            "midi": 33,
            "name": "A1",
            "ticks": 253248,
            "time": 113.056766,
            "velocity": 0.3937007874015748
          },
          {
            "duration": 0.042857000000012135,
            "durationTicks": 96,
            "midi": 33,
            "name": "A1",
            "ticks": 253440,
            "time": 113.14247999999999,
            "velocity": 0.3937007874015748
          },
          {
            "duration": 0.042856999999997925,
            "durationTicks": 96,
            "midi": 33,
            "name": "A1",
            "ticks": 253632,
            "time": 113.228194,
            "velocity": 0.3937007874015748
          },
          {
            "duration": 0.042856999999997925,
            "durationTicks": 96,
            "midi": 33,
            "name": "A1",
            "ticks": 253824,
            "time": 113.313908,
            "velocity": 0.3937007874015748
          },
          {
            "duration": 0.042856999999997925,
            "durationTicks": 96,
            "midi": 33,
            "name": "A1",
            "ticks": 254016,
            "time": 113.399622,
            "velocity": 0.3937007874015748
          },
          {
            "duration": 0.042856999999997925,
            "durationTicks": 96,
            "midi": 33,
            "name": "A1",
            "ticks": 254208,
            "time": 113.485336,
            "velocity": 0.3937007874015748
          },
          {
            "duration": 0.042856999999997925,
            "durationTicks": 96,
            "midi": 33,
            "name": "A1",
            "ticks": 254400,
            "time": 113.57105,
            "velocity": 0.3937007874015748
          },
          {
            "duration": 0.042856999999997925,
            "durationTicks": 96,
            "midi": 33,
            "name": "A1",
            "ticks": 254592,
            "time": 113.656764,
            "velocity": 0.3937007874015748
          },
          {
            "duration": 0.042857000000012135,
            "durationTicks": 96,
            "midi": 33,
            "name": "A1",
            "ticks": 254784,
            "time": 113.74247799999999,
            "velocity": 0.3937007874015748
          },
          {
            "duration": 0.042856999999997925,
            "durationTicks": 96,
            "midi": 33,
            "name": "A1",
            "ticks": 254976,
            "time": 113.828192,
            "velocity": 0.3937007874015748
          },
          {
            "duration": 0.042856999999997925,
            "durationTicks": 96,
            "midi": 33,
            "name": "A1",
            "ticks": 255168,
            "time": 113.913906,
            "velocity": 0.3937007874015748
          },
          {
            "duration": 0.042856999999997925,
            "durationTicks": 96,
            "midi": 33,
            "name": "A1",
            "ticks": 255360,
            "time": 113.99962,
            "velocity": 0.3937007874015748
          },
          {
            "duration": 0.042856999999997925,
            "durationTicks": 96,
            "midi": 33,
            "name": "A1",
            "ticks": 255552,
            "time": 114.085334,
            "velocity": 0.3937007874015748
          },
          {
            "duration": 0.042856999999997925,
            "durationTicks": 96,
            "midi": 33,
            "name": "A1",
            "ticks": 255744,
            "time": 114.171048,
            "velocity": 0.3937007874015748
          },
          {
            "duration": 0.042856999999997925,
            "durationTicks": 96,
            "midi": 33,
            "name": "A1",
            "ticks": 255936,
            "time": 114.256762,
            "velocity": 0.3937007874015748
          },
          {
            "duration": 0.042856999999997925,
            "durationTicks": 96,
            "midi": 33,
            "name": "A1",
            "ticks": 256128,
            "time": 114.342476,
            "velocity": 0.3937007874015748
          },
          {
            "duration": 0.042856999999997925,
            "durationTicks": 96,
            "midi": 33,
            "name": "A1",
            "ticks": 256320,
            "time": 114.42819,
            "velocity": 0.3937007874015748
          },
          {
            "duration": 0.042856999999997925,
            "durationTicks": 96,
            "midi": 33,
            "name": "A1",
            "ticks": 256512,
            "time": 114.513904,
            "velocity": 0.3937007874015748
          },
          {
            "duration": 0.042857000000012135,
            "durationTicks": 96,
            "midi": 33,
            "name": "A1",
            "ticks": 256704,
            "time": 114.59961799999999,
            "velocity": 0.3937007874015748
          },
          {
            "duration": 0.042856999999997925,
            "durationTicks": 96,
            "midi": 33,
            "name": "A1",
            "ticks": 256896,
            "time": 114.685332,
            "velocity": 0.3937007874015748
          },
          {
            "duration": 0.042856999999997925,
            "durationTicks": 96,
            "midi": 33,
            "name": "A1",
            "ticks": 257088,
            "time": 114.771046,
            "velocity": 0.3937007874015748
          },
          {
            "duration": 0.042856999999997925,
            "durationTicks": 96,
            "midi": 33,
            "name": "A1",
            "ticks": 257280,
            "time": 114.85676,
            "velocity": 0.3937007874015748
          },
          {
            "duration": 0.042856999999997925,
            "durationTicks": 96,
            "midi": 33,
            "name": "A1",
            "ticks": 257472,
            "time": 114.942474,
            "velocity": 0.3937007874015748
          },
          {
            "duration": 0.042856999999997925,
            "durationTicks": 96,
            "midi": 33,
            "name": "A1",
            "ticks": 257664,
            "time": 115.028188,
            "velocity": 0.3937007874015748
          },
          {
            "duration": 0.042856999999997925,
            "durationTicks": 96,
            "midi": 33,
            "name": "A1",
            "ticks": 257856,
            "time": 115.113902,
            "velocity": 0.3937007874015748
          },
          {
            "duration": 0.042857000000012135,
            "durationTicks": 96,
            "midi": 33,
            "name": "A1",
            "ticks": 258048,
            "time": 115.19961599999999,
            "velocity": 0.3937007874015748
          },
          {
            "duration": 0.042856999999997925,
            "durationTicks": 96,
            "midi": 33,
            "name": "A1",
            "ticks": 258240,
            "time": 115.28533,
            "velocity": 0.3937007874015748
          },
          {
            "duration": 0.042856999999997925,
            "durationTicks": 96,
            "midi": 33,
            "name": "A1",
            "ticks": 258432,
            "time": 115.371044,
            "velocity": 0.3937007874015748
          },
          {
            "duration": 0.042856999999997925,
            "durationTicks": 96,
            "midi": 33,
            "name": "A1",
            "ticks": 258624,
            "time": 115.456758,
            "velocity": 0.3937007874015748
          },
          {
            "duration": 0.042856999999997925,
            "durationTicks": 96,
            "midi": 33,
            "name": "A1",
            "ticks": 258816,
            "time": 115.542472,
            "velocity": 0.3937007874015748
          },
          {
            "duration": 0.042856999999997925,
            "durationTicks": 96,
            "midi": 33,
            "name": "A1",
            "ticks": 259008,
            "time": 115.628186,
            "velocity": 0.3937007874015748
          },
          {
            "duration": 0.042856999999997925,
            "durationTicks": 96,
            "midi": 33,
            "name": "A1",
            "ticks": 259200,
            "time": 115.7139,
            "velocity": 0.3937007874015748
          },
          {
            "duration": 0.042857000000012135,
            "durationTicks": 96,
            "midi": 33,
            "name": "A1",
            "ticks": 259392,
            "time": 115.79961399999999,
            "velocity": 0.3937007874015748
          },
          {
            "duration": 0.042856999999997925,
            "durationTicks": 96,
            "midi": 33,
            "name": "A1",
            "ticks": 259584,
            "time": 115.885328,
            "velocity": 0.3937007874015748
          },
          {
            "duration": 0.042856999999997925,
            "durationTicks": 96,
            "midi": 33,
            "name": "A1",
            "ticks": 262848,
            "time": 117.342466,
            "velocity": 0.3937007874015748
          },
          {
            "duration": 0.042856999999997925,
            "durationTicks": 96,
            "midi": 33,
            "name": "A1",
            "ticks": 263040,
            "time": 117.42818,
            "velocity": 0.3937007874015748
          },
          {
            "duration": 0.042856999999997925,
            "durationTicks": 96,
            "midi": 33,
            "name": "A1",
            "ticks": 263232,
            "time": 117.513894,
            "velocity": 0.3937007874015748
          },
          {
            "duration": 0.042856999999997925,
            "durationTicks": 96,
            "midi": 33,
            "name": "A1",
            "ticks": 263424,
            "time": 117.599608,
            "velocity": 0.3937007874015748
          },
          {
            "duration": 0.042856999999997925,
            "durationTicks": 96,
            "midi": 33,
            "name": "A1",
            "ticks": 263616,
            "time": 117.685322,
            "velocity": 0.3937007874015748
          },
          {
            "duration": 0.042856999999997925,
            "durationTicks": 96,
            "midi": 33,
            "name": "A1",
            "ticks": 263808,
            "time": 117.771036,
            "velocity": 0.3937007874015748
          },
          {
            "duration": 0.042857000000012135,
            "durationTicks": 96,
            "midi": 33,
            "name": "A1",
            "ticks": 264000,
            "time": 117.85674999999999,
            "velocity": 0.3937007874015748
          },
          {
            "duration": 0.042856999999997925,
            "durationTicks": 96,
            "midi": 33,
            "name": "A1",
            "ticks": 264192,
            "time": 117.942464,
            "velocity": 0.3937007874015748
          },
          {
            "duration": 0.042856999999997925,
            "durationTicks": 96,
            "midi": 33,
            "name": "A1",
            "ticks": 264384,
            "time": 118.028178,
            "velocity": 0.3937007874015748
          },
          {
            "duration": 0.042857000000012135,
            "durationTicks": 96,
            "midi": 33,
            "name": "A1",
            "ticks": 264576,
            "time": 118.11389199999999,
            "velocity": 0.3937007874015748
          },
          {
            "duration": 0.042856999999997925,
            "durationTicks": 96,
            "midi": 33,
            "name": "A1",
            "ticks": 264768,
            "time": 118.199606,
            "velocity": 0.3937007874015748
          },
          {
            "duration": 0.042856999999997925,
            "durationTicks": 96,
            "midi": 33,
            "name": "A1",
            "ticks": 264960,
            "time": 118.28532,
            "velocity": 0.3937007874015748
          },
          {
            "duration": 0.042856999999997925,
            "durationTicks": 96,
            "midi": 33,
            "name": "A1",
            "ticks": 265152,
            "time": 118.371034,
            "velocity": 0.3937007874015748
          },
          {
            "duration": 0.042856999999997925,
            "durationTicks": 96,
            "midi": 33,
            "name": "A1",
            "ticks": 265344,
            "time": 118.456748,
            "velocity": 0.3937007874015748
          },
          {
            "duration": 0.042856999999997925,
            "durationTicks": 96,
            "midi": 33,
            "name": "A1",
            "ticks": 265536,
            "time": 118.542462,
            "velocity": 0.3937007874015748
          },
          {
            "duration": 0.042856999999997925,
            "durationTicks": 96,
            "midi": 33,
            "name": "A1",
            "ticks": 265728,
            "time": 118.628176,
            "velocity": 0.3937007874015748
          },
          {
            "duration": 0.042857000000012135,
            "durationTicks": 96,
            "midi": 36,
            "name": "C2",
            "ticks": 265920,
            "time": 118.71388999999999,
            "velocity": 0.3937007874015748
          },
          {
            "duration": 0.042856999999997925,
            "durationTicks": 96,
            "midi": 36,
            "name": "C2",
            "ticks": 266112,
            "time": 118.799604,
            "velocity": 0.3937007874015748
          },
          {
            "duration": 0.042856999999997925,
            "durationTicks": 96,
            "midi": 36,
            "name": "C2",
            "ticks": 266304,
            "time": 118.885318,
            "velocity": 0.3937007874015748
          },
          {
            "duration": 0.042856999999997925,
            "durationTicks": 96,
            "midi": 36,
            "name": "C2",
            "ticks": 266496,
            "time": 118.971032,
            "velocity": 0.3937007874015748
          },
          {
            "duration": 0.042856999999997925,
            "durationTicks": 96,
            "midi": 36,
            "name": "C2",
            "ticks": 266688,
            "time": 119.056746,
            "velocity": 0.3937007874015748
          },
          {
            "duration": 0.042856999999997925,
            "durationTicks": 96,
            "midi": 36,
            "name": "C2",
            "ticks": 266880,
            "time": 119.14246,
            "velocity": 0.3937007874015748
          },
          {
            "duration": 0.042856999999997925,
            "durationTicks": 96,
            "midi": 36,
            "name": "C2",
            "ticks": 267072,
            "time": 119.228174,
            "velocity": 0.3937007874015748
          },
          {
            "duration": 0.042857000000012135,
            "durationTicks": 96,
            "midi": 36,
            "name": "C2",
            "ticks": 267264,
            "time": 119.31388799999999,
            "velocity": 0.3937007874015748
          },
          {
            "duration": 0.042856999999997925,
            "durationTicks": 96,
            "midi": 36,
            "name": "C2",
            "ticks": 267456,
            "time": 119.399602,
            "velocity": 0.3937007874015748
          },
          {
            "duration": 0.042856999999997925,
            "durationTicks": 96,
            "midi": 36,
            "name": "C2",
            "ticks": 267648,
            "time": 119.485316,
            "velocity": 0.3937007874015748
          },
          {
            "duration": 0.042856999999997925,
            "durationTicks": 96,
            "midi": 36,
            "name": "C2",
            "ticks": 267840,
            "time": 119.57103,
            "velocity": 0.3937007874015748
          },
          {
            "duration": 0.042856999999997925,
            "durationTicks": 96,
            "midi": 36,
            "name": "C2",
            "ticks": 268032,
            "time": 119.656744,
            "velocity": 0.3937007874015748
          },
          {
            "duration": 0.042856999999997925,
            "durationTicks": 96,
            "midi": 36,
            "name": "C2",
            "ticks": 268224,
            "time": 119.742458,
            "velocity": 0.3937007874015748
          },
          {
            "duration": 0.042856999999997925,
            "durationTicks": 96,
            "midi": 36,
            "name": "C2",
            "ticks": 268416,
            "time": 119.828172,
            "velocity": 0.3937007874015748
          },
          {
            "duration": 0.042857000000012135,
            "durationTicks": 96,
            "midi": 36,
            "name": "C2",
            "ticks": 268608,
            "time": 119.91388599999999,
            "velocity": 0.3937007874015748
          },
          {
            "duration": 0.042856999999997925,
            "durationTicks": 96,
            "midi": 36,
            "name": "C2",
            "ticks": 268800,
            "time": 119.9996,
            "velocity": 0.3937007874015748
          },
          {
            "duration": 0.042856999999997925,
            "durationTicks": 96,
            "midi": 35,
            "name": "B1",
            "ticks": 268992,
            "time": 120.085314,
            "velocity": 0.3937007874015748
          },
          {
            "duration": 0.042857000000012135,
            "durationTicks": 96,
            "midi": 35,
            "name": "B1",
            "ticks": 269184,
            "time": 120.17102799999999,
            "velocity": 0.3937007874015748
          },
          {
            "duration": 0.042856999999997925,
            "durationTicks": 96,
            "midi": 35,
            "name": "B1",
            "ticks": 269376,
            "time": 120.256742,
            "velocity": 0.3937007874015748
          },
          {
            "duration": 0.042856999999997925,
            "durationTicks": 96,
            "midi": 35,
            "name": "B1",
            "ticks": 269568,
            "time": 120.342456,
            "velocity": 0.3937007874015748
          },
          {
            "duration": 0.042856999999997925,
            "durationTicks": 96,
            "midi": 35,
            "name": "B1",
            "ticks": 269760,
            "time": 120.42817,
            "velocity": 0.3937007874015748
          },
          {
            "duration": 0.042856999999997925,
            "durationTicks": 96,
            "midi": 35,
            "name": "B1",
            "ticks": 269952,
            "time": 120.513884,
            "velocity": 0.3937007874015748
          },
          {
            "duration": 0.042856999999997925,
            "durationTicks": 96,
            "midi": 35,
            "name": "B1",
            "ticks": 270144,
            "time": 120.599598,
            "velocity": 0.3937007874015748
          },
          {
            "duration": 0.042856999999997925,
            "durationTicks": 96,
            "midi": 35,
            "name": "B1",
            "ticks": 270336,
            "time": 120.685312,
            "velocity": 0.3937007874015748
          },
          {
            "duration": 0.042857000000012135,
            "durationTicks": 96,
            "midi": 35,
            "name": "B1",
            "ticks": 270528,
            "time": 120.77102599999999,
            "velocity": 0.3937007874015748
          },
          {
            "duration": 0.042856999999997925,
            "durationTicks": 96,
            "midi": 35,
            "name": "B1",
            "ticks": 270720,
            "time": 120.85674,
            "velocity": 0.3937007874015748
          },
          {
            "duration": 0.042856999999997925,
            "durationTicks": 96,
            "midi": 35,
            "name": "B1",
            "ticks": 270912,
            "time": 120.942454,
            "velocity": 0.3937007874015748
          },
          {
            "duration": 0.042856999999997925,
            "durationTicks": 96,
            "midi": 35,
            "name": "B1",
            "ticks": 271104,
            "time": 121.028168,
            "velocity": 0.3937007874015748
          },
          {
            "duration": 0.042856999999997925,
            "durationTicks": 96,
            "midi": 35,
            "name": "B1",
            "ticks": 271296,
            "time": 121.113882,
            "velocity": 0.3937007874015748
          },
          {
            "duration": 0.042856999999997925,
            "durationTicks": 96,
            "midi": 35,
            "name": "B1",
            "ticks": 271488,
            "time": 121.199596,
            "velocity": 0.3937007874015748
          },
          {
            "duration": 0.042856999999997925,
            "durationTicks": 96,
            "midi": 35,
            "name": "B1",
            "ticks": 271680,
            "time": 121.28531,
            "velocity": 0.3937007874015748
          },
          {
            "duration": 0.042857000000012135,
            "durationTicks": 96,
            "midi": 35,
            "name": "B1",
            "ticks": 271872,
            "time": 121.37102399999999,
            "velocity": 0.3937007874015748
          },
          {
            "duration": 0.042856999999997925,
            "durationTicks": 96,
            "midi": 40,
            "name": "E2",
            "ticks": 272064,
            "time": 121.456738,
            "velocity": 0.3937007874015748
          },
          {
            "duration": 0.042856999999997925,
            "durationTicks": 96,
            "midi": 40,
            "name": "E2",
            "ticks": 272256,
            "time": 121.542452,
            "velocity": 0.3937007874015748
          },
          {
            "duration": 0.042856999999997925,
            "durationTicks": 96,
            "midi": 40,
            "name": "E2",
            "ticks": 272448,
            "time": 121.628166,
            "velocity": 0.3937007874015748
          },
          {
            "duration": 0.042856999999997925,
            "durationTicks": 96,
            "midi": 40,
            "name": "E2",
            "ticks": 272640,
            "time": 121.71388,
            "velocity": 0.3937007874015748
          },
          {
            "duration": 0.042856999999997925,
            "durationTicks": 96,
            "midi": 38,
            "name": "D2",
            "ticks": 272832,
            "time": 121.799594,
            "velocity": 0.3937007874015748
          },
          {
            "duration": 0.042856999999997925,
            "durationTicks": 96,
            "midi": 38,
            "name": "D2",
            "ticks": 273024,
            "time": 121.885308,
            "velocity": 0.3937007874015748
          },
          {
            "duration": 0.042856999999997925,
            "durationTicks": 96,
            "midi": 38,
            "name": "D2",
            "ticks": 273216,
            "time": 121.971022,
            "velocity": 0.3937007874015748
          },
          {
            "duration": 0.042856999999997925,
            "durationTicks": 96,
            "midi": 38,
            "name": "D2",
            "ticks": 273408,
            "time": 122.056736,
            "velocity": 0.3937007874015748
          },
          {
            "duration": 0.042856999999997925,
            "durationTicks": 96,
            "midi": 36,
            "name": "C2",
            "ticks": 273600,
            "time": 122.14245,
            "velocity": 0.3937007874015748
          },
          {
            "duration": 0.042857000000012135,
            "durationTicks": 96,
            "midi": 36,
            "name": "C2",
            "ticks": 273792,
            "time": 122.22816399999999,
            "velocity": 0.3937007874015748
          },
          {
            "duration": 0.042856999999997925,
            "durationTicks": 96,
            "midi": 36,
            "name": "C2",
            "ticks": 273984,
            "time": 122.313878,
            "velocity": 0.3937007874015748
          },
          {
            "duration": 0.042856999999997925,
            "durationTicks": 96,
            "midi": 36,
            "name": "C2",
            "ticks": 274176,
            "time": 122.399592,
            "velocity": 0.3937007874015748
          },
          {
            "duration": 0.042856999999997925,
            "durationTicks": 96,
            "midi": 35,
            "name": "B1",
            "ticks": 274368,
            "time": 122.485306,
            "velocity": 0.3937007874015748
          },
          {
            "duration": 0.042856999999997925,
            "durationTicks": 96,
            "midi": 35,
            "name": "B1",
            "ticks": 274560,
            "time": 122.57102,
            "velocity": 0.3937007874015748
          },
          {
            "duration": 0.042856999999997925,
            "durationTicks": 96,
            "midi": 35,
            "name": "B1",
            "ticks": 274752,
            "time": 122.656734,
            "velocity": 0.3937007874015748
          },
          {
            "duration": 0.042856999999997925,
            "durationTicks": 96,
            "midi": 35,
            "name": "B1",
            "ticks": 274944,
            "time": 122.742448,
            "velocity": 0.3937007874015748
          },
          {
            "duration": 0.042857000000012135,
            "durationTicks": 96,
            "midi": 33,
            "name": "A1",
            "ticks": 275136,
            "time": 122.82816199999999,
            "velocity": 0.3937007874015748
          },
          {
            "duration": 0.042856999999997925,
            "durationTicks": 96,
            "midi": 33,
            "name": "A1",
            "ticks": 275328,
            "time": 122.913876,
            "velocity": 0.3937007874015748
          },
          {
            "duration": 0.042856999999997925,
            "durationTicks": 96,
            "midi": 33,
            "name": "A1",
            "ticks": 275520,
            "time": 122.99959,
            "velocity": 0.3937007874015748
          },
          {
            "duration": 0.042856999999997925,
            "durationTicks": 96,
            "midi": 33,
            "name": "A1",
            "ticks": 275712,
            "time": 123.085304,
            "velocity": 0.3937007874015748
          },
          {
            "duration": 0.042856999999997925,
            "durationTicks": 96,
            "midi": 33,
            "name": "A1",
            "ticks": 275904,
            "time": 123.171018,
            "velocity": 0.3937007874015748
          },
          {
            "duration": 0.042856999999997925,
            "durationTicks": 96,
            "midi": 33,
            "name": "A1",
            "ticks": 276096,
            "time": 123.256732,
            "velocity": 0.3937007874015748
          },
          {
            "duration": 0.042856999999997925,
            "durationTicks": 96,
            "midi": 33,
            "name": "A1",
            "ticks": 276288,
            "time": 123.342446,
            "velocity": 0.3937007874015748
          },
          {
            "duration": 0.042857000000012135,
            "durationTicks": 96,
            "midi": 33,
            "name": "A1",
            "ticks": 276480,
            "time": 123.42815999999999,
            "velocity": 0.3937007874015748
          },
          {
            "duration": 0.042856999999997925,
            "durationTicks": 96,
            "midi": 33,
            "name": "A1",
            "ticks": 276672,
            "time": 123.513874,
            "velocity": 0.3937007874015748
          },
          {
            "duration": 0.042856999999997925,
            "durationTicks": 96,
            "midi": 33,
            "name": "A1",
            "ticks": 276864,
            "time": 123.599588,
            "velocity": 0.3937007874015748
          },
          {
            "duration": 0.042856999999997925,
            "durationTicks": 96,
            "midi": 33,
            "name": "A1",
            "ticks": 277056,
            "time": 123.685302,
            "velocity": 0.3937007874015748
          },
          {
            "duration": 0.042856999999997925,
            "durationTicks": 96,
            "midi": 33,
            "name": "A1",
            "ticks": 277248,
            "time": 123.771016,
            "velocity": 0.3937007874015748
          },
          {
            "duration": 0.042856999999997925,
            "durationTicks": 96,
            "midi": 33,
            "name": "A1",
            "ticks": 277440,
            "time": 123.85673,
            "velocity": 0.3937007874015748
          },
          {
            "duration": 0.042856999999997925,
            "durationTicks": 96,
            "midi": 33,
            "name": "A1",
            "ticks": 277632,
            "time": 123.942444,
            "velocity": 0.3937007874015748
          },
          {
            "duration": 0.042856999999997925,
            "durationTicks": 96,
            "midi": 33,
            "name": "A1",
            "ticks": 277824,
            "time": 124.028158,
            "velocity": 0.3937007874015748
          },
          {
            "duration": 0.042856999999997925,
            "durationTicks": 96,
            "midi": 33,
            "name": "A1",
            "ticks": 278016,
            "time": 124.113872,
            "velocity": 0.3937007874015748
          },
          {
            "duration": 0.042856999999997925,
            "durationTicks": 96,
            "midi": 36,
            "name": "C2",
            "ticks": 278208,
            "time": 124.199586,
            "velocity": 0.3937007874015748
          },
          {
            "duration": 0.042857000000012135,
            "durationTicks": 96,
            "midi": 36,
            "name": "C2",
            "ticks": 278400,
            "time": 124.28529999999999,
            "velocity": 0.3937007874015748
          },
          {
            "duration": 0.042856999999997925,
            "durationTicks": 96,
            "midi": 36,
            "name": "C2",
            "ticks": 278592,
            "time": 124.371014,
            "velocity": 0.3937007874015748
          },
          {
            "duration": 0.042856999999997925,
            "durationTicks": 96,
            "midi": 36,
            "name": "C2",
            "ticks": 278784,
            "time": 124.456728,
            "velocity": 0.3937007874015748
          },
          {
            "duration": 0.042856999999997925,
            "durationTicks": 96,
            "midi": 36,
            "name": "C2",
            "ticks": 278976,
            "time": 124.542442,
            "velocity": 0.3937007874015748
          },
          {
            "duration": 0.042856999999997925,
            "durationTicks": 96,
            "midi": 36,
            "name": "C2",
            "ticks": 279168,
            "time": 124.628156,
            "velocity": 0.3937007874015748
          },
          {
            "duration": 0.042856999999997925,
            "durationTicks": 96,
            "midi": 36,
            "name": "C2",
            "ticks": 279360,
            "time": 124.71387,
            "velocity": 0.3937007874015748
          },
          {
            "duration": 0.042856999999997925,
            "durationTicks": 96,
            "midi": 36,
            "name": "C2",
            "ticks": 279552,
            "time": 124.799584,
            "velocity": 0.3937007874015748
          },
          {
            "duration": 0.042857000000012135,
            "durationTicks": 96,
            "midi": 36,
            "name": "C2",
            "ticks": 279744,
            "time": 124.88529799999999,
            "velocity": 0.3937007874015748
          },
          {
            "duration": 0.042856999999997925,
            "durationTicks": 96,
            "midi": 36,
            "name": "C2",
            "ticks": 279936,
            "time": 124.971012,
            "velocity": 0.3937007874015748
          },
          {
            "duration": 0.042856999999997925,
            "durationTicks": 96,
            "midi": 36,
            "name": "C2",
            "ticks": 280128,
            "time": 125.056726,
            "velocity": 0.3937007874015748
          },
          {
            "duration": 0.042856999999997925,
            "durationTicks": 96,
            "midi": 36,
            "name": "C2",
            "ticks": 280320,
            "time": 125.14244,
            "velocity": 0.3937007874015748
          },
          {
            "duration": 0.042856999999997925,
            "durationTicks": 96,
            "midi": 36,
            "name": "C2",
            "ticks": 280512,
            "time": 125.228154,
            "velocity": 0.3937007874015748
          },
          {
            "duration": 0.042856999999997925,
            "durationTicks": 96,
            "midi": 36,
            "name": "C2",
            "ticks": 280704,
            "time": 125.313868,
            "velocity": 0.3937007874015748
          },
          {
            "duration": 0.042856999999997925,
            "durationTicks": 96,
            "midi": 36,
            "name": "C2",
            "ticks": 280896,
            "time": 125.399582,
            "velocity": 0.3937007874015748
          },
          {
            "duration": 0.042857000000012135,
            "durationTicks": 96,
            "midi": 36,
            "name": "C2",
            "ticks": 281088,
            "time": 125.48529599999999,
            "velocity": 0.3937007874015748
          },
          {
            "duration": 0.042856999999997925,
            "durationTicks": 96,
            "midi": 41,
            "name": "F2",
            "ticks": 281280,
            "time": 125.57101,
            "velocity": 0.3937007874015748
          },
          {
            "duration": 0.042856999999997925,
            "durationTicks": 96,
            "midi": 41,
            "name": "F2",
            "ticks": 281472,
            "time": 125.656724,
            "velocity": 0.3937007874015748
          },
          {
            "duration": 0.042856999999997925,
            "durationTicks": 96,
            "midi": 41,
            "name": "F2",
            "ticks": 281664,
            "time": 125.74243799999999,
            "velocity": 0.3937007874015748
          },
          {
            "duration": 0.042856999999997925,
            "durationTicks": 96,
            "midi": 41,
            "name": "F2",
            "ticks": 281856,
            "time": 125.828152,
            "velocity": 0.3937007874015748
          },
          {
            "duration": 0.042856999999997925,
            "durationTicks": 96,
            "midi": 41,
            "name": "F2",
            "ticks": 282048,
            "time": 125.913866,
            "velocity": 0.3937007874015748
          },
          {
            "duration": 0.042856999999997925,
            "durationTicks": 96,
            "midi": 41,
            "name": "F2",
            "ticks": 282240,
            "time": 125.99958,
            "velocity": 0.3937007874015748
          },
          {
            "duration": 0.042856999999997925,
            "durationTicks": 96,
            "midi": 41,
            "name": "F2",
            "ticks": 282432,
            "time": 126.085294,
            "velocity": 0.3937007874015748
          },
          {
            "duration": 0.042856999999997925,
            "durationTicks": 96,
            "midi": 41,
            "name": "F2",
            "ticks": 282624,
            "time": 126.171008,
            "velocity": 0.3937007874015748
          },
          {
            "duration": 0.042856999999997925,
            "durationTicks": 96,
            "midi": 41,
            "name": "F2",
            "ticks": 282816,
            "time": 126.256722,
            "velocity": 0.3937007874015748
          },
          {
            "duration": 0.042857000000012135,
            "durationTicks": 96,
            "midi": 41,
            "name": "F2",
            "ticks": 283008,
            "time": 126.34243599999999,
            "velocity": 0.3937007874015748
          },
          {
            "duration": 0.042856999999997925,
            "durationTicks": 96,
            "midi": 41,
            "name": "F2",
            "ticks": 283200,
            "time": 126.42815,
            "velocity": 0.3937007874015748
          },
          {
            "duration": 0.042856999999997925,
            "durationTicks": 96,
            "midi": 41,
            "name": "F2",
            "ticks": 283392,
            "time": 126.513864,
            "velocity": 0.3937007874015748
          },
          {
            "duration": 0.042856999999997925,
            "durationTicks": 96,
            "midi": 41,
            "name": "F2",
            "ticks": 283584,
            "time": 126.599578,
            "velocity": 0.3937007874015748
          },
          {
            "duration": 0.042856999999997925,
            "durationTicks": 96,
            "midi": 41,
            "name": "F2",
            "ticks": 283776,
            "time": 126.685292,
            "velocity": 0.3937007874015748
          },
          {
            "duration": 0.042856999999997925,
            "durationTicks": 96,
            "midi": 41,
            "name": "F2",
            "ticks": 283968,
            "time": 126.771006,
            "velocity": 0.3937007874015748
          },
          {
            "duration": 0.042856999999997925,
            "durationTicks": 96,
            "midi": 41,
            "name": "F2",
            "ticks": 284160,
            "time": 126.85672,
            "velocity": 0.3937007874015748
          },
          {
            "duration": 0.042857000000012135,
            "durationTicks": 96,
            "midi": 40,
            "name": "E2",
            "ticks": 284352,
            "time": 126.94243399999999,
            "velocity": 0.3937007874015748
          },
          {
            "duration": 0.042856999999997925,
            "durationTicks": 96,
            "midi": 40,
            "name": "E2",
            "ticks": 284544,
            "time": 127.028148,
            "velocity": 0.3937007874015748
          },
          {
            "duration": 0.042856999999997925,
            "durationTicks": 96,
            "midi": 40,
            "name": "E2",
            "ticks": 284736,
            "time": 127.113862,
            "velocity": 0.3937007874015748
          },
          {
            "duration": 0.042856999999997925,
            "durationTicks": 96,
            "midi": 40,
            "name": "E2",
            "ticks": 284928,
            "time": 127.199576,
            "velocity": 0.3937007874015748
          },
          {
            "duration": 0.042856999999997925,
            "durationTicks": 96,
            "midi": 40,
            "name": "E2",
            "ticks": 285120,
            "time": 127.28529,
            "velocity": 0.3937007874015748
          },
          {
            "duration": 0.042856999999997925,
            "durationTicks": 96,
            "midi": 40,
            "name": "E2",
            "ticks": 285312,
            "time": 127.371004,
            "velocity": 0.3937007874015748
          },
          {
            "duration": 0.042856999999997925,
            "durationTicks": 96,
            "midi": 40,
            "name": "E2",
            "ticks": 285504,
            "time": 127.456718,
            "velocity": 0.3937007874015748
          },
          {
            "duration": 0.042857000000012135,
            "durationTicks": 96,
            "midi": 40,
            "name": "E2",
            "ticks": 285696,
            "time": 127.54243199999999,
            "velocity": 0.3937007874015748
          },
          {
            "duration": 0.042856999999997925,
            "durationTicks": 96,
            "midi": 40,
            "name": "E2",
            "ticks": 285888,
            "time": 127.628146,
            "velocity": 0.3937007874015748
          },
          {
            "duration": 0.042856999999997925,
            "durationTicks": 96,
            "midi": 40,
            "name": "E2",
            "ticks": 286080,
            "time": 127.71386,
            "velocity": 0.3937007874015748
          },
          {
            "duration": 0.042857000000012135,
            "durationTicks": 96,
            "midi": 40,
            "name": "E2",
            "ticks": 286272,
            "time": 127.79957399999999,
            "velocity": 0.3937007874015748
          },
          {
            "duration": 0.042856999999997925,
            "durationTicks": 96,
            "midi": 40,
            "name": "E2",
            "ticks": 286464,
            "time": 127.885288,
            "velocity": 0.3937007874015748
          },
          {
            "duration": 0.042856999999997925,
            "durationTicks": 96,
            "midi": 40,
            "name": "E2",
            "ticks": 286656,
            "time": 127.971002,
            "velocity": 0.3937007874015748
          },
          {
            "duration": 0.042856999999997925,
            "durationTicks": 96,
            "midi": 40,
            "name": "E2",
            "ticks": 286848,
            "time": 128.056716,
            "velocity": 0.3937007874015748
          },
          {
            "duration": 0.042856999999997925,
            "durationTicks": 96,
            "midi": 40,
            "name": "E2",
            "ticks": 287040,
            "time": 128.14243,
            "velocity": 0.3937007874015748
          },
          {
            "duration": 0.042856999999997925,
            "durationTicks": 96,
            "midi": 40,
            "name": "E2",
            "ticks": 287232,
            "time": 128.228144,
            "velocity": 0.3937007874015748
          },
          {
            "duration": 0.042856999999997925,
            "durationTicks": 96,
            "midi": 33,
            "name": "A1",
            "ticks": 287424,
            "time": 128.313858,
            "velocity": 0.3937007874015748
          },
          {
            "duration": 0.042856999999997925,
            "durationTicks": 96,
            "midi": 45,
            "name": "A2",
            "ticks": 287424,
            "time": 128.313858,
            "velocity": 0.3937007874015748
          },
          {
            "duration": 0.042856999999997925,
            "durationTicks": 96,
            "midi": 45,
            "name": "A2",
            "ticks": 287616,
            "time": 128.399572,
            "velocity": 0.3937007874015748
          },
          {
            "duration": 0.042856999999997925,
            "durationTicks": 96,
            "midi": 33,
            "name": "A1",
            "ticks": 287616,
            "time": 128.399572,
            "velocity": 0.3937007874015748
          },
          {
            "duration": 0.042856999999997925,
            "durationTicks": 96,
            "midi": 33,
            "name": "A1",
            "ticks": 287808,
            "time": 128.485286,
            "velocity": 0.3937007874015748
          },
          {
            "duration": 0.042856999999997925,
            "durationTicks": 96,
            "midi": 45,
            "name": "A2",
            "ticks": 287808,
            "time": 128.485286,
            "velocity": 0.3937007874015748
          },
          {
            "duration": 0.042856999999997925,
            "durationTicks": 96,
            "midi": 45,
            "name": "A2",
            "ticks": 288000,
            "time": 128.571,
            "velocity": 0.3937007874015748
          },
          {
            "duration": 0.042856999999997925,
            "durationTicks": 96,
            "midi": 33,
            "name": "A1",
            "ticks": 288000,
            "time": 128.571,
            "velocity": 0.3937007874015748
          },
          {
            "duration": 0.042856999999997925,
            "durationTicks": 96,
            "midi": 45,
            "name": "A2",
            "ticks": 288192,
            "time": 128.656714,
            "velocity": 0.3937007874015748
          },
          {
            "duration": 0.042856999999997925,
            "durationTicks": 96,
            "midi": 33,
            "name": "A1",
            "ticks": 288192,
            "time": 128.656714,
            "velocity": 0.3937007874015748
          },
          {
            "duration": 0.042856999999997925,
            "durationTicks": 96,
            "midi": 45,
            "name": "A2",
            "ticks": 288384,
            "time": 128.742428,
            "velocity": 0.3937007874015748
          },
          {
            "duration": 0.042856999999997925,
            "durationTicks": 96,
            "midi": 33,
            "name": "A1",
            "ticks": 288384,
            "time": 128.742428,
            "velocity": 0.3937007874015748
          },
          {
            "duration": 0.042857000000026346,
            "durationTicks": 96,
            "midi": 45,
            "name": "A2",
            "ticks": 288576,
            "time": 128.82814199999999,
            "velocity": 0.3937007874015748
          },
          {
            "duration": 0.042857000000026346,
            "durationTicks": 96,
            "midi": 33,
            "name": "A1",
            "ticks": 288576,
            "time": 128.82814199999999,
            "velocity": 0.3937007874015748
          },
          {
            "duration": 0.042856999999997925,
            "durationTicks": 96,
            "midi": 45,
            "name": "A2",
            "ticks": 288768,
            "time": 128.913856,
            "velocity": 0.3937007874015748
          },
          {
            "duration": 0.042856999999997925,
            "durationTicks": 96,
            "midi": 33,
            "name": "A1",
            "ticks": 288768,
            "time": 128.913856,
            "velocity": 0.3937007874015748
          },
          {
            "duration": 0.042856999999997925,
            "durationTicks": 96,
            "midi": 33,
            "name": "A1",
            "ticks": 288960,
            "time": 128.99957,
            "velocity": 0.3937007874015748
          },
          {
            "duration": 0.042856999999997925,
            "durationTicks": 96,
            "midi": 45,
            "name": "A2",
            "ticks": 288960,
            "time": 128.99957,
            "velocity": 0.3937007874015748
          },
          {
            "duration": 0.042856999999997925,
            "durationTicks": 96,
            "midi": 45,
            "name": "A2",
            "ticks": 289152,
            "time": 129.085284,
            "velocity": 0.3937007874015748
          },
          {
            "duration": 0.042856999999997925,
            "durationTicks": 96,
            "midi": 33,
            "name": "A1",
            "ticks": 289152,
            "time": 129.085284,
            "velocity": 0.3937007874015748
          },
          {
            "duration": 0.042856999999997925,
            "durationTicks": 96,
            "midi": 33,
            "name": "A1",
            "ticks": 289344,
            "time": 129.170998,
            "velocity": 0.3937007874015748
          },
          {
            "duration": 0.042856999999997925,
            "durationTicks": 96,
            "midi": 45,
            "name": "A2",
            "ticks": 289344,
            "time": 129.170998,
            "velocity": 0.3937007874015748
          },
          {
            "duration": 0.042856999999997925,
            "durationTicks": 96,
            "midi": 33,
            "name": "A1",
            "ticks": 289536,
            "time": 129.256712,
            "velocity": 0.3937007874015748
          },
          {
            "duration": 0.042856999999997925,
            "durationTicks": 96,
            "midi": 45,
            "name": "A2",
            "ticks": 289536,
            "time": 129.256712,
            "velocity": 0.3937007874015748
          },
          {
            "duration": 0.042856999999997925,
            "durationTicks": 96,
            "midi": 33,
            "name": "A1",
            "ticks": 289728,
            "time": 129.342426,
            "velocity": 0.3937007874015748
          },
          {
            "duration": 0.042856999999997925,
            "durationTicks": 96,
            "midi": 45,
            "name": "A2",
            "ticks": 289728,
            "time": 129.342426,
            "velocity": 0.3937007874015748
          },
          {
            "duration": 0.042857000000026346,
            "durationTicks": 96,
            "midi": 33,
            "name": "A1",
            "ticks": 289920,
            "time": 129.42813999999998,
            "velocity": 0.3937007874015748
          },
          {
            "duration": 0.042857000000026346,
            "durationTicks": 96,
            "midi": 45,
            "name": "A2",
            "ticks": 289920,
            "time": 129.42813999999998,
            "velocity": 0.3937007874015748
          },
          {
            "duration": 0.042856999999997925,
            "durationTicks": 96,
            "midi": 45,
            "name": "A2",
            "ticks": 290112,
            "time": 129.513854,
            "velocity": 0.3937007874015748
          },
          {
            "duration": 0.042856999999997925,
            "durationTicks": 96,
            "midi": 33,
            "name": "A1",
            "ticks": 290112,
            "time": 129.513854,
            "velocity": 0.3937007874015748
          },
          {
            "duration": 0.042856999999997925,
            "durationTicks": 96,
            "midi": 45,
            "name": "A2",
            "ticks": 290304,
            "time": 129.599568,
            "velocity": 0.3937007874015748
          },
          {
            "duration": 0.042856999999997925,
            "durationTicks": 96,
            "midi": 33,
            "name": "A1",
            "ticks": 290304,
            "time": 129.599568,
            "velocity": 0.3937007874015748
          },
          {
            "duration": 0.042856999999997925,
            "durationTicks": 96,
            "midi": 36,
            "name": "C2",
            "ticks": 290496,
            "time": 129.685282,
            "velocity": 0.3937007874015748
          },
          {
            "duration": 0.042856999999997925,
            "durationTicks": 96,
            "midi": 48,
            "name": "C3",
            "ticks": 290496,
            "time": 129.685282,
            "velocity": 0.3937007874015748
          },
          {
            "duration": 0.042856999999997925,
            "durationTicks": 96,
            "midi": 36,
            "name": "C2",
            "ticks": 290688,
            "time": 129.770996,
            "velocity": 0.3937007874015748
          },
          {
            "duration": 0.042856999999997925,
            "durationTicks": 96,
            "midi": 48,
            "name": "C3",
            "ticks": 290688,
            "time": 129.770996,
            "velocity": 0.3937007874015748
          },
          {
            "duration": 0.042856999999997925,
            "durationTicks": 96,
            "midi": 48,
            "name": "C3",
            "ticks": 290880,
            "time": 129.85671,
            "velocity": 0.3937007874015748
          },
          {
            "duration": 0.042856999999997925,
            "durationTicks": 96,
            "midi": 36,
            "name": "C2",
            "ticks": 290880,
            "time": 129.85671,
            "velocity": 0.3937007874015748
          },
          {
            "duration": 0.042856999999997925,
            "durationTicks": 96,
            "midi": 48,
            "name": "C3",
            "ticks": 291072,
            "time": 129.942424,
            "velocity": 0.3937007874015748
          },
          {
            "duration": 0.042856999999997925,
            "durationTicks": 96,
            "midi": 36,
            "name": "C2",
            "ticks": 291072,
            "time": 129.942424,
            "velocity": 0.3937007874015748
          },
          {
            "duration": 0.042857000000026346,
            "durationTicks": 96,
            "midi": 36,
            "name": "C2",
            "ticks": 291264,
            "time": 130.02813799999998,
            "velocity": 0.3937007874015748
          },
          {
            "duration": 0.042857000000026346,
            "durationTicks": 96,
            "midi": 48,
            "name": "C3",
            "ticks": 291264,
            "time": 130.02813799999998,
            "velocity": 0.3937007874015748
          },
          {
            "duration": 0.042856999999997925,
            "durationTicks": 96,
            "midi": 48,
            "name": "C3",
            "ticks": 291456,
            "time": 130.113852,
            "velocity": 0.3937007874015748
          },
          {
            "duration": 0.042856999999997925,
            "durationTicks": 96,
            "midi": 36,
            "name": "C2",
            "ticks": 291456,
            "time": 130.113852,
            "velocity": 0.3937007874015748
          },
          {
            "duration": 0.042856999999997925,
            "durationTicks": 96,
            "midi": 48,
            "name": "C3",
            "ticks": 291648,
            "time": 130.199566,
            "velocity": 0.3937007874015748
          },
          {
            "duration": 0.042856999999997925,
            "durationTicks": 96,
            "midi": 36,
            "name": "C2",
            "ticks": 291648,
            "time": 130.199566,
            "velocity": 0.3937007874015748
          },
          {
            "duration": 0.042856999999997925,
            "durationTicks": 96,
            "midi": 36,
            "name": "C2",
            "ticks": 291840,
            "time": 130.28528,
            "velocity": 0.3937007874015748
          },
          {
            "duration": 0.042856999999997925,
            "durationTicks": 96,
            "midi": 48,
            "name": "C3",
            "ticks": 291840,
            "time": 130.28528,
            "velocity": 0.3937007874015748
          },
          {
            "duration": 0.042856999999997925,
            "durationTicks": 96,
            "midi": 36,
            "name": "C2",
            "ticks": 292032,
            "time": 130.370994,
            "velocity": 0.3937007874015748
          },
          {
            "duration": 0.042856999999997925,
            "durationTicks": 96,
            "midi": 48,
            "name": "C3",
            "ticks": 292032,
            "time": 130.370994,
            "velocity": 0.3937007874015748
          },
          {
            "duration": 0.042856999999997925,
            "durationTicks": 96,
            "midi": 48,
            "name": "C3",
            "ticks": 292224,
            "time": 130.456708,
            "velocity": 0.3937007874015748
          },
          {
            "duration": 0.042856999999997925,
            "durationTicks": 96,
            "midi": 36,
            "name": "C2",
            "ticks": 292224,
            "time": 130.456708,
            "velocity": 0.3937007874015748
          },
          {
            "duration": 0.042856999999997925,
            "durationTicks": 96,
            "midi": 36,
            "name": "C2",
            "ticks": 292416,
            "time": 130.542422,
            "velocity": 0.3937007874015748
          },
          {
            "duration": 0.042856999999997925,
            "durationTicks": 96,
            "midi": 48,
            "name": "C3",
            "ticks": 292416,
            "time": 130.542422,
            "velocity": 0.3937007874015748
          },
          {
            "duration": 0.042857000000026346,
            "durationTicks": 96,
            "midi": 48,
            "name": "C3",
            "ticks": 292608,
            "time": 130.62813599999998,
            "velocity": 0.3937007874015748
          },
          {
            "duration": 0.042857000000026346,
            "durationTicks": 96,
            "midi": 36,
            "name": "C2",
            "ticks": 292608,
            "time": 130.62813599999998,
            "velocity": 0.3937007874015748
          },
          {
            "duration": 0.042856999999997925,
            "durationTicks": 96,
            "midi": 48,
            "name": "C3",
            "ticks": 292800,
            "time": 130.71385,
            "velocity": 0.3937007874015748
          },
          {
            "duration": 0.042856999999997925,
            "durationTicks": 96,
            "midi": 36,
            "name": "C2",
            "ticks": 292800,
            "time": 130.71385,
            "velocity": 0.3937007874015748
          },
          {
            "duration": 0.042856999999997925,
            "durationTicks": 96,
            "midi": 48,
            "name": "C3",
            "ticks": 292992,
            "time": 130.799564,
            "velocity": 0.3937007874015748
          },
          {
            "duration": 0.042856999999997925,
            "durationTicks": 96,
            "midi": 36,
            "name": "C2",
            "ticks": 292992,
            "time": 130.799564,
            "velocity": 0.3937007874015748
          },
          {
            "duration": 0.042856999999997925,
            "durationTicks": 96,
            "midi": 36,
            "name": "C2",
            "ticks": 293184,
            "time": 130.885278,
            "velocity": 0.3937007874015748
          },
          {
            "duration": 0.042856999999997925,
            "durationTicks": 96,
            "midi": 48,
            "name": "C3",
            "ticks": 293184,
            "time": 130.885278,
            "velocity": 0.3937007874015748
          },
          {
            "duration": 0.042856999999997925,
            "durationTicks": 96,
            "midi": 48,
            "name": "C3",
            "ticks": 293376,
            "time": 130.970992,
            "velocity": 0.3937007874015748
          },
          {
            "duration": 0.042856999999997925,
            "durationTicks": 96,
            "midi": 36,
            "name": "C2",
            "ticks": 293376,
            "time": 130.970992,
            "velocity": 0.3937007874015748
          },
          {
            "duration": 0.042856999999997925,
            "durationTicks": 96,
            "midi": 35,
            "name": "B1",
            "ticks": 293568,
            "time": 131.056706,
            "velocity": 0.3937007874015748
          },
          {
            "duration": 0.042856999999997925,
            "durationTicks": 96,
            "midi": 47,
            "name": "B2",
            "ticks": 293568,
            "time": 131.056706,
            "velocity": 0.3937007874015748
          },
          {
            "duration": 0.042856999999997925,
            "durationTicks": 96,
            "midi": 35,
            "name": "B1",
            "ticks": 293760,
            "time": 131.14242,
            "velocity": 0.3937007874015748
          },
          {
            "duration": 0.042856999999997925,
            "durationTicks": 96,
            "midi": 47,
            "name": "B2",
            "ticks": 293760,
            "time": 131.14242,
            "velocity": 0.3937007874015748
          },
          {
            "duration": 0.042856999999997925,
            "durationTicks": 96,
            "midi": 47,
            "name": "B2",
            "ticks": 293952,
            "time": 131.228134,
            "velocity": 0.3937007874015748
          },
          {
            "duration": 0.042856999999997925,
            "durationTicks": 96,
            "midi": 35,
            "name": "B1",
            "ticks": 293952,
            "time": 131.228134,
            "velocity": 0.3937007874015748
          },
          {
            "duration": 0.042856999999997925,
            "durationTicks": 96,
            "midi": 47,
            "name": "B2",
            "ticks": 294144,
            "time": 131.313848,
            "velocity": 0.3937007874015748
          },
          {
            "duration": 0.042856999999997925,
            "durationTicks": 96,
            "midi": 35,
            "name": "B1",
            "ticks": 294144,
            "time": 131.313848,
            "velocity": 0.3937007874015748
          },
          {
            "duration": 0.042856999999997925,
            "durationTicks": 96,
            "midi": 35,
            "name": "B1",
            "ticks": 294336,
            "time": 131.399562,
            "velocity": 0.3937007874015748
          },
          {
            "duration": 0.042856999999997925,
            "durationTicks": 96,
            "midi": 47,
            "name": "B2",
            "ticks": 294336,
            "time": 131.399562,
            "velocity": 0.3937007874015748
          },
          {
            "duration": 0.042856999999997925,
            "durationTicks": 96,
            "midi": 35,
            "name": "B1",
            "ticks": 294528,
            "time": 131.485276,
            "velocity": 0.3937007874015748
          },
          {
            "duration": 0.042856999999997925,
            "durationTicks": 96,
            "midi": 47,
            "name": "B2",
            "ticks": 294528,
            "time": 131.485276,
            "velocity": 0.3937007874015748
          },
          {
            "duration": 0.042856999999997925,
            "durationTicks": 96,
            "midi": 35,
            "name": "B1",
            "ticks": 294720,
            "time": 131.57099,
            "velocity": 0.3937007874015748
          },
          {
            "duration": 0.042856999999997925,
            "durationTicks": 96,
            "midi": 47,
            "name": "B2",
            "ticks": 294720,
            "time": 131.57099,
            "velocity": 0.3937007874015748
          },
          {
            "duration": 0.042856999999997925,
            "durationTicks": 96,
            "midi": 35,
            "name": "B1",
            "ticks": 294912,
            "time": 131.656704,
            "velocity": 0.3937007874015748
          },
          {
            "duration": 0.042856999999997925,
            "durationTicks": 96,
            "midi": 47,
            "name": "B2",
            "ticks": 294912,
            "time": 131.656704,
            "velocity": 0.3937007874015748
          },
          {
            "duration": 0.042856999999997925,
            "durationTicks": 96,
            "midi": 47,
            "name": "B2",
            "ticks": 295104,
            "time": 131.742418,
            "velocity": 0.3937007874015748
          },
          {
            "duration": 0.042856999999997925,
            "durationTicks": 96,
            "midi": 35,
            "name": "B1",
            "ticks": 295104,
            "time": 131.742418,
            "velocity": 0.3937007874015748
          },
          {
            "duration": 0.042856999999997925,
            "durationTicks": 96,
            "midi": 35,
            "name": "B1",
            "ticks": 295296,
            "time": 131.828132,
            "velocity": 0.3937007874015748
          },
          {
            "duration": 0.042856999999997925,
            "durationTicks": 96,
            "midi": 47,
            "name": "B2",
            "ticks": 295296,
            "time": 131.828132,
            "velocity": 0.3937007874015748
          },
          {
            "duration": 0.042856999999997925,
            "durationTicks": 96,
            "midi": 47,
            "name": "B2",
            "ticks": 295488,
            "time": 131.913846,
            "velocity": 0.3937007874015748
          },
          {
            "duration": 0.042856999999997925,
            "durationTicks": 96,
            "midi": 35,
            "name": "B1",
            "ticks": 295488,
            "time": 131.913846,
            "velocity": 0.3937007874015748
          },
          {
            "duration": 0.042856999999997925,
            "durationTicks": 96,
            "midi": 47,
            "name": "B2",
            "ticks": 295680,
            "time": 131.99956,
            "velocity": 0.3937007874015748
          },
          {
            "duration": 0.042856999999997925,
            "durationTicks": 96,
            "midi": 35,
            "name": "B1",
            "ticks": 295680,
            "time": 131.99956,
            "velocity": 0.3937007874015748
          },
          {
            "duration": 0.042856999999997925,
            "durationTicks": 96,
            "midi": 35,
            "name": "B1",
            "ticks": 295872,
            "time": 132.085274,
            "velocity": 0.3937007874015748
          },
          {
            "duration": 0.042856999999997925,
            "durationTicks": 96,
            "midi": 47,
            "name": "B2",
            "ticks": 295872,
            "time": 132.085274,
            "velocity": 0.3937007874015748
          },
          {
            "duration": 0.042856999999997925,
            "durationTicks": 96,
            "midi": 47,
            "name": "B2",
            "ticks": 296064,
            "time": 132.170988,
            "velocity": 0.3937007874015748
          },
          {
            "duration": 0.042856999999997925,
            "durationTicks": 96,
            "midi": 35,
            "name": "B1",
            "ticks": 296064,
            "time": 132.170988,
            "velocity": 0.3937007874015748
          },
          {
            "duration": 0.042856999999997925,
            "durationTicks": 96,
            "midi": 47,
            "name": "B2",
            "ticks": 296256,
            "time": 132.256702,
            "velocity": 0.3937007874015748
          },
          {
            "duration": 0.042856999999997925,
            "durationTicks": 96,
            "midi": 35,
            "name": "B1",
            "ticks": 296256,
            "time": 132.256702,
            "velocity": 0.3937007874015748
          },
          {
            "duration": 0.042856999999997925,
            "durationTicks": 96,
            "midi": 35,
            "name": "B1",
            "ticks": 296448,
            "time": 132.342416,
            "velocity": 0.3937007874015748
          },
          {
            "duration": 0.042856999999997925,
            "durationTicks": 96,
            "midi": 47,
            "name": "B2",
            "ticks": 296448,
            "time": 132.342416,
            "velocity": 0.3937007874015748
          },
          {
            "duration": 0.042856999999997925,
            "durationTicks": 96,
            "midi": 52,
            "name": "E3",
            "ticks": 296640,
            "time": 132.42813,
            "velocity": 0.3937007874015748
          },
          {
            "duration": 0.042856999999997925,
            "durationTicks": 96,
            "midi": 40,
            "name": "E2",
            "ticks": 296640,
            "time": 132.42813,
            "velocity": 0.3937007874015748
          },
          {
            "duration": 0.042856999999997925,
            "durationTicks": 96,
            "midi": 52,
            "name": "E3",
            "ticks": 296832,
            "time": 132.513844,
            "velocity": 0.3937007874015748
          },
          {
            "duration": 0.042856999999997925,
            "durationTicks": 96,
            "midi": 40,
            "name": "E2",
            "ticks": 296832,
            "time": 132.513844,
            "velocity": 0.3937007874015748
          },
          {
            "duration": 0.042856999999997925,
            "durationTicks": 96,
            "midi": 40,
            "name": "E2",
            "ticks": 297024,
            "time": 132.599558,
            "velocity": 0.3937007874015748
          },
          {
            "duration": 0.042856999999997925,
            "durationTicks": 96,
            "midi": 52,
            "name": "E3",
            "ticks": 297024,
            "time": 132.599558,
            "velocity": 0.3937007874015748
          },
          {
            "duration": 0.042856999999997925,
            "durationTicks": 96,
            "midi": 40,
            "name": "E2",
            "ticks": 297216,
            "time": 132.685272,
            "velocity": 0.3937007874015748
          },
          {
            "duration": 0.042856999999997925,
            "durationTicks": 96,
            "midi": 52,
            "name": "E3",
            "ticks": 297216,
            "time": 132.685272,
            "velocity": 0.3937007874015748
          },
          {
            "duration": 0.042856999999997925,
            "durationTicks": 96,
            "midi": 38,
            "name": "D2",
            "ticks": 297408,
            "time": 132.770986,
            "velocity": 0.3937007874015748
          },
          {
            "duration": 0.042856999999997925,
            "durationTicks": 96,
            "midi": 50,
            "name": "D3",
            "ticks": 297408,
            "time": 132.770986,
            "velocity": 0.3937007874015748
          },
          {
            "duration": 0.042856999999997925,
            "durationTicks": 96,
            "midi": 50,
            "name": "D3",
            "ticks": 297600,
            "time": 132.8567,
            "velocity": 0.3937007874015748
          },
          {
            "duration": 0.042856999999997925,
            "durationTicks": 96,
            "midi": 38,
            "name": "D2",
            "ticks": 297600,
            "time": 132.8567,
            "velocity": 0.3937007874015748
          },
          {
            "duration": 0.042857000000026346,
            "durationTicks": 96,
            "midi": 38,
            "name": "D2",
            "ticks": 297792,
            "time": 132.94241399999999,
            "velocity": 0.3937007874015748
          },
          {
            "duration": 0.042857000000026346,
            "durationTicks": 96,
            "midi": 50,
            "name": "D3",
            "ticks": 297792,
            "time": 132.94241399999999,
            "velocity": 0.3937007874015748
          },
          {
            "duration": 0.042856999999997925,
            "durationTicks": 96,
            "midi": 38,
            "name": "D2",
            "ticks": 297984,
            "time": 133.028128,
            "velocity": 0.3937007874015748
          },
          {
            "duration": 0.042856999999997925,
            "durationTicks": 96,
            "midi": 50,
            "name": "D3",
            "ticks": 297984,
            "time": 133.028128,
            "velocity": 0.3937007874015748
          },
          {
            "duration": 0.042856999999997925,
            "durationTicks": 96,
            "midi": 36,
            "name": "C2",
            "ticks": 298176,
            "time": 133.113842,
            "velocity": 0.3937007874015748
          },
          {
            "duration": 0.042856999999997925,
            "durationTicks": 96,
            "midi": 48,
            "name": "C3",
            "ticks": 298176,
            "time": 133.113842,
            "velocity": 0.3937007874015748
          },
          {
            "duration": 0.042856999999997925,
            "durationTicks": 96,
            "midi": 48,
            "name": "C3",
            "ticks": 298368,
            "time": 133.199556,
            "velocity": 0.3937007874015748
          },
          {
            "duration": 0.042856999999997925,
            "durationTicks": 96,
            "midi": 36,
            "name": "C2",
            "ticks": 298368,
            "time": 133.199556,
            "velocity": 0.3937007874015748
          },
          {
            "duration": 0.042856999999997925,
            "durationTicks": 96,
            "midi": 48,
            "name": "C3",
            "ticks": 298560,
            "time": 133.28527,
            "velocity": 0.3937007874015748
          },
          {
            "duration": 0.042856999999997925,
            "durationTicks": 96,
            "midi": 36,
            "name": "C2",
            "ticks": 298560,
            "time": 133.28527,
            "velocity": 0.3937007874015748
          },
          {
            "duration": 0.042856999999997925,
            "durationTicks": 96,
            "midi": 36,
            "name": "C2",
            "ticks": 298752,
            "time": 133.370984,
            "velocity": 0.3937007874015748
          },
          {
            "duration": 0.042856999999997925,
            "durationTicks": 96,
            "midi": 48,
            "name": "C3",
            "ticks": 298752,
            "time": 133.370984,
            "velocity": 0.3937007874015748
          },
          {
            "duration": 0.042856999999997925,
            "durationTicks": 96,
            "midi": 47,
            "name": "B2",
            "ticks": 298944,
            "time": 133.456698,
            "velocity": 0.3937007874015748
          },
          {
            "duration": 0.042856999999997925,
            "durationTicks": 96,
            "midi": 35,
            "name": "B1",
            "ticks": 298944,
            "time": 133.456698,
            "velocity": 0.3937007874015748
          },
          {
            "duration": 0.042857000000026346,
            "durationTicks": 96,
            "midi": 35,
            "name": "B1",
            "ticks": 299136,
            "time": 133.54241199999998,
            "velocity": 0.3937007874015748
          },
          {
            "duration": 0.042857000000026346,
            "durationTicks": 96,
            "midi": 47,
            "name": "B2",
            "ticks": 299136,
            "time": 133.54241199999998,
            "velocity": 0.3937007874015748
          },
          {
            "duration": 0.042856999999997925,
            "durationTicks": 96,
            "midi": 47,
            "name": "B2",
            "ticks": 299328,
            "time": 133.628126,
            "velocity": 0.3937007874015748
          },
          {
            "duration": 0.042856999999997925,
            "durationTicks": 96,
            "midi": 35,
            "name": "B1",
            "ticks": 299328,
            "time": 133.628126,
            "velocity": 0.3937007874015748
          },
          {
            "duration": 0.042856999999997925,
            "durationTicks": 96,
            "midi": 35,
            "name": "B1",
            "ticks": 299520,
            "time": 133.71384,
            "velocity": 0.3937007874015748
          },
          {
            "duration": 0.042856999999997925,
            "durationTicks": 96,
            "midi": 47,
            "name": "B2",
            "ticks": 299520,
            "time": 133.71384,
            "velocity": 0.3937007874015748
          },
          {
            "duration": 0.042856999999997925,
            "durationTicks": 96,
            "midi": 45,
            "name": "A2",
            "ticks": 299712,
            "time": 133.799554,
            "velocity": 0.3937007874015748
          },
          {
            "duration": 0.042856999999997925,
            "durationTicks": 96,
            "midi": 33,
            "name": "A1",
            "ticks": 299712,
            "time": 133.799554,
            "velocity": 0.3937007874015748
          },
          {
            "duration": 0.042856999999997925,
            "durationTicks": 96,
            "midi": 45,
            "name": "A2",
            "ticks": 299904,
            "time": 133.885268,
            "velocity": 0.3937007874015748
          },
          {
            "duration": 0.042856999999997925,
            "durationTicks": 96,
            "midi": 33,
            "name": "A1",
            "ticks": 299904,
            "time": 133.885268,
            "velocity": 0.3937007874015748
          },
          {
            "duration": 0.042856999999997925,
            "durationTicks": 96,
            "midi": 45,
            "name": "A2",
            "ticks": 300096,
            "time": 133.970982,
            "velocity": 0.3937007874015748
          },
          {
            "duration": 0.042856999999997925,
            "durationTicks": 96,
            "midi": 33,
            "name": "A1",
            "ticks": 300096,
            "time": 133.970982,
            "velocity": 0.3937007874015748
          },
          {
            "duration": 0.042856999999997925,
            "durationTicks": 96,
            "midi": 45,
            "name": "A2",
            "ticks": 300288,
            "time": 134.056696,
            "velocity": 0.3937007874015748
          },
          {
            "duration": 0.042856999999997925,
            "durationTicks": 96,
            "midi": 33,
            "name": "A1",
            "ticks": 300288,
            "time": 134.056696,
            "velocity": 0.3937007874015748
          },
          {
            "duration": 0.042857000000026346,
            "durationTicks": 96,
            "midi": 33,
            "name": "A1",
            "ticks": 300480,
            "time": 134.14240999999998,
            "velocity": 0.3937007874015748
          },
          {
            "duration": 0.042857000000026346,
            "durationTicks": 96,
            "midi": 45,
            "name": "A2",
            "ticks": 300480,
            "time": 134.14240999999998,
            "velocity": 0.3937007874015748
          },
          {
            "duration": 0.042856999999997925,
            "durationTicks": 96,
            "midi": 33,
            "name": "A1",
            "ticks": 300672,
            "time": 134.228124,
            "velocity": 0.3937007874015748
          },
          {
            "duration": 0.042856999999997925,
            "durationTicks": 96,
            "midi": 45,
            "name": "A2",
            "ticks": 300672,
            "time": 134.228124,
            "velocity": 0.3937007874015748
          },
          {
            "duration": 0.042856999999997925,
            "durationTicks": 96,
            "midi": 33,
            "name": "A1",
            "ticks": 300864,
            "time": 134.313838,
            "velocity": 0.3937007874015748
          },
          {
            "duration": 0.042856999999997925,
            "durationTicks": 96,
            "midi": 45,
            "name": "A2",
            "ticks": 300864,
            "time": 134.313838,
            "velocity": 0.3937007874015748
          },
          {
            "duration": 0.042856999999997925,
            "durationTicks": 96,
            "midi": 45,
            "name": "A2",
            "ticks": 301056,
            "time": 134.399552,
            "velocity": 0.3937007874015748
          },
          {
            "duration": 0.042856999999997925,
            "durationTicks": 96,
            "midi": 33,
            "name": "A1",
            "ticks": 301056,
            "time": 134.399552,
            "velocity": 0.3937007874015748
          },
          {
            "duration": 0.042856999999997925,
            "durationTicks": 96,
            "midi": 33,
            "name": "A1",
            "ticks": 301248,
            "time": 134.485266,
            "velocity": 0.3937007874015748
          },
          {
            "duration": 0.042856999999997925,
            "durationTicks": 96,
            "midi": 45,
            "name": "A2",
            "ticks": 301248,
            "time": 134.485266,
            "velocity": 0.3937007874015748
          },
          {
            "duration": 0.042856999999997925,
            "durationTicks": 96,
            "midi": 33,
            "name": "A1",
            "ticks": 301440,
            "time": 134.57098,
            "velocity": 0.3937007874015748
          },
          {
            "duration": 0.042856999999997925,
            "durationTicks": 96,
            "midi": 45,
            "name": "A2",
            "ticks": 301440,
            "time": 134.57098,
            "velocity": 0.3937007874015748
          },
          {
            "duration": 0.042856999999997925,
            "durationTicks": 96,
            "midi": 33,
            "name": "A1",
            "ticks": 301632,
            "time": 134.656694,
            "velocity": 0.3937007874015748
          },
          {
            "duration": 0.042856999999997925,
            "durationTicks": 96,
            "midi": 45,
            "name": "A2",
            "ticks": 301632,
            "time": 134.656694,
            "velocity": 0.3937007874015748
          },
          {
            "duration": 0.042856999999997925,
            "durationTicks": 96,
            "midi": 33,
            "name": "A1",
            "ticks": 301824,
            "time": 134.742408,
            "velocity": 0.3937007874015748
          },
          {
            "duration": 0.042856999999997925,
            "durationTicks": 96,
            "midi": 45,
            "name": "A2",
            "ticks": 301824,
            "time": 134.742408,
            "velocity": 0.3937007874015748
          },
          {
            "duration": 0.042856999999997925,
            "durationTicks": 96,
            "midi": 45,
            "name": "A2",
            "ticks": 302016,
            "time": 134.828122,
            "velocity": 0.3937007874015748
          },
          {
            "duration": 0.042856999999997925,
            "durationTicks": 96,
            "midi": 33,
            "name": "A1",
            "ticks": 302016,
            "time": 134.828122,
            "velocity": 0.3937007874015748
          },
          {
            "duration": 0.042856999999997925,
            "durationTicks": 96,
            "midi": 45,
            "name": "A2",
            "ticks": 302208,
            "time": 134.913836,
            "velocity": 0.3937007874015748
          },
          {
            "duration": 0.042856999999997925,
            "durationTicks": 96,
            "midi": 33,
            "name": "A1",
            "ticks": 302208,
            "time": 134.913836,
            "velocity": 0.3937007874015748
          },
          {
            "duration": 0.042856999999997925,
            "durationTicks": 96,
            "midi": 33,
            "name": "A1",
            "ticks": 302400,
            "time": 134.99955,
            "velocity": 0.3937007874015748
          },
          {
            "duration": 0.042856999999997925,
            "durationTicks": 96,
            "midi": 45,
            "name": "A2",
            "ticks": 302400,
            "time": 134.99955,
            "velocity": 0.3937007874015748
          },
          {
            "duration": 0.042856999999997925,
            "durationTicks": 96,
            "midi": 33,
            "name": "A1",
            "ticks": 302592,
            "time": 135.085264,
            "velocity": 0.3937007874015748
          },
          {
            "duration": 0.042856999999997925,
            "durationTicks": 96,
            "midi": 45,
            "name": "A2",
            "ticks": 302592,
            "time": 135.085264,
            "velocity": 0.3937007874015748
          },
          {
            "duration": 0.042856999999997925,
            "durationTicks": 96,
            "midi": 36,
            "name": "C2",
            "ticks": 302784,
            "time": 135.170978,
            "velocity": 0.3937007874015748
          },
          {
            "duration": 0.042856999999997925,
            "durationTicks": 96,
            "midi": 48,
            "name": "C3",
            "ticks": 302784,
            "time": 135.170978,
            "velocity": 0.3937007874015748
          },
          {
            "duration": 0.042856999999997925,
            "durationTicks": 96,
            "midi": 48,
            "name": "C3",
            "ticks": 302976,
            "time": 135.256692,
            "velocity": 0.3937007874015748
          },
          {
            "duration": 0.042856999999997925,
            "durationTicks": 96,
            "midi": 36,
            "name": "C2",
            "ticks": 302976,
            "time": 135.256692,
            "velocity": 0.3937007874015748
          },
          {
            "duration": 0.042856999999997925,
            "durationTicks": 96,
            "midi": 36,
            "name": "C2",
            "ticks": 303168,
            "time": 135.342406,
            "velocity": 0.3937007874015748
          },
          {
            "duration": 0.042856999999997925,
            "durationTicks": 96,
            "midi": 48,
            "name": "C3",
            "ticks": 303168,
            "time": 135.342406,
            "velocity": 0.3937007874015748
          },
          {
            "duration": 0.042856999999997925,
            "durationTicks": 96,
            "midi": 48,
            "name": "C3",
            "ticks": 303360,
            "time": 135.42812,
            "velocity": 0.3937007874015748
          },
          {
            "duration": 0.042856999999997925,
            "durationTicks": 96,
            "midi": 36,
            "name": "C2",
            "ticks": 303360,
            "time": 135.42812,
            "velocity": 0.3937007874015748
          },
          {
            "duration": 0.042856999999997925,
            "durationTicks": 96,
            "midi": 36,
            "name": "C2",
            "ticks": 303552,
            "time": 135.513834,
            "velocity": 0.3937007874015748
          },
          {
            "duration": 0.042856999999997925,
            "durationTicks": 96,
            "midi": 48,
            "name": "C3",
            "ticks": 303552,
            "time": 135.513834,
            "velocity": 0.3937007874015748
          },
          {
            "duration": 0.042856999999997925,
            "durationTicks": 96,
            "midi": 36,
            "name": "C2",
            "ticks": 303744,
            "time": 135.599548,
            "velocity": 0.3937007874015748
          },
          {
            "duration": 0.042856999999997925,
            "durationTicks": 96,
            "midi": 48,
            "name": "C3",
            "ticks": 303744,
            "time": 135.599548,
            "velocity": 0.3937007874015748
          },
          {
            "duration": 0.042856999999997925,
            "durationTicks": 96,
            "midi": 48,
            "name": "C3",
            "ticks": 303936,
            "time": 135.685262,
            "velocity": 0.3937007874015748
          },
          {
            "duration": 0.042856999999997925,
            "durationTicks": 96,
            "midi": 36,
            "name": "C2",
            "ticks": 303936,
            "time": 135.685262,
            "velocity": 0.3937007874015748
          },
          {
            "duration": 0.042856999999997925,
            "durationTicks": 96,
            "midi": 36,
            "name": "C2",
            "ticks": 304128,
            "time": 135.770976,
            "velocity": 0.3937007874015748
          },
          {
            "duration": 0.042856999999997925,
            "durationTicks": 96,
            "midi": 48,
            "name": "C3",
            "ticks": 304128,
            "time": 135.770976,
            "velocity": 0.3937007874015748
          },
          {
            "duration": 0.042856999999997925,
            "durationTicks": 96,
            "midi": 48,
            "name": "C3",
            "ticks": 304320,
            "time": 135.85669,
            "velocity": 0.3937007874015748
          },
          {
            "duration": 0.042856999999997925,
            "durationTicks": 96,
            "midi": 36,
            "name": "C2",
            "ticks": 304320,
            "time": 135.85669,
            "velocity": 0.3937007874015748
          },
          {
            "duration": 0.042856999999997925,
            "durationTicks": 96,
            "midi": 48,
            "name": "C3",
            "ticks": 304512,
            "time": 135.942404,
            "velocity": 0.3937007874015748
          },
          {
            "duration": 0.042856999999997925,
            "durationTicks": 96,
            "midi": 36,
            "name": "C2",
            "ticks": 304512,
            "time": 135.942404,
            "velocity": 0.3937007874015748
          },
          {
            "duration": 0.042856999999997925,
            "durationTicks": 96,
            "midi": 36,
            "name": "C2",
            "ticks": 304704,
            "time": 136.028118,
            "velocity": 0.3937007874015748
          },
          {
            "duration": 0.042856999999997925,
            "durationTicks": 96,
            "midi": 48,
            "name": "C3",
            "ticks": 304704,
            "time": 136.028118,
            "velocity": 0.3937007874015748
          },
          {
            "duration": 0.042856999999997925,
            "durationTicks": 96,
            "midi": 36,
            "name": "C2",
            "ticks": 304896,
            "time": 136.113832,
            "velocity": 0.3937007874015748
          },
          {
            "duration": 0.042856999999997925,
            "durationTicks": 96,
            "midi": 48,
            "name": "C3",
            "ticks": 304896,
            "time": 136.113832,
            "velocity": 0.3937007874015748
          },
          {
            "duration": 0.042856999999997925,
            "durationTicks": 96,
            "midi": 36,
            "name": "C2",
            "ticks": 305088,
            "time": 136.199546,
            "velocity": 0.3937007874015748
          },
          {
            "duration": 0.042856999999997925,
            "durationTicks": 96,
            "midi": 48,
            "name": "C3",
            "ticks": 305088,
            "time": 136.199546,
            "velocity": 0.3937007874015748
          },
          {
            "duration": 0.042856999999997925,
            "durationTicks": 96,
            "midi": 36,
            "name": "C2",
            "ticks": 305280,
            "time": 136.28526,
            "velocity": 0.3937007874015748
          },
          {
            "duration": 0.042856999999997925,
            "durationTicks": 96,
            "midi": 48,
            "name": "C3",
            "ticks": 305280,
            "time": 136.28526,
            "velocity": 0.3937007874015748
          },
          {
            "duration": 0.042856999999997925,
            "durationTicks": 96,
            "midi": 48,
            "name": "C3",
            "ticks": 305472,
            "time": 136.370974,
            "velocity": 0.3937007874015748
          },
          {
            "duration": 0.042856999999997925,
            "durationTicks": 96,
            "midi": 36,
            "name": "C2",
            "ticks": 305472,
            "time": 136.370974,
            "velocity": 0.3937007874015748
          },
          {
            "duration": 0.042856999999997925,
            "durationTicks": 96,
            "midi": 36,
            "name": "C2",
            "ticks": 305664,
            "time": 136.45668799999999,
            "velocity": 0.3937007874015748
          },
          {
            "duration": 0.042856999999997925,
            "durationTicks": 96,
            "midi": 48,
            "name": "C3",
            "ticks": 305664,
            "time": 136.45668799999999,
            "velocity": 0.3937007874015748
          },
          {
            "duration": 0.042856999999997925,
            "durationTicks": 96,
            "midi": 53,
            "name": "F3",
            "ticks": 305856,
            "time": 136.542402,
            "velocity": 0.3937007874015748
          },
          {
            "duration": 0.042856999999997925,
            "durationTicks": 96,
            "midi": 41,
            "name": "F2",
            "ticks": 305856,
            "time": 136.542402,
            "velocity": 0.3937007874015748
          },
          {
            "duration": 0.042856999999997925,
            "durationTicks": 96,
            "midi": 53,
            "name": "F3",
            "ticks": 306048,
            "time": 136.628116,
            "velocity": 0.3937007874015748
          },
          {
            "duration": 0.042856999999997925,
            "durationTicks": 96,
            "midi": 41,
            "name": "F2",
            "ticks": 306048,
            "time": 136.628116,
            "velocity": 0.3937007874015748
          },
          {
            "duration": 0.042856999999997925,
            "durationTicks": 96,
            "midi": 53,
            "name": "F3",
            "ticks": 306240,
            "time": 136.71383,
            "velocity": 0.3937007874015748
          },
          {
            "duration": 0.042856999999997925,
            "durationTicks": 96,
            "midi": 41,
            "name": "F2",
            "ticks": 306240,
            "time": 136.71383,
            "velocity": 0.3937007874015748
          },
          {
            "duration": 0.042856999999997925,
            "durationTicks": 96,
            "midi": 41,
            "name": "F2",
            "ticks": 306432,
            "time": 136.799544,
            "velocity": 0.3937007874015748
          },
          {
            "duration": 0.042856999999997925,
            "durationTicks": 96,
            "midi": 53,
            "name": "F3",
            "ticks": 306432,
            "time": 136.799544,
            "velocity": 0.3937007874015748
          },
          {
            "duration": 0.042856999999997925,
            "durationTicks": 96,
            "midi": 41,
            "name": "F2",
            "ticks": 306624,
            "time": 136.885258,
            "velocity": 0.3937007874015748
          },
          {
            "duration": 0.042856999999997925,
            "durationTicks": 96,
            "midi": 53,
            "name": "F3",
            "ticks": 306624,
            "time": 136.885258,
            "velocity": 0.3937007874015748
          },
          {
            "duration": 0.042856999999997925,
            "durationTicks": 96,
            "midi": 41,
            "name": "F2",
            "ticks": 306816,
            "time": 136.970972,
            "velocity": 0.3937007874015748
          },
          {
            "duration": 0.042856999999997925,
            "durationTicks": 96,
            "midi": 53,
            "name": "F3",
            "ticks": 306816,
            "time": 136.970972,
            "velocity": 0.3937007874015748
          },
          {
            "duration": 0.042857000000026346,
            "durationTicks": 96,
            "midi": 53,
            "name": "F3",
            "ticks": 307008,
            "time": 137.05668599999998,
            "velocity": 0.3937007874015748
          },
          {
            "duration": 0.042857000000026346,
            "durationTicks": 96,
            "midi": 41,
            "name": "F2",
            "ticks": 307008,
            "time": 137.05668599999998,
            "velocity": 0.3937007874015748
          },
          {
            "duration": 0.042856999999997925,
            "durationTicks": 96,
            "midi": 53,
            "name": "F3",
            "ticks": 307200,
            "time": 137.1424,
            "velocity": 0.3937007874015748
          },
          {
            "duration": 0.042856999999997925,
            "durationTicks": 96,
            "midi": 41,
            "name": "F2",
            "ticks": 307200,
            "time": 137.1424,
            "velocity": 0.3937007874015748
          },
          {
            "duration": 0.042856999999997925,
            "durationTicks": 96,
            "midi": 41,
            "name": "F2",
            "ticks": 307392,
            "time": 137.228114,
            "velocity": 0.3937007874015748
          },
          {
            "duration": 0.042856999999997925,
            "durationTicks": 96,
            "midi": 53,
            "name": "F3",
            "ticks": 307392,
            "time": 137.228114,
            "velocity": 0.3937007874015748
          },
          {
            "duration": 0.042856999999997925,
            "durationTicks": 96,
            "midi": 41,
            "name": "F2",
            "ticks": 307584,
            "time": 137.313828,
            "velocity": 0.3937007874015748
          },
          {
            "duration": 0.042856999999997925,
            "durationTicks": 96,
            "midi": 53,
            "name": "F3",
            "ticks": 307584,
            "time": 137.313828,
            "velocity": 0.3937007874015748
          },
          {
            "duration": 0.042856999999997925,
            "durationTicks": 96,
            "midi": 53,
            "name": "F3",
            "ticks": 307776,
            "time": 137.399542,
            "velocity": 0.3937007874015748
          },
          {
            "duration": 0.042856999999997925,
            "durationTicks": 96,
            "midi": 41,
            "name": "F2",
            "ticks": 307776,
            "time": 137.399542,
            "velocity": 0.3937007874015748
          },
          {
            "duration": 0.042856999999997925,
            "durationTicks": 96,
            "midi": 53,
            "name": "F3",
            "ticks": 307968,
            "time": 137.485256,
            "velocity": 0.3937007874015748
          },
          {
            "duration": 0.042856999999997925,
            "durationTicks": 96,
            "midi": 41,
            "name": "F2",
            "ticks": 307968,
            "time": 137.485256,
            "velocity": 0.3937007874015748
          },
          {
            "duration": 0.042856999999997925,
            "durationTicks": 96,
            "midi": 41,
            "name": "F2",
            "ticks": 308160,
            "time": 137.57097,
            "velocity": 0.3937007874015748
          },
          {
            "duration": 0.042856999999997925,
            "durationTicks": 96,
            "midi": 53,
            "name": "F3",
            "ticks": 308160,
            "time": 137.57097,
            "velocity": 0.3937007874015748
          },
          {
            "duration": 0.042857000000026346,
            "durationTicks": 96,
            "midi": 41,
            "name": "F2",
            "ticks": 308352,
            "time": 137.65668399999998,
            "velocity": 0.3937007874015748
          },
          {
            "duration": 0.042857000000026346,
            "durationTicks": 96,
            "midi": 53,
            "name": "F3",
            "ticks": 308352,
            "time": 137.65668399999998,
            "velocity": 0.3937007874015748
          },
          {
            "duration": 0.042856999999997925,
            "durationTicks": 96,
            "midi": 41,
            "name": "F2",
            "ticks": 308544,
            "time": 137.742398,
            "velocity": 0.3937007874015748
          },
          {
            "duration": 0.042856999999997925,
            "durationTicks": 96,
            "midi": 53,
            "name": "F3",
            "ticks": 308544,
            "time": 137.742398,
            "velocity": 0.3937007874015748
          },
          {
            "duration": 0.042856999999997925,
            "durationTicks": 96,
            "midi": 53,
            "name": "F3",
            "ticks": 308736,
            "time": 137.828112,
            "velocity": 0.3937007874015748
          },
          {
            "duration": 0.042856999999997925,
            "durationTicks": 96,
            "midi": 41,
            "name": "F2",
            "ticks": 308736,
            "time": 137.828112,
            "velocity": 0.3937007874015748
          },
          {
            "duration": 0.042856999999997925,
            "durationTicks": 96,
            "midi": 40,
            "name": "E2",
            "ticks": 308928,
            "time": 137.913826,
            "velocity": 0.3937007874015748
          },
          {
            "duration": 0.042856999999997925,
            "durationTicks": 96,
            "midi": 52,
            "name": "E3",
            "ticks": 308928,
            "time": 137.913826,
            "velocity": 0.3937007874015748
          },
          {
            "duration": 0.042856999999997925,
            "durationTicks": 96,
            "midi": 40,
            "name": "E2",
            "ticks": 309120,
            "time": 137.99954,
            "velocity": 0.3937007874015748
          },
          {
            "duration": 0.042856999999997925,
            "durationTicks": 96,
            "midi": 52,
            "name": "E3",
            "ticks": 309120,
            "time": 137.99954,
            "velocity": 0.3937007874015748
          },
          {
            "duration": 0.042856999999997925,
            "durationTicks": 96,
            "midi": 52,
            "name": "E3",
            "ticks": 309312,
            "time": 138.085254,
            "velocity": 0.3937007874015748
          },
          {
            "duration": 0.042856999999997925,
            "durationTicks": 96,
            "midi": 40,
            "name": "E2",
            "ticks": 309312,
            "time": 138.085254,
            "velocity": 0.3937007874015748
          },
          {
            "duration": 0.042856999999997925,
            "durationTicks": 96,
            "midi": 40,
            "name": "E2",
            "ticks": 309504,
            "time": 138.170968,
            "velocity": 0.3937007874015748
          },
          {
            "duration": 0.042856999999997925,
            "durationTicks": 96,
            "midi": 52,
            "name": "E3",
            "ticks": 309504,
            "time": 138.170968,
            "velocity": 0.3937007874015748
          },
          {
            "duration": 0.042857000000026346,
            "durationTicks": 96,
            "midi": 40,
            "name": "E2",
            "ticks": 309696,
            "time": 138.25668199999998,
            "velocity": 0.3937007874015748
          },
          {
            "duration": 0.042857000000026346,
            "durationTicks": 96,
            "midi": 52,
            "name": "E3",
            "ticks": 309696,
            "time": 138.25668199999998,
            "velocity": 0.3937007874015748
          },
          {
            "duration": 0.042856999999997925,
            "durationTicks": 96,
            "midi": 52,
            "name": "E3",
            "ticks": 309888,
            "time": 138.342396,
            "velocity": 0.3937007874015748
          },
          {
            "duration": 0.042856999999997925,
            "durationTicks": 96,
            "midi": 40,
            "name": "E2",
            "ticks": 309888,
            "time": 138.342396,
            "velocity": 0.3937007874015748
          },
          {
            "duration": 0.042856999999997925,
            "durationTicks": 96,
            "midi": 52,
            "name": "E3",
            "ticks": 310080,
            "time": 138.42811,
            "velocity": 0.3937007874015748
          },
          {
            "duration": 0.042856999999997925,
            "durationTicks": 96,
            "midi": 40,
            "name": "E2",
            "ticks": 310080,
            "time": 138.42811,
            "velocity": 0.3937007874015748
          },
          {
            "duration": 0.042856999999997925,
            "durationTicks": 96,
            "midi": 40,
            "name": "E2",
            "ticks": 310272,
            "time": 138.513824,
            "velocity": 0.3937007874015748
          },
          {
            "duration": 0.042856999999997925,
            "durationTicks": 96,
            "midi": 52,
            "name": "E3",
            "ticks": 310272,
            "time": 138.513824,
            "velocity": 0.3937007874015748
          },
          {
            "duration": 0.042856999999997925,
            "durationTicks": 96,
            "midi": 40,
            "name": "E2",
            "ticks": 310464,
            "time": 138.599538,
            "velocity": 0.3937007874015748
          },
          {
            "duration": 0.042856999999997925,
            "durationTicks": 96,
            "midi": 52,
            "name": "E3",
            "ticks": 310464,
            "time": 138.599538,
            "velocity": 0.3937007874015748
          },
          {
            "duration": 0.042856999999997925,
            "durationTicks": 96,
            "midi": 52,
            "name": "E3",
            "ticks": 310656,
            "time": 138.685252,
            "velocity": 0.3937007874015748
          },
          {
            "duration": 0.042856999999997925,
            "durationTicks": 96,
            "midi": 40,
            "name": "E2",
            "ticks": 310656,
            "time": 138.685252,
            "velocity": 0.3937007874015748
          },
          {
            "duration": 0.042856999999997925,
            "durationTicks": 96,
            "midi": 40,
            "name": "E2",
            "ticks": 310848,
            "time": 138.770966,
            "velocity": 0.3937007874015748
          },
          {
            "duration": 0.042856999999997925,
            "durationTicks": 96,
            "midi": 52,
            "name": "E3",
            "ticks": 310848,
            "time": 138.770966,
            "velocity": 0.3937007874015748
          },
          {
            "duration": 0.042856999999997925,
            "durationTicks": 96,
            "midi": 40,
            "name": "E2",
            "ticks": 311040,
            "time": 138.85668,
            "velocity": 0.3937007874015748
          },
          {
            "duration": 0.042856999999997925,
            "durationTicks": 96,
            "midi": 52,
            "name": "E3",
            "ticks": 311040,
            "time": 138.85668,
            "velocity": 0.3937007874015748
          },
          {
            "duration": 0.042856999999997925,
            "durationTicks": 96,
            "midi": 52,
            "name": "E3",
            "ticks": 311232,
            "time": 138.942394,
            "velocity": 0.3937007874015748
          },
          {
            "duration": 0.042856999999997925,
            "durationTicks": 96,
            "midi": 40,
            "name": "E2",
            "ticks": 311232,
            "time": 138.942394,
            "velocity": 0.3937007874015748
          },
          {
            "duration": 0.042856999999997925,
            "durationTicks": 96,
            "midi": 52,
            "name": "E3",
            "ticks": 311424,
            "time": 139.028108,
            "velocity": 0.3937007874015748
          },
          {
            "duration": 0.042856999999997925,
            "durationTicks": 96,
            "midi": 40,
            "name": "E2",
            "ticks": 311424,
            "time": 139.028108,
            "velocity": 0.3937007874015748
          },
          {
            "duration": 0.042856999999997925,
            "durationTicks": 96,
            "midi": 52,
            "name": "E3",
            "ticks": 311616,
            "time": 139.113822,
            "velocity": 0.3937007874015748
          },
          {
            "duration": 0.042856999999997925,
            "durationTicks": 96,
            "midi": 40,
            "name": "E2",
            "ticks": 311616,
            "time": 139.113822,
            "velocity": 0.3937007874015748
          },
          {
            "duration": 0.042856999999997925,
            "durationTicks": 96,
            "midi": 40,
            "name": "E2",
            "ticks": 311808,
            "time": 139.199536,
            "velocity": 0.3937007874015748
          },
          {
            "duration": 0.042856999999997925,
            "durationTicks": 96,
            "midi": 52,
            "name": "E3",
            "ticks": 311808,
            "time": 139.199536,
            "velocity": 0.3937007874015748
          },
          {
            "duration": 0.042856999999997925,
            "durationTicks": 96,
            "midi": 50,
            "name": "D3",
            "ticks": 312000,
            "time": 139.28525,
            "velocity": 0.3937007874015748
          },
          {
            "duration": 0.042856999999997925,
            "durationTicks": 96,
            "midi": 38,
            "name": "D2",
            "ticks": 312000,
            "time": 139.28525,
            "velocity": 0.3937007874015748
          },
          {
            "duration": 0.042856999999997925,
            "durationTicks": 96,
            "midi": 38,
            "name": "D2",
            "ticks": 312192,
            "time": 139.370964,
            "velocity": 0.3937007874015748
          },
          {
            "duration": 0.042856999999997925,
            "durationTicks": 96,
            "midi": 50,
            "name": "D3",
            "ticks": 312192,
            "time": 139.370964,
            "velocity": 0.3937007874015748
          },
          {
            "duration": 0.042856999999997925,
            "durationTicks": 96,
            "midi": 38,
            "name": "D2",
            "ticks": 312384,
            "time": 139.456678,
            "velocity": 0.3937007874015748
          },
          {
            "duration": 0.042856999999997925,
            "durationTicks": 96,
            "midi": 50,
            "name": "D3",
            "ticks": 312384,
            "time": 139.456678,
            "velocity": 0.3937007874015748
          },
          {
            "duration": 0.042856999999997925,
            "durationTicks": 96,
            "midi": 38,
            "name": "D2",
            "ticks": 312576,
            "time": 139.542392,
            "velocity": 0.3937007874015748
          },
          {
            "duration": 0.042856999999997925,
            "durationTicks": 96,
            "midi": 50,
            "name": "D3",
            "ticks": 312576,
            "time": 139.542392,
            "velocity": 0.3937007874015748
          },
          {
            "duration": 0.042856999999997925,
            "durationTicks": 96,
            "midi": 38,
            "name": "D2",
            "ticks": 312768,
            "time": 139.628106,
            "velocity": 0.3937007874015748
          },
          {
            "duration": 0.042856999999997925,
            "durationTicks": 96,
            "midi": 50,
            "name": "D3",
            "ticks": 312768,
            "time": 139.628106,
            "velocity": 0.3937007874015748
          },
          {
            "duration": 0.042856999999997925,
            "durationTicks": 96,
            "midi": 38,
            "name": "D2",
            "ticks": 312960,
            "time": 139.71382,
            "velocity": 0.3937007874015748
          },
          {
            "duration": 0.042856999999997925,
            "durationTicks": 96,
            "midi": 50,
            "name": "D3",
            "ticks": 312960,
            "time": 139.71382,
            "velocity": 0.3937007874015748
          },
          {
            "duration": 0.042856999999997925,
            "durationTicks": 96,
            "midi": 50,
            "name": "D3",
            "ticks": 313152,
            "time": 139.799534,
            "velocity": 0.3937007874015748
          },
          {
            "duration": 0.042856999999997925,
            "durationTicks": 96,
            "midi": 38,
            "name": "D2",
            "ticks": 313152,
            "time": 139.799534,
            "velocity": 0.3937007874015748
          },
          {
            "duration": 0.042856999999997925,
            "durationTicks": 96,
            "midi": 38,
            "name": "D2",
            "ticks": 313344,
            "time": 139.885248,
            "velocity": 0.3937007874015748
          },
          {
            "duration": 0.042856999999997925,
            "durationTicks": 96,
            "midi": 50,
            "name": "D3",
            "ticks": 313344,
            "time": 139.885248,
            "velocity": 0.3937007874015748
          },
          {
            "duration": 0.042856999999997925,
            "durationTicks": 96,
            "midi": 52,
            "name": "E3",
            "ticks": 313536,
            "time": 139.970962,
            "velocity": 0.3937007874015748
          },
          {
            "duration": 0.042856999999997925,
            "durationTicks": 96,
            "midi": 40,
            "name": "E2",
            "ticks": 313536,
            "time": 139.970962,
            "velocity": 0.3937007874015748
          },
          {
            "duration": 0.042856999999997925,
            "durationTicks": 96,
            "midi": 40,
            "name": "E2",
            "ticks": 313728,
            "time": 140.056676,
            "velocity": 0.3937007874015748
          },
          {
            "duration": 0.042856999999997925,
            "durationTicks": 96,
            "midi": 52,
            "name": "E3",
            "ticks": 313728,
            "time": 140.056676,
            "velocity": 0.3937007874015748
          },
          {
            "duration": 0.042856999999997925,
            "durationTicks": 96,
            "midi": 52,
            "name": "E3",
            "ticks": 313920,
            "time": 140.14239,
            "velocity": 0.3937007874015748
          },
          {
            "duration": 0.042856999999997925,
            "durationTicks": 96,
            "midi": 40,
            "name": "E2",
            "ticks": 313920,
            "time": 140.14239,
            "velocity": 0.3937007874015748
          },
          {
            "duration": 0.042856999999997925,
            "durationTicks": 96,
            "midi": 52,
            "name": "E3",
            "ticks": 314112,
            "time": 140.228104,
            "velocity": 0.3937007874015748
          },
          {
            "duration": 0.042856999999997925,
            "durationTicks": 96,
            "midi": 40,
            "name": "E2",
            "ticks": 314112,
            "time": 140.228104,
            "velocity": 0.3937007874015748
          },
          {
            "duration": 0.042856999999997925,
            "durationTicks": 96,
            "midi": 40,
            "name": "E2",
            "ticks": 314304,
            "time": 140.313818,
            "velocity": 0.3937007874015748
          },
          {
            "duration": 0.042856999999997925,
            "durationTicks": 96,
            "midi": 52,
            "name": "E3",
            "ticks": 314304,
            "time": 140.313818,
            "velocity": 0.3937007874015748
          },
          {
            "duration": 0.042856999999997925,
            "durationTicks": 96,
            "midi": 52,
            "name": "E3",
            "ticks": 314496,
            "time": 140.399532,
            "velocity": 0.3937007874015748
          },
          {
            "duration": 0.042856999999997925,
            "durationTicks": 96,
            "midi": 40,
            "name": "E2",
            "ticks": 314496,
            "time": 140.399532,
            "velocity": 0.3937007874015748
          },
          {
            "duration": 0.042856999999997925,
            "durationTicks": 96,
            "midi": 40,
            "name": "E2",
            "ticks": 314688,
            "time": 140.485246,
            "velocity": 0.3937007874015748
          },
          {
            "duration": 0.042856999999997925,
            "durationTicks": 96,
            "midi": 52,
            "name": "E3",
            "ticks": 314688,
            "time": 140.485246,
            "velocity": 0.3937007874015748
          },
          {
            "duration": 0.042857000000026346,
            "durationTicks": 96,
            "midi": 40,
            "name": "E2",
            "ticks": 314880,
            "time": 140.57095999999999,
            "velocity": 0.3937007874015748
          },
          {
            "duration": 0.042857000000026346,
            "durationTicks": 96,
            "midi": 52,
            "name": "E3",
            "ticks": 314880,
            "time": 140.57095999999999,
            "velocity": 0.3937007874015748
          },
          {
            "duration": 0.042856999999997925,
            "durationTicks": 96,
            "midi": 48,
            "name": "C3",
            "ticks": 315072,
            "time": 140.656674,
            "velocity": 0.3937007874015748
          },
          {
            "duration": 0.042856999999997925,
            "durationTicks": 96,
            "midi": 36,
            "name": "C2",
            "ticks": 315072,
            "time": 140.656674,
            "velocity": 0.3937007874015748
          },
          {
            "duration": 0.042856999999997925,
            "durationTicks": 96,
            "midi": 36,
            "name": "C2",
            "ticks": 315264,
            "time": 140.742388,
            "velocity": 0.3937007874015748
          },
          {
            "duration": 0.042856999999997925,
            "durationTicks": 96,
            "midi": 48,
            "name": "C3",
            "ticks": 315264,
            "time": 140.742388,
            "velocity": 0.3937007874015748
          },
          {
            "duration": 0.042856999999997925,
            "durationTicks": 96,
            "midi": 36,
            "name": "C2",
            "ticks": 315456,
            "time": 140.828102,
            "velocity": 0.3937007874015748
          },
          {
            "duration": 0.042856999999997925,
            "durationTicks": 96,
            "midi": 48,
            "name": "C3",
            "ticks": 315456,
            "time": 140.828102,
            "velocity": 0.3937007874015748
          },
          {
            "duration": 0.042856999999997925,
            "durationTicks": 96,
            "midi": 48,
            "name": "C3",
            "ticks": 315648,
            "time": 140.913816,
            "velocity": 0.3937007874015748
          },
          {
            "duration": 0.042856999999997925,
            "durationTicks": 96,
            "midi": 36,
            "name": "C2",
            "ticks": 315648,
            "time": 140.913816,
            "velocity": 0.3937007874015748
          },
          {
            "duration": 0.042856999999997925,
            "durationTicks": 96,
            "midi": 48,
            "name": "C3",
            "ticks": 315840,
            "time": 140.99953,
            "velocity": 0.3937007874015748
          },
          {
            "duration": 0.042856999999997925,
            "durationTicks": 96,
            "midi": 36,
            "name": "C2",
            "ticks": 315840,
            "time": 140.99953,
            "velocity": 0.3937007874015748
          },
          {
            "duration": 0.042856999999997925,
            "durationTicks": 96,
            "midi": 36,
            "name": "C2",
            "ticks": 316032,
            "time": 141.085244,
            "velocity": 0.3937007874015748
          },
          {
            "duration": 0.042856999999997925,
            "durationTicks": 96,
            "midi": 48,
            "name": "C3",
            "ticks": 316032,
            "time": 141.085244,
            "velocity": 0.3937007874015748
          },
          {
            "duration": 0.042857000000026346,
            "durationTicks": 96,
            "midi": 36,
            "name": "C2",
            "ticks": 316224,
            "time": 141.17095799999998,
            "velocity": 0.3937007874015748
          },
          {
            "duration": 0.042857000000026346,
            "durationTicks": 96,
            "midi": 48,
            "name": "C3",
            "ticks": 316224,
            "time": 141.17095799999998,
            "velocity": 0.3937007874015748
          },
          {
            "duration": 0.042856999999997925,
            "durationTicks": 96,
            "midi": 48,
            "name": "C3",
            "ticks": 316416,
            "time": 141.256672,
            "velocity": 0.3937007874015748
          },
          {
            "duration": 0.042856999999997925,
            "durationTicks": 96,
            "midi": 36,
            "name": "C2",
            "ticks": 316416,
            "time": 141.256672,
            "velocity": 0.3937007874015748
          },
          {
            "duration": 0.042856999999997925,
            "durationTicks": 96,
            "midi": 33,
            "name": "A1",
            "ticks": 316608,
            "time": 141.342386,
            "velocity": 0.3937007874015748
          },
          {
            "duration": 0.042856999999997925,
            "durationTicks": 96,
            "midi": 45,
            "name": "A2",
            "ticks": 316608,
            "time": 141.342386,
            "velocity": 0.3937007874015748
          },
          {
            "duration": 0.042856999999997925,
            "durationTicks": 96,
            "midi": 33,
            "name": "A1",
            "ticks": 316800,
            "time": 141.4281,
            "velocity": 0.3937007874015748
          },
          {
            "duration": 0.042856999999997925,
            "durationTicks": 96,
            "midi": 45,
            "name": "A2",
            "ticks": 316800,
            "time": 141.4281,
            "velocity": 0.3937007874015748
          },
          {
            "duration": 0.042856999999997925,
            "durationTicks": 96,
            "midi": 45,
            "name": "A2",
            "ticks": 316992,
            "time": 141.513814,
            "velocity": 0.3937007874015748
          },
          {
            "duration": 0.042856999999997925,
            "durationTicks": 96,
            "midi": 33,
            "name": "A1",
            "ticks": 316992,
            "time": 141.513814,
            "velocity": 0.3937007874015748
          },
          {
            "duration": 0.042856999999997925,
            "durationTicks": 96,
            "midi": 45,
            "name": "A2",
            "ticks": 317184,
            "time": 141.599528,
            "velocity": 0.3937007874015748
          },
          {
            "duration": 0.042856999999997925,
            "durationTicks": 96,
            "midi": 33,
            "name": "A1",
            "ticks": 317184,
            "time": 141.599528,
            "velocity": 0.3937007874015748
          },
          {
            "duration": 0.042856999999997925,
            "durationTicks": 96,
            "midi": 33,
            "name": "A1",
            "ticks": 317376,
            "time": 141.685242,
            "velocity": 0.3937007874015748
          },
          {
            "duration": 0.042856999999997925,
            "durationTicks": 96,
            "midi": 45,
            "name": "A2",
            "ticks": 317376,
            "time": 141.685242,
            "velocity": 0.3937007874015748
          },
          {
            "duration": 0.042857000000026346,
            "durationTicks": 96,
            "midi": 33,
            "name": "A1",
            "ticks": 317568,
            "time": 141.77095599999998,
            "velocity": 0.3937007874015748
          },
          {
            "duration": 0.042857000000026346,
            "durationTicks": 96,
            "midi": 45,
            "name": "A2",
            "ticks": 317568,
            "time": 141.77095599999998,
            "velocity": 0.3937007874015748
          },
          {
            "duration": 0.042856999999997925,
            "durationTicks": 96,
            "midi": 33,
            "name": "A1",
            "ticks": 317760,
            "time": 141.85667,
            "velocity": 0.3937007874015748
          },
          {
            "duration": 0.042856999999997925,
            "durationTicks": 96,
            "midi": 45,
            "name": "A2",
            "ticks": 317760,
            "time": 141.85667,
            "velocity": 0.3937007874015748
          },
          {
            "duration": 0.042856999999997925,
            "durationTicks": 96,
            "midi": 33,
            "name": "A1",
            "ticks": 317952,
            "time": 141.942384,
            "velocity": 0.3937007874015748
          },
          {
            "duration": 0.042856999999997925,
            "durationTicks": 96,
            "midi": 45,
            "name": "A2",
            "ticks": 317952,
            "time": 141.942384,
            "velocity": 0.3937007874015748
          },
          {
            "duration": 0.042856999999997925,
            "durationTicks": 96,
            "midi": 39,
            "name": "D#2",
            "ticks": 318144,
            "time": 142.028098,
            "velocity": 0.3937007874015748
          },
          {
            "duration": 0.042856999999997925,
            "durationTicks": 96,
            "midi": 51,
            "name": "D#3",
            "ticks": 318144,
            "time": 142.028098,
            "velocity": 0.3937007874015748
          },
          {
            "duration": 0.042856999999997925,
            "durationTicks": 96,
            "midi": 51,
            "name": "D#3",
            "ticks": 318336,
            "time": 142.113812,
            "velocity": 0.3937007874015748
          },
          {
            "duration": 0.042856999999997925,
            "durationTicks": 96,
            "midi": 39,
            "name": "D#2",
            "ticks": 318336,
            "time": 142.113812,
            "velocity": 0.3937007874015748
          },
          {
            "duration": 0.042856999999997925,
            "durationTicks": 96,
            "midi": 51,
            "name": "D#3",
            "ticks": 318528,
            "time": 142.199526,
            "velocity": 0.3937007874015748
          },
          {
            "duration": 0.042856999999997925,
            "durationTicks": 96,
            "midi": 39,
            "name": "D#2",
            "ticks": 318528,
            "time": 142.199526,
            "velocity": 0.3937007874015748
          },
          {
            "duration": 0.042856999999997925,
            "durationTicks": 96,
            "midi": 39,
            "name": "D#2",
            "ticks": 318720,
            "time": 142.28524,
            "velocity": 0.3937007874015748
          },
          {
            "duration": 0.042856999999997925,
            "durationTicks": 96,
            "midi": 51,
            "name": "D#3",
            "ticks": 318720,
            "time": 142.28524,
            "velocity": 0.3937007874015748
          },
          {
            "duration": 0.042857000000026346,
            "durationTicks": 96,
            "midi": 47,
            "name": "B2",
            "ticks": 318912,
            "time": 142.37095399999998,
            "velocity": 0.3937007874015748
          },
          {
            "duration": 0.042857000000026346,
            "durationTicks": 96,
            "midi": 35,
            "name": "B1",
            "ticks": 318912,
            "time": 142.37095399999998,
            "velocity": 0.3937007874015748
          },
          {
            "duration": 0.042856999999997925,
            "durationTicks": 96,
            "midi": 47,
            "name": "B2",
            "ticks": 319104,
            "time": 142.456668,
            "velocity": 0.3937007874015748
          },
          {
            "duration": 0.042856999999997925,
            "durationTicks": 96,
            "midi": 35,
            "name": "B1",
            "ticks": 319104,
            "time": 142.456668,
            "velocity": 0.3937007874015748
          },
          {
            "duration": 0.042856999999997925,
            "durationTicks": 96,
            "midi": 35,
            "name": "B1",
            "ticks": 319296,
            "time": 142.542382,
            "velocity": 0.3937007874015748
          },
          {
            "duration": 0.042856999999997925,
            "durationTicks": 96,
            "midi": 47,
            "name": "B2",
            "ticks": 319296,
            "time": 142.542382,
            "velocity": 0.3937007874015748
          },
          {
            "duration": 0.042856999999997925,
            "durationTicks": 96,
            "midi": 35,
            "name": "B1",
            "ticks": 319488,
            "time": 142.628096,
            "velocity": 0.3937007874015748
          },
          {
            "duration": 0.042856999999997925,
            "durationTicks": 96,
            "midi": 47,
            "name": "B2",
            "ticks": 319488,
            "time": 142.628096,
            "velocity": 0.3937007874015748
          },
          {
            "duration": 0.042856999999997925,
            "durationTicks": 96,
            "midi": 40,
            "name": "E2",
            "ticks": 319680,
            "time": 142.71381,
            "velocity": 0.3937007874015748
          },
          {
            "duration": 0.042856999999997925,
            "durationTicks": 96,
            "midi": 52,
            "name": "E3",
            "ticks": 319680,
            "time": 142.71381,
            "velocity": 0.3937007874015748
          },
          {
            "duration": 0.042856999999997925,
            "durationTicks": 96,
            "midi": 40,
            "name": "E2",
            "ticks": 319872,
            "time": 142.799524,
            "velocity": 0.3937007874015748
          },
          {
            "duration": 0.042856999999997925,
            "durationTicks": 96,
            "midi": 52,
            "name": "E3",
            "ticks": 319872,
            "time": 142.799524,
            "velocity": 0.3937007874015748
          },
          {
            "duration": 0.042856999999997925,
            "durationTicks": 96,
            "midi": 40,
            "name": "E2",
            "ticks": 320064,
            "time": 142.885238,
            "velocity": 0.3937007874015748
          },
          {
            "duration": 0.042856999999997925,
            "durationTicks": 96,
            "midi": 52,
            "name": "E3",
            "ticks": 320064,
            "time": 142.885238,
            "velocity": 0.3937007874015748
          },
          {
            "duration": 0.042856999999997925,
            "durationTicks": 96,
            "midi": 40,
            "name": "E2",
            "ticks": 320256,
            "time": 142.970952,
            "velocity": 0.3937007874015748
          },
          {
            "duration": 0.042856999999997925,
            "durationTicks": 96,
            "midi": 52,
            "name": "E3",
            "ticks": 320256,
            "time": 142.970952,
            "velocity": 0.3937007874015748
          },
          {
            "duration": 0.042856999999997925,
            "durationTicks": 96,
            "midi": 44,
            "name": "G#2",
            "ticks": 320448,
            "time": 143.056666,
            "velocity": 0.3937007874015748
          },
          {
            "duration": 0.042856999999997925,
            "durationTicks": 96,
            "midi": 56,
            "name": "G#3",
            "ticks": 320448,
            "time": 143.056666,
            "velocity": 0.3937007874015748
          },
          {
            "duration": 0.042856999999997925,
            "durationTicks": 96,
            "midi": 44,
            "name": "G#2",
            "ticks": 320640,
            "time": 143.14238,
            "velocity": 0.3937007874015748
          },
          {
            "duration": 0.042856999999997925,
            "durationTicks": 96,
            "midi": 56,
            "name": "G#3",
            "ticks": 320640,
            "time": 143.14238,
            "velocity": 0.3937007874015748
          },
          {
            "duration": 0.042856999999997925,
            "durationTicks": 96,
            "midi": 56,
            "name": "G#3",
            "ticks": 320832,
            "time": 143.228094,
            "velocity": 0.3937007874015748
          },
          {
            "duration": 0.042856999999997925,
            "durationTicks": 96,
            "midi": 44,
            "name": "G#2",
            "ticks": 320832,
            "time": 143.228094,
            "velocity": 0.3937007874015748
          },
          {
            "duration": 0.042856999999997925,
            "durationTicks": 96,
            "midi": 56,
            "name": "G#3",
            "ticks": 321024,
            "time": 143.313808,
            "velocity": 0.3937007874015748
          },
          {
            "duration": 0.042856999999997925,
            "durationTicks": 96,
            "midi": 44,
            "name": "G#2",
            "ticks": 321024,
            "time": 143.313808,
            "velocity": 0.3937007874015748
          },
          {
            "duration": 0.042856999999997925,
            "durationTicks": 96,
            "midi": 57,
            "name": "A3",
            "ticks": 321216,
            "time": 143.399522,
            "velocity": 0.3937007874015748
          },
          {
            "duration": 0.042856999999997925,
            "durationTicks": 96,
            "midi": 45,
            "name": "A2",
            "ticks": 321216,
            "time": 143.399522,
            "velocity": 0.3937007874015748
          },
          {
            "duration": 0.042856999999997925,
            "durationTicks": 96,
            "midi": 45,
            "name": "A2",
            "ticks": 321408,
            "time": 143.485236,
            "velocity": 0.3937007874015748
          },
          {
            "duration": 0.042856999999997925,
            "durationTicks": 96,
            "midi": 57,
            "name": "A3",
            "ticks": 321408,
            "time": 143.485236,
            "velocity": 0.3937007874015748
          },
          {
            "duration": 0.042856999999997925,
            "durationTicks": 96,
            "midi": 57,
            "name": "A3",
            "ticks": 321600,
            "time": 143.57095,
            "velocity": 0.3937007874015748
          },
          {
            "duration": 0.042856999999997925,
            "durationTicks": 96,
            "midi": 45,
            "name": "A2",
            "ticks": 321600,
            "time": 143.57095,
            "velocity": 0.3937007874015748
          },
          {
            "duration": 0.042856999999997925,
            "durationTicks": 96,
            "midi": 57,
            "name": "A3",
            "ticks": 321792,
            "time": 143.656664,
            "velocity": 0.3937007874015748
          },
          {
            "duration": 0.042856999999997925,
            "durationTicks": 96,
            "midi": 45,
            "name": "A2",
            "ticks": 321792,
            "time": 143.656664,
            "velocity": 0.3937007874015748
          },
          {
            "duration": 0.042856999999997925,
            "durationTicks": 96,
            "midi": 40,
            "name": "E2",
            "ticks": 321984,
            "time": 143.742378,
            "velocity": 0.3937007874015748
          },
          {
            "duration": 0.042856999999997925,
            "durationTicks": 96,
            "midi": 52,
            "name": "E3",
            "ticks": 321984,
            "time": 143.742378,
            "velocity": 0.3937007874015748
          },
          {
            "duration": 0.042856999999997925,
            "durationTicks": 96,
            "midi": 40,
            "name": "E2",
            "ticks": 322176,
            "time": 143.828092,
            "velocity": 0.3937007874015748
          },
          {
            "duration": 0.042856999999997925,
            "durationTicks": 96,
            "midi": 52,
            "name": "E3",
            "ticks": 322176,
            "time": 143.828092,
            "velocity": 0.3937007874015748
          },
          {
            "duration": 0.042856999999997925,
            "durationTicks": 96,
            "midi": 40,
            "name": "E2",
            "ticks": 322368,
            "time": 143.913806,
            "velocity": 0.3937007874015748
          },
          {
            "duration": 0.042856999999997925,
            "durationTicks": 96,
            "midi": 52,
            "name": "E3",
            "ticks": 322368,
            "time": 143.913806,
            "velocity": 0.3937007874015748
          },
          {
            "duration": 0.042856999999997925,
            "durationTicks": 96,
            "midi": 40,
            "name": "E2",
            "ticks": 322560,
            "time": 143.99952,
            "velocity": 0.3937007874015748
          },
          {
            "duration": 0.042856999999997925,
            "durationTicks": 96,
            "midi": 52,
            "name": "E3",
            "ticks": 322560,
            "time": 143.99952,
            "velocity": 0.3937007874015748
          },
          {
            "duration": 0.042856999999997925,
            "durationTicks": 96,
            "midi": 45,
            "name": "A2",
            "ticks": 322752,
            "time": 144.08523399999999,
            "velocity": 0.3937007874015748
          },
          {
            "duration": 0.042856999999997925,
            "durationTicks": 96,
            "midi": 33,
            "name": "A1",
            "ticks": 322752,
            "time": 144.08523399999999,
            "velocity": 0.3937007874015748
          },
          {
            "duration": 0.042856999999997925,
            "durationTicks": 96,
            "midi": 45,
            "name": "A2",
            "ticks": 322944,
            "time": 144.170948,
            "velocity": 0.3937007874015748
          },
          {
            "duration": 0.042856999999997925,
            "durationTicks": 96,
            "midi": 33,
            "name": "A1",
            "ticks": 322944,
            "time": 144.170948,
            "velocity": 0.3937007874015748
          },
          {
            "duration": 0.042856999999997925,
            "durationTicks": 96,
            "midi": 45,
            "name": "A2",
            "ticks": 323136,
            "time": 144.256662,
            "velocity": 0.3937007874015748
          },
          {
            "duration": 0.042856999999997925,
            "durationTicks": 96,
            "midi": 33,
            "name": "A1",
            "ticks": 323136,
            "time": 144.256662,
            "velocity": 0.3937007874015748
          },
          {
            "duration": 0.042856999999997925,
            "durationTicks": 96,
            "midi": 33,
            "name": "A1",
            "ticks": 323328,
            "time": 144.342376,
            "velocity": 0.3937007874015748
          },
          {
            "duration": 0.042856999999997925,
            "durationTicks": 96,
            "midi": 45,
            "name": "A2",
            "ticks": 323328,
            "time": 144.342376,
            "velocity": 0.3937007874015748
          },
          {
            "duration": 0.042856999999997925,
            "durationTicks": 96,
            "midi": 33,
            "name": "A1",
            "ticks": 323520,
            "time": 144.42809,
            "velocity": 0.3937007874015748
          },
          {
            "duration": 0.042856999999997925,
            "durationTicks": 96,
            "midi": 45,
            "name": "A2",
            "ticks": 323520,
            "time": 144.42809,
            "velocity": 0.3937007874015748
          },
          {
            "duration": 0.042856999999997925,
            "durationTicks": 96,
            "midi": 33,
            "name": "A1",
            "ticks": 323712,
            "time": 144.513804,
            "velocity": 0.3937007874015748
          },
          {
            "duration": 0.042856999999997925,
            "durationTicks": 96,
            "midi": 45,
            "name": "A2",
            "ticks": 323712,
            "time": 144.513804,
            "velocity": 0.3937007874015748
          },
          {
            "duration": 0.042856999999997925,
            "durationTicks": 96,
            "midi": 33,
            "name": "A1",
            "ticks": 323904,
            "time": 144.599518,
            "velocity": 0.3937007874015748
          },
          {
            "duration": 0.042856999999997925,
            "durationTicks": 96,
            "midi": 45,
            "name": "A2",
            "ticks": 323904,
            "time": 144.599518,
            "velocity": 0.3937007874015748
          },
          {
            "duration": 0.042857000000026346,
            "durationTicks": 96,
            "midi": 33,
            "name": "A1",
            "ticks": 324096,
            "time": 144.68523199999998,
            "velocity": 0.3937007874015748
          },
          {
            "duration": 0.042857000000026346,
            "durationTicks": 96,
            "midi": 45,
            "name": "A2",
            "ticks": 324096,
            "time": 144.68523199999998,
            "velocity": 0.3937007874015748
          }
        ],
        "endOfTrackTicks": 324192
      },
      {
        "channel": 4,
        "controlChanges": {},
        "pitchBends": [],
        "instrument": {
          "family": "synth lead",
          "number": 87,
          "name": "lead 8 (bass + lead)"
        },
        "name": "Synth Pluck",
        "notes": [
          {
            "duration": 0.0428569999999997,
            "durationTicks": 96,
            "midi": 52,
            "name": "E3",
            "ticks": 4800,
            "time": 2.14285,
            "velocity": 0.5511811023622047
          },
          {
            "duration": 0.042857000000000145,
            "durationTicks": 96,
            "midi": 63,
            "name": "D#4",
            "ticks": 4896,
            "time": 2.185707,
            "velocity": 0.5511811023622047
          },
          {
            "duration": 0.042857000000000145,
            "durationTicks": 96,
            "midi": 53,
            "name": "F3",
            "ticks": 4992,
            "time": 2.228564,
            "velocity": 0.5511811023622047
          },
          {
            "duration": 0.042857000000000145,
            "durationTicks": 96,
            "midi": 65,
            "name": "F4",
            "ticks": 4992,
            "time": 2.228564,
            "velocity": 0.5511811023622047
          },
          {
            "duration": 0.042857000000000145,
            "durationTicks": 96,
            "midi": 52,
            "name": "E3",
            "ticks": 5184,
            "time": 2.314278,
            "velocity": 0.5511811023622047
          },
          {
            "duration": 0.042857000000000145,
            "durationTicks": 96,
            "midi": 64,
            "name": "E4",
            "ticks": 5184,
            "time": 2.314278,
            "velocity": 0.5511811023622047
          },
          {
            "duration": 0.0428569999999997,
            "durationTicks": 96,
            "midi": 63,
            "name": "D#4",
            "ticks": 5376,
            "time": 2.399992,
            "velocity": 0.5511811023622047
          },
          {
            "duration": 0.0428569999999997,
            "durationTicks": 96,
            "midi": 51,
            "name": "D#3",
            "ticks": 5376,
            "time": 2.399992,
            "velocity": 0.5511811023622047
          },
          {
            "duration": 0.042857000000000145,
            "durationTicks": 96,
            "midi": 52,
            "name": "E3",
            "ticks": 5568,
            "time": 2.485706,
            "velocity": 0.5511811023622047
          },
          {
            "duration": 0.042857000000000145,
            "durationTicks": 96,
            "midi": 64,
            "name": "E4",
            "ticks": 5568,
            "time": 2.485706,
            "velocity": 0.5511811023622047
          },
          {
            "duration": 0.0428569999999997,
            "durationTicks": 96,
            "midi": 57,
            "name": "A3",
            "ticks": 5952,
            "time": 2.657134,
            "velocity": 0.5511811023622047
          },
          {
            "duration": 0.0428569999999997,
            "durationTicks": 96,
            "midi": 45,
            "name": "A2",
            "ticks": 5952,
            "time": 2.657134,
            "velocity": 0.5511811023622047
          },
          {
            "duration": 0.042857000000000145,
            "durationTicks": 96,
            "midi": 60,
            "name": "C4",
            "ticks": 6336,
            "time": 2.828562,
            "velocity": 0.5511811023622047
          },
          {
            "duration": 0.042857000000000145,
            "durationTicks": 96,
            "midi": 48,
            "name": "C3",
            "ticks": 6336,
            "time": 2.828562,
            "velocity": 0.5511811023622047
          },
          {
            "duration": 0.0428569999999997,
            "durationTicks": 96,
            "midi": 47,
            "name": "B2",
            "ticks": 7104,
            "time": 3.171418,
            "velocity": 0.5511811023622047
          },
          {
            "duration": 0.0428569999999997,
            "durationTicks": 96,
            "midi": 59,
            "name": "B3",
            "ticks": 7104,
            "time": 3.171418,
            "velocity": 0.5511811023622047
          },
          {
            "duration": 0.042857000000000145,
            "durationTicks": 96,
            "midi": 48,
            "name": "C3",
            "ticks": 7296,
            "time": 3.257132,
            "velocity": 0.5511811023622047
          },
          {
            "duration": 0.042857000000000145,
            "durationTicks": 96,
            "midi": 60,
            "name": "C4",
            "ticks": 7296,
            "time": 3.257132,
            "velocity": 0.5511811023622047
          },
          {
            "duration": 0.042857000000000145,
            "durationTicks": 96,
            "midi": 59,
            "name": "B3",
            "ticks": 7488,
            "time": 3.3428459999999998,
            "velocity": 0.5511811023622047
          },
          {
            "duration": 0.042857000000000145,
            "durationTicks": 96,
            "midi": 47,
            "name": "B2",
            "ticks": 7488,
            "time": 3.3428459999999998,
            "velocity": 0.5511811023622047
          },
          {
            "duration": 0.0428569999999997,
            "durationTicks": 96,
            "midi": 45,
            "name": "A2",
            "ticks": 7680,
            "time": 3.42856,
            "velocity": 0.5511811023622047
          },
          {
            "duration": 0.0428569999999997,
            "durationTicks": 96,
            "midi": 57,
            "name": "A3",
            "ticks": 7680,
            "time": 3.42856,
            "velocity": 0.5511811023622047
          },
          {
            "duration": 0.042857000000000145,
            "durationTicks": 96,
            "midi": 47,
            "name": "B2",
            "ticks": 7872,
            "time": 3.514274,
            "velocity": 0.5511811023622047
          },
          {
            "duration": 0.042857000000000145,
            "durationTicks": 96,
            "midi": 59,
            "name": "B3",
            "ticks": 7872,
            "time": 3.514274,
            "velocity": 0.5511811023622047
          },
          {
            "duration": 0.0428569999999997,
            "durationTicks": 96,
            "midi": 44,
            "name": "G#2",
            "ticks": 8256,
            "time": 3.685702,
            "velocity": 0.5511811023622047
          },
          {
            "duration": 0.0428569999999997,
            "durationTicks": 96,
            "midi": 56,
            "name": "G#3",
            "ticks": 8256,
            "time": 3.685702,
            "velocity": 0.5511811023622047
          },
          {
            "duration": 0.042857000000000145,
            "durationTicks": 96,
            "midi": 52,
            "name": "E3",
            "ticks": 8640,
            "time": 3.8571299999999997,
            "velocity": 0.5511811023622047
          },
          {
            "duration": 0.042857000000000145,
            "durationTicks": 96,
            "midi": 40,
            "name": "E2",
            "ticks": 8640,
            "time": 3.8571299999999997,
            "velocity": 0.5511811023622047
          },
          {
            "duration": 0.0428569999999997,
            "durationTicks": 96,
            "midi": 47,
            "name": "B2",
            "ticks": 9408,
            "time": 4.199986,
            "velocity": 0.5511811023622047
          },
          {
            "duration": 0.0428569999999997,
            "durationTicks": 96,
            "midi": 35,
            "name": "B1",
            "ticks": 9408,
            "time": 4.199986,
            "velocity": 0.5511811023622047
          },
          {
            "duration": 0.04285700000000059,
            "durationTicks": 96,
            "midi": 32,
            "name": "G#1",
            "ticks": 9792,
            "time": 4.371414,
            "velocity": 0.5511811023622047
          },
          {
            "duration": 0.04285700000000059,
            "durationTicks": 96,
            "midi": 44,
            "name": "G#2",
            "ticks": 9792,
            "time": 4.371414,
            "velocity": 0.5511811023622047
          },
          {
            "duration": 0.0428569999999997,
            "durationTicks": 96,
            "midi": 40,
            "name": "E2",
            "ticks": 10176,
            "time": 4.542842,
            "velocity": 0.5511811023622047
          },
          {
            "duration": 0.0428569999999997,
            "durationTicks": 96,
            "midi": 40,
            "name": "E2",
            "ticks": 10176,
            "time": 4.542842,
            "velocity": 0.5511811023622047
          },
          {
            "duration": 0.04285700000000059,
            "durationTicks": 96,
            "midi": 45,
            "name": "A2",
            "ticks": 10944,
            "time": 4.885698,
            "velocity": 0.5511811023622047
          },
          {
            "duration": 0.04285700000000059,
            "durationTicks": 96,
            "midi": 57,
            "name": "A3",
            "ticks": 10944,
            "time": 4.885698,
            "velocity": 0.5511811023622047
          },
          {
            "duration": 0.0428569999999997,
            "durationTicks": 96,
            "midi": 58,
            "name": "A#3",
            "ticks": 11136,
            "time": 4.971412,
            "velocity": 0.5511811023622047
          },
          {
            "duration": 0.0428569999999997,
            "durationTicks": 96,
            "midi": 46,
            "name": "A#2",
            "ticks": 11136,
            "time": 4.971412,
            "velocity": 0.5511811023622047
          },
          {
            "duration": 0.0428569999999997,
            "durationTicks": 96,
            "midi": 57,
            "name": "A3",
            "ticks": 11328,
            "time": 5.057126,
            "velocity": 0.5511811023622047
          },
          {
            "duration": 0.0428569999999997,
            "durationTicks": 96,
            "midi": 45,
            "name": "A2",
            "ticks": 11328,
            "time": 5.057126,
            "velocity": 0.5511811023622047
          },
          {
            "duration": 0.04285700000000059,
            "durationTicks": 96,
            "midi": 56,
            "name": "G#3",
            "ticks": 11520,
            "time": 5.14284,
            "velocity": 0.5511811023622047
          },
          {
            "duration": 0.04285700000000059,
            "durationTicks": 96,
            "midi": 44,
            "name": "G#2",
            "ticks": 11520,
            "time": 5.14284,
            "velocity": 0.5511811023622047
          },
          {
            "duration": 0.0428569999999997,
            "durationTicks": 96,
            "midi": 57,
            "name": "A3",
            "ticks": 11712,
            "time": 5.228554,
            "velocity": 0.5511811023622047
          },
          {
            "duration": 0.0428569999999997,
            "durationTicks": 96,
            "midi": 45,
            "name": "A2",
            "ticks": 11712,
            "time": 5.228554,
            "velocity": 0.5511811023622047
          },
          {
            "duration": 0.04285700000000059,
            "durationTicks": 96,
            "midi": 49,
            "name": "C#3",
            "ticks": 12096,
            "time": 5.399982,
            "velocity": 0.5511811023622047
          },
          {
            "duration": 0.04285700000000059,
            "durationTicks": 96,
            "midi": 61,
            "name": "C#4",
            "ticks": 12096,
            "time": 5.399982,
            "velocity": 0.5511811023622047
          },
          {
            "duration": 0.0428569999999997,
            "durationTicks": 96,
            "midi": 64,
            "name": "E4",
            "ticks": 12480,
            "time": 5.57141,
            "velocity": 0.5511811023622047
          },
          {
            "duration": 0.0428569999999997,
            "durationTicks": 96,
            "midi": 52,
            "name": "E3",
            "ticks": 12480,
            "time": 5.57141,
            "velocity": 0.5511811023622047
          },
          {
            "duration": 0.04285700000000059,
            "durationTicks": 96,
            "midi": 57,
            "name": "A3",
            "ticks": 13248,
            "time": 5.914266,
            "velocity": 0.5511811023622047
          },
          {
            "duration": 0.04285700000000059,
            "durationTicks": 96,
            "midi": 45,
            "name": "A2",
            "ticks": 13248,
            "time": 5.914266,
            "velocity": 0.5511811023622047
          },
          {
            "duration": 0.0428569999999997,
            "durationTicks": 96,
            "midi": 55,
            "name": "G3",
            "ticks": 13632,
            "time": 6.085694,
            "velocity": 0.5511811023622047
          },
          {
            "duration": 0.0428569999999997,
            "durationTicks": 96,
            "midi": 67,
            "name": "G4",
            "ticks": 13632,
            "time": 6.085694,
            "velocity": 0.5511811023622047
          },
          {
            "duration": 0.0428569999999997,
            "durationTicks": 96,
            "midi": 53,
            "name": "F3",
            "ticks": 14016,
            "time": 6.257122,
            "velocity": 0.5511811023622047
          },
          {
            "duration": 0.0428569999999997,
            "durationTicks": 96,
            "midi": 65,
            "name": "F4",
            "ticks": 14016,
            "time": 6.257122,
            "velocity": 0.5511811023622047
          },
          {
            "duration": 0.0428569999999997,
            "durationTicks": 96,
            "midi": 52,
            "name": "E3",
            "ticks": 14592,
            "time": 6.514264,
            "velocity": 0.5511811023622047
          },
          {
            "duration": 0.0428569999999997,
            "durationTicks": 96,
            "midi": 64,
            "name": "E4",
            "ticks": 14592,
            "time": 6.514264,
            "velocity": 0.5511811023622047
          },
          {
            "duration": 0.0428569999999997,
            "durationTicks": 96,
            "midi": 50,
            "name": "D3",
            "ticks": 14784,
            "time": 6.599978,
            "velocity": 0.5511811023622047
          },
          {
            "duration": 0.0428569999999997,
            "durationTicks": 96,
            "midi": 62,
            "name": "D4",
            "ticks": 14784,
            "time": 6.599978,
            "velocity": 0.5511811023622047
          },
          {
            "duration": 0.04285700000000059,
            "durationTicks": 96,
            "midi": 53,
            "name": "F3",
            "ticks": 15552,
            "time": 6.9428339999999995,
            "velocity": 0.5511811023622047
          },
          {
            "duration": 0.04285700000000059,
            "durationTicks": 96,
            "midi": 41,
            "name": "F2",
            "ticks": 15552,
            "time": 6.9428339999999995,
            "velocity": 0.5511811023622047
          },
          {
            "duration": 0.04285700000000059,
            "durationTicks": 96,
            "midi": 40,
            "name": "E2",
            "ticks": 16128,
            "time": 7.1999759999999995,
            "velocity": 0.5511811023622047
          },
          {
            "duration": 0.04285700000000059,
            "durationTicks": 96,
            "midi": 52,
            "name": "E3",
            "ticks": 16128,
            "time": 7.1999759999999995,
            "velocity": 0.5511811023622047
          },
          {
            "duration": 0.0428569999999997,
            "durationTicks": 96,
            "midi": 38,
            "name": "D2",
            "ticks": 16320,
            "time": 7.28569,
            "velocity": 0.5511811023622047
          },
          {
            "duration": 0.0428569999999997,
            "durationTicks": 96,
            "midi": 50,
            "name": "D3",
            "ticks": 16320,
            "time": 7.28569,
            "velocity": 0.5511811023622047
          },
          {
            "duration": 0.0428569999999997,
            "durationTicks": 96,
            "midi": 62,
            "name": "D4",
            "ticks": 17088,
            "time": 7.628546,
            "velocity": 0.5511811023622047
          },
          {
            "duration": 0.0428569999999997,
            "durationTicks": 96,
            "midi": 50,
            "name": "D3",
            "ticks": 17088,
            "time": 7.628546,
            "velocity": 0.5511811023622047
          },
          {
            "duration": 0.04285700000000059,
            "durationTicks": 96,
            "midi": 52,
            "name": "E3",
            "ticks": 17280,
            "time": 7.7142599999999995,
            "velocity": 0.5511811023622047
          },
          {
            "duration": 0.04285700000000059,
            "durationTicks": 96,
            "midi": 64,
            "name": "E4",
            "ticks": 17280,
            "time": 7.7142599999999995,
            "velocity": 0.5511811023622047
          },
          {
            "duration": 0.0428569999999997,
            "durationTicks": 96,
            "midi": 50,
            "name": "D3",
            "ticks": 17472,
            "time": 7.799974,
            "velocity": 0.5511811023622047
          },
          {
            "duration": 0.0428569999999997,
            "durationTicks": 96,
            "midi": 62,
            "name": "D4",
            "ticks": 17472,
            "time": 7.799974,
            "velocity": 0.5511811023622047
          },
          {
            "duration": 0.0428569999999997,
            "durationTicks": 96,
            "midi": 61,
            "name": "C#4",
            "ticks": 17664,
            "time": 7.885688,
            "velocity": 0.5511811023622047
          },
          {
            "duration": 0.0428569999999997,
            "durationTicks": 96,
            "midi": 49,
            "name": "C#3",
            "ticks": 17664,
            "time": 7.885688,
            "velocity": 0.5511811023622047
          },
          {
            "duration": 0.0428569999999997,
            "durationTicks": 96,
            "midi": 62,
            "name": "D4",
            "ticks": 17856,
            "time": 7.971401999999999,
            "velocity": 0.5511811023622047
          },
          {
            "duration": 0.0428569999999997,
            "durationTicks": 96,
            "midi": 50,
            "name": "D3",
            "ticks": 17856,
            "time": 7.971401999999999,
            "velocity": 0.5511811023622047
          },
          {
            "duration": 0.0428569999999997,
            "durationTicks": 96,
            "midi": 53,
            "name": "F3",
            "ticks": 18240,
            "time": 8.14283,
            "velocity": 0.5511811023622047
          },
          {
            "duration": 0.0428569999999997,
            "durationTicks": 96,
            "midi": 65,
            "name": "F4",
            "ticks": 18240,
            "time": 8.14283,
            "velocity": 0.5511811023622047
          },
          {
            "duration": 0.0428569999999997,
            "durationTicks": 96,
            "midi": 64,
            "name": "E4",
            "ticks": 18624,
            "time": 8.314258,
            "velocity": 0.5511811023622047
          },
          {
            "duration": 0.0428569999999997,
            "durationTicks": 96,
            "midi": 52,
            "name": "E3",
            "ticks": 18624,
            "time": 8.314258,
            "velocity": 0.5511811023622047
          },
          {
            "duration": 0.0428569999999997,
            "durationTicks": 96,
            "midi": 47,
            "name": "B2",
            "ticks": 19392,
            "time": 8.657114,
            "velocity": 0.5511811023622047
          },
          {
            "duration": 0.0428569999999997,
            "durationTicks": 96,
            "midi": 59,
            "name": "B3",
            "ticks": 19392,
            "time": 8.657114,
            "velocity": 0.5511811023622047
          },
          {
            "duration": 0.0428569999999997,
            "durationTicks": 96,
            "midi": 62,
            "name": "D4",
            "ticks": 19776,
            "time": 8.828542,
            "velocity": 0.5511811023622047
          },
          {
            "duration": 0.0428569999999997,
            "durationTicks": 96,
            "midi": 50,
            "name": "D3",
            "ticks": 19776,
            "time": 8.828542,
            "velocity": 0.5511811023622047
          },
          {
            "duration": 0.0428569999999997,
            "durationTicks": 96,
            "midi": 60,
            "name": "C4",
            "ticks": 20160,
            "time": 8.99997,
            "velocity": 0.5511811023622047
          },
          {
            "duration": 0.0428569999999997,
            "durationTicks": 96,
            "midi": 48,
            "name": "C3",
            "ticks": 20160,
            "time": 8.99997,
            "velocity": 0.5511811023622047
          },
          {
            "duration": 0.0428569999999997,
            "durationTicks": 96,
            "midi": 60,
            "name": "C4",
            "ticks": 20544,
            "time": 9.171398,
            "velocity": 0.5511811023622047
          },
          {
            "duration": 0.0428569999999997,
            "durationTicks": 96,
            "midi": 48,
            "name": "C3",
            "ticks": 20544,
            "time": 9.171398,
            "velocity": 0.5511811023622047
          },
          {
            "duration": 0.0428569999999997,
            "durationTicks": 96,
            "midi": 59,
            "name": "B3",
            "ticks": 20736,
            "time": 9.257112,
            "velocity": 0.5511811023622047
          },
          {
            "duration": 0.0428569999999997,
            "durationTicks": 96,
            "midi": 47,
            "name": "B2",
            "ticks": 20736,
            "time": 9.257112,
            "velocity": 0.5511811023622047
          },
          {
            "duration": 0.0428569999999997,
            "durationTicks": 96,
            "midi": 45,
            "name": "A2",
            "ticks": 20928,
            "time": 9.342826,
            "velocity": 0.5511811023622047
          },
          {
            "duration": 0.0428569999999997,
            "durationTicks": 96,
            "midi": 57,
            "name": "A3",
            "ticks": 20928,
            "time": 9.342826,
            "velocity": 0.5511811023622047
          },
          {
            "duration": 0.0428569999999997,
            "durationTicks": 96,
            "midi": 59,
            "name": "B3",
            "ticks": 21120,
            "time": 9.42854,
            "velocity": 0.5511811023622047
          },
          {
            "duration": 0.0428569999999997,
            "durationTicks": 96,
            "midi": 47,
            "name": "B2",
            "ticks": 21120,
            "time": 9.42854,
            "velocity": 0.5511811023622047
          },
          {
            "duration": 0.0428569999999997,
            "durationTicks": 96,
            "midi": 60,
            "name": "C4",
            "ticks": 21312,
            "time": 9.514254,
            "velocity": 0.5511811023622047
          },
          {
            "duration": 0.0428569999999997,
            "durationTicks": 96,
            "midi": 48,
            "name": "C3",
            "ticks": 21312,
            "time": 9.514254,
            "velocity": 0.5511811023622047
          },
          {
            "duration": 0.0428569999999997,
            "durationTicks": 96,
            "midi": 64,
            "name": "E4",
            "ticks": 21504,
            "time": 9.599968,
            "velocity": 0.5511811023622047
          },
          {
            "duration": 0.0428569999999997,
            "durationTicks": 96,
            "midi": 52,
            "name": "E3",
            "ticks": 21504,
            "time": 9.599968,
            "velocity": 0.5511811023622047
          },
          {
            "duration": 0.0428569999999997,
            "durationTicks": 96,
            "midi": 57,
            "name": "A3",
            "ticks": 21696,
            "time": 9.685682,
            "velocity": 0.5511811023622047
          },
          {
            "duration": 0.0428569999999997,
            "durationTicks": 96,
            "midi": 69,
            "name": "A4",
            "ticks": 21696,
            "time": 9.685682,
            "velocity": 0.5511811023622047
          },
          {
            "duration": 0.0428569999999997,
            "durationTicks": 96,
            "midi": 71,
            "name": "B4",
            "ticks": 22848,
            "time": 10.199966,
            "velocity": 0.5511811023622047
          },
          {
            "duration": 0.0428569999999997,
            "durationTicks": 96,
            "midi": 59,
            "name": "B3",
            "ticks": 22848,
            "time": 10.199966,
            "velocity": 0.5511811023622047
          },
          {
            "duration": 0.0428569999999997,
            "durationTicks": 96,
            "midi": 72,
            "name": "C5",
            "ticks": 23040,
            "time": 10.28568,
            "velocity": 0.5511811023622047
          },
          {
            "duration": 0.0428569999999997,
            "durationTicks": 96,
            "midi": 60,
            "name": "C4",
            "ticks": 23040,
            "time": 10.28568,
            "velocity": 0.5511811023622047
          },
          {
            "duration": 0.0428569999999997,
            "durationTicks": 96,
            "midi": 71,
            "name": "B4",
            "ticks": 23232,
            "time": 10.371394,
            "velocity": 0.5511811023622047
          },
          {
            "duration": 0.0428569999999997,
            "durationTicks": 96,
            "midi": 59,
            "name": "B3",
            "ticks": 23232,
            "time": 10.371394,
            "velocity": 0.5511811023622047
          },
          {
            "duration": 0.0428569999999997,
            "durationTicks": 96,
            "midi": 69,
            "name": "A4",
            "ticks": 23808,
            "time": 10.628536,
            "velocity": 0.5511811023622047
          },
          {
            "duration": 0.0428569999999997,
            "durationTicks": 96,
            "midi": 57,
            "name": "A3",
            "ticks": 23808,
            "time": 10.628536,
            "velocity": 0.5511811023622047
          },
          {
            "duration": 0.0428569999999997,
            "durationTicks": 96,
            "midi": 57,
            "name": "A3",
            "ticks": 24000,
            "time": 10.71425,
            "velocity": 0.5511811023622047
          },
          {
            "duration": 0.0428569999999997,
            "durationTicks": 96,
            "midi": 69,
            "name": "A4",
            "ticks": 24000,
            "time": 10.71425,
            "velocity": 0.5511811023622047
          },
          {
            "duration": 0.0428569999999997,
            "durationTicks": 96,
            "midi": 55,
            "name": "G3",
            "ticks": 24576,
            "time": 10.971392,
            "velocity": 0.5511811023622047
          },
          {
            "duration": 0.0428569999999997,
            "durationTicks": 96,
            "midi": 67,
            "name": "G4",
            "ticks": 24576,
            "time": 10.971392,
            "velocity": 0.5511811023622047
          },
          {
            "duration": 0.04285700000000148,
            "durationTicks": 96,
            "midi": 55,
            "name": "G3",
            "ticks": 24768,
            "time": 11.057106,
            "velocity": 0.5511811023622047
          },
          {
            "duration": 0.04285700000000148,
            "durationTicks": 96,
            "midi": 67,
            "name": "G4",
            "ticks": 24768,
            "time": 11.057106,
            "velocity": 0.5511811023622047
          },
          {
            "duration": 0.04285700000000148,
            "durationTicks": 96,
            "midi": 53,
            "name": "F3",
            "ticks": 25344,
            "time": 11.314248,
            "velocity": 0.5511811023622047
          },
          {
            "duration": 0.04285700000000148,
            "durationTicks": 96,
            "midi": 65,
            "name": "F4",
            "ticks": 25344,
            "time": 11.314248,
            "velocity": 0.5511811023622047
          },
          {
            "duration": 0.0428569999999997,
            "durationTicks": 96,
            "midi": 65,
            "name": "F4",
            "ticks": 25536,
            "time": 11.399962,
            "velocity": 0.5511811023622047
          },
          {
            "duration": 0.0428569999999997,
            "durationTicks": 96,
            "midi": 53,
            "name": "F3",
            "ticks": 25536,
            "time": 11.399962,
            "velocity": 0.5511811023622047
          },
          {
            "duration": 0.0428569999999997,
            "durationTicks": 96,
            "midi": 51,
            "name": "D#3",
            "ticks": 26112,
            "time": 11.657104,
            "velocity": 0.5511811023622047
          },
          {
            "duration": 0.0428569999999997,
            "durationTicks": 96,
            "midi": 63,
            "name": "D#4",
            "ticks": 26112,
            "time": 11.657104,
            "velocity": 0.5511811023622047
          },
          {
            "duration": 0.0428569999999997,
            "durationTicks": 96,
            "midi": 52,
            "name": "E3",
            "ticks": 26304,
            "time": 11.742818,
            "velocity": 0.5511811023622047
          },
          {
            "duration": 0.0428569999999997,
            "durationTicks": 96,
            "midi": 64,
            "name": "E4",
            "ticks": 26304,
            "time": 11.742818,
            "velocity": 0.5511811023622047
          },
          {
            "duration": 0.0428569999999997,
            "durationTicks": 96,
            "midi": 52,
            "name": "E3",
            "ticks": 26688,
            "time": 11.914246,
            "velocity": 0.5511811023622047
          },
          {
            "duration": 0.0428569999999997,
            "durationTicks": 96,
            "midi": 64,
            "name": "E4",
            "ticks": 26688,
            "time": 11.914246,
            "velocity": 0.5511811023622047
          },
          {
            "duration": 0.0428569999999997,
            "durationTicks": 96,
            "midi": 65,
            "name": "F4",
            "ticks": 26880,
            "time": 11.99996,
            "velocity": 0.5511811023622047
          },
          {
            "duration": 0.0428569999999997,
            "durationTicks": 96,
            "midi": 53,
            "name": "F3",
            "ticks": 26880,
            "time": 11.99996,
            "velocity": 0.5511811023622047
          },
          {
            "duration": 0.04285700000000148,
            "durationTicks": 96,
            "midi": 64,
            "name": "E4",
            "ticks": 27072,
            "time": 12.085674,
            "velocity": 0.5511811023622047
          },
          {
            "duration": 0.04285700000000148,
            "durationTicks": 96,
            "midi": 52,
            "name": "E3",
            "ticks": 27072,
            "time": 12.085674,
            "velocity": 0.5511811023622047
          },
          {
            "duration": 0.04285700000000148,
            "durationTicks": 96,
            "midi": 52,
            "name": "E3",
            "ticks": 29376,
            "time": 13.114241999999999,
            "velocity": 0.5511811023622047
          },
          {
            "duration": 0.04285700000000148,
            "durationTicks": 96,
            "midi": 64,
            "name": "E4",
            "ticks": 29376,
            "time": 13.114241999999999,
            "velocity": 0.5511811023622047
          },
          {
            "duration": 0.0428569999999997,
            "durationTicks": 96,
            "midi": 65,
            "name": "F4",
            "ticks": 29568,
            "time": 13.199956,
            "velocity": 0.5511811023622047
          },
          {
            "duration": 0.0428569999999997,
            "durationTicks": 96,
            "midi": 53,
            "name": "F3",
            "ticks": 29568,
            "time": 13.199956,
            "velocity": 0.5511811023622047
          },
          {
            "duration": 0.0428569999999997,
            "durationTicks": 96,
            "midi": 52,
            "name": "E3",
            "ticks": 29760,
            "time": 13.28567,
            "velocity": 0.5511811023622047
          },
          {
            "duration": 0.0428569999999997,
            "durationTicks": 96,
            "midi": 64,
            "name": "E4",
            "ticks": 29760,
            "time": 13.28567,
            "velocity": 0.5511811023622047
          },
          {
            "duration": 0.04285700000000148,
            "durationTicks": 96,
            "midi": 51,
            "name": "D#3",
            "ticks": 29952,
            "time": 13.371383999999999,
            "velocity": 0.5511811023622047
          },
          {
            "duration": 0.04285700000000148,
            "durationTicks": 96,
            "midi": 63,
            "name": "D#4",
            "ticks": 29952,
            "time": 13.371383999999999,
            "velocity": 0.5511811023622047
          },
          {
            "duration": 0.0428569999999997,
            "durationTicks": 96,
            "midi": 64,
            "name": "E4",
            "ticks": 30144,
            "time": 13.457098,
            "velocity": 0.5511811023622047
          },
          {
            "duration": 0.0428569999999997,
            "durationTicks": 96,
            "midi": 52,
            "name": "E3",
            "ticks": 30144,
            "time": 13.457098,
            "velocity": 0.5511811023622047
          },
          {
            "duration": 0.04285700000000148,
            "durationTicks": 96,
            "midi": 57,
            "name": "A3",
            "ticks": 30528,
            "time": 13.628525999999999,
            "velocity": 0.5511811023622047
          },
          {
            "duration": 0.04285700000000148,
            "durationTicks": 96,
            "midi": 45,
            "name": "A2",
            "ticks": 30528,
            "time": 13.628525999999999,
            "velocity": 0.5511811023622047
          },
          {
            "duration": 0.0428569999999997,
            "durationTicks": 96,
            "midi": 60,
            "name": "C4",
            "ticks": 30912,
            "time": 13.799954,
            "velocity": 0.5511811023622047
          },
          {
            "duration": 0.0428569999999997,
            "durationTicks": 96,
            "midi": 48,
            "name": "C3",
            "ticks": 30912,
            "time": 13.799954,
            "velocity": 0.5511811023622047
          },
          {
            "duration": 0.04285700000000148,
            "durationTicks": 96,
            "midi": 59,
            "name": "B3",
            "ticks": 31680,
            "time": 14.142809999999999,
            "velocity": 0.5511811023622047
          },
          {
            "duration": 0.04285700000000148,
            "durationTicks": 96,
            "midi": 47,
            "name": "B2",
            "ticks": 31680,
            "time": 14.142809999999999,
            "velocity": 0.5511811023622047
          },
          {
            "duration": 0.0428569999999997,
            "durationTicks": 96,
            "midi": 60,
            "name": "C4",
            "ticks": 31872,
            "time": 14.228524,
            "velocity": 0.5511811023622047
          },
          {
            "duration": 0.0428569999999997,
            "durationTicks": 96,
            "midi": 48,
            "name": "C3",
            "ticks": 31872,
            "time": 14.228524,
            "velocity": 0.5511811023622047
          },
          {
            "duration": 0.0428569999999997,
            "durationTicks": 96,
            "midi": 47,
            "name": "B2",
            "ticks": 32064,
            "time": 14.314238,
            "velocity": 0.5511811023622047
          },
          {
            "duration": 0.0428569999999997,
            "durationTicks": 96,
            "midi": 59,
            "name": "B3",
            "ticks": 32064,
            "time": 14.314238,
            "velocity": 0.5511811023622047
          },
          {
            "duration": 0.04285700000000148,
            "durationTicks": 96,
            "midi": 57,
            "name": "A3",
            "ticks": 32256,
            "time": 14.399951999999999,
            "velocity": 0.5511811023622047
          },
          {
            "duration": 0.04285700000000148,
            "durationTicks": 96,
            "midi": 45,
            "name": "A2",
            "ticks": 32256,
            "time": 14.399951999999999,
            "velocity": 0.5511811023622047
          },
          {
            "duration": 0.0428569999999997,
            "durationTicks": 96,
            "midi": 59,
            "name": "B3",
            "ticks": 32448,
            "time": 14.485666,
            "velocity": 0.5511811023622047
          },
          {
            "duration": 0.0428569999999997,
            "durationTicks": 96,
            "midi": 47,
            "name": "B2",
            "ticks": 32448,
            "time": 14.485666,
            "velocity": 0.5511811023622047
          },
          {
            "duration": 0.04285700000000148,
            "durationTicks": 96,
            "midi": 44,
            "name": "G#2",
            "ticks": 32832,
            "time": 14.657093999999999,
            "velocity": 0.5511811023622047
          },
          {
            "duration": 0.04285700000000148,
            "durationTicks": 96,
            "midi": 56,
            "name": "G#3",
            "ticks": 32832,
            "time": 14.657093999999999,
            "velocity": 0.5511811023622047
          },
          {
            "duration": 0.0428569999999997,
            "durationTicks": 96,
            "midi": 52,
            "name": "E3",
            "ticks": 33216,
            "time": 14.828522,
            "velocity": 0.5511811023622047
          },
          {
            "duration": 0.0428569999999997,
            "durationTicks": 96,
            "midi": 40,
            "name": "E2",
            "ticks": 33216,
            "time": 14.828522,
            "velocity": 0.5511811023622047
          },
          {
            "duration": 0.04285700000000148,
            "durationTicks": 96,
            "midi": 47,
            "name": "B2",
            "ticks": 33984,
            "time": 15.171377999999999,
            "velocity": 0.5511811023622047
          },
          {
            "duration": 0.04285700000000148,
            "durationTicks": 96,
            "midi": 35,
            "name": "B1",
            "ticks": 33984,
            "time": 15.171377999999999,
            "velocity": 0.5511811023622047
          },
          {
            "duration": 0.0428569999999997,
            "durationTicks": 96,
            "midi": 32,
            "name": "G#1",
            "ticks": 34368,
            "time": 15.342806,
            "velocity": 0.5511811023622047
          },
          {
            "duration": 0.0428569999999997,
            "durationTicks": 96,
            "midi": 44,
            "name": "G#2",
            "ticks": 34368,
            "time": 15.342806,
            "velocity": 0.5511811023622047
          },
          {
            "duration": 0.0428569999999997,
            "durationTicks": 96,
            "midi": 40,
            "name": "E2",
            "ticks": 34752,
            "time": 15.514234,
            "velocity": 0.5511811023622047
          },
          {
            "duration": 0.0428569999999997,
            "durationTicks": 96,
            "midi": 40,
            "name": "E2",
            "ticks": 34752,
            "time": 15.514234,
            "velocity": 0.5511811023622047
          },
          {
            "duration": 0.0428569999999997,
            "durationTicks": 96,
            "midi": 57,
            "name": "A3",
            "ticks": 35520,
            "time": 15.85709,
            "velocity": 0.5511811023622047
          },
          {
            "duration": 0.0428569999999997,
            "durationTicks": 96,
            "midi": 45,
            "name": "A2",
            "ticks": 35520,
            "time": 15.85709,
            "velocity": 0.5511811023622047
          },
          {
            "duration": 0.04285700000000148,
            "durationTicks": 96,
            "midi": 46,
            "name": "A#2",
            "ticks": 35712,
            "time": 15.942803999999999,
            "velocity": 0.5511811023622047
          },
          {
            "duration": 0.04285700000000148,
            "durationTicks": 96,
            "midi": 58,
            "name": "A#3",
            "ticks": 35712,
            "time": 15.942803999999999,
            "velocity": 0.5511811023622047
          },
          {
            "duration": 0.04285700000000148,
            "durationTicks": 96,
            "midi": 57,
            "name": "A3",
            "ticks": 35904,
            "time": 16.028518,
            "velocity": 0.5511811023622047
          },
          {
            "duration": 0.04285700000000148,
            "durationTicks": 96,
            "midi": 45,
            "name": "A2",
            "ticks": 35904,
            "time": 16.028518,
            "velocity": 0.5511811023622047
          },
          {
            "duration": 0.042856999999997925,
            "durationTicks": 96,
            "midi": 56,
            "name": "G#3",
            "ticks": 36096,
            "time": 16.114232,
            "velocity": 0.5511811023622047
          },
          {
            "duration": 0.042856999999997925,
            "durationTicks": 96,
            "midi": 44,
            "name": "G#2",
            "ticks": 36096,
            "time": 16.114232,
            "velocity": 0.5511811023622047
          },
          {
            "duration": 0.042856999999997925,
            "durationTicks": 96,
            "midi": 57,
            "name": "A3",
            "ticks": 36288,
            "time": 16.199946,
            "velocity": 0.5511811023622047
          },
          {
            "duration": 0.042856999999997925,
            "durationTicks": 96,
            "midi": 45,
            "name": "A2",
            "ticks": 36288,
            "time": 16.199946,
            "velocity": 0.5511811023622047
          },
          {
            "duration": 0.04285700000000148,
            "durationTicks": 96,
            "midi": 49,
            "name": "C#3",
            "ticks": 36672,
            "time": 16.371374,
            "velocity": 0.5511811023622047
          },
          {
            "duration": 0.04285700000000148,
            "durationTicks": 96,
            "midi": 61,
            "name": "C#4",
            "ticks": 36672,
            "time": 16.371374,
            "velocity": 0.5511811023622047
          },
          {
            "duration": 0.04285700000000148,
            "durationTicks": 96,
            "midi": 52,
            "name": "E3",
            "ticks": 37056,
            "time": 16.542802,
            "velocity": 0.5511811023622047
          },
          {
            "duration": 0.04285700000000148,
            "durationTicks": 96,
            "midi": 64,
            "name": "E4",
            "ticks": 37056,
            "time": 16.542802,
            "velocity": 0.5511811023622047
          },
          {
            "duration": 0.04285700000000148,
            "durationTicks": 96,
            "midi": 45,
            "name": "A2",
            "ticks": 37824,
            "time": 16.885658,
            "velocity": 0.5511811023622047
          },
          {
            "duration": 0.04285700000000148,
            "durationTicks": 96,
            "midi": 57,
            "name": "A3",
            "ticks": 37824,
            "time": 16.885658,
            "velocity": 0.5511811023622047
          },
          {
            "duration": 0.04285700000000148,
            "durationTicks": 96,
            "midi": 67,
            "name": "G4",
            "ticks": 38208,
            "time": 17.057085999999998,
            "velocity": 0.5511811023622047
          },
          {
            "duration": 0.04285700000000148,
            "durationTicks": 96,
            "midi": 55,
            "name": "G3",
            "ticks": 38208,
            "time": 17.057085999999998,
            "velocity": 0.5511811023622047
          },
          {
            "duration": 0.042856999999997925,
            "durationTicks": 96,
            "midi": 53,
            "name": "F3",
            "ticks": 38592,
            "time": 17.228514,
            "velocity": 0.5511811023622047
          },
          {
            "duration": 0.042856999999997925,
            "durationTicks": 96,
            "midi": 65,
            "name": "F4",
            "ticks": 38592,
            "time": 17.228514,
            "velocity": 0.5511811023622047
          },
          {
            "duration": 0.04285700000000148,
            "durationTicks": 96,
            "midi": 52,
            "name": "E3",
            "ticks": 39168,
            "time": 17.485656,
            "velocity": 0.5511811023622047
          },
          {
            "duration": 0.04285700000000148,
            "durationTicks": 96,
            "midi": 64,
            "name": "E4",
            "ticks": 39168,
            "time": 17.485656,
            "velocity": 0.5511811023622047
          },
          {
            "duration": 0.04285700000000148,
            "durationTicks": 96,
            "midi": 62,
            "name": "D4",
            "ticks": 39360,
            "time": 17.571369999999998,
            "velocity": 0.5511811023622047
          },
          {
            "duration": 0.04285700000000148,
            "durationTicks": 96,
            "midi": 50,
            "name": "D3",
            "ticks": 39360,
            "time": 17.571369999999998,
            "velocity": 0.5511811023622047
          },
          {
            "duration": 0.04285700000000148,
            "durationTicks": 96,
            "midi": 41,
            "name": "F2",
            "ticks": 40128,
            "time": 17.914226,
            "velocity": 0.5511811023622047
          },
          {
            "duration": 0.04285700000000148,
            "durationTicks": 96,
            "midi": 53,
            "name": "F3",
            "ticks": 40128,
            "time": 17.914226,
            "velocity": 0.5511811023622047
          },
          {
            "duration": 0.042856999999997925,
            "durationTicks": 96,
            "midi": 40,
            "name": "E2",
            "ticks": 40704,
            "time": 18.171368,
            "velocity": 0.5511811023622047
          },
          {
            "duration": 0.042856999999997925,
            "durationTicks": 96,
            "midi": 52,
            "name": "E3",
            "ticks": 40704,
            "time": 18.171368,
            "velocity": 0.5511811023622047
          },
          {
            "duration": 0.042856999999997925,
            "durationTicks": 96,
            "midi": 38,
            "name": "D2",
            "ticks": 40896,
            "time": 18.257082,
            "velocity": 0.5511811023622047
          },
          {
            "duration": 0.042856999999997925,
            "durationTicks": 96,
            "midi": 50,
            "name": "D3",
            "ticks": 40896,
            "time": 18.257082,
            "velocity": 0.5511811023622047
          },
          {
            "duration": 0.04285700000000148,
            "durationTicks": 96,
            "midi": 62,
            "name": "D4",
            "ticks": 41664,
            "time": 18.599937999999998,
            "velocity": 0.5511811023622047
          },
          {
            "duration": 0.04285700000000148,
            "durationTicks": 96,
            "midi": 50,
            "name": "D3",
            "ticks": 41664,
            "time": 18.599937999999998,
            "velocity": 0.5511811023622047
          },
          {
            "duration": 0.042856999999997925,
            "durationTicks": 96,
            "midi": 64,
            "name": "E4",
            "ticks": 41856,
            "time": 18.685652,
            "velocity": 0.5511811023622047
          },
          {
            "duration": 0.042856999999997925,
            "durationTicks": 96,
            "midi": 52,
            "name": "E3",
            "ticks": 41856,
            "time": 18.685652,
            "velocity": 0.5511811023622047
          },
          {
            "duration": 0.042856999999997925,
            "durationTicks": 96,
            "midi": 62,
            "name": "D4",
            "ticks": 42048,
            "time": 18.771366,
            "velocity": 0.5511811023622047
          },
          {
            "duration": 0.042856999999997925,
            "durationTicks": 96,
            "midi": 50,
            "name": "D3",
            "ticks": 42048,
            "time": 18.771366,
            "velocity": 0.5511811023622047
          },
          {
            "duration": 0.04285700000000148,
            "durationTicks": 96,
            "midi": 49,
            "name": "C#3",
            "ticks": 42240,
            "time": 18.85708,
            "velocity": 0.5511811023622047
          },
          {
            "duration": 0.04285700000000148,
            "durationTicks": 96,
            "midi": 61,
            "name": "C#4",
            "ticks": 42240,
            "time": 18.85708,
            "velocity": 0.5511811023622047
          },
          {
            "duration": 0.04285700000000148,
            "durationTicks": 96,
            "midi": 62,
            "name": "D4",
            "ticks": 42432,
            "time": 18.942794,
            "velocity": 0.5511811023622047
          },
          {
            "duration": 0.04285700000000148,
            "durationTicks": 96,
            "midi": 50,
            "name": "D3",
            "ticks": 42432,
            "time": 18.942794,
            "velocity": 0.5511811023622047
          },
          {
            "duration": 0.04285700000000148,
            "durationTicks": 96,
            "midi": 53,
            "name": "F3",
            "ticks": 42816,
            "time": 19.114221999999998,
            "velocity": 0.5511811023622047
          },
          {
            "duration": 0.04285700000000148,
            "durationTicks": 96,
            "midi": 65,
            "name": "F4",
            "ticks": 42816,
            "time": 19.114221999999998,
            "velocity": 0.5511811023622047
          },
          {
            "duration": 0.042856999999997925,
            "durationTicks": 96,
            "midi": 52,
            "name": "E3",
            "ticks": 43200,
            "time": 19.28565,
            "velocity": 0.5511811023622047
          },
          {
            "duration": 0.042856999999997925,
            "durationTicks": 96,
            "midi": 64,
            "name": "E4",
            "ticks": 43200,
            "time": 19.28565,
            "velocity": 0.5511811023622047
          },
          {
            "duration": 0.04285700000000148,
            "durationTicks": 96,
            "midi": 59,
            "name": "B3",
            "ticks": 43968,
            "time": 19.628505999999998,
            "velocity": 0.5511811023622047
          },
          {
            "duration": 0.04285700000000148,
            "durationTicks": 96,
            "midi": 47,
            "name": "B2",
            "ticks": 43968,
            "time": 19.628505999999998,
            "velocity": 0.5511811023622047
          },
          {
            "duration": 0.042856999999997925,
            "durationTicks": 96,
            "midi": 50,
            "name": "D3",
            "ticks": 44352,
            "time": 19.799934,
            "velocity": 0.5511811023622047
          },
          {
            "duration": 0.042856999999997925,
            "durationTicks": 96,
            "midi": 62,
            "name": "D4",
            "ticks": 44352,
            "time": 19.799934,
            "velocity": 0.5511811023622047
          },
          {
            "duration": 0.04285700000000148,
            "durationTicks": 96,
            "midi": 48,
            "name": "C3",
            "ticks": 44736,
            "time": 19.971362,
            "velocity": 0.5511811023622047
          },
          {
            "duration": 0.04285700000000148,
            "durationTicks": 96,
            "midi": 60,
            "name": "C4",
            "ticks": 44736,
            "time": 19.971362,
            "velocity": 0.5511811023622047
          },
          {
            "duration": 0.04285700000000148,
            "durationTicks": 96,
            "midi": 60,
            "name": "C4",
            "ticks": 45120,
            "time": 20.142789999999998,
            "velocity": 0.5511811023622047
          },
          {
            "duration": 0.04285700000000148,
            "durationTicks": 96,
            "midi": 48,
            "name": "C3",
            "ticks": 45120,
            "time": 20.142789999999998,
            "velocity": 0.5511811023622047
          },
          {
            "duration": 0.042856999999997925,
            "durationTicks": 96,
            "midi": 59,
            "name": "B3",
            "ticks": 45312,
            "time": 20.228504,
            "velocity": 0.5511811023622047
          },
          {
            "duration": 0.042856999999997925,
            "durationTicks": 96,
            "midi": 47,
            "name": "B2",
            "ticks": 45312,
            "time": 20.228504,
            "velocity": 0.5511811023622047
          },
          {
            "duration": 0.042856999999997925,
            "durationTicks": 96,
            "midi": 57,
            "name": "A3",
            "ticks": 45504,
            "time": 20.314218,
            "velocity": 0.5511811023622047
          },
          {
            "duration": 0.042856999999997925,
            "durationTicks": 96,
            "midi": 45,
            "name": "A2",
            "ticks": 45504,
            "time": 20.314218,
            "velocity": 0.5511811023622047
          },
          {
            "duration": 0.04285700000000148,
            "durationTicks": 96,
            "midi": 59,
            "name": "B3",
            "ticks": 45696,
            "time": 20.399932,
            "velocity": 0.5511811023622047
          },
          {
            "duration": 0.04285700000000148,
            "durationTicks": 96,
            "midi": 47,
            "name": "B2",
            "ticks": 45696,
            "time": 20.399932,
            "velocity": 0.5511811023622047
          },
          {
            "duration": 0.04285700000000148,
            "durationTicks": 96,
            "midi": 48,
            "name": "C3",
            "ticks": 45888,
            "time": 20.485646,
            "velocity": 0.5511811023622047
          },
          {
            "duration": 0.04285700000000148,
            "durationTicks": 96,
            "midi": 60,
            "name": "C4",
            "ticks": 45888,
            "time": 20.485646,
            "velocity": 0.5511811023622047
          },
          {
            "duration": 0.04285700000000148,
            "durationTicks": 96,
            "midi": 64,
            "name": "E4",
            "ticks": 46080,
            "time": 20.57136,
            "velocity": 0.5511811023622047
          },
          {
            "duration": 0.04285700000000148,
            "durationTicks": 96,
            "midi": 52,
            "name": "E3",
            "ticks": 46080,
            "time": 20.57136,
            "velocity": 0.5511811023622047
          },
          {
            "duration": 0.04285700000000148,
            "durationTicks": 96,
            "midi": 69,
            "name": "A4",
            "ticks": 46272,
            "time": 20.657073999999998,
            "velocity": 0.5511811023622047
          },
          {
            "duration": 0.04285700000000148,
            "durationTicks": 96,
            "midi": 57,
            "name": "A3",
            "ticks": 46272,
            "time": 20.657073999999998,
            "velocity": 0.5511811023622047
          },
          {
            "duration": 0.04285700000000148,
            "durationTicks": 96,
            "midi": 71,
            "name": "B4",
            "ticks": 47424,
            "time": 21.171357999999998,
            "velocity": 0.5511811023622047
          },
          {
            "duration": 0.04285700000000148,
            "durationTicks": 96,
            "midi": 59,
            "name": "B3",
            "ticks": 47424,
            "time": 21.171357999999998,
            "velocity": 0.5511811023622047
          },
          {
            "duration": 0.042856999999997925,
            "durationTicks": 96,
            "midi": 60,
            "name": "C4",
            "ticks": 47616,
            "time": 21.257072,
            "velocity": 0.5511811023622047
          },
          {
            "duration": 0.042856999999997925,
            "durationTicks": 96,
            "midi": 72,
            "name": "C5",
            "ticks": 47616,
            "time": 21.257072,
            "velocity": 0.5511811023622047
          },
          {
            "duration": 0.042856999999997925,
            "durationTicks": 96,
            "midi": 59,
            "name": "B3",
            "ticks": 47808,
            "time": 21.342786,
            "velocity": 0.5511811023622047
          },
          {
            "duration": 0.042856999999997925,
            "durationTicks": 96,
            "midi": 71,
            "name": "B4",
            "ticks": 47808,
            "time": 21.342786,
            "velocity": 0.5511811023622047
          },
          {
            "duration": 0.04285700000000148,
            "durationTicks": 96,
            "midi": 57,
            "name": "A3",
            "ticks": 48192,
            "time": 21.514214,
            "velocity": 0.5511811023622047
          },
          {
            "duration": 0.04285700000000148,
            "durationTicks": 96,
            "midi": 69,
            "name": "A4",
            "ticks": 48192,
            "time": 21.514214,
            "velocity": 0.5511811023622047
          },
          {
            "duration": 0.04285700000000148,
            "durationTicks": 96,
            "midi": 54,
            "name": "F#3",
            "ticks": 48384,
            "time": 21.599928,
            "velocity": 0.5511811023622047
          },
          {
            "duration": 0.04285700000000148,
            "durationTicks": 96,
            "midi": 66,
            "name": "F#4",
            "ticks": 48384,
            "time": 21.599928,
            "velocity": 0.5511811023622047
          },
          {
            "duration": 0.04285700000000148,
            "durationTicks": 96,
            "midi": 63,
            "name": "D#4",
            "ticks": 48576,
            "time": 21.685641999999998,
            "velocity": 0.5511811023622047
          },
          {
            "duration": 0.04285700000000148,
            "durationTicks": 96,
            "midi": 51,
            "name": "D#3",
            "ticks": 48576,
            "time": 21.685641999999998,
            "velocity": 0.5511811023622047
          },
          {
            "duration": 0.042856999999997925,
            "durationTicks": 96,
            "midi": 60,
            "name": "C4",
            "ticks": 48768,
            "time": 21.771356,
            "velocity": 0.5511811023622047
          },
          {
            "duration": 0.042856999999997925,
            "durationTicks": 96,
            "midi": 48,
            "name": "C3",
            "ticks": 48768,
            "time": 21.771356,
            "velocity": 0.5511811023622047
          },
          {
            "duration": 0.042856999999997925,
            "durationTicks": 96,
            "midi": 57,
            "name": "A3",
            "ticks": 48960,
            "time": 21.85707,
            "velocity": 0.5511811023622047
          },
          {
            "duration": 0.042856999999997925,
            "durationTicks": 96,
            "midi": 45,
            "name": "A2",
            "ticks": 48960,
            "time": 21.85707,
            "velocity": 0.5511811023622047
          },
          {
            "duration": 0.04285700000000148,
            "durationTicks": 96,
            "midi": 54,
            "name": "F#3",
            "ticks": 49152,
            "time": 21.942784,
            "velocity": 0.5511811023622047
          },
          {
            "duration": 0.04285700000000148,
            "durationTicks": 96,
            "midi": 42,
            "name": "F#2",
            "ticks": 49152,
            "time": 21.942784,
            "velocity": 0.5511811023622047
          },
          {
            "duration": 0.04285700000000148,
            "durationTicks": 96,
            "midi": 44,
            "name": "G#2",
            "ticks": 49344,
            "time": 22.028498,
            "velocity": 0.5511811023622047
          },
          {
            "duration": 0.04285700000000148,
            "durationTicks": 96,
            "midi": 56,
            "name": "G#3",
            "ticks": 49344,
            "time": 22.028498,
            "velocity": 0.5511811023622047
          },
          {
            "duration": 0.04285700000000148,
            "durationTicks": 96,
            "midi": 57,
            "name": "A3",
            "ticks": 50496,
            "time": 22.542782,
            "velocity": 0.5511811023622047
          },
          {
            "duration": 0.04285700000000148,
            "durationTicks": 96,
            "midi": 45,
            "name": "A2",
            "ticks": 50496,
            "time": 22.542782,
            "velocity": 0.5511811023622047
          },
          {
            "duration": 0.042856999999997925,
            "durationTicks": 96,
            "midi": 57,
            "name": "A3",
            "ticks": 50880,
            "time": 22.71421,
            "velocity": 0.5511811023622047
          },
          {
            "duration": 0.042856999999997925,
            "durationTicks": 96,
            "midi": 45,
            "name": "A2",
            "ticks": 50880,
            "time": 22.71421,
            "velocity": 0.5511811023622047
          },
          {
            "duration": 0.042856999999997925,
            "durationTicks": 96,
            "midi": 72,
            "name": "C5",
            "ticks": 112320,
            "time": 50.14269,
            "velocity": 0.5511811023622047
          },
          {
            "duration": 0.042856999999997925,
            "durationTicks": 96,
            "midi": 64,
            "name": "E4",
            "ticks": 112704,
            "time": 50.314118,
            "velocity": 0.5511811023622047
          },
          {
            "duration": 0.042856999999997925,
            "durationTicks": 96,
            "midi": 71,
            "name": "B4",
            "ticks": 113088,
            "time": 50.485546,
            "velocity": 0.5511811023622047
          },
          {
            "duration": 0.042856999999997925,
            "durationTicks": 96,
            "midi": 64,
            "name": "E4",
            "ticks": 113472,
            "time": 50.656974,
            "velocity": 0.5511811023622047
          },
          {
            "duration": 0.04285700000000503,
            "durationTicks": 96,
            "midi": 69,
            "name": "A4",
            "ticks": 113856,
            "time": 50.828402,
            "velocity": 0.5511811023622047
          },
          {
            "duration": 0.042856999999997925,
            "durationTicks": 96,
            "midi": 72,
            "name": "C5",
            "ticks": 124608,
            "time": 55.628386,
            "velocity": 0.5511811023622047
          },
          {
            "duration": 0.042856999999997925,
            "durationTicks": 96,
            "midi": 69,
            "name": "A4",
            "ticks": 124608,
            "time": 55.628386,
            "velocity": 0.5511811023622047
          },
          {
            "duration": 0.042856999999997925,
            "durationTicks": 96,
            "midi": 64,
            "name": "E4",
            "ticks": 124608,
            "time": 55.628386,
            "velocity": 0.5511811023622047
          },
          {
            "duration": 0.04285700000000503,
            "durationTicks": 96,
            "midi": 71,
            "name": "B4",
            "ticks": 125376,
            "time": 55.971242,
            "velocity": 0.5511811023622047
          },
          {
            "duration": 0.04285700000000503,
            "durationTicks": 96,
            "midi": 62,
            "name": "D4",
            "ticks": 125376,
            "time": 55.971242,
            "velocity": 0.5511811023622047
          },
          {
            "duration": 0.04285700000000503,
            "durationTicks": 96,
            "midi": 65,
            "name": "F4",
            "ticks": 125376,
            "time": 55.971242,
            "velocity": 0.5511811023622047
          },
          {
            "duration": 0.042856999999997925,
            "durationTicks": 96,
            "midi": 69,
            "name": "A4",
            "ticks": 126144,
            "time": 56.314098,
            "velocity": 0.5511811023622047
          },
          {
            "duration": 0.042856999999997925,
            "durationTicks": 96,
            "midi": 60,
            "name": "C4",
            "ticks": 126144,
            "time": 56.314098,
            "velocity": 0.5511811023622047
          },
          {
            "duration": 0.042856999999997925,
            "durationTicks": 96,
            "midi": 64,
            "name": "E4",
            "ticks": 126144,
            "time": 56.314098,
            "velocity": 0.5511811023622047
          },
          {
            "duration": 0.042856999999997925,
            "durationTicks": 96,
            "midi": 52,
            "name": "E3",
            "ticks": 126912,
            "time": 56.656954,
            "velocity": 0.5511811023622047
          },
          {
            "duration": 0.042856999999997925,
            "durationTicks": 96,
            "midi": 57,
            "name": "A3",
            "ticks": 176832,
            "time": 78.942594,
            "velocity": 0.5511811023622047
          },
          {
            "duration": 0.042856999999997925,
            "durationTicks": 96,
            "midi": 53,
            "name": "F3",
            "ticks": 176832,
            "time": 78.942594,
            "velocity": 0.5511811023622047
          },
          {
            "duration": 0.042856999999997925,
            "durationTicks": 96,
            "midi": 60,
            "name": "C4",
            "ticks": 176832,
            "time": 78.942594,
            "velocity": 0.5511811023622047
          },
          {
            "duration": 0.042856999999997925,
            "durationTicks": 96,
            "midi": 45,
            "name": "A2",
            "ticks": 176832,
            "time": 78.942594,
            "velocity": 0.5511811023622047
          },
          {
            "duration": 0.042856999999997925,
            "durationTicks": 96,
            "midi": 41,
            "name": "F2",
            "ticks": 176832,
            "time": 78.942594,
            "velocity": 0.5511811023622047
          },
          {
            "duration": 0.042856999999997925,
            "durationTicks": 96,
            "midi": 48,
            "name": "C3",
            "ticks": 176832,
            "time": 78.942594,
            "velocity": 0.5511811023622047
          },
          {
            "duration": 0.042856999999997925,
            "durationTicks": 96,
            "midi": 50,
            "name": "D3",
            "ticks": 177984,
            "time": 79.456878,
            "velocity": 0.5511811023622047
          },
          {
            "duration": 0.042856999999997925,
            "durationTicks": 96,
            "midi": 62,
            "name": "D4",
            "ticks": 177984,
            "time": 79.456878,
            "velocity": 0.5511811023622047
          },
          {
            "duration": 0.042856999999997925,
            "durationTicks": 96,
            "midi": 41,
            "name": "F2",
            "ticks": 178368,
            "time": 79.628306,
            "velocity": 0.5511811023622047
          },
          {
            "duration": 0.042856999999997925,
            "durationTicks": 96,
            "midi": 57,
            "name": "A3",
            "ticks": 178368,
            "time": 79.628306,
            "velocity": 0.5511811023622047
          },
          {
            "duration": 0.042856999999997925,
            "durationTicks": 96,
            "midi": 45,
            "name": "A2",
            "ticks": 178368,
            "time": 79.628306,
            "velocity": 0.5511811023622047
          },
          {
            "duration": 0.042856999999997925,
            "durationTicks": 96,
            "midi": 53,
            "name": "F3",
            "ticks": 178368,
            "time": 79.628306,
            "velocity": 0.5511811023622047
          },
          {
            "duration": 0.042856999999997925,
            "durationTicks": 96,
            "midi": 48,
            "name": "C3",
            "ticks": 178368,
            "time": 79.628306,
            "velocity": 0.5511811023622047
          },
          {
            "duration": 0.042856999999997925,
            "durationTicks": 96,
            "midi": 60,
            "name": "C4",
            "ticks": 178368,
            "time": 79.628306,
            "velocity": 0.5511811023622047
          },
          {
            "duration": 0.042856999999997925,
            "durationTicks": 96,
            "midi": 59,
            "name": "B3",
            "ticks": 179520,
            "time": 80.14259,
            "velocity": 0.5511811023622047
          },
          {
            "duration": 0.042856999999997925,
            "durationTicks": 96,
            "midi": 47,
            "name": "B2",
            "ticks": 179520,
            "time": 80.14259,
            "velocity": 0.5511811023622047
          },
          {
            "duration": 0.042856999999997925,
            "durationTicks": 96,
            "midi": 57,
            "name": "A3",
            "ticks": 179904,
            "time": 80.314018,
            "velocity": 0.5511811023622047
          },
          {
            "duration": 0.042856999999997925,
            "durationTicks": 96,
            "midi": 41,
            "name": "F2",
            "ticks": 179904,
            "time": 80.314018,
            "velocity": 0.5511811023622047
          },
          {
            "duration": 0.042856999999997925,
            "durationTicks": 96,
            "midi": 45,
            "name": "A2",
            "ticks": 179904,
            "time": 80.314018,
            "velocity": 0.5511811023622047
          },
          {
            "duration": 0.042856999999997925,
            "durationTicks": 96,
            "midi": 53,
            "name": "F3",
            "ticks": 179904,
            "time": 80.314018,
            "velocity": 0.5511811023622047
          },
          {
            "duration": 0.042856999999997925,
            "durationTicks": 96,
            "midi": 50,
            "name": "D3",
            "ticks": 180672,
            "time": 80.656874,
            "velocity": 0.5511811023622047
          },
          {
            "duration": 0.042856999999997925,
            "durationTicks": 96,
            "midi": 38,
            "name": "D2",
            "ticks": 180672,
            "time": 80.656874,
            "velocity": 0.5511811023622047
          },
          {
            "duration": 0.042856999999997925,
            "durationTicks": 96,
            "midi": 52,
            "name": "E3",
            "ticks": 181440,
            "time": 80.99973,
            "velocity": 0.5511811023622047
          },
          {
            "duration": 0.042856999999997925,
            "durationTicks": 96,
            "midi": 40,
            "name": "E2",
            "ticks": 181440,
            "time": 80.99973,
            "velocity": 0.5511811023622047
          },
          {
            "duration": 0.042856999999997925,
            "durationTicks": 96,
            "midi": 44,
            "name": "G#2",
            "ticks": 182208,
            "time": 81.342586,
            "velocity": 0.5511811023622047
          },
          {
            "duration": 0.042856999999997925,
            "durationTicks": 96,
            "midi": 56,
            "name": "G#3",
            "ticks": 182208,
            "time": 81.342586,
            "velocity": 0.5511811023622047
          },
          {
            "duration": 0.042856999999997925,
            "durationTicks": 96,
            "midi": 56,
            "name": "G#3",
            "ticks": 182976,
            "time": 81.685442,
            "velocity": 0.5511811023622047
          },
          {
            "duration": 0.042856999999997925,
            "durationTicks": 96,
            "midi": 44,
            "name": "G#2",
            "ticks": 182976,
            "time": 81.685442,
            "velocity": 0.5511811023622047
          },
          {
            "duration": 0.042856999999997925,
            "durationTicks": 96,
            "midi": 47,
            "name": "B2",
            "ticks": 182976,
            "time": 81.685442,
            "velocity": 0.5511811023622047
          },
          {
            "duration": 0.042856999999997925,
            "durationTicks": 96,
            "midi": 59,
            "name": "B3",
            "ticks": 182976,
            "time": 81.685442,
            "velocity": 0.5511811023622047
          },
          {
            "duration": 0.042856999999997925,
            "durationTicks": 96,
            "midi": 45,
            "name": "A2",
            "ticks": 184128,
            "time": 82.199726,
            "velocity": 0.5511811023622047
          },
          {
            "duration": 0.042856999999997925,
            "durationTicks": 96,
            "midi": 57,
            "name": "A3",
            "ticks": 184128,
            "time": 82.199726,
            "velocity": 0.5511811023622047
          },
          {
            "duration": 0.042856999999997925,
            "durationTicks": 96,
            "midi": 52,
            "name": "E3",
            "ticks": 184512,
            "time": 82.371154,
            "velocity": 0.5511811023622047
          },
          {
            "duration": 0.042856999999997925,
            "durationTicks": 96,
            "midi": 56,
            "name": "G#3",
            "ticks": 184512,
            "time": 82.371154,
            "velocity": 0.5511811023622047
          },
          {
            "duration": 0.042856999999997925,
            "durationTicks": 96,
            "midi": 40,
            "name": "E2",
            "ticks": 184512,
            "time": 82.371154,
            "velocity": 0.5511811023622047
          },
          {
            "duration": 0.042856999999997925,
            "durationTicks": 96,
            "midi": 44,
            "name": "G#2",
            "ticks": 184512,
            "time": 82.371154,
            "velocity": 0.5511811023622047
          },
          {
            "duration": 0.042857000000012135,
            "durationTicks": 96,
            "midi": 45,
            "name": "A2",
            "ticks": 185664,
            "time": 82.885438,
            "velocity": 0.5511811023622047
          },
          {
            "duration": 0.042857000000012135,
            "durationTicks": 96,
            "midi": 57,
            "name": "A3",
            "ticks": 185664,
            "time": 82.885438,
            "velocity": 0.5511811023622047
          },
          {
            "duration": 0.042856999999997925,
            "durationTicks": 96,
            "midi": 52,
            "name": "E3",
            "ticks": 186048,
            "time": 83.056866,
            "velocity": 0.5511811023622047
          },
          {
            "duration": 0.042856999999997925,
            "durationTicks": 96,
            "midi": 40,
            "name": "E2",
            "ticks": 186048,
            "time": 83.056866,
            "velocity": 0.5511811023622047
          },
          {
            "duration": 0.042856999999997925,
            "durationTicks": 96,
            "midi": 47,
            "name": "B2",
            "ticks": 187968,
            "time": 83.914006,
            "velocity": 0.5511811023622047
          },
          {
            "duration": 0.042856999999997925,
            "durationTicks": 96,
            "midi": 59,
            "name": "B3",
            "ticks": 187968,
            "time": 83.914006,
            "velocity": 0.5511811023622047
          },
          {
            "duration": 0.042857000000012135,
            "durationTicks": 96,
            "midi": 48,
            "name": "C3",
            "ticks": 188352,
            "time": 84.08543399999999,
            "velocity": 0.5511811023622047
          },
          {
            "duration": 0.042857000000012135,
            "durationTicks": 96,
            "midi": 60,
            "name": "C4",
            "ticks": 188352,
            "time": 84.08543399999999,
            "velocity": 0.5511811023622047
          },
          {
            "duration": 0.042856999999997925,
            "durationTicks": 96,
            "midi": 62,
            "name": "D4",
            "ticks": 188736,
            "time": 84.256862,
            "velocity": 0.5511811023622047
          },
          {
            "duration": 0.042856999999997925,
            "durationTicks": 96,
            "midi": 50,
            "name": "D3",
            "ticks": 188736,
            "time": 84.256862,
            "velocity": 0.5511811023622047
          },
          {
            "duration": 0.042856999999997925,
            "durationTicks": 96,
            "midi": 52,
            "name": "E3",
            "ticks": 189120,
            "time": 84.42829,
            "velocity": 0.5511811023622047
          },
          {
            "duration": 0.042856999999997925,
            "durationTicks": 96,
            "midi": 64,
            "name": "E4",
            "ticks": 189120,
            "time": 84.42829,
            "velocity": 0.5511811023622047
          },
          {
            "duration": 0.042856999999997925,
            "durationTicks": 96,
            "midi": 62,
            "name": "D4",
            "ticks": 189888,
            "time": 84.771146,
            "velocity": 0.5511811023622047
          },
          {
            "duration": 0.042856999999997925,
            "durationTicks": 96,
            "midi": 50,
            "name": "D3",
            "ticks": 189888,
            "time": 84.771146,
            "velocity": 0.5511811023622047
          },
          {
            "duration": 0.042856999999997925,
            "durationTicks": 96,
            "midi": 45,
            "name": "A2",
            "ticks": 190656,
            "time": 85.114002,
            "velocity": 0.5511811023622047
          },
          {
            "duration": 0.042856999999997925,
            "durationTicks": 96,
            "midi": 57,
            "name": "A3",
            "ticks": 190656,
            "time": 85.114002,
            "velocity": 0.5511811023622047
          },
          {
            "duration": 0.042856999999997925,
            "durationTicks": 96,
            "midi": 52,
            "name": "E3",
            "ticks": 191424,
            "time": 85.456858,
            "velocity": 0.5511811023622047
          },
          {
            "duration": 0.042856999999997925,
            "durationTicks": 96,
            "midi": 64,
            "name": "E4",
            "ticks": 191424,
            "time": 85.456858,
            "velocity": 0.5511811023622047
          },
          {
            "duration": 0.042856999999997925,
            "durationTicks": 96,
            "midi": 62,
            "name": "D4",
            "ticks": 192192,
            "time": 85.799714,
            "velocity": 0.5511811023622047
          },
          {
            "duration": 0.042856999999997925,
            "durationTicks": 96,
            "midi": 50,
            "name": "D3",
            "ticks": 192192,
            "time": 85.799714,
            "velocity": 0.5511811023622047
          },
          {
            "duration": 0.042857000000012135,
            "durationTicks": 96,
            "midi": 57,
            "name": "A3",
            "ticks": 192960,
            "time": 86.14256999999999,
            "velocity": 0.5511811023622047
          },
          {
            "duration": 0.042857000000012135,
            "durationTicks": 96,
            "midi": 45,
            "name": "A2",
            "ticks": 192960,
            "time": 86.14256999999999,
            "velocity": 0.5511811023622047
          },
          {
            "duration": 0.042856999999997925,
            "durationTicks": 96,
            "midi": 60,
            "name": "C4",
            "ticks": 193728,
            "time": 86.485426,
            "velocity": 0.5511811023622047
          },
          {
            "duration": 0.042856999999997925,
            "durationTicks": 96,
            "midi": 48,
            "name": "C3",
            "ticks": 193728,
            "time": 86.485426,
            "velocity": 0.5511811023622047
          },
          {
            "duration": 0.042856999999997925,
            "durationTicks": 96,
            "midi": 47,
            "name": "B2",
            "ticks": 194112,
            "time": 86.656854,
            "velocity": 0.5511811023622047
          },
          {
            "duration": 0.042856999999997925,
            "durationTicks": 96,
            "midi": 59,
            "name": "B3",
            "ticks": 194112,
            "time": 86.656854,
            "velocity": 0.5511811023622047
          },
          {
            "duration": 0.042856999999997925,
            "durationTicks": 96,
            "midi": 45,
            "name": "A2",
            "ticks": 194496,
            "time": 86.828282,
            "velocity": 0.5511811023622047
          },
          {
            "duration": 0.042856999999997925,
            "durationTicks": 96,
            "midi": 57,
            "name": "A3",
            "ticks": 194496,
            "time": 86.828282,
            "velocity": 0.5511811023622047
          },
          {
            "duration": 0.042857000000012135,
            "durationTicks": 96,
            "midi": 59,
            "name": "B3",
            "ticks": 194880,
            "time": 86.99971,
            "velocity": 0.5511811023622047
          },
          {
            "duration": 0.042857000000012135,
            "durationTicks": 96,
            "midi": 47,
            "name": "B2",
            "ticks": 194880,
            "time": 86.99971,
            "velocity": 0.5511811023622047
          },
          {
            "duration": 0.042856999999997925,
            "durationTicks": 96,
            "midi": 57,
            "name": "A3",
            "ticks": 195264,
            "time": 87.171138,
            "velocity": 0.5511811023622047
          },
          {
            "duration": 0.042856999999997925,
            "durationTicks": 96,
            "midi": 52,
            "name": "E3",
            "ticks": 195264,
            "time": 87.171138,
            "velocity": 0.5511811023622047
          },
          {
            "duration": 0.042856999999997925,
            "durationTicks": 96,
            "midi": 40,
            "name": "E2",
            "ticks": 195264,
            "time": 87.171138,
            "velocity": 0.5511811023622047
          },
          {
            "duration": 0.042856999999997925,
            "durationTicks": 96,
            "midi": 45,
            "name": "A2",
            "ticks": 195264,
            "time": 87.171138,
            "velocity": 0.5511811023622047
          },
          {
            "duration": 0.042856999999997925,
            "durationTicks": 96,
            "midi": 50,
            "name": "D3",
            "ticks": 196800,
            "time": 87.85685,
            "velocity": 0.5511811023622047
          },
          {
            "duration": 0.042856999999997925,
            "durationTicks": 96,
            "midi": 44,
            "name": "G#2",
            "ticks": 196800,
            "time": 87.85685,
            "velocity": 0.5511811023622047
          },
          {
            "duration": 0.042856999999997925,
            "durationTicks": 96,
            "midi": 38,
            "name": "D2",
            "ticks": 196800,
            "time": 87.85685,
            "velocity": 0.5511811023622047
          },
          {
            "duration": 0.042856999999997925,
            "durationTicks": 96,
            "midi": 56,
            "name": "G#3",
            "ticks": 196800,
            "time": 87.85685,
            "velocity": 0.5511811023622047
          },
          {
            "duration": 0.042856999999997925,
            "durationTicks": 96,
            "midi": 57,
            "name": "A3",
            "ticks": 198336,
            "time": 88.542562,
            "velocity": 0.5511811023622047
          },
          {
            "duration": 0.042856999999997925,
            "durationTicks": 96,
            "midi": 52,
            "name": "E3",
            "ticks": 198336,
            "time": 88.542562,
            "velocity": 0.5511811023622047
          },
          {
            "duration": 0.042856999999997925,
            "durationTicks": 96,
            "midi": 45,
            "name": "A2",
            "ticks": 198336,
            "time": 88.542562,
            "velocity": 0.5511811023622047
          },
          {
            "duration": 0.042856999999997925,
            "durationTicks": 96,
            "midi": 36,
            "name": "C2",
            "ticks": 198336,
            "time": 88.542562,
            "velocity": 0.5511811023622047
          },
          {
            "duration": 0.042856999999997925,
            "durationTicks": 96,
            "midi": 40,
            "name": "E2",
            "ticks": 198336,
            "time": 88.542562,
            "velocity": 0.5511811023622047
          },
          {
            "duration": 0.042856999999997925,
            "durationTicks": 96,
            "midi": 48,
            "name": "C3",
            "ticks": 198336,
            "time": 88.542562,
            "velocity": 0.5511811023622047
          },
          {
            "duration": 0.042856999999997925,
            "durationTicks": 96,
            "midi": 41,
            "name": "F2",
            "ticks": 199872,
            "time": 89.228274,
            "velocity": 0.5511811023622047
          },
          {
            "duration": 0.042856999999997925,
            "durationTicks": 96,
            "midi": 47,
            "name": "B2",
            "ticks": 199872,
            "time": 89.228274,
            "velocity": 0.5511811023622047
          },
          {
            "duration": 0.042856999999997925,
            "durationTicks": 96,
            "midi": 50,
            "name": "D3",
            "ticks": 199872,
            "time": 89.228274,
            "velocity": 0.5511811023622047
          },
          {
            "duration": 0.042856999999997925,
            "durationTicks": 96,
            "midi": 38,
            "name": "D2",
            "ticks": 199872,
            "time": 89.228274,
            "velocity": 0.5511811023622047
          },
          {
            "duration": 0.042856999999997925,
            "durationTicks": 96,
            "midi": 53,
            "name": "F3",
            "ticks": 199872,
            "time": 89.228274,
            "velocity": 0.5511811023622047
          },
          {
            "duration": 0.042856999999997925,
            "durationTicks": 96,
            "midi": 59,
            "name": "B3",
            "ticks": 199872,
            "time": 89.228274,
            "velocity": 0.5511811023622047
          },
          {
            "duration": 0.042856999999997925,
            "durationTicks": 96,
            "midi": 57,
            "name": "A3",
            "ticks": 201408,
            "time": 89.913986,
            "velocity": 0.5511811023622047
          },
          {
            "duration": 0.042856999999997925,
            "durationTicks": 96,
            "midi": 53,
            "name": "F3",
            "ticks": 201408,
            "time": 89.913986,
            "velocity": 0.5511811023622047
          },
          {
            "duration": 0.042856999999997925,
            "durationTicks": 96,
            "midi": 41,
            "name": "F2",
            "ticks": 201408,
            "time": 89.913986,
            "velocity": 0.5511811023622047
          },
          {
            "duration": 0.042856999999997925,
            "durationTicks": 96,
            "midi": 48,
            "name": "C3",
            "ticks": 201408,
            "time": 89.913986,
            "velocity": 0.5511811023622047
          },
          {
            "duration": 0.042856999999997925,
            "durationTicks": 96,
            "midi": 45,
            "name": "A2",
            "ticks": 201408,
            "time": 89.913986,
            "velocity": 0.5511811023622047
          },
          {
            "duration": 0.042856999999997925,
            "durationTicks": 96,
            "midi": 60,
            "name": "C4",
            "ticks": 201408,
            "time": 89.913986,
            "velocity": 0.5511811023622047
          },
          {
            "duration": 0.042856999999997925,
            "durationTicks": 96,
            "midi": 50,
            "name": "D3",
            "ticks": 202560,
            "time": 90.42827,
            "velocity": 0.5511811023622047
          },
          {
            "duration": 0.042856999999997925,
            "durationTicks": 96,
            "midi": 62,
            "name": "D4",
            "ticks": 202560,
            "time": 90.42827,
            "velocity": 0.5511811023622047
          },
          {
            "duration": 0.042856999999997925,
            "durationTicks": 96,
            "midi": 60,
            "name": "C4",
            "ticks": 202944,
            "time": 90.599698,
            "velocity": 0.5511811023622047
          },
          {
            "duration": 0.042856999999997925,
            "durationTicks": 96,
            "midi": 41,
            "name": "F2",
            "ticks": 202944,
            "time": 90.599698,
            "velocity": 0.5511811023622047
          },
          {
            "duration": 0.042856999999997925,
            "durationTicks": 96,
            "midi": 53,
            "name": "F3",
            "ticks": 202944,
            "time": 90.599698,
            "velocity": 0.5511811023622047
          },
          {
            "duration": 0.042856999999997925,
            "durationTicks": 96,
            "midi": 48,
            "name": "C3",
            "ticks": 202944,
            "time": 90.599698,
            "velocity": 0.5511811023622047
          },
          {
            "duration": 0.042856999999997925,
            "durationTicks": 96,
            "midi": 45,
            "name": "A2",
            "ticks": 202944,
            "time": 90.599698,
            "velocity": 0.5511811023622047
          },
          {
            "duration": 0.042856999999997925,
            "durationTicks": 96,
            "midi": 57,
            "name": "A3",
            "ticks": 202944,
            "time": 90.599698,
            "velocity": 0.5511811023622047
          },
          {
            "duration": 0.042857000000012135,
            "durationTicks": 96,
            "midi": 59,
            "name": "B3",
            "ticks": 204096,
            "time": 91.113982,
            "velocity": 0.5511811023622047
          },
          {
            "duration": 0.042857000000012135,
            "durationTicks": 96,
            "midi": 47,
            "name": "B2",
            "ticks": 204096,
            "time": 91.113982,
            "velocity": 0.5511811023622047
          },
          {
            "duration": 0.042856999999997925,
            "durationTicks": 96,
            "midi": 53,
            "name": "F3",
            "ticks": 204480,
            "time": 91.28541,
            "velocity": 0.5511811023622047
          },
          {
            "duration": 0.042856999999997925,
            "durationTicks": 96,
            "midi": 41,
            "name": "F2",
            "ticks": 204480,
            "time": 91.28541,
            "velocity": 0.5511811023622047
          },
          {
            "duration": 0.042856999999997925,
            "durationTicks": 96,
            "midi": 45,
            "name": "A2",
            "ticks": 204480,
            "time": 91.28541,
            "velocity": 0.5511811023622047
          },
          {
            "duration": 0.042856999999997925,
            "durationTicks": 96,
            "midi": 57,
            "name": "A3",
            "ticks": 204480,
            "time": 91.28541,
            "velocity": 0.5511811023622047
          },
          {
            "duration": 0.042856999999997925,
            "durationTicks": 96,
            "midi": 50,
            "name": "D3",
            "ticks": 205248,
            "time": 91.628266,
            "velocity": 0.5511811023622047
          },
          {
            "duration": 0.042856999999997925,
            "durationTicks": 96,
            "midi": 38,
            "name": "D2",
            "ticks": 205248,
            "time": 91.628266,
            "velocity": 0.5511811023622047
          },
          {
            "duration": 0.042856999999997925,
            "durationTicks": 96,
            "midi": 40,
            "name": "E2",
            "ticks": 206016,
            "time": 91.971122,
            "velocity": 0.5511811023622047
          },
          {
            "duration": 0.042856999999997925,
            "durationTicks": 96,
            "midi": 52,
            "name": "E3",
            "ticks": 206016,
            "time": 91.971122,
            "velocity": 0.5511811023622047
          },
          {
            "duration": 0.042857000000012135,
            "durationTicks": 96,
            "midi": 44,
            "name": "G#2",
            "ticks": 206784,
            "time": 92.31397799999999,
            "velocity": 0.5511811023622047
          },
          {
            "duration": 0.042857000000012135,
            "durationTicks": 96,
            "midi": 56,
            "name": "G#3",
            "ticks": 206784,
            "time": 92.31397799999999,
            "velocity": 0.5511811023622047
          },
          {
            "duration": 0.042856999999997925,
            "durationTicks": 96,
            "midi": 44,
            "name": "G#2",
            "ticks": 207552,
            "time": 92.656834,
            "velocity": 0.5511811023622047
          },
          {
            "duration": 0.042856999999997925,
            "durationTicks": 96,
            "midi": 56,
            "name": "G#3",
            "ticks": 207552,
            "time": 92.656834,
            "velocity": 0.5511811023622047
          },
          {
            "duration": 0.042856999999997925,
            "durationTicks": 96,
            "midi": 47,
            "name": "B2",
            "ticks": 207552,
            "time": 92.656834,
            "velocity": 0.5511811023622047
          },
          {
            "duration": 0.042856999999997925,
            "durationTicks": 96,
            "midi": 59,
            "name": "B3",
            "ticks": 207552,
            "time": 92.656834,
            "velocity": 0.5511811023622047
          },
          {
            "duration": 0.042857000000012135,
            "durationTicks": 96,
            "midi": 45,
            "name": "A2",
            "ticks": 208704,
            "time": 93.17111799999999,
            "velocity": 0.5511811023622047
          },
          {
            "duration": 0.042857000000012135,
            "durationTicks": 96,
            "midi": 57,
            "name": "A3",
            "ticks": 208704,
            "time": 93.17111799999999,
            "velocity": 0.5511811023622047
          },
          {
            "duration": 0.042856999999997925,
            "durationTicks": 96,
            "midi": 40,
            "name": "E2",
            "ticks": 209088,
            "time": 93.342546,
            "velocity": 0.5511811023622047
          },
          {
            "duration": 0.042856999999997925,
            "durationTicks": 96,
            "midi": 52,
            "name": "E3",
            "ticks": 209088,
            "time": 93.342546,
            "velocity": 0.5511811023622047
          },
          {
            "duration": 0.042856999999997925,
            "durationTicks": 96,
            "midi": 56,
            "name": "G#3",
            "ticks": 209088,
            "time": 93.342546,
            "velocity": 0.5511811023622047
          },
          {
            "duration": 0.042856999999997925,
            "durationTicks": 96,
            "midi": 44,
            "name": "G#2",
            "ticks": 209088,
            "time": 93.342546,
            "velocity": 0.5511811023622047
          },
          {
            "duration": 0.042856999999997925,
            "durationTicks": 96,
            "midi": 45,
            "name": "A2",
            "ticks": 210240,
            "time": 93.85683,
            "velocity": 0.5511811023622047
          },
          {
            "duration": 0.042856999999997925,
            "durationTicks": 96,
            "midi": 57,
            "name": "A3",
            "ticks": 210240,
            "time": 93.85683,
            "velocity": 0.5511811023622047
          },
          {
            "duration": 0.042856999999997925,
            "durationTicks": 96,
            "midi": 40,
            "name": "E2",
            "ticks": 210624,
            "time": 94.028258,
            "velocity": 0.5511811023622047
          },
          {
            "duration": 0.042856999999997925,
            "durationTicks": 96,
            "midi": 52,
            "name": "E3",
            "ticks": 210624,
            "time": 94.028258,
            "velocity": 0.5511811023622047
          },
          {
            "duration": 0.042856999999997925,
            "durationTicks": 96,
            "midi": 59,
            "name": "B3",
            "ticks": 212544,
            "time": 94.885398,
            "velocity": 0.5511811023622047
          },
          {
            "duration": 0.042856999999997925,
            "durationTicks": 96,
            "midi": 47,
            "name": "B2",
            "ticks": 212544,
            "time": 94.885398,
            "velocity": 0.5511811023622047
          },
          {
            "duration": 0.042856999999997925,
            "durationTicks": 96,
            "midi": 48,
            "name": "C3",
            "ticks": 212928,
            "time": 95.056826,
            "velocity": 0.5511811023622047
          },
          {
            "duration": 0.042856999999997925,
            "durationTicks": 96,
            "midi": 60,
            "name": "C4",
            "ticks": 212928,
            "time": 95.056826,
            "velocity": 0.5511811023622047
          },
          {
            "duration": 0.042857000000012135,
            "durationTicks": 96,
            "midi": 62,
            "name": "D4",
            "ticks": 213312,
            "time": 95.22825399999999,
            "velocity": 0.5511811023622047
          },
          {
            "duration": 0.042857000000012135,
            "durationTicks": 96,
            "midi": 50,
            "name": "D3",
            "ticks": 213312,
            "time": 95.22825399999999,
            "velocity": 0.5511811023622047
          },
          {
            "duration": 0.042856999999997925,
            "durationTicks": 96,
            "midi": 64,
            "name": "E4",
            "ticks": 213696,
            "time": 95.399682,
            "velocity": 0.5511811023622047
          },
          {
            "duration": 0.042856999999997925,
            "durationTicks": 96,
            "midi": 52,
            "name": "E3",
            "ticks": 213696,
            "time": 95.399682,
            "velocity": 0.5511811023622047
          },
          {
            "duration": 0.042856999999997925,
            "durationTicks": 96,
            "midi": 50,
            "name": "D3",
            "ticks": 214464,
            "time": 95.742538,
            "velocity": 0.5511811023622047
          },
          {
            "duration": 0.042856999999997925,
            "durationTicks": 96,
            "midi": 62,
            "name": "D4",
            "ticks": 214464,
            "time": 95.742538,
            "velocity": 0.5511811023622047
          },
          {
            "duration": 0.042856999999997925,
            "durationTicks": 96,
            "midi": 49,
            "name": "C#3",
            "ticks": 215232,
            "time": 96.085394,
            "velocity": 0.5511811023622047
          },
          {
            "duration": 0.042856999999997925,
            "durationTicks": 96,
            "midi": 61,
            "name": "C#4",
            "ticks": 215232,
            "time": 96.085394,
            "velocity": 0.5511811023622047
          },
          {
            "duration": 0.042857000000012135,
            "durationTicks": 96,
            "midi": 62,
            "name": "D4",
            "ticks": 216000,
            "time": 96.42824999999999,
            "velocity": 0.5511811023622047
          },
          {
            "duration": 0.042857000000012135,
            "durationTicks": 96,
            "midi": 50,
            "name": "D3",
            "ticks": 216000,
            "time": 96.42824999999999,
            "velocity": 0.5511811023622047
          },
          {
            "duration": 0.042856999999997925,
            "durationTicks": 96,
            "midi": 47,
            "name": "B2",
            "ticks": 216768,
            "time": 96.771106,
            "velocity": 0.5511811023622047
          },
          {
            "duration": 0.042856999999997925,
            "durationTicks": 96,
            "midi": 59,
            "name": "B3",
            "ticks": 216768,
            "time": 96.771106,
            "velocity": 0.5511811023622047
          },
          {
            "duration": 0.042856999999997925,
            "durationTicks": 96,
            "midi": 45,
            "name": "A2",
            "ticks": 219840,
            "time": 98.14253,
            "velocity": 0.5511811023622047
          },
          {
            "duration": 0.042856999999997925,
            "durationTicks": 96,
            "midi": 57,
            "name": "A3",
            "ticks": 219840,
            "time": 98.14253,
            "velocity": 0.5511811023622047
          },
          {
            "duration": 0.042856999999997925,
            "durationTicks": 96,
            "midi": 47,
            "name": "B2",
            "ticks": 220992,
            "time": 98.656814,
            "velocity": 0.5511811023622047
          },
          {
            "duration": 0.042856999999997925,
            "durationTicks": 96,
            "midi": 59,
            "name": "B3",
            "ticks": 220992,
            "time": 98.656814,
            "velocity": 0.5511811023622047
          },
          {
            "duration": 0.042856999999997925,
            "durationTicks": 96,
            "midi": 57,
            "name": "A3",
            "ticks": 221376,
            "time": 98.828242,
            "velocity": 0.5511811023622047
          },
          {
            "duration": 0.042856999999997925,
            "durationTicks": 96,
            "midi": 45,
            "name": "A2",
            "ticks": 221376,
            "time": 98.828242,
            "velocity": 0.5511811023622047
          },
          {
            "duration": 0.042856999999997925,
            "durationTicks": 96,
            "midi": 48,
            "name": "C3",
            "ticks": 221376,
            "time": 98.828242,
            "velocity": 0.5511811023622047
          },
          {
            "duration": 0.042856999999997925,
            "durationTicks": 96,
            "midi": 60,
            "name": "C4",
            "ticks": 221376,
            "time": 98.828242,
            "velocity": 0.5511811023622047
          },
          {
            "duration": 0.042857000000012135,
            "durationTicks": 96,
            "midi": 59,
            "name": "B3",
            "ticks": 222528,
            "time": 99.34252599999999,
            "velocity": 0.5511811023622047
          },
          {
            "duration": 0.042857000000012135,
            "durationTicks": 96,
            "midi": 62,
            "name": "D4",
            "ticks": 222528,
            "time": 99.34252599999999,
            "velocity": 0.5511811023622047
          },
          {
            "duration": 0.042857000000012135,
            "durationTicks": 96,
            "midi": 47,
            "name": "B2",
            "ticks": 222528,
            "time": 99.34252599999999,
            "velocity": 0.5511811023622047
          },
          {
            "duration": 0.042857000000012135,
            "durationTicks": 96,
            "midi": 50,
            "name": "D3",
            "ticks": 222528,
            "time": 99.34252599999999,
            "velocity": 0.5511811023622047
          },
          {
            "duration": 0.042856999999997925,
            "durationTicks": 96,
            "midi": 47,
            "name": "B2",
            "ticks": 222912,
            "time": 99.513954,
            "velocity": 0.5511811023622047
          },
          {
            "duration": 0.042856999999997925,
            "durationTicks": 96,
            "midi": 44,
            "name": "G#2",
            "ticks": 222912,
            "time": 99.513954,
            "velocity": 0.5511811023622047
          },
          {
            "duration": 0.042856999999997925,
            "durationTicks": 96,
            "midi": 59,
            "name": "B3",
            "ticks": 222912,
            "time": 99.513954,
            "velocity": 0.5511811023622047
          },
          {
            "duration": 0.042856999999997925,
            "durationTicks": 96,
            "midi": 52,
            "name": "E3",
            "ticks": 222912,
            "time": 99.513954,
            "velocity": 0.5511811023622047
          },
          {
            "duration": 0.042856999999997925,
            "durationTicks": 96,
            "midi": 64,
            "name": "E4",
            "ticks": 222912,
            "time": 99.513954,
            "velocity": 0.5511811023622047
          },
          {
            "duration": 0.042856999999997925,
            "durationTicks": 96,
            "midi": 56,
            "name": "G#3",
            "ticks": 222912,
            "time": 99.513954,
            "velocity": 0.5511811023622047
          },
          {
            "duration": 0.042856999999997925,
            "durationTicks": 96,
            "midi": 64,
            "name": "E4",
            "ticks": 312000,
            "time": 139.28525,
            "velocity": 0.5511811023622047
          },
          {
            "duration": 0.042856999999997925,
            "durationTicks": 96,
            "midi": 52,
            "name": "E3",
            "ticks": 312000,
            "time": 139.28525,
            "velocity": 0.5511811023622047
          },
          {
            "duration": 0.042856999999997925,
            "durationTicks": 96,
            "midi": 65,
            "name": "F4",
            "ticks": 312192,
            "time": 139.370964,
            "velocity": 0.5511811023622047
          },
          {
            "duration": 0.042856999999997925,
            "durationTicks": 96,
            "midi": 53,
            "name": "F3",
            "ticks": 312192,
            "time": 139.370964,
            "velocity": 0.5511811023622047
          },
          {
            "duration": 0.042856999999997925,
            "durationTicks": 96,
            "midi": 52,
            "name": "E3",
            "ticks": 312384,
            "time": 139.456678,
            "velocity": 0.5511811023622047
          },
          {
            "duration": 0.042856999999997925,
            "durationTicks": 96,
            "midi": 64,
            "name": "E4",
            "ticks": 312384,
            "time": 139.456678,
            "velocity": 0.5511811023622047
          },
          {
            "duration": 0.042856999999997925,
            "durationTicks": 96,
            "midi": 63,
            "name": "D#4",
            "ticks": 312576,
            "time": 139.542392,
            "velocity": 0.5511811023622047
          },
          {
            "duration": 0.042856999999997925,
            "durationTicks": 96,
            "midi": 51,
            "name": "D#3",
            "ticks": 312576,
            "time": 139.542392,
            "velocity": 0.5511811023622047
          },
          {
            "duration": 0.042856999999997925,
            "durationTicks": 96,
            "midi": 64,
            "name": "E4",
            "ticks": 312768,
            "time": 139.628106,
            "velocity": 0.5511811023622047
          },
          {
            "duration": 0.042856999999997925,
            "durationTicks": 96,
            "midi": 52,
            "name": "E3",
            "ticks": 312768,
            "time": 139.628106,
            "velocity": 0.5511811023622047
          },
          {
            "duration": 0.042856999999997925,
            "durationTicks": 96,
            "midi": 45,
            "name": "A2",
            "ticks": 313152,
            "time": 139.799534,
            "velocity": 0.5511811023622047
          },
          {
            "duration": 0.042856999999997925,
            "durationTicks": 96,
            "midi": 57,
            "name": "A3",
            "ticks": 313152,
            "time": 139.799534,
            "velocity": 0.5511811023622047
          },
          {
            "duration": 0.042856999999997925,
            "durationTicks": 96,
            "midi": 60,
            "name": "C4",
            "ticks": 313536,
            "time": 139.970962,
            "velocity": 0.5511811023622047
          },
          {
            "duration": 0.042856999999997925,
            "durationTicks": 96,
            "midi": 48,
            "name": "C3",
            "ticks": 313536,
            "time": 139.970962,
            "velocity": 0.5511811023622047
          },
          {
            "duration": 0.042856999999997925,
            "durationTicks": 96,
            "midi": 59,
            "name": "B3",
            "ticks": 314304,
            "time": 140.313818,
            "velocity": 0.5511811023622047
          },
          {
            "duration": 0.042856999999997925,
            "durationTicks": 96,
            "midi": 47,
            "name": "B2",
            "ticks": 314304,
            "time": 140.313818,
            "velocity": 0.5511811023622047
          },
          {
            "duration": 0.042856999999997925,
            "durationTicks": 96,
            "midi": 60,
            "name": "C4",
            "ticks": 314496,
            "time": 140.399532,
            "velocity": 0.5511811023622047
          },
          {
            "duration": 0.042856999999997925,
            "durationTicks": 96,
            "midi": 48,
            "name": "C3",
            "ticks": 314496,
            "time": 140.399532,
            "velocity": 0.5511811023622047
          },
          {
            "duration": 0.042856999999997925,
            "durationTicks": 96,
            "midi": 59,
            "name": "B3",
            "ticks": 314688,
            "time": 140.485246,
            "velocity": 0.5511811023622047
          },
          {
            "duration": 0.042856999999997925,
            "durationTicks": 96,
            "midi": 47,
            "name": "B2",
            "ticks": 314688,
            "time": 140.485246,
            "velocity": 0.5511811023622047
          },
          {
            "duration": 0.042857000000026346,
            "durationTicks": 96,
            "midi": 45,
            "name": "A2",
            "ticks": 314880,
            "time": 140.57095999999999,
            "velocity": 0.5511811023622047
          },
          {
            "duration": 0.042857000000026346,
            "durationTicks": 96,
            "midi": 57,
            "name": "A3",
            "ticks": 314880,
            "time": 140.57095999999999,
            "velocity": 0.5511811023622047
          },
          {
            "duration": 0.042856999999997925,
            "durationTicks": 96,
            "midi": 64,
            "name": "E4",
            "ticks": 315072,
            "time": 140.656674,
            "velocity": 0.5511811023622047
          },
          {
            "duration": 0.042856999999997925,
            "durationTicks": 96,
            "midi": 52,
            "name": "E3",
            "ticks": 315072,
            "time": 140.656674,
            "velocity": 0.5511811023622047
          },
          {
            "duration": 0.042856999999997925,
            "durationTicks": 96,
            "midi": 65,
            "name": "F4",
            "ticks": 315264,
            "time": 140.742388,
            "velocity": 0.5511811023622047
          },
          {
            "duration": 0.042856999999997925,
            "durationTicks": 96,
            "midi": 53,
            "name": "F3",
            "ticks": 315264,
            "time": 140.742388,
            "velocity": 0.5511811023622047
          },
          {
            "duration": 0.042856999999997925,
            "durationTicks": 96,
            "midi": 52,
            "name": "E3",
            "ticks": 315456,
            "time": 140.828102,
            "velocity": 0.5511811023622047
          },
          {
            "duration": 0.042856999999997925,
            "durationTicks": 96,
            "midi": 64,
            "name": "E4",
            "ticks": 315456,
            "time": 140.828102,
            "velocity": 0.5511811023622047
          },
          {
            "duration": 0.042856999999997925,
            "durationTicks": 96,
            "midi": 63,
            "name": "D#4",
            "ticks": 315648,
            "time": 140.913816,
            "velocity": 0.5511811023622047
          },
          {
            "duration": 0.042856999999997925,
            "durationTicks": 96,
            "midi": 51,
            "name": "D#3",
            "ticks": 315648,
            "time": 140.913816,
            "velocity": 0.5511811023622047
          },
          {
            "duration": 0.042856999999997925,
            "durationTicks": 96,
            "midi": 64,
            "name": "E4",
            "ticks": 315840,
            "time": 140.99953,
            "velocity": 0.5511811023622047
          },
          {
            "duration": 0.042856999999997925,
            "durationTicks": 96,
            "midi": 52,
            "name": "E3",
            "ticks": 315840,
            "time": 140.99953,
            "velocity": 0.5511811023622047
          },
          {
            "duration": 0.042857000000026346,
            "durationTicks": 96,
            "midi": 45,
            "name": "A2",
            "ticks": 316224,
            "time": 141.17095799999998,
            "velocity": 0.5511811023622047
          },
          {
            "duration": 0.042857000000026346,
            "durationTicks": 96,
            "midi": 57,
            "name": "A3",
            "ticks": 316224,
            "time": 141.17095799999998,
            "velocity": 0.5511811023622047
          },
          {
            "duration": 0.042856999999997925,
            "durationTicks": 96,
            "midi": 60,
            "name": "C4",
            "ticks": 316608,
            "time": 141.342386,
            "velocity": 0.5511811023622047
          },
          {
            "duration": 0.042856999999997925,
            "durationTicks": 96,
            "midi": 48,
            "name": "C3",
            "ticks": 316608,
            "time": 141.342386,
            "velocity": 0.5511811023622047
          },
          {
            "duration": 0.042856999999997925,
            "durationTicks": 96,
            "midi": 47,
            "name": "B2",
            "ticks": 317376,
            "time": 141.685242,
            "velocity": 0.5511811023622047
          },
          {
            "duration": 0.042856999999997925,
            "durationTicks": 96,
            "midi": 59,
            "name": "B3",
            "ticks": 317376,
            "time": 141.685242,
            "velocity": 0.5511811023622047
          },
          {
            "duration": 0.042857000000026346,
            "durationTicks": 96,
            "midi": 60,
            "name": "C4",
            "ticks": 317568,
            "time": 141.77095599999998,
            "velocity": 0.5511811023622047
          },
          {
            "duration": 0.042857000000026346,
            "durationTicks": 96,
            "midi": 48,
            "name": "C3",
            "ticks": 317568,
            "time": 141.77095599999998,
            "velocity": 0.5511811023622047
          },
          {
            "duration": 0.042856999999997925,
            "durationTicks": 96,
            "midi": 59,
            "name": "B3",
            "ticks": 317760,
            "time": 141.85667,
            "velocity": 0.5511811023622047
          },
          {
            "duration": 0.042856999999997925,
            "durationTicks": 96,
            "midi": 47,
            "name": "B2",
            "ticks": 317760,
            "time": 141.85667,
            "velocity": 0.5511811023622047
          },
          {
            "duration": 0.042856999999997925,
            "durationTicks": 96,
            "midi": 57,
            "name": "A3",
            "ticks": 317952,
            "time": 141.942384,
            "velocity": 0.5511811023622047
          },
          {
            "duration": 0.042856999999997925,
            "durationTicks": 96,
            "midi": 45,
            "name": "A2",
            "ticks": 317952,
            "time": 141.942384,
            "velocity": 0.5511811023622047
          },
          {
            "duration": 0.042856999999997925,
            "durationTicks": 96,
            "midi": 52,
            "name": "E3",
            "ticks": 318144,
            "time": 142.028098,
            "velocity": 0.5511811023622047
          },
          {
            "duration": 0.042856999999997925,
            "durationTicks": 96,
            "midi": 64,
            "name": "E4",
            "ticks": 318144,
            "time": 142.028098,
            "velocity": 0.5511811023622047
          },
          {
            "duration": 0.042856999999997925,
            "durationTicks": 96,
            "midi": 65,
            "name": "F4",
            "ticks": 318336,
            "time": 142.113812,
            "velocity": 0.5511811023622047
          },
          {
            "duration": 0.042856999999997925,
            "durationTicks": 96,
            "midi": 53,
            "name": "F3",
            "ticks": 318336,
            "time": 142.113812,
            "velocity": 0.5511811023622047
          },
          {
            "duration": 0.042856999999997925,
            "durationTicks": 96,
            "midi": 52,
            "name": "E3",
            "ticks": 318528,
            "time": 142.199526,
            "velocity": 0.5511811023622047
          },
          {
            "duration": 0.042856999999997925,
            "durationTicks": 96,
            "midi": 64,
            "name": "E4",
            "ticks": 318528,
            "time": 142.199526,
            "velocity": 0.5511811023622047
          },
          {
            "duration": 0.042856999999997925,
            "durationTicks": 96,
            "midi": 63,
            "name": "D#4",
            "ticks": 318720,
            "time": 142.28524,
            "velocity": 0.5511811023622047
          },
          {
            "duration": 0.042856999999997925,
            "durationTicks": 96,
            "midi": 51,
            "name": "D#3",
            "ticks": 318720,
            "time": 142.28524,
            "velocity": 0.5511811023622047
          },
          {
            "duration": 0.042857000000026346,
            "durationTicks": 96,
            "midi": 64,
            "name": "E4",
            "ticks": 318912,
            "time": 142.37095399999998,
            "velocity": 0.5511811023622047
          },
          {
            "duration": 0.042857000000026346,
            "durationTicks": 96,
            "midi": 52,
            "name": "E3",
            "ticks": 318912,
            "time": 142.37095399999998,
            "velocity": 0.5511811023622047
          },
          {
            "duration": 0.042856999999997925,
            "durationTicks": 96,
            "midi": 57,
            "name": "A3",
            "ticks": 319296,
            "time": 142.542382,
            "velocity": 0.5511811023622047
          },
          {
            "duration": 0.042856999999997925,
            "durationTicks": 96,
            "midi": 45,
            "name": "A2",
            "ticks": 319296,
            "time": 142.542382,
            "velocity": 0.5511811023622047
          },
          {
            "duration": 0.042856999999997925,
            "durationTicks": 96,
            "midi": 48,
            "name": "C3",
            "ticks": 319680,
            "time": 142.71381,
            "velocity": 0.5511811023622047
          },
          {
            "duration": 0.042856999999997925,
            "durationTicks": 96,
            "midi": 60,
            "name": "C4",
            "ticks": 319680,
            "time": 142.71381,
            "velocity": 0.5511811023622047
          },
          {
            "duration": 0.042856999999997925,
            "durationTicks": 96,
            "midi": 52,
            "name": "E3",
            "ticks": 320448,
            "time": 143.056666,
            "velocity": 0.5511811023622047
          },
          {
            "duration": 0.042856999999997925,
            "durationTicks": 96,
            "midi": 64,
            "name": "E4",
            "ticks": 320448,
            "time": 143.056666,
            "velocity": 0.5511811023622047
          },
          {
            "duration": 0.042856999999997925,
            "durationTicks": 96,
            "midi": 62,
            "name": "D4",
            "ticks": 320640,
            "time": 143.14238,
            "velocity": 0.5511811023622047
          },
          {
            "duration": 0.042856999999997925,
            "durationTicks": 96,
            "midi": 50,
            "name": "D3",
            "ticks": 320640,
            "time": 143.14238,
            "velocity": 0.5511811023622047
          },
          {
            "duration": 0.042856999999997925,
            "durationTicks": 96,
            "midi": 48,
            "name": "C3",
            "ticks": 320832,
            "time": 143.228094,
            "velocity": 0.5511811023622047
          },
          {
            "duration": 0.042856999999997925,
            "durationTicks": 96,
            "midi": 60,
            "name": "C4",
            "ticks": 320832,
            "time": 143.228094,
            "velocity": 0.5511811023622047
          },
          {
            "duration": 0.042856999999997925,
            "durationTicks": 96,
            "midi": 59,
            "name": "B3",
            "ticks": 321024,
            "time": 143.313808,
            "velocity": 0.5511811023622047
          },
          {
            "duration": 0.042856999999997925,
            "durationTicks": 96,
            "midi": 47,
            "name": "B2",
            "ticks": 321024,
            "time": 143.313808,
            "velocity": 0.5511811023622047
          },
          {
            "duration": 0.042856999999997925,
            "durationTicks": 96,
            "midi": 57,
            "name": "A3",
            "ticks": 321216,
            "time": 143.399522,
            "velocity": 0.5511811023622047
          },
          {
            "duration": 0.042856999999997925,
            "durationTicks": 96,
            "midi": 45,
            "name": "A2",
            "ticks": 321216,
            "time": 143.399522,
            "velocity": 0.5511811023622047
          },
          {
            "duration": 0.042856999999997925,
            "durationTicks": 96,
            "midi": 59,
            "name": "B3",
            "ticks": 321408,
            "time": 143.485236,
            "velocity": 0.5511811023622047
          },
          {
            "duration": 0.042856999999997925,
            "durationTicks": 96,
            "midi": 47,
            "name": "B2",
            "ticks": 321408,
            "time": 143.485236,
            "velocity": 0.5511811023622047
          },
          {
            "duration": 0.042856999999997925,
            "durationTicks": 96,
            "midi": 45,
            "name": "A2",
            "ticks": 321600,
            "time": 143.57095,
            "velocity": 0.5511811023622047
          },
          {
            "duration": 0.042856999999997925,
            "durationTicks": 96,
            "midi": 57,
            "name": "A3",
            "ticks": 321600,
            "time": 143.57095,
            "velocity": 0.5511811023622047
          },
          {
            "duration": 0.042856999999997925,
            "durationTicks": 96,
            "midi": 44,
            "name": "G#2",
            "ticks": 321792,
            "time": 143.656664,
            "velocity": 0.5511811023622047
          },
          {
            "duration": 0.042856999999997925,
            "durationTicks": 96,
            "midi": 56,
            "name": "G#3",
            "ticks": 321792,
            "time": 143.656664,
            "velocity": 0.5511811023622047
          },
          {
            "duration": 0.042856999999997925,
            "durationTicks": 96,
            "midi": 45,
            "name": "A2",
            "ticks": 321984,
            "time": 143.742378,
            "velocity": 0.5511811023622047
          },
          {
            "duration": 0.042856999999997925,
            "durationTicks": 96,
            "midi": 57,
            "name": "A3",
            "ticks": 321984,
            "time": 143.742378,
            "velocity": 0.5511811023622047
          },
          {
            "duration": 0.042856999999997925,
            "durationTicks": 96,
            "midi": 59,
            "name": "B3",
            "ticks": 322176,
            "time": 143.828092,
            "velocity": 0.5511811023622047
          },
          {
            "duration": 0.042856999999997925,
            "durationTicks": 96,
            "midi": 47,
            "name": "B2",
            "ticks": 322176,
            "time": 143.828092,
            "velocity": 0.5511811023622047
          },
          {
            "duration": 0.042856999999997925,
            "durationTicks": 96,
            "midi": 60,
            "name": "C4",
            "ticks": 322368,
            "time": 143.913806,
            "velocity": 0.5511811023622047
          },
          {
            "duration": 0.042856999999997925,
            "durationTicks": 96,
            "midi": 48,
            "name": "C3",
            "ticks": 322368,
            "time": 143.913806,
            "velocity": 0.5511811023622047
          },
          {
            "duration": 0.042856999999997925,
            "durationTicks": 96,
            "midi": 52,
            "name": "E3",
            "ticks": 322560,
            "time": 143.99952,
            "velocity": 0.5511811023622047
          },
          {
            "duration": 0.042856999999997925,
            "durationTicks": 96,
            "midi": 64,
            "name": "E4",
            "ticks": 322560,
            "time": 143.99952,
            "velocity": 0.5511811023622047
          },
          {
            "duration": 0.042856999999997925,
            "durationTicks": 96,
            "midi": 69,
            "name": "A4",
            "ticks": 322752,
            "time": 144.08523399999999,
            "velocity": 0.5511811023622047
          },
          {
            "duration": 0.042856999999997925,
            "durationTicks": 96,
            "midi": 57,
            "name": "A3",
            "ticks": 322752,
            "time": 144.08523399999999,
            "velocity": 0.5511811023622047
          },
          {
            "duration": 0.042856999999997925,
            "durationTicks": 96,
            "midi": 69,
            "name": "A4",
            "ticks": 325056,
            "time": 145.113802,
            "velocity": 0.5511811023622047
          },
          {
            "duration": 0.042856999999997925,
            "durationTicks": 96,
            "midi": 68,
            "name": "G#4",
            "ticks": 325824,
            "time": 145.456658,
            "velocity": 0.5511811023622047
          },
          {
            "duration": 0.042856999999997925,
            "durationTicks": 96,
            "midi": 71,
            "name": "B4",
            "ticks": 326592,
            "time": 145.799514,
            "velocity": 0.5511811023622047
          },
          {
            "duration": 0.042856999999997925,
            "durationTicks": 96,
            "midi": 69,
            "name": "A4",
            "ticks": 327360,
            "time": 146.14237,
            "velocity": 0.5511811023622047
          },
          {
            "duration": 0.042856999999997925,
            "durationTicks": 96,
            "midi": 64,
            "name": "E4",
            "ticks": 328512,
            "time": 146.656654,
            "velocity": 0.5511811023622047
          },
          {
            "duration": 0.042856999999997925,
            "durationTicks": 96,
            "midi": 64,
            "name": "E4",
            "ticks": 328896,
            "time": 146.828082,
            "velocity": 0.5511811023622047
          },
          {
            "duration": 0.042856999999997925,
            "durationTicks": 96,
            "midi": 62,
            "name": "D4",
            "ticks": 329664,
            "time": 147.170938,
            "velocity": 0.5511811023622047
          },
          {
            "duration": 0.042856999999997925,
            "durationTicks": 96,
            "midi": 60,
            "name": "C4",
            "ticks": 330432,
            "time": 147.513794,
            "velocity": 0.5511811023622047
          },
          {
            "duration": 0.042857000000026346,
            "durationTicks": 96,
            "midi": 64,
            "name": "E4",
            "ticks": 331968,
            "time": 148.19950599999999,
            "velocity": 0.5511811023622047
          },
          {
            "duration": 0.042856999999997925,
            "durationTicks": 96,
            "midi": 57,
            "name": "A3",
            "ticks": 333504,
            "time": 148.885218,
            "velocity": 0.5511811023622047
          }
        ],
        "endOfTrackTicks": 333600
      },
      {
        "channel": 5,
        "controlChanges": {},
        "pitchBends": [],
        "instrument": {
          "family": "synth effects",
          "number": 99,
          "name": "fx 4 (atmosphere)"
        },
        "name": "Scifi",
        "notes": [
          {
            "duration": 0.042856999999997925,
            "durationTicks": 96,
            "midi": 74,
            "name": "D5",
            "ticks": 176832,
            "time": 78.942594,
            "velocity": 0.2677165354330709
          },
          {
            "duration": 0.042856999999997925,
            "durationTicks": 96,
            "midi": 77,
            "name": "F5",
            "ticks": 177216,
            "time": 79.114022,
            "velocity": 0.2677165354330709
          },
          {
            "duration": 0.042856999999997925,
            "durationTicks": 96,
            "midi": 81,
            "name": "A5",
            "ticks": 177600,
            "time": 79.28545,
            "velocity": 0.2677165354330709
          },
          {
            "duration": 0.042856999999997925,
            "durationTicks": 96,
            "midi": 77,
            "name": "F5",
            "ticks": 177984,
            "time": 79.456878,
            "velocity": 0.2677165354330709
          },
          {
            "duration": 0.042856999999997925,
            "durationTicks": 96,
            "midi": 74,
            "name": "D5",
            "ticks": 178368,
            "time": 79.628306,
            "velocity": 0.2677165354330709
          },
          {
            "duration": 0.042856999999997925,
            "durationTicks": 96,
            "midi": 77,
            "name": "F5",
            "ticks": 178752,
            "time": 79.799734,
            "velocity": 0.2677165354330709
          },
          {
            "duration": 0.042857000000012135,
            "durationTicks": 96,
            "midi": 81,
            "name": "A5",
            "ticks": 179136,
            "time": 79.97116199999999,
            "velocity": 0.2677165354330709
          },
          {
            "duration": 0.042856999999997925,
            "durationTicks": 96,
            "midi": 77,
            "name": "F5",
            "ticks": 179520,
            "time": 80.14259,
            "velocity": 0.2677165354330709
          },
          {
            "duration": 0.042856999999997925,
            "durationTicks": 96,
            "midi": 74,
            "name": "D5",
            "ticks": 179904,
            "time": 80.314018,
            "velocity": 0.2677165354330709
          },
          {
            "duration": 0.042856999999997925,
            "durationTicks": 96,
            "midi": 77,
            "name": "F5",
            "ticks": 180288,
            "time": 80.485446,
            "velocity": 0.2677165354330709
          },
          {
            "duration": 0.042856999999997925,
            "durationTicks": 96,
            "midi": 81,
            "name": "A5",
            "ticks": 180672,
            "time": 80.656874,
            "velocity": 0.2677165354330709
          },
          {
            "duration": 0.042856999999997925,
            "durationTicks": 96,
            "midi": 77,
            "name": "F5",
            "ticks": 181056,
            "time": 80.828302,
            "velocity": 0.2677165354330709
          },
          {
            "duration": 0.042856999999997925,
            "durationTicks": 96,
            "midi": 74,
            "name": "D5",
            "ticks": 181440,
            "time": 80.99973,
            "velocity": 0.2677165354330709
          },
          {
            "duration": 0.042856999999997925,
            "durationTicks": 96,
            "midi": 77,
            "name": "F5",
            "ticks": 181824,
            "time": 81.171158,
            "velocity": 0.2677165354330709
          },
          {
            "duration": 0.042856999999997925,
            "durationTicks": 96,
            "midi": 81,
            "name": "A5",
            "ticks": 182208,
            "time": 81.342586,
            "velocity": 0.2677165354330709
          },
          {
            "duration": 0.042856999999997925,
            "durationTicks": 96,
            "midi": 77,
            "name": "F5",
            "ticks": 182592,
            "time": 81.514014,
            "velocity": 0.2677165354330709
          },
          {
            "duration": 0.042856999999997925,
            "durationTicks": 96,
            "midi": 72,
            "name": "C5",
            "ticks": 182976,
            "time": 81.685442,
            "velocity": 0.2677165354330709
          },
          {
            "duration": 0.042856999999997925,
            "durationTicks": 96,
            "midi": 76,
            "name": "E5",
            "ticks": 183360,
            "time": 81.85687,
            "velocity": 0.2677165354330709
          },
          {
            "duration": 0.042857000000012135,
            "durationTicks": 96,
            "midi": 81,
            "name": "A5",
            "ticks": 183744,
            "time": 82.02829799999999,
            "velocity": 0.2677165354330709
          },
          {
            "duration": 0.042856999999997925,
            "durationTicks": 96,
            "midi": 76,
            "name": "E5",
            "ticks": 184128,
            "time": 82.199726,
            "velocity": 0.2677165354330709
          },
          {
            "duration": 0.042856999999997925,
            "durationTicks": 96,
            "midi": 72,
            "name": "C5",
            "ticks": 184512,
            "time": 82.371154,
            "velocity": 0.2677165354330709
          },
          {
            "duration": 0.042856999999997925,
            "durationTicks": 96,
            "midi": 76,
            "name": "E5",
            "ticks": 184896,
            "time": 82.542582,
            "velocity": 0.2677165354330709
          },
          {
            "duration": 0.042856999999997925,
            "durationTicks": 96,
            "midi": 81,
            "name": "A5",
            "ticks": 185280,
            "time": 82.71401,
            "velocity": 0.2677165354330709
          },
          {
            "duration": 0.042857000000012135,
            "durationTicks": 96,
            "midi": 76,
            "name": "E5",
            "ticks": 185664,
            "time": 82.885438,
            "velocity": 0.2677165354330709
          },
          {
            "duration": 0.042856999999997925,
            "durationTicks": 96,
            "midi": 72,
            "name": "C5",
            "ticks": 186048,
            "time": 83.056866,
            "velocity": 0.2677165354330709
          },
          {
            "duration": 0.042856999999997925,
            "durationTicks": 96,
            "midi": 76,
            "name": "E5",
            "ticks": 186432,
            "time": 83.228294,
            "velocity": 0.2677165354330709
          },
          {
            "duration": 0.042856999999997925,
            "durationTicks": 96,
            "midi": 81,
            "name": "A5",
            "ticks": 186816,
            "time": 83.399722,
            "velocity": 0.2677165354330709
          },
          {
            "duration": 0.042856999999997925,
            "durationTicks": 96,
            "midi": 76,
            "name": "E5",
            "ticks": 187200,
            "time": 83.57115,
            "velocity": 0.2677165354330709
          },
          {
            "duration": 0.042856999999997925,
            "durationTicks": 96,
            "midi": 72,
            "name": "C5",
            "ticks": 187584,
            "time": 83.742578,
            "velocity": 0.2677165354330709
          },
          {
            "duration": 0.042856999999997925,
            "durationTicks": 96,
            "midi": 76,
            "name": "E5",
            "ticks": 187968,
            "time": 83.914006,
            "velocity": 0.2677165354330709
          },
          {
            "duration": 0.042857000000012135,
            "durationTicks": 96,
            "midi": 81,
            "name": "A5",
            "ticks": 188352,
            "time": 84.08543399999999,
            "velocity": 0.2677165354330709
          },
          {
            "duration": 0.042856999999997925,
            "durationTicks": 96,
            "midi": 76,
            "name": "E5",
            "ticks": 188736,
            "time": 84.256862,
            "velocity": 0.2677165354330709
          },
          {
            "duration": 0.042856999999997925,
            "durationTicks": 96,
            "midi": 74,
            "name": "D5",
            "ticks": 189120,
            "time": 84.42829,
            "velocity": 0.2677165354330709
          },
          {
            "duration": 0.042856999999997925,
            "durationTicks": 96,
            "midi": 77,
            "name": "F5",
            "ticks": 189504,
            "time": 84.599718,
            "velocity": 0.2677165354330709
          },
          {
            "duration": 0.042856999999997925,
            "durationTicks": 96,
            "midi": 81,
            "name": "A5",
            "ticks": 189888,
            "time": 84.771146,
            "velocity": 0.2677165354330709
          },
          {
            "duration": 0.042857000000012135,
            "durationTicks": 96,
            "midi": 77,
            "name": "F5",
            "ticks": 190272,
            "time": 84.942574,
            "velocity": 0.2677165354330709
          },
          {
            "duration": 0.042856999999997925,
            "durationTicks": 96,
            "midi": 74,
            "name": "D5",
            "ticks": 190656,
            "time": 85.114002,
            "velocity": 0.2677165354330709
          },
          {
            "duration": 0.042856999999997925,
            "durationTicks": 96,
            "midi": 77,
            "name": "F5",
            "ticks": 191040,
            "time": 85.28543,
            "velocity": 0.2677165354330709
          },
          {
            "duration": 0.042856999999997925,
            "durationTicks": 96,
            "midi": 81,
            "name": "A5",
            "ticks": 191424,
            "time": 85.456858,
            "velocity": 0.2677165354330709
          },
          {
            "duration": 0.042856999999997925,
            "durationTicks": 96,
            "midi": 77,
            "name": "F5",
            "ticks": 191808,
            "time": 85.628286,
            "velocity": 0.2677165354330709
          },
          {
            "duration": 0.042856999999997925,
            "durationTicks": 96,
            "midi": 74,
            "name": "D5",
            "ticks": 192192,
            "time": 85.799714,
            "velocity": 0.2677165354330709
          },
          {
            "duration": 0.042856999999997925,
            "durationTicks": 96,
            "midi": 77,
            "name": "F5",
            "ticks": 192576,
            "time": 85.971142,
            "velocity": 0.2677165354330709
          },
          {
            "duration": 0.042857000000012135,
            "durationTicks": 96,
            "midi": 81,
            "name": "A5",
            "ticks": 192960,
            "time": 86.14256999999999,
            "velocity": 0.2677165354330709
          },
          {
            "duration": 0.042856999999997925,
            "durationTicks": 96,
            "midi": 77,
            "name": "F5",
            "ticks": 193344,
            "time": 86.313998,
            "velocity": 0.2677165354330709
          },
          {
            "duration": 0.042856999999997925,
            "durationTicks": 96,
            "midi": 74,
            "name": "D5",
            "ticks": 193728,
            "time": 86.485426,
            "velocity": 0.2677165354330709
          },
          {
            "duration": 0.042856999999997925,
            "durationTicks": 96,
            "midi": 77,
            "name": "F5",
            "ticks": 194112,
            "time": 86.656854,
            "velocity": 0.2677165354330709
          },
          {
            "duration": 0.042856999999997925,
            "durationTicks": 96,
            "midi": 81,
            "name": "A5",
            "ticks": 194496,
            "time": 86.828282,
            "velocity": 0.2677165354330709
          },
          {
            "duration": 0.042857000000012135,
            "durationTicks": 96,
            "midi": 77,
            "name": "F5",
            "ticks": 194880,
            "time": 86.99971,
            "velocity": 0.2677165354330709
          },
          {
            "duration": 0.042856999999997925,
            "durationTicks": 96,
            "midi": 72,
            "name": "C5",
            "ticks": 195264,
            "time": 87.171138,
            "velocity": 0.2677165354330709
          },
          {
            "duration": 0.042856999999997925,
            "durationTicks": 96,
            "midi": 76,
            "name": "E5",
            "ticks": 195648,
            "time": 87.342566,
            "velocity": 0.2677165354330709
          },
          {
            "duration": 0.042856999999997925,
            "durationTicks": 96,
            "midi": 81,
            "name": "A5",
            "ticks": 196032,
            "time": 87.513994,
            "velocity": 0.2677165354330709
          },
          {
            "duration": 0.042856999999997925,
            "durationTicks": 96,
            "midi": 76,
            "name": "E5",
            "ticks": 196416,
            "time": 87.685422,
            "velocity": 0.2677165354330709
          },
          {
            "duration": 0.042856999999997925,
            "durationTicks": 96,
            "midi": 72,
            "name": "C5",
            "ticks": 196800,
            "time": 87.85685,
            "velocity": 0.2677165354330709
          },
          {
            "duration": 0.042856999999997925,
            "durationTicks": 96,
            "midi": 76,
            "name": "E5",
            "ticks": 197184,
            "time": 88.028278,
            "velocity": 0.2677165354330709
          },
          {
            "duration": 0.042857000000012135,
            "durationTicks": 96,
            "midi": 81,
            "name": "A5",
            "ticks": 197568,
            "time": 88.19970599999999,
            "velocity": 0.2677165354330709
          },
          {
            "duration": 0.042856999999997925,
            "durationTicks": 96,
            "midi": 76,
            "name": "E5",
            "ticks": 197952,
            "time": 88.371134,
            "velocity": 0.2677165354330709
          },
          {
            "duration": 0.042856999999997925,
            "durationTicks": 96,
            "midi": 72,
            "name": "C5",
            "ticks": 198336,
            "time": 88.542562,
            "velocity": 0.2677165354330709
          },
          {
            "duration": 0.042856999999997925,
            "durationTicks": 96,
            "midi": 76,
            "name": "E5",
            "ticks": 198720,
            "time": 88.71399,
            "velocity": 0.2677165354330709
          },
          {
            "duration": 0.042856999999997925,
            "durationTicks": 96,
            "midi": 81,
            "name": "A5",
            "ticks": 199104,
            "time": 88.885418,
            "velocity": 0.2677165354330709
          },
          {
            "duration": 0.042857000000012135,
            "durationTicks": 96,
            "midi": 76,
            "name": "E5",
            "ticks": 199488,
            "time": 89.056846,
            "velocity": 0.2677165354330709
          },
          {
            "duration": 0.042856999999997925,
            "durationTicks": 96,
            "midi": 72,
            "name": "C5",
            "ticks": 199872,
            "time": 89.228274,
            "velocity": 0.2677165354330709
          },
          {
            "duration": 0.042856999999997925,
            "durationTicks": 96,
            "midi": 76,
            "name": "E5",
            "ticks": 200256,
            "time": 89.399702,
            "velocity": 0.2677165354330709
          },
          {
            "duration": 0.042856999999997925,
            "durationTicks": 96,
            "midi": 81,
            "name": "A5",
            "ticks": 200640,
            "time": 89.57113,
            "velocity": 0.2677165354330709
          },
          {
            "duration": 0.042856999999997925,
            "durationTicks": 96,
            "midi": 76,
            "name": "E5",
            "ticks": 201024,
            "time": 89.742558,
            "velocity": 0.2677165354330709
          }
        ],
        "endOfTrackTicks": 201120
      },
      {
        "channel": 6,
        "controlChanges": {},
        "pitchBends": [],
        "instrument": {
          "family": "piano",
          "number": 0,
          "name": "acoustic grand piano"
        },
        "name": "Grand Piano (Classic)",
        "notes": [
          {
            "duration": 0.042856999999997925,
            "durationTicks": 96,
            "midi": 76,
            "name": "E5",
            "ticks": 54720,
            "time": 24.42849,
            "velocity": 0.3937007874015748
          },
          {
            "duration": 0.042856999999997925,
            "durationTicks": 96,
            "midi": 69,
            "name": "A4",
            "ticks": 54720,
            "time": 24.42849,
            "velocity": 0.3937007874015748
          },
          {
            "duration": 0.042856999999997925,
            "durationTicks": 96,
            "midi": 72,
            "name": "C5",
            "ticks": 54720,
            "time": 24.42849,
            "velocity": 0.3937007874015748
          },
          {
            "duration": 0.042856999999997925,
            "durationTicks": 96,
            "midi": 74,
            "name": "D5",
            "ticks": 55488,
            "time": 24.771346,
            "velocity": 0.3937007874015748
          },
          {
            "duration": 0.042856999999997925,
            "durationTicks": 96,
            "midi": 69,
            "name": "A4",
            "ticks": 55488,
            "time": 24.771346,
            "velocity": 0.3937007874015748
          },
          {
            "duration": 0.042856999999997925,
            "durationTicks": 96,
            "midi": 77,
            "name": "F5",
            "ticks": 55488,
            "time": 24.771346,
            "velocity": 0.3937007874015748
          },
          {
            "duration": 0.04285700000000148,
            "durationTicks": 96,
            "midi": 74,
            "name": "D5",
            "ticks": 56256,
            "time": 25.114202,
            "velocity": 0.3937007874015748
          },
          {
            "duration": 0.04285700000000148,
            "durationTicks": 96,
            "midi": 69,
            "name": "A4",
            "ticks": 56256,
            "time": 25.114202,
            "velocity": 0.3937007874015748
          },
          {
            "duration": 0.042856999999997925,
            "durationTicks": 96,
            "midi": 76,
            "name": "E5",
            "ticks": 57024,
            "time": 25.457058,
            "velocity": 0.3937007874015748
          },
          {
            "duration": 0.042856999999997925,
            "durationTicks": 96,
            "midi": 68,
            "name": "G#4",
            "ticks": 57024,
            "time": 25.457058,
            "velocity": 0.3937007874015748
          },
          {
            "duration": 0.042856999999997925,
            "durationTicks": 96,
            "midi": 71,
            "name": "B4",
            "ticks": 57024,
            "time": 25.457058,
            "velocity": 0.3937007874015748
          },
          {
            "duration": 0.04285700000000148,
            "durationTicks": 96,
            "midi": 73,
            "name": "C#5",
            "ticks": 60864,
            "time": 27.171338,
            "velocity": 0.3937007874015748
          },
          {
            "duration": 0.04285700000000148,
            "durationTicks": 96,
            "midi": 76,
            "name": "E5",
            "ticks": 60864,
            "time": 27.171338,
            "velocity": 0.3937007874015748
          },
          {
            "duration": 0.04285700000000148,
            "durationTicks": 96,
            "midi": 69,
            "name": "A4",
            "ticks": 60864,
            "time": 27.171338,
            "velocity": 0.3937007874015748
          },
          {
            "duration": 0.04285700000000148,
            "durationTicks": 96,
            "midi": 79,
            "name": "G5",
            "ticks": 61632,
            "time": 27.514194,
            "velocity": 0.3937007874015748
          },
          {
            "duration": 0.04285700000000148,
            "durationTicks": 96,
            "midi": 76,
            "name": "E5",
            "ticks": 61632,
            "time": 27.514194,
            "velocity": 0.3937007874015748
          },
          {
            "duration": 0.04285700000000148,
            "durationTicks": 96,
            "midi": 69,
            "name": "A4",
            "ticks": 61632,
            "time": 27.514194,
            "velocity": 0.3937007874015748
          },
          {
            "duration": 0.04285700000000148,
            "durationTicks": 96,
            "midi": 73,
            "name": "C#5",
            "ticks": 62784,
            "time": 28.028478,
            "velocity": 0.3937007874015748
          },
          {
            "duration": 0.04285700000000148,
            "durationTicks": 96,
            "midi": 76,
            "name": "E5",
            "ticks": 62784,
            "time": 28.028478,
            "velocity": 0.3937007874015748
          },
          {
            "duration": 0.04285700000000148,
            "durationTicks": 96,
            "midi": 69,
            "name": "A4",
            "ticks": 62784,
            "time": 28.028478,
            "velocity": 0.3937007874015748
          },
          {
            "duration": 0.04285700000000148,
            "durationTicks": 96,
            "midi": 77,
            "name": "F5",
            "ticks": 63168,
            "time": 28.199906,
            "velocity": 0.3937007874015748
          },
          {
            "duration": 0.04285700000000148,
            "durationTicks": 96,
            "midi": 74,
            "name": "D5",
            "ticks": 63168,
            "time": 28.199906,
            "velocity": 0.3937007874015748
          },
          {
            "duration": 0.04285700000000148,
            "durationTicks": 96,
            "midi": 69,
            "name": "A4",
            "ticks": 63168,
            "time": 28.199906,
            "velocity": 0.3937007874015748
          },
          {
            "duration": 0.042856999999997925,
            "durationTicks": 96,
            "midi": 77,
            "name": "F5",
            "ticks": 67008,
            "time": 29.914186,
            "velocity": 0.3937007874015748
          },
          {
            "duration": 0.042856999999997925,
            "durationTicks": 96,
            "midi": 72,
            "name": "C5",
            "ticks": 67008,
            "time": 29.914186,
            "velocity": 0.3937007874015748
          },
          {
            "duration": 0.042856999999997925,
            "durationTicks": 96,
            "midi": 81,
            "name": "A5",
            "ticks": 67008,
            "time": 29.914186,
            "velocity": 0.3937007874015748
          },
          {
            "duration": 0.04285700000000148,
            "durationTicks": 96,
            "midi": 71,
            "name": "B4",
            "ticks": 67776,
            "time": 30.257042,
            "velocity": 0.3937007874015748
          },
          {
            "duration": 0.04285700000000148,
            "durationTicks": 96,
            "midi": 76,
            "name": "E5",
            "ticks": 67776,
            "time": 30.257042,
            "velocity": 0.3937007874015748
          },
          {
            "duration": 0.04285700000000148,
            "durationTicks": 96,
            "midi": 80,
            "name": "G#5",
            "ticks": 67776,
            "time": 30.257042,
            "velocity": 0.3937007874015748
          },
          {
            "duration": 0.04285700000000148,
            "durationTicks": 96,
            "midi": 80,
            "name": "G#5",
            "ticks": 68544,
            "time": 30.599898,
            "velocity": 0.3937007874015748
          },
          {
            "duration": 0.04285700000000148,
            "durationTicks": 96,
            "midi": 83,
            "name": "B5",
            "ticks": 68544,
            "time": 30.599898,
            "velocity": 0.3937007874015748
          },
          {
            "duration": 0.04285700000000148,
            "durationTicks": 96,
            "midi": 76,
            "name": "E5",
            "ticks": 68544,
            "time": 30.599898,
            "velocity": 0.3937007874015748
          },
          {
            "duration": 0.042856999999997925,
            "durationTicks": 96,
            "midi": 76,
            "name": "E5",
            "ticks": 69312,
            "time": 30.942754,
            "velocity": 0.3937007874015748
          },
          {
            "duration": 0.042856999999997925,
            "durationTicks": 96,
            "midi": 72,
            "name": "C5",
            "ticks": 69312,
            "time": 30.942754,
            "velocity": 0.3937007874015748
          },
          {
            "duration": 0.042856999999997925,
            "durationTicks": 96,
            "midi": 81,
            "name": "A5",
            "ticks": 69312,
            "time": 30.942754,
            "velocity": 0.3937007874015748
          },
          {
            "duration": 0.042856999999997925,
            "durationTicks": 96,
            "midi": 69,
            "name": "A4",
            "ticks": 70464,
            "time": 31.457038,
            "velocity": 0.3937007874015748
          },
          {
            "duration": 0.042856999999997925,
            "durationTicks": 96,
            "midi": 72,
            "name": "C5",
            "ticks": 70464,
            "time": 31.457038,
            "velocity": 0.3937007874015748
          },
          {
            "duration": 0.042856999999997925,
            "durationTicks": 96,
            "midi": 76,
            "name": "E5",
            "ticks": 70464,
            "time": 31.457038,
            "velocity": 0.3937007874015748
          },
          {
            "duration": 0.04285700000000148,
            "durationTicks": 96,
            "midi": 69,
            "name": "A4",
            "ticks": 70848,
            "time": 31.628466,
            "velocity": 0.3937007874015748
          },
          {
            "duration": 0.04285700000000148,
            "durationTicks": 96,
            "midi": 76,
            "name": "E5",
            "ticks": 70848,
            "time": 31.628466,
            "velocity": 0.3937007874015748
          },
          {
            "duration": 0.04285700000000148,
            "durationTicks": 96,
            "midi": 72,
            "name": "C5",
            "ticks": 70848,
            "time": 31.628466,
            "velocity": 0.3937007874015748
          },
          {
            "duration": 0.04285700000000503,
            "durationTicks": 96,
            "midi": 81,
            "name": "A5",
            "ticks": 73152,
            "time": 32.657033999999996,
            "velocity": 0.3937007874015748
          },
          {
            "duration": 0.04285700000000503,
            "durationTicks": 96,
            "midi": 72,
            "name": "C5",
            "ticks": 73152,
            "time": 32.657033999999996,
            "velocity": 0.3937007874015748
          },
          {
            "duration": 0.04285700000000503,
            "durationTicks": 96,
            "midi": 77,
            "name": "F5",
            "ticks": 73152,
            "time": 32.657033999999996,
            "velocity": 0.3937007874015748
          },
          {
            "duration": 0.042856999999997925,
            "durationTicks": 96,
            "midi": 71,
            "name": "B4",
            "ticks": 73920,
            "time": 32.99989,
            "velocity": 0.3937007874015748
          },
          {
            "duration": 0.042856999999997925,
            "durationTicks": 96,
            "midi": 76,
            "name": "E5",
            "ticks": 73920,
            "time": 32.99989,
            "velocity": 0.3937007874015748
          },
          {
            "duration": 0.042856999999997925,
            "durationTicks": 96,
            "midi": 80,
            "name": "G#5",
            "ticks": 73920,
            "time": 32.99989,
            "velocity": 0.3937007874015748
          },
          {
            "duration": 0.042856999999997925,
            "durationTicks": 96,
            "midi": 81,
            "name": "A5",
            "ticks": 74688,
            "time": 33.342746,
            "velocity": 0.3937007874015748
          },
          {
            "duration": 0.042856999999997925,
            "durationTicks": 96,
            "midi": 72,
            "name": "C5",
            "ticks": 74688,
            "time": 33.342746,
            "velocity": 0.3937007874015748
          },
          {
            "duration": 0.042856999999997925,
            "durationTicks": 96,
            "midi": 77,
            "name": "F5",
            "ticks": 74688,
            "time": 33.342746,
            "velocity": 0.3937007874015748
          },
          {
            "duration": 0.042856999999997925,
            "durationTicks": 96,
            "midi": 84,
            "name": "C6",
            "ticks": 75456,
            "time": 33.685602,
            "velocity": 0.3937007874015748
          },
          {
            "duration": 0.042856999999997925,
            "durationTicks": 96,
            "midi": 81,
            "name": "A5",
            "ticks": 75456,
            "time": 33.685602,
            "velocity": 0.3937007874015748
          },
          {
            "duration": 0.042856999999997925,
            "durationTicks": 96,
            "midi": 77,
            "name": "F5",
            "ticks": 75456,
            "time": 33.685602,
            "velocity": 0.3937007874015748
          },
          {
            "duration": 0.042856999999997925,
            "durationTicks": 96,
            "midi": 76,
            "name": "E5",
            "ticks": 76608,
            "time": 34.199886,
            "velocity": 0.3937007874015748
          },
          {
            "duration": 0.042856999999997925,
            "durationTicks": 96,
            "midi": 80,
            "name": "G#5",
            "ticks": 76608,
            "time": 34.199886,
            "velocity": 0.3937007874015748
          },
          {
            "duration": 0.042856999999997925,
            "durationTicks": 96,
            "midi": 83,
            "name": "B5",
            "ticks": 76608,
            "time": 34.199886,
            "velocity": 0.3937007874015748
          },
          {
            "duration": 0.042856999999997925,
            "durationTicks": 96,
            "midi": 80,
            "name": "G#5",
            "ticks": 76992,
            "time": 34.371314,
            "velocity": 0.3937007874015748
          },
          {
            "duration": 0.042856999999997925,
            "durationTicks": 96,
            "midi": 76,
            "name": "E5",
            "ticks": 76992,
            "time": 34.371314,
            "velocity": 0.3937007874015748
          },
          {
            "duration": 0.042856999999997925,
            "durationTicks": 96,
            "midi": 83,
            "name": "B5",
            "ticks": 76992,
            "time": 34.371314,
            "velocity": 0.3937007874015748
          },
          {
            "duration": 0.042856999999997925,
            "durationTicks": 96,
            "midi": 69,
            "name": "A4",
            "ticks": 79296,
            "time": 35.399882,
            "velocity": 0.3937007874015748
          },
          {
            "duration": 0.042856999999997925,
            "durationTicks": 96,
            "midi": 72,
            "name": "C5",
            "ticks": 79296,
            "time": 35.399882,
            "velocity": 0.3937007874015748
          },
          {
            "duration": 0.042856999999997925,
            "durationTicks": 96,
            "midi": 76,
            "name": "E5",
            "ticks": 79296,
            "time": 35.399882,
            "velocity": 0.3937007874015748
          },
          {
            "duration": 0.042856999999997925,
            "durationTicks": 96,
            "midi": 69,
            "name": "A4",
            "ticks": 80064,
            "time": 35.742738,
            "velocity": 0.3937007874015748
          },
          {
            "duration": 0.042856999999997925,
            "durationTicks": 96,
            "midi": 74,
            "name": "D5",
            "ticks": 80064,
            "time": 35.742738,
            "velocity": 0.3937007874015748
          },
          {
            "duration": 0.042856999999997925,
            "durationTicks": 96,
            "midi": 77,
            "name": "F5",
            "ticks": 80064,
            "time": 35.742738,
            "velocity": 0.3937007874015748
          },
          {
            "duration": 0.042856999999997925,
            "durationTicks": 96,
            "midi": 69,
            "name": "A4",
            "ticks": 80832,
            "time": 36.085594,
            "velocity": 0.3937007874015748
          },
          {
            "duration": 0.042856999999997925,
            "durationTicks": 96,
            "midi": 74,
            "name": "D5",
            "ticks": 80832,
            "time": 36.085594,
            "velocity": 0.3937007874015748
          },
          {
            "duration": 0.042856999999997925,
            "durationTicks": 96,
            "midi": 71,
            "name": "B4",
            "ticks": 81600,
            "time": 36.42845,
            "velocity": 0.3937007874015748
          },
          {
            "duration": 0.042856999999997925,
            "durationTicks": 96,
            "midi": 68,
            "name": "G#4",
            "ticks": 81600,
            "time": 36.42845,
            "velocity": 0.3937007874015748
          },
          {
            "duration": 0.042856999999997925,
            "durationTicks": 96,
            "midi": 76,
            "name": "E5",
            "ticks": 81600,
            "time": 36.42845,
            "velocity": 0.3937007874015748
          },
          {
            "duration": 0.042856999999997925,
            "durationTicks": 96,
            "midi": 69,
            "name": "A4",
            "ticks": 85440,
            "time": 38.14273,
            "velocity": 0.3937007874015748
          },
          {
            "duration": 0.042856999999997925,
            "durationTicks": 96,
            "midi": 76,
            "name": "E5",
            "ticks": 85440,
            "time": 38.14273,
            "velocity": 0.3937007874015748
          },
          {
            "duration": 0.042856999999997925,
            "durationTicks": 96,
            "midi": 73,
            "name": "C#5",
            "ticks": 85440,
            "time": 38.14273,
            "velocity": 0.3937007874015748
          },
          {
            "duration": 0.04285700000000503,
            "durationTicks": 96,
            "midi": 79,
            "name": "G5",
            "ticks": 86208,
            "time": 38.485586,
            "velocity": 0.3937007874015748
          },
          {
            "duration": 0.04285700000000503,
            "durationTicks": 96,
            "midi": 76,
            "name": "E5",
            "ticks": 86208,
            "time": 38.485586,
            "velocity": 0.3937007874015748
          },
          {
            "duration": 0.04285700000000503,
            "durationTicks": 96,
            "midi": 69,
            "name": "A4",
            "ticks": 86208,
            "time": 38.485586,
            "velocity": 0.3937007874015748
          },
          {
            "duration": 0.042856999999997925,
            "durationTicks": 96,
            "midi": 69,
            "name": "A4",
            "ticks": 87360,
            "time": 38.99987,
            "velocity": 0.3937007874015748
          },
          {
            "duration": 0.042856999999997925,
            "durationTicks": 96,
            "midi": 76,
            "name": "E5",
            "ticks": 87360,
            "time": 38.99987,
            "velocity": 0.3937007874015748
          },
          {
            "duration": 0.042856999999997925,
            "durationTicks": 96,
            "midi": 73,
            "name": "C#5",
            "ticks": 87360,
            "time": 38.99987,
            "velocity": 0.3937007874015748
          },
          {
            "duration": 0.042856999999997925,
            "durationTicks": 96,
            "midi": 69,
            "name": "A4",
            "ticks": 87744,
            "time": 39.171298,
            "velocity": 0.3937007874015748
          },
          {
            "duration": 0.042856999999997925,
            "durationTicks": 96,
            "midi": 74,
            "name": "D5",
            "ticks": 87744,
            "time": 39.171298,
            "velocity": 0.3937007874015748
          },
          {
            "duration": 0.042856999999997925,
            "durationTicks": 96,
            "midi": 77,
            "name": "F5",
            "ticks": 87744,
            "time": 39.171298,
            "velocity": 0.3937007874015748
          },
          {
            "duration": 0.042856999999997925,
            "durationTicks": 96,
            "midi": 77,
            "name": "F5",
            "ticks": 91584,
            "time": 40.885578,
            "velocity": 0.3937007874015748
          },
          {
            "duration": 0.042856999999997925,
            "durationTicks": 96,
            "midi": 72,
            "name": "C5",
            "ticks": 91584,
            "time": 40.885578,
            "velocity": 0.3937007874015748
          },
          {
            "duration": 0.042856999999997925,
            "durationTicks": 96,
            "midi": 81,
            "name": "A5",
            "ticks": 91584,
            "time": 40.885578,
            "velocity": 0.3937007874015748
          },
          {
            "duration": 0.042856999999997925,
            "durationTicks": 96,
            "midi": 76,
            "name": "E5",
            "ticks": 92352,
            "time": 41.228434,
            "velocity": 0.3937007874015748
          },
          {
            "duration": 0.042856999999997925,
            "durationTicks": 96,
            "midi": 71,
            "name": "B4",
            "ticks": 92352,
            "time": 41.228434,
            "velocity": 0.3937007874015748
          },
          {
            "duration": 0.042856999999997925,
            "durationTicks": 96,
            "midi": 80,
            "name": "G#5",
            "ticks": 92352,
            "time": 41.228434,
            "velocity": 0.3937007874015748
          },
          {
            "duration": 0.04285700000000503,
            "durationTicks": 96,
            "midi": 76,
            "name": "E5",
            "ticks": 93120,
            "time": 41.57129,
            "velocity": 0.3937007874015748
          },
          {
            "duration": 0.04285700000000503,
            "durationTicks": 96,
            "midi": 80,
            "name": "G#5",
            "ticks": 93120,
            "time": 41.57129,
            "velocity": 0.3937007874015748
          },
          {
            "duration": 0.04285700000000503,
            "durationTicks": 96,
            "midi": 83,
            "name": "B5",
            "ticks": 93120,
            "time": 41.57129,
            "velocity": 0.3937007874015748
          },
          {
            "duration": 0.042856999999997925,
            "durationTicks": 96,
            "midi": 76,
            "name": "E5",
            "ticks": 93888,
            "time": 41.914146,
            "velocity": 0.3937007874015748
          },
          {
            "duration": 0.042856999999997925,
            "durationTicks": 96,
            "midi": 81,
            "name": "A5",
            "ticks": 93888,
            "time": 41.914146,
            "velocity": 0.3937007874015748
          },
          {
            "duration": 0.042856999999997925,
            "durationTicks": 96,
            "midi": 72,
            "name": "C5",
            "ticks": 93888,
            "time": 41.914146,
            "velocity": 0.3937007874015748
          },
          {
            "duration": 0.042856999999997925,
            "durationTicks": 96,
            "midi": 76,
            "name": "E5",
            "ticks": 95040,
            "time": 42.42843,
            "velocity": 0.3937007874015748
          },
          {
            "duration": 0.042856999999997925,
            "durationTicks": 96,
            "midi": 69,
            "name": "A4",
            "ticks": 95040,
            "time": 42.42843,
            "velocity": 0.3937007874015748
          },
          {
            "duration": 0.042856999999997925,
            "durationTicks": 96,
            "midi": 72,
            "name": "C5",
            "ticks": 95040,
            "time": 42.42843,
            "velocity": 0.3937007874015748
          },
          {
            "duration": 0.04285700000000503,
            "durationTicks": 96,
            "midi": 76,
            "name": "E5",
            "ticks": 95424,
            "time": 42.599858,
            "velocity": 0.3937007874015748
          },
          {
            "duration": 0.04285700000000503,
            "durationTicks": 96,
            "midi": 72,
            "name": "C5",
            "ticks": 95424,
            "time": 42.599858,
            "velocity": 0.3937007874015748
          },
          {
            "duration": 0.04285700000000503,
            "durationTicks": 96,
            "midi": 69,
            "name": "A4",
            "ticks": 95424,
            "time": 42.599858,
            "velocity": 0.3937007874015748
          },
          {
            "duration": 0.042856999999997925,
            "durationTicks": 96,
            "midi": 74,
            "name": "D5",
            "ticks": 96192,
            "time": 42.942714,
            "velocity": 0.3937007874015748
          },
          {
            "duration": 0.042856999999997925,
            "durationTicks": 96,
            "midi": 63,
            "name": "D#4",
            "ticks": 96960,
            "time": 43.28557,
            "velocity": 0.3937007874015748
          },
          {
            "duration": 0.042856999999997925,
            "durationTicks": 96,
            "midi": 72,
            "name": "C5",
            "ticks": 96960,
            "time": 43.28557,
            "velocity": 0.3937007874015748
          },
          {
            "duration": 0.042856999999997925,
            "durationTicks": 96,
            "midi": 69,
            "name": "A4",
            "ticks": 96960,
            "time": 43.28557,
            "velocity": 0.3937007874015748
          },
          {
            "duration": 0.042856999999997925,
            "durationTicks": 96,
            "midi": 66,
            "name": "F#4",
            "ticks": 96960,
            "time": 43.28557,
            "velocity": 0.3937007874015748
          },
          {
            "duration": 0.042856999999997925,
            "durationTicks": 96,
            "midi": 71,
            "name": "B4",
            "ticks": 98496,
            "time": 43.971282,
            "velocity": 0.3937007874015748
          },
          {
            "duration": 0.042856999999997925,
            "durationTicks": 96,
            "midi": 76,
            "name": "E5",
            "ticks": 98496,
            "time": 43.971282,
            "velocity": 0.3937007874015748
          },
          {
            "duration": 0.042856999999997925,
            "durationTicks": 96,
            "midi": 68,
            "name": "G#4",
            "ticks": 98496,
            "time": 43.971282,
            "velocity": 0.3937007874015748
          },
          {
            "duration": 0.04285700000000503,
            "durationTicks": 96,
            "midi": 69,
            "name": "A4",
            "ticks": 100032,
            "time": 44.656994,
            "velocity": 0.3937007874015748
          },
          {
            "duration": 0.042856999999997925,
            "durationTicks": 96,
            "midi": 50,
            "name": "D3",
            "ticks": 176832,
            "time": 78.942594,
            "velocity": 0.3937007874015748
          },
          {
            "duration": 0.042856999999997925,
            "durationTicks": 96,
            "midi": 57,
            "name": "A3",
            "ticks": 178368,
            "time": 79.628306,
            "velocity": 0.3937007874015748
          },
          {
            "duration": 0.042856999999997925,
            "durationTicks": 96,
            "midi": 53,
            "name": "F3",
            "ticks": 178368,
            "time": 79.628306,
            "velocity": 0.3937007874015748
          },
          {
            "duration": 0.042856999999997925,
            "durationTicks": 96,
            "midi": 50,
            "name": "D3",
            "ticks": 180288,
            "time": 80.485446,
            "velocity": 0.3937007874015748
          },
          {
            "duration": 0.042856999999997925,
            "durationTicks": 96,
            "midi": 50,
            "name": "D3",
            "ticks": 180672,
            "time": 80.656874,
            "velocity": 0.3937007874015748
          },
          {
            "duration": 0.042856999999997925,
            "durationTicks": 96,
            "midi": 57,
            "name": "A3",
            "ticks": 181440,
            "time": 80.99973,
            "velocity": 0.3937007874015748
          },
          {
            "duration": 0.042856999999997925,
            "durationTicks": 96,
            "midi": 53,
            "name": "F3",
            "ticks": 181440,
            "time": 80.99973,
            "velocity": 0.3937007874015748
          },
          {
            "duration": 0.042856999999997925,
            "durationTicks": 96,
            "midi": 48,
            "name": "C3",
            "ticks": 182976,
            "time": 81.685442,
            "velocity": 0.3937007874015748
          },
          {
            "duration": 0.042856999999997925,
            "durationTicks": 96,
            "midi": 52,
            "name": "E3",
            "ticks": 184512,
            "time": 82.371154,
            "velocity": 0.3937007874015748
          },
          {
            "duration": 0.042856999999997925,
            "durationTicks": 96,
            "midi": 57,
            "name": "A3",
            "ticks": 184512,
            "time": 82.371154,
            "velocity": 0.3937007874015748
          },
          {
            "duration": 0.042856999999997925,
            "durationTicks": 96,
            "midi": 48,
            "name": "C3",
            "ticks": 186432,
            "time": 83.228294,
            "velocity": 0.3937007874015748
          },
          {
            "duration": 0.042856999999997925,
            "durationTicks": 96,
            "midi": 48,
            "name": "C3",
            "ticks": 186816,
            "time": 83.399722,
            "velocity": 0.3937007874015748
          },
          {
            "duration": 0.042856999999997925,
            "durationTicks": 96,
            "midi": 52,
            "name": "E3",
            "ticks": 187584,
            "time": 83.742578,
            "velocity": 0.3937007874015748
          },
          {
            "duration": 0.042856999999997925,
            "durationTicks": 96,
            "midi": 57,
            "name": "A3",
            "ticks": 187584,
            "time": 83.742578,
            "velocity": 0.3937007874015748
          },
          {
            "duration": 0.042856999999997925,
            "durationTicks": 96,
            "midi": 50,
            "name": "D3",
            "ticks": 189120,
            "time": 84.42829,
            "velocity": 0.3937007874015748
          },
          {
            "duration": 0.042856999999997925,
            "durationTicks": 96,
            "midi": 53,
            "name": "F3",
            "ticks": 190656,
            "time": 85.114002,
            "velocity": 0.3937007874015748
          },
          {
            "duration": 0.042856999999997925,
            "durationTicks": 96,
            "midi": 57,
            "name": "A3",
            "ticks": 190656,
            "time": 85.114002,
            "velocity": 0.3937007874015748
          },
          {
            "duration": 0.042856999999997925,
            "durationTicks": 96,
            "midi": 50,
            "name": "D3",
            "ticks": 192576,
            "time": 85.971142,
            "velocity": 0.3937007874015748
          },
          {
            "duration": 0.042857000000012135,
            "durationTicks": 96,
            "midi": 50,
            "name": "D3",
            "ticks": 192960,
            "time": 86.14256999999999,
            "velocity": 0.3937007874015748
          },
          {
            "duration": 0.042856999999997925,
            "durationTicks": 96,
            "midi": 53,
            "name": "F3",
            "ticks": 193728,
            "time": 86.485426,
            "velocity": 0.3937007874015748
          },
          {
            "duration": 0.042856999999997925,
            "durationTicks": 96,
            "midi": 57,
            "name": "A3",
            "ticks": 193728,
            "time": 86.485426,
            "velocity": 0.3937007874015748
          },
          {
            "duration": 0.042856999999997925,
            "durationTicks": 96,
            "midi": 48,
            "name": "C3",
            "ticks": 195264,
            "time": 87.171138,
            "velocity": 0.3937007874015748
          },
          {
            "duration": 0.042856999999997925,
            "durationTicks": 96,
            "midi": 57,
            "name": "A3",
            "ticks": 196800,
            "time": 87.85685,
            "velocity": 0.3937007874015748
          },
          {
            "duration": 0.042856999999997925,
            "durationTicks": 96,
            "midi": 52,
            "name": "E3",
            "ticks": 196800,
            "time": 87.85685,
            "velocity": 0.3937007874015748
          },
          {
            "duration": 0.042856999999997925,
            "durationTicks": 96,
            "midi": 48,
            "name": "C3",
            "ticks": 198720,
            "time": 88.71399,
            "velocity": 0.3937007874015748
          },
          {
            "duration": 0.042856999999997925,
            "durationTicks": 96,
            "midi": 48,
            "name": "C3",
            "ticks": 199200,
            "time": 88.928275,
            "velocity": 0.3937007874015748
          },
          {
            "duration": 0.042856999999997925,
            "durationTicks": 96,
            "midi": 52,
            "name": "E3",
            "ticks": 199872,
            "time": 89.228274,
            "velocity": 0.3937007874015748
          },
          {
            "duration": 0.042856999999997925,
            "durationTicks": 96,
            "midi": 57,
            "name": "A3",
            "ticks": 199872,
            "time": 89.228274,
            "velocity": 0.3937007874015748
          },
          {
            "duration": 0.042856999999997925,
            "durationTicks": 96,
            "midi": 50,
            "name": "D3",
            "ticks": 201408,
            "time": 89.913986,
            "velocity": 0.3937007874015748
          },
          {
            "duration": 0.042856999999997925,
            "durationTicks": 96,
            "midi": 38,
            "name": "D2",
            "ticks": 201408,
            "time": 89.913986,
            "velocity": 0.3937007874015748
          },
          {
            "duration": 0.042856999999997925,
            "durationTicks": 96,
            "midi": 57,
            "name": "A3",
            "ticks": 202944,
            "time": 90.599698,
            "velocity": 0.3937007874015748
          },
          {
            "duration": 0.042856999999997925,
            "durationTicks": 96,
            "midi": 50,
            "name": "D3",
            "ticks": 202944,
            "time": 90.599698,
            "velocity": 0.3937007874015748
          },
          {
            "duration": 0.042856999999997925,
            "durationTicks": 96,
            "midi": 53,
            "name": "F3",
            "ticks": 202944,
            "time": 90.599698,
            "velocity": 0.3937007874015748
          },
          {
            "duration": 0.042856999999997925,
            "durationTicks": 96,
            "midi": 50,
            "name": "D3",
            "ticks": 204864,
            "time": 91.456838,
            "velocity": 0.3937007874015748
          },
          {
            "duration": 0.042856999999997925,
            "durationTicks": 96,
            "midi": 38,
            "name": "D2",
            "ticks": 204864,
            "time": 91.456838,
            "velocity": 0.3937007874015748
          },
          {
            "duration": 0.042856999999997925,
            "durationTicks": 96,
            "midi": 38,
            "name": "D2",
            "ticks": 205248,
            "time": 91.628266,
            "velocity": 0.3937007874015748
          },
          {
            "duration": 0.042856999999997925,
            "durationTicks": 96,
            "midi": 50,
            "name": "D3",
            "ticks": 205248,
            "time": 91.628266,
            "velocity": 0.3937007874015748
          },
          {
            "duration": 0.042856999999997925,
            "durationTicks": 96,
            "midi": 53,
            "name": "F3",
            "ticks": 206016,
            "time": 91.971122,
            "velocity": 0.3937007874015748
          },
          {
            "duration": 0.042856999999997925,
            "durationTicks": 96,
            "midi": 57,
            "name": "A3",
            "ticks": 206016,
            "time": 91.971122,
            "velocity": 0.3937007874015748
          },
          {
            "duration": 0.042856999999997925,
            "durationTicks": 96,
            "midi": 50,
            "name": "D3",
            "ticks": 206016,
            "time": 91.971122,
            "velocity": 0.3937007874015748
          },
          {
            "duration": 0.042856999999997925,
            "durationTicks": 96,
            "midi": 48,
            "name": "C3",
            "ticks": 207552,
            "time": 92.656834,
            "velocity": 0.3937007874015748
          },
          {
            "duration": 0.042856999999997925,
            "durationTicks": 96,
            "midi": 36,
            "name": "C2",
            "ticks": 207552,
            "time": 92.656834,
            "velocity": 0.3937007874015748
          },
          {
            "duration": 0.042856999999997925,
            "durationTicks": 96,
            "midi": 48,
            "name": "C3",
            "ticks": 209088,
            "time": 93.342546,
            "velocity": 0.3937007874015748
          },
          {
            "duration": 0.042856999999997925,
            "durationTicks": 96,
            "midi": 52,
            "name": "E3",
            "ticks": 209088,
            "time": 93.342546,
            "velocity": 0.3937007874015748
          },
          {
            "duration": 0.042856999999997925,
            "durationTicks": 96,
            "midi": 57,
            "name": "A3",
            "ticks": 209088,
            "time": 93.342546,
            "velocity": 0.3937007874015748
          },
          {
            "duration": 0.042856999999997925,
            "durationTicks": 96,
            "midi": 36,
            "name": "C2",
            "ticks": 211008,
            "time": 94.199686,
            "velocity": 0.3937007874015748
          },
          {
            "duration": 0.042856999999997925,
            "durationTicks": 96,
            "midi": 48,
            "name": "C3",
            "ticks": 211008,
            "time": 94.199686,
            "velocity": 0.3937007874015748
          },
          {
            "duration": 0.042857000000012135,
            "durationTicks": 96,
            "midi": 36,
            "name": "C2",
            "ticks": 211392,
            "time": 94.37111399999999,
            "velocity": 0.3937007874015748
          },
          {
            "duration": 0.042857000000012135,
            "durationTicks": 96,
            "midi": 48,
            "name": "C3",
            "ticks": 211392,
            "time": 94.37111399999999,
            "velocity": 0.3937007874015748
          },
          {
            "duration": 0.042856999999997925,
            "durationTicks": 96,
            "midi": 48,
            "name": "C3",
            "ticks": 212160,
            "time": 94.71397,
            "velocity": 0.3937007874015748
          },
          {
            "duration": 0.042856999999997925,
            "durationTicks": 96,
            "midi": 52,
            "name": "E3",
            "ticks": 212160,
            "time": 94.71397,
            "velocity": 0.3937007874015748
          },
          {
            "duration": 0.042856999999997925,
            "durationTicks": 96,
            "midi": 57,
            "name": "A3",
            "ticks": 212160,
            "time": 94.71397,
            "velocity": 0.3937007874015748
          },
          {
            "duration": 0.042856999999997925,
            "durationTicks": 96,
            "midi": 38,
            "name": "D2",
            "ticks": 213696,
            "time": 95.399682,
            "velocity": 0.3937007874015748
          },
          {
            "duration": 0.042856999999997925,
            "durationTicks": 96,
            "midi": 50,
            "name": "D3",
            "ticks": 213696,
            "time": 95.399682,
            "velocity": 0.3937007874015748
          },
          {
            "duration": 0.042856999999997925,
            "durationTicks": 96,
            "midi": 50,
            "name": "D3",
            "ticks": 215232,
            "time": 96.085394,
            "velocity": 0.3937007874015748
          },
          {
            "duration": 0.042856999999997925,
            "durationTicks": 96,
            "midi": 57,
            "name": "A3",
            "ticks": 215232,
            "time": 96.085394,
            "velocity": 0.3937007874015748
          },
          {
            "duration": 0.042856999999997925,
            "durationTicks": 96,
            "midi": 53,
            "name": "F3",
            "ticks": 215232,
            "time": 96.085394,
            "velocity": 0.3937007874015748
          },
          {
            "duration": 0.042856999999997925,
            "durationTicks": 96,
            "midi": 50,
            "name": "D3",
            "ticks": 217152,
            "time": 96.942534,
            "velocity": 0.3937007874015748
          },
          {
            "duration": 0.042856999999997925,
            "durationTicks": 96,
            "midi": 38,
            "name": "D2",
            "ticks": 217152,
            "time": 96.942534,
            "velocity": 0.3937007874015748
          },
          {
            "duration": 0.042856999999997925,
            "durationTicks": 96,
            "midi": 38,
            "name": "D2",
            "ticks": 217536,
            "time": 97.113962,
            "velocity": 0.3937007874015748
          },
          {
            "duration": 0.042856999999997925,
            "durationTicks": 96,
            "midi": 50,
            "name": "D3",
            "ticks": 217536,
            "time": 97.113962,
            "velocity": 0.3937007874015748
          },
          {
            "duration": 0.042856999999997925,
            "durationTicks": 96,
            "midi": 53,
            "name": "F3",
            "ticks": 218304,
            "time": 97.456818,
            "velocity": 0.3937007874015748
          },
          {
            "duration": 0.042856999999997925,
            "durationTicks": 96,
            "midi": 50,
            "name": "D3",
            "ticks": 218304,
            "time": 97.456818,
            "velocity": 0.3937007874015748
          },
          {
            "duration": 0.042856999999997925,
            "durationTicks": 96,
            "midi": 57,
            "name": "A3",
            "ticks": 218304,
            "time": 97.456818,
            "velocity": 0.3937007874015748
          },
          {
            "duration": 0.042856999999997925,
            "durationTicks": 96,
            "midi": 52,
            "name": "E3",
            "ticks": 219840,
            "time": 98.14253,
            "velocity": 0.3937007874015748
          },
          {
            "duration": 0.042856999999997925,
            "durationTicks": 96,
            "midi": 40,
            "name": "E2",
            "ticks": 219840,
            "time": 98.14253,
            "velocity": 0.3937007874015748
          },
          {
            "duration": 0.042856999999997925,
            "durationTicks": 96,
            "midi": 59,
            "name": "B3",
            "ticks": 221376,
            "time": 98.828242,
            "velocity": 0.3937007874015748
          },
          {
            "duration": 0.042856999999997925,
            "durationTicks": 96,
            "midi": 56,
            "name": "G#3",
            "ticks": 221376,
            "time": 98.828242,
            "velocity": 0.3937007874015748
          },
          {
            "duration": 0.042856999999997925,
            "durationTicks": 96,
            "midi": 52,
            "name": "E3",
            "ticks": 221376,
            "time": 98.828242,
            "velocity": 0.3937007874015748
          },
          {
            "duration": 0.042856999999997925,
            "durationTicks": 96,
            "midi": 52,
            "name": "E3",
            "ticks": 222912,
            "time": 99.513954,
            "velocity": 0.3937007874015748
          },
          {
            "duration": 0.042856999999997925,
            "durationTicks": 96,
            "midi": 40,
            "name": "E2",
            "ticks": 222912,
            "time": 99.513954,
            "velocity": 0.3937007874015748
          },
          {
            "duration": 0.042856999999997925,
            "durationTicks": 96,
            "midi": 38,
            "name": "D2",
            "ticks": 223680,
            "time": 99.85681,
            "velocity": 0.3937007874015748
          },
          {
            "duration": 0.042856999999997925,
            "durationTicks": 96,
            "midi": 50,
            "name": "D3",
            "ticks": 223680,
            "time": 99.85681,
            "velocity": 0.3937007874015748
          },
          {
            "duration": 0.042856999999997925,
            "durationTicks": 96,
            "midi": 48,
            "name": "C3",
            "ticks": 224448,
            "time": 100.199666,
            "velocity": 0.3937007874015748
          },
          {
            "duration": 0.042856999999997925,
            "durationTicks": 96,
            "midi": 36,
            "name": "C2",
            "ticks": 224448,
            "time": 100.199666,
            "velocity": 0.3937007874015748
          },
          {
            "duration": 0.042856999999997925,
            "durationTicks": 96,
            "midi": 35,
            "name": "B1",
            "ticks": 225216,
            "time": 100.542522,
            "velocity": 0.3937007874015748
          },
          {
            "duration": 0.042856999999997925,
            "durationTicks": 96,
            "midi": 47,
            "name": "B2",
            "ticks": 225216,
            "time": 100.542522,
            "velocity": 0.3937007874015748
          },
          {
            "duration": 0.042856999999997925,
            "durationTicks": 96,
            "midi": 33,
            "name": "A1",
            "ticks": 225984,
            "time": 100.885378,
            "velocity": 0.3937007874015748
          },
          {
            "duration": 0.042856999999997925,
            "durationTicks": 96,
            "midi": 45,
            "name": "A2",
            "ticks": 225984,
            "time": 100.885378,
            "velocity": 0.3937007874015748
          },
          {
            "duration": 0.042856999999997925,
            "durationTicks": 96,
            "midi": 64,
            "name": "E4",
            "ticks": 226752,
            "time": 101.228234,
            "velocity": 0.3937007874015748
          },
          {
            "duration": 0.042856999999997925,
            "durationTicks": 96,
            "midi": 60,
            "name": "C4",
            "ticks": 226752,
            "time": 101.228234,
            "velocity": 0.3937007874015748
          },
          {
            "duration": 0.042856999999997925,
            "durationTicks": 96,
            "midi": 41,
            "name": "F2",
            "ticks": 227520,
            "time": 101.57109,
            "velocity": 0.3937007874015748
          },
          {
            "duration": 0.042856999999997925,
            "durationTicks": 96,
            "midi": 53,
            "name": "F3",
            "ticks": 227520,
            "time": 101.57109,
            "velocity": 0.3937007874015748
          },
          {
            "duration": 0.042856999999997925,
            "durationTicks": 96,
            "midi": 65,
            "name": "F4",
            "ticks": 227520,
            "time": 101.57109,
            "velocity": 0.3937007874015748
          },
          {
            "duration": 0.042856999999997925,
            "durationTicks": 96,
            "midi": 62,
            "name": "D4",
            "ticks": 227520,
            "time": 101.57109,
            "velocity": 0.3937007874015748
          },
          {
            "duration": 0.042856999999997925,
            "durationTicks": 96,
            "midi": 53,
            "name": "F3",
            "ticks": 228288,
            "time": 101.913946,
            "velocity": 0.3937007874015748
          },
          {
            "duration": 0.042856999999997925,
            "durationTicks": 96,
            "midi": 62,
            "name": "D4",
            "ticks": 228288,
            "time": 101.913946,
            "velocity": 0.3937007874015748
          },
          {
            "duration": 0.042856999999997925,
            "durationTicks": 96,
            "midi": 64,
            "name": "E4",
            "ticks": 229056,
            "time": 102.256802,
            "velocity": 0.3937007874015748
          },
          {
            "duration": 0.042856999999997925,
            "durationTicks": 96,
            "midi": 59,
            "name": "B3",
            "ticks": 229056,
            "time": 102.256802,
            "velocity": 0.3937007874015748
          },
          {
            "duration": 0.042856999999997925,
            "durationTicks": 96,
            "midi": 52,
            "name": "E3",
            "ticks": 229056,
            "time": 102.256802,
            "velocity": 0.3937007874015748
          },
          {
            "duration": 0.042856999999997925,
            "durationTicks": 96,
            "midi": 40,
            "name": "E2",
            "ticks": 229056,
            "time": 102.256802,
            "velocity": 0.3937007874015748
          },
          {
            "duration": 0.042856999999997925,
            "durationTicks": 96,
            "midi": 36,
            "name": "C2",
            "ticks": 232128,
            "time": 103.628226,
            "velocity": 0.3937007874015748
          },
          {
            "duration": 0.042856999999997925,
            "durationTicks": 96,
            "midi": 48,
            "name": "C3",
            "ticks": 232128,
            "time": 103.628226,
            "velocity": 0.3937007874015748
          },
          {
            "duration": 0.042856999999997925,
            "durationTicks": 96,
            "midi": 64,
            "name": "E4",
            "ticks": 232896,
            "time": 103.971082,
            "velocity": 0.3937007874015748
          },
          {
            "duration": 0.042856999999997925,
            "durationTicks": 96,
            "midi": 57,
            "name": "A3",
            "ticks": 232896,
            "time": 103.971082,
            "velocity": 0.3937007874015748
          },
          {
            "duration": 0.042857000000012135,
            "durationTicks": 96,
            "midi": 45,
            "name": "A2",
            "ticks": 233664,
            "time": 104.313938,
            "velocity": 0.3937007874015748
          },
          {
            "duration": 0.042857000000012135,
            "durationTicks": 96,
            "midi": 67,
            "name": "G4",
            "ticks": 233664,
            "time": 104.313938,
            "velocity": 0.3937007874015748
          },
          {
            "duration": 0.042857000000012135,
            "durationTicks": 96,
            "midi": 61,
            "name": "C#4",
            "ticks": 233664,
            "time": 104.313938,
            "velocity": 0.3937007874015748
          },
          {
            "duration": 0.042857000000012135,
            "durationTicks": 96,
            "midi": 33,
            "name": "A1",
            "ticks": 233664,
            "time": 104.313938,
            "velocity": 0.3937007874015748
          },
          {
            "duration": 0.042856999999997925,
            "durationTicks": 96,
            "midi": 64,
            "name": "E4",
            "ticks": 234816,
            "time": 104.828222,
            "velocity": 0.3937007874015748
          },
          {
            "duration": 0.042856999999997925,
            "durationTicks": 96,
            "midi": 61,
            "name": "C#4",
            "ticks": 234816,
            "time": 104.828222,
            "velocity": 0.3937007874015748
          },
          {
            "duration": 0.042856999999997925,
            "durationTicks": 96,
            "midi": 38,
            "name": "D2",
            "ticks": 235200,
            "time": 104.99965,
            "velocity": 0.3937007874015748
          },
          {
            "duration": 0.042856999999997925,
            "durationTicks": 96,
            "midi": 50,
            "name": "D3",
            "ticks": 235200,
            "time": 104.99965,
            "velocity": 0.3937007874015748
          },
          {
            "duration": 0.042857000000012135,
            "durationTicks": 96,
            "midi": 47,
            "name": "B2",
            "ticks": 238272,
            "time": 106.371074,
            "velocity": 0.3937007874015748
          },
          {
            "duration": 0.042857000000012135,
            "durationTicks": 96,
            "midi": 35,
            "name": "B1",
            "ticks": 238272,
            "time": 106.371074,
            "velocity": 0.3937007874015748
          },
          {
            "duration": 0.042856999999997925,
            "durationTicks": 96,
            "midi": 59,
            "name": "B3",
            "ticks": 239040,
            "time": 106.71393,
            "velocity": 0.3937007874015748
          },
          {
            "duration": 0.042856999999997925,
            "durationTicks": 96,
            "midi": 65,
            "name": "F4",
            "ticks": 239040,
            "time": 106.71393,
            "velocity": 0.3937007874015748
          },
          {
            "duration": 0.042856999999997925,
            "durationTicks": 96,
            "midi": 40,
            "name": "E2",
            "ticks": 239808,
            "time": 107.056786,
            "velocity": 0.3937007874015748
          },
          {
            "duration": 0.042856999999997925,
            "durationTicks": 96,
            "midi": 52,
            "name": "E3",
            "ticks": 239808,
            "time": 107.056786,
            "velocity": 0.3937007874015748
          },
          {
            "duration": 0.042856999999997925,
            "durationTicks": 96,
            "midi": 64,
            "name": "E4",
            "ticks": 239808,
            "time": 107.056786,
            "velocity": 0.3937007874015748
          },
          {
            "duration": 0.042856999999997925,
            "durationTicks": 96,
            "midi": 56,
            "name": "G#3",
            "ticks": 239808,
            "time": 107.056786,
            "velocity": 0.3937007874015748
          },
          {
            "duration": 0.042856999999997925,
            "durationTicks": 96,
            "midi": 62,
            "name": "D4",
            "ticks": 240576,
            "time": 107.399642,
            "velocity": 0.3937007874015748
          },
          {
            "duration": 0.042856999999997925,
            "durationTicks": 96,
            "midi": 59,
            "name": "B3",
            "ticks": 240576,
            "time": 107.399642,
            "velocity": 0.3937007874015748
          },
          {
            "duration": 0.042856999999997925,
            "durationTicks": 96,
            "midi": 33,
            "name": "A1",
            "ticks": 241344,
            "time": 107.742498,
            "velocity": 0.3937007874015748
          },
          {
            "duration": 0.042856999999997925,
            "durationTicks": 96,
            "midi": 45,
            "name": "A2",
            "ticks": 241344,
            "time": 107.742498,
            "velocity": 0.3937007874015748
          },
          {
            "duration": 0.042856999999997925,
            "durationTicks": 96,
            "midi": 60,
            "name": "C4",
            "ticks": 241344,
            "time": 107.742498,
            "velocity": 0.3937007874015748
          },
          {
            "duration": 0.042856999999997925,
            "durationTicks": 96,
            "midi": 57,
            "name": "A3",
            "ticks": 241344,
            "time": 107.742498,
            "velocity": 0.3937007874015748
          },
          {
            "duration": 0.042856999999997925,
            "durationTicks": 96,
            "midi": 60,
            "name": "C4",
            "ticks": 242112,
            "time": 108.085354,
            "velocity": 0.3937007874015748
          },
          {
            "duration": 0.042856999999997925,
            "durationTicks": 96,
            "midi": 64,
            "name": "E4",
            "ticks": 242112,
            "time": 108.085354,
            "velocity": 0.3937007874015748
          },
          {
            "duration": 0.042857000000012135,
            "durationTicks": 96,
            "midi": 69,
            "name": "A4",
            "ticks": 242880,
            "time": 108.42820999999999,
            "velocity": 0.3937007874015748
          },
          {
            "duration": 0.042857000000012135,
            "durationTicks": 96,
            "midi": 42,
            "name": "F#2",
            "ticks": 242880,
            "time": 108.42820999999999,
            "velocity": 0.3937007874015748
          },
          {
            "duration": 0.042857000000012135,
            "durationTicks": 96,
            "midi": 54,
            "name": "F#3",
            "ticks": 242880,
            "time": 108.42820999999999,
            "velocity": 0.3937007874015748
          },
          {
            "duration": 0.042857000000012135,
            "durationTicks": 96,
            "midi": 63,
            "name": "D#4",
            "ticks": 242880,
            "time": 108.42820999999999,
            "velocity": 0.3937007874015748
          },
          {
            "duration": 0.042856999999997925,
            "durationTicks": 96,
            "midi": 66,
            "name": "F#4",
            "ticks": 243648,
            "time": 108.771066,
            "velocity": 0.3937007874015748
          },
          {
            "duration": 0.042856999999997925,
            "durationTicks": 96,
            "midi": 63,
            "name": "D#4",
            "ticks": 243648,
            "time": 108.771066,
            "velocity": 0.3937007874015748
          },
          {
            "duration": 0.042856999999997925,
            "durationTicks": 96,
            "midi": 51,
            "name": "D#3",
            "ticks": 244416,
            "time": 109.113922,
            "velocity": 0.3937007874015748
          },
          {
            "duration": 0.042856999999997925,
            "durationTicks": 96,
            "midi": 39,
            "name": "D#2",
            "ticks": 244416,
            "time": 109.113922,
            "velocity": 0.3937007874015748
          },
          {
            "duration": 0.042856999999997925,
            "durationTicks": 96,
            "midi": 69,
            "name": "A4",
            "ticks": 244416,
            "time": 109.113922,
            "velocity": 0.3937007874015748
          },
          {
            "duration": 0.042856999999997925,
            "durationTicks": 96,
            "midi": 63,
            "name": "D#4",
            "ticks": 244416,
            "time": 109.113922,
            "velocity": 0.3937007874015748
          },
          {
            "duration": 0.042856999999997925,
            "durationTicks": 96,
            "midi": 68,
            "name": "G#4",
            "ticks": 245952,
            "time": 109.799634,
            "velocity": 0.3937007874015748
          },
          {
            "duration": 0.042856999999997925,
            "durationTicks": 96,
            "midi": 52,
            "name": "E3",
            "ticks": 245952,
            "time": 109.799634,
            "velocity": 0.3937007874015748
          },
          {
            "duration": 0.042856999999997925,
            "durationTicks": 96,
            "midi": 40,
            "name": "E2",
            "ticks": 245952,
            "time": 109.799634,
            "velocity": 0.3937007874015748
          },
          {
            "duration": 0.042856999999997925,
            "durationTicks": 96,
            "midi": 64,
            "name": "E4",
            "ticks": 245952,
            "time": 109.799634,
            "velocity": 0.3937007874015748
          },
          {
            "duration": 0.042856999999997925,
            "durationTicks": 96,
            "midi": 69,
            "name": "A4",
            "ticks": 247104,
            "time": 110.313918,
            "velocity": 0.3937007874015748
          },
          {
            "duration": 0.042857000000012135,
            "durationTicks": 96,
            "midi": 69,
            "name": "A4",
            "ticks": 247488,
            "time": 110.48534599999999,
            "velocity": 0.3937007874015748
          },
          {
            "duration": 0.042857000000012135,
            "durationTicks": 96,
            "midi": 57,
            "name": "A3",
            "ticks": 247488,
            "time": 110.48534599999999,
            "velocity": 0.3937007874015748
          },
          {
            "duration": 0.042857000000012135,
            "durationTicks": 96,
            "midi": 45,
            "name": "A2",
            "ticks": 247488,
            "time": 110.48534599999999,
            "velocity": 0.3937007874015748
          }
        ],
        "endOfTrackTicks": 247584
      },
      {
        "channel": 7,
        "controlChanges": {},
        "pitchBends": [],
        "instrument": {
          "family": "brass",
          "number": 57,
          "name": "trombone"
        },
        "name": "Trombone",
        "notes": [
          {
            "duration": 0.042856999999997925,
            "durationTicks": 96,
            "midi": 52,
            "name": "E3",
            "ticks": 126912,
            "time": 56.656954,
            "velocity": 0.48031496062992124
          },
          {
            "duration": 0.04285700000000503,
            "durationTicks": 96,
            "midi": 45,
            "name": "A2",
            "ticks": 127680,
            "time": 56.99981,
            "velocity": 0.48031496062992124
          },
          {
            "duration": 0.04285700000000503,
            "durationTicks": 96,
            "midi": 60,
            "name": "C4",
            "ticks": 127680,
            "time": 56.99981,
            "velocity": 0.48031496062992124
          },
          {
            "duration": 0.04285700000000503,
            "durationTicks": 96,
            "midi": 57,
            "name": "A3",
            "ticks": 127680,
            "time": 56.99981,
            "velocity": 0.48031496062992124
          },
          {
            "duration": 0.04285700000000503,
            "durationTicks": 96,
            "midi": 48,
            "name": "C3",
            "ticks": 127680,
            "time": 56.99981,
            "velocity": 0.48031496062992124
          },
          {
            "duration": 0.042856999999997925,
            "durationTicks": 96,
            "midi": 60,
            "name": "C4",
            "ticks": 127776,
            "time": 57.042667,
            "velocity": 0.48031496062992124
          },
          {
            "duration": 0.042856999999997925,
            "durationTicks": 96,
            "midi": 48,
            "name": "C3",
            "ticks": 127776,
            "time": 57.042667,
            "velocity": 0.48031496062992124
          },
          {
            "duration": 0.042856999999997925,
            "durationTicks": 96,
            "midi": 60,
            "name": "C4",
            "ticks": 127872,
            "time": 57.085524,
            "velocity": 0.48031496062992124
          },
          {
            "duration": 0.042856999999997925,
            "durationTicks": 96,
            "midi": 57,
            "name": "A3",
            "ticks": 128448,
            "time": 57.342666,
            "velocity": 0.48031496062992124
          },
          {
            "duration": 0.042856999999997925,
            "durationTicks": 96,
            "midi": 57,
            "name": "A3",
            "ticks": 128832,
            "time": 57.514094,
            "velocity": 0.48031496062992124
          },
          {
            "duration": 0.042856999999997925,
            "durationTicks": 96,
            "midi": 45,
            "name": "A2",
            "ticks": 128832,
            "time": 57.514094,
            "velocity": 0.48031496062992124
          },
          {
            "duration": 0.042856999999997925,
            "durationTicks": 96,
            "midi": 45,
            "name": "A2",
            "ticks": 128928,
            "time": 57.556951,
            "velocity": 0.48031496062992124
          },
          {
            "duration": 0.042856999999997925,
            "durationTicks": 96,
            "midi": 57,
            "name": "A3",
            "ticks": 128928,
            "time": 57.556951,
            "velocity": 0.48031496062992124
          },
          {
            "duration": 0.04285700000000503,
            "durationTicks": 96,
            "midi": 57,
            "name": "A3",
            "ticks": 129024,
            "time": 57.599807999999996,
            "velocity": 0.48031496062992124
          },
          {
            "duration": 0.042856999999997925,
            "durationTicks": 96,
            "midi": 56,
            "name": "G#3",
            "ticks": 129216,
            "time": 57.685522,
            "velocity": 0.48031496062992124
          },
          {
            "duration": 0.042856999999997925,
            "durationTicks": 96,
            "midi": 44,
            "name": "G#2",
            "ticks": 129216,
            "time": 57.685522,
            "velocity": 0.48031496062992124
          },
          {
            "duration": 0.04285700000000503,
            "durationTicks": 96,
            "midi": 56,
            "name": "G#3",
            "ticks": 129312,
            "time": 57.728379,
            "velocity": 0.48031496062992124
          },
          {
            "duration": 0.04285700000000503,
            "durationTicks": 96,
            "midi": 44,
            "name": "G#2",
            "ticks": 129312,
            "time": 57.728379,
            "velocity": 0.48031496062992124
          },
          {
            "duration": 0.042856999999997925,
            "durationTicks": 96,
            "midi": 56,
            "name": "G#3",
            "ticks": 129408,
            "time": 57.771236,
            "velocity": 0.48031496062992124
          },
          {
            "duration": 0.042856999999997925,
            "durationTicks": 96,
            "midi": 45,
            "name": "A2",
            "ticks": 129600,
            "time": 57.85695,
            "velocity": 0.48031496062992124
          },
          {
            "duration": 0.04285700000000503,
            "durationTicks": 96,
            "midi": 57,
            "name": "A3",
            "ticks": 129984,
            "time": 58.028378,
            "velocity": 0.48031496062992124
          },
          {
            "duration": 0.042856999999997925,
            "durationTicks": 96,
            "midi": 57,
            "name": "A3",
            "ticks": 130368,
            "time": 58.199806,
            "velocity": 0.48031496062992124
          },
          {
            "duration": 0.042856999999997925,
            "durationTicks": 96,
            "midi": 45,
            "name": "A2",
            "ticks": 130368,
            "time": 58.199806,
            "velocity": 0.48031496062992124
          },
          {
            "duration": 0.042856999999997925,
            "durationTicks": 96,
            "midi": 45,
            "name": "A2",
            "ticks": 130464,
            "time": 58.242663,
            "velocity": 0.48031496062992124
          },
          {
            "duration": 0.042856999999997925,
            "durationTicks": 96,
            "midi": 57,
            "name": "A3",
            "ticks": 130464,
            "time": 58.242663,
            "velocity": 0.48031496062992124
          },
          {
            "duration": 0.042856999999997925,
            "durationTicks": 96,
            "midi": 57,
            "name": "A3",
            "ticks": 130560,
            "time": 58.28552,
            "velocity": 0.48031496062992124
          },
          {
            "duration": 0.042856999999997925,
            "durationTicks": 96,
            "midi": 48,
            "name": "C3",
            "ticks": 130752,
            "time": 58.371234,
            "velocity": 0.48031496062992124
          },
          {
            "duration": 0.042856999999997925,
            "durationTicks": 96,
            "midi": 60,
            "name": "C4",
            "ticks": 130752,
            "time": 58.371234,
            "velocity": 0.48031496062992124
          },
          {
            "duration": 0.042856999999997925,
            "durationTicks": 96,
            "midi": 40,
            "name": "E2",
            "ticks": 130752,
            "time": 58.371234,
            "velocity": 0.48031496062992124
          },
          {
            "duration": 0.042856999999997925,
            "durationTicks": 96,
            "midi": 52,
            "name": "E3",
            "ticks": 130752,
            "time": 58.371234,
            "velocity": 0.48031496062992124
          },
          {
            "duration": 0.042856999999997925,
            "durationTicks": 96,
            "midi": 52,
            "name": "E3",
            "ticks": 130848,
            "time": 58.414091,
            "velocity": 0.48031496062992124
          },
          {
            "duration": 0.042856999999997925,
            "durationTicks": 96,
            "midi": 40,
            "name": "E2",
            "ticks": 130848,
            "time": 58.414091,
            "velocity": 0.48031496062992124
          },
          {
            "duration": 0.04285700000000503,
            "durationTicks": 96,
            "midi": 52,
            "name": "E3",
            "ticks": 130944,
            "time": 58.456948,
            "velocity": 0.48031496062992124
          },
          {
            "duration": 0.042856999999997925,
            "durationTicks": 96,
            "midi": 60,
            "name": "C4",
            "ticks": 131520,
            "time": 58.71409,
            "velocity": 0.48031496062992124
          },
          {
            "duration": 0.042856999999997925,
            "durationTicks": 96,
            "midi": 48,
            "name": "C3",
            "ticks": 132672,
            "time": 59.228374,
            "velocity": 0.48031496062992124
          },
          {
            "duration": 0.042856999999997925,
            "durationTicks": 96,
            "midi": 40,
            "name": "E2",
            "ticks": 133056,
            "time": 59.399802,
            "velocity": 0.48031496062992124
          },
          {
            "duration": 0.042856999999997925,
            "durationTicks": 96,
            "midi": 60,
            "name": "C4",
            "ticks": 133056,
            "time": 59.399802,
            "velocity": 0.48031496062992124
          },
          {
            "duration": 0.042856999999997925,
            "durationTicks": 96,
            "midi": 52,
            "name": "E3",
            "ticks": 133056,
            "time": 59.399802,
            "velocity": 0.48031496062992124
          },
          {
            "duration": 0.042856999999997925,
            "durationTicks": 96,
            "midi": 40,
            "name": "E2",
            "ticks": 133152,
            "time": 59.442659,
            "velocity": 0.48031496062992124
          },
          {
            "duration": 0.042856999999997925,
            "durationTicks": 96,
            "midi": 52,
            "name": "E3",
            "ticks": 133152,
            "time": 59.442659,
            "velocity": 0.48031496062992124
          },
          {
            "duration": 0.04285700000000503,
            "durationTicks": 96,
            "midi": 52,
            "name": "E3",
            "ticks": 133248,
            "time": 59.485516,
            "velocity": 0.48031496062992124
          },
          {
            "duration": 0.042856999999997925,
            "durationTicks": 96,
            "midi": 59,
            "name": "B3",
            "ticks": 133824,
            "time": 59.742658,
            "velocity": 0.48031496062992124
          },
          {
            "duration": 0.042856999999997925,
            "durationTicks": 96,
            "midi": 39,
            "name": "D#2",
            "ticks": 133824,
            "time": 59.742658,
            "velocity": 0.48031496062992124
          },
          {
            "duration": 0.042856999999997925,
            "durationTicks": 96,
            "midi": 51,
            "name": "D#3",
            "ticks": 133824,
            "time": 59.742658,
            "velocity": 0.48031496062992124
          },
          {
            "duration": 0.042856999999997925,
            "durationTicks": 96,
            "midi": 47,
            "name": "B2",
            "ticks": 133824,
            "time": 59.742658,
            "velocity": 0.48031496062992124
          },
          {
            "duration": 0.04285700000000503,
            "durationTicks": 96,
            "midi": 51,
            "name": "D#3",
            "ticks": 133920,
            "time": 59.785515,
            "velocity": 0.48031496062992124
          },
          {
            "duration": 0.04285700000000503,
            "durationTicks": 96,
            "midi": 39,
            "name": "D#2",
            "ticks": 133920,
            "time": 59.785515,
            "velocity": 0.48031496062992124
          },
          {
            "duration": 0.042856999999997925,
            "durationTicks": 96,
            "midi": 51,
            "name": "D#3",
            "ticks": 134016,
            "time": 59.828372,
            "velocity": 0.48031496062992124
          },
          {
            "duration": 0.04285700000000503,
            "durationTicks": 96,
            "midi": 59,
            "name": "B3",
            "ticks": 134592,
            "time": 60.085513999999996,
            "velocity": 0.48031496062992124
          },
          {
            "duration": 0.042856999999997925,
            "durationTicks": 96,
            "midi": 40,
            "name": "E2",
            "ticks": 134976,
            "time": 60.256942,
            "velocity": 0.48031496062992124
          },
          {
            "duration": 0.042856999999997925,
            "durationTicks": 96,
            "midi": 52,
            "name": "E3",
            "ticks": 134976,
            "time": 60.256942,
            "velocity": 0.48031496062992124
          },
          {
            "duration": 0.042856999999997925,
            "durationTicks": 96,
            "midi": 40,
            "name": "E2",
            "ticks": 135072,
            "time": 60.299799,
            "velocity": 0.48031496062992124
          },
          {
            "duration": 0.042856999999997925,
            "durationTicks": 96,
            "midi": 52,
            "name": "E3",
            "ticks": 135072,
            "time": 60.299799,
            "velocity": 0.48031496062992124
          },
          {
            "duration": 0.042856999999997925,
            "durationTicks": 96,
            "midi": 52,
            "name": "E3",
            "ticks": 135168,
            "time": 60.342656,
            "velocity": 0.48031496062992124
          },
          {
            "duration": 0.042856999999997925,
            "durationTicks": 96,
            "midi": 48,
            "name": "C3",
            "ticks": 135360,
            "time": 60.42837,
            "velocity": 0.48031496062992124
          },
          {
            "duration": 0.042856999999997925,
            "durationTicks": 96,
            "midi": 60,
            "name": "C4",
            "ticks": 135360,
            "time": 60.42837,
            "velocity": 0.48031496062992124
          },
          {
            "duration": 0.042856999999997925,
            "durationTicks": 96,
            "midi": 48,
            "name": "C3",
            "ticks": 135456,
            "time": 60.471227,
            "velocity": 0.48031496062992124
          },
          {
            "duration": 0.042856999999997925,
            "durationTicks": 96,
            "midi": 60,
            "name": "C4",
            "ticks": 135456,
            "time": 60.471227,
            "velocity": 0.48031496062992124
          },
          {
            "duration": 0.04285700000000503,
            "durationTicks": 96,
            "midi": 60,
            "name": "C4",
            "ticks": 135552,
            "time": 60.514084,
            "velocity": 0.48031496062992124
          },
          {
            "duration": 0.042856999999997925,
            "durationTicks": 96,
            "midi": 47,
            "name": "B2",
            "ticks": 135744,
            "time": 60.599798,
            "velocity": 0.48031496062992124
          },
          {
            "duration": 0.042856999999997925,
            "durationTicks": 96,
            "midi": 59,
            "name": "B3",
            "ticks": 136128,
            "time": 60.771226,
            "velocity": 0.48031496062992124
          },
          {
            "duration": 0.04285700000000503,
            "durationTicks": 96,
            "midi": 47,
            "name": "B2",
            "ticks": 136512,
            "time": 60.942654,
            "velocity": 0.48031496062992124
          },
          {
            "duration": 0.04285700000000503,
            "durationTicks": 96,
            "midi": 59,
            "name": "B3",
            "ticks": 136512,
            "time": 60.942654,
            "velocity": 0.48031496062992124
          },
          {
            "duration": 0.042856999999997925,
            "durationTicks": 96,
            "midi": 47,
            "name": "B2",
            "ticks": 136608,
            "time": 60.985511,
            "velocity": 0.48031496062992124
          },
          {
            "duration": 0.042856999999997925,
            "durationTicks": 96,
            "midi": 59,
            "name": "B3",
            "ticks": 136608,
            "time": 60.985511,
            "velocity": 0.48031496062992124
          },
          {
            "duration": 0.042856999999997925,
            "durationTicks": 96,
            "midi": 59,
            "name": "B3",
            "ticks": 136704,
            "time": 61.028368,
            "velocity": 0.48031496062992124
          },
          {
            "duration": 0.04285700000000503,
            "durationTicks": 96,
            "midi": 52,
            "name": "E3",
            "ticks": 136896,
            "time": 61.114081999999996,
            "velocity": 0.48031496062992124
          },
          {
            "duration": 0.04285700000000503,
            "durationTicks": 96,
            "midi": 45,
            "name": "A2",
            "ticks": 136896,
            "time": 61.114081999999996,
            "velocity": 0.48031496062992124
          },
          {
            "duration": 0.04285700000000503,
            "durationTicks": 96,
            "midi": 57,
            "name": "A3",
            "ticks": 136896,
            "time": 61.114081999999996,
            "velocity": 0.48031496062992124
          },
          {
            "duration": 0.042856999999997925,
            "durationTicks": 96,
            "midi": 57,
            "name": "A3",
            "ticks": 136992,
            "time": 61.156939,
            "velocity": 0.48031496062992124
          },
          {
            "duration": 0.042856999999997925,
            "durationTicks": 96,
            "midi": 45,
            "name": "A2",
            "ticks": 136992,
            "time": 61.156939,
            "velocity": 0.48031496062992124
          },
          {
            "duration": 0.042856999999997925,
            "durationTicks": 96,
            "midi": 57,
            "name": "A3",
            "ticks": 137088,
            "time": 61.199796,
            "velocity": 0.48031496062992124
          },
          {
            "duration": 0.042856999999997925,
            "durationTicks": 96,
            "midi": 50,
            "name": "D3",
            "ticks": 137280,
            "time": 61.28551,
            "velocity": 0.48031496062992124
          },
          {
            "duration": 0.042856999999997925,
            "durationTicks": 96,
            "midi": 50,
            "name": "D3",
            "ticks": 137664,
            "time": 61.456938,
            "velocity": 0.48031496062992124
          },
          {
            "duration": 0.042856999999997925,
            "durationTicks": 96,
            "midi": 52,
            "name": "E3",
            "ticks": 137664,
            "time": 61.456938,
            "velocity": 0.48031496062992124
          },
          {
            "duration": 0.042856999999997925,
            "durationTicks": 96,
            "midi": 50,
            "name": "D3",
            "ticks": 137664,
            "time": 61.456938,
            "velocity": 0.48031496062992124
          },
          {
            "duration": 0.042856999999997925,
            "durationTicks": 96,
            "midi": 52,
            "name": "E3",
            "ticks": 138048,
            "time": 61.628366,
            "velocity": 0.48031496062992124
          },
          {
            "duration": 0.042856999999997925,
            "durationTicks": 96,
            "midi": 53,
            "name": "F3",
            "ticks": 138048,
            "time": 61.628366,
            "velocity": 0.48031496062992124
          },
          {
            "duration": 0.042856999999997925,
            "durationTicks": 96,
            "midi": 48,
            "name": "C3",
            "ticks": 138432,
            "time": 61.799794,
            "velocity": 0.48031496062992124
          },
          {
            "duration": 0.042856999999997925,
            "durationTicks": 96,
            "midi": 53,
            "name": "F3",
            "ticks": 138432,
            "time": 61.799794,
            "velocity": 0.48031496062992124
          },
          {
            "duration": 0.042856999999997925,
            "durationTicks": 96,
            "midi": 44,
            "name": "G#2",
            "ticks": 138432,
            "time": 61.799794,
            "velocity": 0.48031496062992124
          },
          {
            "duration": 0.042856999999997925,
            "durationTicks": 96,
            "midi": 56,
            "name": "G#3",
            "ticks": 138432,
            "time": 61.799794,
            "velocity": 0.48031496062992124
          },
          {
            "duration": 0.042856999999997925,
            "durationTicks": 96,
            "midi": 56,
            "name": "G#3",
            "ticks": 138432,
            "time": 61.799794,
            "velocity": 0.48031496062992124
          },
          {
            "duration": 0.04285700000000503,
            "durationTicks": 96,
            "midi": 56,
            "name": "G#3",
            "ticks": 138528,
            "time": 61.842651,
            "velocity": 0.48031496062992124
          },
          {
            "duration": 0.04285700000000503,
            "durationTicks": 96,
            "midi": 44,
            "name": "G#2",
            "ticks": 138528,
            "time": 61.842651,
            "velocity": 0.48031496062992124
          },
          {
            "duration": 0.042856999999997925,
            "durationTicks": 96,
            "midi": 56,
            "name": "G#3",
            "ticks": 138624,
            "time": 61.885508,
            "velocity": 0.48031496062992124
          },
          {
            "duration": 0.04285700000000503,
            "durationTicks": 96,
            "midi": 56,
            "name": "G#3",
            "ticks": 138816,
            "time": 61.971222,
            "velocity": 0.48031496062992124
          },
          {
            "duration": 0.04285700000000503,
            "durationTicks": 96,
            "midi": 57,
            "name": "A3",
            "ticks": 138816,
            "time": 61.971222,
            "velocity": 0.48031496062992124
          },
          {
            "duration": 0.04285700000000503,
            "durationTicks": 96,
            "midi": 47,
            "name": "B2",
            "ticks": 139200,
            "time": 62.142649999999996,
            "velocity": 0.48031496062992124
          },
          {
            "duration": 0.04285700000000503,
            "durationTicks": 96,
            "midi": 59,
            "name": "B3",
            "ticks": 139200,
            "time": 62.142649999999996,
            "velocity": 0.48031496062992124
          },
          {
            "duration": 0.04285700000000503,
            "durationTicks": 96,
            "midi": 57,
            "name": "A3",
            "ticks": 139200,
            "time": 62.142649999999996,
            "velocity": 0.48031496062992124
          },
          {
            "duration": 0.042856999999997925,
            "durationTicks": 96,
            "midi": 59,
            "name": "B3",
            "ticks": 139584,
            "time": 62.314078,
            "velocity": 0.48031496062992124
          },
          {
            "duration": 0.042856999999997925,
            "durationTicks": 96,
            "midi": 62,
            "name": "D4",
            "ticks": 139584,
            "time": 62.314078,
            "velocity": 0.48031496062992124
          },
          {
            "duration": 0.042856999999997925,
            "durationTicks": 96,
            "midi": 60,
            "name": "C4",
            "ticks": 139968,
            "time": 62.485506,
            "velocity": 0.48031496062992124
          },
          {
            "duration": 0.042856999999997925,
            "durationTicks": 96,
            "midi": 57,
            "name": "A3",
            "ticks": 139968,
            "time": 62.485506,
            "velocity": 0.48031496062992124
          },
          {
            "duration": 0.042856999999997925,
            "durationTicks": 96,
            "midi": 48,
            "name": "C3",
            "ticks": 139968,
            "time": 62.485506,
            "velocity": 0.48031496062992124
          },
          {
            "duration": 0.042856999999997925,
            "durationTicks": 96,
            "midi": 45,
            "name": "A2",
            "ticks": 139968,
            "time": 62.485506,
            "velocity": 0.48031496062992124
          },
          {
            "duration": 0.042856999999997925,
            "durationTicks": 96,
            "midi": 62,
            "name": "D4",
            "ticks": 139968,
            "time": 62.485506,
            "velocity": 0.48031496062992124
          },
          {
            "duration": 0.042856999999997925,
            "durationTicks": 96,
            "midi": 60,
            "name": "C4",
            "ticks": 140064,
            "time": 62.528363,
            "velocity": 0.48031496062992124
          },
          {
            "duration": 0.042856999999997925,
            "durationTicks": 96,
            "midi": 48,
            "name": "C3",
            "ticks": 140064,
            "time": 62.528363,
            "velocity": 0.48031496062992124
          },
          {
            "duration": 0.04285700000000503,
            "durationTicks": 96,
            "midi": 60,
            "name": "C4",
            "ticks": 140160,
            "time": 62.57122,
            "velocity": 0.48031496062992124
          },
          {
            "duration": 0.042856999999997925,
            "durationTicks": 96,
            "midi": 57,
            "name": "A3",
            "ticks": 140736,
            "time": 62.828362,
            "velocity": 0.48031496062992124
          },
          {
            "duration": 0.04285700000000503,
            "durationTicks": 96,
            "midi": 45,
            "name": "A2",
            "ticks": 141120,
            "time": 62.99979,
            "velocity": 0.48031496062992124
          },
          {
            "duration": 0.04285700000000503,
            "durationTicks": 96,
            "midi": 57,
            "name": "A3",
            "ticks": 141120,
            "time": 62.99979,
            "velocity": 0.48031496062992124
          },
          {
            "duration": 0.042856999999997925,
            "durationTicks": 96,
            "midi": 45,
            "name": "A2",
            "ticks": 141216,
            "time": 63.042647,
            "velocity": 0.48031496062992124
          },
          {
            "duration": 0.042856999999997925,
            "durationTicks": 96,
            "midi": 57,
            "name": "A3",
            "ticks": 141216,
            "time": 63.042647,
            "velocity": 0.48031496062992124
          },
          {
            "duration": 0.042856999999997925,
            "durationTicks": 96,
            "midi": 57,
            "name": "A3",
            "ticks": 141312,
            "time": 63.085504,
            "velocity": 0.48031496062992124
          },
          {
            "duration": 0.04285700000000503,
            "durationTicks": 96,
            "midi": 44,
            "name": "G#2",
            "ticks": 141504,
            "time": 63.171217999999996,
            "velocity": 0.48031496062992124
          },
          {
            "duration": 0.04285700000000503,
            "durationTicks": 96,
            "midi": 56,
            "name": "G#3",
            "ticks": 141504,
            "time": 63.171217999999996,
            "velocity": 0.48031496062992124
          },
          {
            "duration": 0.042856999999997925,
            "durationTicks": 96,
            "midi": 44,
            "name": "G#2",
            "ticks": 141600,
            "time": 63.214075,
            "velocity": 0.48031496062992124
          },
          {
            "duration": 0.042856999999997925,
            "durationTicks": 96,
            "midi": 56,
            "name": "G#3",
            "ticks": 141600,
            "time": 63.214075,
            "velocity": 0.48031496062992124
          },
          {
            "duration": 0.042856999999997925,
            "durationTicks": 96,
            "midi": 56,
            "name": "G#3",
            "ticks": 141696,
            "time": 63.256932,
            "velocity": 0.48031496062992124
          },
          {
            "duration": 0.042856999999997925,
            "durationTicks": 96,
            "midi": 45,
            "name": "A2",
            "ticks": 141888,
            "time": 63.342646,
            "velocity": 0.48031496062992124
          },
          {
            "duration": 0.042856999999997925,
            "durationTicks": 96,
            "midi": 57,
            "name": "A3",
            "ticks": 142272,
            "time": 63.514074,
            "velocity": 0.48031496062992124
          },
          {
            "duration": 0.042856999999997925,
            "durationTicks": 96,
            "midi": 57,
            "name": "A3",
            "ticks": 142656,
            "time": 63.685502,
            "velocity": 0.48031496062992124
          },
          {
            "duration": 0.042856999999997925,
            "durationTicks": 96,
            "midi": 45,
            "name": "A2",
            "ticks": 142656,
            "time": 63.685502,
            "velocity": 0.48031496062992124
          },
          {
            "duration": 0.042856999999997925,
            "durationTicks": 96,
            "midi": 45,
            "name": "A2",
            "ticks": 142752,
            "time": 63.728359,
            "velocity": 0.48031496062992124
          },
          {
            "duration": 0.042856999999997925,
            "durationTicks": 96,
            "midi": 57,
            "name": "A3",
            "ticks": 142752,
            "time": 63.728359,
            "velocity": 0.48031496062992124
          },
          {
            "duration": 0.04285700000000503,
            "durationTicks": 96,
            "midi": 57,
            "name": "A3",
            "ticks": 142848,
            "time": 63.771215999999995,
            "velocity": 0.48031496062992124
          },
          {
            "duration": 0.042856999999997925,
            "durationTicks": 96,
            "midi": 40,
            "name": "E2",
            "ticks": 143040,
            "time": 63.85693,
            "velocity": 0.48031496062992124
          },
          {
            "duration": 0.042856999999997925,
            "durationTicks": 96,
            "midi": 52,
            "name": "E3",
            "ticks": 143040,
            "time": 63.85693,
            "velocity": 0.48031496062992124
          },
          {
            "duration": 0.042856999999997925,
            "durationTicks": 96,
            "midi": 60,
            "name": "C4",
            "ticks": 143040,
            "time": 63.85693,
            "velocity": 0.48031496062992124
          },
          {
            "duration": 0.042856999999997925,
            "durationTicks": 96,
            "midi": 48,
            "name": "C3",
            "ticks": 143040,
            "time": 63.85693,
            "velocity": 0.48031496062992124
          },
          {
            "duration": 0.04285700000000503,
            "durationTicks": 96,
            "midi": 40,
            "name": "E2",
            "ticks": 143136,
            "time": 63.899786999999996,
            "velocity": 0.48031496062992124
          },
          {
            "duration": 0.04285700000000503,
            "durationTicks": 96,
            "midi": 52,
            "name": "E3",
            "ticks": 143136,
            "time": 63.899786999999996,
            "velocity": 0.48031496062992124
          },
          {
            "duration": 0.042856999999997925,
            "durationTicks": 96,
            "midi": 52,
            "name": "E3",
            "ticks": 143232,
            "time": 63.942644,
            "velocity": 0.48031496062992124
          },
          {
            "duration": 0.042856999999997925,
            "durationTicks": 96,
            "midi": 60,
            "name": "C4",
            "ticks": 143808,
            "time": 64.199786,
            "velocity": 0.48031496062992124
          },
          {
            "duration": 0.042857000000012135,
            "durationTicks": 96,
            "midi": 48,
            "name": "C3",
            "ticks": 144960,
            "time": 64.71406999999999,
            "velocity": 0.48031496062992124
          },
          {
            "duration": 0.042856999999997925,
            "durationTicks": 96,
            "midi": 64,
            "name": "E4",
            "ticks": 145344,
            "time": 64.885498,
            "velocity": 0.48031496062992124
          },
          {
            "duration": 0.042856999999997925,
            "durationTicks": 96,
            "midi": 52,
            "name": "E3",
            "ticks": 145344,
            "time": 64.885498,
            "velocity": 0.48031496062992124
          },
          {
            "duration": 0.042856999999997925,
            "durationTicks": 96,
            "midi": 60,
            "name": "C4",
            "ticks": 145344,
            "time": 64.885498,
            "velocity": 0.48031496062992124
          },
          {
            "duration": 0.042856999999997925,
            "durationTicks": 96,
            "midi": 52,
            "name": "E3",
            "ticks": 145440,
            "time": 64.928355,
            "velocity": 0.48031496062992124
          },
          {
            "duration": 0.042856999999997925,
            "durationTicks": 96,
            "midi": 64,
            "name": "E4",
            "ticks": 145440,
            "time": 64.928355,
            "velocity": 0.48031496062992124
          },
          {
            "duration": 0.042856999999997925,
            "durationTicks": 96,
            "midi": 64,
            "name": "E4",
            "ticks": 145536,
            "time": 64.971212,
            "velocity": 0.48031496062992124
          },
          {
            "duration": 0.042856999999997925,
            "durationTicks": 96,
            "midi": 41,
            "name": "F2",
            "ticks": 146112,
            "time": 65.228354,
            "velocity": 0.48031496062992124
          },
          {
            "duration": 0.042856999999997925,
            "durationTicks": 96,
            "midi": 51,
            "name": "D#3",
            "ticks": 146112,
            "time": 65.228354,
            "velocity": 0.48031496062992124
          },
          {
            "duration": 0.042856999999997925,
            "durationTicks": 96,
            "midi": 63,
            "name": "D#4",
            "ticks": 146112,
            "time": 65.228354,
            "velocity": 0.48031496062992124
          },
          {
            "duration": 0.042856999999997925,
            "durationTicks": 96,
            "midi": 53,
            "name": "F3",
            "ticks": 146112,
            "time": 65.228354,
            "velocity": 0.48031496062992124
          },
          {
            "duration": 0.042856999999997925,
            "durationTicks": 96,
            "midi": 63,
            "name": "D#4",
            "ticks": 146208,
            "time": 65.271211,
            "velocity": 0.48031496062992124
          },
          {
            "duration": 0.042856999999997925,
            "durationTicks": 96,
            "midi": 51,
            "name": "D#3",
            "ticks": 146208,
            "time": 65.271211,
            "velocity": 0.48031496062992124
          },
          {
            "duration": 0.042857000000012135,
            "durationTicks": 96,
            "midi": 63,
            "name": "D#4",
            "ticks": 146304,
            "time": 65.31406799999999,
            "velocity": 0.48031496062992124
          },
          {
            "duration": 0.042857000000012135,
            "durationTicks": 96,
            "midi": 53,
            "name": "F3",
            "ticks": 146880,
            "time": 65.57121,
            "velocity": 0.48031496062992124
          },
          {
            "duration": 0.042856999999997925,
            "durationTicks": 96,
            "midi": 60,
            "name": "C4",
            "ticks": 147264,
            "time": 65.742638,
            "velocity": 0.48031496062992124
          },
          {
            "duration": 0.042856999999997925,
            "durationTicks": 96,
            "midi": 48,
            "name": "C3",
            "ticks": 147264,
            "time": 65.742638,
            "velocity": 0.48031496062992124
          },
          {
            "duration": 0.042856999999997925,
            "durationTicks": 96,
            "midi": 60,
            "name": "C4",
            "ticks": 147360,
            "time": 65.785495,
            "velocity": 0.48031496062992124
          },
          {
            "duration": 0.042856999999997925,
            "durationTicks": 96,
            "midi": 48,
            "name": "C3",
            "ticks": 147360,
            "time": 65.785495,
            "velocity": 0.48031496062992124
          },
          {
            "duration": 0.042856999999997925,
            "durationTicks": 96,
            "midi": 60,
            "name": "C4",
            "ticks": 147456,
            "time": 65.828352,
            "velocity": 0.48031496062992124
          },
          {
            "duration": 0.042856999999997925,
            "durationTicks": 96,
            "midi": 59,
            "name": "B3",
            "ticks": 147648,
            "time": 65.914066,
            "velocity": 0.48031496062992124
          },
          {
            "duration": 0.042856999999997925,
            "durationTicks": 96,
            "midi": 47,
            "name": "B2",
            "ticks": 147648,
            "time": 65.914066,
            "velocity": 0.48031496062992124
          },
          {
            "duration": 0.042856999999997925,
            "durationTicks": 96,
            "midi": 59,
            "name": "B3",
            "ticks": 147744,
            "time": 65.956923,
            "velocity": 0.48031496062992124
          },
          {
            "duration": 0.042856999999997925,
            "durationTicks": 96,
            "midi": 47,
            "name": "B2",
            "ticks": 147744,
            "time": 65.956923,
            "velocity": 0.48031496062992124
          },
          {
            "duration": 0.042856999999997925,
            "durationTicks": 96,
            "midi": 59,
            "name": "B3",
            "ticks": 147840,
            "time": 65.99978,
            "velocity": 0.48031496062992124
          },
          {
            "duration": 0.042856999999997925,
            "durationTicks": 96,
            "midi": 41,
            "name": "F2",
            "ticks": 148032,
            "time": 66.085494,
            "velocity": 0.48031496062992124
          },
          {
            "duration": 0.042856999999997925,
            "durationTicks": 96,
            "midi": 53,
            "name": "F3",
            "ticks": 148416,
            "time": 66.256922,
            "velocity": 0.48031496062992124
          },
          {
            "duration": 0.042856999999997925,
            "durationTicks": 96,
            "midi": 57,
            "name": "A3",
            "ticks": 148800,
            "time": 66.42835,
            "velocity": 0.48031496062992124
          },
          {
            "duration": 0.042856999999997925,
            "durationTicks": 96,
            "midi": 45,
            "name": "A2",
            "ticks": 148800,
            "time": 66.42835,
            "velocity": 0.48031496062992124
          },
          {
            "duration": 0.042857000000012135,
            "durationTicks": 96,
            "midi": 45,
            "name": "A2",
            "ticks": 148896,
            "time": 66.47120699999999,
            "velocity": 0.48031496062992124
          },
          {
            "duration": 0.042857000000012135,
            "durationTicks": 96,
            "midi": 57,
            "name": "A3",
            "ticks": 148896,
            "time": 66.47120699999999,
            "velocity": 0.48031496062992124
          },
          {
            "duration": 0.042856999999997925,
            "durationTicks": 96,
            "midi": 57,
            "name": "A3",
            "ticks": 148992,
            "time": 66.514064,
            "velocity": 0.48031496062992124
          },
          {
            "duration": 0.042856999999997925,
            "durationTicks": 96,
            "midi": 44,
            "name": "G#2",
            "ticks": 149184,
            "time": 66.599778,
            "velocity": 0.48031496062992124
          },
          {
            "duration": 0.042856999999997925,
            "durationTicks": 96,
            "midi": 45,
            "name": "A2",
            "ticks": 149184,
            "time": 66.599778,
            "velocity": 0.48031496062992124
          },
          {
            "duration": 0.042856999999997925,
            "durationTicks": 96,
            "midi": 57,
            "name": "A3",
            "ticks": 149184,
            "time": 66.599778,
            "velocity": 0.48031496062992124
          },
          {
            "duration": 0.042856999999997925,
            "durationTicks": 96,
            "midi": 52,
            "name": "E3",
            "ticks": 149184,
            "time": 66.599778,
            "velocity": 0.48031496062992124
          },
          {
            "duration": 0.042856999999997925,
            "durationTicks": 96,
            "midi": 40,
            "name": "E2",
            "ticks": 149184,
            "time": 66.599778,
            "velocity": 0.48031496062992124
          },
          {
            "duration": 0.042856999999997925,
            "durationTicks": 96,
            "midi": 47,
            "name": "B2",
            "ticks": 149184,
            "time": 66.599778,
            "velocity": 0.48031496062992124
          },
          {
            "duration": 0.042856999999997925,
            "durationTicks": 96,
            "midi": 45,
            "name": "A2",
            "ticks": 149280,
            "time": 66.642635,
            "velocity": 0.48031496062992124
          },
          {
            "duration": 0.042856999999997925,
            "durationTicks": 96,
            "midi": 57,
            "name": "A3",
            "ticks": 149280,
            "time": 66.642635,
            "velocity": 0.48031496062992124
          },
          {
            "duration": 0.042856999999997925,
            "durationTicks": 96,
            "midi": 57,
            "name": "A3",
            "ticks": 149376,
            "time": 66.685492,
            "velocity": 0.48031496062992124
          },
          {
            "duration": 0.042856999999997925,
            "durationTicks": 96,
            "midi": 57,
            "name": "A3",
            "ticks": 149472,
            "time": 66.728349,
            "velocity": 0.48031496062992124
          },
          {
            "duration": 0.042857000000012135,
            "durationTicks": 96,
            "midi": 57,
            "name": "A3",
            "ticks": 149568,
            "time": 66.77120599999999,
            "velocity": 0.48031496062992124
          },
          {
            "duration": 0.042856999999997925,
            "durationTicks": 96,
            "midi": 57,
            "name": "A3",
            "ticks": 149664,
            "time": 66.814063,
            "velocity": 0.48031496062992124
          },
          {
            "duration": 0.042856999999997925,
            "durationTicks": 96,
            "midi": 47,
            "name": "B2",
            "ticks": 150720,
            "time": 67.28549,
            "velocity": 0.48031496062992124
          },
          {
            "duration": 0.042856999999997925,
            "durationTicks": 96,
            "midi": 59,
            "name": "B3",
            "ticks": 150720,
            "time": 67.28549,
            "velocity": 0.48031496062992124
          },
          {
            "duration": 0.042856999999997925,
            "durationTicks": 96,
            "midi": 59,
            "name": "B3",
            "ticks": 150720,
            "time": 67.28549,
            "velocity": 0.48031496062992124
          },
          {
            "duration": 0.042857000000012135,
            "durationTicks": 96,
            "midi": 47,
            "name": "B2",
            "ticks": 150816,
            "time": 67.328347,
            "velocity": 0.48031496062992124
          },
          {
            "duration": 0.042857000000012135,
            "durationTicks": 96,
            "midi": 59,
            "name": "B3",
            "ticks": 150816,
            "time": 67.328347,
            "velocity": 0.48031496062992124
          },
          {
            "duration": 0.042856999999997925,
            "durationTicks": 96,
            "midi": 59,
            "name": "B3",
            "ticks": 150912,
            "time": 67.371204,
            "velocity": 0.48031496062992124
          },
          {
            "duration": 0.042856999999997925,
            "durationTicks": 96,
            "midi": 59,
            "name": "B3",
            "ticks": 151008,
            "time": 67.414061,
            "velocity": 0.48031496062992124
          },
          {
            "duration": 0.042856999999997925,
            "durationTicks": 96,
            "midi": 59,
            "name": "B3",
            "ticks": 151104,
            "time": 67.456918,
            "velocity": 0.48031496062992124
          },
          {
            "duration": 0.042856999999997925,
            "durationTicks": 96,
            "midi": 59,
            "name": "B3",
            "ticks": 151200,
            "time": 67.499775,
            "velocity": 0.48031496062992124
          },
          {
            "duration": 0.042856999999997925,
            "durationTicks": 96,
            "midi": 72,
            "name": "C5",
            "ticks": 152256,
            "time": 67.971202,
            "velocity": 0.48031496062992124
          },
          {
            "duration": 0.042856999999997925,
            "durationTicks": 96,
            "midi": 60,
            "name": "C4",
            "ticks": 152256,
            "time": 67.971202,
            "velocity": 0.48031496062992124
          },
          {
            "duration": 0.042856999999997925,
            "durationTicks": 96,
            "midi": 45,
            "name": "A2",
            "ticks": 152256,
            "time": 67.971202,
            "velocity": 0.48031496062992124
          },
          {
            "duration": 0.042856999999997925,
            "durationTicks": 96,
            "midi": 72,
            "name": "C5",
            "ticks": 152352,
            "time": 68.014059,
            "velocity": 0.48031496062992124
          },
          {
            "duration": 0.042856999999997925,
            "durationTicks": 96,
            "midi": 60,
            "name": "C4",
            "ticks": 152352,
            "time": 68.014059,
            "velocity": 0.48031496062992124
          },
          {
            "duration": 0.042856999999997925,
            "durationTicks": 96,
            "midi": 72,
            "name": "C5",
            "ticks": 152448,
            "time": 68.056916,
            "velocity": 0.48031496062992124
          },
          {
            "duration": 0.042856999999997925,
            "durationTicks": 96,
            "midi": 57,
            "name": "A3",
            "ticks": 153408,
            "time": 68.485486,
            "velocity": 0.48031496062992124
          },
          {
            "duration": 0.042856999999997925,
            "durationTicks": 96,
            "midi": 69,
            "name": "A4",
            "ticks": 153408,
            "time": 68.485486,
            "velocity": 0.48031496062992124
          },
          {
            "duration": 0.042857000000012135,
            "durationTicks": 96,
            "midi": 57,
            "name": "A3",
            "ticks": 153504,
            "time": 68.52834299999999,
            "velocity": 0.48031496062992124
          },
          {
            "duration": 0.042857000000012135,
            "durationTicks": 96,
            "midi": 69,
            "name": "A4",
            "ticks": 153504,
            "time": 68.52834299999999,
            "velocity": 0.48031496062992124
          },
          {
            "duration": 0.042856999999997925,
            "durationTicks": 96,
            "midi": 69,
            "name": "A4",
            "ticks": 153600,
            "time": 68.5712,
            "velocity": 0.48031496062992124
          },
          {
            "duration": 0.042856999999997925,
            "durationTicks": 96,
            "midi": 56,
            "name": "G#3",
            "ticks": 153792,
            "time": 68.656914,
            "velocity": 0.48031496062992124
          },
          {
            "duration": 0.042856999999997925,
            "durationTicks": 96,
            "midi": 68,
            "name": "G#4",
            "ticks": 153792,
            "time": 68.656914,
            "velocity": 0.48031496062992124
          },
          {
            "duration": 0.042856999999997925,
            "durationTicks": 96,
            "midi": 45,
            "name": "A2",
            "ticks": 153792,
            "time": 68.656914,
            "velocity": 0.48031496062992124
          },
          {
            "duration": 0.042856999999997925,
            "durationTicks": 96,
            "midi": 68,
            "name": "G#4",
            "ticks": 153888,
            "time": 68.699771,
            "velocity": 0.48031496062992124
          },
          {
            "duration": 0.042856999999997925,
            "durationTicks": 96,
            "midi": 56,
            "name": "G#3",
            "ticks": 153888,
            "time": 68.699771,
            "velocity": 0.48031496062992124
          },
          {
            "duration": 0.042856999999997925,
            "durationTicks": 96,
            "midi": 68,
            "name": "G#4",
            "ticks": 153984,
            "time": 68.742628,
            "velocity": 0.48031496062992124
          },
          {
            "duration": 0.042856999999997925,
            "durationTicks": 96,
            "midi": 69,
            "name": "A4",
            "ticks": 154944,
            "time": 69.171198,
            "velocity": 0.48031496062992124
          },
          {
            "duration": 0.042856999999997925,
            "durationTicks": 96,
            "midi": 57,
            "name": "A3",
            "ticks": 154944,
            "time": 69.171198,
            "velocity": 0.48031496062992124
          },
          {
            "duration": 0.042856999999997925,
            "durationTicks": 96,
            "midi": 57,
            "name": "A3",
            "ticks": 155040,
            "time": 69.214055,
            "velocity": 0.48031496062992124
          },
          {
            "duration": 0.042856999999997925,
            "durationTicks": 96,
            "midi": 69,
            "name": "A4",
            "ticks": 155040,
            "time": 69.214055,
            "velocity": 0.48031496062992124
          },
          {
            "duration": 0.042856999999997925,
            "durationTicks": 96,
            "midi": 69,
            "name": "A4",
            "ticks": 155136,
            "time": 69.256912,
            "velocity": 0.48031496062992124
          },
          {
            "duration": 0.042856999999997925,
            "durationTicks": 96,
            "midi": 64,
            "name": "E4",
            "ticks": 155328,
            "time": 69.342626,
            "velocity": 0.48031496062992124
          },
          {
            "duration": 0.042856999999997925,
            "durationTicks": 96,
            "midi": 52,
            "name": "E3",
            "ticks": 155328,
            "time": 69.342626,
            "velocity": 0.48031496062992124
          },
          {
            "duration": 0.042857000000012135,
            "durationTicks": 96,
            "midi": 64,
            "name": "E4",
            "ticks": 155424,
            "time": 69.385483,
            "velocity": 0.48031496062992124
          },
          {
            "duration": 0.042857000000012135,
            "durationTicks": 96,
            "midi": 52,
            "name": "E3",
            "ticks": 155424,
            "time": 69.385483,
            "velocity": 0.48031496062992124
          },
          {
            "duration": 0.042856999999997925,
            "durationTicks": 96,
            "midi": 64,
            "name": "E4",
            "ticks": 155520,
            "time": 69.42834,
            "velocity": 0.48031496062992124
          },
          {
            "duration": 0.042856999999997925,
            "durationTicks": 96,
            "midi": 48,
            "name": "C3",
            "ticks": 155712,
            "time": 69.514054,
            "velocity": 0.48031496062992124
          },
          {
            "duration": 0.042857000000012135,
            "durationTicks": 96,
            "midi": 48,
            "name": "C3",
            "ticks": 156096,
            "time": 69.685482,
            "velocity": 0.48031496062992124
          },
          {
            "duration": 0.042856999999997925,
            "durationTicks": 96,
            "midi": 60,
            "name": "C4",
            "ticks": 156864,
            "time": 70.028338,
            "velocity": 0.48031496062992124
          },
          {
            "duration": 0.042856999999997925,
            "durationTicks": 96,
            "midi": 52,
            "name": "E3",
            "ticks": 157632,
            "time": 70.371194,
            "velocity": 0.48031496062992124
          },
          {
            "duration": 0.042856999999997925,
            "durationTicks": 96,
            "midi": 64,
            "name": "E4",
            "ticks": 157632,
            "time": 70.371194,
            "velocity": 0.48031496062992124
          },
          {
            "duration": 0.042856999999997925,
            "durationTicks": 96,
            "midi": 64,
            "name": "E4",
            "ticks": 157728,
            "time": 70.414051,
            "velocity": 0.48031496062992124
          },
          {
            "duration": 0.042856999999997925,
            "durationTicks": 96,
            "midi": 52,
            "name": "E3",
            "ticks": 157728,
            "time": 70.414051,
            "velocity": 0.48031496062992124
          },
          {
            "duration": 0.042856999999997925,
            "durationTicks": 96,
            "midi": 64,
            "name": "E4",
            "ticks": 157824,
            "time": 70.456908,
            "velocity": 0.48031496062992124
          },
          {
            "duration": 0.042856999999997925,
            "durationTicks": 96,
            "midi": 63,
            "name": "D#4",
            "ticks": 158400,
            "time": 70.71405,
            "velocity": 0.48031496062992124
          },
          {
            "duration": 0.042856999999997925,
            "durationTicks": 96,
            "midi": 47,
            "name": "B2",
            "ticks": 158400,
            "time": 70.71405,
            "velocity": 0.48031496062992124
          },
          {
            "duration": 0.042856999999997925,
            "durationTicks": 96,
            "midi": 51,
            "name": "D#3",
            "ticks": 158400,
            "time": 70.71405,
            "velocity": 0.48031496062992124
          },
          {
            "duration": 0.042856999999997925,
            "durationTicks": 96,
            "midi": 51,
            "name": "D#3",
            "ticks": 158496,
            "time": 70.756907,
            "velocity": 0.48031496062992124
          },
          {
            "duration": 0.042856999999997925,
            "durationTicks": 96,
            "midi": 63,
            "name": "D#4",
            "ticks": 158496,
            "time": 70.756907,
            "velocity": 0.48031496062992124
          },
          {
            "duration": 0.042856999999997925,
            "durationTicks": 96,
            "midi": 63,
            "name": "D#4",
            "ticks": 158592,
            "time": 70.799764,
            "velocity": 0.48031496062992124
          },
          {
            "duration": 0.042856999999997925,
            "durationTicks": 96,
            "midi": 52,
            "name": "E3",
            "ticks": 159552,
            "time": 71.228334,
            "velocity": 0.48031496062992124
          },
          {
            "duration": 0.042856999999997925,
            "durationTicks": 96,
            "midi": 64,
            "name": "E4",
            "ticks": 159552,
            "time": 71.228334,
            "velocity": 0.48031496062992124
          },
          {
            "duration": 0.042856999999997925,
            "durationTicks": 96,
            "midi": 52,
            "name": "E3",
            "ticks": 159648,
            "time": 71.271191,
            "velocity": 0.48031496062992124
          },
          {
            "duration": 0.042856999999997925,
            "durationTicks": 96,
            "midi": 64,
            "name": "E4",
            "ticks": 159648,
            "time": 71.271191,
            "velocity": 0.48031496062992124
          },
          {
            "duration": 0.042856999999997925,
            "durationTicks": 96,
            "midi": 64,
            "name": "E4",
            "ticks": 159744,
            "time": 71.314048,
            "velocity": 0.48031496062992124
          },
          {
            "duration": 0.042856999999997925,
            "durationTicks": 96,
            "midi": 72,
            "name": "C5",
            "ticks": 159936,
            "time": 71.399762,
            "velocity": 0.48031496062992124
          },
          {
            "duration": 0.042856999999997925,
            "durationTicks": 96,
            "midi": 59,
            "name": "B3",
            "ticks": 159936,
            "time": 71.399762,
            "velocity": 0.48031496062992124
          },
          {
            "duration": 0.042856999999997925,
            "durationTicks": 96,
            "midi": 60,
            "name": "C4",
            "ticks": 159936,
            "time": 71.399762,
            "velocity": 0.48031496062992124
          },
          {
            "duration": 0.042857000000012135,
            "durationTicks": 96,
            "midi": 60,
            "name": "C4",
            "ticks": 160032,
            "time": 71.442619,
            "velocity": 0.48031496062992124
          },
          {
            "duration": 0.042857000000012135,
            "durationTicks": 96,
            "midi": 72,
            "name": "C5",
            "ticks": 160032,
            "time": 71.442619,
            "velocity": 0.48031496062992124
          },
          {
            "duration": 0.042856999999997925,
            "durationTicks": 96,
            "midi": 72,
            "name": "C5",
            "ticks": 160128,
            "time": 71.485476,
            "velocity": 0.48031496062992124
          },
          {
            "duration": 0.042856999999997925,
            "durationTicks": 96,
            "midi": 47,
            "name": "B2",
            "ticks": 160128,
            "time": 71.485476,
            "velocity": 0.48031496062992124
          },
          {
            "duration": 0.042856999999997925,
            "durationTicks": 96,
            "midi": 59,
            "name": "B3",
            "ticks": 160320,
            "time": 71.57119,
            "velocity": 0.48031496062992124
          },
          {
            "duration": 0.042856999999997925,
            "durationTicks": 96,
            "midi": 47,
            "name": "B2",
            "ticks": 160512,
            "time": 71.656904,
            "velocity": 0.48031496062992124
          },
          {
            "duration": 0.042857000000012135,
            "durationTicks": 96,
            "midi": 59,
            "name": "B3",
            "ticks": 160704,
            "time": 71.742618,
            "velocity": 0.48031496062992124
          },
          {
            "duration": 0.042856999999997925,
            "durationTicks": 96,
            "midi": 47,
            "name": "B2",
            "ticks": 160896,
            "time": 71.828332,
            "velocity": 0.48031496062992124
          },
          {
            "duration": 0.042856999999997925,
            "durationTicks": 96,
            "midi": 59,
            "name": "B3",
            "ticks": 161088,
            "time": 71.914046,
            "velocity": 0.48031496062992124
          },
          {
            "duration": 0.042856999999997925,
            "durationTicks": 96,
            "midi": 59,
            "name": "B3",
            "ticks": 161088,
            "time": 71.914046,
            "velocity": 0.48031496062992124
          },
          {
            "duration": 0.042856999999997925,
            "durationTicks": 96,
            "midi": 71,
            "name": "B4",
            "ticks": 161088,
            "time": 71.914046,
            "velocity": 0.48031496062992124
          },
          {
            "duration": 0.042856999999997925,
            "durationTicks": 96,
            "midi": 59,
            "name": "B3",
            "ticks": 161184,
            "time": 71.956903,
            "velocity": 0.48031496062992124
          },
          {
            "duration": 0.042856999999997925,
            "durationTicks": 96,
            "midi": 71,
            "name": "B4",
            "ticks": 161184,
            "time": 71.956903,
            "velocity": 0.48031496062992124
          },
          {
            "duration": 0.042856999999997925,
            "durationTicks": 96,
            "midi": 47,
            "name": "B2",
            "ticks": 161280,
            "time": 71.99976,
            "velocity": 0.48031496062992124
          },
          {
            "duration": 0.042856999999997925,
            "durationTicks": 96,
            "midi": 71,
            "name": "B4",
            "ticks": 161280,
            "time": 71.99976,
            "velocity": 0.48031496062992124
          },
          {
            "duration": 0.042856999999997925,
            "durationTicks": 96,
            "midi": 69,
            "name": "A4",
            "ticks": 161472,
            "time": 72.085474,
            "velocity": 0.48031496062992124
          },
          {
            "duration": 0.042856999999997925,
            "durationTicks": 96,
            "midi": 57,
            "name": "A3",
            "ticks": 161472,
            "time": 72.085474,
            "velocity": 0.48031496062992124
          },
          {
            "duration": 0.042856999999997925,
            "durationTicks": 96,
            "midi": 47,
            "name": "B2",
            "ticks": 161472,
            "time": 72.085474,
            "velocity": 0.48031496062992124
          },
          {
            "duration": 0.042856999999997925,
            "durationTicks": 96,
            "midi": 69,
            "name": "A4",
            "ticks": 161568,
            "time": 72.128331,
            "velocity": 0.48031496062992124
          },
          {
            "duration": 0.042856999999997925,
            "durationTicks": 96,
            "midi": 57,
            "name": "A3",
            "ticks": 161568,
            "time": 72.128331,
            "velocity": 0.48031496062992124
          },
          {
            "duration": 0.042856999999997925,
            "durationTicks": 96,
            "midi": 69,
            "name": "A4",
            "ticks": 161664,
            "time": 72.171188,
            "velocity": 0.48031496062992124
          },
          {
            "duration": 0.042856999999997925,
            "durationTicks": 96,
            "midi": 40,
            "name": "E2",
            "ticks": 161856,
            "time": 72.256902,
            "velocity": 0.48031496062992124
          },
          {
            "duration": 0.042856999999997925,
            "durationTicks": 96,
            "midi": 40,
            "name": "E2",
            "ticks": 162240,
            "time": 72.42833,
            "velocity": 0.48031496062992124
          },
          {
            "duration": 0.042856999999997925,
            "durationTicks": 96,
            "midi": 68,
            "name": "G#4",
            "ticks": 163008,
            "time": 72.771186,
            "velocity": 0.48031496062992124
          },
          {
            "duration": 0.042856999999997925,
            "durationTicks": 96,
            "midi": 52,
            "name": "E3",
            "ticks": 163008,
            "time": 72.771186,
            "velocity": 0.48031496062992124
          },
          {
            "duration": 0.042856999999997925,
            "durationTicks": 96,
            "midi": 56,
            "name": "G#3",
            "ticks": 163008,
            "time": 72.771186,
            "velocity": 0.48031496062992124
          },
          {
            "duration": 0.042856999999997925,
            "durationTicks": 96,
            "midi": 68,
            "name": "G#4",
            "ticks": 163104,
            "time": 72.814043,
            "velocity": 0.48031496062992124
          },
          {
            "duration": 0.042856999999997925,
            "durationTicks": 96,
            "midi": 56,
            "name": "G#3",
            "ticks": 163104,
            "time": 72.814043,
            "velocity": 0.48031496062992124
          },
          {
            "duration": 0.042856999999997925,
            "durationTicks": 96,
            "midi": 68,
            "name": "G#4",
            "ticks": 163200,
            "time": 72.8569,
            "velocity": 0.48031496062992124
          },
          {
            "duration": 0.042857000000012135,
            "durationTicks": 96,
            "midi": 40,
            "name": "E2",
            "ticks": 163392,
            "time": 72.94261399999999,
            "velocity": 0.48031496062992124
          },
          {
            "duration": 0.042856999999997925,
            "durationTicks": 96,
            "midi": 40,
            "name": "E2",
            "ticks": 163776,
            "time": 73.114042,
            "velocity": 0.48031496062992124
          },
          {
            "duration": 0.042856999999997925,
            "durationTicks": 96,
            "midi": 72,
            "name": "C5",
            "ticks": 164544,
            "time": 73.456898,
            "velocity": 0.48031496062992124
          },
          {
            "duration": 0.042856999999997925,
            "durationTicks": 96,
            "midi": 60,
            "name": "C4",
            "ticks": 164544,
            "time": 73.456898,
            "velocity": 0.48031496062992124
          },
          {
            "duration": 0.042856999999997925,
            "durationTicks": 96,
            "midi": 45,
            "name": "A2",
            "ticks": 164544,
            "time": 73.456898,
            "velocity": 0.48031496062992124
          },
          {
            "duration": 0.042857000000012135,
            "durationTicks": 96,
            "midi": 72,
            "name": "C5",
            "ticks": 164640,
            "time": 73.499755,
            "velocity": 0.48031496062992124
          },
          {
            "duration": 0.042857000000012135,
            "durationTicks": 96,
            "midi": 60,
            "name": "C4",
            "ticks": 164640,
            "time": 73.499755,
            "velocity": 0.48031496062992124
          },
          {
            "duration": 0.042856999999997925,
            "durationTicks": 96,
            "midi": 72,
            "name": "C5",
            "ticks": 164736,
            "time": 73.542612,
            "velocity": 0.48031496062992124
          },
          {
            "duration": 0.042856999999997925,
            "durationTicks": 96,
            "midi": 69,
            "name": "A4",
            "ticks": 165696,
            "time": 73.971182,
            "velocity": 0.48031496062992124
          },
          {
            "duration": 0.042856999999997925,
            "durationTicks": 96,
            "midi": 57,
            "name": "A3",
            "ticks": 165696,
            "time": 73.971182,
            "velocity": 0.48031496062992124
          },
          {
            "duration": 0.042856999999997925,
            "durationTicks": 96,
            "midi": 57,
            "name": "A3",
            "ticks": 165792,
            "time": 74.014039,
            "velocity": 0.48031496062992124
          },
          {
            "duration": 0.042856999999997925,
            "durationTicks": 96,
            "midi": 69,
            "name": "A4",
            "ticks": 165792,
            "time": 74.014039,
            "velocity": 0.48031496062992124
          },
          {
            "duration": 0.042856999999997925,
            "durationTicks": 96,
            "midi": 69,
            "name": "A4",
            "ticks": 165888,
            "time": 74.056896,
            "velocity": 0.48031496062992124
          },
          {
            "duration": 0.042856999999997925,
            "durationTicks": 96,
            "midi": 45,
            "name": "A2",
            "ticks": 166080,
            "time": 74.14261,
            "velocity": 0.48031496062992124
          },
          {
            "duration": 0.042856999999997925,
            "durationTicks": 96,
            "midi": 68,
            "name": "G#4",
            "ticks": 166080,
            "time": 74.14261,
            "velocity": 0.48031496062992124
          },
          {
            "duration": 0.042856999999997925,
            "durationTicks": 96,
            "midi": 56,
            "name": "G#3",
            "ticks": 166080,
            "time": 74.14261,
            "velocity": 0.48031496062992124
          },
          {
            "duration": 0.042856999999997925,
            "durationTicks": 96,
            "midi": 56,
            "name": "G#3",
            "ticks": 166176,
            "time": 74.185467,
            "velocity": 0.48031496062992124
          },
          {
            "duration": 0.042856999999997925,
            "durationTicks": 96,
            "midi": 68,
            "name": "G#4",
            "ticks": 166176,
            "time": 74.185467,
            "velocity": 0.48031496062992124
          },
          {
            "duration": 0.042856999999997925,
            "durationTicks": 96,
            "midi": 68,
            "name": "G#4",
            "ticks": 166272,
            "time": 74.228324,
            "velocity": 0.48031496062992124
          },
          {
            "duration": 0.042856999999997925,
            "durationTicks": 96,
            "midi": 69,
            "name": "A4",
            "ticks": 167232,
            "time": 74.656894,
            "velocity": 0.48031496062992124
          },
          {
            "duration": 0.042856999999997925,
            "durationTicks": 96,
            "midi": 57,
            "name": "A3",
            "ticks": 167232,
            "time": 74.656894,
            "velocity": 0.48031496062992124
          },
          {
            "duration": 0.042857000000012135,
            "durationTicks": 96,
            "midi": 57,
            "name": "A3",
            "ticks": 167328,
            "time": 74.69975099999999,
            "velocity": 0.48031496062992124
          },
          {
            "duration": 0.042857000000012135,
            "durationTicks": 96,
            "midi": 69,
            "name": "A4",
            "ticks": 167328,
            "time": 74.69975099999999,
            "velocity": 0.48031496062992124
          },
          {
            "duration": 0.042856999999997925,
            "durationTicks": 96,
            "midi": 69,
            "name": "A4",
            "ticks": 167424,
            "time": 74.742608,
            "velocity": 0.48031496062992124
          },
          {
            "duration": 0.042856999999997925,
            "durationTicks": 96,
            "midi": 64,
            "name": "E4",
            "ticks": 167616,
            "time": 74.828322,
            "velocity": 0.48031496062992124
          },
          {
            "duration": 0.042856999999997925,
            "durationTicks": 96,
            "midi": 52,
            "name": "E3",
            "ticks": 167616,
            "time": 74.828322,
            "velocity": 0.48031496062992124
          },
          {
            "duration": 0.042856999999997925,
            "durationTicks": 96,
            "midi": 64,
            "name": "E4",
            "ticks": 167712,
            "time": 74.871179,
            "velocity": 0.48031496062992124
          },
          {
            "duration": 0.042856999999997925,
            "durationTicks": 96,
            "midi": 52,
            "name": "E3",
            "ticks": 167712,
            "time": 74.871179,
            "velocity": 0.48031496062992124
          },
          {
            "duration": 0.042856999999997925,
            "durationTicks": 96,
            "midi": 64,
            "name": "E4",
            "ticks": 167808,
            "time": 74.914036,
            "velocity": 0.48031496062992124
          },
          {
            "duration": 0.042857000000012135,
            "durationTicks": 96,
            "midi": 48,
            "name": "C3",
            "ticks": 168000,
            "time": 74.99974999999999,
            "velocity": 0.48031496062992124
          },
          {
            "duration": 0.042856999999997925,
            "durationTicks": 96,
            "midi": 48,
            "name": "C3",
            "ticks": 168384,
            "time": 75.171178,
            "velocity": 0.48031496062992124
          },
          {
            "duration": 0.042856999999997925,
            "durationTicks": 96,
            "midi": 60,
            "name": "C4",
            "ticks": 169152,
            "time": 75.514034,
            "velocity": 0.48031496062992124
          },
          {
            "duration": 0.042857000000012135,
            "durationTicks": 96,
            "midi": 76,
            "name": "E5",
            "ticks": 169920,
            "time": 75.85688999999999,
            "velocity": 0.48031496062992124
          },
          {
            "duration": 0.042857000000012135,
            "durationTicks": 96,
            "midi": 64,
            "name": "E4",
            "ticks": 169920,
            "time": 75.85688999999999,
            "velocity": 0.48031496062992124
          },
          {
            "duration": 0.042856999999997925,
            "durationTicks": 96,
            "midi": 76,
            "name": "E5",
            "ticks": 170016,
            "time": 75.899747,
            "velocity": 0.48031496062992124
          },
          {
            "duration": 0.042856999999997925,
            "durationTicks": 96,
            "midi": 64,
            "name": "E4",
            "ticks": 170016,
            "time": 75.899747,
            "velocity": 0.48031496062992124
          },
          {
            "duration": 0.042856999999997925,
            "durationTicks": 96,
            "midi": 76,
            "name": "E5",
            "ticks": 170112,
            "time": 75.942604,
            "velocity": 0.48031496062992124
          },
          {
            "duration": 0.042856999999997925,
            "durationTicks": 96,
            "midi": 53,
            "name": "F3",
            "ticks": 170688,
            "time": 76.199746,
            "velocity": 0.48031496062992124
          },
          {
            "duration": 0.042856999999997925,
            "durationTicks": 96,
            "midi": 75,
            "name": "D#5",
            "ticks": 170688,
            "time": 76.199746,
            "velocity": 0.48031496062992124
          },
          {
            "duration": 0.042856999999997925,
            "durationTicks": 96,
            "midi": 41,
            "name": "F2",
            "ticks": 170688,
            "time": 76.199746,
            "velocity": 0.48031496062992124
          },
          {
            "duration": 0.042856999999997925,
            "durationTicks": 96,
            "midi": 63,
            "name": "D#4",
            "ticks": 170688,
            "time": 76.199746,
            "velocity": 0.48031496062992124
          },
          {
            "duration": 0.042856999999997925,
            "durationTicks": 96,
            "midi": 75,
            "name": "D#5",
            "ticks": 170784,
            "time": 76.242603,
            "velocity": 0.48031496062992124
          },
          {
            "duration": 0.042856999999997925,
            "durationTicks": 96,
            "midi": 63,
            "name": "D#4",
            "ticks": 170784,
            "time": 76.242603,
            "velocity": 0.48031496062992124
          },
          {
            "duration": 0.042856999999997925,
            "durationTicks": 96,
            "midi": 75,
            "name": "D#5",
            "ticks": 170880,
            "time": 76.28546,
            "velocity": 0.48031496062992124
          },
          {
            "duration": 0.042856999999997925,
            "durationTicks": 96,
            "midi": 72,
            "name": "C5",
            "ticks": 171840,
            "time": 76.71403,
            "velocity": 0.48031496062992124
          },
          {
            "duration": 0.042856999999997925,
            "durationTicks": 96,
            "midi": 60,
            "name": "C4",
            "ticks": 171840,
            "time": 76.71403,
            "velocity": 0.48031496062992124
          },
          {
            "duration": 0.042857000000012135,
            "durationTicks": 96,
            "midi": 72,
            "name": "C5",
            "ticks": 171936,
            "time": 76.75688699999999,
            "velocity": 0.48031496062992124
          },
          {
            "duration": 0.042857000000012135,
            "durationTicks": 96,
            "midi": 60,
            "name": "C4",
            "ticks": 171936,
            "time": 76.75688699999999,
            "velocity": 0.48031496062992124
          },
          {
            "duration": 0.042856999999997925,
            "durationTicks": 96,
            "midi": 72,
            "name": "C5",
            "ticks": 172032,
            "time": 76.799744,
            "velocity": 0.48031496062992124
          },
          {
            "duration": 0.042856999999997925,
            "durationTicks": 96,
            "midi": 71,
            "name": "B4",
            "ticks": 172224,
            "time": 76.885458,
            "velocity": 0.48031496062992124
          },
          {
            "duration": 0.042856999999997925,
            "durationTicks": 96,
            "midi": 53,
            "name": "F3",
            "ticks": 172224,
            "time": 76.885458,
            "velocity": 0.48031496062992124
          },
          {
            "duration": 0.042856999999997925,
            "durationTicks": 96,
            "midi": 59,
            "name": "B3",
            "ticks": 172224,
            "time": 76.885458,
            "velocity": 0.48031496062992124
          },
          {
            "duration": 0.042856999999997925,
            "durationTicks": 96,
            "midi": 71,
            "name": "B4",
            "ticks": 172320,
            "time": 76.928315,
            "velocity": 0.48031496062992124
          },
          {
            "duration": 0.042856999999997925,
            "durationTicks": 96,
            "midi": 59,
            "name": "B3",
            "ticks": 172320,
            "time": 76.928315,
            "velocity": 0.48031496062992124
          },
          {
            "duration": 0.042856999999997925,
            "durationTicks": 96,
            "midi": 41,
            "name": "F2",
            "ticks": 172416,
            "time": 76.971172,
            "velocity": 0.48031496062992124
          },
          {
            "duration": 0.042856999999997925,
            "durationTicks": 96,
            "midi": 71,
            "name": "B4",
            "ticks": 172416,
            "time": 76.971172,
            "velocity": 0.48031496062992124
          },
          {
            "duration": 0.042856999999997925,
            "durationTicks": 96,
            "midi": 53,
            "name": "F3",
            "ticks": 172608,
            "time": 77.056886,
            "velocity": 0.48031496062992124
          },
          {
            "duration": 0.042856999999997925,
            "durationTicks": 96,
            "midi": 41,
            "name": "F2",
            "ticks": 172800,
            "time": 77.1426,
            "velocity": 0.48031496062992124
          },
          {
            "duration": 0.042856999999997925,
            "durationTicks": 96,
            "midi": 53,
            "name": "F3",
            "ticks": 172992,
            "time": 77.228314,
            "velocity": 0.48031496062992124
          },
          {
            "duration": 0.042857000000012135,
            "durationTicks": 96,
            "midi": 41,
            "name": "F2",
            "ticks": 173184,
            "time": 77.314028,
            "velocity": 0.48031496062992124
          },
          {
            "duration": 0.042856999999997925,
            "durationTicks": 96,
            "midi": 57,
            "name": "A3",
            "ticks": 173376,
            "time": 77.399742,
            "velocity": 0.48031496062992124
          },
          {
            "duration": 0.042856999999997925,
            "durationTicks": 96,
            "midi": 69,
            "name": "A4",
            "ticks": 173376,
            "time": 77.399742,
            "velocity": 0.48031496062992124
          },
          {
            "duration": 0.042856999999997925,
            "durationTicks": 96,
            "midi": 53,
            "name": "F3",
            "ticks": 173376,
            "time": 77.399742,
            "velocity": 0.48031496062992124
          },
          {
            "duration": 0.042856999999997925,
            "durationTicks": 96,
            "midi": 69,
            "name": "A4",
            "ticks": 173472,
            "time": 77.442599,
            "velocity": 0.48031496062992124
          },
          {
            "duration": 0.042856999999997925,
            "durationTicks": 96,
            "midi": 57,
            "name": "A3",
            "ticks": 173472,
            "time": 77.442599,
            "velocity": 0.48031496062992124
          },
          {
            "duration": 0.042856999999997925,
            "durationTicks": 96,
            "midi": 69,
            "name": "A4",
            "ticks": 173568,
            "time": 77.485456,
            "velocity": 0.48031496062992124
          },
          {
            "duration": 0.042856999999997925,
            "durationTicks": 96,
            "midi": 41,
            "name": "F2",
            "ticks": 173568,
            "time": 77.485456,
            "velocity": 0.48031496062992124
          },
          {
            "duration": 0.042856999999997925,
            "durationTicks": 96,
            "midi": 47,
            "name": "B2",
            "ticks": 173760,
            "time": 77.57117,
            "velocity": 0.48031496062992124
          },
          {
            "duration": 0.042856999999997925,
            "durationTicks": 96,
            "midi": 69,
            "name": "A4",
            "ticks": 173760,
            "time": 77.57117,
            "velocity": 0.48031496062992124
          },
          {
            "duration": 0.042856999999997925,
            "durationTicks": 96,
            "midi": 52,
            "name": "E3",
            "ticks": 173760,
            "time": 77.57117,
            "velocity": 0.48031496062992124
          },
          {
            "duration": 0.042856999999997925,
            "durationTicks": 96,
            "midi": 40,
            "name": "E2",
            "ticks": 173760,
            "time": 77.57117,
            "velocity": 0.48031496062992124
          },
          {
            "duration": 0.042856999999997925,
            "durationTicks": 96,
            "midi": 57,
            "name": "A3",
            "ticks": 173760,
            "time": 77.57117,
            "velocity": 0.48031496062992124
          },
          {
            "duration": 0.042856999999997925,
            "durationTicks": 96,
            "midi": 44,
            "name": "G#2",
            "ticks": 173760,
            "time": 77.57117,
            "velocity": 0.48031496062992124
          },
          {
            "duration": 0.042857000000012135,
            "durationTicks": 96,
            "midi": 69,
            "name": "A4",
            "ticks": 173856,
            "time": 77.614027,
            "velocity": 0.48031496062992124
          },
          {
            "duration": 0.042857000000012135,
            "durationTicks": 96,
            "midi": 57,
            "name": "A3",
            "ticks": 173856,
            "time": 77.614027,
            "velocity": 0.48031496062992124
          },
          {
            "duration": 0.042856999999997925,
            "durationTicks": 96,
            "midi": 69,
            "name": "A4",
            "ticks": 173952,
            "time": 77.656884,
            "velocity": 0.48031496062992124
          },
          {
            "duration": 0.042856999999997925,
            "durationTicks": 96,
            "midi": 69,
            "name": "A4",
            "ticks": 174048,
            "time": 77.699741,
            "velocity": 0.48031496062992124
          },
          {
            "duration": 0.042856999999997925,
            "durationTicks": 96,
            "midi": 69,
            "name": "A4",
            "ticks": 174144,
            "time": 77.742598,
            "velocity": 0.48031496062992124
          },
          {
            "duration": 0.042856999999997925,
            "durationTicks": 96,
            "midi": 71,
            "name": "B4",
            "ticks": 175296,
            "time": 78.256882,
            "velocity": 0.48031496062992124
          },
          {
            "duration": 0.042856999999997925,
            "durationTicks": 96,
            "midi": 59,
            "name": "B3",
            "ticks": 175296,
            "time": 78.256882,
            "velocity": 0.48031496062992124
          },
          {
            "duration": 0.042856999999997925,
            "durationTicks": 96,
            "midi": 59,
            "name": "B3",
            "ticks": 175392,
            "time": 78.299739,
            "velocity": 0.48031496062992124
          },
          {
            "duration": 0.042856999999997925,
            "durationTicks": 96,
            "midi": 71,
            "name": "B4",
            "ticks": 175392,
            "time": 78.299739,
            "velocity": 0.48031496062992124
          },
          {
            "duration": 0.042856999999997925,
            "durationTicks": 96,
            "midi": 71,
            "name": "B4",
            "ticks": 175488,
            "time": 78.342596,
            "velocity": 0.48031496062992124
          },
          {
            "duration": 0.042856999999997925,
            "durationTicks": 96,
            "midi": 71,
            "name": "B4",
            "ticks": 175584,
            "time": 78.385453,
            "velocity": 0.48031496062992124
          },
          {
            "duration": 0.042856999999997925,
            "durationTicks": 96,
            "midi": 71,
            "name": "B4",
            "ticks": 175680,
            "time": 78.42831,
            "velocity": 0.48031496062992124
          },
          {
            "duration": 0.042856999999997925,
            "durationTicks": 96,
            "midi": 52,
            "name": "E3",
            "ticks": 262080,
            "time": 116.99961,
            "velocity": 0.48031496062992124
          },
          {
            "duration": 0.042856999999997925,
            "durationTicks": 96,
            "midi": 52,
            "name": "E3",
            "ticks": 262176,
            "time": 117.042467,
            "velocity": 0.48031496062992124
          },
          {
            "duration": 0.042856999999997925,
            "durationTicks": 96,
            "midi": 52,
            "name": "E3",
            "ticks": 262272,
            "time": 117.085324,
            "velocity": 0.48031496062992124
          },
          {
            "duration": 0.042856999999997925,
            "durationTicks": 96,
            "midi": 45,
            "name": "A2",
            "ticks": 262848,
            "time": 117.342466,
            "velocity": 0.48031496062992124
          },
          {
            "duration": 0.042856999999997925,
            "durationTicks": 96,
            "midi": 60,
            "name": "C4",
            "ticks": 262848,
            "time": 117.342466,
            "velocity": 0.48031496062992124
          },
          {
            "duration": 0.042856999999997925,
            "durationTicks": 96,
            "midi": 57,
            "name": "A3",
            "ticks": 262848,
            "time": 117.342466,
            "velocity": 0.48031496062992124
          },
          {
            "duration": 0.042856999999997925,
            "durationTicks": 96,
            "midi": 48,
            "name": "C3",
            "ticks": 262848,
            "time": 117.342466,
            "velocity": 0.48031496062992124
          },
          {
            "duration": 0.042856999999997925,
            "durationTicks": 96,
            "midi": 60,
            "name": "C4",
            "ticks": 262944,
            "time": 117.385323,
            "velocity": 0.48031496062992124
          },
          {
            "duration": 0.042856999999997925,
            "durationTicks": 96,
            "midi": 48,
            "name": "C3",
            "ticks": 262944,
            "time": 117.385323,
            "velocity": 0.48031496062992124
          },
          {
            "duration": 0.042856999999997925,
            "durationTicks": 96,
            "midi": 60,
            "name": "C4",
            "ticks": 263040,
            "time": 117.42818,
            "velocity": 0.48031496062992124
          },
          {
            "duration": 0.042856999999997925,
            "durationTicks": 96,
            "midi": 57,
            "name": "A3",
            "ticks": 263616,
            "time": 117.685322,
            "velocity": 0.48031496062992124
          },
          {
            "duration": 0.042857000000012135,
            "durationTicks": 96,
            "midi": 45,
            "name": "A2",
            "ticks": 264000,
            "time": 117.85674999999999,
            "velocity": 0.48031496062992124
          },
          {
            "duration": 0.042857000000012135,
            "durationTicks": 96,
            "midi": 57,
            "name": "A3",
            "ticks": 264000,
            "time": 117.85674999999999,
            "velocity": 0.48031496062992124
          },
          {
            "duration": 0.042856999999997925,
            "durationTicks": 96,
            "midi": 45,
            "name": "A2",
            "ticks": 264096,
            "time": 117.899607,
            "velocity": 0.48031496062992124
          },
          {
            "duration": 0.042856999999997925,
            "durationTicks": 96,
            "midi": 57,
            "name": "A3",
            "ticks": 264096,
            "time": 117.899607,
            "velocity": 0.48031496062992124
          },
          {
            "duration": 0.042856999999997925,
            "durationTicks": 96,
            "midi": 57,
            "name": "A3",
            "ticks": 264192,
            "time": 117.942464,
            "velocity": 0.48031496062992124
          },
          {
            "duration": 0.042856999999997925,
            "durationTicks": 96,
            "midi": 56,
            "name": "G#3",
            "ticks": 264384,
            "time": 118.028178,
            "velocity": 0.48031496062992124
          },
          {
            "duration": 0.042856999999997925,
            "durationTicks": 96,
            "midi": 44,
            "name": "G#2",
            "ticks": 264384,
            "time": 118.028178,
            "velocity": 0.48031496062992124
          },
          {
            "duration": 0.042856999999997925,
            "durationTicks": 96,
            "midi": 44,
            "name": "G#2",
            "ticks": 264480,
            "time": 118.071035,
            "velocity": 0.48031496062992124
          },
          {
            "duration": 0.042856999999997925,
            "durationTicks": 96,
            "midi": 56,
            "name": "G#3",
            "ticks": 264480,
            "time": 118.071035,
            "velocity": 0.48031496062992124
          },
          {
            "duration": 0.042857000000012135,
            "durationTicks": 96,
            "midi": 56,
            "name": "G#3",
            "ticks": 264576,
            "time": 118.11389199999999,
            "velocity": 0.48031496062992124
          },
          {
            "duration": 0.042856999999997925,
            "durationTicks": 96,
            "midi": 45,
            "name": "A2",
            "ticks": 264768,
            "time": 118.199606,
            "velocity": 0.48031496062992124
          },
          {
            "duration": 0.042856999999997925,
            "durationTicks": 96,
            "midi": 57,
            "name": "A3",
            "ticks": 265152,
            "time": 118.371034,
            "velocity": 0.48031496062992124
          },
          {
            "duration": 0.042856999999997925,
            "durationTicks": 96,
            "midi": 57,
            "name": "A3",
            "ticks": 265536,
            "time": 118.542462,
            "velocity": 0.48031496062992124
          },
          {
            "duration": 0.042856999999997925,
            "durationTicks": 96,
            "midi": 45,
            "name": "A2",
            "ticks": 265536,
            "time": 118.542462,
            "velocity": 0.48031496062992124
          },
          {
            "duration": 0.042856999999997925,
            "durationTicks": 96,
            "midi": 45,
            "name": "A2",
            "ticks": 265632,
            "time": 118.585319,
            "velocity": 0.48031496062992124
          },
          {
            "duration": 0.042856999999997925,
            "durationTicks": 96,
            "midi": 57,
            "name": "A3",
            "ticks": 265632,
            "time": 118.585319,
            "velocity": 0.48031496062992124
          },
          {
            "duration": 0.042856999999997925,
            "durationTicks": 96,
            "midi": 57,
            "name": "A3",
            "ticks": 265728,
            "time": 118.628176,
            "velocity": 0.48031496062992124
          },
          {
            "duration": 0.042857000000012135,
            "durationTicks": 96,
            "midi": 60,
            "name": "C4",
            "ticks": 265920,
            "time": 118.71388999999999,
            "velocity": 0.48031496062992124
          },
          {
            "duration": 0.042857000000012135,
            "durationTicks": 96,
            "midi": 48,
            "name": "C3",
            "ticks": 265920,
            "time": 118.71388999999999,
            "velocity": 0.48031496062992124
          },
          {
            "duration": 0.042857000000012135,
            "durationTicks": 96,
            "midi": 52,
            "name": "E3",
            "ticks": 265920,
            "time": 118.71388999999999,
            "velocity": 0.48031496062992124
          },
          {
            "duration": 0.042857000000012135,
            "durationTicks": 96,
            "midi": 40,
            "name": "E2",
            "ticks": 265920,
            "time": 118.71388999999999,
            "velocity": 0.48031496062992124
          },
          {
            "duration": 0.042856999999997925,
            "durationTicks": 96,
            "midi": 52,
            "name": "E3",
            "ticks": 266016,
            "time": 118.756747,
            "velocity": 0.48031496062992124
          },
          {
            "duration": 0.042856999999997925,
            "durationTicks": 96,
            "midi": 40,
            "name": "E2",
            "ticks": 266016,
            "time": 118.756747,
            "velocity": 0.48031496062992124
          },
          {
            "duration": 0.042856999999997925,
            "durationTicks": 96,
            "midi": 52,
            "name": "E3",
            "ticks": 266112,
            "time": 118.799604,
            "velocity": 0.48031496062992124
          },
          {
            "duration": 0.042856999999997925,
            "durationTicks": 96,
            "midi": 60,
            "name": "C4",
            "ticks": 266688,
            "time": 119.056746,
            "velocity": 0.48031496062992124
          },
          {
            "duration": 0.042856999999997925,
            "durationTicks": 96,
            "midi": 48,
            "name": "C3",
            "ticks": 267840,
            "time": 119.57103,
            "velocity": 0.48031496062992124
          },
          {
            "duration": 0.042856999999997925,
            "durationTicks": 96,
            "midi": 52,
            "name": "E3",
            "ticks": 268224,
            "time": 119.742458,
            "velocity": 0.48031496062992124
          },
          {
            "duration": 0.042856999999997925,
            "durationTicks": 96,
            "midi": 60,
            "name": "C4",
            "ticks": 268224,
            "time": 119.742458,
            "velocity": 0.48031496062992124
          },
          {
            "duration": 0.042856999999997925,
            "durationTicks": 96,
            "midi": 40,
            "name": "E2",
            "ticks": 268224,
            "time": 119.742458,
            "velocity": 0.48031496062992124
          },
          {
            "duration": 0.042856999999997925,
            "durationTicks": 96,
            "midi": 52,
            "name": "E3",
            "ticks": 268320,
            "time": 119.785315,
            "velocity": 0.48031496062992124
          },
          {
            "duration": 0.042856999999997925,
            "durationTicks": 96,
            "midi": 40,
            "name": "E2",
            "ticks": 268320,
            "time": 119.785315,
            "velocity": 0.48031496062992124
          },
          {
            "duration": 0.042856999999997925,
            "durationTicks": 96,
            "midi": 52,
            "name": "E3",
            "ticks": 268416,
            "time": 119.828172,
            "velocity": 0.48031496062992124
          },
          {
            "duration": 0.042856999999997925,
            "durationTicks": 96,
            "midi": 39,
            "name": "D#2",
            "ticks": 268992,
            "time": 120.085314,
            "velocity": 0.48031496062992124
          },
          {
            "duration": 0.042856999999997925,
            "durationTicks": 96,
            "midi": 59,
            "name": "B3",
            "ticks": 268992,
            "time": 120.085314,
            "velocity": 0.48031496062992124
          },
          {
            "duration": 0.042856999999997925,
            "durationTicks": 96,
            "midi": 47,
            "name": "B2",
            "ticks": 268992,
            "time": 120.085314,
            "velocity": 0.48031496062992124
          },
          {
            "duration": 0.042856999999997925,
            "durationTicks": 96,
            "midi": 51,
            "name": "D#3",
            "ticks": 268992,
            "time": 120.085314,
            "velocity": 0.48031496062992124
          },
          {
            "duration": 0.042856999999997925,
            "durationTicks": 96,
            "midi": 39,
            "name": "D#2",
            "ticks": 269088,
            "time": 120.128171,
            "velocity": 0.48031496062992124
          },
          {
            "duration": 0.042856999999997925,
            "durationTicks": 96,
            "midi": 51,
            "name": "D#3",
            "ticks": 269088,
            "time": 120.128171,
            "velocity": 0.48031496062992124
          },
          {
            "duration": 0.042857000000012135,
            "durationTicks": 96,
            "midi": 51,
            "name": "D#3",
            "ticks": 269184,
            "time": 120.17102799999999,
            "velocity": 0.48031496062992124
          },
          {
            "duration": 0.042856999999997925,
            "durationTicks": 96,
            "midi": 59,
            "name": "B3",
            "ticks": 269760,
            "time": 120.42817,
            "velocity": 0.48031496062992124
          },
          {
            "duration": 0.042856999999997925,
            "durationTicks": 96,
            "midi": 52,
            "name": "E3",
            "ticks": 270144,
            "time": 120.599598,
            "velocity": 0.48031496062992124
          },
          {
            "duration": 0.042856999999997925,
            "durationTicks": 96,
            "midi": 40,
            "name": "E2",
            "ticks": 270144,
            "time": 120.599598,
            "velocity": 0.48031496062992124
          },
          {
            "duration": 0.042856999999997925,
            "durationTicks": 96,
            "midi": 40,
            "name": "E2",
            "ticks": 270240,
            "time": 120.642455,
            "velocity": 0.48031496062992124
          },
          {
            "duration": 0.042856999999997925,
            "durationTicks": 96,
            "midi": 52,
            "name": "E3",
            "ticks": 270240,
            "time": 120.642455,
            "velocity": 0.48031496062992124
          },
          {
            "duration": 0.042856999999997925,
            "durationTicks": 96,
            "midi": 52,
            "name": "E3",
            "ticks": 270336,
            "time": 120.685312,
            "velocity": 0.48031496062992124
          },
          {
            "duration": 0.042857000000012135,
            "durationTicks": 96,
            "midi": 60,
            "name": "C4",
            "ticks": 270528,
            "time": 120.77102599999999,
            "velocity": 0.48031496062992124
          },
          {
            "duration": 0.042857000000012135,
            "durationTicks": 96,
            "midi": 48,
            "name": "C3",
            "ticks": 270528,
            "time": 120.77102599999999,
            "velocity": 0.48031496062992124
          },
          {
            "duration": 0.042856999999997925,
            "durationTicks": 96,
            "midi": 48,
            "name": "C3",
            "ticks": 270624,
            "time": 120.813883,
            "velocity": 0.48031496062992124
          },
          {
            "duration": 0.042856999999997925,
            "durationTicks": 96,
            "midi": 60,
            "name": "C4",
            "ticks": 270624,
            "time": 120.813883,
            "velocity": 0.48031496062992124
          },
          {
            "duration": 0.042856999999997925,
            "durationTicks": 96,
            "midi": 60,
            "name": "C4",
            "ticks": 270720,
            "time": 120.85674,
            "velocity": 0.48031496062992124
          },
          {
            "duration": 0.042856999999997925,
            "durationTicks": 96,
            "midi": 47,
            "name": "B2",
            "ticks": 270912,
            "time": 120.942454,
            "velocity": 0.48031496062992124
          },
          {
            "duration": 0.042856999999997925,
            "durationTicks": 96,
            "midi": 59,
            "name": "B3",
            "ticks": 271296,
            "time": 121.113882,
            "velocity": 0.48031496062992124
          },
          {
            "duration": 0.042856999999997925,
            "durationTicks": 96,
            "midi": 59,
            "name": "B3",
            "ticks": 271680,
            "time": 121.28531,
            "velocity": 0.48031496062992124
          },
          {
            "duration": 0.042856999999997925,
            "durationTicks": 96,
            "midi": 47,
            "name": "B2",
            "ticks": 271680,
            "time": 121.28531,
            "velocity": 0.48031496062992124
          },
          {
            "duration": 0.042856999999997925,
            "durationTicks": 96,
            "midi": 59,
            "name": "B3",
            "ticks": 271776,
            "time": 121.328167,
            "velocity": 0.48031496062992124
          },
          {
            "duration": 0.042856999999997925,
            "durationTicks": 96,
            "midi": 47,
            "name": "B2",
            "ticks": 271776,
            "time": 121.328167,
            "velocity": 0.48031496062992124
          },
          {
            "duration": 0.042857000000012135,
            "durationTicks": 96,
            "midi": 59,
            "name": "B3",
            "ticks": 271872,
            "time": 121.37102399999999,
            "velocity": 0.48031496062992124
          },
          {
            "duration": 0.042856999999997925,
            "durationTicks": 96,
            "midi": 57,
            "name": "A3",
            "ticks": 272064,
            "time": 121.456738,
            "velocity": 0.48031496062992124
          },
          {
            "duration": 0.042856999999997925,
            "durationTicks": 96,
            "midi": 52,
            "name": "E3",
            "ticks": 272064,
            "time": 121.456738,
            "velocity": 0.48031496062992124
          },
          {
            "duration": 0.042856999999997925,
            "durationTicks": 96,
            "midi": 45,
            "name": "A2",
            "ticks": 272064,
            "time": 121.456738,
            "velocity": 0.48031496062992124
          },
          {
            "duration": 0.042856999999997925,
            "durationTicks": 96,
            "midi": 45,
            "name": "A2",
            "ticks": 272160,
            "time": 121.499595,
            "velocity": 0.48031496062992124
          },
          {
            "duration": 0.042856999999997925,
            "durationTicks": 96,
            "midi": 57,
            "name": "A3",
            "ticks": 272160,
            "time": 121.499595,
            "velocity": 0.48031496062992124
          },
          {
            "duration": 0.042856999999997925,
            "durationTicks": 96,
            "midi": 57,
            "name": "A3",
            "ticks": 272256,
            "time": 121.542452,
            "velocity": 0.48031496062992124
          },
          {
            "duration": 0.042856999999997925,
            "durationTicks": 96,
            "midi": 50,
            "name": "D3",
            "ticks": 272832,
            "time": 121.799594,
            "velocity": 0.48031496062992124
          },
          {
            "duration": 0.042856999999997925,
            "durationTicks": 96,
            "midi": 44,
            "name": "G#2",
            "ticks": 273600,
            "time": 122.14245,
            "velocity": 0.48031496062992124
          },
          {
            "duration": 0.042856999999997925,
            "durationTicks": 96,
            "midi": 56,
            "name": "G#3",
            "ticks": 273600,
            "time": 122.14245,
            "velocity": 0.48031496062992124
          },
          {
            "duration": 0.042856999999997925,
            "durationTicks": 96,
            "midi": 48,
            "name": "C3",
            "ticks": 273600,
            "time": 122.14245,
            "velocity": 0.48031496062992124
          },
          {
            "duration": 0.042856999999997925,
            "durationTicks": 96,
            "midi": 56,
            "name": "G#3",
            "ticks": 273696,
            "time": 122.185307,
            "velocity": 0.48031496062992124
          },
          {
            "duration": 0.042856999999997925,
            "durationTicks": 96,
            "midi": 44,
            "name": "G#2",
            "ticks": 273696,
            "time": 122.185307,
            "velocity": 0.48031496062992124
          },
          {
            "duration": 0.042857000000012135,
            "durationTicks": 96,
            "midi": 56,
            "name": "G#3",
            "ticks": 273792,
            "time": 122.22816399999999,
            "velocity": 0.48031496062992124
          },
          {
            "duration": 0.042856999999997925,
            "durationTicks": 96,
            "midi": 47,
            "name": "B2",
            "ticks": 274368,
            "time": 122.485306,
            "velocity": 0.48031496062992124
          },
          {
            "duration": 0.042857000000012135,
            "durationTicks": 96,
            "midi": 45,
            "name": "A2",
            "ticks": 275136,
            "time": 122.82816199999999,
            "velocity": 0.48031496062992124
          },
          {
            "duration": 0.042857000000012135,
            "durationTicks": 96,
            "midi": 60,
            "name": "C4",
            "ticks": 275136,
            "time": 122.82816199999999,
            "velocity": 0.48031496062992124
          },
          {
            "duration": 0.042857000000012135,
            "durationTicks": 96,
            "midi": 57,
            "name": "A3",
            "ticks": 275136,
            "time": 122.82816199999999,
            "velocity": 0.48031496062992124
          },
          {
            "duration": 0.042857000000012135,
            "durationTicks": 96,
            "midi": 48,
            "name": "C3",
            "ticks": 275136,
            "time": 122.82816199999999,
            "velocity": 0.48031496062992124
          },
          {
            "duration": 0.042856999999997925,
            "durationTicks": 96,
            "midi": 48,
            "name": "C3",
            "ticks": 275232,
            "time": 122.871019,
            "velocity": 0.48031496062992124
          },
          {
            "duration": 0.042856999999997925,
            "durationTicks": 96,
            "midi": 60,
            "name": "C4",
            "ticks": 275232,
            "time": 122.871019,
            "velocity": 0.48031496062992124
          },
          {
            "duration": 0.042856999999997925,
            "durationTicks": 96,
            "midi": 60,
            "name": "C4",
            "ticks": 275328,
            "time": 122.913876,
            "velocity": 0.48031496062992124
          },
          {
            "duration": 0.042856999999997925,
            "durationTicks": 96,
            "midi": 57,
            "name": "A3",
            "ticks": 275904,
            "time": 123.171018,
            "velocity": 0.48031496062992124
          },
          {
            "duration": 0.042856999999997925,
            "durationTicks": 96,
            "midi": 57,
            "name": "A3",
            "ticks": 276288,
            "time": 123.342446,
            "velocity": 0.48031496062992124
          },
          {
            "duration": 0.042856999999997925,
            "durationTicks": 96,
            "midi": 45,
            "name": "A2",
            "ticks": 276288,
            "time": 123.342446,
            "velocity": 0.48031496062992124
          },
          {
            "duration": 0.042856999999997925,
            "durationTicks": 96,
            "midi": 57,
            "name": "A3",
            "ticks": 276384,
            "time": 123.385303,
            "velocity": 0.48031496062992124
          },
          {
            "duration": 0.042856999999997925,
            "durationTicks": 96,
            "midi": 45,
            "name": "A2",
            "ticks": 276384,
            "time": 123.385303,
            "velocity": 0.48031496062992124
          },
          {
            "duration": 0.042857000000012135,
            "durationTicks": 96,
            "midi": 57,
            "name": "A3",
            "ticks": 276480,
            "time": 123.42815999999999,
            "velocity": 0.48031496062992124
          },
          {
            "duration": 0.042856999999997925,
            "durationTicks": 96,
            "midi": 56,
            "name": "G#3",
            "ticks": 276672,
            "time": 123.513874,
            "velocity": 0.48031496062992124
          },
          {
            "duration": 0.042856999999997925,
            "durationTicks": 96,
            "midi": 44,
            "name": "G#2",
            "ticks": 276672,
            "time": 123.513874,
            "velocity": 0.48031496062992124
          },
          {
            "duration": 0.042856999999997925,
            "durationTicks": 96,
            "midi": 56,
            "name": "G#3",
            "ticks": 276768,
            "time": 123.556731,
            "velocity": 0.48031496062992124
          },
          {
            "duration": 0.042856999999997925,
            "durationTicks": 96,
            "midi": 44,
            "name": "G#2",
            "ticks": 276768,
            "time": 123.556731,
            "velocity": 0.48031496062992124
          },
          {
            "duration": 0.042856999999997925,
            "durationTicks": 96,
            "midi": 56,
            "name": "G#3",
            "ticks": 276864,
            "time": 123.599588,
            "velocity": 0.48031496062992124
          },
          {
            "duration": 0.042856999999997925,
            "durationTicks": 96,
            "midi": 45,
            "name": "A2",
            "ticks": 277056,
            "time": 123.685302,
            "velocity": 0.48031496062992124
          },
          {
            "duration": 0.042856999999997925,
            "durationTicks": 96,
            "midi": 57,
            "name": "A3",
            "ticks": 277440,
            "time": 123.85673,
            "velocity": 0.48031496062992124
          },
          {
            "duration": 0.042856999999997925,
            "durationTicks": 96,
            "midi": 45,
            "name": "A2",
            "ticks": 277824,
            "time": 124.028158,
            "velocity": 0.48031496062992124
          },
          {
            "duration": 0.042856999999997925,
            "durationTicks": 96,
            "midi": 57,
            "name": "A3",
            "ticks": 277824,
            "time": 124.028158,
            "velocity": 0.48031496062992124
          },
          {
            "duration": 0.042856999999997925,
            "durationTicks": 96,
            "midi": 57,
            "name": "A3",
            "ticks": 277920,
            "time": 124.071015,
            "velocity": 0.48031496062992124
          },
          {
            "duration": 0.042856999999997925,
            "durationTicks": 96,
            "midi": 45,
            "name": "A2",
            "ticks": 277920,
            "time": 124.071015,
            "velocity": 0.48031496062992124
          },
          {
            "duration": 0.042856999999997925,
            "durationTicks": 96,
            "midi": 57,
            "name": "A3",
            "ticks": 278016,
            "time": 124.113872,
            "velocity": 0.48031496062992124
          },
          {
            "duration": 0.042856999999997925,
            "durationTicks": 96,
            "midi": 52,
            "name": "E3",
            "ticks": 278208,
            "time": 124.199586,
            "velocity": 0.48031496062992124
          },
          {
            "duration": 0.042856999999997925,
            "durationTicks": 96,
            "midi": 40,
            "name": "E2",
            "ticks": 278208,
            "time": 124.199586,
            "velocity": 0.48031496062992124
          },
          {
            "duration": 0.042856999999997925,
            "durationTicks": 96,
            "midi": 60,
            "name": "C4",
            "ticks": 278208,
            "time": 124.199586,
            "velocity": 0.48031496062992124
          },
          {
            "duration": 0.042856999999997925,
            "durationTicks": 96,
            "midi": 48,
            "name": "C3",
            "ticks": 278208,
            "time": 124.199586,
            "velocity": 0.48031496062992124
          },
          {
            "duration": 0.042856999999997925,
            "durationTicks": 96,
            "midi": 52,
            "name": "E3",
            "ticks": 278304,
            "time": 124.242443,
            "velocity": 0.48031496062992124
          },
          {
            "duration": 0.042856999999997925,
            "durationTicks": 96,
            "midi": 40,
            "name": "E2",
            "ticks": 278304,
            "time": 124.242443,
            "velocity": 0.48031496062992124
          },
          {
            "duration": 0.042857000000012135,
            "durationTicks": 96,
            "midi": 52,
            "name": "E3",
            "ticks": 278400,
            "time": 124.28529999999999,
            "velocity": 0.48031496062992124
          },
          {
            "duration": 0.042856999999997925,
            "durationTicks": 96,
            "midi": 60,
            "name": "C4",
            "ticks": 278976,
            "time": 124.542442,
            "velocity": 0.48031496062992124
          },
          {
            "duration": 0.042856999999997925,
            "durationTicks": 96,
            "midi": 48,
            "name": "C3",
            "ticks": 280128,
            "time": 125.056726,
            "velocity": 0.48031496062992124
          },
          {
            "duration": 0.042856999999997925,
            "durationTicks": 96,
            "midi": 60,
            "name": "C4",
            "ticks": 280512,
            "time": 125.228154,
            "velocity": 0.48031496062992124
          },
          {
            "duration": 0.042856999999997925,
            "durationTicks": 96,
            "midi": 64,
            "name": "E4",
            "ticks": 280512,
            "time": 125.228154,
            "velocity": 0.48031496062992124
          },
          {
            "duration": 0.042856999999997925,
            "durationTicks": 96,
            "midi": 52,
            "name": "E3",
            "ticks": 280512,
            "time": 125.228154,
            "velocity": 0.48031496062992124
          },
          {
            "duration": 0.042856999999997925,
            "durationTicks": 96,
            "midi": 64,
            "name": "E4",
            "ticks": 280608,
            "time": 125.271011,
            "velocity": 0.48031496062992124
          },
          {
            "duration": 0.042856999999997925,
            "durationTicks": 96,
            "midi": 52,
            "name": "E3",
            "ticks": 280608,
            "time": 125.271011,
            "velocity": 0.48031496062992124
          },
          {
            "duration": 0.042856999999997925,
            "durationTicks": 96,
            "midi": 64,
            "name": "E4",
            "ticks": 280704,
            "time": 125.313868,
            "velocity": 0.48031496062992124
          },
          {
            "duration": 0.042856999999997925,
            "durationTicks": 96,
            "midi": 63,
            "name": "D#4",
            "ticks": 281280,
            "time": 125.57101,
            "velocity": 0.48031496062992124
          },
          {
            "duration": 0.042856999999997925,
            "durationTicks": 96,
            "midi": 51,
            "name": "D#3",
            "ticks": 281280,
            "time": 125.57101,
            "velocity": 0.48031496062992124
          },
          {
            "duration": 0.042856999999997925,
            "durationTicks": 96,
            "midi": 53,
            "name": "F3",
            "ticks": 281280,
            "time": 125.57101,
            "velocity": 0.48031496062992124
          },
          {
            "duration": 0.042856999999997925,
            "durationTicks": 96,
            "midi": 41,
            "name": "F2",
            "ticks": 281280,
            "time": 125.57101,
            "velocity": 0.48031496062992124
          },
          {
            "duration": 0.042856999999997925,
            "durationTicks": 96,
            "midi": 63,
            "name": "D#4",
            "ticks": 281376,
            "time": 125.613867,
            "velocity": 0.48031496062992124
          },
          {
            "duration": 0.042856999999997925,
            "durationTicks": 96,
            "midi": 51,
            "name": "D#3",
            "ticks": 281376,
            "time": 125.613867,
            "velocity": 0.48031496062992124
          },
          {
            "duration": 0.042856999999997925,
            "durationTicks": 96,
            "midi": 63,
            "name": "D#4",
            "ticks": 281472,
            "time": 125.656724,
            "velocity": 0.48031496062992124
          },
          {
            "duration": 0.042856999999997925,
            "durationTicks": 96,
            "midi": 53,
            "name": "F3",
            "ticks": 282048,
            "time": 125.913866,
            "velocity": 0.48031496062992124
          },
          {
            "duration": 0.042856999999997925,
            "durationTicks": 96,
            "midi": 60,
            "name": "C4",
            "ticks": 282432,
            "time": 126.085294,
            "velocity": 0.48031496062992124
          },
          {
            "duration": 0.042856999999997925,
            "durationTicks": 96,
            "midi": 48,
            "name": "C3",
            "ticks": 282432,
            "time": 126.085294,
            "velocity": 0.48031496062992124
          },
          {
            "duration": 0.042856999999997925,
            "durationTicks": 96,
            "midi": 48,
            "name": "C3",
            "ticks": 282528,
            "time": 126.128151,
            "velocity": 0.48031496062992124
          },
          {
            "duration": 0.042856999999997925,
            "durationTicks": 96,
            "midi": 60,
            "name": "C4",
            "ticks": 282528,
            "time": 126.128151,
            "velocity": 0.48031496062992124
          },
          {
            "duration": 0.042856999999997925,
            "durationTicks": 96,
            "midi": 60,
            "name": "C4",
            "ticks": 282624,
            "time": 126.171008,
            "velocity": 0.48031496062992124
          },
          {
            "duration": 0.042856999999997925,
            "durationTicks": 96,
            "midi": 47,
            "name": "B2",
            "ticks": 282816,
            "time": 126.256722,
            "velocity": 0.48031496062992124
          },
          {
            "duration": 0.042856999999997925,
            "durationTicks": 96,
            "midi": 59,
            "name": "B3",
            "ticks": 282816,
            "time": 126.256722,
            "velocity": 0.48031496062992124
          },
          {
            "duration": 0.042856999999997925,
            "durationTicks": 96,
            "midi": 47,
            "name": "B2",
            "ticks": 282912,
            "time": 126.299579,
            "velocity": 0.48031496062992124
          },
          {
            "duration": 0.042856999999997925,
            "durationTicks": 96,
            "midi": 59,
            "name": "B3",
            "ticks": 282912,
            "time": 126.299579,
            "velocity": 0.48031496062992124
          },
          {
            "duration": 0.042857000000012135,
            "durationTicks": 96,
            "midi": 59,
            "name": "B3",
            "ticks": 283008,
            "time": 126.34243599999999,
            "velocity": 0.48031496062992124
          },
          {
            "duration": 0.042856999999997925,
            "durationTicks": 96,
            "midi": 41,
            "name": "F2",
            "ticks": 283200,
            "time": 126.42815,
            "velocity": 0.48031496062992124
          },
          {
            "duration": 0.042856999999997925,
            "durationTicks": 96,
            "midi": 53,
            "name": "F3",
            "ticks": 283584,
            "time": 126.599578,
            "velocity": 0.48031496062992124
          },
          {
            "duration": 0.042856999999997925,
            "durationTicks": 96,
            "midi": 45,
            "name": "A2",
            "ticks": 283968,
            "time": 126.771006,
            "velocity": 0.48031496062992124
          },
          {
            "duration": 0.042856999999997925,
            "durationTicks": 96,
            "midi": 57,
            "name": "A3",
            "ticks": 283968,
            "time": 126.771006,
            "velocity": 0.48031496062992124
          },
          {
            "duration": 0.042856999999997925,
            "durationTicks": 96,
            "midi": 45,
            "name": "A2",
            "ticks": 284064,
            "time": 126.813863,
            "velocity": 0.48031496062992124
          },
          {
            "duration": 0.042856999999997925,
            "durationTicks": 96,
            "midi": 57,
            "name": "A3",
            "ticks": 284064,
            "time": 126.813863,
            "velocity": 0.48031496062992124
          },
          {
            "duration": 0.042856999999997925,
            "durationTicks": 96,
            "midi": 57,
            "name": "A3",
            "ticks": 284160,
            "time": 126.85672,
            "velocity": 0.48031496062992124
          },
          {
            "duration": 0.042857000000012135,
            "durationTicks": 96,
            "midi": 57,
            "name": "A3",
            "ticks": 284352,
            "time": 126.94243399999999,
            "velocity": 0.48031496062992124
          },
          {
            "duration": 0.042857000000012135,
            "durationTicks": 96,
            "midi": 45,
            "name": "A2",
            "ticks": 284352,
            "time": 126.94243399999999,
            "velocity": 0.48031496062992124
          },
          {
            "duration": 0.042857000000012135,
            "durationTicks": 96,
            "midi": 47,
            "name": "B2",
            "ticks": 284352,
            "time": 126.94243399999999,
            "velocity": 0.48031496062992124
          },
          {
            "duration": 0.042857000000012135,
            "durationTicks": 96,
            "midi": 52,
            "name": "E3",
            "ticks": 284352,
            "time": 126.94243399999999,
            "velocity": 0.48031496062992124
          },
          {
            "duration": 0.042857000000012135,
            "durationTicks": 96,
            "midi": 44,
            "name": "G#2",
            "ticks": 284352,
            "time": 126.94243399999999,
            "velocity": 0.48031496062992124
          },
          {
            "duration": 0.042857000000012135,
            "durationTicks": 96,
            "midi": 40,
            "name": "E2",
            "ticks": 284352,
            "time": 126.94243399999999,
            "velocity": 0.48031496062992124
          },
          {
            "duration": 0.042856999999997925,
            "durationTicks": 96,
            "midi": 45,
            "name": "A2",
            "ticks": 284448,
            "time": 126.985291,
            "velocity": 0.48031496062992124
          },
          {
            "duration": 0.042856999999997925,
            "durationTicks": 96,
            "midi": 57,
            "name": "A3",
            "ticks": 284448,
            "time": 126.985291,
            "velocity": 0.48031496062992124
          },
          {
            "duration": 0.042856999999997925,
            "durationTicks": 96,
            "midi": 57,
            "name": "A3",
            "ticks": 284544,
            "time": 127.028148,
            "velocity": 0.48031496062992124
          },
          {
            "duration": 0.042856999999997925,
            "durationTicks": 96,
            "midi": 57,
            "name": "A3",
            "ticks": 284640,
            "time": 127.071005,
            "velocity": 0.48031496062992124
          },
          {
            "duration": 0.042856999999997925,
            "durationTicks": 96,
            "midi": 57,
            "name": "A3",
            "ticks": 284736,
            "time": 127.113862,
            "velocity": 0.48031496062992124
          },
          {
            "duration": 0.042856999999997925,
            "durationTicks": 96,
            "midi": 57,
            "name": "A3",
            "ticks": 284832,
            "time": 127.156719,
            "velocity": 0.48031496062992124
          },
          {
            "duration": 0.042856999999997925,
            "durationTicks": 96,
            "midi": 59,
            "name": "B3",
            "ticks": 285888,
            "time": 127.628146,
            "velocity": 0.48031496062992124
          },
          {
            "duration": 0.042856999999997925,
            "durationTicks": 96,
            "midi": 47,
            "name": "B2",
            "ticks": 285888,
            "time": 127.628146,
            "velocity": 0.48031496062992124
          },
          {
            "duration": 0.042856999999997925,
            "durationTicks": 96,
            "midi": 59,
            "name": "B3",
            "ticks": 285984,
            "time": 127.671003,
            "velocity": 0.48031496062992124
          },
          {
            "duration": 0.042856999999997925,
            "durationTicks": 96,
            "midi": 47,
            "name": "B2",
            "ticks": 285984,
            "time": 127.671003,
            "velocity": 0.48031496062992124
          },
          {
            "duration": 0.042856999999997925,
            "durationTicks": 96,
            "midi": 59,
            "name": "B3",
            "ticks": 286080,
            "time": 127.71386,
            "velocity": 0.48031496062992124
          },
          {
            "duration": 0.042856999999997925,
            "durationTicks": 96,
            "midi": 59,
            "name": "B3",
            "ticks": 286176,
            "time": 127.756717,
            "velocity": 0.48031496062992124
          },
          {
            "duration": 0.042857000000012135,
            "durationTicks": 96,
            "midi": 59,
            "name": "B3",
            "ticks": 286272,
            "time": 127.79957399999999,
            "velocity": 0.48031496062992124
          },
          {
            "duration": 0.042856999999997925,
            "durationTicks": 96,
            "midi": 59,
            "name": "B3",
            "ticks": 286368,
            "time": 127.842431,
            "velocity": 0.48031496062992124
          },
          {
            "duration": 0.042856999999997925,
            "durationTicks": 96,
            "midi": 72,
            "name": "C5",
            "ticks": 287424,
            "time": 128.313858,
            "velocity": 0.48031496062992124
          },
          {
            "duration": 0.042856999999997925,
            "durationTicks": 96,
            "midi": 60,
            "name": "C4",
            "ticks": 287424,
            "time": 128.313858,
            "velocity": 0.48031496062992124
          },
          {
            "duration": 0.042856999999997925,
            "durationTicks": 96,
            "midi": 45,
            "name": "A2",
            "ticks": 287424,
            "time": 128.313858,
            "velocity": 0.48031496062992124
          },
          {
            "duration": 0.042856999999997925,
            "durationTicks": 96,
            "midi": 60,
            "name": "C4",
            "ticks": 287520,
            "time": 128.356715,
            "velocity": 0.48031496062992124
          },
          {
            "duration": 0.042856999999997925,
            "durationTicks": 96,
            "midi": 72,
            "name": "C5",
            "ticks": 287520,
            "time": 128.356715,
            "velocity": 0.48031496062992124
          },
          {
            "duration": 0.042856999999997925,
            "durationTicks": 96,
            "midi": 72,
            "name": "C5",
            "ticks": 287616,
            "time": 128.399572,
            "velocity": 0.48031496062992124
          },
          {
            "duration": 0.042857000000026346,
            "durationTicks": 96,
            "midi": 57,
            "name": "A3",
            "ticks": 288576,
            "time": 128.82814199999999,
            "velocity": 0.48031496062992124
          },
          {
            "duration": 0.042857000000026346,
            "durationTicks": 96,
            "midi": 69,
            "name": "A4",
            "ticks": 288576,
            "time": 128.82814199999999,
            "velocity": 0.48031496062992124
          },
          {
            "duration": 0.042856999999997925,
            "durationTicks": 96,
            "midi": 57,
            "name": "A3",
            "ticks": 288672,
            "time": 128.870999,
            "velocity": 0.48031496062992124
          },
          {
            "duration": 0.042856999999997925,
            "durationTicks": 96,
            "midi": 69,
            "name": "A4",
            "ticks": 288672,
            "time": 128.870999,
            "velocity": 0.48031496062992124
          },
          {
            "duration": 0.042856999999997925,
            "durationTicks": 96,
            "midi": 69,
            "name": "A4",
            "ticks": 288768,
            "time": 128.913856,
            "velocity": 0.48031496062992124
          },
          {
            "duration": 0.042856999999997925,
            "durationTicks": 96,
            "midi": 45,
            "name": "A2",
            "ticks": 288960,
            "time": 128.99957,
            "velocity": 0.48031496062992124
          },
          {
            "duration": 0.042856999999997925,
            "durationTicks": 96,
            "midi": 68,
            "name": "G#4",
            "ticks": 288960,
            "time": 128.99957,
            "velocity": 0.48031496062992124
          },
          {
            "duration": 0.042856999999997925,
            "durationTicks": 96,
            "midi": 56,
            "name": "G#3",
            "ticks": 288960,
            "time": 128.99957,
            "velocity": 0.48031496062992124
          },
          {
            "duration": 0.042856999999997925,
            "durationTicks": 96,
            "midi": 56,
            "name": "G#3",
            "ticks": 289056,
            "time": 129.042427,
            "velocity": 0.48031496062992124
          },
          {
            "duration": 0.042856999999997925,
            "durationTicks": 96,
            "midi": 68,
            "name": "G#4",
            "ticks": 289056,
            "time": 129.042427,
            "velocity": 0.48031496062992124
          },
          {
            "duration": 0.042856999999997925,
            "durationTicks": 96,
            "midi": 68,
            "name": "G#4",
            "ticks": 289152,
            "time": 129.085284,
            "velocity": 0.48031496062992124
          },
          {
            "duration": 0.042856999999997925,
            "durationTicks": 96,
            "midi": 69,
            "name": "A4",
            "ticks": 290112,
            "time": 129.513854,
            "velocity": 0.48031496062992124
          },
          {
            "duration": 0.042856999999997925,
            "durationTicks": 96,
            "midi": 57,
            "name": "A3",
            "ticks": 290112,
            "time": 129.513854,
            "velocity": 0.48031496062992124
          },
          {
            "duration": 0.042856999999997925,
            "durationTicks": 96,
            "midi": 57,
            "name": "A3",
            "ticks": 290208,
            "time": 129.556711,
            "velocity": 0.48031496062992124
          },
          {
            "duration": 0.042856999999997925,
            "durationTicks": 96,
            "midi": 69,
            "name": "A4",
            "ticks": 290208,
            "time": 129.556711,
            "velocity": 0.48031496062992124
          },
          {
            "duration": 0.042856999999997925,
            "durationTicks": 96,
            "midi": 69,
            "name": "A4",
            "ticks": 290304,
            "time": 129.599568,
            "velocity": 0.48031496062992124
          },
          {
            "duration": 0.042856999999997925,
            "durationTicks": 96,
            "midi": 52,
            "name": "E3",
            "ticks": 290496,
            "time": 129.685282,
            "velocity": 0.48031496062992124
          },
          {
            "duration": 0.042856999999997925,
            "durationTicks": 96,
            "midi": 64,
            "name": "E4",
            "ticks": 290496,
            "time": 129.685282,
            "velocity": 0.48031496062992124
          },
          {
            "duration": 0.042856999999997925,
            "durationTicks": 96,
            "midi": 64,
            "name": "E4",
            "ticks": 290592,
            "time": 129.728139,
            "velocity": 0.48031496062992124
          },
          {
            "duration": 0.042856999999997925,
            "durationTicks": 96,
            "midi": 52,
            "name": "E3",
            "ticks": 290592,
            "time": 129.728139,
            "velocity": 0.48031496062992124
          },
          {
            "duration": 0.042856999999997925,
            "durationTicks": 96,
            "midi": 64,
            "name": "E4",
            "ticks": 290688,
            "time": 129.770996,
            "velocity": 0.48031496062992124
          },
          {
            "duration": 0.042856999999997925,
            "durationTicks": 96,
            "midi": 48,
            "name": "C3",
            "ticks": 290880,
            "time": 129.85671,
            "velocity": 0.48031496062992124
          },
          {
            "duration": 0.042857000000026346,
            "durationTicks": 96,
            "midi": 48,
            "name": "C3",
            "ticks": 291264,
            "time": 130.02813799999998,
            "velocity": 0.48031496062992124
          },
          {
            "duration": 0.042856999999997925,
            "durationTicks": 96,
            "midi": 60,
            "name": "C4",
            "ticks": 292032,
            "time": 130.370994,
            "velocity": 0.48031496062992124
          },
          {
            "duration": 0.042856999999997925,
            "durationTicks": 96,
            "midi": 52,
            "name": "E3",
            "ticks": 292800,
            "time": 130.71385,
            "velocity": 0.48031496062992124
          },
          {
            "duration": 0.042856999999997925,
            "durationTicks": 96,
            "midi": 64,
            "name": "E4",
            "ticks": 292800,
            "time": 130.71385,
            "velocity": 0.48031496062992124
          },
          {
            "duration": 0.042856999999997925,
            "durationTicks": 96,
            "midi": 64,
            "name": "E4",
            "ticks": 292896,
            "time": 130.756707,
            "velocity": 0.48031496062992124
          },
          {
            "duration": 0.042856999999997925,
            "durationTicks": 96,
            "midi": 52,
            "name": "E3",
            "ticks": 292896,
            "time": 130.756707,
            "velocity": 0.48031496062992124
          },
          {
            "duration": 0.042856999999997925,
            "durationTicks": 96,
            "midi": 64,
            "name": "E4",
            "ticks": 292992,
            "time": 130.799564,
            "velocity": 0.48031496062992124
          },
          {
            "duration": 0.042856999999997925,
            "durationTicks": 96,
            "midi": 51,
            "name": "D#3",
            "ticks": 293568,
            "time": 131.056706,
            "velocity": 0.48031496062992124
          },
          {
            "duration": 0.042856999999997925,
            "durationTicks": 96,
            "midi": 47,
            "name": "B2",
            "ticks": 293568,
            "time": 131.056706,
            "velocity": 0.48031496062992124
          },
          {
            "duration": 0.042856999999997925,
            "durationTicks": 96,
            "midi": 63,
            "name": "D#4",
            "ticks": 293568,
            "time": 131.056706,
            "velocity": 0.48031496062992124
          },
          {
            "duration": 0.042856999999997925,
            "durationTicks": 96,
            "midi": 51,
            "name": "D#3",
            "ticks": 293664,
            "time": 131.099563,
            "velocity": 0.48031496062992124
          },
          {
            "duration": 0.042856999999997925,
            "durationTicks": 96,
            "midi": 63,
            "name": "D#4",
            "ticks": 293664,
            "time": 131.099563,
            "velocity": 0.48031496062992124
          },
          {
            "duration": 0.042856999999997925,
            "durationTicks": 96,
            "midi": 63,
            "name": "D#4",
            "ticks": 293760,
            "time": 131.14242,
            "velocity": 0.48031496062992124
          },
          {
            "duration": 0.042856999999997925,
            "durationTicks": 96,
            "midi": 52,
            "name": "E3",
            "ticks": 294720,
            "time": 131.57099,
            "velocity": 0.48031496062992124
          },
          {
            "duration": 0.042856999999997925,
            "durationTicks": 96,
            "midi": 64,
            "name": "E4",
            "ticks": 294720,
            "time": 131.57099,
            "velocity": 0.48031496062992124
          },
          {
            "duration": 0.042856999999997925,
            "durationTicks": 96,
            "midi": 64,
            "name": "E4",
            "ticks": 294816,
            "time": 131.613847,
            "velocity": 0.48031496062992124
          },
          {
            "duration": 0.042856999999997925,
            "durationTicks": 96,
            "midi": 52,
            "name": "E3",
            "ticks": 294816,
            "time": 131.613847,
            "velocity": 0.48031496062992124
          },
          {
            "duration": 0.042856999999997925,
            "durationTicks": 96,
            "midi": 64,
            "name": "E4",
            "ticks": 294912,
            "time": 131.656704,
            "velocity": 0.48031496062992124
          },
          {
            "duration": 0.042856999999997925,
            "durationTicks": 96,
            "midi": 72,
            "name": "C5",
            "ticks": 295104,
            "time": 131.742418,
            "velocity": 0.48031496062992124
          },
          {
            "duration": 0.042856999999997925,
            "durationTicks": 96,
            "midi": 60,
            "name": "C4",
            "ticks": 295104,
            "time": 131.742418,
            "velocity": 0.48031496062992124
          },
          {
            "duration": 0.042856999999997925,
            "durationTicks": 96,
            "midi": 59,
            "name": "B3",
            "ticks": 295104,
            "time": 131.742418,
            "velocity": 0.48031496062992124
          },
          {
            "duration": 0.042857000000026346,
            "durationTicks": 96,
            "midi": 60,
            "name": "C4",
            "ticks": 295200,
            "time": 131.78527499999998,
            "velocity": 0.48031496062992124
          },
          {
            "duration": 0.042857000000026346,
            "durationTicks": 96,
            "midi": 72,
            "name": "C5",
            "ticks": 295200,
            "time": 131.78527499999998,
            "velocity": 0.48031496062992124
          },
          {
            "duration": 0.042856999999997925,
            "durationTicks": 96,
            "midi": 47,
            "name": "B2",
            "ticks": 295296,
            "time": 131.828132,
            "velocity": 0.48031496062992124
          },
          {
            "duration": 0.042856999999997925,
            "durationTicks": 96,
            "midi": 72,
            "name": "C5",
            "ticks": 295296,
            "time": 131.828132,
            "velocity": 0.48031496062992124
          },
          {
            "duration": 0.042856999999997925,
            "durationTicks": 96,
            "midi": 59,
            "name": "B3",
            "ticks": 295488,
            "time": 131.913846,
            "velocity": 0.48031496062992124
          },
          {
            "duration": 0.042856999999997925,
            "durationTicks": 96,
            "midi": 47,
            "name": "B2",
            "ticks": 295680,
            "time": 131.99956,
            "velocity": 0.48031496062992124
          },
          {
            "duration": 0.042856999999997925,
            "durationTicks": 96,
            "midi": 59,
            "name": "B3",
            "ticks": 295872,
            "time": 132.085274,
            "velocity": 0.48031496062992124
          },
          {
            "duration": 0.042856999999997925,
            "durationTicks": 96,
            "midi": 47,
            "name": "B2",
            "ticks": 296064,
            "time": 132.170988,
            "velocity": 0.48031496062992124
          },
          {
            "duration": 0.042856999999997925,
            "durationTicks": 96,
            "midi": 71,
            "name": "B4",
            "ticks": 296256,
            "time": 132.256702,
            "velocity": 0.48031496062992124
          },
          {
            "duration": 0.042856999999997925,
            "durationTicks": 96,
            "midi": 59,
            "name": "B3",
            "ticks": 296256,
            "time": 132.256702,
            "velocity": 0.48031496062992124
          },
          {
            "duration": 0.042856999999997925,
            "durationTicks": 96,
            "midi": 59,
            "name": "B3",
            "ticks": 296256,
            "time": 132.256702,
            "velocity": 0.48031496062992124
          },
          {
            "duration": 0.042856999999997925,
            "durationTicks": 96,
            "midi": 59,
            "name": "B3",
            "ticks": 296352,
            "time": 132.299559,
            "velocity": 0.48031496062992124
          },
          {
            "duration": 0.042856999999997925,
            "durationTicks": 96,
            "midi": 71,
            "name": "B4",
            "ticks": 296352,
            "time": 132.299559,
            "velocity": 0.48031496062992124
          },
          {
            "duration": 0.042856999999997925,
            "durationTicks": 96,
            "midi": 71,
            "name": "B4",
            "ticks": 296448,
            "time": 132.342416,
            "velocity": 0.48031496062992124
          },
          {
            "duration": 0.042856999999997925,
            "durationTicks": 96,
            "midi": 47,
            "name": "B2",
            "ticks": 296448,
            "time": 132.342416,
            "velocity": 0.48031496062992124
          },
          {
            "duration": 0.042856999999997925,
            "durationTicks": 96,
            "midi": 57,
            "name": "A3",
            "ticks": 296640,
            "time": 132.42813,
            "velocity": 0.48031496062992124
          },
          {
            "duration": 0.042856999999997925,
            "durationTicks": 96,
            "midi": 69,
            "name": "A4",
            "ticks": 296640,
            "time": 132.42813,
            "velocity": 0.48031496062992124
          },
          {
            "duration": 0.042856999999997925,
            "durationTicks": 96,
            "midi": 47,
            "name": "B2",
            "ticks": 296640,
            "time": 132.42813,
            "velocity": 0.48031496062992124
          },
          {
            "duration": 0.042856999999997925,
            "durationTicks": 96,
            "midi": 57,
            "name": "A3",
            "ticks": 296736,
            "time": 132.470987,
            "velocity": 0.48031496062992124
          },
          {
            "duration": 0.042856999999997925,
            "durationTicks": 96,
            "midi": 69,
            "name": "A4",
            "ticks": 296736,
            "time": 132.470987,
            "velocity": 0.48031496062992124
          },
          {
            "duration": 0.042856999999997925,
            "durationTicks": 96,
            "midi": 69,
            "name": "A4",
            "ticks": 296832,
            "time": 132.513844,
            "velocity": 0.48031496062992124
          },
          {
            "duration": 0.042856999999997925,
            "durationTicks": 96,
            "midi": 40,
            "name": "E2",
            "ticks": 297024,
            "time": 132.599558,
            "velocity": 0.48031496062992124
          },
          {
            "duration": 0.042856999999997925,
            "durationTicks": 96,
            "midi": 40,
            "name": "E2",
            "ticks": 297408,
            "time": 132.770986,
            "velocity": 0.48031496062992124
          },
          {
            "duration": 0.042856999999997925,
            "durationTicks": 96,
            "midi": 52,
            "name": "E3",
            "ticks": 298176,
            "time": 133.113842,
            "velocity": 0.48031496062992124
          },
          {
            "duration": 0.042856999999997925,
            "durationTicks": 96,
            "midi": 56,
            "name": "G#3",
            "ticks": 298176,
            "time": 133.113842,
            "velocity": 0.48031496062992124
          },
          {
            "duration": 0.042856999999997925,
            "durationTicks": 96,
            "midi": 68,
            "name": "G#4",
            "ticks": 298176,
            "time": 133.113842,
            "velocity": 0.48031496062992124
          },
          {
            "duration": 0.042856999999997925,
            "durationTicks": 96,
            "midi": 56,
            "name": "G#3",
            "ticks": 298272,
            "time": 133.156699,
            "velocity": 0.48031496062992124
          },
          {
            "duration": 0.042856999999997925,
            "durationTicks": 96,
            "midi": 68,
            "name": "G#4",
            "ticks": 298272,
            "time": 133.156699,
            "velocity": 0.48031496062992124
          },
          {
            "duration": 0.042856999999997925,
            "durationTicks": 96,
            "midi": 68,
            "name": "G#4",
            "ticks": 298368,
            "time": 133.199556,
            "velocity": 0.48031496062992124
          },
          {
            "duration": 0.042856999999997925,
            "durationTicks": 96,
            "midi": 40,
            "name": "E2",
            "ticks": 298560,
            "time": 133.28527,
            "velocity": 0.48031496062992124
          },
          {
            "duration": 0.042856999999997925,
            "durationTicks": 96,
            "midi": 40,
            "name": "E2",
            "ticks": 298944,
            "time": 133.456698,
            "velocity": 0.48031496062992124
          },
          {
            "duration": 0.042856999999997925,
            "durationTicks": 96,
            "midi": 45,
            "name": "A2",
            "ticks": 299712,
            "time": 133.799554,
            "velocity": 0.48031496062992124
          },
          {
            "duration": 0.042856999999997925,
            "durationTicks": 96,
            "midi": 72,
            "name": "C5",
            "ticks": 299712,
            "time": 133.799554,
            "velocity": 0.48031496062992124
          },
          {
            "duration": 0.042856999999997925,
            "durationTicks": 96,
            "midi": 60,
            "name": "C4",
            "ticks": 299712,
            "time": 133.799554,
            "velocity": 0.48031496062992124
          },
          {
            "duration": 0.042856999999997925,
            "durationTicks": 96,
            "midi": 72,
            "name": "C5",
            "ticks": 299808,
            "time": 133.842411,
            "velocity": 0.48031496062992124
          },
          {
            "duration": 0.042856999999997925,
            "durationTicks": 96,
            "midi": 60,
            "name": "C4",
            "ticks": 299808,
            "time": 133.842411,
            "velocity": 0.48031496062992124
          },
          {
            "duration": 0.042856999999997925,
            "durationTicks": 96,
            "midi": 72,
            "name": "C5",
            "ticks": 299904,
            "time": 133.885268,
            "velocity": 0.48031496062992124
          },
          {
            "duration": 0.042856999999997925,
            "durationTicks": 96,
            "midi": 69,
            "name": "A4",
            "ticks": 300864,
            "time": 134.313838,
            "velocity": 0.48031496062992124
          },
          {
            "duration": 0.042856999999997925,
            "durationTicks": 96,
            "midi": 57,
            "name": "A3",
            "ticks": 300864,
            "time": 134.313838,
            "velocity": 0.48031496062992124
          },
          {
            "duration": 0.042856999999997925,
            "durationTicks": 96,
            "midi": 57,
            "name": "A3",
            "ticks": 300960,
            "time": 134.356695,
            "velocity": 0.48031496062992124
          },
          {
            "duration": 0.042856999999997925,
            "durationTicks": 96,
            "midi": 69,
            "name": "A4",
            "ticks": 300960,
            "time": 134.356695,
            "velocity": 0.48031496062992124
          },
          {
            "duration": 0.042856999999997925,
            "durationTicks": 96,
            "midi": 69,
            "name": "A4",
            "ticks": 301056,
            "time": 134.399552,
            "velocity": 0.48031496062992124
          },
          {
            "duration": 0.042856999999997925,
            "durationTicks": 96,
            "midi": 56,
            "name": "G#3",
            "ticks": 301248,
            "time": 134.485266,
            "velocity": 0.48031496062992124
          },
          {
            "duration": 0.042856999999997925,
            "durationTicks": 96,
            "midi": 45,
            "name": "A2",
            "ticks": 301248,
            "time": 134.485266,
            "velocity": 0.48031496062992124
          },
          {
            "duration": 0.042856999999997925,
            "durationTicks": 96,
            "midi": 68,
            "name": "G#4",
            "ticks": 301248,
            "time": 134.485266,
            "velocity": 0.48031496062992124
          },
          {
            "duration": 0.042856999999997925,
            "durationTicks": 96,
            "midi": 56,
            "name": "G#3",
            "ticks": 301344,
            "time": 134.528123,
            "velocity": 0.48031496062992124
          },
          {
            "duration": 0.042856999999997925,
            "durationTicks": 96,
            "midi": 68,
            "name": "G#4",
            "ticks": 301344,
            "time": 134.528123,
            "velocity": 0.48031496062992124
          },
          {
            "duration": 0.042856999999997925,
            "durationTicks": 96,
            "midi": 68,
            "name": "G#4",
            "ticks": 301440,
            "time": 134.57098,
            "velocity": 0.48031496062992124
          },
          {
            "duration": 0.042856999999997925,
            "durationTicks": 96,
            "midi": 69,
            "name": "A4",
            "ticks": 302400,
            "time": 134.99955,
            "velocity": 0.48031496062992124
          },
          {
            "duration": 0.042856999999997925,
            "durationTicks": 96,
            "midi": 57,
            "name": "A3",
            "ticks": 302400,
            "time": 134.99955,
            "velocity": 0.48031496062992124
          },
          {
            "duration": 0.042856999999997925,
            "durationTicks": 96,
            "midi": 57,
            "name": "A3",
            "ticks": 302496,
            "time": 135.042407,
            "velocity": 0.48031496062992124
          },
          {
            "duration": 0.042856999999997925,
            "durationTicks": 96,
            "midi": 69,
            "name": "A4",
            "ticks": 302496,
            "time": 135.042407,
            "velocity": 0.48031496062992124
          },
          {
            "duration": 0.042856999999997925,
            "durationTicks": 96,
            "midi": 69,
            "name": "A4",
            "ticks": 302592,
            "time": 135.085264,
            "velocity": 0.48031496062992124
          },
          {
            "duration": 0.042856999999997925,
            "durationTicks": 96,
            "midi": 64,
            "name": "E4",
            "ticks": 302784,
            "time": 135.170978,
            "velocity": 0.48031496062992124
          },
          {
            "duration": 0.042856999999997925,
            "durationTicks": 96,
            "midi": 52,
            "name": "E3",
            "ticks": 302784,
            "time": 135.170978,
            "velocity": 0.48031496062992124
          },
          {
            "duration": 0.042856999999997925,
            "durationTicks": 96,
            "midi": 52,
            "name": "E3",
            "ticks": 302880,
            "time": 135.213835,
            "velocity": 0.48031496062992124
          },
          {
            "duration": 0.042856999999997925,
            "durationTicks": 96,
            "midi": 64,
            "name": "E4",
            "ticks": 302880,
            "time": 135.213835,
            "velocity": 0.48031496062992124
          },
          {
            "duration": 0.042856999999997925,
            "durationTicks": 96,
            "midi": 64,
            "name": "E4",
            "ticks": 302976,
            "time": 135.256692,
            "velocity": 0.48031496062992124
          },
          {
            "duration": 0.042856999999997925,
            "durationTicks": 96,
            "midi": 48,
            "name": "C3",
            "ticks": 303168,
            "time": 135.342406,
            "velocity": 0.48031496062992124
          },
          {
            "duration": 0.042856999999997925,
            "durationTicks": 96,
            "midi": 48,
            "name": "C3",
            "ticks": 303552,
            "time": 135.513834,
            "velocity": 0.48031496062992124
          },
          {
            "duration": 0.042856999999997925,
            "durationTicks": 96,
            "midi": 60,
            "name": "C4",
            "ticks": 304320,
            "time": 135.85669,
            "velocity": 0.48031496062992124
          },
          {
            "duration": 0.042856999999997925,
            "durationTicks": 96,
            "midi": 76,
            "name": "E5",
            "ticks": 305088,
            "time": 136.199546,
            "velocity": 0.48031496062992124
          },
          {
            "duration": 0.042856999999997925,
            "durationTicks": 96,
            "midi": 64,
            "name": "E4",
            "ticks": 305088,
            "time": 136.199546,
            "velocity": 0.48031496062992124
          },
          {
            "duration": 0.042856999999997925,
            "durationTicks": 96,
            "midi": 76,
            "name": "E5",
            "ticks": 305184,
            "time": 136.242403,
            "velocity": 0.48031496062992124
          },
          {
            "duration": 0.042856999999997925,
            "durationTicks": 96,
            "midi": 64,
            "name": "E4",
            "ticks": 305184,
            "time": 136.242403,
            "velocity": 0.48031496062992124
          },
          {
            "duration": 0.042856999999997925,
            "durationTicks": 96,
            "midi": 76,
            "name": "E5",
            "ticks": 305280,
            "time": 136.28526,
            "velocity": 0.48031496062992124
          },
          {
            "duration": 0.042856999999997925,
            "durationTicks": 96,
            "midi": 63,
            "name": "D#4",
            "ticks": 305856,
            "time": 136.542402,
            "velocity": 0.48031496062992124
          },
          {
            "duration": 0.042856999999997925,
            "durationTicks": 96,
            "midi": 75,
            "name": "D#5",
            "ticks": 305856,
            "time": 136.542402,
            "velocity": 0.48031496062992124
          },
          {
            "duration": 0.042856999999997925,
            "durationTicks": 96,
            "midi": 41,
            "name": "F2",
            "ticks": 305856,
            "time": 136.542402,
            "velocity": 0.48031496062992124
          },
          {
            "duration": 0.042856999999997925,
            "durationTicks": 96,
            "midi": 53,
            "name": "F3",
            "ticks": 305856,
            "time": 136.542402,
            "velocity": 0.48031496062992124
          },
          {
            "duration": 0.042856999999997925,
            "durationTicks": 96,
            "midi": 63,
            "name": "D#4",
            "ticks": 305952,
            "time": 136.585259,
            "velocity": 0.48031496062992124
          },
          {
            "duration": 0.042856999999997925,
            "durationTicks": 96,
            "midi": 75,
            "name": "D#5",
            "ticks": 305952,
            "time": 136.585259,
            "velocity": 0.48031496062992124
          },
          {
            "duration": 0.042856999999997925,
            "durationTicks": 96,
            "midi": 75,
            "name": "D#5",
            "ticks": 306048,
            "time": 136.628116,
            "velocity": 0.48031496062992124
          },
          {
            "duration": 0.042857000000026346,
            "durationTicks": 96,
            "midi": 60,
            "name": "C4",
            "ticks": 307008,
            "time": 137.05668599999998,
            "velocity": 0.48031496062992124
          },
          {
            "duration": 0.042857000000026346,
            "durationTicks": 96,
            "midi": 72,
            "name": "C5",
            "ticks": 307008,
            "time": 137.05668599999998,
            "velocity": 0.48031496062992124
          },
          {
            "duration": 0.042856999999997925,
            "durationTicks": 96,
            "midi": 72,
            "name": "C5",
            "ticks": 307104,
            "time": 137.099543,
            "velocity": 0.48031496062992124
          },
          {
            "duration": 0.042856999999997925,
            "durationTicks": 96,
            "midi": 60,
            "name": "C4",
            "ticks": 307104,
            "time": 137.099543,
            "velocity": 0.48031496062992124
          },
          {
            "duration": 0.042856999999997925,
            "durationTicks": 96,
            "midi": 72,
            "name": "C5",
            "ticks": 307200,
            "time": 137.1424,
            "velocity": 0.48031496062992124
          },
          {
            "duration": 0.042856999999997925,
            "durationTicks": 96,
            "midi": 53,
            "name": "F3",
            "ticks": 307392,
            "time": 137.228114,
            "velocity": 0.48031496062992124
          },
          {
            "duration": 0.042856999999997925,
            "durationTicks": 96,
            "midi": 71,
            "name": "B4",
            "ticks": 307392,
            "time": 137.228114,
            "velocity": 0.48031496062992124
          },
          {
            "duration": 0.042856999999997925,
            "durationTicks": 96,
            "midi": 59,
            "name": "B3",
            "ticks": 307392,
            "time": 137.228114,
            "velocity": 0.48031496062992124
          },
          {
            "duration": 0.042856999999997925,
            "durationTicks": 96,
            "midi": 59,
            "name": "B3",
            "ticks": 307488,
            "time": 137.270971,
            "velocity": 0.48031496062992124
          },
          {
            "duration": 0.042856999999997925,
            "durationTicks": 96,
            "midi": 71,
            "name": "B4",
            "ticks": 307488,
            "time": 137.270971,
            "velocity": 0.48031496062992124
          },
          {
            "duration": 0.042856999999997925,
            "durationTicks": 96,
            "midi": 71,
            "name": "B4",
            "ticks": 307584,
            "time": 137.313828,
            "velocity": 0.48031496062992124
          },
          {
            "duration": 0.042856999999997925,
            "durationTicks": 96,
            "midi": 41,
            "name": "F2",
            "ticks": 307584,
            "time": 137.313828,
            "velocity": 0.48031496062992124
          },
          {
            "duration": 0.042856999999997925,
            "durationTicks": 96,
            "midi": 53,
            "name": "F3",
            "ticks": 307776,
            "time": 137.399542,
            "velocity": 0.48031496062992124
          },
          {
            "duration": 0.042856999999997925,
            "durationTicks": 96,
            "midi": 41,
            "name": "F2",
            "ticks": 307968,
            "time": 137.485256,
            "velocity": 0.48031496062992124
          },
          {
            "duration": 0.042856999999997925,
            "durationTicks": 96,
            "midi": 53,
            "name": "F3",
            "ticks": 308160,
            "time": 137.57097,
            "velocity": 0.48031496062992124
          },
          {
            "duration": 0.042857000000026346,
            "durationTicks": 96,
            "midi": 41,
            "name": "F2",
            "ticks": 308352,
            "time": 137.65668399999998,
            "velocity": 0.48031496062992124
          },
          {
            "duration": 0.042856999999997925,
            "durationTicks": 96,
            "midi": 57,
            "name": "A3",
            "ticks": 308544,
            "time": 137.742398,
            "velocity": 0.48031496062992124
          },
          {
            "duration": 0.042856999999997925,
            "durationTicks": 96,
            "midi": 53,
            "name": "F3",
            "ticks": 308544,
            "time": 137.742398,
            "velocity": 0.48031496062992124
          },
          {
            "duration": 0.042856999999997925,
            "durationTicks": 96,
            "midi": 69,
            "name": "A4",
            "ticks": 308544,
            "time": 137.742398,
            "velocity": 0.48031496062992124
          },
          {
            "duration": 0.042856999999997925,
            "durationTicks": 96,
            "midi": 57,
            "name": "A3",
            "ticks": 308640,
            "time": 137.785255,
            "velocity": 0.48031496062992124
          },
          {
            "duration": 0.042856999999997925,
            "durationTicks": 96,
            "midi": 69,
            "name": "A4",
            "ticks": 308640,
            "time": 137.785255,
            "velocity": 0.48031496062992124
          },
          {
            "duration": 0.042856999999997925,
            "durationTicks": 96,
            "midi": 69,
            "name": "A4",
            "ticks": 308736,
            "time": 137.828112,
            "velocity": 0.48031496062992124
          },
          {
            "duration": 0.042856999999997925,
            "durationTicks": 96,
            "midi": 41,
            "name": "F2",
            "ticks": 308736,
            "time": 137.828112,
            "velocity": 0.48031496062992124
          },
          {
            "duration": 0.042856999999997925,
            "durationTicks": 96,
            "midi": 57,
            "name": "A3",
            "ticks": 308928,
            "time": 137.913826,
            "velocity": 0.48031496062992124
          },
          {
            "duration": 0.042856999999997925,
            "durationTicks": 96,
            "midi": 44,
            "name": "G#2",
            "ticks": 308928,
            "time": 137.913826,
            "velocity": 0.48031496062992124
          },
          {
            "duration": 0.042856999999997925,
            "durationTicks": 96,
            "midi": 47,
            "name": "B2",
            "ticks": 308928,
            "time": 137.913826,
            "velocity": 0.48031496062992124
          },
          {
            "duration": 0.042856999999997925,
            "durationTicks": 96,
            "midi": 52,
            "name": "E3",
            "ticks": 308928,
            "time": 137.913826,
            "velocity": 0.48031496062992124
          },
          {
            "duration": 0.042856999999997925,
            "durationTicks": 96,
            "midi": 69,
            "name": "A4",
            "ticks": 308928,
            "time": 137.913826,
            "velocity": 0.48031496062992124
          },
          {
            "duration": 0.042856999999997925,
            "durationTicks": 96,
            "midi": 40,
            "name": "E2",
            "ticks": 308928,
            "time": 137.913826,
            "velocity": 0.48031496062992124
          },
          {
            "duration": 0.042856999999997925,
            "durationTicks": 96,
            "midi": 69,
            "name": "A4",
            "ticks": 309024,
            "time": 137.956683,
            "velocity": 0.48031496062992124
          },
          {
            "duration": 0.042856999999997925,
            "durationTicks": 96,
            "midi": 57,
            "name": "A3",
            "ticks": 309024,
            "time": 137.956683,
            "velocity": 0.48031496062992124
          },
          {
            "duration": 0.042856999999997925,
            "durationTicks": 96,
            "midi": 69,
            "name": "A4",
            "ticks": 309120,
            "time": 137.99954,
            "velocity": 0.48031496062992124
          },
          {
            "duration": 0.042856999999997925,
            "durationTicks": 96,
            "midi": 69,
            "name": "A4",
            "ticks": 309216,
            "time": 138.042397,
            "velocity": 0.48031496062992124
          },
          {
            "duration": 0.042856999999997925,
            "durationTicks": 96,
            "midi": 69,
            "name": "A4",
            "ticks": 309312,
            "time": 138.085254,
            "velocity": 0.48031496062992124
          },
          {
            "duration": 0.042856999999997925,
            "durationTicks": 96,
            "midi": 71,
            "name": "B4",
            "ticks": 310464,
            "time": 138.599538,
            "velocity": 0.48031496062992124
          },
          {
            "duration": 0.042856999999997925,
            "durationTicks": 96,
            "midi": 59,
            "name": "B3",
            "ticks": 310464,
            "time": 138.599538,
            "velocity": 0.48031496062992124
          },
          {
            "duration": 0.042856999999997925,
            "durationTicks": 96,
            "midi": 71,
            "name": "B4",
            "ticks": 310560,
            "time": 138.642395,
            "velocity": 0.48031496062992124
          },
          {
            "duration": 0.042856999999997925,
            "durationTicks": 96,
            "midi": 59,
            "name": "B3",
            "ticks": 310560,
            "time": 138.642395,
            "velocity": 0.48031496062992124
          },
          {
            "duration": 0.042856999999997925,
            "durationTicks": 96,
            "midi": 71,
            "name": "B4",
            "ticks": 310656,
            "time": 138.685252,
            "velocity": 0.48031496062992124
          },
          {
            "duration": 0.042856999999997925,
            "durationTicks": 96,
            "midi": 71,
            "name": "B4",
            "ticks": 310752,
            "time": 138.728109,
            "velocity": 0.48031496062992124
          },
          {
            "duration": 0.042856999999997925,
            "durationTicks": 96,
            "midi": 71,
            "name": "B4",
            "ticks": 310848,
            "time": 138.770966,
            "velocity": 0.48031496062992124
          },
          {
            "duration": 0.042856999999997925,
            "durationTicks": 96,
            "midi": 52,
            "name": "E3",
            "ticks": 312000,
            "time": 139.28525,
            "velocity": 0.48031496062992124
          },
          {
            "duration": 0.042856999999997925,
            "durationTicks": 96,
            "midi": 64,
            "name": "E4",
            "ticks": 312000,
            "time": 139.28525,
            "velocity": 0.48031496062992124
          },
          {
            "duration": 0.042856999999997925,
            "durationTicks": 96,
            "midi": 64,
            "name": "E4",
            "ticks": 312096,
            "time": 139.328107,
            "velocity": 0.48031496062992124
          },
          {
            "duration": 0.042856999999997925,
            "durationTicks": 96,
            "midi": 65,
            "name": "F4",
            "ticks": 312192,
            "time": 139.370964,
            "velocity": 0.48031496062992124
          },
          {
            "duration": 0.042856999999997925,
            "durationTicks": 96,
            "midi": 53,
            "name": "F3",
            "ticks": 312192,
            "time": 139.370964,
            "velocity": 0.48031496062992124
          },
          {
            "duration": 0.042857000000026346,
            "durationTicks": 96,
            "midi": 65,
            "name": "F4",
            "ticks": 312288,
            "time": 139.41382099999998,
            "velocity": 0.48031496062992124
          },
          {
            "duration": 0.042856999999997925,
            "durationTicks": 96,
            "midi": 52,
            "name": "E3",
            "ticks": 312384,
            "time": 139.456678,
            "velocity": 0.48031496062992124
          },
          {
            "duration": 0.042856999999997925,
            "durationTicks": 96,
            "midi": 64,
            "name": "E4",
            "ticks": 312384,
            "time": 139.456678,
            "velocity": 0.48031496062992124
          },
          {
            "duration": 0.042856999999997925,
            "durationTicks": 96,
            "midi": 64,
            "name": "E4",
            "ticks": 312480,
            "time": 139.499535,
            "velocity": 0.48031496062992124
          },
          {
            "duration": 0.042856999999997925,
            "durationTicks": 96,
            "midi": 63,
            "name": "D#4",
            "ticks": 312576,
            "time": 139.542392,
            "velocity": 0.48031496062992124
          },
          {
            "duration": 0.042856999999997925,
            "durationTicks": 96,
            "midi": 51,
            "name": "D#3",
            "ticks": 312576,
            "time": 139.542392,
            "velocity": 0.48031496062992124
          },
          {
            "duration": 0.042856999999997925,
            "durationTicks": 96,
            "midi": 63,
            "name": "D#4",
            "ticks": 312672,
            "time": 139.585249,
            "velocity": 0.48031496062992124
          },
          {
            "duration": 0.042856999999997925,
            "durationTicks": 96,
            "midi": 52,
            "name": "E3",
            "ticks": 312768,
            "time": 139.628106,
            "velocity": 0.48031496062992124
          },
          {
            "duration": 0.042856999999997925,
            "durationTicks": 96,
            "midi": 64,
            "name": "E4",
            "ticks": 312768,
            "time": 139.628106,
            "velocity": 0.48031496062992124
          },
          {
            "duration": 0.042856999999997925,
            "durationTicks": 96,
            "midi": 64,
            "name": "E4",
            "ticks": 312864,
            "time": 139.670963,
            "velocity": 0.48031496062992124
          },
          {
            "duration": 0.042856999999997925,
            "durationTicks": 96,
            "midi": 57,
            "name": "A3",
            "ticks": 313152,
            "time": 139.799534,
            "velocity": 0.48031496062992124
          },
          {
            "duration": 0.042856999999997925,
            "durationTicks": 96,
            "midi": 45,
            "name": "A2",
            "ticks": 313152,
            "time": 139.799534,
            "velocity": 0.48031496062992124
          },
          {
            "duration": 0.042856999999997925,
            "durationTicks": 96,
            "midi": 57,
            "name": "A3",
            "ticks": 313248,
            "time": 139.842391,
            "velocity": 0.48031496062992124
          },
          {
            "duration": 0.042856999999997925,
            "durationTicks": 96,
            "midi": 48,
            "name": "C3",
            "ticks": 313536,
            "time": 139.970962,
            "velocity": 0.48031496062992124
          },
          {
            "duration": 0.042856999999997925,
            "durationTicks": 96,
            "midi": 60,
            "name": "C4",
            "ticks": 313536,
            "time": 139.970962,
            "velocity": 0.48031496062992124
          },
          {
            "duration": 0.042857000000026346,
            "durationTicks": 96,
            "midi": 60,
            "name": "C4",
            "ticks": 313632,
            "time": 140.01381899999998,
            "velocity": 0.48031496062992124
          },
          {
            "duration": 0.042856999999997925,
            "durationTicks": 96,
            "midi": 59,
            "name": "B3",
            "ticks": 314304,
            "time": 140.313818,
            "velocity": 0.48031496062992124
          },
          {
            "duration": 0.042856999999997925,
            "durationTicks": 96,
            "midi": 47,
            "name": "B2",
            "ticks": 314304,
            "time": 140.313818,
            "velocity": 0.48031496062992124
          },
          {
            "duration": 0.042856999999997925,
            "durationTicks": 96,
            "midi": 59,
            "name": "B3",
            "ticks": 314400,
            "time": 140.356675,
            "velocity": 0.48031496062992124
          },
          {
            "duration": 0.042856999999997925,
            "durationTicks": 96,
            "midi": 48,
            "name": "C3",
            "ticks": 314496,
            "time": 140.399532,
            "velocity": 0.48031496062992124
          },
          {
            "duration": 0.042856999999997925,
            "durationTicks": 96,
            "midi": 60,
            "name": "C4",
            "ticks": 314496,
            "time": 140.399532,
            "velocity": 0.48031496062992124
          },
          {
            "duration": 0.042856999999997925,
            "durationTicks": 96,
            "midi": 60,
            "name": "C4",
            "ticks": 314592,
            "time": 140.442389,
            "velocity": 0.48031496062992124
          },
          {
            "duration": 0.042856999999997925,
            "durationTicks": 96,
            "midi": 47,
            "name": "B2",
            "ticks": 314688,
            "time": 140.485246,
            "velocity": 0.48031496062992124
          },
          {
            "duration": 0.042856999999997925,
            "durationTicks": 96,
            "midi": 59,
            "name": "B3",
            "ticks": 314688,
            "time": 140.485246,
            "velocity": 0.48031496062992124
          },
          {
            "duration": 0.042856999999997925,
            "durationTicks": 96,
            "midi": 59,
            "name": "B3",
            "ticks": 314784,
            "time": 140.528103,
            "velocity": 0.48031496062992124
          },
          {
            "duration": 0.042857000000026346,
            "durationTicks": 96,
            "midi": 57,
            "name": "A3",
            "ticks": 314880,
            "time": 140.57095999999999,
            "velocity": 0.48031496062992124
          },
          {
            "duration": 0.042857000000026346,
            "durationTicks": 96,
            "midi": 45,
            "name": "A2",
            "ticks": 314880,
            "time": 140.57095999999999,
            "velocity": 0.48031496062992124
          },
          {
            "duration": 0.042856999999997925,
            "durationTicks": 96,
            "midi": 57,
            "name": "A3",
            "ticks": 314976,
            "time": 140.613817,
            "velocity": 0.48031496062992124
          },
          {
            "duration": 0.042856999999997925,
            "durationTicks": 96,
            "midi": 64,
            "name": "E4",
            "ticks": 315072,
            "time": 140.656674,
            "velocity": 0.48031496062992124
          },
          {
            "duration": 0.042856999999997925,
            "durationTicks": 96,
            "midi": 52,
            "name": "E3",
            "ticks": 315072,
            "time": 140.656674,
            "velocity": 0.48031496062992124
          },
          {
            "duration": 0.042856999999997925,
            "durationTicks": 96,
            "midi": 64,
            "name": "E4",
            "ticks": 315168,
            "time": 140.699531,
            "velocity": 0.48031496062992124
          },
          {
            "duration": 0.042856999999997925,
            "durationTicks": 96,
            "midi": 53,
            "name": "F3",
            "ticks": 315264,
            "time": 140.742388,
            "velocity": 0.48031496062992124
          },
          {
            "duration": 0.042856999999997925,
            "durationTicks": 96,
            "midi": 65,
            "name": "F4",
            "ticks": 315264,
            "time": 140.742388,
            "velocity": 0.48031496062992124
          },
          {
            "duration": 0.042856999999997925,
            "durationTicks": 96,
            "midi": 65,
            "name": "F4",
            "ticks": 315360,
            "time": 140.785245,
            "velocity": 0.48031496062992124
          },
          {
            "duration": 0.042856999999997925,
            "durationTicks": 96,
            "midi": 52,
            "name": "E3",
            "ticks": 315456,
            "time": 140.828102,
            "velocity": 0.48031496062992124
          },
          {
            "duration": 0.042856999999997925,
            "durationTicks": 96,
            "midi": 64,
            "name": "E4",
            "ticks": 315456,
            "time": 140.828102,
            "velocity": 0.48031496062992124
          },
          {
            "duration": 0.042856999999997925,
            "durationTicks": 96,
            "midi": 64,
            "name": "E4",
            "ticks": 315552,
            "time": 140.870959,
            "velocity": 0.48031496062992124
          },
          {
            "duration": 0.042856999999997925,
            "durationTicks": 96,
            "midi": 51,
            "name": "D#3",
            "ticks": 315648,
            "time": 140.913816,
            "velocity": 0.48031496062992124
          },
          {
            "duration": 0.042856999999997925,
            "durationTicks": 96,
            "midi": 63,
            "name": "D#4",
            "ticks": 315648,
            "time": 140.913816,
            "velocity": 0.48031496062992124
          },
          {
            "duration": 0.042856999999997925,
            "durationTicks": 96,
            "midi": 63,
            "name": "D#4",
            "ticks": 315744,
            "time": 140.956673,
            "velocity": 0.48031496062992124
          },
          {
            "duration": 0.042856999999997925,
            "durationTicks": 96,
            "midi": 52,
            "name": "E3",
            "ticks": 315840,
            "time": 140.99953,
            "velocity": 0.48031496062992124
          },
          {
            "duration": 0.042856999999997925,
            "durationTicks": 96,
            "midi": 64,
            "name": "E4",
            "ticks": 315840,
            "time": 140.99953,
            "velocity": 0.48031496062992124
          },
          {
            "duration": 0.042856999999997925,
            "durationTicks": 96,
            "midi": 64,
            "name": "E4",
            "ticks": 315936,
            "time": 141.042387,
            "velocity": 0.48031496062992124
          },
          {
            "duration": 0.042857000000026346,
            "durationTicks": 96,
            "midi": 45,
            "name": "A2",
            "ticks": 316224,
            "time": 141.17095799999998,
            "velocity": 0.48031496062992124
          },
          {
            "duration": 0.042857000000026346,
            "durationTicks": 96,
            "midi": 57,
            "name": "A3",
            "ticks": 316224,
            "time": 141.17095799999998,
            "velocity": 0.48031496062992124
          },
          {
            "duration": 0.042856999999997925,
            "durationTicks": 96,
            "midi": 57,
            "name": "A3",
            "ticks": 316320,
            "time": 141.213815,
            "velocity": 0.48031496062992124
          },
          {
            "duration": 0.042856999999997925,
            "durationTicks": 96,
            "midi": 60,
            "name": "C4",
            "ticks": 316608,
            "time": 141.342386,
            "velocity": 0.48031496062992124
          },
          {
            "duration": 0.042856999999997925,
            "durationTicks": 96,
            "midi": 48,
            "name": "C3",
            "ticks": 316608,
            "time": 141.342386,
            "velocity": 0.48031496062992124
          },
          {
            "duration": 0.042856999999997925,
            "durationTicks": 96,
            "midi": 60,
            "name": "C4",
            "ticks": 316704,
            "time": 141.385243,
            "velocity": 0.48031496062992124
          },
          {
            "duration": 0.042856999999997925,
            "durationTicks": 96,
            "midi": 59,
            "name": "B3",
            "ticks": 317376,
            "time": 141.685242,
            "velocity": 0.48031496062992124
          },
          {
            "duration": 0.042856999999997925,
            "durationTicks": 96,
            "midi": 47,
            "name": "B2",
            "ticks": 317376,
            "time": 141.685242,
            "velocity": 0.48031496062992124
          },
          {
            "duration": 0.042856999999997925,
            "durationTicks": 96,
            "midi": 59,
            "name": "B3",
            "ticks": 317472,
            "time": 141.728099,
            "velocity": 0.48031496062992124
          },
          {
            "duration": 0.042857000000026346,
            "durationTicks": 96,
            "midi": 60,
            "name": "C4",
            "ticks": 317568,
            "time": 141.77095599999998,
            "velocity": 0.48031496062992124
          },
          {
            "duration": 0.042857000000026346,
            "durationTicks": 96,
            "midi": 48,
            "name": "C3",
            "ticks": 317568,
            "time": 141.77095599999998,
            "velocity": 0.48031496062992124
          },
          {
            "duration": 0.042856999999997925,
            "durationTicks": 96,
            "midi": 60,
            "name": "C4",
            "ticks": 317664,
            "time": 141.813813,
            "velocity": 0.48031496062992124
          },
          {
            "duration": 0.042856999999997925,
            "durationTicks": 96,
            "midi": 59,
            "name": "B3",
            "ticks": 317760,
            "time": 141.85667,
            "velocity": 0.48031496062992124
          },
          {
            "duration": 0.042856999999997925,
            "durationTicks": 96,
            "midi": 47,
            "name": "B2",
            "ticks": 317760,
            "time": 141.85667,
            "velocity": 0.48031496062992124
          },
          {
            "duration": 0.042856999999997925,
            "durationTicks": 96,
            "midi": 59,
            "name": "B3",
            "ticks": 317856,
            "time": 141.899527,
            "velocity": 0.48031496062992124
          },
          {
            "duration": 0.042856999999997925,
            "durationTicks": 96,
            "midi": 45,
            "name": "A2",
            "ticks": 317952,
            "time": 141.942384,
            "velocity": 0.48031496062992124
          },
          {
            "duration": 0.042856999999997925,
            "durationTicks": 96,
            "midi": 57,
            "name": "A3",
            "ticks": 317952,
            "time": 141.942384,
            "velocity": 0.48031496062992124
          },
          {
            "duration": 0.042856999999997925,
            "durationTicks": 96,
            "midi": 57,
            "name": "A3",
            "ticks": 318048,
            "time": 141.985241,
            "velocity": 0.48031496062992124
          },
          {
            "duration": 0.042856999999997925,
            "durationTicks": 96,
            "midi": 64,
            "name": "E4",
            "ticks": 318144,
            "time": 142.028098,
            "velocity": 0.48031496062992124
          },
          {
            "duration": 0.042856999999997925,
            "durationTicks": 96,
            "midi": 52,
            "name": "E3",
            "ticks": 318144,
            "time": 142.028098,
            "velocity": 0.48031496062992124
          },
          {
            "duration": 0.042856999999997925,
            "durationTicks": 96,
            "midi": 64,
            "name": "E4",
            "ticks": 318240,
            "time": 142.070955,
            "velocity": 0.48031496062992124
          },
          {
            "duration": 0.042856999999997925,
            "durationTicks": 96,
            "midi": 65,
            "name": "F4",
            "ticks": 318336,
            "time": 142.113812,
            "velocity": 0.48031496062992124
          },
          {
            "duration": 0.042856999999997925,
            "durationTicks": 96,
            "midi": 53,
            "name": "F3",
            "ticks": 318336,
            "time": 142.113812,
            "velocity": 0.48031496062992124
          },
          {
            "duration": 0.042856999999997925,
            "durationTicks": 96,
            "midi": 65,
            "name": "F4",
            "ticks": 318432,
            "time": 142.156669,
            "velocity": 0.48031496062992124
          },
          {
            "duration": 0.042856999999997925,
            "durationTicks": 96,
            "midi": 64,
            "name": "E4",
            "ticks": 318528,
            "time": 142.199526,
            "velocity": 0.48031496062992124
          },
          {
            "duration": 0.042856999999997925,
            "durationTicks": 96,
            "midi": 52,
            "name": "E3",
            "ticks": 318528,
            "time": 142.199526,
            "velocity": 0.48031496062992124
          },
          {
            "duration": 0.042856999999997925,
            "durationTicks": 96,
            "midi": 64,
            "name": "E4",
            "ticks": 318624,
            "time": 142.242383,
            "velocity": 0.48031496062992124
          },
          {
            "duration": 0.042856999999997925,
            "durationTicks": 96,
            "midi": 51,
            "name": "D#3",
            "ticks": 318720,
            "time": 142.28524,
            "velocity": 0.48031496062992124
          },
          {
            "duration": 0.042856999999997925,
            "durationTicks": 96,
            "midi": 63,
            "name": "D#4",
            "ticks": 318720,
            "time": 142.28524,
            "velocity": 0.48031496062992124
          },
          {
            "duration": 0.042856999999997925,
            "durationTicks": 96,
            "midi": 63,
            "name": "D#4",
            "ticks": 318816,
            "time": 142.32809699999999,
            "velocity": 0.48031496062992124
          },
          {
            "duration": 0.042857000000026346,
            "durationTicks": 96,
            "midi": 64,
            "name": "E4",
            "ticks": 318912,
            "time": 142.37095399999998,
            "velocity": 0.48031496062992124
          },
          {
            "duration": 0.042857000000026346,
            "durationTicks": 96,
            "midi": 52,
            "name": "E3",
            "ticks": 318912,
            "time": 142.37095399999998,
            "velocity": 0.48031496062992124
          },
          {
            "duration": 0.042856999999997925,
            "durationTicks": 96,
            "midi": 64,
            "name": "E4",
            "ticks": 319008,
            "time": 142.413811,
            "velocity": 0.48031496062992124
          },
          {
            "duration": 0.042856999999997925,
            "durationTicks": 96,
            "midi": 45,
            "name": "A2",
            "ticks": 319296,
            "time": 142.542382,
            "velocity": 0.48031496062992124
          },
          {
            "duration": 0.042856999999997925,
            "durationTicks": 96,
            "midi": 57,
            "name": "A3",
            "ticks": 319296,
            "time": 142.542382,
            "velocity": 0.48031496062992124
          },
          {
            "duration": 0.042856999999997925,
            "durationTicks": 96,
            "midi": 57,
            "name": "A3",
            "ticks": 319392,
            "time": 142.585239,
            "velocity": 0.48031496062992124
          },
          {
            "duration": 0.042856999999997925,
            "durationTicks": 96,
            "midi": 60,
            "name": "C4",
            "ticks": 319680,
            "time": 142.71381,
            "velocity": 0.48031496062992124
          },
          {
            "duration": 0.042856999999997925,
            "durationTicks": 96,
            "midi": 48,
            "name": "C3",
            "ticks": 319680,
            "time": 142.71381,
            "velocity": 0.48031496062992124
          },
          {
            "duration": 0.042856999999997925,
            "durationTicks": 96,
            "midi": 60,
            "name": "C4",
            "ticks": 319776,
            "time": 142.756667,
            "velocity": 0.48031496062992124
          },
          {
            "duration": 0.042856999999997925,
            "durationTicks": 96,
            "midi": 64,
            "name": "E4",
            "ticks": 320448,
            "time": 143.056666,
            "velocity": 0.48031496062992124
          },
          {
            "duration": 0.042856999999997925,
            "durationTicks": 96,
            "midi": 52,
            "name": "E3",
            "ticks": 320448,
            "time": 143.056666,
            "velocity": 0.48031496062992124
          },
          {
            "duration": 0.042856999999997925,
            "durationTicks": 96,
            "midi": 64,
            "name": "E4",
            "ticks": 320544,
            "time": 143.099523,
            "velocity": 0.48031496062992124
          },
          {
            "duration": 0.042856999999997925,
            "durationTicks": 96,
            "midi": 50,
            "name": "D3",
            "ticks": 320640,
            "time": 143.14238,
            "velocity": 0.48031496062992124
          },
          {
            "duration": 0.042856999999997925,
            "durationTicks": 96,
            "midi": 62,
            "name": "D4",
            "ticks": 320640,
            "time": 143.14238,
            "velocity": 0.48031496062992124
          },
          {
            "duration": 0.042856999999997925,
            "durationTicks": 96,
            "midi": 62,
            "name": "D4",
            "ticks": 320736,
            "time": 143.185237,
            "velocity": 0.48031496062992124
          },
          {
            "duration": 0.042856999999997925,
            "durationTicks": 96,
            "midi": 60,
            "name": "C4",
            "ticks": 320832,
            "time": 143.228094,
            "velocity": 0.48031496062992124
          },
          {
            "duration": 0.042856999999997925,
            "durationTicks": 96,
            "midi": 48,
            "name": "C3",
            "ticks": 320832,
            "time": 143.228094,
            "velocity": 0.48031496062992124
          },
          {
            "duration": 0.042856999999997925,
            "durationTicks": 96,
            "midi": 60,
            "name": "C4",
            "ticks": 320928,
            "time": 143.270951,
            "velocity": 0.48031496062992124
          },
          {
            "duration": 0.042856999999997925,
            "durationTicks": 96,
            "midi": 47,
            "name": "B2",
            "ticks": 321024,
            "time": 143.313808,
            "velocity": 0.48031496062992124
          },
          {
            "duration": 0.042856999999997925,
            "durationTicks": 96,
            "midi": 59,
            "name": "B3",
            "ticks": 321024,
            "time": 143.313808,
            "velocity": 0.48031496062992124
          },
          {
            "duration": 0.042856999999997925,
            "durationTicks": 96,
            "midi": 59,
            "name": "B3",
            "ticks": 321120,
            "time": 143.356665,
            "velocity": 0.48031496062992124
          },
          {
            "duration": 0.042856999999997925,
            "durationTicks": 96,
            "midi": 57,
            "name": "A3",
            "ticks": 321216,
            "time": 143.399522,
            "velocity": 0.48031496062992124
          },
          {
            "duration": 0.042856999999997925,
            "durationTicks": 96,
            "midi": 45,
            "name": "A2",
            "ticks": 321216,
            "time": 143.399522,
            "velocity": 0.48031496062992124
          },
          {
            "duration": 0.042856999999997925,
            "durationTicks": 96,
            "midi": 57,
            "name": "A3",
            "ticks": 321312,
            "time": 143.442379,
            "velocity": 0.48031496062992124
          },
          {
            "duration": 0.042856999999997925,
            "durationTicks": 96,
            "midi": 59,
            "name": "B3",
            "ticks": 321408,
            "time": 143.485236,
            "velocity": 0.48031496062992124
          },
          {
            "duration": 0.042856999999997925,
            "durationTicks": 96,
            "midi": 47,
            "name": "B2",
            "ticks": 321408,
            "time": 143.485236,
            "velocity": 0.48031496062992124
          },
          {
            "duration": 0.042857000000026346,
            "durationTicks": 96,
            "midi": 59,
            "name": "B3",
            "ticks": 321504,
            "time": 143.52809299999998,
            "velocity": 0.48031496062992124
          },
          {
            "duration": 0.042856999999997925,
            "durationTicks": 96,
            "midi": 57,
            "name": "A3",
            "ticks": 321600,
            "time": 143.57095,
            "velocity": 0.48031496062992124
          },
          {
            "duration": 0.042856999999997925,
            "durationTicks": 96,
            "midi": 45,
            "name": "A2",
            "ticks": 321600,
            "time": 143.57095,
            "velocity": 0.48031496062992124
          },
          {
            "duration": 0.042856999999997925,
            "durationTicks": 96,
            "midi": 57,
            "name": "A3",
            "ticks": 321696,
            "time": 143.613807,
            "velocity": 0.48031496062992124
          },
          {
            "duration": 0.042856999999997925,
            "durationTicks": 96,
            "midi": 44,
            "name": "G#2",
            "ticks": 321792,
            "time": 143.656664,
            "velocity": 0.48031496062992124
          },
          {
            "duration": 0.042856999999997925,
            "durationTicks": 96,
            "midi": 56,
            "name": "G#3",
            "ticks": 321792,
            "time": 143.656664,
            "velocity": 0.48031496062992124
          },
          {
            "duration": 0.042856999999997925,
            "durationTicks": 96,
            "midi": 56,
            "name": "G#3",
            "ticks": 321888,
            "time": 143.699521,
            "velocity": 0.48031496062992124
          },
          {
            "duration": 0.042856999999997925,
            "durationTicks": 96,
            "midi": 57,
            "name": "A3",
            "ticks": 321984,
            "time": 143.742378,
            "velocity": 0.48031496062992124
          },
          {
            "duration": 0.042856999999997925,
            "durationTicks": 96,
            "midi": 45,
            "name": "A2",
            "ticks": 321984,
            "time": 143.742378,
            "velocity": 0.48031496062992124
          },
          {
            "duration": 0.042856999999997925,
            "durationTicks": 96,
            "midi": 57,
            "name": "A3",
            "ticks": 322080,
            "time": 143.785235,
            "velocity": 0.48031496062992124
          },
          {
            "duration": 0.042856999999997925,
            "durationTicks": 96,
            "midi": 59,
            "name": "B3",
            "ticks": 322176,
            "time": 143.828092,
            "velocity": 0.48031496062992124
          },
          {
            "duration": 0.042856999999997925,
            "durationTicks": 96,
            "midi": 47,
            "name": "B2",
            "ticks": 322176,
            "time": 143.828092,
            "velocity": 0.48031496062992124
          },
          {
            "duration": 0.042856999999997925,
            "durationTicks": 96,
            "midi": 59,
            "name": "B3",
            "ticks": 322272,
            "time": 143.870949,
            "velocity": 0.48031496062992124
          },
          {
            "duration": 0.042856999999997925,
            "durationTicks": 96,
            "midi": 60,
            "name": "C4",
            "ticks": 322368,
            "time": 143.913806,
            "velocity": 0.48031496062992124
          },
          {
            "duration": 0.042856999999997925,
            "durationTicks": 96,
            "midi": 48,
            "name": "C3",
            "ticks": 322368,
            "time": 143.913806,
            "velocity": 0.48031496062992124
          },
          {
            "duration": 0.042856999999997925,
            "durationTicks": 96,
            "midi": 60,
            "name": "C4",
            "ticks": 322464,
            "time": 143.956663,
            "velocity": 0.48031496062992124
          },
          {
            "duration": 0.042856999999997925,
            "durationTicks": 96,
            "midi": 52,
            "name": "E3",
            "ticks": 322560,
            "time": 143.99952,
            "velocity": 0.48031496062992124
          },
          {
            "duration": 0.042856999999997925,
            "durationTicks": 96,
            "midi": 64,
            "name": "E4",
            "ticks": 322560,
            "time": 143.99952,
            "velocity": 0.48031496062992124
          },
          {
            "duration": 0.042856999999997925,
            "durationTicks": 96,
            "midi": 64,
            "name": "E4",
            "ticks": 322656,
            "time": 144.042377,
            "velocity": 0.48031496062992124
          },
          {
            "duration": 0.042856999999997925,
            "durationTicks": 96,
            "midi": 57,
            "name": "A3",
            "ticks": 322752,
            "time": 144.08523399999999,
            "velocity": 0.48031496062992124
          },
          {
            "duration": 0.042856999999997925,
            "durationTicks": 96,
            "midi": 69,
            "name": "A4",
            "ticks": 322752,
            "time": 144.08523399999999,
            "velocity": 0.48031496062992124
          },
          {
            "duration": 0.042857000000026346,
            "durationTicks": 96,
            "midi": 69,
            "name": "A4",
            "ticks": 322848,
            "time": 144.12809099999998,
            "velocity": 0.48031496062992124
          }
        ],
        "endOfTrackTicks": 322944
      },
      {
        "channel": 8,
        "controlChanges": {},
        "pitchBends": [],
        "instrument": {
          "family": "strings",
          "number": 40,
          "name": "violin"
        },
        "name": "Violin",
        "notes": [
          {
            "duration": 0.0428569999999997,
            "durationTicks": 96,
            "midi": 57,
            "name": "A3",
            "ticks": 4800,
            "time": 2.14285,
            "velocity": 0.4251968503937008
          },
          {
            "duration": 0.0428569999999997,
            "durationTicks": 96,
            "midi": 60,
            "name": "C4",
            "ticks": 4800,
            "time": 2.14285,
            "velocity": 0.4251968503937008
          },
          {
            "duration": 0.042857000000000145,
            "durationTicks": 96,
            "midi": 65,
            "name": "F4",
            "ticks": 6336,
            "time": 2.828562,
            "velocity": 0.4251968503937008
          },
          {
            "duration": 0.042857000000000145,
            "durationTicks": 96,
            "midi": 57,
            "name": "A3",
            "ticks": 6336,
            "time": 2.828562,
            "velocity": 0.4251968503937008
          },
          {
            "duration": 0.042857000000000145,
            "durationTicks": 96,
            "midi": 62,
            "name": "D4",
            "ticks": 6336,
            "time": 2.828562,
            "velocity": 0.4251968503937008
          },
          {
            "duration": 0.042857000000000145,
            "durationTicks": 96,
            "midi": 56,
            "name": "G#3",
            "ticks": 7872,
            "time": 3.514274,
            "velocity": 0.4251968503937008
          },
          {
            "duration": 0.042857000000000145,
            "durationTicks": 96,
            "midi": 64,
            "name": "E4",
            "ticks": 7872,
            "time": 3.514274,
            "velocity": 0.4251968503937008
          },
          {
            "duration": 0.042857000000000145,
            "durationTicks": 96,
            "midi": 59,
            "name": "B3",
            "ticks": 7872,
            "time": 3.514274,
            "velocity": 0.4251968503937008
          },
          {
            "duration": 0.04285700000000059,
            "durationTicks": 96,
            "midi": 64,
            "name": "E4",
            "ticks": 10944,
            "time": 4.885698,
            "velocity": 0.4251968503937008
          },
          {
            "duration": 0.04285700000000059,
            "durationTicks": 96,
            "midi": 57,
            "name": "A3",
            "ticks": 10944,
            "time": 4.885698,
            "velocity": 0.4251968503937008
          },
          {
            "duration": 0.04285700000000059,
            "durationTicks": 96,
            "midi": 61,
            "name": "C#4",
            "ticks": 10944,
            "time": 4.885698,
            "velocity": 0.4251968503937008
          },
          {
            "duration": 0.0428569999999997,
            "durationTicks": 96,
            "midi": 61,
            "name": "C#4",
            "ticks": 12480,
            "time": 5.57141,
            "velocity": 0.4251968503937008
          },
          {
            "duration": 0.0428569999999997,
            "durationTicks": 96,
            "midi": 64,
            "name": "E4",
            "ticks": 12480,
            "time": 5.57141,
            "velocity": 0.4251968503937008
          },
          {
            "duration": 0.0428569999999997,
            "durationTicks": 96,
            "midi": 67,
            "name": "G4",
            "ticks": 12480,
            "time": 5.57141,
            "velocity": 0.4251968503937008
          },
          {
            "duration": 0.0428569999999997,
            "durationTicks": 96,
            "midi": 62,
            "name": "D4",
            "ticks": 14016,
            "time": 6.257122,
            "velocity": 0.4251968503937008
          },
          {
            "duration": 0.0428569999999997,
            "durationTicks": 96,
            "midi": 65,
            "name": "F4",
            "ticks": 14016,
            "time": 6.257122,
            "velocity": 0.4251968503937008
          },
          {
            "duration": 0.0428569999999997,
            "durationTicks": 96,
            "midi": 69,
            "name": "A4",
            "ticks": 14016,
            "time": 6.257122,
            "velocity": 0.4251968503937008
          },
          {
            "duration": 0.0428569999999997,
            "durationTicks": 96,
            "midi": 65,
            "name": "F4",
            "ticks": 17088,
            "time": 7.628546,
            "velocity": 0.4251968503937008
          },
          {
            "duration": 0.0428569999999997,
            "durationTicks": 96,
            "midi": 62,
            "name": "D4",
            "ticks": 17088,
            "time": 7.628546,
            "velocity": 0.4251968503937008
          },
          {
            "duration": 0.0428569999999997,
            "durationTicks": 96,
            "midi": 59,
            "name": "B3",
            "ticks": 17088,
            "time": 7.628546,
            "velocity": 0.4251968503937008
          },
          {
            "duration": 0.0428569999999997,
            "durationTicks": 96,
            "midi": 64,
            "name": "E4",
            "ticks": 18624,
            "time": 8.314258,
            "velocity": 0.4251968503937008
          },
          {
            "duration": 0.0428569999999997,
            "durationTicks": 96,
            "midi": 59,
            "name": "B3",
            "ticks": 18624,
            "time": 8.314258,
            "velocity": 0.4251968503937008
          },
          {
            "duration": 0.0428569999999997,
            "durationTicks": 96,
            "midi": 56,
            "name": "G#3",
            "ticks": 18624,
            "time": 8.314258,
            "velocity": 0.4251968503937008
          },
          {
            "duration": 0.0428569999999997,
            "durationTicks": 96,
            "midi": 57,
            "name": "A3",
            "ticks": 20160,
            "time": 8.99997,
            "velocity": 0.4251968503937008
          },
          {
            "duration": 0.0428569999999997,
            "durationTicks": 96,
            "midi": 60,
            "name": "C4",
            "ticks": 20160,
            "time": 8.99997,
            "velocity": 0.4251968503937008
          },
          {
            "duration": 0.0428569999999997,
            "durationTicks": 96,
            "midi": 64,
            "name": "E4",
            "ticks": 20160,
            "time": 8.99997,
            "velocity": 0.4251968503937008
          },
          {
            "duration": 0.0428569999999997,
            "durationTicks": 96,
            "midi": 55,
            "name": "G3",
            "ticks": 20928,
            "time": 9.342826,
            "velocity": 0.4251968503937008
          },
          {
            "duration": 0.0428569999999997,
            "durationTicks": 96,
            "midi": 62,
            "name": "D4",
            "ticks": 20928,
            "time": 9.342826,
            "velocity": 0.4251968503937008
          },
          {
            "duration": 0.0428569999999997,
            "durationTicks": 96,
            "midi": 59,
            "name": "B3",
            "ticks": 20928,
            "time": 9.342826,
            "velocity": 0.4251968503937008
          },
          {
            "duration": 0.0428569999999997,
            "durationTicks": 96,
            "midi": 60,
            "name": "C4",
            "ticks": 21696,
            "time": 9.685682,
            "velocity": 0.4251968503937008
          },
          {
            "duration": 0.0428569999999997,
            "durationTicks": 96,
            "midi": 57,
            "name": "A3",
            "ticks": 21696,
            "time": 9.685682,
            "velocity": 0.4251968503937008
          },
          {
            "duration": 0.0428569999999997,
            "durationTicks": 96,
            "midi": 54,
            "name": "F#3",
            "ticks": 21696,
            "time": 9.685682,
            "velocity": 0.4251968503937008
          },
          {
            "duration": 0.0428569999999997,
            "durationTicks": 96,
            "midi": 59,
            "name": "B3",
            "ticks": 23232,
            "time": 10.371394,
            "velocity": 0.4251968503937008
          },
          {
            "duration": 0.0428569999999997,
            "durationTicks": 96,
            "midi": 65,
            "name": "F4",
            "ticks": 23232,
            "time": 10.371394,
            "velocity": 0.4251968503937008
          },
          {
            "duration": 0.0428569999999997,
            "durationTicks": 96,
            "midi": 62,
            "name": "D4",
            "ticks": 23232,
            "time": 10.371394,
            "velocity": 0.4251968503937008
          },
          {
            "duration": 0.04285700000000148,
            "durationTicks": 96,
            "midi": 57,
            "name": "A3",
            "ticks": 24768,
            "time": 11.057106,
            "velocity": 0.4251968503937008
          },
          {
            "duration": 0.04285700000000148,
            "durationTicks": 96,
            "midi": 53,
            "name": "F3",
            "ticks": 24768,
            "time": 11.057106,
            "velocity": 0.4251968503937008
          },
          {
            "duration": 0.04285700000000148,
            "durationTicks": 96,
            "midi": 60,
            "name": "C4",
            "ticks": 24768,
            "time": 11.057106,
            "velocity": 0.4251968503937008
          },
          {
            "duration": 0.04285700000000148,
            "durationTicks": 96,
            "midi": 59,
            "name": "B3",
            "ticks": 27072,
            "time": 12.085674,
            "velocity": 0.4251968503937008
          },
          {
            "duration": 0.04285700000000148,
            "durationTicks": 96,
            "midi": 56,
            "name": "G#3",
            "ticks": 27072,
            "time": 12.085674,
            "velocity": 0.4251968503937008
          },
          {
            "duration": 0.04285700000000148,
            "durationTicks": 96,
            "midi": 52,
            "name": "E3",
            "ticks": 27072,
            "time": 12.085674,
            "velocity": 0.4251968503937008
          },
          {
            "duration": 0.04285700000000148,
            "durationTicks": 96,
            "midi": 64,
            "name": "E4",
            "ticks": 29376,
            "time": 13.114241999999999,
            "velocity": 0.4251968503937008
          },
          {
            "duration": 0.04285700000000148,
            "durationTicks": 96,
            "midi": 60,
            "name": "C4",
            "ticks": 29376,
            "time": 13.114241999999999,
            "velocity": 0.4251968503937008
          },
          {
            "duration": 0.04285700000000148,
            "durationTicks": 96,
            "midi": 57,
            "name": "A3",
            "ticks": 29376,
            "time": 13.114241999999999,
            "velocity": 0.4251968503937008
          },
          {
            "duration": 0.0428569999999997,
            "durationTicks": 96,
            "midi": 57,
            "name": "A3",
            "ticks": 30912,
            "time": 13.799954,
            "velocity": 0.4251968503937008
          },
          {
            "duration": 0.0428569999999997,
            "durationTicks": 96,
            "midi": 62,
            "name": "D4",
            "ticks": 30912,
            "time": 13.799954,
            "velocity": 0.4251968503937008
          },
          {
            "duration": 0.0428569999999997,
            "durationTicks": 96,
            "midi": 65,
            "name": "F4",
            "ticks": 30912,
            "time": 13.799954,
            "velocity": 0.4251968503937008
          },
          {
            "duration": 0.0428569999999997,
            "durationTicks": 96,
            "midi": 64,
            "name": "E4",
            "ticks": 32448,
            "time": 14.485666,
            "velocity": 0.4251968503937008
          },
          {
            "duration": 0.0428569999999997,
            "durationTicks": 96,
            "midi": 56,
            "name": "G#3",
            "ticks": 32448,
            "time": 14.485666,
            "velocity": 0.4251968503937008
          },
          {
            "duration": 0.0428569999999997,
            "durationTicks": 96,
            "midi": 59,
            "name": "B3",
            "ticks": 32448,
            "time": 14.485666,
            "velocity": 0.4251968503937008
          },
          {
            "duration": 0.0428569999999997,
            "durationTicks": 96,
            "midi": 57,
            "name": "A3",
            "ticks": 35520,
            "time": 15.85709,
            "velocity": 0.4251968503937008
          },
          {
            "duration": 0.0428569999999997,
            "durationTicks": 96,
            "midi": 61,
            "name": "C#4",
            "ticks": 35520,
            "time": 15.85709,
            "velocity": 0.4251968503937008
          },
          {
            "duration": 0.0428569999999997,
            "durationTicks": 96,
            "midi": 64,
            "name": "E4",
            "ticks": 35520,
            "time": 15.85709,
            "velocity": 0.4251968503937008
          },
          {
            "duration": 0.04285700000000148,
            "durationTicks": 96,
            "midi": 61,
            "name": "C#4",
            "ticks": 37056,
            "time": 16.542802,
            "velocity": 0.4251968503937008
          },
          {
            "duration": 0.04285700000000148,
            "durationTicks": 96,
            "midi": 64,
            "name": "E4",
            "ticks": 37056,
            "time": 16.542802,
            "velocity": 0.4251968503937008
          },
          {
            "duration": 0.04285700000000148,
            "durationTicks": 96,
            "midi": 67,
            "name": "G4",
            "ticks": 37056,
            "time": 16.542802,
            "velocity": 0.4251968503937008
          },
          {
            "duration": 0.042856999999997925,
            "durationTicks": 96,
            "midi": 69,
            "name": "A4",
            "ticks": 38592,
            "time": 17.228514,
            "velocity": 0.4251968503937008
          },
          {
            "duration": 0.042856999999997925,
            "durationTicks": 96,
            "midi": 62,
            "name": "D4",
            "ticks": 38592,
            "time": 17.228514,
            "velocity": 0.4251968503937008
          },
          {
            "duration": 0.042856999999997925,
            "durationTicks": 96,
            "midi": 65,
            "name": "F4",
            "ticks": 38592,
            "time": 17.228514,
            "velocity": 0.4251968503937008
          },
          {
            "duration": 0.04285700000000148,
            "durationTicks": 96,
            "midi": 65,
            "name": "F4",
            "ticks": 41664,
            "time": 18.599937999999998,
            "velocity": 0.4251968503937008
          },
          {
            "duration": 0.04285700000000148,
            "durationTicks": 96,
            "midi": 59,
            "name": "B3",
            "ticks": 41664,
            "time": 18.599937999999998,
            "velocity": 0.4251968503937008
          },
          {
            "duration": 0.04285700000000148,
            "durationTicks": 96,
            "midi": 62,
            "name": "D4",
            "ticks": 41664,
            "time": 18.599937999999998,
            "velocity": 0.4251968503937008
          },
          {
            "duration": 0.042856999999997925,
            "durationTicks": 96,
            "midi": 59,
            "name": "B3",
            "ticks": 43200,
            "time": 19.28565,
            "velocity": 0.4251968503937008
          },
          {
            "duration": 0.042856999999997925,
            "durationTicks": 96,
            "midi": 56,
            "name": "G#3",
            "ticks": 43200,
            "time": 19.28565,
            "velocity": 0.4251968503937008
          },
          {
            "duration": 0.042856999999997925,
            "durationTicks": 96,
            "midi": 64,
            "name": "E4",
            "ticks": 43200,
            "time": 19.28565,
            "velocity": 0.4251968503937008
          },
          {
            "duration": 0.04285700000000148,
            "durationTicks": 96,
            "midi": 57,
            "name": "A3",
            "ticks": 44736,
            "time": 19.971362,
            "velocity": 0.4251968503937008
          },
          {
            "duration": 0.04285700000000148,
            "durationTicks": 96,
            "midi": 64,
            "name": "E4",
            "ticks": 44736,
            "time": 19.971362,
            "velocity": 0.4251968503937008
          },
          {
            "duration": 0.04285700000000148,
            "durationTicks": 96,
            "midi": 60,
            "name": "C4",
            "ticks": 44736,
            "time": 19.971362,
            "velocity": 0.4251968503937008
          },
          {
            "duration": 0.042856999999997925,
            "durationTicks": 96,
            "midi": 62,
            "name": "D4",
            "ticks": 45504,
            "time": 20.314218,
            "velocity": 0.4251968503937008
          },
          {
            "duration": 0.042856999999997925,
            "durationTicks": 96,
            "midi": 59,
            "name": "B3",
            "ticks": 45504,
            "time": 20.314218,
            "velocity": 0.4251968503937008
          },
          {
            "duration": 0.042856999999997925,
            "durationTicks": 96,
            "midi": 55,
            "name": "G3",
            "ticks": 45504,
            "time": 20.314218,
            "velocity": 0.4251968503937008
          },
          {
            "duration": 0.04285700000000148,
            "durationTicks": 96,
            "midi": 57,
            "name": "A3",
            "ticks": 46272,
            "time": 20.657073999999998,
            "velocity": 0.4251968503937008
          },
          {
            "duration": 0.04285700000000148,
            "durationTicks": 96,
            "midi": 54,
            "name": "F#3",
            "ticks": 46272,
            "time": 20.657073999999998,
            "velocity": 0.4251968503937008
          },
          {
            "duration": 0.04285700000000148,
            "durationTicks": 96,
            "midi": 60,
            "name": "C4",
            "ticks": 46272,
            "time": 20.657073999999998,
            "velocity": 0.4251968503937008
          },
          {
            "duration": 0.042856999999997925,
            "durationTicks": 96,
            "midi": 53,
            "name": "F3",
            "ticks": 47808,
            "time": 21.342786,
            "velocity": 0.4251968503937008
          },
          {
            "duration": 0.042856999999997925,
            "durationTicks": 96,
            "midi": 57,
            "name": "A3",
            "ticks": 47808,
            "time": 21.342786,
            "velocity": 0.4251968503937008
          },
          {
            "duration": 0.042856999999997925,
            "durationTicks": 96,
            "midi": 62,
            "name": "D4",
            "ticks": 47808,
            "time": 21.342786,
            "velocity": 0.4251968503937008
          },
          {
            "duration": 0.04285700000000148,
            "durationTicks": 96,
            "midi": 64,
            "name": "E4",
            "ticks": 49344,
            "time": 22.028498,
            "velocity": 0.4251968503937008
          },
          {
            "duration": 0.04285700000000148,
            "durationTicks": 96,
            "midi": 59,
            "name": "B3",
            "ticks": 49344,
            "time": 22.028498,
            "velocity": 0.4251968503937008
          },
          {
            "duration": 0.04285700000000148,
            "durationTicks": 96,
            "midi": 56,
            "name": "G#3",
            "ticks": 49344,
            "time": 22.028498,
            "velocity": 0.4251968503937008
          },
          {
            "duration": 0.04285700000000148,
            "durationTicks": 96,
            "midi": 52,
            "name": "E3",
            "ticks": 49344,
            "time": 22.028498,
            "velocity": 0.4251968503937008
          },
          {
            "duration": 0.042856999999997925,
            "durationTicks": 96,
            "midi": 57,
            "name": "A3",
            "ticks": 50880,
            "time": 22.71421,
            "velocity": 0.4251968503937008
          },
          {
            "duration": 0.042856999999997925,
            "durationTicks": 96,
            "midi": 64,
            "name": "E4",
            "ticks": 50880,
            "time": 22.71421,
            "velocity": 0.4251968503937008
          },
          {
            "duration": 0.042856999999997925,
            "durationTicks": 96,
            "midi": 69,
            "name": "A4",
            "ticks": 50880,
            "time": 22.71421,
            "velocity": 0.4251968503937008
          },
          {
            "duration": 0.042856999999997925,
            "durationTicks": 96,
            "midi": 60,
            "name": "C4",
            "ticks": 50880,
            "time": 22.71421,
            "velocity": 0.4251968503937008
          },
          {
            "duration": 0.042856999999997925,
            "durationTicks": 96,
            "midi": 76,
            "name": "E5",
            "ticks": 54720,
            "time": 24.42849,
            "velocity": 0.4251968503937008
          },
          {
            "duration": 0.042856999999997925,
            "durationTicks": 96,
            "midi": 72,
            "name": "C5",
            "ticks": 54720,
            "time": 24.42849,
            "velocity": 0.4251968503937008
          },
          {
            "duration": 0.042856999999997925,
            "durationTicks": 96,
            "midi": 72,
            "name": "C5",
            "ticks": 54720,
            "time": 24.42849,
            "velocity": 0.4251968503937008
          },
          {
            "duration": 0.042856999999997925,
            "durationTicks": 96,
            "midi": 69,
            "name": "A4",
            "ticks": 54720,
            "time": 24.42849,
            "velocity": 0.4251968503937008
          },
          {
            "duration": 0.042856999999997925,
            "durationTicks": 96,
            "midi": 76,
            "name": "E5",
            "ticks": 54720,
            "time": 24.42849,
            "velocity": 0.4251968503937008
          },
          {
            "duration": 0.042856999999997925,
            "durationTicks": 96,
            "midi": 69,
            "name": "A4",
            "ticks": 54720,
            "time": 24.42849,
            "velocity": 0.4251968503937008
          },
          {
            "duration": 0.042856999999997925,
            "durationTicks": 96,
            "midi": 77,
            "name": "F5",
            "ticks": 55488,
            "time": 24.771346,
            "velocity": 0.4251968503937008
          },
          {
            "duration": 0.042856999999997925,
            "durationTicks": 96,
            "midi": 74,
            "name": "D5",
            "ticks": 55488,
            "time": 24.771346,
            "velocity": 0.4251968503937008
          },
          {
            "duration": 0.042856999999997925,
            "durationTicks": 96,
            "midi": 74,
            "name": "D5",
            "ticks": 55488,
            "time": 24.771346,
            "velocity": 0.4251968503937008
          },
          {
            "duration": 0.042856999999997925,
            "durationTicks": 96,
            "midi": 69,
            "name": "A4",
            "ticks": 55488,
            "time": 24.771346,
            "velocity": 0.4251968503937008
          },
          {
            "duration": 0.042856999999997925,
            "durationTicks": 96,
            "midi": 77,
            "name": "F5",
            "ticks": 55488,
            "time": 24.771346,
            "velocity": 0.4251968503937008
          },
          {
            "duration": 0.042856999999997925,
            "durationTicks": 96,
            "midi": 69,
            "name": "A4",
            "ticks": 55488,
            "time": 24.771346,
            "velocity": 0.4251968503937008
          },
          {
            "duration": 0.04285700000000148,
            "durationTicks": 96,
            "midi": 69,
            "name": "A4",
            "ticks": 56256,
            "time": 25.114202,
            "velocity": 0.4251968503937008
          },
          {
            "duration": 0.04285700000000148,
            "durationTicks": 96,
            "midi": 69,
            "name": "A4",
            "ticks": 56256,
            "time": 25.114202,
            "velocity": 0.4251968503937008
          },
          {
            "duration": 0.04285700000000148,
            "durationTicks": 96,
            "midi": 74,
            "name": "D5",
            "ticks": 56256,
            "time": 25.114202,
            "velocity": 0.4251968503937008
          },
          {
            "duration": 0.04285700000000148,
            "durationTicks": 96,
            "midi": 74,
            "name": "D5",
            "ticks": 56256,
            "time": 25.114202,
            "velocity": 0.4251968503937008
          },
          {
            "duration": 0.042856999999997925,
            "durationTicks": 96,
            "midi": 76,
            "name": "E5",
            "ticks": 57024,
            "time": 25.457058,
            "velocity": 0.4251968503937008
          },
          {
            "duration": 0.042856999999997925,
            "durationTicks": 96,
            "midi": 71,
            "name": "B4",
            "ticks": 57024,
            "time": 25.457058,
            "velocity": 0.4251968503937008
          },
          {
            "duration": 0.042856999999997925,
            "durationTicks": 96,
            "midi": 68,
            "name": "G#4",
            "ticks": 57024,
            "time": 25.457058,
            "velocity": 0.4251968503937008
          },
          {
            "duration": 0.042856999999997925,
            "durationTicks": 96,
            "midi": 76,
            "name": "E5",
            "ticks": 57024,
            "time": 25.457058,
            "velocity": 0.4251968503937008
          },
          {
            "duration": 0.042856999999997925,
            "durationTicks": 96,
            "midi": 68,
            "name": "G#4",
            "ticks": 57024,
            "time": 25.457058,
            "velocity": 0.4251968503937008
          },
          {
            "duration": 0.042856999999997925,
            "durationTicks": 96,
            "midi": 71,
            "name": "B4",
            "ticks": 57024,
            "time": 25.457058,
            "velocity": 0.4251968503937008
          },
          {
            "duration": 0.04285700000000148,
            "durationTicks": 96,
            "midi": 76,
            "name": "E5",
            "ticks": 60864,
            "time": 27.171338,
            "velocity": 0.4251968503937008
          },
          {
            "duration": 0.04285700000000148,
            "durationTicks": 96,
            "midi": 73,
            "name": "C#5",
            "ticks": 60864,
            "time": 27.171338,
            "velocity": 0.4251968503937008
          },
          {
            "duration": 0.04285700000000148,
            "durationTicks": 96,
            "midi": 69,
            "name": "A4",
            "ticks": 60864,
            "time": 27.171338,
            "velocity": 0.4251968503937008
          },
          {
            "duration": 0.04285700000000148,
            "durationTicks": 96,
            "midi": 76,
            "name": "E5",
            "ticks": 60864,
            "time": 27.171338,
            "velocity": 0.4251968503937008
          },
          {
            "duration": 0.04285700000000148,
            "durationTicks": 96,
            "midi": 69,
            "name": "A4",
            "ticks": 60864,
            "time": 27.171338,
            "velocity": 0.4251968503937008
          },
          {
            "duration": 0.04285700000000148,
            "durationTicks": 96,
            "midi": 73,
            "name": "C#5",
            "ticks": 60864,
            "time": 27.171338,
            "velocity": 0.4251968503937008
          },
          {
            "duration": 0.04285700000000148,
            "durationTicks": 96,
            "midi": 76,
            "name": "E5",
            "ticks": 61632,
            "time": 27.514194,
            "velocity": 0.4251968503937008
          },
          {
            "duration": 0.04285700000000148,
            "durationTicks": 96,
            "midi": 69,
            "name": "A4",
            "ticks": 61632,
            "time": 27.514194,
            "velocity": 0.4251968503937008
          },
          {
            "duration": 0.04285700000000148,
            "durationTicks": 96,
            "midi": 69,
            "name": "A4",
            "ticks": 61632,
            "time": 27.514194,
            "velocity": 0.4251968503937008
          },
          {
            "duration": 0.04285700000000148,
            "durationTicks": 96,
            "midi": 79,
            "name": "G5",
            "ticks": 61632,
            "time": 27.514194,
            "velocity": 0.4251968503937008
          },
          {
            "duration": 0.04285700000000148,
            "durationTicks": 96,
            "midi": 76,
            "name": "E5",
            "ticks": 61632,
            "time": 27.514194,
            "velocity": 0.4251968503937008
          },
          {
            "duration": 0.04285700000000148,
            "durationTicks": 96,
            "midi": 79,
            "name": "G5",
            "ticks": 61632,
            "time": 27.514194,
            "velocity": 0.4251968503937008
          },
          {
            "duration": 0.04285700000000148,
            "durationTicks": 96,
            "midi": 76,
            "name": "E5",
            "ticks": 62784,
            "time": 28.028478,
            "velocity": 0.4251968503937008
          },
          {
            "duration": 0.04285700000000148,
            "durationTicks": 96,
            "midi": 73,
            "name": "C#5",
            "ticks": 62784,
            "time": 28.028478,
            "velocity": 0.4251968503937008
          },
          {
            "duration": 0.04285700000000148,
            "durationTicks": 96,
            "midi": 69,
            "name": "A4",
            "ticks": 62784,
            "time": 28.028478,
            "velocity": 0.4251968503937008
          },
          {
            "duration": 0.04285700000000148,
            "durationTicks": 96,
            "midi": 73,
            "name": "C#5",
            "ticks": 62784,
            "time": 28.028478,
            "velocity": 0.4251968503937008
          },
          {
            "duration": 0.04285700000000148,
            "durationTicks": 96,
            "midi": 69,
            "name": "A4",
            "ticks": 62784,
            "time": 28.028478,
            "velocity": 0.4251968503937008
          },
          {
            "duration": 0.04285700000000148,
            "durationTicks": 96,
            "midi": 76,
            "name": "E5",
            "ticks": 62784,
            "time": 28.028478,
            "velocity": 0.4251968503937008
          },
          {
            "duration": 0.04285700000000148,
            "durationTicks": 96,
            "midi": 69,
            "name": "A4",
            "ticks": 63168,
            "time": 28.199906,
            "velocity": 0.4251968503937008
          },
          {
            "duration": 0.04285700000000148,
            "durationTicks": 96,
            "midi": 77,
            "name": "F5",
            "ticks": 63168,
            "time": 28.199906,
            "velocity": 0.4251968503937008
          },
          {
            "duration": 0.04285700000000148,
            "durationTicks": 96,
            "midi": 69,
            "name": "A4",
            "ticks": 63168,
            "time": 28.199906,
            "velocity": 0.4251968503937008
          },
          {
            "duration": 0.04285700000000148,
            "durationTicks": 96,
            "midi": 77,
            "name": "F5",
            "ticks": 63168,
            "time": 28.199906,
            "velocity": 0.4251968503937008
          },
          {
            "duration": 0.04285700000000148,
            "durationTicks": 96,
            "midi": 74,
            "name": "D5",
            "ticks": 63168,
            "time": 28.199906,
            "velocity": 0.4251968503937008
          },
          {
            "duration": 0.04285700000000148,
            "durationTicks": 96,
            "midi": 74,
            "name": "D5",
            "ticks": 63168,
            "time": 28.199906,
            "velocity": 0.4251968503937008
          },
          {
            "duration": 0.042856999999997925,
            "durationTicks": 96,
            "midi": 77,
            "name": "F5",
            "ticks": 67008,
            "time": 29.914186,
            "velocity": 0.4251968503937008
          },
          {
            "duration": 0.042856999999997925,
            "durationTicks": 96,
            "midi": 72,
            "name": "C5",
            "ticks": 67008,
            "time": 29.914186,
            "velocity": 0.4251968503937008
          },
          {
            "duration": 0.042856999999997925,
            "durationTicks": 96,
            "midi": 81,
            "name": "A5",
            "ticks": 67008,
            "time": 29.914186,
            "velocity": 0.4251968503937008
          },
          {
            "duration": 0.042856999999997925,
            "durationTicks": 96,
            "midi": 81,
            "name": "A5",
            "ticks": 67008,
            "time": 29.914186,
            "velocity": 0.4251968503937008
          },
          {
            "duration": 0.042856999999997925,
            "durationTicks": 96,
            "midi": 77,
            "name": "F5",
            "ticks": 67008,
            "time": 29.914186,
            "velocity": 0.4251968503937008
          },
          {
            "duration": 0.042856999999997925,
            "durationTicks": 96,
            "midi": 72,
            "name": "C5",
            "ticks": 67008,
            "time": 29.914186,
            "velocity": 0.4251968503937008
          },
          {
            "duration": 0.04285700000000148,
            "durationTicks": 96,
            "midi": 76,
            "name": "E5",
            "ticks": 67776,
            "time": 30.257042,
            "velocity": 0.4251968503937008
          },
          {
            "duration": 0.04285700000000148,
            "durationTicks": 96,
            "midi": 80,
            "name": "G#5",
            "ticks": 67776,
            "time": 30.257042,
            "velocity": 0.4251968503937008
          },
          {
            "duration": 0.04285700000000148,
            "durationTicks": 96,
            "midi": 76,
            "name": "E5",
            "ticks": 67776,
            "time": 30.257042,
            "velocity": 0.4251968503937008
          },
          {
            "duration": 0.04285700000000148,
            "durationTicks": 96,
            "midi": 80,
            "name": "G#5",
            "ticks": 67776,
            "time": 30.257042,
            "velocity": 0.4251968503937008
          },
          {
            "duration": 0.04285700000000148,
            "durationTicks": 96,
            "midi": 71,
            "name": "B4",
            "ticks": 67776,
            "time": 30.257042,
            "velocity": 0.4251968503937008
          },
          {
            "duration": 0.04285700000000148,
            "durationTicks": 96,
            "midi": 71,
            "name": "B4",
            "ticks": 67776,
            "time": 30.257042,
            "velocity": 0.4251968503937008
          },
          {
            "duration": 0.04285700000000148,
            "durationTicks": 96,
            "midi": 80,
            "name": "G#5",
            "ticks": 68544,
            "time": 30.599898,
            "velocity": 0.4251968503937008
          },
          {
            "duration": 0.04285700000000148,
            "durationTicks": 96,
            "midi": 83,
            "name": "B5",
            "ticks": 68544,
            "time": 30.599898,
            "velocity": 0.4251968503937008
          },
          {
            "duration": 0.04285700000000148,
            "durationTicks": 96,
            "midi": 83,
            "name": "B5",
            "ticks": 68544,
            "time": 30.599898,
            "velocity": 0.4251968503937008
          },
          {
            "duration": 0.04285700000000148,
            "durationTicks": 96,
            "midi": 76,
            "name": "E5",
            "ticks": 68544,
            "time": 30.599898,
            "velocity": 0.4251968503937008
          },
          {
            "duration": 0.04285700000000148,
            "durationTicks": 96,
            "midi": 80,
            "name": "G#5",
            "ticks": 68544,
            "time": 30.599898,
            "velocity": 0.4251968503937008
          },
          {
            "duration": 0.04285700000000148,
            "durationTicks": 96,
            "midi": 76,
            "name": "E5",
            "ticks": 68544,
            "time": 30.599898,
            "velocity": 0.4251968503937008
          },
          {
            "duration": 0.042856999999997925,
            "durationTicks": 96,
            "midi": 76,
            "name": "E5",
            "ticks": 69312,
            "time": 30.942754,
            "velocity": 0.4251968503937008
          },
          {
            "duration": 0.042856999999997925,
            "durationTicks": 96,
            "midi": 81,
            "name": "A5",
            "ticks": 69312,
            "time": 30.942754,
            "velocity": 0.4251968503937008
          },
          {
            "duration": 0.042856999999997925,
            "durationTicks": 96,
            "midi": 76,
            "name": "E5",
            "ticks": 69312,
            "time": 30.942754,
            "velocity": 0.4251968503937008
          },
          {
            "duration": 0.042856999999997925,
            "durationTicks": 96,
            "midi": 72,
            "name": "C5",
            "ticks": 69312,
            "time": 30.942754,
            "velocity": 0.4251968503937008
          },
          {
            "duration": 0.042856999999997925,
            "durationTicks": 96,
            "midi": 72,
            "name": "C5",
            "ticks": 69312,
            "time": 30.942754,
            "velocity": 0.4251968503937008
          },
          {
            "duration": 0.042856999999997925,
            "durationTicks": 96,
            "midi": 81,
            "name": "A5",
            "ticks": 69312,
            "time": 30.942754,
            "velocity": 0.4251968503937008
          },
          {
            "duration": 0.042856999999997925,
            "durationTicks": 96,
            "midi": 76,
            "name": "E5",
            "ticks": 70464,
            "time": 31.457038,
            "velocity": 0.4251968503937008
          },
          {
            "duration": 0.042856999999997925,
            "durationTicks": 96,
            "midi": 69,
            "name": "A4",
            "ticks": 70464,
            "time": 31.457038,
            "velocity": 0.4251968503937008
          },
          {
            "duration": 0.042856999999997925,
            "durationTicks": 96,
            "midi": 72,
            "name": "C5",
            "ticks": 70464,
            "time": 31.457038,
            "velocity": 0.4251968503937008
          },
          {
            "duration": 0.042856999999997925,
            "durationTicks": 96,
            "midi": 69,
            "name": "A4",
            "ticks": 70464,
            "time": 31.457038,
            "velocity": 0.4251968503937008
          },
          {
            "duration": 0.042856999999997925,
            "durationTicks": 96,
            "midi": 72,
            "name": "C5",
            "ticks": 70464,
            "time": 31.457038,
            "velocity": 0.4251968503937008
          },
          {
            "duration": 0.042856999999997925,
            "durationTicks": 96,
            "midi": 76,
            "name": "E5",
            "ticks": 70464,
            "time": 31.457038,
            "velocity": 0.4251968503937008
          },
          {
            "duration": 0.04285700000000148,
            "durationTicks": 96,
            "midi": 69,
            "name": "A4",
            "ticks": 70848,
            "time": 31.628466,
            "velocity": 0.4251968503937008
          },
          {
            "duration": 0.04285700000000148,
            "durationTicks": 96,
            "midi": 76,
            "name": "E5",
            "ticks": 70848,
            "time": 31.628466,
            "velocity": 0.4251968503937008
          },
          {
            "duration": 0.04285700000000148,
            "durationTicks": 96,
            "midi": 76,
            "name": "E5",
            "ticks": 70848,
            "time": 31.628466,
            "velocity": 0.4251968503937008
          },
          {
            "duration": 0.04285700000000148,
            "durationTicks": 96,
            "midi": 72,
            "name": "C5",
            "ticks": 70848,
            "time": 31.628466,
            "velocity": 0.4251968503937008
          },
          {
            "duration": 0.04285700000000148,
            "durationTicks": 96,
            "midi": 69,
            "name": "A4",
            "ticks": 70848,
            "time": 31.628466,
            "velocity": 0.4251968503937008
          },
          {
            "duration": 0.04285700000000148,
            "durationTicks": 96,
            "midi": 72,
            "name": "C5",
            "ticks": 70848,
            "time": 31.628466,
            "velocity": 0.4251968503937008
          },
          {
            "duration": 0.04285700000000503,
            "durationTicks": 96,
            "midi": 72,
            "name": "C5",
            "ticks": 73152,
            "time": 32.657033999999996,
            "velocity": 0.4251968503937008
          },
          {
            "duration": 0.04285700000000503,
            "durationTicks": 96,
            "midi": 77,
            "name": "F5",
            "ticks": 73152,
            "time": 32.657033999999996,
            "velocity": 0.4251968503937008
          },
          {
            "duration": 0.04285700000000503,
            "durationTicks": 96,
            "midi": 72,
            "name": "C5",
            "ticks": 73152,
            "time": 32.657033999999996,
            "velocity": 0.4251968503937008
          },
          {
            "duration": 0.04285700000000503,
            "durationTicks": 96,
            "midi": 81,
            "name": "A5",
            "ticks": 73152,
            "time": 32.657033999999996,
            "velocity": 0.4251968503937008
          },
          {
            "duration": 0.04285700000000503,
            "durationTicks": 96,
            "midi": 81,
            "name": "A5",
            "ticks": 73152,
            "time": 32.657033999999996,
            "velocity": 0.4251968503937008
          },
          {
            "duration": 0.04285700000000503,
            "durationTicks": 96,
            "midi": 77,
            "name": "F5",
            "ticks": 73152,
            "time": 32.657033999999996,
            "velocity": 0.4251968503937008
          },
          {
            "duration": 0.042856999999997925,
            "durationTicks": 96,
            "midi": 76,
            "name": "E5",
            "ticks": 73920,
            "time": 32.99989,
            "velocity": 0.4251968503937008
          },
          {
            "duration": 0.042856999999997925,
            "durationTicks": 96,
            "midi": 80,
            "name": "G#5",
            "ticks": 73920,
            "time": 32.99989,
            "velocity": 0.4251968503937008
          },
          {
            "duration": 0.042856999999997925,
            "durationTicks": 96,
            "midi": 71,
            "name": "B4",
            "ticks": 73920,
            "time": 32.99989,
            "velocity": 0.4251968503937008
          },
          {
            "duration": 0.042856999999997925,
            "durationTicks": 96,
            "midi": 71,
            "name": "B4",
            "ticks": 73920,
            "time": 32.99989,
            "velocity": 0.4251968503937008
          },
          {
            "duration": 0.042856999999997925,
            "durationTicks": 96,
            "midi": 80,
            "name": "G#5",
            "ticks": 73920,
            "time": 32.99989,
            "velocity": 0.4251968503937008
          },
          {
            "duration": 0.042856999999997925,
            "durationTicks": 96,
            "midi": 76,
            "name": "E5",
            "ticks": 73920,
            "time": 32.99989,
            "velocity": 0.4251968503937008
          },
          {
            "duration": 0.042856999999997925,
            "durationTicks": 96,
            "midi": 72,
            "name": "C5",
            "ticks": 74688,
            "time": 33.342746,
            "velocity": 0.4251968503937008
          },
          {
            "duration": 0.042856999999997925,
            "durationTicks": 96,
            "midi": 81,
            "name": "A5",
            "ticks": 74688,
            "time": 33.342746,
            "velocity": 0.4251968503937008
          },
          {
            "duration": 0.042856999999997925,
            "durationTicks": 96,
            "midi": 77,
            "name": "F5",
            "ticks": 74688,
            "time": 33.342746,
            "velocity": 0.4251968503937008
          },
          {
            "duration": 0.042856999999997925,
            "durationTicks": 96,
            "midi": 72,
            "name": "C5",
            "ticks": 74688,
            "time": 33.342746,
            "velocity": 0.4251968503937008
          },
          {
            "duration": 0.042856999999997925,
            "durationTicks": 96,
            "midi": 81,
            "name": "A5",
            "ticks": 74688,
            "time": 33.342746,
            "velocity": 0.4251968503937008
          },
          {
            "duration": 0.042856999999997925,
            "durationTicks": 96,
            "midi": 77,
            "name": "F5",
            "ticks": 74688,
            "time": 33.342746,
            "velocity": 0.4251968503937008
          },
          {
            "duration": 0.042856999999997925,
            "durationTicks": 96,
            "midi": 77,
            "name": "F5",
            "ticks": 75456,
            "time": 33.685602,
            "velocity": 0.4251968503937008
          },
          {
            "duration": 0.042856999999997925,
            "durationTicks": 96,
            "midi": 81,
            "name": "A5",
            "ticks": 75456,
            "time": 33.685602,
            "velocity": 0.4251968503937008
          },
          {
            "duration": 0.042856999999997925,
            "durationTicks": 96,
            "midi": 84,
            "name": "C6",
            "ticks": 75456,
            "time": 33.685602,
            "velocity": 0.4251968503937008
          },
          {
            "duration": 0.042856999999997925,
            "durationTicks": 96,
            "midi": 81,
            "name": "A5",
            "ticks": 75456,
            "time": 33.685602,
            "velocity": 0.4251968503937008
          },
          {
            "duration": 0.042856999999997925,
            "durationTicks": 96,
            "midi": 84,
            "name": "C6",
            "ticks": 75456,
            "time": 33.685602,
            "velocity": 0.4251968503937008
          },
          {
            "duration": 0.042856999999997925,
            "durationTicks": 96,
            "midi": 77,
            "name": "F5",
            "ticks": 75456,
            "time": 33.685602,
            "velocity": 0.4251968503937008
          },
          {
            "duration": 0.042856999999997925,
            "durationTicks": 96,
            "midi": 80,
            "name": "G#5",
            "ticks": 76608,
            "time": 34.199886,
            "velocity": 0.4251968503937008
          },
          {
            "duration": 0.042856999999997925,
            "durationTicks": 96,
            "midi": 83,
            "name": "B5",
            "ticks": 76608,
            "time": 34.199886,
            "velocity": 0.4251968503937008
          },
          {
            "duration": 0.042856999999997925,
            "durationTicks": 96,
            "midi": 83,
            "name": "B5",
            "ticks": 76608,
            "time": 34.199886,
            "velocity": 0.4251968503937008
          },
          {
            "duration": 0.042856999999997925,
            "durationTicks": 96,
            "midi": 80,
            "name": "G#5",
            "ticks": 76608,
            "time": 34.199886,
            "velocity": 0.4251968503937008
          },
          {
            "duration": 0.042856999999997925,
            "durationTicks": 96,
            "midi": 76,
            "name": "E5",
            "ticks": 76608,
            "time": 34.199886,
            "velocity": 0.4251968503937008
          },
          {
            "duration": 0.042856999999997925,
            "durationTicks": 96,
            "midi": 76,
            "name": "E5",
            "ticks": 76608,
            "time": 34.199886,
            "velocity": 0.4251968503937008
          },
          {
            "duration": 0.042856999999997925,
            "durationTicks": 96,
            "midi": 83,
            "name": "B5",
            "ticks": 76992,
            "time": 34.371314,
            "velocity": 0.4251968503937008
          },
          {
            "duration": 0.042856999999997925,
            "durationTicks": 96,
            "midi": 80,
            "name": "G#5",
            "ticks": 76992,
            "time": 34.371314,
            "velocity": 0.4251968503937008
          },
          {
            "duration": 0.042856999999997925,
            "durationTicks": 96,
            "midi": 83,
            "name": "B5",
            "ticks": 76992,
            "time": 34.371314,
            "velocity": 0.4251968503937008
          },
          {
            "duration": 0.042856999999997925,
            "durationTicks": 96,
            "midi": 76,
            "name": "E5",
            "ticks": 76992,
            "time": 34.371314,
            "velocity": 0.4251968503937008
          },
          {
            "duration": 0.042856999999997925,
            "durationTicks": 96,
            "midi": 80,
            "name": "G#5",
            "ticks": 76992,
            "time": 34.371314,
            "velocity": 0.4251968503937008
          },
          {
            "duration": 0.042856999999997925,
            "durationTicks": 96,
            "midi": 76,
            "name": "E5",
            "ticks": 76992,
            "time": 34.371314,
            "velocity": 0.4251968503937008
          },
          {
            "duration": 0.042856999999997925,
            "durationTicks": 96,
            "midi": 72,
            "name": "C5",
            "ticks": 79296,
            "time": 35.399882,
            "velocity": 0.4251968503937008
          },
          {
            "duration": 0.042856999999997925,
            "durationTicks": 96,
            "midi": 76,
            "name": "E5",
            "ticks": 79296,
            "time": 35.399882,
            "velocity": 0.4251968503937008
          },
          {
            "duration": 0.042856999999997925,
            "durationTicks": 96,
            "midi": 69,
            "name": "A4",
            "ticks": 79296,
            "time": 35.399882,
            "velocity": 0.4251968503937008
          },
          {
            "duration": 0.042856999999997925,
            "durationTicks": 96,
            "midi": 69,
            "name": "A4",
            "ticks": 79296,
            "time": 35.399882,
            "velocity": 0.4251968503937008
          },
          {
            "duration": 0.042856999999997925,
            "durationTicks": 96,
            "midi": 72,
            "name": "C5",
            "ticks": 79296,
            "time": 35.399882,
            "velocity": 0.4251968503937008
          },
          {
            "duration": 0.042856999999997925,
            "durationTicks": 96,
            "midi": 76,
            "name": "E5",
            "ticks": 79296,
            "time": 35.399882,
            "velocity": 0.4251968503937008
          },
          {
            "duration": 0.042856999999997925,
            "durationTicks": 96,
            "midi": 77,
            "name": "F5",
            "ticks": 80064,
            "time": 35.742738,
            "velocity": 0.4251968503937008
          },
          {
            "duration": 0.042856999999997925,
            "durationTicks": 96,
            "midi": 74,
            "name": "D5",
            "ticks": 80064,
            "time": 35.742738,
            "velocity": 0.4251968503937008
          },
          {
            "duration": 0.042856999999997925,
            "durationTicks": 96,
            "midi": 69,
            "name": "A4",
            "ticks": 80064,
            "time": 35.742738,
            "velocity": 0.4251968503937008
          },
          {
            "duration": 0.042856999999997925,
            "durationTicks": 96,
            "midi": 69,
            "name": "A4",
            "ticks": 80064,
            "time": 35.742738,
            "velocity": 0.4251968503937008
          },
          {
            "duration": 0.042856999999997925,
            "durationTicks": 96,
            "midi": 77,
            "name": "F5",
            "ticks": 80064,
            "time": 35.742738,
            "velocity": 0.4251968503937008
          },
          {
            "duration": 0.042856999999997925,
            "durationTicks": 96,
            "midi": 74,
            "name": "D5",
            "ticks": 80064,
            "time": 35.742738,
            "velocity": 0.4251968503937008
          },
          {
            "duration": 0.042856999999997925,
            "durationTicks": 96,
            "midi": 74,
            "name": "D5",
            "ticks": 80832,
            "time": 36.085594,
            "velocity": 0.4251968503937008
          },
          {
            "duration": 0.042856999999997925,
            "durationTicks": 96,
            "midi": 74,
            "name": "D5",
            "ticks": 80832,
            "time": 36.085594,
            "velocity": 0.4251968503937008
          },
          {
            "duration": 0.042856999999997925,
            "durationTicks": 96,
            "midi": 69,
            "name": "A4",
            "ticks": 80832,
            "time": 36.085594,
            "velocity": 0.4251968503937008
          },
          {
            "duration": 0.042856999999997925,
            "durationTicks": 96,
            "midi": 69,
            "name": "A4",
            "ticks": 80832,
            "time": 36.085594,
            "velocity": 0.4251968503937008
          },
          {
            "duration": 0.042856999999997925,
            "durationTicks": 96,
            "midi": 68,
            "name": "G#4",
            "ticks": 81600,
            "time": 36.42845,
            "velocity": 0.4251968503937008
          },
          {
            "duration": 0.042856999999997925,
            "durationTicks": 96,
            "midi": 76,
            "name": "E5",
            "ticks": 81600,
            "time": 36.42845,
            "velocity": 0.4251968503937008
          },
          {
            "duration": 0.042856999999997925,
            "durationTicks": 96,
            "midi": 76,
            "name": "E5",
            "ticks": 81600,
            "time": 36.42845,
            "velocity": 0.4251968503937008
          },
          {
            "duration": 0.042856999999997925,
            "durationTicks": 96,
            "midi": 71,
            "name": "B4",
            "ticks": 81600,
            "time": 36.42845,
            "velocity": 0.4251968503937008
          },
          {
            "duration": 0.042856999999997925,
            "durationTicks": 96,
            "midi": 68,
            "name": "G#4",
            "ticks": 81600,
            "time": 36.42845,
            "velocity": 0.4251968503937008
          },
          {
            "duration": 0.042856999999997925,
            "durationTicks": 96,
            "midi": 71,
            "name": "B4",
            "ticks": 81600,
            "time": 36.42845,
            "velocity": 0.4251968503937008
          },
          {
            "duration": 0.042856999999997925,
            "durationTicks": 96,
            "midi": 69,
            "name": "A4",
            "ticks": 85440,
            "time": 38.14273,
            "velocity": 0.4251968503937008
          },
          {
            "duration": 0.042856999999997925,
            "durationTicks": 96,
            "midi": 73,
            "name": "C#5",
            "ticks": 85440,
            "time": 38.14273,
            "velocity": 0.4251968503937008
          },
          {
            "duration": 0.042856999999997925,
            "durationTicks": 96,
            "midi": 73,
            "name": "C#5",
            "ticks": 85440,
            "time": 38.14273,
            "velocity": 0.4251968503937008
          },
          {
            "duration": 0.042856999999997925,
            "durationTicks": 96,
            "midi": 69,
            "name": "A4",
            "ticks": 85440,
            "time": 38.14273,
            "velocity": 0.4251968503937008
          },
          {
            "duration": 0.042856999999997925,
            "durationTicks": 96,
            "midi": 76,
            "name": "E5",
            "ticks": 85440,
            "time": 38.14273,
            "velocity": 0.4251968503937008
          },
          {
            "duration": 0.042856999999997925,
            "durationTicks": 96,
            "midi": 76,
            "name": "E5",
            "ticks": 85440,
            "time": 38.14273,
            "velocity": 0.4251968503937008
          },
          {
            "duration": 0.04285700000000503,
            "durationTicks": 96,
            "midi": 79,
            "name": "G5",
            "ticks": 86208,
            "time": 38.485586,
            "velocity": 0.4251968503937008
          },
          {
            "duration": 0.04285700000000503,
            "durationTicks": 96,
            "midi": 79,
            "name": "G5",
            "ticks": 86208,
            "time": 38.485586,
            "velocity": 0.4251968503937008
          },
          {
            "duration": 0.04285700000000503,
            "durationTicks": 96,
            "midi": 76,
            "name": "E5",
            "ticks": 86208,
            "time": 38.485586,
            "velocity": 0.4251968503937008
          },
          {
            "duration": 0.04285700000000503,
            "durationTicks": 96,
            "midi": 69,
            "name": "A4",
            "ticks": 86208,
            "time": 38.485586,
            "velocity": 0.4251968503937008
          },
          {
            "duration": 0.04285700000000503,
            "durationTicks": 96,
            "midi": 69,
            "name": "A4",
            "ticks": 86208,
            "time": 38.485586,
            "velocity": 0.4251968503937008
          },
          {
            "duration": 0.04285700000000503,
            "durationTicks": 96,
            "midi": 76,
            "name": "E5",
            "ticks": 86208,
            "time": 38.485586,
            "velocity": 0.4251968503937008
          },
          {
            "duration": 0.042856999999997925,
            "durationTicks": 96,
            "midi": 69,
            "name": "A4",
            "ticks": 87360,
            "time": 38.99987,
            "velocity": 0.4251968503937008
          },
          {
            "duration": 0.042856999999997925,
            "durationTicks": 96,
            "midi": 76,
            "name": "E5",
            "ticks": 87360,
            "time": 38.99987,
            "velocity": 0.4251968503937008
          },
          {
            "duration": 0.042856999999997925,
            "durationTicks": 96,
            "midi": 73,
            "name": "C#5",
            "ticks": 87360,
            "time": 38.99987,
            "velocity": 0.4251968503937008
          },
          {
            "duration": 0.042856999999997925,
            "durationTicks": 96,
            "midi": 76,
            "name": "E5",
            "ticks": 87360,
            "time": 38.99987,
            "velocity": 0.4251968503937008
          },
          {
            "duration": 0.042856999999997925,
            "durationTicks": 96,
            "midi": 69,
            "name": "A4",
            "ticks": 87360,
            "time": 38.99987,
            "velocity": 0.4251968503937008
          },
          {
            "duration": 0.042856999999997925,
            "durationTicks": 96,
            "midi": 73,
            "name": "C#5",
            "ticks": 87360,
            "time": 38.99987,
            "velocity": 0.4251968503937008
          },
          {
            "duration": 0.042856999999997925,
            "durationTicks": 96,
            "midi": 69,
            "name": "A4",
            "ticks": 87744,
            "time": 39.171298,
            "velocity": 0.4251968503937008
          },
          {
            "duration": 0.042856999999997925,
            "durationTicks": 96,
            "midi": 74,
            "name": "D5",
            "ticks": 87744,
            "time": 39.171298,
            "velocity": 0.4251968503937008
          },
          {
            "duration": 0.042856999999997925,
            "durationTicks": 96,
            "midi": 77,
            "name": "F5",
            "ticks": 87744,
            "time": 39.171298,
            "velocity": 0.4251968503937008
          },
          {
            "duration": 0.042856999999997925,
            "durationTicks": 96,
            "midi": 69,
            "name": "A4",
            "ticks": 87744,
            "time": 39.171298,
            "velocity": 0.4251968503937008
          },
          {
            "duration": 0.042856999999997925,
            "durationTicks": 96,
            "midi": 74,
            "name": "D5",
            "ticks": 87744,
            "time": 39.171298,
            "velocity": 0.4251968503937008
          },
          {
            "duration": 0.042856999999997925,
            "durationTicks": 96,
            "midi": 77,
            "name": "F5",
            "ticks": 87744,
            "time": 39.171298,
            "velocity": 0.4251968503937008
          },
          {
            "duration": 0.042856999999997925,
            "durationTicks": 96,
            "midi": 72,
            "name": "C5",
            "ticks": 91584,
            "time": 40.885578,
            "velocity": 0.4251968503937008
          },
          {
            "duration": 0.042856999999997925,
            "durationTicks": 96,
            "midi": 72,
            "name": "C5",
            "ticks": 91584,
            "time": 40.885578,
            "velocity": 0.4251968503937008
          },
          {
            "duration": 0.042856999999997925,
            "durationTicks": 96,
            "midi": 77,
            "name": "F5",
            "ticks": 91584,
            "time": 40.885578,
            "velocity": 0.4251968503937008
          },
          {
            "duration": 0.042856999999997925,
            "durationTicks": 96,
            "midi": 77,
            "name": "F5",
            "ticks": 91584,
            "time": 40.885578,
            "velocity": 0.4251968503937008
          },
          {
            "duration": 0.042856999999997925,
            "durationTicks": 96,
            "midi": 81,
            "name": "A5",
            "ticks": 91584,
            "time": 40.885578,
            "velocity": 0.4251968503937008
          },
          {
            "duration": 0.042856999999997925,
            "durationTicks": 96,
            "midi": 81,
            "name": "A5",
            "ticks": 91584,
            "time": 40.885578,
            "velocity": 0.4251968503937008
          },
          {
            "duration": 0.042856999999997925,
            "durationTicks": 96,
            "midi": 80,
            "name": "G#5",
            "ticks": 92352,
            "time": 41.228434,
            "velocity": 0.4251968503937008
          },
          {
            "duration": 0.042856999999997925,
            "durationTicks": 96,
            "midi": 71,
            "name": "B4",
            "ticks": 92352,
            "time": 41.228434,
            "velocity": 0.4251968503937008
          },
          {
            "duration": 0.042856999999997925,
            "durationTicks": 96,
            "midi": 76,
            "name": "E5",
            "ticks": 92352,
            "time": 41.228434,
            "velocity": 0.4251968503937008
          },
          {
            "duration": 0.042856999999997925,
            "durationTicks": 96,
            "midi": 71,
            "name": "B4",
            "ticks": 92352,
            "time": 41.228434,
            "velocity": 0.4251968503937008
          },
          {
            "duration": 0.042856999999997925,
            "durationTicks": 96,
            "midi": 80,
            "name": "G#5",
            "ticks": 92352,
            "time": 41.228434,
            "velocity": 0.4251968503937008
          },
          {
            "duration": 0.042856999999997925,
            "durationTicks": 96,
            "midi": 76,
            "name": "E5",
            "ticks": 92352,
            "time": 41.228434,
            "velocity": 0.4251968503937008
          },
          {
            "duration": 0.04285700000000503,
            "durationTicks": 96,
            "midi": 83,
            "name": "B5",
            "ticks": 93120,
            "time": 41.57129,
            "velocity": 0.4251968503937008
          },
          {
            "duration": 0.04285700000000503,
            "durationTicks": 96,
            "midi": 80,
            "name": "G#5",
            "ticks": 93120,
            "time": 41.57129,
            "velocity": 0.4251968503937008
          },
          {
            "duration": 0.04285700000000503,
            "durationTicks": 96,
            "midi": 83,
            "name": "B5",
            "ticks": 93120,
            "time": 41.57129,
            "velocity": 0.4251968503937008
          },
          {
            "duration": 0.04285700000000503,
            "durationTicks": 96,
            "midi": 76,
            "name": "E5",
            "ticks": 93120,
            "time": 41.57129,
            "velocity": 0.4251968503937008
          },
          {
            "duration": 0.04285700000000503,
            "durationTicks": 96,
            "midi": 80,
            "name": "G#5",
            "ticks": 93120,
            "time": 41.57129,
            "velocity": 0.4251968503937008
          },
          {
            "duration": 0.04285700000000503,
            "durationTicks": 96,
            "midi": 76,
            "name": "E5",
            "ticks": 93120,
            "time": 41.57129,
            "velocity": 0.4251968503937008
          },
          {
            "duration": 0.042856999999997925,
            "durationTicks": 96,
            "midi": 81,
            "name": "A5",
            "ticks": 93888,
            "time": 41.914146,
            "velocity": 0.4251968503937008
          },
          {
            "duration": 0.042856999999997925,
            "durationTicks": 96,
            "midi": 76,
            "name": "E5",
            "ticks": 93888,
            "time": 41.914146,
            "velocity": 0.4251968503937008
          },
          {
            "duration": 0.042856999999997925,
            "durationTicks": 96,
            "midi": 76,
            "name": "E5",
            "ticks": 93888,
            "time": 41.914146,
            "velocity": 0.4251968503937008
          },
          {
            "duration": 0.042856999999997925,
            "durationTicks": 96,
            "midi": 72,
            "name": "C5",
            "ticks": 93888,
            "time": 41.914146,
            "velocity": 0.4251968503937008
          },
          {
            "duration": 0.042856999999997925,
            "durationTicks": 96,
            "midi": 81,
            "name": "A5",
            "ticks": 93888,
            "time": 41.914146,
            "velocity": 0.4251968503937008
          },
          {
            "duration": 0.042856999999997925,
            "durationTicks": 96,
            "midi": 72,
            "name": "C5",
            "ticks": 93888,
            "time": 41.914146,
            "velocity": 0.4251968503937008
          },
          {
            "duration": 0.042856999999997925,
            "durationTicks": 96,
            "midi": 76,
            "name": "E5",
            "ticks": 95040,
            "time": 42.42843,
            "velocity": 0.4251968503937008
          },
          {
            "duration": 0.042856999999997925,
            "durationTicks": 96,
            "midi": 69,
            "name": "A4",
            "ticks": 95040,
            "time": 42.42843,
            "velocity": 0.4251968503937008
          },
          {
            "duration": 0.042856999999997925,
            "durationTicks": 96,
            "midi": 69,
            "name": "A4",
            "ticks": 95040,
            "time": 42.42843,
            "velocity": 0.4251968503937008
          },
          {
            "duration": 0.042856999999997925,
            "durationTicks": 96,
            "midi": 72,
            "name": "C5",
            "ticks": 95040,
            "time": 42.42843,
            "velocity": 0.4251968503937008
          },
          {
            "duration": 0.042856999999997925,
            "durationTicks": 96,
            "midi": 76,
            "name": "E5",
            "ticks": 95040,
            "time": 42.42843,
            "velocity": 0.4251968503937008
          },
          {
            "duration": 0.042856999999997925,
            "durationTicks": 96,
            "midi": 72,
            "name": "C5",
            "ticks": 95040,
            "time": 42.42843,
            "velocity": 0.4251968503937008
          },
          {
            "duration": 0.04285700000000503,
            "durationTicks": 96,
            "midi": 76,
            "name": "E5",
            "ticks": 95424,
            "time": 42.599858,
            "velocity": 0.4251968503937008
          },
          {
            "duration": 0.04285700000000503,
            "durationTicks": 96,
            "midi": 72,
            "name": "C5",
            "ticks": 95424,
            "time": 42.599858,
            "velocity": 0.4251968503937008
          },
          {
            "duration": 0.04285700000000503,
            "durationTicks": 96,
            "midi": 69,
            "name": "A4",
            "ticks": 95424,
            "time": 42.599858,
            "velocity": 0.4251968503937008
          },
          {
            "duration": 0.04285700000000503,
            "durationTicks": 96,
            "midi": 69,
            "name": "A4",
            "ticks": 95424,
            "time": 42.599858,
            "velocity": 0.4251968503937008
          },
          {
            "duration": 0.04285700000000503,
            "durationTicks": 96,
            "midi": 72,
            "name": "C5",
            "ticks": 95424,
            "time": 42.599858,
            "velocity": 0.4251968503937008
          },
          {
            "duration": 0.04285700000000503,
            "durationTicks": 96,
            "midi": 76,
            "name": "E5",
            "ticks": 95424,
            "time": 42.599858,
            "velocity": 0.4251968503937008
          },
          {
            "duration": 0.042856999999997925,
            "durationTicks": 96,
            "midi": 74,
            "name": "D5",
            "ticks": 96192,
            "time": 42.942714,
            "velocity": 0.4251968503937008
          },
          {
            "duration": 0.042856999999997925,
            "durationTicks": 96,
            "midi": 74,
            "name": "D5",
            "ticks": 96192,
            "time": 42.942714,
            "velocity": 0.4251968503937008
          },
          {
            "duration": 0.042856999999997925,
            "durationTicks": 96,
            "midi": 72,
            "name": "C5",
            "ticks": 96960,
            "time": 43.28557,
            "velocity": 0.4251968503937008
          },
          {
            "duration": 0.042856999999997925,
            "durationTicks": 96,
            "midi": 69,
            "name": "A4",
            "ticks": 96960,
            "time": 43.28557,
            "velocity": 0.4251968503937008
          },
          {
            "duration": 0.042856999999997925,
            "durationTicks": 96,
            "midi": 66,
            "name": "F#4",
            "ticks": 96960,
            "time": 43.28557,
            "velocity": 0.4251968503937008
          },
          {
            "duration": 0.042856999999997925,
            "durationTicks": 96,
            "midi": 66,
            "name": "F#4",
            "ticks": 96960,
            "time": 43.28557,
            "velocity": 0.4251968503937008
          },
          {
            "duration": 0.042856999999997925,
            "durationTicks": 96,
            "midi": 69,
            "name": "A4",
            "ticks": 96960,
            "time": 43.28557,
            "velocity": 0.4251968503937008
          },
          {
            "duration": 0.042856999999997925,
            "durationTicks": 96,
            "midi": 63,
            "name": "D#4",
            "ticks": 96960,
            "time": 43.28557,
            "velocity": 0.4251968503937008
          },
          {
            "duration": 0.042856999999997925,
            "durationTicks": 96,
            "midi": 72,
            "name": "C5",
            "ticks": 96960,
            "time": 43.28557,
            "velocity": 0.4251968503937008
          },
          {
            "duration": 0.042856999999997925,
            "durationTicks": 96,
            "midi": 63,
            "name": "D#4",
            "ticks": 96960,
            "time": 43.28557,
            "velocity": 0.4251968503937008
          },
          {
            "duration": 0.042856999999997925,
            "durationTicks": 96,
            "midi": 76,
            "name": "E5",
            "ticks": 98496,
            "time": 43.971282,
            "velocity": 0.4251968503937008
          },
          {
            "duration": 0.042856999999997925,
            "durationTicks": 96,
            "midi": 68,
            "name": "G#4",
            "ticks": 98496,
            "time": 43.971282,
            "velocity": 0.4251968503937008
          },
          {
            "duration": 0.042856999999997925,
            "durationTicks": 96,
            "midi": 71,
            "name": "B4",
            "ticks": 98496,
            "time": 43.971282,
            "velocity": 0.4251968503937008
          },
          {
            "duration": 0.042856999999997925,
            "durationTicks": 96,
            "midi": 71,
            "name": "B4",
            "ticks": 98496,
            "time": 43.971282,
            "velocity": 0.4251968503937008
          },
          {
            "duration": 0.042856999999997925,
            "durationTicks": 96,
            "midi": 68,
            "name": "G#4",
            "ticks": 98496,
            "time": 43.971282,
            "velocity": 0.4251968503937008
          },
          {
            "duration": 0.042856999999997925,
            "durationTicks": 96,
            "midi": 76,
            "name": "E5",
            "ticks": 98496,
            "time": 43.971282,
            "velocity": 0.4251968503937008
          },
          {
            "duration": 0.04285700000000503,
            "durationTicks": 96,
            "midi": 69,
            "name": "A4",
            "ticks": 100032,
            "time": 44.656994,
            "velocity": 0.4251968503937008
          },
          {
            "duration": 0.042856999999997925,
            "durationTicks": 96,
            "midi": 69,
            "name": "A4",
            "ticks": 100800,
            "time": 44.99985,
            "velocity": 0.4251968503937008
          },
          {
            "duration": 0.042856999999997925,
            "durationTicks": 96,
            "midi": 76,
            "name": "E5",
            "ticks": 100800,
            "time": 44.99985,
            "velocity": 0.4251968503937008
          },
          {
            "duration": 0.042856999999997925,
            "durationTicks": 96,
            "midi": 72,
            "name": "C5",
            "ticks": 100800,
            "time": 44.99985,
            "velocity": 0.4251968503937008
          },
          {
            "duration": 0.042856999999997925,
            "durationTicks": 96,
            "midi": 69,
            "name": "A4",
            "ticks": 100800,
            "time": 44.99985,
            "velocity": 0.4251968503937008
          },
          {
            "duration": 0.042856999999997925,
            "durationTicks": 96,
            "midi": 64,
            "name": "E4",
            "ticks": 100800,
            "time": 44.99985,
            "velocity": 0.4251968503937008
          },
          {
            "duration": 0.042856999999997925,
            "durationTicks": 96,
            "midi": 64,
            "name": "E4",
            "ticks": 100800,
            "time": 44.99985,
            "velocity": 0.4251968503937008
          },
          {
            "duration": 0.042856999999997925,
            "durationTicks": 96,
            "midi": 76,
            "name": "E5",
            "ticks": 100800,
            "time": 44.99985,
            "velocity": 0.4251968503937008
          },
          {
            "duration": 0.042856999999997925,
            "durationTicks": 96,
            "midi": 72,
            "name": "C5",
            "ticks": 100800,
            "time": 44.99985,
            "velocity": 0.4251968503937008
          },
          {
            "duration": 0.042856999999997925,
            "durationTicks": 96,
            "midi": 64,
            "name": "E4",
            "ticks": 101568,
            "time": 45.342706,
            "velocity": 0.4251968503937008
          },
          {
            "duration": 0.042856999999997925,
            "durationTicks": 96,
            "midi": 81,
            "name": "A5",
            "ticks": 101568,
            "time": 45.342706,
            "velocity": 0.4251968503937008
          },
          {
            "duration": 0.042856999999997925,
            "durationTicks": 96,
            "midi": 57,
            "name": "A3",
            "ticks": 101568,
            "time": 45.342706,
            "velocity": 0.4251968503937008
          },
          {
            "duration": 0.042856999999997925,
            "durationTicks": 96,
            "midi": 57,
            "name": "A3",
            "ticks": 101568,
            "time": 45.342706,
            "velocity": 0.4251968503937008
          },
          {
            "duration": 0.042856999999997925,
            "durationTicks": 96,
            "midi": 72,
            "name": "C5",
            "ticks": 101568,
            "time": 45.342706,
            "velocity": 0.4251968503937008
          },
          {
            "duration": 0.042856999999997925,
            "durationTicks": 96,
            "midi": 81,
            "name": "A5",
            "ticks": 101568,
            "time": 45.342706,
            "velocity": 0.4251968503937008
          },
          {
            "duration": 0.042856999999997925,
            "durationTicks": 96,
            "midi": 64,
            "name": "E4",
            "ticks": 101568,
            "time": 45.342706,
            "velocity": 0.4251968503937008
          },
          {
            "duration": 0.042856999999997925,
            "durationTicks": 96,
            "midi": 72,
            "name": "C5",
            "ticks": 101568,
            "time": 45.342706,
            "velocity": 0.4251968503937008
          },
          {
            "duration": 0.042856999999997925,
            "durationTicks": 96,
            "midi": 76,
            "name": "E5",
            "ticks": 124608,
            "time": 55.628386,
            "velocity": 0.4251968503937008
          },
          {
            "duration": 0.042856999999997925,
            "durationTicks": 96,
            "midi": 84,
            "name": "C6",
            "ticks": 124608,
            "time": 55.628386,
            "velocity": 0.4251968503937008
          },
          {
            "duration": 0.042856999999997925,
            "durationTicks": 96,
            "midi": 81,
            "name": "A5",
            "ticks": 124608,
            "time": 55.628386,
            "velocity": 0.4251968503937008
          },
          {
            "duration": 0.04285700000000503,
            "durationTicks": 96,
            "midi": 74,
            "name": "D5",
            "ticks": 125376,
            "time": 55.971242,
            "velocity": 0.4251968503937008
          },
          {
            "duration": 0.04285700000000503,
            "durationTicks": 96,
            "midi": 83,
            "name": "B5",
            "ticks": 125376,
            "time": 55.971242,
            "velocity": 0.4251968503937008
          },
          {
            "duration": 0.04285700000000503,
            "durationTicks": 96,
            "midi": 77,
            "name": "F5",
            "ticks": 125376,
            "time": 55.971242,
            "velocity": 0.4251968503937008
          },
          {
            "duration": 0.042856999999997925,
            "durationTicks": 96,
            "midi": 81,
            "name": "A5",
            "ticks": 126144,
            "time": 56.314098,
            "velocity": 0.4251968503937008
          },
          {
            "duration": 0.042856999999997925,
            "durationTicks": 96,
            "midi": 76,
            "name": "E5",
            "ticks": 126144,
            "time": 56.314098,
            "velocity": 0.4251968503937008
          },
          {
            "duration": 0.042856999999997925,
            "durationTicks": 96,
            "midi": 72,
            "name": "C5",
            "ticks": 126144,
            "time": 56.314098,
            "velocity": 0.4251968503937008
          },
          {
            "duration": 0.04285700000000503,
            "durationTicks": 96,
            "midi": 72,
            "name": "C5",
            "ticks": 127680,
            "time": 56.99981,
            "velocity": 0.4251968503937008
          },
          {
            "duration": 0.042856999999997925,
            "durationTicks": 96,
            "midi": 72,
            "name": "C5",
            "ticks": 127776,
            "time": 57.042667,
            "velocity": 0.4251968503937008
          },
          {
            "duration": 0.042856999999997925,
            "durationTicks": 96,
            "midi": 72,
            "name": "C5",
            "ticks": 127872,
            "time": 57.085524,
            "velocity": 0.4251968503937008
          },
          {
            "duration": 0.042856999999997925,
            "durationTicks": 96,
            "midi": 69,
            "name": "A4",
            "ticks": 128832,
            "time": 57.514094,
            "velocity": 0.4251968503937008
          },
          {
            "duration": 0.042856999999997925,
            "durationTicks": 96,
            "midi": 69,
            "name": "A4",
            "ticks": 128928,
            "time": 57.556951,
            "velocity": 0.4251968503937008
          },
          {
            "duration": 0.04285700000000503,
            "durationTicks": 96,
            "midi": 69,
            "name": "A4",
            "ticks": 129024,
            "time": 57.599807999999996,
            "velocity": 0.4251968503937008
          },
          {
            "duration": 0.042856999999997925,
            "durationTicks": 96,
            "midi": 68,
            "name": "G#4",
            "ticks": 129216,
            "time": 57.685522,
            "velocity": 0.4251968503937008
          },
          {
            "duration": 0.04285700000000503,
            "durationTicks": 96,
            "midi": 68,
            "name": "G#4",
            "ticks": 129312,
            "time": 57.728379,
            "velocity": 0.4251968503937008
          },
          {
            "duration": 0.042856999999997925,
            "durationTicks": 96,
            "midi": 68,
            "name": "G#4",
            "ticks": 129408,
            "time": 57.771236,
            "velocity": 0.4251968503937008
          },
          {
            "duration": 0.042856999999997925,
            "durationTicks": 96,
            "midi": 69,
            "name": "A4",
            "ticks": 130368,
            "time": 58.199806,
            "velocity": 0.4251968503937008
          },
          {
            "duration": 0.042856999999997925,
            "durationTicks": 96,
            "midi": 69,
            "name": "A4",
            "ticks": 130464,
            "time": 58.242663,
            "velocity": 0.4251968503937008
          },
          {
            "duration": 0.042856999999997925,
            "durationTicks": 96,
            "midi": 69,
            "name": "A4",
            "ticks": 130560,
            "time": 58.28552,
            "velocity": 0.4251968503937008
          },
          {
            "duration": 0.042856999999997925,
            "durationTicks": 96,
            "midi": 84,
            "name": "C6",
            "ticks": 130752,
            "time": 58.371234,
            "velocity": 0.4251968503937008
          },
          {
            "duration": 0.042856999999997925,
            "durationTicks": 96,
            "midi": 64,
            "name": "E4",
            "ticks": 130752,
            "time": 58.371234,
            "velocity": 0.4251968503937008
          },
          {
            "duration": 0.042856999999997925,
            "durationTicks": 96,
            "midi": 64,
            "name": "E4",
            "ticks": 130848,
            "time": 58.414091,
            "velocity": 0.4251968503937008
          },
          {
            "duration": 0.04285700000000503,
            "durationTicks": 96,
            "midi": 64,
            "name": "E4",
            "ticks": 130944,
            "time": 58.456948,
            "velocity": 0.4251968503937008
          },
          {
            "duration": 0.042856999999997925,
            "durationTicks": 96,
            "midi": 81,
            "name": "A5",
            "ticks": 131136,
            "time": 58.542662,
            "velocity": 0.4251968503937008
          },
          {
            "duration": 0.042856999999997925,
            "durationTicks": 96,
            "midi": 81,
            "name": "A5",
            "ticks": 131520,
            "time": 58.71409,
            "velocity": 0.4251968503937008
          },
          {
            "duration": 0.042856999999997925,
            "durationTicks": 96,
            "midi": 81,
            "name": "A5",
            "ticks": 131904,
            "time": 58.885518,
            "velocity": 0.4251968503937008
          },
          {
            "duration": 0.04285700000000503,
            "durationTicks": 96,
            "midi": 81,
            "name": "A5",
            "ticks": 132288,
            "time": 59.056945999999996,
            "velocity": 0.4251968503937008
          },
          {
            "duration": 0.042856999999997925,
            "durationTicks": 96,
            "midi": 81,
            "name": "A5",
            "ticks": 132672,
            "time": 59.228374,
            "velocity": 0.4251968503937008
          },
          {
            "duration": 0.042856999999997925,
            "durationTicks": 96,
            "midi": 64,
            "name": "E4",
            "ticks": 133056,
            "time": 59.399802,
            "velocity": 0.4251968503937008
          },
          {
            "duration": 0.042856999999997925,
            "durationTicks": 96,
            "midi": 64,
            "name": "E4",
            "ticks": 133152,
            "time": 59.442659,
            "velocity": 0.4251968503937008
          },
          {
            "duration": 0.04285700000000503,
            "durationTicks": 96,
            "midi": 64,
            "name": "E4",
            "ticks": 133248,
            "time": 59.485516,
            "velocity": 0.4251968503937008
          },
          {
            "duration": 0.042856999999997925,
            "durationTicks": 96,
            "midi": 63,
            "name": "D#4",
            "ticks": 133824,
            "time": 59.742658,
            "velocity": 0.4251968503937008
          },
          {
            "duration": 0.04285700000000503,
            "durationTicks": 96,
            "midi": 63,
            "name": "D#4",
            "ticks": 133920,
            "time": 59.785515,
            "velocity": 0.4251968503937008
          },
          {
            "duration": 0.042856999999997925,
            "durationTicks": 96,
            "midi": 63,
            "name": "D#4",
            "ticks": 134016,
            "time": 59.828372,
            "velocity": 0.4251968503937008
          },
          {
            "duration": 0.042856999999997925,
            "durationTicks": 96,
            "midi": 64,
            "name": "E4",
            "ticks": 134976,
            "time": 60.256942,
            "velocity": 0.4251968503937008
          },
          {
            "duration": 0.042856999999997925,
            "durationTicks": 96,
            "midi": 64,
            "name": "E4",
            "ticks": 135072,
            "time": 60.299799,
            "velocity": 0.4251968503937008
          },
          {
            "duration": 0.042856999999997925,
            "durationTicks": 96,
            "midi": 64,
            "name": "E4",
            "ticks": 135168,
            "time": 60.342656,
            "velocity": 0.4251968503937008
          },
          {
            "duration": 0.042856999999997925,
            "durationTicks": 96,
            "midi": 72,
            "name": "C5",
            "ticks": 135360,
            "time": 60.42837,
            "velocity": 0.4251968503937008
          },
          {
            "duration": 0.042856999999997925,
            "durationTicks": 96,
            "midi": 72,
            "name": "C5",
            "ticks": 135456,
            "time": 60.471227,
            "velocity": 0.4251968503937008
          },
          {
            "duration": 0.04285700000000503,
            "durationTicks": 96,
            "midi": 72,
            "name": "C5",
            "ticks": 135552,
            "time": 60.514084,
            "velocity": 0.4251968503937008
          },
          {
            "duration": 0.04285700000000503,
            "durationTicks": 96,
            "midi": 71,
            "name": "B4",
            "ticks": 136512,
            "time": 60.942654,
            "velocity": 0.4251968503937008
          },
          {
            "duration": 0.042856999999997925,
            "durationTicks": 96,
            "midi": 71,
            "name": "B4",
            "ticks": 136608,
            "time": 60.985511,
            "velocity": 0.4251968503937008
          },
          {
            "duration": 0.042856999999997925,
            "durationTicks": 96,
            "midi": 71,
            "name": "B4",
            "ticks": 136704,
            "time": 61.028368,
            "velocity": 0.4251968503937008
          },
          {
            "duration": 0.04285700000000503,
            "durationTicks": 96,
            "midi": 69,
            "name": "A4",
            "ticks": 136896,
            "time": 61.114081999999996,
            "velocity": 0.4251968503937008
          },
          {
            "duration": 0.042856999999997925,
            "durationTicks": 96,
            "midi": 69,
            "name": "A4",
            "ticks": 136992,
            "time": 61.156939,
            "velocity": 0.4251968503937008
          },
          {
            "duration": 0.042856999999997925,
            "durationTicks": 96,
            "midi": 69,
            "name": "A4",
            "ticks": 137088,
            "time": 61.199796,
            "velocity": 0.4251968503937008
          },
          {
            "duration": 0.042856999999997925,
            "durationTicks": 96,
            "midi": 62,
            "name": "D4",
            "ticks": 137280,
            "time": 61.28551,
            "velocity": 0.4251968503937008
          },
          {
            "duration": 0.042856999999997925,
            "durationTicks": 96,
            "midi": 64,
            "name": "E4",
            "ticks": 137664,
            "time": 61.456938,
            "velocity": 0.4251968503937008
          },
          {
            "duration": 0.042856999999997925,
            "durationTicks": 96,
            "midi": 65,
            "name": "F4",
            "ticks": 138048,
            "time": 61.628366,
            "velocity": 0.4251968503937008
          },
          {
            "duration": 0.042856999999997925,
            "durationTicks": 96,
            "midi": 68,
            "name": "G#4",
            "ticks": 138432,
            "time": 61.799794,
            "velocity": 0.4251968503937008
          },
          {
            "duration": 0.042856999999997925,
            "durationTicks": 96,
            "midi": 68,
            "name": "G#4",
            "ticks": 138432,
            "time": 61.799794,
            "velocity": 0.4251968503937008
          },
          {
            "duration": 0.04285700000000503,
            "durationTicks": 96,
            "midi": 68,
            "name": "G#4",
            "ticks": 138528,
            "time": 61.842651,
            "velocity": 0.4251968503937008
          },
          {
            "duration": 0.042856999999997925,
            "durationTicks": 96,
            "midi": 68,
            "name": "G#4",
            "ticks": 138624,
            "time": 61.885508,
            "velocity": 0.4251968503937008
          },
          {
            "duration": 0.04285700000000503,
            "durationTicks": 96,
            "midi": 69,
            "name": "A4",
            "ticks": 138816,
            "time": 61.971222,
            "velocity": 0.4251968503937008
          },
          {
            "duration": 0.04285700000000503,
            "durationTicks": 96,
            "midi": 71,
            "name": "B4",
            "ticks": 139200,
            "time": 62.142649999999996,
            "velocity": 0.4251968503937008
          },
          {
            "duration": 0.042856999999997925,
            "durationTicks": 96,
            "midi": 74,
            "name": "D5",
            "ticks": 139584,
            "time": 62.314078,
            "velocity": 0.4251968503937008
          },
          {
            "duration": 0.042856999999997925,
            "durationTicks": 96,
            "midi": 72,
            "name": "C5",
            "ticks": 139968,
            "time": 62.485506,
            "velocity": 0.4251968503937008
          },
          {
            "duration": 0.042856999999997925,
            "durationTicks": 96,
            "midi": 72,
            "name": "C5",
            "ticks": 140064,
            "time": 62.528363,
            "velocity": 0.4251968503937008
          },
          {
            "duration": 0.04285700000000503,
            "durationTicks": 96,
            "midi": 72,
            "name": "C5",
            "ticks": 140160,
            "time": 62.57122,
            "velocity": 0.4251968503937008
          },
          {
            "duration": 0.04285700000000503,
            "durationTicks": 96,
            "midi": 69,
            "name": "A4",
            "ticks": 141120,
            "time": 62.99979,
            "velocity": 0.4251968503937008
          },
          {
            "duration": 0.042856999999997925,
            "durationTicks": 96,
            "midi": 69,
            "name": "A4",
            "ticks": 141216,
            "time": 63.042647,
            "velocity": 0.4251968503937008
          },
          {
            "duration": 0.042856999999997925,
            "durationTicks": 96,
            "midi": 69,
            "name": "A4",
            "ticks": 141312,
            "time": 63.085504,
            "velocity": 0.4251968503937008
          },
          {
            "duration": 0.04285700000000503,
            "durationTicks": 96,
            "midi": 68,
            "name": "G#4",
            "ticks": 141504,
            "time": 63.171217999999996,
            "velocity": 0.4251968503937008
          },
          {
            "duration": 0.042856999999997925,
            "durationTicks": 96,
            "midi": 68,
            "name": "G#4",
            "ticks": 141600,
            "time": 63.214075,
            "velocity": 0.4251968503937008
          },
          {
            "duration": 0.042856999999997925,
            "durationTicks": 96,
            "midi": 68,
            "name": "G#4",
            "ticks": 141696,
            "time": 63.256932,
            "velocity": 0.4251968503937008
          },
          {
            "duration": 0.042856999999997925,
            "durationTicks": 96,
            "midi": 69,
            "name": "A4",
            "ticks": 142656,
            "time": 63.685502,
            "velocity": 0.4251968503937008
          },
          {
            "duration": 0.042856999999997925,
            "durationTicks": 96,
            "midi": 69,
            "name": "A4",
            "ticks": 142752,
            "time": 63.728359,
            "velocity": 0.4251968503937008
          },
          {
            "duration": 0.04285700000000503,
            "durationTicks": 96,
            "midi": 69,
            "name": "A4",
            "ticks": 142848,
            "time": 63.771215999999995,
            "velocity": 0.4251968503937008
          },
          {
            "duration": 0.042856999999997925,
            "durationTicks": 96,
            "midi": 84,
            "name": "C6",
            "ticks": 143040,
            "time": 63.85693,
            "velocity": 0.4251968503937008
          },
          {
            "duration": 0.042856999999997925,
            "durationTicks": 96,
            "midi": 64,
            "name": "E4",
            "ticks": 143040,
            "time": 63.85693,
            "velocity": 0.4251968503937008
          },
          {
            "duration": 0.04285700000000503,
            "durationTicks": 96,
            "midi": 64,
            "name": "E4",
            "ticks": 143136,
            "time": 63.899786999999996,
            "velocity": 0.4251968503937008
          },
          {
            "duration": 0.042856999999997925,
            "durationTicks": 96,
            "midi": 64,
            "name": "E4",
            "ticks": 143232,
            "time": 63.942644,
            "velocity": 0.4251968503937008
          },
          {
            "duration": 0.042856999999997925,
            "durationTicks": 96,
            "midi": 81,
            "name": "A5",
            "ticks": 143424,
            "time": 64.028358,
            "velocity": 0.4251968503937008
          },
          {
            "duration": 0.042856999999997925,
            "durationTicks": 96,
            "midi": 81,
            "name": "A5",
            "ticks": 143808,
            "time": 64.199786,
            "velocity": 0.4251968503937008
          },
          {
            "duration": 0.042856999999997925,
            "durationTicks": 96,
            "midi": 81,
            "name": "A5",
            "ticks": 144192,
            "time": 64.371214,
            "velocity": 0.4251968503937008
          },
          {
            "duration": 0.042856999999997925,
            "durationTicks": 96,
            "midi": 81,
            "name": "A5",
            "ticks": 144576,
            "time": 64.542642,
            "velocity": 0.4251968503937008
          },
          {
            "duration": 0.042857000000012135,
            "durationTicks": 96,
            "midi": 81,
            "name": "A5",
            "ticks": 144960,
            "time": 64.71406999999999,
            "velocity": 0.4251968503937008
          },
          {
            "duration": 0.042856999999997925,
            "durationTicks": 96,
            "midi": 76,
            "name": "E5",
            "ticks": 145344,
            "time": 64.885498,
            "velocity": 0.4251968503937008
          },
          {
            "duration": 0.042856999999997925,
            "durationTicks": 96,
            "midi": 76,
            "name": "E5",
            "ticks": 145440,
            "time": 64.928355,
            "velocity": 0.4251968503937008
          },
          {
            "duration": 0.042856999999997925,
            "durationTicks": 96,
            "midi": 76,
            "name": "E5",
            "ticks": 145536,
            "time": 64.971212,
            "velocity": 0.4251968503937008
          },
          {
            "duration": 0.042856999999997925,
            "durationTicks": 96,
            "midi": 75,
            "name": "D#5",
            "ticks": 146112,
            "time": 65.228354,
            "velocity": 0.4251968503937008
          },
          {
            "duration": 0.042856999999997925,
            "durationTicks": 96,
            "midi": 75,
            "name": "D#5",
            "ticks": 146208,
            "time": 65.271211,
            "velocity": 0.4251968503937008
          },
          {
            "duration": 0.042857000000012135,
            "durationTicks": 96,
            "midi": 75,
            "name": "D#5",
            "ticks": 146304,
            "time": 65.31406799999999,
            "velocity": 0.4251968503937008
          },
          {
            "duration": 0.042856999999997925,
            "durationTicks": 96,
            "midi": 72,
            "name": "C5",
            "ticks": 147264,
            "time": 65.742638,
            "velocity": 0.4251968503937008
          },
          {
            "duration": 0.042856999999997925,
            "durationTicks": 96,
            "midi": 72,
            "name": "C5",
            "ticks": 147360,
            "time": 65.785495,
            "velocity": 0.4251968503937008
          },
          {
            "duration": 0.042856999999997925,
            "durationTicks": 96,
            "midi": 72,
            "name": "C5",
            "ticks": 147456,
            "time": 65.828352,
            "velocity": 0.4251968503937008
          },
          {
            "duration": 0.042856999999997925,
            "durationTicks": 96,
            "midi": 71,
            "name": "B4",
            "ticks": 147648,
            "time": 65.914066,
            "velocity": 0.4251968503937008
          },
          {
            "duration": 0.042856999999997925,
            "durationTicks": 96,
            "midi": 71,
            "name": "B4",
            "ticks": 147744,
            "time": 65.956923,
            "velocity": 0.4251968503937008
          },
          {
            "duration": 0.042856999999997925,
            "durationTicks": 96,
            "midi": 71,
            "name": "B4",
            "ticks": 147840,
            "time": 65.99978,
            "velocity": 0.4251968503937008
          },
          {
            "duration": 0.042856999999997925,
            "durationTicks": 96,
            "midi": 69,
            "name": "A4",
            "ticks": 148800,
            "time": 66.42835,
            "velocity": 0.4251968503937008
          },
          {
            "duration": 0.042857000000012135,
            "durationTicks": 96,
            "midi": 69,
            "name": "A4",
            "ticks": 148896,
            "time": 66.47120699999999,
            "velocity": 0.4251968503937008
          },
          {
            "duration": 0.042856999999997925,
            "durationTicks": 96,
            "midi": 69,
            "name": "A4",
            "ticks": 148992,
            "time": 66.514064,
            "velocity": 0.4251968503937008
          },
          {
            "duration": 0.042856999999997925,
            "durationTicks": 96,
            "midi": 69,
            "name": "A4",
            "ticks": 149184,
            "time": 66.599778,
            "velocity": 0.4251968503937008
          },
          {
            "duration": 0.042856999999997925,
            "durationTicks": 96,
            "midi": 69,
            "name": "A4",
            "ticks": 149280,
            "time": 66.642635,
            "velocity": 0.4251968503937008
          },
          {
            "duration": 0.042856999999997925,
            "durationTicks": 96,
            "midi": 69,
            "name": "A4",
            "ticks": 149376,
            "time": 66.685492,
            "velocity": 0.4251968503937008
          },
          {
            "duration": 0.042856999999997925,
            "durationTicks": 96,
            "midi": 69,
            "name": "A4",
            "ticks": 149472,
            "time": 66.728349,
            "velocity": 0.4251968503937008
          },
          {
            "duration": 0.042857000000012135,
            "durationTicks": 96,
            "midi": 69,
            "name": "A4",
            "ticks": 149568,
            "time": 66.77120599999999,
            "velocity": 0.4251968503937008
          },
          {
            "duration": 0.042856999999997925,
            "durationTicks": 96,
            "midi": 69,
            "name": "A4",
            "ticks": 149664,
            "time": 66.814063,
            "velocity": 0.4251968503937008
          },
          {
            "duration": 0.042856999999997925,
            "durationTicks": 96,
            "midi": 71,
            "name": "B4",
            "ticks": 150720,
            "time": 67.28549,
            "velocity": 0.4251968503937008
          },
          {
            "duration": 0.042857000000012135,
            "durationTicks": 96,
            "midi": 71,
            "name": "B4",
            "ticks": 150816,
            "time": 67.328347,
            "velocity": 0.4251968503937008
          },
          {
            "duration": 0.042856999999997925,
            "durationTicks": 96,
            "midi": 71,
            "name": "B4",
            "ticks": 150912,
            "time": 67.371204,
            "velocity": 0.4251968503937008
          },
          {
            "duration": 0.042856999999997925,
            "durationTicks": 96,
            "midi": 71,
            "name": "B4",
            "ticks": 151008,
            "time": 67.414061,
            "velocity": 0.4251968503937008
          },
          {
            "duration": 0.042856999999997925,
            "durationTicks": 96,
            "midi": 71,
            "name": "B4",
            "ticks": 151104,
            "time": 67.456918,
            "velocity": 0.4251968503937008
          },
          {
            "duration": 0.042856999999997925,
            "durationTicks": 96,
            "midi": 71,
            "name": "B4",
            "ticks": 151200,
            "time": 67.499775,
            "velocity": 0.4251968503937008
          },
          {
            "duration": 0.042856999999997925,
            "durationTicks": 96,
            "midi": 84,
            "name": "C6",
            "ticks": 152256,
            "time": 67.971202,
            "velocity": 0.4251968503937008
          },
          {
            "duration": 0.042856999999997925,
            "durationTicks": 96,
            "midi": 84,
            "name": "C6",
            "ticks": 152352,
            "time": 68.014059,
            "velocity": 0.4251968503937008
          },
          {
            "duration": 0.042856999999997925,
            "durationTicks": 96,
            "midi": 84,
            "name": "C6",
            "ticks": 152448,
            "time": 68.056916,
            "velocity": 0.4251968503937008
          },
          {
            "duration": 0.042856999999997925,
            "durationTicks": 96,
            "midi": 81,
            "name": "A5",
            "ticks": 153408,
            "time": 68.485486,
            "velocity": 0.4251968503937008
          },
          {
            "duration": 0.042857000000012135,
            "durationTicks": 96,
            "midi": 81,
            "name": "A5",
            "ticks": 153504,
            "time": 68.52834299999999,
            "velocity": 0.4251968503937008
          },
          {
            "duration": 0.042856999999997925,
            "durationTicks": 96,
            "midi": 81,
            "name": "A5",
            "ticks": 153600,
            "time": 68.5712,
            "velocity": 0.4251968503937008
          },
          {
            "duration": 0.042856999999997925,
            "durationTicks": 96,
            "midi": 80,
            "name": "G#5",
            "ticks": 153792,
            "time": 68.656914,
            "velocity": 0.4251968503937008
          },
          {
            "duration": 0.042856999999997925,
            "durationTicks": 96,
            "midi": 80,
            "name": "G#5",
            "ticks": 153888,
            "time": 68.699771,
            "velocity": 0.4251968503937008
          },
          {
            "duration": 0.042856999999997925,
            "durationTicks": 96,
            "midi": 80,
            "name": "G#5",
            "ticks": 153984,
            "time": 68.742628,
            "velocity": 0.4251968503937008
          },
          {
            "duration": 0.042856999999997925,
            "durationTicks": 96,
            "midi": 81,
            "name": "A5",
            "ticks": 154944,
            "time": 69.171198,
            "velocity": 0.4251968503937008
          },
          {
            "duration": 0.042856999999997925,
            "durationTicks": 96,
            "midi": 81,
            "name": "A5",
            "ticks": 155040,
            "time": 69.214055,
            "velocity": 0.4251968503937008
          },
          {
            "duration": 0.042856999999997925,
            "durationTicks": 96,
            "midi": 81,
            "name": "A5",
            "ticks": 155136,
            "time": 69.256912,
            "velocity": 0.4251968503937008
          },
          {
            "duration": 0.042856999999997925,
            "durationTicks": 96,
            "midi": 76,
            "name": "E5",
            "ticks": 155328,
            "time": 69.342626,
            "velocity": 0.4251968503937008
          },
          {
            "duration": 0.042857000000012135,
            "durationTicks": 96,
            "midi": 76,
            "name": "E5",
            "ticks": 155424,
            "time": 69.385483,
            "velocity": 0.4251968503937008
          },
          {
            "duration": 0.042856999999997925,
            "durationTicks": 96,
            "midi": 76,
            "name": "E5",
            "ticks": 155520,
            "time": 69.42834,
            "velocity": 0.4251968503937008
          },
          {
            "duration": 0.042856999999997925,
            "durationTicks": 96,
            "midi": 76,
            "name": "E5",
            "ticks": 157632,
            "time": 70.371194,
            "velocity": 0.4251968503937008
          },
          {
            "duration": 0.042856999999997925,
            "durationTicks": 96,
            "midi": 76,
            "name": "E5",
            "ticks": 157728,
            "time": 70.414051,
            "velocity": 0.4251968503937008
          },
          {
            "duration": 0.042856999999997925,
            "durationTicks": 96,
            "midi": 76,
            "name": "E5",
            "ticks": 157824,
            "time": 70.456908,
            "velocity": 0.4251968503937008
          },
          {
            "duration": 0.042856999999997925,
            "durationTicks": 96,
            "midi": 75,
            "name": "D#5",
            "ticks": 158400,
            "time": 70.71405,
            "velocity": 0.4251968503937008
          },
          {
            "duration": 0.042856999999997925,
            "durationTicks": 96,
            "midi": 75,
            "name": "D#5",
            "ticks": 158496,
            "time": 70.756907,
            "velocity": 0.4251968503937008
          },
          {
            "duration": 0.042856999999997925,
            "durationTicks": 96,
            "midi": 75,
            "name": "D#5",
            "ticks": 158592,
            "time": 70.799764,
            "velocity": 0.4251968503937008
          },
          {
            "duration": 0.042856999999997925,
            "durationTicks": 96,
            "midi": 76,
            "name": "E5",
            "ticks": 159552,
            "time": 71.228334,
            "velocity": 0.4251968503937008
          },
          {
            "duration": 0.042856999999997925,
            "durationTicks": 96,
            "midi": 76,
            "name": "E5",
            "ticks": 159648,
            "time": 71.271191,
            "velocity": 0.4251968503937008
          },
          {
            "duration": 0.042856999999997925,
            "durationTicks": 96,
            "midi": 76,
            "name": "E5",
            "ticks": 159744,
            "time": 71.314048,
            "velocity": 0.4251968503937008
          },
          {
            "duration": 0.042856999999997925,
            "durationTicks": 96,
            "midi": 84,
            "name": "C6",
            "ticks": 159936,
            "time": 71.399762,
            "velocity": 0.4251968503937008
          },
          {
            "duration": 0.042857000000012135,
            "durationTicks": 96,
            "midi": 84,
            "name": "C6",
            "ticks": 160032,
            "time": 71.442619,
            "velocity": 0.4251968503937008
          },
          {
            "duration": 0.042856999999997925,
            "durationTicks": 96,
            "midi": 84,
            "name": "C6",
            "ticks": 160128,
            "time": 71.485476,
            "velocity": 0.4251968503937008
          },
          {
            "duration": 0.042856999999997925,
            "durationTicks": 96,
            "midi": 83,
            "name": "B5",
            "ticks": 161088,
            "time": 71.914046,
            "velocity": 0.4251968503937008
          },
          {
            "duration": 0.042856999999997925,
            "durationTicks": 96,
            "midi": 83,
            "name": "B5",
            "ticks": 161184,
            "time": 71.956903,
            "velocity": 0.4251968503937008
          },
          {
            "duration": 0.042856999999997925,
            "durationTicks": 96,
            "midi": 83,
            "name": "B5",
            "ticks": 161280,
            "time": 71.99976,
            "velocity": 0.4251968503937008
          },
          {
            "duration": 0.042856999999997925,
            "durationTicks": 96,
            "midi": 81,
            "name": "A5",
            "ticks": 161472,
            "time": 72.085474,
            "velocity": 0.4251968503937008
          },
          {
            "duration": 0.042856999999997925,
            "durationTicks": 96,
            "midi": 81,
            "name": "A5",
            "ticks": 161568,
            "time": 72.128331,
            "velocity": 0.4251968503937008
          },
          {
            "duration": 0.042856999999997925,
            "durationTicks": 96,
            "midi": 81,
            "name": "A5",
            "ticks": 161664,
            "time": 72.171188,
            "velocity": 0.4251968503937008
          },
          {
            "duration": 0.042856999999997925,
            "durationTicks": 96,
            "midi": 80,
            "name": "G#5",
            "ticks": 163008,
            "time": 72.771186,
            "velocity": 0.4251968503937008
          },
          {
            "duration": 0.042856999999997925,
            "durationTicks": 96,
            "midi": 80,
            "name": "G#5",
            "ticks": 163008,
            "time": 72.771186,
            "velocity": 0.4251968503937008
          },
          {
            "duration": 0.042856999999997925,
            "durationTicks": 96,
            "midi": 80,
            "name": "G#5",
            "ticks": 163104,
            "time": 72.814043,
            "velocity": 0.4251968503937008
          },
          {
            "duration": 0.042856999999997925,
            "durationTicks": 96,
            "midi": 80,
            "name": "G#5",
            "ticks": 163200,
            "time": 72.8569,
            "velocity": 0.4251968503937008
          },
          {
            "duration": 0.042856999999997925,
            "durationTicks": 96,
            "midi": 84,
            "name": "C6",
            "ticks": 164544,
            "time": 73.456898,
            "velocity": 0.4251968503937008
          },
          {
            "duration": 0.042857000000012135,
            "durationTicks": 96,
            "midi": 84,
            "name": "C6",
            "ticks": 164640,
            "time": 73.499755,
            "velocity": 0.4251968503937008
          },
          {
            "duration": 0.042856999999997925,
            "durationTicks": 96,
            "midi": 84,
            "name": "C6",
            "ticks": 164736,
            "time": 73.542612,
            "velocity": 0.4251968503937008
          },
          {
            "duration": 0.042856999999997925,
            "durationTicks": 96,
            "midi": 81,
            "name": "A5",
            "ticks": 165696,
            "time": 73.971182,
            "velocity": 0.4251968503937008
          },
          {
            "duration": 0.042856999999997925,
            "durationTicks": 96,
            "midi": 81,
            "name": "A5",
            "ticks": 165792,
            "time": 74.014039,
            "velocity": 0.4251968503937008
          },
          {
            "duration": 0.042856999999997925,
            "durationTicks": 96,
            "midi": 81,
            "name": "A5",
            "ticks": 165888,
            "time": 74.056896,
            "velocity": 0.4251968503937008
          },
          {
            "duration": 0.042856999999997925,
            "durationTicks": 96,
            "midi": 80,
            "name": "G#5",
            "ticks": 166080,
            "time": 74.14261,
            "velocity": 0.4251968503937008
          },
          {
            "duration": 0.042856999999997925,
            "durationTicks": 96,
            "midi": 80,
            "name": "G#5",
            "ticks": 166176,
            "time": 74.185467,
            "velocity": 0.4251968503937008
          },
          {
            "duration": 0.042856999999997925,
            "durationTicks": 96,
            "midi": 80,
            "name": "G#5",
            "ticks": 166272,
            "time": 74.228324,
            "velocity": 0.4251968503937008
          },
          {
            "duration": 0.042856999999997925,
            "durationTicks": 96,
            "midi": 81,
            "name": "A5",
            "ticks": 167232,
            "time": 74.656894,
            "velocity": 0.4251968503937008
          },
          {
            "duration": 0.042857000000012135,
            "durationTicks": 96,
            "midi": 81,
            "name": "A5",
            "ticks": 167328,
            "time": 74.69975099999999,
            "velocity": 0.4251968503937008
          },
          {
            "duration": 0.042856999999997925,
            "durationTicks": 96,
            "midi": 81,
            "name": "A5",
            "ticks": 167424,
            "time": 74.742608,
            "velocity": 0.4251968503937008
          },
          {
            "duration": 0.042856999999997925,
            "durationTicks": 96,
            "midi": 76,
            "name": "E5",
            "ticks": 167616,
            "time": 74.828322,
            "velocity": 0.4251968503937008
          },
          {
            "duration": 0.042856999999997925,
            "durationTicks": 96,
            "midi": 76,
            "name": "E5",
            "ticks": 167712,
            "time": 74.871179,
            "velocity": 0.4251968503937008
          },
          {
            "duration": 0.042856999999997925,
            "durationTicks": 96,
            "midi": 76,
            "name": "E5",
            "ticks": 167808,
            "time": 74.914036,
            "velocity": 0.4251968503937008
          },
          {
            "duration": 0.042857000000012135,
            "durationTicks": 96,
            "midi": 88,
            "name": "E6",
            "ticks": 169920,
            "time": 75.85688999999999,
            "velocity": 0.4251968503937008
          },
          {
            "duration": 0.042856999999997925,
            "durationTicks": 96,
            "midi": 88,
            "name": "E6",
            "ticks": 170016,
            "time": 75.899747,
            "velocity": 0.4251968503937008
          },
          {
            "duration": 0.042856999999997925,
            "durationTicks": 96,
            "midi": 88,
            "name": "E6",
            "ticks": 170112,
            "time": 75.942604,
            "velocity": 0.4251968503937008
          },
          {
            "duration": 0.042856999999997925,
            "durationTicks": 96,
            "midi": 87,
            "name": "D#6",
            "ticks": 170688,
            "time": 76.199746,
            "velocity": 0.4251968503937008
          },
          {
            "duration": 0.042856999999997925,
            "durationTicks": 96,
            "midi": 87,
            "name": "D#6",
            "ticks": 170784,
            "time": 76.242603,
            "velocity": 0.4251968503937008
          },
          {
            "duration": 0.042856999999997925,
            "durationTicks": 96,
            "midi": 87,
            "name": "D#6",
            "ticks": 170880,
            "time": 76.28546,
            "velocity": 0.4251968503937008
          },
          {
            "duration": 0.042856999999997925,
            "durationTicks": 96,
            "midi": 84,
            "name": "C6",
            "ticks": 171840,
            "time": 76.71403,
            "velocity": 0.4251968503937008
          },
          {
            "duration": 0.042857000000012135,
            "durationTicks": 96,
            "midi": 84,
            "name": "C6",
            "ticks": 171936,
            "time": 76.75688699999999,
            "velocity": 0.4251968503937008
          },
          {
            "duration": 0.042856999999997925,
            "durationTicks": 96,
            "midi": 84,
            "name": "C6",
            "ticks": 172032,
            "time": 76.799744,
            "velocity": 0.4251968503937008
          },
          {
            "duration": 0.042856999999997925,
            "durationTicks": 96,
            "midi": 83,
            "name": "B5",
            "ticks": 172224,
            "time": 76.885458,
            "velocity": 0.4251968503937008
          },
          {
            "duration": 0.042856999999997925,
            "durationTicks": 96,
            "midi": 83,
            "name": "B5",
            "ticks": 172320,
            "time": 76.928315,
            "velocity": 0.4251968503937008
          },
          {
            "duration": 0.042856999999997925,
            "durationTicks": 96,
            "midi": 83,
            "name": "B5",
            "ticks": 172416,
            "time": 76.971172,
            "velocity": 0.4251968503937008
          },
          {
            "duration": 0.042856999999997925,
            "durationTicks": 96,
            "midi": 81,
            "name": "A5",
            "ticks": 173376,
            "time": 77.399742,
            "velocity": 0.4251968503937008
          },
          {
            "duration": 0.042856999999997925,
            "durationTicks": 96,
            "midi": 81,
            "name": "A5",
            "ticks": 173472,
            "time": 77.442599,
            "velocity": 0.4251968503937008
          },
          {
            "duration": 0.042856999999997925,
            "durationTicks": 96,
            "midi": 81,
            "name": "A5",
            "ticks": 173568,
            "time": 77.485456,
            "velocity": 0.4251968503937008
          },
          {
            "duration": 0.042856999999997925,
            "durationTicks": 96,
            "midi": 81,
            "name": "A5",
            "ticks": 173760,
            "time": 77.57117,
            "velocity": 0.4251968503937008
          },
          {
            "duration": 0.042857000000012135,
            "durationTicks": 96,
            "midi": 81,
            "name": "A5",
            "ticks": 173856,
            "time": 77.614027,
            "velocity": 0.4251968503937008
          },
          {
            "duration": 0.042856999999997925,
            "durationTicks": 96,
            "midi": 81,
            "name": "A5",
            "ticks": 173952,
            "time": 77.656884,
            "velocity": 0.4251968503937008
          },
          {
            "duration": 0.042856999999997925,
            "durationTicks": 96,
            "midi": 81,
            "name": "A5",
            "ticks": 174048,
            "time": 77.699741,
            "velocity": 0.4251968503937008
          },
          {
            "duration": 0.042856999999997925,
            "durationTicks": 96,
            "midi": 62,
            "name": "D4",
            "ticks": 174144,
            "time": 77.742598,
            "velocity": 0.4251968503937008
          },
          {
            "duration": 0.042856999999997925,
            "durationTicks": 96,
            "midi": 81,
            "name": "A5",
            "ticks": 174144,
            "time": 77.742598,
            "velocity": 0.4251968503937008
          },
          {
            "duration": 0.042857000000012135,
            "durationTicks": 96,
            "midi": 64,
            "name": "E4",
            "ticks": 174528,
            "time": 77.91402599999999,
            "velocity": 0.4251968503937008
          },
          {
            "duration": 0.042856999999997925,
            "durationTicks": 96,
            "midi": 65,
            "name": "F4",
            "ticks": 174912,
            "time": 78.085454,
            "velocity": 0.4251968503937008
          },
          {
            "duration": 0.042856999999997925,
            "durationTicks": 96,
            "midi": 83,
            "name": "B5",
            "ticks": 175296,
            "time": 78.256882,
            "velocity": 0.4251968503937008
          },
          {
            "duration": 0.042856999999997925,
            "durationTicks": 96,
            "midi": 68,
            "name": "G#4",
            "ticks": 175296,
            "time": 78.256882,
            "velocity": 0.4251968503937008
          },
          {
            "duration": 0.042856999999997925,
            "durationTicks": 96,
            "midi": 83,
            "name": "B5",
            "ticks": 175392,
            "time": 78.299739,
            "velocity": 0.4251968503937008
          },
          {
            "duration": 0.042856999999997925,
            "durationTicks": 96,
            "midi": 83,
            "name": "B5",
            "ticks": 175488,
            "time": 78.342596,
            "velocity": 0.4251968503937008
          },
          {
            "duration": 0.042856999999997925,
            "durationTicks": 96,
            "midi": 83,
            "name": "B5",
            "ticks": 175584,
            "time": 78.385453,
            "velocity": 0.4251968503937008
          },
          {
            "duration": 0.042856999999997925,
            "durationTicks": 96,
            "midi": 83,
            "name": "B5",
            "ticks": 175680,
            "time": 78.42831,
            "velocity": 0.4251968503937008
          },
          {
            "duration": 0.042856999999997925,
            "durationTicks": 96,
            "midi": 69,
            "name": "A4",
            "ticks": 175680,
            "time": 78.42831,
            "velocity": 0.4251968503937008
          },
          {
            "duration": 0.042856999999997925,
            "durationTicks": 96,
            "midi": 71,
            "name": "B4",
            "ticks": 176064,
            "time": 78.599738,
            "velocity": 0.4251968503937008
          },
          {
            "duration": 0.042856999999997925,
            "durationTicks": 96,
            "midi": 74,
            "name": "D5",
            "ticks": 176448,
            "time": 78.771166,
            "velocity": 0.4251968503937008
          },
          {
            "duration": 0.042856999999997925,
            "durationTicks": 96,
            "midi": 72,
            "name": "C5",
            "ticks": 201408,
            "time": 89.913986,
            "velocity": 0.4251968503937008
          },
          {
            "duration": 0.042856999999997925,
            "durationTicks": 96,
            "midi": 65,
            "name": "F4",
            "ticks": 201408,
            "time": 89.913986,
            "velocity": 0.4251968503937008
          },
          {
            "duration": 0.042856999999997925,
            "durationTicks": 96,
            "midi": 69,
            "name": "A4",
            "ticks": 201408,
            "time": 89.913986,
            "velocity": 0.4251968503937008
          },
          {
            "duration": 0.042856999999997925,
            "durationTicks": 96,
            "midi": 65,
            "name": "F4",
            "ticks": 201408,
            "time": 89.913986,
            "velocity": 0.4251968503937008
          },
          {
            "duration": 0.042856999999997925,
            "durationTicks": 96,
            "midi": 69,
            "name": "A4",
            "ticks": 201408,
            "time": 89.913986,
            "velocity": 0.4251968503937008
          },
          {
            "duration": 0.042856999999997925,
            "durationTicks": 96,
            "midi": 72,
            "name": "C5",
            "ticks": 201408,
            "time": 89.913986,
            "velocity": 0.4251968503937008
          },
          {
            "duration": 0.042856999999997925,
            "durationTicks": 96,
            "midi": 74,
            "name": "D5",
            "ticks": 202560,
            "time": 90.42827,
            "velocity": 0.4251968503937008
          },
          {
            "duration": 0.042856999999997925,
            "durationTicks": 96,
            "midi": 74,
            "name": "D5",
            "ticks": 202560,
            "time": 90.42827,
            "velocity": 0.4251968503937008
          },
          {
            "duration": 0.042856999999997925,
            "durationTicks": 96,
            "midi": 69,
            "name": "A4",
            "ticks": 202944,
            "time": 90.599698,
            "velocity": 0.4251968503937008
          },
          {
            "duration": 0.042856999999997925,
            "durationTicks": 96,
            "midi": 69,
            "name": "A4",
            "ticks": 202944,
            "time": 90.599698,
            "velocity": 0.4251968503937008
          },
          {
            "duration": 0.042856999999997925,
            "durationTicks": 96,
            "midi": 65,
            "name": "F4",
            "ticks": 202944,
            "time": 90.599698,
            "velocity": 0.4251968503937008
          },
          {
            "duration": 0.042856999999997925,
            "durationTicks": 96,
            "midi": 72,
            "name": "C5",
            "ticks": 202944,
            "time": 90.599698,
            "velocity": 0.4251968503937008
          },
          {
            "duration": 0.042856999999997925,
            "durationTicks": 96,
            "midi": 65,
            "name": "F4",
            "ticks": 202944,
            "time": 90.599698,
            "velocity": 0.4251968503937008
          },
          {
            "duration": 0.042856999999997925,
            "durationTicks": 96,
            "midi": 72,
            "name": "C5",
            "ticks": 202944,
            "time": 90.599698,
            "velocity": 0.4251968503937008
          },
          {
            "duration": 0.042857000000012135,
            "durationTicks": 96,
            "midi": 71,
            "name": "B4",
            "ticks": 204096,
            "time": 91.113982,
            "velocity": 0.4251968503937008
          },
          {
            "duration": 0.042857000000012135,
            "durationTicks": 96,
            "midi": 71,
            "name": "B4",
            "ticks": 204096,
            "time": 91.113982,
            "velocity": 0.4251968503937008
          },
          {
            "duration": 0.042856999999997925,
            "durationTicks": 96,
            "midi": 65,
            "name": "F4",
            "ticks": 204480,
            "time": 91.28541,
            "velocity": 0.4251968503937008
          },
          {
            "duration": 0.042856999999997925,
            "durationTicks": 96,
            "midi": 69,
            "name": "A4",
            "ticks": 204480,
            "time": 91.28541,
            "velocity": 0.4251968503937008
          },
          {
            "duration": 0.042856999999997925,
            "durationTicks": 96,
            "midi": 69,
            "name": "A4",
            "ticks": 204480,
            "time": 91.28541,
            "velocity": 0.4251968503937008
          },
          {
            "duration": 0.042856999999997925,
            "durationTicks": 96,
            "midi": 65,
            "name": "F4",
            "ticks": 204480,
            "time": 91.28541,
            "velocity": 0.4251968503937008
          },
          {
            "duration": 0.042856999999997925,
            "durationTicks": 96,
            "midi": 62,
            "name": "D4",
            "ticks": 205248,
            "time": 91.628266,
            "velocity": 0.4251968503937008
          },
          {
            "duration": 0.042856999999997925,
            "durationTicks": 96,
            "midi": 62,
            "name": "D4",
            "ticks": 205248,
            "time": 91.628266,
            "velocity": 0.4251968503937008
          },
          {
            "duration": 0.042856999999997925,
            "durationTicks": 96,
            "midi": 64,
            "name": "E4",
            "ticks": 206016,
            "time": 91.971122,
            "velocity": 0.4251968503937008
          },
          {
            "duration": 0.042856999999997925,
            "durationTicks": 96,
            "midi": 64,
            "name": "E4",
            "ticks": 206016,
            "time": 91.971122,
            "velocity": 0.4251968503937008
          },
          {
            "duration": 0.042857000000012135,
            "durationTicks": 96,
            "midi": 68,
            "name": "G#4",
            "ticks": 206784,
            "time": 92.31397799999999,
            "velocity": 0.4251968503937008
          },
          {
            "duration": 0.042857000000012135,
            "durationTicks": 96,
            "midi": 68,
            "name": "G#4",
            "ticks": 206784,
            "time": 92.31397799999999,
            "velocity": 0.4251968503937008
          },
          {
            "duration": 0.042856999999997925,
            "durationTicks": 96,
            "midi": 68,
            "name": "G#4",
            "ticks": 207552,
            "time": 92.656834,
            "velocity": 0.4251968503937008
          },
          {
            "duration": 0.042856999999997925,
            "durationTicks": 96,
            "midi": 71,
            "name": "B4",
            "ticks": 207552,
            "time": 92.656834,
            "velocity": 0.4251968503937008
          },
          {
            "duration": 0.042856999999997925,
            "durationTicks": 96,
            "midi": 71,
            "name": "B4",
            "ticks": 207552,
            "time": 92.656834,
            "velocity": 0.4251968503937008
          },
          {
            "duration": 0.042856999999997925,
            "durationTicks": 96,
            "midi": 68,
            "name": "G#4",
            "ticks": 207552,
            "time": 92.656834,
            "velocity": 0.4251968503937008
          },
          {
            "duration": 0.042857000000012135,
            "durationTicks": 96,
            "midi": 69,
            "name": "A4",
            "ticks": 208704,
            "time": 93.17111799999999,
            "velocity": 0.4251968503937008
          },
          {
            "duration": 0.042857000000012135,
            "durationTicks": 96,
            "midi": 69,
            "name": "A4",
            "ticks": 208704,
            "time": 93.17111799999999,
            "velocity": 0.4251968503937008
          },
          {
            "duration": 0.042856999999997925,
            "durationTicks": 96,
            "midi": 68,
            "name": "G#4",
            "ticks": 209088,
            "time": 93.342546,
            "velocity": 0.4251968503937008
          },
          {
            "duration": 0.042856999999997925,
            "durationTicks": 96,
            "midi": 64,
            "name": "E4",
            "ticks": 209088,
            "time": 93.342546,
            "velocity": 0.4251968503937008
          },
          {
            "duration": 0.042856999999997925,
            "durationTicks": 96,
            "midi": 64,
            "name": "E4",
            "ticks": 209088,
            "time": 93.342546,
            "velocity": 0.4251968503937008
          },
          {
            "duration": 0.042856999999997925,
            "durationTicks": 96,
            "midi": 68,
            "name": "G#4",
            "ticks": 209088,
            "time": 93.342546,
            "velocity": 0.4251968503937008
          },
          {
            "duration": 0.042856999999997925,
            "durationTicks": 96,
            "midi": 69,
            "name": "A4",
            "ticks": 210240,
            "time": 93.85683,
            "velocity": 0.4251968503937008
          },
          {
            "duration": 0.042856999999997925,
            "durationTicks": 96,
            "midi": 69,
            "name": "A4",
            "ticks": 210240,
            "time": 93.85683,
            "velocity": 0.4251968503937008
          },
          {
            "duration": 0.042856999999997925,
            "durationTicks": 96,
            "midi": 64,
            "name": "E4",
            "ticks": 210624,
            "time": 94.028258,
            "velocity": 0.4251968503937008
          },
          {
            "duration": 0.042856999999997925,
            "durationTicks": 96,
            "midi": 64,
            "name": "E4",
            "ticks": 210624,
            "time": 94.028258,
            "velocity": 0.4251968503937008
          },
          {
            "duration": 0.042856999999997925,
            "durationTicks": 96,
            "midi": 71,
            "name": "B4",
            "ticks": 212544,
            "time": 94.885398,
            "velocity": 0.4251968503937008
          },
          {
            "duration": 0.042856999999997925,
            "durationTicks": 96,
            "midi": 71,
            "name": "B4",
            "ticks": 212544,
            "time": 94.885398,
            "velocity": 0.4251968503937008
          },
          {
            "duration": 0.042856999999997925,
            "durationTicks": 96,
            "midi": 72,
            "name": "C5",
            "ticks": 212928,
            "time": 95.056826,
            "velocity": 0.4251968503937008
          },
          {
            "duration": 0.042856999999997925,
            "durationTicks": 96,
            "midi": 72,
            "name": "C5",
            "ticks": 212928,
            "time": 95.056826,
            "velocity": 0.4251968503937008
          },
          {
            "duration": 0.042857000000012135,
            "durationTicks": 96,
            "midi": 74,
            "name": "D5",
            "ticks": 213312,
            "time": 95.22825399999999,
            "velocity": 0.4251968503937008
          },
          {
            "duration": 0.042857000000012135,
            "durationTicks": 96,
            "midi": 74,
            "name": "D5",
            "ticks": 213312,
            "time": 95.22825399999999,
            "velocity": 0.4251968503937008
          },
          {
            "duration": 0.042856999999997925,
            "durationTicks": 96,
            "midi": 76,
            "name": "E5",
            "ticks": 213696,
            "time": 95.399682,
            "velocity": 0.4251968503937008
          },
          {
            "duration": 0.042856999999997925,
            "durationTicks": 96,
            "midi": 76,
            "name": "E5",
            "ticks": 213696,
            "time": 95.399682,
            "velocity": 0.4251968503937008
          },
          {
            "duration": 0.042856999999997925,
            "durationTicks": 96,
            "midi": 74,
            "name": "D5",
            "ticks": 214464,
            "time": 95.742538,
            "velocity": 0.4251968503937008
          },
          {
            "duration": 0.042856999999997925,
            "durationTicks": 96,
            "midi": 74,
            "name": "D5",
            "ticks": 214464,
            "time": 95.742538,
            "velocity": 0.4251968503937008
          },
          {
            "duration": 0.042856999999997925,
            "durationTicks": 96,
            "midi": 73,
            "name": "C#5",
            "ticks": 215232,
            "time": 96.085394,
            "velocity": 0.4251968503937008
          },
          {
            "duration": 0.042856999999997925,
            "durationTicks": 96,
            "midi": 73,
            "name": "C#5",
            "ticks": 215232,
            "time": 96.085394,
            "velocity": 0.4251968503937008
          },
          {
            "duration": 0.042857000000012135,
            "durationTicks": 96,
            "midi": 74,
            "name": "D5",
            "ticks": 216000,
            "time": 96.42824999999999,
            "velocity": 0.4251968503937008
          },
          {
            "duration": 0.042857000000012135,
            "durationTicks": 96,
            "midi": 74,
            "name": "D5",
            "ticks": 216000,
            "time": 96.42824999999999,
            "velocity": 0.4251968503937008
          },
          {
            "duration": 0.042856999999997925,
            "durationTicks": 96,
            "midi": 71,
            "name": "B4",
            "ticks": 216768,
            "time": 96.771106,
            "velocity": 0.4251968503937008
          },
          {
            "duration": 0.042856999999997925,
            "durationTicks": 96,
            "midi": 71,
            "name": "B4",
            "ticks": 216768,
            "time": 96.771106,
            "velocity": 0.4251968503937008
          },
          {
            "duration": 0.042856999999997925,
            "durationTicks": 96,
            "midi": 69,
            "name": "A4",
            "ticks": 219840,
            "time": 98.14253,
            "velocity": 0.4251968503937008
          },
          {
            "duration": 0.042856999999997925,
            "durationTicks": 96,
            "midi": 69,
            "name": "A4",
            "ticks": 219840,
            "time": 98.14253,
            "velocity": 0.4251968503937008
          },
          {
            "duration": 0.042856999999997925,
            "durationTicks": 96,
            "midi": 71,
            "name": "B4",
            "ticks": 220992,
            "time": 98.656814,
            "velocity": 0.4251968503937008
          },
          {
            "duration": 0.042856999999997925,
            "durationTicks": 96,
            "midi": 71,
            "name": "B4",
            "ticks": 220992,
            "time": 98.656814,
            "velocity": 0.4251968503937008
          },
          {
            "duration": 0.042856999999997925,
            "durationTicks": 96,
            "midi": 69,
            "name": "A4",
            "ticks": 221376,
            "time": 98.828242,
            "velocity": 0.4251968503937008
          },
          {
            "duration": 0.042856999999997925,
            "durationTicks": 96,
            "midi": 72,
            "name": "C5",
            "ticks": 221376,
            "time": 98.828242,
            "velocity": 0.4251968503937008
          },
          {
            "duration": 0.042856999999997925,
            "durationTicks": 96,
            "midi": 69,
            "name": "A4",
            "ticks": 221376,
            "time": 98.828242,
            "velocity": 0.4251968503937008
          },
          {
            "duration": 0.042856999999997925,
            "durationTicks": 96,
            "midi": 72,
            "name": "C5",
            "ticks": 221376,
            "time": 98.828242,
            "velocity": 0.4251968503937008
          },
          {
            "duration": 0.042857000000012135,
            "durationTicks": 96,
            "midi": 74,
            "name": "D5",
            "ticks": 222528,
            "time": 99.34252599999999,
            "velocity": 0.4251968503937008
          },
          {
            "duration": 0.042857000000012135,
            "durationTicks": 96,
            "midi": 71,
            "name": "B4",
            "ticks": 222528,
            "time": 99.34252599999999,
            "velocity": 0.4251968503937008
          },
          {
            "duration": 0.042857000000012135,
            "durationTicks": 96,
            "midi": 74,
            "name": "D5",
            "ticks": 222528,
            "time": 99.34252599999999,
            "velocity": 0.4251968503937008
          },
          {
            "duration": 0.042857000000012135,
            "durationTicks": 96,
            "midi": 71,
            "name": "B4",
            "ticks": 222528,
            "time": 99.34252599999999,
            "velocity": 0.4251968503937008
          },
          {
            "duration": 0.042856999999997925,
            "durationTicks": 96,
            "midi": 76,
            "name": "E5",
            "ticks": 222912,
            "time": 99.513954,
            "velocity": 0.4251968503937008
          },
          {
            "duration": 0.042856999999997925,
            "durationTicks": 96,
            "midi": 68,
            "name": "G#4",
            "ticks": 222912,
            "time": 99.513954,
            "velocity": 0.4251968503937008
          },
          {
            "duration": 0.042856999999997925,
            "durationTicks": 96,
            "midi": 71,
            "name": "B4",
            "ticks": 222912,
            "time": 99.513954,
            "velocity": 0.4251968503937008
          },
          {
            "duration": 0.042856999999997925,
            "durationTicks": 96,
            "midi": 68,
            "name": "G#4",
            "ticks": 222912,
            "time": 99.513954,
            "velocity": 0.4251968503937008
          },
          {
            "duration": 0.042856999999997925,
            "durationTicks": 96,
            "midi": 71,
            "name": "B4",
            "ticks": 222912,
            "time": 99.513954,
            "velocity": 0.4251968503937008
          },
          {
            "duration": 0.042856999999997925,
            "durationTicks": 96,
            "midi": 76,
            "name": "E5",
            "ticks": 222912,
            "time": 99.513954,
            "velocity": 0.4251968503937008
          },
          {
            "duration": 0.042856999999997925,
            "durationTicks": 96,
            "midi": 76,
            "name": "E5",
            "ticks": 225984,
            "time": 100.885378,
            "velocity": 0.4251968503937008
          },
          {
            "duration": 0.042856999999997925,
            "durationTicks": 96,
            "midi": 77,
            "name": "F5",
            "ticks": 226176,
            "time": 100.971092,
            "velocity": 0.4251968503937008
          },
          {
            "duration": 0.042856999999997925,
            "durationTicks": 96,
            "midi": 76,
            "name": "E5",
            "ticks": 226368,
            "time": 101.056806,
            "velocity": 0.4251968503937008
          },
          {
            "duration": 0.042856999999997925,
            "durationTicks": 96,
            "midi": 75,
            "name": "D#5",
            "ticks": 226560,
            "time": 101.14252,
            "velocity": 0.4251968503937008
          },
          {
            "duration": 0.042856999999997925,
            "durationTicks": 96,
            "midi": 76,
            "name": "E5",
            "ticks": 226752,
            "time": 101.228234,
            "velocity": 0.4251968503937008
          },
          {
            "duration": 0.042857000000012135,
            "durationTicks": 96,
            "midi": 69,
            "name": "A4",
            "ticks": 227136,
            "time": 101.39966199999999,
            "velocity": 0.4251968503937008
          },
          {
            "duration": 0.042856999999997925,
            "durationTicks": 96,
            "midi": 72,
            "name": "C5",
            "ticks": 227520,
            "time": 101.57109,
            "velocity": 0.4251968503937008
          },
          {
            "duration": 0.042856999999997925,
            "durationTicks": 96,
            "midi": 71,
            "name": "B4",
            "ticks": 228288,
            "time": 101.913946,
            "velocity": 0.4251968503937008
          },
          {
            "duration": 0.042857000000012135,
            "durationTicks": 96,
            "midi": 72,
            "name": "C5",
            "ticks": 228480,
            "time": 101.99965999999999,
            "velocity": 0.4251968503937008
          },
          {
            "duration": 0.042856999999997925,
            "durationTicks": 96,
            "midi": 71,
            "name": "B4",
            "ticks": 228672,
            "time": 102.085374,
            "velocity": 0.4251968503937008
          },
          {
            "duration": 0.042856999999997925,
            "durationTicks": 96,
            "midi": 69,
            "name": "A4",
            "ticks": 228864,
            "time": 102.171088,
            "velocity": 0.4251968503937008
          },
          {
            "duration": 0.042856999999997925,
            "durationTicks": 96,
            "midi": 71,
            "name": "B4",
            "ticks": 229056,
            "time": 102.256802,
            "velocity": 0.4251968503937008
          },
          {
            "duration": 0.042856999999997925,
            "durationTicks": 96,
            "midi": 68,
            "name": "G#4",
            "ticks": 229440,
            "time": 102.42823,
            "velocity": 0.4251968503937008
          },
          {
            "duration": 0.042856999999997925,
            "durationTicks": 96,
            "midi": 64,
            "name": "E4",
            "ticks": 229824,
            "time": 102.599658,
            "velocity": 0.4251968503937008
          },
          {
            "duration": 0.042856999999997925,
            "durationTicks": 96,
            "midi": 76,
            "name": "E5",
            "ticks": 229824,
            "time": 102.599658,
            "velocity": 0.4251968503937008
          },
          {
            "duration": 0.042856999999997925,
            "durationTicks": 96,
            "midi": 77,
            "name": "F5",
            "ticks": 230016,
            "time": 102.685372,
            "velocity": 0.4251968503937008
          },
          {
            "duration": 0.042856999999997925,
            "durationTicks": 96,
            "midi": 76,
            "name": "E5",
            "ticks": 230208,
            "time": 102.771086,
            "velocity": 0.4251968503937008
          },
          {
            "duration": 0.042857000000012135,
            "durationTicks": 96,
            "midi": 74,
            "name": "D5",
            "ticks": 230400,
            "time": 102.85679999999999,
            "velocity": 0.4251968503937008
          },
          {
            "duration": 0.042856999999997925,
            "durationTicks": 96,
            "midi": 76,
            "name": "E5",
            "ticks": 230592,
            "time": 102.942514,
            "velocity": 0.4251968503937008
          },
          {
            "duration": 0.042856999999997925,
            "durationTicks": 96,
            "midi": 74,
            "name": "D5",
            "ticks": 230784,
            "time": 103.028228,
            "velocity": 0.4251968503937008
          },
          {
            "duration": 0.042856999999997925,
            "durationTicks": 96,
            "midi": 71,
            "name": "B4",
            "ticks": 230976,
            "time": 103.113942,
            "velocity": 0.4251968503937008
          },
          {
            "duration": 0.042856999999997925,
            "durationTicks": 96,
            "midi": 68,
            "name": "G#4",
            "ticks": 231168,
            "time": 103.199656,
            "velocity": 0.4251968503937008
          },
          {
            "duration": 0.042856999999997925,
            "durationTicks": 96,
            "midi": 64,
            "name": "E4",
            "ticks": 231360,
            "time": 103.28537,
            "velocity": 0.4251968503937008
          },
          {
            "duration": 0.042856999999997925,
            "durationTicks": 96,
            "midi": 65,
            "name": "F4",
            "ticks": 231552,
            "time": 103.371084,
            "velocity": 0.4251968503937008
          },
          {
            "duration": 0.042857000000012135,
            "durationTicks": 96,
            "midi": 66,
            "name": "F#4",
            "ticks": 231744,
            "time": 103.45679799999999,
            "velocity": 0.4251968503937008
          },
          {
            "duration": 0.042856999999997925,
            "durationTicks": 96,
            "midi": 68,
            "name": "G#4",
            "ticks": 231936,
            "time": 103.542512,
            "velocity": 0.4251968503937008
          },
          {
            "duration": 0.042856999999997925,
            "durationTicks": 96,
            "midi": 69,
            "name": "A4",
            "ticks": 232128,
            "time": 103.628226,
            "velocity": 0.4251968503937008
          },
          {
            "duration": 0.042856999999997925,
            "durationTicks": 96,
            "midi": 70,
            "name": "A#4",
            "ticks": 232320,
            "time": 103.71394,
            "velocity": 0.4251968503937008
          },
          {
            "duration": 0.042856999999997925,
            "durationTicks": 96,
            "midi": 69,
            "name": "A4",
            "ticks": 232512,
            "time": 103.799654,
            "velocity": 0.4251968503937008
          },
          {
            "duration": 0.042856999999997925,
            "durationTicks": 96,
            "midi": 68,
            "name": "G#4",
            "ticks": 232704,
            "time": 103.885368,
            "velocity": 0.4251968503937008
          },
          {
            "duration": 0.042856999999997925,
            "durationTicks": 96,
            "midi": 69,
            "name": "A4",
            "ticks": 232896,
            "time": 103.971082,
            "velocity": 0.4251968503937008
          },
          {
            "duration": 0.042856999999997925,
            "durationTicks": 96,
            "midi": 73,
            "name": "C#5",
            "ticks": 233280,
            "time": 104.14251,
            "velocity": 0.4251968503937008
          },
          {
            "duration": 0.042857000000012135,
            "durationTicks": 96,
            "midi": 76,
            "name": "E5",
            "ticks": 233664,
            "time": 104.313938,
            "velocity": 0.4251968503937008
          },
          {
            "duration": 0.042856999999997925,
            "durationTicks": 96,
            "midi": 69,
            "name": "A4",
            "ticks": 234432,
            "time": 104.656794,
            "velocity": 0.4251968503937008
          },
          {
            "duration": 0.042856999999997925,
            "durationTicks": 96,
            "midi": 79,
            "name": "G5",
            "ticks": 234816,
            "time": 104.828222,
            "velocity": 0.4251968503937008
          },
          {
            "duration": 0.042856999999997925,
            "durationTicks": 96,
            "midi": 77,
            "name": "F5",
            "ticks": 235200,
            "time": 104.99965,
            "velocity": 0.4251968503937008
          },
          {
            "duration": 0.042856999999997925,
            "durationTicks": 96,
            "midi": 76,
            "name": "E5",
            "ticks": 235776,
            "time": 105.256792,
            "velocity": 0.4251968503937008
          },
          {
            "duration": 0.042856999999997925,
            "durationTicks": 96,
            "midi": 77,
            "name": "F5",
            "ticks": 235968,
            "time": 105.342506,
            "velocity": 0.4251968503937008
          },
          {
            "duration": 0.042856999999997925,
            "durationTicks": 96,
            "midi": 74,
            "name": "D5",
            "ticks": 235968,
            "time": 105.342506,
            "velocity": 0.4251968503937008
          },
          {
            "duration": 0.042856999999997925,
            "durationTicks": 96,
            "midi": 76,
            "name": "E5",
            "ticks": 236160,
            "time": 105.42822,
            "velocity": 0.4251968503937008
          },
          {
            "duration": 0.042857000000012135,
            "durationTicks": 96,
            "midi": 74,
            "name": "D5",
            "ticks": 236352,
            "time": 105.51393399999999,
            "velocity": 0.4251968503937008
          },
          {
            "duration": 0.042856999999997925,
            "durationTicks": 96,
            "midi": 69,
            "name": "A4",
            "ticks": 236544,
            "time": 105.599648,
            "velocity": 0.4251968503937008
          },
          {
            "duration": 0.042856999999997925,
            "durationTicks": 96,
            "midi": 65,
            "name": "F4",
            "ticks": 236736,
            "time": 105.685362,
            "velocity": 0.4251968503937008
          },
          {
            "duration": 0.042856999999997925,
            "durationTicks": 96,
            "midi": 66,
            "name": "F#4",
            "ticks": 236928,
            "time": 105.771076,
            "velocity": 0.4251968503937008
          },
          {
            "duration": 0.042856999999997925,
            "durationTicks": 96,
            "midi": 68,
            "name": "G#4",
            "ticks": 237120,
            "time": 105.85679,
            "velocity": 0.4251968503937008
          },
          {
            "duration": 0.042856999999997925,
            "durationTicks": 96,
            "midi": 69,
            "name": "A4",
            "ticks": 237312,
            "time": 105.942504,
            "velocity": 0.4251968503937008
          },
          {
            "duration": 0.042856999999997925,
            "durationTicks": 96,
            "midi": 70,
            "name": "A#4",
            "ticks": 237504,
            "time": 106.028218,
            "velocity": 0.4251968503937008
          },
          {
            "duration": 0.042857000000012135,
            "durationTicks": 96,
            "midi": 71,
            "name": "B4",
            "ticks": 237696,
            "time": 106.11393199999999,
            "velocity": 0.4251968503937008
          },
          {
            "duration": 0.042856999999997925,
            "durationTicks": 96,
            "midi": 72,
            "name": "C5",
            "ticks": 237888,
            "time": 106.199646,
            "velocity": 0.4251968503937008
          },
          {
            "duration": 0.042856999999997925,
            "durationTicks": 96,
            "midi": 73,
            "name": "C#5",
            "ticks": 238080,
            "time": 106.28536,
            "velocity": 0.4251968503937008
          },
          {
            "duration": 0.042857000000012135,
            "durationTicks": 96,
            "midi": 74,
            "name": "D5",
            "ticks": 238272,
            "time": 106.371074,
            "velocity": 0.4251968503937008
          },
          {
            "duration": 0.042856999999997925,
            "durationTicks": 96,
            "midi": 76,
            "name": "E5",
            "ticks": 238464,
            "time": 106.456788,
            "velocity": 0.4251968503937008
          },
          {
            "duration": 0.042856999999997925,
            "durationTicks": 96,
            "midi": 74,
            "name": "D5",
            "ticks": 238656,
            "time": 106.542502,
            "velocity": 0.4251968503937008
          },
          {
            "duration": 0.042856999999997925,
            "durationTicks": 96,
            "midi": 73,
            "name": "C#5",
            "ticks": 238848,
            "time": 106.628216,
            "velocity": 0.4251968503937008
          },
          {
            "duration": 0.042856999999997925,
            "durationTicks": 96,
            "midi": 74,
            "name": "D5",
            "ticks": 239040,
            "time": 106.71393,
            "velocity": 0.4251968503937008
          },
          {
            "duration": 0.042856999999997925,
            "durationTicks": 96,
            "midi": 77,
            "name": "F5",
            "ticks": 239424,
            "time": 106.885358,
            "velocity": 0.4251968503937008
          },
          {
            "duration": 0.042856999999997925,
            "durationTicks": 96,
            "midi": 76,
            "name": "E5",
            "ticks": 239808,
            "time": 107.056786,
            "velocity": 0.4251968503937008
          },
          {
            "duration": 0.042856999999997925,
            "durationTicks": 96,
            "midi": 71,
            "name": "B4",
            "ticks": 240576,
            "time": 107.399642,
            "velocity": 0.4251968503937008
          },
          {
            "duration": 0.042857000000012135,
            "durationTicks": 96,
            "midi": 74,
            "name": "D5",
            "ticks": 240960,
            "time": 107.57106999999999,
            "velocity": 0.4251968503937008
          },
          {
            "duration": 0.042856999999997925,
            "durationTicks": 96,
            "midi": 72,
            "name": "C5",
            "ticks": 241344,
            "time": 107.742498,
            "velocity": 0.4251968503937008
          },
          {
            "duration": 0.042856999999997925,
            "durationTicks": 96,
            "midi": 72,
            "name": "C5",
            "ticks": 241728,
            "time": 107.913926,
            "velocity": 0.4251968503937008
          },
          {
            "duration": 0.042856999999997925,
            "durationTicks": 96,
            "midi": 71,
            "name": "B4",
            "ticks": 241920,
            "time": 107.99964,
            "velocity": 0.4251968503937008
          },
          {
            "duration": 0.042856999999997925,
            "durationTicks": 96,
            "midi": 69,
            "name": "A4",
            "ticks": 242112,
            "time": 108.085354,
            "velocity": 0.4251968503937008
          },
          {
            "duration": 0.042857000000012135,
            "durationTicks": 96,
            "midi": 71,
            "name": "B4",
            "ticks": 242304,
            "time": 108.17106799999999,
            "velocity": 0.4251968503937008
          },
          {
            "duration": 0.042856999999997925,
            "durationTicks": 96,
            "midi": 72,
            "name": "C5",
            "ticks": 242496,
            "time": 108.256782,
            "velocity": 0.4251968503937008
          },
          {
            "duration": 0.042856999999997925,
            "durationTicks": 96,
            "midi": 76,
            "name": "E5",
            "ticks": 242688,
            "time": 108.342496,
            "velocity": 0.4251968503937008
          },
          {
            "duration": 0.042857000000012135,
            "durationTicks": 96,
            "midi": 81,
            "name": "A5",
            "ticks": 242880,
            "time": 108.42820999999999,
            "velocity": 0.4251968503937008
          },
          {
            "duration": 0.042856999999997925,
            "durationTicks": 96,
            "midi": 83,
            "name": "B5",
            "ticks": 244032,
            "time": 108.942494,
            "velocity": 0.4251968503937008
          },
          {
            "duration": 0.042857000000012135,
            "durationTicks": 96,
            "midi": 84,
            "name": "C6",
            "ticks": 244224,
            "time": 109.02820799999999,
            "velocity": 0.4251968503937008
          },
          {
            "duration": 0.042856999999997925,
            "durationTicks": 96,
            "midi": 83,
            "name": "B5",
            "ticks": 244416,
            "time": 109.113922,
            "velocity": 0.4251968503937008
          },
          {
            "duration": 0.042856999999997925,
            "durationTicks": 96,
            "midi": 81,
            "name": "A5",
            "ticks": 244800,
            "time": 109.28535,
            "velocity": 0.4251968503937008
          },
          {
            "duration": 0.042856999999997925,
            "durationTicks": 96,
            "midi": 78,
            "name": "F#5",
            "ticks": 244992,
            "time": 109.371064,
            "velocity": 0.4251968503937008
          },
          {
            "duration": 0.042856999999997925,
            "durationTicks": 96,
            "midi": 75,
            "name": "D#5",
            "ticks": 245184,
            "time": 109.456778,
            "velocity": 0.4251968503937008
          },
          {
            "duration": 0.042856999999997925,
            "durationTicks": 96,
            "midi": 72,
            "name": "C5",
            "ticks": 245376,
            "time": 109.542492,
            "velocity": 0.4251968503937008
          },
          {
            "duration": 0.042857000000012135,
            "durationTicks": 96,
            "midi": 69,
            "name": "A4",
            "ticks": 245568,
            "time": 109.62820599999999,
            "velocity": 0.4251968503937008
          },
          {
            "duration": 0.042856999999997925,
            "durationTicks": 96,
            "midi": 66,
            "name": "F#4",
            "ticks": 245760,
            "time": 109.71392,
            "velocity": 0.4251968503937008
          },
          {
            "duration": 0.042856999999997925,
            "durationTicks": 96,
            "midi": 68,
            "name": "G#4",
            "ticks": 245952,
            "time": 109.799634,
            "velocity": 0.4251968503937008
          },
          {
            "duration": 0.042856999999997925,
            "durationTicks": 96,
            "midi": 64,
            "name": "E4",
            "ticks": 245952,
            "time": 109.799634,
            "velocity": 0.4251968503937008
          },
          {
            "duration": 0.042856999999997925,
            "durationTicks": 96,
            "midi": 92,
            "name": "G#6",
            "ticks": 245952,
            "time": 109.799634,
            "velocity": 0.4251968503937008
          },
          {
            "duration": 0.042856999999997925,
            "durationTicks": 96,
            "midi": 88,
            "name": "E6",
            "ticks": 246144,
            "time": 109.885348,
            "velocity": 0.4251968503937008
          },
          {
            "duration": 0.042856999999997925,
            "durationTicks": 96,
            "midi": 83,
            "name": "B5",
            "ticks": 246336,
            "time": 109.971062,
            "velocity": 0.4251968503937008
          },
          {
            "duration": 0.042856999999997925,
            "durationTicks": 96,
            "midi": 80,
            "name": "G#5",
            "ticks": 246528,
            "time": 110.056776,
            "velocity": 0.4251968503937008
          },
          {
            "duration": 0.042856999999997925,
            "durationTicks": 96,
            "midi": 76,
            "name": "E5",
            "ticks": 246720,
            "time": 110.14249,
            "velocity": 0.4251968503937008
          },
          {
            "duration": 0.042856999999997925,
            "durationTicks": 96,
            "midi": 71,
            "name": "B4",
            "ticks": 246912,
            "time": 110.228204,
            "velocity": 0.4251968503937008
          },
          {
            "duration": 0.042856999999997925,
            "durationTicks": 96,
            "midi": 68,
            "name": "G#4",
            "ticks": 247104,
            "time": 110.313918,
            "velocity": 0.4251968503937008
          },
          {
            "duration": 0.042856999999997925,
            "durationTicks": 96,
            "midi": 69,
            "name": "A4",
            "ticks": 247104,
            "time": 110.313918,
            "velocity": 0.4251968503937008
          },
          {
            "duration": 0.042856999999997925,
            "durationTicks": 96,
            "midi": 64,
            "name": "E4",
            "ticks": 247296,
            "time": 110.399632,
            "velocity": 0.4251968503937008
          },
          {
            "duration": 0.042857000000012135,
            "durationTicks": 96,
            "midi": 69,
            "name": "A4",
            "ticks": 247488,
            "time": 110.48534599999999,
            "velocity": 0.4251968503937008
          },
          {
            "duration": 0.042856999999997925,
            "durationTicks": 96,
            "midi": 69,
            "name": "A4",
            "ticks": 247584,
            "time": 110.528203,
            "velocity": 0.4251968503937008
          },
          {
            "duration": 0.042856999999997925,
            "durationTicks": 96,
            "midi": 69,
            "name": "A4",
            "ticks": 247680,
            "time": 110.57106,
            "velocity": 0.4251968503937008
          },
          {
            "duration": 0.042856999999997925,
            "durationTicks": 96,
            "midi": 69,
            "name": "A4",
            "ticks": 247776,
            "time": 110.613917,
            "velocity": 0.4251968503937008
          },
          {
            "duration": 0.042856999999997925,
            "durationTicks": 96,
            "midi": 69,
            "name": "A4",
            "ticks": 247872,
            "time": 110.656774,
            "velocity": 0.4251968503937008
          },
          {
            "duration": 0.042856999999997925,
            "durationTicks": 96,
            "midi": 72,
            "name": "C5",
            "ticks": 251328,
            "time": 112.199626,
            "velocity": 0.4251968503937008
          },
          {
            "duration": 0.042856999999997925,
            "durationTicks": 96,
            "midi": 81,
            "name": "A5",
            "ticks": 251328,
            "time": 112.199626,
            "velocity": 0.4251968503937008
          },
          {
            "duration": 0.042856999999997925,
            "durationTicks": 96,
            "midi": 77,
            "name": "F5",
            "ticks": 251328,
            "time": 112.199626,
            "velocity": 0.4251968503937008
          },
          {
            "duration": 0.042857000000012135,
            "durationTicks": 96,
            "midi": 81,
            "name": "A5",
            "ticks": 251424,
            "time": 112.242483,
            "velocity": 0.4251968503937008
          },
          {
            "duration": 0.042857000000012135,
            "durationTicks": 96,
            "midi": 72,
            "name": "C5",
            "ticks": 251424,
            "time": 112.242483,
            "velocity": 0.4251968503937008
          },
          {
            "duration": 0.042857000000012135,
            "durationTicks": 96,
            "midi": 77,
            "name": "F5",
            "ticks": 251424,
            "time": 112.242483,
            "velocity": 0.4251968503937008
          },
          {
            "duration": 0.042857000000012135,
            "durationTicks": 96,
            "midi": 80,
            "name": "G#5",
            "ticks": 252096,
            "time": 112.54248199999999,
            "velocity": 0.4251968503937008
          },
          {
            "duration": 0.042857000000012135,
            "durationTicks": 96,
            "midi": 76,
            "name": "E5",
            "ticks": 252096,
            "time": 112.54248199999999,
            "velocity": 0.4251968503937008
          },
          {
            "duration": 0.042857000000012135,
            "durationTicks": 96,
            "midi": 71,
            "name": "B4",
            "ticks": 252096,
            "time": 112.54248199999999,
            "velocity": 0.4251968503937008
          },
          {
            "duration": 0.042856999999997925,
            "durationTicks": 96,
            "midi": 80,
            "name": "G#5",
            "ticks": 252192,
            "time": 112.585339,
            "velocity": 0.4251968503937008
          },
          {
            "duration": 0.042856999999997925,
            "durationTicks": 96,
            "midi": 71,
            "name": "B4",
            "ticks": 252192,
            "time": 112.585339,
            "velocity": 0.4251968503937008
          },
          {
            "duration": 0.042856999999997925,
            "durationTicks": 96,
            "midi": 76,
            "name": "E5",
            "ticks": 252192,
            "time": 112.585339,
            "velocity": 0.4251968503937008
          },
          {
            "duration": 0.042856999999997925,
            "durationTicks": 96,
            "midi": 80,
            "name": "G#5",
            "ticks": 252864,
            "time": 112.885338,
            "velocity": 0.4251968503937008
          },
          {
            "duration": 0.042856999999997925,
            "durationTicks": 96,
            "midi": 76,
            "name": "E5",
            "ticks": 252864,
            "time": 112.885338,
            "velocity": 0.4251968503937008
          },
          {
            "duration": 0.042856999999997925,
            "durationTicks": 96,
            "midi": 83,
            "name": "B5",
            "ticks": 252864,
            "time": 112.885338,
            "velocity": 0.4251968503937008
          },
          {
            "duration": 0.042856999999997925,
            "durationTicks": 96,
            "midi": 83,
            "name": "B5",
            "ticks": 252960,
            "time": 112.928195,
            "velocity": 0.4251968503937008
          },
          {
            "duration": 0.042856999999997925,
            "durationTicks": 96,
            "midi": 80,
            "name": "G#5",
            "ticks": 252960,
            "time": 112.928195,
            "velocity": 0.4251968503937008
          },
          {
            "duration": 0.042856999999997925,
            "durationTicks": 96,
            "midi": 76,
            "name": "E5",
            "ticks": 252960,
            "time": 112.928195,
            "velocity": 0.4251968503937008
          },
          {
            "duration": 0.042856999999997925,
            "durationTicks": 96,
            "midi": 81,
            "name": "A5",
            "ticks": 253632,
            "time": 113.228194,
            "velocity": 0.4251968503937008
          },
          {
            "duration": 0.042856999999997925,
            "durationTicks": 96,
            "midi": 76,
            "name": "E5",
            "ticks": 253632,
            "time": 113.228194,
            "velocity": 0.4251968503937008
          },
          {
            "duration": 0.042856999999997925,
            "durationTicks": 96,
            "midi": 72,
            "name": "C5",
            "ticks": 253632,
            "time": 113.228194,
            "velocity": 0.4251968503937008
          },
          {
            "duration": 0.042856999999997925,
            "durationTicks": 96,
            "midi": 81,
            "name": "A5",
            "ticks": 253728,
            "time": 113.271051,
            "velocity": 0.4251968503937008
          },
          {
            "duration": 0.042856999999997925,
            "durationTicks": 96,
            "midi": 72,
            "name": "C5",
            "ticks": 253728,
            "time": 113.271051,
            "velocity": 0.4251968503937008
          },
          {
            "duration": 0.042856999999997925,
            "durationTicks": 96,
            "midi": 76,
            "name": "E5",
            "ticks": 253728,
            "time": 113.271051,
            "velocity": 0.4251968503937008
          },
          {
            "duration": 0.042857000000012135,
            "durationTicks": 96,
            "midi": 76,
            "name": "E5",
            "ticks": 254784,
            "time": 113.74247799999999,
            "velocity": 0.4251968503937008
          },
          {
            "duration": 0.042857000000012135,
            "durationTicks": 96,
            "midi": 72,
            "name": "C5",
            "ticks": 254784,
            "time": 113.74247799999999,
            "velocity": 0.4251968503937008
          },
          {
            "duration": 0.042857000000012135,
            "durationTicks": 96,
            "midi": 69,
            "name": "A4",
            "ticks": 254784,
            "time": 113.74247799999999,
            "velocity": 0.4251968503937008
          },
          {
            "duration": 0.042856999999997925,
            "durationTicks": 96,
            "midi": 76,
            "name": "E5",
            "ticks": 254880,
            "time": 113.785335,
            "velocity": 0.4251968503937008
          },
          {
            "duration": 0.042856999999997925,
            "durationTicks": 96,
            "midi": 69,
            "name": "A4",
            "ticks": 254880,
            "time": 113.785335,
            "velocity": 0.4251968503937008
          },
          {
            "duration": 0.042856999999997925,
            "durationTicks": 96,
            "midi": 72,
            "name": "C5",
            "ticks": 254880,
            "time": 113.785335,
            "velocity": 0.4251968503937008
          },
          {
            "duration": 0.042856999999997925,
            "durationTicks": 96,
            "midi": 76,
            "name": "E5",
            "ticks": 255168,
            "time": 113.913906,
            "velocity": 0.4251968503937008
          },
          {
            "duration": 0.042856999999997925,
            "durationTicks": 96,
            "midi": 72,
            "name": "C5",
            "ticks": 255168,
            "time": 113.913906,
            "velocity": 0.4251968503937008
          },
          {
            "duration": 0.042856999999997925,
            "durationTicks": 96,
            "midi": 69,
            "name": "A4",
            "ticks": 255168,
            "time": 113.913906,
            "velocity": 0.4251968503937008
          },
          {
            "duration": 0.042856999999997925,
            "durationTicks": 96,
            "midi": 72,
            "name": "C5",
            "ticks": 255264,
            "time": 113.956763,
            "velocity": 0.4251968503937008
          },
          {
            "duration": 0.042856999999997925,
            "durationTicks": 96,
            "midi": 69,
            "name": "A4",
            "ticks": 255264,
            "time": 113.956763,
            "velocity": 0.4251968503937008
          },
          {
            "duration": 0.042856999999997925,
            "durationTicks": 96,
            "midi": 76,
            "name": "E5",
            "ticks": 255264,
            "time": 113.956763,
            "velocity": 0.4251968503937008
          },
          {
            "duration": 0.042856999999997925,
            "durationTicks": 96,
            "midi": 74,
            "name": "D5",
            "ticks": 255936,
            "time": 114.256762,
            "velocity": 0.4251968503937008
          },
          {
            "duration": 0.042857000000012135,
            "durationTicks": 96,
            "midi": 74,
            "name": "D5",
            "ticks": 256032,
            "time": 114.29961899999999,
            "velocity": 0.4251968503937008
          },
          {
            "duration": 0.042857000000012135,
            "durationTicks": 96,
            "midi": 72,
            "name": "C5",
            "ticks": 256704,
            "time": 114.59961799999999,
            "velocity": 0.4251968503937008
          },
          {
            "duration": 0.042857000000012135,
            "durationTicks": 96,
            "midi": 63,
            "name": "D#4",
            "ticks": 256704,
            "time": 114.59961799999999,
            "velocity": 0.4251968503937008
          },
          {
            "duration": 0.042857000000012135,
            "durationTicks": 96,
            "midi": 66,
            "name": "F#4",
            "ticks": 256704,
            "time": 114.59961799999999,
            "velocity": 0.4251968503937008
          },
          {
            "duration": 0.042857000000012135,
            "durationTicks": 96,
            "midi": 69,
            "name": "A4",
            "ticks": 256704,
            "time": 114.59961799999999,
            "velocity": 0.4251968503937008
          },
          {
            "duration": 0.042856999999997925,
            "durationTicks": 96,
            "midi": 69,
            "name": "A4",
            "ticks": 256800,
            "time": 114.642475,
            "velocity": 0.4251968503937008
          },
          {
            "duration": 0.042856999999997925,
            "durationTicks": 96,
            "midi": 72,
            "name": "C5",
            "ticks": 256800,
            "time": 114.642475,
            "velocity": 0.4251968503937008
          },
          {
            "duration": 0.042856999999997925,
            "durationTicks": 96,
            "midi": 66,
            "name": "F#4",
            "ticks": 256800,
            "time": 114.642475,
            "velocity": 0.4251968503937008
          },
          {
            "duration": 0.042856999999997925,
            "durationTicks": 96,
            "midi": 63,
            "name": "D#4",
            "ticks": 256800,
            "time": 114.642475,
            "velocity": 0.4251968503937008
          },
          {
            "duration": 0.042856999999997925,
            "durationTicks": 96,
            "midi": 69,
            "name": "A4",
            "ticks": 256896,
            "time": 114.685332,
            "velocity": 0.4251968503937008
          },
          {
            "duration": 0.042856999999997925,
            "durationTicks": 96,
            "midi": 63,
            "name": "D#4",
            "ticks": 256896,
            "time": 114.685332,
            "velocity": 0.4251968503937008
          },
          {
            "duration": 0.042856999999997925,
            "durationTicks": 96,
            "midi": 66,
            "name": "F#4",
            "ticks": 256896,
            "time": 114.685332,
            "velocity": 0.4251968503937008
          },
          {
            "duration": 0.042856999999997925,
            "durationTicks": 96,
            "midi": 72,
            "name": "C5",
            "ticks": 256896,
            "time": 114.685332,
            "velocity": 0.4251968503937008
          },
          {
            "duration": 0.042856999999997925,
            "durationTicks": 96,
            "midi": 69,
            "name": "A4",
            "ticks": 256992,
            "time": 114.728189,
            "velocity": 0.4251968503937008
          },
          {
            "duration": 0.042856999999997925,
            "durationTicks": 96,
            "midi": 72,
            "name": "C5",
            "ticks": 256992,
            "time": 114.728189,
            "velocity": 0.4251968503937008
          },
          {
            "duration": 0.042856999999997925,
            "durationTicks": 96,
            "midi": 63,
            "name": "D#4",
            "ticks": 256992,
            "time": 114.728189,
            "velocity": 0.4251968503937008
          },
          {
            "duration": 0.042856999999997925,
            "durationTicks": 96,
            "midi": 66,
            "name": "F#4",
            "ticks": 256992,
            "time": 114.728189,
            "velocity": 0.4251968503937008
          },
          {
            "duration": 0.042856999999997925,
            "durationTicks": 96,
            "midi": 76,
            "name": "E5",
            "ticks": 258240,
            "time": 115.28533,
            "velocity": 0.4251968503937008
          },
          {
            "duration": 0.042856999999997925,
            "durationTicks": 96,
            "midi": 71,
            "name": "B4",
            "ticks": 258240,
            "time": 115.28533,
            "velocity": 0.4251968503937008
          },
          {
            "duration": 0.042856999999997925,
            "durationTicks": 96,
            "midi": 68,
            "name": "G#4",
            "ticks": 258240,
            "time": 115.28533,
            "velocity": 0.4251968503937008
          },
          {
            "duration": 0.042856999999997925,
            "durationTicks": 96,
            "midi": 71,
            "name": "B4",
            "ticks": 258336,
            "time": 115.328187,
            "velocity": 0.4251968503937008
          },
          {
            "duration": 0.042856999999997925,
            "durationTicks": 96,
            "midi": 68,
            "name": "G#4",
            "ticks": 258336,
            "time": 115.328187,
            "velocity": 0.4251968503937008
          },
          {
            "duration": 0.042856999999997925,
            "durationTicks": 96,
            "midi": 76,
            "name": "E5",
            "ticks": 258336,
            "time": 115.328187,
            "velocity": 0.4251968503937008
          },
          {
            "duration": 0.042856999999997925,
            "durationTicks": 96,
            "midi": 68,
            "name": "G#4",
            "ticks": 258432,
            "time": 115.371044,
            "velocity": 0.4251968503937008
          },
          {
            "duration": 0.042856999999997925,
            "durationTicks": 96,
            "midi": 71,
            "name": "B4",
            "ticks": 258432,
            "time": 115.371044,
            "velocity": 0.4251968503937008
          },
          {
            "duration": 0.042856999999997925,
            "durationTicks": 96,
            "midi": 76,
            "name": "E5",
            "ticks": 258432,
            "time": 115.371044,
            "velocity": 0.4251968503937008
          },
          {
            "duration": 0.042856999999997925,
            "durationTicks": 96,
            "midi": 71,
            "name": "B4",
            "ticks": 258528,
            "time": 115.413901,
            "velocity": 0.4251968503937008
          },
          {
            "duration": 0.042856999999997925,
            "durationTicks": 96,
            "midi": 76,
            "name": "E5",
            "ticks": 258528,
            "time": 115.413901,
            "velocity": 0.4251968503937008
          },
          {
            "duration": 0.042856999999997925,
            "durationTicks": 96,
            "midi": 68,
            "name": "G#4",
            "ticks": 258528,
            "time": 115.413901,
            "velocity": 0.4251968503937008
          },
          {
            "duration": 0.042856999999997925,
            "durationTicks": 96,
            "midi": 69,
            "name": "A4",
            "ticks": 259776,
            "time": 115.971042,
            "velocity": 0.4251968503937008
          },
          {
            "duration": 0.042856999999997925,
            "durationTicks": 96,
            "midi": 69,
            "name": "A4",
            "ticks": 259776,
            "time": 115.971042,
            "velocity": 0.4251968503937008
          },
          {
            "duration": 0.042856999999997925,
            "durationTicks": 96,
            "midi": 69,
            "name": "A4",
            "ticks": 259872,
            "time": 116.013899,
            "velocity": 0.4251968503937008
          },
          {
            "duration": 0.042856999999997925,
            "durationTicks": 96,
            "midi": 69,
            "name": "A4",
            "ticks": 259872,
            "time": 116.013899,
            "velocity": 0.4251968503937008
          },
          {
            "duration": 0.042857000000012135,
            "durationTicks": 96,
            "midi": 74,
            "name": "D5",
            "ticks": 259968,
            "time": 116.056756,
            "velocity": 0.4251968503937008
          },
          {
            "duration": 0.042856999999997925,
            "durationTicks": 96,
            "midi": 72,
            "name": "C5",
            "ticks": 260160,
            "time": 116.14247,
            "velocity": 0.4251968503937008
          },
          {
            "duration": 0.042856999999997925,
            "durationTicks": 96,
            "midi": 71,
            "name": "B4",
            "ticks": 260352,
            "time": 116.228184,
            "velocity": 0.4251968503937008
          },
          {
            "duration": 0.042856999999997925,
            "durationTicks": 96,
            "midi": 69,
            "name": "A4",
            "ticks": 260544,
            "time": 116.313898,
            "velocity": 0.4251968503937008
          },
          {
            "duration": 0.042856999999997925,
            "durationTicks": 96,
            "midi": 71,
            "name": "B4",
            "ticks": 260736,
            "time": 116.399612,
            "velocity": 0.4251968503937008
          },
          {
            "duration": 0.042856999999997925,
            "durationTicks": 96,
            "midi": 72,
            "name": "C5",
            "ticks": 260928,
            "time": 116.485326,
            "velocity": 0.4251968503937008
          },
          {
            "duration": 0.042856999999997925,
            "durationTicks": 96,
            "midi": 76,
            "name": "E5",
            "ticks": 261120,
            "time": 116.57104,
            "velocity": 0.4251968503937008
          },
          {
            "duration": 0.042857000000012135,
            "durationTicks": 96,
            "midi": 81,
            "name": "A5",
            "ticks": 261312,
            "time": 116.65675399999999,
            "velocity": 0.4251968503937008
          },
          {
            "duration": 0.042856999999997925,
            "durationTicks": 96,
            "midi": 64,
            "name": "E4",
            "ticks": 262080,
            "time": 116.99961,
            "velocity": 0.4251968503937008
          },
          {
            "duration": 0.042856999999997925,
            "durationTicks": 96,
            "midi": 64,
            "name": "E4",
            "ticks": 262176,
            "time": 117.042467,
            "velocity": 0.4251968503937008
          },
          {
            "duration": 0.042856999999997925,
            "durationTicks": 96,
            "midi": 64,
            "name": "E4",
            "ticks": 262272,
            "time": 117.085324,
            "velocity": 0.4251968503937008
          },
          {
            "duration": 0.042856999999997925,
            "durationTicks": 96,
            "midi": 72,
            "name": "C5",
            "ticks": 262848,
            "time": 117.342466,
            "velocity": 0.4251968503937008
          },
          {
            "duration": 0.042856999999997925,
            "durationTicks": 96,
            "midi": 72,
            "name": "C5",
            "ticks": 262944,
            "time": 117.385323,
            "velocity": 0.4251968503937008
          },
          {
            "duration": 0.042856999999997925,
            "durationTicks": 96,
            "midi": 72,
            "name": "C5",
            "ticks": 263040,
            "time": 117.42818,
            "velocity": 0.4251968503937008
          },
          {
            "duration": 0.042857000000012135,
            "durationTicks": 96,
            "midi": 69,
            "name": "A4",
            "ticks": 264000,
            "time": 117.85674999999999,
            "velocity": 0.4251968503937008
          },
          {
            "duration": 0.042856999999997925,
            "durationTicks": 96,
            "midi": 69,
            "name": "A4",
            "ticks": 264096,
            "time": 117.899607,
            "velocity": 0.4251968503937008
          },
          {
            "duration": 0.042856999999997925,
            "durationTicks": 96,
            "midi": 69,
            "name": "A4",
            "ticks": 264192,
            "time": 117.942464,
            "velocity": 0.4251968503937008
          },
          {
            "duration": 0.042856999999997925,
            "durationTicks": 96,
            "midi": 68,
            "name": "G#4",
            "ticks": 264384,
            "time": 118.028178,
            "velocity": 0.4251968503937008
          },
          {
            "duration": 0.042856999999997925,
            "durationTicks": 96,
            "midi": 68,
            "name": "G#4",
            "ticks": 264480,
            "time": 118.071035,
            "velocity": 0.4251968503937008
          },
          {
            "duration": 0.042857000000012135,
            "durationTicks": 96,
            "midi": 68,
            "name": "G#4",
            "ticks": 264576,
            "time": 118.11389199999999,
            "velocity": 0.4251968503937008
          },
          {
            "duration": 0.042856999999997925,
            "durationTicks": 96,
            "midi": 69,
            "name": "A4",
            "ticks": 265536,
            "time": 118.542462,
            "velocity": 0.4251968503937008
          },
          {
            "duration": 0.042856999999997925,
            "durationTicks": 96,
            "midi": 69,
            "name": "A4",
            "ticks": 265632,
            "time": 118.585319,
            "velocity": 0.4251968503937008
          },
          {
            "duration": 0.042856999999997925,
            "durationTicks": 96,
            "midi": 69,
            "name": "A4",
            "ticks": 265728,
            "time": 118.628176,
            "velocity": 0.4251968503937008
          },
          {
            "duration": 0.042857000000012135,
            "durationTicks": 96,
            "midi": 84,
            "name": "C6",
            "ticks": 265920,
            "time": 118.71388999999999,
            "velocity": 0.4251968503937008
          },
          {
            "duration": 0.042857000000012135,
            "durationTicks": 96,
            "midi": 64,
            "name": "E4",
            "ticks": 265920,
            "time": 118.71388999999999,
            "velocity": 0.4251968503937008
          },
          {
            "duration": 0.042856999999997925,
            "durationTicks": 96,
            "midi": 64,
            "name": "E4",
            "ticks": 266016,
            "time": 118.756747,
            "velocity": 0.4251968503937008
          },
          {
            "duration": 0.042856999999997925,
            "durationTicks": 96,
            "midi": 64,
            "name": "E4",
            "ticks": 266112,
            "time": 118.799604,
            "velocity": 0.4251968503937008
          },
          {
            "duration": 0.042856999999997925,
            "durationTicks": 96,
            "midi": 81,
            "name": "A5",
            "ticks": 266304,
            "time": 118.885318,
            "velocity": 0.4251968503937008
          },
          {
            "duration": 0.042856999999997925,
            "durationTicks": 96,
            "midi": 81,
            "name": "A5",
            "ticks": 266688,
            "time": 119.056746,
            "velocity": 0.4251968503937008
          },
          {
            "duration": 0.042856999999997925,
            "durationTicks": 96,
            "midi": 81,
            "name": "A5",
            "ticks": 267072,
            "time": 119.228174,
            "velocity": 0.4251968503937008
          },
          {
            "duration": 0.042856999999997925,
            "durationTicks": 96,
            "midi": 81,
            "name": "A5",
            "ticks": 267456,
            "time": 119.399602,
            "velocity": 0.4251968503937008
          },
          {
            "duration": 0.042856999999997925,
            "durationTicks": 96,
            "midi": 81,
            "name": "A5",
            "ticks": 267840,
            "time": 119.57103,
            "velocity": 0.4251968503937008
          },
          {
            "duration": 0.042856999999997925,
            "durationTicks": 96,
            "midi": 64,
            "name": "E4",
            "ticks": 268224,
            "time": 119.742458,
            "velocity": 0.4251968503937008
          },
          {
            "duration": 0.042856999999997925,
            "durationTicks": 96,
            "midi": 64,
            "name": "E4",
            "ticks": 268320,
            "time": 119.785315,
            "velocity": 0.4251968503937008
          },
          {
            "duration": 0.042856999999997925,
            "durationTicks": 96,
            "midi": 64,
            "name": "E4",
            "ticks": 268416,
            "time": 119.828172,
            "velocity": 0.4251968503937008
          },
          {
            "duration": 0.042856999999997925,
            "durationTicks": 96,
            "midi": 63,
            "name": "D#4",
            "ticks": 268992,
            "time": 120.085314,
            "velocity": 0.4251968503937008
          },
          {
            "duration": 0.042856999999997925,
            "durationTicks": 96,
            "midi": 63,
            "name": "D#4",
            "ticks": 269088,
            "time": 120.128171,
            "velocity": 0.4251968503937008
          },
          {
            "duration": 0.042857000000012135,
            "durationTicks": 96,
            "midi": 63,
            "name": "D#4",
            "ticks": 269184,
            "time": 120.17102799999999,
            "velocity": 0.4251968503937008
          },
          {
            "duration": 0.042856999999997925,
            "durationTicks": 96,
            "midi": 64,
            "name": "E4",
            "ticks": 270144,
            "time": 120.599598,
            "velocity": 0.4251968503937008
          },
          {
            "duration": 0.042856999999997925,
            "durationTicks": 96,
            "midi": 64,
            "name": "E4",
            "ticks": 270240,
            "time": 120.642455,
            "velocity": 0.4251968503937008
          },
          {
            "duration": 0.042856999999997925,
            "durationTicks": 96,
            "midi": 64,
            "name": "E4",
            "ticks": 270336,
            "time": 120.685312,
            "velocity": 0.4251968503937008
          },
          {
            "duration": 0.042857000000012135,
            "durationTicks": 96,
            "midi": 72,
            "name": "C5",
            "ticks": 270528,
            "time": 120.77102599999999,
            "velocity": 0.4251968503937008
          },
          {
            "duration": 0.042856999999997925,
            "durationTicks": 96,
            "midi": 72,
            "name": "C5",
            "ticks": 270624,
            "time": 120.813883,
            "velocity": 0.4251968503937008
          },
          {
            "duration": 0.042856999999997925,
            "durationTicks": 96,
            "midi": 72,
            "name": "C5",
            "ticks": 270720,
            "time": 120.85674,
            "velocity": 0.4251968503937008
          },
          {
            "duration": 0.042856999999997925,
            "durationTicks": 96,
            "midi": 71,
            "name": "B4",
            "ticks": 271680,
            "time": 121.28531,
            "velocity": 0.4251968503937008
          },
          {
            "duration": 0.042856999999997925,
            "durationTicks": 96,
            "midi": 71,
            "name": "B4",
            "ticks": 271776,
            "time": 121.328167,
            "velocity": 0.4251968503937008
          },
          {
            "duration": 0.042857000000012135,
            "durationTicks": 96,
            "midi": 71,
            "name": "B4",
            "ticks": 271872,
            "time": 121.37102399999999,
            "velocity": 0.4251968503937008
          },
          {
            "duration": 0.042856999999997925,
            "durationTicks": 96,
            "midi": 69,
            "name": "A4",
            "ticks": 272064,
            "time": 121.456738,
            "velocity": 0.4251968503937008
          },
          {
            "duration": 0.042856999999997925,
            "durationTicks": 96,
            "midi": 69,
            "name": "A4",
            "ticks": 272160,
            "time": 121.499595,
            "velocity": 0.4251968503937008
          },
          {
            "duration": 0.042856999999997925,
            "durationTicks": 96,
            "midi": 69,
            "name": "A4",
            "ticks": 272256,
            "time": 121.542452,
            "velocity": 0.4251968503937008
          },
          {
            "duration": 0.042856999999997925,
            "durationTicks": 96,
            "midi": 62,
            "name": "D4",
            "ticks": 272448,
            "time": 121.628166,
            "velocity": 0.4251968503937008
          },
          {
            "duration": 0.042856999999997925,
            "durationTicks": 96,
            "midi": 64,
            "name": "E4",
            "ticks": 272832,
            "time": 121.799594,
            "velocity": 0.4251968503937008
          },
          {
            "duration": 0.042856999999997925,
            "durationTicks": 96,
            "midi": 65,
            "name": "F4",
            "ticks": 273216,
            "time": 121.971022,
            "velocity": 0.4251968503937008
          },
          {
            "duration": 0.042856999999997925,
            "durationTicks": 96,
            "midi": 68,
            "name": "G#4",
            "ticks": 273600,
            "time": 122.14245,
            "velocity": 0.4251968503937008
          },
          {
            "duration": 0.042856999999997925,
            "durationTicks": 96,
            "midi": 68,
            "name": "G#4",
            "ticks": 273600,
            "time": 122.14245,
            "velocity": 0.4251968503937008
          },
          {
            "duration": 0.042856999999997925,
            "durationTicks": 96,
            "midi": 68,
            "name": "G#4",
            "ticks": 273696,
            "time": 122.185307,
            "velocity": 0.4251968503937008
          },
          {
            "duration": 0.042857000000012135,
            "durationTicks": 96,
            "midi": 68,
            "name": "G#4",
            "ticks": 273792,
            "time": 122.22816399999999,
            "velocity": 0.4251968503937008
          },
          {
            "duration": 0.042856999999997925,
            "durationTicks": 96,
            "midi": 69,
            "name": "A4",
            "ticks": 273984,
            "time": 122.313878,
            "velocity": 0.4251968503937008
          },
          {
            "duration": 0.042856999999997925,
            "durationTicks": 96,
            "midi": 71,
            "name": "B4",
            "ticks": 274368,
            "time": 122.485306,
            "velocity": 0.4251968503937008
          },
          {
            "duration": 0.042856999999997925,
            "durationTicks": 96,
            "midi": 74,
            "name": "D5",
            "ticks": 274752,
            "time": 122.656734,
            "velocity": 0.4251968503937008
          },
          {
            "duration": 0.042857000000012135,
            "durationTicks": 96,
            "midi": 72,
            "name": "C5",
            "ticks": 275136,
            "time": 122.82816199999999,
            "velocity": 0.4251968503937008
          },
          {
            "duration": 0.042856999999997925,
            "durationTicks": 96,
            "midi": 72,
            "name": "C5",
            "ticks": 275232,
            "time": 122.871019,
            "velocity": 0.4251968503937008
          },
          {
            "duration": 0.042856999999997925,
            "durationTicks": 96,
            "midi": 72,
            "name": "C5",
            "ticks": 275328,
            "time": 122.913876,
            "velocity": 0.4251968503937008
          },
          {
            "duration": 0.042856999999997925,
            "durationTicks": 96,
            "midi": 69,
            "name": "A4",
            "ticks": 276288,
            "time": 123.342446,
            "velocity": 0.4251968503937008
          },
          {
            "duration": 0.042856999999997925,
            "durationTicks": 96,
            "midi": 69,
            "name": "A4",
            "ticks": 276384,
            "time": 123.385303,
            "velocity": 0.4251968503937008
          },
          {
            "duration": 0.042857000000012135,
            "durationTicks": 96,
            "midi": 69,
            "name": "A4",
            "ticks": 276480,
            "time": 123.42815999999999,
            "velocity": 0.4251968503937008
          },
          {
            "duration": 0.042856999999997925,
            "durationTicks": 96,
            "midi": 68,
            "name": "G#4",
            "ticks": 276672,
            "time": 123.513874,
            "velocity": 0.4251968503937008
          },
          {
            "duration": 0.042856999999997925,
            "durationTicks": 96,
            "midi": 68,
            "name": "G#4",
            "ticks": 276768,
            "time": 123.556731,
            "velocity": 0.4251968503937008
          },
          {
            "duration": 0.042856999999997925,
            "durationTicks": 96,
            "midi": 68,
            "name": "G#4",
            "ticks": 276864,
            "time": 123.599588,
            "velocity": 0.4251968503937008
          },
          {
            "duration": 0.042856999999997925,
            "durationTicks": 96,
            "midi": 69,
            "name": "A4",
            "ticks": 277824,
            "time": 124.028158,
            "velocity": 0.4251968503937008
          },
          {
            "duration": 0.042856999999997925,
            "durationTicks": 96,
            "midi": 69,
            "name": "A4",
            "ticks": 277920,
            "time": 124.071015,
            "velocity": 0.4251968503937008
          },
          {
            "duration": 0.042856999999997925,
            "durationTicks": 96,
            "midi": 69,
            "name": "A4",
            "ticks": 278016,
            "time": 124.113872,
            "velocity": 0.4251968503937008
          },
          {
            "duration": 0.042856999999997925,
            "durationTicks": 96,
            "midi": 64,
            "name": "E4",
            "ticks": 278208,
            "time": 124.199586,
            "velocity": 0.4251968503937008
          },
          {
            "duration": 0.042856999999997925,
            "durationTicks": 96,
            "midi": 84,
            "name": "C6",
            "ticks": 278208,
            "time": 124.199586,
            "velocity": 0.4251968503937008
          },
          {
            "duration": 0.042856999999997925,
            "durationTicks": 96,
            "midi": 64,
            "name": "E4",
            "ticks": 278304,
            "time": 124.242443,
            "velocity": 0.4251968503937008
          },
          {
            "duration": 0.042857000000012135,
            "durationTicks": 96,
            "midi": 64,
            "name": "E4",
            "ticks": 278400,
            "time": 124.28529999999999,
            "velocity": 0.4251968503937008
          },
          {
            "duration": 0.042856999999997925,
            "durationTicks": 96,
            "midi": 81,
            "name": "A5",
            "ticks": 278592,
            "time": 124.371014,
            "velocity": 0.4251968503937008
          },
          {
            "duration": 0.042856999999997925,
            "durationTicks": 96,
            "midi": 81,
            "name": "A5",
            "ticks": 278976,
            "time": 124.542442,
            "velocity": 0.4251968503937008
          },
          {
            "duration": 0.042856999999997925,
            "durationTicks": 96,
            "midi": 81,
            "name": "A5",
            "ticks": 279360,
            "time": 124.71387,
            "velocity": 0.4251968503937008
          },
          {
            "duration": 0.042857000000012135,
            "durationTicks": 96,
            "midi": 81,
            "name": "A5",
            "ticks": 279744,
            "time": 124.88529799999999,
            "velocity": 0.4251968503937008
          },
          {
            "duration": 0.042856999999997925,
            "durationTicks": 96,
            "midi": 81,
            "name": "A5",
            "ticks": 280128,
            "time": 125.056726,
            "velocity": 0.4251968503937008
          },
          {
            "duration": 0.042856999999997925,
            "durationTicks": 96,
            "midi": 76,
            "name": "E5",
            "ticks": 280512,
            "time": 125.228154,
            "velocity": 0.4251968503937008
          },
          {
            "duration": 0.042856999999997925,
            "durationTicks": 96,
            "midi": 76,
            "name": "E5",
            "ticks": 280608,
            "time": 125.271011,
            "velocity": 0.4251968503937008
          },
          {
            "duration": 0.042856999999997925,
            "durationTicks": 96,
            "midi": 76,
            "name": "E5",
            "ticks": 280704,
            "time": 125.313868,
            "velocity": 0.4251968503937008
          },
          {
            "duration": 0.042856999999997925,
            "durationTicks": 96,
            "midi": 75,
            "name": "D#5",
            "ticks": 281280,
            "time": 125.57101,
            "velocity": 0.4251968503937008
          },
          {
            "duration": 0.042856999999997925,
            "durationTicks": 96,
            "midi": 75,
            "name": "D#5",
            "ticks": 281376,
            "time": 125.613867,
            "velocity": 0.4251968503937008
          },
          {
            "duration": 0.042856999999997925,
            "durationTicks": 96,
            "midi": 75,
            "name": "D#5",
            "ticks": 281472,
            "time": 125.656724,
            "velocity": 0.4251968503937008
          },
          {
            "duration": 0.042856999999997925,
            "durationTicks": 96,
            "midi": 72,
            "name": "C5",
            "ticks": 282432,
            "time": 126.085294,
            "velocity": 0.4251968503937008
          },
          {
            "duration": 0.042856999999997925,
            "durationTicks": 96,
            "midi": 72,
            "name": "C5",
            "ticks": 282528,
            "time": 126.128151,
            "velocity": 0.4251968503937008
          },
          {
            "duration": 0.042856999999997925,
            "durationTicks": 96,
            "midi": 72,
            "name": "C5",
            "ticks": 282624,
            "time": 126.171008,
            "velocity": 0.4251968503937008
          },
          {
            "duration": 0.042856999999997925,
            "durationTicks": 96,
            "midi": 71,
            "name": "B4",
            "ticks": 282816,
            "time": 126.256722,
            "velocity": 0.4251968503937008
          },
          {
            "duration": 0.042856999999997925,
            "durationTicks": 96,
            "midi": 71,
            "name": "B4",
            "ticks": 282912,
            "time": 126.299579,
            "velocity": 0.4251968503937008
          },
          {
            "duration": 0.042857000000012135,
            "durationTicks": 96,
            "midi": 71,
            "name": "B4",
            "ticks": 283008,
            "time": 126.34243599999999,
            "velocity": 0.4251968503937008
          },
          {
            "duration": 0.042856999999997925,
            "durationTicks": 96,
            "midi": 69,
            "name": "A4",
            "ticks": 283968,
            "time": 126.771006,
            "velocity": 0.4251968503937008
          },
          {
            "duration": 0.042856999999997925,
            "durationTicks": 96,
            "midi": 69,
            "name": "A4",
            "ticks": 284064,
            "time": 126.813863,
            "velocity": 0.4251968503937008
          },
          {
            "duration": 0.042856999999997925,
            "durationTicks": 96,
            "midi": 69,
            "name": "A4",
            "ticks": 284160,
            "time": 126.85672,
            "velocity": 0.4251968503937008
          },
          {
            "duration": 0.042857000000012135,
            "durationTicks": 96,
            "midi": 69,
            "name": "A4",
            "ticks": 284352,
            "time": 126.94243399999999,
            "velocity": 0.4251968503937008
          },
          {
            "duration": 0.042856999999997925,
            "durationTicks": 96,
            "midi": 69,
            "name": "A4",
            "ticks": 284448,
            "time": 126.985291,
            "velocity": 0.4251968503937008
          },
          {
            "duration": 0.042856999999997925,
            "durationTicks": 96,
            "midi": 69,
            "name": "A4",
            "ticks": 284544,
            "time": 127.028148,
            "velocity": 0.4251968503937008
          },
          {
            "duration": 0.042856999999997925,
            "durationTicks": 96,
            "midi": 69,
            "name": "A4",
            "ticks": 284640,
            "time": 127.071005,
            "velocity": 0.4251968503937008
          },
          {
            "duration": 0.042856999999997925,
            "durationTicks": 96,
            "midi": 69,
            "name": "A4",
            "ticks": 284736,
            "time": 127.113862,
            "velocity": 0.4251968503937008
          },
          {
            "duration": 0.042856999999997925,
            "durationTicks": 96,
            "midi": 69,
            "name": "A4",
            "ticks": 284832,
            "time": 127.156719,
            "velocity": 0.4251968503937008
          },
          {
            "duration": 0.042856999999997925,
            "durationTicks": 96,
            "midi": 71,
            "name": "B4",
            "ticks": 285888,
            "time": 127.628146,
            "velocity": 0.4251968503937008
          },
          {
            "duration": 0.042856999999997925,
            "durationTicks": 96,
            "midi": 71,
            "name": "B4",
            "ticks": 285984,
            "time": 127.671003,
            "velocity": 0.4251968503937008
          },
          {
            "duration": 0.042856999999997925,
            "durationTicks": 96,
            "midi": 71,
            "name": "B4",
            "ticks": 286080,
            "time": 127.71386,
            "velocity": 0.4251968503937008
          },
          {
            "duration": 0.042856999999997925,
            "durationTicks": 96,
            "midi": 71,
            "name": "B4",
            "ticks": 286176,
            "time": 127.756717,
            "velocity": 0.4251968503937008
          },
          {
            "duration": 0.042857000000012135,
            "durationTicks": 96,
            "midi": 71,
            "name": "B4",
            "ticks": 286272,
            "time": 127.79957399999999,
            "velocity": 0.4251968503937008
          },
          {
            "duration": 0.042856999999997925,
            "durationTicks": 96,
            "midi": 71,
            "name": "B4",
            "ticks": 286368,
            "time": 127.842431,
            "velocity": 0.4251968503937008
          },
          {
            "duration": 0.042856999999997925,
            "durationTicks": 96,
            "midi": 84,
            "name": "C6",
            "ticks": 287424,
            "time": 128.313858,
            "velocity": 0.4251968503937008
          },
          {
            "duration": 0.042856999999997925,
            "durationTicks": 96,
            "midi": 84,
            "name": "C6",
            "ticks": 287520,
            "time": 128.356715,
            "velocity": 0.4251968503937008
          },
          {
            "duration": 0.042856999999997925,
            "durationTicks": 96,
            "midi": 84,
            "name": "C6",
            "ticks": 287616,
            "time": 128.399572,
            "velocity": 0.4251968503937008
          },
          {
            "duration": 0.042857000000026346,
            "durationTicks": 96,
            "midi": 81,
            "name": "A5",
            "ticks": 288576,
            "time": 128.82814199999999,
            "velocity": 0.4251968503937008
          },
          {
            "duration": 0.042856999999997925,
            "durationTicks": 96,
            "midi": 81,
            "name": "A5",
            "ticks": 288672,
            "time": 128.870999,
            "velocity": 0.4251968503937008
          },
          {
            "duration": 0.042856999999997925,
            "durationTicks": 96,
            "midi": 81,
            "name": "A5",
            "ticks": 288768,
            "time": 128.913856,
            "velocity": 0.4251968503937008
          },
          {
            "duration": 0.042856999999997925,
            "durationTicks": 96,
            "midi": 80,
            "name": "G#5",
            "ticks": 288960,
            "time": 128.99957,
            "velocity": 0.4251968503937008
          },
          {
            "duration": 0.042856999999997925,
            "durationTicks": 96,
            "midi": 80,
            "name": "G#5",
            "ticks": 289056,
            "time": 129.042427,
            "velocity": 0.4251968503937008
          },
          {
            "duration": 0.042856999999997925,
            "durationTicks": 96,
            "midi": 80,
            "name": "G#5",
            "ticks": 289152,
            "time": 129.085284,
            "velocity": 0.4251968503937008
          },
          {
            "duration": 0.042856999999997925,
            "durationTicks": 96,
            "midi": 81,
            "name": "A5",
            "ticks": 290112,
            "time": 129.513854,
            "velocity": 0.4251968503937008
          },
          {
            "duration": 0.042856999999997925,
            "durationTicks": 96,
            "midi": 81,
            "name": "A5",
            "ticks": 290208,
            "time": 129.556711,
            "velocity": 0.4251968503937008
          },
          {
            "duration": 0.042856999999997925,
            "durationTicks": 96,
            "midi": 81,
            "name": "A5",
            "ticks": 290304,
            "time": 129.599568,
            "velocity": 0.4251968503937008
          },
          {
            "duration": 0.042856999999997925,
            "durationTicks": 96,
            "midi": 76,
            "name": "E5",
            "ticks": 290496,
            "time": 129.685282,
            "velocity": 0.4251968503937008
          },
          {
            "duration": 0.042856999999997925,
            "durationTicks": 96,
            "midi": 76,
            "name": "E5",
            "ticks": 290592,
            "time": 129.728139,
            "velocity": 0.4251968503937008
          },
          {
            "duration": 0.042856999999997925,
            "durationTicks": 96,
            "midi": 76,
            "name": "E5",
            "ticks": 290688,
            "time": 129.770996,
            "velocity": 0.4251968503937008
          },
          {
            "duration": 0.042856999999997925,
            "durationTicks": 96,
            "midi": 76,
            "name": "E5",
            "ticks": 292800,
            "time": 130.71385,
            "velocity": 0.4251968503937008
          },
          {
            "duration": 0.042856999999997925,
            "durationTicks": 96,
            "midi": 76,
            "name": "E5",
            "ticks": 292896,
            "time": 130.756707,
            "velocity": 0.4251968503937008
          },
          {
            "duration": 0.042856999999997925,
            "durationTicks": 96,
            "midi": 76,
            "name": "E5",
            "ticks": 292992,
            "time": 130.799564,
            "velocity": 0.4251968503937008
          },
          {
            "duration": 0.042856999999997925,
            "durationTicks": 96,
            "midi": 75,
            "name": "D#5",
            "ticks": 293568,
            "time": 131.056706,
            "velocity": 0.4251968503937008
          },
          {
            "duration": 0.042856999999997925,
            "durationTicks": 96,
            "midi": 75,
            "name": "D#5",
            "ticks": 293664,
            "time": 131.099563,
            "velocity": 0.4251968503937008
          },
          {
            "duration": 0.042856999999997925,
            "durationTicks": 96,
            "midi": 75,
            "name": "D#5",
            "ticks": 293760,
            "time": 131.14242,
            "velocity": 0.4251968503937008
          },
          {
            "duration": 0.042856999999997925,
            "durationTicks": 96,
            "midi": 76,
            "name": "E5",
            "ticks": 294720,
            "time": 131.57099,
            "velocity": 0.4251968503937008
          },
          {
            "duration": 0.042856999999997925,
            "durationTicks": 96,
            "midi": 76,
            "name": "E5",
            "ticks": 294816,
            "time": 131.613847,
            "velocity": 0.4251968503937008
          },
          {
            "duration": 0.042856999999997925,
            "durationTicks": 96,
            "midi": 76,
            "name": "E5",
            "ticks": 294912,
            "time": 131.656704,
            "velocity": 0.4251968503937008
          },
          {
            "duration": 0.042856999999997925,
            "durationTicks": 96,
            "midi": 84,
            "name": "C6",
            "ticks": 295104,
            "time": 131.742418,
            "velocity": 0.4251968503937008
          },
          {
            "duration": 0.042857000000026346,
            "durationTicks": 96,
            "midi": 84,
            "name": "C6",
            "ticks": 295200,
            "time": 131.78527499999998,
            "velocity": 0.4251968503937008
          },
          {
            "duration": 0.042856999999997925,
            "durationTicks": 96,
            "midi": 84,
            "name": "C6",
            "ticks": 295296,
            "time": 131.828132,
            "velocity": 0.4251968503937008
          },
          {
            "duration": 0.042856999999997925,
            "durationTicks": 96,
            "midi": 83,
            "name": "B5",
            "ticks": 296256,
            "time": 132.256702,
            "velocity": 0.4251968503937008
          },
          {
            "duration": 0.042856999999997925,
            "durationTicks": 96,
            "midi": 83,
            "name": "B5",
            "ticks": 296352,
            "time": 132.299559,
            "velocity": 0.4251968503937008
          },
          {
            "duration": 0.042856999999997925,
            "durationTicks": 96,
            "midi": 83,
            "name": "B5",
            "ticks": 296448,
            "time": 132.342416,
            "velocity": 0.4251968503937008
          },
          {
            "duration": 0.042856999999997925,
            "durationTicks": 96,
            "midi": 81,
            "name": "A5",
            "ticks": 296640,
            "time": 132.42813,
            "velocity": 0.4251968503937008
          },
          {
            "duration": 0.042856999999997925,
            "durationTicks": 96,
            "midi": 81,
            "name": "A5",
            "ticks": 296736,
            "time": 132.470987,
            "velocity": 0.4251968503937008
          },
          {
            "duration": 0.042856999999997925,
            "durationTicks": 96,
            "midi": 81,
            "name": "A5",
            "ticks": 296832,
            "time": 132.513844,
            "velocity": 0.4251968503937008
          },
          {
            "duration": 0.042856999999997925,
            "durationTicks": 96,
            "midi": 80,
            "name": "G#5",
            "ticks": 298176,
            "time": 133.113842,
            "velocity": 0.4251968503937008
          },
          {
            "duration": 0.042856999999997925,
            "durationTicks": 96,
            "midi": 80,
            "name": "G#5",
            "ticks": 298176,
            "time": 133.113842,
            "velocity": 0.4251968503937008
          },
          {
            "duration": 0.042856999999997925,
            "durationTicks": 96,
            "midi": 80,
            "name": "G#5",
            "ticks": 298272,
            "time": 133.156699,
            "velocity": 0.4251968503937008
          },
          {
            "duration": 0.042856999999997925,
            "durationTicks": 96,
            "midi": 80,
            "name": "G#5",
            "ticks": 298368,
            "time": 133.199556,
            "velocity": 0.4251968503937008
          },
          {
            "duration": 0.042856999999997925,
            "durationTicks": 96,
            "midi": 84,
            "name": "C6",
            "ticks": 299712,
            "time": 133.799554,
            "velocity": 0.4251968503937008
          },
          {
            "duration": 0.042856999999997925,
            "durationTicks": 96,
            "midi": 84,
            "name": "C6",
            "ticks": 299808,
            "time": 133.842411,
            "velocity": 0.4251968503937008
          },
          {
            "duration": 0.042856999999997925,
            "durationTicks": 96,
            "midi": 84,
            "name": "C6",
            "ticks": 299904,
            "time": 133.885268,
            "velocity": 0.4251968503937008
          },
          {
            "duration": 0.042856999999997925,
            "durationTicks": 96,
            "midi": 81,
            "name": "A5",
            "ticks": 300864,
            "time": 134.313838,
            "velocity": 0.4251968503937008
          },
          {
            "duration": 0.042856999999997925,
            "durationTicks": 96,
            "midi": 81,
            "name": "A5",
            "ticks": 300960,
            "time": 134.356695,
            "velocity": 0.4251968503937008
          },
          {
            "duration": 0.042856999999997925,
            "durationTicks": 96,
            "midi": 81,
            "name": "A5",
            "ticks": 301056,
            "time": 134.399552,
            "velocity": 0.4251968503937008
          },
          {
            "duration": 0.042856999999997925,
            "durationTicks": 96,
            "midi": 80,
            "name": "G#5",
            "ticks": 301248,
            "time": 134.485266,
            "velocity": 0.4251968503937008
          },
          {
            "duration": 0.042856999999997925,
            "durationTicks": 96,
            "midi": 80,
            "name": "G#5",
            "ticks": 301344,
            "time": 134.528123,
            "velocity": 0.4251968503937008
          },
          {
            "duration": 0.042856999999997925,
            "durationTicks": 96,
            "midi": 80,
            "name": "G#5",
            "ticks": 301440,
            "time": 134.57098,
            "velocity": 0.4251968503937008
          },
          {
            "duration": 0.042856999999997925,
            "durationTicks": 96,
            "midi": 81,
            "name": "A5",
            "ticks": 302400,
            "time": 134.99955,
            "velocity": 0.4251968503937008
          },
          {
            "duration": 0.042856999999997925,
            "durationTicks": 96,
            "midi": 81,
            "name": "A5",
            "ticks": 302496,
            "time": 135.042407,
            "velocity": 0.4251968503937008
          },
          {
            "duration": 0.042856999999997925,
            "durationTicks": 96,
            "midi": 81,
            "name": "A5",
            "ticks": 302592,
            "time": 135.085264,
            "velocity": 0.4251968503937008
          },
          {
            "duration": 0.042856999999997925,
            "durationTicks": 96,
            "midi": 76,
            "name": "E5",
            "ticks": 302784,
            "time": 135.170978,
            "velocity": 0.4251968503937008
          },
          {
            "duration": 0.042856999999997925,
            "durationTicks": 96,
            "midi": 76,
            "name": "E5",
            "ticks": 302880,
            "time": 135.213835,
            "velocity": 0.4251968503937008
          },
          {
            "duration": 0.042856999999997925,
            "durationTicks": 96,
            "midi": 76,
            "name": "E5",
            "ticks": 302976,
            "time": 135.256692,
            "velocity": 0.4251968503937008
          },
          {
            "duration": 0.042856999999997925,
            "durationTicks": 96,
            "midi": 88,
            "name": "E6",
            "ticks": 305088,
            "time": 136.199546,
            "velocity": 0.4251968503937008
          },
          {
            "duration": 0.042856999999997925,
            "durationTicks": 96,
            "midi": 88,
            "name": "E6",
            "ticks": 305184,
            "time": 136.242403,
            "velocity": 0.4251968503937008
          },
          {
            "duration": 0.042856999999997925,
            "durationTicks": 96,
            "midi": 88,
            "name": "E6",
            "ticks": 305280,
            "time": 136.28526,
            "velocity": 0.4251968503937008
          },
          {
            "duration": 0.042856999999997925,
            "durationTicks": 96,
            "midi": 87,
            "name": "D#6",
            "ticks": 305856,
            "time": 136.542402,
            "velocity": 0.4251968503937008
          },
          {
            "duration": 0.042856999999997925,
            "durationTicks": 96,
            "midi": 87,
            "name": "D#6",
            "ticks": 305952,
            "time": 136.585259,
            "velocity": 0.4251968503937008
          },
          {
            "duration": 0.042856999999997925,
            "durationTicks": 96,
            "midi": 87,
            "name": "D#6",
            "ticks": 306048,
            "time": 136.628116,
            "velocity": 0.4251968503937008
          },
          {
            "duration": 0.042857000000026346,
            "durationTicks": 96,
            "midi": 84,
            "name": "C6",
            "ticks": 307008,
            "time": 137.05668599999998,
            "velocity": 0.4251968503937008
          },
          {
            "duration": 0.042856999999997925,
            "durationTicks": 96,
            "midi": 84,
            "name": "C6",
            "ticks": 307104,
            "time": 137.099543,
            "velocity": 0.4251968503937008
          },
          {
            "duration": 0.042856999999997925,
            "durationTicks": 96,
            "midi": 84,
            "name": "C6",
            "ticks": 307200,
            "time": 137.1424,
            "velocity": 0.4251968503937008
          },
          {
            "duration": 0.042856999999997925,
            "durationTicks": 96,
            "midi": 83,
            "name": "B5",
            "ticks": 307392,
            "time": 137.228114,
            "velocity": 0.4251968503937008
          },
          {
            "duration": 0.042856999999997925,
            "durationTicks": 96,
            "midi": 83,
            "name": "B5",
            "ticks": 307488,
            "time": 137.270971,
            "velocity": 0.4251968503937008
          },
          {
            "duration": 0.042856999999997925,
            "durationTicks": 96,
            "midi": 83,
            "name": "B5",
            "ticks": 307584,
            "time": 137.313828,
            "velocity": 0.4251968503937008
          },
          {
            "duration": 0.042856999999997925,
            "durationTicks": 96,
            "midi": 81,
            "name": "A5",
            "ticks": 308544,
            "time": 137.742398,
            "velocity": 0.4251968503937008
          },
          {
            "duration": 0.042856999999997925,
            "durationTicks": 96,
            "midi": 81,
            "name": "A5",
            "ticks": 308640,
            "time": 137.785255,
            "velocity": 0.4251968503937008
          },
          {
            "duration": 0.042856999999997925,
            "durationTicks": 96,
            "midi": 81,
            "name": "A5",
            "ticks": 308736,
            "time": 137.828112,
            "velocity": 0.4251968503937008
          },
          {
            "duration": 0.042856999999997925,
            "durationTicks": 96,
            "midi": 81,
            "name": "A5",
            "ticks": 308928,
            "time": 137.913826,
            "velocity": 0.4251968503937008
          },
          {
            "duration": 0.042856999999997925,
            "durationTicks": 96,
            "midi": 81,
            "name": "A5",
            "ticks": 309024,
            "time": 137.956683,
            "velocity": 0.4251968503937008
          },
          {
            "duration": 0.042856999999997925,
            "durationTicks": 96,
            "midi": 81,
            "name": "A5",
            "ticks": 309120,
            "time": 137.99954,
            "velocity": 0.4251968503937008
          },
          {
            "duration": 0.042856999999997925,
            "durationTicks": 96,
            "midi": 81,
            "name": "A5",
            "ticks": 309216,
            "time": 138.042397,
            "velocity": 0.4251968503937008
          },
          {
            "duration": 0.042856999999997925,
            "durationTicks": 96,
            "midi": 81,
            "name": "A5",
            "ticks": 309312,
            "time": 138.085254,
            "velocity": 0.4251968503937008
          },
          {
            "duration": 0.042856999999997925,
            "durationTicks": 96,
            "midi": 62,
            "name": "D4",
            "ticks": 309312,
            "time": 138.085254,
            "velocity": 0.4251968503937008
          },
          {
            "duration": 0.042857000000026346,
            "durationTicks": 96,
            "midi": 64,
            "name": "E4",
            "ticks": 309696,
            "time": 138.25668199999998,
            "velocity": 0.4251968503937008
          },
          {
            "duration": 0.042856999999997925,
            "durationTicks": 96,
            "midi": 65,
            "name": "F4",
            "ticks": 310080,
            "time": 138.42811,
            "velocity": 0.4251968503937008
          },
          {
            "duration": 0.042856999999997925,
            "durationTicks": 96,
            "midi": 68,
            "name": "G#4",
            "ticks": 310464,
            "time": 138.599538,
            "velocity": 0.4251968503937008
          },
          {
            "duration": 0.042856999999997925,
            "durationTicks": 96,
            "midi": 83,
            "name": "B5",
            "ticks": 310464,
            "time": 138.599538,
            "velocity": 0.4251968503937008
          },
          {
            "duration": 0.042856999999997925,
            "durationTicks": 96,
            "midi": 83,
            "name": "B5",
            "ticks": 310560,
            "time": 138.642395,
            "velocity": 0.4251968503937008
          },
          {
            "duration": 0.042856999999997925,
            "durationTicks": 96,
            "midi": 83,
            "name": "B5",
            "ticks": 310656,
            "time": 138.685252,
            "velocity": 0.4251968503937008
          },
          {
            "duration": 0.042856999999997925,
            "durationTicks": 96,
            "midi": 83,
            "name": "B5",
            "ticks": 310752,
            "time": 138.728109,
            "velocity": 0.4251968503937008
          },
          {
            "duration": 0.042856999999997925,
            "durationTicks": 96,
            "midi": 83,
            "name": "B5",
            "ticks": 310848,
            "time": 138.770966,
            "velocity": 0.4251968503937008
          },
          {
            "duration": 0.042856999999997925,
            "durationTicks": 96,
            "midi": 69,
            "name": "A4",
            "ticks": 310848,
            "time": 138.770966,
            "velocity": 0.4251968503937008
          },
          {
            "duration": 0.042856999999997925,
            "durationTicks": 96,
            "midi": 71,
            "name": "B4",
            "ticks": 311232,
            "time": 138.942394,
            "velocity": 0.4251968503937008
          },
          {
            "duration": 0.042856999999997925,
            "durationTicks": 96,
            "midi": 74,
            "name": "D5",
            "ticks": 311616,
            "time": 139.113822,
            "velocity": 0.4251968503937008
          },
          {
            "duration": 0.042856999999997925,
            "durationTicks": 96,
            "midi": 76,
            "name": "E5",
            "ticks": 312000,
            "time": 139.28525,
            "velocity": 0.4251968503937008
          },
          {
            "duration": 0.042856999999997925,
            "durationTicks": 96,
            "midi": 76,
            "name": "E5",
            "ticks": 312096,
            "time": 139.328107,
            "velocity": 0.4251968503937008
          },
          {
            "duration": 0.042856999999997925,
            "durationTicks": 96,
            "midi": 77,
            "name": "F5",
            "ticks": 312192,
            "time": 139.370964,
            "velocity": 0.4251968503937008
          },
          {
            "duration": 0.042857000000026346,
            "durationTicks": 96,
            "midi": 77,
            "name": "F5",
            "ticks": 312288,
            "time": 139.41382099999998,
            "velocity": 0.4251968503937008
          },
          {
            "duration": 0.042856999999997925,
            "durationTicks": 96,
            "midi": 76,
            "name": "E5",
            "ticks": 312384,
            "time": 139.456678,
            "velocity": 0.4251968503937008
          },
          {
            "duration": 0.042856999999997925,
            "durationTicks": 96,
            "midi": 76,
            "name": "E5",
            "ticks": 312480,
            "time": 139.499535,
            "velocity": 0.4251968503937008
          },
          {
            "duration": 0.042856999999997925,
            "durationTicks": 96,
            "midi": 75,
            "name": "D#5",
            "ticks": 312576,
            "time": 139.542392,
            "velocity": 0.4251968503937008
          },
          {
            "duration": 0.042856999999997925,
            "durationTicks": 96,
            "midi": 75,
            "name": "D#5",
            "ticks": 312672,
            "time": 139.585249,
            "velocity": 0.4251968503937008
          },
          {
            "duration": 0.042856999999997925,
            "durationTicks": 96,
            "midi": 76,
            "name": "E5",
            "ticks": 312768,
            "time": 139.628106,
            "velocity": 0.4251968503937008
          },
          {
            "duration": 0.042856999999997925,
            "durationTicks": 96,
            "midi": 76,
            "name": "E5",
            "ticks": 312864,
            "time": 139.670963,
            "velocity": 0.4251968503937008
          },
          {
            "duration": 0.042856999999997925,
            "durationTicks": 96,
            "midi": 69,
            "name": "A4",
            "ticks": 313152,
            "time": 139.799534,
            "velocity": 0.4251968503937008
          },
          {
            "duration": 0.042856999999997925,
            "durationTicks": 96,
            "midi": 69,
            "name": "A4",
            "ticks": 313248,
            "time": 139.842391,
            "velocity": 0.4251968503937008
          },
          {
            "duration": 0.042856999999997925,
            "durationTicks": 96,
            "midi": 72,
            "name": "C5",
            "ticks": 313536,
            "time": 139.970962,
            "velocity": 0.4251968503937008
          },
          {
            "duration": 0.042857000000026346,
            "durationTicks": 96,
            "midi": 72,
            "name": "C5",
            "ticks": 313632,
            "time": 140.01381899999998,
            "velocity": 0.4251968503937008
          },
          {
            "duration": 0.042856999999997925,
            "durationTicks": 96,
            "midi": 71,
            "name": "B4",
            "ticks": 314304,
            "time": 140.313818,
            "velocity": 0.4251968503937008
          },
          {
            "duration": 0.042856999999997925,
            "durationTicks": 96,
            "midi": 71,
            "name": "B4",
            "ticks": 314400,
            "time": 140.356675,
            "velocity": 0.4251968503937008
          },
          {
            "duration": 0.042856999999997925,
            "durationTicks": 96,
            "midi": 72,
            "name": "C5",
            "ticks": 314496,
            "time": 140.399532,
            "velocity": 0.4251968503937008
          },
          {
            "duration": 0.042856999999997925,
            "durationTicks": 96,
            "midi": 72,
            "name": "C5",
            "ticks": 314592,
            "time": 140.442389,
            "velocity": 0.4251968503937008
          },
          {
            "duration": 0.042856999999997925,
            "durationTicks": 96,
            "midi": 71,
            "name": "B4",
            "ticks": 314688,
            "time": 140.485246,
            "velocity": 0.4251968503937008
          },
          {
            "duration": 0.042856999999997925,
            "durationTicks": 96,
            "midi": 71,
            "name": "B4",
            "ticks": 314784,
            "time": 140.528103,
            "velocity": 0.4251968503937008
          },
          {
            "duration": 0.042857000000026346,
            "durationTicks": 96,
            "midi": 69,
            "name": "A4",
            "ticks": 314880,
            "time": 140.57095999999999,
            "velocity": 0.4251968503937008
          },
          {
            "duration": 0.042856999999997925,
            "durationTicks": 96,
            "midi": 69,
            "name": "A4",
            "ticks": 314976,
            "time": 140.613817,
            "velocity": 0.4251968503937008
          },
          {
            "duration": 0.042856999999997925,
            "durationTicks": 96,
            "midi": 76,
            "name": "E5",
            "ticks": 315072,
            "time": 140.656674,
            "velocity": 0.4251968503937008
          },
          {
            "duration": 0.042856999999997925,
            "durationTicks": 96,
            "midi": 76,
            "name": "E5",
            "ticks": 315168,
            "time": 140.699531,
            "velocity": 0.4251968503937008
          },
          {
            "duration": 0.042856999999997925,
            "durationTicks": 96,
            "midi": 77,
            "name": "F5",
            "ticks": 315264,
            "time": 140.742388,
            "velocity": 0.4251968503937008
          },
          {
            "duration": 0.042856999999997925,
            "durationTicks": 96,
            "midi": 77,
            "name": "F5",
            "ticks": 315360,
            "time": 140.785245,
            "velocity": 0.4251968503937008
          },
          {
            "duration": 0.042856999999997925,
            "durationTicks": 96,
            "midi": 76,
            "name": "E5",
            "ticks": 315456,
            "time": 140.828102,
            "velocity": 0.4251968503937008
          },
          {
            "duration": 0.042856999999997925,
            "durationTicks": 96,
            "midi": 76,
            "name": "E5",
            "ticks": 315552,
            "time": 140.870959,
            "velocity": 0.4251968503937008
          },
          {
            "duration": 0.042856999999997925,
            "durationTicks": 96,
            "midi": 75,
            "name": "D#5",
            "ticks": 315648,
            "time": 140.913816,
            "velocity": 0.4251968503937008
          },
          {
            "duration": 0.042856999999997925,
            "durationTicks": 96,
            "midi": 75,
            "name": "D#5",
            "ticks": 315744,
            "time": 140.956673,
            "velocity": 0.4251968503937008
          },
          {
            "duration": 0.042856999999997925,
            "durationTicks": 96,
            "midi": 76,
            "name": "E5",
            "ticks": 315840,
            "time": 140.99953,
            "velocity": 0.4251968503937008
          },
          {
            "duration": 0.042856999999997925,
            "durationTicks": 96,
            "midi": 76,
            "name": "E5",
            "ticks": 315936,
            "time": 141.042387,
            "velocity": 0.4251968503937008
          },
          {
            "duration": 0.042857000000026346,
            "durationTicks": 96,
            "midi": 69,
            "name": "A4",
            "ticks": 316224,
            "time": 141.17095799999998,
            "velocity": 0.4251968503937008
          },
          {
            "duration": 0.042856999999997925,
            "durationTicks": 96,
            "midi": 69,
            "name": "A4",
            "ticks": 316320,
            "time": 141.213815,
            "velocity": 0.4251968503937008
          },
          {
            "duration": 0.042856999999997925,
            "durationTicks": 96,
            "midi": 72,
            "name": "C5",
            "ticks": 316608,
            "time": 141.342386,
            "velocity": 0.4251968503937008
          },
          {
            "duration": 0.042856999999997925,
            "durationTicks": 96,
            "midi": 72,
            "name": "C5",
            "ticks": 316704,
            "time": 141.385243,
            "velocity": 0.4251968503937008
          },
          {
            "duration": 0.042856999999997925,
            "durationTicks": 96,
            "midi": 71,
            "name": "B4",
            "ticks": 317376,
            "time": 141.685242,
            "velocity": 0.4251968503937008
          },
          {
            "duration": 0.042856999999997925,
            "durationTicks": 96,
            "midi": 71,
            "name": "B4",
            "ticks": 317472,
            "time": 141.728099,
            "velocity": 0.4251968503937008
          },
          {
            "duration": 0.042857000000026346,
            "durationTicks": 96,
            "midi": 72,
            "name": "C5",
            "ticks": 317568,
            "time": 141.77095599999998,
            "velocity": 0.4251968503937008
          },
          {
            "duration": 0.042856999999997925,
            "durationTicks": 96,
            "midi": 72,
            "name": "C5",
            "ticks": 317664,
            "time": 141.813813,
            "velocity": 0.4251968503937008
          },
          {
            "duration": 0.042856999999997925,
            "durationTicks": 96,
            "midi": 71,
            "name": "B4",
            "ticks": 317760,
            "time": 141.85667,
            "velocity": 0.4251968503937008
          },
          {
            "duration": 0.042856999999997925,
            "durationTicks": 96,
            "midi": 71,
            "name": "B4",
            "ticks": 317856,
            "time": 141.899527,
            "velocity": 0.4251968503937008
          },
          {
            "duration": 0.042856999999997925,
            "durationTicks": 96,
            "midi": 69,
            "name": "A4",
            "ticks": 317952,
            "time": 141.942384,
            "velocity": 0.4251968503937008
          },
          {
            "duration": 0.042856999999997925,
            "durationTicks": 96,
            "midi": 69,
            "name": "A4",
            "ticks": 318048,
            "time": 141.985241,
            "velocity": 0.4251968503937008
          },
          {
            "duration": 0.042856999999997925,
            "durationTicks": 96,
            "midi": 76,
            "name": "E5",
            "ticks": 318144,
            "time": 142.028098,
            "velocity": 0.4251968503937008
          },
          {
            "duration": 0.042856999999997925,
            "durationTicks": 96,
            "midi": 76,
            "name": "E5",
            "ticks": 318240,
            "time": 142.070955,
            "velocity": 0.4251968503937008
          },
          {
            "duration": 0.042856999999997925,
            "durationTicks": 96,
            "midi": 77,
            "name": "F5",
            "ticks": 318336,
            "time": 142.113812,
            "velocity": 0.4251968503937008
          },
          {
            "duration": 0.042856999999997925,
            "durationTicks": 96,
            "midi": 77,
            "name": "F5",
            "ticks": 318432,
            "time": 142.156669,
            "velocity": 0.4251968503937008
          },
          {
            "duration": 0.042856999999997925,
            "durationTicks": 96,
            "midi": 76,
            "name": "E5",
            "ticks": 318528,
            "time": 142.199526,
            "velocity": 0.4251968503937008
          },
          {
            "duration": 0.042856999999997925,
            "durationTicks": 96,
            "midi": 76,
            "name": "E5",
            "ticks": 318624,
            "time": 142.242383,
            "velocity": 0.4251968503937008
          },
          {
            "duration": 0.042856999999997925,
            "durationTicks": 96,
            "midi": 75,
            "name": "D#5",
            "ticks": 318720,
            "time": 142.28524,
            "velocity": 0.4251968503937008
          },
          {
            "duration": 0.042856999999997925,
            "durationTicks": 96,
            "midi": 75,
            "name": "D#5",
            "ticks": 318816,
            "time": 142.32809699999999,
            "velocity": 0.4251968503937008
          },
          {
            "duration": 0.042857000000026346,
            "durationTicks": 96,
            "midi": 76,
            "name": "E5",
            "ticks": 318912,
            "time": 142.37095399999998,
            "velocity": 0.4251968503937008
          },
          {
            "duration": 0.042856999999997925,
            "durationTicks": 96,
            "midi": 76,
            "name": "E5",
            "ticks": 319008,
            "time": 142.413811,
            "velocity": 0.4251968503937008
          },
          {
            "duration": 0.042856999999997925,
            "durationTicks": 96,
            "midi": 69,
            "name": "A4",
            "ticks": 319296,
            "time": 142.542382,
            "velocity": 0.4251968503937008
          },
          {
            "duration": 0.042856999999997925,
            "durationTicks": 96,
            "midi": 69,
            "name": "A4",
            "ticks": 319392,
            "time": 142.585239,
            "velocity": 0.4251968503937008
          },
          {
            "duration": 0.042856999999997925,
            "durationTicks": 96,
            "midi": 72,
            "name": "C5",
            "ticks": 319680,
            "time": 142.71381,
            "velocity": 0.4251968503937008
          },
          {
            "duration": 0.042856999999997925,
            "durationTicks": 96,
            "midi": 72,
            "name": "C5",
            "ticks": 319776,
            "time": 142.756667,
            "velocity": 0.4251968503937008
          },
          {
            "duration": 0.042856999999997925,
            "durationTicks": 96,
            "midi": 76,
            "name": "E5",
            "ticks": 320448,
            "time": 143.056666,
            "velocity": 0.4251968503937008
          },
          {
            "duration": 0.042856999999997925,
            "durationTicks": 96,
            "midi": 76,
            "name": "E5",
            "ticks": 320544,
            "time": 143.099523,
            "velocity": 0.4251968503937008
          },
          {
            "duration": 0.042856999999997925,
            "durationTicks": 96,
            "midi": 74,
            "name": "D5",
            "ticks": 320640,
            "time": 143.14238,
            "velocity": 0.4251968503937008
          },
          {
            "duration": 0.042856999999997925,
            "durationTicks": 96,
            "midi": 74,
            "name": "D5",
            "ticks": 320736,
            "time": 143.185237,
            "velocity": 0.4251968503937008
          },
          {
            "duration": 0.042856999999997925,
            "durationTicks": 96,
            "midi": 72,
            "name": "C5",
            "ticks": 320832,
            "time": 143.228094,
            "velocity": 0.4251968503937008
          },
          {
            "duration": 0.042856999999997925,
            "durationTicks": 96,
            "midi": 72,
            "name": "C5",
            "ticks": 320928,
            "time": 143.270951,
            "velocity": 0.4251968503937008
          },
          {
            "duration": 0.042856999999997925,
            "durationTicks": 96,
            "midi": 71,
            "name": "B4",
            "ticks": 321024,
            "time": 143.313808,
            "velocity": 0.4251968503937008
          },
          {
            "duration": 0.042856999999997925,
            "durationTicks": 96,
            "midi": 71,
            "name": "B4",
            "ticks": 321120,
            "time": 143.356665,
            "velocity": 0.4251968503937008
          },
          {
            "duration": 0.042856999999997925,
            "durationTicks": 96,
            "midi": 69,
            "name": "A4",
            "ticks": 321216,
            "time": 143.399522,
            "velocity": 0.4251968503937008
          },
          {
            "duration": 0.042856999999997925,
            "durationTicks": 96,
            "midi": 69,
            "name": "A4",
            "ticks": 321312,
            "time": 143.442379,
            "velocity": 0.4251968503937008
          },
          {
            "duration": 0.042856999999997925,
            "durationTicks": 96,
            "midi": 71,
            "name": "B4",
            "ticks": 321408,
            "time": 143.485236,
            "velocity": 0.4251968503937008
          },
          {
            "duration": 0.042857000000026346,
            "durationTicks": 96,
            "midi": 71,
            "name": "B4",
            "ticks": 321504,
            "time": 143.52809299999998,
            "velocity": 0.4251968503937008
          },
          {
            "duration": 0.042856999999997925,
            "durationTicks": 96,
            "midi": 69,
            "name": "A4",
            "ticks": 321600,
            "time": 143.57095,
            "velocity": 0.4251968503937008
          },
          {
            "duration": 0.042856999999997925,
            "durationTicks": 96,
            "midi": 69,
            "name": "A4",
            "ticks": 321696,
            "time": 143.613807,
            "velocity": 0.4251968503937008
          },
          {
            "duration": 0.042856999999997925,
            "durationTicks": 96,
            "midi": 68,
            "name": "G#4",
            "ticks": 321792,
            "time": 143.656664,
            "velocity": 0.4251968503937008
          },
          {
            "duration": 0.042856999999997925,
            "durationTicks": 96,
            "midi": 68,
            "name": "G#4",
            "ticks": 321888,
            "time": 143.699521,
            "velocity": 0.4251968503937008
          },
          {
            "duration": 0.042856999999997925,
            "durationTicks": 96,
            "midi": 69,
            "name": "A4",
            "ticks": 321984,
            "time": 143.742378,
            "velocity": 0.4251968503937008
          },
          {
            "duration": 0.042856999999997925,
            "durationTicks": 96,
            "midi": 69,
            "name": "A4",
            "ticks": 322080,
            "time": 143.785235,
            "velocity": 0.4251968503937008
          },
          {
            "duration": 0.042856999999997925,
            "durationTicks": 96,
            "midi": 71,
            "name": "B4",
            "ticks": 322176,
            "time": 143.828092,
            "velocity": 0.4251968503937008
          },
          {
            "duration": 0.042856999999997925,
            "durationTicks": 96,
            "midi": 71,
            "name": "B4",
            "ticks": 322272,
            "time": 143.870949,
            "velocity": 0.4251968503937008
          },
          {
            "duration": 0.042856999999997925,
            "durationTicks": 96,
            "midi": 72,
            "name": "C5",
            "ticks": 322368,
            "time": 143.913806,
            "velocity": 0.4251968503937008
          },
          {
            "duration": 0.042856999999997925,
            "durationTicks": 96,
            "midi": 72,
            "name": "C5",
            "ticks": 322464,
            "time": 143.956663,
            "velocity": 0.4251968503937008
          },
          {
            "duration": 0.042856999999997925,
            "durationTicks": 96,
            "midi": 76,
            "name": "E5",
            "ticks": 322560,
            "time": 143.99952,
            "velocity": 0.4251968503937008
          },
          {
            "duration": 0.042856999999997925,
            "durationTicks": 96,
            "midi": 76,
            "name": "E5",
            "ticks": 322656,
            "time": 144.042377,
            "velocity": 0.4251968503937008
          },
          {
            "duration": 0.042856999999997925,
            "durationTicks": 96,
            "midi": 81,
            "name": "A5",
            "ticks": 322752,
            "time": 144.08523399999999,
            "velocity": 0.4251968503937008
          },
          {
            "duration": 0.042857000000026346,
            "durationTicks": 96,
            "midi": 81,
            "name": "A5",
            "ticks": 322848,
            "time": 144.12809099999998,
            "velocity": 0.4251968503937008
          }
        ],
        "endOfTrackTicks": 322944
      },
      {
        "channel": 10,
        "controlChanges": {},
        "pitchBends": [],
        "instrument": {
          "family": "strings",
          "number": 42,
          "name": "cello"
        },
        "name": "Cello",
        "notes": [
          {
            "duration": 0.0428569999999997,
            "durationTicks": 96,
            "midi": 45,
            "name": "A2",
            "ticks": 4800,
            "time": 2.14285,
            "velocity": 0.3937007874015748
          },
          {
            "duration": 0.0428569999999997,
            "durationTicks": 96,
            "midi": 48,
            "name": "C3",
            "ticks": 4800,
            "time": 2.14285,
            "velocity": 0.3937007874015748
          },
          {
            "duration": 0.0428569999999997,
            "durationTicks": 96,
            "midi": 52,
            "name": "E3",
            "ticks": 4800,
            "time": 2.14285,
            "velocity": 0.3937007874015748
          },
          {
            "duration": 0.042857000000000145,
            "durationTicks": 96,
            "midi": 45,
            "name": "A2",
            "ticks": 6336,
            "time": 2.828562,
            "velocity": 0.3937007874015748
          },
          {
            "duration": 0.042857000000000145,
            "durationTicks": 96,
            "midi": 50,
            "name": "D3",
            "ticks": 6336,
            "time": 2.828562,
            "velocity": 0.3937007874015748
          },
          {
            "duration": 0.042857000000000145,
            "durationTicks": 96,
            "midi": 53,
            "name": "F3",
            "ticks": 6336,
            "time": 2.828562,
            "velocity": 0.3937007874015748
          },
          {
            "duration": 0.042857000000000145,
            "durationTicks": 96,
            "midi": 44,
            "name": "G#2",
            "ticks": 7872,
            "time": 3.514274,
            "velocity": 0.3937007874015748
          },
          {
            "duration": 0.042857000000000145,
            "durationTicks": 96,
            "midi": 47,
            "name": "B2",
            "ticks": 7872,
            "time": 3.514274,
            "velocity": 0.3937007874015748
          },
          {
            "duration": 0.042857000000000145,
            "durationTicks": 96,
            "midi": 52,
            "name": "E3",
            "ticks": 7872,
            "time": 3.514274,
            "velocity": 0.3937007874015748
          },
          {
            "duration": 0.04285700000000059,
            "durationTicks": 96,
            "midi": 45,
            "name": "A2",
            "ticks": 10944,
            "time": 4.885698,
            "velocity": 0.3937007874015748
          },
          {
            "duration": 0.04285700000000059,
            "durationTicks": 96,
            "midi": 49,
            "name": "C#3",
            "ticks": 10944,
            "time": 4.885698,
            "velocity": 0.3937007874015748
          },
          {
            "duration": 0.04285700000000059,
            "durationTicks": 96,
            "midi": 52,
            "name": "E3",
            "ticks": 10944,
            "time": 4.885698,
            "velocity": 0.3937007874015748
          },
          {
            "duration": 0.0428569999999997,
            "durationTicks": 96,
            "midi": 52,
            "name": "E3",
            "ticks": 12480,
            "time": 5.57141,
            "velocity": 0.3937007874015748
          },
          {
            "duration": 0.0428569999999997,
            "durationTicks": 96,
            "midi": 55,
            "name": "G3",
            "ticks": 12480,
            "time": 5.57141,
            "velocity": 0.3937007874015748
          },
          {
            "duration": 0.0428569999999997,
            "durationTicks": 96,
            "midi": 49,
            "name": "C#3",
            "ticks": 12480,
            "time": 5.57141,
            "velocity": 0.3937007874015748
          },
          {
            "duration": 0.0428569999999997,
            "durationTicks": 96,
            "midi": 50,
            "name": "D3",
            "ticks": 14016,
            "time": 6.257122,
            "velocity": 0.3937007874015748
          },
          {
            "duration": 0.0428569999999997,
            "durationTicks": 96,
            "midi": 57,
            "name": "A3",
            "ticks": 14016,
            "time": 6.257122,
            "velocity": 0.3937007874015748
          },
          {
            "duration": 0.0428569999999997,
            "durationTicks": 96,
            "midi": 53,
            "name": "F3",
            "ticks": 14016,
            "time": 6.257122,
            "velocity": 0.3937007874015748
          },
          {
            "duration": 0.0428569999999997,
            "durationTicks": 96,
            "midi": 50,
            "name": "D3",
            "ticks": 17088,
            "time": 7.628546,
            "velocity": 0.3937007874015748
          },
          {
            "duration": 0.0428569999999997,
            "durationTicks": 96,
            "midi": 53,
            "name": "F3",
            "ticks": 17088,
            "time": 7.628546,
            "velocity": 0.3937007874015748
          },
          {
            "duration": 0.0428569999999997,
            "durationTicks": 96,
            "midi": 47,
            "name": "B2",
            "ticks": 17088,
            "time": 7.628546,
            "velocity": 0.3937007874015748
          },
          {
            "duration": 0.0428569999999997,
            "durationTicks": 96,
            "midi": 52,
            "name": "E3",
            "ticks": 18624,
            "time": 8.314258,
            "velocity": 0.3937007874015748
          },
          {
            "duration": 0.0428569999999997,
            "durationTicks": 96,
            "midi": 47,
            "name": "B2",
            "ticks": 18624,
            "time": 8.314258,
            "velocity": 0.3937007874015748
          },
          {
            "duration": 0.0428569999999997,
            "durationTicks": 96,
            "midi": 44,
            "name": "G#2",
            "ticks": 18624,
            "time": 8.314258,
            "velocity": 0.3937007874015748
          },
          {
            "duration": 0.0428569999999997,
            "durationTicks": 96,
            "midi": 52,
            "name": "E3",
            "ticks": 20160,
            "time": 8.99997,
            "velocity": 0.3937007874015748
          },
          {
            "duration": 0.0428569999999997,
            "durationTicks": 96,
            "midi": 48,
            "name": "C3",
            "ticks": 20160,
            "time": 8.99997,
            "velocity": 0.3937007874015748
          },
          {
            "duration": 0.0428569999999997,
            "durationTicks": 96,
            "midi": 45,
            "name": "A2",
            "ticks": 20160,
            "time": 8.99997,
            "velocity": 0.3937007874015748
          },
          {
            "duration": 0.0428569999999997,
            "durationTicks": 96,
            "midi": 43,
            "name": "G2",
            "ticks": 20928,
            "time": 9.342826,
            "velocity": 0.3937007874015748
          },
          {
            "duration": 0.0428569999999997,
            "durationTicks": 96,
            "midi": 50,
            "name": "D3",
            "ticks": 20928,
            "time": 9.342826,
            "velocity": 0.3937007874015748
          },
          {
            "duration": 0.0428569999999997,
            "durationTicks": 96,
            "midi": 47,
            "name": "B2",
            "ticks": 20928,
            "time": 9.342826,
            "velocity": 0.3937007874015748
          },
          {
            "duration": 0.0428569999999997,
            "durationTicks": 96,
            "midi": 45,
            "name": "A2",
            "ticks": 21696,
            "time": 9.685682,
            "velocity": 0.3937007874015748
          },
          {
            "duration": 0.0428569999999997,
            "durationTicks": 96,
            "midi": 42,
            "name": "F#2",
            "ticks": 21696,
            "time": 9.685682,
            "velocity": 0.3937007874015748
          },
          {
            "duration": 0.0428569999999997,
            "durationTicks": 96,
            "midi": 48,
            "name": "C3",
            "ticks": 21696,
            "time": 9.685682,
            "velocity": 0.3937007874015748
          },
          {
            "duration": 0.0428569999999997,
            "durationTicks": 96,
            "midi": 53,
            "name": "F3",
            "ticks": 23232,
            "time": 10.371394,
            "velocity": 0.3937007874015748
          },
          {
            "duration": 0.0428569999999997,
            "durationTicks": 96,
            "midi": 47,
            "name": "B2",
            "ticks": 23232,
            "time": 10.371394,
            "velocity": 0.3937007874015748
          },
          {
            "duration": 0.0428569999999997,
            "durationTicks": 96,
            "midi": 50,
            "name": "D3",
            "ticks": 23232,
            "time": 10.371394,
            "velocity": 0.3937007874015748
          },
          {
            "duration": 0.04285700000000148,
            "durationTicks": 96,
            "midi": 48,
            "name": "C3",
            "ticks": 24768,
            "time": 11.057106,
            "velocity": 0.3937007874015748
          },
          {
            "duration": 0.04285700000000148,
            "durationTicks": 96,
            "midi": 45,
            "name": "A2",
            "ticks": 24768,
            "time": 11.057106,
            "velocity": 0.3937007874015748
          },
          {
            "duration": 0.04285700000000148,
            "durationTicks": 96,
            "midi": 41,
            "name": "F2",
            "ticks": 24768,
            "time": 11.057106,
            "velocity": 0.3937007874015748
          },
          {
            "duration": 0.04285700000000148,
            "durationTicks": 96,
            "midi": 44,
            "name": "G#2",
            "ticks": 27072,
            "time": 12.085674,
            "velocity": 0.3937007874015748
          },
          {
            "duration": 0.04285700000000148,
            "durationTicks": 96,
            "midi": 40,
            "name": "E2",
            "ticks": 27072,
            "time": 12.085674,
            "velocity": 0.3937007874015748
          },
          {
            "duration": 0.04285700000000148,
            "durationTicks": 96,
            "midi": 47,
            "name": "B2",
            "ticks": 27072,
            "time": 12.085674,
            "velocity": 0.3937007874015748
          },
          {
            "duration": 0.04285700000000148,
            "durationTicks": 96,
            "midi": 52,
            "name": "E3",
            "ticks": 29376,
            "time": 13.114241999999999,
            "velocity": 0.3937007874015748
          },
          {
            "duration": 0.04285700000000148,
            "durationTicks": 96,
            "midi": 45,
            "name": "A2",
            "ticks": 29376,
            "time": 13.114241999999999,
            "velocity": 0.3937007874015748
          },
          {
            "duration": 0.04285700000000148,
            "durationTicks": 96,
            "midi": 48,
            "name": "C3",
            "ticks": 29376,
            "time": 13.114241999999999,
            "velocity": 0.3937007874015748
          },
          {
            "duration": 0.0428569999999997,
            "durationTicks": 96,
            "midi": 45,
            "name": "A2",
            "ticks": 30912,
            "time": 13.799954,
            "velocity": 0.3937007874015748
          },
          {
            "duration": 0.0428569999999997,
            "durationTicks": 96,
            "midi": 50,
            "name": "D3",
            "ticks": 30912,
            "time": 13.799954,
            "velocity": 0.3937007874015748
          },
          {
            "duration": 0.0428569999999997,
            "durationTicks": 96,
            "midi": 53,
            "name": "F3",
            "ticks": 30912,
            "time": 13.799954,
            "velocity": 0.3937007874015748
          },
          {
            "duration": 0.0428569999999997,
            "durationTicks": 96,
            "midi": 52,
            "name": "E3",
            "ticks": 32448,
            "time": 14.485666,
            "velocity": 0.3937007874015748
          },
          {
            "duration": 0.0428569999999997,
            "durationTicks": 96,
            "midi": 47,
            "name": "B2",
            "ticks": 32448,
            "time": 14.485666,
            "velocity": 0.3937007874015748
          },
          {
            "duration": 0.0428569999999997,
            "durationTicks": 96,
            "midi": 44,
            "name": "G#2",
            "ticks": 32448,
            "time": 14.485666,
            "velocity": 0.3937007874015748
          },
          {
            "duration": 0.0428569999999997,
            "durationTicks": 96,
            "midi": 45,
            "name": "A2",
            "ticks": 35520,
            "time": 15.85709,
            "velocity": 0.3937007874015748
          },
          {
            "duration": 0.0428569999999997,
            "durationTicks": 96,
            "midi": 49,
            "name": "C#3",
            "ticks": 35520,
            "time": 15.85709,
            "velocity": 0.3937007874015748
          },
          {
            "duration": 0.0428569999999997,
            "durationTicks": 96,
            "midi": 52,
            "name": "E3",
            "ticks": 35520,
            "time": 15.85709,
            "velocity": 0.3937007874015748
          },
          {
            "duration": 0.04285700000000148,
            "durationTicks": 96,
            "midi": 55,
            "name": "G3",
            "ticks": 37056,
            "time": 16.542802,
            "velocity": 0.3937007874015748
          },
          {
            "duration": 0.04285700000000148,
            "durationTicks": 96,
            "midi": 49,
            "name": "C#3",
            "ticks": 37056,
            "time": 16.542802,
            "velocity": 0.3937007874015748
          },
          {
            "duration": 0.04285700000000148,
            "durationTicks": 96,
            "midi": 52,
            "name": "E3",
            "ticks": 37056,
            "time": 16.542802,
            "velocity": 0.3937007874015748
          },
          {
            "duration": 0.042856999999997925,
            "durationTicks": 96,
            "midi": 50,
            "name": "D3",
            "ticks": 38592,
            "time": 17.228514,
            "velocity": 0.3937007874015748
          },
          {
            "duration": 0.042856999999997925,
            "durationTicks": 96,
            "midi": 53,
            "name": "F3",
            "ticks": 38592,
            "time": 17.228514,
            "velocity": 0.3937007874015748
          },
          {
            "duration": 0.042856999999997925,
            "durationTicks": 96,
            "midi": 57,
            "name": "A3",
            "ticks": 38592,
            "time": 17.228514,
            "velocity": 0.3937007874015748
          },
          {
            "duration": 0.04285700000000148,
            "durationTicks": 96,
            "midi": 47,
            "name": "B2",
            "ticks": 41664,
            "time": 18.599937999999998,
            "velocity": 0.3937007874015748
          },
          {
            "duration": 0.04285700000000148,
            "durationTicks": 96,
            "midi": 50,
            "name": "D3",
            "ticks": 41664,
            "time": 18.599937999999998,
            "velocity": 0.3937007874015748
          },
          {
            "duration": 0.04285700000000148,
            "durationTicks": 96,
            "midi": 53,
            "name": "F3",
            "ticks": 41664,
            "time": 18.599937999999998,
            "velocity": 0.3937007874015748
          },
          {
            "duration": 0.042856999999997925,
            "durationTicks": 96,
            "midi": 52,
            "name": "E3",
            "ticks": 43200,
            "time": 19.28565,
            "velocity": 0.3937007874015748
          },
          {
            "duration": 0.042856999999997925,
            "durationTicks": 96,
            "midi": 44,
            "name": "G#2",
            "ticks": 43200,
            "time": 19.28565,
            "velocity": 0.3937007874015748
          },
          {
            "duration": 0.042856999999997925,
            "durationTicks": 96,
            "midi": 47,
            "name": "B2",
            "ticks": 43200,
            "time": 19.28565,
            "velocity": 0.3937007874015748
          },
          {
            "duration": 0.04285700000000148,
            "durationTicks": 96,
            "midi": 45,
            "name": "A2",
            "ticks": 44736,
            "time": 19.971362,
            "velocity": 0.3937007874015748
          },
          {
            "duration": 0.04285700000000148,
            "durationTicks": 96,
            "midi": 48,
            "name": "C3",
            "ticks": 44736,
            "time": 19.971362,
            "velocity": 0.3937007874015748
          },
          {
            "duration": 0.04285700000000148,
            "durationTicks": 96,
            "midi": 52,
            "name": "E3",
            "ticks": 44736,
            "time": 19.971362,
            "velocity": 0.3937007874015748
          },
          {
            "duration": 0.042856999999997925,
            "durationTicks": 96,
            "midi": 50,
            "name": "D3",
            "ticks": 45504,
            "time": 20.314218,
            "velocity": 0.3937007874015748
          },
          {
            "duration": 0.042856999999997925,
            "durationTicks": 96,
            "midi": 47,
            "name": "B2",
            "ticks": 45504,
            "time": 20.314218,
            "velocity": 0.3937007874015748
          },
          {
            "duration": 0.042856999999997925,
            "durationTicks": 96,
            "midi": 43,
            "name": "G2",
            "ticks": 45504,
            "time": 20.314218,
            "velocity": 0.3937007874015748
          },
          {
            "duration": 0.04285700000000148,
            "durationTicks": 96,
            "midi": 42,
            "name": "F#2",
            "ticks": 46272,
            "time": 20.657073999999998,
            "velocity": 0.3937007874015748
          },
          {
            "duration": 0.04285700000000148,
            "durationTicks": 96,
            "midi": 45,
            "name": "A2",
            "ticks": 46272,
            "time": 20.657073999999998,
            "velocity": 0.3937007874015748
          },
          {
            "duration": 0.04285700000000148,
            "durationTicks": 96,
            "midi": 48,
            "name": "C3",
            "ticks": 46272,
            "time": 20.657073999999998,
            "velocity": 0.3937007874015748
          },
          {
            "duration": 0.042856999999997925,
            "durationTicks": 96,
            "midi": 45,
            "name": "A2",
            "ticks": 47808,
            "time": 21.342786,
            "velocity": 0.3937007874015748
          },
          {
            "duration": 0.042856999999997925,
            "durationTicks": 96,
            "midi": 50,
            "name": "D3",
            "ticks": 47808,
            "time": 21.342786,
            "velocity": 0.3937007874015748
          },
          {
            "duration": 0.042856999999997925,
            "durationTicks": 96,
            "midi": 41,
            "name": "F2",
            "ticks": 47808,
            "time": 21.342786,
            "velocity": 0.3937007874015748
          },
          {
            "duration": 0.04285700000000148,
            "durationTicks": 96,
            "midi": 52,
            "name": "E3",
            "ticks": 49344,
            "time": 22.028498,
            "velocity": 0.3937007874015748
          },
          {
            "duration": 0.04285700000000148,
            "durationTicks": 96,
            "midi": 47,
            "name": "B2",
            "ticks": 49344,
            "time": 22.028498,
            "velocity": 0.3937007874015748
          },
          {
            "duration": 0.04285700000000148,
            "durationTicks": 96,
            "midi": 40,
            "name": "E2",
            "ticks": 49344,
            "time": 22.028498,
            "velocity": 0.3937007874015748
          },
          {
            "duration": 0.04285700000000148,
            "durationTicks": 96,
            "midi": 44,
            "name": "G#2",
            "ticks": 49344,
            "time": 22.028498,
            "velocity": 0.3937007874015748
          },
          {
            "duration": 0.042856999999997925,
            "durationTicks": 96,
            "midi": 45,
            "name": "A2",
            "ticks": 50880,
            "time": 22.71421,
            "velocity": 0.3937007874015748
          },
          {
            "duration": 0.042856999999997925,
            "durationTicks": 96,
            "midi": 52,
            "name": "E3",
            "ticks": 50880,
            "time": 22.71421,
            "velocity": 0.3937007874015748
          },
          {
            "duration": 0.042856999999997925,
            "durationTicks": 96,
            "midi": 57,
            "name": "A3",
            "ticks": 50880,
            "time": 22.71421,
            "velocity": 0.3937007874015748
          },
          {
            "duration": 0.042856999999997925,
            "durationTicks": 96,
            "midi": 48,
            "name": "C3",
            "ticks": 50880,
            "time": 22.71421,
            "velocity": 0.3937007874015748
          },
          {
            "duration": 0.042856999999997925,
            "durationTicks": 96,
            "midi": 52,
            "name": "E3",
            "ticks": 100800,
            "time": 44.99985,
            "velocity": 0.3937007874015748
          },
          {
            "duration": 0.042856999999997925,
            "durationTicks": 96,
            "midi": 52,
            "name": "E3",
            "ticks": 100800,
            "time": 44.99985,
            "velocity": 0.3937007874015748
          },
          {
            "duration": 0.042856999999997925,
            "durationTicks": 96,
            "midi": 64,
            "name": "E4",
            "ticks": 100800,
            "time": 44.99985,
            "velocity": 0.3937007874015748
          },
          {
            "duration": 0.042856999999997925,
            "durationTicks": 96,
            "midi": 60,
            "name": "C4",
            "ticks": 100800,
            "time": 44.99985,
            "velocity": 0.3937007874015748
          },
          {
            "duration": 0.042856999999997925,
            "durationTicks": 96,
            "midi": 64,
            "name": "E4",
            "ticks": 100800,
            "time": 44.99985,
            "velocity": 0.3937007874015748
          },
          {
            "duration": 0.042856999999997925,
            "durationTicks": 96,
            "midi": 57,
            "name": "A3",
            "ticks": 100800,
            "time": 44.99985,
            "velocity": 0.3937007874015748
          },
          {
            "duration": 0.042856999999997925,
            "durationTicks": 96,
            "midi": 60,
            "name": "C4",
            "ticks": 100800,
            "time": 44.99985,
            "velocity": 0.3937007874015748
          },
          {
            "duration": 0.042856999999997925,
            "durationTicks": 96,
            "midi": 57,
            "name": "A3",
            "ticks": 100800,
            "time": 44.99985,
            "velocity": 0.3937007874015748
          },
          {
            "duration": 0.042856999999997925,
            "durationTicks": 96,
            "midi": 60,
            "name": "C4",
            "ticks": 101568,
            "time": 45.342706,
            "velocity": 0.3937007874015748
          },
          {
            "duration": 0.042856999999997925,
            "durationTicks": 96,
            "midi": 45,
            "name": "A2",
            "ticks": 101568,
            "time": 45.342706,
            "velocity": 0.3937007874015748
          },
          {
            "duration": 0.042856999999997925,
            "durationTicks": 96,
            "midi": 45,
            "name": "A2",
            "ticks": 101568,
            "time": 45.342706,
            "velocity": 0.3937007874015748
          },
          {
            "duration": 0.042856999999997925,
            "durationTicks": 96,
            "midi": 52,
            "name": "E3",
            "ticks": 101568,
            "time": 45.342706,
            "velocity": 0.3937007874015748
          },
          {
            "duration": 0.042856999999997925,
            "durationTicks": 96,
            "midi": 69,
            "name": "A4",
            "ticks": 101568,
            "time": 45.342706,
            "velocity": 0.3937007874015748
          },
          {
            "duration": 0.042856999999997925,
            "durationTicks": 96,
            "midi": 69,
            "name": "A4",
            "ticks": 101568,
            "time": 45.342706,
            "velocity": 0.3937007874015748
          },
          {
            "duration": 0.042856999999997925,
            "durationTicks": 96,
            "midi": 52,
            "name": "E3",
            "ticks": 101568,
            "time": 45.342706,
            "velocity": 0.3937007874015748
          },
          {
            "duration": 0.042856999999997925,
            "durationTicks": 96,
            "midi": 60,
            "name": "C4",
            "ticks": 101568,
            "time": 45.342706,
            "velocity": 0.3937007874015748
          },
          {
            "duration": 0.042856999999997925,
            "durationTicks": 96,
            "midi": 45,
            "name": "A2",
            "ticks": 110040,
            "time": 49.12483625,
            "velocity": 0.3937007874015748
          },
          {
            "duration": 0.042856999999997925,
            "durationTicks": 96,
            "midi": 33,
            "name": "A1",
            "ticks": 110040,
            "time": 49.12483625,
            "velocity": 0.3937007874015748
          },
          {
            "duration": 0.042856999999997925,
            "durationTicks": 96,
            "midi": 45,
            "name": "A2",
            "ticks": 110088,
            "time": 49.14626475,
            "velocity": 0.3937007874015748
          },
          {
            "duration": 0.042856999999997925,
            "durationTicks": 96,
            "midi": 33,
            "name": "A1",
            "ticks": 110088,
            "time": 49.14626475,
            "velocity": 0.3937007874015748
          },
          {
            "duration": 0.042856999999997925,
            "durationTicks": 96,
            "midi": 45,
            "name": "A2",
            "ticks": 110088,
            "time": 49.14626475,
            "velocity": 0.3937007874015748
          },
          {
            "duration": 0.042856999999997925,
            "durationTicks": 96,
            "midi": 33,
            "name": "A1",
            "ticks": 110088,
            "time": 49.14626475,
            "velocity": 0.3937007874015748
          },
          {
            "duration": 0.042856999999997925,
            "durationTicks": 96,
            "midi": 45,
            "name": "A2",
            "ticks": 110424,
            "time": 49.29626425,
            "velocity": 0.3937007874015748
          },
          {
            "duration": 0.042856999999997925,
            "durationTicks": 96,
            "midi": 33,
            "name": "A1",
            "ticks": 110424,
            "time": 49.29626425,
            "velocity": 0.3937007874015748
          },
          {
            "duration": 0.042856999999997925,
            "durationTicks": 96,
            "midi": 33,
            "name": "A1",
            "ticks": 110472,
            "time": 49.31769275,
            "velocity": 0.3937007874015748
          },
          {
            "duration": 0.042856999999997925,
            "durationTicks": 96,
            "midi": 45,
            "name": "A2",
            "ticks": 110472,
            "time": 49.31769275,
            "velocity": 0.3937007874015748
          },
          {
            "duration": 0.042856999999997925,
            "durationTicks": 96,
            "midi": 33,
            "name": "A1",
            "ticks": 110472,
            "time": 49.31769275,
            "velocity": 0.3937007874015748
          },
          {
            "duration": 0.042856999999997925,
            "durationTicks": 96,
            "midi": 45,
            "name": "A2",
            "ticks": 110472,
            "time": 49.31769275,
            "velocity": 0.3937007874015748
          },
          {
            "duration": 0.042856999999997925,
            "durationTicks": 96,
            "midi": 45,
            "name": "A2",
            "ticks": 110808,
            "time": 49.46769225,
            "velocity": 0.3937007874015748
          },
          {
            "duration": 0.042856999999997925,
            "durationTicks": 96,
            "midi": 33,
            "name": "A1",
            "ticks": 110808,
            "time": 49.46769225,
            "velocity": 0.3937007874015748
          },
          {
            "duration": 0.042856999999997925,
            "durationTicks": 96,
            "midi": 33,
            "name": "A1",
            "ticks": 110856,
            "time": 49.48912075,
            "velocity": 0.3937007874015748
          },
          {
            "duration": 0.042856999999997925,
            "durationTicks": 96,
            "midi": 45,
            "name": "A2",
            "ticks": 110856,
            "time": 49.48912075,
            "velocity": 0.3937007874015748
          },
          {
            "duration": 0.042856999999997925,
            "durationTicks": 96,
            "midi": 33,
            "name": "A1",
            "ticks": 110856,
            "time": 49.48912075,
            "velocity": 0.3937007874015748
          },
          {
            "duration": 0.042856999999997925,
            "durationTicks": 96,
            "midi": 45,
            "name": "A2",
            "ticks": 110856,
            "time": 49.48912075,
            "velocity": 0.3937007874015748
          },
          {
            "duration": 0.042856999999997925,
            "durationTicks": 96,
            "midi": 33,
            "name": "A1",
            "ticks": 111192,
            "time": 49.63912025,
            "velocity": 0.3937007874015748
          },
          {
            "duration": 0.042856999999997925,
            "durationTicks": 96,
            "midi": 45,
            "name": "A2",
            "ticks": 111192,
            "time": 49.63912025,
            "velocity": 0.3937007874015748
          },
          {
            "duration": 0.04285700000000503,
            "durationTicks": 96,
            "midi": 45,
            "name": "A2",
            "ticks": 111240,
            "time": 49.66054875,
            "velocity": 0.3937007874015748
          },
          {
            "duration": 0.04285700000000503,
            "durationTicks": 96,
            "midi": 45,
            "name": "A2",
            "ticks": 111240,
            "time": 49.66054875,
            "velocity": 0.3937007874015748
          },
          {
            "duration": 0.04285700000000503,
            "durationTicks": 96,
            "midi": 33,
            "name": "A1",
            "ticks": 111240,
            "time": 49.66054875,
            "velocity": 0.3937007874015748
          },
          {
            "duration": 0.04285700000000503,
            "durationTicks": 96,
            "midi": 33,
            "name": "A1",
            "ticks": 111240,
            "time": 49.66054875,
            "velocity": 0.3937007874015748
          },
          {
            "duration": 0.04285700000000503,
            "durationTicks": 96,
            "midi": 45,
            "name": "A2",
            "ticks": 111576,
            "time": 49.81054825,
            "velocity": 0.3937007874015748
          },
          {
            "duration": 0.04285700000000503,
            "durationTicks": 96,
            "midi": 33,
            "name": "A1",
            "ticks": 111576,
            "time": 49.81054825,
            "velocity": 0.3937007874015748
          },
          {
            "duration": 0.042856999999997925,
            "durationTicks": 96,
            "midi": 45,
            "name": "A2",
            "ticks": 111624,
            "time": 49.83197675,
            "velocity": 0.3937007874015748
          },
          {
            "duration": 0.042856999999997925,
            "durationTicks": 96,
            "midi": 45,
            "name": "A2",
            "ticks": 111624,
            "time": 49.83197675,
            "velocity": 0.3937007874015748
          },
          {
            "duration": 0.042856999999997925,
            "durationTicks": 96,
            "midi": 33,
            "name": "A1",
            "ticks": 111624,
            "time": 49.83197675,
            "velocity": 0.3937007874015748
          },
          {
            "duration": 0.042856999999997925,
            "durationTicks": 96,
            "midi": 33,
            "name": "A1",
            "ticks": 111624,
            "time": 49.83197675,
            "velocity": 0.3937007874015748
          },
          {
            "duration": 0.042856999999997925,
            "durationTicks": 96,
            "midi": 33,
            "name": "A1",
            "ticks": 111960,
            "time": 49.98197625,
            "velocity": 0.3937007874015748
          },
          {
            "duration": 0.042856999999997925,
            "durationTicks": 96,
            "midi": 45,
            "name": "A2",
            "ticks": 111960,
            "time": 49.98197625,
            "velocity": 0.3937007874015748
          },
          {
            "duration": 0.042856999999997925,
            "durationTicks": 96,
            "midi": 33,
            "name": "A1",
            "ticks": 112008,
            "time": 50.00340475,
            "velocity": 0.3937007874015748
          },
          {
            "duration": 0.042856999999997925,
            "durationTicks": 96,
            "midi": 33,
            "name": "A1",
            "ticks": 112008,
            "time": 50.00340475,
            "velocity": 0.3937007874015748
          },
          {
            "duration": 0.042856999999997925,
            "durationTicks": 96,
            "midi": 45,
            "name": "A2",
            "ticks": 112008,
            "time": 50.00340475,
            "velocity": 0.3937007874015748
          },
          {
            "duration": 0.042856999999997925,
            "durationTicks": 96,
            "midi": 45,
            "name": "A2",
            "ticks": 112008,
            "time": 50.00340475,
            "velocity": 0.3937007874015748
          },
          {
            "duration": 0.042856999999997925,
            "durationTicks": 96,
            "midi": 33,
            "name": "A1",
            "ticks": 122328,
            "time": 54.61053225,
            "velocity": 0.3937007874015748
          },
          {
            "duration": 0.042856999999997925,
            "durationTicks": 96,
            "midi": 45,
            "name": "A2",
            "ticks": 122328,
            "time": 54.61053225,
            "velocity": 0.3937007874015748
          },
          {
            "duration": 0.04285700000000503,
            "durationTicks": 96,
            "midi": 33,
            "name": "A1",
            "ticks": 122376,
            "time": 54.63196075,
            "velocity": 0.3937007874015748
          },
          {
            "duration": 0.04285700000000503,
            "durationTicks": 96,
            "midi": 33,
            "name": "A1",
            "ticks": 122376,
            "time": 54.63196075,
            "velocity": 0.3937007874015748
          },
          {
            "duration": 0.04285700000000503,
            "durationTicks": 96,
            "midi": 45,
            "name": "A2",
            "ticks": 122376,
            "time": 54.63196075,
            "velocity": 0.3937007874015748
          },
          {
            "duration": 0.04285700000000503,
            "durationTicks": 96,
            "midi": 45,
            "name": "A2",
            "ticks": 122376,
            "time": 54.63196075,
            "velocity": 0.3937007874015748
          },
          {
            "duration": 0.042856999999997925,
            "durationTicks": 96,
            "midi": 45,
            "name": "A2",
            "ticks": 122520,
            "time": 54.69624625,
            "velocity": 0.3937007874015748
          },
          {
            "duration": 0.042856999999997925,
            "durationTicks": 96,
            "midi": 33,
            "name": "A1",
            "ticks": 122520,
            "time": 54.69624625,
            "velocity": 0.3937007874015748
          },
          {
            "duration": 0.042856999999997925,
            "durationTicks": 96,
            "midi": 45,
            "name": "A2",
            "ticks": 122568,
            "time": 54.71767475,
            "velocity": 0.3937007874015748
          },
          {
            "duration": 0.042856999999997925,
            "durationTicks": 96,
            "midi": 45,
            "name": "A2",
            "ticks": 122568,
            "time": 54.71767475,
            "velocity": 0.3937007874015748
          },
          {
            "duration": 0.042856999999997925,
            "durationTicks": 96,
            "midi": 33,
            "name": "A1",
            "ticks": 122568,
            "time": 54.71767475,
            "velocity": 0.3937007874015748
          },
          {
            "duration": 0.042856999999997925,
            "durationTicks": 96,
            "midi": 33,
            "name": "A1",
            "ticks": 122568,
            "time": 54.71767475,
            "velocity": 0.3937007874015748
          },
          {
            "duration": 0.04285700000000503,
            "durationTicks": 96,
            "midi": 33,
            "name": "A1",
            "ticks": 122712,
            "time": 54.78196025,
            "velocity": 0.3937007874015748
          },
          {
            "duration": 0.04285700000000503,
            "durationTicks": 96,
            "midi": 45,
            "name": "A2",
            "ticks": 122712,
            "time": 54.78196025,
            "velocity": 0.3937007874015748
          },
          {
            "duration": 0.04285700000000503,
            "durationTicks": 96,
            "midi": 33,
            "name": "A1",
            "ticks": 122760,
            "time": 54.803388749999996,
            "velocity": 0.3937007874015748
          },
          {
            "duration": 0.04285700000000503,
            "durationTicks": 96,
            "midi": 33,
            "name": "A1",
            "ticks": 122760,
            "time": 54.803388749999996,
            "velocity": 0.3937007874015748
          },
          {
            "duration": 0.04285700000000503,
            "durationTicks": 96,
            "midi": 45,
            "name": "A2",
            "ticks": 122760,
            "time": 54.803388749999996,
            "velocity": 0.3937007874015748
          },
          {
            "duration": 0.04285700000000503,
            "durationTicks": 96,
            "midi": 45,
            "name": "A2",
            "ticks": 122760,
            "time": 54.803388749999996,
            "velocity": 0.3937007874015748
          },
          {
            "duration": 0.042856999999997925,
            "durationTicks": 96,
            "midi": 45,
            "name": "A2",
            "ticks": 122904,
            "time": 54.86767425,
            "velocity": 0.3937007874015748
          },
          {
            "duration": 0.042856999999997925,
            "durationTicks": 96,
            "midi": 33,
            "name": "A1",
            "ticks": 122904,
            "time": 54.86767425,
            "velocity": 0.3937007874015748
          },
          {
            "duration": 0.042856999999997925,
            "durationTicks": 96,
            "midi": 33,
            "name": "A1",
            "ticks": 122952,
            "time": 54.88910275,
            "velocity": 0.3937007874015748
          },
          {
            "duration": 0.042856999999997925,
            "durationTicks": 96,
            "midi": 45,
            "name": "A2",
            "ticks": 122952,
            "time": 54.88910275,
            "velocity": 0.3937007874015748
          },
          {
            "duration": 0.042856999999997925,
            "durationTicks": 96,
            "midi": 45,
            "name": "A2",
            "ticks": 122952,
            "time": 54.88910275,
            "velocity": 0.3937007874015748
          },
          {
            "duration": 0.042856999999997925,
            "durationTicks": 96,
            "midi": 33,
            "name": "A1",
            "ticks": 122952,
            "time": 54.88910275,
            "velocity": 0.3937007874015748
          },
          {
            "duration": 0.04285700000000503,
            "durationTicks": 96,
            "midi": 45,
            "name": "A2",
            "ticks": 123096,
            "time": 54.953388249999996,
            "velocity": 0.3937007874015748
          },
          {
            "duration": 0.04285700000000503,
            "durationTicks": 96,
            "midi": 33,
            "name": "A1",
            "ticks": 123096,
            "time": 54.953388249999996,
            "velocity": 0.3937007874015748
          },
          {
            "duration": 0.042856999999997925,
            "durationTicks": 96,
            "midi": 45,
            "name": "A2",
            "ticks": 123144,
            "time": 54.97481675,
            "velocity": 0.3937007874015748
          },
          {
            "duration": 0.042856999999997925,
            "durationTicks": 96,
            "midi": 33,
            "name": "A1",
            "ticks": 123144,
            "time": 54.97481675,
            "velocity": 0.3937007874015748
          },
          {
            "duration": 0.042856999999997925,
            "durationTicks": 96,
            "midi": 33,
            "name": "A1",
            "ticks": 123144,
            "time": 54.97481675,
            "velocity": 0.3937007874015748
          },
          {
            "duration": 0.042856999999997925,
            "durationTicks": 96,
            "midi": 45,
            "name": "A2",
            "ticks": 123144,
            "time": 54.97481675,
            "velocity": 0.3937007874015748
          },
          {
            "duration": 0.042856999999997925,
            "durationTicks": 96,
            "midi": 33,
            "name": "A1",
            "ticks": 123480,
            "time": 55.12481625,
            "velocity": 0.3937007874015748
          },
          {
            "duration": 0.042856999999997925,
            "durationTicks": 96,
            "midi": 45,
            "name": "A2",
            "ticks": 123480,
            "time": 55.12481625,
            "velocity": 0.3937007874015748
          },
          {
            "duration": 0.042856999999997925,
            "durationTicks": 96,
            "midi": 45,
            "name": "A2",
            "ticks": 123528,
            "time": 55.14624475,
            "velocity": 0.3937007874015748
          },
          {
            "duration": 0.042856999999997925,
            "durationTicks": 96,
            "midi": 33,
            "name": "A1",
            "ticks": 123528,
            "time": 55.14624475,
            "velocity": 0.3937007874015748
          },
          {
            "duration": 0.042856999999997925,
            "durationTicks": 96,
            "midi": 45,
            "name": "A2",
            "ticks": 123528,
            "time": 55.14624475,
            "velocity": 0.3937007874015748
          },
          {
            "duration": 0.042856999999997925,
            "durationTicks": 96,
            "midi": 33,
            "name": "A1",
            "ticks": 123528,
            "time": 55.14624475,
            "velocity": 0.3937007874015748
          },
          {
            "duration": 0.042856999999997925,
            "durationTicks": 96,
            "midi": 33,
            "name": "A1",
            "ticks": 123864,
            "time": 55.29624425,
            "velocity": 0.3937007874015748
          },
          {
            "duration": 0.042856999999997925,
            "durationTicks": 96,
            "midi": 45,
            "name": "A2",
            "ticks": 123864,
            "time": 55.29624425,
            "velocity": 0.3937007874015748
          },
          {
            "duration": 0.042856999999997925,
            "durationTicks": 96,
            "midi": 45,
            "name": "A2",
            "ticks": 123912,
            "time": 55.31767275,
            "velocity": 0.3937007874015748
          },
          {
            "duration": 0.042856999999997925,
            "durationTicks": 96,
            "midi": 33,
            "name": "A1",
            "ticks": 123912,
            "time": 55.31767275,
            "velocity": 0.3937007874015748
          },
          {
            "duration": 0.042856999999997925,
            "durationTicks": 96,
            "midi": 33,
            "name": "A1",
            "ticks": 123912,
            "time": 55.31767275,
            "velocity": 0.3937007874015748
          },
          {
            "duration": 0.042856999999997925,
            "durationTicks": 96,
            "midi": 45,
            "name": "A2",
            "ticks": 123912,
            "time": 55.31767275,
            "velocity": 0.3937007874015748
          },
          {
            "duration": 0.042856999999997925,
            "durationTicks": 96,
            "midi": 45,
            "name": "A2",
            "ticks": 124248,
            "time": 55.46767225,
            "velocity": 0.3937007874015748
          },
          {
            "duration": 0.042856999999997925,
            "durationTicks": 96,
            "midi": 33,
            "name": "A1",
            "ticks": 124248,
            "time": 55.46767225,
            "velocity": 0.3937007874015748
          },
          {
            "duration": 0.042856999999997925,
            "durationTicks": 96,
            "midi": 33,
            "name": "A1",
            "ticks": 124296,
            "time": 55.48910075,
            "velocity": 0.3937007874015748
          },
          {
            "duration": 0.042856999999997925,
            "durationTicks": 96,
            "midi": 45,
            "name": "A2",
            "ticks": 124296,
            "time": 55.48910075,
            "velocity": 0.3937007874015748
          },
          {
            "duration": 0.042856999999997925,
            "durationTicks": 96,
            "midi": 33,
            "name": "A1",
            "ticks": 124296,
            "time": 55.48910075,
            "velocity": 0.3937007874015748
          },
          {
            "duration": 0.042856999999997925,
            "durationTicks": 96,
            "midi": 45,
            "name": "A2",
            "ticks": 124296,
            "time": 55.48910075,
            "velocity": 0.3937007874015748
          },
          {
            "duration": 0.04285700000000503,
            "durationTicks": 96,
            "midi": 33,
            "name": "A1",
            "ticks": 127680,
            "time": 56.99981,
            "velocity": 0.3937007874015748
          },
          {
            "duration": 0.042856999999997925,
            "durationTicks": 96,
            "midi": 45,
            "name": "A2",
            "ticks": 128064,
            "time": 57.171238,
            "velocity": 0.3937007874015748
          },
          {
            "duration": 0.042856999999997925,
            "durationTicks": 96,
            "midi": 33,
            "name": "A1",
            "ticks": 128448,
            "time": 57.342666,
            "velocity": 0.3937007874015748
          },
          {
            "duration": 0.042856999999997925,
            "durationTicks": 96,
            "midi": 45,
            "name": "A2",
            "ticks": 128832,
            "time": 57.514094,
            "velocity": 0.3937007874015748
          },
          {
            "duration": 0.042856999999997925,
            "durationTicks": 96,
            "midi": 33,
            "name": "A1",
            "ticks": 129216,
            "time": 57.685522,
            "velocity": 0.3937007874015748
          },
          {
            "duration": 0.042856999999997925,
            "durationTicks": 96,
            "midi": 45,
            "name": "A2",
            "ticks": 129600,
            "time": 57.85695,
            "velocity": 0.3937007874015748
          },
          {
            "duration": 0.04285700000000503,
            "durationTicks": 96,
            "midi": 33,
            "name": "A1",
            "ticks": 129984,
            "time": 58.028378,
            "velocity": 0.3937007874015748
          },
          {
            "duration": 0.042856999999997925,
            "durationTicks": 96,
            "midi": 45,
            "name": "A2",
            "ticks": 130368,
            "time": 58.199806,
            "velocity": 0.3937007874015748
          },
          {
            "duration": 0.042856999999997925,
            "durationTicks": 96,
            "midi": 36,
            "name": "C2",
            "ticks": 130752,
            "time": 58.371234,
            "velocity": 0.3937007874015748
          },
          {
            "duration": 0.042856999999997925,
            "durationTicks": 96,
            "midi": 48,
            "name": "C3",
            "ticks": 131136,
            "time": 58.542662,
            "velocity": 0.3937007874015748
          },
          {
            "duration": 0.042856999999997925,
            "durationTicks": 96,
            "midi": 69,
            "name": "A4",
            "ticks": 131136,
            "time": 58.542662,
            "velocity": 0.3937007874015748
          },
          {
            "duration": 0.042856999999997925,
            "durationTicks": 96,
            "midi": 36,
            "name": "C2",
            "ticks": 131520,
            "time": 58.71409,
            "velocity": 0.3937007874015748
          },
          {
            "duration": 0.042856999999997925,
            "durationTicks": 96,
            "midi": 69,
            "name": "A4",
            "ticks": 131520,
            "time": 58.71409,
            "velocity": 0.3937007874015748
          },
          {
            "duration": 0.042856999999997925,
            "durationTicks": 96,
            "midi": 69,
            "name": "A4",
            "ticks": 131904,
            "time": 58.885518,
            "velocity": 0.3937007874015748
          },
          {
            "duration": 0.042856999999997925,
            "durationTicks": 96,
            "midi": 48,
            "name": "C3",
            "ticks": 131904,
            "time": 58.885518,
            "velocity": 0.3937007874015748
          },
          {
            "duration": 0.04285700000000503,
            "durationTicks": 96,
            "midi": 36,
            "name": "C2",
            "ticks": 132288,
            "time": 59.056945999999996,
            "velocity": 0.3937007874015748
          },
          {
            "duration": 0.04285700000000503,
            "durationTicks": 96,
            "midi": 69,
            "name": "A4",
            "ticks": 132288,
            "time": 59.056945999999996,
            "velocity": 0.3937007874015748
          },
          {
            "duration": 0.042856999999997925,
            "durationTicks": 96,
            "midi": 48,
            "name": "C3",
            "ticks": 132672,
            "time": 59.228374,
            "velocity": 0.3937007874015748
          },
          {
            "duration": 0.042856999999997925,
            "durationTicks": 96,
            "midi": 69,
            "name": "A4",
            "ticks": 132672,
            "time": 59.228374,
            "velocity": 0.3937007874015748
          },
          {
            "duration": 0.042856999999997925,
            "durationTicks": 96,
            "midi": 36,
            "name": "C2",
            "ticks": 133056,
            "time": 59.399802,
            "velocity": 0.3937007874015748
          },
          {
            "duration": 0.042856999999997925,
            "durationTicks": 96,
            "midi": 48,
            "name": "C3",
            "ticks": 133440,
            "time": 59.57123,
            "velocity": 0.3937007874015748
          },
          {
            "duration": 0.042856999999997925,
            "durationTicks": 96,
            "midi": 35,
            "name": "B1",
            "ticks": 133824,
            "time": 59.742658,
            "velocity": 0.3937007874015748
          },
          {
            "duration": 0.042856999999997925,
            "durationTicks": 96,
            "midi": 47,
            "name": "B2",
            "ticks": 134208,
            "time": 59.914086,
            "velocity": 0.3937007874015748
          },
          {
            "duration": 0.04285700000000503,
            "durationTicks": 96,
            "midi": 35,
            "name": "B1",
            "ticks": 134592,
            "time": 60.085513999999996,
            "velocity": 0.3937007874015748
          },
          {
            "duration": 0.042856999999997925,
            "durationTicks": 96,
            "midi": 47,
            "name": "B2",
            "ticks": 134976,
            "time": 60.256942,
            "velocity": 0.3937007874015748
          },
          {
            "duration": 0.042856999999997925,
            "durationTicks": 96,
            "midi": 35,
            "name": "B1",
            "ticks": 135360,
            "time": 60.42837,
            "velocity": 0.3937007874015748
          },
          {
            "duration": 0.042856999999997925,
            "durationTicks": 96,
            "midi": 47,
            "name": "B2",
            "ticks": 135744,
            "time": 60.599798,
            "velocity": 0.3937007874015748
          },
          {
            "duration": 0.042856999999997925,
            "durationTicks": 96,
            "midi": 35,
            "name": "B1",
            "ticks": 136128,
            "time": 60.771226,
            "velocity": 0.3937007874015748
          },
          {
            "duration": 0.04285700000000503,
            "durationTicks": 96,
            "midi": 47,
            "name": "B2",
            "ticks": 136512,
            "time": 60.942654,
            "velocity": 0.3937007874015748
          },
          {
            "duration": 0.04285700000000503,
            "durationTicks": 96,
            "midi": 40,
            "name": "E2",
            "ticks": 136896,
            "time": 61.114081999999996,
            "velocity": 0.3937007874015748
          },
          {
            "duration": 0.042856999999997925,
            "durationTicks": 96,
            "midi": 52,
            "name": "E3",
            "ticks": 137280,
            "time": 61.28551,
            "velocity": 0.3937007874015748
          },
          {
            "duration": 0.042856999999997925,
            "durationTicks": 96,
            "midi": 38,
            "name": "D2",
            "ticks": 137664,
            "time": 61.456938,
            "velocity": 0.3937007874015748
          },
          {
            "duration": 0.042856999999997925,
            "durationTicks": 96,
            "midi": 50,
            "name": "D3",
            "ticks": 138048,
            "time": 61.628366,
            "velocity": 0.3937007874015748
          },
          {
            "duration": 0.042856999999997925,
            "durationTicks": 96,
            "midi": 36,
            "name": "C2",
            "ticks": 138432,
            "time": 61.799794,
            "velocity": 0.3937007874015748
          },
          {
            "duration": 0.04285700000000503,
            "durationTicks": 96,
            "midi": 48,
            "name": "C3",
            "ticks": 138816,
            "time": 61.971222,
            "velocity": 0.3937007874015748
          },
          {
            "duration": 0.04285700000000503,
            "durationTicks": 96,
            "midi": 35,
            "name": "B1",
            "ticks": 139200,
            "time": 62.142649999999996,
            "velocity": 0.3937007874015748
          },
          {
            "duration": 0.042856999999997925,
            "durationTicks": 96,
            "midi": 47,
            "name": "B2",
            "ticks": 139584,
            "time": 62.314078,
            "velocity": 0.3937007874015748
          },
          {
            "duration": 0.042856999999997925,
            "durationTicks": 96,
            "midi": 33,
            "name": "A1",
            "ticks": 139968,
            "time": 62.485506,
            "velocity": 0.3937007874015748
          },
          {
            "duration": 0.042856999999997925,
            "durationTicks": 96,
            "midi": 45,
            "name": "A2",
            "ticks": 140352,
            "time": 62.656934,
            "velocity": 0.3937007874015748
          },
          {
            "duration": 0.042856999999997925,
            "durationTicks": 96,
            "midi": 33,
            "name": "A1",
            "ticks": 140736,
            "time": 62.828362,
            "velocity": 0.3937007874015748
          },
          {
            "duration": 0.04285700000000503,
            "durationTicks": 96,
            "midi": 45,
            "name": "A2",
            "ticks": 141120,
            "time": 62.99979,
            "velocity": 0.3937007874015748
          },
          {
            "duration": 0.04285700000000503,
            "durationTicks": 96,
            "midi": 33,
            "name": "A1",
            "ticks": 141504,
            "time": 63.171217999999996,
            "velocity": 0.3937007874015748
          },
          {
            "duration": 0.042856999999997925,
            "durationTicks": 96,
            "midi": 45,
            "name": "A2",
            "ticks": 141888,
            "time": 63.342646,
            "velocity": 0.3937007874015748
          },
          {
            "duration": 0.042856999999997925,
            "durationTicks": 96,
            "midi": 33,
            "name": "A1",
            "ticks": 142272,
            "time": 63.514074,
            "velocity": 0.3937007874015748
          },
          {
            "duration": 0.042856999999997925,
            "durationTicks": 96,
            "midi": 45,
            "name": "A2",
            "ticks": 142656,
            "time": 63.685502,
            "velocity": 0.3937007874015748
          },
          {
            "duration": 0.042856999999997925,
            "durationTicks": 96,
            "midi": 36,
            "name": "C2",
            "ticks": 143040,
            "time": 63.85693,
            "velocity": 0.3937007874015748
          },
          {
            "duration": 0.042856999999997925,
            "durationTicks": 96,
            "midi": 69,
            "name": "A4",
            "ticks": 143424,
            "time": 64.028358,
            "velocity": 0.3937007874015748
          },
          {
            "duration": 0.042856999999997925,
            "durationTicks": 96,
            "midi": 48,
            "name": "C3",
            "ticks": 143424,
            "time": 64.028358,
            "velocity": 0.3937007874015748
          },
          {
            "duration": 0.042856999999997925,
            "durationTicks": 96,
            "midi": 69,
            "name": "A4",
            "ticks": 143808,
            "time": 64.199786,
            "velocity": 0.3937007874015748
          },
          {
            "duration": 0.042856999999997925,
            "durationTicks": 96,
            "midi": 36,
            "name": "C2",
            "ticks": 143808,
            "time": 64.199786,
            "velocity": 0.3937007874015748
          },
          {
            "duration": 0.042856999999997925,
            "durationTicks": 96,
            "midi": 48,
            "name": "C3",
            "ticks": 144192,
            "time": 64.371214,
            "velocity": 0.3937007874015748
          },
          {
            "duration": 0.042856999999997925,
            "durationTicks": 96,
            "midi": 69,
            "name": "A4",
            "ticks": 144192,
            "time": 64.371214,
            "velocity": 0.3937007874015748
          },
          {
            "duration": 0.042856999999997925,
            "durationTicks": 96,
            "midi": 36,
            "name": "C2",
            "ticks": 144576,
            "time": 64.542642,
            "velocity": 0.3937007874015748
          },
          {
            "duration": 0.042856999999997925,
            "durationTicks": 96,
            "midi": 69,
            "name": "A4",
            "ticks": 144576,
            "time": 64.542642,
            "velocity": 0.3937007874015748
          },
          {
            "duration": 0.042857000000012135,
            "durationTicks": 96,
            "midi": 48,
            "name": "C3",
            "ticks": 144960,
            "time": 64.71406999999999,
            "velocity": 0.3937007874015748
          },
          {
            "duration": 0.042857000000012135,
            "durationTicks": 96,
            "midi": 69,
            "name": "A4",
            "ticks": 144960,
            "time": 64.71406999999999,
            "velocity": 0.3937007874015748
          },
          {
            "duration": 0.042856999999997925,
            "durationTicks": 96,
            "midi": 36,
            "name": "C2",
            "ticks": 145344,
            "time": 64.885498,
            "velocity": 0.3937007874015748
          },
          {
            "duration": 0.042856999999997925,
            "durationTicks": 96,
            "midi": 48,
            "name": "C3",
            "ticks": 145728,
            "time": 65.056926,
            "velocity": 0.3937007874015748
          },
          {
            "duration": 0.042856999999997925,
            "durationTicks": 96,
            "midi": 41,
            "name": "F2",
            "ticks": 146112,
            "time": 65.228354,
            "velocity": 0.3937007874015748
          },
          {
            "duration": 0.042856999999997925,
            "durationTicks": 96,
            "midi": 53,
            "name": "F3",
            "ticks": 146496,
            "time": 65.399782,
            "velocity": 0.3937007874015748
          },
          {
            "duration": 0.042857000000012135,
            "durationTicks": 96,
            "midi": 41,
            "name": "F2",
            "ticks": 146880,
            "time": 65.57121,
            "velocity": 0.3937007874015748
          },
          {
            "duration": 0.042856999999997925,
            "durationTicks": 96,
            "midi": 53,
            "name": "F3",
            "ticks": 147264,
            "time": 65.742638,
            "velocity": 0.3937007874015748
          },
          {
            "duration": 0.042856999999997925,
            "durationTicks": 96,
            "midi": 41,
            "name": "F2",
            "ticks": 147648,
            "time": 65.914066,
            "velocity": 0.3937007874015748
          },
          {
            "duration": 0.042856999999997925,
            "durationTicks": 96,
            "midi": 53,
            "name": "F3",
            "ticks": 148032,
            "time": 66.085494,
            "velocity": 0.3937007874015748
          },
          {
            "duration": 0.042856999999997925,
            "durationTicks": 96,
            "midi": 41,
            "name": "F2",
            "ticks": 148416,
            "time": 66.256922,
            "velocity": 0.3937007874015748
          },
          {
            "duration": 0.042856999999997925,
            "durationTicks": 96,
            "midi": 53,
            "name": "F3",
            "ticks": 148800,
            "time": 66.42835,
            "velocity": 0.3937007874015748
          },
          {
            "duration": 0.042856999999997925,
            "durationTicks": 96,
            "midi": 40,
            "name": "E2",
            "ticks": 149184,
            "time": 66.599778,
            "velocity": 0.3937007874015748
          },
          {
            "duration": 0.042857000000012135,
            "durationTicks": 96,
            "midi": 40,
            "name": "E2",
            "ticks": 149568,
            "time": 66.77120599999999,
            "velocity": 0.3937007874015748
          },
          {
            "duration": 0.042856999999997925,
            "durationTicks": 96,
            "midi": 40,
            "name": "E2",
            "ticks": 149952,
            "time": 66.942634,
            "velocity": 0.3937007874015748
          },
          {
            "duration": 0.042856999999997925,
            "durationTicks": 96,
            "midi": 40,
            "name": "E2",
            "ticks": 150336,
            "time": 67.114062,
            "velocity": 0.3937007874015748
          },
          {
            "duration": 0.042856999999997925,
            "durationTicks": 96,
            "midi": 40,
            "name": "E2",
            "ticks": 150720,
            "time": 67.28549,
            "velocity": 0.3937007874015748
          },
          {
            "duration": 0.042856999999997925,
            "durationTicks": 96,
            "midi": 40,
            "name": "E2",
            "ticks": 151104,
            "time": 67.456918,
            "velocity": 0.3937007874015748
          },
          {
            "duration": 0.042857000000012135,
            "durationTicks": 96,
            "midi": 40,
            "name": "E2",
            "ticks": 151488,
            "time": 67.628346,
            "velocity": 0.3937007874015748
          },
          {
            "duration": 0.042856999999997925,
            "durationTicks": 96,
            "midi": 40,
            "name": "E2",
            "ticks": 151872,
            "time": 67.799774,
            "velocity": 0.3937007874015748
          },
          {
            "duration": 0.042856999999997925,
            "durationTicks": 96,
            "midi": 40,
            "name": "E2",
            "ticks": 222912,
            "time": 99.513954,
            "velocity": 0.3937007874015748
          },
          {
            "duration": 0.042856999999997925,
            "durationTicks": 96,
            "midi": 40,
            "name": "E2",
            "ticks": 222912,
            "time": 99.513954,
            "velocity": 0.3937007874015748
          },
          {
            "duration": 0.042856999999997925,
            "durationTicks": 96,
            "midi": 40,
            "name": "E2",
            "ticks": 222912,
            "time": 99.513954,
            "velocity": 0.3937007874015748
          },
          {
            "duration": 0.042856999999997925,
            "durationTicks": 96,
            "midi": 40,
            "name": "E2",
            "ticks": 222912,
            "time": 99.513954,
            "velocity": 0.3937007874015748
          },
          {
            "duration": 0.042856999999997925,
            "durationTicks": 96,
            "midi": 52,
            "name": "E3",
            "ticks": 222912,
            "time": 99.513954,
            "velocity": 0.3937007874015748
          },
          {
            "duration": 0.042856999999997925,
            "durationTicks": 96,
            "midi": 52,
            "name": "E3",
            "ticks": 222912,
            "time": 99.513954,
            "velocity": 0.3937007874015748
          },
          {
            "duration": 0.042856999999997925,
            "durationTicks": 96,
            "midi": 38,
            "name": "D2",
            "ticks": 223680,
            "time": 99.85681,
            "velocity": 0.3937007874015748
          },
          {
            "duration": 0.042856999999997925,
            "durationTicks": 96,
            "midi": 38,
            "name": "D2",
            "ticks": 223680,
            "time": 99.85681,
            "velocity": 0.3937007874015748
          },
          {
            "duration": 0.042856999999997925,
            "durationTicks": 96,
            "midi": 38,
            "name": "D2",
            "ticks": 223680,
            "time": 99.85681,
            "velocity": 0.3937007874015748
          },
          {
            "duration": 0.042856999999997925,
            "durationTicks": 96,
            "midi": 50,
            "name": "D3",
            "ticks": 223680,
            "time": 99.85681,
            "velocity": 0.3937007874015748
          },
          {
            "duration": 0.042856999999997925,
            "durationTicks": 96,
            "midi": 38,
            "name": "D2",
            "ticks": 223680,
            "time": 99.85681,
            "velocity": 0.3937007874015748
          },
          {
            "duration": 0.042856999999997925,
            "durationTicks": 96,
            "midi": 50,
            "name": "D3",
            "ticks": 223680,
            "time": 99.85681,
            "velocity": 0.3937007874015748
          },
          {
            "duration": 0.042856999999997925,
            "durationTicks": 96,
            "midi": 36,
            "name": "C2",
            "ticks": 224448,
            "time": 100.199666,
            "velocity": 0.3937007874015748
          },
          {
            "duration": 0.042856999999997925,
            "durationTicks": 96,
            "midi": 48,
            "name": "C3",
            "ticks": 224448,
            "time": 100.199666,
            "velocity": 0.3937007874015748
          },
          {
            "duration": 0.042856999999997925,
            "durationTicks": 96,
            "midi": 36,
            "name": "C2",
            "ticks": 224448,
            "time": 100.199666,
            "velocity": 0.3937007874015748
          },
          {
            "duration": 0.042856999999997925,
            "durationTicks": 96,
            "midi": 36,
            "name": "C2",
            "ticks": 224448,
            "time": 100.199666,
            "velocity": 0.3937007874015748
          },
          {
            "duration": 0.042856999999997925,
            "durationTicks": 96,
            "midi": 36,
            "name": "C2",
            "ticks": 224448,
            "time": 100.199666,
            "velocity": 0.3937007874015748
          },
          {
            "duration": 0.042856999999997925,
            "durationTicks": 96,
            "midi": 48,
            "name": "C3",
            "ticks": 224448,
            "time": 100.199666,
            "velocity": 0.3937007874015748
          },
          {
            "duration": 0.042856999999997925,
            "durationTicks": 96,
            "midi": 47,
            "name": "B2",
            "ticks": 225216,
            "time": 100.542522,
            "velocity": 0.3937007874015748
          },
          {
            "duration": 0.042856999999997925,
            "durationTicks": 96,
            "midi": 35,
            "name": "B1",
            "ticks": 225216,
            "time": 100.542522,
            "velocity": 0.3937007874015748
          },
          {
            "duration": 0.042856999999997925,
            "durationTicks": 96,
            "midi": 35,
            "name": "B1",
            "ticks": 225216,
            "time": 100.542522,
            "velocity": 0.3937007874015748
          },
          {
            "duration": 0.042856999999997925,
            "durationTicks": 96,
            "midi": 35,
            "name": "B1",
            "ticks": 225216,
            "time": 100.542522,
            "velocity": 0.3937007874015748
          },
          {
            "duration": 0.042856999999997925,
            "durationTicks": 96,
            "midi": 47,
            "name": "B2",
            "ticks": 225216,
            "time": 100.542522,
            "velocity": 0.3937007874015748
          },
          {
            "duration": 0.042856999999997925,
            "durationTicks": 96,
            "midi": 35,
            "name": "B1",
            "ticks": 225216,
            "time": 100.542522,
            "velocity": 0.3937007874015748
          },
          {
            "duration": 0.042856999999997925,
            "durationTicks": 96,
            "midi": 33,
            "name": "A1",
            "ticks": 225984,
            "time": 100.885378,
            "velocity": 0.3937007874015748
          },
          {
            "duration": 0.042856999999997925,
            "durationTicks": 96,
            "midi": 45,
            "name": "A2",
            "ticks": 225984,
            "time": 100.885378,
            "velocity": 0.3937007874015748
          },
          {
            "duration": 0.042856999999997925,
            "durationTicks": 96,
            "midi": 33,
            "name": "A1",
            "ticks": 225984,
            "time": 100.885378,
            "velocity": 0.3937007874015748
          },
          {
            "duration": 0.042856999999997925,
            "durationTicks": 96,
            "midi": 33,
            "name": "A1",
            "ticks": 225984,
            "time": 100.885378,
            "velocity": 0.3937007874015748
          },
          {
            "duration": 0.042856999999997925,
            "durationTicks": 96,
            "midi": 45,
            "name": "A2",
            "ticks": 225984,
            "time": 100.885378,
            "velocity": 0.3937007874015748
          },
          {
            "duration": 0.042856999999997925,
            "durationTicks": 96,
            "midi": 33,
            "name": "A1",
            "ticks": 225984,
            "time": 100.885378,
            "velocity": 0.3937007874015748
          },
          {
            "duration": 0.042856999999997925,
            "durationTicks": 96,
            "midi": 64,
            "name": "E4",
            "ticks": 226752,
            "time": 101.228234,
            "velocity": 0.3937007874015748
          },
          {
            "duration": 0.042856999999997925,
            "durationTicks": 96,
            "midi": 60,
            "name": "C4",
            "ticks": 226752,
            "time": 101.228234,
            "velocity": 0.3937007874015748
          },
          {
            "duration": 0.042856999999997925,
            "durationTicks": 96,
            "midi": 62,
            "name": "D4",
            "ticks": 227520,
            "time": 101.57109,
            "velocity": 0.3937007874015748
          },
          {
            "duration": 0.042856999999997925,
            "durationTicks": 96,
            "midi": 65,
            "name": "F4",
            "ticks": 227520,
            "time": 101.57109,
            "velocity": 0.3937007874015748
          },
          {
            "duration": 0.042856999999997925,
            "durationTicks": 96,
            "midi": 53,
            "name": "F3",
            "ticks": 227520,
            "time": 101.57109,
            "velocity": 0.3937007874015748
          },
          {
            "duration": 0.042856999999997925,
            "durationTicks": 96,
            "midi": 41,
            "name": "F2",
            "ticks": 227520,
            "time": 101.57109,
            "velocity": 0.3937007874015748
          },
          {
            "duration": 0.042856999999997925,
            "durationTicks": 96,
            "midi": 53,
            "name": "F3",
            "ticks": 228288,
            "time": 101.913946,
            "velocity": 0.3937007874015748
          },
          {
            "duration": 0.042856999999997925,
            "durationTicks": 96,
            "midi": 62,
            "name": "D4",
            "ticks": 228288,
            "time": 101.913946,
            "velocity": 0.3937007874015748
          },
          {
            "duration": 0.042856999999997925,
            "durationTicks": 96,
            "midi": 59,
            "name": "B3",
            "ticks": 229056,
            "time": 102.256802,
            "velocity": 0.3937007874015748
          },
          {
            "duration": 0.042856999999997925,
            "durationTicks": 96,
            "midi": 52,
            "name": "E3",
            "ticks": 229056,
            "time": 102.256802,
            "velocity": 0.3937007874015748
          },
          {
            "duration": 0.042856999999997925,
            "durationTicks": 96,
            "midi": 40,
            "name": "E2",
            "ticks": 229056,
            "time": 102.256802,
            "velocity": 0.3937007874015748
          },
          {
            "duration": 0.042856999999997925,
            "durationTicks": 96,
            "midi": 64,
            "name": "E4",
            "ticks": 229056,
            "time": 102.256802,
            "velocity": 0.3937007874015748
          },
          {
            "duration": 0.042856999999997925,
            "durationTicks": 96,
            "midi": 48,
            "name": "C3",
            "ticks": 232128,
            "time": 103.628226,
            "velocity": 0.3937007874015748
          },
          {
            "duration": 0.042856999999997925,
            "durationTicks": 96,
            "midi": 36,
            "name": "C2",
            "ticks": 232128,
            "time": 103.628226,
            "velocity": 0.3937007874015748
          },
          {
            "duration": 0.042856999999997925,
            "durationTicks": 96,
            "midi": 57,
            "name": "A3",
            "ticks": 232896,
            "time": 103.971082,
            "velocity": 0.3937007874015748
          },
          {
            "duration": 0.042856999999997925,
            "durationTicks": 96,
            "midi": 64,
            "name": "E4",
            "ticks": 232896,
            "time": 103.971082,
            "velocity": 0.3937007874015748
          },
          {
            "duration": 0.042857000000012135,
            "durationTicks": 96,
            "midi": 61,
            "name": "C#4",
            "ticks": 233664,
            "time": 104.313938,
            "velocity": 0.3937007874015748
          },
          {
            "duration": 0.042857000000012135,
            "durationTicks": 96,
            "midi": 67,
            "name": "G4",
            "ticks": 233664,
            "time": 104.313938,
            "velocity": 0.3937007874015748
          },
          {
            "duration": 0.042857000000012135,
            "durationTicks": 96,
            "midi": 45,
            "name": "A2",
            "ticks": 233664,
            "time": 104.313938,
            "velocity": 0.3937007874015748
          },
          {
            "duration": 0.042857000000012135,
            "durationTicks": 96,
            "midi": 33,
            "name": "A1",
            "ticks": 233664,
            "time": 104.313938,
            "velocity": 0.3937007874015748
          },
          {
            "duration": 0.042856999999997925,
            "durationTicks": 96,
            "midi": 64,
            "name": "E4",
            "ticks": 234816,
            "time": 104.828222,
            "velocity": 0.3937007874015748
          },
          {
            "duration": 0.042856999999997925,
            "durationTicks": 96,
            "midi": 61,
            "name": "C#4",
            "ticks": 234816,
            "time": 104.828222,
            "velocity": 0.3937007874015748
          },
          {
            "duration": 0.042856999999997925,
            "durationTicks": 96,
            "midi": 38,
            "name": "D2",
            "ticks": 235200,
            "time": 104.99965,
            "velocity": 0.3937007874015748
          },
          {
            "duration": 0.042856999999997925,
            "durationTicks": 96,
            "midi": 50,
            "name": "D3",
            "ticks": 235200,
            "time": 104.99965,
            "velocity": 0.3937007874015748
          },
          {
            "duration": 0.042857000000012135,
            "durationTicks": 96,
            "midi": 47,
            "name": "B2",
            "ticks": 238272,
            "time": 106.371074,
            "velocity": 0.3937007874015748
          },
          {
            "duration": 0.042857000000012135,
            "durationTicks": 96,
            "midi": 35,
            "name": "B1",
            "ticks": 238272,
            "time": 106.371074,
            "velocity": 0.3937007874015748
          },
          {
            "duration": 0.042856999999997925,
            "durationTicks": 96,
            "midi": 59,
            "name": "B3",
            "ticks": 239040,
            "time": 106.71393,
            "velocity": 0.3937007874015748
          },
          {
            "duration": 0.042856999999997925,
            "durationTicks": 96,
            "midi": 65,
            "name": "F4",
            "ticks": 239040,
            "time": 106.71393,
            "velocity": 0.3937007874015748
          },
          {
            "duration": 0.042856999999997925,
            "durationTicks": 96,
            "midi": 64,
            "name": "E4",
            "ticks": 239808,
            "time": 107.056786,
            "velocity": 0.3937007874015748
          },
          {
            "duration": 0.042856999999997925,
            "durationTicks": 96,
            "midi": 56,
            "name": "G#3",
            "ticks": 239808,
            "time": 107.056786,
            "velocity": 0.3937007874015748
          },
          {
            "duration": 0.042856999999997925,
            "durationTicks": 96,
            "midi": 52,
            "name": "E3",
            "ticks": 239808,
            "time": 107.056786,
            "velocity": 0.3937007874015748
          },
          {
            "duration": 0.042856999999997925,
            "durationTicks": 96,
            "midi": 40,
            "name": "E2",
            "ticks": 239808,
            "time": 107.056786,
            "velocity": 0.3937007874015748
          },
          {
            "duration": 0.042856999999997925,
            "durationTicks": 96,
            "midi": 62,
            "name": "D4",
            "ticks": 240576,
            "time": 107.399642,
            "velocity": 0.3937007874015748
          },
          {
            "duration": 0.042856999999997925,
            "durationTicks": 96,
            "midi": 59,
            "name": "B3",
            "ticks": 240576,
            "time": 107.399642,
            "velocity": 0.3937007874015748
          },
          {
            "duration": 0.042856999999997925,
            "durationTicks": 96,
            "midi": 60,
            "name": "C4",
            "ticks": 241344,
            "time": 107.742498,
            "velocity": 0.3937007874015748
          },
          {
            "duration": 0.042856999999997925,
            "durationTicks": 96,
            "midi": 57,
            "name": "A3",
            "ticks": 241344,
            "time": 107.742498,
            "velocity": 0.3937007874015748
          },
          {
            "duration": 0.042856999999997925,
            "durationTicks": 96,
            "midi": 45,
            "name": "A2",
            "ticks": 241344,
            "time": 107.742498,
            "velocity": 0.3937007874015748
          },
          {
            "duration": 0.042856999999997925,
            "durationTicks": 96,
            "midi": 33,
            "name": "A1",
            "ticks": 241344,
            "time": 107.742498,
            "velocity": 0.3937007874015748
          },
          {
            "duration": 0.042856999999997925,
            "durationTicks": 96,
            "midi": 64,
            "name": "E4",
            "ticks": 242112,
            "time": 108.085354,
            "velocity": 0.3937007874015748
          },
          {
            "duration": 0.042856999999997925,
            "durationTicks": 96,
            "midi": 60,
            "name": "C4",
            "ticks": 242112,
            "time": 108.085354,
            "velocity": 0.3937007874015748
          },
          {
            "duration": 0.042857000000012135,
            "durationTicks": 96,
            "midi": 63,
            "name": "D#4",
            "ticks": 242880,
            "time": 108.42820999999999,
            "velocity": 0.3937007874015748
          },
          {
            "duration": 0.042857000000012135,
            "durationTicks": 96,
            "midi": 69,
            "name": "A4",
            "ticks": 242880,
            "time": 108.42820999999999,
            "velocity": 0.3937007874015748
          },
          {
            "duration": 0.042857000000012135,
            "durationTicks": 96,
            "midi": 42,
            "name": "F#2",
            "ticks": 242880,
            "time": 108.42820999999999,
            "velocity": 0.3937007874015748
          },
          {
            "duration": 0.042857000000012135,
            "durationTicks": 96,
            "midi": 54,
            "name": "F#3",
            "ticks": 242880,
            "time": 108.42820999999999,
            "velocity": 0.3937007874015748
          },
          {
            "duration": 0.042856999999997925,
            "durationTicks": 96,
            "midi": 66,
            "name": "F#4",
            "ticks": 243648,
            "time": 108.771066,
            "velocity": 0.3937007874015748
          },
          {
            "duration": 0.042856999999997925,
            "durationTicks": 96,
            "midi": 63,
            "name": "D#4",
            "ticks": 243648,
            "time": 108.771066,
            "velocity": 0.3937007874015748
          },
          {
            "duration": 0.042856999999997925,
            "durationTicks": 96,
            "midi": 39,
            "name": "D#2",
            "ticks": 244416,
            "time": 109.113922,
            "velocity": 0.3937007874015748
          },
          {
            "duration": 0.042856999999997925,
            "durationTicks": 96,
            "midi": 69,
            "name": "A4",
            "ticks": 244416,
            "time": 109.113922,
            "velocity": 0.3937007874015748
          },
          {
            "duration": 0.042856999999997925,
            "durationTicks": 96,
            "midi": 63,
            "name": "D#4",
            "ticks": 244416,
            "time": 109.113922,
            "velocity": 0.3937007874015748
          },
          {
            "duration": 0.042856999999997925,
            "durationTicks": 96,
            "midi": 51,
            "name": "D#3",
            "ticks": 244416,
            "time": 109.113922,
            "velocity": 0.3937007874015748
          },
          {
            "duration": 0.042856999999997925,
            "durationTicks": 96,
            "midi": 64,
            "name": "E4",
            "ticks": 245952,
            "time": 109.799634,
            "velocity": 0.3937007874015748
          },
          {
            "duration": 0.042856999999997925,
            "durationTicks": 96,
            "midi": 68,
            "name": "G#4",
            "ticks": 245952,
            "time": 109.799634,
            "velocity": 0.3937007874015748
          },
          {
            "duration": 0.042856999999997925,
            "durationTicks": 96,
            "midi": 52,
            "name": "E3",
            "ticks": 245952,
            "time": 109.799634,
            "velocity": 0.3937007874015748
          },
          {
            "duration": 0.042856999999997925,
            "durationTicks": 96,
            "midi": 40,
            "name": "E2",
            "ticks": 245952,
            "time": 109.799634,
            "velocity": 0.3937007874015748
          },
          {
            "duration": 0.042856999999997925,
            "durationTicks": 96,
            "midi": 69,
            "name": "A4",
            "ticks": 247104,
            "time": 110.313918,
            "velocity": 0.3937007874015748
          },
          {
            "duration": 0.042857000000012135,
            "durationTicks": 96,
            "midi": 45,
            "name": "A2",
            "ticks": 247488,
            "time": 110.48534599999999,
            "velocity": 0.3937007874015748
          },
          {
            "duration": 0.042857000000012135,
            "durationTicks": 96,
            "midi": 69,
            "name": "A4",
            "ticks": 247488,
            "time": 110.48534599999999,
            "velocity": 0.3937007874015748
          },
          {
            "duration": 0.042857000000012135,
            "durationTicks": 96,
            "midi": 57,
            "name": "A3",
            "ticks": 247488,
            "time": 110.48534599999999,
            "velocity": 0.3937007874015748
          },
          {
            "duration": 0.042856999999997925,
            "durationTicks": 96,
            "midi": 33,
            "name": "A1",
            "ticks": 262848,
            "time": 117.342466,
            "velocity": 0.3937007874015748
          },
          {
            "duration": 0.042856999999997925,
            "durationTicks": 96,
            "midi": 45,
            "name": "A2",
            "ticks": 263232,
            "time": 117.513894,
            "velocity": 0.3937007874015748
          },
          {
            "duration": 0.042856999999997925,
            "durationTicks": 96,
            "midi": 33,
            "name": "A1",
            "ticks": 263616,
            "time": 117.685322,
            "velocity": 0.3937007874015748
          },
          {
            "duration": 0.042857000000012135,
            "durationTicks": 96,
            "midi": 45,
            "name": "A2",
            "ticks": 264000,
            "time": 117.85674999999999,
            "velocity": 0.3937007874015748
          },
          {
            "duration": 0.042856999999997925,
            "durationTicks": 96,
            "midi": 33,
            "name": "A1",
            "ticks": 264384,
            "time": 118.028178,
            "velocity": 0.3937007874015748
          },
          {
            "duration": 0.042856999999997925,
            "durationTicks": 96,
            "midi": 45,
            "name": "A2",
            "ticks": 264768,
            "time": 118.199606,
            "velocity": 0.3937007874015748
          },
          {
            "duration": 0.042856999999997925,
            "durationTicks": 96,
            "midi": 33,
            "name": "A1",
            "ticks": 265152,
            "time": 118.371034,
            "velocity": 0.3937007874015748
          },
          {
            "duration": 0.042856999999997925,
            "durationTicks": 96,
            "midi": 45,
            "name": "A2",
            "ticks": 265536,
            "time": 118.542462,
            "velocity": 0.3937007874015748
          },
          {
            "duration": 0.042857000000012135,
            "durationTicks": 96,
            "midi": 36,
            "name": "C2",
            "ticks": 265920,
            "time": 118.71388999999999,
            "velocity": 0.3937007874015748
          },
          {
            "duration": 0.042856999999997925,
            "durationTicks": 96,
            "midi": 69,
            "name": "A4",
            "ticks": 266304,
            "time": 118.885318,
            "velocity": 0.3937007874015748
          },
          {
            "duration": 0.042856999999997925,
            "durationTicks": 96,
            "midi": 48,
            "name": "C3",
            "ticks": 266304,
            "time": 118.885318,
            "velocity": 0.3937007874015748
          },
          {
            "duration": 0.042856999999997925,
            "durationTicks": 96,
            "midi": 36,
            "name": "C2",
            "ticks": 266688,
            "time": 119.056746,
            "velocity": 0.3937007874015748
          },
          {
            "duration": 0.042856999999997925,
            "durationTicks": 96,
            "midi": 69,
            "name": "A4",
            "ticks": 266688,
            "time": 119.056746,
            "velocity": 0.3937007874015748
          },
          {
            "duration": 0.042856999999997925,
            "durationTicks": 96,
            "midi": 69,
            "name": "A4",
            "ticks": 267072,
            "time": 119.228174,
            "velocity": 0.3937007874015748
          },
          {
            "duration": 0.042856999999997925,
            "durationTicks": 96,
            "midi": 48,
            "name": "C3",
            "ticks": 267072,
            "time": 119.228174,
            "velocity": 0.3937007874015748
          },
          {
            "duration": 0.042856999999997925,
            "durationTicks": 96,
            "midi": 36,
            "name": "C2",
            "ticks": 267456,
            "time": 119.399602,
            "velocity": 0.3937007874015748
          },
          {
            "duration": 0.042856999999997925,
            "durationTicks": 96,
            "midi": 69,
            "name": "A4",
            "ticks": 267456,
            "time": 119.399602,
            "velocity": 0.3937007874015748
          },
          {
            "duration": 0.042856999999997925,
            "durationTicks": 96,
            "midi": 48,
            "name": "C3",
            "ticks": 267840,
            "time": 119.57103,
            "velocity": 0.3937007874015748
          },
          {
            "duration": 0.042856999999997925,
            "durationTicks": 96,
            "midi": 69,
            "name": "A4",
            "ticks": 267840,
            "time": 119.57103,
            "velocity": 0.3937007874015748
          },
          {
            "duration": 0.042856999999997925,
            "durationTicks": 96,
            "midi": 36,
            "name": "C2",
            "ticks": 268224,
            "time": 119.742458,
            "velocity": 0.3937007874015748
          },
          {
            "duration": 0.042857000000012135,
            "durationTicks": 96,
            "midi": 48,
            "name": "C3",
            "ticks": 268608,
            "time": 119.91388599999999,
            "velocity": 0.3937007874015748
          },
          {
            "duration": 0.042856999999997925,
            "durationTicks": 96,
            "midi": 35,
            "name": "B1",
            "ticks": 268992,
            "time": 120.085314,
            "velocity": 0.3937007874015748
          },
          {
            "duration": 0.042856999999997925,
            "durationTicks": 96,
            "midi": 47,
            "name": "B2",
            "ticks": 269376,
            "time": 120.256742,
            "velocity": 0.3937007874015748
          },
          {
            "duration": 0.042856999999997925,
            "durationTicks": 96,
            "midi": 35,
            "name": "B1",
            "ticks": 269760,
            "time": 120.42817,
            "velocity": 0.3937007874015748
          },
          {
            "duration": 0.042856999999997925,
            "durationTicks": 96,
            "midi": 47,
            "name": "B2",
            "ticks": 270144,
            "time": 120.599598,
            "velocity": 0.3937007874015748
          },
          {
            "duration": 0.042857000000012135,
            "durationTicks": 96,
            "midi": 35,
            "name": "B1",
            "ticks": 270528,
            "time": 120.77102599999999,
            "velocity": 0.3937007874015748
          },
          {
            "duration": 0.042856999999997925,
            "durationTicks": 96,
            "midi": 47,
            "name": "B2",
            "ticks": 270912,
            "time": 120.942454,
            "velocity": 0.3937007874015748
          },
          {
            "duration": 0.042856999999997925,
            "durationTicks": 96,
            "midi": 35,
            "name": "B1",
            "ticks": 271296,
            "time": 121.113882,
            "velocity": 0.3937007874015748
          },
          {
            "duration": 0.042856999999997925,
            "durationTicks": 96,
            "midi": 47,
            "name": "B2",
            "ticks": 271680,
            "time": 121.28531,
            "velocity": 0.3937007874015748
          },
          {
            "duration": 0.042856999999997925,
            "durationTicks": 96,
            "midi": 40,
            "name": "E2",
            "ticks": 272064,
            "time": 121.456738,
            "velocity": 0.3937007874015748
          },
          {
            "duration": 0.042856999999997925,
            "durationTicks": 96,
            "midi": 52,
            "name": "E3",
            "ticks": 272448,
            "time": 121.628166,
            "velocity": 0.3937007874015748
          },
          {
            "duration": 0.042856999999997925,
            "durationTicks": 96,
            "midi": 38,
            "name": "D2",
            "ticks": 272832,
            "time": 121.799594,
            "velocity": 0.3937007874015748
          },
          {
            "duration": 0.042856999999997925,
            "durationTicks": 96,
            "midi": 50,
            "name": "D3",
            "ticks": 273216,
            "time": 121.971022,
            "velocity": 0.3937007874015748
          },
          {
            "duration": 0.042856999999997925,
            "durationTicks": 96,
            "midi": 36,
            "name": "C2",
            "ticks": 273600,
            "time": 122.14245,
            "velocity": 0.3937007874015748
          },
          {
            "duration": 0.042856999999997925,
            "durationTicks": 96,
            "midi": 48,
            "name": "C3",
            "ticks": 273984,
            "time": 122.313878,
            "velocity": 0.3937007874015748
          },
          {
            "duration": 0.042856999999997925,
            "durationTicks": 96,
            "midi": 35,
            "name": "B1",
            "ticks": 274368,
            "time": 122.485306,
            "velocity": 0.3937007874015748
          },
          {
            "duration": 0.042856999999997925,
            "durationTicks": 96,
            "midi": 47,
            "name": "B2",
            "ticks": 274752,
            "time": 122.656734,
            "velocity": 0.3937007874015748
          },
          {
            "duration": 0.042857000000012135,
            "durationTicks": 96,
            "midi": 33,
            "name": "A1",
            "ticks": 275136,
            "time": 122.82816199999999,
            "velocity": 0.3937007874015748
          },
          {
            "duration": 0.042856999999997925,
            "durationTicks": 96,
            "midi": 45,
            "name": "A2",
            "ticks": 275520,
            "time": 122.99959,
            "velocity": 0.3937007874015748
          },
          {
            "duration": 0.042856999999997925,
            "durationTicks": 96,
            "midi": 33,
            "name": "A1",
            "ticks": 275904,
            "time": 123.171018,
            "velocity": 0.3937007874015748
          },
          {
            "duration": 0.042856999999997925,
            "durationTicks": 96,
            "midi": 45,
            "name": "A2",
            "ticks": 276288,
            "time": 123.342446,
            "velocity": 0.3937007874015748
          },
          {
            "duration": 0.042856999999997925,
            "durationTicks": 96,
            "midi": 33,
            "name": "A1",
            "ticks": 276672,
            "time": 123.513874,
            "velocity": 0.3937007874015748
          },
          {
            "duration": 0.042856999999997925,
            "durationTicks": 96,
            "midi": 45,
            "name": "A2",
            "ticks": 277056,
            "time": 123.685302,
            "velocity": 0.3937007874015748
          },
          {
            "duration": 0.042856999999997925,
            "durationTicks": 96,
            "midi": 33,
            "name": "A1",
            "ticks": 277440,
            "time": 123.85673,
            "velocity": 0.3937007874015748
          },
          {
            "duration": 0.042856999999997925,
            "durationTicks": 96,
            "midi": 45,
            "name": "A2",
            "ticks": 277824,
            "time": 124.028158,
            "velocity": 0.3937007874015748
          },
          {
            "duration": 0.042856999999997925,
            "durationTicks": 96,
            "midi": 36,
            "name": "C2",
            "ticks": 278208,
            "time": 124.199586,
            "velocity": 0.3937007874015748
          },
          {
            "duration": 0.042856999999997925,
            "durationTicks": 96,
            "midi": 48,
            "name": "C3",
            "ticks": 278592,
            "time": 124.371014,
            "velocity": 0.3937007874015748
          },
          {
            "duration": 0.042856999999997925,
            "durationTicks": 96,
            "midi": 69,
            "name": "A4",
            "ticks": 278592,
            "time": 124.371014,
            "velocity": 0.3937007874015748
          },
          {
            "duration": 0.042856999999997925,
            "durationTicks": 96,
            "midi": 36,
            "name": "C2",
            "ticks": 278976,
            "time": 124.542442,
            "velocity": 0.3937007874015748
          },
          {
            "duration": 0.042856999999997925,
            "durationTicks": 96,
            "midi": 69,
            "name": "A4",
            "ticks": 278976,
            "time": 124.542442,
            "velocity": 0.3937007874015748
          },
          {
            "duration": 0.042856999999997925,
            "durationTicks": 96,
            "midi": 48,
            "name": "C3",
            "ticks": 279360,
            "time": 124.71387,
            "velocity": 0.3937007874015748
          },
          {
            "duration": 0.042856999999997925,
            "durationTicks": 96,
            "midi": 69,
            "name": "A4",
            "ticks": 279360,
            "time": 124.71387,
            "velocity": 0.3937007874015748
          },
          {
            "duration": 0.042857000000012135,
            "durationTicks": 96,
            "midi": 36,
            "name": "C2",
            "ticks": 279744,
            "time": 124.88529799999999,
            "velocity": 0.3937007874015748
          },
          {
            "duration": 0.042857000000012135,
            "durationTicks": 96,
            "midi": 69,
            "name": "A4",
            "ticks": 279744,
            "time": 124.88529799999999,
            "velocity": 0.3937007874015748
          },
          {
            "duration": 0.042856999999997925,
            "durationTicks": 96,
            "midi": 69,
            "name": "A4",
            "ticks": 280128,
            "time": 125.056726,
            "velocity": 0.3937007874015748
          },
          {
            "duration": 0.042856999999997925,
            "durationTicks": 96,
            "midi": 48,
            "name": "C3",
            "ticks": 280128,
            "time": 125.056726,
            "velocity": 0.3937007874015748
          },
          {
            "duration": 0.042856999999997925,
            "durationTicks": 96,
            "midi": 36,
            "name": "C2",
            "ticks": 280512,
            "time": 125.228154,
            "velocity": 0.3937007874015748
          },
          {
            "duration": 0.042856999999997925,
            "durationTicks": 96,
            "midi": 48,
            "name": "C3",
            "ticks": 280896,
            "time": 125.399582,
            "velocity": 0.3937007874015748
          },
          {
            "duration": 0.042856999999997925,
            "durationTicks": 96,
            "midi": 41,
            "name": "F2",
            "ticks": 281280,
            "time": 125.57101,
            "velocity": 0.3937007874015748
          },
          {
            "duration": 0.042856999999997925,
            "durationTicks": 96,
            "midi": 53,
            "name": "F3",
            "ticks": 281664,
            "time": 125.74243799999999,
            "velocity": 0.3937007874015748
          },
          {
            "duration": 0.042856999999997925,
            "durationTicks": 96,
            "midi": 41,
            "name": "F2",
            "ticks": 282048,
            "time": 125.913866,
            "velocity": 0.3937007874015748
          },
          {
            "duration": 0.042856999999997925,
            "durationTicks": 96,
            "midi": 53,
            "name": "F3",
            "ticks": 282432,
            "time": 126.085294,
            "velocity": 0.3937007874015748
          },
          {
            "duration": 0.042856999999997925,
            "durationTicks": 96,
            "midi": 41,
            "name": "F2",
            "ticks": 282816,
            "time": 126.256722,
            "velocity": 0.3937007874015748
          },
          {
            "duration": 0.042856999999997925,
            "durationTicks": 96,
            "midi": 53,
            "name": "F3",
            "ticks": 283200,
            "time": 126.42815,
            "velocity": 0.3937007874015748
          },
          {
            "duration": 0.042856999999997925,
            "durationTicks": 96,
            "midi": 41,
            "name": "F2",
            "ticks": 283584,
            "time": 126.599578,
            "velocity": 0.3937007874015748
          },
          {
            "duration": 0.042856999999997925,
            "durationTicks": 96,
            "midi": 53,
            "name": "F3",
            "ticks": 283968,
            "time": 126.771006,
            "velocity": 0.3937007874015748
          },
          {
            "duration": 0.042857000000012135,
            "durationTicks": 96,
            "midi": 40,
            "name": "E2",
            "ticks": 284352,
            "time": 126.94243399999999,
            "velocity": 0.3937007874015748
          },
          {
            "duration": 0.042856999999997925,
            "durationTicks": 96,
            "midi": 40,
            "name": "E2",
            "ticks": 284736,
            "time": 127.113862,
            "velocity": 0.3937007874015748
          },
          {
            "duration": 0.042856999999997925,
            "durationTicks": 96,
            "midi": 40,
            "name": "E2",
            "ticks": 285120,
            "time": 127.28529,
            "velocity": 0.3937007874015748
          },
          {
            "duration": 0.042856999999997925,
            "durationTicks": 96,
            "midi": 40,
            "name": "E2",
            "ticks": 285504,
            "time": 127.456718,
            "velocity": 0.3937007874015748
          },
          {
            "duration": 0.042856999999997925,
            "durationTicks": 96,
            "midi": 40,
            "name": "E2",
            "ticks": 285888,
            "time": 127.628146,
            "velocity": 0.3937007874015748
          },
          {
            "duration": 0.042857000000012135,
            "durationTicks": 96,
            "midi": 40,
            "name": "E2",
            "ticks": 286272,
            "time": 127.79957399999999,
            "velocity": 0.3937007874015748
          },
          {
            "duration": 0.042856999999997925,
            "durationTicks": 96,
            "midi": 40,
            "name": "E2",
            "ticks": 286656,
            "time": 127.971002,
            "velocity": 0.3937007874015748
          },
          {
            "duration": 0.042856999999997925,
            "durationTicks": 96,
            "midi": 40,
            "name": "E2",
            "ticks": 287040,
            "time": 128.14243,
            "velocity": 0.3937007874015748
          },
          {
            "duration": 0.042856999999997925,
            "durationTicks": 96,
            "midi": 52,
            "name": "E3",
            "ticks": 334272,
            "time": 149.228074,
            "velocity": 0.3937007874015748
          },
          {
            "duration": 0.042856999999997925,
            "durationTicks": 96,
            "midi": 40,
            "name": "E2",
            "ticks": 334272,
            "time": 149.228074,
            "velocity": 0.3937007874015748
          },
          {
            "duration": 0.042856999999997925,
            "durationTicks": 96,
            "midi": 52,
            "name": "E3",
            "ticks": 334272,
            "time": 149.228074,
            "velocity": 0.3937007874015748
          },
          {
            "duration": 0.042856999999997925,
            "durationTicks": 96,
            "midi": 40,
            "name": "E2",
            "ticks": 334272,
            "time": 149.228074,
            "velocity": 0.3937007874015748
          },
          {
            "duration": 0.042856999999997925,
            "durationTicks": 96,
            "midi": 40,
            "name": "E2",
            "ticks": 334272,
            "time": 149.228074,
            "velocity": 0.3937007874015748
          },
          {
            "duration": 0.042856999999997925,
            "durationTicks": 96,
            "midi": 52,
            "name": "E3",
            "ticks": 334272,
            "time": 149.228074,
            "velocity": 0.3937007874015748
          },
          {
            "duration": 0.042856999999997925,
            "durationTicks": 96,
            "midi": 40,
            "name": "E2",
            "ticks": 334272,
            "time": 149.228074,
            "velocity": 0.3937007874015748
          },
          {
            "duration": 0.042856999999997925,
            "durationTicks": 96,
            "midi": 33,
            "name": "A1",
            "ticks": 335040,
            "time": 149.57093,
            "velocity": 0.3937007874015748
          },
          {
            "duration": 0.042856999999997925,
            "durationTicks": 96,
            "midi": 33,
            "name": "A1",
            "ticks": 335040,
            "time": 149.57093,
            "velocity": 0.3937007874015748
          },
          {
            "duration": 0.042856999999997925,
            "durationTicks": 96,
            "midi": 45,
            "name": "A2",
            "ticks": 335040,
            "time": 149.57093,
            "velocity": 0.3937007874015748
          },
          {
            "duration": 0.042856999999997925,
            "durationTicks": 96,
            "midi": 45,
            "name": "A2",
            "ticks": 335040,
            "time": 149.57093,
            "velocity": 0.3937007874015748
          },
          {
            "duration": 0.042856999999997925,
            "durationTicks": 96,
            "midi": 33,
            "name": "A1",
            "ticks": 335040,
            "time": 149.57093,
            "velocity": 0.3937007874015748
          },
          {
            "duration": 0.042856999999997925,
            "durationTicks": 96,
            "midi": 45,
            "name": "A2",
            "ticks": 335040,
            "time": 149.57093,
            "velocity": 0.3937007874015748
          },
          {
            "duration": 0.042856999999997925,
            "durationTicks": 96,
            "midi": 33,
            "name": "A1",
            "ticks": 335040,
            "time": 149.57093,
            "velocity": 0.3937007874015748
          }
        ],
        "endOfTrackTicks": 335136
      },
      {
        "channel": 11,
        "controlChanges": {},
        "pitchBends": [],
        "instrument": {
          "family": "piano",
          "number": 6,
          "name": "harpsichord"
        },
        "name": "Harpsichord",
        "notes": [
          {
            "duration": 0.042856999999997925,
            "durationTicks": 96,
            "midi": 64,
            "name": "E4",
            "ticks": 325008,
            "time": 145.0923735,
            "velocity": 0.2283464566929134
          },
          {
            "duration": 0.042856999999997925,
            "durationTicks": 96,
            "midi": 69,
            "name": "A4",
            "ticks": 325008,
            "time": 145.0923735,
            "velocity": 0.2283464566929134
          },
          {
            "duration": 0.042856999999997925,
            "durationTicks": 96,
            "midi": 68,
            "name": "G#4",
            "ticks": 325776,
            "time": 145.4352295,
            "velocity": 0.2283464566929134
          },
          {
            "duration": 0.042856999999997925,
            "durationTicks": 96,
            "midi": 62,
            "name": "D4",
            "ticks": 325776,
            "time": 145.4352295,
            "velocity": 0.2283464566929134
          },
          {
            "duration": 0.042856999999997925,
            "durationTicks": 96,
            "midi": 71,
            "name": "B4",
            "ticks": 326544,
            "time": 145.7780855,
            "velocity": 0.2283464566929134
          },
          {
            "duration": 0.042856999999997925,
            "durationTicks": 96,
            "midi": 69,
            "name": "A4",
            "ticks": 327312,
            "time": 146.1209415,
            "velocity": 0.2283464566929134
          },
          {
            "duration": 0.042856999999997925,
            "durationTicks": 96,
            "midi": 64,
            "name": "E4",
            "ticks": 327312,
            "time": 146.1209415,
            "velocity": 0.2283464566929134
          },
          {
            "duration": 0.042856999999997925,
            "durationTicks": 96,
            "midi": 64,
            "name": "E4",
            "ticks": 328464,
            "time": 146.6352255,
            "velocity": 0.2283464566929134
          },
          {
            "duration": 0.042856999999997925,
            "durationTicks": 96,
            "midi": 60,
            "name": "C4",
            "ticks": 328848,
            "time": 146.8066535,
            "velocity": 0.2283464566929134
          },
          {
            "duration": 0.042856999999997925,
            "durationTicks": 96,
            "midi": 64,
            "name": "E4",
            "ticks": 328848,
            "time": 146.8066535,
            "velocity": 0.2283464566929134
          },
          {
            "duration": 0.042856999999997925,
            "durationTicks": 96,
            "midi": 62,
            "name": "D4",
            "ticks": 329616,
            "time": 147.1495095,
            "velocity": 0.2283464566929134
          },
          {
            "duration": 0.042856999999997925,
            "durationTicks": 96,
            "midi": 60,
            "name": "C4",
            "ticks": 330384,
            "time": 147.4923655,
            "velocity": 0.2283464566929134
          },
          {
            "duration": 0.042856999999997925,
            "durationTicks": 96,
            "midi": 50,
            "name": "D3",
            "ticks": 330384,
            "time": 147.4923655,
            "velocity": 0.2283464566929134
          },
          {
            "duration": 0.042856999999997925,
            "durationTicks": 96,
            "midi": 64,
            "name": "E4",
            "ticks": 331920,
            "time": 148.1780775,
            "velocity": 0.2283464566929134
          },
          {
            "duration": 0.042856999999997925,
            "durationTicks": 96,
            "midi": 59,
            "name": "B3",
            "ticks": 331920,
            "time": 148.1780775,
            "velocity": 0.2283464566929134
          },
          {
            "duration": 0.042856999999997925,
            "durationTicks": 96,
            "midi": 56,
            "name": "G#3",
            "ticks": 331920,
            "time": 148.1780775,
            "velocity": 0.2283464566929134
          },
          {
            "duration": 0.042856999999997925,
            "durationTicks": 96,
            "midi": 52,
            "name": "E3",
            "ticks": 333456,
            "time": 148.8637895,
            "velocity": 0.2283464566929134
          },
          {
            "duration": 0.042856999999997925,
            "durationTicks": 96,
            "midi": 57,
            "name": "A3",
            "ticks": 333456,
            "time": 148.8637895,
            "velocity": 0.2283464566929134
          },
          {
            "duration": 0.042856999999997925,
            "durationTicks": 96,
            "midi": 48,
            "name": "C3",
            "ticks": 333456,
            "time": 148.8637895,
            "velocity": 0.2283464566929134
          }
        ],
        "endOfTrackTicks": 333552
      },
      {
        "channel": 12,
        "controlChanges": {},
        "pitchBends": [],
        "instrument": {
          "family": "piano",
          "number": 3,
          "name": "honky-tonk piano"
        },
        "name": "Ragtime Piano",
        "notes": [
          {
            "duration": 0.042856999999997925,
            "durationTicks": 96,
            "midi": 52,
            "name": "E3",
            "ticks": 334272,
            "time": 149.228074,
            "velocity": 0.3937007874015748
          },
          {
            "duration": 0.042856999999997925,
            "durationTicks": 96,
            "midi": 40,
            "name": "E2",
            "ticks": 334272,
            "time": 149.228074,
            "velocity": 0.3937007874015748
          },
          {
            "duration": 0.042856999999997925,
            "durationTicks": 96,
            "midi": 45,
            "name": "A2",
            "ticks": 335040,
            "time": 149.57093,
            "velocity": 0.3937007874015748
          },
          {
            "duration": 0.042856999999997925,
            "durationTicks": 96,
            "midi": 33,
            "name": "A1",
            "ticks": 335040,
            "time": 149.57093,
            "velocity": 0.3937007874015748
          }
        ],
        "endOfTrackTicks": 335136
      },
      {
        "channel": 13,
        "controlChanges": {},
        "pitchBends": [],
        "instrument": {
          "family": "guitar",
          "number": 28,
          "name": "electric guitar (muted)"
        },
        "name": "Muted E-Guitar",
        "notes": [
          {
            "duration": 0.042856999999997925,
            "durationTicks": 96,
            "midi": 44,
            "name": "G#2",
            "ticks": 57792,
            "time": 25.799914,
            "velocity": 0.3937007874015748
          },
          {
            "duration": 0.042856999999997925,
            "durationTicks": 96,
            "midi": 32,
            "name": "G#1",
            "ticks": 57792,
            "time": 25.799914,
            "velocity": 0.3937007874015748
          },
          {
            "duration": 0.04285700000000148,
            "durationTicks": 96,
            "midi": 45,
            "name": "A2",
            "ticks": 58560,
            "time": 26.14277,
            "velocity": 0.3937007874015748
          },
          {
            "duration": 0.04285700000000148,
            "durationTicks": 96,
            "midi": 33,
            "name": "A1",
            "ticks": 58560,
            "time": 26.14277,
            "velocity": 0.3937007874015748
          },
          {
            "duration": 0.042856999999997925,
            "durationTicks": 96,
            "midi": 35,
            "name": "B1",
            "ticks": 59328,
            "time": 26.485626,
            "velocity": 0.3937007874015748
          },
          {
            "duration": 0.042856999999997925,
            "durationTicks": 96,
            "midi": 47,
            "name": "B2",
            "ticks": 59328,
            "time": 26.485626,
            "velocity": 0.3937007874015748
          },
          {
            "duration": 0.04285700000000148,
            "durationTicks": 96,
            "midi": 49,
            "name": "C#3",
            "ticks": 63936,
            "time": 28.542762,
            "velocity": 0.3937007874015748
          },
          {
            "duration": 0.04285700000000148,
            "durationTicks": 96,
            "midi": 37,
            "name": "C#2",
            "ticks": 63936,
            "time": 28.542762,
            "velocity": 0.3937007874015748
          },
          {
            "duration": 0.042856999999997925,
            "durationTicks": 96,
            "midi": 50,
            "name": "D3",
            "ticks": 64704,
            "time": 28.885618,
            "velocity": 0.3937007874015748
          },
          {
            "duration": 0.042856999999997925,
            "durationTicks": 96,
            "midi": 38,
            "name": "D2",
            "ticks": 64704,
            "time": 28.885618,
            "velocity": 0.3937007874015748
          },
          {
            "duration": 0.04285700000000148,
            "durationTicks": 96,
            "midi": 40,
            "name": "E2",
            "ticks": 65472,
            "time": 29.228474,
            "velocity": 0.3937007874015748
          },
          {
            "duration": 0.04285700000000148,
            "durationTicks": 96,
            "midi": 52,
            "name": "E3",
            "ticks": 65472,
            "time": 29.228474,
            "velocity": 0.3937007874015748
          },
          {
            "duration": 0.042856999999997925,
            "durationTicks": 96,
            "midi": 32,
            "name": "G#1",
            "ticks": 82368,
            "time": 36.771306,
            "velocity": 0.3937007874015748
          },
          {
            "duration": 0.042856999999997925,
            "durationTicks": 96,
            "midi": 44,
            "name": "G#2",
            "ticks": 82368,
            "time": 36.771306,
            "velocity": 0.3937007874015748
          },
          {
            "duration": 0.042856999999997925,
            "durationTicks": 96,
            "midi": 33,
            "name": "A1",
            "ticks": 83136,
            "time": 37.114162,
            "velocity": 0.3937007874015748
          },
          {
            "duration": 0.042856999999997925,
            "durationTicks": 96,
            "midi": 45,
            "name": "A2",
            "ticks": 83136,
            "time": 37.114162,
            "velocity": 0.3937007874015748
          },
          {
            "duration": 0.042856999999997925,
            "durationTicks": 96,
            "midi": 47,
            "name": "B2",
            "ticks": 83904,
            "time": 37.457018,
            "velocity": 0.3937007874015748
          },
          {
            "duration": 0.042856999999997925,
            "durationTicks": 96,
            "midi": 35,
            "name": "B1",
            "ticks": 83904,
            "time": 37.457018,
            "velocity": 0.3937007874015748
          },
          {
            "duration": 0.04285700000000503,
            "durationTicks": 96,
            "midi": 37,
            "name": "C#2",
            "ticks": 88512,
            "time": 39.514154,
            "velocity": 0.3937007874015748
          },
          {
            "duration": 0.04285700000000503,
            "durationTicks": 96,
            "midi": 49,
            "name": "C#3",
            "ticks": 88512,
            "time": 39.514154,
            "velocity": 0.3937007874015748
          },
          {
            "duration": 0.042856999999997925,
            "durationTicks": 96,
            "midi": 50,
            "name": "D3",
            "ticks": 89280,
            "time": 39.85701,
            "velocity": 0.3937007874015748
          },
          {
            "duration": 0.042856999999997925,
            "durationTicks": 96,
            "midi": 38,
            "name": "D2",
            "ticks": 89280,
            "time": 39.85701,
            "velocity": 0.3937007874015748
          },
          {
            "duration": 0.042856999999997925,
            "durationTicks": 96,
            "midi": 40,
            "name": "E2",
            "ticks": 90048,
            "time": 40.199866,
            "velocity": 0.3937007874015748
          },
          {
            "duration": 0.042856999999997925,
            "durationTicks": 96,
            "midi": 52,
            "name": "E3",
            "ticks": 90048,
            "time": 40.199866,
            "velocity": 0.3937007874015748
          },
          {
            "duration": 0.042856999999997925,
            "durationTicks": 96,
            "midi": 52,
            "name": "E3",
            "ticks": 103104,
            "time": 46.028418,
            "velocity": 0.3937007874015748
          },
          {
            "duration": 0.042856999999997925,
            "durationTicks": 96,
            "midi": 60,
            "name": "C4",
            "ticks": 103104,
            "time": 46.028418,
            "velocity": 0.3937007874015748
          },
          {
            "duration": 0.042856999999997925,
            "durationTicks": 96,
            "midi": 26,
            "name": "D1",
            "ticks": 103104,
            "time": 46.028418,
            "velocity": 0.3937007874015748
          },
          {
            "duration": 0.042856999999997925,
            "durationTicks": 96,
            "midi": 24,
            "name": "C1",
            "ticks": 103104,
            "time": 46.028418,
            "velocity": 0.3937007874015748
          },
          {
            "duration": 0.042856999999997925,
            "durationTicks": 96,
            "midi": 28,
            "name": "E1",
            "ticks": 103104,
            "time": 46.028418,
            "velocity": 0.3937007874015748
          },
          {
            "duration": 0.042856999999997925,
            "durationTicks": 96,
            "midi": 57,
            "name": "A3",
            "ticks": 103104,
            "time": 46.028418,
            "velocity": 0.3937007874015748
          },
          {
            "duration": 0.042856999999997925,
            "durationTicks": 96,
            "midi": 33,
            "name": "A1",
            "ticks": 103104,
            "time": 46.028418,
            "velocity": 0.3937007874015748
          },
          {
            "duration": 0.042856999999997925,
            "durationTicks": 96,
            "midi": 45,
            "name": "A2",
            "ticks": 103872,
            "time": 46.371274,
            "velocity": 0.3937007874015748
          },
          {
            "duration": 0.042856999999997925,
            "durationTicks": 96,
            "midi": 24,
            "name": "C1",
            "ticks": 103872,
            "time": 46.371274,
            "velocity": 0.3937007874015748
          },
          {
            "duration": 0.042856999999997925,
            "durationTicks": 96,
            "midi": 33,
            "name": "A1",
            "ticks": 104256,
            "time": 46.542702,
            "velocity": 0.3937007874015748
          },
          {
            "duration": 0.04285700000000503,
            "durationTicks": 96,
            "midi": 57,
            "name": "A3",
            "ticks": 104640,
            "time": 46.71413,
            "velocity": 0.3937007874015748
          },
          {
            "duration": 0.04285700000000503,
            "durationTicks": 96,
            "midi": 33,
            "name": "A1",
            "ticks": 104640,
            "time": 46.71413,
            "velocity": 0.3937007874015748
          },
          {
            "duration": 0.04285700000000503,
            "durationTicks": 96,
            "midi": 57,
            "name": "A3",
            "ticks": 105024,
            "time": 46.885557999999996,
            "velocity": 0.3937007874015748
          },
          {
            "duration": 0.04285700000000503,
            "durationTicks": 96,
            "midi": 33,
            "name": "A1",
            "ticks": 105024,
            "time": 46.885557999999996,
            "velocity": 0.3937007874015748
          },
          {
            "duration": 0.042856999999997925,
            "durationTicks": 96,
            "midi": 24,
            "name": "C1",
            "ticks": 105408,
            "time": 47.056986,
            "velocity": 0.3937007874015748
          },
          {
            "duration": 0.042856999999997925,
            "durationTicks": 96,
            "midi": 60,
            "name": "C4",
            "ticks": 105408,
            "time": 47.056986,
            "velocity": 0.3937007874015748
          },
          {
            "duration": 0.042856999999997925,
            "durationTicks": 96,
            "midi": 52,
            "name": "E3",
            "ticks": 105408,
            "time": 47.056986,
            "velocity": 0.3937007874015748
          },
          {
            "duration": 0.042856999999997925,
            "durationTicks": 96,
            "midi": 57,
            "name": "A3",
            "ticks": 105408,
            "time": 47.056986,
            "velocity": 0.3937007874015748
          },
          {
            "duration": 0.042856999999997925,
            "durationTicks": 96,
            "midi": 33,
            "name": "A1",
            "ticks": 105792,
            "time": 47.228414,
            "velocity": 0.3937007874015748
          },
          {
            "duration": 0.042856999999997925,
            "durationTicks": 96,
            "midi": 62,
            "name": "D4",
            "ticks": 106176,
            "time": 47.399842,
            "velocity": 0.3937007874015748
          },
          {
            "duration": 0.042856999999997925,
            "durationTicks": 96,
            "midi": 56,
            "name": "G#3",
            "ticks": 106176,
            "time": 47.399842,
            "velocity": 0.3937007874015748
          },
          {
            "duration": 0.042856999999997925,
            "durationTicks": 96,
            "midi": 59,
            "name": "B3",
            "ticks": 106176,
            "time": 47.399842,
            "velocity": 0.3937007874015748
          },
          {
            "duration": 0.042856999999997925,
            "durationTicks": 96,
            "midi": 24,
            "name": "C1",
            "ticks": 106176,
            "time": 47.399842,
            "velocity": 0.3937007874015748
          },
          {
            "duration": 0.042856999999997925,
            "durationTicks": 96,
            "midi": 53,
            "name": "F3",
            "ticks": 106176,
            "time": 47.399842,
            "velocity": 0.3937007874015748
          },
          {
            "duration": 0.04285700000000503,
            "durationTicks": 96,
            "midi": 24,
            "name": "C1",
            "ticks": 106944,
            "time": 47.742698,
            "velocity": 0.3937007874015748
          },
          {
            "duration": 0.04285700000000503,
            "durationTicks": 96,
            "midi": 33,
            "name": "A1",
            "ticks": 107328,
            "time": 47.914125999999996,
            "velocity": 0.3937007874015748
          },
          {
            "duration": 0.042856999999997925,
            "durationTicks": 96,
            "midi": 24,
            "name": "C1",
            "ticks": 108096,
            "time": 48.256982,
            "velocity": 0.3937007874015748
          },
          {
            "duration": 0.042856999999997925,
            "durationTicks": 96,
            "midi": 33,
            "name": "A1",
            "ticks": 108480,
            "time": 48.42841,
            "velocity": 0.3937007874015748
          },
          {
            "duration": 0.042856999999997925,
            "durationTicks": 96,
            "midi": 24,
            "name": "C1",
            "ticks": 108864,
            "time": 48.599838,
            "velocity": 0.3937007874015748
          },
          {
            "duration": 0.04285700000000503,
            "durationTicks": 96,
            "midi": 59,
            "name": "B3",
            "ticks": 109248,
            "time": 48.771266,
            "velocity": 0.3937007874015748
          },
          {
            "duration": 0.04285700000000503,
            "durationTicks": 96,
            "midi": 50,
            "name": "D3",
            "ticks": 109248,
            "time": 48.771266,
            "velocity": 0.3937007874015748
          },
          {
            "duration": 0.04285700000000503,
            "durationTicks": 96,
            "midi": 24,
            "name": "C1",
            "ticks": 109248,
            "time": 48.771266,
            "velocity": 0.3937007874015748
          },
          {
            "duration": 0.04285700000000503,
            "durationTicks": 96,
            "midi": 53,
            "name": "F3",
            "ticks": 109248,
            "time": 48.771266,
            "velocity": 0.3937007874015748
          },
          {
            "duration": 0.04285700000000503,
            "durationTicks": 96,
            "midi": 56,
            "name": "G#3",
            "ticks": 109248,
            "time": 48.771266,
            "velocity": 0.3937007874015748
          },
          {
            "duration": 0.042856999999997925,
            "durationTicks": 96,
            "midi": 45,
            "name": "A2",
            "ticks": 110016,
            "time": 49.114122,
            "velocity": 0.3937007874015748
          },
          {
            "duration": 0.042856999999997925,
            "durationTicks": 96,
            "midi": 24,
            "name": "C1",
            "ticks": 110016,
            "time": 49.114122,
            "velocity": 0.3937007874015748
          },
          {
            "duration": 0.042856999999997925,
            "durationTicks": 96,
            "midi": 33,
            "name": "A1",
            "ticks": 110016,
            "time": 49.114122,
            "velocity": 0.3937007874015748
          },
          {
            "duration": 0.042856999999997925,
            "durationTicks": 96,
            "midi": 33,
            "name": "A1",
            "ticks": 110400,
            "time": 49.28555,
            "velocity": 0.3937007874015748
          },
          {
            "duration": 0.042856999999997925,
            "durationTicks": 96,
            "midi": 24,
            "name": "C1",
            "ticks": 110400,
            "time": 49.28555,
            "velocity": 0.3937007874015748
          },
          {
            "duration": 0.042856999999997925,
            "durationTicks": 96,
            "midi": 45,
            "name": "A2",
            "ticks": 110400,
            "time": 49.28555,
            "velocity": 0.3937007874015748
          },
          {
            "duration": 0.042856999999997925,
            "durationTicks": 96,
            "midi": 45,
            "name": "A2",
            "ticks": 110784,
            "time": 49.456978,
            "velocity": 0.3937007874015748
          },
          {
            "duration": 0.042856999999997925,
            "durationTicks": 96,
            "midi": 24,
            "name": "C1",
            "ticks": 110784,
            "time": 49.456978,
            "velocity": 0.3937007874015748
          },
          {
            "duration": 0.042856999999997925,
            "durationTicks": 96,
            "midi": 33,
            "name": "A1",
            "ticks": 110784,
            "time": 49.456978,
            "velocity": 0.3937007874015748
          },
          {
            "duration": 0.042856999999997925,
            "durationTicks": 96,
            "midi": 33,
            "name": "A1",
            "ticks": 111168,
            "time": 49.628406,
            "velocity": 0.3937007874015748
          },
          {
            "duration": 0.042856999999997925,
            "durationTicks": 96,
            "midi": 45,
            "name": "A2",
            "ticks": 111168,
            "time": 49.628406,
            "velocity": 0.3937007874015748
          },
          {
            "duration": 0.042856999999997925,
            "durationTicks": 96,
            "midi": 24,
            "name": "C1",
            "ticks": 111168,
            "time": 49.628406,
            "velocity": 0.3937007874015748
          },
          {
            "duration": 0.04285700000000503,
            "durationTicks": 96,
            "midi": 45,
            "name": "A2",
            "ticks": 111552,
            "time": 49.799834,
            "velocity": 0.3937007874015748
          },
          {
            "duration": 0.04285700000000503,
            "durationTicks": 96,
            "midi": 33,
            "name": "A1",
            "ticks": 111552,
            "time": 49.799834,
            "velocity": 0.3937007874015748
          },
          {
            "duration": 0.04285700000000503,
            "durationTicks": 96,
            "midi": 24,
            "name": "C1",
            "ticks": 111552,
            "time": 49.799834,
            "velocity": 0.3937007874015748
          },
          {
            "duration": 0.04285700000000503,
            "durationTicks": 96,
            "midi": 24,
            "name": "C1",
            "ticks": 111936,
            "time": 49.971261999999996,
            "velocity": 0.3937007874015748
          },
          {
            "duration": 0.04285700000000503,
            "durationTicks": 96,
            "midi": 33,
            "name": "A1",
            "ticks": 111936,
            "time": 49.971261999999996,
            "velocity": 0.3937007874015748
          },
          {
            "duration": 0.04285700000000503,
            "durationTicks": 96,
            "midi": 45,
            "name": "A2",
            "ticks": 111936,
            "time": 49.971261999999996,
            "velocity": 0.3937007874015748
          },
          {
            "duration": 0.042856999999997925,
            "durationTicks": 96,
            "midi": 36,
            "name": "C2",
            "ticks": 112320,
            "time": 50.14269,
            "velocity": 0.3937007874015748
          },
          {
            "duration": 0.042856999999997925,
            "durationTicks": 96,
            "midi": 60,
            "name": "C4",
            "ticks": 112320,
            "time": 50.14269,
            "velocity": 0.3937007874015748
          },
          {
            "duration": 0.042856999999997925,
            "durationTicks": 96,
            "midi": 52,
            "name": "E3",
            "ticks": 112704,
            "time": 50.314118,
            "velocity": 0.3937007874015748
          },
          {
            "duration": 0.042856999999997925,
            "durationTicks": 96,
            "midi": 28,
            "name": "E1",
            "ticks": 112704,
            "time": 50.314118,
            "velocity": 0.3937007874015748
          },
          {
            "duration": 0.042856999999997925,
            "durationTicks": 96,
            "midi": 59,
            "name": "B3",
            "ticks": 113088,
            "time": 50.485546,
            "velocity": 0.3937007874015748
          },
          {
            "duration": 0.042856999999997925,
            "durationTicks": 96,
            "midi": 35,
            "name": "B1",
            "ticks": 113088,
            "time": 50.485546,
            "velocity": 0.3937007874015748
          },
          {
            "duration": 0.042856999999997925,
            "durationTicks": 96,
            "midi": 28,
            "name": "E1",
            "ticks": 113472,
            "time": 50.656974,
            "velocity": 0.3937007874015748
          },
          {
            "duration": 0.042856999999997925,
            "durationTicks": 96,
            "midi": 52,
            "name": "E3",
            "ticks": 113472,
            "time": 50.656974,
            "velocity": 0.3937007874015748
          },
          {
            "duration": 0.04285700000000503,
            "durationTicks": 96,
            "midi": 57,
            "name": "A3",
            "ticks": 113856,
            "time": 50.828402,
            "velocity": 0.3937007874015748
          },
          {
            "duration": 0.04285700000000503,
            "durationTicks": 96,
            "midi": 33,
            "name": "A1",
            "ticks": 113856,
            "time": 50.828402,
            "velocity": 0.3937007874015748
          },
          {
            "duration": 0.04285700000000503,
            "durationTicks": 96,
            "midi": 33,
            "name": "A1",
            "ticks": 114240,
            "time": 50.999829999999996,
            "velocity": 0.3937007874015748
          },
          {
            "duration": 0.042856999999997925,
            "durationTicks": 96,
            "midi": 33,
            "name": "A1",
            "ticks": 114624,
            "time": 51.171258,
            "velocity": 0.3937007874015748
          },
          {
            "duration": 0.042856999999997925,
            "durationTicks": 96,
            "midi": 45,
            "name": "A2",
            "ticks": 115008,
            "time": 51.342686,
            "velocity": 0.3937007874015748
          },
          {
            "duration": 0.042856999999997925,
            "durationTicks": 96,
            "midi": 33,
            "name": "A1",
            "ticks": 115392,
            "time": 51.514114,
            "velocity": 0.3937007874015748
          },
          {
            "duration": 0.042856999999997925,
            "durationTicks": 96,
            "midi": 64,
            "name": "E4",
            "ticks": 115392,
            "time": 51.514114,
            "velocity": 0.3937007874015748
          },
          {
            "duration": 0.042856999999997925,
            "durationTicks": 96,
            "midi": 57,
            "name": "A3",
            "ticks": 115392,
            "time": 51.514114,
            "velocity": 0.3937007874015748
          },
          {
            "duration": 0.042856999999997925,
            "durationTicks": 96,
            "midi": 60,
            "name": "C4",
            "ticks": 115392,
            "time": 51.514114,
            "velocity": 0.3937007874015748
          },
          {
            "duration": 0.04285700000000503,
            "durationTicks": 96,
            "midi": 33,
            "name": "A1",
            "ticks": 116160,
            "time": 51.85697,
            "velocity": 0.3937007874015748
          },
          {
            "duration": 0.04285700000000503,
            "durationTicks": 96,
            "midi": 45,
            "name": "A2",
            "ticks": 116544,
            "time": 52.028397999999996,
            "velocity": 0.3937007874015748
          },
          {
            "duration": 0.042856999999997925,
            "durationTicks": 96,
            "midi": 57,
            "name": "A3",
            "ticks": 116928,
            "time": 52.199826,
            "velocity": 0.3937007874015748
          },
          {
            "duration": 0.04285700000000503,
            "durationTicks": 96,
            "midi": 45,
            "name": "A2",
            "ticks": 117120,
            "time": 52.28554,
            "velocity": 0.3937007874015748
          },
          {
            "duration": 0.042856999999997925,
            "durationTicks": 96,
            "midi": 57,
            "name": "A3",
            "ticks": 117312,
            "time": 52.371254,
            "velocity": 0.3937007874015748
          },
          {
            "duration": 0.042856999999997925,
            "durationTicks": 96,
            "midi": 45,
            "name": "A2",
            "ticks": 117696,
            "time": 52.542682,
            "velocity": 0.3937007874015748
          },
          {
            "duration": 0.042856999999997925,
            "durationTicks": 96,
            "midi": 57,
            "name": "A3",
            "ticks": 118080,
            "time": 52.71411,
            "velocity": 0.3937007874015748
          },
          {
            "duration": 0.04285700000000503,
            "durationTicks": 96,
            "midi": 60,
            "name": "C4",
            "ticks": 118464,
            "time": 52.885538,
            "velocity": 0.3937007874015748
          },
          {
            "duration": 0.04285700000000503,
            "durationTicks": 96,
            "midi": 63,
            "name": "D#4",
            "ticks": 118464,
            "time": 52.885538,
            "velocity": 0.3937007874015748
          },
          {
            "duration": 0.04285700000000503,
            "durationTicks": 96,
            "midi": 57,
            "name": "A3",
            "ticks": 118464,
            "time": 52.885538,
            "velocity": 0.3937007874015748
          },
          {
            "duration": 0.04285700000000503,
            "durationTicks": 96,
            "midi": 33,
            "name": "A1",
            "ticks": 118464,
            "time": 52.885538,
            "velocity": 0.3937007874015748
          },
          {
            "duration": 0.042856999999997925,
            "durationTicks": 96,
            "midi": 33,
            "name": "A1",
            "ticks": 119232,
            "time": 53.228394,
            "velocity": 0.3937007874015748
          },
          {
            "duration": 0.042856999999997925,
            "durationTicks": 96,
            "midi": 45,
            "name": "A2",
            "ticks": 119616,
            "time": 53.399822,
            "velocity": 0.3937007874015748
          },
          {
            "duration": 0.042856999999997925,
            "durationTicks": 96,
            "midi": 33,
            "name": "A1",
            "ticks": 120384,
            "time": 53.742678,
            "velocity": 0.3937007874015748
          },
          {
            "duration": 0.04285700000000503,
            "durationTicks": 96,
            "midi": 45,
            "name": "A2",
            "ticks": 120768,
            "time": 53.914106,
            "velocity": 0.3937007874015748
          },
          {
            "duration": 0.04285700000000503,
            "durationTicks": 96,
            "midi": 33,
            "name": "A1",
            "ticks": 121152,
            "time": 54.085533999999996,
            "velocity": 0.3937007874015748
          },
          {
            "duration": 0.042856999999997925,
            "durationTicks": 96,
            "midi": 53,
            "name": "F3",
            "ticks": 121536,
            "time": 54.256962,
            "velocity": 0.3937007874015748
          },
          {
            "duration": 0.042856999999997925,
            "durationTicks": 96,
            "midi": 33,
            "name": "A1",
            "ticks": 121536,
            "time": 54.256962,
            "velocity": 0.3937007874015748
          },
          {
            "duration": 0.042856999999997925,
            "durationTicks": 96,
            "midi": 62,
            "name": "D4",
            "ticks": 121536,
            "time": 54.256962,
            "velocity": 0.3937007874015748
          },
          {
            "duration": 0.042856999999997925,
            "durationTicks": 96,
            "midi": 59,
            "name": "B3",
            "ticks": 121536,
            "time": 54.256962,
            "velocity": 0.3937007874015748
          },
          {
            "duration": 0.042856999999997925,
            "durationTicks": 96,
            "midi": 24,
            "name": "C1",
            "ticks": 122304,
            "time": 54.599818,
            "velocity": 0.3937007874015748
          },
          {
            "duration": 0.042856999999997925,
            "durationTicks": 96,
            "midi": 33,
            "name": "A1",
            "ticks": 122496,
            "time": 54.685532,
            "velocity": 0.3937007874015748
          },
          {
            "duration": 0.042856999999997925,
            "durationTicks": 96,
            "midi": 45,
            "name": "A2",
            "ticks": 122688,
            "time": 54.771246,
            "velocity": 0.3937007874015748
          },
          {
            "duration": 0.042856999999997925,
            "durationTicks": 96,
            "midi": 57,
            "name": "A3",
            "ticks": 122880,
            "time": 54.85696,
            "velocity": 0.3937007874015748
          },
          {
            "duration": 0.04285700000000503,
            "durationTicks": 96,
            "midi": 33,
            "name": "A1",
            "ticks": 123072,
            "time": 54.942674,
            "velocity": 0.3937007874015748
          },
          {
            "duration": 0.04285700000000503,
            "durationTicks": 96,
            "midi": 45,
            "name": "A2",
            "ticks": 123072,
            "time": 54.942674,
            "velocity": 0.3937007874015748
          },
          {
            "duration": 0.04285700000000503,
            "durationTicks": 96,
            "midi": 24,
            "name": "C1",
            "ticks": 123072,
            "time": 54.942674,
            "velocity": 0.3937007874015748
          },
          {
            "duration": 0.042856999999997925,
            "durationTicks": 96,
            "midi": 33,
            "name": "A1",
            "ticks": 123456,
            "time": 55.114102,
            "velocity": 0.3937007874015748
          },
          {
            "duration": 0.042856999999997925,
            "durationTicks": 96,
            "midi": 24,
            "name": "C1",
            "ticks": 123456,
            "time": 55.114102,
            "velocity": 0.3937007874015748
          },
          {
            "duration": 0.042856999999997925,
            "durationTicks": 96,
            "midi": 45,
            "name": "A2",
            "ticks": 123456,
            "time": 55.114102,
            "velocity": 0.3937007874015748
          },
          {
            "duration": 0.042856999999997925,
            "durationTicks": 96,
            "midi": 33,
            "name": "A1",
            "ticks": 123840,
            "time": 55.28553,
            "velocity": 0.3937007874015748
          },
          {
            "duration": 0.042856999999997925,
            "durationTicks": 96,
            "midi": 24,
            "name": "C1",
            "ticks": 123840,
            "time": 55.28553,
            "velocity": 0.3937007874015748
          },
          {
            "duration": 0.042856999999997925,
            "durationTicks": 96,
            "midi": 45,
            "name": "A2",
            "ticks": 123840,
            "time": 55.28553,
            "velocity": 0.3937007874015748
          },
          {
            "duration": 0.042856999999997925,
            "durationTicks": 96,
            "midi": 24,
            "name": "C1",
            "ticks": 124224,
            "time": 55.456958,
            "velocity": 0.3937007874015748
          },
          {
            "duration": 0.042856999999997925,
            "durationTicks": 96,
            "midi": 45,
            "name": "A2",
            "ticks": 124224,
            "time": 55.456958,
            "velocity": 0.3937007874015748
          },
          {
            "duration": 0.042856999999997925,
            "durationTicks": 96,
            "midi": 33,
            "name": "A1",
            "ticks": 124224,
            "time": 55.456958,
            "velocity": 0.3937007874015748
          },
          {
            "duration": 0.042856999999997925,
            "durationTicks": 96,
            "midi": 52,
            "name": "E3",
            "ticks": 124608,
            "time": 55.628386,
            "velocity": 0.3937007874015748
          },
          {
            "duration": 0.042856999999997925,
            "durationTicks": 96,
            "midi": 40,
            "name": "E2",
            "ticks": 124608,
            "time": 55.628386,
            "velocity": 0.3937007874015748
          },
          {
            "duration": 0.042856999999997925,
            "durationTicks": 96,
            "midi": 57,
            "name": "A3",
            "ticks": 124608,
            "time": 55.628386,
            "velocity": 0.3937007874015748
          },
          {
            "duration": 0.042856999999997925,
            "durationTicks": 96,
            "midi": 60,
            "name": "C4",
            "ticks": 124608,
            "time": 55.628386,
            "velocity": 0.3937007874015748
          },
          {
            "duration": 0.042856999999997925,
            "durationTicks": 96,
            "midi": 36,
            "name": "C2",
            "ticks": 124608,
            "time": 55.628386,
            "velocity": 0.3937007874015748
          },
          {
            "duration": 0.04285700000000503,
            "durationTicks": 96,
            "midi": 50,
            "name": "D3",
            "ticks": 125376,
            "time": 55.971242,
            "velocity": 0.3937007874015748
          },
          {
            "duration": 0.04285700000000503,
            "durationTicks": 96,
            "midi": 38,
            "name": "D2",
            "ticks": 125376,
            "time": 55.971242,
            "velocity": 0.3937007874015748
          },
          {
            "duration": 0.04285700000000503,
            "durationTicks": 96,
            "midi": 59,
            "name": "B3",
            "ticks": 125376,
            "time": 55.971242,
            "velocity": 0.3937007874015748
          },
          {
            "duration": 0.04285700000000503,
            "durationTicks": 96,
            "midi": 53,
            "name": "F3",
            "ticks": 125376,
            "time": 55.971242,
            "velocity": 0.3937007874015748
          },
          {
            "duration": 0.04285700000000503,
            "durationTicks": 96,
            "midi": 35,
            "name": "B1",
            "ticks": 125376,
            "time": 55.971242,
            "velocity": 0.3937007874015748
          },
          {
            "duration": 0.042856999999997925,
            "durationTicks": 96,
            "midi": 36,
            "name": "C2",
            "ticks": 126144,
            "time": 56.314098,
            "velocity": 0.3937007874015748
          },
          {
            "duration": 0.042856999999997925,
            "durationTicks": 96,
            "midi": 48,
            "name": "C3",
            "ticks": 126144,
            "time": 56.314098,
            "velocity": 0.3937007874015748
          },
          {
            "duration": 0.042856999999997925,
            "durationTicks": 96,
            "midi": 57,
            "name": "A3",
            "ticks": 126144,
            "time": 56.314098,
            "velocity": 0.3937007874015748
          },
          {
            "duration": 0.042856999999997925,
            "durationTicks": 96,
            "midi": 33,
            "name": "A1",
            "ticks": 126144,
            "time": 56.314098,
            "velocity": 0.3937007874015748
          },
          {
            "duration": 0.042856999999997925,
            "durationTicks": 96,
            "midi": 52,
            "name": "E3",
            "ticks": 126144,
            "time": 56.314098,
            "velocity": 0.3937007874015748
          },
          {
            "duration": 0.042856999999997925,
            "durationTicks": 96,
            "midi": 28,
            "name": "E1",
            "ticks": 126912,
            "time": 56.656954,
            "velocity": 0.3937007874015748
          },
          {
            "duration": 0.042856999999997925,
            "durationTicks": 96,
            "midi": 40,
            "name": "E2",
            "ticks": 126912,
            "time": 56.656954,
            "velocity": 0.3937007874015748
          }
        ],
        "endOfTrackTicks": 127008
      },
      {
        "channel": 14,
        "controlChanges": {},
        "pitchBends": [],
        "instrument": {
          "family": "piano",
          "number": 0,
          "name": "acoustic grand piano"
        },
        "name": "Electric Piano",
        "notes": [
          {
            "duration": 0.042856999999997925,
            "durationTicks": 96,
            "midi": 26,
            "name": "D1",
            "ticks": 61440,
            "time": 27.42848,
            "velocity": 0.3937007874015748
          }
        ],
        "endOfTrackTicks": 61536
      }
    ]
  }