{
    "header": {
      "keySignatures": [],
      "meta": [],
      "name": "",
      "ppq": 384,
      "tempos": [
        {
          "bpm": 110.00011000011,
          "ticks": 0
        }
      ],
      "timeSignatures": [
        {
          "ticks": 0,
          "timeSignature": [
            1,
            4
          ],
          "measures": 0
        }
      ]
    },
    "tracks": [
      {
        "channel": 0,
        "controlChanges": {},
        "pitchBends": [],
        "instrument": {
          "family": "brass",
          "number": 60,
          "name": "french horn"
        },
        "name": "French Horn",
        "notes": [
          {
            "duration": 0.1363635,
            "durationTicks": 96,
            "midi": 40,
            "name": "E2",
            "ticks": 0,
            "time": 0,
            "velocity": 0.3937007874015748
          },
          {
            "duration": 0.13636350000000003,
            "durationTicks": 96,
            "midi": 69,
            "name": "A4",
            "ticks": 192,
            "time": 0.272727,
            "velocity": 0.3937007874015748
          },
          {
            "duration": 0.13636350000000003,
            "durationTicks": 96,
            "midi": 64,
            "name": "E4",
            "ticks": 192,
            "time": 0.272727,
            "velocity": 0.3937007874015748
          },
          {
            "duration": 0.13636349999999997,
            "durationTicks": 96,
            "midi": 69,
            "name": "A4",
            "ticks": 384,
            "time": 0.545454,
            "velocity": 0.3937007874015748
          },
          {
            "duration": 0.13636349999999997,
            "durationTicks": 96,
            "midi": 64,
            "name": "E4",
            "ticks": 384,
            "time": 0.545454,
            "velocity": 0.3937007874015748
          },
          {
            "duration": 0.13636349999999997,
            "durationTicks": 96,
            "midi": 40,
            "name": "E2",
            "ticks": 576,
            "time": 0.818181,
            "velocity": 0.3937007874015748
          },
          {
            "duration": 0.13636350000000008,
            "durationTicks": 96,
            "midi": 69,
            "name": "A4",
            "ticks": 768,
            "time": 1.090908,
            "velocity": 0.3937007874015748
          },
          {
            "duration": 0.13636350000000008,
            "durationTicks": 96,
            "midi": 64,
            "name": "E4",
            "ticks": 768,
            "time": 1.090908,
            "velocity": 0.3937007874015748
          },
          {
            "duration": 0.13636350000000008,
            "durationTicks": 96,
            "midi": 64,
            "name": "E4",
            "ticks": 960,
            "time": 1.363635,
            "velocity": 0.3937007874015748
          },
          {
            "duration": 0.13636350000000008,
            "durationTicks": 96,
            "midi": 69,
            "name": "A4",
            "ticks": 960,
            "time": 1.363635,
            "velocity": 0.3937007874015748
          },
          {
            "duration": 0.13636349999999986,
            "durationTicks": 96,
            "midi": 40,
            "name": "E2",
            "ticks": 1152,
            "time": 1.636362,
            "velocity": 0.3937007874015748
          },
          {
            "duration": 0.13636350000000008,
            "durationTicks": 96,
            "midi": 64,
            "name": "E4",
            "ticks": 1344,
            "time": 1.909089,
            "velocity": 0.3937007874015748
          },
          {
            "duration": 0.13636350000000008,
            "durationTicks": 96,
            "midi": 69,
            "name": "A4",
            "ticks": 1344,
            "time": 1.909089,
            "velocity": 0.3937007874015748
          },
          {
            "duration": 0.13636349999999986,
            "durationTicks": 96,
            "midi": 43,
            "name": "G2",
            "ticks": 1536,
            "time": 2.181816,
            "velocity": 0.3937007874015748
          },
          {
            "duration": 0.13636349999999986,
            "durationTicks": 96,
            "midi": 64,
            "name": "E4",
            "ticks": 1728,
            "time": 2.454543,
            "velocity": 0.3937007874015748
          },
          {
            "duration": 0.1363635000000003,
            "durationTicks": 96,
            "midi": 64,
            "name": "E4",
            "ticks": 1920,
            "time": 2.72727,
            "velocity": 0.3937007874015748
          },
          {
            "duration": 0.13636349999999986,
            "durationTicks": 96,
            "midi": 43,
            "name": "G2",
            "ticks": 2112,
            "time": 2.999997,
            "velocity": 0.3937007874015748
          },
          {
            "duration": 0.13636349999999986,
            "durationTicks": 96,
            "midi": 64,
            "name": "E4",
            "ticks": 2304,
            "time": 3.272724,
            "velocity": 0.3937007874015748
          },
          {
            "duration": 0.13636349999999986,
            "durationTicks": 96,
            "midi": 64,
            "name": "E4",
            "ticks": 2496,
            "time": 3.545451,
            "velocity": 0.3937007874015748
          },
          {
            "duration": 0.13636349999999986,
            "durationTicks": 96,
            "midi": 64,
            "name": "E4",
            "ticks": 2496,
            "time": 3.545451,
            "velocity": 0.3937007874015748
          },
          {
            "duration": 0.13636349999999986,
            "durationTicks": 96,
            "midi": 43,
            "name": "G2",
            "ticks": 2688,
            "time": 3.818178,
            "velocity": 0.3937007874015748
          },
          {
            "duration": 0.13636349999999986,
            "durationTicks": 96,
            "midi": 64,
            "name": "E4",
            "ticks": 2880,
            "time": 4.090905,
            "velocity": 0.3937007874015748
          },
          {
            "duration": 0.13636349999999986,
            "durationTicks": 96,
            "midi": 40,
            "name": "E2",
            "ticks": 3072,
            "time": 4.363632,
            "velocity": 0.3937007874015748
          },
          {
            "duration": 0.13636349999999986,
            "durationTicks": 96,
            "midi": 69,
            "name": "A4",
            "ticks": 3264,
            "time": 4.636359,
            "velocity": 0.3937007874015748
          },
          {
            "duration": 0.13636349999999986,
            "durationTicks": 96,
            "midi": 69,
            "name": "A4",
            "ticks": 3456,
            "time": 4.909086,
            "velocity": 0.3937007874015748
          },
          {
            "duration": 0.13636349999999986,
            "durationTicks": 96,
            "midi": 40,
            "name": "E2",
            "ticks": 3648,
            "time": 5.181813,
            "velocity": 0.3937007874015748
          },
          {
            "duration": 0.13636349999999986,
            "durationTicks": 96,
            "midi": 69,
            "name": "A4",
            "ticks": 3840,
            "time": 5.45454,
            "velocity": 0.3937007874015748
          },
          {
            "duration": 0.13636349999999986,
            "durationTicks": 96,
            "midi": 69,
            "name": "A4",
            "ticks": 4032,
            "time": 5.727267,
            "velocity": 0.3937007874015748
          },
          {
            "duration": 0.13636349999999986,
            "durationTicks": 96,
            "midi": 40,
            "name": "E2",
            "ticks": 4224,
            "time": 5.999994,
            "velocity": 0.3937007874015748
          },
          {
            "duration": 0.13636349999999986,
            "durationTicks": 96,
            "midi": 69,
            "name": "A4",
            "ticks": 4416,
            "time": 6.272721,
            "velocity": 0.3937007874015748
          },
          {
            "duration": 0.13636349999999986,
            "durationTicks": 96,
            "midi": 43,
            "name": "G2",
            "ticks": 4608,
            "time": 6.545448,
            "velocity": 0.3937007874015748
          },
          {
            "duration": 0.13636349999999986,
            "durationTicks": 96,
            "midi": 64,
            "name": "E4",
            "ticks": 4800,
            "time": 6.818175,
            "velocity": 0.3937007874015748
          },
          {
            "duration": 0.13636349999999986,
            "durationTicks": 96,
            "midi": 64,
            "name": "E4",
            "ticks": 4992,
            "time": 7.090902,
            "velocity": 0.3937007874015748
          },
          {
            "duration": 0.13636350000000075,
            "durationTicks": 96,
            "midi": 43,
            "name": "G2",
            "ticks": 5184,
            "time": 7.3636289999999995,
            "velocity": 0.3937007874015748
          },
          {
            "duration": 0.13636349999999986,
            "durationTicks": 96,
            "midi": 64,
            "name": "E4",
            "ticks": 5376,
            "time": 7.636356,
            "velocity": 0.3937007874015748
          },
          {
            "duration": 0.13636350000000075,
            "durationTicks": 96,
            "midi": 64,
            "name": "E4",
            "ticks": 5568,
            "time": 7.909083,
            "velocity": 0.3937007874015748
          },
          {
            "duration": 0.13636349999999986,
            "durationTicks": 96,
            "midi": 43,
            "name": "G2",
            "ticks": 5760,
            "time": 8.18181,
            "velocity": 0.3937007874015748
          },
          {
            "duration": 0.13636349999999986,
            "durationTicks": 96,
            "midi": 64,
            "name": "E4",
            "ticks": 5952,
            "time": 8.454537,
            "velocity": 0.3937007874015748
          },
          {
            "duration": 0.13636350000000164,
            "durationTicks": 96,
            "midi": 48,
            "name": "C3",
            "ticks": 6096,
            "time": 8.659082249999999,
            "velocity": 0.3937007874015748
          },
          {
            "duration": 0.13636349999999986,
            "durationTicks": 96,
            "midi": 64,
            "name": "E4",
            "ticks": 6312,
            "time": 8.965900125,
            "velocity": 0.3937007874015748
          },
          {
            "duration": 0.13636349999999986,
            "durationTicks": 96,
            "midi": 64,
            "name": "E4",
            "ticks": 6504,
            "time": 9.238627125,
            "velocity": 0.3937007874015748
          },
          {
            "duration": 0.13636349999999986,
            "durationTicks": 96,
            "midi": 48,
            "name": "C3",
            "ticks": 6696,
            "time": 9.511354125,
            "velocity": 0.3937007874015748
          },
          {
            "duration": 0.13636349999999986,
            "durationTicks": 96,
            "midi": 64,
            "name": "E4",
            "ticks": 6888,
            "time": 9.784081125,
            "velocity": 0.3937007874015748
          },
          {
            "duration": 0.13636349999999986,
            "durationTicks": 96,
            "midi": 64,
            "name": "E4",
            "ticks": 7080,
            "time": 10.056808125,
            "velocity": 0.3937007874015748
          },
          {
            "duration": 0.13636349999999986,
            "durationTicks": 96,
            "midi": 48,
            "name": "C3",
            "ticks": 7272,
            "time": 10.329535125,
            "velocity": 0.3937007874015748
          },
          {
            "duration": 0.13636349999999986,
            "durationTicks": 96,
            "midi": 64,
            "name": "E4",
            "ticks": 7464,
            "time": 10.602262125,
            "velocity": 0.3937007874015748
          },
          {
            "duration": 0.13636350000000164,
            "durationTicks": 96,
            "midi": 43,
            "name": "G2",
            "ticks": 7656,
            "time": 10.874989124999999,
            "velocity": 0.3937007874015748
          },
          {
            "duration": 0.13636349999999986,
            "durationTicks": 96,
            "midi": 62,
            "name": "D4",
            "ticks": 7848,
            "time": 11.147716125,
            "velocity": 0.3937007874015748
          },
          {
            "duration": 0.13636349999999986,
            "durationTicks": 96,
            "midi": 62,
            "name": "D4",
            "ticks": 8040,
            "time": 11.420443125,
            "velocity": 0.3937007874015748
          },
          {
            "duration": 0.13636349999999986,
            "durationTicks": 96,
            "midi": 43,
            "name": "G2",
            "ticks": 8232,
            "time": 11.693170125,
            "velocity": 0.3937007874015748
          },
          {
            "duration": 0.13636349999999986,
            "durationTicks": 96,
            "midi": 62,
            "name": "D4",
            "ticks": 8424,
            "time": 11.965897125,
            "velocity": 0.3937007874015748
          },
          {
            "duration": 0.13636349999999986,
            "durationTicks": 96,
            "midi": 62,
            "name": "D4",
            "ticks": 8616,
            "time": 12.238624125,
            "velocity": 0.3937007874015748
          },
          {
            "duration": 0.13636349999999986,
            "durationTicks": 96,
            "midi": 62,
            "name": "D4",
            "ticks": 8616,
            "time": 12.238624125,
            "velocity": 0.3937007874015748
          },
          {
            "duration": 0.13636349999999986,
            "durationTicks": 96,
            "midi": 43,
            "name": "G2",
            "ticks": 8808,
            "time": 12.511351125,
            "velocity": 0.3937007874015748
          },
          {
            "duration": 0.13636349999999986,
            "durationTicks": 96,
            "midi": 62,
            "name": "D4",
            "ticks": 9000,
            "time": 12.784078125,
            "velocity": 0.3937007874015748
          },
          {
            "duration": 0.13636349999999986,
            "durationTicks": 96,
            "midi": 48,
            "name": "C3",
            "ticks": 9192,
            "time": 13.056805125,
            "velocity": 0.3937007874015748
          },
          {
            "duration": 0.13636349999999986,
            "durationTicks": 96,
            "midi": 64,
            "name": "E4",
            "ticks": 9384,
            "time": 13.329532125,
            "velocity": 0.3937007874015748
          },
          {
            "duration": 0.13636349999999986,
            "durationTicks": 96,
            "midi": 64,
            "name": "E4",
            "ticks": 9576,
            "time": 13.602259125,
            "velocity": 0.3937007874015748
          },
          {
            "duration": 0.13636349999999986,
            "durationTicks": 96,
            "midi": 48,
            "name": "C3",
            "ticks": 9768,
            "time": 13.874986125,
            "velocity": 0.3937007874015748
          },
          {
            "duration": 0.13636349999999986,
            "durationTicks": 96,
            "midi": 64,
            "name": "E4",
            "ticks": 9960,
            "time": 14.147713125,
            "velocity": 0.3937007874015748
          },
          {
            "duration": 0.13636349999999986,
            "durationTicks": 96,
            "midi": 64,
            "name": "E4",
            "ticks": 10152,
            "time": 14.420440125,
            "velocity": 0.3937007874015748
          },
          {
            "duration": 0.13636349999999986,
            "durationTicks": 96,
            "midi": 48,
            "name": "C3",
            "ticks": 10344,
            "time": 14.693167125,
            "velocity": 0.3937007874015748
          },
          {
            "duration": 0.13636349999999986,
            "durationTicks": 96,
            "midi": 64,
            "name": "E4",
            "ticks": 10536,
            "time": 14.965894125,
            "velocity": 0.3937007874015748
          },
          {
            "duration": 0.13636349999999986,
            "durationTicks": 96,
            "midi": 51,
            "name": "D#3",
            "ticks": 10728,
            "time": 15.238621125,
            "velocity": 0.3937007874015748
          },
          {
            "duration": 0.13636349999999986,
            "durationTicks": 96,
            "midi": 66,
            "name": "F#4",
            "ticks": 10920,
            "time": 15.511348125,
            "velocity": 0.3937007874015748
          },
          {
            "duration": 0.13636349999999986,
            "durationTicks": 96,
            "midi": 66,
            "name": "F#4",
            "ticks": 11112,
            "time": 15.784075125,
            "velocity": 0.3937007874015748
          },
          {
            "duration": 0.13636349999999808,
            "durationTicks": 96,
            "midi": 51,
            "name": "D#3",
            "ticks": 11304,
            "time": 16.056802125,
            "velocity": 0.3937007874015748
          },
          {
            "duration": 0.13636349999999808,
            "durationTicks": 96,
            "midi": 66,
            "name": "F#4",
            "ticks": 11496,
            "time": 16.329529125,
            "velocity": 0.3937007874015748
          },
          {
            "duration": 0.13636349999999808,
            "durationTicks": 96,
            "midi": 66,
            "name": "F#4",
            "ticks": 11688,
            "time": 16.602256125,
            "velocity": 0.3937007874015748
          },
          {
            "duration": 0.13636349999999808,
            "durationTicks": 96,
            "midi": 51,
            "name": "D#3",
            "ticks": 11880,
            "time": 16.874983125,
            "velocity": 0.3937007874015748
          },
          {
            "duration": 0.13636350000000164,
            "durationTicks": 96,
            "midi": 66,
            "name": "F#4",
            "ticks": 12072,
            "time": 17.147710125,
            "velocity": 0.3937007874015748
          }
        ],
        "endOfTrackTicks": 12168
      },
      {
        "channel": 1,
        "controlChanges": {},
        "pitchBends": [],
        "instrument": {
          "family": "brass",
          "number": 57,
          "name": "trombone"
        },
        "name": "Trombone",
        "notes": [
          {
            "duration": 0.034090875,
            "durationTicks": 24,
            "midi": 28,
            "name": "E1",
            "ticks": 0,
            "time": 0,
            "velocity": 0.15748031496062992
          },
          {
            "duration": 0.034090875,
            "durationTicks": 24,
            "midi": 28,
            "name": "E1",
            "ticks": 24,
            "time": 0.034090875,
            "velocity": 0.15748031496062992
          },
          {
            "duration": 0.03409087500000001,
            "durationTicks": 24,
            "midi": 28,
            "name": "E1",
            "ticks": 48,
            "time": 0.06818175,
            "velocity": 0.15748031496062992
          },
          {
            "duration": 0.03409087499999999,
            "durationTicks": 24,
            "midi": 28,
            "name": "E1",
            "ticks": 72,
            "time": 0.102272625,
            "velocity": 0.15748031496062992
          },
          {
            "duration": 0.03409087499999999,
            "durationTicks": 24,
            "midi": 28,
            "name": "E1",
            "ticks": 96,
            "time": 0.1363635,
            "velocity": 0.15748031496062992
          },
          {
            "duration": 0.03409087500000002,
            "durationTicks": 24,
            "midi": 28,
            "name": "E1",
            "ticks": 120,
            "time": 0.170454375,
            "velocity": 0.15748031496062992
          },
          {
            "duration": 0.03409087499999999,
            "durationTicks": 24,
            "midi": 28,
            "name": "E1",
            "ticks": 144,
            "time": 0.20454525,
            "velocity": 0.15748031496062992
          },
          {
            "duration": 0.03409087499999999,
            "durationTicks": 24,
            "midi": 28,
            "name": "E1",
            "ticks": 168,
            "time": 0.238636125,
            "velocity": 0.15748031496062992
          },
          {
            "duration": 0.13636350000000003,
            "durationTicks": 96,
            "midi": 57,
            "name": "A3",
            "ticks": 192,
            "time": 0.272727,
            "velocity": 0.15748031496062992
          },
          {
            "duration": 0.13636350000000003,
            "durationTicks": 96,
            "midi": 57,
            "name": "A3",
            "ticks": 192,
            "time": 0.272727,
            "velocity": 0.15748031496062992
          },
          {
            "duration": 0.13636350000000003,
            "durationTicks": 96,
            "midi": 52,
            "name": "E3",
            "ticks": 192,
            "time": 0.272727,
            "velocity": 0.15748031496062992
          },
          {
            "duration": 0.13636350000000003,
            "durationTicks": 96,
            "midi": 52,
            "name": "E3",
            "ticks": 192,
            "time": 0.272727,
            "velocity": 0.15748031496062992
          },
          {
            "duration": 0.03409087500000002,
            "durationTicks": 24,
            "midi": 28,
            "name": "E1",
            "ticks": 192,
            "time": 0.272727,
            "velocity": 0.15748031496062992
          },
          {
            "duration": 0.034090874999999965,
            "durationTicks": 24,
            "midi": 28,
            "name": "E1",
            "ticks": 216,
            "time": 0.306817875,
            "velocity": 0.15748031496062992
          },
          {
            "duration": 0.03409087500000002,
            "durationTicks": 24,
            "midi": 28,
            "name": "E1",
            "ticks": 240,
            "time": 0.34090875,
            "velocity": 0.15748031496062992
          },
          {
            "duration": 0.03409087500000002,
            "durationTicks": 24,
            "midi": 28,
            "name": "E1",
            "ticks": 264,
            "time": 0.374999625,
            "velocity": 0.15748031496062992
          },
          {
            "duration": 0.034090874999999965,
            "durationTicks": 24,
            "midi": 28,
            "name": "E1",
            "ticks": 288,
            "time": 0.4090905,
            "velocity": 0.15748031496062992
          },
          {
            "duration": 0.03409087500000002,
            "durationTicks": 24,
            "midi": 28,
            "name": "E1",
            "ticks": 312,
            "time": 0.443181375,
            "velocity": 0.15748031496062992
          },
          {
            "duration": 0.03409087500000002,
            "durationTicks": 24,
            "midi": 28,
            "name": "E1",
            "ticks": 336,
            "time": 0.47727225,
            "velocity": 0.15748031496062992
          },
          {
            "duration": 0.034090874999999965,
            "durationTicks": 24,
            "midi": 28,
            "name": "E1",
            "ticks": 360,
            "time": 0.511363125,
            "velocity": 0.15748031496062992
          },
          {
            "duration": 0.13636349999999997,
            "durationTicks": 96,
            "midi": 57,
            "name": "A3",
            "ticks": 384,
            "time": 0.545454,
            "velocity": 0.15748031496062992
          },
          {
            "duration": 0.13636349999999997,
            "durationTicks": 96,
            "midi": 52,
            "name": "E3",
            "ticks": 384,
            "time": 0.545454,
            "velocity": 0.15748031496062992
          },
          {
            "duration": 0.034090874999999965,
            "durationTicks": 24,
            "midi": 28,
            "name": "E1",
            "ticks": 576,
            "time": 0.818181,
            "velocity": 0.15748031496062992
          },
          {
            "duration": 0.13636349999999997,
            "durationTicks": 96,
            "midi": 55,
            "name": "G3",
            "ticks": 576,
            "time": 0.818181,
            "velocity": 0.15748031496062992
          },
          {
            "duration": 0.034090874999999965,
            "durationTicks": 24,
            "midi": 28,
            "name": "E1",
            "ticks": 600,
            "time": 0.852271875,
            "velocity": 0.15748031496062992
          },
          {
            "duration": 0.034090874999999965,
            "durationTicks": 24,
            "midi": 28,
            "name": "E1",
            "ticks": 624,
            "time": 0.88636275,
            "velocity": 0.15748031496062992
          },
          {
            "duration": 0.034090875000000076,
            "durationTicks": 24,
            "midi": 28,
            "name": "E1",
            "ticks": 648,
            "time": 0.9204536249999999,
            "velocity": 0.15748031496062992
          },
          {
            "duration": 0.034090874999999965,
            "durationTicks": 24,
            "midi": 28,
            "name": "E1",
            "ticks": 672,
            "time": 0.9545445,
            "velocity": 0.15748031496062992
          },
          {
            "duration": 0.034090875000000076,
            "durationTicks": 24,
            "midi": 28,
            "name": "E1",
            "ticks": 696,
            "time": 0.988635375,
            "velocity": 0.15748031496062992
          },
          {
            "duration": 0.034090874999999965,
            "durationTicks": 24,
            "midi": 28,
            "name": "E1",
            "ticks": 720,
            "time": 1.02272625,
            "velocity": 0.15748031496062992
          },
          {
            "duration": 0.034090874999999965,
            "durationTicks": 24,
            "midi": 28,
            "name": "E1",
            "ticks": 744,
            "time": 1.056817125,
            "velocity": 0.15748031496062992
          },
          {
            "duration": 0.034090874999999965,
            "durationTicks": 24,
            "midi": 28,
            "name": "E1",
            "ticks": 768,
            "time": 1.090908,
            "velocity": 0.15748031496062992
          },
          {
            "duration": 0.13636350000000008,
            "durationTicks": 96,
            "midi": 52,
            "name": "E3",
            "ticks": 768,
            "time": 1.090908,
            "velocity": 0.15748031496062992
          },
          {
            "duration": 0.13636350000000008,
            "durationTicks": 96,
            "midi": 57,
            "name": "A3",
            "ticks": 768,
            "time": 1.090908,
            "velocity": 0.15748031496062992
          },
          {
            "duration": 0.034090874999999965,
            "durationTicks": 24,
            "midi": 28,
            "name": "E1",
            "ticks": 792,
            "time": 1.124998875,
            "velocity": 0.15748031496062992
          },
          {
            "duration": 0.034090874999999965,
            "durationTicks": 24,
            "midi": 28,
            "name": "E1",
            "ticks": 816,
            "time": 1.15908975,
            "velocity": 0.15748031496062992
          },
          {
            "duration": 0.03409087500000019,
            "durationTicks": 24,
            "midi": 28,
            "name": "E1",
            "ticks": 840,
            "time": 1.1931806249999999,
            "velocity": 0.15748031496062992
          },
          {
            "duration": 0.034090874999999965,
            "durationTicks": 24,
            "midi": 28,
            "name": "E1",
            "ticks": 864,
            "time": 1.2272715,
            "velocity": 0.15748031496062992
          },
          {
            "duration": 0.034090874999999965,
            "durationTicks": 24,
            "midi": 28,
            "name": "E1",
            "ticks": 888,
            "time": 1.261362375,
            "velocity": 0.15748031496062992
          },
          {
            "duration": 0.034090874999999965,
            "durationTicks": 24,
            "midi": 28,
            "name": "E1",
            "ticks": 912,
            "time": 1.29545325,
            "velocity": 0.15748031496062992
          },
          {
            "duration": 0.034090874999999965,
            "durationTicks": 24,
            "midi": 28,
            "name": "E1",
            "ticks": 936,
            "time": 1.329544125,
            "velocity": 0.15748031496062992
          },
          {
            "duration": 0.13636350000000008,
            "durationTicks": 96,
            "midi": 52,
            "name": "E3",
            "ticks": 960,
            "time": 1.363635,
            "velocity": 0.15748031496062992
          },
          {
            "duration": 0.13636350000000008,
            "durationTicks": 96,
            "midi": 57,
            "name": "A3",
            "ticks": 960,
            "time": 1.363635,
            "velocity": 0.15748031496062992
          },
          {
            "duration": 0.13636349999999986,
            "durationTicks": 96,
            "midi": 55,
            "name": "G3",
            "ticks": 1152,
            "time": 1.636362,
            "velocity": 0.15748031496062992
          },
          {
            "duration": 0.034090874999999965,
            "durationTicks": 24,
            "midi": 28,
            "name": "E1",
            "ticks": 1152,
            "time": 1.636362,
            "velocity": 0.15748031496062992
          },
          {
            "duration": 0.034090874999999965,
            "durationTicks": 24,
            "midi": 28,
            "name": "E1",
            "ticks": 1176,
            "time": 1.670452875,
            "velocity": 0.15748031496062992
          },
          {
            "duration": 0.034090874999999965,
            "durationTicks": 24,
            "midi": 28,
            "name": "E1",
            "ticks": 1200,
            "time": 1.70454375,
            "velocity": 0.15748031496062992
          },
          {
            "duration": 0.034090874999999965,
            "durationTicks": 24,
            "midi": 28,
            "name": "E1",
            "ticks": 1224,
            "time": 1.738634625,
            "velocity": 0.15748031496062992
          },
          {
            "duration": 0.034090874999999965,
            "durationTicks": 24,
            "midi": 28,
            "name": "E1",
            "ticks": 1248,
            "time": 1.7727255,
            "velocity": 0.15748031496062992
          },
          {
            "duration": 0.034090874999999965,
            "durationTicks": 24,
            "midi": 28,
            "name": "E1",
            "ticks": 1272,
            "time": 1.806816375,
            "velocity": 0.15748031496062992
          },
          {
            "duration": 0.03409087500000019,
            "durationTicks": 24,
            "midi": 28,
            "name": "E1",
            "ticks": 1296,
            "time": 1.8409072499999999,
            "velocity": 0.15748031496062992
          },
          {
            "duration": 0.034090874999999965,
            "durationTicks": 24,
            "midi": 28,
            "name": "E1",
            "ticks": 1320,
            "time": 1.874998125,
            "velocity": 0.15748031496062992
          },
          {
            "duration": 0.13636350000000008,
            "durationTicks": 96,
            "midi": 57,
            "name": "A3",
            "ticks": 1344,
            "time": 1.909089,
            "velocity": 0.15748031496062992
          },
          {
            "duration": 0.034090874999999965,
            "durationTicks": 24,
            "midi": 28,
            "name": "E1",
            "ticks": 1344,
            "time": 1.909089,
            "velocity": 0.15748031496062992
          },
          {
            "duration": 0.13636350000000008,
            "durationTicks": 96,
            "midi": 52,
            "name": "E3",
            "ticks": 1344,
            "time": 1.909089,
            "velocity": 0.15748031496062992
          },
          {
            "duration": 0.034090874999999965,
            "durationTicks": 24,
            "midi": 28,
            "name": "E1",
            "ticks": 1368,
            "time": 1.943179875,
            "velocity": 0.15748031496062992
          },
          {
            "duration": 0.03409087500000019,
            "durationTicks": 24,
            "midi": 28,
            "name": "E1",
            "ticks": 1392,
            "time": 1.97727075,
            "velocity": 0.15748031496062992
          },
          {
            "duration": 0.034090874999999965,
            "durationTicks": 24,
            "midi": 28,
            "name": "E1",
            "ticks": 1416,
            "time": 2.011361625,
            "velocity": 0.15748031496062992
          },
          {
            "duration": 0.034090874999999965,
            "durationTicks": 24,
            "midi": 28,
            "name": "E1",
            "ticks": 1440,
            "time": 2.0454525,
            "velocity": 0.15748031496062992
          },
          {
            "duration": 0.034090874999999965,
            "durationTicks": 24,
            "midi": 28,
            "name": "E1",
            "ticks": 1464,
            "time": 2.079543375,
            "velocity": 0.15748031496062992
          },
          {
            "duration": 0.034090874999999965,
            "durationTicks": 24,
            "midi": 28,
            "name": "E1",
            "ticks": 1488,
            "time": 2.11363425,
            "velocity": 0.15748031496062992
          },
          {
            "duration": 0.034090874999999965,
            "durationTicks": 24,
            "midi": 28,
            "name": "E1",
            "ticks": 1512,
            "time": 2.147725125,
            "velocity": 0.15748031496062992
          },
          {
            "duration": 0.034090874999999965,
            "durationTicks": 24,
            "midi": 31,
            "name": "G1",
            "ticks": 1536,
            "time": 2.181816,
            "velocity": 0.15748031496062992
          },
          {
            "duration": 0.034090874999999965,
            "durationTicks": 24,
            "midi": 31,
            "name": "G1",
            "ticks": 1560,
            "time": 2.215906875,
            "velocity": 0.15748031496062992
          },
          {
            "duration": 0.034090874999999965,
            "durationTicks": 24,
            "midi": 31,
            "name": "G1",
            "ticks": 1584,
            "time": 2.24999775,
            "velocity": 0.15748031496062992
          },
          {
            "duration": 0.034090874999999965,
            "durationTicks": 24,
            "midi": 31,
            "name": "G1",
            "ticks": 1608,
            "time": 2.284088625,
            "velocity": 0.15748031496062992
          },
          {
            "duration": 0.034090874999999965,
            "durationTicks": 24,
            "midi": 31,
            "name": "G1",
            "ticks": 1632,
            "time": 2.3181795,
            "velocity": 0.15748031496062992
          },
          {
            "duration": 0.034090874999999965,
            "durationTicks": 24,
            "midi": 31,
            "name": "G1",
            "ticks": 1656,
            "time": 2.352270375,
            "velocity": 0.15748031496062992
          },
          {
            "duration": 0.03409087500000041,
            "durationTicks": 24,
            "midi": 31,
            "name": "G1",
            "ticks": 1680,
            "time": 2.3863612499999998,
            "velocity": 0.15748031496062992
          },
          {
            "duration": 0.034090874999999965,
            "durationTicks": 24,
            "midi": 31,
            "name": "G1",
            "ticks": 1704,
            "time": 2.420452125,
            "velocity": 0.15748031496062992
          },
          {
            "duration": 0.13636349999999986,
            "durationTicks": 96,
            "midi": 47,
            "name": "B2",
            "ticks": 1728,
            "time": 2.454543,
            "velocity": 0.15748031496062992
          },
          {
            "duration": 0.13636349999999986,
            "durationTicks": 96,
            "midi": 50,
            "name": "D3",
            "ticks": 1728,
            "time": 2.454543,
            "velocity": 0.15748031496062992
          },
          {
            "duration": 0.034090874999999965,
            "durationTicks": 24,
            "midi": 31,
            "name": "G1",
            "ticks": 1728,
            "time": 2.454543,
            "velocity": 0.15748031496062992
          },
          {
            "duration": 0.13636349999999986,
            "durationTicks": 96,
            "midi": 51,
            "name": "D#3",
            "ticks": 1728,
            "time": 2.454543,
            "velocity": 0.15748031496062992
          },
          {
            "duration": 0.034090874999999965,
            "durationTicks": 24,
            "midi": 31,
            "name": "G1",
            "ticks": 1752,
            "time": 2.488633875,
            "velocity": 0.15748031496062992
          },
          {
            "duration": 0.034090874999999965,
            "durationTicks": 24,
            "midi": 31,
            "name": "G1",
            "ticks": 1776,
            "time": 2.52272475,
            "velocity": 0.15748031496062992
          },
          {
            "duration": 0.034090874999999965,
            "durationTicks": 24,
            "midi": 31,
            "name": "G1",
            "ticks": 1800,
            "time": 2.556815625,
            "velocity": 0.15748031496062992
          },
          {
            "duration": 0.034090874999999965,
            "durationTicks": 24,
            "midi": 31,
            "name": "G1",
            "ticks": 1824,
            "time": 2.5909065,
            "velocity": 0.15748031496062992
          },
          {
            "duration": 0.034090874999999965,
            "durationTicks": 24,
            "midi": 31,
            "name": "G1",
            "ticks": 1848,
            "time": 2.624997375,
            "velocity": 0.15748031496062992
          },
          {
            "duration": 0.034090874999999965,
            "durationTicks": 24,
            "midi": 31,
            "name": "G1",
            "ticks": 1872,
            "time": 2.65908825,
            "velocity": 0.15748031496062992
          },
          {
            "duration": 0.034090874999999965,
            "durationTicks": 24,
            "midi": 31,
            "name": "G1",
            "ticks": 1896,
            "time": 2.693179125,
            "velocity": 0.15748031496062992
          },
          {
            "duration": 0.1363635000000003,
            "durationTicks": 96,
            "midi": 51,
            "name": "D#3",
            "ticks": 1920,
            "time": 2.72727,
            "velocity": 0.15748031496062992
          },
          {
            "duration": 0.1363635000000003,
            "durationTicks": 96,
            "midi": 50,
            "name": "D3",
            "ticks": 1920,
            "time": 2.72727,
            "velocity": 0.15748031496062992
          },
          {
            "duration": 0.1363635000000003,
            "durationTicks": 96,
            "midi": 47,
            "name": "B2",
            "ticks": 1920,
            "time": 2.72727,
            "velocity": 0.15748031496062992
          },
          {
            "duration": 0.034090874999999965,
            "durationTicks": 24,
            "midi": 31,
            "name": "G1",
            "ticks": 2112,
            "time": 2.999997,
            "velocity": 0.15748031496062992
          },
          {
            "duration": 0.13636349999999986,
            "durationTicks": 96,
            "midi": 47,
            "name": "B2",
            "ticks": 2112,
            "time": 2.999997,
            "velocity": 0.15748031496062992
          },
          {
            "duration": 0.034090874999999965,
            "durationTicks": 24,
            "midi": 31,
            "name": "G1",
            "ticks": 2136,
            "time": 3.034087875,
            "velocity": 0.15748031496062992
          },
          {
            "duration": 0.034090874999999965,
            "durationTicks": 24,
            "midi": 31,
            "name": "G1",
            "ticks": 2160,
            "time": 3.06817875,
            "velocity": 0.15748031496062992
          },
          {
            "duration": 0.034090874999999965,
            "durationTicks": 24,
            "midi": 31,
            "name": "G1",
            "ticks": 2184,
            "time": 3.102269625,
            "velocity": 0.15748031496062992
          },
          {
            "duration": 0.034090874999999965,
            "durationTicks": 24,
            "midi": 31,
            "name": "G1",
            "ticks": 2208,
            "time": 3.1363605,
            "velocity": 0.15748031496062992
          },
          {
            "duration": 0.034090874999999965,
            "durationTicks": 24,
            "midi": 31,
            "name": "G1",
            "ticks": 2232,
            "time": 3.170451375,
            "velocity": 0.15748031496062992
          },
          {
            "duration": 0.034090874999999965,
            "durationTicks": 24,
            "midi": 31,
            "name": "G1",
            "ticks": 2256,
            "time": 3.20454225,
            "velocity": 0.15748031496062992
          },
          {
            "duration": 0.03409087500000041,
            "durationTicks": 24,
            "midi": 31,
            "name": "G1",
            "ticks": 2280,
            "time": 3.238633125,
            "velocity": 0.15748031496062992
          },
          {
            "duration": 0.034090874999999965,
            "durationTicks": 24,
            "midi": 31,
            "name": "G1",
            "ticks": 2304,
            "time": 3.272724,
            "velocity": 0.15748031496062992
          },
          {
            "duration": 0.13636349999999986,
            "durationTicks": 96,
            "midi": 50,
            "name": "D3",
            "ticks": 2304,
            "time": 3.272724,
            "velocity": 0.15748031496062992
          },
          {
            "duration": 0.13636349999999986,
            "durationTicks": 96,
            "midi": 47,
            "name": "B2",
            "ticks": 2304,
            "time": 3.272724,
            "velocity": 0.15748031496062992
          },
          {
            "duration": 0.034090874999999965,
            "durationTicks": 24,
            "midi": 31,
            "name": "G1",
            "ticks": 2328,
            "time": 3.306814875,
            "velocity": 0.15748031496062992
          },
          {
            "duration": 0.034090874999999965,
            "durationTicks": 24,
            "midi": 31,
            "name": "G1",
            "ticks": 2352,
            "time": 3.34090575,
            "velocity": 0.15748031496062992
          },
          {
            "duration": 0.034090874999999965,
            "durationTicks": 24,
            "midi": 31,
            "name": "G1",
            "ticks": 2376,
            "time": 3.374996625,
            "velocity": 0.15748031496062992
          },
          {
            "duration": 0.034090874999999965,
            "durationTicks": 24,
            "midi": 31,
            "name": "G1",
            "ticks": 2400,
            "time": 3.4090875,
            "velocity": 0.15748031496062992
          },
          {
            "duration": 0.034090874999999965,
            "durationTicks": 24,
            "midi": 31,
            "name": "G1",
            "ticks": 2424,
            "time": 3.443178375,
            "velocity": 0.15748031496062992
          },
          {
            "duration": 0.034090874999999965,
            "durationTicks": 24,
            "midi": 31,
            "name": "G1",
            "ticks": 2448,
            "time": 3.47726925,
            "velocity": 0.15748031496062992
          },
          {
            "duration": 0.034090874999999965,
            "durationTicks": 24,
            "midi": 31,
            "name": "G1",
            "ticks": 2472,
            "time": 3.511360125,
            "velocity": 0.15748031496062992
          },
          {
            "duration": 0.13636349999999986,
            "durationTicks": 96,
            "midi": 47,
            "name": "B2",
            "ticks": 2496,
            "time": 3.545451,
            "velocity": 0.15748031496062992
          },
          {
            "duration": 0.13636349999999986,
            "durationTicks": 96,
            "midi": 50,
            "name": "D3",
            "ticks": 2496,
            "time": 3.545451,
            "velocity": 0.15748031496062992
          },
          {
            "duration": 0.034090874999999965,
            "durationTicks": 24,
            "midi": 31,
            "name": "G1",
            "ticks": 2688,
            "time": 3.818178,
            "velocity": 0.15748031496062992
          },
          {
            "duration": 0.13636349999999986,
            "durationTicks": 96,
            "midi": 47,
            "name": "B2",
            "ticks": 2688,
            "time": 3.818178,
            "velocity": 0.15748031496062992
          },
          {
            "duration": 0.034090874999999965,
            "durationTicks": 24,
            "midi": 31,
            "name": "G1",
            "ticks": 2712,
            "time": 3.852268875,
            "velocity": 0.15748031496062992
          },
          {
            "duration": 0.034090874999999965,
            "durationTicks": 24,
            "midi": 31,
            "name": "G1",
            "ticks": 2736,
            "time": 3.88635975,
            "velocity": 0.15748031496062992
          },
          {
            "duration": 0.034090874999999965,
            "durationTicks": 24,
            "midi": 31,
            "name": "G1",
            "ticks": 2760,
            "time": 3.920450625,
            "velocity": 0.15748031496062992
          },
          {
            "duration": 0.034090874999999965,
            "durationTicks": 24,
            "midi": 31,
            "name": "G1",
            "ticks": 2784,
            "time": 3.9545415,
            "velocity": 0.15748031496062992
          },
          {
            "duration": 0.03409087500000041,
            "durationTicks": 24,
            "midi": 31,
            "name": "G1",
            "ticks": 2808,
            "time": 3.988632375,
            "velocity": 0.15748031496062992
          },
          {
            "duration": 0.03409087499999952,
            "durationTicks": 24,
            "midi": 31,
            "name": "G1",
            "ticks": 2832,
            "time": 4.02272325,
            "velocity": 0.15748031496062992
          },
          {
            "duration": 0.03409087500000041,
            "durationTicks": 24,
            "midi": 31,
            "name": "G1",
            "ticks": 2856,
            "time": 4.056814125,
            "velocity": 0.15748031496062992
          },
          {
            "duration": 0.13636349999999986,
            "durationTicks": 96,
            "midi": 50,
            "name": "D3",
            "ticks": 2880,
            "time": 4.090905,
            "velocity": 0.15748031496062992
          },
          {
            "duration": 0.03409087499999952,
            "durationTicks": 24,
            "midi": 31,
            "name": "G1",
            "ticks": 2880,
            "time": 4.090905,
            "velocity": 0.15748031496062992
          },
          {
            "duration": 0.13636349999999986,
            "durationTicks": 96,
            "midi": 47,
            "name": "B2",
            "ticks": 2880,
            "time": 4.090905,
            "velocity": 0.15748031496062992
          },
          {
            "duration": 0.03409087500000041,
            "durationTicks": 24,
            "midi": 31,
            "name": "G1",
            "ticks": 2904,
            "time": 4.124995875,
            "velocity": 0.15748031496062992
          },
          {
            "duration": 0.03409087499999952,
            "durationTicks": 24,
            "midi": 31,
            "name": "G1",
            "ticks": 2928,
            "time": 4.15908675,
            "velocity": 0.15748031496062992
          },
          {
            "duration": 0.03409087500000041,
            "durationTicks": 24,
            "midi": 31,
            "name": "G1",
            "ticks": 2952,
            "time": 4.193177625,
            "velocity": 0.15748031496062992
          },
          {
            "duration": 0.03409087499999952,
            "durationTicks": 24,
            "midi": 31,
            "name": "G1",
            "ticks": 2976,
            "time": 4.2272685,
            "velocity": 0.15748031496062992
          },
          {
            "duration": 0.03409087500000041,
            "durationTicks": 24,
            "midi": 31,
            "name": "G1",
            "ticks": 3000,
            "time": 4.261359375,
            "velocity": 0.15748031496062992
          },
          {
            "duration": 0.03409087499999952,
            "durationTicks": 24,
            "midi": 31,
            "name": "G1",
            "ticks": 3024,
            "time": 4.29545025,
            "velocity": 0.15748031496062992
          },
          {
            "duration": 0.03409087500000041,
            "durationTicks": 24,
            "midi": 31,
            "name": "G1",
            "ticks": 3048,
            "time": 4.3295411249999995,
            "velocity": 0.15748031496062992
          },
          {
            "duration": 0.03409087500000041,
            "durationTicks": 24,
            "midi": 28,
            "name": "E1",
            "ticks": 3072,
            "time": 4.363632,
            "velocity": 0.15748031496062992
          },
          {
            "duration": 0.03409087499999952,
            "durationTicks": 24,
            "midi": 28,
            "name": "E1",
            "ticks": 3096,
            "time": 4.397722875,
            "velocity": 0.15748031496062992
          },
          {
            "duration": 0.03409087500000041,
            "durationTicks": 24,
            "midi": 28,
            "name": "E1",
            "ticks": 3120,
            "time": 4.43181375,
            "velocity": 0.15748031496062992
          },
          {
            "duration": 0.03409087499999952,
            "durationTicks": 24,
            "midi": 28,
            "name": "E1",
            "ticks": 3144,
            "time": 4.465904625,
            "velocity": 0.15748031496062992
          },
          {
            "duration": 0.03409087500000041,
            "durationTicks": 24,
            "midi": 28,
            "name": "E1",
            "ticks": 3168,
            "time": 4.4999955,
            "velocity": 0.15748031496062992
          },
          {
            "duration": 0.03409087499999952,
            "durationTicks": 24,
            "midi": 28,
            "name": "E1",
            "ticks": 3192,
            "time": 4.534086375,
            "velocity": 0.15748031496062992
          },
          {
            "duration": 0.03409087500000041,
            "durationTicks": 24,
            "midi": 28,
            "name": "E1",
            "ticks": 3216,
            "time": 4.56817725,
            "velocity": 0.15748031496062992
          },
          {
            "duration": 0.03409087499999952,
            "durationTicks": 24,
            "midi": 28,
            "name": "E1",
            "ticks": 3240,
            "time": 4.602268125,
            "velocity": 0.15748031496062992
          },
          {
            "duration": 0.13636349999999986,
            "durationTicks": 96,
            "midi": 52,
            "name": "E3",
            "ticks": 3264,
            "time": 4.636359,
            "velocity": 0.15748031496062992
          },
          {
            "duration": 0.03409087500000041,
            "durationTicks": 24,
            "midi": 28,
            "name": "E1",
            "ticks": 3264,
            "time": 4.636359,
            "velocity": 0.15748031496062992
          },
          {
            "duration": 0.13636349999999986,
            "durationTicks": 96,
            "midi": 57,
            "name": "A3",
            "ticks": 3264,
            "time": 4.636359,
            "velocity": 0.15748031496062992
          },
          {
            "duration": 0.13636349999999986,
            "durationTicks": 96,
            "midi": 57,
            "name": "A3",
            "ticks": 3264,
            "time": 4.636359,
            "velocity": 0.15748031496062992
          },
          {
            "duration": 0.13636349999999986,
            "durationTicks": 96,
            "midi": 52,
            "name": "E3",
            "ticks": 3264,
            "time": 4.636359,
            "velocity": 0.15748031496062992
          },
          {
            "duration": 0.03409087499999952,
            "durationTicks": 24,
            "midi": 28,
            "name": "E1",
            "ticks": 3288,
            "time": 4.670449875,
            "velocity": 0.15748031496062992
          },
          {
            "duration": 0.03409087500000041,
            "durationTicks": 24,
            "midi": 28,
            "name": "E1",
            "ticks": 3312,
            "time": 4.70454075,
            "velocity": 0.15748031496062992
          },
          {
            "duration": 0.03409087499999952,
            "durationTicks": 24,
            "midi": 28,
            "name": "E1",
            "ticks": 3336,
            "time": 4.738631625,
            "velocity": 0.15748031496062992
          },
          {
            "duration": 0.03409087500000041,
            "durationTicks": 24,
            "midi": 28,
            "name": "E1",
            "ticks": 3360,
            "time": 4.7727224999999995,
            "velocity": 0.15748031496062992
          },
          {
            "duration": 0.03409087500000041,
            "durationTicks": 24,
            "midi": 28,
            "name": "E1",
            "ticks": 3384,
            "time": 4.806813375,
            "velocity": 0.15748031496062992
          },
          {
            "duration": 0.03409087499999952,
            "durationTicks": 24,
            "midi": 28,
            "name": "E1",
            "ticks": 3408,
            "time": 4.84090425,
            "velocity": 0.15748031496062992
          },
          {
            "duration": 0.03409087500000041,
            "durationTicks": 24,
            "midi": 28,
            "name": "E1",
            "ticks": 3432,
            "time": 4.874995125,
            "velocity": 0.15748031496062992
          },
          {
            "duration": 0.13636349999999986,
            "durationTicks": 96,
            "midi": 57,
            "name": "A3",
            "ticks": 3456,
            "time": 4.909086,
            "velocity": 0.15748031496062992
          },
          {
            "duration": 0.13636349999999986,
            "durationTicks": 96,
            "midi": 52,
            "name": "E3",
            "ticks": 3456,
            "time": 4.909086,
            "velocity": 0.15748031496062992
          },
          {
            "duration": 0.13636349999999986,
            "durationTicks": 96,
            "midi": 55,
            "name": "G3",
            "ticks": 3648,
            "time": 5.181813,
            "velocity": 0.15748031496062992
          },
          {
            "duration": 0.03409087499999952,
            "durationTicks": 24,
            "midi": 28,
            "name": "E1",
            "ticks": 3648,
            "time": 5.181813,
            "velocity": 0.15748031496062992
          },
          {
            "duration": 0.03409087500000041,
            "durationTicks": 24,
            "midi": 28,
            "name": "E1",
            "ticks": 3672,
            "time": 5.2159038749999995,
            "velocity": 0.15748031496062992
          },
          {
            "duration": 0.03409087500000041,
            "durationTicks": 24,
            "midi": 28,
            "name": "E1",
            "ticks": 3696,
            "time": 5.24999475,
            "velocity": 0.15748031496062992
          },
          {
            "duration": 0.03409087499999952,
            "durationTicks": 24,
            "midi": 28,
            "name": "E1",
            "ticks": 3720,
            "time": 5.284085625,
            "velocity": 0.15748031496062992
          },
          {
            "duration": 0.03409087500000041,
            "durationTicks": 24,
            "midi": 28,
            "name": "E1",
            "ticks": 3744,
            "time": 5.3181765,
            "velocity": 0.15748031496062992
          },
          {
            "duration": 0.03409087499999952,
            "durationTicks": 24,
            "midi": 28,
            "name": "E1",
            "ticks": 3768,
            "time": 5.352267375,
            "velocity": 0.15748031496062992
          },
          {
            "duration": 0.03409087500000041,
            "durationTicks": 24,
            "midi": 28,
            "name": "E1",
            "ticks": 3792,
            "time": 5.38635825,
            "velocity": 0.15748031496062992
          },
          {
            "duration": 0.03409087499999952,
            "durationTicks": 24,
            "midi": 28,
            "name": "E1",
            "ticks": 3816,
            "time": 5.420449125,
            "velocity": 0.15748031496062992
          },
          {
            "duration": 0.03409087500000041,
            "durationTicks": 24,
            "midi": 28,
            "name": "E1",
            "ticks": 3840,
            "time": 5.45454,
            "velocity": 0.15748031496062992
          },
          {
            "duration": 0.13636349999999986,
            "durationTicks": 96,
            "midi": 52,
            "name": "E3",
            "ticks": 3840,
            "time": 5.45454,
            "velocity": 0.15748031496062992
          },
          {
            "duration": 0.13636349999999986,
            "durationTicks": 96,
            "midi": 57,
            "name": "A3",
            "ticks": 3840,
            "time": 5.45454,
            "velocity": 0.15748031496062992
          },
          {
            "duration": 0.03409087499999952,
            "durationTicks": 24,
            "midi": 28,
            "name": "E1",
            "ticks": 3864,
            "time": 5.488630875,
            "velocity": 0.15748031496062992
          },
          {
            "duration": 0.03409087500000041,
            "durationTicks": 24,
            "midi": 28,
            "name": "E1",
            "ticks": 3888,
            "time": 5.52272175,
            "velocity": 0.15748031496062992
          },
          {
            "duration": 0.03409087499999952,
            "durationTicks": 24,
            "midi": 28,
            "name": "E1",
            "ticks": 3912,
            "time": 5.556812625,
            "velocity": 0.15748031496062992
          },
          {
            "duration": 0.03409087500000041,
            "durationTicks": 24,
            "midi": 28,
            "name": "E1",
            "ticks": 3936,
            "time": 5.5909035,
            "velocity": 0.15748031496062992
          },
          {
            "duration": 0.03409087499999952,
            "durationTicks": 24,
            "midi": 28,
            "name": "E1",
            "ticks": 3960,
            "time": 5.624994375,
            "velocity": 0.15748031496062992
          },
          {
            "duration": 0.03409087500000041,
            "durationTicks": 24,
            "midi": 28,
            "name": "E1",
            "ticks": 3984,
            "time": 5.6590852499999995,
            "velocity": 0.15748031496062992
          },
          {
            "duration": 0.03409087500000041,
            "durationTicks": 24,
            "midi": 28,
            "name": "E1",
            "ticks": 4008,
            "time": 5.693176125,
            "velocity": 0.15748031496062992
          },
          {
            "duration": 0.13636349999999986,
            "durationTicks": 96,
            "midi": 52,
            "name": "E3",
            "ticks": 4032,
            "time": 5.727267,
            "velocity": 0.15748031496062992
          },
          {
            "duration": 0.13636349999999986,
            "durationTicks": 96,
            "midi": 57,
            "name": "A3",
            "ticks": 4032,
            "time": 5.727267,
            "velocity": 0.15748031496062992
          },
          {
            "duration": 0.03409087499999952,
            "durationTicks": 24,
            "midi": 28,
            "name": "E1",
            "ticks": 4224,
            "time": 5.999994,
            "velocity": 0.15748031496062992
          },
          {
            "duration": 0.13636349999999986,
            "durationTicks": 96,
            "midi": 55,
            "name": "G3",
            "ticks": 4224,
            "time": 5.999994,
            "velocity": 0.15748031496062992
          },
          {
            "duration": 0.03409087500000041,
            "durationTicks": 24,
            "midi": 28,
            "name": "E1",
            "ticks": 4248,
            "time": 6.034084875,
            "velocity": 0.15748031496062992
          },
          {
            "duration": 0.03409087499999952,
            "durationTicks": 24,
            "midi": 28,
            "name": "E1",
            "ticks": 4272,
            "time": 6.06817575,
            "velocity": 0.15748031496062992
          },
          {
            "duration": 0.03409087500000041,
            "durationTicks": 24,
            "midi": 28,
            "name": "E1",
            "ticks": 4296,
            "time": 6.1022666249999995,
            "velocity": 0.15748031496062992
          },
          {
            "duration": 0.03409087500000041,
            "durationTicks": 24,
            "midi": 28,
            "name": "E1",
            "ticks": 4320,
            "time": 6.1363575,
            "velocity": 0.15748031496062992
          },
          {
            "duration": 0.03409087499999952,
            "durationTicks": 24,
            "midi": 28,
            "name": "E1",
            "ticks": 4344,
            "time": 6.170448375,
            "velocity": 0.15748031496062992
          },
          {
            "duration": 0.03409087500000041,
            "durationTicks": 24,
            "midi": 28,
            "name": "E1",
            "ticks": 4368,
            "time": 6.20453925,
            "velocity": 0.15748031496062992
          },
          {
            "duration": 0.03409087499999952,
            "durationTicks": 24,
            "midi": 28,
            "name": "E1",
            "ticks": 4392,
            "time": 6.238630125,
            "velocity": 0.15748031496062992
          },
          {
            "duration": 0.13636349999999986,
            "durationTicks": 96,
            "midi": 52,
            "name": "E3",
            "ticks": 4416,
            "time": 6.272721,
            "velocity": 0.15748031496062992
          },
          {
            "duration": 0.13636349999999986,
            "durationTicks": 96,
            "midi": 57,
            "name": "A3",
            "ticks": 4416,
            "time": 6.272721,
            "velocity": 0.15748031496062992
          },
          {
            "duration": 0.03409087500000041,
            "durationTicks": 24,
            "midi": 28,
            "name": "E1",
            "ticks": 4416,
            "time": 6.272721,
            "velocity": 0.15748031496062992
          },
          {
            "duration": 0.03409087499999952,
            "durationTicks": 24,
            "midi": 28,
            "name": "E1",
            "ticks": 4440,
            "time": 6.306811875,
            "velocity": 0.15748031496062992
          },
          {
            "duration": 0.03409087500000041,
            "durationTicks": 24,
            "midi": 28,
            "name": "E1",
            "ticks": 4464,
            "time": 6.34090275,
            "velocity": 0.15748031496062992
          },
          {
            "duration": 0.03409087499999952,
            "durationTicks": 24,
            "midi": 28,
            "name": "E1",
            "ticks": 4488,
            "time": 6.374993625,
            "velocity": 0.15748031496062992
          },
          {
            "duration": 0.03409087500000041,
            "durationTicks": 24,
            "midi": 28,
            "name": "E1",
            "ticks": 4512,
            "time": 6.4090845,
            "velocity": 0.15748031496062992
          },
          {
            "duration": 0.03409087499999952,
            "durationTicks": 24,
            "midi": 28,
            "name": "E1",
            "ticks": 4536,
            "time": 6.443175375,
            "velocity": 0.15748031496062992
          },
          {
            "duration": 0.03409087500000041,
            "durationTicks": 24,
            "midi": 28,
            "name": "E1",
            "ticks": 4560,
            "time": 6.47726625,
            "velocity": 0.15748031496062992
          },
          {
            "duration": 0.03409087500000041,
            "durationTicks": 24,
            "midi": 28,
            "name": "E1",
            "ticks": 4584,
            "time": 6.511357125,
            "velocity": 0.15748031496062992
          },
          {
            "duration": 0.03409087499999952,
            "durationTicks": 24,
            "midi": 31,
            "name": "G1",
            "ticks": 4608,
            "time": 6.545448,
            "velocity": 0.15748031496062992
          },
          {
            "duration": 0.03409087500000041,
            "durationTicks": 24,
            "midi": 31,
            "name": "G1",
            "ticks": 4632,
            "time": 6.579538875,
            "velocity": 0.15748031496062992
          },
          {
            "duration": 0.03409087499999952,
            "durationTicks": 24,
            "midi": 31,
            "name": "G1",
            "ticks": 4656,
            "time": 6.61362975,
            "velocity": 0.15748031496062992
          },
          {
            "duration": 0.03409087500000041,
            "durationTicks": 24,
            "midi": 31,
            "name": "G1",
            "ticks": 4680,
            "time": 6.647720625,
            "velocity": 0.15748031496062992
          },
          {
            "duration": 0.03409087499999952,
            "durationTicks": 24,
            "midi": 31,
            "name": "G1",
            "ticks": 4704,
            "time": 6.6818115,
            "velocity": 0.15748031496062992
          },
          {
            "duration": 0.03409087500000041,
            "durationTicks": 24,
            "midi": 31,
            "name": "G1",
            "ticks": 4728,
            "time": 6.715902375,
            "velocity": 0.15748031496062992
          },
          {
            "duration": 0.03409087499999952,
            "durationTicks": 24,
            "midi": 31,
            "name": "G1",
            "ticks": 4752,
            "time": 6.74999325,
            "velocity": 0.15748031496062992
          },
          {
            "duration": 0.03409087500000041,
            "durationTicks": 24,
            "midi": 31,
            "name": "G1",
            "ticks": 4776,
            "time": 6.784084125,
            "velocity": 0.15748031496062992
          },
          {
            "duration": 0.13636349999999986,
            "durationTicks": 96,
            "midi": 51,
            "name": "D#3",
            "ticks": 4800,
            "time": 6.818175,
            "velocity": 0.15748031496062992
          },
          {
            "duration": 0.13636349999999986,
            "durationTicks": 96,
            "midi": 48,
            "name": "C3",
            "ticks": 4800,
            "time": 6.818175,
            "velocity": 0.15748031496062992
          },
          {
            "duration": 0.13636349999999986,
            "durationTicks": 96,
            "midi": 52,
            "name": "E3",
            "ticks": 4800,
            "time": 6.818175,
            "velocity": 0.15748031496062992
          },
          {
            "duration": 0.03409087499999952,
            "durationTicks": 24,
            "midi": 31,
            "name": "G1",
            "ticks": 4800,
            "time": 6.818175,
            "velocity": 0.15748031496062992
          },
          {
            "duration": 0.03409087500000041,
            "durationTicks": 24,
            "midi": 31,
            "name": "G1",
            "ticks": 4824,
            "time": 6.852265875,
            "velocity": 0.15748031496062992
          },
          {
            "duration": 0.03409087499999952,
            "durationTicks": 24,
            "midi": 31,
            "name": "G1",
            "ticks": 4848,
            "time": 6.88635675,
            "velocity": 0.15748031496062992
          },
          {
            "duration": 0.03409087500000041,
            "durationTicks": 24,
            "midi": 31,
            "name": "G1",
            "ticks": 4872,
            "time": 6.9204476249999995,
            "velocity": 0.15748031496062992
          },
          {
            "duration": 0.03409087500000041,
            "durationTicks": 24,
            "midi": 31,
            "name": "G1",
            "ticks": 4896,
            "time": 6.9545385,
            "velocity": 0.15748031496062992
          },
          {
            "duration": 0.03409087499999952,
            "durationTicks": 24,
            "midi": 31,
            "name": "G1",
            "ticks": 4920,
            "time": 6.988629375,
            "velocity": 0.15748031496062992
          },
          {
            "duration": 0.03409087500000041,
            "durationTicks": 24,
            "midi": 31,
            "name": "G1",
            "ticks": 4944,
            "time": 7.02272025,
            "velocity": 0.15748031496062992
          },
          {
            "duration": 0.03409087499999952,
            "durationTicks": 24,
            "midi": 31,
            "name": "G1",
            "ticks": 4968,
            "time": 7.056811125,
            "velocity": 0.15748031496062992
          },
          {
            "duration": 0.13636349999999986,
            "durationTicks": 96,
            "midi": 52,
            "name": "E3",
            "ticks": 4992,
            "time": 7.090902,
            "velocity": 0.15748031496062992
          },
          {
            "duration": 0.13636349999999986,
            "durationTicks": 96,
            "midi": 51,
            "name": "D#3",
            "ticks": 4992,
            "time": 7.090902,
            "velocity": 0.15748031496062992
          },
          {
            "duration": 0.13636349999999986,
            "durationTicks": 96,
            "midi": 48,
            "name": "C3",
            "ticks": 4992,
            "time": 7.090902,
            "velocity": 0.15748031496062992
          },
          {
            "duration": 0.03409087500000041,
            "durationTicks": 24,
            "midi": 31,
            "name": "G1",
            "ticks": 5184,
            "time": 7.3636289999999995,
            "velocity": 0.15748031496062992
          },
          {
            "duration": 0.03409087500000041,
            "durationTicks": 24,
            "midi": 31,
            "name": "G1",
            "ticks": 5208,
            "time": 7.397719875,
            "velocity": 0.15748031496062992
          },
          {
            "duration": 0.03409087499999952,
            "durationTicks": 24,
            "midi": 31,
            "name": "G1",
            "ticks": 5232,
            "time": 7.43181075,
            "velocity": 0.15748031496062992
          },
          {
            "duration": 0.03409087500000041,
            "durationTicks": 24,
            "midi": 31,
            "name": "G1",
            "ticks": 5256,
            "time": 7.465901625,
            "velocity": 0.15748031496062992
          },
          {
            "duration": 0.03409087499999952,
            "durationTicks": 24,
            "midi": 31,
            "name": "G1",
            "ticks": 5280,
            "time": 7.4999925,
            "velocity": 0.15748031496062992
          },
          {
            "duration": 0.03409087500000041,
            "durationTicks": 24,
            "midi": 31,
            "name": "G1",
            "ticks": 5304,
            "time": 7.534083375,
            "velocity": 0.15748031496062992
          },
          {
            "duration": 0.03409087499999952,
            "durationTicks": 24,
            "midi": 31,
            "name": "G1",
            "ticks": 5328,
            "time": 7.56817425,
            "velocity": 0.15748031496062992
          },
          {
            "duration": 0.03409087500000041,
            "durationTicks": 24,
            "midi": 31,
            "name": "G1",
            "ticks": 5352,
            "time": 7.602265125,
            "velocity": 0.15748031496062992
          },
          {
            "duration": 0.13636349999999986,
            "durationTicks": 96,
            "midi": 51,
            "name": "D#3",
            "ticks": 5376,
            "time": 7.636356,
            "velocity": 0.15748031496062992
          },
          {
            "duration": 0.13636349999999986,
            "durationTicks": 96,
            "midi": 48,
            "name": "C3",
            "ticks": 5376,
            "time": 7.636356,
            "velocity": 0.15748031496062992
          },
          {
            "duration": 0.03409087499999952,
            "durationTicks": 24,
            "midi": 31,
            "name": "G1",
            "ticks": 5376,
            "time": 7.636356,
            "velocity": 0.15748031496062992
          },
          {
            "duration": 0.03409087500000041,
            "durationTicks": 24,
            "midi": 31,
            "name": "G1",
            "ticks": 5400,
            "time": 7.670446875,
            "velocity": 0.15748031496062992
          },
          {
            "duration": 0.03409087499999952,
            "durationTicks": 24,
            "midi": 31,
            "name": "G1",
            "ticks": 5424,
            "time": 7.70453775,
            "velocity": 0.15748031496062992
          },
          {
            "duration": 0.03409087500000041,
            "durationTicks": 24,
            "midi": 31,
            "name": "G1",
            "ticks": 5448,
            "time": 7.738628625,
            "velocity": 0.15748031496062992
          },
          {
            "duration": 0.03409087499999952,
            "durationTicks": 24,
            "midi": 31,
            "name": "G1",
            "ticks": 5472,
            "time": 7.7727195,
            "velocity": 0.15748031496062992
          },
          {
            "duration": 0.03409087500000041,
            "durationTicks": 24,
            "midi": 31,
            "name": "G1",
            "ticks": 5496,
            "time": 7.8068103749999995,
            "velocity": 0.15748031496062992
          },
          {
            "duration": 0.03409087500000041,
            "durationTicks": 24,
            "midi": 31,
            "name": "G1",
            "ticks": 5520,
            "time": 7.84090125,
            "velocity": 0.15748031496062992
          },
          {
            "duration": 0.03409087499999952,
            "durationTicks": 24,
            "midi": 31,
            "name": "G1",
            "ticks": 5544,
            "time": 7.874992125,
            "velocity": 0.15748031496062992
          },
          {
            "duration": 0.13636350000000075,
            "durationTicks": 96,
            "midi": 51,
            "name": "D#3",
            "ticks": 5568,
            "time": 7.909083,
            "velocity": 0.15748031496062992
          },
          {
            "duration": 0.13636350000000075,
            "durationTicks": 96,
            "midi": 48,
            "name": "C3",
            "ticks": 5568,
            "time": 7.909083,
            "velocity": 0.15748031496062992
          },
          {
            "duration": 0.03409087499999863,
            "durationTicks": 24,
            "midi": 31,
            "name": "G1",
            "ticks": 5760,
            "time": 8.18181,
            "velocity": 0.15748031496062992
          },
          {
            "duration": 0.03409087500000041,
            "durationTicks": 24,
            "midi": 31,
            "name": "G1",
            "ticks": 5784,
            "time": 8.215900874999999,
            "velocity": 0.15748031496062992
          },
          {
            "duration": 0.03409087500000041,
            "durationTicks": 24,
            "midi": 31,
            "name": "G1",
            "ticks": 5808,
            "time": 8.24999175,
            "velocity": 0.15748031496062992
          },
          {
            "duration": 0.03409087500000041,
            "durationTicks": 24,
            "midi": 31,
            "name": "G1",
            "ticks": 5832,
            "time": 8.284082625,
            "velocity": 0.15748031496062992
          },
          {
            "duration": 0.03409087500000041,
            "durationTicks": 24,
            "midi": 31,
            "name": "G1",
            "ticks": 5856,
            "time": 8.3181735,
            "velocity": 0.15748031496062992
          },
          {
            "duration": 0.03409087499999863,
            "durationTicks": 24,
            "midi": 31,
            "name": "G1",
            "ticks": 5880,
            "time": 8.352264375,
            "velocity": 0.15748031496062992
          },
          {
            "duration": 0.03409087500000041,
            "durationTicks": 24,
            "midi": 31,
            "name": "G1",
            "ticks": 5904,
            "time": 8.38635525,
            "velocity": 0.15748031496062992
          },
          {
            "duration": 0.03409087500000041,
            "durationTicks": 24,
            "midi": 31,
            "name": "G1",
            "ticks": 5928,
            "time": 8.420446125,
            "velocity": 0.15748031496062992
          },
          {
            "duration": 0.13636349999999986,
            "durationTicks": 96,
            "midi": 48,
            "name": "C3",
            "ticks": 5952,
            "time": 8.454537,
            "velocity": 0.15748031496062992
          },
          {
            "duration": 0.13636349999999986,
            "durationTicks": 96,
            "midi": 51,
            "name": "D#3",
            "ticks": 5952,
            "time": 8.454537,
            "velocity": 0.15748031496062992
          },
          {
            "duration": 0.03409087500000041,
            "durationTicks": 24,
            "midi": 31,
            "name": "G1",
            "ticks": 5952,
            "time": 8.454537,
            "velocity": 0.15748031496062992
          },
          {
            "duration": 0.03409087499999863,
            "durationTicks": 24,
            "midi": 31,
            "name": "G1",
            "ticks": 5976,
            "time": 8.488627875,
            "velocity": 0.15748031496062992
          },
          {
            "duration": 0.03409087500000041,
            "durationTicks": 24,
            "midi": 31,
            "name": "G1",
            "ticks": 6000,
            "time": 8.52271875,
            "velocity": 0.15748031496062992
          },
          {
            "duration": 0.03409087500000041,
            "durationTicks": 24,
            "midi": 31,
            "name": "G1",
            "ticks": 6024,
            "time": 8.556809625,
            "velocity": 0.15748031496062992
          },
          {
            "duration": 0.03409087500000041,
            "durationTicks": 24,
            "midi": 31,
            "name": "G1",
            "ticks": 6048,
            "time": 8.5909005,
            "velocity": 0.15748031496062992
          },
          {
            "duration": 0.03409087499999863,
            "durationTicks": 24,
            "midi": 31,
            "name": "G1",
            "ticks": 6072,
            "time": 8.624991375,
            "velocity": 0.15748031496062992
          },
          {
            "duration": 0.03409087500000041,
            "durationTicks": 24,
            "midi": 31,
            "name": "G1",
            "ticks": 6096,
            "time": 8.659082249999999,
            "velocity": 0.15748031496062992
          },
          {
            "duration": 0.03409087500000041,
            "durationTicks": 24,
            "midi": 31,
            "name": "G1",
            "ticks": 6120,
            "time": 8.693173125,
            "velocity": 0.15748031496062992
          },
          {
            "duration": 0.03409087500000041,
            "durationTicks": 24,
            "midi": 33,
            "name": "A1",
            "ticks": 6144,
            "time": 8.727264,
            "velocity": 0.15748031496062992
          },
          {
            "duration": 0.03409087500000041,
            "durationTicks": 24,
            "midi": 33,
            "name": "A1",
            "ticks": 6168,
            "time": 8.761354875,
            "velocity": 0.15748031496062992
          },
          {
            "duration": 0.03409087499999863,
            "durationTicks": 24,
            "midi": 33,
            "name": "A1",
            "ticks": 6192,
            "time": 8.79544575,
            "velocity": 0.15748031496062992
          },
          {
            "duration": 0.03409087500000041,
            "durationTicks": 24,
            "midi": 33,
            "name": "A1",
            "ticks": 6216,
            "time": 8.829536625,
            "velocity": 0.15748031496062992
          },
          {
            "duration": 0.03409087500000041,
            "durationTicks": 24,
            "midi": 33,
            "name": "A1",
            "ticks": 6240,
            "time": 8.8636275,
            "velocity": 0.15748031496062992
          },
          {
            "duration": 0.03409087500000041,
            "durationTicks": 24,
            "midi": 33,
            "name": "A1",
            "ticks": 6264,
            "time": 8.897718375,
            "velocity": 0.15748031496062992
          },
          {
            "duration": 0.03409087499999863,
            "durationTicks": 24,
            "midi": 33,
            "name": "A1",
            "ticks": 6288,
            "time": 8.93180925,
            "velocity": 0.15748031496062992
          },
          {
            "duration": 0.03409087500000041,
            "durationTicks": 24,
            "midi": 33,
            "name": "A1",
            "ticks": 6312,
            "time": 8.965900125,
            "velocity": 0.15748031496062992
          },
          {
            "duration": 0.13636349999999986,
            "durationTicks": 96,
            "midi": 48,
            "name": "C3",
            "ticks": 6336,
            "time": 8.999991,
            "velocity": 0.15748031496062992
          },
          {
            "duration": 0.03409087500000041,
            "durationTicks": 24,
            "midi": 33,
            "name": "A1",
            "ticks": 6336,
            "time": 8.999991,
            "velocity": 0.15748031496062992
          },
          {
            "duration": 0.13636349999999986,
            "durationTicks": 96,
            "midi": 45,
            "name": "A2",
            "ticks": 6336,
            "time": 8.999991,
            "velocity": 0.15748031496062992
          },
          {
            "duration": 0.03409087500000041,
            "durationTicks": 24,
            "midi": 33,
            "name": "A1",
            "ticks": 6360,
            "time": 9.034081875,
            "velocity": 0.15748031496062992
          },
          {
            "duration": 0.03409087499999863,
            "durationTicks": 24,
            "midi": 33,
            "name": "A1",
            "ticks": 6384,
            "time": 9.06817275,
            "velocity": 0.15748031496062992
          },
          {
            "duration": 0.03409087500000041,
            "durationTicks": 24,
            "midi": 33,
            "name": "A1",
            "ticks": 6408,
            "time": 9.102263624999999,
            "velocity": 0.15748031496062992
          },
          {
            "duration": 0.03409087500000041,
            "durationTicks": 24,
            "midi": 33,
            "name": "A1",
            "ticks": 6432,
            "time": 9.1363545,
            "velocity": 0.15748031496062992
          },
          {
            "duration": 0.03409087500000041,
            "durationTicks": 24,
            "midi": 33,
            "name": "A1",
            "ticks": 6456,
            "time": 9.170445375,
            "velocity": 0.15748031496062992
          },
          {
            "duration": 0.03409087500000041,
            "durationTicks": 24,
            "midi": 33,
            "name": "A1",
            "ticks": 6480,
            "time": 9.20453625,
            "velocity": 0.15748031496062992
          },
          {
            "duration": 0.13636349999999986,
            "durationTicks": 96,
            "midi": 45,
            "name": "A2",
            "ticks": 6528,
            "time": 9.272718,
            "velocity": 0.15748031496062992
          },
          {
            "duration": 0.13636349999999986,
            "durationTicks": 96,
            "midi": 48,
            "name": "C3",
            "ticks": 6528,
            "time": 9.272718,
            "velocity": 0.15748031496062992
          },
          {
            "duration": 0.03409087499999863,
            "durationTicks": 24,
            "midi": 33,
            "name": "A1",
            "ticks": 6696,
            "time": 9.511354125,
            "velocity": 0.15748031496062992
          },
          {
            "duration": 0.03409087500000041,
            "durationTicks": 24,
            "midi": 33,
            "name": "A1",
            "ticks": 6720,
            "time": 9.545444999999999,
            "velocity": 0.15748031496062992
          },
          {
            "duration": 0.03409087500000041,
            "durationTicks": 24,
            "midi": 33,
            "name": "A1",
            "ticks": 6744,
            "time": 9.579535875,
            "velocity": 0.15748031496062992
          },
          {
            "duration": 0.03409087500000041,
            "durationTicks": 24,
            "midi": 33,
            "name": "A1",
            "ticks": 6768,
            "time": 9.61362675,
            "velocity": 0.15748031496062992
          },
          {
            "duration": 0.03409087500000041,
            "durationTicks": 24,
            "midi": 33,
            "name": "A1",
            "ticks": 6792,
            "time": 9.647717625,
            "velocity": 0.15748031496062992
          },
          {
            "duration": 0.03409087499999863,
            "durationTicks": 24,
            "midi": 33,
            "name": "A1",
            "ticks": 6816,
            "time": 9.6818085,
            "velocity": 0.15748031496062992
          },
          {
            "duration": 0.03409087500000041,
            "durationTicks": 24,
            "midi": 33,
            "name": "A1",
            "ticks": 6840,
            "time": 9.715899375,
            "velocity": 0.15748031496062992
          },
          {
            "duration": 0.03409087500000041,
            "durationTicks": 24,
            "midi": 33,
            "name": "A1",
            "ticks": 6864,
            "time": 9.74999025,
            "velocity": 0.15748031496062992
          },
          {
            "duration": 0.03409087500000041,
            "durationTicks": 24,
            "midi": 33,
            "name": "A1",
            "ticks": 6888,
            "time": 9.784081125,
            "velocity": 0.15748031496062992
          },
          {
            "duration": 0.03409087499999863,
            "durationTicks": 24,
            "midi": 33,
            "name": "A1",
            "ticks": 6912,
            "time": 9.818172,
            "velocity": 0.15748031496062992
          },
          {
            "duration": 0.13636349999999986,
            "durationTicks": 96,
            "midi": 45,
            "name": "A2",
            "ticks": 6912,
            "time": 9.818172,
            "velocity": 0.15748031496062992
          },
          {
            "duration": 0.13636349999999986,
            "durationTicks": 96,
            "midi": 48,
            "name": "C3",
            "ticks": 6912,
            "time": 9.818172,
            "velocity": 0.15748031496062992
          },
          {
            "duration": 0.03409087500000041,
            "durationTicks": 24,
            "midi": 33,
            "name": "A1",
            "ticks": 6936,
            "time": 9.852262875,
            "velocity": 0.15748031496062992
          },
          {
            "duration": 0.03409087500000041,
            "durationTicks": 24,
            "midi": 33,
            "name": "A1",
            "ticks": 6960,
            "time": 9.88635375,
            "velocity": 0.15748031496062992
          },
          {
            "duration": 0.03409087500000041,
            "durationTicks": 24,
            "midi": 33,
            "name": "A1",
            "ticks": 6984,
            "time": 9.920444625,
            "velocity": 0.15748031496062992
          },
          {
            "duration": 0.03409087499999863,
            "durationTicks": 24,
            "midi": 33,
            "name": "A1",
            "ticks": 7008,
            "time": 9.9545355,
            "velocity": 0.15748031496062992
          },
          {
            "duration": 0.03409087500000041,
            "durationTicks": 24,
            "midi": 33,
            "name": "A1",
            "ticks": 7032,
            "time": 9.988626374999999,
            "velocity": 0.15748031496062992
          },
          {
            "duration": 0.03409087500000041,
            "durationTicks": 24,
            "midi": 33,
            "name": "A1",
            "ticks": 7056,
            "time": 10.02271725,
            "velocity": 0.15748031496062992
          },
          {
            "duration": 0.13636349999999986,
            "durationTicks": 96,
            "midi": 48,
            "name": "C3",
            "ticks": 7104,
            "time": 10.090899,
            "velocity": 0.15748031496062992
          },
          {
            "duration": 0.13636349999999986,
            "durationTicks": 96,
            "midi": 45,
            "name": "A2",
            "ticks": 7104,
            "time": 10.090899,
            "velocity": 0.15748031496062992
          },
          {
            "duration": 0.03409087500000041,
            "durationTicks": 24,
            "midi": 33,
            "name": "A1",
            "ticks": 7272,
            "time": 10.329535125,
            "velocity": 0.15748031496062992
          },
          {
            "duration": 0.03409087500000041,
            "durationTicks": 24,
            "midi": 33,
            "name": "A1",
            "ticks": 7296,
            "time": 10.363626,
            "velocity": 0.15748031496062992
          },
          {
            "duration": 0.03409087499999863,
            "durationTicks": 24,
            "midi": 33,
            "name": "A1",
            "ticks": 7320,
            "time": 10.397716875,
            "velocity": 0.15748031496062992
          },
          {
            "duration": 0.03409087500000041,
            "durationTicks": 24,
            "midi": 33,
            "name": "A1",
            "ticks": 7344,
            "time": 10.431807749999999,
            "velocity": 0.15748031496062992
          },
          {
            "duration": 0.03409087500000041,
            "durationTicks": 24,
            "midi": 33,
            "name": "A1",
            "ticks": 7368,
            "time": 10.465898625,
            "velocity": 0.15748031496062992
          },
          {
            "duration": 0.03409087500000041,
            "durationTicks": 24,
            "midi": 33,
            "name": "A1",
            "ticks": 7392,
            "time": 10.4999895,
            "velocity": 0.15748031496062992
          },
          {
            "duration": 0.03409087500000041,
            "durationTicks": 24,
            "midi": 33,
            "name": "A1",
            "ticks": 7416,
            "time": 10.534080375,
            "velocity": 0.15748031496062992
          },
          {
            "duration": 0.03409087499999863,
            "durationTicks": 24,
            "midi": 33,
            "name": "A1",
            "ticks": 7440,
            "time": 10.56817125,
            "velocity": 0.15748031496062992
          },
          {
            "duration": 0.03409087500000041,
            "durationTicks": 24,
            "midi": 33,
            "name": "A1",
            "ticks": 7464,
            "time": 10.602262125,
            "velocity": 0.15748031496062992
          },
          {
            "duration": 0.03409087500000041,
            "durationTicks": 24,
            "midi": 33,
            "name": "A1",
            "ticks": 7488,
            "time": 10.636353,
            "velocity": 0.15748031496062992
          },
          {
            "duration": 0.13636349999999986,
            "durationTicks": 96,
            "midi": 45,
            "name": "A2",
            "ticks": 7488,
            "time": 10.636353,
            "velocity": 0.15748031496062992
          },
          {
            "duration": 0.13636349999999986,
            "durationTicks": 96,
            "midi": 48,
            "name": "C3",
            "ticks": 7488,
            "time": 10.636353,
            "velocity": 0.15748031496062992
          },
          {
            "duration": 0.03409087500000041,
            "durationTicks": 24,
            "midi": 33,
            "name": "A1",
            "ticks": 7512,
            "time": 10.670443875,
            "velocity": 0.15748031496062992
          },
          {
            "duration": 0.03409087499999863,
            "durationTicks": 24,
            "midi": 33,
            "name": "A1",
            "ticks": 7536,
            "time": 10.70453475,
            "velocity": 0.15748031496062992
          },
          {
            "duration": 0.03409087500000041,
            "durationTicks": 24,
            "midi": 33,
            "name": "A1",
            "ticks": 7560,
            "time": 10.738625625,
            "velocity": 0.15748031496062992
          },
          {
            "duration": 0.03409087500000041,
            "durationTicks": 24,
            "midi": 33,
            "name": "A1",
            "ticks": 7584,
            "time": 10.7727165,
            "velocity": 0.15748031496062992
          },
          {
            "duration": 0.03409087500000041,
            "durationTicks": 24,
            "midi": 33,
            "name": "A1",
            "ticks": 7608,
            "time": 10.806807375,
            "velocity": 0.15748031496062992
          },
          {
            "duration": 0.03409087499999863,
            "durationTicks": 24,
            "midi": 33,
            "name": "A1",
            "ticks": 7632,
            "time": 10.84089825,
            "velocity": 0.15748031496062992
          },
          {
            "duration": 0.03409087500000041,
            "durationTicks": 24,
            "midi": 31,
            "name": "G1",
            "ticks": 7680,
            "time": 10.90908,
            "velocity": 0.15748031496062992
          },
          {
            "duration": 0.03409087500000041,
            "durationTicks": 24,
            "midi": 31,
            "name": "G1",
            "ticks": 7704,
            "time": 10.943170875,
            "velocity": 0.15748031496062992
          },
          {
            "duration": 0.03409087500000041,
            "durationTicks": 24,
            "midi": 31,
            "name": "G1",
            "ticks": 7728,
            "time": 10.97726175,
            "velocity": 0.15748031496062992
          },
          {
            "duration": 0.03409087499999863,
            "durationTicks": 24,
            "midi": 31,
            "name": "G1",
            "ticks": 7752,
            "time": 11.011352625,
            "velocity": 0.15748031496062992
          },
          {
            "duration": 0.03409087500000041,
            "durationTicks": 24,
            "midi": 31,
            "name": "G1",
            "ticks": 7776,
            "time": 11.0454435,
            "velocity": 0.15748031496062992
          },
          {
            "duration": 0.03409087500000041,
            "durationTicks": 24,
            "midi": 31,
            "name": "G1",
            "ticks": 7800,
            "time": 11.079534375,
            "velocity": 0.15748031496062992
          },
          {
            "duration": 0.03409087500000041,
            "durationTicks": 24,
            "midi": 31,
            "name": "G1",
            "ticks": 7824,
            "time": 11.11362525,
            "velocity": 0.15748031496062992
          },
          {
            "duration": 0.03409087499999863,
            "durationTicks": 24,
            "midi": 31,
            "name": "G1",
            "ticks": 7848,
            "time": 11.147716125,
            "velocity": 0.15748031496062992
          },
          {
            "duration": 0.03409087500000041,
            "durationTicks": 24,
            "midi": 31,
            "name": "G1",
            "ticks": 7872,
            "time": 11.181807,
            "velocity": 0.15748031496062992
          },
          {
            "duration": 0.03409087500000041,
            "durationTicks": 24,
            "midi": 31,
            "name": "G1",
            "ticks": 7896,
            "time": 11.215897875,
            "velocity": 0.15748031496062992
          },
          {
            "duration": 0.03409087500000041,
            "durationTicks": 24,
            "midi": 31,
            "name": "G1",
            "ticks": 7920,
            "time": 11.24998875,
            "velocity": 0.15748031496062992
          },
          {
            "duration": 0.03409087499999863,
            "durationTicks": 24,
            "midi": 31,
            "name": "G1",
            "ticks": 7944,
            "time": 11.284079625,
            "velocity": 0.15748031496062992
          },
          {
            "duration": 0.03409087500000041,
            "durationTicks": 24,
            "midi": 31,
            "name": "G1",
            "ticks": 7968,
            "time": 11.318170499999999,
            "velocity": 0.15748031496062992
          },
          {
            "duration": 0.03409087500000041,
            "durationTicks": 24,
            "midi": 31,
            "name": "G1",
            "ticks": 7992,
            "time": 11.352261375,
            "velocity": 0.15748031496062992
          },
          {
            "duration": 0.03409087500000041,
            "durationTicks": 24,
            "midi": 31,
            "name": "G1",
            "ticks": 8016,
            "time": 11.38635225,
            "velocity": 0.15748031496062992
          },
          {
            "duration": 0.03409087500000041,
            "durationTicks": 24,
            "midi": 31,
            "name": "G1",
            "ticks": 8040,
            "time": 11.420443125,
            "velocity": 0.15748031496062992
          },
          {
            "duration": 0.03409087499999863,
            "durationTicks": 24,
            "midi": 31,
            "name": "G1",
            "ticks": 8256,
            "time": 11.727261,
            "velocity": 0.15748031496062992
          },
          {
            "duration": 0.03409087500000041,
            "durationTicks": 24,
            "midi": 31,
            "name": "G1",
            "ticks": 8280,
            "time": 11.761351874999999,
            "velocity": 0.15748031496062992
          },
          {
            "duration": 0.03409087500000041,
            "durationTicks": 24,
            "midi": 31,
            "name": "G1",
            "ticks": 8304,
            "time": 11.79544275,
            "velocity": 0.15748031496062992
          },
          {
            "duration": 0.03409087500000041,
            "durationTicks": 24,
            "midi": 31,
            "name": "G1",
            "ticks": 8328,
            "time": 11.829533625,
            "velocity": 0.15748031496062992
          },
          {
            "duration": 0.03409087500000041,
            "durationTicks": 24,
            "midi": 31,
            "name": "G1",
            "ticks": 8352,
            "time": 11.8636245,
            "velocity": 0.15748031496062992
          },
          {
            "duration": 0.03409087499999863,
            "durationTicks": 24,
            "midi": 31,
            "name": "G1",
            "ticks": 8376,
            "time": 11.897715375,
            "velocity": 0.15748031496062992
          },
          {
            "duration": 0.03409087500000041,
            "durationTicks": 24,
            "midi": 31,
            "name": "G1",
            "ticks": 8400,
            "time": 11.93180625,
            "velocity": 0.15748031496062992
          },
          {
            "duration": 0.03409087500000041,
            "durationTicks": 24,
            "midi": 31,
            "name": "G1",
            "ticks": 8424,
            "time": 11.965897125,
            "velocity": 0.15748031496062992
          },
          {
            "duration": 0.03409087500000041,
            "durationTicks": 24,
            "midi": 31,
            "name": "G1",
            "ticks": 8448,
            "time": 11.999988,
            "velocity": 0.15748031496062992
          },
          {
            "duration": 0.03409087499999863,
            "durationTicks": 24,
            "midi": 31,
            "name": "G1",
            "ticks": 8472,
            "time": 12.034078875,
            "velocity": 0.15748031496062992
          },
          {
            "duration": 0.03409087500000041,
            "durationTicks": 24,
            "midi": 31,
            "name": "G1",
            "ticks": 8496,
            "time": 12.06816975,
            "velocity": 0.15748031496062992
          },
          {
            "duration": 0.03409087500000041,
            "durationTicks": 24,
            "midi": 31,
            "name": "G1",
            "ticks": 8520,
            "time": 12.102260625,
            "velocity": 0.15748031496062992
          },
          {
            "duration": 0.03409087500000041,
            "durationTicks": 24,
            "midi": 31,
            "name": "G1",
            "ticks": 8544,
            "time": 12.1363515,
            "velocity": 0.15748031496062992
          },
          {
            "duration": 0.03409087499999863,
            "durationTicks": 24,
            "midi": 31,
            "name": "G1",
            "ticks": 8568,
            "time": 12.170442375,
            "velocity": 0.15748031496062992
          },
          {
            "duration": 0.03409087500000041,
            "durationTicks": 24,
            "midi": 31,
            "name": "G1",
            "ticks": 8592,
            "time": 12.204533249999999,
            "velocity": 0.15748031496062992
          },
          {
            "duration": 0.03409087500000041,
            "durationTicks": 24,
            "midi": 31,
            "name": "G1",
            "ticks": 8616,
            "time": 12.238624125,
            "velocity": 0.15748031496062992
          },
          {
            "duration": 0.03409087500000041,
            "durationTicks": 24,
            "midi": 31,
            "name": "G1",
            "ticks": 8832,
            "time": 12.545442,
            "velocity": 0.15748031496062992
          },
          {
            "duration": 0.03409087500000041,
            "durationTicks": 24,
            "midi": 31,
            "name": "G1",
            "ticks": 8856,
            "time": 12.579532875,
            "velocity": 0.15748031496062992
          },
          {
            "duration": 0.03409087499999863,
            "durationTicks": 24,
            "midi": 31,
            "name": "G1",
            "ticks": 8880,
            "time": 12.61362375,
            "velocity": 0.15748031496062992
          },
          {
            "duration": 0.03409087500000041,
            "durationTicks": 24,
            "midi": 31,
            "name": "G1",
            "ticks": 8904,
            "time": 12.647714624999999,
            "velocity": 0.15748031496062992
          },
          {
            "duration": 0.03409087500000041,
            "durationTicks": 24,
            "midi": 31,
            "name": "G1",
            "ticks": 8928,
            "time": 12.6818055,
            "velocity": 0.15748031496062992
          },
          {
            "duration": 0.03409087500000041,
            "durationTicks": 24,
            "midi": 31,
            "name": "G1",
            "ticks": 8952,
            "time": 12.715896375,
            "velocity": 0.15748031496062992
          },
          {
            "duration": 0.03409087500000041,
            "durationTicks": 24,
            "midi": 31,
            "name": "G1",
            "ticks": 8976,
            "time": 12.74998725,
            "velocity": 0.15748031496062992
          },
          {
            "duration": 0.03409087499999863,
            "durationTicks": 24,
            "midi": 31,
            "name": "G1",
            "ticks": 9000,
            "time": 12.784078125,
            "velocity": 0.15748031496062992
          },
          {
            "duration": 0.03409087500000041,
            "durationTicks": 24,
            "midi": 31,
            "name": "G1",
            "ticks": 9024,
            "time": 12.818169,
            "velocity": 0.15748031496062992
          },
          {
            "duration": 0.03409087500000041,
            "durationTicks": 24,
            "midi": 31,
            "name": "G1",
            "ticks": 9048,
            "time": 12.852259875,
            "velocity": 0.15748031496062992
          },
          {
            "duration": 0.03409087500000041,
            "durationTicks": 24,
            "midi": 31,
            "name": "G1",
            "ticks": 9072,
            "time": 12.88635075,
            "velocity": 0.15748031496062992
          },
          {
            "duration": 0.03409087499999863,
            "durationTicks": 24,
            "midi": 31,
            "name": "G1",
            "ticks": 9096,
            "time": 12.920441625,
            "velocity": 0.15748031496062992
          },
          {
            "duration": 0.03409087500000041,
            "durationTicks": 24,
            "midi": 31,
            "name": "G1",
            "ticks": 9120,
            "time": 12.9545325,
            "velocity": 0.15748031496062992
          },
          {
            "duration": 0.03409087500000041,
            "durationTicks": 24,
            "midi": 31,
            "name": "G1",
            "ticks": 9144,
            "time": 12.988623375,
            "velocity": 0.15748031496062992
          },
          {
            "duration": 0.03409087500000041,
            "durationTicks": 24,
            "midi": 31,
            "name": "G1",
            "ticks": 9168,
            "time": 13.02271425,
            "velocity": 0.15748031496062992
          },
          {
            "duration": 0.03409087500000041,
            "durationTicks": 24,
            "midi": 31,
            "name": "G1",
            "ticks": 9192,
            "time": 13.056805125,
            "velocity": 0.15748031496062992
          },
          {
            "duration": 0.03409087499999863,
            "durationTicks": 24,
            "midi": 33,
            "name": "A1",
            "ticks": 9216,
            "time": 13.090896,
            "velocity": 0.15748031496062992
          },
          {
            "duration": 0.03409087500000041,
            "durationTicks": 24,
            "midi": 33,
            "name": "A1",
            "ticks": 9240,
            "time": 13.124986875,
            "velocity": 0.15748031496062992
          },
          {
            "duration": 0.03409087500000041,
            "durationTicks": 24,
            "midi": 33,
            "name": "A1",
            "ticks": 9264,
            "time": 13.15907775,
            "velocity": 0.15748031496062992
          },
          {
            "duration": 0.03409087500000041,
            "durationTicks": 24,
            "midi": 33,
            "name": "A1",
            "ticks": 9288,
            "time": 13.193168625,
            "velocity": 0.15748031496062992
          },
          {
            "duration": 0.03409087499999863,
            "durationTicks": 24,
            "midi": 33,
            "name": "A1",
            "ticks": 9312,
            "time": 13.2272595,
            "velocity": 0.15748031496062992
          },
          {
            "duration": 0.03409087500000041,
            "durationTicks": 24,
            "midi": 33,
            "name": "A1",
            "ticks": 9336,
            "time": 13.261350375,
            "velocity": 0.15748031496062992
          },
          {
            "duration": 0.03409087500000041,
            "durationTicks": 24,
            "midi": 33,
            "name": "A1",
            "ticks": 9360,
            "time": 13.29544125,
            "velocity": 0.15748031496062992
          },
          {
            "duration": 0.03409087500000041,
            "durationTicks": 24,
            "midi": 33,
            "name": "A1",
            "ticks": 9384,
            "time": 13.329532125,
            "velocity": 0.15748031496062992
          },
          {
            "duration": 0.03409087499999863,
            "durationTicks": 24,
            "midi": 33,
            "name": "A1",
            "ticks": 9408,
            "time": 13.363623,
            "velocity": 0.15748031496062992
          },
          {
            "duration": 0.03409087500000041,
            "durationTicks": 24,
            "midi": 33,
            "name": "A1",
            "ticks": 9432,
            "time": 13.397713874999999,
            "velocity": 0.15748031496062992
          },
          {
            "duration": 0.03409087500000041,
            "durationTicks": 24,
            "midi": 33,
            "name": "A1",
            "ticks": 9456,
            "time": 13.43180475,
            "velocity": 0.15748031496062992
          },
          {
            "duration": 0.03409087500000041,
            "durationTicks": 24,
            "midi": 33,
            "name": "A1",
            "ticks": 9480,
            "time": 13.465895625,
            "velocity": 0.15748031496062992
          },
          {
            "duration": 0.03409087500000041,
            "durationTicks": 24,
            "midi": 33,
            "name": "A1",
            "ticks": 9504,
            "time": 13.4999865,
            "velocity": 0.15748031496062992
          },
          {
            "duration": 0.03409087499999863,
            "durationTicks": 24,
            "midi": 33,
            "name": "A1",
            "ticks": 9528,
            "time": 13.534077375,
            "velocity": 0.15748031496062992
          },
          {
            "duration": 0.03409087500000041,
            "durationTicks": 24,
            "midi": 33,
            "name": "A1",
            "ticks": 9552,
            "time": 13.56816825,
            "velocity": 0.15748031496062992
          },
          {
            "duration": 0.03409087500000041,
            "durationTicks": 24,
            "midi": 33,
            "name": "A1",
            "ticks": 9576,
            "time": 13.602259125,
            "velocity": 0.15748031496062992
          },
          {
            "duration": 0.03409087500000041,
            "durationTicks": 24,
            "midi": 33,
            "name": "A1",
            "ticks": 9792,
            "time": 13.909077,
            "velocity": 0.15748031496062992
          },
          {
            "duration": 0.03409087500000041,
            "durationTicks": 24,
            "midi": 33,
            "name": "A1",
            "ticks": 9816,
            "time": 13.943167875,
            "velocity": 0.15748031496062992
          },
          {
            "duration": 0.03409087499999863,
            "durationTicks": 24,
            "midi": 33,
            "name": "A1",
            "ticks": 9840,
            "time": 13.97725875,
            "velocity": 0.15748031496062992
          },
          {
            "duration": 0.03409087500000041,
            "durationTicks": 24,
            "midi": 33,
            "name": "A1",
            "ticks": 9864,
            "time": 14.011349625,
            "velocity": 0.15748031496062992
          },
          {
            "duration": 0.03409087500000041,
            "durationTicks": 24,
            "midi": 33,
            "name": "A1",
            "ticks": 9888,
            "time": 14.0454405,
            "velocity": 0.15748031496062992
          },
          {
            "duration": 0.03409087500000041,
            "durationTicks": 24,
            "midi": 33,
            "name": "A1",
            "ticks": 9912,
            "time": 14.079531375,
            "velocity": 0.15748031496062992
          },
          {
            "duration": 0.03409087499999863,
            "durationTicks": 24,
            "midi": 33,
            "name": "A1",
            "ticks": 9936,
            "time": 14.11362225,
            "velocity": 0.15748031496062992
          },
          {
            "duration": 0.03409087500000041,
            "durationTicks": 24,
            "midi": 33,
            "name": "A1",
            "ticks": 9960,
            "time": 14.147713125,
            "velocity": 0.15748031496062992
          },
          {
            "duration": 0.03409087500000041,
            "durationTicks": 24,
            "midi": 33,
            "name": "A1",
            "ticks": 9984,
            "time": 14.181804,
            "velocity": 0.15748031496062992
          },
          {
            "duration": 0.03409087500000041,
            "durationTicks": 24,
            "midi": 33,
            "name": "A1",
            "ticks": 10008,
            "time": 14.215894875,
            "velocity": 0.15748031496062992
          },
          {
            "duration": 0.03409087499999863,
            "durationTicks": 24,
            "midi": 33,
            "name": "A1",
            "ticks": 10032,
            "time": 14.24998575,
            "velocity": 0.15748031496062992
          },
          {
            "duration": 0.03409087500000041,
            "durationTicks": 24,
            "midi": 33,
            "name": "A1",
            "ticks": 10056,
            "time": 14.284076624999999,
            "velocity": 0.15748031496062992
          },
          {
            "duration": 0.03409087500000041,
            "durationTicks": 24,
            "midi": 33,
            "name": "A1",
            "ticks": 10080,
            "time": 14.3181675,
            "velocity": 0.15748031496062992
          },
          {
            "duration": 0.03409087500000041,
            "durationTicks": 24,
            "midi": 33,
            "name": "A1",
            "ticks": 10104,
            "time": 14.352258375,
            "velocity": 0.15748031496062992
          },
          {
            "duration": 0.03409087500000041,
            "durationTicks": 24,
            "midi": 33,
            "name": "A1",
            "ticks": 10128,
            "time": 14.38634925,
            "velocity": 0.15748031496062992
          },
          {
            "duration": 0.03409087499999863,
            "durationTicks": 24,
            "midi": 33,
            "name": "A1",
            "ticks": 10152,
            "time": 14.420440125,
            "velocity": 0.15748031496062992
          },
          {
            "duration": 0.03409087500000041,
            "durationTicks": 24,
            "midi": 33,
            "name": "A1",
            "ticks": 10368,
            "time": 14.727257999999999,
            "velocity": 0.15748031496062992
          },
          {
            "duration": 0.03409087500000041,
            "durationTicks": 24,
            "midi": 33,
            "name": "A1",
            "ticks": 10392,
            "time": 14.761348875,
            "velocity": 0.15748031496062992
          },
          {
            "duration": 0.03409087500000041,
            "durationTicks": 24,
            "midi": 33,
            "name": "A1",
            "ticks": 10416,
            "time": 14.79543975,
            "velocity": 0.15748031496062992
          },
          {
            "duration": 0.03409087500000041,
            "durationTicks": 24,
            "midi": 33,
            "name": "A1",
            "ticks": 10440,
            "time": 14.829530625,
            "velocity": 0.15748031496062992
          },
          {
            "duration": 0.03409087499999863,
            "durationTicks": 24,
            "midi": 33,
            "name": "A1",
            "ticks": 10464,
            "time": 14.8636215,
            "velocity": 0.15748031496062992
          },
          {
            "duration": 0.03409087500000041,
            "durationTicks": 24,
            "midi": 33,
            "name": "A1",
            "ticks": 10488,
            "time": 14.897712375,
            "velocity": 0.15748031496062992
          },
          {
            "duration": 0.03409087500000041,
            "durationTicks": 24,
            "midi": 33,
            "name": "A1",
            "ticks": 10512,
            "time": 14.93180325,
            "velocity": 0.15748031496062992
          },
          {
            "duration": 0.03409087500000041,
            "durationTicks": 24,
            "midi": 33,
            "name": "A1",
            "ticks": 10536,
            "time": 14.965894125,
            "velocity": 0.15748031496062992
          },
          {
            "duration": 0.03409087499999863,
            "durationTicks": 24,
            "midi": 33,
            "name": "A1",
            "ticks": 10560,
            "time": 14.999985,
            "velocity": 0.15748031496062992
          },
          {
            "duration": 0.03409087500000041,
            "durationTicks": 24,
            "midi": 33,
            "name": "A1",
            "ticks": 10584,
            "time": 15.034075875,
            "velocity": 0.15748031496062992
          },
          {
            "duration": 0.03409087500000041,
            "durationTicks": 24,
            "midi": 33,
            "name": "A1",
            "ticks": 10608,
            "time": 15.06816675,
            "velocity": 0.15748031496062992
          },
          {
            "duration": 0.03409087500000041,
            "durationTicks": 24,
            "midi": 33,
            "name": "A1",
            "ticks": 10632,
            "time": 15.102257625,
            "velocity": 0.15748031496062992
          },
          {
            "duration": 0.03409087499999863,
            "durationTicks": 24,
            "midi": 33,
            "name": "A1",
            "ticks": 10656,
            "time": 15.1363485,
            "velocity": 0.15748031496062992
          },
          {
            "duration": 0.03409087500000041,
            "durationTicks": 24,
            "midi": 33,
            "name": "A1",
            "ticks": 10680,
            "time": 15.170439374999999,
            "velocity": 0.15748031496062992
          },
          {
            "duration": 0.03409087500000041,
            "durationTicks": 24,
            "midi": 33,
            "name": "A1",
            "ticks": 10704,
            "time": 15.20453025,
            "velocity": 0.15748031496062992
          },
          {
            "duration": 0.03409087500000041,
            "durationTicks": 24,
            "midi": 33,
            "name": "A1",
            "ticks": 10728,
            "time": 15.238621125,
            "velocity": 0.15748031496062992
          },
          {
            "duration": 0.03409087500000041,
            "durationTicks": 24,
            "midi": 35,
            "name": "B1",
            "ticks": 10752,
            "time": 15.272712,
            "velocity": 0.15748031496062992
          },
          {
            "duration": 0.03409087499999863,
            "durationTicks": 24,
            "midi": 35,
            "name": "B1",
            "ticks": 10776,
            "time": 15.306802875,
            "velocity": 0.15748031496062992
          },
          {
            "duration": 0.03409087500000041,
            "durationTicks": 24,
            "midi": 35,
            "name": "B1",
            "ticks": 10800,
            "time": 15.34089375,
            "velocity": 0.15748031496062992
          },
          {
            "duration": 0.03409087500000041,
            "durationTicks": 24,
            "midi": 35,
            "name": "B1",
            "ticks": 10824,
            "time": 15.374984625,
            "velocity": 0.15748031496062992
          },
          {
            "duration": 0.03409087500000041,
            "durationTicks": 24,
            "midi": 35,
            "name": "B1",
            "ticks": 10848,
            "time": 15.4090755,
            "velocity": 0.15748031496062992
          },
          {
            "duration": 0.03409087499999863,
            "durationTicks": 24,
            "midi": 35,
            "name": "B1",
            "ticks": 10872,
            "time": 15.443166375,
            "velocity": 0.15748031496062992
          },
          {
            "duration": 0.03409087500000041,
            "durationTicks": 24,
            "midi": 35,
            "name": "B1",
            "ticks": 10896,
            "time": 15.47725725,
            "velocity": 0.15748031496062992
          },
          {
            "duration": 0.03409087500000041,
            "durationTicks": 24,
            "midi": 35,
            "name": "B1",
            "ticks": 10920,
            "time": 15.511348125,
            "velocity": 0.15748031496062992
          },
          {
            "duration": 0.03409087500000041,
            "durationTicks": 24,
            "midi": 35,
            "name": "B1",
            "ticks": 10944,
            "time": 15.545439,
            "velocity": 0.15748031496062992
          },
          {
            "duration": 0.03409087499999863,
            "durationTicks": 24,
            "midi": 35,
            "name": "B1",
            "ticks": 10968,
            "time": 15.579529875,
            "velocity": 0.15748031496062992
          },
          {
            "duration": 0.03409087500000041,
            "durationTicks": 24,
            "midi": 35,
            "name": "B1",
            "ticks": 10992,
            "time": 15.613620749999999,
            "velocity": 0.15748031496062992
          },
          {
            "duration": 0.03409087500000041,
            "durationTicks": 24,
            "midi": 35,
            "name": "B1",
            "ticks": 11016,
            "time": 15.647711625,
            "velocity": 0.15748031496062992
          },
          {
            "duration": 0.03409087500000041,
            "durationTicks": 24,
            "midi": 35,
            "name": "B1",
            "ticks": 11040,
            "time": 15.6818025,
            "velocity": 0.15748031496062992
          },
          {
            "duration": 0.03409087500000041,
            "durationTicks": 24,
            "midi": 35,
            "name": "B1",
            "ticks": 11064,
            "time": 15.715893375,
            "velocity": 0.15748031496062992
          },
          {
            "duration": 0.03409087499999863,
            "durationTicks": 24,
            "midi": 35,
            "name": "B1",
            "ticks": 11088,
            "time": 15.74998425,
            "velocity": 0.15748031496062992
          },
          {
            "duration": 0.03409087500000041,
            "durationTicks": 24,
            "midi": 35,
            "name": "B1",
            "ticks": 11112,
            "time": 15.784075125,
            "velocity": 0.15748031496062992
          },
          {
            "duration": 0.034090874999996856,
            "durationTicks": 24,
            "midi": 35,
            "name": "B1",
            "ticks": 11328,
            "time": 16.090893,
            "velocity": 0.15748031496062992
          },
          {
            "duration": 0.03409087500000041,
            "durationTicks": 24,
            "midi": 35,
            "name": "B1",
            "ticks": 11352,
            "time": 16.124983874999998,
            "velocity": 0.15748031496062992
          },
          {
            "duration": 0.03409087500000041,
            "durationTicks": 24,
            "midi": 35,
            "name": "B1",
            "ticks": 11376,
            "time": 16.15907475,
            "velocity": 0.15748031496062992
          },
          {
            "duration": 0.03409087500000041,
            "durationTicks": 24,
            "midi": 35,
            "name": "B1",
            "ticks": 11400,
            "time": 16.193165625,
            "velocity": 0.15748031496062992
          },
          {
            "duration": 0.03409087500000041,
            "durationTicks": 24,
            "midi": 35,
            "name": "B1",
            "ticks": 11424,
            "time": 16.2272565,
            "velocity": 0.15748031496062992
          },
          {
            "duration": 0.03409087500000041,
            "durationTicks": 24,
            "midi": 35,
            "name": "B1",
            "ticks": 11448,
            "time": 16.261347375,
            "velocity": 0.15748031496062992
          },
          {
            "duration": 0.03409087500000041,
            "durationTicks": 24,
            "midi": 35,
            "name": "B1",
            "ticks": 11472,
            "time": 16.29543825,
            "velocity": 0.15748031496062992
          },
          {
            "duration": 0.03409087500000041,
            "durationTicks": 24,
            "midi": 35,
            "name": "B1",
            "ticks": 11496,
            "time": 16.329529125,
            "velocity": 0.15748031496062992
          },
          {
            "duration": 0.03409087500000041,
            "durationTicks": 24,
            "midi": 35,
            "name": "B1",
            "ticks": 11520,
            "time": 16.36362,
            "velocity": 0.15748031496062992
          },
          {
            "duration": 0.034090874999996856,
            "durationTicks": 24,
            "midi": 35,
            "name": "B1",
            "ticks": 11544,
            "time": 16.397710875,
            "velocity": 0.15748031496062992
          },
          {
            "duration": 0.03409087500000041,
            "durationTicks": 24,
            "midi": 35,
            "name": "B1",
            "ticks": 11568,
            "time": 16.431801749999998,
            "velocity": 0.15748031496062992
          },
          {
            "duration": 0.03409087500000041,
            "durationTicks": 24,
            "midi": 35,
            "name": "B1",
            "ticks": 11592,
            "time": 16.465892625,
            "velocity": 0.15748031496062992
          },
          {
            "duration": 0.03409087500000041,
            "durationTicks": 24,
            "midi": 35,
            "name": "B1",
            "ticks": 11616,
            "time": 16.4999835,
            "velocity": 0.15748031496062992
          },
          {
            "duration": 0.03409087500000041,
            "durationTicks": 24,
            "midi": 35,
            "name": "B1",
            "ticks": 11640,
            "time": 16.534074375,
            "velocity": 0.15748031496062992
          },
          {
            "duration": 0.03409087500000041,
            "durationTicks": 24,
            "midi": 35,
            "name": "B1",
            "ticks": 11664,
            "time": 16.56816525,
            "velocity": 0.15748031496062992
          },
          {
            "duration": 0.03409087500000041,
            "durationTicks": 24,
            "midi": 35,
            "name": "B1",
            "ticks": 11688,
            "time": 16.602256125,
            "velocity": 0.15748031496062992
          },
          {
            "duration": 0.03409087500000041,
            "durationTicks": 24,
            "midi": 35,
            "name": "B1",
            "ticks": 11904,
            "time": 16.909074,
            "velocity": 0.15748031496062992
          },
          {
            "duration": 0.03409087500000041,
            "durationTicks": 24,
            "midi": 35,
            "name": "B1",
            "ticks": 11928,
            "time": 16.943164875,
            "velocity": 0.15748031496062992
          },
          {
            "duration": 0.034090874999996856,
            "durationTicks": 24,
            "midi": 35,
            "name": "B1",
            "ticks": 11952,
            "time": 16.97725575,
            "velocity": 0.15748031496062992
          },
          {
            "duration": 0.03409087500000041,
            "durationTicks": 24,
            "midi": 35,
            "name": "B1",
            "ticks": 11976,
            "time": 17.011346624999998,
            "velocity": 0.15748031496062992
          },
          {
            "duration": 0.03409087500000041,
            "durationTicks": 24,
            "midi": 35,
            "name": "B1",
            "ticks": 12000,
            "time": 17.0454375,
            "velocity": 0.15748031496062992
          },
          {
            "duration": 0.03409087500000041,
            "durationTicks": 24,
            "midi": 35,
            "name": "B1",
            "ticks": 12024,
            "time": 17.079528375,
            "velocity": 0.15748031496062992
          },
          {
            "duration": 0.03409087500000041,
            "durationTicks": 24,
            "midi": 35,
            "name": "B1",
            "ticks": 12048,
            "time": 17.11361925,
            "velocity": 0.15748031496062992
          },
          {
            "duration": 0.03409087500000041,
            "durationTicks": 24,
            "midi": 35,
            "name": "B1",
            "ticks": 12072,
            "time": 17.147710125,
            "velocity": 0.15748031496062992
          },
          {
            "duration": 0.03409087500000041,
            "durationTicks": 24,
            "midi": 35,
            "name": "B1",
            "ticks": 12096,
            "time": 17.181801,
            "velocity": 0.15748031496062992
          },
          {
            "duration": 0.03409087500000041,
            "durationTicks": 24,
            "midi": 35,
            "name": "B1",
            "ticks": 12120,
            "time": 17.215891875,
            "velocity": 0.15748031496062992
          },
          {
            "duration": 0.03409087500000041,
            "durationTicks": 24,
            "midi": 35,
            "name": "B1",
            "ticks": 12144,
            "time": 17.24998275,
            "velocity": 0.15748031496062992
          },
          {
            "duration": 0.034090874999996856,
            "durationTicks": 24,
            "midi": 35,
            "name": "B1",
            "ticks": 12168,
            "time": 17.284073625,
            "velocity": 0.15748031496062992
          },
          {
            "duration": 0.03409087500000041,
            "durationTicks": 24,
            "midi": 35,
            "name": "B1",
            "ticks": 12192,
            "time": 17.318164499999998,
            "velocity": 0.15748031496062992
          },
          {
            "duration": 0.03409087500000041,
            "durationTicks": 24,
            "midi": 35,
            "name": "B1",
            "ticks": 12216,
            "time": 17.352255375,
            "velocity": 0.15748031496062992
          },
          {
            "duration": 0.03409087500000041,
            "durationTicks": 24,
            "midi": 35,
            "name": "B1",
            "ticks": 12240,
            "time": 17.38634625,
            "velocity": 0.15748031496062992
          },
          {
            "duration": 0.03409087500000041,
            "durationTicks": 24,
            "midi": 35,
            "name": "B1",
            "ticks": 12264,
            "time": 17.420437125,
            "velocity": 0.15748031496062992
          }
        ],
        "endOfTrackTicks": 12288
      },
      {
        "channel": 2,
        "controlChanges": {},
        "pitchBends": [],
        "instrument": {
          "family": "strings",
          "number": 40,
          "name": "violin"
        },
        "name": "Violin",
        "notes": [
          {
            "duration": 0.034090874999999965,
            "durationTicks": 24,
            "midi": 64,
            "name": "E4",
            "ticks": 768,
            "time": 1.090908,
            "velocity": 0.4015748031496063
          },
          {
            "duration": 0.034090874999999965,
            "durationTicks": 24,
            "midi": 59,
            "name": "B3",
            "ticks": 768,
            "time": 1.090908,
            "velocity": 0.4015748031496063
          },
          {
            "duration": 0.034090874999999965,
            "durationTicks": 24,
            "midi": 59,
            "name": "B3",
            "ticks": 792,
            "time": 1.124998875,
            "velocity": 0.4015748031496063
          },
          {
            "duration": 0.034090874999999965,
            "durationTicks": 24,
            "midi": 64,
            "name": "E4",
            "ticks": 792,
            "time": 1.124998875,
            "velocity": 0.4015748031496063
          },
          {
            "duration": 0.034090874999999965,
            "durationTicks": 24,
            "midi": 59,
            "name": "B3",
            "ticks": 816,
            "time": 1.15908975,
            "velocity": 0.4015748031496063
          },
          {
            "duration": 0.034090874999999965,
            "durationTicks": 24,
            "midi": 64,
            "name": "E4",
            "ticks": 816,
            "time": 1.15908975,
            "velocity": 0.4015748031496063
          },
          {
            "duration": 0.03409087500000019,
            "durationTicks": 24,
            "midi": 64,
            "name": "E4",
            "ticks": 840,
            "time": 1.1931806249999999,
            "velocity": 0.4015748031496063
          },
          {
            "duration": 0.03409087500000019,
            "durationTicks": 24,
            "midi": 59,
            "name": "B3",
            "ticks": 840,
            "time": 1.1931806249999999,
            "velocity": 0.4015748031496063
          },
          {
            "duration": 0.034090874999999965,
            "durationTicks": 24,
            "midi": 59,
            "name": "B3",
            "ticks": 864,
            "time": 1.2272715,
            "velocity": 0.4015748031496063
          },
          {
            "duration": 0.034090874999999965,
            "durationTicks": 24,
            "midi": 64,
            "name": "E4",
            "ticks": 864,
            "time": 1.2272715,
            "velocity": 0.4015748031496063
          },
          {
            "duration": 0.034090874999999965,
            "durationTicks": 24,
            "midi": 64,
            "name": "E4",
            "ticks": 888,
            "time": 1.261362375,
            "velocity": 0.4015748031496063
          },
          {
            "duration": 0.034090874999999965,
            "durationTicks": 24,
            "midi": 59,
            "name": "B3",
            "ticks": 888,
            "time": 1.261362375,
            "velocity": 0.4015748031496063
          },
          {
            "duration": 0.034090874999999965,
            "durationTicks": 24,
            "midi": 64,
            "name": "E4",
            "ticks": 912,
            "time": 1.29545325,
            "velocity": 0.4015748031496063
          },
          {
            "duration": 0.034090874999999965,
            "durationTicks": 24,
            "midi": 59,
            "name": "B3",
            "ticks": 912,
            "time": 1.29545325,
            "velocity": 0.4015748031496063
          },
          {
            "duration": 0.034090874999999965,
            "durationTicks": 24,
            "midi": 59,
            "name": "B3",
            "ticks": 936,
            "time": 1.329544125,
            "velocity": 0.4015748031496063
          },
          {
            "duration": 0.034090874999999965,
            "durationTicks": 24,
            "midi": 64,
            "name": "E4",
            "ticks": 936,
            "time": 1.329544125,
            "velocity": 0.4015748031496063
          },
          {
            "duration": 0.034090874999999965,
            "durationTicks": 24,
            "midi": 64,
            "name": "E4",
            "ticks": 960,
            "time": 1.363635,
            "velocity": 0.4015748031496063
          },
          {
            "duration": 0.034090874999999965,
            "durationTicks": 24,
            "midi": 59,
            "name": "B3",
            "ticks": 960,
            "time": 1.363635,
            "velocity": 0.4015748031496063
          },
          {
            "duration": 0.03409087500000019,
            "durationTicks": 24,
            "midi": 59,
            "name": "B3",
            "ticks": 984,
            "time": 1.397725875,
            "velocity": 0.4015748031496063
          },
          {
            "duration": 0.03409087500000019,
            "durationTicks": 24,
            "midi": 64,
            "name": "E4",
            "ticks": 984,
            "time": 1.397725875,
            "velocity": 0.4015748031496063
          },
          {
            "duration": 0.034090874999999965,
            "durationTicks": 24,
            "midi": 59,
            "name": "B3",
            "ticks": 1008,
            "time": 1.43181675,
            "velocity": 0.4015748031496063
          },
          {
            "duration": 0.034090874999999965,
            "durationTicks": 24,
            "midi": 64,
            "name": "E4",
            "ticks": 1008,
            "time": 1.43181675,
            "velocity": 0.4015748031496063
          },
          {
            "duration": 0.034090874999999965,
            "durationTicks": 24,
            "midi": 59,
            "name": "B3",
            "ticks": 1032,
            "time": 1.465907625,
            "velocity": 0.4015748031496063
          },
          {
            "duration": 0.034090874999999965,
            "durationTicks": 24,
            "midi": 64,
            "name": "E4",
            "ticks": 1032,
            "time": 1.465907625,
            "velocity": 0.4015748031496063
          },
          {
            "duration": 0.034090874999999965,
            "durationTicks": 24,
            "midi": 64,
            "name": "E4",
            "ticks": 1056,
            "time": 1.4999985,
            "velocity": 0.4015748031496063
          },
          {
            "duration": 0.034090874999999965,
            "durationTicks": 24,
            "midi": 59,
            "name": "B3",
            "ticks": 1056,
            "time": 1.4999985,
            "velocity": 0.4015748031496063
          },
          {
            "duration": 0.034090874999999965,
            "durationTicks": 24,
            "midi": 64,
            "name": "E4",
            "ticks": 1080,
            "time": 1.534089375,
            "velocity": 0.4015748031496063
          },
          {
            "duration": 0.034090874999999965,
            "durationTicks": 24,
            "midi": 59,
            "name": "B3",
            "ticks": 1080,
            "time": 1.534089375,
            "velocity": 0.4015748031496063
          },
          {
            "duration": 0.034090874999999965,
            "durationTicks": 24,
            "midi": 64,
            "name": "E4",
            "ticks": 1104,
            "time": 1.56818025,
            "velocity": 0.4015748031496063
          },
          {
            "duration": 0.034090874999999965,
            "durationTicks": 24,
            "midi": 59,
            "name": "B3",
            "ticks": 1104,
            "time": 1.56818025,
            "velocity": 0.4015748031496063
          },
          {
            "duration": 0.03409087500000019,
            "durationTicks": 24,
            "midi": 64,
            "name": "E4",
            "ticks": 1128,
            "time": 1.602271125,
            "velocity": 0.4015748031496063
          },
          {
            "duration": 0.03409087500000019,
            "durationTicks": 24,
            "midi": 59,
            "name": "B3",
            "ticks": 1128,
            "time": 1.602271125,
            "velocity": 0.4015748031496063
          },
          {
            "duration": 0.034090874999999965,
            "durationTicks": 24,
            "midi": 64,
            "name": "E4",
            "ticks": 1152,
            "time": 1.636362,
            "velocity": 0.4015748031496063
          },
          {
            "duration": 0.034090874999999965,
            "durationTicks": 24,
            "midi": 64,
            "name": "E4",
            "ticks": 1176,
            "time": 1.670452875,
            "velocity": 0.4015748031496063
          },
          {
            "duration": 0.034090874999999965,
            "durationTicks": 24,
            "midi": 64,
            "name": "E4",
            "ticks": 1200,
            "time": 1.70454375,
            "velocity": 0.4015748031496063
          },
          {
            "duration": 0.034090874999999965,
            "durationTicks": 24,
            "midi": 64,
            "name": "E4",
            "ticks": 1224,
            "time": 1.738634625,
            "velocity": 0.4015748031496063
          },
          {
            "duration": 0.034090874999999965,
            "durationTicks": 24,
            "midi": 64,
            "name": "E4",
            "ticks": 1248,
            "time": 1.7727255,
            "velocity": 0.4015748031496063
          },
          {
            "duration": 0.034090874999999965,
            "durationTicks": 24,
            "midi": 64,
            "name": "E4",
            "ticks": 1272,
            "time": 1.806816375,
            "velocity": 0.4015748031496063
          },
          {
            "duration": 0.03409087500000019,
            "durationTicks": 24,
            "midi": 64,
            "name": "E4",
            "ticks": 1296,
            "time": 1.8409072499999999,
            "velocity": 0.4015748031496063
          },
          {
            "duration": 0.034090874999999965,
            "durationTicks": 24,
            "midi": 64,
            "name": "E4",
            "ticks": 1320,
            "time": 1.874998125,
            "velocity": 0.4015748031496063
          },
          {
            "duration": 0.034090874999999965,
            "durationTicks": 24,
            "midi": 64,
            "name": "E4",
            "ticks": 1344,
            "time": 1.909089,
            "velocity": 0.4015748031496063
          },
          {
            "duration": 0.034090874999999965,
            "durationTicks": 24,
            "midi": 64,
            "name": "E4",
            "ticks": 1368,
            "time": 1.943179875,
            "velocity": 0.4015748031496063
          },
          {
            "duration": 0.03409087500000019,
            "durationTicks": 24,
            "midi": 64,
            "name": "E4",
            "ticks": 1392,
            "time": 1.97727075,
            "velocity": 0.4015748031496063
          },
          {
            "duration": 0.034090874999999965,
            "durationTicks": 24,
            "midi": 59,
            "name": "B3",
            "ticks": 1536,
            "time": 2.181816,
            "velocity": 0.4015748031496063
          },
          {
            "duration": 0.034090874999999965,
            "durationTicks": 24,
            "midi": 55,
            "name": "G3",
            "ticks": 1536,
            "time": 2.181816,
            "velocity": 0.4015748031496063
          },
          {
            "duration": 0.034090874999999965,
            "durationTicks": 24,
            "midi": 55,
            "name": "G3",
            "ticks": 1560,
            "time": 2.215906875,
            "velocity": 0.4015748031496063
          },
          {
            "duration": 0.034090874999999965,
            "durationTicks": 24,
            "midi": 59,
            "name": "B3",
            "ticks": 1560,
            "time": 2.215906875,
            "velocity": 0.4015748031496063
          },
          {
            "duration": 0.034090874999999965,
            "durationTicks": 24,
            "midi": 55,
            "name": "G3",
            "ticks": 1584,
            "time": 2.24999775,
            "velocity": 0.4015748031496063
          },
          {
            "duration": 0.034090874999999965,
            "durationTicks": 24,
            "midi": 59,
            "name": "B3",
            "ticks": 1584,
            "time": 2.24999775,
            "velocity": 0.4015748031496063
          },
          {
            "duration": 0.034090874999999965,
            "durationTicks": 24,
            "midi": 55,
            "name": "G3",
            "ticks": 1608,
            "time": 2.284088625,
            "velocity": 0.4015748031496063
          },
          {
            "duration": 0.034090874999999965,
            "durationTicks": 24,
            "midi": 59,
            "name": "B3",
            "ticks": 1608,
            "time": 2.284088625,
            "velocity": 0.4015748031496063
          },
          {
            "duration": 0.034090874999999965,
            "durationTicks": 24,
            "midi": 55,
            "name": "G3",
            "ticks": 1632,
            "time": 2.3181795,
            "velocity": 0.4015748031496063
          },
          {
            "duration": 0.034090874999999965,
            "durationTicks": 24,
            "midi": 59,
            "name": "B3",
            "ticks": 1632,
            "time": 2.3181795,
            "velocity": 0.4015748031496063
          },
          {
            "duration": 0.034090874999999965,
            "durationTicks": 24,
            "midi": 55,
            "name": "G3",
            "ticks": 1656,
            "time": 2.352270375,
            "velocity": 0.4015748031496063
          },
          {
            "duration": 0.034090874999999965,
            "durationTicks": 24,
            "midi": 59,
            "name": "B3",
            "ticks": 1656,
            "time": 2.352270375,
            "velocity": 0.4015748031496063
          },
          {
            "duration": 0.03409087500000041,
            "durationTicks": 24,
            "midi": 59,
            "name": "B3",
            "ticks": 1680,
            "time": 2.3863612499999998,
            "velocity": 0.4015748031496063
          },
          {
            "duration": 0.03409087500000041,
            "durationTicks": 24,
            "midi": 55,
            "name": "G3",
            "ticks": 1680,
            "time": 2.3863612499999998,
            "velocity": 0.4015748031496063
          },
          {
            "duration": 0.034090874999999965,
            "durationTicks": 24,
            "midi": 59,
            "name": "B3",
            "ticks": 1704,
            "time": 2.420452125,
            "velocity": 0.4015748031496063
          },
          {
            "duration": 0.034090874999999965,
            "durationTicks": 24,
            "midi": 55,
            "name": "G3",
            "ticks": 1704,
            "time": 2.420452125,
            "velocity": 0.4015748031496063
          },
          {
            "duration": 0.034090874999999965,
            "durationTicks": 24,
            "midi": 55,
            "name": "G3",
            "ticks": 1728,
            "time": 2.454543,
            "velocity": 0.4015748031496063
          },
          {
            "duration": 0.034090874999999965,
            "durationTicks": 24,
            "midi": 55,
            "name": "G3",
            "ticks": 1728,
            "time": 2.454543,
            "velocity": 0.4015748031496063
          },
          {
            "duration": 0.034090874999999965,
            "durationTicks": 24,
            "midi": 59,
            "name": "B3",
            "ticks": 1728,
            "time": 2.454543,
            "velocity": 0.4015748031496063
          },
          {
            "duration": 0.034090874999999965,
            "durationTicks": 24,
            "midi": 59,
            "name": "B3",
            "ticks": 1752,
            "time": 2.488633875,
            "velocity": 0.4015748031496063
          },
          {
            "duration": 0.034090874999999965,
            "durationTicks": 24,
            "midi": 59,
            "name": "B3",
            "ticks": 1776,
            "time": 2.52272475,
            "velocity": 0.4015748031496063
          },
          {
            "duration": 0.034090874999999965,
            "durationTicks": 24,
            "midi": 55,
            "name": "G3",
            "ticks": 1776,
            "time": 2.52272475,
            "velocity": 0.4015748031496063
          },
          {
            "duration": 0.034090874999999965,
            "durationTicks": 24,
            "midi": 55,
            "name": "G3",
            "ticks": 1800,
            "time": 2.556815625,
            "velocity": 0.4015748031496063
          },
          {
            "duration": 0.034090874999999965,
            "durationTicks": 24,
            "midi": 59,
            "name": "B3",
            "ticks": 1800,
            "time": 2.556815625,
            "velocity": 0.4015748031496063
          },
          {
            "duration": 0.034090874999999965,
            "durationTicks": 24,
            "midi": 55,
            "name": "G3",
            "ticks": 1824,
            "time": 2.5909065,
            "velocity": 0.4015748031496063
          },
          {
            "duration": 0.034090874999999965,
            "durationTicks": 24,
            "midi": 59,
            "name": "B3",
            "ticks": 1824,
            "time": 2.5909065,
            "velocity": 0.4015748031496063
          },
          {
            "duration": 0.034090874999999965,
            "durationTicks": 24,
            "midi": 59,
            "name": "B3",
            "ticks": 1848,
            "time": 2.624997375,
            "velocity": 0.4015748031496063
          },
          {
            "duration": 0.034090874999999965,
            "durationTicks": 24,
            "midi": 55,
            "name": "G3",
            "ticks": 1848,
            "time": 2.624997375,
            "velocity": 0.4015748031496063
          },
          {
            "duration": 0.034090874999999965,
            "durationTicks": 24,
            "midi": 55,
            "name": "G3",
            "ticks": 1872,
            "time": 2.65908825,
            "velocity": 0.4015748031496063
          },
          {
            "duration": 0.034090874999999965,
            "durationTicks": 24,
            "midi": 59,
            "name": "B3",
            "ticks": 1872,
            "time": 2.65908825,
            "velocity": 0.4015748031496063
          },
          {
            "duration": 0.034090874999999965,
            "durationTicks": 24,
            "midi": 55,
            "name": "G3",
            "ticks": 1896,
            "time": 2.693179125,
            "velocity": 0.4015748031496063
          },
          {
            "duration": 0.034090874999999965,
            "durationTicks": 24,
            "midi": 59,
            "name": "B3",
            "ticks": 1896,
            "time": 2.693179125,
            "velocity": 0.4015748031496063
          },
          {
            "duration": 0.034090874999999965,
            "durationTicks": 24,
            "midi": 55,
            "name": "G3",
            "ticks": 1920,
            "time": 2.72727,
            "velocity": 0.4015748031496063
          },
          {
            "duration": 0.034090874999999965,
            "durationTicks": 24,
            "midi": 59,
            "name": "B3",
            "ticks": 1920,
            "time": 2.72727,
            "velocity": 0.4015748031496063
          },
          {
            "duration": 0.034090874999999965,
            "durationTicks": 24,
            "midi": 59,
            "name": "B3",
            "ticks": 1944,
            "time": 2.761360875,
            "velocity": 0.4015748031496063
          },
          {
            "duration": 0.034090874999999965,
            "durationTicks": 24,
            "midi": 55,
            "name": "G3",
            "ticks": 1944,
            "time": 2.761360875,
            "velocity": 0.4015748031496063
          },
          {
            "duration": 0.034090874999999965,
            "durationTicks": 24,
            "midi": 55,
            "name": "G3",
            "ticks": 1968,
            "time": 2.79545175,
            "velocity": 0.4015748031496063
          },
          {
            "duration": 0.034090874999999965,
            "durationTicks": 24,
            "midi": 59,
            "name": "B3",
            "ticks": 1968,
            "time": 2.79545175,
            "velocity": 0.4015748031496063
          },
          {
            "duration": 0.03409087500000041,
            "durationTicks": 24,
            "midi": 55,
            "name": "G3",
            "ticks": 1992,
            "time": 2.8295426249999998,
            "velocity": 0.4015748031496063
          },
          {
            "duration": 0.03409087500000041,
            "durationTicks": 24,
            "midi": 59,
            "name": "B3",
            "ticks": 1992,
            "time": 2.8295426249999998,
            "velocity": 0.4015748031496063
          },
          {
            "duration": 0.034090874999999965,
            "durationTicks": 24,
            "midi": 59,
            "name": "B3",
            "ticks": 2016,
            "time": 2.8636335,
            "velocity": 0.4015748031496063
          },
          {
            "duration": 0.034090874999999965,
            "durationTicks": 24,
            "midi": 55,
            "name": "G3",
            "ticks": 2016,
            "time": 2.8636335,
            "velocity": 0.4015748031496063
          },
          {
            "duration": 0.034090874999999965,
            "durationTicks": 24,
            "midi": 55,
            "name": "G3",
            "ticks": 2040,
            "time": 2.897724375,
            "velocity": 0.4015748031496063
          },
          {
            "duration": 0.034090874999999965,
            "durationTicks": 24,
            "midi": 59,
            "name": "B3",
            "ticks": 2040,
            "time": 2.897724375,
            "velocity": 0.4015748031496063
          },
          {
            "duration": 0.034090874999999965,
            "durationTicks": 24,
            "midi": 55,
            "name": "G3",
            "ticks": 2064,
            "time": 2.93181525,
            "velocity": 0.4015748031496063
          },
          {
            "duration": 0.034090874999999965,
            "durationTicks": 24,
            "midi": 59,
            "name": "B3",
            "ticks": 2064,
            "time": 2.93181525,
            "velocity": 0.4015748031496063
          },
          {
            "duration": 0.034090874999999965,
            "durationTicks": 24,
            "midi": 59,
            "name": "B3",
            "ticks": 2088,
            "time": 2.965906125,
            "velocity": 0.4015748031496063
          },
          {
            "duration": 0.034090874999999965,
            "durationTicks": 24,
            "midi": 55,
            "name": "G3",
            "ticks": 2088,
            "time": 2.965906125,
            "velocity": 0.4015748031496063
          },
          {
            "duration": 0.034090874999999965,
            "durationTicks": 24,
            "midi": 59,
            "name": "B3",
            "ticks": 2112,
            "time": 2.999997,
            "velocity": 0.4015748031496063
          },
          {
            "duration": 0.034090874999999965,
            "durationTicks": 24,
            "midi": 55,
            "name": "G3",
            "ticks": 2112,
            "time": 2.999997,
            "velocity": 0.4015748031496063
          },
          {
            "duration": 0.034090874999999965,
            "durationTicks": 24,
            "midi": 59,
            "name": "B3",
            "ticks": 2136,
            "time": 3.034087875,
            "velocity": 0.4015748031496063
          },
          {
            "duration": 0.034090874999999965,
            "durationTicks": 24,
            "midi": 55,
            "name": "G3",
            "ticks": 2136,
            "time": 3.034087875,
            "velocity": 0.4015748031496063
          },
          {
            "duration": 0.034090874999999965,
            "durationTicks": 24,
            "midi": 59,
            "name": "B3",
            "ticks": 2160,
            "time": 3.06817875,
            "velocity": 0.4015748031496063
          },
          {
            "duration": 0.034090874999999965,
            "durationTicks": 24,
            "midi": 55,
            "name": "G3",
            "ticks": 2160,
            "time": 3.06817875,
            "velocity": 0.4015748031496063
          },
          {
            "duration": 0.034090874999999965,
            "durationTicks": 24,
            "midi": 55,
            "name": "G3",
            "ticks": 2184,
            "time": 3.102269625,
            "velocity": 0.4015748031496063
          },
          {
            "duration": 0.034090874999999965,
            "durationTicks": 24,
            "midi": 59,
            "name": "B3",
            "ticks": 2184,
            "time": 3.102269625,
            "velocity": 0.4015748031496063
          },
          {
            "duration": 0.034090874999999965,
            "durationTicks": 24,
            "midi": 55,
            "name": "G3",
            "ticks": 2208,
            "time": 3.1363605,
            "velocity": 0.4015748031496063
          },
          {
            "duration": 0.034090874999999965,
            "durationTicks": 24,
            "midi": 59,
            "name": "B3",
            "ticks": 2208,
            "time": 3.1363605,
            "velocity": 0.4015748031496063
          },
          {
            "duration": 0.034090874999999965,
            "durationTicks": 24,
            "midi": 55,
            "name": "G3",
            "ticks": 2232,
            "time": 3.170451375,
            "velocity": 0.4015748031496063
          },
          {
            "duration": 0.034090874999999965,
            "durationTicks": 24,
            "midi": 59,
            "name": "B3",
            "ticks": 2232,
            "time": 3.170451375,
            "velocity": 0.4015748031496063
          },
          {
            "duration": 0.034090874999999965,
            "durationTicks": 24,
            "midi": 55,
            "name": "G3",
            "ticks": 2256,
            "time": 3.20454225,
            "velocity": 0.4015748031496063
          },
          {
            "duration": 0.034090874999999965,
            "durationTicks": 24,
            "midi": 59,
            "name": "B3",
            "ticks": 2256,
            "time": 3.20454225,
            "velocity": 0.4015748031496063
          },
          {
            "duration": 0.03409087500000041,
            "durationTicks": 24,
            "midi": 59,
            "name": "B3",
            "ticks": 2280,
            "time": 3.238633125,
            "velocity": 0.4015748031496063
          },
          {
            "duration": 0.03409087500000041,
            "durationTicks": 24,
            "midi": 55,
            "name": "G3",
            "ticks": 2280,
            "time": 3.238633125,
            "velocity": 0.4015748031496063
          },
          {
            "duration": 0.03409087500000041,
            "durationTicks": 24,
            "midi": 64,
            "name": "E4",
            "ticks": 3840,
            "time": 5.45454,
            "velocity": 0.4015748031496063
          },
          {
            "duration": 0.03409087500000041,
            "durationTicks": 24,
            "midi": 59,
            "name": "B3",
            "ticks": 3840,
            "time": 5.45454,
            "velocity": 0.4015748031496063
          },
          {
            "duration": 0.03409087499999952,
            "durationTicks": 24,
            "midi": 59,
            "name": "B3",
            "ticks": 3864,
            "time": 5.488630875,
            "velocity": 0.4015748031496063
          },
          {
            "duration": 0.03409087499999952,
            "durationTicks": 24,
            "midi": 64,
            "name": "E4",
            "ticks": 3864,
            "time": 5.488630875,
            "velocity": 0.4015748031496063
          },
          {
            "duration": 0.03409087500000041,
            "durationTicks": 24,
            "midi": 59,
            "name": "B3",
            "ticks": 3888,
            "time": 5.52272175,
            "velocity": 0.4015748031496063
          },
          {
            "duration": 0.03409087500000041,
            "durationTicks": 24,
            "midi": 64,
            "name": "E4",
            "ticks": 3888,
            "time": 5.52272175,
            "velocity": 0.4015748031496063
          },
          {
            "duration": 0.03409087499999952,
            "durationTicks": 24,
            "midi": 64,
            "name": "E4",
            "ticks": 3912,
            "time": 5.556812625,
            "velocity": 0.4015748031496063
          },
          {
            "duration": 0.03409087499999952,
            "durationTicks": 24,
            "midi": 59,
            "name": "B3",
            "ticks": 3912,
            "time": 5.556812625,
            "velocity": 0.4015748031496063
          },
          {
            "duration": 0.03409087500000041,
            "durationTicks": 24,
            "midi": 59,
            "name": "B3",
            "ticks": 3936,
            "time": 5.5909035,
            "velocity": 0.4015748031496063
          },
          {
            "duration": 0.03409087500000041,
            "durationTicks": 24,
            "midi": 64,
            "name": "E4",
            "ticks": 3936,
            "time": 5.5909035,
            "velocity": 0.4015748031496063
          },
          {
            "duration": 0.03409087499999952,
            "durationTicks": 24,
            "midi": 59,
            "name": "B3",
            "ticks": 3960,
            "time": 5.624994375,
            "velocity": 0.4015748031496063
          },
          {
            "duration": 0.03409087499999952,
            "durationTicks": 24,
            "midi": 64,
            "name": "E4",
            "ticks": 3960,
            "time": 5.624994375,
            "velocity": 0.4015748031496063
          },
          {
            "duration": 0.03409087500000041,
            "durationTicks": 24,
            "midi": 59,
            "name": "B3",
            "ticks": 3984,
            "time": 5.6590852499999995,
            "velocity": 0.4015748031496063
          },
          {
            "duration": 0.03409087500000041,
            "durationTicks": 24,
            "midi": 64,
            "name": "E4",
            "ticks": 3984,
            "time": 5.6590852499999995,
            "velocity": 0.4015748031496063
          },
          {
            "duration": 0.03409087500000041,
            "durationTicks": 24,
            "midi": 64,
            "name": "E4",
            "ticks": 4008,
            "time": 5.693176125,
            "velocity": 0.4015748031496063
          },
          {
            "duration": 0.03409087500000041,
            "durationTicks": 24,
            "midi": 59,
            "name": "B3",
            "ticks": 4008,
            "time": 5.693176125,
            "velocity": 0.4015748031496063
          },
          {
            "duration": 0.03409087499999952,
            "durationTicks": 24,
            "midi": 64,
            "name": "E4",
            "ticks": 4032,
            "time": 5.727267,
            "velocity": 0.4015748031496063
          },
          {
            "duration": 0.03409087499999952,
            "durationTicks": 24,
            "midi": 59,
            "name": "B3",
            "ticks": 4032,
            "time": 5.727267,
            "velocity": 0.4015748031496063
          },
          {
            "duration": 0.03409087500000041,
            "durationTicks": 24,
            "midi": 59,
            "name": "B3",
            "ticks": 4056,
            "time": 5.761357875,
            "velocity": 0.4015748031496063
          },
          {
            "duration": 0.03409087500000041,
            "durationTicks": 24,
            "midi": 64,
            "name": "E4",
            "ticks": 4056,
            "time": 5.761357875,
            "velocity": 0.4015748031496063
          },
          {
            "duration": 0.03409087499999952,
            "durationTicks": 24,
            "midi": 59,
            "name": "B3",
            "ticks": 4080,
            "time": 5.79544875,
            "velocity": 0.4015748031496063
          },
          {
            "duration": 0.03409087499999952,
            "durationTicks": 24,
            "midi": 64,
            "name": "E4",
            "ticks": 4080,
            "time": 5.79544875,
            "velocity": 0.4015748031496063
          },
          {
            "duration": 0.03409087500000041,
            "durationTicks": 24,
            "midi": 59,
            "name": "B3",
            "ticks": 4104,
            "time": 5.829539625,
            "velocity": 0.4015748031496063
          },
          {
            "duration": 0.03409087500000041,
            "durationTicks": 24,
            "midi": 64,
            "name": "E4",
            "ticks": 4104,
            "time": 5.829539625,
            "velocity": 0.4015748031496063
          },
          {
            "duration": 0.03409087499999952,
            "durationTicks": 24,
            "midi": 59,
            "name": "B3",
            "ticks": 4128,
            "time": 5.8636305,
            "velocity": 0.4015748031496063
          },
          {
            "duration": 0.03409087499999952,
            "durationTicks": 24,
            "midi": 64,
            "name": "E4",
            "ticks": 4128,
            "time": 5.8636305,
            "velocity": 0.4015748031496063
          },
          {
            "duration": 0.03409087500000041,
            "durationTicks": 24,
            "midi": 59,
            "name": "B3",
            "ticks": 4152,
            "time": 5.897721375,
            "velocity": 0.4015748031496063
          },
          {
            "duration": 0.03409087500000041,
            "durationTicks": 24,
            "midi": 64,
            "name": "E4",
            "ticks": 4152,
            "time": 5.897721375,
            "velocity": 0.4015748031496063
          },
          {
            "duration": 0.03409087499999952,
            "durationTicks": 24,
            "midi": 64,
            "name": "E4",
            "ticks": 4176,
            "time": 5.93181225,
            "velocity": 0.4015748031496063
          },
          {
            "duration": 0.03409087499999952,
            "durationTicks": 24,
            "midi": 59,
            "name": "B3",
            "ticks": 4176,
            "time": 5.93181225,
            "velocity": 0.4015748031496063
          },
          {
            "duration": 0.03409087500000041,
            "durationTicks": 24,
            "midi": 59,
            "name": "B3",
            "ticks": 4200,
            "time": 5.965903125,
            "velocity": 0.4015748031496063
          },
          {
            "duration": 0.03409087500000041,
            "durationTicks": 24,
            "midi": 64,
            "name": "E4",
            "ticks": 4200,
            "time": 5.965903125,
            "velocity": 0.4015748031496063
          },
          {
            "duration": 0.03409087499999952,
            "durationTicks": 24,
            "midi": 64,
            "name": "E4",
            "ticks": 4224,
            "time": 5.999994,
            "velocity": 0.4015748031496063
          },
          {
            "duration": 0.03409087500000041,
            "durationTicks": 24,
            "midi": 64,
            "name": "E4",
            "ticks": 4248,
            "time": 6.034084875,
            "velocity": 0.4015748031496063
          },
          {
            "duration": 0.03409087499999952,
            "durationTicks": 24,
            "midi": 64,
            "name": "E4",
            "ticks": 4272,
            "time": 6.06817575,
            "velocity": 0.4015748031496063
          },
          {
            "duration": 0.03409087500000041,
            "durationTicks": 24,
            "midi": 64,
            "name": "E4",
            "ticks": 4296,
            "time": 6.1022666249999995,
            "velocity": 0.4015748031496063
          },
          {
            "duration": 0.03409087500000041,
            "durationTicks": 24,
            "midi": 64,
            "name": "E4",
            "ticks": 4320,
            "time": 6.1363575,
            "velocity": 0.4015748031496063
          },
          {
            "duration": 0.03409087499999952,
            "durationTicks": 24,
            "midi": 64,
            "name": "E4",
            "ticks": 4344,
            "time": 6.170448375,
            "velocity": 0.4015748031496063
          },
          {
            "duration": 0.03409087500000041,
            "durationTicks": 24,
            "midi": 64,
            "name": "E4",
            "ticks": 4368,
            "time": 6.20453925,
            "velocity": 0.4015748031496063
          },
          {
            "duration": 0.03409087499999952,
            "durationTicks": 24,
            "midi": 64,
            "name": "E4",
            "ticks": 4392,
            "time": 6.238630125,
            "velocity": 0.4015748031496063
          },
          {
            "duration": 0.03409087500000041,
            "durationTicks": 24,
            "midi": 64,
            "name": "E4",
            "ticks": 4416,
            "time": 6.272721,
            "velocity": 0.4015748031496063
          },
          {
            "duration": 0.03409087499999952,
            "durationTicks": 24,
            "midi": 64,
            "name": "E4",
            "ticks": 4440,
            "time": 6.306811875,
            "velocity": 0.4015748031496063
          },
          {
            "duration": 0.03409087500000041,
            "durationTicks": 24,
            "midi": 64,
            "name": "E4",
            "ticks": 4464,
            "time": 6.34090275,
            "velocity": 0.4015748031496063
          },
          {
            "duration": 0.03409087499999952,
            "durationTicks": 24,
            "midi": 55,
            "name": "G3",
            "ticks": 4608,
            "time": 6.545448,
            "velocity": 0.4015748031496063
          },
          {
            "duration": 0.03409087499999952,
            "durationTicks": 24,
            "midi": 59,
            "name": "B3",
            "ticks": 4608,
            "time": 6.545448,
            "velocity": 0.4015748031496063
          },
          {
            "duration": 0.03409087500000041,
            "durationTicks": 24,
            "midi": 59,
            "name": "B3",
            "ticks": 4632,
            "time": 6.579538875,
            "velocity": 0.4015748031496063
          },
          {
            "duration": 0.03409087500000041,
            "durationTicks": 24,
            "midi": 55,
            "name": "G3",
            "ticks": 4632,
            "time": 6.579538875,
            "velocity": 0.4015748031496063
          },
          {
            "duration": 0.03409087499999952,
            "durationTicks": 24,
            "midi": 59,
            "name": "B3",
            "ticks": 4656,
            "time": 6.61362975,
            "velocity": 0.4015748031496063
          },
          {
            "duration": 0.03409087499999952,
            "durationTicks": 24,
            "midi": 55,
            "name": "G3",
            "ticks": 4656,
            "time": 6.61362975,
            "velocity": 0.4015748031496063
          },
          {
            "duration": 0.03409087500000041,
            "durationTicks": 24,
            "midi": 59,
            "name": "B3",
            "ticks": 4680,
            "time": 6.647720625,
            "velocity": 0.4015748031496063
          },
          {
            "duration": 0.03409087500000041,
            "durationTicks": 24,
            "midi": 55,
            "name": "G3",
            "ticks": 4680,
            "time": 6.647720625,
            "velocity": 0.4015748031496063
          },
          {
            "duration": 0.03409087499999952,
            "durationTicks": 24,
            "midi": 59,
            "name": "B3",
            "ticks": 4704,
            "time": 6.6818115,
            "velocity": 0.4015748031496063
          },
          {
            "duration": 0.03409087499999952,
            "durationTicks": 24,
            "midi": 55,
            "name": "G3",
            "ticks": 4704,
            "time": 6.6818115,
            "velocity": 0.4015748031496063
          },
          {
            "duration": 0.03409087500000041,
            "durationTicks": 24,
            "midi": 55,
            "name": "G3",
            "ticks": 4728,
            "time": 6.715902375,
            "velocity": 0.4015748031496063
          },
          {
            "duration": 0.03409087500000041,
            "durationTicks": 24,
            "midi": 59,
            "name": "B3",
            "ticks": 4728,
            "time": 6.715902375,
            "velocity": 0.4015748031496063
          },
          {
            "duration": 0.03409087499999952,
            "durationTicks": 24,
            "midi": 59,
            "name": "B3",
            "ticks": 4752,
            "time": 6.74999325,
            "velocity": 0.4015748031496063
          },
          {
            "duration": 0.03409087499999952,
            "durationTicks": 24,
            "midi": 55,
            "name": "G3",
            "ticks": 4752,
            "time": 6.74999325,
            "velocity": 0.4015748031496063
          },
          {
            "duration": 0.03409087500000041,
            "durationTicks": 24,
            "midi": 55,
            "name": "G3",
            "ticks": 4776,
            "time": 6.784084125,
            "velocity": 0.4015748031496063
          },
          {
            "duration": 0.03409087500000041,
            "durationTicks": 24,
            "midi": 59,
            "name": "B3",
            "ticks": 4776,
            "time": 6.784084125,
            "velocity": 0.4015748031496063
          },
          {
            "duration": 0.03409087499999952,
            "durationTicks": 24,
            "midi": 55,
            "name": "G3",
            "ticks": 4800,
            "time": 6.818175,
            "velocity": 0.4015748031496063
          },
          {
            "duration": 0.03409087499999952,
            "durationTicks": 24,
            "midi": 59,
            "name": "B3",
            "ticks": 4800,
            "time": 6.818175,
            "velocity": 0.4015748031496063
          },
          {
            "duration": 0.03409087500000041,
            "durationTicks": 24,
            "midi": 55,
            "name": "G3",
            "ticks": 4824,
            "time": 6.852265875,
            "velocity": 0.4015748031496063
          },
          {
            "duration": 0.03409087500000041,
            "durationTicks": 24,
            "midi": 59,
            "name": "B3",
            "ticks": 4824,
            "time": 6.852265875,
            "velocity": 0.4015748031496063
          },
          {
            "duration": 0.03409087499999952,
            "durationTicks": 24,
            "midi": 55,
            "name": "G3",
            "ticks": 4848,
            "time": 6.88635675,
            "velocity": 0.4015748031496063
          },
          {
            "duration": 0.03409087499999952,
            "durationTicks": 24,
            "midi": 59,
            "name": "B3",
            "ticks": 4848,
            "time": 6.88635675,
            "velocity": 0.4015748031496063
          },
          {
            "duration": 0.03409087500000041,
            "durationTicks": 24,
            "midi": 59,
            "name": "B3",
            "ticks": 4872,
            "time": 6.9204476249999995,
            "velocity": 0.4015748031496063
          },
          {
            "duration": 0.03409087500000041,
            "durationTicks": 24,
            "midi": 55,
            "name": "G3",
            "ticks": 4872,
            "time": 6.9204476249999995,
            "velocity": 0.4015748031496063
          },
          {
            "duration": 0.03409087500000041,
            "durationTicks": 24,
            "midi": 59,
            "name": "B3",
            "ticks": 4896,
            "time": 6.9545385,
            "velocity": 0.4015748031496063
          },
          {
            "duration": 0.03409087500000041,
            "durationTicks": 24,
            "midi": 55,
            "name": "G3",
            "ticks": 4896,
            "time": 6.9545385,
            "velocity": 0.4015748031496063
          },
          {
            "duration": 0.03409087499999952,
            "durationTicks": 24,
            "midi": 55,
            "name": "G3",
            "ticks": 4920,
            "time": 6.988629375,
            "velocity": 0.4015748031496063
          },
          {
            "duration": 0.03409087499999952,
            "durationTicks": 24,
            "midi": 59,
            "name": "B3",
            "ticks": 4920,
            "time": 6.988629375,
            "velocity": 0.4015748031496063
          },
          {
            "duration": 0.03409087500000041,
            "durationTicks": 24,
            "midi": 59,
            "name": "B3",
            "ticks": 4944,
            "time": 7.02272025,
            "velocity": 0.4015748031496063
          },
          {
            "duration": 0.03409087500000041,
            "durationTicks": 24,
            "midi": 55,
            "name": "G3",
            "ticks": 4944,
            "time": 7.02272025,
            "velocity": 0.4015748031496063
          },
          {
            "duration": 0.03409087499999952,
            "durationTicks": 24,
            "midi": 55,
            "name": "G3",
            "ticks": 4968,
            "time": 7.056811125,
            "velocity": 0.4015748031496063
          },
          {
            "duration": 0.03409087499999952,
            "durationTicks": 24,
            "midi": 59,
            "name": "B3",
            "ticks": 4968,
            "time": 7.056811125,
            "velocity": 0.4015748031496063
          },
          {
            "duration": 0.03409087500000041,
            "durationTicks": 24,
            "midi": 55,
            "name": "G3",
            "ticks": 4992,
            "time": 7.090902,
            "velocity": 0.4015748031496063
          },
          {
            "duration": 0.03409087500000041,
            "durationTicks": 24,
            "midi": 59,
            "name": "B3",
            "ticks": 4992,
            "time": 7.090902,
            "velocity": 0.4015748031496063
          },
          {
            "duration": 0.03409087499999952,
            "durationTicks": 24,
            "midi": 59,
            "name": "B3",
            "ticks": 5016,
            "time": 7.124992875,
            "velocity": 0.4015748031496063
          },
          {
            "duration": 0.03409087499999952,
            "durationTicks": 24,
            "midi": 55,
            "name": "G3",
            "ticks": 5016,
            "time": 7.124992875,
            "velocity": 0.4015748031496063
          },
          {
            "duration": 0.03409087500000041,
            "durationTicks": 24,
            "midi": 55,
            "name": "G3",
            "ticks": 5040,
            "time": 7.15908375,
            "velocity": 0.4015748031496063
          },
          {
            "duration": 0.03409087500000041,
            "durationTicks": 24,
            "midi": 59,
            "name": "B3",
            "ticks": 5040,
            "time": 7.15908375,
            "velocity": 0.4015748031496063
          },
          {
            "duration": 0.03409087499999952,
            "durationTicks": 24,
            "midi": 59,
            "name": "B3",
            "ticks": 5064,
            "time": 7.193174625,
            "velocity": 0.4015748031496063
          },
          {
            "duration": 0.03409087499999952,
            "durationTicks": 24,
            "midi": 55,
            "name": "G3",
            "ticks": 5064,
            "time": 7.193174625,
            "velocity": 0.4015748031496063
          },
          {
            "duration": 0.03409087500000041,
            "durationTicks": 24,
            "midi": 55,
            "name": "G3",
            "ticks": 5088,
            "time": 7.2272655,
            "velocity": 0.4015748031496063
          },
          {
            "duration": 0.03409087500000041,
            "durationTicks": 24,
            "midi": 59,
            "name": "B3",
            "ticks": 5088,
            "time": 7.2272655,
            "velocity": 0.4015748031496063
          },
          {
            "duration": 0.03409087499999952,
            "durationTicks": 24,
            "midi": 55,
            "name": "G3",
            "ticks": 5112,
            "time": 7.261356375,
            "velocity": 0.4015748031496063
          },
          {
            "duration": 0.03409087499999952,
            "durationTicks": 24,
            "midi": 59,
            "name": "B3",
            "ticks": 5112,
            "time": 7.261356375,
            "velocity": 0.4015748031496063
          },
          {
            "duration": 0.03409087500000041,
            "durationTicks": 24,
            "midi": 59,
            "name": "B3",
            "ticks": 5136,
            "time": 7.29544725,
            "velocity": 0.4015748031496063
          },
          {
            "duration": 0.03409087500000041,
            "durationTicks": 24,
            "midi": 55,
            "name": "G3",
            "ticks": 5136,
            "time": 7.29544725,
            "velocity": 0.4015748031496063
          },
          {
            "duration": 0.03409087499999952,
            "durationTicks": 24,
            "midi": 59,
            "name": "B3",
            "ticks": 5160,
            "time": 7.329538125,
            "velocity": 0.4015748031496063
          },
          {
            "duration": 0.03409087499999952,
            "durationTicks": 24,
            "midi": 55,
            "name": "G3",
            "ticks": 5160,
            "time": 7.329538125,
            "velocity": 0.4015748031496063
          },
          {
            "duration": 0.03409087500000041,
            "durationTicks": 24,
            "midi": 59,
            "name": "B3",
            "ticks": 5184,
            "time": 7.3636289999999995,
            "velocity": 0.4015748031496063
          },
          {
            "duration": 0.03409087500000041,
            "durationTicks": 24,
            "midi": 55,
            "name": "G3",
            "ticks": 5184,
            "time": 7.3636289999999995,
            "velocity": 0.4015748031496063
          },
          {
            "duration": 0.03409087500000041,
            "durationTicks": 24,
            "midi": 59,
            "name": "B3",
            "ticks": 5208,
            "time": 7.397719875,
            "velocity": 0.4015748031496063
          },
          {
            "duration": 0.03409087500000041,
            "durationTicks": 24,
            "midi": 55,
            "name": "G3",
            "ticks": 5208,
            "time": 7.397719875,
            "velocity": 0.4015748031496063
          },
          {
            "duration": 0.03409087499999952,
            "durationTicks": 24,
            "midi": 59,
            "name": "B3",
            "ticks": 5232,
            "time": 7.43181075,
            "velocity": 0.4015748031496063
          },
          {
            "duration": 0.03409087499999952,
            "durationTicks": 24,
            "midi": 55,
            "name": "G3",
            "ticks": 5232,
            "time": 7.43181075,
            "velocity": 0.4015748031496063
          },
          {
            "duration": 0.03409087500000041,
            "durationTicks": 24,
            "midi": 59,
            "name": "B3",
            "ticks": 5256,
            "time": 7.465901625,
            "velocity": 0.4015748031496063
          },
          {
            "duration": 0.03409087500000041,
            "durationTicks": 24,
            "midi": 55,
            "name": "G3",
            "ticks": 5256,
            "time": 7.465901625,
            "velocity": 0.4015748031496063
          },
          {
            "duration": 0.03409087499999952,
            "durationTicks": 24,
            "midi": 55,
            "name": "G3",
            "ticks": 5280,
            "time": 7.4999925,
            "velocity": 0.4015748031496063
          },
          {
            "duration": 0.03409087499999952,
            "durationTicks": 24,
            "midi": 59,
            "name": "B3",
            "ticks": 5280,
            "time": 7.4999925,
            "velocity": 0.4015748031496063
          },
          {
            "duration": 0.03409087500000041,
            "durationTicks": 24,
            "midi": 59,
            "name": "B3",
            "ticks": 5304,
            "time": 7.534083375,
            "velocity": 0.4015748031496063
          },
          {
            "duration": 0.03409087500000041,
            "durationTicks": 24,
            "midi": 55,
            "name": "G3",
            "ticks": 5304,
            "time": 7.534083375,
            "velocity": 0.4015748031496063
          },
          {
            "duration": 0.03409087499999952,
            "durationTicks": 24,
            "midi": 55,
            "name": "G3",
            "ticks": 5328,
            "time": 7.56817425,
            "velocity": 0.4015748031496063
          },
          {
            "duration": 0.03409087499999952,
            "durationTicks": 24,
            "midi": 59,
            "name": "B3",
            "ticks": 5328,
            "time": 7.56817425,
            "velocity": 0.4015748031496063
          },
          {
            "duration": 0.03409087500000041,
            "durationTicks": 24,
            "midi": 55,
            "name": "G3",
            "ticks": 5352,
            "time": 7.602265125,
            "velocity": 0.4015748031496063
          },
          {
            "duration": 0.03409087500000041,
            "durationTicks": 24,
            "midi": 59,
            "name": "B3",
            "ticks": 5352,
            "time": 7.602265125,
            "velocity": 0.4015748031496063
          },
          {
            "duration": 0.03409087500000041,
            "durationTicks": 24,
            "midi": 64,
            "name": "E4",
            "ticks": 6144,
            "time": 8.727264,
            "velocity": 0.4015748031496063
          },
          {
            "duration": 0.03409087500000041,
            "durationTicks": 24,
            "midi": 60,
            "name": "C4",
            "ticks": 6144,
            "time": 8.727264,
            "velocity": 0.4015748031496063
          },
          {
            "duration": 0.03409087500000041,
            "durationTicks": 24,
            "midi": 64,
            "name": "E4",
            "ticks": 6168,
            "time": 8.761354875,
            "velocity": 0.4015748031496063
          },
          {
            "duration": 0.03409087500000041,
            "durationTicks": 24,
            "midi": 60,
            "name": "C4",
            "ticks": 6168,
            "time": 8.761354875,
            "velocity": 0.4015748031496063
          },
          {
            "duration": 0.03409087499999863,
            "durationTicks": 24,
            "midi": 64,
            "name": "E4",
            "ticks": 6192,
            "time": 8.79544575,
            "velocity": 0.4015748031496063
          },
          {
            "duration": 0.03409087499999863,
            "durationTicks": 24,
            "midi": 60,
            "name": "C4",
            "ticks": 6192,
            "time": 8.79544575,
            "velocity": 0.4015748031496063
          },
          {
            "duration": 0.03409087500000041,
            "durationTicks": 24,
            "midi": 60,
            "name": "C4",
            "ticks": 6216,
            "time": 8.829536625,
            "velocity": 0.4015748031496063
          },
          {
            "duration": 0.03409087500000041,
            "durationTicks": 24,
            "midi": 64,
            "name": "E4",
            "ticks": 6216,
            "time": 8.829536625,
            "velocity": 0.4015748031496063
          },
          {
            "duration": 0.03409087500000041,
            "durationTicks": 24,
            "midi": 60,
            "name": "C4",
            "ticks": 6240,
            "time": 8.8636275,
            "velocity": 0.4015748031496063
          },
          {
            "duration": 0.03409087500000041,
            "durationTicks": 24,
            "midi": 64,
            "name": "E4",
            "ticks": 6240,
            "time": 8.8636275,
            "velocity": 0.4015748031496063
          },
          {
            "duration": 0.03409087500000041,
            "durationTicks": 24,
            "midi": 64,
            "name": "E4",
            "ticks": 6264,
            "time": 8.897718375,
            "velocity": 0.4015748031496063
          },
          {
            "duration": 0.03409087500000041,
            "durationTicks": 24,
            "midi": 60,
            "name": "C4",
            "ticks": 6264,
            "time": 8.897718375,
            "velocity": 0.4015748031496063
          },
          {
            "duration": 0.03409087499999863,
            "durationTicks": 24,
            "midi": 60,
            "name": "C4",
            "ticks": 6288,
            "time": 8.93180925,
            "velocity": 0.4015748031496063
          },
          {
            "duration": 0.03409087499999863,
            "durationTicks": 24,
            "midi": 64,
            "name": "E4",
            "ticks": 6288,
            "time": 8.93180925,
            "velocity": 0.4015748031496063
          },
          {
            "duration": 0.03409087500000041,
            "durationTicks": 24,
            "midi": 64,
            "name": "E4",
            "ticks": 6312,
            "time": 8.965900125,
            "velocity": 0.4015748031496063
          },
          {
            "duration": 0.03409087500000041,
            "durationTicks": 24,
            "midi": 60,
            "name": "C4",
            "ticks": 6312,
            "time": 8.965900125,
            "velocity": 0.4015748031496063
          },
          {
            "duration": 0.03409087500000041,
            "durationTicks": 24,
            "midi": 60,
            "name": "C4",
            "ticks": 6336,
            "time": 8.999991,
            "velocity": 0.4015748031496063
          },
          {
            "duration": 0.03409087500000041,
            "durationTicks": 24,
            "midi": 64,
            "name": "E4",
            "ticks": 6336,
            "time": 8.999991,
            "velocity": 0.4015748031496063
          },
          {
            "duration": 0.03409087500000041,
            "durationTicks": 24,
            "midi": 64,
            "name": "E4",
            "ticks": 6360,
            "time": 9.034081875,
            "velocity": 0.4015748031496063
          },
          {
            "duration": 0.03409087500000041,
            "durationTicks": 24,
            "midi": 60,
            "name": "C4",
            "ticks": 6360,
            "time": 9.034081875,
            "velocity": 0.4015748031496063
          },
          {
            "duration": 0.03409087499999863,
            "durationTicks": 24,
            "midi": 64,
            "name": "E4",
            "ticks": 6384,
            "time": 9.06817275,
            "velocity": 0.4015748031496063
          },
          {
            "duration": 0.03409087499999863,
            "durationTicks": 24,
            "midi": 60,
            "name": "C4",
            "ticks": 6384,
            "time": 9.06817275,
            "velocity": 0.4015748031496063
          },
          {
            "duration": 0.03409087500000041,
            "durationTicks": 24,
            "midi": 64,
            "name": "E4",
            "ticks": 6408,
            "time": 9.102263624999999,
            "velocity": 0.4015748031496063
          },
          {
            "duration": 0.03409087500000041,
            "durationTicks": 24,
            "midi": 60,
            "name": "C4",
            "ticks": 6408,
            "time": 9.102263624999999,
            "velocity": 0.4015748031496063
          },
          {
            "duration": 0.03409087500000041,
            "durationTicks": 24,
            "midi": 64,
            "name": "E4",
            "ticks": 6432,
            "time": 9.1363545,
            "velocity": 0.4015748031496063
          },
          {
            "duration": 0.03409087500000041,
            "durationTicks": 24,
            "midi": 60,
            "name": "C4",
            "ticks": 6432,
            "time": 9.1363545,
            "velocity": 0.4015748031496063
          },
          {
            "duration": 0.03409087500000041,
            "durationTicks": 24,
            "midi": 60,
            "name": "C4",
            "ticks": 6456,
            "time": 9.170445375,
            "velocity": 0.4015748031496063
          },
          {
            "duration": 0.03409087500000041,
            "durationTicks": 24,
            "midi": 64,
            "name": "E4",
            "ticks": 6456,
            "time": 9.170445375,
            "velocity": 0.4015748031496063
          },
          {
            "duration": 0.03409087500000041,
            "durationTicks": 24,
            "midi": 60,
            "name": "C4",
            "ticks": 6480,
            "time": 9.20453625,
            "velocity": 0.4015748031496063
          },
          {
            "duration": 0.03409087500000041,
            "durationTicks": 24,
            "midi": 64,
            "name": "E4",
            "ticks": 6480,
            "time": 9.20453625,
            "velocity": 0.4015748031496063
          },
          {
            "duration": 0.03409087499999863,
            "durationTicks": 24,
            "midi": 60,
            "name": "C4",
            "ticks": 6504,
            "time": 9.238627125,
            "velocity": 0.4015748031496063
          },
          {
            "duration": 0.03409087499999863,
            "durationTicks": 24,
            "midi": 64,
            "name": "E4",
            "ticks": 6504,
            "time": 9.238627125,
            "velocity": 0.4015748031496063
          },
          {
            "duration": 0.03409087500000041,
            "durationTicks": 24,
            "midi": 64,
            "name": "E4",
            "ticks": 6528,
            "time": 9.272718,
            "velocity": 0.4015748031496063
          },
          {
            "duration": 0.03409087500000041,
            "durationTicks": 24,
            "midi": 64,
            "name": "E4",
            "ticks": 6552,
            "time": 9.306808875,
            "velocity": 0.4015748031496063
          },
          {
            "duration": 0.03409087500000041,
            "durationTicks": 24,
            "midi": 64,
            "name": "E4",
            "ticks": 6576,
            "time": 9.34089975,
            "velocity": 0.4015748031496063
          },
          {
            "duration": 0.03409087499999863,
            "durationTicks": 24,
            "midi": 64,
            "name": "E4",
            "ticks": 6600,
            "time": 9.374990625,
            "velocity": 0.4015748031496063
          },
          {
            "duration": 0.03409087500000041,
            "durationTicks": 24,
            "midi": 64,
            "name": "E4",
            "ticks": 6624,
            "time": 9.4090815,
            "velocity": 0.4015748031496063
          },
          {
            "duration": 0.03409087500000041,
            "durationTicks": 24,
            "midi": 64,
            "name": "E4",
            "ticks": 6648,
            "time": 9.443172375,
            "velocity": 0.4015748031496063
          },
          {
            "duration": 0.03409087500000041,
            "durationTicks": 24,
            "midi": 64,
            "name": "E4",
            "ticks": 6672,
            "time": 9.47726325,
            "velocity": 0.4015748031496063
          },
          {
            "duration": 0.03409087499999863,
            "durationTicks": 24,
            "midi": 64,
            "name": "E4",
            "ticks": 6696,
            "time": 9.511354125,
            "velocity": 0.4015748031496063
          },
          {
            "duration": 0.03409087500000041,
            "durationTicks": 24,
            "midi": 64,
            "name": "E4",
            "ticks": 6720,
            "time": 9.545444999999999,
            "velocity": 0.4015748031496063
          },
          {
            "duration": 0.03409087500000041,
            "durationTicks": 24,
            "midi": 64,
            "name": "E4",
            "ticks": 6744,
            "time": 9.579535875,
            "velocity": 0.4015748031496063
          },
          {
            "duration": 0.03409087500000041,
            "durationTicks": 24,
            "midi": 64,
            "name": "E4",
            "ticks": 6768,
            "time": 9.61362675,
            "velocity": 0.4015748031496063
          },
          {
            "duration": 0.03409087500000041,
            "durationTicks": 24,
            "midi": 55,
            "name": "G3",
            "ticks": 7680,
            "time": 10.90908,
            "velocity": 0.4015748031496063
          },
          {
            "duration": 0.03409087500000041,
            "durationTicks": 24,
            "midi": 59,
            "name": "B3",
            "ticks": 7680,
            "time": 10.90908,
            "velocity": 0.4015748031496063
          },
          {
            "duration": 0.03409087500000041,
            "durationTicks": 24,
            "midi": 79,
            "name": "G5",
            "ticks": 7680,
            "time": 10.90908,
            "velocity": 0.4015748031496063
          },
          {
            "duration": 0.03409087500000041,
            "durationTicks": 24,
            "midi": 79,
            "name": "G5",
            "ticks": 7680,
            "time": 10.90908,
            "velocity": 0.4015748031496063
          },
          {
            "duration": 0.03409087500000041,
            "durationTicks": 24,
            "midi": 55,
            "name": "G3",
            "ticks": 7704,
            "time": 10.943170875,
            "velocity": 0.4015748031496063
          },
          {
            "duration": 0.03409087500000041,
            "durationTicks": 24,
            "midi": 79,
            "name": "G5",
            "ticks": 7704,
            "time": 10.943170875,
            "velocity": 0.4015748031496063
          },
          {
            "duration": 0.03409087500000041,
            "durationTicks": 24,
            "midi": 79,
            "name": "G5",
            "ticks": 7704,
            "time": 10.943170875,
            "velocity": 0.4015748031496063
          },
          {
            "duration": 0.03409087500000041,
            "durationTicks": 24,
            "midi": 59,
            "name": "B3",
            "ticks": 7704,
            "time": 10.943170875,
            "velocity": 0.4015748031496063
          },
          {
            "duration": 0.03409087500000041,
            "durationTicks": 24,
            "midi": 55,
            "name": "G3",
            "ticks": 7728,
            "time": 10.97726175,
            "velocity": 0.4015748031496063
          },
          {
            "duration": 0.03409087500000041,
            "durationTicks": 24,
            "midi": 59,
            "name": "B3",
            "ticks": 7728,
            "time": 10.97726175,
            "velocity": 0.4015748031496063
          },
          {
            "duration": 0.03409087500000041,
            "durationTicks": 24,
            "midi": 79,
            "name": "G5",
            "ticks": 7728,
            "time": 10.97726175,
            "velocity": 0.4015748031496063
          },
          {
            "duration": 0.03409087500000041,
            "durationTicks": 24,
            "midi": 79,
            "name": "G5",
            "ticks": 7728,
            "time": 10.97726175,
            "velocity": 0.4015748031496063
          },
          {
            "duration": 0.03409087499999863,
            "durationTicks": 24,
            "midi": 79,
            "name": "G5",
            "ticks": 7752,
            "time": 11.011352625,
            "velocity": 0.4015748031496063
          },
          {
            "duration": 0.03409087499999863,
            "durationTicks": 24,
            "midi": 55,
            "name": "G3",
            "ticks": 7752,
            "time": 11.011352625,
            "velocity": 0.4015748031496063
          },
          {
            "duration": 0.03409087499999863,
            "durationTicks": 24,
            "midi": 79,
            "name": "G5",
            "ticks": 7752,
            "time": 11.011352625,
            "velocity": 0.4015748031496063
          },
          {
            "duration": 0.03409087499999863,
            "durationTicks": 24,
            "midi": 59,
            "name": "B3",
            "ticks": 7752,
            "time": 11.011352625,
            "velocity": 0.4015748031496063
          },
          {
            "duration": 0.03409087500000041,
            "durationTicks": 24,
            "midi": 79,
            "name": "G5",
            "ticks": 7776,
            "time": 11.0454435,
            "velocity": 0.4015748031496063
          },
          {
            "duration": 0.03409087500000041,
            "durationTicks": 24,
            "midi": 55,
            "name": "G3",
            "ticks": 7776,
            "time": 11.0454435,
            "velocity": 0.4015748031496063
          },
          {
            "duration": 0.03409087500000041,
            "durationTicks": 24,
            "midi": 79,
            "name": "G5",
            "ticks": 7776,
            "time": 11.0454435,
            "velocity": 0.4015748031496063
          },
          {
            "duration": 0.03409087500000041,
            "durationTicks": 24,
            "midi": 59,
            "name": "B3",
            "ticks": 7776,
            "time": 11.0454435,
            "velocity": 0.4015748031496063
          },
          {
            "duration": 0.03409087500000041,
            "durationTicks": 24,
            "midi": 55,
            "name": "G3",
            "ticks": 7800,
            "time": 11.079534375,
            "velocity": 0.4015748031496063
          },
          {
            "duration": 0.03409087500000041,
            "durationTicks": 24,
            "midi": 59,
            "name": "B3",
            "ticks": 7800,
            "time": 11.079534375,
            "velocity": 0.4015748031496063
          },
          {
            "duration": 0.03409087500000041,
            "durationTicks": 24,
            "midi": 79,
            "name": "G5",
            "ticks": 7800,
            "time": 11.079534375,
            "velocity": 0.4015748031496063
          },
          {
            "duration": 0.03409087500000041,
            "durationTicks": 24,
            "midi": 79,
            "name": "G5",
            "ticks": 7800,
            "time": 11.079534375,
            "velocity": 0.4015748031496063
          },
          {
            "duration": 0.03409087500000041,
            "durationTicks": 24,
            "midi": 79,
            "name": "G5",
            "ticks": 7824,
            "time": 11.11362525,
            "velocity": 0.4015748031496063
          },
          {
            "duration": 0.03409087500000041,
            "durationTicks": 24,
            "midi": 79,
            "name": "G5",
            "ticks": 7824,
            "time": 11.11362525,
            "velocity": 0.4015748031496063
          },
          {
            "duration": 0.03409087500000041,
            "durationTicks": 24,
            "midi": 55,
            "name": "G3",
            "ticks": 7824,
            "time": 11.11362525,
            "velocity": 0.4015748031496063
          },
          {
            "duration": 0.03409087500000041,
            "durationTicks": 24,
            "midi": 59,
            "name": "B3",
            "ticks": 7824,
            "time": 11.11362525,
            "velocity": 0.4015748031496063
          },
          {
            "duration": 0.03409087499999863,
            "durationTicks": 24,
            "midi": 55,
            "name": "G3",
            "ticks": 7848,
            "time": 11.147716125,
            "velocity": 0.4015748031496063
          },
          {
            "duration": 0.03409087499999863,
            "durationTicks": 24,
            "midi": 59,
            "name": "B3",
            "ticks": 7848,
            "time": 11.147716125,
            "velocity": 0.4015748031496063
          },
          {
            "duration": 0.03409087499999863,
            "durationTicks": 24,
            "midi": 79,
            "name": "G5",
            "ticks": 7848,
            "time": 11.147716125,
            "velocity": 0.4015748031496063
          },
          {
            "duration": 0.03409087499999863,
            "durationTicks": 24,
            "midi": 79,
            "name": "G5",
            "ticks": 7848,
            "time": 11.147716125,
            "velocity": 0.4015748031496063
          },
          {
            "duration": 0.03409087500000041,
            "durationTicks": 24,
            "midi": 59,
            "name": "B3",
            "ticks": 7872,
            "time": 11.181807,
            "velocity": 0.4015748031496063
          },
          {
            "duration": 0.03409087500000041,
            "durationTicks": 24,
            "midi": 55,
            "name": "G3",
            "ticks": 7872,
            "time": 11.181807,
            "velocity": 0.4015748031496063
          },
          {
            "duration": 0.03409087500000041,
            "durationTicks": 24,
            "midi": 59,
            "name": "B3",
            "ticks": 7896,
            "time": 11.215897875,
            "velocity": 0.4015748031496063
          },
          {
            "duration": 0.03409087500000041,
            "durationTicks": 24,
            "midi": 55,
            "name": "G3",
            "ticks": 7896,
            "time": 11.215897875,
            "velocity": 0.4015748031496063
          },
          {
            "duration": 0.03409087500000041,
            "durationTicks": 24,
            "midi": 59,
            "name": "B3",
            "ticks": 7920,
            "time": 11.24998875,
            "velocity": 0.4015748031496063
          },
          {
            "duration": 0.03409087500000041,
            "durationTicks": 24,
            "midi": 55,
            "name": "G3",
            "ticks": 7920,
            "time": 11.24998875,
            "velocity": 0.4015748031496063
          },
          {
            "duration": 0.03409087499999863,
            "durationTicks": 24,
            "midi": 55,
            "name": "G3",
            "ticks": 7944,
            "time": 11.284079625,
            "velocity": 0.4015748031496063
          },
          {
            "duration": 0.03409087499999863,
            "durationTicks": 24,
            "midi": 59,
            "name": "B3",
            "ticks": 7944,
            "time": 11.284079625,
            "velocity": 0.4015748031496063
          },
          {
            "duration": 0.03409087500000041,
            "durationTicks": 24,
            "midi": 55,
            "name": "G3",
            "ticks": 7968,
            "time": 11.318170499999999,
            "velocity": 0.4015748031496063
          },
          {
            "duration": 0.03409087500000041,
            "durationTicks": 24,
            "midi": 59,
            "name": "B3",
            "ticks": 7968,
            "time": 11.318170499999999,
            "velocity": 0.4015748031496063
          },
          {
            "duration": 0.03409087500000041,
            "durationTicks": 24,
            "midi": 59,
            "name": "B3",
            "ticks": 7992,
            "time": 11.352261375,
            "velocity": 0.4015748031496063
          },
          {
            "duration": 0.03409087500000041,
            "durationTicks": 24,
            "midi": 55,
            "name": "G3",
            "ticks": 7992,
            "time": 11.352261375,
            "velocity": 0.4015748031496063
          },
          {
            "duration": 0.03409087500000041,
            "durationTicks": 24,
            "midi": 55,
            "name": "G3",
            "ticks": 8016,
            "time": 11.38635225,
            "velocity": 0.4015748031496063
          },
          {
            "duration": 0.03409087500000041,
            "durationTicks": 24,
            "midi": 59,
            "name": "B3",
            "ticks": 8016,
            "time": 11.38635225,
            "velocity": 0.4015748031496063
          },
          {
            "duration": 0.03409087500000041,
            "durationTicks": 24,
            "midi": 55,
            "name": "G3",
            "ticks": 8040,
            "time": 11.420443125,
            "velocity": 0.4015748031496063
          },
          {
            "duration": 0.03409087500000041,
            "durationTicks": 24,
            "midi": 59,
            "name": "B3",
            "ticks": 8040,
            "time": 11.420443125,
            "velocity": 0.4015748031496063
          },
          {
            "duration": 0.03409087499999863,
            "durationTicks": 24,
            "midi": 55,
            "name": "G3",
            "ticks": 8064,
            "time": 11.454534,
            "velocity": 0.4015748031496063
          },
          {
            "duration": 0.03409087499999863,
            "durationTicks": 24,
            "midi": 59,
            "name": "B3",
            "ticks": 8064,
            "time": 11.454534,
            "velocity": 0.4015748031496063
          },
          {
            "duration": 0.03409087500000041,
            "durationTicks": 24,
            "midi": 55,
            "name": "G3",
            "ticks": 8088,
            "time": 11.488624875,
            "velocity": 0.4015748031496063
          },
          {
            "duration": 0.03409087500000041,
            "durationTicks": 24,
            "midi": 59,
            "name": "B3",
            "ticks": 8088,
            "time": 11.488624875,
            "velocity": 0.4015748031496063
          },
          {
            "duration": 0.03409087500000041,
            "durationTicks": 24,
            "midi": 55,
            "name": "G3",
            "ticks": 8112,
            "time": 11.52271575,
            "velocity": 0.4015748031496063
          },
          {
            "duration": 0.03409087500000041,
            "durationTicks": 24,
            "midi": 59,
            "name": "B3",
            "ticks": 8112,
            "time": 11.52271575,
            "velocity": 0.4015748031496063
          },
          {
            "duration": 0.03409087500000041,
            "durationTicks": 24,
            "midi": 59,
            "name": "B3",
            "ticks": 8136,
            "time": 11.556806625,
            "velocity": 0.4015748031496063
          },
          {
            "duration": 0.03409087500000041,
            "durationTicks": 24,
            "midi": 55,
            "name": "G3",
            "ticks": 8136,
            "time": 11.556806625,
            "velocity": 0.4015748031496063
          },
          {
            "duration": 0.03409087499999863,
            "durationTicks": 24,
            "midi": 59,
            "name": "B3",
            "ticks": 8160,
            "time": 11.5908975,
            "velocity": 0.4015748031496063
          },
          {
            "duration": 0.03409087499999863,
            "durationTicks": 24,
            "midi": 55,
            "name": "G3",
            "ticks": 8160,
            "time": 11.5908975,
            "velocity": 0.4015748031496063
          },
          {
            "duration": 0.03409087500000041,
            "durationTicks": 24,
            "midi": 59,
            "name": "B3",
            "ticks": 8184,
            "time": 11.624988375,
            "velocity": 0.4015748031496063
          },
          {
            "duration": 0.03409087500000041,
            "durationTicks": 24,
            "midi": 55,
            "name": "G3",
            "ticks": 8184,
            "time": 11.624988375,
            "velocity": 0.4015748031496063
          },
          {
            "duration": 0.03409087500000041,
            "durationTicks": 24,
            "midi": 59,
            "name": "B3",
            "ticks": 8208,
            "time": 11.65907925,
            "velocity": 0.4015748031496063
          },
          {
            "duration": 0.03409087500000041,
            "durationTicks": 24,
            "midi": 55,
            "name": "G3",
            "ticks": 8208,
            "time": 11.65907925,
            "velocity": 0.4015748031496063
          },
          {
            "duration": 0.03409087500000041,
            "durationTicks": 24,
            "midi": 55,
            "name": "G3",
            "ticks": 8232,
            "time": 11.693170125,
            "velocity": 0.4015748031496063
          },
          {
            "duration": 0.03409087500000041,
            "durationTicks": 24,
            "midi": 59,
            "name": "B3",
            "ticks": 8232,
            "time": 11.693170125,
            "velocity": 0.4015748031496063
          },
          {
            "duration": 0.03409087499999863,
            "durationTicks": 24,
            "midi": 59,
            "name": "B3",
            "ticks": 8256,
            "time": 11.727261,
            "velocity": 0.4015748031496063
          },
          {
            "duration": 0.03409087499999863,
            "durationTicks": 24,
            "midi": 76,
            "name": "E5",
            "ticks": 8256,
            "time": 11.727261,
            "velocity": 0.4015748031496063
          },
          {
            "duration": 0.03409087499999863,
            "durationTicks": 24,
            "midi": 76,
            "name": "E5",
            "ticks": 8256,
            "time": 11.727261,
            "velocity": 0.4015748031496063
          },
          {
            "duration": 0.03409087499999863,
            "durationTicks": 24,
            "midi": 55,
            "name": "G3",
            "ticks": 8256,
            "time": 11.727261,
            "velocity": 0.4015748031496063
          },
          {
            "duration": 0.03409087500000041,
            "durationTicks": 24,
            "midi": 76,
            "name": "E5",
            "ticks": 8280,
            "time": 11.761351874999999,
            "velocity": 0.4015748031496063
          },
          {
            "duration": 0.03409087500000041,
            "durationTicks": 24,
            "midi": 76,
            "name": "E5",
            "ticks": 8280,
            "time": 11.761351874999999,
            "velocity": 0.4015748031496063
          },
          {
            "duration": 0.03409087500000041,
            "durationTicks": 24,
            "midi": 55,
            "name": "G3",
            "ticks": 8280,
            "time": 11.761351874999999,
            "velocity": 0.4015748031496063
          },
          {
            "duration": 0.03409087500000041,
            "durationTicks": 24,
            "midi": 59,
            "name": "B3",
            "ticks": 8280,
            "time": 11.761351874999999,
            "velocity": 0.4015748031496063
          },
          {
            "duration": 0.03409087500000041,
            "durationTicks": 24,
            "midi": 59,
            "name": "B3",
            "ticks": 8304,
            "time": 11.79544275,
            "velocity": 0.4015748031496063
          },
          {
            "duration": 0.03409087500000041,
            "durationTicks": 24,
            "midi": 76,
            "name": "E5",
            "ticks": 8304,
            "time": 11.79544275,
            "velocity": 0.4015748031496063
          },
          {
            "duration": 0.03409087500000041,
            "durationTicks": 24,
            "midi": 76,
            "name": "E5",
            "ticks": 8304,
            "time": 11.79544275,
            "velocity": 0.4015748031496063
          },
          {
            "duration": 0.03409087500000041,
            "durationTicks": 24,
            "midi": 55,
            "name": "G3",
            "ticks": 8304,
            "time": 11.79544275,
            "velocity": 0.4015748031496063
          },
          {
            "duration": 0.03409087500000041,
            "durationTicks": 24,
            "midi": 76,
            "name": "E5",
            "ticks": 8328,
            "time": 11.829533625,
            "velocity": 0.4015748031496063
          },
          {
            "duration": 0.03409087500000041,
            "durationTicks": 24,
            "midi": 76,
            "name": "E5",
            "ticks": 8328,
            "time": 11.829533625,
            "velocity": 0.4015748031496063
          },
          {
            "duration": 0.03409087500000041,
            "durationTicks": 24,
            "midi": 55,
            "name": "G3",
            "ticks": 8328,
            "time": 11.829533625,
            "velocity": 0.4015748031496063
          },
          {
            "duration": 0.03409087500000041,
            "durationTicks": 24,
            "midi": 59,
            "name": "B3",
            "ticks": 8328,
            "time": 11.829533625,
            "velocity": 0.4015748031496063
          },
          {
            "duration": 0.03409087500000041,
            "durationTicks": 24,
            "midi": 55,
            "name": "G3",
            "ticks": 8352,
            "time": 11.8636245,
            "velocity": 0.4015748031496063
          },
          {
            "duration": 0.03409087500000041,
            "durationTicks": 24,
            "midi": 59,
            "name": "B3",
            "ticks": 8352,
            "time": 11.8636245,
            "velocity": 0.4015748031496063
          },
          {
            "duration": 0.03409087500000041,
            "durationTicks": 24,
            "midi": 76,
            "name": "E5",
            "ticks": 8352,
            "time": 11.8636245,
            "velocity": 0.4015748031496063
          },
          {
            "duration": 0.03409087500000041,
            "durationTicks": 24,
            "midi": 76,
            "name": "E5",
            "ticks": 8352,
            "time": 11.8636245,
            "velocity": 0.4015748031496063
          },
          {
            "duration": 0.03409087499999863,
            "durationTicks": 24,
            "midi": 55,
            "name": "G3",
            "ticks": 8376,
            "time": 11.897715375,
            "velocity": 0.4015748031496063
          },
          {
            "duration": 0.03409087499999863,
            "durationTicks": 24,
            "midi": 76,
            "name": "E5",
            "ticks": 8376,
            "time": 11.897715375,
            "velocity": 0.4015748031496063
          },
          {
            "duration": 0.03409087499999863,
            "durationTicks": 24,
            "midi": 76,
            "name": "E5",
            "ticks": 8376,
            "time": 11.897715375,
            "velocity": 0.4015748031496063
          },
          {
            "duration": 0.03409087499999863,
            "durationTicks": 24,
            "midi": 59,
            "name": "B3",
            "ticks": 8376,
            "time": 11.897715375,
            "velocity": 0.4015748031496063
          },
          {
            "duration": 0.03409087500000041,
            "durationTicks": 24,
            "midi": 55,
            "name": "G3",
            "ticks": 8400,
            "time": 11.93180625,
            "velocity": 0.4015748031496063
          },
          {
            "duration": 0.03409087500000041,
            "durationTicks": 24,
            "midi": 59,
            "name": "B3",
            "ticks": 8400,
            "time": 11.93180625,
            "velocity": 0.4015748031496063
          },
          {
            "duration": 0.03409087500000041,
            "durationTicks": 24,
            "midi": 76,
            "name": "E5",
            "ticks": 8400,
            "time": 11.93180625,
            "velocity": 0.4015748031496063
          },
          {
            "duration": 0.03409087500000041,
            "durationTicks": 24,
            "midi": 76,
            "name": "E5",
            "ticks": 8400,
            "time": 11.93180625,
            "velocity": 0.4015748031496063
          },
          {
            "duration": 0.03409087500000041,
            "durationTicks": 24,
            "midi": 59,
            "name": "B3",
            "ticks": 8424,
            "time": 11.965897125,
            "velocity": 0.4015748031496063
          },
          {
            "duration": 0.03409087500000041,
            "durationTicks": 24,
            "midi": 76,
            "name": "E5",
            "ticks": 8424,
            "time": 11.965897125,
            "velocity": 0.4015748031496063
          },
          {
            "duration": 0.03409087500000041,
            "durationTicks": 24,
            "midi": 55,
            "name": "G3",
            "ticks": 8424,
            "time": 11.965897125,
            "velocity": 0.4015748031496063
          },
          {
            "duration": 0.03409087500000041,
            "durationTicks": 24,
            "midi": 76,
            "name": "E5",
            "ticks": 8424,
            "time": 11.965897125,
            "velocity": 0.4015748031496063
          },
          {
            "duration": 0.03409087500000041,
            "durationTicks": 24,
            "midi": 79,
            "name": "G5",
            "ticks": 8808,
            "time": 12.511351125,
            "velocity": 0.4015748031496063
          },
          {
            "duration": 0.03409087500000041,
            "durationTicks": 24,
            "midi": 79,
            "name": "G5",
            "ticks": 8808,
            "time": 12.511351125,
            "velocity": 0.4015748031496063
          },
          {
            "duration": 0.03409087500000041,
            "durationTicks": 24,
            "midi": 79,
            "name": "G5",
            "ticks": 8832,
            "time": 12.545442,
            "velocity": 0.4015748031496063
          },
          {
            "duration": 0.03409087500000041,
            "durationTicks": 24,
            "midi": 79,
            "name": "G5",
            "ticks": 8832,
            "time": 12.545442,
            "velocity": 0.4015748031496063
          },
          {
            "duration": 0.03409087500000041,
            "durationTicks": 24,
            "midi": 79,
            "name": "G5",
            "ticks": 8856,
            "time": 12.579532875,
            "velocity": 0.4015748031496063
          },
          {
            "duration": 0.03409087500000041,
            "durationTicks": 24,
            "midi": 79,
            "name": "G5",
            "ticks": 8856,
            "time": 12.579532875,
            "velocity": 0.4015748031496063
          },
          {
            "duration": 0.03409087499999863,
            "durationTicks": 24,
            "midi": 79,
            "name": "G5",
            "ticks": 8880,
            "time": 12.61362375,
            "velocity": 0.4015748031496063
          },
          {
            "duration": 0.03409087499999863,
            "durationTicks": 24,
            "midi": 79,
            "name": "G5",
            "ticks": 8880,
            "time": 12.61362375,
            "velocity": 0.4015748031496063
          },
          {
            "duration": 0.03409087500000041,
            "durationTicks": 24,
            "midi": 79,
            "name": "G5",
            "ticks": 8904,
            "time": 12.647714624999999,
            "velocity": 0.4015748031496063
          },
          {
            "duration": 0.03409087500000041,
            "durationTicks": 24,
            "midi": 79,
            "name": "G5",
            "ticks": 8904,
            "time": 12.647714624999999,
            "velocity": 0.4015748031496063
          },
          {
            "duration": 0.03409087500000041,
            "durationTicks": 24,
            "midi": 79,
            "name": "G5",
            "ticks": 8928,
            "time": 12.6818055,
            "velocity": 0.4015748031496063
          },
          {
            "duration": 0.03409087500000041,
            "durationTicks": 24,
            "midi": 79,
            "name": "G5",
            "ticks": 8928,
            "time": 12.6818055,
            "velocity": 0.4015748031496063
          },
          {
            "duration": 0.03409087500000041,
            "durationTicks": 24,
            "midi": 79,
            "name": "G5",
            "ticks": 8952,
            "time": 12.715896375,
            "velocity": 0.4015748031496063
          },
          {
            "duration": 0.03409087500000041,
            "durationTicks": 24,
            "midi": 79,
            "name": "G5",
            "ticks": 8952,
            "time": 12.715896375,
            "velocity": 0.4015748031496063
          },
          {
            "duration": 0.03409087500000041,
            "durationTicks": 24,
            "midi": 79,
            "name": "G5",
            "ticks": 8976,
            "time": 12.74998725,
            "velocity": 0.4015748031496063
          },
          {
            "duration": 0.03409087500000041,
            "durationTicks": 24,
            "midi": 79,
            "name": "G5",
            "ticks": 8976,
            "time": 12.74998725,
            "velocity": 0.4015748031496063
          },
          {
            "duration": 0.03409087500000041,
            "durationTicks": 24,
            "midi": 59,
            "name": "B3",
            "ticks": 9984,
            "time": 14.181804,
            "velocity": 0.4015748031496063
          },
          {
            "duration": 0.03409087500000041,
            "durationTicks": 24,
            "midi": 64,
            "name": "E4",
            "ticks": 9984,
            "time": 14.181804,
            "velocity": 0.4015748031496063
          },
          {
            "duration": 0.03409087500000041,
            "durationTicks": 24,
            "midi": 64,
            "name": "E4",
            "ticks": 10008,
            "time": 14.215894875,
            "velocity": 0.4015748031496063
          },
          {
            "duration": 0.03409087500000041,
            "durationTicks": 24,
            "midi": 59,
            "name": "B3",
            "ticks": 10008,
            "time": 14.215894875,
            "velocity": 0.4015748031496063
          },
          {
            "duration": 0.03409087499999863,
            "durationTicks": 24,
            "midi": 59,
            "name": "B3",
            "ticks": 10032,
            "time": 14.24998575,
            "velocity": 0.4015748031496063
          },
          {
            "duration": 0.03409087499999863,
            "durationTicks": 24,
            "midi": 64,
            "name": "E4",
            "ticks": 10032,
            "time": 14.24998575,
            "velocity": 0.4015748031496063
          },
          {
            "duration": 0.03409087500000041,
            "durationTicks": 24,
            "midi": 64,
            "name": "E4",
            "ticks": 10056,
            "time": 14.284076624999999,
            "velocity": 0.4015748031496063
          },
          {
            "duration": 0.03409087500000041,
            "durationTicks": 24,
            "midi": 59,
            "name": "B3",
            "ticks": 10056,
            "time": 14.284076624999999,
            "velocity": 0.4015748031496063
          },
          {
            "duration": 0.03409087500000041,
            "durationTicks": 24,
            "midi": 64,
            "name": "E4",
            "ticks": 10080,
            "time": 14.3181675,
            "velocity": 0.4015748031496063
          },
          {
            "duration": 0.03409087500000041,
            "durationTicks": 24,
            "midi": 59,
            "name": "B3",
            "ticks": 10080,
            "time": 14.3181675,
            "velocity": 0.4015748031496063
          },
          {
            "duration": 0.03409087500000041,
            "durationTicks": 24,
            "midi": 64,
            "name": "E4",
            "ticks": 10104,
            "time": 14.352258375,
            "velocity": 0.4015748031496063
          },
          {
            "duration": 0.03409087500000041,
            "durationTicks": 24,
            "midi": 59,
            "name": "B3",
            "ticks": 10104,
            "time": 14.352258375,
            "velocity": 0.4015748031496063
          },
          {
            "duration": 0.03409087500000041,
            "durationTicks": 24,
            "midi": 64,
            "name": "E4",
            "ticks": 10128,
            "time": 14.38634925,
            "velocity": 0.4015748031496063
          },
          {
            "duration": 0.03409087500000041,
            "durationTicks": 24,
            "midi": 59,
            "name": "B3",
            "ticks": 10128,
            "time": 14.38634925,
            "velocity": 0.4015748031496063
          },
          {
            "duration": 0.03409087499999863,
            "durationTicks": 24,
            "midi": 59,
            "name": "B3",
            "ticks": 10152,
            "time": 14.420440125,
            "velocity": 0.4015748031496063
          },
          {
            "duration": 0.03409087499999863,
            "durationTicks": 24,
            "midi": 64,
            "name": "E4",
            "ticks": 10152,
            "time": 14.420440125,
            "velocity": 0.4015748031496063
          },
          {
            "duration": 0.03409087500000041,
            "durationTicks": 24,
            "midi": 59,
            "name": "B3",
            "ticks": 10176,
            "time": 14.454531,
            "velocity": 0.4015748031496063
          },
          {
            "duration": 0.03409087500000041,
            "durationTicks": 24,
            "midi": 64,
            "name": "E4",
            "ticks": 10176,
            "time": 14.454531,
            "velocity": 0.4015748031496063
          },
          {
            "duration": 0.03409087500000041,
            "durationTicks": 24,
            "midi": 64,
            "name": "E4",
            "ticks": 10200,
            "time": 14.488621875,
            "velocity": 0.4015748031496063
          },
          {
            "duration": 0.03409087500000041,
            "durationTicks": 24,
            "midi": 59,
            "name": "B3",
            "ticks": 10200,
            "time": 14.488621875,
            "velocity": 0.4015748031496063
          },
          {
            "duration": 0.03409087500000041,
            "durationTicks": 24,
            "midi": 64,
            "name": "E4",
            "ticks": 10224,
            "time": 14.52271275,
            "velocity": 0.4015748031496063
          },
          {
            "duration": 0.03409087500000041,
            "durationTicks": 24,
            "midi": 59,
            "name": "B3",
            "ticks": 10224,
            "time": 14.52271275,
            "velocity": 0.4015748031496063
          },
          {
            "duration": 0.03409087499999863,
            "durationTicks": 24,
            "midi": 64,
            "name": "E4",
            "ticks": 10248,
            "time": 14.556803625,
            "velocity": 0.4015748031496063
          },
          {
            "duration": 0.03409087499999863,
            "durationTicks": 24,
            "midi": 59,
            "name": "B3",
            "ticks": 10248,
            "time": 14.556803625,
            "velocity": 0.4015748031496063
          },
          {
            "duration": 0.03409087500000041,
            "durationTicks": 24,
            "midi": 59,
            "name": "B3",
            "ticks": 10272,
            "time": 14.5908945,
            "velocity": 0.4015748031496063
          },
          {
            "duration": 0.03409087500000041,
            "durationTicks": 24,
            "midi": 64,
            "name": "E4",
            "ticks": 10272,
            "time": 14.5908945,
            "velocity": 0.4015748031496063
          },
          {
            "duration": 0.03409087500000041,
            "durationTicks": 24,
            "midi": 59,
            "name": "B3",
            "ticks": 10296,
            "time": 14.624985375,
            "velocity": 0.4015748031496063
          },
          {
            "duration": 0.03409087500000041,
            "durationTicks": 24,
            "midi": 64,
            "name": "E4",
            "ticks": 10296,
            "time": 14.624985375,
            "velocity": 0.4015748031496063
          },
          {
            "duration": 0.03409087500000041,
            "durationTicks": 24,
            "midi": 59,
            "name": "B3",
            "ticks": 10320,
            "time": 14.65907625,
            "velocity": 0.4015748031496063
          },
          {
            "duration": 0.03409087500000041,
            "durationTicks": 24,
            "midi": 64,
            "name": "E4",
            "ticks": 10320,
            "time": 14.65907625,
            "velocity": 0.4015748031496063
          },
          {
            "duration": 0.03409087499999863,
            "durationTicks": 24,
            "midi": 59,
            "name": "B3",
            "ticks": 10344,
            "time": 14.693167125,
            "velocity": 0.4015748031496063
          },
          {
            "duration": 0.03409087499999863,
            "durationTicks": 24,
            "midi": 64,
            "name": "E4",
            "ticks": 10344,
            "time": 14.693167125,
            "velocity": 0.4015748031496063
          },
          {
            "duration": 0.03409087500000041,
            "durationTicks": 24,
            "midi": 64,
            "name": "E4",
            "ticks": 10368,
            "time": 14.727257999999999,
            "velocity": 0.4015748031496063
          },
          {
            "duration": 0.03409087500000041,
            "durationTicks": 24,
            "midi": 64,
            "name": "E4",
            "ticks": 10392,
            "time": 14.761348875,
            "velocity": 0.4015748031496063
          },
          {
            "duration": 0.03409087500000041,
            "durationTicks": 24,
            "midi": 64,
            "name": "E4",
            "ticks": 10416,
            "time": 14.79543975,
            "velocity": 0.4015748031496063
          },
          {
            "duration": 0.03409087500000041,
            "durationTicks": 24,
            "midi": 64,
            "name": "E4",
            "ticks": 10440,
            "time": 14.829530625,
            "velocity": 0.4015748031496063
          },
          {
            "duration": 0.03409087499999863,
            "durationTicks": 24,
            "midi": 64,
            "name": "E4",
            "ticks": 10464,
            "time": 14.8636215,
            "velocity": 0.4015748031496063
          },
          {
            "duration": 0.03409087500000041,
            "durationTicks": 24,
            "midi": 64,
            "name": "E4",
            "ticks": 10488,
            "time": 14.897712375,
            "velocity": 0.4015748031496063
          },
          {
            "duration": 0.03409087500000041,
            "durationTicks": 24,
            "midi": 64,
            "name": "E4",
            "ticks": 10512,
            "time": 14.93180325,
            "velocity": 0.4015748031496063
          },
          {
            "duration": 0.03409087500000041,
            "durationTicks": 24,
            "midi": 64,
            "name": "E4",
            "ticks": 10536,
            "time": 14.965894125,
            "velocity": 0.4015748031496063
          },
          {
            "duration": 0.03409087499999863,
            "durationTicks": 24,
            "midi": 64,
            "name": "E4",
            "ticks": 10560,
            "time": 14.999985,
            "velocity": 0.4015748031496063
          },
          {
            "duration": 0.03409087500000041,
            "durationTicks": 24,
            "midi": 64,
            "name": "E4",
            "ticks": 10584,
            "time": 15.034075875,
            "velocity": 0.4015748031496063
          },
          {
            "duration": 0.03409087500000041,
            "durationTicks": 24,
            "midi": 64,
            "name": "E4",
            "ticks": 10608,
            "time": 15.06816675,
            "velocity": 0.4015748031496063
          },
          {
            "duration": 0.03409087500000041,
            "durationTicks": 24,
            "midi": 59,
            "name": "B3",
            "ticks": 10752,
            "time": 15.272712,
            "velocity": 0.4015748031496063
          },
          {
            "duration": 0.03409087500000041,
            "durationTicks": 24,
            "midi": 55,
            "name": "G3",
            "ticks": 10752,
            "time": 15.272712,
            "velocity": 0.4015748031496063
          },
          {
            "duration": 0.03409087499999863,
            "durationTicks": 24,
            "midi": 59,
            "name": "B3",
            "ticks": 10776,
            "time": 15.306802875,
            "velocity": 0.4015748031496063
          },
          {
            "duration": 0.03409087499999863,
            "durationTicks": 24,
            "midi": 55,
            "name": "G3",
            "ticks": 10776,
            "time": 15.306802875,
            "velocity": 0.4015748031496063
          },
          {
            "duration": 0.03409087500000041,
            "durationTicks": 24,
            "midi": 55,
            "name": "G3",
            "ticks": 10800,
            "time": 15.34089375,
            "velocity": 0.4015748031496063
          },
          {
            "duration": 0.03409087500000041,
            "durationTicks": 24,
            "midi": 59,
            "name": "B3",
            "ticks": 10800,
            "time": 15.34089375,
            "velocity": 0.4015748031496063
          },
          {
            "duration": 0.03409087500000041,
            "durationTicks": 24,
            "midi": 55,
            "name": "G3",
            "ticks": 10824,
            "time": 15.374984625,
            "velocity": 0.4015748031496063
          },
          {
            "duration": 0.03409087500000041,
            "durationTicks": 24,
            "midi": 59,
            "name": "B3",
            "ticks": 10824,
            "time": 15.374984625,
            "velocity": 0.4015748031496063
          },
          {
            "duration": 0.03409087500000041,
            "durationTicks": 24,
            "midi": 55,
            "name": "G3",
            "ticks": 10848,
            "time": 15.4090755,
            "velocity": 0.4015748031496063
          },
          {
            "duration": 0.03409087500000041,
            "durationTicks": 24,
            "midi": 59,
            "name": "B3",
            "ticks": 10848,
            "time": 15.4090755,
            "velocity": 0.4015748031496063
          },
          {
            "duration": 0.03409087499999863,
            "durationTicks": 24,
            "midi": 55,
            "name": "G3",
            "ticks": 10872,
            "time": 15.443166375,
            "velocity": 0.4015748031496063
          },
          {
            "duration": 0.03409087499999863,
            "durationTicks": 24,
            "midi": 59,
            "name": "B3",
            "ticks": 10872,
            "time": 15.443166375,
            "velocity": 0.4015748031496063
          },
          {
            "duration": 0.03409087500000041,
            "durationTicks": 24,
            "midi": 59,
            "name": "B3",
            "ticks": 10896,
            "time": 15.47725725,
            "velocity": 0.4015748031496063
          },
          {
            "duration": 0.03409087500000041,
            "durationTicks": 24,
            "midi": 55,
            "name": "G3",
            "ticks": 10896,
            "time": 15.47725725,
            "velocity": 0.4015748031496063
          },
          {
            "duration": 0.03409087500000041,
            "durationTicks": 24,
            "midi": 55,
            "name": "G3",
            "ticks": 10920,
            "time": 15.511348125,
            "velocity": 0.4015748031496063
          },
          {
            "duration": 0.03409087500000041,
            "durationTicks": 24,
            "midi": 59,
            "name": "B3",
            "ticks": 10920,
            "time": 15.511348125,
            "velocity": 0.4015748031496063
          },
          {
            "duration": 0.03409087500000041,
            "durationTicks": 24,
            "midi": 59,
            "name": "B3",
            "ticks": 10944,
            "time": 15.545439,
            "velocity": 0.4015748031496063
          },
          {
            "duration": 0.13636349999999986,
            "durationTicks": 96,
            "midi": 66,
            "name": "F#4",
            "ticks": 10944,
            "time": 15.545439,
            "velocity": 0.4015748031496063
          },
          {
            "duration": 0.03409087500000041,
            "durationTicks": 24,
            "midi": 55,
            "name": "G3",
            "ticks": 10944,
            "time": 15.545439,
            "velocity": 0.4015748031496063
          },
          {
            "duration": 0.03409087499999863,
            "durationTicks": 24,
            "midi": 59,
            "name": "B3",
            "ticks": 10968,
            "time": 15.579529875,
            "velocity": 0.4015748031496063
          },
          {
            "duration": 0.03409087499999863,
            "durationTicks": 24,
            "midi": 55,
            "name": "G3",
            "ticks": 10968,
            "time": 15.579529875,
            "velocity": 0.4015748031496063
          },
          {
            "duration": 0.03409087500000041,
            "durationTicks": 24,
            "midi": 55,
            "name": "G3",
            "ticks": 10992,
            "time": 15.613620749999999,
            "velocity": 0.4015748031496063
          },
          {
            "duration": 0.03409087500000041,
            "durationTicks": 24,
            "midi": 59,
            "name": "B3",
            "ticks": 10992,
            "time": 15.613620749999999,
            "velocity": 0.4015748031496063
          },
          {
            "duration": 0.03409087500000041,
            "durationTicks": 24,
            "midi": 55,
            "name": "G3",
            "ticks": 11016,
            "time": 15.647711625,
            "velocity": 0.4015748031496063
          },
          {
            "duration": 0.03409087500000041,
            "durationTicks": 24,
            "midi": 59,
            "name": "B3",
            "ticks": 11016,
            "time": 15.647711625,
            "velocity": 0.4015748031496063
          },
          {
            "duration": 0.03409087500000041,
            "durationTicks": 24,
            "midi": 55,
            "name": "G3",
            "ticks": 11040,
            "time": 15.6818025,
            "velocity": 0.4015748031496063
          },
          {
            "duration": 0.03409087500000041,
            "durationTicks": 24,
            "midi": 59,
            "name": "B3",
            "ticks": 11040,
            "time": 15.6818025,
            "velocity": 0.4015748031496063
          },
          {
            "duration": 0.03409087500000041,
            "durationTicks": 24,
            "midi": 59,
            "name": "B3",
            "ticks": 11064,
            "time": 15.715893375,
            "velocity": 0.4015748031496063
          },
          {
            "duration": 0.03409087500000041,
            "durationTicks": 24,
            "midi": 55,
            "name": "G3",
            "ticks": 11064,
            "time": 15.715893375,
            "velocity": 0.4015748031496063
          },
          {
            "duration": 0.03409087499999863,
            "durationTicks": 24,
            "midi": 55,
            "name": "G3",
            "ticks": 11088,
            "time": 15.74998425,
            "velocity": 0.4015748031496063
          },
          {
            "duration": 0.03409087499999863,
            "durationTicks": 24,
            "midi": 59,
            "name": "B3",
            "ticks": 11088,
            "time": 15.74998425,
            "velocity": 0.4015748031496063
          },
          {
            "duration": 0.03409087500000041,
            "durationTicks": 24,
            "midi": 55,
            "name": "G3",
            "ticks": 11112,
            "time": 15.784075125,
            "velocity": 0.4015748031496063
          },
          {
            "duration": 0.03409087500000041,
            "durationTicks": 24,
            "midi": 59,
            "name": "B3",
            "ticks": 11112,
            "time": 15.784075125,
            "velocity": 0.4015748031496063
          },
          {
            "duration": 0.03409087500000041,
            "durationTicks": 24,
            "midi": 59,
            "name": "B3",
            "ticks": 11136,
            "time": 15.818166,
            "velocity": 0.4015748031496063
          },
          {
            "duration": 0.03409087500000041,
            "durationTicks": 24,
            "midi": 55,
            "name": "G3",
            "ticks": 11136,
            "time": 15.818166,
            "velocity": 0.4015748031496063
          },
          {
            "duration": 0.03409087500000041,
            "durationTicks": 24,
            "midi": 55,
            "name": "G3",
            "ticks": 11160,
            "time": 15.852256875,
            "velocity": 0.4015748031496063
          },
          {
            "duration": 0.03409087500000041,
            "durationTicks": 24,
            "midi": 59,
            "name": "B3",
            "ticks": 11160,
            "time": 15.852256875,
            "velocity": 0.4015748031496063
          },
          {
            "duration": 0.03409087499999863,
            "durationTicks": 24,
            "midi": 55,
            "name": "G3",
            "ticks": 11184,
            "time": 15.88634775,
            "velocity": 0.4015748031496063
          },
          {
            "duration": 0.03409087499999863,
            "durationTicks": 24,
            "midi": 59,
            "name": "B3",
            "ticks": 11184,
            "time": 15.88634775,
            "velocity": 0.4015748031496063
          },
          {
            "duration": 0.03409087500000041,
            "durationTicks": 24,
            "midi": 59,
            "name": "B3",
            "ticks": 11208,
            "time": 15.920438625,
            "velocity": 0.4015748031496063
          },
          {
            "duration": 0.03409087500000041,
            "durationTicks": 24,
            "midi": 55,
            "name": "G3",
            "ticks": 11208,
            "time": 15.920438625,
            "velocity": 0.4015748031496063
          },
          {
            "duration": 0.03409087500000041,
            "durationTicks": 24,
            "midi": 55,
            "name": "G3",
            "ticks": 11232,
            "time": 15.9545295,
            "velocity": 0.4015748031496063
          },
          {
            "duration": 0.03409087500000041,
            "durationTicks": 24,
            "midi": 59,
            "name": "B3",
            "ticks": 11232,
            "time": 15.9545295,
            "velocity": 0.4015748031496063
          },
          {
            "duration": 0.03409087500000041,
            "durationTicks": 24,
            "midi": 59,
            "name": "B3",
            "ticks": 11256,
            "time": 15.988620375,
            "velocity": 0.4015748031496063
          },
          {
            "duration": 0.03409087500000041,
            "durationTicks": 24,
            "midi": 55,
            "name": "G3",
            "ticks": 11256,
            "time": 15.988620375,
            "velocity": 0.4015748031496063
          },
          {
            "duration": 0.03409087500000041,
            "durationTicks": 24,
            "midi": 55,
            "name": "G3",
            "ticks": 11280,
            "time": 16.02271125,
            "velocity": 0.4015748031496063
          },
          {
            "duration": 0.03409087500000041,
            "durationTicks": 24,
            "midi": 59,
            "name": "B3",
            "ticks": 11280,
            "time": 16.02271125,
            "velocity": 0.4015748031496063
          },
          {
            "duration": 0.03409087500000041,
            "durationTicks": 24,
            "midi": 59,
            "name": "B3",
            "ticks": 11304,
            "time": 16.056802125,
            "velocity": 0.4015748031496063
          },
          {
            "duration": 0.03409087500000041,
            "durationTicks": 24,
            "midi": 55,
            "name": "G3",
            "ticks": 11304,
            "time": 16.056802125,
            "velocity": 0.4015748031496063
          },
          {
            "duration": 0.034090874999996856,
            "durationTicks": 24,
            "midi": 59,
            "name": "B3",
            "ticks": 11328,
            "time": 16.090893,
            "velocity": 0.4015748031496063
          },
          {
            "duration": 0.034090874999996856,
            "durationTicks": 24,
            "midi": 55,
            "name": "G3",
            "ticks": 11328,
            "time": 16.090893,
            "velocity": 0.4015748031496063
          },
          {
            "duration": 0.03409087500000041,
            "durationTicks": 24,
            "midi": 55,
            "name": "G3",
            "ticks": 11352,
            "time": 16.124983874999998,
            "velocity": 0.4015748031496063
          },
          {
            "duration": 0.03409087500000041,
            "durationTicks": 24,
            "midi": 59,
            "name": "B3",
            "ticks": 11352,
            "time": 16.124983874999998,
            "velocity": 0.4015748031496063
          },
          {
            "duration": 0.03409087500000041,
            "durationTicks": 24,
            "midi": 55,
            "name": "G3",
            "ticks": 11376,
            "time": 16.15907475,
            "velocity": 0.4015748031496063
          },
          {
            "duration": 0.03409087500000041,
            "durationTicks": 24,
            "midi": 59,
            "name": "B3",
            "ticks": 11376,
            "time": 16.15907475,
            "velocity": 0.4015748031496063
          },
          {
            "duration": 0.03409087500000041,
            "durationTicks": 24,
            "midi": 55,
            "name": "G3",
            "ticks": 11400,
            "time": 16.193165625,
            "velocity": 0.4015748031496063
          },
          {
            "duration": 0.03409087500000041,
            "durationTicks": 24,
            "midi": 59,
            "name": "B3",
            "ticks": 11400,
            "time": 16.193165625,
            "velocity": 0.4015748031496063
          },
          {
            "duration": 0.03409087500000041,
            "durationTicks": 24,
            "midi": 59,
            "name": "B3",
            "ticks": 11424,
            "time": 16.2272565,
            "velocity": 0.4015748031496063
          },
          {
            "duration": 0.03409087500000041,
            "durationTicks": 24,
            "midi": 55,
            "name": "G3",
            "ticks": 11424,
            "time": 16.2272565,
            "velocity": 0.4015748031496063
          },
          {
            "duration": 0.03409087500000041,
            "durationTicks": 24,
            "midi": 55,
            "name": "G3",
            "ticks": 11448,
            "time": 16.261347375,
            "velocity": 0.4015748031496063
          },
          {
            "duration": 0.03409087500000041,
            "durationTicks": 24,
            "midi": 59,
            "name": "B3",
            "ticks": 11448,
            "time": 16.261347375,
            "velocity": 0.4015748031496063
          },
          {
            "duration": 0.03409087500000041,
            "durationTicks": 24,
            "midi": 59,
            "name": "B3",
            "ticks": 11472,
            "time": 16.29543825,
            "velocity": 0.4015748031496063
          },
          {
            "duration": 0.03409087500000041,
            "durationTicks": 24,
            "midi": 55,
            "name": "G3",
            "ticks": 11472,
            "time": 16.29543825,
            "velocity": 0.4015748031496063
          },
          {
            "duration": 0.03409087500000041,
            "durationTicks": 24,
            "midi": 55,
            "name": "G3",
            "ticks": 11496,
            "time": 16.329529125,
            "velocity": 0.4015748031496063
          },
          {
            "duration": 0.03409087500000041,
            "durationTicks": 24,
            "midi": 59,
            "name": "B3",
            "ticks": 11496,
            "time": 16.329529125,
            "velocity": 0.4015748031496063
          }
        ],
        "endOfTrackTicks": 11520
      },
      {
        "channel": 3,
        "controlChanges": {},
        "pitchBends": [],
        "instrument": {
          "family": "synth lead",
          "number": 82,
          "name": "lead 3 (calliope)"
        },
        "name": "8-Bit Sine",
        "notes": [
          {
            "duration": 0.13636349999999997,
            "durationTicks": 96,
            "midi": 52,
            "name": "E3",
            "ticks": 576,
            "time": 0.818181,
            "velocity": 0.6299212598425197
          },
          {
            "duration": 0.13636349999999997,
            "durationTicks": 96,
            "midi": 55,
            "name": "G3",
            "ticks": 672,
            "time": 0.9545445,
            "velocity": 0.6299212598425197
          },
          {
            "duration": 0.6818175,
            "durationTicks": 480,
            "midi": 59,
            "name": "B3",
            "ticks": 768,
            "time": 1.090908,
            "velocity": 0.6299212598425197
          },
          {
            "duration": 0.13636350000000008,
            "durationTicks": 96,
            "midi": 59,
            "name": "B3",
            "ticks": 1344,
            "time": 1.909089,
            "velocity": 0.6299212598425197
          },
          {
            "duration": 0.13636349999999986,
            "durationTicks": 96,
            "midi": 55,
            "name": "G3",
            "ticks": 1440,
            "time": 2.0454525,
            "velocity": 0.6299212598425197
          },
          {
            "duration": 0.818181,
            "durationTicks": 576,
            "midi": 47,
            "name": "B2",
            "ticks": 1536,
            "time": 2.181816,
            "velocity": 0.6299212598425197
          },
          {
            "duration": 0.13636349999999986,
            "durationTicks": 96,
            "midi": 52,
            "name": "E3",
            "ticks": 2112,
            "time": 2.999997,
            "velocity": 0.6299212598425197
          },
          {
            "duration": 0.818181,
            "durationTicks": 576,
            "midi": 52,
            "name": "E3",
            "ticks": 2304,
            "time": 3.272724,
            "velocity": 0.6299212598425197
          },
          {
            "duration": 0.13636349999999986,
            "durationTicks": 96,
            "midi": 54,
            "name": "F#3",
            "ticks": 2880,
            "time": 4.090905,
            "velocity": 0.6299212598425197
          },
          {
            "duration": 0.13636349999999986,
            "durationTicks": 96,
            "midi": 52,
            "name": "E3",
            "ticks": 2976,
            "time": 4.2272685,
            "velocity": 0.6299212598425197
          },
          {
            "duration": 0.818181,
            "durationTicks": 576,
            "midi": 52,
            "name": "E3",
            "ticks": 3072,
            "time": 4.363632,
            "velocity": 0.6299212598425197
          },
          {
            "duration": 0.13636349999999986,
            "durationTicks": 96,
            "midi": 52,
            "name": "E3",
            "ticks": 3648,
            "time": 5.181813,
            "velocity": 0.6299212598425197
          },
          {
            "duration": 0.13636349999999986,
            "durationTicks": 96,
            "midi": 55,
            "name": "G3",
            "ticks": 3744,
            "time": 5.3181765,
            "velocity": 0.6299212598425197
          },
          {
            "duration": 0.5454540000000003,
            "durationTicks": 384,
            "midi": 60,
            "name": "C4",
            "ticks": 3840,
            "time": 5.45454,
            "velocity": 0.6299212598425197
          },
          {
            "duration": 0.5454540000000003,
            "durationTicks": 384,
            "midi": 62,
            "name": "D4",
            "ticks": 4224,
            "time": 5.999994,
            "velocity": 0.6299212598425197
          },
          {
            "duration": 0.5454539999999994,
            "durationTicks": 384,
            "midi": 64,
            "name": "E4",
            "ticks": 4608,
            "time": 6.545448,
            "velocity": 0.6299212598425197
          },
          {
            "duration": 0.5454539999999994,
            "durationTicks": 384,
            "midi": 64,
            "name": "E4",
            "ticks": 4800,
            "time": 6.818175,
            "velocity": 0.6299212598425197
          },
          {
            "duration": 0.5454539999999994,
            "durationTicks": 384,
            "midi": 64,
            "name": "E4",
            "ticks": 4800,
            "time": 6.818175,
            "velocity": 0.6299212598425197
          },
          {
            "duration": 0.13636350000000075,
            "durationTicks": 96,
            "midi": 62,
            "name": "D4",
            "ticks": 5184,
            "time": 7.3636289999999995,
            "velocity": 0.6299212598425197
          },
          {
            "duration": 0.13636349999999986,
            "durationTicks": 96,
            "midi": 60,
            "name": "C4",
            "ticks": 5280,
            "time": 7.4999925,
            "velocity": 0.6299212598425197
          },
          {
            "duration": 0.818181,
            "durationTicks": 576,
            "midi": 59,
            "name": "B3",
            "ticks": 5376,
            "time": 7.636356,
            "velocity": 0.6299212598425197
          },
          {
            "duration": 0.13636349999999986,
            "durationTicks": 96,
            "midi": 57,
            "name": "A3",
            "ticks": 5952,
            "time": 8.454537,
            "velocity": 0.6299212598425197
          },
          {
            "duration": 0.13636349999999986,
            "durationTicks": 96,
            "midi": 59,
            "name": "B3",
            "ticks": 6048,
            "time": 8.5909005,
            "velocity": 0.6299212598425197
          },
          {
            "duration": 1.2272715000000005,
            "durationTicks": 864,
            "midi": 60,
            "name": "C4",
            "ticks": 6144,
            "time": 8.727264,
            "velocity": 0.6299212598425197
          },
          {
            "duration": 0.2727269999999997,
            "durationTicks": 192,
            "midi": 64,
            "name": "E4",
            "ticks": 7104,
            "time": 10.090899,
            "velocity": 0.6299212598425197
          },
          {
            "duration": 0.4090904999999996,
            "durationTicks": 288,
            "midi": 67,
            "name": "G4",
            "ticks": 7296,
            "time": 10.363626,
            "velocity": 0.6299212598425197
          },
          {
            "duration": 0.13636349999999986,
            "durationTicks": 96,
            "midi": 69,
            "name": "A4",
            "ticks": 7584,
            "time": 10.7727165,
            "velocity": 0.6299212598425197
          },
          {
            "duration": 0.8181810000000009,
            "durationTicks": 576,
            "midi": 69,
            "name": "A4",
            "ticks": 7680,
            "time": 10.90908,
            "velocity": 0.6299212598425197
          },
          {
            "duration": 0.2727269999999997,
            "durationTicks": 192,
            "midi": 71,
            "name": "B4",
            "ticks": 8256,
            "time": 11.727261,
            "velocity": 0.6299212598425197
          },
          {
            "duration": 0.8181809999999992,
            "durationTicks": 576,
            "midi": 67,
            "name": "G4",
            "ticks": 8448,
            "time": 11.999988,
            "velocity": 0.6299212598425197
          },
          {
            "duration": 0.13636349999999986,
            "durationTicks": 96,
            "midi": 66,
            "name": "F#4",
            "ticks": 9024,
            "time": 12.818169,
            "velocity": 0.6299212598425197
          },
          {
            "duration": 0.13636350000000164,
            "durationTicks": 96,
            "midi": 64,
            "name": "E4",
            "ticks": 9120,
            "time": 12.9545325,
            "velocity": 0.6299212598425197
          },
          {
            "duration": 1.0909079999999989,
            "durationTicks": 768,
            "midi": 69,
            "name": "A4",
            "ticks": 9216,
            "time": 13.090896,
            "velocity": 0.6299212598425197
          },
          {
            "duration": 0.2727269999999997,
            "durationTicks": 192,
            "midi": 67,
            "name": "G4",
            "ticks": 10176,
            "time": 14.454531,
            "velocity": 0.6299212598425197
          },
          {
            "duration": 0.40909050000000136,
            "durationTicks": 288,
            "midi": 66,
            "name": "F#4",
            "ticks": 10368,
            "time": 14.727257999999999,
            "velocity": 0.6299212598425197
          },
          {
            "duration": 0.10227262499999945,
            "durationTicks": 72,
            "midi": 64,
            "name": "E4",
            "ticks": 10656,
            "time": 15.1363485,
            "velocity": 0.6299212598425197
          },
          {
            "duration": 0.6818174999999993,
            "durationTicks": 480,
            "midi": 64,
            "name": "E4",
            "ticks": 10752,
            "time": 15.272712,
            "velocity": 0.6299212598425197
          },
          {
            "duration": 0.13636349999999808,
            "durationTicks": 96,
            "midi": 66,
            "name": "F#4",
            "ticks": 11328,
            "time": 16.090893,
            "velocity": 0.6299212598425197
          },
          {
            "duration": 0.13636350000000164,
            "durationTicks": 96,
            "midi": 64,
            "name": "E4",
            "ticks": 11424,
            "time": 16.2272565,
            "velocity": 0.6299212598425197
          },
          {
            "duration": 0.8181809999999992,
            "durationTicks": 576,
            "midi": 63,
            "name": "D#4",
            "ticks": 11520,
            "time": 16.36362,
            "velocity": 0.6299212598425197
          }
        ],
        "endOfTrackTicks": 12096
      },
      {
        "channel": 4,
        "controlChanges": {},
        "pitchBends": [],
        "instrument": {
          "family": "pipe",
          "number": 73,
          "name": "flute"
        },
        "name": "Flute",
        "notes": [
          {
            "duration": 0.13636349999999997,
            "durationTicks": 96,
            "midi": 64,
            "name": "E4",
            "ticks": 576,
            "time": 0.818181,
            "velocity": 0.3937007874015748
          },
          {
            "duration": 0.13636349999999997,
            "durationTicks": 96,
            "midi": 67,
            "name": "G4",
            "ticks": 672,
            "time": 0.9545445,
            "velocity": 0.3937007874015748
          },
          {
            "duration": 0.6818175,
            "durationTicks": 480,
            "midi": 71,
            "name": "B4",
            "ticks": 768,
            "time": 1.090908,
            "velocity": 0.3937007874015748
          },
          {
            "duration": 0.13636350000000008,
            "durationTicks": 96,
            "midi": 71,
            "name": "B4",
            "ticks": 1344,
            "time": 1.909089,
            "velocity": 0.3937007874015748
          },
          {
            "duration": 0.13636349999999986,
            "durationTicks": 96,
            "midi": 67,
            "name": "G4",
            "ticks": 1440,
            "time": 2.0454525,
            "velocity": 0.3937007874015748
          },
          {
            "duration": 0.818181,
            "durationTicks": 576,
            "midi": 59,
            "name": "B3",
            "ticks": 1536,
            "time": 2.181816,
            "velocity": 0.3937007874015748
          },
          {
            "duration": 0.13636349999999986,
            "durationTicks": 96,
            "midi": 64,
            "name": "E4",
            "ticks": 2112,
            "time": 2.999997,
            "velocity": 0.3937007874015748
          },
          {
            "duration": 0.818181,
            "durationTicks": 576,
            "midi": 64,
            "name": "E4",
            "ticks": 2304,
            "time": 3.272724,
            "velocity": 0.3937007874015748
          },
          {
            "duration": 0.13636349999999986,
            "durationTicks": 96,
            "midi": 66,
            "name": "F#4",
            "ticks": 2880,
            "time": 4.090905,
            "velocity": 0.3937007874015748
          },
          {
            "duration": 0.13636349999999986,
            "durationTicks": 96,
            "midi": 64,
            "name": "E4",
            "ticks": 2976,
            "time": 4.2272685,
            "velocity": 0.3937007874015748
          },
          {
            "duration": 0.818181,
            "durationTicks": 576,
            "midi": 64,
            "name": "E4",
            "ticks": 3072,
            "time": 4.363632,
            "velocity": 0.3937007874015748
          },
          {
            "duration": 0.13636349999999986,
            "durationTicks": 96,
            "midi": 64,
            "name": "E4",
            "ticks": 3648,
            "time": 5.181813,
            "velocity": 0.3937007874015748
          },
          {
            "duration": 0.13636349999999986,
            "durationTicks": 96,
            "midi": 67,
            "name": "G4",
            "ticks": 3744,
            "time": 5.3181765,
            "velocity": 0.3937007874015748
          },
          {
            "duration": 0.5454540000000003,
            "durationTicks": 384,
            "midi": 72,
            "name": "C5",
            "ticks": 3840,
            "time": 5.45454,
            "velocity": 0.3937007874015748
          },
          {
            "duration": 0.5454540000000003,
            "durationTicks": 384,
            "midi": 74,
            "name": "D5",
            "ticks": 4224,
            "time": 5.999994,
            "velocity": 0.3937007874015748
          },
          {
            "duration": 0.5454539999999994,
            "durationTicks": 384,
            "midi": 76,
            "name": "E5",
            "ticks": 4608,
            "time": 6.545448,
            "velocity": 0.3937007874015748
          },
          {
            "duration": 0.5454539999999994,
            "durationTicks": 384,
            "midi": 76,
            "name": "E5",
            "ticks": 4800,
            "time": 6.818175,
            "velocity": 0.3937007874015748
          },
          {
            "duration": 0.5454539999999994,
            "durationTicks": 384,
            "midi": 76,
            "name": "E5",
            "ticks": 4800,
            "time": 6.818175,
            "velocity": 0.3937007874015748
          },
          {
            "duration": 0.13636350000000075,
            "durationTicks": 96,
            "midi": 74,
            "name": "D5",
            "ticks": 5184,
            "time": 7.3636289999999995,
            "velocity": 0.3937007874015748
          },
          {
            "duration": 0.13636349999999986,
            "durationTicks": 96,
            "midi": 72,
            "name": "C5",
            "ticks": 5280,
            "time": 7.4999925,
            "velocity": 0.3937007874015748
          },
          {
            "duration": 0.818181,
            "durationTicks": 576,
            "midi": 71,
            "name": "B4",
            "ticks": 5376,
            "time": 7.636356,
            "velocity": 0.3937007874015748
          },
          {
            "duration": 0.13636349999999986,
            "durationTicks": 96,
            "midi": 69,
            "name": "A4",
            "ticks": 5952,
            "time": 8.454537,
            "velocity": 0.3937007874015748
          },
          {
            "duration": 0.13636349999999986,
            "durationTicks": 96,
            "midi": 71,
            "name": "B4",
            "ticks": 6048,
            "time": 8.5909005,
            "velocity": 0.3937007874015748
          },
          {
            "duration": 1.0909080000000007,
            "durationTicks": 768,
            "midi": 72,
            "name": "C5",
            "ticks": 6144,
            "time": 8.727264,
            "velocity": 0.3937007874015748
          },
          {
            "duration": 0.2727269999999997,
            "durationTicks": 192,
            "midi": 76,
            "name": "E5",
            "ticks": 7104,
            "time": 10.090899,
            "velocity": 0.3937007874015748
          },
          {
            "duration": 0.4090904999999996,
            "durationTicks": 288,
            "midi": 79,
            "name": "G5",
            "ticks": 7296,
            "time": 10.363626,
            "velocity": 0.3937007874015748
          },
          {
            "duration": 0.13636349999999986,
            "durationTicks": 96,
            "midi": 81,
            "name": "A5",
            "ticks": 7584,
            "time": 10.7727165,
            "velocity": 0.3937007874015748
          },
          {
            "duration": 0.8181810000000009,
            "durationTicks": 576,
            "midi": 81,
            "name": "A5",
            "ticks": 7680,
            "time": 10.90908,
            "velocity": 0.3937007874015748
          },
          {
            "duration": 0.2727269999999997,
            "durationTicks": 192,
            "midi": 83,
            "name": "B5",
            "ticks": 8256,
            "time": 11.727261,
            "velocity": 0.3937007874015748
          },
          {
            "duration": 0.8181809999999992,
            "durationTicks": 576,
            "midi": 79,
            "name": "G5",
            "ticks": 8448,
            "time": 11.999988,
            "velocity": 0.3937007874015748
          },
          {
            "duration": 0.13636349999999986,
            "durationTicks": 96,
            "midi": 78,
            "name": "F#5",
            "ticks": 9024,
            "time": 12.818169,
            "velocity": 0.3937007874015748
          },
          {
            "duration": 0.13636350000000164,
            "durationTicks": 96,
            "midi": 76,
            "name": "E5",
            "ticks": 9120,
            "time": 12.9545325,
            "velocity": 0.3937007874015748
          },
          {
            "duration": 1.0909079999999989,
            "durationTicks": 768,
            "midi": 81,
            "name": "A5",
            "ticks": 9216,
            "time": 13.090896,
            "velocity": 0.3937007874015748
          },
          {
            "duration": 0.2727269999999997,
            "durationTicks": 192,
            "midi": 79,
            "name": "G5",
            "ticks": 10176,
            "time": 14.454531,
            "velocity": 0.3937007874015748
          },
          {
            "duration": 0.40909050000000136,
            "durationTicks": 288,
            "midi": 78,
            "name": "F#5",
            "ticks": 10368,
            "time": 14.727257999999999,
            "velocity": 0.3937007874015748
          },
          {
            "duration": 0.10227262499999945,
            "durationTicks": 72,
            "midi": 76,
            "name": "E5",
            "ticks": 10656,
            "time": 15.1363485,
            "velocity": 0.3937007874015748
          },
          {
            "duration": 0.6818174999999993,
            "durationTicks": 480,
            "midi": 76,
            "name": "E5",
            "ticks": 10752,
            "time": 15.272712,
            "velocity": 0.3937007874015748
          },
          {
            "duration": 0.13636349999999808,
            "durationTicks": 96,
            "midi": 78,
            "name": "F#5",
            "ticks": 11328,
            "time": 16.090893,
            "velocity": 0.3937007874015748
          },
          {
            "duration": 0.13636350000000164,
            "durationTicks": 96,
            "midi": 76,
            "name": "E5",
            "ticks": 11424,
            "time": 16.2272565,
            "velocity": 0.3937007874015748
          },
          {
            "duration": 0.8181809999999992,
            "durationTicks": 576,
            "midi": 75,
            "name": "D#5",
            "ticks": 11520,
            "time": 16.36362,
            "velocity": 0.3937007874015748
          }
        ],
        "endOfTrackTicks": 12096
      },
      {
        "channel": 5,
        "controlChanges": {},
        "pitchBends": [],
        "instrument": {
          "family": "guitar",
          "number": 26,
          "name": "electric guitar (jazz)"
        },
        "name": "Jazz Guitar",
        "notes": [
          {
            "duration": 0.13636349999999986,
            "durationTicks": 96,
            "midi": 55,
            "name": "G3",
            "ticks": 2880,
            "time": 4.090905,
            "velocity": 0.3937007874015748
          },
          {
            "duration": 0.13636349999999986,
            "durationTicks": 96,
            "midi": 52,
            "name": "E3",
            "ticks": 2976,
            "time": 4.2272685,
            "velocity": 0.3937007874015748
          },
          {
            "duration": 0.13636349999999986,
            "durationTicks": 96,
            "midi": 52,
            "name": "E3",
            "ticks": 3072,
            "time": 4.363632,
            "velocity": 0.3937007874015748
          },
          {
            "duration": 0.13636349999999986,
            "durationTicks": 96,
            "midi": 57,
            "name": "A3",
            "ticks": 5952,
            "time": 8.454537,
            "velocity": 0.3937007874015748
          },
          {
            "duration": 0.13636349999999986,
            "durationTicks": 96,
            "midi": 59,
            "name": "B3",
            "ticks": 6048,
            "time": 8.5909005,
            "velocity": 0.3937007874015748
          },
          {
            "duration": 0.13636349999999986,
            "durationTicks": 96,
            "midi": 60,
            "name": "C4",
            "ticks": 6144,
            "time": 8.727264,
            "velocity": 0.3937007874015748
          },
          {
            "duration": 0.13636349999999986,
            "durationTicks": 96,
            "midi": 55,
            "name": "G3",
            "ticks": 9024,
            "time": 12.818169,
            "velocity": 0.3937007874015748
          },
          {
            "duration": 0.13636350000000164,
            "durationTicks": 96,
            "midi": 52,
            "name": "E3",
            "ticks": 9120,
            "time": 12.9545325,
            "velocity": 0.3937007874015748
          },
          {
            "duration": 0.13636349999999986,
            "durationTicks": 96,
            "midi": 57,
            "name": "A3",
            "ticks": 9216,
            "time": 13.090896,
            "velocity": 0.3937007874015748
          }
        ],
        "endOfTrackTicks": 9312
      },
      {
        "channel": 6,
        "controlChanges": {},
        "pitchBends": [],
        "instrument": {
          "family": "piano",
          "number": 0,
          "name": "acoustic grand piano"
        },
        "name": "Electric Piano",
        "notes": [
          {
            "duration": 0.1363635,
            "durationTicks": 96,
            "midi": 84,
            "name": "C6",
            "ticks": 0,
            "time": 0,
            "velocity": 0.3937007874015748
          },
          {
            "duration": 0.1363635,
            "durationTicks": 96,
            "midi": 81,
            "name": "A5",
            "ticks": 96,
            "time": 0.1363635,
            "velocity": 0.3937007874015748
          },
          {
            "duration": 0.13636350000000003,
            "durationTicks": 96,
            "midi": 79,
            "name": "G5",
            "ticks": 192,
            "time": 0.272727,
            "velocity": 0.3937007874015748
          },
          {
            "duration": 0.13636349999999997,
            "durationTicks": 96,
            "midi": 77,
            "name": "F5",
            "ticks": 384,
            "time": 0.545454,
            "velocity": 0.3937007874015748
          },
          {
            "duration": 0.13636349999999997,
            "durationTicks": 96,
            "midi": 79,
            "name": "G5",
            "ticks": 672,
            "time": 0.9545445,
            "velocity": 0.3937007874015748
          },
          {
            "duration": 0.13636349999999986,
            "durationTicks": 96,
            "midi": 78,
            "name": "F#5",
            "ticks": 864,
            "time": 1.2272715,
            "velocity": 0.3937007874015748
          },
          {
            "duration": 0.13636349999999986,
            "durationTicks": 96,
            "midi": 75,
            "name": "D#5",
            "ticks": 864,
            "time": 1.2272715,
            "velocity": 0.3937007874015748
          },
          {
            "duration": 0.13636350000000008,
            "durationTicks": 96,
            "midi": 75,
            "name": "D#5",
            "ticks": 1056,
            "time": 1.4999985,
            "velocity": 0.3937007874015748
          },
          {
            "duration": 0.13636350000000008,
            "durationTicks": 96,
            "midi": 79,
            "name": "G5",
            "ticks": 1056,
            "time": 1.4999985,
            "velocity": 0.3937007874015748
          },
          {
            "duration": 0.13636350000000008,
            "durationTicks": 96,
            "midi": 76,
            "name": "E5",
            "ticks": 1248,
            "time": 1.7727255,
            "velocity": 0.3937007874015748
          },
          {
            "duration": 0.13636350000000008,
            "durationTicks": 96,
            "midi": 82,
            "name": "A#5",
            "ticks": 1248,
            "time": 1.7727255,
            "velocity": 0.3937007874015748
          }
        ],
        "endOfTrackTicks": 1344
      }
    ]
  }